<?xml version="1.0" encoding="UTF-8" standalone="no"?>
<svg
   xmlns:dc="http://purl.org/dc/elements/1.1/"
   xmlns:cc="http://creativecommons.org/ns#"
   xmlns:rdf="http://www.w3.org/1999/02/22-rdf-syntax-ns#"
   xmlns:svg="http://www.w3.org/2000/svg"
   xmlns="http://www.w3.org/2000/svg"
   xmlns:sodipodi="http://sodipodi.sourceforge.net/DTD/sodipodi-0.dtd"
   xmlns:inkscape="http://www.inkscape.org/namespaces/inkscape"
   viewBox="0 0 36 36"
   id="svg2"
   version="1.1"
   inkscape:version="0.91 r13725"
   sodipodi:docname="1f18e.svg"
   width="36"
   height="36">
  <metadata
     id="metadata12">
    <rdf:RDF>
      <cc:Work
         rdf:about="">
        <dc:format>image/svg+xml</dc:format>
        <dc:type
           rdf:resource="http://purl.org/dc/dcmitype/StillImage" />
      </cc:Work>
    </rdf:RDF>
  </metadata>
  <defs
     id="defs10" />
  <sodipodi:namedview
     pagecolor="#ffffff"
     bordercolor="#666666"
     borderopacity="1"
     objecttolerance="10"
     gridtolerance="10"
     guidetolerance="10"
     inkscape:pageopacity="0"
     inkscape:pageshadow="2"
     inkscape:window-width="640"
     inkscape:window-height="480"
     id="namedview8"
     showgrid="false"
     inkscape:zoom="6.5555556"
     inkscape:cx="18"
     inkscape:cy="18"
     inkscape:window-x="0"
     inkscape:window-y="0"
     inkscape:window-maximized="0"
     inkscape:current-layer="svg2" />
  <path
     d="m 36,32 c 0,2.209 -1.791,4 -4,4 L 4,36 C 1.791,36 0,34.209 0,32 L 0,4 C 0,1.791 1.791,0 4,0 l 28,0 c 2.209,0 4,1.791 4,4 l 0,28 z"
     id="path4"
     inkscape:connector-curvature="0"
     style="fill:#dd2e44" />
  <path
     d="m 7.15,10.072 c 0.476,-1.288 1.567,-2.324 2.996,-2.324 1.483,0 2.52,0.979 2.996,2.324 l 5.488,15.231 c 0.168,0.448 0.224,0.84 0.224,1.036 0,1.092 -0.896,1.848 -1.932,1.848 -1.177,0 -1.765,-0.616 -2.044,-1.456 L 14,24 6.28,24 5.414,26.703 c -0.28,0.868 -0.868,1.484 -2.016,1.484 -1.12,0 -2.072,-0.84 -2.072,-1.96 0,-0.448 0.14,-0.784 0.196,-0.924 L 7.15,10.072 Z m 0.308,10.163 5.32,0 -2.604,-8.119 -0.056,0 -2.66,8.119 z M 20,10.1 C 20,8.756 20.924,8 22.212,8 l 5.376,0 c 2.912,0 5.265,1.96 5.265,4.928 0,1.96 -0.812,3.276 -2.605,4.116 l 0,0.056 c 2.38,0.336 4.256,2.424 4.256,4.859 0,3.948 -2.632,6.041 -6.496,6.041 L 22.24,28 C 20.952,28 20,27.124 20,25.808 L 20,10.1 Z m 4.2,5.9 2.184,0 c 1.372,0 2.268,-0.815 2.268,-2.216 0,-1.315 -1.036,-2.088 -2.268,-2.088 l -2.184,0 0,4.304 z m 0,8 3.304,0 c 1.513,0 2.632,-0.729 2.632,-2.296 0,-1.315 -1.008,-2.112 -2.968,-2.112 l -2.968,0 0,4.408 z"
     id="path6"
     inkscape:connector-curvature="0"
     style="fill:#ffffff" />
</svg>
