<?xml version="1.0" encoding="UTF-8" standalone="no"?>
<svg
   xmlns:dc="http://purl.org/dc/elements/1.1/"
   xmlns:cc="http://creativecommons.org/ns#"
   xmlns:rdf="http://www.w3.org/1999/02/22-rdf-syntax-ns#"
   xmlns:svg="http://www.w3.org/2000/svg"
   xmlns="http://www.w3.org/2000/svg"
   xmlns:sodipodi="http://sodipodi.sourceforge.net/DTD/sodipodi-0.dtd"
   xmlns:inkscape="http://www.inkscape.org/namespaces/inkscape"
   viewBox="0 0 36 36"
   id="svg2"
   version="1.1"
   inkscape:version="0.91 r13725"
   sodipodi:docname="1f195.svg"
   width="36"
   height="36">
  <metadata
     id="metadata12">
    <rdf:RDF>
      <cc:Work
         rdf:about="">
        <dc:format>image/svg+xml</dc:format>
        <dc:type
           rdf:resource="http://purl.org/dc/dcmitype/StillImage" />
      </cc:Work>
    </rdf:RDF>
  </metadata>
  <defs
     id="defs10" />
  <sodipodi:namedview
     pagecolor="#ffffff"
     bordercolor="#666666"
     borderopacity="1"
     objecttolerance="10"
     gridtolerance="10"
     guidetolerance="10"
     inkscape:pageopacity="0"
     inkscape:pageshadow="2"
     inkscape:window-width="640"
     inkscape:window-height="480"
     id="namedview8"
     showgrid="false"
     inkscape:zoom="6.5555556"
     inkscape:cx="18"
     inkscape:cy="18"
     inkscape:window-x="0"
     inkscape:window-y="0"
     inkscape:window-maximized="0"
     inkscape:current-layer="svg2" />
  <path
     d="m 36,32 c 0,2.209 -1.791,4 -4,4 L 4,36 C 1.791,36 0,34.209 0,32 L 0,4 C 0,1.791 1.791,0 4,0 l 28,0 c 2.209,0 4,1.791 4,4 l 0,28 z"
     id="path4"
     inkscape:connector-curvature="0"
     style="fill:#3b88c3" />
  <path
     d="m 1.527,13.121 c 0,-0.85 0.544,-1.326 1.275,-1.326 0.323,0 0.85,0.255 1.071,0.561 l 5.388,7.191 0.034,0 0,-6.426 c 0,-0.85 0.544,-1.326 1.275,-1.326 0.731,0 1.275,0.476 1.275,1.326 l 0,9.655 c 0,0.85 -0.544,1.325 -1.275,1.325 -0.323,0 -0.833,-0.255 -1.071,-0.561 l -5.389,-7.106 -0.033,0 0,6.341 c 0,0.85 -0.544,1.325 -1.275,1.325 -0.731,0 -1.275,-0.476 -1.275,-1.325 l 0,-9.654 z m 11.067,0.255 c 0,-0.85 0.425,-1.479 1.326,-1.479 l 4.215,0 c 0.816,0 1.207,0.578 1.207,1.173 0,0.578 -0.407,1.173 -1.207,1.173 l -2.992,0 0,2.481 2.788,0 c 0.833,0 1.24,0.578 1.24,1.173 0,0.578 -0.424,1.173 -1.24,1.173 l -2.788,0 0,2.584 3.145,0 c 0.816,0 1.206,0.578 1.206,1.173 0,0.578 -0.407,1.173 -1.206,1.173 l -4.386,0 c -0.748,0 -1.309,-0.51 -1.309,-1.274 l 0,-9.35 z m 7.31,0.119 c -0.051,-0.221 -0.068,-0.34 -0.068,-0.578 0,-0.544 0.459,-1.122 1.207,-1.122 0.816,0 1.207,0.476 1.359,1.224 l 1.445,7.224 0.034,0 2.21,-7.445 c 0.188,-0.612 0.697,-1.003 1.326,-1.003 0.629,0 1.139,0.391 1.326,1.003 l 2.209,7.445 0.033,0 1.445,-7.224 c 0.152,-0.748 0.545,-1.224 1.359,-1.224 0.748,0 1.207,0.578 1.207,1.122 0,0.238 -0.016,0.357 -0.068,0.578 l -2.158,9.281 c -0.17,0.714 -0.73,1.325 -1.682,1.325 -0.834,0 -1.48,-0.544 -1.684,-1.24 l -1.97,-6.561 -0.034,0 -1.972,6.561 c -0.204,0.696 -0.851,1.24 -1.683,1.24 -0.952,0 -1.514,-0.611 -1.684,-1.325 l -2.157,-9.281 z"
     id="path6"
     inkscape:connector-curvature="0"
     style="fill:#ffffff" />
</svg>
