<?xml version="1.0" encoding="UTF-8" standalone="no"?>
<svg
   xmlns:dc="http://purl.org/dc/elements/1.1/"
   xmlns:cc="http://creativecommons.org/ns#"
   xmlns:rdf="http://www.w3.org/1999/02/22-rdf-syntax-ns#"
   xmlns:svg="http://www.w3.org/2000/svg"
   xmlns="http://www.w3.org/2000/svg"
   xmlns:sodipodi="http://sodipodi.sourceforge.net/DTD/sodipodi-0.dtd"
   xmlns:inkscape="http://www.inkscape.org/namespaces/inkscape"
   viewBox="0 0 36 36"
   id="svg2"
   version="1.1"
   inkscape:version="0.91 r13725"
   sodipodi:docname="1f199.svg"
   width="36"
   height="36">
  <metadata
     id="metadata12">
    <rdf:RDF>
      <cc:Work
         rdf:about="">
        <dc:format>image/svg+xml</dc:format>
        <dc:type
           rdf:resource="http://purl.org/dc/dcmitype/StillImage" />
      </cc:Work>
    </rdf:RDF>
  </metadata>
  <defs
     id="defs10" />
  <sodipodi:namedview
     pagecolor="#ffffff"
     bordercolor="#666666"
     borderopacity="1"
     objecttolerance="10"
     gridtolerance="10"
     guidetolerance="10"
     inkscape:pageopacity="0"
     inkscape:pageshadow="2"
     inkscape:window-width="640"
     inkscape:window-height="480"
     id="namedview8"
     showgrid="false"
     inkscape:zoom="6.5555556"
     inkscape:cx="18"
     inkscape:cy="18"
     inkscape:window-x="0"
     inkscape:window-y="0"
     inkscape:window-maximized="0"
     inkscape:current-layer="svg2" />
  <path
     d="m 36,32 c 0,2.209 -1.791,4 -4,4 L 4,36 C 1.791,36 0,34.209 0,32 L 0,4 C 0,1.791 1.791,0 4,0 l 28,0 c 2.209,0 4,1.791 4,4 l 0,28 z"
     id="path4"
     inkscape:connector-curvature="0"
     style="fill:#3b88c3" />
  <path
     d="m 2.281,11.562 c 0,-1.05 0.672,-1.638 1.575,-1.638 0.903,0 1.575,0.588 1.575,1.638 l 0,7.328 c 0,1.932 1.239,3.464 3.233,3.464 1.911,0 3.212,-1.616 3.212,-3.464 l 0,-7.328 c 0,-1.05 0.672,-1.638 1.575,-1.638 0.903,0 1.575,0.588 1.575,1.638 l 0,7.496 c 0,3.527 -2.898,6.193 -6.362,6.193 -3.506,0 -6.383,-2.625 -6.383,-6.193 l 0,-7.496 z m 14.511,0.127 c 0,-0.987 0.588,-1.638 1.638,-1.638 l 3.717,0 c 3.086,0 5.375,2.016 5.375,5.018 0,3.066 -2.373,4.976 -5.25,4.976 l -2.33,0 0,3.443 c 0,1.05 -0.672,1.638 -1.575,1.638 -0.903,0 -1.575,-0.588 -1.575,-1.638 l 0,-11.799 z m 3.149,5.584 2.142,0 c 1.323,0 2.163,-0.966 2.163,-2.225 0,-1.26 -0.84,-2.226 -2.163,-2.226 l -2.142,0 0,4.451 z m 9.45,6.341 c 0,-0.903 0.736,-1.638 1.639,-1.638 0.903,0 1.637,0.734 1.637,1.638 0,0.903 -0.734,1.638 -1.637,1.638 -0.903,0 -1.639,-0.734 -1.639,-1.638 z m 0.127,-12.387 c 0,-0.882 0.65,-1.428 1.512,-1.428 0.84,0 1.512,0.567 1.512,1.428 l 0,8.084 c 0,0.86 -0.672,1.428 -1.512,1.428 -0.861,0 -1.512,-0.547 -1.512,-1.428 l 0,-8.084 z"
     id="path6"
     inkscape:connector-curvature="0"
     style="fill:#ffffff" />
</svg>
