<?xml version="1.0" encoding="UTF-8" standalone="no"?>
<svg
   xmlns:dc="http://purl.org/dc/elements/1.1/"
   xmlns:cc="http://creativecommons.org/ns#"
   xmlns:rdf="http://www.w3.org/1999/02/22-rdf-syntax-ns#"
   xmlns:svg="http://www.w3.org/2000/svg"
   xmlns="http://www.w3.org/2000/svg"
   xmlns:sodipodi="http://sodipodi.sourceforge.net/DTD/sodipodi-0.dtd"
   xmlns:inkscape="http://www.inkscape.org/namespaces/inkscape"
   viewBox="0 0 36 26"
   id="svg2"
   version="1.1"
   inkscape:version="0.91 r13725"
   sodipodi:docname="1f1e6-1f1e8.svg"
   width="36"
   height="26">
  <metadata
     id="metadata98">
    <rdf:RDF>
      <cc:Work
         rdf:about="">
        <dc:format>image/svg+xml</dc:format>
        <dc:type
           rdf:resource="http://purl.org/dc/dcmitype/StillImage" />
      </cc:Work>
    </rdf:RDF>
  </metadata>
  <defs
     id="defs96" />
  <sodipodi:namedview
     pagecolor="#ffffff"
     bordercolor="#666666"
     borderopacity="1"
     objecttolerance="10"
     gridtolerance="10"
     guidetolerance="10"
     inkscape:pageopacity="0"
     inkscape:pageshadow="2"
     inkscape:window-width="640"
     inkscape:window-height="480"
     id="namedview94"
     showgrid="false"
     inkscape:zoom="6.5555556"
     inkscape:cx="18"
     inkscape:cy="13"
     inkscape:window-x="0"
     inkscape:window-y="0"
     inkscape:window-maximized="0"
     inkscape:current-layer="svg2" />
  <path
     d="M 32,0 4,0 C 3.795,0 3.593,0.015 3.396,0.045 L 3.392,1.799 0.662,1.795 C 0.244,2.427 0,3.185 0,4 l 0,18 c 0,2.209 1.791,4 4,4 l 28,0 c 2.209,0 4,-1.791 4,-4 L 36,4 C 36,1.791 34.209,0 32,0 Z"
     id="path4"
     inkscape:connector-curvature="0"
     style="fill:#00247d" />
  <path
     d="m 29.159,11.209 -1.53,3.927 -1.53,-3.927 1.53,-3.927 z"
     id="path6"
     inkscape:connector-curvature="0"
     style="fill:#288548" />
  <path
     d="m 24.353,12.574 c 0,0 0.273,0.591 0.91,0.591 0.637,0 1.001,-0.455 1.001,-0.455 l 0.637,0.819 c 0,0 -0.409,0.273 -0.409,0.592 0,0 -0.273,-0.273 -0.182,-0.501 0,0 -0.183,0.183 -0.318,0.228 0,0 -0.046,-0.273 0.045,-0.409 0,0 -0.318,0.182 -0.728,0.182 -0.41,0 -0.819,-0.272 -0.91,-0.5 -0.091,-0.228 -0.046,-0.547 -0.046,-0.547 z M 26.9,11.982 c 0,0.15 -0.121,0.272 -0.273,0.272 l -0.227,0 c -0.15,0 -0.273,-0.122 -0.273,-0.272 0,-0.15 0.123,-0.273 0.273,-0.273 l 0.227,0 c 0.152,0 0.273,0.123 0.273,0.273 z m 1.412,-0.364 c 0,0.151 -0.122,0.273 -0.273,0.273 l -0.229,0 c -0.15,0 -0.272,-0.122 -0.272,-0.273 0,-0.15 0.122,-0.273 0.272,-0.273 l 0.228,0 c 0.152,10e-4 0.274,0.123 0.274,0.273 z"
     id="path8"
     inkscape:connector-curvature="0"
     style="fill:#ffffff" />
  <path
     d="m 27.076,12.188 c -0.127,0.08 -0.296,0.043 -0.377,-0.085 L 26.602,11.95 c -0.081,-0.128 -0.043,-0.296 0.084,-0.377 l 0.039,-0.024 c 0.127,-0.081 0.296,-0.043 0.376,0.085 l 0.098,0.153 c 0.081,0.127 0.043,0.296 -0.084,0.377 l -0.039,0.024 z m 1.547,-0.182 c -0.127,0.081 -0.296,0.043 -0.376,-0.084 l -0.098,-0.154 c -0.081,-0.127 -0.043,-0.296 0.084,-0.376 l 0.039,-0.024 c 0.127,-0.081 0.296,-0.043 0.377,0.084 l 0.097,0.154 c 0.081,0.127 0.043,0.296 -0.084,0.376 l -0.039,0.024 z"
     id="path10"
     inkscape:connector-curvature="0"
     style="fill:#6488bd" />
  <path
     d="m 27.622,12.098 c -0.127,0.08 -0.296,0.043 -0.376,-0.085 L 27.148,11.86 c -0.081,-0.128 -0.043,-0.297 0.084,-0.377 l 0.039,-0.024 c 0.127,-0.081 0.296,-0.043 0.377,0.085 l 0.097,0.153 c 0.081,0.127 0.043,0.296 -0.084,0.377 l -0.039,0.024 z m 1.337,0.133 C 28.809,12.226 28.69,12.1 28.695,11.949 l 0.006,-0.182 c 0.005,-0.15 0.132,-0.269 0.282,-0.264 l 0.045,0.002 c 0.151,0.005 0.27,0.131 0.264,0.281 l -0.006,0.183 c -0.005,0.15 -0.131,0.269 -0.281,0.264 l -0.046,-0.002 z"
     id="path12"
     inkscape:connector-curvature="0"
     style="fill:#297f47" />
  <path
     d="m 27.629,11.709 c 0.591,-0.027 1.456,1.684 1.502,1.911 0.045,0.228 -0.273,0.864 -0.501,1.001 -0.228,0.137 -1.274,0.273 -1.547,0.046 -0.273,-0.227 -0.318,-0.819 -0.364,-1.001 -0.045,-0.183 -0.501,-0.819 -0.501,-0.819 l -0.5,-0.091 0.182,-0.182 0.592,0.045 0.046,-0.182 -0.273,0 c -0.001,0.001 0.409,-0.682 1.364,-0.728 z"
     id="path14"
     inkscape:connector-curvature="0"
     style="fill:#689f9e" />
  <path
     d="m 27.447,14.53 c 0.228,-0.274 1.046,-0.955 1.319,-0.818 0.273,0.136 0.228,0.409 -0.046,0.682 -0.272,0.273 -1.273,0.136 -1.273,0.136 z"
     id="path16"
     inkscape:connector-curvature="0"
     style="fill:#481918" />
  <path
     d="m 27.629,14.44 -2.731,0 0,2.411 c 0,1.639 0.615,2.503 1.115,2.958 0.501,0.455 1.615,0.864 1.615,0.864 0,0 1.114,-0.409 1.615,-0.864 0.5,-0.455 1.115,-1.319 1.115,-2.958 l 0,-2.411 -2.729,0 z"
     id="path18"
     inkscape:connector-curvature="0"
     style="fill:#ffffff" />
  <path
     d="m 29.631,19.08 c -0.364,0 -0.637,0.41 -1.001,0.41 -0.364,0 -0.637,-0.364 -0.955,-0.364 -0.318,0 -0.592,0.364 -0.956,0.364 -0.363,0 -0.637,-0.41 -1.001,-0.41 -0.079,0 -0.165,0.026 -0.252,0.065 0.175,0.284 0.369,0.5 0.548,0.663 0.501,0.455 1.615,0.864 1.615,0.864 0,0 1.114,-0.409 1.615,-0.864 0.186,-0.169 0.386,-0.394 0.566,-0.693 -0.062,-0.021 -0.122,-0.035 -0.179,-0.035 z m 0,-1.956 c -0.364,0 -0.637,0.409 -1.001,0.409 -0.364,0 -0.637,-0.364 -0.955,-0.364 -0.318,0 -0.592,0.364 -0.956,0.364 -0.363,0 -0.637,-0.409 -1.001,-0.409 -0.251,0 -0.567,0.26 -0.783,0.376 0.032,0.29 0.085,0.55 0.153,0.783 0.176,-0.125 0.357,-0.249 0.585,-0.249 0.454,0 0.773,0.409 1.092,0.409 0.318,0 0.592,-0.318 0.91,-0.318 0.318,0 0.591,0.318 0.909,0.318 0.318,0 0.638,-0.409 1.093,-0.409 0.194,0 0.355,0.091 0.508,0.195 0.065,-0.232 0.115,-0.491 0.144,-0.779 -0.209,-0.128 -0.478,-0.326 -0.698,-0.326 z m 0,-1.957 c -0.364,0 -0.637,0.41 -1.001,0.41 -0.364,0 -0.637,-0.364 -0.955,-0.364 -0.318,0 -0.592,0.364 -0.956,0.364 -0.363,0 -0.637,-0.41 -1.001,-0.41 -0.265,0 -0.603,0.29 -0.819,0.395 l 0,0.894 c 0.241,-0.147 0.466,-0.378 0.774,-0.378 0.454,0 0.773,0.41 1.092,0.41 0.318,0 0.592,-0.319 0.91,-0.319 0.318,0 0.591,0.319 0.909,0.319 0.318,0 0.638,-0.41 1.093,-0.41 0.268,0 0.475,0.176 0.683,0.318 l 0,-0.884 c -0.214,-0.126 -0.499,-0.345 -0.729,-0.345 z"
     id="path20"
     inkscape:connector-curvature="0"
     style="fill:#3ab1d6" />
  <path
     d="m 25.13,18.415 c 0.135,0.409 0.316,0.73 0.508,0.981 l 1.991,-2.228 1.991,2.228 c 0.191,-0.251 0.373,-0.572 0.508,-0.981 l -2.499,-2.701 -2.499,2.701 z"
     id="path22"
     inkscape:connector-curvature="0"
     style="fill:#288548" />
  <path
     d="m 23.534,18.898 c 0.146,-0.009 0.466,-0.012 0.591,0.045 0.379,0.174 0.638,0.592 0.638,0.592 0,0 0.546,0.409 0.592,0.683 0,0 0.409,0.183 0.409,0.364 0,0.182 -0.592,0.363 -0.774,0.318 -0.183,-0.046 -0.683,-0.182 -0.865,-0.091 -0.182,0.091 -0.728,0.227 -0.955,0.182 -0.228,-0.046 -0.5,0 -0.683,0 -0.182,0 -0.409,-0.182 -0.683,-0.272 -0.273,-0.092 -0.91,0.091 -1.001,-0.183 -0.091,-0.272 0.637,-0.546 0.91,-0.546 0.274,0 1.048,-1.047 1.821,-1.092 z"
     id="path24"
     inkscape:connector-curvature="0"
     style="fill:#74948f" />
  <path
     d="m 23.033,19.126 c 0,0 0.228,0.045 0.273,0.045 0.045,0 0.318,-0.091 0.409,-0.045 0.091,0.045 0.046,0.182 0.182,0.228 0.137,0.046 0.183,0.091 0.092,0.228 l -0.183,0.272 c 0,0 -0.5,0.091 -0.683,0.183 -0.182,0.091 -0.546,0.228 -0.136,0.272 0.409,0.046 1.001,0.228 0.909,0.273 -0.091,0.045 -0.637,0 -0.818,0 -0.183,0 -0.546,0.091 -0.638,0.091 -0.091,0 -0.363,0.046 -0.227,0.137 0.136,0.091 -0.183,-0.046 -0.364,-0.091 -0.182,-0.046 -0.592,-0.183 -0.318,-0.274 0.273,-0.091 0.5,-0.045 0.637,-0.045 0.137,0 0.318,-0.183 0.182,-0.228 -0.136,-0.046 0.137,-0.364 0.41,-0.41 0.272,-0.045 0.728,-0.137 0.363,-0.227 -0.362,-0.091 -0.408,-0.227 -0.09,-0.409 z"
     id="path26"
     inkscape:connector-curvature="0"
     style="fill:#cfdcd9" />
  <path
     d="m 23.352,20.036 c 0.183,-0.046 0.638,0.045 0.592,0.137 -0.046,0.091 -0.091,0.182 -0.228,0.136 -0.137,-0.045 -0.364,-0.273 -0.364,-0.273 z"
     id="path28"
     inkscape:connector-curvature="0"
     style="fill:#cfdcd9" />
  <path
     d="m 25.354,20.218 c -0.046,-0.274 -0.592,-0.683 -0.592,-0.683 0,0 -0.242,-0.391 -0.602,-0.573 -0.135,0.05 -0.189,0.163 -0.036,0.255 0.228,0.137 0.228,0.227 0.137,0.273 -0.091,0.045 -0.182,0.136 -0.227,0.228 -0.045,0.091 0.137,-0.046 0.364,0 0.228,0.045 0.228,0.045 0.409,0.091 0.183,0.045 0.364,0.228 0.274,0.273 -0.091,0.046 0.091,0.092 0.136,0.227 0.046,0.137 -0.091,0.092 -0.273,0.092 -0.182,0 -0.683,0 -0.729,0.045 -0.045,0.046 0.865,0.046 0.865,0.137 0,0.091 -0.501,0 -0.637,0.045 -0.137,0.046 -0.592,0.137 -0.773,0.092 -0.183,-0.046 -0.547,-0.092 -0.638,-0.046 -0.091,0.046 -0.318,0.091 -0.045,0.137 0.272,0.045 0.727,0.045 1.001,0 0.272,-0.046 0.455,-0.228 0.728,-0.137 0.141,0.047 0.148,0.13 0.16,0.199 l 0.113,0.028 c 0.108,0.027 0.359,-0.026 0.547,-0.111 0.072,-0.045 0.142,-0.094 0.203,-0.143 0.015,-0.021 0.024,-0.043 0.024,-0.064 10e-4,-0.183 -0.409,-0.365 -0.409,-0.365 z"
     id="path30"
     inkscape:connector-curvature="0"
     style="fill:#3c4544" />
  <path
     d="m 23.762,18.717 c 0,0 -0.091,-0.41 0,-0.455 0.091,-0.046 0.228,0.137 0.228,0.137 0,0 0,-0.501 0.136,-0.456 0.137,0.046 0.183,0.228 0.183,0.228 0,0 0.137,-0.363 0.272,-0.272 0.137,0.091 0,0.364 0,0.364 0,0 0.318,0.137 0.228,0.273 -0.091,0.137 -0.546,0.137 -0.637,0.183 -0.091,0.045 -0.046,0.182 0.045,0.136 0.092,-0.045 0.547,-0.228 0.501,-0.045 -0.045,0.182 -0.137,0.228 -0.318,0.228 -0.183,0 -0.501,-0.092 -0.501,-0.092 l -0.409,0.273 -0.046,-0.046 0.318,-0.456 z m -0.774,-0.455 c 0.045,0.182 0.091,0.228 0.272,0.228 0.182,0 0.318,0.091 0.228,0.182 -0.091,0.091 -0.318,0.091 -0.318,0.091 l 0.137,0.364 -0.046,0.045 -0.182,-0.363 -0.183,0.228 c 0,0 -0.272,-0.183 -0.182,-0.274 0.091,-0.091 0.274,-0.091 0.182,-0.182 -0.091,-0.091 -0.227,-0.364 0.046,-0.318 0.273,0.045 -0.182,0.137 -0.182,0.137 m -2.502,1.773 c 0.046,-0.092 0.318,-0.183 0.318,-0.183 0,0 0.046,-0.364 0.183,-0.364 0.136,0 0.272,0.273 0.272,0.273 0,0 0.046,-0.182 0.137,-0.137 0.091,0.046 0.318,0.273 0.272,0.364 -0.045,0.091 -0.091,0.409 -0.272,0.455 -0.182,0.045 -0.364,-0.273 -0.364,-0.273 0,0 -0.091,0.046 -0.272,0.046 -0.183,0 -0.274,-0.181 -0.274,-0.181 z m 4.14,-0.729 c 0,0 0.137,-0.409 0.274,-0.364 0.136,0.046 0.136,0.228 0.136,0.228 0,0 0.409,-0.045 0.592,0.092 0.182,0.136 0.182,0.409 -0.045,0.5 -0.229,0.091 -0.547,-0.091 -0.592,-0.137 -0.046,-0.045 -0.046,0.501 -0.227,0.501 -0.183,0 -0.274,-0.228 -0.228,-0.364 0.045,-0.137 0,-0.273 0,-0.273 0,0 -0.364,0 -0.455,0.183 0,0 0.091,-0.137 0.272,-0.227 l 0.273,-0.139 z"
     id="path32"
     inkscape:connector-curvature="0"
     style="fill:#288548" />
  <path
     d="m 24.171,12.893 c 0,0 -0.137,-0.273 -0.592,-0.091 -0.455,0.182 -0.546,0.5 -0.591,0.728 -0.046,0.227 0.091,0.455 -0.228,0.683 -0.319,0.228 -0.546,1.638 -0.183,1.593 0.364,-0.046 0.455,-0.091 0.638,0.045 0.182,0.137 0.591,0.183 0.864,-0.136 0,0 0.272,0.409 0.272,0.637 0,0.228 -0.091,0.864 0.183,0.955 0,0 0.409,-0.546 0.409,-1.092 0,-0.546 -0.137,-1.138 -0.592,-1.41 0,0 0.183,-0.137 0.319,-0.319 0.136,-0.182 0.226,-0.136 0.5,-0.136 l 0.728,0 c 0,0 -0.182,-0.41 -0.409,-0.501 -0.228,-0.091 -0.637,-0.318 -1.046,0 -0.41,0.318 -0.683,0.546 -0.683,0.546 l -0.046,-0.318 c 0,0 0.091,-0.182 0.274,-0.363 0.182,-0.183 0.182,-0.455 0.182,-0.592 l 10e-4,-0.229 z"
     id="path34"
     inkscape:connector-curvature="0"
     style="fill:#d1bea7" />
  <path
     d="m 24.944,13.666 c 0.774,0 1.001,0.728 1.001,0.728 l -0.819,0 c 0,0 -0.136,-0.045 -0.228,-0.045 -0.091,0 -0.409,0.228 -0.546,0.5 -0.137,0.274 -0.818,-0.045 -0.682,-0.272 0.137,-0.228 0.455,-0.911 1.274,-0.911 z"
     id="path36"
     inkscape:connector-curvature="0"
     style="fill:#937a61" />
  <path
     d="m 23.352,14.53 c 0.019,-0.076 0.156,-0.09 0.318,-0.058 0.177,0.034 0.342,0.187 0.501,0.24 0.409,0.136 0.864,0.727 0.864,1.273 0,0.546 -0.409,1.183 -0.455,1.319 -0.045,0.137 -0.136,0 -0.182,-0.137 -0.046,-0.136 -0.046,-0.454 -0.046,-0.727 0,-0.273 -0.137,-0.683 -0.363,-0.819 -0.227,-0.136 -0.819,-0.363 -0.637,-1.091 z m -0.682,3.732 c 0,0.111 0.146,0.504 0.136,0.909 0,0.031 -0.044,0.243 -0.045,0.273 -0.014,0.395 -0.142,0.599 -0.228,0.729 0,0 -0.227,-0.092 -0.455,-0.41 -0.228,-0.318 -0.273,-0.637 -0.137,-0.91 0.137,-0.273 0.729,-0.591 0.729,-0.591 z"
     id="path38"
     inkscape:connector-curvature="0"
     style="fill:#af987e" />
  <path
     d="m 22.396,17.761 c 0.045,0 0.16,0.951 0.091,1.319 -0.137,0.729 -0.683,1.547 -1.047,1.456 -0.363,-0.091 -0.136,-0.318 -0.045,-0.5 0.091,-0.183 0.227,-0.592 0.137,-0.91 -0.092,-0.318 0.864,-1.365 0.864,-1.365 z"
     id="path40"
     inkscape:connector-curvature="0"
     style="fill:#d1bea7" />
  <path
     d="m 23.124,15.668 c 0.137,0.272 0.455,0.5 0.819,0.091 0,0 0.137,0.683 -0.137,1.138 -0.272,0.455 -1.319,1.638 -1.319,1.638 l -0.137,-0.774 0.774,-2.093 z"
     id="path42"
     inkscape:connector-curvature="0"
     style="fill:#ba8f69" />
  <path
     d="m 22.441,14.121 c 0.319,-0.137 0.774,0.091 0.819,0.363 0.046,0.273 0.091,0.91 0.046,1.184 -0.046,0.272 0,0.728 -0.091,0.955 -0.092,0.228 -0.455,0.455 -0.501,0.774 -0.045,0.318 -0.318,0.591 -0.727,1.046 -0.41,0.455 -1.047,1.183 -1.229,1.092 -0.183,-0.091 -0.41,-1.729 0.136,-3.14 0.546,-1.41 1.547,-2.274 1.547,-2.274 z"
     id="path44"
     inkscape:connector-curvature="0"
     style="fill:#bb6c3f" />
  <path
     d="m 23.625,12.938 c 0.182,-0.091 0.318,-0.045 0.182,0.092 -0.136,0.135 -0.365,-10e-4 -0.182,-0.092 z"
     id="path46"
     inkscape:connector-curvature="0"
     style="fill:#020202" />
  <path
     d="m 31.724,18.898 c -0.146,-0.009 -0.466,-0.012 -0.591,0.045 -0.379,0.174 -0.638,0.592 -0.638,0.592 0,0 -0.546,0.409 -0.592,0.683 0,0 -0.409,0.183 -0.409,0.364 0,0.182 0.592,0.363 0.773,0.318 0.183,-0.046 0.683,-0.182 0.865,-0.091 0.182,0.091 0.728,0.227 0.955,0.182 0.228,-0.046 0.5,0 0.683,0 0.182,0 0.409,-0.182 0.683,-0.272 0.273,-0.092 0.91,0.091 1.001,-0.183 0.091,-0.272 -0.637,-0.546 -0.91,-0.546 -0.273,0 -1.047,-1.047 -1.82,-1.092 z"
     id="path48"
     inkscape:connector-curvature="0"
     style="fill:#74948f" />
  <path
     d="m 32.225,19.126 c 0,0 -0.228,0.045 -0.273,0.045 -0.045,0 -0.318,-0.091 -0.409,-0.045 -0.091,0.045 -0.046,0.182 -0.182,0.228 -0.137,0.046 -0.183,0.091 -0.092,0.228 l 0.183,0.272 c 0,0 0.5,0.091 0.683,0.183 0.182,0.091 0.546,0.228 0.136,0.272 -0.409,0.046 -1.001,0.228 -0.909,0.273 0.091,0.045 0.637,0 0.818,0 0.183,0 0.546,0.091 0.638,0.091 0.091,0 0.363,0.046 0.227,0.137 -0.136,0.091 0.183,-0.046 0.364,-0.091 0.182,-0.046 0.592,-0.183 0.318,-0.274 -0.273,-0.091 -0.5,-0.045 -0.637,-0.045 -0.137,0 -0.318,-0.183 -0.182,-0.228 0.136,-0.046 -0.137,-0.364 -0.41,-0.41 -0.272,-0.045 -0.728,-0.137 -0.363,-0.227 0.362,-0.091 0.408,-0.227 0.09,-0.409 z"
     id="path50"
     inkscape:connector-curvature="0"
     style="fill:#cfdcd9" />
  <path
     d="m 31.906,20.036 c -0.183,-0.046 -0.638,0.045 -0.592,0.137 0.046,0.091 0.091,0.182 0.227,0.136 0.138,-0.045 0.365,-0.273 0.365,-0.273 z"
     id="path52"
     inkscape:connector-curvature="0"
     style="fill:#cfdcd9" />
  <path
     d="m 29.903,20.218 c 0.046,-0.274 0.592,-0.683 0.592,-0.683 0,0 0.242,-0.391 0.602,-0.573 0.135,0.05 0.189,0.163 0.036,0.255 -0.227,0.137 -0.227,0.227 -0.137,0.273 0.091,0.045 0.182,0.136 0.228,0.228 0.045,0.091 -0.137,-0.046 -0.364,0 -0.228,0.045 -0.228,0.045 -0.409,0.091 -0.183,0.045 -0.364,0.228 -0.273,0.273 0.091,0.046 -0.091,0.092 -0.136,0.227 -0.046,0.137 0.091,0.092 0.272,0.092 0.182,0 0.683,0 0.729,0.045 0.045,0.046 -0.865,0.046 -0.865,0.137 0,0.091 0.501,0 0.637,0.045 0.137,0.046 0.592,0.137 0.773,0.092 0.183,-0.046 0.547,-0.092 0.638,-0.046 0.091,0.046 0.318,0.091 0.045,0.137 -0.272,0.045 -0.728,0.045 -1.001,0 -0.273,-0.046 -0.455,-0.228 -0.728,-0.137 -0.141,0.047 -0.148,0.13 -0.16,0.199 l -0.113,0.028 C 30.162,20.928 29.91,20.875 29.722,20.79 29.65,20.745 29.58,20.696 29.519,20.647 29.504,20.626 29.496,20.604 29.496,20.583 29.494,20.4 29.903,20.218 29.903,20.218 Z"
     id="path54"
     inkscape:connector-curvature="0"
     style="fill:#3c4544" />
  <path
     d="m 31.496,18.717 c 0,0 0.091,-0.41 0,-0.455 -0.091,-0.046 -0.227,0.137 -0.227,0.137 0,0 0,-0.501 -0.136,-0.456 -0.137,0.046 -0.183,0.228 -0.183,0.228 0,0 -0.137,-0.363 -0.272,-0.272 -0.137,0.091 0,0.364 0,0.364 0,0 -0.318,0.137 -0.228,0.273 0.091,0.137 0.546,0.137 0.637,0.183 0.091,0.045 0.046,0.182 -0.045,0.136 -0.092,-0.045 -0.547,-0.228 -0.501,-0.045 0.045,0.182 0.137,0.228 0.318,0.228 0.183,0 0.501,-0.092 0.501,-0.092 l 0.409,0.273 0.046,-0.046 -0.319,-0.456 z m 0.774,-0.455 c -0.045,0.182 -0.091,0.228 -0.272,0.228 -0.182,0 -0.318,0.091 -0.228,0.182 0.091,0.091 0.318,0.091 0.318,0.091 l -0.137,0.364 0.046,0.045 0.182,-0.363 0.183,0.228 c 0,0 0.272,-0.183 0.182,-0.274 -0.091,-0.091 -0.273,-0.091 -0.182,-0.182 0.091,-0.091 0.227,-0.364 -0.046,-0.318 -0.272,0.045 0.182,0.137 0.182,0.137 M 35,20.173 c -0.046,-0.092 -0.318,-0.183 -0.318,-0.183 0,0 -0.046,-0.364 -0.183,-0.364 -0.136,0 -0.272,0.273 -0.272,0.273 0,0 -0.046,-0.182 -0.137,-0.137 -0.091,0.046 -0.318,0.273 -0.272,0.364 0.045,0.091 0.091,0.409 0.272,0.455 0.182,0.045 0.364,-0.273 0.364,-0.273 0,0 0.091,0.046 0.272,0.046 0.183,0 0.274,-0.181 0.274,-0.181 z m -4.141,-0.729 c 0,0 -0.137,-0.409 -0.274,-0.364 -0.136,0.046 -0.136,0.228 -0.136,0.228 0,0 -0.409,-0.045 -0.592,0.092 -0.182,0.136 -0.182,0.409 0.045,0.5 0.229,0.091 0.547,-0.091 0.592,-0.137 0.046,-0.045 0.046,0.501 0.228,0.501 0.183,0 0.273,-0.228 0.227,-0.364 -0.045,-0.137 0,-0.273 0,-0.273 0,0 0.364,0 0.455,0.183 0,0 -0.091,-0.137 -0.273,-0.227 l -0.272,-0.139 z"
     id="path56"
     inkscape:connector-curvature="0"
     style="fill:#288548" />
  <path
     d="m 31.087,12.893 c 0,0 0.137,-0.273 0.592,-0.091 0.455,0.182 0.546,0.5 0.591,0.728 0.046,0.227 -0.091,0.455 0.228,0.683 0.319,0.228 0.546,1.638 0.183,1.593 -0.364,-0.046 -0.455,-0.091 -0.637,0.045 -0.183,0.137 -0.592,0.183 -0.865,-0.136 0,0 -0.272,0.409 -0.272,0.637 0,0.228 0.091,0.864 -0.183,0.955 0,0 -0.409,-0.546 -0.409,-1.092 0,-0.546 0.137,-1.138 0.592,-1.41 0,0 -0.183,-0.137 -0.319,-0.319 -0.136,-0.182 -0.226,-0.136 -0.5,-0.136 l -0.727,0 c 0,0 0.182,-0.41 0.409,-0.501 0.228,-0.091 0.637,-0.318 1.046,0 0.41,0.318 0.683,0.546 0.683,0.546 l 0.046,-0.318 c 0,0 -0.091,-0.182 -0.273,-0.363 -0.182,-0.183 -0.182,-0.455 -0.182,-0.592 0,-0.137 -0.003,-0.229 -0.003,-0.229 z"
     id="path58"
     inkscape:connector-curvature="0"
     style="fill:#d1bea7" />
  <path
     d="m 30.313,13.666 c -0.773,0 -1.001,0.728 -1.001,0.728 l 0.819,0 c 0,0 0.136,-0.045 0.228,-0.045 0.091,0 0.409,0.228 0.546,0.5 0.137,0.274 0.818,-0.045 0.682,-0.272 -0.136,-0.228 -0.454,-0.911 -1.274,-0.911 z"
     id="path60"
     inkscape:connector-curvature="0"
     style="fill:#937a61" />
  <path
     d="m 31.906,14.53 c -0.02,-0.076 -0.156,-0.09 -0.318,-0.058 -0.177,0.034 -0.342,0.187 -0.501,0.24 -0.409,0.136 -0.864,0.727 -0.864,1.273 0,0.546 0.409,1.183 0.455,1.319 0.045,0.137 0.136,0 0.182,-0.137 0.046,-0.136 0.046,-0.454 0.046,-0.727 0,-0.273 0.137,-0.683 0.363,-0.819 0.227,-0.136 0.819,-0.363 0.637,-1.091 z m 0.682,3.732 c 0,0.111 -0.146,0.504 -0.136,0.909 0.001,0.031 0.044,0.243 0.045,0.273 0.014,0.395 0.142,0.599 0.228,0.729 0,0 0.227,-0.092 0.455,-0.41 0.228,-0.318 0.273,-0.637 0.137,-0.91 -0.137,-0.273 -0.729,-0.591 -0.729,-0.591 z"
     id="path62"
     inkscape:connector-curvature="0"
     style="fill:#af987e" />
  <path
     d="m 32.861,17.761 c -0.045,0 -0.16,0.951 -0.091,1.319 0.137,0.729 0.683,1.547 1.047,1.456 0.363,-0.091 0.136,-0.318 0.045,-0.5 -0.091,-0.183 -0.228,-0.592 -0.137,-0.91 0.092,-0.318 -0.864,-1.365 -0.864,-1.365 z"
     id="path64"
     inkscape:connector-curvature="0"
     style="fill:#d1bea7" />
  <path
     d="m 32.134,15.668 c -0.137,0.272 -0.455,0.5 -0.819,0.091 0,0 -0.137,0.683 0.137,1.138 0.272,0.455 1.319,1.638 1.319,1.638 l 0.137,-0.774 -0.774,-2.093 z"
     id="path66"
     inkscape:connector-curvature="0"
     style="fill:#ba8f69" />
  <path
     d="m 32.816,14.121 c -0.319,-0.137 -0.773,0.091 -0.819,0.363 -0.046,0.273 -0.091,0.91 -0.046,1.184 0.046,0.272 0,0.728 0.092,0.955 0.091,0.228 0.454,0.455 0.5,0.774 0.045,0.318 0.318,0.591 0.728,1.046 0.41,0.455 1.047,1.183 1.229,1.092 0.183,-0.091 0.41,-1.729 -0.136,-3.14 -0.547,-1.41 -1.548,-2.274 -1.548,-2.274 z"
     id="path68"
     inkscape:connector-curvature="0"
     style="fill:#bb6c3f" />
  <path
     d="m 31.633,12.938 c -0.182,-0.091 -0.318,-0.045 -0.182,0.092 0.136,0.135 0.364,-10e-4 0.182,-0.092 z"
     id="path70"
     inkscape:connector-curvature="0"
     style="fill:#020202" />
  <path
     d="m 23.216,9.753 c 0,0 0.182,0.455 0.728,0.409 0.546,-0.045 0.955,-0.182 1.092,0.318 0,0 -0.318,0.046 -0.455,0.273 -0.136,0.227 0.228,0.819 0.228,0.819 0,0 -0.363,0 -0.5,-0.228 0,0 -0.046,0.409 -0.318,0.683 -0.116,0.115 -0.41,0.136 -0.41,0.136 l 0.455,-0.91 c 0.091,-0.182 0.182,-0.409 -0.228,-0.136 -0.409,0.272 -0.955,0.5 -1.273,0.136 0,0 1.319,-0.591 1.592,-0.728 -0.454,0 -0.5,-0.046 -0.909,0 -0.244,0.027 -0.501,0.137 -0.501,0.137 0,0 -0.045,-0.364 0.455,-0.364 0.318,0 -0.046,-0.091 -0.091,-0.272 -0.048,-0.182 0.135,-0.273 0.135,-0.273 z m 6.961,3.73 c 0,0 1.001,-0.136 0.865,-1.046 -0.137,-0.91 -0.819,-1.547 -0.683,-2.093 0,0 -0.325,0.089 -0.41,0.363 -0.182,0.592 0.396,1.072 0.501,1.229 0.182,0.273 0.273,0.592 0.273,0.592 0,0 -0.5,-0.409 -0.774,0 0,0 0.318,-0.046 0.455,0.091 0.137,0.137 0.227,0.318 0.091,0.501 -0.136,0.182 -0.318,0.363 -0.318,0.363 z m 2.866,-3.093 c 0,0 0.455,0.183 0.455,0.455 0,0.274 -0.228,0.364 -0.591,0.364 0,0 0.182,-0.137 0.228,-0.318 0.045,-0.183 -0.092,-0.501 -0.092,-0.501 z"
     id="path72"
     inkscape:connector-curvature="0"
     style="fill:#ffffff" />
  <path
     d="m 26.036,10.071 c 0,0 0.683,0.455 0.864,0.501 0.183,0.045 0.91,0 0.91,0 l 0.137,-0.319 c 0,0 0.364,-0.091 0.592,-0.091 0.227,0 0.501,0.046 0.501,0.046 l 0.091,0.273 -0.364,0.819 -1.229,0 c -0.182,0 -0.592,-0.137 -0.683,-0.318 C 26.764,10.799 26.4,10.573 26.309,10.436 26.218,10.299 25.718,9.935 26.036,10.071 Z"
     id="path74"
     inkscape:connector-curvature="0"
     style="fill:#905f41" />
  <path
     d="m 27.901,10.562 c 0,0.056 -0.04,0.101 -0.091,0.101 -0.05,0 -0.091,-0.045 -0.091,-0.101 l 0,-1.802 c 0,-0.055 0.041,-0.1 0.091,-0.1 0.051,0 0.091,0.045 0.091,0.1 l 0,1.802 z m -0.818,0.055 c 0,0.051 -0.041,0.091 -0.091,0.091 -0.051,0 -0.092,-0.04 -0.092,-0.091 l 0,-1.638 c 0,-0.05 0.041,-0.091 0.092,-0.091 0.05,0 0.091,0.041 0.091,0.091 l 0,1.638 z m 1.319,0 c 0,0.051 -0.041,0.091 -0.091,0.091 -0.05,0 -0.091,-0.04 -0.091,-0.091 l 0,-1.638 c 0,-0.05 0.041,-0.091 0.091,-0.091 0.05,0 0.091,0.041 0.091,0.091 l 0,1.638 z"
     id="path76"
     inkscape:connector-curvature="0"
     style="fill:#905f41" />
  <path
     d="m 27.265,9.435 c 0,0.05 -0.163,0.091 -0.364,0.091 -0.2,0 -0.363,-0.041 -0.363,-0.091 0,-0.051 0.163,-0.091 0.363,-0.091 0.201,0 0.364,0.04 0.364,0.091 z m 0.182,0.455 c 0,0.05 -0.214,0.091 -0.479,0.091 -0.264,0 -0.478,-0.041 -0.478,-0.091 0,-0.051 0.214,-0.091 0.478,-0.091 0.265,0 0.479,0.04 0.479,0.091 z M 28.13,9.275 c 0,0.037 -0.163,0.068 -0.364,0.068 -0.201,0 -0.364,-0.031 -0.364,-0.068 0,-0.038 0.163,-0.068 0.364,-0.068 0.201,0 0.364,0.03 0.364,0.068 z"
     id="path78"
     inkscape:connector-curvature="0"
     style="fill:#ffffff" />
  <path
     d="m 28.676,9.252 c 0,0.025 -0.133,0.046 -0.296,0.046 -0.164,0 -0.296,-0.021 -0.296,-0.046 0,-0.024 0.132,-0.045 0.296,-0.045 0.163,0 0.296,0.02 0.296,0.045 z m -0.638,0.455 c 0,0.051 -0.132,0.092 -0.296,0.092 -0.163,0 -0.295,-0.041 -0.295,-0.092 0,-0.05 0.132,-0.091 0.295,-0.091 0.164,0 0.296,0.041 0.296,0.091 z m 0.638,0 c 0,0.04 -0.133,0.071 -0.296,0.071 -0.164,0 -0.296,-0.031 -0.296,-0.071 0,-0.039 0.132,-0.07 0.296,-0.07 0.163,0 0.296,0.031 0.296,0.07 z"
     id="path80"
     inkscape:connector-curvature="0"
     style="fill:#ffffff" />
  <path
     d="m 26.127,11.437 c 0,0 0.364,-0.046 0.183,-0.364 0,0 0.182,-0.091 0.409,0.137 0.228,0.228 0.638,0 0.364,-0.273 0,0 0.227,-0.137 0.409,0.046 0.183,0.182 0.501,0.228 0.364,-0.137 0,0 0.318,-0.091 0.455,0.183 0.137,0.273 0.637,0.227 0.409,-0.137 0,0 0.228,-0.046 0.319,0.137 0.091,0.182 0.182,0.227 0.182,0.227 0,0 0.182,-0.227 0.363,0 0.183,0.227 0.092,0.455 -0.227,0.501 -0.318,0.045 -0.456,-0.318 -0.456,-0.318 0,0 -0.136,0.182 -0.363,0.137 -0.228,-0.046 -0.364,-0.228 -0.364,-0.228 0,0 -0.266,0.136 -0.409,0.136 -0.228,0 -0.398,-0.221 -0.455,-0.136 -0.091,0.136 -0.364,0.273 -0.637,0.136 0,0 -0.227,0.364 -0.501,0.364 -0.273,0 -0.546,-0.164 -0.546,-0.409 0,-0.228 0.137,-0.318 0.272,-0.273 0.138,0.043 0.229,0.271 0.229,0.271 z"
     id="path82"
     inkscape:connector-curvature="0"
     style="fill:#8fd2e2" />
  <path
     d="m 25.49,12.392 c 0,0 -0.5,0.137 -0.546,0.41 -0.046,0.272 -0.091,0.318 -0.091,0.318 0,0 -0.228,-0.091 -0.364,-0.273 -0.137,-0.182 -0.182,-0.592 -0.137,-0.728 0.046,-0.137 0.228,-0.546 0.41,-0.773 0.182,-0.227 0.273,-0.683 0.228,-0.865 -0.046,-0.182 -0.273,-0.363 -0.273,-0.363 0,0 0.592,0 0.683,0.363 0.091,0.364 -0.091,0.638 -0.091,0.638 0,0 0.091,0.045 0.228,-0.137 0,0 0.045,0.455 -0.228,0.546 0,0 -0.183,0.273 -0.273,0.501 -0.091,0.227 -0.248,0.499 -0.137,0.409 0.227,-0.183 0.591,-0.046 0.591,-0.046 z m -3.003,-1.866 c 0,0 -0.182,0.227 -0.182,0.364 0,0.137 0.182,0.455 0.455,0.546 0,0 -0.819,-0.318 -0.819,-0.592 0,-0.272 0.365,-0.318 0.546,-0.318 z m 7.416,0.273 c 0,0 0.092,-0.682 0.592,-0.637 0.501,0.046 1.229,0.183 1.365,0.046 0.137,-0.137 0.091,-0.409 0.091,-0.409 0,0 0.273,0.045 0.318,0.182 0.046,0.137 -0.136,0.318 -0.136,0.318 0,0 0.228,-0.046 0.363,0.091 0.137,0.137 0.273,0.318 0.273,0.318 0,0 -0.455,-0.136 -0.683,-0.136 -0.227,0 -0.864,-0.046 -0.864,-0.046 0,0 0.637,0.364 1.001,0.501 0.363,0.136 0.637,0.273 1.092,0.136 0,0 -0.455,0.273 -0.592,0.364 -0.137,0.091 -0.363,0.091 -0.637,-0.046 -0.272,-0.136 -0.727,-0.454 -0.727,-0.454 0,0 0,0.318 0.136,0.637 0.137,0.318 0.364,0.546 0.364,0.546 0,0 -0.409,-0.091 -0.592,-0.273 -0.182,-0.182 -0.182,-0.591 -0.182,-0.591 0,0 -0.228,0.318 -0.546,0.228 0,0 0.137,-0.092 0.228,-0.319 0.091,-0.227 0.227,-0.409 0.091,-0.591 -0.137,-0.183 -0.318,-0.364 -0.546,-0.318 -0.226,0.044 -0.409,0.453 -0.409,0.453 z m -1.637,0.91 c -0.409,0.183 -0.683,0.455 -0.637,1.138 0,0 0.227,-0.455 0.455,-0.592 0,0 0,0.41 0.137,0.774 0.137,0.363 0.5,0.637 0.773,0.683 0,0 -0.318,-0.501 -0.318,-0.91 0,0 0.272,0.682 0.727,1.092 l 0.046,-0.318 c 0,0 -0.183,-0.183 -0.227,-0.41 0,0 0.272,0.364 0.637,0.364 0.365,0 0.637,-0.228 0.683,-0.546 0,0 -0.182,0.091 -0.5,0.137 -0.319,0.045 -0.683,-0.137 -0.956,-0.501 -0.273,-0.364 -0.318,-0.683 -0.318,-0.683 l -0.502,-0.228 z"
     id="path84"
     inkscape:connector-curvature="0"
     style="fill:#288548" />
  <path
     d="M 19,13 19,0 4,0 C 3.68,0 3.396,0.045 3.396,0.045 L 3.392,1.799 0.662,1.795 C 0.662,1.795 0.62,1.854 0.535,2 0.195,2.589 0,3.272 0,4 l 0,9 19,0 z"
     id="path86"
     inkscape:connector-curvature="0"
     style="fill:#00247d" />
  <path
     d="M 19,0 16.669,0 12,3.269 12,0 7,0 7,2.569 3.396,0.045 C 2.782,0.139 2.206,0.37 1.724,0.71 L 6.426,4 4.69,4 0.967,1.391 C 0.857,1.52 0.756,1.653 0.662,1.795 L 3.813,4 0,4 0,9 3.885,9 0,11.766 0,13 3.332,13 7,10.432 7,13 12,13 12,9.731 16.668,13 19,13 19,10.971 16.185,9 19,9 19,4 16.186,4 19,2.029 19,0 Z"
     id="path88"
     inkscape:connector-curvature="0"
     style="fill:#eeeeee" />
  <path
     d="m 11,0 -3,0 0,5 -8,0 0,3 8,0 0,5 3,0 0,-5 8,0 0,-3 -8,0 z"
     id="path90"
     inkscape:connector-curvature="0"
     style="fill:#cf1b2b" />
  <path
     d="M 19,0 17.539,0 12,3.879 12,4 13.571,4 19,0.198 Z M 1.724,0.71 C 1.443,0.905 1.19,1.133 0.967,1.391 L 4.69,4 6.425,4 1.724,0.71 Z M 6.437,9 0.734,13 2.461,13 7,9.822 7,9 Z M 19,12.802 19,11.582 15.313,9 13.57,9 Z"
     id="path92"
     inkscape:connector-curvature="0"
     style="fill:#cf1b2b" />
</svg>
