<?xml version="1.0" encoding="UTF-8" standalone="no"?>
<svg
   xmlns:dc="http://purl.org/dc/elements/1.1/"
   xmlns:cc="http://creativecommons.org/ns#"
   xmlns:rdf="http://www.w3.org/1999/02/22-rdf-syntax-ns#"
   xmlns:svg="http://www.w3.org/2000/svg"
   xmlns="http://www.w3.org/2000/svg"
   xmlns:sodipodi="http://sodipodi.sourceforge.net/DTD/sodipodi-0.dtd"
   xmlns:inkscape="http://www.inkscape.org/namespaces/inkscape"
   viewBox="0 0 36 26"
   id="svg2"
   version="1.1"
   inkscape:version="0.91 r13725"
   sodipodi:docname="1f1ec-1f1e7.svg"
   width="36"
   height="26">
  <metadata
     id="metadata16">
    <rdf:RDF>
      <cc:Work
         rdf:about="">
        <dc:format>image/svg+xml</dc:format>
        <dc:type
           rdf:resource="http://purl.org/dc/dcmitype/StillImage" />
      </cc:Work>
    </rdf:RDF>
  </metadata>
  <defs
     id="defs14" />
  <sodipodi:namedview
     pagecolor="#ffffff"
     bordercolor="#666666"
     borderopacity="1"
     objecttolerance="10"
     gridtolerance="10"
     guidetolerance="10"
     inkscape:pageopacity="0"
     inkscape:pageshadow="2"
     inkscape:window-width="640"
     inkscape:window-height="480"
     id="namedview12"
     showgrid="false"
     inkscape:zoom="6.5555556"
     inkscape:cx="18"
     inkscape:cy="13"
     inkscape:window-x="0"
     inkscape:window-y="0"
     inkscape:window-maximized="0"
     inkscape:current-layer="svg2" />
  <path
     d="M 0,4.059 0,8 5.628,8 Z M 4.664,26 13,26 13,20.163 Z M 23,20.164 23,26 31.335,26 Z M 0,18 0,21.941 5.63,18 Z M 31.337,0 23,0 23,5.837 Z M 36,21.942 36,18 30.369,18 Z M 36,8 36,4.059 30.371,8 Z M 13,0 4.664,0 13,5.837 Z"
     id="path4"
     inkscape:connector-curvature="0"
     style="fill:#00247d" />
  <path
     d="m 25.14,18 9.712,6.801 c 0.471,-0.479 0.808,-1.082 0.99,-1.749 L 28.627,18 25.14,18 Z M 13,18 10.859,18 1.148,24.8 c 0.521,0.53 1.189,0.909 1.938,1.085 L 13,18.943 13,18 Z M 23,8 25.141,8 34.852,1.2 C 34.331,0.67 33.664,0.291 32.915,0.115 L 23,7.057 23,8 Z M 10.859,8 1.148,1.2 C 0.677,1.68 0.34,2.282 0.157,2.949 L 7.372,8 10.859,8 Z"
     id="path6"
     inkscape:connector-curvature="0"
     style="fill:#cf1b2b" />
  <path
     d="m 36,16 -15,0 0,10 2,0 0,-5.836 L 31.335,26 32,26 c 1.117,0 2.126,-0.461 2.852,-1.199 L 25.14,18 l 3.487,0 7.215,5.052 C 35.935,22.715 36,22.366 36,22 L 36,21.942 30.369,18 36,18 36,16 Z M 0,16 0,18 5.63,18 0,21.941 0,22 c 0,1.091 0.439,2.078 1.148,2.8 L 10.859,18 13,18 13,18.943 3.086,25.884 C 3.38,25.954 3.684,26 4,26 L 4.664,26 13,20.163 13,26 15,26 15,16 0,16 Z M 36,4 C 36,2.909 35.561,1.922 34.852,1.2 L 25.141,8 23,8 23,7.057 32.915,0.115 C 32.62,0.046 32.316,0 32,0 L 31.337,0 23,5.837 23,0 21,0 21,10 36,10 36,8 30.371,8 36,4.059 36,4 Z M 13,0 13,5.837 4.664,0 4,0 C 2.882,0 1.874,0.461 1.148,1.2 L 10.859,8 7.372,8 0.157,2.949 C 0.065,3.286 0,3.634 0,4 L 0,4.059 5.628,8 0,8 0,10 15,10 15,0 13,0 Z"
     id="path8"
     inkscape:connector-curvature="0"
     style="fill:#eeeeee" />
  <path
     d="m 21,10 0,-10 -6,0 0,10 -15,0 0,6 15,0 0,10 6,0 0,-10 15,0 0,-6 z"
     id="path10"
     inkscape:connector-curvature="0"
     style="fill:#cf1b2b" />
</svg>
