<?xml version="1.0" encoding="UTF-8" standalone="no"?>
<svg
   xmlns:dc="http://purl.org/dc/elements/1.1/"
   xmlns:cc="http://creativecommons.org/ns#"
   xmlns:rdf="http://www.w3.org/1999/02/22-rdf-syntax-ns#"
   xmlns:svg="http://www.w3.org/2000/svg"
   xmlns="http://www.w3.org/2000/svg"
   xmlns:sodipodi="http://sodipodi.sourceforge.net/DTD/sodipodi-0.dtd"
   xmlns:inkscape="http://www.inkscape.org/namespaces/inkscape"
   viewBox="0 0 36 26"
   id="svg2"
   version="1.1"
   inkscape:version="0.91 r13725"
   sodipodi:docname="1f1e6-1f1f8.svg"
   width="36"
   height="26">
  <metadata
     id="metadata34">
    <rdf:RDF>
      <cc:Work
         rdf:about="">
        <dc:format>image/svg+xml</dc:format>
        <dc:type
           rdf:resource="http://purl.org/dc/dcmitype/StillImage" />
      </cc:Work>
    </rdf:RDF>
  </metadata>
  <defs
     id="defs32" />
  <sodipodi:namedview
     pagecolor="#ffffff"
     bordercolor="#666666"
     borderopacity="1"
     objecttolerance="10"
     gridtolerance="10"
     guidetolerance="10"
     inkscape:pageopacity="0"
     inkscape:pageshadow="2"
     inkscape:window-width="640"
     inkscape:window-height="480"
     id="namedview30"
     showgrid="false"
     inkscape:zoom="6.5555556"
     inkscape:cx="18"
     inkscape:cy="13"
     inkscape:window-x="0"
     inkscape:window-y="0"
     inkscape:window-maximized="0"
     inkscape:current-layer="svg2" />
  <path
     d="m 36,22 c 0,2.209 -1.791,4 -4,4 L 4,26 C 1.791,26 0,24.209 0,22 L 0,4 C 0,1.791 1.791,0 4,0 l 28,0 c 2.209,0 4,1.791 4,4 l 0,18 z"
     id="path4"
     inkscape:connector-curvature="0"
     style="fill:#00247d" />
  <path
     d="M 34.184,0.654 0,12.966 0,13.006 34.185,25.344 C 35.276,24.631 36,23.401 36,22 L 36,4 C 36,2.598 35.275,1.369 34.184,0.654 Z"
     id="path6"
     inkscape:connector-curvature="0"
     style="fill:#bd1721" />
  <path
     d="M 35.271,24.293 C 35.727,23.643 36,22.854 36,22 L 36,4 C 36,3.144 35.726,2.355 35.268,1.704 L 3.944,12.986 35.271,24.293 Z"
     id="path8"
     inkscape:connector-curvature="0"
     style="fill:#eeeeee" />
  <path
     d="m 22,14.537 c 0,0 0.767,0.121 1.089,0 0.323,-0.121 0.726,-0.242 0.726,-0.242 l 0.605,0.645 0.242,-0.605 0.444,0.121 -0.041,0.202 c 0,0 0.363,0.121 0.363,0.161 0,0.04 -0.04,0.363 -0.04,0.363 l 1.129,0.282 0.202,-0.443 c 0,0 0.726,0.645 1.009,0.685 0.281,0.041 1.129,0 1.29,0.121 0.161,0.122 0.524,0.363 0.524,0.363 0,0 2.864,0.646 2.864,0.687 0,0.04 -0.04,0.281 -0.282,0.241 -0.242,-0.04 -3.953,-0.767 -4.438,-0.928 -0.484,-0.161 -1.21,0.161 -1.21,0.161 l 0,-0.443 -1.251,-0.363 -0.12,0.323 -0.323,0 -0.121,0.282 -0.443,-0.121 0.08,-0.606 c 0,0 -0.362,-0.04 -0.523,0.081 -0.162,0.121 -0.403,0.242 -0.403,0.242 0,0 -0.242,-0.443 -0.606,-0.686 C 22.403,14.819 22,14.537 22,14.537 Z"
     id="path10"
     inkscape:connector-curvature="0"
     style="fill:#d89500" />
  <path
     d="m 26.114,16.675 c 0,0 5.405,0.443 5.729,0.483 0.322,0.041 0.322,0.323 0,0.363 -0.323,0.041 -5.729,-0.403 -5.729,-0.403 0,0 -0.242,0.242 -0.242,0.323 0,0.08 2.138,0.121 2.138,0.121 l -0.201,0.201 c 0,0 0.847,0.04 1.17,-0.04 0.322,-0.081 0.362,-0.322 0.403,-0.242 0.04,0.081 -0.242,0.403 -0.161,0.403 0.08,0 0.968,-0.081 0.968,-0.081 l -0.646,0.323 0.969,0.363 c 0,0 -0.484,0.121 -0.687,0.121 -0.201,0 -0.524,-0.081 -0.524,-0.081 0,0 0.323,0.443 0.565,0.524 0,0 -0.807,-0.202 -0.929,-0.323 -0.12,-0.12 0.242,0.606 -0.483,-0.04 -0.726,-0.646 -0.726,-0.322 -0.726,-0.322 l 0.241,0.403 c 0,0 -0.604,0 -1.009,-0.242 -0.403,-0.242 -0.887,-0.363 -1.25,-0.484 -0.363,-0.121 -0.685,-0.242 -0.968,-0.403 -0.282,-0.161 -0.888,-0.524 -0.767,-0.887 0.121,-0.363 0.604,-0.242 0.604,-0.242 0,0 0.323,-0.081 0.565,-0.041 0.242,0.041 0.403,-0.282 0.646,-0.161 0.244,0.122 0.324,0.364 0.324,0.364 z"
     id="path12"
     inkscape:connector-curvature="0"
     style="fill:#d89500" />
  <path
     d="m 31.722,10.422 c 0.483,0.121 1.371,-0.04 1.774,-0.121 0.403,-0.081 0.685,-0.202 0.847,-0.04 0.162,0.161 0.122,0.242 0.122,0.242 0,0 0.241,0.121 0.241,0.242 l 0,0.121 c 0,0 0.162,0.282 0,0.403 0,0 0.162,0.444 -0.121,0.524 0,0 0.202,0.363 -0.12,0.403 l -0.122,0.403 -2.662,-0.444 0.041,-1.733 z"
     id="path14"
     inkscape:connector-curvature="0"
     style="fill:#ffffff" />
  <path
     d="m 34.396,12.686 -2.791,-0.465 0.001,-0.065 0.043,-1.828 0.092,0.023 c 0.229,0.057 0.72,0.083 1.741,-0.122 0.085,-0.017 0.165,-0.036 0.239,-0.053 0.289,-0.069 0.52,-0.124 0.675,0.034 0.112,0.11 0.144,0.196 0.148,0.252 0.084,0.049 0.237,0.156 0.237,0.284 l 0,0.102 c 0.062,0.118 0.12,0.317 0.011,0.444 0.026,0.091 0.067,0.285 -0.006,0.428 -0.023,0.047 -0.059,0.084 -0.102,0.112 0.03,0.078 0.062,0.203 0.011,0.304 -0.023,0.046 -0.071,0.102 -0.172,0.127 l -0.127,0.423 z m -2.639,-0.593 2.533,0.422 0.117,-0.387 0.048,-0.006 c 0.084,-0.011 0.101,-0.044 0.106,-0.055 0.032,-0.064 -0.015,-0.188 -0.042,-0.237 l -0.046,-0.083 0.091,-0.026 c 0.042,-0.012 0.07,-0.034 0.088,-0.07 0.054,-0.105 0.006,-0.293 -0.017,-0.356 l -0.02,-0.053 0.045,-0.033 c 0.105,-0.079 -0.019,-0.304 -0.021,-0.306 l -0.01,-0.017 0,-0.141 c 0,-0.042 -0.105,-0.127 -0.199,-0.175 l -0.067,-0.033 0.033,-0.066 c -0.003,0 -0.004,-0.054 -0.107,-0.157 -0.093,-0.094 -0.256,-0.061 -0.534,0.006 -0.076,0.018 -0.158,0.037 -0.245,0.055 -0.774,0.156 -1.353,0.202 -1.716,0.139 l -0.037,1.579 z"
     id="path16"
     inkscape:connector-curvature="0"
     style="fill:#66757f" />
  <path
     d="m 28.857,14.819 c -0.016,0.037 -0.322,0.807 -0.484,0.928 -0.161,0.121 -0.524,0.403 -0.685,0.443 -0.161,0.041 -0.161,0.202 -0.161,0.202 0,0 -0.363,0.202 -0.484,0.282 -0.121,0.081 -0.242,0.081 0.081,0.121 0.322,0.04 0.403,0.081 0.403,0.081 0,0 -0.242,0.241 -0.161,0.363 0.08,0.12 0.407,0.142 0.807,0.241 0.322,0.081 0.646,-0.04 0.646,-0.161 0,-0.121 -0.081,-0.443 -0.081,-0.403 0,0.04 0.242,-0.121 0.484,-0.242 0.242,-0.121 0.362,-0.403 0.282,-0.606 -0.081,-0.201 0,-0.524 0.201,-0.887 0.202,-0.363 -0.04,-0.807 -0.241,-0.848 -0.203,-0.038 -0.526,0.284 -0.607,0.486 z"
     id="path18"
     inkscape:connector-curvature="0"
     style="fill:#ffc220" />
  <path
     d="m 25.711,11.431 c 0.363,-0.242 0.686,-0.726 0.686,-0.726 0,0 -0.121,-0.162 -0.564,0.04 -0.443,0.202 -1.009,0.444 -1.251,0.162 -0.37,-0.434 0.171,-0.98 0.605,-1.13 1.291,-0.443 -0.524,-0.927 1.009,-1.613 0.643,-0.288 1.896,-0.484 2.138,-0.605 0.242,-0.121 0.604,-0.565 0.604,-0.524 0,0.04 0.041,0.323 0.041,0.323 0,0 0.888,-0.242 1.17,-0.363 0.282,-0.121 0.524,-0.443 0.524,-0.443 l 0.08,0.282 c 0,0 0.727,-0.081 1.009,-0.282 0.282,-0.202 0.484,-0.04 0.484,-0.04 0,0 0.807,-0.202 1.129,-0.363 0.323,-0.161 0.767,-0.242 0.686,0.041 -0.08,0.282 -0.564,1.694 -0.767,1.977 -0.201,0.282 -0.161,0.726 -0.403,0.928 -0.241,0.202 -1.895,1.129 -1.895,1.129 0,0 0.807,0.04 1.13,0.162 0.322,0.121 0.161,0.524 0.161,0.524 0,0 0.081,0.161 0.081,0.322 0,0.162 -0.202,0.202 -0.202,0.202 0,0 0.202,0.081 0.161,0.242 -0.04,0.162 -0.403,0.162 -0.322,0.162 0.081,0 0.403,0.322 0.363,0.443 -0.041,0.121 -0.686,-0.161 -0.969,-0.08 0,0 0.041,0.202 0.282,0.323 0.242,0.121 0.242,0.202 0.041,0.323 -0.202,0.121 -0.404,0.282 -0.202,0.282 0.202,0 0.282,0.121 0.161,0.202 -0.121,0.08 0.484,0 0.121,0.282 -0.362,0.283 -0.443,0.283 -0.443,0.283 0,0 0.363,0.443 0.201,0.484 -0.161,0.04 -0.686,-0.243 -0.686,-0.243 0,0 0.121,0.404 0.323,0.525 0,0 -0.444,0.281 -0.686,-0.041 0,0 0.04,0.444 0.161,0.565 0,0 -0.242,0.04 -0.444,-0.121 0,0 -0.161,0.322 -0.08,0.524 l -0.403,-0.646 -0.565,-0.16 -0.322,0.564 c 0,0 -0.202,-0.404 -0.161,-0.767 0.04,-0.362 0,-0.887 -0.041,-1.089 -0.04,-0.202 -0.524,-0.766 -0.927,-0.847 -0.404,-0.081 -1.171,-0.081 -1.171,-0.081 l -0.928,-1.13"
     id="path20"
     inkscape:connector-curvature="0"
     style="fill:#9c3900" />
  <path
     d="m 23.653,13.69 c 0,0 0.848,0.282 1.13,-0.283 0.282,-0.564 -0.685,-0.766 -1.049,-0.564 -0.362,0.202 -0.646,0.564 -0.604,0.847 0.04,0.282 0.403,0.404 0.403,0.404 l 0.12,-0.404 z"
     id="path22"
     inkscape:connector-curvature="0"
     style="fill:#ffc220" />
  <path
     d="m 23.573,12.923 0.202,0.484 1.008,0 c 0,0 0.928,-0.766 1.654,-0.807 0.726,-0.04 1.25,-0.403 0.443,-0.444 0,0 1.089,-0.484 -0.081,-0.403 0,0 0.767,-0.524 -0.242,-0.323 0,0 0.888,-0.605 -0.282,-0.322 l 0.121,-0.444 c 0,0 -0.483,0.564 -0.807,0.726 -0.322,0.161 -1.331,0.646 -1.573,0.726 -0.241,0.081 -0.201,0.202 -0.241,0.403 -0.041,0.203 -0.202,0.404 -0.202,0.404 z"
     id="path24"
     inkscape:connector-curvature="0"
     style="fill:#ffffff" />
  <path
     d="m 24.811,13.482 -1.085,0 -0.238,-0.571 0.027,-0.035 c 0.002,-0.002 0.15,-0.19 0.188,-0.372 0.007,-0.037 0.012,-0.072 0.016,-0.104 0.019,-0.142 0.036,-0.275 0.275,-0.355 0.231,-0.077 1.213,-0.547 1.563,-0.722 0.306,-0.153 0.778,-0.703 0.783,-0.708 l 0.217,-0.253 -0.176,0.645 c 0.411,-0.089 0.525,-0.048 0.563,0.041 0.035,0.079 -0.025,0.174 -0.119,0.266 0.187,-0.017 0.285,0.013 0.318,0.092 0.035,0.082 -0.03,0.178 -0.118,0.263 l 0.009,0 c 0.245,0 0.356,0.042 0.379,0.133 0.022,0.091 -0.069,0.194 -0.273,0.31 0.123,0.028 0.223,0.081 0.223,0.182 0,0.204 -0.478,0.357 -0.921,0.381 -0.693,0.039 -1.602,0.782 -1.61,0.79 l -0.021,0.017 z m -0.986,-0.15 0.932,0 c 0.146,-0.118 0.986,-0.768 1.677,-0.806 0.463,-0.026 0.757,-0.176 0.778,-0.233 -0.008,0 -0.065,-0.047 -0.335,-0.061 l -0.313,-0.016 0.287,-0.127 c 0.185,-0.083 0.361,-0.19 0.406,-0.246 -0.036,-0.013 -0.141,-0.035 -0.452,-0.014 l -0.274,0.019 0.228,-0.156 c 0.112,-0.077 0.219,-0.177 0.241,-0.224 -0.029,-0.01 -0.13,-0.023 -0.427,0.037 l -0.361,0.072 0.305,-0.208 c 0.13,-0.089 0.255,-0.202 0.283,-0.256 -0.038,-0.01 -0.161,-0.016 -0.506,0.068 l -0.123,0.03 0.072,-0.267 c -0.173,0.18 -0.421,0.415 -0.619,0.514 -0.293,0.147 -1.326,0.645 -1.583,0.73 -0.149,0.05 -0.156,0.1 -0.173,0.232 -0.005,0.035 -0.01,0.073 -0.019,0.114 -0.033,0.167 -0.14,0.329 -0.189,0.399 l 0.165,0.399 z"
     id="path26"
     inkscape:connector-curvature="0"
     style="fill:#66757f" />
  <path
     d="m 24.523,12.519 c 0.038,0.077 -0.021,0.186 -0.134,0.242 -0.112,0.057 -0.235,0.039 -0.274,-0.038 -0.038,-0.077 0.021,-0.186 0.134,-0.242 0.112,-0.057 0.235,-0.04 0.274,0.038 z"
     id="path28"
     inkscape:connector-curvature="0" />
</svg>
