<?xml version="1.0" encoding="UTF-8" standalone="no"?>
<svg
   xmlns:dc="http://purl.org/dc/elements/1.1/"
   xmlns:cc="http://creativecommons.org/ns#"
   xmlns:rdf="http://www.w3.org/1999/02/22-rdf-syntax-ns#"
   xmlns:svg="http://www.w3.org/2000/svg"
   xmlns="http://www.w3.org/2000/svg"
   xmlns:sodipodi="http://sodipodi.sourceforge.net/DTD/sodipodi-0.dtd"
   xmlns:inkscape="http://www.inkscape.org/namespaces/inkscape"
   viewBox="0 0 36 26"
   id="svg2"
   version="1.1"
   inkscape:version="0.91 r13725"
   sodipodi:docname="1f1ec-1f1fc.svg"
   width="36"
   height="26">
  <metadata
     id="metadata16">
    <rdf:RDF>
      <cc:Work
         rdf:about="">
        <dc:format>image/svg+xml</dc:format>
        <dc:type
           rdf:resource="http://purl.org/dc/dcmitype/StillImage" />
      </cc:Work>
    </rdf:RDF>
  </metadata>
  <defs
     id="defs14" />
  <sodipodi:namedview
     pagecolor="#ffffff"
     bordercolor="#666666"
     borderopacity="1"
     objecttolerance="10"
     gridtolerance="10"
     guidetolerance="10"
     inkscape:pageopacity="0"
     inkscape:pageshadow="2"
     inkscape:window-width="640"
     inkscape:window-height="480"
     id="namedview12"
     showgrid="false"
     inkscape:zoom="6.5555556"
     inkscape:cx="18"
     inkscape:cy="13"
     inkscape:window-x="0"
     inkscape:window-y="0"
     inkscape:window-maximized="0"
     inkscape:current-layer="svg2" />
  <path
     d="m 32,0 -17,0 0,13 21,0 0,-9 C 36,1.791 34.209,0 32,0 Z"
     id="path4"
     inkscape:connector-curvature="0"
     style="fill:#fcd116" />
  <path
     d="m 15,26 17,0 c 2.209,0 4,-1.791 4,-4 l 0,-9 -21,0 0,13 z"
     id="path6"
     inkscape:connector-curvature="0"
     style="fill:#009e49" />
  <path
     d="M 15,0 4,0 C 1.791,0 0,1.791 0,4 l 0,18 c 0,2.209 1.791,4 4,4 L 15,26 15,0 Z M 10,17 7.453,15.149 4.906,17 5.879,14.006 3.332,12.155 l 3.148,0 0.973,-2.994 0.973,2.994 3.148,0 L 9.027,14.006 10,17 Z"
     id="path8"
     inkscape:connector-curvature="0"
     style="fill:#ce1126" />
  <path
     d="M 8.426,12.155 7.453,9.161 6.48,12.155 l -3.148,0 2.547,1.851 L 4.906,17 7.453,15.149 10,17 9.027,14.006 11.574,12.155 Z"
     id="path10"
     inkscape:connector-curvature="0" />
</svg>
