<?xml version="1.0" encoding="UTF-8" standalone="no"?>
<svg
   xmlns:dc="http://purl.org/dc/elements/1.1/"
   xmlns:cc="http://creativecommons.org/ns#"
   xmlns:rdf="http://www.w3.org/1999/02/22-rdf-syntax-ns#"
   xmlns:svg="http://www.w3.org/2000/svg"
   xmlns="http://www.w3.org/2000/svg"
   xmlns:sodipodi="http://sodipodi.sourceforge.net/DTD/sodipodi-0.dtd"
   xmlns:inkscape="http://www.inkscape.org/namespaces/inkscape"
   viewBox="0 0 36 26"
   id="svg2"
   version="1.1"
   inkscape:version="0.91 r13725"
   sodipodi:docname="1f1ee-1f1f6.svg"
   width="36"
   height="26">
  <metadata
     id="metadata20">
    <rdf:RDF>
      <cc:Work
         rdf:about="">
        <dc:format>image/svg+xml</dc:format>
        <dc:type
           rdf:resource="http://purl.org/dc/dcmitype/StillImage" />
      </cc:Work>
    </rdf:RDF>
  </metadata>
  <defs
     id="defs18" />
  <sodipodi:namedview
     pagecolor="#ffffff"
     bordercolor="#666666"
     borderopacity="1"
     objecttolerance="10"
     gridtolerance="10"
     guidetolerance="10"
     inkscape:pageopacity="0"
     inkscape:pageshadow="2"
     inkscape:window-width="640"
     inkscape:window-height="480"
     id="namedview16"
     showgrid="false"
     inkscape:zoom="6.5555556"
     inkscape:cx="18"
     inkscape:cy="13"
     inkscape:window-x="0"
     inkscape:window-y="0"
     inkscape:window-maximized="0"
     inkscape:current-layer="svg2" />
  <path
     d="m 0,22 c 0,2.209 1.791,4 4,4 l 28,0 c 2.209,0 4,-1.791 4,-4 l 0,-4 -36,0 0,4 z"
     id="path4"
     inkscape:connector-curvature="0"
     style="fill:#141414" />
  <path
     d="M 0,8 36,8 36,18 0,18 Z"
     id="path6"
     inkscape:connector-curvature="0"
     style="fill:#eeeeee" />
  <path
     d="M 32,0 4,0 C 1.791,0 0,1.791 0,4 L 0,8 36,8 36,4 C 36,1.791 34.209,0 32,0 Z"
     id="path8"
     inkscape:connector-curvature="0"
     style="fill:#dd2e44" />
  <g
     id="g10"
     style="fill:#007a3c"
     transform="translate(0,-5)">
    <path
       d="m 11.227,18.06 0,1.229 5.651,0 0,-0.737 c 0,-0.328 -0.369,-0.308 -0.369,-0.062 l 0,0.552 -4.423,0 0,-0.86 3.102,-3.102 0.471,0.501 -2.815,2.846 2.928,0 c 0,0 0.133,-0.86 0.931,-0.86 l 0.912,0.635 0,2.314 -8.23,0 c 0,0 -0.205,1.085 -1.454,0.941 0,0 0.86,-0.573 0.86,-1.249 C 8.791,19.533 8.239,19 8.239,19 l 0.778,-0.491 c 0,0 0.082,0.42 0.164,0.542 0.083,0.122 0.389,0.235 0.389,0.235 l 1.044,0 L 10.6,18.74 10.449,18.675 11.227,18.06 Z m 8.302,1.002 -0.166,0.227 -0.487,0 c 0.002,-1.151 0.006,-3.418 -0.001,-3.441 -0.01,-0.031 0.215,-0.194 0.215,-0.194 l -0.982,-0.542 0,5.406 1.843,0 -0.422,-1.456 z m 5.458,-3.09 0,3.317 -0.491,0 0,-2.949 -0.615,0.615 0,2.335 -0.491,0 0,-1.966 -0.613,0.615 0,0.006 -0.134,0.127 0.134,0.052 0,0.457 c -0.586,-0.301 -1.229,0.155 -1.229,0.71 l 0,1.228 4.053,0 0,-5.159 -0.614,0.612 z m -2.564,3.317 -0.036,0 c -0.246,0 -0.215,-0.328 0.123,-0.328 0.188,0 0.248,0.101 0.267,0.191 l 0,0.137 -0.354,0 z m 1.315,-4.208 c 0,0.152 -0.051,0.277 -0.113,0.277 -0.062,0 -0.112,-0.124 -0.112,-0.277 0,-0.153 0.051,-0.276 0.112,-0.276 0.063,0 0.113,0.123 0.113,0.276 z m -1.034,0.747 c 0,0 0.184,0.175 0.523,0.123 0.338,-0.051 0.45,-0.358 0.45,-0.358 0,0 0.194,0.317 0.409,0.266 0.216,-0.051 0.41,-0.389 0.41,-0.389 0,0 0.01,0.542 -0.308,0.593 -0.317,0.051 -0.45,-0.174 -0.45,-0.174 0,0 -0.164,0.246 -0.471,0.266 -0.307,0.022 -0.563,-0.327 -0.563,-0.327 z m 4.944,3.205 -0.265,0.256 -0.43,0 0,-3.491 0.255,-0.113 -0.992,-0.573 0,5.406 1.852,0 z"
       id="path12"
       inkscape:connector-curvature="0" />
    <path
       d="m 10.716,21.132 c 0,0.146 -0.119,0.266 -0.267,0.266 -0.146,0 -0.266,-0.119 -0.266,-0.266 0,-0.147 0.12,-0.267 0.266,-0.267 0.148,0 0.267,0.119 0.267,0.267 z"
       id="path14"
       inkscape:connector-curvature="0" />
  </g>
</svg>
