<?xml version="1.0" encoding="UTF-8" standalone="no"?>
<svg
   xmlns:dc="http://purl.org/dc/elements/1.1/"
   xmlns:cc="http://creativecommons.org/ns#"
   xmlns:rdf="http://www.w3.org/1999/02/22-rdf-syntax-ns#"
   xmlns:svg="http://www.w3.org/2000/svg"
   xmlns="http://www.w3.org/2000/svg"
   xmlns:sodipodi="http://sodipodi.sourceforge.net/DTD/sodipodi-0.dtd"
   xmlns:inkscape="http://www.inkscape.org/namespaces/inkscape"
   viewBox="0 0 36 26"
   id="svg2"
   version="1.1"
   inkscape:version="0.91 r13725"
   sodipodi:docname="1f1eb-1f1ef.svg"
   width="36"
   height="26">
  <metadata
     id="metadata46">
    <rdf:RDF>
      <cc:Work
         rdf:about="">
        <dc:format>image/svg+xml</dc:format>
        <dc:type
           rdf:resource="http://purl.org/dc/dcmitype/StillImage" />
      </cc:Work>
    </rdf:RDF>
  </metadata>
  <defs
     id="defs44" />
  <sodipodi:namedview
     pagecolor="#ffffff"
     bordercolor="#666666"
     borderopacity="1"
     objecttolerance="10"
     gridtolerance="10"
     guidetolerance="10"
     inkscape:pageopacity="0"
     inkscape:pageshadow="2"
     inkscape:window-width="640"
     inkscape:window-height="480"
     id="namedview42"
     showgrid="false"
     inkscape:zoom="6.5555556"
     inkscape:cx="18"
     inkscape:cy="13"
     inkscape:window-x="0"
     inkscape:window-y="0"
     inkscape:window-maximized="0"
     inkscape:current-layer="svg2" />
  <path
     d="M 32,0 4,0 C 3.795,0 3.593,0.015 3.396,0.045 L 3.392,1.799 0.662,1.795 C 0.244,2.427 0,3.185 0,4 l 0,18 c 0,2.209 1.791,4 4,4 l 28,0 c 2.209,0 4,-1.791 4,-4 L 36,4 C 36,1.791 34.209,0 32,0 Z"
     id="path4"
     inkscape:connector-curvature="0"
     style="fill:#68bfe5" />
  <path
     d="m 27.646,6.625 -4.875,0 0,8.25 c 0,2.791 4.875,4.354 4.875,4.354 0,0 4.875,-1.563 4.875,-4.354 l 0,-8.25 -4.875,0 z"
     id="path6"
     inkscape:connector-curvature="0" />
  <path
     d="m 27.646,19.019 c -0.555,-0.191 -4.675,-1.694 -4.675,-4.144 l 0,-8.05 9.35,0 0,8.05 c 0,2.449 -4.12,3.952 -4.675,4.144 z"
     id="path8"
     inkscape:connector-curvature="0"
     style="fill:#ffffff" />
  <path
     d="m 32.321,9.896 0,-3.071 -9.35,0 0,3.071 4.008,0 0,3.396 -4.008,0 0,1.312 4.008,0 0,4.158 c 0.317,0.132 0.56,0.219 0.667,0.256 0.104,-0.036 0.338,-0.12 0.646,-0.247 l 0,-4.167 4.029,0 0,-1.312 -4.029,0 0,-3.396 4.029,0 z"
     id="path10"
     inkscape:connector-curvature="0"
     style="fill:#d21034" />
  <path
     d="m 24.184,8.692 c 0,0.275 -0.257,0.498 -0.572,0.498 -0.316,0 -0.572,-0.223 -0.572,-0.498 0,-0.275 0.256,-0.498 0.572,-0.498 0.315,0 0.572,0.223 0.572,0.498 z"
     id="path12"
     inkscape:connector-curvature="0"
     style="fill:#ffffff" />
  <path
     d="M 23.719,8.297 C 23.393,8.354 23.235,8.156 23.297,7.969 23.359,7.782 23.672,7.61 23.969,7.578 c 0.297,-0.031 0.578,0.266 0.812,0.281 0.234,0.016 0.359,-0.114 0.406,-0.284 0.047,-0.17 0.375,-0.557 0.172,-0.654 0.266,0 0.266,0.281 0.266,0.281 0,0 0.297,-0.297 0.516,-0.281 0.125,0.219 0,0.531 0,0.531 0,0 0.312,-0.125 0.531,0.016 -0.422,0.062 -0.484,0.312 -0.484,0.312 0,0 0.078,0.203 -0.031,0.312 -0.109,0.109 0.859,0.312 1.391,0.156 0.531,-0.156 1.547,-0.516 2.203,-0.516 0.656,0 0.797,0.25 0.953,0.031 0.156,-0.219 -0.188,-0.453 -0.75,-0.406 -0.562,0.047 -1.516,0.698 -1.891,0.263 -0.094,0 -0.141,0.112 -0.141,0.112 0,0 -0.234,-0.078 -0.469,-0.203 C 27.219,7.404 27.265,7.826 27.391,7.888 27,7.872 27.013,7.62 27.013,7.62 c 0,0 -0.482,-0.354 -0.169,-0.62 0.023,0.485 0.453,0.344 0.688,0.25 0.234,-0.094 0.531,-0.016 0.672,0.109 0.141,0.125 0.547,0.234 1.062,-0.062 C 29.782,7 31.172,6.891 31.188,7.516 31.204,8.141 30.5,8.188 30.5,8.188 c 0,0 0.078,0.375 0.516,0.297 0.438,-0.078 0.719,-0.203 0.844,0.141 0.125,0.344 0.406,0.359 0.313,0.641 C 32.079,9.548 31.767,9.679 31.345,9.606 30.923,9.533 30.876,9.361 31.22,9.298 31.564,9.236 31.626,8.97 31.501,8.907 31.376,8.844 31.142,9.095 30.829,8.969 30.516,8.843 30.11,8.594 30.11,8.594 c 0,0 0.016,0.172 -0.266,0.266 -0.281,0.094 -0.047,0.203 0.031,0.375 0.078,0.172 -0.281,0.312 -0.656,0.39 -0.375,0.078 -0.656,0.282 -1.016,-0.156 -0.359,-0.438 0.094,-0.562 0.281,-0.422 0.187,0.14 0.375,0.391 0.531,0.266 C 29.171,9.188 28.906,9.11 28.874,8.875 28.843,8.641 28.89,8.36 28.89,8.36 c 0,0 -0.5,0.78 -1.562,0.936 -1.062,0.156 -1.25,0.156 -1.25,0.156 L 25.766,9.233 25.391,9.483 25.375,9.202 c 0,0 -0.594,0.466 -0.906,0.538 C 24.157,9.812 23.303,9.609 23.284,9.374 23.265,9.14 23.359,9.03 23.64,8.936 c 0.281,-0.094 0.328,0.062 0.469,0.188 0.141,0.126 0.297,0.297 0.5,0.125 0.203,-0.172 0.312,-0.234 0.312,-0.234 L 24.983,8.718 24.686,8.702 24.795,8.359 c 0,0 -0.219,0.046 -0.375,-0.095 C 24.264,8.123 24.248,7.983 24.108,8.03 23.969,8.078 24.078,8.234 23.719,8.297 Z"
     id="path14"
     inkscape:connector-curvature="0"
     style="fill:#ffd101" />
  <path
     d="m 24.469,12.828 c -0.266,0.109 -0.672,-0.766 -0.438,-1.016 0.235,-0.25 0.703,0.907 0.438,1.016 z m 0.515,-0.109 c -0.249,0.022 -0.156,-1.188 0,-1.188 0.157,0 0.344,1.157 0,1.188 z m 0.438,0.191 c -0.311,-0.057 0.156,-0.785 0.281,-0.785 0.125,0 0.078,0.851 -0.281,0.785 z m 4.937,0.199 c -0.609,0.017 -0.266,-0.107 -0.203,-0.272 0.062,-0.166 0.025,-1.4 0.025,-1.4 l 0.35,0 c 0,0 -0.109,1.063 0,1.282 0.11,0.219 0.391,0.375 -0.172,0.39 z m 1.203,2.157 c 0.145,-0.162 -0.219,-0.422 -0.469,-0.422 -0.25,0 -0.533,0.141 -0.743,0.734 -0.21,0.594 0.235,0.422 0.349,0.094 0.114,-0.328 0.207,-0.516 0.379,-0.531 0.172,-0.016 0.234,0.406 0.484,0.125 z m -2.39,2.078 c -0.321,-0.024 -0.594,0.812 -0.594,0.812 0,0 1.438,-0.75 0.594,-0.812 z"
     id="path16"
     inkscape:connector-curvature="0"
     style="fill:#964b36" />
  <path
     d="m 24.184,12.125 c 0.078,0.25 -0.715,-0.04 -0.73,0.394 -0.328,-0.05 0.141,-0.691 0.438,-0.597 -0.062,-0.344 -0.506,-0.484 -0.55,0.078 -0.497,-0.438 0.136,-0.859 0.421,-0.672 -0.152,-0.531 -0.443,-0.522 -0.479,-0.203 -0.376,-0.312 0.003,-0.812 0.329,-0.578 0.326,0.234 0.35,0.484 0.35,0.484 0,0 0.227,-0.809 0.805,-0.545 -0.701,0.296 -0.838,0.826 -0.584,1.639 z"
     id="path18"
     inkscape:connector-curvature="0"
     style="fill:#00a651" />
  <path
     d="m 25.004,11.777 c -0.207,-0.199 -0.332,-0.418 -0.332,-0.418 0,0 0.221,0.594 -0.124,0.844 0.015,-0.547 -0.36,-0.734 -0.157,-0.953 0.203,-0.219 0.547,0 0.547,0 0,0 0.081,-0.127 -0.271,-0.438 -0.352,-0.31 -0.604,-0.297 -0.62,-0.562 0.353,0.21 0.893,0.211 0.957,0.797 0.074,-0.703 0.391,-0.719 0.537,-0.734 0.146,-0.015 0.49,0.062 0.615,-0.062 0,0.25 -0.281,0.172 -0.469,0.25 0.25,0.172 0.266,0.727 0.266,0.727 0,0 -0.359,-0.633 -0.516,-0.586 -0.156,0.047 -0.26,0.516 -0.26,0.516 0,0 0.571,-0.017 0.363,0.75 -0.088,-0.422 -0.182,-0.469 -0.291,-0.469 -0.109,0 -0.245,0.338 -0.245,0.338 z"
     id="path20"
     inkscape:connector-curvature="0"
     style="fill:#00a651" />
  <path
     d="m 25.541,12.307 c 0.021,-0.292 0.162,-0.792 0.318,-0.831 0.052,-0.32 0.219,-0.773 0.562,-0.851 0.344,-0.078 0.422,0.281 0.344,0.484 -0.203,-0.297 -0.484,-0.375 -0.547,0.328 0.297,-0.078 0.469,0.156 0.391,0.469 -0.281,-0.328 -0.484,-0.367 -0.609,-0.129 0.328,0.129 0.334,0.41 0.167,0.645 -0.073,-0.406 -0.29,-0.375 -0.405,0 -0.116,0.374 -0.221,-0.115 -0.221,-0.115 z m 4.754,-0.53 c -0.357,0 -0.826,0.369 -0.857,0.942 -0.375,-0.563 0.084,-1.188 0.565,-1.407 -0.847,0.016 -1.159,0.391 -1.268,0.703 -0.109,-0.828 0.943,-1.156 1.268,-1.016 -0.206,-0.359 -1.018,-0.329 -1.425,-0.032 0,-0.687 1.215,-0.852 1.717,-0.231 -0.061,-0.503 0.143,-0.628 0.143,-0.628 l 0,0.672 c 0,0 1.131,-1.062 1.753,0.219 -1.003,-0.516 -1.491,0.016 -1.491,0.016 0,0 1.039,-0.25 0.896,0.953 -0.33,-0.734 -1.018,-0.656 -1.018,-0.656 0,0 0.797,0.36 0.484,1.25 -0.312,-0.859 -0.767,-0.785 -0.767,-0.785 z"
     id="path22"
     inkscape:connector-curvature="0"
     style="fill:#00a651" />
  <path
     d="m 29.531,15.688 c -0.047,-0.469 0.547,-0.734 0.547,-0.734 0,0 1,0.609 1.141,0.734 0.141,0.125 -0.086,0.648 -0.52,0.785 -0.433,0.136 -1.168,-0.785 -1.168,-0.785 z"
     id="path24"
     inkscape:connector-curvature="0"
     style="fill:#fff202" />
  <path
     d="m 29.256,17.355 c -0.235,-0.148 -0.385,-0.98 0,-1.059 -0.146,-0.5 0.166,-0.75 0.275,-0.781 0.109,-0.031 0.514,0.152 0.819,0.443 0.306,0.291 0.571,0.361 0.595,0.475 0.024,0.113 -0.191,0.457 -0.56,0.488 0.115,0.345 -0.764,0.665 -1.129,0.434 z"
     id="path26"
     inkscape:connector-curvature="0"
     style="fill:#00a651" />
  <path
     d="m 24.047,15.407 c 0,0 0.234,-0.095 0.375,-0.235 0.141,-0.14 0.328,-0.141 0.484,0.117 0.156,0.258 0.271,0.586 0.271,0.586 0,0 -0.053,-0.469 0.432,-0.719 0.485,-0.25 0.558,-0.312 0.558,-0.312 L 26,15.512 c 0,0 0.578,-0.355 0.672,-0.559 0.125,0.797 -0.469,1.367 -0.844,1.52 0.203,0.34 0.109,0.621 0.109,0.621 l 0.688,0.562 -0.75,0.234 -0.334,-0.719 c 0,0 -0.867,0.031 -0.993,-0.625 -0.126,-0.656 0.173,-1.008 0,-1.035 -0.173,-0.027 -0.501,-0.104 -0.501,-0.104 z"
     id="path28"
     inkscape:connector-curvature="0" />
  <path
     d="m 25.604,17.069 -0.067,0.003 c -0.146,0 -0.791,-0.028 -0.89,-0.544 -0.066,-0.343 -0.01,-0.597 0.028,-0.765 0.028,-0.129 0.047,-0.214 -0.001,-0.284 l -0.024,-0.036 -0.086,-0.03 c -0.063,-0.01 -0.148,-0.027 -0.23,-0.045 0.056,-0.035 0.112,-0.078 0.159,-0.126 0.03,-0.029 0.076,-0.065 0.128,-0.065 0.065,0 0.137,0.058 0.2,0.163 0.149,0.246 0.262,0.565 0.263,0.567 l 0.194,-0.044 c -0.002,-0.017 -0.036,-0.405 0.378,-0.619 0.157,-0.081 0.271,-0.143 0.355,-0.189 l -0.167,0.67 0.209,-0.129 c 0.07,-0.044 0.345,-0.216 0.535,-0.391 -0.021,0.639 -0.533,1.066 -0.798,1.174 l -0.107,0.044 0.06,0.101 c 0.175,0.292 0.103,0.528 0.101,0.538 l -0.021,0.065 0.596,0.488 -0.489,0.153 -0.326,-0.699 z"
     id="path30"
     inkscape:connector-curvature="0"
     style="fill:#ffffff" />
  <path
     d="m 24.255,15.299 c -0.114,-0.267 -0.114,-0.267 -0.294,-0.346 -0.008,0.172 0,0.281 0,0.281 0,0 -0.101,-0.328 -0.258,-0.281 -0.094,0.375 0.242,0.454 0.242,0.454 0,0 -0.148,0.048 -0.133,0.312 0.266,0.108 0.234,-0.126 0.234,-0.126 0,0 -0.055,0.24 0.137,0.378 0.129,-0.205 0.072,-0.672 0.072,-0.672 z"
     id="path32"
     inkscape:connector-curvature="0"
     style="fill:#00a651" />
  <path
     d="M 19,13 19,0 4,0 C 3.68,0 3.396,0.045 3.396,0.045 L 3.392,1.799 0.662,1.795 C 0.662,1.795 0.62,1.854 0.535,2 0.195,2.589 0,3.272 0,4 l 0,9 19,0 z"
     id="path34"
     inkscape:connector-curvature="0"
     style="fill:#00247d" />
  <path
     d="M 19,0 16.669,0 12,3.269 12,0 7,0 7,2.569 3.396,0.045 C 2.782,0.139 2.206,0.37 1.724,0.71 L 6.426,4 4.69,4 0.967,1.391 C 0.857,1.52 0.756,1.653 0.662,1.795 L 3.813,4 0,4 0,9 3.885,9 0,11.766 0,13 3.332,13 7,10.432 7,13 12,13 12,9.731 16.668,13 19,13 19,10.971 16.185,9 19,9 19,4 16.186,4 19,2.029 19,0 Z"
     id="path36"
     inkscape:connector-curvature="0"
     style="fill:#eeeeee" />
  <path
     d="m 11,0 -3,0 0,5 -8,0 0,3 8,0 0,5 3,0 0,-5 8,0 0,-3 -8,0 z"
     id="path38"
     inkscape:connector-curvature="0"
     style="fill:#cf1b2b" />
  <path
     d="M 19,0 17.539,0 12,3.879 12,4 13.571,4 19,0.198 Z M 1.724,0.71 C 1.443,0.905 1.19,1.133 0.967,1.391 L 4.69,4 6.425,4 1.724,0.71 Z M 6.437,9 0.734,13 2.461,13 7,9.822 7,9 Z M 19,12.802 19,11.582 15.313,9 13.57,9 Z"
     id="path40"
     inkscape:connector-curvature="0"
     style="fill:#cf1b2b" />
</svg>
