<?xml version="1.0" encoding="UTF-8" standalone="no"?>
<svg
   xmlns:dc="http://purl.org/dc/elements/1.1/"
   xmlns:cc="http://creativecommons.org/ns#"
   xmlns:rdf="http://www.w3.org/1999/02/22-rdf-syntax-ns#"
   xmlns:svg="http://www.w3.org/2000/svg"
   xmlns="http://www.w3.org/2000/svg"
   xmlns:sodipodi="http://sodipodi.sourceforge.net/DTD/sodipodi-0.dtd"
   xmlns:inkscape="http://www.inkscape.org/namespaces/inkscape"
   viewBox="0 0 36 26"
   id="svg2"
   version="1.1"
   inkscape:version="0.91 r13725"
   sodipodi:docname="1f1ef-1f1f2.svg"
   width="36"
   height="26">
  <metadata
     id="metadata14">
    <rdf:RDF>
      <cc:Work
         rdf:about="">
        <dc:format>image/svg+xml</dc:format>
        <dc:type
           rdf:resource="http://purl.org/dc/dcmitype/StillImage" />
      </cc:Work>
    </rdf:RDF>
  </metadata>
  <defs
     id="defs12" />
  <sodipodi:namedview
     pagecolor="#ffffff"
     bordercolor="#666666"
     borderopacity="1"
     objecttolerance="10"
     gridtolerance="10"
     guidetolerance="10"
     inkscape:pageopacity="0"
     inkscape:pageshadow="2"
     inkscape:window-width="640"
     inkscape:window-height="480"
     id="namedview10"
     showgrid="false"
     inkscape:zoom="6.5555556"
     inkscape:cx="18"
     inkscape:cy="13"
     inkscape:window-x="0"
     inkscape:window-y="0"
     inkscape:window-maximized="0"
     inkscape:current-layer="svg2" />
  <path
     d="M 32,0 4,0 C 1.791,0 0,1.791 0,4 l 0,18 c 0,2.209 1.791,4 4,4 l 28,0 c 2.209,0 4,-1.791 4,-4 L 36,4 C 36,1.791 34.209,0 32,0 Z"
     id="path4"
     inkscape:connector-curvature="0"
     style="fill:#009b3a" />
  <path
     d="M 35.762,23.361 C 35.916,22.936 36,22.478 36,22 L 36,4 C 36,3.523 35.916,3.065 35.763,2.641 L 35.762,2.639 21.416,13 35.762,23.361 Z M 14.584,13 0.238,2.639 l 0,0.001 C 0.084,3.065 0,3.523 0,4 l 0,18 c 0,0.478 0.084,0.936 0.238,1.361 L 14.584,13 Z"
     id="path6"
     inkscape:connector-curvature="0"
     style="fill:#141414" />
  <path
     d="M 32.535,0.035 18,10.533 3.465,0.035 l -10e-4,0 C 1.969,0.235 0.736,1.261 0.237,2.638 L 14.584,13 0.238,23.361 0.239,23.364 c 0.499,1.375 1.731,2.4 3.223,2.6 l 0.004,0 L 18,15.467 32.534,25.964 c 1.494,-0.2 2.728,-1.224 3.227,-2.601 L 35.762,23.36 21.416,13 35.762,2.639 C 35.264,1.261 34.03,0.235 32.535,0.035 Z"
     id="path8"
     inkscape:connector-curvature="0"
     style="fill:#ffd202" />
</svg>
