<?xml version="1.0" encoding="UTF-8" standalone="no"?>
<svg
   xmlns:dc="http://purl.org/dc/elements/1.1/"
   xmlns:cc="http://creativecommons.org/ns#"
   xmlns:rdf="http://www.w3.org/1999/02/22-rdf-syntax-ns#"
   xmlns:svg="http://www.w3.org/2000/svg"
   xmlns="http://www.w3.org/2000/svg"
   xmlns:sodipodi="http://sodipodi.sourceforge.net/DTD/sodipodi-0.dtd"
   xmlns:inkscape="http://www.inkscape.org/namespaces/inkscape"
   viewBox="0 0 36 26"
   id="svg2"
   version="1.1"
   inkscape:version="0.91 r13725"
   sodipodi:docname="1f1e8-1f1fb.svg"
   width="36"
   height="26">
  <metadata
     id="metadata18">
    <rdf:RDF>
      <cc:Work
         rdf:about="">
        <dc:format>image/svg+xml</dc:format>
        <dc:type
           rdf:resource="http://purl.org/dc/dcmitype/StillImage" />
      </cc:Work>
    </rdf:RDF>
  </metadata>
  <defs
     id="defs16" />
  <sodipodi:namedview
     pagecolor="#ffffff"
     bordercolor="#666666"
     borderopacity="1"
     objecttolerance="10"
     gridtolerance="10"
     guidetolerance="10"
     inkscape:pageopacity="0"
     inkscape:pageshadow="2"
     inkscape:window-width="640"
     inkscape:window-height="480"
     id="namedview14"
     showgrid="false"
     inkscape:zoom="6.5555556"
     inkscape:cx="18"
     inkscape:cy="13"
     inkscape:window-x="0"
     inkscape:window-y="0"
     inkscape:window-maximized="0"
     inkscape:current-layer="svg2" />
  <path
     d="M 32,0 4,0 C 1.791,0 0,1.791 0,4 L 0,14 36,14 36,4 C 36,1.791 34.209,0 32,0 Z"
     id="path4"
     inkscape:connector-curvature="0"
     style="fill:#003893" />
  <path
     d="m 0,14 36,0 0,2 -36,0 z m 0,5 36,0 0,2 -36,0 z"
     id="path6"
     inkscape:connector-curvature="0"
     style="fill:#eeeeee" />
  <path
     d="m 0,16 0,3 36,0 0,-3 -36,0 z"
     id="path8"
     inkscape:connector-curvature="0"
     style="fill:#cf2027" />
  <path
     d="m 4,26 28,0 c 2.209,0 4,-1.791 4,-4 l 0,-1 -36,0 0,1 c 0,2.209 1.791,4 4,4 z"
     id="path10"
     inkscape:connector-curvature="0"
     style="fill:#003893" />
  <path
     d="m 14.347,10.903 0.764,-0.555 -0.944,0 -0.292,-0.898 -0.292,0.898 -0.944,0 0.764,0.555 -0.292,0.899 0.764,-0.555 0.764,0.555 z m 6.182,4.492 0.764,-0.555 -0.944,0 -0.292,-0.899 -0.292,0.899 -0.945,0 0.765,0.555 -0.292,0.898 0.764,-0.555 0.764,0.555 z m -12.364,0 0.765,-0.555 -0.945,0 -0.292,-0.899 -0.292,0.899 -0.944,0 0.764,0.555 -0.292,0.898 0.764,-0.555 0.764,0.555 z m 0,4.017 0.765,-0.555 -0.945,0 -0.292,-0.898 -0.292,0.898 -0.944,0 0.764,0.555 -0.292,0.898 0.764,-0.555 0.764,0.555 z m 12.364,0 0.764,-0.555 -0.944,0 -0.292,-0.898 -0.292,0.898 -0.945,0 0.765,0.555 -0.292,0.898 0.764,-0.555 0.764,0.555 z m -6.362,3.936 -0.292,-0.898 -0.292,0.898 -0.944,0 0.764,0.555 -0.292,0.899 0.764,-0.555 0.764,0.555 -0.292,-0.899 0.764,-0.555 z m 4.001,-0.686 0.764,-0.555 -0.945,0 -0.291,-0.898 -0.292,0.898 -0.945,0 0.764,0.555 -0.292,0.898 0.765,-0.555 0.764,0.555 z m 0,-10.504 0.764,-0.555 -0.945,0 -0.291,-0.898 -0.292,0.898 -0.945,0 0.764,0.555 -0.292,0.898 0.765,-0.555 0.764,0.555 z m -8.586,10.504 -0.764,-0.555 0.945,0 0.291,-0.898 0.292,0.898 0.945,0 -0.764,0.555 0.292,0.898 -0.765,-0.555 -0.764,0.555 z m 0,-10.504 -0.764,-0.555 0.945,0 0.291,-0.898 0.292,0.898 0.945,0 -0.764,0.555 0.292,0.898 -0.765,-0.555 -0.764,0.555 z"
     id="path12"
     inkscape:connector-curvature="0"
     style="fill:#f7d116" />
</svg>
