<?xml version="1.0" encoding="UTF-8" standalone="no"?>
<svg
   xmlns:dc="http://purl.org/dc/elements/1.1/"
   xmlns:cc="http://creativecommons.org/ns#"
   xmlns:rdf="http://www.w3.org/1999/02/22-rdf-syntax-ns#"
   xmlns:svg="http://www.w3.org/2000/svg"
   xmlns="http://www.w3.org/2000/svg"
   xmlns:sodipodi="http://sodipodi.sourceforge.net/DTD/sodipodi-0.dtd"
   xmlns:inkscape="http://www.inkscape.org/namespaces/inkscape"
   viewBox="0 0 36 26"
   id="svg2"
   version="1.1"
   inkscape:version="0.91 r13725"
   sodipodi:docname="1f1e6-1f1fd.svg"
   width="36"
   height="26">
  <metadata
     id="metadata14">
    <rdf:RDF>
      <cc:Work
         rdf:about="">
        <dc:format>image/svg+xml</dc:format>
        <dc:type
           rdf:resource="http://purl.org/dc/dcmitype/StillImage" />
      </cc:Work>
    </rdf:RDF>
  </metadata>
  <defs
     id="defs12" />
  <sodipodi:namedview
     pagecolor="#ffffff"
     bordercolor="#666666"
     borderopacity="1"
     objecttolerance="10"
     gridtolerance="10"
     guidetolerance="10"
     inkscape:pageopacity="0"
     inkscape:pageshadow="2"
     inkscape:window-width="640"
     inkscape:window-height="480"
     id="namedview10"
     showgrid="false"
     inkscape:zoom="6.5555556"
     inkscape:cx="18"
     inkscape:cy="13"
     inkscape:window-x="0"
     inkscape:window-y="0"
     inkscape:window-maximized="0"
     inkscape:current-layer="svg2" />
  <path
     d="m 18,0 -2,0 0,11 20,0 0,-2 -18,0 z m -2,17 0,9 2,0 0,-9 18,0 0,-2 -20,0 z m -3,-2 -13,0 0,2 11,0 0,9 2,0 0,-9 z m 0,-6 0,-9 -2,0 0,9 -11,0 0,2 13,0 z"
     id="path4"
     inkscape:connector-curvature="0"
     style="fill:#ffce00" />
  <path
     d="m 16,0 -3,0 0,11 -13,0 0,4 13,0 0,11 3,0 0,-11 20,0 0,-4 -20,0 z"
     id="path6"
     inkscape:connector-curvature="0"
     style="fill:#d21034" />
  <path
     d="m 18,17 0,9 14,0 c 2.209,0 4,-1.791 4,-4 l 0,-5 -18,0 z m -18,0 0,5 c 0,2.209 1.791,4 4,4 l 7,0 0,-9 -11,0 z M 11,0 4,0 C 1.791,0 0,1.791 0,4 L 0,9 11,9 11,0 Z M 32,0 18,0 18,9 36,9 36,4 C 36,1.791 34.209,0 32,0 Z"
     id="path8"
     inkscape:connector-curvature="0"
     style="fill:#0053a5" />
</svg>
