<?xml version="1.0" encoding="UTF-8" standalone="no"?>
<svg
   xmlns:dc="http://purl.org/dc/elements/1.1/"
   xmlns:cc="http://creativecommons.org/ns#"
   xmlns:rdf="http://www.w3.org/1999/02/22-rdf-syntax-ns#"
   xmlns:svg="http://www.w3.org/2000/svg"
   xmlns="http://www.w3.org/2000/svg"
   xmlns:sodipodi="http://sodipodi.sourceforge.net/DTD/sodipodi-0.dtd"
   xmlns:inkscape="http://www.inkscape.org/namespaces/inkscape"
   viewBox="0 0 36 26"
   id="svg2"
   version="1.1"
   inkscape:version="0.91 r13725"
   sodipodi:docname="1f1e7-1f1f2.svg"
   width="36"
   height="26">
  <metadata
     id="metadata46">
    <rdf:RDF>
      <cc:Work
         rdf:about="">
        <dc:format>image/svg+xml</dc:format>
        <dc:type
           rdf:resource="http://purl.org/dc/dcmitype/StillImage" />
      </cc:Work>
    </rdf:RDF>
  </metadata>
  <defs
     id="defs44" />
  <sodipodi:namedview
     pagecolor="#ffffff"
     bordercolor="#666666"
     borderopacity="1"
     objecttolerance="10"
     gridtolerance="10"
     guidetolerance="10"
     inkscape:pageopacity="0"
     inkscape:pageshadow="2"
     inkscape:window-width="640"
     inkscape:window-height="480"
     id="namedview42"
     showgrid="false"
     inkscape:zoom="6.5555556"
     inkscape:cx="18"
     inkscape:cy="13"
     inkscape:window-x="0"
     inkscape:window-y="0"
     inkscape:window-maximized="0"
     inkscape:current-layer="svg2" />
  <path
     d="M 32,0 4,0 C 3.795,0 3.593,0.015 3.396,0.045 L 3.392,1.799 0.662,1.795 C 0.244,2.427 0,3.185 0,4 l 0,18 c 0,2.209 1.791,4 4,4 l 28,0 c 2.209,0 4,-1.791 4,-4 L 36,4 C 36,1.791 34.209,0 32,0 Z"
     id="path4"
     inkscape:connector-curvature="0"
     style="fill:#cf1b2b" />
  <path
     d="m 22.583,7.585 0,9.067 c 0,0.639 0.146,1.515 1.312,2.057 0.993,0.462 2.473,0.993 3.146,1.419 0.377,0.236 0.959,0.638 0.959,0.638 0,0 0.582,-0.401 0.958,-0.638 0.674,-0.426 2.049,-0.957 3.042,-1.419 1.167,-0.542 1.312,-1.418 1.312,-2.057 l 0,-9.067 -10.729,0 z"
     id="path6"
     inkscape:connector-curvature="0" />
  <path
     d="m 23.108,16.453 c 0.007,0.594 0.16,1.484 1.227,1.98 0.93,0.432 2.137,0.929 2.768,1.328 0.352,0.222 0.897,0.597 0.897,0.597 0,0 0.545,-0.375 0.896,-0.597 0.631,-0.399 1.842,-0.896 2.771,-1.328 1.067,-0.496 1.221,-1.387 1.228,-1.98 l -9.787,0 z"
     id="path8"
     inkscape:connector-curvature="0"
     style="fill:#2e8f22" />
  <path
     d="m 23.108,8.106 9.787,0 0,8.439 -9.787,0 z"
     id="path10"
     inkscape:connector-curvature="0"
     style="fill:#ffffff" />
  <path
     d="m 31.862,15.376 c -0.07,-0.39 0,-0.993 -0.106,-1.171 -0.106,-0.177 -1.099,-0.531 -1.809,-0.461 -0.708,0.071 -0.213,-0.886 0.284,-1.134 0.497,-0.249 0.958,-0.462 1.028,-0.745 0.071,-0.284 -0.178,-0.497 -0.603,-0.426 -0.426,0.071 -0.674,0.071 -0.923,0.319 -0.248,0.248 -0.283,-0.035 -0.39,-0.319 -0.105,-0.283 0.07,-0.39 0.107,-0.674 C 29.485,10.482 29.414,9.701 29.201,9.382 28.989,9.063 29.098,8.851 28.744,8.673 28.389,8.495 28.002,8.354 28.002,8.354 c 0,0 -0.39,0.142 -0.745,0.319 -0.354,0.178 -0.248,0.39 -0.46,0.709 -0.213,0.319 -0.284,1.1 -0.249,1.383 0.036,0.284 0.212,0.391 0.107,0.674 -0.107,0.284 -0.142,0.567 -0.39,0.319 -0.249,-0.248 -0.497,-0.248 -0.923,-0.319 -0.425,-0.071 -0.674,0.142 -0.603,0.426 0.07,0.283 0.531,0.496 1.028,0.745 0.497,0.248 0.992,1.205 0.284,1.134 -0.71,-0.07 -1.702,0.284 -1.809,0.461 -0.106,0.178 -0.036,0.781 -0.106,1.171 -0.071,0.39 -0.248,0.709 -0.071,0.638 0.178,-0.07 0.993,-0.354 1.384,-0.638 0.39,-0.284 0.851,1.135 0.674,1.489 -0.179,0.354 -0.213,0.603 -0.497,0.461 -0.284,-0.142 -0.709,0.071 -0.851,0.355 -0.142,0.283 0.177,0.46 0.532,0.708 0.354,0.249 0.779,-0.248 0.957,-0.496 0.177,-0.249 1.737,-1.028 1.737,-1.028 0,0 1.558,0.779 1.734,1.028 0.178,0.248 0.602,0.745 0.957,0.496 0.354,-0.248 0.673,-0.425 0.53,-0.708 -0.142,-0.284 -0.567,-0.497 -0.851,-0.355 -0.284,0.142 -0.319,-0.107 -0.498,-0.461 -0.176,-0.354 0.284,-1.773 0.674,-1.489 0.391,0.284 1.206,0.567 1.384,0.638 0.179,0.071 0.003,-0.248 -0.069,-0.638 z"
     id="path12"
     inkscape:connector-curvature="0"
     style="fill:#cf1b2b" />
  <path
     d="m 30.866,13.39 c 0,0 0.107,0.248 0.248,0.248 0.141,0 0.391,-0.318 0.178,-0.566 -0.212,-0.249 -0.391,-0.355 -0.283,-0.567 0.105,-0.213 -0.178,-0.568 -0.178,-0.568 -0.142,0.212 -0.532,0.532 -1.206,0.106 -0.674,-0.425 -1.206,-0.497 -1.312,-0.248 l -0.627,0 c -0.105,-0.248 -0.638,-0.177 -1.312,0.248 -0.674,0.425 -1.065,0.106 -1.206,-0.106 0,0 -0.283,0.355 -0.178,0.568 0.107,0.212 -0.071,0.318 -0.283,0.567 -0.213,0.248 0.036,0.566 0.178,0.566 0.142,0 0.248,-0.248 0.248,-0.248 0,0 0.46,0.39 0.426,0.922 -0.036,0.531 -0.745,1.027 -0.745,1.027 0.213,0.248 0.213,0.604 0.426,1.241 0.212,0.639 0.957,0.461 0.957,0.461 0.036,0.391 0.71,0.781 0.957,0.781 0.249,0 0.319,0.212 0.319,0.212 0,0 -0.283,0.178 -0.142,0.32 0.133,0.132 0.609,-0.047 0.668,-0.069 0.059,0.022 0.535,0.201 0.668,0.069 0.142,-0.143 -0.142,-0.32 -0.142,-0.32 0,0 0.07,-0.212 0.319,-0.212 0.247,0 0.921,-0.391 0.957,-0.781 0,0 0.745,0.178 0.957,-0.461 0.213,-0.638 0.213,-0.993 0.426,-1.241 0,0 -0.709,-0.496 -0.745,-1.027 -0.033,-0.532 0.427,-0.922 0.427,-0.922 z"
     id="path14"
     inkscape:connector-curvature="0"
     style="fill:#ffe000" />
  <path
     d="m 31.298,13.106 c -0.213,-0.248 -0.39,-0.355 -0.284,-0.567 0.107,-0.213 -0.142,-0.354 -0.142,-0.354 -0.142,0.213 -0.734,0.516 -1.24,0.213 -0.532,-0.32 -0.674,-0.249 -0.816,-0.32 0,0 0.087,0.247 -0.106,0.32 -0.283,0.106 -0.391,-0.143 -0.391,-0.143 l -0.637,0 c 0,0 -0.107,0.249 -0.391,0.143 -0.193,-0.073 -0.106,-0.32 -0.106,-0.32 -0.143,0.071 -0.284,0 -0.816,0.32 -0.506,0.303 -1.099,0 -1.24,-0.213 0,0 -0.249,0.142 -0.142,0.354 0.106,0.212 -0.071,0.319 -0.284,0.567 -0.213,0.248 0.106,0.035 0.248,0.035 0.142,0 0.497,0.249 0.497,0.249 0,0 0.39,0.284 0.354,0.958 -0.028,0.532 -0.816,1.062 -0.816,1.062 0.212,0.25 0.425,1.136 0.425,1.136 0.213,0.462 4.816,-1.666 4.787,-2.198 -0.035,-0.674 0.354,-0.958 0.354,-0.958 0,0 0.355,-0.249 0.497,-0.249 0.142,10e-4 0.462,0.213 0.249,-0.035 z"
     id="path16"
     inkscape:connector-curvature="0"
     style="fill:#64b4d1" />
  <path
     d="m 30.198,14.348 c -0.005,-0.094 -0.001,-0.18 0.008,-0.258 -0.337,0.02 -0.667,-0.158 -0.788,-0.31 -0.142,-0.177 -0.318,-0.177 -0.638,0 -0.319,0.178 -0.319,0.673 -0.319,0.673 l 0,0.072 1.95,1.275 0.562,-0.336 c 0.014,-0.02 0.026,-0.037 0.041,-0.055 0,10e-4 -0.787,-0.529 -0.816,-1.061 z"
     id="path18"
     inkscape:connector-curvature="0"
     style="fill:#cccccc" />
  <path
     d="m 25.66,12.894 0.248,2.624 1.134,0.851 1.171,-0.958 -0.248,-0.744 -0.142,-0.957 -0.426,-0.284 -0.355,-0.709 -0.46,-0.036 -0.248,0.177 c 0,0 -0.213,-0.142 -0.213,-0.106 0,0.036 -0.178,0.213 -0.178,0.213 L 25.66,12.894 Z"
     id="path20"
     inkscape:connector-curvature="0"
     style="fill:#e4cb5e" />
  <path
     d="m 27.645,13 0.426,-0.106 0.603,1.064 0.602,-0.071 0.107,0.283 -1.631,0.532 0,-0.426 0.071,-0.141 z"
     id="path22"
     inkscape:connector-curvature="0" />
  <path
     d="m 26.511,13.354 0.177,2.554 0.178,-0.107 c 0,0 -0.248,-2.092 -0.213,-2.057 0.035,0.036 0.532,1.809 0.532,1.809 l 0.213,0.071 -0.603,-2.199 0.957,1.667 0.177,-0.426 -0.992,-1.347 -0.284,-0.354 -0.142,0.389 z"
     id="path24"
     inkscape:connector-curvature="0" />
  <path
     d="m 27.716,14.453 1.597,-0.354 0.709,1.063 -0.284,0.815 c 0,0 -1.206,0.603 -1.24,0.639 -0.036,0.035 -1.171,-0.107 -1.171,-0.107 l 0.389,-2.056 z"
     id="path26"
     inkscape:connector-curvature="0"
     style="fill:#9f5a2b" />
  <path
     d="m 29.56,16.724 c 0,0 0.071,-0.213 0.284,-0.178 0.212,0.035 0.142,0.283 0.142,0.283 0,0 0.39,0.179 0.603,-0.283 0.015,-0.021 0.026,-0.044 0.035,-0.07 0.128,-0.384 0.178,-0.815 0.39,-1.065 0,0 -0.02,-0.012 -0.053,-0.037 -0.188,0.076 -0.337,0.18 -0.337,0.18 0,0 0,-0.318 -0.354,-0.39 -0.354,-0.071 -0.709,0.461 -0.709,0.461 -0.142,-0.425 -0.71,0 -0.958,0.39 -0.247,0.391 -0.851,0.284 -0.851,0.284 l -0.108,-0.213 c 0,0 0.037,-0.354 -0.247,-0.532 -0.284,-0.177 -0.71,0.248 -0.71,0.248 0.107,-0.461 -0.39,-0.391 -0.495,-0.318 -0.107,0.07 -0.284,-0.178 -0.532,-0.248 -0.186,-0.053 -0.352,0.35 -0.438,0.689 0.051,0.178 0.094,0.37 0.154,0.552 0.009,0.026 0.021,0.05 0.035,0.07 0.213,0.462 0.603,0.283 0.603,0.283 0,0 -0.07,-0.248 0.142,-0.283 0.213,-0.035 0.284,0.178 0.284,0.178 0,0 0.248,-0.071 0.319,0.142 0.07,0.213 -0.248,0.284 -0.248,0.284 -0.035,0.07 0.177,0.39 0.915,0.555 0.141,0.1 0.219,0.294 0.219,0.294 l 0,0.318 0.71,0 0,-0.318 c 0,0 0.077,-0.194 0.219,-0.296 0.738,-0.165 0.95,-0.484 0.915,-0.555 0,0 -0.318,-0.071 -0.248,-0.284 0.071,-0.213 0.319,-0.141 0.319,-0.141 z"
     id="path28"
     inkscape:connector-curvature="0"
     style="fill:#cccccc" />
  <path
     d="m 27.503,9.064 0.356,0.177 -0.071,0.142 -0.354,-0.071 0.069,-0.248 z m 0.958,0 -0.354,0.177 0.07,0.142 0.354,-0.071 -0.07,-0.248 z"
     id="path30"
     inkscape:connector-curvature="0"
     style="fill:#ffffff" />
  <path
     d="M 28.745,9.524 28.815,9.276 28.497,9.596 28.355,9.773 28.177,9.596 28,9.773 27.823,9.596 27.645,9.773 27.503,9.596 l -0.318,-0.32 0.07,0.248 -0.355,0.249 0.32,-0.142 0.177,0.071 0.177,0.177 0.249,-0.07 0.177,0.212 0.177,-0.212 0.249,0.07 0.177,-0.177 0.177,-0.071 0.32,0.142 z"
     id="path32"
     inkscape:connector-curvature="0" />
  <path
     d="M 19,13 19,0 4,0 C 3.68,0 3.396,0.045 3.396,0.045 L 3.392,1.799 0.662,1.795 C 0.662,1.795 0.62,1.854 0.535,2 0.195,2.589 0,3.272 0,4 l 0,9 19,0 z"
     id="path34"
     inkscape:connector-curvature="0"
     style="fill:#00247d" />
  <path
     d="M 19,0 16.669,0 12,3.269 12,0 7,0 7,2.569 3.396,0.045 C 2.782,0.139 2.206,0.37 1.724,0.71 L 6.426,4 4.69,4 0.967,1.391 C 0.857,1.52 0.756,1.653 0.662,1.795 L 3.813,4 0,4 0,9 3.885,9 0,11.766 0,13 3.332,13 7,10.432 7,13 12,13 12,9.731 16.668,13 19,13 19,10.971 16.185,9 19,9 19,4 16.186,4 19,2.029 19,0 Z"
     id="path36"
     inkscape:connector-curvature="0"
     style="fill:#eeeeee" />
  <path
     d="m 11,0 -3,0 0,5 -8,0 0,3 8,0 0,5 3,0 0,-5 8,0 0,-3 -8,0 z"
     id="path38"
     inkscape:connector-curvature="0"
     style="fill:#cf1b2b" />
  <path
     d="M 19,0 17.539,0 12,3.879 12,4 13.571,4 19,0.198 Z M 1.724,0.71 C 1.443,0.905 1.19,1.133 0.967,1.391 L 4.69,4 6.425,4 1.724,0.71 Z M 6.437,9 0.734,13 2.461,13 7,9.822 7,9 Z M 19,12.802 19,11.582 15.313,9 13.57,9 Z"
     id="path40"
     inkscape:connector-curvature="0"
     style="fill:#cf1b2b" />
</svg>
