<?xml version="1.0" encoding="UTF-8" standalone="no"?>
<svg
   xmlns:dc="http://purl.org/dc/elements/1.1/"
   xmlns:cc="http://creativecommons.org/ns#"
   xmlns:rdf="http://www.w3.org/1999/02/22-rdf-syntax-ns#"
   xmlns:svg="http://www.w3.org/2000/svg"
   xmlns="http://www.w3.org/2000/svg"
   xmlns:sodipodi="http://sodipodi.sourceforge.net/DTD/sodipodi-0.dtd"
   xmlns:inkscape="http://www.inkscape.org/namespaces/inkscape"
   viewBox="0 0 36 26"
   id="svg2"
   version="1.1"
   inkscape:version="0.91 r13725"
   sodipodi:docname="1f1e6-1f1ff.svg"
   width="36"
   height="26">
  <metadata
     id="metadata20">
    <rdf:RDF>
      <cc:Work
         rdf:about="">
        <dc:format>image/svg+xml</dc:format>
        <dc:type
           rdf:resource="http://purl.org/dc/dcmitype/StillImage" />
      </cc:Work>
    </rdf:RDF>
  </metadata>
  <defs
     id="defs18" />
  <sodipodi:namedview
     pagecolor="#ffffff"
     bordercolor="#666666"
     borderopacity="1"
     objecttolerance="10"
     gridtolerance="10"
     guidetolerance="10"
     inkscape:pageopacity="0"
     inkscape:pageshadow="2"
     inkscape:window-width="640"
     inkscape:window-height="480"
     id="namedview16"
     showgrid="false"
     inkscape:zoom="6.5555556"
     inkscape:cx="18"
     inkscape:cy="13"
     inkscape:window-x="0"
     inkscape:window-y="0"
     inkscape:window-maximized="0"
     inkscape:current-layer="svg2" />
  <path
     d="M 0,8 36,8 36,18 0,18 Z"
     id="path4"
     inkscape:connector-curvature="0"
     style="fill:#e00034" />
  <path
     d="M 32,0 4,0 C 1.791,0 0,1.791 0,4 L 0,8 36,8 36,4 C 36,1.791 34.209,0 32,0 Z"
     id="path6"
     inkscape:connector-curvature="0"
     style="fill:#0098c3" />
  <g
     id="g8"
     style="fill:#ffffff"
     transform="translate(0,-5)">
    <path
       d="m 17.844,21.333 c -1.841,0 -3.333,-1.492 -3.333,-3.333 0,-1.841 1.492,-3.333 3.333,-3.333 0.982,0 1.865,0.425 2.475,1.101 C 19.601,14.701 18.382,14 17,14 c -2.209,0 -4,1.791 -4,4 0,2.209 1.791,4 4,4 1.382,0 2.601,-0.701 3.32,-1.768 -0.61,0.676 -1.493,1.101 -2.476,1.101 z"
       id="path10"
       inkscape:connector-curvature="0" />
    <path
       d="m 23.667,17.998 -1.196,-0.424 0.544,-1.146 -1.146,0.545 -0.426,-1.195 -0.424,1.196 -0.003,-0.002 -1.144,-0.542 0.546,1.146 -1.196,0.426 1.196,0.424 -0.544,1.146 1.141,-0.543 0.005,-0.002 0.426,1.195 0.424,-1.196 1.147,0.544 -0.546,-1.146 z"
       id="path12"
       inkscape:connector-curvature="0" />
  </g>
  <path
     d="m 4,26 28,0 c 2.209,0 4,-1.791 4,-4 l 0,-4 -36,0 0,4 c 0,2.209 1.791,4 4,4 z"
     id="path14"
     inkscape:connector-curvature="0"
     style="fill:#00ae65" />
</svg>
