<?xml version="1.0" encoding="UTF-8" standalone="no"?>
<svg
   xmlns:dc="http://purl.org/dc/elements/1.1/"
   xmlns:cc="http://creativecommons.org/ns#"
   xmlns:rdf="http://www.w3.org/1999/02/22-rdf-syntax-ns#"
   xmlns:svg="http://www.w3.org/2000/svg"
   xmlns="http://www.w3.org/2000/svg"
   xmlns:sodipodi="http://sodipodi.sourceforge.net/DTD/sodipodi-0.dtd"
   xmlns:inkscape="http://www.inkscape.org/namespaces/inkscape"
   viewBox="0 0 36 26"
   id="svg2"
   version="1.1"
   inkscape:version="0.91 r13725"
   sodipodi:docname="1f1e7-1f1f1.svg"
   width="36"
   height="26">
  <metadata
     id="metadata30">
    <rdf:RDF>
      <cc:Work
         rdf:about="">
        <dc:format>image/svg+xml</dc:format>
        <dc:type
           rdf:resource="http://purl.org/dc/dcmitype/StillImage" />
      </cc:Work>
    </rdf:RDF>
  </metadata>
  <defs
     id="defs28" />
  <sodipodi:namedview
     pagecolor="#ffffff"
     bordercolor="#666666"
     borderopacity="1"
     objecttolerance="10"
     gridtolerance="10"
     guidetolerance="10"
     inkscape:pageopacity="0"
     inkscape:pageshadow="2"
     inkscape:window-width="640"
     inkscape:window-height="480"
     id="namedview26"
     showgrid="false"
     inkscape:zoom="6.5555556"
     inkscape:cx="18"
     inkscape:cy="13"
     inkscape:window-x="0"
     inkscape:window-y="0"
     inkscape:window-maximized="0"
     inkscape:current-layer="svg2" />
  <path
     d="m 36,22 c 0,2.209 -1.791,4 -4,4 L 4,26 C 1.791,26 0,24.209 0,22 L 0,4 C 0,1.791 1.791,0 4,0 l 28,0 c 2.209,0 4,1.791 4,4 l 0,18 z"
     id="path4"
     inkscape:connector-curvature="0"
     style="fill:#eeeeee" />
  <path
     d="m 10.391,16.254 c 0,0 -0.337,1.015 -0.253,2.029 0.085,1.015 2.452,0.93 2.959,0.846 0.507,-0.085 0.846,-0.085 0.507,0.339 -0.337,0.421 -0.76,1.098 -0.676,1.859 0.084,0.759 -1.015,0.253 -1.352,-0.509 -0.338,-0.76 -0.677,-0.76 -1.269,-1.098 C 9.715,19.382 9.142,18.53 8.785,18.029 8.362,17.438 8.108,17.015 10.391,16.254 Z m 15.217,0 c 0,0 0.339,1.015 0.254,2.029 -0.083,1.015 -2.452,0.93 -2.959,0.846 -0.508,-0.085 -0.845,-0.085 -0.508,0.339 0.34,0.421 0.762,1.098 0.678,1.859 -0.085,0.759 1.014,0.253 1.352,-0.509 0.34,-0.76 0.677,-0.76 1.269,-1.098 0.593,-0.338 1.164,-1.19 1.522,-1.691 0.422,-0.591 0.676,-1.014 -1.608,-1.775 z"
     id="path6"
     inkscape:connector-curvature="0"
     style="fill:#ce1a24" />
  <path
     d="m 27.047,17.859 c -0.931,0.424 -2.861,0.703 -3.637,0.762 -1.025,0.079 -1.183,0.338 -1.183,0.592 0,0.255 1.099,0.423 1.69,0.338 0.592,-0.083 1.269,0.085 0.254,0.677 -1.015,0.591 -2.367,1.438 -3.636,1.775 C 19.268,22.342 18,22.257 18,22.257 c 0,0 -1.268,0.085 -2.537,-0.254 -1.268,-0.338 -2.621,-1.184 -3.635,-1.775 -1.015,-0.592 -0.339,-0.76 0.253,-0.677 0.592,0.085 1.691,-0.083 1.691,-0.338 0,-0.254 -0.158,-0.513 -1.184,-0.592 C 11.814,18.562 9.882,18.283 8.953,17.859 8.561,17.681 8.446,17.353 8.446,17.353 c 0,0 0,0.17 0.085,0.676 0.084,0.507 0.507,0.845 0.592,1.353 0.084,0.506 0.084,0.761 0.507,0.845 0.423,0.085 1.353,0.17 1.353,0.17 0,0 0,0.759 -0.169,1.183 -0.17,0.423 0.423,1.185 2.705,2.029 2.283,0.847 3.298,0.762 4.481,0.762 1.184,0 2.198,0.085 4.48,-0.762 2.284,-0.845 2.874,-1.607 2.706,-2.029 -0.169,-0.424 -0.169,-1.183 -0.169,-1.183 0,0 0.93,-0.085 1.352,-0.17 0.425,-0.084 0.425,-0.339 0.508,-0.845 0.085,-0.509 0.507,-0.847 0.592,-1.353 0.084,-0.506 0.084,-0.676 0.084,-0.676 0,0 -0.115,0.329 -0.506,0.506 z"
     id="path8"
     inkscape:connector-curvature="0"
     style="fill:#f6e4be" />
  <path
     d="m 14.28,22.342 c 0.938,0.313 4.833,1.13 7.185,0.085 0.762,-0.341 1.015,0.674 0.339,0.93 -0.531,0.198 -2.621,0.506 -3.551,0.506 -0.93,0 -3.482,-0.295 -4.227,-0.591 -0.423,-0.171 -0.253,-1.101 0.254,-0.93 z"
     id="path10"
     inkscape:connector-curvature="0"
     style="fill:#bcad96" />
  <path
     d="m 12.589,5.517 10.821,0 0,1.521 -10.821,0 z"
     id="path12"
     inkscape:connector-curvature="0"
     style="fill:#666666" />
  <path
     d="m 18,6.531 -5.411,0 0,6.425 c 0,3.214 2.029,4.482 3.043,5.242 1.015,0.761 3.72,0.761 4.734,0 1.015,-0.76 3.044,-2.027 3.044,-5.242 l 0,-6.425 -5.41,0 z"
     id="path14"
     inkscape:connector-curvature="0"
     style="fill:#ce1a24" />
  <path
     d="m 12.723,14.31 c 0.468,2.239 2.052,3.246 2.909,3.889 1.015,0.761 2.368,1.27 2.368,1.27 0,0 1.353,-0.509 2.366,-1.27 0.86,-0.642 2.442,-1.649 2.911,-3.889 l -10.554,0 z m -0.134,-7.779 10.821,0 0,3.974 -10.821,0 z"
     id="path16"
     inkscape:connector-curvature="0"
     style="fill:#1353b4" />
  <path
     d="m 14.788,7.969 c 0,0 0.084,-0.169 0,-0.423 -0.076,-0.227 -0.423,-0.423 -0.423,-0.423 0,0 -0.347,0.196 -0.422,0.423 -0.085,0.253 0,0.423 0,0.423 -0.423,-0.169 -0.592,0.254 -0.592,0.507 0,0.254 0.339,0.422 0.339,0.422 0,0 0,-0.338 0.168,-0.338 0.169,0 0.169,0.338 0.169,0.338 -0.338,0 0,0.254 0,0.254 l -0.253,0.422 0.338,-0.085 c -0.084,0.254 0.254,0.507 0.254,0.507 0,0 0.339,-0.253 0.253,-0.507 l 0.339,0.085 -0.253,-0.422 c 0,0 0.338,-0.254 0,-0.254 0,0 0,-0.338 0.168,-0.338 0.169,0 0.169,0.338 0.169,0.338 0,0 0.338,-0.168 0.338,-0.422 C 15.379,8.223 15.21,7.799 14.788,7.969 Z m 7.271,0 c 0,0 0.084,-0.169 0,-0.423 -0.075,-0.227 -0.423,-0.423 -0.423,-0.423 0,0 -0.347,0.196 -0.423,0.423 -0.085,0.253 0,0.423 0,0.423 -0.423,-0.169 -0.592,0.254 -0.592,0.507 0,0.254 0.338,0.422 0.338,0.422 0,0 0,-0.338 0.169,-0.338 0.169,0 0.169,0.338 0.169,0.338 -0.338,0 0,0.254 0,0.254 l -0.253,0.422 0.337,-0.085 c -0.084,0.254 0.255,0.507 0.255,0.507 0,0 0.338,-0.253 0.253,-0.507 l 0.339,0.085 -0.254,-0.422 c 0,0 0.338,-0.254 0,-0.254 0,0 0,-0.338 0.169,-0.338 0.169,0 0.169,0.338 0.169,0.338 0,0 0.339,-0.168 0.339,-0.422 C 22.65,8.223 22.48,7.799 22.059,7.969 Z m -3.636,0 c 0,0 0.084,-0.169 0,-0.423 C 18.347,7.319 18,7.123 18,7.123 c 0,0 -0.347,0.196 -0.423,0.423 -0.084,0.253 0,0.423 0,0.423 -0.423,-0.169 -0.592,0.254 -0.592,0.507 0,0.254 0.338,0.422 0.338,0.422 0,0 0,-0.338 0.169,-0.338 0.169,0 0.169,0.338 0.169,0.338 -0.338,0 0,0.254 0,0.254 L 17.408,9.574 17.746,9.489 C 17.662,9.744 18,9.998 18,9.998 c 0,0 0.338,-0.253 0.253,-0.507 l 0.338,0.085 -0.253,-0.422 c 0,0 0.338,-0.254 0,-0.254 0,0 0,-0.338 0.169,-0.338 0.169,0 0.169,0.338 0.169,0.338 0,0 0.338,-0.168 0.338,-0.422 0.001,-0.255 -0.168,-0.679 -0.591,-0.509 z"
     id="path18"
     inkscape:connector-curvature="0"
     style="fill:#eace23" />
  <path
     d="m 18.93,12.45 0.423,-0.593 -1.184,0.339 0.338,-1.1 -0.507,0.339 -0.507,-0.339 0.338,1.1 -1.184,-0.339 0.423,0.593 -0.423,0.506 1.184,-0.422 -0.423,1.183 0.592,-0.338 0.592,0.338 -0.423,-1.183 1.184,0.422 z"
     id="path20"
     inkscape:connector-curvature="0"
     style="fill:#ffffff" />
  <path
     d="m 18.93,17.015 c 0,0 -0.254,0 -0.254,0.254 0,0.255 0.254,0.338 0.254,0.338 0,0 -0.17,0.253 -0.423,0.253 -0.254,0 -0.338,-0.253 -0.338,-0.253 0,0 0.338,-0.083 0.338,-0.253 0,-0.17 -0.254,-0.254 -0.254,-0.254 0,0 0,-0.423 -0.253,-0.423 -0.253,0 -0.253,0.423 -0.253,0.423 0,0 -0.254,0.084 -0.254,0.254 0,0.17 0.338,0.253 0.338,0.253 0,0 -0.085,0.253 -0.338,0.253 -0.253,0 -0.422,-0.253 -0.422,-0.253 0,0 0.253,-0.083 0.253,-0.338 0,-0.254 -0.253,-0.254 -0.253,-0.254 0,-0.338 -0.338,-0.17 -0.338,-0.17 l 0.253,1.776 2.029,0 0.253,-1.776 c 0,0 -0.338,-0.168 -0.338,0.17 z m -1.945,-2.2 c 0,0 -0.253,0 -0.253,0.256 0,0.253 0.253,0.338 0.253,0.338 0,0 -0.168,0.253 -0.422,0.253 -0.253,0 -0.338,-0.253 -0.338,-0.253 0,0 0.338,-0.085 0.338,-0.253 0,-0.171 -0.253,-0.256 -0.253,-0.256 0,0 0,-0.421 -0.254,-0.421 -0.253,0 -0.253,0.421 -0.253,0.421 0,0 -0.254,0.085 -0.254,0.256 0,0.168 0.338,0.253 0.338,0.253 0,0 -0.084,0.253 -0.338,0.253 -0.253,0 -0.423,-0.253 -0.423,-0.253 0,0 0.254,-0.085 0.254,-0.338 0,-0.256 -0.254,-0.256 -0.254,-0.256 0,-0.336 -0.337,-0.168 -0.337,-0.168 l 0.253,1.776 2.03,0 0.253,-1.776 c -10e-4,0 -0.34,-0.168 -0.34,0.168 z m 3.889,0 c 0,0 -0.253,0 -0.253,0.256 0,0.253 0.253,0.338 0.253,0.338 0,0 -0.168,0.253 -0.423,0.253 -0.253,0 -0.338,-0.253 -0.338,-0.253 0,0 0.338,-0.085 0.338,-0.253 0,-0.171 -0.253,-0.256 -0.253,-0.256 0,0 0,-0.421 -0.254,-0.421 -0.253,0 -0.253,0.421 -0.253,0.421 0,0 -0.255,0.085 -0.255,0.256 0,0.168 0.339,0.253 0.339,0.253 0,0 -0.084,0.253 -0.339,0.253 -0.253,0 -0.422,-0.253 -0.422,-0.253 0,0 0.253,-0.085 0.253,-0.338 0,-0.256 -0.253,-0.256 -0.253,-0.256 0,-0.336 -0.338,-0.168 -0.338,-0.168 l 0.254,1.776 2.029,0 0.254,-1.776 c 0,0 -0.339,-0.168 -0.339,0.168 z M 24.51,2.474 24.34,2.981 24.003,2.896 24.087,2.389 23.242,2.22 23.149,2.756 22.818,2.664 22.819,2.051 21.973,1.967 21.902,2.495 21.297,2.389 l 0,0.338 -0.169,0 0,-0.423 -0.422,0 0,0.339 -0.255,0 0,-0.423 -0.422,0 0,0.338 -0.338,-0.084 0,-0.762 -0.846,-0.084 0,0.507 -0.423,0 0,-0.507 -0.846,0 0,0.507 -0.423,0 0,-0.507 -0.843,0.084 0,0.761 -0.339,0.084 0,-0.337 -0.422,0 0,0.423 -0.253,0 0,-0.339 -0.423,0 0,0.423 -0.168,0 0,-0.338 -0.606,0.106 -0.071,-0.528 -0.847,0.083 0,0.613 -0.331,0.092 -0.092,-0.535 -0.846,0.169 0.084,0.507 -0.338,0.085 -0.168,-0.507 -0.845,0.253 0.423,1.099 0.253,-0.084 1.268,2.79 c 0,0 1.438,-0.422 2.79,-0.592 C 16.732,5.771 18,5.771 18,5.771 c 0,0 1.268,0 2.621,0.169 1.352,0.169 2.789,0.592 2.789,0.592 l 1.268,-2.79 0.254,0.084 0.422,-1.099 -0.844,-0.253 z"
     id="path22"
     inkscape:connector-curvature="0"
     style="fill:#eace23" />
  <path
     d="m 18,2.981 c -0.187,0 -0.338,0.151 -0.338,0.337 l 0,0.846 0.677,0 0,-0.846 C 18.338,3.132 18.187,2.981 18,2.981 Z M 12.878,3.507 C 12.697,3.554 12.588,3.738 12.636,3.92 L 12.849,4.738 13.503,4.568 13.29,3.75 C 13.244,3.568 13.059,3.46 12.878,3.507 Z m 10.243,0 c 0.182,0.047 0.289,0.231 0.243,0.413 L 23.15,4.737 22.496,4.567 22.709,3.749 C 22.756,3.568 22.94,3.46 23.121,3.507 Z"
     id="path24"
     inkscape:connector-curvature="0"
     style="fill:#5e520d" />
</svg>
