<?xml version="1.0" encoding="UTF-8" standalone="no"?>
<svg
   xmlns:dc="http://purl.org/dc/elements/1.1/"
   xmlns:cc="http://creativecommons.org/ns#"
   xmlns:rdf="http://www.w3.org/1999/02/22-rdf-syntax-ns#"
   xmlns:svg="http://www.w3.org/2000/svg"
   xmlns="http://www.w3.org/2000/svg"
   xmlns:sodipodi="http://sodipodi.sourceforge.net/DTD/sodipodi-0.dtd"
   xmlns:inkscape="http://www.inkscape.org/namespaces/inkscape"
   viewBox="0 0 36 26"
   id="svg2"
   version="1.1"
   inkscape:version="0.91 r13725"
   sodipodi:docname="1f1ee-1f1f2.svg"
   width="36"
   height="26">
  <metadata
     id="metadata18">
    <rdf:RDF>
      <cc:Work
         rdf:about="">
        <dc:format>image/svg+xml</dc:format>
        <dc:type
           rdf:resource="http://purl.org/dc/dcmitype/StillImage" />
      </cc:Work>
    </rdf:RDF>
  </metadata>
  <defs
     id="defs16" />
  <sodipodi:namedview
     pagecolor="#ffffff"
     bordercolor="#666666"
     borderopacity="1"
     objecttolerance="10"
     gridtolerance="10"
     guidetolerance="10"
     inkscape:pageopacity="0"
     inkscape:pageshadow="2"
     inkscape:window-width="640"
     inkscape:window-height="480"
     id="namedview14"
     showgrid="false"
     inkscape:zoom="6.5555556"
     inkscape:cx="18"
     inkscape:cy="13"
     inkscape:window-x="0"
     inkscape:window-y="0"
     inkscape:window-maximized="0"
     inkscape:current-layer="svg2" />
  <path
     d="m 36,22 c 0,2.209 -1.791,4 -4,4 L 4,26 C 1.791,26 0,24.209 0,22 L 0,4 C 0,1.791 1.791,0 4,0 l 28,0 c 2.209,0 4,1.791 4,4 l 0,18 z"
     id="path4"
     inkscape:connector-curvature="0"
     style="fill:#cf1b2b" />
  <circle
     cx="17.635"
     cy="11.575001"
     r="1.383"
     id="circle6"
     style="fill:#f8dc15" />
  <circle
     cx="17.635"
     cy="12.316"
     r="1.383"
     id="circle8"
     style="fill:#f8dc15" />
  <path
     d="m 9.858,7.11 c 0.407,-0.204 1.33,1.544 2.059,1.501 0.729,-0.043 2.616,-1.439 3.646,-1.535 0,0 0,-0.439 0.858,-0.439 0.858,0 0.986,0.43 1.072,0.987 0,0 0.685,1.072 0.986,1.887 0.301,0.815 0.301,1.373 0.301,1.373 0,0 -0.644,0.643 -1.03,0.686 -0.386,0.043 -1.458,-0.343 -1.458,-0.343 0,0 -0.214,-1.626 -0.3,-2.121 l -0.3,-0.324 c 0,0 -0.428,0.472 -1.201,0.601 C 13.718,9.512 12.518,9.468 12.089,9.554 11.66,9.64 11.703,10.198 11.317,10.155 10.931,10.112 11.232,9.254 10.545,8.782 9.858,8.311 9.343,7.367 9.858,7.11 Z m 7.563,14.08 c -0.38,-0.252 0.672,-1.926 0.271,-2.535 -0.402,-0.609 -2.555,-1.545 -3.153,-2.389 0,0 -0.379,0.219 -0.808,-0.525 -0.429,-0.742 -0.121,-1.068 0.318,-1.422 0,0 0.585,-1.129 1.142,-1.797 0.555,-0.668 1.038,-0.947 1.038,-0.947 0,0 0.879,0.236 1.109,0.548 0.23,0.312 0.432,1.436 0.432,1.436 0,0 -1.301,0.997 -1.687,1.32 l -0.131,0.422 c 0,0 0.623,0.135 1.12,0.74 0.499,0.604 1.061,1.666 1.35,1.994 0.289,0.328 0.75,0.012 0.907,0.369 0.156,0.353 -0.738,0.523 -0.803,1.353 -0.065,0.831 -0.625,1.749 -1.105,1.433 z M 25.786,7.665 c -0.027,0.455 -2.003,0.38 -2.33,1.032 -0.327,0.653 -0.062,2.985 -0.492,3.925 0,0 0.379,0.218 -0.051,0.961 -0.429,0.743 -0.865,0.639 -1.39,0.436 0,0 -1.271,0.058 -2.128,-0.09 -0.856,-0.146 -1.338,-0.425 -1.338,-0.425 0,0 -0.235,-0.879 -0.081,-1.235 0.156,-0.355 1.027,-1.092 1.027,-1.092 0,0 1.516,0.628 1.987,0.801 l 0.432,-0.097 c 0,0 -0.196,-0.608 0.08,-1.341 0.273,-0.734 0.912,-1.751 1.052,-2.166 0.14,-0.415 -0.363,-0.656 -0.134,-0.97 0.229,-0.313 0.822,0.377 1.573,0.018 0.753,-0.358 1.828,-0.33 1.793,0.243 z"
     id="path10"
     inkscape:connector-curvature="0"
     style="fill:#ffffff" />
  <path
     d="m 11.628,9.892 0.376,0.327 0.481,-0.124 -0.195,0.458 0.266,0.419 -0.495,-0.044 -0.318,0.383 -0.111,-0.485 -0.462,-0.183 0.428,-0.255 z m 7.318,8.374 0.095,-0.491 -0.348,-0.355 0.494,-0.059 0.23,-0.441 0.209,0.453 0.491,0.082 -0.364,0.34 0.071,0.49 -0.433,-0.242 z M 22.492,7.806 22.021,7.969 21.888,8.448 21.589,8.05 21.092,8.071 21.379,7.665 21.205,7.198 21.68,7.343 22.07,7.035 22.077,7.533 Z"
     id="path12"
     inkscape:connector-curvature="0"
     style="fill:#f8dc15" />
</svg>
