<?xml version="1.0" encoding="UTF-8" standalone="no"?>
<svg
   xmlns:dc="http://purl.org/dc/elements/1.1/"
   xmlns:cc="http://creativecommons.org/ns#"
   xmlns:rdf="http://www.w3.org/1999/02/22-rdf-syntax-ns#"
   xmlns:svg="http://www.w3.org/2000/svg"
   xmlns="http://www.w3.org/2000/svg"
   xmlns:sodipodi="http://sodipodi.sourceforge.net/DTD/sodipodi-0.dtd"
   xmlns:inkscape="http://www.inkscape.org/namespaces/inkscape"
   viewBox="0 0 36 26"
   id="svg2"
   version="1.1"
   inkscape:version="0.91 r13725"
   sodipodi:docname="1f1eb-1f1f0.svg"
   width="36"
   height="26">
  <metadata
     id="metadata48">
    <rdf:RDF>
      <cc:Work
         rdf:about="">
        <dc:format>image/svg+xml</dc:format>
        <dc:type
           rdf:resource="http://purl.org/dc/dcmitype/StillImage" />
      </cc:Work>
    </rdf:RDF>
  </metadata>
  <defs
     id="defs46" />
  <sodipodi:namedview
     pagecolor="#ffffff"
     bordercolor="#666666"
     borderopacity="1"
     objecttolerance="10"
     gridtolerance="10"
     guidetolerance="10"
     inkscape:pageopacity="0"
     inkscape:pageshadow="2"
     inkscape:window-width="640"
     inkscape:window-height="480"
     id="namedview44"
     showgrid="false"
     inkscape:zoom="6.5555556"
     inkscape:cx="18"
     inkscape:cy="13"
     inkscape:window-x="0"
     inkscape:window-y="0"
     inkscape:window-maximized="0"
     inkscape:current-layer="svg2" />
  <path
     d="M 32,0 4,0 C 3.795,0 3.593,0.015 3.396,0.045 L 3.392,1.799 0.662,1.795 C 0.244,2.427 0,3.185 0,4 l 0,18 c 0,2.209 1.791,4 4,4 l 28,0 c 2.209,0 4,-1.791 4,-4 L 36,4 C 36,1.791 34.209,0 32,0 Z"
     id="path4"
     inkscape:connector-curvature="0"
     style="fill:#00247d" />
  <path
     d="m 23.278,17.656 c 0.276,-0.516 0.468,-1.031 0.692,-1.188 0.225,-0.156 1.484,-0.031 1.729,0.25 0.245,0.281 0.12,1.734 -0.364,2.547 -0.484,0.812 -1.387,1.125 -1.725,1.062 -0.338,-0.063 -0.557,-0.672 -0.619,-0.891 -0.062,-0.219 0.144,-0.297 0.619,-0.156 0.475,0.141 1.178,-1.062 1.162,-1.5 -0.406,-0.297 -0.762,-0.062 -0.92,0.297 -0.157,0.361 -0.574,-0.421 -0.574,-0.421 z"
     id="path6"
     inkscape:connector-curvature="0"
     style="fill:#ba6747" />
  <path
     d="m 22.648,18.703 c 0.066,0.291 0.338,0.982 0.63,1.366 -0.142,-0.852 0.495,-0.585 0.448,-0.241 0.219,0.062 -0.059,-0.484 -0.115,-0.797 -0.057,-0.312 -0.01,-0.922 -0.525,-0.891 -0.516,0.032 -0.485,0.354 -0.438,0.563 z"
     id="path8"
     inkscape:connector-curvature="0"
     style="fill:#d7a896" />
  <path
     d="m 32.612,17.656 c -0.276,-0.516 -0.468,-1.031 -0.692,-1.188 -0.225,-0.156 -1.484,-0.031 -1.73,0.25 -0.245,0.281 -0.12,1.734 0.364,2.547 0.484,0.812 1.387,1.125 1.725,1.062 0.338,-0.062 0.549,-0.672 0.611,-0.891 0.062,-0.219 -0.144,-0.297 -0.619,-0.156 -0.475,0.141 -1.17,-1.062 -1.154,-1.5 0.406,-0.297 0.762,-0.062 0.92,0.297 0.158,0.361 0.575,-0.421 0.575,-0.421 z"
     id="path10"
     inkscape:connector-curvature="0"
     style="fill:#ba6747" />
  <path
     d="m 32.909,18.453 c 0.073,-0.312 -0.297,-0.797 -0.531,-1.263 -0.954,1.792 -3.47,2.025 -4.433,2.028 -0.963,-0.003 -3.478,-0.236 -4.433,-2.028 -0.234,0.466 -0.604,0.95 -0.531,1.263 0.073,0.312 2.337,1.938 4.948,1.951 l 0,0.002 0.016,-10e-4 0.016,10e-4 0,-0.002 c 2.611,-0.013 4.875,-1.639 4.948,-1.951 z"
     id="path12"
     inkscape:connector-curvature="0"
     style="fill:#e9cfc6" />
  <path
     d="m 33.242,18.703 c -0.066,0.291 -0.338,0.982 -0.63,1.366 0.142,-0.852 -0.495,-0.585 -0.448,-0.241 -0.219,0.062 0.059,-0.484 0.115,-0.797 0.057,-0.312 0.01,-0.922 0.525,-0.891 0.516,0.032 0.486,0.354 0.438,0.563 z"
     id="path14"
     inkscape:connector-curvature="0"
     style="fill:#d7a896" />
  <path
     d="m 27.958,5.646 -4.688,0 0,6.5 c 0,5.708 4.688,6.958 4.688,6.958 0,0 4.688,-1.25 4.688,-6.958 l 0,-6.5 -4.688,0 z"
     id="path16"
     inkscape:connector-curvature="0"
     style="fill:#ffffff" />
  <path
     d="m 27.957,18.703 c -0.517,-0.155 -4.354,-1.481 -4.354,-6.55 l 0,-6.113 8.709,0 0,6.113 c 0,5.022 -3.872,6.398 -4.355,6.55 z"
     id="path18"
     inkscape:connector-curvature="0"
     style="fill:#0072c4" />
  <path
     d="M 26.094,11.688 C 26.203,11.25 26.282,10.641 26.016,10.547 25.75,10.453 25.28,10.172 25.124,9.672 24.969,9.172 25.047,8.016 24.906,7.938 24.765,7.86 24.344,8.047 24.094,7.735 23.844,7.423 24,7.312 24.172,7.203 24.344,7.094 24.828,6.844 24.797,6.75 24.766,6.656 24.828,6.507 25.124,6.406 c 0.548,-0.188 0.985,0.297 1.157,0.484 0.172,0.188 0.625,0.438 0.828,0.453 0.203,0.016 2.656,0.047 2.938,0.078 0.281,0.031 1,0.219 0.938,1.078 -0.062,0.859 -0.184,1.688 -0.303,1.844 -0.119,0.156 -0.197,0.203 -0.197,0.203 0,0 0.125,0.688 0.109,0.812 -0.016,0.125 -0.234,0.172 -0.25,-0.047 C 30.328,11.092 30.25,10.577 30.25,10.577 L 29.828,10.5 c 0,0 0.016,0.75 -0.125,0.969 -0.141,0.219 -0.5,0.078 -0.406,-0.078 0.094,-0.156 0.141,-0.297 0.141,-0.484 0,-0.187 -0.047,-0.469 -0.141,-0.5 -0.094,-0.031 -0.562,0.156 -0.906,0.156 -0.344,0 -1.109,-0.219 -1.25,-0.094 -0.141,0.125 -0.328,0.766 -0.422,1.125 -0.094,0.359 -0.25,0.141 -0.234,-0.031 0.016,-0.172 0.078,-0.75 -0.016,-0.656 -0.094,0.094 -0.062,0.531 -0.125,0.672 -0.063,0.14 -0.25,0.109 -0.25,0.109 z"
     id="path20"
     inkscape:connector-curvature="0"
     style="fill:#ffffff" />
  <path
     d="m 24.984,10.906 c 0,0 0.203,1.166 0.969,1.672 0.766,0.506 3.979,0.375 4.531,-0.016 0.553,-0.391 1.062,-1.344 1.062,-1.344 0,0 -0.453,0 -0.609,-0.172 -0.453,0.25 -0.719,0.141 -0.812,-0.016 -0.359,0.359 -0.328,0.141 -0.375,0.031 -0.312,0.359 -0.766,0.141 -0.906,0.016 -0.312,0.203 -0.781,0.078 -0.875,-0.047 -0.359,0.312 -0.891,0.234 -1,0.094 -0.234,0.391 -0.578,0.25 -0.766,0.125 -0.266,0.25 -0.375,-0.031 -0.469,-0.203 -0.218,0.376 -0.578,0.11 -0.75,-0.14 z"
     id="path22"
     inkscape:connector-curvature="0"
     style="fill:#015121" />
  <path
     d="m 23.422,12.375 c 0,0 0.484,0.062 0.859,-0.281 0.375,-0.344 1.016,-0.516 1.484,0 0.469,0.516 1,0.5 1.406,0.078 0.406,-0.422 1.016,-0.622 1.594,-0.045 0.578,0.577 1.078,0.33 1.422,0 0.344,-0.33 1.062,-0.545 1.531,0 0.469,0.545 0.797,0.249 0.797,0.249 l -0.203,1.438 c 0,0 -0.141,0.031 -0.578,-0.344 -0.438,-0.375 -1.047,-0.516 -1.484,-0.047 -0.438,0.469 -1.094,0.484 -1.562,0.031 -0.469,-0.453 -1.016,-0.406 -1.422,-0.047 -0.406,0.359 -1.109,0.531 -1.672,0 -0.562,-0.531 -1.047,-0.266 -1.328,0.016 -0.281,0.281 -0.662,0.391 -0.662,0.391 l -0.182,-1.439 z m 0.481,2.565 c 0.124,-0.042 0.257,-0.11 0.378,-0.222 0.375,-0.344 1.016,-0.516 1.484,0 0.469,0.516 1,0.5 1.406,0.078 0.406,-0.422 1.016,-0.622 1.594,-0.045 0.578,0.576 1.078,0.329 1.422,0 0.344,-0.33 1.062,-0.546 1.531,0 0.094,0.108 0.182,0.183 0.263,0.234 0.081,0.311 -0.359,1.018 -0.419,0.979 -0.415,-0.272 -0.93,-0.329 -1.312,0.081 -0.438,0.469 -1.094,0.484 -1.562,0.031 -0.469,-0.453 -1.016,-0.406 -1.422,-0.047 -0.406,0.359 -1.109,0.531 -1.672,0 -0.486,-0.46 -0.915,-0.322 -1.203,-0.095 -0.045,0.038 -0.746,-0.905 -0.488,-0.994 z m 1.221,2.049 c 0.223,0.014 0.447,0.109 0.642,0.323 0.469,0.516 1,0.5 1.406,0.078 0.406,-0.422 1.016,-0.622 1.594,-0.045 0.578,0.576 1.078,0.329 1.422,0 0.125,-0.12 0.3,-0.226 0.494,-0.284 -0.644,0.924 -2.479,1.861 -2.724,1.86 -0.248,0 -2.239,-0.874 -2.834,-1.932 z"
     id="path24"
     inkscape:connector-curvature="0"
     style="fill:#ffffff" />
  <path
     d="m 24.703,7.094 c 0.078,-0.172 0.342,-0.125 0.421,0 0.079,0.125 -0.499,0.172 -0.421,0 z"
     id="path26"
     inkscape:connector-curvature="0" />
  <path
     d="m 23.846,14.719 c -0.095,0.115 1.201,0.682 1.201,0.682 0,0 0.115,0.615 0.219,0.537 0.104,-0.078 0.547,0.007 0.547,0.007 0,0 0.106,1.837 2.156,1.837 2.05,0 2.601,-1.963 2.601,-1.963 0,0 0.74,0.009 0.827,0.054 0.087,0.045 -0.178,-0.243 -0.068,-0.472 0.109,-0.229 0.375,-0.494 0.219,-0.557 -0.156,-0.062 -1.812,0.391 -1.812,0.391 0,0 0.031,1.484 -1.766,1.484 -1.797,0 -1.562,-0.969 -1.562,-0.969 0,0 -2.416,-1.21 -2.562,-1.031 z"
     id="path28"
     inkscape:connector-curvature="0"
     style="fill:#dd8b59" />
  <path
     d="m 26.484,16.322 c 0,0.048 -0.038,0.086 -0.086,0.086 -0.048,0 -0.086,-0.038 -0.086,-0.086 l 0,-3.955 c 0,-0.047 0.038,-0.086 0.086,-0.086 0.048,0 0.086,0.038 0.086,0.086 l 0,3.955 z m 1.485,0.483 c 0,0.039 -0.031,0.07 -0.07,0.07 -0.039,0 -0.07,-0.031 -0.07,-0.07 l 0,-4.719 c 0,-0.039 0.031,-0.07 0.07,-0.07 0.039,0 0.07,0.031 0.07,0.07 l 0,4.719 z m 1.547,-0.258 c 0,0.043 -0.035,0.078 -0.078,0.078 -0.043,0 -0.078,-0.035 -0.078,-0.078 l 0,-4.188 c 0,-0.043 0.035,-0.078 0.078,-0.078 0.043,0 0.078,0.035 0.078,0.078 l 0,4.188 z"
     id="path30"
     inkscape:connector-curvature="0"
     style="fill:#dd8b59" />
  <path
     d="m 25.875,13 c 0,0 0.141,0.281 0.609,0.156 0.469,-0.125 0.484,-0.516 0.484,-0.516 L 25.875,13 Z m 2.578,-0.625 -1.062,0.266 c 0,0 0.109,0.347 0.508,0.267 0.398,-0.08 0.554,-0.533 0.554,-0.533 z m 0.469,0.5 c 0,0 0.25,0.297 0.594,0.188 0.344,-0.109 0.562,-0.516 0.562,-0.516 l -1.156,0.328 z m -1.797,0.313 -1.34,0.368 c 0,0 -0.129,0.24 -0.082,0.49 0.047,0.25 0.172,0.484 0.172,0.484 0,0 0.125,-0.312 0.438,-0.375 0.313,-0.063 0.531,0.188 0.531,0.188 0,0 -0.12,-0.572 0.281,-1.155 z m 0.266,0 c 0,0 -0.273,0.155 -0.266,0.625 0.004,0.257 0.266,0.581 0.266,0.581 0,0 0.141,-0.253 0.438,-0.347 0.297,-0.094 0.625,0.172 0.625,0.172 0,0 -0.123,-0.379 -0.078,-0.672 0.045,-0.293 0.25,-0.638 0.25,-0.638 l -1.235,0.279 z m 1.437,0.234 c 0,0 -0.094,0.204 -0.094,0.438 0,0.234 0.188,0.671 0.188,0.671 0,0 0.094,-0.328 0.438,-0.406 0.344,-0.078 0.531,0.156 0.531,0.156 0,0 -0.115,-0.231 -0.065,-0.569 0.05,-0.337 0.394,-0.625 0.394,-0.625 l -1.392,0.335 z m -1.937,1.031 -1.171,0.219 c 0,0 0.14,0.375 0.585,0.328 0.445,-0.047 0.586,-0.547 0.586,-0.547 z m 1.625,-0.059 c 0,0 -1.125,0.061 -1.125,0.138 0,0.076 0.109,0.359 0.484,0.297 0.375,-0.062 0.641,-0.435 0.641,-0.435 z m 1.453,0.059 -1.109,0.248 c 0,0 0.156,0.283 0.555,0.205 0.397,-0.078 0.554,-0.453 0.554,-0.453 z"
     id="path32"
     inkscape:connector-curvature="0"
     style="fill:#fecf3d" />
  <path
     d="m 26.312,12.367 -0.828,0.274 0.828,0.088 z m 1.578,-0.267 -0.828,0.274 0.828,0.088 z m 1.563,0.181 -0.828,0.274 0.828,0.089 z"
     id="path34"
     inkscape:connector-curvature="0"
     style="fill:#ff0100" />
  <path
     d="M 19,13 19,0 4,0 C 3.68,0 3.396,0.045 3.396,0.045 L 3.392,1.799 0.662,1.795 C 0.662,1.795 0.62,1.854 0.535,2 0.195,2.589 0,3.272 0,4 l 0,9 19,0 z"
     id="path36"
     inkscape:connector-curvature="0"
     style="fill:#00247d" />
  <path
     d="M 19,0 16.669,0 12,3.269 12,0 7,0 7,2.569 3.396,0.045 C 2.782,0.139 2.206,0.37 1.724,0.71 L 6.426,4 4.69,4 0.967,1.391 C 0.857,1.52 0.756,1.653 0.662,1.795 L 3.813,4 0,4 0,9 3.885,9 0,11.766 0,13 3.332,13 7,10.432 7,13 12,13 12,9.731 16.668,13 19,13 19,10.971 16.185,9 19,9 19,4 16.186,4 19,2.029 19,0 Z"
     id="path38"
     inkscape:connector-curvature="0"
     style="fill:#eeeeee" />
  <path
     d="m 11,0 -3,0 0,5 -8,0 0,3 8,0 0,5 3,0 0,-5 8,0 0,-3 -8,0 z"
     id="path40"
     inkscape:connector-curvature="0"
     style="fill:#cf1b2b" />
  <path
     d="M 19,0 17.539,0 12,3.879 12,4 13.571,4 19,0.198 Z M 1.724,0.71 C 1.443,0.905 1.19,1.133 0.967,1.391 L 4.69,4 6.425,4 1.724,0.71 Z M 6.437,9 0.734,13 2.461,13 7,9.822 7,9 Z M 19,12.802 19,11.582 15.313,9 13.57,9 Z"
     id="path42"
     inkscape:connector-curvature="0"
     style="fill:#cf1b2b" />
</svg>
