<?xml version="1.0" encoding="UTF-8" standalone="no"?>
<svg
   xmlns:dc="http://purl.org/dc/elements/1.1/"
   xmlns:cc="http://creativecommons.org/ns#"
   xmlns:rdf="http://www.w3.org/1999/02/22-rdf-syntax-ns#"
   xmlns:svg="http://www.w3.org/2000/svg"
   xmlns="http://www.w3.org/2000/svg"
   xmlns:sodipodi="http://sodipodi.sourceforge.net/DTD/sodipodi-0.dtd"
   xmlns:inkscape="http://www.inkscape.org/namespaces/inkscape"
   viewBox="0 0 36 26"
   id="svg2"
   version="1.1"
   inkscape:version="0.91 r13725"
   sodipodi:docname="1f1ea-1f1fa.svg"
   width="36"
   height="26">
  <metadata
     id="metadata12">
    <rdf:RDF>
      <cc:Work
         rdf:about="">
        <dc:format>image/svg+xml</dc:format>
        <dc:type
           rdf:resource="http://purl.org/dc/dcmitype/StillImage" />
      </cc:Work>
    </rdf:RDF>
  </metadata>
  <defs
     id="defs10" />
  <sodipodi:namedview
     pagecolor="#ffffff"
     bordercolor="#666666"
     borderopacity="1"
     objecttolerance="10"
     gridtolerance="10"
     guidetolerance="10"
     inkscape:pageopacity="0"
     inkscape:pageshadow="2"
     inkscape:window-width="640"
     inkscape:window-height="480"
     id="namedview8"
     showgrid="false"
     inkscape:zoom="6.5555556"
     inkscape:cx="18"
     inkscape:cy="13"
     inkscape:window-x="0"
     inkscape:window-y="0"
     inkscape:window-maximized="0"
     inkscape:current-layer="svg2" />
  <path
     d="M 32,0 4,0 C 1.791,0 0,1.791 0,4 l 0,18 c 0,2.209 1.791,4 4,4 l 28,0 c 2.209,0 4,-1.791 4,-4 L 36,4 C 36,1.791 34.209,0 32,0 Z"
     id="path4"
     inkscape:connector-curvature="0"
     style="fill:#003399" />
  <path
     d="m 18.539,4.705 0.849,-0.617 -1.049,0 -0.325,-0.998 -0.324,0.998 -1.049,0 0.849,0.617 -0.325,0.998 0.849,-0.617 0.849,0.617 z m 0,17.333 0.849,-0.617 -1.049,0 -0.325,-0.998 -0.324,0.998 -1.049,0 0.849,0.617 -0.325,0.998 0.849,-0.617 0.849,0.617 z m -8.666,-8.667 0.849,-0.617 -1.05,0 -0.324,-0.998 -0.325,0.998 -1.049,0 0.849,0.617 -0.324,0.998 0.849,-0.617 0.849,0.617 z m 1.107,-4.285 0.849,-0.617 -1.05,0 -0.324,-0.998 -0.324,0.998 -1.05,0 0.849,0.617 -0.324,0.998 0.849,-0.617 0.849,0.617 z m 0,8.619 0.849,-0.617 -1.05,0 -0.324,-0.998 -0.324,0.998 -1.05,0 0.849,0.617 -0.324,0.998 0.849,-0.617 0.849,0.617 z m 3.226,-11.839 0.849,-0.617 -1.05,0 -0.324,-0.998 -0.324,0.998 -1.05,0 0.849,0.617 -0.324,0.998 0.849,-0.617 0.849,0.617 z m 0,15.067 0.849,-0.617 -1.05,0 -0.324,-0.998 -0.324,0.998 -1.05,0 0.849,0.617 -0.324,0.998 0.849,-0.616 0.849,0.616 z m 11.921,-7.562 -0.849,-0.617 1.05,0 0.324,-0.998 0.325,0.998 1.049,0 -0.849,0.617 0.324,0.998 -0.849,-0.617 -0.849,0.617 z M 25.02,9.086 24.171,8.469 l 1.05,0 0.324,-0.998 0.324,0.998 1.05,0 -0.849,0.617 0.324,0.998 -0.849,-0.617 -0.849,0.617 z m 0,8.619 -0.849,-0.617 1.05,0 0.324,-0.998 0.324,0.998 1.05,0 -0.849,0.617 0.324,0.998 -0.849,-0.617 -0.849,0.617 z M 21.794,5.866 20.945,5.249 l 1.05,0 0.324,-0.998 0.324,0.998 1.05,0 -0.849,0.617 0.324,0.998 -0.849,-0.617 -0.849,0.617 z m 0,15.067 -0.849,-0.617 1.05,0 0.324,-0.998 0.324,0.998 1.05,0 -0.849,0.617 0.324,0.998 -0.849,-0.616 -0.849,0.616 z"
     id="path6"
     inkscape:connector-curvature="0"
     style="fill:#ffcc00" />
</svg>
