<?xml version="1.0" encoding="UTF-8" standalone="no"?>
<svg
   xmlns:dc="http://purl.org/dc/elements/1.1/"
   xmlns:cc="http://creativecommons.org/ns#"
   xmlns:rdf="http://www.w3.org/1999/02/22-rdf-syntax-ns#"
   xmlns:svg="http://www.w3.org/2000/svg"
   xmlns="http://www.w3.org/2000/svg"
   xmlns:sodipodi="http://sodipodi.sourceforge.net/DTD/sodipodi-0.dtd"
   xmlns:inkscape="http://www.inkscape.org/namespaces/inkscape"
   viewBox="0 0 36 26"
   id="svg2"
   version="1.1"
   inkscape:version="0.91 r13725"
   sodipodi:docname="1f1e6-1f1f1.svg"
   width="36"
   height="26">
  <metadata
     id="metadata14">
    <rdf:RDF>
      <cc:Work
         rdf:about="">
        <dc:format>image/svg+xml</dc:format>
        <dc:type
           rdf:resource="http://purl.org/dc/dcmitype/StillImage" />
      </cc:Work>
    </rdf:RDF>
  </metadata>
  <defs
     id="defs12" />
  <sodipodi:namedview
     pagecolor="#ffffff"
     bordercolor="#666666"
     borderopacity="1"
     objecttolerance="10"
     gridtolerance="10"
     guidetolerance="10"
     inkscape:pageopacity="0"
     inkscape:pageshadow="2"
     inkscape:window-width="640"
     inkscape:window-height="480"
     id="namedview10"
     showgrid="false"
     inkscape:zoom="6.5555556"
     inkscape:cx="18"
     inkscape:cy="13"
     inkscape:window-x="0"
     inkscape:window-y="0"
     inkscape:window-maximized="0"
     inkscape:current-layer="svg2" />
  <path
     d="M 32,0 4,0 C 1.791,0 0,1.791 0,4 l 0,18 c 0,2.209 1.791,4 4,4 l 28,0 c 2.209,0 4,-1.791 4,-4 L 36,4 C 36,1.791 34.209,0 32,0 Z"
     id="path4"
     inkscape:connector-curvature="0"
     style="fill:#e41e20" />
  <path
     d="m 25.335,16.202 c -0.082,-0.012 -0.141,-0.051 -0.199,-0.105 -0.161,-0.151 -0.333,-0.162 -0.522,-0.047 -0.064,0.039 -0.122,0.085 -0.174,0.142 -0.032,0.035 -0.067,0.049 -0.114,0.05 l -0.777,0.021 c -0.02,10e-4 -0.045,0.013 -0.059,-0.016 0.116,-0.112 0.237,-0.222 0.352,-0.335 0.058,-0.058 0.112,-0.074 0.196,-0.054 0.255,0.062 0.446,-0.019 0.548,-0.224 0.059,-0.117 0.152,-0.181 0.271,-0.213 0.053,-0.014 0.107,-0.019 0.171,-0.032 -0.154,-0.147 -0.319,-0.146 -0.492,-0.077 -0.052,0.021 -0.095,0.03 -0.15,0.01 -0.241,-0.092 -0.352,-0.04 -0.445,0.199 -0.018,0.045 -0.035,0.09 -0.081,0.119 -0.24,0.157 -0.479,0.316 -0.718,0.478 -0.041,0.029 -0.08,0.035 -0.13,0.02 -0.325,-0.088 -0.652,-0.17 -0.978,-0.256 -0.207,-0.054 -0.413,-0.109 -0.645,-0.173 0.127,-0.126 0.241,-0.235 0.353,-0.347 0.091,-0.091 0.065,-0.19 -0.059,-0.226 -0.102,-0.029 -0.205,-0.05 -0.309,-0.076 -0.812,-0.196 -1.326,-0.708 -1.574,-1.498 -0.028,-0.088 -0.045,-0.175 -0.019,-0.267 0.019,-0.061 0.053,-0.108 0.119,-0.119 0.062,-0.01 0.11,0.025 0.14,0.074 0.031,0.05 0.055,0.105 0.077,0.159 0.145,0.347 0.336,0.656 0.648,0.879 0.079,0.057 0.162,0.077 0.255,0.068 0.078,-0.007 0.166,-0.016 0.195,-0.102 0.028,-0.085 -0.038,-0.142 -0.101,-0.184 -0.272,-0.189 -0.411,-0.46 -0.484,-0.774 -0.035,-0.145 0.034,-0.289 0.162,-0.324 0.117,-0.032 0.238,0.052 0.283,0.198 0.055,0.179 0.103,0.36 0.168,0.535 0.154,0.418 0.438,0.722 0.846,0.907 0.15,0.069 0.333,0.023 0.436,-0.095 0.079,-0.089 0.079,-0.19 -10e-4,-0.278 -0.049,-0.054 -0.112,-0.088 -0.179,-0.116 -0.223,-0.096 -0.429,-0.22 -0.578,-0.418 -0.164,-0.22 -0.215,-0.468 -0.171,-0.734 0.022,-0.138 0.102,-0.169 0.224,-0.106 0.057,0.028 0.102,0.072 0.145,0.119 0.49,0.539 0.977,1.081 1.499,1.587 0.269,0.263 0.604,0.374 0.979,0.3 0.231,-0.045 0.443,-0.138 0.569,-0.355 0.054,-0.093 0.085,-0.194 0.017,-0.292 -0.068,-0.097 -0.173,-0.105 -0.279,-0.094 -0.507,0.06 -0.959,-0.076 -1.354,-0.393 -0.373,-0.3 -0.651,-0.678 -0.899,-1.082 -0.061,-0.096 -0.097,-0.205 -0.096,-0.32 0.003,-0.098 0.047,-0.122 0.134,-0.076 0.062,0.032 0.108,0.081 0.151,0.136 0.277,0.345 0.605,0.629 0.998,0.836 0.31,0.164 0.634,0.266 0.989,0.222 0.261,-0.032 0.382,-0.118 0.431,-0.442 0.033,-0.22 -0.077,-0.309 -0.287,-0.245 -0.443,0.135 -0.863,0.071 -1.263,-0.153 -0.385,-0.217 -0.686,-0.53 -0.953,-0.874 -0.077,-0.1 -0.106,-0.226 -0.091,-0.355 0.011,-0.083 0.062,-0.119 0.146,-0.109 0.075,0.008 0.133,0.048 0.189,0.094 0.31,0.25 0.638,0.471 1.003,0.631 0.254,0.112 0.513,0.203 0.797,0.158 0.265,-0.041 0.462,-0.272 0.443,-0.52 -0.009,-0.144 -0.095,-0.236 -0.237,-0.254 -0.083,-0.009 -0.162,0.005 -0.243,0.014 -0.413,0.046 -0.802,-0.015 -1.155,-0.248 -0.264,-0.175 -0.506,-0.377 -0.744,-0.584 -0.021,-0.018 -0.04,-0.04 -0.054,-0.064 -0.054,-0.082 -0.064,-0.191 -0.016,-0.226 0.073,-0.055 0.137,-0.003 0.195,0.034 0.323,0.203 0.669,0.347 1.041,0.431 0.286,0.065 0.572,0.103 0.862,0.029 0.198,-0.05 0.32,-0.176 0.357,-0.378 0.041,-0.222 -0.108,-0.375 -0.331,-0.341 -0.071,0.012 -0.14,0.032 -0.203,0.067 -0.261,0.147 -0.535,0.171 -0.824,0.097 C 23.452,10.142 23.197,10.006 22.95,9.852 22.825,9.775 22.694,9.706 22.591,9.599 22.508,9.511 22.499,9.403 22.558,9.327 c 0.057,-0.072 0.139,-0.08 0.255,-0.021 0.142,0.072 0.284,0.142 0.435,0.196 0.357,0.129 0.72,0.206 1.102,0.143 C 24.751,9.579 25.046,9.293 25.113,8.909 25.124,8.855 25.124,8.804 25.109,8.751 25.076,8.631 24.988,8.578 24.867,8.606 24.772,8.628 24.699,8.684 24.626,8.744 24.259,9.05 23.843,9.138 23.381,9.013 23.167,8.956 22.977,8.855 22.789,8.739 22.694,8.681 22.614,8.62 22.58,8.512 22.544,8.395 22.593,8.328 22.716,8.329 c 0.046,0 0.092,0.006 0.139,0.015 C 23.341,8.441 23.828,8.472 24.31,8.33 24.695,8.217 24.989,8.004 25.097,7.593 25.134,7.455 25.089,7.298 24.988,7.23 24.895,7.166 24.778,7.182 24.652,7.279 24.593,7.325 24.539,7.378 24.482,7.426 24.002,7.827 23.43,7.846 22.848,7.818 22.697,7.811 22.596,7.666 22.611,7.531 22.625,7.409 22.722,7.345 22.884,7.334 23.609,7.284 24.237,7.002 24.777,6.526 24.965,6.36 25.092,6.146 25.147,5.898 25.192,5.702 25.138,5.525 24.997,5.382 24.878,5.262 24.74,5.274 24.636,5.406 24.603,5.448 24.578,5.495 24.548,5.539 24.104,6.21 23.485,6.621 22.694,6.779 22.609,6.796 22.567,6.775 22.52,6.706 22.437,6.581 22.361,6.554 22.254,6.595 c -0.596,0.232 -1.175,0.506 -1.737,0.81 -0.061,0.033 -0.083,0.079 -0.081,0.144 0.003,0.099 0.031,0.191 0.062,0.282 0.065,0.2 0.05,0.395 -0.022,0.587 -0.094,0.254 -0.312,0.39 -0.594,0.377 C 19.655,8.785 19.453,8.609 19.389,8.36 19.324,8.102 19.344,7.847 19.47,7.613 c 0.216,-0.4 0.532,-0.699 0.954,-0.874 0.318,-0.133 0.658,-0.191 0.992,-0.268 0.181,-0.04 0.363,-0.067 0.518,-0.181 0.05,-0.037 0.094,-0.078 0.103,-0.156 -0.141,0.042 -0.269,0.087 -0.4,0.12 C 21.458,6.299 21.312,6.229 21.179,6.11 21.226,6.098 21.271,6.096 21.316,6.098 21.59,6.112 21.864,6.118 22.136,6.061 22.362,6.014 22.574,5.955 22.71,5.749 22.739,5.703 22.76,5.656 22.759,5.601 22.758,5.476 22.674,5.426 22.565,5.49 22.488,5.535 22.432,5.604 22.377,5.672 22.271,5.801 22.134,5.875 21.976,5.914 21.797,5.96 21.615,5.979 21.429,5.967 21.38,5.964 21.333,5.957 21.279,5.932 21.389,5.817 21.499,5.721 21.637,5.663 21.794,5.598 21.89,5.619 22.009,5.741 22.022,5.754 22.03,5.782 22.058,5.772 22.099,5.543 21.99,5.389 21.761,5.349 21.629,5.327 21.499,5.34 21.368,5.354 21.345,5.356 21.312,5.38 21.3,5.336 21.262,5.215 21.154,5.178 21.052,5.144 20.751,5.045 20.452,5.071 20.163,5.188 19.907,5.291 19.645,5.367 19.373,5.415 19.212,5.444 19.05,5.462 18.879,5.487 19.027,5.63 19.201,5.724 19.367,5.851 19.069,5.977 18.828,6.156 18.64,6.402 l 0.006,0.032 0.454,0 -0.002,0.026 c -0.141,0.051 -0.283,0.097 -0.421,0.153 -0.142,0.058 -0.268,0.141 -0.377,0.265 0.078,0.019 0.147,0.034 0.216,0.052 0.055,0.014 0.066,0.045 0.022,0.084 C 18.34,7.187 18.175,7.393 17.995,7.583 17.949,7.631 17.926,7.61 17.891,7.574 17.714,7.39 17.554,7.188 17.36,7.019 17.304,6.97 17.328,6.94 17.388,6.925 17.453,6.908 17.518,6.894 17.593,6.877 17.375,6.63 17.076,6.559 16.791,6.46 l 0.007,-0.032 0.475,0 C 17.065,6.154 16.822,5.977 16.527,5.85 16.693,5.722 16.87,5.63 17.016,5.48 16.557,5.438 16.125,5.348 15.71,5.18 15.41,5.058 15.103,5.045 14.795,5.158 14.716,5.188 14.634,5.222 14.603,5.309 14.586,5.356 14.566,5.359 14.521,5.353 14.367,5.332 14.211,5.317 14.057,5.366 13.871,5.425 13.786,5.588 13.84,5.781 13.908,5.714 13.968,5.639 14.069,5.628 14.23,5.609 14.528,5.786 14.597,5.94 14.472,5.978 14.343,5.973 14.215,5.962 13.918,5.938 13.642,5.863 13.455,5.603 13.432,5.57 13.401,5.542 13.37,5.518 13.314,5.475 13.253,5.429 13.184,5.479 c -0.067,0.049 -0.059,0.127 -0.038,0.198 0.018,0.058 0.057,0.104 0.097,0.148 0.113,0.122 0.259,0.178 0.417,0.215 0.304,0.071 0.612,0.078 0.922,0.058 0.043,-0.003 0.091,-0.012 0.14,0.017 -0.181,0.154 -0.373,0.188 -0.589,0.109 -0.089,-0.033 -0.177,-0.071 -0.276,-0.088 0.006,0.076 0.05,0.115 0.098,0.151 0.104,0.079 0.226,0.117 0.351,0.146 0.247,0.057 0.492,0.115 0.739,0.168 0.501,0.109 0.912,0.36 1.227,0.768 0.207,0.268 0.301,0.564 0.25,0.902 C 16.48,8.555 16.274,8.783 16.024,8.79 15.692,8.799 15.487,8.665 15.398,8.367 15.343,8.188 15.333,8.006 15.395,7.824 15.427,7.73 15.456,7.634 15.456,7.532 15.455,7.477 15.437,7.436 15.387,7.409 14.816,7.098 14.23,6.822 13.624,6.585 13.56,6.56 13.502,6.572 13.449,6.615 13.407,6.649 13.37,6.688 13.346,6.734 13.321,6.781 13.291,6.789 13.239,6.78 12.64,6.681 12.134,6.405 11.702,5.982 11.542,5.827 11.412,5.649 11.296,5.458 11.164,5.24 10.971,5.237 10.83,5.45 10.729,5.604 10.7,5.772 10.757,5.951 c 0.122,0.381 0.381,0.648 0.713,0.85 0.491,0.298 1.008,0.522 1.597,0.53 0.09,10e-4 0.161,0.051 0.197,0.136 0.036,0.085 0.021,0.166 -0.038,0.237 -0.06,0.073 -0.14,0.115 -0.235,0.116 -0.15,10e-4 -0.3,0.002 -0.45,-0.004 C 12.071,7.796 11.645,7.662 11.3,7.323 11.249,7.273 11.19,7.23 11.121,7.204 10.992,7.157 10.878,7.203 10.816,7.326 10.776,7.406 10.77,7.49 10.79,7.573 10.851,7.816 10.981,8.011 11.194,8.149 11.427,8.3 11.688,8.37 11.96,8.4 12.331,8.442 12.695,8.408 13.059,8.333 13.144,8.316 13.244,8.285 13.307,8.381 13.346,8.44 13.299,8.575 13.222,8.652 13.213,8.661 13.204,8.67 13.193,8.676 13.048,8.76 12.909,8.858 12.753,8.922 12.204,9.149 11.693,9.11 11.232,8.709 11.171,8.655 11.1,8.615 11.019,8.597 10.903,8.571 10.816,8.623 10.783,8.738 c -0.016,0.055 -0.016,0.11 -0.005,0.167 0.079,0.432 0.444,0.73 0.916,0.751 0.34,0.016 0.664,-0.056 0.98,-0.174 0.152,-0.057 0.296,-0.131 0.441,-0.204 0.07,-0.035 0.14,-0.035 0.2,0.022 0.061,0.059 0.066,0.131 0.036,0.207 -0.023,0.059 -0.065,0.108 -0.118,0.143 -0.249,0.172 -0.505,0.334 -0.785,0.454 -0.391,0.169 -0.78,0.214 -1.166,-0.018 -0.06,-0.036 -0.13,-0.045 -0.199,-0.05 -0.191,-0.013 -0.323,0.135 -0.292,0.333 0.033,0.206 0.154,0.337 0.355,0.391 0.171,0.046 0.346,0.049 0.521,0.03 0.505,-0.056 0.97,-0.227 1.398,-0.497 0.019,-0.012 0.037,-0.024 0.057,-0.032 0.042,-0.016 0.084,-0.031 0.124,0.002 0.039,0.032 0.037,0.078 0.029,0.122 -0.012,0.077 -0.055,0.137 -0.113,0.188 -0.177,0.154 -0.359,0.302 -0.544,0.444 -0.366,0.281 -0.774,0.425 -1.24,0.381 -0.084,-0.008 -0.168,-0.018 -0.252,-0.024 -0.218,-0.019 -0.346,0.108 -0.327,0.326 0.019,0.219 0.206,0.409 0.438,0.449 0.174,0.031 0.343,0.001 0.508,-0.049 0.486,-0.149 0.899,-0.428 1.293,-0.738 0.048,-0.038 0.095,-0.073 0.153,-0.089 0.114,-0.033 0.187,0.015 0.189,0.135 0.002,0.121 -0.025,0.239 -0.102,0.334 -0.21,0.269 -0.445,0.516 -0.722,0.718 -0.335,0.245 -0.703,0.387 -1.125,0.364 -0.142,-0.008 -0.277,-0.044 -0.413,-0.08 -0.116,-0.031 -0.203,0.014 -0.232,0.113 -0.065,0.22 0.1,0.514 0.322,0.567 0.287,0.071 0.566,0.02 0.834,-0.085 0.507,-0.196 0.914,-0.531 1.255,-0.949 0.046,-0.057 0.093,-0.111 0.159,-0.143 0.082,-0.043 0.126,-0.017 0.127,0.075 0.002,0.126 -0.04,0.241 -0.105,0.345 -0.216,0.345 -0.456,0.672 -0.757,0.949 -0.385,0.355 -0.833,0.543 -1.362,0.518 -0.069,-0.003 -0.137,-0.017 -0.205,-0.013 -0.187,0.008 -0.275,0.139 -0.215,0.314 0.03,0.091 0.081,0.168 0.159,0.227 0.49,0.376 1.071,0.242 1.413,-0.089 0.526,-0.508 1.014,-1.053 1.506,-1.593 0.044,-0.049 0.091,-0.095 0.15,-0.125 0.119,-0.059 0.196,-0.027 0.22,0.103 0.036,0.194 0.014,0.386 -0.069,0.567 -0.136,0.297 -0.39,0.462 -0.676,0.588 -0.06,0.026 -0.119,0.055 -0.167,0.102 -0.101,0.098 -0.103,0.216 0,0.31 0.124,0.112 0.268,0.152 0.425,0.079 0.403,-0.189 0.688,-0.491 0.841,-0.91 0.065,-0.179 0.113,-0.363 0.17,-0.545 0.042,-0.132 0.164,-0.214 0.275,-0.185 0.118,0.028 0.202,0.163 0.173,0.293 -0.068,0.31 -0.188,0.59 -0.461,0.78 -0.041,0.026 -0.079,0.06 -0.107,0.102 -0.054,0.079 -0.04,0.147 0.049,0.182 0.121,0.048 0.243,0.05 0.358,-0.028 0.325,-0.222 0.52,-0.539 0.668,-0.895 0.023,-0.054 0.047,-0.109 0.078,-0.158 0.031,-0.05 0.08,-0.082 0.142,-0.07 0.062,0.012 0.096,0.057 0.113,0.113 0.027,0.091 0.012,0.18 -0.016,0.268 -0.25,0.798 -0.768,1.311 -1.59,1.505 -0.101,0.023 -0.201,0.047 -0.3,0.074 -0.118,0.035 -0.142,0.134 -0.057,0.221 0.094,0.097 0.19,0.19 0.284,0.287 0.019,0.018 0.047,0.03 0.045,0.067 -0.026,0.01 -0.052,0.018 -0.079,0.024 -0.504,0.133 -1.008,0.264 -1.511,0.399 -0.054,0.014 -0.093,0.009 -0.139,-0.023 -0.204,-0.138 -0.408,-0.277 -0.616,-0.409 -0.095,-0.06 -0.164,-0.13 -0.204,-0.241 -0.059,-0.161 -0.164,-0.222 -0.324,-0.169 -0.125,0.04 -0.229,0.023 -0.348,-0.013 -0.142,-0.044 -0.274,-0.008 -0.389,0.109 0.023,0.005 0.034,0.008 0.046,0.009 0.181,0.016 0.327,0.083 0.411,0.262 0.06,0.126 0.172,0.194 0.313,0.208 0.084,0.009 0.168,0.007 0.25,-0.019 0.053,-0.017 0.092,-0.008 0.133,0.032 0.123,0.12 0.251,0.235 0.376,0.353 0.004,0.004 0.003,0.016 0.002,0.007 -0.247,0 -0.494,-0.003 -0.74,10e-4 -0.103,0.003 -0.178,-0.027 -0.256,-0.099 -0.229,-0.214 -0.469,-0.25 -0.702,0.006 -0.029,0.031 -0.063,0.035 -0.1,0.04 -0.134,0.018 -0.229,0.088 -0.281,0.23 0.188,-0.126 0.344,-0.043 0.5,0.054 0.01,0.008 0.022,0.011 0.034,0.016 0.198,0.081 0.389,0.086 0.565,-0.056 0.021,-0.017 0.044,-0.022 0.069,-0.021 0.301,0.02 0.603,0.037 0.923,0.059 -0.068,0.07 -0.143,0.094 -0.203,0.138 -0.124,0.092 -0.248,0.127 -0.412,0.094 -0.218,-0.047 -0.426,0.017 -0.541,0.227 -0.116,0.215 -0.196,0.444 -0.187,0.695 10e-4,0.017 -0.006,0.037 0.014,0.053 0.027,-0.053 0.05,-0.107 0.08,-0.157 0.075,-0.127 0.165,-0.228 0.337,-0.167 0.031,0.012 0.067,0.009 0.102,0.009 0.205,-0.002 0.335,-0.095 0.375,-0.284 0.017,-0.086 0.061,-0.131 0.132,-0.164 0.051,-0.024 0.1,-0.052 0.151,-0.075 0.16,-0.07 0.328,-0.122 0.472,-0.227 0.031,-0.022 0.058,-0.011 0.088,-0.001 l 0.514,0.174 c 0.03,0.009 0.054,0.021 0.071,0.053 0.144,0.271 0.263,0.329 0.567,0.289 0.108,-0.014 0.212,-0.006 0.31,0.047 0.086,0.046 0.08,0.138 0.099,0.223 0.102,-0.138 0.089,-0.298 -0.037,-0.418 -0.063,-0.062 -0.117,-0.125 -0.162,-0.201 -0.085,-0.146 -0.232,-0.2 -0.387,-0.139 -0.093,0.038 -0.167,0.023 -0.249,-0.016 -0.125,-0.06 -0.244,-0.135 -0.398,-0.184 0.102,-0.032 0.181,-0.059 0.262,-0.08 0.445,-0.121 0.901,-0.199 1.342,-0.34 0.046,-0.014 0.075,0.003 0.108,0.032 0.119,0.105 0.237,0.212 0.359,0.315 0.107,0.087 0.188,0.073 0.263,-0.041 0.043,-0.065 0.085,-0.133 0.127,-0.198 0.169,-0.272 0.309,-0.563 0.49,-0.83 0.175,-0.256 0.369,-0.5 0.628,-0.675 0.237,-0.158 0.457,-0.063 0.515,0.213 0.05,0.242 -0.006,0.471 -0.104,0.692 -0.24,0.546 -0.63,0.952 -1.143,1.248 -0.179,0.103 -0.361,0.149 -0.565,0.11 -0.131,-0.024 -0.261,-0.024 -0.386,0.032 -0.129,0.058 -0.155,0.153 -0.076,0.271 0.072,0.106 0.176,0.162 0.294,0.203 0.329,0.11 0.632,0.101 0.888,-0.17 0.062,-0.066 0.132,-0.123 0.202,-0.182 0.056,-0.046 0.12,-0.051 0.185,-0.017 0.063,0.036 0.089,0.093 0.083,0.165 -0.003,0.049 -0.025,0.09 -0.055,0.126 -0.101,0.12 -0.206,0.235 -0.324,0.338 -0.216,0.188 -0.46,0.31 -0.753,0.314 -0.068,0.001 -0.136,0.021 -0.196,0.057 -0.099,0.054 -0.115,0.138 -0.044,0.224 0.043,0.053 0.099,0.086 0.158,0.114 0.293,0.134 0.566,0.072 0.829,-0.085 0.165,-0.099 0.299,-0.235 0.433,-0.37 0.054,-0.056 0.116,-0.148 0.201,-0.095 0.083,0.051 0.061,0.158 0.035,0.241 -0.049,0.169 -0.12,0.328 -0.226,0.47 -0.107,0.142 -0.247,0.236 -0.42,0.28 -0.085,0.021 -0.173,0.021 -0.261,0.026 -0.146,0.01 -0.201,0.115 -0.13,0.242 0.014,0.025 0.03,0.048 0.049,0.068 0.192,0.217 0.497,0.249 0.726,0.073 0.231,-0.176 0.364,-0.423 0.486,-0.678 0.035,-0.072 0.066,-0.163 0.165,-0.154 0.101,0.009 0.125,0.102 0.15,0.182 0.016,0.048 0.021,0.098 0.02,0.148 -0.006,0.214 -0.072,0.404 -0.191,0.579 -0.107,0.159 -0.243,0.295 -0.387,0.42 -0.041,0.034 -0.047,0.06 -0.017,0.107 0.351,0.527 0.7,1.057 1.047,1.586 0.03,0.046 0.046,0.038 0.07,-0.002 0.065,-0.104 0.13,-0.206 0.198,-0.308 0.279,-0.422 0.557,-0.844 0.839,-1.265 0.038,-0.056 0.035,-0.086 -0.018,-0.129 -0.1,-0.081 -0.188,-0.174 -0.273,-0.272 -0.181,-0.212 -0.297,-0.452 -0.295,-0.738 0,-0.094 0.022,-0.182 0.079,-0.256 0.056,-0.074 0.126,-0.076 0.189,-0.008 0.032,0.036 0.051,0.079 0.071,0.121 0.122,0.255 0.256,0.502 0.49,0.674 0.244,0.179 0.592,0.118 0.753,-0.127 0.091,-0.141 0.033,-0.267 -0.132,-0.265 -0.416,0.006 -0.668,-0.213 -0.819,-0.578 -0.044,-0.105 -0.099,-0.21 -0.087,-0.331 0.004,-0.043 0.006,-0.091 0.05,-0.114 0.049,-0.026 0.093,0.002 0.126,0.033 0.076,0.07 0.147,0.145 0.223,0.215 0.194,0.184 0.406,0.332 0.679,0.372 0.204,0.029 0.393,-0.012 0.555,-0.142 0.126,-0.102 0.106,-0.22 -0.042,-0.279 -0.052,-0.019 -0.108,-0.037 -0.164,-0.038 -0.499,-0.017 -0.808,-0.332 -1.094,-0.685 -0.063,-0.079 -0.045,-0.182 0.021,-0.238 0.068,-0.06 0.155,-0.053 0.236,0.019 0.094,0.082 0.186,0.167 0.282,0.246 0.082,0.067 0.171,0.123 0.281,0.138 0.211,0.03 0.409,-0.011 0.603,-0.094 0.077,-0.033 0.136,-0.086 0.186,-0.151 0.095,-0.126 0.065,-0.227 -0.079,-0.288 -0.127,-0.055 -0.257,-0.048 -0.387,-0.026 -0.189,0.035 -0.367,0.004 -0.53,-0.1 -0.122,-0.08 -0.25,-0.154 -0.366,-0.243 -0.412,-0.311 -0.705,-0.713 -0.866,-1.204 -0.061,-0.186 -0.087,-0.38 -0.019,-0.57 0.073,-0.206 0.249,-0.275 0.444,-0.179 0.067,0.032 0.129,0.076 0.183,0.129 0.189,0.183 0.368,0.374 0.511,0.596 0.21,0.325 0.378,0.675 0.595,0.997 0.09,0.134 0.167,0.144 0.29,0.038 0.113,-0.097 0.227,-0.194 0.338,-0.296 0.038,-0.036 0.073,-0.049 0.124,-0.032 0.315,0.1 0.639,0.169 0.961,0.243 0.205,0.047 0.409,0.098 0.627,0.174 -0.17,0.05 -0.297,0.143 -0.441,0.202 -0.061,0.024 -0.113,0.029 -0.178,0.002 -0.16,-0.065 -0.308,-0.024 -0.396,0.112 -0.057,0.088 -0.119,0.163 -0.192,0.238 -0.115,0.117 -0.119,0.281 -0.024,0.394 0.033,-0.256 0.157,-0.259 0.368,-0.266 0.031,-0.001 0.061,0.008 0.093,0.012 0.236,0.034 0.409,-0.058 0.508,-0.275 0.02,-0.045 0.049,-0.065 0.093,-0.081 0.146,-0.046 0.292,-0.091 0.434,-0.145 0.082,-0.031 0.147,-0.036 0.225,0.021 0.07,0.05 0.155,0.079 0.234,0.114 0.121,0.053 0.243,0.097 0.356,0.166 0.047,0.028 0.077,0.059 0.089,0.121 0.035,0.188 0.139,0.276 0.329,0.303 0.079,0.012 0.157,0.004 0.232,-0.017 0.066,-0.018 0.107,0.006 0.15,0.044 0.092,0.08 0.141,0.187 0.194,0.292 0.01,-0.045 0.01,-0.087 0.01,-0.131 0,-0.16 -0.063,-0.305 -0.109,-0.453 -0.092,-0.289 -0.287,-0.441 -0.586,-0.391 -0.204,0.033 -0.352,-0.027 -0.505,-0.129 -0.044,-0.029 -0.099,-0.045 -0.134,-0.103 0.309,-0.019 0.604,-0.039 0.9,-0.059 0.028,-0.001 0.054,-0.002 0.079,0.017 0.21,0.172 0.436,0.145 0.646,0.019 0.148,-0.09 0.285,-0.109 0.439,-0.039 0.004,0.002 0.01,-0.005 0.019,-0.01 -0.041,-0.091 -0.114,-0.17 -0.232,-0.187 z"
     id="path6"
     inkscape:connector-curvature="0"
     style="clip-rule:evenodd;fill-rule:evenodd" />
  <path
     d="m 20.308,5.618 c 0.086,-0.053 0.183,-0.059 0.28,-0.059 0.09,0 0.18,0.008 0.261,0.055 0.097,0.055 0.099,0.133 0.008,0.198 C 20.733,5.901 20.43,5.904 20.301,5.817 20.212,5.757 20.215,5.674 20.308,5.618 Z M 15.576,5.822 C 15.401,5.907 15.221,5.905 15.045,5.818 15.002,5.797 14.966,5.762 14.967,5.71 c 0.002,-0.054 0.042,-0.082 0.084,-0.103 0.08,-0.04 0.167,-0.05 0.221,-0.048 0.128,0 0.221,0.006 0.305,0.055 0.102,0.06 0.105,0.157 -10e-4,0.208 z"
     id="path8"
     inkscape:connector-curvature="0"
     style="clip-rule:evenodd;fill:#e41e20;fill-rule:evenodd" />
</svg>
