<?xml version="1.0" encoding="UTF-8" standalone="no"?>
<svg
   xmlns:dc="http://purl.org/dc/elements/1.1/"
   xmlns:cc="http://creativecommons.org/ns#"
   xmlns:rdf="http://www.w3.org/1999/02/22-rdf-syntax-ns#"
   xmlns:svg="http://www.w3.org/2000/svg"
   xmlns="http://www.w3.org/2000/svg"
   xmlns:sodipodi="http://sodipodi.sourceforge.net/DTD/sodipodi-0.dtd"
   xmlns:inkscape="http://www.inkscape.org/namespaces/inkscape"
   viewBox="0 0 36 26"
   id="svg2"
   version="1.1"
   inkscape:version="0.91 r13725"
   sodipodi:docname="1f1e9-1f1f2.svg"
   width="36"
   height="26">
  <metadata
     id="metadata42">
    <rdf:RDF>
      <cc:Work
         rdf:about="">
        <dc:format>image/svg+xml</dc:format>
        <dc:type
           rdf:resource="http://purl.org/dc/dcmitype/StillImage" />
      </cc:Work>
    </rdf:RDF>
  </metadata>
  <defs
     id="defs40" />
  <sodipodi:namedview
     pagecolor="#ffffff"
     bordercolor="#666666"
     borderopacity="1"
     objecttolerance="10"
     gridtolerance="10"
     guidetolerance="10"
     inkscape:pageopacity="0"
     inkscape:pageshadow="2"
     inkscape:window-width="640"
     inkscape:window-height="480"
     id="namedview38"
     showgrid="false"
     inkscape:zoom="6.5555556"
     inkscape:cx="18"
     inkscape:cy="13"
     inkscape:window-x="0"
     inkscape:window-y="0"
     inkscape:window-maximized="0"
     inkscape:current-layer="svg2" />
  <path
     d="m 36,22 c 0,2.209 -1.791,4 -4,4 L 4,26 C 1.791,26 0,24.209 0,22 L 0,4 C 0,1.791 1.791,0 4,0 l 28,0 c 2.209,0 4,1.791 4,4 l 0,18 z"
     id="path4"
     inkscape:connector-curvature="0"
     style="fill:#006b3f" />
  <path
     d="m 36,10 -15,0 0,-10 -6,0 0,10 -15,0 0,6 15,0 0,10 6,0 0,-10 15,0 z"
     id="path6"
     inkscape:connector-curvature="0"
     style="fill:#eeeeee" />
  <path
     d="m 15,0 2,0 0,26 -2,0 z"
     id="path8"
     inkscape:connector-curvature="0"
     style="fill:#fcd116" />
  <path
     d="m 0,10 36,0 0,2 -36,0 z"
     id="path10"
     inkscape:connector-curvature="0"
     style="fill:#fcd116" />
  <path
     d="m 17,0 2,0 0,26 -2,0 z"
     id="path12"
     inkscape:connector-curvature="0"
     style="fill:#141414" />
  <path
     d="m 0,12 36,0 0,2 -36,0 z"
     id="path14"
     inkscape:connector-curvature="0"
     style="fill:#141414" />
  <circle
     cx="18"
     cy="13"
     r="6"
     id="circle16"
     style="fill:#dd2e44" />
  <path
     d="m 18,7.64 -0.169,0.524 -0.555,0 0.451,0.325 -0.173,0.524 0.446,-0.325 0.445,0.325 -0.171,-0.528 0.449,-0.32 -0.552,0 z m -3.08,1 0.171,0.523 -0.448,0.326 0.555,-0.001 0.168,0.525 0.169,-0.525 0.552,0.001 -0.448,-0.326 0.175,-0.522 -0.447,0.324 z m -1.904,2.621 0.446,0.322 -0.171,0.527 0.449,-0.327 0.445,0.326 -0.172,-0.525 0.447,-0.323 -0.555,-10e-4 -0.166,-0.525 -0.17,0.526 z m 0,3.239 0.55,-0.002 0.171,0.527 0.171,-0.529 0.552,0.002 -0.447,-0.322 0.172,-0.525 -0.45,0.325 -0.442,-0.327 0.171,0.525 z m 1.904,2.619 0.444,-0.324 0.448,0.326 -0.172,-0.529 0.448,-0.322 -0.552,0.001 -0.17,-0.525 -0.172,0.527 -0.55,-0.003 0.447,0.324 z m 3.08,1 0.169,-0.523 0.554,0 -0.451,-0.326 0.173,-0.524 -0.445,0.326 -0.445,-0.326 0.17,0.527 -0.448,0.321 0.552,0 z m 3.08,-1 -0.172,-0.523 0.448,-0.326 -0.555,0.001 -0.168,-0.525 -0.169,0.525 -0.552,-0.001 0.448,0.326 -0.175,0.523 0.448,-0.326 z m 1.903,-2.621 -0.446,-0.322 0.171,-0.527 -0.449,0.327 -0.444,-0.326 0.171,0.524 -0.446,0.324 0.554,0 0.166,0.525 0.171,-0.525 z m -0.001,-3.238 -0.549,10e-4 -0.171,-0.527 -0.171,0.529 -0.552,-0.003 0.447,0.323 -0.171,0.525 0.449,-0.325 0.442,0.327 -0.171,-0.526 z m -1.903,-2.62 -0.444,0.324 -0.448,-0.325 0.171,0.528 -0.447,0.322 0.552,-0.001 0.17,0.525 0.172,-0.528 0.549,0.005 -0.446,-0.324 z"
     id="path18"
     inkscape:connector-curvature="0"
     style="fill:#006000" />
  <path
     d="M 19.594,15.818 C 19.576,15.681 19.533,15.166 19.525,14.756 19.52,14.48 19.019,14.11 18.688,14.113 c -0.226,-0.462 -0.887,-1.02 -1.331,-0.576 -0.043,0.309 0.034,0.91 0.18,1.14 l 0.678,0.154 c 0.068,-0.043 0.145,-0.144 0.171,-0.23 0.019,-0.006 0.031,-0.024 0.049,-0.032 0.126,0.487 0.377,1.247 0.448,1.429 0.077,0.197 0.189,0.6 0.438,0.67 0.111,0.059 0.266,0.016 0.197,-0.498 0.076,-0.018 0.092,-0.215 0.076,-0.352 z"
     id="path20"
     inkscape:connector-curvature="0"
     style="fill:#00693f" />
  <path
     d="m 18.86,10.76 c 0.013,0.102 0.077,0.206 0.154,0.27 -0.051,0.038 -0.077,0.09 -0.09,0.128 -0.283,0.244 -0.939,1.941 -0.951,2.314 -0.045,0.199 -0.136,0.515 -0.213,0.65 -0.437,-0.392 -0.887,-1.125 -0.812,-1.455 -0.026,-0.004 -0.064,-0.008 -0.107,-0.021 0.009,-0.03 0.025,-0.18 0.03,-0.27 -0.026,0 -0.073,0 -0.112,-0.013 0.009,-0.056 0.026,-0.219 0.026,-0.292 -0.043,-0.013 -0.095,-0.056 -0.133,-0.099 0.029,-0.077 0.107,-0.227 0.146,-0.317 -0.064,-0.008 -0.111,-0.073 -0.133,-0.111 0.056,-0.034 0.129,-0.133 0.158,-0.193 -0.047,-0.039 -0.102,-0.094 -0.111,-0.12 0.06,-0.056 0.236,-0.248 0.313,-0.355 -0.048,0 -0.064,-0.004 -0.104,-0.013 0.064,-0.025 0.138,-0.12 0.224,-0.201 0.147,0.128 0.428,0.105 0.563,0.028 0.244,0.141 0.508,0.161 0.849,0.051 0.066,0.019 0.239,0.045 0.303,0.019 z"
     id="path22"
     inkscape:connector-curvature="0"
     style="fill:#7d76b6" />
  <path
     d="m 19.838,15.428 c 0.051,-1.813 -0.258,-3.472 -0.733,-4.076 -0.476,-0.605 -1.349,-0.47 -1.594,0.051 -0.104,0.219 -0.118,0.741 -0.014,0.965 0.181,0.386 0.875,1.607 1.351,2.07 0.475,0.462 0.809,0.771 0.99,0.99 z"
     id="path24"
     inkscape:connector-curvature="0"
     style="fill:#00693f" />
  <path
     d="m 19.122,14.996 c -0.137,0.016 -0.3,-0.018 -0.429,-0.078 -0.129,-0.061 -0.24,-0.119 -0.377,-0.119 -0.138,0 -0.883,-0.053 -1.003,-0.096 -0.12,-0.043 -0.455,-0.102 -0.592,-0.094 -0.137,0.008 -0.352,0.104 -0.438,0.104 -0.086,0 -0.128,0.068 -0.128,0.137 0,0.068 0.017,0.197 0.119,0.266 0.181,-0.008 0.438,-0.025 0.472,-0.06 0.249,0.068 0.583,0.139 0.789,0.146 0.206,0.008 0.574,0.025 0.712,0.018 0.137,-0.01 0.162,-0.053 0.343,0.008 0.18,0.06 0.42,0.189 0.531,0.223 0.111,0.035 0.18,-0.076 0.205,-0.197 0.028,-0.121 -0.058,-0.268 -0.204,-0.258 z"
     id="path26"
     inkscape:connector-curvature="0"
     style="fill:#ffd420" />
  <path
     d="m 17.279,10.002 c -0.005,0 -0.011,0.006 -0.016,0.006 -0.039,-0.173 -0.219,-0.295 -0.32,-0.29 -0.314,0.083 -0.296,0.663 -0.013,0.862 -0.008,-0.104 0.028,-0.188 0.078,-0.261 0.023,0.07 0.077,0.136 0.218,0.153 0.149,-0.053 0.098,-0.381 0.053,-0.47 z"
     id="path28"
     inkscape:connector-curvature="0"
     style="fill:#ffffff" />
  <path
     d="m 17.146,10.662 c 0.147,0.128 0.428,0.105 0.563,0.028 0.244,0.141 0.508,0.161 0.849,0.051 0.064,0.02 0.237,0.045 0.302,0.02 0.039,-0.039 0.077,-0.064 0.116,-0.09 -0.077,-0.064 -0.154,-0.18 -0.193,-0.295 0,0 0.065,-0.078 0.09,-0.116 C 18.81,10.196 18.681,10.093 18.616,10.054 18.655,10.016 18.693,9.9 18.693,9.9 18.564,9.862 18.436,9.772 18.384,9.72 L 18.397,9.643 C 18.187,9.63 18.196,9.373 17.742,9.296 17.433,9.244 16.97,9.373 16.944,9.72 c 0.172,0.167 0.434,0.39 0.283,0.754 -0.039,0.052 -0.111,0.12 -0.154,0.142 0.026,0.028 0.043,0.032 0.073,0.046 z"
     id="path30"
     inkscape:connector-curvature="0"
     style="fill:#7d76b6" />
  <path
     d="m 18.342,15.219 c -0.086,-0.01 -0.171,-0.104 -0.171,-0.18 0,-0.078 0.008,-0.233 0.154,-0.25 -0.048,-0.082 -0.116,-0.104 -0.182,-0.094 -0.062,-0.075 -0.161,-0.091 -0.256,-0.07 0.003,-0.004 0.005,-0.013 0.009,-0.016 -0.08,-0.065 -0.172,-0.051 -0.252,-0.011 -0.148,-0.087 -0.373,0.022 -0.408,0.294 -0.034,0.266 0.103,0.455 0.3,0.445 l 0,-0.003 c 0.089,0.044 0.216,0.004 0.249,-0.048 l -0.001,-0.019 c 0.082,0.054 0.164,0.055 0.237,0.003 0.026,0.024 0.051,0.05 0.09,0.059 0.112,0.027 0.197,-0.067 0.231,-0.11 z"
     id="path32"
     inkscape:connector-curvature="0"
     style="fill:#ffffff" />
  <path
     d="m 17.562,9.59 c -0.231,0 -0.225,0.347 0,0.347 0.225,0 0.231,-0.347 0,-0.347 z"
     id="path34"
     inkscape:connector-curvature="0"
     style="fill:#ffd420" />
  <path
     d="m 17.562,9.72 c -0.058,0 -0.056,0.086 0,0.086 0.056,0.001 0.058,-0.086 0,-0.086 z"
     id="path36"
     inkscape:connector-curvature="0" />
</svg>
