<?xml version="1.0" encoding="UTF-8" standalone="no"?>
<svg
   xmlns:dc="http://purl.org/dc/elements/1.1/"
   xmlns:cc="http://creativecommons.org/ns#"
   xmlns:rdf="http://www.w3.org/1999/02/22-rdf-syntax-ns#"
   xmlns:svg="http://www.w3.org/2000/svg"
   xmlns="http://www.w3.org/2000/svg"
   xmlns:sodipodi="http://sodipodi.sourceforge.net/DTD/sodipodi-0.dtd"
   xmlns:inkscape="http://www.inkscape.org/namespaces/inkscape"
   viewBox="0 0 36 26"
   id="svg2"
   version="1.1"
   inkscape:version="0.91 r13725"
   sodipodi:docname="1f1ea-1f1e8.svg"
   width="36"
   height="26">
  <metadata
     id="metadata48">
    <rdf:RDF>
      <cc:Work
         rdf:about="">
        <dc:format>image/svg+xml</dc:format>
        <dc:type
           rdf:resource="http://purl.org/dc/dcmitype/StillImage" />
      </cc:Work>
    </rdf:RDF>
  </metadata>
  <defs
     id="defs46" />
  <sodipodi:namedview
     pagecolor="#ffffff"
     bordercolor="#666666"
     borderopacity="1"
     objecttolerance="10"
     gridtolerance="10"
     guidetolerance="10"
     inkscape:pageopacity="0"
     inkscape:pageshadow="2"
     inkscape:window-width="640"
     inkscape:window-height="480"
     id="namedview44"
     showgrid="false"
     inkscape:zoom="6.5555556"
     inkscape:cx="18"
     inkscape:cy="13"
     inkscape:window-x="0"
     inkscape:window-y="0"
     inkscape:window-maximized="0"
     inkscape:current-layer="svg2" />
  <path
     d="m 36,22 c 0,2.209 -1.791,4 -4,4 L 4,26 C 1.791,26 0,24.209 0,22 L 0,4 C 0,1.791 1.791,0 4,0 l 28,0 c 2.209,0 4,1.791 4,4 l 0,18 z"
     id="path4"
     inkscape:connector-curvature="0"
     style="fill:#ed1c23" />
  <path
     d="m 0,12 36,0 0,7 -36,0 z"
     id="path6"
     inkscape:connector-curvature="0"
     style="fill:#034ea2" />
  <path
     d="M 36,12 36,4 C 36,1.791 34.209,0 32,0 L 4,0 C 1.791,0 0,1.791 0,4 l 0,8 36,0 z"
     id="path8"
     inkscape:connector-curvature="0"
     style="fill:#ffdd00" />
  <path
     d="m 23,14 c 0,1.104 -0.896,2 -2,2 l -6,0 c -1.104,0 -2,-0.896 -2,-2 l 0,-3 c 0,-1.104 0.896,-2 2,-2 l 6,0 c 1.104,0 2,0.896 2,2 l 0,3 z"
     id="path10"
     inkscape:connector-curvature="0"
     style="fill:#ffdd00" />
  <path
     d="m 22,13 c 0,1.104 -0.896,3 -2,3 l -4,0 c -1.104,0 -2,-1.896 -2,-3 l 0,-1 c 0,-1.104 0.896,-2 2,-2 l 4,0 c 1.104,0 2,0.896 2,2 l 0,1 z"
     id="path12"
     inkscape:connector-curvature="0"
     style="fill:#034ea2" />
  <path
     d="m 21,13 c 0,1.104 -0.896,3 -2,3 l -2,0 c -1.104,0 -2,-1.896 -2,-3 l 0,-1 c 0,-1.104 0.896,-2 2,-2 l 2,0 c 1.104,0 2,0.896 2,2 l 0,1 z"
     id="path14"
     inkscape:connector-curvature="0"
     style="fill:#ed1c23" />
  <path
     d="M 19.973,9.135 C 19.84,9.623 19.012,10 18,10 16.988,10 16.16,9.623 16.027,9.135 14.822,9.307 15,9.628 15,10 c 0,0.552 0.791,1 3,1 2.209,0 3,-0.448 3,-1 0,-0.372 0.178,-0.693 -1.027,-0.865 z"
     id="path16"
     inkscape:connector-curvature="0"
     style="fill:#6dbe46" />
  <path
     d="m 19,14 c 0,0.553 -0.448,1 -1,1 -0.552,0 -1,-0.447 -1,-1 l 0,-3 c 0,-0.552 0.448,-1 1,-1 0.552,0 1,0.448 1,1 l 0,3 z"
     id="path18"
     inkscape:connector-curvature="0"
     style="fill:#a6d388" />
  <path
     d="m 21.5,7 c 0.44,0 0.858,0.052 1.246,0.137 C 22.123,6.061 20,5 18,7 16,5 13.877,6.061 13.254,7.137 13.642,7.052 14.06,7 14.5,7 16.433,7 18,7.896 18,9 18,7.896 19.566,7 21.5,7 Z"
     id="path20"
     inkscape:connector-curvature="0"
     style="fill:#662113" />
  <ellipse
     cx="18"
     cy="12.5"
     rx="2"
     ry="3.5"
     id="ellipse22"
     style="fill:#8ed2e7" />
  <path
     d="m 17.5,12 c -0.536,0 -1.037,0.13 -1.491,0.345 C 16.008,12.397 16,12.447 16,12.5 c 0,1.933 0.896,3.5 2,3.5 1.003,0 1.825,-1.295 1.97,-2.979 C 19.337,12.391 18.464,12 17.5,12 Z"
     id="path24"
     inkscape:connector-curvature="0"
     style="fill:#6dbe46" />
  <ellipse
     cx="18"
     cy="17"
     rx="3"
     ry="1"
     id="ellipse26"
     style="fill:#ffcc4d" />
  <path
     d="m 20,18 c 0,0.828 -0.896,1 -2,1 -1.104,0 -2,-0.172 -2,-1 0,-0.828 0.896,-2 2,-2 1.104,0 2,1.172 2,2 z"
     id="path28"
     inkscape:connector-curvature="0"
     style="fill:#034ea2" />
  <path
     d="m 17,18 c 0,-0.828 0.448,-2 1,-2 0.552,0 1,1.172 1,2 0,0.828 -0.448,1 -1,1 -0.552,0 -1,-0.172 -1,-1 z"
     id="path30"
     inkscape:connector-curvature="0"
     style="fill:#ed1c23" />
  <path
     d="m 17,6 c 0,-0.552 0.448,0 1,0 0.552,0 1,-0.552 1,0 0,0.552 -0.448,1 -1,1 -0.552,0 -1,-0.448 -1,-1 z"
     id="path32"
     inkscape:connector-curvature="0"
     style="fill:#ccd6dd" />
  <ellipse
     cx="18"
     cy="12.5"
     rx="1"
     ry="0.5"
     id="ellipse34"
     style="fill:#ffffff" />
  <ellipse
     cx="13"
     cy="10.5"
     rx="1"
     ry="0.5"
     id="ellipse36"
     style="fill:#c1694f" />
  <ellipse
     cx="14"
     cy="8.5"
     rx="1"
     ry="0.5"
     id="ellipse38"
     style="fill:#c1694f" />
  <ellipse
     cx="23"
     cy="10.5"
     rx="1"
     ry="0.5"
     id="ellipse40"
     style="fill:#c1694f" />
  <ellipse
     cx="22"
     cy="8.5"
     rx="1"
     ry="0.5"
     id="ellipse42"
     style="fill:#c1694f" />
</svg>
