<?xml version="1.0" encoding="UTF-8" standalone="no"?>
<svg
   xmlns:dc="http://purl.org/dc/elements/1.1/"
   xmlns:cc="http://creativecommons.org/ns#"
   xmlns:rdf="http://www.w3.org/1999/02/22-rdf-syntax-ns#"
   xmlns:svg="http://www.w3.org/2000/svg"
   xmlns="http://www.w3.org/2000/svg"
   xmlns:sodipodi="http://sodipodi.sourceforge.net/DTD/sodipodi-0.dtd"
   xmlns:inkscape="http://www.inkscape.org/namespaces/inkscape"
   viewBox="0 0 36 26"
   id="svg2"
   version="1.1"
   inkscape:version="0.91 r13725"
   sodipodi:docname="1f1ec-1f1ed.svg"
   width="36"
   height="26">
  <metadata
     id="metadata16">
    <rdf:RDF>
      <cc:Work
         rdf:about="">
        <dc:format>image/svg+xml</dc:format>
        <dc:type
           rdf:resource="http://purl.org/dc/dcmitype/StillImage" />
      </cc:Work>
    </rdf:RDF>
  </metadata>
  <defs
     id="defs14" />
  <sodipodi:namedview
     pagecolor="#ffffff"
     bordercolor="#666666"
     borderopacity="1"
     objecttolerance="10"
     gridtolerance="10"
     guidetolerance="10"
     inkscape:pageopacity="0"
     inkscape:pageshadow="2"
     inkscape:window-width="640"
     inkscape:window-height="480"
     id="namedview12"
     showgrid="false"
     inkscape:zoom="6.5555556"
     inkscape:cx="18"
     inkscape:cy="13"
     inkscape:window-x="0"
     inkscape:window-y="0"
     inkscape:window-maximized="0"
     inkscape:current-layer="svg2" />
  <path
     d="M 32,0 4,0 C 1.791,0 0,1.791 0,4 L 0,9 36,9 36,4 C 36,1.791 34.209,0 32,0 Z"
     id="path4"
     inkscape:connector-curvature="0"
     style="fill:#cc212d" />
  <path
     d="m 15.423,17 5.185,0 -2.592,-1.884 z m 3.587,-4.941 3.215,0 -2.601,1.889 L 20.615,17 36,17 36,9 18.016,9 Z m -2.602,1.889 -2.601,-1.889 3.215,0 L 18.016,9 0,9 l 0,8 15.416,0 z"
     id="path6"
     inkscape:connector-curvature="0"
     style="fill:#fbd116" />
  <path
     d="M 20.617,17.006 20.608,17 15.422,17 15.413,17.006 15.416,17 0,17 0,22 c 0,2.209 1.791,4 4,4 l 28,0 c 2.209,0 4,-1.791 4,-4 l 0,-5 -15.385,0 0.002,0.006 z"
     id="path8"
     inkscape:connector-curvature="0"
     style="fill:#288541" />
  <path
     d="M 13.807,12.059 16.408,13.948 15.416,17 15.414,17.006 15.423,17 18.016,15.116 20.608,17 20.617,17.006 20.615,17 l -0.991,-3.052 2.601,-1.889 -3.215,0 L 18.016,9 17.022,12.059 Z"
     id="path10"
     inkscape:connector-curvature="0" />
</svg>
