<?xml version="1.0" encoding="UTF-8" standalone="no"?>
<svg
   xmlns:dc="http://purl.org/dc/elements/1.1/"
   xmlns:cc="http://creativecommons.org/ns#"
   xmlns:rdf="http://www.w3.org/1999/02/22-rdf-syntax-ns#"
   xmlns:svg="http://www.w3.org/2000/svg"
   xmlns="http://www.w3.org/2000/svg"
   xmlns:sodipodi="http://sodipodi.sourceforge.net/DTD/sodipodi-0.dtd"
   xmlns:inkscape="http://www.inkscape.org/namespaces/inkscape"
   viewBox="0 0 36 26"
   id="svg2"
   version="1.1"
   inkscape:version="0.91 r13725"
   sodipodi:docname="1f1e7-1f1f4.svg"
   width="36"
   height="26">
  <metadata
     id="metadata72">
    <rdf:RDF>
      <cc:Work
         rdf:about="">
        <dc:format>image/svg+xml</dc:format>
        <dc:type
           rdf:resource="http://purl.org/dc/dcmitype/StillImage" />
      </cc:Work>
    </rdf:RDF>
  </metadata>
  <defs
     id="defs70" />
  <sodipodi:namedview
     pagecolor="#ffffff"
     bordercolor="#666666"
     borderopacity="1"
     objecttolerance="10"
     gridtolerance="10"
     guidetolerance="10"
     inkscape:pageopacity="0"
     inkscape:pageshadow="2"
     inkscape:window-width="640"
     inkscape:window-height="480"
     id="namedview68"
     showgrid="false"
     inkscape:zoom="6.5555556"
     inkscape:cx="18"
     inkscape:cy="13"
     inkscape:window-x="0"
     inkscape:window-y="0"
     inkscape:window-maximized="0"
     inkscape:current-layer="svg2" />
  <path
     d="m 36,22 c 0,2.209 -1.791,4 -4,4 L 4,26 C 1.791,26 0,24.209 0,22 L 0,4 C 0,1.791 1.791,0 4,0 l 28,0 c 2.209,0 4,1.791 4,4 l 0,18 z"
     id="path4"
     inkscape:connector-curvature="0"
     style="fill:#007934" />
  <path
     d="M 0,8 36,8 36,18 0,18 Z"
     id="path6"
     inkscape:connector-curvature="0"
     style="fill:#ffe000" />
  <path
     d="M 32,0 4,0 C 1.791,0 0,1.791 0,4 L 0,8 36,8 36,4 C 36,1.791 34.209,0 32,0 Z"
     id="path8"
     inkscape:connector-curvature="0"
     style="fill:#d52b1e" />
  <path
     d="m 12.894,11.335 c 0.041,0.062 0.381,0.55 0.381,0.55 l 0.489,0 -0.2,-0.275 -0.67,-0.275 z m 0.733,-0.488 c 0.041,0.061 0.381,0.55 0.381,0.55 l 0.489,0 -0.2,-0.275 -0.67,-0.275 z m 0.682,-0.614 c 0.019,0.071 0.185,0.643 0.185,0.643 l 0.462,0.157 -0.1,-0.324 -0.547,-0.476 z"
     id="path10"
     inkscape:connector-curvature="0"
     style="fill:#ffffff" />
  <path
     d="m 13.953,16.498 c -0.04,0.021 -0.089,0.005 -0.109,-0.036 -0.021,-0.04 -0.004,-0.09 0.035,-0.109 l 2.467,-1.26 c 0.04,-0.021 0.089,-0.005 0.109,0.034 0.021,0.041 0.004,0.09 -0.035,0.11 l -2.467,1.261 z m 0.494,0.456 c -0.038,0.024 -0.088,0.013 -0.113,-0.024 -0.024,-0.036 -0.015,-0.088 0.023,-0.113 l 2.31,-1.527 c 0.038,-0.025 0.088,-0.016 0.113,0.022 0.025,0.038 0.015,0.087 -0.023,0.112 l -2.31,1.53 z"
     id="path12"
     inkscape:connector-curvature="0"
     style="fill:#a05a2d" />
  <path
     d="m 14.947,17.377 c -0.03,0.033 -0.082,0.037 -0.115,0.008 -0.034,-0.03 -0.037,-0.082 -0.007,-0.116 l 1.831,-2.078 c 0.03,-0.034 0.081,-0.036 0.115,-0.007 0.034,0.029 0.037,0.08 0.007,0.114 l -1.831,2.079 z"
     id="path14"
     inkscape:connector-curvature="0"
     style="fill:#a05a2d" />
  <path
     d="m 17.348,15.715 -0.57,1.181 -0.102,-0.104 -0.222,0.307 -0.603,-0.328 0.749,-1.464 z"
     id="path16"
     inkscape:connector-curvature="0"
     style="fill:#a05a2d" />
  <path
     d="M 17.593,17.525 18,15.592 l -0.042,-1.691 -2.931,-2.8 -0.204,0.642 -0.407,-0.326 -0.122,0.672 c 0,0 -0.51,-0.366 -0.53,-0.305 -0.02,0.061 -0.143,1.548 -0.184,2.383 -0.04,0.834 -0.074,2.076 0.835,2.24 1.588,0.285 2.769,-0.896 2.769,-0.896 0,0 0.387,0.367 0.407,0.428 0.02,0.061 -0.143,0.773 -0.204,1.059 -0.059,0.283 0.206,0.527 0.206,0.527 z"
     id="path18"
     inkscape:connector-curvature="0"
     style="fill:#d52b1e" />
  <path
     d="m 15.555,11.644 -0.162,0.465 -0.265,-0.143 c 0,0 -0.675,3.401 0.426,3.666 1.101,0.265 1.224,-0.184 1.224,-0.184 l -0.53,-0.712 -0.397,0.183 c 0,0 -0.193,-0.526 -0.193,-1.24 0,-0.637 0.102,-1.265 0.102,-1.265 l 0.202,0.142 0.042,-0.468 -0.449,-0.444 z"
     id="path20"
     inkscape:connector-curvature="0"
     style="fill:#ffe000" />
  <path
     d="m 16.676,12.659 -0.672,-0.571 -0.042,0.468 -0.263,-0.183 c 0,0 -0.146,0.489 -0.144,1.12 0.002,0.631 0.083,1.243 0.083,1.243 0,0 0.468,0.162 0.712,0 0.245,-0.163 0.326,-2.077 0.326,-2.077 z"
     id="path22"
     inkscape:connector-curvature="0"
     style="fill:#007934" />
  <path
     d="m 16.454,14.573 c -0.529,0.227 -1.611,0.635 -1.326,1.142 0.286,0.508 1.12,0.305 1.65,-0.267 0.53,-0.57 -0.324,-0.875 -0.324,-0.875 z"
     id="path24"
     inkscape:connector-curvature="0"
     style="fill:#e8a30f" />
  <path
     d="m 23.105,11.335 c -0.04,0.062 -0.381,0.55 -0.381,0.55 l -0.489,0 0.199,-0.275 0.671,-0.275 z m -0.733,-0.488 c -0.04,0.061 -0.38,0.55 -0.38,0.55 l -0.489,0 0.199,-0.275 0.67,-0.275 z m -0.681,-0.614 -0.185,0.643 -0.463,0.157 0.101,-0.324 0.547,-0.476 z"
     id="path26"
     inkscape:connector-curvature="0"
     style="fill:#ffffff" />
  <path
     d="m 22.047,16.498 c 0.04,0.021 0.09,0.005 0.109,-0.036 0.021,-0.04 0.005,-0.09 -0.035,-0.109 l -2.466,-1.26 c -0.041,-0.021 -0.089,-0.005 -0.11,0.034 -0.021,0.041 -0.005,0.09 0.036,0.11 l 2.466,1.261 z m -0.494,0.456 c 0.038,0.024 0.089,0.013 0.113,-0.024 0.025,-0.036 0.015,-0.088 -0.023,-0.113 L 19.334,15.29 c -0.037,-0.025 -0.088,-0.016 -0.112,0.022 -0.025,0.038 -0.015,0.087 0.022,0.112 l 2.309,1.53 z"
     id="path28"
     inkscape:connector-curvature="0"
     style="fill:#a05a2d" />
  <path
     d="m 21.054,17.377 c 0.029,0.033 0.081,0.037 0.114,0.008 0.034,-0.03 0.037,-0.082 0.008,-0.116 l -1.831,-2.078 c -0.028,-0.034 -0.08,-0.036 -0.114,-0.007 -0.034,0.029 -0.037,0.08 -0.008,0.114 l 1.831,2.079 z"
     id="path30"
     inkscape:connector-curvature="0"
     style="fill:#a05a2d" />
  <path
     d="m 18.652,15.715 0.57,1.181 0.102,-0.104 0.222,0.307 0.603,-0.328 -0.749,-1.464 z"
     id="path32"
     inkscape:connector-curvature="0"
     style="fill:#a05a2d" />
  <path
     d="M 18.407,17.525 18,15.592 l 0.042,-1.691 2.931,-2.8 0.205,0.642 0.407,-0.326 0.122,0.672 c 0,0 0.508,-0.366 0.528,-0.305 0.021,0.061 0.144,1.548 0.184,2.383 0.041,0.834 0.075,2.076 -0.834,2.24 -1.589,0.285 -2.77,-0.896 -2.77,-0.896 0,0 -0.387,0.367 -0.407,0.428 -0.02,0.061 0.143,0.773 0.204,1.059 0.06,0.283 -0.205,0.527 -0.205,0.527 z"
     id="path34"
     inkscape:connector-curvature="0"
     style="fill:#d52b1e" />
  <path
     d="m 20.445,11.644 0.161,0.465 0.265,-0.143 c 0,0 0.676,3.401 -0.426,3.666 -1.101,0.265 -1.224,-0.184 -1.224,-0.184 l 0.529,-0.712 0.398,0.183 c 0,0 0.192,-0.526 0.192,-1.24 0,-0.637 -0.102,-1.265 -0.102,-1.265 l -0.202,0.142 -0.042,-0.468 0.451,-0.444 z"
     id="path36"
     inkscape:connector-curvature="0"
     style="fill:#ffe000" />
  <path
     d="m 19.324,12.659 0.672,-0.571 0.042,0.468 0.263,-0.183 c 0,0 0.146,0.489 0.144,1.12 -0.002,0.631 -0.083,1.243 -0.083,1.243 0,0 -0.469,0.162 -0.713,0 -0.245,-0.163 -0.325,-2.077 -0.325,-2.077 z"
     id="path38"
     inkscape:connector-curvature="0"
     style="fill:#007934" />
  <path
     d="m 19.546,14.573 c 0.529,0.227 1.61,0.635 1.325,1.142 -0.285,0.508 -1.12,0.305 -1.649,-0.267 -0.53,-0.57 0.324,-0.875 0.324,-0.875 z"
     id="path40"
     inkscape:connector-curvature="0"
     style="fill:#e8a30f" />
  <path
     d="m 16.331,10.825 c 0.171,0.202 0.163,0.489 -0.018,0.642 -0.18,0.153 -0.464,0.113 -0.635,-0.089 -0.17,-0.202 -0.163,-0.489 0.017,-0.642 0.18,-0.153 0.465,-0.113 0.636,0.089 z"
     id="path42"
     inkscape:connector-curvature="0"
     style="fill:#d52b1e" />
  <path
     d="m 19.75,10.825 c -0.17,0.202 -0.162,0.489 0.019,0.642 0.181,0.153 0.464,0.113 0.636,-0.089 0.171,-0.202 0.163,-0.489 -0.018,-0.642 -0.181,-0.153 -0.465,-0.113 -0.637,0.089 z"
     id="path44"
     inkscape:connector-curvature="0"
     style="fill:#e7e7e7" />
  <path
     d="M 19.1,8.484 C 18.957,8.586 19.365,9.237 19.284,9.95 19.201,10.663 18,11.233 18,11.233 c 0,0 -1.202,-0.57 -1.283,-1.283 -0.082,-0.712 0.326,-1.364 0.183,-1.466 -0.143,-0.102 -0.896,0.55 -0.936,1.242 -0.041,0.692 0.66,1.735 1.12,1.935 0.46,0.2 0.917,0.305 0.917,0.305 0,0 0.456,-0.106 0.917,-0.305 0.461,-0.2 1.162,-1.243 1.12,-1.935 C 19.996,9.034 19.242,8.382 19.1,8.484 Z"
     id="path46"
     inkscape:connector-curvature="0"
     style="fill:#007934" />
  <path
     d="m 18,11.213 c 0,0 0.122,-0.428 0.917,-0.672 0.794,-0.245 1.547,-0.428 1.833,-0.448 0.286,-0.021 -1.13,-0.57 -1.466,-0.611 -0.336,-0.04 -0.753,0.041 -0.815,0.286 -0.061,0.244 -0.163,0.163 -0.468,0.204 -0.306,0.04 -0.509,-0.245 -0.652,-0.448 -0.142,-0.204 -0.683,-0.102 -0.947,-0.081 -0.265,0.02 -1.273,0.651 -1.273,0.651 0,0 1.752,0.285 2.118,0.468 0.366,0.184 0.02,0.835 -0.081,1.019 -0.103,0.182 0.605,-0.057 0.834,-0.368 z"
     id="path48"
     inkscape:connector-curvature="0"
     style="fill:#ffffff" />
  <path
     d="m 18,11.213 c 0,0 0.122,-0.428 0.917,-0.672 0.794,-0.245 1.547,-0.428 1.833,-0.448 0.286,-0.021 -1.038,-0.428 -1.375,-0.469 -0.336,-0.04 -0.6,-0.04 -0.661,0.204 C 18.653,10.072 18.307,9.93 18.001,9.971 17.695,10.011 17.349,9.91 17.207,9.706 17.064,9.502 16.82,9.584 16.555,9.604 c -0.264,0.02 -1.425,0.489 -1.425,0.489 0,0 1.752,0.285 2.118,0.468 0.366,0.184 0.02,0.835 -0.081,1.019 -0.104,0.183 0.604,-0.056 0.833,-0.367 z"
     id="path50"
     inkscape:connector-curvature="0" />
  <path
     d="m 15.821,13.656 c 0,-1.316 0.976,-2.382 2.179,-2.382 1.204,0 2.179,1.067 2.179,2.382 0,1.316 -0.975,2.383 -2.179,2.383 -1.203,0 -2.179,-1.066 -2.179,-2.383 z"
     id="path52"
     inkscape:connector-curvature="0"
     style="fill:#00a6de" />
  <path
     d="m 16.401,13.656 c 0,-1.034 0.716,-1.873 1.599,-1.873 0.883,0 1.599,0.839 1.599,1.873 0,1.036 -0.716,1.874 -1.599,1.874 -0.883,0 -1.599,-0.838 -1.599,-1.874 z"
     id="path54"
     inkscape:connector-curvature="0"
     style="fill:#e8a30f" />
  <path
     d="m 17.308,12.842 c 0,-0.382 0.31,-0.692 0.692,-0.692 0.382,0 0.692,0.311 0.692,0.692 0,0.383 -0.31,0.693 -0.692,0.693 -0.382,0 -0.692,-0.31 -0.692,-0.693 z"
     id="path56"
     inkscape:connector-curvature="0"
     style="fill:#d52b1e" />
  <path
     d="m 18,15.53 c 0.849,0 1.544,-0.775 1.596,-1.755 -0.521,-0.193 -1.382,-0.933 -1.596,-0.933 -0.224,0 -0.509,0.245 -0.875,0.57 -0.188,0.168 -0.48,0.303 -0.718,0.395 0.065,0.964 0.753,1.723 1.593,1.723 z"
     id="path58"
     inkscape:connector-curvature="0"
     style="fill:#007934" />
  <path
     d="m 18.204,10.133 c 0,0.102 -0.21,0.184 -0.468,0.184 -0.259,0 -0.469,-0.082 -0.469,-0.184 0,-0.101 0.21,-0.183 0.469,-0.183 0.258,0 0.468,0.083 0.468,0.183 z"
     id="path60"
     inkscape:connector-curvature="0"
     style="fill:#e8a30f" />
  <path
     d="m 17.185,14.573 0.489,0 0.142,-0.407 0.184,0.223 -0.204,0.591 -0.448,0 z"
     id="path62"
     inkscape:connector-curvature="0"
     style="fill:#ffffff" />
  <path
     d="m 18.427,14.919 c 0,0.191 -0.095,0.347 -0.213,0.347 -0.118,0 -0.214,-0.155 -0.214,-0.347 0,-0.191 0.096,-0.346 0.214,-0.346 0.118,0 0.213,0.155 0.213,0.346 z m 0.306,0.347 c 0,0.024 -0.019,0.041 -0.041,0.041 -0.022,0 -0.041,-0.017 -0.041,-0.041 l 0,-1.059 c 0,-0.022 0.018,-0.041 0.041,-0.041 0.022,0 0.041,0.019 0.041,0.041 l 0,1.059 z"
     id="path64"
     inkscape:connector-curvature="0"
     style="fill:#b37d0a" />
  <path
     d="m 19.038,14.104 c 0,0.18 -0.159,0.326 -0.356,0.326 -0.197,0 -0.356,-0.146 -0.356,-0.326 0,-0.18 0.16,-0.326 0.356,-0.326 0.197,10e-4 0.356,0.146 0.356,0.326 z"
     id="path66"
     inkscape:connector-curvature="0"
     style="fill:#32b266" />
</svg>
