<?xml version="1.0" encoding="UTF-8" standalone="no"?>
<svg
   xmlns:dc="http://purl.org/dc/elements/1.1/"
   xmlns:cc="http://creativecommons.org/ns#"
   xmlns:rdf="http://www.w3.org/1999/02/22-rdf-syntax-ns#"
   xmlns:svg="http://www.w3.org/2000/svg"
   xmlns="http://www.w3.org/2000/svg"
   xmlns:sodipodi="http://sodipodi.sourceforge.net/DTD/sodipodi-0.dtd"
   xmlns:inkscape="http://www.inkscape.org/namespaces/inkscape"
   viewBox="0 0 36 26"
   id="svg2"
   version="1.1"
   inkscape:version="0.91 r13725"
   sodipodi:docname="1f1e6-1f1eb.svg"
   width="36"
   height="26">
  <metadata
     id="metadata44">
    <rdf:RDF>
      <cc:Work
         rdf:about="">
        <dc:format>image/svg+xml</dc:format>
        <dc:type
           rdf:resource="http://purl.org/dc/dcmitype/StillImage" />
      </cc:Work>
    </rdf:RDF>
  </metadata>
  <defs
     id="defs42" />
  <sodipodi:namedview
     pagecolor="#ffffff"
     bordercolor="#666666"
     borderopacity="1"
     objecttolerance="10"
     gridtolerance="10"
     guidetolerance="10"
     inkscape:pageopacity="0"
     inkscape:pageshadow="2"
     inkscape:window-width="640"
     inkscape:window-height="480"
     id="namedview40"
     showgrid="false"
     inkscape:zoom="6.5555556"
     inkscape:cx="18"
     inkscape:cy="12.999"
     inkscape:window-x="0"
     inkscape:window-y="0"
     inkscape:window-maximized="0"
     inkscape:current-layer="svg2" />
  <path
     d="m 36,22 c 0,2.209 -1.791,4 -4,4 L 4,26 C 1.791,26 0,24.209 0,22 L 0,4 C 0,1.791 1.791,0 4,0 l 28,0 c 2.209,0 4,1.791 4,4 l 0,18 z"
     id="path4"
     inkscape:connector-curvature="0"
     style="fill:#141414" />
  <path
     d="m 32,0 c 2.209,0 4,1.791 4,4 l 0,18 c 0,2.209 -1.791,4 -4,4 l -8,0 0,-26 8,0 z"
     id="path6"
     inkscape:connector-curvature="0"
     style="fill:#007a36" />
  <path
     d="m 12,0 12,0 0,26 -12,0 z"
     id="path8"
     inkscape:connector-curvature="0"
     style="fill:#d32011" />
  <path
     d="m 22.048,18.784 c -0.032,0.08 -0.141,0.151 -0.227,0.117 -0.086,-0.034 -0.116,-0.161 -0.084,-0.241 0.032,-0.08 0.277,-0.319 0.303,-0.309 0.026,0.01 0.04,0.353 0.008,0.433 z m 0.061,0.075 c -0.085,0.014 -0.179,0.104 -0.164,0.196 0.015,0.091 0.131,0.149 0.217,0.135 0.085,-0.014 0.372,-0.201 0.368,-0.228 -0.005,-0.027 -0.336,-0.116 -0.421,-0.103 z m 0.352,-0.401 c -0.03,0.074 -0.131,0.14 -0.21,0.109 -0.079,-0.031 -0.108,-0.149 -0.078,-0.224 0.03,-0.075 0.257,-0.296 0.281,-0.287 0.024,0.009 0.036,0.328 0.007,0.402 z m 0.056,0.07 c -0.079,0.013 -0.166,0.097 -0.152,0.182 0.014,0.085 0.122,0.138 0.201,0.125 0.079,-0.013 0.345,-0.186 0.341,-0.212 -0.004,-0.026 -0.311,-0.107 -0.39,-0.095 z m -1.831,0.538 c -0.019,0.102 -0.13,0.212 -0.24,0.192 -0.109,-0.02 -0.175,-0.162 -0.157,-0.264 0.019,-0.102 0.251,-0.442 0.284,-0.436 0.033,0.006 0.131,0.406 0.113,0.508 z m 0.089,0.074 c -0.097,0.036 -0.186,0.166 -0.147,0.27 0.039,0.104 0.19,0.144 0.288,0.108 0.097,-0.036 0.391,-0.325 0.379,-0.357 -0.012,-0.031 -0.423,-0.057 -0.52,-0.021 z m 0.265,-0.483 c -0.015,0.085 -0.108,0.176 -0.199,0.16 -0.091,-0.016 -0.146,-0.135 -0.13,-0.22 0.015,-0.085 0.209,-0.368 0.236,-0.363 0.027,0.005 0.109,0.338 0.093,0.423 z m 0.074,0.062 c -0.081,0.03 -0.154,0.138 -0.122,0.224 0.032,0.086 0.158,0.12 0.239,0.09 0.081,-0.03 0.325,-0.271 0.315,-0.297 -0.009,-0.025 -0.351,-0.047 -0.432,-0.017 z m 0.266,-0.462 c -0.014,0.079 -0.1,0.163 -0.185,0.148 -0.084,-0.015 -0.135,-0.125 -0.121,-0.204 0.014,-0.079 0.194,-0.341 0.219,-0.337 0.025,0.005 0.101,0.314 0.087,0.393 z m 0.069,0.057 c -0.075,0.028 -0.143,0.128 -0.113,0.208 0.03,0.08 0.147,0.111 0.222,0.083 0.075,-0.028 0.301,-0.251 0.293,-0.275 -0.008,-0.024 -0.327,-0.044 -0.402,-0.016 z m 0.225,-0.402 c -0.013,0.071 -0.091,0.148 -0.167,0.134 -0.076,-0.014 -0.122,-0.113 -0.109,-0.184 0.013,-0.071 0.175,-0.309 0.198,-0.304 0.022,0.003 0.091,0.283 0.078,0.354 z m 0.062,0.052 c -0.068,0.025 -0.13,0.115 -0.102,0.188 0.027,0.073 0.133,0.1 0.201,0.075 C 21.903,18.202 22.108,18 22.1,17.978 22.092,17.956 21.804,17.939 21.736,17.964 Z m -0.097,1.755 c -0.076,0.07 -0.231,0.091 -0.307,0.009 -0.076,-0.082 -0.043,-0.235 0.033,-0.305 0.076,-0.07 0.467,-0.202 0.489,-0.178 0.022,0.024 -0.139,0.404 -0.215,0.474 z m 0.026,0.113 c -0.1,-0.029 -0.248,0.021 -0.279,0.127 -0.032,0.107 0.066,0.229 0.165,0.259 0.1,0.029 0.508,-0.025 0.517,-0.057 0.01,-0.031 -0.303,-0.299 -0.403,-0.329 z m 0.503,-0.226 c -0.063,0.059 -0.192,0.076 -0.255,0.008 -0.063,-0.068 -0.036,-0.195 0.028,-0.254 0.063,-0.059 0.388,-0.168 0.407,-0.148 0.018,0.02 -0.117,0.335 -0.18,0.394 z M 22.19,19.7 c -0.083,-0.025 -0.206,0.017 -0.232,0.106 -0.026,0.089 0.054,0.191 0.137,0.215 0.083,0.025 0.422,-0.021 0.43,-0.047 0.008,-0.027 -0.253,-0.25 -0.335,-0.274 z m 0.49,-0.21 c -0.059,0.054 -0.178,0.07 -0.237,0.007 -0.058,-0.063 -0.033,-0.181 0.026,-0.235 0.059,-0.054 0.36,-0.156 0.377,-0.137 0.018,0.018 -0.107,0.31 -0.166,0.365 z m 0.021,0.087 c -0.077,-0.023 -0.191,0.016 -0.216,0.098 -0.024,0.082 0.051,0.177 0.127,0.2 0.077,0.023 0.392,-0.019 0.399,-0.044 0.007,-0.025 -0.234,-0.231 -0.31,-0.254 z m 0.421,-0.186 c -0.053,0.049 -0.161,0.064 -0.214,0.007 -0.053,-0.057 -0.03,-0.164 0.023,-0.213 0.053,-0.049 0.326,-0.141 0.341,-0.124 0.016,0.017 -0.097,0.281 -0.15,0.33 z m 0.019,0.079 c -0.069,-0.021 -0.173,0.014 -0.195,0.089 -0.022,0.074 0.046,0.16 0.115,0.181 0.069,0.021 0.354,-0.017 0.361,-0.04 0.006,-0.022 -0.212,-0.209 -0.281,-0.23 z m 0.343,-2.771 c 0.013,0.103 -0.061,0.241 -0.172,0.254 -0.11,0.013 -0.215,-0.103 -0.228,-0.206 -0.013,-0.103 0.109,-0.497 0.142,-0.501 0.033,-0.004 0.245,0.35 0.258,0.453 z m 0.107,0.044 c -0.082,0.063 -0.128,0.213 -0.06,0.301 0.068,0.088 0.224,0.081 0.307,0.018 0.082,-0.063 0.277,-0.427 0.257,-0.453 -0.022,-0.026 -0.422,0.071 -0.504,0.134 z m 0.11,-0.54 c 0.01,0.086 -0.051,0.2 -0.143,0.212 -0.092,0.011 -0.179,-0.085 -0.19,-0.171 -0.01,-0.086 0.091,-0.413 0.118,-0.417 0.028,-0.003 0.205,0.29 0.215,0.376 z m 0.089,0.037 c -0.068,0.053 -0.107,0.177 -0.05,0.25 0.057,0.073 0.187,0.067 0.255,0.015 0.068,-0.053 0.23,-0.355 0.213,-0.377 -0.016,-0.021 -0.349,0.06 -0.418,0.112 z m 0.117,-0.52 c 0.01,0.079 -0.047,0.186 -0.133,0.196 -0.086,0.01 -0.166,-0.079 -0.176,-0.159 -0.01,-0.079 0.084,-0.383 0.109,-0.386 0.026,-0.003 0.19,0.269 0.2,0.349 z m 0.083,0.034 c -0.063,0.049 -0.099,0.164 -0.046,0.232 0.053,0.068 0.173,0.063 0.236,0.014 0.063,-0.049 0.214,-0.329 0.198,-0.349 -0.016,-0.02 -0.325,0.054 -0.388,0.103 z m 0.095,-0.45 c 0.009,0.072 -0.043,0.168 -0.12,0.178 -0.077,0.009 -0.15,-0.072 -0.159,-0.144 -0.009,-0.072 0.076,-0.347 0.099,-0.349 0.023,-0.004 0.172,0.243 0.18,0.315 z m 0.075,0.031 c -0.057,0.044 -0.089,0.149 -0.042,0.21 0.047,0.061 0.157,0.057 0.214,0.012 0.057,-0.044 0.193,-0.298 0.179,-0.316 -0.014,-0.018 -0.293,0.049 -0.351,0.094 z m 0.428,1.705 c -0.052,0.09 -0.194,0.156 -0.29,0.1 -0.096,-0.056 -0.11,-0.212 -0.059,-0.301 0.052,-0.09 0.386,-0.332 0.414,-0.315 0.028,0.017 -0.013,0.426 -0.065,0.516 z m 0.058,0.1 c -0.104,10e-4 -0.231,0.093 -0.229,0.204 0.002,0.111 0.131,0.2 0.234,0.198 0.104,-0.001 0.478,-0.174 0.477,-0.208 0.001,-0.032 -0.378,-0.195 -0.482,-0.194 z m 0.413,-0.365 c -0.043,0.075 -0.161,0.129 -0.241,0.083 -0.08,-0.046 -0.092,-0.176 -0.049,-0.251 0.043,-0.075 0.321,-0.276 0.345,-0.262 0.024,0.014 -0.011,0.355 -0.055,0.43 z m 0.049,0.083 c -0.086,0.001 -0.192,0.078 -0.191,0.17 10e-4,0.092 0.109,0.166 0.195,0.165 0.086,-0.001 0.397,-0.145 0.397,-0.173 0,-0.027 -0.315,-0.163 -0.401,-0.162 z m 0.406,-0.346 c -0.04,0.069 -0.15,0.12 -0.224,0.077 -0.074,-0.043 -0.085,-0.163 -0.045,-0.232 0.04,-0.069 0.297,-0.256 0.32,-0.243 0.023,0.013 -0.011,0.329 -0.051,0.398 z m 0.046,0.077 c -0.08,0.001 -0.178,0.072 -0.177,0.158 0.001,0.086 0.101,0.154 0.181,0.153 0.08,-10e-4 0.368,-0.135 0.368,-0.16 0,-0.025 -0.292,-0.152 -0.372,-0.151 z m 0.347,-0.302 c -0.036,0.063 -0.135,0.109 -0.203,0.07 -0.067,-0.039 -0.077,-0.148 -0.041,-0.21 0.036,-0.062 0.269,-0.231 0.289,-0.22 0.021,0.011 -0.009,0.297 -0.045,0.36 z m 0.041,0.07 c -0.072,0.001 -0.161,0.065 -0.16,0.143 0.001,0.078 0.091,0.139 0.164,0.138 0.073,-0.001 0.333,-0.122 0.333,-0.145 0,-0.023 -0.264,-0.137 -0.337,-0.136 z m -1.051,-0.555 c -0.002,0.104 -0.096,0.23 -0.207,0.227 -0.111,-0.003 -0.198,-0.133 -0.196,-0.236 0.002,-0.103 0.179,-0.476 0.212,-0.475 0.034,0 0.194,0.38 0.191,0.484 z m 0.1,0.06 c -0.09,0.051 -0.158,0.192 -0.103,0.289 0.055,0.097 0.21,0.113 0.301,0.062 0.091,-0.051 0.335,-0.382 0.319,-0.411 -0.016,-0.029 -0.427,0.009 -0.517,0.06 z m 0.187,-0.519 c -0.002,0.086 -0.079,0.191 -0.172,0.189 -0.093,-0.002 -0.165,-0.11 -0.163,-0.197 0.002,-0.086 0.149,-0.396 0.177,-0.395 0.027,0.001 0.16,0.317 0.158,0.403 z m 0.082,0.05 c -0.075,0.042 -0.131,0.16 -0.086,0.241 0.045,0.081 0.175,0.094 0.25,0.051 0.075,-0.042 0.279,-0.318 0.265,-0.342 -0.012,-0.025 -0.353,0.007 -0.429,0.05 z m 0.191,-0.499 c -0.002,0.08 -0.074,0.177 -0.159,0.175 -0.086,-0.002 -0.153,-0.102 -0.151,-0.182 0.002,-0.08 0.138,-0.367 0.164,-0.367 0.025,0.001 0.148,0.294 0.146,0.374 z m 0.077,0.046 c -0.07,0.039 -0.122,0.148 -0.079,0.223 0.043,0.075 0.162,0.087 0.232,0.047 0.07,-0.04 0.259,-0.295 0.246,-0.317 -0.013,-0.022 -0.33,0.008 -0.399,0.047 z m -0.845,-1.708 c 0.041,0.096 0.007,0.249 -0.095,0.292 -0.102,0.043 -0.235,-0.039 -0.276,-0.135 -0.041,-0.096 -0.033,-0.508 -0.002,-0.521 0.031,-0.012 0.333,0.269 0.373,0.364 z m 0.115,0.014 c -0.061,0.084 -0.064,0.24 0.025,0.306 0.09,0.066 0.238,0.016 0.299,-0.068 0.061,-0.084 0.148,-0.486 0.122,-0.506 -0.026,-0.02 -0.384,0.184 -0.446,0.268 z m -0.043,-0.55 c 0.034,0.079 0.006,0.207 -0.079,0.243 -0.085,0.036 -0.196,-0.033 -0.229,-0.112 -0.033,-0.079 -0.027,-0.422 -0.002,-0.433 0.026,-0.011 0.277,0.223 0.31,0.302 z m 0.096,0.011 c -0.051,0.07 -0.054,0.2 0.021,0.255 0.075,0.055 0.198,0.013 0.249,-0.056 0.051,-0.07 0.123,-0.405 0.101,-0.421 -0.022,-0.016 -0.32,0.153 -0.371,0.222 z m -0.031,-0.532 c 0.031,0.074 0.006,0.192 -0.073,0.225 -0.079,0.033 -0.182,-0.03 -0.213,-0.104 -0.031,-0.074 -0.025,-0.391 -10e-4,-0.401 0.023,-0.01 0.256,0.206 0.287,0.28 z m 0.089,0.01 c -0.047,0.065 -0.05,0.185 0.019,0.236 0.069,0.051 0.184,0.012 0.231,-0.052 0.047,-0.065 0.114,-0.375 0.094,-0.39 -0.021,-0.016 -0.297,0.142 -0.344,0.206 z m -0.033,-0.46 c 0.028,0.067 0.005,0.173 -0.066,0.204 -0.071,0.03 -0.164,-0.027 -0.193,-0.094 -0.028,-0.067 -0.023,-0.354 -0.001,-0.363 0.022,-0.009 0.232,0.187 0.26,0.253 z m 0.081,0.01 c -0.043,0.058 -0.045,0.168 0.018,0.214 0.063,0.046 0.166,0.011 0.209,-0.047 0.043,-0.058 0.104,-0.339 0.085,-0.353 -0.019,-0.015 -0.269,0.127 -0.312,0.186 z m 0.881,1.521 c -0.025,0.101 -0.144,0.203 -0.251,0.176 -0.107,-0.027 -0.165,-0.173 -0.139,-0.274 0.025,-0.101 0.279,-0.425 0.311,-0.417 0.032,0.008 0.104,0.414 0.079,0.515 z m 0.084,0.08 c -0.099,0.03 -0.196,0.153 -0.164,0.26 0.032,0.107 0.181,0.156 0.28,0.126 0.099,-0.03 0.411,-0.3 0.401,-0.331 -0.008,-0.033 -0.417,-0.085 -0.517,-0.055 z m 0.297,-0.465 c -0.021,0.084 -0.119,0.169 -0.209,0.147 -0.09,-0.022 -0.137,-0.144 -0.116,-0.228 0.021,-0.084 0.232,-0.354 0.259,-0.347 0.026,0.007 0.086,0.344 0.066,0.428 z m 0.069,0.066 c -0.083,0.025 -0.163,0.127 -0.136,0.216 0.027,0.089 0.15,0.13 0.233,0.105 0.083,-0.025 0.342,-0.249 0.334,-0.276 -0.008,-0.026 -0.348,-0.069 -0.431,-0.045 z m 0.295,-0.444 c -0.019,0.078 -0.111,0.157 -0.194,0.136 -0.083,-0.021 -0.127,-0.133 -0.108,-0.211 0.019,-0.078 0.215,-0.328 0.24,-0.322 0.025,0.006 0.082,0.319 0.062,0.397 z m 0.065,0.062 c -0.077,0.023 -0.151,0.118 -0.126,0.2 0.025,0.082 0.139,0.12 0.216,0.097 0.077,-0.023 0.317,-0.231 0.31,-0.256 -0.008,-0.024 -0.323,-0.065 -0.4,-0.041 z m 0.251,-0.387 c -0.018,0.07 -0.1,0.142 -0.175,0.123 -0.075,-0.019 -0.115,-0.121 -0.097,-0.191 0.018,-0.07 0.195,-0.297 0.217,-0.291 0.022,0.005 0.072,0.289 0.055,0.359 z m 0.059,0.056 c -0.069,0.021 -0.137,0.107 -0.114,0.181 0.022,0.074 0.126,0.109 0.195,0.088 0.069,-0.021 0.287,-0.209 0.28,-0.231 -0.007,-0.023 -0.292,-0.059 -0.361,-0.038 z M 25.8,11.981 c 0.026,0.1 -0.028,0.247 -0.136,0.275 -0.108,0.028 -0.227,-0.073 -0.254,-0.173 -0.026,-0.1 0.041,-0.507 0.073,-0.515 0.032,-0.008 0.291,0.312 0.317,0.413 z m 0.112,0.029 c -0.073,0.074 -0.098,0.228 -0.019,0.306 0.079,0.078 0.233,0.05 0.306,-0.024 0.073,-0.074 0.217,-0.46 0.193,-0.483 -0.023,-0.023 -0.407,0.128 -0.48,0.201 z m 0.037,-0.55 c 0.022,0.084 -0.024,0.205 -0.113,0.229 -0.089,0.023 -0.189,-0.06 -0.211,-0.144 -0.022,-0.084 0.034,-0.422 0.061,-0.429 0.026,-0.006 0.241,0.261 0.263,0.344 z m 0.093,0.025 c -0.061,0.062 -0.082,0.19 -0.016,0.255 0.066,0.065 0.194,0.042 0.255,-0.02 0.061,-0.062 0.18,-0.383 0.161,-0.402 -0.019,-0.019 -0.339,0.106 -0.4,0.167 z m 0.046,-0.531 c 0.02,0.077 -0.022,0.191 -0.105,0.212 -0.083,0.022 -0.175,-0.056 -0.196,-0.134 -0.02,-0.077 0.032,-0.391 0.056,-0.398 0.025,-0.006 0.224,0.242 0.245,0.32 z m 0.086,0.023 c -0.056,0.057 -0.076,0.176 -0.015,0.236 0.061,0.06 0.18,0.039 0.236,-0.018 0.056,-0.057 0.167,-0.355 0.149,-0.373 -0.018,-0.018 -0.314,0.098 -0.37,0.155 z M 24.838,9.836 c 0.09,0.035 0.169,0.157 0.131,0.253 -0.038,0.096 -0.179,0.13 -0.268,0.095 -0.09,-0.035 -0.357,-0.308 -0.345,-0.337 0.011,-0.029 0.392,-0.046 0.482,-0.011 z m 0.084,-0.068 c 0.015,0.095 0.117,0.199 0.219,0.182 0.102,-0.017 0.165,-0.147 0.15,-0.242 C 25.276,9.613 25.066,9.294 25.035,9.299 25.004,9.304 24.906,9.673 24.922,9.768 Z M 24.53,9.44 c 0.074,0.029 0.141,0.13 0.109,0.21 C 24.608,9.73 24.49,9.758 24.416,9.729 24.342,9.7 24.119,9.473 24.129,9.449 24.138,9.425 24.456,9.41 24.53,9.44 Z M 24.6,9.384 c 0.013,0.079 0.097,0.165 0.182,0.151 C 24.867,9.521 24.919,9.413 24.907,9.334 24.895,9.255 24.72,8.99 24.694,8.994 24.668,8.998 24.587,9.305 24.6,9.384 Z M 24.227,9.058 c 0.069,0.027 0.131,0.121 0.101,0.195 -0.03,0.074 -0.138,0.1 -0.207,0.073 -0.069,-0.027 -0.275,-0.238 -0.266,-0.26 0.009,-0.022 0.303,-0.035 0.372,-0.008 z m 0.065,-0.052 c 0.012,0.073 0.09,0.153 0.169,0.14 C 24.54,9.133 24.588,9.033 24.577,8.959 24.565,8.886 24.403,8.64 24.38,8.643 24.355,8.648 24.28,8.933 24.292,9.006 Z M 23.967,8.729 c 0.062,0.025 0.118,0.109 0.092,0.176 C 24.033,8.972 23.934,8.996 23.872,8.971 23.81,8.946 23.623,8.756 23.631,8.736 23.639,8.716 23.904,8.704 23.967,8.729 Z m 0.058,-0.047 c 0.011,0.066 0.082,0.139 0.153,0.127 0.071,-0.012 0.115,-0.103 0.105,-0.169 -0.011,-0.066 -0.157,-0.289 -0.178,-0.286 -0.022,0.004 -0.09,0.262 -0.08,0.328 z m 1.579,0.405 c 0.05,0.082 0.041,0.227 -0.047,0.281 -0.088,0.054 -0.221,-0.004 -0.271,-0.086 -0.05,-0.082 -0.1,-0.461 -0.073,-0.477 0.027,-0.016 0.34,0.2 0.391,0.282 z m 0.107,-0.003 c -0.045,0.085 -0.026,0.229 0.065,0.277 0.091,0.048 0.22,-0.018 0.265,-0.103 C 26.086,9.173 26.11,8.792 26.083,8.777 26.056,8.762 25.756,8.998 25.711,9.084 Z M 25.596,8.586 C 25.638,8.654 25.63,8.775 25.557,8.82 25.484,8.865 25.373,8.817 25.331,8.749 25.289,8.681 25.248,8.366 25.27,8.352 c 0.022,-0.014 0.284,0.165 0.326,0.234 z m 0.09,-0.003 c -0.037,0.071 -0.022,0.191 0.054,0.23 0.076,0.04 0.183,-0.015 0.221,-0.086 0.037,-0.071 0.057,-0.388 0.035,-0.4 -0.023,-0.012 -0.273,0.185 -0.31,0.256 z M 25.583,8.099 C 25.622,8.162 25.615,8.274 25.547,8.316 25.479,8.358 25.376,8.313 25.338,8.25 25.299,8.187 25.261,7.895 25.281,7.882 c 0.02,-0.013 0.263,0.153 0.302,0.217 z m 0.083,-0.003 c -0.035,0.066 -0.02,0.177 0.05,0.214 0.07,0.037 0.17,-0.014 0.205,-0.08 C 25.956,8.164 25.974,7.87 25.953,7.859 25.932,7.848 25.701,8.03 25.666,8.096 Z M 25.573,7.679 C 25.608,7.736 25.602,7.837 25.54,7.875 25.479,7.913 25.386,7.873 25.351,7.815 25.316,7.758 25.281,7.493 25.3,7.482 c 0.018,-0.011 0.238,0.14 0.273,0.197 z m 0.075,-0.002 c -0.031,0.059 -0.018,0.16 0.046,0.193 0.064,0.033 0.154,-0.013 0.185,-0.072 0.031,-0.059 0.048,-0.325 0.029,-0.335 -0.019,-0.01 -0.228,0.154 -0.26,0.214 z m -0.916,0.611 c 0.084,0.048 0.145,0.179 0.094,0.269 C 24.775,8.646 24.63,8.66 24.547,8.612 24.463,8.564 24.238,8.256 24.254,8.229 24.268,8.202 24.648,8.24 24.732,8.288 Z m 0.092,-0.055 c 0.002,0.096 0.087,0.213 0.19,0.212 0.103,-0.002 0.185,-0.122 0.183,-0.218 -0.002,-0.096 -0.163,-0.442 -0.194,-0.442 -0.03,10e-4 -0.18,0.352 -0.179,0.448 z m -0.34,-0.381 c 0.069,0.04 0.121,0.149 0.078,0.224 C 24.52,8.15 24.4,8.161 24.33,8.121 24.261,8.081 24.073,7.825 24.086,7.802 c 0.013,-0.022 0.329,0.01 0.398,0.05 z m 0.077,-0.046 c 0.001,0.08 0.072,0.178 0.158,0.176 0.086,-0.001 0.154,-0.101 0.152,-0.181 -10e-4,-0.08 -0.136,-0.368 -0.161,-0.367 -0.025,0 -0.15,0.292 -0.149,0.372 z M 24.239,7.431 c 0.064,0.037 0.112,0.138 0.072,0.207 -0.04,0.069 -0.151,0.08 -0.215,0.043 -0.064,-0.037 -0.238,-0.275 -0.226,-0.296 0.012,-0.021 0.305,0.009 0.369,0.046 z m 0.072,-0.043 c 0.001,0.074 0.067,0.165 0.147,0.163 0.08,-0.001 0.142,-0.094 0.141,-0.168 -0.001,-0.074 -0.126,-0.341 -0.15,-0.341 -0.024,0 -0.139,0.272 -0.138,0.346 z"
     id="path10"
     inkscape:connector-curvature="0"
     style="fill:#ffffff" />
  <path
     d="m 25.46,18.117 c 0,0 -0.716,-0.008 -1.328,-0.421 -0.612,-0.413 -1.865,-1.173 -2.868,-0.188 0,0 0.7,-0.118 1.226,0.319 0.526,0.438 1.341,0.951 2.027,0.894 0.686,-0.056 0.943,-0.604 0.943,-0.604 z"
     id="path12"
     inkscape:connector-curvature="0"
     style="fill:#ffffff" />
  <path
     d="M 13.013,7.189 12.129,6.305 c 1.581,-1.581 3.682,-2.451 5.917,-2.451 2.235,0 4.336,0.871 5.917,2.451 L 23.078,7.189 C 21.734,5.845 19.947,5.104 18.046,5.104 c -1.901,0 -3.689,0.741 -5.033,2.085 z"
     id="path14"
     inkscape:connector-curvature="0"
     style="fill:#ff5b57" />
  <path
     d="m 14.579,16.802 -0.008,-0.632 6.789,0 0.027,0.646 z"
     id="path16"
     inkscape:connector-curvature="0"
     style="fill:#ffffff" />
  <g
     id="g18"
     style="fill:#ffffff"
     transform="translate(0,-4.999)">
    <path
       d="m 21.387,15.549 -0.57,-0.071 0,-1.335 c 0,-0.03 -0.01,-0.057 -0.017,-0.085 l 0.027,0 c 0.087,0 0.159,-0.071 0.159,-0.159 0,-0.087 -0.071,-0.159 -0.159,-0.159 l -0.707,0 c -0.087,0 -0.159,0.071 -0.159,0.159 0,0.087 0.071,0.159 0.159,0.159 l 0.027,0 c -0.007,0.028 -0.017,0.055 -0.017,0.085 l 0,1.25 -0.261,-0.032 -0.518,-0.557 c 0.103,-0.155 0.167,-0.328 0.167,-0.515 0,-0.62 -0.641,-1.122 -1.433,-1.122 -0.792,0 -1.433,0.502 -1.433,1.122 0,0.185 0.063,0.358 0.164,0.512 l -0.521,0.561 -0.262,0.032 0,-1.25 c 0,-0.03 -0.01,-0.057 -0.017,-0.085 l 0.027,0 c 0.087,0 0.159,-0.071 0.159,-0.159 0,-0.087 -0.071,-0.159 -0.159,-0.159 l -0.706,0 c -0.087,0 -0.159,0.071 -0.159,0.159 0,0.087 0.071,0.159 0.159,0.159 l 0.027,0 c -0.007,0.028 -0.017,0.055 -0.017,0.085 l 0,1.335 -0.569,0.07 0.472,0.707 0.074,0 0,0.978 0.731,0 0,-0.978 4.053,0 0,0.978 0.731,0 0,-0.978 0.076,0 0.472,-0.707 z"
       id="path20"
       inkscape:connector-curvature="0" />
    <path
       d="m 20.473,13.624 c 0.27,0 0.488,-0.116 0.488,-0.259 0,-0.078 -0.069,-0.146 -0.173,-0.194 l -0.316,-0.453 -0.315,0.453 c -0.104,0.047 -0.173,0.115 -0.173,0.194 10e-4,0.143 0.22,0.259 0.489,0.259 z m -2.447,-0.593 c 0.28,0 0.507,-0.14 0.507,-0.312 0,-0.092 -0.067,-0.172 -0.169,-0.229 l -0.338,-0.486 -0.338,0.486 c -0.102,0.057 -0.169,0.138 -0.169,0.229 0,0.172 0.227,0.312 0.507,0.312 z m -2.337,0.593 c 0.27,0 0.488,-0.116 0.488,-0.259 0,-0.078 -0.069,-0.146 -0.173,-0.194 l -0.315,-0.453 -0.315,0.453 c -0.104,0.047 -0.173,0.115 -0.173,0.194 0,0.143 0.218,0.259 0.488,0.259 z"
       id="path22"
       inkscape:connector-curvature="0" />
  </g>
  <g
     id="g24"
     style="fill:#ffffff"
     transform="translate(0,-4.999)">
    <path
       d="m 21.32,20.864 -0.481,-0.52 0,-0.911 -0.731,0 0,0.874 -0.294,0 -1.884,-2.61 -1.438,-0.077 -0.073,2.225 1.889,0.019 0.888,0.443 0,0.557 z"
       id="path26"
       inkscape:connector-curvature="0" />
    <path
       d="m 16.054,19.433 -0.73,0 0,0.954 -0.442,0.477 2.123,0 0,-0.557 -0.951,0 z m -1.971,-3.595 -0.224,0.196 c 0,0 -0.969,0.706 -0.647,1.388 -0.18,0.251 -0.588,0.753 -0.275,1.263 0.314,0.51 0.612,0.965 0.416,1.443 0.588,-0.306 0.855,-0.871 0.674,-1.506 -0.151,-0.533 0.597,-0.941 0.844,-1.06 l 0.452,0.682 0,0.628 0.731,0 0,-1.078 -0.633,0 -1.338,-1.956 z m 8.867,1.585 c 0.322,-0.682 -0.647,-1.388 -0.647,-1.388 l -0.224,-0.196 -1.338,1.956 -0.633,0 0,1.078 0.731,0 0,-0.628 0.452,-0.682 c 0.246,0.118 0.995,0.526 0.844,1.06 -0.18,0.635 0.086,1.2 0.674,1.506 -0.196,-0.478 0.102,-0.933 0.416,-1.443 0.313,-0.51 -0.095,-1.012 -0.275,-1.263 z"
       id="path28"
       inkscape:connector-curvature="0" />
  </g>
  <path
     d="m 21.672,21.086 c 0,0.192 -0.156,0.348 -0.348,0.348 -0.192,0 -1.289,-0.156 -1.289,-0.348 0,-0.192 1.097,-0.348 1.289,-0.348 0.193,0 0.348,0.156 0.348,0.348 z"
     id="path30"
     inkscape:connector-curvature="0"
     style="fill:#ffffff" />
  <path
     d="m 22.922,21.112 c 0.98,-0.183 1.019,-0.713 1.019,-0.713 0,0 -0.533,0.339 -1.16,0.214 -0.627,-0.125 -1.193,-0.105 -1.193,-0.105 0,0 0.597,0.662 0.095,0.991 -0.222,0.146 -0.837,0.084 -1.105,0.025 -0.268,-0.059 -0.845,-0.166 -0.971,-0.166 -0.192,0 -0.348,0.156 -0.348,0.348 0,0.192 0.156,0.348 0.348,0.348 0.128,0 0.698,-0.106 0.995,-0.174 0.297,-0.068 0.505,-0.1 0.728,-0.146 0.267,-0.055 0.824,0.016 1.522,0.071 0.698,0.055 1.208,-0.267 1.443,-0.549 -0.495,0.157 -1.146,-0.031 -1.373,-0.144 z m 4.706,-7.901 c 0.039,-0.095 -0.856,0.573 -1.467,0.498 -0.611,-0.075 -1.785,-0.242 -2.025,0.214 -0.241,0.455 -0.456,0.927 -0.456,0.927 0,0 0.407,-0.237 0.934,-0.24 0.529,-0.003 1.64,-0.054 2.077,-0.2 0.439,-0.147 0.781,-0.824 0.937,-1.199 z m -0.845,-2.954 c -0.011,-0.199 -0.407,-0.115 -0.489,-0.28 -0.081,-0.165 0.222,-0.516 0.054,-0.635 -0.167,-0.119 -1.019,0.644 -1.493,1.155 -0.474,0.512 -0.606,1.329 -0.453,1.57 0.151,0.241 0.054,0.021 0.054,0.021 0,0 0.3,-0.595 0.781,-0.838 0.481,-0.242 1.546,-0.993 1.546,-0.993 z m -12.902,8.527 c 0.032,0.08 0.141,0.151 0.227,0.117 0.086,-0.034 0.116,-0.161 0.084,-0.241 -0.032,-0.08 -0.277,-0.319 -0.303,-0.309 -0.026,0.01 -0.04,0.353 -0.008,0.433 z m -0.06,0.075 c 0.085,0.014 0.179,0.104 0.164,0.196 -0.015,0.091 -0.131,0.149 -0.217,0.135 -0.086,-0.014 -0.372,-0.201 -0.368,-0.228 0.005,-0.027 0.336,-0.116 0.421,-0.103 z m -0.352,-0.401 c 0.03,0.074 0.131,0.14 0.21,0.109 0.079,-0.031 0.108,-0.149 0.078,-0.224 -0.03,-0.075 -0.257,-0.296 -0.281,-0.287 -0.024,0.009 -0.037,0.328 -0.007,0.402 z m -0.056,0.07 c 0.079,0.013 0.166,0.097 0.152,0.182 -0.014,0.085 -0.122,0.138 -0.201,0.125 -0.079,-0.013 -0.345,-0.186 -0.341,-0.212 0.004,-0.026 0.311,-0.107 0.39,-0.095 z m 1.831,0.538 c 0.019,0.102 0.13,0.212 0.24,0.192 0.109,-0.02 0.175,-0.162 0.157,-0.264 -0.019,-0.102 -0.251,-0.442 -0.284,-0.436 -0.033,0.006 -0.132,0.406 -0.113,0.508 z m -0.089,0.074 c 0.097,0.036 0.186,0.166 0.147,0.27 -0.039,0.104 -0.19,0.144 -0.288,0.108 -0.097,-0.036 -0.391,-0.325 -0.379,-0.357 0.011,-0.031 0.423,-0.057 0.52,-0.021 z m -0.266,-0.483 c 0.015,0.085 0.108,0.176 0.199,0.16 0.091,-0.017 0.146,-0.135 0.13,-0.22 -0.015,-0.085 -0.209,-0.368 -0.236,-0.363 -0.027,0.005 -0.108,0.338 -0.093,0.423 z m -0.074,0.062 c 0.081,0.03 0.154,0.138 0.122,0.224 -0.032,0.086 -0.158,0.12 -0.239,0.09 -0.081,-0.03 -0.325,-0.271 -0.315,-0.297 0.009,-0.025 0.351,-0.047 0.432,-0.017 z m -0.266,-0.462 c 0.014,0.079 0.1,0.163 0.185,0.148 0.084,-0.015 0.135,-0.125 0.121,-0.204 -0.014,-0.079 -0.194,-0.341 -0.219,-0.337 -0.025,0.005 -0.101,0.314 -0.087,0.393 z m -0.068,0.057 c 0.075,0.028 0.143,0.128 0.113,0.208 -0.03,0.08 -0.147,0.111 -0.222,0.083 -0.075,-0.028 -0.301,-0.251 -0.293,-0.275 0.01,-0.024 0.327,-0.044 0.402,-0.016 z m -0.225,-0.402 c 0.013,0.071 0.091,0.148 0.167,0.134 0.076,-0.014 0.122,-0.113 0.109,-0.184 -0.013,-0.071 -0.175,-0.309 -0.198,-0.304 -0.023,0.003 -0.091,0.283 -0.078,0.354 z m -0.063,0.052 c 0.068,0.025 0.13,0.115 0.102,0.188 -0.027,0.073 -0.133,0.1 -0.201,0.075 -0.068,-0.025 -0.273,-0.227 -0.265,-0.249 0.01,-0.021 0.297,-0.039 0.364,-0.014 z m 0.098,1.755 c 0.076,0.07 0.231,0.091 0.307,0.009 0.076,-0.082 0.043,-0.235 -0.033,-0.305 -0.076,-0.07 -0.467,-0.202 -0.489,-0.178 -0.024,0.025 0.138,0.404 0.215,0.474 z m -0.027,0.113 c 0.1,-0.029 0.248,0.021 0.279,0.127 0.032,0.107 -0.066,0.229 -0.165,0.259 -0.1,0.029 -0.508,-0.025 -0.517,-0.057 -0.009,-0.032 0.304,-0.299 0.403,-0.329 z m -0.502,-0.226 c 0.063,0.059 0.192,0.076 0.255,0.008 0.063,-0.068 0.036,-0.195 -0.028,-0.254 -0.063,-0.059 -0.388,-0.168 -0.407,-0.148 -0.019,0.02 0.116,0.335 0.18,0.394 z M 13.74,19.7 c 0.083,-0.025 0.206,0.017 0.232,0.106 0.026,0.089 -0.054,0.191 -0.137,0.215 -0.083,0.025 -0.422,-0.021 -0.43,-0.047 -0.008,-0.027 0.252,-0.25 0.335,-0.274 z m -0.491,-0.21 c 0.059,0.054 0.178,0.07 0.237,0.007 0.058,-0.063 0.033,-0.181 -0.026,-0.235 -0.059,-0.054 -0.36,-0.156 -0.377,-0.137 -0.018,0.018 0.107,0.31 0.166,0.365 z m -0.02,0.087 c 0.077,-0.023 0.191,0.016 0.216,0.098 0.024,0.082 -0.051,0.177 -0.127,0.2 -0.077,0.023 -0.392,-0.019 -0.399,-0.044 -0.007,-0.025 0.233,-0.231 0.31,-0.254 z m -0.422,-0.186 c 0.053,0.049 0.161,0.064 0.214,0.007 0.053,-0.057 0.03,-0.164 -0.023,-0.213 -0.053,-0.049 -0.326,-0.141 -0.341,-0.124 -0.016,0.017 0.097,0.281 0.15,0.33 z m -0.018,0.079 c 0.069,-0.021 0.173,0.014 0.195,0.089 0.022,0.074 -0.046,0.16 -0.115,0.181 -0.069,0.021 -0.354,-0.017 -0.361,-0.04 -0.007,-0.022 0.211,-0.209 0.281,-0.23 z m -0.343,-2.771 c -0.013,0.103 0.061,0.241 0.172,0.254 0.11,0.013 0.215,-0.103 0.228,-0.206 0.013,-0.103 -0.109,-0.497 -0.142,-0.501 -0.033,-0.004 -0.246,0.35 -0.258,0.453 z m -0.107,0.044 c 0.082,0.063 0.128,0.213 0.06,0.301 -0.068,0.088 -0.224,0.081 -0.307,0.018 -0.082,-0.063 -0.277,-0.427 -0.257,-0.453 0.021,-0.026 0.421,0.071 0.504,0.134 z m -0.111,-0.54 c -0.01,0.086 0.051,0.2 0.143,0.212 0.092,0.011 0.179,-0.085 0.19,-0.171 0.01,-0.086 -0.091,-0.413 -0.118,-0.417 -0.028,-0.003 -0.204,0.29 -0.215,0.376 z m -0.089,0.037 c 0.068,0.053 0.107,0.177 0.05,0.25 -0.057,0.073 -0.187,0.067 -0.255,0.015 -0.068,-0.053 -0.23,-0.355 -0.213,-0.377 0.017,-0.021 0.35,0.06 0.418,0.112 z m -0.117,-0.52 c -0.01,0.079 0.047,0.186 0.133,0.196 0.086,0.01 0.166,-0.079 0.176,-0.159 0.01,-0.079 -0.084,-0.383 -0.109,-0.386 -0.025,-0.003 -0.19,0.269 -0.2,0.349 z m -0.082,0.034 c 0.063,0.049 0.099,0.164 0.046,0.232 -0.052,0.068 -0.173,0.063 -0.236,0.014 -0.063,-0.049 -0.214,-0.329 -0.198,-0.349 0.016,-0.02 0.324,0.054 0.388,0.103 z m -0.096,-0.45 c -0.009,0.072 0.043,0.168 0.12,0.178 0.077,0.009 0.15,-0.072 0.159,-0.144 0.009,-0.072 -0.076,-0.347 -0.099,-0.349 -0.023,-0.004 -0.171,0.243 -0.18,0.315 z m -0.075,0.031 c 0.057,0.044 0.089,0.149 0.042,0.21 -0.047,0.061 -0.157,0.057 -0.214,0.012 -0.057,-0.044 -0.193,-0.298 -0.179,-0.316 0.014,-0.018 0.294,0.049 0.351,0.094 z m -0.427,1.705 c 0.052,0.09 0.194,0.156 0.29,0.1 0.096,-0.056 0.11,-0.212 0.059,-0.301 -0.051,-0.089 -0.386,-0.332 -0.414,-0.315 -0.028,0.017 0.013,0.426 0.065,0.516 z m -0.059,0.1 c 0.104,10e-4 0.231,0.093 0.229,0.204 -0.002,0.111 -0.131,0.2 -0.234,0.198 -0.104,-0.001 -0.478,-0.174 -0.477,-0.208 0,-0.032 0.378,-0.195 0.482,-0.194 z M 10.87,16.775 c 0.043,0.075 0.161,0.129 0.241,0.083 0.08,-0.046 0.092,-0.176 0.049,-0.251 -0.043,-0.075 -0.321,-0.276 -0.345,-0.262 -0.023,0.014 0.012,0.355 0.055,0.43 z m -0.049,0.083 c 0.086,0.001 0.192,0.078 0.191,0.17 -0.001,0.093 -0.109,0.166 -0.195,0.165 -0.086,-0.001 -0.397,-0.145 -0.397,-0.173 0,-0.027 0.315,-0.163 0.401,-0.162 z m -0.406,-0.346 c 0.04,0.069 0.15,0.12 0.224,0.077 0.074,-0.043 0.085,-0.163 0.045,-0.232 -0.04,-0.069 -0.297,-0.256 -0.32,-0.243 -0.023,0.013 0.011,0.329 0.051,0.398 z m -0.045,0.077 c 0.08,0.001 0.178,0.072 0.177,0.158 -0.001,0.086 -0.101,0.154 -0.181,0.153 -0.08,-10e-4 -0.368,-0.135 -0.368,-0.16 0,-0.025 0.292,-0.152 0.372,-0.151 z m -0.348,-0.302 c 0.036,0.063 0.135,0.109 0.203,0.07 0.067,-0.039 0.077,-0.148 0.041,-0.21 -0.036,-0.062 -0.269,-0.231 -0.289,-0.22 -0.021,0.011 0.009,0.297 0.045,0.36 z m -0.041,0.07 c 0.072,0.001 0.161,0.065 0.16,0.143 C 10.14,16.578 10.05,16.639 9.977,16.638 9.904,16.637 9.644,16.516 9.644,16.493 9.645,16.47 9.909,16.356 9.981,16.357 Z m 1.051,-0.555 c 0.002,0.104 0.096,0.23 0.207,0.227 0.111,-0.003 0.198,-0.133 0.196,-0.236 -0.002,-0.103 -0.179,-0.476 -0.212,-0.475 -0.034,0 -0.193,0.38 -0.191,0.484 z m -0.099,0.06 c 0.09,0.051 0.158,0.192 0.103,0.289 -0.055,0.097 -0.21,0.113 -0.301,0.062 -0.09,-0.051 -0.335,-0.382 -0.319,-0.411 0.016,-0.03 0.426,0.009 0.517,0.06 z m -0.187,-0.519 c 0.002,0.086 0.079,0.191 0.172,0.189 0.093,-0.002 0.165,-0.11 0.163,-0.197 -0.002,-0.086 -0.149,-0.396 -0.177,-0.395 -0.028,0.001 -0.16,0.317 -0.158,0.403 z m -0.083,0.05 c 0.075,0.042 0.131,0.16 0.086,0.241 -0.045,0.081 -0.175,0.094 -0.25,0.051 -0.075,-0.043 -0.279,-0.318 -0.265,-0.342 0.013,-0.025 0.354,0.007 0.429,0.05 z m -0.19,-0.499 c 0.002,0.08 0.074,0.177 0.159,0.175 0.086,-0.002 0.153,-0.102 0.151,-0.182 -0.002,-0.08 -0.138,-0.367 -0.164,-0.367 -0.025,0.001 -0.148,0.294 -0.146,0.374 z m -0.077,0.046 c 0.07,0.039 0.122,0.148 0.079,0.223 -0.043,0.075 -0.162,0.087 -0.232,0.047 -0.07,-0.039 -0.259,-0.295 -0.246,-0.317 0.013,-0.022 0.329,0.008 0.399,0.047 z m 0.844,-1.708 c -0.041,0.096 -0.007,0.249 0.095,0.292 0.102,0.043 0.235,-0.039 0.276,-0.135 0.041,-0.096 0.033,-0.508 0.002,-0.521 -0.031,-0.012 -0.332,0.269 -0.373,0.364 z m -0.115,0.014 c 0.061,0.084 0.064,0.24 -0.025,0.306 -0.09,0.066 -0.238,0.016 -0.3,-0.068 -0.061,-0.084 -0.148,-0.486 -0.122,-0.506 0.026,-0.02 0.386,0.184 0.447,0.268 z m 0.043,-0.55 c -0.034,0.079 -0.006,0.207 0.079,0.243 0.085,0.036 0.196,-0.033 0.229,-0.112 0.033,-0.079 0.027,-0.422 0.002,-0.433 -0.025,-0.011 -0.276,0.223 -0.31,0.302 z m -0.096,0.011 c 0.051,0.07 0.054,0.2 -0.021,0.255 -0.075,0.055 -0.198,0.013 -0.249,-0.056 -0.051,-0.07 -0.123,-0.405 -0.101,-0.421 0.022,-0.017 0.32,0.153 0.371,0.222 z m 0.032,-0.532 c -0.031,0.074 -0.006,0.192 0.073,0.225 0.079,0.033 0.182,-0.03 0.213,-0.104 0.031,-0.074 0.025,-0.391 10e-4,-0.401 -0.023,-0.01 -0.256,0.206 -0.287,0.28 z m -0.089,0.01 c 0.047,0.065 0.05,0.185 -0.019,0.236 -0.069,0.051 -0.184,0.012 -0.231,-0.052 -0.047,-0.065 -0.114,-0.375 -0.094,-0.39 0.02,-0.016 0.296,0.142 0.344,0.206 z m 0.032,-0.46 c -0.028,0.067 -0.005,0.173 0.066,0.204 0.071,0.03 0.164,-0.027 0.193,-0.094 0.028,-0.067 0.023,-0.354 0.001,-0.363 -0.021,-0.009 -0.232,0.187 -0.26,0.253 z m -0.081,0.01 c 0.043,0.058 0.045,0.168 -0.018,0.214 -0.063,0.046 -0.166,0.011 -0.209,-0.047 -0.043,-0.058 -0.104,-0.339 -0.085,-0.353 0.02,-0.015 0.27,0.127 0.312,0.186 z m -0.881,1.521 c 0.025,0.101 0.144,0.203 0.251,0.176 0.108,-0.027 0.165,-0.173 0.139,-0.274 -0.025,-0.101 -0.279,-0.425 -0.311,-0.417 -0.032,0.008 -0.104,0.414 -0.079,0.515 z m -0.084,0.08 c 0.099,0.03 0.196,0.153 0.164,0.26 -0.032,0.107 -0.181,0.156 -0.28,0.126 -0.099,-0.03 -0.411,-0.3 -0.401,-0.331 0.009,-0.033 0.418,-0.085 0.517,-0.055 z M 9.705,12.871 c 0.021,0.084 0.119,0.169 0.209,0.147 0.09,-0.022 0.137,-0.144 0.116,-0.228 C 10.009,12.706 9.798,12.436 9.771,12.443 9.744,12.45 9.684,12.787 9.705,12.871 Z m -0.07,0.066 c 0.083,0.025 0.163,0.127 0.136,0.216 -0.027,0.089 -0.15,0.13 -0.233,0.105 C 9.455,13.233 9.196,13.009 9.204,12.982 9.212,12.956 9.552,12.913 9.635,12.937 Z M 9.34,12.493 C 9.359,12.571 9.451,12.65 9.534,12.629 9.617,12.608 9.661,12.496 9.642,12.418 9.623,12.34 9.427,12.09 9.402,12.096 9.377,12.102 9.321,12.415 9.34,12.493 Z m -0.065,0.062 c 0.077,0.023 0.151,0.118 0.126,0.2 -0.025,0.082 -0.139,0.12 -0.216,0.097 -0.077,-0.023 -0.317,-0.231 -0.31,-0.256 0.008,-0.024 0.323,-0.065 0.4,-0.041 z m -0.25,-0.387 c 0.018,0.07 0.1,0.142 0.175,0.123 C 9.275,12.272 9.315,12.17 9.297,12.1 9.279,12.03 9.102,11.803 9.08,11.809 9.057,11.814 9.007,12.098 9.025,12.168 Z m -0.059,0.056 c 0.069,0.021 0.137,0.107 0.114,0.181 -0.022,0.074 -0.126,0.109 -0.195,0.088 -0.069,-0.021 -0.287,-0.209 -0.28,-0.231 0.006,-0.023 0.291,-0.059 0.361,-0.038 z m 1.163,-0.243 c -0.026,0.1 0.028,0.247 0.136,0.275 0.108,0.028 0.227,-0.073 0.254,-0.173 0.026,-0.1 -0.041,-0.507 -0.073,-0.515 -0.032,-0.009 -0.29,0.312 -0.317,0.413 z m -0.112,0.029 c 0.073,0.074 0.098,0.228 0.019,0.306 -0.079,0.078 -0.233,0.05 -0.306,-0.024 -0.073,-0.074 -0.217,-0.46 -0.193,-0.483 0.024,-0.023 0.407,0.128 0.48,0.201 z M 9.981,11.46 c -0.022,0.084 0.024,0.205 0.113,0.229 0.089,0.023 0.189,-0.06 0.211,-0.144 0.022,-0.084 -0.034,-0.422 -0.061,-0.429 -0.027,-0.007 -0.242,0.261 -0.263,0.344 z m -0.094,0.025 c 0.061,0.062 0.082,0.19 0.016,0.255 -0.066,0.065 -0.194,0.042 -0.255,-0.02 -0.061,-0.062 -0.18,-0.383 -0.161,-0.402 0.019,-0.019 0.34,0.106 0.4,0.167 z M 9.842,10.954 c -0.02,0.077 0.022,0.191 0.105,0.212 0.083,0.022 0.175,-0.056 0.196,-0.134 0.02,-0.077 -0.032,-0.391 -0.056,-0.398 -0.026,-0.006 -0.225,0.242 -0.245,0.32 z m -0.087,0.023 c 0.056,0.057 0.076,0.176 0.015,0.236 -0.061,0.06 -0.18,0.039 -0.236,-0.018 -0.056,-0.057 -0.167,-0.355 -0.149,-0.373 0.018,-0.018 0.314,0.098 0.37,0.155 z m 1.337,-1.141 c -0.09,0.035 -0.169,0.157 -0.131,0.253 0.038,0.096 0.179,0.13 0.268,0.095 0.089,-0.035 0.357,-0.308 0.345,-0.337 C 11.563,9.818 11.181,9.801 11.092,9.836 Z M 11.008,9.768 C 10.993,9.863 10.891,9.967 10.789,9.95 10.687,9.933 10.624,9.803 10.639,9.708 c 0.015,-0.095 0.225,-0.414 0.256,-0.409 0.03,0.005 0.128,0.374 0.113,0.469 z M 11.399,9.44 C 11.325,9.469 11.258,9.57 11.29,9.65 11.321,9.73 11.439,9.758 11.513,9.729 11.587,9.7 11.81,9.473 11.8,9.449 11.791,9.425 11.474,9.41 11.399,9.44 Z M 11.33,9.384 C 11.317,9.463 11.233,9.549 11.148,9.535 11.063,9.521 11.011,9.413 11.023,9.334 11.036,9.255 11.21,8.99 11.236,8.994 c 0.025,0.004 0.106,0.311 0.094,0.39 z m 0.372,-0.326 c -0.069,0.027 -0.131,0.121 -0.101,0.195 0.03,0.074 0.138,0.1 0.207,0.073 0.069,-0.027 0.275,-0.238 0.266,-0.26 C 12.066,9.044 11.771,9.031 11.702,9.058 Z M 11.638,9.006 C 11.626,9.079 11.548,9.159 11.469,9.146 11.39,9.133 11.342,9.033 11.353,8.959 11.365,8.886 11.527,8.64 11.55,8.643 c 0.024,0.005 0.1,0.29 0.088,0.363 z m 0.325,-0.277 c -0.062,0.025 -0.118,0.109 -0.092,0.176 0.026,0.067 0.125,0.091 0.187,0.066 C 12.12,8.946 12.307,8.756 12.299,8.736 12.291,8.716 12.025,8.704 11.963,8.729 Z M 11.904,8.682 C 11.893,8.748 11.822,8.821 11.751,8.809 11.68,8.797 11.636,8.706 11.646,8.64 c 0.01,-0.066 0.157,-0.289 0.178,-0.286 0.023,0.004 0.091,0.262 0.08,0.328 z m -1.578,0.405 c -0.05,0.082 -0.041,0.227 0.047,0.281 0.088,0.054 0.221,-0.004 0.271,-0.086 0.05,-0.082 0.1,-0.461 0.073,-0.477 -0.026,-0.016 -0.341,0.2 -0.391,0.282 z M 10.218,9.084 C 10.263,9.169 10.244,9.313 10.153,9.361 10.062,9.409 9.933,9.343 9.888,9.258 9.843,9.173 9.819,8.792 9.846,8.777 9.873,8.762 10.173,8.998 10.218,9.084 Z M 10.333,8.586 C 10.291,8.654 10.299,8.775 10.372,8.82 10.445,8.865 10.556,8.817 10.598,8.749 10.64,8.681 10.681,8.366 10.659,8.352 10.637,8.338 10.375,8.517 10.333,8.586 Z M 10.244,8.583 C 10.281,8.654 10.266,8.774 10.19,8.813 10.114,8.853 10.007,8.798 9.969,8.727 9.932,8.656 9.912,8.339 9.934,8.327 9.957,8.315 10.207,8.512 10.244,8.583 Z M 10.346,8.099 C 10.307,8.162 10.314,8.274 10.382,8.316 10.45,8.358 10.553,8.313 10.591,8.25 10.63,8.187 10.668,7.895 10.648,7.882 10.628,7.869 10.385,8.035 10.346,8.099 Z M 10.263,8.096 c 0.035,0.066 0.02,0.177 -0.05,0.214 C 10.143,8.347 10.043,8.296 10.008,8.23 9.973,8.164 9.955,7.87 9.976,7.859 9.997,7.848 10.229,8.03 10.263,8.096 Z m 0.093,-0.417 c -0.035,0.057 -0.029,0.158 0.033,0.196 0.062,0.038 0.154,-0.002 0.189,-0.06 0.035,-0.058 0.07,-0.322 0.051,-0.333 -0.018,-0.011 -0.238,0.14 -0.273,0.197 z M 10.281,7.677 C 10.312,7.736 10.299,7.837 10.235,7.87 10.171,7.903 10.081,7.857 10.05,7.798 10.019,7.739 10.002,7.473 10.021,7.463 10.04,7.452 10.25,7.617 10.281,7.677 Z m 0.917,0.611 C 11.114,8.336 11.053,8.467 11.104,8.557 11.155,8.646 11.3,8.66 11.383,8.612 11.467,8.564 11.692,8.256 11.676,8.229 11.661,8.202 11.281,8.24 11.198,8.288 Z M 11.105,8.233 C 11.103,8.329 11.018,8.446 10.915,8.445 10.812,8.443 10.73,8.323 10.732,8.227 c 0.002,-0.096 0.163,-0.442 0.194,-0.442 0.031,10e-4 0.181,0.352 0.179,0.448 z m 0.34,-0.381 C 11.376,7.892 11.324,8.001 11.367,8.076 11.41,8.15 11.53,8.162 11.599,8.122 11.668,8.082 11.856,7.826 11.843,7.803 11.831,7.78 11.514,7.812 11.445,7.852 Z M 11.368,7.806 C 11.367,7.886 11.296,7.984 11.21,7.982 11.124,7.981 11.056,7.881 11.058,7.801 c 10e-4,-0.08 0.136,-0.368 0.161,-0.367 0.025,0 0.15,0.292 0.149,0.372 z M 11.69,7.431 c -0.064,0.037 -0.112,0.138 -0.072,0.207 0.04,0.069 0.151,0.08 0.215,0.043 C 11.897,7.644 12.071,7.406 12.059,7.385 12.048,7.364 11.754,7.394 11.69,7.431 Z M 11.619,7.388 C 11.618,7.462 11.552,7.553 11.472,7.551 11.392,7.55 11.33,7.457 11.331,7.383 c 0.001,-0.074 0.126,-0.341 0.15,-0.341 0.024,0 0.139,0.272 0.138,0.346 z"
     id="path32"
     inkscape:connector-curvature="0"
     style="fill:#ffffff" />
  <path
     d="m 10.469,18.117 c 0,0 0.716,-0.008 1.328,-0.421 0.612,-0.413 1.865,-1.173 2.868,-0.188 0,0 -0.7,-0.118 -1.226,0.319 -0.526,0.438 -1.341,0.951 -2.027,0.894 -0.685,-0.056 -0.943,-0.604 -0.943,-0.604 z m 9.849,1.449 c 0,0 -1.2,0.353 -2.353,0.329 -1.153,0.024 -2.353,-0.329 -2.353,-0.329 l -1.106,1.059 c 0,0 0.424,-0.129 1.129,0.188 0.66,0.297 1.424,0.608 2.329,0.608 0.905,0 1.67,-0.311 2.329,-0.608 0.706,-0.318 1.129,-0.188 1.129,-0.188 l -1.104,-1.059 z"
     id="path34"
     inkscape:connector-curvature="0"
     style="fill:#ffffff" />
  <path
     d="m 14.257,21.086 c 0,0.192 0.156,0.348 0.348,0.348 0.192,0 1.289,-0.156 1.289,-0.348 0,-0.192 -1.097,-0.348 -1.289,-0.348 -0.192,0 -0.348,0.156 -0.348,0.348 z"
     id="path36"
     inkscape:connector-curvature="0"
     style="fill:#ffffff" />
  <path
     d="m 13.008,21.112 c -0.98,-0.183 -1.019,-0.713 -1.019,-0.713 0,0 0.533,0.339 1.16,0.214 0.627,-0.125 1.193,-0.105 1.193,-0.105 0,0 -0.597,0.662 -0.095,0.991 0.222,0.146 0.837,0.084 1.105,0.025 0.268,-0.059 0.845,-0.166 0.971,-0.166 0.192,0 0.348,0.156 0.348,0.348 0,0.192 -0.156,0.348 -0.348,0.348 -0.128,0 -0.698,-0.106 -0.995,-0.174 -0.297,-0.068 -0.505,-0.1 -0.728,-0.146 -0.267,-0.055 -0.824,0.016 -1.522,0.071 -0.698,0.055 -1.208,-0.267 -1.443,-0.549 0.494,0.157 1.145,-0.031 1.373,-0.144 z M 8.301,13.211 c -0.039,-0.095 0.856,0.573 1.467,0.498 0.611,-0.075 1.785,-0.242 2.025,0.214 0.241,0.455 0.456,0.927 0.456,0.927 0,0 -0.407,-0.237 -0.934,-0.24 C 10.786,14.607 9.675,14.556 9.238,14.41 8.8,14.263 8.457,13.586 8.301,13.211 Z M 9.146,10.257 C 9.157,10.058 9.553,10.142 9.635,9.977 9.717,9.812 9.413,9.461 9.581,9.342 c 0.167,-0.119 1.019,0.644 1.493,1.155 0.474,0.512 0.606,1.329 0.453,1.57 -0.151,0.241 -0.054,0.021 -0.054,0.021 0,0 -0.3,-0.595 -0.781,-0.838 -0.481,-0.242 -1.546,-0.993 -1.546,-0.993 z m 11.054,7.82 c -0.196,0.048 -0.44,0.292 -0.669,0.633 -0.024,-0.332 -0.294,-0.595 -0.631,-0.595 -0.081,0 -0.157,0.019 -0.229,0.046 -0.084,-0.118 -0.215,-0.199 -0.371,-0.199 -0.121,0 -0.229,0.049 -0.312,0.125 -0.083,-0.076 -0.191,-0.125 -0.312,-0.125 -0.156,0 -0.287,0.082 -0.371,0.199 -0.071,-0.028 -0.148,-0.046 -0.229,-0.046 -0.35,0 -0.633,0.282 -0.638,0.631 -0.236,-0.359 -0.488,-0.619 -0.691,-0.668 -0.335,-0.082 -0.594,-0.435 -0.818,-0.594 0,0 0.021,0.607 0.624,1.041 0.4,0.288 0.294,0.953 0.294,0.953 0,0 0.729,0.182 1.059,0.218 -0.05,-0.147 -0.115,-0.281 -0.177,-0.416 0.058,0.039 0.121,0.067 0.19,0.085 l 0.186,0.347 c 0,0 0.428,0.039 0.881,0.039 0.453,0 0.884,-0.039 0.884,-0.039 l 0.186,-0.347 c 0.053,-0.014 0.103,-0.031 0.15,-0.057 -0.058,0.127 -0.118,0.252 -0.165,0.389 0.329,-0.035 1.059,-0.218 1.059,-0.218 0,0 -0.106,-0.665 0.294,-0.953 0.602,-0.434 0.624,-1.041 0.624,-1.041 -0.224,0.157 -0.483,0.51 -0.818,0.592 z"
     id="path38"
     inkscape:connector-curvature="0"
     style="fill:#ffffff" />
</svg>
