<?xml version="1.0" encoding="UTF-8" standalone="no"?>
<svg
   xmlns:dc="http://purl.org/dc/elements/1.1/"
   xmlns:cc="http://creativecommons.org/ns#"
   xmlns:rdf="http://www.w3.org/1999/02/22-rdf-syntax-ns#"
   xmlns:svg="http://www.w3.org/2000/svg"
   xmlns="http://www.w3.org/2000/svg"
   xmlns:sodipodi="http://sodipodi.sourceforge.net/DTD/sodipodi-0.dtd"
   xmlns:inkscape="http://www.inkscape.org/namespaces/inkscape"
   viewBox="0 0 36 26"
   id="svg2"
   version="1.1"
   inkscape:version="0.91 r13725"
   sodipodi:docname="1f1ee-1f1f3.svg"
   width="36"
   height="26">
  <metadata
     id="metadata22">
    <rdf:RDF>
      <cc:Work
         rdf:about="">
        <dc:format>image/svg+xml</dc:format>
        <dc:type
           rdf:resource="http://purl.org/dc/dcmitype/StillImage" />
      </cc:Work>
    </rdf:RDF>
  </metadata>
  <defs
     id="defs20" />
  <sodipodi:namedview
     pagecolor="#ffffff"
     bordercolor="#666666"
     borderopacity="1"
     objecttolerance="10"
     gridtolerance="10"
     guidetolerance="10"
     inkscape:pageopacity="0"
     inkscape:pageshadow="2"
     inkscape:window-width="640"
     inkscape:window-height="480"
     id="namedview18"
     showgrid="false"
     inkscape:zoom="6.5555556"
     inkscape:cx="18"
     inkscape:cy="13"
     inkscape:window-x="0"
     inkscape:window-y="0"
     inkscape:window-maximized="0"
     inkscape:current-layer="svg2" />
  <path
     d="m 0,22 c 0,2.209 1.791,4 4,4 l 28,0 c 2.209,0 4,-1.791 4,-4 l 0,-4 -36,0 0,4 z"
     id="path4"
     inkscape:connector-curvature="0"
     style="fill:#138808" />
  <path
     d="M 0,8 36,8 36,18 0,18 Z"
     id="path6"
     inkscape:connector-curvature="0"
     style="fill:#eeeeee" />
  <path
     d="M 36,8 36,4 C 36,1.791 34.209,0 32,0 L 4,0 C 1.791,0 0,1.791 0,4 l 0,4 36,0 z"
     id="path8"
     inkscape:connector-curvature="0"
     style="fill:#ff9933" />
  <circle
     cx="18"
     cy="13"
     r="4"
     id="circle10"
     style="fill:#000080" />
  <circle
     cx="18"
     cy="13"
     r="3"
     id="circle12"
     style="fill:#eeeeee" />
  <path
     d="m 18,10 0.146,2.264 1.001,-2.035 -0.73,2.147 1.704,-1.498 -1.497,1.705 2.147,-0.731 -2.035,1.002 L 21,13 l -2.264,0.146 2.035,1.001 -2.147,-0.73 1.497,1.704 -1.704,-1.497 0.73,2.147 L 18.146,13.736 18,16 l -0.146,-2.264 -1.002,2.035 0.731,-2.147 -1.705,1.497 1.498,-1.704 -2.147,0.73 2.035,-1.001 L 15,13 l 2.264,-0.146 -2.035,-1.002 2.147,0.731 -1.498,-1.705 1.705,1.498 -0.731,-2.147 1.002,2.035 z"
     id="path14"
     inkscape:connector-curvature="0"
     style="fill:#6666b3" />
  <circle
     cx="18"
     cy="13"
     r="1"
     id="circle16"
     style="fill:#000080" />
</svg>
