<?xml version="1.0" encoding="UTF-8" standalone="no"?>
<svg
   xmlns:dc="http://purl.org/dc/elements/1.1/"
   xmlns:cc="http://creativecommons.org/ns#"
   xmlns:rdf="http://www.w3.org/1999/02/22-rdf-syntax-ns#"
   xmlns:svg="http://www.w3.org/2000/svg"
   xmlns="http://www.w3.org/2000/svg"
   xmlns:sodipodi="http://sodipodi.sourceforge.net/DTD/sodipodi-0.dtd"
   xmlns:inkscape="http://www.inkscape.org/namespaces/inkscape"
   viewBox="0 0 36 26"
   id="svg2"
   version="1.1"
   inkscape:version="0.91 r13725"
   sodipodi:docname="1f1ee-1f1f4.svg"
   width="36"
   height="26">
  <metadata
     id="metadata48">
    <rdf:RDF>
      <cc:Work
         rdf:about="">
        <dc:format>image/svg+xml</dc:format>
        <dc:type
           rdf:resource="http://purl.org/dc/dcmitype/StillImage" />
      </cc:Work>
    </rdf:RDF>
  </metadata>
  <defs
     id="defs46" />
  <sodipodi:namedview
     pagecolor="#ffffff"
     bordercolor="#666666"
     borderopacity="1"
     objecttolerance="10"
     gridtolerance="10"
     guidetolerance="10"
     inkscape:pageopacity="0"
     inkscape:pageshadow="2"
     inkscape:window-width="640"
     inkscape:window-height="480"
     id="namedview44"
     showgrid="false"
     inkscape:zoom="6.5555556"
     inkscape:cx="18"
     inkscape:cy="13"
     inkscape:window-x="0"
     inkscape:window-y="0"
     inkscape:window-maximized="0"
     inkscape:current-layer="svg2" />
  <path
     d="m 36,22 c 0,2.209 -1.791,4 -4,4 L 4,26 C 1.791,26 0,24.209 0,22 L 0,4 C 0,1.791 1.791,0 4,0 l 28,0 c 2.209,0 4,1.791 4,4 l 0,18 z"
     id="path4"
     inkscape:connector-curvature="0"
     style="fill:#eeeeee" />
  <path
     d="m 34.363,23.125 c -1.817,0 -1.817,-1.062 -3.636,-1.062 -1.818,0 -1.818,1 -3.693,1 -1.762,0 -1.762,-1 -3.608,-1 -1.789,0 -1.789,1 -3.607,1 -1.818,0 -1.818,-1 -3.637,-1 -1.818,0 -1.818,1 -3.636,1 -1.818,0 -1.818,-1 -3.636,-1 -1.818,0 -1.818,1 -3.636,1 -1.818,0 -1.818,-1 -3.637,-1 -0.762,0 -1.201,0.178 -1.591,0.383 0.071,0.638 0.277,1.233 0.613,1.744 0.263,-0.077 0.575,-0.127 0.979,-0.127 1.818,0 1.818,1 3.637,1 1.818,0 1.818,-1 3.636,-1 1.818,0 1.818,1 3.636,1 1.818,0 1.818,-1 3.636,-1 1.818,0 1.818,1 3.637,1 1.818,0 1.818,-1 3.629,-1 1.825,0 1.825,1 3.64,1 1.822,0 1.822,-1 3.639,-1 1.82,0 1.82,0.969 3.638,0.969 0.088,0 0.157,-0.01 0.236,-0.015 0.674,-0.581 1.157,-1.372 1.326,-2.283 -0.386,0.21 -0.821,0.391 -1.565,0.391 z M 36,20.383 36,18.439 c -0.402,0.228 -0.846,0.43 -1.637,0.43 -1.817,0 -1.817,-1.062 -3.636,-1.062 -1.818,0 -1.818,1 -3.693,1 -1.762,0 -1.762,-1 -3.608,-1 -1.789,0 -1.789,1 -3.607,1 -1.818,0 -1.818,-1 -3.637,-1 -1.818,0 -1.818,1 -3.636,1 -1.818,0 -1.818,-1 -3.636,-1 -1.818,0 -1.818,1 -3.636,1 -1.818,0 -1.818,-1 -3.637,-1 -0.791,0 -1.234,0.19 -1.636,0.404 l 0,2 c 0.402,-0.214 0.846,-0.404 1.636,-0.404 1.818,0 1.818,1 3.637,1 1.818,0 1.818,-1 3.636,-1 1.818,0 1.818,1 3.636,1 1.818,0 1.818,-1 3.636,-1 1.818,0 1.818,1 3.637,1 1.818,0 1.818,-1 3.629,-1 1.825,0 1.825,1 3.64,1 1.822,0 1.822,-1 3.639,-1 1.82,0 1.82,0.969 3.638,0.969 0.789,-0.002 1.233,-0.186 1.635,-0.393 z m 0,-4.257 0,-1.944 c -0.402,0.228 -0.846,0.43 -1.637,0.43 -1.817,0 -1.817,-1.063 -3.636,-1.063 -1.818,0 -1.818,1 -3.693,1 -1.762,0 -1.762,-1 -3.608,-1 -1.789,0 -1.789,1 -3.607,1 -1.818,0 -1.818,-1 -3.637,-1 -1.818,0 -1.818,1 -3.636,1 -1.818,0 -1.818,-1 -3.636,-1 -1.818,0 -1.818,1 -3.636,1 -1.818,0 -1.818,-1 -3.637,-1 -0.791,0 -1.234,0.191 -1.636,0.404 l 0,2 c 0.402,-0.214 0.846,-0.404 1.636,-0.404 1.818,0 1.818,1 3.637,1 1.818,0 1.818,-1 3.636,-1 1.818,0 1.818,1 3.636,1 1.818,0 1.818,-1 3.636,-1 1.818,0 1.818,1 3.637,1 1.818,0 1.818,-1 3.629,-1 1.825,0 1.825,1 3.64,1 1.822,0 1.822,-1 3.639,-1 1.82,0 1.82,0.969 3.638,0.969 0.789,0 1.233,-0.185 1.635,-0.392 z m 0,-4.257 0,-1.944 c -0.402,0.228 -0.846,0.43 -1.637,0.43 -1.817,0 -1.817,-1.062 -3.636,-1.062 -1.818,0 -1.818,1 -3.693,1 -1.762,0 -1.762,-1 -3.608,-1 -1.789,0 -1.789,1 -3.607,1 -1.818,0 -1.818,-1 -3.637,-1 -1.818,0 -1.818,1 -3.636,1 -1.818,0 -1.818,-1 -3.636,-1 -1.818,0 -1.818,1 -3.636,1 -1.818,0 -1.818,-1 -3.637,-1 -0.791,0 -1.234,0.19 -1.636,0.404 l 0,2 c 0.402,-0.214 0.846,-0.404 1.636,-0.404 1.818,0 1.818,1 3.637,1 1.818,0 1.818,-1 3.636,-1 1.818,0 1.818,1 3.636,1 1.818,0 1.818,-1 3.636,-1 1.818,0 1.818,1 3.637,1 1.818,0 1.818,-1 3.629,-1 1.825,0 1.825,1 3.64,1 1.822,0 1.822,-1 3.639,-1 1.82,0 1.82,0.969 3.638,0.969 0.789,-0.002 1.233,-0.186 1.635,-0.393 z m 0,-4.258 0,-1.944 c -0.402,0.227 -0.846,0.43 -1.637,0.43 -1.817,0 -1.817,-1.062 -3.636,-1.062 -1.818,0 -1.818,1 -3.693,1 -1.762,0 -1.762,-1 -3.608,-1 -1.789,0 -1.789,1 -3.607,1 -1.818,0 -1.818,-1 -3.637,-1 -1.818,0 -1.818,1 -3.636,1 -1.818,0 -1.818,-1 -3.636,-1 -1.818,0 -1.818,1 -3.636,1 -1.818,0 -1.818,-1 -3.637,-1 -0.791,0 -1.234,0.19 -1.636,0.404 l 0,2 C 0.403,7.225 0.847,7.035 1.637,7.035 c 1.818,0 1.818,1 3.637,1 1.818,0 1.818,-1 3.636,-1 1.818,0 1.818,1 3.636,1 1.818,0 1.818,-1 3.636,-1 1.818,0 1.818,1 3.637,1 1.818,0 1.818,-1 3.629,-1 1.825,0 1.825,1 3.64,1 1.822,0 1.822,-1 3.639,-1 1.82,0 1.82,0.969 3.638,0.969 C 35.154,8.003 35.598,7.818 36,7.611 Z M 35.938,3.384 C 35.843,2.773 35.621,2.207 35.282,1.721 35.03,1.792 34.737,1.84 34.363,1.84 c -1.817,0 -1.817,-1.062 -3.636,-1.062 -1.818,0 -1.818,1 -3.693,1 -1.762,0 -1.762,-1 -3.608,-1 -1.789,0 -1.789,1 -3.607,1 -1.818,0 -1.818,-1 -3.637,-1 -1.818,0 -1.818,1 -3.636,1 -1.818,0 -1.818,-1 -3.636,-1 -1.818,0 -1.818,1 -3.636,1 C 3.46,1.778 3.454,0.784 1.649,0.779 0.877,1.342 0.314,2.169 0.101,3.133 0.478,2.94 0.909,2.777 1.636,2.777 c 1.818,0 1.818,1 3.637,1 1.818,0 1.818,-1 3.636,-1 1.818,0 1.818,1 3.636,1 1.818,0 1.818,-1 3.636,-1 1.818,0 1.818,1 3.637,1 1.818,0 1.818,-1 3.629,-1 1.825,0 1.825,1 3.64,1 1.822,0 1.822,-1 3.639,-1 1.82,0 1.82,0.969 3.638,0.969 0.751,0 1.187,-0.168 1.574,-0.362 z"
     id="path6"
     inkscape:connector-curvature="0"
     style="fill:#00247d" />
  <path
     d="m 27.248,23.677 c 0,0.179 -0.143,0.323 -0.322,0.323 -0.179,0 -0.324,-0.145 -0.324,-0.323 l 0,-15.862 c 0,-0.178 0.146,-0.323 0.324,-0.323 0.179,0 0.322,0.145 0.322,0.323 l 0,15.862 z"
     id="path8"
     inkscape:connector-curvature="0"
     style="fill:#c1694f" />
  <path
     d="m 24.656,15.364 c 0,0 0.139,-0.334 0.627,-0.334 0.49,0 0.607,0.255 0.901,0.372 0.294,0.118 0.666,0.177 0.666,0.177 l 0,2.447 -2.624,0 c 0,0 -0.099,-0.92 -0.255,-1.37 -0.157,-0.449 -0.294,-1.058 0.039,-1.254 0.334,-0.194 0.646,-0.038 0.646,-0.038 z"
     id="path10"
     inkscape:connector-curvature="0"
     style="fill:#dd2e44" />
  <path
     d="m 26.84,14.728 0,0.352 c 0,0 -0.675,-0.059 -1.263,-0.47 -0.358,-0.25 -1.116,-0.559 -1.703,-0.058 -0.382,0.322 -0.353,1.146 -0.116,1.468 0.233,0.323 0.469,1.058 -0.031,0.559 -0.499,-0.5 -0.647,-1.264 -0.499,-1.763 0.147,-0.499 0.47,-0.998 1.233,-0.998 0.765,0 1.264,0.411 1.616,0.617 0.306,0.177 0.794,0.233 0.763,0.293 z"
     id="path12"
     inkscape:connector-curvature="0"
     style="fill:#ffcc4d" />
  <path
     d="m 23.895,16.499 0.41,-0.019 -0.117,0.626 c 0,0 0.411,-0.312 0.431,-0.235 0.018,0.08 0.078,0.646 0.078,0.646 l -0.53,-0.117 0.313,0.451 -0.41,0.194 c 0,0 -0.157,-0.528 -0.196,-0.781 -0.04,-0.255 0.021,-0.765 0.021,-0.765 z m 0.86,0.334 0.391,-0.039 c 0,0 -0.338,-0.764 0.157,-0.745 0.549,0.021 0.176,0.726 0.176,0.726 l 0.412,0 0.059,0.567 -0.391,-0.235 0,0.334 0.43,0.411 -1.136,0.116 0.293,-0.489 -0.018,-0.351 -0.274,0.313 -0.099,-0.608 z"
     id="path14"
     inkscape:connector-curvature="0"
     style="fill:#ffcc4d" />
  <path
     d="m 29.205,15.364 c 0,0 -0.138,-0.334 -0.627,-0.334 -0.489,0 -0.606,0.255 -0.9,0.372 -0.294,0.118 -0.666,0.177 -0.666,0.177 l 0,2.447 2.625,0 c 0,0 0.097,-0.92 0.254,-1.37 0.157,-0.449 0.293,-1.058 -0.039,-1.254 -0.334,-0.194 -0.647,-0.038 -0.647,-0.038 z"
     id="path16"
     inkscape:connector-curvature="0"
     style="fill:#dd2e44" />
  <path
     d="m 27.021,14.728 0,0.352 c 0,0 0.676,-0.059 1.263,-0.47 0.358,-0.25 1.116,-0.559 1.704,-0.058 0.382,0.322 0.351,1.146 0.116,1.468 -0.234,0.323 -0.468,1.058 0.03,0.559 0.499,-0.5 0.647,-1.264 0.499,-1.763 -0.146,-0.499 -0.47,-0.998 -1.233,-0.998 -0.765,0 -1.264,0.411 -1.615,0.617 -0.305,0.177 -0.793,0.233 -0.764,0.293 z"
     id="path18"
     inkscape:connector-curvature="0"
     style="fill:#ffcc4d" />
  <path
     d="m 29.969,16.499 -0.411,-0.019 0.117,0.626 c 0,0 -0.411,-0.312 -0.431,-0.235 -0.019,0.08 -0.078,0.646 -0.078,0.646 l 0.527,-0.117 -0.313,0.451 0.411,0.194 c 0,0 0.157,-0.528 0.197,-0.781 0.038,-0.255 -0.019,-0.765 -0.019,-0.765 z m -0.863,0.334 -0.392,-0.039 c 0,0 0.339,-0.764 -0.157,-0.745 -0.547,0.021 -0.175,0.726 -0.175,0.726 l -0.411,0 -0.061,0.567 0.393,-0.235 0,0.334 -0.431,0.411 1.137,0.116 -0.295,-0.489 0.021,-0.351 0.274,0.313 0.097,-0.608 z m -1.495,-3.095 c 0,0.39 -0.308,0.704 -0.685,0.704 -0.379,0 -0.686,-0.315 -0.686,-0.704 0,-0.389 0.307,-0.705 0.686,-0.705 0.378,0.001 0.685,0.316 0.685,0.705 z m -1.301,-1.546 1.232,0 0,0.49 -1.232,0 z"
     id="path20"
     inkscape:connector-curvature="0"
     style="fill:#ffcc4d" />
  <path
     d="m 26.633,11.859 0.586,0 0,4.523 -0.586,0 z"
     id="path22"
     inkscape:connector-curvature="0"
     style="fill:#ffcc4d" />
  <path
     d="m 26.44,16.187 0.919,0 -0.255,0.646 0.588,-0.313 0,0.86 -0.569,-0.195 0.49,0.744 -1.272,0 0.391,-0.744 -0.567,0.136 0,-0.763 0.529,0.254 z"
     id="path24"
     inkscape:connector-curvature="0"
     style="fill:#ffcc4d" />
  <path
     d="m 26.928,17.635 c 1.215,0 1.978,0.1 2.84,0.411 0,0 0.06,0.511 -0.059,0.765 -0.116,0.255 -2.8,-0.177 -2.8,-0.177 l 0.019,-0.999 z"
     id="path26"
     inkscape:connector-curvature="0"
     style="fill:#ffcc4d" />
  <path
     d="m 26.963,17.635 c -1.214,0 -1.978,0.1 -2.838,0.411 0,0 -0.06,0.511 0.057,0.765 0.118,0.255 2.8,-0.177 2.8,-0.177 l -0.019,-0.999 z"
     id="path28"
     inkscape:connector-curvature="0"
     style="fill:#ffcc4d" />
  <path
     d="m 30.078,19.33 c 0,0.384 -1.412,0.693 -3.152,0.693 -1.74,0 -3.153,-0.309 -3.153,-0.693 0,-0.385 1.413,-0.696 3.153,-0.696 1.74,0 3.152,0.311 3.152,0.696 z"
     id="path30"
     inkscape:connector-curvature="0"
     style="fill:#eeeeee" />
  <path
     d="m 29.043,19.583 c 0,0.212 -0.948,0.384 -2.117,0.384 -1.17,0 -2.119,-0.172 -2.119,-0.384 0,-0.21 0.949,-0.382 2.119,-0.382 1.169,0 2.117,0.172 2.117,0.382 z"
     id="path32"
     inkscape:connector-curvature="0"
     style="fill:#99aab5" />
  <path
     d="m 25.655,1.873 0.646,0.803 c 0,0 0.451,-0.274 0.471,-0.215 0.02,0.059 -0.039,0.666 -0.039,0.666 l 0.313,0.078 -0.255,0.803 c 0,0 0.393,-0.215 0.372,-0.137 -0.019,0.078 -0.117,0.764 -0.117,0.764 l 0.157,0.098 -0.02,0.764 c 0,0 0.157,0.273 0.157,0.215 0,-0.058 0.156,-0.998 0.156,-0.998 l 0.216,0.176 0.076,-0.489 0.177,-0.842 0.196,0.313 0.411,-1.391 0.216,0.49 0.489,-0.568 0.333,-0.02 0.489,-0.137 0.099,0.293 0.45,0 c 0,0 -0.234,0.196 -0.215,0.254 0.018,0.059 0.43,0.274 0.371,0.294 -0.059,0.02 -1.058,-0.079 -1.058,-0.079 l -0.566,0.568 0.352,0.118 -0.53,0.313 0.451,0.137 -0.411,0.313 0.353,-0.039 -0.568,0.431 0.568,0.118 -0.764,0.391 0.176,0.196 -0.763,0.451 -0.099,0.313 0.725,-0.568 c 0,0 0.588,-0.392 0.881,-0.568 C 29.845,5.006 30.08,4.673 30.571,4.536 31.062,4.399 32,4.556 32,4.556 l -0.882,0.47 0.177,0.274 -0.567,0.176 0.078,0.332 -0.941,0.138 0.02,0.352 -0.803,0.138 -0.098,0.333 -0.548,0.196 0.255,0.215 c 0,0 -0.471,0.157 -0.411,0.176 0.059,0.02 0.685,0.078 0.685,0.078 0,0 -0.314,0.274 -0.256,0.274 0.06,0 0.842,0.039 0.842,0.039 l -0.333,0.235 0.785,0.039 -0.354,0.274 c 0,0 0.646,0.059 0.646,0.118 0,0.058 -0.273,0.352 -0.273,0.352 l 0.567,0.059 c 0,0 -0.273,0.293 -0.216,0.314 0.061,0.019 0.804,0.528 0.804,0.528 L 30.295,9.549 c 0,0 -0.215,0.293 -0.235,0.234 C 30.042,9.725 29.827,9.372 29.827,9.372 l -0.216,0.235 -0.234,-0.47 c 0,0 -0.274,0.156 -0.256,0.098 0.02,-0.059 -0.313,-0.431 -0.313,-0.431 L 28.73,8.981 28.515,8.452 28.32,8.726 27.947,8.216 27.81,8.431 27.3,7.981 c 0,0 -0.019,0.294 0,0.353 0.02,0.059 0.373,0.313 0.373,0.313 0,0 -0.235,0.098 -0.235,0.156 0,0.059 0.471,0.431 0.471,0.431 l -0.216,0.157 0.509,0.431 c 0,0 -0.47,0.098 -0.412,0.137 0.06,0.039 0.294,0.352 0.294,0.352 l -0.195,0.47 -0.391,-0.607 -0.216,0.059 -0.04,-0.509 -0.214,-0.02 0.116,-0.567 -0.234,0.039 -0.02,-0.47 -0.099,-0.47 -0.195,-0.314 c 0,0 -0.137,0.235 -0.118,0.293 0.02,0.059 0.178,0.431 0.178,0.431 0,0 -0.216,0.117 -0.178,0.176 0.04,0.059 0.255,0.489 0.255,0.489 0,0 -0.47,0.098 -0.411,0.098 0.06,0 0.216,0.274 0.216,0.274 l -0.255,0.098 -0.117,0.294 c 0,0 -0.293,-0.333 -0.274,-0.274 0.02,0.059 -0.176,0.607 -0.176,0.607 L 25.423,10.075 25.716,8.92 25.362,8.822 25.108,9.351 c 0,0 -0.215,-0.254 -0.235,-0.196 -0.02,0.059 -0.235,0.451 -0.235,0.451 0,0 -0.252,-0.431 -0.233,-0.372 0.019,0.058 -0.295,0.686 -0.295,0.686 0,0 -0.274,-0.549 -0.274,-0.47 0,0.078 -0.195,0.764 -0.195,0.764 0,0 -0.312,-0.529 -0.294,-0.431 0.021,0.098 -0.215,0.549 -0.215,0.549 l -0.06,-0.49 -0.43,0.254 L 23.131,9.391 23.954,8.627 24.581,8.158 24.167,8.1 c 0,0 0.597,-0.207 0.665,-0.215 C 25.01,7.865 24.56,7.709 24.56,7.709 l 1.096,-0.333 c 0,0 -0.489,-0.255 -0.548,-0.196 -0.059,0.059 -0.647,0.176 -0.647,0.176 L 24.383,6.906 23.777,7.16 c 0,0 -0.099,-0.412 -0.118,-0.353 -0.019,0.059 -0.49,0.313 -0.49,0.313 L 22.936,6.866 22.661,7.297 22.347,7.062 21.781,7.238 22.054,6.827 21.741,6.651 22.387,6.24 22.524,5.966 23.406,6.025 c 0,0 -0.236,-0.314 -0.196,-0.255 0.04,0.059 0.9,0.196 0.9,0.196 L 24.366,5.927 25.227,6.24 24.522,5.672 23.915,5.554 24.307,5.241 23.386,4.909 23.583,4.596 22.367,4.283 l 0.746,-0.196 -0.51,-0.862 1.057,0.627 0.47,-0.157 0.236,0.607 0.431,0.255 0.077,0.45 0.216,-0.098 0.195,0.528 0.256,-0.079 0.136,0.373 0.374,0.019 -0.1,-0.49 L 26.107,5.025 25.676,4.672 26.05,4.496 25.5,4.045 25.97,3.986 25.304,3.34 25.834,3.36 25.304,2.753 25.736,2.655 25.655,1.873 Z"
     id="path34"
     inkscape:connector-curvature="0"
     style="fill:#77b255" />
  <path
     d="M 19,13 19,0 4,0 C 3.68,0 3.396,0.045 3.396,0.045 L 3.392,1.799 0.662,1.795 C 0.662,1.795 0.62,1.854 0.535,2 0.195,2.589 0,3.272 0,4 l 0,9 19,0 z"
     id="path36"
     inkscape:connector-curvature="0"
     style="fill:#00247d" />
  <path
     d="M 19,0 16.669,0 12,3.269 12,0 7,0 7,2.569 3.396,0.045 C 2.782,0.139 2.206,0.37 1.724,0.71 L 6.426,4 4.69,4 0.967,1.391 C 0.857,1.52 0.756,1.653 0.662,1.795 L 3.813,4 0,4 0,9 3.885,9 0,11.766 0,13 3.332,13 7,10.432 7,13 12,13 12,9.731 16.668,13 19,13 19,10.971 16.185,9 19,9 19,4 16.186,4 19,2.029 19,0 Z"
     id="path38"
     inkscape:connector-curvature="0"
     style="fill:#eeeeee" />
  <path
     d="m 11,0 -3,0 0,5 -8,0 0,3 8,0 0,5 3,0 0,-5 8,0 0,-3 -8,0 z"
     id="path40"
     inkscape:connector-curvature="0"
     style="fill:#cf1b2b" />
  <path
     d="M 19,0 17.539,0 12,3.879 12,4 13.571,4 19,0.198 Z M 1.724,0.71 C 1.443,0.905 1.19,1.133 0.967,1.391 L 4.69,4 6.425,4 1.724,0.71 Z M 6.437,9 0.734,13 2.461,13 7,9.822 7,9 Z M 19,12.802 19,11.582 15.313,9 13.57,9 Z"
     id="path42"
     inkscape:connector-curvature="0"
     style="fill:#cf1b2b" />
</svg>
