<?xml version="1.0" encoding="UTF-8" standalone="no"?>
<svg
   xmlns:dc="http://purl.org/dc/elements/1.1/"
   xmlns:cc="http://creativecommons.org/ns#"
   xmlns:rdf="http://www.w3.org/1999/02/22-rdf-syntax-ns#"
   xmlns:svg="http://www.w3.org/2000/svg"
   xmlns="http://www.w3.org/2000/svg"
   xmlns:sodipodi="http://sodipodi.sourceforge.net/DTD/sodipodi-0.dtd"
   xmlns:inkscape="http://www.inkscape.org/namespaces/inkscape"
   viewBox="0 0 36 26"
   id="svg2"
   version="1.1"
   inkscape:version="0.91 r13725"
   sodipodi:docname="1f1e9-1f1ef.svg"
   width="36"
   height="26">
  <metadata
     id="metadata16">
    <rdf:RDF>
      <cc:Work
         rdf:about="">
        <dc:format>image/svg+xml</dc:format>
        <dc:type
           rdf:resource="http://purl.org/dc/dcmitype/StillImage" />
      </cc:Work>
    </rdf:RDF>
  </metadata>
  <defs
     id="defs14" />
  <sodipodi:namedview
     pagecolor="#ffffff"
     bordercolor="#666666"
     borderopacity="1"
     objecttolerance="10"
     gridtolerance="10"
     guidetolerance="10"
     inkscape:pageopacity="0"
     inkscape:pageshadow="2"
     inkscape:window-width="640"
     inkscape:window-height="480"
     id="namedview12"
     showgrid="false"
     inkscape:zoom="6.5555556"
     inkscape:cx="18"
     inkscape:cy="13"
     inkscape:window-x="0"
     inkscape:window-y="0"
     inkscape:window-maximized="0"
     inkscape:current-layer="svg2" />
  <path
     d="M 32,0 4,0 C 2.984,0 2.06,0.382 1.354,1.006 L 17.5,13 36,13 36,4 C 36,1.791 34.209,0 32,0 Z"
     id="path4"
     inkscape:connector-curvature="0"
     style="fill:#6ab2e7" />
  <path
     d="M 32,26 4,26 C 2.984,26 2.06,25.618 1.354,24.994 L 17.5,13 36,13 l 0,9 c 0,2.209 -1.791,4 -4,4 z"
     id="path6"
     inkscape:connector-curvature="0"
     style="fill:#12ad2b" />
  <path
     d="M 1.383,24.973 17.5,13 1.354,1.006 C 0.525,1.739 0,2.807 0,4 l 0,17.5 c 0,1.48 0.537,2.683 1.383,3.473 z"
     id="path8"
     inkscape:connector-curvature="0"
     style="fill:#eeeeee" />
  <path
     d="m 6.5,9.5 0.826,2.543 2.674,0 -2.163,1.572 0.826,2.543 L 6.5,14.586 4.337,16.158 5.163,13.615 3,12.043 l 2.674,0 L 6.5,9.5 Z"
     id="path10"
     inkscape:connector-curvature="0"
     style="fill:#d7141a" />
</svg>
