<?xml version="1.0" encoding="UTF-8" standalone="no"?>
<svg
   xmlns:dc="http://purl.org/dc/elements/1.1/"
   xmlns:cc="http://creativecommons.org/ns#"
   xmlns:rdf="http://www.w3.org/1999/02/22-rdf-syntax-ns#"
   xmlns:svg="http://www.w3.org/2000/svg"
   xmlns="http://www.w3.org/2000/svg"
   xmlns:sodipodi="http://sodipodi.sourceforge.net/DTD/sodipodi-0.dtd"
   xmlns:inkscape="http://www.inkscape.org/namespaces/inkscape"
   viewBox="0 0 36 26"
   id="svg2"
   version="1.1"
   inkscape:version="0.91 r13725"
   sodipodi:docname="1f1ec-1f1ea.svg"
   width="36"
   height="26">
  <metadata
     id="metadata26">
    <rdf:RDF>
      <cc:Work
         rdf:about="">
        <dc:format>image/svg+xml</dc:format>
        <dc:type
           rdf:resource="http://purl.org/dc/dcmitype/StillImage" />
      </cc:Work>
    </rdf:RDF>
  </metadata>
  <defs
     id="defs24" />
  <sodipodi:namedview
     pagecolor="#ffffff"
     bordercolor="#666666"
     borderopacity="1"
     objecttolerance="10"
     gridtolerance="10"
     guidetolerance="10"
     inkscape:pageopacity="0"
     inkscape:pageshadow="2"
     inkscape:window-width="640"
     inkscape:window-height="480"
     id="namedview22"
     showgrid="false"
     inkscape:zoom="6.5555556"
     inkscape:cx="18"
     inkscape:cy="13"
     inkscape:window-x="0"
     inkscape:window-y="0"
     inkscape:window-maximized="0"
     inkscape:current-layer="svg2" />
  <path
     d="m 32,0 -11.5,0 0,10.5 15.5,0 L 36,4 C 36,1.791 34.209,0 32,0 Z"
     id="path4"
     inkscape:connector-curvature="0"
     style="fill:#eeeeee" />
  <path
     d="m 20.5,0 -5,0 0,10.5 -15.5,0 0,5 15.5,0 0,10.5 5,0 0,-10.5 15.5,0 0,-5 -15.5,0 z"
     id="path6"
     inkscape:connector-curvature="0"
     style="fill:#e8112d" />
  <path
     d="m 28.915,4.585 c 0.031,-0.623 0.104,-1.244 0.221,-1.86 -0.588,0.073 -1.183,0.073 -1.77,0 0.117,0.615 0.19,1.237 0.221,1.86 -0.623,-0.031 -1.244,-0.104 -1.86,-0.221 0.073,0.588 0.073,1.183 0,1.77 0.615,-0.117 1.237,-0.19 1.86,-0.221 -0.031,0.623 -0.104,1.244 -0.221,1.86 0.588,-0.073 1.183,-0.073 1.77,0 -0.117,-0.615 -0.19,-1.237 -0.221,-1.86 0.623,0.031 1.244,0.104 1.86,0.221 -0.073,-0.588 -0.073,-1.183 0,-1.77 -0.616,0.118 -1.237,0.191 -1.86,0.221 z"
     id="path8"
     inkscape:connector-curvature="0"
     style="fill:#e8112d" />
  <path
     d="M 15.5,0 4,0 C 1.791,0 0,1.791 0,4 l 0,6.5 15.5,0 0,-10.5 z"
     id="path10"
     inkscape:connector-curvature="0"
     style="fill:#eeeeee" />
  <path
     d="M 8.415,4.585 C 8.446,3.962 8.519,3.341 8.636,2.725 8.048,2.798 7.453,2.798 6.866,2.725 6.983,3.34 7.056,3.962 7.087,4.585 6.464,4.554 5.843,4.481 5.227,4.364 5.3,4.952 5.3,5.547 5.227,6.134 5.842,6.017 6.464,5.944 7.087,5.913 7.056,6.536 6.983,7.157 6.866,7.773 7.454,7.7 8.049,7.7 8.636,7.773 8.519,7.158 8.446,6.536 8.415,5.913 c 0.623,0.031 1.244,0.104 1.86,0.221 -0.073,-0.588 -0.073,-1.183 0,-1.77 -0.616,0.118 -1.237,0.191 -1.86,0.221 z"
     id="path12"
     inkscape:connector-curvature="0"
     style="fill:#e8112d" />
  <path
     d="m 36,22 0,-6.5 -15.5,0 0,10.5 11.5,0 c 2.209,0 4,-1.791 4,-4 z"
     id="path14"
     inkscape:connector-curvature="0"
     style="fill:#eeeeee" />
  <path
     d="m 28.915,21.415 c 0.031,0.623 0.104,1.244 0.221,1.86 -0.588,-0.073 -1.183,-0.073 -1.77,0 0.117,-0.615 0.19,-1.237 0.221,-1.86 -0.623,0.031 -1.244,0.104 -1.86,0.221 0.073,-0.588 0.073,-1.183 0,-1.77 0.615,0.117 1.237,0.19 1.86,0.221 -0.031,-0.623 -0.104,-1.244 -0.221,-1.86 0.588,0.073 1.183,0.073 1.77,0 -0.117,0.615 -0.19,1.237 -0.221,1.86 0.623,-0.031 1.244,-0.104 1.86,-0.221 -0.073,0.588 -0.073,1.183 0,1.77 -0.616,-0.118 -1.237,-0.191 -1.86,-0.221 z"
     id="path16"
     inkscape:connector-curvature="0"
     style="fill:#e8112d" />
  <path
     d="M 15.5,15.5 0,15.5 0,22 c 0,2.209 1.791,4 4,4 l 11.5,0 0,-10.5 z"
     id="path18"
     inkscape:connector-curvature="0"
     style="fill:#eeeeee" />
  <path
     d="m 8.415,21.415 c 0.031,0.623 0.104,1.244 0.221,1.86 -0.588,-0.073 -1.183,-0.073 -1.77,0 0.117,-0.615 0.19,-1.237 0.221,-1.86 -0.623,0.031 -1.244,0.104 -1.86,0.221 0.073,-0.588 0.073,-1.183 0,-1.77 0.615,0.117 1.237,0.19 1.86,0.221 -0.031,-0.623 -0.104,-1.244 -0.221,-1.86 0.588,0.073 1.183,0.073 1.77,0 -0.117,0.615 -0.19,1.237 -0.221,1.86 0.623,-0.031 1.244,-0.104 1.86,-0.221 -0.073,0.588 -0.073,1.183 0,1.77 -0.616,-0.118 -1.237,-0.191 -1.86,-0.221 z"
     id="path20"
     inkscape:connector-curvature="0"
     style="fill:#e8112d" />
</svg>
