<?xml version="1.0" encoding="UTF-8" standalone="no"?>
<svg
   xmlns:dc="http://purl.org/dc/elements/1.1/"
   xmlns:cc="http://creativecommons.org/ns#"
   xmlns:rdf="http://www.w3.org/1999/02/22-rdf-syntax-ns#"
   xmlns:svg="http://www.w3.org/2000/svg"
   xmlns="http://www.w3.org/2000/svg"
   xmlns:sodipodi="http://sodipodi.sourceforge.net/DTD/sodipodi-0.dtd"
   xmlns:inkscape="http://www.inkscape.org/namespaces/inkscape"
   viewBox="0 0 36 26"
   id="svg2"
   version="1.1"
   inkscape:version="0.91 r13725"
   sodipodi:docname="1f1ec-1f1f8.svg"
   width="36"
   height="26">
  <metadata
     id="metadata70">
    <rdf:RDF>
      <cc:Work
         rdf:about="">
        <dc:format>image/svg+xml</dc:format>
        <dc:type
           rdf:resource="http://purl.org/dc/dcmitype/StillImage" />
      </cc:Work>
    </rdf:RDF>
  </metadata>
  <defs
     id="defs68" />
  <sodipodi:namedview
     pagecolor="#ffffff"
     bordercolor="#666666"
     borderopacity="1"
     objecttolerance="10"
     gridtolerance="10"
     guidetolerance="10"
     inkscape:pageopacity="0"
     inkscape:pageshadow="2"
     inkscape:window-width="640"
     inkscape:window-height="480"
     id="namedview66"
     showgrid="false"
     inkscape:zoom="6.5555556"
     inkscape:cx="18"
     inkscape:cy="13"
     inkscape:window-x="0"
     inkscape:window-y="0"
     inkscape:window-maximized="0"
     inkscape:current-layer="svg2" />
  <path
     d="M 32,0 4,0 C 3.795,0 3.593,0.015 3.396,0.045 L 3.392,1.799 0.662,1.795 C 0.244,2.427 0,3.185 0,4 l 0,18 c 0,2.209 1.791,4 4,4 l 28,0 c 2.209,0 4,-1.791 4,-4 L 36,4 C 36,1.791 34.209,0 32,0 Z"
     id="path4"
     inkscape:connector-curvature="0"
     style="fill:#00247d" />
  <path
     d="M 26.656,5 C 26.521,4.896 26.312,4.766 26.015,4.594 25.718,4.422 25.656,4.063 25.796,3.797 c 0.141,-0.266 0.475,-0.359 0.393,-0.109 -0.081,0.25 -0.169,0.557 0,0.583 0.169,0.026 0.122,-0.333 0.278,-0.317 0.156,0.016 -0.156,0.578 0,0.594 0.156,0.016 0.109,-0.5 0.281,-0.438 0.172,0.062 0.141,0.516 0,0.547 -0.141,0.031 0.018,0.234 0.119,0.343 0.102,0.109 -0.07,0.108 -0.211,0 z m 0.799,0 C 27.59,4.896 27.799,4.766 28.096,4.594 28.393,4.422 28.455,4.063 28.315,3.797 28.174,3.531 27.84,3.438 27.921,3.688 c 0.081,0.25 0.169,0.557 0,0.583 -0.169,0.026 -0.122,-0.333 -0.278,-0.317 -0.156,0.016 0.156,0.578 0,0.594 -0.156,0.016 -0.109,-0.5 -0.281,-0.438 -0.172,0.062 -0.141,0.516 0,0.547 0.141,0.031 -0.016,0.234 -0.117,0.344 -0.102,0.108 0.07,0.107 0.21,-0.001 z"
     id="path6"
     inkscape:connector-curvature="0"
     style="fill:#cdad57" />
  <path
     d="M 26.917,5.875 C 27.008,5.527 26.896,5.188 26.625,5.292 26.354,5.396 26.104,5.23 26.146,5.146 c 0.042,-0.084 0.355,-0.333 0.771,-0.333 0.416,0 0.957,0.229 0.916,0.333 -0.041,0.104 -0.5,0.198 -0.5,0.198 0,0 0.063,0.406 0.834,0.406 0.771,0 1.416,0.188 1.271,1.125 C 29.293,7.812 29.25,7.937 29.126,7.896 29.002,7.855 28.98,7.542 29.043,7.271 29.106,7 28.939,6.625 28.855,6.896 28.771,7.167 28.604,7.688 28.396,7.729 28.188,7.77 28.479,6.937 28.458,6.75 28.437,6.563 27.958,6.604 27.937,6.896 27.916,7.188 27.974,7.667 27.799,7.792 27.624,7.917 27.604,7.5 27.624,7.209 27.644,6.918 27.437,6.459 27.416,6.855 27.395,7.251 27.374,7.751 27.187,7.813 27,7.875 27.187,7.334 27.125,7.001 27.063,6.668 26.813,6.271 26.917,5.875 Z"
     id="path8"
     inkscape:connector-curvature="0"
     style="fill:#923f00" />
  <path
     d="m 27.516,10.609 c -0.266,0.25 -1.266,0.812 -1.656,-0.109 0.938,0.375 1.491,-0.438 1.491,-0.438 l 0.165,0.547 z M 26.141,8.391 C 25.726,7.109 24.797,7 24.797,7 c 0,0 -0.047,0.406 0.156,0.695 C 24.283,7.633 23.625,7.328 23.625,7.328 23.437,7.859 24.563,8.422 25.25,8.39 24.922,8.718 25.234,9 25.547,9.055 25.391,8.672 25.891,8.416 26,8.716 c 0.109,0.3 0.141,-0.325 0.141,-0.325 z"
     id="path10"
     inkscape:connector-curvature="0"
     style="fill:#ffffff" />
  <path
     d="M 26.312,10.597 C 25.469,10.688 24.87,9.394 24.873,9.01 c 0.503,0.147 0.909,0.491 0.909,0.491 0,0 0.133,-1.142 0.238,-1.422 0.418,0.313 0.527,1.188 0.387,1.594 0.459,0.022 0.547,0.406 0.406,0.688 -0.219,-0.314 -0.451,-0.017 -0.501,0.236 z"
     id="path12"
     inkscape:connector-curvature="0"
     style="fill:#1500ff" />
  <path
     d="m 28.745,10.609 c 0.266,0.25 1.266,0.812 1.656,-0.109 -0.938,0.375 -1.491,-0.438 -1.491,-0.438 l -0.165,0.547 z M 30.12,8.391 C 30.535,7.109 31.464,7 31.464,7 c 0,0 0.047,0.406 -0.156,0.695 0.67,-0.062 1.328,-0.367 1.328,-0.367 C 32.824,7.859 31.698,8.422 31.011,8.39 31.339,8.718 31.027,9 30.714,9.055 30.87,8.672 30.37,8.416 30.261,8.716 30.151,9.016 30.12,8.391 30.12,8.391 Z"
     id="path14"
     inkscape:connector-curvature="0"
     style="fill:#ffffff" />
  <path
     d="m 29.949,10.597 c 0.843,0.091 1.442,-1.203 1.44,-1.587 -0.503,0.147 -0.909,0.491 -0.909,0.491 0,0 -0.133,-1.142 -0.238,-1.422 -0.418,0.313 -0.527,1.188 -0.387,1.594 -0.459,0.022 -0.547,0.406 -0.406,0.688 0.218,-0.314 0.449,-0.017 0.5,0.236 z"
     id="path16"
     inkscape:connector-curvature="0"
     style="fill:#1500ff" />
  <path
     d="m 28.203,12.406 c -1.297,0 -1.75,-0.594 -1.625,-1 C 26.703,11 27.14,11.218 27.281,11.109 27.422,11 27.422,10.281 27.093,9.953 26.765,9.625 26.562,9.281 26.702,9.109 26.514,8.797 26.809,8.656 26.896,8.297 c 0.087,-0.359 0.18,-0.694 0.316,-0.734 0.137,-0.04 0.208,0.297 0.255,0.234 0.047,-0.062 0.1,-0.344 0.331,-0.359 0.231,-0.016 0.2,0.234 0.278,0.297 0.078,0.062 0.141,-0.29 0.359,-0.297 0.219,-0.008 0.281,0.297 0.375,0.313 0.094,0.016 0.125,-0.225 0.312,-0.188 0.187,0.037 0.125,0.516 0.25,0.719 0.125,0.203 0.391,0.594 0.234,0.828 0.219,0.156 -0.016,0.438 -0.281,0.641 -0.266,0.203 -0.578,0.703 -0.391,1.266 0.172,0.375 0.828,-0.016 0.984,0.219 0.16,0.233 0.098,1.17 -1.715,1.17 z"
     id="path18"
     inkscape:connector-curvature="0"
     style="fill:#656263" />
  <path
     d="m 26.559,8.891 c 0,-0.375 1.004,-0.5 1.566,-0.5 0.562,0 1.594,0.13 1.594,0.5 0,0.37 -0.785,0 -1.58,0 -0.795,0 -1.58,0.359 -1.58,0 z"
     id="path20"
     inkscape:connector-curvature="0"
     style="fill:#ffffff" />
  <path
     d="m 27.588,8.423 c -0.176,0.02 -0.353,0.051 -0.511,0.093 -0.052,0.169 -0.022,0.353 0.069,0.493 0.151,-0.025 0.321,-0.055 0.503,-0.08 C 27.544,8.805 27.502,8.623 27.588,8.423 Z m 0.49,-0.031 0,0.502 c 0.021,-10e-4 0.04,-0.003 0.061,-0.003 0.192,0 0.383,0.022 0.563,0.05 0.056,-0.062 0.095,-0.133 0.095,-0.218 0,-0.119 -0.073,-0.219 -0.17,-0.304 -0.182,-0.02 -0.534,-0.027 -0.549,-0.027 z m 0.97,0.606 c 0.392,0.07 0.671,0.112 0.671,-0.108 0,-0.194 -0.285,-0.321 -0.636,-0.398 0.058,0.072 0.104,0.149 0.104,0.231 10e-4,0.116 -0.065,0.204 -0.139,0.275 z"
     id="path22"
     inkscape:connector-curvature="0"
     style="fill:#1500ff" />
  <path
     d="m 26.662,9.286 c 0.041,-0.176 1.477,0.808 1.477,0.808 0,0 1.519,-1.061 1.534,-0.917 0.015,0.144 -1.534,1.182 -1.534,1.182 0,0 -1.518,-0.897 -1.477,-1.073 z"
     id="path24"
     inkscape:connector-curvature="0"
     style="fill:#adb0b2" />
  <path
     d="m 26.688,13.438 c -0.688,0.656 -3.438,3.031 -3.594,3.531 -0.156,0.5 0.172,0.625 0.656,0.297 -0.172,0.391 0.047,0.547 0.156,0.562 0.109,0.016 0.562,-0.141 0.75,-0.547 0.203,0.328 0.719,0.375 0.812,0.312 0.094,-0.062 0.141,-0.172 0.141,-0.172 0,0 0.09,0.471 0.264,0.407 0.174,-0.063 0.328,-0.313 0.439,-0.298 0.11,0.016 -0.007,0.234 0.247,0.219 0.254,-0.016 0.357,-0.125 0.493,-0.266 0.136,-0.141 0.354,0.062 0.464,0.031 0.109,-0.031 0.219,-0.703 0.391,-1.188 0.171,-0.482 -1.219,-2.888 -1.219,-2.888 z"
     id="path26"
     inkscape:connector-curvature="0"
     style="fill:#6a4c2d" />
  <path
     d="m 29.188,15.875 c 0.459,0.104 0.969,-0.021 1.214,0.125 0.245,0.146 0.432,0.271 0.786,0.292 0.354,0.021 1.021,-0.291 1.167,0 0.146,0.291 0.333,0.708 0.521,0.771 0.188,0.063 0.896,0.291 0.188,0.333 -0.708,0.042 -2.291,0 -2.291,0 l 0.188,0.25 -1.386,0.084 c 0,0 -0.813,-0.709 -0.776,-1.209 0.037,-0.5 0.389,-0.646 0.389,-0.646 z"
     id="path28"
     inkscape:connector-curvature="0"
     style="fill:#ffffff" />
  <path
     d="m 27.516,15.875 c -0.565,0.342 -0.302,0.771 -0.302,0.771 0,0 0.091,0.584 0.137,0.521 0.046,-0.062 0.299,-0.271 0.299,-0.271 0,0 -0.044,0.466 -0.037,0.447 0.007,-0.019 0.309,0.001 0.309,0.001 0,0 0.11,0.409 0.157,0.491 0.047,0.082 0.308,-0.189 0.308,-0.189 0,0 0.25,0.16 0.359,0.205 0.109,0.045 0.151,-0.288 0.151,-0.288 0,0 0.296,0.378 0.486,0.272 0.19,-0.105 0.43,-0.418 0.43,-0.418 l -0.354,-0.312 c 0,0 0.062,-0.082 0,-0.239 -0.062,-0.157 -0.291,-0.22 -0.291,-0.22 0,0 0.229,-0.166 0.062,-0.271 -0.167,-0.105 -0.783,-1.063 -1.714,-0.5 z"
     id="path30"
     inkscape:connector-curvature="0"
     style="fill:#00713d" />
  <path
     d="M 30.065,11.984 29.778,11.982 28.267,13 l -1.512,-1.018 -0.25,0.001 -0.13,10e-4 0,2.219 c 0,0.193 0.034,0.497 0.146,0.833 0.088,0.265 0.226,0.548 0.441,0.82 0.105,0.133 0.232,0.26 0.375,0.382 0.198,0.168 0.443,0.317 0.729,0.446 0.069,0.031 0.127,0.069 0.202,0.097 0.078,-0.029 0.138,-0.068 0.209,-0.101 0.285,-0.13 0.53,-0.279 0.728,-0.447 0.149,-0.127 0.281,-0.26 0.388,-0.398 0.215,-0.278 0.334,-0.572 0.431,-0.833 0.118,-0.317 0.136,-0.613 0.136,-0.8 l 0,-2.219 -0.095,10e-4 z"
     id="path32"
     inkscape:connector-curvature="0"
     style="fill:#ffffff" />
  <path
     d="m 30.161,12.921 -0.408,-0.53 0.313,-0.407 -0.287,-0.002 -1.512,1.018 -1.512,-1.018 -0.25,0.001 0.313,0.407 -0.443,0.576 0,0.036 0.429,0.557 -0.429,0.557 0,0.036 0.413,0.537 -0.267,0.347 c 0.088,0.265 0.226,0.548 0.441,0.82 l 0.387,-0.503 0.335,0.434 -0.347,0.45 c 0.198,0.168 0.443,0.317 0.729,0.446 l 0.207,-0.269 0.204,0.265 c 0.285,-0.13 0.53,-0.279 0.728,-0.447 l -0.343,-0.445 0.347,-0.451 0.384,0.499 c 0.215,-0.278 0.346,-0.566 0.431,-0.833 l -0.242,-0.314 0.378,-0.491 0,-0.127 -0.394,-0.511 0.394,-0.511 0.001,-0.127 z m -0.582,0.638 -0.37,0.481 -0.37,-0.481 0.37,-0.481 0.37,0.481 z m -0.724,1.129 0.354,-0.461 0.354,0.461 -0.354,0.461 -0.354,-0.461 z m -1.149,-1.129 -0.357,0.464 -0.357,-0.464 0.357,-0.464 0.357,0.464 z m -0.699,1.129 0.342,-0.444 0.342,0.444 -0.342,0.444 -0.342,-0.444 z m 0.909,1.1 0.356,-0.463 0.356,0.463 -0.356,0.463 -0.356,-0.463 z"
     id="path34"
     inkscape:connector-curvature="0"
     style="fill:#1e5aa6" />
  <path
     d="m 28.268,12.25 c -0.403,-0.246 -1.011,-0.269 -1.513,-0.268 l 1.506,4.234 c 0,0.018 0.012,0.018 0.012,0 l 1.506,-4.234 c -0.502,-10e-4 -1.11,0.022 -1.511,0.268 z"
     id="path36"
     inkscape:connector-curvature="0"
     style="fill:#016c00" />
  <path
     d="m 23.922,12.641 c 0.036,-1 0.203,-1.5 0.188,-1.891 -0.015,-0.391 0.328,-0.391 0.594,-0.469 0.266,-0.078 0.391,0.141 0.609,0.156 0.219,0.016 0.344,0.047 0.281,0.312 -0.063,0.265 -0.266,0.608 -0.312,0.703 -0.047,0.094 0.266,0.688 0.516,1.188 0.25,0.5 0.609,1.141 0.344,2.141 -0.266,1 -0.422,1.359 -0.531,1.438 -0.109,0.078 -0.025,-0.656 -0.122,-1 -0.097,-0.344 -0.222,-0.422 -0.222,-0.422 0,0 -0.422,0.398 -0.578,0.902 -0.156,0.504 -0.031,0.871 0.266,1.078 0.297,0.207 0.969,0.332 1.078,0.395 0.109,0.062 -0.219,0.203 -0.672,0.172 -0.453,-0.031 -1.525,-0.412 -1.927,-0.839 -0.401,-0.427 -0.949,-1.125 -0.636,-1.896 0.172,-0.422 0.5,-0.562 0.609,-0.703 0.109,-0.14 0.504,-0.966 0.515,-1.265 z"
     id="path38"
     inkscape:connector-curvature="0"
     style="fill:#8b9497" />
  <path
     d="m 31.531,10.601 c 0.341,-0.047 1.188,2.133 1.281,3.071 0.094,0.938 0.078,2.625 -0.484,2.688 -0.562,0.062 -1.068,-0.156 -1.245,-1.094 -0.177,-0.938 -0.042,-1.656 0,-2.266 0.042,-0.61 -0.052,-2.329 0.448,-2.399 z"
     id="path40"
     inkscape:connector-curvature="0"
     style="fill:#ffffff" />
  <path
     d="m 31.389,10.601 c 0.024,-0.4 0.408,-0.539 0.861,-0.46 0.453,0.078 0.422,0.781 0.406,1.109 -0.016,0.328 0.711,0.25 0.715,2.016 0.004,1.766 -0.496,2.766 -0.356,3.016 0.141,0.25 0.781,0.578 0.422,0.641 -0.359,0.063 -0.812,-0.312 -1.125,-0.422 -0.313,-0.11 0.027,-0.547 0.154,-1.078 0.127,-0.531 0.064,-1.111 -0.201,-1.04 -0.266,0.071 0.109,1.36 -0.328,1.317 -0.438,-0.043 -0.672,-1.009 -0.625,-1.893 0.047,-0.884 0.219,-0.947 0.469,-1.228 0.25,-0.281 0.094,-0.406 -0.172,-0.703 -0.266,-0.297 -0.172,-0.531 0.109,-0.688 C 32,11.031 31.355,11.14 31.389,10.601 Z"
     id="path42"
     inkscape:connector-curvature="0" />
  <path
     d="m 30.994,12.109 c -0.375,0.031 -0.76,0.141 -0.76,0.297 0,0.156 -0.016,0.672 0,0.734 0.016,0.062 0.531,-0.265 0.76,-0.25 l 0,-0.781 z"
     id="path44"
     inkscape:connector-curvature="0"
     style="fill:#ffffff" />
  <path
     d="m 31.531,10.601 c 0.092,-0.483 -0.781,-0.023 -0.828,0.102 -0.047,0.125 0.735,0.39 0.828,-0.102 z"
     id="path46"
     inkscape:connector-curvature="0"
     style="fill:#f66b01" />
  <path
     d="m 31.797,10.359 c 0.047,-0.14 1.094,-0.312 1.266,-0.297 0.172,0.015 0.162,-0.022 0.115,0.057 -0.017,0.028 -0.515,0.096 -0.521,0.145 -0.014,0.087 0.439,0.032 0.516,0.095 0.051,0.042 -0.504,0.037 -0.41,0.106 0.125,0.093 0.598,0.305 0.459,0.253 -0.242,-0.09 -1.502,-0.131 -1.425,-0.359 z"
     id="path48"
     inkscape:connector-curvature="0"
     style="fill:#f8f001" />
  <path
     d="m 31.63,16.233 c -0.233,0.043 -0.958,-0.011 -0.708,0.136 0.25,0.146 0.328,0.162 0.328,0.162 0,0 -0.449,0.164 -0.256,0.246 0.193,0.082 0.637,0.031 0.931,0.025 0.294,-0.006 0.51,-0.171 0.388,-0.303 -0.122,-0.132 -0.334,-0.329 -0.683,-0.266 z"
     id="path50"
     inkscape:connector-curvature="0"
     style="fill:#f66b01" />
  <path
     d="m 25.054,20.078 c 0.562,0.109 1.297,0.344 1.297,0.344 l -0.094,1.016 c 0,0 -0.234,-0.344 -1.469,-0.562 -0.141,-0.407 0.266,-0.798 0.266,-0.798 z m 0.187,-1.703 c 0,0 0.016,0.328 -0.422,0.703 -0.438,0.375 -0.937,0.344 -0.906,-0.078 0.422,-0.109 0.312,-0.946 0.663,-1.054 -0.038,0.351 0.103,0.585 0.665,0.429 z m 6.473,1.703 c -0.562,0.109 -1.297,0.344 -1.297,0.344 l 0.094,1.016 c 0,0 0.234,-0.344 1.469,-0.562 0.14,-0.407 -0.266,-0.798 -0.266,-0.798 z"
     id="path52"
     inkscape:connector-curvature="0"
     style="fill:#c11600" />
  <path
     d="m 31.464,19.188 c 0.359,-0.391 0.609,-0.375 0.797,-0.75 0.188,-0.375 -0.094,-0.672 -0.578,-0.583 -0.484,0.089 -0.984,0.864 -0.984,0.864 0,0 -0.921,-0.547 -2.314,-0.547 -1.394,0 -2.315,0.547 -2.315,0.547 0,0 -0.5,-0.775 -0.984,-0.864 -0.484,-0.089 -0.766,0.208 -0.578,0.583 0.188,0.375 0.438,0.359 0.797,0.75 -0.578,0.391 -1.047,1.172 -1.047,1.172 l 0.531,0.516 c 0,0 0.297,-0.5 0.922,-1.016 0.547,0.625 0.547,1.578 0.547,1.578 0,0 0.164,-0.672 0.418,-0.891 -0.012,-0.609 -0.184,-1.062 -0.184,-1.062 0,0 0.816,-0.5 1.893,-0.5 1.076,0 1.893,0.5 1.893,0.5 0,0 -0.172,0.453 -0.184,1.062 0.254,0.219 0.418,0.891 0.418,0.891 0,0 0,-0.953 0.547,-1.578 0.625,0.516 0.922,1.016 0.922,1.016 l 0.531,-0.516 c -10e-4,-10e-4 -0.47,-0.782 -1.048,-1.172 z"
     id="path54"
     inkscape:connector-curvature="0"
     style="fill:#ffbc00" />
  <path
     d="m 31.526,18.375 c 0,0 -0.016,0.328 0.422,0.703 0.438,0.375 0.938,0.344 0.906,-0.078 -0.422,-0.109 -0.312,-0.946 -0.663,-1.054 0.038,0.351 -0.102,0.585 -0.665,0.429 z"
     id="path56"
     inkscape:connector-curvature="0"
     style="fill:#c11600" />
  <path
     d="M 19,13 19,0 4,0 C 3.68,0 3.396,0.045 3.396,0.045 L 3.392,1.799 0.662,1.795 C 0.662,1.795 0.62,1.854 0.535,2 0.195,2.589 0,3.272 0,4 l 0,9 19,0 z"
     id="path58"
     inkscape:connector-curvature="0"
     style="fill:#00247d" />
  <path
     d="M 19,0 16.669,0 12,3.269 12,0 7,0 7,2.569 3.396,0.045 C 2.782,0.139 2.206,0.37 1.724,0.71 L 6.426,4 4.69,4 0.967,1.391 C 0.857,1.52 0.756,1.653 0.662,1.795 L 3.813,4 0,4 0,9 3.885,9 0,11.766 0,13 3.332,13 7,10.432 7,13 12,13 12,9.731 16.668,13 19,13 19,10.971 16.185,9 19,9 19,4 16.186,4 19,2.029 19,0 Z"
     id="path60"
     inkscape:connector-curvature="0"
     style="fill:#eeeeee" />
  <path
     d="m 11,0 -3,0 0,5 -8,0 0,3 8,0 0,5 3,0 0,-5 8,0 0,-3 -8,0 z"
     id="path62"
     inkscape:connector-curvature="0"
     style="fill:#cf1b2b" />
  <path
     d="M 19,0 17.539,0 12,3.879 12,4 13.571,4 19,0.198 Z M 1.724,0.71 C 1.443,0.905 1.19,1.133 0.967,1.391 L 4.69,4 6.425,4 1.724,0.71 Z M 6.437,9 0.734,13 2.461,13 7,9.822 7,9 Z M 19,12.802 19,11.582 15.313,9 13.57,9 Z"
     id="path64"
     inkscape:connector-curvature="0"
     style="fill:#cf1b2b" />
</svg>
