<?xml version="1.0" encoding="UTF-8" standalone="no"?>
<svg
   xmlns:dc="http://purl.org/dc/elements/1.1/"
   xmlns:cc="http://creativecommons.org/ns#"
   xmlns:rdf="http://www.w3.org/1999/02/22-rdf-syntax-ns#"
   xmlns:svg="http://www.w3.org/2000/svg"
   xmlns="http://www.w3.org/2000/svg"
   xmlns:sodipodi="http://sodipodi.sourceforge.net/DTD/sodipodi-0.dtd"
   xmlns:inkscape="http://www.inkscape.org/namespaces/inkscape"
   viewBox="0 0 36 26"
   id="svg2"
   version="1.1"
   inkscape:version="0.91 r13725"
   sodipodi:docname="1f1e6-1f1fc.svg"
   width="36"
   height="26">
  <metadata
     id="metadata16">
    <rdf:RDF>
      <cc:Work
         rdf:about="">
        <dc:format>image/svg+xml</dc:format>
        <dc:type
           rdf:resource="http://purl.org/dc/dcmitype/StillImage" />
      </cc:Work>
    </rdf:RDF>
  </metadata>
  <defs
     id="defs14" />
  <sodipodi:namedview
     pagecolor="#ffffff"
     bordercolor="#666666"
     borderopacity="1"
     objecttolerance="10"
     gridtolerance="10"
     guidetolerance="10"
     inkscape:pageopacity="0"
     inkscape:pageshadow="2"
     inkscape:window-width="640"
     inkscape:window-height="480"
     id="namedview12"
     showgrid="false"
     inkscape:zoom="6.5555556"
     inkscape:cx="18"
     inkscape:cy="13"
     inkscape:window-x="0"
     inkscape:window-y="0"
     inkscape:window-maximized="0"
     inkscape:current-layer="svg2" />
  <path
     d="M 32,0 4,0 C 1.791,0 0,1.791 0,4 l 0,13.055 36,0 L 36,4 C 36,1.791 34.209,0 32,0 Z M 6.276,6.276 5.333,9.333 4.39,6.276 1.333,5.333 4.39,4.39 5.333,1.333 6.276,4.39 9.333,5.333 6.276,6.276 Z M 4,26 32,26 c 1.872,0 3.431,-1.291 3.867,-3.028 l -35.734,0 C 0.569,24.709 2.128,26 4,26 Z m -4,-6.972 36,0 L 36,21 0,21 Z"
     id="path4"
     inkscape:connector-curvature="0"
     style="fill:#4189dd" />
  <path
     d="M 5.333,1.333 4.391,4.391 1.334,5.334 4.391,6.277 5.334,9.334 6.277,6.277 9.334,5.334 6.276,4.391 5.333,1.333 Z M 6.06,6.06 5.334,8.415 4.607,6.06 2.252,5.334 4.607,4.608 5.333,2.253 6.06,4.607 8.415,5.333 6.06,6.06 Z"
     id="path6"
     inkscape:connector-curvature="0"
     style="fill:#ffffff" />
  <path
     d="M 5.333,2.252 4.607,4.607 2.252,5.333 4.607,6.06 5.333,8.415 6.06,6.06 8.415,5.333 6.06,4.607 Z"
     id="path8"
     inkscape:connector-curvature="0"
     style="fill:#d21034" />
  <path
     d="m 0,17.055 36,0 0,1.972 -36,0 z M 0,22 c 0,0.337 0.054,0.659 0.133,0.972 l 35.734,0 C 35.946,22.659 36,22.337 36,22 l 0,-1 -36,0 0,1 z"
     id="path10"
     inkscape:connector-curvature="0"
     style="fill:#f9d616" />
</svg>
