<?xml version="1.0" encoding="UTF-8" standalone="no"?>
<svg
   xmlns:dc="http://purl.org/dc/elements/1.1/"
   xmlns:cc="http://creativecommons.org/ns#"
   xmlns:rdf="http://www.w3.org/1999/02/22-rdf-syntax-ns#"
   xmlns:svg="http://www.w3.org/2000/svg"
   xmlns="http://www.w3.org/2000/svg"
   xmlns:sodipodi="http://sodipodi.sourceforge.net/DTD/sodipodi-0.dtd"
   xmlns:inkscape="http://www.inkscape.org/namespaces/inkscape"
   viewBox="0 0 36 26"
   id="svg2"
   version="1.1"
   inkscape:version="0.91 r13725"
   sodipodi:docname="1f1ec-1f1e9.svg"
   width="36"
   height="26">
  <metadata
     id="metadata22">
    <rdf:RDF>
      <cc:Work
         rdf:about="">
        <dc:format>image/svg+xml</dc:format>
        <dc:type
           rdf:resource="http://purl.org/dc/dcmitype/StillImage" />
      </cc:Work>
    </rdf:RDF>
  </metadata>
  <defs
     id="defs20" />
  <sodipodi:namedview
     pagecolor="#ffffff"
     bordercolor="#666666"
     borderopacity="1"
     objecttolerance="10"
     gridtolerance="10"
     guidetolerance="10"
     inkscape:pageopacity="0"
     inkscape:pageshadow="2"
     inkscape:window-width="640"
     inkscape:window-height="480"
     id="namedview18"
     showgrid="false"
     inkscape:zoom="6.5555556"
     inkscape:cx="18"
     inkscape:cy="13"
     inkscape:window-x="0"
     inkscape:window-y="0"
     inkscape:window-maximized="0"
     inkscape:current-layer="svg2" />
  <path
     d="M 32,0 4,0 C 1.791,0 0,1.791 0,4 l 0,18 c 0,2.209 1.791,4 4,4 l 28,0 c 2.209,0 4,-1.791 4,-4 L 36,4 C 36,1.791 34.209,0 32,0 Z"
     id="path4"
     inkscape:connector-curvature="0"
     style="fill:#ce1126" />
  <path
     d="m 3.5,3.5 29,0 0,19 -29,0 z"
     id="path6"
     inkscape:connector-curvature="0"
     style="fill:#007a5e" />
  <path
     d="m 3.5,3.5 29,0 -29,19 29,0 -29,-19 z"
     id="path8"
     inkscape:connector-curvature="0"
     style="fill:#fcd116" />
  <circle
     cx="18"
     cy="13"
     r="3.5"
     id="circle10"
     style="fill:#ce1126" />
  <path
     d="m 18,9.798 0.719,2.213 2.326,0 -1.882,1.367 0.719,2.212 -1.882,-1.367 -1.882,1.367 0.719,-2.212 -1.882,-1.367 2.326,0 z m 0,-9.616 0.386,1.188 1.249,0 -1.01,0.734 0.386,1.188 L 18,2.558 16.989,3.292 17.375,2.104 16.365,1.37 l 1.249,0 z m 8.02,0 0.386,1.188 1.249,0 -1.01,0.734 0.386,1.188 -1.011,-0.734 -1.01,0.734 0.386,-1.188 -1.011,-0.734 1.249,0 z m -16.04,0 0.386,1.188 1.249,0 L 10.604,2.104 10.99,3.292 9.98,2.558 8.969,3.292 9.355,2.104 8.345,1.37 l 1.249,0 z m 8.02,22.5 0.386,1.188 1.249,0 -1.01,0.734 0.386,1.188 -1.011,-0.734 -1.011,0.734 0.386,-1.188 -1.01,-0.734 1.249,0 z m 8.02,0 0.386,1.188 1.249,0 -1.01,0.734 0.386,1.188 -1.011,-0.734 -1.01,0.734 0.386,-1.188 -1.011,-0.734 1.249,0 z m -16.04,0 0.386,1.188 1.249,0 -1.011,0.734 0.386,1.188 -1.01,-0.734 -1.011,0.734 0.386,-1.188 -1.01,-0.734 1.249,0 z"
     id="path12"
     inkscape:connector-curvature="0"
     style="fill:#fcd116" />
  <path
     d="M 6.118,14.067 C 6.422,14.382 6.763,14.646 7.08,14.779 7.085,14.43 7.023,14.031 6.916,13.631 6.648,13.38 6.344,13.167 6.048,13.054 c -0.043,0.318 -0.012,0.673 0.07,1.013 z"
     id="path14"
     inkscape:connector-curvature="0"
     style="fill:#ce1126" />
  <path
     d="m 7.643,14.563 c 0.803,-2.916 -2.06,-2.738 -2.803,-3.67 0.512,1.068 -1.329,3.617 1.739,4.214 -0.202,-0.276 -0.366,-0.649 -0.46,-1.04 -0.082,-0.34 -0.113,-0.695 -0.07,-1.013 0.297,0.113 0.6,0.326 0.868,0.577 0.313,0.293 0.578,0.637 0.726,0.932 z"
     id="path16"
     inkscape:connector-curvature="0"
     style="fill:#fcd116" />
</svg>
