<?xml version="1.0" encoding="UTF-8" standalone="no"?>
<svg
   xmlns:dc="http://purl.org/dc/elements/1.1/"
   xmlns:cc="http://creativecommons.org/ns#"
   xmlns:rdf="http://www.w3.org/1999/02/22-rdf-syntax-ns#"
   xmlns:svg="http://www.w3.org/2000/svg"
   xmlns="http://www.w3.org/2000/svg"
   xmlns:sodipodi="http://sodipodi.sourceforge.net/DTD/sodipodi-0.dtd"
   xmlns:inkscape="http://www.inkscape.org/namespaces/inkscape"
   viewBox="0 0 36 26"
   id="svg2"
   version="1.1"
   inkscape:version="0.91 r13725"
   sodipodi:docname="1f1ea-1f1ed.svg"
   width="36"
   height="26">
  <metadata
     id="metadata22">
    <rdf:RDF>
      <cc:Work
         rdf:about="">
        <dc:format>image/svg+xml</dc:format>
        <dc:type
           rdf:resource="http://purl.org/dc/dcmitype/StillImage" />
      </cc:Work>
    </rdf:RDF>
  </metadata>
  <defs
     id="defs20" />
  <sodipodi:namedview
     pagecolor="#ffffff"
     bordercolor="#666666"
     borderopacity="1"
     objecttolerance="10"
     gridtolerance="10"
     guidetolerance="10"
     inkscape:pageopacity="0"
     inkscape:pageshadow="2"
     inkscape:window-width="640"
     inkscape:window-height="480"
     id="namedview18"
     showgrid="false"
     inkscape:zoom="6.5555556"
     inkscape:cx="18"
     inkscape:cy="13"
     inkscape:window-x="0"
     inkscape:window-y="0"
     inkscape:window-maximized="0"
     inkscape:current-layer="svg2" />
  <path
     d="M 32,0 4,0 C 1.791,0 0,1.791 0,4 L 0,8.5 36,8.5 36,4 C 36,1.791 34.209,0 32,0 Z"
     id="path4"
     inkscape:connector-curvature="0"
     style="fill:#141414" />
  <path
     d="m 0,22 c 0,2.209 1.791,4 4,4 l 28,0 c 2.209,0 4,-1.791 4,-4 l 0,-4.5 -36,0 0,4.5 z"
     id="path6"
     inkscape:connector-curvature="0"
     style="fill:#007a3d" />
  <path
     d="m 0,8.5 36,0 0,9 -36,0 z"
     id="path8"
     inkscape:connector-curvature="0"
     style="fill:#eeeeee" />
  <path
     d="M 1.129,1.223 C 0.433,1.943 0,2.92 0,4 l 0,18 c 0,1.08 0.433,2.057 1.129,2.777 L 12,13 1.129,1.223 Z"
     id="path10"
     inkscape:connector-curvature="0"
     style="fill:#c4111b" />
  <g
     id="g12"
     style="fill:#c4111b"
     transform="translate(0,-5)">
    <path
       d="m 17.894,18.033 c 0,-1.692 1.213,-3.101 2.817,-3.405 -0.211,-0.04 -0.428,-0.062 -0.65,-0.062 -1.915,0 -3.467,1.552 -3.467,3.467 0,1.915 1.552,3.467 3.466,3.467 0.222,0 0.439,-0.022 0.65,-0.062 -1.603,-0.304 -2.816,-1.712 -2.816,-3.405 z"
       id="path14"
       inkscape:connector-curvature="0" />
    <path
       d="m 19.13,20.132 1.478,-1.057 1.467,1.073 -0.548,-1.732 1.473,-1.063 -1.817,-0.014 -0.556,-1.73 -0.575,1.724 -1.817,-0.006 1.462,1.079 -0.567,1.726 z"
       id="path16"
       inkscape:connector-curvature="0" />
  </g>
</svg>
