<?xml version="1.0" encoding="UTF-8" standalone="no"?>
<svg
   xmlns:dc="http://purl.org/dc/elements/1.1/"
   xmlns:cc="http://creativecommons.org/ns#"
   xmlns:rdf="http://www.w3.org/1999/02/22-rdf-syntax-ns#"
   xmlns:svg="http://www.w3.org/2000/svg"
   xmlns="http://www.w3.org/2000/svg"
   xmlns:sodipodi="http://sodipodi.sourceforge.net/DTD/sodipodi-0.dtd"
   xmlns:inkscape="http://www.inkscape.org/namespaces/inkscape"
   viewBox="0 0 36 26"
   id="svg2"
   version="1.1"
   inkscape:version="0.91 r13725"
   sodipodi:docname="1f1ea-1f1f9.svg"
   width="36"
   height="26">
  <metadata
     id="metadata28">
    <rdf:RDF>
      <cc:Work
         rdf:about="">
        <dc:format>image/svg+xml</dc:format>
        <dc:type
           rdf:resource="http://purl.org/dc/dcmitype/StillImage" />
      </cc:Work>
    </rdf:RDF>
  </metadata>
  <defs
     id="defs26" />
  <sodipodi:namedview
     pagecolor="#ffffff"
     bordercolor="#666666"
     borderopacity="1"
     objecttolerance="10"
     gridtolerance="10"
     guidetolerance="10"
     inkscape:pageopacity="0"
     inkscape:pageshadow="2"
     inkscape:window-width="640"
     inkscape:window-height="480"
     id="namedview24"
     showgrid="false"
     inkscape:zoom="6.5555556"
     inkscape:cx="18"
     inkscape:cy="13"
     inkscape:window-x="0"
     inkscape:window-y="0"
     inkscape:window-maximized="0"
     inkscape:current-layer="svg2" />
  <path
     d="M 0,8 36,8 36,18 0,18 Z"
     id="path4"
     inkscape:connector-curvature="0"
     style="fill:#fcdd0a" />
  <path
     d="M 32,0 4,0 C 1.791,0 0,1.791 0,4 L 0,8 36,8 36,4 C 36,1.791 34.209,0 32,0 Z"
     id="path6"
     inkscape:connector-curvature="0"
     style="fill:#088930" />
  <path
     d="m 4,26 28,0 c 2.209,0 4,-1.791 4,-4 l 0,-4 -36,0 0,4 c 0,2.209 1.791,4 4,4 z"
     id="path8"
     inkscape:connector-curvature="0"
     style="fill:#da1219" />
  <circle
     cx="18"
     cy="13"
     r="9"
     id="circle10"
     style="fill:#0f47af" />
  <g
     id="g12"
     style="fill:#fcdd0a"
     transform="translate(0,-5)">
    <path
       d="m 13.25,24.469 1.719,-5.531 -2.731,-1.985 1.156,0 3.778,2.893 -0.594,0.359 -0.922,-0.83 -1.468,4.406 z"
       id="path14"
       inkscape:connector-curvature="0" />
    <path
       d="m 22.609,24.469 -4.73,-3.345 -2.723,1.97 0.357,-1.1 3.964,-2.824 0.158,0.676 -1.128,0.759 3.739,2.759 z"
       id="path16"
       inkscape:connector-curvature="0" />
    <path
       d="m 25.382,15.64 -4.519,3.372 1.012,3.222 -0.935,-0.677 -1.463,-4.633 0.693,0.058 0.395,1.272 3.7,-2.647 z"
       id="path18"
       inkscape:connector-curvature="0" />
    <path
       d="m 17.872,10.07 1.86,5.487 3.344,0.05 -0.933,0.68 -4.549,-0.038 0.271,-0.642 0.979,-0.06 -1.327,-4.37 z m -7.669,5.477 5.906,0 1.063,-3.254 0.358,1.098 -1.518,4.609 -0.526,-0.456 0.476,-1.372 -4.783,0.029 z m 7.526,6.765 0.417,0 0,3.647 -0.417,0 z M 25.576,20.225 25.448,20.621 22,19.466 22.128,19.07 Z"
       id="path20"
       inkscape:connector-curvature="0" />
    <path
       d="m 22.473,11.453 0.337,0.245 -2.177,3.021 -0.337,-0.244 z m -9.359,0.245 0.337,-0.245 2.174,3.021 -0.336,0.245 z m -2.637,8.923 -0.129,-0.396 3.454,-1.155 0.129,0.397 z"
       id="path22"
       inkscape:connector-curvature="0" />
  </g>
</svg>
