<?xml version="1.0" encoding="UTF-8" standalone="no"?>
<svg
   xmlns:dc="http://purl.org/dc/elements/1.1/"
   xmlns:cc="http://creativecommons.org/ns#"
   xmlns:rdf="http://www.w3.org/1999/02/22-rdf-syntax-ns#"
   xmlns:svg="http://www.w3.org/2000/svg"
   xmlns="http://www.w3.org/2000/svg"
   xmlns:sodipodi="http://sodipodi.sourceforge.net/DTD/sodipodi-0.dtd"
   xmlns:inkscape="http://www.inkscape.org/namespaces/inkscape"
   viewBox="0 0 36 26"
   id="svg2"
   version="1.1"
   inkscape:version="0.91 r13725"
   sodipodi:docname="1f1e7-1f1f3.svg"
   width="36"
   height="26">
  <metadata
     id="metadata22">
    <rdf:RDF>
      <cc:Work
         rdf:about="">
        <dc:format>image/svg+xml</dc:format>
        <dc:type
           rdf:resource="http://purl.org/dc/dcmitype/StillImage" />
      </cc:Work>
    </rdf:RDF>
  </metadata>
  <defs
     id="defs20" />
  <sodipodi:namedview
     pagecolor="#ffffff"
     bordercolor="#666666"
     borderopacity="1"
     objecttolerance="10"
     gridtolerance="10"
     guidetolerance="10"
     inkscape:pageopacity="0"
     inkscape:pageshadow="2"
     inkscape:window-width="640"
     inkscape:window-height="480"
     id="namedview18"
     showgrid="false"
     inkscape:zoom="6.5555556"
     inkscape:cx="18"
     inkscape:cy="13"
     inkscape:window-x="0"
     inkscape:window-y="0"
     inkscape:window-maximized="0"
     inkscape:current-layer="svg2" />
  <path
     d="m 36,22 c 0,2.209 -1.791,4 -4,4 L 4,26 C 1.791,26 0,24.209 0,22 L 0,4 C 0,1.791 1.791,0 4,0 l 28,0 c 2.209,0 4,1.791 4,4 l 0,18 z"
     id="path4"
     inkscape:connector-curvature="0"
     style="fill:#f7e017" />
  <path
     d="M 36,22 0,14 0,9 36,17 Z"
     id="path6"
     inkscape:connector-curvature="0"
     style="fill:#141414" />
  <path
     d="M 36,17 0,9 0,4 36,12 Z"
     id="path8"
     inkscape:connector-curvature="0"
     style="fill:#eeeeee" />
  <g
     id="g10"
     style="fill:#cf1b26"
     transform="translate(0,-5)">
    <path
       d="m 21.596,14.935 c 0.443,0.688 0.699,1.507 0.699,2.386 0,2.44 -1.978,4.419 -4.418,4.419 -2.441,0 -4.419,-1.979 -4.419,-4.419 0,-0.879 0.257,-1.698 0.699,-2.386 -0.838,0.905 -1.351,2.116 -1.351,3.447 0,2.801 2.27,5.071 5.071,5.071 2.801,0 5.071,-2.271 5.071,-5.071 0,-1.331 -0.513,-2.542 -1.352,-3.447 z M 9.703,15.506 c 0.537,0.118 0.656,0.323 0.629,0.758 0,0 0.273,0.053 0.463,0.325 0.191,0.272 0.367,0.543 0.693,0.652 0.327,0.109 0.585,0.325 0.585,0.978 l 0,2.42 c 0,0 -0.06,0.245 0.076,0.57 0.136,0.327 0.059,0.789 -0.947,0.789 -1.006,0 -1.012,-0.435 -0.877,-0.761 0.136,-0.326 0.293,-0.599 0.293,-0.599 l 0,-2.08 c 0,0 -0.196,-0.285 -0.468,-0.476 C 9.878,17.892 9.304,17.212 9.223,16.559 9.141,15.908 8.989,15.35 9.703,15.506 Z m 16.257,0 c -0.537,0.118 -0.656,0.323 -0.629,0.758 0,0 -0.274,0.053 -0.464,0.325 -0.19,0.272 -0.268,0.543 -0.594,0.652 -0.326,0.109 -0.485,0.325 -0.485,0.978 l 0,2.42 c 0,0 -0.039,0.245 -0.176,0.57 -0.136,0.327 -0.107,0.789 0.898,0.789 1.006,0 1.087,-0.435 0.951,-0.761 -0.136,-0.326 -0.219,-0.599 -0.219,-0.599 l 0,-2.08 c 0,0 0.097,-0.285 0.368,-0.476 0.273,-0.19 0.796,-0.87 0.878,-1.523 0.083,-0.651 0.185,-1.209 -0.528,-1.053 z"
       id="path12"
       inkscape:connector-curvature="0" />
    <path
       d="m 23.435,24.738 c 0,0 0.325,-0.652 -0.028,-0.788 -0.354,-0.136 -1.06,0 -1.06,0 0,0 0.589,-0.747 0.026,-1.061 -0.561,-0.313 -0.947,0.462 -1.439,0.815 -0.491,0.354 -0.986,0.549 -1.586,0.748 -0.598,0.199 -1.378,0.285 -1.378,0.285 0,0 -0.875,-0.086 -1.473,-0.285 -0.599,-0.199 -1.188,-0.395 -1.68,-0.748 -0.492,-0.353 -0.877,-1.129 -1.439,-0.815 -0.562,0.313 0.028,1.061 0.028,1.061 0,0 -0.707,-0.136 -1.06,0 -0.354,0.136 -0.026,0.788 -0.026,0.788 -0.788,0.109 -0.513,0.599 -0.513,0.599 0,0 0.196,-0.253 1.012,-0.253 0.816,0 1.153,0.797 1.697,0.797 0.544,0 0.54,-0.517 0.54,-0.517 1.007,0.843 2.915,0.843 2.915,0.843 0,0 1.814,0 2.82,-0.843 0,0 -0.051,0.517 0.493,0.517 0.544,0 0.857,-0.797 1.674,-0.797 0.815,0 1,0.253 1,0.253 0,0 0.267,-0.489 -0.523,-0.599 z m -2.16,-10.571 c -0.598,-0.163 -1.238,-0.924 -2.081,-0.924 -0.843,0 -1.225,0.653 -1.225,0.653 0,0 -0.467,-0.653 -1.31,-0.653 -0.843,0 -1.569,0.761 -2.168,0.924 -0.598,0.164 -1.169,0 -1.169,0 0.136,0.625 0.835,0.768 0.835,0.768 0.074,0.388 0.659,0.401 0.659,0.401 0.079,0.462 0.927,0.144 0.927,0.144 0,0 -0.053,0.455 0.382,0.4 0.435,-0.054 1.172,-0.816 1.172,-0.816 0,0 -0.212,0.218 -0.184,0.415 0.027,0.198 0.365,0.183 0.365,0.183 -0.299,0.299 0.241,0.653 0.241,0.653 l 0.25,-0.19 0.165,0.19 c 0,0 0.497,-0.353 0.197,-0.653 0,0 0.316,0.015 0.344,-0.183 0.027,-0.198 -0.195,-0.415 -0.195,-0.415 0,0 0.732,0.762 1.167,0.816 0.436,0.054 0.38,-0.4 0.38,-0.4 0,0 0.847,0.319 0.927,-0.144 0,0 0.584,-0.014 0.657,-0.401 0,0 0.699,-0.143 0.835,-0.768 -0.001,0 -0.572,0.164 -1.171,0 z M 17.021,11.72 c 0,-0.121 0.383,-0.218 0.857,-0.218 0.473,0 0.857,0.097 0.857,0.218 0,0.12 -0.384,0.217 -0.857,0.217 -0.474,0.001 -0.857,-0.097 -0.857,-0.217 z"
       id="path14"
       inkscape:connector-curvature="0" />
    <path
       d="m 18.882,12.155 c -0.027,-0.191 -0.142,-0.218 -0.142,-0.218 0,0 -0.449,0.116 -0.863,0.116 -0.415,0 -0.857,-0.116 -0.857,-0.116 0,0 -0.109,0.027 -0.136,0.218 -0.027,0.19 -0.217,0.775 -0.217,0.775 l 0.354,-0.388 0.299,0.388 0.299,-0.388 0.258,0.388 0.265,-0.388 0.303,0.388 0.3,-0.388 0.355,0.388 c 0,0 -0.19,-0.584 -0.218,-0.775 z m -0.913,-2.324 0,1.06 0.729,0.313 -0.281,-0.435 0.572,-0.273 z m -0.31,3.099 0.449,0 0,1.142 -0.449,0 z m 0.816,8.076 c 0,0 0.294,-0.407 0.233,-0.714 -0.061,-0.306 -0.346,-0.789 -0.427,-1.098 -0.082,-0.309 0.198,-0.595 0.198,-0.595 l -0.217,-0.041 c 0,0 0.292,-0.265 0.217,-0.551 -0.075,-0.286 -0.217,-0.652 -0.258,-0.978 -0.041,-0.327 0.258,-0.714 0.258,-0.714 l -0.387,0.224 -0.211,-0.224 -0.205,0.224 -0.38,-0.224 c 0,0 0.299,0.387 0.258,0.714 -0.041,0.326 -0.184,0.693 -0.258,0.978 -0.075,0.286 0.218,0.551 0.218,0.551 l -0.218,0.041 c 0,0 0.279,0.286 0.197,0.595 -0.081,0.309 -0.367,0.792 -0.428,1.098 -0.061,0.307 0.231,0.714 0.231,0.714 l -0.584,-0.122 c 0.319,0.652 0.692,0.733 1.169,0.733 0.477,0 0.856,-0.081 1.175,-0.733 l -0.581,0.122 z"
       id="path16"
       inkscape:connector-curvature="0" />
  </g>
</svg>
