<?xml version="1.0" encoding="UTF-8" standalone="no"?>
<svg
   xmlns:dc="http://purl.org/dc/elements/1.1/"
   xmlns:cc="http://creativecommons.org/ns#"
   xmlns:rdf="http://www.w3.org/1999/02/22-rdf-syntax-ns#"
   xmlns:svg="http://www.w3.org/2000/svg"
   xmlns="http://www.w3.org/2000/svg"
   xmlns:sodipodi="http://sodipodi.sourceforge.net/DTD/sodipodi-0.dtd"
   xmlns:inkscape="http://www.inkscape.org/namespaces/inkscape"
   viewBox="0 0 36 26"
   id="svg2"
   version="1.1"
   inkscape:version="0.91 r13725"
   sodipodi:docname="1f1e8-1f1ec.svg"
   width="36"
   height="26">
  <metadata
     id="metadata14">
    <rdf:RDF>
      <cc:Work
         rdf:about="">
        <dc:format>image/svg+xml</dc:format>
        <dc:type
           rdf:resource="http://purl.org/dc/dcmitype/StillImage" />
      </cc:Work>
    </rdf:RDF>
  </metadata>
  <defs
     id="defs12" />
  <sodipodi:namedview
     pagecolor="#ffffff"
     bordercolor="#666666"
     borderopacity="1"
     objecttolerance="10"
     gridtolerance="10"
     guidetolerance="10"
     inkscape:pageopacity="0"
     inkscape:pageshadow="2"
     inkscape:window-width="640"
     inkscape:window-height="480"
     id="namedview10"
     showgrid="false"
     inkscape:zoom="6.5555556"
     inkscape:cx="18"
     inkscape:cy="13"
     inkscape:window-x="0"
     inkscape:window-y="0"
     inkscape:window-maximized="0"
     inkscape:current-layer="svg2" />
  <path
     d="M 4,0 C 1.791,0 0,1.791 0,4 l 0,18 c 0,1.104 0.448,2.104 1.172,2.828 L 26,0 4,0 Z"
     id="path4"
     inkscape:connector-curvature="0"
     style="fill:#009543" />
  <path
     d="M 32,0 26,0 1.172,24.828 C 1.896,25.552 2.896,26 4,26 L 10,26 34.828,1.172 C 34.104,0.448 33.104,0 32,0 Z"
     id="path6"
     inkscape:connector-curvature="0"
     style="fill:#fbde4a" />
  <path
     d="m 10,26 22,0 c 2.209,0 4,-1.791 4,-4 L 36,4 C 36,2.896 35.552,1.896 34.828,1.172 L 10,26 Z"
     id="path8"
     inkscape:connector-curvature="0"
     style="fill:#dc241f" />
</svg>
