<?xml version="1.0" encoding="UTF-8" standalone="no"?>
<svg
   xmlns:dc="http://purl.org/dc/elements/1.1/"
   xmlns:cc="http://creativecommons.org/ns#"
   xmlns:rdf="http://www.w3.org/1999/02/22-rdf-syntax-ns#"
   xmlns:svg="http://www.w3.org/2000/svg"
   xmlns="http://www.w3.org/2000/svg"
   xmlns:sodipodi="http://sodipodi.sourceforge.net/DTD/sodipodi-0.dtd"
   xmlns:inkscape="http://www.inkscape.org/namespaces/inkscape"
   viewBox="0 0 36 26"
   id="svg2"
   version="1.1"
   inkscape:version="0.91 r13725"
   sodipodi:docname="1f1f9-1f1f3.svg"
   width="36"
   height="26">
  <metadata
     id="metadata16">
    <rdf:RDF>
      <cc:Work
         rdf:about="">
        <dc:format>image/svg+xml</dc:format>
        <dc:type
           rdf:resource="http://purl.org/dc/dcmitype/StillImage" />
      </cc:Work>
    </rdf:RDF>
  </metadata>
  <defs
     id="defs14" />
  <sodipodi:namedview
     pagecolor="#ffffff"
     bordercolor="#666666"
     borderopacity="1"
     objecttolerance="10"
     gridtolerance="10"
     guidetolerance="10"
     inkscape:pageopacity="0"
     inkscape:pageshadow="2"
     inkscape:window-width="640"
     inkscape:window-height="480"
     id="namedview12"
     showgrid="false"
     inkscape:zoom="6.5555556"
     inkscape:cx="18"
     inkscape:cy="13"
     inkscape:window-x="0"
     inkscape:window-y="0"
     inkscape:window-maximized="0"
     inkscape:current-layer="svg2" />
  <path
     d="M 32,0 4,0 C 1.791,0 0,1.791 0,4 l 0,18 c 0,2.209 1.791,4 4,4 l 28,0 c 2.209,0 4,-1.791 4,-4 L 36,4 C 36,1.791 34.209,0 32,0 Z"
     id="path4"
     inkscape:connector-curvature="0"
     style="fill:#e70013" />
  <circle
     cx="18"
     cy="13"
     r="6.5"
     id="circle6"
     style="fill:#ffffff" />
  <path
     d="m 15.4,13 c 0,-2.154 1.746,-3.9 3.9,-3.9 1.019,0 1.946,0.391 2.641,1.031 C 21.054,8.915 19.62,8.125 18,8.125 c -2.692,0 -4.875,2.183 -4.875,4.875 0,2.692 2.183,4.875 4.875,4.875 1.62,0 3.055,-0.79 3.941,-2.006 -0.695,0.64 -1.622,1.031 -2.641,1.031 -2.154,0 -3.9,-1.746 -3.9,-3.9 z"
     id="path8"
     inkscape:connector-curvature="0"
     style="fill:#e70013" />
  <path
     d="m 19.645,11.937 -1.249,-1.719 0,2.125 -2.021,0.657 2.021,0.657 0,2.125 1.249,-1.719 2.021,0.656 L 20.417,13 21.666,11.281 Z"
     id="path10"
     inkscape:connector-curvature="0"
     style="fill:#e70013" />
</svg>
