<?xml version="1.0" encoding="UTF-8" standalone="no"?>
<svg
   xmlns:dc="http://purl.org/dc/elements/1.1/"
   xmlns:cc="http://creativecommons.org/ns#"
   xmlns:rdf="http://www.w3.org/1999/02/22-rdf-syntax-ns#"
   xmlns:svg="http://www.w3.org/2000/svg"
   xmlns="http://www.w3.org/2000/svg"
   xmlns:sodipodi="http://sodipodi.sourceforge.net/DTD/sodipodi-0.dtd"
   xmlns:inkscape="http://www.inkscape.org/namespaces/inkscape"
   viewBox="0 0 36 26"
   id="svg2"
   version="1.1"
   inkscape:version="0.91 r13725"
   sodipodi:docname="1f1fc-1f1eb.svg"
   width="36"
   height="26">
  <metadata
     id="metadata20">
    <rdf:RDF>
      <cc:Work
         rdf:about="">
        <dc:format>image/svg+xml</dc:format>
        <dc:type
           rdf:resource="http://purl.org/dc/dcmitype/StillImage" />
      </cc:Work>
    </rdf:RDF>
  </metadata>
  <defs
     id="defs18" />
  <sodipodi:namedview
     pagecolor="#ffffff"
     bordercolor="#666666"
     borderopacity="1"
     objecttolerance="10"
     gridtolerance="10"
     guidetolerance="10"
     inkscape:pageopacity="0"
     inkscape:pageshadow="2"
     inkscape:window-width="640"
     inkscape:window-height="480"
     id="namedview16"
     showgrid="false"
     inkscape:zoom="6.5555556"
     inkscape:cx="18"
     inkscape:cy="13"
     inkscape:window-x="0"
     inkscape:window-y="0"
     inkscape:window-maximized="0"
     inkscape:current-layer="svg2" />
  <path
     d="M 32,0 18,0 18,12 0,12 0,22 c 0,2.209 1.791,4 4,4 l 28,0 c 2.209,0 4,-1.791 4,-4 L 36,4 C 36,1.791 34.209,0 32,0 Z"
     id="path4"
     inkscape:connector-curvature="0"
     style="fill:#ed2939" />
  <path
     d="m 0,11 19,0 0,2 -19,0 z"
     id="path6"
     inkscape:connector-curvature="0"
     style="fill:#eeeeee" />
  <path
     d="M 6,12 0,12 0,4 C 0,1.791 1.791,0 4,0 l 2,0 0,12 z"
     id="path8"
     inkscape:connector-curvature="0"
     style="fill:#002395" />
  <path
     d="m 6,0 6,0 0,12 -6,0 z m 11,0 2,0 0,13 -2,0 z"
     id="path10"
     inkscape:connector-curvature="0"
     style="fill:#eeeeee" />
  <path
     d="m 12,0 6,0 0,12 -6,0 z"
     id="path12"
     inkscape:connector-curvature="0"
     style="fill:#ed2939" />
  <path
     d="m 24.38,17.32 6.24,0 L 27.5,14.2 Z M 30.62,9 24.38,9 27.5,12.12 Z m 1.04,7.28 0,-6.24 -3.12,3.12 z m -8.32,-6.24 0,6.24 3.12,-3.12 z"
     id="path14"
     inkscape:connector-curvature="0"
     style="fill:#ffffff" />
</svg>
