<?xml version="1.0" encoding="UTF-8" standalone="no"?>
<svg
   xmlns:dc="http://purl.org/dc/elements/1.1/"
   xmlns:cc="http://creativecommons.org/ns#"
   xmlns:rdf="http://www.w3.org/1999/02/22-rdf-syntax-ns#"
   xmlns:svg="http://www.w3.org/2000/svg"
   xmlns="http://www.w3.org/2000/svg"
   xmlns:sodipodi="http://sodipodi.sourceforge.net/DTD/sodipodi-0.dtd"
   xmlns:inkscape="http://www.inkscape.org/namespaces/inkscape"
   viewBox="0 0 36 26"
   id="svg2"
   version="1.1"
   inkscape:version="0.91 r13725"
   sodipodi:docname="1f1f5-1f1ec.svg"
   width="36"
   height="26">
  <metadata
     id="metadata16">
    <rdf:RDF>
      <cc:Work
         rdf:about="">
        <dc:format>image/svg+xml</dc:format>
        <dc:type
           rdf:resource="http://purl.org/dc/dcmitype/StillImage" />
      </cc:Work>
    </rdf:RDF>
  </metadata>
  <defs
     id="defs14" />
  <sodipodi:namedview
     pagecolor="#ffffff"
     bordercolor="#666666"
     borderopacity="1"
     objecttolerance="10"
     gridtolerance="10"
     guidetolerance="10"
     inkscape:pageopacity="0"
     inkscape:pageshadow="2"
     inkscape:window-width="640"
     inkscape:window-height="480"
     id="namedview12"
     showgrid="false"
     inkscape:zoom="6.5555556"
     inkscape:cx="18"
     inkscape:cy="13"
     inkscape:window-x="0"
     inkscape:window-y="0"
     inkscape:window-maximized="0"
     inkscape:current-layer="svg2" />
  <path
     d="m 36,22 c 0,2.209 -1.791,4 -4,4 L 4,26 C 1.791,26 0,24.209 0,22 L 0,4 C 0,1.791 1.791,0 4,0 l 28,0 c 2.209,0 4,1.791 4,4 l 0,18 z"
     id="path4"
     inkscape:connector-curvature="0"
     style="fill:#141414" />
  <path
     d="M 34.618,25.002 C 35.458,24.269 36,23.202 36,22 L 36,4 C 36,1.791 34.209,0 32,0 L 4,0 C 2.994,0 2.085,0.384 1.382,0.998 l 33.236,24.004 z"
     id="path6"
     inkscape:connector-curvature="0"
     style="fill:#ce1126" />
  <path
     d="m 7.721,8.536 0.383,1.316 1.324,0 -1.045,0.804 0.383,1.279 -1.045,-0.805 -1.045,0.768 0.383,-1.242 -1.045,-0.804 1.289,0 z m -4.014,5.133 0.383,1.314 1.324,0 -1.045,0.804 0.383,1.279 L 3.707,16.263 2.662,17.03 3.045,15.787 2,14.983 l 1.289,0 z m 4.014,6.933 0.383,1.315 1.324,0 L 8.383,22.721 8.766,24 7.721,23.196 6.676,23.963 7.059,22.721 6.014,21.917 l 1.289,0 z m 1.792,-2.794 0.192,0.657 0.662,0 -0.523,0.403 0.192,0.639 -0.523,-0.403 -0.522,0.384 0.191,-0.62 -0.522,-0.403 0.644,0 z m 2.203,-4.504 0.383,1.315 1.324,0 -1.045,0.804 0.383,1.279 -1.045,-0.804 -1.045,0.767 0.383,-1.242 -1.045,-0.804 1.289,0 z"
     id="path8"
     inkscape:connector-curvature="0"
     style="fill:#ffffff" />
  <path
     d="M 22.723,7.734 C 22.414,8.133 21.684,7.333 20.809,7.315 19.934,7.296 19.313,8.153 19.059,8.445 18.803,8.737 17.982,10.268 18,10.433 c 0.02,0.164 0.512,-0.457 0.693,-0.566 0.017,0.219 -0.201,0.475 -0.146,0.547 0.055,0.074 0.639,-0.438 0.84,-0.455 0.055,0.146 -0.109,0.291 -0.055,0.51 0.072,0.074 0.4,-0.364 0.619,-0.455 0.037,0.164 -0.201,0.474 -0.072,0.674 0.09,0.019 0.639,-0.619 0.82,-0.692 0.182,-0.073 -0.092,0.602 0,0.657 0.164,-0.109 0.674,-0.693 0.838,-0.766 0.164,-0.073 -0.018,0.747 0.055,0.747 0.201,-0.145 0.711,-0.838 0.766,-0.947 0.055,-0.109 -0.055,1.057 0.512,1.677 0.566,0.62 1.422,1.331 1.514,1.331 0.109,-0.2 -0.037,-0.62 0.055,-0.602 0.256,0.273 0.729,0.675 0.838,0.675 0.109,0 -0.072,-0.438 0.074,-0.438 0.291,0.273 1.129,1.35 2.771,1.842 -0.109,-0.311 -0.348,-0.584 -0.365,-0.729 0.109,0.018 0.492,0.2 0.564,0.183 0.074,-0.019 -0.801,-1.095 -0.748,-1.24 0.201,-0.019 0.293,0.109 0.365,0.018 -0.09,-0.146 -0.857,-1.003 -0.857,-1.203 0,-0.201 0.238,0.036 0.311,0 0.074,-0.037 -0.291,-0.802 -0.219,-0.894 0.072,-0.09 0.875,0.492 1.076,0.492 0.201,0 0.055,-0.711 0.147,-0.747 0.09,-0.036 0.766,0.383 0.91,0.383 0.146,0 0.129,-0.31 0.184,-0.274 0.055,0.036 1.641,1.623 1.094,3.482 -0.547,1.331 -1.641,2.042 -3.246,1.459 0.092,0.146 0.949,0.856 1.879,0.602 0.93,-0.255 2.061,-0.984 1.934,-2.808 -0.129,-1.824 -0.73,-2.079 -0.82,-2.352 -0.094,-0.273 0.145,0.073 0.344,0.145 0.203,0.074 -0.035,-0.383 -0.09,-0.583 -0.055,-0.2 0.602,0.419 0.766,0.474 0.164,0.055 -0.383,-1.495 -0.547,-1.604 -0.164,-0.109 0.164,0.037 0.273,0.073 0.109,0.036 -1.004,-1.696 -1.24,-1.696 -0.236,0 0.201,-0.091 0.328,-0.091 0.127,0 -1.275,-1.13 -1.514,-1.13 -0.236,0 0.512,-0.292 0.584,-0.311 C 29.362,5.84 27.612,4.891 26.044,5.84 25.954,5.767 26.782,5.192 26.81,4.946 26.82,4.883 26.537,4.746 26.519,4.673 26.501,4.6 26.957,4.381 26.974,4.217 26.865,4.071 26.665,4.126 26.556,4.09 26.529,3.953 26.939,3.615 26.902,3.469 26.875,3.387 26.574,3.36 26.502,3.414 26.428,3.469 26.694,3.031 26.647,2.904 26.612,2.849 26.465,2.886 26.319,2.922 26.229,2.904 26.794,2.12 26.684,2.01 26.575,1.901 25.043,2.812 24.479,3.833 23.913,4.854 24.35,5.675 24.278,6.021 24.206,6.367 24.114,6.714 23.878,6.714 23.64,6.714 23.093,6.349 22.911,6.167 22.727,5.984 22.692,5.857 22.436,5.784 22.18,5.711 21.596,5.93 21.377,5.948 21.158,5.967 20.303,5.784 20.248,5.839 c -0.055,0.055 0.838,0.383 1.039,0.493 0.199,0.109 0.219,0.254 0.363,0.346 0.143,0.09 1.512,0.491 1.073,1.056 z m 5.343,2.571 c 0.438,0.438 3.391,2.407 3.391,4.814 0,2.407 -2.152,2.334 -2.772,2.261 0.693,0.584 3.318,0.475 3.318,-2.261 0,-2.407 -3.391,-4.814 -3.828,-5.033 -0.437,-0.219 -0.548,-0.219 -0.109,0.219 z"
     id="path10"
     inkscape:connector-curvature="0"
     style="fill:#fcd116" />
</svg>
