<?xml version="1.0" encoding="UTF-8" standalone="no"?>
<svg
   xmlns:dc="http://purl.org/dc/elements/1.1/"
   xmlns:cc="http://creativecommons.org/ns#"
   xmlns:rdf="http://www.w3.org/1999/02/22-rdf-syntax-ns#"
   xmlns:svg="http://www.w3.org/2000/svg"
   xmlns="http://www.w3.org/2000/svg"
   xmlns:sodipodi="http://sodipodi.sourceforge.net/DTD/sodipodi-0.dtd"
   xmlns:inkscape="http://www.inkscape.org/namespaces/inkscape"
   viewBox="0 0 36 26"
   id="svg2"
   version="1.1"
   inkscape:version="0.91 r13725"
   sodipodi:docname="1f1fa-1f1ec.svg"
   width="36"
   height="26">
  <metadata
     id="metadata36">
    <rdf:RDF>
      <cc:Work
         rdf:about="">
        <dc:format>image/svg+xml</dc:format>
        <dc:type
           rdf:resource="http://purl.org/dc/dcmitype/StillImage" />
      </cc:Work>
    </rdf:RDF>
  </metadata>
  <defs
     id="defs34" />
  <sodipodi:namedview
     pagecolor="#ffffff"
     bordercolor="#666666"
     borderopacity="1"
     objecttolerance="10"
     gridtolerance="10"
     guidetolerance="10"
     inkscape:pageopacity="0"
     inkscape:pageshadow="2"
     inkscape:window-width="640"
     inkscape:window-height="480"
     id="namedview32"
     showgrid="false"
     inkscape:zoom="6.5555556"
     inkscape:cx="18"
     inkscape:cy="13"
     inkscape:window-x="0"
     inkscape:window-y="0"
     inkscape:window-maximized="0"
     inkscape:current-layer="svg2" />
  <path
     d="m 36,22 0,-1 -36,0 0,1 c 0,2.209 1.791,4 4,4 l 28,0 c 2.209,0 4,-1.791 4,-4 z"
     id="path4"
     inkscape:connector-curvature="0"
     style="fill:#d90001" />
  <path
     d="m 0,17 36,0 0,4 -36,0 z"
     id="path6"
     inkscape:connector-curvature="0"
     style="fill:#fcdc02" />
  <path
     d="m 0,13 36,0 0,4 -36,0 z"
     id="path8"
     inkscape:connector-curvature="0"
     style="fill:#141414" />
  <path
     d="m 0,9 36,0 0,4 -36,0 z"
     id="path10"
     inkscape:connector-curvature="0"
     style="fill:#d90001" />
  <path
     d="M 0,5 36,5 36,9 0,9 Z"
     id="path12"
     inkscape:connector-curvature="0"
     style="fill:#fcdc02" />
  <path
     d="M 0,4 0,5 36,5 36,4 C 36,1.791 34.209,0 32,0 L 4,0 C 1.791,0 0,1.791 0,4 Z"
     id="path14"
     inkscape:connector-curvature="0"
     style="fill:#141414" />
  <circle
     cx="18"
     cy="13"
     r="4"
     id="circle16"
     style="fill:#ffffff" />
  <path
     d="M 17.344,10.031 17.077,9.328 c 0,0 0.579,-0.203 1.142,0 0.429,0.155 0.469,0.703 0.469,0.703 l -0.671,0.203 -0.673,-0.203 z"
     id="path18"
     inkscape:connector-curvature="0"
     style="fill:#d90000" />
  <path
     d="m 17.594,9.922 0,-0.684 c 0,0 0.111,-0.043 0.423,0 C 18.329,9.281 18.47,9.5 18.47,9.5 l -0.438,0.532 -0.438,-0.11 z"
     id="path20"
     inkscape:connector-curvature="0"
     style="fill:#fcdc02" />
  <path
     d="m 17.745,11.896 c -0.083,-0.146 0,-1 0.239,-1.062 0.239,-0.062 0.698,-0.812 0,-1.062 -0.698,-0.25 -0.844,0.479 -0.844,0.479 0,0 -0.69,0.203 -0.604,0.375 0.083,0.167 0.667,-0.062 0.792,0.083 0.125,0.145 -0.062,0.354 -0.562,0.938 -0.5,0.584 -0.167,1.375 0.062,1.579 0.229,0.204 0.5,0.359 0.708,0.546 0.208,0.187 0.448,0.292 0.448,0.292 l 0,0.604 c 0,0 -0.698,0.062 -1.031,0.021 -0.333,-0.041 -0.562,0.188 -0.646,0.458 -0.084,0.27 0.125,0.417 0.125,0.209 0,-0.208 0.083,-0.084 0.102,0.083 0.019,0.167 0.168,0.104 0.168,-0.104 0,-0.208 0.083,-0.125 0.104,-0.021 0.021,0.104 0.167,-0.042 0.188,-0.167 0.021,-0.125 0.208,-0.188 0.375,-0.229 0.167,-0.041 0.614,0.041 0.614,0.041 l 0,1.104 c 0,0 -0.927,0.062 -1.01,0.188 -0.083,0.126 0.562,0.104 0.562,0.104 0,0 -0.188,0.354 -0.104,0.375 0.084,0.021 0.667,-0.354 0.896,-0.396 0.229,-0.042 0.583,0.104 0.625,0 0.042,-0.104 -0.562,-0.25 -0.625,-0.354 -0.063,-0.104 -0.188,-1.062 -0.188,-1.062 0,0 0.271,-0.022 0.605,-10e-4 0.333,0.021 0.25,-0.271 0.042,-0.562 -0.208,-0.291 -0.021,-0.375 0.333,-0.312 0.354,0.063 0.625,0 0.625,-0.563 0,-0.563 -1.916,-1.438 -1.999,-1.584 z m 0.729,2.708 -0.229,0 0.083,-0.417 c 0,0.001 0.292,0.417 0.146,0.417 z"
     id="path22"
     inkscape:connector-curvature="0"
     style="fill:#141414" />
  <path
     d="m 17.474,10.812 c 0.029,-0.249 -0.375,-0.229 -0.396,0 -0.021,0.229 0.355,0.355 0.396,0 z"
     id="path24"
     inkscape:connector-curvature="0"
     style="fill:#d90000" />
  <path
     d="m 17.75,12.047 c 0.115,-0.041 1.406,0.547 1.75,0.703 0.344,0.156 0.303,0.75 0.245,1.109 -0.058,0.359 -0.261,0.469 -0.261,0.469 0,0 -0.225,-0.58 -0.938,-0.859 -0.957,-0.375 -1.234,-1.266 -0.796,-1.422 z"
     id="path26"
     inkscape:connector-curvature="0"
     style="fill:#9ca69c" />
  <path
     d="m 19.203,12.734 c 0.421,0.11 1.312,0.312 1.391,1.219 0.078,0.906 -0.849,1.438 -0.849,1.438 L 19.9,15.11 19.625,15.204 19.745,15 19.312,15.094 c 0,0 0.725,-0.578 0.472,-1.094 0.019,0.43 -0.269,0.547 -0.269,0.547 0,0 0.248,-0.596 -0.828,-1.25 L 18.968,13.225 18.688,13 19.282,13.225 19,12.875 l 0.562,0.219 -0.359,-0.36 z"
     id="path28"
     inkscape:connector-curvature="0"
     style="fill:#d90000" />
  <path
     d="m 17.594,10.336 c 0,0.056 -0.045,0.102 -0.102,0.102 -0.056,0 -0.102,-0.045 -0.102,-0.102 0,-0.056 0.045,-0.102 0.102,-0.102 0.056,0 0.102,0.046 0.102,0.102 z"
     id="path30"
     inkscape:connector-curvature="0"
     style="fill:#9ca69c" />
</svg>
