<?xml version="1.0" encoding="UTF-8" standalone="no"?>
<svg
   xmlns:dc="http://purl.org/dc/elements/1.1/"
   xmlns:cc="http://creativecommons.org/ns#"
   xmlns:rdf="http://www.w3.org/1999/02/22-rdf-syntax-ns#"
   xmlns:svg="http://www.w3.org/2000/svg"
   xmlns="http://www.w3.org/2000/svg"
   xmlns:sodipodi="http://sodipodi.sourceforge.net/DTD/sodipodi-0.dtd"
   xmlns:inkscape="http://www.inkscape.org/namespaces/inkscape"
   viewBox="0 0 36 26"
   id="svg2"
   version="1.1"
   inkscape:version="0.91 r13725"
   sodipodi:docname="1f1f5-1f1ed.svg"
   width="36"
   height="26">
  <metadata
     id="metadata18">
    <rdf:RDF>
      <cc:Work
         rdf:about="">
        <dc:format>image/svg+xml</dc:format>
        <dc:type
           rdf:resource="http://purl.org/dc/dcmitype/StillImage" />
      </cc:Work>
    </rdf:RDF>
  </metadata>
  <defs
     id="defs16" />
  <sodipodi:namedview
     pagecolor="#ffffff"
     bordercolor="#666666"
     borderopacity="1"
     objecttolerance="10"
     gridtolerance="10"
     guidetolerance="10"
     inkscape:pageopacity="0"
     inkscape:pageshadow="2"
     inkscape:window-width="640"
     inkscape:window-height="480"
     id="namedview14"
     showgrid="false"
     inkscape:zoom="6.5555556"
     inkscape:cx="18"
     inkscape:cy="13"
     inkscape:window-x="0"
     inkscape:window-y="0"
     inkscape:window-maximized="0"
     inkscape:current-layer="svg2" />
  <path
     d="m 36,22 c 0,2.209 -1.791,4 -4,4 L 4,26 C 1.791,26 0,24.209 0,22 L 0,4 C 0,1.791 1.791,0 4,0 l 28,0 c 2.209,0 4,1.791 4,4 l 0,18 z"
     id="path4"
     inkscape:connector-curvature="0"
     style="fill:#ce1126" />
  <path
     d="M 32,0 4,0 C 1.791,0 0,1.791 0,4 l 0,9 36,0 0,-9 C 36,1.791 34.209,0 32,0 Z"
     id="path6"
     inkscape:connector-curvature="0"
     style="fill:#0038a8" />
  <path
     d="M 1.313,24.945 19.031,13.064 1.33,1.041 C 0.519,1.773 0,2.822 0,4 l 0,18 c 0,1.171 0.512,2.214 1.313,2.945 z"
     id="path8"
     inkscape:connector-curvature="0"
     style="fill:#eeeeee" />
  <path
     d="m 16.07,11.52 0.043,1.153 1.115,0.294 -1.083,0.396 0.065,1.152 -0.712,-0.908 -1.075,0.417 0.643,-0.957 -0.73,-0.893 1.11,0.316 z M 1.603,2.982 2.469,3.745 3.449,3.138 2.991,4.197 3.871,4.942 2.723,4.834 2.286,5.9 2.035,4.775 0.884,4.689 1.877,4.103 Z m 0.431,17.213 0.574,1 1.124,-0.257 -0.774,0.854 0.594,0.989 L 2.5,22.309 1.743,23.18 1.866,22.032 0.805,21.582 1.933,21.344 Z M 10,13 c 0,1.657 -1.343,3 -3,3 -1.657,0 -3,-1.344 -3,-3 0,-1.657 1.343,-3 3,-3 1.657,0 3,1.343 3,3 z"
     id="path10"
     inkscape:connector-curvature="0"
     style="fill:#fcd116" />
  <path
     d="M 7.595,7.597 7.438,10.245 7.194,10.209 7.279,7.135 7,6.953 6.721,7.135 6.806,10.209 6.562,10.245 6.405,7.597 6.052,7.815 l 0.329,2.697 1.238,0 0.329,-2.697 z M 6.405,18.403 6.562,15.755 6.806,15.791 6.72,18.865 7,19.047 7.279,18.865 7.194,15.791 l 0.244,-0.036 0.157,2.648 0.353,-0.218 -0.329,-2.698 -1.238,0 -0.329,2.698 z M 2.758,16.399 4.743,14.64 4.889,14.836 2.656,16.949 2.724,17.276 3.051,17.345 5.164,15.11 5.361,15.257 3.6,17.242 4.004,17.336 5.679,15.197 5.241,14.759 4.803,14.321 2.664,15.996 Z M 11.242,9.6 9.257,11.361 9.111,11.164 11.344,9.051 11.276,8.724 10.949,8.655 8.836,10.889 8.639,10.743 10.4,8.758 9.996,8.664 l -1.675,2.139 0.438,0.438 0.438,0.438 2.139,-1.675 z M 1.597,12.405 4.246,12.562 4.209,12.806 1.135,12.72 0.953,13 l 0.182,0.279 3.074,-0.085 0.037,0.244 -2.649,0.157 0.218,0.353 2.697,-0.329 0,-1.239 -2.697,-0.328 z m 10.806,1.19 -2.649,-0.157 0.037,-0.244 3.074,0.085 0.182,-0.279 -0.182,-0.28 -3.074,0.086 -0.037,-0.244 2.649,-0.157 -0.218,-0.353 -2.698,0.328 0,1.239 2.698,0.329 z M 3.6,8.758 5.361,10.743 5.164,10.889 3.051,8.655 2.724,8.724 2.656,9.051 4.889,11.164 4.743,11.361 2.758,9.6 2.664,10.004 4.803,11.679 5.241,11.241 5.679,10.803 4.004,8.664 Z m 6.8,8.484 -1.761,-1.985 0.197,-0.147 2.113,2.235 0.327,-0.069 0.068,-0.327 -2.233,-2.113 0.146,-0.196 1.985,1.759 0.094,-0.403 -2.139,-1.675 -0.438,0.438 -0.438,0.438 1.675,2.139 z"
     id="path12"
     inkscape:connector-curvature="0"
     style="fill:#fcd116" />
</svg>
