<?xml version="1.0" encoding="UTF-8" standalone="no"?>
<svg
   xmlns:dc="http://purl.org/dc/elements/1.1/"
   xmlns:cc="http://creativecommons.org/ns#"
   xmlns:rdf="http://www.w3.org/1999/02/22-rdf-syntax-ns#"
   xmlns:svg="http://www.w3.org/2000/svg"
   xmlns="http://www.w3.org/2000/svg"
   xmlns:sodipodi="http://sodipodi.sourceforge.net/DTD/sodipodi-0.dtd"
   xmlns:inkscape="http://www.inkscape.org/namespaces/inkscape"
   viewBox="0 0 36 26"
   id="svg2"
   version="1.1"
   inkscape:version="0.91 r13725"
   sodipodi:docname="1f1f9-1f1f2.svg"
   width="36"
   height="26">
  <metadata
     id="metadata46">
    <rdf:RDF>
      <cc:Work
         rdf:about="">
        <dc:format>image/svg+xml</dc:format>
        <dc:type
           rdf:resource="http://purl.org/dc/dcmitype/StillImage" />
      </cc:Work>
    </rdf:RDF>
  </metadata>
  <defs
     id="defs44" />
  <sodipodi:namedview
     pagecolor="#ffffff"
     bordercolor="#666666"
     borderopacity="1"
     objecttolerance="10"
     gridtolerance="10"
     guidetolerance="10"
     inkscape:pageopacity="0"
     inkscape:pageshadow="2"
     inkscape:window-width="640"
     inkscape:window-height="480"
     id="namedview42"
     showgrid="false"
     inkscape:zoom="6.5555556"
     inkscape:cx="18"
     inkscape:cy="13"
     inkscape:window-x="0"
     inkscape:window-y="0"
     inkscape:window-maximized="0"
     inkscape:current-layer="svg2" />
  <path
     d="m 36,22 c 0,2.209 -1.791,4 -4,4 L 4,26 C 1.791,26 0,24.209 0,22 L 0,4 C 0,1.791 1.791,0 4,0 l 28,0 c 2.209,0 4,1.791 4,4 l 0,18 z"
     id="path4"
     inkscape:connector-curvature="0"
     style="fill:#29ae66" />
  <path
     d="m 4,0 7,0 0,26 -7,0 z"
     id="path6"
     inkscape:connector-curvature="0"
     style="fill:#ca3745" />
  <path
     d="M 4,3.312 4.805,4.117 4.586,4.336 4.906,4.656 5.117,4.445 5.781,5.109 5.125,5.766 4.852,5.492 4.562,5.781 4.805,6.023 4,6.734 4,6.359 4.441,5.941 4.203,5.75 4.811,5.143 5.162,5.447 5.49,5.119 5.139,4.768 4.893,5.014 4.252,4.373 4.492,4.133 4,3.688 Z M 4,7.938 4.805,8.742 4.586,8.961 4.906,9.281 5.117,9.07 5.781,9.734 5.125,10.391 4.852,10.117 4.562,10.406 4.805,10.648 4,11.359 4,10.984 4.441,10.566 4.203,10.375 4.811,9.768 5.162,10.072 5.49,9.744 5.139,9.393 4.893,9.639 4.252,8.998 4.492,8.758 4,8.312 Z M 4,12.656 4.805,13.461 4.586,13.68 4.906,14 5.117,13.789 5.781,14.453 5.125,15.109 4.852,14.836 4.562,15.125 4.805,15.367 4,16.078 4,15.703 4.441,15.285 4.203,15.094 4.811,14.486 5.162,14.791 5.49,14.463 5.139,14.111 4.893,14.357 4.252,13.717 4.492,13.477 4,13.031 Z m 0,4.656 0.805,0.805 -0.219,0.219 0.32,0.32 0.211,-0.211 0.664,0.664 -0.656,0.657 -0.273,-0.274 -0.29,0.289 0.243,0.242 L 4,20.734 4,20.359 4.441,19.941 4.203,19.75 4.811,19.143 5.162,19.447 5.49,19.119 5.139,18.768 4.893,19.014 4.252,18.373 4.492,18.133 4,17.688 Z m 7,-14 -0.805,0.805 0.219,0.219 -0.32,0.32 L 9.883,4.445 9.219,5.109 9.875,5.766 10.148,5.492 10.438,5.781 10.195,6.023 11,6.734 11,6.359 10.559,5.941 10.797,5.75 10.189,5.143 9.838,5.447 9.51,5.119 9.861,4.768 10.107,5.014 10.748,4.373 10.508,4.133 11,3.688 Z M 4.562,0.688 4.852,0.398 5.125,0.672 5.781,0.016 5.766,0 5.465,0 5.49,0.025 5.162,0.354 4.811,0.049 4.203,0.656 4.441,0.848 4,1.266 4,1.641 4.805,0.93 Z M 10.797,0.656 10.189,0.049 9.838,0.354 9.51,0.025 9.535,0 9.234,0 9.219,0.016 9.875,0.672 10.148,0.398 10.438,0.688 10.195,0.93 11,1.641 11,1.266 10.559,0.848 Z M 11,7.938 10.195,8.742 10.414,8.961 10.094,9.281 9.883,9.07 9.219,9.734 l 0.656,0.657 0.273,-0.274 0.29,0.289 -0.243,0.242 L 11,11.359 11,10.984 10.559,10.566 10.797,10.375 10.189,9.768 9.838,10.072 9.51,9.744 9.861,9.393 10.107,9.639 10.748,8.998 10.508,8.758 11,8.312 Z m 0,4.718 -0.805,0.805 0.219,0.219 -0.32,0.32 -0.211,-0.211 -0.664,0.664 0.656,0.656 0.273,-0.273 0.29,0.289 -0.243,0.242 0.805,0.711 0,-0.375 -0.441,-0.418 0.238,-0.191 -0.608,-0.608 -0.351,0.305 -0.328,-0.328 0.351,-0.352 0.246,0.246 0.641,-0.64 -0.24,-0.24 L 11,13.031 Z m 0,4.656 -0.805,0.805 0.219,0.219 -0.32,0.32 -0.211,-0.211 -0.664,0.664 0.656,0.657 0.273,-0.274 0.29,0.289 -0.243,0.242 0.805,0.711 0,-0.375 -0.441,-0.418 0.238,-0.191 -0.608,-0.607 -0.351,0.304 -0.328,-0.328 0.351,-0.351 0.246,0.246 0.641,-0.641 -0.24,-0.24 L 11,17.688 Z"
     id="path8"
     inkscape:connector-curvature="0"
     style="fill:#faae29" />
  <path
     d="m 10.021,1.938 0,-0.396 L 9.438,1.188 9,1.188 8.292,0.82 6.708,0.82 6,1.188 l -0.438,0 -0.583,0.354 0,0.396 -0.541,0.333 0,0.917 0.541,0.333 0,0.396 0.583,0.354 0.438,0 0.708,0.368 1.584,0 L 9,4.271 l 0.438,0 0.583,-0.354 0,-0.396 0.541,-0.333 0,-0.917 z"
     id="path10"
     inkscape:connector-curvature="0"
     style="fill:#29ae66" />
  <path
     d="m 4.928,2.728 0,-0.391 0.462,-0.285 0,-0.337 0.498,-0.303 0.374,0 0.604,-0.313 0.676,0 0,1.629 z"
     id="path12"
     inkscape:connector-curvature="0"
     style="fill:#faae29" />
  <path
     d="m 4.887,2.729 0,0.392 0.462,0.284 0,0.338 0.498,0.302 0.373,0 0.605,0.313 0.675,0 0,-1.629 z m 5.226,0 0,-0.391 -0.462,-0.284 0,-0.338 -0.498,-0.302 -0.373,0 -0.605,-0.313 -0.675,0 0,1.628 z"
     id="path14"
     inkscape:connector-curvature="0"
     style="fill:#ffffff" />
  <path
     d="m 10.113,2.729 0,0.392 -0.462,0.284 0,0.338 -0.498,0.302 -0.373,0 -0.605,0.313 -0.675,0 0,-1.629 z m -5.185,3.833 0.676,0 0,0.729 -0.676,0 z m 0.676,-0.104 0.676,0 0,0.729 -0.676,0 z m 0.677,-0.26 0.676,0 0,0.729 -0.676,0 z m 3.135,0.364 0.676,0 0,0.729 -0.676,0 z m -0.677,-0.104 0.676,0 0,0.729 -0.676,0 z m -0.677,-0.26 0.676,0 0,0.729 -0.676,0 z"
     id="path16"
     inkscape:connector-curvature="0"
     style="fill:#faae29" />
  <path
     d="m 6.958,5.833 1.105,0 0,0.901 -1.105,0 z m -2.03,1.651 0.676,0 0,0.729 -0.676,0 z m 0.676,0.104 0.676,0 0,0.729 -0.676,0 z m 0.677,0.261 0.676,0 0,0.729 -0.676,0 z m 3.135,-0.365 0.676,0 0,0.729 -0.676,0 z m -0.677,0.104 0.676,0 0,0.729 -0.676,0 z m -0.677,0.261 0.676,0 0,0.729 -0.676,0 z"
     id="path18"
     inkscape:connector-curvature="0"
     style="fill:#faae29" />
  <path
     d="m 6.958,8.042 1.105,0 0,0.901 -1.105,0 z"
     id="path20"
     inkscape:connector-curvature="0"
     style="fill:#faae29" />
  <path
     d="m 8.549,19.608 -2.058,0 -1.456,0.932 0,1.316 1.456,0.931 2.058,0 1.456,-0.931 0,-1.316 z"
     id="path22"
     inkscape:connector-curvature="0"
     style="fill:#ffffff" />
  <path
     d="m 8.383,10.646 -1.726,0 -1.221,0.86 0,1.217 1.221,0.86 1.727,0 1.221,-0.86 0,-1.217 -1.222,-0.86 z m 0.736,1.936 -0.937,0.66 -1.324,0 -0.937,-0.66 0,-0.934 0.937,-0.66 1.324,0 0.937,0.66 0,0.934 z m -0.526,6.96 -2.146,0 -1.517,0.971 0,1.371 1.517,0.97 2.145,0 1.517,-0.97 0,-1.371 -1.516,-0.971 z m 1.059,2.221 -1.25,0.799 -1.765,0 -1.25,-0.799 0,-1.13 1.25,-0.799 1.766,0 1.25,0.799 0,1.13 z m 0.102,-5.325 0,-0.443 -0.442,0 0,-0.493 -3.593,0 0,0.493 -0.494,0 0,0.443 -0.433,0 0,0.646 0.433,0 0,0.479 0.494,0 0,0.521 3.594,0 0,-0.521 0.441,0 0,-0.479 0.517,0 0,-0.646 -0.517,0 z m -0.677,1.374 -3.118,0 0,-2.084 3.118,0 0,2.084 z"
     id="path24"
     inkscape:connector-curvature="0"
     style="fill:#29ae66" />
  <path
     d="m 7.5,15.25 -1.896,1.125 0,0.729 1.896,1.23 1.916,-1.188 0,-0.771 z"
     id="path26"
     inkscape:connector-curvature="0"
     style="fill:#29ae66" />
  <path
     d="m 6.651,20.766 0.849,-0.491 0.848,0.491 0,0.979 L 7.5,22.234 6.651,21.745 Z"
     id="path28"
     inkscape:connector-curvature="0"
     style="fill:#ca3745" />
  <path
     d="M 8.348,25.084 8.104,25.25 c 0,0 -0.208,-0.396 -0.771,-0.438 C 6.77,24.77 6.458,25 5.979,25.031 5.5,25.062 4.024,23.945 4.791,22.234 c 0.688,0.495 0.331,1.099 0.645,1.391 0.314,0.292 0.645,0.49 0.772,0.834 0.128,0.344 0.726,0.059 1.125,0.125 0.625,0.104 1.015,0.5 1.015,0.5 z"
     id="path30"
     inkscape:connector-curvature="0"
     style="fill:#faae29" />
  <path
     d="m 6.651,25.084 0.244,0.166 c 0,0 0.208,-0.396 0.771,-0.438 0.563,-0.042 0.876,0.188 1.355,0.219 0.479,0.031 1.955,-1.086 1.187,-2.797 -0.687,0.495 -0.331,1.099 -0.645,1.391 -0.314,0.292 -0.645,0.49 -0.772,0.834 -0.128,0.344 -0.726,0.059 -1.125,0.125 -0.625,0.104 -1.015,0.5 -1.015,0.5 z"
     id="path32"
     inkscape:connector-curvature="0"
     style="fill:#faae29" />
  <path
     d="m 18.18,3.289 c 0.65,0.564 1.07,1.387 1.07,2.316 0,1.7 -1.378,3.078 -3.078,3.078 -0.585,0 -1.125,-0.172 -1.591,-0.455 0.571,0.622 1.384,1.018 2.294,1.018 C 18.601,9.246 20,7.847 20,6.121 20,4.861 19.252,3.784 18.18,3.289 Z M 15.846,2.867 15.6,3.35 15.983,3.734 15.448,3.649 15.201,4.132 15.117,3.597 14.581,3.512 15.064,3.266 14.979,2.729 15.363,3.113 Z"
     id="path34"
     inkscape:connector-curvature="0"
     style="fill:#ffffff" />
  <path
     d="M 17.377,3.795 17.131,4.278 17.515,4.662 16.979,4.577 16.732,5.06 16.648,4.524 16.112,4.439 16.595,4.193 16.511,3.657 16.894,4.041 Z M 15.846,4.46 15.6,4.943 15.983,5.327 15.448,5.242 15.201,5.725 15.117,5.189 14.581,5.104 15.064,4.858 14.979,4.322 15.363,4.706 Z M 14.252,5.269 14.006,5.752 14.39,6.136 13.854,6.051 13.607,6.535 13.523,5.999 12.987,5.914 13.47,5.668 13.386,5.132 13.769,5.516 Z M 15.846,6.171 15.6,6.654 15.983,7.038 15.448,6.953 15.201,7.436 15.117,6.9 14.581,6.815 15.064,6.569 14.979,6.033 15.363,6.417 Z"
     id="path36"
     inkscape:connector-curvature="0"
     style="fill:#ffffff" />
  <path
     d="m 7.062,15.771 0.915,0 0,0.615 -0.915,0 z m 0,1.401 0.915,0 0,0.615 -0.915,0 z"
     id="path38"
     inkscape:connector-curvature="0"
     style="fill:#ca3745" />
  <path
     d="m 5.604,16.484 1.253,0 0,0.615 -1.253,0 z m 2.584,0 1.228,0 0,0.615 -1.228,0 z"
     id="path40"
     inkscape:connector-curvature="0"
     style="fill:#faae29" />
</svg>
