<?xml version="1.0" encoding="UTF-8" standalone="no"?>
<svg
   xmlns:dc="http://purl.org/dc/elements/1.1/"
   xmlns:cc="http://creativecommons.org/ns#"
   xmlns:rdf="http://www.w3.org/1999/02/22-rdf-syntax-ns#"
   xmlns:svg="http://www.w3.org/2000/svg"
   xmlns="http://www.w3.org/2000/svg"
   xmlns:sodipodi="http://sodipodi.sourceforge.net/DTD/sodipodi-0.dtd"
   xmlns:inkscape="http://www.inkscape.org/namespaces/inkscape"
   viewBox="0 0 36 26"
   id="svg2"
   version="1.1"
   inkscape:version="0.91 r13725"
   sodipodi:docname="1f1fa-1f1f3.svg"
   width="36"
   height="26">
  <metadata
     id="metadata30">
    <rdf:RDF>
      <cc:Work
         rdf:about="">
        <dc:format>image/svg+xml</dc:format>
        <dc:type
           rdf:resource="http://purl.org/dc/dcmitype/StillImage" />
      </cc:Work>
    </rdf:RDF>
  </metadata>
  <defs
     id="defs28" />
  <sodipodi:namedview
     pagecolor="#ffffff"
     bordercolor="#666666"
     borderopacity="1"
     objecttolerance="10"
     gridtolerance="10"
     guidetolerance="10"
     inkscape:pageopacity="0"
     inkscape:pageshadow="2"
     inkscape:window-width="640"
     inkscape:window-height="480"
     id="namedview26"
     showgrid="false"
     inkscape:zoom="6.5555556"
     inkscape:cx="18"
     inkscape:cy="13"
     inkscape:window-x="0"
     inkscape:window-y="0"
     inkscape:window-maximized="0"
     inkscape:current-layer="svg2" />
  <path
     d="m 36,22 c 0,2.209 -1.791,4 -4,4 L 4,26 C 1.791,26 0,24.209 0,22 L 0,4 C 0,1.791 1.791,0 4,0 l 28,0 c 2.209,0 4,1.791 4,4 l 0,18 z"
     id="path4"
     inkscape:connector-curvature="0"
     style="fill:#4b92db" />
  <g
     id="g6"
     style="fill:#ffffff"
     transform="translate(0,-5)">
    <path
       d="m 10.554,15.53 c 0.149,-0.305 0.393,-0.596 0.68,-0.813 0.64,-0.483 1.34,-1.108 1.35,-1.93 -0.212,0.591 -0.856,0.836 -1.285,1.24 -0.227,0.214 -0.4,0.471 -0.502,0.738 l -0.015,-0.012 c 0.053,-0.237 0.154,-0.451 0.222,-0.68 0.187,-0.626 0.153,-1.375 0.763,-1.793 -0.314,0.08 -0.577,0.283 -0.812,0.544 -0.492,0.545 -0.449,1.35 -0.384,2.068 0.02,0.222 0.008,0.411 -0.017,0.638 z m 3.217,7.731 c -0.71,-0.573 -0.817,-1.432 -1.134,-2.186 -0.197,-0.468 -0.517,-0.889 -0.859,-1.298 0.376,0.751 0.214,1.72 0.701,2.428 0.153,0.222 0.366,0.434 0.562,0.612 l -0.009,0.009 c -0.178,-0.083 -0.339,-0.207 -0.501,-0.342 -0.853,-0.709 -2.136,-0.8 -2.647,-1.956 0.138,0.849 0.812,1.601 1.54,2.077 0.692,0.453 1.578,0.402 2.347,0.656 z"
       id="path8"
       inkscape:connector-curvature="0" />
    <path
       d="m 10.569,20.879 c 0.481,0.379 1.055,0.675 1.493,1.008 -0.086,-0.218 -0.227,-0.419 -0.284,-0.65 -0.258,-1.04 -0.114,-2.243 -0.56,-3.205 0.083,0.547 -0.134,1.03 -0.184,1.55 -0.041,0.428 0.034,0.843 0.2,1.203 0.049,0.106 0.138,0.202 0.163,0.311 -0.16,-0.144 -0.274,-0.329 -0.384,-0.508 -0.517,-0.837 -1.602,-1.382 -1.676,-2.4 -0.037,0.453 0.003,0.934 0.154,1.336 0.21,0.559 0.613,0.989 1.078,1.355 z m 0.73,-7.131 c 0.341,-0.32 0.737,-0.557 1.026,-0.939 0.347,-0.459 0.649,-0.97 1.101,-1.366 -0.616,0.24 -1.276,0.485 -1.676,1.117 -0.233,0.369 -0.267,0.806 -0.451,1.188 z m 4.304,9.971 c 0.129,-0.032 0.286,-0.022 0.406,-0.065 -0.498,-0.101 -0.979,-0.252 -1.365,-0.605 -0.554,-0.507 -1.045,-1.047 -1.638,-1.441 0.464,0.625 0.596,1.532 1.444,1.852 0.15,0.057 0.322,0.066 0.452,0.148 -0.163,0.025 -0.306,-0.025 -0.458,-0.058 -1.093,-0.233 -2.428,0.067 -3.247,-0.865 0.311,0.609 0.951,1.09 1.565,1.293 0.953,0.313 1.946,-0.037 2.841,-0.259 z"
       id="path10"
       inkscape:connector-curvature="0" />
    <path
       d="m 10.724,19.841 0.046,0.037 c -0.049,-0.336 -0.074,-0.698 0.021,-1.019 0.145,-0.513 0.326,-1.012 0.422,-1.544 0.074,-0.413 0.159,-0.877 0.111,-1.278 -0.055,0.216 -0.112,0.429 -0.231,0.613 -0.45,0.697 -0.913,1.515 -0.597,2.4 -0.007,0.01 -0.018,0.022 -0.029,0.015 C 10.34,18.773 10.312,18.44 10.23,18.126 10.012,17.295 9.372,16.6 9.56,15.639 9.461,15.848 9.421,16.083 9.369,16.31 c -0.111,0.588 0,1.211 0.16,1.751 0.198,0.677 0.86,1.161 1.195,1.78 z"
       id="path12"
       inkscape:connector-curvature="0" />
    <path
       d="m 11.557,15.366 c 0.149,-0.302 0.242,-0.643 0.283,-0.976 -0.055,0.142 -0.142,0.273 -0.259,0.385 -0.497,0.471 -1.083,0.936 -1.196,1.603 -0.016,0.095 -0.024,0.193 -0.052,0.286 -0.022,0.009 -0.022,-0.015 -0.031,-0.021 l 0.062,-0.828 c 0.06,-0.807 -0.365,-1.705 0.102,-2.416 -0.016,-0.003 -0.025,0.009 -0.037,0.016 -0.425,0.542 -0.708,1.135 -0.708,1.862 0,0.898 0.517,1.525 0.581,2.369 0.133,-0.88 0.872,-1.505 1.255,-2.28 z m 14.215,2.761 c -0.082,0.313 -0.11,0.646 -0.237,0.939 -0.012,0.006 -0.022,-0.006 -0.029,-0.015 0.315,-0.885 -0.147,-1.703 -0.597,-2.4 -0.118,-0.183 -0.175,-0.397 -0.231,-0.613 -0.049,0.401 0.037,0.864 0.111,1.278 0.095,0.532 0.277,1.031 0.422,1.544 0.095,0.321 0.07,0.683 0.021,1.019 l 0.046,-0.037 c 0.335,-0.619 0.997,-1.103 1.197,-1.778 0.16,-0.54 0.27,-1.164 0.16,-1.751 -0.052,-0.227 -0.092,-0.463 -0.191,-0.671 0.186,0.959 -0.454,1.653 -0.672,2.485 z m -2.302,4.357 c -0.162,0.135 -0.323,0.259 -0.501,0.342 L 22.96,22.817 c 0.197,-0.178 0.41,-0.39 0.562,-0.612 0.488,-0.708 0.325,-1.677 0.701,-2.428 -0.342,0.409 -0.662,0.83 -0.859,1.298 -0.317,0.754 -0.424,1.613 -1.134,2.186 0.768,-0.253 1.655,-0.203 2.346,-0.656 0.727,-0.476 1.401,-1.228 1.54,-2.077 -0.51,1.156 -1.793,1.246 -2.646,1.956 z"
       id="path14"
       inkscape:connector-curvature="0" />
    <path
       d="m 21.099,23.607 c 0.13,-0.082 0.302,-0.092 0.452,-0.148 0.848,-0.32 0.98,-1.227 1.444,-1.852 -0.593,0.394 -1.084,0.934 -1.638,1.441 -0.386,0.353 -0.866,0.504 -1.365,0.605 0.12,0.044 0.276,0.034 0.406,0.065 0.895,0.222 1.888,0.573 2.841,0.258 0.615,-0.203 1.255,-0.683 1.565,-1.293 -0.819,0.932 -2.154,0.632 -3.247,0.865 -0.152,0.034 -0.295,0.084 -0.458,0.059 z m 3.505,-2.511 c 0.025,-0.108 0.114,-0.205 0.163,-0.311 0.166,-0.359 0.241,-0.775 0.2,-1.203 -0.05,-0.52 -0.267,-1.003 -0.184,-1.55 -0.446,0.962 -0.302,2.165 -0.56,3.205 -0.057,0.23 -0.197,0.432 -0.284,0.65 0.438,-0.333 1.012,-0.629 1.493,-1.008 0.465,-0.366 0.868,-0.796 1.078,-1.355 0.151,-0.403 0.19,-0.883 0.153,-1.336 -0.074,1.019 -1.158,1.563 -1.676,2.4 -0.109,0.179 -0.223,0.364 -0.383,0.508 z m 1.033,-5.28 0.062,0.828 c -0.009,0.006 -0.009,0.031 -0.031,0.021 -0.028,-0.092 -0.036,-0.19 -0.052,-0.286 -0.113,-0.667 -0.699,-1.132 -1.196,-1.603 -0.118,-0.112 -0.204,-0.243 -0.259,-0.385 0.041,0.333 0.134,0.673 0.283,0.976 0.383,0.775 1.122,1.4 1.254,2.28 0.064,-0.844 0.581,-1.471 0.581,-2.369 0,-0.727 -0.283,-1.32 -0.708,-1.862 -0.012,-0.006 -0.021,-0.018 -0.037,-0.016 0.469,0.711 0.043,1.609 0.103,2.416 z"
       id="path16"
       inkscape:connector-curvature="0" />
    <path
       d="m 24.998,14.074 c 0.068,0.229 0.168,0.443 0.222,0.68 l -0.015,0.012 c -0.101,-0.267 -0.275,-0.524 -0.502,-0.738 -0.428,-0.404 -1.073,-0.649 -1.285,-1.24 0.01,0.822 0.71,1.446 1.35,1.93 0.287,0.217 0.531,0.508 0.68,0.813 -0.025,-0.227 -0.036,-0.416 -0.016,-0.638 0.066,-0.718 0.108,-1.523 -0.384,-2.068 -0.235,-0.261 -0.499,-0.464 -0.812,-0.544 0.608,0.418 0.575,1.167 0.762,1.793 z M 21.225,24.34 c -0.736,-0.305 -1.485,-0.711 -2.324,-0.711 -0.305,0 -0.607,0.052 -0.901,0.14 -0.294,-0.089 -0.595,-0.14 -0.901,-0.14 -0.839,0 -1.588,0.406 -2.324,0.711 -0.666,0.276 -1.549,0.222 -2.139,-0.185 0.292,0.366 0.682,0.592 1.086,0.745 0.749,0.299 1.624,0.07 2.262,-0.338 0.459,-0.294 0.853,-0.71 1.4,-0.71 0.098,0 0.197,0.015 0.295,0.036 -0.769,0.307 -1.469,0.845 -2.015,1.366 0.1,0.115 0.23,0.222 0.352,0.32 0.608,-0.628 1.297,-1.304 1.983,-1.585 0.687,0.281 1.376,0.957 1.983,1.585 0.122,-0.099 0.252,-0.206 0.352,-0.32 -0.545,-0.521 -1.246,-1.058 -2.015,-1.366 0.099,-0.021 0.197,-0.036 0.295,-0.036 0.547,0 0.941,0.416 1.4,0.71 0.638,0.408 1.512,0.637 2.262,0.338 0.403,-0.153 0.794,-0.378 1.086,-0.745 -0.587,0.407 -1.471,0.461 -2.137,0.185 z"
       id="path18"
       inkscape:connector-curvature="0" />
    <path
       d="m 24.702,13.748 c -0.184,-0.382 -0.218,-0.819 -0.452,-1.189 -0.4,-0.632 -1.06,-0.877 -1.676,-1.117 0.452,0.397 0.754,0.907 1.101,1.366 0.29,0.383 0.686,0.62 1.027,0.94 z m -12.136,0.565 -0.069,-0.037 c -0.403,0.817 -0.631,1.735 -0.631,2.706 0,0.594 0.085,1.174 0.247,1.729 l 0.145,-0.036 c -0.152,-0.52 -0.235,-1.063 -0.242,-1.618 l 1.106,0 c 0.007,0.463 0.078,0.916 0.209,1.348 l 0.143,-0.036 c -0.128,-0.42 -0.198,-0.861 -0.205,-1.312 l 1.002,0 c 0.003,0.148 0.021,0.293 0.04,0.438 -0.072,0.008 -0.141,0.031 -0.141,0.031 l -0.031,0.101 c -0.068,0.013 -0.111,0.126 -0.111,0.126 -0.056,0.019 -0.099,0.088 -0.08,0.107 0.018,0.019 -0.031,0.025 -0.031,0.025 l 0,0.138 -0.031,0.044 0.006,0.151 c 0.037,0 0.031,0.069 0.031,0.069 -0.062,0.006 -0.05,0.088 -0.05,0.088 l -0.13,0.044 -0.025,0.038 -0.161,-0.006 -0.039,0.04 c -0.013,-0.04 -0.032,-0.078 -0.044,-0.119 l -0.143,0.036 c 0.004,0.015 0.011,0.029 0.016,0.043 l -0.185,0 -0.012,-0.031 -0.062,-0.013 -0.006,-0.069 -0.093,0.006 -0.019,0.038 -0.099,0.006 c 0.006,0.063 -0.099,0.157 -0.111,0.132 -0.013,-0.025 -0.081,-0.094 -0.05,-0.107 0.031,-0.013 0.111,-0.025 0.111,-0.025 l 0,-0.044 -0.229,-0.006 -0.025,0.038 -0.093,0.006 0,0.101 -0.043,0.013 c -0.031,0.019 0.006,0.088 0.006,0.088 0.043,0.044 -0.006,0.113 -0.006,0.113 -0.037,0.038 0.031,0.107 0.031,0.107 0.05,0.012 -0.031,0.05 -0.031,0.05 0.012,0.063 0.049,0.082 0.049,0.082 -0.037,0.063 0.025,0.094 0.025,0.094 l 0.006,0.107 0.043,0.025 0,0.069 0.025,0.044 0.099,0 -0.006,-0.157 c -0.087,-0.101 0.074,-0.126 0.081,-0.088 0.006,0.038 0.074,0.057 0.074,0.057 0.012,0.094 0.118,0.151 0.148,0.057 0.031,-0.094 0.056,-0.038 0.074,0.006 0.019,0.044 0.136,0.151 0.136,0.151 l 0.093,0 0.012,0.088 c 0.105,-0.006 0.136,0.006 0.179,0.151 0.043,0.144 0.161,0.182 0.161,0.182 l 0.087,-0.006 c 0,-0.075 0.087,0.013 0.087,0.05 0,0.038 0.167,0.182 0.167,0.182 l 0.167,0.038 0.048,0.039 c 0.099,0.124 0.199,0.246 0.311,0.361 l -0.782,0.782 c -0.692,-0.709 -1.187,-1.56 -1.458,-2.487 l -0.145,0.036 c 0.285,0.976 0.811,1.87 1.55,2.609 0.5,0.5 1.072,0.903 1.692,1.2 l 0.073,-0.13 C 14.84,22.116 14.298,21.74 13.819,21.273 l 0.782,-0.782 c 0.406,0.394 0.87,0.709 1.371,0.938 L 16.045,21.3 c -0.49,-0.222 -0.943,-0.529 -1.339,-0.913 l 0.138,-0.138 c 0.009,0.015 0.021,0.021 0.024,0.046 0.012,0.094 0.056,0.075 0.056,0.075 l 0.353,-0.006 0.124,-0.107 0.316,-0.006 c 0.161,-0.006 0.062,-0.226 0.031,-0.226 -0.021,-0.017 -0.021,-0.054 -0.016,-0.093 0.253,0.195 0.519,0.368 0.809,0.492 l 0.073,-0.129 c -0.386,-0.162 -0.741,-0.396 -1.055,-0.688 l -0.037,-0.034 0.779,-0.779 c 0.251,0.237 0.544,0.416 0.861,0.529 l 0.074,-0.131 c -0.306,-0.106 -0.588,-0.276 -0.83,-0.503 l 0.709,-0.71 c 0.216,0.193 0.485,0.303 0.773,0.327 l -0.001,0.008 c 0,0 -0.023,0.057 0.005,0.066 0.028,0.009 0.018,0.014 0.032,0.028 l -0.014,0.033 c -0.023,-0.031 -0.037,0.024 -0.023,0.038 0.014,0.014 -0.032,0.005 -0.032,0.024 0,0.019 -0.014,0.028 0,0.038 0.014,0.009 -0.005,0.014 -0.023,0.028 -0.019,0.014 0.079,0.019 0.079,0.019 0,0 -0.018,-0.038 0.005,-0.038 l 0.01,0.002 0,0.048 C 17.915,18.598 17.913,18.602 17.9,18.599 l 0,0.044 -0.05,0.006 0.043,0.05 0.032,0.004 0,0.103 -0.001,0.006 c 0,0.082 -0.204,0.025 -0.223,0.006 l -0.006,0.113 -0.037,0.006 0.006,0.075 -0.006,0.107 0.068,-0.013 0,0.044 0.167,0.006 0.032,-0.034 0,0.116 -0.001,0.006 -0.111,0.013 -0.046,0.024 -0.004,-10e-4 -0.017,-0.035 -0.049,0 -0.015,0.02 c -0.15,-0.021 -0.303,-0.033 -0.445,-0.082 l -0.074,0.131 c 0.091,0.033 0.185,0.054 0.28,0.076 -0.015,0.013 -0.041,0.028 -0.037,0.037 0.012,0.031 -0.049,0.063 -0.049,0.063 l -0.056,0.019 -0.037,0.057 -0.074,0.025 -0.012,0.132 -0.037,0.025 0,0.057 -0.043,0.012 0,0.031 -0.062,0.006 0.037,0.094 0.05,0.025 c 0.087,0.012 0.049,0.119 0.049,0.119 l 0.049,0.006 0.025,0.069 0.049,0.1 c 0.019,0.075 0.074,0.057 0.099,0.05 0.025,-0.006 0.049,0.075 0.049,0.075 l 0.247,0.006 c 0,0 -0.012,0.025 0.031,0.038 0.024,0.007 0.12,0.013 0.205,0.015 l 0,0.111 c -0.458,-0.009 -0.901,-0.104 -1.312,-0.276 l -0.073,0.129 c 0.433,0.184 0.901,0.286 1.385,0.295 l 0,1.002 c -0.659,-0.01 -1.296,-0.155 -1.879,-0.42 l -0.073,0.129 c 0.606,0.277 1.268,0.428 1.953,0.438 l 0,1.106 c -0.879,-0.011 -1.726,-0.21 -2.498,-0.577 l -0.073,0.13 c 0.815,0.39 1.714,0.597 2.645,0.597 0.976,0 1.917,-0.228 2.764,-0.657 l -0.07,-0.136 c -0.79,0.4 -1.679,0.631 -2.62,0.643 l 0,-1.106 c 0.448,-0.007 0.883,-0.081 1.302,-0.204 l 0.12,0.037 0.031,0.101 0.05,-0.006 0.037,-0.031 0.148,-0.006 0.074,-0.069 0.08,-0.012 0.648,-0.551 c 0.294,-0.183 0.578,-0.386 0.832,-0.633 l 0.78,0.78 c -0.435,0.425 -0.936,0.783 -1.483,1.06 l 0.07,0.136 c 0.574,-0.29 1.105,-0.672 1.573,-1.14 0.492,-0.492 0.889,-1.054 1.185,-1.662 l -10e-4,-10e-4 -0.086,-0.047 0.086,0.047 c 0.4,-0.824 0.612,-1.733 0.612,-2.676 0,-0.802 -0.154,-1.579 -0.445,-2.3 -0.304,-0.753 -0.76,-1.445 -1.351,-2.037 -0.594,-0.594 -1.289,-1.05 -2.046,-1.355 l 0,0.001 C 19.573,11 18.798,10.848 18,10.848 c -0.986,0 -1.918,0.235 -2.744,0.651 l 0.067,0.129 c 0.8,-0.401 1.684,-0.619 2.603,-0.63 l 0,1.106 c -0.749,0.011 -1.457,0.193 -2.089,0.506 l 0.067,0.129 c 0.622,-0.308 1.309,-0.477 2.022,-0.487 l 0,1.002 c -0.557,0.011 -1.084,0.145 -1.556,0.375 l 0.068,0.129 c 0.459,-0.223 0.964,-0.346 1.489,-0.357 l 0,1.106 c -0.348,0.01 -0.677,0.093 -0.975,0.232 l 0.068,0.13 c 0.282,-0.131 0.589,-0.205 0.907,-0.214 l 0,1.003 c -0.117,0.007 -0.225,0.042 -0.332,0.077 l -0.046,0 -0.006,-0.069 0.031,-0.019 -0.05,-0.019 -0.037,0.05 -0.012,0.057 -0.062,0.013 0,0.031 -0.043,0 0,0.055 c -0.088,0.049 -0.178,0.094 -0.253,0.16 l -0.71,-0.71 c 0.183,-0.172 0.39,-0.312 0.613,-0.415 l -0.068,-0.13 c -0.239,0.112 -0.458,0.262 -0.648,0.441 l -0.783,-0.783 c 0.275,-0.264 0.584,-0.478 0.918,-0.64 l -0.068,-0.129 c -0.352,0.172 -0.674,0.397 -0.953,0.666 l -0.709,-0.709 c 0.358,-0.347 0.762,-0.631 1.197,-0.846 L 15.839,12.61 c -0.456,0.226 -0.872,0.521 -1.233,0.872 l -0.784,-0.784 c 0.449,-0.439 0.956,-0.797 1.503,-1.071 l -0.067,-0.129 c -1.194,0.6 -2.167,1.578 -2.759,2.777 l 0.067,0.038 z m 2.287,2.743 0.004,0.035 -0.093,0.101 0.012,0.1 -0.056,0.019 -0.012,0.044 -0.025,0.132 0.062,0.006 c 0.031,-0.013 0.025,0.082 0,0.094 -0.025,0.013 -0.093,0.038 -0.056,0.063 0.037,0.025 -0.099,0.019 -0.099,-0.019 0,-0.038 -0.074,-0.069 -0.093,-0.056 -0.01,0.007 -0.023,-0.009 -0.033,-0.027 -0.026,-0.162 -0.043,-0.326 -0.046,-0.492 l 0.435,0 z m -0.407,3.037 0.015,0 c 0.031,-0.107 0.179,0.006 0.192,0.044 0.005,0.014 0.026,0.029 0.045,0.044 l -0.095,0.095 c -0.056,-0.059 -0.104,-0.123 -0.157,-0.183 z m 0.969,-0.631 c -0.054,-0.056 -0.09,-0.124 -0.14,-0.183 0.011,-0.031 0.027,-0.059 0.027,-0.059 0.08,-0.05 -0.019,-0.132 -0.019,-0.132 0.012,-0.076 -0.043,-0.163 -0.043,-0.163 -0.111,-0.075 -0.08,-0.22 -0.08,-0.22 l 0,-0.1 c -0.093,-0.088 0.037,-0.101 0.037,-0.101 0.043,-0.075 -0.031,-0.132 -0.031,-0.132 L 15.16,18.29 15.061,18.277 15.049,17.982 14.826,17.662 c -0.043,-0.013 -0.012,-0.088 -0.012,-0.088 0.056,-0.031 -0.012,-0.107 -0.012,-0.107 l -0.006,-0.138 0.13,-0.013 0.031,-0.05 0.062,0 -0.006,-0.163 c 0.015,-0.039 0.04,-0.048 0.062,-0.048 l 0.008,0 c 0.018,0.003 0.035,0.01 0.035,0.01 l 0.087,0.006 0.009,-0.016 0.295,0 0.025,0.161 -0.08,0.069 c -0.068,0.038 -0.068,0.126 0.006,0.144 0.049,0.006 0.031,0.126 -0.043,0.044 -0.111,0 0.062,0.101 0.012,0.075 0.111,0.057 0.087,-0.05 0.087,-0.05 l 0.057,-0.045 c 0.024,0.123 0.056,0.244 0.098,0.362 0.114,0.318 0.292,0.612 0.53,0.864 l -0.786,0.783 z m -0.218,-2.566 c -0.074,-0.044 -0.037,-0.207 -0.037,-0.207 0.118,-0.176 0.254,-0.075 0.254,-0.075 l 0.087,-0.006 c 0.03,0.02 0.045,0.045 0.053,0.071 -0.006,0.045 -0.014,0.089 -0.017,0.135 -0.012,0.026 -0.024,0.045 -0.024,0.045 -0.007,0.01 -0.006,0.031 -0.008,0.049 l -0.24,0 10e-4,-0.005 -0.069,-0.007 z m 1.374,0.252 0.025,-0.038 0.01,-0.054 0.07,0 c 0.002,0.037 0.019,0.069 0.024,0.105 l -0.005,0.024 -0.043,0.013 -0.012,-0.025 -0.018,0.069 -0.111,0 -0.006,-0.075 0.066,-0.019 z m -0.269,1.428 c -0.219,-0.233 -0.385,-0.503 -0.491,-0.796 -0.047,-0.13 -0.08,-0.265 -0.103,-0.403 0.052,0.02 0.108,0.102 0.108,0.117 0,0.019 0.247,0.006 0.247,0.006 0.068,0.044 0.093,0.157 0.093,0.157 0.068,-0.088 0.21,-0.006 0.105,0.044 0.099,0.063 0.099,0.119 0.099,0.119 0.081,-0.025 0.081,0.038 0.081,0.057 0,0.019 0.025,-0.094 0.025,-0.094 -0.093,-0.069 0.124,-0.094 0.062,0.031 l -0.038,0.056 0.062,0.05 0.006,0.144 c 0.136,-0.013 0.099,-0.182 0.099,-0.182 l 0.062,-0.012 c 0,-0.057 0.043,-0.025 0.043,-0.025 -0.034,-0.17 0.046,-0.227 0.082,-0.244 0.049,0.092 0.096,0.186 0.167,0.265 l -0.709,0.71 z m 0.636,-1.099 c 0.008,-0.038 0.01,-0.072 0.01,-0.072 -0.056,-0.025 -0.025,-0.113 0.037,-0.038 0.062,0.075 -0.037,-0.151 -0.037,-0.151 l -0.049,-0.044 -0.042,-0.004 c -0.01,-0.063 -0.037,-0.122 -0.037,-0.187 0,-0.03 0.015,-0.056 0.017,-0.085 0.012,-0.003 0.025,-0.001 0.025,-0.001 l 0.037,0.031 0.056,0.044 0.006,0.038 -0.037,0.019 -0.006,0.05 0.019,0.069 0.049,0 c 0.019,-0.101 0.149,-0.101 0.186,-0.038 l 0.037,-0.088 c -0.087,-0.044 -0.002,-0.113 0.023,-0.082 0.025,0.031 0.082,-0.082 0.082,-0.082 0,0 0.043,0.057 0,-0.019 -0.043,-0.075 0.031,-0.113 0.031,-0.113 -0.012,-0.075 0.08,-0.063 0.08,-0.063 l 0.006,-0.1 -0.087,-0.006 c -0.018,0.088 -0.093,0.013 -0.056,-0.006 0.037,-0.019 0.074,-0.057 0.074,-0.057 l 0,-0.063 0.037,-0.013 0.006,-0.063 0.093,0 0.08,-0.038 0.019,-0.031 0.087,-0.006 0.124,-0.113 -0.012,-0.05 c -0.074,0 0,-0.057 0,-0.057 l 0.012,-0.094 -0.068,0 -0.01,-0.112 c 0.085,-0.02 0.168,-0.05 0.258,-0.05 L 18,15.953 17.932,15.93 l -0.043,0 -0.018,-0.038 -0.037,-0.006 0,0.138 0.037,0.031 0.031,0.031 0.062,0.006 0.012,0.075 0.155,0.006 0.019,0.031 0.093,0.006 0.179,0.182 -0.012,0.057 -0.031,0.019 c 0.012,0.044 -0.08,0.019 -0.08,0.019 l 0,0.038 0.043,0.006 0.043,0.025 0.062,-0.107 c 0.068,-0.044 0.099,0.019 0.105,0.057 0.006,0.038 -0.031,0.031 -0.031,0.031 l 0,0.088 0.037,0.013 c 0.062,0.075 -0.025,0.119 -0.025,0.119 l -0.019,0.063 c -0.019,0.057 -0.087,0.044 -0.087,0.044 l -0.025,0.038 -0.074,0.019 0.147,0.019 c 0.014,-0.05 0.051,-0.063 0.07,-0.038 0.019,0.025 0.019,0.069 0.019,0.069 l 0.037,0.006 -0.006,0.069 0.037,0.013 0,0.201 0.043,0.05 c 0.074,-0.031 0.074,0.019 0.037,0.044 -0.037,0.025 -0.012,0.138 -0.012,0.138 l -0.031,0.031 0,0.05 -0.038,0.027 0,0.069 c -0.062,-0.031 -0.136,-0.019 -0.155,0 -0.056,-0.038 -0.173,-0.025 -0.173,0.006 0.037,0.05 -0.043,0.063 -0.043,0.063 l -0.043,0.05 c 0.031,0.063 -0.031,0.069 -0.031,0.069 l 0,0.119 -0.074,0.069 0.004,0.093 c -0.04,0.004 -0.074,0.023 -0.115,0.023 -0.289,0 -0.556,-0.114 -0.771,-0.303 0.001,-0.001 0.003,0 0.004,-0.002 0.031,-0.05 0.08,-0.057 0.08,-0.057 l 0.019,-0.044 0.167,0.006 c 0.012,-0.069 0.093,-0.044 0.093,-0.013 0,0.031 0.062,0.006 0.062,0.006 l 0.043,-0.069 0.068,0 0.006,-0.075 0.031,-0.019 0,-0.113 c 0.099,-0.031 0.087,-0.126 0.087,-0.126 l 0.025,-0.031 -0.012,-0.044 c -0.05,-0.019 -0.025,-0.063 0.006,-0.05 0.031,0.013 -0.043,-0.057 -0.043,-0.057 -0.037,0.031 -0.068,-0.038 -0.068,-0.038 l -0.093,0 0,-0.088 -0.012,-0.082 -0.093,-0.044 -0.068,0.063 -0.012,0.088 0,0.056 -0.062,0.013 -0.012,0.169 -0.049,0.019 0.006,0.063 -0.068,0.019 -0.068,0.019 -0.012,0.082 -0.049,0.031 -0.025,0.075 -0.029,0.171 C 17.06,17.697 16.991,17.59 16.938,17.477 Z m 3.289,-3.281 c 0.014,0.014 0.027,0.022 0.029,0.023 0.029,0.024 0.06,0.046 0.089,0.071 l 0,0.038 c 0.045,-0.011 0.109,0.045 0.117,0.088 l -0.764,0.764 c -0.22,-0.207 -0.472,-0.37 -0.743,-0.484 -0.276,-0.115 -0.574,-0.18 -0.881,-0.189 l 0,-1.106 c 0.448,0.009 0.882,0.1 1.285,0.265 0.313,0.129 0.6,0.316 0.868,0.53 z m 0.688,-0.025 c 0.088,0.05 0.159,0.16 0.148,0.182 -0.012,0.025 0.074,0.019 0.074,0.019 0.012,-0.113 0.118,-0.075 0.124,-0.038 0.006,0.038 0.025,0.119 0.025,0.119 l 0.031,0.056 0.043,0.044 0.068,-0.006 0.019,0.038 0.08,0.013 c 0,0 0.068,0.075 0.074,0.094 0.006,0.019 0.099,0.013 0.124,0.019 0.025,0.006 0.062,0.025 0.068,0.057 0.006,0.031 0.043,0.082 0.043,0.082 0,0 0.074,0.019 0.08,0.044 0.006,0.025 0.037,0.082 0.037,0.082 l 0.062,0.05 0.006,0.057 0.068,0.006 0.019,0.075 0.111,-0.006 0.062,-0.044 c 0.016,-0.009 0.026,-0.019 0.04,-0.028 0.023,0.052 0.057,0.098 0.077,0.15 0.209,0.526 0.323,1.09 0.332,1.672 l -1.002,0 c -0.003,-0.17 -0.028,-0.336 -0.054,-0.501 0.01,-0.035 0.018,-0.069 0.006,-0.081 -0.018,-0.019 0.019,-0.107 0.019,-0.107 0,0 0.025,-0.05 0,-0.101 -0.025,-0.05 0.006,-0.107 0.025,-0.132 l -0.049,-0.025 -0.049,-0.006 -0.051,0.009 -0.031,-0.106 0.008,-0.016 0.031,0.006 0,-0.038 -0.057,-0.016 c -0.005,-0.015 -0.008,-0.031 -0.014,-0.047 l -0.01,-0.157 -0.043,-0.031 0.012,-0.05 -0.049,-0.019 0.025,-0.082 -0.043,-0.088 -0.083,0 c -0.027,-0.053 -0.051,-0.108 -0.081,-0.16 0,-0.009 0.003,-0.02 0.034,-0.029 0.033,-0.009 0.045,-0.011 0.049,-0.01 l -0.006,-0.065 -0.056,-0.038 -0.019,-0.075 c 0,0 -0.068,0.013 -0.062,0.05 0.001,0.007 -0.014,0.008 -0.019,0.013 -0.039,-0.063 -0.09,-0.118 -0.133,-0.179 0.003,-0.01 0.004,-0.02 0.009,-0.029 0.025,-0.044 0.012,-0.069 -0.031,-0.082 -0.043,-0.013 -0.043,-0.013 -0.056,-0.063 -0.012,-0.05 -0.062,-0.063 -0.062,-0.063 l -0.019,-0.075 -0.058,0.036 C 20.788,14.524 20.77,14.494 20.746,14.468 l 0.025,-0.079 c -0.026,-0.005 -0.033,-0.022 -0.04,-0.038 l 0.184,-0.18 z m -0.2,0.496 -0.005,0.007 c 0,0.058 0.023,0.055 0.049,0.049 l 0.052,0.067 c 0.004,0.026 0.017,0.045 0.041,0.053 0.1,0.133 0.191,0.269 0.27,0.413 -0.007,0.008 -0.01,0.015 -0.01,0.015 l -0.099,0.013 0,0.1 -0.05,0.019 0.006,0.063 0.068,-0.006 c 0,0 0,0.075 0.019,0.044 0.019,-0.031 0.173,0.006 0.161,0.082 -0.005,0.031 0.155,0.113 0.136,0.213 0.017,0.003 0.016,0.014 0.026,0.022 0.03,0.087 0.054,0.176 0.077,0.266 l -0.004,0.008 0.009,0.01 c 0.022,0.085 0.045,0.169 0.06,0.256 -0.006,0.063 -0.02,0.123 -0.051,0.142 -0.074,0.044 0.006,0.019 0.006,0.019 l -0.012,0.138 c 0.019,0.063 0.049,0.031 0.068,0 0.006,-0.01 0.013,-0.015 0.019,-0.021 0.009,0.091 0.027,0.179 0.029,0.271 l -0.748,0 0.013,-0.017 0.031,-0.088 0.105,-0.031 0.012,-0.082 -0.056,-0.006 c 0,0 0.062,-0.113 0.093,-0.113 0.031,0 0.235,0 0.254,-0.013 0.019,-0.013 0.056,-0.113 0.056,-0.132 0,-0.019 0.05,-0.025 0.068,-0.031 0.019,-0.006 0.062,-0.056 0.074,-0.082 0.012,-0.025 -0.031,-0.182 -0.056,-0.157 -0.025,0.025 -0.08,0.038 -0.08,0.038 l -0.019,0.069 -0.031,0.025 c 0,0 0.006,0.019 0,0.063 -0.006,0.044 -0.062,0.069 -0.062,0.069 l -0.025,0.031 c 0,0 -0.149,0.008 -0.167,0 -0.056,-0.025 -0.018,-0.1 0.019,-0.094 0.037,0.006 -0.006,-0.107 -0.006,-0.107 l 0.05,-0.006 c 0,0 0.006,-0.113 0.025,-0.113 0.019,0 -0.006,-0.038 -0.031,-0.056 -0.025,-0.019 -0.056,-0.082 -0.081,-0.075 -0.025,0.006 -0.124,0 -0.124,0 l -0.019,0.038 -0.068,0.013 c 0,0 0.006,0.049 -0.006,0.063 -0.037,0.044 -0.179,0.138 -0.118,-0.019 l 0.018,-0.038 0,-0.057 -0.111,-0.006 c 0,0 -0.056,-0.019 -0.056,-0.044 0,-0.025 -0.006,-0.056 -0.006,-0.056 l -0.13,-0.144 -0.155,-0.019 -0.012,-0.031 -0.093,-0.013 C 20.126,15.683 20.118,15.69 20.106,15.686 20.065,15.62 20.011,15.563 19.963,15.5 l -0.011,-0.044 c -0.005,-0.022 -0.07,-0.105 -0.107,-0.11 -0.017,-0.019 -0.028,-0.041 -0.046,-0.059 l 0.768,-0.768 c 0.021,0.021 0.028,0.034 0.06,0.057 0.005,0.003 0.008,0 0.013,0.002 0.029,0.026 0.05,0.059 0.075,0.089 z m 0.56,3.763 c -0.169,0.381 -0.402,0.727 -0.687,1.024 -0.012,-0.127 -0.039,-0.266 -0.039,-0.266 l -0.05,-0.025 0.012,-0.151 -0.068,0 -0.111,0.145 -0.012,0.04 -0.063,-0.063 0.032,-0.033 -0.006,-0.075 0.043,-0.038 0,-0.063 0.037,-0.013 0.006,-0.138 0.031,-0.006 0,-0.301 -0.093,-0.088 c -0.006,0.031 -0.105,0.031 -0.105,0.031 0,0 -0.025,0.044 -0.043,0.044 -0.018,0 0.025,0.057 0.012,0.094 -0.012,0.038 -0.062,0.038 -0.062,0.038 l -0.093,0.025 -0.025,0.031 -0.099,0 -0.01,-0.066 0.016,-0.02 0.093,-0.026 0.062,-0.031 0.031,-0.063 c 0.006,-0.063 0.08,-0.056 0.08,-0.056 0,0 0.142,-0.119 0.148,-0.176 0.006,-0.057 0.056,-0.214 0.142,-0.214 l 0.161,0 c 0.062,-0.025 0.043,-0.107 0.043,-0.107 l 0.08,-0.013 0.012,0.044 c 0,0 0.111,0.013 0.124,-0.006 0.012,-0.019 0.037,-0.063 0.068,-0.044 0.031,0.019 0.13,-0.044 0.13,-0.044 0.006,-0.044 0.161,-0.025 0.161,-0.025 l 0.019,-0.056 c 0,0 -0.105,-0.144 -0.124,-0.144 -0.019,0 -0.118,-0.088 -0.13,-0.057 -0.099,-0.025 -0.093,-0.163 -0.093,-0.163 l -0.037,-0.088 c 0,-0.05 -0.093,-0.157 -0.111,-0.144 -0.039,-0.029 -0.046,-0.059 -0.044,-0.086 l 0.865,0 c -0.007,0.487 -0.116,0.951 -0.303,1.373 z m -2.799,-0.171 0.031,0.013 -0.056,0.044 -0.049,0.057 -0.062,-0.019 -0.074,-0.006 -0.025,-0.044 -0.043,-0.006 -0.006,0.088 -0.031,0.038 -0.074,0.076 c 0.078,0 0.026,0.042 -0.012,0.06 l 0,-0.251 c 0.076,-0.004 0.144,-0.033 0.217,-0.049 l 0.03,0.026 0.056,0 0.005,-0.047 c 0.031,-0.009 0.064,-0.01 0.094,-0.021 -0.006,0.017 -0.001,0.041 -0.001,0.041 z m 1.113,-2.762 c 0.008,10e-4 0.018,0.006 0.026,0.006 0.037,0 0.118,-0.013 0.118,-0.013 l 0.053,0.012 c 0.03,0.036 0.058,0.074 0.085,0.111 l -0.064,-0.01 -0.049,-0.006 -0.093,-0.006 c -0.093,0.063 -0.111,0.138 -0.111,0.138 -0.045,0.085 -0.14,-0.013 -0.126,-0.07 l 0.161,-0.162 z m -0.203,3.522 0.161,0.082 c 0.019,0.025 0.099,0.019 0.099,0.019 l 0.025,0.031 c 0,0 0.05,-0.006 0.081,0.031 0.031,0.038 0.192,0.006 0.192,0.006 l 0.043,0.038 0.068,0.025 0.115,0.004 0.07,0.07 c -0.112,0.052 -0.337,0.035 -0.352,0.02 -0.019,-0.019 -0.148,-0.075 -0.148,-0.075 0,0 -0.099,-0.082 -0.118,-0.056 -0.019,0.026 -0.105,-0.031 -0.105,-0.013 0,0.018 -0.08,-0.044 -0.08,-0.044 l -0.124,-0.044 0.093,-0.019 -0.02,-0.075 z m 0.019,-0.737 c 0.003,-0.007 0.009,-0.013 -0.001,-0.023 -0.007,-0.008 -0.02,-0.007 -0.03,-0.008 L 19.323,18.2 c -0.003,-0.039 0.005,-0.092 0.001,-0.111 -0.006,-0.025 0.105,-0.063 0.087,-0.006 -0.019,0.057 0,0.082 0,0.082 0.08,-0.075 0.148,0.006 0.142,0.025 -0.006,0.019 0.043,0.038 0.074,0.019 0.031,-0.019 0.068,0.057 0.056,0.094 -0.012,0.038 -0.124,0.031 -0.13,-0.006 -0.006,-0.038 -0.025,-0.025 -0.037,-0.006 -0.011,0.017 -0.057,0.026 -0.088,0.014 l -0.023,-0.023 z m 0.532,-2.378 c -0.062,0 -0.074,-0.05 -0.074,-0.05 0,0 -0.049,-0.019 -0.049,0.006 0,0.025 -0.019,0.075 0,0.1 0.018,0.025 -0.025,0.063 -0.043,0.044 -0.018,-0.019 -0.068,-0.075 -0.056,-0.094 0.012,-0.019 -0.087,-0.138 0.012,-0.157 0.099,-0.019 -0.006,-0.075 0.031,-0.088 l 0.049,-0.025 0.049,0 0.022,-0.018 c 0.028,0.039 0.062,0.074 0.088,0.114 -0.003,0.014 -0.02,0.019 -0.017,0.036 0.019,0.095 0.049,0.132 -0.012,0.132 z m -1.472,2.161 c -0.035,0.015 -0.076,0.014 -0.113,0.026 l 0,-0.12 0.062,-0.069 c 0.066,-0.023 0.055,0.116 0.051,0.163 z m -0.39,2.358 c 0.032,-0.035 0.153,-0.039 0.21,0.003 0.068,0.05 0.161,0.019 0.161,0.019 l 0.052,0.063 c -0.141,0.02 -0.277,0.053 -0.423,0.056 l 0,-0.141 z m 0.826,-5.589 c 0.253,0.106 0.488,0.258 0.693,0.451 l -0.043,0.043 c -0.017,-0.021 -0.084,-0.034 -0.084,-0.057 0,-0.025 -0.062,-0.057 -0.056,-0.019 0.006,0.038 -0.043,0.057 -0.056,0.044 -0.012,-0.013 -0.049,0.038 -0.049,0.038 0,0.019 -0.012,0.044 0.025,0.05 0.037,0.006 0.105,-0.025 0.111,0.013 0.002,0.013 0.005,0.023 0.008,0.033 l -0.243,0.243 c -0.035,0.002 -0.068,10e-4 -0.068,10e-4 -0.019,0.057 -0.105,-0.006 -0.08,-0.044 0.025,-0.038 0.025,-0.063 0.025,-0.063 l -0.031,-0.006 -0.037,0.069 c -0.087,0 -0.111,0.05 -0.093,0.082 0.019,0.031 -0.025,-0.006 -0.037,0.038 -0.012,0.044 0.006,0.044 0.043,0.063 0.037,0.019 -0.019,0.019 0.006,0.05 0.018,0.023 0.048,0.02 0.054,0.029 l -0.024,0.024 c -0.045,0.022 -0.105,0.016 -0.105,0.016 -0.002,0.017 -0.023,0.018 -0.039,0.024 -0.061,-0.049 -0.128,-0.087 -0.196,-0.123 l -0.006,-0.008 -0.007,0 c -0.031,-0.017 -0.058,-0.043 -0.09,-0.057 0.019,-0.013 0.045,-0.021 0.059,-0.062 0.025,-0.069 0.037,-0.182 0.037,-0.182 0,0 -0.099,-0.006 -0.105,0.025 -0.006,0.031 -0.068,0.05 -0.068,0.05 0,0 -0.05,0.019 -0.031,0.044 0.019,0.025 -0.037,0.038 -0.037,0.038 0,0 0.005,0.029 -0.004,0.048 -0.098,-0.029 -0.195,-0.062 -0.299,-0.068 l 0,-1.003 c 0.288,0.006 0.567,0.067 0.827,0.176 z m -0.765,4.066 0.142,-0.031 c 0.012,-0.063 0.074,0.013 0.074,0.013 0.062,-0.006 0.074,0.038 0.074,0.038 l 0.081,0.013 c 0.068,0.019 0.027,0.026 0.031,0.05 0.006,0.038 0.037,0.025 0.037,0.025 l 0.012,-0.082 0.037,0.006 -0.037,-0.044 -0.068,-0.031 -0.074,-0.031 c -0.049,-0.069 0.012,-0.057 0.062,-0.05 l 0.08,0 c 0,0 0.093,0.125 0.093,0.157 0,0.031 0.043,0.038 0.043,0.038 l 0.056,-0.006 0.019,0.044 0.056,0 0.019,0.038 0.111,0 0.006,-0.057 -0.105,-0.019 -0.006,-0.063 -0.074,-0.019 c -0.025,-0.107 0.018,-0.138 0.049,-0.088 l 0.037,0.006 -0.012,-0.094 0.043,-0.013 -0.012,-0.132 -0.037,-0.012 0,-0.046 0.155,0.006 c -0.012,-0.082 0.006,-0.119 0.006,-0.119 l 0.043,0 0.006,0.031 0.189,0.018 0.009,10e-4 c 0.074,0.044 0.037,0.101 0.012,0.113 -0.025,0.013 -0.068,0.013 -0.068,0.013 l -0.012,0.025 -0.161,0.012 -0.012,0.063 c -0.08,-0.013 -0.111,0.075 -0.093,0.119 0.019,0.044 0,0.082 0,0.082 l 0.068,0.031 0.087,-0.025 c 0.012,-0.063 0.068,-0.076 0.118,-0.113 0.045,-0.034 0.106,0.048 0.1,0.102 -0.1,0.07 -0.19,0.153 -0.3,0.207 -0.164,0.08 -0.341,0.135 -0.524,0.175 l -10e-4,0 -0.068,-0.019 -0.006,-0.094 c -0.012,-0.063 -0.13,-0.063 -0.124,-0.019 0.006,0.044 -0.221,0.019 -0.222,0.019 l 0,-0.173 0.061,-0.065 z m -0.062,1.812 c 0.172,-0.003 0.336,-0.04 0.503,-0.066 l 0.022,0.049 0.105,0.031 0.074,0.019 0.025,0.107 0.056,0.006 0.019,0.069 c 0.068,0.05 -0.019,0.157 -0.019,0.157 l 0,0.138 0.05,0.025 -0.006,0.05 0.081,0.081 0.093,0.006 0.151,0.161 c -0.369,0.1 -0.754,0.159 -1.153,0.166 l 0,-0.999 z m 2.469,0.245 0,-0.047 c 0.111,-0.082 0.118,-0.226 0.012,-0.239 -0.08,-0.01 -0.043,-0.094 0.031,-0.107 l 0.043,-0.019 0,-0.057 0.142,-0.132 0,-0.101 -0.309,-0.258 c -0.068,-0.025 -0.068,-0.112 -0.04,-0.193 0.053,-0.046 0.111,-0.085 0.163,-0.134 l 0.435,0.435 c -0.017,0.033 -0.032,0.065 -0.025,0.086 l 0.056,0.025 0.006,0.107 c 0.042,0.043 0.134,0.04 0.209,0.027 l 0.026,0.026 c -0.227,0.223 -0.482,0.41 -0.749,0.581 z m 0.853,-0.684 -0.027,-0.027 -0.009,-0.159 -0.031,-0.031 -0.006,-0.157 c 0.025,-0.082 -0.118,-0.201 -0.13,-0.176 -0.012,0.025 -0.093,0.006 -0.093,0.031 0,0.025 -0.049,0.151 -0.025,0.195 l 0,0.004 -0.386,-0.386 c 0.303,-0.315 0.544,-0.675 0.718,-1.064 0.201,-0.45 0.312,-0.94 0.322,-1.447 l 1.001,0 c -0.01,0.688 -0.169,1.34 -0.444,1.927 -0.224,0.478 -0.526,0.914 -0.89,1.29 z m 1.992,-0.689 c -0.283,0.584 -0.658,1.115 -1.106,1.575 l -0.78,-0.78 c 0.382,-0.394 0.69,-0.841 0.917,-1.324 0.291,-0.619 0.449,-1.297 0.459,-2 l 1.106,0 c -0.011,0.905 -0.224,1.763 -0.596,2.529 z m 0.164,-4.844 c 0.275,0.681 0.424,1.413 0.433,2.168 l -1.106,0 c -0.009,-0.602 -0.127,-1.186 -0.344,-1.73 -0.029,-0.072 -0.074,-0.135 -0.106,-0.206 0.007,-0.034 0.021,-0.101 0.076,-0.084 0.062,0.019 0.019,-0.138 0.019,-0.138 0,0 -0.087,-0.063 -0.081,-0.094 0.006,-0.031 -0.087,-0.094 -0.08,-0.119 0.006,-0.025 -0.08,-0.075 -0.074,-0.1 0.006,-0.025 -0.043,-0.094 -0.043,-0.094 l -0.093,-0.088 -0.012,-0.057 -0.074,-0.006 -0.148,-0.182 0.006,-0.05 -0.043,-0.006 0,-0.069 -0.043,-0.025 -0.068,-0.006 -0.139,-0.154 -0.012,-0.069 -0.068,0 0.01,-0.107 0.723,-0.723 c 0.552,0.567 0.979,1.225 1.267,1.939 z m -5.478,-2.636 0,-1.106 c 0.753,0.009 1.484,0.158 2.164,0.431 l 0,-10e-4 c 0.715,0.288 1.374,0.715 1.942,1.269 l -0.659,0.659 c -0.024,0.006 -0.05,0.013 -0.068,0.005 -0.043,-0.019 0.018,-0.063 0.018,-0.063 l 0,-0.05 -0.037,-0.038 c 0,0 -0.105,0.013 -0.111,-0.006 -0.006,-0.019 -0.025,-0.101 -0.025,-0.101 l -0.006,-0.107 -0.043,-0.019 -0.006,-0.038 -0.068,0.006 0,-0.075 -0.037,-0.013 -0.038,-0.017 -0.006,-0.075 -0.136,-0.006 -0.043,-0.063 -0.049,-0.075 -0.155,-0.013 -0.037,-0.038 -0.062,-0.013 -0.043,-0.019 -0.019,0.031 -0.118,0.006 -0.006,0.038 c -0.045,0.023 -0.184,0.016 -0.262,0.018 -0.111,-0.055 -0.215,-0.126 -0.33,-0.172 l -0.054,0.138 c 0.101,0.041 0.193,0.104 0.291,0.152 -0.005,0.008 -0.008,0.022 -0.016,0.022 -0.031,0 -0.019,0.082 -0.019,0.082 0,0 0.081,0 0.105,0.006 0.025,0.006 0.025,0.069 0.025,0.069 0.093,-0.006 0.13,0.119 0.118,0.151 -0.012,0.031 0.037,0.031 0.037,0.031 0,0 0,0.1 -0.012,0.126 -0.012,0.025 0.081,0.044 0.105,0.082 0.025,0.038 -0.012,0.163 -0.031,0.17 -0.019,0.006 0.049,0.025 0.043,0.057 -0.006,0.031 0.019,0 0.025,0.05 l 0.019,0.157 0.087,0.006 c 0.012,-0.082 0.172,-0.085 0.198,-0.075 0.105,0.038 0.186,0.201 0.186,0.239 0,0.038 -0.068,0.044 -0.068,0.044 l 0.003,0.041 -0.221,0.221 c -0.02,-0.012 -0.042,-0.024 -0.054,-0.017 -0.031,0.019 -0.019,-0.132 -0.019,-0.132 0,0 0.056,-0.038 0.081,-0.019 0.025,0.019 -0.21,-0.314 -0.26,-0.283 -0.049,0.031 -0.161,-0.031 -0.155,-0.088 0.006,-0.056 -0.223,-0.245 -0.223,-0.245 0,0 -0.074,-0.05 -0.087,-0.012 -0.012,0.038 -0.037,0.063 0,0.082 0.037,0.019 0.031,-0.031 0.074,0.013 0.043,0.044 0.124,0.1 0.093,0.138 -0.031,0.038 -0.068,0.05 -0.068,0.05 l 0.043,0.05 0.068,0 0.012,0.107 c 0,0 0.074,0.038 0.093,0.082 0.015,0.036 0.01,0.056 0,0.078 -0.138,-0.105 -0.279,-0.201 -0.429,-0.285 0.003,-0.016 0.011,-0.032 0.008,-0.044 -0.012,-0.044 0.05,-0.063 0.08,-0.013 l 0.062,-0.006 0.012,-0.057 -0.086,-0.071 -0.068,0 c 0,0 -0.006,0.05 -0.049,0.031 -0.043,-0.019 -0.019,-0.013 -0.056,-0.019 -0.037,-0.006 -0.025,0.082 -0.019,0.107 l -0.002,0.007 C 19.608,13.631 19.515,13.57 19.413,13.529 18.993,13.357 18.54,13.262 18.074,13.253 l 0,-0.557 c 0.035,-10e-4 0.058,-0.01 0.062,-0.026 0.006,-0.025 0.012,-0.031 0.049,-0.038 0.037,-0.006 -0.006,-0.082 -0.043,-0.075 -0.032,0.005 -0.056,-0.014 -0.068,-0.037 l 0,-0.268 c 0.594,0.009 1.17,0.128 1.705,0.345 l 0.054,-0.138 c -0.552,-0.224 -1.146,-0.346 -1.759,-0.355 z m -1.166,3.89 -0.059,-0.002 c -0.025,0.057 -0.087,-0.006 -0.087,-0.006 -0.012,-0.038 -0.099,0 -0.099,0 0,0.069 -0.118,-0.031 -0.118,-0.031 l -0.217,-0.157 c -0.124,-0.113 -0.309,0.031 -0.315,0.063 0.003,0.044 -0.032,0.048 -0.068,0.042 0.097,-0.184 0.21,-0.359 0.356,-0.514 l 0.607,0.605 z m -0.71,-0.709 c -0.162,0.172 -0.292,0.372 -0.4,0.585 -0.029,-10e-4 -0.061,0 -0.069,0.022 -0.018,0.05 -0.099,0.038 -0.099,0.038 l -0.012,0.025 -0.062,0.013 -0.012,0.038 -0.074,0.013 0.186,-0.006 c 0.05,-0.006 -0.019,0.107 -0.049,0.1 l -0.087,0.006 -0.031,0.031 -0.08,0 -0.039,0.05 -0.117,-0.006 c 0,0 -0.068,0.057 -0.062,0.075 0.006,0.019 -0.012,0.075 -0.031,0.075 -0.019,0 -0.056,0.057 -0.043,0.075 0.012,0.019 -0.037,0.082 -0.037,0.082 l -0.012,0.063 -0.037,0.013 0,0.17 -0.074,0.05 0,0.075 -0.034,0.037 -0.503,0 c 0.01,-0.498 0.122,-0.978 0.324,-1.419 0.165,-0.36 0.391,-0.694 0.673,-0.987 l 0.781,0.782 z m -0.886,-0.886 c -0.286,0.297 -0.523,0.642 -0.698,1.021 -0.211,0.454 -0.333,0.958 -0.343,1.488 l -1.002,0 c 0.01,-0.692 0.169,-1.359 0.46,-1.966 0.219,-0.456 0.511,-0.879 0.873,-1.252 l 0.71,0.709 z m -1.596,-1.597 0.784,0.784 c -0.365,0.376 -0.669,0.809 -0.899,1.286 -0.298,0.618 -0.469,1.308 -0.479,2.036 l -1.106,0 c 0.011,-0.903 0.222,-1.774 0.61,-2.563 0.275,-0.561 0.641,-1.082 1.09,-1.543 z"
       id="path20"
       inkscape:connector-curvature="0" />
    <path
       d="m 13.106,19.923 0.068,0.063 0.025,-0.044 -0.044,-0.094 -0.043,-0.032 -0.031,-0.088 -0.093,-0.043 0.044,0.113 0.024,0.056 z m 4.702,-3.956 z m -2.549,1.714 c 0.006,0.069 0.056,-0.044 0.056,-0.044 l 0,-0.427 -0.111,-0.013 0.006,0.044 0.031,0 c 0.049,0.088 0.006,0.301 0.006,0.301 0,0 -0.074,0.006 -0.087,-0.031 -0.012,-0.038 -0.043,0.082 -0.019,0.101 0.025,0.019 0.112,0 0.118,0.069 z"
       id="path22"
       inkscape:connector-curvature="0" />
    <path
       d="m 15.203,17.719 0,0.151 0.099,0.132 0.037,-0.088 0.013,-0.057 -0.044,-0.019 0.007,-0.094 0.037,-0.006 0.006,-0.044 -0.093,0.063 z m 1.955,-0.276 0.013,-0.063 0.037,-0.019 0.006,-0.063 0.025,-0.044 0.037,-0.044 0.013,-0.05 0.061,-0.037 0.075,-0.013 0.031,-0.038 0.012,-0.075 0.005,-0.056 0.026,-0.038 0.074,-0.032 0,-0.119 -0.037,0 -0.006,-0.044 -0.068,-0.006 -0.013,0.031 -0.03,0 -0.007,0.05 0.037,0 0.007,0.038 -0.025,0.025 -0.012,0.032 -0.05,0.012 -0.111,0.107 -0.007,0.05 -0.03,0.044 -0.037,0.094 -0.131,0.006 -0.024,0.114 0.018,0.094 z m 0.489,0.408 -0.056,0.006 0.006,0.088 0.037,0.031 0.068,0.019 c 0,0 0.093,-0.025 0.099,-0.1 l -0.142,-0.006 -0.012,-0.038 z m 0.489,-0.358 c 0.013,0.055 0.012,-0.088 0.037,-0.082 0.025,0.006 0.006,-0.088 0.006,-0.088 l -0.111,0.081 c 0.056,0.008 0.062,0.064 0.068,0.089 z m 0.439,-0.126 c -0.093,-0.063 -0.087,-0.144 -0.111,-0.201 -0.011,-0.024 -0.037,-0.044 -0.056,0.006 l 0,0.082 c 0,0 0.087,0.138 0.117,0.157 0.032,0.019 0.082,-0.022 0.05,-0.044 z m 2.785,0.189 c -0.025,-0.075 -0.175,-0.011 -0.148,0.025 0.037,0.05 0.099,0.025 0.124,0.031 0.024,0.007 0.049,0.019 0.024,-0.056 z m 0.198,-2.091 c 0,0.019 0.013,0.113 0.013,0.113 0,0 0.043,0.019 0.049,0.044 0.006,0.025 0,0.075 0.019,0.082 0.018,0.006 0.056,0.031 0.043,0.056 -0.012,0.025 -0.012,0.075 -0.012,0.075 l 0.025,0.057 0.049,0.031 c 0,0 0.019,-0.151 -0.012,-0.157 -0.031,-0.006 -0.018,-0.094 -0.018,-0.094 0,0 0.031,-0.119 -0.019,-0.119 -0.05,0 -0.012,-0.063 -0.043,-0.082 -0.031,-0.019 -0.012,-0.107 -0.025,-0.132 -0.012,-0.025 -0.012,-0.057 -0.043,-0.075 -0.031,-0.019 0.006,0.069 -0.012,0.082 -0.019,0.013 -0.031,0.038 -0.05,0.057 -0.02,0.018 0.036,0.043 0.036,0.062 z m -0.266,-0.591 c 0.018,0.025 0.056,0.044 0.056,0.069 0,0.025 -0.012,0.044 0.025,0.05 0.037,0.006 0.062,-0.006 0.074,0.025 0.012,0.031 0.012,0.082 0.006,0.107 -0.006,0.025 0.006,0.063 0.037,0.063 0.031,0 0.037,0.006 0.037,0.025 0,0.019 0.037,-0.069 0.037,-0.069 -0.031,-0.025 -0.056,-0.082 -0.056,-0.082 0,0 -0.031,-0.088 -0.031,-0.1 0,-0.013 -0.043,-0.025 -0.062,-0.031 -0.019,-0.006 -0.05,-0.063 -0.05,-0.063 l -0.073,0.006 z m -0.068,-0.138 c 0.025,0 0.043,0.013 0.068,0.025 0.025,0.013 0.043,0.031 0.062,0.057 l 0.062,-0.019 c 0,0 0.006,-0.063 -0.019,-0.044 -0.025,0.019 -0.043,-0.044 -0.068,-0.038 -0.025,0.006 -0.037,-0.025 -0.062,-0.056 -0.025,-0.031 -0.019,-0.038 -0.05,-0.057 -0.031,-0.019 -0.05,-0.019 -0.05,0.006 0,0.025 0.031,0.038 0.019,0.069 -0.012,0.032 0.013,0.057 0.038,0.057 z m -0.706,0.434 c 0,0 0.019,0.031 0.037,0.05 0.019,0.019 0.062,0.057 0.019,0.082 -0.043,0.025 0.006,0.019 0.006,0.019 0,0 -0.006,0.132 -0.062,0.113 -0.056,-0.019 -0.074,0.069 -0.074,0.094 0,0.025 0.22,0.035 0.186,0 -0.019,-0.019 0.025,-0.063 0.025,-0.063 0,0 0.149,0.013 0.18,0.013 0.031,0 0.056,-0.006 0.037,-0.038 -0.019,-0.031 -0.074,-0.025 -0.074,-0.025 0,0 -0.074,0.019 -0.142,-0.019 -0.068,-0.038 0.012,-0.05 0.025,-0.05 0.013,0 0.068,-0.044 0.043,-0.075 -0.025,-0.031 0,-0.088 0,-0.063 0,0.025 0.068,0.038 0.081,0.019 0.012,-0.019 0,-0.075 -0.031,-0.094 C 20.743,15.114 20.83,15.102 20.805,15.07 20.778,15.038 20.766,15 20.766,15 c 0,0 -0.037,0.05 -0.111,0.025 0,0 -0.012,0.119 -0.049,0.144 l -0.088,0 z m 0.805,-0.048 0,0.004 c 0,0 0.004,-0.003 0,-0.004 z m -2.234,0.374 c 0,0.019 0.043,0.038 0.068,0.038 0.025,0 0.093,-0.05 0.093,-0.05 0,0 0.031,-0.088 0.006,-0.082 -0.025,0.006 -0.074,0.044 -0.08,0.006 -0.006,-0.038 -0.08,-0.019 -0.08,-0.019 l -0.099,0.013 -0.006,0.044 0.068,0.006 c -0.001,0 0.03,0.026 0.03,0.044 z m 0.532,-2.091 c -0.031,0 -0.087,-0.038 -0.074,-0.063 0.012,-0.025 -0.105,-0.05 -0.105,-0.05 0,0 -0.105,-0.101 -0.068,-0.088 0.037,0.013 0.019,-0.044 0.019,-0.044 0,0 -0.074,0.013 -0.093,0.006 -0.019,-0.006 -0.012,-0.063 -0.012,-0.063 0,0 -0.074,-0.019 -0.074,0 0,0.019 0.025,0.019 0.037,0.056 0.012,0.038 0.006,0.101 0.062,0.113 0.056,0.013 0.068,0.025 0.074,0.05 0.006,0.025 0.074,0.031 0.074,0.031 l 0.05,0.025 0.148,0.126 0,-0.05 c -10e-4,10e-4 -0.007,-0.049 -0.038,-0.049 z m -0.65,-0.804 c 0.002,0.002 0.006,-0.005 0.008,-0.005 -0.021,-0.01 -0.034,-0.015 -0.008,0.005 z m 0.192,0 -0.043,-0.031 c 0,0 -0.068,-0.006 -0.068,-0.025 0,-0.017 -0.045,0.054 -0.072,0.052 0.03,0.015 0.078,0.042 0.078,0.042 0.049,0 0.08,0.038 0.08,0.057 0,0.019 0.068,0.013 0.068,0.013 l 0.006,-0.044 -0.049,-0.064 z m 1.77,-0.018 c 0,0 0.116,0.137 0.111,0.069 -0.012,-0.188 -0.099,-0.195 -0.13,-0.232 -0.031,-0.038 -0.164,0.007 -0.155,0.057 0.006,0.031 0.031,0.063 0.08,0.075 l 0.094,0.031 z m -2.389,-0.729 0,-0.069 -0.024,-0.025 -0.025,-0.088 -0.08,-0.025 -0.08,0.031 -0.087,0.057 -0.093,0.013 -0.05,0.056 0.198,0.019 0.037,0.063 0.142,0.013 0.093,0.094 c 0.081,0.025 0.099,-0.013 0.05,-0.056 l -0.081,-0.083 z m 0.57,-0.308 -0.111,0 c -0.006,-0.044 -0.105,-0.025 -0.111,0 -0.006,0.025 -0.043,0.031 -0.043,0.031 l -0.142,0.013 c -0.012,0.038 -0.087,0.063 -0.093,0.038 -0.014,-0.055 -0.093,0.069 -0.012,0.094 0.08,0.025 0.161,0 0.161,0 l 0.019,-0.038 0.309,0.006 c 0.025,-0.025 0.037,-0.063 0.037,-0.063 0,0 0.074,-0.025 0.105,-0.013 0.031,0.013 0.006,-0.088 -0.025,-0.075 -0.032,0.013 -0.094,0.007 -0.094,0.007 z m -1.671,1.306 c 0.006,0.019 0.068,0.025 0.074,0.006 0.006,-0.019 0.031,-0.057 -0.025,-0.057 -0.056,0 -0.043,-0.031 -0.062,-0.05 -0.019,-0.019 -0.147,-0.016 -0.142,0.006 0.006,0.031 0.056,0.069 0.056,0.069 0,0 0.093,0.008 0.099,0.026 z m 0.292,5.662 c 0.028,-0.005 0.046,-0.019 0.069,-0.024 0.023,-0.005 0.033,-0.042 0.042,-0.08 0.009,-0.038 -0.009,-0.057 -0.009,-0.057 0,0 -0.023,0.038 -0.06,0 -0.037,-0.038 -0.07,0.085 -0.084,0.113 10e-4,10e-4 0.015,0.052 0.042,0.048 z"
       id="path24"
       inkscape:connector-curvature="0" />
  </g>
</svg>
