<?xml version="1.0" encoding="UTF-8" standalone="no"?>
<svg
   xmlns:dc="http://purl.org/dc/elements/1.1/"
   xmlns:cc="http://creativecommons.org/ns#"
   xmlns:rdf="http://www.w3.org/1999/02/22-rdf-syntax-ns#"
   xmlns:svg="http://www.w3.org/2000/svg"
   xmlns="http://www.w3.org/2000/svg"
   xmlns:sodipodi="http://sodipodi.sourceforge.net/DTD/sodipodi-0.dtd"
   xmlns:inkscape="http://www.inkscape.org/namespaces/inkscape"
   viewBox="0 0 36 26"
   id="svg2"
   version="1.1"
   inkscape:version="0.91 r13725"
   sodipodi:docname="1f1f2-1f1f6.svg"
   width="36"
   height="26">
  <metadata
     id="metadata16">
    <rdf:RDF>
      <cc:Work
         rdf:about="">
        <dc:format>image/svg+xml</dc:format>
        <dc:type
           rdf:resource="http://purl.org/dc/dcmitype/StillImage" />
      </cc:Work>
    </rdf:RDF>
  </metadata>
  <defs
     id="defs14" />
  <sodipodi:namedview
     pagecolor="#ffffff"
     bordercolor="#666666"
     borderopacity="1"
     objecttolerance="10"
     gridtolerance="10"
     guidetolerance="10"
     inkscape:pageopacity="0"
     inkscape:pageshadow="2"
     inkscape:window-width="640"
     inkscape:window-height="480"
     id="namedview12"
     showgrid="false"
     inkscape:zoom="6.5555556"
     inkscape:cx="18"
     inkscape:cy="13"
     inkscape:window-x="0"
     inkscape:window-y="0"
     inkscape:window-maximized="0"
     inkscape:current-layer="svg2" />
  <path
     d="m 36,22 c 0,2.209 -1.791,4 -4,4 L 4,26 C 1.791,26 0,24.209 0,22 L 0,4 C 0,1.791 1.791,0 4,0 l 28,0 c 2.209,0 4,1.791 4,4 l 0,18 z"
     id="path4"
     inkscape:connector-curvature="0"
     style="fill:#21428e" />
  <path
     d="m 16,0 4,0 0,26 -4,0 z"
     id="path6"
     inkscape:connector-curvature="0"
     style="fill:#eeeeee" />
  <path
     d="m 0,11 36,0 0,4 -36,0 z"
     id="path8"
     inkscape:connector-curvature="0"
     style="fill:#eeeeee" />
  <path
     d="M 11.438,8.25 C 11.063,7.583 7.75,7.312 6.542,7.917 7.626,6.979 10.875,7.667 10.98,6.125 11.062,4.897 8.75,5 7.854,4.771 6.959,4.542 7.75,4.292 8.438,4 9.126,3.708 9.876,3.438 9.709,2.445 9.542,1.452 7.854,1.521 7.083,1.479 6.312,1.438 5.333,1.729 5.562,2.208 4.958,2.458 4.25,2.416 3.833,2.208 3.828,2.375 4.093,2.437 4.093,2.437 L 3.646,2.542 C 4.167,2.792 5.25,2.667 5.708,2.438 5.791,2.542 6.083,2.605 7.208,2.542 8.333,2.479 8.458,2.271 8.729,2.521 9.184,2.94 8.229,3.104 7.021,3.542 5.813,3.98 6.333,5.042 6.979,5.375 7.625,5.708 8.271,5.679 9.354,5.855 10.438,6.031 9.666,6.25 9.042,6.292 8.812,6.308 6.979,6.375 6,6.896 4.856,7.504 5.083,8.271 4.979,8.396 4.875,8.521 3.875,8.479 3.104,8.25 3.375,9 4.667,9 5.125,9.021 5.583,9.042 6,10.125 8.771,10.083 11.542,10.041 11.812,8.917 11.438,8.25 Z M 6.766,1.969 C 6.641,2.094 6.531,2.047 6.656,1.891 6.781,1.735 6.891,1.844 6.766,1.969 Z M 6.655,8.623 C 6.925,8.312 10.656,8.17 10.453,8.681 10.192,9.337 6.328,8.999 6.655,8.623 Z M 32.271,8.25 C 31.896,7.583 28.583,7.312 27.375,7.917 28.459,6.979 31.708,7.667 31.813,6.125 31.896,4.897 29.584,5 28.688,4.771 27.792,4.542 28.583,4.292 29.271,4 29.959,3.708 30.709,3.438 30.542,2.445 30.376,1.452 28.688,1.521 27.917,1.48 c -0.771,-0.041 -1.75,0.25 -1.521,0.729 -0.604,0.25 -1.312,0.208 -1.729,0 -0.005,0.167 0.261,0.229 0.261,0.229 L 24.48,2.542 c 0.521,0.25 1.604,0.125 2.062,-0.104 0.084,0.104 0.375,0.167 1.5,0.104 1.125,-0.063 1.25,-0.271 1.521,-0.021 0.455,0.419 -0.5,0.583 -1.709,1.021 -1.208,0.438 -0.688,1.5 -0.041,1.833 0.647,0.333 1.291,0.304 2.375,0.48 1.084,0.176 0.312,0.395 -0.312,0.437 -0.229,0.016 -2.062,0.083 -3.042,0.604 -1.143,0.608 -0.917,1.375 -1.021,1.5 C 25.709,8.521 24.709,8.479 23.938,8.25 24.209,9 25.5,9 25.958,9.021 c 0.458,0.021 0.875,1.104 3.646,1.062 2.771,-0.041 3.042,-1.166 2.667,-1.833 z M 27.599,1.969 C 27.474,2.094 27.365,2.047 27.49,1.891 27.615,1.735 27.724,1.844 27.599,1.969 Z M 27.488,8.623 C 27.757,8.312 31.489,8.17 31.286,8.681 31.025,9.337 27.161,8.999 27.488,8.623 Z M 11.438,22.792 C 11.063,22.125 7.75,21.854 6.542,22.459 7.626,21.521 10.875,22.209 10.98,20.667 11.063,19.44 8.751,19.542 7.855,19.313 6.959,19.084 7.751,18.834 8.438,18.542 9.125,18.25 9.876,17.98 9.709,16.986 9.542,15.994 7.855,16.062 7.084,16.021 6.313,15.98 5.334,16.271 5.563,16.75 c -0.604,0.25 -1.312,0.209 -1.729,0 -0.005,0.167 0.26,0.229 0.26,0.229 l -0.448,0.104 c 0.521,0.25 1.604,0.125 2.062,-0.104 0.083,0.104 0.375,0.167 1.5,0.104 1.125,-0.063 1.25,-0.271 1.521,-0.021 0.455,0.42 -0.5,0.584 -1.708,1.021 -1.208,0.438 -0.688,1.5 -0.042,1.833 0.646,0.333 1.292,0.304 2.375,0.479 1.084,0.176 0.312,0.396 -0.312,0.438 -0.23,0.017 -2.063,0.084 -3.042,0.605 -1.144,0.609 -0.917,1.375 -1.021,1.5 -0.104,0.125 -1.104,0.084 -1.875,-0.146 0.271,0.75 1.562,0.75 2.021,0.771 0.458,0.021 0.875,1.104 3.646,1.062 2.771,-0.041 3.041,-1.166 2.667,-1.833 z M 6.766,16.511 c -0.125,0.125 -0.234,0.078 -0.109,-0.078 0.124,-0.157 0.234,-0.047 0.109,0.078 z m -0.111,6.653 c 0.27,-0.311 4.001,-0.453 3.798,0.059 -0.261,0.656 -4.125,0.318 -3.798,-0.059 z m 25.616,-0.372 c -0.375,-0.667 -3.688,-0.938 -4.896,-0.333 1.084,-0.938 4.333,-0.25 4.438,-1.792 0.083,-1.227 -2.229,-1.125 -3.125,-1.354 -0.896,-0.229 -0.104,-0.479 0.583,-0.771 0.687,-0.292 1.438,-0.562 1.271,-1.556 -0.166,-0.992 -1.854,-0.924 -2.625,-0.965 -0.771,-0.041 -1.75,0.25 -1.521,0.729 -0.604,0.25 -1.312,0.209 -1.729,0 -0.005,0.167 0.261,0.229 0.261,0.229 l -0.448,0.104 c 0.521,0.25 1.604,0.125 2.062,-0.104 0.084,0.104 0.375,0.167 1.5,0.104 1.125,-0.063 1.25,-0.271 1.521,-0.021 0.455,0.42 -0.5,0.584 -1.709,1.021 -1.208,0.438 -0.688,1.5 -0.041,1.833 0.647,0.333 1.291,0.304 2.375,0.479 1.084,0.175 0.312,0.396 -0.312,0.438 -0.229,0.016 -2.062,0.083 -3.042,0.604 -1.143,0.609 -0.917,1.375 -1.021,1.5 -0.104,0.125 -1.104,0.084 -1.875,-0.146 0.271,0.75 1.562,0.75 2.021,0.771 0.458,0.021 0.875,1.104 3.646,1.062 2.77,-0.04 3.041,-1.165 2.666,-1.832 z m -4.672,-6.281 c -0.125,0.125 -0.234,0.078 -0.109,-0.078 0.124,-0.157 0.234,-0.047 0.109,0.078 z m -0.111,6.653 c 0.269,-0.311 4.001,-0.453 3.798,0.059 -0.261,0.656 -4.125,0.318 -3.798,-0.059 z"
     id="path10"
     inkscape:connector-curvature="0"
     style="fill:#ffffff" />
</svg>
