<?xml version="1.0" encoding="UTF-8" standalone="no"?>
<svg
   xmlns:dc="http://purl.org/dc/elements/1.1/"
   xmlns:cc="http://creativecommons.org/ns#"
   xmlns:rdf="http://www.w3.org/1999/02/22-rdf-syntax-ns#"
   xmlns:svg="http://www.w3.org/2000/svg"
   xmlns="http://www.w3.org/2000/svg"
   xmlns:sodipodi="http://sodipodi.sourceforge.net/DTD/sodipodi-0.dtd"
   xmlns:inkscape="http://www.inkscape.org/namespaces/inkscape"
   viewBox="0 0 36 26"
   id="svg2"
   version="1.1"
   inkscape:version="0.91 r13725"
   sodipodi:docname="1f1f9-1f1f0.svg"
   width="36"
   height="26">
  <metadata
     id="metadata14">
    <rdf:RDF>
      <cc:Work
         rdf:about="">
        <dc:format>image/svg+xml</dc:format>
        <dc:type
           rdf:resource="http://purl.org/dc/dcmitype/StillImage" />
      </cc:Work>
    </rdf:RDF>
  </metadata>
  <defs
     id="defs12" />
  <sodipodi:namedview
     pagecolor="#ffffff"
     bordercolor="#666666"
     borderopacity="1"
     objecttolerance="10"
     gridtolerance="10"
     guidetolerance="10"
     inkscape:pageopacity="0"
     inkscape:pageshadow="2"
     inkscape:window-width="640"
     inkscape:window-height="480"
     id="namedview10"
     showgrid="false"
     inkscape:zoom="6.5555556"
     inkscape:cx="18"
     inkscape:cy="13"
     inkscape:window-x="0"
     inkscape:window-y="0"
     inkscape:window-maximized="0"
     inkscape:current-layer="svg2" />
  <path
     d="m 36,22 c 0,2.209 -1.791,4 -4,4 L 4,26 C 1.791,26 0,24.209 0,22 L 0,4 C 0,1.791 1.791,0 4,0 l 28,0 c 2.209,0 4,1.791 4,4 l 0,18 z"
     id="path4"
     inkscape:connector-curvature="0"
     style="fill:#00247d" />
  <path
     d="M 3.354,6.146 3.696,7.248 4.85,7.24 3.907,7.905 4.271,9 3.347,8.31 2.419,8.994 2.79,7.902 1.852,7.231 3.005,7.246 Z M 8.101,13 l 0.44,1.417 1.483,-0.01 -1.212,0.857 0.469,1.407 -1.189,-0.887 -1.195,0.879 0.477,-1.404 -1.207,-0.864 1.484,0.019 z M 8.287,1.519 8.629,2.62 9.782,2.612 8.84,3.278 9.204,4.373 8.28,3.683 7.352,4.367 7.722,3.274 6.784,2.603 7.938,2.618 Z M 13.064,5.92 13.306,6.7 14.122,6.694 13.455,7.165 13.713,7.94 13.059,7.452 12.401,7.936 12.664,7.163 12,6.688 l 0.816,0.01 z"
     id="path6"
     inkscape:connector-curvature="0"
     style="fill:#ffffff" />
  <path
     d="M 32,24 5,24 C 5,24 4.734,23.828 4.734,23.5 4.734,23.172 5,23 5,23 l 27,0 1.484,0.5 L 32,24 Z M 5,22 c 0,0 5,-2 11,-8 6,-6 10,-10 12,-11 -1.753,1.753 -3.771,14 1.229,18 0,0 2.771,0.521 2.771,1 L 5,22 Z"
     id="path8"
     inkscape:connector-curvature="0"
     style="fill:#fed100" />
</svg>
