<?xml version="1.0" encoding="UTF-8" standalone="no"?>
<svg
   xmlns:dc="http://purl.org/dc/elements/1.1/"
   xmlns:cc="http://creativecommons.org/ns#"
   xmlns:rdf="http://www.w3.org/1999/02/22-rdf-syntax-ns#"
   xmlns:svg="http://www.w3.org/2000/svg"
   xmlns="http://www.w3.org/2000/svg"
   xmlns:sodipodi="http://sodipodi.sourceforge.net/DTD/sodipodi-0.dtd"
   xmlns:inkscape="http://www.inkscape.org/namespaces/inkscape"
   viewBox="0 0 36 26"
   id="svg2"
   version="1.1"
   inkscape:version="0.91 r13725"
   sodipodi:docname="1f1f8-1f1ec.svg"
   width="36"
   height="26">
  <metadata
     id="metadata16">
    <rdf:RDF>
      <cc:Work
         rdf:about="">
        <dc:format>image/svg+xml</dc:format>
        <dc:type
           rdf:resource="http://purl.org/dc/dcmitype/StillImage" />
      </cc:Work>
    </rdf:RDF>
  </metadata>
  <defs
     id="defs14" />
  <sodipodi:namedview
     pagecolor="#ffffff"
     bordercolor="#666666"
     borderopacity="1"
     objecttolerance="10"
     gridtolerance="10"
     guidetolerance="10"
     inkscape:pageopacity="0"
     inkscape:pageshadow="2"
     inkscape:window-width="640"
     inkscape:window-height="480"
     id="namedview12"
     showgrid="false"
     inkscape:zoom="6.5555556"
     inkscape:cx="18"
     inkscape:cy="13"
     inkscape:window-x="0"
     inkscape:window-y="0"
     inkscape:window-maximized="0"
     inkscape:current-layer="svg2" />
  <path
     d="m 36,22 c 0,2.209 -1.791,4 -4,4 L 4,26 C 1.791,26 0,24.209 0,22 L 0,4 C 0,1.791 1.791,0 4,0 l 28,0 c 2.209,0 4,1.791 4,4 l 0,18 z"
     id="path4"
     inkscape:connector-curvature="0"
     style="fill:#eeeeee" />
  <path
     d="M 36,13 36,4 C 36,1.791 34.209,0 32,0 L 4,0 C 1.791,0 0,1.791 0,4 l 0,9 36,0 z"
     id="path6"
     inkscape:connector-curvature="0"
     style="fill:#ed2939" />
  <path
     d="M 6,6.5 C 6,3.915 7.624,1.752 9.81,1.164 9.389,1.061 8.952,1 8.5,1 5.462,1 3,3.462 3,6.5 3,9.538 5.462,12 8.5,12 8.952,12 9.389,11.94 9.81,11.836 7.624,11.248 6,9.085 6,6.5 Z"
     id="path8"
     inkscape:connector-curvature="0"
     style="fill:#ffffff" />
  <path
     d="m 12,2 0.225,0.691 0.726,0 -0.588,0.427 0.225,0.691 L 12,3.382 11.412,3.809 11.637,3.118 11.049,2.691 l 0.726,0 z m -2,7 0.225,0.691 0.726,0 -0.588,0.427 0.225,0.691 L 10,10.382 9.412,10.809 9.637,10.118 9.049,9.691 l 0.726,0 z m 4,0 0.225,0.691 0.726,0 -0.588,0.427 0.225,0.691 -0.588,-0.427 -0.588,0.427 0.225,-0.691 -0.588,-0.427 0.726,0 z M 9,5 9.225,5.691 9.951,5.691 9.363,6.118 9.588,6.809 9,6.382 8.412,6.809 8.637,6.118 8.049,5.691 l 0.726,0 z m 6,0 0.225,0.691 0.726,0 -0.588,0.427 0.225,0.691 L 15,6.382 14.412,6.809 14.637,6.118 14.049,5.691 l 0.726,0 z"
     id="path10"
     inkscape:connector-curvature="0"
     style="fill:#eeeeee" />
</svg>
