<?xml version="1.0" encoding="UTF-8" standalone="no"?>
<svg
   xmlns:dc="http://purl.org/dc/elements/1.1/"
   xmlns:cc="http://creativecommons.org/ns#"
   xmlns:rdf="http://www.w3.org/1999/02/22-rdf-syntax-ns#"
   xmlns:svg="http://www.w3.org/2000/svg"
   xmlns="http://www.w3.org/2000/svg"
   xmlns:sodipodi="http://sodipodi.sourceforge.net/DTD/sodipodi-0.dtd"
   xmlns:inkscape="http://www.inkscape.org/namespaces/inkscape"
   viewBox="0 0 36 26"
   id="svg2"
   version="1.1"
   inkscape:version="0.91 r13725"
   sodipodi:docname="1f1f2-1f1e6.svg"
   width="36"
   height="26">
  <metadata
     id="metadata12">
    <rdf:RDF>
      <cc:Work
         rdf:about="">
        <dc:format>image/svg+xml</dc:format>
        <dc:type
           rdf:resource="http://purl.org/dc/dcmitype/StillImage" />
      </cc:Work>
    </rdf:RDF>
  </metadata>
  <defs
     id="defs10" />
  <sodipodi:namedview
     pagecolor="#ffffff"
     bordercolor="#666666"
     borderopacity="1"
     objecttolerance="10"
     gridtolerance="10"
     guidetolerance="10"
     inkscape:pageopacity="0"
     inkscape:pageshadow="2"
     inkscape:window-width="640"
     inkscape:window-height="480"
     id="namedview8"
     showgrid="false"
     inkscape:zoom="6.5555556"
     inkscape:cx="18"
     inkscape:cy="13"
     inkscape:window-x="0"
     inkscape:window-y="0"
     inkscape:window-maximized="0"
     inkscape:current-layer="svg2" />
  <path
     d="M 32,0 4,0 C 1.791,0 0,1.791 0,4 l 0,18 c 0,2.209 1.791,4 4,4 l 28,0 c 2.209,0 4,-1.791 4,-4 L 36,4 C 36,1.791 34.209,0 32,0 Z"
     id="path4"
     inkscape:connector-curvature="0"
     style="fill:#c1272d" />
  <path
     d="m 15.047,17.165 1.128,-3.471 -2.953,-2.145 3.649,0 1.129,-3.475 1.129,3.474 3.649,0 -2.953,2.145 1.128,3.471 L 18,15.019 15.047,17.165 Z m 3.583,-2.603 0.916,0.665 -0.35,-1.077 -0.566,0.412 z m -1.826,-0.412 -0.35,1.077 0.916,-0.665 -0.566,-0.412 z m 0.241,-0.74 0.955,0.694 0.955,-0.694 -0.365,-1.122 -1.182,0 -0.363,1.122 z m -1.545,-1.122 0.915,0.665 0.216,-0.665 -1.131,0 z m 3.869,0 0.216,0.665 0.915,-0.665 -1.131,0 z M 18.35,11.548 18,10.47 l -0.35,1.079 0.7,0 z"
     id="path6"
     inkscape:connector-curvature="0"
     style="fill:#006233" />
</svg>
