<?xml version="1.0" encoding="UTF-8" standalone="no"?>
<svg
   xmlns:dc="http://purl.org/dc/elements/1.1/"
   xmlns:cc="http://creativecommons.org/ns#"
   xmlns:rdf="http://www.w3.org/1999/02/22-rdf-syntax-ns#"
   xmlns:svg="http://www.w3.org/2000/svg"
   xmlns="http://www.w3.org/2000/svg"
   xmlns:sodipodi="http://sodipodi.sourceforge.net/DTD/sodipodi-0.dtd"
   xmlns:inkscape="http://www.inkscape.org/namespaces/inkscape"
   viewBox="0 0 36 26"
   id="svg2"
   version="1.1"
   inkscape:version="0.91 r13725"
   sodipodi:docname="1f1f2-1f1f5.svg"
   width="36"
   height="26">
  <metadata
     id="metadata94">
    <rdf:RDF>
      <cc:Work
         rdf:about="">
        <dc:format>image/svg+xml</dc:format>
        <dc:type
           rdf:resource="http://purl.org/dc/dcmitype/StillImage" />
      </cc:Work>
    </rdf:RDF>
  </metadata>
  <defs
     id="defs92" />
  <sodipodi:namedview
     pagecolor="#ffffff"
     bordercolor="#666666"
     borderopacity="1"
     objecttolerance="10"
     gridtolerance="10"
     guidetolerance="10"
     inkscape:pageopacity="0"
     inkscape:pageshadow="2"
     inkscape:window-width="640"
     inkscape:window-height="480"
     id="namedview90"
     showgrid="false"
     inkscape:zoom="6.5555556"
     inkscape:cx="18"
     inkscape:cy="13"
     inkscape:window-x="0"
     inkscape:window-y="0"
     inkscape:window-maximized="0"
     inkscape:current-layer="svg2" />
  <path
     d="m 36,22 c 0,2.209 -1.791,4 -4,4 L 4,26 C 1.791,26 0,24.209 0,22 L 0,4 C 0,1.791 1.791,0 4,0 l 28,0 c 2.209,0 4,1.791 4,4 l 0,18 z"
     id="path4"
     inkscape:connector-curvature="0"
     style="fill:#265fb5" />
  <path
     d="m 25.935,13.32 c -0.017,-0.324 -0.222,-0.581 -0.222,-0.581 0,0 0.308,-0.29 0.29,-0.718 -0.018,-0.427 -0.428,-0.734 -0.428,-0.734 0,0 0.138,-0.154 0.154,-0.479 0.017,-0.325 -0.257,-0.444 -0.257,-0.444 0,0 0.103,-0.274 -0.051,-0.445 -0.154,-0.171 -0.394,-0.154 -0.394,-0.154 0,0 0.223,-0.222 0.068,-0.53 -0.153,-0.307 -0.427,-0.376 -0.427,-0.376 0,0 0.068,-0.376 -0.205,-0.649 -0.273,-0.274 -0.752,-0.24 -0.752,-0.24 0,0 0.084,-0.563 -0.153,-0.803 C 23.318,6.928 22.789,7.082 22.789,7.082 22.874,6.876 22.72,6.5 22.464,6.33 22.207,6.16 21.49,6.227 21.49,6.227 21.541,6.039 21.336,5.8 21.028,5.697 20.72,5.594 20.413,5.748 20.413,5.748 c 0,0 -0.29,-0.342 -0.547,-0.359 -0.256,-0.017 -0.444,0.103 -0.444,0.103 0,0 -0.138,-0.308 -0.445,-0.308 -0.307,0 -0.922,0.411 -0.922,0.411 0,0 -0.701,-0.325 -1.042,-0.308 -0.342,0.017 -0.53,0.239 -0.53,0.239 0,0 -0.358,-0.206 -0.769,-0.017 -0.41,0.188 -0.444,0.461 -0.444,0.461 0,0 -0.257,-0.137 -0.667,-0.051 -0.41,0.085 -0.461,0.513 -0.461,0.513 0,0 -0.325,-0.137 -0.649,0.085 -0.325,0.222 -0.239,0.444 -0.239,0.444 0,0 -0.24,-0.188 -0.633,0.017 -0.393,0.205 -0.393,0.564 -0.393,0.564 0,0 -0.256,-0.068 -0.564,0.342 -0.308,0.41 -0.256,0.581 -0.256,0.581 0,0 -0.325,0.017 -0.513,0.496 -0.188,0.479 0,0.718 0,0.718 0,0 -0.273,0.12 -0.479,0.53 -0.205,0.411 -0.068,0.821 -0.068,0.821 0,0 -0.376,0.171 -0.342,0.667 0.034,0.496 0.359,0.615 0.359,0.615 0,0 -0.29,0.154 -0.325,0.547 -0.034,0.394 0.223,0.547 0.223,0.547 0,0 -0.256,0.154 -0.273,0.479 -0.017,0.323 0.547,0.513 0.547,0.513 0,0 -0.205,0.119 -0.205,0.428 0,0.307 0.41,0.442 0.41,0.442 0,0 -0.171,0.155 -0.068,0.549 0.102,0.392 0.461,0.392 0.461,0.392 -0.102,0.291 0.24,0.394 0.24,0.394 0,0 -0.154,0.102 0.119,0.429 0.273,0.322 0.547,0.203 0.547,0.203 -0.12,0.359 0.222,0.479 0.222,0.479 0.035,0.633 0.735,0.479 0.735,0.479 0.12,0.581 0.564,0.444 0.564,0.444 0,0 -0.188,0.256 0.103,0.564 0.291,0.309 0.752,0.204 0.752,0.204 0.256,0.411 0.82,0.563 1.453,0.462 0.632,-0.102 1.316,-0.137 1.641,-0.222 0.325,-0.085 2.479,0.017 2.479,0.017 0,0 0.819,0.188 1.264,-0.051 0.444,-0.24 0.41,-0.462 0.41,-0.462 0,0 0.239,0.153 0.701,-0.067 0.461,-0.224 0.376,-0.703 0.376,-0.703 0,0 0.427,0 0.667,-0.221 0.239,-0.221 0.154,-0.359 0.154,-0.359 0,0 0.375,-0.188 0.511,-0.358 0.138,-0.172 0.018,-0.343 0.018,-0.343 0,0 0.17,0.085 0.478,-0.188 0.309,-0.274 0.273,-0.719 0.273,-0.719 0,0 0.223,0.034 0.411,-0.273 0.188,-0.309 0.067,-0.581 0.067,-0.581 0,0 0.257,-0.19 0.411,-0.581 0.153,-0.393 0.017,-0.805 0.017,-0.805 0,0 0.204,-0.306 0.187,-0.631 z m -2.188,0.65 c 0.017,0.051 -0.137,0.018 -0.341,0.309 -0.206,0.289 -0.068,0.683 -0.068,0.683 0,0 -0.239,0.188 -0.394,0.36 -0.153,0.17 -0.153,0.495 -0.153,0.495 0,0 -0.205,0.017 -0.496,0.255 -0.29,0.239 -0.29,0.666 -0.29,0.666 0,0 -0.205,-0.051 -0.513,0.207 -0.308,0.256 -0.308,0.598 -0.308,0.598 0,0 -0.223,-0.172 -0.685,0.051 -0.462,0.223 -0.871,0.599 -0.871,0.599 0,0 -3.469,-0.034 -3.726,-0.411 -0.256,-0.374 -0.94,-0.203 -0.94,-0.203 0,0 0.068,-0.225 -0.273,-0.445 -0.342,-0.222 -0.667,-0.119 -0.667,-0.119 0,0 0.188,-0.102 0.102,-0.275 -0.085,-0.17 -0.324,-0.152 -0.324,-0.152 0,0 0.136,-0.051 0.051,-0.359 -0.085,-0.307 -0.581,-0.273 -0.581,-0.273 0,0 0.222,-0.136 0.068,-0.427 -0.154,-0.292 -0.513,-0.239 -0.513,-0.239 0,0 0.069,-0.257 0,-0.512 -0.068,-0.258 -0.341,-0.309 -0.341,-0.309 0,0 0.222,-0.034 0.17,-0.343 -0.051,-0.308 -0.393,-0.461 -0.393,-0.461 0,0 0.069,-0.204 0.069,-0.547 0,-0.341 -0.206,-0.427 -0.206,-0.427 0,0 0.256,-0.12 0.291,-0.41 0.034,-0.29 -0.154,-0.598 -0.154,-0.598 0,0 0.171,-0.137 0.24,-0.359 0.068,-0.223 -0.035,-0.342 -0.035,-0.342 0,0 0.223,-0.137 0.308,-0.377 0.086,-0.239 0.051,-0.495 0.051,-0.495 0,0 0.188,-0.052 0.359,-0.256 0.171,-0.205 0.086,-0.393 0.086,-0.393 0,0 0.393,0.017 0.581,-0.188 0.188,-0.206 0.206,-0.462 0.206,-0.462 0,0 0.239,0.034 0.547,-0.188 0.308,-0.222 0.273,-0.427 0.273,-0.427 0,0 0.29,0.085 0.529,-0.068 0.24,-0.154 0.359,-0.427 0.359,-0.427 0,0 0.085,0.12 0.444,0 0.359,-0.12 0.496,-0.239 0.496,-0.239 0,0 0.137,0.205 0.479,0.136 0.342,-0.068 0.615,-0.29 0.615,-0.29 0,0 0.052,0.239 0.428,0.171 0.375,-0.069 0.529,-0.189 0.529,-0.189 0,0 -0.034,0.256 0.24,0.325 0.273,0.068 0.53,-0.035 0.53,-0.035 0,0 0.033,0.189 0.222,0.223 0.189,0.034 0.324,-0.102 0.324,-0.102 0,0 0.034,0.273 0.326,0.427 0.29,0.154 0.768,0.068 0.768,0.068 0,0 -0.017,0.137 0.188,0.239 0.206,0.103 0.41,0.137 0.41,0.137 0,0 -0.068,0.29 0.258,0.393 0.323,0.103 0.512,0.103 0.512,0.103 0,0 0.034,0.24 0.153,0.479 0.12,0.239 0.428,0.342 0.428,0.342 0,0 -0.104,0.154 -0.051,0.427 0.051,0.274 0.443,0.393 0.443,0.393 0,0 -0.101,0.189 -0.034,0.445 0.068,0.256 0.257,0.444 0.257,0.444 0,0 -0.12,0.256 -0.137,0.479 -0.017,0.222 0.257,0.82 0.257,0.82 0,0 -0.273,0.154 -0.257,0.462 0.017,0.303 0.137,0.56 0.154,0.611 z"
     id="path6"
     inkscape:connector-curvature="0"
     style="fill:#ffffff" />
  <path
     d="m 17.925,19.223 c -3.637,0 -6.6,-2.749 -6.723,-6.358 -0.003,0.078 -0.005,0.156 -0.005,0.233 0,3.716 3.013,6.729 6.728,6.729 3.717,0 6.729,-3.013 6.729,-6.729 0,-0.078 -0.002,-0.156 -0.005,-0.233 -0.123,3.609 -3.087,6.358 -6.724,6.358 z"
     id="path8"
     inkscape:connector-curvature="0"
     style="fill:#ffb636" />
  <path
     d="m 19.867,5.8 c 0,0 -0.216,-0.33 -0.66,-0.273 -0.445,0.057 -1.025,-0.171 -1.379,-0.353 -0.353,-0.183 -0.899,0.091 -0.899,0.535 0,0.444 0.285,0.661 0.694,0.661 0.41,0 0.969,-0.183 1.356,-0.444 C 19.3,5.708 19.867,5.8 19.867,5.8 Z"
     id="path10"
     inkscape:connector-curvature="0"
     style="fill:#b58fe5" />
  <path
     d="m 17.623,6.374 c -0.444,0 -0.698,-0.242 -0.698,-0.665 0,-0.199 0.108,-0.378 0.297,-0.493 0.195,-0.118 0.434,-0.136 0.608,-0.045 0.175,0.09 0.743,0.361 1.23,0.361 0.05,0 0.099,-0.003 0.146,-0.009 0.035,-0.004 0.069,-0.007 0.101,-0.007 0.375,0 0.562,0.279 0.563,0.282 l 0.006,0.008 -0.01,-0.001 c -0.004,0 -0.569,-0.089 -0.885,0.125 -0.387,0.261 -0.945,0.444 -1.358,0.444 z M 17.581,5.121 c -0.119,0 -0.245,0.034 -0.355,0.102 -0.186,0.113 -0.293,0.29 -0.293,0.486 0,0.417 0.252,0.657 0.69,0.657 0.411,0 0.968,-0.183 1.353,-0.444 C 19.271,5.721 19.782,5.785 19.858,5.795 19.822,5.746 19.608,5.48 19.208,5.531 19.16,5.537 19.11,5.54 19.061,5.54 18.571,5.54 18.002,5.268 17.827,5.177 17.753,5.14 17.669,5.121 17.581,5.121 Z"
     id="path12"
     inkscape:connector-curvature="0"
     style="fill:#6b26b5" />
  <path
     d="m 24.243,8.615 c 0.604,0 0.614,0.535 0.627,0.752 0.011,0.217 0.103,0.672 0.25,0.854 0.149,0.182 0.32,0.615 0.343,0.797 0.022,0.183 0,0.365 -0.16,0.125 C 25.143,10.904 24.767,10.425 24.404,10.22 24.039,10.015 23.595,9.718 23.595,9.262 23.594,8.808 23.97,8.615 24.243,8.615 Z"
     id="path14"
     inkscape:connector-curvature="0"
     style="fill:#b58fe5" />
  <path
     d="m 25.422,11.263 c -0.03,0 -0.07,-0.038 -0.122,-0.116 C 25.134,10.899 24.758,10.426 24.402,10.225 24,10 23.59,9.709 23.59,9.264 c 0,-0.475 0.4,-0.652 0.653,-0.652 0.589,0 0.617,0.515 0.63,0.734 l 10e-4,0.021 c 0.01,0.196 0.096,0.662 0.249,0.852 0.146,0.179 0.32,0.609 0.344,0.799 0.007,0.052 0.022,0.222 -0.033,0.243 l -0.012,0.002 z M 24.243,8.619 c -0.25,0 -0.646,0.175 -0.646,0.645 0,0.441 0.408,0.73 0.808,0.954 0.357,0.201 0.734,0.675 0.9,0.924 0.061,0.09 0.097,0.113 0.117,0.113 l 0.009,-0.002 c 0.033,-0.012 0.044,-0.102 0.027,-0.234 C 25.435,10.83 25.262,10.402 25.116,10.224 24.961,10.033 24.875,9.564 24.865,9.367 L 24.864,9.346 C 24.852,9.11 24.824,8.619 24.243,8.619 Z"
     id="path16"
     inkscape:connector-curvature="0"
     style="fill:#6b26b5" />
  <path
     d="m 25.246,12.466 c 0.421,0 0.593,0.319 0.593,0.672 0,0.354 -0.206,0.65 -0.297,1.002 -0.091,0.354 -0.057,0.855 -0.126,1.026 -0.068,0.172 -0.159,0.263 -0.159,0.263 0,0 -0.101,-0.147 -0.125,-0.388 -0.023,-0.239 0,-0.615 -0.17,-0.913 -0.172,-0.295 -0.411,-0.67 -0.411,-1.013 0,-0.342 0.422,-0.649 0.695,-0.649 z"
     id="path18"
     inkscape:connector-curvature="0"
     style="fill:#b58fe5" />
  <path
     d="M 25.256,15.435 25.254,15.431 C 25.253,15.43 25.151,15.281 25.128,15.041 25.123,14.99 25.12,14.933 25.117,14.871 25.105,14.644 25.092,14.363 24.958,14.13 l -0.044,-0.075 c -0.163,-0.278 -0.367,-0.625 -0.367,-0.94 0,-0.348 0.436,-0.653 0.699,-0.653 0.44,0 0.597,0.349 0.597,0.676 0,0.222 -0.079,0.417 -0.163,0.625 -0.049,0.121 -0.1,0.246 -0.134,0.378 -0.047,0.185 -0.061,0.407 -0.072,0.604 -0.011,0.183 -0.021,0.34 -0.054,0.423 -0.068,0.17 -0.159,0.263 -0.16,0.264 l -0.004,0.003 z m -0.01,-2.965 c -0.261,0 -0.691,0.302 -0.691,0.645 0,0.313 0.203,0.658 0.366,0.936 l 0.045,0.075 c 0.134,0.235 0.147,0.518 0.159,0.744 0.003,0.062 0.006,0.119 0.011,0.171 0.021,0.214 0.105,0.355 0.122,0.381 0.017,-0.019 0.095,-0.107 0.154,-0.258 0.033,-0.081 0.043,-0.237 0.054,-0.419 0.012,-0.198 0.024,-0.422 0.072,-0.606 0.034,-0.132 0.085,-0.257 0.134,-0.379 0.084,-0.207 0.163,-0.402 0.163,-0.622 0,-0.157 -0.043,-0.668 -0.589,-0.668 z"
     id="path20"
     inkscape:connector-curvature="0"
     style="fill:#6b26b5" />
  <path
     d="m 10.342,10.609 c 0,0 0.171,0.182 0.262,0.399 0.091,0.216 0.137,0.592 0.331,0.832 0.194,0.239 0.604,0.934 0.604,1.23 0,0.296 -0.217,0.592 -0.604,0.592 -0.387,0 -0.823,-0.33 -0.842,-0.694 -0.035,-0.627 0.331,-0.545 0.285,-0.991 -0.035,-0.331 -0.012,-0.376 -0.023,-0.547 -0.016,-0.224 -0.013,-0.821 -0.013,-0.821 z"
     id="path22"
     inkscape:connector-curvature="0"
     style="fill:#b58fe5" />
  <path
     d="m 10.935,13.666 c -0.408,0 -0.828,-0.346 -0.846,-0.698 -0.019,-0.336 0.078,-0.471 0.164,-0.589 0.076,-0.105 0.142,-0.195 0.121,-0.401 -0.022,-0.209 -0.021,-0.304 -0.02,-0.389 0,-0.049 0.001,-0.096 -0.003,-0.158 -0.015,-0.221 -0.012,-0.815 -0.012,-0.821 l 0,-0.01 0.007,0.007 c 0.002,0.002 0.173,0.186 0.263,0.4 0.03,0.071 0.055,0.16 0.082,0.254 0.056,0.195 0.118,0.416 0.248,0.576 0.185,0.228 0.605,0.931 0.605,1.233 -0.001,0.289 -0.214,0.596 -0.609,0.596 z m -0.589,-3.047 c 0,0.081 -0.002,0.605 0.012,0.81 0.004,0.063 0.004,0.11 0.003,0.159 -0.001,0.084 -0.002,0.18 0.02,0.388 0.021,0.209 -0.048,0.305 -0.122,0.407 -0.085,0.117 -0.181,0.25 -0.163,0.584 0.019,0.348 0.434,0.69 0.838,0.69 0.39,0 0.601,-0.303 0.601,-0.588 0,-0.3 -0.419,-1 -0.604,-1.228 -0.131,-0.161 -0.194,-0.383 -0.25,-0.579 -0.027,-0.094 -0.052,-0.183 -0.082,-0.253 -0.078,-0.189 -0.22,-0.353 -0.253,-0.39 z"
     id="path24"
     inkscape:connector-curvature="0"
     style="fill:#6b26b5" />
  <path
     d="m 14.262,6.393 c 0,0 -0.398,0.352 -0.603,0.9 -0.206,0.547 -0.422,1.401 -1.048,1.401 -0.524,0 -0.662,-0.444 -0.662,-0.718 0,-0.273 0.354,-0.57 0.707,-0.684 0.353,-0.114 0.575,-0.28 0.752,-0.502 0.273,-0.342 0.809,-0.41 0.809,-0.41"
     id="path26"
     inkscape:connector-curvature="0"
     style="fill:#b58fe5" />
  <path
     d="m 12.61,8.698 c -0.647,0 -0.666,-0.648 -0.666,-0.722 0,-0.283 0.368,-0.578 0.709,-0.688 0.326,-0.105 0.558,-0.259 0.751,-0.5 0.271,-0.339 0.806,-0.411 0.811,-0.411 l 10e-4,0.008 c -0.005,0.001 -0.537,0.072 -0.806,0.408 -0.194,0.242 -0.427,0.397 -0.754,0.503 -0.339,0.109 -0.704,0.4 -0.704,0.68 0,0.073 0.019,0.714 0.658,0.714 0.547,0 0.781,-0.659 0.968,-1.188 0.026,-0.073 0.051,-0.144 0.076,-0.21 0.203,-0.542 0.601,-0.898 0.605,-0.901 l 0.005,0.006 c -0.004,0.003 -0.4,0.358 -0.602,0.898 -0.025,0.066 -0.05,0.137 -0.076,0.21 -0.188,0.532 -0.422,1.193 -0.976,1.193 z"
     id="path28"
     inkscape:connector-curvature="0"
     style="fill:#6b26b5" />
  <path
     d="m 16.826,8.023 c 0.877,0 1.527,0.022 1.982,0.022 0.457,0 0.912,0.148 0.912,0.57 0,0.421 -0.227,0.57 -0.227,0.57 0,0 0.091,0.318 -0.057,0.661 -0.149,0.341 -0.411,0.524 -0.878,0.524 -0.467,0 -1.298,0.011 -1.527,0.011 -0.227,0 -0.442,-0.055 -0.592,-0.57 -0.445,-1.526 -0.081,-1.788 0.387,-1.788 z m 0.262,2.369 1.72,0 c 0.194,0 0.366,0 0.387,0.547 0.024,0.547 0.981,8.159 1.037,8.728 0.057,0.57 -0.422,0.638 -0.422,0.638 0,0 -0.136,0.263 -0.763,0.444 -0.627,0.182 -0.855,0.114 -1.071,0.057 -0.216,-0.057 -0.456,-0.125 -0.763,0 -0.308,0.125 -0.582,0.092 -0.844,-0.045 -0.262,-0.136 -0.285,-0.343 -0.285,-0.343 0,0 -0.171,-0.046 -0.376,-0.204 -0.205,-0.158 -0.194,-0.547 -0.137,-0.81 0.057,-0.261 0.923,-7.656 0.991,-8.181 0.07,-0.523 0.15,-0.831 0.526,-0.831 z"
     id="path30"
     inkscape:connector-curvature="0"
     style="fill:#8c8a8c" />
  <path
     d="m 17.955,8.303 1.025,3.209 3.402,0.008 -2.767,1.978 1.076,3.227 -2.736,-2.021 -2.737,2.021 1.076,-3.227 -2.767,-1.978 3.402,-0.008 z"
     id="path32"
     inkscape:connector-curvature="0"
     style="fill:#ffffff" />
  <g
     id="g34"
     style="fill:#ffb636"
     transform="translate(0,-5)">
    <path
       d="m 12.109,17.283 c 0,0 -0.202,-0.647 -0.661,-0.558 -0.354,0.068 -0.251,0.251 -0.137,0.353 0.114,0.102 0.114,0.171 0.216,0.102 0.103,-0.068 0.262,-0.057 0.342,0.023 0.08,0.08 0.24,0.08 0.24,0.08 z m -1.436,-1.812 c 0,0 0.068,0.069 0.148,0.206 0.08,0.136 0.388,0.205 0.513,0.159 0.125,-0.045 0.16,0.331 0.046,0.433 -0.114,0.102 -0.245,0.153 -0.467,-0.046 -0.32,-0.284 -0.24,-0.752 -0.24,-0.752 z m 1.071,0.058 c 0.171,-0.058 0.33,0.091 0.308,0.319 -0.023,0.228 -0.262,0.684 -0.262,0.684 0,0 -0.046,-0.091 -0.08,-0.205 -0.034,-0.114 0.125,-0.17 0.023,-0.354 -0.103,-0.182 0.011,-0.444 0.011,-0.444 z m -0.49,-1.641 c 0,0 0.239,0.228 0.375,0.274 0.137,0.045 0.411,-0.069 0.49,0.113 0.08,0.183 0.103,0.57 -0.216,0.467 -0.319,-0.103 -0.444,-0.296 -0.524,-0.467 -0.079,-0.171 -0.125,-0.387 -0.125,-0.387 z m 1.698,-0.513 c 0.137,-0.148 0.478,-0.16 0.501,0.125 0.023,0.285 -0.216,0.809 -0.216,0.809 0,0 -0.069,-0.183 -0.08,-0.262 -0.011,-0.08 -0.08,-0.331 -0.228,-0.387 -0.148,-0.057 0.023,-0.285 0.023,-0.285 z m 0.615,-0.707 c 0.194,-0.137 0.41,-0.023 0.468,0.148 0.056,0.171 -0.069,0.798 -0.171,0.934 l -0.068,-0.228 c -0.022,-0.08 0.011,-0.387 -0.251,-0.456 -0.263,-0.066 0.022,-0.398 0.022,-0.398 z m 1.082,-1.754 c 0,0 -0.638,0.581 -0.262,1.026 0.376,0.444 0.433,0 0.387,-0.137 -0.045,-0.137 -0.011,-0.148 -0.091,-0.274 -0.08,-0.125 -0.08,-0.262 -0.034,-0.364 0.046,-0.103 0,-0.251 0,-0.251 z"
       id="path36"
       inkscape:connector-curvature="0" />
    <path
       d="m 14.205,12.35 c -0.023,0.171 0.034,0.251 0.137,0.33 0.102,0.08 0.045,0.398 0.045,0.398 0,0 0.205,-0.045 0.25,-0.421 0.046,-0.376 -0.102,-0.569 -0.205,-0.569 -0.103,0 -0.227,0.262 -0.227,0.262 z m 0.866,-0.547 c -0.103,0.126 -0.125,0.421 0.045,0.547 0.171,0.126 0.102,0.513 0.102,0.513 0,0 0.25,-0.148 0.273,-0.501 0.022,-0.354 -0.194,-0.604 -0.194,-0.604 l -0.226,0.045 z m 0.809,-1.242 c 0,0 -0.559,0.491 -0.274,0.9 0.285,0.41 0.559,-0.091 0.456,-0.193 -0.102,-0.103 -0.273,-0.194 -0.205,-0.376 0.069,-0.183 0.023,-0.331 0.023,-0.331 z"
       id="path38"
       inkscape:connector-curvature="0" />
    <path
       d="m 15.926,11.621 c 0.182,-0.057 0.296,0.069 0.33,0.262 0.034,0.193 -0.251,0.763 -0.251,0.763 0,0 -0.125,-0.114 -0.069,-0.285 0.058,-0.17 -0.056,-0.285 -0.159,-0.387 -0.102,-0.103 -0.033,-0.296 0.149,-0.353 z m 1.31,-0.353 c -0.213,0.05 -0.33,0.25 -0.148,0.399 0.182,0.148 0.171,0.227 0.125,0.341 -0.045,0.114 0.011,0.251 0.011,0.251 0,0 0.239,-0.125 0.307,-0.479 0.07,-0.353 -0.101,-0.558 -0.295,-0.512 z m 2.802,-0.685 c 0,0 -0.204,0.456 0.034,0.752 0.24,0.296 0.468,0.068 0.456,-0.103 -0.011,-0.171 -0.171,-0.205 -0.273,-0.273 -0.102,-0.068 -0.159,-0.068 -0.137,-0.17 0.025,-0.103 -0.08,-0.206 -0.08,-0.206 z m 0.013,0.946 c -0.104,0.046 -0.149,0.376 -0.092,0.479 0.058,0.103 -0.079,0.229 -0.114,0.354 l -0.034,0.125 c 0,0 0.285,-0.091 0.468,-0.365 0.183,-0.273 0.193,-0.502 0.079,-0.581 -0.114,-0.08 -0.307,-0.012 -0.307,-0.012 z m 0.979,-0.752 c 0,0 -0.502,0.421 -0.456,0.821 0.046,0.399 0.422,0.307 0.49,0.114 0.067,-0.194 -0.058,-0.353 -0.079,-0.468 -0.023,-0.114 0.021,-0.182 0.056,-0.273 0.034,-0.091 0,-0.194 -0.011,-0.194 z"
       id="path40"
       inkscape:connector-curvature="0" />
    <path
       d="m 20.894,11.894 c -0.104,0.125 -0.046,0.376 -0.046,0.524 0,0.148 -0.17,0.296 -0.159,0.434 0,0 0.513,-0.125 0.581,-0.661 0.068,-0.537 -0.376,-0.297 -0.376,-0.297 z m 0.752,-0.262 c 0.215,-0.171 0.593,-0.148 0.878,-0.045 0,0 -0.081,0.182 -0.239,0.171 -0.16,-0.012 -0.081,0.319 -0.479,0.376 -0.4,0.056 -0.331,-0.365 -0.16,-0.502 z m 0.25,0.866 c -0.201,0.08 -0.308,0.354 -0.114,0.456 0.193,0.103 0.17,0.16 0.159,0.308 -0.012,0.149 0.081,0.262 0.081,0.262 0,0 0.146,-0.216 0.181,-0.559 0.035,-0.342 -0.079,-0.558 -0.307,-0.467 z m 0.662,0.262 c 0.022,-0.217 0.308,-0.422 0.58,-0.422 0.273,0 0.445,0.102 0.445,0.102 0,0 -0.012,0.103 -0.217,0.114 -0.205,0.012 -0.217,0.41 -0.559,0.434 -0.341,0.023 -0.249,-0.228 -0.249,-0.228 z m 2.038,3.931 c 0,0 0.126,-0.126 0.32,-0.136 0.192,-0.012 0.375,0.182 0.49,0.33 0.112,0.148 0.17,0.353 0.17,0.353 0,0 -0.159,0 -0.217,-0.091 -0.057,-0.091 -0.502,-0.022 -0.718,-0.182 0,0 -0.091,0.103 -0.204,0.171 -0.115,0.068 -0.319,0.011 -0.399,0.16 -0.079,0.148 -0.216,0.25 -0.216,0.25 0,0 -0.046,-0.456 0.158,-0.684 0.206,-0.228 0.297,-0.251 0.434,-0.228 0.137,0.023 0.182,0.057 0.182,0.057 z"
       id="path42"
       inkscape:connector-curvature="0" />
  </g>
  <path
     d="m 12.747,8.592 c 0,0 0.205,0.137 0.102,0.558 -0.102,0.421 -0.228,0.945 -0.148,1.299 0,0 -0.285,-0.342 -0.251,-0.684 0.035,-0.342 0.285,-0.581 0.205,-0.843 -0.079,-0.262 0.092,-0.33 0.092,-0.33 z"
     id="path44"
     inkscape:connector-curvature="0"
     style="fill:#207900" />
  <path
     d="M 12.733,10.514 12.688,10.459 C 12.676,10.445 12.399,10.108 12.433,9.763 12.448,9.612 12.506,9.479 12.557,9.361 12.624,9.204 12.683,9.069 12.64,8.926 12.557,8.653 12.739,8.576 12.741,8.575 l 0.008,-0.003 0.007,0.005 c 0.009,0.006 0.214,0.148 0.11,0.576 -0.096,0.396 -0.228,0.938 -0.148,1.291 l 0.015,0.07 z m 0.012,-1.902 c -0.032,0.018 -0.137,0.093 -0.073,0.305 0.047,0.155 -0.016,0.302 -0.083,0.458 -0.052,0.121 -0.106,0.246 -0.121,0.392 -0.024,0.249 0.127,0.502 0.204,0.613 -0.052,-0.359 0.07,-0.861 0.161,-1.234 0.086,-0.357 -0.054,-0.504 -0.088,-0.534 z"
     id="path46"
     inkscape:connector-curvature="0"
     style="fill:#103800" />
  <path
     d="m 12.234,9.401 c 0.068,0.319 0.148,0.866 0.114,1.151 -0.034,0.285 -0.319,0.512 -0.319,0.512 0,0 0.171,-0.364 0.125,-0.797 -0.039,-0.374 0.08,-0.866 0.08,-0.866 z"
     id="path48"
     inkscape:connector-curvature="0"
     style="fill:#207900" />
  <path
     d="m 11.982,11.123 0.031,-0.066 c 0.002,-0.003 0.168,-0.365 0.124,-0.788 -0.04,-0.373 0.079,-0.867 0.08,-0.872 l 0.018,-0.073 0.016,0.073 c 0.065,0.303 0.149,0.862 0.115,1.156 -0.035,0.289 -0.314,0.514 -0.326,0.523 l -0.058,0.047 z m 0.251,-1.64 c -0.031,0.154 -0.092,0.503 -0.062,0.781 0.034,0.322 -0.052,0.609 -0.099,0.737 0.083,-0.081 0.235,-0.253 0.259,-0.452 0.032,-0.266 -0.036,-0.754 -0.098,-1.066 z"
     id="path50"
     inkscape:connector-curvature="0"
     style="fill:#103800" />
  <path
     d="m 11.14,11.907 c 0,0 -0.151,0.226 -0.148,0.388 0.002,0.162 0.159,0.262 0.25,0.262 0.376,0 0.319,-0.433 0.194,-0.616 0,0 0.126,-0.102 0.17,-0.308 0.046,-0.205 -0.136,-0.364 -0.136,-0.364 0,0 0.216,0 0.285,-0.228 0.068,-0.228 -0.046,-0.456 -0.046,-0.456 0,0 0.205,-0.034 0.296,-0.274 0.091,-0.239 -0.011,-0.421 -0.011,-0.421 0,0 0.183,-0.011 0.308,-0.217 0.125,-0.205 0.068,-0.398 0.068,-0.398 0,0 0.137,0.023 0.296,-0.183 0.16,-0.205 0.114,-0.399 0.114,-0.399 0,0 0.16,-0.011 0.308,-0.148 0.148,-0.137 0.16,-0.387 0.16,-0.387 0,0 0.148,0.011 0.319,-0.137 0.171,-0.149 0.16,-0.296 0.16,-0.296 0,0 0.183,0.057 0.387,-0.08 0.205,-0.137 0.205,-0.354 0.205,-0.354 0,0 0.137,0.08 0.387,-0.056 0.251,-0.137 0.239,-0.32 0.239,-0.32 0,0 0.148,0.103 0.398,-0.034 0.251,-0.137 0.262,-0.262 0.262,-0.262 0,0 0.114,0.091 0.342,0.011 0.228,-0.08 0.308,-0.262 0.308,-0.262 0,0 0.08,0.171 0.353,0.103 0.274,-0.068 0.354,-0.285 0.354,-0.285 0,0 0.114,0.194 0.331,0.194 0.216,0 0.399,-0.16 0.399,-0.16 0,0 0.091,0.137 0.308,0.137 0.216,0 0.376,-0.137 0.376,-0.137 0,0 0.068,0.092 0.341,0.114 0.274,0.023 0.377,-0.057 0.377,-0.057 0,0 0.101,0.171 0.273,0.216 0.17,0.046 0.387,-0.034 0.387,-0.034 0,0 0.057,0.171 0.263,0.251 0.204,0.08 0.41,0 0.41,0 0,0 -0.012,0.193 0.228,0.273 0.239,0.08 0.41,0 0.41,0 0,0 0.067,0.206 0.284,0.308 0.217,0.103 0.377,0.08 0.377,0.08 0,0 0.012,0.171 0.192,0.296 0.183,0.125 0.377,0.114 0.377,0.114 0,0 0,0.206 0.171,0.342 0.171,0.137 0.354,0.171 0.354,0.171 0,0 -0.08,0.194 0.046,0.342 0.125,0.148 0.363,0.25 0.363,0.25 0,0 -0.034,0.194 0.069,0.354 0.103,0.16 0.308,0.239 0.308,0.239 0,0 0.012,0.137 0.067,0.308 0.058,0.171 0.331,0.273 0.331,0.273 0,0 -0.103,0.183 -0.057,0.354 0.046,0.171 0.273,0.318 0.273,0.318 0,0 -0.08,0.092 -0.058,0.274 0.023,0.182 0.217,0.376 0.217,0.376 0,0 -0.045,0.102 -0.058,0.376 -0.011,0.273 0.16,0.376 0.16,0.376 0,0 -0.113,0.125 -0.125,0.33 -0.011,0.206 0.171,0.399 0.342,0.387 0.172,-0.011 0.25,-0.125 0.229,-0.33 -0.023,-0.205 -0.195,-0.411 -0.195,-0.411 0,0 0.149,-0.159 0.139,-0.353 -0.014,-0.194 -0.263,-0.433 -0.263,-0.433 0,0 0.102,-0.057 0.091,-0.318 -0.012,-0.262 -0.239,-0.353 -0.239,-0.353 0,0 0.079,-0.068 0.022,-0.342 C 24.425,10.038 24.22,9.97 24.22,9.97 c 0,0 0.057,-0.148 -0.034,-0.377 -0.091,-0.227 -0.331,-0.285 -0.331,-0.285 0,0 0,-0.183 -0.079,-0.387 -0.08,-0.206 -0.319,-0.194 -0.319,-0.194 0,0 0.034,-0.274 -0.137,-0.433 -0.171,-0.159 -0.376,-0.171 -0.376,-0.171 0,0 0.067,-0.182 -0.137,-0.376 -0.205,-0.194 -0.388,-0.114 -0.388,-0.114 0,0 0,-0.262 -0.229,-0.421 -0.227,-0.16 -0.364,-0.091 -0.364,-0.091 0,0 -0.011,-0.16 -0.228,-0.273 -0.217,-0.114 -0.409,-0.08 -0.409,-0.08 0,0 -0.012,-0.193 -0.251,-0.285 -0.24,-0.09 -0.434,-0.023 -0.434,-0.023 0,0 0,-0.17 -0.262,-0.262 -0.263,-0.091 -0.423,-0.022 -0.423,-0.022 0,0 -0.067,-0.125 -0.273,-0.205 -0.205,-0.08 -0.444,0.046 -0.444,0.046 0,0 -0.16,-0.171 -0.388,-0.194 C 18.486,5.8 18.35,5.914 18.35,5.914 c 0,0 -0.069,-0.114 -0.331,-0.137 -0.262,-0.022 -0.376,0.125 -0.376,0.125 0,0 -0.045,-0.08 -0.285,-0.102 -0.239,-0.023 -0.432,0.228 -0.432,0.228 0,0 -0.206,-0.16 -0.422,-0.126 -0.216,0.034 -0.342,0.216 -0.342,0.216 0,0 -0.125,-0.091 -0.365,-0.034 -0.24,0.058 -0.341,0.239 -0.341,0.239 0,0 -0.103,-0.057 -0.331,0.034 -0.228,0.091 -0.285,0.331 -0.285,0.331 0,0 -0.148,-0.103 -0.421,0.056 -0.273,0.16 -0.262,0.296 -0.262,0.296 0,0 -0.114,-0.045 -0.342,0.08 -0.228,0.125 -0.194,0.387 -0.194,0.387 0,0 -0.182,-0.08 -0.41,0.091 -0.228,0.171 -0.16,0.376 -0.16,0.376 0,0 -0.273,-0.012 -0.399,0.183 -0.125,0.193 -0.103,0.41 -0.103,0.41 0,0 -0.239,0.023 -0.353,0.205 -0.114,0.182 -0.046,0.399 -0.046,0.399 0,0 -0.216,0 -0.33,0.216 -0.114,0.217 -0.045,0.41 -0.045,0.41 0,0 -0.216,0.057 -0.297,0.296 -0.079,0.239 0.012,0.399 0.012,0.399 0,0 -0.251,0.068 -0.307,0.296 -0.057,0.228 0.045,0.421 0.045,0.421 0,0 -0.148,0.091 -0.193,0.319 -0.043,0.231 0.105,0.379 0.105,0.379 z"
     id="path52"
     inkscape:connector-curvature="0"
     style="fill:#de200f" />
  <path
     d="m 11.14,12.17 c 0,0 0.117,0.096 0.251,0 0,0 0.091,0.325 -0.148,0.285 C 11.035,12.419 11.14,12.17 11.14,12.17 Z m 0.068,-0.621 c 0,0 0.051,0.048 0.128,0.054 0.077,0.006 0.142,-0.023 0.142,-0.023 0,0 0.006,0.086 -0.028,0.166 -0.034,0.08 -0.088,0.168 -0.19,0.134 -0.103,-0.034 -0.094,-0.168 -0.083,-0.225 0.012,-0.058 0.031,-0.106 0.031,-0.106 z m 0.18,-0.738 c 0,0 0.068,0.057 0.134,0.063 0.065,0.005 0.145,-0.012 0.145,-0.012 0,0 -0.008,0.094 -0.049,0.177 -0.04,0.082 -0.114,0.136 -0.196,0.117 -0.083,-0.02 -0.083,-0.131 -0.08,-0.197 0.003,-0.065 0.046,-0.148 0.046,-0.148 z m 0.26,-0.692 c 0,0 0.045,0.059 0.105,0.077 0.06,0.017 0.151,0.02 0.151,0.02 0,0 -0.023,0.108 -0.06,0.163 -0.037,0.054 -0.117,0.125 -0.194,0.091 -0.077,-0.034 -0.085,-0.128 -0.068,-0.21 0.017,-0.085 0.066,-0.141 0.066,-0.141 z m 0.338,-0.664 c 0,0 0.042,0.069 0.114,0.088 0.071,0.019 0.148,0.019 0.148,0.019 0,0 -0.031,0.083 -0.077,0.149 -0.046,0.066 -0.129,0.103 -0.214,0.071 -0.069,-0.025 -0.074,-0.134 -0.051,-0.199 0.023,-0.066 0.08,-0.128 0.08,-0.128 z m 0.408,-0.632 c 0,0 0.031,0.069 0.085,0.105 0.068,0.045 0.148,0.051 0.148,0.051 0,0 -0.094,0.12 -0.137,0.154 -0.042,0.035 -0.168,0.094 -0.231,-0.011 -0.048,-0.081 0,-0.165 0.031,-0.205 0.032,-0.04 0.104,-0.094 0.104,-0.094 z m 0.441,-0.601 c 0,0 0.022,0.083 0.082,0.119 0.06,0.038 0.146,0.051 0.146,0.051 0,0 -0.093,0.231 -0.26,0.206 -0.168,-0.026 -0.125,-0.18 -0.091,-0.24 0.035,-0.06 0.123,-0.136 0.123,-0.136 z M 13.359,7.72 c 0,0 0.04,0.087 0.077,0.117 0.049,0.04 0.129,0.071 0.129,0.071 0,0 -0.102,0.142 -0.22,0.163 C 13.231,8.091 13.154,8.011 13.16,7.923 13.167,7.809 13.359,7.72 13.359,7.72 Z m 0.578,-0.473 c 0,0 0.021,0.086 0.066,0.125 0.046,0.04 0.133,0.085 0.133,0.085 0,0 -0.108,0.151 -0.236,0.151 -0.128,0 -0.168,-0.054 -0.168,-0.125 0,-0.071 0.049,-0.14 0.086,-0.165 0.036,-0.026 0.119,-0.071 0.119,-0.071 z m 0.63,-0.412 c 0,0 0.008,0.096 0.054,0.157 0.032,0.041 0.123,0.082 0.123,0.082 0,0 -0.106,0.13 -0.236,0.13 -0.131,0 -0.171,-0.065 -0.171,-0.143 0,-0.077 0.06,-0.136 0.103,-0.167 0.041,-0.031 0.127,-0.059 0.127,-0.059 z m 0.664,-0.329 c 0,0 -0.005,0.103 0.026,0.151 0.031,0.048 0.117,0.105 0.117,0.105 0,0 -0.105,0.074 -0.191,0.086 C 15.099,6.859 15.024,6.845 14.999,6.748 14.974,6.651 15.042,6.586 15.082,6.56 15.12,6.535 15.231,6.506 15.231,6.506 Z m 0.672,-0.298 c 0,0 -0.003,0.094 0.043,0.176 0.03,0.054 0.085,0.106 0.085,0.106 0,0 -0.082,0.077 -0.225,0.068 -0.139,-0.008 -0.164,-0.122 -0.142,-0.2 0.034,-0.122 0.239,-0.15 0.239,-0.15 z m 0.746,-0.183 c 0,0 -0.031,0.117 -0.003,0.185 0.029,0.068 0.085,0.111 0.085,0.111 0,0 -0.102,0.057 -0.217,0.057 -0.113,0 -0.194,-0.079 -0.17,-0.194 0.034,-0.164 0.305,-0.159 0.305,-0.159 z M 17.375,5.96 c 0,0 -0.022,0.083 -0.02,0.131 0.005,0.103 0.062,0.157 0.062,0.157 0,0 -0.099,0.052 -0.216,0.023 -0.117,-0.029 -0.157,-0.065 -0.154,-0.163 0.003,-0.096 0.1,-0.14 0.168,-0.153 0.069,-0.015 0.16,0.005 0.16,0.005 z m 0.436,0.125 C 17.806,6.025 17.899,5.929 18.087,5.931 18.084,5.936 18.073,6.036 18.09,6.088 18.107,6.139 17.811,6.085 17.811,6.085 Z M 18.535,6.068 C 18.583,5.963 18.8,5.957 18.877,6 c 0,0 -0.061,0.122 -0.031,0.188 0.028,0.065 -0.311,-0.12 -0.311,-0.12 z m 1.082,0.071 c 0,0 -0.08,0.057 -0.091,0.122 -0.012,0.065 0.022,0.163 0.022,0.163 0,0 -0.113,-0.009 -0.197,-0.041 C 19.269,6.352 19.214,6.267 19.235,6.173 19.252,6.096 19.34,6.07 19.421,6.067 19.5,6.065 19.617,6.139 19.617,6.139 Z m 0.693,0.242 c 0,0 -0.046,0.017 -0.073,0.102 C 20.208,6.569 20.23,6.651 20.23,6.651 20.144,6.634 20.08,6.611 20.007,6.551 19.939,6.493 19.931,6.428 19.965,6.354 c 0.034,-0.073 0.119,-0.071 0.194,-0.06 0.073,0.013 0.151,0.087 0.151,0.087 z m 0.327,0.225 c 0.045,-0.08 0.231,-0.042 0.285,0 0.054,0.043 0.068,0.08 0.068,0.08 0,0 -0.062,0.014 -0.092,0.08 -0.028,0.066 -0.008,0.16 -0.008,0.16 0,0 -0.085,-0.024 -0.16,-0.072 C 20.656,6.806 20.574,6.721 20.637,6.606 Z m 0.649,0.356 c 0.048,-0.102 0.18,-0.083 0.245,-0.04 0.065,0.043 0.107,0.105 0.107,0.105 0,0 -0.067,0.02 -0.099,0.08 -0.031,0.06 -0.034,0.165 -0.034,0.165 0,0 -0.1,-0.031 -0.168,-0.094 C 21.27,7.116 21.252,7.037 21.286,6.962 Z m 0.621,0.368 c 0.06,-0.074 0.149,-0.057 0.214,-0.006 0.065,0.051 0.107,0.149 0.107,0.149 0,0 -0.067,0.017 -0.104,0.062 -0.037,0.045 -0.037,0.136 -0.037,0.136 0,0 -0.085,-0.025 -0.154,-0.105 C 21.865,7.487 21.862,7.386 21.907,7.33 Z m 0.546,0.473 c 0.067,-0.076 0.17,-0.042 0.221,0.008 0.051,0.052 0.103,0.174 0.103,0.174 0,0 -0.094,0.006 -0.128,0.045 -0.034,0.04 -0.057,0.137 -0.057,0.137 0,0 -0.058,-0.034 -0.115,-0.12 C 22.42,7.962 22.4,7.866 22.453,7.803 Z m 0.527,0.518 c 0.075,-0.071 0.198,-0.003 0.231,0.04 0.048,0.062 0.062,0.154 0.062,0.154 0,0 -0.065,0.011 -0.106,0.04 -0.039,0.029 -0.079,0.123 -0.079,0.123 0,0 -0.066,-0.034 -0.109,-0.111 -0.041,-0.078 -0.066,-0.18 0.001,-0.246 z m 0.556,0.621 c 0.157,-0.006 0.24,0.188 0.24,0.188 0,0 -0.159,-0.003 -0.215,0.125 -0.054,0.128 -0.067,-0.173 -0.067,-0.211 0,-0.036 0.042,-0.102 0.042,-0.102 z m 0.262,0.587 c 0.094,-0.075 0.192,-0.02 0.229,0.04 0.037,0.06 0.071,0.186 0.071,0.186 0,0 -0.097,0.008 -0.156,0.042 -0.06,0.034 -0.108,0.106 -0.108,0.106 0,0 -0.049,-0.062 -0.086,-0.171 -0.037,-0.109 0.008,-0.17 0.05,-0.203 z m 0.334,0.649 c 0.093,-0.056 0.171,0.023 0.211,0.069 0.04,0.045 0.066,0.168 0.066,0.168 0,0 -0.104,0.002 -0.149,0.031 -0.045,0.028 -0.104,0.119 -0.104,0.119 0,0 -0.055,-0.094 -0.078,-0.171 -0.023,-0.076 -0.012,-0.176 0.054,-0.216 z m 0.268,0.653 c 0.1,-0.042 0.178,0.054 0.191,0.126 0.011,0.071 0.019,0.177 0.019,0.177 0,0 -0.048,-0.023 -0.134,0 -0.089,0.024 -0.125,0.065 -0.125,0.065 0,0 -0.046,-0.08 -0.058,-0.168 -0.01,-0.09 0.008,-0.158 0.107,-0.2 z m 0.16,0.732 c 0.139,-0.035 0.185,0.077 0.188,0.17 0.002,0.097 -0.003,0.143 -0.003,0.143 0,0 -0.062,-0.02 -0.135,0 -0.071,0.02 -0.113,0.08 -0.113,0.08 0,0 -0.04,-0.092 -0.055,-0.18 -0.013,-0.088 0.012,-0.187 0.118,-0.213 z m 0.05,0.709 c 0.101,-0.026 0.198,0.074 0.203,0.154 0.006,0.079 0.003,0.17 0.003,0.17 0,0 -0.068,-0.025 -0.131,-0.014 -0.062,0.012 -0.142,0.078 -0.142,0.078 0,0 -0.026,-0.083 -0.037,-0.163 -0.011,-0.079 -0.005,-0.197 0.104,-0.225 z"
     id="path54"
     inkscape:connector-curvature="0"
     style="fill:#ffe301" />
  <path
     d="m 22.876,8.569 c 0.265,-0.076 0.273,0.205 0.331,0.33 0.056,0.125 -0.069,0.513 -0.195,0.649 0,0 -0.079,-0.045 -0.056,-0.182 C 22.977,9.229 22.693,8.945 22.682,8.819 22.67,8.694 22.796,8.592 22.876,8.569 Z"
     id="path56"
     inkscape:connector-curvature="0"
     style="fill:#ffb636" />
  <path
     d="m 19.07,7.327 c 0,0 0.319,-0.09 0.319,-0.592 0,-0.502 -0.718,-0.82 -1.094,-0.627 l 0.125,0.274 c 0,0 -0.012,-0.023 0.205,-0.023 0.217,0 0.463,0.164 0.514,0.399 0.068,0.318 -0.069,0.569 -0.069,0.569 z"
     id="path58"
     inkscape:connector-curvature="0"
     style="fill:#207900" />
  <path
     d="m 19.036,7.354 0.02,-0.036 C 19.057,7.316 19.189,7.068 19.123,6.76 19.071,6.522 18.825,6.375 18.626,6.375 c -0.165,0 -0.19,0.014 -0.192,0.015 0.003,-0.002 0.006,-0.009 0.003,-0.017 L 18.406,6.388 18.402,6.379 18.273,6.1 18.288,6.093 c 0.201,-0.105 0.508,-0.069 0.762,0.085 0.227,0.139 0.357,0.342 0.357,0.557 0,0.509 -0.329,0.608 -0.332,0.609 l -0.039,0.01 z m -0.41,-1.013 c 0.212,0 0.476,0.158 0.53,0.413 0.053,0.25 -0.016,0.456 -0.052,0.54 0.083,-0.042 0.268,-0.177 0.268,-0.56 0,-0.203 -0.124,-0.395 -0.34,-0.527 C 18.798,6.064 18.508,6.029 18.318,6.115 l 0.11,0.241 c 0.024,-0.008 0.077,-0.015 0.198,-0.015 z"
     id="path60"
     inkscape:connector-curvature="0"
     style="fill:#103800" />
  <path
     d="m 17.623,6.21 c 0,0 0.251,-0.228 0.559,-0.228 0.308,0 0.524,0.354 0.524,0.593 0,0.239 -0.08,0.775 -0.604,0.775 0,0 0.296,-0.205 0.296,-0.604 0,-0.398 -0.24,-0.581 -0.388,-0.581 -0.148,0 -0.387,0.045 -0.387,0.045 z"
     id="path62"
     inkscape:connector-curvature="0"
     style="fill:#207900" />
  <path
     d="m 18.102,7.367 -0.055,0 0.045,-0.031 c 0.003,-0.002 0.289,-0.205 0.289,-0.59 0,-0.398 -0.241,-0.563 -0.371,-0.563 -0.145,0 -0.382,0.044 -0.384,0.045 L 17.566,6.24 17.61,6.199 c 0.011,-0.009 0.26,-0.232 0.57,-0.232 0.326,0 0.542,0.367 0.542,0.61 10e-4,0.131 -0.029,0.79 -0.62,0.79 z M 18.011,6.148 c 0.17,0 0.405,0.208 0.405,0.598 0,0.313 -0.181,0.512 -0.264,0.585 0.51,-0.036 0.537,-0.633 0.537,-0.756 0,-0.232 -0.213,-0.576 -0.507,-0.576 -0.217,0 -0.407,0.118 -0.495,0.183 0.082,-0.014 0.222,-0.034 0.324,-0.034 z"
     id="path64"
     inkscape:connector-curvature="0"
     style="fill:#103800" />
  <path
     d="m 23.617,8.729 c 0,0 -0.104,0.41 0.034,0.729 0.137,0.319 0.397,1.196 -0.126,1.526 0,0 0.068,-0.41 0.058,-0.74 -0.012,-0.33 -0.217,-0.684 -0.229,-0.98 -0.01,-0.296 0.263,-0.535 0.263,-0.535 z"
     id="path66"
     inkscape:connector-curvature="0"
     style="fill:#207900" />
  <path
     d="m 23.502,11.019 0.007,-0.038 c 0,-0.004 0.067,-0.412 0.058,-0.737 C 23.56,10.076 23.504,9.9 23.448,9.73 23.394,9.565 23.344,9.409 23.339,9.263 23.327,8.963 23.596,8.724 23.607,8.715 l 0.042,-0.036 -0.014,0.053 c -0.001,0.004 -0.101,0.408 0.033,0.718 0.184,0.428 0.362,1.236 -0.133,1.548 l -0.033,0.021 z m 0.087,-2.238 c -0.074,0.079 -0.226,0.267 -0.218,0.482 0.006,0.141 0.056,0.294 0.109,0.457 0.056,0.172 0.113,0.351 0.119,0.523 0.009,0.269 -0.035,0.594 -0.052,0.705 0.547,-0.394 0.107,-1.438 0.088,-1.483 -0.109,-0.255 -0.07,-0.56 -0.046,-0.684 z"
     id="path68"
     inkscape:connector-curvature="0"
     style="fill:#103800" />
  <path
     d="m 24.118,9.833 c 0,0 -0.026,0.35 -0.012,0.627 0.024,0.433 0.718,1.003 0.502,1.641 0,0 -0.104,-0.376 -0.239,-0.638 -0.138,-0.262 -0.422,-0.775 -0.41,-1.048 0.011,-0.274 0.159,-0.582 0.159,-0.582 z"
     id="path70"
     inkscape:connector-curvature="0"
     style="fill:#207900" />
  <path
     d="M 24.606,12.16 24.591,12.106 C 24.59,12.103 24.487,11.729 24.353,11.471 L 24.32,11.408 c -0.146,-0.275 -0.39,-0.737 -0.378,-0.994 0.011,-0.274 0.154,-0.575 0.16,-0.588 l 0.039,-0.082 -0.007,0.09 c 0,0.003 -0.025,0.352 -0.012,0.625 0.009,0.162 0.117,0.349 0.232,0.547 0.189,0.328 0.404,0.7 0.27,1.1 L 24.606,12.16 Z M 24.095,9.93 c -0.044,0.111 -0.111,0.307 -0.119,0.485 -0.01,0.248 0.231,0.704 0.375,0.977 l 0.033,0.063 c 0.104,0.201 0.19,0.47 0.225,0.585 0.095,-0.366 -0.105,-0.711 -0.283,-1.017 C 24.21,10.821 24.099,10.63 24.091,10.461 24.079,10.275 24.088,10.055 24.095,9.93 Z"
     id="path72"
     inkscape:connector-curvature="0"
     style="fill:#103800" />
  <path
     d="m 24.778,13.035 c 0,0 0.388,0.501 0.365,0.89 -0.023,0.388 -0.273,0.818 -0.16,1.15 0,0 -0.251,-0.309 -0.159,-0.844 0.092,-0.535 -0.046,-1.196 -0.046,-1.196 z"
     id="path74"
     inkscape:connector-curvature="0"
     style="fill:#207900" />
  <path
     d="m 25.03,15.159 -0.061,-0.073 c -0.01,-0.013 -0.255,-0.32 -0.162,-0.857 0.09,-0.526 -0.045,-1.183 -0.046,-1.19 l -0.016,-0.073 0.046,0.059 c 0.016,0.021 0.392,0.511 0.368,0.901 -0.009,0.153 -0.053,0.314 -0.096,0.471 -0.067,0.245 -0.132,0.477 -0.064,0.673 l 0.031,0.089 z m -0.221,-2.052 c 0.033,0.189 0.105,0.701 0.032,1.127 -0.062,0.361 0.036,0.619 0.103,0.745 -0.025,-0.182 0.03,-0.382 0.088,-0.593 0.043,-0.153 0.087,-0.312 0.096,-0.463 0.016,-0.298 -0.219,-0.672 -0.319,-0.816 z"
     id="path76"
     inkscape:connector-curvature="0"
     style="fill:#103800" />
  <path
     d="m 24.722,12.979 c 0,0 0.269,0.466 0.262,0.764 -0.011,0.488 -0.307,1.012 -0.41,1.332 -0.103,0.319 -0.147,0.889 -0.147,0.889 0,0 -0.114,-0.354 -0.091,-0.662 0.022,-0.307 0.319,-0.967 0.376,-1.469 0.055,-0.502 0.01,-0.854 0.01,-0.854 z"
     id="path78"
     inkscape:connector-curvature="0"
     style="fill:#207900" />
  <path
     d="M 24.437,16.051 24.41,15.969 c -0.001,-0.003 -0.114,-0.36 -0.091,-0.668 0.01,-0.144 0.077,-0.356 0.155,-0.603 0.089,-0.28 0.19,-0.598 0.221,-0.867 0.055,-0.493 0.011,-0.846 0.011,-0.85 l -0.011,-0.084 0.042,0.073 c 0.012,0.02 0.272,0.474 0.264,0.773 -0.007,0.353 -0.162,0.723 -0.287,1.021 -0.049,0.116 -0.094,0.226 -0.123,0.315 -0.102,0.314 -0.146,0.88 -0.147,0.885 l -0.007,0.087 z m 0.309,-2.99 c 0.01,0.134 0.021,0.418 -0.019,0.774 -0.03,0.272 -0.132,0.592 -0.221,0.873 -0.078,0.245 -0.145,0.456 -0.155,0.595 -0.016,0.21 0.034,0.444 0.065,0.567 0.018,-0.175 0.062,-0.56 0.14,-0.8 0.03,-0.092 0.076,-0.202 0.125,-0.318 0.123,-0.296 0.277,-0.663 0.284,-1.009 0.007,-0.221 -0.145,-0.54 -0.219,-0.682 z"
     id="path80"
     inkscape:connector-curvature="0"
     style="fill:#103800" />
  <path
     d="m 10.935,13.126 c 0,0 0,0.558 0.023,0.787 0.023,0.227 0.513,0.981 0.581,1.354 0.068,0.377 -0.217,0.776 -0.217,0.776 0,0 0.034,-0.434 0,-0.661 -0.034,-0.228 -0.558,-1.024 -0.547,-1.435 0.012,-0.41 0.16,-0.821 0.16,-0.821 z"
     id="path82"
     inkscape:connector-curvature="0"
     style="fill:#207900" />
  <path
     d="m 11.3,16.104 0.005,-0.062 c 0,-0.005 0.034,-0.435 0,-0.657 -0.012,-0.084 -0.095,-0.251 -0.191,-0.445 -0.162,-0.327 -0.363,-0.733 -0.356,-0.994 0.011,-0.409 0.159,-0.822 0.16,-0.826 l 0.033,-0.092 0,0.098 c 0,0.005 0,0.56 0.023,0.785 0.01,0.103 0.124,0.326 0.244,0.562 0.141,0.276 0.3,0.589 0.336,0.791 0.068,0.38 -0.208,0.772 -0.219,0.789 L 11.3,16.104 Z m -0.382,-2.87 c -0.044,0.146 -0.118,0.432 -0.125,0.714 -0.007,0.251 0.192,0.654 0.352,0.977 0.097,0.197 0.181,0.366 0.195,0.455 0.026,0.176 0.013,0.468 0.004,0.599 0.073,-0.122 0.229,-0.424 0.179,-0.708 -0.036,-0.197 -0.194,-0.508 -0.333,-0.781 -0.127,-0.25 -0.237,-0.466 -0.248,-0.575 -0.018,-0.166 -0.023,-0.507 -0.024,-0.681 z"
     id="path84"
     inkscape:connector-curvature="0"
     style="fill:#103800" />
  <path
     d="m 11.003,15.701 c 0,0 0.171,-0.148 0.16,-0.386 -0.012,-0.24 -0.137,-0.595 -0.251,-0.89 -0.114,-0.298 -0.159,-0.753 -0.103,-0.912 0.058,-0.16 0.125,-0.388 0.125,-0.388 0,0 -0.307,0.342 -0.341,0.662 -0.035,0.318 0.039,0.812 0.216,1.139 0.229,0.423 0.194,0.775 0.194,0.775 z"
     id="path86"
     inkscape:connector-curvature="0"
     style="fill:#207900" />
  <path
     d="m 10.982,15.742 0.004,-0.043 c 0,-0.003 0.031,-0.353 -0.192,-0.765 -0.185,-0.343 -0.25,-0.848 -0.218,-1.148 0.035,-0.321 0.333,-0.657 0.346,-0.671 l 0.051,-0.057 -0.021,0.073 c -10e-4,0.002 -0.069,0.23 -0.126,0.389 -0.052,0.147 -0.015,0.591 0.103,0.9 0.111,0.288 0.24,0.649 0.252,0.895 0.012,0.244 -0.158,0.394 -0.166,0.399 l -0.033,0.028 z m -0.089,-2.538 c -0.089,0.114 -0.258,0.358 -0.283,0.586 -0.032,0.296 0.032,0.792 0.214,1.129 0.181,0.334 0.199,0.629 0.198,0.738 0.047,-0.054 0.132,-0.176 0.124,-0.341 -0.012,-0.24 -0.14,-0.599 -0.25,-0.885 -0.11,-0.289 -0.163,-0.755 -0.103,-0.923 0.036,-0.098 0.075,-0.223 0.1,-0.304 z"
     id="path88"
     inkscape:connector-curvature="0"
     style="fill:#103800" />
</svg>
