<?xml version="1.0" encoding="UTF-8" standalone="no"?>
<svg
   xmlns:dc="http://purl.org/dc/elements/1.1/"
   xmlns:cc="http://creativecommons.org/ns#"
   xmlns:rdf="http://www.w3.org/1999/02/22-rdf-syntax-ns#"
   xmlns:svg="http://www.w3.org/2000/svg"
   xmlns="http://www.w3.org/2000/svg"
   xmlns:sodipodi="http://sodipodi.sourceforge.net/DTD/sodipodi-0.dtd"
   xmlns:inkscape="http://www.inkscape.org/namespaces/inkscape"
   viewBox="0 0 36 26"
   id="svg2"
   version="1.1"
   inkscape:version="0.91 r13725"
   sodipodi:docname="1f1f1-1f1e7.svg"
   width="36"
   height="26">
  <metadata
     id="metadata16">
    <rdf:RDF>
      <cc:Work
         rdf:about="">
        <dc:format>image/svg+xml</dc:format>
        <dc:type
           rdf:resource="http://purl.org/dc/dcmitype/StillImage" />
      </cc:Work>
    </rdf:RDF>
  </metadata>
  <defs
     id="defs14" />
  <sodipodi:namedview
     pagecolor="#ffffff"
     bordercolor="#666666"
     borderopacity="1"
     objecttolerance="10"
     gridtolerance="10"
     guidetolerance="10"
     inkscape:pageopacity="0"
     inkscape:pageshadow="2"
     inkscape:window-width="640"
     inkscape:window-height="480"
     id="namedview12"
     showgrid="false"
     inkscape:zoom="6.5555556"
     inkscape:cx="18"
     inkscape:cy="13"
     inkscape:window-x="0"
     inkscape:window-y="0"
     inkscape:window-maximized="0"
     inkscape:current-layer="svg2" />
  <path
     d="m 36,22 c 0,2.209 -1.791,4 -4,4 L 4,26 C 1.791,26 0,24.209 0,22 L 0,4 C 0,1.791 1.791,0 4,0 l 28,0 c 2.209,0 4,1.791 4,4 l 0,18 z"
     id="path4"
     inkscape:connector-curvature="0"
     style="fill:#ed1c23" />
  <path
     d="M 0,8 36,8 36,18 0,18 Z"
     id="path6"
     inkscape:connector-curvature="0"
     style="fill:#eeeeee" />
  <path
     d="M 16.993,8.204 C 16.81,8.407 16.378,8.69 16.28,8.883 16.182,9.077 15.867,9.275 15.699,9.347 15.53,9.419 15.678,9.535 15.862,9.42 16.047,9.305 16.2,9.31 16.308,9.206 16.416,9.102 16.572,9.201 16.42,9.272 16.269,9.344 16.211,9.464 16.145,9.55 c -0.066,0.087 -0.099,0.13 -0.252,0.133 -0.153,0.003 -0.289,0.04 -0.396,0.196 -0.108,0.155 -0.24,0.337 -0.297,0.423 -0.058,0.086 -0.014,0.154 0.129,0.048 0.142,-0.106 0.302,-0.194 0.373,-0.076 0.071,0.117 0.068,0.173 -0.122,0.249 -0.405,0.162 -0.522,0.258 -0.595,0.421 -0.073,0.164 -0.03,0.214 -0.283,0.295 -0.254,0.082 -0.664,0.381 -0.932,0.582 -0.268,0.202 -0.115,0.212 0.09,0.202 0.314,-0.016 0.718,-0.229 0.924,-0.139 0.062,0.118 0.134,0.269 0.23,0.378 -0.331,0.466 -0.386,0.646 -0.726,0.654 -0.341,0.008 -0.554,0.353 -0.712,0.526 -0.158,0.174 -0.295,0.338 -0.459,0.41 -0.144,0.063 -0.176,0.115 -0.064,0.171 0.112,0.058 0.211,-0.08 0.314,-0.032 0.103,0.049 0.171,0.031 0.33,-0.075 0.159,-0.106 0.327,-0.246 0.581,-0.277 0.122,0.142 0.184,0.218 0.322,0.291 -0.24,0.328 -0.6,0.583 -0.913,0.692 -0.313,0.108 -0.361,0.228 -0.585,0.514 -0.223,0.286 -0.213,0.379 -0.442,0.384 -0.23,0.006 -0.22,0.057 -0.099,0.147 0.121,0.091 0.214,0.047 0.393,0.086 0.18,0.038 0.41,0.076 0.643,-0.176 0.233,-0.253 0.804,-0.693 1.288,-0.65 0.23,0.021 0.393,0.068 0.118,0.329 -0.275,0.261 -0.672,0.461 -0.942,0.514 -0.525,0.106 -0.751,0.315 -0.904,0.309 -0.154,-0.006 -0.296,0.1 -0.063,0.239 0.233,0.14 0.31,0.173 0.571,0.056 0.261,-0.116 0.69,-0.313 0.86,-0.358 0.169,-0.047 0.295,-0.118 0.415,-0.086 0.12,0.031 0.213,-0.006 0.347,-0.093 0.134,-0.088 0.33,-0.1 0.496,-0.257 0.194,-0.183 0.4,-0.026 0.529,0.081 0.13,0.108 0.386,0.536 0.155,0.831 -0.232,0.294 -0.489,0.606 -0.571,0.761 -0.082,0.155 -0.128,0.165 -0.225,0.2 -0.312,0.118 -0.631,0.312 -0.723,0.391 -0.092,0.078 -0.057,0.103 0.071,0.126 0.128,0.023 0.145,-0.003 0.261,-0.099 0.117,-0.096 0.259,-0.243 0.548,-0.234 0.153,0.005 0.279,-0.082 0.412,-0.222 0.134,-0.139 0.42,-0.264 0.565,-0.234 0.145,0.031 0.187,-0.003 0.271,-0.066 0.083,-0.061 0.151,-0.088 0.281,0.02 0.13,0.108 0.24,0.088 0.375,0.009 0.135,-0.08 0.28,-0.049 0.316,0.036 0.035,0.084 0.054,0.16 0.175,0.243 0.121,0.082 0.552,0.337 0.69,0.411 0.137,0.073 0.228,-0.065 0.124,-0.156 -0.104,-0.091 -0.157,-0.167 -0.141,-0.244 0.016,-0.077 0.095,-0.108 0.329,-0.076 0.367,0.052 0.892,0.313 1.082,0.427 0.191,0.116 0.363,0.214 0.516,0.21 0.154,-0.003 0.203,-0.039 0.065,-0.164 -0.14,-0.124 -0.309,-0.111 -0.372,-0.238 -0.107,-0.219 -0.292,-0.061 -0.389,-0.281 -0.069,-0.157 -0.165,-0.176 -0.284,-0.165 -0.119,0.011 -0.278,-0.096 -0.388,-0.264 -0.388,-0.587 -0.493,-1.112 -0.366,-1.507 0.128,-0.394 0.499,-0.513 0.716,-0.347 0.217,0.166 0.473,0.27 0.584,0.259 0.111,-0.011 0.205,-0.012 0.349,0.069 0.147,0.082 0.396,0.136 0.699,0.01 0.303,-0.126 0.41,-0.027 0.603,-0.021 0.163,0.004 0.358,0.034 0.49,0.142 0.129,0.108 0.327,0.18 0.625,0.225 0.298,0.045 0.501,-0.037 0.26,-0.176 -0.243,-0.139 -0.447,-0.22 -0.536,-0.346 -0.087,-0.126 -0.216,-0.148 -0.343,-0.146 -0.127,0.003 -0.334,-0.086 -0.507,-0.26 -0.174,-0.176 -0.312,-0.207 -0.447,-0.187 -0.136,0.02 -0.289,-0.019 -0.385,-0.136 0.131,-0.156 0.272,-0.448 0.396,-0.536 0.154,-0.012 0.281,0.028 0.385,0.119 0.105,0.091 0.249,0.071 0.352,0.069 0.102,-0.002 0.247,0.045 0.334,0.103 0.087,0.058 0.223,0.055 0.349,10e-4 0.125,-0.053 0.098,-0.121 -0.056,-0.211 -0.156,-0.09 -0.243,-0.148 -0.296,-0.233 -0.051,-0.083 -0.096,-0.125 -0.283,-0.121 -0.187,0.004 -0.276,-0.087 -0.423,-0.246 -0.332,-0.358 -0.552,-0.379 -0.766,-0.35 -0.212,0.03 -0.423,0.069 -0.599,-0.182 0.218,-0.107 0.396,0.139 0.679,-0.074 0.151,-0.114 0.251,-0.142 0.441,-0.078 0.189,0.064 0.41,0.042 0.467,-0.002 0.06,-0.044 0.136,-0.114 0.229,-0.124 0.091,-0.011 0.08,-0.134 -0.056,-0.118 -0.263,0.031 -0.309,-0.13 -0.563,-0.081 -0.254,0.048 -0.347,0.008 -0.512,-0.108 -0.165,-0.116 -0.303,-0.215 -0.786,-0.136 0.022,-0.154 0.009,-0.315 0.247,-0.363 0.18,0.107 0.349,0.086 0.494,0.083 0.145,-0.003 0.639,-0.006 0.783,0.017 0.147,0.022 0.178,-0.047 -0.038,-0.161 -0.214,-0.114 -0.521,-0.159 -0.632,-0.165 -0.111,-0.006 -0.165,-0.081 -0.236,-0.225 -0.071,-0.143 -0.285,-0.257 -0.601,-0.259 -0.256,-0.002 -0.444,-0.118 -0.574,-0.234 -0.131,-0.116 -0.251,-0.208 -0.405,-0.23 -0.154,-0.022 -0.293,-0.13 -0.227,-0.259 0.065,-0.129 0.319,-0.185 0.501,-0.071 0.18,0.116 0.292,0.121 0.4,0.059 0.109,-0.062 0.178,-0.089 0.341,-0.033 0.162,0.056 0.325,0.052 0.073,-0.138 C 20.252,9.902 19.896,10.012 19.774,9.862 19.652,9.711 19.551,9.773 19.467,9.809 19.382,9.845 19.23,9.761 19.412,9.665 19.547,9.594 19.682,9.557 19.803,9.614 19.923,9.671 20.068,9.651 20.159,9.606 20.253,9.561 20.344,9.475 20.062,9.421 19.78,9.367 19.351,9.198 19.185,9.048 19.021,8.899 18.842,8.869 18.698,8.897 18.554,8.926 18.435,8.945 18.185,8.789 17.935,8.633 17.608,8.478 17.38,8.16 17.156,7.852 17.135,8.049 16.993,8.204 Z"
     id="path8"
     inkscape:connector-curvature="0"
     style="fill:#008000" />
  <path
     d="m 16.152,10.017 c -0.165,-0.02 -0.299,0.057 -0.213,0.17 0.085,0.113 0.129,0.042 0.236,-0.011 0.107,-0.054 0.207,-0.133 -0.023,-0.159 z m 0.455,0.36 c -0.151,0.073 -0.297,0.16 -0.344,0.314 -0.048,0.154 -0.042,0.29 0.101,0.253 0.216,-0.056 0.23,-0.311 0.388,-0.34 -0.052,-0.076 -0.067,-0.178 -0.145,-0.227 z m 0.265,-0.134 c 0.014,0.063 0.035,0.165 0.087,0.215 0.139,-0.067 0.493,-0.202 0.627,-0.231 0.011,-0.096 -0.016,-0.159 -0.043,-0.21 -0.191,0.018 -0.47,0.087 -0.671,0.226 z m 1.191,0.601 c 0.002,0.094 0.042,0.331 0.061,0.425 0.086,0.041 0.197,0.072 0.283,0.096 0.057,-0.112 0.071,-0.274 0.069,-0.376 -0.156,-0.099 -0.295,-0.206 -0.413,-0.145 z m -0.303,0.135 c 0.01,0.076 0.013,0.187 0.023,0.255 -0.111,0.002 -0.288,0.066 -0.398,0.102 -0.11,0.037 -0.242,-0.165 -0.048,-0.245 0.194,-0.081 0.321,-0.101 0.423,-0.112 z m -2.723,0.766 c 0.201,-0.107 0.306,-0.04 0.491,-0.096 0.087,0.083 0.191,0.183 0.261,0.283 -0.107,0.181 -0.433,0.061 -0.542,0.14 -0.086,-0.092 -0.148,-0.184 -0.21,-0.327 z m 0.821,-0.206 c 0.053,0.11 0.107,0.202 0.15,0.252 0.153,0.014 0.211,-0.072 0.277,-0.176 0.066,-0.104 0.063,-0.231 -0.107,-0.219 -0.17,0.013 -0.263,0.049 -0.32,0.143 z M 14.531,13.5 c 0.045,0.109 0.173,0.149 0.209,0.234 0.142,-0.088 0.211,-0.081 0.331,-0.058 0.12,0.022 0.441,-0.087 0.624,-0.278 0.183,-0.191 0.064,-0.171 -0.148,-0.141 -0.212,0.03 -0.373,0.068 -0.518,0.037 -0.146,-0.031 -0.366,0.033 -0.498,0.206 z m 1.878,-0.892 c -0.101,0.062 -0.151,0.105 -0.072,0.197 0.079,0.092 0.12,0.049 0.213,-0.005 0.093,-0.053 0.134,-0.13 0.081,-0.198 -0.054,-0.065 -0.122,-0.055 -0.222,0.006 z m 0.498,-0.157 c -0.102,0.002 -0.094,0.066 -0.08,0.116 0.014,0.051 0.027,0.082 0.11,0.081 0.083,-0.002 0.095,-0.021 0.068,-0.104 -0.027,-0.082 -0.034,-0.095 -0.098,-0.093 z m 0.308,0.088 c 0.003,0.116 -0.017,0.109 0.098,0.126 0.115,0.017 0.154,0.01 0.157,-0.099 0.004,-0.108 0.009,-0.147 -0.125,-0.151 -0.132,-0.003 -0.131,0.041 -0.13,0.124 z m 0.475,0.092 c -0.033,0.092 -0.08,0.168 0.062,0.222 0.141,0.055 0.147,0.016 0.189,-0.106 0.042,-0.122 0.047,-0.18 -0.062,-0.21 -0.109,-0.029 -0.147,-0.022 -0.189,0.094 z m 0.505,0.034 c -0.005,0.051 -0.047,0.192 -0.065,0.238 0.058,0.024 0.135,0.054 0.194,0.091 0.058,0.037 0.139,-0.067 0.111,-0.162 -0.028,-0.095 -0.133,-0.246 -0.24,-0.167 z m 0.598,-1.526 c -0.018,0.064 -0.077,0.276 -0.101,0.334 0.167,0.041 0.295,0.064 0.41,0.055 0.115,-0.009 0.299,-0.044 0.389,-0.028 0.089,0.017 0.138,-0.073 -0.011,-0.185 -0.149,-0.111 -0.239,-0.128 -0.335,-0.127 -0.095,0.003 -0.258,-0.114 -0.352,-0.049 z m 0.636,0.79 c -0.114,-0.018 -0.177,0.074 -0.098,0.136 0.078,0.062 0.179,0.034 0.19,-0.023 0.012,-0.057 0.017,-0.096 -0.092,-0.113 z m 0.256,-0.031 c 0.007,0.057 0.022,0.159 0.023,0.204 0.085,0.081 0.173,-0.004 0.264,0.077 0.091,0.081 0.158,-0.003 0.176,-0.087 0.018,-0.083 0.029,-0.128 -0.047,-0.126 -0.167,0.003 -0.278,-0.141 -0.416,-0.068 z M 17.874,9.934 c 0.02,0.044 0.073,0.145 0.075,0.196 0.077,0.049 0.258,0.102 0.307,0.012 C 18.305,10.051 18.323,10.013 18.239,9.97 18.154,9.928 17.972,9.772 17.874,9.934 Z m 0.686,0.158 c -0.055,0.062 -0.011,0.096 0.067,0.139 0.078,0.043 0.134,-0.028 0.126,-0.086 C 18.745,10.087 18.641,10 18.56,10.092 Z m -2.52,4.345 c 0.058,0.052 0.105,0.126 0.09,0.21 -0.015,0.086 0.037,0.119 0.097,0.144 0.06,0.023 0.217,0.171 0.247,0.011 0.031,-0.163 -0.103,-0.415 -0.197,-0.43 -0.093,-0.016 -0.136,-0.015 -0.18,-0.065 -0.044,-0.05 -0.17,0.03 -0.057,0.13 z m 5.245,-0.675 c -0.04,0.145 -0.196,0.462 -0.296,0.525 -0.153,-0.073 -0.436,-0.136 -0.463,-0.22 0.056,-0.154 0.111,-0.283 0.154,-0.377 0.175,-0.038 0.456,-0.053 0.605,0.072 z m -0.959,-0.218 c -0.004,0.111 -0.069,0.359 -0.1,0.445 -0.178,0.021 -0.605,-0.063 -0.749,-0.009 0.006,-0.119 0.002,-0.273 0.035,-0.351 0.272,-0.005 0.523,-0.181 0.814,-0.085 z"
     id="path10"
     inkscape:connector-curvature="0"
     style="fill:#eeeeee" />
</svg>
