<?xml version="1.0" encoding="UTF-8" standalone="no"?>
<svg
   xmlns:dc="http://purl.org/dc/elements/1.1/"
   xmlns:cc="http://creativecommons.org/ns#"
   xmlns:rdf="http://www.w3.org/1999/02/22-rdf-syntax-ns#"
   xmlns:svg="http://www.w3.org/2000/svg"
   xmlns="http://www.w3.org/2000/svg"
   xmlns:sodipodi="http://sodipodi.sourceforge.net/DTD/sodipodi-0.dtd"
   xmlns:inkscape="http://www.inkscape.org/namespaces/inkscape"
   viewBox="0 0 36 26"
   id="svg2"
   version="1.1"
   inkscape:version="0.91 r13725"
   sodipodi:docname="1f1f7-1f1f8.svg"
   width="36"
   height="26">
  <metadata
     id="metadata36">
    <rdf:RDF>
      <cc:Work
         rdf:about="">
        <dc:format>image/svg+xml</dc:format>
        <dc:type
           rdf:resource="http://purl.org/dc/dcmitype/StillImage" />
      </cc:Work>
    </rdf:RDF>
  </metadata>
  <defs
     id="defs34" />
  <sodipodi:namedview
     pagecolor="#ffffff"
     bordercolor="#666666"
     borderopacity="1"
     objecttolerance="10"
     gridtolerance="10"
     guidetolerance="10"
     inkscape:pageopacity="0"
     inkscape:pageshadow="2"
     inkscape:window-width="640"
     inkscape:window-height="480"
     id="namedview32"
     showgrid="false"
     inkscape:zoom="6.5555556"
     inkscape:cx="18"
     inkscape:cy="13"
     inkscape:window-x="0"
     inkscape:window-y="0"
     inkscape:window-maximized="0"
     inkscape:current-layer="svg2" />
  <path
     d="M 0,8 36,8 36,18 0,18 Z"
     id="path4"
     inkscape:connector-curvature="0"
     style="fill:#0c4076" />
  <path
     d="m 0,22 c 0,2.209 1.791,4 4,4 l 28,0 c 2.209,0 4,-1.791 4,-4 l 0,-4 -36,0 0,4 z"
     id="path6"
     inkscape:connector-curvature="0"
     style="fill:#eeeeee" />
  <path
     d="M 36,4 C 36,1.791 34.209,0 32,0 L 4,0 C 1.791,0 0,1.791 0,4 L 0,8 36,8 36,4 Z M 7,8 7,17.5 C 7,20.537 9.462,23 12.5,23 15.538,23 18,20.537 18,17.5 L 18,8 7,8 Z"
     id="path8"
     inkscape:connector-curvature="0"
     style="fill:#c6363c" />
  <path
     d="m 12.5,2.062 c -3.938,0 -5.172,1.672 -4.844,2.297 0.328,0.625 1.312,2.234 1.312,2.234 0,0 -0.312,0.125 0,0.75 0.312,0.625 1.531,0.203 3.531,0.203 2,0 3.219,0.422 3.531,-0.203 0.312,-0.625 0,-0.75 0,-0.75 0,0 0.984,-1.609 1.313,-2.234 C 17.672,3.734 16.438,2.062 12.5,2.062 Z M 9.062,5.031 c -0.283,0.088 0,0.953 -0.1,0.579 -0.082,-0.309 -0.4,-0.438 -0.4,-0.266 0,0.172 -0.125,0 -0.094,-0.312 C 8.499,4.719 8.406,4.532 8.218,4.266 8.031,4 8.031,3.766 8.266,3.609 8.5,3.453 9.016,3.328 9.016,3.328 c 0,0 0.203,0.891 0.312,1.094 0.109,0.203 0.312,0.336 0.312,0.336 0,0 -0.094,0.148 0,0.226 C 9.734,5.062 9.843,5.25 9.843,5.25 9.843,5.25 9.5,4.969 9.438,5.031 9.376,5.093 9.516,5.172 9.5,5.281 9.484,5.391 9.312,4.953 9.062,5.031 Z M 12.25,5.047 C 12.172,5.125 12.109,4.984 11.953,4.875 11.797,4.766 11.703,4.829 11.734,4.954 c 0.031,0.125 -0.188,0.109 -0.188,0.297 0,0.188 -0.203,0.109 -0.203,0.109 0,0 0.25,-0.656 -0.172,-0.641 -0.239,0.009 -0.156,0.5 0,0.672 -0.069,-0.105 -0.266,-0.109 -0.43,-0.234 -0.164,-0.125 0.023,-0.329 -0.102,-0.282 -0.125,0.047 -0.203,0.25 -0.328,0.297 -0.125,0.047 -0.062,-0.142 0,-0.297 0.062,-0.156 -0.072,-0.234 -0.072,-0.234 0,0 0.01,-0.109 0.104,-0.172 0.094,-0.062 0.125,-0.172 0,-0.297 C 10.218,4.047 9.766,3.344 9.906,3.109 c 0.141,-0.234 0.609,-0.5 1.922,-0.469 0.234,1.078 -0.125,1.609 -0.125,1.609 0,0 0.266,0.172 0.344,0.266 -0.188,0.079 -0.047,0.157 0.078,0.266 0.125,0.11 0.203,0.188 0.125,0.266 z m 2.438,-0.172 c 0.062,0.156 0.125,0.344 0,0.297 -0.125,-0.047 -0.203,-0.25 -0.328,-0.297 -0.125,-0.047 0.062,0.157 -0.102,0.282 -0.164,0.125 -0.36,0.129 -0.43,0.234 0.156,-0.172 0.239,-0.663 0,-0.672 -0.422,-0.016 -0.172,0.641 -0.172,0.641 0,0 -0.203,0.078 -0.203,-0.109 0,-0.187 -0.219,-0.172 -0.188,-0.297 0.031,-0.125 -0.062,-0.188 -0.219,-0.079 -0.156,0.109 -0.219,0.25 -0.297,0.172 -0.078,-0.078 0,-0.156 0.125,-0.266 C 13,4.672 13.141,4.594 12.953,4.516 13.031,4.422 13.297,4.25 13.297,4.25 c 0,0 -0.359,-0.531 -0.125,-1.609 1.312,-0.031 1.781,0.234 1.922,0.469 0.141,0.234 -0.312,0.938 -0.438,1.062 -0.126,0.124 -0.094,0.234 0,0.297 0.094,0.062 0.104,0.172 0.104,0.172 0,0 -0.135,0.078 -0.072,0.234 z m 2.093,-0.609 c -0.188,0.266 -0.281,0.453 -0.25,0.766 0.031,0.312 -0.094,0.484 -0.094,0.312 0,-0.172 -0.318,-0.042 -0.4,0.266 -0.1,0.374 0.183,-0.49 -0.1,-0.579 -0.25,-0.078 -0.578,0.672 -0.5,0.594 C 15.515,5.547 15.625,5.094 15.562,5.031 15.5,4.968 15.156,5.25 15.156,5.25 c 0,0 0.109,-0.188 0.203,-0.266 0.094,-0.078 0,-0.226 0,-0.226 0,0 0.203,-0.133 0.312,-0.336 0.109,-0.203 0.312,-1.094 0.312,-1.094 0,0 0.516,0.125 0.75,0.281 0.234,0.156 0.236,0.391 0.048,0.657 z"
     id="path10"
     inkscape:connector-curvature="0"
     style="fill:#edb92e" />
  <path
     d="m 12.609,2.242 c 0,0.099 -0.081,0.18 -0.18,0.18 -0.099,0 -0.18,-0.081 -0.18,-0.18 l 0,-1.578 c 0,-0.099 0.081,-0.18 0.18,-0.18 0.099,0 0.18,0.081 0.18,0.18 l 0,1.578 z"
     id="path12"
     inkscape:connector-curvature="0"
     style="fill:#ffac33" />
  <path
     d="m 12.969,1.086 c 0,0.091 -0.073,0.164 -0.164,0.164 l -0.781,0 c -0.091,0 -0.164,-0.073 -0.164,-0.164 0,-0.091 0.073,-0.164 0.164,-0.164 l 0.781,0 c 0.091,0 0.164,0.073 0.164,0.164 z"
     id="path14"
     inkscape:connector-curvature="0"
     style="fill:#edb92e" />
  <path
     d="m 13.016,2.062 c 0,0.332 -0.269,0.602 -0.602,0.602 -0.332,0 -0.602,-0.27 -0.602,-0.602 0,-0.332 0.269,-0.602 0.602,-0.602 0.332,0.001 0.602,0.27 0.602,0.602 z M 9.604,7.276 c 0,0.147 -0.169,0.266 -0.378,0.266 -0.209,0 -0.378,-0.119 -0.378,-0.266 0,-0.146 0.169,-0.265 0.378,-0.265 0.209,0 0.378,0.118 0.378,0.265 z"
     id="path16"
     inkscape:connector-curvature="0"
     style="fill:#0c4076" />
  <path
     d="m 11.125,7.185 c 0,0.147 -0.169,0.266 -0.378,0.266 -0.209,0 -0.378,-0.119 -0.378,-0.266 0,-0.146 0.169,-0.265 0.378,-0.265 0.208,0 0.378,0.119 0.378,0.265 z m 3.375,0 c 0,0.147 -0.169,0.266 -0.378,0.266 -0.209,0 -0.378,-0.119 -0.378,-0.266 0,-0.146 0.169,-0.265 0.378,-0.265 0.208,0 0.378,0.119 0.378,0.265 z"
     id="path18"
     inkscape:connector-curvature="0"
     style="fill:#c6363c" />
  <path
     d="m 16.062,7.276 c 0,0.147 -0.169,0.266 -0.378,0.266 -0.209,0 -0.378,-0.119 -0.378,-0.266 0,-0.146 0.169,-0.265 0.378,-0.265 0.209,0 0.378,0.118 0.378,0.265 z m -3.254,-0.11 c 0,0.147 -0.169,0.266 -0.378,0.266 -0.209,0 -0.378,-0.119 -0.378,-0.266 0,-0.147 0.169,-0.265 0.378,-0.265 0.209,0 0.378,0.118 0.378,0.265 z"
     id="path20"
     inkscape:connector-curvature="0"
     style="fill:#0c4076" />
  <path
     d="M 10.286,17.562 C 9.944,18.338 9.908,18.72 9.503,18.693 9.097,18.666 8.811,18.597 8.811,18.761 c 0,0.163 0.645,0.095 0.645,0.095 0,0 -0.609,0.26 -0.489,0.559 0.119,0.3 0.645,-0.381 0.645,-0.381 0,0 0.107,0.027 0.31,-0.137 0.203,-0.163 0.74,-0.953 0.74,-0.953 l -0.376,-0.382 z m 4.412,0 c 0.342,0.776 0.378,1.158 0.783,1.131 0.406,-0.027 0.692,-0.096 0.692,0.068 0,0.163 -0.644,0.095 -0.644,0.095 0,0 0.609,0.26 0.489,0.559 -0.119,0.3 -0.645,-0.381 -0.645,-0.381 0,0 -0.107,0.027 -0.31,-0.137 -0.203,-0.163 -0.74,-0.953 -0.74,-0.953 l 0.375,-0.382 z"
     id="path22"
     inkscape:connector-curvature="0"
     style="fill:#edb92e" />
  <path
     d="m 17.114,10.688 c -0.176,-1.208 -1.313,-0.833 -1.796,0 -0.483,0.833 -0.9,1.333 -1.347,0.75 -0.447,-0.583 -0.742,-1.208 -0.096,-2 L 14.521,8.646 C 14.429,8.167 14.042,8.271 13.488,8.5 c -0.554,0.229 -0.904,0.125 -0.849,0.375 0.056,0.25 0.258,0.271 0.258,0.271 0,0 -0.349,0.34 -0.441,1.513 -0.092,-1.173 -0.441,-1.513 -0.441,-1.513 0,0 0.203,-0.021 0.258,-0.271 C 12.328,8.625 11.978,8.729 11.424,8.5 10.87,8.271 10.483,8.167 10.391,8.646 l 0.646,0.792 c 0.646,0.792 0.351,1.417 -0.096,2 -0.446,0.583 -0.864,0.146 -1.347,-0.688 -0.483,-0.833 -1.621,-1.208 -1.796,0 -0.176,1.208 0.028,3.312 0.028,3.312 0,0 -0.111,1.146 0.111,2.125 0.221,0.979 0.351,1.854 0,2.604 0.387,-0.104 0.627,-0.604 0.627,-0.604 0,0 -0.129,0.604 0.111,0.542 0.24,-0.062 0.295,-0.521 0.479,-0.688 0.185,-0.166 0.333,-0.541 0.333,-0.541 0,0 0.388,-0.146 0,0.5 0.314,0.021 0.517,-0.188 0.517,-0.188 l 0.11,0.584 0.185,-0.312 0.092,0.562 0.332,-0.542 0.218,0.25 c 0,0 0.041,-1.062 0.336,-0.854 0.295,0.208 0.313,0.896 0.111,1.312 -0.203,0.416 0,0.584 0,0.584 0,0 -0.295,0.438 -0.446,0.688 -0.151,0.25 0.078,0.541 0.078,0.541 0,0 -0.572,0.854 -0.413,1.188 0.154,0.32 1.107,0.524 1.804,0.539 l 0.006,0.003 0.039,-0.001 0.039,0.001 0.006,-0.003 c 0.697,-0.015 1.65,-0.219 1.804,-0.539 0.16,-0.333 -0.413,-1.188 -0.413,-1.188 0,0 0.228,-0.291 0.078,-0.541 -0.151,-0.25 -0.447,-0.688 -0.447,-0.688 0,0 0.203,-0.168 0,-0.584 -0.202,-0.416 -0.184,-1.104 0.111,-1.312 0.295,-0.208 0.335,0.854 0.335,0.854 l 0.218,-0.25 0.332,0.542 0.092,-0.562 0.185,0.312 0.11,-0.584 c 0,0 0.203,0.208 0.517,0.188 -0.388,-0.646 0,-0.5 0,-0.5 0,0 0.148,0.375 0.332,0.542 0.184,0.167 0.24,0.625 0.48,0.688 0.24,0.062 0.111,-0.542 0.111,-0.542 0,0 0.24,0.5 0.627,0.604 -0.35,-0.75 -0.221,-1.626 0,-2.604 0.222,-0.979 0.111,-2.125 0.111,-2.125 0,0 0.206,-2.167 0.03,-3.375 z"
     id="path24"
     inkscape:connector-curvature="0"
     style="fill:#ffffff" />
  <path
     d="M 11.891,9.312 C 11.451,8.89 10.353,8.343 9.989,8.421 9.625,8.5 9.333,8.75 9.604,9.141 c 0.271,0.391 0.385,0.375 0.385,0.375 0,0 0.433,-0.391 0.621,-0.172 0.188,0.219 0.031,0.297 -0.312,0.328 C 9.954,9.703 9.605,9.469 9.605,9.469 c 0,0 0.113,0.406 0.59,0.453 0.321,0.312 0.726,0.078 0.93,0.078 0.204,0 1.156,-0.312 0.766,-0.688 z m 1.131,0 c 0.44,-0.422 1.538,-0.969 1.902,-0.891 0.364,0.078 0.656,0.328 0.385,0.719 -0.271,0.391 -0.385,0.375 -0.385,0.375 0,0 -0.433,-0.391 -0.621,-0.172 -0.188,0.219 -0.031,0.297 0.312,0.328 0.344,0.031 0.693,-0.203 0.693,-0.203 0,0 -0.113,0.406 -0.59,0.453 C 14.397,10.234 13.992,10 13.788,10 13.584,10 12.631,9.688 13.022,9.312 Z M 9.969,20.199 C 10.106,19.883 10.01,19.838 9.9,19.728 9.789,19.619 9.734,19.466 9.734,19.466 c 0,0 -0.055,0.152 -0.166,0.262 -0.111,0.109 -0.207,0.154 -0.07,0.471 -0.333,-0.197 -0.388,0.164 -0.235,0.383 0.043,-0.197 0.305,-0.152 0.305,0.088 0,0.24 -0.217,0.131 -0.191,0.229 0.027,0.099 0.225,0.306 0.356,0.306 0.131,0 0.33,-0.207 0.356,-0.306 0.027,-0.099 -0.19,0.011 -0.19,-0.229 0,-0.24 0.261,-0.285 0.305,-0.088 0.154,-0.219 0.099,-0.58 -0.235,-0.383 z m 5.438,0 c 0.137,-0.316 0.041,-0.361 -0.07,-0.471 -0.111,-0.109 -0.166,-0.262 -0.166,-0.262 0,0 -0.055,0.152 -0.166,0.262 -0.111,0.109 -0.207,0.154 -0.07,0.471 -0.333,-0.197 -0.388,0.164 -0.235,0.383 0.043,-0.197 0.305,-0.152 0.305,0.088 0,0.24 -0.217,0.131 -0.19,0.229 0.026,0.099 0.225,0.306 0.356,0.306 0.131,0 0.33,-0.207 0.356,-0.306 0.027,-0.099 -0.19,0.011 -0.19,-0.229 0,-0.24 0.261,-0.285 0.305,-0.088 0.153,-0.219 0.099,-0.58 -0.235,-0.383 z"
     id="path26"
     inkscape:connector-curvature="0"
     style="fill:#edb92e" />
  <path
     d="m 10.244,11.875 0,3.859 c 0,1.233 1,2.234 2.234,2.234 1.234,0 2.234,-1.001 2.234,-2.234 l 0,-3.859 -4.468,0 z"
     id="path28"
     inkscape:connector-curvature="0"
     style="fill:#c6363c" />
  <path
     d="m 14.712,14.172 -1.752,0 0,-2.297 -0.962,0 0,2.297 -1.753,0 0,0.963 1.753,0 0,2.779 c 0.155,0.034 0.315,0.055 0.481,0.055 0.166,0 0.326,-0.021 0.482,-0.055 l 0,-2.779 1.753,0 0,-0.963 z"
     id="path30"
     inkscape:connector-curvature="0"
     style="fill:#eeeeee" />
</svg>
