<?xml version="1.0" encoding="UTF-8" standalone="no"?>
<svg
   xmlns:dc="http://purl.org/dc/elements/1.1/"
   xmlns:cc="http://creativecommons.org/ns#"
   xmlns:rdf="http://www.w3.org/1999/02/22-rdf-syntax-ns#"
   xmlns:svg="http://www.w3.org/2000/svg"
   xmlns="http://www.w3.org/2000/svg"
   xmlns:sodipodi="http://sodipodi.sourceforge.net/DTD/sodipodi-0.dtd"
   xmlns:inkscape="http://www.inkscape.org/namespaces/inkscape"
   viewBox="0 0 36 26"
   id="svg2"
   version="1.1"
   inkscape:version="0.91 r13725"
   sodipodi:docname="1f1f2-1f1f4.svg"
   width="36"
   height="26">
  <metadata
     id="metadata18">
    <rdf:RDF>
      <cc:Work
         rdf:about="">
        <dc:format>image/svg+xml</dc:format>
        <dc:type
           rdf:resource="http://purl.org/dc/dcmitype/StillImage" />
      </cc:Work>
    </rdf:RDF>
  </metadata>
  <defs
     id="defs16" />
  <sodipodi:namedview
     pagecolor="#ffffff"
     bordercolor="#666666"
     borderopacity="1"
     objecttolerance="10"
     gridtolerance="10"
     guidetolerance="10"
     inkscape:pageopacity="0"
     inkscape:pageshadow="2"
     inkscape:window-width="640"
     inkscape:window-height="480"
     id="namedview14"
     showgrid="false"
     inkscape:zoom="6.5555556"
     inkscape:cx="18"
     inkscape:cy="13"
     inkscape:window-x="0"
     inkscape:window-y="0"
     inkscape:window-maximized="0"
     inkscape:current-layer="svg2" />
  <path
     d="m 36,22 c 0,2.209 -1.791,4 -4,4 L 4,26 C 1.791,26 0,24.209 0,22 L 0,4 C 0,1.791 1.791,0 4,0 l 28,0 c 2.209,0 4,1.791 4,4 l 0,18 z"
     id="path4"
     inkscape:connector-curvature="0"
     style="fill:#00785e" />
  <g
     id="g6"
     style="clip-rule:evenodd;fill-rule:evenodd"
     transform="translate(0,-5)">
    <path
       d="m 17.976,8.567 c 0.181,0.347 0.279,0.775 0.407,1.174 l 1.272,0 c -0.328,0.256 -0.678,0.489 -1.008,0.743 0.094,0.41 0.248,0.759 0.36,1.15 -0.068,0.027 -0.164,-0.064 -0.24,-0.119 -0.22,-0.163 -0.513,-0.383 -0.742,-0.552 -0.373,0.186 -0.713,0.533 -1.031,0.695 0.101,-0.402 0.257,-0.749 0.36,-1.151 -0.307,-0.277 -0.657,-0.51 -1.007,-0.743 0.367,-0.056 0.839,-0.008 1.246,-0.023 0.143,-0.375 0.278,-0.76 0.383,-1.174 z m -5.441,3.404 c 0.246,-0.147 0.466,-0.317 0.695,-0.479 -0.104,-0.247 -0.149,-0.554 -0.264,-0.791 0.221,0.075 0.458,0.341 0.695,0.479 0.247,-0.144 0.469,-0.314 0.695,-0.479 -0.019,0.229 -0.18,0.523 -0.239,0.791 0.184,0.214 0.439,0.358 0.67,0.527 -0.241,0.058 -0.589,0.014 -0.838,0 -0.124,0.243 -0.21,0.525 -0.288,0.815 -0.126,-0.233 -0.192,-0.527 -0.264,-0.815 l -0.647,0 c -0.017,-0.07 -0.196,0.021 -0.215,-0.048 z m 10.714,0.048 -0.623,0 c -0.103,0.257 -0.168,0.551 -0.264,0.815 -0.109,-0.259 -0.193,-0.543 -0.289,-0.815 -0.27,0.024 -0.561,0.029 -0.862,0.024 0.208,-0.192 0.464,-0.335 0.671,-0.527 -0.066,-0.293 -0.178,-0.541 -0.264,-0.815 0.243,0.149 0.465,0.319 0.695,0.479 0.271,-0.138 0.46,-0.356 0.719,-0.503 -0.104,0.246 -0.148,0.554 -0.264,0.79 0.202,0.198 0.454,0.346 0.695,0.504 -0.018,0.069 -0.196,-0.022 -0.214,0.048 z M 11.266,13.48 c 0.117,0.226 0.118,0.568 0.191,0.839 0.301,0.019 0.569,0.069 0.862,0.096 -0.241,0.142 -0.48,0.286 -0.742,0.407 0.016,0.304 0.095,0.545 0.144,0.815 -0.07,0.016 -0.21,-0.121 -0.312,-0.216 -0.112,-0.104 -0.213,-0.236 -0.311,-0.311 -0.27,0.122 -0.498,0.284 -0.767,0.407 0.12,-0.248 0.219,-0.516 0.359,-0.743 -0.169,-0.239 -0.4,-0.414 -0.623,-0.599 0.251,-0.043 0.571,0.051 0.839,0.072 0.138,-0.237 0.254,-0.496 0.36,-0.767 z m 13.804,0.767 c 0.288,-0.031 0.559,-0.081 0.863,-0.096 -0.204,0.206 -0.435,0.381 -0.625,0.6 0.129,0.24 0.229,0.507 0.361,0.743 -0.229,-0.052 -0.505,-0.263 -0.744,-0.383 -0.232,0.15 -0.441,0.453 -0.646,0.551 0.042,-0.277 0.122,-0.517 0.144,-0.814 -0.236,-0.148 -0.476,-0.292 -0.743,-0.408 0.243,-0.077 0.558,-0.081 0.839,-0.119 0.105,-0.237 0.107,-0.58 0.192,-0.839 0.133,0.241 0.248,0.501 0.359,0.765 z"
       id="path8"
       inkscape:connector-curvature="0"
       style="fill:#fbd116" />
    <path
       d="m 21.427,23.211 c -1.558,-0.08 -2.548,-0.728 -3.451,-1.463 -0.844,0.776 -1.874,1.368 -3.402,1.463 l -4.506,0 c 0.005,0.019 0,0.047 0.023,0.047 0.104,0.16 0.209,0.318 0.336,0.455 1.401,0.096 3.067,0.049 4.481,0.025 1.357,-0.082 2.26,-0.617 3.092,-1.223 0.829,0.608 1.735,1.14 3.091,1.223 1.441,0.023 3.107,0.07 4.482,-0.025 0.121,-0.145 0.232,-0.295 0.336,-0.455 0.007,0.003 0.019,-0.004 0.025,0 -0.176,-0.107 -0.718,-0.047 -1.008,-0.047 l -3.499,0 z m 3.594,1.149 c 0.042,0.007 0.084,-0.093 0,-0.071 -4.689,0.031 -9.494,-0.064 -14.092,0.048 0.024,0 0.028,0.019 0.048,0.023 0.062,0.07 0.145,0.189 0.24,0.216 0.189,0.052 0.532,0 0.838,0 l 12.774,0 c 0.051,-0.087 0.143,-0.129 0.192,-0.216 z m -0.862,0.839 c 0.024,10e-4 0.028,-0.018 0.048,-0.024 0.002,-0.029 0.03,-0.032 0.023,-0.071 -3.994,0.078 -8.175,-0.106 -12.15,0 -0.068,0.002 -0.271,-0.068 -0.288,0.071 0.024,0 0.029,0.02 0.048,0.024 0.147,0.109 0.29,0.223 0.432,0.335 3.764,0.041 7.693,0.041 11.456,0 0.142,-0.112 0.286,-0.225 0.431,-0.335 z m -1.101,0.79 c 0.063,-0.046 0.056,-0.033 0,-0.047 -0.332,-0.078 -0.844,0 -1.271,0 l -8.34,0 c -0.155,0 -0.605,-0.032 -0.503,0.047 0.281,0.175 0.572,0.339 0.887,0.48 2.724,0.039 5.616,0.039 8.339,0 0.314,-0.141 0.606,-0.304 0.888,-0.48 z m -1.582,0.793 0.047,0 c -0.001,-0.041 -0.009,-0.044 -0.047,-0.049 -0.526,-0.077 -1.158,0 -1.75,0 -1.762,0 -3.616,-0.039 -5.249,0.049 l 0.049,0 c 0.861,0.318 1.788,0.575 2.924,0.622 0.096,0.056 0.295,0.009 0.431,0.024 l 0.24,0 c 0.136,-0.016 0.335,0.031 0.431,-0.024 1.13,-0.051 2.062,-0.3 2.924,-0.622 z"
       id="path10"
       inkscape:connector-curvature="0"
       style="fill:#ffffff" />
    <path
       d="m 15.915,16.644 c 0.046,1.144 0.355,2.025 0.839,2.732 -0.385,-0.855 -0.726,-1.797 -0.623,-3.02 0.133,-1.597 0.953,-2.864 1.894,-3.618 0.887,0.799 1.696,2.014 1.845,3.595 0.123,1.316 -0.277,2.358 -0.743,3.211 0.521,-0.669 0.916,-1.671 0.959,-2.9 0.04,-0.041 0.04,-0.247 0,-0.288 -0.031,-0.839 -0.218,-1.525 -0.503,-2.109 0.151,-0.303 0.396,-0.515 0.478,-0.886 0.38,0.602 0.625,1.34 0.695,2.253 l 0,0.743 c -0.067,1.131 -0.45,1.947 -0.91,2.684 -0.021,0.003 -0.074,0.079 -0.024,0.072 0.049,-0.087 0.142,-0.129 0.192,-0.216 1.035,-0.881 2.253,-1.581 4.098,-1.653 l 0.432,0 c 0.045,0.072 -0.116,0.163 -0.192,0.264 -0.082,0.108 -0.141,0.252 -0.216,0.336 -2.006,0.039 -3.316,0.774 -4.361,1.772 0.789,-0.543 1.871,-1.156 3.14,-1.269 1.213,-0.108 2.265,0.079 3.163,0.455 -0.255,0.688 -0.616,1.269 -1.078,1.75 -0.114,0.095 -0.218,0.198 -0.312,0.311 -0.826,0.748 -1.83,1.316 -3.307,1.414 l -0.575,0 c 0,0.023 0.029,0.018 0.048,0.023 0.1,0.062 0.272,0.048 0.431,0.049 0.113,0.039 0.392,0.039 0.504,0 1.606,-0.062 2.612,-0.727 3.522,-1.486 0.126,0.09 0.692,0.066 0.576,0.192 -0.13,0.109 -0.249,0.229 -0.359,0.359 -0.848,0.742 -1.877,1.302 -3.38,1.39 l -0.504,0 C 20.127,22.716 19.092,22.146 18.242,21.39 18.161,21.304 18.1,21.198 17.978,21.151 c -0.058,0.094 -0.157,0.146 -0.215,0.239 -0.851,0.756 -1.887,1.325 -3.403,1.414 l -0.503,0 C 12.34,22.713 11.299,22.15 10.454,21.39 10.351,21.268 10.24,21.157 10.118,21.055 c 0.013,-0.034 -0.094,-0.06 -0.024,-0.072 0.21,-0.022 0.408,-0.056 0.576,-0.12 0.937,0.74 1.925,1.43 3.547,1.486 0.111,0.039 0.391,0.039 0.503,0 0.158,-0.001 0.333,0.013 0.431,-0.049 l 0.048,0 c -0.144,-0.055 -0.391,-0.008 -0.574,-0.023 -1.479,-0.096 -2.481,-0.667 -3.308,-1.414 -0.094,-0.113 -0.198,-0.217 -0.312,-0.311 -0.46,-0.482 -0.827,-1.059 -1.078,-1.75 0.893,-0.377 1.936,-0.556 3.139,-0.455 1.26,0.107 2.345,0.702 3.116,1.246 0.046,0.058 0.112,0.096 0.168,0.145 -0.009,-0.08 -0.072,-0.104 -0.12,-0.145 -1.071,-0.956 -2.345,-1.713 -4.339,-1.748 -0.155,-0.179 -0.345,-0.454 -0.455,-0.599 l 0.455,0 c 1.814,0.08 3.045,0.742 4.051,1.629 0.098,0.102 0.175,0.225 0.311,0.287 0.018,-0.104 -0.047,0.019 -0.048,-0.047 C 16.18,19.06 16.15,19.009 16.109,18.971 15.674,18.248 15.31,17.453 15.246,16.359 l 0,-0.743 c 0.061,-0.916 0.331,-1.619 0.672,-2.253 0.126,0.328 0.316,0.595 0.503,0.863 -0.24,0.526 -0.42,1.113 -0.479,1.821 -0.055,0.034 -0.009,0.168 -0.024,0.24 l 0,0.071 c -0.043,0.039 -0.043,0.245 -0.003,0.286 z m 0.839,2.732 c 0.019,0.085 0.061,0.146 0.12,0.191 -0.019,-0.085 -0.062,-0.145 -0.12,-0.191 z"
       id="path12"
       inkscape:connector-curvature="0"
       style="fill:#ffffff" />
  </g>
</svg>
