<?xml version="1.0" encoding="UTF-8" standalone="no"?>
<svg
   xmlns:dc="http://purl.org/dc/elements/1.1/"
   xmlns:cc="http://creativecommons.org/ns#"
   xmlns:rdf="http://www.w3.org/1999/02/22-rdf-syntax-ns#"
   xmlns:svg="http://www.w3.org/2000/svg"
   xmlns="http://www.w3.org/2000/svg"
   xmlns:sodipodi="http://sodipodi.sourceforge.net/DTD/sodipodi-0.dtd"
   xmlns:inkscape="http://www.inkscape.org/namespaces/inkscape"
   viewBox="0 0 36 36"
   id="svg2"
   version="1.1"
   inkscape:version="0.91 r13725"
   sodipodi:docname="1f1f8.svg"
   width="36"
   height="36">
  <metadata
     id="metadata12">
    <rdf:RDF>
      <cc:Work
         rdf:about="">
        <dc:format>image/svg+xml</dc:format>
        <dc:type
           rdf:resource="http://purl.org/dc/dcmitype/StillImage" />
      </cc:Work>
    </rdf:RDF>
  </metadata>
  <defs
     id="defs10" />
  <sodipodi:namedview
     pagecolor="#ffffff"
     bordercolor="#666666"
     borderopacity="1"
     objecttolerance="10"
     gridtolerance="10"
     guidetolerance="10"
     inkscape:pageopacity="0"
     inkscape:pageshadow="2"
     inkscape:window-width="640"
     inkscape:window-height="480"
     id="namedview8"
     showgrid="false"
     inkscape:zoom="6.5555556"
     inkscape:cx="18"
     inkscape:cy="18"
     inkscape:window-x="0"
     inkscape:window-y="0"
     inkscape:window-maximized="0"
     inkscape:current-layer="svg2" />
  <path
     d="m 36,32 c 0,2.209 -1.791,4 -4,4 L 4,36 C 1.791,36 0,34.209 0,32 L 0,4 C 0,1.791 1.791,0 4,0 l 28,0 c 2.209,0 4,1.791 4,4 l 0,28 z"
     id="path4"
     inkscape:connector-curvature="0"
     style="fill:#3b88c3" />
  <path
     d="m 24.125,9.652 c 0,1.209 -0.806,2.294 -2.076,2.294 -1.271,0 -2.264,-0.93 -4.125,-0.93 -1.333,0 -2.542,0.713 -2.542,2.016 0,3.193 10.357,1.147 10.357,9.146 0,4.434 -3.659,7.193 -7.938,7.193 -2.388,0 -7.534,-0.558 -7.534,-3.473 0,-1.209 0.806,-2.201 2.077,-2.201 1.457,0 3.193,1.209 5.209,1.209 2.046,0 3.163,-1.147 3.163,-2.667 0,-3.658 -10.356,-1.457 -10.356,-8.65 0,-4.341 3.565,-7.038 7.689,-7.038 1.736,10e-4 6.076,0.652 6.076,3.101 z"
     id="path6"
     inkscape:connector-curvature="0"
     style="fill:#ffffff" />
</svg>
