<?xml version="1.0" encoding="UTF-8" standalone="no"?>
<svg
   xmlns:dc="http://purl.org/dc/elements/1.1/"
   xmlns:cc="http://creativecommons.org/ns#"
   xmlns:rdf="http://www.w3.org/1999/02/22-rdf-syntax-ns#"
   xmlns:svg="http://www.w3.org/2000/svg"
   xmlns="http://www.w3.org/2000/svg"
   xmlns:sodipodi="http://sodipodi.sourceforge.net/DTD/sodipodi-0.dtd"
   xmlns:inkscape="http://www.inkscape.org/namespaces/inkscape"
   viewBox="0 0 36 26"
   id="svg2"
   version="1.1"
   inkscape:version="0.91 r13725"
   sodipodi:docname="1f1f2-1f1ea.svg"
   width="36"
   height="26">
  <metadata
     id="metadata24">
    <rdf:RDF>
      <cc:Work
         rdf:about="">
        <dc:format>image/svg+xml</dc:format>
        <dc:type
           rdf:resource="http://purl.org/dc/dcmitype/StillImage" />
      </cc:Work>
    </rdf:RDF>
  </metadata>
  <defs
     id="defs22" />
  <sodipodi:namedview
     pagecolor="#ffffff"
     bordercolor="#666666"
     borderopacity="1"
     objecttolerance="10"
     gridtolerance="10"
     guidetolerance="10"
     inkscape:pageopacity="0"
     inkscape:pageshadow="2"
     inkscape:window-width="640"
     inkscape:window-height="480"
     id="namedview20"
     showgrid="false"
     inkscape:zoom="6.5555556"
     inkscape:cx="18"
     inkscape:cy="13"
     inkscape:window-x="0"
     inkscape:window-y="0"
     inkscape:window-maximized="0"
     inkscape:current-layer="svg2" />
  <path
     d="m 36,22 c 0,2.209 -1.791,4 -4,4 L 4,26 C 1.791,26 0,24.209 0,22 L 0,4 C 0,1.791 1.791,0 4,0 l 28,0 c 2.209,0 4,1.791 4,4 l 0,18 z"
     id="path4"
     inkscape:connector-curvature="0"
     style="fill:#ffcc4d" />
  <path
     d="m 35,22 c 0,1.657 -1.343,3 -3,3 L 4,25 C 2.343,25 1,23.657 1,22 L 1,4 C 1,2.343 2.343,1 4,1 l 28,0 c 1.657,0 3,1.343 3,3 l 0,18 z"
     id="path6"
     inkscape:connector-curvature="0"
     style="fill:#dd2e44" />
  <path
     d="M 22.885,12.401 C 23.489,9.991 21.531,7.859 21.531,7.859 l -0.513,2.501 -1.055,1.39 0.438,0.779 -0.437,0.242 -1.037,-1.437 0.384,-0.869 L 20.647,9.776 19.168,9.287 18.272,10.33 18,11.483 17.658,10.33 16.69,9.287 l -1.388,0.316 1.163,0.776 0.465,0.955 -0.953,1.483 -0.521,-0.289 0.438,-0.779 -1.054,-1.39 -0.513,-2.501 c 0,0 -1.957,2.132 -1.354,4.542 0.604,2.41 3.201,2.747 3.201,2.747 l -1.652,1.117 -0.967,0.078 -0.165,1.062 0.876,0.407 0.77,-0.844 1.918,-0.703 L 15.86,17.858 18,19 20.069,17.859 19,16.351 l 0,-0.062 1.84,0.681 0.761,0.844 0.872,-0.407 -0.168,-1.062 -0.969,-0.078 -1.652,-1.117 c 0,-0.002 2.597,-0.34 3.201,-2.749 z"
     id="path8"
     inkscape:connector-curvature="0"
     style="fill:#ffcc4d" />
  <path
     d="m 18,14.5 0,1.297 c 0,0 -0.181,-0.271 -0.75,-0.438 C 16.5,15.14 16.375,14.5 16.375,14.5 l 1.625,0 z m 0.002,0 0,1.297 c 0,0 0.181,-0.271 0.75,-0.438 0.75,-0.219 0.875,-0.859 0.875,-0.859 l -1.625,0 z"
     id="path10"
     inkscape:connector-curvature="0"
     style="fill:#5c913b" />
  <path
     d="m 16.734,11.797 c 0,0 0.734,0.297 1.266,0.031 l 0,2.547 -1.625,0 c 0,0 -0.062,-0.547 0.156,-1.266 0.137,-0.449 -0.125,-0.812 -0.125,-0.812 l 0.328,-0.5 z m 2.534,0 c 0,0 -0.734,0.297 -1.266,0.031 l 0,2.547 1.625,0 c 0,0 0.062,-0.547 -0.156,-1.266 -0.137,-0.449 0.125,-0.812 0.125,-0.812 l -0.328,-0.5 z m 3.81,4.375 c 0,0.44 -0.356,0.797 -0.797,0.797 -0.441,0 -0.797,-0.356 -0.797,-0.797 0,-0.441 0.356,-0.797 0.797,-0.797 0.441,0 0.797,0.356 0.797,0.797 z"
     id="path12"
     inkscape:connector-curvature="0"
     style="fill:#226699" />
  <path
     d="m 19.031,9.023 c 0,0.22 -0.437,0.398 -0.977,0.398 -0.54,0 -0.977,-0.178 -0.977,-0.398 0,-0.22 0.437,-0.398 0.977,-0.398 0.54,0 0.977,0.178 0.977,0.398 z"
     id="path14"
     inkscape:connector-curvature="0"
     style="fill:#ffcc4d" />
  <path
     d="m 18.031,7.25 c -0.846,0 -1.531,0.395 -1.531,0.883 0,0.488 0.685,0.883 1.531,0.883 0.846,0 1.531,-0.395 1.531,-0.883 0,-0.488 -0.685,-0.883 -1.531,-0.883 z m -1.078,1.253 c -0.188,-0.082 -0.188,-0.3 -0.156,-0.457 0.031,-0.156 0.297,-0.312 0.297,-0.312 0,0 -0.181,0.379 -0.028,0.541 0.153,0.163 0.075,0.31 -0.113,0.228 z M 17.599,8.49 C 17.531,8.469 17.523,8.394 17.48,8.267 17.437,8.14 17.39,8.047 17.421,7.89 c 0.031,-0.156 0.421,-0.287 0.421,-0.287 0,0 -0.109,0.318 -0.078,0.474 0.031,0.156 0.156,0.322 0.156,0.322 0,0 -0.253,0.112 -0.321,0.091 z M 18.566,8.267 C 18.523,8.394 18.515,8.469 18.447,8.49 18.379,8.511 18.125,8.401 18.125,8.401 c 0,0 0.125,-0.166 0.156,-0.322 0.031,-0.156 -0.078,-0.474 -0.078,-0.474 0,0 0.39,0.13 0.421,0.287 0.032,0.155 -0.015,0.249 -0.058,0.375 z m 0.528,0.236 C 18.906,8.585 18.828,8.437 18.981,8.275 19.134,8.113 18.953,7.734 18.953,7.734 c 0,0 0.266,0.156 0.297,0.312 0.031,0.157 0.031,0.376 -0.156,0.457 z m 3.981,7.755 c -0.027,0.109 -0.139,0.174 -0.247,0.147 l -1.104,-0.287 c -0.108,-0.028 -0.173,-0.141 -0.146,-0.248 0.028,-0.109 0.139,-0.174 0.247,-0.146 l 1.104,0.287 c 0.109,0.028 0.176,0.137 0.146,0.247 z"
     id="path16"
     inkscape:connector-curvature="0"
     style="fill:#ffcc4d" />
  <path
     d="m 22.495,16.131 c -0.024,0.096 -0.121,0.154 -0.219,0.129 -0.097,-0.025 -0.153,-0.122 -0.128,-0.22 l 0.247,-1.131 c 0.024,-0.095 0.121,-0.153 0.219,-0.128 0.097,0.025 0.153,0.123 0.128,0.219 l -0.247,1.131 z m -7.66,2.744 c -0.06,0.023 -0.166,-0.102 -0.235,-0.278 l -1.945,-4.941 c -0.07,-0.177 -0.078,-0.34 -0.018,-0.364 l 0.099,-0.039 c 0.061,-0.023 0.314,0.043 0.384,0.219 l 1.945,4.941 c 0.07,0.177 -0.071,0.398 -0.131,0.423 l -0.099,0.039 z m 2.349,-5.627 1.631,0 0,1.127 -1.631,0 z"
     id="path18"
     inkscape:connector-curvature="0"
     style="fill:#ffcc4d" />
</svg>
