<?xml version="1.0" encoding="UTF-8" standalone="no"?>
<svg
   xmlns:dc="http://purl.org/dc/elements/1.1/"
   xmlns:cc="http://creativecommons.org/ns#"
   xmlns:rdf="http://www.w3.org/1999/02/22-rdf-syntax-ns#"
   xmlns:svg="http://www.w3.org/2000/svg"
   xmlns="http://www.w3.org/2000/svg"
   xmlns:sodipodi="http://sodipodi.sourceforge.net/DTD/sodipodi-0.dtd"
   xmlns:inkscape="http://www.inkscape.org/namespaces/inkscape"
   viewBox="0 0 36 26"
   id="svg2"
   version="1.1"
   inkscape:version="0.91 r13725"
   sodipodi:docname="1f1f8-1f1fb.svg"
   width="36"
   height="26">
  <metadata
     id="metadata44">
    <rdf:RDF>
      <cc:Work
         rdf:about="">
        <dc:format>image/svg+xml</dc:format>
        <dc:type
           rdf:resource="http://purl.org/dc/dcmitype/StillImage" />
      </cc:Work>
    </rdf:RDF>
  </metadata>
  <defs
     id="defs42" />
  <sodipodi:namedview
     pagecolor="#ffffff"
     bordercolor="#666666"
     borderopacity="1"
     objecttolerance="10"
     gridtolerance="10"
     guidetolerance="10"
     inkscape:pageopacity="0"
     inkscape:pageshadow="2"
     inkscape:window-width="640"
     inkscape:window-height="480"
     id="namedview40"
     showgrid="false"
     inkscape:zoom="6.5555556"
     inkscape:cx="18"
     inkscape:cy="13"
     inkscape:window-x="0"
     inkscape:window-y="0"
     inkscape:window-maximized="0"
     inkscape:current-layer="svg2" />
  <path
     d="m 36,22 c 0,2.209 -1.791,4 -4,4 L 4,26 C 1.791,26 0,24.209 0,22 L 0,4 C 0,1.791 1.791,0 4,0 l 28,0 c 2.209,0 4,1.791 4,4 l 0,18 z"
     id="path4"
     inkscape:connector-curvature="0"
     style="fill:#0f47af" />
  <path
     d="M 0,8 36,8 36,18 0,18 Z"
     id="path6"
     inkscape:connector-curvature="0"
     style="fill:#eeeeee" />
  <path
     d="m 17.462,16.297 c 0.246,-0.764 -0.609,-0.906 -0.609,-0.906 0,0 0.062,0.438 -0.453,0.453 0.172,0.344 0.016,0.625 -0.203,0.641 0.359,0.327 1.109,0.296 1.265,-0.188 z m -1.27,-0.463 c 0.473,-0.578 -0.221,-0.992 -0.221,-0.992 0,0 -0.095,0.4 -0.547,0.239 0.033,0.355 -0.199,0.547 -0.394,0.486 0.201,0.408 0.862,0.635 1.162,0.267 z m -0.895,-0.795 c 0.564,-0.302 0.152,-0.857 0.152,-0.857 0,0 -0.207,0.284 -0.511,0.01 -0.091,0.291 -0.336,0.366 -0.471,0.255 0.025,0.388 0.472,0.783 0.83,0.592 z M 14.951,14.03 c 0.594,-0.121 0.371,-0.736 0.371,-0.736 0,0 -0.265,0.202 -0.467,-0.129 -0.162,0.239 -0.405,0.241 -0.497,0.104 -0.082,0.358 0.216,0.838 0.593,0.761 z m -0.14,-0.865 c 0.545,-0.004 0.455,-0.586 0.455,-0.586 0,0 -0.269,0.133 -0.39,-0.195 -0.185,0.183 -0.399,0.142 -0.456,0.005 -0.134,0.302 0.045,0.778 0.391,0.776 z M 14.94,12.34 c 0.425,0.146 0.492,-0.396 0.492,-0.396 0,0 -0.241,0.044 -0.257,-0.28 -0.187,0.112 -0.344,0.017 -0.356,-0.121 -0.177,0.232 -0.15,0.704 0.121,0.797 z m 0.327,-0.683 c 0.212,0.124 0.45,-0.288 0.45,-0.288 0,0 -0.184,-0.066 -0.137,-0.369 -0.164,0.074 -0.276,0.029 -0.26,-0.1 -0.179,0.187 -0.253,0.641 -0.053,0.757 z m 3.116,4.64 c -0.246,-0.764 0.609,-0.906 0.609,-0.906 0,0 -0.062,0.438 0.453,0.453 -0.172,0.344 -0.016,0.625 0.203,0.641 -0.359,0.327 -1.109,0.296 -1.265,-0.188 z m 1.269,-0.463 c -0.473,-0.578 0.221,-0.992 0.221,-0.992 0,0 0.096,0.4 0.547,0.239 -0.032,0.355 0.199,0.547 0.395,0.486 -0.202,0.408 -0.862,0.635 -1.163,0.267 z m 0.896,-0.795 c -0.563,-0.302 -0.151,-0.857 -0.151,-0.857 0,0 0.207,0.284 0.51,0.01 0.092,0.291 0.337,0.366 0.471,0.255 -0.025,0.388 -0.472,0.783 -0.83,0.592 z m 0.346,-1.009 c -0.594,-0.121 -0.37,-0.736 -0.37,-0.736 0,0 0.265,0.202 0.467,-0.129 0.162,0.239 0.404,0.241 0.496,0.104 0.081,0.358 -0.216,0.838 -0.593,0.761 z m 0.139,-0.865 c -0.545,-0.004 -0.455,-0.586 -0.455,-0.586 0,0 0.27,0.133 0.39,-0.195 0.184,0.183 0.399,0.142 0.456,0.005 0.135,0.302 -0.045,0.778 -0.391,0.776 z M 20.904,12.34 c -0.425,0.146 -0.492,-0.396 -0.492,-0.396 0,0 0.242,0.044 0.258,-0.28 0.188,0.112 0.344,0.017 0.356,-0.121 0.177,0.232 0.15,0.704 -0.122,0.797 z m -0.326,-0.683 c -0.213,0.124 -0.45,-0.288 -0.45,-0.288 0,0 0.185,-0.066 0.138,-0.369 0.163,0.074 0.275,0.029 0.26,-0.1 0.177,0.187 0.251,0.641 0.052,0.757 z"
     id="path8"
     inkscape:connector-curvature="0"
     style="fill:#1f601a" />
  <circle
     cx="17.906"
     cy="16.301001"
     r="0.40000001"
     id="circle10"
     style="fill:#06209f" />
  <path
     d="m 17.821,12.774 -1.859,-1.993 c 0,0 -0.312,2.297 0.594,2.906 0.906,0.61 1.265,-0.913 1.265,-0.913 z"
     id="path12"
     inkscape:connector-curvature="0"
     style="fill:#06209f" />
  <path
     d="M 16.854,11.739 16.44,11.295 c 0,0 -0.213,1.783 0.693,2.393 -0.437,-0.891 -0.279,-1.949 -0.279,-1.949 z"
     id="path14"
     inkscape:connector-curvature="0"
     style="fill:#ffffff" />
  <path
     d="m 17.821,13.602 -2.549,-1.445 c 0,0 -0.125,1.484 0.322,2.203 0.446,0.719 2.085,0.766 2.312,0.062 0.228,-0.703 -0.085,-0.82 -0.085,-0.82 z"
     id="path16"
     inkscape:connector-curvature="0"
     style="fill:#06209f" />
  <path
     d="m 16.194,12.679 -0.477,-0.271 c 0,0 -0.284,2.983 1.977,2.298 -1.498,-0.07 -1.5,-2.027 -1.5,-2.027 z"
     id="path18"
     inkscape:connector-curvature="0"
     style="fill:#ffffff" />
  <path
     d="m 17.989,12.774 1.859,-1.993 c 0,0 0.312,2.297 -0.594,2.906 -0.905,0.61 -1.265,-0.913 -1.265,-0.913 z"
     id="path20"
     inkscape:connector-curvature="0"
     style="fill:#06209f" />
  <path
     d="m 18.956,11.739 0.414,-0.444 c 0,0 0.213,1.783 -0.693,2.393 0.437,-0.891 0.279,-1.949 0.279,-1.949 z"
     id="path22"
     inkscape:connector-curvature="0"
     style="fill:#ffffff" />
  <path
     d="m 17.989,13.602 2.549,-1.445 c 0,0 0.125,1.484 -0.321,2.203 -0.446,0.719 -2.085,0.766 -2.312,0.062 -0.228,-0.703 0.084,-0.82 0.084,-0.82 z"
     id="path24"
     inkscape:connector-curvature="0"
     style="fill:#06209f" />
  <path
     d="m 19.616,12.679 0.479,-0.271 c 0,0 0.283,2.983 -1.979,2.298 1.498,-0.07 1.5,-2.027 1.5,-2.027 z"
     id="path26"
     inkscape:connector-curvature="0"
     style="fill:#ffffff" />
  <path
     d="m 17.821,10.297 -2.474,4.265 4.949,0 z"
     id="path28"
     inkscape:connector-curvature="0"
     style="fill:#ffcc01" />
  <path
     d="m 15.694,14.362 2.127,-3.667 2.127,3.667 z"
     id="path30"
     inkscape:connector-curvature="0"
     style="fill:#ffffff" />
  <path
     d="m 16.303,13.312 -0.609,1.05 4.254,0 -0.609,-1.05 z"
     id="path32"
     inkscape:connector-curvature="0"
     style="fill:#017e93" />
  <path
     d="m 16.103,13.831 c 0,0 0.688,-0.972 0.953,-0.972 0.266,0 0.391,0.305 0.391,0.305 0,0 0.104,-0.164 0.247,-0.164 0.143,0 0.212,0.165 0.212,0.165 0,0 0.103,-0.161 0.165,-0.131 0.062,0.029 0.267,0.279 0.267,0.279 0,0 0.061,-0.108 0.202,-0.148 0.141,-0.04 0.234,0.148 0.234,0.148 0,0 0.138,-0.296 0.17,-0.148 0.033,0.148 0.543,0.667 0.543,0.667 l -3.384,0 z"
     id="path34"
     inkscape:connector-curvature="0"
     style="fill:#ffcc01" />
  <circle
     cx="17.882999"
     cy="12.236"
     r="0.189"
     id="circle36"
     style="fill:#e60000" />
  <path
     d="m 14.002,11.24 c -0.255,0.504 -0.413,1.059 -0.459,1.651 l 0.498,0.013 c 0.044,-0.52 0.185,-1.007 0.411,-1.45 l -0.45,-0.214 z m 4.754,-1.858 c 0.633,0.133 1.199,0.429 1.68,0.826 L 20.781,9.847 C 20.234,9.39 19.589,9.048 18.866,8.896 l -0.11,0.486 z m 2.437,1.629 c 0.434,0.633 0.69,1.398 0.69,2.224 0,0.15 -0.027,0.293 -0.044,0.439 l 0.49,0.09 c 0.022,-0.176 0.054,-0.348 0.054,-0.529 0,-0.928 -0.286,-1.787 -0.773,-2.499 l -0.417,0.275 z m -4.97,5.748 c -1.184,-0.58 -2.022,-1.731 -2.171,-3.098 l -0.494,0.056 c 0.169,1.546 1.119,2.845 2.459,3.498 l 0.206,-0.456 z m -1.336,-5.975 c 0.722,-0.899 1.817,-1.487 3.06,-1.487 0.026,0 0.05,0.007 0.076,0.008 l 0.031,-0.497 c -0.036,-10e-4 -0.07,-0.011 -0.107,-0.011 -1.413,0 -2.656,0.672 -3.469,1.701 l 0.409,0.286 z m 6.8,3.621 c -0.33,1.055 -1.081,1.916 -2.068,2.382 l 0.203,0.456 c 1.113,-0.523 1.962,-1.491 2.337,-2.679 l -0.472,-0.159 z"
     id="path38"
     inkscape:connector-curvature="0"
     style="fill:#ffcc01" />
</svg>
