<?xml version="1.0" encoding="UTF-8" standalone="no"?>
<svg
   xmlns:dc="http://purl.org/dc/elements/1.1/"
   xmlns:cc="http://creativecommons.org/ns#"
   xmlns:rdf="http://www.w3.org/1999/02/22-rdf-syntax-ns#"
   xmlns:svg="http://www.w3.org/2000/svg"
   xmlns="http://www.w3.org/2000/svg"
   xmlns:sodipodi="http://sodipodi.sourceforge.net/DTD/sodipodi-0.dtd"
   xmlns:inkscape="http://www.inkscape.org/namespaces/inkscape"
   viewBox="0 0 36 26"
   id="svg2"
   version="1.1"
   inkscape:version="0.91 r13725"
   sodipodi:docname="1f1f2-1f1f9.svg"
   width="36"
   height="26">
  <metadata
     id="metadata46">
    <rdf:RDF>
      <cc:Work
         rdf:about="">
        <dc:format>image/svg+xml</dc:format>
        <dc:type
           rdf:resource="http://purl.org/dc/dcmitype/StillImage" />
      </cc:Work>
    </rdf:RDF>
  </metadata>
  <defs
     id="defs44" />
  <sodipodi:namedview
     pagecolor="#ffffff"
     bordercolor="#666666"
     borderopacity="1"
     objecttolerance="10"
     gridtolerance="10"
     guidetolerance="10"
     inkscape:pageopacity="0"
     inkscape:pageshadow="2"
     inkscape:window-width="640"
     inkscape:window-height="480"
     id="namedview42"
     showgrid="false"
     inkscape:zoom="6.5555556"
     inkscape:cx="18"
     inkscape:cy="13"
     inkscape:window-x="0"
     inkscape:window-y="0"
     inkscape:window-maximized="0"
     inkscape:current-layer="svg2" />
  <path
     d="m 32,0 -14,0 0,26 14,0 c 2.209,0 4,-1.791 4,-4 L 36,4 C 36,1.791 34.209,0 32,0 Z"
     id="path4"
     inkscape:connector-curvature="0"
     style="fill:#cf142b" />
  <path
     d="M 4,0 C 1.791,0 0,1.791 0,4 l 0,18 c 0,2.209 1.791,4 4,4 L 18,26 18,0 4,0 Z"
     id="path6"
     inkscape:connector-curvature="0"
     style="fill:#eeeeee" />
  <path
     d="m 1.654,4.656 8.691,0 0,2.688 -8.691,0 z"
     id="path8"
     inkscape:connector-curvature="0"
     style="fill:#cf142b" />
  <path
     d="m 4.656,1.654 2.688,0 0,8.691 -2.688,0 z"
     id="path10"
     inkscape:connector-curvature="0"
     style="fill:#cf142b" />
  <g
     id="g12"
     style="fill:#cf142b"
     transform="translate(0,-5)">
    <circle
       cx="4.71"
       cy="12.271"
       r="0.921"
       id="circle14" />
    <circle
       cx="7.355"
       cy="12.271"
       r="0.921"
       id="circle16" />
    <circle
       cx="4.71"
       cy="9.8240004"
       r="0.921"
       id="circle18" />
    <circle
       cx="7.355"
       cy="9.8240004"
       r="0.921"
       id="circle20" />
  </g>
  <g
     id="g22"
     style="fill:#99aab5"
     transform="translate(0,-5)">
    <circle
       cx="4.7080002"
       cy="12.271"
       r="0.708"
       id="circle24" />
    <circle
       cx="7.355"
       cy="12.271"
       r="0.708"
       id="circle26" />
    <circle
       cx="4.7080002"
       cy="9.8240004"
       r="0.708"
       id="circle28" />
    <circle
       cx="7.355"
       cy="9.8240004"
       r="0.708"
       id="circle30" />
  </g>
  <circle
     cx="6.0320001"
     cy="6.0319996"
     r="1.817"
     id="circle32"
     style="fill:#ccd6dd" />
  <path
     d="m 5,2 2,0 0,8 -2,0 z"
     id="path34"
     inkscape:connector-curvature="0"
     style="fill:#ccd6dd" />
  <path
     d="m 2,5 8,0 0,2 -8,0 z"
     id="path36"
     inkscape:connector-curvature="0"
     style="fill:#ccd6dd" />
  <circle
     cx="6.0320001"
     cy="6.0830002"
     r="1.204"
     id="circle38"
     style="fill:#b2c0c9" />
  <path
     d="M 6.647,6.023 C 6.662,6.006 6.679,5.991 6.695,5.976 L 6.704,5.969 C 6.746,5.99 6.787,6.016 6.827,6.041 6.907,6.09 7.161,5.975 7.046,5.904 6.947,5.843 6.848,5.772 6.726,5.793 6.635,5.809 6.557,5.856 6.488,5.915 6.48,5.853 6.473,5.792 6.459,5.731 6.478,5.711 6.489,5.689 6.484,5.662 6.473,5.604 6.505,5.54 6.525,5.487 6.535,5.461 6.521,5.443 6.5,5.432 6.509,5.42 6.516,5.408 6.524,5.395 6.559,5.407 6.595,5.418 6.632,5.426 6.695,5.439 6.778,5.413 6.827,5.374 6.873,5.338 6.858,5.301 6.805,5.291 6.711,5.272 6.624,5.224 6.536,5.186 6.478,5.161 6.393,5.187 6.342,5.215 6.309,5.233 6.258,5.281 6.311,5.307 6.305,5.313 6.298,5.527 6.295,5.534 6.251,5.629 6.177,5 6.126,6 L 6.108,6 C 6.091,6 5.967,5.655 5.974,5.586 6.048,5.571 6,5.322 6,5.271 L 6,5.242 C 6,5.227 6.113,5.217 6.105,5.209 6.135,5.19 6.222,5.164 6.195,5.142 6.153,5.107 6.095,5.131 6.049,5.149 6.035,5.142 6.035,5.137 6.021,5.135 c -0.01,-0.002 -0.013,0 -0.023,0 C 6.052,5.113 6.098,5.077 6.084,5.036 6.076,5.011 6.07,4.991 6.084,4.966 6.151,4.85 5.874,4.876 5.827,4.957 5.798,5.008 5.792,5.054 5.81,5.11 5.822,5.148 5.871,5.161 5.923,5.156 5.895,5.171 5.87,5.193 5.855,5.221 L 5.852,5.23 C 5.81,5.23 5.762,5.243 5.733,5.255 5.572,5.324 5.402,5.374 5.251,5.464 5.226,5.479 5.157,5.527 5.22,5.547 5.258,5.559 5.307,5.553 5.351,5.54 5.353,5.547 5.353,5.553 5.357,5.559 5.396,5.61 5.453,5.657 5.511,5.685 5.572,5.715 5.653,5.698 5.707,5.662 5.743,5.639 5.782,5.581 5.737,5.55 5.754,5.525 5.78,5.507 5.805,5.489 5.808,5.553 5.816,5.616 5.832,5.673 5.836,5.689 5.845,5.701 5.855,5.711 5.822,5.717 5.79,5.73 5.765,5.745 5.732,5.765 5.693,5.81 5.723,5.841 5.653,5.854 5.584,5.872 5.518,5.903 5.493,5.914 5.438,5.946 5.433,5.981 L 5.337,5.993 C 5.286,6.001 5.202,6.025 5.184,6.083 5.16,6.084 5.132,6.089 5.112,6.094 5.053,6.102 4.942,6.128 4.937,6.18 4.929,6.272 4.975,6.347 5.015,6.425 4.978,6.461 4.952,6.503 4.941,6.557 4.917,6.676 5.197,6.634 5.218,6.528 5.221,6.512 5.223,6.496 5.237,6.486 5.272,6.461 5.307,6.412 5.276,6.378 5.288,6.368 5.296,6.36 5.292,6.353 5.257,6.285 5.22,6.219 5.215,6.143 5.23,6.149 5.246,6.152 5.262,6.153 5.281,6.255 5.359,6.345 5.433,6.413 5.451,6.429 5.484,6.431 5.52,6.426 5.505,6.438 5.492,6.451 5.486,6.468 5.452,6.553 5.438,6.641 5.427,6.731 5.423,6.768 5.451,6.804 5.487,6.813 5.603,6.84 5.696,6.895 5.79,6.967 5.887,7.041 6.129,6.905 6.003,6.808 5.915,6.741 5.82,6.685 5.715,6.649 5.722,6.598 5.731,6.547 5.75,6.499 5.757,6.481 5.759,6.465 5.757,6.452 5.78,6.443 5.802,6.433 5.822,6.421 6,6.313 6.218,6.29 6.409,6.203 6.401,6.231 6.418,6.258 6.458,6.267 6.54,6.286 6.689,6.285 6.716,6.379 6.743,6.474 6.711,6.588 6.772,6.672 6.828,6.75 7.095,6.656 7.028,6.563 7.005,6.531 7.009,6.468 7.007,6.43 7.004,6.371 7.001,6.309 6.973,6.255 6.916,6.147 6.731,6.139 6.627,6.114 6.591,6.106 6.551,6.059 6.513,6.071 6.516,6.064 6.51,6 6.492,6 L 6.486,6 C 6.487,6 6.487,6.048 6.488,6.047 6.549,6.043 6.608,6.07 6.647,6.023 Z"
     id="path40"
     inkscape:connector-curvature="0"
     style="fill:#99aab5" />
</svg>
