<?xml version="1.0" encoding="UTF-8" standalone="no"?>
<svg
   xmlns:dc="http://purl.org/dc/elements/1.1/"
   xmlns:cc="http://creativecommons.org/ns#"
   xmlns:rdf="http://www.w3.org/1999/02/22-rdf-syntax-ns#"
   xmlns:svg="http://www.w3.org/2000/svg"
   xmlns="http://www.w3.org/2000/svg"
   xmlns:sodipodi="http://sodipodi.sourceforge.net/DTD/sodipodi-0.dtd"
   xmlns:inkscape="http://www.inkscape.org/namespaces/inkscape"
   viewBox="0 0 36 26"
   id="svg2"
   version="1.1"
   inkscape:version="0.91 r13725"
   sodipodi:docname="1f1f0-1f1f2.svg"
   width="36"
   height="26">
  <metadata
     id="metadata24">
    <rdf:RDF>
      <cc:Work
         rdf:about="">
        <dc:format>image/svg+xml</dc:format>
        <dc:type
           rdf:resource="http://purl.org/dc/dcmitype/StillImage" />
      </cc:Work>
    </rdf:RDF>
  </metadata>
  <defs
     id="defs22" />
  <sodipodi:namedview
     pagecolor="#ffffff"
     bordercolor="#666666"
     borderopacity="1"
     objecttolerance="10"
     gridtolerance="10"
     guidetolerance="10"
     inkscape:pageopacity="0"
     inkscape:pageshadow="2"
     inkscape:window-width="640"
     inkscape:window-height="480"
     id="namedview20"
     showgrid="false"
     inkscape:zoom="6.5555556"
     inkscape:cx="18"
     inkscape:cy="13"
     inkscape:window-x="0"
     inkscape:window-y="0"
     inkscape:window-maximized="0"
     inkscape:current-layer="svg2" />
  <path
     d="m 0,13 0,9 c 0,2.209 1.791,4 4,4 l 28,0 c 2.209,0 4,-1.791 4,-4 l 0,-9 -36,0 z"
     id="path4"
     inkscape:connector-curvature="0"
     style="fill:#3a75c4" />
  <path
     d="M 36,13 36,4 C 36,1.791 34.209,0 32,0 L 4,0 C 1.791,0 0,1.791 0,4 l 0,9 36,0 z"
     id="path6"
     inkscape:connector-curvature="0"
     style="fill:#ffc61e" />
  <path
     d="m 0,13 36,0 0,6.5 -36,0 z"
     id="path8"
     inkscape:connector-curvature="0"
     style="fill:#ce1126" />
  <path
     d="m 0,6.5 36,0 0,6.5 -36,0 z"
     id="path10"
     inkscape:connector-curvature="0"
     style="fill:#eeeeee" />
  <path
     d="m 1.351,1.004 -10e-4,0 C 0.522,1.737 0,2.808 0,4 l 0,18 c 0,1.193 0.522,2.264 1.351,2.997 L 17.5,13 1.351,1.004 Z"
     id="path12"
     inkscape:connector-curvature="0"
     style="fill:#3d8e33" />
  <g
     id="g14"
     style="fill:#ffffff"
     transform="translate(0,-5)">
    <path
       d="m 3.926,18 c 0,-2.627 1.837,-4.822 4.295,-5.38 -0.395,-0.09 -0.805,-0.142 -1.227,-0.142 -3.05,0 -5.522,2.472 -5.522,5.522 0,3.05 2.472,5.522 5.522,5.522 0.422,0 0.832,-0.052 1.227,-0.142 C 5.763,22.822 3.926,20.627 3.926,18 Z"
       id="path16"
       inkscape:connector-curvature="0" />
    <path
       d="m 7.62,14.875 0.601,-0.437 0.601,0.437 -0.23,-0.706 0.601,-0.437 -0.743,0 -0.229,-0.707 -0.23,0.707 -0.743,0 0.601,0.437 z m 0,2.635 0.601,-0.437 0.601,0.437 -0.23,-0.707 0.601,-0.436 -0.743,0 -0.229,-0.707 -0.23,0.707 -0.743,0 0.601,0.436 z m 0,2.635 0.601,-0.437 0.601,0.437 -0.23,-0.707 0.601,-0.437 -0.743,0 -0.229,-0.706 -0.23,0.706 -0.743,0 0.601,0.437 z m 0.601,2.198 0.601,0.436 -0.23,-0.706 0.601,-0.437 -0.743,0 -0.229,-0.706 -0.23,0.706 -0.743,0 0.601,0.437 -0.229,0.706 z"
       id="path18"
       inkscape:connector-curvature="0" />
  </g>
</svg>
