<?xml version="1.0" encoding="UTF-8" standalone="no"?>
<svg
   xmlns:dc="http://purl.org/dc/elements/1.1/"
   xmlns:cc="http://creativecommons.org/ns#"
   xmlns:rdf="http://www.w3.org/1999/02/22-rdf-syntax-ns#"
   xmlns:svg="http://www.w3.org/2000/svg"
   xmlns="http://www.w3.org/2000/svg"
   xmlns:sodipodi="http://sodipodi.sourceforge.net/DTD/sodipodi-0.dtd"
   xmlns:inkscape="http://www.inkscape.org/namespaces/inkscape"
   viewBox="0 0 36 26"
   id="svg2"
   version="1.1"
   inkscape:version="0.91 r13725"
   sodipodi:docname="1f1fa-1f1fe.svg"
   width="36"
   height="26">
  <metadata
     id="metadata26">
    <rdf:RDF>
      <cc:Work
         rdf:about="">
        <dc:format>image/svg+xml</dc:format>
        <dc:type
           rdf:resource="http://purl.org/dc/dcmitype/StillImage" />
      </cc:Work>
    </rdf:RDF>
  </metadata>
  <defs
     id="defs24" />
  <sodipodi:namedview
     pagecolor="#ffffff"
     bordercolor="#666666"
     borderopacity="1"
     objecttolerance="10"
     gridtolerance="10"
     guidetolerance="10"
     inkscape:pageopacity="0"
     inkscape:pageshadow="2"
     inkscape:window-width="640"
     inkscape:window-height="480"
     id="namedview22"
     showgrid="false"
     inkscape:zoom="6.5555556"
     inkscape:cx="18"
     inkscape:cy="13"
     inkscape:window-x="0"
     inkscape:window-y="0"
     inkscape:window-maximized="0"
     inkscape:current-layer="svg2" />
  <path
     d="m 0,22 c 0,2.209 1.791,4 4,4 l 28,0 c 2.209,0 4,-1.791 4,-4 l 0,-1 -36,0 0,1 z m 0,-8 36,0 0,4 -36,0 z"
     id="path4"
     inkscape:connector-curvature="0"
     style="fill:#0038a8" />
  <path
     d="m 0,18 36,0 0,3 -36,0 z"
     id="path6"
     inkscape:connector-curvature="0"
     style="fill:#eeeeee" />
  <path
     d="M 36,4 C 36,1.791 34.209,0 32,0 l -16,0 0,4 20,0 z m -20,3 20,0 0,4 -20,0 z"
     id="path8"
     inkscape:connector-curvature="0"
     style="fill:#0038a8" />
  <path
     d="M 16,4 16,0 4,0 C 1.791,0 0,1.791 0,4 l 0,10 36,0 0,-3 -20,0 0,-4 20,0 0,-3 -20,0 z"
     id="path10"
     inkscape:connector-curvature="0"
     style="fill:#eeeeee" />
  <path
     d="M 13,7 C 13,4.238 10.762,2 8,2 5.238,2 3,4.239 3,7 c 0,2.761 2.239,5 5,5 2.762,0 5,-2.239 5,-5 z"
     id="path12"
     inkscape:connector-curvature="0"
     style="fill:#ffd983" />
  <path
     d="M 12,7 C 12,4.791 10.21,3 8,3 5.791,3 4,4.791 4,7 c 0,2.208 1.791,4 4,4 2.21,0 4,-1.792 4,-4 z"
     id="path14"
     inkscape:connector-curvature="0"
     style="fill:#ffcc4d" />
  <path
     d="M 8,0.597 8.633,4.638 11.202,1.455 9.729,5.271 13.545,3.798 10.362,6.367 14.403,7 10.362,7.633 13.545,10.202 9.729,8.729 11.202,12.545 8.633,9.362 8,13.403 7.367,9.362 4.798,12.545 6.271,8.729 2.455,10.202 5.638,7.633 1.597,7 5.638,6.367 2.455,3.798 6.271,5.271 4.798,1.455 7.367,4.638 Z"
     id="path16"
     inkscape:connector-curvature="0"
     style="fill:#ffac33" />
  <path
     d="M 11,7 C 11,5.343 9.657,4 8,4 6.343,4 5,5.343 5,7 c 0,1.656 1.343,3 3,3 1.657,0 3,-1.344 3,-3 z"
     id="path18"
     inkscape:connector-curvature="0"
     style="fill:#c1694f" />
  <path
     d="m 5.834,7.004 c 0,-1.19 0.964,-2.154 2.153,-2.154 1.189,0 2.153,0.964 2.153,2.154 0,1.189 -0.964,2.152 -2.153,2.152 -1.189,0 -2.153,-0.964 -2.153,-2.152 z"
     id="path20"
     inkscape:connector-curvature="0"
     style="fill:#ffac33" />
</svg>
