<?xml version="1.0" encoding="UTF-8" standalone="no"?>
<svg
   xmlns:dc="http://purl.org/dc/elements/1.1/"
   xmlns:cc="http://creativecommons.org/ns#"
   xmlns:rdf="http://www.w3.org/1999/02/22-rdf-syntax-ns#"
   xmlns:svg="http://www.w3.org/2000/svg"
   xmlns="http://www.w3.org/2000/svg"
   xmlns:sodipodi="http://sodipodi.sourceforge.net/DTD/sodipodi-0.dtd"
   xmlns:inkscape="http://www.inkscape.org/namespaces/inkscape"
   viewBox="0 0 36 36"
   id="svg2"
   version="1.1"
   inkscape:version="0.91 r13725"
   sodipodi:docname="1f1fd.svg"
   width="36"
   height="36">
  <metadata
     id="metadata12">
    <rdf:RDF>
      <cc:Work
         rdf:about="">
        <dc:format>image/svg+xml</dc:format>
        <dc:type
           rdf:resource="http://purl.org/dc/dcmitype/StillImage" />
      </cc:Work>
    </rdf:RDF>
  </metadata>
  <defs
     id="defs10" />
  <sodipodi:namedview
     pagecolor="#ffffff"
     bordercolor="#666666"
     borderopacity="1"
     objecttolerance="10"
     gridtolerance="10"
     guidetolerance="10"
     inkscape:pageopacity="0"
     inkscape:pageshadow="2"
     inkscape:window-width="640"
     inkscape:window-height="480"
     id="namedview8"
     showgrid="false"
     inkscape:zoom="6.5555556"
     inkscape:cx="18"
     inkscape:cy="18"
     inkscape:window-x="0"
     inkscape:window-y="0"
     inkscape:window-maximized="0"
     inkscape:current-layer="svg2" />
  <path
     d="m 36,32 c 0,2.209 -1.791,4 -4,4 L 4,36 C 1.791,36 0,34.209 0,32 L 0,4 C 0,1.791 1.791,0 4,0 l 28,0 c 2.209,0 4,1.791 4,4 l 0,28 z"
     id="path4"
     inkscape:connector-curvature="0"
     style="fill:#3b88c3" />
  <path
     d="M 15.304,17.187 10.281,10.366 C 9.971,9.962 9.786,9.497 9.786,9.001 c 0,-1.364 1.023,-2.263 2.356,-2.263 0.775,0 1.581,0.527 2.015,1.147 l 3.845,5.457 3.845,-5.457 c 0.435,-0.62 1.24,-1.147 2.015,-1.147 1.334,0 2.358,0.899 2.358,2.263 0,0.496 -0.186,0.961 -0.496,1.364 l -5.024,6.821 6.139,8.248 c 0.248,0.341 0.527,0.93 0.527,1.581 0,1.303 -0.992,2.17 -2.355,2.17 -0.838,0 -1.457,-0.371 -1.923,-1.022 l -5.085,-7.069 -5.085,7.069 c -0.465,0.651 -1.085,1.022 -1.922,1.022 -1.364,0 -2.356,-0.867 -2.356,-2.17 0,-0.651 0.279,-1.24 0.527,-1.581 l 6.137,-8.247 z"
     id="path6"
     inkscape:connector-curvature="0"
     style="fill:#ffffff" />
</svg>
