<?xml version="1.0" encoding="UTF-8" standalone="no"?>
<svg
   xmlns:dc="http://purl.org/dc/elements/1.1/"
   xmlns:cc="http://creativecommons.org/ns#"
   xmlns:rdf="http://www.w3.org/1999/02/22-rdf-syntax-ns#"
   xmlns:svg="http://www.w3.org/2000/svg"
   xmlns="http://www.w3.org/2000/svg"
   xmlns:sodipodi="http://sodipodi.sourceforge.net/DTD/sodipodi-0.dtd"
   xmlns:inkscape="http://www.inkscape.org/namespaces/inkscape"
   viewBox="0 0 36 26"
   id="svg2"
   version="1.1"
   inkscape:version="0.91 r13725"
   sodipodi:docname="1f1f8-1f1ee.svg"
   width="36"
   height="26">
  <metadata
     id="metadata22">
    <rdf:RDF>
      <cc:Work
         rdf:about="">
        <dc:format>image/svg+xml</dc:format>
        <dc:type
           rdf:resource="http://purl.org/dc/dcmitype/StillImage" />
      </cc:Work>
    </rdf:RDF>
  </metadata>
  <defs
     id="defs20" />
  <sodipodi:namedview
     pagecolor="#ffffff"
     bordercolor="#666666"
     borderopacity="1"
     objecttolerance="10"
     gridtolerance="10"
     guidetolerance="10"
     inkscape:pageopacity="0"
     inkscape:pageshadow="2"
     inkscape:window-width="640"
     inkscape:window-height="480"
     id="namedview18"
     showgrid="false"
     inkscape:zoom="6.5555556"
     inkscape:cx="18"
     inkscape:cy="13"
     inkscape:window-x="0"
     inkscape:window-y="0"
     inkscape:window-maximized="0"
     inkscape:current-layer="svg2" />
  <path
     d="m 36,22 0,-4 -36,0 0,4 c 0,2.209 1.791,4 4,4 l 28,0 c 2.209,0 4,-1.791 4,-4 z"
     id="path4"
     inkscape:connector-curvature="0"
     style="fill:#ed1c23" />
  <path
     d="M 36,18 0,18 0,4 C 0,1.791 1.791,0 4,0 l 28,0 c 2.209,0 4,1.791 4,4 l 0,14 z"
     id="path6"
     inkscape:connector-curvature="0"
     style="fill:#eeeeee" />
  <path
     d="M 0,8 36,8 36,18 0,18 Z"
     id="path8"
     inkscape:connector-curvature="0"
     style="fill:#005da4" />
  <path
     d="m 11.125,2.917 c -2.25,0 -3.833,0.833 -3.833,0.833 0,0 0.146,2 0.333,5.083 0.187,3.083 3.5,4.167 3.5,4.167 0,0 3.312,-1.083 3.5,-4.167 0.188,-3.084 0.333,-5.083 0.333,-5.083 0,0 -1.583,-0.833 -3.833,-0.833 z"
     id="path10"
     inkscape:connector-curvature="0"
     style="fill:#ed1c23" />
  <path
     d="m 14.592,3.586 c -0.588,-0.242 -1.849,-0.67 -3.467,-0.67 -1.618,0 -2.879,0.428 -3.467,0.67 0.011,0.21 0.137,2.503 0.299,5.164 0.17,2.791 3.167,3.771 3.167,3.771 0,0 2.998,-0.98 3.167,-3.771 0.164,-2.66 0.29,-4.954 0.301,-5.164 z"
     id="path12"
     inkscape:connector-curvature="0"
     style="fill:#004a77" />
  <path
     d="m 12.104,10.92 c -0.354,0 -0.521,0.211 -1.042,0.211 -0.521,0 -0.604,-0.211 -0.958,-0.211 -0.268,0 -0.434,0.12 -0.639,0.179 0.812,0.61 1.66,0.86 1.66,0.86 0.711,-0.118 1.27,-0.466 1.693,-0.859 -0.269,-0.059 -0.445,-0.18 -0.714,-0.18 z M 10.146,9.537 c 0.333,0 0.625,0.26 0.979,0.26 0.354,0 0.604,-0.26 0.979,-0.26 0.321,0 0.743,0.419 1.36,0.179 0.278,-0.469 0.411,-0.841 0.411,-0.841 L 12.625,7.083 12,7.842 11.125,6.167 10.292,7.842 9.688,7.043 c 0,0 -0.542,0.643 -1.438,1.851 0.107,0.286 0.251,0.534 0.407,0.766 0.709,0.35 1.187,-0.123 1.489,-0.123 z m 2.958,0.755 c -0.458,0 -0.646,-0.26 -1,-0.26 -0.354,0 -0.521,0.26 -1.042,0.26 -0.521,0 -0.604,-0.26 -0.958,-0.26 -0.354,0 -0.53,0.26 -0.854,0.26 -0.117,0 -0.248,-0.036 -0.373,-0.085 0.127,0.168 0.252,0.341 0.39,0.484 0.386,-0.035 0.673,-0.273 0.879,-0.273 0.333,0 0.625,0.278 0.979,0.278 0.354,0 0.604,-0.278 0.979,-0.278 0.231,0 0.516,0.235 0.887,0.271 0.109,-0.142 0.205,-0.283 0.293,-0.423 -0.058,0.009 -0.113,0.026 -0.18,0.026 z"
     id="path14"
     inkscape:connector-curvature="0"
     style="fill:#ffffff" />
  <path
     d="M 10.318,3.807 10.535,4.04 10.226,3.968 10.132,4.272 10.04,3.968 9.729,4.04 9.947,3.807 9.729,3.574 10.04,3.646 10.132,3.342 10.226,3.646 10.535,3.574 Z m 2.094,0 0.217,0.233 -0.31,-0.072 -0.093,0.304 -0.093,-0.304 -0.31,0.072 0.217,-0.233 -0.217,-0.233 0.31,0.072 0.093,-0.304 0.093,0.304 0.31,-0.072 z m -1.084,1.396 0.216,0.233 -0.309,-0.072 -0.093,0.303 -0.093,-0.303 -0.31,0.072 0.217,-0.233 -0.217,-0.233 0.31,0.072 0.093,-0.304 0.093,0.304 0.309,-0.072 z"
     id="path16"
     inkscape:connector-curvature="0"
     style="fill:#ffdd00" />
</svg>
