<?xml version="1.0" encoding="UTF-8" standalone="no"?>
<svg
   xmlns:dc="http://purl.org/dc/elements/1.1/"
   xmlns:cc="http://creativecommons.org/ns#"
   xmlns:rdf="http://www.w3.org/1999/02/22-rdf-syntax-ns#"
   xmlns:svg="http://www.w3.org/2000/svg"
   xmlns="http://www.w3.org/2000/svg"
   xmlns:sodipodi="http://sodipodi.sourceforge.net/DTD/sodipodi-0.dtd"
   xmlns:inkscape="http://www.inkscape.org/namespaces/inkscape"
   viewBox="0 0 36 26"
   id="svg2"
   version="1.1"
   inkscape:version="0.91 r13725"
   sodipodi:docname="1f1f9-1f1ec.svg"
   width="36"
   height="26">
  <metadata
     id="metadata16">
    <rdf:RDF>
      <cc:Work
         rdf:about="">
        <dc:format>image/svg+xml</dc:format>
        <dc:type
           rdf:resource="http://purl.org/dc/dcmitype/StillImage" />
      </cc:Work>
    </rdf:RDF>
  </metadata>
  <defs
     id="defs14" />
  <sodipodi:namedview
     pagecolor="#ffffff"
     bordercolor="#666666"
     borderopacity="1"
     objecttolerance="10"
     gridtolerance="10"
     guidetolerance="10"
     inkscape:pageopacity="0"
     inkscape:pageshadow="2"
     inkscape:window-width="640"
     inkscape:window-height="480"
     id="namedview12"
     showgrid="false"
     inkscape:zoom="6.5555556"
     inkscape:cx="18"
     inkscape:cy="13"
     inkscape:window-x="0"
     inkscape:window-y="0"
     inkscape:window-maximized="0"
     inkscape:current-layer="svg2" />
  <path
     d="m 0,22 c 0,2.209 1.791,4 4,4 l 28,0 c 2.209,0 4,-1.791 4,-4 l 0,-1.2 -36,0 0,1.2 z m 15.526,-6.5 -0.026,0 20.5,0.1 0,-5.2 -20.474,0 z M 32,0 15.526,0 l 0,5.2 L 36,5.2 36,4 C 36,1.791 34.209,0 32,0 Z"
     id="path4"
     inkscape:connector-curvature="0"
     style="fill:#006a4e" />
  <path
     d="m 15.526,10.333 0,0.067 20.474,0 0,-5.2 -20.474,0 z M 0.026,15.5 0,20.8 l 36,0 0,-5.2 -20.5,-0.1 z"
     id="path6"
     inkscape:connector-curvature="0"
     style="fill:#ffce00" />
  <path
     d="M 4,0 C 1.879,0 0.161,1.656 0.026,3.743 l 0,11.757 15.5,0 0,-15.5 L 4,0 Z"
     id="path8"
     inkscape:connector-curvature="0"
     style="fill:#d21034" />
  <path
     d="m 12.339,6.413 -3.454,0 L 8.872,6.373 7.776,3 7.754,3.068 6.667,6.413 l -3.589,0 2.858,2.077 0.045,0.033 -1.067,3.285 -0.042,0.129 2.904,-2.11 2.903,2.11 -1.109,-3.414 2.904,-2.11 z"
     id="path10"
     inkscape:connector-curvature="0"
     style="fill:#ffffff" />
</svg>
