<?xml version="1.0" encoding="UTF-8" standalone="no"?>
<svg
   xmlns:dc="http://purl.org/dc/elements/1.1/"
   xmlns:cc="http://creativecommons.org/ns#"
   xmlns:rdf="http://www.w3.org/1999/02/22-rdf-syntax-ns#"
   xmlns:svg="http://www.w3.org/2000/svg"
   xmlns="http://www.w3.org/2000/svg"
   xmlns:sodipodi="http://sodipodi.sourceforge.net/DTD/sodipodi-0.dtd"
   xmlns:inkscape="http://www.inkscape.org/namespaces/inkscape"
   viewBox="0 0 36 26"
   id="svg2"
   version="1.1"
   inkscape:version="0.91 r13725"
   sodipodi:docname="1f1f1-1f1f0.svg"
   width="36"
   height="26">
  <metadata
     id="metadata18">
    <rdf:RDF>
      <cc:Work
         rdf:about="">
        <dc:format>image/svg+xml</dc:format>
        <dc:type
           rdf:resource="http://purl.org/dc/dcmitype/StillImage" />
      </cc:Work>
    </rdf:RDF>
  </metadata>
  <defs
     id="defs16" />
  <sodipodi:namedview
     pagecolor="#ffffff"
     bordercolor="#666666"
     borderopacity="1"
     objecttolerance="10"
     gridtolerance="10"
     guidetolerance="10"
     inkscape:pageopacity="0"
     inkscape:pageshadow="2"
     inkscape:window-width="640"
     inkscape:window-height="480"
     id="namedview14"
     showgrid="false"
     inkscape:zoom="6.5555556"
     inkscape:cx="18"
     inkscape:cy="13"
     inkscape:window-x="0"
     inkscape:window-y="0"
     inkscape:window-maximized="0"
     inkscape:current-layer="svg2" />
  <path
     d="m 36,22 c 0,2.209 -1.791,4 -4,4 L 4,26 C 1.791,26 0,24.209 0,22 L 0,4 C 0,1.791 1.791,0 4,0 l 28,0 c 2.209,0 4,1.791 4,4 l 0,18 z"
     id="path4"
     inkscape:connector-curvature="0"
     style="fill:#ffb700" />
  <path
     d="m 32,1 -22,0 0,24 22,0 c 1.654,0 3,-1.346 3,-3 L 35,4 C 35,2.346 33.654,1 32,1 Z"
     id="path6"
     inkscape:connector-curvature="0"
     style="fill:#8d2129" />
  <path
     d="M 4,1 C 2.346,1 1,2.346 1,4 l 0,18 c 0,1.654 1.346,3 3,3 L 5,25 5,1 4,1 Z"
     id="path8"
     inkscape:connector-curvature="0"
     style="fill:#005641" />
  <path
     d="M 5,1 9,1 9,25 5,25 Z"
     id="path10"
     inkscape:connector-curvature="0"
     style="fill:#ff5b00" />
  <path
     d="m 13.199,5.062 c 0,0 -0.067,-0.959 -0.035,-1.762 0.021,-0.532 -0.277,-1.175 -0.84,-1.082 -0.563,0.093 -1.188,-0.021 -1.188,-0.021 0,0 0.125,0.364 0,0.708 -0.125,0.344 -0.125,1.062 0.719,1.156 0.844,0.095 1.188,0.532 1.344,1.001 z m 18.684,0 c 0,0 0.067,-0.959 0.035,-1.762 -0.021,-0.532 0.277,-1.175 0.84,-1.082 0.563,0.093 1.188,-0.021 1.188,-0.021 0,0 -0.125,0.364 0,0.708 0.125,0.344 0.125,1.062 -0.719,1.156 -0.844,0.095 -1.188,0.532 -1.344,1.001 z M 13.199,20.938 c 0,0 -0.067,0.96 -0.035,1.763 0.021,0.532 -0.277,1.175 -0.84,1.081 -0.562,-0.094 -1.188,0.021 -1.188,0.021 0,0 0.125,-0.365 0,-0.709 -0.125,-0.344 -0.125,-1.062 0.719,-1.156 0.844,-0.094 1.188,-0.532 1.344,-1 z m 18.684,0 c 0,0 0.067,0.96 0.035,1.763 -0.021,0.532 0.277,1.175 0.84,1.081 0.562,-0.094 1.188,0.021 1.188,0.021 0,0 -0.125,-0.365 0,-0.709 0.125,-0.344 0.125,-1.062 -0.719,-1.156 -0.844,-0.094 -1.188,-0.532 -1.344,-1 z M 18.406,8.375 c 0,0 0.594,-0.031 1.188,-0.188 C 20.188,8.031 20,7.469 20,7.469 c 0,0 0.531,-0.281 0.844,0 0.312,0.281 0.688,0.25 0.5,-0.125 0.562,-0.281 0.812,0.344 0.812,0.344 0,0 0.281,-0.177 0.344,-0.417 0.5,-0.052 0.594,0.448 0.906,0.385 0.312,-0.063 0.531,-0.389 0.531,-0.389 0,0 0.062,0.889 -0.469,1.108 0.438,0.562 0.312,1.656 0.312,1.938 l -0.312,-0.188 c 0,0 0.188,0.875 0.281,1 0.094,0.125 -0.312,0 -0.312,0 0,0 0.219,0.594 0.375,0.688 0.156,0.094 3.094,-0.188 3.938,-0.188 0.844,0 2,-0.125 2,-0.875 0,-0.75 -0.969,-0.688 -2.062,-0.531 -1.094,0.156 -1.812,0.125 -2.25,-0.156 C 25,9.782 24.501,9.709 24.542,10.417 23.875,10.105 24.354,9.438 24.354,9.438 c 0,0 -0.761,-0.833 -0.276,-1.667 0.484,-0.833 2.359,-1.084 3.672,-0.354 1.313,0.73 1.833,1.333 2.375,1.438 C 30.104,8.459 30.771,8.168 30.854,8.897 30.937,9.626 30.02,9.48 29.625,9.251 29.23,9.022 28.521,8.334 28.521,8.334 c 0,0 -0.021,0.417 0.25,0.688 -0.75,-0.083 -0.916,-0.646 -0.916,-0.646 0,0 -0.043,0.603 -0.73,0.624 0.5,-0.583 0.333,-1.062 -0.354,-1.312 0.396,0.604 0.021,1.125 -0.562,1.208 0.396,-0.562 0.063,-1.208 -0.666,-1.333 0.104,0.458 -0.25,0.583 -0.25,0.583 0,0 -0.166,-0.417 -0.5,-0.188 -0.334,0.229 -0.418,0.73 0.019,1.042 0.271,-0.542 0.812,-0.5 1,-0.271 -0.562,0.062 -0.541,0.584 -0.333,0.854 0.208,-0.354 0.417,-0.458 0.625,-0.083 0.208,0.375 0.833,0.354 1.958,0.188 1.125,-0.166 2.161,-0.044 2.333,0.958 0.146,0.854 -0.708,1.271 -0.708,1.271 0,0 1.104,0.833 0.396,2.646 -0.708,1.813 -0.416,2.562 -0.146,2.75 0.27,0.188 0.688,0.208 0.125,0.708 -0.563,0.5 -0.417,0.855 -0.188,1.146 0.229,0.291 0.167,0.583 -0.5,0.208 -0.292,0.292 -0.583,0.208 -0.75,-0.042 -0.167,0.229 -0.479,0.292 -0.688,0.042 -0.208,0.167 -0.479,0.167 -0.333,-0.188 0.146,-0.355 0.854,-0.5 1.062,-0.562 0.208,-0.062 0.188,-0.438 0.125,-0.854 -0.063,-0.416 -0.417,-0.854 -1.167,-1.25 -0.333,0.25 -0.292,0.541 -0.167,0.688 0.125,0.147 0.521,0.188 0.542,0.312 0.021,0.124 -0.208,0.396 -0.458,0.584 -0.25,0.188 -0.208,0.521 -0.125,0.688 0.083,0.167 0.187,0.577 -0.084,0.768 -0.271,0.19 -0.541,-0.247 -0.541,-0.247 0,0 -0.168,0.521 -0.646,0.021 -0.271,0.334 -0.541,0.209 -0.666,0.021 -0.271,0.271 -0.688,0.25 -0.479,-0.125 0.209,-0.375 0.458,-0.376 0.75,-0.396 0.292,-0.02 0.687,-0.082 0.646,-0.666 -0.041,-0.584 -0.156,-1.177 -0.562,-1.542 -0.625,-0.562 -0.521,-1.229 -0.521,-1.229 0,0 -1.042,-0.104 -1.854,0.459 -0.812,0.563 -1.438,0.562 -1.438,0.562 0,0 -0.459,0.5 -0.5,0.812 -0.041,0.312 0.146,0.417 0.396,0.5 0.25,0.083 0.438,0.062 0.062,0.396 -0.376,0.334 -0.688,0.312 -0.688,0.312 0,0 -0.019,0.353 0.022,0.561 0.041,0.208 -0.084,0.569 -0.292,0.607 -0.208,0.038 -0.521,-0.232 -0.521,-0.232 0,0 -0.396,0.417 -0.708,-0.021 -0.354,0.333 -0.667,0.209 -0.792,0 -0.208,0.333 -0.542,0.188 -0.333,-0.188 0.209,-0.376 0.5,-0.418 1,-0.396 0.5,0.022 0.916,-0.375 0.729,-0.896 -0.187,-0.521 -0.354,-1.229 -0.354,-1.229 0,0 -0.396,-0.042 -0.979,-0.375 -0.729,0.875 -0.979,0.563 -1.188,0.396 -0.209,-0.167 -0.708,-0.625 -0.708,-0.625 0,0 -0.271,-0.021 -0.229,0.229 -0.292,-0.021 -0.188,-0.479 -0.188,-0.708 0,-0.229 -0.083,-0.5 -0.25,-0.5 -0.167,0 -0.417,0.042 -0.417,0.042 0,0 0,0.082 0.25,0.166 0.25,0.084 0.229,0.251 -0.021,0.271 -0.25,0.02 -0.417,0.082 -0.229,0.229 0.188,0.147 0.208,0.229 0.062,0.375 -0.146,0.146 -0.125,0.541 0.125,0.688 0.167,-0.396 0.479,-0.166 0.417,0.104 -0.062,0.27 -0.521,0.229 -0.521,0.229 l 0.312,0.354 -0.476,0.104 c 0,0 -0.024,0.292 -0.211,0.354 -0.187,0.062 -0.229,-0.438 -0.229,-0.438 l -0.438,-0.021 0.292,-0.354 c 0,0 -0.417,-0.146 -0.438,-0.396 -0.021,-0.25 0.312,-0.125 0.375,0 0.333,-0.146 0.229,-0.479 0.104,-0.604 -0.125,-0.125 -0.042,-0.229 0.083,-0.375 0.125,-0.146 0.104,-0.229 -0.083,-0.188 -0.187,0.041 -0.5,-0.334 -0.188,-0.334 0.312,0 0.375,-0.021 0.333,-0.25 -0.375,-0.041 -0.146,-0.333 -0.146,-0.333 0,0 -0.292,-0.209 -0.083,-0.354 -0.188,-0.166 -0.229,-0.438 -0.021,-0.479 -0.125,-0.104 0.042,-0.292 0.042,-0.292 0,0 -0.601,-0.102 -0.601,-0.56 0,-0.458 0.521,-0.375 0.521,-0.375 0,0 -0.062,-1.458 0.083,-3.5 0.145,-2.042 1,-2.75 1.521,-2.958 -0.542,1.146 -0.479,3.083 -0.479,4.271 0,1.188 -0.021,2.125 -0.021,2.125 0,0 0.583,0.041 0.541,0.437 -0.042,0.396 -0.312,0.479 -0.312,0.479 L 18,14.833 c 0,0 -0.062,-1.389 0.396,-1.944 0.458,-0.555 1.166,-1.076 1.375,-1.243 0.209,-0.167 -0.129,-0.609 -0.291,-0.125 -0.236,-0.029 -0.438,-0.417 -0.438,-0.417 0,0 0.021,0.146 -0.125,0.25 -0.146,0.104 -0.104,-0.354 -0.188,-0.312 -0.084,0.042 -0.312,0.167 -0.604,0.25 0.021,-0.167 0.146,-0.375 0.146,-0.375 0,0 -0.375,0.041 -0.709,0.083 0,-0.292 0.187,-0.771 0.354,-0.812 -0.417,-0.208 -0.312,-0.604 -0.125,-0.542 0.187,0.062 1.062,0.583 2.042,0.646 C 19.521,9.938 19.271,9.48 19.271,9.48 L 19.167,9.834 18.792,9.48 18.75,9.834 c 0,0 -0.917,-0.667 -1.083,-1.208 C 17.501,8.085 17.688,7.687 18,7.73 c 0.604,0.082 0.406,0.645 0.406,0.645 z"
     id="path12"
     inkscape:connector-curvature="0"
     style="fill:#ffb700" />
</svg>
