<?xml version="1.0" encoding="UTF-8" standalone="no"?>
<svg
   xmlns:dc="http://purl.org/dc/elements/1.1/"
   xmlns:cc="http://creativecommons.org/ns#"
   xmlns:rdf="http://www.w3.org/1999/02/22-rdf-syntax-ns#"
   xmlns:svg="http://www.w3.org/2000/svg"
   xmlns="http://www.w3.org/2000/svg"
   xmlns:sodipodi="http://sodipodi.sourceforge.net/DTD/sodipodi-0.dtd"
   xmlns:inkscape="http://www.inkscape.org/namespaces/inkscape"
   viewBox="0 0 36 26"
   id="svg2"
   version="1.1"
   inkscape:version="0.91 r13725"
   sodipodi:docname="1f1f0-1f1ec.svg"
   width="36"
   height="26">
  <metadata
     id="metadata20">
    <rdf:RDF>
      <cc:Work
         rdf:about="">
        <dc:format>image/svg+xml</dc:format>
        <dc:type
           rdf:resource="http://purl.org/dc/dcmitype/StillImage" />
      </cc:Work>
    </rdf:RDF>
  </metadata>
  <defs
     id="defs18" />
  <sodipodi:namedview
     pagecolor="#ffffff"
     bordercolor="#666666"
     borderopacity="1"
     objecttolerance="10"
     gridtolerance="10"
     guidetolerance="10"
     inkscape:pageopacity="0"
     inkscape:pageshadow="2"
     inkscape:window-width="640"
     inkscape:window-height="480"
     id="namedview16"
     showgrid="false"
     inkscape:zoom="6.5555556"
     inkscape:cx="18"
     inkscape:cy="13"
     inkscape:window-x="0"
     inkscape:window-y="0"
     inkscape:window-maximized="0"
     inkscape:current-layer="svg2" />
  <path
     d="m 36,22 c 0,2.209 -1.791,4 -4,4 L 4,26 C 1.791,26 0,24.209 0,22 L 0,4 C 0,1.791 1.791,0 4,0 l 28,0 c 2.209,0 4,1.791 4,4 l 0,18 z"
     id="path4"
     inkscape:connector-curvature="0"
     style="fill:#e8112d" />
  <path
     d="m 18.473,6.986 c 0.014,-1.045 0.94,-1.764 0.979,-3.156 0.663,0.834 -0.433,2.397 -0.044,3.304 0.178,-1.029 1.203,-1.595 1.461,-2.963 0.525,0.928 -0.803,2.3 -0.561,3.256 0.336,-0.99 1.438,-1.387 1.906,-2.699 0.373,0.999 -1.152,2.146 -1.062,3.128 0.486,-0.924 1.637,-1.144 2.305,-2.367 0.213,1.045 -1.475,1.939 -1.539,2.924 0.625,-0.837 1.797,-0.875 2.647,-1.978 0.047,1.066 -1.76,1.684 -1.977,2.647 0.748,-0.729 1.91,-0.583 2.922,-1.54 -0.119,1.06 -2,1.389 -2.367,2.306 0.854,-0.603 1.98,-0.277 3.129,-1.063 -0.283,1.028 -2.193,1.059 -2.697,1.907 0.936,-0.462 1.996,0.036 3.256,-0.561 -0.441,0.97 -2.334,0.702 -2.965,1.461 0.998,-0.31 1.969,0.349 3.305,-0.044 -0.59,0.89 -2.414,0.328 -3.156,0.979 1.033,-0.15 1.889,0.651 3.269,0.473 -0.719,0.787 -2.435,-0.053 -3.269,0.473 1.045,0.014 1.764,0.941 3.154,0.978 -0.834,0.666 -2.396,-0.434 -3.303,-0.043 1.031,0.178 1.596,1.203 2.965,1.461 -0.928,0.525 -2.301,-0.803 -3.258,-0.561 0.99,0.336 1.389,1.438 2.699,1.906 -0.998,0.375 -2.144,-1.152 -3.129,-1.062 0.926,0.486 1.147,1.637 2.367,2.305 -1.045,0.213 -1.938,-1.475 -2.924,-1.539 0.838,0.625 0.875,1.797 1.979,2.647 -1.065,0.047 -1.686,-1.76 -2.647,-1.977 0.729,0.748 0.582,1.91 1.539,2.922 -1.061,-0.119 -1.389,-2 -2.305,-2.367 0.602,0.854 0.275,1.98 1.062,3.129 -1.029,-0.283 -1.059,-2.193 -1.906,-2.697 0.463,0.936 -0.037,1.996 0.561,3.256 -0.971,-0.441 -0.703,-2.334 -1.461,-2.965 0.309,0.998 -0.348,1.969 0.044,3.305 -0.89,-0.59 -0.328,-2.414 -0.979,-3.156 0.15,1.033 -0.651,1.889 -0.473,3.269 -0.787,-0.719 0.053,-2.435 -0.473,-3.269 -0.014,1.045 -0.94,1.764 -0.979,3.154 -0.665,-0.832 0.433,-2.396 0.043,-3.303 -0.177,1.031 -1.203,1.596 -1.46,2.965 -0.525,-0.928 0.803,-2.301 0.56,-3.256 -0.336,0.988 -1.438,1.387 -1.906,2.697 -0.374,-0.998 1.153,-2.144 1.063,-3.129 -0.487,0.926 -1.638,1.147 -2.305,2.367 -0.213,-1.045 1.475,-1.938 1.539,-2.922 -0.625,0.836 -1.796,0.873 -2.646,1.977 -0.048,-1.065 1.76,-1.686 1.977,-2.647 -0.748,0.729 -1.911,0.582 -2.923,1.539 0.12,-1.061 2.002,-1.389 2.367,-2.305 -0.853,0.602 -1.979,0.275 -3.128,1.062 0.284,-1.029 2.194,-1.059 2.698,-1.906 -0.937,0.463 -1.997,-0.035 -3.256,0.561 0.442,-0.971 2.333,-0.703 2.964,-1.461 -0.998,0.309 -1.967,-0.348 -3.304,0.043 0.588,-0.888 2.414,-0.328 3.155,-0.978 -1.034,0.15 -1.888,-0.652 -3.269,-0.473 0.72,-0.786 2.435,0.053 3.269,-0.473 -1.044,-0.014 -1.763,-0.94 -3.155,-0.979 0.834,-0.665 2.397,0.433 3.304,0.043 -1.03,-0.177 -1.595,-1.203 -2.963,-1.46 0.928,-0.526 2.3,0.803 3.256,0.56 C 11.438,10.355 11.041,9.253 9.729,8.785 10.728,8.411 11.875,9.938 12.857,9.848 11.932,9.361 11.713,8.21 10.49,7.543 11.535,7.33 12.429,9.018 13.414,9.082 12.577,8.457 12.539,7.286 11.436,6.436 12.501,6.389 13.12,8.196 14.083,8.413 13.354,7.665 13.5,6.502 12.543,5.49 13.602,5.61 13.932,7.492 14.849,7.857 14.245,7.004 14.572,5.879 13.786,4.729 14.814,5.013 14.845,6.923 15.693,7.427 15.231,6.49 15.729,5.43 15.132,4.172 c 0.97,0.441 0.702,2.332 1.461,2.963 -0.31,-0.998 0.349,-1.967 -0.044,-3.304 0.89,0.588 0.328,2.414 0.979,3.155 -0.151,-1.034 0.651,-1.888 0.473,-3.269 0.786,0.719 -0.054,2.435 0.472,3.269 z"
     id="path6"
     inkscape:connector-curvature="0"
     style="fill:#ffcc4d" />
  <path
     d="m 18.001,17.906 c 2.709,0 4.905,-2.197 4.905,-4.906 0,-2.71 -2.195,-4.905 -4.905,-4.905 -2.709,0 -4.905,2.196 -4.905,4.905 0,2.709 2.196,4.906 4.905,4.906 z"
     id="path8"
     inkscape:connector-curvature="0"
     style="fill:#e8112d" />
  <g
     id="g10"
     style="fill:#ffcc4d"
     transform="translate(0,-5)">
    <path
       d="m 18,13.451 c 1.252,0 2.377,0.536 3.16,1.393 -1.229,0.124 -2.271,0.414 -3.16,0.855 -0.889,-0.441 -1.932,-0.731 -3.159,-0.855 0.783,-0.857 1.908,-1.393 3.159,-1.393 z m -0.323,2.422 c -0.099,0.055 -0.195,0.112 -0.29,0.171 -0.797,-0.423 -1.752,-0.696 -2.887,-0.777 0.052,-0.073 0.106,-0.145 0.163,-0.214 1.179,0.105 2.174,0.387 3.014,0.82 z m 0.649,0 c 0.099,0.055 0.195,0.112 0.289,0.171 0.798,-0.423 1.752,-0.696 2.887,-0.777 -0.051,-0.073 -0.106,-0.145 -0.162,-0.214 -1.18,0.105 -2.174,0.387 -3.014,0.82 z m -3.969,-0.386 c -0.045,0.073 -0.088,0.148 -0.129,0.225 1.056,0.024 1.942,0.268 2.67,0.67 0.076,-0.058 0.154,-0.113 0.232,-0.167 -0.76,-0.415 -1.679,-0.674 -2.773,-0.728 z m -0.13,4.258 c -0.368,-0.633 -0.504,-1.232 -0.504,-2.016 0,-0.64 0.138,-1.244 0.388,-1.787 1.022,-0.007 1.877,0.216 2.575,0.604 -1.033,0.847 -1.872,1.839 -2.459,3.199 z m 2.03,1.888 c -0.192,-0.074 -0.401,-0.283 -0.579,-0.383 0.101,-1.607 0.853,-2.929 1.901,-4.041 0.078,0.076 0.153,0.152 0.225,0.233 -0.974,1.139 -1.6,2.617 -1.547,4.191 z m 5.389,-6.146 c 0.045,0.073 0.088,0.148 0.129,0.225 -1.057,0.024 -1.943,0.268 -2.67,0.67 -0.076,-0.058 -0.154,-0.113 -0.233,-0.167 0.761,-0.415 1.679,-0.674 2.774,-0.728 z"
       id="path12"
       inkscape:connector-curvature="0" />
    <path
       d="m 21.775,19.746 c 0.367,-0.633 0.504,-1.233 0.504,-2.017 0,-0.64 -0.139,-1.244 -0.389,-1.787 -1.021,-0.007 -1.877,0.216 -2.575,0.604 1.035,0.847 1.875,1.84 2.46,3.2 z m -3.774,-1.938 c 0.767,1.234 0.914,2.584 0.872,4.109 -0.333,0.082 -0.513,0.09 -0.872,0.09 -0.359,0 -0.539,-0.008 -0.872,-0.09 -0.042,-1.447 0.105,-2.828 0.872,-4.109 z m 1.739,3.825 c 0.191,-0.074 0.406,-0.221 0.584,-0.32 -0.101,-1.607 -0.854,-2.992 -1.902,-4.103 -0.077,0.076 -0.152,0.152 -0.224,0.233 0.976,1.138 1.595,2.616 1.542,4.19 z m -2.416,-4.652 c -0.091,-0.075 -0.194,-0.154 -0.293,-0.222 -1.085,0.962 -1.891,2.08 -2.343,3.595 0.167,0.191 0.164,0.332 0.362,0.49 0.28,-1.593 1.187,-2.812 2.274,-3.863 z m 1.355,0 c 0.091,-0.075 0.194,-0.154 0.293,-0.222 1.085,0.962 1.888,2.1 2.341,3.616 -0.168,0.191 -0.192,0.312 -0.392,0.47 -0.279,-1.594 -1.155,-2.813 -2.242,-3.864 z m -0.678,-0.927 c 0.054,0.032 0.239,0.148 0.286,0.179 -0.073,0.045 -0.24,0.158 -0.286,0.189 -0.045,-0.032 -0.213,-0.145 -0.286,-0.189 0.047,-0.031 0.232,-0.148 0.286,-0.179 z m -0.541,0.357 c -0.073,0.055 -0.184,0.14 -0.226,0.176 0.105,0.069 0.246,0.176 0.291,0.211 0.055,-0.047 0.163,-0.143 0.224,-0.187 -0.074,-0.055 -0.232,-0.169 -0.289,-0.2 z m 1.082,0 c 0.073,0.055 0.184,0.14 0.226,0.176 -0.105,0.069 -0.246,0.176 -0.291,0.211 -0.054,-0.047 -0.163,-0.143 -0.224,-0.187 0.075,-0.055 0.233,-0.169 0.289,-0.2 z m -0.541,0.399 c 0.047,0.04 0.186,0.163 0.223,0.2 -0.066,0.058 -0.168,0.155 -0.223,0.216 -0.054,-0.061 -0.156,-0.158 -0.222,-0.216 0.036,-0.037 0.176,-0.159 0.222,-0.2 z"
       id="path14"
       inkscape:connector-curvature="0" />
  </g>
</svg>
