<?xml version="1.0" encoding="UTF-8" standalone="no"?>
<svg
   xmlns:dc="http://purl.org/dc/elements/1.1/"
   xmlns:cc="http://creativecommons.org/ns#"
   xmlns:rdf="http://www.w3.org/1999/02/22-rdf-syntax-ns#"
   xmlns:svg="http://www.w3.org/2000/svg"
   xmlns="http://www.w3.org/2000/svg"
   xmlns:sodipodi="http://sodipodi.sourceforge.net/DTD/sodipodi-0.dtd"
   xmlns:inkscape="http://www.inkscape.org/namespaces/inkscape"
   viewBox="0 0 36 26"
   id="svg2"
   version="1.1"
   inkscape:version="0.91 r13725"
   sodipodi:docname="1f1f3-1f1eb.svg"
   width="36"
   height="26">
  <metadata
     id="metadata16">
    <rdf:RDF>
      <cc:Work
         rdf:about="">
        <dc:format>image/svg+xml</dc:format>
        <dc:type
           rdf:resource="http://purl.org/dc/dcmitype/StillImage" />
      </cc:Work>
    </rdf:RDF>
  </metadata>
  <defs
     id="defs14" />
  <sodipodi:namedview
     pagecolor="#ffffff"
     bordercolor="#666666"
     borderopacity="1"
     objecttolerance="10"
     gridtolerance="10"
     guidetolerance="10"
     inkscape:pageopacity="0"
     inkscape:pageshadow="2"
     inkscape:window-width="640"
     inkscape:window-height="480"
     id="namedview12"
     showgrid="false"
     inkscape:zoom="6.5555556"
     inkscape:cx="18"
     inkscape:cy="13"
     inkscape:window-x="0"
     inkscape:window-y="0"
     inkscape:window-maximized="0"
     inkscape:current-layer="svg2" />
  <path
     d="M 4,0 C 1.791,0 0,1.791 0,4 l 0,18 c 0,2.209 1.791,4 4,4 l 8,0 0,-26 -8,0 z m 28,0 -8,0 0,26 8,0 c 2.209,0 4,-1.791 4,-4 L 36,4 C 36,1.791 34.209,0 32,0 Z"
     id="path4"
     inkscape:connector-curvature="0"
     style="fill:#007934" />
  <path
     d="m 12,0 12,0 0,26 -12,0 z"
     id="path6"
     inkscape:connector-curvature="0"
     style="fill:#eeeeee" />
  <path
     d="m 20.016,16.657 c 0.525,-0.04 1.344,0.185 1.946,0.131 0.601,-0.056 0.506,-0.097 0.308,-0.253 -0.199,-0.157 -0.369,-0.041 -0.471,0.06 -0.104,0.103 -0.28,0.096 -0.199,-0.007 0.082,-0.103 0.007,-0.149 -0.191,-0.137 -0.198,0.015 -0.342,0.083 -0.471,0.117 -0.13,0.034 -0.273,-0.056 -0.172,-0.102 0.104,-0.049 0.089,-0.089 0.007,-0.096 -0.082,-0.007 -0.088,-0.061 0.137,-0.097 0.226,-0.033 0.382,0.028 0.513,0.075 0.13,0.049 0.28,0.008 0.377,-0.06 0.095,-0.068 0.15,-0.144 0.265,-0.137 0.117,0.007 0.186,-0.055 0.035,-0.158 -0.149,-0.102 -0.368,-0.108 -0.499,-0.046 -0.13,0.061 -0.191,0.02 -0.24,-0.042 -0.046,-0.062 -0.232,-0.056 -0.415,0.027 -0.184,0.083 -0.31,0.188 -0.417,0.041 -0.055,-0.075 -0.431,0.014 -0.662,0.082 -0.233,0.068 -0.275,0 -0.084,-0.089 0.254,-0.117 0.409,-0.035 0.786,-0.178 0.254,-0.096 0.614,0.061 1.21,-0.28 0.143,-0.082 0.28,-0.164 -0.115,-0.178 -0.199,-0.007 -0.294,0.014 -0.362,0.103 -0.068,0.09 -0.15,0.068 -0.144,0 0.007,-0.068 -0.179,-0.115 -0.335,-0.014 -0.157,0.104 -0.273,0.191 -0.349,0.212 -0.075,0.021 -0.092,0.003 -0.075,-0.055 0.017,-0.058 -0.038,-0.051 -0.105,-0.007 -0.068,0.045 -0.185,0.102 -0.26,0.097 -0.075,-0.007 -0.157,-0.069 0.055,-0.179 0.212,-0.108 0.412,-0.244 0.734,-0.219 0.424,0.035 0.518,-0.141 0.724,-0.134 0.205,0.008 0.313,-0.149 0.038,-0.153 -0.276,-0.003 -0.358,0.059 -0.42,0.104 -0.061,0.043 -0.186,0.075 -0.165,-0.018 0.022,-0.093 -0.027,-0.093 -0.125,-0.048 -0.101,0.044 -0.343,0.075 -0.459,0.04 -0.115,-0.033 -0.226,-0.095 0.052,-0.108 0.276,-0.014 0.469,-0.146 0.704,-0.086 0.212,0.055 0.323,-0.054 0.401,-0.044 0.08,0.01 0.176,-0.059 0.035,-0.171 -0.14,-0.112 -0.492,-0.119 -0.615,-0.1 -0.122,0.021 -0.186,0 -0.163,-0.047 0.022,-0.048 -0.011,-0.068 -0.117,-0.064 -0.105,0.003 -0.4,0.071 -0.525,0.126 -0.164,0.071 -0.287,-0.039 -0.153,-0.126 0.088,-0.059 0.323,-0.13 0.453,-0.113 0.131,0.017 0.188,0.032 0.15,-0.059 -0.017,-0.04 -0.023,-0.092 0.117,-0.058 0.14,0.034 0.424,0.041 0.58,-0.048 0.157,-0.089 0.042,-0.191 -0.212,-0.185 -0.252,0.007 -0.799,0.081 -1.018,0.225 -0.219,0.144 -0.25,-0.01 -0.16,-0.058 0.089,-0.047 0.102,-0.082 0.054,-0.112 -0.047,-0.03 -0.045,-0.058 0.087,-0.106 0.252,-0.092 0.519,-0.065 0.832,-0.208 0.235,-0.107 0.479,-0.233 0.554,-0.416 0.075,-0.185 -0.041,-0.123 -0.179,-0.068 -0.135,0.054 -0.218,0.095 -0.218,0.191 0,0.096 -0.115,0.096 -0.108,-0.021 0.006,-0.116 -0.062,-0.17 -0.247,-0.095 -0.184,0.075 -0.649,0.246 -0.812,0.226 -0.164,-0.02 -0.232,-0.124 -0.062,-0.13 0.172,-0.007 0.403,-0.075 0.54,-0.123 0.137,-0.047 0.219,-0.123 0.115,-0.178 -0.102,-0.055 -0.026,-0.123 0.09,-0.123 0.115,0 0.252,-0.103 0.402,-0.082 0.15,0.021 0.32,-0.029 0.123,-0.144 -0.081,-0.047 -0.156,-0.109 -0.055,-0.164 0.103,-0.055 0.042,-0.205 -0.115,-0.225 -0.158,-0.021 -0.302,0.013 -0.384,0.041 -0.081,0.027 -0.15,0.02 -0.17,-0.048 -0.021,-0.069 -0.287,-0.062 -0.397,-0.034 -0.108,0.027 -0.32,0.014 -0.163,-0.062 0.157,-0.075 0.492,-0.123 0.655,-0.123 0.164,0 0.336,-0.041 0.424,-0.075 0.089,-0.034 0.11,-0.212 -0.088,-0.212 -0.199,0 -0.457,0.014 -0.411,-0.061 0.049,-0.076 -0.123,-0.123 -0.313,-0.082 -0.191,0.04 -0.452,0.082 -0.3,-0.021 0.15,-0.103 0.457,-0.212 0.601,-0.206 0.144,0.007 0.245,-0.02 0.15,-0.136 -0.096,-0.116 -0.034,-0.157 0.062,-0.171 0.095,-0.014 0.116,-0.13 -0.021,-0.157 -0.137,-0.027 -0.488,-0.107 -0.655,-0.013 -0.233,0.129 -0.41,0.123 -0.335,0.047 0.074,-0.075 0.022,-0.073 -0.098,-0.041 -0.271,0.075 -0.86,0.246 -1.023,0.233 -0.083,-0.007 -0.178,0.01 -0.176,-0.09 0.001,-0.091 0.066,-0.098 0.305,-0.136 0.479,-0.075 1.004,-0.225 1.23,-0.198 0.225,0.028 0.322,-0.006 0.26,-0.102 -0.062,-0.096 -0.24,-0.021 -0.163,-0.144 0.075,-0.123 -0.061,-0.11 -0.165,-0.116 -0.102,-0.007 -0.209,-0.048 -0.268,-0.102 -0.083,-0.08 -0.365,-0.034 -0.508,0.021 -0.144,0.055 -0.46,0.128 -0.583,0.12 -0.15,-0.01 -0.159,-0.01 -0.166,-0.12 -0.003,-0.056 0.016,-0.079 0.084,-0.106 0.156,-0.062 0.793,-0.086 0.991,-0.048 0.389,0.075 0.405,-0.069 0.323,-0.14 -0.105,-0.092 -0.443,-0.051 -0.656,-0.014 -0.212,0.038 -0.437,0.079 -0.495,0.027 -0.058,-0.051 0.007,-0.098 0.154,-0.126 0.178,-0.034 0.595,-0.011 0.66,-0.041 0.065,-0.031 0.13,-0.127 -0.015,-0.165 -0.143,-0.038 -0.481,0 -0.638,0.055 -0.158,0.055 -0.332,0.038 -0.37,-0.017 -0.038,-0.055 -0.023,-0.191 0.24,-0.17 0.262,0.021 0.745,0.014 0.83,0 0.087,-0.014 0.097,-0.075 0.052,-0.133 -0.044,-0.058 -0.099,-0.12 -0.049,-0.164 0.052,-0.044 0.032,-0.082 0.005,-0.119 -0.028,-0.038 0,-0.068 0.027,-0.093 C 19.415,9.099 19.452,9.041 19.354,9.059 19.187,9.09 18.927,9.004 18.795,9.056 18.661,9.107 18.359,9.142 18.261,9.128 18.217,9.121 18.193,9.032 18.275,9.022 18.418,9.004 18.702,8.963 18.808,8.909 18.913,8.854 19.023,8.814 19.157,8.817 19.289,8.82 19.376,8.77 19.246,8.708 19.115,8.647 18.904,8.664 18.78,8.722 18.658,8.78 18.436,8.893 18.316,8.876 18.197,8.859 18.185,8.789 18.231,8.64 18.255,8.561 18.412,8.555 18.522,8.575 18.631,8.596 18.953,8.514 19.075,8.541 19.198,8.568 19.308,8.52 19.172,8.418 19.035,8.315 18.912,8.35 18.775,8.404 18.639,8.459 18.338,8.534 18.257,8.459 18.175,8.384 18.155,8.192 18.308,8.261 18.475,8.336 18.892,8.2 19.004,8.258 c 0.113,0.058 0.171,-0.051 0.061,-0.102 -0.108,-0.051 -0.43,-0.003 -0.538,0.021 -0.185,0.042 -0.26,0.055 -0.26,-0.051 0,-0.072 0.211,-0.061 0.27,-0.045 0.151,0.041 0.373,-0.146 0.509,-0.112 0.136,0.034 0.113,-0.042 0.042,-0.096 -0.072,-0.054 -0.343,-0.027 -0.438,0.034 -0.095,0.062 -0.26,0.1 -0.321,0.096 -0.061,-0.004 -0.088,-0.021 -0.088,-0.13 0,-0.109 0.059,-0.141 0.14,-0.181 0.133,-0.065 0.155,-0.164 0.054,-0.14 -0.157,0.038 -0.211,0.089 -0.211,-0.123 0,-0.096 0.013,-0.182 0.139,-0.208 C 18.49,7.193 18.514,7.108 18.473,7.088 18.431,7.067 18.38,7.118 18.318,7.143 18.257,7.167 18.215,7.191 18.209,7.02 18.206,6.921 18.264,6.89 18.321,6.887 18.38,6.884 18.438,6.842 18.465,6.805 18.493,6.767 18.465,6.716 18.377,6.754 18.288,6.792 18.204,6.802 18.203,6.703 18.2,6.481 18.172,5.972 18.165,5.852 18.158,5.732 18.073,5.702 18.073,5.838 c 0,0.137 -0.008,0.629 -0.027,0.861 -0.007,0.082 -0.055,0.089 -0.124,0.048 -0.068,-0.041 -0.266,-0.014 -0.129,0.048 0.136,0.061 0.225,0.082 0.232,0.191 0.007,0.109 -0.054,0.123 -0.171,0.068 C 17.738,6.999 17.588,7.02 17.8,7.15 18.012,7.279 18.025,7.287 18.018,7.423 18.012,7.56 17.942,7.547 17.807,7.485 17.642,7.409 17.507,7.471 17.698,7.56 17.889,7.649 18.019,7.765 18.012,7.888 18,8.009 17.91,8.07 17.767,7.893 17.623,7.715 17.392,7.626 17.221,7.647 17.05,7.668 17.139,7.749 17.337,7.825 17.536,7.9 17.856,8.05 17.932,8.133 18.007,8.215 17.966,8.283 17.788,8.208 17.61,8.133 17.213,7.982 17.084,8.03 c -0.13,0.048 -0.184,0.123 0.035,0.13 0.218,0.007 0.598,0.069 0.758,0.13 0.199,0.075 0.226,0.232 0.034,0.177 C 17.72,8.413 17.187,8.303 17.03,8.399 c -0.157,0.096 -0.205,0.192 0.062,0.15 0.267,-0.041 0.602,-0.042 0.752,0.021 0.082,0.034 0.15,0.041 0.144,0.157 C 17.981,8.843 17.892,8.843 17.729,8.775 17.564,8.707 17.072,8.577 16.922,8.7 c -0.15,0.123 -0.116,0.144 0.096,0.109 0.212,-0.034 0.534,-0.003 0.69,0.027 0.318,0.062 0.294,0.117 0.089,0.117 -0.205,0 -0.813,0.027 -0.956,-0.028 -0.144,-0.054 -0.355,-0.089 -0.438,-0.054 -0.082,0.034 -0.014,0.068 0.054,0.068 0.069,0 0.124,0.055 0.075,0.102 -0.047,0.047 -0.075,0.136 0.117,0.102 0.191,-0.034 0.465,-0.034 0.608,0.021 0.143,0.055 0.361,0.117 0.539,0.136 0.191,0.021 0.198,0.027 0.191,0.171 C 17.982,9.577 17.762,9.512 17.55,9.375 17.338,9.238 16.928,9.164 16.737,9.293 c -0.191,0.13 -0.082,0.157 0.096,0.123 0.178,-0.034 0.67,0.055 0.854,0.116 0.184,0.062 0.297,0.021 0.287,0.191 -0.007,0.102 -0.11,0.049 -0.267,-0.014 -0.478,-0.191 -1.054,-0.208 -1.243,-0.185 -0.134,0.017 -0.154,0.03 -0.11,0.068 0.033,0.027 0.008,0.079 -0.072,0.099 -0.082,0.02 -0.188,0.055 -0.238,0.096 -0.052,0.041 -0.048,0.082 0.099,0.068 0.147,-0.013 0.294,0.011 0.208,0.068 -0.085,0.058 -0.193,0.136 -0.023,0.151 0.437,0.038 1.072,0.311 1.291,0.434 0.219,0.123 0.277,0.133 0.273,0.246 -0.003,0.113 -0.122,0.095 -0.25,0.027 -0.399,-0.211 -0.796,-0.163 -1.001,-0.307 -0.205,-0.144 -0.505,-0.301 -0.696,-0.178 -0.191,0.123 -0.157,0.198 0.013,0.178 0.171,-0.02 0.355,0.007 0.287,0.096 -0.068,0.089 -0.115,0.146 0.164,0.185 0.39,0.055 1.025,0.3 1.237,0.389 0.212,0.089 0.294,0.15 0.116,0.178 -0.178,0.027 -0.185,-0.099 -0.465,-0.109 -0.177,-0.007 -0.403,-0.103 -0.526,-0.198 -0.122,-0.095 -0.205,-0.144 -0.409,-0.123 -0.206,0.021 -0.499,0.055 -0.608,0.117 -0.109,0.061 -0.151,0.15 0.027,0.157 0.178,0.007 0.26,0.116 0.124,0.164 -0.137,0.048 -0.28,0.075 -0.328,0.13 -0.048,0.055 0.02,0.103 0.205,0.103 0.185,0 0.472,0.061 0.725,0.185 0.252,0.123 0.983,0.492 1.182,0.505 0.198,0.014 0.219,0.041 0.212,0.144 -0.007,0.103 -0.076,0.082 -0.239,0.034 -0.164,-0.048 -0.629,-0.191 -0.779,-0.321 -0.15,-0.13 -0.304,-0.253 -0.44,-0.259 -0.137,-0.007 -0.099,0.038 -0.052,0.089 0.048,0.051 0.044,0.177 -0.047,0.092 -0.147,-0.137 -0.253,-0.283 -0.447,-0.287 -0.195,-0.003 -0.379,0 -0.478,0.055 -0.1,0.055 -0.087,0.134 0.099,0.16 0.219,0.031 0.455,0.099 0.564,0.164 0.109,0.065 0.061,0.13 -0.041,0.123 -0.103,-0.007 -0.079,0.051 0.034,0.119 0.113,0.068 0.181,0.16 0.095,0.182 -0.123,0.03 -0.338,-0.216 -0.437,-0.202 -0.068,0.01 -0.014,0.058 0.044,0.096 0.059,0.038 0.06,0.163 -0.034,0.092 -0.129,-0.1 -0.304,-0.229 -0.502,-0.157 -0.198,0.072 -0.293,0.157 -0.126,0.229 0.167,0.072 0.288,0.138 0.208,0.239 -0.039,0.048 -0.074,0.12 0.163,0.137 0.147,0.01 0.311,0.068 0.383,0.147 0.072,0.078 -0.021,0.11 -0.109,0.072 -0.089,-0.038 -0.287,-0.058 -0.383,0.031 -0.096,0.088 10e-4,0.15 0.195,0.173 0.546,0.065 1.127,0.243 1.448,0.271 0.321,0.026 0.588,0.104 0.724,0.157 0.181,0.071 0.086,0.273 -0.047,0.205 -0.188,-0.097 -0.318,-0.153 -0.39,-0.168 -0.072,-0.013 -0.072,0.014 -0.059,0.079 0.014,0.064 -0.068,0.098 -0.146,0.023 -0.079,-0.075 -0.318,-0.218 -0.465,-0.242 -0.146,-0.025 -0.126,0.003 -0.102,0.05 0.024,0.048 0.014,0.13 -0.082,0.035 -0.096,-0.096 -0.396,-0.233 -0.574,-0.222 -0.116,0.007 -0.091,0.044 -0.068,0.092 0.024,0.048 -0.037,0.15 -0.109,0.052 -0.072,-0.1 -0.225,-0.238 -0.406,-0.13 -0.075,0.044 -0.15,0.106 -0.26,0.127 -0.11,0.02 -0.086,0.083 0.064,0.115 0.393,0.085 0.546,-0.024 0.807,0.079 0.198,0.079 0.372,0.102 0.447,0.109 0.075,0.007 0.13,0.052 0.045,0.078 -0.086,0.028 -0.079,0.092 0.013,0.175 0.093,0.082 0.019,0.209 -0.062,0.112 -0.147,-0.178 -0.362,-0.115 -0.44,-0.201 -0.079,-0.086 -0.113,-0.075 -0.113,-0.007 0,0.068 -0.039,0.086 -0.113,0.027 -0.263,-0.204 -0.591,-0.164 -0.731,-0.068 -0.14,0.096 -0.109,0.128 0.144,0.168 0.714,0.112 1.602,0.263 2.367,0.583 0.415,0.174 0.39,0.212 0.37,0.264 -0.021,0.051 -0.101,0.063 -0.267,-0.048 -0.188,-0.127 -0.689,-0.202 -0.912,-0.339 -0.222,-0.136 -0.287,-0.064 -0.226,0.022 0.062,0.085 0.039,0.174 -0.088,0.061 -0.127,-0.113 -0.39,-0.257 -0.539,-0.26 -0.15,-0.003 -0.038,0.061 0.038,0.112 0.075,0.051 0.092,0.208 -0.038,0.126 -0.13,-0.081 -0.517,-0.297 -0.817,-0.222 -0.3,0.075 -0.256,0.12 -0.102,0.219 0.154,0.099 0.298,0.171 0.626,0.161 0.328,-0.011 0.642,0.051 0.789,0.147 0.146,0.096 0.01,0.119 -0.089,0.061 -0.099,-0.058 -0.365,-0.102 -0.475,-0.088 -0.109,0.013 -0.059,0.064 -0.014,0.116 0.044,0.051 -0.007,0.212 -0.096,0.112 -0.089,-0.099 -0.331,-0.215 -0.478,-0.249 -0.321,-0.075 -0.464,0.073 -0.324,0.123 0.085,0.03 0.129,0.075 0.078,0.144 -0.052,0.068 -0.079,0.146 0.095,0.119 0.407,-0.062 1.156,-0.049 1.568,0.082 0.355,0.113 0.277,0.188 0.184,0.182 -0.092,-0.007 -0.191,-0.056 -0.144,0.033 0.048,0.089 0.044,0.169 -0.075,0.086 -0.246,-0.171 -0.587,-0.235 -0.745,-0.229 -0.085,0.003 -0.047,0.049 -0.01,0.097 0.037,0.047 -0.017,0.13 -0.109,0.058 -0.092,-0.071 -0.263,-0.174 -0.375,-0.178 -0.113,-0.003 -0.109,0.034 -0.059,0.085 0.051,0.052 0.04,0.141 -0.065,0.065 -0.157,-0.112 -0.406,-0.232 -0.587,-0.219 -0.181,0.014 -0.1,0.102 0.065,0.171 0.31,0.13 0.638,0.211 0.871,0.233 0.232,0.02 0.437,0.085 0.533,0.091 0.095,0.007 0.136,0.06 0.006,0.075 -0.177,0.021 -0.464,-0.107 -0.608,-0.04 -0.075,0.034 0.019,0.084 0.031,0.108 0.024,0.049 0.014,0.174 -0.078,0.099 -0.28,-0.229 -0.455,-0.197 -0.554,-0.27 -0.099,-0.071 -0.201,-0.03 -0.137,0.051 0.066,0.083 -0.072,0.059 -0.177,-0.006 -0.106,-0.065 -0.284,-0.108 -0.396,-0.075 -0.113,0.035 -0.164,0.075 0.068,0.198 0.232,0.123 0.42,0.215 0.657,0.26 0.235,0.044 0.266,0.183 0.136,0.167 -0.129,-0.017 -0.152,0.058 -0.064,0.123 0.041,0.03 0.068,0.116 0.061,0.168 -0.007,0.051 -0.086,0.041 -0.188,-0.072 -0.246,-0.273 -0.789,-0.294 -1.059,-0.215 -0.27,0.078 -0.157,0.208 0.038,0.392 0.195,0.185 0.376,0.379 0.881,0.317 0.505,-0.061 1.4,-0.252 1.811,-0.143 0.41,0.108 0.364,0.295 0.239,0.315 -0.225,0.033 -0.219,-0.186 -0.45,-0.199 -0.233,-0.013 -0.308,0.103 -0.383,0.185 -0.075,0.082 -0.131,0.154 -0.369,0.041 -0.301,-0.144 -0.533,0.061 -0.663,0.034 0.123,0.068 0.328,0.226 0.274,0.287 -0.055,0.062 -0.144,-0.062 -0.328,-0.13 -0.184,-0.068 -0.458,-0.082 -0.663,0.041 -0.205,0.123 0.007,0.246 0.232,0.301 0.226,0.055 0.718,0.055 1.121,-0.055 0.403,-0.109 0.902,-0.187 1.086,-0.191 0.137,-0.004 0.199,0.071 0.106,0.157 0.14,0.041 0.305,0.001 0.393,-0.055 0.226,-0.144 0.195,0 0.146,0.089 0.148,0.01 0.404,-0.174 0.506,-0.106 0.03,0.618 -0.011,1.868 -0.011,2.299 0,0.075 0.055,0.062 0.431,0.062 0.455,0 0.479,0.034 0.464,-0.186 -0.013,-0.213 -0.144,-1.488 -0.102,-1.953 0.042,-0.465 0.171,-0.431 0.335,-0.396 0.164,0.034 0.554,0.157 0.746,0.15 -0.123,-0.13 -0.137,-0.219 -0.021,-0.191 0.116,0.027 0.267,-0.021 0.368,-0.109 -0.088,-0.007 -0.149,-0.123 0.009,-0.15 0.156,-0.027 0.21,0.055 0.483,0.144 0.273,0.089 1.302,0.292 1.887,-0.082 0.171,-0.109 0.034,-0.157 -0.178,-0.157 -0.212,0 -0.32,0.048 -0.424,0.089 -0.103,0.041 -0.195,0.071 -0.174,-0.01 0.021,-0.082 -0.163,-0.113 -0.328,-0.038 -0.164,0.075 -0.304,0.109 -0.263,0.021 0.04,-0.089 -0.024,-0.109 -0.243,-0.096 -0.19,0.012 -0.758,-0.051 -0.734,-0.142 0.014,-0.056 0.122,-0.082 0.311,-0.041 0.447,0.095 1.444,0.123 1.747,0.103 0.49,-0.034 0.347,-0.186 0.16,-0.239 -0.188,-0.056 -0.4,-0.015 -0.447,0.044 -0.049,0.059 -0.211,0.096 -0.172,0.003 0.055,-0.13 -0.216,-0.16 -0.454,-0.03 -0.163,0.089 -0.195,0.044 -0.137,-0.027 0.059,-0.072 -0.038,-0.121 -0.222,-0.105 -0.264,0.02 -0.742,0.026 -0.926,-0.052 -0.209,-0.091 -0.16,-0.119 0.189,-0.147 z M 18.388,9.542 c -0.061,0.017 -0.126,0.044 -0.126,-0.027 0,-0.075 0.075,-0.044 0.126,-0.038 0.052,0.007 0.122,0.032 0,0.065 z M 18.385,9.221 c 0.052,0.017 0.164,0.031 0.236,0.014 0.072,-0.017 0.158,0.037 0.044,0.068 C 18.463,9.358 18.256,9.402 18.252,9.276 18.25,9.198 18.334,9.204 18.385,9.221 Z M 17.801,9.16 C 17.69,9.113 17.726,9.061 17.78,9.041 17.835,9.021 17.95,9.027 17.944,9.147 17.941,9.218 17.849,9.18 17.801,9.16 Z m -1.855,7.69 c -0.058,-0.086 0.018,-0.031 0.137,0.003 0.071,0.02 0.141,0.068 0.137,0.126 -0.007,0.099 -0.216,-0.044 -0.274,-0.129 z m 1.377,-1.381 c 0.116,0.075 0.478,0.068 0.478,0.219 0,0.068 -0.075,0.027 -0.165,0.027 -0.088,0 -0.279,-0.076 -0.403,-0.184 -0.122,-0.11 -0.027,-0.137 0.09,-0.062 z m 0.457,1.475 c -0.016,0.138 -0.245,0.041 -0.417,-0.054 -0.171,-0.097 0.014,-0.137 0.089,-0.117 0.075,0.021 0.145,0.023 0.239,0 0.089,-0.019 0.11,0 0.089,0.171 z m -0.109,-0.395 c -0.123,0 -0.39,-0.102 -0.622,-0.199 -0.232,-0.095 -0.021,-0.15 0.116,-0.095 0.137,0.055 0.369,0.068 0.513,0.068 0.164,0 0.177,0.226 -0.007,0.226 z m -0.198,-3.143 c -0.198,-0.027 -0.376,-0.177 -0.916,-0.3 -0.225,-0.051 -0.171,-0.082 -0.014,-0.082 0.157,0 0.615,0.206 1.1,0.281 0.108,0.017 0.239,0.04 0.232,0.191 -0.005,0.149 -0.209,-0.063 -0.402,-0.09 z m 0.201,-0.56 c -0.122,-0.092 -0.536,-0.222 -0.69,-0.253 -0.153,-0.03 -0.239,-0.082 -0.092,-0.103 0.147,-0.021 0.348,0.024 0.529,0.117 0.1,0.051 0.271,0.126 0.342,0.126 0.072,0 0.126,-0.01 0.126,0.14 0.001,0.161 -0.091,0.065 -0.215,-0.027 z M 16.968,9.839 c 0.198,0.076 0.597,0.045 0.854,0.205 0.11,0.068 -0.041,0.082 -0.198,0.02 C 17.467,10.003 17.282,10.037 16.961,9.927 16.698,9.839 16.81,9.78 16.968,9.839 Z m 0.519,1.155 c -0.235,-0.085 -0.331,-0.157 -0.314,-0.194 0.017,-0.038 0.237,0.018 0.389,0.068 0.271,0.089 0.326,0.096 0.318,0.215 -0.007,0.096 -0.157,-0.003 -0.393,-0.089 z m -0.56,0.284 c 0.239,0 0.532,0.137 0.734,0.233 0.14,0.066 0.219,0.092 0.215,0.181 -0.003,0.075 -0.088,0.04 -0.157,-0.007 -0.068,-0.047 -0.55,-0.191 -0.782,-0.287 -0.233,-0.096 -0.249,-0.12 -0.01,-0.12 z m 0.977,0.772 c -0.007,0.061 -0.062,0.02 -0.116,0.02 -0.099,0 -0.349,-0.188 -0.684,-0.242 -0.165,-0.027 -0.362,-0.168 -0.543,-0.226 -0.181,-0.058 -0.04,-0.14 0.059,-0.083 0.063,0.037 0.15,0.059 0.331,0.092 0.181,0.034 0.574,0.182 0.701,0.267 0.058,0.041 0.267,0.029 0.252,0.172 z m 0.031,-1.636 c -0.007,0.109 -0.059,0.12 -0.127,0.058 -0.068,-0.061 -0.225,-0.106 -0.39,-0.154 -0.163,-0.048 -0.099,-0.15 0.028,-0.089 0.127,0.061 0.298,0.092 0.444,0.072 0.075,-0.011 0.048,0.051 0.045,0.113 z m 0.303,0.351 c 0.006,-0.157 0.021,-0.163 0.119,-0.143 0.112,0.023 0.455,0.01 0.592,-0.003 0.137,-0.014 0.249,0.038 0.017,0.082 -0.232,0.045 -0.407,0.093 -0.506,0.134 -0.098,0.04 -0.229,0.087 -0.222,-0.07 z m 1.354,3.208 c -0.097,0.102 -0.604,0.195 -0.909,0.335 -0.253,0.116 -0.301,0.082 -0.301,-0.075 0,-0.172 0.177,-0.068 0.267,-0.13 0.088,-0.062 0.628,-0.117 0.793,-0.205 0.162,-0.088 0.245,-0.028 0.15,0.075 z m -0.417,0.834 c -0.164,0.021 -0.314,0.108 -0.575,0.197 -0.259,0.09 -0.22,-0.051 -0.116,-0.115 0.109,-0.068 0.465,-0.15 0.663,-0.165 0.198,-0.013 0.191,0.062 0.028,0.083 z m -0.104,-1.046 c -0.054,0.055 -0.197,0.109 -0.396,0.156 -0.198,0.048 -0.294,0.042 -0.294,-0.075 0,-0.115 0.062,-0.082 0.205,-0.068 0.144,0.015 0.417,0.021 0.485,-0.013 z M 18.6,13.15 c -0.075,0.048 -0.238,0.072 -0.235,0 0.003,-0.072 0,-0.065 0.041,-0.068 0.201,-0.017 0.375,-0.131 0.482,-0.14 0.163,-0.014 0.255,-0.027 0.16,0.044 -0.095,0.072 -0.373,0.116 -0.448,0.164 z m -0.14,-1.555 c 0.072,0.002 0.301,-0.04 0.408,-0.081 0.105,-0.041 0.112,-0.011 0.046,0.031 -0.065,0.041 -0.281,0.113 -0.375,0.144 -0.14,0.044 -0.208,0.061 -0.212,-0.028 -0.004,-0.079 0.014,-0.069 0.133,-0.066 z m 0.018,0.619 c 0.147,0.007 0.427,0 0.519,-0.055 0.094,-0.055 0.215,-0.051 0.267,-0.045 0.052,0.007 0.032,0.041 -0.059,0.096 -0.088,0.055 -0.398,0.058 -0.501,0.123 -0.103,0.064 -0.252,0.079 -0.318,0.082 -0.065,0.003 -0.075,0 -0.075,-0.075 -0.001,-0.116 0.02,-0.133 0.167,-0.126 z m -0.158,0.515 c 0.003,-0.079 0.011,-0.099 0.083,-0.099 0.191,0 0.512,-0.15 0.639,-0.153 0.127,-0.003 0.191,0.068 0.038,0.089 -0.155,0.02 -0.482,0.103 -0.551,0.146 -0.069,0.045 -0.213,0.096 -0.209,0.017 z m 0.26,0.657 c 0.19,0.027 0.212,0.095 -0.041,0.137 -0.123,0.02 -0.167,0.027 -0.177,-0.083 -0.008,-0.067 0.026,-0.082 0.218,-0.054 z m -0.089,1.202 c 0.096,0.005 0.302,-0.038 0.374,-0.059 0.128,-0.038 0.115,0.014 0.033,0.059 -0.082,0.044 -0.287,0.13 -0.441,0.112 -0.154,-0.016 -0.103,-0.119 0.034,-0.112 z m 0.315,2.391 c -0.089,-0.027 -0.15,-0.034 -0.24,-0.013 -0.088,0.02 -0.15,-0.056 -0.15,-0.15 0.089,0.067 0.308,-0.042 0.505,0.067 0.083,0.047 -0.027,0.123 -0.115,0.096 z m 0.088,-0.539 c -0.101,0 -0.253,0.109 -0.389,0.081 -0.137,-0.026 -0.123,-0.156 0.014,-0.122 0.109,0.026 0.191,-0.021 0.342,-0.056 0.15,-0.033 0.135,0.097 0.033,0.097 z m -0.403,-0.514 c 0.068,0 0.137,0 0.219,-0.026 0.083,-0.027 0.075,0.026 0.014,0.061 -0.062,0.033 -0.15,0.096 -0.239,0.068 -0.09,-0.027 -0.069,-0.103 0.006,-0.103 z m 0.055,-0.587 c -0.267,0.117 -0.183,-0.058 -0.055,-0.116 0.075,-0.034 0.437,-0.157 0.649,-0.239 0.212,-0.082 0.37,-0.082 0.527,-0.102 0.156,-0.021 0.156,0.007 0.046,0.137 -0.108,0.129 -0.232,0.089 -0.408,0.082 -0.179,-0.007 -0.493,0.122 -0.759,0.238 z m 0.942,0.212 c -0.17,0.007 -0.172,-0.053 -0.075,-0.082 0.068,-0.02 0.191,-0.041 0.24,-0.007 0.047,0.034 0.007,0.082 -0.165,0.089 z"
     id="path8"
     inkscape:connector-curvature="0"
     style="fill:#007934" />
  <path
     d="m 17.879,10.779 c 0,0.168 -0.136,0.304 -0.304,0.304 l -0.632,0 c -0.168,0 -0.304,-0.136 -0.304,-0.304 0,-0.168 0.136,-0.304 0.304,-0.304 l 0.632,0 c 0.168,0 0.304,0.136 0.304,0.304 z m 1.534,4.249 c 0,0.243 -0.197,0.441 -0.44,0.441 l -0.042,0 c -0.243,0 -0.441,-0.197 -0.441,-0.441 0,-0.243 0.197,-0.44 0.441,-0.44 l 0.042,0 c 0.243,0 0.44,0.197 0.44,0.44 z m -0.607,1.79 c 0,0.088 -0.072,0.16 -0.161,0.16 -0.089,0 -0.161,-0.072 -0.161,-0.16 l 0,-0.628 c 0,-0.088 0.072,-0.16 0.161,-0.16 0.089,0 0.161,0.072 0.161,0.16 l 0,0.628 z M 17.78,16.646 c 0,0.165 -0.133,0.298 -0.297,0.298 l -0.136,0 c -0.164,0 -0.297,-0.133 -0.297,-0.298 0,-0.164 0.133,-0.297 0.297,-0.297 l 0.136,0 c 0.164,0.001 0.297,0.133 0.297,0.297 z m 0.11,-4.335 c 0,0.24 -0.136,0.436 -0.304,0.436 -0.167,0 -0.304,-0.195 -0.304,-0.436 l 0,-0.478 c 0,-0.24 0.136,-0.436 0.304,-0.436 0.168,0 0.304,0.195 0.304,0.436 l 0,0.478 z m 0.717,-1.471 c 0,0.1 -0.081,0.182 -0.182,0.182 -0.1,0 -0.182,-0.082 -0.182,-0.182 l 0,-0.278 c 0,-0.101 0.081,-0.182 0.182,-0.182 0.101,0 0.182,0.082 0.182,0.182 l 0,0.278 z m 2.589,6.148 c 0,0.185 -0.129,0.335 -0.289,0.335 l -0.601,0 c -0.16,0 -0.29,-0.149 -0.29,-0.335 0,-0.185 0.13,-0.334 0.29,-0.334 l 0.601,0 c 0.16,0 0.289,0.15 0.289,0.334 z m -4.632,0.53 c 0,0.159 -0.129,0.288 -0.288,0.288 l -0.709,0 c -0.159,0 -0.288,-0.129 -0.288,-0.288 0,-0.159 0.129,-0.288 0.288,-0.288 l 0.709,0 c 0.159,-0.001 0.288,0.128 0.288,0.288 z"
     id="path10"
     inkscape:connector-curvature="0"
     style="fill:#eeeeee" />
</svg>
