<?xml version="1.0" encoding="UTF-8" standalone="no"?>
<svg
   xmlns:dc="http://purl.org/dc/elements/1.1/"
   xmlns:cc="http://creativecommons.org/ns#"
   xmlns:rdf="http://www.w3.org/1999/02/22-rdf-syntax-ns#"
   xmlns:svg="http://www.w3.org/2000/svg"
   xmlns="http://www.w3.org/2000/svg"
   xmlns:sodipodi="http://sodipodi.sourceforge.net/DTD/sodipodi-0.dtd"
   xmlns:inkscape="http://www.inkscape.org/namespaces/inkscape"
   viewBox="0 0 36 26"
   id="svg2"
   version="1.1"
   inkscape:version="0.91 r13725"
   sodipodi:docname="1f1ff-1f1f2.svg"
   width="36"
   height="26">
  <metadata
     id="metadata18">
    <rdf:RDF>
      <cc:Work
         rdf:about="">
        <dc:format>image/svg+xml</dc:format>
        <dc:type
           rdf:resource="http://purl.org/dc/dcmitype/StillImage" />
      </cc:Work>
    </rdf:RDF>
  </metadata>
  <defs
     id="defs16" />
  <sodipodi:namedview
     pagecolor="#ffffff"
     bordercolor="#666666"
     borderopacity="1"
     objecttolerance="10"
     gridtolerance="10"
     guidetolerance="10"
     inkscape:pageopacity="0"
     inkscape:pageshadow="2"
     inkscape:window-width="640"
     inkscape:window-height="480"
     id="namedview14"
     showgrid="false"
     inkscape:zoom="6.5555556"
     inkscape:cx="18"
     inkscape:cy="13"
     inkscape:window-x="0"
     inkscape:window-y="0"
     inkscape:window-maximized="0"
     inkscape:current-layer="svg2" />
  <path
     d="M 32,0 4,0 C 1.791,0 0,1.791 0,4 l 0,18 c 0,2.209 1.791,4 4,4 l 28,0 c 2.209,0 4,-1.791 4,-4 L 36,4 C 36,1.791 34.209,0 32,0 Z"
     id="path4"
     inkscape:connector-curvature="0"
     style="fill:#1a8a00" />
  <path
     d="m 31,26 1,0 c 2.209,0 4,-1.791 4,-4 l 0,-12 -5,0 0,16 z"
     id="path6"
     inkscape:connector-curvature="0"
     style="fill:#ef7d00" />
  <path
     d="m 26,10 5,0 0,16 -5,0 z"
     id="path8"
     inkscape:connector-curvature="0"
     style="fill:#141414" />
  <path
     d="m 21,10 5,0 0,16 -5,0 z"
     id="path10"
     inkscape:connector-curvature="0"
     style="fill:#de200f" />
  <path
     d="m 35.083,3.256 c -0.109,-0.021 -0.716,0.325 -0.716,0.325 0,0 0.564,-0.65 0.434,-0.65 -0.13,0 -0.866,0.346 -0.866,0.346 0,0 0.455,-0.563 0.303,-0.498 -0.152,0.065 -0.976,0.433 -1.604,0.696 0.088,-0.149 0.065,-0.372 0,-0.372 -0.064,0 -0.434,0.238 -0.997,0.369 -0.564,0.13 -1.408,0.607 -1.777,0.542 -0.368,-0.065 -1.105,0 -1.105,0 0,0 -0.216,-0.325 -0.043,-0.412 0.172,-0.087 0.304,0.13 0.304,0.13 0,0 0.304,-0.13 0.304,-0.314 0,-0.184 -0.521,-0.206 -0.521,-0.206 0,0 -0.218,-0.281 -0.563,-0.281 -0.91,0 -0.976,0.975 -0.976,0.975 0,0 -0.369,-0.13 -0.715,-0.217 C 26.198,3.602 25.591,3.646 24.985,3.277 24.379,2.908 23.988,2.779 24.724,3.559 23.64,3.19 23.078,2.454 22.925,2.773 c -0.152,0.32 0.412,0.699 0.412,0.699 0,0 -0.304,-0.086 -0.563,-0.325 -0.26,-0.239 -0.629,-0.39 -0.281,0.13 -0.455,-0.13 -0.13,0.347 -0.13,0.347 0,0 -0.369,0.108 0,0.368 0.368,0.26 1.04,0.369 1.04,0.369 0,0 -0.304,0.216 -0.109,0.303 0.195,0.087 0.521,0.022 0.521,0.022 0,0 -0.26,0.216 0,0.303 0.26,0.087 0.585,0 0.585,0 0,0 -0.108,0.217 0.151,0.314 0.261,0.098 0.673,-0.119 0.673,-0.119 0,0 -0.195,0.13 0,0.238 0.195,0.108 0.498,-0.119 0.498,-0.119 0,0 -0.173,0.292 0,0.336 0.173,0.043 0.455,-0.173 0.455,-0.173 0,0 -0.173,0.281 0,0.303 0.173,0.022 0.563,-0.195 0.563,-0.195 0,0 -0.238,0.303 0,0.303 0.239,0 0.521,-0.151 0.521,-0.151 0,0 -0.065,0.238 0.13,0.325 0.195,0.087 0.476,-0.152 0.476,-0.152 0,0 0.066,0.456 0.022,0.715 -0.043,0.26 0.281,0.065 0.281,0.065 0,0 -0.044,0.39 -0.304,0.369 -0.26,-0.022 -0.521,0.325 -0.433,0.412 0.087,0.087 0.433,-0.065 0.433,-0.065 0,0 -0.021,0.477 0.108,0.437 0.13,-0.04 0.347,-0.307 0.347,-0.307 0,0 0.13,0.347 0.218,0.304 0.087,-0.044 0.13,-0.238 0.13,-0.347 0,-0.109 0.237,-0.152 0.237,-0.152 0,0 0.065,0.433 0.152,0.349 0.088,-0.085 0.108,-0.371 0.238,-0.457 0.13,-0.086 0.087,0.498 0.217,0.455 0.131,-0.043 0.065,-0.434 0.022,-0.564 -0.043,-0.13 0.261,0.108 0.239,0 -0.021,-0.109 -0.261,-0.325 -0.261,-0.325 0,0 0.303,0.109 0.217,0 -0.086,-0.109 -0.13,-0.39 0,-0.329 0.13,0.061 0.239,-0.191 0.239,-0.191 0,0 0.346,0.26 0.562,0.173 0.216,-0.086 -0.281,-0.39 -0.281,-0.39 0,0 0.759,0.26 0.926,0.217 0.168,-0.044 -0.255,-0.325 -0.255,-0.325 0,0 0.477,0.108 0.564,0 0.086,-0.109 -0.31,-0.195 -0.31,-0.195 0,0 0.525,0.087 0.591,0 0.065,-0.087 -0.151,-0.195 -0.151,-0.195 0,0 0.866,-0.021 1.04,-0.325 0.867,0.022 1.82,-0.671 1.907,-0.823 0.086,-0.152 -0.151,-0.152 -0.151,-0.152 0,0 0.521,-0.412 0.455,-0.477 -0.065,-0.065 -0.347,0.086 -0.347,0.086 0,0 0.672,-0.585 0.564,-0.606 z m -6.436,3.727 c -0.28,0 -0.088,-0.151 -0.132,-0.303 -0.044,-0.152 0.152,-0.021 0.13,-0.152 -0.023,-0.13 0,-0.758 0,-0.758 0.217,0.217 0.325,0.499 0.304,0.715 -0.021,0.217 0.108,0.238 0.151,0.347 0.044,0.109 -0.172,0.151 -0.453,0.151 z"
     id="path12"
     inkscape:connector-curvature="0"
     style="fill:#ef7d00" />
</svg>
