<?xml version="1.0" encoding="UTF-8" standalone="no"?>
<svg
   xmlns:dc="http://purl.org/dc/elements/1.1/"
   xmlns:cc="http://creativecommons.org/ns#"
   xmlns:rdf="http://www.w3.org/1999/02/22-rdf-syntax-ns#"
   xmlns:svg="http://www.w3.org/2000/svg"
   xmlns="http://www.w3.org/2000/svg"
   xmlns:sodipodi="http://sodipodi.sourceforge.net/DTD/sodipodi-0.dtd"
   xmlns:inkscape="http://www.inkscape.org/namespaces/inkscape"
   viewBox="0 0 36 26"
   id="svg2"
   version="1.1"
   inkscape:version="0.91 r13725"
   sodipodi:docname="1f1f8-1f1e7.svg"
   width="36"
   height="26">
  <metadata
     id="metadata28">
    <rdf:RDF>
      <cc:Work
         rdf:about="">
        <dc:format>image/svg+xml</dc:format>
        <dc:type
           rdf:resource="http://purl.org/dc/dcmitype/StillImage" />
      </cc:Work>
    </rdf:RDF>
  </metadata>
  <defs
     id="defs26" />
  <sodipodi:namedview
     pagecolor="#ffffff"
     bordercolor="#666666"
     borderopacity="1"
     objecttolerance="10"
     gridtolerance="10"
     guidetolerance="10"
     inkscape:pageopacity="0"
     inkscape:pageshadow="2"
     inkscape:window-width="640"
     inkscape:window-height="480"
     id="namedview24"
     showgrid="false"
     inkscape:zoom="6.5555556"
     inkscape:cx="18"
     inkscape:cy="13"
     inkscape:window-x="0"
     inkscape:window-y="0"
     inkscape:window-maximized="0"
     inkscape:current-layer="svg2" />
  <path
     d="M 33.552,0.312 C 33.075,0.111 32.55,0 32,0 L 4,0 C 1.791,0 0,1.791 0,4 l 0,18 c 0,0.806 0.239,1.556 0.649,2.184 L 33.552,0.312 Z"
     id="path4"
     inkscape:connector-curvature="0"
     style="fill:#0051ba" />
  <path
     d="M 2.448,25.687 2.454,25.69 C 2.93,25.89 3.452,26 4,26 l 28,0 c 2.209,0 4,-1.791 4,-4 L 36,4 C 36,3.194 35.762,2.444 35.351,1.816 L 2.448,25.687 Z"
     id="path6"
     inkscape:connector-curvature="0"
     style="fill:#215b33" />
  <path
     d="m 0.651,24.189 c 0.434,0.662 1.059,1.188 1.797,1.499 L 35.351,1.816 35.35,1.814 C 34.916,1.151 34.291,0.624 33.552,0.313 L 0.649,24.184 0.651,24.189 Z"
     id="path8"
     inkscape:connector-curvature="0"
     style="fill:#fcd116" />
  <g
     id="g10"
     style="fill:#ffffff"
     transform="translate(0,-5)">
    <path
       d="m 7.069,12.021 0.01,0.007 -0.484,1.49 1.292,-0.939 1.293,0.939 -0.484,-1.49 0.009,-0.007 -0.009,-0.029 1.258,-0.915 -1.567,0 -0.5,-1.537 -0.499,1.537 -1.568,0 1.259,0.915 z"
       id="path12"
       inkscape:connector-curvature="0" />
    <path
       d="m 8.705,12.021 1.299,-0.944 -0.05,0 -1.258,0.915 z m -1.636,0 0.01,-0.029 -1.259,-0.915 -0.049,0 z M 6.595,13.518 6.579,13.566 7.887,12.615 9.195,13.566 9.18,13.518 7.887,12.579 Z M 2.676,8.255 2.686,8.262 2.201,9.753 3.494,8.814 4.787,9.753 4.302,8.262 4.312,8.255 4.302,8.226 5.561,7.312 l -1.567,0 -0.5,-1.538 -0.5,1.538 -1.567,0 1.259,0.914 z"
       id="path14"
       inkscape:connector-curvature="0" />
    <path
       d="M 2.201,9.753 2.186,9.8 3.494,8.85 4.802,9.8 4.787,9.753 3.494,8.814 Z M 2.676,8.255 2.686,8.226 1.427,7.312 l -0.049,0 z m 1.636,0 1.299,-0.943 -0.05,0 -1.259,0.914 z m 7.151,7.531 0.009,0.007 -0.484,1.491 1.293,-0.94 1.292,0.94 -0.484,-1.491 0.01,-0.007 -0.01,-0.029 1.258,-0.914 -1.567,0 -0.499,-1.538 -0.5,1.538 -1.567,0 1.258,0.914 z"
       id="path16"
       inkscape:connector-curvature="0" />
    <path
       d="m 13.099,15.786 1.298,-0.943 -0.05,0 -1.258,0.914 z m -1.636,0 0.009,-0.029 -1.258,-0.914 -0.05,0 z m -0.475,1.498 -0.015,0.047 1.308,-0.95 1.308,0.95 -0.016,-0.047 -1.292,-0.94 z m -8.312,-1.498 0.01,0.007 -0.485,1.491 1.293,-0.94 1.293,0.94 -0.485,-1.491 0.01,-0.007 -0.01,-0.029 1.259,-0.914 -1.567,0 -0.5,-1.538 -0.5,1.538 -1.567,0 1.259,0.914 z"
       id="path18"
       inkscape:connector-curvature="0" />
    <path
       d="m 4.312,15.786 1.299,-0.943 -0.05,0 -1.259,0.914 z m -2.111,1.498 -0.015,0.047 1.308,-0.95 1.308,0.95 -0.015,-0.047 -1.293,-0.94 z m 0.475,-1.498 0.01,-0.029 -1.259,-0.914 -0.049,0 z m 8.787,-7.531 0.009,0.007 -0.484,1.491 1.293,-0.939 1.292,0.939 -0.484,-1.491 0.01,-0.007 -0.01,-0.029 1.258,-0.914 -1.567,0 -0.499,-1.538 -0.5,1.538 -1.567,0 1.258,0.914 z"
       id="path20"
       inkscape:connector-curvature="0" />
    <path
       d="m 11.463,8.255 0.009,-0.029 -1.258,-0.914 -0.05,0 z m 1.636,0 1.298,-0.943 -0.05,0 -1.258,0.914 z M 10.988,9.753 10.973,9.8 12.281,8.85 13.589,9.8 13.573,9.753 12.281,8.814 Z"
       id="path22"
       inkscape:connector-curvature="0" />
  </g>
</svg>
