<?xml version="1.0" encoding="UTF-8" standalone="no"?>
<svg
   xmlns:dc="http://purl.org/dc/elements/1.1/"
   xmlns:cc="http://creativecommons.org/ns#"
   xmlns:rdf="http://www.w3.org/1999/02/22-rdf-syntax-ns#"
   xmlns:svg="http://www.w3.org/2000/svg"
   xmlns="http://www.w3.org/2000/svg"
   xmlns:sodipodi="http://sodipodi.sourceforge.net/DTD/sodipodi-0.dtd"
   xmlns:inkscape="http://www.inkscape.org/namespaces/inkscape"
   viewBox="0 0 36 26"
   id="svg2"
   version="1.1"
   inkscape:version="0.91 r13725"
   sodipodi:docname="1f1f1-1f1ee.svg"
   width="36"
   height="26">
  <metadata
     id="metadata22">
    <rdf:RDF>
      <cc:Work
         rdf:about="">
        <dc:format>image/svg+xml</dc:format>
        <dc:type
           rdf:resource="http://purl.org/dc/dcmitype/StillImage" />
      </cc:Work>
    </rdf:RDF>
  </metadata>
  <defs
     id="defs20" />
  <sodipodi:namedview
     pagecolor="#ffffff"
     bordercolor="#666666"
     borderopacity="1"
     objecttolerance="10"
     gridtolerance="10"
     guidetolerance="10"
     inkscape:pageopacity="0"
     inkscape:pageshadow="2"
     inkscape:window-width="640"
     inkscape:window-height="480"
     id="namedview18"
     showgrid="false"
     inkscape:zoom="6.5555556"
     inkscape:cx="18"
     inkscape:cy="13"
     inkscape:window-x="0"
     inkscape:window-y="0"
     inkscape:window-maximized="0"
     inkscape:current-layer="svg2" />
  <path
     d="m 36,22 c 0,2.209 -1.791,4 -4,4 L 4,26 C 1.791,26 0,24.209 0,22 L 0,4 C 0,1.791 1.791,0 4,0 l 28,0 c 2.209,0 4,1.791 4,4 l 0,18 z"
     id="path4"
     inkscape:connector-curvature="0"
     style="fill:#ce1b26" />
  <path
     d="M 32,0 4,0 C 1.791,0 0,1.791 0,4 l 0,9 36,0 0,-9 C 36,1.791 34.209,0 32,0 Z"
     id="path6"
     inkscape:connector-curvature="0"
     style="fill:#002b7f" />
  <path
     d="m 12.516,6.415 c 0,-0.744 -0.585,-1.334 -1.428,-1.334 -0.892,0 -1.873,0.3 -2.623,0.468 l -0.568,0 C 7.147,5.382 6.167,5.081 5.274,5.081 c -0.843,0 -1.428,0.59 -1.428,1.334 0,0.889 0.328,1.545 0.726,2.317 l 7.217,0 C 12.188,7.96 12.516,7.304 12.516,6.415 Z"
     id="path8"
     inkscape:connector-curvature="0"
     style="fill:#b28914" />
  <path
     d="M 7.826,5.408 7.803,5.736 C 7.177,5.641 6.29,5.291 5.462,5.291 c -0.764,0 -1.357,0.306 -1.357,1.077 0,0.76 0.322,1.451 0.75,2.153 L 4.41,8.732 C 4.013,7.96 3.685,7.303 3.685,6.415 3.685,5.671 4.269,4.94 5.276,4.94 c 0.891,0 1.801,0.301 2.55,0.468 z m 0.711,0 0.023,0.328 c 0.626,-0.095 1.513,-0.445 2.341,-0.445 0.765,0 1.357,0.306 1.357,1.077 0,0.76 -0.322,1.451 -0.75,2.153 l 0.445,0.211 C 12.35,7.96 12.678,7.303 12.678,6.415 12.678,5.671 12.094,4.94 11.087,4.94 10.196,4.94 9.286,5.241 8.537,5.408 Z M 8.181,2.026 7.919,2.518 8.181,3.008 8.444,2.518 Z m 0,1.242 L 7.919,3.758 8.181,4.25 8.444,3.758 Z M 7.246,3.138 7.66,3.4 8.072,3.138 7.66,2.875 Z m 1.045,0 L 8.703,3.4 9.117,3.138 8.703,2.875 Z"
     id="path10"
     inkscape:connector-curvature="0"
     style="fill:#ffd83d" />
  <path
     d="m 8.181,2.945 c 0.11,0 0.199,0.088 0.199,0.198 0,0.11 -0.089,0.199 -0.199,0.199 -0.109,0 -0.199,-0.088 -0.199,-0.199 0,-0.109 0.09,-0.198 0.199,-0.198 z m 0,0.936 c 0.294,0 0.533,0.238 0.533,0.533 0,0.293 -0.238,0.531 -0.533,0.531 -0.294,0 -0.532,-0.238 -0.532,-0.531 0,-0.294 0.238,-0.533 0.532,-0.533 z m 0,3.319 C 7.523,7.2 7.04,7.511 7.011,8.3 6.85,8.017 6.17,7.127 5.535,7.246 5.159,7.317 4.825,7.84 4.882,8.44 4.569,7.542 3.654,7.394 2.986,7.925 3.579,8.413 3.843,9.852 4.342,10.477 l 7.68,0 C 12.521,9.852 12.786,8.413 13.379,7.925 12.711,7.394 11.796,7.542 11.484,8.44 11.539,7.84 11.205,7.316 10.827,7.246 10.193,7.127 9.514,8.017 9.353,8.3 9.323,7.51 8.839,7.2 8.181,7.2 Z"
     id="path12"
     inkscape:connector-curvature="0"
     style="fill:#ffd83d" />
  <path
     d="m 11.718,10.253 c -0.591,-0.164 -1.95,-0.246 -3.537,-0.247 -1.057,0 -2.015,0.037 -2.71,0.11 -0.348,0.036 -0.629,0.082 -0.827,0.137 -0.194,0.058 -0.319,0.111 -0.329,0.224 0.009,0.112 0.132,0.175 0.326,0.249 0.591,0.211 1.951,0.386 3.539,0.386 1.058,0 2.017,-0.078 2.712,-0.192 0.348,-0.057 0.63,-0.123 0.827,-0.194 0.195,-0.073 0.317,-0.137 0.326,-0.249 -0.008,-0.114 -0.133,-0.167 -0.327,-0.224 z"
     id="path14"
     inkscape:connector-curvature="0" />
  <path
     d="m 7.715,5.383 c 0,0 0.585,0.084 0.931,0 0,0 0.135,1.197 0.252,1.641 0,0 -0.412,-0.117 -0.702,-0.117 -0.29,0 -0.733,0.117 -0.733,0.117 0,0 0.083,-0.539 0.146,-0.898 C 7.672,5.767 7.715,5.383 7.715,5.383 Z M 3.312,7.018 C 3.123,6.214 3.114,5.393 4.129,4.694 5.144,3.995 6.837,4.585 7.305,4.701 7.773,4.817 7.783,5.328 7.209,5.185 6.635,5.042 5.026,4.594 4.25,5.287 3.474,5.98 3.624,6.491 3.743,6.901 4.087,8.082 3.459,7.645 3.312,7.018 Z m 9.739,0.046 C 13.24,6.26 13.249,5.439 12.234,4.74 11.219,4.041 9.526,4.631 9.058,4.748 8.59,4.865 8.58,5.375 9.154,5.232 c 0.574,-0.143 2.183,-0.591 2.959,0.102 0.776,0.693 0.621,1.202 0.507,1.614 -0.261,0.945 0.283,0.743 0.431,0.116 z"
     id="path16"
     inkscape:connector-curvature="0"
     style="fill:#ffd83d" />
</svg>
