<?xml version="1.0" encoding="UTF-8" standalone="no"?>
<svg
   xmlns:dc="http://purl.org/dc/elements/1.1/"
   xmlns:cc="http://creativecommons.org/ns#"
   xmlns:rdf="http://www.w3.org/1999/02/22-rdf-syntax-ns#"
   xmlns:svg="http://www.w3.org/2000/svg"
   xmlns="http://www.w3.org/2000/svg"
   xmlns:sodipodi="http://sodipodi.sourceforge.net/DTD/sodipodi-0.dtd"
   xmlns:inkscape="http://www.inkscape.org/namespaces/inkscape"
   viewBox="0 0 36 26"
   id="svg2"
   version="1.1"
   inkscape:version="0.91 r13725"
   sodipodi:docname="1f1f9-1f1e8.svg"
   width="36"
   height="26">
  <metadata
     id="metadata54">
    <rdf:RDF>
      <cc:Work
         rdf:about="">
        <dc:format>image/svg+xml</dc:format>
        <dc:type
           rdf:resource="http://purl.org/dc/dcmitype/StillImage" />
      </cc:Work>
    </rdf:RDF>
  </metadata>
  <defs
     id="defs52" />
  <sodipodi:namedview
     pagecolor="#ffffff"
     bordercolor="#666666"
     borderopacity="1"
     objecttolerance="10"
     gridtolerance="10"
     guidetolerance="10"
     inkscape:pageopacity="0"
     inkscape:pageshadow="2"
     inkscape:window-width="640"
     inkscape:window-height="480"
     id="namedview50"
     showgrid="false"
     inkscape:zoom="6.5555556"
     inkscape:cx="18"
     inkscape:cy="13"
     inkscape:window-x="0"
     inkscape:window-y="0"
     inkscape:window-maximized="0"
     inkscape:current-layer="svg2" />
  <path
     d="M 32,0 4,0 C 3.795,0 3.593,0.015 3.396,0.045 L 3.392,1.799 0.662,1.795 C 0.244,2.427 0,3.185 0,4 l 0,18 c 0,2.209 1.791,4 4,4 l 28,0 c 2.209,0 4,-1.791 4,-4 L 36,4 C 36,1.791 34.209,0 32,0 Z"
     id="path4"
     inkscape:connector-curvature="0"
     style="fill:#00247d" />
  <path
     d="m 23,7 0,3.726 c 0,5.18 2.887,7.072 5.156,8.305 2.27,-1.233 4.802,-3.125 4.802,-8.305 L 32.958,7 23,7 Z"
     id="path6"
     inkscape:connector-curvature="0"
     style="fill:#ffffff" />
  <path
     d="m 28.156,18.43 c -2.202,-1.231 -4.739,-3.008 -4.739,-7.704 l 0,-3.059 9.196,0 0,3.059 c 0,4.696 -2.255,6.473 -4.457,7.704 z"
     id="path8"
     inkscape:connector-curvature="0"
     style="fill:#fec400" />
  <path
     d="m 29.953,15.984 c -0.062,-0.547 -0.516,-2.266 -1.047,-2.781 -0.531,-0.516 -0.75,-0.117 -0.75,-0.117 0,0 -0.219,-0.398 -0.75,0.117 -0.531,0.516 -0.984,2.234 -1.047,2.781 -0.063,0.547 0.062,0.672 0.344,0.672 0.125,0.266 0.609,0.312 0.609,0.312 0,0 0.547,0.359 0.844,0 0.297,0.359 0.844,0 0.844,0 0,0 0.484,-0.047 0.609,-0.312 0.282,0 0.407,-0.125 0.344,-0.672 z"
     id="path10"
     inkscape:connector-curvature="0"
     style="fill:#00a728" />
  <path
     d="m 28.953,12.576 c 0,0.476 0.126,0.861 -0.781,0.861 -0.907,0 -0.781,-0.386 -0.781,-0.861 0,-0.476 0.35,-0.862 0.781,-0.862 0.432,0 0.781,0.386 0.781,0.862 z"
     id="path12"
     inkscape:connector-curvature="0"
     style="fill:#f0082d" />
  <path
     d="m 26.484,11.953 c -0.25,0.422 -0.641,0.125 -0.812,-0.375 -0.171,-0.5 -0.859,-0.641 -1.109,-0.781 -0.25,-0.14 -0.312,-0.375 0,-0.547 0.312,-0.172 0.125,-0.391 0.344,-0.453 -0.281,-0.062 -0.533,0.094 -0.556,0 -0.022,-0.094 0.196,-0.354 0.556,-0.396 -0.297,-0.37 -0.125,-1.151 0,-1.167 0.125,-0.016 0.381,0.219 0.511,0.453 0.13,0.234 0.505,0.188 0.474,0.516 0.078,0.078 0.344,0.031 0.594,0.438 0.248,0.406 -0.002,2.312 -0.002,2.312 z"
     id="path14"
     inkscape:connector-curvature="0"
     style="fill:#ff9f3e" />
  <path
     d="m 26.596,11.891 c -0.354,0.027 -0.486,-0.281 -0.549,-0.734 -0.062,-0.453 -0.703,-0.284 -0.406,-0.962 0.297,-0.678 0.408,-0.267 0.438,-0.793 0.03,-0.526 0.202,-0.963 0.358,-0.963 0.156,0 0.359,0.484 0.438,0.688 0.079,0.204 0.379,0.156 0.51,0.859 0.131,0.703 -0.025,1.219 -0.197,1.375 -0.172,0.156 -0.25,0.179 -0.281,0.355 -0.032,0.175 -0.079,0.157 -0.311,0.175 z"
     id="path16"
     inkscape:connector-curvature="0"
     style="fill:#ff927f" />
  <path
     d="m 26.596,8.906 c 0.107,0.078 0.111,0.188 0,0.375 -0.111,0.188 0.072,0.375 0.082,0.688 0.01,0.312 -0.152,0.422 -0.118,0.578 0.034,0.156 0.284,0.453 0.253,0.812 -0.031,0.359 -0.105,0.469 -0.217,0.531 -0.111,0.062 -0.064,-0.188 -0.041,-0.422 0.023,-0.234 -0.133,-0.5 -0.211,-0.734 C 26.266,10.5 26.449,10.328 26.498,10.093 26.547,9.859 26.422,9.645 26.406,9.4 26.391,9.156 26.596,8.906 26.596,8.906 Z"
     id="path18"
     inkscape:connector-curvature="0"
     style="fill:#fe9de0" />
  <path
     d="M 30.219,9.5 C 30.266,9.156 30.25,8.625 30.141,8.438 30.032,8.25 29.86,8.141 29.969,8.11 30.078,8.079 30.594,8.626 30.313,9.735 30.031,10.844 30.219,9.5 30.219,9.5 Z"
     id="path20"
     inkscape:connector-curvature="0"
     style="fill:#ba5b1f" />
  <path
     d="M 30.164,9.404 C 29.953,9.281 29.68,8.968 29.707,8.797 c 0.027,-0.172 0.23,-0.484 0.262,-0.422 0.031,0.062 -0.094,0.256 0,0.511 0.094,0.255 0.14,0.269 0.267,0.439 0.126,0.171 -0.072,0.079 -0.072,0.079 z M 30.049,9.641 C 29.923,9.489 28.532,8.594 28.672,8.532 28.812,8.47 30.01,9.22 30.2,9.641 c 0.191,0.421 -0.151,0 -0.151,0 z"
     id="path22"
     inkscape:connector-curvature="0"
     style="fill:#ba5b1f" />
  <path
     d="M 29.969,9.906 C 29.46,9.401 28.203,9.312 28.266,9.234 c 0.063,-0.078 1.674,0.07 1.899,0.535 0.226,0.465 -0.196,0.137 -0.196,0.137 z"
     id="path24"
     inkscape:connector-curvature="0"
     style="fill:#ba5b1f" />
  <path
     d="M 29.934,10.173 C 29.36,9.875 28.356,9.812 28.264,9.828 c -0.092,0.016 0.969,-0.298 1.727,0.171 0.759,0.47 -0.057,0.174 -0.057,0.174 z m 0.035,0.421 C 29.375,10.328 28.5,10.406 28.344,10.5 c -0.156,0.094 0.453,-0.354 0.875,-0.31 0.422,0.044 0.83,0.132 0.946,0.213 0.116,0.081 0.011,0.283 -0.196,0.191 z"
     id="path26"
     inkscape:connector-curvature="0"
     style="fill:#ba5b1f" />
  <path
     d="M 30.315,9.401 C 30.243,9.017 30.242,8.693 29.727,8.732 c -0.515,0.039 -0.608,1.002 -0.479,2.346 0.128,1.344 -0.028,1.784 -0.052,1.861 -0.023,0.077 0.287,-0.267 0.265,-0.861 -0.022,-0.594 -0.153,-1.899 -0.111,-2.379 0.042,-0.48 0.275,-0.84 0.585,-0.746 0.31,0.095 0.24,0.336 0.231,0.629 -0.01,0.293 0.149,-0.181 0.149,-0.181 z"
     id="path28"
     inkscape:connector-curvature="0"
     style="fill:#ba5b1f" />
  <path
     d="m 30.656,11.9 c 0,0 0.156,-0.088 0.359,-1.15 0.203,-1.062 -0.234,-1.516 -0.625,-1.516 -0.391,0 -0.828,0.453 -0.625,1.516 0.203,1.062 0.359,1.15 0.359,1.15 0,0 -0.479,0.455 -0.411,0.676 0.067,0.221 0.677,0.226 0.677,0.226 0,0 0.609,-0.005 0.677,-0.226 C 31.135,12.355 30.656,11.9 30.656,11.9 Z"
     id="path30"
     inkscape:connector-curvature="0"
     style="fill:#ba5b1f" />
  <path
     d="M 30.567,9.5 C 30.52,9.156 30.536,8.625 30.645,8.438 30.754,8.251 30.926,8.141 30.817,8.11 30.708,8.079 30.192,8.626 30.473,9.735 30.755,10.844 30.567,9.5 30.567,9.5 Z"
     id="path32"
     inkscape:connector-curvature="0"
     style="fill:#ba5b1f" />
  <path
     d="m 30.622,9.404 c 0.211,-0.123 0.484,-0.436 0.457,-0.607 -0.027,-0.171 -0.23,-0.484 -0.262,-0.422 -0.031,0.062 0.094,0.256 0,0.511 -0.094,0.255 -0.14,0.269 -0.267,0.439 -0.126,0.171 0.072,0.079 0.072,0.079 z m 0.115,0.237 C 30.863,9.489 32.255,8.594 32.114,8.532 31.973,8.47 30.776,9.22 30.586,9.641 c -0.19,0.421 0.151,0 0.151,0 z"
     id="path34"
     inkscape:connector-curvature="0"
     style="fill:#ba5b1f" />
  <path
     d="m 30.817,9.906 c 0.509,-0.505 1.766,-0.594 1.703,-0.672 -0.063,-0.078 -1.674,0.07 -1.899,0.535 -0.225,0.465 0.196,0.137 0.196,0.137 z"
     id="path36"
     inkscape:connector-curvature="0"
     style="fill:#ba5b1f" />
  <path
     d="m 30.853,10.173 c 0.574,-0.298 1.578,-0.361 1.67,-0.345 0.092,0.016 -0.969,-0.298 -1.728,0.171 -0.759,0.47 0.058,0.174 0.058,0.174 z m -0.036,0.421 c 0.594,-0.266 1.469,-0.188 1.625,-0.094 0.156,0.094 -0.453,-0.354 -0.875,-0.31 -0.422,0.044 -0.83,0.132 -0.946,0.213 -0.116,0.081 -0.011,0.283 0.196,0.191 z"
     id="path38"
     inkscape:connector-curvature="0"
     style="fill:#ba5b1f" />
  <path
     d="m 30.472,9.401 c 0.072,-0.384 0.073,-0.708 0.588,-0.669 0.515,0.039 0.607,1.002 0.479,2.346 -0.128,1.344 0.028,1.784 0.052,1.861 0.024,0.077 -0.287,-0.267 -0.265,-0.861 0.022,-0.594 0.153,-1.899 0.111,-2.379 -0.042,-0.48 -0.275,-0.84 -0.585,-0.746 -0.31,0.095 -0.24,0.336 -0.231,0.629 0.009,0.293 -0.149,-0.181 -0.149,-0.181 z"
     id="path40"
     inkscape:connector-curvature="0"
     style="fill:#ba5b1f" />
  <path
     d="M 19,13 19,0 4,0 C 3.68,0 3.396,0.045 3.396,0.045 L 3.392,1.799 0.662,1.795 C 0.662,1.795 0.62,1.854 0.535,2 0.195,2.589 0,3.272 0,4 l 0,9 19,0 z"
     id="path42"
     inkscape:connector-curvature="0"
     style="fill:#00247d" />
  <path
     d="M 19,0 16.669,0 12,3.269 12,0 7,0 7,2.569 3.396,0.045 C 2.782,0.139 2.206,0.37 1.724,0.71 L 6.426,4 4.69,4 0.967,1.391 C 0.857,1.52 0.756,1.653 0.662,1.795 L 3.813,4 0,4 0,9 3.885,9 0,11.766 0,13 3.332,13 7,10.432 7,13 12,13 12,9.731 16.668,13 19,13 19,10.971 16.185,9 19,9 19,4 16.186,4 19,2.029 19,0 Z"
     id="path44"
     inkscape:connector-curvature="0"
     style="fill:#eeeeee" />
  <path
     d="m 11,0 -3,0 0,5 -8,0 0,3 8,0 0,5 3,0 0,-5 8,0 0,-3 -8,0 z"
     id="path46"
     inkscape:connector-curvature="0"
     style="fill:#cf1b2b" />
  <path
     d="M 19,0 17.539,0 12,3.879 12,4 13.571,4 19,0.198 Z M 1.724,0.71 C 1.443,0.905 1.19,1.133 0.967,1.391 L 4.69,4 6.425,4 1.724,0.71 Z M 6.437,9 0.734,13 2.461,13 7,9.822 7,9 Z M 19,12.802 19,11.582 15.313,9 13.57,9 Z"
     id="path48"
     inkscape:connector-curvature="0"
     style="fill:#cf1b2b" />
</svg>
