<?xml version="1.0" encoding="UTF-8" standalone="no"?>
<svg
   xmlns:dc="http://purl.org/dc/elements/1.1/"
   xmlns:cc="http://creativecommons.org/ns#"
   xmlns:rdf="http://www.w3.org/1999/02/22-rdf-syntax-ns#"
   xmlns:svg="http://www.w3.org/2000/svg"
   xmlns="http://www.w3.org/2000/svg"
   xmlns:sodipodi="http://sodipodi.sourceforge.net/DTD/sodipodi-0.dtd"
   xmlns:inkscape="http://www.inkscape.org/namespaces/inkscape"
   viewBox="0 0 36 26"
   id="svg2"
   version="1.1"
   inkscape:version="0.91 r13725"
   sodipodi:docname="1f1f2-1f1ed.svg"
   width="36"
   height="26">
  <metadata
     id="metadata16">
    <rdf:RDF>
      <cc:Work
         rdf:about="">
        <dc:format>image/svg+xml</dc:format>
        <dc:type
           rdf:resource="http://purl.org/dc/dcmitype/StillImage" />
      </cc:Work>
    </rdf:RDF>
  </metadata>
  <defs
     id="defs14" />
  <sodipodi:namedview
     pagecolor="#ffffff"
     bordercolor="#666666"
     borderopacity="1"
     objecttolerance="10"
     gridtolerance="10"
     guidetolerance="10"
     inkscape:pageopacity="0"
     inkscape:pageshadow="2"
     inkscape:window-width="640"
     inkscape:window-height="480"
     id="namedview12"
     showgrid="false"
     inkscape:zoom="6.5555556"
     inkscape:cx="18"
     inkscape:cy="13"
     inkscape:window-x="0"
     inkscape:window-y="0"
     inkscape:window-maximized="0"
     inkscape:current-layer="svg2" />
  <path
     d="m 36,22 c 0,2.209 -1.791,4 -4,4 L 4,26 C 1.791,26 0,24.209 0,22 L 0,4 C 0,1.791 1.791,0 4,0 l 28,0 c 2.209,0 4,1.791 4,4 l 0,18 z"
     id="path4"
     inkscape:connector-curvature="0"
     style="fill:#003893" />
  <path
     d="M 34.593,0.977 0.835,24.42 c 0.025,0.033 0.053,0.064 0.08,0.098 L 36,6 36,4 C 36,2.786 35.447,1.711 34.593,0.977 Z"
     id="path6"
     inkscape:connector-curvature="0"
     style="fill:#f4900c" />
  <path
     d="M 1.012,24.635 36,12 36,6 0.915,24.518 c 0.032,0.039 0.063,0.079 0.097,0.117 z"
     id="path8"
     inkscape:connector-curvature="0"
     style="fill:#eeeeee" />
  <path
     d="M 9,1.917 9.306,7.073 10.328,4.915 9.886,7.262 11.525,5.525 10.379,7.621 12.475,6.475 10.738,8.114 13.085,7.672 10.927,8.695 16.083,9 l -5.156,0.306 2.158,1.022 -2.347,-0.442 1.737,1.639 -2.096,-1.146 1.146,2.096 -1.639,-1.736 0.442,2.346 L 9.306,10.927 9,16.082 8.694,10.927 7.672,13.085 8.114,10.739 6.475,12.475 7.621,10.379 5.525,11.525 7.262,9.886 4.915,10.328 7.073,9.306 1.917,9 7.073,8.695 4.915,7.672 7.262,8.114 5.525,6.475 7.621,7.621 6.475,5.525 8.114,7.262 7.672,4.915 8.694,7.073 Z"
     id="path10"
     inkscape:connector-curvature="0"
     style="fill:#ffffff" />
</svg>
