<?xml version="1.0" encoding="UTF-8" standalone="no"?>
<svg
   xmlns:dc="http://purl.org/dc/elements/1.1/"
   xmlns:cc="http://creativecommons.org/ns#"
   xmlns:rdf="http://www.w3.org/1999/02/22-rdf-syntax-ns#"
   xmlns:svg="http://www.w3.org/2000/svg"
   xmlns="http://www.w3.org/2000/svg"
   xmlns:sodipodi="http://sodipodi.sourceforge.net/DTD/sodipodi-0.dtd"
   xmlns:inkscape="http://www.inkscape.org/namespaces/inkscape"
   viewBox="0 0 36 26"
   id="svg2"
   version="1.1"
   inkscape:version="0.91 r13725"
   sodipodi:docname="1f1f5-1f1f2.svg"
   width="36"
   height="26">
  <metadata
     id="metadata40">
    <rdf:RDF>
      <cc:Work
         rdf:about="">
        <dc:format>image/svg+xml</dc:format>
        <dc:type
           rdf:resource="http://purl.org/dc/dcmitype/StillImage" />
      </cc:Work>
    </rdf:RDF>
  </metadata>
  <defs
     id="defs38" />
  <sodipodi:namedview
     pagecolor="#ffffff"
     bordercolor="#666666"
     borderopacity="1"
     objecttolerance="10"
     gridtolerance="10"
     guidetolerance="10"
     inkscape:pageopacity="0"
     inkscape:pageshadow="2"
     inkscape:window-width="640"
     inkscape:window-height="480"
     id="namedview36"
     showgrid="false"
     inkscape:zoom="6.5555556"
     inkscape:cx="18"
     inkscape:cy="13"
     inkscape:window-x="0"
     inkscape:window-y="0"
     inkscape:window-maximized="0"
     inkscape:current-layer="svg2" />
  <path
     d="M 32,0 9.75,0 9.75,26 32,26 c 2.209,0 4,-1.791 4,-4 L 36,4 C 36,1.791 34.209,0 32,0 Z"
     id="path4"
     inkscape:connector-curvature="0"
     style="fill:#0092c8" />
  <path
     d="M 33.75,8.719 C 32.562,8.313 31.219,8.25 31.219,8.25 l -0.875,1.719 c 0,0 2.594,0.055 2.594,0.215 0,0.11 -0.59,1.088 -0.959,1.689 -0.189,-0.059 -0.421,-0.091 -0.697,-0.091 -1.125,0 -1.562,0.25 -2.031,0.938 -0.469,0.688 0,0.969 0,0.969 0,0 -0.58,1.287 -2.752,2.002 l 0.713,-2.463 c 0.813,-0.136 1.508,0.274 1.508,0.274 0,0 -0.531,-1.562 0.125,-3.906 C 29.5,7.25 31.937,5.5 31.937,5.5 l -2.726,0.806 0.694,-2.399 c 0,0 0.344,-0.75 0,-0.969 C 29.681,2.796 29.565,3.1 29.509,3.333 29.27,3.265 28.852,3.204 28.405,3.407 27.717,3.719 26.124,3.268 26.124,3.268 c 0,0 0.625,0.701 1.094,0.826 -0.5,0.25 -1.469,0.156 -1.469,0.156 0,0 1.188,0.688 1.984,0.438 0.529,-0.166 1.114,-0.18 1.451,-0.171 l -0.583,1.97 -2.478,0.733 c 0,0 -1.125,0.906 -1.5,3.562 -0.375,2.656 0.969,4.625 0.969,4.625 0,0 -0.141,-1.283 0.934,-1.918 l -0.706,2.39 c -0.299,0.07 -0.615,0.132 -0.964,0.177 -0.008,-0.019 -1.295,-2.907 -1.077,-5.337 0.219,-2.438 2.344,-4.928 2.344,-4.928 L 23.342,6.802 24.32,3.406 c 0,0 0.615,-0.406 0.084,-0.656 C 23.875,2.5 23.977,3.3 23.977,3.3 23.731,3.252 23.381,3.237 23.009,3.406 22.321,3.718 20.728,3.267 20.728,3.267 c 0,0 0.625,0.701 1.094,0.826 -0.5,0.25 -1.469,0.156 -1.469,0.156 0,0 1.188,0.688 1.984,0.438 0.514,-0.161 0.976,-0.185 1.241,-0.182 l -0.83,2.512 -2.53,0.919 c 0,0 -0.438,0.625 -1.344,2.438 -0.906,1.812 0.375,4.406 0.375,4.406 0,0 0.378,-0.574 1.178,-0.738 l -0.485,1.47 C 17.935,14.59 17.5,13 17.5,13 c 0,0 0.344,-0.062 0.344,-0.437 0,-0.361 -0.154,-0.546 -1.195,-0.56 l 0.252,-0.9 c 0.455,0.268 0.787,0.679 0.787,0.679 0,0 -0.438,-1.625 0.469,-3.25 0.906,-1.625 3.031,-3.031 3.125,-3.031 0.05,0 -1.553,0.456 -3.055,0.88 l 0.627,-2.236 c 0,0 0.459,-0.675 -0.041,-0.831 C 18.313,3.158 18.394,4.02 18.394,4.02 18.159,3.99 17.858,4 17.541,4.144 16.853,4.456 15.26,4.005 15.26,4.005 c 0,0 0.625,0.701 1.094,0.826 -0.5,0.25 -1.469,0.156 -1.469,0.156 0,0 1.187,0.688 1.984,0.438 0.461,-0.144 0.889,-0.177 1.171,-0.18 l -0.374,1.293 -1.979,0.557 c 0,0 -0.406,0.625 -0.875,2.125 -0.469,1.5 0.344,2.719 0.344,2.719 0,0 0.25,-1.062 1.031,-1.062 0.074,0 0.147,0.015 0.219,0.029 l -0.32,1.111 c -0.748,0.054 -0.867,0.259 -0.867,0.578 0,0.375 0.406,0.406 0.406,0.406 0,0 -0.094,0.656 0.156,1.469 0.25,0.812 -0.312,0.656 -1.25,0.188 -0.062,-0.03 -0.123,-0.047 -0.184,-0.069 L 14.353,14.583 12,13.531 c 0,0 -0.5,-0.719 -0.75,-0.219 -0.25,0.5 0.562,0.615 0.562,0.615 l 1.348,0.68 c -0.263,0.137 -0.394,0.357 -0.254,0.58 0.312,0.5 1,0 2.406,1.375 0.474,0.463 1.51,1.576 3.024,2.539 0.271,0.173 13.274,-0.395 13.182,-0.629 -0.227,-0.576 -0.719,-1.611 -1.394,-1.878 1.5,-1.344 1.594,-2.906 1.594,-2.906 0,0 0.406,0 0.75,-0.688 0.172,-0.345 0.156,-0.649 -0.044,-0.868 0.478,-0.928 1.653,-3.205 1.95,-3.725 C 34.75,7.75 34.375,7.438 33.75,8.719 Z m -10.5,7.437 c -0.995,0 -1.816,-0.134 -2.504,-0.341 l 0.512,-1.774 c 0.101,0.017 0.195,0.023 0.305,0.053 1.589,0.436 3.285,1.953 3.295,1.962 -0.485,0.063 -1.017,0.1 -1.608,0.1 z"
     id="path6"
     inkscape:connector-curvature="0"
     style="fill:#ffcc4d" />
  <path
     d="m 34.688,18.031 c -0.781,-0.562 -1.5,-0.375 -1.656,0.17 -0.156,0.545 -0.875,0.299 -1.656,-0.264 -0.781,-0.563 -1.312,-0.469 -1.469,0.156 -0.157,0.625 -1.031,0.562 -1.844,-0.031 -0.812,-0.594 -1.625,-0.156 -1.938,0.29 -0.312,0.446 -0.562,0.491 -1.566,-0.134 -1.004,-0.625 -1.715,-0.25 -1.996,0.281 -0.281,0.531 -0.688,0.406 -1.531,-0.17 -0.844,-0.576 -1.625,-0.361 -2.031,0 -0.406,0.361 -0.969,0.482 -1.719,0 -0.75,-0.482 -1.344,-0.455 -1.719,-0.068 -0.375,0.387 -0.812,0.957 -2,0.036 -1.188,-0.921 -1.812,-0.142 -2.406,0.265 C 10.562,18.969 10,17.938 10,17.938 l 0,0.656 c 0,0 0.562,1.031 1.156,0.625 0.594,-0.406 1.219,-1.186 2.406,-0.265 1.187,0.921 1.625,0.351 2,-0.036 0.375,-0.387 0.969,-0.414 1.719,0.068 0.75,0.482 1.312,0.361 1.719,0 0.406,-0.361 1.188,-0.576 2.031,0 0.844,0.576 1.25,0.701 1.531,0.17 0.281,-0.531 0.992,-0.906 1.996,-0.281 1.004,0.625 1.254,0.58 1.566,0.134 0.312,-0.446 1.125,-0.884 1.938,-0.29 0.812,0.594 1.688,0.656 1.844,0.031 0.156,-0.625 0.688,-0.719 1.469,-0.156 0.781,0.563 1.5,0.809 1.656,0.264 0.156,-0.545 0.875,-0.732 1.656,-0.17 C 35.468,19.25 36,19 36,19 l 0,-0.656 c 0,0 -0.531,0.25 -1.312,-0.313 z"
     id="path8"
     inkscape:connector-curvature="0" />
  <path
     d="m 34.688,18.688 c -0.781,-0.562 -1.5,-0.375 -1.656,0.17 -0.156,0.545 -0.875,0.299 -1.656,-0.264 -0.781,-0.563 -1.312,-0.469 -1.469,0.156 -0.157,0.625 -1.031,0.562 -1.844,-0.031 -0.812,-0.594 -1.625,-0.156 -1.938,0.29 -0.312,0.446 -0.562,0.491 -1.566,-0.134 -1.004,-0.625 -1.715,-0.25 -1.996,0.281 -0.281,0.531 -0.688,0.406 -1.531,-0.17 -0.844,-0.576 -1.625,-0.361 -2.031,0 -0.406,0.361 -0.969,0.482 -1.719,0 -0.75,-0.482 -1.344,-0.455 -1.719,-0.068 -0.375,0.387 -0.812,0.957 -2,0.036 -1.188,-0.921 -1.812,-0.142 -2.406,0.265 C 10.562,19.625 10,18.594 10,18.594 l 0,0.625 c 0,0 0.562,1.031 1.156,0.625 0.594,-0.406 1.219,-1.186 2.406,-0.265 1.187,0.921 1.625,0.351 2,-0.036 0.375,-0.387 0.969,-0.414 1.719,0.068 0.75,0.482 1.312,0.361 1.719,0 0.406,-0.361 1.188,-0.576 2.031,0 0.844,0.576 1.25,0.701 1.531,0.17 0.281,-0.531 0.992,-0.906 1.996,-0.281 1.004,0.625 1.254,0.58 1.566,0.134 0.312,-0.446 1.125,-0.884 1.938,-0.29 0.812,0.594 1.688,0.656 1.844,0.031 0.156,-0.625 0.688,-0.719 1.469,-0.156 0.781,0.563 1.5,0.809 1.656,0.264 0.156,-0.545 0.875,-0.732 1.656,-0.17 C 35.468,19.875 36,19.625 36,19.625 L 36,19 c 0,0 -0.531,0.25 -1.312,-0.312 z m -22.532,2.281 c 0.53,-0.601 1.344,-0.531 1.969,0 0.625,0.531 0.906,0.129 1.5,-0.217 0.594,-0.346 1.437,-0.367 1.625,0.128 0.188,0.495 -0.781,-0.179 -1.375,0.346 -0.594,0.524 -1.556,0.68 -2.25,0 -0.694,-0.68 -1.938,0.274 -1.469,-0.257 z m 6.969,0.12 c 0.571,0.194 1.344,0.255 2.031,-0.183 0.687,-0.438 1.188,-0.233 1.938,0.368 0.75,0.601 1.312,0.399 2,0 0.688,-0.399 1.25,-0.899 2.219,-0.462 0.969,0.438 1.438,0.482 1.812,0.335 0.375,-0.148 0,0.509 -0.938,0.352 -0.938,-0.156 -1.594,-0.75 -2.438,-0.188 -0.844,0.562 -1.938,1.088 -2.812,0.341 -0.875,-0.747 -1.344,-0.644 -1.875,-0.32 -0.531,0.323 -1.125,0.354 -1.438,0.198 -0.312,-0.155 -0.959,-0.597 -0.499,-0.441 z m 12.031,0 c 0.362,0.219 0.75,0.276 1.125,0 0.375,-0.276 0.75,-0.052 1.219,0.211 0.469,0.263 0.562,0.558 0,0.379 -0.562,-0.179 -0.781,-0.577 -1.219,-0.331 -0.438,0.246 -0.906,0.316 -1.125,0 -0.219,-0.317 -0.271,-0.423 0,-0.259 z m -16.094,1.474 c 0.514,-0.272 1.344,-0.656 1.937,0 0.594,0.656 0.875,0.312 1.344,0 0.469,-0.312 0.875,-0.688 1.594,-0.219 0.719,0.469 1.062,0.34 1.344,0.185 0.281,-0.154 0.531,-0.06 0,0.252 -0.531,0.312 -1.062,0.281 -1.469,-0.031 -0.406,-0.312 -0.75,-0.469 -1.281,0.062 -0.531,0.531 -1.219,0.69 -1.719,0.189 -0.5,-0.501 -0.656,-0.542 -1.156,-0.287 -0.5,0.255 -1.108,0.121 -0.594,-0.151 z m 9.563,0.151 c 0.629,-0.332 1.469,-0.901 2.156,-0.245 0.688,0.656 1.094,0.348 1.656,-0.029 0.562,-0.377 1.094,-0.922 1.906,-0.274 0.812,0.647 1.344,0.585 1.75,0.397 0.406,-0.188 0.219,0.172 -0.281,0.289 -0.5,0.117 -1.188,0.117 -1.656,-0.289 -0.469,-0.406 -0.906,-0.385 -1.406,0.151 -0.5,0.536 -1.75,0.686 -2.219,0.205 -0.469,-0.481 -1.062,-0.2 -1.5,-0.013 -0.438,0.187 -1.034,0.14 -0.406,-0.192 z M 11.5,23.21 c 0.373,-0.344 0.875,-0.21 1.5,0.415 0.625,0.625 0.906,0.5 1.469,0.188 0.563,-0.312 1.312,-0.375 1.625,-0.031 0.312,0.344 0.188,0.453 -0.188,0.289 -0.375,-0.164 -0.735,-0.258 -1.243,0.18 -0.507,0.438 -1.414,0.531 -1.851,0 C 12.374,23.72 12.124,23.407 11.781,23.532 11.437,23.656 11,23.67 11.5,23.21 Z m 8.656,0.609 c 0.364,-0.391 1.094,-0.712 1.812,0 0.719,0.712 0.844,0.618 1.406,0.243 0.562,-0.375 1.219,-0.805 1.906,-0.168 0.688,0.637 0.969,0.512 1.562,0.168 0.594,-0.344 1.125,-0.648 1.781,-0.168 0.656,0.48 1.156,0.605 1.719,0.262 0.562,-0.344 0.686,-0.191 0.156,0.25 -0.438,0.363 -1.231,0.5 -1.781,-0.031 -0.689,-0.665 -1.125,-0.469 -1.688,-0.062 -0.562,0.406 -1.438,0.5 -1.938,-0.031 -0.5,-0.531 -0.844,-0.375 -1.312,0 -0.469,0.375 -1.275,0.758 -1.844,-0.031 -0.569,-0.789 -1.125,-0.438 -1.406,-0.281 -0.279,0.155 -0.904,0.419 -0.373,-0.151 z"
     id="path10"
     inkscape:connector-curvature="0"
     style="fill:#bbddf5" />
  <path
     d="m 0,17 0,5 c 0,2.209 1.791,4 4,4 l 6,0 0,-9 -10,0 z"
     id="path12"
     inkscape:connector-curvature="0"
     style="fill:#ca0000" />
  <path
     d="M 8.141,19.641 C 7.735,19.797 7.36,19.75 6.86,19.179 6.759,19.064 6.648,18.988 6.534,18.93 c 0.241,0.057 0.549,0.172 0.81,0.195 0.516,0.047 1.031,-0.328 1.031,-0.328 0,0 -0.234,-0.188 -0.859,-0.359 C 7.005,18.297 6.148,18.402 5.85,18.806 5.608,18.82 5.376,18.869 5.188,18.892 4.862,18.931 4.485,18.783 4.485,18.783 c 0,0 -0.062,-0.766 -0.938,-0.766 -0.766,0 -0.781,0.703 -0.781,0.703 0,0 -0.391,0.188 -0.391,-0.363 0,-0.551 -0.438,-0.52 -0.82,-0.52 -0.382,0 -0.477,-0.023 -0.477,0.477 0,0.5 0.281,0.406 0.453,0.562 0,0 0.172,0.875 1.203,0.75 0.046,0.085 0.062,0.297 0.062,0.297 0,0 -0.187,0.052 -0.484,-0.016 -0.443,-0.101 -0.766,-0.156 -0.766,0.453 0,0.609 0.641,0.438 1.547,0.438 0.906,0 0.953,-0.562 0.953,-0.562 0,0 0.422,-0.125 0.922,-0.094 -0.125,0.109 -0.054,0.374 0.062,0.5 0.243,0.262 0.688,0.156 1.031,0.156 0.343,0 0.5,-0.266 0.422,-0.625 0.328,0.234 1.234,-0.203 1.125,0 -0.109,0.203 0.156,0.703 0.844,0.422 0.689,-0.283 0.095,-1.111 -0.311,-0.954 z"
     id="path14"
     inkscape:connector-curvature="0"
     style="fill:#ffcc4d" />
  <ellipse
     cx="3.3670001"
     cy="19.25"
     rx="0.289"
     ry="0.29699999"
     id="ellipse16" />
  <path
     d="m 3.367,18.695 c 0,0.073 -0.1,0.133 -0.223,0.133 -0.123,0 -0.223,-0.059 -0.223,-0.133 0,-0.073 0.1,-0.133 0.223,-0.133 0.124,10e-4 0.223,0.06 0.223,0.133 z"
     id="path18"
     inkscape:connector-curvature="0" />
  <ellipse
     cx="3.6559999"
     cy="18.695"
     rx="0.223"
     ry="0.133"
     id="ellipse20" />
  <path
     d="M 8.141,23.156 C 7.735,23.312 7.36,23.265 6.86,22.694 6.759,22.579 6.648,22.503 6.534,22.445 c 0.241,0.058 0.549,0.172 0.81,0.195 0.516,0.047 1.031,-0.328 1.031,-0.328 0,0 -0.234,-0.188 -0.859,-0.359 C 7.005,21.812 6.149,21.918 5.85,22.321 5.608,22.335 5.376,22.384 5.188,22.407 4.862,22.446 4.485,22.298 4.485,22.298 c 0,0 -0.062,-0.766 -0.938,-0.766 -0.766,0 -0.781,0.703 -0.781,0.703 0,0 -0.391,0.188 -0.391,-0.363 0,-0.551 -0.438,-0.52 -0.82,-0.52 -0.382,0 -0.477,-0.023 -0.477,0.477 0,0.5 0.281,0.406 0.453,0.562 0,0 0.172,0.875 1.203,0.75 0.046,0.085 0.062,0.297 0.062,0.297 0,0 -0.187,0.052 -0.484,-0.016 -0.443,-0.101 -0.766,-0.156 -0.766,0.453 0,0.609 0.641,0.438 1.547,0.438 0.906,0 0.953,-0.562 0.953,-0.562 0,0 0.422,-0.125 0.922,-0.094 -0.125,0.109 -0.054,0.374 0.062,0.5 0.243,0.262 0.688,0.156 1.031,0.156 0.343,0 0.5,-0.266 0.422,-0.625 0.328,0.234 1.234,-0.203 1.125,0 -0.109,0.203 0.156,0.703 0.844,0.422 C 9.141,23.828 8.547,23 8.141,23.156 Z"
     id="path22"
     inkscape:connector-curvature="0"
     style="fill:#ffcc4d" />
  <path
     d="m 3.656,22.766 c 0,0.164 -0.129,0.297 -0.289,0.297 -0.16,0 -0.289,-0.133 -0.289,-0.297 0,-0.164 0.129,-0.297 0.289,-0.297 0.16,0 0.289,0.133 0.289,0.297 z M 3.367,22.211 c 0,0.073 -0.1,0.133 -0.223,0.133 -0.123,0 -0.223,-0.06 -0.223,-0.133 0,-0.073 0.1,-0.133 0.223,-0.133 0.124,0 0.223,0.06 0.223,0.133 z m 0.512,0 c 0,0.073 -0.1,0.133 -0.223,0.133 -0.123,0 -0.223,-0.06 -0.223,-0.133 0,-0.073 0.1,-0.133 0.223,-0.133 0.123,0 0.223,0.06 0.223,0.133 z"
     id="path24"
     inkscape:connector-curvature="0" />
  <path
     d="m 0,9 10,0 0,8 -10,0 z"
     id="path26"
     inkscape:connector-curvature="0"
     style="fill:#eeeeee" />
  <path
     d="M 2.079,12.319 1.801,11.898 C 1.79,11.551 1.738,11.281 1.672,11.281 c -0.066,0 -0.118,0.269 -0.129,0.617 l -0.278,0.421 c -0.062,0.095 -0.011,0.173 0.116,0.173 l 0.191,0 c 0.024,0.155 0.059,0.257 0.099,0.257 0.04,0 0.075,-0.103 0.099,-0.257 l 0.191,0 c 0.129,10e-4 0.18,-0.077 0.118,-0.173 z M 1.805,10.85 c 0,0.237 -0.06,0.214 -0.133,0.214 -0.073,0 -0.133,0.023 -0.133,-0.214 0,-0.236 0.06,-0.428 0.133,-0.428 0.074,0 0.133,0.192 0.133,0.428 z m 0.194,0.48 c -0.237,0 -0.214,-0.06 -0.214,-0.133 0,-0.073 -0.023,-0.133 0.214,-0.133 0.236,0 0.428,0.059 0.428,0.133 0,0.074 -0.192,0.133 -0.428,0.133 z m -0.653,0 c 0.237,0 0.214,-0.06 0.214,-0.133 0,-0.073 0.023,-0.133 -0.214,-0.133 -0.236,0 -0.428,0.059 -0.428,0.133 0,0.074 0.192,0.133 0.428,0.133 z M 5.223,12.319 4.945,11.898 C 4.934,11.551 4.882,11.281 4.816,11.281 4.75,11.281 4.698,11.55 4.687,11.898 L 4.41,12.319 c -0.062,0.095 -0.011,0.173 0.116,0.173 l 0.191,0 c 0.024,0.155 0.059,0.257 0.099,0.257 0.04,0 0.075,-0.103 0.099,-0.257 l 0.191,0 c 0.128,10e-4 0.179,-0.077 0.117,-0.173 z M 4.949,10.85 c 0,0.237 -0.06,0.214 -0.133,0.214 -0.073,0 -0.133,0.023 -0.133,-0.214 0,-0.236 0.06,-0.428 0.133,-0.428 0.074,0 0.133,0.192 0.133,0.428 z m 0.194,0.48 c -0.237,0 -0.214,-0.06 -0.214,-0.133 0,-0.073 -0.023,-0.133 0.214,-0.133 0.236,0 0.428,0.059 0.428,0.133 0,0.074 -0.192,0.133 -0.428,0.133 z m -0.653,0 c 0.237,0 0.214,-0.06 0.214,-0.133 0,-0.073 0.023,-0.133 -0.214,-0.133 -0.236,0 -0.428,0.059 -0.428,0.133 0,0.074 0.192,0.133 0.428,0.133 z M 8.441,12.319 8.163,11.898 C 8.152,11.551 8.1,11.281 8.034,11.281 c -0.066,0 -0.118,0.269 -0.129,0.617 l -0.278,0.421 c -0.062,0.095 -0.011,0.173 0.116,0.173 l 0.191,0 c 0.024,0.155 0.059,0.257 0.099,0.257 0.04,0 0.075,-0.103 0.099,-0.257 l 0.191,0 c 0.13,10e-4 0.181,-0.077 0.118,-0.173 z M 8.168,10.85 c 0,0.237 -0.06,0.214 -0.133,0.214 -0.073,0 -0.133,0.023 -0.133,-0.214 0,-0.236 0.06,-0.428 0.133,-0.428 0.073,0 0.133,0.192 0.133,0.428 z m 0.193,0.48 c -0.237,0 -0.214,-0.06 -0.214,-0.133 0,-0.073 -0.023,-0.133 0.214,-0.133 0.236,0 0.428,0.059 0.428,0.133 10e-4,0.074 -0.191,0.133 -0.428,0.133 z m -0.652,0 c 0.237,0 0.214,-0.06 0.214,-0.133 0,-0.073 0.023,-0.133 -0.214,-0.133 -0.236,0 -0.428,0.059 -0.428,0.133 0,0.074 0.192,0.133 0.428,0.133 z M 5.985,9.698 C 5.923,9.793 5.974,9.871 6.101,9.871 l 0.191,0 c 0.024,0.155 0.059,0.257 0.099,0.257 0.04,0 0.075,-0.103 0.099,-0.257 l 0.191,0 c 0.127,0 0.178,-0.078 0.116,-0.173 L 6.52,9.277 C 6.517,9.175 6.509,9.084 6.499,9 L 6.283,9 C 6.273,9.084 6.266,9.175 6.263,9.277 L 5.985,9.698 Z m -3.141,0 C 2.782,9.793 2.833,9.871 2.96,9.871 l 0.191,0 c 0.024,0.155 0.059,0.257 0.099,0.257 0.04,0 0.075,-0.103 0.099,-0.257 l 0.191,0 c 0.127,0 0.178,-0.078 0.116,-0.173 L 3.378,9.277 C 3.376,9.175 3.368,9.084 3.359,9 L 3.142,9 C 3.132,9.084 3.125,9.175 3.122,9.277 L 2.844,9.698 Z m -2.492,3.73 c 0,0.237 -0.06,0.214 -0.133,0.214 -0.073,0 -0.133,0.023 -0.133,-0.214 0,-0.236 0.06,-0.428 0.133,-0.428 0.073,0 0.133,0.192 0.133,0.428 z m 0.193,0.48 c -0.237,0 -0.214,-0.06 -0.214,-0.133 0,-0.073 -0.023,-0.133 0.214,-0.133 0.236,0 0.428,0.059 0.428,0.133 0.001,0.074 -0.191,0.133 -0.428,0.133 z M 0.219,10.129 c 0.04,0 0.075,-0.103 0.099,-0.257 l 0.192,0 c 0.127,0 0.178,-0.078 0.116,-0.173 L 0.348,9.278 C 0.345,9.175 0.337,9.084 0.327,9 L 0.111,9 C 0.101,9.084 0.094,9.175 0.091,9.277 L 0,9.415 l 0,0.457 0.12,0 c 0.025,0.154 0.059,0.257 0.099,0.257 z m 0,5.199 c 0.04,0 0.075,-0.103 0.099,-0.258 l 0.192,0 c 0.127,0 0.178,-0.078 0.116,-0.173 L 0.348,14.476 c -0.01,-0.348 -0.063,-0.617 -0.129,-0.617 -0.066,0 -0.118,0.269 -0.129,0.617 L 0,14.614 l 0,0.456 0.12,0 c 0.024,0.155 0.059,0.258 0.099,0.258 z M 0.107,13.775 C 0.107,13.716 0.116,13.668 0,13.651 L 0,13.9 C 0.115,13.882 0.107,13.834 0.107,13.775 Z M 3.672,14.898 3.394,14.477 C 3.384,14.129 3.331,13.86 3.265,13.86 c -0.066,0 -0.118,0.269 -0.129,0.617 L 2.86,14.898 c -0.062,0.095 -0.011,0.173 0.116,0.173 l 0.191,0 c 0.024,0.155 0.059,0.258 0.099,0.258 0.04,0 0.075,-0.103 0.099,-0.258 l 0.191,0 C 3.684,15.07 3.735,14.992 3.672,14.898 Z m -0.273,-1.47 c 0,0.237 -0.06,0.214 -0.133,0.214 -0.073,0 -0.133,0.023 -0.133,-0.214 0,-0.236 0.06,-0.428 0.133,-0.428 0.073,0 0.133,0.192 0.133,0.428 z m 0.193,0.48 c -0.237,0 -0.214,-0.06 -0.214,-0.133 0,-0.073 -0.023,-0.133 0.214,-0.133 0.236,0 0.428,0.059 0.428,0.133 0,0.074 -0.191,0.133 -0.428,0.133 z m -0.652,0 c 0.237,0 0.214,-0.06 0.214,-0.133 0,-0.073 0.023,-0.133 -0.214,-0.133 -0.236,0 -0.428,0.059 -0.428,0.133 0,0.074 0.192,0.133 0.428,0.133 z m 3.889,0.99 -0.278,-0.421 C 6.541,14.129 6.488,13.86 6.422,13.86 c -0.066,0 -0.118,0.269 -0.129,0.617 l -0.278,0.421 c -0.062,0.095 -0.011,0.173 0.116,0.173 l 0.191,0 c 0.024,0.155 0.059,0.258 0.099,0.258 0.04,0 0.075,-0.103 0.099,-0.258 l 0.191,0 C 6.84,15.07 6.891,14.992 6.829,14.898 Z m -0.274,-1.47 c 0,0.237 -0.06,0.214 -0.133,0.214 -0.073,0 -0.133,0.023 -0.133,-0.214 C 6.29,13.192 6.349,13 6.422,13 c 0.074,0 0.133,0.192 0.133,0.428 z m 0.194,0.48 c -0.237,0 -0.214,-0.06 -0.214,-0.133 0,-0.073 -0.023,-0.133 0.214,-0.133 0.236,0 0.428,0.059 0.428,0.133 0,0.074 -0.192,0.133 -0.428,0.133 z m -0.653,0 c 0.237,0 0.214,-0.06 0.214,-0.133 0,-0.073 0.023,-0.133 -0.214,-0.133 -0.236,0 -0.428,0.059 -0.428,0.133 0,0.074 0.192,0.133 0.428,0.133 z m 3.699,-0.48 c 0,0.237 -0.06,0.214 -0.133,0.214 -0.073,0 -0.132,0.024 -0.132,-0.214 C 9.53,13.192 9.589,13 9.663,13 c 0.074,0 0.132,0.192 0.132,0.428 z M 9.204,9.698 C 9.142,9.793 9.193,9.871 9.32,9.871 l 0.191,0 c 0.024,0.155 0.059,0.257 0.099,0.257 0.04,0 0.075,-0.103 0.099,-0.257 l 0.191,0 c 0.049,0 0.075,-0.02 0.1,-0.039 L 10,9.674 9.738,9.277 C 9.735,9.175 9.728,9.084 9.718,9 L 9.502,9 C 9.492,9.084 9.485,9.175 9.482,9.277 L 9.204,9.698 Z m 0.459,4.161 c -0.066,0 -0.118,0.269 -0.129,0.617 L 9.256,14.897 C 9.194,14.992 9.245,15.07 9.372,15.07 l 0.191,0 c 0.024,0.155 0.059,0.258 0.099,0.258 0.04,0 0.075,-0.103 0.099,-0.258 l 0.191,0 c 0.023,0 0.029,-0.014 0.047,-0.018 l 0,-0.259 L 9.79,14.477 C 9.781,14.129 9.728,13.859 9.663,13.859 Z m 0.112,-0.084 c 0,0.073 -0.023,0.133 0.214,0.133 L 10,13.907 10,13.643 9.989,13.642 c -0.238,0.001 -0.214,0.06 -0.214,0.133 z m -0.439,0.133 c 0.237,0 0.214,-0.06 0.214,-0.133 0,-0.073 0.023,-0.133 -0.214,-0.133 -0.236,0 -0.428,0.059 -0.428,0.133 0,0.074 0.192,0.133 0.428,0.133 z M 7.934,17 8.172,17 C 8.153,16.729 8.108,16.531 8.053,16.531 c -0.055,0 -0.1,0.198 -0.119,0.469 z m 0.252,-0.9 c 0,0.238 -0.06,0.215 -0.133,0.215 -0.073,0 -0.133,0.023 -0.133,-0.215 0,-0.236 0.06,-0.428 0.133,-0.428 0.073,0 0.133,0.191 0.133,0.428 z m 0.193,0.48 c -0.237,0 -0.214,-0.06 -0.214,-0.133 0,-0.073 -0.023,-0.133 0.214,-0.133 0.236,0 0.428,0.059 0.428,0.133 10e-4,0.074 -0.191,0.133 -0.428,0.133 z m -0.652,0 c 0.237,0 0.214,-0.06 0.214,-0.133 0,-0.073 0.023,-0.133 -0.214,-0.133 -0.236,0 -0.428,0.059 -0.428,0.133 0,0.074 0.192,0.133 0.428,0.133 z M 4.983,16.1 c 0,0.238 -0.06,0.215 -0.133,0.215 -0.073,0 -0.133,0.023 -0.133,-0.215 0,-0.236 0.06,-0.428 0.133,-0.428 0.073,0 0.133,0.191 0.133,0.428 z m 0.193,0.48 c -0.237,0 -0.214,-0.06 -0.214,-0.133 0,-0.073 -0.023,-0.133 0.214,-0.133 0.236,0 0.428,0.059 0.428,0.133 0,0.074 -0.191,0.133 -0.428,0.133 z m -0.652,0 c 0.237,0 0.214,-0.06 0.214,-0.133 0,-0.073 0.023,-0.133 -0.214,-0.133 -0.236,0 -0.428,0.059 -0.428,0.133 0,0.074 0.192,0.133 0.428,0.133 z M 4.731,17 4.969,17 C 4.95,16.729 4.905,16.531 4.85,16.531 4.795,16.531 4.75,16.729 4.731,17 Z m -3.215,0 0.238,0 C 1.735,16.729 1.69,16.531 1.635,16.531 1.58,16.531 1.535,16.729 1.516,17 Z m 0.252,-0.9 c 0,0.238 -0.06,0.215 -0.133,0.215 -0.073,0 -0.133,0.023 -0.133,-0.215 0,-0.236 0.06,-0.428 0.133,-0.428 0.073,0 0.133,0.191 0.133,0.428 z m 0.193,0.48 c -0.237,0 -0.214,-0.06 -0.214,-0.133 0,-0.073 -0.023,-0.133 0.214,-0.133 0.236,0 0.428,0.059 0.428,0.133 0,0.074 -0.192,0.133 -0.428,0.133 z m -0.652,0 c 0.237,0 0.214,-0.06 0.214,-0.133 0,-0.073 0.023,-0.133 -0.214,-0.133 -0.236,0 -0.428,0.059 -0.428,0.133 -0.001,0.074 0.191,0.133 0.428,0.133 z"
     id="path28"
     inkscape:connector-curvature="0"
     style="fill:#292f33" />
  <path
     d="M 0,9 0,4 C 0,1.791 1.791,0 4,0 L 5,1 6,0 10,0 10,9 6,9 5,8 4,9 0,9 Z"
     id="path30"
     inkscape:connector-curvature="0"
     style="fill:#dc241f" />
  <path
     d="M 10,1.49 10,0 9.433,0 6,3.09 5,3.98 4,3.09 1.524,0.861 1.522,0.86 1.521,0.861 C 1.131,1.169 0.799,1.55 0.546,1.981 L 0.549,1.984 2.766,3.98 3.996,4.99 2.766,6 0,8.49 0,9 1.655,9 4,6.89 5,6 6,6.89 8.345,9 10,9 10,8.49 7.234,6 5.997,4.99 7.234,3.98 10,1.49 Z"
     id="path32"
     inkscape:connector-curvature="0"
     style="fill:#009543" />
  <path
     d="M 6,3.979 6,0 4,0 4,3.979 0.001,3.979 0,4 0,6 4,6 4,9 6,9 6,6 l 4,0 0,-2.021 -4,0 z"
     id="path34"
     inkscape:connector-curvature="0"
     style="fill:#eeeeee" />
</svg>
