<?xml version="1.0" encoding="UTF-8" standalone="no"?>
<svg
   xmlns:dc="http://purl.org/dc/elements/1.1/"
   xmlns:cc="http://creativecommons.org/ns#"
   xmlns:rdf="http://www.w3.org/1999/02/22-rdf-syntax-ns#"
   xmlns:svg="http://www.w3.org/2000/svg"
   xmlns="http://www.w3.org/2000/svg"
   xmlns:sodipodi="http://sodipodi.sourceforge.net/DTD/sodipodi-0.dtd"
   xmlns:inkscape="http://www.inkscape.org/namespaces/inkscape"
   viewBox="0 0 36 26"
   id="svg2"
   version="1.1"
   inkscape:version="0.91 r13725"
   sodipodi:docname="1f1fd-1f1f0.svg"
   width="36"
   height="26">
  <metadata
     id="metadata14">
    <rdf:RDF>
      <cc:Work
         rdf:about="">
        <dc:format>image/svg+xml</dc:format>
        <dc:type
           rdf:resource="http://purl.org/dc/dcmitype/StillImage" />
      </cc:Work>
    </rdf:RDF>
  </metadata>
  <defs
     id="defs12" />
  <sodipodi:namedview
     pagecolor="#ffffff"
     bordercolor="#666666"
     borderopacity="1"
     objecttolerance="10"
     gridtolerance="10"
     guidetolerance="10"
     inkscape:pageopacity="0"
     inkscape:pageshadow="2"
     inkscape:window-width="640"
     inkscape:window-height="480"
     id="namedview10"
     showgrid="false"
     inkscape:zoom="6.5555556"
     inkscape:cx="18"
     inkscape:cy="13"
     inkscape:window-x="0"
     inkscape:window-y="0"
     inkscape:window-maximized="0"
     inkscape:current-layer="svg2" />
  <path
     d="m 36,22 c 0,2.209 -1.791,4 -4,4 L 4,26 C 1.791,26 0,24.209 0,22 L 0,4 C 0,1.791 1.791,0 4,0 l 28,0 c 2.209,0 4,1.791 4,4 l 0,18 z"
     id="path4"
     inkscape:connector-curvature="0"
     style="fill:#244aa5" />
  <path
     d="m 17.013,8.696 0.209,-0.005 c 0.123,0.128 0.25,0.253 0.376,0.378 -0.002,0.097 0.038,0.167 0.136,0.196 -0.087,0.023 -0.177,0.03 -0.265,0.04 -0.037,0.05 -0.082,0.089 -0.136,0.117 0.015,0.143 0.146,0.224 0.235,0.321 0.094,0.009 0.198,0.007 0.27,0.079 l 0.206,0.005 0.001,0.268 c 0.085,-0.009 0.192,0.007 0.217,-0.1 0.15,-10e-4 0.3,-0.002 0.451,0.001 0.039,0.083 0.132,0.088 0.206,0.123 l 0.036,0.186 c 0.076,-0.098 0.148,-0.223 0.287,-0.227 0.043,0.06 0.088,0.119 0.133,0.178 0.078,0.006 0.16,0.014 0.195,0.099 l 0.139,0.005 c 0,0.167 -0.012,0.335 0.01,0.501 l 0.082,0.05 c 0.002,0.134 0.002,0.268 0,0.401 0.084,0.071 0.225,0.136 0.299,0.012 l 0.119,0 c 0.051,0.074 0.113,0.139 0.189,0.188 0.002,0.131 0,0.262 0.002,0.392 0.174,0.063 0.062,0.3 0.096,0.441 0.088,0.06 0.158,0.139 0.199,0.239 0.023,-0.045 0.051,-0.089 0.076,-0.133 l 0.301,0.006 c 0.045,0.053 0.09,0.105 0.139,0.158 l 0.082,0.089 c 0.07,0.018 0.139,0.039 0.195,0.087 l 0.178,0.011 c 0.047,0.107 0.168,0.092 0.264,0.112 l -0.131,0.098 c -0.004,0.219 0.016,0.439 -0.01,0.657 l -0.08,0.045 c -0.002,0.111 -0.021,0.221 -0.096,0.311 l 0.184,-0.002 0.008,0.102 0.085,0 c 0.002,-0.025 0.006,-0.076 0.01,-0.102 l 0.16,0 0.006,0.098 c 0.096,0.018 0.234,-0.035 0.287,0.075 0.246,0.005 0.492,0.003 0.74,10e-4 l 0.01,0.131 c 0.039,0.044 0.076,0.088 0.113,0.133 0.082,0 0.166,0 0.25,0.002 l -0.008,0.146 c 0.076,0.068 0.16,0.129 0.267,0.129 l 0.002,-0.183 0.162,0.002 0.012,-0.101 c 0.117,0.007 0.27,-0.029 0.297,0.127 l 0.096,-0.143 c 0.078,0.023 0.143,0.075 0.207,0.123 l 0.002,0.133 c 0.135,0.028 0.082,0.174 0.094,0.271 l -0.17,0.134 c 0,0.138 0,0.276 -0.002,0.415 l -0.166,0.004 0,0.474 c -0.096,0.077 -0.182,0.163 -0.27,0.246 l 0,0.29 c -0.065,0.054 -0.125,0.107 -0.188,0.16 l 0,0.122 c -0.068,0.061 -0.145,0.108 -0.236,0.12 -0.043,0.051 -0.086,0.103 -0.127,0.155 -0.029,0.009 -0.088,0.024 -0.117,0.031 l 0.145,0.086 c -0.002,0.19 -0.004,0.381 -0.002,0.571 -0.115,0.097 -0.266,0.091 -0.406,0.09 l -0.148,0.18 c -0.105,-0.001 -0.18,0.069 -0.244,0.142 0.002,0.091 0.004,0.182 0.008,0.272 0.16,0.085 0.223,0.319 0.428,0.311 0.002,0.151 0.029,0.325 -0.115,0.424 -0.064,-0.002 -0.131,-0.002 -0.193,-0.002 -0.1,0.144 -0.318,0.046 -0.467,0.071 l 0,-0.166 -0.139,-0.004 c -0.047,0.055 -0.094,0.108 -0.143,0.161 -0.082,0.011 -0.15,0.052 -0.213,0.101 -0.1,0.007 -0.199,0.004 -0.297,0.004 l -0.008,0.103 -0.223,-0.005 c -0.062,0.062 -0.113,0.135 -0.119,0.227 l -0.154,0.132 c 0.004,0.107 0.006,0.223 -0.107,0.272 0.023,0.121 -0.066,0.333 0.106,0.366 l -0.006,0.133 c -0.232,0.008 -0.465,0.004 -0.697,0.005 l -0.004,-0.235 c -0.168,-0.048 -0.064,-0.264 -0.094,-0.389 l -0.1,-0.006 0.002,-0.156 c -0.076,-0.008 -0.164,0.004 -0.195,-0.082 l -0.137,0 -0.012,-0.189 -0.424,-0.001 c -0.004,0.033 -0.008,0.099 -0.01,0.131 -0.041,0.044 -0.08,0.088 -0.119,0.133 l -0.215,0.001 c -0.039,0.055 -0.075,0.108 -0.112,0.164 -0.104,0.002 -0.21,0.003 -0.315,0.007 -0.037,0.044 -0.078,0.086 -0.122,0.123 l -0.005,0.132 c -0.081,0.008 -0.169,0.009 -0.191,0.104 l -0.208,0 c -0.044,0.056 -0.087,0.112 -0.129,0.169 l -0.384,10e-4 c -0.06,0.149 -0.241,0.076 -0.363,0.098 -0.052,0.073 -0.115,0.136 -0.19,0.185 -0.002,0.081 -0.003,0.163 -0.003,0.246 l -0.101,0.006 -0.002,0.238 c -0.058,0.044 -0.114,0.09 -0.171,0.136 0.006,0.213 0.005,0.425 0.001,0.639 l 0.171,0.137 0,0.563 c -0.04,0.038 -0.079,0.077 -0.117,0.117 l -0.145,0.003 -0.004,0.148 -0.113,0.111 c -0.156,0 -0.312,0 -0.467,0.002 -0.071,0.091 -0.146,0.179 -0.221,0.267 l -0.312,-0.002 c -0.015,-0.08 -0.031,-0.161 -0.086,-0.225 -0.008,-0.208 -0.004,-0.415 -0.004,-0.623 0.086,-0.084 0.171,-0.17 0.261,-0.252 l 0,-0.271 -0.086,-0.049 C 15.592,21.692 15.61,21.408 15.605,21.124 l -0.155,0 C 15.437,21.037 15.453,20.923 15.335,20.913 15.334,20.7 15.334,20.488 15.338,20.275 L 15.182,20.141 C 15.168,20.059 15.168,19.965 15.074,19.934 L 15.07,19.751 c -0.112,-0.05 -0.093,-0.229 0.026,-0.254 -0.099,-0.087 -0.191,-0.181 -0.286,-0.27 L 14.808,19.111 C 14.698,19.089 14.6,19.036 14.493,19.007 14.463,18.931 14.388,18.924 14.316,18.921 L 14.247,18.845 C 14.18,18.837 14.123,18.81 14.077,18.763 L 13.954,18.76 c -0.039,-0.167 -0.116,-0.323 -0.095,-0.5 -0.043,-0.038 -0.083,-0.08 -0.121,-0.123 -0.216,-0.009 -0.431,0.003 -0.646,-0.004 -0.055,0.002 -0.102,-0.016 -0.14,-0.056 -0.048,-0.049 -0.098,-0.096 -0.149,-0.141 -0.003,-0.144 0.005,-0.288 -0.006,-0.431 -0.038,-0.1 -0.101,-0.186 -0.159,-0.272 l -0.005,-0.131 -0.096,-0.014 10e-4,-0.135 C 12.434,16.891 12.476,16.76 12.46,16.661 l -0.258,-0.006 0,-0.133 -0.129,-0.122 -0.139,-0.009 -0.003,-0.136 c -0.079,-0.05 -0.101,-0.132 -0.098,-0.221 l 0.175,-0.007 c 0,-0.158 0.002,-0.317 -0.006,-0.476 -0.052,-0.099 -0.096,-0.205 -0.179,-0.282 l -0.083,-0.102 -0.123,-0.01 -0.114,-0.114 -10e-4,-0.195 c -0.132,-0.027 -0.083,-0.172 -0.1,-0.269 -0.159,-0.104 -0.019,-0.297 0.026,-0.427 0.03,-0.037 0.062,-0.072 0.096,-0.106 0.059,-0.059 0.112,-0.124 0.161,-0.191 l 0.229,0 0.136,0.174 0.152,-0.01 0,0.178 c 0.287,0 0.574,-0.002 0.861,0.002 0.008,-0.084 -0.007,-0.187 0.1,-0.205 0.002,-0.164 0.002,-0.328 0.007,-0.492 0.1,-0.008 0.215,0.012 0.29,-0.075 l 0.136,-0.008 0,-0.266 c 0.138,0 0.278,0.007 0.416,-0.007 l 0.047,-0.099 c 0.093,-0.005 0.15,0.044 0.174,0.131 0.051,-0.062 0.103,-0.122 0.156,-0.181 0.088,-0.02 0.169,-0.057 0.227,-0.128 0.091,-0.076 0.206,-0.113 0.309,-0.171 l -0.101,-0.1 c -0.004,-0.123 -0.087,-0.209 -0.183,-0.273 -0.002,-0.121 -0.002,-0.242 0,-0.363 0.073,-0.066 0.145,-0.135 0.213,-0.206 l 0.187,0 c 0.11,-0.151 0.248,-0.279 0.394,-0.395 l 0,-0.138 c 0.036,0.002 0.108,0.002 0.144,0.003 0.014,0.089 0.089,0.097 0.162,0.099 0.035,-0.048 0.075,-0.092 0.12,-0.132 l 0.009,-0.11 c 0.136,-0.091 0.043,-0.293 0.073,-0.431 0.067,-0.066 0.162,-0.118 0.192,-0.213 -0.027,-0.094 -0.123,-0.144 -0.187,-0.211 0.048,-0.221 -0.158,-0.32 -0.271,-0.469 L 15.523,9.742 C 15.506,9.668 15.513,9.577 15.439,9.53 15.436,9.426 15.436,9.321 15.437,9.216 15.66,9.211 15.884,9.231 16.106,9.206 L 16.15,9.13 c 0.095,-0.059 0.199,-0.101 0.284,-0.174 0.093,-0.003 0.186,-0.004 0.279,-0.004 0.044,-0.058 0.09,-0.113 0.135,-0.17 L 17,8.787 c 0.004,-0.019 0.01,-0.066 0.013,-0.091 z"
     id="path6"
     inkscape:connector-curvature="0"
     style="fill:#d0a650" />
  <path
     d="M 28.021,4.212 27.636,5.393 26.413,5.38 27.417,6.111 27.026,7.27 28.03,6.541 29.012,7.27 28.631,6.089 29.627,5.38 28.385,5.38 28.021,4.212 Z M 24.014,3.132 23.629,4.313 22.404,4.3 23.41,5.029 23.019,6.189 24.023,5.46 25.006,6.189 24.623,5.008 25.621,4.3 24.379,4.3 24.014,3.132 Z m -4.009,-0.527 -0.385,1.18 -1.224,-0.012 1.005,0.729 -0.391,1.16 1.004,-0.73 0.983,0.73 -0.383,-1.182 0.998,-0.708 -1.242,0 -0.365,-1.167 z M 7.979,4.212 8.363,5.393 9.587,5.38 8.582,6.11 8.972,7.269 7.968,6.54 6.986,7.269 7.369,6.088 6.371,5.38 l 1.241,0 0.367,-1.168 z m 4.008,-1.08 0.384,1.181 1.224,-0.013 -1.004,0.729 0.39,1.16 L 11.977,5.46 10.994,6.189 11.378,5.008 10.38,4.3 l 1.241,0 0.366,-1.168 z m 4.009,-0.527 0.384,1.18 1.224,-0.012 -1.005,0.729 0.391,1.16 -1.004,-0.73 -0.983,0.73 L 15.387,4.48 14.39,3.772 15.631,3.771 15.996,2.605 Z"
     id="path8"
     inkscape:connector-curvature="0"
     style="fill:#ededed" />
</svg>
