<?xml version="1.0" encoding="UTF-8" standalone="no"?>
<svg
   xmlns:dc="http://purl.org/dc/elements/1.1/"
   xmlns:cc="http://creativecommons.org/ns#"
   xmlns:rdf="http://www.w3.org/1999/02/22-rdf-syntax-ns#"
   xmlns:svg="http://www.w3.org/2000/svg"
   xmlns="http://www.w3.org/2000/svg"
   xmlns:sodipodi="http://sodipodi.sourceforge.net/DTD/sodipodi-0.dtd"
   xmlns:inkscape="http://www.inkscape.org/namespaces/inkscape"
   viewBox="0 0 36 26"
   id="svg2"
   version="1.1"
   inkscape:version="0.91 r13725"
   sodipodi:docname="1f1f2-1f1fc.svg"
   width="36"
   height="26">
  <metadata
     id="metadata16">
    <rdf:RDF>
      <cc:Work
         rdf:about="">
        <dc:format>image/svg+xml</dc:format>
        <dc:type
           rdf:resource="http://purl.org/dc/dcmitype/StillImage" />
      </cc:Work>
    </rdf:RDF>
  </metadata>
  <defs
     id="defs14" />
  <sodipodi:namedview
     pagecolor="#ffffff"
     bordercolor="#666666"
     borderopacity="1"
     objecttolerance="10"
     gridtolerance="10"
     guidetolerance="10"
     inkscape:pageopacity="0"
     inkscape:pageshadow="2"
     inkscape:window-width="640"
     inkscape:window-height="480"
     id="namedview12"
     showgrid="false"
     inkscape:zoom="6.5555556"
     inkscape:cx="18"
     inkscape:cy="13"
     inkscape:window-x="0"
     inkscape:window-y="0"
     inkscape:window-maximized="0"
     inkscape:current-layer="svg2" />
  <path
     d="m 36,22 c 0,2.209 -1.791,4 -4,4 L 4,26 C 1.791,26 0,24.209 0,22 L 0,4 C 0,1.791 1.791,0 4,0 l 28,0 c 2.209,0 4,1.791 4,4 l 0,18 z"
     id="path4"
     inkscape:connector-curvature="0"
     style="fill:#77b255" />
  <path
     d="M 0,8 36,8 36,18 0,18 Z"
     id="path6"
     inkscape:connector-curvature="0"
     style="fill:#dd2e44" />
  <path
     d="M 32,0 4,0 C 1.791,0 0,1.791 0,4 L 0,8 36,8 36,4 C 36,1.791 34.209,0 32,0 Z"
     id="path8"
     inkscape:connector-curvature="0"
     style="fill:#141414" />
  <path
     d="M 23.191,7 C 22.153,5.208 20.22,4 18,4 15.78,4 13.847,5.208 12.809,7 L 23.191,7 Z M 17.698,1 18.301,1 18,3.163 Z m -1.514,0.18 0.594,-0.102 0.068,2.183 z m -1.463,0.433 0.569,-0.201 0.435,2.14 z m -1.368,0.673 0.527,-0.293 0.79,2.036 z m -1.235,0.895 0.47,-0.378 1.122,1.873 z m -1.067,1.09 0.401,-0.452 1.421,1.658 z m -0.866,1.255 0.317,-0.513 1.681,1.393 z M 10.898,7 9.768,6.35 9.542,6.909 9.906,7 Z M 26.253,7 26.471,6.946 26.25,6.389 25.176,7 Z M 25.522,5.049 25.834,5.561 23.833,6.433 Z M 24.579,3.851 24.973,4.302 23.147,5.5 Z m -1.132,-1.023 0.464,0.38 -1.596,1.487 z M 22.159,2.012 22.68,2.308 21.357,4.043 Z m -1.408,-0.588 0.564,0.204 -1.011,1.934 z m -1.487,-0.341 0.59,0.106 -0.67,2.077 z"
     id="path10"
     inkscape:connector-curvature="0"
     style="fill:#dd2e44" />
</svg>
