<?xml version="1.0" encoding="UTF-8" standalone="no"?>
<svg
   xmlns:dc="http://purl.org/dc/elements/1.1/"
   xmlns:cc="http://creativecommons.org/ns#"
   xmlns:rdf="http://www.w3.org/1999/02/22-rdf-syntax-ns#"
   xmlns:svg="http://www.w3.org/2000/svg"
   xmlns="http://www.w3.org/2000/svg"
   xmlns:sodipodi="http://sodipodi.sourceforge.net/DTD/sodipodi-0.dtd"
   xmlns:inkscape="http://www.inkscape.org/namespaces/inkscape"
   viewBox="0 0 36 26"
   id="svg2"
   version="1.1"
   inkscape:version="0.91 r13725"
   sodipodi:docname="1f1fb-1f1ec.svg"
   width="36"
   height="26">
  <metadata
     id="metadata76">
    <rdf:RDF>
      <cc:Work
         rdf:about="">
        <dc:format>image/svg+xml</dc:format>
        <dc:type
           rdf:resource="http://purl.org/dc/dcmitype/StillImage" />
      </cc:Work>
    </rdf:RDF>
  </metadata>
  <defs
     id="defs74" />
  <sodipodi:namedview
     pagecolor="#ffffff"
     bordercolor="#666666"
     borderopacity="1"
     objecttolerance="10"
     gridtolerance="10"
     guidetolerance="10"
     inkscape:pageopacity="0"
     inkscape:pageshadow="2"
     inkscape:window-width="640"
     inkscape:window-height="480"
     id="namedview72"
     showgrid="false"
     inkscape:zoom="6.5555556"
     inkscape:cx="18"
     inkscape:cy="13"
     inkscape:window-x="0"
     inkscape:window-y="0"
     inkscape:window-maximized="0"
     inkscape:current-layer="svg2" />
  <path
     d="M 32,0 4,0 C 3.795,0 3.593,0.015 3.396,0.045 L 3.392,1.799 0.662,1.795 C 0.244,2.427 0,3.185 0,4 l 0,18 c 0,2.209 1.791,4 4,4 l 28,0 c 2.209,0 4,-1.791 4,-4 L 36,4 C 36,1.791 34.209,0 32,0 Z"
     id="path4"
     inkscape:connector-curvature="0"
     style="fill:#00247d" />
  <path
     d="M 33.466,17.644 C 33.185,17.46 32.772,17.067 32.7,16.951 c -0.282,-0.469 -0.605,-0.566 -0.827,-0.566 -0.027,0 -0.058,0.005 -0.089,0.008 0.106,-0.177 0.175,-0.352 0.175,-0.517 l 0,-9.229 -10.084,0 0,9.229 c 0,0.165 0.069,0.339 0.175,0.517 -0.031,-0.004 -0.062,-0.008 -0.089,-0.008 -0.222,0 -0.545,0.098 -0.827,0.566 -0.071,0.116 -0.484,0.51 -0.766,0.693 -0.231,0.149 -0.367,0.389 -0.384,0.672 -0.023,0.399 0.206,0.861 0.586,1.178 0.155,0.13 0.34,0.197 0.533,0.197 0.26,0 0.482,-0.119 0.657,-0.262 1.661,1.372 3.353,2.04 5.156,2.04 1.803,0 3.495,-0.668 5.156,-2.04 0.175,0.143 0.398,0.262 0.657,0.262 0.193,0 0.378,-0.067 0.533,-0.197 0.38,-0.316 0.609,-0.778 0.586,-1.178 -0.015,-0.284 -0.152,-0.523 -0.382,-0.672 z"
     id="path6"
     inkscape:connector-curvature="0"
     style="fill:#ffffff" />
  <path
     d="m 26.917,19.037 c -2.23,-0.995 -4.542,-2.47 -4.542,-3.162 l 0,-8.729 9.084,0 0,8.729 c 0,0.693 -2.312,2.168 -4.542,3.162 z"
     id="path8"
     inkscape:connector-curvature="0"
     style="fill:#006129" />
  <path
     d="m 25.078,12.891 c -0.204,0.079 -0.266,-0.469 0,-0.859 0.266,-0.391 1.047,-1.188 1.219,-1.922 0.172,-0.734 0.475,-0.625 0.62,-0.828 0.146,-0.203 0.167,-0.438 0,-0.484 C 26.75,8.752 26.516,8.689 26.672,8.079 26.828,7.47 27.5,7.532 27.5,7.954 c 0,0.422 -0.156,0.797 0,1.125 0.156,0.328 0.516,0.25 0.734,0.875 0.219,0.625 0.297,1.234 0.156,1.5 -0.141,0.266 -0.219,1.281 -0.406,1.547 -0.187,0.266 -0.438,0.156 -0.391,-0.328 0.047,-0.484 0.359,-1.141 0.453,-1.484 0.094,-0.344 -0.141,-1.047 -0.484,-1.125 -0.344,-0.078 -0.969,0.719 -1.25,1.047 -0.281,0.328 -0.891,0.578 -0.922,0.844 -0.031,0.264 -0.109,0.857 -0.312,0.936 z"
     id="path10"
     inkscape:connector-curvature="0"
     style="fill:#ffc6b5" />
  <path
     d="m 28.766,16.875 c -0.359,0.078 -1.156,0.375 -1.594,0.266 -0.438,-0.109 -1.219,0.172 -1.328,0.024 -0.109,-0.149 0.109,-0.961 0.141,-1.336 0.031,-0.375 0.078,-0.75 0.016,-0.75 -0.062,0 -0.326,0 -0.187,-0.672 0.14,-0.672 0.374,-1.906 0.374,-1.906 0,0 -0.234,-0.094 -0.094,-0.469 0.141,-0.375 0.312,-1.266 0.266,-1.469 -0.046,-0.203 -0.391,-0.141 -0.266,-0.453 0.125,-0.312 0.219,-0.375 0.312,-0.609 0.094,-0.234 0.286,-0.419 0.422,-0.359 0.136,0.06 0.289,0.234 0.441,0.141 0.152,-0.094 0.168,-0.234 0.371,-0.219 0.203,0.016 0.638,0.424 0.547,0.516 -0.091,0.092 -0.256,0.41 -0.284,0.807 -0.028,0.396 -0.278,1.365 -0.356,1.678 -0.078,0.313 0.266,1.062 0.453,1.766 0.188,0.7 0.766,3.044 0.766,3.044 z"
     id="path12"
     inkscape:connector-curvature="0"
     style="fill:#ffffff" />
  <path
     d="m 26.682,7.628 c 0.091,-0.241 0.537,-0.441 0.912,-0.144 0.375,0.297 0.531,0.844 0.266,1.172 -0.266,0.328 -0.42,0.25 -0.522,0 C 27.235,8.406 27.345,8.182 27.204,8.107 27.063,8.031 27.188,7.813 27.063,7.766 26.938,7.719 26.551,7.976 26.682,7.628 Z"
     id="path14"
     inkscape:connector-curvature="0"
     style="fill:#9c5100" />
  <path
     d="M 23.114,7.484 C 23.051,7.414 22.891,7.704 22.954,7.907 23.016,8.111 23,8.302 23.123,8.271 23.246,8.24 23.216,8.063 23.297,7.921 23.359,7.811 23.109,7.843 23.188,7.718 L 23.114,7.484 Z"
     id="path16"
     inkscape:connector-curvature="0"
     style="fill:#ff0000" />
  <path
     d="m 22.859,8.203 0.828,0 c 0,0 0.109,-0.375 0.281,-0.391 0.172,-0.016 0.219,0.375 0.219,0.375 0,0 0.391,0.094 0.562,-0.016 0.171,-0.11 0.594,0.016 0.266,0.203 -0.328,0.188 -0.141,-0.203 -0.328,0 -0.187,0.203 -0.359,0.281 -0.328,0.359 0.031,0.078 -0.098,0.14 -0.361,0.14 -0.264,0 -0.435,-0.061 -0.404,-0.186 C 23.625,8.562 23.422,8.515 23.188,8.468 22.953,8.422 22.859,8.203 22.859,8.203 Z"
     id="path18"
     inkscape:connector-curvature="0"
     style="fill:#f8c600" />
  <path
     d="M 23.114,9.072 C 23.051,9.002 22.891,9.292 22.954,9.495 23.017,9.698 23,9.891 23.123,9.86 23.246,9.829 23.216,9.651 23.297,9.51 23.359,9.4 23.109,9.432 23.188,9.307 L 23.114,9.072 Z"
     id="path20"
     inkscape:connector-curvature="0"
     style="fill:#ff0000" />
  <path
     d="m 22.859,9.791 0.828,0 c 0,0 0.109,-0.375 0.281,-0.391 0.172,-0.016 0.219,0.375 0.219,0.375 0,0 0.391,0.094 0.562,-0.016 0.172,-0.109 0.594,0.016 0.266,0.203 -0.328,0.188 -0.141,-0.203 -0.328,0 -0.187,0.203 -0.359,0.281 -0.328,0.359 0.031,0.078 -0.098,0.14 -0.361,0.14 -0.264,0 -0.435,-0.061 -0.404,-0.186 C 23.625,10.15 23.422,10.103 23.188,10.056 22.953,10.01 22.859,9.791 22.859,9.791 Z"
     id="path22"
     inkscape:connector-curvature="0"
     style="fill:#f8c600" />
  <path
     d="m 23.114,10.838 c -0.063,-0.07 -0.223,0.22 -0.16,0.423 0.063,0.203 0.046,0.395 0.169,0.364 0.123,-0.031 0.093,-0.208 0.174,-0.35 0.062,-0.11 -0.188,-0.078 -0.109,-0.203 l -0.074,-0.234 z"
     id="path24"
     inkscape:connector-curvature="0"
     style="fill:#ff0000" />
  <path
     d="m 22.859,11.557 0.828,0 c 0,0 0.109,-0.375 0.281,-0.391 0.172,-0.016 0.219,0.375 0.219,0.375 0,0 0.391,0.094 0.562,-0.016 0.171,-0.11 0.594,0.016 0.266,0.203 -0.328,0.188 -0.141,-0.203 -0.328,0 -0.187,0.203 -0.359,0.281 -0.328,0.359 0.031,0.078 -0.098,0.14 -0.361,0.14 -0.264,0 -0.435,-0.062 -0.404,-0.187 0.031,-0.125 -0.172,-0.172 -0.406,-0.219 -0.235,-0.046 -0.329,-0.264 -0.329,-0.264 z"
     id="path26"
     inkscape:connector-curvature="0"
     style="fill:#f8c600" />
  <path
     d="m 24.114,12.557 c -0.063,-0.07 -0.223,0.22 -0.16,0.423 0.063,0.203 0.046,0.395 0.169,0.364 0.123,-0.031 0.093,-0.208 0.174,-0.35 0.062,-0.11 -0.188,-0.078 -0.109,-0.203 l -0.074,-0.234 z"
     id="path28"
     inkscape:connector-curvature="0"
     style="fill:#ff0000" />
  <path
     d="m 23.859,13.275 0.828,0 c 0,0 0.109,-0.375 0.281,-0.391 0.172,-0.016 0.219,0.375 0.219,0.375 0,0 0.391,0.094 0.562,-0.016 0.172,-0.109 0.594,0.016 0.266,0.203 -0.328,0.188 -0.141,-0.203 -0.328,0 -0.188,0.203 -0.359,0.281 -0.328,0.359 0.031,0.078 -0.098,0.14 -0.361,0.14 -0.264,0 -0.435,-0.062 -0.404,-0.187 0.031,-0.125 -0.172,-0.172 -0.406,-0.219 -0.234,-0.047 -0.329,-0.264 -0.329,-0.264 z"
     id="path30"
     inkscape:connector-curvature="0"
     style="fill:#f8c600" />
  <path
     d="m 23.056,13.957 c -0.063,-0.07 -0.223,0.22 -0.16,0.424 0.062,0.203 0.046,0.395 0.169,0.363 0.123,-0.03 0.093,-0.208 0.174,-0.35 0.062,-0.109 -0.188,-0.078 -0.109,-0.203 l -0.074,-0.234 z"
     id="path32"
     inkscape:connector-curvature="0"
     style="fill:#ff0000" />
  <path
     d="m 22.801,14.676 0.828,0 c 0,0 0.109,-0.375 0.281,-0.391 0.172,-0.016 0.219,0.375 0.219,0.375 0,0 0.391,0.094 0.562,-0.016 0.172,-0.109 0.594,0.016 0.266,0.203 -0.328,0.188 -0.141,-0.203 -0.328,0 -0.188,0.203 -0.359,0.281 -0.328,0.359 0.031,0.078 -0.098,0.14 -0.361,0.14 -0.264,0 -0.436,-0.062 -0.404,-0.187 0.031,-0.125 -0.172,-0.172 -0.406,-0.219 -0.234,-0.047 -0.329,-0.264 -0.329,-0.264 z"
     id="path34"
     inkscape:connector-curvature="0"
     style="fill:#f8c600" />
  <path
     d="m 23.056,15.629 c -0.063,-0.07 -0.223,0.22 -0.16,0.424 0.062,0.203 0.046,0.395 0.169,0.363 0.123,-0.03 0.093,-0.208 0.174,-0.35 0.062,-0.109 -0.188,-0.078 -0.109,-0.203 l -0.074,-0.234 z"
     id="path36"
     inkscape:connector-curvature="0"
     style="fill:#ff0000" />
  <path
     d="m 22.801,16.348 0.828,0 c 0,0 0.109,-0.375 0.281,-0.391 0.172,-0.016 0.219,0.375 0.219,0.375 0,0 0.391,0.094 0.562,-0.016 0.171,-0.11 0.594,0.016 0.266,0.203 -0.328,0.188 -0.141,-0.203 -0.328,0 -0.188,0.203 -0.359,0.281 -0.328,0.359 0.031,0.078 -0.098,0.14 -0.361,0.14 -0.264,0 -0.436,-0.062 -0.404,-0.187 0.031,-0.125 -0.172,-0.172 -0.406,-0.219 -0.234,-0.047 -0.329,-0.264 -0.329,-0.264 z"
     id="path38"
     inkscape:connector-curvature="0"
     style="fill:#f8c600" />
  <path
     d="m 29.021,15.629 c -0.063,-0.07 -0.223,0.22 -0.16,0.424 0.062,0.203 0.046,0.395 0.169,0.363 0.123,-0.03 0.093,-0.208 0.174,-0.35 0.062,-0.109 -0.188,-0.078 -0.109,-0.203 l -0.074,-0.234 z"
     id="path40"
     inkscape:connector-curvature="0"
     style="fill:#ff0000" />
  <path
     d="m 28.766,16.348 0.828,0 c 0,0 0.109,-0.375 0.281,-0.391 0.172,-0.016 0.219,0.375 0.219,0.375 0,0 0.391,0.094 0.562,-0.016 0.172,-0.109 0.594,0.016 0.266,0.203 -0.328,0.187 -0.141,-0.203 -0.328,0 -0.188,0.203 -0.359,0.281 -0.328,0.359 0.031,0.078 -0.098,0.14 -0.361,0.14 -0.264,0 -0.436,-0.062 -0.404,-0.187 0.031,-0.125 -0.172,-0.172 -0.406,-0.219 -0.236,-0.046 -0.329,-0.264 -0.329,-0.264 z"
     id="path42"
     inkscape:connector-curvature="0"
     style="fill:#f8c600" />
  <path
     d="m 29.021,14.059 c -0.063,-0.07 -0.223,0.22 -0.16,0.424 0.062,0.203 0.046,0.395 0.169,0.363 0.123,-0.03 0.093,-0.208 0.174,-0.35 0.062,-0.109 -0.188,-0.078 -0.109,-0.203 l -0.074,-0.234 z"
     id="path44"
     inkscape:connector-curvature="0"
     style="fill:#ff0000" />
  <path
     d="m 28.766,14.777 0.828,0 c 0,0 0.109,-0.375 0.281,-0.391 0.172,-0.016 0.219,0.375 0.219,0.375 0,0 0.391,0.094 0.562,-0.016 0.172,-0.109 0.594,0.016 0.266,0.203 -0.328,0.187 -0.141,-0.203 -0.328,0 -0.187,0.203 -0.359,0.281 -0.328,0.359 0.031,0.078 -0.098,0.14 -0.361,0.14 -0.264,0 -0.436,-0.062 -0.404,-0.187 0.031,-0.125 -0.172,-0.172 -0.406,-0.219 -0.236,-0.045 -0.329,-0.264 -0.329,-0.264 z"
     id="path46"
     inkscape:connector-curvature="0"
     style="fill:#f8c600" />
  <path
     d="m 29.021,12.452 c -0.063,-0.07 -0.223,0.22 -0.16,0.424 0.062,0.203 0.046,0.395 0.169,0.363 0.123,-0.03 0.093,-0.208 0.174,-0.35 0.062,-0.109 -0.188,-0.078 -0.109,-0.203 l -0.074,-0.234 z"
     id="path48"
     inkscape:connector-curvature="0"
     style="fill:#ff0000" />
  <path
     d="m 28.766,13.17 0.828,0 c 0,0 0.109,-0.375 0.281,-0.391 0.172,-0.016 0.219,0.375 0.219,0.375 0,0 0.391,0.094 0.562,-0.016 0.172,-0.109 0.594,0.016 0.266,0.203 -0.328,0.187 -0.141,-0.203 -0.328,0 -0.187,0.203 -0.359,0.281 -0.328,0.359 0.031,0.078 -0.098,0.14 -0.361,0.14 -0.264,0 -0.436,-0.061 -0.404,-0.186 0.031,-0.125 -0.172,-0.172 -0.406,-0.219 -0.236,-0.046 -0.329,-0.265 -0.329,-0.265 z"
     id="path50"
     inkscape:connector-curvature="0"
     style="fill:#f8c600" />
  <path
     d="m 29.021,10.838 c -0.063,-0.07 -0.223,0.22 -0.16,0.424 0.062,0.203 0.046,0.395 0.169,0.363 0.123,-0.03 0.093,-0.208 0.174,-0.35 0.062,-0.109 -0.188,-0.078 -0.109,-0.203 l -0.074,-0.234 z"
     id="path52"
     inkscape:connector-curvature="0"
     style="fill:#ff0000" />
  <path
     d="m 28.766,11.557 0.828,0 c 0,0 0.109,-0.375 0.281,-0.391 0.172,-0.016 0.219,0.375 0.219,0.375 0,0 0.391,0.094 0.562,-0.016 0.172,-0.109 0.594,0.016 0.266,0.203 -0.328,0.187 -0.141,-0.203 -0.328,0 -0.187,0.203 -0.359,0.281 -0.328,0.359 0.031,0.078 -0.098,0.14 -0.361,0.14 -0.264,0 -0.436,-0.062 -0.404,-0.187 0.031,-0.125 -0.172,-0.172 -0.406,-0.219 -0.236,-0.046 -0.329,-0.264 -0.329,-0.264 z"
     id="path54"
     inkscape:connector-curvature="0"
     style="fill:#f8c600" />
  <path
     d="m 29.021,9.174 c -0.063,-0.07 -0.223,0.22 -0.16,0.424 0.062,0.203 0.046,0.394 0.169,0.363 0.123,-0.03 0.093,-0.208 0.174,-0.35 C 29.266,9.502 29.016,9.533 29.095,9.408 L 29.021,9.174 Z"
     id="path56"
     inkscape:connector-curvature="0"
     style="fill:#ff0000" />
  <path
     d="m 28.766,9.893 0.828,0 c 0,0 0.109,-0.375 0.281,-0.391 0.172,-0.016 0.219,0.375 0.219,0.375 0,0 0.391,0.094 0.562,-0.016 0.172,-0.109 0.594,0.016 0.266,0.203 -0.328,0.187 -0.141,-0.203 -0.328,0 -0.188,0.203 -0.359,0.281 -0.328,0.359 0.031,0.078 -0.098,0.14 -0.361,0.14 -0.264,0 -0.436,-0.062 -0.404,-0.187 0.031,-0.125 -0.172,-0.172 -0.406,-0.219 -0.236,-0.046 -0.329,-0.264 -0.329,-0.264 z"
     id="path58"
     inkscape:connector-curvature="0"
     style="fill:#f8c600" />
  <path
     d="m 29.021,7.484 c -0.063,-0.07 -0.223,0.22 -0.16,0.424 0.062,0.203 0.046,0.394 0.169,0.363 0.123,-0.03 0.093,-0.208 0.174,-0.35 C 29.266,7.812 29.016,7.843 29.095,7.718 L 29.021,7.484 Z"
     id="path60"
     inkscape:connector-curvature="0"
     style="fill:#ff0000" />
  <path
     d="m 28.766,8.203 0.828,0 c 0,0 0.109,-0.375 0.281,-0.391 0.172,-0.016 0.219,0.375 0.219,0.375 0,0 0.391,0.094 0.562,-0.016 0.172,-0.109 0.594,0.016 0.266,0.203 -0.328,0.187 -0.141,-0.203 -0.328,0 -0.187,0.203 -0.359,0.281 -0.328,0.359 0.031,0.078 -0.098,0.14 -0.361,0.14 -0.264,0 -0.436,-0.061 -0.404,-0.186 C 29.532,8.562 29.329,8.515 29.095,8.468 28.859,8.422 28.766,8.203 28.766,8.203 Z m 4.427,9.859 C 32.881,17.859 32.396,17.416 32.271,17.208 32.146,17 31.896,16.709 31.63,17.019 c -0.266,0.309 -2.381,2.372 -4.714,2.372 -2.333,0 -4.448,-2.062 -4.714,-2.372 -0.266,-0.31 -0.516,-0.019 -0.641,0.189 -0.125,0.208 -0.609,0.651 -0.922,0.854 -0.313,0.203 -0.125,0.734 0.25,1.047 0.375,0.313 0.828,-0.375 0.828,-0.375 1.297,1.156 2.984,2.234 5.198,2.234 2.214,0 3.901,-1.078 5.198,-2.234 0,0 0.453,0.688 0.828,0.375 0.375,-0.313 0.565,-0.843 0.252,-1.047 z"
     id="path62"
     inkscape:connector-curvature="0"
     style="fill:#f8c600" />
  <path
     d="M 19,13 19,0 4,0 C 3.68,0 3.396,0.045 3.396,0.045 L 3.392,1.799 0.662,1.795 C 0.662,1.795 0.62,1.854 0.535,2 0.195,2.589 0,3.272 0,4 l 0,9 19,0 z"
     id="path64"
     inkscape:connector-curvature="0"
     style="fill:#00247d" />
  <path
     d="M 19,0 16.669,0 12,3.269 12,0 7,0 7,2.569 3.396,0.045 C 2.782,0.139 2.206,0.37 1.724,0.71 L 6.426,4 4.69,4 0.967,1.391 C 0.857,1.52 0.756,1.653 0.662,1.795 L 3.813,4 0,4 0,9 3.885,9 0,11.766 0,13 3.332,13 7,10.432 7,13 12,13 12,9.731 16.668,13 19,13 19,10.971 16.185,9 19,9 19,4 16.186,4 19,2.029 19,0 Z"
     id="path66"
     inkscape:connector-curvature="0"
     style="fill:#eeeeee" />
  <path
     d="m 11,0 -3,0 0,5 -8,0 0,3 8,0 0,5 3,0 0,-5 8,0 0,-3 -8,0 z"
     id="path68"
     inkscape:connector-curvature="0"
     style="fill:#cf1b2b" />
  <path
     d="M 19,0 17.539,0 12,3.879 12,4 13.571,4 19,0.198 Z M 1.724,0.71 C 1.443,0.905 1.19,1.133 0.967,1.391 L 4.69,4 6.425,4 1.724,0.71 Z M 6.437,9 0.734,13 2.461,13 7,9.822 7,9 Z M 19,12.802 19,11.582 15.313,9 13.57,9 Z"
     id="path70"
     inkscape:connector-curvature="0"
     style="fill:#cf1b2b" />
</svg>
