<?xml version="1.0" encoding="UTF-8" standalone="no"?>
<svg
   xmlns:dc="http://purl.org/dc/elements/1.1/"
   xmlns:cc="http://creativecommons.org/ns#"
   xmlns:rdf="http://www.w3.org/1999/02/22-rdf-syntax-ns#"
   xmlns:svg="http://www.w3.org/2000/svg"
   xmlns="http://www.w3.org/2000/svg"
   xmlns:sodipodi="http://sodipodi.sourceforge.net/DTD/sodipodi-0.dtd"
   xmlns:inkscape="http://www.inkscape.org/namespaces/inkscape"
   viewBox="0 0 36 26"
   id="svg2"
   version="1.1"
   inkscape:version="0.91 r13725"
   sodipodi:docname="1f1f8-1f1ef.svg"
   width="36"
   height="26">
  <metadata
     id="metadata14">
    <rdf:RDF>
      <cc:Work
         rdf:about="">
        <dc:format>image/svg+xml</dc:format>
        <dc:type
           rdf:resource="http://purl.org/dc/dcmitype/StillImage" />
      </cc:Work>
    </rdf:RDF>
  </metadata>
  <defs
     id="defs12" />
  <sodipodi:namedview
     pagecolor="#ffffff"
     bordercolor="#666666"
     borderopacity="1"
     objecttolerance="10"
     gridtolerance="10"
     guidetolerance="10"
     inkscape:pageopacity="0"
     inkscape:pageshadow="2"
     inkscape:window-width="640"
     inkscape:window-height="480"
     id="namedview10"
     showgrid="false"
     inkscape:zoom="6.5555556"
     inkscape:cx="18"
     inkscape:cy="13"
     inkscape:window-x="0"
     inkscape:window-y="0"
     inkscape:window-maximized="0"
     inkscape:current-layer="svg2" />
  <path
     d="M 10,0 4,0 C 1.791,0 0,1.791 0,4 l 0,6 10,0 0,-10 z m 22,0 -16,0 0,10 20,0 0,-6 C 36,1.791 34.209,0 32,0 Z M 10,26 4,26 C 1.791,26 0,24.209 0,22 l 0,-6 10,0 0,10 z m 22,0 -16,0 0,-10 20,0 0,6 c 0,2.209 -1.791,4 -4,4 z"
     id="path4"
     inkscape:connector-curvature="0"
     style="fill:#ef2b2d" />
  <path
     d="M 14.5,0 11.556,0 11.531,11.5 0,11.5 l 0,3 11.525,0 -0.025,11.5 3,0 0,-11.5 21.5,0 0,-3 -21.5,0 z"
     id="path6"
     inkscape:connector-curvature="0"
     style="fill:#002868" />
  <path
     d="m 14.5,26 1.5,0 0,-10 20,0 0,-1.5 -21.5,0 z M 16,0 l -1.5,0 0,11.5 21.5,0 0,-1.5 -20,0 z m -4.5,0 -1.5,0 0,10 -10,0 0,1.5 11.5,0 z M 0,14.5 0,16 l 10,0 0,10 1.5,0 0,-11.5 z"
     id="path8"
     inkscape:connector-curvature="0"
     style="fill:#eeeeee" />
</svg>
