<?xml version="1.0" encoding="UTF-8" standalone="no"?>
<svg
   xmlns:dc="http://purl.org/dc/elements/1.1/"
   xmlns:cc="http://creativecommons.org/ns#"
   xmlns:rdf="http://www.w3.org/1999/02/22-rdf-syntax-ns#"
   xmlns:svg="http://www.w3.org/2000/svg"
   xmlns="http://www.w3.org/2000/svg"
   xmlns:sodipodi="http://sodipodi.sourceforge.net/DTD/sodipodi-0.dtd"
   xmlns:inkscape="http://www.inkscape.org/namespaces/inkscape"
   viewBox="0 0 36 26"
   id="svg2"
   version="1.1"
   inkscape:version="0.91 r13725"
   sodipodi:docname="1f1f0-1f1ff.svg"
   width="36"
   height="26">
  <metadata
     id="metadata36">
    <rdf:RDF>
      <cc:Work
         rdf:about="">
        <dc:format>image/svg+xml</dc:format>
        <dc:type
           rdf:resource="http://purl.org/dc/dcmitype/StillImage" />
      </cc:Work>
    </rdf:RDF>
  </metadata>
  <defs
     id="defs34" />
  <sodipodi:namedview
     pagecolor="#ffffff"
     bordercolor="#666666"
     borderopacity="1"
     objecttolerance="10"
     gridtolerance="10"
     guidetolerance="10"
     inkscape:pageopacity="0"
     inkscape:pageshadow="2"
     inkscape:window-width="640"
     inkscape:window-height="480"
     id="namedview32"
     showgrid="false"
     inkscape:zoom="6.5555556"
     inkscape:cx="18"
     inkscape:cy="13"
     inkscape:window-x="0"
     inkscape:window-y="0"
     inkscape:window-maximized="0"
     inkscape:current-layer="svg2" />
  <path
     d="m 36,22 c 0,2.209 -1.791,4 -4,4 L 4,26 C 1.791,26 0,24.209 0,22 L 0,4 C 0,1.791 1.791,0 4,0 l 28,0 c 2.209,0 4,1.791 4,4 l 0,18 z"
     id="path4"
     inkscape:connector-curvature="0"
     style="fill:#00afca" />
  <g
     id="g6"
     style="fill:#ffcc4d"
     transform="translate(0,-5)">
    <circle
       cx="19.035"
       cy="16.513"
       r="2.865"
       id="circle8" />
    <path
       d="m 19.037,13.432 c 0.17,-0.002 0.232,-0.109 0.232,-0.236 0,-0.17 -0.232,-1.496 -0.232,-1.496 0,0 -0.236,1.326 -0.236,1.496 0,0.127 0.064,0.236 0.236,0.236 z m 0,6.178 c -0.172,0.001 -0.236,0.108 -0.236,0.235 0,0.171 0.236,1.479 0.236,1.479 0,0 0.232,-1.309 0.232,-1.479 0.001,-0.126 -0.062,-0.235 -0.232,-0.235 z m -0.801,-0.121 c -0.165,-0.042 -0.252,0.045 -0.285,0.168 -0.044,0.164 -0.163,1.506 -0.163,1.506 0,0 0.571,-1.221 0.615,-1.385 0.034,-0.123 -10e-4,-0.245 -0.167,-0.289 z m 1.6,-5.968 c 0.166,0.044 0.256,-0.044 0.289,-0.166 0.044,-0.165 0.154,-1.49 0.154,-1.49 0,0 -0.562,1.203 -0.607,1.369 -0.033,0.122 -0.001,0.243 0.164,0.287 z m -2.343,5.658 c -0.149,-0.083 -0.256,-0.022 -0.319,0.089 -0.085,0.147 -0.547,1.412 -0.547,1.412 0,0 0.867,-1.031 0.952,-1.178 0.064,-0.111 0.063,-0.237 -0.086,-0.323 z m 3.089,-5.351 c 0.149,0.086 0.259,0.024 0.322,-0.086 0.086,-0.148 0.535,-1.398 0.535,-1.398 0,0 -0.856,1.017 -0.942,1.164 -0.062,0.11 -0.062,0.235 0.085,0.32 z m -3.727,4.862 c -0.122,-0.119 -0.241,-0.088 -0.331,0.002 -0.12,0.121 -0.894,1.223 -0.894,1.223 0,0 1.105,-0.772 1.225,-0.891 0.09,-0.09 0.122,-0.214 0,-0.334 z m 4.369,-4.37 c 0.122,0.121 0.243,0.09 0.333,0 0.121,-0.12 0.879,-1.213 0.879,-1.213 0,0 -1.089,0.762 -1.209,0.883 -0.09,0.09 -0.123,0.21 -0.003,0.33 z m -4.857,3.731 c -0.087,-0.146 -0.21,-0.146 -0.321,-0.083 -0.148,0.085 -1.18,0.949 -1.18,0.949 0,0 1.267,-0.458 1.414,-0.543 0.111,-0.064 0.173,-0.174 0.087,-0.323 z m 5.35,-3.089 c 0.087,0.149 0.213,0.15 0.322,0.087 0.148,-0.086 1.163,-0.944 1.163,-0.944 0,0 -1.249,0.453 -1.397,0.538 -0.11,0.064 -0.172,0.171 -0.088,0.319 z m -5.657,2.346 c -0.046,-0.164 -0.166,-0.196 -0.289,-0.164 -0.164,0.044 -1.385,0.612 -1.385,0.612 0,0 1.342,-0.115 1.506,-0.159 0.123,-0.034 0.212,-0.123 0.168,-0.289 z m 5.966,-1.6 c 0.046,0.166 0.166,0.2 0.289,0.167 0.165,-0.044 1.368,-0.61 1.368,-0.61 0,0 -1.324,0.114 -1.49,0.158 -0.122,0.032 -0.211,0.121 -0.167,0.285 z m -6.071,0.803 c -0.002,-0.17 -0.109,-0.232 -0.236,-0.232 -0.17,0 -1.496,0.232 -1.496,0.232 0,0 1.326,0.236 1.496,0.236 0.127,0 0.236,-0.064 0.236,-0.236 z m 6.178,0 c 0.001,0.172 0.108,0.236 0.235,0.236 0.171,0 1.479,-0.236 1.479,-0.236 0,0 -1.309,-0.232 -1.479,-0.232 -0.127,-0.001 -0.235,0.062 -0.235,0.232 z M 16.06,15.714 c 0.042,-0.165 -0.045,-0.252 -0.168,-0.285 -0.164,-0.044 -1.506,-0.163 -1.506,-0.163 0,0 1.221,0.571 1.385,0.615 0.123,0.033 0.245,-10e-4 0.289,-0.167 z m 5.967,1.599 c -0.044,0.166 0.044,0.256 0.166,0.289 0.165,0.044 1.49,0.154 1.49,0.154 0,0 -1.203,-0.563 -1.369,-0.607 -0.122,-0.032 -0.243,-0.001 -0.287,0.164 z m -5.659,-2.342 c 0.083,-0.148 0.022,-0.256 -0.089,-0.319 -0.147,-0.085 -1.412,-0.547 -1.412,-0.547 0,0 1.031,0.867 1.178,0.952 0.111,0.064 0.237,0.062 0.323,-0.086 z m 5.351,3.089 c -0.086,0.149 -0.024,0.259 0.086,0.322 0.147,0.086 1.398,0.535 1.398,0.535 0,0 -1.017,-0.855 -1.164,-0.941 -0.11,-0.063 -0.235,-0.063 -0.32,0.084 z m -4.862,-3.727 c 0.119,-0.122 0.088,-0.241 -0.002,-0.331 -0.121,-0.12 -1.223,-0.894 -1.223,-0.894 0,0 0.772,1.105 0.891,1.225 0.09,0.09 0.213,0.122 0.334,0 z m 4.37,4.369 c -0.121,0.122 -0.09,0.244 0,0.333 0.12,0.121 1.213,0.879 1.213,0.879 0,0 -0.762,-1.089 -0.883,-1.21 -0.09,-0.09 -0.21,-0.123 -0.33,-0.002 z m -3.73,-4.858 c 0.145,-0.087 0.146,-0.21 0.083,-0.321 -0.085,-0.147 -0.949,-1.18 -0.949,-1.18 0,0 0.458,1.267 0.543,1.414 0.063,0.111 0.174,0.173 0.323,0.087 z m 3.089,5.351 c -0.148,0.086 -0.15,0.211 -0.087,0.321 0.086,0.148 0.944,1.163 0.944,1.163 0,0 -0.453,-1.25 -0.538,-1.398 -0.064,-0.109 -0.172,-0.172 -0.319,-0.086 z m -2.347,-5.658 c 0.164,-0.046 0.196,-0.166 0.164,-0.289 -0.044,-0.164 -0.612,-1.385 -0.612,-1.385 0,0 0.115,1.342 0.159,1.506 0.033,0.123 0.123,0.212 0.289,0.168 z m 1.6,5.967 c -0.166,0.046 -0.2,0.166 -0.167,0.289 0.044,0.165 0.61,1.368 0.61,1.368 0,0 -0.114,-1.325 -0.158,-1.489 -0.032,-0.123 -0.121,-0.212 -0.285,-0.168 z"
       id="path10"
       inkscape:connector-curvature="0" />
  </g>
  <g
     id="g12"
     style="fill:#ffcc4d"
     transform="translate(0,-5)">
    <path
       d="m 21.846,23.645 -0.037,0.016 -0.041,0.006 -0.031,0.006 -0.057,-0.012 -0.025,-0.01 -0.023,-0.011 -0.027,-0.017 -0.045,-0.032 -0.041,-0.033 -0.023,-0.016 -0.029,-0.012 -0.02,-0.005 -0.029,0 -0.113,0.235 -0.023,0.033 -0.022,0.027 -0.023,0.017 -0.02,0.017 -0.029,0.011 -0.027,0 -0.025,-0.011 -0.035,-0.017 -0.01,-0.017 -0.012,-0.017 -0.012,-0.022 -0.012,-0.026 -0.016,-0.083 -0.033,0.027 -0.031,0.039 -0.062,0.094 -0.037,0.049 -0.039,0.038 -0.021,0.023 -0.027,0.017 -0.027,0.012 -0.033,0.01 -0.016,0 -0.029,0.006 -0.027,-0.006 -0.021,-0.01 -0.064,-0.077 -0.072,-0.077 -0.049,0.077 -0.057,0.065 -0.027,0.027 -0.025,0.027 -0.027,0.022 -0.051,0.028 -0.027,0.006 -0.027,0 -0.023,-0.006 -0.022,-0.012 -0.016,-0.017 -0.021,-0.026 c -0.014,-0.041 -0.029,-0.081 -0.045,-0.121 l -0.006,-0.028 -0.01,-0.021 -0.012,-0.011 -0.012,0 -0.148,0.242 -0.021,0.021 -0.039,0.017 -0.086,0.021 -0.051,0 -0.039,-0.011 -0.012,-0.006 -0.016,-0.017 -0.004,-0.01 0,-0.022 0.02,-0.242 -0.016,0.006 -0.043,0.021 c -0.039,0.041 -0.078,0.083 -0.115,0.126 l -0.049,0.061 -0.061,0.051 -0.057,0.043 -0.032,0.018 -0.066,0.01 -0.027,-0.006 -0.012,-0.004 -0.011,-0.012 -0.006,-0.017 0,-0.017 0.006,-0.07 0.017,-0.111 -0.011,-0.065 -0.023,-0.038 -0.033,0.049 -0.054,0.071 c -0.045,0.049 -0.091,0.097 -0.138,0.144 -0.026,0.017 -0.052,0.036 -0.077,0.055 l -0.06,0.021 -0.012,-0.006 -0.017,0 -0.012,-0.01 -0.004,-0.006 -0.012,-0.017 -0.004,-0.017 0,-0.021 -0.006,-0.028 0.006,-0.208 c -0.1,0.068 -0.201,0.134 -0.303,0.197 l -0.038,0.017 -0.043,0.022 c -0.041,0.01 -0.081,0.02 -0.121,0.032 l -0.04,0 -0.037,-0.005 -0.034,-0.012 0.017,-0.044 0.033,-0.077 0.021,-0.032 0.024,-0.033 0.021,-0.033 0.056,-0.055 0.061,-0.043 0.07,-0.045 0.072,-0.033 0.083,-0.027 0.082,-0.021 0.187,-0.033 0.093,-0.012 c 0.276,-0.016 0.553,-0.018 0.829,-0.016 l 0.303,-0.017 0.094,-0.011 0.174,-0.033 0.084,-0.023 0.078,-0.032 0.072,-0.033 c 0.038,-0.03 0.077,-0.06 0.117,-0.088 l 0.053,-0.062 -0.057,-0.109 0.045,-0.006 0.043,-0.01 0.045,-0.022 0.037,-0.028 0.016,-0.01 0.018,-0.017 0.012,-0.022 0.012,-0.016 0.004,-0.022 0,-0.038 -0.012,-0.022 0.094,-0.017 0.1,-0.011 0.105,-0.006 0.109,0 c 0.153,0.006 0.305,0.015 0.457,0.027 0.23,0.028 0.461,0.05 0.692,0.072 l 0.207,0.011 0,0.076 -0.004,0.034 -0.012,0.032 -0.01,0.033 -0.012,0.027 -0.016,0.022 c -0.019,0.022 -0.04,0.044 -0.061,0.065 l -0.049,0.032 -0.053,0.022 -0.053,0.012 -0.061,0.011 -0.117,-0.011 -0.061,-0.017 -0.053,-0.028 -0.057,-0.027 -0.043,-0.039 -0.043,-0.043 0,0.094 c -0.008,0.061 -0.018,0.121 -0.027,0.182 l -0.021,0.057 -0.012,0.023 -0.016,0.016 -0.012,0.017 -0.014,0.01 m -4.418,-0.517 0.125,0.055 c 0.025,-0.021 0.051,-0.041 0.077,-0.06 l 0.049,-0.026 0.044,-0.028 0.165,-0.066 0.142,-0.066 0.072,-0.027 0.122,-0.065 0.049,-0.034 c 0.124,-0.081 0.249,-0.161 0.374,-0.24 l 0.109,-0.077 0.083,-0.066 c 0.082,-0.074 0.162,-0.149 0.242,-0.225 l 0.033,-0.022 0.038,-0.022 c 0.046,-0.023 0.091,-0.045 0.138,-0.066 l 0.093,-0.032 c 0.186,-0.051 0.375,-0.091 0.565,-0.121 0.194,-0.023 0.388,-0.049 0.582,-0.071 l 0.258,-0.044 c 0.064,-0.018 0.128,-0.034 0.193,-0.049 l 0.066,-0.083 0.106,-0.115 0.072,-0.071 0.08,-0.067 0.094,-0.071 0.109,-0.072 0.166,-0.098 c 0.119,-0.06 0.237,-0.12 0.355,-0.182 0.21,-0.098 0.417,-0.202 0.623,-0.308 l 0.098,-0.066 0.027,-0.083 0.039,-0.081 0.049,-0.083 0.127,-0.17 c 0.058,-0.062 0.114,-0.124 0.17,-0.188 0.068,-0.066 0.138,-0.13 0.209,-0.192 l 0.106,-0.087 0.053,-0.039 0.057,-0.038 c 0.04,-0.023 0.08,-0.045 0.121,-0.066 l 0.061,-0.028 0.059,-0.021 0.129,-0.034 0.064,-0.004 0.061,-0.006 0.064,0.006 0.061,0.01 -0.004,0.066 -0.016,0.065 -0.049,0.138 -0.041,0.071 -0.049,0.072 -0.06,0.076 -0.072,0.077 0.057,-0.006 0.049,-0.011 0.039,-0.012 0.037,-0.016 0.072,-0.022 0.103,-0.011 0.006,0.039 0,0.038 -0.006,0.038 -0.01,0.033 -0.016,0.033 -0.023,0.033 -0.021,0.026 -0.027,0.028 c -0.076,0.073 -0.152,0.144 -0.231,0.214 l 0.065,0.006 c 0.048,0.015 0.096,0.03 0.145,0.043 l 0.053,0.012 -0.064,0.05 c -0.051,0.034 -0.102,0.067 -0.154,0.099 l -0.176,0.099 -0.088,0.055 -0.088,0.061 -0.082,0.066 0.037,0.005 0.051,0.022 0.022,0.006 0.021,0.011 0.018,0.005 0.016,-0.005 -0.109,0.061 c -0.068,0.032 -0.136,0.065 -0.203,0.099 l -0.084,0.05 -0.016,0.017 -0.01,0.017 -0.012,0.016 0.004,0.022 0.012,0.017 0.021,0.016 0.02,0.018 -0.008,0.021 -0.012,0.018 -0.021,0.016 -0.02,0.017 -0.053,0.026 -0.064,0.028 -0.125,0.044 -0.078,0.039 0.109,0.109 -0.039,0.038 -0.037,0.028 -0.033,0.017 -0.039,0.016 -0.076,0.011 -0.108,0 0.012,0.05 0.016,0.049 0.023,0.111 c -0.068,0.053 -0.138,0.104 -0.209,0.153 l -0.127,0.082 -0.141,0.082 -0.084,0.039 -0.082,0.038 c -0.093,0.036 -0.186,0.069 -0.281,0.099 l -0.213,0.045 -0.117,0.017 c 0.127,0.004 0.254,0.006 0.381,0.005 l 0.312,-0.033 0.137,-0.027 0.121,-0.033 c 0.08,-0.027 0.158,-0.057 0.236,-0.088 l 0.152,-0.07 0.15,-0.083 0.141,-0.089 0.15,-0.087 -0.09,-0.044 -0.086,-0.027 -0.041,-0.019 c -0.031,-0.015 -0.062,-0.03 -0.094,-0.043 l -0.051,-0.028 0.043,-0.032 0.053,-0.022 0.057,-0.021 c 0.066,-0.016 0.133,-0.031 0.199,-0.045 0.086,-0.009 0.172,-0.02 0.258,-0.032 l 0.109,-0.011 0.084,-0.021 0.022,-0.012 0.016,-0.017 -0.004,-0.006 -0.012,-0.011 -0.016,-0.006 -0.021,-0.01 -0.061,-0.012 -0.078,-0.011 -0.076,-0.006 -0.076,-0.011 -0.068,-0.017 -0.041,-0.017 0.537,-0.12 0.094,-0.028 c 0.041,-0.015 0.081,-0.032 0.121,-0.049 l 0.053,-0.034 0.023,-0.021 -0.006,-0.005 -0.01,-0.012 -0.051,-0.011 -0.07,-0.006 -0.084,0 c -0.057,-0.004 -0.113,-0.008 -0.17,-0.01 l -0.07,-0.012 -0.045,-0.011 0.078,-0.032 c 0.116,-0.036 0.234,-0.069 0.352,-0.1 0.067,-0.023 0.135,-0.046 0.203,-0.066 l 0.104,-0.044 0.049,-0.027 0.045,-0.027 0.016,-0.017 0.017,-0.022 0.016,-0.016 0.006,-0.017 -0.006,-0.017 -0.016,-0.012 -0.017,-0.004 -0.152,0 -0.072,0.004 -0.098,0 -0.029,-0.004 -0.019,-0.012 -0.024,-0.011 c 0.2,-0.132 0.402,-0.263 0.605,-0.391 l 0.158,-0.11 c 0.043,-0.035 0.084,-0.072 0.125,-0.109 L 25.055,20.175 25.1,20.12 25.133,20.06 25.16,20 l 0.016,-0.067 0,-0.071 -0.037,0 -0.039,0.006 -0.086,0.032 c -0.076,0.048 -0.154,0.094 -0.232,0.138 l -0.043,0.028 -0.051,0.021 -0.049,0.017 -0.045,0.011 -0.043,0.006 -0.051,0 -0.043,-0.017 0.133,-0.099 c 0.107,-0.091 0.213,-0.183 0.318,-0.275 0.116,-0.111 0.229,-0.224 0.34,-0.341 l 0.158,-0.176 c 0.047,-0.062 0.095,-0.122 0.144,-0.182 0.039,-0.056 0.078,-0.113 0.115,-0.17 l 0.012,-0.021 0.004,-0.017 -0.004,-0.023 -0.006,-0.016 -0.006,-0.018 -0.016,-0.011 -0.017,-0.017 -0.016,-0.006 -0.021,-0.01 -0.024,-0.006 -0.043,0 -0.021,0.006 -0.029,0.004 -0.016,0.018 -0.023,0.017 c -0.112,0.112 -0.223,0.226 -0.332,0.341 l -0.133,0.126 c -0.087,0.076 -0.175,0.151 -0.264,0.226 -0.042,0.028 -0.084,0.056 -0.127,0.082 l -0.121,0.061 0.037,-0.033 c 0.04,-0.038 0.079,-0.076 0.117,-0.115 0.141,-0.162 0.276,-0.33 0.406,-0.5 l 0.254,-0.357 0.068,-0.12 0.068,-0.11 0.055,-0.1 0.043,-0.094 0.027,-0.076 0.006,-0.027 0,-0.044 -0.006,-0.017 -0.02,-0.033 -0.012,-0.011 -0.018,-0.005 -0.031,-0.018 -0.041,-0.011 -0.075,0 -0.021,0.006 -0.016,0.005 -0.023,0.012 -0.016,0.016 -0.045,0.039 c -0.049,0.059 -0.097,0.12 -0.143,0.182 -0.11,0.172 -0.226,0.34 -0.346,0.505 l -0.139,0.165 -0.07,0.072 -0.076,0.066 0.098,-0.183 0.154,-0.323 0.1,-0.236 0.043,-0.121 0.076,-0.248 c 0.019,-0.08 0.036,-0.16 0.051,-0.241 0.007,-0.075 0.013,-0.15 0.018,-0.226 l -0.008,-0.055 -0.004,-0.049 -0.006,-0.051 -0.016,-0.064 -0.012,-0.018 -0.027,-0.027 -0.037,-0.016 -0.041,-0.012 -0.037,0 -0.035,0.006 -0.01,0.006 -0.016,0.004 -0.006,0.012 c -0.099,0.312 -0.174,0.63 -0.26,0.945 -0.032,0.088 -0.064,0.176 -0.098,0.264 l -0.082,0.159 -0.051,0.071 0.033,-0.158 c 0.016,-0.092 0.03,-0.183 0.043,-0.275 l 0.023,-0.226 0.006,-0.094 C 24.341,17.79 24.337,17.743 24.332,17.695 l -0.01,-0.055 -0.016,-0.044 -0.023,-0.033 -0.012,-0.011 -0.033,-0.011 -0.016,-0.006 -0.018,0 -0.016,0.006 -0.045,0.011 -0.043,0.022 c -0.034,0.17 -0.075,0.339 -0.121,0.506 -0.065,0.211 -0.143,0.418 -0.23,0.62 -0.059,0.124 -0.122,0.247 -0.188,0.368 l -0.121,0.209 -0.131,0.197 c -0.088,0.123 -0.179,0.244 -0.273,0.362 -0.092,0.104 -0.186,0.206 -0.281,0.308 -0.099,0.097 -0.2,0.193 -0.303,0.287 -0.106,0.088 -0.213,0.173 -0.322,0.257 -0.133,0.096 -0.269,0.188 -0.408,0.275 l -0.242,0.142 -0.385,0.177 -0.396,0.142 -0.328,0.1 -0.34,0.076 -0.17,0.028 -0.348,0.044 -0.176,0.011 -0.017,0.006 -0.017,0.005 -0.033,0.018 -0.037,0.026 c -0.043,0.037 -0.085,0.076 -0.127,0.115 l -0.088,0.089 -0.319,0.356 -0.121,0.121 -0.142,0.109 -0.056,0.038 -0.055,0.034 -0.12,0.055 c -0.186,0.076 -0.375,0.145 -0.562,0.22 l -0.049,0.027 -0.044,0.023 -0.032,0.021 -0.061,0.061 -0.017,0.027 -0.012,0.027 -0.004,0.039 0,0.028"
       id="path14"
       inkscape:connector-curvature="0" />
    <path
       d="m 19.441,23.375 0.092,0.012 0.045,0.017 0.01,0.005 0,0.006 -0.01,0 -0.012,0.005 -0.088,0.017 -0.07,0 -0.23,-0.017 -0.583,-0.011 c -0.154,0.002 -0.308,0.006 -0.462,0.011 -0.136,0.01 -0.271,0.021 -0.407,0.033 l -0.105,0.017 -0.093,0.021 c -0.022,0.008 -0.043,0.016 -0.065,0.022 l -0.028,0.012 -0.022,0.017 0.01,-0.056 0.024,-0.056 -0.077,0.022 -0.066,0.033 -0.026,0.017 -0.023,0.022 -0.017,0.026 -0.004,0.028 -0.016,-0.038 -0.012,-0.034 c -0.003,-0.024 -0.007,-0.048 -0.012,-0.071 0.006,-0.029 0.012,-0.058 0.016,-0.087 l 0.018,-0.028 0.01,-0.022 0.023,-0.026 0.044,-0.044 0.06,-0.039 0.068,-0.038 c 0.035,0.021 0.074,0.037 0.114,0.049 0.035,0.005 0.076,-10e-4 0.117,-0.011 0.061,0.054 0.219,0.043 0.241,-0.055 0.009,-0.032 0.008,-0.073 0,-0.11 l 0.066,-0.005 0.077,-0.012 0.17,-0.044 0.089,-0.017 0.082,-0.021 0.077,-0.011 0.065,-0.006 -0.027,0.023 -0.143,0.109 -0.054,0.038 0.07,0.018 0.061,0.011 -0.13,0.148 -0.034,0.044 0.043,0.017 0.044,0.012 0.05,0.011 0.099,0 0.098,-0.022 0.039,-0.023 0.045,0.023 0.044,0.017 c 0.028,0.008 0.057,0.016 0.086,0.022 0.068,0.007 0.136,0.015 0.205,0.021 l 0.414,0 m -0.501,-1.672 -0.049,0.099 -0.056,0.127 c -0.029,0.052 -0.056,0.105 -0.081,0.158 l -0.028,0.028 -0.065,-0.055 -0.072,-0.05 -0.077,-0.039 -0.081,-0.032 -0.177,-0.045 -0.087,-0.016 c -0.095,-0.011 -0.19,-0.02 -0.286,-0.027 -0.127,-0.002 -0.253,-0.008 -0.379,-0.018 l -0.176,-0.021 -0.099,-0.017 -0.093,-0.021 -0.098,-0.034 -0.083,-0.043 -0.061,-0.04 -0.126,-0.093 C 16.582,21.393 16.4,21.218 16.211,21.049 L 16.102,20.973 16.052,20.951 16,20.935 15.907,20.914 C 15.853,20.895 15.798,20.876 15.743,20.859 15.692,20.834 15.64,20.811 15.588,20.788 15.497,20.732 15.41,20.671 15.325,20.606 L 15.27,20.555 15.161,20.446 15.056,20.331 C 14.883,20.12 14.72,19.902 14.551,19.688 14.47,19.602 14.388,19.518 14.304,19.435 l -0.071,-0.065 -0.072,-0.06 -0.158,-0.115 -0.016,0.005 -0.018,0.017 -0.017,0.022 c -0.01,0.025 -0.018,0.051 -0.026,0.077 l -0.006,0.022 -0.04,-0.018 -0.033,-0.017 -0.04,-0.017 -0.033,-0.011 -0.071,0 -0.039,0.011 -0.038,0.017 c 0.03,0.038 0.059,0.076 0.087,0.115 l 0.049,0.077 0.089,0.17 0.032,0.083 0.012,0.044 0.012,0.033 0.005,0.038 0,0.032 -0.296,0 0.043,0.066 c 0.033,0.045 0.068,0.089 0.103,0.132 l 0.182,0.182 0.061,0.049 0.056,0.039 c -0.048,0.005 -0.095,0.009 -0.143,0.012 l -0.144,0.016 0.049,0.045 c 0.043,0.03 0.085,0.061 0.127,0.093 l 0.071,0.049 0.072,0.044 0.071,0.039 0.066,0.022 0.061,0.016 0.049,0.011 0.016,0.006 0.012,0.012 0.004,0.005 0,0.021 -0.016,0.045 -0.004,0.032 -0.007,0.022 0,0.016 0.007,0.028 0.004,0.022 0.012,0.01 0.016,0.012 0.021,0.011 0.028,0.006 0.056,0.022 0.027,0.01 0.022,0.017 0.005,0.006 0,0.011 -0.005,0.006 -0.044,0.032 -0.022,0.022 -0.022,0.027 0,0.023 -0.005,0.022 0.011,0.059 0.192,0.066 0.044,0.01 0.044,0.018 0.033,0.017 0.028,0.017 -0.182,0.143 0.049,0.044 0.061,0.033 0.077,0.038 c 0.055,0.02 0.11,0.038 0.166,0.056 l 0.082,0.016 0.072,0.017 0.065,0 -0.061,0.044 -0.077,0.049 -0.082,0.045 -0.061,0.044 0.055,0.038 c 0.167,0.086 0.338,0.166 0.512,0.237 0.304,0.124 0.615,0.232 0.928,0.329 0.07,0.017 0.139,0.035 0.208,0.055 l 0.088,0.017 -0.177,-0.017 C 16.41,22.517 16.301,22.5 16.191,22.481 l -0.154,-0.033 -0.303,-0.087 -0.142,-0.05 c -0.38,-0.148 -0.751,-0.318 -1.132,-0.462 l 0.028,-0.016 0.077,-0.028 0.049,-0.011 c 0.067,-0.02 0.132,-0.042 0.198,-0.066 -0.131,-0.02 -0.261,-0.043 -0.391,-0.07 -0.067,-0.022 -0.135,-0.042 -0.203,-0.061 l -0.039,-0.017 -0.033,-0.017 -0.027,-0.018 -0.018,-0.016 0,-0.005 0.006,-0.006 0.017,-0.006 0.016,-0.011 0.044,-0.017 0.192,-0.056 0.111,-0.038 C 14.328,21.36 14.168,21.333 14.008,21.308 L 13.931,21.29 13.87,21.269 13.848,21.257 13.827,21.24 13.809,21.23 13.798,21.212 13.815,21.201 13.864,21.19 c 0.051,-0.008 0.103,-0.017 0.154,-0.027 l 0.088,-0.011 c 0.05,-0.014 0.099,-0.029 0.148,-0.045 l 0.023,-0.016 0.022,-0.018 -0.087,-0.033 -0.056,-0.01 -0.055,-0.012 -0.252,-0.033 -0.066,-0.016 -0.061,-0.012 -0.121,-0.043 -0.056,-0.028 -0.045,-0.032 -0.044,-0.039 -0.033,-0.049 0.012,-0.006 0.021,-0.006 0.028,0 0.044,0.006 0.209,0.011 0.122,0.012 0.153,0 0.043,-0.006 0.034,-0.011 0.022,-0.012 C 14.008,20.712 13.905,20.668 13.803,20.622 13.736,20.588 13.668,20.555 13.599,20.523 L 13.391,20.414 13.292,20.353 C 13.231,20.31 13.171,20.266 13.111,20.221 L 13.034,20.155 13,20.117 12.966,20.084 12.945,20.051 12.922,20.012 12.9,19.98 l -0.012,-0.038 -0.009,-0.071 0.037,0 0.044,0.005 0.044,0.018 0.044,0.016 0.087,0.055 0.099,0.055 0.044,0.028 0.049,0.026 0.049,0.022 0.044,0.017 0.049,0.012 0.044,0.005 0.05,0 0.043,-0.017 -0.13,-0.1 C 13.368,19.924 13.262,19.832 13.157,19.74 12.983,19.574 12.816,19.402 12.656,19.222 l -0.07,-0.093 -0.072,-0.088 C 12.475,18.985 12.436,18.928 12.398,18.87 l -0.01,-0.022 0,-0.038 0.005,-0.017 0.005,-0.016 0.017,-0.011 0.016,-0.017 0.018,-0.012 0.021,-0.006 0.022,-0.004 0.044,0 0.027,0.004 0.024,0.006 0.021,0.017 c 0.119,0.118 0.236,0.237 0.351,0.358 0.127,0.122 0.259,0.24 0.396,0.352 l 0.126,0.081 0.065,0.034 0.061,0.021 -0.043,-0.027 -0.115,-0.115 c -0.141,-0.162 -0.275,-0.33 -0.407,-0.5 -0.058,-0.08 -0.115,-0.16 -0.171,-0.242 -0.05,-0.08 -0.101,-0.158 -0.154,-0.236 -0.042,-0.069 -0.082,-0.138 -0.121,-0.209 -0.022,-0.057 -0.046,-0.114 -0.07,-0.17 l -0.007,-0.027 0,-0.045 0.007,-0.016 0.021,-0.033 0.012,-0.012 0.017,-0.01 0.071,-0.023 0.077,0 0.022,0.005 0.016,0.006 0.022,0.012 0.061,0.055 0.143,0.182 c 0.112,0.172 0.23,0.34 0.352,0.505 l 0.13,0.165 0.072,0.071 0.077,0.066 C 13.532,18.836 13.447,18.668 13.367,18.498 13.333,18.42 13.3,18.341 13.268,18.262 l -0.044,-0.121 c -0.023,-0.083 -0.049,-0.166 -0.077,-0.248 l -0.027,-0.121 -0.02,-0.123 -0.012,-0.115 -0.005,-0.109 0.005,-0.055 0.007,-0.05 0.005,-0.05 0.011,-0.049 0.011,-0.018 0.006,-0.016 0.016,-0.018 0.011,-0.01 0.038,-0.017 0.039,-0.01 0.038,0 0.033,0.006 0.016,0.004 0.012,0.006 0.006,0.012 0.006,0.016 c 0.094,0.307 0.171,0.619 0.252,0.93 0.032,0.087 0.065,0.173 0.1,0.258 l 0.038,0.082 0.044,0.077 0.049,0.077 -0.032,-0.16 C 13.781,18.348 13.767,18.257 13.75,18.167 13.739,18.061 13.73,17.954 13.723,17.848 l 0.011,-0.143 0.011,-0.056 0.017,-0.043 0.022,-0.033 0.011,-0.012 0.016,-0.011 0.016,-0.005 0.05,0 0.045,0.016 0.043,0.022 0.077,0.346 c 0.028,0.105 0.059,0.21 0.093,0.313 0.056,0.157 0.117,0.313 0.182,0.467 l 0.077,0.159 0.11,0.21 0.12,0.208 0.133,0.198 0.142,0.197 0.133,0.165 c 0.092,0.104 0.185,0.207 0.28,0.308 0.099,0.097 0.2,0.192 0.303,0.285 l 0.159,0.133 c 0.146,0.114 0.296,0.222 0.451,0.324 0.121,0.072 0.244,0.142 0.368,0.209 l 0.378,0.182 c 0.192,0.076 0.386,0.146 0.582,0.208 0.192,0.051 0.387,0.095 0.583,0.132 0.263,0.042 0.533,0.067 0.804,0.078"
       id="path16"
       inkscape:connector-curvature="0" />
  </g>
  <g
     id="g18"
     style="fill:#ffcc4d"
     transform="translate(0,-5)">
    <path
       d="m 3.457,28.522 c 0,0 -0.237,0.197 -0.317,0.098 -0.129,-0.16 0.397,-0.959 0.397,-1.241 0,-0.461 -0.309,-0.589 -0.689,-0.654 -0.256,-0.044 -0.671,0.019 -0.671,0.019 0.078,0.105 0.129,0.138 0.261,0.144 -0.147,0.078 -0.296,0.243 -0.296,0.501 0,0.396 0.164,0.56 0.164,1.009 0,0.249 -0.204,0.565 -0.204,0.565 0.36,-0.036 0.54,-0.369 0.438,-0.637 0.058,-0.008 0.109,0.004 0.154,0.047 C 2.72,28.3 2.679,28.213 2.623,28.14 2.668,28.117 2.701,28.131 2.772,28.145 2.765,28.069 2.719,27.989 2.608,27.913 c 0.324,0.083 0.523,-0.142 0.523,-0.378 0,-0.18 -0.125,-0.308 -0.248,-0.308 -0.04,0 -0.098,0.017 -0.131,0.041 -0.023,-0.048 -0.011,-0.114 0.012,-0.163 -0.089,0.023 -0.146,0.076 -0.105,0.188 -0.069,0.005 -0.124,0.029 -0.161,0.074 0.038,0.047 0.095,0.075 0.161,0.072 -0.05,0.104 0.006,0.163 0.087,0.209 0,0 -0.052,-0.209 0.081,-0.209 0.06,0 0.114,0.021 0.114,0.108 0,0.075 -0.067,0.181 -0.221,0.175 -0.155,-0.007 -0.28,-0.107 -0.28,-0.352 0,-0.229 0.183,-0.342 0.424,-0.349 0.218,-0.007 0.382,0.111 0.382,0.336 0,0.298 -0.432,0.98 -0.432,1.246 0,0.2 0.179,0.311 0.355,0.311 0.228,0 0.42,-0.226 0.42,-0.226 L 3.457,28.522 Z M 3.407,23.12 c 0,-0.498 0.448,-0.755 0.8,-0.755 0.474,0 0.727,0.284 0.727,0.654 0,0.212 -0.039,0.344 -0.136,0.545 L 3.711,25.821 C 3.673,25.9 3.66,25.99 3.66,26.121 c 0,0.202 0.197,0.368 0.403,0.373 0.187,0.005 0.392,-0.175 0.392,-0.38 0,-0.249 -0.128,-0.359 -0.261,-0.359 -0.163,0 -0.228,0.066 -0.228,0.181 0,0.081 0.039,0.115 0.094,0.115 0.14,0 0.101,-0.188 0.101,-0.188 0.069,0.016 0.125,0.086 0.094,0.176 0.051,0.011 0.098,0.037 0.135,0.079 -0.037,0.037 -0.081,0.065 -0.135,0.074 0.033,0.108 -0.011,0.161 -0.105,0.184 0.019,-0.043 0.019,-0.08 0.013,-0.116 -0.149,0.042 -0.377,-0.024 -0.377,-0.282 0,-0.256 0.177,-0.471 0.51,-0.418 -0.08,-0.036 -0.119,-0.113 -0.127,-0.201 0.06,0.025 0.127,0.028 0.127,0.028 -0.039,-0.068 -0.093,-0.127 -0.091,-0.263 0.062,0.029 0.119,0.08 0.198,0.047 -0.124,-0.243 0.028,-0.577 0.416,-0.658 -0.142,0.165 -0.211,0.345 -0.211,0.524 0,0.58 0.162,0.676 0.162,1.078 0,0.168 -0.087,0.351 -0.258,0.474 l 0,-0.007 c 0.112,0.03 0.185,0.087 0.227,0.162 C 4.48,26.817 4.103,26.816 3.902,26.737 3.669,26.711 3.507,26.532 3.459,26.442 c -0.048,-0.092 -0.141,-0.418 0,-0.714 0.154,-0.321 0.88,-1.86 1.106,-2.345 0.048,-0.102 0.077,-0.212 0.077,-0.33 0,-0.295 -0.271,-0.399 -0.425,-0.399 -0.185,0 -0.373,0.142 -0.373,0.316 0,0.112 0.061,0.178 0.147,0.178 0.209,0 0.196,-0.177 0.154,-0.289 0.129,0.06 0.205,0.162 0.184,0.272 0.074,0.01 0.144,0.045 0.208,0.117 -0.051,0.066 -0.113,0.114 -0.208,0.115 0.042,0.17 -0.072,0.242 -0.184,0.281 0.035,-0.124 0.058,-0.269 -0.154,-0.269 -0.155,0 -0.277,-0.027 -0.348,-0.128 -0.005,0.135 -0.018,0.665 -0.018,0.665 -0.008,0.2 0.267,0.194 0.442,0.135 C 4,24.277 3.865,24.402 3.55,24.37 c 0.077,0.032 0.158,0.104 0.158,0.241 0,0.188 -0.152,0.395 -0.251,0.457 L 3.407,23.12 Z"
       id="path20"
       inkscape:connector-curvature="0" />
    <path
       d="m 3.506,23.12 c 0,-0.498 -0.448,-0.755 -0.8,-0.755 -0.474,0 -0.727,0.284 -0.727,0.654 0,0.212 0.039,0.344 0.136,0.545 l 1.087,2.257 c 0.038,0.079 0.05,0.169 0.05,0.3 0,0.202 -0.197,0.368 -0.402,0.373 -0.188,0.005 -0.392,-0.175 -0.392,-0.38 0,-0.249 0.128,-0.359 0.261,-0.359 0.163,0 0.228,0.066 0.228,0.181 0,0.081 -0.039,0.115 -0.094,0.115 -0.14,0 -0.101,-0.188 -0.101,-0.188 -0.069,0.016 -0.126,0.086 -0.094,0.176 -0.051,0.011 -0.098,0.037 -0.135,0.079 0.037,0.037 0.081,0.065 0.135,0.074 -0.032,0.108 0.012,0.161 0.106,0.183 -0.019,-0.043 -0.019,-0.08 -0.013,-0.116 0.149,0.042 0.377,-0.024 0.377,-0.282 0,-0.256 -0.177,-0.471 -0.509,-0.418 0.079,-0.036 0.119,-0.113 0.126,-0.201 -0.06,0.025 -0.126,0.028 -0.126,0.028 0.038,-0.068 0.092,-0.127 0.09,-0.263 -0.062,0.029 -0.118,0.08 -0.198,0.047 0.124,-0.243 -0.028,-0.577 -0.416,-0.658 0.142,0.165 0.211,0.345 0.211,0.524 0,0.58 -0.161,0.676 -0.161,1.078 0,0.168 0.087,0.351 0.258,0.474 l 0,-0.007 c -0.113,0.03 -0.186,0.087 -0.227,0.162 0.259,0.073 0.635,0.072 0.837,-0.007 0.233,-0.026 0.395,-0.205 0.443,-0.295 0.048,-0.092 0.141,-0.418 0,-0.714 C 3.302,25.406 2.576,23.867 2.35,23.382 2.302,23.28 2.273,23.17 2.273,23.052 c 0,-0.295 0.271,-0.399 0.425,-0.399 0.185,0 0.373,0.142 0.373,0.316 0,0.112 -0.061,0.178 -0.147,0.178 -0.209,0 -0.196,-0.177 -0.155,-0.289 -0.129,0.06 -0.205,0.162 -0.184,0.272 -0.073,0.01 -0.143,0.045 -0.208,0.117 0.051,0.066 0.113,0.114 0.208,0.115 -0.042,0.17 0.072,0.242 0.184,0.281 -0.035,-0.124 -0.058,-0.269 0.155,-0.269 0.155,0 0.277,-0.027 0.348,-0.128 l 0.018,0.665 c 0.008,0.2 -0.268,0.194 -0.443,0.135 0.066,0.229 0.202,0.354 0.516,0.322 -0.077,0.032 -0.158,0.104 -0.158,0.241 0,0.188 0.151,0.395 0.251,0.457 l 0.05,-1.946 z m -0.049,5.402 c 0,0 0.237,0.197 0.317,0.098 0.129,-0.16 -0.397,-0.959 -0.397,-1.241 0,-0.461 0.309,-0.589 0.689,-0.654 0.256,-0.044 0.672,0.019 0.672,0.019 -0.079,0.105 -0.129,0.138 -0.261,0.144 0.146,0.078 0.296,0.243 0.296,0.501 0,0.396 -0.164,0.56 -0.164,1.009 0,0.249 0.204,0.565 0.204,0.565 C 4.453,28.927 4.273,28.594 4.375,28.326 4.318,28.318 4.267,28.33 4.221,28.373 4.195,28.3 4.237,28.213 4.292,28.14 4.247,28.117 4.214,28.131 4.143,28.145 4.15,28.069 4.195,27.989 4.307,27.913 3.983,27.996 3.784,27.771 3.784,27.535 c 0,-0.18 0.125,-0.308 0.248,-0.308 0.04,0 0.098,0.017 0.131,0.041 0.023,-0.048 0.011,-0.114 -0.013,-0.163 0.09,0.023 0.146,0.076 0.106,0.188 0.069,0.005 0.123,0.029 0.161,0.074 -0.038,0.047 -0.095,0.075 -0.161,0.072 0.05,0.104 -0.006,0.163 -0.087,0.209 0,0 0.052,-0.209 -0.081,-0.209 -0.06,0 -0.114,0.021 -0.114,0.108 0,0.075 0.067,0.181 0.221,0.175 0.154,-0.007 0.279,-0.107 0.279,-0.352 0,-0.229 -0.183,-0.342 -0.424,-0.349 -0.218,-0.007 -0.382,0.111 -0.382,0.336 0,0.298 0.432,0.98 0.432,1.246 0,0.2 -0.179,0.311 -0.355,0.311 -0.228,0 -0.42,-0.226 -0.42,-0.226 L 3.457,28.522 Z M 3.407,14.377 c 0,-0.5 0.448,-0.756 0.8,-0.756 0.474,0 0.727,0.284 0.727,0.655 0,0.211 -0.039,0.343 -0.136,0.544 l -1.087,2.258 c -0.038,0.079 -0.051,0.168 -0.051,0.299 0,0.203 0.197,0.368 0.403,0.374 0.187,0.004 0.392,-0.176 0.392,-0.38 0,-0.248 -0.128,-0.359 -0.261,-0.359 -0.163,0 -0.228,0.067 -0.228,0.182 0,0.079 0.039,0.114 0.094,0.114 0.14,0 0.101,-0.188 0.101,-0.188 0.069,0.015 0.125,0.086 0.094,0.174 0.051,0.011 0.098,0.038 0.135,0.08 -0.037,0.037 -0.081,0.065 -0.135,0.075 0.033,0.108 -0.011,0.16 -0.105,0.183 0.019,-0.042 0.019,-0.08 0.013,-0.116 -0.149,0.042 -0.377,-0.024 -0.377,-0.282 0,-0.255 0.177,-0.47 0.51,-0.417 -0.08,-0.038 -0.119,-0.115 -0.127,-0.201 0.06,0.024 0.127,0.026 0.127,0.026 -0.039,-0.068 -0.093,-0.127 -0.091,-0.262 0.062,0.028 0.119,0.08 0.198,0.047 -0.124,-0.244 0.028,-0.579 0.416,-0.658 -0.142,0.166 -0.211,0.346 -0.211,0.524 0,0.579 0.162,0.676 0.162,1.079 0,0.168 -0.087,0.35 -0.258,0.474 l 0,-0.007 C 4.622,17.869 4.694,17.924 4.737,18 4.478,18.074 4.101,18.072 3.9,17.993 3.667,17.966 3.505,17.788 3.457,17.698 3.409,17.607 3.316,17.28 3.457,16.986 3.611,16.664 4.337,15.125 4.563,14.64 4.61,14.537 4.64,14.428 4.64,14.31 c 0,-0.296 -0.271,-0.4 -0.425,-0.4 -0.185,0 -0.373,0.141 -0.373,0.315 0,0.112 0.061,0.179 0.147,0.179 0.209,0 0.196,-0.178 0.154,-0.289 0.129,0.058 0.205,0.162 0.184,0.272 0.074,0.01 0.144,0.044 0.208,0.118 -0.051,0.064 -0.113,0.112 -0.208,0.114 0.042,0.171 -0.072,0.243 -0.184,0.282 0.035,-0.124 0.058,-0.268 -0.154,-0.268 -0.155,0 -0.277,-0.027 -0.348,-0.127 -0.005,0.134 -0.018,0.665 -0.018,0.665 -0.008,0.199 0.267,0.194 0.442,0.134 -0.065,0.23 -0.2,0.354 -0.515,0.322 0.077,0.032 0.158,0.104 0.158,0.242 0,0.187 -0.152,0.395 -0.251,0.456 l -0.05,-1.948 z"
       id="path22"
       inkscape:connector-curvature="0" />
    <path
       d="m 3.506,14.377 c 0,-0.5 -0.448,-0.756 -0.8,-0.756 -0.474,0 -0.727,0.284 -0.727,0.655 0,0.211 0.039,0.343 0.136,0.544 l 1.087,2.258 c 0.038,0.079 0.05,0.168 0.05,0.299 0,0.203 -0.197,0.368 -0.402,0.374 -0.188,0.004 -0.392,-0.176 -0.392,-0.38 0,-0.248 0.128,-0.359 0.261,-0.359 0.163,0 0.228,0.067 0.228,0.182 0,0.079 -0.039,0.114 -0.094,0.114 -0.14,0 -0.101,-0.188 -0.101,-0.188 -0.069,0.015 -0.126,0.086 -0.094,0.174 -0.051,0.011 -0.098,0.038 -0.135,0.08 0.037,0.037 0.081,0.065 0.135,0.075 -0.032,0.108 0.011,0.16 0.105,0.183 C 2.744,17.59 2.744,17.552 2.75,17.516 2.899,17.558 3.127,17.492 3.127,17.234 3.127,16.979 2.95,16.764 2.618,16.817 2.697,16.779 2.737,16.702 2.744,16.616 2.684,16.64 2.618,16.642 2.618,16.642 2.656,16.574 2.71,16.515 2.708,16.38 2.646,16.408 2.59,16.46 2.51,16.427 2.634,16.183 2.482,15.848 2.094,15.769 c 0.142,0.166 0.211,0.346 0.211,0.524 0,0.579 -0.161,0.676 -0.161,1.079 0,0.168 0.087,0.35 0.258,0.474 l 0,-0.007 C 2.291,17.869 2.218,17.924 2.177,18 c 0.259,0.074 0.635,0.072 0.837,-0.007 0.233,-0.027 0.395,-0.205 0.443,-0.295 0.048,-0.091 0.141,-0.418 0,-0.712 C 3.303,16.664 2.577,15.125 2.351,14.64 2.303,14.537 2.274,14.429 2.274,14.311 c 0,-0.296 0.271,-0.4 0.425,-0.4 0.185,0 0.373,0.141 0.373,0.315 0,0.112 -0.061,0.179 -0.147,0.179 -0.209,0 -0.196,-0.178 -0.155,-0.289 -0.129,0.058 -0.205,0.162 -0.184,0.272 -0.073,0.01 -0.143,0.044 -0.208,0.118 0.051,0.064 0.113,0.112 0.208,0.114 -0.042,0.171 0.072,0.243 0.184,0.282 -0.035,-0.124 -0.058,-0.268 0.155,-0.268 0.155,0 0.277,-0.027 0.348,-0.127 L 3.29,15.17 c 0.008,0.199 -0.268,0.194 -0.443,0.134 0.066,0.23 0.202,0.354 0.516,0.323 -0.077,0.032 -0.158,0.104 -0.158,0.242 0,0.187 0.151,0.395 0.251,0.456 l 0.05,-1.948 z"
       id="path24"
       inkscape:connector-curvature="0" />
    <path
       d="m 3.506,12.879 c 0,0.499 -0.448,0.756 -0.8,0.756 -0.474,0 -0.727,-0.284 -0.727,-0.656 0,-0.21 0.039,-0.342 0.136,-0.544 L 3.202,10.177 C 3.24,10.098 3.252,10.009 3.252,9.878 3.252,9.676 3.055,9.51 2.85,9.505 2.662,9.501 2.458,9.68 2.458,9.885 c 0,0.249 0.128,0.359 0.261,0.359 0.163,0 0.228,-0.067 0.228,-0.182 0,-0.08 -0.039,-0.114 -0.094,-0.114 -0.14,0 -0.101,0.188 -0.101,0.188 C 2.683,10.121 2.626,10.05 2.658,9.961 2.608,9.952 2.561,9.925 2.523,9.882 2.56,9.846 2.604,9.818 2.658,9.808 2.626,9.7 2.67,9.648 2.764,9.625 2.745,9.667 2.745,9.705 2.751,9.741 2.9,9.699 3.128,9.767 3.128,10.023 c 0,0.255 -0.177,0.47 -0.509,0.417 0.079,0.038 0.119,0.115 0.126,0.201 -0.06,-0.023 -0.126,-0.026 -0.126,-0.026 0.038,0.068 0.092,0.127 0.09,0.262 -0.062,-0.028 -0.118,-0.08 -0.198,-0.047 0.124,0.244 -0.028,0.579 -0.416,0.659 0.142,-0.167 0.211,-0.346 0.211,-0.525 0,-0.578 -0.161,-0.676 -0.161,-1.078 0,-0.168 0.087,-0.35 0.258,-0.474 l 0,0.007 C 2.291,9.388 2.218,9.332 2.177,9.256 2.436,9.183 2.812,9.184 3.014,9.264 3.247,9.291 3.409,9.469 3.457,9.56 c 0.048,0.09 0.141,0.417 0,0.712 -0.154,0.322 -0.88,1.861 -1.106,2.345 -0.048,0.102 -0.077,0.211 -0.077,0.329 0,0.297 0.271,0.4 0.425,0.4 0.185,0 0.373,-0.141 0.373,-0.316 0,-0.111 -0.061,-0.179 -0.147,-0.179 -0.209,0 -0.196,0.177 -0.155,0.289 C 2.641,13.082 2.565,12.978 2.586,12.868 2.513,12.858 2.443,12.823 2.378,12.75 2.429,12.686 2.491,12.637 2.586,12.636 2.544,12.466 2.658,12.393 2.77,12.353 c -0.035,0.125 -0.058,0.27 0.155,0.27 0.155,0 0.277,0.026 0.348,0.127 L 3.291,12.084 C 3.299,11.885 3.023,11.891 2.848,11.95 2.914,11.72 3.05,11.596 3.364,11.627 3.287,11.595 3.206,11.523 3.206,11.385 c 0,-0.187 0.151,-0.395 0.251,-0.456 l 0.049,1.95 z m 0,8.744 c 0,0.499 -0.448,0.755 -0.8,0.755 -0.474,0 -0.727,-0.283 -0.727,-0.654 0,-0.211 0.039,-0.344 0.136,-0.544 l 1.087,-2.258 c 0.038,-0.079 0.05,-0.168 0.05,-0.299 0,-0.203 -0.197,-0.368 -0.402,-0.373 -0.188,-0.005 -0.392,0.175 -0.392,0.379 0,0.248 0.128,0.359 0.261,0.359 0.163,0 0.228,-0.067 0.228,-0.182 0,-0.079 -0.039,-0.113 -0.094,-0.113 -0.14,0 -0.101,0.188 -0.101,0.188 C 2.683,18.865 2.626,18.795 2.658,18.706 2.607,18.696 2.56,18.669 2.523,18.626 2.56,18.59 2.604,18.561 2.658,18.552 2.626,18.443 2.669,18.391 2.763,18.368 2.744,18.41 2.744,18.448 2.75,18.484 c 0.149,-0.042 0.377,0.025 0.377,0.282 0,0.255 -0.177,0.469 -0.509,0.417 0.079,0.039 0.119,0.115 0.126,0.202 C 2.684,19.362 2.618,19.358 2.618,19.358 2.656,19.426 2.71,19.486 2.708,19.62 2.646,19.592 2.59,19.54 2.51,19.573 c 0.124,0.243 -0.028,0.58 -0.416,0.658 0.142,-0.165 0.211,-0.346 0.211,-0.524 0,-0.577 -0.161,-0.676 -0.161,-1.078 0,-0.169 0.087,-0.351 0.258,-0.474 l 0,0.006 C 2.291,18.132 2.218,18.077 2.177,18 c 0.259,-0.073 0.635,-0.072 0.837,0.008 0.233,0.027 0.395,0.205 0.443,0.295 0.048,0.091 0.141,0.417 0,0.712 -0.154,0.322 -0.88,1.861 -1.106,2.346 -0.048,0.102 -0.077,0.21 -0.077,0.329 0,0.296 0.271,0.399 0.425,0.399 0.185,0 0.373,-0.141 0.373,-0.316 0,-0.109 -0.061,-0.177 -0.147,-0.177 -0.209,0 -0.196,0.177 -0.155,0.288 C 2.641,21.826 2.565,21.721 2.586,21.612 2.513,21.602 2.443,21.569 2.378,21.495 2.429,21.432 2.491,21.384 2.586,21.38 2.544,21.21 2.658,21.139 2.77,21.099 c -0.035,0.125 -0.058,0.269 0.155,0.269 0.155,0 0.277,0.026 0.348,0.128 L 3.291,20.83 C 3.299,20.632 3.023,20.637 2.848,20.696 2.914,20.467 3.05,20.343 3.364,20.374 3.287,20.342 3.206,20.27 3.206,20.132 c 0,-0.187 0.151,-0.394 0.251,-0.456 l 0.049,1.947 z"
       id="path26"
       inkscape:connector-curvature="0" />
    <path
       d="m 3.407,21.623 c 0,0.499 0.448,0.755 0.8,0.755 0.474,0 0.727,-0.283 0.727,-0.654 0,-0.211 -0.039,-0.344 -0.136,-0.544 L 3.711,18.922 C 3.673,18.843 3.66,18.754 3.66,18.623 c 0,-0.203 0.197,-0.368 0.403,-0.373 0.187,-0.005 0.392,0.175 0.392,0.379 0,0.248 -0.128,0.359 -0.261,0.359 -0.163,0 -0.228,-0.067 -0.228,-0.182 0,-0.079 0.039,-0.113 0.094,-0.113 0.14,0 0.101,0.188 0.101,0.188 C 4.23,18.865 4.286,18.795 4.255,18.706 4.306,18.696 4.353,18.669 4.39,18.626 4.353,18.59 4.309,18.561 4.255,18.552 4.288,18.443 4.244,18.391 4.15,18.368 c 0.019,0.042 0.019,0.08 0.013,0.116 -0.149,-0.042 -0.377,0.025 -0.377,0.282 0,0.255 0.177,0.469 0.51,0.417 -0.08,0.039 -0.119,0.115 -0.127,0.202 0.06,-0.023 0.127,-0.027 0.127,-0.027 -0.039,0.068 -0.093,0.128 -0.091,0.262 0.062,-0.028 0.119,-0.08 0.198,-0.047 -0.124,0.243 0.028,0.58 0.416,0.658 -0.142,-0.165 -0.211,-0.346 -0.211,-0.524 0,-0.577 0.162,-0.676 0.162,-1.078 0,-0.169 -0.087,-0.351 -0.258,-0.474 l 0,0.006 c 0.112,-0.03 0.185,-0.085 0.227,-0.162 -0.259,-0.073 -0.636,-0.072 -0.837,0.008 -0.233,0.027 -0.395,0.205 -0.443,0.295 -0.048,0.091 -0.141,0.417 0,0.712 0.154,0.322 0.88,1.861 1.106,2.346 0.048,0.102 0.077,0.21 0.077,0.329 0,0.296 -0.271,0.399 -0.425,0.399 -0.185,0 -0.373,-0.141 -0.373,-0.316 0,-0.109 0.061,-0.177 0.147,-0.177 0.209,0 0.196,0.177 0.154,0.288 C 4.274,21.825 4.35,21.72 4.329,21.611 4.403,21.601 4.473,21.568 4.537,21.494 4.486,21.431 4.424,21.383 4.329,21.379 4.371,21.209 4.257,21.138 4.145,21.098 c 0.035,0.125 0.058,0.269 -0.154,0.269 -0.155,0 -0.277,0.026 -0.348,0.128 C 3.638,21.361 3.625,20.829 3.625,20.829 3.617,20.631 3.892,20.636 4.067,20.695 4,20.466 3.865,20.342 3.55,20.373 c 0.077,-0.032 0.158,-0.104 0.158,-0.242 0,-0.187 -0.152,-0.394 -0.251,-0.456 l -0.05,1.948 z M 3.457,7.479 c 0,0 0.237,-0.199 0.317,-0.1 0.129,0.161 -0.397,0.96 -0.397,1.242 0,0.462 0.309,0.587 0.689,0.653 C 4.322,9.319 4.738,9.256 4.738,9.256 4.658,9.151 4.608,9.12 4.476,9.112 4.622,9.036 4.772,8.871 4.772,8.613 4.772,8.215 4.608,8.051 4.608,7.603 4.608,7.354 4.812,7.037 4.812,7.037 4.452,7.074 4.272,7.407 4.374,7.674 4.317,7.683 4.266,7.669 4.221,7.627 4.195,7.701 4.237,7.787 4.292,7.861 4.247,7.885 4.214,7.87 4.143,7.855 4.15,7.932 4.195,8.012 4.307,8.088 3.982,8.004 3.783,8.23 3.783,8.467 c 0,0.179 0.125,0.306 0.248,0.306 0.04,0 0.098,-0.016 0.131,-0.041 C 4.185,8.781 4.173,8.847 4.149,8.896 4.239,8.873 4.295,8.819 4.255,8.708 4.324,8.701 4.378,8.678 4.416,8.634 4.377,8.586 4.32,8.559 4.254,8.561 4.304,8.457 4.248,8.399 4.167,8.353 c 0,0 0.052,0.208 -0.081,0.208 -0.06,0 -0.114,-0.02 -0.114,-0.107 0,-0.076 0.067,-0.182 0.221,-0.175 0.154,0.006 0.279,0.106 0.279,0.353 0,0.227 -0.183,0.339 -0.424,0.347 C 3.831,8.985 3.667,8.867 3.667,8.643 c 0,-0.299 0.432,-0.979 0.432,-1.246 0,-0.2 -0.179,-0.312 -0.355,-0.312 -0.228,0 -0.42,0.226 -0.42,0.226 l 0.133,0.168 z"
       id="path28"
       inkscape:connector-curvature="0" />
    <path
       d="m 3.457,7.479 c 0,0 -0.237,-0.199 -0.317,-0.1 C 3.01,7.541 3.537,8.34 3.537,8.622 3.537,9.084 3.228,9.209 2.848,9.275 2.592,9.319 2.177,9.256 2.177,9.256 2.255,9.151 2.306,9.12 2.438,9.112 2.291,9.036 2.141,8.871 2.141,8.613 2.141,8.215 2.305,8.051 2.305,7.603 2.305,7.354 2.101,7.037 2.101,7.037 2.461,7.074 2.641,7.407 2.539,7.674 2.597,7.682 2.648,7.669 2.693,7.627 2.719,7.701 2.678,7.787 2.622,7.861 2.666,7.885 2.699,7.87 2.771,7.855 2.764,7.932 2.718,8.012 2.607,8.088 2.931,8.004 3.13,8.23 3.13,8.467 3.13,8.646 3.005,8.773 2.882,8.773 2.842,8.773 2.784,8.757 2.751,8.732 2.729,8.782 2.741,8.847 2.764,8.896 2.675,8.873 2.619,8.819 2.659,8.709 2.59,8.702 2.535,8.679 2.498,8.635 2.536,8.587 2.593,8.559 2.659,8.561 2.609,8.457 2.665,8.399 2.746,8.353 c 0,0 -0.052,0.208 0.081,0.208 0.06,0 0.114,-0.02 0.114,-0.107 C 2.941,8.378 2.874,8.272 2.72,8.279 2.565,8.285 2.44,8.385 2.44,8.631 2.44,8.858 2.623,8.97 2.864,8.978 3.082,8.984 3.246,8.867 3.246,8.642 3.246,8.343 2.814,7.663 2.814,7.396 c 0,-0.2 0.179,-0.312 0.355,-0.312 0.228,0 0.42,0.226 0.42,0.226 L 3.457,7.479 Z m -0.05,5.4 c 0,0.499 0.448,0.756 0.8,0.756 0.474,0 0.727,-0.284 0.727,-0.656 0,-0.21 -0.039,-0.342 -0.136,-0.544 L 3.711,10.177 C 3.674,10.1 3.661,10.01 3.661,9.879 c 0,-0.202 0.197,-0.368 0.403,-0.373 0.187,-0.004 0.392,0.175 0.392,0.38 0,0.249 -0.128,0.359 -0.261,0.359 -0.163,0 -0.228,-0.067 -0.228,-0.182 0,-0.08 0.039,-0.114 0.094,-0.114 0.14,0 0.101,0.188 0.101,0.188 C 4.231,10.122 4.287,10.051 4.256,9.962 4.305,9.952 4.353,9.925 4.39,9.882 4.353,9.846 4.309,9.818 4.254,9.808 4.287,9.7 4.243,9.648 4.149,9.625 4.168,9.667 4.168,9.705 4.162,9.741 4.013,9.699 3.785,9.766 3.785,10.023 c 0,0.255 0.177,0.47 0.51,0.417 -0.08,0.038 -0.119,0.115 -0.127,0.201 0.06,-0.023 0.127,-0.026 0.127,-0.026 -0.039,0.068 -0.093,0.127 -0.091,0.262 0.062,-0.028 0.119,-0.08 0.198,-0.047 -0.124,0.244 0.028,0.579 0.416,0.659 -0.142,-0.167 -0.211,-0.346 -0.211,-0.525 0,-0.578 0.162,-0.676 0.162,-1.078 0,-0.168 -0.087,-0.35 -0.258,-0.474 l 0,0.007 C 4.623,9.388 4.696,9.332 4.738,9.256 4.478,9.184 4.101,9.185 3.899,9.265 3.667,9.291 3.504,9.469 3.457,9.56 c -0.048,0.09 -0.141,0.417 0,0.712 0.154,0.322 0.88,1.861 1.106,2.345 0.047,0.103 0.077,0.212 0.077,0.329 0,0.297 -0.271,0.4 -0.425,0.4 -0.185,0 -0.373,-0.141 -0.373,-0.316 0,-0.111 0.061,-0.179 0.147,-0.179 0.209,0 0.196,0.177 0.154,0.289 0.129,-0.058 0.205,-0.162 0.184,-0.272 0.074,-0.01 0.144,-0.045 0.208,-0.118 -0.051,-0.064 -0.113,-0.113 -0.208,-0.114 0.042,-0.17 -0.072,-0.243 -0.184,-0.283 0.035,0.125 0.058,0.27 -0.154,0.27 -0.155,0 -0.277,0.026 -0.348,0.127 C 3.636,12.616 3.623,12.084 3.623,12.084 3.615,11.885 3.89,11.891 4.065,11.95 4,11.722 3.865,11.598 3.55,11.629 3.627,11.597 3.708,11.525 3.708,11.387 3.708,11.2 3.556,10.992 3.457,10.931 l -0.05,1.948 z"
       id="path30"
       inkscape:connector-curvature="0" />
  </g>
</svg>
