<?xml version="1.0" encoding="UTF-8" standalone="no"?>
<svg
   xmlns:dc="http://purl.org/dc/elements/1.1/"
   xmlns:cc="http://creativecommons.org/ns#"
   xmlns:rdf="http://www.w3.org/1999/02/22-rdf-syntax-ns#"
   xmlns:svg="http://www.w3.org/2000/svg"
   xmlns="http://www.w3.org/2000/svg"
   xmlns:sodipodi="http://sodipodi.sourceforge.net/DTD/sodipodi-0.dtd"
   xmlns:inkscape="http://www.inkscape.org/namespaces/inkscape"
   viewBox="0 0 36 26"
   id="svg2"
   version="1.1"
   inkscape:version="0.91 r13725"
   sodipodi:docname="1f1f9-1f1e6.svg"
   width="36"
   height="26">
  <metadata
     id="metadata68">
    <rdf:RDF>
      <cc:Work
         rdf:about="">
        <dc:format>image/svg+xml</dc:format>
        <dc:type
           rdf:resource="http://purl.org/dc/dcmitype/StillImage" />
      </cc:Work>
    </rdf:RDF>
  </metadata>
  <defs
     id="defs66" />
  <sodipodi:namedview
     pagecolor="#ffffff"
     bordercolor="#666666"
     borderopacity="1"
     objecttolerance="10"
     gridtolerance="10"
     guidetolerance="10"
     inkscape:pageopacity="0"
     inkscape:pageshadow="2"
     inkscape:window-width="640"
     inkscape:window-height="480"
     id="namedview64"
     showgrid="false"
     inkscape:zoom="6.5555556"
     inkscape:cx="18"
     inkscape:cy="13"
     inkscape:window-x="0"
     inkscape:window-y="0"
     inkscape:window-maximized="0"
     inkscape:current-layer="svg2" />
  <path
     d="M 32,0 4,0 C 3.795,0 3.593,0.015 3.396,0.045 L 3.392,1.799 0.662,1.795 C 0.244,2.427 0,3.185 0,4 l 0,18 c 0,2.209 1.791,4 4,4 l 28,0 c 2.209,0 4,-1.791 4,-4 L 36,4 C 36,1.791 34.209,0 32,0 Z"
     id="path4"
     inkscape:connector-curvature="0"
     style="fill:#00247d" />
  <path
     d="M 26.641,8.104 C 26.5,7.703 25.579,7.359 25.172,7.515 25.641,6.64 26.418,6.374 26.811,5.968 c 0.393,-0.406 0.408,-0.766 0.408,-0.766 0,0 0.359,0.609 0.719,1.172 0.36,0.563 0.846,0.875 0.846,0.875 0,0 -1.268,0.382 -2.143,0.855 z"
     id="path6"
     inkscape:connector-curvature="0"
     style="fill:#c0e6e9" />
  <path
     d="m 26.826,8.019 c 0,0.047 -0.038,0.085 -0.085,0.085 -0.047,0 -0.085,-0.038 -0.085,-0.085 l 0,-2.466 c 0,-0.047 0.038,-0.085 0.085,-0.085 0.047,0 0.085,0.038 0.085,0.085 l 0,2.466 z"
     id="path8"
     inkscape:connector-curvature="0"
     style="fill:#ae7521" />
  <path
     d="m 27.412,8.5 c -0.673,0 -1.74,-0.031 -1.834,-0.219 -0.094,-0.188 -0.125,-0.672 -0.125,-0.672 0,0 0.797,0.391 1.875,0.391 1.078,0 1.766,-0.391 1.766,-0.391 0,0 0.008,0.659 -0.311,0.781 C 28.56,8.477 28.178,8.5 27.412,8.5 Z"
     id="path10"
     inkscape:connector-curvature="0"
     style="fill:#c7e9eb" />
  <path
     d="m 22.609,11.312 c -0.125,0.312 -0.141,0.719 0.094,0.891 0.234,0.172 0.609,-0.172 0.609,-0.172 0,0 -0.671,-0.062 -0.703,-0.719 z"
     id="path12"
     inkscape:connector-curvature="0"
     style="fill:#9fc2ff" />
  <path
     d="m 24.141,11.844 c -0.297,-0.266 -0.918,-0.062 -0.918,-0.062 0,0 0.074,-0.36 0.262,-0.469 -0.516,-0.047 -0.789,0.094 -0.965,0.531 -0.207,-0.234 0.09,-0.812 0.09,-0.812 0,0 0.672,-0.406 1.312,0 0.531,-0.734 0.615,-2 -0.028,-1.891 0.169,-0.422 1.378,-0.157 1.148,0.57 -0.229,0.727 -0.604,1.008 -0.604,1.008 0,0 0.627,-0.592 1.056,-0.327 0.429,0.265 0.616,1.505 -0.321,1.096 -0.938,-0.409 -1.109,-0.153 -1.125,0 -0.017,0.153 0.093,0.356 0.093,0.356 z"
     id="path14"
     inkscape:connector-curvature="0"
     style="fill:#00a3d6" />
  <path
     d="m 26.312,11.625 c -0.4,1.177 -1.188,1.177 -1.188,1.177 0,0 0.047,-0.406 0.203,-0.588 -0.672,0.255 -1.609,-0.151 -1.406,-1.182 0.156,0.656 0.812,0.875 1.422,0.578 0.61,-0.298 1.03,-0.163 0.969,0.015 z"
     id="path16"
     inkscape:connector-curvature="0"
     style="fill:#9fc2ff" />
  <path
     d="M 21.922,9.891 C 21.808,9.705 22.08,9.375 22.446,9.5 c -0.243,0.266 -0.132,0.531 0,0.719 0.132,0.188 -0.399,-0.125 -0.524,-0.328 z"
     id="path18"
     inkscape:connector-curvature="0"
     style="fill:#00a3d6" />
  <path
     d="M 24.406,9.078 C 24.109,8.984 23.893,9.14 23.893,9.14 c 0,0 -0.159,-0.359 -0.644,-0.219 -0.485,0.14 -0.781,-0.033 -0.781,-0.033 0,0 0.156,0.506 0.891,0.512 -0.453,0.583 -1.219,0.693 -1.438,0.49 0.125,0.281 0.562,0.625 0.719,0.641 0.156,0.016 0.979,-0.47 1.156,-1.031 0.031,-0.099 0.125,0.015 0,0.21 -0.125,0.196 -0.234,0.415 -0.156,0.758 0.113,-0.19 0.359,-0.203 0.484,-0.5 0.125,-0.297 0.016,-0.609 0.281,-0.703 0.267,-0.093 10e-4,-0.187 10e-4,-0.187 z"
     id="path20"
     inkscape:connector-curvature="0"
     style="fill:#9fc2ff" />
  <path
     d="m 28.208,13.479 c -0.485,0 -0.521,-0.833 -0.521,-0.833 0,0 -0.146,0.068 -0.562,0.419 -0.417,0.351 -1.042,0.419 -1.042,0.419 0,0 -0.479,-0.526 0.084,-1.151 -0.021,-0.625 -0.729,-1.271 -0.729,-1.271 l -0.583,-0.125 c 0,0 1.395,-1.354 2.416,-1.438 1.021,-0.084 1.083,0.375 1,1.312 -0.083,0.937 0.209,1.521 0.209,1.521 0,0 0.874,1.147 -0.272,1.147 z"
     id="path22"
     inkscape:connector-curvature="0"
     style="fill:#8da8c3" />
  <path
     d="m 25.641,10.532 c -0.109,0.125 -0.105,0.171 0.205,0.156 0.311,-0.016 0.473,0.003 0.473,0.003 0,0 -0.646,0.338 -1.053,0.152 0.062,-0.202 0.375,-0.311 0.375,-0.311 z m 2.266,2.015 c 0,0 0.421,-0.266 0.577,0.188 0.156,0.453 -0.02,0.5 -0.229,0.516 -0.208,0.015 -0.348,-0.704 -0.348,-0.704 z"
     id="path24"
     inkscape:connector-curvature="0"
     style="fill:#cc1530" />
  <path
     d="m 29.359,11.234 c -0.138,0.305 -0.141,0.969 0.547,1.219 0.125,-0.5 0.032,-0.797 -0.547,-1.219 z m 1.485,0.328 c 0.156,-0.156 0.047,-0.766 -0.422,-0.531 -0.469,0.234 -0.68,0.172 -0.801,0.094 0.082,-0.141 0.41,-0.25 0.41,-0.25 0,0 -0.6,0.047 -0.745,-0.453 0.354,0.094 0.526,0 0.526,0 0,0 -0.195,-0.141 -0.191,-0.25 0.27,-0.094 0.645,0.203 0.645,0.203 0,0 -0.133,-0.219 -0.16,-0.734 -0.027,-0.516 0.395,-0.695 0.707,-0.449 -0.297,0.356 0.047,1.043 0.188,1.637 0.578,-0.422 1.281,-0.328 1.312,0.328 0.031,0.656 -0.172,0.5 -0.172,0.5 0,0 0.25,-0.625 -0.656,-0.531 0.391,0.188 0.203,0.362 0.203,0.362 0,0 -0.422,-0.113 -0.844,0.074 z"
     id="path26"
     inkscape:connector-curvature="0"
     style="fill:#9fc2ff" />
  <path
     d="m 28.799,9.875 c -0.408,-0.046 -0.252,0.455 -0.846,0.657 0.141,0.062 0.423,0 0.423,0 0,0 -0.28,0.515 0,1.046 0.249,-0.203 0.327,-0.547 0.327,-0.547 0,0 0,0.599 0.312,0.885 0.274,-0.353 0.141,-0.792 0.141,-0.792 0,0 0.191,0.536 0.799,0.792 0.607,0.255 1.014,-0.307 1.061,-0.604 0.047,-0.297 -0.094,-0.386 -0.094,-0.386 0,0 -0.512,0.48 -0.967,0.199 C 30.156,10.937 30.07,10.834 29.621,10.8 29.172,10.766 29.062,10.141 29.016,10.063 28.969,9.984 28.799,9.875 28.799,9.875 Z m 1.355,-0.54 c 0.174,-0.46 0.768,-0.535 0.986,-0.396 0.406,-0.22 0.834,0.217 1.175,0.077 -0.143,0.328 -0.565,0.489 -0.784,0.385 0.266,0.38 0.972,0.635 1.234,0.405 0.263,-0.229 0.084,0.297 -0.45,0.472 -0.534,0.175 -0.909,-0.472 -0.909,-0.472 0,0 0.109,0.402 0,0.571 C 31,10.234 30.789,9.809 30.801,9.5 30.813,9.191 30.559,8.966 30.154,9.335 Z"
     id="path28"
     inkscape:connector-curvature="0"
     style="fill:#00a3d6" />
  <path
     d="m 32.315,10.278 c 0.419,-0.091 0.732,-0.436 0.747,-0.568 0.016,-0.132 -0.213,-0.534 -0.747,-0.309 0.466,0.177 0.378,0.749 0,0.877 z"
     id="path30"
     inkscape:connector-curvature="0"
     style="fill:#9fc2ff" />
  <path
     d="m 32.222,10.842 c 0.325,0.439 0.231,0.908 0.169,1.001 -0.062,0.094 -0.546,0.262 -0.734,-0.062 0.405,-0.031 0.788,-0.386 0.565,-0.939 z"
     id="path32"
     inkscape:connector-curvature="0"
     style="fill:#00a3d6" />
  <path
     d="m 27.428,9.922 c -0.714,0 -1.786,0.356 -1.786,0.356 0,0 -0.037,-0.424 -0.267,-0.778 -0.23,-0.354 -0.333,-0.854 -0.333,-0.854 0,0 0.583,0.104 0.646,0.458 0.063,0.354 -0.021,0.667 -0.021,0.667 l 0.708,-0.188 c 0,0 -0.188,-0.305 -0.354,-0.083 C 25.855,9.722 25.667,8.896 25.917,8.771 26.167,8.646 26.826,8.5 26.826,8.5 c 0,0 0.05,0.604 0.091,0.75 0.041,0.146 -0.334,0.151 -0.334,0.151 l 0.062,0.099 0.625,0 c 0,0 -0.208,-0.234 -0.208,-0.604 0,-0.405 0.438,-0.792 0.438,-0.792 0,0 0.391,0.523 0.391,0.833 0,0.31 -0.233,0.563 -0.233,0.563 l 0.55,0.104 c 0,0 0.208,-0.417 0,-0.312 C 28,9.397 27.999,9.167 28.083,8.896 28.167,8.625 28.104,8.375 28.104,8.375 l 0.854,0.396 c 0,0 0.062,0.091 0,0.42 C 28.896,9.521 28.52,9.49 28.52,9.49 l 0,0.197 0.562,0.146 c 0,0 -0.167,-0.388 0,-0.642 0.167,-0.254 0.729,-0.42 0.729,-0.42 0,0 -0.459,0.827 -0.729,1.507 -0.345,-0.164 -0.94,-0.356 -1.654,-0.356 z"
     id="path34"
     inkscape:connector-curvature="0"
     style="fill:#d9a323" />
  <path
     d="m 27.437,13 -2.663,0 0,3.219 c 0,2.747 1.848,3.181 2.644,3.401 l 0,0.005 0.01,-0.003 0.009,0.003 0,-0.005 c 0.796,-0.221 2.644,-0.654 2.644,-3.401 l 0,-3.219 -2.644,0 z"
     id="path36"
     inkscape:connector-curvature="0"
     style="fill:#ffffff" />
  <path
     d="m 27.418,13 -2.644,0 0,3.141 5.306,0 0,-3.141 -2.662,0 z"
     id="path38"
     inkscape:connector-curvature="0"
     style="fill:#179af9" />
  <path
     d="m 27.428,17.984 c 0,0 -0.193,-0.984 -1.053,-1.844 l 2,0 c 0,0 -0.77,0.782 -0.947,1.844 z"
     id="path40"
     inkscape:connector-curvature="0"
     style="fill:#179af9" />
  <path
     d="m 27.428,14.297 c 0,0 -0.193,0.984 -1.053,1.844 l 2,0 c 0,0 -0.77,-0.782 -0.947,-1.844 z m -0.24,0 c -0.059,0.173 -0.406,0.5 -0.656,0.578 -0.25,0.078 -0.637,0.375 -0.686,0.516 C 25.797,15.234 25.969,15 25.969,15 c 0,0 -0.281,0.031 -0.312,0.391 -0.031,0.359 -0.614,0.375 -0.614,0.375 0,0 0.114,-0.5 0.411,-0.797 0.297,-0.297 0.48,-0.125 0.662,-0.234 0.182,-0.109 -0.068,-0.359 0.135,-0.641 0.203,-0.281 0.75,-0.203 0.938,-0.422 0.062,0.172 -0.469,0.484 -0.547,0.516 -0.078,0.031 -0.109,0.219 -0.016,0.203 0.093,-0.016 0.421,-0.063 0.562,-0.094 z m 0.479,0 c 0.059,0.173 0.406,0.5 0.656,0.578 0.25,0.078 0.637,0.375 0.686,0.516 C 29.058,15.234 28.886,15 28.886,15 c 0,0 0.281,0.031 0.312,0.391 0.031,0.359 0.614,0.375 0.614,0.375 0,0 -0.114,-0.5 -0.411,-0.797 -0.297,-0.297 -0.48,-0.125 -0.662,-0.234 -0.182,-0.109 0.068,-0.359 -0.135,-0.641 -0.203,-0.281 -0.75,-0.203 -0.938,-0.422 -0.062,0.172 0.469,0.484 0.547,0.516 0.078,0.031 0.109,0.219 0.016,0.203 -0.093,-0.016 -0.421,-0.063 -0.562,-0.094 z"
     id="path42"
     inkscape:connector-curvature="0"
     style="fill:#ffffff" />
  <path
     d="m 27.188,17.969 c -0.059,-0.173 -0.406,-0.5 -0.656,-0.578 -0.25,-0.078 -0.637,-0.375 -0.686,-0.516 -0.049,0.156 0.123,0.391 0.123,0.391 0,0 -0.281,-0.031 -0.312,-0.391 -0.031,-0.359 -0.614,-0.375 -0.614,-0.375 0,0 0.114,0.5 0.411,0.797 0.297,0.297 0.48,0.125 0.662,0.234 0.182,0.109 -0.068,0.359 0.135,0.641 0.203,0.281 0.75,0.203 0.938,0.422 0.062,-0.172 -0.469,-0.484 -0.547,-0.516 -0.078,-0.031 -0.109,-0.219 -0.016,-0.203 0.093,0.016 0.421,0.063 0.562,0.094 z m 0.479,0 c 0.059,-0.173 0.406,-0.5 0.656,-0.578 0.25,-0.078 0.637,-0.375 0.686,-0.516 0.049,0.156 -0.123,0.391 -0.123,0.391 0,0 0.281,-0.031 0.312,-0.391 0.031,-0.359 0.614,-0.375 0.614,-0.375 0,0 -0.114,0.5 -0.411,0.797 -0.297,0.297 -0.48,0.125 -0.662,0.234 -0.182,0.109 0.068,0.359 -0.135,0.641 -0.203,0.281 -0.75,0.203 -0.938,0.422 -0.062,-0.172 0.469,-0.484 0.547,-0.516 0.078,-0.031 0.109,-0.219 0.016,-0.203 -0.093,0.016 -0.421,0.063 -0.562,0.094 z"
     id="path44"
     inkscape:connector-curvature="0"
     style="fill:#179af9" />
  <path
     d="m 25.656,11.031 c 0.453,0.188 0.844,-0.062 1.25,-0.391 0.406,-0.328 0.846,-0.156 0.971,-0.109 0.125,0.047 -0.143,0.043 -0.604,0.311 -0.461,0.267 -0.68,0.351 -0.695,0.645 -0.016,0.294 -0.141,0.128 -0.203,0 -0.062,-0.128 -0.078,0.216 0,0.56 0.078,0.344 -0.057,0.755 -0.057,0.755 0,0 -0.117,-1.078 -0.662,-1.771 z"
     id="path46"
     inkscape:connector-curvature="0" />
  <path
     d="m 21.234,13.594 c 0,0 0.078,-0.234 0.391,-0.406 0.313,-0.172 0.094,-0.312 -0.109,-0.297 -0.203,0.016 -0.359,0.031 -0.578,0.594 -0.219,0.562 -1.047,3 0.297,4.312 -0.391,-0.188 -0.75,-0.953 -0.75,-0.953 0,0 0.047,0.516 0.312,1.031 -0.797,-1.25 -0.703,-2.578 -0.578,-3.578 0.125,-1 0.422,-1.641 0.875,-1.672 0.375,-0.562 1.062,-0.271 1.578,0.177 0.516,0.448 0.766,0.87 0.766,0.87 0,0 0.068,-0.828 0.456,-0.75 0.388,0.078 0.95,0.359 1.028,0.562 0.078,0.203 -0.484,0.047 -0.594,-0.078 -0.109,-0.125 -0.322,-0.266 -0.434,-0.141 -0.112,0.125 -0.191,0.688 -0.191,0.688 0,0 0.277,-0.516 0.443,-0.469 0.166,0.047 0.922,0.719 0.896,0.953 -0.026,0.234 -0.229,-0.125 -0.433,-0.281 -0.203,-0.156 -0.363,-0.438 -0.463,-0.391 -0.1,0.047 -0.459,0.875 -0.49,0.953 -0.031,0.078 0.084,0.062 0.237,-0.149 0.153,-0.211 0.325,-0.445 0.419,-0.445 0.094,0 0.742,0.891 0.73,1.094 -0.012,0.203 -0.108,0.391 -0.188,0.438 -0.08,0.047 0.036,-0.233 -0.151,-0.562 -0.187,-0.329 -0.359,-0.673 -0.438,-0.626 -0.078,0.047 -0.438,0.609 -0.5,0.75 -0.062,0.141 0.406,-0.328 0.578,-0.25 0.172,0.078 0.424,0.967 0.431,1.25 0.007,0.283 -0.163,0.469 -0.25,0.547 -0.087,0.078 -0.054,-0.281 0,-0.453 0.054,-0.172 -0.071,-0.391 -0.118,-0.656 -0.047,-0.266 -0.094,-0.516 -0.141,-0.438 -0.047,0.078 -0.766,0.703 -0.828,0.75 -0.062,0.047 0.225,0 0.456,-0.125 0.231,-0.125 0.356,-0.109 0.388,0.125 0.031,0.234 0.078,0.969 -0.281,1.172 -0.359,0.203 0.031,-0.25 0.078,-0.469 0.047,-0.219 0.016,-0.688 -0.078,-0.641 -0.094,0.047 -0.75,0.531 -0.953,0.609 -0.203,0.078 -0.094,0.609 0.109,0.906 0.203,0.297 0.646,0.594 0.737,0.328 0.091,-0.266 0.436,-0.547 0.631,-0.406 0.194,0.141 0.101,0.406 0.101,0.406 0,0 0.256,0 0.229,0.281 -0.026,0.281 -0.386,0.562 -1.261,0.438 -0.875,-0.124 -1.969,-0.469 -1.906,-2 -0.328,-1.344 -0.078,-1.922 -0.031,-2.297 0.047,-0.375 0.188,-0.927 0.141,-0.971 -0.047,-0.043 -0.406,0.067 -0.563,0.27 z m 12.436,0 c 0,0 -0.078,-0.234 -0.391,-0.406 -0.313,-0.172 -0.094,-0.312 0.109,-0.297 0.203,0.016 0.359,0.031 0.578,0.594 0.219,0.562 1.047,3 -0.297,4.312 0.391,-0.188 0.75,-0.953 0.75,-0.953 0,0 -0.047,0.516 -0.312,1.031 0.797,-1.25 0.703,-2.578 0.578,-3.578 -0.125,-1 -0.422,-1.641 -0.875,-1.672 -0.375,-0.562 -1.062,-0.271 -1.578,0.177 -0.516,0.448 -0.766,0.87 -0.766,0.87 0,0 -0.068,-0.828 -0.456,-0.75 -0.388,0.078 -0.95,0.359 -1.028,0.562 -0.078,0.203 0.484,0.047 0.594,-0.078 0.109,-0.125 0.322,-0.266 0.434,-0.141 0.112,0.125 0.191,0.688 0.191,0.688 0,0 -0.277,-0.516 -0.443,-0.469 -0.166,0.047 -0.922,0.719 -0.895,0.953 0.026,0.234 0.229,-0.125 0.433,-0.281 0.203,-0.156 0.363,-0.438 0.463,-0.391 0.1,0.047 0.459,0.875 0.49,0.953 0.031,0.078 -0.084,0.062 -0.237,-0.149 -0.153,-0.211 -0.325,-0.445 -0.419,-0.445 -0.094,0 -0.742,0.891 -0.731,1.094 0.012,0.203 0.108,0.391 0.189,0.438 0.08,0.047 -0.036,-0.233 0.151,-0.562 0.187,-0.329 0.359,-0.673 0.438,-0.626 0.078,0.047 0.438,0.609 0.5,0.75 0.062,0.141 -0.406,-0.328 -0.578,-0.25 -0.172,0.078 -0.424,0.967 -0.431,1.25 -0.007,0.283 0.163,0.469 0.25,0.547 0.087,0.078 0.054,-0.281 0,-0.453 -0.054,-0.172 0.071,-0.391 0.118,-0.656 0.047,-0.266 0.094,-0.516 0.141,-0.438 0.047,0.078 0.766,0.703 0.828,0.75 0.062,0.047 -0.225,0 -0.456,-0.125 -0.231,-0.125 -0.356,-0.109 -0.388,0.125 -0.031,0.234 -0.078,0.969 0.281,1.172 0.359,0.203 -0.031,-0.25 -0.078,-0.469 -0.047,-0.219 -0.016,-0.688 0.078,-0.641 0.094,0.047 0.75,0.531 0.953,0.609 0.203,0.078 0.094,0.609 -0.109,0.906 -0.203,0.297 -0.646,0.594 -0.737,0.328 -0.091,-0.266 -0.437,-0.547 -0.631,-0.406 -0.194,0.141 -0.101,0.406 -0.101,0.406 0,0 -0.256,0 -0.229,0.281 0.026,0.281 0.386,0.562 1.261,0.438 0.875,-0.125 1.969,-0.469 1.906,-2 0.328,-1.344 0.078,-1.922 0.031,-2.297 -0.047,-0.375 -0.188,-0.927 -0.141,-0.971 0.046,-0.043 0.406,0.067 0.562,0.27 z"
     id="path48"
     inkscape:connector-curvature="0"
     style="fill:#d8ab6d" />
  <path
     d="m 23.797,19.797 c 0.128,-0.448 1.219,-0.859 1.562,-0.797 0.344,0.062 0.969,0.312 0.609,0.625 -0.359,0.312 -1.125,0.578 -1.641,0.688 -0.515,0.109 -0.624,-0.188 -0.53,-0.516 z m 7.282,0 C 30.951,19.349 29.86,18.938 29.517,19 c -0.344,0.062 -0.969,0.312 -0.609,0.625 0.359,0.312 1.125,0.578 1.641,0.688 0.514,0.109 0.624,-0.188 0.53,-0.516 z"
     id="path50"
     inkscape:connector-curvature="0"
     style="fill:#cc1530" />
  <path
     d="m 31.402,19.203 c 0,0 -0.484,-0.527 -0.953,-0.209 -0.469,0.318 -1.824,1.443 -3.021,1.443 -1.197,0 -2.553,-1.125 -3.021,-1.443 -0.469,-0.318 -0.953,0.209 -0.953,0.209 0,0 0.234,0.109 0.188,0.344 -0.047,0.234 0,0.641 0.253,0.725 -0.294,-0.729 0.731,-0.365 1.149,0.064 0.418,0.43 1.52,0.945 2.385,0.945 0.865,0 1.967,-0.516 2.385,-0.945 0.418,-0.43 1.443,-0.793 1.149,-0.064 0.253,-0.084 0.3,-0.49 0.253,-0.725 -0.048,-0.235 0.186,-0.344 0.186,-0.344 z"
     id="path52"
     inkscape:connector-curvature="0"
     style="fill:#fbfae7" />
  <path
     d="m 25.266,18.997 c 0.55,-0.116 1.266,0.487 1.391,0.628 0.125,0.141 -0.062,0.578 -0.281,0.406 -0.219,-0.172 -0.362,-0.205 -0.627,-0.249 -0.265,-0.044 -0.609,-0.395 -0.232,-0.532 -0.161,0.188 0,0.44 0.25,0.282 0.249,-0.157 0.045,-0.428 -0.501,-0.535 z m 4.421,0 c -0.55,-0.116 -1.266,0.487 -1.391,0.628 -0.125,0.141 0.062,0.578 0.281,0.406 0.219,-0.172 0.362,-0.205 0.627,-0.249 0.265,-0.044 0.609,-0.395 0.232,-0.532 0.161,0.188 0,0.44 -0.25,0.282 -0.249,-0.157 -0.046,-0.428 0.501,-0.535 z"
     id="path54"
     inkscape:connector-curvature="0"
     style="fill:#fbfae7" />
  <path
     d="M 19,13 19,0 4,0 C 3.68,0 3.396,0.045 3.396,0.045 L 3.392,1.799 0.662,1.795 C 0.662,1.795 0.62,1.854 0.535,2 0.195,2.589 0,3.272 0,4 l 0,9 19,0 z"
     id="path56"
     inkscape:connector-curvature="0"
     style="fill:#00247d" />
  <path
     d="M 19,0 16.669,0 12,3.269 12,0 7,0 7,2.569 3.396,0.045 C 2.782,0.139 2.206,0.37 1.724,0.71 L 6.426,4 4.69,4 0.967,1.391 C 0.857,1.52 0.756,1.653 0.662,1.795 L 3.813,4 0,4 0,9 3.885,9 0,11.766 0,13 3.332,13 7,10.432 7,13 12,13 12,9.731 16.668,13 19,13 19,10.971 16.185,9 19,9 19,4 16.186,4 19,2.029 19,0 Z"
     id="path58"
     inkscape:connector-curvature="0"
     style="fill:#eeeeee" />
  <path
     d="m 11,0 -3,0 0,5 -8,0 0,3 8,0 0,5 3,0 0,-5 8,0 0,-3 -8,0 z"
     id="path60"
     inkscape:connector-curvature="0"
     style="fill:#cf1b2b" />
  <path
     d="M 19,0 17.539,0 12,3.879 12,4 13.571,4 19,0.198 Z M 1.724,0.71 C 1.443,0.905 1.19,1.133 0.967,1.391 L 4.69,4 6.425,4 1.724,0.71 Z M 6.437,9 0.734,13 2.461,13 7,9.822 7,9 Z M 19,12.802 19,11.582 15.313,9 13.57,9 Z"
     id="path62"
     inkscape:connector-curvature="0"
     style="fill:#cf1b2b" />
</svg>
