<?xml version="1.0" encoding="UTF-8" standalone="no"?>
<svg
   xmlns:dc="http://purl.org/dc/elements/1.1/"
   xmlns:cc="http://creativecommons.org/ns#"
   xmlns:rdf="http://www.w3.org/1999/02/22-rdf-syntax-ns#"
   xmlns:svg="http://www.w3.org/2000/svg"
   xmlns="http://www.w3.org/2000/svg"
   xmlns:sodipodi="http://sodipodi.sourceforge.net/DTD/sodipodi-0.dtd"
   xmlns:inkscape="http://www.inkscape.org/namespaces/inkscape"
   viewBox="0 0 36 26"
   id="svg2"
   version="1.1"
   inkscape:version="0.91 r13725"
   sodipodi:docname="1f1ff-1f1e6.svg"
   width="36"
   height="26">
  <metadata
     id="metadata20">
    <rdf:RDF>
      <cc:Work
         rdf:about="">
        <dc:format>image/svg+xml</dc:format>
        <dc:type
           rdf:resource="http://purl.org/dc/dcmitype/StillImage" />
      </cc:Work>
    </rdf:RDF>
  </metadata>
  <defs
     id="defs18" />
  <sodipodi:namedview
     pagecolor="#ffffff"
     bordercolor="#666666"
     borderopacity="1"
     objecttolerance="10"
     gridtolerance="10"
     guidetolerance="10"
     inkscape:pageopacity="0"
     inkscape:pageshadow="2"
     inkscape:window-width="640"
     inkscape:window-height="480"
     id="namedview16"
     showgrid="false"
     inkscape:zoom="6.5555556"
     inkscape:cx="18"
     inkscape:cy="13"
     inkscape:window-x="0"
     inkscape:window-y="0"
     inkscape:window-maximized="0"
     inkscape:current-layer="svg2" />
  <path
     d="M 32,0 6.5,0 19,8.5 36,8.5 36,4 C 36,1.791 34.209,0 32,0 Z"
     id="path4"
     inkscape:connector-curvature="0"
     style="fill:#de3830" />
  <path
     d="M 6.5,26 32,26 c 2.209,0 4,-1.791 4,-4 l 0,-4.5 -17,0 L 6.5,26 Z"
     id="path6"
     inkscape:connector-curvature="0"
     style="fill:#002395" />
  <path
     d="M 0,6 0,20 10.5,13 Z"
     id="path8"
     inkscape:connector-curvature="0"
     style="fill:#141414" />
  <path
     d="M 0,4 0,6 10.5,13 0,20 0,22 13.5,13 Z"
     id="path10"
     inkscape:connector-curvature="0"
     style="fill:#ffb611" />
  <path
     d="M 3.541,0.028 C 1.548,0.257 0,1.947 0,4 L 13.5,13 0,22 c 0,2.053 1.548,3.743 3.541,3.972 L 18.5,15.5 l 17.5,0 0,-5 -17.5,0 L 3.541,0.028 Z"
     id="path12"
     inkscape:connector-curvature="0"
     style="fill:#007a4d" />
  <path
     d="M 6.5,0 4,0 C 3.844,0 3.692,0.011 3.541,0.028 L 18.5,10.5 36,10.5 36,8.5 19,8.5 6.5,0 Z M 3.541,25.972 C 3.692,25.989 3.844,26 4,26 l 2.5,0 12.5,-8.5 17,0 0,-2 -17.5,0 -14.959,10.472 z"
     id="path14"
     inkscape:connector-curvature="0"
     style="fill:#eeeeee" />
</svg>
