<?xml version="1.0" encoding="UTF-8" standalone="no"?>
<svg
   xmlns:dc="http://purl.org/dc/elements/1.1/"
   xmlns:cc="http://creativecommons.org/ns#"
   xmlns:rdf="http://www.w3.org/1999/02/22-rdf-syntax-ns#"
   xmlns:svg="http://www.w3.org/2000/svg"
   xmlns="http://www.w3.org/2000/svg"
   xmlns:sodipodi="http://sodipodi.sourceforge.net/DTD/sodipodi-0.dtd"
   xmlns:inkscape="http://www.inkscape.org/namespaces/inkscape"
   viewBox="0 0 36 26"
   id="svg2"
   version="1.1"
   inkscape:version="0.91 r13725"
   sodipodi:docname="1f1fa-1f1f8.svg"
   width="36"
   height="26">
  <metadata
     id="metadata16">
    <rdf:RDF>
      <cc:Work
         rdf:about="">
        <dc:format>image/svg+xml</dc:format>
        <dc:type
           rdf:resource="http://purl.org/dc/dcmitype/StillImage" />
      </cc:Work>
    </rdf:RDF>
  </metadata>
  <defs
     id="defs14" />
  <sodipodi:namedview
     pagecolor="#ffffff"
     bordercolor="#666666"
     borderopacity="1"
     objecttolerance="10"
     gridtolerance="10"
     guidetolerance="10"
     inkscape:pageopacity="0"
     inkscape:pageshadow="2"
     inkscape:window-width="640"
     inkscape:window-height="480"
     id="namedview12"
     showgrid="false"
     inkscape:zoom="6.5555556"
     inkscape:cx="18"
     inkscape:cy="13"
     inkscape:window-x="0"
     inkscape:window-y="0"
     inkscape:window-maximized="0"
     inkscape:current-layer="svg2" />
  <path
     d="M 35.445,2 C 34.752,0.809 33.477,0 32,0 L 18,0 18,2 35.445,2 Z M 0,20 l 36,0 0,2 -36,0 z m 18,-8 18,0 0,2 -18,0 z m 0,-4 18,0 0,2 -18,0 z m -18,8 36,0 0,2 -36,0 z m 4,10 28,0 c 1.477,0 2.752,-0.809 3.445,-2 L 0.555,24 C 1.248,25.191 2.523,26 4,26 Z M 18,4 36,4 36,6 18,6 Z"
     id="path4"
     inkscape:connector-curvature="0"
     style="fill:#b22334" />
  <path
     d="m 0.068,22.679 c 0.017,0.093 0.036,0.186 0.059,0.277 0.026,0.101 0.058,0.198 0.092,0.296 0.089,0.259 0.197,0.509 0.333,0.743 L 0.555,24 l 34.89,0 0.002,-0.004 c 0.135,-0.233 0.243,-0.483 0.332,-0.741 0.034,-0.099 0.067,-0.198 0.093,-0.301 0.023,-0.09 0.042,-0.182 0.059,-0.275 C 35.972,22.459 36,22.233 36,22 L 0,22 c 0,0.233 0.028,0.458 0.068,0.679 z M 0,18 l 36,0 0,2 -36,0 z m 0,-4 0,2 36,0 0,-2 -18,0 z m 18,-4 18,0 0,2 -18,0 z M 18,6 36,6 36,8 18,8 Z M 0,4 C 0,3.767 0.03,3.543 0.068,3.321 0.028,3.542 0,3.767 0,4 Z M 0.555,2 0.552,2.005 0.555,2 Z M 0.128,3.044 C 0.153,2.942 0.188,2.845 0.22,2.747 0.186,2.845 0.154,2.943 0.128,3.044 Z M 18,4 36,4 C 36,3.767 35.972,3.541 35.931,3.32 35.914,3.228 35.896,3.136 35.872,3.046 35.845,2.943 35.813,2.843 35.778,2.744 35.689,2.486 35.581,2.237 35.446,2.004 35.447,2.003 35.446,2.001 35.445,2 L 18,2 18,4 Z"
     id="path6"
     inkscape:connector-curvature="0"
     style="fill:#eeeeee" />
  <path
     d="M 18,0 4,0 C 1.791,0 0,1.791 0,4 l 0,10 18,0 0,-14 z"
     id="path8"
     inkscape:connector-curvature="0"
     style="fill:#3c3b6e" />
  <path
     d="M 2.001,2.726 2.619,3.175 2.383,3.9 3,3.452 3.618,3.9 3.382,3.175 4,2.726 3.236,2.726 3,2 2.765,2.726 Z m 2,2 L 4.619,5.175 4.383,5.9 5,5.452 5.618,5.9 5.382,5.175 6,4.726 5.236,4.726 5,4 4.765,4.726 Z m 4,0 L 8.619,5.175 8.383,5.9 9,5.452 9.618,5.9 9.382,5.175 10,4.726 9.236,4.726 9,4 8.765,4.726 Z m 4,0 0.618,0.449 L 12.383,5.9 13,5.452 13.618,5.9 13.382,5.175 14,4.726 13.236,4.726 13,4 12.765,4.726 Z m -8,4 L 4.619,9.175 4.383,9.9 5,9.452 5.618,9.9 5.382,9.175 6,8.726 5.236,8.726 5,8 4.765,8.726 Z m 4,0 L 8.619,9.175 8.383,9.9 9,9.452 9.618,9.9 9.382,9.175 10,8.726 9.236,8.726 9,8 8.765,8.726 Z m 4,0 0.618,0.449 L 12.383,9.9 13,9.452 13.618,9.9 13.382,9.175 14,8.726 13.236,8.726 13,8 12.765,8.726 Z m -6,-6 L 6.619,3.175 6.383,3.9 7,3.452 7.618,3.9 7.382,3.175 8,2.726 7.236,2.726 7,2 6.765,2.726 Z m 4,0 0.618,0.449 L 10.383,3.9 11,3.452 11.618,3.9 11.382,3.175 12,2.726 11.236,2.726 11,2 10.765,2.726 Z m 4,0 0.618,0.449 L 14.383,3.9 15,3.452 15.618,3.9 15.382,3.175 16,2.726 15.236,2.726 15,2 14.765,2.726 Z m -12,4 L 2.619,7.175 2.383,7.9 3,7.452 3.618,7.9 3.382,7.175 4,6.726 3.236,6.726 3,6 2.765,6.726 Z M 6.383,7.9 7,7.452 7.618,7.9 7.382,7.175 8,6.726 7.236,6.726 7,6 6.765,6.726 l -0.764,0 0.618,0.449 z M 10.001,6.726 10.619,7.175 10.383,7.9 11,7.452 11.618,7.9 11.382,7.175 12,6.726 11.236,6.726 11,6 10.765,6.726 Z m 4,0 0.618,0.449 L 14.383,7.9 15,7.452 15.618,7.9 15.382,7.175 16,6.726 15.236,6.726 15,6 14.765,6.726 Z m -12,4 0.618,0.449 L 2.383,11.9 3,11.452 3.618,11.9 3.382,11.175 4,10.726 3.236,10.726 3,10 2.765,10.726 Z M 6.383,11.9 7,11.452 7.618,11.9 7.382,11.175 8,10.726 7.236,10.726 7,10 l -0.235,0.726 -0.764,0 0.618,0.449 z m 3.618,-1.174 0.618,0.449 L 10.383,11.9 11,11.452 11.618,11.9 11.382,11.175 12,10.726 l -0.764,0 L 11,10 10.765,10.726 Z m 4,0 0.618,0.449 L 14.383,11.9 15,11.452 15.618,11.9 15.382,11.175 16,10.726 l -0.764,0 L 15,10 14.765,10.726 Z"
     id="path10"
     inkscape:connector-curvature="0"
     style="fill:#ffffff" />
</svg>
