<?xml version="1.0" encoding="UTF-8" standalone="no"?>
<svg
   xmlns:dc="http://purl.org/dc/elements/1.1/"
   xmlns:cc="http://creativecommons.org/ns#"
   xmlns:rdf="http://www.w3.org/1999/02/22-rdf-syntax-ns#"
   xmlns:svg="http://www.w3.org/2000/svg"
   xmlns="http://www.w3.org/2000/svg"
   xmlns:sodipodi="http://sodipodi.sourceforge.net/DTD/sodipodi-0.dtd"
   xmlns:inkscape="http://www.inkscape.org/namespaces/inkscape"
   viewBox="0 0 36 36"
   id="svg2"
   version="1.1"
   inkscape:version="0.91 r13725"
   sodipodi:docname="1f202.svg"
   width="36"
   height="36">
  <metadata
     id="metadata12">
    <rdf:RDF>
      <cc:Work
         rdf:about="">
        <dc:format>image/svg+xml</dc:format>
        <dc:type
           rdf:resource="http://purl.org/dc/dcmitype/StillImage" />
      </cc:Work>
    </rdf:RDF>
  </metadata>
  <defs
     id="defs10" />
  <sodipodi:namedview
     pagecolor="#ffffff"
     bordercolor="#666666"
     borderopacity="1"
     objecttolerance="10"
     gridtolerance="10"
     guidetolerance="10"
     inkscape:pageopacity="0"
     inkscape:pageshadow="2"
     inkscape:window-width="640"
     inkscape:window-height="480"
     id="namedview8"
     showgrid="false"
     inkscape:zoom="6.5555556"
     inkscape:cx="18"
     inkscape:cy="18"
     inkscape:window-x="0"
     inkscape:window-y="0"
     inkscape:window-maximized="0"
     inkscape:current-layer="svg2" />
  <path
     d="m 36,32 c 0,2.209 -1.791,4 -4,4 L 4,36 C 1.791,36 0,34.209 0,32 L 0,4 C 0,1.791 1.791,0 4,0 l 28,0 c 2.209,0 4,1.791 4,4 l 0,28 z"
     id="path4"
     inkscape:connector-curvature="0"
     style="fill:#226699" />
  <path
     d="m 11.275,7.324 c 0,-0.648 0.432,-1.026 1.134,-1.026 0.675,0 1.188,0.378 1.188,1.026 l 0,4.291 8.827,0 0,-4.291 c 0,-0.648 0.404,-1.026 1.107,-1.026 0.675,0 1.188,0.378 1.188,1.026 l 0,4.291 4.13,0 c 0.729,0 1.026,0.459 1.026,1.053 0,0.594 -0.298,1.08 -0.999,1.08 l -4.157,0 0,2.888 c 0,3.266 -0.675,5.831 -1.97,7.72 -1.674,2.429 -4.67,4.184 -7.99,4.75 -0.135,0.027 -0.243,0.027 -0.351,0.027 -0.594,0 -0.945,-0.297 -1.053,-0.837 -0.027,-0.108 -0.027,-0.188 -0.027,-0.297 0,-0.54 0.351,-0.891 0.972,-0.999 2.645,-0.459 5.236,-2.051 6.532,-3.941 1.079,-1.566 1.593,-3.698 1.593,-6.883 l 0,-2.429 -8.827,0 0,6.641 c 0,0.674 -0.513,1.025 -1.188,1.025 -0.702,0 -1.134,-0.352 -1.134,-1.025 l 0,-6.641 -4.157,0 c -0.702,0 -0.999,-0.486 -0.999,-1.08 0,-0.594 0.297,-1.025 1.025,-1.025 l 4.13,0 0,-4.318 z"
     id="path6"
     inkscape:connector-curvature="0"
     style="fill:#ffffff" />
</svg>
