<?xml version="1.0" encoding="UTF-8" standalone="no"?>
<svg
   xmlns:dc="http://purl.org/dc/elements/1.1/"
   xmlns:cc="http://creativecommons.org/ns#"
   xmlns:rdf="http://www.w3.org/1999/02/22-rdf-syntax-ns#"
   xmlns:svg="http://www.w3.org/2000/svg"
   xmlns="http://www.w3.org/2000/svg"
   xmlns:sodipodi="http://sodipodi.sourceforge.net/DTD/sodipodi-0.dtd"
   xmlns:inkscape="http://www.inkscape.org/namespaces/inkscape"
   viewBox="0 0 36 36"
   id="svg2"
   version="1.1"
   inkscape:version="0.91 r13725"
   sodipodi:docname="1f201.svg"
   width="36"
   height="36">
  <metadata
     id="metadata12">
    <rdf:RDF>
      <cc:Work
         rdf:about="">
        <dc:format>image/svg+xml</dc:format>
        <dc:type
           rdf:resource="http://purl.org/dc/dcmitype/StillImage" />
      </cc:Work>
    </rdf:RDF>
  </metadata>
  <defs
     id="defs10" />
  <sodipodi:namedview
     pagecolor="#ffffff"
     bordercolor="#666666"
     borderopacity="1"
     objecttolerance="10"
     gridtolerance="10"
     guidetolerance="10"
     inkscape:pageopacity="0"
     inkscape:pageshadow="2"
     inkscape:window-width="640"
     inkscape:window-height="480"
     id="namedview8"
     showgrid="false"
     inkscape:zoom="6.5555556"
     inkscape:cx="18"
     inkscape:cy="18"
     inkscape:window-x="0"
     inkscape:window-y="0"
     inkscape:window-maximized="0"
     inkscape:current-layer="svg2" />
  <path
     d="m 36,32 c 0,2.209 -1.791,4 -4,4 L 4,36 C 1.791,36 0,34.209 0,32 L 0,4 C 0,1.791 1.791,0 4,0 l 28,0 c 2.209,0 4,1.791 4,4 l 0,28 z"
     id="path4"
     inkscape:connector-curvature="0"
     style="fill:#3b88c3" />
  <path
     d="m 14.735,11.082 c 1.694,0 2.508,0.924 2.508,2.685 l 0,9.572 c 0,1.76 -0.814,2.662 -2.508,2.662 l -12.475,0 c -0.528,0 -0.836,-0.374 -0.836,-0.946 0,-0.594 0.264,-0.924 0.858,-0.924 l 11.904,0 c 0.858,0 1.078,-0.242 1.078,-1.034 l 0,-9.131 c 0,-0.793 -0.22,-1.012 -1.078,-1.012 l -11.552,0 c -0.572,0 -0.836,-0.33 -0.836,-0.902 0,-0.594 0.264,-0.968 0.858,-0.968 l 12.079,0 z m 16.83,0 c 1.694,0 2.509,0.924 2.509,2.685 l 0,9.572 c 0,1.76 -0.814,2.662 -2.509,2.662 l -12.475,0 c -0.528,0 -0.836,-0.374 -0.836,-0.946 0,-0.594 0.264,-0.924 0.858,-0.924 l 11.904,0 c 0.858,0 1.078,-0.242 1.078,-1.034 l 0,-9.131 c 0,-0.793 -0.22,-1.012 -1.078,-1.012 l -11.552,0 c -0.572,0 -0.836,-0.33 -0.836,-0.902 0,-0.594 0.264,-0.968 0.858,-0.968 l 12.079,0 z"
     id="path6"
     inkscape:connector-curvature="0"
     style="fill:#ffffff" />
</svg>
