<?xml version="1.0" encoding="UTF-8" standalone="no"?>
<svg
   xmlns:dc="http://purl.org/dc/elements/1.1/"
   xmlns:cc="http://creativecommons.org/ns#"
   xmlns:rdf="http://www.w3.org/1999/02/22-rdf-syntax-ns#"
   xmlns:svg="http://www.w3.org/2000/svg"
   xmlns="http://www.w3.org/2000/svg"
   xmlns:sodipodi="http://sodipodi.sourceforge.net/DTD/sodipodi-0.dtd"
   xmlns:inkscape="http://www.inkscape.org/namespaces/inkscape"
   viewBox="0 0 36 36"
   id="svg2"
   version="1.1"
   inkscape:version="0.91 r13725"
   sodipodi:docname="1f21a.svg"
   width="36"
   height="36">
  <metadata
     id="metadata12">
    <rdf:RDF>
      <cc:Work
         rdf:about="">
        <dc:format>image/svg+xml</dc:format>
        <dc:type
           rdf:resource="http://purl.org/dc/dcmitype/StillImage" />
      </cc:Work>
    </rdf:RDF>
  </metadata>
  <defs
     id="defs10" />
  <sodipodi:namedview
     pagecolor="#ffffff"
     bordercolor="#666666"
     borderopacity="1"
     objecttolerance="10"
     gridtolerance="10"
     guidetolerance="10"
     inkscape:pageopacity="0"
     inkscape:pageshadow="2"
     inkscape:window-width="640"
     inkscape:window-height="480"
     id="namedview8"
     showgrid="false"
     inkscape:zoom="6.5555556"
     inkscape:cx="18"
     inkscape:cy="18"
     inkscape:window-x="0"
     inkscape:window-y="0"
     inkscape:window-maximized="0"
     inkscape:current-layer="svg2" />
  <path
     d="m 36,32 c 0,2.209 -1.791,4 -4,4 L 4,36 C 1.791,36 0,34.209 0,32 L 0,4 C 0,1.791 1.791,0 4,0 l 28,0 c 2.209,0 4,1.791 4,4 l 0,28 z"
     id="path4"
     inkscape:connector-curvature="0"
     style="fill:#f4900c" />
  <path
     d="m 9.914,13.543 c 0,-0.702 0.078,-1.456 0.208,-2.184 -0.676,0.78 -1.404,1.482 -2.158,2.158 -0.234,0.156 -0.468,0.26 -0.702,0.26 -0.26,0 -0.52,-0.13 -0.728,-0.364 -0.13,-0.182 -0.208,-0.39 -0.208,-0.572 0,-0.312 0.156,-0.624 0.494,-0.832 1.872,-1.43 3.432,-3.432 4.55,-5.694 0.182,-0.286 0.442,-0.416 0.78,-0.416 0.156,0 0.338,0.026 0.52,0.104 0.364,0.13 0.572,0.416 0.572,0.729 0,0.156 -0.052,0.338 -0.156,0.494 -0.364,0.598 -0.78,1.196 -1.248,1.768 C 12.8,8.942 13.71,8.916 14.646,8.916 l 13.572,0 c 0.468,0 0.702,0.364 0.702,0.91 0,0.494 -0.234,0.858 -0.702,0.858 l -2.158,0 0,4.42 3.095,0 c 0.468,0 0.727,0.364 0.727,0.91 0,0.52 -0.26,0.91 -0.727,0.91 l -3.095,0 0,4.524 2.444,0 c 0.468,0 0.702,0.364 0.702,0.885 0,0.494 -0.234,0.91 -0.702,0.91 l -21.112,0 c -0.468,0 -0.702,-0.391 -0.702,-0.91 0,-0.494 0.234,-0.885 0.702,-0.885 l 2.522,0 0,-4.524 -3.12,0 c -0.442,0 -0.702,-0.39 -0.702,-0.91 0,-0.52 0.26,-0.91 0.702,-0.91 l 3.12,0 0,-1.561 z m 1.222,11.623 c 0,0.104 -0.026,0.208 -0.078,0.338 -0.598,1.482 -1.508,2.99 -2.522,4.134 -0.26,0.261 -0.546,0.391 -0.858,0.391 -0.26,0 -0.494,-0.078 -0.728,-0.261 -0.234,-0.182 -0.364,-0.416 -0.364,-0.701 0,-0.208 0.078,-0.442 0.286,-0.65 0.91,-0.91 1.716,-2.158 2.314,-3.614 0.13,-0.338 0.416,-0.52 0.78,-0.52 0.13,0 0.286,0.025 0.442,0.077 0.468,0.13 0.728,0.442 0.728,0.806 z m 3.562,-10.062 0,-4.42 -2.964,0 0,4.42 2.964,0 z m 0,6.343 0,-4.524 -2.964,0 0,4.524 2.964,0 z m 0,2.939 c 0.416,0 0.728,0.234 0.806,0.599 0.312,1.3 0.494,2.808 0.598,4.134 l 0,0.078 c 0,0.468 -0.39,0.78 -0.936,0.832 l -0.13,0 c -0.494,0 -0.884,-0.286 -0.91,-0.728 -0.052,-1.222 -0.208,-2.704 -0.468,-4.03 l 0,-0.13 c 0,-0.364 0.312,-0.649 0.78,-0.728 0.079,-0.027 0.182,-0.027 0.26,-0.027 z m 4.759,-9.282 0,-4.42 -2.991,0 0,4.42 2.991,0 z m 0,6.343 0,-4.524 -2.991,0 0,4.524 2.991,0 z m 0.623,2.887 c 0.416,0 0.703,0.182 0.832,0.546 0.494,1.3 0.91,2.678 1.17,3.926 0.026,0.078 0.026,0.183 0.026,0.261 0,0.416 -0.312,0.727 -0.806,0.832 -0.13,0.025 -0.234,0.052 -0.364,0.052 -0.416,0 -0.754,-0.234 -0.806,-0.65 -0.182,-1.222 -0.598,-2.678 -1.014,-3.926 -0.026,-0.078 -0.053,-0.183 -0.053,-0.26 0,-0.364 0.26,-0.65 0.676,-0.729 0.132,-0.027 0.236,-0.052 0.339,-0.052 z m 4.187,-9.23 0,-4.42 -3.067,0 0,4.42 3.067,0 z m 0,6.343 0,-4.524 -3.067,0 0,4.524 3.067,0 z m 1.508,2.809 c 0.312,0 0.571,0.13 0.754,0.312 1.065,1.325 1.897,2.573 2.573,3.899 0.078,0.156 0.104,0.312 0.104,0.442 0,0.364 -0.208,0.676 -0.572,0.857 -0.156,0.078 -0.338,0.131 -0.494,0.131 -0.338,0 -0.649,-0.156 -0.832,-0.442 -0.65,-1.326 -1.404,-2.626 -2.392,-3.874 -0.078,-0.13 -0.13,-0.286 -0.13,-0.442 0,-0.26 0.13,-0.52 0.441,-0.728 0.183,-0.103 0.366,-0.155 0.548,-0.155 z"
     id="path6"
     inkscape:connector-curvature="0"
     style="fill:#ffffff" />
</svg>
