<?xml version="1.0" encoding="UTF-8" standalone="no"?>
<svg
   xmlns:dc="http://purl.org/dc/elements/1.1/"
   xmlns:cc="http://creativecommons.org/ns#"
   xmlns:rdf="http://www.w3.org/1999/02/22-rdf-syntax-ns#"
   xmlns:svg="http://www.w3.org/2000/svg"
   xmlns="http://www.w3.org/2000/svg"
   xmlns:sodipodi="http://sodipodi.sourceforge.net/DTD/sodipodi-0.dtd"
   xmlns:inkscape="http://www.inkscape.org/namespaces/inkscape"
   viewBox="0 0 36 36"
   id="svg2"
   version="1.1"
   inkscape:version="0.91 r13725"
   sodipodi:docname="1f22f.svg"
   width="36"
   height="36">
  <metadata
     id="metadata12">
    <rdf:RDF>
      <cc:Work
         rdf:about="">
        <dc:format>image/svg+xml</dc:format>
        <dc:type
           rdf:resource="http://purl.org/dc/dcmitype/StillImage" />
      </cc:Work>
    </rdf:RDF>
  </metadata>
  <defs
     id="defs10" />
  <sodipodi:namedview
     pagecolor="#ffffff"
     bordercolor="#666666"
     borderopacity="1"
     objecttolerance="10"
     gridtolerance="10"
     guidetolerance="10"
     inkscape:pageopacity="0"
     inkscape:pageshadow="2"
     inkscape:window-width="640"
     inkscape:window-height="480"
     id="namedview8"
     showgrid="false"
     inkscape:zoom="6.5555556"
     inkscape:cx="18"
     inkscape:cy="18"
     inkscape:window-x="0"
     inkscape:window-y="0"
     inkscape:window-maximized="0"
     inkscape:current-layer="svg2" />
  <path
     d="m 36,32 c 0,2.209 -1.791,4 -4,4 L 4,36 C 1.791,36 0,34.209 0,32 L 0,4 C 0,1.791 1.791,0 4,0 l 28,0 c 2.209,0 4,1.791 4,4 l 0,28 z"
     id="path4"
     inkscape:connector-curvature="0"
     style="fill:#77b255" />
  <path
     d="m 14.101,11.125 c 0.494,0 0.754,0.364 0.754,0.884 0,0.546 -0.26,0.936 -0.754,0.936 l -2.314,0 0,5.148 c 0.754,-0.26 1.483,-0.52 2.08,-0.78 0.156,-0.052 0.26,-0.078 0.39,-0.078 0.312,0 0.52,0.182 0.65,0.572 0.078,0.156 0.104,0.312 0.104,0.442 0,0.286 -0.156,0.52 -0.52,0.676 -0.78,0.363 -1.716,0.754 -2.704,1.092 l 0,7.488 c 0,1.872 -0.728,2.444 -2.6,2.444 -0.91,0 -1.534,-0.052 -2.106,-0.208 -0.442,-0.105 -0.676,-0.442 -0.676,-0.91 0,-0.078 0,-0.156 0.026,-0.26 0.078,-0.442 0.364,-0.729 0.78,-0.729 0.078,0 0.182,0 0.26,0.026 0.416,0.104 1.014,0.182 1.378,0.182 0.832,0 1.014,-0.155 1.014,-0.91 l 0,-6.474 C 8.9,20.953 7.99,21.214 7.184,21.422 7.08,21.447 7.002,21.447 6.924,21.447 6.482,21.447 6.17,21.187 6.066,20.668 6.04,20.537 6.014,20.434 6.014,20.304 c 0,-0.416 0.234,-0.676 0.65,-0.727 0.962,-0.234 2.08,-0.521 3.198,-0.858 l 0,-5.773 -2.99,0 c -0.468,0 -0.728,-0.39 -0.728,-0.91 0,-0.546 0.26,-0.91 0.728,-0.91 l 2.99,0 0,-4.395 c 0,-0.521 0.338,-0.78 0.936,-0.78 0.624,0 0.988,0.26 0.988,0.78 l 0,4.394 2.315,0 z m 12.168,6.708 c 1.404,0 2.106,0.598 2.106,2.054 l 0,7.67 c 0,1.431 -0.702,2.055 -2.106,2.055 l -8.294,0 c -1.378,0 -2.106,-0.624 -2.106,-2.055 l 0,-7.67 c 0,-1.456 0.729,-2.054 2.106,-2.054 l 8.294,0 z m -8.398,-5.018 c 0,0.962 0.416,1.118 4.784,1.118 3.692,0 4.291,-0.234 4.629,-0.78 0.182,-0.286 0.338,-0.858 0.416,-1.586 0.052,-0.468 0.338,-0.702 0.832,-0.702 l 0.155,0 c 0.546,0.052 0.885,0.364 0.885,0.806 l 0,0.104 c -0.104,1.17 -0.339,2.132 -0.885,2.808 -0.649,0.832 -1.534,1.17 -6.058,1.17 -5.798,0 -6.709,-0.286 -6.709,-2.47 l 0,-6.422 c 0,-0.468 0.364,-0.728 0.962,-0.728 0.572,0 0.988,0.26 0.988,0.728 l 0,2.574 c 3.172,-0.416 6.838,-1.353 9.205,-2.366 0.182,-0.078 0.338,-0.104 0.493,-0.104 0.364,0 0.65,0.234 0.807,0.624 0.078,0.182 0.104,0.338 0.104,0.468 0,0.364 -0.208,0.624 -0.598,0.78 -2.86,1.118 -6.553,1.95 -10.01,2.314 l 0,1.664 z m 8.58,7.384 c 0,-0.519 -0.26,-0.649 -0.754,-0.649 l -7.177,0 c -0.494,0 -0.728,0.13 -0.728,0.649 l 0,2.549 8.659,0 0,-2.549 z m -8.659,4.213 0,2.782 c 0,0.52 0.234,0.649 0.728,0.649 l 7.177,0 c 0.494,0 0.754,-0.13 0.754,-0.649 l 0,-2.782 -8.659,0 z"
     id="path6"
     inkscape:connector-curvature="0"
     style="fill:#ffffff" />
</svg>
