<?xml version="1.0" encoding="UTF-8" standalone="no"?>
<svg
   xmlns:dc="http://purl.org/dc/elements/1.1/"
   xmlns:cc="http://creativecommons.org/ns#"
   xmlns:rdf="http://www.w3.org/1999/02/22-rdf-syntax-ns#"
   xmlns:svg="http://www.w3.org/2000/svg"
   xmlns="http://www.w3.org/2000/svg"
   xmlns:sodipodi="http://sodipodi.sourceforge.net/DTD/sodipodi-0.dtd"
   xmlns:inkscape="http://www.inkscape.org/namespaces/inkscape"
   viewBox="0 0 36 36"
   id="svg2"
   version="1.1"
   inkscape:version="0.91 r13725"
   sodipodi:docname="1f239.svg"
   width="36"
   height="36">
  <metadata
     id="metadata12">
    <rdf:RDF>
      <cc:Work
         rdf:about="">
        <dc:format>image/svg+xml</dc:format>
        <dc:type
           rdf:resource="http://purl.org/dc/dcmitype/StillImage" />
      </cc:Work>
    </rdf:RDF>
  </metadata>
  <defs
     id="defs10" />
  <sodipodi:namedview
     pagecolor="#ffffff"
     bordercolor="#666666"
     borderopacity="1"
     objecttolerance="10"
     gridtolerance="10"
     guidetolerance="10"
     inkscape:pageopacity="0"
     inkscape:pageshadow="2"
     inkscape:window-width="640"
     inkscape:window-height="480"
     id="namedview8"
     showgrid="false"
     inkscape:zoom="6.5555556"
     inkscape:cx="18"
     inkscape:cy="18"
     inkscape:window-x="0"
     inkscape:window-y="0"
     inkscape:window-maximized="0"
     inkscape:current-layer="svg2" />
  <path
     d="m 36,32 c 0,2.209 -1.791,4 -4,4 L 4,36 C 1.791,36 0,34.209 0,32 L 0,4 C 0,1.791 1.791,0 4,0 l 28,0 c 2.209,0 4,1.791 4,4 l 0,28 z"
     id="path4"
     inkscape:connector-curvature="0"
     style="fill:#dd2e44" />
  <path
     d="m 8.523,17.084 c -0.416,0 -0.65,-0.364 -0.65,-0.78 0,-0.416 0.234,-0.78 0.65,-0.78 l 4.394,0 0,-1.794 -3.484,0 c -0.468,0 -0.65,-0.338 -0.65,-0.78 0,-0.416 0.234,-0.754 0.65,-0.754 l 3.484,0 0,-1.222 c 0,-0.468 0.338,-0.702 0.858,-0.702 0.546,0 0.858,0.234 0.858,0.702 l 0,1.222 3.588,0 c 0.416,0 0.65,0.338 0.65,0.754 0,0.442 -0.182,0.78 -0.65,0.78 l -3.588,0 0,1.794 4.265,0 c 0.39,0 0.649,0.364 0.649,0.78 0,0.416 -0.26,0.78 -0.649,0.78 l -4.265,0 0,1.846 5.616,0 c 0.39,0 0.624,0.339 0.624,0.807 0,0.416 -0.234,0.78 -0.624,0.78 l -13.312,0 c -0.416,0 -0.624,-0.364 -0.624,-0.78 0,-0.468 0.208,-0.807 0.624,-0.807 l 5.98,0 0,-1.846 -4.394,0 z m 10.4,-8.917 c 1.378,0 2.028,0.572 2.028,1.976 l 0,1.69 c 0,0.572 -0.363,0.78 -0.91,0.78 -0.546,0 -0.884,-0.234 -0.884,-0.702 l 0,-1.456 c 0,-0.52 -0.26,-0.65 -0.728,-0.65 l -9.308,0 c -0.494,0 -0.729,0.13 -0.729,0.65 l 0,1.742 c 0,0.468 -0.416,0.727 -0.936,0.727 -0.521,0 -0.91,-0.234 -0.91,-0.806 l 0,-1.976 c 0,-1.404 0.65,-1.976 2.028,-1.976 l 4.238,0 0,-1.404 c 0,-0.468 0.39,-0.728 0.988,-0.728 0.624,0 1.014,0.26 1.014,0.728 l 0,1.404 4.109,0 z m -1.638,14.015 c 1.456,0 2.08,0.546 2.08,1.976 l 0,3.433 c 0,1.43 -0.624,1.976 -2.08,1.976 l -7.202,0 c -1.456,0 -2.106,-0.546 -2.106,-1.976 l 0,-3.433 c 0,-1.43 0.65,-1.976 2.106,-1.976 l 7.202,0 z m -0.598,5.772 c 0.494,0 0.728,-0.131 0.728,-0.625 l 0,-2.912 c 0,-0.52 -0.234,-0.649 -0.728,-0.649 l -6.032,0 c -0.494,0 -0.728,0.13 -0.728,0.649 l 0,2.912 c 0,0.494 0.234,0.625 0.728,0.625 l 6.032,0 z m 7.67,-4.602 c 0,0.494 -0.416,0.727 -0.988,0.727 -0.546,0 -0.988,-0.26 -0.988,-0.727 l 0,-14.952 c 0,-0.494 0.442,-0.728 0.988,-0.728 0.572,0 0.988,0.26 0.988,0.728 l 0,14.952 z m 4.889,4.03 c 0,1.69 -0.858,2.47 -2.887,2.47 -0.832,0 -2.002,-0.078 -2.73,-0.233 -0.363,-0.078 -0.623,-0.416 -0.623,-0.858 0,-0.104 0,-0.183 0.025,-0.286 0.104,-0.52 0.416,-0.78 0.807,-0.78 0.052,0 0.129,0 0.182,0.026 0.598,0.13 1.508,0.234 2.08,0.234 0.988,0 1.17,-0.183 1.17,-1.041 l 0,-19.814 c 0,-0.494 0.39,-0.78 0.988,-0.78 0.598,0 0.988,0.286 0.988,0.78 l 0,20.282 z"
     id="path6"
     inkscape:connector-curvature="0"
     style="fill:#ffffff" />
</svg>
