<?xml version="1.0" encoding="UTF-8" standalone="no"?>
<svg
   xmlns:dc="http://purl.org/dc/elements/1.1/"
   xmlns:cc="http://creativecommons.org/ns#"
   xmlns:rdf="http://www.w3.org/1999/02/22-rdf-syntax-ns#"
   xmlns:svg="http://www.w3.org/2000/svg"
   xmlns="http://www.w3.org/2000/svg"
   xmlns:sodipodi="http://sodipodi.sourceforge.net/DTD/sodipodi-0.dtd"
   xmlns:inkscape="http://www.inkscape.org/namespaces/inkscape"
   viewBox="0 0 36 36"
   id="svg2"
   version="1.1"
   inkscape:version="0.91 r13725"
   sodipodi:docname="1f23a.svg"
   width="36"
   height="36">
  <metadata
     id="metadata12">
    <rdf:RDF>
      <cc:Work
         rdf:about="">
        <dc:format>image/svg+xml</dc:format>
        <dc:type
           rdf:resource="http://purl.org/dc/dcmitype/StillImage" />
      </cc:Work>
    </rdf:RDF>
  </metadata>
  <defs
     id="defs10" />
  <sodipodi:namedview
     pagecolor="#ffffff"
     bordercolor="#666666"
     borderopacity="1"
     objecttolerance="10"
     gridtolerance="10"
     guidetolerance="10"
     inkscape:pageopacity="0"
     inkscape:pageshadow="2"
     inkscape:window-width="640"
     inkscape:window-height="480"
     id="namedview8"
     showgrid="false"
     inkscape:zoom="6.5555556"
     inkscape:cx="18"
     inkscape:cy="18"
     inkscape:window-x="0"
     inkscape:window-y="0"
     inkscape:window-maximized="0"
     inkscape:current-layer="svg2" />
  <path
     d="m 36,32 c 0,2.209 -1.791,4 -4,4 L 4,36 C 1.791,36 0,34.209 0,32 L 0,4 C 0,1.791 1.791,0 4,0 l 28,0 c 2.209,0 4,1.791 4,4 l 0,28 z"
     id="path4"
     inkscape:connector-curvature="0"
     style="fill:#f4900c" />
  <path
     d="m 26.893,9.669 c 1.534,0 2.236,0.598 2.236,2.002 l 0,3.562 c 0,0.494 -0.364,0.78 -0.988,0.78 -0.572,0 -0.988,-0.286 -0.988,-0.78 l 0,-3.146 c 0,-0.572 -0.26,-0.702 -0.832,-0.702 l -16.745,0 c -0.52,0 -0.78,0.13 -0.78,0.702 l 0,3.146 c 0,0.494 -0.39,0.78 -0.988,0.78 -0.598,0 -0.988,-0.286 -0.988,-0.78 l 0,-3.562 c 0,-1.404 0.676,-2.002 2.236,-2.002 l 2.626,0 C 11.24,8.915 10.642,8.031 10.278,7.537 10.174,7.381 10.122,7.251 10.122,7.121 c 0,-0.286 0.234,-0.572 0.572,-0.702 0.182,-0.078 0.364,-0.13 0.52,-0.13 0.312,0 0.572,0.13 0.78,0.416 0.546,0.78 1.275,1.976 1.768,2.964 l 3.64,0 C 17.064,8.889 16.57,7.927 16.128,7.199 16.05,7.069 16.024,6.939 16.024,6.835 c 0,-0.312 0.208,-0.598 0.598,-0.702 0.156,-0.052 0.312,-0.078 0.442,-0.078 0.338,0 0.598,0.13 0.806,0.468 0.494,0.78 1.066,2.028 1.534,3.146 l 2.834,0 c 0.702,-1.014 1.326,-2.054 1.717,-2.912 0.207,-0.416 0.494,-0.572 0.857,-0.572 0.156,0 0.312,0.026 0.469,0.078 0.441,0.13 0.649,0.39 0.649,0.702 0,0.156 -0.052,0.312 -0.13,0.468 -0.338,0.676 -0.832,1.456 -1.378,2.236 l 2.471,0 z m -1.508,12.507 c 1.456,0 2.184,0.598 2.184,2.028 l 0,3.354 c 0,1.431 -0.728,2.028 -2.184,2.028 l -14.82,0 c -1.456,0 -2.185,-0.598 -2.185,-2.028 l 0,-3.354 c 0,-1.431 0.729,-2.028 2.185,-2.028 l 4.654,0 c 0.416,-0.729 0.78,-1.534 1.118,-2.315 l -3.614,0 c -1.612,0 -2.236,-0.519 -2.236,-1.924 l 0,-2.652 c 0,-1.43 0.624,-1.924 2.236,-1.924 l 10.479,0 c 1.611,0 2.235,0.494 2.235,1.924 l 0,2.652 c 0,1.404 -0.624,1.924 -2.235,1.924 l -4.811,0 c -0.312,0.807 -0.676,1.586 -1.144,2.315 l 8.138,0 z m -0.598,5.642 c 0.572,0 0.806,-0.131 0.806,-0.65 l 0,-2.626 c 0,-0.521 -0.233,-0.65 -0.806,-0.65 l -13.625,0 c -0.572,0 -0.806,0.13 -0.806,0.65 l 0,2.626 c 0,0.52 0.234,0.65 0.806,0.65 l 13.625,0 z M 22.759,18.25 c 0.521,0 0.754,-0.13 0.754,-0.65 l 0,-1.95 c 0,-0.494 -0.233,-0.624 -0.754,-0.624 l -9.595,0 c -0.546,0 -0.754,0.13 -0.754,0.624 l 0,1.95 c 0,0.52 0.208,0.65 0.754,0.65 l 9.595,0 z"
     id="path6"
     inkscape:connector-curvature="0"
     style="fill:#ffffff" />
</svg>
