<?xml version="1.0" encoding="UTF-8" standalone="no"?>
<svg
   xmlns:dc="http://purl.org/dc/elements/1.1/"
   xmlns:cc="http://creativecommons.org/ns#"
   xmlns:rdf="http://www.w3.org/1999/02/22-rdf-syntax-ns#"
   xmlns:svg="http://www.w3.org/2000/svg"
   xmlns="http://www.w3.org/2000/svg"
   xmlns:sodipodi="http://sodipodi.sourceforge.net/DTD/sodipodi-0.dtd"
   xmlns:inkscape="http://www.inkscape.org/namespaces/inkscape"
   viewBox="0 0 36 36"
   id="svg2"
   version="1.1"
   inkscape:version="0.91 r13725"
   sodipodi:docname="1f236.svg"
   width="36"
   height="36">
  <metadata
     id="metadata12">
    <rdf:RDF>
      <cc:Work
         rdf:about="">
        <dc:format>image/svg+xml</dc:format>
        <dc:type
           rdf:resource="http://purl.org/dc/dcmitype/StillImage" />
      </cc:Work>
    </rdf:RDF>
  </metadata>
  <defs
     id="defs10" />
  <sodipodi:namedview
     pagecolor="#ffffff"
     bordercolor="#666666"
     borderopacity="1"
     objecttolerance="10"
     gridtolerance="10"
     guidetolerance="10"
     inkscape:pageopacity="0"
     inkscape:pageshadow="2"
     inkscape:window-width="640"
     inkscape:window-height="480"
     id="namedview8"
     showgrid="false"
     inkscape:zoom="6.5555556"
     inkscape:cx="18"
     inkscape:cy="18"
     inkscape:window-x="0"
     inkscape:window-y="0"
     inkscape:window-maximized="0"
     inkscape:current-layer="svg2" />
  <path
     d="m 36,32 c 0,2.209 -1.791,4 -4,4 L 4,36 C 1.791,36 0,34.209 0,32 L 0,4 C 0,1.791 1.791,0 4,0 l 28,0 c 2.209,0 4,1.791 4,4 l 0,28 z"
     id="path4"
     inkscape:connector-curvature="0"
     style="fill:#f4900c" />
  <path
     d="m 11.246,19.574 c 0,-0.572 0.026,-1.56 0.208,-2.288 C 10.232,18.612 8.906,19.807 7.58,20.744 7.32,20.927 7.06,21.03 6.826,21.03 6.54,21.03 6.28,20.9 6.072,20.588 5.942,20.406 5.864,20.198 5.864,19.99 c 0,-0.286 0.13,-0.546 0.468,-0.78 3.095,-2.002 5.721,-5.018 7.437,-8.19 l -6.708,0 c -0.469,0 -0.729,-0.441 -0.729,-0.962 0,-0.546 0.26,-0.936 0.729,-0.936 l 7.644,0 c 0.364,-0.858 0.677,-1.742 0.885,-2.601 0.13,-0.468 0.416,-0.676 0.884,-0.676 0.104,0 0.208,0 0.312,0.026 0.547,0.104 0.755,0.416 0.755,0.754 0,0.104 -0.026,0.208 -0.053,0.312 -0.208,0.729 -0.468,1.456 -0.754,2.185 l 12.48,0 c 0.494,0 0.754,0.39 0.754,0.936 0,0.521 -0.26,0.962 -0.754,0.962 l -13.365,0 c -0.546,1.015 -1.118,2.003 -1.769,2.965 0.494,-0.13 1.456,-0.183 2.185,-0.183 l 8.086,0 c 1.586,0 2.314,0.65 2.314,2.185 l 0,11.362 c 0,1.82 -0.937,2.496 -3.146,2.496 -1.066,0 -2.054,-0.104 -2.808,-0.286 -0.442,-0.104 -0.728,-0.416 -0.728,-0.884 0,-0.078 0,-0.183 0.026,-0.286 0.104,-0.442 0.416,-0.729 0.806,-0.729 0.078,0 0.156,0 0.26,0.052 0.599,0.156 1.457,0.312 2.158,0.312 1.223,0 1.482,-0.208 1.482,-1.092 l 0,-2.679 -11.467,0 0,5.07 c 0,0.468 -0.416,0.78 -0.987,0.78 -0.599,0 -1.015,-0.312 -1.015,-0.78 l 0,-9.749 z m 13.469,-3.302 c 0,-0.52 -0.26,-0.702 -0.78,-0.702 l -9.906,0 c -0.52,0 -0.78,0.182 -0.78,0.702 l 0,1.872 11.467,0 0,-1.872 z m -11.467,6.214 11.467,0 0,-2.574 -11.467,0 0,2.574 z"
     id="path6"
     inkscape:connector-curvature="0"
     style="fill:#ffffff" />
</svg>
