<?xml version="1.0" encoding="UTF-8" standalone="no"?>
<svg
   xmlns:dc="http://purl.org/dc/elements/1.1/"
   xmlns:cc="http://creativecommons.org/ns#"
   xmlns:rdf="http://www.w3.org/1999/02/22-rdf-syntax-ns#"
   xmlns:svg="http://www.w3.org/2000/svg"
   xmlns="http://www.w3.org/2000/svg"
   xmlns:sodipodi="http://sodipodi.sourceforge.net/DTD/sodipodi-0.dtd"
   xmlns:inkscape="http://www.inkscape.org/namespaces/inkscape"
   viewBox="0 0 36 36"
   id="svg2"
   version="1.1"
   inkscape:version="0.91 r13725"
   sodipodi:docname="1f237.svg"
   width="36"
   height="36">
  <metadata
     id="metadata12">
    <rdf:RDF>
      <cc:Work
         rdf:about="">
        <dc:format>image/svg+xml</dc:format>
        <dc:type
           rdf:resource="http://purl.org/dc/dcmitype/StillImage" />
      </cc:Work>
    </rdf:RDF>
  </metadata>
  <defs
     id="defs10" />
  <sodipodi:namedview
     pagecolor="#ffffff"
     bordercolor="#666666"
     borderopacity="1"
     objecttolerance="10"
     gridtolerance="10"
     guidetolerance="10"
     inkscape:pageopacity="0"
     inkscape:pageshadow="2"
     inkscape:window-width="640"
     inkscape:window-height="480"
     id="namedview8"
     showgrid="false"
     inkscape:zoom="6.5555556"
     inkscape:cx="18"
     inkscape:cy="18"
     inkscape:window-x="0"
     inkscape:window-y="0"
     inkscape:window-maximized="0"
     inkscape:current-layer="svg2" />
  <path
     d="m 36,32 c 0,2.209 -1.791,4 -4,4 L 4,36 C 1.791,36 0,34.209 0,32 L 0,4 C 0,1.791 1.791,0 4,0 l 28,0 c 2.209,0 4,1.791 4,4 l 0,28 z"
     id="path4"
     inkscape:connector-curvature="0"
     style="fill:#f4900c" />
  <path
     d="m 11.969,21.447 c -0.468,3.276 -1.456,5.877 -3.328,8.035 -0.234,0.26 -0.546,0.39 -0.858,0.39 -0.26,0 -0.52,-0.078 -0.754,-0.26 -0.286,-0.208 -0.416,-0.521 -0.416,-0.807 0,-0.233 0.104,-0.493 0.286,-0.702 2.86,-3.119 3.432,-7.228 3.432,-14.534 l 0,-4.238 c 0,-1.586 0.78,-2.236 2.34,-2.236 l 11.7,0 c 1.534,0 2.314,0.65 2.314,2.236 l 0,17.889 c 0,1.691 -0.702,2.444 -3.354,2.444 -1.015,0 -2.002,-0.104 -2.834,-0.286 -0.494,-0.103 -0.806,-0.416 -0.806,-0.935 0,-0.078 0,-0.183 0.025,-0.286 0.13,-0.546 0.469,-0.78 0.832,-0.78 0.078,0 0.156,0 0.234,0.026 0.676,0.182 1.482,0.285 2.288,0.285 1.352,0 1.586,-0.207 1.586,-1.039 l 0,-5.201 -12.687,0 z m 0.416,-6.343 c -0.026,1.456 -0.026,2.938 -0.182,4.394 l 12.455,0 0,-4.394 -12.273,0 z M 24.657,9.721 c 0,-0.52 -0.261,-0.676 -0.806,-0.676 l -10.634,0 c -0.52,0 -0.832,0.156 -0.832,0.676 l 0,3.432 12.272,0 0,-3.432 z"
     id="path6"
     inkscape:connector-curvature="0"
     style="fill:#ffffff" />
</svg>
