<?xml version="1.0" encoding="UTF-8" standalone="no"?>
<svg
   xmlns:dc="http://purl.org/dc/elements/1.1/"
   xmlns:cc="http://creativecommons.org/ns#"
   xmlns:rdf="http://www.w3.org/1999/02/22-rdf-syntax-ns#"
   xmlns:svg="http://www.w3.org/2000/svg"
   xmlns="http://www.w3.org/2000/svg"
   xmlns:sodipodi="http://sodipodi.sourceforge.net/DTD/sodipodi-0.dtd"
   xmlns:inkscape="http://www.inkscape.org/namespaces/inkscape"
   viewBox="0 0 36 36"
   id="svg2"
   version="1.1"
   inkscape:version="0.91 r13725"
   sodipodi:docname="1f251.svg"
   width="36"
   height="36">
  <metadata
     id="metadata12">
    <rdf:RDF>
      <cc:Work
         rdf:about="">
        <dc:format>image/svg+xml</dc:format>
        <dc:type
           rdf:resource="http://purl.org/dc/dcmitype/StillImage" />
      </cc:Work>
    </rdf:RDF>
  </metadata>
  <defs
     id="defs10" />
  <sodipodi:namedview
     pagecolor="#ffffff"
     bordercolor="#666666"
     borderopacity="1"
     objecttolerance="10"
     gridtolerance="10"
     guidetolerance="10"
     inkscape:pageopacity="0"
     inkscape:pageshadow="2"
     inkscape:window-width="640"
     inkscape:window-height="480"
     id="namedview8"
     showgrid="false"
     inkscape:zoom="6.5555556"
     inkscape:cx="18"
     inkscape:cy="18"
     inkscape:window-x="0"
     inkscape:window-y="0"
     inkscape:window-maximized="0"
     inkscape:current-layer="svg2" />
  <path
     d="M 36,18 C 36,27.941 27.941,36 18,36 8.059,36 0,27.941 0,18 0,8.06 8.059,0 18,0 27.941,0 36,8.06 36,18 Z"
     id="path4"
     inkscape:connector-curvature="0"
     style="fill:#f4900c" />
  <path
     d="m 6.988,9.546 c -0.494,0 -0.78,-0.39 -0.78,-0.962 0,-0.546 0.286,-0.936 0.78,-0.936 l 22.049,0 c 0.468,0 0.754,0.39 0.754,0.936 0,0.546 -0.286,0.962 -0.754,0.962 l -2.6,0 0,17.915 c 0,1.899 -0.858,2.652 -3.276,2.652 -1.093,0 -2.392,-0.131 -3.406,-0.365 -0.494,-0.103 -0.78,-0.467 -0.78,-0.935 0,-0.078 0,-0.182 0.026,-0.285 0.104,-0.521 0.416,-0.807 0.858,-0.807 0.078,0 0.182,0 0.26,0.025 0.884,0.234 2.027,0.391 2.834,0.391 1.092,0 1.404,-0.234 1.404,-1.248 l 0,-17.343 -17.369,0 z m 13.078,12.532 c 0,1.664 -0.728,2.314 -2.366,2.314 l -6.136,0 c -1.664,0 -2.392,-0.65 -2.392,-2.314 l 0,-6.941 c 0,-1.664 0.728,-2.314 2.392,-2.314 l 6.136,0 c 1.638,0 2.366,0.65 2.366,2.314 l 0,6.941 z m -2.807,0.443 c 0.546,0 0.806,-0.156 0.806,-0.729 l 0,-6.37 c 0,-0.572 -0.26,-0.728 -0.806,-0.728 l -5.304,0 c -0.52,0 -0.78,0.156 -0.78,0.728 l 0,6.37 c 0,0.572 0.26,0.729 0.78,0.729 l 5.304,0 z"
     id="path6"
     inkscape:connector-curvature="0"
     style="fill:#ffffff" />
</svg>
