<?xml version="1.0" encoding="UTF-8" standalone="no"?>
<svg
   xmlns:dc="http://purl.org/dc/elements/1.1/"
   xmlns:cc="http://creativecommons.org/ns#"
   xmlns:rdf="http://www.w3.org/1999/02/22-rdf-syntax-ns#"
   xmlns:svg="http://www.w3.org/2000/svg"
   xmlns="http://www.w3.org/2000/svg"
   xmlns:sodipodi="http://sodipodi.sourceforge.net/DTD/sodipodi-0.dtd"
   xmlns:inkscape="http://www.inkscape.org/namespaces/inkscape"
   viewBox="0 0 36 36"
   id="svg2"
   version="1.1"
   inkscape:version="0.91 r13725"
   sodipodi:docname="1f250.svg"
   width="36"
   height="36">
  <metadata
     id="metadata12">
    <rdf:RDF>
      <cc:Work
         rdf:about="">
        <dc:format>image/svg+xml</dc:format>
        <dc:type
           rdf:resource="http://purl.org/dc/dcmitype/StillImage" />
      </cc:Work>
    </rdf:RDF>
  </metadata>
  <defs
     id="defs10" />
  <sodipodi:namedview
     pagecolor="#ffffff"
     bordercolor="#666666"
     borderopacity="1"
     objecttolerance="10"
     gridtolerance="10"
     guidetolerance="10"
     inkscape:pageopacity="0"
     inkscape:pageshadow="2"
     inkscape:window-width="640"
     inkscape:window-height="480"
     id="namedview8"
     showgrid="false"
     inkscape:zoom="6.5555556"
     inkscape:cx="18"
     inkscape:cy="18"
     inkscape:window-x="0"
     inkscape:window-y="0"
     inkscape:window-maximized="0"
     inkscape:current-layer="svg2" />
  <path
     d="M 18,0 C 8.059,0 0,8.06 0,18 0,27.941 8.059,36 18,36 27.941,36 36,27.941 36,18 36,8.06 27.941,0 18,0 Z m 0,34 C 9.164,34 2,26.837 2,18 2,9.164 9.164,2 18,2 c 8.837,0 16,7.164 16,16 0,8.837 -7.163,16 -16,16 z"
     id="path4"
     inkscape:connector-curvature="0"
     style="fill:#dd2e44" />
  <path
     d="m 9.706,21.539 c 0,-1.066 0.078,-2.185 0.286,-3.407 -0.65,0.806 -1.352,1.509 -2.08,2.055 -0.156,0.13 -0.312,0.183 -0.52,0.183 -0.26,0 -0.546,-0.131 -0.78,-0.391 -0.13,-0.208 -0.182,-0.416 -0.182,-0.624 0,-0.286 0.104,-0.546 0.338,-0.729 2.236,-1.742 3.926,-3.9 5.2,-6.214 0.182,-0.312 0.442,-0.468 0.728,-0.468 0.182,0 0.364,0.052 0.52,0.156 0.364,0.182 0.52,0.442 0.52,0.754 0,0.156 -0.052,0.311 -0.13,0.468 -0.494,0.884 -1.196,1.95 -1.924,2.886 l 0,13.209 c 0,0.494 -0.39,0.754 -0.988,0.754 -0.572,0 -0.988,-0.26 -0.988,-0.754 l 0,-7.878 z M 13.71,6.925 c 0,0.156 -0.052,0.338 -0.156,0.494 -1.222,1.976 -3.146,4.004 -5.096,5.46 -0.208,0.182 -0.442,0.26 -0.65,0.26 -0.26,0 -0.494,-0.13 -0.728,-0.416 -0.156,-0.182 -0.234,-0.39 -0.234,-0.598 0,-0.286 0.156,-0.546 0.416,-0.754 1.846,-1.274 3.51,-3.094 4.602,-4.94 0.208,-0.26 0.494,-0.39 0.78,-0.39 0.208,0 0.39,0.052 0.572,0.156 0.311,0.182 0.494,0.443 0.494,0.728 z m 13.13,13.86 2.834,0 c 0.469,0 0.703,0.312 0.703,0.832 0,0.493 -0.234,0.831 -0.703,0.831 l -2.834,0 0,4.967 c 0,1.794 -0.935,2.392 -2.887,2.392 -0.936,0 -1.818,-0.052 -2.496,-0.208 -0.363,-0.078 -0.676,-0.416 -0.676,-0.884 0,-0.078 0,-0.156 0.027,-0.234 0.104,-0.52 0.467,-0.779 0.805,-0.779 0.053,0 0.078,0 0.131,0.025 0.676,0.183 1.483,0.234 1.977,0.234 0.988,0 1.221,-0.182 1.221,-1.014 l 0,-4.499 -11.232,0 c -0.468,0 -0.702,-0.312 -0.702,-0.806 0,-0.546 0.234,-0.857 0.702,-0.857 l 11.232,0 0,-2.003 -10.868,0 c -0.468,0 -0.702,-0.364 -0.702,-0.832 0,-0.494 0.234,-0.832 0.702,-0.832 l 15.419,0 c 0.441,0 0.676,0.338 0.676,0.832 0,0.468 -0.234,0.832 -0.676,0.832 l -2.653,0 0,2.003 z M 26.449,6.795 c 1.482,0 2.133,0.572 2.133,1.95 l 0,4.784 c 0,1.378 -0.65,1.95 -2.133,1.95 l -8.736,0 c -1.508,0 -2.158,-0.572 -2.158,-1.95 l 0,-4.783 c 0,-1.378 0.65,-1.95 2.158,-1.95 l 8.736,0 z m -8.917,16.252 c 0.26,0 0.52,0.104 0.676,0.26 0.91,0.884 1.795,1.872 2.445,2.756 0.104,0.156 0.156,0.338 0.156,0.521 0,0.286 -0.131,0.571 -0.416,0.806 -0.234,0.208 -0.494,0.286 -0.728,0.286 -0.26,0 -0.52,-0.105 -0.65,-0.312 -0.65,-0.937 -1.56,-2.055 -2.314,-2.835 -0.156,-0.155 -0.234,-0.363 -0.234,-0.546 0,-0.26 0.13,-0.494 0.364,-0.702 0.207,-0.156 0.466,-0.234 0.701,-0.234 z m 9.23,-12.715 0,-1.378 c 0,-0.468 -0.234,-0.598 -0.701,-0.598 l -7.983,0 c -0.468,0 -0.702,0.13 -0.702,0.598 l 0,1.378 9.386,0 z m -9.387,2.964 c 0,0.494 0.234,0.624 0.702,0.624 l 7.983,0 c 0.467,0 0.701,-0.13 0.701,-0.624 l 0,-1.43 -9.386,0 0,1.43 z"
     id="path6"
     inkscape:connector-curvature="0"
     style="fill:#dd2e44" />
</svg>
