<?xml version="1.0" encoding="UTF-8" standalone="no"?>
<svg
   xmlns:dc="http://purl.org/dc/elements/1.1/"
   xmlns:cc="http://creativecommons.org/ns#"
   xmlns:rdf="http://www.w3.org/1999/02/22-rdf-syntax-ns#"
   xmlns:svg="http://www.w3.org/2000/svg"
   xmlns="http://www.w3.org/2000/svg"
   xmlns:sodipodi="http://sodipodi.sourceforge.net/DTD/sodipodi-0.dtd"
   xmlns:inkscape="http://www.inkscape.org/namespaces/inkscape"
   viewBox="0 0 30 34.990665"
   id="svg2"
   version="1.1"
   inkscape:version="0.91 r13725"
   sodipodi:docname="1f302.svg"
   width="30"
   height="34.990665">
  <metadata
     id="metadata14">
    <rdf:RDF>
      <cc:Work
         rdf:about="">
        <dc:format>image/svg+xml</dc:format>
        <dc:type
           rdf:resource="http://purl.org/dc/dcmitype/StillImage" />
      </cc:Work>
    </rdf:RDF>
  </metadata>
  <defs
     id="defs12" />
  <sodipodi:namedview
     pagecolor="#ffffff"
     bordercolor="#666666"
     borderopacity="1"
     objecttolerance="10"
     gridtolerance="10"
     guidetolerance="10"
     inkscape:pageopacity="0"
     inkscape:pageshadow="2"
     inkscape:window-width="640"
     inkscape:window-height="480"
     id="namedview10"
     showgrid="false"
     inkscape:zoom="6.5555556"
     inkscape:cx="12.555556"
     inkscape:cy="17.444444"
     inkscape:window-x="0"
     inkscape:window-y="0"
     inkscape:window-maximized="0"
     inkscape:current-layer="svg2" />
  <path
     d="m 29.555556,34.546222 c 1,-1 0,-2 0,-2 L 3.5555556,6.5462222 c 0,0 -1.479,-1.521 0,-3 1.479,-1.479 3,0 3,0 0,0 1,1 2,0 1,-1 0,-2 0,-2 0,0 -3.521,-3.479 -7,0 -3.5,3.5 0,7 0,7 L 27.555556,34.546222 c 0,0 1,1 2,0 z"
     id="path4"
     inkscape:connector-curvature="0"
     style="fill:#66757f" />
  <path
     d="m 1.9225556,17.648222 1.633,-0.543 0,-1.559 c 0,-0.918 0.625,-1.718 1.515,-1.94 l 2.836,-0.709 0.709,-2.836 c 0.222,-0.8899998 1.022,-1.5149998 1.9400004,-1.5149998 l 1.559,0 0.544,-1.632 c 0.256,-0.768 0.949,-1.305 1.756,-1.363 0.047,-0.004 0.094,-0.005 0.141,-0.005 0.753,0 1.448,0.425 1.789,1.105 l 12.211,24.8949998 -2,2 -24.8940004,-12.211 c -0.72400004,-0.362 -1.15800004,-1.124 -1.10100004,-1.931 0.057,-0.806 0.59600004,-1.5 1.36200004,-1.756 z"
     id="path6"
     inkscape:connector-curvature="0"
     style="fill:#9266cc" />
  <path
     d="m 27.555556,32.546222 -19.6490004,-19.649 0.709,-2.836 c 0.222,-0.8899998 1.022,-1.5149998 1.9400004,-1.5149998 l 1.559,0 0.051,-0.154 15.986,23.5579998 -0.596,0.596 z m -1,1 -24.8940004,-12.211 c -0.72400004,-0.362 -1.15800004,-1.124 -1.10100004,-1.931 0.058,-0.807 0.59600004,-1.5 1.36200004,-1.756 l 1.633,-0.543 0,-0.174 23.4090004,16.206 -0.409,0.409 z"
     id="path8"
     inkscape:connector-curvature="0"
     style="fill:#744eaa" />
</svg>
