<?xml version="1.0" encoding="UTF-8" standalone="no"?>
<svg
   xmlns:dc="http://purl.org/dc/elements/1.1/"
   xmlns:cc="http://creativecommons.org/ns#"
   xmlns:rdf="http://www.w3.org/1999/02/22-rdf-syntax-ns#"
   xmlns:svg="http://www.w3.org/2000/svg"
   xmlns="http://www.w3.org/2000/svg"
   xmlns:sodipodi="http://sodipodi.sourceforge.net/DTD/sodipodi-0.dtd"
   xmlns:inkscape="http://www.inkscape.org/namespaces/inkscape"
   viewBox="0 0 36 36"
   id="svg2"
   version="1.1"
   inkscape:version="0.91 r13725"
   sodipodi:docname="1f30c.svg"
   width="36"
   height="36">
  <metadata
     id="metadata20">
    <rdf:RDF>
      <cc:Work
         rdf:about="">
        <dc:format>image/svg+xml</dc:format>
        <dc:type
           rdf:resource="http://purl.org/dc/dcmitype/StillImage" />
      </cc:Work>
    </rdf:RDF>
  </metadata>
  <defs
     id="defs18" />
  <sodipodi:namedview
     pagecolor="#ffffff"
     bordercolor="#666666"
     borderopacity="1"
     objecttolerance="10"
     gridtolerance="10"
     guidetolerance="10"
     inkscape:pageopacity="0"
     inkscape:pageshadow="2"
     inkscape:window-width="640"
     inkscape:window-height="480"
     id="namedview16"
     showgrid="false"
     inkscape:zoom="6.5555556"
     inkscape:cx="18"
     inkscape:cy="18"
     inkscape:window-x="0"
     inkscape:window-y="0"
     inkscape:window-maximized="0"
     inkscape:current-layer="svg2" />
  <path
     d="m 36,32 c 0,2.209 -1.791,4 -4,4 L 4,36 C 1.791,36 0,34.209 0,32 L 0,4 C 0,1.791 1.791,0 4,0 l 28,0 c 2.209,0 4,1.791 4,4 l 0,28 z"
     id="path4"
     inkscape:connector-curvature="0"
     style="fill:#553788" />
  <path
     d="M 32,0 19.244,0 C 14.557,1.656 20.047,8.995 15.742,8.469 8.583,7.594 8.063,14.555 5,13.438 3.808,13.002 1.743,10.947 0,12.447 L 0,32 c 0,2.209 1.791,4 4,4 l 1.624,0 c 1.469,-1.279 0.927,-5.622 1.709,-6.75 2.834,-4.084 3.695,-7.482 7.901,-7.188 7.125,0.5 8.453,-4.853 10.705,-7.187 C 28.187,12.541 32,16.417 36,14.667 L 36,4 C 36,1.791 34.209,0 32,0"
     id="path6"
     inkscape:connector-curvature="0"
     style="fill:#744eaa" />
  <path
     d="m 36,32 0,-2.966 c -0.77,-0.84 -1.917,-1.784 -2.583,-1.7 -1.276,0.161 -2.042,1.166 -2.917,1.853 -0.875,0.688 -2.979,0.272 -4.667,-0.853 C 24.146,27.209 21.835,28.228 20.706,28.8 18.833,29.75 18.208,26.917 16.333,25.667 14.458,24.417 11.625,28.5 10.5,29.25 9.375,30 8.037,28.07 7.225,27.508 6.412,26.945 5.333,27.022 3.833,28.334 2.546,29.46 2.038,29.229 0,29.879 L 0,32 c 0,2.209 1.791,4 4,4 l 28,0 c 2.209,0 4,-1.791 4,-4"
     id="path8"
     inkscape:connector-curvature="0"
     style="fill:#292f33" />
  <path
     d="m 7.333,15.667 c 0,0.644 -0.522,1.167 -1.167,1.167 C 5.522,16.834 5,16.311 5,15.667 5,15.022 5.522,14.5 6.167,14.5 c 0.645,0 1.166,0.522 1.166,1.167 m 8.605,-4.636 c 0,0.604 -0.49,1.094 -1.094,1.094 -0.604,0 -1.094,-0.49 -1.094,-1.094 0,-0.604 0.49,-1.094 1.094,-1.094 0.604,0 1.094,0.49 1.094,1.094 m 7.374,-5.719 c 0,0.725 -0.588,1.312 -1.312,1.312 -0.726,0 -1.313,-0.587 -1.313,-1.312 C 20.687,4.587 21.275,4 22,4 c 0.725,0.001 1.312,0.587 1.312,1.312 m 1.876,3.407 c 0,0.432 -0.35,0.781 -0.781,0.781 -0.432,0 -0.78,-0.349 -0.78,-0.781 0,-0.432 0.349,-0.781 0.78,-0.781 0.431,0 0.781,0.349 0.781,0.781 M 19.75,19.75 c 0,0.553 -0.447,1 -1,1 -0.553,0 -1,-0.447 -1,-1 0,-0.553 0.447,-1 1,-1 0.553,0 1,0.447 1,1 m 12.188,0.672 c 0,0.518 -0.42,0.937 -0.937,0.937 -0.519,0 -0.938,-0.419 -0.938,-0.937 0,-0.518 0.42,-0.937 0.938,-0.937 0.517,0 0.937,0.419 0.937,0.937 m 0.75,-9.516 c 0,0.639 -0.518,1.156 -1.156,1.156 -0.639,0 -1.157,-0.517 -1.157,-1.156 0,-0.639 0.519,-1.156 1.157,-1.156 0.638,0 1.156,0.517 1.156,1.156"
     id="path10"
     inkscape:connector-curvature="0"
     style="fill:#aa8dd8" />
  <path
     d="m 22.281,23.728 c 0,0.362 -0.293,0.656 -0.655,0.656 -0.363,0 -0.656,-0.294 -0.656,-0.656 0,-0.362 0.293,-0.656 0.656,-0.656 0.362,-10e-4 0.655,0.293 0.655,0.656 M 12.562,2.562 c 0,0.449 -0.364,0.812 -0.812,0.812 -0.449,0 -0.813,-0.363 -0.813,-0.812 0,-0.449 0.364,-0.812 0.813,-0.812 0.449,0 0.812,0.363 0.812,0.812 M 5.606,5.938 c 0,0.371 -0.301,0.672 -0.672,0.672 -0.371,0 -0.672,-0.301 -0.672,-0.672 0,-0.371 0.301,-0.672 0.672,-0.672 0.371,0 0.672,0.301 0.672,0.672 m 23.113,20.07 c 0,0.449 -0.363,0.812 -0.812,0.812 -0.45,0 -0.813,-0.362 -0.813,-0.812 0,-0.449 0.363,-0.811 0.813,-0.811 0.448,-10e-4 0.812,0.362 0.812,0.811 M 6.868,25.497 c 0,0.516 -0.418,0.934 -0.934,0.934 C 5.418,26.431 5,26.013 5,25.497 5,24.98 5.418,24.562 5.934,24.562 c 0.516,0 0.934,0.418 0.934,0.935 M 11,18.781 c 0,0.812 -0.658,1.469 -1.469,1.469 -0.811,0 -1.469,-0.657 -1.469,-1.469 0,-0.811 0.658,-1.469 1.469,-1.469 0.811,0 1.469,0.658 1.469,1.469 M 20.351,14.8 c 0,0.925 -0.75,1.675 -1.676,1.675 C 17.75,16.476 17,15.725 17,14.8 c 0,-0.925 0.75,-1.675 1.675,-1.675 0.926,0 1.676,0.75 1.676,1.675 M 28.688,4.469 c 0,0.397 -0.322,0.719 -0.719,0.719 -0.397,0 -0.719,-0.322 -0.719,-0.719 0,-0.397 0.321,-0.719 0.719,-0.719 0.396,0 0.719,0.322 0.719,0.719 M 34.312,3 c 0,0.552 -0.447,1 -1,1 -0.553,0 -1,-0.448 -1,-1 0,-0.552 0.447,-1 1,-1 0.553,0 1,0.448 1,1"
     id="path12"
     inkscape:connector-curvature="0"
     style="fill:#cbb7ea" />
  <path
     d="m 11.333,7.562 c 0,0.495 -0.401,0.896 -0.896,0.896 -0.495,0 -0.895,-0.401 -0.895,-0.896 0,-0.495 0.401,-0.896 0.896,-0.896 0.495,0 0.895,0.401 0.895,0.896 m 22.979,8.094 c 0,0.432 -0.35,0.781 -0.781,0.781 -0.432,0 -0.78,-0.349 -0.78,-0.781 0,-0.432 0.349,-0.781 0.78,-0.781 0.432,0 0.781,0.349 0.781,0.781 m -8.624,-2.125 c 0,0.38 -0.308,0.687 -0.687,0.687 -0.381,0 -0.688,-0.307 -0.688,-0.687 0,-0.38 0.308,-0.687 0.688,-0.687 0.379,0 0.687,0.307 0.687,0.687 m -13.157,1.188 c 0,0.328 -0.266,0.594 -0.594,0.594 -0.328,0 -0.593,-0.266 -0.593,-0.594 0,-0.328 0.265,-0.594 0.593,-0.594 0.328,0 0.594,0.266 0.594,0.594 M 22.75,11.24 c 0,0.639 -0.518,1.156 -1.156,1.156 -0.639,0 -1.157,-0.517 -1.157,-1.156 0,-0.639 0.519,-1.156 1.157,-1.156 0.638,-10e-4 1.156,0.517 1.156,1.156 m 6.125,-3.084 c 0,0.535 -0.434,0.969 -0.969,0.969 -0.535,0 -0.968,-0.434 -0.968,-0.969 0,-0.535 0.433,-0.969 0.968,-0.969 0.535,0 0.969,0.434 0.969,0.969 m -12.641,9.93 c 0,0.738 -0.598,1.336 -1.336,1.336 -0.738,0 -1.336,-0.598 -1.336,-1.336 0,-0.738 0.598,-1.336 1.336,-1.336 0.738,0 1.336,0.598 1.336,1.336 M 2.633,24.129 c 0,0.485 -0.394,0.879 -0.879,0.879 -0.485,0 -0.879,-0.393 -0.879,-0.879 0,-0.485 0.394,-0.879 0.879,-0.879 0.485,0 0.879,0.394 0.879,0.879 M 6,21.079 c 0,0.358 -0.291,0.648 -0.648,0.648 -0.358,0 -0.649,-0.29 -0.649,-0.648 0,-0.358 0.291,-0.648 0.649,-0.648 0.357,0 0.648,0.29 0.648,0.648 M 32.156,5.75 c 0,0.449 -0.363,0.812 -0.812,0.812 -0.45,0 -0.813,-0.363 -0.813,-0.812 0,-0.449 0.363,-0.812 0.813,-0.812 0.449,0 0.812,0.363 0.812,0.812"
     id="path14"
     inkscape:connector-curvature="0"
     style="fill:#f5f8fa" />
</svg>
