<?xml version="1.0" encoding="UTF-8" standalone="no"?>
<svg
   xmlns:dc="http://purl.org/dc/elements/1.1/"
   xmlns:cc="http://creativecommons.org/ns#"
   xmlns:rdf="http://www.w3.org/1999/02/22-rdf-syntax-ns#"
   xmlns:svg="http://www.w3.org/2000/svg"
   xmlns="http://www.w3.org/2000/svg"
   xmlns:sodipodi="http://sodipodi.sourceforge.net/DTD/sodipodi-0.dtd"
   xmlns:inkscape="http://www.inkscape.org/namespaces/inkscape"
   viewBox="0 0 36 36"
   id="svg2"
   version="1.1"
   inkscape:version="0.91 r13725"
   sodipodi:docname="1f303.svg"
   width="36"
   height="36">
  <metadata
     id="metadata32">
    <rdf:RDF>
      <cc:Work
         rdf:about="">
        <dc:format>image/svg+xml</dc:format>
        <dc:type
           rdf:resource="http://purl.org/dc/dcmitype/StillImage" />
      </cc:Work>
    </rdf:RDF>
  </metadata>
  <defs
     id="defs30" />
  <sodipodi:namedview
     pagecolor="#ffffff"
     bordercolor="#666666"
     borderopacity="1"
     objecttolerance="10"
     gridtolerance="10"
     guidetolerance="10"
     inkscape:pageopacity="0"
     inkscape:pageshadow="2"
     inkscape:window-width="640"
     inkscape:window-height="480"
     id="namedview28"
     showgrid="false"
     inkscape:zoom="6.5555556"
     inkscape:cx="18"
     inkscape:cy="18"
     inkscape:window-x="0"
     inkscape:window-y="0"
     inkscape:window-maximized="0"
     inkscape:current-layer="svg2" />
  <path
     d="M 32,0 4,0 C 1.791,0 0,1.791 0,4 L 0,26 36,26 36,4 C 36,1.791 34.209,0 32,0 Z"
     id="path4"
     inkscape:connector-curvature="0"
     style="fill:#226699" />
  <path
     d="m 10,36 0,-29 4,-4 2,0 4,4 0,29 z M 33,11 c 0,-1 -1,-1 -1,-1 l -7,0 c 0,0 -1,0 -1,1 l 0,25 9,0 0,-25 z"
     id="path6"
     inkscape:connector-curvature="0"
     style="fill:#3f484c" />
  <path
     d="m 28,19 c 0,-1 -1,-1 -1,-1 l -8,0 c -1,0 -1,1 -1,1 l 0,17 10,0 0,-17 z m -17,2 -5,0 0,-7 c 0,0 0,-1 -1,-1 l -5,0 0,19 c 0,2.209 1.791,4 4,4 l 8,0 0,-14 c 0,0 0,-1 -1,-1 z m 21,4 c -1,0 -1,1 -1,1 l 0,10 1,0 c 2.209,0 4,-1.791 4,-4 l 0,-7 -4,0 z"
     id="path8"
     inkscape:connector-curvature="0"
     style="fill:#292f33" />
  <path
     d="m 8,31 2,0 0,2 -2,0 z m 0,-8 2,0 0,2 -2,0 z m -2,4 2,0 0,2 -2,0 z m 10,-18 2,0 0,2 -2,0 z m 0,4 2,0 0,2 -2,0 z m -2,4 2,0 0,2 -2,0 z m 10,3 2,0 0,2 -2,0 z m -2,4 2,0 0,2 -2,0 z m -2,6 2,0 0,2 -2,0 z m 9,-18 2,0 0,2 -2,0 z m 0,4 2,0 0,2 -2,0 z"
     id="path10"
     inkscape:connector-curvature="0"
     style="fill:#ffcc4d" />
  <g
     id="g12"
     style="fill:#ffffff">
    <circle
       cx="10.5"
       cy="2.5"
       r="0.5"
       id="circle14" />
    <circle
       cx="7.5"
       cy="11.5"
       r="0.5"
       id="circle16" />
    <circle
       cx="22"
       cy="5"
       r="1"
       id="circle18" />
    <circle
       cx="26.5"
       cy="5.5"
       r="0.5"
       id="circle20" />
    <circle
       cx="31"
       cy="3"
       r="1"
       id="circle22" />
    <circle
       cx="31.5"
       cy="7.5"
       r="0.5"
       id="circle24" />
    <path
       d="M 6.5,7 C 5.119,7 4,5.881 4,4.5 4,3.37 4.755,2.426 5.784,2.117 5.533,2.048 5.273,2 5,2 3.343,2 2,3.343 2,5 2,6.657 3.343,8 5,8 5.959,8 6.803,7.542 7.353,6.841 7.085,6.938 6.801,7 6.5,7 Z"
       id="path26"
       inkscape:connector-curvature="0" />
  </g>
</svg>
