<?xml version="1.0" encoding="UTF-8" standalone="no"?>
<svg
   xmlns:dc="http://purl.org/dc/elements/1.1/"
   xmlns:cc="http://creativecommons.org/ns#"
   xmlns:rdf="http://www.w3.org/1999/02/22-rdf-syntax-ns#"
   xmlns:svg="http://www.w3.org/2000/svg"
   xmlns="http://www.w3.org/2000/svg"
   xmlns:sodipodi="http://sodipodi.sourceforge.net/DTD/sodipodi-0.dtd"
   xmlns:inkscape="http://www.inkscape.org/namespaces/inkscape"
   viewBox="0 0 35.599998 35.599998"
   id="svg2"
   version="1.1"
   inkscape:version="0.91 r13725"
   sodipodi:docname="1f31e.svg"
   width="35.599998"
   height="35.599998">
  <metadata
     id="metadata14">
    <rdf:RDF>
      <cc:Work
         rdf:about="">
        <dc:format>image/svg+xml</dc:format>
        <dc:type
           rdf:resource="http://purl.org/dc/dcmitype/StillImage" />
      </cc:Work>
    </rdf:RDF>
  </metadata>
  <defs
     id="defs12" />
  <sodipodi:namedview
     pagecolor="#ffffff"
     bordercolor="#666666"
     borderopacity="1"
     objecttolerance="10"
     gridtolerance="10"
     guidetolerance="10"
     inkscape:pageopacity="0"
     inkscape:pageshadow="2"
     inkscape:window-width="640"
     inkscape:window-height="480"
     id="namedview10"
     showgrid="false"
     inkscape:zoom="6.5555556"
     inkscape:cx="17.8"
     inkscape:cy="17.8"
     inkscape:window-x="0"
     inkscape:window-y="0"
     inkscape:window-maximized="0"
     inkscape:current-layer="svg2" />
  <path
     d="m 17.8,35.6 c -0.39,0 -0.745,-0.218 -0.921,-0.565 l -1.8,-3.554 -3.024,2.596 c -0.191,0.161 -0.43,0.247 -0.672,0.247 -0.133,0 -0.267,-0.025 -0.394,-0.078 -0.359,-0.148 -0.606,-0.487 -0.634,-0.873 L 10.051,29.397 6.263,30.638 C 6.158,30.672 6.05,30.689 5.942,30.689 5.672,30.689 5.41,30.583 5.212,30.386 4.938,30.113 4.841,29.705 4.962,29.335 L 6.202,25.547 2.23,25.246 C 1.843,25.215 1.504,24.971 1.355,24.612 1.207,24.251 1.272,23.84 1.525,23.545 l 2.594,-3.024 -3.554,-1.8 C 0.218,18.545 0,18.188 0,17.8 0,17.412 0.218,17.055 0.565,16.879 l 3.554,-1.8 -2.594,-3.024 C 1.273,11.76 1.207,11.347 1.355,10.989 1.504,10.63 1.842,10.383 2.23,10.355 L 6.202,10.051 4.962,6.263 C 4.841,5.893 4.938,5.488 5.212,5.212 5.41,5.016 5.672,4.911 5.942,4.911 c 0.108,0 0.216,0.017 0.321,0.051 l 3.788,1.24 0.304,-3.972 c 0.029,-0.388 0.275,-0.726 0.634,-0.875 0.127,-0.052 0.261,-0.078 0.394,-0.078 0.242,0 0.481,0.084 0.672,0.248 l 3.024,2.594 1.8,-3.554 C 17.055,0.218 17.41,0 17.8,0 c 0.388,0 0.745,0.218 0.92,0.565 l 1.802,3.554 3.024,-2.594 c 0.19,-0.164 0.431,-0.248 0.671,-0.248 0.135,0 0.268,0.026 0.396,0.078 0.358,0.149 0.603,0.487 0.634,0.875 l 0.303,3.972 3.785,-1.24 c 0.105,-0.035 0.215,-0.051 0.321,-0.051 0.27,0 0.534,0.105 0.729,0.301 0.276,0.276 0.373,0.682 0.252,1.051 l -1.241,3.788 3.976,0.304 c 0.386,0.029 0.725,0.275 0.873,0.634 0.148,0.358 0.084,0.771 -0.169,1.066 l -2.596,3.024 3.554,1.8 c 0.348,0.177 0.566,0.533 0.566,0.921 0,0.388 -0.218,0.744 -0.565,0.921 l -3.554,1.8 2.596,3.024 c 0.253,0.295 0.317,0.706 0.169,1.067 -0.148,0.358 -0.487,0.603 -0.876,0.634 l -3.973,0.301 1.241,3.788 c 0.121,0.371 0.024,0.777 -0.252,1.051 -0.195,0.197 -0.46,0.303 -0.729,0.303 -0.106,0 -0.216,-0.017 -0.321,-0.051 l -3.785,-1.241 -0.303,3.973 c -0.031,0.389 -0.275,0.728 -0.634,0.876 -0.129,0.053 -0.262,0.078 -0.396,0.078 -0.24,0 -0.48,-0.086 -0.671,-0.247 l -3.024,-2.596 -1.802,3.554 C 18.545,35.382 18.188,35.6 17.8,35.6 Z"
     id="path4"
     inkscape:connector-curvature="0"
     style="fill:#f4900c" />
  <path
     d="m 30.8,17.8 c 0,7.179 -5.821,13 -13,13 -7.179,0 -13,-5.82 -13,-13 0,-7.18 5.821,-13 13,-13 7.179,0 13,5.821 13,13"
     id="path6"
     inkscape:connector-curvature="0"
     style="fill:#ffcc4d" />
  <path
     d="m 17.8,23.271 c -6.222,0 -8,-2.328 -8,-1.228 0,1.102 3.556,3.98 8,3.98 4.444,0 8,-2.879 8,-3.98 0,-1.1 -1.777,1.228 -8,1.228 m 8,-8.804 c 0,1.473 -1.194,2.667 -2.667,2.667 -1.472,0 -2.666,-1.194 -2.666,-2.667 0,-1.473 1.194,-2.667 2.666,-2.667 1.473,0 2.667,1.193 2.667,2.667 m -10.667,0 c 0,1.473 -1.195,2.667 -2.667,2.667 -1.472,0 -2.667,-1.194 -2.667,-2.667 0,-1.473 1.196,-2.667 2.668,-2.667 1.472,0 2.666,1.193 2.666,2.667"
     id="path8"
     inkscape:connector-curvature="0"
     style="fill:#f4900c" />
</svg>
