<?xml version="1.0" encoding="UTF-8" standalone="no"?>
<svg
   xmlns:dc="http://purl.org/dc/elements/1.1/"
   xmlns:cc="http://creativecommons.org/ns#"
   xmlns:rdf="http://www.w3.org/1999/02/22-rdf-syntax-ns#"
   xmlns:svg="http://www.w3.org/2000/svg"
   xmlns="http://www.w3.org/2000/svg"
   xmlns:sodipodi="http://sodipodi.sourceforge.net/DTD/sodipodi-0.dtd"
   xmlns:inkscape="http://www.inkscape.org/namespaces/inkscape"
   viewBox="0 0 36.00124 35.999508"
   id="svg2"
   version="1.1"
   inkscape:version="0.91 r13725"
   sodipodi:docname="1f31f.svg"
   width="36.00124"
   height="35.999508">
  <metadata
     id="metadata12">
    <rdf:RDF>
      <cc:Work
         rdf:about="">
        <dc:format>image/svg+xml</dc:format>
        <dc:type
           rdf:resource="http://purl.org/dc/dcmitype/StillImage" />
      </cc:Work>
    </rdf:RDF>
  </metadata>
  <defs
     id="defs10" />
  <sodipodi:namedview
     pagecolor="#ffffff"
     bordercolor="#666666"
     borderopacity="1"
     objecttolerance="10"
     gridtolerance="10"
     guidetolerance="10"
     inkscape:pageopacity="0"
     inkscape:pageshadow="2"
     inkscape:window-width="640"
     inkscape:window-height="480"
     id="namedview8"
     showgrid="false"
     inkscape:zoom="6.5555556"
     inkscape:cx="18.000253"
     inkscape:cy="18.000003"
     inkscape:window-x="0"
     inkscape:window-y="0"
     inkscape:window-maximized="0"
     inkscape:current-layer="svg2" />
  <path
     d="m 28.840253,17.637505 c -0.987,1.044 -1.633,3.067 -1.438,4.493 l 0.892,6.441 c 0.197,1.427 -0.701,2.087 -1.996,1.469 l -5.851,-2.796 c -1.295,-0.62 -3.408,-0.611 -4.7,0.018 l -5.8260003,2.842 c -1.291,0.629 -2.193,-0.026 -2.007,-1.452 l 0.843,-6.449 c 0.186,-1.427 -0.475,-3.444 -1.47,-4.481 l -4.494,-4.688 c -0.996,-1.037 -0.655,-2.102 0.755,-2.365 l 6.37,-1.1879997 c 1.4100003,-0.263 3.1160003,-1.518 3.7930003,-2.789 l 3.051,-5.73699998 c 0.675,-1.271 1.789,-1.274 2.473,-0.009 l 3.095,5.71299998 c 0.686,1.265 2.4,2.507 3.814,2.758 l 6.378,1.1409997 c 1.412,0.252 1.761,1.314 0.774,2.359 l -4.456,4.72 z"
     id="path4"
     inkscape:connector-curvature="0"
     style="fill:#ffac33" />
  <path
     d="m 9.7832527,2.1805053 c 1.0230003,1.413 2.4460003,4.917 1.7170003,5.447 -0.728,0.531 -3.6070003,-1.91 -4.6300003,-3.323 -1.022,-1.413 -0.935,-2.668 -0.131,-3.254 0.804,-0.58699998 2.02,-0.28199998 3.044,1.13 z m 19.3480003,2.124 c -1.022,1.413 -3.901,3.855 -4.631,3.322 -0.729,-0.53 0.695,-4.033 1.719,-5.445 1.023,-1.41399998 2.238,-1.71899998 3.043,-1.131 0.803,0.586 0.89,1.841 -0.131,3.254 z m -12.506,28.9859997 c -0.001,-1.746 0.898,-5.421 1.801,-5.421 0.897,0 1.798,3.675 1.797,5.42 0,1.747 -0.804,2.712 -1.8,2.71 -0.994,0.002 -1.798,-0.962 -1.798,-2.709 z m 16.179,-9.262 c -1.655,-0.539 -4.858,-2.533 -4.579,-3.395 0.277,-0.858 4.037,-0.581 5.69,-0.041 1.655,0.54 2.321,1.605 2.013,2.556 -0.308,0.95 -1.469,1.42 -3.124,0.88 z m -30.7210003,-3.435 c 1.655,-0.54 5.414,-0.817 5.694,0.044 0.276,0.857 -2.928,2.854 -4.581,3.392 -1.654,0.54 -2.81800001,0.07 -3.12300001,-0.88 -0.308,-0.95 0.354,-2.015 2.01000001,-2.556 z"
     id="path6"
     inkscape:connector-curvature="0"
     style="fill:#ffd983" />
</svg>
