<?xml version="1.0" encoding="UTF-8" standalone="no"?>
<svg
   xmlns:dc="http://purl.org/dc/elements/1.1/"
   xmlns:cc="http://creativecommons.org/ns#"
   xmlns:rdf="http://www.w3.org/1999/02/22-rdf-syntax-ns#"
   xmlns:svg="http://www.w3.org/2000/svg"
   xmlns="http://www.w3.org/2000/svg"
   xmlns:sodipodi="http://sodipodi.sourceforge.net/DTD/sodipodi-0.dtd"
   xmlns:inkscape="http://www.inkscape.org/namespaces/inkscape"
   viewBox="0 0 35.223988 35.223606"
   id="svg2"
   version="1.1"
   inkscape:version="0.91 r13725"
   sodipodi:docname="1f319.svg"
   width="35.223988"
   height="35.223606">
  <metadata
     id="metadata12">
    <rdf:RDF>
      <cc:Work
         rdf:about="">
        <dc:format>image/svg+xml</dc:format>
        <dc:type
           rdf:resource="http://purl.org/dc/dcmitype/StillImage" />
      </cc:Work>
    </rdf:RDF>
  </metadata>
  <defs
     id="defs10" />
  <sodipodi:namedview
     pagecolor="#ffffff"
     bordercolor="#666666"
     borderopacity="1"
     objecttolerance="10"
     gridtolerance="10"
     guidetolerance="10"
     inkscape:pageopacity="0"
     inkscape:pageshadow="2"
     inkscape:window-width="640"
     inkscape:window-height="480"
     id="namedview8"
     showgrid="false"
     inkscape:zoom="6.5555556"
     inkscape:cx="17.224"
     inkscape:cy="17.999605"
     inkscape:window-x="0"
     inkscape:window-y="0"
     inkscape:window-maximized="0"
     inkscape:current-layer="svg2" />
  <path
     d="M 29.536,0 C 31.224,18.224 19.224,31.224 0,29.536 8.199,37.253 21.091,37.124 29.107,29.107 37.124,21.091 37.254,8.199 29.536,0 Z"
     id="path4"
     inkscape:connector-curvature="0"
     style="fill:#ffd983" />
  <path
     d="m 29.929,15.139 c -0.453,0.454 -0.453,1.189 0,1.644 0.454,0.453 1.189,0.453 1.643,0 0.454,-0.455 0.455,-1.19 0,-1.644 -0.453,-0.454 -1.189,-0.454 -1.643,0 z m -16.022,14.38 c -0.682,0.681 -0.682,1.783 0,2.465 0.68,0.682 1.784,0.682 2.464,0 0.681,-0.682 0.681,-1.784 0,-2.465 -0.68,-0.682 -1.784,-0.682 -2.464,0 z m 13.968,-2.147 c -1.135,1.135 -2.974,1.135 -4.108,0 -1.135,-1.135 -1.135,-2.975 0,-4.107 1.135,-1.136 2.974,-1.136 4.108,0 1.135,1.133 1.135,2.973 0,4.107 z"
     id="path6"
     inkscape:connector-curvature="0"
     style="fill:#ffcc4d" />
</svg>
