<?xml version="1.0" encoding="UTF-8" standalone="no"?>
<svg
   xmlns:dc="http://purl.org/dc/elements/1.1/"
   xmlns:cc="http://creativecommons.org/ns#"
   xmlns:rdf="http://www.w3.org/1999/02/22-rdf-syntax-ns#"
   xmlns:svg="http://www.w3.org/2000/svg"
   xmlns="http://www.w3.org/2000/svg"
   xmlns:sodipodi="http://sodipodi.sourceforge.net/DTD/sodipodi-0.dtd"
   xmlns:inkscape="http://www.inkscape.org/namespaces/inkscape"
   viewBox="0 0 36 36"
   id="svg2"
   version="1.1"
   inkscape:version="0.91 r13725"
   sodipodi:docname="1f310.svg"
   width="36"
   height="36">
  <metadata
     id="metadata10">
    <rdf:RDF>
      <cc:Work
         rdf:about="">
        <dc:format>image/svg+xml</dc:format>
        <dc:type
           rdf:resource="http://purl.org/dc/dcmitype/StillImage" />
      </cc:Work>
    </rdf:RDF>
  </metadata>
  <defs
     id="defs8" />
  <sodipodi:namedview
     pagecolor="#ffffff"
     bordercolor="#666666"
     borderopacity="1"
     objecttolerance="10"
     gridtolerance="10"
     guidetolerance="10"
     inkscape:pageopacity="0"
     inkscape:pageshadow="2"
     inkscape:window-width="640"
     inkscape:window-height="480"
     id="namedview6"
     showgrid="false"
     inkscape:zoom="6.5555556"
     inkscape:cx="18"
     inkscape:cy="18"
     inkscape:window-x="0"
     inkscape:window-y="0"
     inkscape:window-maximized="0"
     inkscape:current-layer="svg2" />
  <path
     d="M 18,0 C 8.059,0 0,8.059 0,18 0,27.941 8.059,36 18,36 27.941,36 36,27.941 36,18 36,8.059 27.941,0 18,0 Z M 2.05,19 6.033,19 c 0.092,2.506 0.522,4.871 1.229,7 L 4.158,26 C 2.951,23.917 2.208,21.541 2.05,19 Z M 19,8 19,2.081 C 21.747,2.517 24.162,4.736 25.799,8 L 19,8 Z m 7.651,2 c 0.754,2.083 1.219,4.46 1.317,7 L 19,17 l 0,-7 7.651,0 z M 17,2.081 17,8 10.201,8 C 11.837,4.736 14.253,2.517 17,2.081 Z M 17,10 17,17 8.032,17 C 8.13,14.46 8.595,12.083 9.349,10 L 17,10 Z M 6.034,17 2.05,17 c 0.158,-2.54 0.901,-4.917 2.107,-7 l 3.104,0 c -0.705,2.129 -1.135,4.495 -1.227,7 z m 1.998,2 8.968,0 0,7 -7.651,0 C 8.595,23.917 8.13,21.541 8.032,19 Z M 17,28 17,33.919 C 14.253,33.482 11.837,31.264 10.201,28 L 17,28 Z m 2,5.919 0,-5.919 6.8,0 c -1.637,3.264 -4.053,5.482 -6.8,5.919 z M 19,26 l 0,-7 8.969,0 c -0.099,2.541 -0.563,4.917 -1.317,7 L 19,26 Z m 10.967,-7 3.982,0 c -0.157,2.541 -0.9,4.917 -2.107,7 l -3.104,0 c 0.706,-2.129 1.136,-4.494 1.229,-7 z m 0,-2 c -0.093,-2.505 -0.523,-4.871 -1.229,-7 l 3.104,0 c 1.207,2.083 1.95,4.46 2.107,7 l -3.982,0 z M 30.479,8 27.976,8 C 27.259,6.396 26.37,4.985 25.357,3.801 27.346,4.833 29.089,6.267 30.479,8 Z M 10.643,3.801 C 9.629,4.985 8.74,6.396 8.023,8 L 5.521,8 C 6.911,6.267 8.654,4.834 10.643,3.801 Z M 5.521,28 8.024,28 c 0.716,1.604 1.605,3.015 2.619,4.198 C 8.654,31.166 6.911,29.733 5.521,28 Z m 19.836,4.198 C 26.371,31.014 27.259,29.604 27.976,28 l 2.503,0 c -1.39,1.733 -3.133,3.166 -5.122,4.198 z"
     id="path4"
     inkscape:connector-curvature="0"
     style="fill:#3b88c3" />
</svg>
