<?xml version="1.0" encoding="UTF-8" standalone="no"?>
<svg
   xmlns:dc="http://purl.org/dc/elements/1.1/"
   xmlns:cc="http://creativecommons.org/ns#"
   xmlns:rdf="http://www.w3.org/1999/02/22-rdf-syntax-ns#"
   xmlns:svg="http://www.w3.org/2000/svg"
   xmlns="http://www.w3.org/2000/svg"
   xmlns:sodipodi="http://sodipodi.sourceforge.net/DTD/sodipodi-0.dtd"
   xmlns:inkscape="http://www.inkscape.org/namespaces/inkscape"
   viewBox="0 0 36 28"
   id="svg2"
   version="1.1"
   inkscape:version="0.91 r13725"
   sodipodi:docname="1f325.svg"
   width="36"
   height="28">
  <metadata
     id="metadata14">
    <rdf:RDF>
      <cc:Work
         rdf:about="">
        <dc:format>image/svg+xml</dc:format>
        <dc:type
           rdf:resource="http://purl.org/dc/dcmitype/StillImage" />
      </cc:Work>
    </rdf:RDF>
  </metadata>
  <defs
     id="defs12" />
  <sodipodi:namedview
     pagecolor="#ffffff"
     bordercolor="#666666"
     borderopacity="1"
     objecttolerance="10"
     gridtolerance="10"
     guidetolerance="10"
     inkscape:pageopacity="0"
     inkscape:pageshadow="2"
     inkscape:window-width="640"
     inkscape:window-height="480"
     id="namedview10"
     showgrid="false"
     inkscape:zoom="6.5555556"
     inkscape:cx="18"
     inkscape:cy="14"
     inkscape:window-x="0"
     inkscape:window-y="0"
     inkscape:window-maximized="0"
     inkscape:current-layer="svg2" />
  <path
     d="m 13,2 c 0,0 0,-2 2,-2 2,0 2,2 2,2 l 0,2 C 17,4 17,6 15,6 13,6 13,4 13,4 L 13,2 Z M 4,13 c 0,0 2,0 2,2 0,2 -2,2 -2,2 l -2,0 c 0,0 -2,0 -2,-2 0,-2 2,-2 2,-2 l 2,0 z M 7.872,6.043 c 0,0 1.414,1.414 0,2.828 -1.414,1.414 -2.828,0 -2.828,0 L 3.629,7.457 c 0,0 -1.414,-1.414 0,-2.829 1.415,-1.414 2.829,0 2.829,0 l 1.414,1.415 z m 17.085,2.828 c 0,0 -1.414,1.414 -2.828,0 -1.414,-1.414 0,-2.828 0,-2.828 l 1.414,-1.414 c 0,0 1.414,-1.414 2.828,0 1.414,1.414 0,2.828 0,2.828 l -1.414,1.414 z"
     id="path4"
     inkscape:connector-curvature="0"
     style="fill:#ffac33" />
  <circle
     cx="15"
     cy="15"
     r="8"
     id="circle6"
     style="fill:#ffac33" />
  <path
     d="m 28.223,12.8 c -0.803,0 -1.575,0.119 -2.304,0.34 C 25.057,10.731 22.718,9 19.958,9 16.999,9 14.521,10.991 13.835,13.675 13.102,13.133 12.199,12.8 11.209,12.8 c -2.417,0 -4.375,1.914 -4.375,4.275 0,0.573 0.12,1.118 0.329,1.618 C 6.746,18.58 6.315,18.5 5.861,18.5 3.176,18.5 1,20.626 1,23.25 1,25.874 3.176,28 5.861,28 l 22.361,0 C 32.518,28 36,24.598 36,20.4 36,16.202 32.518,12.8 28.223,12.8 Z"
     id="path8"
     inkscape:connector-curvature="0"
     style="fill:#e1e8ed" />
</svg>
