<?xml version="1.0" encoding="UTF-8" standalone="no"?>
<svg
   xmlns:dc="http://purl.org/dc/elements/1.1/"
   xmlns:cc="http://creativecommons.org/ns#"
   xmlns:rdf="http://www.w3.org/1999/02/22-rdf-syntax-ns#"
   xmlns:svg="http://www.w3.org/2000/svg"
   xmlns="http://www.w3.org/2000/svg"
   xmlns:sodipodi="http://sodipodi.sourceforge.net/DTD/sodipodi-0.dtd"
   xmlns:inkscape="http://www.inkscape.org/namespaces/inkscape"
   viewBox="0 0 36 36"
   id="svg2"
   version="1.1"
   inkscape:version="0.91 r13725"
   sodipodi:docname="1f324.svg"
   width="36"
   height="36">
  <metadata
     id="metadata14">
    <rdf:RDF>
      <cc:Work
         rdf:about="">
        <dc:format>image/svg+xml</dc:format>
        <dc:type
           rdf:resource="http://purl.org/dc/dcmitype/StillImage" />
      </cc:Work>
    </rdf:RDF>
  </metadata>
  <defs
     id="defs12" />
  <sodipodi:namedview
     pagecolor="#ffffff"
     bordercolor="#666666"
     borderopacity="1"
     objecttolerance="10"
     gridtolerance="10"
     guidetolerance="10"
     inkscape:pageopacity="0"
     inkscape:pageshadow="2"
     inkscape:window-width="640"
     inkscape:window-height="480"
     id="namedview10"
     showgrid="false"
     inkscape:zoom="6.5555556"
     inkscape:cx="18"
     inkscape:cy="18"
     inkscape:window-x="0"
     inkscape:window-y="0"
     inkscape:window-maximized="0"
     inkscape:current-layer="svg2" />
  <path
     d="m 16,2 c 0,0 0,-2 2,-2 2,0 2,2 2,2 l 0,2 c 0,0 0,2 -2,2 -2,0 -2,-2 -2,-2 l 0,-2 z m 18,14 c 0,0 2,0 2,2 0,2 -2,2 -2,2 l -2,0 c 0,0 -2,0 -2,-2 0,-2 2,-2 2,-2 l 2,0 z M 4,16 c 0,0 2,0 2,2 0,2 -2,2 -2,2 l -2,0 c 0,0 -2,0 -2,-2 0,-2 2,-2 2,-2 l 2,0 z M 9.121,7.293 c 0,0 1.414,1.414 0,2.828 -1.414,1.414 -2.828,0 -2.828,0 L 4.878,8.708 c 0,0 -1.414,-1.414 0,-2.829 1.415,-1.414 2.829,0 2.829,0 l 1.414,1.414 z m 20.587,2.828 c 0,0 -1.414,1.414 -2.828,0 -1.414,-1.414 0,-2.828 0,-2.828 l 1.414,-1.414 c 0,0 1.414,-1.414 2.828,0 1.414,1.414 0,2.828 0,2.828 l -1.414,1.414 z m -21,21 c 0,0 -1.414,1.414 -2.828,0 -1.414,-1.414 0,-2.828 0,-2.828 l 1.414,-1.414 c 0,0 1.414,-1.414 2.828,0 1.414,1.414 0,2.828 0,2.828 l -1.414,1.414 z"
     id="path4"
     inkscape:connector-curvature="0"
     style="fill:#ffac33" />
  <circle
     cx="18"
     cy="18"
     r="10"
     id="circle6"
     style="fill:#ffac33" />
  <path
     d="m 29.777,23.2 c -0.642,0 -1.26,0.1 -1.843,0.285 C 27.246,21.457 25.374,20 23.167,20 c -2.368,0 -4.35,1.678 -4.899,3.937 -0.586,-0.456 -1.309,-0.736 -2.101,-0.736 -1.933,0 -3.5,1.611 -3.5,3.6 0,0.483 0.096,0.941 0.264,1.363 C 12.597,28.067 12.252,28 11.889,28 9.741,28 8,29.791 8,32 c 0,2.209 1.741,4 3.889,4 l 17.889,0 C 33.214,36 36,33.136 36,29.6 36,26.065 33.214,23.2 29.777,23.2 Z"
     id="path8"
     inkscape:connector-curvature="0"
     style="fill:#e1e8ed" />
</svg>
