<?xml version="1.0" encoding="UTF-8" standalone="no"?>
<svg
   xmlns:dc="http://purl.org/dc/elements/1.1/"
   xmlns:cc="http://creativecommons.org/ns#"
   xmlns:rdf="http://www.w3.org/1999/02/22-rdf-syntax-ns#"
   xmlns:svg="http://www.w3.org/2000/svg"
   xmlns="http://www.w3.org/2000/svg"
   xmlns:sodipodi="http://sodipodi.sourceforge.net/DTD/sodipodi-0.dtd"
   xmlns:inkscape="http://www.inkscape.org/namespaces/inkscape"
   viewBox="0 0 36 36"
   id="svg2"
   version="1.1"
   inkscape:version="0.91 r13725"
   sodipodi:docname="1f320.svg"
   width="36"
   height="36">
  <metadata
     id="metadata16">
    <rdf:RDF>
      <cc:Work
         rdf:about="">
        <dc:format>image/svg+xml</dc:format>
        <dc:type
           rdf:resource="http://purl.org/dc/dcmitype/StillImage" />
      </cc:Work>
    </rdf:RDF>
  </metadata>
  <defs
     id="defs14" />
  <sodipodi:namedview
     pagecolor="#ffffff"
     bordercolor="#666666"
     borderopacity="1"
     objecttolerance="10"
     gridtolerance="10"
     guidetolerance="10"
     inkscape:pageopacity="0"
     inkscape:pageshadow="2"
     inkscape:window-width="640"
     inkscape:window-height="480"
     id="namedview12"
     showgrid="false"
     inkscape:zoom="6.5555556"
     inkscape:cx="18"
     inkscape:cy="18"
     inkscape:window-x="0"
     inkscape:window-y="0"
     inkscape:window-maximized="0"
     inkscape:current-layer="svg2" />
  <path
     d="m 36,32 c 0,2.209 -1.791,4 -4,4 L 4,36 C 1.791,36 0,34.209 0,32 L 0,4 C 0,1.791 1.791,0 4,0 l 28,0 c 2.209,0 4,1.791 4,4 l 0,28 z"
     id="path4"
     inkscape:connector-curvature="0"
     style="fill:#226699" />
  <path
     d="M 11,9 C 11,9 18.29,4.443 32,4.031 32.652,4.011 34,4 34,5 28,14 25,28 25,28 L 11,9 Z"
     id="path6"
     inkscape:connector-curvature="0"
     style="fill:#f4900c" />
  <path
     d="M 12,16 C 12,16 24,5 32,4.031 32.647,3.952 34,4 34,5 27,9 22,24 22,24 L 12,16 Z"
     id="path8"
     inkscape:connector-curvature="0"
     style="fill:#ffac33" />
  <path
     d="m 15.156,12.438 c 0.826,0.727 2.388,1.164 3.471,0.972 l 4.892,-0.866 c 1.084,-0.192 1.613,0.478 1.178,1.488 l -1.968,4.563 c -0.436,1.01 -0.369,2.63 0.148,3.602 l 2.335,4.384 c 0.518,0.972 0.044,1.682 -1.051,1.58 l -4.947,-0.463 c -1.095,-0.102 -2.616,0.462 -3.379,1.254 l -3.45,3.577 C 11.622,33.321 10.8,33.091 10.558,32.017 L 9.469,27.17 C 9.228,26.097 8.221,24.825 7.232,24.343 L 2.765,22.168 C 1.776,21.687 1.741,20.833 2.687,20.272 L 6.961,17.738 C 7.907,17.177 8.806,15.827 8.958,14.737 L 9.647,9.817 C 9.799,8.727 10.6,8.43 11.426,9.157 l 3.73,3.281 z"
     id="path10"
     inkscape:connector-curvature="0"
     style="fill:#ffd983" />
</svg>
