<?xml version="1.0" encoding="UTF-8" standalone="no"?>
<svg
   xmlns:dc="http://purl.org/dc/elements/1.1/"
   xmlns:cc="http://creativecommons.org/ns#"
   xmlns:rdf="http://www.w3.org/1999/02/22-rdf-syntax-ns#"
   xmlns:svg="http://www.w3.org/2000/svg"
   xmlns="http://www.w3.org/2000/svg"
   xmlns:sodipodi="http://sodipodi.sourceforge.net/DTD/sodipodi-0.dtd"
   xmlns:inkscape="http://www.inkscape.org/namespaces/inkscape"
   viewBox="0 0 30.064661 36"
   id="svg2"
   version="1.1"
   inkscape:version="0.91 r13725"
   sodipodi:docname="1f32a.svg"
   width="30.064661"
   height="36">
  <metadata
     id="metadata20">
    <rdf:RDF>
      <cc:Work
         rdf:about="">
        <dc:format>image/svg+xml</dc:format>
        <dc:type
           rdf:resource="http://purl.org/dc/dcmitype/StillImage" />
      </cc:Work>
    </rdf:RDF>
  </metadata>
  <defs
     id="defs18" />
  <sodipodi:namedview
     pagecolor="#ffffff"
     bordercolor="#666666"
     borderopacity="1"
     objecttolerance="10"
     gridtolerance="10"
     guidetolerance="10"
     inkscape:pageopacity="0"
     inkscape:pageshadow="2"
     inkscape:window-width="640"
     inkscape:window-height="480"
     id="namedview16"
     showgrid="false"
     inkscape:zoom="6.5555556"
     inkscape:cx="16.833"
     inkscape:cy="18"
     inkscape:window-x="0"
     inkscape:window-y="0"
     inkscape:window-maximized="0"
     inkscape:current-layer="svg2" />
  <path
     d="m 10.958,32.667 c 0,0 3.583,-5.792 2.667,-11.084 C 12.914,17.477 10.238,16.646 7.583,13 4.458,8.708 4.139,5.539 5.083,4 6.208,2.167 10.416,0 19.833,0 25.875,0 28.627,1.622 29.541,3.417 30.666,5.625 30,13 27.333,18.083 22.943,26.45 18.083,32.042 13.583,34 10.03,35.546 10.958,32.667 10.958,32.667 Z"
     id="path4"
     inkscape:connector-curvature="0"
     style="fill:#8899a6" />
  <g
     id="g6"
     style="fill:#66757f"
     transform="translate(-1.167,0)">
    <path
       d="M 17.137,7.999 C 22.022,7.736 25.869,6.422 26.709,4.73 26.997,4.149 26.96,3.517 26.606,2.996 25.666,1.608 22.375,1.313 16.833,1.938 15.152,2.127 12.979,2.451 13.042,3 c 0.063,0.549 2.417,0.312 3.976,0.202 0.693,-0.049 1.336,-0.083 1.939,-0.104 3.787,-0.135 5.773,0.256 5.836,0.904 0.07,0.719 -3.192,1.753 -7.762,2 C 8.073,6.487 6.435,4.991 6.146,4.521 6.108,4.459 6.087,4.399 6.076,4.341 5.804,4.966 5.708,5.793 5.851,6.798 c 1.578,0.862 4.19,1.298 7.931,1.298 1.034,0 2.152,-0.033 3.355,-0.097 z m 4.988,6.689 c 0.531,-0.15 2.41,-0.897 2.297,-1.438 -0.141,-0.672 -2.664,0.037 -3.203,0.141 C 12.405,15.086 8.915,12.715 7.849,11.666 8.12,12.098 8.416,12.541 8.75,13 c 0.662,0.91 1.326,1.644 1.961,2.298 1.229,0.321 2.733,0.534 4.566,0.534 1.928,0 3.973,-0.332 6.848,-1.144 z"
       id="path8"
       inkscape:connector-curvature="0" />
    <path
       d="m 30.375,5.228 c -0.954,1.504 -3.5,3.944 -14.297,4.975 -0.608,0.058 -2.734,0.156 -2.688,0.766 0.072,0.94 2.777,0.673 2.797,0.672 C 23.936,11.176 28.775,9.896 31.215,7.373 31.265,5.907 31.153,4.663 30.878,3.841 30.834,4.242 30.697,4.72 30.375,5.228 Z M 14.792,21.583 c 0.047,0.271 0.075,0.545 0.099,0.818 0.966,0.337 2.237,0.567 3.939,0.567 0.799,0 1.692,-0.053 2.687,-0.161 0.811,-0.088 2.013,-0.555 1.951,-1.103 -0.062,-0.549 -1.597,-0.352 -2.156,-0.344 -4.707,0.066 -6.424,-0.947 -7.044,-1.602 0.223,0.536 0.404,1.131 0.524,1.825 z m 5.849,-4.505 c -0.55,0.048 -2.172,0.141 -2.219,0.734 -0.07,0.889 2.252,0.782 2.266,0.781 4.058,-0.165 6.849,-1.289 8.708,-2.482 0.446,-1.133 0.805,-2.323 1.087,-3.508 -0.831,1.169 -3.415,3.912 -9.842,4.475 z m -1.766,12.078 c -0.031,-0.391 -0.5,-0.453 -1.703,-0.547 -1.203,-0.094 -1.715,-0.606 -2.154,-1.079 -0.256,-0.275 -0.393,-0.608 -0.468,-0.91 -0.198,0.864 -0.452,1.681 -0.723,2.42 0.791,0.67 1.83,0.985 3.236,1.053 0.529,0.026 1.877,-0.126 1.812,-0.937 z m 7.056,-6.577 c -0.984,0.907 -3.054,2.199 -7.04,2.484 -0.543,0.039 -1.829,0.089 -1.859,0.641 -0.03,0.552 1.175,0.891 1.727,0.92 0.336,0.019 0.661,0.027 0.977,0.027 1.479,0 2.719,-0.201 3.77,-0.504 0.814,-1.096 1.624,-2.286 2.425,-3.568 z"
       id="path10"
       inkscape:connector-curvature="0" />
  </g>
  <path
     d="m 11,1.917 c 6.245,-1.849 14.208,-1.5 17.542,0.292 0.026,0.014 0.046,0.019 0.071,0.032 C 27.204,0.971 24.505,0 19.833,0 10.416,0 6.208,2.167 5.083,4 5.018,4.105 4.961,4.22 4.909,4.341 4.921,4.399 4.942,4.46 4.98,4.522 c 0.288,0.47 1.927,1.965 10.883,1.48 4.57,-0.247 7.833,-1.281 7.762,-2 C 23.562,3.354 21.576,2.963 17.789,3.098 22.281,3.09 22.203,4.24 19.792,4.584 9.239,6.091 5.791,3.458 11,1.917 Z"
     id="path12"
     inkscape:connector-curvature="0"
     style="fill:#788895" />
  <path
     d="m 27.475,36 c 0.01,-0.083 0.025,-0.164 0.025,-0.25 0,-0.979 -0.652,-1.795 -1.542,-2.064 -0.211,-1.952 -1.846,-3.478 -3.854,-3.478 -1.406,0 -2.627,0.751 -3.312,1.867 -0.448,-0.281 -0.975,-0.45 -1.543,-0.45 -1.103,0 -2.051,0.619 -2.546,1.521 -0.523,-0.55 -1.258,-0.896 -2.078,-0.896 -0.288,0 -0.56,0.055 -0.822,0.134 -0.34,-0.253 -0.736,-0.43 -1.171,-0.504 -0.593,-1.536 -2.075,-2.63 -3.82,-2.63 -1.985,0 -3.64,1.409 -4.021,3.281 C 2.687,32.519 2.585,32.5 2.479,32.5 1.11,32.5 0,33.61 0,34.979 0,35.344 0.084,35.688 0.226,36 l 27.249,0 z"
     id="path14"
     inkscape:connector-curvature="0"
     style="fill:#ccd6dd" />
</svg>
