<?xml version="1.0" encoding="UTF-8" standalone="no"?>
<svg
   xmlns:dc="http://purl.org/dc/elements/1.1/"
   xmlns:cc="http://creativecommons.org/ns#"
   xmlns:rdf="http://www.w3.org/1999/02/22-rdf-syntax-ns#"
   xmlns:svg="http://www.w3.org/2000/svg"
   xmlns="http://www.w3.org/2000/svg"
   xmlns:sodipodi="http://sodipodi.sourceforge.net/DTD/sodipodi-0.dtd"
   xmlns:inkscape="http://www.inkscape.org/namespaces/inkscape"
   viewBox="0 0 33.802738 36"
   id="svg2"
   version="1.1"
   inkscape:version="0.91 r13725"
   sodipodi:docname="1f337.svg"
   width="33.802738"
   height="36">
  <metadata
     id="metadata14">
    <rdf:RDF>
      <cc:Work
         rdf:about="">
        <dc:format>image/svg+xml</dc:format>
        <dc:type
           rdf:resource="http://purl.org/dc/dcmitype/StillImage" />
      </cc:Work>
    </rdf:RDF>
  </metadata>
  <defs
     id="defs12" />
  <sodipodi:namedview
     pagecolor="#ffffff"
     bordercolor="#666666"
     borderopacity="1"
     objecttolerance="10"
     gridtolerance="10"
     guidetolerance="10"
     inkscape:pageopacity="0"
     inkscape:pageshadow="2"
     inkscape:window-width="640"
     inkscape:window-height="480"
     id="namedview10"
     showgrid="false"
     inkscape:zoom="6.5555556"
     inkscape:cx="16.999879"
     inkscape:cy="18"
     inkscape:window-x="0"
     inkscape:window-y="0"
     inkscape:window-maximized="0"
     inkscape:current-layer="svg2" />
  <path
     d="m 33.750879,22 c -3.382,0 -11.9,3.549 -15.751,7.158 l 0,-12.158 c 0,-0.553 -0.447,-1 -1,-1 -0.552,0 -1,0.447 -1,1 l 0,12.341 C 12.246879,25.669 3.4908788,22 0.05187878,22 c -0.929,0 10.86100022,13.992 15.94800022,12.599 l 0,0.401 c 0,0.553 0.448,1 1,1 0.553,0 1,-0.447 1,-1 l 0,-0.356 c 5.188,0.994 16.668,-12.644 15.751,-12.644 z"
     id="path4"
     inkscape:connector-curvature="0"
     style="fill:#77b255" />
  <path
     d="m 23.999879,13.417 c 0,6.351 -1.707,9.583 -7,9.583 -5.293,0 -7.0000002,-3.232 -7.0000002,-9.583 C 9.9998788,7.066 14.999879,0 16.999879,0 c 2,0 7,7.066 7,13.417 z"
     id="path6"
     inkscape:connector-curvature="0"
     style="fill:#ea596e" />
  <path
     d="m 21.794879,2 c -0.48,0 -4.106,14.271 -4.803,19.279 -0.746,-5.008 -4.511,-19.279 -4.992,-19.279 -1,0 -6.0000002,9 -6.0000002,13 0,4 5.7070002,8 11.0000002,8 5.293,0 10.795,-4 10.795,-8 0,-4 -5,-13 -6,-13 z"
     id="path8"
     inkscape:connector-curvature="0"
     style="fill:#f4abba" />
</svg>
