<?xml version="1.0" encoding="UTF-8" standalone="no"?>
<svg
   xmlns:dc="http://purl.org/dc/elements/1.1/"
   xmlns:cc="http://creativecommons.org/ns#"
   xmlns:rdf="http://www.w3.org/1999/02/22-rdf-syntax-ns#"
   xmlns:svg="http://www.w3.org/2000/svg"
   xmlns="http://www.w3.org/2000/svg"
   xmlns:sodipodi="http://sodipodi.sourceforge.net/DTD/sodipodi-0.dtd"
   xmlns:inkscape="http://www.inkscape.org/namespaces/inkscape"
   viewBox="0 0 21.824413 36"
   id="svg2"
   version="1.1"
   inkscape:version="0.91 r13725"
   sodipodi:docname="1f339.svg"
   width="21.824413"
   height="36">
  <metadata
     id="metadata14">
    <rdf:RDF>
      <cc:Work
         rdf:about="">
        <dc:format>image/svg+xml</dc:format>
        <dc:type
           rdf:resource="http://purl.org/dc/dcmitype/StillImage" />
      </cc:Work>
    </rdf:RDF>
  </metadata>
  <defs
     id="defs12" />
  <sodipodi:namedview
     pagecolor="#ffffff"
     bordercolor="#666666"
     borderopacity="1"
     objecttolerance="10"
     gridtolerance="10"
     guidetolerance="10"
     inkscape:pageopacity="0"
     inkscape:pageshadow="2"
     inkscape:window-width="640"
     inkscape:window-height="480"
     id="namedview10"
     showgrid="false"
     inkscape:zoom="6.5555556"
     inkscape:cx="10.912488"
     inkscape:cy="18"
     inkscape:window-x="0"
     inkscape:window-y="0"
     inkscape:window-maximized="0"
     inkscape:current-layer="svg2" />
  <path
     d="m 12.232488,25.358 c -0.113,0 -0.217,0.003 -0.32,0.005 l 0,-0.415 c 4.805,-0.479 8.548,-4.264 8.548,-7.301 0,-3.249 0,1.47 -9.562,1.47 -9.5579996,0 -9.5579996,-4.719 -9.5579996,-1.47 0,3.043 3.757,6.838 8.572,7.305 l 0,0.411 c -0.104,-0.002 -0.207,-0.005 -0.321,-0.005 -2.553,0 -6.603,-2.05 -6.603,-1.32 0,0.646 4.187,4.017 6.924,4.796 l 0,6.166 c 0,0.553 0.4469996,1 0.9999996,1 0.553,0 1,-0.447 1,-1 l 0,-6.166 c 2.738,-0.779 6.924,-4.15 6.924,-4.796 0,-0.729 -4.05,1.32 -6.604,1.32 z"
     id="path4"
     inkscape:connector-curvature="0"
     style="fill:#3e721d" />
  <path
     d="m 19.439488,7.353 c -3.887,-4.412 1.506,-5.882 -2.592,-5.882 -0.713,0 -1.921,0.44 -3.29,1.189 -0.694,-1.572 -1.622,-2.66 -2.645,-2.66 -2.0499996,0 -3.7259996,4.342 -3.8729996,8.269 -1.108,1.543 -1.855,3.235 -1.855,4.966 0,6.092 2.591,8.823 6.4789996,8.823 7.776,0.001 13.644,-8.047 7.776,-14.705 z"
     id="path6"
     inkscape:connector-curvature="0"
     style="fill:#a0041e" />
  <path
     d="m 16.640488,13.235 c 0,6.092 -2.59,8.823 -6.48,8.823 -7.7759996,0 -13.6429996,-8.048 -7.7759996,-14.706 3.889,-4.412 -1.50499997,-5.882 2.592,-5.882 2.593,0.001 11.6639996,5.674 11.6639996,11.765 z"
     id="path8"
     inkscape:connector-curvature="0"
     style="fill:#be1931" />
</svg>
