<?xml version="1.0" encoding="UTF-8" standalone="no"?>
<svg
   xmlns:dc="http://purl.org/dc/elements/1.1/"
   xmlns:cc="http://creativecommons.org/ns#"
   xmlns:rdf="http://www.w3.org/1999/02/22-rdf-syntax-ns#"
   xmlns:svg="http://www.w3.org/2000/svg"
   xmlns="http://www.w3.org/2000/svg"
   xmlns:sodipodi="http://sodipodi.sourceforge.net/DTD/sodipodi-0.dtd"
   xmlns:inkscape="http://www.inkscape.org/namespaces/inkscape"
   viewBox="0 0 32 36"
   id="svg2"
   version="1.1"
   inkscape:version="0.91 r13725"
   sodipodi:docname="1f333.svg"
   width="32"
   height="36">
  <metadata
     id="metadata42">
    <rdf:RDF>
      <cc:Work
         rdf:about="">
        <dc:format>image/svg+xml</dc:format>
        <dc:type
           rdf:resource="http://purl.org/dc/dcmitype/StillImage" />
      </cc:Work>
    </rdf:RDF>
  </metadata>
  <defs
     id="defs40" />
  <sodipodi:namedview
     pagecolor="#ffffff"
     bordercolor="#666666"
     borderopacity="1"
     objecttolerance="10"
     gridtolerance="10"
     guidetolerance="10"
     inkscape:pageopacity="0"
     inkscape:pageshadow="2"
     inkscape:window-width="640"
     inkscape:window-height="480"
     id="namedview38"
     showgrid="false"
     inkscape:zoom="6.5555556"
     inkscape:cx="16"
     inkscape:cy="18"
     inkscape:window-x="0"
     inkscape:window-y="0"
     inkscape:window-maximized="0"
     inkscape:current-layer="svg2" />
  <path
     d="m 20,33 c 0,2.209 -1.791,3 -4,3 -2.209,0 -4,-0.791 -4,-3 l 1,-9 c 0,-2.209 0.791,-2 3,-2 2.209,0 3,-0.209 3,2 l 1,9 z"
     id="path4"
     inkscape:connector-curvature="0"
     style="fill:#662113" />
  <path
     d="M 32,17 C 32,25.837 24.837,29 16,29 7.164,29 0,25.837 0,17 0,8.164 9,0 16,0 23,0 32,8.164 32,17 Z"
     id="path6"
     inkscape:connector-curvature="0"
     style="fill:#5c913b" />
  <g
     id="g8"
     style="fill:#3e721d"
     transform="translate(-2,0)">
    <ellipse
       cx="6"
       cy="21"
       rx="2"
       ry="1"
       id="ellipse10" />
    <ellipse
       cx="30"
       cy="21"
       rx="2"
       ry="1"
       id="ellipse12" />
    <ellipse
       cx="10"
       cy="25"
       rx="2"
       ry="1"
       id="ellipse14" />
    <ellipse
       cx="14"
       cy="22"
       rx="2"
       ry="1"
       id="ellipse16" />
    <ellipse
       cx="10"
       cy="16"
       rx="2"
       ry="1"
       id="ellipse18" />
    <ellipse
       cx="7"
       cy="12"
       rx="2"
       ry="1"
       id="ellipse20" />
    <ellipse
       cx="29"
       cy="12"
       rx="2"
       ry="1"
       id="ellipse22" />
    <ellipse
       cx="14"
       cy="10"
       rx="2"
       ry="1"
       id="ellipse24" />
    <ellipse
       cx="22"
       cy="10"
       rx="2"
       ry="1"
       id="ellipse26" />
    <ellipse
       cx="26"
       cy="16"
       rx="2"
       ry="1"
       id="ellipse28" />
    <ellipse
       cx="18"
       cy="17"
       rx="2"
       ry="1"
       id="ellipse30" />
    <ellipse
       cx="22"
       cy="22"
       rx="2"
       ry="1"
       id="ellipse32" />
    <ellipse
       cx="18"
       cy="26"
       rx="2"
       ry="1"
       id="ellipse34" />
    <ellipse
       cx="26"
       cy="25"
       rx="2"
       ry="1"
       id="ellipse36" />
  </g>
</svg>
