<?xml version="1.0" encoding="UTF-8" standalone="no"?>
<svg
   xmlns:dc="http://purl.org/dc/elements/1.1/"
   xmlns:cc="http://creativecommons.org/ns#"
   xmlns:rdf="http://www.w3.org/1999/02/22-rdf-syntax-ns#"
   xmlns:svg="http://www.w3.org/2000/svg"
   xmlns="http://www.w3.org/2000/svg"
   xmlns:sodipodi="http://sodipodi.sourceforge.net/DTD/sodipodi-0.dtd"
   xmlns:inkscape="http://www.inkscape.org/namespaces/inkscape"
   viewBox="0 0 30.920151 35.557091"
   id="svg2"
   version="1.1"
   inkscape:version="0.91 r13725"
   sodipodi:docname="1f334.svg"
   width="30.920151"
   height="35.557091">
  <metadata
     id="metadata16">
    <rdf:RDF>
      <cc:Work
         rdf:about="">
        <dc:format>image/svg+xml</dc:format>
        <dc:type
           rdf:resource="http://purl.org/dc/dcmitype/StillImage" />
      </cc:Work>
    </rdf:RDF>
  </metadata>
  <defs
     id="defs14" />
  <sodipodi:namedview
     pagecolor="#ffffff"
     bordercolor="#666666"
     borderopacity="1"
     objecttolerance="10"
     gridtolerance="10"
     guidetolerance="10"
     inkscape:pageopacity="0"
     inkscape:pageshadow="2"
     inkscape:window-width="640"
     inkscape:window-height="480"
     id="namedview12"
     showgrid="false"
     inkscape:zoom="6.5555556"
     inkscape:cx="15.55899"
     inkscape:cy="17.811691"
     inkscape:window-x="0"
     inkscape:window-y="0"
     inkscape:window-maximized="0"
     inkscape:current-layer="svg2" />
  <path
     d="m 19.53699,20.169398 c -0.054,-0.804 -0.137,-1.582 -0.247,-2.325 -0.133,-0.89 -0.299,-1.728 -0.485,-2.513 -0.171,-0.723 -0.356,-1.397 -0.548,-2.017 -0.288,-0.931 -0.584,-1.738 -0.852,-2.4 -0.527,-1.2990003 -0.943,-2.0430003 -0.943,-2.0430003 l -3.613,0.466 c 0,0 0.417,0.8700003 0.868,2.5750003 0.183,0.692 0.371,1.524 0.54,2.495 0.086,0.49 0.166,1.012 0.238,1.573 0.1,0.781 0.183,1.632 0.242,2.549 0.034,0.518 0.058,1.058 0.074,1.619 0.006,0.204 0.015,0.401 0.018,0.611 0.01,0.656 -0.036,1.323 -0.118,1.989 -0.074,0.6 -0.182,1.197 -0.311,1.789 -0.185,0.848 -0.413,1.681 -0.67,2.475 -0.208,0.643 -0.431,1.261 -0.655,1.84 -0.344,0.891 -0.69,1.692 -0.989,2.359 -0.502,1.119 -0.871,1.863 -0.871,2.018 0,0.49 0.35,1.408 2.797,2.02 3.827,0.956 4.196,-0.621 4.196,-0.621 0,0 0.243,-0.738 0.526,-2.192 0.14,-0.718 0.289,-1.605 0.424,-2.678 0.081,-0.642 0.156,-1.348 0.222,-2.116 0.068,-0.8 0.125,-1.667 0.165,-2.605 0.03,-0.71 0.047,-1.47 0.055,-2.259 0.002,-0.246 0.008,-0.484 0.008,-0.737 0,-0.64 -0.03,-1.261 -0.071,-1.872 z"
     id="path4"
     inkscape:connector-curvature="0"
     style="fill:#c1694f" />
  <path
     d="m 15.86499,29.813398 c -1.403,-0.244 -2.298,-0.653 -2.789,-0.959 -0.344,0.891 -0.69,1.692 -0.989,2.359 0.916,0.499 2.079,0.895 3.341,1.114 0.729,0.127 1.452,0.191 2.131,0.191 0.414,0 0.803,-0.033 1.176,-0.08 0.14,-0.718 0.289,-1.605 0.424,-2.678 -0.444,0.157 -1.548,0.357 -3.294,0.053 z m 1.06,-4.673 c -1.093,-0.108 -1.934,-0.348 -2.525,-0.602 -0.185,0.848 -0.413,1.681 -0.67,2.475 0.864,0.326 1.881,0.561 2.945,0.666 0.429,0.042 0.855,0.064 1.27,0.064 0.502,0 0.978,-0.039 1.435,-0.099 0.068,-0.8 0.125,-1.667 0.165,-2.605 -0.628,0.135 -1.509,0.21 -2.62,0.101 z m 0.309,-2.133 c 0.822,0 1.63,-0.083 2.366,-0.228 0.002,-0.246 0.008,-0.484 0.008,-0.737 0,-0.641 -0.029,-1.262 -0.071,-1.873 -0.529,0.138 -1.285,0.272 -2.352,0.286 -1.084,-0.005 -1.847,-0.155 -2.374,-0.306 0.006,0.204 0.015,0.401 0.018,0.611 0.01,0.656 -0.036,1.323 -0.118,1.989 0.763,0.161 1.605,0.253 2.461,0.257 l 0.062,10e-4 z m -0.249,-4.577 c 0.825,-0.119 1.59,-0.333 2.304,-0.585 -0.133,-0.89 -0.299,-1.728 -0.485,-2.513 -0.496,0.204 -1.199,0.431 -2.181,0.572 -0.91,0.132 -1.605,0.124 -2.129,0.077 0.1,0.781 0.183,1.632 0.242,2.549 0.152,0.006 0.29,0.029 0.446,0.029 0.588,10e-4 1.2,-0.043 1.803,-0.129 z m 1.271,-5.116 c -0.288,-0.931 -0.584,-1.738 -0.852,-2.4 -0.443,0.222 -1.004,0.456 -1.737,0.659 -0.795,0.221 -1.437,0.309 -1.951,0.339 0.183,0.692 0.371,1.524 0.54,2.495 0.681,-0.068 1.383,-0.179 2.094,-0.376 0.679,-0.188 1.31,-0.44 1.906,-0.717 z"
     id="path6"
     inkscape:connector-curvature="0"
     style="fill:#d99e82" />
  <path
     d="m 30.16899,4.0503977 c -0.044,-0.061 -4.48,-5.994 -10.234,-3.39000004 -2.581,1.16700004 -4.247,3.07400004 -4.851,5.53500004 -1.125,-1.568 -2.835,-2.565 -5.0930005,-2.968 -6.199,-1.106 -9.92499995,5.768 -9.96199995,5.838 -0.054,0.102 -0.031,0.229 0.056,0.305 0.087,0.076 0.217,0.081 0.311,0.015 0.028,-0.02 2.84599995,-1.993 7.54299995,-1.157 4.8010005,0.854 8.1670005,1.694 8.2010005,1.702 0.02,0.005 0.041,0.007 0.061,0.007 0.069,0 0.136,-0.028 0.184,-0.08 0.032,-0.035 3.22,-3.46 6.153,-4.787 4.339,-1.961 7.298,-0.659 7.326,-0.646 0.104,0.046 0.227,0.018 0.298,-0.07 0.072,-0.087 0.075,-0.213 0.007,-0.304 z"
     id="path8"
     inkscape:connector-curvature="0"
     style="fill:#3e721d" />
  <path
     d="m 25.44299,7.3753977 c -4.405,-2.328 -7.849,-1.193 -9.995,0.22 -2.575,-0.487 -7.3340005,-0.459 -11.3640005,4.7070003 -4.98299995,6.387 -0.618,14.342 -0.573,14.422 0.067,0.119 0.193,0.191 0.327,0.191 0.015,0 0.031,-0.001 0.046,-0.003 0.151,-0.019 0.276,-0.127 0.316,-0.274 0.015,-0.054 1.527,-5.52 5.35,-10.118 2.0740005,-2.496 4.5500005,-4.806 6.3080005,-6.34 1.762,0.298 4.327,0.947 6.846,2.354 4.958,2.773 7.234,7.466 7.257,7.513 0.068,0.144 0.211,0.226 0.379,0.212 0.158,-0.018 0.289,-0.133 0.325,-0.287 0.02,-0.088 1.968,-8.8 -5.222,-12.5970003 z"
     id="path10"
     inkscape:connector-curvature="0"
     style="fill:#5c913b" />
</svg>
