<?xml version="1.0" encoding="UTF-8" standalone="no"?>
<svg
   xmlns:dc="http://purl.org/dc/elements/1.1/"
   xmlns:cc="http://creativecommons.org/ns#"
   xmlns:rdf="http://www.w3.org/1999/02/22-rdf-syntax-ns#"
   xmlns:svg="http://www.w3.org/2000/svg"
   xmlns="http://www.w3.org/2000/svg"
   xmlns:sodipodi="http://sodipodi.sourceforge.net/DTD/sodipodi-0.dtd"
   xmlns:inkscape="http://www.inkscape.org/namespaces/inkscape"
   viewBox="0 0 29.930882 36"
   id="svg2"
   version="1.1"
   inkscape:version="0.91 r13725"
   sodipodi:docname="1f332.svg"
   width="29.930882"
   height="36">
  <metadata
     id="metadata28">
    <rdf:RDF>
      <cc:Work
         rdf:about="">
        <dc:format>image/svg+xml</dc:format>
        <dc:type
           rdf:resource="http://purl.org/dc/dcmitype/StillImage" />
      </cc:Work>
    </rdf:RDF>
  </metadata>
  <defs
     id="defs26" />
  <sodipodi:namedview
     pagecolor="#ffffff"
     bordercolor="#666666"
     borderopacity="1"
     objecttolerance="10"
     gridtolerance="10"
     guidetolerance="10"
     inkscape:pageopacity="0"
     inkscape:pageshadow="2"
     inkscape:window-width="640"
     inkscape:window-height="480"
     id="namedview24"
     showgrid="false"
     inkscape:zoom="6.5555556"
     inkscape:cx="14.965186"
     inkscape:cy="18"
     inkscape:window-x="0"
     inkscape:window-y="0"
     inkscape:window-maximized="0"
     inkscape:current-layer="svg2" />
  <path
     d="m 18.965186,33 c 0,2.209 -1.791,3 -4,3 -2.209,0 -4,-0.791 -4,-3 l 1,-9 c 0,-2.209 0.791,-2 3,-2 2.209,0 3,-0.209 3,2 l 1,9 z"
     id="path4"
     inkscape:connector-curvature="0"
     style="fill:#662113" />
  <path
     d="m 28.371186,27.297 c -6.963,-5.965 -9.783,-14.506 -13.406,-14.506 -3.623,0 -6.4429999,8.541 -13.4049999,14.506 -2.926,2.507 -1.532,3.957 2.479,3.667 3.576,-0.258 6.9189999,-1.069 10.9259999,-1.069 4.007,0 7.352,0.812 10.926,1.069 4.012,0.29 5.405,-1.16 2.48,-3.667 z"
     id="path6"
     inkscape:connector-curvature="0"
     style="fill:#5c913b" />
  <path
     d="m 26.110186,24.934 c -5.351,-4.907 -8.358,-11.934 -11.145,-11.934 -2.785,0 -5.7929999,7.027 -11.1439999,11.934 -4.252,3.898 5.572,4.773 11.1439999,0 5.569,4.773 15.396,3.898 11.145,0 z"
     id="path8"
     inkscape:connector-curvature="0"
     style="fill:#3e721d" />
  <path
     d="m 26.110186,20.959 c -5.351,-4.584 -8.358,-11.148 -11.145,-11.148 -2.785,0 -5.7929999,6.564 -11.1439999,11.148 -4.252,3.642 5.572,4.459 11.1439999,0 5.569,4.459 15.396,3.642 11.145,0 z"
     id="path10"
     inkscape:connector-curvature="0"
     style="fill:#5c913b" />
  <path
     d="m 23.665186,17.703 c -4.177,-3.578 -6.524,-8.703 -8.7,-8.703 -2.174,0 -4.523,5.125 -8.6999999,8.703 -3.319,2.844 4.3499999,3.482 8.6999999,0 4.349,3.482 12.02,2.844 8.7,0 z"
     id="path12"
     inkscape:connector-curvature="0"
     style="fill:#3e721d" />
  <path
     d="m 23.665186,14.726 c -4.177,-3.579 -6.524,-8.703 -8.7,-8.703 -2.174,0 -4.523,5.125 -8.6999999,8.703 -3.319,2.844 4.3499999,3.481 8.6999999,0 4.349,3.481 12.02,2.843 8.7,0 z"
     id="path14"
     inkscape:connector-curvature="0"
     style="fill:#5c913b" />
  <path
     d="m 21.986186,12.081 c -3.371,-2.888 -5.265,-7.024 -7.021,-7.024 -1.755,0 -3.65,4.136 -7.0209999,7.024 -2.679,2.295 3.5109999,2.809 7.0209999,0 3.51,2.81 9.701,2.295 7.021,0 z"
     id="path16"
     inkscape:connector-curvature="0"
     style="fill:#3e721d" />
  <path
     d="m 21.986186,9.839 c -3.371,-2.888 -5.265,-7.024 -7.021,-7.024 -1.755,0 -3.65,4.136 -7.0209999,7.024 -2.679,2.295 3.5109999,2.809 7.0209999,0 3.51,2.81 9.701,2.295 7.021,0 z"
     id="path18"
     inkscape:connector-curvature="0"
     style="fill:#5c913b" />
  <path
     d="m 20.308186,6.54 c -2.565,-2.198 -4.007,-5.345 -5.343,-5.345 -1.335,0 -2.778,3.148 -5.3429999,5.345 -2.038,1.747 2.6709999,2.138 5.3429999,0 2.671,2.138 7.382,1.746 5.343,0 z"
     id="path20"
     inkscape:connector-curvature="0"
     style="fill:#3e721d" />
  <path
     d="m 20.308186,5.345 c -2.565,-2.197 -4.007,-5.345 -5.343,-5.345 -1.335,0 -2.778,3.148 -5.3429999,5.345 -2.038,1.747 2.6709999,2.138 5.3429999,0 2.671,2.138 7.382,1.746 5.343,0 z"
     id="path22"
     inkscape:connector-curvature="0"
     style="fill:#5c913b" />
</svg>
