<?xml version="1.0" encoding="UTF-8" standalone="no"?>
<svg
   xmlns:dc="http://purl.org/dc/elements/1.1/"
   xmlns:cc="http://creativecommons.org/ns#"
   xmlns:rdf="http://www.w3.org/1999/02/22-rdf-syntax-ns#"
   xmlns:svg="http://www.w3.org/2000/svg"
   xmlns="http://www.w3.org/2000/svg"
   xmlns:sodipodi="http://sodipodi.sourceforge.net/DTD/sodipodi-0.dtd"
   xmlns:inkscape="http://www.inkscape.org/namespaces/inkscape"
   viewBox="0 0 32.130066 34.205254"
   id="svg2"
   version="1.1"
   inkscape:version="0.91 r13725"
   sodipodi:docname="1f34c.svg"
   width="32.130066"
   height="34.205254">
  <metadata
     id="metadata28">
    <rdf:RDF>
      <cc:Work
         rdf:about="">
        <dc:format>image/svg+xml</dc:format>
        <dc:type
           rdf:resource="http://purl.org/dc/dcmitype/StillImage" />
      </cc:Work>
    </rdf:RDF>
  </metadata>
  <defs
     id="defs26" />
  <sodipodi:namedview
     pagecolor="#ffffff"
     bordercolor="#666666"
     borderopacity="1"
     objecttolerance="10"
     gridtolerance="10"
     guidetolerance="10"
     inkscape:pageopacity="0"
     inkscape:pageshadow="2"
     inkscape:window-width="640"
     inkscape:window-height="480"
     id="namedview24"
     showgrid="false"
     inkscape:zoom="6.5555556"
     inkscape:cx="17"
     inkscape:cy="18"
     inkscape:window-x="0"
     inkscape:window-y="0"
     inkscape:window-maximized="0"
     inkscape:current-layer="svg2" />
  <path
     d="m 27,0.20525385 c 2.684,-1.34200005 5,3.99999995 3,13.00000015 -1.106,4.977 -5,9 -9,12 -4,3 -11,-1 -7,-5 4,-4 8,-7 10,-13.0000002 1.304,-3.912 1,-6 3,-6.99999995 z"
     id="path4"
     inkscape:connector-curvature="0"
     style="fill:#ffe8b6" />
  <path
     d="m 30,6.2052538 c 0,3 -1,9.0000002 -4,13.0000002 -3,4 -7,5 -4,1 3,-4 5,-7 6,-11.0000002 1,-4 2,-7 2,-3 z"
     id="path6"
     inkscape:connector-curvature="0"
     style="fill:#ffd983" />
  <path
     d="m 21,18.205254 c -0.296,0.592 1.167,-3.833 -3,-6 -1.984,-1.032 -10,1 -4,1 3,0 4,2 2,4 -0.291,0.292 -0.489,0.603 -0.622,0.912 -0.417,0.346 -0.873,0.709 -1.378,1.088 -2.263,1.697 -5.84,4.227 -10,7 -3,2 -4,3 -4,4 0,3 9,3 14,1 5,-2 10,-7 10,-7 l 4,-4 c -3,-4 -7,-2 -7,-2 z"
     id="path8"
     inkscape:connector-curvature="0"
     style="fill:#ffcc4d" />
  <path
     d="m 21,18.205254 c 0,0 1.792,-4.729 -3,-7 -4.042,-1.9160002 -8,-1 -11,1 -3,2 -2,4 -3,5 -1,1 1,2 3,0 2,-2 8.316,-4.895 11,-4 3,1 2,2.999 3,5 z"
     id="path10"
     inkscape:connector-curvature="0"
     style="fill:#ffe8b6" />
  <path
     d="m 25,33.205254 -4,0 c -2,0 -3,1 -4,1 -1,0 -2,-2 0,-2 2,0 4,0 5,-1 1,-1 5,2 3,2 z"
     id="path12"
     inkscape:connector-curvature="0"
     style="fill:#a6d388" />
  <circle
     cx="17"
     cy="33.205254"
     r="1"
     id="circle14"
     style="fill:#3e721d" />
  <path
     d="m 31.208,26.205254 c 0,0 -4.208,7 -6.208,7 l -4,0 c -2,0 0,-1 1,-2 1,-1 5,0 5,-6 0,-3 4.208,1 4.208,1 z"
     id="path16"
     inkscape:connector-curvature="0"
     style="fill:#ffcc4d" />
  <path
     d="m 25,17.205254 c 3,0 8,3 7,9 -1,6 -5,7 -7,7 l -2,0 c -2,0 -1,-1 0,-2 1,-1 4,0 4,-6 0,-3 -4,-7 -6,-7 0,0 2,-1 4,-1 z"
     id="path18"
     inkscape:connector-curvature="0"
     style="fill:#ffe8b6" />
  <path
     d="m 16,19.205254 c 3,0 5,1 3,3 -1.581,1.581 -6,5 -10,6 -4,1 -8,1 -5,-1 3,-2 9.764,-8 12,-8 z"
     id="path20"
     inkscape:connector-curvature="0"
     style="fill:#ffd983" />
  <path
     d="m 1,29.205254 c 1,0 1,0 1,0.667 0,0.666 0,1.333 -1,1.333 -1,0 -1,-1.333 -1,-1.333 0,0 0,-0.667 1,-0.667 z"
     id="path22"
     inkscape:connector-curvature="0"
     style="fill:#c1694f" />
</svg>
