<?xml version="1.0" encoding="UTF-8" standalone="no"?>
<svg
   xmlns:dc="http://purl.org/dc/elements/1.1/"
   xmlns:cc="http://creativecommons.org/ns#"
   xmlns:rdf="http://www.w3.org/1999/02/22-rdf-syntax-ns#"
   xmlns:svg="http://www.w3.org/2000/svg"
   xmlns="http://www.w3.org/2000/svg"
   xmlns:sodipodi="http://sodipodi.sourceforge.net/DTD/sodipodi-0.dtd"
   xmlns:inkscape="http://www.inkscape.org/namespaces/inkscape"
   viewBox="0 0 34.868 24.427999"
   id="svg2"
   version="1.1"
   inkscape:version="0.91 r13725"
   sodipodi:docname="1f349.svg"
   width="34.868"
   height="24.427999">
  <metadata
     id="metadata16">
    <rdf:RDF>
      <cc:Work
         rdf:about="">
        <dc:format>image/svg+xml</dc:format>
        <dc:type
           rdf:resource="http://purl.org/dc/dcmitype/StillImage" />
      </cc:Work>
    </rdf:RDF>
  </metadata>
  <defs
     id="defs14" />
  <sodipodi:namedview
     pagecolor="#ffffff"
     bordercolor="#666666"
     borderopacity="1"
     objecttolerance="10"
     gridtolerance="10"
     guidetolerance="10"
     inkscape:pageopacity="0"
     inkscape:pageshadow="2"
     inkscape:window-width="640"
     inkscape:window-height="480"
     id="namedview12"
     showgrid="false"
     inkscape:zoom="6.5555556"
     inkscape:cx="17"
     inkscape:cy="13"
     inkscape:window-x="0"
     inkscape:window-y="0"
     inkscape:window-maximized="0"
     inkscape:current-layer="svg2" />
  <path
     d="M 1.472,0 C 0.528,2.126 0,4.466 0,6.928 c 0,9.665 8.059,17.5 18,17.5 7.746,0 14.33,-4.767 16.868,-11.44 L 1.472,0 Z"
     id="path4"
     inkscape:connector-curvature="0"
     style="fill:#5c913b" />
  <path
     d="M 3.332,0.723 C 2.479,2.625 2,4.721 2,6.928 c 0,8.591 7.164,15.556 16,15.556 6.904,0 12.77,-4.26 15.013,-10.218 L 3.332,0.723 Z"
     id="path6"
     inkscape:connector-curvature="0"
     style="fill:#ffe8b6" />
  <path
     d="M 5.191,1.447 C 4.43,3.125 4,4.976 4,6.928 c 0,7.518 6.268,13.611 14,13.611 6.062,0 11.21,-3.753 13.156,-8.995 L 5.191,1.447 Z"
     id="path8"
     inkscape:connector-curvature="0"
     style="fill:#dd2e44" />
  <path
     d="M 8.916,7.705 C 8.609,8.165 8.175,8.413 7.945,8.26 7.715,8.107 7.777,7.611 8.084,7.151 8.391,6.691 8.825,6.443 9.055,6.596 9.285,6.749 9.223,7.245 8.916,7.705 Z m 6,1 c -0.307,0.46 -0.741,0.708 -0.971,0.555 -0.23,-0.153 -0.168,-0.649 0.139,-1.109 0.307,-0.46 0.741,-0.708 0.971,-0.555 0.23,0.153 0.168,0.649 -0.139,1.109 z m 5.082,4.678 c 0.05,0.551 -0.132,1.016 -0.406,1.041 -0.275,0.025 -0.538,-0.4 -0.588,-0.951 -0.051,-0.551 0.132,-1.016 0.406,-1.04 0.275,-0.026 0.538,0.398 0.588,0.95 z m -9,-2 c 0.05,0.551 -0.132,1.016 -0.406,1.041 -0.275,0.025 -0.538,-0.4 -0.588,-0.951 -0.05,-0.551 0.132,-1.016 0.406,-1.04 0.276,-0.026 0.538,0.398 0.588,0.95 z m 3.901,5.346 c -0.333,0.441 -0.78,0.663 -1,0.497 -0.221,-0.166 -0.129,-0.658 0.205,-1.099 0.333,-0.441 0.781,-0.663 1,-0.497 0.221,0.166 0.13,0.657 -0.205,1.099 z m 8.036,0.454 c 0.273,0.481 0.299,0.979 0.06,1.115 -0.241,0.137 -0.656,-0.143 -0.929,-0.624 -0.273,-0.48 -0.299,-0.979 -0.059,-1.115 0.241,-0.138 0.655,0.141 0.928,0.624 z m -7.017,-5.028 c 0.303,0.463 0.362,0.958 0.131,1.109 -0.231,0.152 -0.663,-0.1 -0.966,-0.562 -0.303,-0.462 -0.361,-0.958 -0.131,-1.108 0.231,-0.154 0.663,0.097 0.966,0.561 z m 8.981,1.574 c -0.333,0.441 -0.78,0.663 -1.001,0.497 -0.221,-0.166 -0.129,-0.658 0.205,-1.099 0.333,-0.442 0.78,-0.663 1,-0.497 0.222,0.166 0.131,0.657 -0.204,1.099 z"
     id="path10"
     inkscape:connector-curvature="0" />
</svg>
