<?xml version="1.0" encoding="UTF-8" standalone="no"?>
<svg
   xmlns:dc="http://purl.org/dc/elements/1.1/"
   xmlns:cc="http://creativecommons.org/ns#"
   xmlns:rdf="http://www.w3.org/1999/02/22-rdf-syntax-ns#"
   xmlns:svg="http://www.w3.org/2000/svg"
   xmlns="http://www.w3.org/2000/svg"
   xmlns:sodipodi="http://sodipodi.sourceforge.net/DTD/sodipodi-0.dtd"
   xmlns:inkscape="http://www.inkscape.org/namespaces/inkscape"
   viewBox="0 0 36 36"
   id="svg2"
   version="1.1"
   inkscape:version="0.91 r13725"
   sodipodi:docname="1f344.svg"
   width="36"
   height="36">
  <metadata
     id="metadata22">
    <rdf:RDF>
      <cc:Work
         rdf:about="">
        <dc:format>image/svg+xml</dc:format>
        <dc:type
           rdf:resource="http://purl.org/dc/dcmitype/StillImage" />
      </cc:Work>
    </rdf:RDF>
  </metadata>
  <defs
     id="defs20" />
  <sodipodi:namedview
     pagecolor="#ffffff"
     bordercolor="#666666"
     borderopacity="1"
     objecttolerance="10"
     gridtolerance="10"
     guidetolerance="10"
     inkscape:pageopacity="0"
     inkscape:pageshadow="2"
     inkscape:window-width="640"
     inkscape:window-height="480"
     id="namedview18"
     showgrid="false"
     inkscape:zoom="6.5555556"
     inkscape:cx="18"
     inkscape:cy="18"
     inkscape:window-x="0"
     inkscape:window-y="0"
     inkscape:window-maximized="0"
     inkscape:current-layer="svg2" />
  <path
     d="m 27,33 c 0,2.209 -1.791,3 -4,3 l -10,0 c -2.209,0 -4,-0.791 -4,-3 0,-2.209 3,-7 3,-13 0,-6 12,-6 12,0 0,6 3,10.791 3,13 z"
     id="path4"
     inkscape:connector-curvature="0"
     style="fill:#99aab5" />
  <path
     d="M 34.666,11.189 34.665,11.187 C 33.705,8.83 32.261,6.734 30.457,5.005 l -0.003,0 C 27.222,1.904 22.839,0 18,0 13.638,0 9.639,1.541 6.524,4.115 4.334,5.924 2.583,8.245 1.448,10.9 0.518,13.075 0,15.473 0,18 c 0,2.209 1.791,4 4,4 l 28,0 c 2.209,0 4,-1.791 4,-4 0,-2.417 -0.48,-4.713 -1.334,-6.811 z"
     id="path6"
     inkscape:connector-curvature="0"
     style="fill:#dd2e44" />
  <g
     id="g8"
     style="fill:#f4abba">
    <path
       d="M 7.708,16.583 C 11.183,16.583 14,13.766 14,10.291 14,6.816 11.184,4 7.708,4 7.303,4 6.908,4.042 6.524,4.115 4.334,5.924 2.583,8.245 1.448,10.9 c 0.306,3.189 2.991,5.683 6.26,5.683 z"
       id="path10"
       inkscape:connector-curvature="0" />
    <path
       d="m 7.708,4.25 c 3.331,0 6.041,2.71 6.041,6.042 0,3.332 -2.71,6.042 -6.041,6.042 C 4.601,16.334 2.03,14.02 1.702,10.94 2.799,8.399 4.502,6.123 6.633,4.35 6.997,4.283 7.359,4.25 7.708,4.25 M 7.708,4 C 7.303,4 6.908,4.042 6.524,4.115 4.334,5.924 2.583,8.245 1.448,10.9 1.754,14.089 4.44,16.583 7.709,16.583 11.184,16.583 14,13.766 14,10.291 14,6.816 11.184,4 7.708,4 Z M 26,9.5 c 0,2.485 2.015,4.5 4.5,4.5 1.887,0 3.497,-1.164 4.166,-2.811 L 34.665,11.187 C 33.705,8.83 32.261,6.734 30.457,5.005 27.992,5.028 26,7.029 26,9.5 Z"
       id="path12"
       inkscape:connector-curvature="0" />
    <circle
       cx="21.5"
       cy="16"
       r="4.5"
       id="circle14" />
    <circle
       cx="20"
       cy="5"
       r="3"
       id="circle16" />
  </g>
</svg>
