<?xml version="1.0" encoding="UTF-8" standalone="no"?>
<svg
   xmlns:dc="http://purl.org/dc/elements/1.1/"
   xmlns:cc="http://creativecommons.org/ns#"
   xmlns:rdf="http://www.w3.org/1999/02/22-rdf-syntax-ns#"
   xmlns:svg="http://www.w3.org/2000/svg"
   xmlns="http://www.w3.org/2000/svg"
   xmlns:sodipodi="http://sodipodi.sourceforge.net/DTD/sodipodi-0.dtd"
   xmlns:inkscape="http://www.inkscape.org/namespaces/inkscape"
   viewBox="0 0 35.867779 34.150097"
   id="svg2"
   version="1.1"
   inkscape:version="0.91 r13725"
   sodipodi:docname="1f343.svg"
   width="35.867779"
   height="34.150097">
  <metadata
     id="metadata14">
    <rdf:RDF>
      <cc:Work
         rdf:about="">
        <dc:format>image/svg+xml</dc:format>
        <dc:type
           rdf:resource="http://purl.org/dc/dcmitype/StillImage" />
      </cc:Work>
    </rdf:RDF>
  </metadata>
  <defs
     id="defs12" />
  <sodipodi:namedview
     pagecolor="#ffffff"
     bordercolor="#666666"
     borderopacity="1"
     objecttolerance="10"
     gridtolerance="10"
     guidetolerance="10"
     inkscape:pageopacity="0"
     inkscape:pageshadow="2"
     inkscape:window-width="640"
     inkscape:window-height="480"
     id="namedview10"
     showgrid="false"
     inkscape:zoom="6.5555556"
     inkscape:cx="17.933778"
     inkscape:cy="17.149804"
     inkscape:window-x="0"
     inkscape:window-y="0"
     inkscape:window-maximized="0"
     inkscape:current-layer="svg2" />
  <path
     d="m 6.3347782,27.550292 c 5.0059998,5.006 16.5019998,11.969 29.5329998,-0.07 -7.366,-1.417 -8.662,-10.789 -13.669,-15.794 -5.006,-5.0069996 -11.991,-6.1389996 -16.9979998,-1.133 -5.00600001,5.006 -3.873,11.99 1.134,16.997 z"
     id="path4"
     inkscape:connector-curvature="0"
     style="fill:#a6d388" />
  <path
     d="m 24.617778,28.810292 c 6.128,1.634 10.658,-0.738 11.076,-1.156 0,0 -3.786,1.751 -10.359,-1.476 0.952,-1.212 3.854,-2.909 3.854,-2.909 -0.553,-0.346 -4.078,-0.225 -6.485,1.429 -1.158,-0.733 -2.384,-1.617 -3.673,-2.675 l 0.84,-0.871 c 3.25,-3.384 6.944,-2.584 6.944,-2.584 -0.638,-0.613 -5.599,-3.441 -9.583,0.7 l -0.613,0.638 c -0.426,-0.399 -0.856,-0.812 -1.294,-1.25 l -1.85,-1.85 1.064,-1.065 c 3.321,-3.32 8.226,-3.451 8.226,-3.451 -0.626,-0.627 -6.863,-2.6489996 -10.924,1.412 l -0.736,0.735 -8.2919998,-8.2939996 c -0.626,-0.627 -1.692,-0.575 -2.31700001,0.05 -0.626,0.626 -0.677,1.691 -0.051,2.317 l 8.29300001,8.2929996 -0.059,0.059 c -4.061,4.062 -2.375,10.634 -1.748,11.261 0,0 0.468,-5.242 3.7889998,-8.562 l 0.387,-0.388 3.501,3.502 c 0.057,0.057 0.113,0.106 0.17,0.163 -2.425,4.797 1.229,10.34 1.958,10.784 0,0 -1.465,-4.723 0.48,-8.635 1.526,1.195 3.02,2.095 4.457,2.755 0.083,2.993 2.707,5.7 3.344,5.931 0,0 -0.911,-3.003 -0.534,-4.487 l 0.135,-0.376 z"
     id="path6"
     inkscape:connector-curvature="0"
     style="fill:#77b255" />
  <path
     d="m 22.016778,9.0002924 c -0.396,0 -0.771,-0.238 -0.928,-0.628 -0.205,-0.512 0.042,-1.092 0.553,-1.299 0.166,-0.068 4.016,-1.698 4.416,-6.16299999 0.05,-0.549 0.524,-0.951 1.085,-0.907 0.551,0.049 0.956,0.535 0.907,1.08499999 -0.512,5.711 -5.451,7.755 -5.661,7.839 -0.122,0.05 -0.248,0.073 -0.372,0.073 z m 5,3.9999996 c -0.414,0 -0.801,-0.259 -0.944,-0.671 -0.181,-0.52 0.092,-1.088 0.61,-1.271 0.188,-0.068 4.525,-1.7109996 5.38,-8.1879996 0.072,-0.547 0.561,-0.935 1.122,-0.86 0.548,0.072 0.933,0.574 0.86,1.122 -1.021,7.7499996 -6.468,9.7329996 -6.699,9.8129996 -0.109,0.037 -0.22,0.055 -0.329,0.055 z m 3.001,6 c -0.353,0 -0.694,-0.188 -0.877,-0.519 -0.266,-0.483 -0.089,-1.091 0.394,-1.357 0.027,-0.015 2.751,-1.536 3.601,-3.518 0.218,-0.508 0.808,-0.742 1.312,-0.525 0.508,0.217 0.743,0.805 0.525,1.313 -1.123,2.62 -4.339,4.408 -4.475,4.483 -0.153,0.083 -0.317,0.123 -0.48,0.123 z"
     id="path8"
     inkscape:connector-curvature="0"
     style="fill:#5dadec" />
</svg>
