<?xml version="1.0" encoding="UTF-8" standalone="no"?>
<svg
   xmlns:dc="http://purl.org/dc/elements/1.1/"
   xmlns:cc="http://creativecommons.org/ns#"
   xmlns:rdf="http://www.w3.org/1999/02/22-rdf-syntax-ns#"
   xmlns:svg="http://www.w3.org/2000/svg"
   xmlns="http://www.w3.org/2000/svg"
   xmlns:sodipodi="http://sodipodi.sourceforge.net/DTD/sodipodi-0.dtd"
   xmlns:inkscape="http://www.inkscape.org/namespaces/inkscape"
   viewBox="0 0 30 36"
   id="svg2"
   version="1.1"
   inkscape:version="0.91 r13725"
   sodipodi:docname="1f355.svg"
   width="30"
   height="36">
  <metadata
     id="metadata20">
    <rdf:RDF>
      <cc:Work
         rdf:about="">
        <dc:format>image/svg+xml</dc:format>
        <dc:type
           rdf:resource="http://purl.org/dc/dcmitype/StillImage" />
      </cc:Work>
    </rdf:RDF>
  </metadata>
  <defs
     id="defs18" />
  <sodipodi:namedview
     pagecolor="#ffffff"
     bordercolor="#666666"
     borderopacity="1"
     objecttolerance="10"
     gridtolerance="10"
     guidetolerance="10"
     inkscape:pageopacity="0"
     inkscape:pageshadow="2"
     inkscape:window-width="640"
     inkscape:window-height="480"
     id="namedview16"
     showgrid="false"
     inkscape:zoom="6.5555556"
     inkscape:cx="15"
     inkscape:cy="18"
     inkscape:window-x="0"
     inkscape:window-y="0"
     inkscape:window-maximized="0"
     inkscape:current-layer="svg2" />
  <path
     d="M 15,4 C 22.257,4 28,8 29.699,6 29.896,5.677 30,5.343 30,5 30,3 23.284,0 15,0 6.716,0 0,3 0,5 0,5.343 0.104,5.677 0.301,6 2,8 7.743,4 15,4 Z"
     id="path4"
     inkscape:connector-curvature="0"
     style="fill:#f4900c" />
  <path
     d="M 15,3 C 8.787,3 4.384,4.81 2.727,5.618 2.25,5.851 2.188,6.458 2.312,6.896 2.436,7.334 13,34 13,34 c 0,0 0.896,2 2,2 1.104,0 2,-2 2,-2 L 27.704,6.779 c 0,0 0.213,-0.842 -0.569,-1.229 C 25.392,4.689 21.047,3 15,3 Z"
     id="path6"
     inkscape:connector-curvature="0"
     style="fill:#ffcc4d" />
  <g
     id="g8"
     style="fill:#be1931"
     transform="translate(-3,0)">
    <path
       d="m 18,31 c 0,-2.208 -1.791,-4 -4,-4 -0.254,0 -0.5,0.029 -0.741,0.075 L 16,34 c 0,0 0.071,0.14 0.19,0.342 C 17.279,33.627 18,32.399 18,31 Z M 17,20 c 0,-2.209 -1.792,-4 -4,-4 -1.426,0 -2.67,0.752 -3.378,1.876 l 2.362,5.978 C 12.311,23.94 12.647,24 13,24 c 2.208,0 4,-1.792 4,-4 z"
       id="path10"
       inkscape:connector-curvature="0" />
    <circle
       cx="16"
       cy="8"
       r="4"
       id="circle12" />
    <path
       d="m 25,9 c -2.208,0 -4,1.791 -4,4 0,2.209 1.792,4 4,4 0.682,0 1.315,-0.187 1.877,-0.488 l 1.89,-4.806 C 28.227,10.135 26.752,9 25,9 Z m -6,16 c 0,1.868 1.288,3.425 3.019,3.864 l 2.893,-7.357 C 24.342,21.194 23.697,21 23,21 c -2.208,0 -4,1.792 -4,4 z M 10,12 C 10,9.791 8.209,8 6,8 5.913,8 5.831,8.02 5.745,8.026 6.295,9.438 7.32,12.042 8.52,15.083 9.416,14.349 10,13.248 10,12 Z"
       id="path14"
       inkscape:connector-curvature="0" />
  </g>
</svg>
