<?xml version="1.0" encoding="UTF-8" standalone="no"?>
<svg
   xmlns:dc="http://purl.org/dc/elements/1.1/"
   xmlns:cc="http://creativecommons.org/ns#"
   xmlns:rdf="http://www.w3.org/1999/02/22-rdf-syntax-ns#"
   xmlns:svg="http://www.w3.org/2000/svg"
   xmlns="http://www.w3.org/2000/svg"
   xmlns:sodipodi="http://sodipodi.sourceforge.net/DTD/sodipodi-0.dtd"
   xmlns:inkscape="http://www.inkscape.org/namespaces/inkscape"
   viewBox="0 0 36 32.005428"
   id="svg2"
   version="1.1"
   inkscape:version="0.91 r13725"
   sodipodi:docname="1f35d.svg"
   width="36"
   height="32.005428">
  <metadata
     id="metadata28">
    <rdf:RDF>
      <cc:Work
         rdf:about="">
        <dc:format>image/svg+xml</dc:format>
        <dc:type
           rdf:resource="http://purl.org/dc/dcmitype/StillImage" />
      </cc:Work>
    </rdf:RDF>
  </metadata>
  <defs
     id="defs26" />
  <sodipodi:namedview
     pagecolor="#ffffff"
     bordercolor="#666666"
     borderopacity="1"
     objecttolerance="10"
     gridtolerance="10"
     guidetolerance="10"
     inkscape:pageopacity="0"
     inkscape:pageshadow="2"
     inkscape:window-width="640"
     inkscape:window-height="480"
     id="namedview24"
     showgrid="false"
     inkscape:zoom="6.5555556"
     inkscape:cx="18"
     inkscape:cy="16"
     inkscape:window-x="0"
     inkscape:window-y="0"
     inkscape:window-maximized="0"
     inkscape:current-layer="svg2" />
  <ellipse
     cx="18"
     cy="22.005428"
     rx="18"
     ry="10"
     id="ellipse4"
     style="fill:#939598" />
  <ellipse
     cx="18"
     cy="20.005428"
     rx="18"
     ry="10"
     id="ellipse6"
     style="fill:#f1f2f2" />
  <ellipse
     cx="18"
     cy="19.616428"
     rx="14.8"
     ry="7.6110001"
     id="ellipse8"
     style="fill:#ffcc4d" />
  <path
     d="m 11,25.005429 c -0.552,0 -1,-0.447 -1,-1 0,-0.553 0.448,-1 1,-1 1.898,0 3.082,-1.085 3.174,-1.835 0.091,-0.736 -0.96,-1.081 -1.417,-1.195 -0.906,-0.225 -1.58,0.033 -2.358,0.335 -1.068,0.414 -2.531,0.978 -4.106,-0.598 -0.689,-0.688 -0.868,-1.604 -0.492,-2.513 0.733,-1.769 3.444,-3.194 5.199,-3.194 0.552,0 1,0.448 1,1 0,0.552 -0.448,1 -1,1 -1.115,0 -2.995,1.099 -3.351,1.96 -0.074,0.178 -0.044,0.23 0.058,0.333 0.629,0.628 0.928,0.548 1.971,0.147 0.862,-0.334 2.042,-0.79 3.564,-0.409 2.384,0.596 3.07,2.136 2.917,3.379 -0.217,1.764 -2.206,3.59 -5.159,3.59 z m 6,1 c -0.552,0 -1,-0.447 -1,-1 0,-0.553 0.448,-1 1,-1 5.697,0 9.833,-1.247 12.293,-3.707 0.391,-0.391 1.023,-0.391 1.414,0 0.391,0.391 0.391,1.023 0,1.414 -2.849,2.849 -7.46,4.293 -13.707,4.293 z"
     id="path10"
     inkscape:connector-curvature="0"
     style="fill:#ffe8b6" />
  <path
     d="m 21.349,22.165429 c -0.537,0 -1.069,-0.06 -1.591,-0.191 -0.543,-0.135 -2.194,-0.548 -2.246,-1.883 -0.038,-1 0.661,-2.172 5.938,-3.957 -0.575,-0.469 -1.958,-1.129 -3.45,-1.129 -2.513,0 -3.797,0.211 -4.293,0.707 -0.391,0.391 -1.023,0.391 -1.414,0 -0.391,-0.391 -0.391,-1.023 0,-1.414 0.955,-0.955 2.448,-1.293 5.707,-1.293 2.396,0 5.396,1.333 5.676,3.053 0.107,0.662 -0.193,1.506 -1.359,1.895 -2.583,0.861 -3.921,1.549 -4.501,1.957 0.112,0.039 0.253,0.081 0.427,0.125 3.231,0.804 7.322,-2.366 7.768,-3.18 0.072,-0.481 0.488,-0.85 0.989,-0.85 0.553,0 1,0.448 1,1 0,0.706 -0.635,1.56 -1.887,2.537 -1.743,1.361 -4.289,2.622 -6.764,2.623 z"
     id="path12"
     inkscape:connector-curvature="0"
     style="fill:#ffe8b6" />
  <path
     d="m 27,18.505429 c 0,2.485 -2.029,5.5 -7,5.5 -4.971,0 -4,-2 -12,-5 -3.376,-1.266 5.029,-5 10,-5 4.971,0 9,2.015 9,4.5 z"
     id="path14"
     inkscape:connector-curvature="0"
     style="fill:#dd2e44" />
  <path
     d="m 16,22.005429 c -0.256,0 -0.512,-0.098 -0.707,-0.293 -0.391,-0.391 -0.391,-1.023 0,-1.414 0.281,-0.305 0.112,-0.474 0,-0.586 -0.558,-0.558 -2.238,-0.616 -3.846,0.188 -0.495,0.247 -1.095,0.047 -1.342,-0.447 -0.247,-0.494 -0.047,-1.095 0.447,-1.342 1.977,-0.988 4.726,-1.242 6.154,0.188 1.252,1.252 0.686,2.728 0,3.414 -0.194,0.194 -0.45,0.292 -0.706,0.292 z m 4,-4 c -2.414,0 -3.685,-1.271 -4.707,-2.293 -0.391,-0.391 -0.391,-1.023 0,-1.414 0.391,-0.391 1.023,-0.391 1.414,0 0.954,0.954 1.707,1.707 3.293,1.707 0.773,0 2.586,0 3.293,-0.707 0.391,-0.391 1.023,-0.391 1.414,0 0.391,0.391 0.391,1.023 0,1.414 -1.293,1.293 -3.599,1.293 -4.707,1.293 z m 0,4 c -0.553,0 -1,-0.447 -1,-1 0,-0.553 0.447,-1 1,-1 1.847,0 4.548,-0.962 5.293,-1.707 0.391,-0.391 1.023,-0.391 1.414,0 0.391,0.391 0.391,1.023 0,1.414 -1.291,1.291 -4.666,2.293 -6.707,2.293 z"
     id="path16"
     inkscape:connector-curvature="0"
     style="fill:#ea596e" />
  <path
     d="m 17.001,18.005429 c -0.367,0 -0.72,-0.202 -0.896,-0.553 -0.999,-1.997 -3.077,-6.153 -4.098,-14.323 -0.068,-0.548 0.32,-1.048 0.868,-1.116 0.544,-0.07 1.048,0.32 1.116,0.868 0.979,7.83 2.953,11.779 3.902,13.677 0.247,0.494 0.047,1.095 -0.447,1.342 -0.142,0.071 -0.295,0.105 -0.445,0.105 z"
     id="path18"
     inkscape:connector-curvature="0"
     style="fill:#ffac33" />
  <path
     d="m 35.125,9.047429 -15.24,-4.503 C 16.534,-0.76457095 12.319,0.08942905 10,0.00542905 c -0.25,-0.009 -0.819,0.22 -0.833,0.625 -0.015,0.39199995 1.026,0.337 1.186,0.343 1.705,0.0619999 3.945,0.17599995 6.132,2.48599995 -2.658,-0.926 -6.741,-1.521 -7.485,-1.454 -0.458,0.042 -0.5,0.375 0.042,0.625 0.445,0.206 4.572,1.647 6.84,2.34 -1.419,0.489 -3.286,0.715 -6.434,-0.86 -0.497,-0.248 -1.201,-0.599 -1.448,-0.105 -0.247,0.494 0.506,0.753 1,1 2.16,1.08 3.43,2.332 4.823,2.332 1.656,0 2.854,-0.505 3.792,-0.899 0.333,-0.14 0.634,-0.263 0.903,-0.343 0.016,0.01 0.028,0.024 0.044,0.033 l 14.805,6.592 c 0.485,0.265 1.572,-0.791 1.837,-1.275 0.265,-0.486 0.28,-2.175 -0.079,-2.398 z"
     id="path20"
     inkscape:connector-curvature="0"
     style="fill:#99aab5" />
  <path
     d="m 13,17.005429 c -0.256,0 -0.512,-0.098 -0.707,-0.293 -1.315,-1.315 -4.446,-8.867 -0.074,-14.332 0.345,-0.432 0.976,-0.501 1.405,-0.156 0.432,0.345 0.502,0.974 0.156,1.405 -3.648,4.561 -0.778,10.963 -0.074,11.668 0.391,0.391 0.391,1.023 0,1.414 -0.194,0.196 -0.45,0.294 -0.706,0.294 z"
     id="path22"
     inkscape:connector-curvature="0"
     style="fill:#ffac33" />
</svg>
