<?xml version="1.0" encoding="UTF-8" standalone="no"?>
<svg
   xmlns:dc="http://purl.org/dc/elements/1.1/"
   xmlns:cc="http://creativecommons.org/ns#"
   xmlns:rdf="http://www.w3.org/1999/02/22-rdf-syntax-ns#"
   xmlns:svg="http://www.w3.org/2000/svg"
   xmlns="http://www.w3.org/2000/svg"
   xmlns:sodipodi="http://sodipodi.sourceforge.net/DTD/sodipodi-0.dtd"
   xmlns:inkscape="http://www.inkscape.org/namespaces/inkscape"
   viewBox="0 0 35.120579 34.476002"
   id="svg2"
   version="1.1"
   inkscape:version="0.91 r13725"
   sodipodi:docname="1f354.svg"
   width="35.120579"
   height="34.476002">
  <metadata
     id="metadata22">
    <rdf:RDF>
      <cc:Work
         rdf:about="">
        <dc:format>image/svg+xml</dc:format>
        <dc:type
           rdf:resource="http://purl.org/dc/dcmitype/StillImage" />
      </cc:Work>
    </rdf:RDF>
  </metadata>
  <defs
     id="defs20" />
  <sodipodi:namedview
     pagecolor="#ffffff"
     bordercolor="#666666"
     borderopacity="1"
     objecttolerance="10"
     gridtolerance="10"
     guidetolerance="10"
     inkscape:pageopacity="0"
     inkscape:pageshadow="2"
     inkscape:window-width="640"
     inkscape:window-height="480"
     id="namedview18"
     showgrid="false"
     inkscape:zoom="6.5555556"
     inkscape:cx="17.6203"
     inkscape:cy="17"
     inkscape:window-x="0"
     inkscape:window-y="0"
     inkscape:window-maximized="0"
     inkscape:current-layer="svg2" />
  <path
     d="m 17.6203,19.887 c -9.3709998,0 -16.96699981,-0.225 -16.96699981,6.427 0,6.649 7.59600001,8.162 16.96699981,8.162 9.371,0 16.967,-1.513 16.967,-8.162 0,-6.651 -7.596,-6.427 -16.967,-6.427 z"
     id="path4"
     inkscape:connector-curvature="0"
     style="fill:#d99e82" />
  <path
     d="m 34.0903,20.392 c 0,0 -8.219,-0.984 -16.47,-1.026 -8.2509998,0.042 -16.4699998,1.026 -16.4699998,1.026 -0.81300001,6.474 5.937,9.141 16.4699998,9.141 10.533,0 17.283,-2.667 16.47,-9.141 z"
     id="path6"
     inkscape:connector-curvature="0"
     style="fill:#662113" />
  <path
     d="M 33.5063,17.804 1.6513002,18.45 c -1.10000001,0 -2.02100001,2.229 -0.85400001,2.812 C 9.5053002,23.97 16.5053,26.71 16.5053,26.71 c 0.962,0.532 1.287,0.534 2.25,0.003 0,0 9.666,-3.868 15.875,-5.493 0.881,-0.23 -0.025,-3.416 -1.124,-3.416 z"
     id="path8"
     inkscape:connector-curvature="0"
     style="fill:#ffcc4d" />
  <path
     d="m 34.3453,17.888 c -1.9,-1.751 -1.79,-0.819 -3.246,-1.23 -0.553,-0.156 -4.51,-5.271 -13.529,-5.271 l -0.02,0 c -9.0189998,0 -12.9759998,5.115 -13.5289998,5.271 -1.456,0.411 -1.346,-0.521 -3.24600001,1.23 -0.872,0.804 -1.108,1.222 -0.188,1.43 1.38600001,0.313 1.26000001,1.152 2.25300001,1.444 1.202,0.353 1.696,-0.292 3.634,-0.028 1.653,0.225 1.761,2.369 3.429,2.369 1.6679998,0 1.6679998,-0.8 3.3349998,-0.8 1.667,0 2.653,2.146 4.321,2.146 1.668,0 2.653,-2.146 4.321,-2.146 1.668,0 1.668,0.8 3.335,0.8 1.668,0 1.776,-2.144 3.429,-2.369 1.938,-0.263 2.433,0.381 3.634,0.028 0.993,-0.292 0.867,-1.13 2.253,-1.444 0.922,-0.207 0.687,-0.626 -0.186,-1.43 z"
     id="path10"
     inkscape:connector-curvature="0"
     style="fill:#77b255" />
  <path
     d="m 33.6973,15.996 c 0,2.984 -7.198,4.393 -16.077,4.393 -8.8789998,0 -16.0769998,-1.409 -16.0769998,-4.393 0,-5.403 0.966,-5.403 16.0769998,-5.403 15.111,0 16.077,10e-4 16.077,5.403 z"
     id="path12"
     inkscape:connector-curvature="0"
     style="fill:#dd2e44" />
  <path
     d="M 17.6203,0 C 8.2493002,0 0.65330019,4.391 0.65330019,11.042 c 0,6.125 7.59600001,6.375 16.96699981,6.375 9.371,0 16.967,-0.25 16.967,-6.375 C 34.5873,4.39 26.9913,0 17.6203,0 Z"
     id="path14"
     inkscape:connector-curvature="0"
     style="fill:#d99e82" />
  <path
     d="M 10.4043,3.171 C 9.9063002,2.852 9.2453002,2.998 8.9273002,3.496 c -0.318,0.498 -0.173,1.16 0.325,1.477 0.498,0.319 1.7599998,0.557 2.0789998,0.059 0.318,-0.498 -0.429,-1.543 -0.927,-1.861 z m 9.734,-1.035 c -0.562,0.182 -1.549,1.006 -1.366,1.568 0.183,0.562 1.464,0.648 2.026,0.466 0.562,-0.182 0.869,-0.786 0.686,-1.348 -0.182,-0.561 -0.786,-0.869 -1.346,-0.686 z m 10.909,7.035 c -0.452,-0.38 -1.585,0.225 -1.966,0.677 -0.38,0.453 -0.321,1.127 0.131,1.507 0.452,0.38 1.127,0.321 1.507,-0.131 0.381,-0.453 0.781,-1.673 0.328,-2.053 z m -3.643,-5 c -0.498,-0.318 -1.159,-0.172 -1.478,0.326 -0.318,0.498 -0.172,1.159 0.326,1.477 0.498,0.319 1.76,0.557 2.078,0.059 0.319,-0.499 -0.428,-1.544 -0.926,-1.862 z m -15,7 c -0.498,-0.318 -1.159,-0.172 -1.478,0.326 -0.318,0.497 -0.172,1.159 0.326,1.476 0.498,0.319 1.76,0.558 2.078,0.059 0.319,-0.498 -0.428,-1.543 -0.926,-1.861 z m 3.046,-4.808 c -0.336,0.486 -0.62,1.739 -0.133,2.075 0.486,0.336 1.557,-0.374 1.893,-0.86 0.336,-0.486 0.213,-1.152 -0.273,-1.488 -0.485,-0.336 -1.152,-0.213 -1.487,0.273 z m 7.954,4.808 c -0.498,-0.318 -1.159,-0.172 -1.478,0.326 -0.318,0.497 -0.172,1.16 0.326,1.476 0.498,0.319 1.76,0.558 2.078,0.059 0.319,-0.498 -0.428,-1.543 -0.926,-1.861 z M 4.5683002,7.284 c -0.394,0.441 -0.833,1.648 -0.392,2.042 0.439,0.394 1.591,-0.174 1.985,-0.615 0.395,-0.44 0.357,-1.116 -0.083,-1.511 -0.439,-0.394 -1.116,-0.356 -1.51,0.084 z"
     id="path16"
     inkscape:connector-curvature="0"
     style="fill:#ffe8b6" />
</svg>
