<?xml version="1.0" encoding="UTF-8" standalone="no"?>
<svg
   xmlns:dc="http://purl.org/dc/elements/1.1/"
   xmlns:cc="http://creativecommons.org/ns#"
   xmlns:rdf="http://www.w3.org/1999/02/22-rdf-syntax-ns#"
   xmlns:svg="http://www.w3.org/2000/svg"
   xmlns="http://www.w3.org/2000/svg"
   xmlns:sodipodi="http://sodipodi.sourceforge.net/DTD/sodipodi-0.dtd"
   xmlns:inkscape="http://www.inkscape.org/namespaces/inkscape"
   viewBox="0 0 35.412251 35.411251"
   id="svg2"
   version="1.1"
   inkscape:version="0.91 r13725"
   sodipodi:docname="1f356.svg"
   width="35.412251"
   height="35.411251">
  <metadata
     id="metadata14">
    <rdf:RDF>
      <cc:Work
         rdf:about="">
        <dc:format>image/svg+xml</dc:format>
        <dc:type
           rdf:resource="http://purl.org/dc/dcmitype/StillImage" />
      </cc:Work>
    </rdf:RDF>
  </metadata>
  <defs
     id="defs12" />
  <sodipodi:namedview
     pagecolor="#ffffff"
     bordercolor="#666666"
     borderopacity="1"
     objecttolerance="10"
     gridtolerance="10"
     guidetolerance="10"
     inkscape:pageopacity="0"
     inkscape:pageshadow="2"
     inkscape:window-width="640"
     inkscape:window-height="480"
     id="namedview10"
     showgrid="false"
     inkscape:zoom="6.5555556"
     inkscape:cx="17.39425"
     inkscape:cy="17.698"
     inkscape:window-x="0"
     inkscape:window-y="0"
     inkscape:window-maximized="0"
     inkscape:current-layer="svg2" />
  <path
     d="m 13.41125,10.08125 -5.844,-5.844 c 0.847,-1.017 0.805,-2.525 -0.15,-3.479 -1.011,-1.011 -2.65,-1.011 -3.662,0 -0.621,0.621 -0.856,1.478 -0.715,2.282 -0.804,-0.141 -1.661,0.094 -2.282,0.715 -1.011,1.011 -1.011,2.651 0,3.662 0.954,0.955 2.462,0.996 3.479,0.15 l 5.844,5.844 3.33,-3.33 z m 11.918,11.919 5.845,5.844 c 1.017,-0.846 2.524,-0.805 3.479,0.15 1.012,1.011 1.012,2.65 0,3.661 -0.621,0.621 -1.479,0.856 -2.282,0.716 0.142,0.804 -0.095,1.661 -0.716,2.281 -1.011,1.012 -2.65,1.012 -3.661,0 -0.955,-0.954 -0.996,-2.462 -0.149,-3.479 l -5.845,-5.844 3.329,-3.329 z"
     id="path4"
     inkscape:connector-curvature="0"
     style="fill:#ffd983" />
  <path
     d="m 29.41525,15.59225 c -1.632,-1.633 -4.113,-1.543 -6.234,-3.665 -2.121,-2.121 -2.032,-4.602 -3.665,-6.235 -3.515,-3.515 -7.018,-1.467 -11.313,2.829 -4.296,4.296 -6.343,7.799 -2.829,11.313 1.633,1.633 4.114,1.544 6.235,3.665 2.122,2.121 2.032,4.603 3.665,6.234 3.515,3.515 7.018,1.468 11.314,-2.828 4.296,-4.296 6.341,-7.798 2.827,-11.313 z"
     id="path6"
     inkscape:connector-curvature="0"
     style="fill:#c1694f" />
  <path
     d="m 13.39425,22.71325 c -0.104,0 -0.211,-0.017 -0.316,-0.052 -0.524,-0.174 -0.807,-0.74 -0.632,-1.265 1.109,-3.328 5.305,-7.523 8.632,-8.632 0.528,-0.176 1.09,0.108 1.265,0.632 0.175,0.524 -0.108,1.09 -0.632,1.265 -2.686,0.895 -6.473,4.682 -7.368,7.368 -0.14,0.419 -0.53,0.684 -0.949,0.684 z"
     id="path8"
     inkscape:connector-curvature="0"
     style="fill:#662113" />
</svg>
