<?xml version="1.0" encoding="UTF-8" standalone="no"?>
<svg
   xmlns:dc="http://purl.org/dc/elements/1.1/"
   xmlns:cc="http://creativecommons.org/ns#"
   xmlns:rdf="http://www.w3.org/1999/02/22-rdf-syntax-ns#"
   xmlns:svg="http://www.w3.org/2000/svg"
   xmlns="http://www.w3.org/2000/svg"
   xmlns:sodipodi="http://sodipodi.sourceforge.net/DTD/sodipodi-0.dtd"
   xmlns:inkscape="http://www.inkscape.org/namespaces/inkscape"
   viewBox="0 0 34 34"
   id="svg2"
   version="1.1"
   inkscape:version="0.91 r13725"
   sodipodi:docname="1f358.svg"
   width="34"
   height="34">
  <metadata
     id="metadata14">
    <rdf:RDF>
      <cc:Work
         rdf:about="">
        <dc:format>image/svg+xml</dc:format>
        <dc:type
           rdf:resource="http://purl.org/dc/dcmitype/StillImage" />
      </cc:Work>
    </rdf:RDF>
  </metadata>
  <defs
     id="defs12" />
  <sodipodi:namedview
     pagecolor="#ffffff"
     bordercolor="#666666"
     borderopacity="1"
     objecttolerance="10"
     gridtolerance="10"
     guidetolerance="10"
     inkscape:pageopacity="0"
     inkscape:pageshadow="2"
     inkscape:window-width="640"
     inkscape:window-height="480"
     id="namedview10"
     showgrid="false"
     inkscape:zoom="6.5555556"
     inkscape:cx="17"
     inkscape:cy="17"
     inkscape:window-x="0"
     inkscape:window-y="0"
     inkscape:window-maximized="0"
     inkscape:current-layer="svg2" />
  <circle
     cx="17"
     cy="17"
     r="17"
     id="circle4"
     style="fill:#c1694f" />
  <path
     d="m 26.258,26.642 c -0.461,0.316 -1.091,0.199 -1.406,-0.263 -0.316,-0.46 -0.198,-1.091 0.262,-1.406 l 1.67,-1.144 c 0.46,-0.315 1.089,-0.198 1.405,0.263 0.315,0.46 0.198,1.091 -0.263,1.405 l -1.668,1.145 z m 2.438,-7.095 c -0.512,-0.207 -0.758,-0.792 -0.549,-1.303 0.209,-0.511 0.793,-0.757 1.304,-0.549 l 1.852,0.755 c 0.511,0.208 0.757,0.791 0.549,1.303 -0.208,0.512 -0.792,0.758 -1.304,0.549 l -1.852,-0.755 z m -4.494,-5.256 c -0.519,-0.21 -0.767,-0.801 -0.555,-1.318 0.209,-0.517 0.801,-0.766 1.316,-0.556 l 1.875,0.764 c 0.516,0.211 0.765,0.801 0.554,1.318 -0.211,0.517 -0.8,0.766 -1.318,0.555 l -1.872,-0.763 z m -21.001,7 C 2.684,21.081 2.435,20.49 2.647,19.973 2.857,19.456 3.448,19.207 3.964,19.417 l 1.873,0.764 c 0.518,0.211 0.766,0.801 0.556,1.318 -0.211,0.518 -0.802,0.767 -1.318,0.556 L 3.201,21.291 Z M 6.758,15.142 C 6.297,15.458 5.667,15.341 5.352,14.878 5.037,14.418 5.154,13.788 5.614,13.473 l 1.67,-1.144 c 0.46,-0.315 1.089,-0.198 1.405,0.263 0.315,0.46 0.198,1.091 -0.263,1.406 l -1.668,1.144 z m 9.028,3.739 c -0.767,-0.312 -1.137,-1.188 -0.824,-1.956 0.314,-0.766 1.189,-1.135 1.956,-0.823 l 2.778,1.134 c 0.767,0.312 1.136,1.186 0.824,1.953 -0.312,0.768 -1.188,1.137 -1.956,0.824 l -2.778,-1.132 z m -6.184,6.052 c 0.522,-0.199 1.106,0.062 1.306,0.586 0.197,0.519 -0.066,1.105 -0.588,1.303 L 8.428,27.543 C 7.909,27.742 7.324,27.48 7.126,26.957 6.926,26.433 7.188,25.85 7.711,25.65 l 1.891,-0.717 z"
     id="path6"
     inkscape:connector-curvature="0"
     style="fill:#e29386" />
  <path
     d="m 23,18 -12,0 c -1.104,0 -2,0.896 -2,2 l 0,11.998 c 2.385,1.275 5.106,2.002 8,2.002 2.893,0 5.615,-0.727 8,-2.002 L 25,20 c 0,-1.104 -0.896,-2 -2,-2 z"
     id="path8"
     inkscape:connector-curvature="0"
     style="fill:#292f33" />
</svg>
