<?xml version="1.0" encoding="UTF-8" standalone="no"?>
<svg
   xmlns:dc="http://purl.org/dc/elements/1.1/"
   xmlns:cc="http://creativecommons.org/ns#"
   xmlns:rdf="http://www.w3.org/1999/02/22-rdf-syntax-ns#"
   xmlns:svg="http://www.w3.org/2000/svg"
   xmlns="http://www.w3.org/2000/svg"
   xmlns:sodipodi="http://sodipodi.sourceforge.net/DTD/sodipodi-0.dtd"
   xmlns:inkscape="http://www.inkscape.org/namespaces/inkscape"
   viewBox="0 0 36 26"
   id="svg2"
   version="1.1"
   inkscape:version="0.91 r13725"
   sodipodi:docname="1f36e.svg"
   width="36"
   height="26">
  <metadata
     id="metadata20">
    <rdf:RDF>
      <cc:Work
         rdf:about="">
        <dc:format>image/svg+xml</dc:format>
        <dc:type
           rdf:resource="http://purl.org/dc/dcmitype/StillImage" />
      </cc:Work>
    </rdf:RDF>
  </metadata>
  <defs
     id="defs18" />
  <sodipodi:namedview
     pagecolor="#ffffff"
     bordercolor="#666666"
     borderopacity="1"
     objecttolerance="10"
     gridtolerance="10"
     guidetolerance="10"
     inkscape:pageopacity="0"
     inkscape:pageshadow="2"
     inkscape:window-width="640"
     inkscape:window-height="480"
     id="namedview16"
     showgrid="false"
     inkscape:zoom="6.5555556"
     inkscape:cx="18"
     inkscape:cy="15"
     inkscape:window-x="0"
     inkscape:window-y="0"
     inkscape:window-maximized="0"
     inkscape:current-layer="svg2" />
  <ellipse
     cx="18"
     cy="16"
     rx="18"
     ry="10"
     id="ellipse4"
     style="fill:#939598" />
  <ellipse
     cx="18"
     cy="14"
     rx="18"
     ry="10"
     id="ellipse6"
     style="fill:#f1f2f2" />
  <path
     d="m 31,13 c 0,3.988 -5.82,7.223 -13,7.223 C 10.82,20.223 5,16.988 5,13 5,9.012 10.82,5.778 18,5.778 c 7.18,0 13,3.234 13,7.222 z"
     id="path8"
     inkscape:connector-curvature="0"
     style="fill:#c1694f" />
  <ellipse
     cx="18"
     cy="13"
     rx="11"
     ry="5.5560002"
     id="ellipse10"
     style="fill:#8a4b38" />
  <path
     d="m 18,0 c 3.383,0 4.724,2 5.921,2 1.691,0 2.537,2 4.229,9 0.697,2.885 -4.229,6 -10.149,6 C 12.081,17 7.155,13.885 7.852,11 9.544,4 10.39,2 12.081,2 13.275,2 14.617,0 18,0 Z"
     id="path12"
     inkscape:connector-curvature="0"
     style="fill:#ffcc4d" />
  <path
     d="m 25.612,4 c 0,2.209 -3.408,4 -7.612,4 -4.204,0 -7.612,-1.791 -7.612,-4 0,-2.209 3.408,-4 7.612,-4 4.204,0 7.612,1.791 7.612,4 z"
     id="path14"
     inkscape:connector-curvature="0"
     style="fill:#662113" />
</svg>
