<?xml version="1.0" encoding="UTF-8" standalone="no"?>
<svg
   xmlns:dc="http://purl.org/dc/elements/1.1/"
   xmlns:cc="http://creativecommons.org/ns#"
   xmlns:rdf="http://www.w3.org/1999/02/22-rdf-syntax-ns#"
   xmlns:svg="http://www.w3.org/2000/svg"
   xmlns="http://www.w3.org/2000/svg"
   xmlns:sodipodi="http://sodipodi.sourceforge.net/DTD/sodipodi-0.dtd"
   xmlns:inkscape="http://www.inkscape.org/namespaces/inkscape"
   viewBox="0 0 30.743122 35.526001"
   id="svg2"
   version="1.1"
   inkscape:version="0.91 r13725"
   sodipodi:docname="1f368.svg"
   width="30.743122"
   height="35.526001">
  <metadata
     id="metadata22">
    <rdf:RDF>
      <cc:Work
         rdf:about="">
        <dc:format>image/svg+xml</dc:format>
        <dc:type
           rdf:resource="http://purl.org/dc/dcmitype/StillImage" />
      </cc:Work>
    </rdf:RDF>
  </metadata>
  <defs
     id="defs20" />
  <sodipodi:namedview
     pagecolor="#ffffff"
     bordercolor="#666666"
     borderopacity="1"
     objecttolerance="10"
     gridtolerance="10"
     guidetolerance="10"
     inkscape:pageopacity="0"
     inkscape:pageshadow="2"
     inkscape:window-width="640"
     inkscape:window-height="480"
     id="namedview18"
     showgrid="false"
     inkscape:zoom="6.5555556"
     inkscape:cx="15.334962"
     inkscape:cy="17.647"
     inkscape:window-x="0"
     inkscape:window-y="0"
     inkscape:window-maximized="0"
     inkscape:current-layer="svg2" />
  <path
     d="m 17.334962,28.504 c 0,0 10.661,-2.725 13.356,-12.905 0.396,-1.495 -1.518,-2.72 -3.868,-2.72 l -23.4890005,0 c -1.175,0 -3.73999999,0.493 -3.07199999,2.894 C 3.0459615,25.779 13.334962,28.504 13.334962,28.504 l 0,1.173 c 0,0 -4.6340005,2.443 -5.5880005,3.01 -1.027,0.588 -0.268,1.526 0.144,1.689 0.684,0.269 2.3900005,1.15 7.1160005,1.15 4.847,0 7.497,-0.954 8.083,-1.15 0.226,-0.075 1.197,-0.973 -0.198,-1.799 -2.484,-1.47 -5.557,-2.9 -5.557,-2.9 l 0,-1.173 z"
     id="path4"
     inkscape:connector-curvature="0"
     style="fill:#55acee" />
  <path
     d="m 30.625962,15.127 c 0,1.692 -6.835,3.064 -15.269,3.064 -8.4320005,0 -15.26800049,-1.371 -15.26800049,-3.064 0,-1.693 6.83599999,-3.064 15.26800049,-3.064 8.434,0 15.269,1.371 15.269,3.064 z"
     id="path6"
     inkscape:connector-curvature="0"
     style="fill:#3b88c3" />
  <path
     d="m 23.316962,6.787 c 0,1.613 -3.133,4.745 -7.832,4.745 -4.325,0 -7.8310005,-2.088 -7.8310005,-4.745 0,-4.325 3.5050005,-6.787 7.8310005,-6.787 4.327,0.001 7.832,2.462 7.832,6.787 z"
     id="path8"
     inkscape:connector-curvature="0"
     style="fill:#f4abba" />
  <path
     d="m 30.625962,14.096 c 0,1.613 -3.132,4.223 -7.83,4.223 -4.326,0 -7.832,1.393 -7.832,-4.223 0,-4.325 3.506,-7.831 7.832,-7.831 4.325,0 7.83,3.506 7.83,7.831 z"
     id="path10"
     inkscape:connector-curvature="0"
     style="fill:#ffe8b6" />
  <path
     d="m 16.006962,14.096 c 0,5.182 -3.132,4.311 -7.8310005,4.311 -4.325,0 -7.83099999,-1.653 -7.83099999,-4.311 0,-4.325 3.50599999,-7.831 7.83099999,-7.831 4.3260005,0 7.8310005,3.506 7.8310005,7.831 z"
     id="path12"
     inkscape:connector-curvature="0"
     style="fill:#8a4b38" />
  <path
     d="m 28.171962,20.977 c 0.824,-1.161 1.541,-2.487 2.082,-3.995 -13.485,4.732 -26.0700005,1.375 -29.47700049,0.336 0.48999999,1.279 1.10299999,2.425 1.79699999,3.446 11.3500005,3.251 21.5510005,1.204 25.5980005,0.213 z"
     id="path14"
     inkscape:connector-curvature="0"
     style="fill:#3b88c3" />
  <path
     d="m 0.17196151,15.056 c 1.39599999,0.6 15.48800049,5.046 30.49800049,0.087 0,0.652 -0.411,2.477 -0.653,3.175 -0.391,1.132 -15.401,4.83 -28.8880005,0.261 -0.39199999,-0.173 -1.56599999,-3.784 -0.95699999,-3.523 z"
     id="path16"
     inkscape:connector-curvature="0"
     style="fill:#55acee" />
</svg>
