<?xml version="1.0" encoding="UTF-8" standalone="no"?>
<svg
   xmlns:dc="http://purl.org/dc/elements/1.1/"
   xmlns:cc="http://creativecommons.org/ns#"
   xmlns:rdf="http://www.w3.org/1999/02/22-rdf-syntax-ns#"
   xmlns:svg="http://www.w3.org/2000/svg"
   xmlns="http://www.w3.org/2000/svg"
   xmlns:sodipodi="http://sodipodi.sourceforge.net/DTD/sodipodi-0.dtd"
   xmlns:inkscape="http://www.inkscape.org/namespaces/inkscape"
   viewBox="0 0 34.830154 35.424587"
   id="svg2"
   version="1.1"
   inkscape:version="0.91 r13725"
   sodipodi:docname="1f360.svg"
   width="34.830154"
   height="35.424587">
  <metadata
     id="metadata18">
    <rdf:RDF>
      <cc:Work
         rdf:about="">
        <dc:format>image/svg+xml</dc:format>
        <dc:type
           rdf:resource="http://purl.org/dc/dcmitype/StillImage" />
      </cc:Work>
    </rdf:RDF>
  </metadata>
  <defs
     id="defs16" />
  <sodipodi:namedview
     pagecolor="#ffffff"
     bordercolor="#666666"
     borderopacity="1"
     objecttolerance="10"
     gridtolerance="10"
     guidetolerance="10"
     inkscape:pageopacity="0"
     inkscape:pageshadow="2"
     inkscape:window-width="640"
     inkscape:window-height="480"
     id="namedview14"
     showgrid="false"
     inkscape:zoom="6.5555556"
     inkscape:cx="17.069676"
     inkscape:cy="18"
     inkscape:window-x="0"
     inkscape:window-y="0"
     inkscape:window-maximized="0"
     inkscape:current-layer="svg2" />
  <path
     d="m 8.5106757,14.019587 c 0.458,-1.372 7.4100003,-7.5250004 13.2860003,-10.2200004 1.528,-0.701 6.602,-2.83399999 8.35,-3.27099999 3.604,-0.901 5.09,-1.014 4.589,2.64599999 -0.708,5.171 -4.619,12.5960004 -8.707,19.7510004 -2.68,4.213 -4.232,6.423 -10.365,3.356 -6.1300003,-3.064 -9.1960003,-6.13 -7.1530003,-12.262 z"
     id="path4"
     inkscape:connector-curvature="0"
     style="fill:#b90053" />
  <path
     d="m 21.560676,14.184587 c 3.816,3.768 4.498,9.263 1.524,12.276 -2.974,3.014 -8.477,2.4 -12.294,-1.365 -3.8160003,-3.768 -4.4990003,-9.264 -1.5250003,-12.276 2.9750003,-3.0130004 8.4790003,-2.401 12.2950003,1.365 z"
     id="path6"
     inkscape:connector-curvature="0"
     style="fill:#ffcc4d" />
  <path
     d="m 26.029676,5.8015866 c 1.14,0.57 2.703,3.605 2.703,4.5060004 0,0.901 -0.901,-0.9010004 -2.703,-2.7040004 -1.803,-1.802 -1.803,-2.703 0,-1.802 z m 0.181,8.0300004 c 0.607,0.578 1.009,2.787 0.836,3.354 -0.173,0.567 -0.395,-0.74 -1.183,-2.22 -0.789,-1.48 -0.615,-2.047 0.347,-1.134 z"
     id="path8"
     inkscape:connector-curvature="0"
     style="fill:#8e0042" />
  <path
     d="m 20.069676,31.424587 c 0,2.209 -4.477,4 -10,4 -5.5230003,0 -10.00000025,-2 -10.00000025,-4 0,-0.371 -0.203,-2.6 0.084,-2.958 1.25599995,-1.573 5.41799995,-1.042 9.91600025,-1.042 4.908,0 9.133,-0.865 9.979,1 0.107,0.233 0.021,2.754 0.021,3 z"
     id="path10"
     inkscape:connector-curvature="0"
     style="fill:#b90053" />
  <ellipse
     cx="10.069675"
     cy="28.424587"
     rx="10"
     ry="4"
     id="ellipse12"
     style="fill:#ffd671" />
</svg>
