<?xml version="1.0" encoding="UTF-8" standalone="no"?>
<svg
   xmlns:dc="http://purl.org/dc/elements/1.1/"
   xmlns:cc="http://creativecommons.org/ns#"
   xmlns:rdf="http://www.w3.org/1999/02/22-rdf-syntax-ns#"
   xmlns:svg="http://www.w3.org/2000/svg"
   xmlns="http://www.w3.org/2000/svg"
   xmlns:sodipodi="http://sodipodi.sourceforge.net/DTD/sodipodi-0.dtd"
   xmlns:inkscape="http://www.inkscape.org/namespaces/inkscape"
   viewBox="0 0 33.352249 33.353001"
   id="svg2"
   version="1.1"
   inkscape:version="0.91 r13725"
   sodipodi:docname="1f361.svg"
   width="33.352249"
   height="33.353001">
  <metadata
     id="metadata18">
    <rdf:RDF>
      <cc:Work
         rdf:about="">
        <dc:format>image/svg+xml</dc:format>
        <dc:type
           rdf:resource="http://purl.org/dc/dcmitype/StillImage" />
      </cc:Work>
    </rdf:RDF>
  </metadata>
  <defs
     id="defs16" />
  <sodipodi:namedview
     pagecolor="#ffffff"
     bordercolor="#666666"
     borderopacity="1"
     objecttolerance="10"
     gridtolerance="10"
     guidetolerance="10"
     inkscape:pageopacity="0"
     inkscape:pageshadow="2"
     inkscape:window-width="640"
     inkscape:window-height="480"
     id="namedview14"
     showgrid="false"
     inkscape:zoom="6.5555556"
     inkscape:cx="16.25"
     inkscape:cy="17.228"
     inkscape:window-x="0"
     inkscape:window-y="0"
     inkscape:window-maximized="0"
     inkscape:current-layer="svg2" />
  <path
     d="m 32.125,33.353 c -0.314,0 -0.628,-0.12 -0.868,-0.359 L 0.616,2.352 c -0.479,-0.479 -0.479,-1.257 0,-1.736 0.479,-0.479 1.257,-0.479 1.736,0 l 30.641,30.641 c 0.479,0.479 0.479,1.257 0,1.736 -0.24,0.239 -0.554,0.36 -0.868,0.36 z"
     id="path4"
     inkscape:connector-curvature="0"
     style="fill:#d99e82" />
  <path
     d="m 13.504,6.752 c 0,3.729 -3.023,6.752 -6.752,6.752 C 3.023,13.504 0,10.481 0,6.752 0,3.023 3.023,0 6.752,0 c 3.729,0 6.752,3.023 6.752,6.752 z"
     id="path6"
     inkscape:connector-curvature="0"
     style="fill:#fcb1e3" />
  <circle
     transform="matrix(0.22981194,-0.97323506,0.97323506,0.22981194,0,0)"
     cx="-10.497161"
     cy="16.986794"
     id="ellipse8"
     r="6.7519999"
     style="fill:#ffd983" />
  <path
     d="m 28.237,21.484 c 0,3.729 -3.024,6.753 -6.753,6.753 -3.729,0 -6.752,-3.024 -6.752,-6.753 0,-3.729 3.023,-6.752 6.752,-6.752 3.729,0 6.753,3.024 6.753,6.752 z"
     id="path10"
     inkscape:connector-curvature="0"
     style="fill:#a6d388" />
  <path
     d="m 32.125,33.353 c -0.314,0 -0.628,-0.12 -0.868,-0.359 l -7.52,-7.52 c -0.48,-0.479 -0.48,-1.257 0,-1.736 0.48,-0.479 1.256,-0.479 1.736,0 l 7.52,7.52 c 0.479,0.479 0.479,1.257 0,1.736 -0.24,0.238 -0.554,0.359 -0.868,0.359 z"
     id="path12"
     inkscape:connector-curvature="0"
     style="fill:#d99e82" />
</svg>
