<?xml version="1.0" encoding="UTF-8" standalone="no"?>
<svg
   xmlns:dc="http://purl.org/dc/elements/1.1/"
   xmlns:cc="http://creativecommons.org/ns#"
   xmlns:rdf="http://www.w3.org/1999/02/22-rdf-syntax-ns#"
   xmlns:svg="http://www.w3.org/2000/svg"
   xmlns="http://www.w3.org/2000/svg"
   xmlns:sodipodi="http://sodipodi.sourceforge.net/DTD/sodipodi-0.dtd"
   xmlns:inkscape="http://www.inkscape.org/namespaces/inkscape"
   viewBox="0 0 23.288 35.473"
   id="svg2"
   version="1.1"
   inkscape:version="0.91 r13725"
   sodipodi:docname="1f377.svg"
   width="23.288"
   height="35.473">
  <metadata
     id="metadata20">
    <rdf:RDF>
      <cc:Work
         rdf:about="">
        <dc:format>image/svg+xml</dc:format>
        <dc:type
           rdf:resource="http://purl.org/dc/dcmitype/StillImage" />
      </cc:Work>
    </rdf:RDF>
  </metadata>
  <defs
     id="defs18" />
  <sodipodi:namedview
     pagecolor="#ffffff"
     bordercolor="#666666"
     borderopacity="1"
     objecttolerance="10"
     gridtolerance="10"
     guidetolerance="10"
     inkscape:pageopacity="0"
     inkscape:pageshadow="2"
     inkscape:window-width="640"
     inkscape:window-height="480"
     id="namedview16"
     showgrid="false"
     inkscape:zoom="6.5555556"
     inkscape:cx="12.246"
     inkscape:cy="17.98"
     inkscape:window-x="0"
     inkscape:window-y="0"
     inkscape:window-maximized="0"
     inkscape:current-layer="svg2" />
  <path
     d="m 13.246,19.748 c 0,0 10.042,-2.213 10.042,-16.005 0,-1.481 -1.167,-2.25 -3.416,-2.25 l -16.497,0 c -1.125,0 -3.329,-0.262 -3.329,2.125 0,13.708 10.2,16.13 10.2,16.13 l 0,10.123 c 0,0 -4.584,2.34 -5.498,2.883 -0.984,0.562 -0.33,1.462 0.063,1.617 0.656,0.258 2.253,1.102 6.78,1.102 4.641,0 6.202,-0.914 6.765,-1.102 0.217,-0.072 1.347,-0.932 0.011,-1.723 -2.378,-1.408 -5.121,-2.777 -5.121,-2.777 l 0,-10.123 z"
     id="path4"
     inkscape:connector-curvature="0"
     style="fill:#8899a6" />
  <path
     d="M 23.246,2.935 C 23.246,4.556 19.699,5.87 11.623,5.87 3.547,5.87 0,4.556 0,2.935 0,1.313 3.547,0 11.623,0 19.699,0 23.246,1.314 23.246,2.935 Z"
     id="path6"
     inkscape:connector-curvature="0"
     style="fill:#ccd6dd" />
  <path
     d="m 1.704,3.076 c 2.042,9.5 5.458,12.792 8.699,13.835 1.11,0.358 2.026,0.428 2.801,0.123 3.5,-1.375 7.542,-5.667 8.167,-13.583 C 21.532,1.414 1.704,3.076 1.704,3.076 Z"
     id="path8"
     inkscape:connector-curvature="0"
     style="fill:#ccd6dd" />
  <path
     d="m 3.246,8.993 c 0,3.5 3.333,8.5 8.333,8.5 5,0 8.667,-5.458 8.667,-8.458 -6,0 -17,-0.042 -17,-0.042 z"
     id="path10"
     inkscape:connector-curvature="0"
     style="fill:#a0041e" />
  <ellipse
     cx="11.746"
     cy="8.993"
     rx="8.5"
     ry="1.5"
     id="ellipse12"
     style="fill:#dd2e44" />
  <path
     d="M 11.414,6.152 C 6.384,6.152 2.631,5.042 1.613,4.565 1.113,4.331 0.898,3.735 1.132,3.235 1.366,2.734 1.963,2.519 2.462,2.754 c 1.239,0.582 9.455,2.894 18.596,-0.127 0.523,-0.174 1.088,0.112 1.262,0.636 0.174,0.524 -0.111,1.09 -0.636,1.264 -3.676,1.214 -7.209,1.625 -10.27,1.625 z"
     id="path14"
     inkscape:connector-curvature="0"
     style="fill:#ffffff" />
</svg>
