<?xml version="1.0" encoding="UTF-8" standalone="no"?>
<svg
   xmlns:dc="http://purl.org/dc/elements/1.1/"
   xmlns:cc="http://creativecommons.org/ns#"
   xmlns:rdf="http://www.w3.org/1999/02/22-rdf-syntax-ns#"
   xmlns:svg="http://www.w3.org/2000/svg"
   xmlns="http://www.w3.org/2000/svg"
   xmlns:sodipodi="http://sodipodi.sourceforge.net/DTD/sodipodi-0.dtd"
   xmlns:inkscape="http://www.inkscape.org/namespaces/inkscape"
   viewBox="0 0 28.917713 35.98"
   id="svg2"
   version="1.1"
   inkscape:version="0.91 r13725"
   sodipodi:docname="1f379.svg"
   width="28.917713"
   height="35.98">
  <metadata
     id="metadata32">
    <rdf:RDF>
      <cc:Work
         rdf:about="">
        <dc:format>image/svg+xml</dc:format>
        <dc:type
           rdf:resource="http://purl.org/dc/dcmitype/StillImage" />
      </cc:Work>
    </rdf:RDF>
  </metadata>
  <defs
     id="defs30" />
  <sodipodi:namedview
     pagecolor="#ffffff"
     bordercolor="#666666"
     borderopacity="1"
     objecttolerance="10"
     gridtolerance="10"
     guidetolerance="10"
     inkscape:pageopacity="0"
     inkscape:pageshadow="2"
     inkscape:window-width="640"
     inkscape:window-height="480"
     id="namedview28"
     showgrid="false"
     inkscape:zoom="6.5555556"
     inkscape:cx="12.212362"
     inkscape:cy="17.98"
     inkscape:window-x="0"
     inkscape:window-y="0"
     inkscape:window-maximized="0"
     inkscape:current-layer="svg2" />
  <path
     d="m 13.212362,27.255 c 0,0 8,-0.213 9.651,-4.075 1.069,-2.501 -0.609,-9.554 -0.609,-13.93 0,-1.481 -1.167,-2.25 -3.416,-2.25 L 4.3413622,7 c -1.125,0 -3.329,-0.262 -3.329,2.125 0,4.284 -1.76500001,11.341 -0.63400001,13.815 1.87600001,4.102 9.83399981,4.315 9.83399981,4.315 l 0,3.123 c 0,0 -4.5839998,2.34 -5.4979998,2.883 -0.984,0.562 -0.33,1.462 0.063,1.617 0.656,0.258 2.253,1.102 6.7799998,1.102 4.641,0 6.202,-0.914 6.765,-1.102 0.217,-0.072 1.347,-0.932 0.011,-1.723 -2.378,-1.408 -5.121,-2.777 -5.121,-2.777 l 0,-3.123 z"
     id="path4"
     inkscape:connector-curvature="0"
     style="fill:#8899a6" />
  <path
     d="m 22.212362,8.442 c 0,1.621 -2.547,2.935 -10.623,2.935 -8.0759998,0 -10.62299981,-1.314 -10.62299981,-2.935 0,-1.622 2.54700001,-2.935 10.62299981,-2.935 8.076,0 10.623,1.314 10.623,2.935 z"
     id="path6"
     inkscape:connector-curvature="0"
     style="fill:#ccd6dd" />
  <path
     d="m 2.6703622,8.583 c 2.042,9.5 -2.41700001,13.583 2.083,15.167 5.4319998,1.911 8.5419998,1.593 13.4579998,0 4.5,-1.458 1.5,-6.875 2.125,-14.792 C 20.498362,6.921 2.6703622,8.583 2.6703622,8.583 Z"
     id="path8"
     inkscape:connector-curvature="0"
     style="fill:#ccd6dd" />
  <path
     d="m 3.2543622,14.583 c -0.083,1.083 -1.09,6.129 -0.625,7.292 0.5,1.25 1.75,3.25 8.9169998,3.25 5.25,0 8.583,-1.583 9.125,-3.583 0.471,-1.74 -0.25,-5.583 -0.333,-7"
     id="path10"
     inkscape:connector-curvature="0"
     style="fill:#f4900c" />
  <ellipse
     cx="11.712362"
     cy="14.5"
     rx="8.5"
     ry="1.5"
     id="ellipse12"
     style="fill:#ffcc4d" />
  <path
     d="m 18.957362,4.901 c 0,0 -5.922,13.911 -6.231,14.549 -0.377,0.78 0.601,1.874 1.47,0.483 0.868,-1.391 6.741,-13.698 6.741,-13.698 l -1.98,-1.334 z"
     id="path14"
     inkscape:connector-curvature="0"
     style="fill:#c1694f" />
  <path
     d="m 11.522362,11.675 c -4.2909998,0 -7.6719998,-1.007 -8.9429998,-1.603 -0.5,-0.234 -0.715,-0.83 -0.481,-1.33 0.234,-0.501 0.83,-0.716 1.33,-0.481 0.074,0.035 7.7069998,3.276 16.5519998,-0.111 0.514,-0.199 1.094,0.06 1.291,0.576 0.198,0.516 -0.061,1.094 -0.576,1.292 -3.222,1.234 -6.389,1.657 -9.173,1.657 z"
     id="path16"
     inkscape:connector-curvature="0"
     style="fill:#ffffff" />
  <path
     d="m 14.910362,14.386 -0.661,1.544 c 0.697,-0.02 1.447,-0.085 2.084,-0.173 l 0.476,-0.97 c -0.617,0.011 -1.236,-0.116 -1.899,-0.401 z"
     id="path18"
     inkscape:connector-curvature="0"
     style="fill:#ffac33" />
  <path
     d="m 12.726362,19.45 c -0.377,0.78 0.601,1.874 1.47,0.483 0.288,-0.462 1.129,-2.129 2.122,-4.147 -0.589,0.065 -1.355,0.121 -2.077,0.161 -0.807,1.884 -1.421,3.309 -1.515,3.503 z"
     id="path20"
     inkscape:connector-curvature="0"
     style="fill:#cc6f00" />
  <path
     d="m 28.610362,9.624 c -1.02,-1.582 -5.397,-7.694 -5.585,-7.957 -0.188,-0.261 -0.491,-0.417 -0.813,-0.417 -1.459,0 -4.763,-0.016 -7.233,-0.028 -1.481,-0.007 -2.663,-0.013 -2.975,-0.013 -0.648,0 -1.18,0.425 -1.324,1.059 -0.336,1.48 1.528,4.291 7.892,7.343 4.216,2.021 6.661,2.446 7.97,2.446 l 10e-4,0 c 1.474,0 2.038,-0.551 2.252,-1.013 0.214,-0.466 0.144,-0.991 -0.185,-1.42 z"
     id="path22"
     inkscape:connector-curvature="0"
     style="fill:#77b255" />
  <path
     d="m 20.353362,10.411 c 3.136,1.328 5.078,1.645 6.188,1.645 l 0.001,0 c 1.474,0 2.038,-0.551 2.252,-1.013 0.215,-0.465 0.146,-0.99 -0.184,-1.419 -0.653,-1.013 -2.681,-3.881 -4.106,-5.884 0.812,2.577 1.111,6.467 -4.151,6.671 z"
     id="path24"
     inkscape:connector-curvature="0"
     style="fill:#5c913b" />
  <circle
     cx="22.400362"
     cy="1.688"
     r="1.688"
     id="circle26"
     style="fill:#3e721d" />
</svg>
