<?xml version="1.0" encoding="UTF-8" standalone="no"?>
<svg
   xmlns:dc="http://purl.org/dc/elements/1.1/"
   xmlns:cc="http://creativecommons.org/ns#"
   xmlns:rdf="http://www.w3.org/1999/02/22-rdf-syntax-ns#"
   xmlns:svg="http://www.w3.org/2000/svg"
   xmlns="http://www.w3.org/2000/svg"
   xmlns:sodipodi="http://sodipodi.sourceforge.net/DTD/sodipodi-0.dtd"
   xmlns:inkscape="http://www.inkscape.org/namespaces/inkscape"
   viewBox="0 0 24 36"
   id="svg2"
   version="1.1"
   inkscape:version="0.91 r13725"
   sodipodi:docname="1f374.svg"
   width="24"
   height="36">
  <metadata
     id="metadata10">
    <rdf:RDF>
      <cc:Work
         rdf:about="">
        <dc:format>image/svg+xml</dc:format>
        <dc:type
           rdf:resource="http://purl.org/dc/dcmitype/StillImage" />
      </cc:Work>
    </rdf:RDF>
  </metadata>
  <defs
     id="defs8" />
  <sodipodi:namedview
     pagecolor="#ffffff"
     bordercolor="#666666"
     borderopacity="1"
     objecttolerance="10"
     gridtolerance="10"
     guidetolerance="10"
     inkscape:pageopacity="0"
     inkscape:pageshadow="2"
     inkscape:window-width="640"
     inkscape:window-height="480"
     id="namedview6"
     showgrid="false"
     inkscape:zoom="6.5555556"
     inkscape:cx="12"
     inkscape:cy="18"
     inkscape:window-x="0"
     inkscape:window-y="0"
     inkscape:window-maximized="0"
     inkscape:current-layer="svg2" />
  <path
     d="M 13,1.5 C 13,0.671 12.328,0 11.5,0 10.671,0 10,0.671 10,1.5 L 10,11 C 10,11.552 9.552,12 9,12 8.448,12 8,11.552 8,11 L 8,1.5 C 8,0.671 7.329,0 6.5,0 5.671,0 5,0.671 5,1.5 L 5,11 C 5,11.552 4.552,12 4,12 3.448,12 3,11.552 3,11 L 3,1.5 C 3,0.671 2.329,0 1.5,0 0.671,0 0,0.671 0,1.5 l 0,9 c 0,0.127 0.021,0.249 0.051,0.367 C 0.021,11.074 0,11.284 0,11.5 c 0,2.316 1.75,5.957 4,6.442 L 4,33.5 C 4,34.881 5.119,36 6.5,36 7.881,36 9,34.881 9,33.5 L 9,17.942 C 11.25,17.457 13,13.816 13,11.5 13,11.284 12.979,11.074 12.949,10.867 12.979,10.749 13,10.627 13,10.5 l 0,-9 z M 21.5,0 C 21.396,0 21.296,0.019 21.194,0.031 21.13,0.021 21.067,0 21,0 c -2.209,0 -5,5.477 -5,11 0,4.658 1.275,8.56 3,9.672 L 19,33.5 c 0,1.381 1.119,2.5 2.5,2.5 1.381,0 2.5,-1.119 2.5,-2.5 l 0,-31 C 24,1.119 22.881,0 21.5,0 Z"
     id="path4"
     inkscape:connector-curvature="0"
     style="fill:#99aab5" />
</svg>
