<?xml version="1.0" encoding="UTF-8" standalone="no"?>
<svg
   xmlns:dc="http://purl.org/dc/elements/1.1/"
   xmlns:cc="http://creativecommons.org/ns#"
   xmlns:rdf="http://www.w3.org/1999/02/22-rdf-syntax-ns#"
   xmlns:svg="http://www.w3.org/2000/svg"
   xmlns="http://www.w3.org/2000/svg"
   xmlns:sodipodi="http://sodipodi.sourceforge.net/DTD/sodipodi-0.dtd"
   xmlns:inkscape="http://www.inkscape.org/namespaces/inkscape"
   viewBox="0 0 34 36"
   id="svg2"
   version="1.1"
   inkscape:version="0.91 r13725"
   sodipodi:docname="1f37a.svg"
   width="34"
   height="36">
  <metadata
     id="metadata18">
    <rdf:RDF>
      <cc:Work
         rdf:about="">
        <dc:format>image/svg+xml</dc:format>
        <dc:type
           rdf:resource="http://purl.org/dc/dcmitype/StillImage" />
      </cc:Work>
    </rdf:RDF>
  </metadata>
  <defs
     id="defs16" />
  <sodipodi:namedview
     pagecolor="#ffffff"
     bordercolor="#666666"
     borderopacity="1"
     objecttolerance="10"
     gridtolerance="10"
     guidetolerance="10"
     inkscape:pageopacity="0"
     inkscape:pageshadow="2"
     inkscape:window-width="640"
     inkscape:window-height="480"
     id="namedview14"
     showgrid="false"
     inkscape:zoom="6.5555556"
     inkscape:cx="17"
     inkscape:cy="18"
     inkscape:window-x="0"
     inkscape:window-y="0"
     inkscape:window-maximized="0"
     inkscape:current-layer="svg2" />
  <path
     d="m 30,5.718 -6,0 0,4 4,0 c 0,0 2,0 2,2 l 0,12 c 0,2 -2,2 -2,2 l -4,0 0,4 6,0 c 2.206,0 4,-1.794 4,-4 l 0,-16 c 0,-2.206 -1.794,-4 -4,-4 z"
     id="path4"
     inkscape:connector-curvature="0"
     style="fill:#ffac33" />
  <path
     d="M 26,6 2,6 2,32 c 0,2.209 1.791,4 4,4 l 16,0 c 2.209,0 4,-1.791 4,-4 L 26,6 Z"
     id="path6"
     inkscape:connector-curvature="0"
     style="fill:#ffcc4d" />
  <path
     d="m 7.5,32 c -0.552,0 -1,-0.447 -1,-1 l 0,-16 c 0,-0.552 0.448,-1 1,-1 0.552,0 1,0.448 1,1 l 0,16 c 0,0.553 -0.448,1 -1,1 z m 6.5,0 c -0.552,0 -1,-0.447 -1,-1 l 0,-16 c 0,-0.552 0.448,-1 1,-1 0.552,0 1,0.448 1,1 l 0,16 c 0,0.553 -0.448,1 -1,1 z m 6.5,0 c -0.553,0 -1,-0.447 -1,-1 l 0,-16 c 0,-0.552 0.447,-1 1,-1 0.553,0 1,0.448 1,1 l 0,16 c 0,0.553 -0.447,1 -1,1 z"
     id="path8"
     inkscape:connector-curvature="0"
     style="fill:#f4900c" />
  <path
     d="m 2,5 0,7.445 C 2.59,12.789 3.268,13 4,13 5.674,13 7.104,11.969 7.701,10.509 8.051,10.811 8.502,11 9,11 9.677,11 10.273,10.662 10.635,10.147 11.345,11.258 12.583,12 14,12 15.301,12 16.445,11.369 17.176,10.407 17.54,11.338 18.44,12 19.5,12 c 0.949,0 1.765,-0.535 2.188,-1.314 l 0.147,-0.361 c 0.497,0.271 1.059,0.439 1.665,0.439 0.981,0 1.865,-0.406 2.5,-1.056 L 26,5 2,5 Z"
     id="path10"
     inkscape:connector-curvature="0"
     style="fill:#ffac33" />
  <path
     d="M 23,0 3,0 C 1.343,0 0,1.343 0,3 L 0,7 C 0,9.209 1.791,11 4,11 5.674,11 7.104,9.969 7.701,8.509 8.051,8.811 8.502,9 9,9 9.677,9 10.273,8.662 10.635,8.147 11.345,9.258 12.583,10 14,10 15.301,10 16.445,9.369 17.176,8.407 17.54,9.338 18.44,10 19.5,10 20.449,10 21.265,9.465 21.688,8.686 22.086,8.881 22.527,9 23,9 24.657,9 26,7.657 26,6 L 26,3 C 26,1.343 24.657,0 23,0 Z"
     id="path12"
     inkscape:connector-curvature="0"
     style="fill:#eeeeee" />
</svg>
