<?xml version="1.0" encoding="UTF-8" standalone="no"?>
<svg
   xmlns:dc="http://purl.org/dc/elements/1.1/"
   xmlns:cc="http://creativecommons.org/ns#"
   xmlns:rdf="http://www.w3.org/1999/02/22-rdf-syntax-ns#"
   xmlns:svg="http://www.w3.org/2000/svg"
   xmlns="http://www.w3.org/2000/svg"
   xmlns:sodipodi="http://sodipodi.sourceforge.net/DTD/sodipodi-0.dtd"
   xmlns:inkscape="http://www.inkscape.org/namespaces/inkscape"
   viewBox="0 0 34.364784 26.755545"
   id="svg2"
   version="1.1"
   inkscape:version="0.91 r13725"
   sodipodi:docname="1f372.svg"
   width="34.364784"
   height="26.755545">
  <metadata
     id="metadata24">
    <rdf:RDF>
      <cc:Work
         rdf:about="">
        <dc:format>image/svg+xml</dc:format>
        <dc:type
           rdf:resource="http://purl.org/dc/dcmitype/StillImage" />
      </cc:Work>
    </rdf:RDF>
  </metadata>
  <defs
     id="defs22" />
  <sodipodi:namedview
     pagecolor="#ffffff"
     bordercolor="#666666"
     borderopacity="1"
     objecttolerance="10"
     gridtolerance="10"
     guidetolerance="10"
     inkscape:pageopacity="0"
     inkscape:pageshadow="2"
     inkscape:window-width="640"
     inkscape:window-height="480"
     id="namedview20"
     showgrid="false"
     inkscape:zoom="6.5555556"
     inkscape:cx="17.36477"
     inkscape:cy="17.127778"
     inkscape:window-x="0"
     inkscape:window-y="0"
     inkscape:window-maximized="0"
     inkscape:current-layer="svg2" />
  <path
     d="M 12.40177,26.443766 C 0.1587705,24.640766 0.3647705,12.346766 0.3647705,8.6277659 l 33.9999995,0 c 0,1.9140001 0.087,15.7700001 -13.125,17.9180001 -2.042,0.332 -6.458,0.249 -8.838,-0.102 z"
     id="path4"
     inkscape:connector-curvature="0"
     style="fill:#292f33" />
  <path
     d="m 32.75277,4.8747659 c 2.467,-5.574 -8.331,-5.254 -11.035,-4.382 -1.392,-0.162 -2.846,-0.254 -4.353,-0.254 -9.3889995,0 -16.9999995,3.228 -16.9999995,8.444 0,1.009 0.291,1.9790001 0.818,2.8910001 -4.327,5.712 4.246,6.786 9.1839995,5.71 2.136,0.537 4.5,0.844 6.998,0.844 9.389,0 17,-4.229 17,-9.4440001 0,-1.43 -0.589,-2.704 -1.612,-3.809 z"
     id="path6"
     inkscape:connector-curvature="0"
     style="fill:#66757f" />
  <ellipse
     cx="17.364771"
     cy="9.6277657"
     rx="15"
     ry="7"
     id="ellipse8"
     style="fill:#ffcc4d" />
  <path
     d="m 3.3647705,7.6277659 c -0.542,-2.169 2,-6 6.9999995,-5 1,-1 2.838,-2 6,-2 2,0 5.612,1.775 4,5 -1,2 -5,5.0000001 -10,3 -0.9999995,1 -5.9999995,3.0000001 -6.9999995,-1 z"
     id="path10"
     inkscape:connector-curvature="0"
     style="fill:#77b255" />
  <path
     d="m 11.36477,8.6277659 c -0.249,0.036 -0.471,0.073 -0.678,0.111 4.848,1.7460001 8.7,-1.155 9.678,-3.111 1.078,-2.156 -0.181,-3.66 -1.731,-4.423 0.394,1.822 -1.128,6.546 -7.269,7.423 z"
     id="path12"
     inkscape:connector-curvature="0"
     style="fill:#5c913b" />
  <path
     d="m 4.3647705,7.6277659 c 0.525,-1.313 5,-3 9.9999995,3.0000001 1,1 4.586,1.586 6,3 1,1 0,2 -4,2 -4,0 -13.9999995,-3 -11.9999995,-8.0000001 z"
     id="path14"
     inkscape:connector-curvature="0"
     style="fill:#d99e82" />
  <path
     d="m 5.4057705,11.645766 c 2.548,2.543 8.1899995,3.982 10.9589995,3.982 4,0 5,-1 4,-2 -0.326,-0.326 -0.77,-0.607 -1.268,-0.86 -3.204,1.733 -11.6799995,-0.144 -13.6909995,-1.122 z"
     id="path16"
     inkscape:connector-curvature="0"
     style="fill:#b27962" />
  <path
     d="m 26.36477,10.628766 c -0.209,0 -0.423,-0.034 -0.633,-0.104 l -3,-1.0000001 c -1.048,-0.35 -1.614,-1.482 -1.265,-2.53 0.349,-1.047 1.479,-1.614 2.53,-1.265 l 3,1 c 1.048,0.35 1.614,1.482 1.265,2.53 -0.279,0.8390001 -1.059,1.3690001 -1.897,1.3690001 z m -1,2.999 -2,0 c -0.553,0 -1,-0.447 -1,-1 0,-0.553 0.447,-1 1,-1 l 2,0 c 0.553,0 1,0.447 1,1 0,0.553 -0.447,1 -1,1 z"
     id="path18"
     inkscape:connector-curvature="0"
     style="fill:#ffe8b6" />
</svg>
