<?xml version="1.0" encoding="UTF-8" standalone="no"?>
<svg
   xmlns:dc="http://purl.org/dc/elements/1.1/"
   xmlns:cc="http://creativecommons.org/ns#"
   xmlns:rdf="http://www.w3.org/1999/02/22-rdf-syntax-ns#"
   xmlns:svg="http://www.w3.org/2000/svg"
   xmlns="http://www.w3.org/2000/svg"
   xmlns:sodipodi="http://sodipodi.sourceforge.net/DTD/sodipodi-0.dtd"
   xmlns:inkscape="http://www.inkscape.org/namespaces/inkscape"
   viewBox="0 0 34.47522 36"
   id="svg2"
   version="1.1"
   inkscape:version="0.91 r13725"
   sodipodi:docname="1f38f.svg"
   width="34.47522"
   height="36">
  <metadata
     id="metadata32">
    <rdf:RDF>
      <cc:Work
         rdf:about="">
        <dc:format>image/svg+xml</dc:format>
        <dc:type
           rdf:resource="http://purl.org/dc/dcmitype/StillImage" />
      </cc:Work>
    </rdf:RDF>
  </metadata>
  <defs
     id="defs30" />
  <sodipodi:namedview
     pagecolor="#ffffff"
     bordercolor="#666666"
     borderopacity="1"
     objecttolerance="10"
     gridtolerance="10"
     guidetolerance="10"
     inkscape:pageopacity="0"
     inkscape:pageshadow="2"
     inkscape:window-width="640"
     inkscape:window-height="480"
     id="namedview28"
     showgrid="false"
     inkscape:zoom="6.5555556"
     inkscape:cx="17"
     inkscape:cy="18"
     inkscape:window-x="0"
     inkscape:window-y="0"
     inkscape:window-maximized="0"
     inkscape:current-layer="svg2" />
  <path
     d="M 2,3 4,3 4,36 2,36 Z"
     id="path4"
     inkscape:connector-curvature="0"
     style="fill:#ccd6dd" />
  <circle
     cx="3"
     cy="3"
     r="3"
     id="circle6"
     style="fill:#f4900c" />
  <path
     d="M 8,28 3,28 C 2.448,28 2,27.553 2,27 2,26.447 2.448,26 3,26 l 5,0 c 0.552,0 1,0.447 1,1 0,0.553 -0.448,1 -1,1 z"
     id="path8"
     inkscape:connector-curvature="0"
     style="fill:#66757f" />
  <path
     d="m 30,27 c 0,-2.209 6.209,-6 4,-6 l -8.447,0 C 24.35,19.536 20.958,18 18.5,18 c -2.459,0 -3.23,1.536 -3.435,3 L 9,21 c -2.209,0 -3,1.791 -3,4 l 0,4 c 0,2.209 0.791,4 3,4 l 25,0 c 2.209,0 -4,-3.791 -4,-6 z"
     id="path10"
     inkscape:connector-curvature="0"
     style="fill:#dd2e44" />
  <circle
     cx="11"
     cy="25"
     r="3"
     id="circle12"
     style="fill:#ffffff" />
  <circle
     cx="10.5"
     cy="24.5"
     r="1.5"
     id="circle14" />
  <path
     d="m 34,21 -19.038,0 c 2.068,2.286 4.742,6.465 -0.037,12 L 34,33 c 2.209,0 -4,-3.791 -4,-6 0,-2.209 6.209,-6 4,-6 z"
     id="path16"
     inkscape:connector-curvature="0"
     style="fill:#f4abba" />
  <path
     d="M 8,12 3,12 C 2.448,12 2,11.552 2,11 2,10.448 2.448,10 3,10 l 5,0 c 0.552,0 1,0.448 1,1 0,0.552 -0.448,1 -1,1 z"
     id="path18"
     inkscape:connector-curvature="0"
     style="fill:#66757f" />
  <path
     d="M 30,11 C 30,8.791 36.209,5 34,5 L 25.554,5 C 24.351,3.536 20.959,2 18.5,2 16.041,2 15.27,3.536 15.065,5 L 9,5 C 6.791,5 6,6.791 6,9 l 0,4 c 0,2.209 0.791,4 3,4 l 25,0 c 2.209,0 -4,-3.791 -4,-6 z"
     id="path20"
     inkscape:connector-curvature="0"
     style="fill:#55acee" />
  <circle
     cx="11"
     cy="9"
     r="3"
     id="circle22"
     style="fill:#ffffff" />
  <circle
     cx="10.5"
     cy="8.5"
     r="1.5"
     id="circle24" />
  <path
     d="M 34,5 14.962,5 c 2.068,2.286 4.742,6.465 -0.037,12 L 34,17 c 2.209,0 -4,-3.791 -4,-6 0,-2.209 6.209,-6 4,-6 z"
     id="path26"
     inkscape:connector-curvature="0"
     style="fill:#bbddf5" />
</svg>
