<?xml version="1.0" encoding="UTF-8" standalone="no"?>
<svg
   xmlns:dc="http://purl.org/dc/elements/1.1/"
   xmlns:cc="http://creativecommons.org/ns#"
   xmlns:rdf="http://www.w3.org/1999/02/22-rdf-syntax-ns#"
   xmlns:svg="http://www.w3.org/2000/svg"
   xmlns="http://www.w3.org/2000/svg"
   xmlns:sodipodi="http://sodipodi.sourceforge.net/DTD/sodipodi-0.dtd"
   xmlns:inkscape="http://www.inkscape.org/namespaces/inkscape"
   viewBox="0 0 36 34.195869"
   id="svg2"
   version="1.1"
   inkscape:version="0.91 r13725"
   sodipodi:docname="1f381.svg"
   width="36"
   height="34.195869">
  <metadata
     id="metadata18">
    <rdf:RDF>
      <cc:Work
         rdf:about="">
        <dc:format>image/svg+xml</dc:format>
        <dc:type
           rdf:resource="http://purl.org/dc/dcmitype/StillImage" />
      </cc:Work>
    </rdf:RDF>
  </metadata>
  <defs
     id="defs16" />
  <sodipodi:namedview
     pagecolor="#ffffff"
     bordercolor="#666666"
     borderopacity="1"
     objecttolerance="10"
     gridtolerance="10"
     guidetolerance="10"
     inkscape:pageopacity="0"
     inkscape:pageshadow="2"
     inkscape:window-width="640"
     inkscape:window-height="480"
     id="namedview14"
     showgrid="false"
     inkscape:zoom="6.5555556"
     inkscape:cx="18"
     inkscape:cy="17"
     inkscape:window-x="0"
     inkscape:window-y="0"
     inkscape:window-maximized="0"
     inkscape:current-layer="svg2" />
  <path
     d="m 33,30.195871 c 0,2.2 -1.8,4 -4,4 l -22,0 c -2.2,0 -4,-1.8 -4,-4 l 0,-17 c 0,-2.2 1.8,-4.0000002 4,-4.0000002 l 22,0 c 2.2,0 4,1.8000002 4,4.0000002 l 0,17 z"
     id="path4"
     inkscape:connector-curvature="0"
     style="fill:#fdd888" />
  <path
     d="m 36,10.195871 c 0,2.2 -1.8,4 -4,4 l -28,0 c -2.2,0 -4,-1.8 -4,-4 C 0,7.9958708 1.8,6.1958708 4,6.1958708 l 28,0 c 2.2,0 4,1.8 4,4.0000002 z"
     id="path6"
     inkscape:connector-curvature="0"
     style="fill:#fdd888" />
  <path
     d="m 3,14.195871 30,0 0,2 -30,0 z"
     id="path8"
     inkscape:connector-curvature="0"
     style="fill:#fcab40" />
  <path
     d="m 19,2.1958708 -2,0 c -1.657,0 -3,1.343 -3,3 l 0,29.0000002 8,0 0,-29.0000002 c 0,-1.656 -1.343,-3 -3,-3 z"
     id="path10"
     inkscape:connector-curvature="0"
     style="fill:#da2f47" />
  <path
     d="m 16,6.1958708 c 1.1,0 1.263,-0.516 0.361,-1.147 l -6.722,-4.706 c -0.902,-0.631 -2.085,-0.366 -2.631,0.589 l -2.016,3.528 c -0.546,0.955 -0.092,1.736 1.008,1.736 l 10,0 z m 4,0 c -1.1,0 -1.263,-0.516 -0.361,-1.147 l 6.723,-4.706 c 0.901,-0.631 2.085,-0.366 2.631,0.589 l 2.016,3.527 c 0.545,0.956 0.091,1.737 -1.009,1.737 l -10,0 z"
     id="path12"
     inkscape:connector-curvature="0"
     style="fill:#da2f47" />
</svg>
