<?xml version="1.0" encoding="UTF-8" standalone="no"?>
<svg
   xmlns:dc="http://purl.org/dc/elements/1.1/"
   xmlns:cc="http://creativecommons.org/ns#"
   xmlns:rdf="http://www.w3.org/1999/02/22-rdf-syntax-ns#"
   xmlns:svg="http://www.w3.org/2000/svg"
   xmlns="http://www.w3.org/2000/svg"
   xmlns:sodipodi="http://sodipodi.sourceforge.net/DTD/sodipodi-0.dtd"
   xmlns:inkscape="http://www.inkscape.org/namespaces/inkscape"
   viewBox="0 0 36 35.667133"
   id="svg2"
   version="1.1"
   inkscape:version="0.91 r13725"
   sodipodi:docname="1f383.svg"
   width="36"
   height="35.667133">
  <metadata
     id="metadata14">
    <rdf:RDF>
      <cc:Work
         rdf:about="">
        <dc:format>image/svg+xml</dc:format>
        <dc:type
           rdf:resource="http://purl.org/dc/dcmitype/StillImage" />
      </cc:Work>
    </rdf:RDF>
  </metadata>
  <defs
     id="defs12" />
  <sodipodi:namedview
     pagecolor="#ffffff"
     bordercolor="#666666"
     borderopacity="1"
     objecttolerance="10"
     gridtolerance="10"
     guidetolerance="10"
     inkscape:pageopacity="0"
     inkscape:pageshadow="2"
     inkscape:window-width="640"
     inkscape:window-height="480"
     id="namedview10"
     showgrid="false"
     inkscape:zoom="6.5555556"
     inkscape:cx="18"
     inkscape:cy="17.875132"
     inkscape:window-x="0"
     inkscape:window-y="0"
     inkscape:window-maximized="0"
     inkscape:current-layer="svg2" />
  <path
     d="M 32.664,8.311 C 29.364,4.926 23.42,4.542 18,4.542 12.58,4.542 6.636,4.926 3.336,8.311 0.582,11.136 0,15.543 0,19.583 c 0,5.263 1.982,11.311 6.357,14.244 3.007,2.016 7.593,1.836 11.643,1.836 4.05,0 8.636,0.18 11.643,-1.836 C 34.018,30.893 36,24.846 36,19.583 36,15.543 35.418,11.136 32.664,8.311 Z"
     id="path4"
     inkscape:connector-curvature="0"
     style="fill:#f4900c" />
  <path
     d="M 20.783,5.236 C 20.852,5.656 20.561,6 20.136,6 L 15.685,6 C 15.259,6 14.968,5.656 15.038,5.236 L 15.783,0.764 C 15.853,0.343 16.259,0 16.685,0 l 2.451,0 c 0.426,0 0.832,0.344 0.901,0.764 l 0.746,4.472 z"
     id="path6"
     inkscape:connector-curvature="0"
     style="fill:#3f7123" />
  <path
     d="m 20.654,20.951 -1.598,-2.596 c -0.291,-0.542 -0.673,-0.813 -1.057,-0.817 -0.383,0.004 -0.766,0.275 -1.057,0.817 l -1.598,2.596 c -0.587,1.093 0.873,1.716 2.654,1.716 1.781,0 3.243,-0.624 2.656,-1.716 z m 9.508,3.192 c -0.045,-0.075 -0.126,-0.121 -0.214,-0.121 l -0.841,0 c -0.068,0 -0.134,0.028 -0.181,0.077 l -2.231,2.334 -2.698,-2.169 c -0.051,-0.041 -0.117,-0.058 -0.185,-0.053 -0.066,0.007 -0.127,0.041 -0.168,0.094 l -2.408,3.062 -3.054,-3.266 c -0.013,-0.014 -0.033,-0.017 -0.048,-0.028 -0.015,-0.01 -0.025,-0.027 -0.043,-0.034 -0.006,-0.002 -0.013,0 -0.019,-0.002 C 18.048,24.03 18.025,24.032 18,24.032 c -0.025,0 -0.048,-0.002 -0.072,0.006 -0.006,0.002 -0.013,-0.001 -0.02,0.002 -0.018,0.007 -0.027,0.024 -0.043,0.034 -0.016,0.01 -0.035,0.013 -0.048,0.027 l -3.053,3.266 -2.409,-3.062 c -0.041,-0.053 -0.102,-0.087 -0.168,-0.094 -0.066,-0.006 -0.133,0.012 -0.185,0.053 L 9.304,26.433 7.074,24.099 C 7.027,24.05 6.962,24.022 6.893,24.022 l -0.841,0 c -0.087,0 -0.169,0.046 -0.214,0.121 -0.045,0.075 -0.048,0.168 -0.007,0.245 l 2.754,5.219 c 0.034,0.064 0.093,0.11 0.164,0.127 0.071,0.017 0.145,0.002 0.203,-0.04 l 2.034,-1.458 3.004,3.633 c 0.043,0.053 0.106,0.085 0.174,0.09 l 0.019,0.001 c 0.062,0 0.121,-0.022 0.167,-0.063 l 3.65,-3.269 3.65,3.268 c 0.046,0.041 0.105,0.063 0.167,0.063 l 0.019,-0.001 c 0.068,-0.005 0.131,-0.037 0.174,-0.09 l 3.005,-3.633 2.034,1.458 c 0.06,0.043 0.133,0.06 0.203,0.04 0.07,-0.017 0.13,-0.062 0.163,-0.126 l 2.755,-5.219 c 0.04,-0.077 0.038,-0.17 -0.008,-0.245 z m -2.186,-8.93 c 0.129,2.127 -0.784,3.806 -3.205,3.953 -2.42,0.146 -3.529,-1.411 -3.658,-3.537 -0.129,-2.126 1.232,-5.12 3.127,-5.234 1.896,-0.116 3.608,2.691 3.736,4.818 z m -19.952,0 c -0.129,2.127 0.784,3.806 3.205,3.953 2.42,0.146 3.529,-1.411 3.658,-3.537 0.129,-2.126 -1.232,-5.12 -3.127,-5.234 -1.895,-0.114 -3.608,2.691 -3.736,4.818 z"
     id="path8"
     inkscape:connector-curvature="0"
     style="fill:#642116" />
</svg>
