<?xml version="1.0" encoding="UTF-8" standalone="no"?>
<svg
   xmlns:dc="http://purl.org/dc/elements/1.1/"
   xmlns:cc="http://creativecommons.org/ns#"
   xmlns:rdf="http://www.w3.org/1999/02/22-rdf-syntax-ns#"
   xmlns:svg="http://www.w3.org/2000/svg"
   xmlns="http://www.w3.org/2000/svg"
   xmlns:sodipodi="http://sodipodi.sourceforge.net/DTD/sodipodi-0.dtd"
   xmlns:inkscape="http://www.inkscape.org/namespaces/inkscape"
   viewBox="0 0 33 35"
   id="svg2"
   version="1.1"
   inkscape:version="0.91 r13725"
   sodipodi:docname="1f38d.svg"
   width="33"
   height="35">
  <metadata
     id="metadata26">
    <rdf:RDF>
      <cc:Work
         rdf:about="">
        <dc:format>image/svg+xml</dc:format>
        <dc:type
           rdf:resource="http://purl.org/dc/dcmitype/StillImage" />
      </cc:Work>
    </rdf:RDF>
  </metadata>
  <defs
     id="defs24" />
  <sodipodi:namedview
     pagecolor="#ffffff"
     bordercolor="#666666"
     borderopacity="1"
     objecttolerance="10"
     gridtolerance="10"
     guidetolerance="10"
     inkscape:pageopacity="0"
     inkscape:pageshadow="2"
     inkscape:window-width="640"
     inkscape:window-height="480"
     id="namedview22"
     showgrid="false"
     inkscape:zoom="6.5555556"
     inkscape:cx="16"
     inkscape:cy="17"
     inkscape:window-x="0"
     inkscape:window-y="0"
     inkscape:window-maximized="0"
     inkscape:current-layer="svg2" />
  <path
     d="M 30,30.529 C 30,32.998 27.969,35 25.5,35 23.031,35 21,32.998 21,30.529 L 21,18.588 C 21,16.119 23.031,13 25.5,13 c 2.469,0 4.5,3.119 4.5,5.588 l 0,11.941 z"
     id="path4"
     inkscape:connector-curvature="0"
     style="fill:#77b255" />
  <path
     d="m 19.456,5.588 c 0,2.198 -1.337,3.98 -2.985,3.98 -1.648,0 -2.985,-1.782 -2.985,-3.98 0,-2.198 1.337,-3.98 2.985,-3.98 1.648,0 2.985,1.782 2.985,3.98 z"
     id="path6"
     inkscape:connector-curvature="0"
     style="fill:#ffe8b6" />
  <path
     d="M 21,30.529 C 21,32.998 18.969,35 16.5,35 14.031,35 12,32.998 12,30.529 L 12,5.588 C 12,3.119 14.031,0 16.5,0 18.969,0 21,3.119 21,5.588 l 0,24.941 z"
     id="path8"
     inkscape:connector-curvature="0"
     style="fill:#77b255" />
  <path
     d="m 19.456,5.588 c 0,2.198 -1.337,3.98 -2.985,3.98 -1.648,0 -2.985,-1.782 -2.985,-3.98 0,-2.198 1.337,-3.98 2.985,-3.98 1.648,0 2.985,1.782 2.985,3.98 z m 9,13 c 0,2.199 -1.337,3.98 -2.985,3.98 -1.648,0 -2.985,-1.781 -2.985,-3.98 0,-2.198 1.337,-3.981 2.985,-3.981 1.648,0.001 2.985,1.783 2.985,3.981 z"
     id="path10"
     inkscape:connector-curvature="0"
     style="fill:#ffe8b6" />
  <path
     d="M 12,30.529 C 12,32.998 9.969,35 7.5,35 5.031,35 3,32.998 3,30.529 L 3,11.588 C 3,9.119 5.031,6 7.5,6 9.969,6 12,9.119 12,11.588 l 0,18.941 z"
     id="path12"
     inkscape:connector-curvature="0"
     style="fill:#77b255" />
  <path
     d="m 10.456,11.588 c 0,2.198 -1.337,3.98 -2.985,3.98 -1.648,0 -2.985,-1.782 -2.985,-3.98 0,-2.198 1.337,-3.98 2.985,-3.98 1.648,0 2.985,1.782 2.985,3.98 z"
     id="path14"
     inkscape:connector-curvature="0"
     style="fill:#ffe8b6" />
  <path
     d="m 22,22 c 0,0.553 -0.447,1 -1,1 l -9,0 c -0.552,0 -1,-0.447 -1,-1 0,-0.553 0.448,-1 1,-1 l 9,0 c 0.553,0 1,0.447 1,1 z m 0,-8 c 0,0.552 -0.447,1 -1,1 l -9,0 c -0.552,0 -1,-0.448 -1,-1 0,-0.552 0.448,-1 1,-1 l 9,0 c 0.553,0 1,0.448 1,1 z m -9,4 c 0,0.553 -0.447,1 -1,1 L 3,19 C 2.448,19 2,18.553 2,18 2,17.447 2.448,17 3,17 l 9,0 c 0.553,0 1,0.447 1,1 z"
     id="path16"
     inkscape:connector-curvature="0"
     style="fill:#5c913b" />
  <path
     d="m 33,32.5 c 0,1.381 -1.119,2.5 -2.5,2.5 l -28,0 C 1.119,35 0,33.881 0,32.5 0,31.119 1.119,30 2.5,30 l 28,0 c 1.381,0 2.5,1.119 2.5,2.5 z"
     id="path18"
     inkscape:connector-curvature="0"
     style="fill:#d99e82" />
  <path
     d="m 29,27 c 0,0 -1.229,-0.565 -3.272,-1.176 -0.645,1.426 -1.299,2.785 -1.561,3.426 -0.52,1.27 -1.125,0.875 -0.925,-0.169 0.102,-0.532 0.461,-2.616 0.736,-3.729 -1.986,-0.486 -4.449,-0.908 -7.162,-0.995 -0.15,1.727 -0.402,3.219 -0.483,4.144 -0.125,1.417 -1.5,1.333 -1.625,0.042 -0.068,-0.702 -0.164,-2.683 -0.26,-4.171 -2.026,0.092 -4.149,0.398 -6.292,1.016 0.091,1.014 0.304,2.885 0.386,3.53 0.186,1.469 -0.553,1.086 -0.833,0.291 C 7.531,28.702 6.889,26.992 6.442,25.95 5.626,26.25 4.811,26.595 4,27 2,28 0,30 0,31 l 0,1 33,0 0,-1 c 0,-1 -2,-3 -4,-4 z"
     id="path20"
     inkscape:connector-curvature="0"
     style="fill:#5c913b" />
</svg>
