<?xml version="1.0" encoding="UTF-8" standalone="no"?>
<svg
   xmlns:dc="http://purl.org/dc/elements/1.1/"
   xmlns:cc="http://creativecommons.org/ns#"
   xmlns:rdf="http://www.w3.org/1999/02/22-rdf-syntax-ns#"
   xmlns:svg="http://www.w3.org/2000/svg"
   xmlns="http://www.w3.org/2000/svg"
   xmlns:sodipodi="http://sodipodi.sourceforge.net/DTD/sodipodi-0.dtd"
   xmlns:inkscape="http://www.inkscape.org/namespaces/inkscape"
   viewBox="0 0 36 35.9025"
   id="svg2"
   version="1.1"
   inkscape:version="0.91 r13725"
   sodipodi:docname="1f382.svg"
   width="36"
   height="35.9025">
  <metadata
     id="metadata32">
    <rdf:RDF>
      <cc:Work
         rdf:about="">
        <dc:format>image/svg+xml</dc:format>
        <dc:type
           rdf:resource="http://purl.org/dc/dcmitype/StillImage" />
      </cc:Work>
    </rdf:RDF>
  </metadata>
  <defs
     id="defs30" />
  <sodipodi:namedview
     pagecolor="#ffffff"
     bordercolor="#666666"
     borderopacity="1"
     objecttolerance="10"
     gridtolerance="10"
     guidetolerance="10"
     inkscape:pageopacity="0"
     inkscape:pageshadow="2"
     inkscape:window-width="640"
     inkscape:window-height="480"
     id="namedview28"
     showgrid="false"
     inkscape:zoom="6.5555556"
     inkscape:cx="18"
     inkscape:cy="18"
     inkscape:window-x="0"
     inkscape:window-y="0"
     inkscape:window-maximized="0"
     inkscape:current-layer="svg2" />
  <ellipse
     cx="18"
     cy="25.9025"
     rx="18"
     ry="10"
     id="ellipse4"
     style="fill:#8899a6" />
  <ellipse
     cx="18"
     cy="24.1525"
     rx="18"
     ry="10"
     id="ellipse6"
     style="fill:#ccd6dd" />
  <path
     d="m 32.675,23.5875 c 0,4.26 -6.57,7.712 -14.675,7.712 -8.105,0 -14.675,-3.452 -14.675,-7.712 0,-4.258 6.57,-7.711 14.675,-7.711 8.104,0 14.675,3.453 14.675,7.711 z"
     id="path8"
     inkscape:connector-curvature="0"
     style="fill:#dd2e44" />
  <path
     d="m 32.233,22.4455 c 0,9.854 -28.466,9.854 -28.466,0 l 0,-8.759 28.466,0 0,8.759 z"
     id="path10"
     inkscape:connector-curvature="0"
     style="fill:#f4abba" />
  <path
     d="m 17.984,18.0685 c -8.984,0 -14.218,-4.132 -14.218,-4.132 0,0 -0.016,0.924 -0.016,1.685 0,0 0.032,4.898 2.572,4.898 2.459,0 2.28,2.348 3.834,2.591 1.541,0.241 1.712,-0.938 3.625,-0.938 1.913,0 2.25,2.106 4.203,2.106 2.289,0 2.477,-2.106 4.389,-2.106 1.912,0 2.132,1.224 3.386,0.885 1.507,-0.408 0.814,-2.537 3.887,-2.537 2.54,0 2.603,-4.648 2.603,-4.648 0,-0.76 -0.017,-1.935 -0.017,-1.935 0,0 -5.263,4.131 -14.248,4.131 z"
     id="path12"
     inkscape:connector-curvature="0"
     style="fill:#dd2e44" />
  <path
     d="m 32.675,12.6395 c 0,4.259 -6.57,7.712 -14.675,7.712 -8.105,0 -14.675,-3.453 -14.675,-7.712 0,-4.259 6.57,-7.712 14.675,-7.712 8.104,0 14.675,3.453 14.675,7.712 z"
     id="path14"
     inkscape:connector-curvature="0"
     style="fill:#ea596e" />
  <path
     d="m 25.664,13.6865 c -0.605,0 -1.095,-0.49 -1.095,-1.095 l 0,-7.664 c 0,-0.605 0.49,-1.095 1.095,-1.095 0.605,0 1.095,0.49 1.095,1.095 l 0,7.664 c 0,0.605 -0.49,1.095 -1.095,1.095 z"
     id="path16"
     inkscape:connector-curvature="0"
     style="fill:#fff8e8" />
  <path
     d="m 25.664,6.5695 c -1.162,0 -2.076,-0.532 -2.445,-1.423 -0.32,-0.773 -0.479,-2.45 2.058,-4.986 0.214,-0.214 0.56,-0.214 0.774,0 2.537,2.537 2.378,4.213 2.058,4.986 -0.369,0.891 -1.283,1.423 -2.445,1.423 z"
     id="path18"
     inkscape:connector-curvature="0"
     style="fill:#faaa35" />
  <path
     d="m 18,16.9705 c -0.605,0 -1.095,-0.49 -1.095,-1.095 l 0,-7.663 c 0,-0.605 0.49,-1.095 1.095,-1.095 0.605,0 1.095,0.49 1.095,1.095 l 0,7.664 c 0,0.604 -0.49,1.094 -1.095,1.094 z"
     id="path20"
     inkscape:connector-curvature="0"
     style="fill:#fff8e8" />
  <path
     d="m 18,9.8545 c -1.162,0 -2.076,-0.532 -2.445,-1.423 -0.321,-0.773 -0.479,-2.45 2.058,-4.986 0.214,-0.214 0.56,-0.214 0.774,0 2.537,2.537 2.378,4.213 2.058,4.986 -0.369,0.891 -1.283,1.423 -2.445,1.423 z"
     id="path22"
     inkscape:connector-curvature="0"
     style="fill:#faaa35" />
  <path
     d="m 10.336,13.6865 c -0.605,0 -1.095,-0.49 -1.095,-1.095 l 0,-7.664 c 0,-0.605 0.49,-1.095 1.095,-1.095 0.605,0 1.095,0.49 1.095,1.095 l 0,7.664 c 0,0.605 -0.49,1.095 -1.095,1.095 z"
     id="path24"
     inkscape:connector-curvature="0"
     style="fill:#fff8e8" />
  <path
     d="m 10.336,6.5695 c -1.162,0 -2.076,-0.532 -2.445,-1.423 -0.321,-0.773 -0.479,-2.45 2.058,-4.986 0.214,-0.214 0.56,-0.214 0.774,0 2.537,2.537 2.378,4.213 2.058,4.986 -0.369,0.891 -1.283,1.423 -2.445,1.423 z"
     id="path26"
     inkscape:connector-curvature="0"
     style="fill:#faaa35" />
</svg>
