<?xml version="1.0" encoding="UTF-8" standalone="no"?>
<svg
   xmlns:dc="http://purl.org/dc/elements/1.1/"
   xmlns:cc="http://creativecommons.org/ns#"
   xmlns:rdf="http://www.w3.org/1999/02/22-rdf-syntax-ns#"
   xmlns:svg="http://www.w3.org/2000/svg"
   xmlns="http://www.w3.org/2000/svg"
   xmlns:sodipodi="http://sodipodi.sourceforge.net/DTD/sodipodi-0.dtd"
   xmlns:inkscape="http://www.inkscape.org/namespaces/inkscape"
   viewBox="0 0 36 36"
   id="svg2"
   version="1.1"
   inkscape:version="0.91 r13725"
   sodipodi:docname="1f385-1f3fd.svg"
   width="36"
   height="36">
  <metadata
     id="metadata32">
    <rdf:RDF>
      <cc:Work
         rdf:about="">
        <dc:format>image/svg+xml</dc:format>
        <dc:type
           rdf:resource="http://purl.org/dc/dcmitype/StillImage" />
      </cc:Work>
    </rdf:RDF>
  </metadata>
  <defs
     id="defs30" />
  <sodipodi:namedview
     pagecolor="#ffffff"
     bordercolor="#666666"
     borderopacity="1"
     objecttolerance="10"
     gridtolerance="10"
     guidetolerance="10"
     inkscape:pageopacity="0"
     inkscape:pageshadow="2"
     inkscape:window-width="640"
     inkscape:window-height="480"
     id="namedview28"
     showgrid="false"
     inkscape:zoom="6.5555556"
     inkscape:cx="18"
     inkscape:cy="18"
     inkscape:window-x="0"
     inkscape:window-y="0"
     inkscape:window-maximized="0"
     inkscape:current-layer="svg2" />
  <path
     d="M 5,21 C 5,23.209 3.881,25 2.5,25 1.119,25 0,23.209 0,21 0,18.791 1.119,17 2.5,17 3.881,17 5,18.791 5,21 Z"
     id="path4"
     inkscape:connector-curvature="0"
     style="fill:#d5ab88" />
  <path
     d="M 3,18.562 C 3,10.037 8.373,3.125 15,3.125 c 6.627,0 12,6.912 12,15.438 C 27,27.088 21.627,34 15,34 8.373,34 3,27.088 3,18.562 Z"
     id="path6"
     inkscape:connector-curvature="0"
     style="fill:#d5ab88" />
  <path
     d="M 20,0 C 19.751,0 19.522,0.007 19.287,0.012 19.19,0.01 19.097,0 19,0 9,0 2,4.582 2,9 c 0,4.418 6.373,4 13,4 4.442,0 7.648,0 9.966,-0.086 L 25,13 l 6,15 2,0 c 0,0 0.343,-3.055 1,-7 C 35,15 34.533,0 20,0 Z"
     id="path8"
     inkscape:connector-curvature="0"
     style="fill:#dd2e44" />
  <path
     d="m 30,21 c 0,2.209 -1.119,4 -2.5,4 -1.381,0 -2.5,-1.791 -2.5,-4 0,-2.209 1.119,-4 2.5,-4 1.381,0 2.5,1.791 2.5,4 z"
     id="path10"
     inkscape:connector-curvature="0"
     style="fill:#d5ab88" />
  <path
     d="M 10,21 C 9.448,21 9,20.553 9,20 l 0,-2 c 0,-0.552 0.448,-1 1,-1 0.552,0 1,0.448 1,1 l 0,2 c 0,0.553 -0.448,1 -1,1 z m 10,0 c -0.553,0 -1,-0.447 -1,-1 l 0,-2 c 0,-0.552 0.447,-1 1,-1 0.553,0 1,0.448 1,1 l 0,2 c 0,0.553 -0.447,1 -1,1 z"
     id="path12"
     inkscape:connector-curvature="0"
     style="fill:#662113" />
  <path
     d="m 16,26 -2,0 c -0.552,0 -1,-0.447 -1,-1 0,-0.553 0.448,-1 1,-1 l 2,0 c 0.552,0 1,0.447 1,1 0,0.553 -0.448,1 -1,1 z"
     id="path14"
     inkscape:connector-curvature="0"
     style="fill:#b7755e" />
  <path
     d="m 27,25 c 0,-2 -2.293,-0.707 -3,0 -1,1 -3,3 -5,2 -2.828,-1.414 -4,-1 -4,-1 0,0 -1.171,-0.414 -4,1 -2,1 -4,-1 -5,-2 -0.707,-0.707 -3,-2 -3,0 0,2 1,2 1,2 -1,2 1,3 1,3 0,3 3,3 3,3 0,3 4,2 4,2 1,1 3,1 3,1 0,0 2,0 3,-1 0,0 4,1 4,-2 0,0 3,0 3,-3 0,0 2,-1 1,-3 0,0 1,0 1,-2 z"
     id="path16"
     inkscape:connector-curvature="0"
     style="fill:#e6e7e8" />
  <path
     d="m 15,28 c 7,0 4,2 0,2 -4,0 -7,-2 0,-2 z"
     id="path18"
     inkscape:connector-curvature="0"
     style="fill:#d5ab88" />
  <ellipse
     cx="3"
     cy="14"
     rx="2"
     ry="4"
     id="ellipse20"
     style="fill:#d1d3d4" />
  <ellipse
     cx="26"
     cy="14"
     rx="2"
     ry="4"
     id="ellipse22"
     style="fill:#d1d3d4" />
  <circle
     cx="32"
     cy="29"
     r="4"
     id="circle24"
     style="fill:#f1f2f2" />
  <path
     d="m 29,12 c 0,1.104 -0.896,2 -2,2 L 2,14 C 0.896,14 0,13.104 0,12 L 0,11 C 0,9.896 0.896,9 2,9 l 25,0 c 1.104,0 2,0.896 2,2 l 0,1 z"
     id="path26"
     inkscape:connector-curvature="0"
     style="fill:#f1f2f2" />
</svg>
