<?xml version="1.0" encoding="UTF-8" standalone="no"?>
<svg
   xmlns:dc="http://purl.org/dc/elements/1.1/"
   xmlns:cc="http://creativecommons.org/ns#"
   xmlns:rdf="http://www.w3.org/1999/02/22-rdf-syntax-ns#"
   xmlns:svg="http://www.w3.org/2000/svg"
   xmlns="http://www.w3.org/2000/svg"
   xmlns:sodipodi="http://sodipodi.sourceforge.net/DTD/sodipodi-0.dtd"
   xmlns:inkscape="http://www.inkscape.org/namespaces/inkscape"
   viewBox="0 0 36 36"
   id="svg2"
   version="1.1"
   inkscape:version="0.91 r13725"
   sodipodi:docname="1f387.svg"
   width="36"
   height="36">
  <metadata
     id="metadata48">
    <rdf:RDF>
      <cc:Work
         rdf:about="">
        <dc:format>image/svg+xml</dc:format>
        <dc:type
           rdf:resource="http://purl.org/dc/dcmitype/StillImage" />
      </cc:Work>
    </rdf:RDF>
  </metadata>
  <defs
     id="defs46" />
  <sodipodi:namedview
     pagecolor="#ffffff"
     bordercolor="#666666"
     borderopacity="1"
     objecttolerance="10"
     gridtolerance="10"
     guidetolerance="10"
     inkscape:pageopacity="0"
     inkscape:pageshadow="2"
     inkscape:window-width="640"
     inkscape:window-height="480"
     id="namedview44"
     showgrid="false"
     inkscape:zoom="6.5555556"
     inkscape:cx="18"
     inkscape:cy="18"
     inkscape:window-x="0"
     inkscape:window-y="0"
     inkscape:window-maximized="0"
     inkscape:current-layer="svg2" />
  <path
     d="M 36,4 C 36,1.791 34.209,0 32,0 L 4,0 C 1.791,0 0,1.791 0,4 l 0,28 c 0,2.209 1.791,4 4,4 l 28,0 c 2.209,0 4,-1.791 4,-4 L 36,4 Z"
     id="path4"
     inkscape:connector-curvature="0"
     style="fill:#226699" />
  <path
     d="m 18,20 c -0.419,0 -0.809,0.265 -0.949,0.684 l -3,9 c -0.175,0.524 0.108,1.09 0.632,1.265 0.525,0.177 1.091,-0.109 1.265,-0.632 l 3,-9 C 19.122,20.793 18.84,20.227 18.316,20.052 18.211,20.016 18.104,20 18,20 Z"
     id="path6"
     inkscape:connector-curvature="0"
     style="fill:#ffcc4d" />
  <path
     d="m 18,20 c -0.087,0 -0.175,0.012 -0.263,0.036 -0.533,0.145 -0.847,0.694 -0.702,1.227 l 3.226,11.856 c 0.146,0.533 0.696,0.845 1.228,0.702 0.533,-0.145 0.848,-0.694 0.702,-1.228 L 18.964,20.737 C 18.844,20.292 18.44,20 18,20 Z"
     id="path8"
     inkscape:connector-curvature="0"
     style="fill:#ffcc4d" />
  <path
     d="m 18,20 c -0.218,0 -0.437,0.071 -0.621,0.216 l -13.25,10.5 c -0.433,0.343 -0.506,0.972 -0.163,1.405 0.343,0.433 0.973,0.504 1.405,0.163 l 13.25,-10.5 c 0.433,-0.343 0.506,-0.972 0.163,-1.405 C 18.586,20.13 18.294,20 18,20 Z"
     id="path10"
     inkscape:connector-curvature="0"
     style="fill:#ffcc4d" />
  <path
     d="m 18.001,20 c -0.039,0 -0.077,0.002 -0.116,0.006 L 5.553,21.423 c -0.548,0.063 -0.942,0.559 -0.879,1.108 0.063,0.549 0.565,0.944 1.108,0.879 L 18.115,21.993 C 18.663,21.93 19.057,21.434 18.994,20.885 18.935,20.376 18.502,20 18.001,20 Z"
     id="path12"
     inkscape:connector-curvature="0"
     style="fill:#ffcc4d" />
  <path
     d="m 3.5,13.083 c -0.373,0 -0.731,0.21 -0.903,0.569 -0.238,0.499 -0.027,1.096 0.472,1.333 l 14.5,6.917 c 0.498,0.239 1.095,0.027 1.333,-0.472 0.238,-0.499 0.027,-1.095 -0.472,-1.333 L 3.93,13.18 C 3.792,13.114 3.645,13.083 3.5,13.083 Z"
     id="path14"
     inkscape:connector-curvature="0"
     style="fill:#ffcc4d" />
  <path
     d="M 7.333,4.833 C 7.134,4.833 6.934,4.892 6.759,5.015 6.307,5.333 6.198,5.956 6.516,6.408 l 10.666,15.167 c 0.317,0.452 0.941,0.561 1.393,0.243 0.452,-0.317 0.561,-0.941 0.243,-1.393 L 8.151,5.258 C 7.957,4.981 7.647,4.833 7.333,4.833 Z"
     id="path16"
     inkscape:connector-curvature="0"
     style="fill:#ffcc4d" />
  <path
     d="m 18,20 c -0.276,0 -0.551,0.114 -0.749,0.337 -0.366,0.413 -0.328,1.045 0.085,1.412 l 11.708,10.375 c 0.413,0.365 1.045,0.328 1.411,-0.085 0.366,-0.413 0.328,-1.045 -0.085,-1.412 L 18.663,20.251 C 18.473,20.083 18.236,20 18,20 Z"
     id="path18"
     inkscape:connector-curvature="0"
     style="fill:#ffcc4d" />
  <path
     d="m 18,20 c -0.419,0 -0.81,0.266 -0.949,0.686 -0.174,0.524 0.111,1.09 0.635,1.264 l 12.333,4.083 c 0.528,0.175 1.091,-0.111 1.264,-0.635 0.174,-0.524 -0.11,-1.09 -0.635,-1.264 L 18.315,20.051 C 18.21,20.016 18.104,20 18,20 Z"
     id="path20"
     inkscape:connector-curvature="0"
     style="fill:#ffcc4d" />
  <path
     d="m 31.835,18.5 c -0.036,0 -0.072,0.002 -0.108,0.006 l -13.835,1.5 c -0.549,0.059 -0.946,0.553 -0.886,1.102 0.06,0.549 0.559,0.944 1.102,0.886 l 13.833,-1.5 c 0.55,-0.059 0.946,-0.553 0.887,-1.102 C 32.772,18.88 32.339,18.5 31.835,18.5 Z"
     id="path22"
     inkscape:connector-curvature="0"
     style="fill:#ffcc4d" />
  <path
     d="m 18.001,22 c -0.309,0 -0.613,-0.143 -0.809,-0.411 -0.325,-0.446 -0.227,-1.071 0.219,-1.396 l 8.917,-6.5 c 0.447,-0.325 1.072,-0.227 1.396,0.219 0.326,0.446 0.228,1.072 -0.219,1.397 l -8.917,6.5 C 18.411,21.938 18.205,22 18.001,22 Z"
     id="path24"
     inkscape:connector-curvature="0"
     style="fill:#ffcc4d" />
  <path
     d="m 17.999,22 c -0.176,0 -0.354,-0.046 -0.515,-0.144 -0.473,-0.285 -0.625,-0.899 -0.34,-1.373 l 7.834,-13 c 0.284,-0.474 0.898,-0.626 1.373,-0.34 0.473,0.285 0.625,0.899 0.34,1.373 l -7.834,13 C 18.669,21.828 18.338,22 17.999,22 Z"
     id="path26"
     inkscape:connector-curvature="0"
     style="fill:#ffcc4d" />
  <path
     d="m 20,0 -4,0 0,19 c 0,1.104 0.896,2 2,2 1.104,0 2,-0.896 2,-2 L 20,0 Z"
     id="path28"
     inkscape:connector-curvature="0"
     style="fill:#55acee" />
  <circle
     cx="18"
     cy="21"
     r="3"
     id="circle30"
     style="fill:#f5f8fa" />
  <path
     d="m 6.963,31.694 c 0,-1.303 -1.057,-2.359 -2.359,-2.359 -1.303,0 -2.359,1.056 -2.359,2.359 0,1.303 1.056,2.359 2.359,2.359 1.302,0.001 2.359,-1.056 2.359,-2.359 z"
     id="path32"
     inkscape:connector-curvature="0"
     style="fill:#f5f8fa" />
  <circle
     cx="29.708"
     cy="31.375"
     r="2.9579999"
     id="circle34"
     style="fill:#f5f8fa" />
  <path
     d="m 22.833,32.856 c 0,-0.887 -0.719,-1.606 -1.606,-1.606 -0.887,0 -1.606,0.719 -1.606,1.606 0,0.887 0.719,1.606 1.606,1.606 0.887,0 1.606,-0.719 1.606,-1.606 z"
     id="path36"
     inkscape:connector-curvature="0"
     style="fill:#f5f8fa" />
  <circle
     cx="3.0769999"
     cy="13.917"
     r="1.75"
     id="circle38"
     style="fill:#f5f8fa" />
  <path
     d="M 9.75,5.167 C 9.75,3.602 8.481,2.334 6.917,2.334 5.352,2.334 4.084,3.602 4.084,5.167 4.083,6.731 5.352,8 6.917,8 8.481,8 9.75,6.731 9.75,5.167 Z m 24.584,14.25 c 0,-1.22 -0.989,-2.208 -2.209,-2.208 -1.219,0 -2.208,0.989 -2.208,2.208 0,1.219 0.989,2.208 2.208,2.208 1.22,0 2.209,-0.989 2.209,-2.208 z"
     id="path40"
     inkscape:connector-curvature="0"
     style="fill:#f5f8fa" />
  <circle
     cx="25.917"
     cy="8"
     r="1.75"
     id="circle42"
     style="fill:#f5f8fa" />
</svg>
