<?xml version="1.0" encoding="UTF-8" standalone="no"?>
<svg
   xmlns:dc="http://purl.org/dc/elements/1.1/"
   xmlns:cc="http://creativecommons.org/ns#"
   xmlns:rdf="http://www.w3.org/1999/02/22-rdf-syntax-ns#"
   xmlns:svg="http://www.w3.org/2000/svg"
   xmlns="http://www.w3.org/2000/svg"
   xmlns:sodipodi="http://sodipodi.sourceforge.net/DTD/sodipodi-0.dtd"
   xmlns:inkscape="http://www.inkscape.org/namespaces/inkscape"
   viewBox="0 0 36.000252 35.499687"
   id="svg2"
   version="1.1"
   inkscape:version="0.91 r13725"
   sodipodi:docname="1f38a.svg"
   width="36.000252"
   height="35.499687">
  <metadata
     id="metadata38">
    <rdf:RDF>
      <cc:Work
         rdf:about="">
        <dc:format>image/svg+xml</dc:format>
        <dc:type
           rdf:resource="http://purl.org/dc/dcmitype/StillImage" />
      </cc:Work>
    </rdf:RDF>
  </metadata>
  <defs
     id="defs36" />
  <sodipodi:namedview
     pagecolor="#ffffff"
     bordercolor="#666666"
     borderopacity="1"
     objecttolerance="10"
     gridtolerance="10"
     guidetolerance="10"
     inkscape:pageopacity="0"
     inkscape:pageshadow="2"
     inkscape:window-width="640"
     inkscape:window-height="480"
     id="namedview34"
     showgrid="false"
     inkscape:zoom="6.5555556"
     inkscape:cx="18.0005"
     inkscape:cy="17.999686"
     inkscape:window-x="0"
     inkscape:window-y="0"
     inkscape:window-maximized="0"
     inkscape:current-layer="svg2" />
  <path
     d="m 26.0005,8.5 c -3.591,0 -6.27,-1.648 -7.989,-4.905 -1.626,3.219 -4.018,4.905 -7.011,4.905 -0.552,0 -1,-0.448 -1,-1 0,-0.552 0.448,-1 1,-1 2.729,0 4.765,-1.957 6.051,-5.816 C 17.1885,0.275 17.5695,0 18.0005,0 c 0.431,0 0.812,0.275 0.949,0.684 1.322,3.967 3.563,5.816 7.051,5.816 0.553,0 1,0.448 1,1 0,0.552 -0.447,1 -1,1 z"
     id="path4"
     inkscape:connector-curvature="0"
     style="fill:#292f33" />
  <path
     d="m 14.7115,9.154 c 3.364,3.366 0.498,5.954 -2.868,9.319 -3.365,3.365 -5.954,6.232 -9.319,2.868 -3.366,-3.366 -3.366,-8.822 0,-12.187 3.366,-3.366 8.821,-3.366 12.187,0 z"
     id="path6"
     inkscape:connector-curvature="0"
     style="fill:#ffac33" />
  <path
     d="m 15.5425,10.472 c 1.584,1.585 0.248,5.486 -2.983,8.717 -3.231,3.231 -7.132,4.568 -8.717,2.982 -1.584,-1.584 -0.248,-5.486 2.982,-8.717 3.232,-3.23 7.134,-4.566 8.718,-2.982 z"
     id="path8"
     inkscape:connector-curvature="0"
     style="fill:#be1931" />
  <path
     d="m 21.2895,9.154 c -3.363,3.366 -0.498,5.954 2.868,9.319 3.365,3.365 5.954,6.232 9.319,2.868 3.365,-3.366 3.365,-8.822 0,-12.187 -3.365,-3.366 -8.82,-3.366 -12.187,0 z"
     id="path10"
     inkscape:connector-curvature="0"
     style="fill:#ffac33" />
  <path
     d="m 20.4595,10.472 c -1.585,1.585 -0.249,5.486 2.982,8.717 3.23,3.231 7.133,4.568 8.717,2.982 1.584,-1.584 0.248,-5.486 -2.983,-8.717 -3.23,-3.23 -7.133,-4.566 -8.716,-2.982 z"
     id="path12"
     inkscape:connector-curvature="0"
     style="fill:#be1931" />
  <path
     d="m 22.4105,17.721 c 0.199,-0.16 0.459,-0.244 0.734,-0.215 0.867,0.094 1.598,0.396 2.109,0.873 0.541,0.505 0.807,1.183 0.734,1.862 -0.129,1.191 -1.324,2.285 -3.363,2.065 -0.793,-0.085 -1.146,0.17 -1.158,0.291 -0.014,0.121 0.277,0.446 1.07,0.532 0.867,0.094 1.598,0.396 2.109,0.873 0.541,0.505 0.809,1.183 0.734,1.862 -0.129,1.192 -1.324,2.285 -3.361,2.066 -0.578,-0.062 -0.883,0.057 -1.012,0.134 -0.103,0.063 -0.144,0.124 -0.148,0.158 -0.012,0.12 0.275,0.445 1.07,0.531 0.549,0.06 0.947,0.553 0.887,1.102 -0.059,0.549 -0.551,0.946 -1.102,0.887 -2.037,-0.219 -2.973,-1.542 -2.844,-2.735 0.129,-1.192 1.324,-2.285 3.363,-2.065 0.578,0.063 0.881,-0.057 1.01,-0.134 0.104,-0.062 0.145,-0.123 0.148,-0.157 0.014,-0.121 -0.275,-0.446 -1.07,-0.532 -2.037,-0.22 -2.973,-1.542 -2.844,-2.735 0.129,-1.192 1.324,-2.286 3.361,-2.064 0.578,0.062 0.883,-0.058 1.012,-0.135 0.103,-0.062 0.144,-0.123 0.148,-0.157 0.012,-0.121 -0.277,-0.446 -1.07,-0.532 -0.549,-0.059 -0.947,-0.553 -0.887,-1.102 0.032,-0.276 0.171,-0.512 0.37,-0.673 z"
     id="path14"
     inkscape:connector-curvature="0"
     style="fill:#aa8dd8" />
  <path
     d="m 15.2665,35.328 c -1.973,0.557 -3.334,-0.322 -3.658,-1.477 -0.324,-1.154 0.378,-2.615 2.35,-3.17 0.77,-0.216 1.001,-0.584 0.97,-0.701 -0.034,-0.119 -0.425,-0.312 -1.193,-0.096 -1.972,0.556 -3.333,-0.324 -3.657,-1.479 -0.326,-1.155 0.378,-2.614 2.351,-3.169 0.769,-0.217 1.001,-0.586 0.967,-0.703 -0.033,-0.116 -0.423,-0.311 -1.192,-0.095 -0.53,0.149 -1.084,-0.159 -1.233,-0.69 -0.148,-0.533 0.161,-1.084 0.693,-1.234 1.971,-0.555 3.333,0.322 3.659,1.479 0.324,1.154 -0.379,2.613 -2.352,3.17 -0.77,0.216 -1.001,0.584 -0.967,0.701 0.032,0.117 0.422,0.312 1.19,0.096 1.974,-0.556 3.334,0.322 3.659,1.479 0.325,1.153 -0.378,2.612 -2.352,3.169 -0.768,0.215 -0.999,0.586 -0.967,0.701 0.034,0.118 0.423,0.312 1.192,0.097 0.532,-0.151 1.083,0.159 1.233,0.69 0.149,0.531 -0.161,1.084 -0.693,1.232 z"
     id="path16"
     inkscape:connector-curvature="0"
     style="fill:#77b255" />
  <circle
     cx="2.5005"
     cy="27"
     r="1.5"
     id="circle18"
     style="fill:#5c913b" />
  <circle
     cx="7.0005002"
     cy="30.5"
     r="2"
     id="circle20"
     style="fill:#9266cc" />
  <circle
     cx="30.0005"
     cy="26.5"
     r="2"
     id="circle22"
     style="fill:#9266cc" />
  <circle
     cx="25.5005"
     cy="31"
     r="1.5"
     id="circle24"
     style="fill:#5c913b" />
  <circle
     cx="17.5005"
     cy="19"
     r="1.5"
     id="circle26"
     style="fill:#5c913b" />
  <circle
     cx="7.0005002"
     cy="22.5"
     r="2"
     id="circle28"
     style="fill:#ffcc4d" />
  <circle
     cx="27.5005"
     cy="16"
     r="1.5"
     id="circle30"
     style="fill:#ffcc4d" />
  <circle
     cx="12.5005"
     cy="14"
     r="1.5"
     id="circle32"
     style="fill:#ffcc4d" />
</svg>
