<?xml version="1.0" encoding="UTF-8" standalone="no"?>
<svg
   xmlns:dc="http://purl.org/dc/elements/1.1/"
   xmlns:cc="http://creativecommons.org/ns#"
   xmlns:rdf="http://www.w3.org/1999/02/22-rdf-syntax-ns#"
   xmlns:svg="http://www.w3.org/2000/svg"
   xmlns="http://www.w3.org/2000/svg"
   xmlns:sodipodi="http://sodipodi.sourceforge.net/DTD/sodipodi-0.dtd"
   xmlns:inkscape="http://www.inkscape.org/namespaces/inkscape"
   viewBox="0 0 35.924377 35.917625"
   id="svg2"
   version="1.1"
   inkscape:version="0.91 r13725"
   sodipodi:docname="1f39f.svg"
   width="35.924377"
   height="35.917625">
  <metadata
     id="metadata12">
    <rdf:RDF>
      <cc:Work
         rdf:about="">
        <dc:format>image/svg+xml</dc:format>
        <dc:type
           rdf:resource="http://purl.org/dc/dcmitype/StillImage" />
      </cc:Work>
    </rdf:RDF>
  </metadata>
  <defs
     id="defs10" />
  <sodipodi:namedview
     pagecolor="#ffffff"
     bordercolor="#666666"
     borderopacity="1"
     objecttolerance="10"
     gridtolerance="10"
     guidetolerance="10"
     inkscape:pageopacity="0"
     inkscape:pageshadow="2"
     inkscape:window-width="640"
     inkscape:window-height="480"
     id="namedview8"
     showgrid="false"
     inkscape:zoom="6.5555556"
     inkscape:cx="17.96175"
     inkscape:cy="17.9585"
     inkscape:window-x="0"
     inkscape:window-y="0"
     inkscape:window-maximized="0"
     inkscape:current-layer="svg2" />
  <path
     d="m 26.71275,7.9661251 c 1.364,1.365 3.364,1.708 5.046,1.032 l 3.613,3.6109999 c 0.737,0.74 0.738,1.938 -0.004,2.68 l -20.087,20.075 c -0.743,0.739 -1.94,0.737 -2.681,0 l -3.6059997,-3.612 c 0.672,-1.684 0.33,-3.682 -1.032,-5.047 -1.367,-1.365 -3.364,-1.707 -5.047,-1.032 l -2.35900005,-2.36 c -0.74,-0.737 -0.742,-1.938 0,-2.68 L 20.63975,0.55512506 c 0.739,-0.74 1.936,-0.741 2.679,0.002 l 2.361,2.36100004 c -0.677,1.683 -0.331,3.681 1.033,5.048 z"
     id="path4"
     inkscape:connector-curvature="0"
     style="fill:#ea596e" />
  <path
     d="m 5.3817503,18.486125 -2.149,2.148 c -0.739,0.739 -0.741,1.939 -0.003,2.68 l 0.542,0.541 c 1.896,-0.505 3.999,-0.018 5.482,1.468 1.4879997,1.486 1.9709997,3.589 1.4669997,5.481 l 1.878,1.883 c 0.741,0.739 1.941,0.739 2.682,-0.002 l 2.189,-2.187 -12.0879997,-12.012 z m 13.5209997,10.58 10.158,-10.152 L 16.96975,6.9021251 6.8157503,17.054125 18.90275,29.066125 Z m 1.99,-13.993 c 2.245,2.228 2.745,5.356 1.121,6.989 -1.627,1.635 -4.762,1.151 -7.001,-1.075 -2.239,-2.228 -2.738,-5.358 -1.114,-6.991 1.625,-1.63 4.755,-1.15 6.994,1.077 z m 11.8,-2.464 -1.881,-1.881 c -1.895,0.503 -3.998,0.021 -5.483,-1.4679999 -1.488,-1.484 -1.976,-3.591 -1.47,-5.484 l -0.541,-0.546 c -0.74,-0.735 -1.94,-0.735 -2.678,0.003 l -2.236,2.236 12.092,12.0109999 2.196,-2.195 c 0.74,-0.737 0.74,-1.936 10e-4,-2.676 z"
     id="path6"
     inkscape:connector-curvature="0"
     style="fill:#be1931" />
</svg>
