<?xml version="1.0" encoding="UTF-8" standalone="no"?>
<svg
   xmlns:dc="http://purl.org/dc/elements/1.1/"
   xmlns:cc="http://creativecommons.org/ns#"
   xmlns:rdf="http://www.w3.org/1999/02/22-rdf-syntax-ns#"
   xmlns:svg="http://www.w3.org/2000/svg"
   xmlns="http://www.w3.org/2000/svg"
   xmlns:sodipodi="http://sodipodi.sourceforge.net/DTD/sodipodi-0.dtd"
   xmlns:inkscape="http://www.inkscape.org/namespaces/inkscape"
   viewBox="0 0 30 36"
   id="svg2"
   version="1.1"
   inkscape:version="0.91 r13725"
   sodipodi:docname="1f39a.svg"
   width="30"
   height="36">
  <metadata
     id="metadata16">
    <rdf:RDF>
      <cc:Work
         rdf:about="">
        <dc:format>image/svg+xml</dc:format>
        <dc:type
           rdf:resource="http://purl.org/dc/dcmitype/StillImage" />
      </cc:Work>
    </rdf:RDF>
  </metadata>
  <defs
     id="defs14" />
  <sodipodi:namedview
     pagecolor="#ffffff"
     bordercolor="#666666"
     borderopacity="1"
     objecttolerance="10"
     gridtolerance="10"
     guidetolerance="10"
     inkscape:pageopacity="0"
     inkscape:pageshadow="2"
     inkscape:window-width="640"
     inkscape:window-height="480"
     id="namedview12"
     showgrid="false"
     inkscape:zoom="6.5555556"
     inkscape:cx="15"
     inkscape:cy="18"
     inkscape:window-x="0"
     inkscape:window-y="0"
     inkscape:window-maximized="0"
     inkscape:current-layer="svg2" />
  <path
     d="m 30,32 c 0,2.209 -1.791,4 -4,4 L 4,36 C 1.791,36 0,34.209 0,32 L 0,4 C 0,1.791 1.791,0 4,0 l 22,0 c 2.209,0 4,1.791 4,4 l 0,28 z"
     id="path4"
     inkscape:connector-curvature="0"
     style="fill:#ccd6dd" />
  <path
     d="m 16,31 c 0,0.553 -0.448,1 -1,1 -0.552,0 -1,-0.447 -1,-1 L 14,5 c 0,-0.552 0.448,-1 1,-1 0.552,0 1,0.448 1,1 l 0,26 z"
     id="path6"
     inkscape:connector-curvature="0"
     style="fill:#292f33" />
  <path
     d="m 12,6 c 0,0.552 -0.448,1 -1,1 L 7,7 C 6.448,7 6,6.552 6,6 6,5.448 6.448,5 7,5 l 4,0 c 0.552,0 1,0.448 1,1 z m 0,12 c 0,0.553 -0.448,1 -1,1 L 7,19 C 6.448,19 6,18.553 6,18 6,17.448 6.448,17 7,17 l 4,0 c 0.552,0 1,0.448 1,1 z m 0,12 c 0,0.553 -0.448,1 -1,1 L 7,31 C 6.448,31 6,30.553 6,30 6,29.447 6.448,29 7,29 l 4,0 c 0.552,0 1,0.447 1,1 z M 24,6 c 0,0.552 -0.447,1 -1,1 L 19,7 C 18.447,7 18,6.552 18,6 18,5.448 18.447,5 19,5 l 4,0 c 0.553,0 1,0.448 1,1 z m 0,12 c 0,0.553 -0.447,1 -1,1 l -4,0 c -0.553,0 -1,-0.447 -1,-1 0,-0.552 0.447,-1 1,-1 l 4,0 c 0.553,0 1,0.448 1,1 z m 0,12 c 0,0.553 -0.447,1 -1,1 l -4,0 c -0.553,0 -1,-0.447 -1,-1 0,-0.553 0.447,-1 1,-1 l 4,0 c 0.553,0 1,0.447 1,1 z M 12,24.106 C 12,24.6 11.6,25 11.107,25 L 8.893,25 C 8.4,25 8,24.6 8,24.106 L 8,23.893 C 8,23.4 8.4,23 8.893,23 l 2.214,0 C 11.6,23 12,23.4 12,23.894 l 0,0.212 z m 10,0 C 22,24.6 21.6,25 21.107,25 l -2.215,0 C 18.4,25 18,24.6 18,24.106 l 0,-0.213 C 18,23.4 18.4,23 18.893,23 l 2.215,0 C 21.6,23 22,23.4 22,23.894 l 0,0.212 z"
     id="path8"
     inkscape:connector-curvature="0"
     style="fill:#99aab5" />
  <path
     d="m 22,13 c 0,1.104 -0.896,2 -2,2 L 10,15 C 8.896,15 8,14.104 8,13 L 8,11 C 8,9.896 8.896,9 10,9 l 10,0 c 1.104,0 2,0.896 2,2 l 0,2 z"
     id="path10"
     inkscape:connector-curvature="0"
     style="fill:#226699" />
</svg>
