<?xml version="1.0" encoding="UTF-8" standalone="no"?>
<svg
   xmlns:dc="http://purl.org/dc/elements/1.1/"
   xmlns:cc="http://creativecommons.org/ns#"
   xmlns:rdf="http://www.w3.org/1999/02/22-rdf-syntax-ns#"
   xmlns:svg="http://www.w3.org/2000/svg"
   xmlns="http://www.w3.org/2000/svg"
   xmlns:sodipodi="http://sodipodi.sourceforge.net/DTD/sodipodi-0.dtd"
   xmlns:inkscape="http://www.inkscape.org/namespaces/inkscape"
   viewBox="0 0 34.074501 35.248001"
   id="svg2"
   version="1.1"
   inkscape:version="0.91 r13725"
   sodipodi:docname="1f393.svg"
   width="34.074501"
   height="35.248001">
  <metadata
     id="metadata22">
    <rdf:RDF>
      <cc:Work
         rdf:about="">
        <dc:format>image/svg+xml</dc:format>
        <dc:type
           rdf:resource="http://purl.org/dc/dcmitype/StillImage" />
      </cc:Work>
    </rdf:RDF>
  </metadata>
  <defs
     id="defs20" />
  <sodipodi:namedview
     pagecolor="#ffffff"
     bordercolor="#666666"
     borderopacity="1"
     objecttolerance="10"
     gridtolerance="10"
     guidetolerance="10"
     inkscape:pageopacity="0"
     inkscape:pageshadow="2"
     inkscape:window-width="640"
     inkscape:window-height="480"
     id="namedview18"
     showgrid="false"
     inkscape:zoom="6.5555556"
     inkscape:cx="17.03675"
     inkscape:cy="18"
     inkscape:window-x="0"
     inkscape:window-y="0"
     inkscape:window-maximized="0"
     inkscape:current-layer="svg2" />
  <path
     d="m 23.03675,13.248 -12,0 c 0,0 -5,6 -5,10 0,4 11,11 11,11 0,0 11,-7 11,-11 0,-4 -5,-10 -5,-10 z"
     id="path4"
     inkscape:connector-curvature="0"
     style="fill:#31373d" />
  <path
     d="m 18.67675,0.528 c -0.901,-0.704 -2.377,-0.704 -3.278,0 l -14.723,11.496 c -0.901,0.704 -0.901,1.856 0,2.56 l 14.722,11.495 c 0.902,0.704 2.377,0.704 3.278,0 l 14.722,-11.495 c 0.902,-0.704 0.902,-1.856 0,-2.56 L 18.67675,0.528 Z"
     id="path6"
     inkscape:connector-curvature="0"
     style="fill:#292f33" />
  <path
     d="m 18.67675,0.528 c -0.901,-0.704 -2.377,-0.704 -3.278,0 l -14.723,11.496 c -0.901,0.704 -0.901,1.856 0,2.56 l 14.722,11.495 c 0.901,0.704 2.377,0.704 3.278,0 l 14.723,-11.495 c 0.901,-0.704 0.901,-1.856 0,-2.56 L 18.67675,0.528 Z"
     id="path8"
     inkscape:connector-curvature="0"
     style="fill:#394146" />
  <path
     d="m 7.03675,24.248 c 0,0 -2,2 -2,3 l 0,6 c 0,0 0,2 2,2 2,0 2,-2 2,-2 l 0,-6 c 0,-1 -2,-3 -2,-3 z"
     id="path10"
     inkscape:connector-curvature="0"
     style="fill:#fcab40" />
  <circle
     cx="7.0367498"
     cy="25.247999"
     r="3"
     id="circle12"
     style="fill:#fdd888" />
  <path
     d="m 7.03775,26.248 c -0.552,0 -1,-0.447 -1,-1 l 0,-3.958 c -0.042,-0.634 0.187,-2.036 1.317,-2.884 l 9.022,-7.91 c 0.416,-0.365 1.048,-0.323 1.411,0.093 0.364,0.415 0.322,1.047 -0.093,1.411 l -9.08,7.958 c -0.604,0.456 -0.578,1.272 -0.578,1.28 l 0.002,4.01 c 0,0.553 -0.448,1 -1.001,1 z"
     id="path14"
     inkscape:connector-curvature="0"
     style="fill:#fcab40" />
  <circle
     cx="17.036751"
     cy="12.248"
     r="3"
     id="circle16"
     style="fill:#31373d" />
</svg>
