<?xml version="1.0" encoding="UTF-8" standalone="no"?>
<svg
   xmlns:dc="http://purl.org/dc/elements/1.1/"
   xmlns:cc="http://creativecommons.org/ns#"
   xmlns:rdf="http://www.w3.org/1999/02/22-rdf-syntax-ns#"
   xmlns:svg="http://www.w3.org/2000/svg"
   xmlns="http://www.w3.org/2000/svg"
   xmlns:sodipodi="http://sodipodi.sourceforge.net/DTD/sodipodi-0.dtd"
   xmlns:inkscape="http://www.inkscape.org/namespaces/inkscape"
   viewBox="0 0 18 36"
   id="svg2"
   version="1.1"
   inkscape:version="0.91 r13725"
   sodipodi:docname="1f396.svg"
   width="18"
   height="36">
  <metadata
     id="metadata20">
    <rdf:RDF>
      <cc:Work
         rdf:about="">
        <dc:format>image/svg+xml</dc:format>
        <dc:type
           rdf:resource="http://purl.org/dc/dcmitype/StillImage" />
      </cc:Work>
    </rdf:RDF>
  </metadata>
  <defs
     id="defs18" />
  <sodipodi:namedview
     pagecolor="#ffffff"
     bordercolor="#666666"
     borderopacity="1"
     objecttolerance="10"
     gridtolerance="10"
     guidetolerance="10"
     inkscape:pageopacity="0"
     inkscape:pageshadow="2"
     inkscape:window-width="640"
     inkscape:window-height="480"
     id="namedview16"
     showgrid="false"
     inkscape:zoom="6.5555556"
     inkscape:cx="9"
     inkscape:cy="18"
     inkscape:window-x="0"
     inkscape:window-y="0"
     inkscape:window-maximized="0"
     inkscape:current-layer="svg2" />
  <path
     d="M 16,0 2,0 C 0.896,0 0,0.896 0,2 l 0,11 c 0,0 0,1 1,2 l 6.429,5 3.142,0 L 17,15 c 1,-1 1,-2 1,-2 L 18,2 C 18,0.896 17.104,0 16,0 Z"
     id="path4"
     inkscape:connector-curvature="0"
     style="fill:#55acee" />
  <path
     d="M 3,0 3,16.555 7.429,20 10.571,20 15,16.555 15,0 Z"
     id="path6"
     inkscape:connector-curvature="0"
     style="fill:#e1e8ed" />
  <path
     d="M 5,0 5,18.111 7.429,20 10.571,20 13,18.111 13,0 Z"
     id="path8"
     inkscape:connector-curvature="0"
     style="fill:#dd2e44" />
  <path
     d="M 12.902,21.02 C 12.962,20.857 13,20.683 13,20.5 13,19.672 12.328,19 11.5,19 l -5,0 C 5.671,19 5,19.672 5,20.5 5,20.683 5.038,20.857 5.098,21.02 2.654,22.389 1,25 1,28 c 0,4.418 3.581,8 8,8 4.418,0 8,-3.582 8,-8 0,-3 -1.654,-5.611 -4.098,-6.98 z"
     id="path10"
     inkscape:connector-curvature="0"
     style="fill:#ffac33" />
  <circle
     cx="9"
     cy="28"
     r="6"
     id="circle12"
     style="fill:#ffd983" />
  <path
     d="m 11.731,32.36 c -0.119,0 -0.237,-0.036 -0.339,-0.109 L 9,30.535 6.607,32.251 C 6.403,32.397 6.13,32.397 5.927,32.249 5.724,32.102 5.639,31.842 5.715,31.604 L 6.607,28.724 4.236,27.053 C 4.034,26.904 3.951,26.643 4.028,26.405 4.106,26.167 4.327,26.006 4.577,26.004 L 7.514,26 8.449,23.191 C 8.528,22.953 8.75,22.793 9,22.793 c 0.25,0 0.472,0.16 0.551,0.398 L 10.47,26 l 2.952,0.004 c 0.251,0.002 0.472,0.163 0.549,0.401 0.077,0.238 -0.006,0.499 -0.208,0.648 l -2.371,1.671 0.892,2.88 c 0.076,0.238 -0.01,0.498 -0.212,0.645 -0.101,0.074 -0.221,0.111 -0.341,0.111 z"
     id="path14"
     inkscape:connector-curvature="0"
     style="fill:#ffac33" />
</svg>
