<?xml version="1.0" encoding="UTF-8" standalone="no"?>
<svg
   xmlns:dc="http://purl.org/dc/elements/1.1/"
   xmlns:cc="http://creativecommons.org/ns#"
   xmlns:rdf="http://www.w3.org/1999/02/22-rdf-syntax-ns#"
   xmlns:svg="http://www.w3.org/2000/svg"
   xmlns="http://www.w3.org/2000/svg"
   xmlns:sodipodi="http://sodipodi.sourceforge.net/DTD/sodipodi-0.dtd"
   xmlns:inkscape="http://www.inkscape.org/namespaces/inkscape"
   viewBox="0 0 35.991028 36"
   id="svg2"
   version="1.1"
   inkscape:version="0.91 r13725"
   sodipodi:docname="1f392.svg"
   width="35.991028"
   height="36">
  <metadata
     id="metadata20">
    <rdf:RDF>
      <cc:Work
         rdf:about="">
        <dc:format>image/svg+xml</dc:format>
        <dc:type
           rdf:resource="http://purl.org/dc/dcmitype/StillImage" />
      </cc:Work>
    </rdf:RDF>
  </metadata>
  <defs
     id="defs18" />
  <sodipodi:namedview
     pagecolor="#ffffff"
     bordercolor="#666666"
     borderopacity="1"
     objecttolerance="10"
     gridtolerance="10"
     guidetolerance="10"
     inkscape:pageopacity="0"
     inkscape:pageshadow="2"
     inkscape:window-width="640"
     inkscape:window-height="480"
     id="namedview16"
     showgrid="false"
     inkscape:zoom="6.5555556"
     inkscape:cx="17.991053"
     inkscape:cy="18"
     inkscape:window-x="0"
     inkscape:window-y="0"
     inkscape:window-maximized="0"
     inkscape:current-layer="svg2" />
  <path
     d="M 11.937053,27 C -1.0449474,7.876 7.5150526,2.752 9.1050526,2 c 0.149,-0.07 0.242,-0.105 0.245,-0.107 0.418,-0.209 0.638,-0.675 0.529,-1.125 -0.109,-0.45 -0.516,-0.768 -0.985,-0.768 l -4.056,0 c -3.793,0 -9.129,11 1.012,28 0.151,0.253 5.0730004,0 5.0730004,0 0.559,0 1.324,-0.541 1.014,-1 z m 19.283,-27 -4,0 c -0.462,0 -0.863,0.318 -0.971,0.768 -0.107,0.45 0.109,0.916 0.521,1.125 0.004,0.002 0.095,0.037 0.242,0.107 1.568,0.752 10.01,5.876 -2.792,25 -0.307,0.459 0.448,1 1,1 0,0 4.854,0.253 5.002,0 10,-17 4.739,-28 0.998,-28 z"
     id="path4"
     inkscape:connector-curvature="0"
     style="fill:#c1694f" />
  <path
     d="m 6.8800526,28.836 0.004,0.01 C 6.8200526,28.553 12.247053,27.459 11.937053,27 -1.0449474,7.876 7.5150526,2.752 9.1050526,2 l -4.269,0 c -3.792,0 -8.113,11 2.044,26.836 z M 31.222053,2 l -4.21,0 c 1.568,0.752 10.01,5.876 -2.792,25 -0.307,0.459 4.984,1.839 4.986,1.836 C 39.222053,13 34.962053,2 31.222053,2 Z"
     id="path6"
     inkscape:connector-curvature="0"
     style="fill:#662113" />
  <path
     d="m 9.9070526,8 c -0.561,0 -1.015,-0.448 -1.015,-1 0,-3.316 -2.028,-5 -4.056,-5 -0.47,0 -0.08,-0.782 0.029,-1.232 0.11,-0.45 0.516,-0.768 0.985,-0.768 l 5.0710004,0 c 3.791,0 4.938,6.136 5.057,6.835 0.049,0.29 -0.034,0.586 -0.226,0.811 -0.195,0.225 -0.478,0.354 -0.775,0.354 L 9.9070526,8 Z M 26.222053,8 c 0.553,0 1,-0.448 1,-1 0,-3.316 2,-5 4,-5 0.463,0 0.078,-0.782 -0.029,-1.232 -0.107,-0.45 -0.508,-0.768 -0.971,-0.768 l -5,0 c -3.738,0 -4.869,6.136 -4.986,6.835 -0.049,0.29 0.033,0.586 0.223,0.811 0.191,0.225 0.47,0.354 0.763,0.354 l 5,0 z"
     id="path8"
     inkscape:connector-curvature="0"
     style="fill:#c1694f" />
  <path
     d="m 5.9910526,32 c 0,0 0,4 4,4 l 16.0000004,0 c 0,0 4,0 4,-4 l 0,-22 c 0,0 0,-4 -4,-4 L 9.9910526,6 c -4,0 -4,4 -4,4 l 0,22 z"
     id="path10"
     inkscape:connector-curvature="0"
     style="fill:#be1931" />
  <path
     d="m 23.991053,28 -12,0 C 9.7900526,28 8.9910526,26.206 8.9910526,25 l 0,-14 c 0,-0.552 0.448,-1 1,-1 0.5520004,0 1.0000004,0.448 1.0000004,1 l 0,14 c 0.012,0.45 0.195,1 1,1 l 12,0 c 0.45,-0.012 1,-0.194 1,-1 l 0,-14 c 0,-0.552 0.447,-1 1,-1 0.553,0 1,0.448 1,1 l 0,14 c 0,2.201 -1.794,3 -3,3 z"
     id="path12"
     inkscape:connector-curvature="0"
     style="fill:#a0041e" />
  <path
     d="m 15.991053,25 c 0,0 0,-1 1,-1 l 2,0 c 0,0 1,0 1,1 l 0,5 c 0,0 0,1 -1,1 l -2,0 c 0,0 -1,0 -1,-1 l 0,-5 z"
     id="path14"
     inkscape:connector-curvature="0"
     style="fill:#ffffff" />
</svg>
