<?xml version="1.0" encoding="UTF-8" standalone="no"?>
<svg
   xmlns:dc="http://purl.org/dc/elements/1.1/"
   xmlns:cc="http://creativecommons.org/ns#"
   xmlns:rdf="http://www.w3.org/1999/02/22-rdf-syntax-ns#"
   xmlns:svg="http://www.w3.org/2000/svg"
   xmlns="http://www.w3.org/2000/svg"
   xmlns:sodipodi="http://sodipodi.sourceforge.net/DTD/sodipodi-0.dtd"
   xmlns:inkscape="http://www.inkscape.org/namespaces/inkscape"
   viewBox="0 0 35.802124 35.808178"
   id="svg2"
   version="1.1"
   inkscape:version="0.91 r13725"
   sodipodi:docname="1f3ab.svg"
   width="35.802124"
   height="35.808178">
  <metadata
     id="metadata12">
    <rdf:RDF>
      <cc:Work
         rdf:about="">
        <dc:format>image/svg+xml</dc:format>
        <dc:type
           rdf:resource="http://purl.org/dc/dcmitype/StillImage" />
      </cc:Work>
    </rdf:RDF>
  </metadata>
  <defs
     id="defs10" />
  <sodipodi:namedview
     pagecolor="#ffffff"
     bordercolor="#666666"
     borderopacity="1"
     objecttolerance="10"
     gridtolerance="10"
     guidetolerance="10"
     inkscape:pageopacity="0"
     inkscape:pageshadow="2"
     inkscape:window-width="640"
     inkscape:window-height="480"
     id="namedview8"
     showgrid="false"
     inkscape:zoom="6.5555556"
     inkscape:cx="17.901"
     inkscape:cy="17.902"
     inkscape:window-x="0"
     inkscape:window-y="0"
     inkscape:window-maximized="0"
     inkscape:current-layer="svg2" />
  <path
     d="m 34.669,10.720178 -2.736,-2.7370002 -4.108,-4.106 -2.738,-2.738 c -1.512,-1.51199997 -3.963,-1.51199997 -5.433,-0.041 l -5.91,5.911 c 0.082,0.301 0.157,0.589 0.157,0.897 0,1.104 -0.896,2 -2,2 -0.308,0 -0.596,-0.075 -0.857,-0.2 l -9.91,9.9110002 c -1.512,1.513 -1.512,3.963 0,5.476 l 2.738,2.737 4.106,4.107 2.737,2.737 c 1.512,1.512 3.964,1.512 5.476,0 l 9.911,-9.91 c -0.126,-0.261 -0.201,-0.55 -0.201,-0.858 0,-1.104 0.896,-2 2,-2 0.308,0 0.597,0.075 0.857,0.2 l 5.91,-5.911 c 1.512,-1.512 1.512,-3.964 10e-4,-5.475 z m -18.768,3.186 c -1.104,0 -2,-0.896 -2,-2 0,-1.104 0.896,-2.0000002 2,-2.0000002 1.104,0 2,0.8960002 2,2.0000002 0,1.104 -0.896,2 -2,2 z m 4,4 c -1.104,0 -2,-0.896 -2,-2 0,-1.104 0.896,-2 2,-2 1.104,0 2,0.896 2,2 0,1.104 -0.896,2 -2,2 z m 4,4 c -1.104,0 -2,-0.896 -2,-2 0,-1.104 0.896,-2 2,-2 1.104,0 2,0.896 2,2 0,1.104 -0.896,2 -2,2 z"
     id="path4"
     inkscape:connector-curvature="0"
     style="fill:#ccd6dd" />
  <path
     d="m 10.901,29.906178 c -0.256,0 -0.512,-0.098 -0.707,-0.293 -0.391,-0.391 -0.391,-1.023 0,-1.414 l 4,-4 c 0.391,-0.391 1.023,-0.391 1.414,0 0.391,0.391 0.391,1.023 0,1.414 l -4,4 c -0.195,0.195 -0.451,0.293 -0.707,0.293 z m -3,-3 c -0.256,0 -0.512,-0.098 -0.707,-0.293 -0.391,-0.391 -0.391,-1.023 0,-1.414 l 7,-7 c 0.391,-0.391 1.023,-0.391 1.414,0 0.391,0.391 0.391,1.023 0,1.414 l -7,7 c -0.195,0.195 -0.451,0.293 -0.707,0.293 z m -3,-3 c -0.256,0 -0.512,-0.098 -0.707,-0.293 -0.391,-0.391 -0.391,-1.023 0,-1.414 l 7,-7 c 0.391,-0.391 1.023,-0.391 1.414,0 0.391,0.391 0.391,1.023 0,1.414 l -7,7 c -0.195,0.195 -0.451,0.293 -0.707,0.293 z M 20.298,6.6891778 c -0.245,-0.534 -0.229,-1.179 0.204,-1.611 0.45,-0.45 1.059,-0.467 1.61,-0.204 l 6.277,2.951 c 0.186,0.084 0.322,0.187 0.381,0.246 0.331,0.331 0.289,0.832 -0.025,1.146 -0.355,0.356 -0.721,0.348 -1.06,0.178 l -1.051,-0.543 -2.357,2.3570002 0.534,1.043 c 0.179,0.347 0.187,0.712 -0.161,1.06 -0.34,0.339 -0.883,0.373 -1.222,0.034 -0.136,-0.136 -0.194,-0.28 -0.22,-0.339 l -2.91,-6.3180002 z m 3.172,2.985 1.611,-1.611 -3.248,-1.671 -0.017,0.017 1.654,3.265 z"
     id="path6"
     inkscape:connector-curvature="0"
     style="fill:#99aab5" />
</svg>
