<?xml version="1.0" encoding="UTF-8" standalone="no"?>
<svg
   xmlns:dc="http://purl.org/dc/elements/1.1/"
   xmlns:cc="http://creativecommons.org/ns#"
   xmlns:rdf="http://www.w3.org/1999/02/22-rdf-syntax-ns#"
   xmlns:svg="http://www.w3.org/2000/svg"
   xmlns="http://www.w3.org/2000/svg"
   xmlns:sodipodi="http://sodipodi.sourceforge.net/DTD/sodipodi-0.dtd"
   xmlns:inkscape="http://www.inkscape.org/namespaces/inkscape"
   viewBox="0 0 35.689999 36"
   id="svg2"
   version="1.1"
   inkscape:version="0.91 r13725"
   sodipodi:docname="1f3ac.svg"
   width="35.689999"
   height="36">
  <metadata
     id="metadata20">
    <rdf:RDF>
      <cc:Work
         rdf:about="">
        <dc:format>image/svg+xml</dc:format>
        <dc:type
           rdf:resource="http://purl.org/dc/dcmitype/StillImage" />
      </cc:Work>
    </rdf:RDF>
  </metadata>
  <defs
     id="defs18" />
  <sodipodi:namedview
     pagecolor="#ffffff"
     bordercolor="#666666"
     borderopacity="1"
     objecttolerance="10"
     gridtolerance="10"
     guidetolerance="10"
     inkscape:pageopacity="0"
     inkscape:pageshadow="2"
     inkscape:window-width="640"
     inkscape:window-height="480"
     id="namedview16"
     showgrid="false"
     inkscape:zoom="6.5555556"
     inkscape:cx="17.845"
     inkscape:cy="18"
     inkscape:window-x="0"
     inkscape:window-y="0"
     inkscape:window-maximized="0"
     inkscape:current-layer="svg2" />
  <path
     d="m 35.69,32 c 0,2.2 -1.8,4 -4,4 l -26,0 c -2.2,0 -4,-1.8 -4,-4 l 0,-13 c 0,-2.2 1.8,-4 4,-4 l 26,0 c 2.2,0 4,1.8 4,4 l 0,13 z"
     id="path4"
     inkscape:connector-curvature="0"
     style="fill:#3f7123" />
  <path
     d="m 1.69,15 34,0 0,6 -34,0 z"
     id="path6"
     inkscape:connector-curvature="0"
     style="fill:#3f7123" />
  <path
     d="m 1.69,15 34,0 0,7 -34,0 z"
     id="path8"
     inkscape:connector-curvature="0"
     style="fill:#ccd6dd" />
  <path
     d="m 1.69,15 4,0 -4,7 0,-7 z m 11,0 -4,7 7,0 4,-7 -7,0 z m 14,0 -4,7 7,0 4,-7 -7,0 z"
     id="path10"
     inkscape:connector-curvature="0"
     style="fill:#292f33" />
  <path
     d="M 0,8.207 32.993,0 34.683,6.792 1.69,15 Z"
     id="path12"
     inkscape:connector-curvature="0"
     style="fill:#ccd6dd" />
  <path
     d="M 0,8.207 5.572,14.034 1.69,15 0,8.207 Z m 19.158,2.448 -5.572,-5.828 -6.793,1.69 5.572,5.828 6.793,-1.69 z m 13.586,-3.38 -5.572,-5.828 -6.793,1.69 5.572,5.827 6.793,-1.689 z"
     id="path14"
     inkscape:connector-curvature="0"
     style="fill:#292f33" />
</svg>
