<?xml version="1.0" encoding="UTF-8" standalone="no"?>
<svg
   xmlns:dc="http://purl.org/dc/elements/1.1/"
   xmlns:cc="http://creativecommons.org/ns#"
   xmlns:rdf="http://www.w3.org/1999/02/22-rdf-syntax-ns#"
   xmlns:svg="http://www.w3.org/2000/svg"
   xmlns="http://www.w3.org/2000/svg"
   xmlns:sodipodi="http://sodipodi.sourceforge.net/DTD/sodipodi-0.dtd"
   xmlns:inkscape="http://www.inkscape.org/namespaces/inkscape"
   viewBox="0 0 36 35.765999"
   id="svg2"
   version="1.1"
   inkscape:version="0.91 r13725"
   sodipodi:docname="1f3a2.svg"
   width="36"
   height="35.765999">
  <metadata
     id="metadata62">
    <rdf:RDF>
      <cc:Work
         rdf:about="">
        <dc:format>image/svg+xml</dc:format>
        <dc:type
           rdf:resource="http://purl.org/dc/dcmitype/StillImage" />
      </cc:Work>
    </rdf:RDF>
  </metadata>
  <defs
     id="defs60" />
  <sodipodi:namedview
     pagecolor="#ffffff"
     bordercolor="#666666"
     borderopacity="1"
     objecttolerance="10"
     gridtolerance="10"
     guidetolerance="10"
     inkscape:pageopacity="0"
     inkscape:pageshadow="2"
     inkscape:window-width="640"
     inkscape:window-height="480"
     id="namedview58"
     showgrid="false"
     inkscape:zoom="6.5555556"
     inkscape:cx="18"
     inkscape:cy="18"
     inkscape:window-x="0"
     inkscape:window-y="0"
     inkscape:window-maximized="0"
     inkscape:current-layer="svg2" />
  <path
     d="m 32.612,16.411 0,-1 -4.083,0 0,-7.312 -1,0 0,7.312 -3.11,0 0,1 3.11,0 0,4 -8.979,0 0,-4.604 -1,0 0,4.604 -4.75,0 0,1 4.75,0 0,4 -8.938,0 0,-3.208 -1,0 0,3.208 -5.407,0 0,1 5.407,0 0,4 -5.407,0 0,1 5.407,0 0,4.355 1,0 0,-4.355 8.938,0 0,4.355 1,0 0,-4.355 8.979,0 0,4.355 1,0 0,-4.355 4.083,0 0,-1 -4.083,0 0,-4 4.083,0 0,-1 -4.083,0 0,-4 4.083,0 0,-1 -4.083,0 0,-4 4.083,0 z m -24,14 0,-4 8.938,0 0,4 -8.938,0 z m 18.917,0 -8.979,0 0,-4 8.979,0 0,4 z m 0,-5 -8.979,0 0,-4 8.979,0 0,4 z"
     id="path4"
     inkscape:connector-curvature="0"
     style="fill:#e1e8ed" />
  <path
     d="m 31.05,6.361 4,0 0,29.405 -4,0 z"
     id="path6"
     inkscape:connector-curvature="0"
     style="fill:#ccd6dd" />
  <path
     d="m 34.05,6.361 1,0 0,29.405 -1,0 z"
     id="path8"
     inkscape:connector-curvature="0"
     style="fill:#8899a6" />
  <path
     d="m 25.05,9.974 -4,2.417 0,23.375 4,0 z m -14,10.709 4,0 0,15.083 -4,0 z m -10,4.791 4,0 0,10.292 -4,0 z"
     id="path10"
     inkscape:connector-curvature="0"
     style="fill:#ccd6dd" />
  <path
     d="m 4.05,25.474 1,0 0,10.292 -1,0 z m 10,-4.791 1,0 0,15.083 -1,0 z m 10,-10.709 1,0 0,25.792 -1,0 z"
     id="path12"
     inkscape:connector-curvature="0"
     style="fill:#8899a6" />
  <path
     d="M 18.804,16.144 C 12.948,21.093 6.491,26.537 0,28.801 l 0,1.816 c 7.387,-2.665 14.422,-8.66 20.363,-13.725 4.789,-4.083 9.313,-7.939 11.764,-7.939 1.46,0 2.746,0.513 3.873,1.337 l 0,-1.786 c -1.11,-0.651 -2.39,-1.05 -3.873,-1.05 -3.041,0 -8.035,4.221 -13.323,8.69 z"
     id="path14"
     inkscape:connector-curvature="0"
     style="fill:#ccd6dd" />
  <path
     d="m 32.127,4.454 c -4.139,0 -9.292,4.355 -15.26,9.399 C 11.523,18.369 5.653,23.324 0,25.606 l 0,3.196 c 6.491,-2.265 12.948,-7.708 18.804,-12.657 5.288,-4.469 10.282,-8.69 13.323,-8.69 1.483,0 2.763,0.399 3.873,1.05 l 0,-3.36 C 34.846,4.707 33.561,4.454 32.127,4.454 Z"
     id="path16"
     inkscape:connector-curvature="0"
     style="fill:#dd2e44" />
  <path
     d="m 10.912,14.188 -0.368,0.29 c -0.142,0.112 -0.348,0.087 -0.459,-0.054 L 9.167,13.26 C 9.055,13.118 9.08,12.912 9.221,12.801 l 0.368,-0.29 c 0.142,-0.112 0.348,-0.087 0.459,0.054 l 0.918,1.164 c 0.112,0.142 0.088,0.347 -0.054,0.459 z m 3.438,-2.632 -0.368,0.29 c -0.142,0.112 -0.348,0.087 -0.459,-0.054 l -0.918,-1.164 c -0.112,-0.142 -0.087,-0.348 0.054,-0.459 l 0.368,-0.29 c 0.142,-0.112 0.348,-0.087 0.459,0.054 l 0.918,1.164 c 0.112,0.142 0.088,0.347 -0.054,0.459 z m 6.52,-5.208 -0.368,0.29 C 20.36,6.75 20.154,6.725 20.043,6.584 L 19.125,5.42 C 19.013,5.278 19.038,5.072 19.179,4.961 l 0.368,-0.29 c 0.142,-0.112 0.348,-0.087 0.459,0.054 l 0.918,1.164 c 0.113,0.141 0.088,0.347 -0.054,0.459 z m 3.471,-2.664 -0.368,0.29 C 23.831,4.086 23.625,4.061 23.514,3.92 L 22.596,2.756 C 22.484,2.614 22.509,2.408 22.65,2.297 l 0.368,-0.29 C 23.16,1.895 23.366,1.92 23.477,2.061 l 0.918,1.164 c 0.112,0.141 0.088,0.347 -0.054,0.459 z m -8.532,9.678 c -0.217,0 -0.433,-0.094 -0.581,-0.275 -0.262,-0.32 -0.215,-0.793 0.106,-1.055 l 1.409,-1.152 c 0.321,-0.262 0.794,-0.216 1.056,0.106 0.262,0.32 0.215,0.793 -0.106,1.055 l -1.409,1.152 c -0.14,0.113 -0.308,0.169 -0.475,0.169 z"
     id="path18"
     inkscape:connector-curvature="0"
     style="fill:#1c6399" />
  <path
     d="M 8.208,14.308 5.557,12.557 C 5.444,12.481 5.288,12.513 5.21,12.628 c -0.076,0.115 -0.044,0.27 0.071,0.346 l 2.651,1.751 c 0.042,0.028 0.09,0.042 0.138,0.042 0.081,0 0.16,-0.04 0.209,-0.112 0.076,-0.116 0.044,-0.27 -0.071,-0.347 z M 11.64,11.631 8.97,9.719 C 8.858,9.638 8.701,9.663 8.621,9.777 8.541,9.889 8.566,10.046 8.679,10.126 l 2.67,1.912 c 0.044,0.032 0.095,0.047 0.146,0.047 0.078,0 0.154,-0.036 0.203,-0.104 0.08,-0.113 0.055,-0.27 -0.058,-0.35 z M 18.213,6.414 15.465,4.938 c -0.12,-0.065 -0.271,-0.02 -0.339,0.102 -0.064,0.122 -0.02,0.273 0.103,0.338 l 2.748,1.476 c 0.037,0.02 0.078,0.03 0.118,0.03 0.089,0 0.175,-0.048 0.221,-0.132 C 18.38,6.631 18.335,6.479 18.213,6.414 Z M 21.493,3.632 18.86,2.285 C 18.735,2.223 18.586,2.271 18.523,2.394 18.46,2.517 18.509,2.667 18.631,2.73 l 2.633,1.347 c 0.037,0.019 0.076,0.027 0.114,0.027 0.091,0 0.179,-0.05 0.223,-0.136 0.063,-0.123 0.014,-0.273 -0.108,-0.336 z"
     id="path20"
     inkscape:connector-curvature="0"
     style="fill:#ffe8b6" />
  <path
     d="m 10.349,14.835 c 0.82,1.044 0.676,1.731 0.154,2.141 -0.522,0.41 -1.224,0.387 -2.044,-0.656 -0.82,-1.043 -1.062,-2.222 -0.54,-2.632 0.523,-0.411 1.61,0.103 2.43,1.147 z"
     id="path22"
     inkscape:connector-curvature="0"
     style="fill:#be1931" />
  <path
     d="m 13.745,12.167 c 0.82,1.044 0.676,1.731 0.154,2.141 -0.522,0.41 -1.224,0.387 -2.044,-0.656 -0.82,-1.043 -1.062,-2.222 -0.54,-2.632 0.523,-0.411 1.61,0.103 2.43,1.147 z"
     id="path24"
     inkscape:connector-curvature="0"
     style="fill:#5c913b" />
  <path
     d="m 13.599,11.436 -5.892,4.629 c -1.522,1.196 -0.604,4.01 -0.332,4.356 0.291,0.371 0.829,0.436 1.2,0.144 l 7.459,-5.86 c 0.742,-0.583 0.871,-1.657 0.288,-2.399 l -0.406,-0.517 c -0.583,-0.743 -1.62,-0.901 -2.317,-0.353 z"
     id="path26"
     inkscape:connector-curvature="0"
     style="fill:#3b94d9" />
  <path
     d="m 20.178,6.874 c 0.82,1.044 0.676,1.731 0.154,2.141 -0.522,0.41 -1.224,0.387 -2.043,-0.657 -0.82,-1.044 -1.062,-2.222 -0.539,-2.632 0.521,-0.41 1.608,0.104 2.428,1.148 z"
     id="path28"
     inkscape:connector-curvature="0"
     style="fill:#fa743e" />
  <path
     d="m 23.628,4.153 c 0.82,1.044 0.676,1.731 0.154,2.141 C 23.26,6.704 22.558,6.681 21.739,5.637 20.919,4.593 20.677,3.415 21.2,3.005 c 0.521,-0.41 1.609,0.104 2.428,1.148 z"
     id="path30"
     inkscape:connector-curvature="0"
     style="fill:#744eaa" />
  <path
     d="m 23.429,3.475 -5.893,4.629 c -1.522,1.195 -0.604,4.01 -0.332,4.356 0.291,0.371 0.829,0.436 1.2,0.144 l 7.46,-5.859 C 26.606,6.162 26.735,5.088 26.152,4.346 L 25.746,3.829 C 25.163,3.086 24.125,2.928 23.429,3.475 Z"
     id="path32"
     inkscape:connector-curvature="0"
     style="fill:#3b94d9" />
  <path
     d="M 9.096,20.604 C 8.948,20.604 8.801,20.538 8.702,20.412 8.531,20.195 8.57,19.88 8.788,19.71 l 7.059,-5.515 c 0.215,-0.168 0.53,-0.132 0.701,0.086 0.171,0.217 0.132,0.532 -0.086,0.702 l -7.059,5.515 c -0.09,0.072 -0.198,0.106 -0.307,0.106 z m 9.787,-7.906 c -0.148,0 -0.295,-0.066 -0.394,-0.192 -0.171,-0.217 -0.132,-0.532 0.086,-0.702 l 7.059,-5.515 c 0.216,-0.169 0.53,-0.132 0.701,0.086 0.171,0.217 0.132,0.532 -0.086,0.702 l -7.059,5.515 c -0.091,0.071 -0.199,0.106 -0.307,0.106 z"
     id="path34"
     inkscape:connector-curvature="0"
     style="fill:#e1e8ed" />
  <path
     d="M 21.292,1.702 C 21.672,2.15 21.663,2.784 21.271,3.117 20.879,3.45 20.057,3.312 19.676,2.864 19.58,2.751 19.504,2.631 19.443,2.538 c -0.396,-0.606 0.11,-0.756 0.45,-1.045 0.392,-0.333 1.019,-0.24 1.399,0.209 z"
     id="path36"
     inkscape:connector-curvature="0"
     style="fill:#ffdc5d" />
  <path
     d="m 20.982,1.133 c 0,0 -0.29,-0.237 0.074,-0.602 0.301,-0.302 0.687,-0.02 1.028,-0.093 0.258,-0.055 0.462,-0.223 0.523,-0.438 0,0 0.005,0.399 -0.136,0.673 C 22.287,1.029 21.875,1.25 21.633,1.302 21.255,1.384 20.982,1.133 20.982,1.133 Z"
     id="path38"
     inkscape:connector-curvature="0"
     style="fill:#ffac33" />
  <path
     d="m 19.256,1.655 c 0.058,-0.297 0.514,-0.744 0.983,-0.847 0.529,-0.117 0.921,0.16 1.17,0.577 0.229,0.383 0.157,0.957 0.157,0.957 0,0 -0.503,-0.196 -0.457,-0.244 C 21.194,2.008 21.005,1.672 20.862,1.662 20.711,1.651 20.7,1.8 20.748,1.898 l 0.189,0.375 c 0,0 -0.232,-0.309 -0.392,-0.326 -0.263,-0.028 -0.869,0.77 -1.103,0.59 C 19.298,2.425 19.183,2.022 19.256,1.655 Z"
     id="path40"
     inkscape:connector-curvature="0"
     style="fill:#ffac33" />
  <path
     d="m 7.887,12.523 c 0.419,0.412 0.466,1.044 0.106,1.411 C 7.632,14.301 6.802,14.237 6.382,13.825 6.276,13.721 6.19,13.608 6.121,13.521 5.672,12.953 6.163,12.758 6.475,12.44 c 0.36,-0.366 0.993,-0.329 1.412,0.083 z"
     id="path42"
     inkscape:connector-curvature="0"
     style="fill:#ffdc5d" />
  <path
     d="m 7.527,11.984 c 0,0 -0.311,-0.21 0.02,-0.607 0.273,-0.327 0.682,-0.082 1.016,-0.185 0.252,-0.077 0.441,-0.264 0.481,-0.483 0,0 0.041,0.397 -0.075,0.683 -0.151,0.371 -0.542,0.628 -0.778,0.702 -0.369,0.116 -0.664,-0.11 -0.664,-0.11 z"
     id="path44"
     inkscape:connector-curvature="0"
     style="fill:#ffac33" />
  <path
     d="m 5.854,12.66 c 0.031,-0.301 0.445,-0.787 0.903,-0.932 0.516,-0.164 0.932,0.077 1.217,0.47 0.262,0.361 0.242,0.939 0.242,0.939 0,0 -0.518,-0.15 -0.477,-0.203 0.077,-0.097 -0.141,-0.415 -0.286,-0.412 -0.152,0.003 -0.149,0.152 -0.092,0.245 0.057,0.094 0.222,0.357 0.222,0.357 0,0 -0.259,-0.287 -0.419,-0.289 C 6.9,12.831 6.368,13.68 6.119,13.522 5.965,13.423 5.815,13.032 5.854,12.66 Z"
     id="path46"
     inkscape:connector-curvature="0"
     style="fill:#ffac33" />
  <path
     d="M 17.818,4.462 C 18.198,4.91 18.189,5.544 17.797,5.877 17.405,6.21 16.583,6.072 16.202,5.624 16.106,5.511 16.03,5.391 15.969,5.298 c -0.396,-0.606 0.11,-0.756 0.45,-1.045 0.392,-0.332 1.018,-0.239 1.399,0.209 z"
     id="path48"
     inkscape:connector-curvature="0"
     style="fill:#ffdc5d" />
  <path
     d="m 15.781,4.416 c 0.058,-0.297 0.514,-0.744 0.983,-0.847 0.529,-0.117 0.921,0.16 1.17,0.577 0.229,0.383 0.157,0.957 0.157,0.957 0,0 -0.503,-0.196 -0.457,-0.244 C 17.719,4.769 17.53,4.433 17.387,4.423 17.236,4.412 17.225,4.561 17.273,4.659 17.322,4.757 17.338,4.822 17.291,4.876 17.244,4.931 16.964,4.689 16.805,4.672 16.542,4.644 16.203,5.478 15.969,5.298 15.823,5.186 15.709,4.783 15.781,4.416 Z"
     id="path50"
     inkscape:connector-curvature="0"
     style="fill:#ffac33" />
  <path
     d="m 11.412,9.822 c 0.38,0.448 0.371,1.082 -0.021,1.415 C 10.999,11.57 10.177,11.432 9.796,10.984 9.7,10.871 9.624,10.751 9.563,10.658 9.167,10.052 9.673,9.902 10.013,9.613 10.405,9.28 11.031,9.373 11.412,9.822 Z"
     id="path52"
     inkscape:connector-curvature="0"
     style="fill:#ffdc5d" />
  <path
     d="m 9.375,9.776 c 0.058,-0.297 0.514,-0.744 0.983,-0.847 0.529,-0.117 0.921,0.16 1.17,0.577 0.229,0.383 0.157,0.957 0.157,0.957 0,0 -0.503,-0.196 -0.457,-0.244 0.085,-0.09 -0.104,-0.426 -0.247,-0.436 -0.151,-0.011 -0.162,0.138 -0.114,0.236 0.049,0.098 0.065,0.163 0.018,0.217 C 10.838,10.29 10.558,10.049 10.399,10.032 10.136,10.004 9.797,10.838 9.563,10.658 9.417,10.545 9.303,10.142 9.375,9.776 Z"
     id="path54"
     inkscape:connector-curvature="0"
     style="fill:#ffac33" />
  <path
     d="M 21.767,3.416 19,1.021 c -0.105,-0.09 -0.263,-0.078 -0.354,0.025 -0.09,0.104 -0.078,0.262 0.026,0.353 l 2.767,2.395 c 0.048,0.041 0.106,0.061 0.164,0.061 0.07,0 0.14,-0.029 0.189,-0.086 0.091,-0.105 0.08,-0.263 -0.025,-0.353 z M 18.295,6.03 15.723,3.959 C 15.615,3.873 15.457,3.89 15.371,3.997 c -0.087,0.107 -0.07,0.265 0.037,0.352 l 2.574,2.071 c 0.046,0.037 0.102,0.055 0.156,0.055 0.073,0 0.146,-0.032 0.194,-0.093 C 18.42,6.274 18.403,6.117 18.295,6.03 Z M 8.464,14.082 5.694,11.61 C 5.593,11.519 5.435,11.527 5.341,11.63 5.249,11.733 5.258,11.891 5.362,11.983 l 2.77,2.472 c 0.047,0.042 0.106,0.063 0.166,0.063 0.068,0 0.137,-0.028 0.187,-0.083 0.091,-0.103 0.082,-0.261 -0.021,-0.353 z M 11.893,11.404 9.25,8.922 C 9.151,8.828 8.993,8.832 8.896,8.933 8.802,9.034 8.807,9.192 8.908,9.286 l 2.644,2.482 c 0.048,0.045 0.109,0.068 0.171,0.068 0.066,0 0.133,-0.026 0.183,-0.079 0.093,-0.1 0.088,-0.259 -0.013,-0.353 z"
     id="path56"
     inkscape:connector-curvature="0"
     style="fill:#ffe8b6" />
</svg>
