<?xml version="1.0" encoding="UTF-8" standalone="no"?>
<svg
   xmlns:dc="http://purl.org/dc/elements/1.1/"
   xmlns:cc="http://creativecommons.org/ns#"
   xmlns:rdf="http://www.w3.org/1999/02/22-rdf-syntax-ns#"
   xmlns:svg="http://www.w3.org/2000/svg"
   xmlns="http://www.w3.org/2000/svg"
   xmlns:sodipodi="http://sodipodi.sourceforge.net/DTD/sodipodi-0.dtd"
   xmlns:inkscape="http://www.inkscape.org/namespaces/inkscape"
   viewBox="0 0 36 35.953426"
   id="svg2"
   version="1.1"
   inkscape:version="0.91 r13725"
   sodipodi:docname="1f3ad.svg"
   width="36"
   height="35.953426">
  <metadata
     id="metadata16">
    <rdf:RDF>
      <cc:Work
         rdf:about="">
        <dc:format>image/svg+xml</dc:format>
        <dc:type
           rdf:resource="http://purl.org/dc/dcmitype/StillImage" />
      </cc:Work>
    </rdf:RDF>
  </metadata>
  <defs
     id="defs14" />
  <sodipodi:namedview
     pagecolor="#ffffff"
     bordercolor="#666666"
     borderopacity="1"
     objecttolerance="10"
     gridtolerance="10"
     guidetolerance="10"
     inkscape:pageopacity="0"
     inkscape:pageshadow="2"
     inkscape:window-width="640"
     inkscape:window-height="480"
     id="namedview12"
     showgrid="false"
     inkscape:zoom="6.5555556"
     inkscape:cx="18"
     inkscape:cy="18"
     inkscape:window-x="0"
     inkscape:window-y="0"
     inkscape:window-maximized="0"
     inkscape:current-layer="svg2" />
  <path
     d="m 22,4.5404257 c 0,6.0750003 -3.667,18.3330003 -11,18.3330003 -7.333,0 -11,-12.257 -11,-18.3330003 0,-7.18 8.25,-3.66699999 11,-3.66699999 2.712,0 11,-3.55100001 11,3.66699999 z"
     id="path4"
     inkscape:connector-curvature="0"
     style="fill:#a6d388" />
  <path
     d="m 5.5,11.873426 c 4.583,2.75 7.333,2.75 11,0 2.75,-1.833 -1.833,6.417 -5.5,6.417 -3.667,0 -8.25,-8.25 -5.5,-6.417 z M 3.666,8.2074257 c -0.138,0 -0.278,-0.031 -0.41,-0.097 -0.452,-0.226 -0.636,-0.777 -0.409,-1.23 0.636,-1.272 1.933,-2.15 3.303,-2.235 0.839,-0.047 2.458,0.155 3.779,2.137 0.281,0.421 0.167,0.99 -0.254,1.271 -0.423,0.281 -0.991,0.167 -1.271,-0.254 -0.61,-0.915 -1.355,-1.374 -2.14,-1.324 -0.73,0.045 -1.428,0.526 -1.777,1.226 -0.161,0.32 -0.485,0.506 -0.821,0.506 z m 14.668,0 c -0.336,0 -0.66,-0.186 -0.82,-0.507 -0.35,-0.699 -1.047,-1.18 -1.777,-1.226 -0.776,-0.042 -1.529,0.409 -2.14,1.324 -0.282,0.422 -0.85,0.535 -1.271,0.254 -0.421,-0.281 -0.535,-0.85 -0.254,-1.271 1.32,-1.983 2.931,-2.186 3.779,-2.137 1.37,0.085 2.667,0.963 3.303,2.235 0.227,0.453 0.043,1.003 -0.41,1.23 -0.132,0.067 -0.272,0.098 -0.41,0.098 z"
     id="path6"
     inkscape:connector-curvature="0"
     style="fill:#5c913b" />
  <path
     d="m 36,17.620426 c 0,6.074 -3.667,18.333 -11,18.333 -7.333,0 -11,-12.259 -11,-18.333 0,-7.181 8.25,-3.667 11,-3.667 2.713,0 11,-3.552 11,3.667 z"
     id="path8"
     inkscape:connector-curvature="0"
     style="fill:#cbb7ea" />
  <path
     d="m 29.5,30.104426 c -3.5,-2.151 -5.5,-2.151 -9,0 -2.75,1.833 0.833,-4.417 4.5,-4.417 3.667,0 7.25,6.25 4.5,4.417 z m -12.5,-8.234 c -0.138,0 -0.278,-0.031 -0.41,-0.097 -0.453,-0.226 -0.636,-0.777 -0.41,-1.23 0.7,-1.399 2.404,-2.49 4.051,-2.592 1.489,-0.099 2.815,0.585 3.698,1.911 0.281,0.422 0.167,0.99 -0.254,1.272 -0.421,0.281 -0.99,0.167 -1.271,-0.254 -0.522,-0.782 -1.215,-1.148 -2.059,-1.099 -1.121,0.069 -2.164,0.859 -2.526,1.583 -0.16,0.32 -0.484,0.506 -0.819,0.506 z m 16.001,0 c -0.337,0 -0.66,-0.186 -0.821,-0.508 -0.36,-0.723 -1.403,-1.512 -2.524,-1.582 -0.842,-0.047 -1.539,0.316 -2.06,1.099 -0.28,0.421 -0.851,0.535 -1.271,0.254 -0.421,-0.281 -0.535,-0.85 -0.254,-1.272 0.884,-1.326 2.188,-2.009 3.699,-1.911 1.648,0.103 3.352,1.194 4.051,2.593 0.226,0.452 0.042,1.003 -0.411,1.229 -0.132,0.067 -0.271,0.098 -0.409,0.098 z"
     id="path10"
     inkscape:connector-curvature="0"
     style="fill:#9266cc" />
</svg>
