<?xml version="1.0" encoding="UTF-8" standalone="no"?>
<svg
   xmlns:dc="http://purl.org/dc/elements/1.1/"
   xmlns:cc="http://creativecommons.org/ns#"
   xmlns:rdf="http://www.w3.org/1999/02/22-rdf-syntax-ns#"
   xmlns:svg="http://www.w3.org/2000/svg"
   xmlns="http://www.w3.org/2000/svg"
   xmlns:sodipodi="http://sodipodi.sourceforge.net/DTD/sodipodi-0.dtd"
   xmlns:inkscape="http://www.inkscape.org/namespaces/inkscape"
   viewBox="0 0 33.326969 35.358673"
   id="svg2"
   version="1.1"
   inkscape:version="0.91 r13725"
   sodipodi:docname="1f3a3.svg"
   width="33.326969"
   height="35.358673">
  <metadata
     id="metadata28">
    <rdf:RDF>
      <cc:Work
         rdf:about="">
        <dc:format>image/svg+xml</dc:format>
        <dc:type
           rdf:resource="http://purl.org/dc/dcmitype/StillImage" />
      </cc:Work>
    </rdf:RDF>
  </metadata>
  <defs
     id="defs26" />
  <sodipodi:namedview
     pagecolor="#ffffff"
     bordercolor="#666666"
     borderopacity="1"
     objecttolerance="10"
     gridtolerance="10"
     guidetolerance="10"
     inkscape:pageopacity="0"
     inkscape:pageshadow="2"
     inkscape:window-width="640"
     inkscape:window-height="480"
     id="namedview24"
     showgrid="false"
     inkscape:zoom="6.5555556"
     inkscape:cx="17"
     inkscape:cy="17.432635"
     inkscape:window-x="0"
     inkscape:window-y="0"
     inkscape:window-maximized="0"
     inkscape:current-layer="svg2" />
  <path
     d="m 7,15.92604 c -0.552,0 -1,-0.448 -1,-1 L 6,3.9260401 c 0,-0.552 0.448,-1 1,-1 0.552,0 1,0.448 1,1 L 8,14.92604 c 0,0.552 -0.448,1 -1,1 z"
     id="path4"
     inkscape:connector-curvature="0"
     style="fill:#ccd6dd" />
  <path
     d="m 1,32.92604 c 0,-2.236 4,-6 7,-6 l 0,5 c -1,0 -4,1 -5,2 -1,1 -2,0 -2,-1 z m 14,0 c 0,-2.236 -4,-6 -7,-6 l 0,5 c 1,0 4,1 5,2 1,1 2,0 2,-1 z"
     id="path6"
     inkscape:connector-curvature="0"
     style="fill:#3b88c3" />
  <path
     d="m 14,13.92604 c 2,0 4,1 4,2 0,3 -3.167,11.542 -8.167,12.542 -5,1 4.167,-14.542 4.167,-14.542 z m -12,6 c -1,1 -2,3 -2,5 0,2 2.75,-2.042 4,-1 1.718,1.432 -2,-4 -2,-4 z"
     id="path8"
     inkscape:connector-curvature="0"
     style="fill:#3b88c3" />
  <path
     d="m 4.583,12.17604 c 1.5,0.5 2.583,0.125 3.667,-0.75 1.084,-0.875 1.25,2.542 -0.25,3.667 -1.5,1.125 -4.125,3.75 -4.083,1.417 0.041,-2.334 0.666,-4.334 0.666,-4.334 z"
     id="path10"
     inkscape:connector-curvature="0" />
  <path
     d="m 8.023,10.92704 c -0.574,0.63 -1.856,2.332 -2.481,4.415 -0.875,0.5 -0.833,-1.208 -0.708,-1.75 0.225,-0.975 0.506,-0.977 0.346,-1.521 -0.21,-0.551 -0.789,-0.364 -1.119,-0.159 -1.713,0.984 -3.061,2.814 -3.061,6.014 0,5.522 5,13 7,13 2,0 7,-7.478 7,-13 0,-5.509 -3.979,-6.992 -6.977,-6.999 z"
     id="path12"
     inkscape:connector-curvature="0"
     style="fill:#55acee" />
  <circle
     cx="10.5"
     cy="15.42604"
     r="1.5"
     id="circle14" />
  <path
     d="m 7.954,22.75304 c -1.504,0 -2.829,-0.538 -4,-1.149 -0.49,-0.256 -0.679,-0.86 -0.423,-1.35 0.255,-0.488 0.859,-0.68 1.349,-0.424 1.891,0.988 3.59,1.385 5.735,0.11 0.475,-0.281 1.088,-0.124 1.37,0.35 0.282,0.476 0.125,1.089 -0.35,1.371 -1.334,0.792 -2.558,1.092 -3.681,1.092 z"
     id="path16"
     inkscape:connector-curvature="0"
     style="fill:#226699" />
  <path
     d="m 28.834,35.17604 c -0.494,-0.247 -1.042,-0.958 -0.729,-1.697 1.334,-3.146 4.278,-16.9 1.604,-24.7609999 -0.501,-1.472 -2.118,-3.659 -4.08,-4.863 -6.337,-3.88699995 -15.806,-1.758 -17.129,-1.096 -0.495,0.248 -2.044,0.744 -2.292,0.25 -0.247,-0.494 0.589,-1.003 1.083,-1.25 1.756,-0.87699995 11.264,-3.878 19.667,0.791 1.5,0.833 3.59,2.376 4.703,5.303 3.257,8.5669999 1.047,23.4159999 -0.787,26.8219999 -0.582,1.084 -1.896,0.572 -2.04,0.501 z"
     id="path18"
     inkscape:connector-curvature="0"
     style="fill:#662113" />
  <circle
     cx="27"
     cy="24.926041"
     r="4"
     id="circle20"
     style="fill:#99aab5" />
  <circle
     cx="27"
     cy="24.926041"
     r="2"
     id="circle22"
     style="fill:#66757f" />
</svg>
