<?xml version="1.0" encoding="UTF-8" standalone="no"?>
<svg
   xmlns:dc="http://purl.org/dc/elements/1.1/"
   xmlns:cc="http://creativecommons.org/ns#"
   xmlns:rdf="http://www.w3.org/1999/02/22-rdf-syntax-ns#"
   xmlns:svg="http://www.w3.org/2000/svg"
   xmlns="http://www.w3.org/2000/svg"
   xmlns:sodipodi="http://sodipodi.sourceforge.net/DTD/sodipodi-0.dtd"
   xmlns:inkscape="http://www.inkscape.org/namespaces/inkscape"
   viewBox="0 0 34 29"
   id="svg2"
   version="1.1"
   inkscape:version="0.91 r13725"
   sodipodi:docname="1f3a5.svg"
   width="34"
   height="29">
  <metadata
     id="metadata24">
    <rdf:RDF>
      <cc:Work
         rdf:about="">
        <dc:format>image/svg+xml</dc:format>
        <dc:type
           rdf:resource="http://purl.org/dc/dcmitype/StillImage" />
      </cc:Work>
    </rdf:RDF>
  </metadata>
  <defs
     id="defs22" />
  <sodipodi:namedview
     pagecolor="#ffffff"
     bordercolor="#666666"
     borderopacity="1"
     objecttolerance="10"
     gridtolerance="10"
     guidetolerance="10"
     inkscape:pageopacity="0"
     inkscape:pageshadow="2"
     inkscape:window-width="640"
     inkscape:window-height="480"
     id="namedview20"
     showgrid="false"
     inkscape:zoom="6.5555556"
     inkscape:cx="17"
     inkscape:cy="15"
     inkscape:window-x="0"
     inkscape:window-y="0"
     inkscape:window-maximized="0"
     inkscape:current-layer="svg2" />
  <path
     d="m 31,17 0,1 -2,0 0,-1 c 0,-0.446 -0.09,-0.867 -0.225,-1.268 2.446,-0.757 4.224,-3.038 4.224,-5.733 0,-3.314 -2.687,-6 -6,-6 -1.603,0 -3.055,0.632 -4.131,1.656 C 22.241,2.433 19.405,0 16,0 12.134,0 9,3.134 9,7 c 0,2.551 1.369,4.777 3.409,6 L 12,13 c -2.209,0 -4,1.791 -4,4 l -1,0 -6,-4 -1,0 0,14 1,0 6,-4 1,0 0,2 c 0,2.209 1.791,4 4,4 l 13,0 c 2.209,0 4,-1.791 4,-4 l 0,-3 2,0 0,1 3,0 0,-6 -3,0 z"
     id="path4"
     inkscape:connector-curvature="0"
     style="fill:#31373d" />
  <path
     d="m 21,7 c 0,2.761 -2.239,5 -5,5 -2.761,0 -5,-2.239 -5,-5 0,-2.761 2.239,-5 5,-5 2.761,0 5,2.238 5,5 z"
     id="path6"
     inkscape:connector-curvature="0"
     style="fill:#66757f" />
  <circle
     cx="16"
     cy="7"
     r="2"
     id="circle8"
     style="fill:#ccd6dd" />
  <circle
     cx="26.999001"
     cy="10"
     r="4"
     id="circle10"
     style="fill:#66757f" />
  <circle
     cx="26.999001"
     cy="10"
     r="2"
     id="circle12"
     style="fill:#ccd6dd" />
  <path
     d="m 16,16 10,0 0,10 -10,0 z"
     id="path14"
     inkscape:connector-curvature="0"
     style="fill:#8899a6" />
  <path
     d="m 18,18 6,0 0,6 -6,0 z"
     id="path16"
     inkscape:connector-curvature="0"
     style="fill:#31373d" />
  <circle
     cx="11.999"
     cy="24"
     r="2"
     id="circle18"
     style="fill:#8899a6" />
</svg>
