<?xml version="1.0" encoding="UTF-8" standalone="no"?>
<svg
   xmlns:dc="http://purl.org/dc/elements/1.1/"
   xmlns:cc="http://creativecommons.org/ns#"
   xmlns:rdf="http://www.w3.org/1999/02/22-rdf-syntax-ns#"
   xmlns:svg="http://www.w3.org/2000/svg"
   xmlns="http://www.w3.org/2000/svg"
   xmlns:sodipodi="http://sodipodi.sourceforge.net/DTD/sodipodi-0.dtd"
   xmlns:inkscape="http://www.inkscape.org/namespaces/inkscape"
   viewBox="0 0 35.265179 35.264"
   id="svg2"
   version="1.1"
   inkscape:version="0.91 r13725"
   sodipodi:docname="1f3bb.svg"
   width="35.265179"
   height="35.264">
  <metadata
     id="metadata28">
    <rdf:RDF>
      <cc:Work
         rdf:about="">
        <dc:format>image/svg+xml</dc:format>
        <dc:type
           rdf:resource="http://purl.org/dc/dcmitype/StillImage" />
      </cc:Work>
    </rdf:RDF>
  </metadata>
  <defs
     id="defs26" />
  <sodipodi:namedview
     pagecolor="#ffffff"
     bordercolor="#666666"
     borderopacity="1"
     objecttolerance="10"
     gridtolerance="10"
     guidetolerance="10"
     inkscape:pageopacity="0"
     inkscape:pageshadow="2"
     inkscape:window-width="640"
     inkscape:window-height="480"
     id="namedview24"
     showgrid="false"
     inkscape:zoom="6.5555556"
     inkscape:cx="17.265181"
     inkscape:cy="17.264"
     inkscape:window-x="0"
     inkscape:window-y="0"
     inkscape:window-maximized="0"
     inkscape:current-layer="svg2" />
  <path
     d="m 23.177181,12.087 c -1.693,-1.693 -3.594,-2.587 -5.497,-2.587 -1.626,0 -3.189,0.667 -4.402,1.88 -1.519,1.519 -1.727,2.39 -1.865,2.966 -0.071,0.295 -0.106,0.421 -0.255,0.57 -0.106,0.106 -0.155,0.256 -0.14,0.406 0.015,0.149 0.1,0.286 0.225,0.369 0.013,0.009 0.324,0.22 0.368,0.651 0.039,0.394 -0.13,1.08 -1.16,2.11 -0.6290005,0.629 -1.2520005,0.948 -1.8500005,0.948 -0.981,0 -1.649,-0.87 -1.654,-0.877 -0.11,-0.15 -0.295,-0.226 -0.48,-0.197 -0.185,0.029 -0.337,0.159 -0.396,0.335 -0.221,0.663 -0.251,0.668 -0.535,0.709 -0.59,0.086 -1.578,0.229 -3.624,2.275 -1.67499996,1.675 -2.26599996,3.767 -1.70799996,6.048 0.395,1.617 1.40799996,3.358 2.70799996,4.659 1.408,1.408 3.802,2.912 6.301,2.912 1.6540005,0 3.1370005,-0.643 4.4060005,-1.912 2.045,-2.046 2.189,-3.033 2.274,-3.624 0.042,-0.284 0.046,-0.313 0.71,-0.534 0.177,-0.06 0.307,-0.212 0.336,-0.396 0.029,-0.184 -0.046,-0.369 -0.196,-0.48 -0.008,-0.006 -0.805,-0.619 -0.873,-1.527 -0.047,-0.638 0.27,-1.302 0.944,-1.976 0.963,-0.963 1.622,-1.165 2.005,-1.165 0.504,0 0.746,0.357 0.752,0.366 0.08,0.13 0.216,0.216 0.368,0.234 0.142,0.016 0.303,-0.035 0.411,-0.144 0.149,-0.149 0.275,-0.185 0.57,-0.255 0.576,-0.139 1.446,-0.348 2.965,-1.866 2.286,-2.286 2.955,-6.234 -0.708,-9.898 z"
     id="path4"
     inkscape:connector-curvature="0"
     style="fill:#f18f26" />
  <path
     d="m 33.265181,3 -15,17 -3,-3 17,-15 z"
     id="path6"
     inkscape:connector-curvature="0"
     style="fill:#292f33" />
  <path
     d="m 12.265181,27 c -0.256,0 -0.512,-0.098 -0.707,-0.293 l -3.0000005,-3 c -0.391,-0.391 -0.391,-1.023 0,-1.414 0.391,-0.391 1.023,-0.391 1.414,0 l 3.0000005,3 c 0.391,0.391 0.391,1.023 0,1.414 -0.196,0.195 -0.452,0.293 -0.707,0.293 z"
     id="path8"
     inkscape:connector-curvature="0"
     style="fill:#642116" />
  <path
     d="M 3.8931805,29.935 28.065181,5.807 l 0.53,0.531 -24.1700005,24.128 z m 0.869,0.869 24.1730005,-24.128 0.531,0.532 -24.1730005,24.127 z"
     id="path10"
     inkscape:connector-curvature="0"
     style="fill:#ccd6dd" />
  <path
     d="m 33.969181,2.685 c 0.438,0.438 0.438,1.155 -10e-4,1.592 l -3.186,3.186 c -0.438,0.438 -1.155,0.438 -1.593,-0.001 l -1.39,-1.389 c -0.438,-0.438 -0.438,-1.155 10e-4,-1.592 l 3.187,-3.186 c 0.438,-0.438 1.155,-0.438 1.593,0 l 1.389,1.39 z"
     id="path12"
     inkscape:connector-curvature="0"
     style="fill:#f18f26" />
  <path
     d="m 1.2651805,32 4,-5 c 0,0 1,0 2,1 1,1 1,2 1,2 l -5,4 -2,-2 z"
     id="path14"
     inkscape:connector-curvature="0"
     style="fill:#292f33" />
  <circle
     cx="32.265179"
     cy="8"
     r="1"
     id="circle16"
     style="fill:#642116" />
  <circle
     cx="34.265179"
     cy="6"
     r="1"
     id="circle18"
     style="fill:#642116" />
  <circle
     cx="27.265181"
     cy="3"
     r="1"
     id="circle20"
     style="fill:#642116" />
  <circle
     cx="29.265181"
     cy="1"
     r="1"
     id="circle22"
     style="fill:#642116" />
</svg>
