<?xml version="1.0" encoding="UTF-8" standalone="no"?>
<svg
   xmlns:dc="http://purl.org/dc/elements/1.1/"
   xmlns:cc="http://creativecommons.org/ns#"
   xmlns:rdf="http://www.w3.org/1999/02/22-rdf-syntax-ns#"
   xmlns:svg="http://www.w3.org/2000/svg"
   xmlns="http://www.w3.org/2000/svg"
   xmlns:sodipodi="http://sodipodi.sourceforge.net/DTD/sodipodi-0.dtd"
   xmlns:inkscape="http://www.inkscape.org/namespaces/inkscape"
   viewBox="0 0 28 35.7075"
   id="svg2"
   version="1.1"
   inkscape:version="0.91 r13725"
   sodipodi:docname="1f3b2.svg"
   width="28"
   height="35.7075">
  <metadata
     id="metadata20">
    <rdf:RDF>
      <cc:Work
         rdf:about="">
        <dc:format>image/svg+xml</dc:format>
        <dc:type
           rdf:resource="http://purl.org/dc/dcmitype/StillImage" />
      </cc:Work>
    </rdf:RDF>
  </metadata>
  <defs
     id="defs18" />
  <sodipodi:namedview
     pagecolor="#ffffff"
     bordercolor="#666666"
     borderopacity="1"
     objecttolerance="10"
     gridtolerance="10"
     guidetolerance="10"
     inkscape:pageopacity="0"
     inkscape:pageshadow="2"
     inkscape:window-width="640"
     inkscape:window-height="480"
     id="namedview16"
     showgrid="false"
     inkscape:zoom="6.5555556"
     inkscape:cx="14"
     inkscape:cy="17.75"
     inkscape:window-x="0"
     inkscape:window-y="0"
     inkscape:window-maximized="0"
     inkscape:current-layer="svg2" />
  <path
     d="m 0,10.9575 0,0.137 c 0,-0.042 0.011,-0.084 0.015,-0.126 L 0,10.9575 Z m 13,11.137 c -0.146,-0.067 -0.287,-0.145 -0.412,-0.246 L 0.565,12.2025 C 0.188,11.8975 0,11.4965 0,11.0945 l 0,12.238 c 0,2.042 1.093,2.484 1.093,2.484 l 11.574,9.099 c 0.205,0.161 0.377,0.259 0.528,0.318 C 13.081,35.0595 13,34.8585 13,34.6295 l 0,-12.535 z m -8.773,0.363 c -0.994,0 -2.033,-1.007 -2.319,-2.25 -0.287,-1.242 0.287,-2.249 1.28,-2.249 0.994,0 2.033,1.007 2.319,2.249 0.287,1.243 -0.286,2.25 -1.28,2.25 z m 5.583,7.5 c -0.994,0 -2.033,-1.008 -2.319,-2.25 -0.287,-1.243 0.287,-2.25 1.281,-2.25 0.994,0 2.033,1.007 2.319,2.25 0.286,1.242 -0.287,2.25 -1.281,2.25 z"
     id="path4"
     inkscape:connector-curvature="0"
     style="fill:#a0041e" />
  <path
     d="m 27.435,12.1185 -12.104,9.73 c -0.102,0.083 -0.214,0.152 -0.331,0.212 l 0,12.569 c 0,0.233 -0.083,0.437 -0.2,0.614 0.155,-0.058 0.335,-0.16 0.548,-0.328 1.821,-1.432 11.588,-9.099 11.588,-9.099 0,0 1.064,-0.442 1.064,-2.484 l 0,-12.322 c 0,0.402 -0.188,0.803 -0.565,1.108 z m -7.457,16.731 c -0.242,1.137 -1.119,2.058 -1.958,2.058 -0.838,0 -1.322,-0.921 -1.08,-2.058 0.242,-1.137 1.118,-2.058 1.957,-2.058 0.839,0 1.322,0.921 1.081,2.058 z m 3.538,-5.271 c -0.254,1.172 -1.178,2.121 -2.062,2.121 -0.883,0 -1.392,-0.949 -1.138,-2.121 0.255,-1.172 1.179,-2.121 2.061,-2.121 0.885,0 1.394,0.949 1.139,2.121 z m 3.063,-5.105 c -0.251,1.115 -1.163,2.017 -2.035,2.017 -0.872,0 -1.375,-0.902 -1.123,-2.017 0.251,-1.113 1.162,-2.016 2.034,-2.016 0.873,0 1.376,0.903 1.124,2.016 z m 1.415,-7.511 c 0.001,0.016 0.006,0.032 0.006,0.048 l 0,-0.053 -0.006,0.005 z"
     id="path6"
     inkscape:connector-curvature="0"
     style="fill:#dd2e44" />
  <path
     d="M 27.435,9.9025 15.289,0.4575 c -0.753,-0.61 -1.988,-0.61 -2.742,0 L 0.565,9.9865 C 0.227,10.2595 0.05,10.6105 0.014,10.9695 0.011,11.0115 0,11.0525 0,11.0945 c 0,0.402 0.188,0.803 0.565,1.108 l 12.023,9.646 c 0.125,0.101 0.265,0.178 0.412,0.246 l 0,12.535 c 0,0.229 0.081,0.43 0.194,0.604 0.181,0.28 0.466,0.474 0.806,0.474 0.336,0 0.619,-0.19 0.8,-0.464 0.117,-0.176 0.2,-0.38 0.2,-0.614 l 0,-12.569 c 0.117,-0.06 0.229,-0.129 0.331,-0.212 l 12.104,-9.73 c 0.377,-0.305 0.565,-0.706 0.565,-1.108 0,-0.016 -0.005,-0.032 -0.006,-0.049 -0.014,-0.385 -0.198,-0.767 -0.559,-1.059 z M 14.5,8.6245 c 1.61,0 2.916,1.044 2.916,2.333 0,1.289 -1.306,2.333 -2.916,2.333 -1.611,0 -2.916,-1.044 -2.916,-2.333 0,-1.289 1.305,-2.333 2.916,-2.333 z"
     id="path8"
     inkscape:connector-curvature="0"
     style="fill:#ea596e" />
  <ellipse
     cx="14.5"
     cy="10.9575"
     rx="2.9159999"
     ry="2.3329999"
     id="ellipse10"
     style="fill:#ffffff" />
  <path
     d="m 25.455,16.4575 c -0.872,0 -1.783,0.903 -2.034,2.016 -0.252,1.115 0.251,2.017 1.123,2.017 0.872,0 1.784,-0.902 2.035,-2.017 0.252,-1.113 -0.251,-2.016 -1.124,-2.016 z m -3.077,5 c -0.883,0 -1.807,0.949 -2.061,2.121 -0.254,1.172 0.255,2.121 1.138,2.121 0.884,0 1.808,-0.949 2.062,-2.121 0.254,-1.172 -0.255,-2.121 -1.139,-2.121 z m -3.482,5.334 c -0.839,0 -1.715,0.921 -1.957,2.058 -0.242,1.137 0.242,2.058 1.08,2.058 0.839,0 1.716,-0.921 1.958,-2.058 0.242,-1.137 -0.242,-2.058 -1.081,-2.058 z"
     id="path12"
     inkscape:connector-curvature="0"
     style="fill:#ffffff" />
  <path
     d="m 3.188,17.9585 c -0.994,0 -1.567,1.007 -1.28,2.249 0.287,1.243 1.325,2.25 2.319,2.25 0.994,0 1.567,-1.007 1.28,-2.25 -0.286,-1.242 -1.325,-2.249 -2.319,-2.249 z m 5.583,7.499 c -0.994,0 -1.567,1.007 -1.281,2.25 0.287,1.242 1.326,2.25 2.32,2.25 0.994,0 1.567,-1.008 1.281,-2.25 -0.287,-1.243 -1.326,-2.25 -2.32,-2.25 z"
     id="path14"
     inkscape:connector-curvature="0"
     style="fill:#e1e8ed" />
</svg>
