<?xml version="1.0" encoding="UTF-8" standalone="no"?>
<svg
   xmlns:dc="http://purl.org/dc/elements/1.1/"
   xmlns:cc="http://creativecommons.org/ns#"
   xmlns:rdf="http://www.w3.org/1999/02/22-rdf-syntax-ns#"
   xmlns:svg="http://www.w3.org/2000/svg"
   xmlns="http://www.w3.org/2000/svg"
   xmlns:sodipodi="http://sodipodi.sourceforge.net/DTD/sodipodi-0.dtd"
   xmlns:inkscape="http://www.inkscape.org/namespaces/inkscape"
   viewBox="0 0 36 35.347397"
   id="svg2"
   version="1.1"
   inkscape:version="0.91 r13725"
   sodipodi:docname="1f3bc.svg"
   width="36"
   height="35.347397">
  <metadata
     id="metadata12">
    <rdf:RDF>
      <cc:Work
         rdf:about="">
        <dc:format>image/svg+xml</dc:format>
        <dc:type
           rdf:resource="http://purl.org/dc/dcmitype/StillImage" />
      </cc:Work>
    </rdf:RDF>
  </metadata>
  <defs
     id="defs10" />
  <sodipodi:namedview
     pagecolor="#ffffff"
     bordercolor="#666666"
     borderopacity="1"
     objecttolerance="10"
     gridtolerance="10"
     guidetolerance="10"
     inkscape:pageopacity="0"
     inkscape:pageshadow="2"
     inkscape:window-width="640"
     inkscape:window-height="480"
     id="namedview8"
     showgrid="false"
     inkscape:zoom="6.5555556"
     inkscape:cx="18"
     inkscape:cy="18"
     inkscape:window-x="0"
     inkscape:window-y="0"
     inkscape:window-maximized="0"
     inkscape:current-layer="svg2" />
  <path
     d="m 36,4.3473977 0,-2 -36,0 0,30.0000003 36,0 0,-2 -30,0 0,-5 30,0 0,-2 -30,0 0,-5 30,0 0,-2 -30,0 0,-5 30,0 0,-2.0000003 -30,0 0,-5 z"
     id="path4"
     inkscape:connector-curvature="0"
     style="fill:#8899a6" />
  <path
     d="m 27.827,19.909398 c -0.223,-0.646 -0.543,-1.227 -0.947,-1.723 -0.411,-0.513 -0.926,-0.928 -1.529,-1.232 -0.61,-0.31 -1.259,-0.46 -1.981,-0.46 -0.086,0 -0.208,0.009 -0.366,0.026 l -0.533,-2.593 c 0.613,-0.603 1.156,-1.299 1.616,-2.077 0.499,-0.847 0.885,-1.77 1.145,-2.7410003 0.269,-0.978 0.399,-1.942 0.399,-2.945 0,-2.106 -0.542,-3.94 -1.627,-5.47499998 -0.158,-0.196 -0.288,-0.343 -0.387,-0.431 -0.394,-0.355 -0.788,-0.412 -1.704,0.266 -0.47,0.352 -0.883,0.85999998 -1.224,1.50599998 -0.352,0.644 -0.608,1.366 -0.786,2.2 -0.185,0.826 -0.283,1.723 -0.292,2.684 0.041,1.352 0.234,2.701 0.576,4.0130003 -0.77,0.779 -1.392,1.43 -1.881,1.951 -0.521,0.569 -1.038,1.222 -1.539,1.943 -0.495,0.711 -0.91,1.493 -1.233,2.324 -0.317,0.807 -0.497,1.693 -0.533,2.655 0.008,0.982 0.195,1.944 0.561,2.864 0.365,0.902 0.884,1.726 1.546,2.45 0.665,0.718 1.448,1.287 2.325,1.694 1.23,0.569 2.644,0.749 4.02,0.51 0.063,0.288 0.146,0.629 0.244,1.022 0.157,0.647 0.274,1.172 0.35,1.56 0.073,0.391 0.109,0.766 0.109,1.122 0,0.541 -0.059,0.955 -0.197,1.301 -0.05,0.202 -0.185,0.412 -0.401,0.62 -0.233,0.227 -0.508,0.401 -0.839,0.533 -0.468,0.184 -0.922,0.231 -1.289,0.181 0.195,-0.105 0.375,-0.241 0.537,-0.405 0.433,-0.443 0.652,-0.988 0.652,-1.622 0,-0.447 -0.109,-0.875 -0.328,-1.282 -0.215,-0.375 -0.508,-0.684 -0.886,-0.929 -0.378,-0.225 -0.778,-0.341 -1.226,-0.341 l -0.006,0 c -0.512,0.034 -0.954,0.195 -1.301,0.471 -0.36,0.266 -0.646,0.619 -0.852,1.051 -0.193,0.406 -0.307,0.847 -0.338,1.362 0.04,1.04 0.477,1.885 1.306,2.508 0.784,0.581 1.707,0.877 2.739,0.877 0.743,0 1.434,-0.164 2.053,-0.487 0.634,-0.326 1.148,-0.796 1.529,-1.402 0.37,-0.602 0.559,-1.291 0.559,-2.046 0,-0.495 -0.043,-0.96 -0.129,-1.419 -0.085,-0.458 -0.211,-1.08 -0.384,-1.869 -0.124,-0.535 -0.219,-0.987 -0.288,-1.35 0.965,-0.428 1.712,-1.049 2.226,-1.85 0.576,-0.898 0.867,-1.908 0.867,-3 -0.001,-0.665 -0.112,-1.342 -0.333,-2.015 z m -3.122,5.178 -1.047,-5.149 c 0.261,0.056 0.502,0.147 0.727,0.276 0.396,0.224 0.703,0.529 0.945,0.938 0.241,0.39 0.392,0.838 0.456,1.303 0,1.246 -0.354,2.115 -1.081,2.632 z M 23.547,6.4483977 c -0.181,0.526 -0.43,1.057 -0.743,1.577 -0.307,0.517 -0.629,0.973 -0.959,1.359 -0.105,0.125 -0.202,0.231 -0.288,0.322 -0.078,-0.354 -0.128,-0.746 -0.149,-1.165 0.016,-0.685 0.116,-1.364 0.305,-2.081 0.17,-0.661 0.408,-1.259 0.695,-1.756 0.305,-0.468 0.621,-0.705 0.944,-0.705 0.115,0 0.196,0.028 0.259,0.087 0.07,0.071 0.119,0.208 0.15,0.454 0.03,0.133 0.047,0.303 0.047,0.494 0,0.443 -0.088,0.918 -0.261,1.414 z M 18.602,17.927398 c 0.653,-0.943 1.452,-1.837 2.431,-2.718 l 0.339,1.739 c -0.717,0.362 -1.321,0.9 -1.801,1.61 -0.552,0.82 -0.846,1.727 -0.872,2.717 0.017,0.913 0.309,1.736 0.871,2.451 0.566,0.708 1.294,1.181 2.169,1.4 l 0.12,0.03 0.122,-0.029 c 0.537,-0.127 0.594,-0.471 0.594,-0.613 0,-0.345 -0.224,-0.621 -0.579,-0.72 -0.367,-0.17 -0.637,-0.417 -0.82,-0.758 -0.202,-0.368 -0.309,-0.713 -0.309,-0.994 0,-0.476 0.17,-0.903 0.516,-1.303 0.214,-0.242 0.432,-0.432 0.654,-0.572 l 1.093,5.508 c -0.382,0.081 -0.733,0.132 -1.046,0.152 -1.384,-0.045 -2.518,-0.5 -3.369,-1.35 -0.434,-0.442 -0.747,-0.907 -0.958,-1.423 -0.213,-0.516 -0.327,-1.059 -0.342,-1.584 0.029,-1.27 0.429,-2.463 1.187,-3.543 z"
     id="path6"
     inkscape:connector-curvature="0"
     style="fill:#31373d" />
</svg>
