<?xml version="1.0" encoding="UTF-8" standalone="no"?>
<svg
   xmlns:dc="http://purl.org/dc/elements/1.1/"
   xmlns:cc="http://creativecommons.org/ns#"
   xmlns:rdf="http://www.w3.org/1999/02/22-rdf-syntax-ns#"
   xmlns:svg="http://www.w3.org/2000/svg"
   xmlns="http://www.w3.org/2000/svg"
   xmlns:sodipodi="http://sodipodi.sourceforge.net/DTD/sodipodi-0.dtd"
   xmlns:inkscape="http://www.inkscape.org/namespaces/inkscape"
   viewBox="0 0 36 26"
   id="svg2"
   version="1.1"
   inkscape:version="0.91 r13725"
   sodipodi:docname="1f3b0.svg"
   width="36"
   height="26">
  <metadata
     id="metadata20">
    <rdf:RDF>
      <cc:Work
         rdf:about="">
        <dc:format>image/svg+xml</dc:format>
        <dc:type
           rdf:resource="http://purl.org/dc/dcmitype/StillImage" />
      </cc:Work>
    </rdf:RDF>
  </metadata>
  <defs
     id="defs18" />
  <sodipodi:namedview
     pagecolor="#ffffff"
     bordercolor="#666666"
     borderopacity="1"
     objecttolerance="10"
     gridtolerance="10"
     guidetolerance="10"
     inkscape:pageopacity="0"
     inkscape:pageshadow="2"
     inkscape:window-width="640"
     inkscape:window-height="480"
     id="namedview16"
     showgrid="false"
     inkscape:zoom="6.5555556"
     inkscape:cx="18"
     inkscape:cy="13"
     inkscape:window-x="0"
     inkscape:window-y="0"
     inkscape:window-maximized="0"
     inkscape:current-layer="svg2" />
  <path
     d="m 36,22 c 0,2.209 -1.791,4 -4,4 L 4,26 C 1.791,26 0,24.209 0,22 L 0,4 C 0,1.791 1.791,0 4,0 l 28,0 c 2.209,0 4,1.791 4,4 l 0,18 z"
     id="path4"
     inkscape:connector-curvature="0"
     style="fill:#31373d" />
  <path
     d="m 11,19 c 0,2.209 -0.791,3 -3,3 L 4,22 C 1.791,22 1,21.209 1,19 L 1,7 C 1,4.791 1.791,4 4,4 l 4,0 c 2.209,0 3,0.791 3,3 l 0,12 z m 12,0 c 0,2.209 -0.791,3 -3,3 l -4,0 c -2.209,0 -3,-0.791 -3,-3 L 13,7 c 0,-2.209 0.791,-3 3,-3 l 4,0 c 2.209,0 3,0.791 3,3 l 0,12 z m 12,0 c 0,2.209 -0.791,3 -3,3 l -4,0 c -2.209,0 -3,-0.791 -3,-3 L 25,7 c 0,-2.209 0.791,-3 3,-3 l 4,0 c 2.209,0 3,0.791 3,3 l 0,12 z"
     id="path6"
     inkscape:connector-curvature="0"
     style="fill:#ccd6dd" />
  <path
     d="m 1,8 10,0 0,10 -10,0 z m 12,0 10,0 0,10 -10,0 z m 12,0 10,0 0,10 -10,0 z"
     id="path8"
     inkscape:connector-curvature="0"
     style="fill:#e1e8ed" />
  <path
     d="m 30.795,10.685 -2.816,0 c -0.594,0 -0.813,-0.385 -0.813,-0.759 0,-0.385 0.209,-0.759 0.813,-0.759 l 3.983,0 c 0.561,0 0.792,0.506 0.792,0.792 0,0.22 -0.121,0.451 -0.253,0.726 l -2.729,5.545 c -0.308,0.615 -0.429,0.836 -0.925,0.836 -0.604,0 -0.912,-0.463 -0.912,-0.781 0,-0.133 0.033,-0.232 0.109,-0.385 l 2.751,-5.215 z m -12,0 -2.816,0 c -0.594,0 -0.814,-0.385 -0.814,-0.759 0,-0.385 0.209,-0.759 0.814,-0.759 l 3.983,0 c 0.561,0 0.792,0.506 0.792,0.792 0,0.22 -0.121,0.451 -0.253,0.726 l -2.729,5.545 c -0.308,0.615 -0.429,0.836 -0.924,0.836 -0.605,0 -0.913,-0.463 -0.913,-0.781 0,-0.133 0.033,-0.232 0.11,-0.385 l 2.75,-5.215 z m -12,0 -2.816,0 c -0.594,0 -0.814,-0.385 -0.814,-0.759 0,-0.385 0.209,-0.759 0.814,-0.759 l 3.983,0 c 0.561,0 0.792,0.506 0.792,0.792 0,0.22 -0.121,0.451 -0.253,0.726 L 5.772,16.23 c -0.308,0.615 -0.429,0.836 -0.924,0.836 -0.605,0 -0.913,-0.463 -0.913,-0.781 0,-0.133 0.033,-0.232 0.11,-0.385 l 2.75,-5.215 z"
     id="path10"
     inkscape:connector-curvature="0"
     style="fill:#be1931" />
  <path
     d="M 3.061,4 C 3.021,4.162 3,4.329 3,4.5 3,5.881 4.343,7 6,7 7.657,7 9,5.881 9,4.5 9,4.329 8.979,4.162 8.939,4 L 3.061,4 Z m 12,0 C 15.021,4.162 15,4.329 15,4.5 15,5.881 16.343,7 18,7 19.656,7 21,5.881 21,4.5 21,4.329 20.979,4.162 20.94,4 L 15.061,4 Z M 27.06,4 C 27.021,4.162 27,4.329 27,4.5 27,5.881 28.344,7 30,7 31.656,7 33,5.881 33,4.5 33,4.329 32.979,4.162 32.939,4 L 27.06,4 Z"
     id="path12"
     inkscape:connector-curvature="0"
     style="fill:#9266cc" />
  <path
     d="M 8.816,22 C 8.928,21.843 9,21.676 9,21.5 9,20.672 7.657,20 6,20 4.343,20 3,20.672 3,21.5 3,21.676 3.072,21.843 3.184,22 l 5.632,0 z m 12,0 C 20.928,21.843 21,21.676 21,21.5 21,20.672 19.656,20 18,20 c -1.657,0 -3,0.672 -3,1.5 0,0.176 0.072,0.343 0.184,0.5 l 5.632,0 z m 12,0 C 32.928,21.843 33,21.676 33,21.5 33,20.672 31.656,20 30,20 c -1.656,0 -3,0.672 -3,1.5 0,0.176 0.072,0.343 0.184,0.5 l 5.632,0 z"
     id="path14"
     inkscape:connector-curvature="0"
     style="fill:#f4900c" />
</svg>
