<?xml version="1.0" encoding="UTF-8" standalone="no"?>
<svg
   xmlns:dc="http://purl.org/dc/elements/1.1/"
   xmlns:cc="http://creativecommons.org/ns#"
   xmlns:rdf="http://www.w3.org/1999/02/22-rdf-syntax-ns#"
   xmlns:svg="http://www.w3.org/2000/svg"
   xmlns="http://www.w3.org/2000/svg"
   xmlns:sodipodi="http://sodipodi.sourceforge.net/DTD/sodipodi-0.dtd"
   xmlns:inkscape="http://www.inkscape.org/namespaces/inkscape"
   viewBox="0 0 36 35.653648"
   id="svg2"
   version="1.1"
   inkscape:version="0.91 r13725"
   sodipodi:docname="1f3c4-1f3fc-200d-2640-fe0f.svg"
   width="36"
   height="35.653648">
  <metadata
     id="metadata30">
    <rdf:RDF>
      <cc:Work
         rdf:about="">
        <dc:format>image/svg+xml</dc:format>
        <dc:type
           rdf:resource="http://purl.org/dc/dcmitype/StillImage" />
      </cc:Work>
    </rdf:RDF>
  </metadata>
  <defs
     id="defs28" />
  <sodipodi:namedview
     pagecolor="#ffffff"
     bordercolor="#666666"
     borderopacity="1"
     objecttolerance="10"
     gridtolerance="10"
     guidetolerance="10"
     inkscape:pageopacity="0"
     inkscape:pageshadow="2"
     inkscape:window-width="640"
     inkscape:window-height="480"
     id="namedview26"
     showgrid="false"
     inkscape:zoom="6.5555556"
     inkscape:cx="18"
     inkscape:cy="18"
     inkscape:window-x="0"
     inkscape:window-y="0"
     inkscape:window-maximized="0"
     inkscape:current-layer="svg2" />
  <path
     d="m 36,4.65365 0,27 c 0,0 0,4 -4,4 l -28,0 c -4,0 -4,-4 -4,-4 l 0,-5 c 0,0 25,-2 36,-22 z"
     id="path4"
     inkscape:connector-curvature="0"
     style="fill:#4289c1" />
  <path
     d="m 31.844,22.89665 c 0,0 2.565,-1.635 2.258,-2.288 -0.309,-0.654 -11.778,0.99 -17.528,2.954 -8.627,2.947 -13.144,7.522 -12.526,8.828 0.617,1.306 7.602,1.953 16.228,-0.993 5.752,-1.964 15.368,-7.524 15.06,-8.177 -0.309,-0.653 -3.492,-0.324 -3.492,-0.324 z"
     id="path6"
     inkscape:connector-curvature="0"
     style="fill:#1c6399" />
  <path
     d="m 31.474,22.40065 c 0,0 2.65,-1.619 2.349,-2.291 -0.303,-0.673 -12.042,0.782 -17.949,2.675 -8.864,2.841 -13.563,7.424 -12.958,8.769 0.605,1.345 7.723,2.141 16.585,-0.699 5.91,-1.893 15.833,-7.383 15.532,-8.055 -0.303,-0.673 -3.559,-0.399 -3.559,-0.399 z"
     id="path8"
     inkscape:connector-curvature="0"
     style="fill:#a6d388" />
  <path
     d="m 31.474,22.40065 c 0,0 2.507,-1.534 2.358,-2.235 l -30.076,9.466 c -0.722,0.837 -1.019,1.523 -0.84,1.922 0.156,0.348 0.755,0.657 1.7,0.878 l 30.395,-9.566 c 0.003,-0.02 0.029,-0.051 0.022,-0.066 -0.303,-0.673 -3.559,-0.399 -3.559,-0.399 z"
     id="path10"
     inkscape:connector-curvature="0"
     style="fill:#f5f8fa" />
  <path
     d="m 27.755,11.88665 c -0.589,-0.235 -1.348,-0.276 -2.104,-0.386 -1.198,-0.175 -2.852,-0.765 -3.529,-1.086 -0.825,-0.495 -2.577,-1.661 -3.012,-1.948 -0.435,-0.287 -1.017,-0.685 -1.735,-0.813 l -0.156,0 c 0.385,0.542 0.609,1.159 0.748,2.841 0,0 3.319,1.661 3.595,1.753 1.125,0.375 3.182,0.366 4.344,0.512 0.602,0.076 1.021,-0.014 1.499,-0.047 0.722,-0.049 1.38,-0.055 1.422,-0.371 0.05,-0.367 -0.595,-0.265 -1.072,-0.455 z M 14.698,0.65065002 c -1.593,-0.627 -4.077,0.182 -4.365,2.04299998 -0.287,1.848 0.239,4.747 1.863,4.572 1.702,-0.184 3.448,-0.554 4.138,-2.307 0.69,-1.752 -0.043,-3.681 -1.636,-4.30799998 z"
     id="path12"
     inkscape:connector-curvature="0"
     style="fill:#f3d2a2" />
  <path
     d="m 15.882,5.41065 c 2.318,-2.723 -3.266,-2.458 -3.266,-2.458 -1.057,0.038 -0.329,1.799 -0.827,2.761 -0.341,0.665 1.095,1.018 1.095,1.018 0,0 0.659,-0.01 0.694,0.79 l 0,0.007 c 0.008,0.204 -0.013,0.445 -0.108,0.769 -0.473,1.601 1.677,2.582 2.149,0.978 0.187,-0.635 0.114,-1.193 0.02,-1.708 l -0.009,-0.046 c -0.144,-0.766 -0.322,-1.438 0.252,-2.111 z m -4.883,2.645 c -1.666,0.993 -3.368,3.049 -3.98,3.914 -0.36,0.283 -0.686,0.614 -0.897,0.736 -0.389,0.223 -2.154,1.432 -3.334,2.005 -0.354,0.166 -1.458,0.438 -1.992,0.781 -0.432,0.278 -0.845,0.262 -0.727,0.612 0.102,0.302 0.508,0.216 1.227,0.132 0.719,-0.084 1.929,-0.289 2.325,-0.566 0.8,-0.531 3.347,-1.156 4.597,-2.031 0.221,-0.155 2.385,-2.163 2.781,-2.741 0.543,-1.515 0.282,-2.556 0,-2.842 z"
     id="path14"
     inkscape:connector-curvature="0"
     style="fill:#f3d2a2" />
  <path
     d="M 16.518,1.29365 C 15.457,0.05165002 13.998,-0.46334998 11.499,0.50265002 9.316,1.34665 10.018,3.08165 10.527,2.78465 c 1.869,-1.09 2.899,0.514 3.697,2.269 0.523,1.151 1.56,1.502 1.56,1.502 0,0 0.337,0.132 0.912,-1.001 0.575,-1.133 0.876,-3.028 -0.178,-4.261 z"
     id="path16"
     inkscape:connector-curvature="0"
     style="fill:#ffe51e" />
  <path
     d="m 16.261,28.08565 c -0.378,-0.1 -0.67,-0.432 -0.807,-0.785 -0.059,-0.152 -0.365,-1.001 -0.365,-1.001 l -1.819,0 c 0.043,0.214 -0.037,0.696 -0.134,1.197 -0.062,0.322 -0.114,0.892 -0.013,1.093 0.101,0.201 0.817,0.74 1.301,0.839 1.237,0.255 2.491,-0.342 2.644,-0.517 0.222,-0.255 -0.428,-0.726 -0.807,-0.826 z m 7.51,-3.222 c -0.334,-0.065 -0.607,-0.336 -0.746,-0.634 -0.06,-0.129 -0.22,-0.651 -0.22,-0.651 l -1.609,0.22 c 0.05,0.183 -0.027,0.417 -0.008,0.793 0.017,0.335 -0.058,0.748 0.042,0.917 0.099,0.169 0.601,0.571 1.027,0.629 1.088,0.148 2.141,-0.443 2.264,-0.604 0.176,-0.235 -0.416,-0.605 -0.75,-0.67 z"
     id="path18"
     inkscape:connector-curvature="0"
     style="fill:#f3d2a2" />
  <path
     d="m 16.188,1.87265 c 0.875,-1.31199998 2.774,-1.43799998 3.637,-0.469 0.863,0.969 1.185,2.25 2.338,2.25 0.368,0 0.552,0.344 -0.212,0.688 -0.764,0.344 -3.889,1.031 -5.076,-1.188 -0.531,-0.656 -0.687,-1.281 -0.687,-1.281 z"
     id="path20"
     inkscape:connector-curvature="0"
     style="fill:#ffe51e" />
  <path
     d="m 22.777,21.89465 c 0.023,-0.706 0.412,-2.193 0.265,-2.824 -0.229,-0.981 -1.5,-2.047 -2.677,-2.948 -1.177,-0.901 -2.375,-1.438 -2.375,-1.438 -0.302,-1.896 0.242,-2.896 0.235,-3.716 -0.006,-0.684 -0.433,-2.648 -1.006,-3.315 l -1.565,0 c 0,0 0.246,1.013 -0.647,1.112 -0.895,0.099 -1.447,-1.112 -1.447,-1.112 l -1.748,0.167 c -0.278,0.043 -0.549,0.125 -0.813,0.236 0.376,0.639 0.23,2.285 0,2.841 0.823,1.188 1.536,3.003 1.146,5.256 -0.346,2.002 0.473,3.889 0.473,4.324 0,0 -0.503,1.749 -0.2,2.898 0.403,1.529 0.768,2.884 0.81,3.423 1.412,0 1.981,-0.39 1.981,-0.39 0,0 -0.278,-0.638 -0.165,-1.577 0.069,-0.572 0.351,-1.455 0.351,-2.304 0,-0.849 -0.022,-1.461 0.104,-1.812 0.126,-0.351 0.52,-1.576 0.812,-2.704 0.534,0.292 1.493,0.792 2.084,0.954 0.849,0.232 1.494,0.595 1.718,0.79 0.224,0.195 0.376,0.335 0.376,0.335 0,0 -0.07,0.625 -0.01,1.583 0.055,0.877 0.53,1.551 0.636,2.596 0.893,-0.133 1.739,-0.528 1.739,-0.528 0,0 -0.096,-1.267 -0.077,-1.847 z"
     id="path22"
     inkscape:connector-curvature="0"
     style="fill:#292f33" />
  <path
     d="m 12.375,8.24765 0.904,-0.086 c 0,0 1.202,1.373 2.096,1.274 0.894,-0.099 0.841,-1.354 0.841,-1.354 l 1.269,0 c -0.085,-0.168 -0.173,-0.319 -0.266,-0.428 l -1.565,0 c 0,0 0.246,1.013 -0.647,1.112 -0.895,0.099 -1.447,-1.112 -1.447,-1.112 l -1.748,0.167 c -0.278,0.043 -0.549,0.125 -0.813,0.236 0.077,0.131 0.128,0.311 0.165,0.509 0.346,-0.118 0.973,-0.282 1.211,-0.318 z m 8.667,13.854 c -0.06,-0.958 0.01,-1.583 0.01,-1.583 0,0 -0.151,-0.141 -0.376,-0.335 -0.068,-0.059 -0.186,-0.136 -0.326,-0.218 l 0.139,0.126 c 0,0 -0.07,0.625 -0.01,1.583 0.055,0.877 0.53,1.551 0.636,2.596 0.158,-0.024 0.313,-0.057 0.464,-0.093 -0.175,-0.763 -0.492,-1.357 -0.537,-2.076 z m -8.061,1.701 c -0.303,-1.149 0.2,-2.898 0.2,-2.898 0,-0.435 -0.798,-2.791 -0.452,-4.793 4,-0.021 5.26,-1.427 5.26,-1.427 0,0 -2.719,1.26 -5.201,0.533 -0.074,-1.788 -0.788,-3.661 -1.707,-4.579 -0.025,0.1 -0.053,0.188 -0.082,0.258 0.823,1.188 1.536,3.003 1.146,5.256 -0.346,2.002 0.473,3.889 0.473,4.324 0,0 -0.503,1.749 -0.2,2.898 0.403,1.529 0.768,2.884 0.81,3.423 0.178,0 0.342,-0.006 0.494,-0.017 -0.129,-0.672 -0.421,-1.766 -0.741,-2.978 z"
     id="path24"
     inkscape:connector-curvature="0"
     style="fill:#67757f" />
</svg>
