<?xml version="1.0" encoding="UTF-8" standalone="no"?>
<svg
   xmlns:dc="http://purl.org/dc/elements/1.1/"
   xmlns:cc="http://creativecommons.org/ns#"
   xmlns:rdf="http://www.w3.org/1999/02/22-rdf-syntax-ns#"
   xmlns:svg="http://www.w3.org/2000/svg"
   xmlns="http://www.w3.org/2000/svg"
   xmlns:sodipodi="http://sodipodi.sourceforge.net/DTD/sodipodi-0.dtd"
   xmlns:inkscape="http://www.inkscape.org/namespaces/inkscape"
   viewBox="0 0 36 36"
   id="svg2"
   version="1.1"
   inkscape:version="0.91 r13725"
   sodipodi:docname="1f3c0.svg"
   width="36"
   height="36">
  <metadata
     id="metadata12">
    <rdf:RDF>
      <cc:Work
         rdf:about="">
        <dc:format>image/svg+xml</dc:format>
        <dc:type
           rdf:resource="http://purl.org/dc/dcmitype/StillImage" />
      </cc:Work>
    </rdf:RDF>
  </metadata>
  <defs
     id="defs10" />
  <sodipodi:namedview
     pagecolor="#ffffff"
     bordercolor="#666666"
     borderopacity="1"
     objecttolerance="10"
     gridtolerance="10"
     guidetolerance="10"
     inkscape:pageopacity="0"
     inkscape:pageshadow="2"
     inkscape:window-width="640"
     inkscape:window-height="480"
     id="namedview8"
     showgrid="false"
     inkscape:zoom="6.5555556"
     inkscape:cx="18"
     inkscape:cy="18"
     inkscape:window-x="0"
     inkscape:window-y="0"
     inkscape:window-maximized="0"
     inkscape:current-layer="svg2" />
  <circle
     cx="18"
     cy="18"
     r="18"
     id="circle4"
     style="fill:#f4900c" />
  <path
     d="m 36,17 -8.981,0 C 27.207,11.494 28.962,7.705 31.803,6.454 31.358,5.923 30.877,5.427 30.375,4.95 27.545,6.528 25.23,10.223 25.021,16.999 L 19,16.999 19,0 17,0 17,17 10.979,17 C 10.771,10.224 8.456,6.529 5.626,4.951 5.124,5.427 4.642,5.923 4.198,6.454 7.039,7.705 8.793,11.494 8.981,17 L 0,17 0,19 8.981,19 C 8.793,24.506 7.039,28.295 4.198,29.546 4.643,30.077 5.124,30.573 5.626,31.05 8.457,29.472 10.771,25.777 10.979,19 l 6.021,0 0,17 2,0 0,-17 6.021,0 c 0.209,6.776 2.523,10.471 5.354,12.05 0.502,-0.476 0.984,-0.973 1.428,-1.504 C 28.962,28.295 27.208,24.506 27.019,19 L 36,19 36,17 Z"
     id="path6"
     inkscape:connector-curvature="0"
     style="fill:#231f20" />
</svg>
