<?xml version="1.0" encoding="UTF-8" standalone="no"?>
<svg
   xmlns:dc="http://purl.org/dc/elements/1.1/"
   xmlns:cc="http://creativecommons.org/ns#"
   xmlns:rdf="http://www.w3.org/1999/02/22-rdf-syntax-ns#"
   xmlns:svg="http://www.w3.org/2000/svg"
   xmlns="http://www.w3.org/2000/svg"
   xmlns:sodipodi="http://sodipodi.sourceforge.net/DTD/sodipodi-0.dtd"
   xmlns:inkscape="http://www.inkscape.org/namespaces/inkscape"
   viewBox="0 0 36 35.653648"
   id="svg2"
   version="1.1"
   inkscape:version="0.91 r13725"
   sodipodi:docname="1f3c4-1f3fd.svg"
   width="36"
   height="35.653648">
  <metadata
     id="metadata30">
    <rdf:RDF>
      <cc:Work
         rdf:about="">
        <dc:format>image/svg+xml</dc:format>
        <dc:type
           rdf:resource="http://purl.org/dc/dcmitype/StillImage" />
      </cc:Work>
    </rdf:RDF>
  </metadata>
  <defs
     id="defs28" />
  <sodipodi:namedview
     pagecolor="#ffffff"
     bordercolor="#666666"
     borderopacity="1"
     objecttolerance="10"
     gridtolerance="10"
     guidetolerance="10"
     inkscape:pageopacity="0"
     inkscape:pageshadow="2"
     inkscape:window-width="640"
     inkscape:window-height="480"
     id="namedview26"
     showgrid="false"
     inkscape:zoom="6.5555556"
     inkscape:cx="18"
     inkscape:cy="18"
     inkscape:window-x="0"
     inkscape:window-y="0"
     inkscape:window-maximized="0"
     inkscape:current-layer="svg2" />
  <path
     d="m 36,4.65365 0,27 c 0,0 0,4 -4,4 l -28,0 c -4,0 -4,-4 -4,-4 l 0,-5 c 0,0 25,-2 36,-22 z"
     id="path4"
     inkscape:connector-curvature="0"
     style="fill:#4289c1" />
  <path
     d="m 31.844,22.89665 c 0,0 2.565,-1.635 2.258,-2.288 -0.309,-0.654 -11.778,0.99 -17.528,2.954 -8.627,2.947 -13.144,7.522 -12.526,8.828 0.617,1.306 7.602,1.953 16.228,-0.993 5.752,-1.964 15.368,-7.524 15.06,-8.177 -0.309,-0.653 -3.492,-0.324 -3.492,-0.324 z"
     id="path6"
     inkscape:connector-curvature="0"
     style="fill:#1c6399" />
  <path
     d="m 31.474,22.40065 c 0,0 2.65,-1.619 2.349,-2.291 -0.303,-0.673 -12.042,0.782 -17.949,2.675 -8.864,2.841 -13.563,7.424 -12.958,8.769 0.605,1.345 7.723,2.141 16.585,-0.699 5.91,-1.893 15.833,-7.383 15.532,-8.055 -0.303,-0.673 -3.559,-0.399 -3.559,-0.399 z"
     id="path8"
     inkscape:connector-curvature="0"
     style="fill:#a6d388" />
  <path
     d="m 31.474,22.40065 c 0,0 2.507,-1.534 2.358,-2.235 l -30.076,9.466 c -0.722,0.837 -1.019,1.523 -0.84,1.922 0.156,0.348 0.755,0.657 1.7,0.878 l 30.395,-9.566 c 0.003,-0.02 0.029,-0.051 0.022,-0.066 -0.303,-0.673 -3.559,-0.399 -3.559,-0.399 z"
     id="path10"
     inkscape:connector-curvature="0"
     style="fill:#f5f8fa" />
  <path
     d="m 2.789,14.71065 c -0.354,0.166 -1.458,0.438 -1.992,0.781 -0.432,0.278 -0.845,0.262 -0.727,0.612 0.102,0.302 0.508,0.216 1.227,0.132 0.719,-0.084 1.929,-0.289 2.325,-0.566 l -0.833,-0.959 z m 22.862,-3.211 c 0.379,0.095 1.515,0.151 2.104,0.386 0.477,0.19 1.122,0.088 1.073,0.455 -0.043,0.316 -0.701,0.317 -1.422,0.371 -0.722,0.054 -1.949,0.085 -2.39,-0.113 l 0.635,-1.099 z M 14.698,0.65065002 c -1.593,-0.627 -4.077,0.182 -4.365,2.04299998 -0.287,1.848 0.239,4.747 1.863,4.572 1.702,-0.184 3.448,-0.554 4.138,-2.307 0.69,-1.752 -0.043,-3.681 -1.636,-4.30799998 z"
     id="path12"
     inkscape:connector-curvature="0"
     style="fill:#d4ab88" />
  <path
     d="m 15.882,5.41065 c 2.318,-2.723 -3.266,-2.458 -3.266,-2.458 -1.057,0.038 -0.329,1.799 -0.827,2.761 -0.341,0.665 1.095,1.018 1.095,1.018 0,0 0.659,-0.01 0.694,0.79 l 0,0.007 c 0.008,0.204 -0.013,0.445 -0.108,0.769 -0.473,1.601 1.677,2.582 2.149,0.978 0.187,-0.635 0.114,-1.193 0.02,-1.708 l -0.009,-0.046 c -0.144,-0.766 -0.322,-1.438 0.252,-2.111 z"
     id="path14"
     inkscape:connector-curvature="0"
     style="fill:#d4ab88" />
  <path
     d="M 16.518,1.29365 C 15.457,0.05165002 13.998,-0.46334998 11.499,0.50265002 9.316,1.34665 10.133,3.22265 10.527,2.78465 c 0.628,-0.696 1.477,-0.483 1.477,-0.483 l 0.66,1.944 c 0,0 0.314,0.189 0.445,-0.473 0.131,-0.662 1.017,-0.729 1.308,-0.198 0.452,0.826 -0.139,0.984 -0.193,1.478 -0.17,1.562 1.56,1.502 1.56,1.502 0,0 0.337,0.132 0.912,-1.001 0.575,-1.132 0.876,-3.027 -0.178,-4.26 z"
     id="path16"
     inkscape:connector-curvature="0"
     style="fill:#963b22" />
  <path
     d="m 16.261,28.08565 c -0.378,-0.1 -0.67,-0.432 -0.807,-0.785 -0.059,-0.152 -0.245,-0.89 -0.245,-0.89 l -2.284,0.284 c 0.043,0.214 0.114,0.512 0.185,0.94 0.054,0.324 -0.089,0.753 0.012,0.954 0.101,0.201 0.817,0.74 1.301,0.839 1.237,0.255 2.491,-0.342 2.644,-0.517 0.223,-0.254 -0.427,-0.725 -0.806,-0.825 z m 7.51,-3.222 c -0.334,-0.065 -0.607,-0.336 -0.746,-0.634 -0.06,-0.129 -0.22,-0.651 -0.22,-0.651 l -2.009,0.274 c 0.05,0.183 0.129,0.438 0.216,0.804 0.066,0.278 -0.033,0.659 0.066,0.827 0.099,0.169 0.752,0.594 1.178,0.652 1.088,0.148 2.141,-0.443 2.264,-0.604 0.177,-0.233 -0.415,-0.603 -0.749,-0.668 z"
     id="path18"
     inkscape:connector-curvature="0"
     style="fill:#d4ab88" />
  <path
     d="m 25.676,11.46565 c -0.242,-0.036 -2.877,-0.731 -3.554,-1.052 -0.903,-0.841 -2.483,-1.754 -2.919,-2.042 -0.436,-0.288 -0.837,-0.637 -1.828,-0.718 l -1.639,0 -0.751,0.766 -1.425,-0.766 -1.748,0.167 c -2.198,0.338 -4,3.024 -4.794,4.151 -0.36,0.283 -0.685,0.614 -0.896,0.735 -0.389,0.223 -2.813,1.505 -3.334,2.005 l 0.836,1.068 c 0.312,-0.281 1.748,-0.596 2.748,-1.046 0.396,-0.178 1.452,-0.296 1.982,-0.81 l 0.017,0.017 c 1.396,-0.979 2.326,-2.021 2.722,-2.599 l 1.115,5.312 c 0,0 -0.005,1.674 0.058,1.94 0.088,0.372 0.353,1.449 0.353,1.884 0,0 -0.606,1.335 -0.302,2.484 0.403,1.529 0.611,3.468 0.653,4.008 1.412,0 2.24,-0.56 2.24,-0.56 0,0 -0.278,-0.638 -0.165,-1.577 0.069,-0.572 0.58,-1.601 0.58,-2.45 0,-0.849 -0.095,-1.367 0.031,-1.719 0.126,-0.352 0.601,-1.452 0.677,-2.052 0.02,-0.162 0.008,-0.374 -0.022,-0.6 0.534,0.292 1.493,0.792 2.084,0.954 0.849,0.232 1.494,0.595 1.718,0.79 0.224,0.195 0.376,0.335 0.376,0.335 0,0 -0.201,0.557 -0.141,1.516 0.055,0.877 0.433,1.658 0.54,2.703 0.893,-0.133 1.966,-0.567 1.966,-0.567 0,0 -0.096,-1.268 -0.078,-1.848 0.023,-0.706 0.412,-2.193 0.265,-2.824 -0.229,-0.981 -1.5,-2.047 -2.677,-2.948 -1.177,-0.901 -2.375,-1.438 -2.375,-1.438 0.365,-2.469 -0.005,-3.781 -0.005,-3.781 0,0 1.81,0.804 3.578,1.344 0.577,0.285 2.27,0.562 3.989,0.5 0.432,-0.016 0.452,-1.233 0.125,-1.282 z"
     id="path20"
     inkscape:connector-curvature="0"
     style="fill:#292f33" />
  <path
     d="m 7.265,12.84765 c 0.795,-1.126 2.994,-4.365 5.435,-4.576 0,0 1.118,1.459 2.565,1.235 1.447,-0.224 1.482,-1.318 1.482,-1.318 l 1.727,0.149 c 0.494,0.04 0.841,0.148 1.12,0.281 -0.163,-0.101 -0.304,-0.189 -0.391,-0.246 -0.435,-0.287 -0.837,-0.638 -1.828,-0.719 l -1.639,0 -0.751,0.766 -1.425,-0.766 -1.748,0.167 c -2.198,0.338 -4,3.024 -4.794,4.151 -0.36,0.283 -0.685,0.614 -0.896,0.735 -0.389,0.223 -2.813,1.505 -3.334,2.005 l 0.288,0.368 c 1.224,-0.797 3.829,-1.949 4.189,-2.232 z m 15.956,-1.75 c 0.453,0.215 1.771,0.594 2.674,0.834 -0.016,-0.24 -0.089,-0.446 -0.219,-0.465 -0.2,-0.03 -2.502,-0.686 -3.513,-1.033 0.212,0.162 0.682,0.465 1.058,0.664 z m -2.139,11.291 c -0.06,-0.958 0.024,-1.639 -0.072,-1.843 -0.096,-0.204 -0.52,-0.455 -0.52,-0.455 0,0 -0.201,0.557 -0.141,1.516 0.055,0.877 0.433,1.658 0.54,2.703 0.309,-0.046 0.638,-0.128 0.938,-0.216 -0.613,-0.262 -0.707,-1.099 -0.745,-1.705 z"
     id="path22"
     inkscape:connector-curvature="0"
     style="fill:#67757f" />
  <path
     d="m 13.135,23.80065 c -0.303,-1.149 0.176,-2.906 0.176,-2.906 0,-0.435 -0.23,-1.357 -0.318,-1.729 -0.063,-0.266 -0.103,-2.438 -0.072,-2.717 3.859,-0.123 5.068,-1.763 5.068,-1.763 0,0 -2.21,1.309 -5.224,0.906 -0.347,-0.718 -1.03,-4.737 -1.03,-4.737 -0.213,-0.025 -0.499,0.231 -0.642,0.487 l 1.115,5.312 c 0,0 -0.005,1.674 0.058,1.94 0.088,0.372 0.353,1.449 0.353,1.884 0,0 -0.606,1.335 -0.302,2.484 0.403,1.529 0.611,3.468 0.653,4.008 0.386,0 0.724,-0.044 1.018,-0.104 -0.688,-0.618 -0.566,-1.979 -0.853,-3.065 z"
     id="path24"
     inkscape:connector-curvature="0"
     style="fill:#67757f" />
</svg>
