<?xml version="1.0" encoding="UTF-8" standalone="no"?>
<svg
   xmlns:dc="http://purl.org/dc/elements/1.1/"
   xmlns:cc="http://creativecommons.org/ns#"
   xmlns:rdf="http://www.w3.org/1999/02/22-rdf-syntax-ns#"
   xmlns:svg="http://www.w3.org/2000/svg"
   xmlns="http://www.w3.org/2000/svg"
   xmlns:sodipodi="http://sodipodi.sourceforge.net/DTD/sodipodi-0.dtd"
   xmlns:inkscape="http://www.inkscape.org/namespaces/inkscape"
   viewBox="0 0 36 35.988003"
   id="svg2"
   version="1.1"
   inkscape:version="0.91 r13725"
   sodipodi:docname="1f3cb-fe0f-200d-2642-fe0f.svg"
   width="36"
   height="35.988003">
  <metadata
     id="metadata88">
    <rdf:RDF>
      <cc:Work
         rdf:about="">
        <dc:format>image/svg+xml</dc:format>
        <dc:type
           rdf:resource="http://purl.org/dc/dcmitype/StillImage" />
      </cc:Work>
    </rdf:RDF>
  </metadata>
  <defs
     id="defs86" />
  <sodipodi:namedview
     pagecolor="#ffffff"
     bordercolor="#666666"
     borderopacity="1"
     objecttolerance="10"
     gridtolerance="10"
     guidetolerance="10"
     inkscape:pageopacity="0"
     inkscape:pageshadow="2"
     inkscape:window-width="640"
     inkscape:window-height="480"
     id="namedview84"
     showgrid="false"
     inkscape:zoom="6.5555556"
     inkscape:cx="18"
     inkscape:cy="17.988002"
     inkscape:window-x="0"
     inkscape:window-y="0"
     inkscape:window-maximized="0"
     inkscape:current-layer="svg2" />
  <path
     d="m 15.81,34.875 -1.422,0 c 0,0 -1.323,-3.348 -1.119,-5.736 l 2.918,0.549 c 0.548,1.571 -0.377,5.187 -0.377,5.187 z m 4.317,0 1.422,0 c 0,0 1.323,-3.348 1.119,-5.736 l -2.918,0.549 c -0.548,1.571 0.377,5.187 0.377,5.187 z"
     id="path4"
     inkscape:connector-curvature="0"
     style="fill:#ffdc5d" />
  <path
     d="m 13.617,35.149 c 0.106,-0.243 0.331,-0.694 0.355,-0.955 0.024,-0.261 0.036,-0.354 0.25,-0.426 0.362,-0.121 1.496,-0.087 1.691,-0.016 0.194,0.071 0.197,0.263 0.225,0.424 0.028,0.161 0.118,0.424 0.237,0.64 0.119,0.216 0.426,0.697 0.272,1.034 -0.064,0.14 -0.422,0.138 -1.569,0.138 -1.147,0 -1.476,-0.026 -1.554,-0.118 -0.08,-0.092 -0.014,-0.477 0.093,-0.721 z m 8.704,0 C 22.215,34.906 21.99,34.455 21.966,34.194 21.942,33.933 21.93,33.84 21.716,33.768 21.354,33.647 20.22,33.681 20.025,33.752 c -0.194,0.071 -0.197,0.263 -0.225,0.424 -0.028,0.161 -0.118,0.424 -0.237,0.64 -0.118,0.216 -0.426,0.697 -0.272,1.034 0.064,0.14 0.422,0.138 1.569,0.138 1.147,0 1.476,-0.026 1.554,-0.118 0.078,-0.092 0.013,-0.477 -0.093,-0.721 z"
     id="path6"
     inkscape:connector-curvature="0"
     style="fill:#4289c1" />
  <path
     d="m 8.646,4.146 c 0.011,0.127 0.871,1.535 1.323,2.635 0.452,1.1 0.71,2.198 0.948,2.448 0.476,0.499 2.285,1.879 3.271,3.343 0.985,1.464 0.57,2.503 -0.094,2.922 -0.88,0.555 -1.803,0.204 -2.437,-0.788 C 11.206,14 9.706,11.497 8.918,10.105 8.612,9.564 7.9,8.593 7.469,7.531 7.063,6.531 7.015,5.363 6.954,5.219 6.775,4.794 6.076,4.242 6.042,3.812 c 0,0 2.567,-0.095 2.604,0.334 z m 18.708,0 c -0.011,0.127 -0.871,1.535 -1.323,2.635 -0.452,1.1 -0.71,2.198 -0.948,2.448 -0.476,0.499 -2.285,1.879 -3.271,3.343 -0.985,1.464 -0.57,2.503 0.094,2.922 0.88,0.555 1.803,0.204 2.437,-0.788 0.451,-0.706 1.951,-3.209 2.739,-4.601 0.304,-0.54 1.017,-1.511 1.448,-2.573 0.406,-1 0.454,-2.168 0.515,-2.312 0.178,-0.425 0.878,-0.977 0.912,-1.406 10e-4,-0.002 -2.566,-0.097 -2.603,0.332 z"
     id="path8"
     inkscape:connector-curvature="0"
     style="fill:#ffdc5d" />
  <path
     d="M 36,3.5 C 36,3.776 35.776,4 35.5,4 L 0.5,4 C 0.224,4 0,3.776 0,3.5 0,3.224 0.224,3 0.5,3 l 35,0 C 35.776,3 36,3.224 36,3.5 Z"
     id="path10"
     inkscape:connector-curvature="0"
     style="fill:#99aab5" />
  <path
     d="M 34,0 C 33.447,0 33,0.448 33,1 33,0.448 32.553,0 32,0 31.447,0 31,0.448 31,1 l 0,5 c 0,0.552 0.447,1 1,1 0.553,0 1,-0.448 1,-1 0,0.552 0.447,1 1,1 0.553,0 1,-0.448 1,-1 L 35,1 C 35,0.448 34.553,0 34,0 Z M 4,0 C 3.447,0 3,0.448 3,1 3,0.448 2.553,0 2,0 1.447,0 1,0.448 1,1 L 1,6 C 1,6.552 1.447,7 2,7 2.553,7 3,6.552 3,6 3,6.552 3.447,7 4,7 4.553,7 5,6.552 5,6 L 5,1 C 5,0.448 4.553,0 4,0 Z"
     id="path12"
     inkscape:connector-curvature="0"
     style="fill:#292f33" />
  <path
     d="M 24.918,13.806 C 24.293,13.223 22.172,12.083 22.172,12.083 21.43,12.502 20.889,13.34 20.68,13.7 20.015,13.817 19.529,14 19.529,14 l -3.059,0 c 0,0 -0.486,-0.183 -1.151,-0.3 -0.209,-0.36 -0.75,-1.197 -1.492,-1.617 0,0 -2.121,1.14 -2.746,1.723 0.21,0.537 0.492,1.047 0.716,1.417 0.255,1.29 1.146,2.763 1.281,3.013 C 13.496,19.016 14,22.5 14,22.5 l 4,1.5 4,-1.5 c 0,0 0.504,-3.484 0.922,-4.264 0.134,-0.25 1.025,-1.724 1.281,-3.013 0.224,-0.37 0.506,-0.879 0.715,-1.417 z"
     id="path14"
     inkscape:connector-curvature="0"
     style="fill:#4289c1" />
  <path
     d="m 16.471,11.412 0,3.059 c 0,0.844 0.684,1.529 1.529,1.529 0.845,0 1.529,-0.685 1.529,-1.529 l 0,-3.059 -3.058,0 z"
     id="path16"
     inkscape:connector-curvature="0"
     style="fill:#ffdc5d" />
  <path
     d="m 18.375,3.353 c -0.89,0 -1.712,0.284 -2.386,0.763 -1.385,0.072 -2.49,1.209 -2.49,2.612 0,1.156 0.005,2.613 1.529,3.156 0.749,1.04 1.967,1.719 3.347,1.719 2.278,0 4.125,-1.846 4.125,-4.125 0,-2.278 -1.847,-4.125 -4.125,-4.125 z"
     id="path18"
     inkscape:connector-curvature="0"
     style="fill:#ffac33" />
  <path
     d="m 21.75,5.602 -7.5,0 0,4.5 c 0,2.072 1.679,3.75 3.75,3.75 2.072,0 3.75,-1.678 3.75,-3.75 l 0,-4.5 z"
     id="path20"
     inkscape:connector-curvature="0"
     style="fill:#ffdc5d" />
  <path
     d="m 18,4 -3.924,1.533 0,3.139 c 1.831,0 2.236,-1.893 2.327,-2.737 0.031,0.844 0.639,2.737 5.52,2.737 l 0,-3.139 L 18,4 Z"
     id="path22"
     inkscape:connector-curvature="0"
     style="fill:#ffac33" />
  <path
     d="m 19.5,12.353 -3,0 c 0,0 0,0.75 1.5,0.75 1.5,0 1.5,-0.75 1.5,-0.75 z"
     id="path24"
     inkscape:connector-curvature="0"
     style="fill:#c1694f" />
  <circle
     cx="16.125"
     cy="9.7279997"
     r="0.375"
     id="circle26"
     style="fill:#662113" />
  <path
     d="m 20.25,9.728 c 0,0.207 -0.168,0.375 -0.374,0.375 -0.208,0 -0.375,-0.168 -0.375,-0.375 0,-0.207 0.168,-0.375 0.375,-0.375 0.206,0 0.374,0.168 0.374,0.375 z"
     id="path28"
     inkscape:connector-curvature="0"
     style="fill:#662113" />
  <path
     d="m 17.25,10.853 1.5,0 c 0,0 0,0.75 -0.75,0.75 -0.75,0 -0.75,-0.75 -0.75,-0.75 z"
     id="path30"
     inkscape:connector-curvature="0"
     style="fill:#c1694f" />
  <g
     id="g32"
     style="fill:#ffdc5d">
    <path
       d="M 27.096,4.363 C 26.766,4.206 26.62,3.935 26.719,3.644 l 0.003,-0.01 c 0.099,-0.291 0.291,-0.346 0.738,-0.339 0,0 1.521,0.076 2.437,0.712 0,0 -0.199,0.304 -0.447,0.56 l -0.003,0.01 c -0.101,0.29 -1.614,0.137 -2.351,-0.214 z"
       id="path34"
       inkscape:connector-curvature="0" />
    <path
       d="M 27.843,3.47 C 27.706,3.437 27.622,3.297 27.655,3.16 l 0.087,-0.357 c 0.033,-0.137 0.173,-0.221 0.31,-0.188 0.137,0.033 0.221,0.173 0.188,0.31 L 28.153,3.282 C 28.119,3.419 27.98,3.503 27.843,3.47 Z M 27.398,2.6 C 27.235,2.545 27.056,2.634 27.001,2.797 L 26.722,3.634 C 26.667,3.798 26.89,3.566 27.054,3.621 27.217,3.676 27.396,3.588 27.451,3.425 L 27.595,2.998 C 27.65,2.834 27.561,2.656 27.398,2.6 Z"
       id="path36"
       inkscape:connector-curvature="0" />
    <path
       d="M 28.384,3.399 C 28.247,3.366 28.163,3.226 28.196,3.089 l 0.082,-0.334 c 0.033,-0.137 0.173,-0.221 0.31,-0.188 0.137,0.033 0.221,0.173 0.188,0.31 l -0.082,0.334 c -0.034,0.137 -0.173,0.221 -0.31,0.188 z"
       id="path38"
       inkscape:connector-curvature="0" />
    <path
       d="M 28.9,3.424 C 28.763,3.391 28.679,3.251 28.712,3.114 L 28.78,2.837 c 0.033,-0.137 0.173,-0.221 0.31,-0.188 0.137,0.033 0.221,0.173 0.188,0.31 L 29.21,3.236 C 29.176,3.373 29.037,3.457 28.9,3.424 Z"
       id="path40"
       inkscape:connector-curvature="0" />
    <path
       d="M 29.419,3.447 C 29.282,3.414 29.198,3.274 29.231,3.137 l 0.04,-0.162 c 0.033,-0.137 0.173,-0.221 0.31,-0.188 0.137,0.033 0.221,0.173 0.188,0.31 l -0.04,0.162 c -0.034,0.137 -0.174,0.222 -0.31,0.188 z"
       id="path42"
       inkscape:connector-curvature="0" />
  </g>
  <g
     id="g44"
     style="fill:#ffdc5d">
    <path
       d="M 8.904,4.363 C 9.234,4.206 9.38,3.935 9.281,3.644 L 9.278,3.634 C 9.179,3.344 8.987,3.288 8.54,3.295 c 0,0 -1.521,0.076 -2.437,0.712 0,0 0.199,0.304 0.447,0.56 l 0.003,0.01 c 0.101,0.29 1.614,0.137 2.351,-0.214 z"
       id="path46"
       inkscape:connector-curvature="0" />
    <path
       d="M 8.157,3.47 C 8.294,3.437 8.378,3.297 8.345,3.16 L 8.258,2.803 C 8.225,2.666 8.085,2.582 7.948,2.615 7.811,2.649 7.727,2.788 7.76,2.925 L 7.847,3.282 C 7.881,3.419 8.02,3.503 8.157,3.47 Z M 8.602,2.6 C 8.765,2.545 8.944,2.634 8.999,2.797 L 9.278,3.634 C 9.333,3.798 9.11,3.566 8.946,3.621 8.783,3.676 8.604,3.588 8.549,3.425 L 8.405,2.998 C 8.35,2.834 8.439,2.656 8.602,2.6 Z"
       id="path48"
       inkscape:connector-curvature="0" />
    <path
       d="M 7.616,3.399 C 7.753,3.366 7.837,3.226 7.804,3.089 L 7.722,2.755 C 7.689,2.618 7.549,2.534 7.412,2.567 7.276,2.601 7.191,2.74 7.225,2.877 L 7.307,3.211 C 7.34,3.348 7.479,3.432 7.616,3.399 Z"
       id="path50"
       inkscape:connector-curvature="0" />
    <path
       d="M 7.1,3.424 C 7.237,3.391 7.321,3.251 7.288,3.114 L 7.22,2.837 C 7.187,2.7 7.048,2.616 6.911,2.649 6.774,2.682 6.69,2.822 6.723,2.959 L 6.791,3.236 C 6.824,3.373 6.963,3.457 7.1,3.424 Z"
       id="path52"
       inkscape:connector-curvature="0" />
    <path
       d="M 6.581,3.447 C 6.718,3.414 6.802,3.274 6.769,3.137 L 6.73,2.975 C 6.696,2.839 6.557,2.754 6.42,2.787 6.283,2.821 6.199,2.96 6.232,3.097 l 0.04,0.162 c 0.033,0.137 0.173,0.222 0.309,0.188 z"
       id="path54"
       inkscape:connector-curvature="0" />
  </g>
  <path
     d="M 22,24.5 18,23 14,24.5 c 0,0 -0.854,1.917 -1,5.188 l 3.187,0 c 0.917,-0.979 1.25,-3.604 1.25,-3.604 l 1.125,0 c 0,0 0.333,2.625 1.25,3.604 l 3.188,0 C 22.854,26.417 22,24.5 22,24.5 Z"
     id="path56"
     inkscape:connector-curvature="0"
     style="fill:#3a6693" />
  <path
     d="m 14,22.5 8,0 0,2 -8,0 z"
     id="path58"
     inkscape:connector-curvature="0"
     style="fill:#c1694f" />
  <path
     d="m 19,22.399 0.65,0 0,2.209 -0.65,0 z"
     id="path60"
     inkscape:connector-curvature="0"
     style="fill:#14171a" />
  <circle
     cx="18.5"
     cy="23.458"
     r="0.167"
     id="circle62"
     style="fill:#14171a" />
  <path
     d="m 18.021,23.458 c 0,0.092 -0.075,0.167 -0.167,0.167 -0.092,0 -0.167,-0.075 -0.167,-0.167 0,-0.092 0.075,-0.167 0.167,-0.167 0.092,0.001 0.167,0.075 0.167,0.167 z"
     id="path64"
     inkscape:connector-curvature="0"
     style="fill:#14171a" />
  <circle
     cx="17.208"
     cy="23.458"
     r="0.167"
     id="circle66"
     style="fill:#14171a" />
  <circle
     cx="16.562"
     cy="23.458"
     r="0.167"
     id="circle68"
     style="fill:#14171a" />
  <circle
     cx="15.917"
     cy="23.458"
     r="0.167"
     id="circle70"
     style="fill:#14171a" />
  <circle
     cx="15.271"
     cy="23.458"
     r="0.167"
     id="circle72"
     style="fill:#14171a" />
  <circle
     cx="14.625"
     cy="23.458"
     r="0.167"
     id="circle74"
     style="fill:#14171a" />
  <circle
     cx="17.208"
     cy="23.458"
     r="0.167"
     id="circle76"
     style="fill:#14171a" />
  <circle
     cx="16.552999"
     cy="23.458"
     r="0.148"
     id="circle78"
     style="fill:#657786" />
  <path
     d="m 16.318,23.31 0.235,0 0,0.297 -0.235,0 z"
     id="path80"
     inkscape:connector-curvature="0"
     style="fill:#657786" />
  <path
     d="m 16.729,24.846 -0.758,0 0,-2.697 0.758,0 0,0.35 -0.409,0 0,1.997 0.409,0 z"
     id="path82"
     inkscape:connector-curvature="0"
     style="fill:#657786" />
</svg>
