<?xml version="1.0" encoding="UTF-8" standalone="no"?>
<svg
   xmlns:dc="http://purl.org/dc/elements/1.1/"
   xmlns:cc="http://creativecommons.org/ns#"
   xmlns:rdf="http://www.w3.org/1999/02/22-rdf-syntax-ns#"
   xmlns:svg="http://www.w3.org/2000/svg"
   xmlns="http://www.w3.org/2000/svg"
   xmlns:sodipodi="http://sodipodi.sourceforge.net/DTD/sodipodi-0.dtd"
   xmlns:inkscape="http://www.inkscape.org/namespaces/inkscape"
   viewBox="0 0 36.196999 25.344999"
   id="svg2"
   version="1.1"
   inkscape:version="0.91 r13725"
   sodipodi:docname="1f3cd.svg"
   width="36.196999"
   height="25.344999">
  <metadata
     id="metadata40">
    <rdf:RDF>
      <cc:Work
         rdf:about="">
        <dc:format>image/svg+xml</dc:format>
        <dc:type
           rdf:resource="http://purl.org/dc/dcmitype/StillImage" />
      </cc:Work>
    </rdf:RDF>
  </metadata>
  <defs
     id="defs38" />
  <sodipodi:namedview
     pagecolor="#ffffff"
     bordercolor="#666666"
     borderopacity="1"
     objecttolerance="10"
     gridtolerance="10"
     guidetolerance="10"
     inkscape:pageopacity="0"
     inkscape:pageshadow="2"
     inkscape:window-width="640"
     inkscape:window-height="480"
     id="namedview36"
     showgrid="false"
     inkscape:zoom="6.5555556"
     inkscape:cx="18"
     inkscape:cy="17.914"
     inkscape:window-x="0"
     inkscape:window-y="0"
     inkscape:window-maximized="0"
     inkscape:current-layer="svg2" />
  <path
     d="m 6.5,13.431 c -3.038,0 -5.5,2.463 -5.5,5.5 0,3.037 2.462,5.5 5.5,5.5 3.038,0 5.5,-2.463 5.5,-5.5 0,-3.037 -2.462,-5.5 -5.5,-5.5 z m 0,9 c -1.933,0 -3.5,-1.567 -3.5,-3.5 0,-1.933 1.567,-3.5 3.5,-3.5 1.933,0 3.5,1.567 3.5,3.5 0,1.933 -1.567,3.5 -3.5,3.5 z m 23,-9 c -3.037,0 -5.5,2.463 -5.5,5.5 0,3.037 2.463,5.5 5.5,5.5 3.037,0 5.5,-2.463 5.5,-5.5 0,-3.037 -2.463,-5.5 -5.5,-5.5 z m 0,9 c -1.934,0 -3.5,-1.567 -3.5,-3.5 0,-1.933 1.566,-3.5 3.5,-3.5 1.934,0 3.5,1.567 3.5,3.5 0,1.933 -1.566,3.5 -3.5,3.5 z"
     id="path4"
     inkscape:connector-curvature="0"
     style="fill:#99aab5" />
  <path
     d="m 6.5,12.345 c -3.59,0 -6.5,2.91 -6.5,6.5 0,3.59 2.91,6.5 6.5,6.5 3.59,0 6.5,-2.91 6.5,-6.5 0,-3.59 -2.91,-6.5 -6.5,-6.5 z m 0,11 c -2.485,0 -4.5,-2.015 -4.5,-4.5 0,-2.485 2.015,-4.5 4.5,-4.5 2.485,0 4.5,2.015 4.5,4.5 0,2.485 -2.015,4.5 -4.5,4.5 z m 23,-11 c -3.59,0 -6.5,2.91 -6.5,6.5 0,3.59 2.91,6.5 6.5,6.5 3.59,0 6.5,-2.91 6.5,-6.5 0,-3.59 -2.91,-6.5 -6.5,-6.5 z m 0,11 c -2.485,0 -4.5,-2.015 -4.5,-4.5 0,-2.485 2.015,-4.5 4.5,-4.5 2.485,0 4.5,2.015 4.5,4.5 0,2.485 -2.015,4.5 -4.5,4.5 z"
     id="path6"
     inkscape:connector-curvature="0"
     style="fill:#292f33" />
  <path
     d="m 7.001,16.482 c -2,4 0.999,2.587 1.999,0.587 0.905,-1.811 3.444,-2.429 4.66,-0.375 -0.952,-3.05 -3.797,-5.263 -7.16,-5.263 -1.374,0 -2.657,0.375 -3.764,1.02 2.833,0.165 5.366,1.831 4.265,4.031 z"
     id="path8"
     inkscape:connector-curvature="0"
     style="fill:#77b255" />
  <path
     d="m 30,18.431 c 0,0.553 -0.447,1 -1,1 l -9,0 c -0.553,0 -1,-0.447 -1,-1 0,-0.553 0.447,-1 1,-1 l 9,0 c 0.553,0 1,0.447 1,1 z"
     id="path10"
     inkscape:connector-curvature="0"
     style="fill:#99aab5" />
  <path
     d="m 29.923,19.737 c -0.433,0.344 -1.062,0.272 -1.405,-0.161 l -5.601,-7.045 c -0.344,-0.433 -0.271,-1.062 0.16,-1.405 0.433,-0.344 1.062,-0.272 1.405,0.161 l 5.601,7.045 c 0.344,0.432 0.271,1.061 -0.16,1.405 z"
     id="path12"
     inkscape:connector-curvature="0"
     style="fill:#99aab5" />
  <path
     d="m 12.463,9.798 c 0.466,0.297 0.602,0.915 0.304,1.381 L 7.918,18.761 C 7.62,19.226 7.002,19.363 6.537,19.064 6.071,18.767 5.935,18.149 6.233,17.683 l 4.849,-7.582 C 11.38,9.636 11.998,9.499 12.463,9.798 Z"
     id="path14"
     inkscape:connector-curvature="0"
     style="fill:#ccd6dd" />
  <path
     d="M 10.529,6.799 C 9.718,7.384 6,8.431 9,10.431 c 3,2 5.094,4.125 5.094,6 0,2.665 -0.656,4 0.906,4 l 7,0 c 0,0 -1,-4 2,-7 3,-3 5,-2 8,-3 1.897,-0.633 4,-2 4,-3 0,-1 0,-2 -2,-1 -2,1 -1,1.551 -3,0.551 -2,-1 -3.16,0.449 -4.16,0.449 -1,0 -7.614,1.68 -8.62,-0.049 -0.553,-0.951 -1.786,-1.951 -3.604,-1.951 -1.318,0 -3.116,0.667 -4.087,1.368 z"
     id="path16"
     inkscape:connector-curvature="0"
     style="fill:#77b255" />
  <path
     d="m 21,18.431 c 0,1.104 -0.895,2 -2,2 -1.104,0 -2,-0.896 -2,-2 0,-1.104 0.896,-2 2,-2 1.105,0 2,0.896 2,2 z"
     id="path18"
     inkscape:connector-curvature="0"
     style="fill:#66757f" />
  <path
     d="m 25.8,17.406 9.277,-3.732 1.12,2.783 -9.278,3.732 z"
     id="path20"
     inkscape:connector-curvature="0"
     style="fill:#ccd6dd" />
  <path
     d="m 26.173,18.333 9.277,-3.732 0.373,0.928 -9.277,3.732 z"
     id="path22"
     inkscape:connector-curvature="0"
     style="fill:#ffffff" />
  <path
     d="m 26.546,19.261 9.277,-3.731 0.373,0.927 -9.277,3.732 z"
     id="path24"
     inkscape:connector-curvature="0"
     style="fill:#66757f" />
  <path
     d="m 19,7.568 c 1.366,0.385 5.645,-0.007 6.802,-0.098 1.157,-0.09 1.594,0.451 0,1.25 C 24,9.621 20.188,11.881 19,12.345 18.002,12.736 14.5,11.134 14.083,10.649 13.667,10.163 17.828,7.238 19,7.568 Z M 34,6.431 c -1.549,0.04 -3,0 -4,0 -1,0 -1.158,1.102 1.549,1.102 C 34.256,7.533 34,6.431 34,6.431 Z"
     id="path26"
     inkscape:connector-curvature="0"
     style="fill:#292f33" />
  <path
     d="m 3.736,6.389 c 0,-1.465 4.456,-5.134 3.975,-4.476 -1.15,1.573 -0.489,3.476 1.487,3.476 1.976,0 2.709,6.519 -0.198,5.042 C 6.093,8.954 3.736,7.108 3.736,6.389 Z"
     id="path28"
     inkscape:connector-curvature="0"
     style="fill:#77b255" />
  <path
     d="M 8.606,0 C 9.31,0.61 8.951,1.692 7.561,3.485 6.17,5.278 3.978,6.006 5.202,4.027 6.426,2.048 8.606,0 8.606,0 Z"
     id="path30"
     inkscape:connector-curvature="0"
     style="fill:#ccd6dd" />
  <path
     d="M 10.529,6.799 C 10.339,7.275 9.799,7.505 9.323,7.315 L 9.189,7.261 C 8.713,7.071 8.482,6.531 8.673,6.055 L 9.471,4.063 c 0.19,-0.476 0.73,-0.707 1.206,-0.516 l 0.135,0.054 c 0.476,0.19 0.707,0.73 0.516,1.206 l -0.799,1.992 z"
     id="path32"
     inkscape:connector-curvature="0"
     style="fill:#66757f" />
  <path
     d="m 12.911,3.422 c 0.094,0.26 -0.04,0.546 -0.3,0.64 L 10.73,4.741 C 10.47,4.835 10.184,4.7 10.09,4.44 9.996,4.18 10.13,3.894 10.39,3.8 l 1.881,-0.679 c 0.26,-0.094 0.546,0.041 0.64,0.301 z"
     id="path34"
     inkscape:connector-curvature="0"
     style="fill:#292f33" />
</svg>
