<?xml version="1.0" encoding="UTF-8" standalone="no"?>
<svg
   xmlns:dc="http://purl.org/dc/elements/1.1/"
   xmlns:cc="http://creativecommons.org/ns#"
   xmlns:rdf="http://www.w3.org/1999/02/22-rdf-syntax-ns#"
   xmlns:svg="http://www.w3.org/2000/svg"
   xmlns="http://www.w3.org/2000/svg"
   xmlns:sodipodi="http://sodipodi.sourceforge.net/DTD/sodipodi-0.dtd"
   xmlns:inkscape="http://www.inkscape.org/namespaces/inkscape"
   viewBox="0 0 34.879158 34.878269"
   id="svg2"
   version="1.1"
   inkscape:version="0.91 r13725"
   sodipodi:docname="1f3c8.svg"
   width="34.879158"
   height="34.878269">
  <metadata
     id="metadata12">
    <rdf:RDF>
      <cc:Work
         rdf:about="">
        <dc:format>image/svg+xml</dc:format>
        <dc:type
           rdf:resource="http://purl.org/dc/dcmitype/StillImage" />
      </cc:Work>
    </rdf:RDF>
  </metadata>
  <defs
     id="defs10" />
  <sodipodi:namedview
     pagecolor="#ffffff"
     bordercolor="#666666"
     borderopacity="1"
     objecttolerance="10"
     gridtolerance="10"
     guidetolerance="10"
     inkscape:pageopacity="0"
     inkscape:pageshadow="2"
     inkscape:window-width="640"
     inkscape:window-height="480"
     id="namedview8"
     showgrid="false"
     inkscape:zoom="6.5555556"
     inkscape:cx="17.439134"
     inkscape:cy="17.439134"
     inkscape:window-x="0"
     inkscape:window-y="0"
     inkscape:window-maximized="0"
     inkscape:current-layer="svg2" />
  <path
     d="m 7.1931341,7.1931341 c -3.686,3.6859999 -6.114,8.6159999 -6.91100004,13.5809999 l 13.82199994,13.822 c 4.965,-0.797 9.895,-3.225 13.581,-6.911 3.686,-3.686 6.114,-8.616 6.911,-13.581 l -13.822,-13.82199994 c -4.965,0.79700004 -9.895,3.22500004 -13.5809999,6.91100004 z m 25.6149999,-5.123 c -2.662,-1.47900004 -5.735,-2.12100004 -8.897,-2.06700004 l 10.965,10.96399994 c 0.053,-3.1619999 -0.589,-6.2349999 -2.068,-8.8969999 z M 2.0701341,32.808134 c 2.662,1.479 5.736,2.121 8.8979999,2.067 l -10.96499994,-10.964 c -0.054,3.161 0.588,6.235 2.06700004,8.897 z"
     id="path4"
     inkscape:connector-curvature="0"
     style="fill:#662113" />
  <path
     d="m 22.267134,11.196134 -2.414,2.414 -0.707,-0.707 c -0.391,-0.391 -1.023,-0.391 -1.414,0 -0.391,0.391 -0.391,1.024 0,1.414 l 0.707,0.708 -3.414,3.414 -0.707,-0.707 c -0.391,-0.391 -1.023,-0.391 -1.414,0 -0.391,0.391 -0.391,1.023 0,1.414 l 0.707,0.707 -2.414,2.414 -0.707,-0.707 c -0.391,-0.391 -1.0229999,-0.391 -1.4139999,0 -0.391,0.391 -0.391,1.024 0,1.414 l 0.707,0.707 -1,1 c -0.391,0.392 -0.391,1.024 0,1.415 0.391,0.391 1.023,0.391 1.4139999,0 l 1,-1 0.707,0.707 c 0.391,0.391 1.023,0.391 1.414,0 0.391,-0.392 0.391,-1.024 0,-1.414 l -0.707,-0.707 2.414,-2.414 0.707,0.707 c 0.391,0.392 1.023,0.392 1.414,0 0.391,-0.391 0.391,-1.024 0,-1.414 l -0.707,-0.708 3.414,-3.414 0.707,0.707 c 0.391,0.391 1.024,0.391 1.414,0 0.391,-0.391 0.392,-1.023 0,-1.414 l -0.707,-0.707 2.414,-2.414 0.707,0.707 c 0.391,0.391 1.023,0.39 1.414,0 0.391,-0.391 0.391,-1.023 0,-1.414 l -0.707,-0.707 1,-1 c 0.39,-0.3909999 0.39,-1.0229999 0,-1.4139999 -0.391,-0.391 -1.024,-0.391 -1.415,0 l -1,1 -0.707,-0.707 c -0.39,-0.391 -1.024,-0.391 -1.414,0 -0.391,0.39 -0.391,1.0229999 0,1.4139999 l 0.708,0.706 z m -22.26399994,12.715 10.96499994,10.965 c 1.04,-0.018 2.088,-0.111 3.136,-0.279 l -13.82199994,-13.823 c -0.168,1.049 -0.261,2.096 -0.279,3.137 z M 23.911134,0.00313406 c -1.04,0.018 -2.088,0.111 -3.136,0.279 l 13.822,13.82199994 c 0.168,-1.049 0.261,-2.096 0.279,-3.136 l -10.965,-10.96499994 z"
     id="path6"
     inkscape:connector-curvature="0"
     style="fill:#e1e8ed" />
</svg>
