<?xml version="1.0" encoding="UTF-8" standalone="no"?>
<svg
   xmlns:dc="http://purl.org/dc/elements/1.1/"
   xmlns:cc="http://creativecommons.org/ns#"
   xmlns:rdf="http://www.w3.org/1999/02/22-rdf-syntax-ns#"
   xmlns:svg="http://www.w3.org/2000/svg"
   xmlns="http://www.w3.org/2000/svg"
   xmlns:sodipodi="http://sodipodi.sourceforge.net/DTD/sodipodi-0.dtd"
   xmlns:inkscape="http://www.inkscape.org/namespaces/inkscape"
   viewBox="0 0 20.977774 35.863838"
   id="svg2"
   version="1.1"
   inkscape:version="0.91 r13725"
   sodipodi:docname="1f3cc-1f3fe-200d-2642-fe0f.svg"
   width="20.977774"
   height="35.863838">
  <metadata
     id="metadata44">
    <rdf:RDF>
      <cc:Work
         rdf:about="">
        <dc:format>image/svg+xml</dc:format>
        <dc:type
           rdf:resource="http://purl.org/dc/dcmitype/StillImage" />
      </cc:Work>
    </rdf:RDF>
  </metadata>
  <defs
     id="defs42" />
  <sodipodi:namedview
     pagecolor="#ffffff"
     bordercolor="#666666"
     borderopacity="1"
     objecttolerance="10"
     gridtolerance="10"
     guidetolerance="10"
     inkscape:pageopacity="0"
     inkscape:pageshadow="2"
     inkscape:window-width="640"
     inkscape:window-height="480"
     id="namedview40"
     showgrid="false"
     inkscape:zoom="6.5555556"
     inkscape:cx="8.6781195"
     inkscape:cy="18"
     inkscape:window-x="0"
     inkscape:window-y="0"
     inkscape:window-maximized="0"
     inkscape:current-layer="svg2" />
  <path
     d="m 11.630119,18.735839 c -0.265,2.577 -0.003,7.809 0.241,8.497 0.247,0.686 2.206,3.499 2.674,4.202 0.407,0.61 -2.035,2.397 -2.526,1.87 -0.887,-0.95 -3.2709995,-4.407 -3.4659995,-4.959 -0.195,-0.554 -0.966,-6.297 -1.403,-9.329 l 4.4799995,-0.281 z"
     id="path4"
     inkscape:connector-curvature="0"
     style="fill:#2a6797" />
  <path
     d="m 2.7931195,3.3958386 -2.61300002,-1.419 c -0.449,-0.249 0.029,-1.30300004 0.479,-1.05400004 l 2.69200002,1.46600004 -0.558,1.007 z"
     id="path6"
     inkscape:connector-curvature="0"
     style="fill:#66757f" />
  <path
     d="m 7.1701195,33.607839 c -0.658,-0.864 -4.719,0.256 -6.118,0.957 -0.93400002,0.469 -0.65700002,1.299 -0.65700002,1.299 l 7.03300002,0 c 0,0 0.399,-1.391 -0.258,-2.256 z"
     id="path8"
     inkscape:connector-curvature="0"
     style="fill:#ccd6dd" />
  <path
     d="m 11.035119,8.7958386 c -2.1479995,-1.12 -5.0229995,-2.745 -7.2729995,-5.713 -0.235,-0.31 -2.122,0.944 -1.969,1.156 2.125,2.938 4.438,5.5 11.0749995,7.3980004 0.069,0.02 -0.943,-2.3760004 -1.833,-2.8410004 z"
     id="path10"
     inkscape:connector-curvature="0"
     style="fill:#9b6a49" />
  <path
     d="m 13.338119,30.300839 c 0.12,-0.038 0.249,-0.065 0.374,-0.097 -0.19,-0.282 -0.388,-0.577 -0.588,-0.879 -0.118,0.035 -0.232,0.076 -0.347,0.116 -0.312,-0.481 -0.592,-0.917 -0.802,-1.253 0.118,-0.035 0.239,-0.064 0.362,-0.093 -0.23,-0.378 -0.403,-0.689 -0.466,-0.862 -0.004,-0.011 -0.008,-0.033 -0.012,-0.046 -0.112,0.03 -0.227,0.055 -0.335,0.09 -0.102,-0.357 -0.215,-0.884 -0.319,-1.505 0.152,-0.036 0.305,-0.072 0.464,-0.099 -0.024,-0.306 -0.045,-0.641 -0.065,-0.999 -0.186,0.029 -0.366,0.065 -0.544,0.106 -0.068,-0.533 -0.123,-1.093 -0.156,-1.649 0.206,-0.042 0.418,-0.073 0.635,-0.096 -0.009,-0.332 -0.014,-0.668 -0.017,-1.003 -0.221,0.021 -0.44,0.045 -0.651,0.082 -10e-4,-0.191 0.01,-0.466 0.021,-0.688 0.649,-0.842 1.058,-1.939 0.713,-3.468 l -7.8889995,0.092 c 0,0 -1.107,9.026 -1.107,9.857 0,0.828 0.516,4.528 0.83,5.856 0.105,0.439 3.91,0.614 3.773,-0.354 -0.086,-0.599 -0.645,-4.492 -0.554,-4.948 0.086,-0.431 0.513,-2.597 1.245,-4.133 l 0.064,0.448 c 0.052,-0.059 0.108,-0.112 0.162,-0.168 0.055,0.507 0.123,1 0.2,1.458 -0.051,0.041 -0.104,0.08 -0.153,0.123 0.07,0.461 0.134,0.871 0.191,1.21 0.059,-0.066 0.124,-0.126 0.186,-0.189 0.124,0.529 0.481,1.331 0.553,1.45 -0.086,0.079 -0.166,0.165 -0.247,0.249 0.148,0.243 0.34,0.541 0.557,0.868 0.076,-0.086 0.154,-0.17 0.236,-0.251 0.251,0.392 0.5379995,0.834 0.8369995,1.29 -0.073,0.07 -0.138,0.149 -0.207,0.222 0.199,0.282 0.4,0.562 0.596,0.827 0.057,-0.065 0.117,-0.126 0.177,-0.188 0.427,0.649 0.831,1.259 1.131,1.71 0.237,0.051 0.611,-0.08 0.999,-0.304 -0.316,-0.475 -0.825,-1.242 -1.358,-2.053 0.182,-0.123 0.373,-0.236 0.574,-0.338 0.461,0.705 0.94,1.431 1.331,2.02 0.3,-0.234 0.561,-0.495 0.714,-0.733 -0.339,-0.509 -0.726,-1.095 -1.108,-1.678 z m -4.0929995,-4.858 c -0.074,-0.503 -0.138,-1.044 -0.184,-1.593 0.27,-0.169 0.555,-0.319 0.86,-0.438 0.038,0.558 0.095,1.119 0.1659995,1.656 -0.2929995,0.109 -0.5769995,0.231 -0.8419995,0.375 z m 0.179,1.065 c 0.256,-0.162 0.527,-0.308 0.8169995,-0.429 0.11,0.628 0.233,1.174 0.357,1.575 -0.243,0.118 -0.474,0.249 -0.6949995,0.393 -0.041,-0.07 -0.347,-0.866 -0.479,-1.539 z m 1.8509995,3.684 c -0.304,-0.465 -0.593,-0.911 -0.84,-1.297 0.188,-0.123 0.386,-0.235 0.594,-0.337 0.204,0.331 0.491,0.781 0.82,1.289 -0.2,0.106 -0.39,0.221 -0.574,0.345 z"
     id="path12"
     inkscape:connector-curvature="0"
     style="fill:#4289c1" />
  <path
     d="m 9.8761195,22.455839 c 0.3999995,-0.332 0.7979995,-0.711 1.1219995,-1.166 -3.3039995,0.609 -5.9349995,-0.062 -7.5979995,-0.634 l -0.121,1.016 c 1.255,0.419 2.988,0.867 5.106,0.867 0.476,-10e-4 0.977,-0.033 1.491,-0.083 z m -2.604,3.518 c 0.104,-0.338 0.225,-0.678 0.354,-1.01 -1.907,0.06 -3.494,-0.274 -4.66,-0.605 -0.04,0.349 -0.078,0.684 -0.113,1.006 1.118,0.31 2.577,0.612 4.318,0.612 l 0.101,-0.003 z m -0.61,2.984 c -0.016,-0.24 -0.02,-0.42 -0.005,-0.497 0.018,-0.091 0.055,-0.276 0.103,-0.5 -1.668,0.058 -3.072,-0.187 -4.128,-0.437 -0.014,0.172 -0.024,0.314 -0.024,0.383 0,0.14 0.016,0.368 0.042,0.648 0.969,0.218 2.188,0.42 3.613,0.42 0.128,-10e-4 0.268,-0.014 0.399,-0.017 z m -3.759,1.67 c 0.048,0.343 0.1,0.69 0.152,1.028 0.628,0.08 1.348,0.144 2.162,0.144 0.548,0 1.138,-0.034 1.756,-0.104 -0.043,-0.322 -0.087,-0.661 -0.128,-0.994 -1.566,0.178 -2.915,0.071 -3.942,-0.074 z"
     id="path14"
     inkscape:connector-curvature="0"
     style="fill:#88c9f9" />
  <g
     id="g16"
     style="fill:#55acee"
     transform="translate(-9.3218805,-0.13616144)">
    <path
       d="m 14.2,18.73 c -0.056,0.269 -1.602,8.59 -1.643,9.077 -0.015,0.179 -0.024,0.334 -0.018,0.431 0.008,0.139 0.626,5.29 0.705,5.892 0.274,0.061 0.636,0.102 1.024,0.115 -0.075,-0.569 -0.72,-5.897 -0.73,-6.068 -0.003,-0.05 -10e-4,-0.12 0.004,-0.206 0.025,-0.393 1.485,-8.301 1.638,-9.036 L 14.2,18.73 Z"
       id="path18"
       inkscape:connector-curvature="0" />
    <path
       d="m 16.691,18.454 c -10e-4,0.014 -0.133,1.436 -0.312,2.322 -0.051,0.253 -0.123,0.534 -0.198,0.819 -0.083,0.312 -0.177,0.637 -0.28,0.972 -0.25,0.814 -0.54,1.67 -0.815,2.472 l -10e-4,0.004 c -0.124,0.361 -0.853,2.598 -0.889,3.001 -0.006,0.071 -0.008,0.136 -0.005,0.194 0.011,0.176 0.641,5.411 0.719,6.004 0.363,-0.017 0.709,-0.062 0.99,-0.14 -0.075,-0.572 -0.7,-5.734 -0.711,-5.924 -10e-4,-0.018 0.005,-0.052 0.007,-0.078 0.028,-0.313 0.895,-2.911 0.924,-2.997 0.276,-0.805 0.557,-1.647 0.799,-2.454 0.102,-0.342 0.193,-0.671 0.274,-0.989 0.059,-0.234 0.122,-0.472 0.165,-0.686 0.188,-0.938 0.321,-2.367 0.327,-2.428 l -0.994,-0.092 z m 2.706,0.599 c 0,0.629 -0.265,1.913 -0.503,2.56 -0.045,0.121 -0.841,1.651 -0.985,1.979 0.359,-0.293 0.828,-0.617 1.298,-1.008 0.201,-0.167 0.399,-0.348 0.59,-0.543 0.065,-0.167 0.128,-0.359 0.187,-0.566 0.238,-0.832 0.413,-1.886 0.413,-2.422 l -1,0 z"
       id="path20"
       inkscape:connector-curvature="0" />
  </g>
  <path
     d="m 16.054119,5.0798386 c 0,1.976 -1.601,3.579 -3.578,3.579 -1.977,0 -3.5799995,-1.603 -3.5799995,-3.579 0,-1.976 1.6029995,-3.579 3.5799995,-3.579 1.976,0 3.578,1.602 3.578,3.579"
     id="path22"
     inkscape:connector-curvature="0"
     style="fill:#af7e57" />
  <path
     d="m 10.607119,5.0788386 c -1.7099995,-1.278 -2.5869995,-3.85 -1.9499995,-4.52500004 1.196,-1.268 3.6879995,-0.109 4.3279995,0.98300004 0.641,1.094 -1.86,3.929 -2.378,3.542 z"
     id="path24"
     inkscape:connector-curvature="0"
     style="fill:#4289c1" />
  <path
     d="m 3.7161195,18.048839 c 0,0 0.196,-6.405 3.264,-8.7720004 2.289,-1.768 6.1429995,-0.446 7.1649995,1.5990004 1.024,2.045 -2.414,3.167 -2.414,8.28 0,1.023 -8.0149995,0.898 -8.0149995,-1.107 z"
     id="path26"
     inkscape:connector-curvature="0"
     style="fill:#77b255" />
  <path
     d="m 10.857119,5.6768386 c -0.466,1.068 -0.788,1.977 -0.9879995,2.783 0.5739995,0.271 1.0609995,1.31 1.7009995,1.5420004 1.056,0.383 1.173,-0.2770004 1.197,-0.3980004 0.257,-1.297 0.908,-2.537 1.328,-3.203 0.512,-0.809 -2.646,-2.084 -3.238,-0.724 z"
     id="path28"
     inkscape:connector-curvature="0"
     style="fill:#af7e57" />
  <path
     d="m 9.6201195,2.9238386 c 0,1.151 1.6739995,4.486 4.9709995,4.473 1.727,-0.007 2.037,-1.91 2.028,-3.172 -0.006,-1.081 -1.176,-2.966 -2.808,-3.43300004 -1.631,-0.467 -4.1909995,0.67900004 -4.1909995,2.13200004 z"
     id="path30"
     inkscape:connector-curvature="0"
     style="fill:#50a5e6" />
  <path
     d="m 13.565119,31.319839 c 1.5,-0.255 1.286,1.386 1.247,1.974 -0.093,1.4 -0.37,2.57 -1.362,2.57 l -3.321,0 c 0,0 -0.1839995,-1.522 1.603,-1.868 0.353,-0.069 -0.312,-2.312 1.833,-2.676 z"
     id="path32"
     inkscape:connector-curvature="0"
     style="fill:#ccd6dd" />
  <path
     d="m 4.3081195,8.0548386 c -0.717,-0.828 -0.977,-1.983 -0.796,-3.425 0.592,-0.259 1.006,-0.833 1.006,-1.503 0,-0.913 -0.763,-1.652 -1.705,-1.652 -0.94,0 -1.704,0.739 -1.704,1.652 0,0.206 0.044,0.402 0.115,0.584 -0.005,0.007 -0.026,0.004 -0.028,0.014 -0.87100002,7.1230004 4.099,7.8240004 5.732,8.0550004 0.101,0.014 1.768,-2.2440004 1.666,-2.2440004 -1.993,0 -3.435,-0.498 -4.286,-1.481 z"
     id="path34"
     inkscape:connector-curvature="0"
     style="fill:#af7e57" />
  <path
     d="m 5.1231195,8.2488386 c -0.384,1.283 -1.605,2.7230004 -1.605,2.7230004 1.765,1.579 3.844,1.719 3.844,1.719 0,0 1.818,-2.049 2.159,-3.2800004 -1.551,0.432 -4.398,-1.162 -4.398,-1.162 z"
     id="path36"
     inkscape:connector-curvature="0"
     style="fill:#77b255" />
  <path
     d="m 20.267119,11.780839 c -0.013,-0.006 -0.024,-0.007 -0.037,-0.012 -0.049,-0.036 -0.091,-0.076 -0.147,-0.107 L 4.4631195,3.0118386 c -0.449,-0.249 -0.706,0.926 -0.257,1.175 L 19.089119,12.426839 c -0.436,0.748 -0.717,1.871 -0.827,2.339 -0.189,0.805 1.137,1.61 2.004,1.61 0.867,0.001 1.027,-4.072 0.001,-4.595 z"
     id="path38"
     inkscape:connector-curvature="0"
     style="fill:#66757f" />
</svg>
