<?xml version="1.0" encoding="UTF-8" standalone="no"?>
<svg
   xmlns:dc="http://purl.org/dc/elements/1.1/"
   xmlns:cc="http://creativecommons.org/ns#"
   xmlns:rdf="http://www.w3.org/1999/02/22-rdf-syntax-ns#"
   xmlns:svg="http://www.w3.org/2000/svg"
   xmlns="http://www.w3.org/2000/svg"
   xmlns:sodipodi="http://sodipodi.sourceforge.net/DTD/sodipodi-0.dtd"
   xmlns:inkscape="http://www.inkscape.org/namespaces/inkscape"
   viewBox="0 0 36 36"
   id="svg2"
   version="1.1"
   inkscape:version="0.91 r13725"
   sodipodi:docname="1f3d0.svg"
   width="36"
   height="36">
  <metadata
     id="metadata12">
    <rdf:RDF>
      <cc:Work
         rdf:about="">
        <dc:format>image/svg+xml</dc:format>
        <dc:type
           rdf:resource="http://purl.org/dc/dcmitype/StillImage" />
      </cc:Work>
    </rdf:RDF>
  </metadata>
  <defs
     id="defs10" />
  <sodipodi:namedview
     pagecolor="#ffffff"
     bordercolor="#666666"
     borderopacity="1"
     objecttolerance="10"
     gridtolerance="10"
     guidetolerance="10"
     inkscape:pageopacity="0"
     inkscape:pageshadow="2"
     inkscape:window-width="640"
     inkscape:window-height="480"
     id="namedview8"
     showgrid="false"
     inkscape:zoom="6.5555556"
     inkscape:cx="18"
     inkscape:cy="18"
     inkscape:window-x="0"
     inkscape:window-y="0"
     inkscape:window-maximized="0"
     inkscape:current-layer="svg2" />
  <circle
     cx="18"
     cy="18"
     r="18"
     id="circle4"
     style="fill:#e6e7e8" />
  <path
     d="M 32.809,7.779 C 30.653,7.692 27.485,7.965 24.599,9.745 24.59,9.75 24.58,9.749 24.571,9.754 24.551,9.765 24.54,9.784 24.521,9.796 22.373,11.144 20.39,13.335 19.11,16.85 16.715,16.801 14.541,16.564 12.622,16.135 16.789,4.13 25.77,3.83 29.699,4.337 28.789,3.557 27.805,2.864 26.751,2.276 21.68,2.516 14.353,4.887 10.686,15.611 8.889,15.033 7.367,14.261 6.152,13.299 6.203,13.224 6.25,13.144 6.28,13.053 9.604,2.972 18.478,0.735 21.108,0.286 20.097,0.11 19.062,0 18,0 16.963,0 15.954,0.107 14.965,0.275 11.227,2.109 6.884,5.52 4.609,11.794 3.499,10.42 3.071,9.078 2.91,8.206 2.409,8.977 1.967,9.789 1.587,10.636 c 0.425,0.984 1.077,2.074 2.096,3.137 3.168,3.307 8.495,5.01 15.807,5.088 0.641,2.235 0.969,4.287 1.064,6.152 C 8.84,25.432 2.909,20.599 0.064,16.736 0.035,17.155 0,17.573 0,18 c 0,0.589 0.033,1.171 0.088,1.746 3.422,3.627 9.303,7.297 19.114,7.297 0.445,0 0.907,-0.016 1.368,-0.032 -0.07,1.93 -0.382,3.629 -0.817,5.094 C 10.225,31.849 4.812,28.744 1.821,25.85 c 0.931,1.915 2.182,3.641 3.698,5.102 3.275,1.666 7.681,2.906 13.566,3.029 -0.316,0.757 -0.654,1.429 -0.99,2.014 0.8,-0.004 1.583,-0.076 2.356,-0.181 1.828,-3.749 3.305,-9.756 0.842,-17.938 l -0.197,-0.613 c 0.91,-2.363 2.181,-4.011 3.592,-5.144 4.465,9.084 2.105,17.699 -0.101,22.62 0.94,-0.37 1.837,-0.82 2.692,-1.336 2.027,-5.501 3.435,-13.744 -0.906,-22.383 1.404,-0.729 2.848,-1.075 4.144,-1.213 0.008,0.014 0.008,0.031 0.017,0.045 4.295,6.693 2.406,15.067 -0.073,21.119 1.599,-1.536 2.906,-3.364 3.853,-5.399 1.399,-6.064 0.893,-11.461 -1.516,-15.822 0.486,0.027 0.91,0.073 1.248,0.122 C 33.677,9.146 33.269,8.444 32.809,7.779 Z"
     id="path6"
     inkscape:connector-curvature="0"
     style="fill:#99aab5" />
</svg>
