<?xml version="1.0" encoding="UTF-8" standalone="no"?>
<svg
   xmlns:dc="http://purl.org/dc/elements/1.1/"
   xmlns:cc="http://creativecommons.org/ns#"
   xmlns:rdf="http://www.w3.org/1999/02/22-rdf-syntax-ns#"
   xmlns:svg="http://www.w3.org/2000/svg"
   xmlns="http://www.w3.org/2000/svg"
   xmlns:sodipodi="http://sodipodi.sourceforge.net/DTD/sodipodi-0.dtd"
   xmlns:inkscape="http://www.inkscape.org/namespaces/inkscape"
   viewBox="0 0 36 35.774384"
   id="svg2"
   version="1.1"
   inkscape:version="0.91 r13725"
   sodipodi:docname="1f3d6.svg"
   width="36"
   height="35.774384">
  <metadata
     id="metadata24">
    <rdf:RDF>
      <cc:Work
         rdf:about="">
        <dc:format>image/svg+xml</dc:format>
        <dc:type
           rdf:resource="http://purl.org/dc/dcmitype/StillImage" />
      </cc:Work>
    </rdf:RDF>
  </metadata>
  <defs
     id="defs22" />
  <sodipodi:namedview
     pagecolor="#ffffff"
     bordercolor="#666666"
     borderopacity="1"
     objecttolerance="10"
     gridtolerance="10"
     guidetolerance="10"
     inkscape:pageopacity="0"
     inkscape:pageshadow="2"
     inkscape:window-width="640"
     inkscape:window-height="480"
     id="namedview20"
     showgrid="false"
     inkscape:zoom="6.5555556"
     inkscape:cx="18"
     inkscape:cy="17.900001"
     inkscape:window-x="0"
     inkscape:window-y="0"
     inkscape:window-maximized="0"
     inkscape:current-layer="svg2" />
  <ellipse
     cx="18"
     cy="30.414383"
     rx="18"
     ry="5.3600001"
     id="ellipse4"
     style="fill:#3b88c3" />
  <path
     d="m 33.813,28.412382 c 0,1.616 -2.5,2.587 -14.482,2.587 -10.925,0 -13.612,-0.971 -13.612,-2.587 0,-1.616 5.683,-2.926 13.612,-2.926 7.929,0 14.482,1.31 14.482,2.926 z"
     id="path6"
     inkscape:connector-curvature="0"
     style="fill:#88c9f9" />
  <path
     d="m 7,28.124382 c 0,-1 1,-5 11,-5 12,0 15,4 15,5 0,1 0,2 -14,2 -12,0 -12,-1 -12,-2 z"
     id="path8"
     inkscape:connector-curvature="0"
     style="fill:#f4900c" />
  <path
     d="m 20.62,27.541382 c -0.15,0.692 -0.835,1.133 -1.527,0.982 -0.693,-0.15 -1.133,-0.834 -0.983,-1.527 L 23.193,1.0113824 c 0.15,-0.69299996 0.834,-1.13199996 1.527,-0.98199996 0.691,0.15 1.133,0.834 0.981,1.52699996 L 20.62,27.541382 Z"
     id="path10"
     inkscape:connector-curvature="0"
     style="fill:#66757f" />
  <path
     d="m 24.358,1.7013824 c -7.622,-1.65399996 -14.857,1.873 -16.16,7.878 0,0 -0.363,1.6719996 0.474,1.8539996 0.836,0.182 2.872,-1.128 2.872,-1.128 l 20.908,4.538 c 0,0 1.309,2.036 2.146,2.218 0.837,0.182 1.199,-1.491 1.199,-1.491 C 37.101,9.5643824 31.979,3.3553824 24.358,1.7013824 Z"
     id="path12"
     inkscape:connector-curvature="0"
     style="fill:#dd2e44" />
  <path
     d="m 24.358,1.7013824 c -5.774,-1.25299996 -11.511,2.599 -12.814,8.6029996 0,0 -0.363,1.673 1.31,2.036 1.673,0.364 4.545,-0.765 4.545,-0.765 l 9.199,1.997 c 0,0 2.146,2.217 3.819,2.581 1.673,0.362 2.035,-1.311 2.035,-1.311 C 33.755,8.8383824 30.131,2.9543824 24.358,1.7013824 Z"
     id="path14"
     inkscape:connector-curvature="0"
     style="fill:#ffe8b6" />
  <path
     d="m 24.358,1.7013824 c -3.003,-0.651 -5.657,3.87 -6.96,9.8739996 0,0 2.146,2.218 3.818,2.58 l 0.837,0.183 c 1.673,0.362 4.544,-0.766 4.544,-0.766 C 27.901,7.5683824 27.361,2.3533824 24.358,1.7013824 Z"
     id="path16"
     inkscape:connector-curvature="0"
     style="fill:#dd2e44" />
  <path
     d="m 15.844,27.822382 c 0.469,-0.427 1.75,-0.326 2.5,-0.602 0.75,-0.276 1.219,-0.627 1.844,-0.376 0.625,0.251 0.812,0.627 1.406,0.678 0.594,0.051 1.031,0.402 0.781,0.678 -0.25,0.276 -2.219,0.376 -3.531,0.376 -1.312,0 -3.579,-0.226 -3,-0.754 z"
     id="path18"
     inkscape:connector-curvature="0"
     style="fill:#ffac33" />
</svg>
