<?xml version="1.0" encoding="UTF-8" standalone="no"?>
<svg
   xmlns:dc="http://purl.org/dc/elements/1.1/"
   xmlns:cc="http://creativecommons.org/ns#"
   xmlns:rdf="http://www.w3.org/1999/02/22-rdf-syntax-ns#"
   xmlns:svg="http://www.w3.org/2000/svg"
   xmlns="http://www.w3.org/2000/svg"
   xmlns:sodipodi="http://sodipodi.sourceforge.net/DTD/sodipodi-0.dtd"
   xmlns:inkscape="http://www.inkscape.org/namespaces/inkscape"
   viewBox="0 0 31 33.001251"
   id="svg2"
   version="1.1"
   inkscape:version="0.91 r13725"
   sodipodi:docname="1f3da.svg"
   width="31"
   height="33.001251">
  <metadata
     id="metadata22">
    <rdf:RDF>
      <cc:Work
         rdf:about="">
        <dc:format>image/svg+xml</dc:format>
        <dc:type
           rdf:resource="http://purl.org/dc/dcmitype/StillImage" />
      </cc:Work>
    </rdf:RDF>
  </metadata>
  <defs
     id="defs20" />
  <sodipodi:namedview
     pagecolor="#ffffff"
     bordercolor="#666666"
     borderopacity="1"
     objecttolerance="10"
     gridtolerance="10"
     guidetolerance="10"
     inkscape:pageopacity="0"
     inkscape:pageshadow="2"
     inkscape:window-width="640"
     inkscape:window-height="480"
     id="namedview18"
     showgrid="false"
     inkscape:zoom="6.5555556"
     inkscape:cx="15.5"
     inkscape:cy="17"
     inkscape:window-x="0"
     inkscape:window-y="0"
     inkscape:window-maximized="0"
     inkscape:current-layer="svg2" />
  <path
     d="m 6.794,5.97025 0.55,-0.372 0,-0.395 c 0,-0.276 -0.224,-0.5 -0.5,-0.5 l -2,0 c -0.276,0 -0.5,0.224 -0.5,0.5 l 0,1.868 0.632,0.428 -0.632,0.427 0,4.277 3,0 0,-5.861 -0.55,-0.372 z"
     id="path4"
     inkscape:connector-curvature="0"
     style="fill:#662113" />
  <path
     d="m 28.5,19.00125 0,-5 -5.965,-5.965 -2.41,1.507 0.167,-3.75 -4.792,-4.792 -13,13 0,7 2,0 0,1 -2,0 0,9 26,0 0,-5.5 -1,0 0,-1 1,0 0,-4.5 -2,0 0,-1 z"
     id="path6"
     inkscape:connector-curvature="0"
     style="fill:#d99e82" />
  <path
     d="m 7.5,24.00125 4,0 0,6 -4,0 z m 0,-9 4,0 0,4 -4,0 z m 12.5,9 4,0 0,4 -4,0 z"
     id="path8"
     inkscape:connector-curvature="0"
     style="fill:#c1694f" />
  <path
     d="m 31,31.50125 c 0,0.828 -0.672,1.5 -1.5,1.5 l -28,0 c -0.828,0 -1.5,-0.672 -1.5,-1.5 0,-0.828 0.672,-1.5 1.5,-1.5 l 28,0 c 0.828,0 1.5,0.672 1.5,1.5 z"
     id="path10"
     inkscape:connector-curvature="0"
     style="fill:#bcbec0" />
  <path
     d="m 29.207,13.29425 -5.802,-5.802 -1.74,1.088 6.128,6.128 c 0.195,0.195 0.451,0.293 0.707,0.293 0.256,0 0.512,-0.098 0.707,-0.293 0.391,-0.391 0.391,-1.023 0,-1.414 z m -8.854,-8.855 -4.146,-4.146 c -0.391,-0.391 -1.023,-0.391 -1.414,0 l -13,13 c -0.391,0.391 -0.391,1.023 0,1.414 0.391,0.391 1.023,0.391 1.414,0 l 12.293,-12.292 4.732,4.732 0.121,-2.708 z"
     id="path12"
     inkscape:connector-curvature="0"
     style="fill:#292f33" />
  <path
     d="m 21.92,8.42125 -1.795,1.122 0.125,-2.792 -1.979,-1.979 -1.625,7.417 3.687,1.729 -2.75,7.666 6.917,-6.583 -1,-5 z m -15.423,8.498 5.58,-1.722 0.428,1.389 -5.58,1.721 z m -0.318,10.848 5.753,-2.952 0.664,1.293 -5.754,2.952 z m 18.489,-0.274 -5.58,-1.722 0.429,-1.388 5.58,1.721 z"
     id="path14"
     inkscape:connector-curvature="0"
     style="fill:#662113" />
  <path
     d="m 12.228,29.04725 -5.99,-2.705 0.597,-1.324 5.99,2.704 z"
     id="path16"
     inkscape:connector-curvature="0"
     style="fill:#662113" />
</svg>
