<?xml version="1.0" encoding="UTF-8" standalone="no"?>
<svg
   xmlns:dc="http://purl.org/dc/elements/1.1/"
   xmlns:cc="http://creativecommons.org/ns#"
   xmlns:rdf="http://www.w3.org/1999/02/22-rdf-syntax-ns#"
   xmlns:svg="http://www.w3.org/2000/svg"
   xmlns="http://www.w3.org/2000/svg"
   xmlns:sodipodi="http://sodipodi.sourceforge.net/DTD/sodipodi-0.dtd"
   xmlns:inkscape="http://www.inkscape.org/namespaces/inkscape"
   viewBox="0 0 35 36"
   id="svg2"
   version="1.1"
   inkscape:version="0.91 r13725"
   sodipodi:docname="1f3d1.svg"
   width="35"
   height="36">
  <metadata
     id="metadata14">
    <rdf:RDF>
      <cc:Work
         rdf:about="">
        <dc:format>image/svg+xml</dc:format>
        <dc:type
           rdf:resource="http://purl.org/dc/dcmitype/StillImage" />
      </cc:Work>
    </rdf:RDF>
  </metadata>
  <defs
     id="defs12" />
  <sodipodi:namedview
     pagecolor="#ffffff"
     bordercolor="#666666"
     borderopacity="1"
     objecttolerance="10"
     gridtolerance="10"
     guidetolerance="10"
     inkscape:pageopacity="0"
     inkscape:pageshadow="2"
     inkscape:window-width="640"
     inkscape:window-height="480"
     id="namedview10"
     showgrid="false"
     inkscape:zoom="6.5555556"
     inkscape:cx="17"
     inkscape:cy="18"
     inkscape:window-x="0"
     inkscape:window-y="0"
     inkscape:window-maximized="0"
     inkscape:current-layer="svg2" />
  <path
     d="m 3,21 c 2.409,0 2,2 2,3 0,1 0,3 2,3 2,0 3.464,-2.465 7,-6 L 35,0 35,7 C 35,7 21.5,21.5 17,26 12.5,30.5 10,33 7,33 3.487,33 0,30.395 0,26 0,22 2,21 3,21 Z"
     id="path4"
     inkscape:connector-curvature="0"
     style="fill:#c1694f" />
  <circle
     cx="25.5"
     cy="29.5"
     r="6.5"
     id="circle6"
     style="fill:#dd2e44" />
  <path
     d="M 24.01,18.712 C 29.254,13.171 35,7 35,7 l 0,-7 -10.99,10.99 0,7.722 z M 21,21.878 22,20.829 22,13 l -1,1 0,7.878 z"
     id="path8"
     inkscape:connector-curvature="0"
     style="fill:#ffac33" />
</svg>
