<?xml version="1.0" encoding="UTF-8" standalone="no"?>
<svg
   xmlns:dc="http://purl.org/dc/elements/1.1/"
   xmlns:cc="http://creativecommons.org/ns#"
   xmlns:rdf="http://www.w3.org/1999/02/22-rdf-syntax-ns#"
   xmlns:svg="http://www.w3.org/2000/svg"
   xmlns="http://www.w3.org/2000/svg"
   xmlns:sodipodi="http://sodipodi.sourceforge.net/DTD/sodipodi-0.dtd"
   xmlns:inkscape="http://www.inkscape.org/namespaces/inkscape"
   viewBox="0 0 36 33.75"
   id="svg2"
   version="1.1"
   inkscape:version="0.91 r13725"
   sodipodi:docname="1f3d4.svg"
   width="36"
   height="33.75">
  <metadata
     id="metadata28">
    <rdf:RDF>
      <cc:Work
         rdf:about="">
        <dc:format>image/svg+xml</dc:format>
        <dc:type
           rdf:resource="http://purl.org/dc/dcmitype/StillImage" />
      </cc:Work>
    </rdf:RDF>
  </metadata>
  <defs
     id="defs26" />
  <sodipodi:namedview
     pagecolor="#ffffff"
     bordercolor="#666666"
     borderopacity="1"
     objecttolerance="10"
     gridtolerance="10"
     guidetolerance="10"
     inkscape:pageopacity="0"
     inkscape:pageshadow="2"
     inkscape:window-width="640"
     inkscape:window-height="480"
     id="namedview24"
     showgrid="false"
     inkscape:zoom="6.5555556"
     inkscape:cx="18"
     inkscape:cy="18"
     inkscape:window-x="0"
     inkscape:window-y="0"
     inkscape:window-maximized="0"
     inkscape:current-layer="svg2" />
  <path
     d="M 19.083,33.25 12.25,10.042 c 0,0 -1.42,0.761 -2.604,1.637 -0.313,0.231 -1.977,2.79 -2.312,3.04 C 5.572,16.034 3.782,17.56 3.542,17.886 3.083,18.51 0,33.75 0,33.75 l 19.083,-0.5 z"
     id="path4"
     inkscape:connector-curvature="0"
     style="fill:#292f33" />
  <path
     d="M 32,32.75 26.5,13 18,2.292 12.627,6.485 11.656,7.657 C 11.25,8.438 10,13 10,13 L 8.75,17.75 3.252,27.804 0.917,32.541 32,32.75 Z"
     id="path6"
     inkscape:connector-curvature="0"
     style="fill:#4b545d" />
  <path
     d="m 3.252,27.804 c 0,0 7.873,-10.783 7.894,-11.388 C 11.167,15.812 10,13 10,13 L 8.75,17.75 3.252,27.804 Z"
     id="path8"
     inkscape:connector-curvature="0"
     style="fill:#ffffff" />
  <path
     d="m 12,31.75 2,0 L 16,16 17.234,14.203 20.812,8.969 20.906,7.5 17.619,11.954 15,15.502 12.612,22.864 12,24.75 10.209,27.884 8,31.75 Z M 24.059,14.134 22.094,20.031 21,23.75 l 2.792,7.625 3.552,-0.062 c 0,0 -4.344,-6.938 -4.344,-7.563 0,-0.12 0.625,-2.687 0.625,-2.687 L 24.719,16.532 25,15 24.059,14.134 Z"
     id="path10"
     inkscape:connector-curvature="0"
     style="fill:#292f33" />
  <path
     d="m 24.059,14.134 -1.778,-0.665 -1.531,0.875 -1.328,-1.063 -2.188,0.922 3.578,-5.234 z m 2.871,7.379 -1.711,-1.388 -1.594,0.938 1.094,-4.532 1.437,2.282 z"
     id="path12"
     inkscape:connector-curvature="0"
     style="fill:#f1f1f1" />
  <path
     d="M 22.094,20.031 21,23.75 20.75,21.333 Z M 12,24.75 l -1.791,3.134 0.353,-2.431 c 0,0 0.682,-0.578 0.938,-0.911 0.255,-0.333 1.112,-1.678 1.112,-1.678 L 12,24.75 Z m 3.208,-11 2.411,-1.796 L 15,15.502 Z"
     id="path14"
     inkscape:connector-curvature="0"
     style="fill:#ffffff" />
  <path
     d="m 36,33.75 c 0,0 -0.384,-3.845 -0.854,-7.083 -0.369,-2.543 -2.757,-6.303 -4.099,-7.115 L 29.813,16.016 27.79,10.914 25.532,8.625 23.688,6.999 23.183,6.378 18,2.292 l 2.289,5.007 0.524,1.67 3.246,5.165 0.66,2.397 1.438,2.281 0.774,2.701 1.069,3.737 -2,6.5 10,2 z"
     id="path16"
     inkscape:connector-curvature="0"
     style="fill:#292f33" />
  <path
     d="m 33.708,30.188 c -1.345,0 -4.958,0.562 -5.458,0.562 C 26.25,30.75 24,29 23,29 c -1,0 -3.594,1.75 -5.594,1.75 -1.688,0 -2.406,-0.812 -4.719,-0.812 -0.748,0 -4.096,0.871 -4.812,0.781 C 6.052,30.491 5.115,29.75 4.656,29.75 2,29.75 0,33.75 0,33.75 l 36,0 c 0,0 -0.875,-3.562 -2.292,-3.562 z"
     id="path18"
     inkscape:connector-curvature="0"
     style="fill:#5c903f" />
  <path
     d="M 12.627,6.485 14.75,6 15.406,7.844 17.531,6.969 20.289,7.299 18,0 Z"
     id="path20"
     inkscape:connector-curvature="0"
     style="fill:#f1f1f1" />
  <path
     d="M 23.183,6.378 21.74,6.135 20.289,7.299 18,0 Z m 4.77,4.372 1.859,5.266 -1.729,-2.828 -1.614,-1.625 -0.938,-2.938 z m 7.193,15.917 c 0,0 -0.146,-3.885 -1.271,-5.167 C 32.75,20.218 31,19.521 31,19.521 l 1.438,3.271 1.458,1.417 1.25,2.458 z"
     id="path22"
     inkscape:connector-curvature="0"
     style="fill:#a8b6c0" />
</svg>
