<?xml version="1.0" encoding="UTF-8" standalone="no"?>
<svg
   xmlns:dc="http://purl.org/dc/elements/1.1/"
   xmlns:cc="http://creativecommons.org/ns#"
   xmlns:rdf="http://www.w3.org/1999/02/22-rdf-syntax-ns#"
   xmlns:svg="http://www.w3.org/2000/svg"
   xmlns="http://www.w3.org/2000/svg"
   xmlns:sodipodi="http://sodipodi.sourceforge.net/DTD/sodipodi-0.dtd"
   xmlns:inkscape="http://www.inkscape.org/namespaces/inkscape"
   viewBox="0 0 36 35.851456"
   id="svg2"
   version="1.1"
   inkscape:version="0.91 r13725"
   sodipodi:docname="1f3dd.svg"
   width="36"
   height="35.851456">
  <metadata
     id="metadata26">
    <rdf:RDF>
      <cc:Work
         rdf:about="">
        <dc:format>image/svg+xml</dc:format>
        <dc:type
           rdf:resource="http://purl.org/dc/dcmitype/StillImage" />
      </cc:Work>
    </rdf:RDF>
  </metadata>
  <defs
     id="defs24" />
  <sodipodi:namedview
     pagecolor="#ffffff"
     bordercolor="#666666"
     borderopacity="1"
     objecttolerance="10"
     gridtolerance="10"
     guidetolerance="10"
     inkscape:pageopacity="0"
     inkscape:pageshadow="2"
     inkscape:window-width="640"
     inkscape:window-height="480"
     id="namedview22"
     showgrid="false"
     inkscape:zoom="6.5555556"
     inkscape:cx="18"
     inkscape:cy="17.900001"
     inkscape:window-x="0"
     inkscape:window-y="0"
     inkscape:window-maximized="0"
     inkscape:current-layer="svg2" />
  <ellipse
     cx="18"
     cy="30.491455"
     rx="18"
     ry="5.3600001"
     id="ellipse4"
     style="fill:#3b88c3" />
  <path
     d="m 33.812,28.489454 c 0,1.616 -2.5,2.587 -14.482,2.587 -10.925,0 -13.612,-0.971 -13.612,-2.587 0,-1.616 5.683,-2.926 13.612,-2.926 7.929,0 14.482,1.31 14.482,2.926 z"
     id="path6"
     inkscape:connector-curvature="0"
     style="fill:#88c9f9" />
  <path
     d="m 7,28.201454 c 0,-1 1,-5 11,-5 12,0 15,4 15,5 0,1 0,2 -14,2 -12,0 -12,-1 -12,-2 z"
     id="path8"
     inkscape:connector-curvature="0"
     style="fill:#f4900c" />
  <circle
     cx="7"
     cy="6.2014537"
     r="5"
     id="circle10"
     style="fill:#ffcc4d" />
  <circle
     cx="7"
     cy="6.2014537"
     r="4"
     id="circle12"
     style="fill:#ffac33" />
  <path
     d="m 26.949,14.418454 c -0.039,-0.575 -0.098,-1.131 -0.177,-1.662 -0.095,-0.636 -0.214,-1.235 -0.347,-1.797 -0.122,-0.517 -0.255,-0.9990004 -0.392,-1.4420004 -0.205,-0.666 -0.417,-1.243 -0.609,-1.716 -0.377,-0.929 -0.674,-1.46 -0.674,-1.46 l -2.583,0.333 c 0,0 0.298,0.622 0.621,1.841 0.131,0.495 0.265,1.09 0.386,1.7840004 0.061,0.351 0.118,0.724 0.17,1.125 0.072,0.558 0.131,1.167 0.173,1.823 0.024,0.37 0.041,0.756 0.053,1.158 0.004,0.146 0.011,0.287 0.013,0.437 0.007,0.469 -0.026,0.946 -0.084,1.422 -0.053,0.429 -0.13,0.856 -0.223,1.279 -0.133,0.606 -0.296,1.202 -0.479,1.77 -0.149,0.46 -0.308,0.901 -0.468,1.316 -0.246,0.637 -0.493,1.209 -0.707,1.687 -0.358,0.798 -0.622,1.33 -0.622,1.441 0,0.351 0.25,1.007 2,1.444 2.736,0.684 3,-0.444 3,-0.444 0,0 0.174,-0.528 0.376,-1.567 0.1,-0.513 0.206,-1.147 0.303,-1.915 0.058,-0.459 0.112,-0.964 0.158,-1.513 0.049,-0.572 0.089,-1.192 0.118,-1.863 0.021,-0.508 0.034,-1.051 0.039,-1.615 0.002,-0.176 0.006,-0.346 0.006,-0.527 0,-0.459 -0.021,-0.903 -0.051,-1.339 z"
     id="path14"
     inkscape:connector-curvature="0"
     style="fill:#c1694f" />
  <path
     d="m 24.324,21.313454 c -1.003,-0.175 -1.643,-0.467 -1.994,-0.686 -0.246,0.637 -0.493,1.209 -0.707,1.687 0.655,0.356 1.487,0.64 2.389,0.796 0.521,0.091 1.038,0.136 1.523,0.136 0.296,0 0.574,-0.023 0.841,-0.057 0.1,-0.513 0.206,-1.147 0.303,-1.915 -0.318,0.113 -1.107,0.257 -2.355,0.039 z m 0.758,-3.342 c -0.782,-0.077 -1.383,-0.249 -1.805,-0.43 -0.133,0.606 -0.296,1.202 -0.479,1.77 0.618,0.233 1.345,0.401 2.106,0.476 0.307,0.03 0.611,0.045 0.908,0.045 0.359,0 0.7,-0.028 1.026,-0.071 0.049,-0.572 0.089,-1.192 0.118,-1.863 -0.45,0.098 -1.08,0.152 -1.874,0.073 z m 0.221,-1.524 c 0.588,0 1.165,-0.059 1.692,-0.163 10e-4,-0.176 0.005,-0.346 0.005,-0.527 0,-0.458 -0.021,-0.902 -0.051,-1.339 -0.378,0.099 -0.919,0.194 -1.682,0.205 -0.775,-0.003 -1.32,-0.111 -1.698,-0.219 0.004,0.146 0.011,0.287 0.013,0.437 0.007,0.469 -0.026,0.946 -0.084,1.422 0.545,0.115 1.148,0.181 1.76,0.184 l 0.045,0 z m -0.178,-3.273 c 0.59,-0.085 1.137,-0.238 1.648,-0.418 -0.095,-0.636 -0.214,-1.235 -0.347,-1.797 -0.354,0.146 -0.857,0.308 -1.56,0.409 -0.651,0.094 -1.147,0.088 -1.522,0.055 0.072,0.558 0.131,1.167 0.173,1.823 0.109,0.004 0.207,0.021 0.319,0.021 0.42,0 0.857,-0.031 1.289,-0.093 z m 0.909,-3.6580004 c -0.206,-0.665 -0.418,-1.242 -0.61,-1.715 -0.317,0.159 -0.718,0.326 -1.242,0.471 -0.568,0.158 -1.027,0.221 -1.395,0.243 0.131,0.495 0.265,1.09 0.386,1.7840004 0.487,-0.049 0.989,-0.128 1.497,-0.269 0.486,-0.1350004 0.937,-0.3160004 1.364,-0.5140004 z"
     id="path16"
     inkscape:connector-curvature="0"
     style="fill:#d99e82" />
  <path
     d="m 34.549,2.8944536 c -0.032,-0.042 -3.202,-4.283 -7.313,-2.42299997 -1.847,0.83499997 -3.038,2.19999997 -3.469,3.96299997 -0.804,-1.125 -2.026,-1.839 -3.644,-2.127 -4.421,-0.788 -7.092,4.123 -7.118,4.172 -0.039,0.072 -0.022,0.16 0.039,0.214 0.062,0.053 0.151,0.057 0.217,0.01 0.02,-0.015 2.037,-1.427 5.396,-0.828 3.433,0.611 5.84,1.211 5.864,1.217 0.015,0.003 0.028,0.005 0.043,0.005 0.048,0 0.095,-0.02 0.129,-0.056 0.022,-0.024 2.303,-2.475 4.4,-3.423 3.104,-1.404 5.221,-0.472 5.24,-0.462 0.072,0.033 0.158,0.013 0.209,-0.049 0.051,-0.061 0.054,-0.148 0.007,-0.213 z"
     id="path18"
     inkscape:connector-curvature="0"
     style="fill:#3e721d" />
  <path
     d="m 31.129,5.3524536 c -3.134,-1.655 -5.57,-0.831 -7.083,0.174 -1.813,-0.351 -5.201,-0.357 -8.072,3.324 -3.525,4.5180004 -0.433,10.1520004 -0.402,10.2090004 0.031,0.056 0.09,0.089 0.153,0.089 l 0.021,-0.001 c 0.071,-0.009 0.129,-0.06 0.147,-0.128 0.011,-0.039 1.097,-3.967 3.843,-7.27 1.501,-1.8050004 3.293,-3.4740004 4.554,-4.5730004 1.27,0.211 3.136,0.678 4.969,1.702 3.573,1.9980004 5.212,5.3790004 5.228,5.4130004 0.032,0.066 0.101,0.112 0.177,0.099 0.074,-0.008 0.135,-0.062 0.151,-0.134 0.014,-0.063 1.392,-6.2220004 -3.686,-8.9040004 z"
     id="path20"
     inkscape:connector-curvature="0"
     style="fill:#5c913b" />
</svg>
