<?xml version="1.0" encoding="UTF-8" standalone="no"?>
<svg
   xmlns:dc="http://purl.org/dc/elements/1.1/"
   xmlns:cc="http://creativecommons.org/ns#"
   xmlns:rdf="http://www.w3.org/1999/02/22-rdf-syntax-ns#"
   xmlns:svg="http://www.w3.org/2000/svg"
   xmlns="http://www.w3.org/2000/svg"
   xmlns:sodipodi="http://sodipodi.sourceforge.net/DTD/sodipodi-0.dtd"
   xmlns:inkscape="http://www.inkscape.org/namespaces/inkscape"
   viewBox="0 0 35.000404 34.713665"
   id="svg2"
   version="1.1"
   inkscape:version="0.91 r13725"
   sodipodi:docname="1f3d3.svg"
   width="35.000404"
   height="34.713665">
  <metadata
     id="metadata16">
    <rdf:RDF>
      <cc:Work
         rdf:about="">
        <dc:format>image/svg+xml</dc:format>
        <dc:type
           rdf:resource="http://purl.org/dc/dcmitype/StillImage" />
      </cc:Work>
    </rdf:RDF>
  </metadata>
  <defs
     id="defs14" />
  <sodipodi:namedview
     pagecolor="#ffffff"
     bordercolor="#666666"
     borderopacity="1"
     objecttolerance="10"
     gridtolerance="10"
     guidetolerance="10"
     inkscape:pageopacity="0"
     inkscape:pageshadow="2"
     inkscape:window-width="640"
     inkscape:window-height="480"
     id="namedview12"
     showgrid="false"
     inkscape:zoom="6.5555556"
     inkscape:cx="18.000404"
     inkscape:cy="17.962849"
     inkscape:window-x="0"
     inkscape:window-y="0"
     inkscape:window-maximized="0"
     inkscape:current-layer="svg2" />
  <path
     d="m 23.106404,4.721816 c -5.491,-5.49099998 -14.7220001,-6.492 -19.7990001,-1.414 -5.077,5.077 -4.077,14.308 1.414,19.799 3.554,3.554 7.7850001,4.323 11.7070001,3.058 l -0.015,0.013 0.13,-0.052 c 0.264,-0.088 0.527,-0.179 0.788,-0.284 0.698,-0.238 1.734,-0.558 2.942,-0.806 1.848,-0.38 3.541,1.606 4.955,3.021 1.414,1.414 4.242,5.657 4.949,6.364 0.707,0.707 1.414,0 2.122,-0.707 l 0.707,-0.707 0.707,-0.707 c 0.707,-0.708 1.414,-1.415 0.707,-2.122 -0.707,-0.707 -4.95,-3.535 -6.364,-4.949 -1.414,-1.414 -3.4,-3.107 -3.021,-4.955 0.198,-0.965 0.441,-1.815 0.653,-2.481 1.974,-4.222 1.537,-8.952 -2.582,-13.071 z"
     id="path4"
     inkscape:connector-curvature="0"
     style="fill:#dd2e44" />
  <path
     d="m 15.564404,26.405816 c 0.289,-0.07 0.578,-0.149 0.864,-0.241 l -0.015,0.013 0.13,-0.052 c 0.264,-0.088 0.527,-0.179 0.788,-0.284 0.698,-0.238 1.734,-0.558 2.942,-0.806 1.848,-0.38 3.541,1.606 4.955,3.021 1.414,1.414 4.242,5.657 4.949,6.364 0.707,0.707 1.414,0 2.122,-0.707 l 0.707,-0.707 0.707,-0.707 c 0.707,-0.708 1.414,-1.415 0.707,-2.122 -0.707,-0.707 -4.95,-3.535 -6.364,-4.949 -1.414,-1.414 -3.4,-3.107 -3.021,-4.955 0.198,-0.965 0.441,-1.815 0.653,-2.481 0.357,-0.764 0.633,-1.543 0.824,-2.334 l -10.948,10.947 z"
     id="path6"
     inkscape:connector-curvature="0"
     style="fill:#d99e82" />
  <path
     d="m 20.277404,21.692816 1.414,-1.414 12.022,12.021 -1.414,1.414 z"
     id="path8"
     inkscape:connector-curvature="0"
     style="fill:#ffcc4d" />
  <circle
     cx="31.500404"
     cy="5.2508159"
     r="3.5"
     id="circle10"
     style="fill:#ccd6dd" />
</svg>
