<?xml version="1.0" encoding="UTF-8" standalone="no"?>
<svg
   xmlns:dc="http://purl.org/dc/elements/1.1/"
   xmlns:cc="http://creativecommons.org/ns#"
   xmlns:rdf="http://www.w3.org/1999/02/22-rdf-syntax-ns#"
   xmlns:svg="http://www.w3.org/2000/svg"
   xmlns="http://www.w3.org/2000/svg"
   xmlns:sodipodi="http://sodipodi.sourceforge.net/DTD/sodipodi-0.dtd"
   xmlns:inkscape="http://www.inkscape.org/namespaces/inkscape"
   viewBox="0 0 35.790749 31.951"
   id="svg2"
   version="1.1"
   inkscape:version="0.91 r13725"
   sodipodi:docname="1f3d8.svg"
   width="35.790749"
   height="31.951">
  <metadata
     id="metadata40">
    <rdf:RDF>
      <cc:Work
         rdf:about="">
        <dc:format>image/svg+xml</dc:format>
        <dc:type
           rdf:resource="http://purl.org/dc/dcmitype/StillImage" />
      </cc:Work>
    </rdf:RDF>
  </metadata>
  <defs
     id="defs38" />
  <sodipodi:namedview
     pagecolor="#ffffff"
     bordercolor="#666666"
     borderopacity="1"
     objecttolerance="10"
     gridtolerance="10"
     guidetolerance="10"
     inkscape:pageopacity="0"
     inkscape:pageshadow="2"
     inkscape:window-width="640"
     inkscape:window-height="480"
     id="namedview36"
     showgrid="false"
     inkscape:zoom="6.5555556"
     inkscape:cx="17.83275"
     inkscape:cy="17.014"
     inkscape:window-x="0"
     inkscape:window-y="0"
     inkscape:window-maximized="0"
     inkscape:current-layer="svg2" />
  <path
     d="m 1.36975,21.899 c -0.414,0 -0.75,0.336 -0.75,0.75 0,0.415 0.336,0.75 0.75,0.75 l 18,0 0,-1.5 -18,0 z m 33.671,-7.955 -12.5,0 0,1.5 12.5,0 c 0.414,0 0.75,-0.336 0.75,-0.75 0,-0.415 -0.335,-0.75 -0.75,-0.75 z"
     id="path4"
     inkscape:connector-curvature="0"
     style="fill:#292f33" />
  <path
     d="m 23.04875,6.561 5.742,-5.742 5.743,5.742 0,7.383 -11.485,0 z"
     id="path6"
     inkscape:connector-curvature="0"
     style="fill:#ffcc4d" />
  <path
     d="m 34.53375,7.382 c -0.21,0 -0.42,-0.08 -0.58,-0.24 l -5.162,-5.162 -5.162,5.162 c -0.32,0.32 -0.84,0.32 -1.16,0 -0.32,-0.32 -0.32,-0.84 0,-1.16 l 5.742,-5.742 c 0.32,-0.32 0.84,-0.32 1.16,0 l 5.742,5.742 c 0.32,0.32 0.32,0.84 0,1.16 -0.161,0.159 -0.371,0.24 -0.58,0.24 z"
     id="path8"
     inkscape:connector-curvature="0"
     style="fill:#292f33" />
  <path
     d="m 27.15075,8.202 3.281,0 0,5.742 -3.281,0 z"
     id="path10"
     inkscape:connector-curvature="0"
     style="fill:#662113" />
  <path
     d="m 24.68975,8.202 1.641,0 0,1.641 -1.641,0 z m 6.562,0 1.641,0 0,1.641 -1.641,0 z m 0,2.461 1.641,0 0,1.641 -1.641,0 z"
     id="path12"
     inkscape:connector-curvature="0"
     style="fill:#3b88c3" />
  <path
     d="m 10.36975,2.196 -8.296,8.296 0,11.407 16.592,0 0,-11.407 z"
     id="path14"
     inkscape:connector-curvature="0"
     style="fill:#ffcc4d" />
  <path
     d="m 19.70275,12.566 c -0.265,0 -0.531,-0.101 -0.733,-0.304 l -8.6,-8.6 -8.6,8.6 c -0.405,0.405 -1.061,0.405 -1.466,0 -0.405,-0.405 -0.405,-1.061 0,-1.466 l 9.333,-9.333 c 0.405,-0.405 1.061,-0.405 1.466,0 l 9.333,9.333 c 0.405,0.405 0.405,1.061 0,1.466 -0.202,0.202 -0.467,0.304 -0.733,0.304 z"
     id="path16"
     inkscape:connector-curvature="0"
     style="fill:#292f33" />
  <path
     d="m 8.29575,12.566 4.148,0 0,9.333 -4.148,0 z"
     id="path18"
     inkscape:connector-curvature="0"
     style="fill:#662113" />
  <path
     d="m 4.14775,12.566 3.111,0 0,3.111 -3.111,0 z m 0,4.148 3.111,0 0,3.111 -3.111,0 z"
     id="path20"
     inkscape:connector-curvature="0"
     style="fill:#3b88c3" />
  <path
     d="m 21.30975,5.375 -10.523,10.557 0,14.519 21.046,0 0,-14.519 z"
     id="path22"
     inkscape:connector-curvature="0"
     style="fill:#ffe8b6" />
  <path
     d="m 32.83275,29.945 -23,0 c -0.552,0 -1,0.449 -1,1.003 0,0.554 0.448,1.003 1,1.003 l 23,0 c 0.552,0 1,-0.449 1,-1.003 0,-0.554 -0.448,-1.003 -1,-1.003 z"
     id="path24"
     inkscape:connector-curvature="0"
     style="fill:#66757f" />
  <path
     d="m 20.83275,15.937 1,0 0,14 -1,0 z"
     id="path26"
     inkscape:connector-curvature="0"
     style="fill:#ffcc4d" />
  <path
     d="m 13.83275,23.937 4,0 0,6 -4,0 z"
     id="path28"
     inkscape:connector-curvature="0"
     style="fill:#c1694f" />
  <path
     d="m 13.83275,16.937 4,0 0,4 -4,0 z m 11,0 4,0 0,4 -4,0 z m 0,7 4,0 0,4 -4,0 z"
     id="path30"
     inkscape:connector-curvature="0"
     style="fill:#55acee" />
  <path
     d="m 20.83275,16.54 c -0.256,0 -0.512,-0.098 -0.707,-0.293 -0.391,-0.391 -0.391,-1.023 0,-1.414 l 6.5,-6.5 1.414,1.414 -6.5,6.5 c -0.195,0.196 -0.451,0.293 -0.707,0.293 z"
     id="path32"
     inkscape:connector-curvature="0"
     style="fill:#66757f" />
  <path
     d="m 32.71675,16.54 c -0.265,0 -0.531,-0.101 -0.733,-0.304 l -10.674,-10.674 -10.674,10.674 c -0.405,0.405 -1.061,0.405 -1.466,0 -0.405,-0.405 -0.405,-1.061 0,-1.466 l 11.407,-11.407 c 0.405,-0.405 1.061,-0.405 1.466,0 l 11.407,11.407 c 0.405,0.405 0.405,1.061 0,1.466 -0.202,0.203 -0.467,0.304 -0.733,0.304 z"
     id="path34"
     inkscape:connector-curvature="0"
     style="fill:#66757f" />
</svg>
