<?xml version="1.0" encoding="UTF-8" standalone="no"?>
<svg
   xmlns:dc="http://purl.org/dc/elements/1.1/"
   xmlns:cc="http://creativecommons.org/ns#"
   xmlns:rdf="http://www.w3.org/1999/02/22-rdf-syntax-ns#"
   xmlns:svg="http://www.w3.org/2000/svg"
   xmlns="http://www.w3.org/2000/svg"
   xmlns:sodipodi="http://sodipodi.sourceforge.net/DTD/sodipodi-0.dtd"
   xmlns:inkscape="http://www.inkscape.org/namespaces/inkscape"
   viewBox="0 0 36 33.000252"
   id="svg2"
   version="1.1"
   inkscape:version="0.91 r13725"
   sodipodi:docname="1f3e1.svg"
   width="36"
   height="33.000252">
  <metadata
     id="metadata30">
    <rdf:RDF>
      <cc:Work
         rdf:about="">
        <dc:format>image/svg+xml</dc:format>
        <dc:type
           rdf:resource="http://purl.org/dc/dcmitype/StillImage" />
      </cc:Work>
    </rdf:RDF>
  </metadata>
  <defs
     id="defs28" />
  <sodipodi:namedview
     pagecolor="#ffffff"
     bordercolor="#666666"
     borderopacity="1"
     objecttolerance="10"
     gridtolerance="10"
     guidetolerance="10"
     inkscape:pageopacity="0"
     inkscape:pageshadow="2"
     inkscape:window-width="640"
     inkscape:window-height="480"
     id="namedview26"
     showgrid="false"
     inkscape:zoom="6.5555556"
     inkscape:cx="18"
     inkscape:cy="17"
     inkscape:window-x="0"
     inkscape:window-y="0"
     inkscape:window-maximized="0"
     inkscape:current-layer="svg2" />
  <path
     d="m 36,31.50025 c 0,0.828 -0.672,1.5 -1.5,1.5 l -33,0 c -0.828,0 -1.5,-0.672 -1.5,-1.5 0,-0.828 0.672,-1.5 1.5,-1.5 l 33,0 c 0.828,0 1.5,0.672 1.5,1.5 z"
     id="path4"
     inkscape:connector-curvature="0"
     style="fill:#5c913b" />
  <path
     d="m 12.344,12.70225 -2,0 c -0.276,0 -0.5,-0.224 -0.5,-0.5 l 0,-7 c 0,-0.276 0.224,-0.5 0.5,-0.5 l 2,0 c 0.276,0 0.5,0.224 0.5,0.5 l 0,7 c 0,0.276 -0.224,0.5 -0.5,0.5 z"
     id="path6"
     inkscape:connector-curvature="0"
     style="fill:#a0041e" />
  <path
     d="m 5.942,30.00025 c -0.137,-4.657 -0.506,-8 -0.942,-8 -0.435,0 -0.804,3.343 -0.941,8 l 1.883,0 z"
     id="path8"
     inkscape:connector-curvature="0"
     style="fill:#ffcc4d" />
  <path
     d="m 10,16.73125 c 0,5.575 -2.238,7.269 -5,7.269 -2.761,0 -5,-1.694 -5,-7.269 0,-5.577 4,-13.731 5,-13.731 1,0 5,8.154 5,13.731 z"
     id="path10"
     inkscape:connector-curvature="0"
     style="fill:#77b255" />
  <path
     d="m 8,14.00025 13,-13 13,13 0,16 -26,0 z"
     id="path12"
     inkscape:connector-curvature="0"
     style="fill:#ffe8b6" />
  <path
     d="m 21,14.00025 1,0 0,16 -1,0 z"
     id="path14"
     inkscape:connector-curvature="0"
     style="fill:#ffcc4d" />
  <path
     d="m 34,15.00025 c -0.256,0 -0.512,-0.098 -0.707,-0.293 L 21,2.41425 8.707,14.70725 c -0.391,0.391 -1.023,0.391 -1.414,0 -0.391,-0.391 -0.391,-1.023 0,-1.414 l 13,-13 c 0.391,-0.391 1.023,-0.391 1.414,0 l 13,13 c 0.391,0.391 0.391,1.023 0,1.414 -0.195,0.195 -0.451,0.293 -0.707,0.293 z"
     id="path16"
     inkscape:connector-curvature="0"
     style="fill:#66757f" />
  <path
     d="m 21,15.00025 c -0.256,0 -0.512,-0.098 -0.707,-0.293 -0.391,-0.391 -0.391,-1.023 0,-1.414 l 6.5,-6.5 c 0.391,-0.391 1.023,-0.391 1.414,0 0.391,0.391 0.391,1.023 0,1.414 l -6.5,6.5 c -0.195,0.195 -0.451,0.293 -0.707,0.293 z"
     id="path18"
     inkscape:connector-curvature="0"
     style="fill:#66757f" />
  <path
     d="m 13,24.00025 4,0 0,6 -4,0 z"
     id="path20"
     inkscape:connector-curvature="0"
     style="fill:#c1694f" />
  <path
     d="m 13,15.00025 4,0 0,4 -4,0 z m 12.5,0 4,0 0,4 -4,0 z m 0,9 4,0 0,4 -4,0 z"
     id="path22"
     inkscape:connector-curvature="0"
     style="fill:#55acee" />
  <path
     d="m 10.625,27.99125 c 0,1.613 -0.858,2.103 -1.917,2.103 -1.058,0 -1.917,-0.49 -1.917,-2.103 0,-1.613 1.533,-3.973 1.917,-3.973 0.384,0 1.917,2.359 1.917,3.973 z m 25.25,0 c 0,1.613 -0.858,2.103 -1.917,2.103 -1.058,0 -1.917,-0.49 -1.917,-2.103 0,-1.613 1.533,-3.973 1.917,-3.973 0.384,0 1.917,2.359 1.917,3.973 z"
     id="path24"
     inkscape:connector-curvature="0"
     style="fill:#77b255" />
</svg>
