<?xml version="1.0" encoding="UTF-8" standalone="no"?>
<svg
   xmlns:dc="http://purl.org/dc/elements/1.1/"
   xmlns:cc="http://creativecommons.org/ns#"
   xmlns:rdf="http://www.w3.org/1999/02/22-rdf-syntax-ns#"
   xmlns:svg="http://www.w3.org/2000/svg"
   xmlns="http://www.w3.org/2000/svg"
   xmlns:sodipodi="http://sodipodi.sourceforge.net/DTD/sodipodi-0.dtd"
   xmlns:inkscape="http://www.inkscape.org/namespaces/inkscape"
   viewBox="0 0 36 36"
   id="svg2"
   version="1.1"
   inkscape:version="0.91 r13725"
   sodipodi:docname="1f3eb.svg"
   width="36"
   height="36">
  <metadata
     id="metadata32">
    <rdf:RDF>
      <cc:Work
         rdf:about="">
        <dc:format>image/svg+xml</dc:format>
        <dc:type
           rdf:resource="http://purl.org/dc/dcmitype/StillImage" />
      </cc:Work>
    </rdf:RDF>
  </metadata>
  <defs
     id="defs30" />
  <sodipodi:namedview
     pagecolor="#ffffff"
     bordercolor="#666666"
     borderopacity="1"
     objecttolerance="10"
     gridtolerance="10"
     guidetolerance="10"
     inkscape:pageopacity="0"
     inkscape:pageshadow="2"
     inkscape:window-width="640"
     inkscape:window-height="480"
     id="namedview28"
     showgrid="false"
     inkscape:zoom="6.5555556"
     inkscape:cx="18"
     inkscape:cy="18"
     inkscape:window-x="0"
     inkscape:window-y="0"
     inkscape:window-maximized="0"
     inkscape:current-layer="svg2" />
  <path
     d="m 36,34 c 0,1.104 -0.896,2 -2,2 L 2,36 C 0.896,36 0,35.104 0,34 L 0,15 c 0,-1.104 0.896,-2 2,-2 l 32,0 c 1.104,0 2,0.896 2,2 l 0,19 z"
     id="path4"
     inkscape:connector-curvature="0"
     style="fill:#ffcc4d" />
  <path
     d="M 34,13 2,13 c -1.104,0 -2,0.896 -2,2 l 36,0 c 0,-1.104 -0.896,-2 -2,-2 z"
     id="path6"
     inkscape:connector-curvature="0"
     style="fill:#6d6e71" />
  <path
     d="m 2,24 32,0 0,4 -32,0 z m 0,-6 32,0 0,4 -32,0 z m 0,12 32,0 0,4 -32,0 z"
     id="path8"
     inkscape:connector-curvature="0"
     style="fill:#3b88c3" />
  <path
     d="m 28,17 2,0 0,18 -2,0 z"
     id="path10"
     inkscape:connector-curvature="0"
     style="fill:#ffcc4d" />
  <path
     d="M 22,0 6,0 C 4.896,0 4,0.896 4,2 L 4,36 24,36 24,2 C 24,0.896 23.104,0 22,0 Z"
     id="path12"
     inkscape:connector-curvature="0"
     style="fill:#ffe8b6" />
  <path
     d="M 22,0 6,0 C 4.896,0 4,0.896 4,2 L 24,2 C 24,0.896 23.104,0 22,0 Z"
     id="path14"
     inkscape:connector-curvature="0"
     style="fill:#808285" />
  <path
     d="m 6,18 16,0 0,4 -16,0 z m 0,6 16,0 0,4 -16,0 z m 0,6 16,0 0,4 -16,0 z"
     id="path16"
     inkscape:connector-curvature="0"
     style="fill:#55acee" />
  <path
     d="m 10,7 2,0 0,29 -2,0 z m 6,0 2,0 0,29 -2,0 z"
     id="path18"
     inkscape:connector-curvature="0"
     style="fill:#ffe8b6" />
  <path
     d="m 12,30 4,0 0,6 -4,0 z"
     id="path20"
     inkscape:connector-curvature="0"
     style="fill:#226699" />
  <circle
     cx="14"
     cy="9"
     r="6"
     id="circle22"
     style="fill:#a7a9ac" />
  <circle
     cx="14"
     cy="9"
     r="4"
     id="circle24"
     style="fill:#e6e7e8" />
  <path
     d="m 17,10 -3,0 C 13.448,10 13,9.552 13,9 l 0,-5 c 0,-0.552 0.448,-1 1,-1 0.552,0 1,0.448 1,1 l 0,4 2,0 c 0.552,0 1,0.448 1,1 0,0.552 -0.448,1 -1,1 z"
     id="path26"
     inkscape:connector-curvature="0"
     style="fill:#a0041e" />
</svg>
