<?xml version="1.0" encoding="UTF-8" standalone="no"?>
<svg
   xmlns:dc="http://purl.org/dc/elements/1.1/"
   xmlns:cc="http://creativecommons.org/ns#"
   xmlns:rdf="http://www.w3.org/1999/02/22-rdf-syntax-ns#"
   xmlns:svg="http://www.w3.org/2000/svg"
   xmlns="http://www.w3.org/2000/svg"
   xmlns:sodipodi="http://sodipodi.sourceforge.net/DTD/sodipodi-0.dtd"
   xmlns:inkscape="http://www.inkscape.org/namespaces/inkscape"
   viewBox="0 0 34 36"
   id="svg2"
   version="1.1"
   inkscape:version="0.91 r13725"
   sodipodi:docname="1f3ee.svg"
   width="34"
   height="36">
  <metadata
     id="metadata14">
    <rdf:RDF>
      <cc:Work
         rdf:about="">
        <dc:format>image/svg+xml</dc:format>
        <dc:type
           rdf:resource="http://purl.org/dc/dcmitype/StillImage" />
      </cc:Work>
    </rdf:RDF>
  </metadata>
  <defs
     id="defs12" />
  <sodipodi:namedview
     pagecolor="#ffffff"
     bordercolor="#666666"
     borderopacity="1"
     objecttolerance="10"
     gridtolerance="10"
     guidetolerance="10"
     inkscape:pageopacity="0"
     inkscape:pageshadow="2"
     inkscape:window-width="640"
     inkscape:window-height="480"
     id="namedview10"
     showgrid="false"
     inkscape:zoom="6.5555556"
     inkscape:cx="17"
     inkscape:cy="18"
     inkscape:window-x="0"
     inkscape:window-y="0"
     inkscape:window-maximized="0"
     inkscape:current-layer="svg2" />
  <path
     d="m 28,34 c 0,1.104 -0.896,2 -2,2 L 8,36 C 6.896,36 6,35.104 6,34 L 6,2 C 6,0.896 6.896,0 8,0 l 18,0 c 1.104,0 2,0.896 2,2 l 0,32 z"
     id="path4"
     inkscape:connector-curvature="0"
     style="fill:#292f33" />
  <path
     d="m 5.699,32 22.602,0 C 32.383,28.7 34,23.658 34,18 34,12.342 32.384,7.3 28.302,4 L 5.698,4 C 1.615,7.3 0,12.342 0,18 0,23.658 1.616,28.7 5.699,32 Z"
     id="path6"
     inkscape:connector-curvature="0"
     style="fill:#be1931" />
  <path
     d="m 0.301,22 c 0.108,0.682 0.245,1.35 0.415,2 l 32.568,0 c 0.17,-0.65 0.307,-1.318 0.415,-2 L 0.301,22 Z M 0.072,20 33.927,20 C 33.976,19.343 34,18.676 34,18 L 0,18 c 0,0.676 0.024,1.343 0.072,2 z m 31.605,8 c 0.363,-0.64 0.684,-1.306 0.956,-2 L 1.367,26 c 0.272,0.694 0.593,1.36 0.956,2 l 29.354,0 z M 1.366,10 c -0.254,0.646 -0.471,1.313 -0.651,2 l 32.569,0 c -0.18,-0.687 -0.397,-1.354 -0.651,-2 L 1.366,10 Z m -1.065,4 c -0.104,0.654 -0.179,1.321 -0.229,2 l 33.855,0 C 33.878,15.321 33.802,14.654 33.698,14 L 0.301,14 Z m 30.014,16 -26.63,0 c 0.591,0.721 1.26,1.391 2.014,2 l 22.602,0 c 0.754,-0.609 1.422,-1.279 2.014,-2 z M 3.685,6 C 3.17,6.627 2.721,7.298 2.322,8 L 31.678,8 C 31.28,7.298 30.829,6.627 30.316,6 L 3.685,6 Z"
     id="path8"
     inkscape:connector-curvature="0"
     style="fill:#dd2e44" />
</svg>
