<?xml version="1.0" encoding="UTF-8" standalone="no"?>
<svg
   xmlns:dc="http://purl.org/dc/elements/1.1/"
   xmlns:cc="http://creativecommons.org/ns#"
   xmlns:rdf="http://www.w3.org/1999/02/22-rdf-syntax-ns#"
   xmlns:svg="http://www.w3.org/2000/svg"
   xmlns="http://www.w3.org/2000/svg"
   xmlns:sodipodi="http://sodipodi.sourceforge.net/DTD/sodipodi-0.dtd"
   xmlns:inkscape="http://www.inkscape.org/namespaces/inkscape"
   viewBox="0 0 34 36"
   id="svg2"
   version="1.1"
   inkscape:version="0.91 r13725"
   sodipodi:docname="1f3ea.svg"
   width="34"
   height="36">
  <metadata
     id="metadata40">
    <rdf:RDF>
      <cc:Work
         rdf:about="">
        <dc:format>image/svg+xml</dc:format>
        <dc:type
           rdf:resource="http://purl.org/dc/dcmitype/StillImage" />
      </cc:Work>
    </rdf:RDF>
  </metadata>
  <defs
     id="defs38" />
  <sodipodi:namedview
     pagecolor="#ffffff"
     bordercolor="#666666"
     borderopacity="1"
     objecttolerance="10"
     gridtolerance="10"
     guidetolerance="10"
     inkscape:pageopacity="0"
     inkscape:pageshadow="2"
     inkscape:window-width="640"
     inkscape:window-height="480"
     id="namedview36"
     showgrid="false"
     inkscape:zoom="6.5555556"
     inkscape:cx="17"
     inkscape:cy="18"
     inkscape:window-x="0"
     inkscape:window-y="0"
     inkscape:window-maximized="0"
     inkscape:current-layer="svg2" />
  <path
     d="m 16,34 c 0,1.104 0.896,2 2,2 l 14,0 c 1.104,0 2,-0.896 2,-2 l 0,-16 c 0,-1.104 -0.896,-2 -2,-2 l -14,0 c -1.104,0 -2,0.896 -2,2 l 0,16 z"
     id="path4"
     inkscape:connector-curvature="0"
     style="fill:#aab8c2" />
  <path
     d="m 32,16 -10,0 0,2 12,0 c 0,-1.104 -0.896,-2 -2,-2 z"
     id="path6"
     inkscape:connector-curvature="0"
     style="fill:#292f33" />
  <path
     d="m 2,30 30,0 0,4 -30,0 z"
     id="path8"
     inkscape:connector-curvature="0"
     style="fill:#3b88c3" />
  <path
     d="m 2,16 c -1.104,0 -2,0.896 -2,2 l 0,16 c 0,1.104 0.896,2 2,2 l 20,0 0,-20 -20,0 z"
     id="path10"
     inkscape:connector-curvature="0"
     style="fill:#ccd6dd" />
  <path
     d="m 2,16 c -1.104,0 -2,0.896 -2,2 l 22,0 0,-2 -20,0 z"
     id="path12"
     inkscape:connector-curvature="0"
     style="fill:#66757f" />
  <path
     d="m 2,20 4,0 0,4 -4,0 z m 14,0 4,0 0,4 -4,0 z m -7,0 4,0 0,4 -4,0 z"
     id="path14"
     inkscape:connector-curvature="0"
     style="fill:#55acee" />
  <path
     d="m 28,20 4,0 0,4 -4,0 z m -6,0 4,0 0,4 -4,0 z"
     id="path16"
     inkscape:connector-curvature="0"
     style="fill:#3b88c3" />
  <path
     d="m 2,30 18,0 0,6 -18,0 z"
     id="path18"
     inkscape:connector-curvature="0"
     style="fill:#55acee" />
  <path
     d="m 6,30 10,0 0,6 -10,0 z"
     id="path20"
     inkscape:connector-curvature="0"
     style="fill:#3b88c3" />
  <path
     d="m 0,26 22,0 0,4 -22,0 z"
     id="path22"
     inkscape:connector-curvature="0"
     style="fill:#dd2e44" />
  <path
     d="m 6,27 10,0 0,2 -10,0 z"
     id="path24"
     inkscape:connector-curvature="0"
     style="fill:#f4abba" />
  <path
     d="m 8,27 6,0 0,2 -6,0 z"
     id="path26"
     inkscape:connector-curvature="0"
     style="fill:#ffffff" />
  <path
     d="m 22,26 12,0 0,4 -12,0 z"
     id="path28"
     inkscape:connector-curvature="0"
     style="fill:#a0041e" />
  <path
     d="m 4,14 2,0 0,2 -2,0 z m 12,0 2,0 0,2 -2,0 z"
     id="path30"
     inkscape:connector-curvature="0"
     style="fill:#292f33" />
  <path
     d="m 20,12 c 0,1.104 -0.896,2 -2,2 L 4,14 C 2.896,14 2,13.104 2,12 L 2,2 C 2,0.896 2.896,0 4,0 l 14,0 c 1.104,0 2,0.896 2,2 l 0,10 z"
     id="path32"
     inkscape:connector-curvature="0"
     style="fill:#dd2e44" />
  <path
     d="m 9.561,10.151 c 0.616,0 1.093,0.28 1.093,0.925 C 10.654,11.72 10.177,12 9.645,12 L 4.967,12 C 4.35,12 3.874,11.72 3.874,11.076 3.874,10.782 4.056,10.53 4.196,10.362 5.359,8.975 6.62,7.714 7.685,6.173 7.937,5.809 8.175,5.375 8.175,4.87 8.175,4.296 7.741,3.791 7.166,3.791 5.555,3.791 6.326,6.06 4.981,6.06 4.309,6.06 3.959,5.584 3.959,5.038 c 0,-1.765 1.569,-3.18 3.292,-3.18 1.723,0 3.109,1.135 3.109,2.914 0,1.947 -2.171,3.88 -3.362,5.379 l 2.563,0 z m 2.363,-0.35 c -0.687,0 -0.981,-0.462 -0.981,-0.826 0,-0.309 0.112,-0.477 0.196,-0.617 l 3.138,-5.687 c 0.308,-0.56 0.7,-0.813 1.429,-0.813 0.812,0 1.611,0.519 1.611,1.793 l 0,4.3 0.238,0 c 0.546,0 0.98,0.364 0.98,0.925 0,0.56 -0.434,0.924 -0.98,0.924 l -0.238,0 0,1.19 c 0,0.743 -0.295,1.093 -1.009,1.093 -0.714,0 -1.008,-0.35 -1.008,-1.093 l 0,-1.19 -3.376,0 z m 3.376,-5.757 -0.028,0 -1.891,3.908 1.919,0 0,-3.908 z"
     id="path34"
     inkscape:connector-curvature="0"
     style="fill:#ffffff" />
</svg>
