<?xml version="1.0" encoding="UTF-8" standalone="no"?>
<svg
   xmlns:dc="http://purl.org/dc/elements/1.1/"
   xmlns:cc="http://creativecommons.org/ns#"
   xmlns:rdf="http://www.w3.org/1999/02/22-rdf-syntax-ns#"
   xmlns:svg="http://www.w3.org/2000/svg"
   xmlns="http://www.w3.org/2000/svg"
   xmlns:sodipodi="http://sodipodi.sourceforge.net/DTD/sodipodi-0.dtd"
   xmlns:inkscape="http://www.inkscape.org/namespaces/inkscape"
   viewBox="0 0 36 36"
   id="svg2"
   version="1.1"
   inkscape:version="0.91 r13725"
   sodipodi:docname="1f3f5.svg"
   width="36"
   height="36">
  <metadata
     id="metadata20">
    <rdf:RDF>
      <cc:Work
         rdf:about="">
        <dc:format>image/svg+xml</dc:format>
        <dc:type
           rdf:resource="http://purl.org/dc/dcmitype/StillImage" />
      </cc:Work>
    </rdf:RDF>
  </metadata>
  <defs
     id="defs18" />
  <sodipodi:namedview
     pagecolor="#ffffff"
     bordercolor="#666666"
     borderopacity="1"
     objecttolerance="10"
     gridtolerance="10"
     guidetolerance="10"
     inkscape:pageopacity="0"
     inkscape:pageshadow="2"
     inkscape:window-width="640"
     inkscape:window-height="480"
     id="namedview16"
     showgrid="false"
     inkscape:zoom="6.5555556"
     inkscape:cx="18"
     inkscape:cy="18"
     inkscape:window-x="0"
     inkscape:window-y="0"
     inkscape:window-maximized="0"
     inkscape:current-layer="svg2" />
  <path
     d="m 30.119,16.486 c -3.347,3.346 -7.677,2.927 -10.604,0 -2.927,-2.93 -3.347,-7.257 0,-10.604 3.347,-3.347 9.847,-3.788 12.119,-1.516 2.272,2.273 1.831,8.773 -1.515,12.12 z M 16.485,30.119 c -3.347,3.346 -9.847,3.786 -12.12,1.515 -2.272,-2.272 -1.831,-8.772 1.516,-12.119 3.346,-3.346 7.675,-2.928 10.604,0 2.928,2.927 3.347,7.257 0,10.604 z"
     id="path4"
     inkscape:connector-curvature="0"
     style="fill:#553788" />
  <path
     d="m 19.515,30.119 c -3.346,-3.346 -2.927,-7.676 10e-4,-10.604 2.928,-2.928 7.257,-3.347 10.604,-0.001 3.347,3.348 3.787,9.847 1.516,12.119 -2.275,2.273 -8.774,1.833 -12.121,-1.514 z M 5.881,16.485 C 2.534,13.138 2.093,6.638 4.366,4.365 c 2.272,-2.272 8.773,-1.831 12.12,1.516 3.347,3.346 2.928,7.675 0,10.604 -2.929,2.928 -7.259,3.347 -10.605,0 z"
     id="path6"
     inkscape:connector-curvature="0"
     style="fill:#553788" />
  <path
     d="M 26.999,25 C 22.581,25 20,21.865 20,18 c 0.001,-3.866 2.581,-7 7,-7 4.418,0 9,3.999 9,7 0,3.001 -4.582,7 -9.001,7 z M 9,25 c -4.418,0 -9,-4.001 -9,-7 0,-2.999 4.582,-7 9,-7 4.418,0 7,3.134 7,7 0,3.865 -2.582,7 -7,7 z"
     id="path8"
     inkscape:connector-curvature="0"
     style="fill:#55acee" />
  <path
     d="m 11,27 c 0,-4.418 3.134,-6.999 7,-6.999 3.866,0 7,2.581 7,6.999 0,4.419 -4,9 -7,9 -3,0 -7,-4.581 -7,-9 z M 11,9 c 0,-4.418 4,-9 7,-9 3,0 7,4.582 7,9 0,4.418 -3.134,7 -7,7 -3.866,0 -7,-2.582 -7,-7 z"
     id="path10"
     inkscape:connector-curvature="0"
     style="fill:#55acee" />
  <path
     d="m 23.656,23.657 c -3.124,3.124 -8.19,3.124 -11.313,0 -3.125,-3.125 -3.125,-8.19 0,-11.314 3.125,-3.124 8.189,-3.124 11.313,0 3.124,3.124 3.124,8.189 0,11.314 z"
     id="path12"
     inkscape:connector-curvature="0"
     style="fill:#88c9f9" />
  <path
     d="m 21.656,21.657 c -2.02,2.02 -5.294,2.02 -7.313,0 -2.02,-2.021 -2.02,-5.295 0,-7.314 2.02,-2.02 5.294,-2.02 7.313,0 2.02,2.019 2.02,5.294 0,7.314 z"
     id="path14"
     inkscape:connector-curvature="0"
     style="fill:#bbddf5" />
</svg>
