<?xml version="1.0" encoding="UTF-8" standalone="no"?>
<svg
   xmlns:dc="http://purl.org/dc/elements/1.1/"
   xmlns:cc="http://creativecommons.org/ns#"
   xmlns:rdf="http://www.w3.org/1999/02/22-rdf-syntax-ns#"
   xmlns:svg="http://www.w3.org/2000/svg"
   xmlns="http://www.w3.org/2000/svg"
   xmlns:sodipodi="http://sodipodi.sourceforge.net/DTD/sodipodi-0.dtd"
   xmlns:inkscape="http://www.inkscape.org/namespaces/inkscape"
   viewBox="0 0 30 35"
   id="svg2"
   version="1.1"
   inkscape:version="0.91 r13725"
   sodipodi:docname="1f3f3.svg"
   width="30"
   height="35">
  <metadata
     id="metadata18">
    <rdf:RDF>
      <cc:Work
         rdf:about="">
        <dc:format>image/svg+xml</dc:format>
        <dc:type
           rdf:resource="http://purl.org/dc/dcmitype/StillImage" />
      </cc:Work>
    </rdf:RDF>
  </metadata>
  <defs
     id="defs16" />
  <sodipodi:namedview
     pagecolor="#ffffff"
     bordercolor="#666666"
     borderopacity="1"
     objecttolerance="10"
     gridtolerance="10"
     guidetolerance="10"
     inkscape:pageopacity="0"
     inkscape:pageshadow="2"
     inkscape:window-width="640"
     inkscape:window-height="480"
     id="namedview14"
     showgrid="false"
     inkscape:zoom="6.5555556"
     inkscape:cx="15"
     inkscape:cy="18"
     inkscape:window-x="0"
     inkscape:window-y="0"
     inkscape:window-maximized="0"
     inkscape:current-layer="svg2" />
  <path
     d="M 2,35 C 0.896,35 0,34.104 0,33 L 0,2 C 0,0.896 0.896,0 2,0 3.104,0 4,0.896 4,2 l 0,31 c 0,1.104 -0.896,2 -2,2 z"
     id="path4"
     inkscape:connector-curvature="0"
     style="fill:#8899a6" />
  <path
     d="M 2,0 C 0.895,0 0,0.895 0,2 l 0,31 c 0,0.276 0.224,0.5 0.5,0.5 C 0.776,33.5 1,33.276 1,33 L 1,3.414 C 1,2.633 1.633,2 2.414,2 L 4,2 C 4,0.895 3.105,0 2,0 Z"
     id="path6"
     inkscape:connector-curvature="0"
     style="fill:#aab8c2" />
  <path
     d="M 2,35 C 0.896,35 0,34.104 0,33 L 0,2 C 0,0.896 0.896,0 2,0 3.104,0 4,0.896 4,2 l 0,31 c 0,1.104 -0.896,2 -2,2 z"
     id="path8"
     inkscape:connector-curvature="0"
     style="fill:#8899a6" />
  <path
     d="M 2,0 C 0.895,0 0,0.895 0,2 l 0,31 c 0,0.276 0.224,0.5 0.5,0.5 C 0.776,33.5 1,33.276 1,33 L 1,3.414 C 1,2.633 1.633,2 2.414,2 L 4,2 C 4,0.895 3.105,0 2,0 Z"
     id="path10"
     inkscape:connector-curvature="0"
     style="fill:#aab8c2" />
  <path
     d="M 29.415,2.09 C 27.663,1.291 25.8,0.903 23.717,0.903 c -2.518,0 -5.02,0.57 -7.438,1.122 C 13.861,2.576 11.577,3.097 9.284,3.097 7.494,3.097 5.902,2.768 4.416,2.091 4.107,1.949 3.746,1.976 3.46,2.159 3.173,2.343 3,2.66 3,3 l 0,19 c 0,0.392 0.229,0.747 0.585,0.91 1.752,0.799 3.616,1.187 5.698,1.187 2.518,0 5.02,-0.57 7.438,-1.122 2.418,-0.551 4.702,-1.071 6.995,-1.071 1.79,0 3.383,0.329 4.868,1.007 0.311,0.14 0.67,0.115 0.956,-0.069 C 29.827,22.657 30,22.34 30,22 L 30,3 C 30,2.608 29.771,2.252 29.415,2.09 Z"
     id="path12"
     inkscape:connector-curvature="0"
     style="fill:#e1e8ed" />
</svg>
