<?xml version="1.0" encoding="UTF-8" standalone="no"?>
<svg
   xmlns:dc="http://purl.org/dc/elements/1.1/"
   xmlns:cc="http://creativecommons.org/ns#"
   xmlns:rdf="http://www.w3.org/1999/02/22-rdf-syntax-ns#"
   xmlns:svg="http://www.w3.org/2000/svg"
   xmlns="http://www.w3.org/2000/svg"
   xmlns:sodipodi="http://sodipodi.sourceforge.net/DTD/sodipodi-0.dtd"
   xmlns:inkscape="http://www.inkscape.org/namespaces/inkscape"
   viewBox="0 0 31.014629 35.69075"
   id="svg2"
   version="1.1"
   inkscape:version="0.91 r13725"
   sodipodi:docname="1f3f7.svg"
   width="31.014629"
   height="35.69075">
  <metadata
     id="metadata14">
    <rdf:RDF>
      <cc:Work
         rdf:about="">
        <dc:format>image/svg+xml</dc:format>
        <dc:type
           rdf:resource="http://purl.org/dc/dcmitype/StillImage" />
      </cc:Work>
    </rdf:RDF>
  </metadata>
  <defs
     id="defs12" />
  <sodipodi:namedview
     pagecolor="#ffffff"
     bordercolor="#666666"
     borderopacity="1"
     objecttolerance="10"
     gridtolerance="10"
     guidetolerance="10"
     inkscape:pageopacity="0"
     inkscape:pageshadow="2"
     inkscape:window-width="640"
     inkscape:window-height="480"
     id="namedview10"
     showgrid="false"
     inkscape:zoom="6.5555556"
     inkscape:cx="16"
     inkscape:cy="17.9995"
     inkscape:window-x="0"
     inkscape:window-y="0"
     inkscape:window-maximized="0"
     inkscape:current-layer="svg2" />
  <path
     d="M 30.017,19.87225 15.345,5.43725 c -0.658,-0.659 -1.522,-0.746 -2.385,-0.746 l -10.077,0 C 1.029,4.69125 0,5.72025 0,7.57425 l 0,10.082 c 0,0.861 0.089,1.723 0.746,2.38 l 14.554,14.672 c 1.311,1.31 3.378,1.31 4.688,0 l 10.059,-10.088 c 1.31,-1.312 1.28,-3.438 -0.03,-4.748 z m -23.596,-8.76 c -0.585,0.585 -1.533,0.585 -2.118,0 -0.585,-0.585 -0.586,-1.533 0,-2.118 0.585,-0.586 1.533,-0.585 2.118,0 0.585,0.586 0.586,1.533 0,2.118 z"
     id="path4"
     inkscape:connector-curvature="0"
     style="fill:#ffd983" />
  <path
     d="m 7.952,7.46325 c -1.43,-1.431 -3.749,-1.431 -5.179,0 -1.431,1.43 -1.431,3.749 0,5.18 1.43,1.43 3.749,1.43 5.18,0 1.43,-1.431 1.429,-3.749 -0.001,-5.18 z m -1.53,3.65 c -0.585,0.585 -1.534,0.585 -2.119,0 -0.585,-0.585 -0.586,-1.534 0,-2.119 0.585,-0.587 1.534,-0.585 2.119,0 0.585,0.585 0.586,1.533 0,2.119 z"
     id="path6"
     inkscape:connector-curvature="0"
     style="fill:#d99e82" />
  <path
     d="m 6.507,10.19225 c -0.391,0.391 -1.023,0.391 -1.415,0 -0.391,-0.391 -0.39,-1.023 0,-1.414 l 8.485,-8.485 c 0.391,-0.391 1.023,-0.391 1.415,0 0.391,0.391 0.39,1.023 0,1.414 l -8.485,8.485 z"
     id="path8"
     inkscape:connector-curvature="0"
     style="fill:#c1694f" />
</svg>
