<?xml version="1.0" encoding="UTF-8" standalone="no"?>
<svg
   xmlns:dc="http://purl.org/dc/elements/1.1/"
   xmlns:cc="http://creativecommons.org/ns#"
   xmlns:rdf="http://www.w3.org/1999/02/22-rdf-syntax-ns#"
   xmlns:svg="http://www.w3.org/2000/svg"
   xmlns="http://www.w3.org/2000/svg"
   xmlns:sodipodi="http://sodipodi.sourceforge.net/DTD/sodipodi-0.dtd"
   xmlns:inkscape="http://www.inkscape.org/namespaces/inkscape"
   viewBox="0 0 36 26"
   id="svg2"
   version="1.1"
   inkscape:version="0.91 r13725"
   sodipodi:docname="1f3f4-200d-2620-fe0f.svg"
   width="36"
   height="26">
  <metadata
     id="metadata20">
    <rdf:RDF>
      <cc:Work
         rdf:about="">
        <dc:format>image/svg+xml</dc:format>
        <dc:type
           rdf:resource="http://purl.org/dc/dcmitype/StillImage" />
      </cc:Work>
    </rdf:RDF>
  </metadata>
  <defs
     id="defs18" />
  <sodipodi:namedview
     pagecolor="#ffffff"
     bordercolor="#666666"
     borderopacity="1"
     objecttolerance="10"
     gridtolerance="10"
     guidetolerance="10"
     inkscape:pageopacity="0"
     inkscape:pageshadow="2"
     inkscape:window-width="640"
     inkscape:window-height="480"
     id="namedview16"
     showgrid="false"
     inkscape:zoom="6.5555556"
     inkscape:cx="18"
     inkscape:cy="13"
     inkscape:window-x="0"
     inkscape:window-y="0"
     inkscape:window-maximized="0"
     inkscape:current-layer="svg2" />
  <path
     d="M 32,0 4,0 C 1.791,0 0,1.791 0,4 l 0,18 c 0,2.209 1.791,4 4,4 l 28,0 c 2.209,0 4,-1.791 4,-4 L 36,4 C 36,1.791 34.209,0 32,0 Z"
     id="path4"
     inkscape:connector-curvature="0"
     style="fill:#31373d" />
  <circle
     cx="15.5"
     cy="7.5"
     r="1.5"
     id="circle6"
     style="fill:#31373d" />
  <circle
     cx="20.5"
     cy="7.5"
     r="1.5"
     id="circle8"
     style="fill:#31373d" />
  <ellipse
     cx="18"
     cy="10.5"
     rx="1"
     ry="0.5"
     id="ellipse10"
     style="fill:#292f33" />
  <path
     d="m 29.021,19.883 c -0.52,-0.189 -1.093,0.078 -1.282,0.598 L 20.923,18 27.739,15.52 c 0.189,0.52 0.762,0.786 1.281,0.598 0.52,-0.19 0.787,-0.762 0.598,-1.281 -0.188,-0.519 -0.762,-0.787 -1.281,-0.599 0.519,-0.189 0.787,-0.762 0.598,-1.281 -0.19,-0.52 -0.762,-0.787 -1.281,-0.598 -0.519,0.188 -0.787,0.763 -0.598,1.282 L 18,16.937 8.944,13.641 C 9.133,13.121 8.866,12.547 8.346,12.359 7.826,12.169 7.254,12.437 7.065,12.957 6.876,13.476 7.143,14.05 7.663,14.238 7.143,14.049 6.57,14.317 6.382,14.837 6.193,15.357 6.46,15.929 6.98,16.118 7.5,16.306 8.072,16.04 8.261,15.52 L 15.077,18 8.262,20.48 C 8.073,19.96 7.499,19.693 6.98,19.882 c -0.519,0.189 -0.786,0.762 -0.598,1.281 0.189,0.519 0.763,0.787 1.282,0.598 -0.52,0.19 -0.787,0.763 -0.598,1.282 0.188,0.52 0.763,0.786 1.281,0.598 0.519,-0.189 0.787,-0.763 0.598,-1.282 L 18,19.065 27.055,22.36 c -0.19,0.52 0.079,1.093 0.598,1.282 0.519,0.188 1.093,-0.078 1.281,-0.598 0.189,-0.519 -0.078,-1.093 -0.598,-1.282 0.52,0.19 1.093,-0.078 1.282,-0.598 0.189,-0.519 -0.079,-1.093 -0.597,-1.281 z"
     id="path12"
     inkscape:connector-curvature="0"
     style="fill:#e6e7e8" />
  <path
     d="m 18,2 c -4,0 -6,3.239 -6,6 0,1.394 0.827,2.399 2,3.054 L 14,13 c 0,0.553 0.448,1 1,1 0.552,0 1,-0.447 1,-1 l 0,-1.216 c 0.33,0.072 0.665,0.127 1,0.162 L 17,13 c 0,0.553 0.448,1 1,1 0.552,0 1,-0.447 1,-1 l 0,-1.054 c 0.335,-0.036 0.67,-0.09 1,-0.162 L 20,13 c 0,0.553 0.447,1 1,1 0.553,0 1,-0.447 1,-1 l 0,-1.946 C 23.173,10.4 24,9.395 24,8 24,5.239 22,2 18,2 Z M 15.5,9 C 14.671,9 14,9 14,7.5 14,6.671 14.671,6 15.5,6 17,6 17,6.671 17,7.5 17,8.329 16.329,9 15.5,9 Z m 2.5,2 c -0.552,0 -1,-0.224 -1,-0.5 0,-0.276 0.448,-0.5 1,-0.5 0.552,0 1,0.224 1,0.5 0,0.276 -0.448,0.5 -1,0.5 z M 20.5,9 C 19.672,9 19,8.329 19,7.5 19,6.671 19,6 20.5,6 21.328,6 22,6.671 22,7.5 22,9 21.328,9 20.5,9 Z"
     id="path14"
     inkscape:connector-curvature="0"
     style="fill:#e6e7e8" />
</svg>
