<?xml version="1.0" encoding="UTF-8" standalone="no"?>
<svg
   xmlns:dc="http://purl.org/dc/elements/1.1/"
   xmlns:cc="http://creativecommons.org/ns#"
   xmlns:rdf="http://www.w3.org/1999/02/22-rdf-syntax-ns#"
   xmlns:svg="http://www.w3.org/2000/svg"
   xmlns="http://www.w3.org/2000/svg"
   xmlns:sodipodi="http://sodipodi.sourceforge.net/DTD/sodipodi-0.dtd"
   xmlns:inkscape="http://www.inkscape.org/namespaces/inkscape"
   viewBox="0 0 36 26"
   id="svg2"
   version="1.1"
   inkscape:version="0.91 r13725"
   sodipodi:docname="1f3f4-e0067-e0062-e0077-e006c-e0073-e007f.svg"
   width="36"
   height="26">
  <metadata
     id="metadata18">
    <rdf:RDF>
      <cc:Work
         rdf:about="">
        <dc:format>image/svg+xml</dc:format>
        <dc:type
           rdf:resource="http://purl.org/dc/dcmitype/StillImage" />
      </cc:Work>
    </rdf:RDF>
  </metadata>
  <defs
     id="defs16" />
  <sodipodi:namedview
     pagecolor="#ffffff"
     bordercolor="#666666"
     borderopacity="1"
     objecttolerance="10"
     gridtolerance="10"
     guidetolerance="10"
     inkscape:pageopacity="0"
     inkscape:pageshadow="2"
     inkscape:window-width="640"
     inkscape:window-height="480"
     id="namedview14"
     showgrid="false"
     inkscape:zoom="6.5555556"
     inkscape:cx="18"
     inkscape:cy="13"
     inkscape:window-x="0"
     inkscape:window-y="0"
     inkscape:window-maximized="0"
     inkscape:current-layer="svg2" />
  <path
     d="m 36,22 c 0,2.209 -1.791,4 -4,4 L 4,26 C 1.791,26 0,24.209 0,22 L 0,4 C 0,1.791 1.791,0 4,0 l 28,0 c 2.209,0 4,1.791 4,4 l 0,18 z"
     id="path4"
     inkscape:connector-curvature="0"
     style="fill:#eeeeee" />
  <path
     d="m 0,22 c 0,2.209 1.791,4 4,4 l 28,0 c 2.209,0 4,-1.791 4,-4 l 0,-9 -36,0 0,9 z"
     id="path6"
     inkscape:connector-curvature="0"
     style="fill:#3e9a00" />
  <path
     d="M 31.719,7.812 C 31.75,6.687 31.8,5.819 31.8,5.725 31.8,5.631 30.844,6.812 30.219,7.468 29.594,8.124 28.428,9.262 28.428,9.262 29.141,9.427 30,9.219 30,9.219 l -0.406,0.875 c 0,0 -0.531,-0.375 -1.469,-0.375 -0.938,0 -1.594,0.594 -1.781,1.25 -0.188,0.656 0.688,1.469 1.344,1.5 0.656,0.031 1.375,-0.219 1.375,-0.219 -0.938,1.438 -2.906,0.438 -3.906,0.375 -1,-0.063 -2.086,-0.005 -2.086,-0.005 0.875,-1.125 2.242,-0.933 2.367,-0.933 0.125,0 -0.822,-1.436 -0.061,-2.409 0.659,-0.842 2.092,-1.466 2.092,-1.466 0,0 -1,-0.312 -0.938,-0.938 0.062,-0.626 2.241,-2.412 2.241,-2.412 0,0 -5.212,2.494 -5.443,1.6 -0.282,-1.09 0.329,-2.055 0.329,-2.055 -1.938,0.812 -5.846,3.68 -6.565,4.367 -0.719,0.688 -0.562,1.812 -0.562,2.344 0,0.531 -0.438,0.906 -0.844,1.125 C 15.281,12.062 14,12.188 14,12.188 c 0,0 -0.223,-0.338 -0.067,-0.682 0.156,-0.344 0.723,-0.1 0.723,-0.1 -0.062,-0.625 -0.525,-0.821 -0.781,-0.844 -0.153,-0.014 -0.168,-0.625 0.082,-0.657 0.25,-0.031 0.949,0.375 0.949,0.375 0,0 0.047,-0.736 -0.377,-0.869 -0.283,-0.089 -0.65,-0.44 -0.494,-0.722 0.156,-0.281 1.043,0.094 1.043,0.094 C 15.18,7.905 14.168,7.872 14.168,7.622 14.168,7.372 15,7.498 15,7.498 14.906,6.84 14.131,6.691 14.131,6.691 c 0,0 -0.034,-0.049 -0.159,-0.205 C 13.847,6.33 13.801,5.693 14.082,5.6 14.363,5.506 14.921,5.074 14.921,5.074 L 14.56,5.042 14.624,4.093 C 14.468,4.281 13.686,4.624 13.249,4.655 12.812,4.686 12.521,5.073 12.521,5.073 12.083,5.167 10.468,4.905 9.874,5.061 c -0.594,0.156 -0.53,0.6 -0.53,0.6 0,0 -0.72,0.025 -1.595,0.15 C 6.874,5.936 6.246,6.66 6.324,6.712 6.442,6.79 7.189,6.634 7.752,6.603 8.187,6.579 8.563,6.858 8.585,7.035 8.572,7.19 8.622,7.191 8.654,7.246 8.685,7.301 8.889,7.254 8.889,7.254 L 9.062,7.419 9.14,7.184 9.352,7.325 9.322,7.049 9.58,7.224 9.549,6.926 9.831,7.13 9.854,6.828 C 10.823,6.812 10.906,7.22 10.906,7.22 9.437,7.626 6.156,7.47 6.156,7.47 L 6.866,7.138 C 5.991,7.169 4.281,6.157 4.281,6.157 c 0,0 0.469,1.125 0.875,1.594 0.406,0.469 1.281,0.844 1.281,0.844 L 6.187,8.033 c 0,0 1.75,0.156 2.25,0.156 0.073,0 0.167,-0.002 0.271,-0.006 -0.011,0.382 0.339,0.865 0.339,0.865 -0.203,0.328 0.109,0.703 0.109,0.703 0,0 0.094,-0.141 0.146,-0.312 0.053,-0.172 0.239,-0.63 0.239,-0.63 l 0.287,0.395 c 0.117,-0.561 0.561,-0.88 1.014,-1.002 0.083,0.195 0.19,0.424 0.19,0.424 -0.657,0.241 -0.453,0.984 -0.453,0.984 -0.516,0.297 -0.438,0.906 -0.438,0.906 0,0 -0.25,0.094 -0.422,0.438 -0.172,0.344 0,0.562 0,0.562 0,0 -0.312,0.172 -0.416,0.516 -0.104,0.344 0,0.766 0,0.766 0,0 -0.365,0.031 -0.318,0.734 0.047,0.703 0.438,0.922 0.438,0.922 -0.391,0.047 -0.391,0.469 -0.391,0.469 0,0 -0.062,-0.078 -0.188,-0.031 -0.125,0.047 -0.197,0.137 -0.197,0.137 0,0 -0.15,-0.173 -0.275,-0.251 -0.125,-0.078 -0.404,0.036 -0.404,0.036 0,0 -0.109,-0.314 -0.343,-0.423 C 7.391,14.282 7.219,14.297 7.219,14.297 7.297,14.156 7.218,13.92 7.047,13.766 6.909,13.641 6.641,13.6 6.641,13.6 c 0,0 0.038,-0.48 -0.009,-0.855 C 6.585,12.37 6.329,12.078 6.235,11.875 6.141,11.672 6.344,11.5 6.563,11.344 6.751,11.203 6.875,11.191 6.938,10.957 7,10.722 7,10.5 7,10.5 c 0,0 -0.031,-0.109 0.016,-0.422 0.047,-0.312 -0.312,-0.5 -0.312,-0.5 0,0 0.078,0.266 0,0.469 -0.078,0.203 -0.25,0.328 -0.25,0.328 -0.125,-0.062 -0.188,0.141 -0.188,0.141 L 6.344,10.188 C 6.438,9.813 6.266,9.829 6.032,9.282 5.798,8.735 5.079,8.923 5.079,8.923 5.517,9.032 5.72,9.611 5.532,9.798 5.344,9.985 5.313,10.517 5.313,10.517 5.016,10.064 4.829,10.064 4.829,10.064 c 0,0 -0.188,-0.203 -0.469,-0.359 -0.281,-0.156 -0.484,0 -0.484,0 0.406,0.109 0.406,0.562 0.406,0.562 -0.25,0.172 0.094,0.516 0.094,0.516 0,0 0.016,0.375 0.125,0.531 0.109,0.156 0.484,0.328 0.484,0.328 0,0 -0.125,1.531 -0.156,1.656 -0.031,0.125 -0.173,0.218 -0.282,0.302 -0.109,0.084 -0.188,0.4 -0.391,0.572 -0.203,0.172 0.031,0.297 0.031,0.297 0,0 0,0.281 -0.203,0.391 -0.203,0.109 -0.484,0.156 -0.484,0.156 0,0 0.281,0.172 0.578,0.109 0.297,-0.062 0.484,-0.281 0.484,-0.281 0.219,-0.016 0.344,-0.297 0.344,-0.484 0,-0.187 0.125,-0.297 0.25,-0.484 0.125,-0.187 0.172,-0.406 0.172,-0.406 -0.016,0.624 0.969,2.03 1.344,2.28 0.375,0.25 0.719,0.656 1.141,1.312 0.422,0.656 0.578,1.828 0.578,1.828 0.719,-0.531 0.641,-1.359 0.641,-1.359 0,0 0.453,-0.078 0.859,-0.125 0.406,-0.047 0.891,0 0.891,0 -0.312,0.438 0.016,0.547 0.016,0.547 0,0 -0.344,0.031 -0.469,0.219 -0.125,0.188 0.078,0.562 0.078,0.562 -0.688,0.234 -0.488,0.875 -0.488,0.875 0,0 -0.436,0.85 -1.233,0.944 C 7.889,20.647 7.579,20.187 7.298,20.14 7.017,20.093 6.97,20.187 6.97,20.187 6.798,20.078 6.829,19.906 6.439,19.906 c -0.391,0 -0.422,0.562 -0.422,0.562 0,0 0.203,-0.219 0.391,-0.203 0.188,0.016 0.281,0.188 0.281,0.188 -0.125,0.109 0.016,0.266 0.016,0.266 l -0.156,0.234 c 0,0 -0.198,-0.106 -0.641,0 -0.369,0.088 -0.408,0.485 -0.408,0.485 0,0 0.144,-0.081 0.363,-0.128 0.219,-0.047 0.575,0.034 0.575,0.034 l 0.25,0.156 -0.056,0.218 c -0.609,0 -0.6,0.782 -0.6,0.782 0,0 0.152,-0.226 0.324,-0.335 0.172,-0.109 0.488,-0.078 0.488,-0.078 0.344,0.384 0.997,0.139 1.356,-0.142 0.359,-0.281 0.581,-0.195 0.769,-0.133 0.188,0.062 0.487,0.014 0.659,-0.142 0.172,-0.156 0.435,-0.218 0.654,-0.03 0.219,0.188 0.453,0.375 0.875,0.438 0.422,0.062 0.438,-0.219 0.656,-0.25 0.219,-0.031 0.5,0.25 0.5,0.25 0.109,-0.672 -0.672,-0.688 -0.672,-0.688 0.016,-0.109 -0.242,-0.23 -0.554,-0.183 -0.312,0.047 -0.618,-0.164 -0.618,-0.164 0.141,-0.688 0.657,-1.45 1.063,-1.747 0.406,-0.297 0.859,-0.891 1.094,-1.203 0.053,-0.071 0.11,-0.133 0.167,-0.19 0.03,0.218 0.062,0.409 0.068,0.502 0.016,0.25 0.516,1.047 0.516,1.047 0,0 0.125,-0.375 0.234,-0.609 0.109,-0.234 0.234,-0.625 0.234,-0.625 0.266,-0.078 0.656,-0.422 0.656,-0.422 0,0 0.359,0.109 0.781,-0.016 0.422,-0.125 0.891,-0.594 0.891,-0.594 0.281,0.141 0.734,-0.047 0.734,-0.047 0,0 -0.172,0.328 0.047,0.703 0.219,0.375 0.797,0.609 0.797,0.609 0,0 0.062,0.359 0.484,0.484 0.422,0.125 0.812,0.047 0.812,0.047 -0.016,0.281 0.375,0.359 0.375,0.359 -0.422,0.094 -0.344,0.531 -0.344,0.531 -0.484,-0.062 -0.578,0.406 -0.578,0.406 -0.297,-0.047 -0.641,0.031 -0.844,0.078 -0.203,0.047 -0.97,-0.124 -1.095,-0.202 -0.125,-0.078 -0.495,-0.573 -0.745,-0.651 -0.25,-0.078 -0.269,0.119 -0.269,0.119 0,0 -0.219,-0.125 -0.562,-0.062 -0.344,0.062 -0.375,0.484 -0.375,0.484 0,0 0.203,-0.156 0.391,-0.188 0.188,-0.031 0.312,0.172 0.312,0.172 -0.016,0.109 0.062,0.234 0.219,0.281 0.156,0.047 0.516,0.047 0.703,0.203 0.188,0.156 0.297,0.359 0.297,0.359 0,0 -0.328,-0.016 -0.547,-0.016 -0.219,0 -0.5,-0.203 -0.688,-0.25 -0.188,-0.047 -0.422,0.109 -0.422,0.109 0,0 -0.25,-0.125 -0.562,0.094 -0.312,0.219 -0.281,0.547 -0.281,0.547 0,0 0.172,-0.203 0.312,-0.266 0.141,-0.062 0.297,0.016 0.297,0.016 0,0 -0.016,0.172 0.108,0.203 0.124,0.031 0.407,0.266 0.407,0.266 -0.688,0.156 -0.297,0.672 -0.297,0.672 0,0 0.141,-0.203 0.328,-0.281 0.188,-0.078 0.344,0.016 0.344,0.016 0.062,0.156 0.293,0.039 0.496,-0.102 0.203,-0.141 0.723,-0.253 1.161,-0.29 0.364,-0.031 0.609,0.048 0.734,0.064 0.125,0.016 0.405,-0.119 0.639,-0.103 0.234,0.016 0.66,0.44 1.067,0.518 0.406,0.078 0.341,-0.149 0.591,-0.149 0.25,0 0.594,0.328 0.594,0.328 0,0 -0.094,-0.375 -0.234,-0.547 -0.141,-0.172 -0.589,-0.209 -0.589,-0.209 -0.188,-0.297 -0.457,-0.201 -0.674,-0.18 -0.171,0.016 -0.338,-0.09 -0.338,-0.09 0,0 0.774,-0.177 1.828,-0.895 1.055,-0.719 1.351,-1.531 1.351,-1.531 0.266,0.219 1.212,0.466 1.212,0.466 0.047,-0.672 -0.458,-1.16 -1.02,-1.106 -0.249,0.024 -0.59,-0.275 -0.965,-0.337 -0.375,-0.062 -0.525,-0.351 -0.572,-0.648 -0.047,-0.297 0.125,-0.609 0.375,-0.766 0.25,-0.156 0.453,-0.469 0.453,-0.469 0.203,0.312 0.647,0.319 0.647,0.319 0.203,0.516 1.144,0.512 1.144,0.512 0.312,0.5 1.323,0.16 1.323,0.16 0.359,0.438 1.105,0.15 1.105,0.15 0.125,0.281 0.703,0.156 0.703,0.156 0,0.203 0.391,0.453 0.391,0.453 -0.096,0.417 0.172,0.953 0.172,0.953 -0.203,0.25 -0.078,0.688 -0.078,0.688 0,0 -0.281,0.109 -0.328,0.315 -0.047,0.206 0.109,0.435 0.109,0.435 0,0 -0.065,0.182 -0.534,0.479 -0.469,0.297 -0.817,-0.016 -1.145,-0.157 C 24.821,20.257 24.406,19.717 24.203,19.654 24,19.594 24,19.781 24,19.781 c 0,0 -0.145,-0.064 -0.373,-0.005 -0.321,0.083 -0.455,0.49 -0.455,0.49 0,0 0.182,-0.109 0.401,-0.14 0.219,-0.031 0.318,0.093 0.318,0.093 0,0 -0.094,0.203 0.094,0.219 0.188,0.016 0.422,0.172 0.422,0.172 0,0 -0.344,-0.016 -0.594,0 -0.136,0.009 -0.195,0.111 -0.223,0.206 -0.048,0.013 -0.081,0.01 -0.136,0.029 -0.719,0.25 -0.578,0.719 -0.578,0.719 0.344,-0.469 0.719,-0.281 0.719,-0.281 0.004,0.057 0.3,0.154 0.606,-0.003 0.159,-0.082 0.623,-0.054 0.776,0.063 0.038,0.028 -0.156,0.104 -0.367,0.128 -0.329,0.037 -0.359,0.297 -0.359,0.297 -0.688,0.188 -0.656,0.734 -0.656,0.734 0,0 0.281,-0.125 0.531,-0.24 0.25,-0.115 0.554,0.076 0.773,-0.143 0.219,-0.219 0.486,-0.376 0.808,-0.416 0.354,-0.043 0.45,0.189 0.825,0.204 0.156,0.006 0.384,-0.111 0.728,-0.236 0.344,-0.125 0.679,0.017 0.96,0.173 0.281,0.156 0.375,0.188 0.688,0.094 0.312,-0.094 0.688,0.219 0.719,0.312 0.031,0.094 -0.066,-0.373 -0.316,-0.591 -0.25,-0.219 -0.711,-0.395 -1.028,-0.471 -0.182,-0.044 -0.332,-0.682 -0.175,-0.788 0.114,-0.076 0.269,-1.275 0.363,-2.087 0.094,-0.812 -0.35,-1.504 -0.35,-1.504 0,0 0.287,0.129 0.506,0.316 0.219,0.188 0.684,0.397 0.903,0.304 0.219,-0.094 -0.325,-0.663 -1.013,-1.069 -0.688,-0.406 -2.297,-1.297 -2.297,-1.297 3.094,-0.156 4.108,-1.741 4.358,-2.678 0.25,-0.937 -0.17,-1.572 -0.17,-1.572 l 0.411,-1.275 c 0.281,0.5 1.371,0.775 1.371,0.775 0,0 -0.502,-1.375 -0.471,-2.501 z"
     id="path8"
     inkscape:connector-curvature="0"
     style="fill:#dd2e44" />
  <path
     d="m 10.047,5.812 c 0,0 0.247,-0.047 0.482,0 0.235,0.047 0.459,0.118 0.459,0.118 0,0 -0.153,0.412 -0.541,0.365 -0.388,-0.048 -0.4,-0.483 -0.4,-0.483 z"
     id="path10"
     inkscape:connector-curvature="0"
     style="fill:#ffffff" />
  <path
     d="M 10.529,5.812 C 10.432,5.793 10.337,5.791 10.254,5.793 c 0,0.007 -0.008,0.011 -0.008,0.019 0,0.162 0.132,0.294 0.294,0.294 0.137,0 0.234,-0.102 0.267,-0.228 C 10.728,5.856 10.631,5.832 10.529,5.812 Z"
     id="path12"
     inkscape:connector-curvature="0" />
</svg>
