<?xml version="1.0" encoding="UTF-8" standalone="no"?>
<svg
   xmlns:dc="http://purl.org/dc/elements/1.1/"
   xmlns:cc="http://creativecommons.org/ns#"
   xmlns:rdf="http://www.w3.org/1999/02/22-rdf-syntax-ns#"
   xmlns:svg="http://www.w3.org/2000/svg"
   xmlns="http://www.w3.org/2000/svg"
   xmlns:sodipodi="http://sodipodi.sourceforge.net/DTD/sodipodi-0.dtd"
   xmlns:inkscape="http://www.inkscape.org/namespaces/inkscape"
   viewBox="0 0 35.520485 30.794153"
   id="svg2"
   version="1.1"
   inkscape:version="0.91 r13725"
   sodipodi:docname="1f403.svg"
   width="35.520485"
   height="30.794153">
  <metadata
     id="metadata14">
    <rdf:RDF>
      <cc:Work
         rdf:about="">
        <dc:format>image/svg+xml</dc:format>
        <dc:type
           rdf:resource="http://purl.org/dc/dcmitype/StillImage" />
      </cc:Work>
    </rdf:RDF>
  </metadata>
  <defs
     id="defs12" />
  <sodipodi:namedview
     pagecolor="#ffffff"
     bordercolor="#666666"
     borderopacity="1"
     objecttolerance="10"
     gridtolerance="10"
     guidetolerance="10"
     inkscape:pageopacity="0"
     inkscape:pageshadow="2"
     inkscape:window-width="640"
     inkscape:window-height="480"
     id="namedview10"
     showgrid="false"
     inkscape:zoom="6.5555556"
     inkscape:cx="17.520483"
     inkscape:cy="18"
     inkscape:window-x="0"
     inkscape:window-y="0"
     inkscape:window-maximized="0"
     inkscape:current-layer="svg2" />
  <path
     d="m 33.432483,9.1641538 c -0.324,-1.768 -1.936,-3.37 -3.912,-3.37 l -19,0 c -0.239,0 -0.5209997,0.135 -0.8299997,0.365 -0.506,-0.226 -1.041,-0.365 -1.605,-0.365 -1,0 -4.731,0.375 -5.565,2 l -2.309,4.3050002 c -0.675,1.965 0.309,4.782 2.336,4.782 0.57,0 1.536,-0.007 2.665,-0.017 1.65,0.286 3.603,1.504 5.4359997,2.848 2.12,4.407 2.92,11.082 3.872,11.082 0.964,0 2.529,-4.409 2.913,-7 l 9.124,0 c 0.147,2.479 0.771,7 1.964,7 1.016,0 3.24,-4.883 4.347,-12.238 0.315,-1.625 0.532,-3.697 0.615,-6.319 0.022,0.17 0.037,0.352 0.037,0.557 l 0,12 c 0,0.553 0.447,1 1,1 0.553,0 1,-0.447 1,-1 l 0,-12 c 0,-1.807 -0.749,-3.0530002 -2.088,-3.6300002 z"
     id="path4"
     inkscape:connector-curvature="0"
     style="fill:#31373d" />
  <circle
     cx="5.5204835"
     cy="10.794154"
     r="1"
     id="circle6"
     style="fill:#ffffff" />
  <path
     d="m 9.5204833,9.7941538 c 2.9999997,0 6.7079997,-1.625 6.7079997,-5.625 0,-2 -1.552,-4.10100003 -4.458,-4.16700003 -4.1219997,-0.092 -5.8749997,2.79200003 -5.2499997,3.16700003 0.528,0.317 2,-1.875 4.4999997,-1.375 1.861,0.372 2.054,1.567 1.667,2.333 -0.451,0.893 -2.167,1.667 -4.1669997,1.667 -2,0 -1,4 1,4 z"
     id="path8"
     inkscape:connector-curvature="0"
     style="fill:#99aab5" />
</svg>
