<?xml version="1.0" encoding="UTF-8" standalone="no"?>
<svg
   xmlns:dc="http://purl.org/dc/elements/1.1/"
   xmlns:cc="http://creativecommons.org/ns#"
   xmlns:rdf="http://www.w3.org/1999/02/22-rdf-syntax-ns#"
   xmlns:svg="http://www.w3.org/2000/svg"
   xmlns="http://www.w3.org/2000/svg"
   xmlns:sodipodi="http://sodipodi.sourceforge.net/DTD/sodipodi-0.dtd"
   xmlns:inkscape="http://www.inkscape.org/namespaces/inkscape"
   viewBox="0 0 35 36.000534"
   id="svg2"
   version="1.1"
   inkscape:version="0.91 r13725"
   sodipodi:docname="1f409.svg"
   width="35"
   height="36.000534">
  <metadata
     id="metadata26">
    <rdf:RDF>
      <cc:Work
         rdf:about="">
        <dc:format>image/svg+xml</dc:format>
        <dc:type
           rdf:resource="http://purl.org/dc/dcmitype/StillImage" />
      </cc:Work>
    </rdf:RDF>
  </metadata>
  <defs
     id="defs24" />
  <sodipodi:namedview
     pagecolor="#ffffff"
     bordercolor="#666666"
     borderopacity="1"
     objecttolerance="10"
     gridtolerance="10"
     guidetolerance="10"
     inkscape:pageopacity="0"
     inkscape:pageshadow="2"
     inkscape:window-width="640"
     inkscape:window-height="480"
     id="namedview22"
     showgrid="false"
     inkscape:zoom="6.5555556"
     inkscape:cx="18"
     inkscape:cy="18"
     inkscape:window-x="0"
     inkscape:window-y="0"
     inkscape:window-maximized="0"
     inkscape:current-layer="svg2" />
  <path
     d="m 12.434,29.833534 c 0.626,-6.708 -4.417,-7.542 -6.417,-6.083 -1.097,0.8 -1.353,2.323 -0.479,1.521 1.542,-1.416 2.083,-0.375 0.917,0.375 -1.166,0.75 -1.375,2.145 -0.083,1.188 1.292,-0.958 1.646,-0.334 0.646,0.895 -0.605,0.744 0.042,1.438 1.167,-0.062 0.938,-1.251 3.2,-1.294 2.662,2.99 -0.222,1.756 1.453,0.608 1.587,-0.824 z M 20.375,8.8115339 c -0.583,-3.5 -1.125,-5.248 -4.625,-5.832 -3.5,-0.584 -6.417,1.75 -6.417,1.75 0,0 0.583,-3.5 2.333,-4.66699995 0.686,-0.458 1.167,1.74999995 1.75,1.74999995 0.583,0 1.167,-1.74999995 2.917,-1.74999995 0.583,0 0.583,1.74999995 1.167,1.74999995 0.583,0 2.243,-0.577 2.333,0 0.126,0.812 -0.167,1.729 0.292,2.104 0.459,0.375 1.553,-0.148 1.901,0.489 0.349,0.636 -0.61,1.553 -0.526,1.97 0.084,0.417 0.719,0.583 0.526,1.375 -0.193,0.792 -0.65,0.833 -0.692,1.417 -0.042,0.584 0.885,1.0810001 0.692,1.6860001 -0.192,0.606 -0.651,0.688 -0.859,1.459 -0.208,0.771 0.541,0.649 0.333,1.439 -0.208,0.79 -0.958,0.991 -1.208,1.766 -0.25,0.774 0.666,0.941 0.208,1.691 -0.458,0.75 -1.291,0.875 -1.333,1.333 -0.042,0.458 0.209,0.818 0.042,1.555 -0.167,0.736 -1.126,0.362 -1.209,0.945 -0.083,0.583 0.209,0.875 0.209,1.583 0,0.708 -0.709,0.834 -0.625,1.542 0.084,0.708 0.75,0.167 1.167,1 0.417,0.833 -0.249,1.583 0.209,2.083 0.458,0.5 1.083,-0.667 1.708,-0.25 0.625,0.417 0.677,1.25 1.359,1.375 0.682,0.125 0.891,-1.292 1.391,-1.25 0.5,0.042 1.625,0.709 2.208,0.417 0.583,-0.292 0.541,-1.459 1,-1.959 0.459,-0.5 1.042,-0.041 1.458,-0.583 0.416,-0.542 -0.145,-1.175 -0.062,-1.967 0.083,-0.792 0.854,-1.241 0.812,-1.866 -0.042,-0.625 -0.667,-0.625 -0.917,-1.292 -0.25,-0.667 0.458,-1.25 0.208,-1.875 -0.25,-0.625 -1.332,-0.833 -1.291,-1.458 0.041,-0.625 0.459,-1.333 0.25,-2.042 -0.209,-0.709 -1.084,-1.166 -1.042,-1.707 0.042,-0.541 0.499,-1.25 0.583,-1.646 0.084,-0.396 -0.749,-0.812 -0.666,-1.4790001 0.083,-0.667 0.624,-0.621 0.832,-1.223 0.208,-0.602 -0.749,-0.901 -0.249,-1.672 0.5,-0.771 0.751,-0.27 1.167,-0.688 0.416,-0.417 -0.001,-1.334 0.416,-1.542 0.417,-0.208 1.25,-0.042 1.667,-0.333 0.417,-0.291 0.417,-0.708 0.875,-0.875 0.458,-0.167 1.042,0.542 1.417,0.542 0.375,0 1.041,-0.708 1.541,-0.542 0.5,0.167 1.584,1.333 0.917,1.688 -0.667,0.355 -5.751,0.605 -5.792,2.938 -0.041,2.3330001 2.793,12.9170001 1.959,15.5830001 -0.834,2.666 -4.291,8.334 -8.25,7.25 -3.959,-1.084 -8.667,-3.501 -7.542,-7.209 1.125,-3.709 4.749,-11.296 5.458,-14.7730001 z"
     id="path4"
     inkscape:connector-curvature="0"
     style="fill:#3e721d" />
  <path
     d="m 21,7.8975339 c 0,3.9780001 -2.382,8.1440001 -5.833,7.5660001 -5.323,-0.89 -5.606,-2.587 -6.417,-1.546 -2.917,3.743 -4.644,-0.485 -5.307,-1.186 C 3.276,12.555534 0,11.590534 0,9.7445339 c 0,-1.197 1.75,-2.418 2.917,-1.231 1.722,-0.043 8.167,-6.156 12.25,-6.156 4.083,-10e-4 5.833,3.078 5.833,5.54 z"
     id="path6"
     inkscape:connector-curvature="0"
     style="fill:#77b255" />
  <path
     d="m 14.583,7.0625339 c 0,0.644 -0.523,1.167 -1.167,1.167 -0.644,0 -1.167,-0.523 -1.167,-1.167 0,-0.644 0.523,-1.167 1.167,-1.167 0.645,10e-4 1.167,0.523 1.167,1.167 z"
     id="path8"
     inkscape:connector-curvature="0"
     style="fill:#292f33" />
  <path
     d="m 2.917,10.271534 c 0,0.483 -0.392,0.292 -0.875,0.292 -0.483,0 -0.875,0.191 -0.875,-0.292 0,-0.4830001 0.392,-0.8750001 0.875,-0.8750001 0.483,0 0.875,0.392 0.875,0.8750001 z"
     id="path10"
     inkscape:connector-curvature="0"
     style="fill:#3e721d" />
  <path
     d="m 11.083,11.144534 c 0,0.645 -0.392,0.583 -0.875,0.583 -0.483,0 -0.875,0.061 -0.875,-0.583 0,-0.644 0.392,-2.3330001 0.875,-2.3330001 0.483,0 0.875,1.6890001 0.875,2.3330001 z m -2.333,0.583 c 0,0.645 -0.392,0.583 -0.875,0.583 -0.483,10e-4 -0.875,0.062 -0.875,-0.583 0,-0.644 0.392,-2.3330001 0.875,-2.3330001 0.483,0 0.875,1.6890001 0.875,2.3330001 z"
     id="path12"
     inkscape:connector-curvature="0"
     style="fill:#ffffff" />
  <path
     d="m 11.001,11.152534 c -3.095,0.442 -6.215,1.224 -7.558,1.579 0.167,0.177 0.403,0.579 0.709,1.021 1.472,-0.38 4.253,-1.051 7.015,-1.444 0.319,-0.046 0.54,-0.342 0.495,-0.661 -0.047,-0.32 -0.344,-0.542 -0.661,-0.495 z"
     id="path14"
     inkscape:connector-curvature="0"
     style="fill:#3e721d" />
  <path
     d="m 20.946,8.9375339 c 0,4.3750001 -1.714,8.2010001 -2.946,11.1700001 -1.333,3.212 -1,9 4,9 5,0 6.511,-3.191 7,-5 1.358,-5.021 -2,-8 -2,-13 0,-9.0000001 8,-7.0000001 8,-6.0000001 0,1 -6.934,1.374 -3,9.0000001 3.934,7.626 4,21.893 -10,21.893 -14,0 -14,-8.893 -12,-12.893 1.416,-2.832 4,-7.107 0.5,-9.045 -2.282,-1.263 10.446,-5.1250001 10.446,-5.1250001 z"
     id="path16"
     inkscape:connector-curvature="0"
     style="fill:#77b255" />
  <path
     d="m 11.335,7.7715339 c -0.256,0 -0.512,-0.098 -0.707,-0.293 -0.391,-0.391 -0.391,-1.023 0,-1.414 0.083,-0.083 2.081,-2.043 5.374,-2.043 0.552,0 1,0.448 1,1 0,0.552 -0.448,1 -1,1 -2.435,0 -3.945,1.442 -3.96,1.457 -0.195,0.195 -0.451,0.293 -0.707,0.293 z"
     id="path18"
     inkscape:connector-curvature="0"
     style="fill:#3e721d" />
  <path
     d="m 10.708,25.333534 c 0.627,-6.708 -5.417,-7.542 -7.417,-6.083 -1.097,0.8 -1.353,2.323 -0.479,1.521 1.542,-1.416 2.083,-0.375 0.917,0.375 -1.167,0.75 -1.375,2.146 -0.083,1.188 1.292,-0.958 1.646,-0.334 0.646,0.895 -0.605,0.744 0.042,1.438 1.167,-0.062 0.938,-1.251 4.2,-1.294 3.662,2.99 -0.222,1.756 1.454,0.608 1.587,-0.824 z"
     id="path20"
     inkscape:connector-curvature="0"
     style="fill:#5c913b" />
</svg>
