<?xml version="1.0" encoding="UTF-8" standalone="no"?>
<svg
   xmlns:dc="http://purl.org/dc/elements/1.1/"
   xmlns:cc="http://creativecommons.org/ns#"
   xmlns:rdf="http://www.w3.org/1999/02/22-rdf-syntax-ns#"
   xmlns:svg="http://www.w3.org/2000/svg"
   xmlns="http://www.w3.org/2000/svg"
   xmlns:sodipodi="http://sodipodi.sourceforge.net/DTD/sodipodi-0.dtd"
   xmlns:inkscape="http://www.inkscape.org/namespaces/inkscape"
   viewBox="0 0 35.780441 29.328751"
   id="svg2"
   version="1.1"
   inkscape:version="0.91 r13725"
   sodipodi:docname="1f404.svg"
   width="35.780441"
   height="29.328751">
  <metadata
     id="metadata22">
    <rdf:RDF>
      <cc:Work
         rdf:about="">
        <dc:format>image/svg+xml</dc:format>
        <dc:type
           rdf:resource="http://purl.org/dc/dcmitype/StillImage" />
      </cc:Work>
    </rdf:RDF>
  </metadata>
  <defs
     id="defs20" />
  <sodipodi:namedview
     pagecolor="#ffffff"
     bordercolor="#666666"
     borderopacity="1"
     objecttolerance="10"
     gridtolerance="10"
     guidetolerance="10"
     inkscape:pageopacity="0"
     inkscape:pageshadow="2"
     inkscape:window-width="640"
     inkscape:window-height="480"
     id="namedview18"
     showgrid="false"
     inkscape:zoom="6.5555556"
     inkscape:cx="17.780441"
     inkscape:cy="18"
     inkscape:window-x="0"
     inkscape:window-y="0"
     inkscape:window-maximized="0"
     inkscape:current-layer="svg2" />
  <path
     d="m 33.780441,8.32875 c 0,-2 -2.127,-4.702 -4,-4 -8,3 -19,-2 -19,-2 -2.2090001,0 -6.8570001,9.257 -5.0000001,10 0.277,0.111 0.541,0.227 0.799,0.343 -2.151,0.744 -2.516,2.466 -0.799,2.657 9.0000001,1 6.8960001,14 8.0000001,14 1.344,0 2.685,-2.614 3.422,-5 l 9.8,0 c 0.288,2.354 0.866,5 1.778,5 0.866,0 2.611,-3.542 3.794,-9.142 0.734,-2.626 1.206,-6.532 1.206,-11.858 z"
     id="path4"
     inkscape:connector-curvature="0"
     style="fill:#ccd6dd" />
  <path
     d="m 9.7804409,15.32875 c -2,0 -4.946,0.087 -6.973,0.087 -2.02699995,0 -3.64399995,-3.478 -2.33499995,-4.782 1.30799995,-1.305 5.30799995,-2.305 4.30799995,-6.305 -0.542,-2.169 4,-3 6.0000001,-2 4.816,2.408 5,10 -2.0000001,10 0,0 3.0000001,3 1,3 z m 20.0000001,-11 c -2.586,0.97 -5.485,1.101 -8.226,0.838 -1.105,1.393 -1.774,3.193 -1.774,5.162 0,4.418 3.357,8 7.5,8 2.587,0 4.866,-1.396 6.215,-3.521 0.181,-1.872 0.285,-4.017 0.285,-6.479 0,-2 -2.127,-4.702 -4,-4 z"
     id="path6"
     inkscape:connector-curvature="0"
     style="fill:#31373d" />
  <circle
     cx="17.280441"
     cy="17.828751"
     r="3.5"
     id="circle8"
     style="fill:#31373d" />
  <circle
     cx="29.780441"
     cy="21.328751"
     r="2"
     id="circle10"
     style="fill:#31373d" />
  <path
     d="m 10.780441,2.32875 c 0,0.552 -0.671,1 -1.5000001,1 -0.829,0 -4.5,-2.44799995 -4.5,-2.99999995 0,-0.552 2.23,-0.308 3,0 C 10.280441,1.32875 10.780441,1.77675 10.780441,2.32875 Z"
     id="path12"
     inkscape:connector-curvature="0"
     style="fill:#ccd6dd" />
  <circle
     cx="7.7804408"
     cy="6.3287501"
     r="1"
     id="circle14"
     style="fill:#ccd6dd" />
  <path
     d="m 34.780441,17.32875 c -0.553,0 -1,-0.447 -1,-1 l 0,-5 c 0,-1.44 -0.561,-2 -2,-2 -0.553,0 -1,-0.448 -1,-1 0,-0.552 0.447,-1 1,-1 2.542,0 4,1.458 4,4 l 0,5 c 0,0.553 -0.447,1 -1,1 z"
     id="path16"
     inkscape:connector-curvature="0"
     style="fill:#31373d" />
</svg>
