<?xml version="1.0" encoding="UTF-8" standalone="no"?>
<svg
   xmlns:dc="http://purl.org/dc/elements/1.1/"
   xmlns:cc="http://creativecommons.org/ns#"
   xmlns:rdf="http://www.w3.org/1999/02/22-rdf-syntax-ns#"
   xmlns:svg="http://www.w3.org/2000/svg"
   xmlns="http://www.w3.org/2000/svg"
   xmlns:sodipodi="http://sodipodi.sourceforge.net/DTD/sodipodi-0.dtd"
   xmlns:inkscape="http://www.inkscape.org/namespaces/inkscape"
   viewBox="0 0 36 23.361401"
   id="svg2"
   version="1.1"
   inkscape:version="0.91 r13725"
   sodipodi:docname="1f40a.svg"
   width="36"
   height="23.361401">
  <metadata
     id="metadata28">
    <rdf:RDF>
      <cc:Work
         rdf:about="">
        <dc:format>image/svg+xml</dc:format>
        <dc:type
           rdf:resource="http://purl.org/dc/dcmitype/StillImage" />
      </cc:Work>
    </rdf:RDF>
  </metadata>
  <defs
     id="defs26" />
  <sodipodi:namedview
     pagecolor="#ffffff"
     bordercolor="#666666"
     borderopacity="1"
     objecttolerance="10"
     gridtolerance="10"
     guidetolerance="10"
     inkscape:pageopacity="0"
     inkscape:pageshadow="2"
     inkscape:window-width="640"
     inkscape:window-height="480"
     id="namedview24"
     showgrid="false"
     inkscape:zoom="6.5555556"
     inkscape:cx="18"
     inkscape:cy="18"
     inkscape:window-x="0"
     inkscape:window-y="0"
     inkscape:window-maximized="0"
     inkscape:current-layer="svg2" />
  <path
     d="m 19,19.3614 c 0,1 -1.723,3 -3.334,3 -1.61,0 -1.666,-1.343 -1.666,-3 0,-1.657 1.306,-3 2.916,-3 1.611,0 2.084,1.343 2.084,3 z m 11,0 c 0,1 -1.723,3 -3.334,3 -1.61,0 -1.666,-1.343 -1.666,-3 0,-1.657 1.306,-3 2.916,-3 1.611,0 2.084,1.343 2.084,3 z"
     id="path4"
     inkscape:connector-curvature="0"
     style="fill:#3e721d" />
  <path
     d="M 36,12.3614 C 36,6.3614001 32.828,3.1904001 30,0.36140006 c -1,-1 -1.399,0.321 -1,1.00000004 0.508,0.862 3,8 -2,8 l -2,0 c -5,0 -6.172,-1.172 -9,-4 -4.5,-4.50000004 -7,0 -9,0 -6,0 -7,-1.812 -7,2 C 0,10.3614 3,11.3614 6,11.3614 c 3,0 3,1 5,4 1.071,1.606 2.836,3.211 5.023,4.155 0.232,1.119 2.774,3.845 4.311,3.845 1.61,0 1.666,-1.343 1.666,-3 l 5,0 c 0.034,0 0.066,-0.01 0.101,-0.01 0.291,0.005 0.587,0.01 0.899,0.01 0,1 1.723,3 3.334,3 1.61,0 1.666,-1.343 1.666,-3 0,-0.302 -0.057,-0.587 -0.137,-0.861 1.749,-0.946 3.137,-2.93 3.137,-7.139 z"
     id="path6"
     inkscape:connector-curvature="0"
     style="fill:#5c913b" />
  <path
     d="m 10,5.4844001 c 0,0.828 0.671,1.5 1.5,1.5 0.829,0 1.5,-0.672 1.5,-1.5 0,-0.829 -0.671,0 -1.5,0 -0.829,0 -1.5,-0.829 -1.5,0 z"
     id="path8"
     inkscape:connector-curvature="0"
     style="fill:#292f33" />
  <g
     id="g10"
     style="fill:#77b255"
     transform="translate(0,-12.6386)">
    <ellipse
       cx="27.5"
       cy="24"
       rx="1.5"
       ry="1"
       id="ellipse12" />
    <ellipse
       cx="23.5"
       cy="24"
       rx="1.5"
       ry="1"
       id="ellipse14" />
    <ellipse
       cx="19.5"
       cy="24"
       rx="1.5"
       ry="1"
       id="ellipse16" />
    <ellipse
       cx="21.5"
       cy="26"
       rx="1.5"
       ry="1"
       id="ellipse18" />
    <ellipse
       cx="25.5"
       cy="26"
       rx="1.5"
       ry="1"
       id="ellipse20" />
  </g>
  <path
     d="m 6,9.3614001 c -0.389,0 -1,-1 -1,-1 l 2,0 c 0,0 -0.611,1 -1,1 z m -2,0.469 c -0.389,0 -1,-1.469 -1,-1.469 l 2,0 c 0,0 -0.611,1.469 -1,1.469 z M 2,10.3614 c -0.389,0 -1,-1.9999999 -1,-1.9999999 l 2,0 c 0,0 -0.611,1.9999999 -1,1.9999999 z"
     id="path22"
     inkscape:connector-curvature="0"
     style="fill:#ffffff" />
</svg>
