<?xml version="1.0" encoding="UTF-8" standalone="no"?>
<svg
   xmlns:dc="http://purl.org/dc/elements/1.1/"
   xmlns:cc="http://creativecommons.org/ns#"
   xmlns:rdf="http://www.w3.org/1999/02/22-rdf-syntax-ns#"
   xmlns:svg="http://www.w3.org/2000/svg"
   xmlns="http://www.w3.org/2000/svg"
   xmlns:sodipodi="http://sodipodi.sourceforge.net/DTD/sodipodi-0.dtd"
   xmlns:inkscape="http://www.inkscape.org/namespaces/inkscape"
   viewBox="0 0 36 24"
   id="svg2"
   version="1.1"
   inkscape:version="0.91 r13725"
   sodipodi:docname="1f406.svg"
   width="36"
   height="24">
  <metadata
     id="metadata46">
    <rdf:RDF>
      <cc:Work
         rdf:about="">
        <dc:format>image/svg+xml</dc:format>
        <dc:type
           rdf:resource="http://purl.org/dc/dcmitype/StillImage" />
      </cc:Work>
    </rdf:RDF>
  </metadata>
  <defs
     id="defs44" />
  <sodipodi:namedview
     pagecolor="#ffffff"
     bordercolor="#666666"
     borderopacity="1"
     objecttolerance="10"
     gridtolerance="10"
     guidetolerance="10"
     inkscape:pageopacity="0"
     inkscape:pageshadow="2"
     inkscape:window-width="640"
     inkscape:window-height="480"
     id="namedview42"
     showgrid="false"
     inkscape:zoom="6.5555556"
     inkscape:cx="18"
     inkscape:cy="18"
     inkscape:window-x="0"
     inkscape:window-y="0"
     inkscape:window-maximized="0"
     inkscape:current-layer="svg2" />
  <path
     d="M 32.855,4.484 C 32.596,4.313 32.312,4.156 32,4 30,3 27,4 23,4 21,4 18.099,1 13,1 12.199,1 10.744,1.635 8.659,1.89 8.62,0.837 8.044,0 7.333,0 6.597,0 6,0.895 6,2 6,2.051 6.007,2.1 6.01,2.15 3.19,2.916 0,6.589 0,8.375 0,10.375 2,12 2,12 2,12 3,12 5,10 6.581,8.419 10,9 10,9 l 1,12 c 0,0 -1,1 -2,1 -1,0 -1,2 -1,2 l 6,0 1,-9 3,0 c 2,0 7,-1 7,-1 2,3 4,4 4,4 l 0,3 -2,1 c -2,1 -1,2 -1,2 l 6,0 c 0,0 1,-8 2,-13 l 0,5 c 0,0.553 0.447,1 1,1 0.553,0 1,-0.447 1,-1 L 36,9 C 36,6.334 34.643,5.072 32.855,4.484 Z"
     id="path4"
     inkscape:connector-curvature="0"
     style="fill:#ffcc4d" />
  <circle
     cx="4"
     cy="5"
     r="1"
     id="circle6"
     style="fill:#292f33" />
  <path
     d="M 0,8 C 0,8 0,10 1,10 1,8 2,8 2,8 2,8 1,7 0,8 Z"
     id="path8"
     inkscape:connector-curvature="0"
     style="fill:#292f33" />
  <g
     id="g10"
     style="fill:#f4900c"
     transform="translate(0,-12)">
    <circle
       cx="10.5"
       cy="16.5"
       r="2"
       id="circle12" />
    <circle
       cx="17.5"
       cy="16.5"
       r="2"
       id="circle14" />
    <circle
       cx="14.5"
       cy="21.5"
       r="2"
       id="circle16" />
    <circle
       cx="21.5"
       cy="23.5"
       r="2"
       id="circle18" />
    <circle
       cx="24.5"
       cy="18.5"
       r="2"
       id="circle20" />
    <circle
       cx="28.5"
       cy="23.5"
       r="2"
       id="circle22" />
    <circle
       cx="31.5"
       cy="18.5"
       r="2"
       id="circle24" />
  </g>
  <g
     id="g26"
     style="fill:#ffac33"
     transform="translate(0,-12)">
    <circle
       cx="10.5"
       cy="16.5"
       r="1"
       id="circle28" />
    <circle
       cx="17.5"
       cy="16.5"
       r="1"
       id="circle30" />
    <circle
       cx="14.5"
       cy="21.5"
       r="1"
       id="circle32" />
    <circle
       cx="21.5"
       cy="23.5"
       r="1"
       id="circle34" />
    <circle
       cx="24.5"
       cy="18.5"
       r="1"
       id="circle36" />
    <circle
       cx="28.5"
       cy="23.5"
       r="1"
       id="circle38" />
    <circle
       cx="31.5"
       cy="18.5"
       r="1"
       id="circle40" />
  </g>
</svg>
