<?xml version="1.0" encoding="UTF-8" standalone="no"?>
<svg
   xmlns:dc="http://purl.org/dc/elements/1.1/"
   xmlns:cc="http://creativecommons.org/ns#"
   xmlns:rdf="http://www.w3.org/1999/02/22-rdf-syntax-ns#"
   xmlns:svg="http://www.w3.org/2000/svg"
   xmlns="http://www.w3.org/2000/svg"
   xmlns:sodipodi="http://sodipodi.sourceforge.net/DTD/sodipodi-0.dtd"
   xmlns:inkscape="http://www.inkscape.org/namespaces/inkscape"
   viewBox="0 0 36 36"
   id="svg2"
   version="1.1"
   inkscape:version="0.91 r13725"
   sodipodi:docname="1f407.svg"
   width="36"
   height="36">
  <metadata
     id="metadata24">
    <rdf:RDF>
      <cc:Work
         rdf:about="">
        <dc:format>image/svg+xml</dc:format>
        <dc:type
           rdf:resource="http://purl.org/dc/dcmitype/StillImage" />
      </cc:Work>
    </rdf:RDF>
  </metadata>
  <defs
     id="defs22" />
  <sodipodi:namedview
     pagecolor="#ffffff"
     bordercolor="#666666"
     borderopacity="1"
     objecttolerance="10"
     gridtolerance="10"
     guidetolerance="10"
     inkscape:pageopacity="0"
     inkscape:pageshadow="2"
     inkscape:window-width="640"
     inkscape:window-height="480"
     id="namedview20"
     showgrid="false"
     inkscape:zoom="6.5555556"
     inkscape:cx="18"
     inkscape:cy="18"
     inkscape:window-x="0"
     inkscape:window-y="0"
     inkscape:window-maximized="0"
     inkscape:current-layer="svg2" />
  <path
     d="M 9,11 C 9,6.858 7,0 8,0 c 1,0 7,4 5,11 -1.138,3.983 -0.896,4 -2,4 -1.104,0 -2,0.142 -2,-4 z"
     id="path4"
     inkscape:connector-curvature="0"
     style="fill:#99aab5" />
  <path
     d="M 9.55,11.704 C 9.55,8.29 8.253,2.639 8.902,2.639 c 0.648,0 4.538,3.296 3.241,9.065 C 11.405,14.986 11.562,15 10.846,15 10.13,15 9.55,15.117 9.55,11.704 Z"
     id="path6"
     inkscape:connector-curvature="0"
     style="fill:#f4abba" />
  <path
     d="M 4.789,12.375 C 3.726,8.372 0.033,2.256 1,2 1.966,1.743 8.792,4.07 8.655,11.349 8.577,15.491 8.816,15.445 7.748,15.728 6.68,16.011 5.851,16.378 4.789,12.375 Z"
     id="path8"
     inkscape:connector-curvature="0"
     style="fill:#99aab5" />
  <path
     d="M 5.5,12.914 C 4.625,9.615 1.921,4.485 2.548,4.319 3.175,4.152 7.78,6.341 8.006,12.249 8.135,15.61 8.291,15.584 7.599,15.768 6.907,15.951 6.376,16.213 5.5,12.914 Z"
     id="path10"
     inkscape:connector-curvature="0"
     style="fill:#f4abba" />
  <circle
     cx="32.5"
     cy="28.5"
     r="3.5"
     id="circle12"
     style="fill:#ccd6dd" />
  <path
     d="M 30.733,31.736 C 32.227,30.354 33,28.218 33,25 33,17.82 26.18,14 19,14 16.943,14 15.171,14.157 13.677,14.54 12.592,13.41 10.817,13 8.4,13 4.136,13 0,17.069 0,21.333 c 0,4.13 3.88,4.637 7.999,4.664 L 8,26 c 3,5 1,10 3,10 1.588,0 1.914,-2.217 1.981,-4.375 1.068,0.663 2.258,1.191 3.531,1.577 C 15.635,33.726 15,34.271 15,34.5 c 0,1.381 2,1.5 5,1.5 5.522,0 13,0 11,-4 -0.054,-0.107 -0.151,-0.19 -0.267,-0.264 z"
     id="path14"
     inkscape:connector-curvature="0"
     style="fill:#99aab5" />
  <circle
     cx="6"
     cy="18"
     r="1"
     id="circle16"
     style="fill:#292f33" />
  <path
     d="m 2,21 c 0,1.104 -0.5,2 -1,2 -0.5,0 -1,-0.896 -1,-2 0,-1.104 0.448,-1 1,-1 0.552,0 1,-0.104 1,1 z"
     id="path18"
     inkscape:connector-curvature="0"
     style="fill:#f4abba" />
</svg>
