<?xml version="1.0" encoding="UTF-8" standalone="no"?>
<svg
   xmlns:dc="http://purl.org/dc/elements/1.1/"
   xmlns:cc="http://creativecommons.org/ns#"
   xmlns:rdf="http://www.w3.org/1999/02/22-rdf-syntax-ns#"
   xmlns:svg="http://www.w3.org/2000/svg"
   xmlns="http://www.w3.org/2000/svg"
   xmlns:sodipodi="http://sodipodi.sourceforge.net/DTD/sodipodi-0.dtd"
   xmlns:inkscape="http://www.inkscape.org/namespaces/inkscape"
   viewBox="0 0 36 24"
   id="svg2"
   version="1.1"
   inkscape:version="0.91 r13725"
   sodipodi:docname="1f405.svg"
   width="36"
   height="24">
  <metadata
     id="metadata14">
    <rdf:RDF>
      <cc:Work
         rdf:about="">
        <dc:format>image/svg+xml</dc:format>
        <dc:type
           rdf:resource="http://purl.org/dc/dcmitype/StillImage" />
      </cc:Work>
    </rdf:RDF>
  </metadata>
  <defs
     id="defs12" />
  <sodipodi:namedview
     pagecolor="#ffffff"
     bordercolor="#666666"
     borderopacity="1"
     objecttolerance="10"
     gridtolerance="10"
     guidetolerance="10"
     inkscape:pageopacity="0"
     inkscape:pageshadow="2"
     inkscape:window-width="640"
     inkscape:window-height="480"
     id="namedview10"
     showgrid="false"
     inkscape:zoom="6.5555556"
     inkscape:cx="18"
     inkscape:cy="18"
     inkscape:window-x="0"
     inkscape:window-y="0"
     inkscape:window-maximized="0"
     inkscape:current-layer="svg2" />
  <path
     d="M 32.338,4.852 C 31.971,4.522 31.52,4.26 31,4 29,3 26,4 22,4 20,4 18.099,1 13,1 12.199,1 10.744,1.635 8.659,1.89 8.62,0.837 8.044,0 7.333,0 6.597,0 6,0.895 6,2 6,2.051 6.007,2.1 6.01,2.15 3.19,2.916 0,6.589 0,8.375 0,10.375 2,12 2,12 2,12 4.171,11 7,11 l 3,0 1,10 c 0,0 -1,1 -2,1 -1,0 -1,2 -1,2 l 6,0 1,-8 3,0 c 2,0 6,-1 6,-1 2,3 4,4 4,4 l 0,2 -2,1 c -2,1 -1,2 -1,2 l 6,0 c 0,0 1,-8 2,-13 C 33.232,9.838 33.353,8.899 33.382,8.119 33.778,8.668 34,9.302 34,10 c 0,2.93 0,5.697 -1.832,8.445 -0.307,0.46 -0.183,1.08 0.277,1.387 0.171,0.113 0.364,0.168 0.554,0.168 0.323,0 0.641,-0.156 0.833,-0.445 C 36,16.303 36,13.099 36,10 36,7.703 34.604,5.863 32.338,4.852 Z"
     id="path4"
     inkscape:connector-curvature="0"
     style="fill:#ffac33" />
  <circle
     cx="5"
     cy="5"
     r="1"
     id="circle6"
     style="fill:#292f33" />
  <path
     d="M 0,8 C 0,8 0,10 1,10 1,8 2,8 2,8 2,8 1,7 0,8 Z m 16,5 C 18.154,10.128 18.759,5.206 18.93,2.652 18.151,2.209 17.245,1.751 16.126,1.429 16.529,2.884 17.688,7.935 16,13 Z m 4,-2 C 21.264,9.104 21.729,6.012 21.9,3.991 21.117,3.952 20.338,3.473 19.371,2.906 19.895,4.358 20.716,7.418 20,11 Z m 3,-1 C 24.094,8.359 24.588,5.823 24.812,3.859 24.222,3.912 23.594,3.949 22.948,3.973 23.279,5.565 23.466,7.671 23,10 Z M 26,9 C 26.961,7.558 27.458,5.426 27.717,3.597 27.202,3.63 26.665,3.677 26.087,3.735 26.319,5.213 26.395,7.026 26,9 Z m 3,2.444 C 30.364,9.398 30.797,5.958 30.935,3.976 30.228,3.64 29.397,3.544 28.446,3.562 28.969,5.09 29.682,8.033 29,11.444 Z M 13,9 C 14.455,6.818 14.85,3.058 14.958,1.165 14.36,1.063 13.714,1 13,1 12.839,1 12.644,1.032 12.432,1.075 12.955,2.591 13.688,5.558 13,9 Z"
     id="path8"
     inkscape:connector-curvature="0"
     style="fill:#292f33" />
</svg>
