<?xml version="1.0" encoding="UTF-8" standalone="no"?>
<svg
   xmlns:dc="http://purl.org/dc/elements/1.1/"
   xmlns:cc="http://creativecommons.org/ns#"
   xmlns:rdf="http://www.w3.org/1999/02/22-rdf-syntax-ns#"
   xmlns:svg="http://www.w3.org/2000/svg"
   xmlns="http://www.w3.org/2000/svg"
   xmlns:sodipodi="http://sodipodi.sourceforge.net/DTD/sodipodi-0.dtd"
   xmlns:inkscape="http://www.inkscape.org/namespaces/inkscape"
   viewBox="0 0 34 34.819496"
   id="svg2"
   version="1.1"
   inkscape:version="0.91 r13725"
   sodipodi:docname="1f417.svg"
   width="34"
   height="34.819496">
  <metadata
     id="metadata22">
    <rdf:RDF>
      <cc:Work
         rdf:about="">
        <dc:format>image/svg+xml</dc:format>
        <dc:type
           rdf:resource="http://purl.org/dc/dcmitype/StillImage" />
      </cc:Work>
    </rdf:RDF>
  </metadata>
  <defs
     id="defs20" />
  <sodipodi:namedview
     pagecolor="#ffffff"
     bordercolor="#666666"
     borderopacity="1"
     objecttolerance="10"
     gridtolerance="10"
     guidetolerance="10"
     inkscape:pageopacity="0"
     inkscape:pageshadow="2"
     inkscape:window-width="640"
     inkscape:window-height="480"
     id="namedview18"
     showgrid="false"
     inkscape:zoom="6.5555556"
     inkscape:cx="17"
     inkscape:cy="18"
     inkscape:window-x="0"
     inkscape:window-y="0"
     inkscape:window-maximized="0"
     inkscape:current-layer="svg2" />
  <path
     d="m 32.359,12.073496 c 1.434,-3.4619996 2.06,-11.53399956 1.262,-12.00399956 -0.704,-0.416 -5.641,1.08399996 -8.34,3.20499996 -2.398,-1.546 -5.196,-2.45499996 -8.281,-2.45499996 -3.085,0 -5.883,0.90999996 -8.281,2.45499996 -2.699,-2.121 -7.637,-3.62099996 -8.341,-3.20499996 -0.797,0.47 -0.171,8.54299996 1.263,12.00399956 -1.051,2.564 -1.641,5.369 -1.641,8.225 0,9.989 1,14.521 17,14.521 16,0 17,-4.532 17,-14.521 0,-2.856 -0.59,-5.662 -1.641,-8.225 z"
     id="path4"
     inkscape:connector-curvature="0"
     style="fill:#c1694f" />
  <path
     d="m 31.878,10.976496 c 0.929,-3.2519996 1.081,-7.7079996 0.524,-8.0369996 -0.411,-0.243 -2.78,0.633 -5.009,1.972 1.851,1.663 3.373,3.736 4.485,6.0649996 z M 6.607,4.9114964 c -2.23,-1.339 -4.599,-2.215 -5.01,-1.972 -0.557,0.329 -0.405,4.786 0.525,8.0379996 C 3.234,8.6474964 4.756,6.5754964 6.607,4.9114964 Z"
     id="path6"
     inkscape:connector-curvature="0"
     style="fill:#662113" />
  <path
     d="m 6.65,27.819496 c 0,0 -3.641,-3 -4.641,-11.5 -0.234,-1.986 1.696,-1.977 2,0 1.001,6.5 6.35,10.5 8.991,12.5 2.255,1.708 -6.35,-1 -6.35,-1 z m 20.7,0 c 0,0 3.641,-3 4.641,-11.5 0.234,-1.986 -1.695,-1.977 -2,0 -1.001,6.5 -6.35,10.5 -8.991,12.5 -2.255,1.708 6.35,-1 6.35,-1 z"
     id="path8"
     inkscape:connector-curvature="0"
     style="fill:#e1e8ed" />
  <path
     d="m 28,27.819496 c 0,1.104 -3.82,3 -11,3 -7.18,0 -11,-1.896 -11,-3 0,-1.104 3.82,1 11,1 7.18,0 11,-2.104 11,-1 z"
     id="path10"
     inkscape:connector-curvature="0" />
  <path
     d="m 27,21.944496 c 0,4.487 -3.097,9.375 -10,9.375 -6.904,0 -10,-4.888 -10,-9.375 0,-4.487 3.096,-5.625 10,-5.625 6.903,0 10,1.138 10,5.625 z"
     id="path12"
     inkscape:connector-curvature="0"
     style="fill:#662113" />
  <path
     d="m 14,23.419496 c 0,1.857 -0.34,2.4 -1.5,2.4 -1.16,0 -1.5,-0.543 -1.5,-2.4 0,-1.856 0.34,-2.399 1.5,-2.399 1.16,0 1.5,0.542 1.5,2.399 z m 9,0 c 0,1.857 -0.34,2.4 -1.5,2.4 -1.16,0 -1.5,-0.543 -1.5,-2.4 0,-1.856 0.34,-2.399 1.5,-2.399 1.16,0 1.5,0.542 1.5,2.399 z"
     id="path14"
     inkscape:connector-curvature="0"
     style="fill:#c1694f" />
  <path
     d="m 12,13.821496 c 0,1.104 -0.896,2 -2,2 -1.104,0 -2,-0.896 -2,-2 0,-1.104 0.896,-2.002 2,-2.002 1.104,0 2,0.898 2,2.002 z m 14,0 c 0,1.104 -0.896,2 -2,2 -1.104,0 -2,-0.896 -2,-2 0,-1.104 0.896,-2.002 2,-2.002 1.104,0 2,0.898 2,2.002 z"
     id="path16"
     inkscape:connector-curvature="0"
     style="fill:#292f33" />
</svg>
