<?xml version="1.0" encoding="UTF-8" standalone="no"?>
<svg
   xmlns:dc="http://purl.org/dc/elements/1.1/"
   xmlns:cc="http://creativecommons.org/ns#"
   xmlns:rdf="http://www.w3.org/1999/02/22-rdf-syntax-ns#"
   xmlns:svg="http://www.w3.org/2000/svg"
   xmlns="http://www.w3.org/2000/svg"
   xmlns:sodipodi="http://sodipodi.sourceforge.net/DTD/sodipodi-0.dtd"
   xmlns:inkscape="http://www.inkscape.org/namespaces/inkscape"
   viewBox="0 0 35.662846 27.417999"
   id="svg2"
   version="1.1"
   inkscape:version="0.91 r13725"
   sodipodi:docname="1f41f.svg"
   width="35.662846"
   height="27.417999">
  <metadata
     id="metadata20">
    <rdf:RDF>
      <cc:Work
         rdf:about="">
        <dc:format>image/svg+xml</dc:format>
        <dc:type
           rdf:resource="http://purl.org/dc/dcmitype/StillImage" />
      </cc:Work>
    </rdf:RDF>
  </metadata>
  <defs
     id="defs18" />
  <sodipodi:namedview
     pagecolor="#ffffff"
     bordercolor="#666666"
     borderopacity="1"
     objecttolerance="10"
     gridtolerance="10"
     guidetolerance="10"
     inkscape:pageopacity="0"
     inkscape:pageshadow="2"
     inkscape:window-width="640"
     inkscape:window-height="480"
     id="namedview16"
     showgrid="false"
     inkscape:zoom="6.5555556"
     inkscape:cx="17.832"
     inkscape:cy="17.709"
     inkscape:window-x="0"
     inkscape:window-y="0"
     inkscape:window-maximized="0"
     inkscape:current-layer="svg2" />
  <path
     d="m 31.985,15.709 c 0,-1 1.523,-6.212 3.047,-7.735 1.522,-1.523 0,-3.166 -1.523,-3.166 -3.405,0 -9.139,6.901 -9.139,10.901 0,5 5.733,10.424 9.139,10.424 1.523,0 3.046,-1.404 1.523,-2.928 -1.523,-1.522 -3.047,-5.496 -3.047,-7.496 z"
     id="path4"
     inkscape:connector-curvature="0"
     style="fill:#3b88c3" />
  <path
     d="M 8.853,6.093 C 8.853,3.047 10.35,0 11.873,0 16.442,0 25.195,4.823 26.718,12.439 28.242,20.055 8.853,6.093 8.853,6.093 Z m 4.854,18.278 c 1.523,1.523 4.57,3.047 7.617,3.047 3.046,0 -3.111,-4.189 -1.523,-6.092 2.18,-2.617 -6.094,3.045 -6.094,3.045 z"
     id="path6"
     inkscape:connector-curvature="0"
     style="fill:#3b88c3" />
  <path
     d="m 1.903,20.436 c 0.761,-2.285 0.19,-3.935 -1.143,-5.584 -1.333,-1.651 3.872,-1.904 5.585,0.381 1.713,2.285 5.713,6.281 2.158,6.22 -3.553,-0.065 -6.6,-1.017 -6.6,-1.017 z"
     id="path8"
     inkscape:connector-curvature="0" />
  <path
     d="m 0,15.197 c 0.959,0.874 7.223,4.309 7.165,5.137 C 7.107,21.162 4.886,20.246 4.06,20.055 2.575,19.713 2.155,19.457 1.743,19.529 0.903,19.85 1.189,20.73 1.501,21.233 c 1.498,2.61 7.286,4.662 12.16,4.662 8.412,0 16.802,-7.615 16.802,-10.662 C 30.463,12.187 21.118,4.57 12.706,4.57 4.315,4.569 0.012,10.631 0,15.197 Z"
     id="path10"
     inkscape:connector-curvature="0"
     style="fill:#55acee" />
  <path
     d="m 6.832,8.709 c 1.104,0 2,0.894 2,2 0,1.105 -0.896,2 -2,2 -1.105,0 -2,-0.896 -2,-2 0,-1.106 0.895,-2 2,-2 z"
     id="path12"
     inkscape:connector-curvature="0" />
  <path
     d="m 14.912,21.689 c -0.156,0 -0.314,-0.036 -0.462,-0.113 -0.49,-0.256 -0.679,-0.86 -0.423,-1.35 1.585,-3.034 2.218,-5.768 0.154,-9.243 -0.282,-0.475 -0.126,-1.088 0.349,-1.371 0.475,-0.283 1.088,-0.124 1.371,0.349 2.693,4.535 1.46,8.202 -0.102,11.191 -0.178,0.342 -0.527,0.537 -0.887,0.537 z"
     id="path14"
     inkscape:connector-curvature="0"
     style="fill:#226699" />
</svg>
