<?xml version="1.0" encoding="UTF-8" standalone="no"?>
<svg
   xmlns:dc="http://purl.org/dc/elements/1.1/"
   xmlns:cc="http://creativecommons.org/ns#"
   xmlns:rdf="http://www.w3.org/1999/02/22-rdf-syntax-ns#"
   xmlns:svg="http://www.w3.org/2000/svg"
   xmlns="http://www.w3.org/2000/svg"
   xmlns:sodipodi="http://sodipodi.sourceforge.net/DTD/sodipodi-0.dtd"
   xmlns:inkscape="http://www.inkscape.org/namespaces/inkscape"
   viewBox="0 0 36 34.968307"
   id="svg2"
   version="1.1"
   inkscape:version="0.91 r13725"
   sodipodi:docname="1f41e.svg"
   width="36"
   height="34.968307">
  <metadata
     id="metadata30">
    <rdf:RDF>
      <cc:Work
         rdf:about="">
        <dc:format>image/svg+xml</dc:format>
        <dc:type
           rdf:resource="http://purl.org/dc/dcmitype/StillImage" />
      </cc:Work>
    </rdf:RDF>
  </metadata>
  <defs
     id="defs28" />
  <sodipodi:namedview
     pagecolor="#ffffff"
     bordercolor="#666666"
     borderopacity="1"
     objecttolerance="10"
     gridtolerance="10"
     guidetolerance="10"
     inkscape:pageopacity="0"
     inkscape:pageshadow="2"
     inkscape:window-width="640"
     inkscape:window-height="480"
     id="namedview26"
     showgrid="false"
     inkscape:zoom="6.5555556"
     inkscape:cx="18"
     inkscape:cy="16.968309"
     inkscape:window-x="0"
     inkscape:window-y="0"
     inkscape:window-maximized="0"
     inkscape:current-layer="svg2" />
  <path
     d="M 35,21 1,21 C 0.448,21 0,20.553 0,20 0,19.447 0.448,19 1,19 l 34,0 c 0.553,0 1,0.447 1,1 0,0.553 -0.447,1 -1,1 z M 12.823,19 12.754,18.998 C 12.662,18.991 3.54,18.284 2.02,10.763 1.911,10.221 2.261,9.694 2.802,9.585 3.345,9.472 3.871,9.826 3.98,10.367 c 1.221,6.044 8.833,6.631 8.91,6.636 0.551,0.038 0.967,0.515 0.93,1.066 C 13.784,18.596 13.344,19 12.823,19 Z M 3,31 c -0.142,0 -0.286,-0.03 -0.423,-0.094 -0.5,-0.234 -0.716,-0.829 -0.482,-1.33 3.166,-6.77 11.038,-7.721 11.372,-7.758 0.548,-0.056 1.042,0.334 1.103,0.882 0.062,0.548 -0.332,1.043 -0.88,1.106 -0.071,0.008 -7.099,0.876 -9.783,6.617 C 3.736,30.787 3.375,31 3,31 Z M 22.753,19 c -0.522,0 -0.961,-0.405 -0.996,-0.934 -0.036,-0.551 0.381,-1.027 0.931,-1.064 0.081,-0.005 8.116,-0.617 9.332,-6.636 0.108,-0.541 0.633,-0.895 1.179,-0.782 0.541,0.109 0.892,0.637 0.782,1.178 -1.521,7.525 -10.769,8.21 -11.162,8.235 L 22.753,19 Z M 33.001,31 C 32.624,31 32.264,30.787 32.094,30.424 29.4,24.661 21.97,23.815 21.896,23.807 c -0.55,-0.058 -0.948,-0.55 -0.89,-1.099 0.058,-0.55 0.555,-0.952 1.099,-0.89 0.352,0.037 8.634,0.983 11.802,7.758 0.233,0.501 0.018,1.096 -0.482,1.33 C 33.286,30.97 33.143,31 33.001,31 Z"
     id="path4"
     inkscape:connector-curvature="0"
     style="fill:#31373d" />
  <path
     d="M 24.989,7.766 C 24.92,5.14 23.712,3.55 21.894,2.726 21.961,2.5 22,2.257 22,2 22,0.895 21.328,0 20.5,0 19.672,0 19,0.895 19,2 19,2.015 19.003,2.028 19.003,2.043 18.675,2.017 18.342,2 18,2 17.658,2 17.325,2.017 16.997,2.043 16.997,2.028 17,2.015 17,2 17,0.895 16.329,0 15.5,0 14.671,0 14,0.895 14,2 14,2.257 14.04,2.5 14.106,2.726 12.289,3.55 11.081,5.14 11.011,7.766 7.98,9.551 6,12.662 6,17 c 0,7.159 5.373,16.923 12,16.923 6.628,0 12,-9.764 12,-16.923 0,-4.338 -1.98,-7.45 -5.011,-9.234 z"
     id="path6"
     inkscape:connector-curvature="0"
     style="fill:#31373d" />
  <path
     d="M 16.001,34.959 C 9.564,34.364 4.5,28.064 4.5,20.378 4.5,12.693 9.564,9.597 16,9 c 0.33,-0.03 1,-0.046 1,2.294 l 0,22.541 c 0,1.171 -0.669,1.156 -0.999,1.124 z m 3.998,0 C 26.435,34.364 31.5,28.064 31.5,20.378 31.5,12.693 26.435,9.597 20,9 19.67,8.97 19,8.954 19,11.294 l 0,22.541 c 0,1.171 0.67,1.156 0.999,1.124 z"
     id="path8"
     inkscape:connector-curvature="0"
     style="fill:#dd2e44" />
  <g
     id="g10"
     style="fill:#31373d">
    <circle
       cx="13"
       cy="15"
       r="2"
       id="circle12" />
    <circle
       cx="10"
       cy="22"
       r="3"
       id="circle14" />
    <circle
       cx="13"
       cy="29"
       r="2"
       id="circle16" />
    <circle
       cx="24.5"
       cy="14.5"
       r="2.5"
       id="circle18" />
    <circle
       cx="22.5"
       cy="20.5"
       r="1.5"
       id="circle20" />
    <circle
       cx="28"
       cy="23"
       r="2"
       id="circle22" />
    <circle
       cx="24"
       cy="29"
       r="3"
       id="circle24" />
  </g>
</svg>
