<?xml version="1.0" encoding="UTF-8" standalone="no"?>
<svg
   xmlns:dc="http://purl.org/dc/elements/1.1/"
   xmlns:cc="http://creativecommons.org/ns#"
   xmlns:rdf="http://www.w3.org/1999/02/22-rdf-syntax-ns#"
   xmlns:svg="http://www.w3.org/2000/svg"
   xmlns="http://www.w3.org/2000/svg"
   xmlns:sodipodi="http://sodipodi.sourceforge.net/DTD/sodipodi-0.dtd"
   xmlns:inkscape="http://www.inkscape.org/namespaces/inkscape"
   viewBox="0 0 35.999397 35.666882"
   id="svg2"
   version="1.1"
   inkscape:version="0.91 r13725"
   sodipodi:docname="1f419.svg"
   width="35.999397"
   height="35.666882">
  <metadata
     id="metadata20">
    <rdf:RDF>
      <cc:Work
         rdf:about="">
        <dc:format>image/svg+xml</dc:format>
        <dc:type
           rdf:resource="http://purl.org/dc/dcmitype/StillImage" />
      </cc:Work>
    </rdf:RDF>
  </metadata>
  <defs
     id="defs18" />
  <sodipodi:namedview
     pagecolor="#ffffff"
     bordercolor="#666666"
     borderopacity="1"
     objecttolerance="10"
     gridtolerance="10"
     guidetolerance="10"
     inkscape:pageopacity="0"
     inkscape:pageshadow="2"
     inkscape:window-width="640"
     inkscape:window-height="480"
     id="namedview16"
     showgrid="false"
     inkscape:zoom="6.5555556"
     inkscape:cx="17.999388"
     inkscape:cy="17.666882"
     inkscape:window-x="0"
     inkscape:window-y="0"
     inkscape:window-maximized="0"
     inkscape:current-layer="svg2" />
  <path
     d="m 9.9993883,12 c 2.9999997,5 0,10.692 -3,9.692 -3,-1 -4,2 -1,3 3,1 9.4649997,-0.465 12.9999997,-4 1,-1 2,-1 2,-1 L 9.9993883,12 Z"
     id="path4"
     inkscape:connector-curvature="0"
     style="fill:#553788" />
  <path
     d="m 25.999388,12 c -3,5 0,10.692 3,9.692 3,-1 4,2 1,3 -3,1 -9.465,-0.465 -13,-4 -1,-1 -2,-1 -2,-1 l 11,-7.692 z"
     id="path6"
     inkscape:connector-curvature="0"
     style="fill:#553788" />
  <path
     d="m 30.187388,16 c -3,5 0,10.692 3,9.692 3,-1 4,2 1,3 -3,1 -9.465,-0.465 -13,-4 -1,-1 -2,-1 -2,-1 l 11,-7.692 z M 5.8113883,16 c 3,5 0,10.692 -3,9.692 -3,-1 -4,2 -1,3 3,1 9.4649997,-0.465 12.9999997,-4 1,-1 2,-1 2,-1 L 5.8113883,16 Z"
     id="path8"
     inkscape:connector-curvature="0"
     style="fill:#744eaa" />
  <path
     d="m 33.187388,31.375 c -2.729,0.91 -6.425,-5.626 -4.812,-10.578 1.646,-3.243 2.624,-6.857 2.624,-9.797 0,-7.18 -5.82,-11 -13,-11 -7.18,0 -12.9999997,3.82 -12.9999997,11 0,2.94 0.978,6.554 2.624,9.797 1.613,4.952 -2.083,11.488 -4.812,10.578 -3,-1 -4,3 -1,4 3,1 8.3099997,-0.627 11.9999997,-4 2.189,-2 4.189,-2 4.189,-2 0,0 2,0 4.188,2 3.69,3.373 9,5 12,4 3,-1 1.999,-5 -1.001,-4 z"
     id="path10"
     inkscape:connector-curvature="0"
     style="fill:#9266cc" />
  <circle
     cx="13.999389"
     cy="21"
     r="2"
     id="circle12"
     style="fill:#292f33" />
  <circle
     cx="21.999388"
     cy="21"
     r="2"
     id="circle14"
     style="fill:#292f33" />
</svg>
