<?xml version="1.0" encoding="UTF-8" standalone="no"?>
<svg
   xmlns:dc="http://purl.org/dc/elements/1.1/"
   xmlns:cc="http://creativecommons.org/ns#"
   xmlns:rdf="http://www.w3.org/1999/02/22-rdf-syntax-ns#"
   xmlns:svg="http://www.w3.org/2000/svg"
   xmlns="http://www.w3.org/2000/svg"
   xmlns:sodipodi="http://sodipodi.sourceforge.net/DTD/sodipodi-0.dtd"
   xmlns:inkscape="http://www.inkscape.org/namespaces/inkscape"
   viewBox="0 0 32.48473 35.99873"
   id="svg2"
   version="1.1"
   inkscape:version="0.91 r13725"
   sodipodi:docname="1f413.svg"
   width="32.48473"
   height="35.99873">
  <metadata
     id="metadata16">
    <rdf:RDF>
      <cc:Work
         rdf:about="">
        <dc:format>image/svg+xml</dc:format>
        <dc:type
           rdf:resource="http://purl.org/dc/dcmitype/StillImage" />
      </cc:Work>
    </rdf:RDF>
  </metadata>
  <defs
     id="defs14" />
  <sodipodi:namedview
     pagecolor="#ffffff"
     bordercolor="#666666"
     borderopacity="1"
     objecttolerance="10"
     gridtolerance="10"
     guidetolerance="10"
     inkscape:pageopacity="0"
     inkscape:pageshadow="2"
     inkscape:window-width="640"
     inkscape:window-height="480"
     id="namedview12"
     showgrid="false"
     inkscape:zoom="6.5555556"
     inkscape:cx="16.484"
     inkscape:cy="17.998728"
     inkscape:window-x="0"
     inkscape:window-y="0"
     inkscape:window-maximized="0"
     inkscape:current-layer="svg2" />
  <path
     d="m 23.364,33.097 c -0.098,-0.18 -0.25,-0.302 -0.418,-0.391 -1.597,-1.706 -0.462,-3.707 -0.462,-3.707 0,-0.553 1,-2 0,-2 l -1,1 c -1,1 -1,4 -1,4 l -2,0 c -0.553,0 -1,0.447 -1,1 0,0.553 0.447,1 1,1 l 1.107,0 -0.222,0.12 c -0.486,0.263 -0.667,0.869 -0.404,1.355 0.263,0.486 0.869,0.667 1.356,0.404 l 2.639,-1.427 c 0.486,-0.262 0.667,-0.868 0.404,-1.354 z m -7,0 C 16.267,32.917 16.114,32.795 15.947,32.706 14.35,31 15.484,28.999 15.484,28.999 c 0,-0.553 1,-2 0,-2 l -1,1 c -1,1 -1,4 -1,4 l -2,0 c -0.553,0 -1,0.447 -1,1 0,0.553 0.447,1 1,1 l 1.108,0 -0.222,0.12 c -0.486,0.263 -0.667,0.869 -0.404,1.355 0.263,0.486 0.869,0.667 1.356,0.404 l 2.639,-1.427 c 0.485,-0.262 0.666,-0.868 0.403,-1.354 z M 6,10 C 6,11.104 4.881,12 3.5,12 2.119,12 0,11 0,10 0,9 2.119,8 3.5,8 4.88,8 6,8.896 6,10 Z"
     id="path4"
     inkscape:connector-curvature="0"
     style="fill:#ffac33" />
  <path
     d="M 12,2 C 10,1 9,3 9,3 9,3 9,0 6,0 3,0 3,3 3,3 3,3 0,2.062 0,5 0,6.482 1.101,7.411 2.484,7.387 l 0,4.613 c 0,1 0.263,3 -0.737,4 -1,1 -2.484,4 0.516,4 3,0 3,-4 3,-7 1,1 4,1 4,-4 0,-0.867 -0.213,-1.512 -0.55,-2 L 10,7 c 4,0 4,-4 2,-5 z"
     id="path6"
     inkscape:connector-curvature="0"
     style="fill:#dd2e44" />
  <path
     d="M 31,9 C 35,19 31,31 18,31 10.268,31 5,25 4,20 2.823,14.117 3,12 3,8 3,5.262 5.118,3.176 8,4 15,6 13,14 20,14 30,14 28.23,2.077 31,9 Z"
     id="path8"
     inkscape:connector-curvature="0"
     style="fill:#e1e8ed" />
  <circle
     cx="6"
     cy="8"
     r="1"
     id="circle10"
     style="fill:#292f33" />
</svg>
