<?xml version="1.0" encoding="UTF-8" standalone="no"?>
<svg
   xmlns:dc="http://purl.org/dc/elements/1.1/"
   xmlns:cc="http://creativecommons.org/ns#"
   xmlns:rdf="http://www.w3.org/1999/02/22-rdf-syntax-ns#"
   xmlns:svg="http://www.w3.org/2000/svg"
   xmlns="http://www.w3.org/2000/svg"
   xmlns:sodipodi="http://sodipodi.sourceforge.net/DTD/sodipodi-0.dtd"
   xmlns:inkscape="http://www.inkscape.org/namespaces/inkscape"
   viewBox="0 0 35.955116 26.471001"
   id="svg2"
   version="1.1"
   inkscape:version="0.91 r13725"
   sodipodi:docname="1f416.svg"
   width="35.955116"
   height="26.471001">
  <metadata
     id="metadata12">
    <rdf:RDF>
      <cc:Work
         rdf:about="">
        <dc:format>image/svg+xml</dc:format>
        <dc:type
           rdf:resource="http://purl.org/dc/dcmitype/StillImage" />
      </cc:Work>
    </rdf:RDF>
  </metadata>
  <defs
     id="defs10" />
  <sodipodi:namedview
     pagecolor="#ffffff"
     bordercolor="#666666"
     borderopacity="1"
     objecttolerance="10"
     gridtolerance="10"
     guidetolerance="10"
     inkscape:pageopacity="0"
     inkscape:pageshadow="2"
     inkscape:window-width="640"
     inkscape:window-height="480"
     id="namedview8"
     showgrid="false"
     inkscape:zoom="6.5555556"
     inkscape:cx="17.955115"
     inkscape:cy="18"
     inkscape:window-x="0"
     inkscape:window-y="0"
     inkscape:window-maximized="0"
     inkscape:current-layer="svg2" />
  <path
     d="m 33.693115,10.839 c -0.799,-5.543 -5.186,-9.78 -12.562,-9.78 -0.293,0 -0.621,0.012 -0.964,0.03 -1.479,0.058 -2.961,0.248 -4.399,0.56 -0.749,0.144 -1.507,0.317 -2.253,0.514 -0.775,-1.051 -2.342,-2.163 -2.736,-2.163 -0.512,0 -0.038,1.871 -0.006,3.052 -0.8799998,0.349 -1.6849998,0.742 -2.3469998,1.183 -3.177,2.118 -3.177,3.177 -6.838,3.177 -1.63200002,0 -1.58800002423,1.658 -1.58800002423,3.705 0,2.046 -0.0439999958,2.618 1.58800002423,3.707 2.183,1.456 4.731,3.612 7.952,5.386 2.0229998,3.147 0.325,6.261 2.0629998,6.261 1.226,0 2.807,-1.964 3.647,-3.944 1.788,0.474 3.732,0.769 5.881,0.769 1.142,0 2.204,-0.089 3.201,-0.245 0.272,1.944 -0.16,3.42 1.035,3.42 1.555,0 6.998,-4.994 8.218,-11.29 0.06,-0.287 0.103,-0.582 0.142,-0.882 0.012,-0.09 0.028,-0.18 0.038,-0.271 0.021,-0.199 0.03,-0.404 0.041,-0.608 1.046,0.275 2.149,0.693 2.149,-0.175 0,-0.705 -1.119,-1.715 -2.262,-2.406 z"
     id="path4"
     inkscape:connector-curvature="0"
     style="fill:#f4abba" />
  <path
     d="m 10.543115,7.412 c 0,0.584 -0.474,1.059 -1.0589998,1.059 -0.584,0 -1.059,-0.474 -1.059,-1.059 0,-0.585 0.474,-1.059 1.059,-1.059 0.5849998,0 1.0589998,0.474 1.0589998,1.059 z"
     id="path6"
     inkscape:connector-curvature="0"
     style="fill:#292f33" />
</svg>
