<?xml version="1.0" encoding="UTF-8" standalone="no"?>
<svg
   xmlns:dc="http://purl.org/dc/elements/1.1/"
   xmlns:cc="http://creativecommons.org/ns#"
   xmlns:rdf="http://www.w3.org/1999/02/22-rdf-syntax-ns#"
   xmlns:svg="http://www.w3.org/2000/svg"
   xmlns="http://www.w3.org/2000/svg"
   xmlns:sodipodi="http://sodipodi.sourceforge.net/DTD/sodipodi-0.dtd"
   xmlns:inkscape="http://www.inkscape.org/namespaces/inkscape"
   viewBox="0 0 34.684586 36.000004"
   id="svg2"
   version="1.1"
   inkscape:version="0.91 r13725"
   sodipodi:docname="1f41b.svg"
   width="34.684586"
   height="36.000004">
  <metadata
     id="metadata18">
    <rdf:RDF>
      <cc:Work
         rdf:about="">
        <dc:format>image/svg+xml</dc:format>
        <dc:type
           rdf:resource="http://purl.org/dc/dcmitype/StillImage" />
      </cc:Work>
    </rdf:RDF>
  </metadata>
  <defs
     id="defs16" />
  <sodipodi:namedview
     pagecolor="#ffffff"
     bordercolor="#666666"
     borderopacity="1"
     objecttolerance="10"
     gridtolerance="10"
     guidetolerance="10"
     inkscape:pageopacity="0"
     inkscape:pageshadow="2"
     inkscape:window-width="640"
     inkscape:window-height="480"
     id="namedview14"
     showgrid="false"
     inkscape:zoom="6.5555556"
     inkscape:cx="17.501694"
     inkscape:cy="18.000004"
     inkscape:window-x="0"
     inkscape:window-y="0"
     inkscape:window-maximized="0"
     inkscape:current-layer="svg2" />
  <path
     d="m 6.9166941,4 c 1,-1 0.25,-4 -1.438,-4 -1.688,0 -1.562,2 -0.562,2 1,0 1,2 1,3 0,1 1,-1 1,-1 z m -4.183,1.72 c 1,-1 0.25,-4 -1.438,-4 -1.68800003,0 -1.56200003,2 -0.56200003,2 1.00000003,0 1.00000003,2 1.00000003,3 0,1 1,-1 1,-1 z"
     id="path4"
     inkscape:connector-curvature="0"
     style="fill:#aa8dd8" />
  <path
     d="m 29.108694,32.856 c 0.189,0.808 1.227,2.28 2.032,2.091 0.806,-0.19 1.077,-1.971 0.888,-2.777 -0.189,-0.808 -0.998,-1.307 -1.804,-1.117 -0.805,0.19 -1.306,0.997 -1.116,1.803 z m -5.434,0.649 c 0.003,0.83 0.681,2.498 1.509,2.495 0.828,-0.004 1.494,-1.677 1.491,-2.506 -0.003,-0.829 -0.677,-1.497 -1.505,-1.495 -0.828,0.004 -1.498,0.677 -1.495,1.506 z m -5.271,-2.446 c -0.326,0.764 -0.365,2.563 0.396,2.89 0.763,0.324 2.037,-0.947 2.363,-1.71 0.325,-0.762 -0.028,-1.643 -0.789,-1.97 -0.762,-0.325 -1.643,0.027 -1.97,0.79 z m -5.031,-11.04 c -0.812,0.172 -2.308,1.173 -2.139,1.983 0.173,0.81 1.945,1.124 2.757,0.953 0.811,-0.171 1.329,-0.967 1.16,-1.777 -0.172,-0.81 -0.965,-1.33 -1.778,-1.159 z m -2.037,-5 c -0.812,0.172 -2.3079999,1.173 -2.1389999,1.983 0.173,0.81 1.9449999,1.124 2.7569999,0.953 0.811,-0.171 1.329,-0.967 1.16,-1.777 -0.172,-0.81 -0.966,-1.33 -1.778,-1.159 z"
     id="path6"
     inkscape:connector-curvature="0"
     style="fill:#744eaa" />
  <path
     d="m 26.745694,34 c 2.831,0 4.926,-0.877 5.266,-1.027 2.271,-1.01 3.293,-3.669 2.284,-5.939 -0.999,-2.25 -3.616,-3.275 -5.872,-2.314 -0.133,0.05 -1.793,0.649 -3.343,-0.072 -1.851,-0.861 -2.995,-3.309 -3.628,-5.209 -0.144,-0.43 -0.385,-1.274 -0.686,-2.316 -1.866,-6.471 -2.832,-8.285 -3.983,-9.82 -3.711,-4.951 -9.5919999,-5.296 -12.4829999,-4.716 -2.437,0.487 -4.01800003,2.858 -3.53000003,5.295 0.48800003,2.438 2.86000003,4.02 5.29600003,3.53 0.162,-0.026 2.204,-0.306 3.424,1.169 0.6429999,1.287 2.0799999,5.128 2.6299999,7.034 0.346,1.199 0.629,2.171 0.794,2.667 1.773,5.317 4.666,8.893 8.603,10.629 1.852,0.818 3.654,1.089 5.228,1.089 z"
     id="path8"
     inkscape:connector-curvature="0"
     style="fill:#9266cc" />
  <circle
     cx="6.1836944"
     cy="5"
     r="1"
     id="circle10"
     style="fill:#ffffff" />
  <path
     d="m 30.424694,32.964 c -0.089,0 -0.18,-0.012 -0.269,-0.036 -0.532,-0.148 -0.844,-0.699 -0.696,-1.231 0.757,-2.722 -0.77,-4.542 -0.785,-4.56 -0.359,-0.419 -0.312,-1.051 0.107,-1.41 0.418,-0.359 1.051,-0.312 1.41,0.107 0.092,0.107 2.234,2.66 1.195,6.397 -0.122,0.443 -0.525,0.733 -0.962,0.733 z m -7.199,-0.563 c -0.245,0 -0.49,-0.089 -0.684,-0.27 -0.403,-0.378 -0.424,-1.011 -0.047,-1.414 1.485,-1.587 1.453,-4.193 1.452,-4.22 -0.016,-0.552 0.419,-1.012 0.972,-1.028 0.542,-0.005 1.013,0.419 1.028,0.972 0.004,0.139 0.073,3.437 -1.991,5.644 -0.197,0.21 -0.464,0.316 -0.73,0.316 z m -8.542,-8.696 c -0.48,0 -0.904,-0.347 -0.985,-0.837 -0.09,-0.544 0.278,-1.06 0.823,-1.149 3.074,-0.51 4.774,-2.377 4.791,-2.396 0.365,-0.41 0.998,-0.449 1.409,-0.084 0.412,0.365 0.453,0.993 0.091,1.406 -0.087,0.099 -2.156,2.415 -5.964,3.046 -0.056,0.01 -0.111,0.014 -0.165,0.014 z m 2.921,4.857 c -0.425,0 -0.819,-0.272 -0.954,-0.698 -0.166,-0.526 0.126,-1.089 0.652,-1.255 2.693,-0.853 3.88,-2.83 3.892,-2.85 0.28,-0.477 0.892,-0.637 1.368,-0.357 0.477,0.279 0.636,0.893 0.357,1.368 -0.063,0.108 -1.595,2.663 -5.013,3.744 -0.101,0.033 -0.203,0.048 -0.302,0.048 z m -4.619,-10.67 c -0.496,0 -0.927,-0.369 -0.991,-0.875 -0.069,-0.548 0.319,-1.048 0.867,-1.118 2.689,-0.34 4.657,-1.971 4.676,-1.988 0.422,-0.354 1.053,-0.303 1.408,0.119 0.356,0.421 0.305,1.05 -0.115,1.407 -0.097,0.083 -2.42,2.029 -5.718,2.446 -0.043,0.006 -0.085,0.009 -0.127,0.009 z m -1.821,-4.767 c -0.425,0 -0.819,-0.273 -0.954,-0.701 -0.165,-0.527 0.127,-1.088 0.654,-1.254 3.13,-0.983 4.253,-2.692 4.299,-2.764 0.295,-0.462 0.911,-0.605 1.375,-0.312 0.465,0.292 0.611,0.899 0.324,1.366 -0.06,0.097 -1.506,2.396 -5.399,3.619 -0.099,0.031 -0.2,0.046 -0.299,0.046 z"
     id="path12"
     inkscape:connector-curvature="0"
     style="fill:#744eaa" />
</svg>
