<?xml version="1.0" encoding="UTF-8" standalone="no"?>
<svg
   xmlns:dc="http://purl.org/dc/elements/1.1/"
   xmlns:cc="http://creativecommons.org/ns#"
   xmlns:rdf="http://www.w3.org/1999/02/22-rdf-syntax-ns#"
   xmlns:svg="http://www.w3.org/2000/svg"
   xmlns="http://www.w3.org/2000/svg"
   xmlns:sodipodi="http://sodipodi.sourceforge.net/DTD/sodipodi-0.dtd"
   xmlns:inkscape="http://www.inkscape.org/namespaces/inkscape"
   viewBox="0 0 36 34.16"
   id="svg2"
   version="1.1"
   inkscape:version="0.91 r13725"
   sodipodi:docname="1f42d.svg"
   width="36"
   height="34.16">
  <metadata
     id="metadata28">
    <rdf:RDF>
      <cc:Work
         rdf:about="">
        <dc:format>image/svg+xml</dc:format>
        <dc:type
           rdf:resource="http://purl.org/dc/dcmitype/StillImage" />
      </cc:Work>
    </rdf:RDF>
  </metadata>
  <defs
     id="defs26" />
  <sodipodi:namedview
     pagecolor="#ffffff"
     bordercolor="#666666"
     borderopacity="1"
     objecttolerance="10"
     gridtolerance="10"
     guidetolerance="10"
     inkscape:pageopacity="0"
     inkscape:pageshadow="2"
     inkscape:window-width="640"
     inkscape:window-height="480"
     id="namedview24"
     showgrid="false"
     inkscape:zoom="6.5555556"
     inkscape:cx="18"
     inkscape:cy="17.16"
     inkscape:window-x="0"
     inkscape:window-y="0"
     inkscape:window-maximized="0"
     inkscape:current-layer="svg2" />
  <circle
     cx="8.5"
     cy="8.5"
     r="8.5"
     id="circle4"
     style="fill:#99aab5" />
  <circle
     cx="27.5"
     cy="8.5"
     r="8.5"
     id="circle6"
     style="fill:#99aab5" />
  <path
     d="m 13.812,9.031 c 0,3.228 -2.617,5.844 -5.844,5.844 -3.227,0 -5.844,-2.616 -5.844,-5.844 0,-3.227 2.617,-5.844 5.844,-5.844 3.227,0 5.844,2.617 5.844,5.844 z m 20.063,0 c 0,3.228 -2.617,5.844 -5.844,5.844 -3.227,0 -5.844,-2.616 -5.844,-5.844 0,-3.227 2.617,-5.844 5.844,-5.844 3.227,0.001 5.844,2.617 5.844,5.844 z"
     id="path8"
     inkscape:connector-curvature="0"
     style="fill:#f4abba" />
  <path
     d="M 30,17 C 30,24.18 22,32 18,32 14,32 6,24.18 6,17 6,9.82 13,8 18,8 c 5,0 12,1.82 12,9 z"
     id="path10"
     inkscape:connector-curvature="0"
     style="fill:#99aab5" />
  <path
     d="M 20.905,28.648 C 20.905,30.252 18.894,32 18,32 c -0.894,0 -2.905,-1.748 -2.905,-3.352 0,-1.605 1.788,-1.956 2.905,-1.956 1.117,0 2.905,0.351 2.905,1.956 z"
     id="path12"
     inkscape:connector-curvature="0"
     style="fill:#f4abba" />
  <g
     id="g14"
     style="fill:#66757f"
     transform="translate(0,-1)">
    <path
       d="m 34.999,32.16 c -0.175,0 -0.353,-0.046 -0.514,-0.143 C 29.857,29.24 23.207,30.14 23.14,30.15 c -0.559,0.079 -1.053,-0.304 -1.13,-0.85 -0.078,-0.547 0.302,-1.053 0.848,-1.131 0.301,-0.042 7.411,-1.014 12.656,2.133 0.474,0.284 0.627,0.898 0.343,1.372 -0.187,0.313 -0.518,0.486 -0.858,0.486 z"
       id="path16"
       inkscape:connector-curvature="0" />
    <path
       d="m 32.001,35.16 c -0.305,0 -0.604,-0.138 -0.801,-0.4 -2.728,-3.637 -8.309,-4.604 -8.364,-4.613 -0.545,-0.091 -0.913,-0.606 -0.822,-1.15 0.09,-0.545 0.606,-0.92 1.15,-0.822 0.262,0.044 6.433,1.115 9.636,5.387 0.332,0.441 0.242,1.068 -0.2,1.399 -0.18,0.134 -0.39,0.199 -0.599,0.199 z m -31,-3 c -0.34,0 -0.671,-0.173 -0.858,-0.485 -0.284,-0.474 -0.131,-1.088 0.343,-1.372 5.244,-3.146 12.355,-2.175 12.656,-2.133 0.546,0.078 0.926,0.584 0.848,1.131 -0.078,0.547 -0.582,0.93 -1.13,0.85 C 12.794,30.142 6.143,29.242 1.515,32.018 1.354,32.114 1.176,32.16 1.001,32.16 Z"
       id="path18"
       inkscape:connector-curvature="0" />
    <path
       d="M 3.999,35.16 C 3.791,35.16 3.58,35.095 3.4,34.96 2.958,34.629 2.869,34.002 3.2,33.561 c 3.203,-4.271 9.375,-5.343 9.635,-5.387 0.548,-0.097 1.059,0.276 1.15,0.821 0.091,0.544 -0.276,1.06 -0.82,1.151 -0.056,0.01 -5.648,0.991 -8.366,4.613 -0.195,0.263 -0.496,0.401 -0.8,0.401 z"
       id="path20"
       inkscape:connector-curvature="0" />
  </g>
  <path
     d="m 12,20 c 0,0 0,-2 2,-2 2,0 2,2 2,2 l 0,2 c 0,0 0,2 -2,2 -2,0 -2,-2 -2,-2 l 0,-2 z m 8,0 c 0,0 0,-2 2,-2 2,0 2,2 2,2 l 0,2 c 0,0 0,2 -2,2 -2,0 -2,-2 -2,-2 l 0,-2 z"
     id="path22"
     inkscape:connector-curvature="0"
     style="fill:#272b2b" />
</svg>
