<?xml version="1.0" encoding="UTF-8" standalone="no"?>
<svg
   xmlns:dc="http://purl.org/dc/elements/1.1/"
   xmlns:cc="http://creativecommons.org/ns#"
   xmlns:rdf="http://www.w3.org/1999/02/22-rdf-syntax-ns#"
   xmlns:svg="http://www.w3.org/2000/svg"
   xmlns="http://www.w3.org/2000/svg"
   xmlns:sodipodi="http://sodipodi.sourceforge.net/DTD/sodipodi-0.dtd"
   xmlns:inkscape="http://www.inkscape.org/namespaces/inkscape"
   viewBox="0 0 34.986687 32.54879"
   id="svg2"
   version="1.1"
   inkscape:version="0.91 r13725"
   sodipodi:docname="1f42a.svg"
   width="34.986687"
   height="32.54879">
  <metadata
     id="metadata12">
    <rdf:RDF>
      <cc:Work
         rdf:about="">
        <dc:format>image/svg+xml</dc:format>
        <dc:type
           rdf:resource="http://purl.org/dc/dcmitype/StillImage" />
      </cc:Work>
    </rdf:RDF>
  </metadata>
  <defs
     id="defs10" />
  <sodipodi:namedview
     pagecolor="#ffffff"
     bordercolor="#666666"
     borderopacity="1"
     objecttolerance="10"
     gridtolerance="10"
     guidetolerance="10"
     inkscape:pageopacity="0"
     inkscape:pageshadow="2"
     inkscape:window-width="640"
     inkscape:window-height="480"
     id="namedview8"
     showgrid="false"
     inkscape:zoom="6.5555556"
     inkscape:cx="16.992688"
     inkscape:cy="17.274327"
     inkscape:window-x="0"
     inkscape:window-y="0"
     inkscape:window-maximized="0"
     inkscape:current-layer="svg2" />
  <path
     d="m 30.587688,12.281464 c -1.75,-3.6230001 -5.934,-9.0530001 -9.531,-9.0530001 -4.071,0 -8.228,7.2590001 -10.071,10.3780001 -0.176,0.299 -0.321,0.578 -0.464,0.857 -3.3709998,-1.182 -0.5359998,-6.6310001 -0.5359998,-10.4630001 0,-0.957 -0.138,-1.637 -0.44,-2.119 0.4889998,-0.606 0.5859998,-1.34700002 0.192,-1.69900002 -0.413,-0.367 -1.195,-0.163 -1.745,0.456 -0.08,0.089 -0.129,0.186 -0.189,0.28 -0.424,-0.067 -0.903,-0.102 -1.472,-0.102 -0.565,0 -2.916,0.26600002 -4.229,0.79100002 -3.117,1.249 -2.11699999,4.667 -1.11699999,4.667 l 3.99999999,0 c 1,0 0.756,2.31 0,4.7260001 -0.83,2.654 -1.439,5.145 -1,6.606 0.808,2.687 3.712,3.589 6.1639998,3.86 1.059,2.659 1.517,6.455 1.473,7.962 -0.059,2 1.94,2.059 1.999,0.059 0.036,-1.211 -0.102,-3.68 0.143,-5.781 0.658,2.833 0.935,6.097 0.899,7.314 -0.059,1.998 1.94,2.057 1.999,0.059 0.047,-1.602 -0.182,-6.36 0.559,-8.982 0.507,0.017 1.044,0.03 1.619,0.035 1.774,0.09 3.726,0.085 5.506,-0.015 1.05,1.592 1.996,2.991 1.982,3.435 -0.029,1 -1.117,3.969 -1.146,4.969 -0.029,1 0.94,2.029 1.999,0.059 0.648,-1.205 1.324,-3.419 1.536,-5.421 0.171,0.364 0.274,0.656 0.269,0.843 -0.029,1 -0.97,3.93 -0.999,4.93 -0.029,0.998 0.941,2.027 1.999,0.059 1.059,-1.971 1.998,-4.898 1.058,-6.928 -0.797,-1.72 0.431,-4.165 0.824,-7.914 1.082,1.665 1.117,3.351 1.118,3.459 0,0.553 0.447,1 1,1 0.553,0 1,-0.447 1,-1 -10e-4,-0.215 -0.067,-4.85 -4.399,-7.327 z"
     id="path4"
     inkscape:connector-curvature="0"
     style="fill:#c1694f" />
  <path
     d="m 7.2726882,2.8454639 c -0.016,0.552 -0.477,0.986 -1.029,0.97 -0.552,-0.016 -0.986,-0.477 -0.97,-1.029 0.016,-0.552 0.477,-0.986 1.029,-0.97 0.552,0.016 0.986,0.477 0.97,1.029 z"
     id="path6"
     inkscape:connector-curvature="0"
     style="fill:#292f33" />
</svg>
