<?xml version="1.0" encoding="UTF-8" standalone="no"?>
<svg
   xmlns:dc="http://purl.org/dc/elements/1.1/"
   xmlns:cc="http://creativecommons.org/ns#"
   xmlns:rdf="http://www.w3.org/1999/02/22-rdf-syntax-ns#"
   xmlns:svg="http://www.w3.org/2000/svg"
   xmlns="http://www.w3.org/2000/svg"
   xmlns:sodipodi="http://sodipodi.sourceforge.net/DTD/sodipodi-0.dtd"
   xmlns:inkscape="http://www.inkscape.org/namespaces/inkscape"
   viewBox="0 0 33.117134 35.805061"
   id="svg2"
   version="1.1"
   inkscape:version="0.91 r13725"
   sodipodi:docname="1f42c.svg"
   width="33.117134"
   height="35.805061">
  <metadata
     id="metadata16">
    <rdf:RDF>
      <cc:Work
         rdf:about="">
        <dc:format>image/svg+xml</dc:format>
        <dc:type
           rdf:resource="http://purl.org/dc/dcmitype/StillImage" />
      </cc:Work>
    </rdf:RDF>
  </metadata>
  <defs
     id="defs14" />
  <sodipodi:namedview
     pagecolor="#ffffff"
     bordercolor="#666666"
     borderopacity="1"
     objecttolerance="10"
     gridtolerance="10"
     guidetolerance="10"
     inkscape:pageopacity="0"
     inkscape:pageshadow="2"
     inkscape:window-width="640"
     inkscape:window-height="480"
     id="namedview12"
     showgrid="false"
     inkscape:zoom="6.5555556"
     inkscape:cx="16.558133"
     inkscape:cy="17.805061"
     inkscape:window-x="0"
     inkscape:window-y="0"
     inkscape:window-maximized="0"
     inkscape:current-layer="svg2" />
  <path
     d="m 29.142133,7.854 c 0.27,-1.729 1.028,-3.908 2.975,-5.854 0.704,-0.704 0.25,-2 -1,-2 0,0 -6.061,0.007 -9.893,3.327 -1.003,-0.212 -2.041,-0.327 -3.107,-0.327 -8,0 -12.0000004,4 -14.0000004,12 -0.444,1.778 -0.865,1.399 -3,3 -1.19499997,0.896 -2.11699997,3 1,3 3,0 5,0.954 9.0000004,1 3.629,0.042 9.504,-3.229 11.087,-1.292 2.211,2.706 1.396,5.438 0.597,6.666 -2.904,3.396 -5.939,0.541 -8.685,-0.374 -3,-1 -1,1 0,2 1,1 1.312,4 0,6 -1.312,2 3,0 5,-3 0.011,-0.017 0.022,-0.028 0.032,-0.045 7.802,-0.455 13.969,-6.019 13.969,-13.955 0,-3.918 -1.515,-7.474 -3.975,-10.146 z"
     id="path4"
     inkscape:connector-curvature="0"
     style="fill:#4292e0" />
  <circle
     cx="11.675132"
     cy="14"
     r="2"
     id="circle6"
     style="fill:#1f2326" />
  <path
     d="m 8.9541326,21.896 c 0,0 4.0000004,-0.876 7.1670004,-2.688 4.625,-2.646 7.26,-2.594 8.885,-0.823 1.625,1.771 1.99,6.594 -2.885,9.677 2.604,-2.75 1.146,-8.349 -2.014,-7.588 -8.153,1.964 -8.903,1.547 -11.1530004,1.422 z"
     id="path8"
     inkscape:connector-curvature="0"
     style="fill:#77bcf7" />
  <path
     d="m 17.941133,17.744 -2.922,1.285 c -0.254,0.064 -0.433,0.3 -0.412,0.561 0.122,1.504 0.756,3.625 2.263,4.629 2.354,1.569 2.367,1.897 3,0 0.768,-2.303 -0.182,-4.462 -1.333,-6.24 -0.127,-0.196 -0.37,-0.293 -0.596,-0.235 z"
     id="path10"
     inkscape:connector-curvature="0"
     style="fill:#4292e0" />
</svg>
