<?xml version="1.0" encoding="UTF-8" standalone="no"?>
<svg
   xmlns:dc="http://purl.org/dc/elements/1.1/"
   xmlns:cc="http://creativecommons.org/ns#"
   xmlns:rdf="http://www.w3.org/1999/02/22-rdf-syntax-ns#"
   xmlns:svg="http://www.w3.org/2000/svg"
   xmlns="http://www.w3.org/2000/svg"
   xmlns:sodipodi="http://sodipodi.sourceforge.net/DTD/sodipodi-0.dtd"
   xmlns:inkscape="http://www.inkscape.org/namespaces/inkscape"
   viewBox="0 0 35.640301 36"
   id="svg2"
   version="1.1"
   inkscape:version="0.91 r13725"
   sodipodi:docname="1f420.svg"
   width="35.640301"
   height="36">
  <metadata
     id="metadata20">
    <rdf:RDF>
      <cc:Work
         rdf:about="">
        <dc:format>image/svg+xml</dc:format>
        <dc:type
           rdf:resource="http://purl.org/dc/dcmitype/StillImage" />
      </cc:Work>
    </rdf:RDF>
  </metadata>
  <defs
     id="defs18" />
  <sodipodi:namedview
     pagecolor="#ffffff"
     bordercolor="#666666"
     borderopacity="1"
     objecttolerance="10"
     gridtolerance="10"
     guidetolerance="10"
     inkscape:pageopacity="0"
     inkscape:pageshadow="2"
     inkscape:window-width="640"
     inkscape:window-height="480"
     id="namedview16"
     showgrid="false"
     inkscape:zoom="6.5555556"
     inkscape:cx="17.999256"
     inkscape:cy="18"
     inkscape:window-x="0"
     inkscape:window-y="0"
     inkscape:window-maximized="0"
     inkscape:current-layer="svg2" />
  <path
     d="M 8.2302565,10 C 14.230256,2 22.230256,0 26.230256,0 c 1,0 1,1 0,1 -1,0 -6,2 -7,9 -1,7 -10.9999995,0 -10.9999995,0 z m -1,18 c 3.9999995,3 12.9999995,8 17.9999995,8 3,0 2,-1 1,-1 -1,0 -9,-3 -10,-7 -1,-4 -8.9999995,0 -8.9999995,0 z"
     id="path4"
     inkscape:connector-curvature="0"
     style="fill:#ffac33" />
  <path
     d="m 34.999256,9 c -1.611,0 -4.059,2.972 -5.268,6.294 -1.475,-5.62 -6.166,-10.739 -12.945,-10.739 -8.2729995,0 -12.0609995,10.216 -14.5239995,14.479 -0.629,1.091 -4.091,1.034 -0.989,3.103 -3.103,2.068 0.449,2.243 1.222,3.103 2.625,2.92 8.9969995,6.205 14.2909995,6.205 5.655,0 11.12,-3.786 12.863,-8.958 1.178,3.409 3.703,6.513 5.35,6.513 2.209,0 -2,-5.582 -2,-10 0,-4.418 4.209,-10 2,-10 z"
     id="path6"
     inkscape:connector-curvature="0"
     style="fill:#ffcc4d" />
  <g
     id="g8"
     style="fill:#f4900c"
     transform="translate(-7.435483e-4,0)">
    <path
       d="m 18.001,17.967 c -0.019,0.552 0.414,1.015 0.966,1.032 L 19.001,19 c 0.536,0 0.98,-0.426 0.998,-0.967 0.201,-6.065 5.758,-8.816 6.35,-9.092 -0.466,-0.525 -0.968,-1.018 -1.51,-1.467 -1.885,1.057 -6.634,4.323 -6.838,10.493 z m 5.018,-2.163 c -0.108,0.542 0.243,1.068 0.784,1.177 0.067,0.013 0.132,0.019 0.198,0.019 0.467,0 0.885,-0.329 0.98,-0.804 0.516,-2.581 2.296,-3.574 3.592,-3.956 -0.305,-0.609 -0.645,-1.202 -1.028,-1.768 -1.877,0.691 -3.908,2.246 -4.526,5.332 z"
       id="path10"
       inkscape:connector-curvature="0" />
    <path
       d="m 13,20 c 0,0.553 0.448,1 1,1 0.552,0 1,-0.447 1,-1 C 15,11.03 20.841,7.456 23.266,6.359 22.573,5.94 21.842,5.574 21.061,5.292 17.888,7.169 13,11.446 13,20 Z"
       id="path12"
       inkscape:connector-curvature="0" />
  </g>
  <circle
     cx="9.4992561"
     cy="15.5"
     r="1.5"
     id="circle14"
     style="fill:#292f33" />
</svg>
