<?xml version="1.0" encoding="UTF-8" standalone="no"?>
<svg
   xmlns:dc="http://purl.org/dc/elements/1.1/"
   xmlns:cc="http://creativecommons.org/ns#"
   xmlns:rdf="http://www.w3.org/1999/02/22-rdf-syntax-ns#"
   xmlns:svg="http://www.w3.org/2000/svg"
   xmlns="http://www.w3.org/2000/svg"
   xmlns:sodipodi="http://sodipodi.sourceforge.net/DTD/sodipodi-0.dtd"
   xmlns:inkscape="http://www.inkscape.org/namespaces/inkscape"
   viewBox="0 0 33.751038 32.929447"
   id="svg2"
   version="1.1"
   inkscape:version="0.91 r13725"
   sodipodi:docname="1f424.svg"
   width="33.751038"
   height="32.929447">
  <metadata
     id="metadata18">
    <rdf:RDF>
      <cc:Work
         rdf:about="">
        <dc:format>image/svg+xml</dc:format>
        <dc:type
           rdf:resource="http://purl.org/dc/dcmitype/StillImage" />
      </cc:Work>
    </rdf:RDF>
  </metadata>
  <defs
     id="defs16" />
  <sodipodi:namedview
     pagecolor="#ffffff"
     bordercolor="#666666"
     borderopacity="1"
     objecttolerance="10"
     gridtolerance="10"
     guidetolerance="10"
     inkscape:pageopacity="0"
     inkscape:pageshadow="2"
     inkscape:window-width="640"
     inkscape:window-height="480"
     id="namedview14"
     showgrid="false"
     inkscape:zoom="6.5555556"
     inkscape:cx="16"
     inkscape:cy="17.929728"
     inkscape:window-x="0"
     inkscape:window-y="0"
     inkscape:window-maximized="0"
     inkscape:current-layer="svg2" />
  <path
     d="m 6.512,12.929721 c 0,1.657 1.974,2 -0.512,2 -2.485,0 -6,-1 -6,-2 0,-1 1.526,-3 4.012,-3 2.486,0 2.5,1.343 2.5,3 z"
     id="path4"
     inkscape:connector-curvature="0"
     style="fill:#f4900c" />
  <path
     d="m 25.88,30.026721 c -0.098,-0.18 -0.25,-0.302 -0.418,-0.391 -1.597,-1.705 -0.462,-3.706 -0.462,-3.706 0,-0.553 1,-2 0,-2 l -1,1 c -1,1 -1,4 -1,4 l -2,0 c -0.553,0 -1,0.447 -1,1 0,0.553 0.447,1 1,1 l 1.107,0 -0.222,0.12 c -0.486,0.263 -0.667,0.869 -0.404,1.355 0.263,0.486 0.869,0.667 1.356,0.404 l 2.639,-1.427 c 0.486,-0.262 0.667,-0.868 0.404,-1.355 z m -7,0 c -0.098,-0.18 -0.25,-0.302 -0.418,-0.391 -1.597,-1.705 -0.462,-3.706 -0.462,-3.706 0,-0.553 1,-2 0,-2 l -1,1 c -1,1 -1,4 -1,4 l -2,0 c -0.553,0 -1,0.447 -1,1 0,0.553 0.447,1 1,1 l 1.108,0 -0.222,0.12 c -0.486,0.263 -0.667,0.869 -0.404,1.355 0.263,0.486 0.869,0.667 1.356,0.404 l 2.639,-1.427 c 0.485,-0.262 0.666,-0.868 0.403,-1.355 z"
     id="path6"
     inkscape:connector-curvature="0"
     style="fill:#ffac33" />
  <path
     d="m 33.217,14.304721 c -1.342,0 -7.904,4.613 -11.553,-5.375 -0.005,-0.014 -0.012,-0.024 -0.018,-0.038 -0.956,-3.453 -3.809,-6.113 -7.367,-6.789 l -0.037,-0.042 C 16.389,0.68372099 17,1.706721 17,0.92972099 c 0,-1.179 -2.083,-1.303 -4,0.012 -1.917,-1.315 -4,-1.191 -4,-0.012 0,0.76100001 0.583,-0.208 2.623,1.04400001 -4.835,0.443 -8.623,4.505 -8.623,9.456 0,4.478 3.103,8.223 7.273,9.227 1.003,4.171 4.748,7.273 9.227,7.273 3.953,0 6.934,-1.678 8.99,-3.999 0.555,-0.626 0.111,0.602 0.842,0.235 4.24,-2.132 5.168,-9.861 3.885,-9.861 z"
     id="path8"
     inkscape:connector-curvature="0"
     style="fill:#ffcc4d" />
  <circle
     cx="10.5"
     cy="10.429721"
     r="1.5"
     id="circle10"
     style="fill:#662113" />
  <path
     d="m 19.81,12.929721 c 0,0 -2,10 10,10 1,0 0,2 -4,2 -4,0 -9.999,-5 -7,-11 0.633,-1.265 1,-1 1,-1 z"
     id="path12"
     inkscape:connector-curvature="0"
     style="fill:#ffac33" />
</svg>
