<?xml version="1.0" encoding="UTF-8" standalone="no"?>
<svg
   xmlns:dc="http://purl.org/dc/elements/1.1/"
   xmlns:cc="http://creativecommons.org/ns#"
   xmlns:rdf="http://www.w3.org/1999/02/22-rdf-syntax-ns#"
   xmlns:svg="http://www.w3.org/2000/svg"
   xmlns="http://www.w3.org/2000/svg"
   xmlns:sodipodi="http://sodipodi.sourceforge.net/DTD/sodipodi-0.dtd"
   xmlns:inkscape="http://www.inkscape.org/namespaces/inkscape"
   viewBox="0 0 36 25.938"
   id="svg2"
   version="1.1"
   inkscape:version="0.91 r13725"
   sodipodi:docname="1f428.svg"
   width="36"
   height="25.938">
  <metadata
     id="metadata18">
    <rdf:RDF>
      <cc:Work
         rdf:about="">
        <dc:format>image/svg+xml</dc:format>
        <dc:type
           rdf:resource="http://purl.org/dc/dcmitype/StillImage" />
      </cc:Work>
    </rdf:RDF>
  </metadata>
  <defs
     id="defs16" />
  <sodipodi:namedview
     pagecolor="#ffffff"
     bordercolor="#666666"
     borderopacity="1"
     objecttolerance="10"
     gridtolerance="10"
     guidetolerance="10"
     inkscape:pageopacity="0"
     inkscape:pageshadow="2"
     inkscape:window-width="640"
     inkscape:window-height="480"
     id="namedview14"
     showgrid="false"
     inkscape:zoom="6.5555556"
     inkscape:cx="18"
     inkscape:cy="14"
     inkscape:window-x="0"
     inkscape:window-y="0"
     inkscape:window-maximized="0"
     inkscape:current-layer="svg2" />
  <path
     d="M 36,7.471 C 36,2.805 32.866,0.938 29,0.938 27.379,0.938 25.715,1.292 24.324,1.965 22.523,0.736 20.405,0 18,0 15.595,0 13.477,0.736 11.676,1.965 10.285,1.292 8.621,0.938 7,0.938 c -3.866,0 -7,1.867 -7,6.533 0,3.844 2.128,6.417 5.038,7.206 -0.043,0.536 -0.068,1.073 -0.068,1.611 0,5.729 4.52,7.675 8.581,8.326 1.098,0.811 2.681,1.324 4.449,1.324 1.768,0 3.351,-0.513 4.449,-1.323 4.062,-0.651 8.581,-2.597 8.581,-8.326 0,-0.538 -0.025,-1.075 -0.068,-1.611 C 33.872,13.888 36,11.315 36,7.471 Z"
     id="path4"
     inkscape:connector-curvature="0"
     style="fill:#99aab5" />
  <path
     d="M 9.554,3.792 C 9.236,3.759 8.917,3.738 8.6,3.738 5.507,3.738 3,5.231 3,8.964 3,11.118 3.838,12.772 5.138,13.788 5.611,9.991 7.143,6.372 9.554,3.792 Z M 27.4,3.738 c -0.317,0 -0.637,0.021 -0.955,0.054 2.412,2.58 3.943,6.199 4.416,9.997 C 32.162,12.772 33,11.119 33,8.964 33,5.231 30.493,3.738 27.4,3.738 Z"
     id="path6"
     inkscape:connector-curvature="0"
     style="fill:#66757f" />
  <path
     d="m 21.728,18.745 c 0,3.345 -1.728,4.193 -3.728,4.193 -2,0 -3.727,-0.848 -3.727,-4.193 0,-3.345 1.727,-6.057 3.727,-6.057 2,0 3.728,2.712 3.728,6.057 z"
     id="path8"
     inkscape:connector-curvature="0"
     style="fill:#292f33" />
  <circle
     cx="12.5"
     cy="13.813"
     r="1.5"
     id="circle10"
     style="fill:#292f33" />
  <circle
     cx="23.5"
     cy="13.813"
     r="1.5"
     id="circle12"
     style="fill:#292f33" />
</svg>
