<?xml version="1.0" encoding="UTF-8" standalone="no"?>
<svg
   xmlns:dc="http://purl.org/dc/elements/1.1/"
   xmlns:cc="http://creativecommons.org/ns#"
   xmlns:rdf="http://www.w3.org/1999/02/22-rdf-syntax-ns#"
   xmlns:svg="http://www.w3.org/2000/svg"
   xmlns="http://www.w3.org/2000/svg"
   xmlns:sodipodi="http://sodipodi.sourceforge.net/DTD/sodipodi-0.dtd"
   xmlns:inkscape="http://www.inkscape.org/namespaces/inkscape"
   viewBox="0 0 31.659361 36.000523"
   id="svg2"
   version="1.1"
   inkscape:version="0.91 r13725"
   sodipodi:docname="1f430.svg"
   width="31.659361"
   height="36.000523">
  <metadata
     id="metadata22">
    <rdf:RDF>
      <cc:Work
         rdf:about="">
        <dc:format>image/svg+xml</dc:format>
        <dc:type
           rdf:resource="http://purl.org/dc/dcmitype/StillImage" />
      </cc:Work>
    </rdf:RDF>
  </metadata>
  <defs
     id="defs20" />
  <sodipodi:namedview
     pagecolor="#ffffff"
     bordercolor="#666666"
     borderopacity="1"
     objecttolerance="10"
     gridtolerance="10"
     guidetolerance="10"
     inkscape:pageopacity="0"
     inkscape:pageshadow="2"
     inkscape:window-width="640"
     inkscape:window-height="480"
     id="namedview18"
     showgrid="false"
     inkscape:zoom="6.5555556"
     inkscape:cx="15.829621"
     inkscape:cy="18.000003"
     inkscape:window-x="0"
     inkscape:window-y="0"
     inkscape:window-maximized="0"
     inkscape:current-layer="svg2" />
  <path
     d="m 31.628621,0.005521 c -0.467,-0.178 -7.998,3.971 -9.969,9.131 -1.166,3.052 -1.686,6.058 -1.652,8.112 -1.469,-0.789 -2.921,-1.248 -4.178,-1.248 -1.257,0 -2.709,0.458 -4.178,1.249 0.033,-2.055 -0.486,-5.061 -1.6519995,-8.112 -1.97,-5.16 -9.50200002,-9.31 -9.96900002,-9.132 -0.455,0.174 4.26800002,16.044 7.02500002,20.838 -2.421,2.562 -4.226,5.818 -4.226,8.985 0,3.234 1.635,5.14 4,5.94 2.531,0.857 4.9999995,-0.94 8.9999995,-0.94 4,0 6.469,1.798 9,0.94 2.365,-0.801 4,-2.706 4,-5.94 0,-3.166 -1.805,-6.423 -4.225,-8.984 2.755,-4.795 7.48,-20.665 7.024,-20.839 z"
     id="path4"
     inkscape:connector-curvature="0"
     style="fill:#99aab5" />
  <path
     d="m 10.521621,17.922521 c -0.178,-1.54 -0.6799995,-3.55 -1.4569995,-5.584 -1.534,-4.016 -5.686,-7.245 -6.049,-7.107 -0.319,0.122 2.627,10.14 4.783,14.863 0.866,-0.824 1.786,-1.563 2.7229995,-2.172 z m 13.338,2.172 c 2.156,-4.723 5.102,-14.741 4.784,-14.862 -0.363,-0.139 -4.516,3.091 -6.05,7.107 -0.777,2.034 -1.279,4.043 -1.457,5.583 0.937,0.609 1.857,1.348 2.723,2.172 z"
     id="path6"
     inkscape:connector-curvature="0"
     style="fill:#f4abba" />
  <path
     d="m 22.829621,30.000521 c 0,2.762 -3.06,5 -6.834,5 -3.773,0 -6.8329995,-2.238 -6.8329995,-5 0,-2.762 3.0599995,-5 6.8329995,-5 3.774,0 6.834,2.238 6.834,5 z"
     id="path8"
     inkscape:connector-curvature="0"
     style="fill:#ccd6dd" />
  <path
     d="m 18.829621,30.578521 c 0,2.762 -0.238,3 -3,3 -2.761,0 -3,-0.238 -3,-3 0,-1 6,-1 6,0 z"
     id="path10"
     inkscape:connector-curvature="0"
     style="fill:#ffffff" />
  <circle
     cx="10.329621"
     cy="24.32852"
     r="1.5"
     id="circle12"
     style="fill:#292f33" />
  <circle
     cx="21.329622"
     cy="24.32852"
     r="1.5"
     id="circle14"
     style="fill:#292f33" />
  <path
     d="m 18.829621,25.828521 c 0,1.657 -2,3 -3,3 -1,0 -3,-1.343 -3,-3 0,-1.657 6,-1.657 6,0 z"
     id="path16"
     inkscape:connector-curvature="0"
     style="fill:#f4abba" />
</svg>
