<?xml version="1.0" encoding="UTF-8" standalone="no"?>
<svg
   xmlns:dc="http://purl.org/dc/elements/1.1/"
   xmlns:cc="http://creativecommons.org/ns#"
   xmlns:rdf="http://www.w3.org/1999/02/22-rdf-syntax-ns#"
   xmlns:svg="http://www.w3.org/2000/svg"
   xmlns="http://www.w3.org/2000/svg"
   xmlns:sodipodi="http://sodipodi.sourceforge.net/DTD/sodipodi-0.dtd"
   xmlns:inkscape="http://www.inkscape.org/namespaces/inkscape"
   viewBox="0 0 33.033287 33.215378"
   id="svg2"
   version="1.1"
   inkscape:version="0.91 r13725"
   sodipodi:docname="1f431.svg"
   width="33.033287"
   height="33.215378">
  <metadata
     id="metadata28">
    <rdf:RDF>
      <cc:Work
         rdf:about="">
        <dc:format>image/svg+xml</dc:format>
        <dc:type
           rdf:resource="http://purl.org/dc/dcmitype/StillImage" />
      </cc:Work>
    </rdf:RDF>
  </metadata>
  <defs
     id="defs26" />
  <sodipodi:namedview
     pagecolor="#ffffff"
     bordercolor="#666666"
     borderopacity="1"
     objecttolerance="10"
     gridtolerance="10"
     guidetolerance="10"
     inkscape:pageopacity="0"
     inkscape:pageshadow="2"
     inkscape:window-width="640"
     inkscape:window-height="480"
     id="namedview24"
     showgrid="false"
     inkscape:zoom="6.5555556"
     inkscape:cx="16.516643"
     inkscape:cy="16.999"
     inkscape:window-x="0"
     inkscape:window-y="0"
     inkscape:window-maximized="0"
     inkscape:current-layer="svg2" />
  <path
     d="m 30.864643,12.215378 c 0,0 3.445,-8.8120003 1.651,-11.99800031 -0.604,-1.073 -8,1.99800001 -10.723,5.44200001 0,0 -2.586,-0.86 -5.276,-0.86 -2.69,0 -5.276,0.86 -5.276,0.86 C 8.5176429,2.2153777 1.1216429,-0.85562231 0.51764288,0.21737769 -1.2763571,3.4033777 2.1686429,12.215378 2.1686429,12.215378 c -0.897,1.722 -1.23300002,4.345 -1.55500002,7.16 -0.354,3.086 0.35,5.546 0.65800002,6.089 0.35,0.617 2.123,2.605 4.484,4.306 3.587,2.583 8.9670001,3.445 10.7610001,3.445 1.794,0 7.174,-0.861 10.761,-3.445 2.361,-1.701 4.134,-3.689 4.484,-4.306 0.308,-0.543 1.012,-3.003 0.659,-6.089 -0.324,-2.814 -0.659,-5.438 -1.556,-7.16 z"
     id="path4"
     inkscape:connector-curvature="0"
     style="fill:#ffcc4d" />
  <path
     d="m 0.87564288,1.1873777 c 0.20000002,-0.59900001 5.34800002,2.173 6.51800002,5.404 0,0 -3.808,2.624 -4.528,4.6240003 0,0 -2.99000002,-7.0280003 -1.99000002,-10.0280003 z"
     id="path6"
     inkscape:connector-curvature="0"
     style="fill:#f18f26" />
  <path
     d="m 4.4966429,5.4773777 c 0,-1.414 5.457,2.733 4.457,3.733 -1,1.0000003 -1.255,0.72 -2.255,1.7200003 -1,1 -2.202,-4.4530003 -2.202,-5.4530003 z"
     id="path8"
     inkscape:connector-curvature="0"
     style="fill:#ffcc4d" />
  <path
     d="m 32.157643,1.1873777 c -0.2,-0.59900001 -5.348,2.173 -6.518,5.404 0,0 3.808,2.624 4.528,4.6240003 0,0 2.99,-7.0280003 1.99,-10.0280003 z"
     id="path10"
     inkscape:connector-curvature="0"
     style="fill:#f18f26" />
  <path
     d="m 28.536643,5.4773777 c 0,-1.414 -5.457,2.733 -4.457,3.733 1,1.0000003 1.255,0.72 2.255,1.7200003 1,1 2.202,-4.4530003 2.202,-5.4530003 z"
     id="path12"
     inkscape:connector-curvature="0"
     style="fill:#ffcc4d" />
  <path
     d="m 12.517643,18.217378 c 0,1.105 -0.896,1.999 -2,1.999 -1.1040001,0 -2.0000001,-0.894 -2.0000001,-1.999 0,-1.104 0.896,-1.999 2.0000001,-1.999 1.104,0 2,0.896 2,1.999 z m 11.998,0 c 0,1.105 -0.896,1.999 -2,1.999 -1.105,0 -2,-0.894 -2,-1.999 0,-1.104 0.895,-1.999 2,-1.999 1.105,0 2,0.896 2,1.999 z"
     id="path14"
     inkscape:connector-curvature="0"
     style="fill:#292f33" />
  <path
     d="m 0.71764288,28.674378 c -0.148,0 -0.294,-0.065 -0.393,-0.19 -0.171,-0.217 -0.134,-0.531 0.083,-0.702 0.162,-0.127 4.02000002,-3.12 10.64800012,-2.605 0.275,0.021 0.481,0.261 0.46,0.536 -0.021,0.275 -0.257,0.501 -0.537,0.46 -6.2330001,-0.474 -9.9150001,2.366 -9.9510001,2.395 -0.093,0.07 -0.20200002,0.106 -0.31000002,0.106 z m 8.86800002,-4.663 c -0.049,0 -0.1,-0.007 -0.149,-0.022 -4.79,-1.497 -8.73700002,-0.347 -8.77700002,-0.336 -0.265,0.081 -0.543,-0.07 -0.623,-0.335 -0.079,-0.265 0.071,-0.543 0.335,-0.622 0.173,-0.052 4.28600002,-1.247 9.36200002,0.338 0.264,0.083 0.4110001,0.363 0.3280001,0.627 -0.066,0.213 -0.2630001,0.35 -0.4760001,0.35 z m 22.7300001,4.663 c 0.148,0 0.294,-0.065 0.393,-0.19 0.171,-0.217 0.134,-0.531 -0.083,-0.702 -0.162,-0.127 -4.02,-3.12 -10.648,-2.605 -0.275,0.021 -0.481,0.261 -0.46,0.536 0.022,0.275 0.257,0.501 0.537,0.46 6.233,-0.474 9.915,2.366 9.951,2.395 0.093,0.07 0.202,0.106 0.31,0.106 z m -8.868,-4.663 c 0.049,0 0.1,-0.007 0.149,-0.022 4.79,-1.497 8.737,-0.347 8.777,-0.336 0.265,0.081 0.543,-0.07 0.623,-0.335 0.079,-0.265 -0.071,-0.543 -0.335,-0.622 -0.173,-0.052 -4.286,-1.247 -9.362,0.338 -0.264,0.083 -0.411,0.363 -0.328,0.627 0.066,0.213 0.263,0.35 0.476,0.35 z"
     id="path16"
     inkscape:connector-curvature="0"
     style="fill:#fee7b8" />
  <path
     d="m 23.252643,29.114378 c -0.097,-0.258 -0.384,-0.392 -0.643,-0.294 -0.552,0.206 -1.076,0.311 -1.559,0.311 -1.152,0 -1.561,-0.306 -2.033,-0.659 -0.451,-0.338 -0.956,-0.715 -1.99,-0.803 l 0,-2.339 c 0,-0.276 -0.224,-0.5 -0.5,-0.5 -0.276,0 -0.5,0.224 -0.5,0.5 l 0,2.373 c -0.81,0.115 -1.346,0.439 -1.816,0.743 -0.568,0.367 -1.059,0.685 -2.083,0.685 -0.482,0 -1.006,-0.104 -1.558,-0.311 -0.258,-0.095 -0.547,0.035 -0.6430001,0.294 -0.097,0.259 0.035,0.547 0.2930001,0.644 0.664,0.247 1.306,0.373 1.907,0.373 1.319,0 2.014,-0.449 2.627,-0.845 0.524,-0.339 0.98,-0.631 1.848,-0.635 0.992,0.008 1.358,0.278 1.815,0.621 0.538,0.403 1.147,0.859 2.633,0.859 0.601,0 1.244,-0.126 1.908,-0.373 0.259,-0.097 0.391,-0.385 0.294,-0.644 z"
     id="path18"
     inkscape:connector-curvature="0"
     style="fill:#67757f" />
  <path
     d="m 17.916643,23.023378 -2.8,0 c -0.64,0 -1.163,0.523 -1.163,1.163 0,0.639 0.523,1.163 1.163,1.163 l 0.237,0 0,0.345 c 0,0.639 0.523,1.163 1.163,1.163 0.64,0 1.163,-0.523 1.163,-1.163 l 0,-0.345 0.237,0 c 0.639,0 1.163,-0.523 1.163,-1.163 0,-0.64 -0.524,-1.163 -1.163,-1.163 z"
     id="path20"
     inkscape:connector-curvature="0"
     style="fill:#e75a70" />
  <path
     d="m 16.538643,15.370378 c -0.276,0 -0.5,-0.224 -0.5,-0.5 l 0,-8.2840003 c 0,-0.276 0.224,-0.5 0.5,-0.5 0.276,0 0.5,0.224 0.5,0.5 l 0,8.2840003 c 0,0.277 -0.223,0.5 -0.5,0.5 z m 2.978,-1.582 c -0.276,0 -0.5,-0.224 -0.5,-0.5 0,-2.882 1.232,-5.2100003 1.285,-5.3080003 0.13,-0.244 0.435,-0.334 0.677,-0.204 0.243,0.13 0.334,0.433 0.204,0.677 -0.012,0.021 -1.166,2.2130003 -1.166,4.8350003 0,0.276 -0.224,0.5 -0.5,0.5 z m -6,0 c -0.276,0 -0.5,-0.224 -0.5,-0.5 0,-2.623 -1.155,-4.8140003 -1.167,-4.8350003 -0.13,-0.244 -0.038,-0.546 0.205,-0.677 0.242,-0.131 0.545,-0.039 0.676,0.204 0.053,0.098 1.285,2.4260003 1.285,5.3080003 10e-4,0.276 -0.223,0.5 -0.499,0.5 z"
     id="path22"
     inkscape:connector-curvature="0"
     style="fill:#f18f26" />
</svg>
