<?xml version="1.0" encoding="UTF-8" standalone="no"?>
<svg
   xmlns:dc="http://purl.org/dc/elements/1.1/"
   xmlns:cc="http://creativecommons.org/ns#"
   xmlns:rdf="http://www.w3.org/1999/02/22-rdf-syntax-ns#"
   xmlns:svg="http://www.w3.org/2000/svg"
   xmlns="http://www.w3.org/2000/svg"
   xmlns:sodipodi="http://sodipodi.sourceforge.net/DTD/sodipodi-0.dtd"
   xmlns:inkscape="http://www.inkscape.org/namespaces/inkscape"
   viewBox="0 0 34.871296 35.709915"
   id="svg2"
   version="1.1"
   inkscape:version="0.91 r13725"
   sodipodi:docname="1f43f.svg"
   width="34.871296"
   height="35.709915">
  <metadata
     id="metadata22">
    <rdf:RDF>
      <cc:Work
         rdf:about="">
        <dc:format>image/svg+xml</dc:format>
        <dc:type
           rdf:resource="http://purl.org/dc/dcmitype/StillImage" />
      </cc:Work>
    </rdf:RDF>
  </metadata>
  <defs
     id="defs20" />
  <sodipodi:namedview
     pagecolor="#ffffff"
     bordercolor="#666666"
     borderopacity="1"
     objecttolerance="10"
     gridtolerance="10"
     guidetolerance="10"
     inkscape:pageopacity="0"
     inkscape:pageshadow="2"
     inkscape:window-width="640"
     inkscape:window-height="480"
     id="namedview18"
     showgrid="false"
     inkscape:zoom="6.5555556"
     inkscape:cx="17.1941"
     inkscape:cy="17.999"
     inkscape:window-x="0"
     inkscape:window-y="0"
     inkscape:window-maximized="0"
     inkscape:current-layer="svg2" />
  <path
     d="m 34.6261,22.483917 c -0.195,0.858 -0.638,1.773 -1.022,2.159 1.399,-4.418 1.399,-9.111 -2.25,-11.167 0.112,1.107 -0.11,1.691 -0.265,2.153 -0.21,-2.219 -0.578,-3.744 -2.158,-4.927 -1.82,-1.3630004 -2.611,-0.452 -0.736,3.765 2.2,4.945 1.475,8.603 0.827,11.216 -0.038,0.154 -0.08,0.29 -0.12,0.439 0.804,-5.765 -0.989,-11.722 -6.825,-14.915 -2.989,-1.6360004 -5.211,-1.8520004 -5.329,-3.0370004 -0.135,-1.377 -1.218,-3.698 -3.811,-5.327 0.444,-1.309 -0.485,-2.78699998 -1.117,-2.84099998 -0.631,-0.054 -2.0239998,1.03899998 -2.1599998,2.52799998 -4.694,1.399 -9.49200001,7.219 -9.34500001,8.3970004 0.148,1.177 0.341,2.638 6.57000001,3.656 1.104,0.18 3.9949998,1.835 4.3999998,5.779 0.456,4.44 2.276,8.054 4.712,11.216 l -1.73,0 c -4.132,0 -4.132,4.132 -1.377,4.132 l 10.928,0 -0.002,-0.002 c 0.36,-0.003 0.788,-0.029 1.304,-0.085 6.931,-0.612 10.792,-7.349 9.506,-13.139 z"
     id="path4"
     inkscape:connector-curvature="0"
     style="fill:#ad743d" />
  <path
     d="m 10.5191,14.989917 c 3.258,-0.09 4.524,-6.0490004 -0.6819998,-6.8200004 -0.122,-1.077 -0.763,-2.614 -2.257,-2.724 -2.348,-0.173 -5.294,2.116 -6.099,7.4780004 0.881,0.601 2.467,1.18 5.405,1.661 1.104,0.18 3.9949998,1.835 4.3999998,5.779 0.531,5.174 2.914,9.224 5.966,12.747 0.903,-0.94 1.636,-2.325 2.028,-4.285 1.378,-6.886 -7.384,-12.458 -8.761,-13.836 z"
     id="path6"
     inkscape:connector-curvature="0"
     style="fill:#d99e82" />
  <circle
     cx="6.8861003"
     cy="9.1699162"
     r="1.377"
     id="circle8"
     style="fill:#292f33" />
  <path
     d="m 20.4481,13.274917 c 4.065,3.341 6.158,7.296 5.402,12.37 -0.318,2.143 0.83,2.933 1.688,0.902 0.599,-1.423 0.936,-9.887 -6.05,-14.311 -1.859,-1.177 -1.961,0.284 -1.04,1.039 z"
     id="path10"
     inkscape:connector-curvature="0"
     style="fill:#662113" />
  <path
     d="m 12.4281,19.386917 c -1.243,-1.243 -4.9699998,0 -6.2109998,-2.488 -0.786,-1.572 -3.728,1.245 -2.485,3.734 1.242,2.483 4.969,2.483 7.4539998,1.242 2.485,-1.242 1.242,-2.488 1.242,-2.488 z"
     id="path12"
     inkscape:connector-curvature="0"
     style="fill:#ad743d" />
  <path
     d="m 5.4541002,19.856917 c 0.304,1.49 -0.383,4.295 -1.874,4.6 -1.49,0.304 -3.22000001,-2.007 -3.52400001,-3.496 -0.304,-1.49 0.658,-2.947 2.14700001,-3.253 1.492,-0.305 2.946,0.659 3.251,2.149 z"
     id="path14"
     inkscape:connector-curvature="0"
     style="fill:#662113" />
  <path
     d="m 13.1011,21.085917 c -1.635,-1.062 -5.3879998,1.148 -7.3089998,-1.259 -1.215,-1.523 -3.753,2.209 -1.832,4.615 1.921,2.405 5.962,1.543 8.3679998,-0.378 2.407,-1.92 0.773,-2.978 0.773,-2.978 z"
     id="path16"
     inkscape:connector-curvature="0"
     style="fill:#ad743d" />
</svg>
