<?xml version="1.0" encoding="UTF-8" standalone="no"?>
<svg
   xmlns:dc="http://purl.org/dc/elements/1.1/"
   xmlns:cc="http://creativecommons.org/ns#"
   xmlns:rdf="http://www.w3.org/1999/02/22-rdf-syntax-ns#"
   xmlns:svg="http://www.w3.org/2000/svg"
   xmlns="http://www.w3.org/2000/svg"
   xmlns:sodipodi="http://sodipodi.sourceforge.net/DTD/sodipodi-0.dtd"
   xmlns:inkscape="http://www.inkscape.org/namespaces/inkscape"
   viewBox="0 0 35.295055 35.865501"
   id="svg2"
   version="1.1"
   inkscape:version="0.91 r13725"
   sodipodi:docname="1f434.svg"
   width="35.295055"
   height="35.865501">
  <metadata
     id="metadata24">
    <rdf:RDF>
      <cc:Work
         rdf:about="">
        <dc:format>image/svg+xml</dc:format>
        <dc:type
           rdf:resource="http://purl.org/dc/dcmitype/StillImage" />
      </cc:Work>
    </rdf:RDF>
  </metadata>
  <defs
     id="defs22" />
  <sodipodi:namedview
     pagecolor="#ffffff"
     bordercolor="#666666"
     borderopacity="1"
     objecttolerance="10"
     gridtolerance="10"
     guidetolerance="10"
     inkscape:pageopacity="0"
     inkscape:pageshadow="2"
     inkscape:window-width="640"
     inkscape:window-height="480"
     id="namedview20"
     showgrid="false"
     inkscape:zoom="6.5555556"
     inkscape:cx="17.295055"
     inkscape:cy="18"
     inkscape:window-x="0"
     inkscape:window-y="0"
     inkscape:window-maximized="0"
     inkscape:current-layer="svg2" />
  <path
     d="m 22.578055,23.140502 c 0,0 1.374,1.635 2.733,10.047 0.143,0.883 0.201,1.775 0.217,2.678 l 9.767,0 0,-28.5520003 c -4.387,-3.473 -10.399,-4.189 -17.678,-1.758 0,0 -5.408,-3 -6.147,-3.739 -0.719,-0.72 -1.8570003,-1.55600003 -1.235,0.35 0.364,1.112 0.764,2.373 2.358,4.862 -3.4360003,2.036 -4.5130003,4.6800003 -8.5580003,13.3410003 -3.08800005,6.616 -4.66000005,8.765 -3.80300005,11.293 1.13000005,3.337 5.31600005,5.595 8.84400005,3.021 1.9190003,-1.4 2.2460003,-3.913 6.2250003,-6.223 3.653,-0.065 7.277,-1.604 7.277,-5.32 z"
     id="path4"
     inkscape:connector-curvature="0"
     style="fill:#c1694f" />
  <path
     d="m 35.295055,5.8775017 c -8.335,-5.71100003 -21.646,-4.539 -20.091,0.178 9.601,-1.862 15.861,1.541 20.091,7.1680003 l 0,-7.3460003 z"
     id="path6"
     inkscape:connector-curvature="0"
     style="fill:#292f33" />
  <path
     d="m 18.958055,5.6285017 c -2.878,0.233 -7.157,1.595 -9.2960003,3.967 0,0 -0.129,-5.147 3.5660003,-5.614 6.172,-0.779 5.809,0.363 5.809,0.363 l -0.079,1.284 z"
     id="path8"
     inkscape:connector-curvature="0"
     style="fill:#292f33" />
  <path
     d="m 15.652055,0.92150167 c 0.558,1.15500003 4.006,1.79000003 5.056,6.02900003 1.051,4.2400003 -3.134,2.951 -4.356,0.855 -1.361,-2.334 -1.828,-4.162 -1.867,-5.679 -0.021,-0.801 0.039,-3.538 1.167,-1.20500003 z"
     id="path10"
     inkscape:connector-curvature="0"
     style="fill:#c1694f" />
  <path
     d="m 15.891055,2.7035017 c 1.103,0.968 2.448,2.472 2.65,3.955 0.202,1.483 -1.125,0.988 -1.736,-0.372 -0.612,-1.359 -0.753,-2.779 -1.134,-3.233 -0.38,-0.454 0.22,-0.35 0.22,-0.35 z"
     id="path12"
     inkscape:connector-curvature="0"
     style="fill:#662113" />
  <path
     d="m 16.235055,15.390502 c 0,0.687 -0.557,1.244 -1.245,1.244 -0.687,0 -1.244,-0.557 -1.244,-1.244 0,-0.688 0.557,-1.245 1.244,-1.245 0.688,10e-4 1.245,0.558 1.245,1.245 z"
     id="path14"
     inkscape:connector-curvature="0"
     style="fill:#292f33" />
  <path
     d="m 3.5170547,29.782502 c 0,0.881 -0.532,1.594 -1.187,1.594 -0.655,0 -1.187,-0.713 -1.187,-1.594 0,-0.882 0.532,-1.596 1.187,-1.596 0.655,0 1.187,0.714 1.187,1.596 z"
     id="path16"
     inkscape:connector-curvature="0"
     style="fill:#662113" />
  <path
     d="m 9.6490547,9.7895017 c -0.033,-0.017 -0.075,-0.014 -0.111,-0.024 -1.543,2.0330003 -2.92,5.1020003 -5.49,10.6040003 -1.356,2.903 -2.42,4.946 -3.11600005,6.538 1.62800005,0.226 3.28500005,-1.442 3.94500005,-3.271 0.673,-1.866 3.215,-5.652 4.927,-7.778 1.7120003,-2.127 1.5610003,-5.144 -0.155,-6.0690003 z"
     id="path18"
     inkscape:connector-curvature="0"
     style="fill:#d99e82" />
</svg>
