<?xml version="1.0" encoding="UTF-8" standalone="no"?>
<svg
   xmlns:dc="http://purl.org/dc/elements/1.1/"
   xmlns:cc="http://creativecommons.org/ns#"
   xmlns:rdf="http://www.w3.org/1999/02/22-rdf-syntax-ns#"
   xmlns:svg="http://www.w3.org/2000/svg"
   xmlns="http://www.w3.org/2000/svg"
   xmlns:sodipodi="http://sodipodi.sourceforge.net/DTD/sodipodi-0.dtd"
   xmlns:inkscape="http://www.inkscape.org/namespaces/inkscape"
   viewBox="0 0 35.970005 35.491528"
   id="svg2"
   version="1.1"
   inkscape:version="0.91 r13725"
   sodipodi:docname="1f432.svg"
   width="35.970005"
   height="35.491528">
  <metadata
     id="metadata20">
    <rdf:RDF>
      <cc:Work
         rdf:about="">
        <dc:format>image/svg+xml</dc:format>
        <dc:type
           rdf:resource="http://purl.org/dc/dcmitype/StillImage" />
      </cc:Work>
    </rdf:RDF>
  </metadata>
  <defs
     id="defs18" />
  <sodipodi:namedview
     pagecolor="#ffffff"
     bordercolor="#666666"
     borderopacity="1"
     objecttolerance="10"
     gridtolerance="10"
     guidetolerance="10"
     inkscape:pageopacity="0"
     inkscape:pageshadow="2"
     inkscape:window-width="640"
     inkscape:window-height="480"
     id="namedview16"
     showgrid="false"
     inkscape:zoom="6.5555556"
     inkscape:cx="18"
     inkscape:cy="18"
     inkscape:window-x="0"
     inkscape:window-y="0"
     inkscape:window-maximized="0"
     inkscape:current-layer="svg2" />
  <path
     d="m 35.125,12.835528 c 0,-1 0.771,-2.327 0.771,-2.635 0,-0.6560001 -1.553,-0.4210001 -1.626,-1.0460001 -0.209,-1.794 1.887,-3.318 -1.745,-3.312 -1.352,0.002 -0.274,-1.768 -0.274,-2.725 0,-0.957 -2.596,-0.145 -3.552,-0.145 -0.957,0 -0.957,-2.87 -1.913,-2.87 -2.87,0 -3.827,2.87 -4.783,2.87 -0.957,0 -1.744,-3.621 -2.87,-2.87 -2.87,1.913 -3.826,7.653 -3.826,7.653 0,0 4.783,-3.826 10.522,-2.87 5.345,0.891 4.79,10.8210001 5.641,16.8880001 l -6.861,13.718 3.359,0 c 0.344,-1.5 1.939,-0.529 2.375,-1.688 0.381,-1.016 -0.67,-1.966 -0.094,-2.969 0.576,-1.003 0.978,-0.755 2.094,-1.375 1.184,-0.657 0,-2.199 0,-3.156 0,-0.956 2.312,-1.574 2.312,-2.531 0,-0.63 -1.068,-1.292 -0.812,-2.356 0.257,-1.064 1.586,-1.186 1.749,-2.184 0.138,-0.847 -0.921,-1.455 -0.796,-2.393 0.125,-0.938 1.174,-1.378 1.174,-2.097 0.002,-0.718 -0.845,-1.001 -0.845,-1.907 z"
     id="path4"
     inkscape:connector-curvature="0"
     style="fill:#3e721d" />
  <path
     d="m 34.438,12.949528 c 0,-4.0380001 -2.87,-9.0850001 -9.566,-9.0850001 -6.695,0 -17.265,10.0240001 -20.088,10.0960001 -1.914,-1.948 -4.784,0.054 -4.784,2.017 0,3.028 5.373,4.61 5.646,4.899 1.088,1.149 3.92,8.083 8.704,1.945 0.803,-1.03 1.302,-0.422 3.483,0.542 7.236,3.857 -1.833,12.128 -1.833,12.128 l 9.566,0 c 4.782,-4.783 8.871,-13.844 8.871,-21.997 l -0.021,0.008 c 0.007,-0.185 0.022,-0.369 0.022,-0.553 z"
     id="path6"
     inkscape:connector-curvature="0"
     style="fill:#77b255" />
  <path
     d="m 23.915,11.581528 c 0,1.056 -0.856,1.913 -1.913,1.913 -1.057,0 -1.913,-0.857 -1.913,-1.913 0,-1.057 0.856,-1.9130001 1.913,-1.9130001 1.057,-0.001 1.913,0.8560001 1.913,1.9130001 z"
     id="path8"
     inkscape:connector-curvature="0"
     style="fill:#292f33" />
  <path
     d="m 4.783,16.842528 c 0,0.793 -0.643,0.479 -1.435,0.479 -0.792,0 -1.435,0.315 -1.435,-0.479 0,-0.792 0.643,-1.435 1.435,-1.435 0.793,0 1.435,0.643 1.435,1.435 z"
     id="path10"
     inkscape:connector-curvature="0"
     style="fill:#3e721d" />
  <path
     d="m 18.176,18.273528 c 0,1.058 -0.643,0.956 -1.436,0.956 -0.792,0 -1.434,0.101 -1.434,-0.956 0,-1.056 0.642,-3.826 1.434,-3.826 0.793,0 1.436,2.771 1.436,3.826 z m -3.827,0.956 c 0,1.058 -0.643,0.957 -1.435,0.957 -0.792,0 -1.435,0.101 -1.435,-0.957 0,-1.056 0.643,-3.826 1.435,-3.826 0.792,0.001 1.435,2.771 1.435,3.826 z"
     id="path12"
     inkscape:connector-curvature="0"
     style="fill:#ffffff" />
  <path
     d="m 18.04,18.286528 c -5.076,0.726 -10.192,2.007 -12.394,2.59 0.275,0.29 0.661,0.95 1.162,1.674 2.415,-0.624 6.975,-1.724 11.503,-2.369 0.524,-0.074 0.887,-0.561 0.812,-1.083 -0.075,-0.524 -0.563,-0.888 -1.083,-0.812 z m 0.549,-6.186 c -0.258,0 -0.515,-0.098 -0.709,-0.295 -0.388,-0.391 -0.388,-1.021 0.001,-1.41 0.129,-0.129 3.222,-3.1630001 8.36,-3.1630001 0.553,0 1,0.448 1,1 0,0.552 -0.447,1 -1,1 -4.281,0 -6.923,2.5540001 -6.949,2.5800001 -0.194,0.192 -0.449,0.288 -0.703,0.288 z"
     id="path14"
     inkscape:connector-curvature="0"
     style="fill:#3e721d" />
</svg>
