<?xml version="1.0" encoding="UTF-8" standalone="no"?>
<svg
   xmlns:dc="http://purl.org/dc/elements/1.1/"
   xmlns:cc="http://creativecommons.org/ns#"
   xmlns:rdf="http://www.w3.org/1999/02/22-rdf-syntax-ns#"
   xmlns:svg="http://www.w3.org/2000/svg"
   xmlns="http://www.w3.org/2000/svg"
   xmlns:sodipodi="http://sodipodi.sourceforge.net/DTD/sodipodi-0.dtd"
   xmlns:inkscape="http://www.inkscape.org/namespaces/inkscape"
   viewBox="0 0 35.948902 35.905155"
   id="svg2"
   version="1.1"
   inkscape:version="0.91 r13725"
   sodipodi:docname="1f44f-1f3fe.svg"
   width="35.948902"
   height="35.905155">
  <metadata
     id="metadata14">
    <rdf:RDF>
      <cc:Work
         rdf:about="">
        <dc:format>image/svg+xml</dc:format>
        <dc:type
           rdf:resource="http://purl.org/dc/dcmitype/StillImage" />
      </cc:Work>
    </rdf:RDF>
  </metadata>
  <defs
     id="defs12" />
  <sodipodi:namedview
     pagecolor="#ffffff"
     bordercolor="#666666"
     borderopacity="1"
     objecttolerance="10"
     gridtolerance="10"
     guidetolerance="10"
     inkscape:pageopacity="0"
     inkscape:pageshadow="2"
     inkscape:window-width="640"
     inkscape:window-height="480"
     id="namedview10"
     showgrid="false"
     inkscape:zoom="6.5555556"
     inkscape:cx="17.965397"
     inkscape:cy="17.948"
     inkscape:window-x="0"
     inkscape:window-y="0"
     inkscape:window-maximized="0"
     inkscape:current-layer="svg2" />
  <path
     d="m 32.267397,24.304154 c -0.695,-1.01 -0.307,-2.47 -0.48,-4.082 -0.178,-2.63 -1.308,-5.178 -3.5,-7.216 l -7.466,-6.9420003 c 0,0 -1.471,-1.369 -2.841,0.103 -1.368,1.471 0.104,2.84 0.104,2.84 l 3.154,2.9340003 2.734,2.542 c 0,0 -0.685,0.736 -3.711,-2.078 l -10.22,-9.5060003 c 0,0 -1.4729996,-1.368 -2.8419996,0.104 -1.368,1.471 0.103,2.84 0.103,2.84 l 9.6639996,8.9890003 c -0.021,-0.02 -0.731,0.692 -0.744,0.68 L 5.8823974,5.8951537 c 0,0 -1.472,-1.369 -2.841,0.103 -1.369,1.472 0.103,2.84 0.103,2.84 L 13.485397,18.457154 c 0.012,0.012 -0.654,0.764 -0.634,0.783 l -8.9199996,-8.298 c 0,0 -1.472,-1.3690003 -2.841,0.103 -1.36899999,1.472 0.103,2.841 0.103,2.841 l 9.4839996,8.82 c 0.087,0.081 -0.5,0.908 -0.391,1.009 l -6.8339996,-6.356 c 0,0 -1.472,-1.369 -2.84099999,0.104 -1.369,1.472 0.103,2.841 0.103,2.841 l 11.14699959,10.363 c 1.861,1.731 3.772,2.607 6.076,2.928 0.469,0.065 1.069,0.065 1.315,0.096 0.777,0.098 1.459,0.374 2.372,0.934 1.175,0.72 2.938,1.02 3.951,-0.063 l 3.454,-3.695 3.189,-3.412 c 1.012,-1.082 0.831,-2.016 0.049,-3.151 z"
     id="path4"
     inkscape:connector-curvature="0"
     style="fill:#90603e" />
  <path
     d="m 1.9213974,34.983154 c -0.256,0 -0.512,-0.098 -0.707,-0.293 -0.39099999,-0.391 -0.39099999,-1.023 0,-1.414 l 3.551,-3.549 c 0.391,-0.391 1.023,-0.391 1.414,0 0.391,0.391 0.391,1.023 0,1.414 l -3.551,3.55 c -0.195,0.195 -0.451,0.292 -0.707,0.292 z m 6.746,0.922 c -0.109,0 -0.221,-0.018 -0.331,-0.056 -0.521,-0.182 -0.796,-0.752 -0.613,-1.274 l 0.971,-2.773 c 0.182,-0.521 0.753,-0.795 1.274,-0.614 0.5209996,0.183 0.7959996,0.753 0.6129996,1.274 l -0.9709996,2.773 c -0.144,0.412 -0.53,0.67 -0.943,0.67 z m -7.667,-7.667 c -0.41199999,0 -0.79799999,-0.257 -0.94299999,-0.667 -0.184,-0.521 0.089,-1.092 0.61,-1.276 l 2.49499999,-0.881 c 0.523,-0.18 1.092,0.091 1.276,0.61 0.184,0.521 -0.089,1.092 -0.61,1.276 l -2.495,0.881 c -0.111,0.039 -0.223,0.057 -0.333,0.057 z M 30.460397,6.4711537 c -0.256,0 -0.512,-0.098 -0.707,-0.293 -0.391,-0.391 -0.391,-1.024 0,-1.415 l 3.552,-3.55 c 0.391,-0.39 1.023,-0.39 1.414,0 0.391,0.39 0.391,1.024 0,1.415 l -3.552,3.55 c -0.195,0.196 -0.451,0.293 -0.707,0.293 z m -4.164,-1.697 c -0.109,0 -0.221,-0.019 -0.33,-0.057 -0.521,-0.182 -0.796,-0.752 -0.614,-1.274 l 0.97,-2.773 c 0.183,-0.521 0.752,-0.796 1.274,-0.614 0.521,0.182 0.796,0.752 0.614,1.274 l -0.97,2.773 c -0.144,0.413 -0.531,0.671 -0.944,0.671 z m 6.143,5.7740003 c -0.412,0 -0.798,-0.257 -0.943,-0.6670003 -0.184,-0.521 0.09,-1.092 0.61,-1.276 l 2.494,-0.881 c 0.522,-0.185 1.092,0.09 1.276,0.61 0.184,0.521 -0.09,1.092 -0.61,1.276 l -2.494,0.8810003 c -0.111,0.039 -0.223,0.057 -0.333,0.057 z"
     id="path6"
     inkscape:connector-curvature="0"
     style="fill:#fa743e" />
  <path
     d="m 35.355397,23.779154 c -0.661,-1.032 -0.224,-2.479 -0.342,-4.096 -0.09,-2.634 -1.133,-5.219 -3.255,-7.33 l -7.228,-7.1890003 c 0,0 -1.424,-1.417 -2.843,0.008 -1.417,1.424 0.008,2.842 0.008,2.842 l 3.054,3.0390003 2.646,2.632 c 0,0 -0.71,0.712 -3.639,-2.202 -2.931,-2.9150003 -9.894,-9.8450003 -9.894,-9.8450003 0,0 -1.425,-1.417 -2.843,0.008 -1.4179996,1.424 0.007,2.841 0.007,2.841 l 9.356,9.3100003 c -0.02,-0.02 -0.754,0.667 -0.767,0.654 L 9.6053974,4.4911537 c 0,0 -1.425,-1.418 -2.843,0.007 -1.417,1.425 0.007,2.842 0.007,2.842 L 16.780397,17.302154 c 0.012,0.012 -0.68,0.741 -0.66,0.761 L 7.4853974,9.4701537 c 0,0 -1.425,-1.417 -2.843,0.008 -1.418,1.4250003 0.007,2.8430003 0.007,2.8430003 l 9.1809996,9.135 c 0.084,0.083 -0.53,0.891 -0.425,0.996 l -6.6159996,-6.583 c 0,0 -1.425,-1.417 -2.843,0.008 -1.418,1.425 0.007,2.843 0.007,2.843 l 10.7899996,10.732 c 1.802,1.793 3.682,2.732 5.974,3.131 0.467,0.081 1.067,0.101 1.311,0.14 0.773,0.124 1.445,0.423 2.34,1.014 1.15,0.759 2.902,1.118 3.951,0.07 l 3.577,-3.576 3.302,-3.302 c 1.049,-1.05 0.9,-1.99 0.157,-3.15 z"
     id="path8"
     inkscape:connector-curvature="0"
     style="fill:#af7e57" />
</svg>
