<?xml version="1.0" encoding="UTF-8" standalone="no"?>
<svg
   xmlns:dc="http://purl.org/dc/elements/1.1/"
   xmlns:cc="http://creativecommons.org/ns#"
   xmlns:rdf="http://www.w3.org/1999/02/22-rdf-syntax-ns#"
   xmlns:svg="http://www.w3.org/2000/svg"
   xmlns="http://www.w3.org/2000/svg"
   xmlns:sodipodi="http://sodipodi.sourceforge.net/DTD/sodipodi-0.dtd"
   xmlns:inkscape="http://www.inkscape.org/namespaces/inkscape"
   viewBox="0 0 34.148357 27.649429"
   id="svg2"
   version="1.1"
   inkscape:version="0.91 r13725"
   sodipodi:docname="1f44a-1f3fd.svg"
   width="34.148357"
   height="27.649429">
  <metadata
     id="metadata14">
    <rdf:RDF>
      <cc:Work
         rdf:about="">
        <dc:format>image/svg+xml</dc:format>
        <dc:type
           rdf:resource="http://purl.org/dc/dcmitype/StillImage" />
      </cc:Work>
    </rdf:RDF>
  </metadata>
  <defs
     id="defs12" />
  <sodipodi:namedview
     pagecolor="#ffffff"
     bordercolor="#666666"
     borderopacity="1"
     objecttolerance="10"
     gridtolerance="10"
     guidetolerance="10"
     inkscape:pageopacity="0"
     inkscape:pageshadow="2"
     inkscape:window-width="640"
     inkscape:window-height="480"
     id="namedview10"
     showgrid="false"
     inkscape:zoom="6.5555556"
     inkscape:cx="17.226"
     inkscape:cy="14.001"
     inkscape:window-x="0"
     inkscape:window-y="0"
     inkscape:window-maximized="0"
     inkscape:current-layer="svg2" />
  <path
     d="m 32.168,6.8924288 c -0.041,-0.609 -0.284,-1.18 -0.674,-1.644 l -0.357,-2.057 c -0.376,-2.006 -2.232,-3.38600002 -4.262,-3.16900002 L 3.485,3.7584288 c -1.882,0.202 -3.35,1.723 -3.485,3.611 L 1.761,18.516429 c 0.305,2.169 2.151,3.788 4.341,3.813 0.677,0.008 1.238,0.017 1.463,0.027 l 9.483,0.463 c -0.363,0.483 -0.822,1.08 -0.822,1.718 l 0,0.052 c 0,1.581 1.771,3.06 3.353,3.06 l 7.282,0 c 0.76,0 1.488,-0.4 2.025,-0.938 l 4.424,-4.472 c 0.583,-0.584 0.887,-1.416 0.832,-2.24 L 32.168,6.8924288 Z"
     id="path4"
     inkscape:connector-curvature="0"
     style="fill:#d5ab88" />
  <path
     d="m 7.443,22.271429 c -0.474,0 -0.895,-0.338 -0.983,-0.821 L 4.4,10.118429 C 4.301,9.5754288 4.662,9.0544288 5.205,8.9554288 c 0.546,-0.097 1.064,0.262 1.163,0.805 l 2.06,11.3320002 c 0.099,0.543 -0.262,1.063 -0.805,1.162 -0.061,0.012 -0.121,0.017 -0.18,0.017 z m 6.181,0 c -0.517,0 -0.955,-0.398 -0.996,-0.923 L 11.598,7.9554288 c -0.043,-0.551 0.37,-1.031 0.92,-1.074 0.549,-0.044 1.031,0.371 1.074,0.92 l 1.03,13.3920002 c 0.043,0.551 -0.37,1.032 -0.92,1.074 -0.026,0.003 -0.053,0.004 -0.078,0.004 z m 7.207,1.106 c -0.508,0 -0.757,-10e-4 -0.951,-1.062 l -0.044,-0.003 c 0.001,-0.055 0.007,-0.108 0.017,-0.161 -0.174,-1.068 -0.309,-3.069 -0.561,-6.817 -0.235,-3.49 -0.486,-7.5520002 -0.486,-8.4850002 0,-0.552 0.447,-1 1,-1 0.553,0 1,0.448 1,1 0,1.533 0.795,13.3240002 0.981,15.1450002 0.032,0.097 0.049,0.2 0.049,0.308 0,0.266 -0.108,0.557 -0.295,0.744 -0.187,0.187 -0.444,0.331 -0.71,0.331 z"
     id="path6"
     inkscape:connector-curvature="0"
     style="fill:#b78b60" />
  <path
     d="m 24.404,24.332429 -6.658,0 c -0.552,0 -1,-0.447 -1,-1 0,-0.553 0.448,-1 1,-1 l 6.658,0 c 1.458,0 2.644,-1.186 2.644,-2.644 l 0,-12.8390002 c 0,-0.552 0.447,-1 1,-1 0.553,0 1,0.448 1,1 l 0,12.8390002 c -10e-4,2.561 -2.084,4.644 -4.644,4.644 z"
     id="path8"
     inkscape:connector-curvature="0"
     style="fill:#b78b60" />
</svg>
