<?xml version="1.0" encoding="UTF-8" standalone="no"?>
<svg
   xmlns:dc="http://purl.org/dc/elements/1.1/"
   xmlns:cc="http://creativecommons.org/ns#"
   xmlns:rdf="http://www.w3.org/1999/02/22-rdf-syntax-ns#"
   xmlns:svg="http://www.w3.org/2000/svg"
   xmlns="http://www.w3.org/2000/svg"
   xmlns:sodipodi="http://sodipodi.sourceforge.net/DTD/sodipodi-0.dtd"
   xmlns:inkscape="http://www.inkscape.org/namespaces/inkscape"
   viewBox="0 0 36 24"
   id="svg2"
   version="1.1"
   inkscape:version="0.91 r13725"
   sodipodi:docname="1f444.svg"
   width="36"
   height="24">
  <metadata
     id="metadata14">
    <rdf:RDF>
      <cc:Work
         rdf:about="">
        <dc:format>image/svg+xml</dc:format>
        <dc:type
           rdf:resource="http://purl.org/dc/dcmitype/StillImage" />
      </cc:Work>
    </rdf:RDF>
  </metadata>
  <defs
     id="defs12" />
  <sodipodi:namedview
     pagecolor="#ffffff"
     bordercolor="#666666"
     borderopacity="1"
     objecttolerance="10"
     gridtolerance="10"
     guidetolerance="10"
     inkscape:pageopacity="0"
     inkscape:pageshadow="2"
     inkscape:window-width="640"
     inkscape:window-height="480"
     id="namedview10"
     showgrid="false"
     inkscape:zoom="6.5555556"
     inkscape:cx="18"
     inkscape:cy="12"
     inkscape:window-x="0"
     inkscape:window-y="0"
     inkscape:window-maximized="0"
     inkscape:current-layer="svg2" />
  <path
     d="M 29,6 C 24.312,2.485 23,0 21,0 19,0 19,1 18,1 17,1 17,0 15,0 13,0 11.687,2.485 7,6 3,9 0,9 0,11 c 0,2 5,6 8,9 2,2 5,4 10,4 5,0 8,-2 10,-4 3,-3 8,-7 8,-9 0,-2 -3,-2 -7,-5 z"
     id="path4"
     inkscape:connector-curvature="0"
     style="fill:#e75a70" />
  <path
     d="M 28.389,9.5 C 23.963,8.035 21,7.417 18,7.417 15,7.417 12.038,8.035 7.611,9.5 3.833,10.75 1,10.167 1,11 c 0,0.834 9,5 17,5 8,0 17,-4.166 17,-5 0,-0.833 -2.834,-0.25 -6.611,-1.5 z"
     id="path6"
     inkscape:connector-curvature="0"
     style="fill:#662113" />
  <path
     d="M 28.389,9.5 C 23.963,8.035 21,7.417 18,7.417 15,7.417 12.038,8.035 7.611,9.5 3.987,10.699 1.24,10.215 1.021,10.908 3.475,11.293 10.14,10.264 18,10.264 c 7.86,0 14.524,1.029 16.979,0.644 C 34.76,10.215 32.012,10.699 28.389,9.5 Z"
     id="path8"
     inkscape:connector-curvature="0"
     style="fill:#ffffff" />
</svg>
