<?xml version="1.0" encoding="UTF-8" standalone="no"?>
<svg
   xmlns:dc="http://purl.org/dc/elements/1.1/"
   xmlns:cc="http://creativecommons.org/ns#"
   xmlns:rdf="http://www.w3.org/1999/02/22-rdf-syntax-ns#"
   xmlns:svg="http://www.w3.org/2000/svg"
   xmlns="http://www.w3.org/2000/svg"
   xmlns:sodipodi="http://sodipodi.sourceforge.net/DTD/sodipodi-0.dtd"
   xmlns:inkscape="http://www.inkscape.org/namespaces/inkscape"
   viewBox="0 0 36 36"
   id="svg2"
   version="1.1"
   inkscape:version="0.91 r13725"
   sodipodi:docname="1f454.svg"
   width="36"
   height="36">
  <metadata
     id="metadata22">
    <rdf:RDF>
      <cc:Work
         rdf:about="">
        <dc:format>image/svg+xml</dc:format>
        <dc:type
           rdf:resource="http://purl.org/dc/dcmitype/StillImage" />
      </cc:Work>
    </rdf:RDF>
  </metadata>
  <defs
     id="defs20" />
  <sodipodi:namedview
     pagecolor="#ffffff"
     bordercolor="#666666"
     borderopacity="1"
     objecttolerance="10"
     gridtolerance="10"
     guidetolerance="10"
     inkscape:pageopacity="0"
     inkscape:pageshadow="2"
     inkscape:window-width="640"
     inkscape:window-height="480"
     id="namedview18"
     showgrid="false"
     inkscape:zoom="6.5555556"
     inkscape:cx="18"
     inkscape:cy="18"
     inkscape:window-x="0"
     inkscape:window-y="0"
     inkscape:window-maximized="0"
     inkscape:current-layer="svg2" />
  <path
     d="m 36,32 c 0,2.209 -1.791,4 -4,4 L 4,36 C 1.791,36 0,34.209 0,32 L 0,4 C 0,1.791 1.791,0 4,0 l 28,0 c 2.209,0 4,1.791 4,4 l 0,28 z"
     id="path4"
     inkscape:connector-curvature="0"
     style="fill:#88c9f9" />
  <path
     d="m 19.341,35.455 c -0.738,0.726 -1.944,0.726 -2.681,0 L 10.027,28.926 C 9.29,28.2 9.095,26.894 9.593,26.022 l 7.5,-18.447 c 0.499,-0.871 1.315,-0.871 1.813,0 l 7.5,18.447 c 0.498,0.871 0.303,2.178 -0.434,2.903 l -6.631,6.53 z"
     id="path6"
     inkscape:connector-curvature="0"
     style="fill:#dd2e44" />
  <path
     d="m 18,14.668 c 0.949,0 2.004,-0.952 2.899,-2.191 L 18.906,7.575 c -0.499,-0.871 -1.315,-0.871 -1.813,0 L 15.1,12.477 c 0.897,1.239 1.951,2.191 2.9,2.191 z"
     id="path8"
     inkscape:connector-curvature="0"
     style="fill:#a0041e" />
  <path
     d="m 23,5.778 c 0,1.964 -2.791,7.112 -5,7.112 -2.209,0 -5,-5.148 -5,-7.112 C 13,3.995 15.791,3 18,3 c 2.209,0 5,0.995 5,2.778 z"
     id="path10"
     inkscape:connector-curvature="0"
     style="fill:#dd2e44" />
  <path
     d="m 0,4 0,2.254 c 2.074,2.77 6.779,7.751 8,7.751 C 10.209,14.005 19,3.209 19,1 19,0 18,0 17,0 L 4,0 C 1.791,0 0,1.791 0,4 Z"
     id="path12"
     inkscape:connector-curvature="0"
     style="fill:#4ca0d3" />
  <path
     d="m 17,1 c 0,2.209 8.791,13.005 11,13.005 1.221,0 5.926,-4.981 8,-7.751 L 36,4 C 36,1.791 34.209,0 32,0 L 19,0 c -1,0 -2,0 -2,1 z"
     id="path14"
     inkscape:connector-curvature="0"
     style="fill:#4ca0d3" />
  <path
     d="M 4,0 C 3.733,0 3.474,0.029 3.222,0.079 4.405,1.736 10.562,3 18,3 25.438,3 31.595,1.736 32.778,0.079 32.526,0.029 32.267,0 32,0 L 4,0 Z"
     id="path16"
     inkscape:connector-curvature="0"
     style="fill:#226699" />
</svg>
