<?xml version="1.0" encoding="UTF-8" standalone="no"?>
<svg
   xmlns:dc="http://purl.org/dc/elements/1.1/"
   xmlns:cc="http://creativecommons.org/ns#"
   xmlns:rdf="http://www.w3.org/1999/02/22-rdf-syntax-ns#"
   xmlns:svg="http://www.w3.org/2000/svg"
   xmlns="http://www.w3.org/2000/svg"
   xmlns:sodipodi="http://sodipodi.sourceforge.net/DTD/sodipodi-0.dtd"
   xmlns:inkscape="http://www.inkscape.org/namespaces/inkscape"
   viewBox="0 0 34 36"
   id="svg2"
   version="1.1"
   inkscape:version="0.91 r13725"
   sodipodi:docname="1f457.svg"
   width="34"
   height="36">
  <metadata
     id="metadata14">
    <rdf:RDF>
      <cc:Work
         rdf:about="">
        <dc:format>image/svg+xml</dc:format>
        <dc:type
           rdf:resource="http://purl.org/dc/dcmitype/StillImage" />
      </cc:Work>
    </rdf:RDF>
  </metadata>
  <defs
     id="defs12" />
  <sodipodi:namedview
     pagecolor="#ffffff"
     bordercolor="#666666"
     borderopacity="1"
     objecttolerance="10"
     gridtolerance="10"
     guidetolerance="10"
     inkscape:pageopacity="0"
     inkscape:pageshadow="2"
     inkscape:window-width="640"
     inkscape:window-height="480"
     id="namedview10"
     showgrid="false"
     inkscape:zoom="6.5555556"
     inkscape:cx="17"
     inkscape:cy="18"
     inkscape:window-x="0"
     inkscape:window-y="0"
     inkscape:window-maximized="0"
     inkscape:current-layer="svg2" />
  <path
     d="M 21.42,11.847 25,2 c 0,0 -0.398,0.002 -1,0.034 L 24,0 22,0 22,2.219 C 19.729,2.521 17,3.247 17,5 17,3.247 14.271,2.521 12,2.219 L 12,0 10,0 10,2.034 C 9.398,2.002 9,2 9,2 L 12.581,11.847 0,25.643 C 0,25.643 6,36 17,36 28,36 34,25.643 34,25.643 L 21.42,11.847 Z"
     id="path4"
     inkscape:connector-curvature="0"
     style="fill:#55acee" />
  <path
     d="m 12,11 10,0 0,2 -10,0 z"
     id="path6"
     inkscape:connector-curvature="0"
     style="fill:#bbddf5" />
  <path
     d="M 14,13 C 14,13 7.266,21.106 8.949,22.006 10.633,22.907 14,13 14,13 Z m 6.096,0 c 0,0 6.734,8.105 5.051,9.007 C 23.463,22.907 20.096,13 20.096,13 Z M 17,13 c 0,0 -2,11 0,11 2,0 0,-11 0,-11 z"
     id="path8"
     inkscape:connector-curvature="0"
     style="fill:#3b88c3" />
</svg>
