<?xml version="1.0" encoding="UTF-8" standalone="no"?>
<svg
   xmlns:dc="http://purl.org/dc/elements/1.1/"
   xmlns:cc="http://creativecommons.org/ns#"
   xmlns:rdf="http://www.w3.org/1999/02/22-rdf-syntax-ns#"
   xmlns:svg="http://www.w3.org/2000/svg"
   xmlns="http://www.w3.org/2000/svg"
   xmlns:sodipodi="http://sodipodi.sourceforge.net/DTD/sodipodi-0.dtd"
   xmlns:inkscape="http://www.inkscape.org/namespaces/inkscape"
   viewBox="0 0 35.550945 31.64542"
   id="svg2"
   version="1.1"
   inkscape:version="0.91 r13725"
   sodipodi:docname="1f45e.svg"
   width="35.550945"
   height="31.64542">
  <metadata
     id="metadata16">
    <rdf:RDF>
      <cc:Work
         rdf:about="">
        <dc:format>image/svg+xml</dc:format>
        <dc:type
           rdf:resource="http://purl.org/dc/dcmitype/StillImage" />
      </cc:Work>
    </rdf:RDF>
  </metadata>
  <defs
     id="defs14" />
  <sodipodi:namedview
     pagecolor="#ffffff"
     bordercolor="#666666"
     borderopacity="1"
     objecttolerance="10"
     gridtolerance="10"
     guidetolerance="10"
     inkscape:pageopacity="0"
     inkscape:pageshadow="2"
     inkscape:window-width="640"
     inkscape:window-height="480"
     id="namedview12"
     showgrid="false"
     inkscape:zoom="6.5555556"
     inkscape:cx="17.721514"
     inkscape:cy="17.873416"
     inkscape:window-x="0"
     inkscape:window-y="0"
     inkscape:window-maximized="0"
     inkscape:current-layer="svg2" />
  <path
     d="m 2.8935144,6.9620043 c 0,0 0.272,-0.908 1.371,-2.491 1.099,-1.583 3.963,-3.97300004 4.483,-4.23800004 0.519,-0.265 0.97,-0.399 1.4079996,0.128 0.332,0.399 2.391,4.18300004 4.359,5.66100004 2.335,1.753 4.887,1.519 6.424,1.122 0.868,-0.224 1.414,-0.501 1.414,-0.501 0,0 3.671,8.2989997 4.325,9.9609997 0.216,0.55 0.413,1.09 0.617,1.548 0.701,1.574 1.84,2.885 3.146,4.06 1.307,1.175 2.509,1.92 2.835,2.191 0.326,0.271 3.575,2.243 1.692,5.181 0,0 -7.25,-1.047 -14.39,-5.907 -5.536,-3.769 -5.829,-6.843 -12.4379996,-11.968 -4.41,-3.4179997 -5.246,-4.7469997 -5.246,-4.7469997 z"
     id="path4"
     inkscape:connector-curvature="0"
     style="fill:#c36446" />
  <path
     d="m 15.103514,20.504004 c 1.026,1.185 2.774,3.28 5.375,4.936 7.16,4.56 14.727,4.625 14.727,4.625 l 0.128,-0.417 c 0.053,-0.187 -0.061,-0.286 -0.205,-0.318 -0.686,-0.154 -3.053,-0.693 -4.286,-1.162 -2.577,-0.981 -5.357,-1.632 -9.137,-4.256 -3.78,-2.624 -5.593,-5.031 -7.273,-6.852 -1.68,-1.821 -5.2039996,-5.31 -7.7469996,-7.0739997 -1.963,-1.362 -3.13,-2.634 -3.56,-3.143 -0.1,-0.118 -0.215,-0.062 -0.303,0.065 l -0.872,1.259 c 0,10e-4 9.9589996,8.6469997 13.1529996,12.3369997 z"
     id="path6"
     inkscape:connector-curvature="0"
     style="fill:#803f29" />
  <path
     d="m 21.724514,19.797004 -0.305,-0.427 c -4.889,-6.835 -9.47,-5.766 -10.342,-5.482 -0.146,0.048 -0.678,0.211 -0.678,0.211 l -0.4299996,-1.404 c 0.001,0 0.5089996,-0.156 0.6499996,-0.202 1.021,-0.333 6.28,-1.594 11.649,5.554 0.551,-0.258 1.542,-0.81 2.706,-1.858 -0.302,-0.84 -0.991,-2.708 -1.711,-4.286 -0.965,-2.1169997 -2.328,-4.7599997 -2.328,-4.7599997 0.595,-0.156 1.414,-0.501 1.414,-0.501 0,0 1.273,2.507 2.25,4.6519997 0.986,2.163 1.884,4.756 1.922,4.865 l 0.152,0.444 -0.339,0.325 c -2.226,2.135 -4.033,2.694 -4.109,2.717 l -0.501,0.152 z"
     id="path8"
     inkscape:connector-curvature="0"
     style="fill:#803f29" />
  <path
     d="m 8.9425144,17.911004 c 0.49,-0.062 1.4379996,-0.699 1.7829996,-0.639 0.345,0.061 2.654,2.527 3.711,3.707 1.057,1.18 2.882,3.207 5.445,4.985 2.563,1.779 6.403,3.327 8.809,4.237 2.406,0.91 4.949,1.417 5.469,1.442 0.521,0.025 0.49,-0.148 0.585,-0.334 0.095,-0.186 0.46,-1.245 0.46,-1.245 0,0 -2.248,-0.299 -4.851,-1.298 -2.603,-0.999 -5.418,-1.675 -9.244,-4.33 -3.826,-2.655 -5.666,-5.081 -7.369,-6.919 -1.703,-1.837 -5.2749996,-5.359 -7.8479996,-7.145 -1.985,-1.3769997 -3.018,-2.5499997 -3.478,-3.0429997 -0.165,-0.176 -0.38,-0.062 -0.51,0.12 l -1.74899998,2.307 c -0.153,0.221 -0.321,0.8489997 0.178,1.3739997 0.499,0.527 8.11899998,6.843 8.60899998,6.781 z m 11.5979996,-7.493 c -0.326,0 -0.638,-0.186 -0.782,-0.5009997 -0.198,-0.431 -0.009,-0.942 0.422,-1.14 l 2.385,-1.096 c 0.433,-0.198 0.943,-0.009 1.141,0.422 0.198,0.431 0.009,0.942 -0.422,1.14 l -2.385,1.0959997 c -0.117,0.054 -0.239,0.079 -0.359,0.079 z m 1.474,2.902 c -0.322,0 -0.631,-0.182 -0.778,-0.492 -0.203,-0.429 -0.02,-0.942 0.409,-1.145 l 2.371,-1.122 c 0.432,-0.203 0.942,-0.02 1.146,0.409 0.203,0.429 0.02,0.942 -0.409,1.145 l -2.371,1.122 c -0.12,0.056 -0.245,0.083 -0.368,0.083 z m 1.397,3.039 c -0.317,0 -0.621,-0.176 -0.771,-0.479 -0.211,-0.426 -0.036,-0.941 0.389,-1.152 l 2.225,-1.101 c 0.427,-0.212 0.94,-0.036 1.152,0.389 0.211,0.426 0.036,0.941 -0.389,1.152 l -2.225,1.101 c -0.123,0.062 -0.253,0.09 -0.381,0.09 z"
     id="path10"
     inkscape:connector-curvature="0"
     style="fill:#292f33" />
</svg>
