<?xml version="1.0" encoding="UTF-8" standalone="no"?>
<svg
   xmlns:dc="http://purl.org/dc/elements/1.1/"
   xmlns:cc="http://creativecommons.org/ns#"
   xmlns:rdf="http://www.w3.org/1999/02/22-rdf-syntax-ns#"
   xmlns:svg="http://www.w3.org/2000/svg"
   xmlns="http://www.w3.org/2000/svg"
   xmlns:sodipodi="http://sodipodi.sourceforge.net/DTD/sodipodi-0.dtd"
   xmlns:inkscape="http://www.inkscape.org/namespaces/inkscape"
   viewBox="0 0 36 21"
   id="svg2"
   version="1.1"
   inkscape:version="0.91 r13725"
   sodipodi:docname="1f452.svg"
   width="36"
   height="21">
  <metadata
     id="metadata26">
    <rdf:RDF>
      <cc:Work
         rdf:about="">
        <dc:format>image/svg+xml</dc:format>
        <dc:type
           rdf:resource="http://purl.org/dc/dcmitype/StillImage" />
      </cc:Work>
    </rdf:RDF>
  </metadata>
  <defs
     id="defs24" />
  <sodipodi:namedview
     pagecolor="#ffffff"
     bordercolor="#666666"
     borderopacity="1"
     objecttolerance="10"
     gridtolerance="10"
     guidetolerance="10"
     inkscape:pageopacity="0"
     inkscape:pageshadow="2"
     inkscape:window-width="640"
     inkscape:window-height="480"
     id="namedview22"
     showgrid="false"
     inkscape:zoom="6.5555556"
     inkscape:cx="18"
     inkscape:cy="10"
     inkscape:window-x="0"
     inkscape:window-y="0"
     inkscape:window-maximized="0"
     inkscape:current-layer="svg2" />
  <ellipse
     cx="18"
     cy="16"
     rx="18"
     ry="5"
     id="ellipse4"
     style="fill:#ffd983" />
  <path
     d="m 29,10 c 0,1.566 -4.925,6 -11,6 C 11.925,16 7.043,11.566 7.043,10 7.043,3 14,0 18,0 22,0 29,3 29,10 Z"
     id="path6"
     inkscape:connector-curvature="0"
     style="fill:#ffd983" />
  <path
     d="M 29,14 C 24,17 12,17 7,14 7,13.508 7.043,10.465 7.043,10 13,13 23,13 29,10 c -0.003,0.465 0,3.508 0,4 z"
     id="path8"
     inkscape:connector-curvature="0"
     style="fill:#9266cc" />
  <ellipse
     cx="18"
     cy="17"
     rx="1"
     ry="2"
     id="ellipse10"
     style="fill:#ffffff" />
  <ellipse
     cx="18"
     cy="11"
     rx="1"
     ry="2"
     id="ellipse12"
     style="fill:#ffffff" />
  <path
     d="m 16.586,16.828 c -0.781,0.781 -1.731,1.098 -2.121,0.707 -0.391,-0.391 -0.074,-1.34 0.707,-2.121 0.781,-0.781 1.73,-1.098 2.122,-0.707 0.39,0.391 0.073,1.341 -0.708,2.121 z m 4.242,-4.242 c -0.78,0.781 -1.73,1.098 -2.121,0.707 -0.391,-0.391 -0.074,-1.34 0.707,-2.122 0.781,-0.781 1.73,-1.098 2.121,-0.707 0.391,0.391 0.074,1.341 -0.707,2.122 z"
     id="path14"
     inkscape:connector-curvature="0"
     style="fill:#ffffff" />
  <path
     d="m 15,15 c -1.105,0 -2,-0.448 -2,-1 0,-0.553 0.896,-1 2,-1 1.105,0 2,0.447 2,1 0,0.553 -0.896,1 -2,1 z m 6,0 c -1.104,10e-4 -2,-0.447 -2,-1 0,-0.553 0.896,-1 2,-1 1.104,0 2,0.447 2,1 0,0.552 -0.896,1 -2,1 z"
     id="path16"
     inkscape:connector-curvature="0"
     style="fill:#ffffff" />
  <path
     d="m 15.172,12.587 c -0.782,-0.782 -1.098,-1.732 -0.707,-2.122 0.391,-0.391 1.34,-0.074 2.121,0.707 0.781,0.782 1.098,1.73 0.707,2.121 -0.391,0.392 -1.341,0.074 -2.121,-0.706 z m 4.242,4.242 c -0.782,-0.78 -1.098,-1.73 -0.707,-2.121 0.391,-0.392 1.34,-0.074 2.121,0.707 0.781,0.78 1.098,1.73 0.707,2.121 -0.389,0.39 -1.34,0.074 -2.121,-0.707 z"
     id="path18"
     inkscape:connector-curvature="0"
     style="fill:#ffffff" />
  <circle
     cx="18"
     cy="14"
     r="2"
     id="circle20"
     style="fill:#ffac33" />
</svg>
