<?xml version="1.0" encoding="UTF-8" standalone="no"?>
<svg
   xmlns:dc="http://purl.org/dc/elements/1.1/"
   xmlns:cc="http://creativecommons.org/ns#"
   xmlns:rdf="http://www.w3.org/1999/02/22-rdf-syntax-ns#"
   xmlns:svg="http://www.w3.org/2000/svg"
   xmlns="http://www.w3.org/2000/svg"
   xmlns:sodipodi="http://sodipodi.sourceforge.net/DTD/sodipodi-0.dtd"
   xmlns:inkscape="http://www.inkscape.org/namespaces/inkscape"
   viewBox="0 0 26 33.5"
   id="svg2"
   version="1.1"
   inkscape:version="0.91 r13725"
   sodipodi:docname="1f469-1f3fe-200d-2695-fe0f.svg"
   width="26"
   height="33.5">
  <metadata
     id="metadata40">
    <rdf:RDF>
      <cc:Work
         rdf:about="">
        <dc:format>image/svg+xml</dc:format>
        <dc:type
           rdf:resource="http://purl.org/dc/dcmitype/StillImage" />
      </cc:Work>
    </rdf:RDF>
  </metadata>
  <defs
     id="defs38" />
  <sodipodi:namedview
     pagecolor="#ffffff"
     bordercolor="#666666"
     borderopacity="1"
     objecttolerance="10"
     gridtolerance="10"
     guidetolerance="10"
     inkscape:pageopacity="0"
     inkscape:pageshadow="2"
     inkscape:window-width="640"
     inkscape:window-height="480"
     id="namedview36"
     showgrid="false"
     inkscape:zoom="6.5555556"
     inkscape:cx="13"
     inkscape:cy="18"
     inkscape:window-x="0"
     inkscape:window-y="0"
     inkscape:window-maximized="0"
     inkscape:current-layer="svg2" />
  <path
     d="M 26,33.5 26,29 c 0,-3.314 -3.56,-5.5 -6.875,-5.5 l -12,0 C 3.812,23.5 0,25.686 0,29 l 0,4.5 26,0 z"
     id="path4"
     inkscape:connector-curvature="0"
     style="fill:#3b88c3" />
  <path
     d="m 12.945,1.478 c 4.105,0 10.947,2.053 10.947,10.947 0,8.896 0,10.948 -2.053,10.948 -2.053,0 -4.79,-2.053 -8.895,-2.053 -4.105,0 -6.785,2.053 -8.895,2.053 -2.287,0 -2.053,-8.211 -2.053,-10.948 C 1.997,3.531 8.84,1.478 12.945,1.478"
     id="path6"
     inkscape:connector-curvature="0"
     style="fill:#60352a" />
  <path
     d="m 5.5,30 -2,0 c 0,-4.094 1.877,-8.5 6,-8.5 l 0,2 c -3.164,0 -4,4.252 -4,6.5 z m 16,-4 -2,0 c 0,-0.411 -0.521,-2.5 -3,-2.5 l 0,-2 c 3.533,0 5,2.931 5,4.5 z"
     id="path8"
     inkscape:connector-curvature="0"
     style="fill:#292f33" />
  <circle
     cx="4.5"
     cy="30"
     r="3"
     id="circle10"
     style="fill:#ccd6dd" />
  <circle
     cx="4.5"
     cy="30"
     r="2"
     id="circle12"
     style="fill:#f5f8fa" />
  <path
     d="m 24.5,31.5 -2,0 c 0,-0.835 -0.108,-5 -2.25,-5 -2.142,0 -2.25,4.165 -2.25,5 l -2,0 c 0,-4.383 1.589,-7 4.25,-7 2.661,0 4.25,2.617 4.25,7 z"
     id="path14"
     inkscape:connector-curvature="0"
     style="fill:#292f33" />
  <circle
     cx="17"
     cy="31.5"
     r="1"
     id="circle16"
     style="fill:#ccd6dd" />
  <circle
     cx="23.5"
     cy="31.5"
     r="1"
     id="circle18"
     style="fill:#ccd6dd" />
  <path
     d="m 9.5,19.909 0,3.591 3.5,5 3.5,-5 0,-3.591 z"
     id="path20"
     inkscape:connector-curvature="0"
     style="fill:#af7e57" />
  <path
     d="m 9.5,21.5 c 1.023,1.155 2.112,1.5 3.49,1.5 1.379,0 2.487,-0.345 3.51,-1.5 l 0,-2.937 -7,0 0,2.937 z"
     id="path22"
     inkscape:connector-curvature="0"
     style="fill:#9b6a49" />
  <path
     d="m 4.734,12.127 c 0,-5.834 3.676,-10.563 8.211,-10.563 4.533,0 8.209,4.73 8.209,10.563 0,5.833 -3.676,10.285 -8.209,10.285 -4.535,0 -8.211,-4.452 -8.211,-10.285"
     id="path24"
     inkscape:connector-curvature="0"
     style="fill:#af7e57" />
  <path
     d="m 12.945,19.952 c -1.606,0 -2.447,-0.794 -2.537,-0.885 -0.268,-0.267 -0.268,-0.7 0,-0.967 0.266,-0.265 0.692,-0.267 0.961,-0.007 0.035,0.032 0.551,0.491 1.576,0.491 1.038,0 1.555,-0.473 1.576,-0.492 0.273,-0.256 0.703,-0.248 0.963,0.02 0.26,0.269 0.26,0.691 -0.004,0.955 -0.089,0.091 -0.929,0.885 -2.535,0.885"
     id="path26"
     inkscape:connector-curvature="0"
     style="fill:#df1f32" />
  <path
     d="m 2.725,15.409 c -0.021,-1 -0.044,-0.224 -0.044,-0.465 0,-3.422 2.053,0.494 2.053,-1.943 0,-2.439 1.368,-2.683 2.736,-4.051 0.685,-0.685 2.053,-2.026 2.053,-2.026 0,0 3.421,2.067 6.158,2.067 2.736,0 5.474,1.375 5.474,4.112 0,2.736 2.053,-1.584 2.053,1.837 0,0.244 -0.023,-0.531 -0.04,0.469 l 0.719,0 c 0.006,-2 0.006,-1.924 0.006,-3.202 C 23.893,3.313 17.051,0 12.945,0 8.84,0 1.997,3.257 1.997,12.152 c 0,0.793 -0.02,1.257 0.008,3.257 l 0.72,0 z"
     id="path28"
     inkscape:connector-curvature="0"
     style="fill:#60352a" />
  <path
     d="m 9.608,14.296 c -0.465,0 -0.846,-0.381 -0.846,-0.847 l 0,-0.845 c 0,-0.465 0.381,-0.846 0.846,-0.846 0.466,0 0.847,0.381 0.847,0.846 l 0,0.845 c 0,0.466 -0.381,0.847 -0.847,0.847 m 6.765,0 c -0.465,0 -0.846,-0.381 -0.846,-0.847 l 0,-0.845 c 0,-0.465 0.381,-0.846 0.846,-0.846 0.465,0 0.846,0.381 0.846,0.846 l 0,0.845 c 0,0.466 -0.381,0.847 -0.846,0.847"
     id="path30"
     inkscape:connector-curvature="0"
     style="fill:#60352a" />
  <path
     d="m 13.836,16.909 -1.69,0 c -0.233,0 -0.423,-0.19 -0.423,-0.423 l 0,-0.153 c 0,-0.233 0.189,-0.424 0.423,-0.424 l 1.69,0 c 0.233,0 0.424,0.19 0.424,0.424 l 0,0.153 c 0,0.234 -0.191,0.423 -0.424,0.423"
     id="path32"
     inkscape:connector-curvature="0"
     style="fill:#915a34" />
  <path
     d="m 6.444,12.345 c 0,1.448 -0.734,2.622 -1.639,2.622 -0.905,0 -1.639,-1.174 -1.639,-2.622 0,-1.448 0.734,-2.623 1.639,-2.623 0.905,0 1.639,1.174 1.639,2.623 m 16.389,0 c 0,1.448 -0.733,2.622 -1.639,2.622 -0.905,0 -1.639,-1.174 -1.639,-2.622 0,-1.448 0.733,-2.623 1.639,-2.623 0.906,0 1.639,1.174 1.639,2.623"
     id="path34"
     inkscape:connector-curvature="0"
     style="fill:#af7e57" />
</svg>
