<?xml version="1.0" encoding="UTF-8" standalone="no"?>
<svg
   xmlns:dc="http://purl.org/dc/elements/1.1/"
   xmlns:cc="http://creativecommons.org/ns#"
   xmlns:rdf="http://www.w3.org/1999/02/22-rdf-syntax-ns#"
   xmlns:svg="http://www.w3.org/2000/svg"
   xmlns="http://www.w3.org/2000/svg"
   xmlns:sodipodi="http://sodipodi.sourceforge.net/DTD/sodipodi-0.dtd"
   xmlns:inkscape="http://www.inkscape.org/namespaces/inkscape"
   viewBox="0 0 35.632 36"
   id="svg2"
   version="1.1"
   inkscape:version="0.91 r13725"
   sodipodi:docname="1f469-200d-1f467-200d-1f466.svg"
   width="35.632"
   height="36">
  <metadata
     id="metadata48">
    <rdf:RDF>
      <cc:Work
         rdf:about="">
        <dc:format>image/svg+xml</dc:format>
        <dc:type
           rdf:resource="http://purl.org/dc/dcmitype/StillImage" />
      </cc:Work>
    </rdf:RDF>
  </metadata>
  <defs
     id="defs46" />
  <sodipodi:namedview
     pagecolor="#ffffff"
     bordercolor="#666666"
     borderopacity="1"
     objecttolerance="10"
     gridtolerance="10"
     guidetolerance="10"
     inkscape:pageopacity="0"
     inkscape:pageshadow="2"
     inkscape:window-width="640"
     inkscape:window-height="480"
     id="namedview44"
     showgrid="false"
     inkscape:zoom="6.5555556"
     inkscape:cx="17.816"
     inkscape:cy="18"
     inkscape:window-x="0"
     inkscape:window-y="0"
     inkscape:window-maximized="0"
     inkscape:current-layer="svg2" />
  <path
     d="m 10.288,14 c 0.253,3.89 3.521,6.969 7.5,6.969 3.979,0 7.247,-3.079 7.5,-6.969 l 0,-10 -15,0 0,10 z"
     id="path4"
     inkscape:connector-curvature="0"
     style="fill:#ffdc5d" />
  <path
     d="m 21.826,0.808 c -0.333,0 -0.657,0.034 -0.974,0.09 C 19.681,0.328 18.678,0 17.288,0 c -4.907,0 -9,4.093 -9,9 l 0,7 c 0.148,5.223 4.241,9.568 9.5,9.568 5.259,0 9.352,-4.345 9.5,-9.568 l 0,-10 c 0,-3.122 -2.339,-5.192 -5.462,-5.192 z M 25.288,14 c -0.253,3.89 -3.521,6.969 -7.5,6.969 -3.979,0 -7.247,-3.079 -7.5,-6.969 l 0,-4.337 C 15.616,9.508 18.798,7.32 20.525,5.482 20.941,6.957 22.089,9 25.288,9 l 0,5 z"
     id="path6"
     inkscape:connector-curvature="0"
     style="fill:#ffac33" />
  <path
     d="m 25.288,22 -16,0 c -1.779,0 -1.945,1.193 -1.945,2.973 l 0,11.027 20.945,0 0,-11.027 c 0,-1.973 -1,-2.973 -3,-2.973 z"
     id="path8"
     inkscape:connector-curvature="0"
     style="fill:#9268ca" />
  <path
     d="m 23.288,26 1.028,0 0,10 -1.028,0 z m -12,0 1.028,0 0,10 -1.028,0 z"
     id="path10"
     inkscape:connector-curvature="0"
     style="fill:#7450a8" />
  <path
     d="m 15.288,19 0,3 c 0,1.381 1.119,2.5 2.5,2.5 1.381,0 2.5,-1.119 2.5,-2.5 l 0,-3 -5,0 z"
     id="path12"
     inkscape:connector-curvature="0"
     style="fill:#ffdc5d" />
  <path
     d="m 14.558,17.769 6.461,0 c 0,0 -0.808,1.616 -3.23,1.616 -2.422,0 -3.231,-1.616 -3.231,-1.616 z"
     id="path14"
     inkscape:connector-curvature="0"
     style="fill:#da2f47" />
  <path
     d="m 18.288,15.5 -1,0 c -0.276,0 -0.5,-0.224 -0.5,-0.5 0,-0.276 0.224,-0.5 0.5,-0.5 l 1,0 c 0.276,0 0.5,0.224 0.5,0.5 0,0.276 -0.223,0.5 -0.5,0.5 z"
     id="path16"
     inkscape:connector-curvature="0"
     style="fill:#bf6952" />
  <path
     d="m 14.288,13 c -0.553,0 -1,-0.448 -1,-1 l 0,-1 c 0,-0.552 0.447,-1 1,-1 0.553,0 1,0.448 1,1 l 0,1 c 0,0.552 -0.447,1 -1,1 z m 7,0 c -0.553,0 -1,-0.448 -1,-1 l 0,-1 c 0,-0.552 0.447,-1 1,-1 0.553,0 1,0.448 1,1 l 0,1 c 0,0.552 -0.447,1 -1,1 z"
     id="path18"
     inkscape:connector-curvature="0"
     style="fill:#662113" />
  <path
     d="m 28.814,34 0,-3 -4,0 0,3 -1,0 0,2 6,0 0,-2 z"
     id="path20"
     inkscape:connector-curvature="0"
     style="fill:#ffdc5d" />
  <path
     d="m 24.814,33 -2,0 C 20.321,33 18.538,34.385 18,36 l 17.632,0 c -0.517,-1.602 -2.159,-3 -3.818,-3 l -3,0 -0.466,0.466 -1.534,1.534 -2,-2 z"
     id="path22"
     inkscape:connector-curvature="0"
     style="fill:#88c9f9" />
  <path
     d="M 32.809,27.04 32.807,27 l 0.007,0 0,-4.286 -4.286,-0.857 -7.714,0.857 0,4.286 0.002,0 -0.002,0.04 c 0,0.644 0.106,1.263 0.296,1.844 0.782,2.388 3.038,4.116 5.702,4.116 2.659,0 4.911,-1.722 5.697,-4.103 0.192,-0.585 0.3,-1.208 0.3,-1.857 z"
     id="path24"
     inkscape:connector-curvature="0"
     style="fill:#ffdc5d" />
  <path
     d="M 33.814,25.125 C 33.814,21.742 31.072,19 27.689,19 27.391,19 27.101,19.029 26.814,19.07 26.528,19.029 26.237,19 25.939,19 c -3.383,0 -6.125,2.742 -6.125,6.125 0,1.418 0.487,2.721 1.296,3.759 -0.19,-0.581 -0.296,-1.2 -0.296,-1.844 l 0.002,-0.04 -0.002,0 0,-1.911 c 4.172,-0.181 6.588,-1.592 7.929,-2.91 0.91,1.074 2.351,2.414 4.071,2.816 l 0,2.005 -0.007,0 0.002,0.04 c 0,0.649 -0.108,1.272 -0.301,1.857 0.816,-1.04 1.306,-2.348 1.306,-3.772 z"
     id="path26"
     inkscape:connector-curvature="0"
     style="fill:#f4900c" />
  <path
     d="m 28.814,30 -4,0 c 0,0 0.389,1.333 2,1.333 1.611,0 2,-1.333 2,-1.333 z m -2,-0.5 c -0.13,0 -0.26,-0.05 -0.35,-0.15 -0.1,-0.09 -0.15,-0.22 -0.15,-0.35 0,-0.13 0.05,-0.26 0.15,-0.36 0.17,-0.17 0.52,-0.18 0.71,0.01 0.09,0.091 0.14,0.221 0.14,0.351 0,0.13 -0.05,0.26 -0.15,0.35 -0.09,0.099 -0.22,0.149 -0.35,0.149 z"
     id="path28"
     inkscape:connector-curvature="0"
     style="fill:#bf6952" />
  <path
     d="m 28.814,28 c -0.461,0 -0.833,-0.373 -0.833,-0.833 l 0,-0.833 c 0,-0.461 0.373,-0.833 0.833,-0.833 0.461,0 0.833,0.373 0.833,0.833 l 0,0.833 C 29.648,27.627 29.275,28 28.814,28 Z m -4,0 c -0.461,0 -0.833,-0.373 -0.833,-0.833 l 0,-0.833 c 0,-0.461 0.373,-0.833 0.833,-0.833 0.461,0 0.833,0.373 0.833,0.833 l 0,0.833 C 25.648,27.627 25.275,28 24.814,28 Z"
     id="path30"
     inkscape:connector-curvature="0"
     style="fill:#662113" />
  <path
     d="m 2.814,22.714 0,4.286 0.002,0 -0.002,0.04 c 0,3.291 2.685,5.96 5.997,5.96 3.312,0 5.997,-2.669 5.997,-5.96 L 14.806,27 l 0.007,0 0,-4.286 -4.286,-0.857 -7.713,0.857 z"
     id="path32"
     inkscape:connector-curvature="0"
     style="fill:#ffdc5d" />
  <path
     d="m 15.811,25.192 c 0,-0.023 0.003,-0.044 0.003,-0.067 L 15.812,25.086 15.814,25 15.808,25.006 C 15.744,21.679 13.032,19 9.689,19 9.391,19 9.101,19.029 8.814,19.07 8.528,19.029 8.237,19 7.939,19 c -3.383,0 -6.125,2.742 -6.125,6.125 0,0 0.125,3.188 -1,6.875 0,0 3.344,2 8,2 4.656,0 8,-2 8,-2 -0.968,-3.172 -1.01,-6.061 -1.003,-6.808 z M 14.809,27.04 C 14.809,30.331 12.124,33 8.812,33 5.5,33 2.815,30.331 2.815,27.04 2.814,27.027 2.816,27.013 2.816,27 l -0.002,0 0,-1.911 c 4.172,-0.181 6.588,-1.592 7.929,-2.91 0.91,1.074 2.351,2.414 4.071,2.816 l 0,2.005 -0.007,0 0.002,0.04 z"
     id="path34"
     inkscape:connector-curvature="0"
     style="fill:#f4900c" />
  <path
     d="m 10.814,34 0,-3 -4,0 0,3 -1,0 0,2 6,0 0,-2 z"
     id="path36"
     inkscape:connector-curvature="0"
     style="fill:#ffdc5d" />
  <path
     d="m 13.814,33 -3,0 -2,2 -1.41,-1.41 -0.59,-0.59 -2,0 C 2.321,33 0.538,34.385 0,36 l 17.632,0 c -0.518,-1.602 -2.159,-3 -3.818,-3 z"
     id="path38"
     inkscape:connector-curvature="0"
     style="fill:#ea596e" />
  <path
     d="m 10.814,30 -4,0 c 0,0 0.389,1.333 2,1.333 1.611,0 2,-1.333 2,-1.333 z m -2,-0.5 c -0.13,0 -0.26,-0.05 -0.35,-0.15 -0.1,-0.09 -0.15,-0.22 -0.15,-0.35 0,-0.13 0.05,-0.26 0.15,-0.36 0.17,-0.17 0.52,-0.18 0.71,0.01 0.09,0.091 0.14,0.221 0.14,0.351 0,0.13 -0.05,0.26 -0.15,0.35 -0.09,0.099 -0.22,0.149 -0.35,0.149 z"
     id="path40"
     inkscape:connector-curvature="0"
     style="fill:#bf6952" />
  <path
     d="M 10.814,28 C 10.353,28 9.981,27.627 9.981,27.167 l 0,-0.833 c 0,-0.461 0.373,-0.833 0.833,-0.833 0.461,0 0.833,0.373 0.833,0.833 l 0,0.833 C 11.648,27.627 11.275,28 10.814,28 Z m -4,0 C 6.353,28 5.981,27.627 5.981,27.167 l 0,-0.833 c 0,-0.461 0.373,-0.833 0.833,-0.833 0.461,0 0.833,0.373 0.833,0.833 l 0,0.833 C 7.648,27.627 7.275,28 6.814,28 Z"
     id="path42"
     inkscape:connector-curvature="0"
     style="fill:#662113" />
</svg>
