<?xml version="1.0" encoding="UTF-8" standalone="no"?>
<svg
   xmlns:dc="http://purl.org/dc/elements/1.1/"
   xmlns:cc="http://creativecommons.org/ns#"
   xmlns:rdf="http://www.w3.org/1999/02/22-rdf-syntax-ns#"
   xmlns:svg="http://www.w3.org/2000/svg"
   xmlns="http://www.w3.org/2000/svg"
   xmlns:sodipodi="http://sodipodi.sourceforge.net/DTD/sodipodi-0.dtd"
   xmlns:inkscape="http://www.inkscape.org/namespaces/inkscape"
   viewBox="0 0 31.022272 35.815548"
   id="svg2"
   version="1.1"
   inkscape:version="0.91 r13725"
   sodipodi:docname="1f468-1f3fd-200d-1f9bd.svg"
   width="31.022272"
   height="35.815548">
  <metadata
     id="metadata68">
    <rdf:RDF>
      <cc:Work
         rdf:about="">
        <dc:format>image/svg+xml</dc:format>
        <dc:type
           rdf:resource="http://purl.org/dc/dcmitype/StillImage" />
      </cc:Work>
    </rdf:RDF>
  </metadata>
  <defs
     id="defs66" />
  <sodipodi:namedview
     pagecolor="#ffffff"
     bordercolor="#666666"
     borderopacity="1"
     objecttolerance="10"
     gridtolerance="10"
     guidetolerance="10"
     inkscape:pageopacity="0"
     inkscape:pageshadow="2"
     inkscape:window-width="640"
     inkscape:window-height="480"
     id="namedview64"
     showgrid="false"
     inkscape:zoom="6.5555556"
     inkscape:cx="16.022271"
     inkscape:cy="18"
     inkscape:window-x="0"
     inkscape:window-y="0"
     inkscape:window-maximized="0"
     inkscape:current-layer="svg2" />
  <path
     d="m 19.982271,0.78954928 c -1.285,-0.762 -3.537,-0.411 -4.045,1.15200002 -0.504,1.552 -0.455,4.123 0.968,4.198 1.492,0.079 3.048,0.003 3.886,-1.41 0.838,-1.414 0.476,-3.178 -0.809,-3.94000002 z"
     id="path4"
     inkscape:connector-curvature="0"
     style="fill:#d4ab88" />
  <path
     d="m 20.338271,5.0545493 c 2.376,-2.023 -2.471,-2.572 -2.471,-2.572 -0.916,-0.114 -0.535,1.504 -1.097,2.263 -0.387,0.526 0.801,1.03 0.801,1.03 0,0 0.569,0.083 0.488,0.777 l -10e-4,0.006 c -0.021,0.177 -0.074,0.382 -0.2,0.647 -0.631,1.313 1.085,2.458 1.715,1.142 0.249,-0.521 0.265,-1.012 0.255,-1.469 l -0.001,-0.041 c -0.017,-0.68 -0.076,-1.283 0.511,-1.783 z"
     id="path6"
     inkscape:connector-curvature="0"
     style="fill:#d4ab88" />
  <path
     d="m 21.461271,1.5965493 c -0.741,-1.21700002 -1.958,-1.99700002 -4.214,-1.38100002 -0.919,0.251 -1.279,0.045 -1.429,0.196 -0.718,0.72600002 -0.068,1.76600002 0.273,1.63400002 1.082,-0.417 1.946,-0.101 2.106,0.353 0.16,0.454 -0.171,1.169 0.013,1.204 0.496,0.094 0.494,-0.407 0.737,-0.657 0.397,-0.408 0.847,-0.068 0.872,0.461 0.02,0.419 -0.177,1.095 -0.86,1.109 0.29,1.065 1.134,1.511 1.134,1.511 0,0 0.271,0.161 0.925,-0.735 0.655,-0.896 1.178,-2.486 0.443,-3.695 z"
     id="path8"
     inkscape:connector-curvature="0"
     style="fill:#963b22" />
  <path
     d="m 6.2332712,29.894549 c 0,0 0.097,-0.127 0.175,-0.426 0.078,-0.299 0.069,-0.897 0.047,-0.988 -0.022,-0.091 -0.053,-0.16 -0.163,-0.158 -0.083,0.001 -0.759,0.146 -1.144,0.061 -0.716,-0.158 -0.892,-0.883 -0.892,-0.883 0,0 -0.452,0.123 -0.812,0.223 -0.361,0.101 -0.796,0.279 -1.106,0.372 -0.265,0.079 -0.543,0.078 -0.823,0.041 -0.279,-0.036 -0.496,-0.105 -0.56300003,-0.116 -0.067,-0.011 -0.597,-0.219 -0.757,0.317 l -0.037,0.159 c 0,0 0.87100003,0.645 2.20900003,0.993 1.338,0.348 1.646,0.009 2.511,0.234 0.865,0.225 1.355,0.171 1.355,0.171 z"
     id="path10"
     inkscape:connector-curvature="0"
     style="fill:#292f33" />
  <path
     d="m 4.2842712,30.303549 c -0.044,-0.066 -0.065,-0.248 -0.109,-0.284 -0.043,-0.036 -0.585,-0.059 -0.839,-0.064 -0.254,-0.005 -0.691,-0.016 -1.175,-0.142 -0.484,-0.126 -1.074,-0.431 -1.43600003,-0.629 -0.362,-0.198 -0.632,-0.407 -0.689,-0.468 -0.057,-0.061 -0.033,-0.075 -0.02,-0.106 0.013,-0.031 0.103,-0.186 0.103,-0.186 0,0 0.214,0.195 0.607,0.407 0.39300003,0.212 0.79200003,0.399 1.51400003,0.587 0.722,0.188 1.204,0.199 1.606,0.195 0.501,-0.004 1.215,0.035 1.701,0.162 0.375,0.098 0.668,0.056 0.776,0.056 0.025,0 0.043,0.023 0.036,0.048 l -0.167,0.64 c -0.011,0.042 -0.07,0.128 -0.186,0.122 -0.114,-0.004 -1.679,-0.271 -1.722,-0.338 z"
     id="path12"
     inkscape:connector-curvature="0"
     style="fill:#292f33" />
  <path
     d="m 22.054271,17.094549 c 0.193,1.421 -0.135,2.945 -1.22,3.321 -1.039,0.36 -3.058,0.116 -3.058,0.116 0,0 -0.66,0.468 -0.426,1.231 0.133,0.434 0.314,0.645 0.262,0.692 -0.046,0.042 -0.486,0.02 -0.684,0.027 -0.528,0.02 -1.114,-0.115 -2.108,-0.301 -0.994,-0.187 -1.44,-0.16 -2.522,-0.359 -1.198,-0.22 -2.051,-0.659 -2.4909998,-1.745 -0.375,-0.927 0.091,-2.139 1.4189998,-2.764 1.08,-0.508 4.292,-0.724 5.498,-0.712 1.207,0.011 5.162,-0.741 5.33,0.494 z"
     id="path14"
     inkscape:connector-curvature="0"
     style="fill:#4289c1" />
  <path
     d="m 4.9012712,28.647549 c -0.656,-0.086 -1.341,-0.485 -1.521,-1.095 1.178,-1.982 3,-7.829 3,-7.829 0.541,-1.798 1.213,-3.546 2.843,-3.443 2.0999998,0.133 5.6969998,0.533 5.6969998,0.533 2.296,0.13 1.228,0.904 1.938,1.75 0.712,0.845 -1.115,2.095 -2.611,2.126 -2.607,0.054 -3.902,-0.113 -5.4279998,1.324 -0.596,2.367 -1.706,4.252 -2.275,6.63 -0.799,0.315 -0.987,0.091 -1.643,0.004 z"
     id="path16"
     inkscape:connector-curvature="0"
     style="fill:#4289c1" />
  <path
     d="m 22.720271,15.988549 c 0.029,0.719 0.15,1.674 -0.276,1.567 -1.679,-0.424 -5.438,-0.168 -5.438,-0.168 -0.508,-1.594 -0.392,-4.069 -0.566,-6.317 -0.229,-2.9499997 1.585,-4.7439997 2.845,-4.4849997 0.513,0.105 1.136,0.428 1.511,0.77 0.278,0.253 0.924,0.961 1.141,1.169 1.106,1.06 0.124,1.405 0.327,2.5959997 0.444,2.597 0.427,4.149 0.456,4.868 z"
     id="path18"
     inkscape:connector-curvature="0"
     style="fill:#77b255" />
  <g
     id="g20"
     style="fill:#dd2e44"
     transform="translate(-1.9777288,-0.18445072)">
    <path
       d="m 13.465,27.092 10.824,0.95 c 0.274,0.024 0.518,-0.181 0.542,-0.455 0.024,-0.274 -0.181,-0.518 -0.455,-0.542 l -10.824,-0.95 c -0.274,-0.024 -0.518,0.181 -0.542,0.455 -0.024,0.274 0.181,0.518 0.455,0.542 z"
       id="path22"
       inkscape:connector-curvature="0" />
    <path
       d="M 24.288,28.041 C 24.014,28.017 23.81,27.773 23.833,27.499 l 0.436,-4.981 c 0.024,-0.274 0.268,-0.478 0.542,-0.455 0.274,0.024 0.478,0.268 0.455,0.542 l -0.436,4.981 c -0.024,0.275 -0.268,0.479 -0.542,0.455 z M 13.55,20.461 c -0.274,-0.024 -0.518,0.181 -0.542,0.455 l -1.015,11.597 c -0.024,0.274 0.181,0.518 0.455,0.542 0.274,0.024 0.518,-0.181 0.542,-0.455 l 1.015,-11.597 c 0.023,-0.274 -0.181,-0.518 -0.455,-0.542 z"
       id="path24"
       inkscape:connector-curvature="0" />
  </g>
  <path
     d="m 21.546271,20.407549 c 1.431,-0.206 2.834,-0.148 2.345,0.544 -0.489,0.692 -1.575,1.905 -3.418,1.707 -1.844,-0.198 0.185,-2.123 1.073,-2.251 z"
     id="path26"
     inkscape:connector-curvature="0"
     style="fill:#292f33" />
  <path
     d="m 20.472271,22.658549 -9.962,-0.872 c -0.9959998,-0.087 -0.9959998,-0.087 -0.9089998,-1.083 0.048,-0.548 0.5349998,-0.957 1.0829998,-0.909 l 9.962,0.872 c 0.548,0.048 0.957,0.535 0.909,1.083 -0.087,0.996 -0.087,0.996 -1.083,0.909 z"
     id="path28"
     inkscape:connector-curvature="0"
     style="fill:#292f33" />
  <path
     d="m 20.986271,22.951549 -10.958,-0.959 c -0.2739998,-0.024 -0.4779998,-0.268 -0.4549998,-0.542 0.024,-0.274 0.268,-0.478 0.5419998,-0.455 l 10.958,0.959 c 0.274,0.024 0.478,0.268 0.455,0.542 -0.025,0.275 -0.268,0.479 -0.542,0.455 z"
     id="path30"
     inkscape:connector-curvature="0"
     style="fill:#dd2e44" />
  <path
     d="m 25.300271,9.2695493 -0.872,9.9619997 c -0.087,0.996 -0.087,0.996 -1.083,0.909 -0.548,-0.048 -0.957,-0.535 -0.909,-1.083 l 0.872,-9.9619997 c 0.048,-0.548 0.535,-0.957 1.083,-0.909 0.996,0.087 0.996,0.087 0.909,1.083 z"
     id="path32"
     inkscape:connector-curvature="0"
     style="fill:#292f33" />
  <path
     d="m 25.736271,8.8115493 -0.959,10.9579997 c -0.024,0.274 -0.268,0.478 -0.542,0.455 -0.274,-0.024 -0.478,-0.268 -0.455,-0.542 l 0.959,-10.9579997 c 0.024,-0.274 0.268,-0.478 0.542,-0.455 0.274,0.025 0.479,0.268 0.455,0.542 z"
     id="path34"
     inkscape:connector-curvature="0"
     style="fill:#dd2e44" />
  <path
     d="m 22.642271,18.334549 -7.552,-0.661 c -0.755,-0.066 -0.755,-0.066 -0.69,-0.812 0.036,-0.41 0.405,-0.716 0.82,-0.68 l 7.552,0.661 c 0.415,0.036 0.726,0.402 0.69,0.812 -0.064,0.746 -0.064,0.746 -0.82,0.68 z"
     id="path36"
     inkscape:connector-curvature="0"
     style="fill:#292f33" />
  <path
     d="m 20.575271,21.911549 c 1.004,0.088 2.989,0.261 3.25,-2.727 0.261,-2.988 1.258,-2.901 0.996,0.087 -0.262,2.988 -1.909,3.848 -4.333,3.636 -1.993,-0.174 -1.906,-1.17 0.087,-0.996 z m -10.449,-0.914 c 1.993,0.166 2.392,1.218 0.4,1.039 -0.8829998,-0.079 -0.9619998,0.297 -1.1629998,1.063 -0.189,0.721 -0.456,1.803 -0.858,3.318 -0.295,1.112 -1.221,0.712 -0.977,-0.257 0.411,-1.63 0.798,-3.05 1.052,-3.953 0.258,-0.922 0.502,-1.297 1.5459998,-1.21 z"
     id="path38"
     inkscape:connector-curvature="0"
     style="fill:#dd2e44" />
  <g
     id="g40"
     style="fill:#66757f"
     transform="translate(-1.9777288,-0.18445072)">
    <circle
       cx="24.5"
       cy="27.5"
       r="1.5"
       id="circle42" />
    <path
       d="m 31.245,30.817 -6.062,-3.5 3.5,-6.062 -0.866,-0.5 -3.5,6.062 -6.062,-3.5 -0.5,0.866 6.062,3.5 -3.5,6.062 0.866,0.5 3.5,-6.062 6.062,3.5 z"
       id="path44"
       inkscape:connector-curvature="0" />
    <path
       d="m 26.924,34.615 -1.812,-6.761 6.762,-1.812 -0.259,-0.966 -6.761,1.812 -1.812,-6.762 -0.966,0.259 1.812,6.761 -6.762,1.812 0.259,0.966 6.761,-1.812 1.812,6.762 z"
       id="path46"
       inkscape:connector-curvature="0" />
  </g>
  <path
     d="m 22.522271,18.815549 c -4.694,0 -8.5,3.806 -8.5,8.5 0,4.694 3.806,8.5 8.5,8.5 4.694,0 8.5,-3.806 8.5,-8.5 0,-4.694 -3.806,-8.5 -8.5,-8.5 z m 0,15 c -3.59,0 -6.5,-2.91 -6.5,-6.5 0,-3.59 2.91,-6.5 6.5,-6.5 3.59,0 6.5,2.91 6.5,6.5 0,3.59 -2.91,6.5 -6.5,6.5 z"
     id="path48"
     inkscape:connector-curvature="0"
     style="fill:#292f33" />
  <path
     d="m 22.522271,19.815549 c -4.142,0 -7.5,3.358 -7.5,7.5 0,4.142 3.358,7.5 7.5,7.5 4.142,0 7.5,-3.358 7.5,-7.5 0,-4.142 -3.358,-7.5 -7.5,-7.5 z m 0,14 c -3.59,0 -6.5,-2.91 -6.5,-6.5 0,-3.59 2.91,-6.5 6.5,-6.5 3.59,0 6.5,2.91 6.5,6.5 0,3.59 -2.91,6.5 -6.5,6.5 z m -9.152,-0.433 -2.165,-1.25 1.25,-2.165 -0.866,-0.5 -1.25,2.165 -2.1649998,-1.25 -0.5,0.866 2.165,1.25 -1.25,2.165 0.866,0.5 1.2499998,-2.165 2.165,1.25 z"
     id="path50"
     inkscape:connector-curvature="0"
     style="fill:#66757f" />
  <path
     d="m 10.522271,28.815549 c -1.9329998,0 -3.4999998,1.567 -3.4999998,3.5 0,1.933 1.567,3.5 3.4999998,3.5 1.933,0 3.5,-1.567 3.5,-3.5 0,-1.933 -1.567,-3.5 -3.5,-3.5 z m 0,6 c -1.3809998,0 -2.4999998,-1.119 -2.4999998,-2.5 0,-1.381 1.119,-2.5 2.4999998,-2.5 1.381,0 2.5,1.119 2.5,2.5 0,1.381 -1.119,2.5 -2.5,2.5 z"
     id="path52"
     inkscape:connector-curvature="0"
     style="fill:#292f33" />
  <path
     d="m 8.3102712,25.178549 c -0.266,-0.071 -0.541,0.088 -0.612,0.354 l -1.553,5.796 c -0.071,0.266 0.088,0.541 0.354,0.612 0.266,0.071 0.541,-0.088 0.612,-0.354 l 1.553,-5.796 c 0.07,-0.265 -0.089,-0.541 -0.354,-0.612 z"
     id="path54"
     inkscape:connector-curvature="0"
     style="fill:#dd2e44" />
  <path
     d="m 6.4982712,31.940549 -3.864,-1.035 c -0.266,-0.071 -0.425,-0.347 -0.354,-0.612 0.071,-0.266 0.347,-0.425 0.612,-0.354 l 3.864,1.035 c 0.266,0.071 0.426,0.346 0.354,0.612 -0.071,0.266 -0.346,0.425 -0.612,0.354 z"
     id="path56"
     inkscape:connector-curvature="0"
     style="fill:#66757f" />
  <path
     d="m 28.125271,9.7845493 -2.954,-0.521 c -0.271,-0.048 -0.453,-0.308 -0.406,-0.579 0.048,-0.271 0.308,-0.453 0.579,-0.406 l 2.954,0.521 c 0.271,0.048 0.453,0.308 0.406,0.579 -0.048,0.272 -0.308,0.454 -0.579,0.406 z"
     id="path58"
     inkscape:connector-curvature="0"
     style="fill:#dd2e44" />
  <path
     d="m 29.110271,9.9585493 -2.615,-0.467 c -0.271,-0.048 -0.26,-0.274 -0.213,-0.545 0.048,-0.271 0.116,-0.487 0.386,-0.44 l 2.615,0.467 c 0.271,0.048 0.453,0.308 0.406,0.579 -0.048,0.271 -0.308,0.4539997 -0.579,0.406 z"
     id="path60"
     inkscape:connector-curvature="0"
     style="fill:#292f33" />
  <path
     d="m 20.140271,10.412549 c 1.142,0.988 3.458,2.697 3.436,2.951 -0.128,1.469 0.543,3.175 0.369,4.087 -0.126,0.661 -0.665,1.138 -0.594,1.495 0.667,-0.009 0.443,1.15 0.729,1.665 0.301,0.542 1.171,-0.093 1.282,-0.949 0.081,-0.629 -0.102,-1.11 -0.167,-1.752 -0.093,-0.915 1.094,-3.661 0.22,-5.467 -0.295,-0.609 -1.531,-2.277 -3.635,-4.1219997 -0.595,0.457 -1.64,2.0919997 -1.64,2.0919997 z"
     id="path62"
     inkscape:connector-curvature="0"
     style="fill:#d4ab88" />
</svg>
