<?xml version="1.0" encoding="UTF-8" standalone="no"?>
<svg
   xmlns:dc="http://purl.org/dc/elements/1.1/"
   xmlns:cc="http://creativecommons.org/ns#"
   xmlns:rdf="http://www.w3.org/1999/02/22-rdf-syntax-ns#"
   xmlns:svg="http://www.w3.org/2000/svg"
   xmlns="http://www.w3.org/2000/svg"
   xmlns:sodipodi="http://sodipodi.sourceforge.net/DTD/sodipodi-0.dtd"
   xmlns:inkscape="http://www.inkscape.org/namespaces/inkscape"
   viewBox="0 0 35.632 35.861"
   id="svg2"
   version="1.1"
   inkscape:version="0.91 r13725"
   sodipodi:docname="1f468-200d-1f466-200d-1f466.svg"
   width="35.632"
   height="35.861">
  <metadata
     id="metadata46">
    <rdf:RDF>
      <cc:Work
         rdf:about="">
        <dc:format>image/svg+xml</dc:format>
        <dc:type
           rdf:resource="http://purl.org/dc/dcmitype/StillImage" />
      </cc:Work>
    </rdf:RDF>
  </metadata>
  <defs
     id="defs44" />
  <sodipodi:namedview
     pagecolor="#ffffff"
     bordercolor="#666666"
     borderopacity="1"
     objecttolerance="10"
     gridtolerance="10"
     guidetolerance="10"
     inkscape:pageopacity="0"
     inkscape:pageshadow="2"
     inkscape:window-width="640"
     inkscape:window-height="480"
     id="namedview42"
     showgrid="false"
     inkscape:zoom="6.5555556"
     inkscape:cx="17.816"
     inkscape:cy="18"
     inkscape:window-x="0"
     inkscape:window-y="0"
     inkscape:window-maximized="0"
     inkscape:current-layer="svg2" />
  <path
     d="m 15.254,21.861 0,-3 5,0 0,3 1.861,0 0,6 -9,0 0,-6 z"
     id="path4"
     inkscape:connector-curvature="0"
     style="fill:#ffdc5d" />
  <path
     d="m 25.288,21.861 -5,0 -2.472,3.778 -2.562,-3.778 -5.966,0 c -1.779,0 -1.945,1.193 -1.945,2.973 l 0,11.027 20.945,0 0,-11.027 c 0,-1.973 -1,-2.973 -3,-2.973 z"
     id="path6"
     inkscape:connector-curvature="0"
     style="fill:#3b93d9" />
  <path
     d="m 23.302,25.861 1.028,0 0,10 -1.028,0 z m -12,0 1.028,0 0,10 -1.028,0 z"
     id="path8"
     inkscape:connector-curvature="0"
     style="fill:#1b6399" />
  <path
     d="m 25.254,13.861 0,-9 -15,-1 0,10 0.024,0 c 0.252,3.89 3.498,6.969 7.476,6.969 3.806,0 6.957,-2.822 7.443,-6.473 0.022,-0.165 0.046,-0.329 0.057,-0.496 z"
     id="path10"
     inkscape:connector-curvature="0"
     style="fill:#ffdc5d" />
  <path
     d="M 25.197,14.356 C 26.394,12.845 27.114,10.938 27.114,8.861 27.114,3.968 23.147,0 18.253,0 16.925,0 15.671,0.301 14.54,0.825 14.65,0.818 14.919,0.812 15.057,0.808 11.141,0.84 7.975,4.021 7.975,7.945 c 0,2.058 0.884,3.898 2.278,5.199 l 0,-3.283 c 6.07,0 9.549,-2.576 11.356,-4.603 0.491,1.542 1.565,3.883 3.644,4.466 l 0,4.137 c -0.01,0.167 -0.034,0.331 -0.056,0.495 z"
     id="path12"
     inkscape:connector-curvature="0"
     style="fill:#ffac33" />
  <path
     d="m 20.976,17.584 -6.444,0 c 0,0 0.805,1.61 3.222,1.61 2.417,0 3.222,-1.61 3.222,-1.61 z m -2.722,-2.223 -1,0 c -0.276,0 -0.5,-0.224 -0.5,-0.5 0,-0.276 0.224,-0.5 0.5,-0.5 l 1,0 c 0.276,0 0.5,0.224 0.5,0.5 0,0.276 -0.224,0.5 -0.5,0.5 z"
     id="path14"
     inkscape:connector-curvature="0"
     style="fill:#bf6952" />
  <path
     d="m 14.254,12.861 c -0.552,0 -1,-0.448 -1,-1 l 0,-1 c 0,-0.552 0.448,-1 1,-1 0.552,0 1,0.448 1,1 l 0,1 c 0,0.552 -0.448,1 -1,1 z m 7,0 c -0.552,0 -1,-0.448 -1,-1 l 0,-1 c 0,-0.552 0.448,-1 1,-1 0.552,0 1,0.448 1,1 l 0,1 c 0,0.552 -0.448,1 -1,1 z"
     id="path16"
     inkscape:connector-curvature="0"
     style="fill:#662113" />
  <path
     d="m 28.814,33.861 0,-3 -4,0 0,3 -1,0 0,2 6,0 0,-2 z"
     id="path18"
     inkscape:connector-curvature="0"
     style="fill:#ffdc5d" />
  <path
     d="m 24.814,32.861 -2,0 c -2.493,0 -4.276,1.385 -4.814,3 l 17.632,0 c -0.517,-1.602 -2.159,-3 -3.818,-3 l -3,0 -0.466,0.466 -1.534,1.534 -2,-2 z"
     id="path20"
     inkscape:connector-curvature="0"
     style="fill:#88c9f9" />
  <path
     d="m 32.809,26.901 -0.002,-0.04 0.007,0 0,-4.286 -4.286,-0.857 -7.714,0.857 0,4.286 0.002,0 -0.002,0.04 c 0,0.644 0.106,1.263 0.296,1.844 0.782,2.388 3.038,4.116 5.702,4.116 2.659,0 4.911,-1.722 5.697,-4.103 0.192,-0.585 0.3,-1.208 0.3,-1.857 z"
     id="path22"
     inkscape:connector-curvature="0"
     style="fill:#ffdc5d" />
  <path
     d="m 33.814,24.986 c 0,-3.383 -2.742,-6.125 -6.125,-6.125 -0.298,0 -0.588,0.029 -0.875,0.07 -0.286,-0.041 -0.577,-0.07 -0.875,-0.07 -3.383,0 -6.125,2.742 -6.125,6.125 0,1.418 0.487,2.721 1.296,3.759 -0.19,-0.581 -0.296,-1.2 -0.296,-1.844 l 0.002,-0.04 -0.002,0 0,-1.911 c 4.172,-0.181 6.588,-1.592 7.929,-2.91 0.91,1.074 2.351,2.414 4.071,2.816 l 0,2.005 -0.007,0 0.002,0.04 c 0,0.649 -0.108,1.272 -0.301,1.857 0.816,-1.04 1.306,-2.348 1.306,-3.772 z"
     id="path24"
     inkscape:connector-curvature="0"
     style="fill:#f4900c" />
  <path
     d="m 28.814,29.861 -4,0 c 0,0 0.389,1.333 2,1.333 1.611,0 2,-1.333 2,-1.333 z m -2,-0.5 c -0.13,0 -0.26,-0.05 -0.35,-0.15 -0.1,-0.09 -0.15,-0.22 -0.15,-0.35 0,-0.13 0.05,-0.26 0.15,-0.36 0.17,-0.17 0.52,-0.18 0.71,0.01 0.09,0.091 0.14,0.221 0.14,0.351 0,0.13 -0.05,0.26 -0.15,0.35 -0.09,0.099 -0.22,0.149 -0.35,0.149 z"
     id="path26"
     inkscape:connector-curvature="0"
     style="fill:#bf6952" />
  <path
     d="m 28.814,27.861 c -0.461,0 -0.833,-0.373 -0.833,-0.833 l 0,-0.833 c 0,-0.461 0.373,-0.833 0.833,-0.833 0.461,0 0.833,0.373 0.833,0.833 l 0,0.833 c 0.001,0.46 -0.372,0.833 -0.833,0.833 z m -4,0 c -0.461,0 -0.833,-0.373 -0.833,-0.833 l 0,-0.833 c 0,-0.461 0.373,-0.833 0.833,-0.833 0.461,0 0.833,0.373 0.833,0.833 l 0,0.833 c 0.001,0.46 -0.372,0.833 -0.833,0.833 z"
     id="path28"
     inkscape:connector-curvature="0"
     style="fill:#662113" />
  <path
     d="m 10.814,33.861 0,-3 -4,0 0,3 -1,0 0,2 6,0 0,-2 z"
     id="path30"
     inkscape:connector-curvature="0"
     style="fill:#ffdc5d" />
  <path
     d="m 6.814,32.861 -2,0 c -2.493,0 -4.276,1.385 -4.814,3 l 17.632,0 c -0.517,-1.602 -2.159,-3 -3.818,-3 l -3,0 -0.466,0.466 -1.534,1.534 -2,-2 z"
     id="path32"
     inkscape:connector-curvature="0"
     style="fill:#88c9f9" />
  <path
     d="m 14.809,26.901 -0.002,-0.04 0.007,0 0,-4.286 -4.286,-0.857 -7.714,0.857 0,4.286 0.002,0 -0.002,0.04 c 0,0.644 0.106,1.263 0.296,1.844 0.782,2.388 3.038,4.116 5.702,4.116 2.659,0 4.911,-1.722 5.697,-4.103 0.192,-0.585 0.3,-1.208 0.3,-1.857 z"
     id="path34"
     inkscape:connector-curvature="0"
     style="fill:#ffdc5d" />
  <path
     d="m 15.814,24.986 c 0,-3.383 -2.742,-6.125 -6.125,-6.125 -0.298,0 -0.588,0.029 -0.875,0.07 -0.286,-0.041 -0.577,-0.07 -0.875,-0.07 -3.383,0 -6.125,2.742 -6.125,6.125 0,1.418 0.487,2.721 1.296,3.759 -0.19,-0.581 -0.296,-1.2 -0.296,-1.844 l 0.002,-0.04 -0.002,0 0,-1.911 c 4.172,-0.181 6.588,-1.592 7.929,-2.91 0.91,1.074 2.351,2.414 4.071,2.816 l 0,2.005 -0.007,0 0.002,0.04 c 0,0.649 -0.108,1.272 -0.301,1.857 0.816,-1.04 1.306,-2.348 1.306,-3.772 z"
     id="path36"
     inkscape:connector-curvature="0"
     style="fill:#f4900c" />
  <path
     d="m 10.814,29.861 -4,0 c 0,0 0.389,1.333 2,1.333 1.611,0 2,-1.333 2,-1.333 z m -2,-0.5 c -0.13,0 -0.26,-0.05 -0.35,-0.15 -0.1,-0.09 -0.15,-0.22 -0.15,-0.35 0,-0.13 0.05,-0.26 0.15,-0.36 0.17,-0.17 0.52,-0.18 0.71,0.01 0.09,0.091 0.14,0.221 0.14,0.351 0,0.13 -0.05,0.26 -0.15,0.35 -0.09,0.099 -0.22,0.149 -0.35,0.149 z"
     id="path38"
     inkscape:connector-curvature="0"
     style="fill:#bf6952" />
  <path
     d="m 10.814,27.861 c -0.461,0 -0.833,-0.373 -0.833,-0.833 l 0,-0.833 c 0,-0.461 0.373,-0.833 0.833,-0.833 0.461,0 0.833,0.373 0.833,0.833 l 0,0.833 c 10e-4,0.46 -0.372,0.833 -0.833,0.833 z m -4,0 c -0.461,0 -0.833,-0.373 -0.833,-0.833 l 0,-0.833 c 0,-0.461 0.373,-0.833 0.833,-0.833 0.461,0 0.833,0.373 0.833,0.833 l 0,0.833 c 10e-4,0.46 -0.372,0.833 -0.833,0.833 z"
     id="path40"
     inkscape:connector-curvature="0"
     style="fill:#662113" />
</svg>
