<?xml version="1.0" encoding="UTF-8" standalone="no"?>
<svg
   xmlns:dc="http://purl.org/dc/elements/1.1/"
   xmlns:cc="http://creativecommons.org/ns#"
   xmlns:rdf="http://www.w3.org/1999/02/22-rdf-syntax-ns#"
   xmlns:svg="http://www.w3.org/2000/svg"
   xmlns="http://www.w3.org/2000/svg"
   xmlns:sodipodi="http://sodipodi.sourceforge.net/DTD/sodipodi-0.dtd"
   xmlns:inkscape="http://www.inkscape.org/namespaces/inkscape"
   viewBox="0 0 28 36"
   id="svg2"
   version="1.1"
   inkscape:version="0.91 r13725"
   sodipodi:docname="1f46e.svg"
   width="28"
   height="36">
  <metadata
     id="metadata50">
    <rdf:RDF>
      <cc:Work
         rdf:about="">
        <dc:format>image/svg+xml</dc:format>
        <dc:type
           rdf:resource="http://purl.org/dc/dcmitype/StillImage" />
      </cc:Work>
    </rdf:RDF>
  </metadata>
  <defs
     id="defs48" />
  <sodipodi:namedview
     pagecolor="#ffffff"
     bordercolor="#666666"
     borderopacity="1"
     objecttolerance="10"
     gridtolerance="10"
     guidetolerance="10"
     inkscape:pageopacity="0"
     inkscape:pageshadow="2"
     inkscape:window-width="640"
     inkscape:window-height="480"
     id="namedview46"
     showgrid="false"
     inkscape:zoom="6.5555556"
     inkscape:cx="14"
     inkscape:cy="18.001"
     inkscape:window-x="0"
     inkscape:window-y="0"
     inkscape:window-maximized="0"
     inkscape:current-layer="svg2" />
  <path
     d="m 28,35.999 0,-2 c 0,-3.314 -2.685,-6 -6,-6 l -16,0 c -3.313,0 -6,2.686 -6,6 l 0,2 28,0 z"
     id="path4"
     inkscape:connector-curvature="0"
     style="fill:#2a6797" />
  <ellipse
     cx="14.003"
     cy="7.5"
     rx="12"
     ry="7.5"
     id="ellipse6"
     style="fill:#2a6797" />
  <path
     d="m 9.64,28.1 c 0,0 2.848,1.963 4.36,1.963 1.512,0 4.359,-1.963 4.359,-1.963 l 0,-3.811 -8.72,0 0,3.811 z"
     id="path8"
     inkscape:connector-curvature="0"
     style="fill:#ffdc5d" />
  <path
     d="m 9.632,25.972 c 1.216,1.374 2.724,1.746 4.364,1.746 1.639,0 3.146,-0.373 4.363,-1.746 l 0,-3.491 -8.728,0 0,3.491 z"
     id="path10"
     inkscape:connector-curvature="0"
     style="fill:#f9ca55" />
  <path
     d="m 7.444,15.935 c 0,1.448 -0.734,2.622 -1.639,2.622 -0.905,0 -1.639,-1.174 -1.639,-2.622 0,-1.448 0.734,-2.623 1.639,-2.623 0.905,-10e-4 1.639,1.174 1.639,2.623 m 16.389,0 c 0,1.448 -0.733,2.622 -1.639,2.622 -0.905,0 -1.639,-1.174 -1.639,-2.622 0,-1.448 0.733,-2.623 1.639,-2.623 0.906,-10e-4 1.639,1.174 1.639,2.623"
     id="path12"
     inkscape:connector-curvature="0"
     style="fill:#ffdc5d" />
  <path
     d="M 5.477,16.958 C 5.477,11.369 9.293,6.8370001 14,6.8370001 c 4.707,0 8.522,4.5319999 8.522,10.1209999 0,5.589 -3.815,10.121 -8.522,10.121 -4.707,0 -8.523,-4.531 -8.523,-10.121"
     id="path14"
     inkscape:connector-curvature="0"
     style="fill:#ffdc5d" />
  <path
     d="m 14,23.801 c -2.754,0 -3.6,-0.705 -3.741,-0.848 -0.256,-0.256 -0.256,-0.671 0,-0.927 0.248,-0.248 0.646,-0.255 0.902,-0.023 0.052,0.037 0.721,0.487 2.839,0.487 2.2,0 2.836,-0.485 2.842,-0.49 0.256,-0.255 0.657,-0.243 0.913,0.015 0.256,0.256 0.242,0.683 -0.014,0.938 C 17.6,23.096 16.754,23.801 14,23.801"
     id="path16"
     inkscape:connector-curvature="0"
     style="fill:#c1694f" />
  <path
     d="m 14,4.4050001 c 5.648,0 9.178,3.242 9.178,6.7149999 0,3.473 -0.706,4.863 -1.412,3.473 l -1.412,-2.778 c 0,0 -4.235,0 -5.647,-1.39 0,0 2.118,4.168 -2.118,0 0,0 0.706,2.779 -3.53,-0.6939999 0,0 -2.118,1.3889999 -2.824,4.8619999 -0.196,0.964 -1.412,0 -1.412,-3.473 C 4.822,7.6470001 7.646,4.4050001 14,4.4050001"
     id="path18"
     inkscape:connector-curvature="0"
     style="fill:#ffac33" />
  <path
     d="m 10,16.999 c -0.55,0 -1,-0.45 -1,-1 l 0,-1 c 0,-0.55 0.45,-1 1,-1 0.55,0 1,0.45 1,1 l 0,1 c 0,0.55 -0.45,1 -1,1 m 8,0 c -0.55,0 -1,-0.45 -1,-1 l 0,-1 c 0,-0.55 0.45,-1 1,-1 0.55,0 1,0.45 1,1 l 0,1 c 0,0.55 -0.45,1 -1,1"
     id="path20"
     inkscape:connector-curvature="0"
     style="fill:#662113" />
  <path
     d="m 14.75,19.749 -1.5,0 c -0.413,0 -0.75,-0.337 -0.75,-0.75 0,-0.413 0.337,-0.75 0.75,-0.75 l 1.5,0 c 0.413,0 0.75,0.337 0.75,0.75 0,0.413 -0.337,0.75 -0.75,0.75"
     id="path22"
     inkscape:connector-curvature="0"
     style="fill:#c1694f" />
  <path
     d="m 4.5,7.9990001 0,1 C 4.5,10.104 8.753,10.999 14,10.999 c 5.247,0 9.5,-0.895 9.5,-1.9999999 l 0,-1 -19,0 z"
     id="path24"
     inkscape:connector-curvature="0"
     style="fill:#2a6797" />
  <path
     d="m 23.001,7.9990001 0,-2 c 0,0 -3.75,-2.25 -9.001,-2.25 -5.248,0 -8.998,2.25 -8.998,2.25 l 0,2 17.999,0 z"
     id="path26"
     inkscape:connector-curvature="0"
     style="fill:#4289c1" />
  <path
     d="m 23.5,7.9990001 -19,0 c -0.275,0 -0.5,0.225 -0.5,0.5 0,0.275 0.225,0.5 0.5,0.5 l 19,0 c 0.275,0 0.5,-0.225 0.5,-0.5 0,-0.275 -0.225,-0.5 -0.5,-0.5 z"
     id="path28"
     inkscape:connector-curvature="0"
     style="fill:#fdcb58" />
  <path
     d="m 15.947,32.276 c 0.886,0.622 1.812,1.245 2.147,1.379 0.018,0.007 0.016,-0.11 0.012,-0.114 -1.958,-2.292 -4.084,-3.534 -4.084,-3.534 l 0.013,-0.009 -0.014,10e-4 -0.03,0 0.011,0.008 c 0,0 -2.09,1.225 -4.035,3.48 0.013,0.103 0.037,0.158 0.076,0.137 0.297,-0.16 1.175,-0.766 2.03,-1.368 0.039,0.112 0.078,0.213 0.112,0.275 0.156,0.281 0.528,0.906 0.528,0.906 0,0 -0.753,0.562 -1.035,2.563 l 4.667,0 c -0.281,-1.595 -1.031,-2.563 -1.031,-2.563 0,0 0.375,-0.625 0.531,-0.906 0.031,-0.059 0.066,-0.151 0.102,-0.255 z"
     id="path30"
     inkscape:connector-curvature="0"
     style="fill:#193d59" />
  <path
     d="m 14.001,30.007 c 0,0 -0.01,-0.006 -0.011,-0.008 -0.124,-0.084 -4.14,-2.817 -4.698,-3.375 -0.271,-0.271 -0.97,0.905 -0.958,1.208 0.041,1.084 1.386,5.939 1.583,5.709 l 0.049,-0.054 c 1.945,-2.256 4.035,-3.48 4.035,-3.48 z m 0.02,0 c 0,0 2.126,1.242 4.084,3.534 0.004,0.005 0.011,-0.005 0.016,-0.005 0.237,0.029 1.527,-4.642 1.567,-5.704 C 19.7,27.529 19,26.353 18.73,26.624 c -0.557,0.557 -4.56,3.282 -4.696,3.374 l -0.013,0.009 z"
     id="path32"
     inkscape:connector-curvature="0"
     style="fill:#4289c1" />
  <path
     d="m 14.016,30.687 c -0.562,0.031 -1.452,0.941 -1.359,1.328 0.427,1.785 0.779,1.312 1.391,1.312 0.542,0 0.93,0.437 1.391,-1.391 0.12,-0.478 -1.034,-1.272 -1.423,-1.249 z m 0.026,3.145 c -1.477,0 -2.019,2.167 -2.019,2.167 l 4.023,0 c 0.001,0 -0.527,-2.167 -2.004,-2.167 z"
     id="path34"
     inkscape:connector-curvature="0"
     style="fill:#1e4b6e" />
  <path
     d="m 16.25,1.5000001 -0.002,0 c -0.233,10e-4 -0.433,0.114 -0.57,0.282 -0.281,0.069 -0.667,0.084 -1.157,-0.071 -0.136,-0.129 -0.318,-0.211 -0.521,-0.211 -0.201,0 -0.384,0.082 -0.519,0.212 -0.491,0.155 -0.877,0.14 -1.157,0.071 -0.138,-0.168 -0.338,-0.282 -0.571,-0.282 l -0.002,0 c -0.415,0 -0.75,0.335 -0.75,0.75 0,0.414 0.335,0.75 0.75,0.75 l 0.002,0 c 0,3 1.498,3.75 2.247,3.75 0.751,0 2.248,-0.75 2.248,-3.75 l 0.002,0 c 0.416,0 0.751,-0.336 0.751,-0.75 0,-0.416 -0.335,-0.751 -0.751,-0.751 z"
     id="path36"
     inkscape:connector-curvature="0"
     style="fill:#fdcb58" />
  <path
     d="M 7.468,29.411 1.542,30.349 C 1.27,30.392 1.013,30.205 0.97,29.933 L 0.813,28.945 C 0.77,28.674 0.957,28.417 1.229,28.374 l 5.926,-0.938 c 0.271,-0.043 0.529,0.145 0.572,0.415 l 0.156,0.988 C 7.927,29.11 7.74,29.367 7.468,29.411"
     id="path38"
     inkscape:connector-curvature="0"
     style="fill:#4289c1" />
  <circle
     cx="6.625"
     cy="28.512001"
     r="0.57599998"
     id="circle40"
     style="fill:#ffffff" />
  <path
     d="m 20.544,29.411 5.926,0.938 c 0.273,0.043 0.529,-0.144 0.572,-0.416 l 0.157,-0.988 c 0.043,-0.271 -0.143,-0.528 -0.416,-0.571 l -5.927,-0.938 c -0.271,-0.043 -0.529,0.145 -0.572,0.415 l -0.156,0.988 c -0.043,0.271 0.144,0.528 0.416,0.572"
     id="path42"
     inkscape:connector-curvature="0"
     style="fill:#4289c1" />
  <circle
     cx="21.191"
     cy="28.512001"
     r="0.57599998"
     id="circle44"
     style="fill:#ffffff" />
</svg>
