<?xml version="1.0" encoding="UTF-8" standalone="no"?>
<svg
   xmlns:dc="http://purl.org/dc/elements/1.1/"
   xmlns:cc="http://creativecommons.org/ns#"
   xmlns:rdf="http://www.w3.org/1999/02/22-rdf-syntax-ns#"
   xmlns:svg="http://www.w3.org/2000/svg"
   xmlns="http://www.w3.org/2000/svg"
   xmlns:sodipodi="http://sodipodi.sourceforge.net/DTD/sodipodi-0.dtd"
   xmlns:inkscape="http://www.inkscape.org/namespaces/inkscape"
   viewBox="0 0 31.14806 35.254414"
   id="svg2"
   version="1.1"
   inkscape:version="0.91 r13725"
   sodipodi:docname="1f469-1f3ff-200d-1f9af.svg"
   width="31.14806"
   height="35.254414">
  <metadata
     id="metadata42">
    <rdf:RDF>
      <cc:Work
         rdf:about="">
        <dc:format>image/svg+xml</dc:format>
        <dc:type
           rdf:resource="http://purl.org/dc/dcmitype/StillImage" />
      </cc:Work>
    </rdf:RDF>
  </metadata>
  <defs
     id="defs40" />
  <sodipodi:namedview
     pagecolor="#ffffff"
     bordercolor="#666666"
     borderopacity="1"
     objecttolerance="10"
     gridtolerance="10"
     guidetolerance="10"
     inkscape:pageopacity="0"
     inkscape:pageshadow="2"
     inkscape:window-width="640"
     inkscape:window-height="480"
     id="namedview38"
     showgrid="false"
     inkscape:zoom="6.5555556"
     inkscape:cx="17.602316"
     inkscape:cy="17.986765"
     inkscape:window-x="0"
     inkscape:window-y="0"
     inkscape:window-maximized="0"
     inkscape:current-layer="svg2" />
  <path
     d="m 11.756316,18.68365 0.802,0.598 -8.9680001,12.026 -0.802,-0.598 z"
     id="path4"
     inkscape:connector-curvature="0"
     style="fill:#ccd6dd" />
  <path
     d="m 2.7883159,30.71165 -2.09300002,2.806 c -0.164,0.22 -0.119,0.535 0.102,0.7 0.22100002,0.165 0.53500002,0.119 0.70000002,-0.102 l 2.092,-2.806 -0.801,-0.598 z"
     id="path6"
     inkscape:connector-curvature="0"
     style="fill:#dd2e44" />
  <path
     d="m 10.961316,20.58665 c -0.22,-0.164 -0.266,-0.479 -0.102,-0.7 l 1.793,-2.405 c 0.164,-0.22 0.479,-0.266 0.7,-0.102 0.22,0.164 0.266,0.479 0.102,0.7 l -1.793,2.405 c -0.164,0.221 -0.479,0.267 -0.7,0.102 z"
     id="path8"
     inkscape:connector-curvature="0"
     style="fill:#292f33" />
  <path
     d="m 11.362316,20.88565 -0.802,-0.598 c -0.22,-0.164 -0.266,-0.479 -0.102,-0.7 0.164,-0.22 0.479,-0.266 0.7,-0.102 l 0.802,0.598 c 0.22,0.164 0.266,0.479 0.102,0.7 -0.164,0.221 -0.479,0.267 -0.7,0.102 z"
     id="path10"
     inkscape:connector-curvature="0"
     style="fill:#292f33" />
  <path
     d="m 0.20031588,35.01865 c -0.22,-0.164 -0.266,-0.479 -0.102,-0.7 0.164,-0.22 0.479,-0.266 0.7,-0.102 0.22000002,0.164 0.26600002,0.479 0.102,0.7 -0.165,0.22 -0.48,0.266 -0.7,0.102 z"
     id="path12"
     inkscape:connector-curvature="0"
     style="fill:#99aab5" />
  <path
     d="m 20.078316,34.32365 c 0,0 0.061,-0.144 0.061,-0.448 0,-0.303 -0.156,-0.869 -0.199,-0.95 -0.043,-0.081 -0.09,-0.139 -0.194,-0.11 -0.079,0.022 -0.685,0.326 -1.072,0.341 -0.719,0.027 -1.066,-0.618 -1.066,-0.618 0,0 -0.399,0.228 -0.716,0.413 -0.318,0.185 -0.687,0.462 -0.959,0.627 -0.232,0.141 -0.497,0.208 -0.771,0.243 -0.274,0.035 -0.497,0.023 -0.563,0.029 -0.066,0.006 -0.621,-0.061 -0.641,0.488 l 0.004,0.16 c 0,0 0.987,0.397 2.344,0.397 1.358,0 1.566,-0.399 2.444,-0.399 0.878,0 1.328,-0.173 1.328,-0.173 z"
     id="path14"
     inkscape:connector-curvature="0"
     style="fill:#292f33" />
  <path
     d="m 18.328316,35.19365 c -0.058,-0.052 -0.123,-0.22 -0.173,-0.243 -0.05,-0.023 -0.57,0.089 -0.813,0.146 -0.243,0.058 -0.66,0.156 -1.152,0.156 -0.491,0 -1.126,-0.144 -1.519,-0.243 -0.393,-0.098 -0.701,-0.23 -0.77,-0.274 -0.07,-0.043 -0.05,-0.063 -0.046,-0.096 0.004,-0.033 0.052,-0.202 0.052,-0.202 0,0 0.251,0.132 0.678,0.237 0.426,0.104 0.851,0.183 1.584,0.183 0.733,0 1.193,-0.109 1.574,-0.211 0.475,-0.128 1.163,-0.267 1.656,-0.267 0.38,0 0.648,-0.112 0.751,-0.139 0.024,-0.006 0.046,0.012 0.046,0.037 l 0,0.649 c 0,0.042 -0.035,0.139 -0.146,0.162 -0.112,0.024 -1.664,0.157 -1.722,0.105 z m 12.221,-5.012 c 0,0 -0.072,-0.142 -0.307,-0.343 -0.235,-0.2 -0.777,-0.454 -0.868,-0.473 -0.091,-0.02 -0.167,-0.022 -0.213,0.078 -0.035,0.075 -0.199,0.746 -0.444,1.056 -0.454,0.575 -1.184,0.418 -1.184,0.418 0,0 -0.087,0.46 -0.153,0.828 -0.067,0.368 -0.096,0.838 -0.148,1.158 -0.044,0.273 -0.167,0.523 -0.322,0.758 -0.154,0.236 -0.31,0.4 -0.35,0.456 -0.039,0.055 -0.457,0.441 -0.045,0.82 l 0.127,0.103 c 0,0 0.96,-0.502 1.857,-1.555 0.897,-1.052 0.726,-1.477 1.306,-2.158 0.581,-0.682 0.744,-1.146 0.744,-1.146 z"
     id="path16"
     inkscape:connector-curvature="0"
     style="fill:#292f33" />
  <path
     d="m 30.067316,32.11365 c -0.078,0.01 -0.252,-0.05 -0.303,-0.026 -0.051,0.024 -0.308,0.5 -0.424,0.727 -0.116,0.226 -0.316,0.615 -0.64,0.996 -0.324,0.381 -0.856,0.778 -1.192,1.018 -0.336,0.24 -0.642,0.391 -0.721,0.416 -0.08,0.025 -0.082,-0.003 -0.104,-0.028 -0.022,-0.025 -0.122,-0.174 -0.122,-0.174 0,0 0.269,-0.107 0.631,-0.369 0.363,-0.261 0.705,-0.538 1.189,-1.107 0.484,-0.569 0.704,-0.997 0.876,-1.36 0.214,-0.452 0.562,-1.078 0.887,-1.46 0.251,-0.295 0.342,-0.576 0.388,-0.674 0.011,-0.023 0.04,-0.028 0.059,-0.012 l 0.503,0.429 c 0.033,0.028 0.085,0.118 0.029,0.22 -0.055,0.103 -0.977,1.394 -1.056,1.404 z"
     id="path18"
     inkscape:connector-curvature="0"
     style="fill:#292f33" />
  <path
     d="m 21.143316,0.65165002 c -1.593,-0.627 -4.077,0.182 -4.365,2.04299998 -0.287,1.848 0.239,4.747 1.863,4.572 1.702,-0.184 3.448,-0.554 4.138,-2.307 0.69,-1.753 -0.043,-3.681 -1.636,-4.30799998 z"
     id="path20"
     inkscape:connector-curvature="0"
     style="fill:#7c533e" />
  <path
     d="m 22.326316,5.41065 c 2.318,-2.723 -3.266,-2.458 -3.266,-2.458 -1.057,0.038 -0.329,1.799 -0.827,2.761 -0.341,0.665 1.095,1.018 1.095,1.018 0,0 0.659,-0.01 0.694,0.79 l 0,0.007 c 0.008,0.204 -0.013,0.445 -0.108,0.769 -0.473,1.601 1.677,2.582 2.149,0.978 0.187,-0.635 0.114,-1.193 0.02,-1.708 l -0.009,-0.046 c -0.143,-0.766 -0.321,-1.437 0.252,-2.111 z"
     id="path22"
     inkscape:connector-curvature="0"
     style="fill:#7c533e" />
  <path
     d="m 22.963316,1.29365 c -1.061,-1.24199998 -2.52,-1.75699998 -5.019,-0.79099998 -2.183,0.84399998 -1.481,2.57899998 -0.972,2.28199998 1.402,-0.817 2.332,-0.119 3.046,1.021 0.208,-0.56 1.122,-0.904 1.307,-0.085 0.208,0.921 -0.647,1.322 -0.533,1.573 0.038,0.084 -0.043,-0.076 0,0 0.547,0.96 1.437,1.262 1.437,1.262 0,0 0.337,0.132 0.912,-1.001 0.575,-1.133 0.875,-3.028 -0.178,-4.261 z"
     id="path24"
     inkscape:connector-curvature="0"
     style="fill:#0b0200" />
  <path
     d="m 22.389316,2.59965 c 2.163,0.467 1.275,3.839 1.487,5.08 0.261,1.528 1.761,1.582 1.761,1.582 0,0 -0.247,-1.064 -0.116,-2.177 0.183,-1.543 1.189,-2.789 0.127,-4.296 -1.356,-1.92399998 -4.604,-0.479 -3.259,-0.189 z"
     id="path26"
     inkscape:connector-curvature="0"
     style="fill:#0b0200" />
  <path
     d="m 18.200316,33.47065 c -1.266,0.109 -1.853,-0.233 -1.721,-0.416 0.165,-0.228 0.128,-0.397 0.13,-0.536 0.028,-2.441 -0.472,-5.991 -0.472,-5.991 0,-0.348 0.003,-0.813 0.312,-1.562 0.778,-1.883 3.951,-7.69 3.951,-7.69 0.548,-0.958 1.771,-1.293 2.728,-0.744 0.959,0.548 1.122,1.405 0.744,2.729 -0.715,2.508 -2.965,5.602 -3.903,7.477 0.224,2.121 -0.174,3.853 0.035,5.857 0.032,0.288 -0.538,0.767 -1.804,0.876 z"
     id="path28"
     inkscape:connector-curvature="0"
     style="fill:#2a6797" />
  <path
     d="m 28.935316,31.19865 c -0.364,0.553 -0.97,0.942 -1.598,0.838 -1.269,-1.924 -4.955,-5.321 -4.955,-5.321 -0.241,-0.25 -0.562,-0.587 -0.86,-1.341 -0.748,-1.895 -2.498,-8.277 -2.498,-8.277 -0.272,-1.07 0.376,-2.16 1.446,-2.43 1.07,-0.272 1.783,0.232 2.43,1.446 1.227,2.301 1.757,6.09 2.384,8.09 1.87,1.568 2.383,3.603 4.275,5.151 -0.065,0.857 -0.261,1.291 -0.624,1.844 z"
     id="path30"
     inkscape:connector-curvature="0"
     style="fill:#4289c1" />
  <path
     d="m 25.138316,19.26765 c 0,0 0,1 -2,1 l -4.898,0 c -0.415,-2 0.554,-3.818 -0.102,-6.5 -0.848,-3.46 2.406,-6.874 3.818,-6.42 1.846,0.594 2.693,2.641 2.932,5.858 0.238,3.216 0.25,6.062 0.25,6.062 z"
     id="path32"
     inkscape:connector-curvature="0"
     style="fill:#9268ca" />
  <path
     d="m 19.744316,10.90765 c -0.783,1.171 -2.299,3.804 -2.526,3.904 -1.206,0.531 -2.551,1.215 -3.448,1.307 -0.65,0.067 -1.256,0.678 -1.51,0.922 -0.316,0.304 -0.752,1.006 -0.633,1.369 0.074,0.226 0.57,0.489 0.741,0.254 0.333,-0.457 0.974,-0.533 1.492,-0.886 1.039,-0.71 3.285,-0.758 4.56,-1.7 0.528,-0.39 1.583,-1.134 3.111,-3.722 -0.591,-0.426 -1.787,-1.448 -1.787,-1.448 z"
     id="path34"
     inkscape:connector-curvature="0"
     style="fill:#7c533e" />
  <path
     d="m 13.812316,16.28565 c 0.477,0.152 0.847,0.624 0.557,1.114 -0.29,0.49 0.403,0.185 0.512,-0.045 0.223,-0.468 -0.178,-1.158 -0.646,-1.314 -0.468,-0.156 -0.746,0.142 -0.423,0.245 z"
     id="path36"
     inkscape:connector-curvature="0"
     style="fill:#292f33" />
</svg>
