<?xml version="1.0" encoding="UTF-8" standalone="no"?>
<svg
   xmlns:dc="http://purl.org/dc/elements/1.1/"
   xmlns:cc="http://creativecommons.org/ns#"
   xmlns:rdf="http://www.w3.org/1999/02/22-rdf-syntax-ns#"
   xmlns:svg="http://www.w3.org/2000/svg"
   xmlns="http://www.w3.org/2000/svg"
   xmlns:sodipodi="http://sodipodi.sourceforge.net/DTD/sodipodi-0.dtd"
   xmlns:inkscape="http://www.inkscape.org/namespaces/inkscape"
   viewBox="0 0 36 36"
   id="svg2"
   version="1.1"
   inkscape:version="0.91 r13725"
   sodipodi:docname="1f468-200d-1f469-200d-1f466.svg"
   width="36"
   height="36">
  <metadata
     id="metadata50">
    <rdf:RDF>
      <cc:Work
         rdf:about="">
        <dc:format>image/svg+xml</dc:format>
        <dc:type
           rdf:resource="http://purl.org/dc/dcmitype/StillImage" />
      </cc:Work>
    </rdf:RDF>
  </metadata>
  <defs
     id="defs48" />
  <sodipodi:namedview
     pagecolor="#ffffff"
     bordercolor="#666666"
     borderopacity="1"
     objecttolerance="10"
     gridtolerance="10"
     guidetolerance="10"
     inkscape:pageopacity="0"
     inkscape:pageshadow="2"
     inkscape:window-width="640"
     inkscape:window-height="480"
     id="namedview46"
     showgrid="false"
     inkscape:zoom="6.5555556"
     inkscape:cx="18"
     inkscape:cy="18"
     inkscape:window-x="0"
     inkscape:window-y="0"
     inkscape:window-maximized="0"
     inkscape:current-layer="svg2" />
  <path
     d="m 21,14 c 0.253,3.89 3.521,6.969 7.5,6.969 3.979,0 7.247,-3.079 7.5,-6.969 L 36,4 21,4 21,14 Z"
     id="path4"
     inkscape:connector-curvature="0"
     style="fill:#ffdc5d" />
  <path
     d="M 36,21.752 36,14 c -0.253,3.89 -3.521,6.969 -7.5,6.969 C 24.521,20.969 21.253,17.89 21,14 L 21,9.663 C 26.328,9.508 29.51,7.32 31.237,5.482 31.652,6.957 32.801,9 36,9 L 36,1.9 C 35.069,1.211 33.885,0.807 32.538,0.807 c -0.333,0 -0.657,0.034 -0.974,0.09 C 30.393,0.328 29.39,0 28,0 23.093,0 19,4.093 19,9 l 0,7 c 0.064,2.258 0.868,4.35 2.182,6 l 2.818,2 9,0 2.818,-2 C 35.882,21.92 35.939,21.834 36,21.752 Z"
     id="path6"
     inkscape:connector-curvature="0"
     style="fill:#ffac33" />
  <path
     d="M 35.818,22 21,22 c -2,0 -3,1 -3,2.973 L 18,36 l 18,0 0,-14 -0.182,0 z"
     id="path8"
     inkscape:connector-curvature="0"
     style="fill:#9268ca" />
  <path
     d="m 20.986,26 1.028,0 0,10 -1.028,0 z"
     id="path10"
     inkscape:connector-curvature="0"
     style="fill:#7450a8" />
  <path
     d="m 26,19 0,3 c 0,1.381 1.119,2.5 2.5,2.5 1.381,0 2.5,-1.119 2.5,-2.5 l 0,-3 -5,0 z"
     id="path12"
     inkscape:connector-curvature="0"
     style="fill:#ffdc5d" />
  <path
     d="m 25.27,17.769 6.46,0 c 0,0 -0.808,1.616 -3.23,1.616 -2.422,0 -3.23,-1.616 -3.23,-1.616 z"
     id="path14"
     inkscape:connector-curvature="0"
     style="fill:#da2f47" />
  <path
     d="m 29,15.5 -1,0 c -0.276,0 -0.5,-0.224 -0.5,-0.5 0,-0.276 0.224,-0.5 0.5,-0.5 l 1,0 c 0.276,0 0.5,0.224 0.5,0.5 0,0.276 -0.224,0.5 -0.5,0.5 z"
     id="path16"
     inkscape:connector-curvature="0"
     style="fill:#bf6952" />
  <path
     d="m 25,13 c -0.553,0 -1,-0.448 -1,-1 l 0,-1 c 0,-0.552 0.447,-1 1,-1 0.553,0 1,0.448 1,1 l 0,1 c 0,0.552 -0.447,1 -1,1 z m 7,0 c -0.553,0 -1,-0.448 -1,-1 l 0,-1 c 0,-0.552 0.447,-1 1,-1 0.553,0 1,0.448 1,1 l 0,1 c 0,0.552 -0.447,1 -1,1 z"
     id="path18"
     inkscape:connector-curvature="0"
     style="fill:#662113" />
  <path
     d="m 5,22 0,-4 5,0 0,4 2,0 0,6 -9,0 0,-6 z"
     id="path20"
     inkscape:connector-curvature="0"
     style="fill:#ffdc5d" />
  <path
     d="M 15,22 10,22 7.528,25.778 5,22 0,22 0,36 18,36 18,24.973 C 18,23 17,22 15,22 Z"
     id="path22"
     inkscape:connector-curvature="0"
     style="fill:#3b94d9" />
  <path
     d="m 13.986,26 1.028,0 0,10 -1.028,0 z"
     id="path24"
     inkscape:connector-curvature="0"
     style="fill:#1b6399" />
  <path
     d="M 15,14 15,5 0,4 0,14 0.024,14 c 0.252,3.89 3.498,6.969 7.476,6.969 3.791,0 6.932,-2.799 7.438,-6.428 C 14.963,14.361 14.988,14.183 15,14 Z"
     id="path26"
     inkscape:connector-curvature="0"
     style="fill:#ffdc5d" />
  <path
     d="M 3.806,0.806 C 2.405,0.806 1.102,1.215 0,1.912 L 0,9.995 C 5.947,9.94 9.375,7.402 11.162,5.397 11.668,6.986 12.795,9.418 15,9.907 L 15,14 c -0.012,0.183 -0.037,0.361 -0.062,0.54 C 16.224,13.002 17,11.023 17,8.861 17,3.967 13.033,0 8.139,0 6.801,0 5.538,0.305 4.4,0.836 4.204,0.819 4.006,0.806 3.806,0.806 Z M 15,5 15,5.166 14.972,4.999 15,5 Z"
     id="path28"
     inkscape:connector-curvature="0"
     style="fill:#ffac33" />
  <path
     d="m 10.722,17.723 -6.444,0 c 0,0 0.805,1.61 3.222,1.61 2.417,0 3.222,-1.61 3.222,-1.61 z M 8,15.5 7,15.5 C 6.724,15.5 6.5,15.276 6.5,15 6.5,14.724 6.724,14.5 7,14.5 l 1,0 c 0.276,0 0.5,0.224 0.5,0.5 0,0.276 -0.224,0.5 -0.5,0.5 z"
     id="path30"
     inkscape:connector-curvature="0"
     style="fill:#bf6952" />
  <path
     d="M 4,13 C 3.448,13 3,12.552 3,12 l 0,-1 c 0,-0.552 0.448,-1 1,-1 0.552,0 1,0.448 1,1 l 0,1 c 0,0.552 -0.448,1 -1,1 z m 7,0 c -0.552,0 -1,-0.448 -1,-1 l 0,-1 c 0,-0.552 0.448,-1 1,-1 0.552,0 1,0.448 1,1 l 0,1 c 0,0.552 -0.448,1 -1,1 z"
     id="path32"
     inkscape:connector-curvature="0"
     style="fill:#662113" />
  <path
     d="m 20.091,35 0,-4 -4,0 0,4 -1,0 0,1 6,0 0,-1 z"
     id="path34"
     inkscape:connector-curvature="0"
     style="fill:#ffdc5d" />
  <path
     d="m 23.091,33 -3,0 -2,3 8.818,0 C 26.391,34.398 24.75,33 23.091,33 Z m -13.814,3 8.814,0 -2,-3 -2,0 c -0.368,0 -0.719,0.032 -1.055,0.088 C 11.095,33.414 9.735,34.623 9.277,36 Z"
     id="path36"
     inkscape:connector-curvature="0"
     style="fill:#88c9f9" />
  <path
     d="M 25.085,26.047 25.083,26 l 0.008,0 0,-6 -3.557,0 c -1.018,-0.574 -2.192,-0.906 -3.446,-0.906 -1.254,0 -2.428,0.332 -3.446,0.906 l -3.551,0 0,6 0.002,0 -0.002,0.047 c 0,0.145 0.013,0.286 0.022,0.428 0.224,3.64 3.257,6.525 6.975,6.525 3.383,0 6.206,-2.387 6.856,-5.558 0.092,-0.451 0.141,-0.917 0.141,-1.395 z"
     id="path38"
     inkscape:connector-curvature="0"
     style="fill:#ffdc5d" />
  <path
     d="M 26.425,22.861 C 26.425,18.519 22.906,15 18.564,15 c -1.245,0 -2.418,0.297 -3.464,0.812 -3.33,0.07 -6.009,2.786 -6.009,6.133 0,1.8 0.786,3.408 2.022,4.53 -0.009,-0.142 -0.022,-0.284 -0.022,-0.428 L 11.093,26 l -0.002,0 0,-3.035 c 4.856,-0.18 7.656,-1.81 9.204,-3.332 1.065,1.257 2.765,2.841 4.796,3.257 l 0,3.11 -0.008,0 0.002,0.047 c 0,0.478 -0.049,0.944 -0.141,1.395 0.928,-1.291 1.481,-2.869 1.481,-4.581 z"
     id="path40"
     inkscape:connector-curvature="0"
     style="fill:#f4900c" />
  <path
     d="m 21.091,30 -6,0 c 0,0 0.583,2 3,2 2.417,0 3,-2 3,-2 z m -3,-0.5 c -0.13,0 -0.26,-0.05 -0.35,-0.15 -0.1,-0.09 -0.15,-0.22 -0.15,-0.35 0,-0.13 0.05,-0.26 0.15,-0.36 0.17,-0.17 0.52,-0.18 0.71,0.01 0.09,0.091 0.14,0.221 0.14,0.351 0,0.13 -0.05,0.26 -0.15,0.35 -0.09,0.099 -0.22,0.149 -0.35,0.149 z"
     id="path42"
     inkscape:connector-curvature="0"
     style="fill:#bf6952" />
  <path
     d="m 15.091,28 c -0.552,0 -1,-0.447 -1,-1 l 0,-1 c 0,-0.553 0.448,-1 1,-1 0.552,0 1,0.447 1,1 l 0,1 c 0,0.553 -0.448,1 -1,1 z m 6,0 c -0.553,0 -1,-0.447 -1,-1 l 0,-1 c 0,-0.553 0.447,-1 1,-1 0.553,0 1,0.447 1,1 l 0,1 c 0,0.553 -0.447,1 -1,1 z"
     id="path44"
     inkscape:connector-curvature="0"
     style="fill:#662113" />
</svg>
