<?xml version="1.0" encoding="UTF-8" standalone="no"?>
<svg
   xmlns:dc="http://purl.org/dc/elements/1.1/"
   xmlns:cc="http://creativecommons.org/ns#"
   xmlns:rdf="http://www.w3.org/1999/02/22-rdf-syntax-ns#"
   xmlns:svg="http://www.w3.org/2000/svg"
   xmlns="http://www.w3.org/2000/svg"
   xmlns:sodipodi="http://sodipodi.sourceforge.net/DTD/sodipodi-0.dtd"
   xmlns:inkscape="http://www.inkscape.org/namespaces/inkscape"
   viewBox="0 0 35 35.861"
   id="svg2"
   version="1.1"
   inkscape:version="0.91 r13725"
   sodipodi:docname="1f468-200d-1f467.svg"
   width="35"
   height="35.861">
  <metadata
     id="metadata36">
    <rdf:RDF>
      <cc:Work
         rdf:about="">
        <dc:format>image/svg+xml</dc:format>
        <dc:type
           rdf:resource="http://purl.org/dc/dcmitype/StillImage" />
      </cc:Work>
    </rdf:RDF>
  </metadata>
  <defs
     id="defs34" />
  <sodipodi:namedview
     pagecolor="#ffffff"
     bordercolor="#666666"
     borderopacity="1"
     objecttolerance="10"
     gridtolerance="10"
     guidetolerance="10"
     inkscape:pageopacity="0"
     inkscape:pageshadow="2"
     inkscape:window-width="640"
     inkscape:window-height="480"
     id="namedview32"
     showgrid="false"
     inkscape:zoom="6.5555556"
     inkscape:cx="17"
     inkscape:cy="18"
     inkscape:window-x="0"
     inkscape:window-y="0"
     inkscape:window-maximized="0"
     inkscape:current-layer="svg2" />
  <path
     d="m 8,21.861 0,-4 5,0 0,4 2,0 0,6 -9,0 0,-6 z"
     id="path4"
     inkscape:connector-curvature="0"
     style="fill:#ffdc5d" />
  <path
     d="m 20.916,35.861 0.028,-11.027 c 0,-1.973 -1,-2.973 -3,-2.973 l -5,0 -2.472,3.778 -2.528,-3.778 -6,0 C 0.165,21.861 0,23.054 0,24.834 l 0,11.027 20.916,0 z"
     id="path6"
     inkscape:connector-curvature="0"
     style="fill:#3b93d9" />
  <path
     d="m 15.945,25.861 0,10 1.027,0 0,-10 z m -11.973,0 0,10 1.028,0 0,-10 z"
     id="path8"
     inkscape:connector-curvature="0"
     style="fill:#1b6399" />
  <path
     d="m 18,13.861 0,-9 -15,-1 0,10 0.024,0 c 0.252,3.89 3.498,6.969 7.476,6.969 3.736,0 6.847,-2.717 7.42,-6.27 0.037,-0.23 0.064,-0.463 0.08,-0.699 z"
     id="path10"
     inkscape:connector-curvature="0"
     style="fill:#ffdc5d" />
  <path
     d="M 17.92,14.56 C 19.216,13.019 19.999,11.033 19.999,8.861 19.999,3.968 16.032,0 11.138,0 9.81,0 8.556,0.301 7.425,0.825 7.535,0.818 7.804,0.812 7.942,0.808 4.026,0.84 0.86,4.021 0.86,7.945 0.86,9.937 1.682,11.73 3,13.023 L 3,9.861 c 6.07,0 9.688,-2.576 11.495,-4.603 0.48,1.507 1.518,3.772 3.505,4.419 l 0,4.184 c -0.016,0.236 -0.043,0.469 -0.08,0.699 z"
     id="path12"
     inkscape:connector-curvature="0"
     style="fill:#ffac33" />
  <path
     d="m 13.666,17.584 -6.444,0 c 0,0 0.805,1.61 3.222,1.61 2.418,0 3.222,-1.61 3.222,-1.61 z m -2.722,-2.223 -1,0 c -0.276,0 -0.5,-0.224 -0.5,-0.5 0,-0.276 0.224,-0.5 0.5,-0.5 l 1,0 c 0.276,0 0.5,0.224 0.5,0.5 0,0.276 -0.223,0.5 -0.5,0.5 z"
     id="path14"
     inkscape:connector-curvature="0"
     style="fill:#bf6952" />
  <path
     d="m 7,12.861 c -0.552,0 -1,-0.448 -1,-1 l 0,-1 c 0,-0.552 0.448,-1 1,-1 0.552,0 1,0.448 1,1 l 0,1 c 0,0.552 -0.448,1 -1,1 z m 7,0 c -0.552,0 -1,-0.448 -1,-1 l 0,-1 c 0,-0.552 0.448,-1 1,-1 0.552,0 1,0.448 1,1 l 0,1 c 0,0.552 -0.448,1 -1,1 z"
     id="path16"
     inkscape:connector-curvature="0"
     style="fill:#662113" />
  <path
     d="m 31.994,25.908 -0.002,-0.047 0.008,0 0,-6 -3.557,0 c -1.018,-0.574 -2.192,-0.906 -3.446,-0.906 -1.254,0 -2.428,0.332 -3.446,0.906 l -3.551,0 0,6 0.002,0 L 18,25.908 c 0,3.353 2.39,6.152 5.569,6.807 0.461,0.095 0.938,0.146 1.428,0.146 0.492,0 0.972,-0.052 1.435,-0.148 3.176,-0.658 5.562,-3.454 5.562,-6.805 z"
     id="path18"
     inkscape:connector-curvature="0"
     style="fill:#ffdc5d" />
  <path
     d="M 26.432,32.713 C 26.168,33.224 26,33.634 26,33.861 c 4.656,0 9,-3 9,-3 -1.125,-3.688 -1.666,-8.139 -1.666,-8.139 0,-4.342 -3.519,-7.861 -7.861,-7.861 -1.245,0 -2.418,0.297 -3.464,0.812 -3.33,0.07 -6.009,2.787 -6.009,6.133 0,0.828 0.165,1.617 0.464,2.337 -0.25,1.611 -0.733,4.322 -1.464,6.718 0,0 4.344,3 9,3 0,-0.227 -0.167,-0.636 -0.431,-1.146 C 20.39,32.059 18,29.261 18,25.908 l 0.002,-0.047 -0.002,0 0,-3.036 c 4.856,-0.18 7.656,-1.81 9.204,-3.332 1.065,1.257 2.765,2.841 4.796,3.257 l 0,3.111 -0.008,0 0.002,0.047 c 0,3.351 -2.386,6.147 -5.562,6.805 z"
     id="path20"
     inkscape:connector-curvature="0"
     style="fill:#f4900c" />
  <path
     d="m 27,34.861 0,-4 -4,0 0,4 -1,0 0,1 6,0 0,-1 z"
     id="path22"
     inkscape:connector-curvature="0"
     style="fill:#ffdc5d" />
  <path
     d="m 25,35.861 8.818,0 c -0.518,-1.602 -2.159,-3 -3.818,-3 l -3,0 -2,3 z"
     id="path24"
     inkscape:connector-curvature="0"
     style="fill:#ea596e" />
  <path
     d="m 21,32.861 c -2.493,0 -4.276,1.385 -4.814,3 l 8.814,0 -2,-3 -2,0 z"
     id="path26"
     inkscape:connector-curvature="0"
     style="fill:#ea596e" />
  <path
     d="m 28,29.861 -6,0 c 0,0 0.583,2 3,2 2.417,0 3,-2 3,-2 z m -3,-0.5 c -0.13,0 -0.26,-0.05 -0.35,-0.15 -0.1,-0.09 -0.15,-0.22 -0.15,-0.35 0,-0.13 0.05,-0.26 0.15,-0.36 0.17,-0.17 0.52,-0.18 0.71,0.01 0.09,0.09 0.14,0.22 0.14,0.35 0,0.13 -0.05,0.26 -0.15,0.35 -0.09,0.1 -0.22,0.15 -0.35,0.15 z"
     id="path28"
     inkscape:connector-curvature="0"
     style="fill:#bf6952" />
  <path
     d="m 22,27.861 c -0.552,0 -1,-0.447 -1,-1 l 0,-1 c 0,-0.553 0.448,-1 1,-1 0.552,0 1,0.447 1,1 l 0,1 c 0,0.553 -0.448,1 -1,1 z m 6,0 c -0.553,0 -1,-0.447 -1,-1 l 0,-1 c 0,-0.553 0.447,-1 1,-1 0.553,0 1,0.447 1,1 l 0,1 c 0,0.553 -0.447,1 -1,1 z"
     id="path30"
     inkscape:connector-curvature="0"
     style="fill:#662113" />
</svg>
