<?xml version="1.0" encoding="UTF-8" standalone="no"?>
<svg
   xmlns:dc="http://purl.org/dc/elements/1.1/"
   xmlns:cc="http://creativecommons.org/ns#"
   xmlns:rdf="http://www.w3.org/1999/02/22-rdf-syntax-ns#"
   xmlns:svg="http://www.w3.org/2000/svg"
   xmlns="http://www.w3.org/2000/svg"
   xmlns:sodipodi="http://sodipodi.sourceforge.net/DTD/sodipodi-0.dtd"
   xmlns:inkscape="http://www.inkscape.org/namespaces/inkscape"
   viewBox="0 0 35 36"
   id="svg2"
   version="1.1"
   inkscape:version="0.91 r13725"
   sodipodi:docname="1f469-1f3fd-200d-1f3eb.svg"
   width="35"
   height="36">
  <metadata
     id="metadata46">
    <rdf:RDF>
      <cc:Work
         rdf:about="">
        <dc:format>image/svg+xml</dc:format>
        <dc:type
           rdf:resource="http://purl.org/dc/dcmitype/StillImage" />
      </cc:Work>
    </rdf:RDF>
  </metadata>
  <defs
     id="defs44" />
  <sodipodi:namedview
     pagecolor="#ffffff"
     bordercolor="#666666"
     borderopacity="1"
     objecttolerance="10"
     gridtolerance="10"
     guidetolerance="10"
     inkscape:pageopacity="0"
     inkscape:pageshadow="2"
     inkscape:window-width="640"
     inkscape:window-height="480"
     id="namedview42"
     showgrid="false"
     inkscape:zoom="6.5555556"
     inkscape:cx="18"
     inkscape:cy="18"
     inkscape:window-x="0"
     inkscape:window-y="0"
     inkscape:window-maximized="0"
     inkscape:current-layer="svg2" />
  <path
     d="m 30,26 c 0,2.209 -1.791,4 -4,4 L 4,30 C 1.791,30 0,28.209 0,26 L 0,4 C 0,1.791 1.791,0 4,0 l 22,0 c 2.209,0 4,1.791 4,4 l 0,22 z"
     id="path4"
     inkscape:connector-curvature="0"
     style="fill:#d99e82" />
  <path
     d="m 28,26 c 0,1.104 -0.896,2 -2,2 L 4,28 C 2.896,28 2,27.104 2,26 L 2,4 C 2,2.895 2.896,2 4,2 l 22,0 c 1.104,0 2,0.895 2,2 l 0,22 z"
     id="path6"
     inkscape:connector-curvature="0"
     style="fill:#5c913b" />
  <path
     d="m 7.515,8.898 c -0.08,0.096 -0.184,0.24 -0.184,0.408 0,0.368 0.272,0.528 0.624,0.528 l 2.67,0 c 0.304,0 0.576,-0.16 0.576,-0.528 0,-0.368 -0.271,-0.528 -0.624,-0.528 l -1.463,0 c 0.679,-0.855 1.919,-1.958 1.919,-3.07 0,-1.015 -0.792,-1.663 -1.775,-1.663 -0.983,0 -1.879,0.807 -1.879,1.815 0,0.311 0.2,0.583 0.584,0.583 0.768,0 0.328,-1.295 1.247,-1.295 0.328,0 0.576,0.288 0.576,0.616 0,0.288 -0.136,0.536 -0.28,0.744 -0.608,0.879 -1.327,1.599 -1.991,2.39 z m -1.307,5.433 -1.159,0 0,-1.16 c 0,-0.288 -0.184,-0.479 -0.48,-0.479 -0.295,0 -0.479,0.192 -0.479,0.479 l 0,1.16 -1.159,0 c -0.296,0 -0.48,0.192 -0.48,0.479 0,0.288 0.184,0.48 0.48,0.48 l 1.159,0 0,1.159 c 0,0.288 0.184,0.479 0.479,0.479 0.296,0 0.48,-0.191 0.48,-0.479 l 0,-1.159 1.159,0 c 0.296,0 0.48,-0.192 0.48,-0.48 0,-0.287 -0.184,-0.479 -0.48,-0.479 z m 4.369,1.447 -1.464,0 c 0.68,-0.855 1.919,-1.958 1.919,-3.07 0,-1.015 -0.792,-1.663 -1.775,-1.663 -0.983,0 -1.879,0.808 -1.879,1.815 0,0.311 0.2,0.583 0.583,0.583 0.768,0 0.328,-1.295 1.248,-1.295 0.328,0 0.576,0.288 0.576,0.616 0,0.288 -0.136,0.536 -0.28,0.744 -0.608,0.879 -1.327,1.599 -1.991,2.391 -0.08,0.096 -0.184,0.24 -0.184,0.408 0,0.368 0.272,0.528 0.624,0.528 l 2.67,0 c 0.304,0 0.576,-0.16 0.576,-0.528 0,-0.369 -0.271,-0.529 -0.623,-0.529 z m 0.84,3.192 -8.334,0 c -0.276,0 -0.5,-0.224 -0.5,-0.5 0,-0.276 0.224,-0.5 0.5,-0.5 l 8.333,0 c 0.276,0 0.5,0.224 0.5,0.5 10e-4,0.276 -0.223,0.5 -0.499,0.5 z"
     id="path8"
     inkscape:connector-curvature="0"
     style="fill:#ffffff" />
  <path
     d="m 35,36 0,-3.5 C 35,29.186 31.315,27 28,27 l -12,0 c -3.313,0 -7,2.186 -7,5.5 l 0,3.5 26,0 z"
     id="path10"
     inkscape:connector-curvature="0"
     style="fill:#9266cc" />
  <path
     d="m 21.944,5.069 c 4.106,0 10.948,2.053 10.948,10.948 0,8.895 0,10.948 -2.053,10.948 -2.054,0 -4.79,-2.053 -8.896,-2.053 -4.105,0 -6.784,2.053 -8.895,2.053 -2.287,0 -2.053,-8.211 -2.053,-10.948 C 10.997,7.122 17.839,5.069 21.944,5.069"
     id="path12"
     inkscape:connector-curvature="0"
     style="fill:#963b22" />
  <path
     d="m 17,27 9.875,0 c 0,0 -1.256,3.5 -4.938,3.5 C 18.255,30.5 17,27 17,27"
     id="path14"
     inkscape:connector-curvature="0"
     style="fill:#292f33" />
  <path
     d="m 18.328,27.02 c 0,1.48 2.172,2.48 3.672,2.48 1.5,0 3.66,-1 3.66,-2.48 l 0,-3.205 -7.332,0 0,3.205 z"
     id="path16"
     inkscape:connector-curvature="0"
     style="fill:#d5ab88" />
  <path
     d="m 18.321,25.179 c 1.023,1.155 2.291,1.468 3.669,1.468 1.379,0 2.647,-0.312 3.67,-1.468 l 0,-2.936 -7.339,0 0,2.936 z"
     id="path18"
     inkscape:connector-curvature="0"
     style="fill:#cc9b7a" />
  <path
     d="m 13.734,15.717 c 0,-5.834 3.676,-10.563 8.21,-10.563 4.534,0 8.211,4.729 8.211,10.563 0,5.833 -3.677,10.286 -8.211,10.286 -4.534,0 -8.21,-4.452 -8.21,-10.286"
     id="path20"
     inkscape:connector-curvature="0"
     style="fill:#d5ab88" />
  <path
     d="m 21.944,23.543 c -1.605,0 -2.446,-0.794 -2.536,-0.885 -0.268,-0.267 -0.268,-0.7 0,-0.967 0.266,-0.265 0.692,-0.267 0.96,-0.007 0.035,0.032 0.553,0.491 1.576,0.491 1.039,0 1.557,-0.473 1.577,-0.492 0.273,-0.256 0.703,-0.248 0.963,0.02 0.26,0.269 0.26,0.691 -0.004,0.955 -0.089,0.091 -0.929,0.885 -2.536,0.885"
     id="path22"
     inkscape:connector-curvature="0"
     style="fill:#df1f32" />
  <path
     d="m 11.725,19 c -0.021,-1 -0.044,-0.224 -0.044,-0.465 0,-3.422 2.053,0.494 2.053,-1.943 0,-2.439 1.368,-2.683 2.736,-4.051 0.685,-0.685 2.053,-2.026 2.053,-2.026 0,0 3.421,2.067 6.158,2.067 2.736,0 5.474,1.375 5.474,4.112 0,2.737 2.053,-1.584 2.053,1.837 0,0.244 -0.022,-0.531 -0.04,0.469 l 0.718,0 c 0.007,-2 0.007,-1.924 0.007,-3.202 0,-8.895 -6.843,-12.207 -10.948,-12.207 -4.105,0 -10.947,3.257 -10.947,12.152 0,0.793 -0.02,1.257 0.008,3.257 l 0.719,0 z"
     id="path24"
     inkscape:connector-curvature="0"
     style="fill:#963b22" />
  <path
     d="m 18.608,17.886 c -0.465,0 -0.846,-0.381 -0.846,-0.846 l 0,-0.845 c 0,-0.465 0.381,-0.846 0.846,-0.846 0.465,0 0.847,0.381 0.847,0.846 l 0,0.845 c 0,0.465 -0.382,0.846 -0.847,0.846 m 6.765,0 c -0.465,0 -0.846,-0.381 -0.846,-0.846 l 0,-0.845 c 0,-0.465 0.381,-0.846 0.846,-0.846 0.465,0 0.846,0.381 0.846,0.846 l 0,0.845 c 0,0.465 -0.381,0.846 -0.846,0.846"
     id="path26"
     inkscape:connector-curvature="0"
     style="fill:#662113" />
  <path
     d="m 22.837,20.5 -1.691,0 c -0.233,0 -0.423,-0.19 -0.423,-0.423 l 0,-0.153 c 0,-0.233 0.189,-0.424 0.423,-0.424 l 1.691,0 c 0.232,0 0.423,0.19 0.423,0.424 l 0,0.153 c 0,0.233 -0.191,0.423 -0.423,0.423"
     id="path28"
     inkscape:connector-curvature="0"
     style="fill:#c1694f" />
  <path
     d="m 15.444,15.936 c 0,1.448 -0.734,2.622 -1.639,2.622 -0.905,0 -1.639,-1.174 -1.639,-2.622 0,-1.448 0.734,-2.623 1.639,-2.623 0.905,-0.001 1.639,1.174 1.639,2.623 m 16.389,0 c 0,1.448 -0.733,2.622 -1.639,2.622 -0.905,0 -1.639,-1.174 -1.639,-2.622 0,-1.448 0.733,-2.623 1.639,-2.623 0.906,-0.001 1.639,1.174 1.639,2.623"
     id="path30"
     inkscape:connector-curvature="0"
     style="fill:#d5ab88" />
  <path
     d="m 22,30.222 c 0,0 3.381,2.494 4.094,2.777 0.156,0.062 -0.367,-3.656 -0.367,-3.656 l -7.453,0 c 0,0 -0.523,3.781 -0.234,3.625 C 18.68,32.626 22,30.222 22,30.222"
     id="path32"
     inkscape:connector-curvature="0"
     style="fill:#744eaa" />
  <path
     d="M 17.291,25.917 C 17.855,26.483 22,29.3 22,29.3 c 0,0 -2.125,1.242 -4.086,3.535 -0.195,0.23 -1.543,-4.625 -1.584,-5.709 -0.012,-0.303 0.69,-1.48 0.961,-1.209 m 9.439,0 c -0.566,0.566 -4.709,3.383 -4.709,3.383 0,0 2.125,1.242 4.084,3.535 0.195,0.23 1.541,-4.625 1.582,-5.709 C 27.699,26.823 27,25.646 26.73,25.917"
     id="path34"
     inkscape:connector-curvature="0"
     style="fill:#cbb7ea" />
  <path
     d="m 21,30 2,0 0,6 -2,0 z"
     id="path36"
     inkscape:connector-curvature="0"
     style="fill:#744eaa" />
  <circle
     cx="22"
     cy="34.5"
     r="1"
     id="circle38"
     style="fill:#cbb7ea" />
  <circle
     cx="22"
     cy="31.5"
     r="1"
     id="circle40"
     style="fill:#cbb7ea" />
</svg>
