<?xml version="1.0" encoding="UTF-8" standalone="no"?>
<svg
   xmlns:dc="http://purl.org/dc/elements/1.1/"
   xmlns:cc="http://creativecommons.org/ns#"
   xmlns:rdf="http://www.w3.org/1999/02/22-rdf-syntax-ns#"
   xmlns:svg="http://www.w3.org/2000/svg"
   xmlns="http://www.w3.org/2000/svg"
   xmlns:sodipodi="http://sodipodi.sourceforge.net/DTD/sodipodi-0.dtd"
   xmlns:inkscape="http://www.inkscape.org/namespaces/inkscape"
   viewBox="0 0 36 36"
   id="svg2"
   version="1.1"
   inkscape:version="0.91 r13725"
   sodipodi:docname="1f468-200d-2764-fe0f-200d-1f468.svg"
   width="36"
   height="36">
  <metadata
     id="metadata38">
    <rdf:RDF>
      <cc:Work
         rdf:about="">
        <dc:format>image/svg+xml</dc:format>
        <dc:type
           rdf:resource="http://purl.org/dc/dcmitype/StillImage" />
      </cc:Work>
    </rdf:RDF>
  </metadata>
  <defs
     id="defs36" />
  <sodipodi:namedview
     pagecolor="#ffffff"
     bordercolor="#666666"
     borderopacity="1"
     objecttolerance="10"
     gridtolerance="10"
     guidetolerance="10"
     inkscape:pageopacity="0"
     inkscape:pageshadow="2"
     inkscape:window-width="640"
     inkscape:window-height="480"
     id="namedview34"
     showgrid="false"
     inkscape:zoom="6.5555556"
     inkscape:cx="18"
     inkscape:cy="18"
     inkscape:window-x="0"
     inkscape:window-y="0"
     inkscape:window-maximized="0"
     inkscape:current-layer="svg2" />
  <path
     d="m 25,11.844 c 2.297,-0.669 3.315,-3.565 3.734,-5.369 0.953,1.477 3.036,3.68 7.266,4.805 L 36,0.425 C 35.045,0.154 34.041,0 33,0 26.925,0 22,4.925 22,11 c 0,3.009 1.211,5.733 3.168,7.719 C 25.061,18.162 25,17.589 25,17 l 0,-5.156 z"
     id="path4"
     inkscape:connector-curvature="0"
     style="fill:#ffac33" />
  <path
     d="m 34,22 2,0 0,-10.72 C 31.77,10.155 29.687,7.952 28.734,6.476 28.314,8.28 27.296,11.175 25,11.845 L 25,17 c 0,0.589 0.061,1.162 0.168,1.719 0.61,3.15 2.863,5.706 5.832,6.757 l 0,1.524 3,5 2,-3.396 0,-4.967 C 35.462,23.849 34.809,24 34,24 31,24 30,22 30,22 l 4,0 z m -1,-3.5 2,0 c 0.276,0 0.5,0.224 0.5,0.5 0,0.276 -0.224,0.5 -0.5,0.5 l -2,0 c -0.276,0 -0.5,-0.224 -0.5,-0.5 0,-0.276 0.224,-0.5 0.5,-0.5 z M 30,16 c -0.553,0 -1,-0.448 -1,-1 l 0,-1 c 0,-0.552 0.447,-1 1,-1 0.553,0 1,0.448 1,1 l 0,1 c 0,0.552 -0.447,1 -1,1 z"
     id="path6"
     inkscape:connector-curvature="0"
     style="fill:#ffdc5d" />
  <path
     d="M 36,28.604 34,32 31,27 25,27 c -2.209,0 -4,1.791 -4,4 l 0,5 15,0 0,-7.396 z"
     id="path8"
     inkscape:connector-curvature="0"
     style="fill:#3b94d9" />
  <path
     d="m 25,32 1,0 0,4 -1,0 z"
     id="path10"
     inkscape:connector-curvature="0"
     style="fill:#1c6399" />
  <path
     d="m 31,22 -1,0 c 0,0 1,2 4,2 0.809,0 1.462,-0.151 2,-0.363 L 36,22 31,22 Z"
     id="path12"
     inkscape:connector-curvature="0"
     style="fill:#bf6952" />
  <path
     d="m 30,16 c 0.553,0 1,-0.448 1,-1 l 0,-1 c 0,-0.552 -0.447,-1 -1,-1 -0.553,0 -1,0.448 -1,1 l 0,1 c 0,0.552 0.447,1 1,1 z"
     id="path14"
     inkscape:connector-curvature="0"
     style="fill:#662113" />
  <path
     d="m 33,19.5 2,0 c 0.276,0 0.5,-0.224 0.5,-0.5 0,-0.276 -0.224,-0.5 -0.5,-0.5 l -2,0 c -0.276,0 -0.5,0.224 -0.5,0.5 0,0.276 0.224,0.5 0.5,0.5 z"
     id="path16"
     inkscape:connector-curvature="0"
     style="fill:#bf6952" />
  <path
     d="M 11,11.844 C 8.703,11.175 7.685,8.279 7.266,6.475 6.313,7.952 4.23,10.155 0,11.28 L 0,0.425 C 0.955,0.154 1.959,0 3,0 9.075,0 14,4.925 14,11 14,14.009 12.789,16.733 10.832,18.719 10.939,18.162 11,17.589 11,17 l 0,-5.156 z"
     id="path18"
     inkscape:connector-curvature="0"
     style="fill:#ffac33" />
  <path
     d="m 5,22 1,0 C 6,22 5,24 2,24 1.191,24 0.538,23.849 0,23.637 L 0,28.604 2,32 5,27 5,25.477 C 7.968,24.426 10.222,21.87 10.832,18.72 10.939,18.162 11,17.589 11,17 l 0,-5.156 C 8.703,11.175 7.685,8.279 7.266,6.475 6.313,7.952 4.23,10.155 0,11.28 L 0,22 5,22 Z M 3.5,19 c 0,0.276 -0.224,0.5 -0.5,0.5 l -2,0 C 0.724,19.5 0.5,19.276 0.5,19 0.5,18.724 0.724,18.5 1,18.5 l 2,0 c 0.276,0 0.5,0.224 0.5,0.5 z M 5,15 5,14 c 0,-0.552 0.447,-1 1,-1 0.553,0 1,0.448 1,1 l 0,1 C 7,15.552 6.553,16 6,16 5.447,16 5,15.552 5,15 Z"
     id="path20"
     inkscape:connector-curvature="0"
     style="fill:#ffdc5d" />
  <path
     d="M 0,28.604 2,32 l 3,-5 6,0 c 2.209,0 4,1.791 4,4 l 0,5 -15,0 0,-7.396 z"
     id="path22"
     inkscape:connector-curvature="0"
     style="fill:#3b94d9" />
  <path
     d="m 10,32 1,0 0,4 -1,0 z"
     id="path24"
     inkscape:connector-curvature="0"
     style="fill:#1c6399" />
  <path
     d="m 5,22 1,0 C 6,22 5,24 2,24 1.191,24 0.538,23.849 0,23.637 L 0,22 5,22 Z"
     id="path26"
     inkscape:connector-curvature="0"
     style="fill:#bf6952" />
  <path
     d="M 6,16 C 5.447,16 5,15.552 5,15 l 0,-1 c 0,-0.552 0.447,-1 1,-1 0.553,0 1,0.448 1,1 l 0,1 c 0,0.552 -0.447,1 -1,1 z"
     id="path28"
     inkscape:connector-curvature="0"
     style="fill:#662113" />
  <path
     d="m 3,19.5 -2,0 C 0.724,19.5 0.5,19.276 0.5,19 0.5,18.724 0.724,18.5 1,18.5 l 2,0 c 0.276,0 0.5,0.224 0.5,0.5 0,0.276 -0.224,0.5 -0.5,0.5 z"
     id="path30"
     inkscape:connector-curvature="0"
     style="fill:#bf6952" />
  <path
     d="M 26.539,4.711 C 26.539,2.109 24.429,0 21.828,0 20.249,0 18.855,0.78 18,1.972 17.144,0.78 15.751,0 14.172,0 11.571,0 9.461,2.109 9.461,4.711 c 0,0.369 0.047,0.727 0.127,1.07 0.654,4.065 5.173,8.353 8.411,9.529 3.238,-1.177 7.758,-5.465 8.412,-9.528 0.081,-0.344 0.128,-0.702 0.128,-1.071 z"
     id="path32"
     inkscape:connector-curvature="0"
     style="fill:#dd2e44" />
</svg>
