<?xml version="1.0" encoding="UTF-8" standalone="no"?>
<svg
   xmlns:dc="http://purl.org/dc/elements/1.1/"
   xmlns:cc="http://creativecommons.org/ns#"
   xmlns:rdf="http://www.w3.org/1999/02/22-rdf-syntax-ns#"
   xmlns:svg="http://www.w3.org/2000/svg"
   xmlns="http://www.w3.org/2000/svg"
   xmlns:sodipodi="http://sodipodi.sourceforge.net/DTD/sodipodi-0.dtd"
   xmlns:inkscape="http://www.inkscape.org/namespaces/inkscape"
   viewBox="0 0 33.819 35.861"
   id="svg2"
   version="1.1"
   inkscape:version="0.91 r13725"
   sodipodi:docname="1f468-200d-1f466.svg"
   width="33.819"
   height="35.861">
  <metadata
     id="metadata34">
    <rdf:RDF>
      <cc:Work
         rdf:about="">
        <dc:format>image/svg+xml</dc:format>
        <dc:type
           rdf:resource="http://purl.org/dc/dcmitype/StillImage" />
      </cc:Work>
    </rdf:RDF>
  </metadata>
  <defs
     id="defs32" />
  <sodipodi:namedview
     pagecolor="#ffffff"
     bordercolor="#666666"
     borderopacity="1"
     objecttolerance="10"
     gridtolerance="10"
     guidetolerance="10"
     inkscape:pageopacity="0"
     inkscape:pageshadow="2"
     inkscape:window-width="640"
     inkscape:window-height="480"
     id="namedview30"
     showgrid="false"
     inkscape:zoom="6.5555556"
     inkscape:cx="17"
     inkscape:cy="18"
     inkscape:window-x="0"
     inkscape:window-y="0"
     inkscape:window-maximized="0"
     inkscape:current-layer="svg2" />
  <path
     d="m 8,21.861 0,-4 5,0 0,4 2,0 0,6 -9,0 0,-6 z"
     id="path4"
     inkscape:connector-curvature="0"
     style="fill:#ffdc5d" />
  <path
     d="m 20.917,35.861 0.028,-11.027 c 0,-1.973 -1,-2.973 -3,-2.973 l -5,0 -2.472,3.778 -2.528,-3.778 -6,0 C 0.166,21.861 0,23.054 0,24.834 l 0,11.027 20.917,0 z"
     id="path6"
     inkscape:connector-curvature="0"
     style="fill:#3b93d9" />
  <path
     d="m 15.945,25.861 0,10 1.028,0 0,-10 z m -11.973,0 0,10 1.028,0 0,-10 z"
     id="path8"
     inkscape:connector-curvature="0"
     style="fill:#1b6399" />
  <path
     d="m 18,13.861 0,-9 -15,-1 0,10 0.024,0 c 0.252,3.89 3.498,6.969 7.476,6.969 3.736,0 6.847,-2.717 7.42,-6.27 0.037,-0.23 0.065,-0.463 0.08,-0.699 z"
     id="path10"
     inkscape:connector-curvature="0"
     style="fill:#ffdc5d" />
  <path
     d="M 17.92,14.56 C 19.216,13.019 20,11.033 20,8.861 20,3.968 16.033,0 11.139,0 9.811,0 8.557,0.301 7.426,0.825 7.536,0.818 7.805,0.812 7.943,0.808 4.026,0.84 0.86,4.021 0.86,7.945 0.86,9.937 1.682,11.73 3,13.023 L 3,9.861 c 6.07,0 9.688,-2.576 11.495,-4.603 0.48,1.507 1.518,3.772 3.505,4.419 l 0,4.184 c -0.015,0.236 -0.043,0.469 -0.08,0.699 z"
     id="path12"
     inkscape:connector-curvature="0"
     style="fill:#ffac33" />
  <path
     d="m 13.667,17.584 -6.444,0 c 0,0 0.805,1.61 3.222,1.61 2.417,0 3.222,-1.61 3.222,-1.61 z m -2.722,-2.223 -1,0 c -0.276,0 -0.5,-0.224 -0.5,-0.5 0,-0.276 0.224,-0.5 0.5,-0.5 l 1,0 c 0.276,0 0.5,0.224 0.5,0.5 0,0.276 -0.224,0.5 -0.5,0.5 z"
     id="path14"
     inkscape:connector-curvature="0"
     style="fill:#bf6952" />
  <path
     d="m 7,12.861 c -0.552,0 -1,-0.448 -1,-1 l 0,-1 c 0,-0.552 0.448,-1 1,-1 0.552,0 1,0.448 1,1 l 0,1 c 0,0.552 -0.448,1 -1,1 z m 7,0 c -0.552,0 -1,-0.448 -1,-1 l 0,-1 c 0,-0.552 0.448,-1 1,-1 0.552,0 1,0.448 1,1 l 0,1 c 0,0.552 -0.448,1 -1,1 z"
     id="path16"
     inkscape:connector-curvature="0"
     style="fill:#662113" />
  <path
     d="m 27.001,34.861 0,-4 -4,0 0,4 -1,0 0,1 6,0 0,-1 z"
     id="path18"
     inkscape:connector-curvature="0"
     style="fill:#ffdc5d" />
  <path
     d="m 30.001,32.861 -3,0 -2,3 8.818,0 c -0.518,-1.602 -2.159,-3 -3.818,-3 z m -13.814,3 8.814,0 -2,-3 -2,0 c -0.368,0 -0.719,0.032 -1.055,0.088 -1.941,0.326 -3.301,1.535 -3.759,2.912 z"
     id="path20"
     inkscape:connector-curvature="0"
     style="fill:#88c9f9" />
  <path
     d="m 31.995,25.908 -0.002,-0.047 0.008,0 0,-6 -3.557,0 c -1.018,-0.574 -2.192,-0.906 -3.446,-0.906 -1.254,0 -2.428,0.332 -3.446,0.906 l -3.551,0 0,6 0.002,0 -0.002,0.047 c 0,0.145 0.013,0.286 0.022,0.428 0.224,3.64 3.257,6.525 6.975,6.525 3.383,0 6.206,-2.387 6.856,-5.558 0.092,-0.451 0.141,-0.917 0.141,-1.395 z"
     id="path22"
     inkscape:connector-curvature="0"
     style="fill:#ffdc5d" />
  <path
     d="m 33.335,22.722 c 0,-4.342 -3.519,-7.861 -7.861,-7.861 -1.245,0 -2.418,0.297 -3.464,0.812 -3.33,0.07 -6.009,2.786 -6.009,6.133 0,1.8 0.786,3.408 2.022,4.53 -0.009,-0.142 -0.022,-0.284 -0.022,-0.428 l 0.002,-0.047 -0.002,0 0,-3.035 c 4.856,-0.18 7.656,-1.81 9.204,-3.332 1.065,1.257 2.765,2.841 4.796,3.257 l 0,3.11 -0.008,0 0.002,0.047 c 0,0.478 -0.049,0.944 -0.141,1.395 0.928,-1.291 1.481,-2.869 1.481,-4.581 z"
     id="path24"
     inkscape:connector-curvature="0"
     style="fill:#f4900c" />
  <path
     d="m 28.001,29.861 -6,0 c 0,0 0.583,2 3,2 2.417,0 3,-2 3,-2 z m -3,-0.5 c -0.13,0 -0.26,-0.05 -0.35,-0.15 -0.1,-0.09 -0.15,-0.22 -0.15,-0.35 0,-0.13 0.05,-0.26 0.15,-0.36 0.17,-0.17 0.52,-0.18 0.71,0.01 0.09,0.091 0.14,0.221 0.14,0.351 0,0.13 -0.05,0.26 -0.15,0.35 -0.09,0.099 -0.22,0.149 -0.35,0.149 z"
     id="path26"
     inkscape:connector-curvature="0"
     style="fill:#bf6952" />
  <path
     d="m 22.001,27.861 c -0.552,0 -1,-0.447 -1,-1 l 0,-1 c 0,-0.553 0.448,-1 1,-1 0.552,0 1,0.447 1,1 l 0,1 c 0,0.553 -0.448,1 -1,1 z m 6,0 c -0.553,0 -1,-0.447 -1,-1 l 0,-1 c 0,-0.553 0.447,-1 1,-1 0.553,0 1,0.447 1,1 l 0,1 c 0,0.553 -0.447,1 -1,1 z"
     id="path28"
     inkscape:connector-curvature="0"
     style="fill:#662113" />
</svg>
