<?xml version="1.0" encoding="UTF-8" standalone="no"?>
<svg
   xmlns:dc="http://purl.org/dc/elements/1.1/"
   xmlns:cc="http://creativecommons.org/ns#"
   xmlns:rdf="http://www.w3.org/1999/02/22-rdf-syntax-ns#"
   xmlns:svg="http://www.w3.org/2000/svg"
   xmlns="http://www.w3.org/2000/svg"
   xmlns:sodipodi="http://sodipodi.sourceforge.net/DTD/sodipodi-0.dtd"
   xmlns:inkscape="http://www.inkscape.org/namespaces/inkscape"
   viewBox="0 0 28 30.125"
   id="svg2"
   version="1.1"
   inkscape:version="0.91 r13725"
   sodipodi:docname="1f468-1f3fb-200d-1f9b2.svg"
   width="28"
   height="30.125">
  <metadata
     id="metadata14">
    <rdf:RDF>
      <cc:Work
         rdf:about="">
        <dc:format>image/svg+xml</dc:format>
        <dc:type
           rdf:resource="http://purl.org/dc/dcmitype/StillImage" />
      </cc:Work>
    </rdf:RDF>
  </metadata>
  <defs
     id="defs12" />
  <sodipodi:namedview
     pagecolor="#ffffff"
     bordercolor="#666666"
     borderopacity="1"
     objecttolerance="10"
     gridtolerance="10"
     guidetolerance="10"
     inkscape:pageopacity="0"
     inkscape:pageshadow="2"
     inkscape:window-width="640"
     inkscape:window-height="480"
     id="namedview10"
     showgrid="false"
     inkscape:zoom="6.5555556"
     inkscape:cx="14"
     inkscape:cy="17"
     inkscape:window-x="0"
     inkscape:window-y="0"
     inkscape:window-maximized="0"
     inkscape:current-layer="svg2" />
  <path
     d="M 25.5,11.125 C 24.406,3.436 19.392,0 14,0 8.608,0 3.594,3.436 2.5,11.125 c -1.381,0 -2.5,1.791 -2.5,4 0,2.107 1.021,3.815 2.314,3.97 1.223,6.649 5.985,11.03 11.686,11.03 5.7,0 10.463,-4.381 11.685,-11.03 C 26.979,18.94 28,17.232 28,15.125 c 0,-2.209 -1.119,-4 -2.5,-4 z"
     id="path4"
     inkscape:connector-curvature="0"
     style="fill:#f6ddcd" />
  <path
     d="m 14,26.125 c -4.201,0 -5.491,-1.077 -5.707,-1.293 -0.391,-0.391 -0.391,-1.023 0,-1.414 0.378,-0.379 0.984,-0.39 1.376,-0.036 0.08,0.058 1.1,0.743 4.331,0.743 3.355,0 4.326,-0.739 4.336,-0.747 0.39,-0.389 1.001,-0.37 1.393,0.021 0.391,0.391 0.369,1.043 -0.021,1.434 -0.217,0.215 -1.507,1.292 -5.708,1.292 z m 1,-5 -2,0 c -0.552,0 -1,-0.447 -1,-1 0,-0.553 0.448,-1 1,-1 l 2,0 c 0.553,0 1,0.447 1,1 0,0.553 -0.447,1 -1,1 z"
     id="path6"
     inkscape:connector-curvature="0"
     style="fill:#c1694f" />
  <path
     d="m 9,16.125 c -0.552,0 -1,-0.447 -1,-1 l 0,-2 c 0,-0.552 0.448,-1 1,-1 0.552,0 1,0.448 1,1 l 0,2 c 0,0.553 -0.448,1 -1,1 z m 10,0 c -0.553,0 -1,-0.447 -1,-1 l 0,-2 c 0,-0.552 0.447,-1 1,-1 0.553,0 1,0.448 1,1 l 0,2 c 0,0.553 -0.447,1 -1,1 z"
     id="path8"
     inkscape:connector-curvature="0"
     style="fill:#662113" />
</svg>
