<?xml version="1.0" encoding="UTF-8" standalone="no"?>
<svg
   xmlns:dc="http://purl.org/dc/elements/1.1/"
   xmlns:cc="http://creativecommons.org/ns#"
   xmlns:rdf="http://www.w3.org/1999/02/22-rdf-syntax-ns#"
   xmlns:svg="http://www.w3.org/2000/svg"
   xmlns="http://www.w3.org/2000/svg"
   xmlns:sodipodi="http://sodipodi.sourceforge.net/DTD/sodipodi-0.dtd"
   xmlns:inkscape="http://www.inkscape.org/namespaces/inkscape"
   viewBox="0 0 35.00016 36"
   id="svg2"
   version="1.1"
   inkscape:version="0.91 r13725"
   sodipodi:docname="1f469-1f3fe-200d-1f3ed.svg"
   width="35.00016"
   height="36">
  <metadata
     id="metadata58">
    <rdf:RDF>
      <cc:Work
         rdf:about="">
        <dc:format>image/svg+xml</dc:format>
        <dc:type
           rdf:resource="http://purl.org/dc/dcmitype/StillImage" />
      </cc:Work>
    </rdf:RDF>
  </metadata>
  <defs
     id="defs56" />
  <sodipodi:namedview
     pagecolor="#ffffff"
     bordercolor="#666666"
     borderopacity="1"
     objecttolerance="10"
     gridtolerance="10"
     guidetolerance="10"
     inkscape:pageopacity="0"
     inkscape:pageshadow="2"
     inkscape:window-width="640"
     inkscape:window-height="480"
     id="namedview54"
     showgrid="false"
     inkscape:zoom="6.5555556"
     inkscape:cx="18.000158"
     inkscape:cy="18"
     inkscape:window-x="0"
     inkscape:window-y="0"
     inkscape:window-maximized="0"
     inkscape:current-layer="svg2" />
  <path
     d="m 35.000158,36 0,-3.5 c 0,-3.314 -3.685,-5.5 -7,-5.5 l -12,0 c -3.313,0 -6.9999996,2.186 -6.9999996,5.5 l 0,3.5 25.9999996,0 z"
     id="path4"
     inkscape:connector-curvature="0"
     style="fill:#3b88c3" />
  <path
     d="m 22.000158,35.999 -6,-8.999 12,0 z"
     id="path6"
     inkscape:connector-curvature="0"
     style="fill:#292f33" />
  <path
     d="m 14.500158,27 c 0,1.068 1.5,3.662 3.5,5.798 1.581,1.687 4,3.202 4,3.202 0,-3.271 -1,-4.27 -2,-5.338 -1,-1.066 -3,-1.526 -3,-3.662 0,-1.066 -2.5,0 -2.5,0 m 15,0 c 0,1.068 -1.5,3.662 -3.5,5.798 -1.581,1.687 -4,3.202 -4,3.202 0,-3.271 1,-4.27 2,-5.338 1,-1.066 3,-1.526 3,-3.662 0,-1.066 2.5,0 2.5,0"
     id="path8"
     inkscape:connector-curvature="0"
     style="fill:#55acee" />
  <path
     d="m 21.945158,5.069 c 4.105,0 10.947,2.053 10.947,10.947 0,8.896 0,10.948 -2.053,10.948 -2.053,0 -4.79,-2.053 -8.895,-2.053 -4.105,0 -6.785,2.053 -8.895,2.053 -2.287,0 -2.053,-8.211 -2.053,-10.948 0.001,-8.894 6.844,-10.947 10.949,-10.947"
     id="path10"
     inkscape:connector-curvature="0"
     style="fill:#60352a" />
  <path
     d="m 18.328158,27.018 c 1.466,1.065 2.964,0.98 3.672,0.98 0.708,0 2.194,0.085 3.66,-0.98 l 0,-3.203 -7.332,0 0,3.203 z"
     id="path12"
     inkscape:connector-curvature="0"
     style="fill:#af7e57" />
  <path
     d="m 18.322158,25.179 c 1.022,1.155 2.29,1.468 3.668,1.468 1.379,0 2.647,-0.312 3.67,-1.468 l 0,-2.936 -7.338,0 0,2.936 z"
     id="path14"
     inkscape:connector-curvature="0"
     style="fill:#9b6a49" />
  <path
     d="m 13.734158,15.718 c 0,-5.834 3.676,-10.563 8.211,-10.563 4.533,0 8.209,4.729 8.209,10.563 0,5.833 -3.676,10.285 -8.209,10.285 -4.535,0 -8.211,-4.452 -8.211,-10.285"
     id="path16"
     inkscape:connector-curvature="0"
     style="fill:#af7e57" />
  <path
     d="m 21.945158,23.543 c -1.606,0 -2.447,-0.794 -2.537,-0.885 -0.268,-0.267 -0.268,-0.7 0,-0.967 0.266,-0.265 0.692,-0.267 0.961,-0.007 0.035,0.032 0.551,0.491 1.576,0.491 1.038,0 1.555,-0.473 1.576,-0.492 0.273,-0.256 0.703,-0.248 0.963,0.02 0.26,0.269 0.26,0.691 -0.004,0.955 -0.089,0.091 -0.929,0.885 -2.535,0.885"
     id="path18"
     inkscape:connector-curvature="0"
     style="fill:#df1f32" />
  <path
     d="m 22.836158,20.5 -1.69,0 c -0.233,0 -0.423,-0.19 -0.423,-0.423 l 0,-0.153 c 0,-0.233 0.189,-0.424 0.423,-0.424 l 1.69,0 c 0.233,0 0.424,0.19 0.424,0.424 l 0,0.153 c 0,0.233 -0.191,0.423 -0.424,0.423"
     id="path20"
     inkscape:connector-curvature="0"
     style="fill:#915a34" />
  <path
     d="m 11.725158,19 c -0.021,-1 -0.044,-0.224 -0.044,-0.465 0,-3.422 2.053,0.494 2.053,-1.943 0,-2.439 1.368,-2.683 2.736,-4.051 0.685,-0.685 2.053,-2.026 2.053,-2.026 0,0 3.421,2.067 6.158,2.067 2.736,0 5.474,1.375 5.474,4.112 0,2.736 2.053,-1.584 2.053,1.837 0,0.244 -0.022,-0.531 -0.04,0.469 l 0.719,0 c 0.006,-2 0.006,-1.924 0.006,-3.202 0,-8.895 -6.842,-12.207 -10.948,-12.207 -4.104,0 -10.947,3.257 -10.947,12.152 0,0.793 -0.02,1.257 0.008,3.257 l 0.719,0 z"
     id="path22"
     inkscape:connector-curvature="0"
     style="fill:#60352a" />
  <path
     d="m 15.444158,15.936 c 0,1.448 -0.734,2.622 -1.639,2.622 -0.905,0 -1.639,-1.174 -1.639,-2.622 0,-1.448 0.734,-2.623 1.639,-2.623 0.905,-0.001 1.639,1.174 1.639,2.623 m 16.389,0 c 0,1.448 -0.733,2.622 -1.639,2.622 -0.905,0 -1.639,-1.174 -1.639,-2.622 0,-1.448 0.733,-2.623 1.639,-2.623 0.906,-0.001 1.639,1.174 1.639,2.623"
     id="path24"
     inkscape:connector-curvature="0"
     style="fill:#af7e57" />
  <circle
     cx="17.250158"
     cy="16"
     r="3.75"
     id="circle26"
     style="fill:#9b6a49" />
  <circle
     cx="26.750158"
     cy="16"
     r="3.75"
     id="circle28"
     style="fill:#9b6a49" />
  <path
     d="m 19.500158,15 5,0 0,2.5 -5,0 z"
     id="path30"
     inkscape:connector-curvature="0"
     style="fill:#9b6a49" />
  <circle
     cx="17.500158"
     cy="15.5"
     r="3.5"
     id="circle32"
     style="fill:#e1e8ed" />
  <circle
     cx="26.500158"
     cy="15.5"
     r="3.5"
     id="circle34"
     style="fill:#e1e8ed" />
  <path
     d="m 19.500158,14 5,0 0,2.5 -5,0 z"
     id="path36"
     inkscape:connector-curvature="0"
     style="fill:#e1e8ed" />
  <circle
     cx="17.500158"
     cy="15.5"
     r="2.5"
     id="circle38"
     style="fill:#292f33" />
  <circle
     cx="26.500158"
     cy="15.5"
     r="2.5"
     id="circle40"
     style="fill:#292f33" />
  <path
     d="m 5.0001584,24 -1.5,1 c 0,0 1.5,2.5 1.5,6 l 0,5 2,0 0,-5 c 0,-4.5 -2,-7 -2,-7 z"
     id="path42"
     inkscape:connector-curvature="0"
     style="fill:#66757f" />
  <path
     d="m 6.0791584,23.807 c 0.208,0.379 0.071,0.854 -0.307,1.064 l -2.13,1.178 c -0.379,0.208 -0.855,0.07 -1.064,-0.309 l -0.451,-0.816 c -0.208,-0.379 -0.072,-0.855 0.307,-1.064 l 2.13,-1.178 c 0.378,-0.209 0.855,-0.071 1.064,0.309 l 0.451,0.816 z"
     id="path44"
     inkscape:connector-curvature="0"
     style="fill:#99aab5" />
  <path
     d="m 3.4901584,22.584 c 4.188,-2.209 -3.43799996,-6.271 -3.43799996,-6.271 0,0 -0.75,8.48 3.43799996,6.271 z"
     id="path46"
     inkscape:connector-curvature="0"
     style="fill:#f4900c" />
  <path
     d="m 2.9601584,21.365 c 2.202,-1.162 -1.808,-3.299 -1.808,-3.299 0,0 -0.39399996,4.459 1.808,3.299 z"
     id="path48"
     inkscape:connector-curvature="0"
     style="fill:#ffdc5d" />
  <path
     d="m 34.000158,11 c -3,-2 -1.008,-4.169 -3,-7 -1.874,-2.663 -5,-4 -9.003,-4 -4.997,0 -7.123,1.337 -8.997,4 -1.992,2.831 0,5 -3,7 -1.8609996,1.24 6,2.313 12,2.313 6,0 13.861,-1.073 12,-2.313"
     id="path50"
     inkscape:connector-curvature="0"
     style="fill:#3b88c3" />
  <path
     d="m 20.000158,11.5 0,-11.412 c -0.35,0.032 -0.683,0.074 -1,0.124 l 0,10.281 c -2.09,-0.05 -5.124,-0.396 -7.653,-0.853 -0.174,0.297 -0.41,0.59 -0.73,0.877 2.911,0.565 6.596,0.982 8.883,0.982 l 0.5,0 z m 4.5,0 c 2.421,0 6.037,-0.393 8.907,-0.959 -0.325,-0.288 -0.563,-0.58 -0.741,-0.877 -2.431,0.448 -5.371,0.787 -7.667,0.832 l 0,-10.204 c -0.323,-0.066 -0.66,-0.112 -1,-0.155 l 0,11.363 0.501,0 z"
     id="path52"
     inkscape:connector-curvature="0"
     style="fill:#226699" />
</svg>
