<?xml version="1.0" encoding="UTF-8" standalone="no"?>
<svg
   xmlns:dc="http://purl.org/dc/elements/1.1/"
   xmlns:cc="http://creativecommons.org/ns#"
   xmlns:rdf="http://www.w3.org/1999/02/22-rdf-syntax-ns#"
   xmlns:svg="http://www.w3.org/2000/svg"
   xmlns="http://www.w3.org/2000/svg"
   xmlns:sodipodi="http://sodipodi.sourceforge.net/DTD/sodipodi-0.dtd"
   xmlns:inkscape="http://www.inkscape.org/namespaces/inkscape"
   viewBox="0 0 29.000711 35.500252"
   id="svg2"
   version="1.1"
   inkscape:version="0.91 r13725"
   sodipodi:docname="1f468-200d-1f393.svg"
   width="29.000711"
   height="35.500252">
  <metadata
     id="metadata36">
    <rdf:RDF>
      <cc:Work
         rdf:about="">
        <dc:format>image/svg+xml</dc:format>
        <dc:type
           rdf:resource="http://purl.org/dc/dcmitype/StillImage" />
      </cc:Work>
    </rdf:RDF>
  </metadata>
  <defs
     id="defs34" />
  <sodipodi:namedview
     pagecolor="#ffffff"
     bordercolor="#666666"
     borderopacity="1"
     objecttolerance="10"
     gridtolerance="10"
     guidetolerance="10"
     inkscape:pageopacity="0"
     inkscape:pageshadow="2"
     inkscape:window-width="640"
     inkscape:window-height="480"
     id="namedview32"
     showgrid="false"
     inkscape:zoom="6.5555556"
     inkscape:cx="14.500404"
     inkscape:cy="18"
     inkscape:window-x="0"
     inkscape:window-y="0"
     inkscape:window-maximized="0"
     inkscape:current-layer="svg2" />
  <path
     d="m 22.500404,27.50025 -16,0 c -3.313,0 -6.00000003,2.686 -6.00000003,6 l 0,2 28.00000003,0 0,-2 c 0,-3.314 -2.685,-6 -6,-6 z"
     id="path4"
     inkscape:connector-curvature="0"
     style="fill:#292f33" />
  <path
     d="m 4.583404,32.84125 c 0.251,0 0.401,2.659 0.401,2.659 l -0.956,0 c 0,0 0.193,-2.659 0.555,-2.659 m 3,0 c 0.251,0 0.401,2.659 0.401,2.659 l -0.957,0 c 0.001,0 0.194,-2.659 0.556,-2.659 m 13.846,0 c -0.251,0 -0.401,2.659 -0.401,2.659 l 0.956,0 c -0.001,0 -0.194,-2.659 -0.555,-2.659 m 3,0 c -0.251,0 -0.401,2.659 -0.401,2.659 l 0.956,0 c -0.001,0 -0.194,-2.659 -0.555,-2.659"
     id="path6"
     inkscape:connector-curvature="0"
     style="fill:#66757f" />
  <path
     d="m 8.880404,27.50025 c 0,0 0.24,0.838 0.77,1.971 0.827,1.766 2.366,4.254 4.85,5.441 2.485,-1.187 4.024,-3.675 4.85,-5.441 0.53,-1.133 0.77,-1.971 0.77,-1.971 l -11.24,0 z"
     id="path8"
     inkscape:connector-curvature="0"
     style="fill:#77b255" />
  <path
     d="m 14.500404,31.50025 c 2.329,0 3.882,-1.02 4.85,-2.029 0.53,-1.133 0.77,-1.971 0.77,-1.971 l -11.24,0 c 0,0 0.24,0.838 0.77,1.971 0.968,1.009 2.521,2.029 4.85,2.029 z"
     id="path10"
     inkscape:connector-curvature="0"
     style="fill:#5c913b" />
  <path
     d="m 10.140404,27.60625 c 0,0.894 2.36,1.993 4.36,1.993 2,0 4.359,-1.099 4.359,-1.992 l 0,-3.817 -8.72,0 0,3.816 z"
     id="path12"
     inkscape:connector-curvature="0"
     style="fill:#ffdc5d" />
  <path
     d="m 10.132404,25.47325 c 1.216,1.374 2.724,1.746 4.364,1.746 1.639,0 3.146,-0.373 4.363,-1.746 l 0,-3.491 -8.728,0 0,3.491 z"
     id="path14"
     inkscape:connector-curvature="0"
     style="fill:#f9ca55" />
  <path
     d="m 7.944404,15.43625 c 0,1.448 -0.734,2.622 -1.639,2.622 -0.905,0 -1.639,-1.174 -1.639,-2.622 0,-1.448 0.734,-2.623 1.639,-2.623 0.905,-10e-4 1.639,1.174 1.639,2.623 m 16.389,0 c 0,1.448 -0.733,2.622 -1.639,2.622 -0.905,0 -1.639,-1.174 -1.639,-2.622 0,-1.448 0.733,-2.623 1.639,-2.623 0.906,-10e-4 1.639,1.174 1.639,2.623"
     id="path16"
     inkscape:connector-curvature="0"
     style="fill:#ffdc5d" />
  <path
     d="m 5.977404,16.45925 c 0,-5.589 3.816,-10.121 8.523,-10.121 4.707,0 8.522,4.532 8.522,10.121 0,5.589 -3.815,10.121 -8.522,10.121 -4.707,0 -8.523,-4.531 -8.523,-10.121"
     id="path18"
     inkscape:connector-curvature="0"
     style="fill:#ffdc5d" />
  <path
     d="m 14.500404,23.30225 c -2.754,0 -3.6,-0.705 -3.741,-0.848 -0.256,-0.256 -0.256,-0.671 0,-0.927 0.248,-0.248 0.646,-0.255 0.902,-0.023 0.052,0.037 0.721,0.487 2.839,0.487 2.2,0 2.836,-0.485 2.842,-0.49 0.256,-0.255 0.657,-0.243 0.913,0.015 0.256,0.256 0.242,0.683 -0.014,0.938 -0.141,0.143 -0.987,0.848 -3.741,0.848 m 0.75,-4.052 -1.5,0 c -0.413,0 -0.75,-0.337 -0.75,-0.75 0,-0.413 0.337,-0.75 0.75,-0.75 l 1.5,0 c 0.413,0 0.75,0.337 0.75,0.75 0,0.413 -0.337,0.75 -0.75,0.75"
     id="path20"
     inkscape:connector-curvature="0"
     style="fill:#c1694f" />
  <path
     d="m 10.500404,16.50025 c -0.55,0 -1,-0.45 -1,-1 l 0,-1 c 0,-0.55 0.45,-1 1,-1 0.55,0 1,0.45 1,1 l 0,1 c 0,0.55 -0.45,1 -1,1 m 8,0 c -0.55,0 -1,-0.45 -1,-1 l 0,-1 c 0,-0.55 0.45,-1 1,-1 0.55,0 1,0.45 1,1 l 0,1 c 0,0.55 -0.45,1 -1,1"
     id="path22"
     inkscape:connector-curvature="0"
     style="fill:#662113" />
  <path
     d="m 14.500404,2.50025 c 5.648,0 9.178,4.648 9.178,8.121 0,3.473 -0.971,4.968 -1.412,3.473 -0.766,-2.594 -1.766,-2.594 -1.766,-2.594 0,0 -3.882,1.538 -5.294,0.148 0,0 2.118,4.168 -2.118,0 0,0 0.706,2.779 -3.53,-0.694 0,0 -2.118,-0.333 -2.824,3.14 -0.196,0.964 -1.412,0 -1.412,-3.473 0,-3.473 2.824,-8.121 9.178,-8.121"
     id="path24"
     inkscape:connector-curvature="0"
     style="fill:#ffac33" />
  <path
     d="m 28.604404,3.01125 -14,-3 c -0.068,-0.015 -0.14,-0.015 -0.209,0 l -14.00000003,3 c -0.224,0.048 -0.387,0.243 -0.39500000102,0.472 -0.006999999,0.229 0.14200000102,0.434 0.36300000102,0.498 l 4.94400003,1.413 c -0.192,0.595 -0.307,1.282 -0.307,2.106 0,2.29 3.285,3.5 9.5,3.5 6.215,0 9.5,-1.21 9.5,-3.5 0,-0.824 -0.115,-1.511 -0.307,-2.106 l 4.945,-1.413 c 0.221,-0.063 0.37,-0.269 0.362,-0.498 -0.008,-0.229 -0.171,-0.424 -0.396,-0.472 z"
     id="path26"
     inkscape:connector-curvature="0"
     style="fill:#292f33" />
  <path
     d="m 28.980404,3.36325 c -0.076,-0.265 -0.35,-0.417 -0.618,-0.344 l -13.862,3.961 -13.86300003,-3.961 c -0.262,-0.073 -0.542,0.078 -0.618,0.344 -0.076,0.265 0.078,0.542 0.344,0.618 l 14.00000003,4 c 0.045,0.013 0.091,0.019 0.136,0.019 0.045,0 0.092,-0.006 0.137,-0.019 l 14,-4 c 0.267,-0.076 0.421,-0.353 0.344,-0.618 z"
     id="path28"
     inkscape:connector-curvature="0"
     style="fill:#66757f" />
  <path
     d="m 14.458404,3.00225 -12,1 c -0.026,0.002 -0.458,0.057 -0.458,0.498 l 0,6.095 c -0.299,0.186 -0.5,0.74 -0.5,2.405 0,2.485 0.448,4.5 1,4.5 0.552,0 1,-2.015 1,-4.5 0,-1.665 -0.201,-2.219 -0.5,-2.405 l 0,-5.635 11.542,-0.962 c 0.274,-0.023 0.479,-0.264 0.456,-0.54 -0.023,-0.275 -0.268,-0.482 -0.54,-0.456 z"
     id="path30"
     inkscape:connector-curvature="0"
     style="fill:#ffcc4d" />
</svg>
