<?xml version="1.0" encoding="UTF-8" standalone="no"?>
<svg
   xmlns:dc="http://purl.org/dc/elements/1.1/"
   xmlns:cc="http://creativecommons.org/ns#"
   xmlns:rdf="http://www.w3.org/1999/02/22-rdf-syntax-ns#"
   xmlns:svg="http://www.w3.org/2000/svg"
   xmlns="http://www.w3.org/2000/svg"
   xmlns:sodipodi="http://sodipodi.sourceforge.net/DTD/sodipodi-0.dtd"
   xmlns:inkscape="http://www.inkscape.org/namespaces/inkscape"
   viewBox="0 0 31.879927 35.898842"
   id="svg2"
   version="1.1"
   inkscape:version="0.91 r13725"
   sodipodi:docname="1f468-200d-1f9bc.svg"
   width="31.879927"
   height="35.898842">
  <metadata
     id="metadata84">
    <rdf:RDF>
      <cc:Work
         rdf:about="">
        <dc:format>image/svg+xml</dc:format>
        <dc:type
           rdf:resource="http://purl.org/dc/dcmitype/StillImage" />
      </cc:Work>
    </rdf:RDF>
  </metadata>
  <defs
     id="defs82" />
  <sodipodi:namedview
     pagecolor="#ffffff"
     bordercolor="#666666"
     borderopacity="1"
     objecttolerance="10"
     gridtolerance="10"
     guidetolerance="10"
     inkscape:pageopacity="0"
     inkscape:pageshadow="2"
     inkscape:window-width="640"
     inkscape:window-height="480"
     id="namedview80"
     showgrid="false"
     inkscape:zoom="6.5555556"
     inkscape:cx="15.879926"
     inkscape:cy="18"
     inkscape:window-x="0"
     inkscape:window-y="0"
     inkscape:window-maximized="0"
     inkscape:current-layer="svg2" />
  <path
     d="m 23.886926,0.91384168 c -1.214,-0.871 -3.488,-0.718 -4.13,0.79500002 -0.638,1.502 -0.813,4.067 0.598,4.266 1.479,0.209 3.036,0.269 3.994,-1.066 0.959,-1.335 0.752,-3.124 -0.462,-3.99500002 z"
     id="path4"
     inkscape:connector-curvature="0"
     style="fill:#ffdc5d" />
  <path
     d="m 23.869926,5.1938417 c 2.544,-1.808 -2.238,-2.778 -2.238,-2.778 -0.902,-0.194 -0.664,1.452 -1.29,2.159 -0.431,0.49 0.708,1.096 0.708,1.096 0,0 0.56,0.133 0.419,0.817 l -0.002,0.006 c -0.037,0.174 -0.107,0.374 -0.256,0.627 -0.743,1.253 0.866,2.543 1.609,1.287 0.294,-0.497 0.352,-0.985 0.382,-1.441 l 0.003,-0.041 c 0.043,-0.679 0.036,-1.285 0.665,-1.732 z"
     id="path6"
     inkscape:connector-curvature="0"
     style="fill:#ffdc5d" />
  <path
     d="m 25.288926,1.8468417 c -0.632,-1.27700002 -1.777,-2.16000002 -4.077,-1.74200002 -0.937,0.17 -1.279,-0.066 -1.441,0.071 -0.778,0.661 -0.222,1.75300002 0.13,1.65200002 1.114,-0.321 1.948,0.069 2.068,0.535 0.12,0.466 -0.272,1.15 -0.092,1.2 0.486,0.137 0.528,-0.363 0.791,-0.59 0.431,-0.371 0.85,0.006 0.829,0.535 -0.017,0.42 -0.272,1.075 -0.953,1.03 0.196,1.086 0.998,1.604 0.998,1.604 0,0 0.256,0.184 0.986,-0.652 0.729,-0.836 1.389,-2.375 0.761,-3.643 z"
     id="path8"
     inkscape:connector-curvature="0"
     style="fill:#ffac33" />
  <path
     d="m 6.0999257,28.481842 c 0,0 0.108,-0.118 0.211,-0.409 0.104,-0.291 0.147,-0.888 0.133,-0.98 -0.014,-0.092 -0.039,-0.164 -0.148,-0.171 -0.083,-0.006 -0.768,0.08 -1.145,-0.039 -0.699,-0.22 -0.812,-0.957 -0.812,-0.957 0,0 -0.46,0.083 -0.829,0.152 -0.368,0.069 -0.818,0.209 -1.134,0.274 -0.271,0.056 -0.548,0.03 -0.823,-0.03 -0.275,-0.06 -0.485,-0.147 -0.55,-0.165 -0.066,-0.017 -0.57499995,-0.27 -0.78199995,0.25 l -0.051,0.154 c 0,0 0.811,0.718 2.11399995,1.182 1.303,0.464 1.639,0.152 2.481,0.452 0.843,0.3 1.335,0.287 1.335,0.287 z"
     id="path10"
     inkscape:connector-curvature="0"
     style="fill:#292f33" />
  <path
     d="m 4.1229257,28.719842 c -0.038,-0.07 -0.043,-0.253 -0.083,-0.292 -0.04,-0.039 -0.577,-0.11 -0.83,-0.137 -0.253,-0.027 -0.687,-0.076 -1.158,-0.244 -0.471,-0.168 -1.032,-0.523 -1.37499995,-0.752 -0.343,-0.228 -0.594,-0.46 -0.646,-0.526 -0.052,-0.066 -0.026,-0.078 -0.011,-0.107 0.015,-0.029 0.119,-0.176 0.119,-0.176 0,0 0.196,0.213 0.569,0.459 0.37299995,0.246 0.75399995,0.467 1.45799995,0.717 0.703,0.25 1.182,0.303 1.583,0.335 0.499,0.039 1.207,0.141 1.681,0.309 0.365,0.13 0.66,0.114 0.768,0.123 0.025,0.002 0.04,0.027 0.032,0.051 l -0.222,0.623 c -0.014,0.041 -0.081,0.121 -0.196,0.105 -0.115,-0.016 -1.651,-0.419 -1.689,-0.488 z"
     id="path12"
     inkscape:connector-curvature="0"
     style="fill:#292f33" />
  <path
     d="m 22.976926,17.108842 c 0.069,1.432 -0.391,2.922 -1.505,3.202 -1.066,0.268 -3.056,-0.151 -3.056,-0.151 0,0 -0.698,0.408 -0.531,1.189 0.095,0.444 0.257,0.67 0.201,0.712 -0.05,0.038 -0.486,-0.022 -0.684,-0.032 -0.528,-0.027 -1.1,-0.211 -2.073,-0.484 -0.974,-0.273 -1.421,-0.285 -2.481,-0.577 -1.175,-0.324 -1.986,-0.835 -2.33,-1.956 -0.293,-0.956 0.277,-2.123 1.654,-2.63 1.12,-0.412 4.339,-0.347 5.539,-0.231 1.201,0.118 5.206,-0.287 5.266,0.958 z"
     id="path14"
     inkscape:connector-curvature="0"
     style="fill:#4289c1" />
  <path
     d="m 4.8819257,27.123842 c -0.646,-0.143 -1.293,-0.6 -1.419,-1.224 1.346,-1.871 3.671,-7.538 3.671,-7.538 0.695,-1.744 1.517,-3.426 3.1330003,-3.182 2.081,0.315 5.629,1.028 5.629,1.028 2.276,0.329 1.144,1.007 1.778,1.912 0.635,0.903 -1.294,1.99 -2.786,1.891 -2.602,-0.173 -3.877,-0.453 -5.5220003,0.846 -0.8,2.306 -2.071,4.087 -2.844,6.406 -0.826,0.244 -0.993,0.004 -1.64,-0.139 z"
     id="path16"
     inkscape:connector-curvature="0"
     style="fill:#4289c1" />
  <path
     d="m 23.448926,16.869842 c -0.211,0.688 -0.149,1.604 -0.515,1.362 -1.444,-0.957 -5.521,-2.045 -5.521,-2.045 0.049,-1.673 0.979,-3.969 1.559,-6.148 0.762,-2.8600003 3.067,-3.9510003 4.171,-3.2890003 1.443,0.865 1.75,2.668 1.308,5.2660003 -0.442,2.598 -0.791,4.166 -1.002,4.854 z"
     id="path18"
     inkscape:connector-curvature="0"
     style="fill:#77b255" />
  <path
     d="m 25.690926,10.507842 0.425,-5.2420003 c 0.022,-0.274 0.265,-0.48 0.539,-0.458 0.274,0.022 0.48,0.265 0.458,0.539 l -0.425,5.2420003 c -0.022,0.274 -0.265,0.48 -0.539,0.458 -0.274,-0.022 -0.48,-0.265 -0.458,-0.539 z"
     id="path20"
     inkscape:connector-curvature="0"
     style="fill:#66757f" />
  <path
     d="m 13.879926,20.898842 0,2 c 0,0 -2,0 -2,2 l 0,3 c 0,1 1,2 2,2 l 10,0 c 1,0 2,-1 2,-2 l 0,-5 c 0,-1 -1,-2 -2,-2 l -10,0 z"
     id="path22"
     inkscape:connector-curvature="0"
     style="fill:#292f33" />
  <path
     d="m 20.835926,22.457842 -9.848,-1.736 c -0.985,-0.174 -0.985,-0.174 -0.811,-1.158 0.096,-0.542 0.617,-0.907 1.158,-0.811 l 9.848,1.736 c 0.542,0.096 0.907,0.617 0.811,1.158 -0.173,0.985 -0.173,0.985 -1.158,0.811 z"
     id="path24"
     inkscape:connector-curvature="0"
     style="fill:#292f33" />
  <path
     d="m 23.117926,18.921842 c -0.193,0.922 -0.557,1.827 -2.094,1.537 -1.537,-0.29 -1.782,1.225 -0.824,1.493 0.958,0.267 3.252,0.646 3.921,-0.446 0.668,-1.092 0.78,-2.139 0.713,-2.606 -0.067,-0.467 -1.572,-0.66 -1.716,0.022 z"
     id="path26"
     inkscape:connector-curvature="0"
     style="fill:#292f33" />
  <path
     d="m 21.321926,22.794842 -10.833,-1.91 c -0.271,-0.048 -0.453,-0.308 -0.406,-0.579 0.048,-0.271 0.308,-0.453 0.579,-0.406 l 10.833,1.91 c 0.271,0.048 0.453,0.308 0.406,0.579 -0.048,0.271 -0.309,0.454 -0.579,0.406 z"
     id="path28"
     inkscape:connector-curvature="0"
     style="fill:#dd2e44" />
  <path
     d="m 26.811926,9.5408417 -1.736,9.8480003 c -0.174,0.985 -0.174,0.985 -1.158,0.811 -0.542,-0.096 -0.907,-0.617 -0.811,-1.158 l 1.736,-9.8480003 c 0.096,-0.542 0.617,-0.907 1.158,-0.811 0.984,0.173 0.984,0.173 0.811,1.158 z m 0.992,-7.49 -0.713,4.025 c -0.087,0.493 -0.168,1.007 -1.153,0.834 -0.542,-0.096 -0.882,-0.715 -0.763,-1.398 l 0.639,-3.609 c 0.163,-0.579 0.626,-1.00400002 1.167,-0.90900002 0.985,0.17300002 0.91,0.56400002 0.823,1.05700002 z"
     id="path30"
     inkscape:connector-curvature="0"
     style="fill:#292f33" />
  <path
     d="m 27.285926,9.1228417 -1.91,10.8330003 c -0.048,0.271 -0.308,0.453 -0.579,0.406 -0.271,-0.048 -0.453,-0.308 -0.406,-0.579 l 1.91,-10.8330003 c 0.048,-0.271 0.308,-0.453 0.579,-0.406 0.272,0.048 0.454,0.308 0.406,0.579 z m 1.243,-7.455 -0.91,5.18 c -0.048,0.271 -0.308,0.453 -0.579,0.406 -0.271,-0.048 -0.453,-0.308 -0.406,-0.579 l 0.91,-5.18 c 0.048,-0.271 0.308,-0.453 0.579,-0.406 0.271,0.047 0.454,0.308 0.406,0.579 z"
     id="path32"
     inkscape:connector-curvature="0"
     style="fill:#dd2e44" />
  <path
     d="m 23.373926,18.339842 -7.466,-1.316 c -0.747,-0.132 -0.747,-0.132 -0.617,-0.869 0.071,-0.405 0.466,-0.678 0.877,-0.606 l 7.466,1.316 c 0.411,0.072 0.688,0.463 0.617,0.869 -0.13,0.738 -0.13,0.738 -0.877,0.606 z"
     id="path34"
     inkscape:connector-curvature="0"
     style="fill:#292f33" />
  <path
     d="m 21.002926,21.722842 c 0.993,0.175 2.954,0.521 3.475,-2.433 0.521,-2.954 1.506,-2.781 0.985,0.174 -0.521,2.955 -2.237,3.667 -4.634,3.245 -1.969,-0.348 -1.796,-1.333 0.174,-0.986 z m -10.33,-1.821 c 1.971,0.34 2.277,1.422 0.308,1.07 -0.873,-0.156 -0.9840003,0.212 -1.2510003,0.958 -0.252,0.702 -0.611,1.757 -1.144,3.23 -0.391,1.082 -1.279,0.603 -0.95,-0.342 0.551,-1.588 1.061,-2.968 1.392,-3.847 0.338,-0.895 0.613,-1.247 1.6450003,-1.069 z"
     id="path36"
     inkscape:connector-curvature="0"
     style="fill:#dd2e44" />
  <path
     d="m 8.4999257,23.908842 c -0.258,-0.094 -0.547,0.04 -0.641,0.299 l -2.052,5.638 c -0.094,0.258 0.04,0.547 0.299,0.641 0.258,0.094 0.547,-0.04 0.641,-0.299 l 2.052,-5.638 c 0.094,-0.259 -0.041,-0.547 -0.299,-0.641 z"
     id="path38"
     inkscape:connector-curvature="0"
     style="fill:#dd2e44" />
  <path
     d="m 6.1059257,30.486842 -3.759,-1.368 c -0.258,-0.094 -0.393,-0.382 -0.299,-0.641 0.094,-0.258 0.382,-0.393 0.641,-0.299 l 3.759,1.368 c 0.258,0.094 0.393,0.382 0.299,0.641 -0.094,0.258 -0.383,0.393 -0.641,0.299 z"
     id="path40"
     inkscape:connector-curvature="0"
     style="fill:#66757f" />
  <path
     d="m 11.723926,30.760842 2.95,-2.95 c 0.194,-0.194 0.194,-0.513 0,-0.707 -0.194,-0.194 -0.513,-0.194 -0.707,0 l -2.95,2.95 c -0.194,0.194 -0.194,0.513 0,0.707 0.194,0.194 0.512,0.194 0.707,0 z m 18.156,3.138 c -0.55,0 -1,-0.45 -1,-1 l 0,-3 c 0,-0.55 0.45,-1 1,-1 0.55,0 1,0.45 1,1 l 0,3 c 0,0.55 -0.45,1 -1,1 z"
     id="path42"
     inkscape:connector-curvature="0"
     style="fill:#dd2e44" />
  <path
     d="m 11.379926,33.898842 c -0.55,0 -1,-0.45 -1,-1 l 0,-3 c 0,-0.55 0.45,-1 1,-1 0.55,0 1,0.45 1,1 l 0,3 c 0,0.55 -0.45,1 -1,1 z m 12.983,-6.005 2,0 c 0.275,0 0.5,-0.225 0.5,-0.5 0,-0.275 -0.225,-0.5 -0.5,-0.5 l -2,0 c -0.275,0 -0.5,0.225 -0.5,0.5 0,0.275 0.225,0.5 0.5,0.5 z"
     id="path44"
     inkscape:connector-curvature="0"
     style="fill:#dd2e44" />
  <path
     d="m 29.002926,30.701842 -2.95,-2.95 c -0.194,-0.194 -0.194,-0.513 0,-0.707 0.194,-0.194 0.513,-0.194 0.707,0 l 2.95,2.95 c 0.194,0.194 0.194,0.513 0,0.707 -0.194,0.195 -0.512,0.195 -0.707,0 z"
     id="path46"
     inkscape:connector-curvature="0"
     style="fill:#dd2e44" />
  <path
     d="m 9.5519257,16.025842 c 0.7420003,0.318 2.0500003,0.936 2.3390003,1.047 0,0 0.134,-0.891 0.49,-0.891 0,0 0.134,-0.468 0.223,-0.668 0.089,-0.2 0.356,-0.134 0.379,0.245 0.022,0.379 -0.089,0.512 -0.089,0.512 0,0 0.334,0.423 0.134,1.002 0,0 0.446,0.067 0.356,0.624 -0.089,0.557 0.067,0.98 -0.334,1.092 -0.401,0.111 -1.916,0.535 -1.938,-0.067 -0.022,-0.601 -0.401,-1.069 -1.1360003,-1.515 -0.735,-0.446 -1.27,-0.936 -1.181,-1.181 0.088,-0.244 0.133,-0.467 0.757,-0.2 z"
     id="path48"
     inkscape:connector-curvature="0"
     style="fill:#292f33" />
  <path
     d="m 24.379926,24.898842 -11,0 c -0.275,0 -0.5,-0.225 -0.5,-0.5 0,-0.275 0.225,-0.5 0.5,-0.5 l 11,0 c 0.275,0 0.5,0.225 0.5,0.5 0,0.275 -0.225,0.5 -0.5,0.5 z"
     id="path50"
     inkscape:connector-curvature="0"
     style="fill:#dd2e44" />
  <path
     d="m 20.570926,10.174842 c -0.579,1.455 -1.125,3.55 -1.381,3.561 -1.473,0.062 -3.079,0.948 -4.006,0.893 -0.672,-0.04 -1.306,-0.167 -1.651,-0.05 -0.552,0.187 -1.159,0.289 -1.351,0.632 -0.195,0.348 0.171,0.657 1.035,0.656 0.635,0 1.045,0.208 1.674,0.06 0.896,-0.21 3.986,0.754 5.665,-0.345 0.566,-0.371 1.441,-1.871 2.525,-4.663 -1.084,-0.477 -2.51,-0.744 -2.51,-0.744 z"
     id="path52"
     inkscape:connector-curvature="0"
     style="fill:#ffdc5d" />
  <circle
     cx="19.379927"
     cy="31.398842"
     r="4.5"
     id="circle54"
     style="fill:#66757f" />
  <circle
     cx="11.379926"
     cy="33.398842"
     r="2.5"
     id="circle56"
     style="fill:#66757f" />
  <circle
     cx="29.879927"
     cy="33.898842"
     r="2"
     id="circle58"
     style="fill:#66757f" />
  <circle
     cx="19.379927"
     cy="31.398842"
     r="2.5"
     id="circle60"
     style="fill:#ccd6dd" />
  <circle
     cx="11.379926"
     cy="33.398842"
     r="1.5"
     id="circle62"
     style="fill:#ccd6dd" />
  <circle
     cx="29.879927"
     cy="33.898842"
     r="1"
     id="circle64"
     style="fill:#292f33" />
  <g
     id="g66"
     style="fill:#292f33"
     transform="translate(-2.1200743,-0.10115832)">
    <circle
       cx="22"
       cy="30.634001"
       r="0.5"
       id="circle68" />
    <circle
       cx="21"
       cy="32.366001"
       r="0.5"
       id="circle70" />
    <circle
       cx="20.634001"
       cy="31"
       r="0.5"
       id="circle72" />
    <circle
       cx="22.365999"
       cy="32"
       r="0.5"
       id="circle74" />
  </g>
  <circle
     cx="11.379926"
     cy="33.398842"
     r="0.75"
     id="circle76"
     style="fill:#292f33" />
  <circle
     cx="29.879927"
     cy="33.898842"
     r="0.5"
     id="circle78"
     style="fill:#66757f" />
</svg>
