<?xml version="1.0" encoding="UTF-8" standalone="no"?>
<svg
   xmlns:dc="http://purl.org/dc/elements/1.1/"
   xmlns:cc="http://creativecommons.org/ns#"
   xmlns:rdf="http://www.w3.org/1999/02/22-rdf-syntax-ns#"
   xmlns:svg="http://www.w3.org/2000/svg"
   xmlns="http://www.w3.org/2000/svg"
   xmlns:sodipodi="http://sodipodi.sourceforge.net/DTD/sodipodi-0.dtd"
   xmlns:inkscape="http://www.inkscape.org/namespaces/inkscape"
   viewBox="0 0 33.819 36"
   id="svg2"
   version="1.1"
   inkscape:version="0.91 r13725"
   sodipodi:docname="1f469-200d-1f466.svg"
   width="33.819"
   height="36">
  <metadata
     id="metadata36">
    <rdf:RDF>
      <cc:Work
         rdf:about="">
        <dc:format>image/svg+xml</dc:format>
        <dc:type
           rdf:resource="http://purl.org/dc/dcmitype/StillImage" />
      </cc:Work>
    </rdf:RDF>
  </metadata>
  <defs
     id="defs34" />
  <sodipodi:namedview
     pagecolor="#ffffff"
     bordercolor="#666666"
     borderopacity="1"
     objecttolerance="10"
     gridtolerance="10"
     guidetolerance="10"
     inkscape:pageopacity="0"
     inkscape:pageshadow="2"
     inkscape:window-width="640"
     inkscape:window-height="480"
     id="namedview32"
     showgrid="false"
     inkscape:zoom="6.5555556"
     inkscape:cx="17"
     inkscape:cy="18"
     inkscape:window-x="0"
     inkscape:window-y="0"
     inkscape:window-maximized="0"
     inkscape:current-layer="svg2" />
  <path
     d="m 2.945,14 c 0.253,3.89 3.521,6.969 7.5,6.969 3.979,0 7.247,-3.079 7.5,-6.969 l 0,-10 -15,0 0,10 z"
     id="path4"
     inkscape:connector-curvature="0"
     style="fill:#ffdc5d" />
  <path
     d="m 14.483,0.808 c -0.333,0 -0.657,0.034 -0.974,0.09 C 12.337,0.328 11.334,0 9.945,0 c -4.907,0 -9,4.093 -9,9 l 0,7 c 0.148,5.223 4.241,9.568 9.5,9.568 5.259,0 9.352,-4.345 9.5,-9.568 l 0,-10 c 0,-3.122 -2.339,-5.192 -5.462,-5.192 z M 17.945,14 c -0.253,3.89 -3.521,6.969 -7.5,6.969 -3.979,0 -7.247,-3.079 -7.5,-6.969 l 0,-4.337 C 8.273,9.508 11.455,7.32 13.182,5.482 13.597,6.957 14.746,9 17.945,9 l 0,5 z"
     id="path6"
     inkscape:connector-curvature="0"
     style="fill:#ffac33" />
  <path
     d="m 17.945,22 -16,0 C 0.166,22 0,23.193 0,24.973 L 0,36 l 20.945,0 0,-11.027 c 0,-1.973 -1,-2.973 -3,-2.973 z"
     id="path8"
     inkscape:connector-curvature="0"
     style="fill:#9268ca" />
  <path
     d="m 15.945,26 1.028,0 0,10 -1.028,0 z m -12,0 1.028,0 0,10 -1.028,0 z"
     id="path10"
     inkscape:connector-curvature="0"
     style="fill:#7450a8" />
  <path
     d="m 7.945,19 0,3 c 0,1.381 1.119,2.5 2.5,2.5 1.381,0 2.5,-1.119 2.5,-2.5 l 0,-3 -5,0 z"
     id="path12"
     inkscape:connector-curvature="0"
     style="fill:#ffdc5d" />
  <path
     d="m 7.214,17.769 6.461,0 c 0,0 -0.808,1.616 -3.231,1.616 -2.423,0 -3.23,-1.616 -3.23,-1.616 z"
     id="path14"
     inkscape:connector-curvature="0"
     style="fill:#da2f47" />
  <path
     d="m 10.945,15.5 -1,0 c -0.276,0 -0.5,-0.224 -0.5,-0.5 0,-0.276 0.224,-0.5 0.5,-0.5 l 1,0 c 0.276,0 0.5,0.224 0.5,0.5 0,0.276 -0.224,0.5 -0.5,0.5 z"
     id="path16"
     inkscape:connector-curvature="0"
     style="fill:#bf6952" />
  <path
     d="m 6.945,13 c -0.553,0 -1,-0.448 -1,-1 l 0,-1 c 0,-0.552 0.447,-1 1,-1 0.553,0 1,0.448 1,1 l 0,1 c 0,0.552 -0.447,1 -1,1 z m 7,0 c -0.553,0 -1,-0.448 -1,-1 l 0,-1 c 0,-0.552 0.447,-1 1,-1 0.553,0 1,0.448 1,1 l 0,1 c 0,0.552 -0.447,1 -1,1 z"
     id="path18"
     inkscape:connector-curvature="0"
     style="fill:#662113" />
  <path
     d="m 27.001,35 0,-4 -4,0 0,4 -1,0 0,1 6,0 0,-1 z"
     id="path20"
     inkscape:connector-curvature="0"
     style="fill:#ffdc5d" />
  <path
     d="m 30.001,33 -3,0 -2,3 8.818,0 C 33.301,34.398 31.66,33 30.001,33 Z m -13.814,3 8.814,0 -2,-3 -2,0 c -0.368,0 -0.719,0.032 -1.055,0.088 -1.941,0.326 -3.301,1.535 -3.759,2.912 z"
     id="path22"
     inkscape:connector-curvature="0"
     style="fill:#88c9f9" />
  <path
     d="M 31.995,26.047 31.993,26 l 0.008,0 0,-6 -3.557,0 c -1.018,-0.574 -2.192,-0.906 -3.446,-0.906 -1.254,0 -2.428,0.332 -3.446,0.906 l -3.551,0 0,6 0.002,0 -0.002,0.047 c 0,0.145 0.013,0.286 0.022,0.428 0.224,3.64 3.257,6.525 6.975,6.525 3.383,0 6.206,-2.387 6.856,-5.558 0.092,-0.451 0.141,-0.917 0.141,-1.395 z"
     id="path24"
     inkscape:connector-curvature="0"
     style="fill:#ffdc5d" />
  <path
     d="M 33.335,22.861 C 33.335,18.519 29.816,15 25.474,15 c -1.245,0 -2.418,0.297 -3.464,0.812 -3.33,0.07 -6.009,2.786 -6.009,6.133 0,1.8 0.786,3.408 2.022,4.53 -0.009,-0.142 -0.022,-0.284 -0.022,-0.428 L 18.003,26 l -0.002,0 0,-3.035 c 4.856,-0.18 7.656,-1.81 9.204,-3.332 1.065,1.257 2.765,2.841 4.796,3.257 l 0,3.11 -0.008,0 0.002,0.047 c 0,0.478 -0.049,0.944 -0.141,1.395 0.928,-1.291 1.481,-2.869 1.481,-4.581 z"
     id="path26"
     inkscape:connector-curvature="0"
     style="fill:#f4900c" />
  <path
     d="m 28.001,30 -6,0 c 0,0 0.583,2 3,2 2.417,0 3,-2 3,-2 z m -3,-0.5 c -0.13,0 -0.26,-0.05 -0.35,-0.15 -0.1,-0.09 -0.15,-0.22 -0.15,-0.35 0,-0.13 0.05,-0.26 0.15,-0.36 0.17,-0.17 0.52,-0.18 0.71,0.01 0.09,0.091 0.14,0.221 0.14,0.351 0,0.13 -0.05,0.26 -0.15,0.35 -0.09,0.099 -0.22,0.149 -0.35,0.149 z"
     id="path28"
     inkscape:connector-curvature="0"
     style="fill:#bf6952" />
  <path
     d="m 22.001,28 c -0.552,0 -1,-0.447 -1,-1 l 0,-1 c 0,-0.553 0.448,-1 1,-1 0.552,0 1,0.447 1,1 l 0,1 c 0,0.553 -0.448,1 -1,1 z m 6,0 c -0.553,0 -1,-0.447 -1,-1 l 0,-1 c 0,-0.553 0.447,-1 1,-1 0.553,0 1,0.447 1,1 l 0,1 c 0,0.553 -0.447,1 -1,1 z"
     id="path30"
     inkscape:connector-curvature="0"
     style="fill:#662113" />
</svg>
