<?xml version="1.0" encoding="UTF-8" standalone="no"?>
<svg
   xmlns:dc="http://purl.org/dc/elements/1.1/"
   xmlns:cc="http://creativecommons.org/ns#"
   xmlns:rdf="http://www.w3.org/1999/02/22-rdf-syntax-ns#"
   xmlns:svg="http://www.w3.org/2000/svg"
   xmlns="http://www.w3.org/2000/svg"
   xmlns:sodipodi="http://sodipodi.sourceforge.net/DTD/sodipodi-0.dtd"
   xmlns:inkscape="http://www.inkscape.org/namespaces/inkscape"
   viewBox="0 0 30 36"
   id="svg2"
   version="1.1"
   inkscape:version="0.91 r13725"
   sodipodi:docname="1f468-1f3ff.svg"
   width="30"
   height="36">
  <metadata
     id="metadata18">
    <rdf:RDF>
      <cc:Work
         rdf:about="">
        <dc:format>image/svg+xml</dc:format>
        <dc:type
           rdf:resource="http://purl.org/dc/dcmitype/StillImage" />
      </cc:Work>
    </rdf:RDF>
  </metadata>
  <defs
     id="defs16" />
  <sodipodi:namedview
     pagecolor="#ffffff"
     bordercolor="#666666"
     borderopacity="1"
     objecttolerance="10"
     gridtolerance="10"
     guidetolerance="10"
     inkscape:pageopacity="0"
     inkscape:pageshadow="2"
     inkscape:window-width="640"
     inkscape:window-height="480"
     id="namedview14"
     showgrid="false"
     inkscape:zoom="6.5555556"
     inkscape:cx="15"
     inkscape:cy="18"
     inkscape:window-x="0"
     inkscape:window-y="0"
     inkscape:window-maximized="0"
     inkscape:current-layer="svg2" />
  <path
     d="M 5,19 C 5,21.209 3.881,23 2.5,23 1.119,23 0,21.209 0,19 0,16.791 1.119,15 2.5,15 3.881,15 5,16.791 5,19 Z m 25,0 c 0,2.209 -1.119,4 -2.5,4 -1.381,0 -2.5,-1.791 -2.5,-4 0,-2.209 1.119,-4 2.5,-4 1.381,0 2.5,1.791 2.5,4 z"
     id="path4"
     inkscape:connector-curvature="0"
     style="fill:#7c533e" />
  <path
     d="M 2,20.562 C 2,12.036 7.82,5.124 15,5.124 c 7.18,0 13,6.912 13,15.438 C 28,29.088 22.18,36 15,36 7.82,36 2,29.088 2,20.562 Z"
     id="path6"
     inkscape:connector-curvature="0"
     style="fill:#7c533e" />
  <path
     d="M 10,20 C 9.448,20 9,19.553 9,19 l 0,-2 c 0,-0.552 0.448,-1 1,-1 0.552,0 1,0.448 1,1 l 0,2 c 0,0.553 -0.448,1 -1,1 z m 10,0 c -0.553,0 -1,-0.447 -1,-1 l 0,-2 c 0,-0.552 0.447,-1 1,-1 0.553,0 1,0.448 1,1 l 0,2 c 0,0.553 -0.447,1 -1,1 z"
     id="path8"
     inkscape:connector-curvature="0" />
  <path
     d="m 16,24 -2,0 c -0.552,0 -1,-0.447 -1,-1 0,-0.553 0.448,-1 1,-1 l 2,0 c 0.553,0 1,0.447 1,1 0,0.553 -0.447,1 -1,1 z"
     id="path10"
     inkscape:connector-curvature="0"
     style="fill:#3d2e24" />
  <path
     d="M 22.274,27.038 18.98,26.097 C 18.983,26.063 19,26.034 19,26 19,25.447 18.553,25 18,25 l -6,0 c -0.552,0 -1,0.447 -1,1 0,0.034 0.016,0.063 0.019,0.097 L 7.725,27.038 C 7.194,27.19 6.887,27.744 7.039,28.274 7.164,28.714 7.564,29 8,29 8.091,29 8.184,28.987 8.275,28.962 l 1.931,-0.552 c -0.216,0.293 -0.274,0.688 -0.1,1.037 0.175,0.351 0.528,0.553 0.895,0.553 0.15,0 0.303,-0.034 0.446,-0.105 l 1.577,-0.788 c 0.036,0.326 0.213,0.631 0.529,0.788 0.143,0.071 0.296,0.105 0.446,0.105 0.367,0 0.72,-0.202 0.896,-0.553 L 15,29.236 l 0.105,0.211 c 0.176,0.351 0.529,0.553 0.896,0.553 0.15,0 0.303,-0.034 0.446,-0.105 0.315,-0.157 0.493,-0.462 0.529,-0.788 l 1.576,0.788 c 0.144,0.071 0.297,0.105 0.447,0.105 0.367,0 0.72,-0.202 0.896,-0.553 0.174,-0.349 0.116,-0.744 -0.1,-1.037 l 1.931,0.552 c 0.091,0.025 0.183,0.038 0.275,0.038 0.434,0 0.835,-0.286 0.961,-0.726 0.151,-0.53 -0.156,-1.084 -0.688,-1.236 z M 15,0 c 8.615,0 14,6.358 14,11.656 0,5.298 -1.077,7.417 -2.154,5.298 l -2.153,-4.238 c 0,0 -6.462,0 -8.615,-2.12 0,0 3.23,6.358 -3.231,0 0,0 1.077,4.239 -5.385,-1.06 0,0 -3.23,2.12 -4.308,7.417 C 2.855,18.423 1,16.954 1,11.656 1,6.357 5.308,0 15,0 Z"
     id="path12"
     inkscape:connector-curvature="0"
     style="fill:#0b0200" />
</svg>
