<?xml version="1.0" encoding="UTF-8" standalone="no"?>
<svg
   xmlns:dc="http://purl.org/dc/elements/1.1/"
   xmlns:cc="http://creativecommons.org/ns#"
   xmlns:rdf="http://www.w3.org/1999/02/22-rdf-syntax-ns#"
   xmlns:svg="http://www.w3.org/2000/svg"
   xmlns="http://www.w3.org/2000/svg"
   xmlns:sodipodi="http://sodipodi.sourceforge.net/DTD/sodipodi-0.dtd"
   xmlns:inkscape="http://www.inkscape.org/namespaces/inkscape"
   viewBox="0 0 36 36"
   id="svg2"
   version="1.1"
   inkscape:version="0.91 r13725"
   sodipodi:docname="1f469-1f3fd-200d-1f33e.svg"
   width="36"
   height="36">
  <metadata
     id="metadata42">
    <rdf:RDF>
      <cc:Work
         rdf:about="">
        <dc:format>image/svg+xml</dc:format>
        <dc:type
           rdf:resource="http://purl.org/dc/dcmitype/StillImage" />
      </cc:Work>
    </rdf:RDF>
  </metadata>
  <defs
     id="defs40" />
  <sodipodi:namedview
     pagecolor="#ffffff"
     bordercolor="#666666"
     borderopacity="1"
     objecttolerance="10"
     gridtolerance="10"
     guidetolerance="10"
     inkscape:pageopacity="0"
     inkscape:pageshadow="2"
     inkscape:window-width="640"
     inkscape:window-height="480"
     id="namedview38"
     showgrid="false"
     inkscape:zoom="6.5555556"
     inkscape:cx="18"
     inkscape:cy="18"
     inkscape:window-x="0"
     inkscape:window-y="0"
     inkscape:window-maximized="0"
     inkscape:current-layer="svg2" />
  <path
     d="M 31,27.575 C 30.041,27.203 29.004,27 28,27 l -12,0 c -1.004,0 -2.041,0.203 -3,0.575 -2.207,0.855 -4,2.614 -4,4.925 l 0,3.5 26,0 0,-3.5 c 0,-2.311 -1.792,-4.07 -4,-4.925 z"
     id="path4"
     inkscape:connector-curvature="0"
     style="fill:#77b255" />
  <path
     d="m 28,27 0,7.5 -12,0 0,-7.5 c -1.004,0 -2.041,0.203 -3,0.575 L 13,36 31,36 31,27.575 C 30.041,27.203 29.004,27 28,27 Z"
     id="path6"
     inkscape:connector-curvature="0"
     style="fill:#226699" />
  <path
     d="m 18,27 8,0 -4,7 -4,-7"
     id="path8"
     inkscape:connector-curvature="0"
     style="fill:#3e721d" />
  <path
     d="m 21.945,5.069 c 4.105,0 10.947,2.053 10.947,10.947 0,8.896 0,10.948 -2.053,10.948 -2.053,0 -4.79,-2.053 -8.895,-2.053 -4.105,0 -6.785,2.053 -8.895,2.053 -2.287,0 -2.053,-8.211 -2.053,-10.948 C 10.997,7.122 17.84,5.069 21.945,5.069"
     id="path10"
     inkscape:connector-curvature="0"
     style="fill:#963b22" />
  <path
     d="m 18.328,27.018 c 1.466,1.065 2.964,0.98 3.672,0.98 0.708,0 2.194,0.085 3.66,-0.98 l 0,-3.203 -7.332,0 0,3.203 z"
     id="path12"
     inkscape:connector-curvature="0"
     style="fill:#d5ab88" />
  <path
     d="m 18.322,25.179 c 1.022,1.155 2.29,1.468 3.668,1.468 1.379,0 2.647,-0.312 3.67,-1.468 l 0,-2.936 -7.338,0 0,2.936 z"
     id="path14"
     inkscape:connector-curvature="0"
     style="fill:#cc9b7a" />
  <path
     d="m 13.734,15.718 c 0,-5.834 3.676,-10.563 8.211,-10.563 4.533,0 8.209,4.729 8.209,10.563 0,5.833 -3.676,10.285 -8.209,10.285 -4.535,0 -8.211,-4.452 -8.211,-10.285"
     id="path16"
     inkscape:connector-curvature="0"
     style="fill:#d5ab88" />
  <path
     d="m 21.945,23.543 c -1.606,0 -2.447,-0.794 -2.537,-0.885 -0.268,-0.267 -0.268,-0.7 0,-0.967 0.266,-0.265 0.692,-0.267 0.961,-0.007 0.035,0.032 0.551,0.491 1.576,0.491 1.038,0 1.555,-0.473 1.576,-0.492 0.273,-0.256 0.703,-0.248 0.963,0.02 0.26,0.269 0.26,0.691 -0.004,0.955 -0.089,0.091 -0.929,0.885 -2.535,0.885"
     id="path18"
     inkscape:connector-curvature="0"
     style="fill:#df1f32" />
  <path
     d="m 11.725,19 c -0.021,-1 -0.044,-0.224 -0.044,-0.465 0,-3.422 2.053,0.494 2.053,-1.943 0,-2.439 1.368,-2.683 2.736,-4.051 0.685,-0.685 2.053,-2.026 2.053,-2.026 0,0 3.421,2.067 6.158,2.067 2.736,0 5.474,1.375 5.474,4.112 0,2.736 2.053,-1.584 2.053,1.837 0,0.244 -0.022,-0.531 -0.04,0.469 l 0.719,0 c 0.006,-2 0.006,-1.924 0.006,-3.202 0,-8.895 -6.842,-10.729 -10.948,-10.729 -4.104,0 -10.947,1.778 -10.947,10.674 0,0.793 -0.02,1.257 0.008,3.257 l 0.719,0 z"
     id="path20"
     inkscape:connector-curvature="0"
     style="fill:#963b22" />
  <path
     d="m 18.608,17.887 c -0.465,0 -0.846,-0.381 -0.846,-0.847 l 0,-0.845 c 0,-0.465 0.381,-0.846 0.846,-0.846 0.466,0 0.847,0.381 0.847,0.846 l 0,0.845 c 0,0.466 -0.381,0.847 -0.847,0.847 m 6.765,0 c -0.465,0 -0.846,-0.381 -0.846,-0.847 l 0,-0.845 c 0,-0.465 0.381,-0.846 0.846,-0.846 0.465,0 0.846,0.381 0.846,0.846 l 0,0.845 c 0,0.466 -0.381,0.847 -0.846,0.847"
     id="path22"
     inkscape:connector-curvature="0"
     style="fill:#662113" />
  <path
     d="m 22.836,20.5 -1.69,0 c -0.233,0 -0.423,-0.19 -0.423,-0.423 l 0,-0.153 c 0,-0.233 0.189,-0.424 0.423,-0.424 l 1.69,0 c 0.233,0 0.424,0.19 0.424,0.424 l 0,0.153 c 0,0.233 -0.191,0.423 -0.424,0.423"
     id="path24"
     inkscape:connector-curvature="0"
     style="fill:#c1694f" />
  <path
     d="m 15.444,15.936 c 0,1.448 -0.734,2.622 -1.639,2.622 -0.905,0 -1.639,-1.174 -1.639,-2.622 0,-1.448 0.734,-2.623 1.639,-2.623 0.905,-0.001 1.639,1.174 1.639,2.623 m 16.389,0 c 0,1.448 -0.733,2.622 -1.639,2.622 -0.905,0 -1.639,-1.174 -1.639,-2.622 0,-1.448 0.733,-2.623 1.639,-2.623 0.906,-0.001 1.639,1.174 1.639,2.623"
     id="path26"
     inkscape:connector-curvature="0"
     style="fill:#d5ab88" />
  <path
     d="M 7,31.75 C 7,31.06 6.44,30.5 5.75,30.5 5.06,30.5 4.5,31.06 4.5,31.75 L 4.5,36 7,36 7,31.75 Z"
     id="path28"
     inkscape:connector-curvature="0"
     style="fill:#c1694f" />
  <path
     d="M 10.75,13.5 C 10.336,13.5 10,13.836 10,14.25 l 0,8.5 0.002,0.01 C 9.997,24.848 8.486,26.573 6.5,26.928 L 6.5,14.25 C 6.5,13.836 6.164,13.5 5.75,13.5 5.336,13.5 5,13.836 5,14.25 L 5,26.927 C 3.014,26.572 1.503,24.848 1.498,22.759 l 0.002,-0.01 0,-8.5 C 1.5,13.835 1.164,13.499 0.75,13.499 0.336,13.499 0,13.836 0,14.25 l 0,8.5 c 0,2.921 2.18,5.327 5,5.696 L 5,31 c 0,0.414 0.336,0.75 0.75,0.75 0.414,0 0.75,-0.336 0.75,-0.75 l 0,-2.554 c 2.82,-0.368 5,-2.775 5,-5.696 l 0,-8.5 c 0,-0.414 -0.336,-0.75 -0.75,-0.75 z"
     id="path30"
     inkscape:connector-curvature="0"
     style="fill:#66757f" />
  <path
     d="M 30,8.8 C 30,10.12 26.908,11 22,11 17.091,11 14,10.12 14,8.8 14,5.253 18,0 19.333,0 20.667,0 21.556,1.76 22,1.76 22.444,1.76 23.333,0 24.667,0 26,0 30,5.253 30,8.8 Z"
     id="path32"
     inkscape:connector-curvature="0"
     style="fill:#c1694f" />
  <path
     d="M 36,8 C 36,9.657 32.5,14 22,14 11.5,14 8,9.657 8,8 8,6.343 14.82,7 22,7 29.18,7 36,6.343 36,8 Z"
     id="path34"
     inkscape:connector-curvature="0"
     style="fill:#c1694f" />
  <path
     d="M 30,8.8 C 30,10.12 26.908,11 22,11 17.091,11 14,10.12 14,8.8 14,8.234 14.102,7.625 14.279,7 16.667,9 27.333,9 29.722,7.004 29.897,7.627 30,8.235 30,8.8 Z"
     id="path36"
     inkscape:connector-curvature="0"
     style="fill:#292f33" />
</svg>
