<?xml version="1.0" encoding="UTF-8" standalone="no"?>
<svg
   xmlns:dc="http://purl.org/dc/elements/1.1/"
   xmlns:cc="http://creativecommons.org/ns#"
   xmlns:rdf="http://www.w3.org/1999/02/22-rdf-syntax-ns#"
   xmlns:svg="http://www.w3.org/2000/svg"
   xmlns="http://www.w3.org/2000/svg"
   xmlns:sodipodi="http://sodipodi.sourceforge.net/DTD/sodipodi-0.dtd"
   xmlns:inkscape="http://www.inkscape.org/namespaces/inkscape"
   viewBox="0 0 36 36"
   id="svg2"
   version="1.1"
   inkscape:version="0.91 r13725"
   sodipodi:docname="1f469-200d-2764-fe0f-200d-1f48b-200d-1f469.svg"
   width="36"
   height="36">
  <metadata
     id="metadata22">
    <rdf:RDF>
      <cc:Work
         rdf:about="">
        <dc:format>image/svg+xml</dc:format>
        <dc:type
           rdf:resource="http://purl.org/dc/dcmitype/StillImage" />
      </cc:Work>
    </rdf:RDF>
  </metadata>
  <defs
     id="defs20" />
  <sodipodi:namedview
     pagecolor="#ffffff"
     bordercolor="#666666"
     borderopacity="1"
     objecttolerance="10"
     gridtolerance="10"
     guidetolerance="10"
     inkscape:pageopacity="0"
     inkscape:pageshadow="2"
     inkscape:window-width="640"
     inkscape:window-height="480"
     id="namedview18"
     showgrid="false"
     inkscape:zoom="6.5555556"
     inkscape:cx="18"
     inkscape:cy="18"
     inkscape:window-x="0"
     inkscape:window-y="0"
     inkscape:window-maximized="0"
     inkscape:current-layer="svg2" />
  <path
     d="m 0,7.139 c 6.911,-1.589 13.967,2.471 15.976,9.364 0.532,1.825 0.669,3.712 0.407,5.609 -0.028,0.197 -0.168,0.357 -0.356,0.412 l -0.044,0.01 c 0.009,2.306 0.219,6.623 2.006,11.744 0.197,0.565 0.415,1.139 0.653,1.722 L 0,36 0,7.139 Z"
     id="path4"
     inkscape:connector-curvature="0"
     style="fill:#ffac33" />
  <path
     d="m 3.03,14.375 c 6.583,-0.698 10.13,2.858 12.403,7.875 0.041,0.09 0.113,0.156 0.192,0.207 -1.222,5.332 -5.986,9.314 -11.687,9.314 -1.381,0 -2.702,-0.245 -3.937,-0.675 l 0,-12.417 C 1.588,17.773 3.03,16.58 3.03,14.375 Z"
     id="path6"
     inkscape:connector-curvature="0"
     style="fill:#ffdc5d" />
  <path
     d="m 3.937,22.271 c 1.978,0 2.5,-1.636 2.5,-2.5 0,-0.276 -0.224,-0.5 -0.5,-0.5 -0.275,0 -0.499,0.223 -0.5,0.497 -0.003,0.252 -0.089,1.503 -1.5,1.503 -0.276,0 -0.5,0.224 -0.5,0.5 0,0.276 0.224,0.5 0.5,0.5 z m 5,0 c 1.977,0 2.5,-1.636 2.5,-2.5 0,-0.276 -0.224,-0.5 -0.5,-0.5 -0.275,0 -0.499,0.223 -0.5,0.497 -0.003,0.252 -0.089,1.503 -1.5,1.503 -0.276,0 -0.5,0.224 -0.5,0.5 0,0.276 0.224,0.5 0.5,0.5 z m 0,7 c 0.602,0 1.5,-0.399 1.5,-1.5 0,-0.438 -0.143,-0.765 -0.352,-1 0.209,-0.235 0.352,-0.562 0.352,-1 0,-1.101 -0.898,-1.5 -1.5,-1.5 -0.276,0 -0.5,0.224 -0.5,0.5 0,0.274 0.222,0.497 0.495,0.5 0.231,0.006 0.505,0.098 0.505,0.5 0,0.402 -0.274,0.494 -0.505,0.5 -0.273,0.003 -0.495,0.226 -0.495,0.5 0,0.272 0.218,0.494 0.489,0.5 l 0.011,0 c 0.225,0.006 0.5,0.098 0.5,0.5 0,0.402 -0.275,0.494 -0.506,0.5 -0.273,0.007 -0.494,0.232 -0.49,0.506 0.003,0.274 0.223,0.494 0.496,0.494 z"
     id="path8"
     inkscape:connector-curvature="0"
     style="fill:#642116" />
  <path
     d="M 36,7.139 C 29.089,5.55 22.033,9.61 20.024,16.503 c -0.532,1.825 -0.669,3.712 -0.407,5.609 0.028,0.197 0.168,0.357 0.356,0.412 l 0.044,0.01 C 20.008,24.84 19.798,29.157 18.011,34.278 17.814,34.843 17.596,35.417 17.358,36 L 36,36 36,7.139 Z"
     id="path10"
     inkscape:connector-curvature="0"
     style="fill:#f18f26" />
  <path
     d="m 32.97,14.375 c -6.583,-0.698 -10.13,2.858 -12.403,7.875 -0.041,0.09 -0.113,0.156 -0.192,0.207 1.222,5.332 5.986,9.314 11.687,9.314 1.381,0 2.702,-0.245 3.937,-0.675 l 0,-12.417 C 34.412,17.773 32.97,16.58 32.97,14.375 Z"
     id="path12"
     inkscape:connector-curvature="0"
     style="fill:#ffdc5d" />
  <path
     d="m 32.063,22.271 c -1.978,0 -2.5,-1.636 -2.5,-2.5 0,-0.276 0.224,-0.5 0.5,-0.5 0.275,0 0.499,0.223 0.5,0.497 0.003,0.252 0.089,1.503 1.5,1.503 0.276,0 0.5,0.224 0.5,0.5 0,0.276 -0.224,0.5 -0.5,0.5 z m -5,0 c -1.977,0 -2.5,-1.636 -2.5,-2.5 0,-0.276 0.224,-0.5 0.5,-0.5 0.275,0 0.499,0.223 0.5,0.497 0.003,0.252 0.089,1.503 1.5,1.503 0.276,0 0.5,0.224 0.5,0.5 0,0.276 -0.224,0.5 -0.5,0.5 z m 0,7 c -0.602,0 -1.5,-0.399 -1.5,-1.5 0,-0.438 0.143,-0.765 0.352,-1 -0.209,-0.235 -0.352,-0.562 -0.352,-1 0,-1.101 0.898,-1.5 1.5,-1.5 0.276,0 0.5,0.224 0.5,0.5 0,0.274 -0.222,0.497 -0.495,0.5 -0.23,0.006 -0.505,0.098 -0.505,0.5 0,0.402 0.274,0.494 0.505,0.5 0.273,0.003 0.495,0.226 0.495,0.5 0,0.272 -0.218,0.494 -0.489,0.5 l -0.011,0 c -0.225,0.006 -0.5,0.098 -0.5,0.5 0,0.402 0.275,0.494 0.506,0.5 0.273,0.007 0.494,0.232 0.49,0.506 -0.003,0.274 -0.223,0.494 -0.496,0.494 z"
     id="path14"
     inkscape:connector-curvature="0"
     style="fill:#642116" />
  <path
     d="M 26.539,4.711 C 26.539,2.109 24.429,0 21.828,0 20.249,0 18.855,0.78 18,1.971 17.144,0.78 15.751,0 14.172,0 11.571,0 9.461,2.109 9.461,4.711 c 0,0.369 0.047,0.727 0.127,1.07 0.654,4.065 5.173,8.353 8.411,9.529 3.238,-1.177 7.758,-5.465 8.412,-9.528 0.081,-0.345 0.128,-0.702 0.128,-1.071 z"
     id="path16"
     inkscape:connector-curvature="0"
     style="fill:#dd2e44" />
</svg>
