<?xml version="1.0" encoding="UTF-8" standalone="no"?>
<svg
   xmlns:dc="http://purl.org/dc/elements/1.1/"
   xmlns:cc="http://creativecommons.org/ns#"
   xmlns:rdf="http://www.w3.org/1999/02/22-rdf-syntax-ns#"
   xmlns:svg="http://www.w3.org/2000/svg"
   xmlns="http://www.w3.org/2000/svg"
   xmlns:sodipodi="http://sodipodi.sourceforge.net/DTD/sodipodi-0.dtd"
   xmlns:inkscape="http://www.inkscape.org/namespaces/inkscape"
   viewBox="0 0 36 34.52"
   id="svg2"
   version="1.1"
   inkscape:version="0.91 r13725"
   sodipodi:docname="1f468-1f3fb-200d-1f52c.svg"
   width="36"
   height="34.52">
  <metadata
     id="metadata46">
    <rdf:RDF>
      <cc:Work
         rdf:about="">
        <dc:format>image/svg+xml</dc:format>
        <dc:type
           rdf:resource="http://purl.org/dc/dcmitype/StillImage" />
      </cc:Work>
    </rdf:RDF>
  </metadata>
  <defs
     id="defs44" />
  <sodipodi:namedview
     pagecolor="#ffffff"
     bordercolor="#666666"
     borderopacity="1"
     objecttolerance="10"
     gridtolerance="10"
     guidetolerance="10"
     inkscape:pageopacity="0"
     inkscape:pageshadow="2"
     inkscape:window-width="640"
     inkscape:window-height="480"
     id="namedview42"
     showgrid="false"
     inkscape:zoom="6.5555556"
     inkscape:cx="18"
     inkscape:cy="18"
     inkscape:window-x="0"
     inkscape:window-y="0"
     inkscape:window-maximized="0"
     inkscape:current-layer="svg2" />
  <path
     d="m 36,34.52 0,-4 c 0,-3.314 -2.686,-6 -6,-6 l -16,0 c -3.313,0 -6,2.686 -6,6 l 0,4 28,0 z"
     id="path4"
     inkscape:connector-curvature="0"
     style="fill:#ccd6dd" />
  <path
     d="m 18,25.52 4,4 4,-4 0,-5 -8,0 z"
     id="path6"
     inkscape:connector-curvature="0"
     style="fill:#f7dece" />
  <path
     d="m 18,22.52 c 1.216,1.374 2.355,1.719 3.996,1.719 1.639,0 2.787,-0.346 4.004,-1.719 l 0,-4 -8,0 0,4 z"
     id="path8"
     inkscape:connector-curvature="0"
     style="fill:#eec2ad" />
  <path
     d="m 15.444,12.456 c 0,1.448 -0.734,2.622 -1.639,2.622 -0.905,0 -1.639,-1.174 -1.639,-2.622 0,-1.448 0.734,-2.623 1.639,-2.623 0.905,-10e-4 1.639,1.174 1.639,2.623 m 16.389,0 c 0,1.448 -0.733,2.622 -1.639,2.622 -0.905,0 -1.639,-1.174 -1.639,-2.622 0,-1.448 0.733,-2.623 1.639,-2.623 0.906,-10e-4 1.639,1.174 1.639,2.623"
     id="path10"
     inkscape:connector-curvature="0"
     style="fill:#f7dece" />
  <path
     d="m 13.477,13.48 c 0,-5.589 3.816,-10.121 8.523,-10.121 4.707,0 8.522,4.532 8.522,10.121 0,5.589 -3.815,10.121 -8.522,10.121 C 17.294,23.6 13.477,19.069 13.477,13.48"
     id="path12"
     inkscape:connector-curvature="0"
     style="fill:#f7dece" />
  <path
     d="m 22,20.322 c -2.754,0 -3.6,-0.705 -3.741,-0.848 -0.256,-0.256 -0.256,-0.671 0,-0.927 0.248,-0.248 0.646,-0.255 0.902,-0.023 0.052,0.037 0.721,0.487 2.839,0.487 2.2,0 2.836,-0.485 2.842,-0.49 0.256,-0.255 0.657,-0.243 0.913,0.015 0.256,0.256 0.242,0.683 -0.014,0.938 C 25.6,19.617 24.754,20.322 22,20.322"
     id="path14"
     inkscape:connector-curvature="0"
     style="fill:#c1694f" />
  <path
     d="m 22,0 c 5.648,0 9.178,4.168 9.178,7.641 0,3.473 -0.706,4.863 -1.412,3.473 L 28.354,8.336 c 0,0 -4.235,0 -5.647,-1.39 0,0 2.118,4.168 -2.118,0 0,0 0.706,2.779 -3.53,-0.694 0,0 -2.118,1.389 -2.824,4.862 -0.196,0.964 -1.412,0 -1.412,-3.473 C 12.822,4.168 15.646,0 22,0"
     id="path16"
     inkscape:connector-curvature="0"
     style="fill:#292f33" />
  <path
     d="m 18,13.52 c -0.55,0 -1,-0.45 -1,-1 l 0,-1 c 0,-0.55 0.45,-1 1,-1 0.55,0 1,0.45 1,1 l 0,1 c 0,0.55 -0.45,1 -1,1 m 8,0 c -0.55,0 -1,-0.45 -1,-1 l 0,-1 c 0,-0.55 0.45,-1 1,-1 0.55,0 1,0.45 1,1 l 0,1 c 0,0.55 -0.45,1 -1,1"
     id="path18"
     inkscape:connector-curvature="0"
     style="fill:#662113" />
  <path
     d="m 22.75,16.27 -1.5,0 c -0.413,0 -0.75,-0.337 -0.75,-0.75 0,-0.413 0.337,-0.75 0.75,-0.75 l 1.5,0 c 0.413,0 0.75,0.337 0.75,0.75 0,0.413 -0.337,0.75 -0.75,0.75"
     id="path20"
     inkscape:connector-curvature="0"
     style="fill:#c1694f" />
  <path
     d="M 19.059,34.52 18,25.301 c 0,0 1.41,1.645 4,1.645 2.59,0 4.219,-1.645 4.219,-1.645 l -1.223,9.219 -5.937,0 z"
     id="path22"
     inkscape:connector-curvature="0"
     style="fill:#66757f" />
  <path
     d="M 18.081,23.77 C 18.647,24.336 21,34.52 21,34.52 l -3.156,0 -1.704,-2.562 1.704,-2.835 -2.017,-0.634 0.254,-3.957 c 0,0 1.729,-1.033 2,-0.762 m 7.838,0 C 25.353,24.336 23,34.52 23,34.52 l 3.156,0 1.704,-2.562 -1.704,-2.835 2.017,-0.634 -0.254,-3.957 c 0,0 -1.729,-1.033 -2,-0.762"
     id="path24"
     inkscape:connector-curvature="0"
     style="fill:#f5f8fa" />
  <path
     d="m 14.753,9.27 14.5,0 0,5.25 -14.5,0 z"
     id="path26"
     inkscape:connector-curvature="0"
     style="opacity:0.4;fill:#ffffff" />
  <path
     d="m 29,8.52 -14,0 c -1,0 -1,1 -1,1 l 0,4 c 0,1.461 2.333,2 4,2 1.667,0 2.599,-1 4,-1 1.401,0 2.333,1 4,1 1.667,0 4,-0.539 4,-2 l 0,-4 c 0,-1 -1,-1 -1,-1 z m 0,4 c 0,1.325 -0.852,2 -3,2 -1.539,0 -2.804,-1 -4,-1 -1.196,0 -2.461,1 -4,1 -2.148,0 -3,-0.675 -3,-2 l 0,-3 14,0 0,3 z"
     id="path28"
     inkscape:connector-curvature="0"
     style="fill:#f5f8fa" />
  <circle
     cx="7"
     cy="9.5200005"
     r="1"
     id="circle30"
     style="fill:#9266cc" />
  <circle
     cx="9"
     cy="14.52"
     r="1"
     id="circle32"
     style="fill:#9266cc" />
  <circle
     cx="5.5"
     cy="13.02"
     r="1.5"
     id="circle34"
     style="fill:#9266cc" />
  <path
     d="m 10,16.52 -5,0 c 0,0 -2,0 -2,2 0,2 2,2 2,2 l 0,5 -4,5 c -0.883,1.104 -1,1.821 -1,2 0,2 2,2 2,2 l 11,0 c 0,0 2,0 2,-2 0,-0.134 0.153,-0.559 -1,-2 l -4,-5 0,-5 c 0,0 2,0 2,-2 0,-2 -2,-2 -2,-2 z"
     id="path36"
     inkscape:connector-curvature="0"
     style="fill:#a8bccc" />
  <path
     d="m 9,25.871 0,-6.351 1,0 c 0.449,-0.012 1,-0.194 1,-1 0,-0.803 -0.547,-0.987 -1.008,-1 L 5,17.52 c -0.45,0.012 -1,0.194 -1,1 0,0.806 0.55,0.988 1.012,1 L 5.987,19.544 6,25.871 4.106,28.239 7.5,31.739 10.894,28.239 9,25.871 Z"
     id="path38"
     inkscape:connector-curvature="0"
     style="fill:#e1e8ed" />
  <path
     d="M 0.999,32.554 C 1,33.326 1.55,33.508 2.012,33.52 l 10.988,0 c 0.449,-0.012 1,-0.194 1,-1 l 0,-0.041 0.006,-0.082 c 0,-0.003 -0.055,-0.337 -0.787,-1.252 l -2.325,-2.906 -6.788,0 -2.325,2.906 c -0.719,0.899 -0.782,1.404 -0.782,1.409 z"
     id="path40"
     inkscape:connector-curvature="0"
     style="fill:#9266cc" />
</svg>
