<?xml version="1.0" encoding="UTF-8" standalone="no"?>
<svg
   xmlns:dc="http://purl.org/dc/elements/1.1/"
   xmlns:cc="http://creativecommons.org/ns#"
   xmlns:rdf="http://www.w3.org/1999/02/22-rdf-syntax-ns#"
   xmlns:svg="http://www.w3.org/2000/svg"
   xmlns="http://www.w3.org/2000/svg"
   xmlns:sodipodi="http://sodipodi.sourceforge.net/DTD/sodipodi-0.dtd"
   xmlns:inkscape="http://www.inkscape.org/namespaces/inkscape"
   viewBox="0 0 35.01984 35.117001"
   id="svg2"
   version="1.1"
   inkscape:version="0.91 r13725"
   sodipodi:docname="1f468-1f3fc-200d-1f3a8.svg"
   width="35.01984"
   height="35.117001">
  <metadata
     id="metadata36">
    <rdf:RDF>
      <cc:Work
         rdf:about="">
        <dc:format>image/svg+xml</dc:format>
        <dc:type
           rdf:resource="http://purl.org/dc/dcmitype/StillImage" />
      </cc:Work>
    </rdf:RDF>
  </metadata>
  <defs
     id="defs34" />
  <sodipodi:namedview
     pagecolor="#ffffff"
     bordercolor="#666666"
     borderopacity="1"
     objecttolerance="10"
     gridtolerance="10"
     guidetolerance="10"
     inkscape:pageopacity="0"
     inkscape:pageshadow="2"
     inkscape:window-width="640"
     inkscape:window-height="480"
     id="namedview32"
     showgrid="false"
     inkscape:zoom="6.5555556"
     inkscape:cx="17.019842"
     inkscape:cy="18"
     inkscape:window-x="0"
     inkscape:window-y="0"
     inkscape:window-maximized="0"
     inkscape:current-layer="svg2" />
  <path
     d="m 29.019842,27.117 -3.641,0 0,-3.71 -8.72,0 0,3.71 -3.639,0 c -3.3129999,0 -5.9999999,2.686 -5.9999999,6 l 0,2 27.9999999,0 0,-2 c 0,-3.314 -2.685,-6 -6,-6 z"
     id="path4"
     inkscape:connector-curvature="0"
     style="fill:#77b255" />
  <path
     d="m 16.651842,25.09 c 1.216,1.374 2.724,1.746 4.364,1.746 1.639,0 3.146,-0.373 4.363,-1.746 l 0,-3.491 -8.728,0 0,3.491 z"
     id="path6"
     inkscape:connector-curvature="0"
     style="fill:#e2c196" />
  <path
     d="m 14.463842,15.053 c 0,1.448 -0.734,2.622 -1.639,2.622 -0.905,0 -1.639,-1.174 -1.639,-2.622 0,-1.448 0.734,-2.623 1.639,-2.623 0.905,-10e-4 1.639,1.174 1.639,2.623 m 16.389,0 c 0,1.448 -0.733,2.622 -1.639,2.622 -0.905,0 -1.639,-1.174 -1.639,-2.622 0,-1.448 0.733,-2.623 1.639,-2.623 0.906,-10e-4 1.639,1.174 1.639,2.623"
     id="path8"
     inkscape:connector-curvature="0"
     style="fill:#f3d2a2" />
  <path
     d="m 12.496842,16.076 c 0,-5.589 3.816,-10.121 8.523,-10.121 4.707,0 8.522,4.532 8.522,10.121 0,5.589 -3.815,10.121 -8.522,10.121 -4.706,0 -8.523,-4.531 -8.523,-10.121"
     id="path10"
     inkscape:connector-curvature="0"
     style="fill:#f3d2a2" />
  <path
     d="m 25.544842,20.463 -1.268,-0.274 c -0.404,-0.094 -1.173,-0.072 -1.535,-0.072 l -3.689,0 c -0.362,0 -1.131,-0.022 -1.536,0.071 l -1.266,0.274 c -0.348,0.101 -0.55,0.393 -0.45,0.74 0.082,0.288 0.345,0.441 0.63,0.441 0.059,0 0.12,-0.026 0.18,-0.042 l 1.267,-0.371 c -0.143,0.191 -0.181,0.446 -0.066,0.676 0.115,0.228 0.347,0.36 0.587,0.36 0.099,0 0.199,-0.024 0.293,-0.071 l 1.034,-0.518 c 0.022,0.215 0.139,0.414 0.346,0.518 0.094,0.046 0.195,0.069 0.293,0.069 0.241,0 0.473,-0.134 0.587,-0.363 l 0.068,-0.138 -0.053,0.138 c 0.114,0.229 0.224,0.363 0.465,0.363 0.098,0 0.198,-0.023 0.292,-0.069 0.207,-0.104 0.323,-0.303 0.347,-0.518 l 1.033,0.518 c 0.095,0.047 0.195,0.071 0.293,0.071 0.241,0 0.472,-0.132 0.587,-0.36 0.114,-0.229 0.076,-0.484 -0.066,-0.676 l 1.266,0.371 c 0.059,0.016 0.121,0.042 0.181,0.042 0.285,0 0.547,-0.152 0.63,-0.441 0.099,-0.347 -0.102,-0.639 -0.45,-0.739 z m -4.525,-17.866 c 5.648,0 9.178,4.168 9.178,7.641 0,3.473 -0.706,4.863 -1.412,3.473 l -1.412,-2.778 c 0,0 -4.235,0 -5.647,-1.39 0,0 2.118,4.168 -2.118,0 0,0 0.706,2.779 -3.53,-0.694 0,0 -2.118,1.389 -2.824,4.862 -0.196,0.964 -1.412,0 -1.412,-3.473 -10e-4,-3.473 2.823,-7.641 9.177,-7.641"
     id="path12"
     inkscape:connector-curvature="0"
     style="fill:#ffe51e" />
  <path
     d="m 17.019842,16.117 c -0.55,0 -1,-0.45 -1,-1 l 0,-1 c 0,-0.55 0.45,-1 1,-1 0.55,0 1,0.45 1,1 l 0,1 c 0,0.55 -0.45,1 -1,1 m 8,0 c -0.55,0 -1,-0.45 -1,-1 l 0,-1 c 0,-0.55 0.45,-1 1,-1 0.55,0 1,0.45 1,1 l 0,1 c 0,0.55 -0.45,1 -1,1"
     id="path14"
     inkscape:connector-curvature="0"
     style="fill:#662113" />
  <path
     d="m 21.769842,18.867 -1.5,0 c -0.413,0 -0.75,-0.337 -0.75,-0.75 0,-0.413 0.337,-0.75 0.75,-0.75 l 1.5,0 c 0.413,0 0.75,0.337 0.75,0.75 0,0.413 -0.337,0.75 -0.75,0.75"
     id="path16"
     inkscape:connector-curvature="0"
     style="fill:#c1694f" />
  <path
     d="m 32.034842,5.502 c -0.439,-2.026 -3.627,-3.888 -8.267,-4.105 0.346,-0.222 0.672,-0.402 0.924,-0.48 0.72,-0.224 -0.218,-0.917 -0.917,-0.917 0,0 -1.092,0.505 -1.93,1.41 -6.756,0.348 -11.9929999,4.051 -11.825,5.009 0.175,1.004 1.232,-0.01 1.273,0.845 0.04,0.855 0.938,0.938 0.938,0.938 0,0 2.44,-0.401 7.949,0.051 5.51,0.451 8.503,0.507 9.919,0.888 0.872,0.235 1.006,-1.106 1.006,-1.106 0,0 1.44,-0.168 0.93,-2.533 z"
     id="path18"
     inkscape:connector-curvature="0"
     style="fill:#66757f" />
  <path
     d="m 26.489842,35.117 c -0.279,-3.867 -4.091,-7.954 -9.64,-9.879 -6.702,-2.326 -13.3829999,-0.614 -14.9229999,3.823 -0.671,1.936 -0.252,4.071 0.989,6.056 l 23.5739999,0 z"
     id="path20"
     inkscape:connector-curvature="0"
     style="fill:#d99e82" />
  <path
     d="m 18.801842,30.499 c -0.3,0.862 0.363,1.876 1.48,2.264 1.117,0.387 2.266,0.002 2.564,-0.861 0.3,-0.861 -0.363,-1.876 -1.48,-2.263 -1.117,-0.388 -2.265,-0.003 -2.564,0.86"
     id="path22"
     inkscape:connector-curvature="0"
     style="fill:#5c913b" />
  <path
     d="m 4.4208421,32.118 c -0.299,0.863 0.364,1.876 1.481,2.264 1.117,0.388 2.265,0.003 2.564,-0.86 0.3,-0.862 -0.363,-1.876 -1.48,-2.264 -1.117,-0.388 -2.266,-0.003 -2.565,0.86"
     id="path24"
     inkscape:connector-curvature="0"
     style="fill:#226699" />
  <path
     d="m 6.2688421,27.138 c -0.299,0.862 0.364,1.876 1.481,2.264 1.116,0.387 2.2649999,0.002 2.5639999,-0.861 0.3,-0.861 -0.3639999,-1.876 -1.4799999,-2.263 -1.117,-0.389 -2.266,-0.004 -2.565,0.86"
     id="path26"
     inkscape:connector-curvature="0"
     style="fill:#dd2e44" />
  <path
     d="m 13.295842,27.122 c -0.272,0.872 0.423,1.864 1.552,2.216 1.128,0.353 2.265,-0.069 2.536,-0.94 0.271,-0.872 -0.424,-1.864 -1.552,-2.216 -1.128,-0.353 -2.264,0.069 -2.536,0.94"
     id="path28"
     inkscape:connector-curvature="0"
     style="fill:#ffcc4d" />
  <path
     d="m 0.01984207,29.117 c 0.078,-1.208 1.39400003,-3.184 3.00000003,-3 1.665,0.19 0.129,3.129 0,4 -0.129,0.871 0.144,2.938 -1,3 -1.54600003,0.084 -2.14000003,-1.814 -2.00000003,-4"
     id="path30"
     inkscape:connector-curvature="0"
     style="fill:#f3d2a2" />
</svg>
