<?xml version="1.0" encoding="UTF-8" standalone="no"?>
<svg
   xmlns:dc="http://purl.org/dc/elements/1.1/"
   xmlns:cc="http://creativecommons.org/ns#"
   xmlns:rdf="http://www.w3.org/1999/02/22-rdf-syntax-ns#"
   xmlns:svg="http://www.w3.org/2000/svg"
   xmlns="http://www.w3.org/2000/svg"
   xmlns:sodipodi="http://sodipodi.sourceforge.net/DTD/sodipodi-0.dtd"
   xmlns:inkscape="http://www.inkscape.org/namespaces/inkscape"
   viewBox="0 0 34 36"
   id="svg2"
   version="1.1"
   inkscape:version="0.91 r13725"
   sodipodi:docname="1f469-200d-1f373.svg"
   width="34"
   height="36">
  <metadata
     id="metadata42">
    <rdf:RDF>
      <cc:Work
         rdf:about="">
        <dc:format>image/svg+xml</dc:format>
        <dc:type
           rdf:resource="http://purl.org/dc/dcmitype/StillImage" />
      </cc:Work>
    </rdf:RDF>
  </metadata>
  <defs
     id="defs40" />
  <sodipodi:namedview
     pagecolor="#ffffff"
     bordercolor="#666666"
     borderopacity="1"
     objecttolerance="10"
     gridtolerance="10"
     guidetolerance="10"
     inkscape:pageopacity="0"
     inkscape:pageshadow="2"
     inkscape:window-width="640"
     inkscape:window-height="480"
     id="namedview38"
     showgrid="false"
     inkscape:zoom="6.5555556"
     inkscape:cx="17"
     inkscape:cy="18"
     inkscape:window-x="0"
     inkscape:window-y="0"
     inkscape:window-maximized="0"
     inkscape:current-layer="svg2" />
  <path
     d="m 34,36 0,-3.5 C 34,29.186 30.315,27 27,27 l -12,0 c -3.313,0 -7,2.186 -7,5.5 l 0,3.5 26,0 z"
     id="path4"
     inkscape:connector-curvature="0"
     style="fill:#e1e8ed" />
  <path
     d="m 17,27 8,0 -4,9 -4,-9"
     id="path6"
     inkscape:connector-curvature="0"
     style="fill:#226699" />
  <path
     d="m 20.945,5.069 c 4.105,0 10.947,2.053 10.947,10.947 0,8.896 0,10.948 -2.053,10.948 -2.053,0 -4.79,-2.053 -8.895,-2.053 -4.105,0 -6.785,2.053 -8.895,2.053 -2.287,0 -2.053,-8.211 -2.053,-10.948 C 9.997,7.122 16.84,5.069 20.945,5.069"
     id="path8"
     inkscape:connector-curvature="0"
     style="fill:#ffac33" />
  <path
     d="m 17.328,27.018 c 1.466,1.065 2.964,0.98 3.672,0.98 0.708,0 2.194,0.085 3.66,-0.98 l 0,-3.203 -7.332,0 0,3.203 z"
     id="path10"
     inkscape:connector-curvature="0"
     style="fill:#ffdc5d" />
  <path
     d="m 17.322,25.179 c 1.022,1.155 2.29,1.468 3.668,1.468 1.379,0 2.647,-0.312 3.67,-1.468 l 0,-2.936 -7.338,0 0,2.936 z"
     id="path12"
     inkscape:connector-curvature="0"
     style="fill:#f9ca55" />
  <path
     d="m 12.734,15.718 c 0,-5.834 3.676,-10.563 8.211,-10.563 4.533,0 8.209,4.729 8.209,10.563 0,5.833 -3.676,10.285 -8.209,10.285 -4.535,0 -8.211,-4.452 -8.211,-10.285"
     id="path14"
     inkscape:connector-curvature="0"
     style="fill:#ffdc5d" />
  <path
     d="m 20.945,23.543 c -1.606,0 -2.447,-0.794 -2.537,-0.885 -0.268,-0.267 -0.268,-0.7 0,-0.967 0.266,-0.265 0.692,-0.267 0.961,-0.007 0.035,0.032 0.551,0.491 1.576,0.491 1.038,0 1.555,-0.473 1.576,-0.492 0.273,-0.256 0.703,-0.248 0.963,0.02 0.26,0.269 0.26,0.691 -0.004,0.955 -0.089,0.091 -0.929,0.885 -2.535,0.885"
     id="path16"
     inkscape:connector-curvature="0"
     style="fill:#df1f32" />
  <path
     d="m 10.725,19 c -0.021,-1 -0.044,-0.224 -0.044,-0.465 0,-3.422 2.053,0.494 2.053,-1.943 0,-2.439 1.368,-2.683 2.736,-4.051 0.685,-0.685 2.053,-2.026 2.053,-2.026 0,0 3.421,2.067 6.158,2.067 2.736,0 5.474,1.375 5.474,4.112 0,2.736 2.053,-1.584 2.053,1.837 0,0.244 -0.022,-0.531 -0.04,0.469 l 0.719,0 c 0.006,-2 0.006,-1.924 0.006,-3.202 0,-8.895 -6.842,-10.729 -10.948,-10.729 -4.104,0 -10.947,1.778 -10.947,10.674 0,0.793 -0.02,1.257 0.008,3.257 l 0.719,0 z"
     id="path18"
     inkscape:connector-curvature="0"
     style="fill:#ffac33" />
  <path
     d="m 17.608,17.887 c -0.465,0 -0.846,-0.381 -0.846,-0.847 l 0,-0.845 c 0,-0.465 0.381,-0.846 0.846,-0.846 0.466,0 0.847,0.381 0.847,0.846 l 0,0.845 c 0,0.466 -0.381,0.847 -0.847,0.847 m 6.765,0 c -0.465,0 -0.846,-0.381 -0.846,-0.847 l 0,-0.845 c 0,-0.465 0.381,-0.846 0.846,-0.846 0.465,0 0.846,0.381 0.846,0.846 l 0,0.845 c 0,0.466 -0.381,0.847 -0.846,0.847"
     id="path20"
     inkscape:connector-curvature="0"
     style="fill:#662113" />
  <path
     d="m 21.836,20.5 -1.69,0 c -0.233,0 -0.423,-0.19 -0.423,-0.423 l 0,-0.153 c 0,-0.233 0.189,-0.424 0.423,-0.424 l 1.69,0 c 0.233,0 0.424,0.19 0.424,0.424 l 0,0.153 c 0,0.233 -0.191,0.423 -0.424,0.423"
     id="path22"
     inkscape:connector-curvature="0"
     style="fill:#c1694f" />
  <path
     d="m 31.5,12 c 0,0 -3,1 -10.5,1 -7.5,0 -10.5,-1 -10.5,-1 l 0,-6 21,0 0,6 z"
     id="path24"
     inkscape:connector-curvature="0"
     style="fill:#ccd6dd" />
  <path
     d="m 13,11 c 0,0.276 -0.224,0.5 -0.5,0.5 C 12.224,11.5 12,11.276 12,11 L 12,8 C 12,7.724 12.224,7.5 12.5,7.5 12.776,7.5 13,7.724 13,8 l 0,3 z m 17,0 c 0,0.276 -0.224,0.5 -0.5,0.5 C 29.224,11.5 29,11.276 29,11 L 29,8 C 29,7.724 29.224,7.5 29.5,7.5 29.776,7.5 30,7.724 30,8 l 0,3 z M 17,11.5 C 17,11.776 16.776,12 16.5,12 16.224,12 16,11.776 16,11.5 l 0,-3 C 16,8.224 16.224,8 16.5,8 16.776,8 17,8.224 17,8.5 l 0,3 z m 4.5,0.25 c 0,0.276 -0.224,0.5 -0.5,0.5 -0.276,0 -0.5,-0.224 -0.5,-0.5 l 0,-3 c 0,-0.276 0.224,-0.5 0.5,-0.5 0.276,0 0.5,0.224 0.5,0.5 l 0,3 z M 26,11.5 C 26,11.776 25.776,12 25.5,12 25.224,12 25,11.776 25,11.5 l 0,-3 C 25,8.224 25.224,8 25.5,8 25.776,8 26,8.224 26,8.5 l 0,3 z"
     id="path26"
     inkscape:connector-curvature="0"
     style="fill:#99aab5" />
  <path
     d="M 27.25,0 C 26.093,0 25.013,0.32 24.083,0.869 23.153,0.32 22.073,0 20.916,0 19.794,0 18.743,0.3 17.833,0.818 16.923,0.3 15.872,0 14.75,0 11.298,0 8.5,2.798 8.5,6.25 8.5,9.702 19.794,9.5 20.916,9.5 22.073,9.5 33.5,9.702 33.5,6.25 33.5,2.798 30.701,0 27.25,0 Z"
     id="path28"
     inkscape:connector-curvature="0"
     style="fill:#e1e8ed" />
  <path
     d="M 9,24.75 C 9,28.202 6.985,30 4.5,30 2.015,30 0,28.202 0,24.75 0,21.298 2.015,17.5 4.5,17.5 6.985,17.5 9,21.298 9,24.75 Z"
     id="path30"
     inkscape:connector-curvature="0"
     style="fill:#c1694f" />
  <path
     d="m 3.5,28 2,0 0,8 -2,0 z"
     id="path32"
     inkscape:connector-curvature="0"
     style="fill:#c1694f" />
  <path
     d="m 14.444,15.936 c 0,1.448 -0.734,2.622 -1.639,2.622 -0.905,0 -1.639,-1.174 -1.639,-2.622 0,-1.448 0.734,-2.623 1.639,-2.623 0.905,-0.001 1.639,1.174 1.639,2.623 m 16.389,0 c 0,1.448 -0.733,2.622 -1.639,2.622 -0.905,0 -1.639,-1.174 -1.639,-2.622 0,-1.448 0.733,-2.623 1.639,-2.623 0.906,-0.001 1.639,1.174 1.639,2.623"
     id="path34"
     inkscape:connector-curvature="0"
     style="fill:#ffdc5d" />
  <path
     d="M 13.894,4.489 C 13.93,4.497 13.965,4.5 14,4.5 c 0.231,0 0.438,-0.16 0.488,-0.394 0.031,-0.145 0.334,-1.441 1.319,-2.212 0.76,-0.595 1.749,-0.987 2.007,-1.084 -0.396,-0.225 -0.824,-0.4 -1.268,-0.535 -0.423,0.21 -0.914,0.486 -1.355,0.832 -1.236,0.967 -1.617,2.492 -1.681,2.788 -0.057,0.27 0.115,0.536 0.384,0.594 z M 26.051,1.903 c 0.986,0.772 1.289,2.066 1.319,2.211 0.051,0.235 0.258,0.395 0.489,0.395 0.034,0 0.069,-0.003 0.105,-0.011 C 28.234,4.44 28.405,4.174 28.348,3.904 28.284,3.608 27.905,2.084 26.667,1.115 26.241,0.782 25.771,0.513 25.358,0.306 c -0.434,0.139 -0.851,0.317 -1.237,0.542 0.337,0.132 1.227,0.504 1.93,1.055 z"
     id="path36"
     inkscape:connector-curvature="0"
     style="fill:#ccd6dd" />
</svg>
