<?xml version="1.0" encoding="UTF-8" standalone="no"?>
<svg
   xmlns:dc="http://purl.org/dc/elements/1.1/"
   xmlns:cc="http://creativecommons.org/ns#"
   xmlns:rdf="http://www.w3.org/1999/02/22-rdf-syntax-ns#"
   xmlns:svg="http://www.w3.org/2000/svg"
   xmlns="http://www.w3.org/2000/svg"
   xmlns:sodipodi="http://sodipodi.sourceforge.net/DTD/sodipodi-0.dtd"
   xmlns:inkscape="http://www.inkscape.org/namespaces/inkscape"
   viewBox="0 0 34.945 36"
   id="svg2"
   version="1.1"
   inkscape:version="0.91 r13725"
   sodipodi:docname="1f469-200d-1f467.svg"
   width="34.945"
   height="36">
  <metadata
     id="metadata38">
    <rdf:RDF>
      <cc:Work
         rdf:about="">
        <dc:format>image/svg+xml</dc:format>
        <dc:type
           rdf:resource="http://purl.org/dc/dcmitype/StillImage" />
      </cc:Work>
    </rdf:RDF>
  </metadata>
  <defs
     id="defs36" />
  <sodipodi:namedview
     pagecolor="#ffffff"
     bordercolor="#666666"
     borderopacity="1"
     objecttolerance="10"
     gridtolerance="10"
     guidetolerance="10"
     inkscape:pageopacity="0"
     inkscape:pageshadow="2"
     inkscape:window-width="640"
     inkscape:window-height="480"
     id="namedview34"
     showgrid="false"
     inkscape:zoom="6.5555556"
     inkscape:cx="16.945"
     inkscape:cy="18"
     inkscape:window-x="0"
     inkscape:window-y="0"
     inkscape:window-maximized="0"
     inkscape:current-layer="svg2" />
  <path
     d="m 2.945,14 c 0.253,3.89 3.521,6.969 7.5,6.969 3.979,0 7.247,-3.079 7.5,-6.969 l 0,-10 -15,0 0,10 z"
     id="path4"
     inkscape:connector-curvature="0"
     style="fill:#ffdc5d" />
  <path
     d="m 14.483,0.808 c -0.333,0 -0.657,0.034 -0.974,0.09 C 12.338,0.328 11.335,0 9.945,0 c -4.907,0 -9,4.093 -9,9 l 0,7 c 0.148,5.223 4.241,9.568 9.5,9.568 5.259,0 9.352,-4.345 9.5,-9.568 l 0,-10 c 0,-3.122 -2.339,-5.192 -5.462,-5.192 z M 17.945,14 c -0.253,3.89 -3.521,6.969 -7.5,6.969 -3.979,0 -7.247,-3.079 -7.5,-6.969 l 0,-4.337 C 8.273,9.508 11.455,7.32 13.182,5.482 13.597,6.957 14.746,9 17.945,9 l 0,5 z"
     id="path6"
     inkscape:connector-curvature="0"
     style="fill:#ffac33" />
  <path
     d="m 17.945,22 -16,0 C 0.166,22 0,23.193 0,24.973 L 0,36 l 20.945,0 0,-11.027 c 0,-1.973 -1,-2.973 -3,-2.973 z"
     id="path8"
     inkscape:connector-curvature="0"
     style="fill:#9268ca" />
  <path
     d="m 15.945,26 1.028,0 0,10 -1.028,0 z m -12,0 1.028,0 0,10 -1.028,0 z"
     id="path10"
     inkscape:connector-curvature="0"
     style="fill:#7450a8" />
  <path
     d="m 7.945,19 0,3 c 0,1.381 1.119,2.5 2.5,2.5 1.381,0 2.5,-1.119 2.5,-2.5 l 0,-3 -5,0 z"
     id="path12"
     inkscape:connector-curvature="0"
     style="fill:#ffdc5d" />
  <path
     d="m 7.214,17.769 6.462,0 c 0,0 -0.808,1.616 -3.231,1.616 -2.423,0 -3.231,-1.616 -3.231,-1.616 z"
     id="path14"
     inkscape:connector-curvature="0"
     style="fill:#da2f47" />
  <path
     d="m 10.945,15.5 -1,0 c -0.276,0 -0.5,-0.224 -0.5,-0.5 0,-0.276 0.224,-0.5 0.5,-0.5 l 1,0 c 0.276,0 0.5,0.224 0.5,0.5 0,0.276 -0.224,0.5 -0.5,0.5 z"
     id="path16"
     inkscape:connector-curvature="0"
     style="fill:#bf6952" />
  <path
     d="m 6.945,13 c -0.553,0 -1,-0.448 -1,-1 l 0,-1 c 0,-0.552 0.447,-1 1,-1 0.553,0 1,0.448 1,1 l 0,1 c 0,0.552 -0.447,1 -1,1 z m 7,0 c -0.553,0 -1,-0.448 -1,-1 l 0,-1 c 0,-0.552 0.447,-1 1,-1 0.553,0 1,0.448 1,1 l 0,1 c 0,0.552 -0.447,1 -1,1 z"
     id="path18"
     inkscape:connector-curvature="0"
     style="fill:#662113" />
  <path
     d="M 31.939,26.047 31.937,26 l 0.008,0 0,-6 -3.557,0 c -1.018,-0.574 -2.192,-0.906 -3.446,-0.906 -1.254,0 -2.428,0.332 -3.446,0.906 l -3.551,0 0,6 0.002,0 -0.002,0.047 c 0,3.353 2.39,6.152 5.569,6.807 0.461,0.095 0.938,0.146 1.428,0.146 0.492,0 0.972,-0.052 1.435,-0.148 3.176,-0.658 5.562,-3.454 5.562,-6.805 z"
     id="path20"
     inkscape:connector-curvature="0"
     style="fill:#ffdc5d" />
  <path
     d="m 26.377,32.852 c -0.264,0.511 -0.432,0.921 -0.432,1.148 4.656,0 9,-3 9,-3 C 33.82,27.312 33.279,22.861 33.279,22.861 33.279,18.519 29.76,15 25.418,15 24.173,15 23,15.297 21.954,15.812 c -3.33,0.07 -6.009,2.787 -6.009,6.133 0,0.828 0.165,1.617 0.464,2.337 -0.25,1.611 -0.733,4.322 -1.464,6.718 0,0 4.344,3 9,3 0,-0.227 -0.167,-0.636 -0.431,-1.146 C 20.335,32.198 17.945,29.4 17.945,26.047 L 17.947,26 l -0.002,0 0,-3.036 c 4.856,-0.18 7.656,-1.81 9.204,-3.332 1.065,1.257 2.765,2.841 4.796,3.257 l 0,3.111 -0.008,0 0.002,0.047 c 0,3.351 -2.386,6.147 -5.562,6.805 z"
     id="path22"
     inkscape:connector-curvature="0"
     style="fill:#f4900c" />
  <path
     d="m 26.945,35 0,-4 -4,0 0,4 -1,0 0,1 6,0 0,-1 z"
     id="path24"
     inkscape:connector-curvature="0"
     style="fill:#ffdc5d" />
  <path
     d="m 24.945,36 8.818,0 c -0.518,-1.602 -2.159,-3 -3.818,-3 l -3,0 -2,3 z"
     id="path26"
     inkscape:connector-curvature="0"
     style="fill:#ea596e" />
  <path
     d="m 20.945,33 c -2.493,0 -4.276,1.385 -4.814,3 l 8.814,0 -2,-3 -2,0 z"
     id="path28"
     inkscape:connector-curvature="0"
     style="fill:#ea596e" />
  <path
     d="m 27.945,30 -6,0 c 0,0 0.583,2 3,2 2.417,0 3,-2 3,-2 z m -3,-0.5 c -0.13,0 -0.26,-0.05 -0.35,-0.15 -0.1,-0.09 -0.15,-0.22 -0.15,-0.35 0,-0.13 0.05,-0.26 0.15,-0.36 0.17,-0.17 0.52,-0.18 0.71,0.01 0.09,0.09 0.14,0.22 0.14,0.35 0,0.13 -0.05,0.26 -0.15,0.35 -0.09,0.1 -0.22,0.15 -0.35,0.15 z"
     id="path30"
     inkscape:connector-curvature="0"
     style="fill:#bf6952" />
  <path
     d="m 21.945,28 c -0.552,0 -1,-0.447 -1,-1 l 0,-1 c 0,-0.553 0.448,-1 1,-1 0.552,0 1,0.447 1,1 l 0,1 c 0,0.553 -0.448,1 -1,1 z m 6,0 c -0.553,0 -1,-0.447 -1,-1 l 0,-1 c 0,-0.553 0.447,-1 1,-1 0.553,0 1,0.447 1,1 l 0,1 c 0,0.553 -0.447,1 -1,1 z"
     id="path32"
     inkscape:connector-curvature="0"
     style="fill:#662113" />
</svg>
