<?xml version="1.0" encoding="UTF-8" standalone="no"?>
<svg
   xmlns:dc="http://purl.org/dc/elements/1.1/"
   xmlns:cc="http://creativecommons.org/ns#"
   xmlns:rdf="http://www.w3.org/1999/02/22-rdf-syntax-ns#"
   xmlns:svg="http://www.w3.org/2000/svg"
   xmlns="http://www.w3.org/2000/svg"
   xmlns:sodipodi="http://sodipodi.sourceforge.net/DTD/sodipodi-0.dtd"
   xmlns:inkscape="http://www.inkscape.org/namespaces/inkscape"
   viewBox="0 0 34.01984 35.117001"
   id="svg2"
   version="1.1"
   inkscape:version="0.91 r13725"
   sodipodi:docname="1f469-1f3fb-200d-1f3a8.svg"
   width="34.01984"
   height="35.117001">
  <metadata
     id="metadata38">
    <rdf:RDF>
      <cc:Work
         rdf:about="">
        <dc:format>image/svg+xml</dc:format>
        <dc:type
           rdf:resource="http://purl.org/dc/dcmitype/StillImage" />
      </cc:Work>
    </rdf:RDF>
  </metadata>
  <defs
     id="defs36" />
  <sodipodi:namedview
     pagecolor="#ffffff"
     bordercolor="#666666"
     borderopacity="1"
     objecttolerance="10"
     gridtolerance="10"
     guidetolerance="10"
     inkscape:pageopacity="0"
     inkscape:pageshadow="2"
     inkscape:window-width="640"
     inkscape:window-height="480"
     id="namedview34"
     showgrid="false"
     inkscape:zoom="6.5555556"
     inkscape:cx="17.019842"
     inkscape:cy="18"
     inkscape:window-x="0"
     inkscape:window-y="0"
     inkscape:window-maximized="0"
     inkscape:current-layer="svg2" />
  <path
     d="m 20.963842,4.186 c 4.106,0 10.948,2.053 10.948,10.948 0,8.895 0,10.948 -2.053,10.948 -2.054,0 -4.79,-2.053 -8.896,-2.053 -4.105,0 -6.784,2.053 -8.895,2.053 -2.2869999,0 -2.053,-8.211 -2.053,-10.948 0.002,-8.895 6.844,-10.948 10.949,-10.948"
     id="path4"
     inkscape:connector-curvature="0"
     style="fill:#292f33" />
  <path
     d="m 27.019842,26.117 -2.34,0 0,-3.185 -7.332,0 0,3.185 -2.328,0 c -3.313,0 -6.9999999,2.186 -6.9999999,5.5 l 0,3.5 25.9999999,0 0,-3.5 c 0,-3.314 -3.685,-5.5 -7,-5.5 z"
     id="path6"
     inkscape:connector-curvature="0"
     style="fill:#9266cc" />
  <path
     d="m 17.340842,24.296 c 1.023,1.155 2.291,1.468 3.669,1.468 1.379,0 2.647,-0.312 3.67,-1.468 l 0,-2.936 -7.339,0 0,2.936 z"
     id="path8"
     inkscape:connector-curvature="0"
     style="fill:#eec2ad" />
  <path
     d="m 12.753842,14.834 c 0,-5.834 3.676,-10.563 8.21,-10.563 4.534,0 8.211,4.729 8.211,10.563 0,5.833 -3.677,10.286 -8.211,10.286 -4.534,0 -8.21,-4.452 -8.21,-10.286"
     id="path10"
     inkscape:connector-curvature="0"
     style="fill:#f7dece" />
  <path
     d="m 20.963842,22.66 c -1.605,0 -2.446,-0.794 -2.536,-0.885 -0.268,-0.267 -0.268,-0.7 0,-0.967 0.266,-0.265 0.692,-0.267 0.96,-0.007 0.035,0.032 0.553,0.491 1.576,0.491 1.039,0 1.557,-0.473 1.577,-0.492 0.273,-0.256 0.703,-0.248 0.963,0.02 0.26,0.269 0.26,0.691 -0.004,0.955 -0.089,0.091 -0.929,0.885 -2.536,0.885"
     id="path12"
     inkscape:connector-curvature="0"
     style="fill:#df1f32" />
  <path
     d="m 10.744842,18.117 c -0.021,-1 -0.044,-0.224 -0.044,-0.465 0,-3.422 2.053,0.494 2.053,-1.943 0,-2.439 1.368,-2.683 2.736,-4.051 0.685,-0.685 2.053,-2.026 2.053,-2.026 0,0 3.421,2.067 6.158,2.067 2.736,0 5.474,1.375 5.474,4.112 0,2.737 2.053,-1.584 2.053,1.837 0,0.244 -0.022,-0.531 -0.04,0.469 l 0.718,0 c 0.007,-2 0.007,-1.924 0.007,-3.202 0,-8.895 -6.843,-12.207 -10.948,-12.207 -4.105,0 -10.947,3.257 -10.947,12.152 0,0.793 -0.02,1.257 0.008,3.257 l 0.719,0 z"
     id="path14"
     inkscape:connector-curvature="0"
     style="fill:#292f33" />
  <path
     d="m 17.627842,17.003 c -0.465,0 -0.846,-0.381 -0.846,-0.846 l 0,-0.845 c 0,-0.465 0.381,-0.846 0.846,-0.846 0.465,0 0.847,0.381 0.847,0.846 l 0,0.845 c 0,0.465 -0.382,0.846 -0.847,0.846 m 6.765,0 c -0.465,0 -0.846,-0.381 -0.846,-0.846 l 0,-0.845 c 0,-0.465 0.381,-0.846 0.846,-0.846 0.465,0 0.846,0.381 0.846,0.846 l 0,0.845 c 0,0.465 -0.381,0.846 -0.846,0.846"
     id="path16"
     inkscape:connector-curvature="0"
     style="fill:#662113" />
  <path
     d="m 21.856842,19.617 -1.691,0 c -0.233,0 -0.423,-0.19 -0.423,-0.423 l 0,-0.153 c 0,-0.233 0.189,-0.424 0.423,-0.424 l 1.691,0 c 0.232,0 0.423,0.19 0.423,0.424 l 0,0.153 c 0,0.233 -0.191,0.423 -0.423,0.423"
     id="path18"
     inkscape:connector-curvature="0"
     style="fill:#c1694f" />
  <path
     d="m 32.034842,5.502 c -0.341,-2.045 -3.616,-3.89 -8.267,-4.105 0.346,-0.222 0.672,-0.402 0.924,-0.48 0.72,-0.224 -0.218,-0.917 -0.917,-0.917 0,0 -1.092,0.505 -1.93,1.41 -6.756,0.348 -11.9929999,4.051 -11.825,5.009 0.175,1.004 0.806,0.061 0.846,0.917 0.041,0.855 0.847,0.917 0.847,0.917 0,0 2.958,-0.452 8.467,0 5.51,0.451 8.74,0.554 10.16,0.917 1.422,0.362 0.848,-0.917 0.848,-0.917 0,0 1.246,-0.351 0.847,-2.751 z"
     id="path20"
     inkscape:connector-curvature="0"
     style="fill:#66757f" />
  <path
     d="m 26.489842,35.117 c -0.279,-3.867 -4.091,-7.954 -9.64,-9.879 -6.702,-2.326 -13.3829999,-0.614 -14.9229999,3.823 -0.671,1.936 -0.252,4.071 0.989,6.056 l 23.5739999,0 z"
     id="path22"
     inkscape:connector-curvature="0"
     style="fill:#d99e82" />
  <path
     d="m 18.801842,30.499 c -0.3,0.862 0.363,1.876 1.48,2.264 1.117,0.387 2.266,0.002 2.564,-0.861 0.3,-0.861 -0.363,-1.876 -1.48,-2.263 -1.117,-0.388 -2.265,-0.003 -2.564,0.86"
     id="path24"
     inkscape:connector-curvature="0"
     style="fill:#5c913b" />
  <path
     d="m 4.4208421,32.118 c -0.299,0.863 0.364,1.876 1.481,2.264 1.117,0.388 2.265,0.003 2.564,-0.86 0.3,-0.862 -0.363,-1.876 -1.48,-2.264 -1.117,-0.388 -2.266,-0.003 -2.565,0.86"
     id="path26"
     inkscape:connector-curvature="0"
     style="fill:#226699" />
  <path
     d="m 6.2688421,27.138 c -0.299,0.862 0.364,1.876 1.481,2.264 1.116,0.387 2.2649999,0.002 2.5639999,-0.861 0.3,-0.861 -0.3639999,-1.876 -1.4799999,-2.263 -1.117,-0.389 -2.266,-0.004 -2.565,0.86"
     id="path28"
     inkscape:connector-curvature="0"
     style="fill:#dd2e44" />
  <path
     d="m 13.295842,27.122 c -0.272,0.872 0.423,1.864 1.552,2.216 1.128,0.353 2.265,-0.069 2.536,-0.94 0.271,-0.872 -0.424,-1.864 -1.552,-2.216 -1.128,-0.353 -2.264,0.069 -2.536,0.94"
     id="path30"
     inkscape:connector-curvature="0"
     style="fill:#ffcc4d" />
  <path
     d="m 0.01984207,29.117 c 0.078,-1.208 1.39400003,-3.184 3.00000003,-3 1.665,0.19 0.129,3.129 0,4 -0.129,0.871 0.144,2.938 -1,3 -1.54600003,0.084 -2.14000003,-1.814 -2.00000003,-4"
     id="path32"
     inkscape:connector-curvature="0"
     style="fill:#f7dece" />
</svg>
