<?xml version="1.0" encoding="UTF-8" standalone="no"?>
<svg
   xmlns:dc="http://purl.org/dc/elements/1.1/"
   xmlns:cc="http://creativecommons.org/ns#"
   xmlns:rdf="http://www.w3.org/1999/02/22-rdf-syntax-ns#"
   xmlns:svg="http://www.w3.org/2000/svg"
   xmlns="http://www.w3.org/2000/svg"
   xmlns:sodipodi="http://sodipodi.sourceforge.net/DTD/sodipodi-0.dtd"
   xmlns:inkscape="http://www.inkscape.org/namespaces/inkscape"
   viewBox="0 0 28 34.52"
   id="svg2"
   version="1.1"
   inkscape:version="0.91 r13725"
   sodipodi:docname="1f468-1f3fd-200d-2695-fe0f.svg"
   width="28"
   height="34.52">
  <metadata
     id="metadata38">
    <rdf:RDF>
      <cc:Work
         rdf:about="">
        <dc:format>image/svg+xml</dc:format>
        <dc:type
           rdf:resource="http://purl.org/dc/dcmitype/StillImage" />
      </cc:Work>
    </rdf:RDF>
  </metadata>
  <defs
     id="defs36" />
  <sodipodi:namedview
     pagecolor="#ffffff"
     bordercolor="#666666"
     borderopacity="1"
     objecttolerance="10"
     gridtolerance="10"
     guidetolerance="10"
     inkscape:pageopacity="0"
     inkscape:pageshadow="2"
     inkscape:window-width="640"
     inkscape:window-height="480"
     id="namedview34"
     showgrid="false"
     inkscape:zoom="6.5555556"
     inkscape:cx="14"
     inkscape:cy="18"
     inkscape:window-x="0"
     inkscape:window-y="0"
     inkscape:window-maximized="0"
     inkscape:current-layer="svg2" />
  <path
     d="m 28,34.52 0,-4 c 0,-3.314 -2.685,-6 -6,-6 l -16,0 c -3.313,0 -6,2.686 -6,6 l 0,4 28,0 z"
     id="path4"
     inkscape:connector-curvature="0"
     style="fill:#3b88c3" />
  <path
     d="m 10,24.52 4,5.001 4,-5.001 0,-4 -8,0 z"
     id="path6"
     inkscape:connector-curvature="0"
     style="fill:#d5ab88" />
  <path
     d="m 10,22.52 c 1.216,1.374 2.355,1.719 3.996,1.719 1.639,0 2.787,-0.346 4.004,-1.719 l 0,-4 -8,0 0,4 z"
     id="path8"
     inkscape:connector-curvature="0"
     style="fill:#cc9b7a" />
  <path
     d="m 7.444,12.456 c 0,1.448 -0.734,2.622 -1.639,2.622 -0.905,0 -1.639,-1.174 -1.639,-2.622 0,-1.448 0.734,-2.623 1.639,-2.623 0.905,-10e-4 1.639,1.174 1.639,2.623 m 16.389,0 c 0,1.448 -0.733,2.622 -1.639,2.622 -0.905,0 -1.639,-1.174 -1.639,-2.622 0,-1.448 0.733,-2.623 1.639,-2.623 0.906,-10e-4 1.639,1.174 1.639,2.623"
     id="path10"
     inkscape:connector-curvature="0"
     style="fill:#d5ab88" />
  <path
     d="M 5.477,13.48 C 5.477,7.891 9.293,3.359 14,3.359 c 4.707,0 8.522,4.532 8.522,10.121 0,5.589 -3.815,10.121 -8.522,10.121 C 9.293,23.6 5.477,19.069 5.477,13.48"
     id="path12"
     inkscape:connector-curvature="0"
     style="fill:#d5ab88" />
  <path
     d="m 14,20.322 c -2.754,0 -3.6,-0.705 -3.741,-0.848 -0.256,-0.256 -0.256,-0.671 0,-0.927 0.248,-0.248 0.646,-0.255 0.902,-0.023 0.052,0.037 0.721,0.487 2.839,0.487 2.2,0 2.836,-0.485 2.842,-0.49 0.256,-0.255 0.657,-0.243 0.913,0.015 0.256,0.256 0.242,0.683 -0.014,0.938 C 17.6,19.617 16.754,20.322 14,20.322"
     id="path14"
     inkscape:connector-curvature="0"
     style="fill:#c1694f" />
  <path
     d="m 14,0 c 5.648,0 9.178,4.168 9.178,7.641 0,3.473 -0.706,4.863 -1.412,3.473 L 20.354,8.336 c 0,0 -4.235,0 -5.647,-1.39 0,0 2.118,4.168 -2.118,0 0,0 0.706,2.779 -3.53,-0.694 0,0 -2.118,1.389 -2.824,4.862 -0.196,0.964 -1.412,0 -1.412,-3.473 C 4.822,4.168 7.646,0 14,0"
     id="path16"
     inkscape:connector-curvature="0"
     style="fill:#963b22" />
  <path
     d="m 10,13.52 c -0.55,0 -1,-0.45 -1,-1 l 0,-1 c 0,-0.55 0.45,-1 1,-1 0.55,0 1,0.45 1,1 l 0,1 c 0,0.55 -0.45,1 -1,1 m 8,0 c -0.55,0 -1,-0.45 -1,-1 l 0,-1 c 0,-0.55 0.45,-1 1,-1 0.55,0 1,0.45 1,1 l 0,1 c 0,0.55 -0.45,1 -1,1"
     id="path18"
     inkscape:connector-curvature="0"
     style="fill:#662113" />
  <path
     d="m 14.75,16.27 -1.5,0 c -0.413,0 -0.75,-0.337 -0.75,-0.75 0,-0.413 0.337,-0.75 0.75,-0.75 l 1.5,0 c 0.413,0 0.75,0.337 0.75,0.75 0,0.413 -0.337,0.75 -0.75,0.75"
     id="path20"
     inkscape:connector-curvature="0"
     style="fill:#c1694f" />
  <path
     d="m 6,31.02 -2,0 c 0,-4.094 1.877,-8.5 6,-8.5 l 0,2 c -3.164,0 -4,4.252 -4,6.5 z m 17,-4 -2,0 c 0,-0.411 -0.521,-2.5 -3,-2.5 l 0,-2 c 3.533,0 5,2.931 5,4.5 z"
     id="path22"
     inkscape:connector-curvature="0"
     style="fill:#292f33" />
  <circle
     cx="5"
     cy="31.02"
     r="3"
     id="circle24"
     style="fill:#ccd6dd" />
  <circle
     cx="5"
     cy="31.02"
     r="2"
     id="circle26"
     style="fill:#f5f8fa" />
  <path
     d="m 26,32.52 -2,0 c 0,-0.835 -0.108,-5 -2.25,-5 -2.142,0 -2.25,4.165 -2.25,5 l -2,0 c 0,-4.383 1.589,-7 4.25,-7 2.661,0 4.25,2.617 4.25,7 z"
     id="path28"
     inkscape:connector-curvature="0"
     style="fill:#292f33" />
  <circle
     cx="18.5"
     cy="32.52"
     r="1"
     id="circle30"
     style="fill:#ccd6dd" />
  <circle
     cx="25"
     cy="32.52"
     r="1"
     id="circle32"
     style="fill:#ccd6dd" />
</svg>
