<?xml version="1.0" encoding="UTF-8" standalone="no"?>
<svg
   xmlns:dc="http://purl.org/dc/elements/1.1/"
   xmlns:cc="http://creativecommons.org/ns#"
   xmlns:rdf="http://www.w3.org/1999/02/22-rdf-syntax-ns#"
   xmlns:svg="http://www.w3.org/2000/svg"
   xmlns="http://www.w3.org/2000/svg"
   xmlns:sodipodi="http://sodipodi.sourceforge.net/DTD/sodipodi-0.dtd"
   xmlns:inkscape="http://www.inkscape.org/namespaces/inkscape"
   viewBox="0 0 30 34.849998"
   id="svg2"
   version="1.1"
   inkscape:version="0.91 r13725"
   sodipodi:docname="1f468-1f3fb-200d-1f9b1.svg"
   width="30"
   height="34.849998">
  <metadata
     id="metadata16">
    <rdf:RDF>
      <cc:Work
         rdf:about="">
        <dc:format>image/svg+xml</dc:format>
        <dc:type
           rdf:resource="http://purl.org/dc/dcmitype/StillImage" />
      </cc:Work>
    </rdf:RDF>
  </metadata>
  <defs
     id="defs14" />
  <sodipodi:namedview
     pagecolor="#ffffff"
     bordercolor="#666666"
     borderopacity="1"
     objecttolerance="10"
     gridtolerance="10"
     guidetolerance="10"
     inkscape:pageopacity="0"
     inkscape:pageshadow="2"
     inkscape:window-width="640"
     inkscape:window-height="480"
     id="namedview12"
     showgrid="false"
     inkscape:zoom="6.5555556"
     inkscape:cx="15"
     inkscape:cy="17"
     inkscape:window-x="0"
     inkscape:window-y="0"
     inkscape:window-maximized="0"
     inkscape:current-layer="svg2" />
  <path
     d="m 29,19.85 c 0,-2.209 -1.119,-4 -2.5,-4 -0.012,0 -0.021,0.005 -0.033,0.005 C 24.955,9.554 20.394,4.975 15,4.975 9.606,4.975 5.044,9.555 3.533,15.855 3.521,15.854 3.511,15.85 3.5,15.85 c -1.381,0 -2.5,1.791 -2.5,4 0,2.107 1.021,3.815 2.314,3.97 1.223,6.649 5.985,11.03 11.686,11.03 5.7,0 10.463,-4.381 11.685,-11.03 C 27.979,23.665 29,21.957 29,19.85 Z"
     id="path4"
     inkscape:connector-curvature="0"
     style="fill:#f6ddcd" />
  <path
     d="m 10,20.85 c -0.552,0 -1,-0.447 -1,-1 l 0,-2 c 0,-0.552 0.448,-1 1,-1 0.552,0 1,0.448 1,1 l 0,2 c 0,0.553 -0.448,1 -1,1 z m 10,0 c -0.553,0 -1,-0.447 -1,-1 l 0,-2 c 0,-0.552 0.447,-1 1,-1 0.553,0 1,0.448 1,1 l 0,2 c 0,0.553 -0.447,1 -1,1 z"
     id="path6"
     inkscape:connector-curvature="0"
     style="fill:#662113" />
  <path
     d="m 15,30.85 c -4.201,0 -5.491,-1.077 -5.707,-1.293 -0.391,-0.391 -0.391,-1.023 0,-1.414 0.378,-0.379 0.984,-0.39 1.376,-0.036 0.08,0.058 1.1,0.743 4.331,0.743 3.355,0 4.326,-0.739 4.336,-0.747 0.39,-0.389 1.001,-0.37 1.393,0.021 0.391,0.391 0.369,1.043 -0.021,1.434 C 20.491,29.773 19.201,30.85 15,30.85 Z m 1,-5 -2,0 c -0.552,0 -1,-0.447 -1,-1 0,-0.553 0.448,-1 1,-1 l 2,0 c 0.553,0 1,0.447 1,1 0,0.553 -0.447,1 -1,1 z"
     id="path8"
     inkscape:connector-curvature="0"
     style="fill:#c1694f" />
  <path
     d="M 30,12.5 C 30,11.609 29.531,10.833 28.829,10.39 28.935,10.113 29,9.815 29,9.5 29,8.224 28.041,7.184 26.807,7.031 26.925,6.708 27,6.364 27,6 27,4.343 25.657,3 24,3 23.605,3 23.23,3.081 22.885,3.22 22.539,1.944 21.385,1 20,1 19.13,1 18.354,1.376 17.806,1.967 17.384,0.821 16.292,0 15,0 13.708,0 12.616,0.821 12.194,1.967 11.646,1.376 10.87,1 10,1 8.615,1 7.461,1.944 7.116,3.22 6.77,3.081 6.395,3 6,3 4.343,3 3,4.343 3,6 3,6.364 3.075,6.708 3.193,7.031 1.959,7.184 1,8.224 1,9.5 1,9.815 1.065,10.113 1.171,10.39 0.469,10.833 0,11.609 0,12.5 0,13.378 0.455,14.148 1.141,14.594 1.053,14.875 1,15.179 1,15.5 1,16.881 1.895,18 3,18 3.327,18 3.63,17.893 3.903,17.719 4.347,19.162 5,19.982 5,18 5,16.415 5.013,15.448 5.76,13.919 6.949,14.322 8.668,14.078 10.293,13.14 10.575,12.977 10.838,12.8 11.086,12.615 11.464,13.977 13.072,15 15,15 16.296,15 17.437,14.53 18.167,13.813 18.643,15.072 20.169,16 22,16 c 1.076,0 2.049,-0.322 2.767,-0.841 0.262,0.914 0.272,1.723 0.272,2.841 0,2.348 0.674,1.358 1.119,-0.24 0.256,0.15 0.54,0.24 0.842,0.24 1.105,0 2,-1.119 2,-2.5 0,-0.321 -0.053,-0.625 -0.14,-0.906 C 29.545,14.148 30,13.378 30,12.5 Z"
     id="path10"
     inkscape:connector-curvature="0"
     style="fill:#292f33" />
</svg>
