<?xml version="1.0" encoding="UTF-8" standalone="no"?>
<svg
   xmlns:dc="http://purl.org/dc/elements/1.1/"
   xmlns:cc="http://creativecommons.org/ns#"
   xmlns:rdf="http://www.w3.org/1999/02/22-rdf-syntax-ns#"
   xmlns:svg="http://www.w3.org/2000/svg"
   xmlns="http://www.w3.org/2000/svg"
   xmlns:sodipodi="http://sodipodi.sourceforge.net/DTD/sodipodi-0.dtd"
   xmlns:inkscape="http://www.inkscape.org/namespaces/inkscape"
   viewBox="0 0 36 36.005001"
   id="svg2"
   version="1.1"
   inkscape:version="0.91 r13725"
   sodipodi:docname="1f468-1f3fc-200d-1f3eb.svg"
   width="36"
   height="36.005001">
  <metadata
     id="metadata38">
    <rdf:RDF>
      <cc:Work
         rdf:about="">
        <dc:format>image/svg+xml</dc:format>
        <dc:type
           rdf:resource="http://purl.org/dc/dcmitype/StillImage" />
      </cc:Work>
    </rdf:RDF>
  </metadata>
  <defs
     id="defs36" />
  <sodipodi:namedview
     pagecolor="#ffffff"
     bordercolor="#666666"
     borderopacity="1"
     objecttolerance="10"
     gridtolerance="10"
     guidetolerance="10"
     inkscape:pageopacity="0"
     inkscape:pageshadow="2"
     inkscape:window-width="640"
     inkscape:window-height="480"
     id="namedview34"
     showgrid="false"
     inkscape:zoom="6.5555556"
     inkscape:cx="18"
     inkscape:cy="18.005"
     inkscape:window-x="0"
     inkscape:window-y="0"
     inkscape:window-maximized="0"
     inkscape:current-layer="svg2" />
  <path
     d="m 30,26 c 0,2.209 -1.791,4 -4,4 L 4,30 C 1.791,30 0,28.209 0,26 L 0,4 C 0,1.791 1.791,0 4,0 l 22,0 c 2.209,0 4,1.791 4,4 l 0,22 z"
     id="path4"
     inkscape:connector-curvature="0"
     style="fill:#d99e82" />
  <path
     d="m 28,26 c 0,1.104 -0.896,2 -2,2 L 4,28 C 2.896,28 2,27.104 2,26 L 2,4 C 2,2.895 2.896,2 4,2 l 22,0 c 1.104,0 2,0.895 2,2 l 0,22 z"
     id="path6"
     inkscape:connector-curvature="0"
     style="fill:#5c913b" />
  <path
     d="m 7.515,8.898 c -0.08,0.096 -0.184,0.24 -0.184,0.408 0,0.368 0.272,0.528 0.624,0.528 l 2.67,0 c 0.304,0 0.576,-0.16 0.576,-0.528 0,-0.368 -0.271,-0.528 -0.624,-0.528 l -1.463,0 c 0.679,-0.855 1.919,-1.958 1.919,-3.07 0,-1.015 -0.792,-1.663 -1.775,-1.663 -0.983,0 -1.879,0.807 -1.879,1.815 0,0.311 0.2,0.583 0.584,0.583 0.768,0 0.328,-1.295 1.247,-1.295 0.328,0 0.576,0.288 0.576,0.616 0,0.288 -0.136,0.536 -0.28,0.744 -0.608,0.879 -1.327,1.599 -1.991,2.39 z m -1.307,5.433 -1.159,0 0,-1.16 c 0,-0.288 -0.184,-0.479 -0.48,-0.479 -0.295,0 -0.479,0.192 -0.479,0.479 l 0,1.16 -1.159,0 c -0.296,0 -0.48,0.192 -0.48,0.479 0,0.288 0.184,0.48 0.48,0.48 l 1.159,0 0,1.159 c 0,0.288 0.184,0.479 0.479,0.479 0.296,0 0.48,-0.191 0.48,-0.479 l 0,-1.159 1.159,0 c 0.296,0 0.48,-0.192 0.48,-0.48 0,-0.287 -0.184,-0.479 -0.48,-0.479 z m 4.369,1.447 -1.464,0 c 0.68,-0.855 1.919,-1.958 1.919,-3.07 0,-1.015 -0.792,-1.663 -1.775,-1.663 -0.983,0 -1.879,0.808 -1.879,1.815 0,0.311 0.2,0.583 0.583,0.583 0.768,0 0.328,-1.295 1.248,-1.295 0.328,0 0.576,0.288 0.576,0.616 0,0.288 -0.136,0.536 -0.28,0.744 -0.608,0.879 -1.327,1.599 -1.991,2.391 -0.08,0.096 -0.184,0.24 -0.184,0.408 0,0.368 0.272,0.528 0.624,0.528 l 2.67,0 c 0.304,0 0.576,-0.16 0.576,-0.528 0,-0.369 -0.271,-0.529 -0.623,-0.529 z m 0.84,3.192 -8.334,0 c -0.276,0 -0.5,-0.224 -0.5,-0.5 0,-0.276 0.224,-0.5 0.5,-0.5 l 8.333,0 c 0.276,0 0.5,0.224 0.5,0.5 10e-4,0.276 -0.223,0.5 -0.499,0.5 z"
     id="path8"
     inkscape:connector-curvature="0"
     style="fill:#ffffff" />
  <path
     d="m 36,36 0,-2 c 0,-3.314 -2.686,-6 -6,-6 l -16,0 c -3.313,0 -6,2.686 -6,6 l 0,2 28,0 z"
     id="path10"
     inkscape:connector-curvature="0"
     style="fill:#e1e8ed" />
  <path
     d="m 17.64,28.101 c 1.744,1.268 2.848,1.55 4.36,1.55 1.512,0 2.615,-0.283 4.359,-1.55 l 0,-3.811 -8.72,0 0,3.811 z"
     id="path12"
     inkscape:connector-curvature="0"
     style="fill:#f3d2a2" />
  <path
     d="m 17.632,25.973 c 1.216,1.374 2.724,1.746 4.364,1.746 1.639,0 3.146,-0.373 4.363,-1.746 l 0,-3.491 -8.728,0 0,3.491 z"
     id="path14"
     inkscape:connector-curvature="0"
     style="fill:#e2c196" />
  <path
     d="m 15.444,15.936 c 0,1.448 -0.734,2.622 -1.639,2.622 -0.905,0 -1.639,-1.174 -1.639,-2.622 0,-1.448 0.734,-2.623 1.639,-2.623 0.905,-0.001 1.639,1.174 1.639,2.623 m 16.389,0 c 0,1.448 -0.733,2.622 -1.639,2.622 -0.905,0 -1.639,-1.174 -1.639,-2.622 0,-1.448 0.733,-2.623 1.639,-2.623 0.906,-0.001 1.639,1.174 1.639,2.623"
     id="path16"
     inkscape:connector-curvature="0"
     style="fill:#f3d2a2" />
  <path
     d="m 13.477,16.959 c 0,-5.589 3.816,-10.121 8.523,-10.121 4.707,0 8.522,4.532 8.522,10.121 0,5.589 -3.815,10.121 -8.522,10.121 -4.706,0 -8.523,-4.531 -8.523,-10.121"
     id="path18"
     inkscape:connector-curvature="0"
     style="fill:#f3d2a2" />
  <path
     d="M 26.525,21.346 25.257,21.072 C 24.853,20.978 24.084,21 23.722,21 l -3.689,0 c -0.362,0 -1.131,-0.022 -1.536,0.071 l -1.266,0.274 c -0.348,0.101 -0.55,0.393 -0.45,0.74 0.082,0.288 0.345,0.441 0.63,0.441 0.059,0 0.12,-0.026 0.18,-0.042 l 1.267,-0.371 c -0.143,0.191 -0.181,0.446 -0.066,0.676 0.115,0.228 0.347,0.36 0.587,0.36 0.099,0 0.199,-0.024 0.293,-0.071 l 1.034,-0.518 c 0.022,0.215 0.139,0.414 0.346,0.518 0.094,0.046 0.195,0.069 0.293,0.069 0.241,0 0.473,-0.134 0.587,-0.363 L 22,22.646 21.947,22.784 c 0.114,0.229 0.224,0.363 0.465,0.363 0.098,0 0.198,-0.023 0.292,-0.069 0.207,-0.104 0.323,-0.303 0.347,-0.518 l 1.033,0.518 c 0.095,0.047 0.195,0.071 0.293,0.071 0.241,0 0.472,-0.132 0.587,-0.36 0.114,-0.229 0.076,-0.484 -0.066,-0.676 l 1.266,0.371 c 0.059,0.016 0.121,0.042 0.181,0.042 0.285,0 0.547,-0.152 0.63,-0.441 0.099,-0.347 -0.102,-0.639 -0.45,-0.739 z M 22,3.48 c 5.648,0 9.178,4.168 9.178,7.641 0,3.473 -0.706,4.863 -1.412,3.473 l -1.412,-2.778 c 0,0 -4.235,0 -5.647,-1.39 0,0 2.118,4.168 -2.118,0 0,0 0.706,2.779 -3.53,-0.694 0,0 -2.118,1.389 -2.824,4.862 -0.196,0.964 -1.412,0 -1.412,-3.473 C 12.822,7.648 15.646,3.48 22,3.48"
     id="path20"
     inkscape:connector-curvature="0"
     style="fill:#ffe51e" />
  <path
     d="m 18,17 c -0.55,0 -1,-0.45 -1,-1 l 0,-1 c 0,-0.55 0.45,-1 1,-1 0.55,0 1,0.45 1,1 l 0,1 c 0,0.55 -0.45,1 -1,1 m 8,0 c -0.55,0 -1,-0.45 -1,-1 l 0,-1 c 0,-0.55 0.45,-1 1,-1 0.55,0 1,0.45 1,1 l 0,1 c 0,0.55 -0.45,1 -1,1"
     id="path22"
     inkscape:connector-curvature="0"
     style="fill:#662113" />
  <path
     d="m 22.75,19.75 -1.5,0 c -0.413,0 -0.75,-0.337 -0.75,-0.75 0,-0.413 0.337,-0.75 0.75,-0.75 l 1.5,0 c 0.413,0 0.75,0.337 0.75,0.75 0,0.413 -0.337,0.75 -0.75,0.75"
     id="path24"
     inkscape:connector-curvature="0"
     style="fill:#c1694f" />
  <path
     d="m 21.94,30.883 c 0,0 3.381,2.494 4.094,2.777 0.156,0.062 -0.367,-3.656 -0.367,-3.656 l -7.453,0 c 0,0 -0.524,3.781 -0.235,3.625 0.64,-0.342 3.961,-2.746 3.961,-2.746"
     id="path26"
     inkscape:connector-curvature="0"
     style="fill:#99aab5" />
  <path
     d="m 23.252,33.441 c 0,0 0.375,-0.625 0.531,-0.906 0.182,-0.328 0.453,-1.57 0.453,-1.57 l -2.188,-0.961 c 0,-0.008 -0.16,0.006 -0.16,0.006 l -0.184,0.041 -0.172,0.062 c -0.219,0.07 0.094,0.008 0.094,0.016 l -1.975,0.836 c 0,0 0.287,1.242 0.471,1.57 0.156,0.281 0.527,0.906 0.527,0.906 0,0 -0.752,0.562 -1.035,2.564 l 4.667,0 C 24.002,34.41 23.252,33.441 23.252,33.441"
     id="path28"
     inkscape:connector-curvature="0"
     style="fill:#be1931" />
  <path
     d="m 17.229,26.629 c 0.565,0.566 4.71,3.383 4.71,3.383 0,0 -2.125,1.242 -4.086,3.535 -0.195,0.23 -1.542,-4.625 -1.584,-5.709 -0.011,-0.303 0.69,-1.481 0.96,-1.209 m 9.441,0 c -0.566,0.566 -4.709,3.383 -4.709,3.383 0,0 2.125,1.242 4.084,3.535 0.195,0.23 1.541,-4.625 1.582,-5.709 0.012,-0.303 -0.687,-1.481 -0.957,-1.209"
     id="path30"
     inkscape:connector-curvature="0"
     style="fill:#f5f8fa" />
  <path
     d="m 21.955,30.691 c 0.389,-0.021 1.543,0.771 1.422,1.25 -0.461,1.828 -0.85,1.391 -1.391,1.391 -0.611,0 -0.965,0.473 -1.391,-1.312 -0.093,-0.387 0.798,-1.297 1.36,-1.329 m 2.031,5.313 -4.023,0 c 0,0 0.541,-2.166 2.018,-2.166 1.476,0 2.005,2.166 2.005,2.166"
     id="path32"
     inkscape:connector-curvature="0"
     style="fill:#dd2e44" />
</svg>
