<?xml version="1.0" encoding="UTF-8" standalone="no"?>
<svg
   xmlns:dc="http://purl.org/dc/elements/1.1/"
   xmlns:cc="http://creativecommons.org/ns#"
   xmlns:rdf="http://www.w3.org/1999/02/22-rdf-syntax-ns#"
   xmlns:svg="http://www.w3.org/2000/svg"
   xmlns="http://www.w3.org/2000/svg"
   xmlns:sodipodi="http://sodipodi.sourceforge.net/DTD/sodipodi-0.dtd"
   xmlns:inkscape="http://www.inkscape.org/namespaces/inkscape"
   viewBox="0 0 32.009945 36"
   id="svg2"
   version="1.1"
   inkscape:version="0.91 r13725"
   sodipodi:docname="1f478-1f3fd.svg"
   width="32.009945"
   height="36">
  <metadata
     id="metadata28">
    <rdf:RDF>
      <cc:Work
         rdf:about="">
        <dc:format>image/svg+xml</dc:format>
        <dc:type
           rdf:resource="http://purl.org/dc/dcmitype/StillImage" />
      </cc:Work>
    </rdf:RDF>
  </metadata>
  <defs
     id="defs26" />
  <sodipodi:namedview
     pagecolor="#ffffff"
     bordercolor="#666666"
     borderopacity="1"
     objecttolerance="10"
     gridtolerance="10"
     guidetolerance="10"
     inkscape:pageopacity="0"
     inkscape:pageshadow="2"
     inkscape:window-width="640"
     inkscape:window-height="480"
     id="namedview24"
     showgrid="false"
     inkscape:zoom="6.5555556"
     inkscape:cx="16.009944"
     inkscape:cy="18"
     inkscape:window-x="0"
     inkscape:window-y="0"
     inkscape:window-maximized="0"
     inkscape:current-layer="svg2" />
  <path
     d="m 16.009944,4 c 6,0 16,3 16,16 0,13 0,16 -3,16 -3,0 -7,-3 -13,-3 -6,0 -9.9150003,3 -13.0000003,3 -3.343,0 -3,-12 -3,-16 0,-13 10.0000003,-16 16.0000003,-16 z"
     id="path4"
     inkscape:connector-curvature="0"
     style="fill:#963b22" />
  <path
     d="m 4.0099437,19.562 c 0,-8.526 5.373,-15.438 12.0000003,-15.438 6.627,0 12,6.912 12,15.438 0,8.526 -5.373,15.438 -12,15.438 C 9.3829437,35 4.0099437,28.088 4.0099437,19.562 Z"
     id="path6"
     inkscape:connector-curvature="0"
     style="fill:#d5ab88" />
  <path
     d="m 16.009944,31 c -2.347,0 -3.575,-1.16 -3.707,-1.293 -0.391,-0.391 -0.391,-1.023 0,-1.414 0.387,-0.388 1.013,-0.39 1.404,-0.01 0.051,0.047 0.806,0.717 2.303,0.717 1.519,0 2.273,-0.69 2.305,-0.719 0.399,-0.374 1.027,-0.363 1.408,0.029 0.379,0.393 0.38,1.011 -0.006,1.397 -0.132,0.133 -1.36,1.293 -3.707,1.293 z"
     id="path8"
     inkscape:connector-curvature="0"
     style="fill:#df1f32" />
  <path
     d="m 17.009944,26 -2,0 c -0.552,0 -1,-0.447 -1,-1 0,-0.553 0.448,-1 1,-1 l 2,0 c 0.553,0 1,0.447 1,1 0,0.553 -0.447,1 -1,1 z"
     id="path10"
     inkscape:connector-curvature="0"
     style="fill:#c1694f" />
  <path
     d="m 1.0739437,25 c -0.03,-0.325 -0.064,-0.647 -0.064,-1 0,-5 3,0.562 3,-3 0,-3.563 2,-4 4,-6 l 3.0000003,-3 c 0,0 5,3 9,3 4,0 8,2 8,6 0,4 3,-2 3,3 0,0.355 -0.033,0.673 -0.058,1 l 1.049,0 c 0.009,-1.477 0.009,-3.132 0.009,-5 0,-13 -10,-18 -16,-18 -6,0 -16.0000003,5 -16.0000003,18 0,1.158 -0.028,2.986 0.012,5 l 1.052,0 z"
     id="path12"
     inkscape:connector-curvature="0"
     style="fill:#963b22" />
  <path
     d="m 6.0099437,6 20.0000003,0 0,-1 -3,-1 -2,-3 -3,1 -2,-2 -2,2 -3,-1 -2.0000003,3 -3,1 z"
     id="path14"
     inkscape:connector-curvature="0"
     style="fill:#a7a9ac" />
  <ellipse
     cx="16.009943"
     cy="3.5"
     rx="1"
     ry="1.5"
     id="ellipse16"
     style="fill:#f1f2f2" />
  <circle
     cx="12.009944"
     cy="4"
     r="1"
     id="circle18"
     style="fill:#f1f2f2" />
  <circle
     cx="20.009943"
     cy="4"
     r="1"
     id="circle20"
     style="fill:#f1f2f2" />
  <path
     d="m 11.009944,23 c -0.552,0 -1,-0.447 -1,-1 l 0,-2 c 0,-0.553 0.448,-1 1,-1 0.552,0 1,0.447 1,1 l 0,2 c 0,0.553 -0.448,1 -1,1 z m 10,0 c -0.553,0 -1,-0.447 -1,-1 l 0,-2 c 0,-0.553 0.447,-1 1,-1 0.553,0 1,0.447 1,1 l 0,2 c 0,0.553 -0.447,1 -1,1 z"
     id="path22"
     inkscape:connector-curvature="0"
     style="fill:#662113" />
</svg>
