<?xml version="1.0" encoding="UTF-8" standalone="no"?>
<svg
   xmlns:dc="http://purl.org/dc/elements/1.1/"
   xmlns:cc="http://creativecommons.org/ns#"
   xmlns:rdf="http://www.w3.org/1999/02/22-rdf-syntax-ns#"
   xmlns:svg="http://www.w3.org/2000/svg"
   xmlns="http://www.w3.org/2000/svg"
   xmlns:sodipodi="http://sodipodi.sourceforge.net/DTD/sodipodi-0.dtd"
   xmlns:inkscape="http://www.inkscape.org/namespaces/inkscape"
   viewBox="0 0 32.009945 34"
   id="svg2"
   version="1.1"
   inkscape:version="0.91 r13725"
   sodipodi:docname="1f471-200d-2640-fe0f.svg"
   width="32.009945"
   height="34">
  <metadata
     id="metadata26">
    <rdf:RDF>
      <cc:Work
         rdf:about="">
        <dc:format>image/svg+xml</dc:format>
        <dc:type
           rdf:resource="http://purl.org/dc/dcmitype/StillImage" />
      </cc:Work>
    </rdf:RDF>
  </metadata>
  <defs
     id="defs24" />
  <sodipodi:namedview
     pagecolor="#ffffff"
     bordercolor="#666666"
     borderopacity="1"
     objecttolerance="10"
     gridtolerance="10"
     guidetolerance="10"
     inkscape:pageopacity="0"
     inkscape:pageshadow="2"
     inkscape:window-width="640"
     inkscape:window-height="480"
     id="namedview22"
     showgrid="false"
     inkscape:zoom="6.5555556"
     inkscape:cx="16.009944"
     inkscape:cy="17"
     inkscape:window-x="0"
     inkscape:window-y="0"
     inkscape:window-maximized="0"
     inkscape:current-layer="svg2" />
  <path
     d="m 16.009944,2 c 6,0 16,3 16,16 0,13 0,16 -3,16 -3,0 -7,-3 -13,-3 -6,0 -9.9150003,3 -13.0000003,3 -3.343,0 -3,-12 -3,-16 0,-13 10.0000003,-16 16.0000003,-16 z"
     id="path4"
     inkscape:connector-curvature="0"
     style="fill:#ffe51e" />
  <path
     d="m 4.0099437,17.562 c 0,-8.526 5.373,-15.438 12.0000003,-15.438 6.627,0 12,6.912 12,15.438 0,8.526 -5.373,15.438 -12,15.438 C 9.3829437,33 4.0099437,26.088 4.0099437,17.562 Z"
     id="path6"
     inkscape:connector-curvature="0"
     style="fill:#ffdc5d" />
  <path
     d="m 11.281944,31.665 -0.169,-0.098 C 7.0109437,29.211 4.3299437,24.183 4.1149437,18.446 c 0.191,-2.32 1.35,-3.255 2.577,-4.246 0.44,-0.355 0.896,-0.723 1.35,-1.177 l 3.1250003,-3.125 0.319,0.191 c 0.047,0.028 4.703,2.793 8.339,2.793 3.624,0 7.696,1.762 8.071,5.629 -0.249,5.741 -2.927,10.717 -6.985,13.052 l -0.169,0.098 -0.188,-0.049 c -1.319,-0.34 -7.771,-0.338 -9.083,0.003 l -0.189,0.05 z m 0.038,-20.57 -2.6040003,2.603 c -0.49,0.49 -0.986,0.891 -1.425,1.245 -1.201,0.969 -2.068,1.669 -2.224,3.526 0.201,5.279 2.634,9.947 6.3650003,12.18 1.716,-0.322 7.439,-0.324 9.16,-0.003 3.69,-2.212 6.12,-6.831 6.354,-12.108 -0.316,-3.208 -3.913,-4.699 -7.12,-4.699 -3.368,-0.001 -7.349,-2.093 -8.506,-2.744 z"
     id="path8"
     inkscape:connector-curvature="0"
     style="fill:#ffac33" />
  <path
     d="m 5.1279437,19 c 0,-7.732 4.872,-14 10.8820003,-14 6.01,0 10.882,6.268 10.882,14 0,7.731 -4.873,14 -10.882,14 C 9.9999437,33 5.1279437,26.732 5.1279437,19 Z"
     id="path10"
     inkscape:connector-curvature="0"
     style="fill:#ffdc5d" />
  <path
     d="m 26.947944,18.604 c -0.318,-3.275 -3.915,-4.767 -7.122,-4.767 -3.367,0 -7.349,-2.092 -8.506,-2.743 l -2.6040003,2.603 c -0.49,0.49 -0.986,0.891 -1.425,1.245 -1.201,0.969 -2.068,1.669 -2.224,3.526 l -0.95,-0.08 c 0.19,-2.262 1.349,-3.198 2.575,-4.188 0.44,-0.355 0.896,-0.723 1.35,-1.177 l 3.1250003,-3.125 0.319,0.191 c 0.047,0.028 4.703,2.793 8.339,2.793 3.624,0 7.696,1.762 8.071,5.629 l -0.948,0.093 z"
     id="path12"
     inkscape:connector-curvature="0"
     style="fill:#ffac33" />
  <path
     d="m 1.0739437,23 c -0.03,-0.325 -0.064,-0.647 -0.064,-1 0,-5 3,0.562 3,-3 0,-3.563 2,-4 4,-6 l 3.0000003,-3 c 0,0 5,3 9,3 4,0 8,2 8,6 0,4 3,-2 3,3 0,0.355 -0.033,0.673 -0.058,1 l 1.049,0 c 0.009,-1.477 0.009,-3.132 0.009,-5 0,-13 -10,-18 -16,-18 -6,0 -16.0000003,5 -16.0000003,18 0,1.158 -0.028,2.986 0.012,5 l 1.052,0 z"
     id="path14"
     inkscape:connector-curvature="0"
     style="fill:#ffe51e" />
  <path
     d="m 16.009944,29 c -2.347,0 -3.575,-1.16 -3.707,-1.293 -0.391,-0.391 -0.391,-1.023 0,-1.414 0.387,-0.387 1.013,-0.39 1.404,-0.01 0.051,0.047 0.806,0.717 2.303,0.717 1.519,0 2.273,-0.69 2.305,-0.719 0.398,-0.373 1.027,-0.362 1.408,0.029 0.379,0.393 0.38,1.011 -0.006,1.397 -0.132,0.133 -1.36,1.293 -3.707,1.293 z"
     id="path16"
     inkscape:connector-curvature="0"
     style="fill:#df1f32" />
  <path
     d="m 17.009944,24 -2,0 c -0.552,0 -1,-0.447 -1,-1 0,-0.553 0.448,-1 1,-1 l 2,0 c 0.553,0 1,0.447 1,1 0,0.553 -0.447,1 -1,1 z"
     id="path18"
     inkscape:connector-curvature="0"
     style="fill:#c1694f" />
  <path
     d="m 11.009944,21 c -0.552,0 -1,-0.447 -1,-1 l 0,-2 c 0,-0.552 0.448,-1 1,-1 0.552,0 1,0.448 1,1 l 0,2 c 0,0.553 -0.448,1 -1,1 z m 10,0 c -0.553,0 -1,-0.447 -1,-1 l 0,-2 c 0,-0.552 0.447,-1 1,-1 0.553,0 1,0.448 1,1 l 0,2 c 0,0.553 -0.447,1 -1,1 z"
     id="path20"
     inkscape:connector-curvature="0"
     style="fill:#662113" />
</svg>
