<?xml version="1.0" encoding="UTF-8" standalone="no"?>
<svg
   xmlns:dc="http://purl.org/dc/elements/1.1/"
   xmlns:cc="http://creativecommons.org/ns#"
   xmlns:rdf="http://www.w3.org/1999/02/22-rdf-syntax-ns#"
   xmlns:svg="http://www.w3.org/2000/svg"
   xmlns="http://www.w3.org/2000/svg"
   xmlns:sodipodi="http://sodipodi.sourceforge.net/DTD/sodipodi-0.dtd"
   xmlns:inkscape="http://www.inkscape.org/namespaces/inkscape"
   viewBox="0 0 36 34"
   id="svg2"
   version="1.1"
   inkscape:version="0.91 r13725"
   sodipodi:docname="1f47b.svg"
   width="36"
   height="34">
  <metadata
     id="metadata18">
    <rdf:RDF>
      <cc:Work
         rdf:about="">
        <dc:format>image/svg+xml</dc:format>
        <dc:type
           rdf:resource="http://purl.org/dc/dcmitype/StillImage" />
      </cc:Work>
    </rdf:RDF>
  </metadata>
  <defs
     id="defs16" />
  <sodipodi:namedview
     pagecolor="#ffffff"
     bordercolor="#666666"
     borderopacity="1"
     objecttolerance="10"
     gridtolerance="10"
     guidetolerance="10"
     inkscape:pageopacity="0"
     inkscape:pageshadow="2"
     inkscape:window-width="640"
     inkscape:window-height="480"
     id="namedview14"
     showgrid="false"
     inkscape:zoom="6.5555556"
     inkscape:cx="18"
     inkscape:cy="17"
     inkscape:window-x="0"
     inkscape:window-y="0"
     inkscape:window-maximized="0"
     inkscape:current-layer="svg2" />
  <path
     d="m 36,10 c 0,-1.104 -0.896,-2 -2,-2 -1.104,0 -2,0.896 -2,2 0,0 -0.011,3.285 -3,3.894 L 29,11 C 29,4.925 24.075,0 18,0 11.925,0 7,4.925 7,11 l 0,3.237 C 1.778,15.806 0,22.231 0,26 c 0,1.104 0.896,2 2,2 1.104,0 2,-0.896 2,-2 0,0 0.002,-3.54 3.336,-3.958 C 7.838,26.883 8.954,32 11,32 l 1,0 c 4,0 3,2 7,2 4,0 3,-2 6,-2 3,0 2.395,2 6,2 1.657,0 3,-1.343 3,-3 0,-0.675 -2.274,-4.994 -3.755,-9.268 C 35.981,20.348 36,13.58 36,10 Z"
     id="path4"
     inkscape:connector-curvature="0"
     style="fill:#e1e8ed" />
  <circle
     cx="13"
     cy="11"
     r="2"
     id="circle6"
     style="fill:#292f33" />
  <circle
     cx="23"
     cy="11"
     r="4"
     id="circle8"
     style="fill:#292f33" />
  <circle
     cx="23"
     cy="12"
     r="2"
     id="circle10"
     style="fill:#9aaab4" />
  <path
     d="m 22.192,18.491 c 2.65,1.987 3.591,5.211 2.1,7.199 -1.491,1.988 -4.849,1.988 -7.5,0 -2.65,-1.987 -3.591,-5.211 -2.1,-7.199 1.492,-1.989 4.849,-1.988 7.5,0 z"
     id="path12"
     inkscape:connector-curvature="0"
     style="fill:#292f33" />
</svg>
