<?xml version="1.0" encoding="UTF-8" standalone="no"?>
<svg
   xmlns:dc="http://purl.org/dc/elements/1.1/"
   xmlns:cc="http://creativecommons.org/ns#"
   xmlns:rdf="http://www.w3.org/1999/02/22-rdf-syntax-ns#"
   xmlns:svg="http://www.w3.org/2000/svg"
   xmlns="http://www.w3.org/2000/svg"
   xmlns:sodipodi="http://sodipodi.sourceforge.net/DTD/sodipodi-0.dtd"
   xmlns:inkscape="http://www.inkscape.org/namespaces/inkscape"
   viewBox="0 0 34 34"
   id="svg2"
   version="1.1"
   inkscape:version="0.91 r13725"
   sodipodi:docname="1f474-1f3fb.svg"
   width="34"
   height="34">
  <metadata
     id="metadata18">
    <rdf:RDF>
      <cc:Work
         rdf:about="">
        <dc:format>image/svg+xml</dc:format>
        <dc:type
           rdf:resource="http://purl.org/dc/dcmitype/StillImage" />
      </cc:Work>
    </rdf:RDF>
  </metadata>
  <defs
     id="defs16" />
  <sodipodi:namedview
     pagecolor="#ffffff"
     bordercolor="#666666"
     borderopacity="1"
     objecttolerance="10"
     gridtolerance="10"
     guidetolerance="10"
     inkscape:pageopacity="0"
     inkscape:pageshadow="2"
     inkscape:window-width="640"
     inkscape:window-height="480"
     id="namedview14"
     showgrid="false"
     inkscape:zoom="6.5555556"
     inkscape:cx="17"
     inkscape:cy="17"
     inkscape:window-x="0"
     inkscape:window-y="0"
     inkscape:window-maximized="0"
     inkscape:current-layer="svg2" />
  <path
     d="M 31.733,9.633 C 31.733,13.702 25.137,17 17,17 8.863,17 2.267,13.702 2.267,9.633 2.267,5.564 3.4,1 17,1 30.6,1 31.733,5.564 31.733,9.633 Z"
     id="path4"
     inkscape:connector-curvature="0"
     style="fill:#d1d3d4" />
  <path
     d="m 31.167,12.466 c -0.318,0 -0.619,0.103 -0.904,0.258 C 28.903,5.108 23.486,0 17,0 10.513,0 5.097,5.108 3.737,12.724 3.452,12.57 3.151,12.467 2.833,12.467 1.269,12.466 0,14.497 0,17 c 0,2.504 1.269,4.533 2.833,4.533 0.381,0 0.743,-0.124 1.075,-0.342 C 5.503,28.574 10.753,34 17,34 c 6.247,0 11.497,-5.426 13.091,-12.81 0.332,0.219 0.695,0.343 1.076,0.343 C 32.731,21.533 34,19.504 34,17 34,14.497 32.731,12.466 31.167,12.466 Z"
     id="path6"
     inkscape:connector-curvature="0"
     style="fill:#f7dece" />
  <path
     d="M 10.201,18 C 9.834,18 9.481,17.797 9.306,17.447 9.059,16.953 9.26,16.352 9.753,16.105 l 2.267,-1.133 c 0.495,-0.247 1.095,-0.045 1.342,0.447 0.247,0.494 0.046,1.095 -0.447,1.342 l -2.267,1.133 C 10.504,17.966 10.351,18 10.201,18 Z m 13.598,0 c -0.15,0 -0.303,-0.034 -0.446,-0.105 l -2.267,-1.133 c -0.494,-0.247 -0.694,-0.848 -0.447,-1.342 0.246,-0.493 0.849,-0.695 1.342,-0.447 l 2.267,1.133 c 0.494,0.247 0.694,0.848 0.447,1.342 C 24.52,17.797 24.166,18 23.799,18 Z"
     id="path8"
     inkscape:connector-curvature="0"
     style="fill:#662113" />
  <path
     d="m 25,13 -3,0 c -0.553,0 -1,-0.448 -1,-1 0,-0.552 0.447,-1 1,-1 l 3,0 c 0.553,0 1,0.448 1,1 0,0.552 -0.447,1 -1,1 z M 12,13 9,13 C 8.448,13 8,12.552 8,12 8,11.448 8.448,11 9,11 l 3,0 c 0.552,0 1,0.448 1,1 0,0.552 -0.448,1 -1,1 z"
     id="path10"
     inkscape:connector-curvature="0"
     style="fill:#d1d3d4" />
  <path
     d="m 17,29.333 c -2.474,0 -4.879,-1.188 -4.981,-1.238 -0.493,-0.247 -0.693,-0.846 -0.447,-1.34 0.246,-0.495 0.848,-0.692 1.34,-0.45 0.021,0.011 2.094,1.028 4.087,1.028 2.008,0 4.065,-1.017 4.086,-1.027 0.493,-0.244 1.096,-0.047 1.342,0.447 0.247,0.494 0.047,1.095 -0.447,1.342 -0.101,0.051 -2.505,1.238 -4.98,1.238 z M 18,24 16,24 c -0.552,0 -1,-0.447 -1,-1 0,-0.553 0.448,-1 1,-1 l 2,0 c 0.553,0 1,0.447 1,1 0,0.553 -0.447,1 -1,1 z"
     id="path12"
     inkscape:connector-curvature="0"
     style="fill:#c1694f" />
</svg>
