<?xml version="1.0" encoding="UTF-8" standalone="no"?>
<svg
   xmlns:dc="http://purl.org/dc/elements/1.1/"
   xmlns:cc="http://creativecommons.org/ns#"
   xmlns:rdf="http://www.w3.org/1999/02/22-rdf-syntax-ns#"
   xmlns:svg="http://www.w3.org/2000/svg"
   xmlns="http://www.w3.org/2000/svg"
   xmlns:sodipodi="http://sodipodi.sourceforge.net/DTD/sodipodi-0.dtd"
   xmlns:inkscape="http://www.inkscape.org/namespaces/inkscape"
   viewBox="0 0 35.960999 36"
   id="svg2"
   version="1.1"
   inkscape:version="0.91 r13725"
   sodipodi:docname="1f47c.svg"
   width="35.960999"
   height="36">
  <metadata
     id="metadata18">
    <rdf:RDF>
      <cc:Work
         rdf:about="">
        <dc:format>image/svg+xml</dc:format>
        <dc:type
           rdf:resource="http://purl.org/dc/dcmitype/StillImage" />
      </cc:Work>
    </rdf:RDF>
  </metadata>
  <defs
     id="defs16" />
  <sodipodi:namedview
     pagecolor="#ffffff"
     bordercolor="#666666"
     borderopacity="1"
     objecttolerance="10"
     gridtolerance="10"
     guidetolerance="10"
     inkscape:pageopacity="0"
     inkscape:pageshadow="2"
     inkscape:window-width="640"
     inkscape:window-height="480"
     id="namedview14"
     showgrid="false"
     inkscape:zoom="6.5555556"
     inkscape:cx="18"
     inkscape:cy="18"
     inkscape:window-x="0"
     inkscape:window-y="0"
     inkscape:window-maximized="0"
     inkscape:current-layer="svg2" />
  <path
     d="M 0.005,30.093 C 0.002,30.107 0.001,30.12 0,30.134 c 0.001,0.11 0.02,0.215 0.032,0.322 0.009,0.073 0.01,0.15 0.021,0.225 l 0.046,0.2 C 0.715,33.773 4.431,36 8.94,36 c 4.506,0 8.225,-2.227 8.838,-5.119 0.018,-0.066 0.035,-0.131 0.046,-0.199 0.012,-0.074 0.015,-0.151 0.022,-0.227 0.012,-0.106 0.031,-0.211 0.032,-0.321 0,-0.015 -0.004,-0.028 -0.006,-0.041 l 0.006,-0.053 -0.008,0 c -0.051,-1.652 -1.357,-2.979 -2.971,-2.979 -1.617,0 -2.923,1.327 -2.973,2.979 l -0.018,0 c 0.001,-0.031 0.009,-0.061 0.009,-0.093 0,-1.696 -1.334,-3.072 -2.98,-3.072 -1.644,0 -2.978,1.374 -2.98,3.072 0.001,0.032 0.009,0.062 0.012,0.093 l -0.017,0 C 5.901,28.388 4.596,27.061 2.98,27.061 c -1.615,0 -2.921,1.327 -2.97,2.979 L 0,30.039 c 0,0.019 0.005,0.036 0.005,0.054 z m 18.084,0 c -0.004,0.015 -0.005,0.027 -0.006,0.041 0.001,0.11 0.02,0.215 0.031,0.322 0.01,0.073 0.011,0.15 0.021,0.225 0.014,0.069 0.031,0.137 0.046,0.2 0.617,2.892 4.334,5.119 8.841,5.119 4.506,0 8.225,-2.227 8.839,-5.119 0.018,-0.066 0.035,-0.131 0.046,-0.199 0.012,-0.074 0.016,-0.151 0.022,-0.227 0.012,-0.106 0.03,-0.211 0.032,-0.321 0,-0.015 -0.004,-0.028 -0.006,-0.041 l 0.006,-0.053 -0.009,0 c -0.051,-1.652 -1.357,-2.979 -2.971,-2.979 -1.616,0 -2.923,1.327 -2.973,2.979 l -0.018,0 c 0.001,-0.031 0.009,-0.061 0.009,-0.093 0,-1.696 -1.334,-3.072 -2.979,-3.072 -1.644,0 -2.978,1.374 -2.979,3.072 0.002,0.032 0.009,0.062 0.012,0.093 l -0.019,0 c -0.051,-1.652 -1.356,-2.979 -2.972,-2.979 -1.615,0 -2.921,1.327 -2.97,2.979 l -0.01,-10e-4 c 10e-4,0.019 0.007,0.036 0.007,0.054 z"
     id="path4"
     inkscape:connector-curvature="0"
     style="fill:#e1e8ed" />
  <circle
     cx="18"
     cy="21"
     r="12"
     id="circle6"
     style="fill:#ffdc5d" />
  <path
     d="m 18,5.205 c -7.444,0 -13.5,6.056 -13.5,13.5 0,1.9 0.396,3.751 1.178,5.499 0.091,0.202 0.3,0.317 0.526,0.291 0.221,-0.031 0.394,-0.204 0.426,-0.425 0.393,-2.755 2.581,-4.706 4.512,-6.428 1.793,-1.599 3.498,-3.119 3.444,-5.041 6.516,1.171 14.006,6.017 14.784,11.469 0.031,0.221 0.205,0.394 0.426,0.425 0.023,0.003 0.047,0.005 0.069,0.005 0.195,0 0.375,-0.114 0.456,-0.296 0.782,-1.748 1.179,-3.599 1.179,-5.499 0,-7.444 -6.056,-13.5 -13.5,-13.5 z"
     id="path8"
     inkscape:connector-curvature="0"
     style="fill:#ffac33" />
  <path
     d="m 14,27 8,0 c 0,0 -1,2 -4,2 -3,0 -4,-2 -4,-2 z m 2,-5 c 0,0.553 -0.448,1 -1,1 -0.552,0 -1,-0.447 -1,-1 l 0,-2 c 0,-0.553 0.448,-1 1,-1 0.552,0 1,0.447 1,1 l 0,2 z m 6,0 c 0,0.553 -0.447,1 -1,1 -0.553,0 -1,-0.447 -1,-1 l 0,-2 c 0,-0.553 0.447,-1 1,-1 0.553,0 1,0.447 1,1 l 0,2 z"
     id="path10"
     inkscape:connector-curvature="0"
     style="fill:#662113" />
  <path
     d="M 18,0 C 11.373,0 6,2.687 6,6 6,9.313 11.373,12 18,12 24.627,12 30,9.314 30,6 30,2.686 24.627,0 18,0 Z m 0,9 C 13.029,9 9,7.433 9,5.5 9,3.567 13.029,2 18,2 22.971,2 27,3.567 27,5.5 27,7.433 22.971,9 18,9 Z"
     id="path12"
     inkscape:connector-curvature="0"
     style="fill:#8ccaf7" />
</svg>
