<?xml version="1.0" encoding="UTF-8" standalone="no"?>
<svg
   xmlns:dc="http://purl.org/dc/elements/1.1/"
   xmlns:cc="http://creativecommons.org/ns#"
   xmlns:rdf="http://www.w3.org/1999/02/22-rdf-syntax-ns#"
   xmlns:svg="http://www.w3.org/2000/svg"
   xmlns="http://www.w3.org/2000/svg"
   xmlns:sodipodi="http://sodipodi.sourceforge.net/DTD/sodipodi-0.dtd"
   xmlns:inkscape="http://www.inkscape.org/namespaces/inkscape"
   viewBox="0 0 34 36"
   id="svg2"
   version="1.1"
   inkscape:version="0.91 r13725"
   sodipodi:docname="1f47d.svg"
   width="34"
   height="36">
  <metadata
     id="metadata12">
    <rdf:RDF>
      <cc:Work
         rdf:about="">
        <dc:format>image/svg+xml</dc:format>
        <dc:type
           rdf:resource="http://purl.org/dc/dcmitype/StillImage" />
      </cc:Work>
    </rdf:RDF>
  </metadata>
  <defs
     id="defs10" />
  <sodipodi:namedview
     pagecolor="#ffffff"
     bordercolor="#666666"
     borderopacity="1"
     objecttolerance="10"
     gridtolerance="10"
     guidetolerance="10"
     inkscape:pageopacity="0"
     inkscape:pageshadow="2"
     inkscape:window-width="640"
     inkscape:window-height="480"
     id="namedview8"
     showgrid="false"
     inkscape:zoom="6.5555556"
     inkscape:cx="17"
     inkscape:cy="18"
     inkscape:window-x="0"
     inkscape:window-y="0"
     inkscape:window-maximized="0"
     inkscape:current-layer="svg2" />
  <path
     d="M 34,17 C 34,26.389 20.777,36 17,36 13.222,36 0,26.389 0,17 0,7.611 7.611,0 17,0 26.389,0 34,7.611 34,17 Z"
     id="path4"
     inkscape:connector-curvature="0"
     style="fill:#ccd6dd" />
  <path
     d="m 12.503,14.845 c 3.124,3.124 4.39,6.923 2.828,8.485 -1.562,1.562 -5.361,0.297 -8.485,-2.828 -3.125,-3.124 -4.391,-6.923 -2.828,-8.485 1.563,-1.562 5.361,-0.296 8.485,2.828 z m 8.994,0 c -3.124,3.124 -4.39,6.923 -2.828,8.485 1.562,1.562 5.361,0.297 8.485,-2.828 3.125,-3.125 4.391,-6.923 2.828,-8.485 -1.562,-1.562 -5.361,-0.297 -8.485,2.828 z M 17,31 c -2.347,0 -3.575,-1.16 -3.707,-1.293 -0.391,-0.391 -0.391,-1.023 0,-1.414 0.387,-0.387 1.013,-0.391 1.404,-0.01 C 14.748,28.33 15.503,29 17,29 c 1.519,0 2.273,-0.689 2.305,-0.719 0.398,-0.374 1.027,-0.363 1.408,0.029 0.379,0.393 0.38,1.011 -0.006,1.396 C 20.575,29.84 19.347,31 17,31 Z"
     id="path6"
     inkscape:connector-curvature="0"
     style="fill:#292f33" />
</svg>
