<?xml version="1.0" encoding="UTF-8" standalone="no"?>
<svg
   xmlns:dc="http://purl.org/dc/elements/1.1/"
   xmlns:cc="http://creativecommons.org/ns#"
   xmlns:rdf="http://www.w3.org/1999/02/22-rdf-syntax-ns#"
   xmlns:svg="http://www.w3.org/2000/svg"
   xmlns="http://www.w3.org/2000/svg"
   xmlns:sodipodi="http://sodipodi.sourceforge.net/DTD/sodipodi-0.dtd"
   xmlns:inkscape="http://www.inkscape.org/namespaces/inkscape"
   viewBox="0 0 36 36"
   id="svg2"
   version="1.1"
   inkscape:version="0.91 r13725"
   sodipodi:docname="1f487-1f3fe.svg"
   width="36"
   height="36">
  <metadata
     id="metadata32">
    <rdf:RDF>
      <cc:Work
         rdf:about="">
        <dc:format>image/svg+xml</dc:format>
        <dc:type
           rdf:resource="http://purl.org/dc/dcmitype/StillImage" />
      </cc:Work>
    </rdf:RDF>
  </metadata>
  <defs
     id="defs30" />
  <sodipodi:namedview
     pagecolor="#ffffff"
     bordercolor="#666666"
     borderopacity="1"
     objecttolerance="10"
     gridtolerance="10"
     guidetolerance="10"
     inkscape:pageopacity="0"
     inkscape:pageshadow="2"
     inkscape:window-width="640"
     inkscape:window-height="480"
     id="namedview28"
     showgrid="false"
     inkscape:zoom="6.5555556"
     inkscape:cx="18"
     inkscape:cy="18"
     inkscape:window-x="0"
     inkscape:window-y="0"
     inkscape:window-maximized="0"
     inkscape:current-layer="svg2" />
  <path
     d="M 30.169,8.15 15.32,23 c 0,0 -0.707,-2.121 0.707,-3.535 L 28.755,6.736 30.169,8.15 Z"
     id="path4"
     inkscape:connector-curvature="0"
     style="fill:#9aaab4" />
  <path
     d="m 28.755,6.736 c -1.952,1.953 -2.586,4.484 -1.414,5.656 1.172,1.172 3.705,0.539 5.657,-1.414 C 34.95,9.026 35.584,6.494 34.412,5.322 33.24,4.15 30.708,4.783 28.755,6.736 Z m 1.414,1.414 c 1.172,-1.172 2.438,-1.805 2.829,-1.414 0.392,0.391 -0.243,1.656 -1.415,2.828 -1.171,1.172 -2.437,1.805 -2.828,1.414 -0.391,-0.39 0.243,-1.656 1.414,-2.828 z"
     id="path6"
     inkscape:connector-curvature="0"
     style="fill:#67757f" />
  <path
     d="M 20,11 C 20,4.925 15.075,0 9,0 7.279,0 5.657,0.406 4.207,1.111 3.814,1.042 3.412,1 3,1 1.925,1 0.91,1.25 0,1.683 l 0,26.894 c 2.122,1.909 4.92,3.08 8,3.08 3.358,0 6.384,-1.388 8.559,-3.612 C 22.426,28.507 29,36 29,36 l 7,-9 C 21,21 20,11 20,11 Z"
     id="path8"
     inkscape:connector-curvature="0"
     style="fill:#60352a" />
  <path
     d="M 20.61,29.303 C 19.97,27.946 18.6,27 17,27 l -17,0 0,9 21,0 0,-5 c 0,-0.609 -0.147,-1.18 -0.39,-1.697 z"
     id="path10"
     inkscape:connector-curvature="0"
     style="fill:#9268ca" />
  <path
     d="m 16,32 1,0 0,4 -1,0 z"
     id="path12"
     inkscape:connector-curvature="0"
     style="fill:#7450a8" />
  <path
     d="M 4,5 C 4,5 3.99,9.562 0,10.724 l 0,10.394 c 1.044,2.019 2.831,3.591 5,4.359 L 5,28 c 0,1.657 1.343,3 3,3 1.657,0 3,-1.343 3,-3 l 0,-2.523 C 14.494,24.24 17,20.917 17,17 l 0,-5.019 C 5.89,11.605 4,5 4,5 Z"
     id="path14"
     inkscape:connector-curvature="0"
     style="fill:#af7e57" />
  <path
     d="m 12,21 -8,0 c 0,0 1,2 4,2 3,0 4,-2 4,-2 z"
     id="path16"
     inkscape:connector-curvature="0"
     style="fill:#df1f32" />
  <path
     d="m 9,19.5 -2,0 C 6.724,19.5 6.5,19.276 6.5,19 6.5,18.724 6.724,18.5 7,18.5 l 2,0 c 0.276,0 0.5,0.224 0.5,0.5 0,0.276 -0.224,0.5 -0.5,0.5 z"
     id="path18"
     inkscape:connector-curvature="0"
     style="fill:#915a34" />
  <path
     d="M 4,16 C 3.448,16 3,15.552 3,15 l 0,-1 c 0,-0.552 0.448,-1 1,-1 0.552,0 1,0.448 1,1 l 0,1 c 0,0.552 -0.448,1 -1,1 z m 8,0 c -0.552,0 -1,-0.448 -1,-1 l 0,-1 c 0,-0.552 0.448,-1 1,-1 0.552,0 1,0.448 1,1 l 0,1 c 0,0.552 -0.448,1 -1,1 z"
     id="path20"
     inkscape:connector-curvature="0"
     style="fill:#60352a" />
  <path
     d="m 24,6 0,21 c 0,0 2,-1 2,-3 L 26,6 24,6 Z"
     id="path22"
     inkscape:connector-curvature="0"
     style="fill:#9aaab4" />
  <circle
     cx="25"
     cy="12"
     r="1"
     id="circle24"
     style="fill:#67757f" />
  <path
     d="m 23,1 c -1.657,0 -3,2.239 -3,5 0,2.761 1.343,5 3,5 1.657,0 3,-2.239 3,-5 0,-2.761 -1.343,-5 -3,-5 z m 0,8 c -0.553,0 -1,-1.343 -1,-3 0,-1.657 0.447,-3 1,-3 0.553,0 1,1.343 1,3 0,1.657 -0.447,3 -1,3 z"
     id="path26"
     inkscape:connector-curvature="0"
     style="fill:#67757f" />
</svg>
