<?xml version="1.0" encoding="UTF-8" standalone="no"?>
<svg
   xmlns:dc="http://purl.org/dc/elements/1.1/"
   xmlns:cc="http://creativecommons.org/ns#"
   xmlns:rdf="http://www.w3.org/1999/02/22-rdf-syntax-ns#"
   xmlns:svg="http://www.w3.org/2000/svg"
   xmlns="http://www.w3.org/2000/svg"
   xmlns:sodipodi="http://sodipodi.sourceforge.net/DTD/sodipodi-0.dtd"
   xmlns:inkscape="http://www.inkscape.org/namespaces/inkscape"
   viewBox="0 0 32 36"
   id="svg2"
   version="1.1"
   inkscape:version="0.91 r13725"
   sodipodi:docname="1f480.svg"
   width="32"
   height="36">
  <metadata
     id="metadata16">
    <rdf:RDF>
      <cc:Work
         rdf:about="">
        <dc:format>image/svg+xml</dc:format>
        <dc:type
           rdf:resource="http://purl.org/dc/dcmitype/StillImage" />
      </cc:Work>
    </rdf:RDF>
  </metadata>
  <defs
     id="defs14" />
  <sodipodi:namedview
     pagecolor="#ffffff"
     bordercolor="#666666"
     borderopacity="1"
     objecttolerance="10"
     gridtolerance="10"
     guidetolerance="10"
     inkscape:pageopacity="0"
     inkscape:pageshadow="2"
     inkscape:window-width="640"
     inkscape:window-height="480"
     id="namedview12"
     showgrid="false"
     inkscape:zoom="6.5555556"
     inkscape:cx="16"
     inkscape:cy="18"
     inkscape:window-x="0"
     inkscape:window-y="0"
     inkscape:window-maximized="0"
     inkscape:current-layer="svg2" />
  <path
     d="M 32,16 C 32,6 24.837,0 16,0 7.164,0 0,6 0,16 0,21.574 0.002,26.388 6,28.64 L 6,33 c 0,1.657 1.343,3 3,3 1.657,0 3,-1.343 3,-3 l 0,-3.155 c 0.324,0.027 0.659,0.05 1,0.07 L 13,33 c 0,1.657 1.343,3 3,3 1.657,0 3,-1.343 3,-3 l 0,-3.085 c 0.342,-0.021 0.676,-0.043 1,-0.07 L 20,33 c 0,1.657 1.344,3 3,3 1.657,0 3,-1.343 3,-3 l 0,-4.36 C 31.998,26.388 32,21.574 32,16 Z"
     id="path4"
     inkscape:connector-curvature="0"
     style="fill:#ccd6dd" />
  <circle
     cx="9"
     cy="14"
     r="5"
     id="circle6"
     style="fill:#292f33" />
  <circle
     cx="23"
     cy="14"
     r="5"
     id="circle8"
     style="fill:#292f33" />
  <path
     d="M 17.903,23.062 C 17.651,22.449 16.9,22 16,22 15.1,22 14.348,22.449 14.097,23.062 13.465,23.238 13,23.812 13,24.5 c 0,0.828 0.671,1.5 1.5,1.5 0.655,0 1.206,-0.422 1.41,-1.007 C 15.94,24.994 15.969,25 16,25 c 0.031,0 0.06,-0.006 0.09,-0.007 0.205,0.585 0.756,1.007 1.41,1.007 0.828,0 1.5,-0.672 1.5,-1.5 0,-0.688 -0.466,-1.261 -1.097,-1.438 z"
     id="path10"
     inkscape:connector-curvature="0"
     style="fill:#292f33" />
</svg>
