<?xml version="1.0" encoding="UTF-8" standalone="no"?>
<svg
   xmlns:dc="http://purl.org/dc/elements/1.1/"
   xmlns:cc="http://creativecommons.org/ns#"
   xmlns:rdf="http://www.w3.org/1999/02/22-rdf-syntax-ns#"
   xmlns:svg="http://www.w3.org/2000/svg"
   xmlns="http://www.w3.org/2000/svg"
   xmlns:sodipodi="http://sodipodi.sourceforge.net/DTD/sodipodi-0.dtd"
   xmlns:inkscape="http://www.inkscape.org/namespaces/inkscape"
   viewBox="0 0 24 36"
   id="svg2"
   version="1.1"
   inkscape:version="0.91 r13725"
   sodipodi:docname="1f48d.svg"
   width="24"
   height="36">
  <metadata
     id="metadata20">
    <rdf:RDF>
      <cc:Work
         rdf:about="">
        <dc:format>image/svg+xml</dc:format>
        <dc:type
           rdf:resource="http://purl.org/dc/dcmitype/StillImage" />
      </cc:Work>
    </rdf:RDF>
  </metadata>
  <defs
     id="defs18" />
  <sodipodi:namedview
     pagecolor="#ffffff"
     bordercolor="#666666"
     borderopacity="1"
     objecttolerance="10"
     gridtolerance="10"
     guidetolerance="10"
     inkscape:pageopacity="0"
     inkscape:pageshadow="2"
     inkscape:window-width="640"
     inkscape:window-height="480"
     id="namedview16"
     showgrid="false"
     inkscape:zoom="6.5555556"
     inkscape:cx="12"
     inkscape:cy="18"
     inkscape:window-x="0"
     inkscape:window-y="0"
     inkscape:window-maximized="0"
     inkscape:current-layer="svg2" />
  <path
     d="M 12,12 C 5.373,12 0,17.373 0,24 0,30.627 5.373,36 12,36 18.627,36 24,30.627 24,24 24,17.373 18.627,12 12,12 Z m 0,20 c -4.418,0 -8,-3.582 -8,-8 0,-4.418 3.582,-8 8,-8 4.418,0 8,3.582 8,8 0,4.418 -3.582,8 -8,8 z"
     id="path4"
     inkscape:connector-curvature="0"
     style="fill:#9aaab4" />
  <path
     d="M 23,5 19,0 5,0 1,5 12,14 Z"
     id="path6"
     inkscape:connector-curvature="0"
     style="fill:#5dadec" />
  <path
     d="M 23,5 19,0 5,0 1,5 12,5 Z"
     id="path8"
     inkscape:connector-curvature="0"
     style="fill:#8ccaf7" />
  <path
     d="m 23,5 -4,-5 -7,0 0,5 1,0 z"
     id="path10"
     inkscape:connector-curvature="0"
     style="fill:#5dadec" />
  <path
     d="M 12,5 23,5 12,14 Z"
     id="path12"
     inkscape:connector-curvature="0"
     style="fill:#8ccaf7" />
  <path
     d="m 19,13 c 0,1.657 -1.343,3 -3,3 L 8,16 C 6.343,16 5,14.657 5,13 5,11.343 6.343,10 8,10 l 8,0 c 1.657,0 3,1.343 3,3 z"
     id="path14"
     inkscape:connector-curvature="0"
     style="fill:#9aaab4" />
</svg>
