<?xml version="1.0" encoding="UTF-8" standalone="no"?>
<svg
   xmlns:dc="http://purl.org/dc/elements/1.1/"
   xmlns:cc="http://creativecommons.org/ns#"
   xmlns:rdf="http://www.w3.org/1999/02/22-rdf-syntax-ns#"
   xmlns:svg="http://www.w3.org/2000/svg"
   xmlns="http://www.w3.org/2000/svg"
   xmlns:sodipodi="http://sodipodi.sourceforge.net/DTD/sodipodi-0.dtd"
   xmlns:inkscape="http://www.inkscape.org/namespaces/inkscape"
   viewBox="0 0 26 36"
   id="svg2"
   version="1.1"
   inkscape:version="0.91 r13725"
   sodipodi:docname="1f486-1f3fb-200d-2642-fe0f.svg"
   width="26"
   height="36">
  <metadata
     id="metadata36">
    <rdf:RDF>
      <cc:Work
         rdf:about="">
        <dc:format>image/svg+xml</dc:format>
        <dc:type
           rdf:resource="http://purl.org/dc/dcmitype/StillImage" />
      </cc:Work>
    </rdf:RDF>
  </metadata>
  <defs
     id="defs34" />
  <sodipodi:namedview
     pagecolor="#ffffff"
     bordercolor="#666666"
     borderopacity="1"
     objecttolerance="10"
     gridtolerance="10"
     guidetolerance="10"
     inkscape:pageopacity="0"
     inkscape:pageshadow="2"
     inkscape:window-width="640"
     inkscape:window-height="480"
     id="namedview32"
     showgrid="false"
     inkscape:zoom="6.5555556"
     inkscape:cx="13"
     inkscape:cy="18"
     inkscape:window-x="0"
     inkscape:window-y="0"
     inkscape:window-maximized="0"
     inkscape:current-layer="svg2" />
  <path
     d="m 10,22 0,6 c 0,1.657 1.343,3 3,3 1.657,0 3,-1.343 3,-3 l 0,-6 -6,0 z"
     id="path4"
     inkscape:connector-curvature="0"
     style="fill:#f7dece" />
  <path
     d="M 22,27 4,27 c -2.209,0 -4,1.791 -4,4 l 0,5 26,0 0,-5 c 0,-2.209 -1.791,-4 -4,-4 z"
     id="path6"
     inkscape:connector-curvature="0"
     style="fill:#4289c1" />
  <path
     d="m 21,32 1,0 0,4 -1,0 z m -17,0 1,0 0,4 -1,0 z"
     id="path8"
     inkscape:connector-curvature="0"
     style="fill:#2a6797" />
  <path
     d="m 10,22 0,6 c 0,1.657 1.343,3 3,3 1.657,0 3,-1.343 3,-3 l 0,-6 -6,0 z"
     id="path10"
     inkscape:connector-curvature="0"
     style="fill:#f7dece" />
  <path
     d="M 4,5.938 4,17 c 0,4.971 4.029,9 9,9 4.971,0 9,-4.029 9,-9 L 22,6.25 4,5.938 Z"
     id="path12"
     inkscape:connector-curvature="0"
     style="fill:#f7dece" />
  <path
     d="m 5.847,13.715 c 0,1.58 -0.8,2.861 -1.788,2.861 -0.988,0 -1.788,-1.281 -1.788,-2.861 0,-1.58 0.801,-2.861 1.788,-2.861 0.987,0 1.788,1.281 1.788,2.861 z m 17.882,0 c 0,1.58 -0.8,2.861 -1.788,2.861 -0.988,0 -1.788,-1.281 -1.788,-2.861 0,-1.58 0.8,-2.861 1.788,-2.861 0.988,0 1.788,1.281 1.788,2.861 z"
     id="path14"
     inkscape:connector-curvature="0"
     style="fill:#f7dece" />
  <path
     d="m 13,0.823 c -7.019,0 -10.139,4.684 -10.139,8.588 0,3.903 1.343,4.986 1.56,3.903 0.78,-3.903 3.12,-5.101 3.12,-5.101 4.68,3.904 3.9,0.781 3.9,0.781 4.679,4.684 2.34,0 2.34,0 1.56,1.562 6.239,1.562 6.239,1.562 0,0 0.78,1.198 1.559,2.759 0.78,1.562 1.56,0 1.56,-3.903 0,-3.905 -3.9,-8.589 -10.139,-8.589 z"
     id="path16"
     inkscape:connector-curvature="0"
     style="fill:#0b0200" />
  <ellipse
     cx="13"
     cy="22"
     rx="2"
     ry="1"
     id="ellipse18"
     style="fill:#c1694f" />
  <path
     d="m 14,19.5 -2,0 c -0.276,0 -0.5,-0.224 -0.5,-0.5 0,-0.276 0.224,-0.5 0.5,-0.5 l 2,0 c 0.276,0 0.5,0.224 0.5,0.5 0,0.276 -0.224,0.5 -0.5,0.5 z"
     id="path20"
     inkscape:connector-curvature="0"
     style="fill:#c1694f" />
  <path
     d="m 23.613,4.397 -1.953,-1.953 -0.525,0.619 -3.5,-1.271 0,1.58 -2.63,0.607 c -0.603,0.141 -0.98,0.743 -0.841,1.347 0.138,0.604 0.742,0.98 1.345,0.841 l 3.579,-0.825 1.79,1.791 c 0.3,0.3 0.802,0.581 1.329,0.751 l 0.678,5.586 c 0,0 0,0.875 0.875,0.875 0.875,0 0.875,-0.875 0.875,-0.875 l 0,-7 -1.022,-2.073 z"
     id="path22"
     inkscape:connector-curvature="0"
     style="fill:#e0aa94" />
  <path
     d="M 23.957,4.053 22.004,2.1 21.479,0 l -3.5,0 0,3.027 -2.63,0.607 c -0.603,0.141 -0.98,0.743 -0.841,1.347 0.138,0.604 0.742,0.98 1.345,0.841 l 3.579,-0.825 1.79,1.791 c 0.3,0.3 0.802,0.581 1.329,0.751 l 0.678,5.586 c 0,0 0,0.875 0.875,0.875 0.875,0 0.875,-0.875 0.875,-0.875 l 0,-7 -1.022,-2.072 z"
     id="path24"
     inkscape:connector-curvature="0"
     style="fill:#f7dece" />
  <path
     d="m 2.387,4.397 1.953,-1.953 0.525,0.619 3.5,-1.396 0,1.705 2.63,0.607 c 0.603,0.141 0.98,0.743 0.841,1.347 -0.138,0.604 -0.742,0.98 -1.345,0.841 L 6.912,5.342 5.122,7.133 C 4.822,7.433 4.32,7.714 3.793,7.884 L 3.115,13.47 c 0,0 0,0.875 -0.875,0.875 -0.875,0 -0.875,-0.875 -0.875,-0.875 l 0,-7 1.022,-2.073 z"
     id="path26"
     inkscape:connector-curvature="0"
     style="fill:#e0aa94" />
  <path
     d="M 2.043,4.053 3.996,2.1 4.521,0 l 3.5,0 0,3.027 2.63,0.607 c 0.603,0.141 0.98,0.743 0.841,1.347 -0.138,0.604 -0.742,0.98 -1.345,0.841 L 6.568,4.997 4.778,6.788 c -0.3,0.3 -0.802,0.581 -1.329,0.751 l -0.678,5.586 c 0,0 0,0.875 -0.875,0.875 -0.875,0 -0.875,-0.875 -0.875,-0.875 l 0,-7 1.022,-2.072 z"
     id="path28"
     inkscape:connector-curvature="0"
     style="fill:#f7dece" />
  <path
     d="m 18.906,15.056 c -0.088,-0.071 -0.213,-0.074 -0.305,-0.007 -0.006,0.005 -0.63,0.451 -1.851,0.451 -1.22,0 -1.845,-0.446 -1.85,-0.45 -0.091,-0.068 -0.217,-0.067 -0.306,0.004 -0.089,0.071 -0.119,0.193 -0.073,0.297 0.03,0.068 0.751,1.649 2.229,1.649 1.479,0 2.199,-1.581 2.229,-1.648 0.046,-0.104 0.016,-0.225 -0.073,-0.296 z m -7.5,0 C 11.318,14.985 11.193,14.982 11.101,15.049 11.095,15.054 10.471,15.5 9.25,15.5 8.03,15.5 7.405,15.054 7.4,15.05 7.309,14.982 7.183,14.983 7.094,15.054 7.005,15.125 6.975,15.247 7.021,15.351 7.051,15.419 7.772,17 9.25,17 c 1.479,0 2.199,-1.581 2.229,-1.648 0.045,-0.104 0.016,-0.225 -0.073,-0.296 z"
     id="path30"
     inkscape:connector-curvature="0"
     style="fill:#662113" />
</svg>
