<?xml version="1.0" encoding="UTF-8" standalone="no"?>
<svg
   xmlns:dc="http://purl.org/dc/elements/1.1/"
   xmlns:cc="http://creativecommons.org/ns#"
   xmlns:rdf="http://www.w3.org/1999/02/22-rdf-syntax-ns#"
   xmlns:svg="http://www.w3.org/2000/svg"
   xmlns="http://www.w3.org/2000/svg"
   xmlns:sodipodi="http://sodipodi.sourceforge.net/DTD/sodipodi-0.dtd"
   xmlns:inkscape="http://www.inkscape.org/namespaces/inkscape"
   viewBox="0 0 36 36"
   id="svg2"
   version="1.1"
   inkscape:version="0.91 r13725"
   sodipodi:docname="1f485-1f3fe.svg"
   width="36"
   height="36">
  <metadata
     id="metadata18">
    <rdf:RDF>
      <cc:Work
         rdf:about="">
        <dc:format>image/svg+xml</dc:format>
        <dc:type
           rdf:resource="http://purl.org/dc/dcmitype/StillImage" />
      </cc:Work>
    </rdf:RDF>
  </metadata>
  <defs
     id="defs16" />
  <sodipodi:namedview
     pagecolor="#ffffff"
     bordercolor="#666666"
     borderopacity="1"
     objecttolerance="10"
     gridtolerance="10"
     guidetolerance="10"
     inkscape:pageopacity="0"
     inkscape:pageshadow="2"
     inkscape:window-width="640"
     inkscape:window-height="480"
     id="namedview14"
     showgrid="false"
     inkscape:zoom="6.5555556"
     inkscape:cx="18"
     inkscape:cy="18"
     inkscape:window-x="0"
     inkscape:window-y="0"
     inkscape:window-maximized="0"
     inkscape:current-layer="svg2" />
  <path
     d="m 27,36 0,-4 c 0,0 0,-4 4,-4 4,0 4,4 4,4 l 0,4 -8,0 z m -9,0 0,-9 c 0,0 0,-4 4,-4 4,0 4,4 4,4 l 0,9 -8,0 z M 9,36 9,24 c 0,0 0,-4 4,-4 4,0 4,4 4,4 l 0,12 -8,0 z m -9,0 0,-9 c 0,0 0,-4 4,-4 4,0 4,4 4,4 l 0,9 -8,0 z"
     id="path4"
     inkscape:connector-curvature="0"
     style="fill:#af7e57" />
  <path
     d="m 16,24 c 0,-1.657 0,-8 -3,-8 -3,0 -3,6.343 -3,8 0,1.657 1.343,3 3,3 1.657,0 3,-1.343 3,-3 z m -9,3 c 0,-1.657 0,-8 -3,-8 -3,0 -3,6.343 -3,8 0,1.657 1.343,3 3,3 1.657,0 3,-1.343 3,-3 z m 18,0 c 0,-1.657 0,-8 -3,-8 -3,0 -3,6.343 -3,8 0,1.657 1.344,3 3,3 1.657,0 3,-1.343 3,-3 z m 9,5 c 0,-1.657 0,-8 -3,-8 -3,0 -3,6.343 -3,8 0,1.657 1.344,3 3,3 1.657,0 3,-1.343 3,-3 z"
     id="path6"
     inkscape:connector-curvature="0"
     style="fill:#dd2e44" />
  <path
     d="m 13,16 0,4 2,0 c 0,0 2,0 6,-4 l -2,-2 c 0,0 -2,2 -6,2 z"
     id="path8"
     inkscape:connector-curvature="0"
     style="fill:#dd2e44" />
  <path
     d="m 19,14 8,-8 2,2 -8,8 z"
     id="path10"
     inkscape:connector-curvature="0"
     style="fill:#8899a6" />
  <path
     d="m 27,6 c 0,0 -2,-2 0,-4 l 2,-2 7,0 0,5 -3,3 c -2,2 -4,0 -4,0 L 27,6 Z"
     id="path12"
     inkscape:connector-curvature="0"
     style="fill:#8899a6" />
</svg>
