<?xml version="1.0" encoding="UTF-8" standalone="no"?>
<svg
   xmlns:dc="http://purl.org/dc/elements/1.1/"
   xmlns:cc="http://creativecommons.org/ns#"
   xmlns:rdf="http://www.w3.org/1999/02/22-rdf-syntax-ns#"
   xmlns:svg="http://www.w3.org/2000/svg"
   xmlns="http://www.w3.org/2000/svg"
   xmlns:sodipodi="http://sodipodi.sourceforge.net/DTD/sodipodi-0.dtd"
   xmlns:inkscape="http://www.inkscape.org/namespaces/inkscape"
   viewBox="0 0 20 36"
   id="svg2"
   version="1.1"
   inkscape:version="0.91 r13725"
   sodipodi:docname="1f482-1f3fb-200d-2640-fe0f.svg"
   width="20"
   height="36">
  <metadata
     id="metadata30">
    <rdf:RDF>
      <cc:Work
         rdf:about="">
        <dc:format>image/svg+xml</dc:format>
        <dc:type
           rdf:resource="http://purl.org/dc/dcmitype/StillImage" />
      </cc:Work>
    </rdf:RDF>
  </metadata>
  <defs
     id="defs28" />
  <sodipodi:namedview
     pagecolor="#ffffff"
     bordercolor="#666666"
     borderopacity="1"
     objecttolerance="10"
     gridtolerance="10"
     guidetolerance="10"
     inkscape:pageopacity="0"
     inkscape:pageshadow="2"
     inkscape:window-width="640"
     inkscape:window-height="480"
     id="namedview26"
     showgrid="false"
     inkscape:zoom="6.5555556"
     inkscape:cx="10"
     inkscape:cy="18"
     inkscape:window-x="0"
     inkscape:window-y="0"
     inkscape:window-maximized="0"
     inkscape:current-layer="svg2" />
  <path
     d="m 20,36 0,-2.5 C 20,30.187 18.313,28 15,28 L 5,28 c -3.313,0 -5,2.187 -5,5.5 l 0,2.5 20,0 z"
     id="path4"
     inkscape:connector-curvature="0"
     style="fill:#dd2e44" />
  <path
     d="M 19,6 C 19,2.7 16.3,0 13,0 L 7,0 C 3.7,0 1,2.7 1,6 l 0,12 c 0,4.971 4.029,5 9,5 4.971,0 9,-0.029 9,-5 L 19,6 Z"
     id="path6"
     inkscape:connector-curvature="0"
     style="fill:#292f33" />
  <path
     d="m 10,18 -8.321,0 c 0,0 -0.016,1.731 0.01,2.844 0.06,2.517 0.342,5.496 1.539,5.496 1.594,0 3.616,-1.549 6.715,-1.549 3.099,0 5.166,1.549 6.715,1.549 1.293,0 1.506,-1.09 1.542,-5.345 C 18.208,20.149 18.209,18 18.209,18 L 10,18 Z"
     id="path8"
     inkscape:connector-curvature="0"
     style="fill:#292f33" />
  <path
     d="M 16.94,18.883 C 16.94,18.585 16.927,18.291 16.905,18 L 2.983,18 c -0.022,0.291 -0.035,0.585 -0.035,0.883 0,3.545 1.598,6.483 3.915,7.881 l 0,1.749 c 1.249,0.907 2.041,1.153 3.124,1.153 1.083,0 1.874,-0.246 3.124,-1.153 l 0,-1.799 c 2.27,-1.418 3.829,-4.329 3.829,-7.831 z"
     id="path10"
     inkscape:connector-curvature="0"
     style="fill:#f7dece" />
  <path
     d="m 9.944,25.551 c -1.368,0 -2.084,-0.676 -2.161,-0.754 -0.228,-0.228 -0.228,-0.597 0,-0.824 0.226,-0.225 0.59,-0.227 0.819,-0.006 0.03,0.027 0.47,0.418 1.342,0.418 0.885,0 1.325,-0.402 1.344,-0.419 0.232,-0.218 0.599,-0.211 0.821,0.017 0.221,0.229 0.221,0.589 -0.003,0.814 -0.078,0.077 -0.794,0.754 -2.162,0.754 z"
     id="path12"
     inkscape:connector-curvature="0"
     style="fill:#df1f32" />
  <path
     d="m 7.17,20.731 -0.137,0 c -0.358,0 -0.652,-0.293 -0.652,-0.652 l 0,-0.858 c 0,-0.358 0.293,-0.652 0.652,-0.652 l 0.137,0 c 0.358,0 0.652,0.293 0.652,0.652 l 0,0.858 c 0,0.359 -0.293,0.652 -0.652,0.652 z m 5.764,0 -0.137,0 c -0.358,0 -0.652,-0.293 -0.652,-0.652 l 0,-0.858 c 0,-0.358 0.293,-0.652 0.652,-0.652 l 0.137,0 c 0.358,0 0.652,0.293 0.652,0.652 l 0,0.858 c 0,0.359 -0.293,0.652 -0.652,0.652 z"
     id="path14"
     inkscape:connector-curvature="0"
     style="fill:#662113" />
  <path
     d="m 10.679,22.958 -1.391,0 c -0.212,0 -0.385,-0.173 -0.385,-0.385 l 0,-0.081 c 0,-0.212 0.173,-0.385 0.385,-0.385 l 1.391,0 c 0.212,0 0.385,0.173 0.385,0.385 l 0,0.081 c 0,0.212 -0.173,0.385 -0.385,0.385 z"
     id="path16"
     inkscape:connector-curvature="0"
     style="fill:#c1694f" />
  <path
     d="M 5.578,29.492 0.925,30.229 C 0.653,30.272 0.396,30.085 0.353,29.813 L 0.197,28.825 C 0.154,28.553 0.341,28.296 0.613,28.253 l 4.653,-0.737 c 0.272,-0.043 0.529,0.144 0.572,0.416 l 0.156,0.988 c 0.043,0.271 -0.144,0.529 -0.416,0.572 z m 8.87,0 4.653,0.737 c 0.272,0.043 0.529,-0.144 0.572,-0.416 l 0.156,-0.988 c 0.043,-0.272 -0.144,-0.529 -0.416,-0.572 L 14.76,27.516 c -0.272,-0.043 -0.529,0.144 -0.572,0.416 l -0.156,0.988 c -0.043,0.271 0.144,0.529 0.416,0.572 z"
     id="path18"
     inkscape:connector-curvature="0"
     style="fill:#292f33" />
  <path
     d="m 3.875,18 c 0,0 -0.174,9 6.113,9 6.287,0 6.137,-9 6.137,-9 L 17,18 C 17,18 16.693,28 10,28 3.307,28 3,18 3,18 l 0.875,0 z"
     id="path20"
     inkscape:connector-curvature="0"
     style="fill:#99aab5" />
  <path
     d="m 9.5,30 1,0 0,6 -1,0 z"
     id="path22"
     inkscape:connector-curvature="0"
     style="fill:#f5f8fa" />
  <path
     d="m 13.13,26.971 c 0,1.459 -2.071,2.022 -3.13,2.022 -1,0 -3.13,-0.563 -3.13,-2.022 0,0 -0.574,-0.117 -0.574,1.096 0,1.214 1.704,2.778 3.704,2.778 1.956,0 3.704,-1.564 3.704,-2.778 0,-1.213 -0.574,-1.096 -0.574,-1.096 z"
     id="path24"
     inkscape:connector-curvature="0"
     style="fill:#292f33" />
</svg>
