<?xml version="1.0" encoding="UTF-8" standalone="no"?>
<svg
   xmlns:dc="http://purl.org/dc/elements/1.1/"
   xmlns:cc="http://creativecommons.org/ns#"
   xmlns:rdf="http://www.w3.org/1999/02/22-rdf-syntax-ns#"
   xmlns:svg="http://www.w3.org/2000/svg"
   xmlns="http://www.w3.org/2000/svg"
   xmlns:sodipodi="http://sodipodi.sourceforge.net/DTD/sodipodi-0.dtd"
   xmlns:inkscape="http://www.inkscape.org/namespaces/inkscape"
   viewBox="0 0 32.8573 35.66"
   id="svg2"
   version="1.1"
   inkscape:version="0.91 r13725"
   sodipodi:docname="1f487-200d-2642-fe0f.svg"
   width="32.8573"
   height="35.66">
  <metadata
     id="metadata30">
    <rdf:RDF>
      <cc:Work
         rdf:about="">
        <dc:format>image/svg+xml</dc:format>
        <dc:type
           rdf:resource="http://purl.org/dc/dcmitype/StillImage" />
      </cc:Work>
    </rdf:RDF>
  </metadata>
  <defs
     id="defs28" />
  <sodipodi:namedview
     pagecolor="#ffffff"
     bordercolor="#666666"
     borderopacity="1"
     objecttolerance="10"
     gridtolerance="10"
     guidetolerance="10"
     inkscape:pageopacity="0"
     inkscape:pageshadow="2"
     inkscape:window-width="640"
     inkscape:window-height="480"
     id="namedview26"
     showgrid="false"
     inkscape:zoom="6.5555556"
     inkscape:cx="18"
     inkscape:cy="18"
     inkscape:window-x="0"
     inkscape:window-y="0"
     inkscape:window-maximized="0"
     inkscape:current-layer="svg2" />
  <path
     d="M 28.026,18.559 13.177,3.71 c 0,0 -0.707,2.121 0.707,3.536 l 12.728,12.728 1.414,-1.415 z"
     id="path4"
     inkscape:connector-curvature="0"
     style="fill:#9aaab4" />
  <path
     d="m 32.269,21.387 c 1.172,-1.172 0.538,-3.704 -1.414,-5.657 -1.952,-1.952 -4.485,-2.586 -5.657,-1.414 -1.172,1.172 -0.538,3.704 1.414,5.657 1.952,1.953 4.485,2.586 5.657,1.414 z M 26.612,15.73 c 0.391,-0.391 1.657,0.243 2.828,1.414 1.171,1.171 1.805,2.438 1.414,2.828 -0.391,0.39 -1.657,-0.243 -2.828,-1.414 -1.171,-1.171 -1.805,-2.437 -1.414,-2.828 z"
     id="path6"
     inkscape:connector-curvature="0"
     style="fill:#67757f" />
  <path
     d="m 26.5,7.941 c 0,0 -4.42,-0.48 -9.118,-3.255 C 15.587,1.872 12.445,0 8.859,0 7.344,0 5.913,0.344 4.622,0.942 4.747,0.934 5.053,0.927 5.211,0.923 3.223,0.938 1.406,1.667 0,2.866 l 0,12.367 c 0.766,0.655 1.641,1.187 2.613,1.524 1.854,2.121 3.208,3.466 6.246,3.466 5.472,0 9.917,-4.349 10.094,-9.779 2.074,-0.139 5.124,-0.676 7.547,-2.503 z"
     id="path8"
     inkscape:connector-curvature="0"
     style="fill:#ffac33" />
  <path
     d="m 17,26.66 -17,0 0,9 21,0 0,-5 c 0,-2.209 -1.791,-4 -4,-4 z"
     id="path10"
     inkscape:connector-curvature="0"
     style="fill:#4289c1" />
  <path
     d="m 16,31.66 1,0 0,4 -1,0 z"
     id="path12"
     inkscape:connector-curvature="0"
     style="fill:#2a6797" />
  <path
     d="m 18.729,13.375 c 0,-1.548 -0.769,-2.801 -1.729,-2.852 l 0,-0.011 C 10.113,10.493 6.104,7.492 4.049,5.186 3.497,6.919 2.3,9.529 0,10.246 l 0,10.525 c 1.042,2.023 2.834,3.583 5,4.353 l 0,2.536 c 0,1.657 1.343,3 3,3 1.657,0 3,-1.343 3,-3 l 0,-2.523 c 3.493,-1.237 6,-4.56 6,-8.477 l 0,-0.433 c 0.96,-0.051 1.729,-1.304 1.729,-2.852 z"
     id="path14"
     inkscape:connector-curvature="0"
     style="fill:#ffdc5d" />
  <path
     d="m 4,21.66 8,0 c 0,0 -1,2 -4,2 -3,0 -4,-2 -4,-2 z m 5,-2.5 -2,0 c -0.276,0 -0.5,-0.224 -0.5,-0.5 0,-0.276 0.224,-0.5 0.5,-0.5 l 2,0 c 0.276,0 0.5,0.224 0.5,0.5 0,0.276 -0.224,0.5 -0.5,0.5 z"
     id="path16"
     inkscape:connector-curvature="0"
     style="fill:#c1694f" />
  <path
     d="m 4,15.66 c -0.552,0 -1,-0.448 -1,-1 l 0,-1 c 0,-0.552 0.448,-1 1,-1 0.552,0 1,0.448 1,1 l 0,1 c 0,0.552 -0.448,1 -1,1 z m 8,0 c -0.552,0 -1,-0.448 -1,-1 l 0,-1 c 0,-0.552 0.448,-1 1,-1 0.552,0 1,0.448 1,1 l 0,1 c 0,0.552 -0.448,1 -1,1 z"
     id="path18"
     inkscape:connector-curvature="0"
     style="fill:#662113" />
  <path
     d="m 22.143,21.4 -0.001,-21 c 0,0 2,1 2,3 l 0.001,18 -2,0 z"
     id="path20"
     inkscape:connector-curvature="0"
     style="fill:#9aaab4" />
  <circle
     cx="23.076"
     cy="15.023"
     r="1"
     id="circle22"
     style="fill:#67757f" />
  <path
     d="m 24.143,21.4 c -0.001,-2.762 -1.342,-5 -3,-5 -1.657,0 -3.001,2.239 -3,5 0,2.761 1.342,5 3,4.999 1.657,0.002 3,-2.236 3,-4.999 z m -2,0 c 0,1.657 -0.448,3 -1.001,3 -0.553,0.001 -0.999,-1.343 -0.999,-3 -0.001,-1.657 0.447,-2.999 1,-3 0.553,0.001 1,1.344 1,3 z"
     id="path24"
     inkscape:connector-curvature="0"
     style="fill:#67757f" />
</svg>
