<?xml version="1.0" encoding="UTF-8" standalone="no"?>
<svg
   xmlns:dc="http://purl.org/dc/elements/1.1/"
   xmlns:cc="http://creativecommons.org/ns#"
   xmlns:rdf="http://www.w3.org/1999/02/22-rdf-syntax-ns#"
   xmlns:svg="http://www.w3.org/2000/svg"
   xmlns="http://www.w3.org/2000/svg"
   xmlns:sodipodi="http://sodipodi.sourceforge.net/DTD/sodipodi-0.dtd"
   xmlns:inkscape="http://www.inkscape.org/namespaces/inkscape"
   viewBox="0 0 35.958412 35.974045"
   id="svg2"
   version="1.1"
   inkscape:version="0.91 r13725"
   sodipodi:docname="1f483-1f3ff.svg"
   width="35.958412"
   height="35.974045">
  <metadata
     id="metadata32">
    <rdf:RDF>
      <cc:Work
         rdf:about="">
        <dc:format>image/svg+xml</dc:format>
        <dc:type
           rdf:resource="http://purl.org/dc/dcmitype/StillImage" />
      </cc:Work>
    </rdf:RDF>
  </metadata>
  <defs
     id="defs30" />
  <sodipodi:namedview
     pagecolor="#ffffff"
     bordercolor="#666666"
     borderopacity="1"
     objecttolerance="10"
     gridtolerance="10"
     guidetolerance="10"
     inkscape:pageopacity="0"
     inkscape:pageshadow="2"
     inkscape:window-width="640"
     inkscape:window-height="480"
     id="namedview28"
     showgrid="false"
     inkscape:zoom="6.5555556"
     inkscape:cx="17.979512"
     inkscape:cy="17.987044"
     inkscape:window-x="0"
     inkscape:window-y="0"
     inkscape:window-maximized="0"
     inkscape:current-layer="svg2" />
  <path
     d="m 16.887512,32.165 c 0.05,-0.603 -0.299,-1.018 -0.755,-1.024 l -0.188,0 c -0.456,0.006 -0.805,0.421 -0.755,1.024 0.075,0.905 -0.017,1.4 -0.052,2.318 -0.025,0.674 0.296,1.498 0.901,1.491 0.605,0.007 0.926,-0.817 0.901,-1.491 -0.035,-0.918 -0.127,-1.413 -0.052,-2.318 z"
     id="path4"
     inkscape:connector-curvature="0"
     style="fill:#dd2e44" />
  <path
     d="m 17.000512,27.458 c 0.001,-0.268 -0.486,-0.398 -0.962,-0.394 -0.476,-0.004 -0.963,0.126 -0.962,0.394 0,0 0.409,3.448 0.331,6.691 -0.007,0.286 0.313,0.44 0.631,0.443 0.318,-0.003 0.638,-0.156 0.631,-0.443 -0.078,-3.243 0.331,-6.691 0.331,-6.691 z"
     id="path6"
     inkscape:connector-curvature="0"
     style="fill:#7c533e" />
  <path
     d="m 15.364512,32.068 1.365,0 0,0.65 -1.365,0 z"
     id="path8"
     inkscape:connector-curvature="0"
     style="fill:#dd2e44" />
  <path
     d="m 24.209512,20.806 c 0,0 3.162,-2.282 3.598,-2.309 0.247,-0.016 1.883,-0.13 2.23,-0.163 1.259,-0.125 3.854,-0.67 4.081,-0.719 0.228,-0.05 0.322,0.031 0.839,-0.806 0.517,-0.838 -0.044,-0.64 -0.044,-0.64 0,0 -0.354,0.293 -0.547,0.379 -0.193,0.086 -0.562,0.173 -0.909,0.166 -1.085,-0.023 -7.175,-0.281 -7.175,-0.281 -0.848,0.049 -1.288,0.04 -1.615,0.673 -0.574,1.104 -0.493,3.138 -0.458,3.7 z"
     id="path10"
     inkscape:connector-curvature="0"
     style="fill:#7c533e" />
  <path
     d="m 16.022512,1 c 0.203,-0.378 0.538,-0.985 1.806,-0.602 1.915,0.579 0.194,1.602 0.194,1.602 0,0 2,1 2,4 0,3 -2.344,2.369 -2.344,5.531 l -0.359,0.534 c 0,0 0.644,-0.438 -1.356,1.562 -4,4 -6.7820003,-1.274 -6.4120003,-2.754 C 10.093512,8.704 9.0225117,9 9.0225117,7 c 0,-2 2.0000003,-2 2.0000003,-4 0,-2 2,-3 3,-3 1,0 2,1 2,1 z"
     id="path12"
     inkscape:connector-curvature="0"
     style="fill:#0b0200" />
  <ellipse
     cx="14.647511"
     cy="5"
     rx="2.625"
     ry="3"
     id="ellipse14"
     style="fill:#7c533e" />
  <path
     d="m 14.522512,1 c -0.927,0 -1.727,0.306 -2.158,0.755 -1.103,-0.208 -0.477,1.517 -1.342,3.245 -1,2 1,4 1,3 0,-1 0,-4 2,-4 l 0.5,0 c 1.381,0 2.5,-0.671 2.5,-1.5 0,-0.829 -1.119,-1.5 -2.5,-1.5 z"
     id="path16"
     inkscape:connector-curvature="0"
     style="fill:#0b0200" />
  <path
     d="m 18.579512,9.32 c -0.98,-0.334 -1.68,-0.297 -2.877,-0.313 l -0.432,-3.883 c -0.061,-0.549 -0.562,-0.948 -1.104,-0.883 -0.549,0.061 -0.944,0.555 -0.883,1.104 l 0.406,3.656 -1.94,0.046 0.022,1.953 c 0.009,0.262 0.086,0.588 0.251,1 1,2.5 6,2.985 6,0.5 0,-0.604 -0.048,-1.06 -0.15,-1.407 1.205,0.088 3.366,-0.867 0.707,-1.773 z"
     id="path18"
     inkscape:connector-curvature="0"
     style="fill:#7c533e" />
  <path
     d="m 13.022512,16 c 0,2 0,3 -2,6 -2.0000003,3 -4.0000003,3 -5.0000003,5 -1,2 0,2 2,1 2.0000003,-1 1,4 4.0000003,4 3,0 2,-3 4,-3 2,0 3,3 5,3 2,0 2.581,-2.419 1,-4 -1,-1 2,-3 3,-2 1.581,1.581 3.236,-0.764 1,-3 -1,-1 -1.789,-2.105 0,-3 2,-1 2.5,-5 0,-4 -3.344,1.338 -8,3.161 -8,0 l 0,-4 c 0,0 -1.359,-0.364 -1.791,-2.983 l -0.188,-0.006 c 0,0 -0.561,3.494 -2.821,0.008 l -0.212,0.002 c 0,0 0.86,2.616 -0.65,3.77 -0.101,0.076 0.662,1.209 0.662,3.209 z"
     id="path20"
     inkscape:connector-curvature="0"
     style="fill:#dd2e44" />
  <path
     d="m 26.022512,18.875 c -1.122,0.561 -1.23,1.205 -0.908,1.854 0.159,-0.253 0.446,-0.498 0.908,-0.729 1.251,-0.625 1.915,-2.424 1.625,-3.439 -0.187,0.902 -0.766,1.885 -1.625,2.314 z m -5,12 c -2,0 -3,-3 -5,-3 -2,0 -1,3 -4,3 -3.0000003,0 -2,-5 -4.0000003,-4 -1.08,0.54 -1.853,0.773 -2.192,0.572 -0.611,1.526 0.362,1.468 2.192,0.553 2.0000003,-1 1,4 4.0000003,4 3,0 2,-3 4,-3 2,0 3,3 5,3 1.421,0 2.106,-1.222 1.828,-2.496 -0.209,0.783 -0.844,1.371 -1.828,1.371 z m 4,-6 c -1,-1 -4,1 -3,2 0.014,0.014 0.021,0.03 0.034,0.044 0.613,-0.86 2.271,-1.614 2.966,-0.919 1.191,1.191 2.422,0.154 2.003,-1.385 -0.266,0.814 -1.143,1.12 -2.003,0.26 z"
     id="path22"
     inkscape:connector-curvature="0"
     style="fill:#a0041e" />
  <path
     d="m 35.829512,15.677 c 0,0 -0.423,-0.21 -0.785,0.319 -0.072,0.107 -0.132,0.172 -0.132,0.172 0.041,0.072 0.027,0.15 0.005,0.217 -0.13,0.398 -0.472,0.696 -1.126,0.79 -0.272,0.039 -0.49,0.087 -0.684,0.138 l 0.019,-0.605 -0.65,-0.021 -0.028,0.874 c -0.296,0.17 -0.39,0.348 -0.434,0.481 -0.096,0.292 0.556,0.637 0.963,0.771 0.368,0.121 0.688,0.175 0.91,0.182 0.245,0.007 1.136,0.225 1.136,0.225 l 0.088,-0.269 c 0,0 -0.72,-0.335 -0.966,-0.446 -0.198,-0.09 -0.079,-0.582 0.224,-0.635 0.805,-0.141 0.997,-0.076 1.12,-0.454 l 0.448,-1.375 c 0.083,-0.248 -0.108,-0.364 -0.108,-0.364 z"
     id="path24"
     inkscape:connector-curvature="0"
     style="fill:#dd2e44" />
  <path
     d="m 12.365512,9.241 c -0.101,-0.078 -0.216,-0.132 -0.34,-0.161 -0.167,-0.04 -0.351,-0.035 -0.547,0.013 -0.39,0.097 -0.964,0.206 -1.5720003,0.322 -0.83,0.158 -1.931,0.476 -2.229,0.476 -0.298,0 -1.515,-0.391 -2.634,-0.537 -0.37,-0.048 -1.552,-0.165 -1.804,-0.193 -0.342,-0.038 -0.756,-0.08 -1.073,-0.15 -0.146,-0.032 -0.713,-0.184 -0.943,-0.225 C 0.78751167,8.708 0.06251167,8.671 0.02151167,8.756 c -0.176,0.368 0.763,0.233 1.53800003,0.913 0.454,0.398 0.916,0.381 1.355,0.349 0.347,-0.025 1.447,0.573 2.326,0.841 0.635,0.194 2.056,0.533 2.26,0.562 0.204,0.029 1.296,-0.052 2.023,-0.11 0.7350003,-0.057 1.3710003,-0.107 1.8790003,-0.075 0.485,0.031 0.849,-0.079 1.083,-0.326 0.292,-0.309 0.286,-0.742 0.278,-0.867 -0.024,-0.339 -0.165,-0.624 -0.398,-0.802 z m 11.198,1.335 c -0.168,-0.229 -0.565,-0.565 -1.412,-0.8 -0.657,-0.183 -3.994,-0.629 -4.649,-0.707 -0.508,-0.061 -0.197,1.809 0.06,1.966 0.165,0.101 0.365,0.11 0.667,0.141 1.223,0.126 3.062,0.028 3.392,-0.005 0.143,-0.014 0.209,0.038 0.218,0.129 -0.063,0.29 -0.287,0.669 -0.477,1.104 -0.318,0.727 -0.656,1.714 -0.778,1.827 l -0.111,0.101 c -0.251,0.046 -0.549,0.174 -0.815,0.391 -0.095,0.077 -0.184,0.172 -0.252,0.364 -0.094,0.268 0.17,0.299 0.234,0.138 0.027,-0.067 0.091,-0.183 0.239,-0.221 -0.005,0.031 -0.015,0.057 -0.016,0.093 -0.002,0.058 -0.017,0.106 -0.027,0.158 -0.228,0.395 -0.682,0.553 -0.651,0.706 0.007,0.033 0.048,0.035 0.08,0.044 -0.154,0.104 -0.274,0.176 -0.264,0.256 0.008,0.065 0.08,0.08 0.178,0.071 -0.071,0.053 -0.117,0.1 -0.111,0.149 0.026,0.209 0.556,-0.116 0.81,-0.219 0.433,-0.176 0.686,-0.36 0.986,-0.636 0.349,-0.322 0.518,-0.787 0.669,-1.045 0.111,-0.19 1.441,-1.807 1.736,-2.348 0.435,-0.798 0.462,-1.428 0.294,-1.657 z"
     id="path26"
     inkscape:connector-curvature="0"
     style="fill:#7c533e" />
</svg>
