<?xml version="1.0" encoding="UTF-8" standalone="no"?>
<svg
   xmlns:dc="http://purl.org/dc/elements/1.1/"
   xmlns:cc="http://creativecommons.org/ns#"
   xmlns:rdf="http://www.w3.org/1999/02/22-rdf-syntax-ns#"
   xmlns:svg="http://www.w3.org/2000/svg"
   xmlns="http://www.w3.org/2000/svg"
   xmlns:sodipodi="http://sodipodi.sourceforge.net/DTD/sodipodi-0.dtd"
   xmlns:inkscape="http://www.inkscape.org/namespaces/inkscape"
   viewBox="0 0 35.58569 35.54882"
   id="svg2"
   version="1.1"
   inkscape:version="0.91 r13725"
   sodipodi:docname="1f490.svg"
   width="35.58569"
   height="35.54882">
  <metadata
     id="metadata28">
    <rdf:RDF>
      <cc:Work
         rdf:about="">
        <dc:format>image/svg+xml</dc:format>
        <dc:type
           rdf:resource="http://purl.org/dc/dcmitype/StillImage" />
      </cc:Work>
    </rdf:RDF>
  </metadata>
  <defs
     id="defs26" />
  <sodipodi:namedview
     pagecolor="#ffffff"
     bordercolor="#666666"
     borderopacity="1"
     objecttolerance="10"
     gridtolerance="10"
     guidetolerance="10"
     inkscape:pageopacity="0"
     inkscape:pageshadow="2"
     inkscape:window-width="640"
     inkscape:window-height="480"
     id="namedview24"
     showgrid="false"
     inkscape:zoom="6.5555556"
     inkscape:cx="17.79295"
     inkscape:cy="17.773745"
     inkscape:window-x="0"
     inkscape:window-y="0"
     inkscape:window-maximized="0"
     inkscape:current-layer="svg2" />
  <path
     d="m 34.80295,30.742077 c -1.385,-2.226 -3.34,-5.001 -5.265,-7.888 -5.141,-8.772 -1.513,-18.4110005 -2.893,-21.5110005 -0.56,-1.25899997 -3.879,0.966 -5.555,4.563 -0.356,-0.106 -0.747,-0.156 -1.17,-0.148 0.155,-2.397 0.293,-4.31 -0.193,-5.40299997 -0.71,-1.59900003 -5.867,2.41799997 -6.463,7.72899997 -1.848,1.006 -3.223,1.9570005 -3.223,1.9570005 0,0 -0.9500001,1.375 -1.9540001,3.223 -5.312,0.594 -9.331,5.753 -7.73200005,6.464 1.09700005,0.488 3.01500005,0.349 5.42100005,0.192 -0.006,0.42 0.046,0.807 0.154,1.159 -3.61,1.674 -5.84800005,5.006 -4.586,5.567 3.282,1.46 13.9000001,-2.701 23.0530001,3.892 0.288,0.207 0.479,0.322 0.601,0.371 2.117,1.433 4.113,2.801 5.791,3.846 2.875,1.79 3.962,-0.007 3.962,-0.007 0,0 1.843,-1.13 0.052,-4.006 z"
     id="path4"
     inkscape:connector-curvature="0"
     style="fill:#3e721d" />
  <path
     d="m 34.82195,34.603077 c 0.369,-0.545 0.338,-1.278 -0.144,-1.761 0,0 -11.86,-15.812 -13.836,-23.7190005 -1.977,-7.906 -4.397,-5.737 -3.689,0.474 0.325,2.8480005 1.817,6.1400005 3.806,9.3850005 l -8.941,-8.941 c -0.546,-0.5460005 -1.431,-0.5460005 -1.977,0 -0.5450001,0.546 -0.5460001,1.431 0,1.977 l 8.94,8.941 c -3.246,-1.987 -6.536,-3.48 -9.3830001,-3.805 -6.211,-0.709 -8.381,1.712 -0.475,3.688 7.9070001,1.976 23.7190001,13.836 23.7190001,13.836 0.481,0.482 1.215,0.513 1.758,0.146 0.034,0.007 0.065,0.01 0.078,-0.004 0.025,-0.025 0.034,-0.059 0.058,-0.086 0.025,-0.022 0.059,-0.031 0.083,-0.056 0.014,-0.013 0.01,-0.044 0.003,-0.075 z"
     id="path6"
     inkscape:connector-curvature="0"
     style="fill:#77b255" />
  <path
     d="m 13.56395,6.6460765 c 1.807,1.806 1.721,4.8190005 -0.188,6.7300005 -1.91,1.91 -3.7710001,0.842 -5.5770001,-0.964 -1.806,-1.806 -2.874,-3.6670005 -0.964,-5.5770005 1.91,-1.91 4.9240001,-1.995 6.7290001,-0.189 z"
     id="path8"
     inkscape:connector-curvature="0"
     style="fill:#dd2e44" />
  <path
     d="m 12.41095,7.7990765 c 1.807,1.807 2.874,3.6660005 0.965,5.5760005 -1.91,1.91 -4.9230001,1.995 -6.7290001,0.188 -1.806,-1.806 -0.964,-5.5760005 -0.902,-7.8200005 0.074,-2.627 4.4870001,-0.124 6.6660001,2.056 z"
     id="path10"
     inkscape:connector-curvature="0"
     style="fill:#ea596e" />
  <path
     d="m 22.45795,15.541077 c 1.808,1.807 1.722,4.819 -0.188,6.729 -1.91,1.91 -3.77,0.842 -5.576,-0.964 -1.806,-1.806 -2.874,-3.667 -0.964,-5.577 1.91,-1.91 4.924,-1.994 6.728,-0.188 z"
     id="path12"
     inkscape:connector-curvature="0"
     style="fill:#dd2e44" />
  <path
     d="m 21.30695,16.694077 c 1.806,1.807 2.873,3.666 0.964,5.576 -1.91,1.91 -4.923,1.995 -6.729,0.188 -1.806,-1.806 -0.964,-5.575 -0.901,-7.819 0.073,-2.628 4.485,-0.125 6.666,2.055 z"
     id="path14"
     inkscape:connector-curvature="0"
     style="fill:#ea596e" />
  <path
     d="m 10.99595,15.885077 c 2.369,1.052 3.327,3.876 2.139,6.308 -1.187,2.434 -3.3540001,2.085 -5.7230001,1.033 -2.37,-1.052 -4.045,-2.407 -2.857,-4.841 1.188,-2.432 4.071,-3.551 6.4410001,-2.5 z"
     id="path16"
     inkscape:connector-curvature="0"
     style="fill:#f4900c" />
  <path
     d="m 10.27895,17.353077 c 2.368,1.052 4.043,2.408 2.855,4.84 -1.187,2.434 -4.0710001,3.553 -6.4390001,2.501 -2.37,-1.051 -2.857,-4.84 -3.57,-6.943 -0.836,-2.463 4.294,-1.666 7.1540001,-0.398 z"
     id="path18"
     inkscape:connector-curvature="0"
     style="fill:#ffcc4d" />
  <path
     d="m 24.72295,6.7870765 c 1.143,2.447 0.082,5.3590005 -2.365,6.5000005 -2.446,1.14 -3.88,-0.607 -5.023,-3.056 -1.142,-2.4490005 -1.56,-4.6710005 0.887,-5.8130005 2.448,-1.141 5.358,-0.081 6.501,2.369 z"
     id="path20"
     inkscape:connector-curvature="0"
     style="fill:#f4900c" />
  <path
     d="m 23.24595,7.4750765 c 1.141,2.449 1.559,4.6710005 -0.889,5.8120005 -2.446,1.14 -5.359,0.081 -6.501,-2.368 -1.141,-2.4480005 0.889,-5.8120005 1.676,-7.9770005 0.925,-2.53999997 4.334,1.578 5.714,4.533 z"
     id="path22"
     inkscape:connector-curvature="0"
     style="fill:#ffcc4d" />
</svg>
