<?xml version="1.0" encoding="UTF-8" standalone="no"?>
<svg
   xmlns:dc="http://purl.org/dc/elements/1.1/"
   xmlns:cc="http://creativecommons.org/ns#"
   xmlns:rdf="http://www.w3.org/1999/02/22-rdf-syntax-ns#"
   xmlns:svg="http://www.w3.org/2000/svg"
   xmlns="http://www.w3.org/2000/svg"
   xmlns:sodipodi="http://sodipodi.sourceforge.net/DTD/sodipodi-0.dtd"
   xmlns:inkscape="http://www.inkscape.org/namespaces/inkscape"
   viewBox="0 0 35.77 32.069"
   id="svg2"
   version="1.1"
   inkscape:version="0.91 r13725"
   sodipodi:docname="1f496.svg"
   width="35.77"
   height="32.069">
  <metadata
     id="metadata12">
    <rdf:RDF>
      <cc:Work
         rdf:about="">
        <dc:format>image/svg+xml</dc:format>
        <dc:type
           rdf:resource="http://purl.org/dc/dcmitype/StillImage" />
      </cc:Work>
    </rdf:RDF>
  </metadata>
  <defs
     id="defs10" />
  <sodipodi:namedview
     pagecolor="#ffffff"
     bordercolor="#666666"
     borderopacity="1"
     objecttolerance="10"
     gridtolerance="10"
     guidetolerance="10"
     inkscape:pageopacity="0"
     inkscape:pageshadow="2"
     inkscape:window-width="640"
     inkscape:window-height="480"
     id="namedview8"
     showgrid="false"
     inkscape:zoom="6.5555556"
     inkscape:cx="17.885"
     inkscape:cy="16.034"
     inkscape:window-x="0"
     inkscape:window-y="0"
     inkscape:window-maximized="0"
     inkscape:current-layer="svg2" />
  <path
     d="M 35.77,9.868 C 35.77,4.418 31.352,0 25.903,0 22.595,0 19.676,1.633 17.885,4.129 16.094,1.633 13.175,0 9.868,0 4.418,0 0,4.417 0,9.868 c 0,0.772 0.098,1.52 0.266,2.241 1.37,8.513 10.835,17.494 17.619,19.96 6.783,-2.466 16.249,-11.447 17.617,-19.959 0.17,-0.721 0.268,-1.469 0.268,-2.242 z"
     id="path4"
     inkscape:connector-curvature="0"
     style="fill:#dd2e44" />
  <path
     d="m 34.232,21.929 -3.824,-1.416 -1.416,-3.824 c -0.145,-0.394 -0.52,-0.654 -0.938,-0.654 -0.418,0 -0.793,0.26 -0.938,0.653 l -1.416,3.824 -3.824,1.416 c -0.393,0.144 -0.653,0.519 -0.653,0.938 0,0.418 0.261,0.793 0.653,0.938 l 3.824,1.416 1.416,3.824 c 0.145,0.393 0.52,0.653 0.938,0.653 0.418,0 0.793,-0.261 0.938,-0.653 l 1.416,-3.824 3.824,-1.416 c 0.392,-0.145 0.653,-0.52 0.653,-0.938 0,-0.418 -0.261,-0.793 -0.653,-0.937 z M 11.232,5.928 8.867,5.053 7.992,2.688 C 7.846,2.295 7.472,2.035 7.054,2.035 6.635,2.035 6.261,2.295 6.116,2.688 L 5.24,5.053 2.876,5.928 c -0.393,0.146 -0.653,0.52 -0.653,0.938 0,0.418 0.26,0.792 0.653,0.938 l 2.365,0.875 0.875,2.365 c 0.146,0.393 0.52,0.653 0.938,0.653 0.418,0 0.792,-0.26 0.938,-0.653 L 8.867,8.679 11.232,7.804 c 0.393,-0.146 0.653,-0.519 0.653,-0.938 0,-0.418 -0.26,-0.792 -0.653,-0.938 z"
     id="path6"
     inkscape:connector-curvature="0"
     style="fill:#fdcb58" />
</svg>
