<?xml version="1.0" encoding="UTF-8" standalone="no"?>
<svg
   xmlns:dc="http://purl.org/dc/elements/1.1/"
   xmlns:cc="http://creativecommons.org/ns#"
   xmlns:rdf="http://www.w3.org/1999/02/22-rdf-syntax-ns#"
   xmlns:svg="http://www.w3.org/2000/svg"
   xmlns="http://www.w3.org/2000/svg"
   xmlns:sodipodi="http://sodipodi.sourceforge.net/DTD/sodipodi-0.dtd"
   xmlns:inkscape="http://www.inkscape.org/namespaces/inkscape"
   viewBox="0 0 35.917446 34.442242"
   id="svg2"
   version="1.1"
   inkscape:version="0.91 r13725"
   sodipodi:docname="1f493.svg"
   width="35.917446"
   height="34.442242">
  <metadata
     id="metadata12">
    <rdf:RDF>
      <cc:Work
         rdf:about="">
        <dc:format>image/svg+xml</dc:format>
        <dc:type
           rdf:resource="http://purl.org/dc/dcmitype/StillImage" />
      </cc:Work>
    </rdf:RDF>
  </metadata>
  <defs
     id="defs10" />
  <sodipodi:namedview
     pagecolor="#ffffff"
     bordercolor="#666666"
     borderopacity="1"
     objecttolerance="10"
     gridtolerance="10"
     guidetolerance="10"
     inkscape:pageopacity="0"
     inkscape:pageshadow="2"
     inkscape:window-width="640"
     inkscape:window-height="480"
     id="namedview8"
     showgrid="false"
     inkscape:zoom="6.5555556"
     inkscape:cx="17.958249"
     inkscape:cy="17.482"
     inkscape:window-x="0"
     inkscape:window-y="0"
     inkscape:window-maximized="0"
     inkscape:current-layer="svg2" />
  <path
     d="m 33.843249,14.724243 c 0,-4.8410003 -3.924,-8.7640003 -8.764,-8.7640003 -2.938,0 -5.53,1.45 -7.121,3.667 -1.59,-2.217 -4.184,-3.667 -7.121,-3.667 -4.8400003,0 -8.7640003,3.923 -8.7640003,8.7640003 0,0.685 0.087,1.35 0.236,1.99 1.217,7.561 9.6240003,15.538 15.6490003,17.728 6.024,-2.19 14.432,-10.167 15.647,-17.728 0.151,-0.64 0.238,-1.304 0.238,-1.99 z"
     id="path4"
     inkscape:connector-curvature="0"
     style="fill:#dd2e44" />
  <path
     d="m 1.4572487,10.002243 c -0.15,0 -0.303,-0.034 -0.446,-0.1060003 -0.49400002,-0.247 -0.69400002,-0.848 -0.44700002,-1.342 1.01600002,-2.031 3.79300002,-5.195 7.28300002,-5.588 0.549,-0.061 1.043,0.333 1.105,0.882 0.062,0.549 -0.333,1.044 -0.882,1.106 -2.679,0.302 -4.928,2.917 -5.717,4.495 -0.176,0.35 -0.529,0.5530003 -0.896,0.5530003 z M 0.99924868,4.5852427 c -0.193,0 -0.388,-0.056 -0.56,-0.172 -0.457,-0.31 -0.577,-0.932 -0.267,-1.389 0.93600002,-1.381 2.89500002,-2.90900002 4.68200002,-3.02100002 0.552,-0.043 1.025,0.385 1.06,0.936 0.035,0.55100002 -0.384,1.02600002 -0.935,1.06100002 -0.961,0.06 -2.404,1.042 -3.151,2.146 -0.194,0.285 -0.509,0.439 -0.82900002,0.439 z M 34.459249,10.002243 c -0.367,0 -0.72,-0.2020003 -0.896,-0.5530003 -0.789,-1.578 -3.039,-4.193 -5.718,-4.495 -0.549,-0.062 -0.943,-0.557 -0.882,-1.106 0.062,-0.548 0.549,-0.945 1.106,-0.882 3.489,0.393 6.267,3.557 7.282,5.588 0.247,0.494 0.047,1.095 -0.447,1.342 -0.143,0.072 -0.295,0.1060003 -0.445,0.1060003 z m 0.458,-5.4170003 c -0.32,0 -0.636,-0.154 -0.829,-0.439 -0.747,-1.104 -2.19,-2.086 -3.151,-2.146 -0.551,-0.035 -0.97,-0.509 -0.935,-1.06100002 0.034,-0.552 0.51,-0.981 1.06,-0.936 1.788,0.112 3.747,1.64000002 4.683,3.02100002 0.31,0.457 0.19,1.079 -0.268,1.389 -0.172,0.116 -0.366,0.172 -0.56,0.172 z"
     id="path6"
     inkscape:connector-curvature="0"
     style="fill:#fdcb58" />
</svg>
