<?xml version="1.0" encoding="UTF-8" standalone="no"?>
<svg
   xmlns:dc="http://purl.org/dc/elements/1.1/"
   xmlns:cc="http://creativecommons.org/ns#"
   xmlns:rdf="http://www.w3.org/1999/02/22-rdf-syntax-ns#"
   xmlns:svg="http://www.w3.org/2000/svg"
   xmlns="http://www.w3.org/2000/svg"
   xmlns:sodipodi="http://sodipodi.sourceforge.net/DTD/sodipodi-0.dtd"
   xmlns:inkscape="http://www.inkscape.org/namespaces/inkscape"
   viewBox="0 0 34 36"
   id="svg2"
   version="1.1"
   inkscape:version="0.91 r13725"
   sodipodi:docname="1f492.svg"
   width="34"
   height="36">
  <metadata
     id="metadata22">
    <rdf:RDF>
      <cc:Work
         rdf:about="">
        <dc:format>image/svg+xml</dc:format>
        <dc:type
           rdf:resource="http://purl.org/dc/dcmitype/StillImage" />
      </cc:Work>
    </rdf:RDF>
  </metadata>
  <defs
     id="defs20" />
  <sodipodi:namedview
     pagecolor="#ffffff"
     bordercolor="#666666"
     borderopacity="1"
     objecttolerance="10"
     gridtolerance="10"
     guidetolerance="10"
     inkscape:pageopacity="0"
     inkscape:pageshadow="2"
     inkscape:window-width="640"
     inkscape:window-height="480"
     id="namedview18"
     showgrid="false"
     inkscape:zoom="6.5555556"
     inkscape:cx="17"
     inkscape:cy="18"
     inkscape:window-x="0"
     inkscape:window-y="0"
     inkscape:window-maximized="0"
     inkscape:current-layer="svg2" />
  <path
     d="M 19,2 18,2 18,1 C 18,0.448 17.553,0 17,0 16.447,0 16,0.448 16,1 l 0,1 -1,0 c -0.553,0 -1,0.448 -1,1 0,0.552 0.447,1 1,1 l 1,0 0,6 c 0,0.552 0.447,1 1,1 0.553,0 1,-0.448 1,-1 l 0,-6 1,0 C 19.553,4 20,3.552 20,3 20,2.448 19.553,2 19,2 Z"
     id="path4"
     inkscape:connector-curvature="0"
     style="fill:#bcbec0" />
  <path
     d="m 17,9 -5.143,4 0.143,0 0,9 10,0 0,-9 0.143,0 z"
     id="path6"
     inkscape:connector-curvature="0"
     style="fill:#f4abba" />
  <path
     d="m 18.999,15 c 0,-1.104 -0.896,-2 -1.999,-2 -1.105,0 -2,0.896 -2,2 l 0,7 4,0 -0.001,-7 z"
     id="path8"
     inkscape:connector-curvature="0"
     style="fill:#662113" />
  <path
     d="M 16.999,18 3,26 3,35 c 0,0.553 0.448,1 1,1 l 26,0 c 0.553,0 1,-0.447 1,-1 l 0,-9 -14.001,-8 z"
     id="path10"
     inkscape:connector-curvature="0"
     style="fill:#f4abba" />
  <path
     d="M 30.998,27 C 30.83,27 30.659,26.958 30.503,26.868 L 16.999,19.151 3.495,26.868 C 3.017,27.144 2.405,26.975 2.131,26.496 1.857,26.017 2.024,25.406 2.503,25.132 l 14,-8 c 0.308,-0.176 0.685,-0.176 0.992,0 l 14,8 c 0.48,0.274 0.647,0.885 0.372,1.364 C 31.683,26.819 31.346,27 30.998,27 Z M 21.999,14 C 21.78,14 21.56,13.928 21.375,13.781 l -4.376,-3.5 -4.374,3.5 c -0.432,0.343 -1.061,0.275 -1.406,-0.156 -0.345,-0.432 -0.275,-1.061 0.156,-1.406 l 4.999,-4 c 0.365,-0.292 0.884,-0.292 1.25,0 l 5.001,4 c 0.431,0.345 0.501,0.974 0.156,1.405 C 22.583,13.871 22.293,14 21.999,14 Z"
     id="path12"
     inkscape:connector-curvature="0"
     style="fill:#dd2e44" />
  <path
     d="m 11.999,31 c 0,-1.104 -0.895,-2 -1.999,-2 -1.105,0 -2,0.896 -2,2 l 0,5 4,0 0,-5 -10e-4,0 z m 7,-2 c 0,-1.104 -0.896,-2 -1.999,-2 -1.105,0 -2,0.896 -2,2 l 0,7 4,0 -0.001,-7 z m 7,2 c 0,-1.104 -0.896,-2 -1.999,-2 -1.105,0 -2,0.896 -2,2 l 0,5 4,0 -0.001,-5 z"
     id="path14"
     inkscape:connector-curvature="0"
     style="fill:#662113" />
  <path
     d="M 0,6 C 0,3.239 3.963,2 5,6 6.121,2 10,3.239 10,6 10,9 5,12 5,12 5,12 0,9 0,6 Z m 24,0 c 0,-2.761 3.963,-4 5,0 1.121,-4 5,-2.761 5,0 0,3 -5,6 -5,6 0,0 -5,-3 -5,-6 z"
     id="path16"
     inkscape:connector-curvature="0"
     style="fill:#dd2e44" />
</svg>
