<?xml version="1.0" encoding="UTF-8" standalone="no"?>
<svg
   xmlns:dc="http://purl.org/dc/elements/1.1/"
   xmlns:cc="http://creativecommons.org/ns#"
   xmlns:rdf="http://www.w3.org/1999/02/22-rdf-syntax-ns#"
   xmlns:svg="http://www.w3.org/2000/svg"
   xmlns="http://www.w3.org/2000/svg"
   xmlns:sodipodi="http://sodipodi.sourceforge.net/DTD/sodipodi-0.dtd"
   xmlns:inkscape="http://www.inkscape.org/namespaces/inkscape"
   viewBox="0 0 35.771 32.07"
   id="svg2"
   version="1.1"
   inkscape:version="0.91 r13725"
   sodipodi:docname="1f494.svg"
   width="35.771"
   height="32.07">
  <metadata
     id="metadata14">
    <rdf:RDF>
      <cc:Work
         rdf:about="">
        <dc:format>image/svg+xml</dc:format>
        <dc:type
           rdf:resource="http://purl.org/dc/dcmitype/StillImage" />
      </cc:Work>
    </rdf:RDF>
  </metadata>
  <defs
     id="defs12" />
  <sodipodi:namedview
     pagecolor="#ffffff"
     bordercolor="#666666"
     borderopacity="1"
     objecttolerance="10"
     gridtolerance="10"
     guidetolerance="10"
     inkscape:pageopacity="0"
     inkscape:pageshadow="2"
     inkscape:window-width="640"
     inkscape:window-height="480"
     id="namedview10"
     showgrid="false"
     inkscape:zoom="6.5555556"
     inkscape:cx="17.885"
     inkscape:cy="16.034"
     inkscape:window-x="0"
     inkscape:window-y="0"
     inkscape:window-maximized="0"
     inkscape:current-layer="svg2" />
  <g
     id="g4"
     style="fill:#dd2e44"
     transform="translate(-0.115,-1.964)">
    <path
       d="m 13.589,26.521 c -0.297,-0.495 -0.284,-1.117 0.035,-1.599 l 4.395,-6.646 -5.995,-5.139 c -0.556,-0.476 -0.686,-1.283 -0.31,-1.911 l 4.304,-7.172 c -1.669,-1.301 -3.755,-2.09 -6.035,-2.09 -5.45,0 -9.868,4.417 -9.868,9.868 0,0.772 0.098,1.52 0.266,2.241 1.37,8.514 10.835,17.495 17.619,19.961 0.025,-0.009 0.052,-0.022 0.077,-0.032 l -4.488,-7.481 z"
       id="path6"
       inkscape:connector-curvature="0" />
    <path
       d="m 26.018,1.966 c -2.765,0 -5.248,1.151 -7.037,2.983 l -4.042,6.737 6.039,5.176 c 0.574,0.492 0.691,1.335 0.274,1.966 l -4.604,6.962 4.161,6.935 C 27.147,29.196 34.43,21.462 35.618,14.076 35.788,13.355 35.886,12.607 35.886,11.835 35.885,6.383 31.467,1.966 26.018,1.966 Z"
       id="path8"
       inkscape:connector-curvature="0" />
  </g>
</svg>
