<?xml version="1.0" encoding="UTF-8" standalone="no"?>
<svg
   xmlns:dc="http://purl.org/dc/elements/1.1/"
   xmlns:cc="http://creativecommons.org/ns#"
   xmlns:rdf="http://www.w3.org/1999/02/22-rdf-syntax-ns#"
   xmlns:svg="http://www.w3.org/2000/svg"
   xmlns="http://www.w3.org/2000/svg"
   xmlns:sodipodi="http://sodipodi.sourceforge.net/DTD/sodipodi-0.dtd"
   xmlns:inkscape="http://www.inkscape.org/namespaces/inkscape"
   viewBox="0 0 36 36"
   id="svg2"
   version="1.1"
   inkscape:version="0.91 r13725"
   sodipodi:docname="1f491.svg"
   width="36"
   height="36">
  <metadata
     id="metadata36">
    <rdf:RDF>
      <cc:Work
         rdf:about="">
        <dc:format>image/svg+xml</dc:format>
        <dc:type
           rdf:resource="http://purl.org/dc/dcmitype/StillImage" />
      </cc:Work>
    </rdf:RDF>
  </metadata>
  <defs
     id="defs34" />
  <sodipodi:namedview
     pagecolor="#ffffff"
     bordercolor="#666666"
     borderopacity="1"
     objecttolerance="10"
     gridtolerance="10"
     guidetolerance="10"
     inkscape:pageopacity="0"
     inkscape:pageshadow="2"
     inkscape:window-width="640"
     inkscape:window-height="480"
     id="namedview32"
     showgrid="false"
     inkscape:zoom="6.5555556"
     inkscape:cx="18"
     inkscape:cy="18"
     inkscape:window-x="0"
     inkscape:window-y="0"
     inkscape:window-maximized="0"
     inkscape:current-layer="svg2" />
  <path
     d="M 13.982,20 14,20 14,11 C 14,4.925 9.075,0 3,0 1.956,0 0.955,0.165 0,0.44 l 0,31.037 c 0.652,0.11 1.317,0.179 2,0.179 6.511,0 11.799,-5.189 11.982,-11.656 z"
     id="path4"
     inkscape:connector-curvature="0"
     style="fill:#ffac33" />
  <path
     d="M 11.431,27 C 11.287,26.984 0,27 0,27 l 0,9 15,0 0,-5 c 0,-2.061 -1.566,-3.782 -3.569,-4 z"
     id="path6"
     inkscape:connector-curvature="0"
     style="fill:#9268ca" />
  <path
     d="m 10,32 1,0 0,4 -1,0 z"
     id="path8"
     inkscape:connector-curvature="0"
     style="fill:#7450a8" />
  <path
     d="M 0,8.018 0,30.222 C 0.532,30.7 1.228,31 2,31 3.657,31 5,29.657 5,28 L 5,25.477 C 8.494,24.24 11,20.917 11,17 l 0,-5.019 C 5.08,11.781 1.793,9.813 0,8.018 Z"
     id="path10"
     inkscape:connector-curvature="0"
     style="fill:#ffdc5d" />
  <path
     d="m 0,22 0,1.637 C 0.538,23.849 1.191,24 2,24 3.413,24 4.369,23.555 5,23.085 5.707,22.558 6,22 6,22 l -6,0 z"
     id="path12"
     inkscape:connector-curvature="0"
     style="fill:#df1f32" />
  <path
     d="m 3,19.5 -2,0 C 0.724,19.5 0.5,19.276 0.5,19 0.5,18.724 0.724,18.5 1,18.5 l 2,0 c 0.276,0 0.5,0.224 0.5,0.5 0,0.276 -0.224,0.5 -0.5,0.5 z"
     id="path14"
     inkscape:connector-curvature="0"
     style="fill:#c1694f" />
  <path
     d="M 6,16 C 5.448,16 5,15.552 5,15 l 0,-1 c 0,-0.552 0.448,-1 1,-1 0.552,0 1,0.448 1,1 l 0,1 c 0,0.552 -0.448,1 -1,1 z"
     id="path16"
     inkscape:connector-curvature="0"
     style="fill:#662113" />
  <path
     d="m 33,0 c -6.075,0 -11,4.925 -11,11 0,6.075 4.925,11 11,11 1.041,0 2.045,-0.154 3,-0.425 L 36,0.425 C 35.045,0.154 34.041,0 33,0 Z"
     id="path18"
     inkscape:connector-curvature="0"
     style="fill:#ffac33" />
  <path
     d="m 25,27 c -2.209,0 -4,1.791 -4,4 l 0,5 15,0 0,-9 -11,0 z"
     id="path20"
     inkscape:connector-curvature="0"
     style="fill:#4289c1" />
  <path
     d="m 25,32 1,0 0,4 -1,0 z"
     id="path22"
     inkscape:connector-curvature="0"
     style="fill:#2a6797" />
  <path
     d="M 36,11.28 C 31.77,10.155 29.687,7.952 28.734,6.476 28.314,8.28 27.296,11.175 25,11.845 L 25,17 c 0,0.589 0.061,1.162 0.168,1.719 0.61,3.15 2.863,5.706 5.832,6.757 l 0,1.524 3,5 2,-3.396 0,-17.324 z"
     id="path24"
     inkscape:connector-curvature="0"
     style="fill:#ffdc5d" />
  <path
     d="m 30,22 c 0,0 0.293,0.558 1,1.085 0.63,0.469 1.587,0.915 3,0.915 0.809,0 1.462,-0.151 2,-0.363 L 36,22 30,22 Z m 5,-2.5 -2,0 c -0.276,0 -0.5,-0.224 -0.5,-0.5 0,-0.276 0.224,-0.5 0.5,-0.5 l 2,0 c 0.276,0 0.5,0.224 0.5,0.5 0,0.276 -0.224,0.5 -0.5,0.5 z"
     id="path26"
     inkscape:connector-curvature="0"
     style="fill:#c1694f" />
  <path
     d="m 30,16 c -0.553,0 -1,-0.448 -1,-1 l 0,-1 c 0,-0.552 0.447,-1 1,-1 0.553,0 1,0.448 1,1 l 0,1 c 0,0.552 -0.447,1 -1,1 z"
     id="path28"
     inkscape:connector-curvature="0"
     style="fill:#662113" />
  <path
     d="M 26.539,4.711 C 26.539,2.109 24.429,0 21.828,0 20.249,0 18.855,0.78 18,1.972 17.144,0.78 15.75,0 14.172,0 11.571,0 9.461,2.109 9.461,4.711 c 0,0.369 0.047,0.727 0.127,1.07 0.654,4.065 5.173,8.353 8.411,9.529 3.238,-1.177 7.758,-5.465 8.412,-9.528 0.081,-0.344 0.128,-0.702 0.128,-1.071 z"
     id="path30"
     inkscape:connector-curvature="0"
     style="fill:#dd2e44" />
</svg>
