<?xml version="1.0" encoding="UTF-8" standalone="no"?>
<svg
   xmlns:dc="http://purl.org/dc/elements/1.1/"
   xmlns:cc="http://creativecommons.org/ns#"
   xmlns:rdf="http://www.w3.org/1999/02/22-rdf-syntax-ns#"
   xmlns:svg="http://www.w3.org/2000/svg"
   xmlns="http://www.w3.org/2000/svg"
   xmlns:sodipodi="http://sodipodi.sourceforge.net/DTD/sodipodi-0.dtd"
   xmlns:inkscape="http://www.inkscape.org/namespaces/inkscape"
   viewBox="0 0 35.769001 34.035999"
   id="svg2"
   version="1.1"
   inkscape:version="0.91 r13725"
   sodipodi:docname="1f495.svg"
   width="35.769001"
   height="34.035999">
  <metadata
     id="metadata10">
    <rdf:RDF>
      <cc:Work
         rdf:about="">
        <dc:format>image/svg+xml</dc:format>
        <dc:type
           rdf:resource="http://purl.org/dc/dcmitype/StillImage" />
      </cc:Work>
    </rdf:RDF>
  </metadata>
  <defs
     id="defs8" />
  <sodipodi:namedview
     pagecolor="#ffffff"
     bordercolor="#666666"
     borderopacity="1"
     objecttolerance="10"
     gridtolerance="10"
     guidetolerance="10"
     inkscape:pageopacity="0"
     inkscape:pageshadow="2"
     inkscape:window-width="640"
     inkscape:window-height="480"
     id="namedview6"
     showgrid="false"
     inkscape:zoom="6.5555556"
     inkscape:cx="17.884"
     inkscape:cy="17.018"
     inkscape:window-x="0"
     inkscape:window-y="0"
     inkscape:window-maximized="0"
     inkscape:current-layer="svg2" />
  <path
     d="m 24.654,18.733 c 0,-3.757 -3.045,-6.801 -6.801,-6.801 -2.28,0 -4.292,1.125 -5.526,2.845 C 11.093,13.057 9.08,11.932 6.801,11.932 3.045,11.932 0,14.976 0,18.733 c 0,0.531 0.067,1.049 0.183,1.545 0.945,5.867 7.468,12.059 12.144,13.758 4.675,-1.699 11.2,-7.891 12.142,-13.756 0.117,-0.498 0.185,-1.016 0.185,-1.547 z M 35.769,4.711 C 35.769,2.109 33.66,0 31.058,0 29.479,0 28.085,0.78 27.23,1.972 26.375,0.781 24.981,0 23.403,0 c -2.602,0 -4.711,2.109 -4.711,4.711 0,0.369 0.047,0.727 0.127,1.07 0.654,4.064 5.173,8.353 8.411,9.529 3.238,-1.177 7.758,-5.465 8.412,-9.528 0.08,-0.344 0.127,-0.702 0.127,-1.071 z"
     id="path4"
     inkscape:connector-curvature="0"
     style="fill:#dd2e44" />
</svg>
