<?xml version="1.0" encoding="UTF-8" standalone="no"?>
<svg
   xmlns:dc="http://purl.org/dc/elements/1.1/"
   xmlns:cc="http://creativecommons.org/ns#"
   xmlns:rdf="http://www.w3.org/1999/02/22-rdf-syntax-ns#"
   xmlns:svg="http://www.w3.org/2000/svg"
   xmlns="http://www.w3.org/2000/svg"
   xmlns:sodipodi="http://sodipodi.sourceforge.net/DTD/sodipodi-0.dtd"
   xmlns:inkscape="http://www.inkscape.org/namespaces/inkscape"
   viewBox="0 0 34 30"
   id="svg2"
   version="1.1"
   inkscape:version="0.91 r13725"
   sodipodi:docname="1f4a4.svg"
   width="34"
   height="30">
  <metadata
     id="metadata10">
    <rdf:RDF>
      <cc:Work
         rdf:about="">
        <dc:format>image/svg+xml</dc:format>
        <dc:type
           rdf:resource="http://purl.org/dc/dcmitype/StillImage" />
      </cc:Work>
    </rdf:RDF>
  </metadata>
  <defs
     id="defs8" />
  <sodipodi:namedview
     pagecolor="#ffffff"
     bordercolor="#666666"
     borderopacity="1"
     objecttolerance="10"
     gridtolerance="10"
     guidetolerance="10"
     inkscape:pageopacity="0"
     inkscape:pageshadow="2"
     inkscape:window-width="640"
     inkscape:window-height="480"
     id="namedview6"
     showgrid="false"
     inkscape:zoom="6.5555556"
     inkscape:cx="17"
     inkscape:cy="15"
     inkscape:window-x="0"
     inkscape:window-y="0"
     inkscape:window-maximized="0"
     inkscape:current-layer="svg2" />
  <path
     d="m 32,16 c 1.187,0 2,0.786 2,2 0,1.073 -0.983,2 -2,2 l -11,0 c -1.496,0 -2,-0.813 -2,-2 0,-0.565 0.632,-1.492 1,-2 L 28,4 21,4 C 19.872,4 19,3.157 19,2 19,0.927 19.929,0 21,0 l 11,0 c 1.639,0 2,1.012 2,2 0,0.621 -0.635,1.519 -1,2 l -8,12 7,0 z m -16,5 c 0.633,0 1,0.353 1,1 0,0.573 -0.458,1 -1,1 l -6,0 C 9.202,23 9,22.633 9,22 9,21.699 9.337,21.271 9.533,21 L 14,15 10,15 C 9.398,15 9,14.616 9,14 9,13.427 9.428,13 10,13 l 6,0 c 0.874,0 1,0.473 1,1 0,0.331 -0.338,0.877 -0.533,1.133 L 12,21 l 4,0 z m -9,7 c 0.633,0 1,0.353 1,1 0,0.573 -0.458,1 -1,1 L 1,30 C 0.202,30 0,29.633 0,29 0,28.699 0.337,28.271 0.533,28 L 5,22 1,22 C 0.398,22 0,21.616 0,21 0,20.428 0.428,20 1,20 l 6,0 c 0.874,0 1,0.473 1,1 0,0.331 -0.338,0.877 -0.533,1.133 L 3,28 7,28 Z"
     id="path4"
     inkscape:connector-curvature="0"
     style="fill:#4289c1" />
</svg>
