<?xml version="1.0" encoding="UTF-8" standalone="no"?>
<svg
   xmlns:dc="http://purl.org/dc/elements/1.1/"
   xmlns:cc="http://creativecommons.org/ns#"
   xmlns:rdf="http://www.w3.org/1999/02/22-rdf-syntax-ns#"
   xmlns:svg="http://www.w3.org/2000/svg"
   xmlns="http://www.w3.org/2000/svg"
   xmlns:sodipodi="http://sodipodi.sourceforge.net/DTD/sodipodi-0.dtd"
   xmlns:inkscape="http://www.inkscape.org/namespaces/inkscape"
   viewBox="0 0 36.000507 34.000626"
   id="svg2"
   version="1.1"
   inkscape:version="0.91 r13725"
   sodipodi:docname="1f4af.svg"
   width="36.000507"
   height="34.000626">
  <metadata
     id="metadata10">
    <rdf:RDF>
      <cc:Work
         rdf:about="">
        <dc:format>image/svg+xml</dc:format>
        <dc:type
           rdf:resource="http://purl.org/dc/dcmitype/StillImage" />
      </cc:Work>
    </rdf:RDF>
  </metadata>
  <defs
     id="defs8" />
  <sodipodi:namedview
     pagecolor="#ffffff"
     bordercolor="#666666"
     borderopacity="1"
     objecttolerance="10"
     gridtolerance="10"
     guidetolerance="10"
     inkscape:pageopacity="0"
     inkscape:pageshadow="2"
     inkscape:window-width="640"
     inkscape:window-height="480"
     id="namedview6"
     showgrid="false"
     inkscape:zoom="6.5555556"
     inkscape:cx="18.000608"
     inkscape:cy="17.001"
     inkscape:window-x="0"
     inkscape:window-y="0"
     inkscape:window-maximized="0"
     inkscape:current-layer="svg2" />
  <path
     d="m 1.7286076,19.999626 c -0.617,0 -0.95299997,-0.256 -1.12699997,-0.471 -0.171,-0.211 -0.348,-0.585 -0.225,-1.165 L 3.1046076,5.6576261 l -1.714,0.097 -0.013,0 c -0.51699997,0 -0.89199997,-0.168 -1.12699997,-0.459 -0.22,-0.272 -0.299,-0.621 -0.221,-0.98 0.15,-0.702 0.883,-1.286 1.66699997,-1.329 l 4.008,-0.227 c 0.078,-0.005 0.15,-0.008 0.217,-0.008 0.147,0 0.536,0 0.783,0.306 0.252,0.312 0.167,0.709 0.139,0.839 l -3.124,14.5569999 c -0.187,0.884 -0.919,1.489 -1.866,1.542 l -0.125,0.004 z m 10.7430004,-2 c -1.439,0 -2.6350004,-0.539 -3.4590004,-1.559 -1.163,-1.439 -1.467,-3.651 -0.878,-6.397 1.032,-4.8119999 4.2080004,-8.1859999 7.9020004,-8.3949999 1.59,-0.089 2.906,0.452 3.793,1.549 1.163,1.439 1.467,3.651 0.878,6.397 -1.032,4.8099999 -4.208,8.1839999 -7.904,8.3939999 -0.112,0.008 -0.223,0.011 -0.332,0.011 z m 3.414,-13.7459999 -0.137,0.004 c -1.94,0.111 -3.555,2.304 -4.32,5.8659999 -0.478,2.228 -0.381,3.899 0.272,4.707 0.297,0.368 0.717,0.555 1.249,0.555 l 0.14,-0.004 c 1.94,-0.109 3.554,-2.301 4.318,-5.8639999 0.478,-2.228 0.382,-3.9 -0.27,-4.708 -0.296,-0.369 -0.718,-0.556 -1.252,-0.556 z m 11.591,12.1069999 c -1.439,0 -2.637,-0.539 -3.462,-1.56 -1.163,-1.439 -1.467,-3.651 -0.878,-6.3969999 1.033,-4.813 4.209,-8.18600001 7.903,-8.39400001 1.603,-0.09 2.903,0.453 3.79,1.54900001 1.163,1.439 1.467,3.651 0.878,6.396 -1.031,4.8089999 -4.206,8.1829999 -7.902,8.3959999 -0.112,0.008 -0.221,0.01 -0.329,0.01 z m 3.411,-13.7469999 -0.136,0.004 c -1.941,0.111 -3.556,2.304 -4.32,5.865 -0.478,2.2289999 -0.381,3.9009999 0.272,4.7079999 0.297,0.368 0.719,0.555 1.251,0.555 l 0.14,-0.004 c 1.939,-0.109 3.554,-2.302 4.318,-5.8639999 0.479,-2.227 0.383,-3.899 -0.27,-4.707 -0.298,-0.37 -0.72,-0.557 -1.255,-0.557 z m -19.887,31.3869999 c -0.81,0 -1.5720004,-0.496 -1.8730004,-1.299 -0.388,-1.034 0.136,-2.187 1.1700004,-2.575 0.337,-0.126 8.399,-3.108 20.536,-4.12 1.101,-0.096 2.067,0.727 2.159,1.827 0.092,1.101 -0.727,2.067 -1.827,2.159 -11.59,0.966 -19.386,3.851 -19.464,3.88 -0.23,0.086 -0.468,0.128 -0.701,0.128 z m -8.9990004,-6.001 c -0.804,0 -1.56299997,-0.488 -1.86799997,-1.283 -0.396,-1.031 0.118,-2.188 1.14899997,-2.583 0.542,-0.209 13.5160004,-5.126 32.6120004,-6.131 1.113,-0.069 2.045,0.789 2.103,1.892 0.059,1.103 -0.789,2.045 -1.892,2.103 -18.423,0.97 -31.2610004,5.821 -31.3890004,5.87 -0.235,0.089 -0.477,0.132 -0.715,0.132 z"
     id="path4"
     inkscape:connector-curvature="0"
     style="fill:#bb1a34" />
</svg>
