<?xml version="1.0" encoding="UTF-8" standalone="no"?>
<svg
   xmlns:dc="http://purl.org/dc/elements/1.1/"
   xmlns:cc="http://creativecommons.org/ns#"
   xmlns:rdf="http://www.w3.org/1999/02/22-rdf-syntax-ns#"
   xmlns:svg="http://www.w3.org/2000/svg"
   xmlns="http://www.w3.org/2000/svg"
   xmlns:sodipodi="http://sodipodi.sourceforge.net/DTD/sodipodi-0.dtd"
   xmlns:inkscape="http://www.inkscape.org/namespaces/inkscape"
   viewBox="0 0 35 32.875"
   id="svg2"
   version="1.1"
   inkscape:version="0.91 r13725"
   sodipodi:docname="1f4ad.svg"
   width="35"
   height="32.875">
  <metadata
     id="metadata12">
    <rdf:RDF>
      <cc:Work
         rdf:about="">
        <dc:format>image/svg+xml</dc:format>
        <dc:type
           rdf:resource="http://purl.org/dc/dcmitype/StillImage" />
      </cc:Work>
    </rdf:RDF>
  </metadata>
  <defs
     id="defs10" />
  <sodipodi:namedview
     pagecolor="#ffffff"
     bordercolor="#666666"
     borderopacity="1"
     objecttolerance="10"
     gridtolerance="10"
     guidetolerance="10"
     inkscape:pageopacity="0"
     inkscape:pageshadow="2"
     inkscape:window-width="640"
     inkscape:window-height="480"
     id="namedview8"
     showgrid="false"
     inkscape:zoom="6.5555556"
     inkscape:cx="18"
     inkscape:cy="16"
     inkscape:window-x="0"
     inkscape:window-y="0"
     inkscape:window-maximized="0"
     inkscape:current-layer="svg2" />
  <path
     d="m 35,10.875 c 0,-3.866 -3.134,-7 -7,-7 -1.167,0 -2.265,0.29 -3.232,0.794 C 22.686,1.842 19.343,0 15.563,0 10.431,0 6.088,3.38 4.64,8.036 1.982,8.653 0,11.03 0,13.875 c 0,2.979 2.174,5.445 5.021,5.913 0.216,3.949 3.477,7.087 7.479,7.087 2.176,0 4.13,-0.933 5.5,-2.413 1.37,1.48 3.323,2.413 5.5,2.413 4.143,0 7.5,-3.357 7.5,-7.5 0,-0.71 -0.105,-1.394 -0.289,-2.045 C 33.23,16.271 35,13.78 35,10.875 Z"
     id="path4"
     inkscape:connector-curvature="0"
     style="fill:#bdddf4" />
  <circle
     cx="4"
     cy="29.875"
     r="3"
     id="circle6"
     style="fill:#bdddf4" />
</svg>
