<?xml version="1.0" encoding="UTF-8" standalone="no"?>
<svg
   xmlns:dc="http://purl.org/dc/elements/1.1/"
   xmlns:cc="http://creativecommons.org/ns#"
   xmlns:rdf="http://www.w3.org/1999/02/22-rdf-syntax-ns#"
   xmlns:svg="http://www.w3.org/2000/svg"
   xmlns="http://www.w3.org/2000/svg"
   xmlns:sodipodi="http://sodipodi.sourceforge.net/DTD/sodipodi-0.dtd"
   xmlns:inkscape="http://www.inkscape.org/namespaces/inkscape"
   viewBox="0 0 35.994038 35.976059"
   id="svg2"
   version="1.1"
   inkscape:version="0.91 r13725"
   sodipodi:docname="1f4a6.svg"
   width="35.994038"
   height="35.976059">
  <metadata
     id="metadata10">
    <rdf:RDF>
      <cc:Work
         rdf:about="">
        <dc:format>image/svg+xml</dc:format>
        <dc:type
           rdf:resource="http://purl.org/dc/dcmitype/StillImage" />
      </cc:Work>
    </rdf:RDF>
  </metadata>
  <defs
     id="defs8" />
  <sodipodi:namedview
     pagecolor="#ffffff"
     bordercolor="#666666"
     borderopacity="1"
     objecttolerance="10"
     gridtolerance="10"
     guidetolerance="10"
     inkscape:pageopacity="0"
     inkscape:pageshadow="2"
     inkscape:window-width="640"
     inkscape:window-height="480"
     id="namedview6"
     showgrid="false"
     inkscape:zoom="6.5555556"
     inkscape:cx="17.999968"
     inkscape:cy="17.999342"
     inkscape:window-x="0"
     inkscape:window-y="0"
     inkscape:window-maximized="0"
     inkscape:current-layer="svg2" />
  <path
     d="M 22.854968,0.73471703 7.8749679,7.000717 l 12.5370001,9.733 c 2.633,2.224 6.377,2.937 9.77,1.518 4.826,-2.018 7.096,-7.576 5.072,-12.413 -2.022,-4.838 -7.574,-7.123 -12.399,-5.10399997 z m -9.962,17.92399997 -10.8430001,-8.398 -1.91299996,13.245 c -0.534,2.855 0.502,5.902 2.95799996,7.803 3.494,2.705 8.5180001,2.066 11.2240001,-1.426 2.705,-3.492 2.067,-8.517 -1.426,-11.224 z m 15.339,7.015 -8.156,-4.69 -0.033,9.223 c -0.088,2 0.904,3.98 2.75,5.041 2.631,1.512 5.977,0.594 7.479,-2.051 1.499,-2.644 0.589,-6.013 -2.04,-7.523 z"
     id="path4"
     inkscape:connector-curvature="0"
     style="fill:#5dadec" />
</svg>
