<?xml version="1.0" encoding="UTF-8" standalone="no"?>
<svg
   xmlns:dc="http://purl.org/dc/elements/1.1/"
   xmlns:cc="http://creativecommons.org/ns#"
   xmlns:rdf="http://www.w3.org/1999/02/22-rdf-syntax-ns#"
   xmlns:svg="http://www.w3.org/2000/svg"
   xmlns="http://www.w3.org/2000/svg"
   xmlns:sodipodi="http://sodipodi.sourceforge.net/DTD/sodipodi-0.dtd"
   xmlns:inkscape="http://www.inkscape.org/namespaces/inkscape"
   viewBox="0 0 22 34.860001"
   id="svg2"
   version="1.1"
   inkscape:version="0.91 r13725"
   sodipodi:docname="1f4a1.svg"
   width="22"
   height="34.860001">
  <metadata
     id="metadata18">
    <rdf:RDF>
      <cc:Work
         rdf:about="">
        <dc:format>image/svg+xml</dc:format>
        <dc:type
           rdf:resource="http://purl.org/dc/dcmitype/StillImage" />
      </cc:Work>
    </rdf:RDF>
  </metadata>
  <defs
     id="defs16" />
  <sodipodi:namedview
     pagecolor="#ffffff"
     bordercolor="#666666"
     borderopacity="1"
     objecttolerance="10"
     gridtolerance="10"
     guidetolerance="10"
     inkscape:pageopacity="0"
     inkscape:pageshadow="2"
     inkscape:window-width="640"
     inkscape:window-height="480"
     id="namedview14"
     showgrid="false"
     inkscape:zoom="6.5555556"
     inkscape:cx="11"
     inkscape:cy="17"
     inkscape:window-x="0"
     inkscape:window-y="0"
     inkscape:window-maximized="0"
     inkscape:current-layer="svg2" />
  <path
     d="m 22,10.92 c 0,6.439 -5,7.439 -5,13.44 0,3.098 -3.123,3.359 -5.5,3.359 -2.053,0 -6.586,-0.779 -6.586,-3.361 C 4.914,18.36 0,17.36 0,10.92 0,4.889 5.285,0 11.083,0 16.883,0 22,4.889 22,10.92 Z"
     id="path4"
     inkscape:connector-curvature="0"
     style="fill:#ffd983" />
  <path
     d="m 15.167,32.36 c 0,0.828 -2.234,2.5 -4.167,2.5 -1.933,0 -4.167,-1.672 -4.167,-2.5 0,-0.828 2.233,-0.5 4.167,-0.5 1.933,0 4.167,-0.328 4.167,0.5 z"
     id="path6"
     inkscape:connector-curvature="0"
     style="fill:#ccd6dd" />
  <path
     d="m 15.707,10.153 c -0.391,-0.391 -1.023,-0.391 -1.414,0 L 11,13.446 7.707,10.153 c -0.391,-0.391 -1.023,-0.391 -1.414,0 -0.391,0.391 -0.391,1.023 0,1.414 L 10,15.274 10,25.86 c 0,0.553 0.448,1 1,1 0.552,0 1,-0.447 1,-1 l 0,-10.586 3.707,-3.707 c 0.391,-0.391 0.391,-1.023 0,-1.414 z"
     id="path8"
     inkscape:connector-curvature="0"
     style="fill:#ffcc4d" />
  <path
     d="m 17,30.86 c 0,1.104 -0.896,2 -2,2 l -8,0 c -1.104,0 -2,-0.896 -2,-2 l 0,-6 12,0 0,6 z"
     id="path10"
     inkscape:connector-curvature="0"
     style="fill:#99aab5" />
  <path
     d="m 4.999,31.86 c -0.48,0 -0.904,-0.347 -0.985,-0.836 -0.091,-0.544 0.277,-1.06 0.822,-1.15 l 12,-2 c 0.544,-0.098 1.06,0.277 1.15,0.822 0.091,0.544 -0.277,1.06 -0.822,1.15 l -12,2 C 5.109,31.856 5.053,31.86 4.999,31.86 Z m 0,-4 c -0.48,0 -0.904,-0.347 -0.985,-0.836 -0.091,-0.544 0.277,-1.06 0.822,-1.15 l 12,-2 c 0.544,-0.097 1.06,0.277 1.15,0.822 0.091,0.544 -0.277,1.06 -0.822,1.15 l -12,2 C 5.109,27.856 5.053,27.86 4.999,27.86 Z"
     id="path12"
     inkscape:connector-curvature="0"
     style="fill:#ccd6dd" />
</svg>
