<?xml version="1.0" encoding="UTF-8" standalone="no"?>
<svg
   xmlns:dc="http://purl.org/dc/elements/1.1/"
   xmlns:cc="http://creativecommons.org/ns#"
   xmlns:rdf="http://www.w3.org/1999/02/22-rdf-syntax-ns#"
   xmlns:svg="http://www.w3.org/2000/svg"
   xmlns="http://www.w3.org/2000/svg"
   xmlns:sodipodi="http://sodipodi.sourceforge.net/DTD/sodipodi-0.dtd"
   xmlns:inkscape="http://www.inkscape.org/namespaces/inkscape"
   viewBox="0 0 34.141998 34.141998"
   id="svg2"
   version="1.1"
   inkscape:version="0.91 r13725"
   sodipodi:docname="1f4a2.svg"
   width="34.141998"
   height="34.141998">
  <metadata
     id="metadata10">
    <rdf:RDF>
      <cc:Work
         rdf:about="">
        <dc:format>image/svg+xml</dc:format>
        <dc:type
           rdf:resource="http://purl.org/dc/dcmitype/StillImage" />
      </cc:Work>
    </rdf:RDF>
  </metadata>
  <defs
     id="defs8" />
  <sodipodi:namedview
     pagecolor="#ffffff"
     bordercolor="#666666"
     borderopacity="1"
     objecttolerance="10"
     gridtolerance="10"
     guidetolerance="10"
     inkscape:pageopacity="0"
     inkscape:pageshadow="2"
     inkscape:window-width="640"
     inkscape:window-height="480"
     id="namedview6"
     showgrid="false"
     inkscape:zoom="6.5555556"
     inkscape:cx="16.987"
     inkscape:cy="16.947"
     inkscape:window-x="0"
     inkscape:window-y="0"
     inkscape:window-maximized="0"
     inkscape:current-layer="svg2" />
  <path
     d="M 1.625,23.016 0,19.916 1.55,19.104 C 3.943,17.849 6.532,16.326 6.963,14.122 7.298,12.408 6.352,10.219 4.151,7.616 L 3.021,6.28 5.693,4.02 6.823,5.356 c 2.961,3.502 4.131,6.589 3.574,9.437 -0.788,4.037 -4.975,6.231 -7.223,7.41 l -1.549,0.813 z m 18.292,11.126 -0.812,-1.55 C 17.85,30.198 16.327,27.61 14.123,27.179 12.41,26.843 10.22,27.79 7.617,29.991 l -1.336,1.13 -2.26,-2.672 1.336,-1.13 c 3.501,-2.962 6.585,-4.134 9.437,-3.574 4.037,0.788 6.231,4.974 7.41,7.223 l 0.812,1.55 -3.099,1.624 z m 8.531,-4.022 -1.13,-1.336 c -2.962,-3.502 -4.131,-6.589 -3.574,-9.438 0.788,-4.036 4.974,-6.23 7.223,-7.409 l 1.55,-0.812 1.625,3.1 -1.55,0.812 c -2.394,1.255 -4.982,2.778 -5.413,4.981 -0.335,1.715 0.611,3.903 2.811,6.506 l 1.13,1.336 -2.672,2.26 z M 20.74,10.532 c -0.471,0 -0.934,-0.045 -1.392,-0.134 C 15.311,9.61 13.117,5.423 11.938,3.175 L 11.126,1.625 14.226,0 15.039,1.55 c 1.255,2.393 2.778,4.982 4.981,5.413 1.711,0.334 3.902,-0.61 6.506,-2.812 l 1.336,-1.13 2.26,2.672 -1.336,1.13 c -2.941,2.486 -5.588,3.709 -8.046,3.709 z"
     id="path4"
     inkscape:connector-curvature="0"
     style="fill:#be1931" />
</svg>
