<?xml version="1.0" encoding="UTF-8" standalone="no"?>
<svg
   xmlns:dc="http://purl.org/dc/elements/1.1/"
   xmlns:cc="http://creativecommons.org/ns#"
   xmlns:rdf="http://www.w3.org/1999/02/22-rdf-syntax-ns#"
   xmlns:svg="http://www.w3.org/2000/svg"
   xmlns="http://www.w3.org/2000/svg"
   xmlns:sodipodi="http://sodipodi.sourceforge.net/DTD/sodipodi-0.dtd"
   xmlns:inkscape="http://www.inkscape.org/namespaces/inkscape"
   viewBox="0 0 34.000347 35.742264"
   id="svg2"
   version="1.1"
   inkscape:version="0.91 r13725"
   sodipodi:docname="1f4aa.svg"
   width="34.000347"
   height="35.742264">
  <metadata
     id="metadata12">
    <rdf:RDF>
      <cc:Work
         rdf:about="">
        <dc:format>image/svg+xml</dc:format>
        <dc:type
           rdf:resource="http://purl.org/dc/dcmitype/StillImage" />
      </cc:Work>
    </rdf:RDF>
  </metadata>
  <defs
     id="defs10" />
  <sodipodi:namedview
     pagecolor="#ffffff"
     bordercolor="#666666"
     borderopacity="1"
     objecttolerance="10"
     gridtolerance="10"
     guidetolerance="10"
     inkscape:pageopacity="0"
     inkscape:pageshadow="2"
     inkscape:window-width="640"
     inkscape:window-height="480"
     id="namedview8"
     showgrid="false"
     inkscape:zoom="6.5555556"
     inkscape:cx="17.000348"
     inkscape:cy="17.742265"
     inkscape:window-x="0"
     inkscape:window-y="0"
     inkscape:window-maximized="0"
     inkscape:current-layer="svg2" />
  <path
     d="m 11.430348,22 c 0,0 -0.717,-3.641 0.298,-10.873 1.4,0.454 2.814,0.873 3.272,0.873 1,0 4,-1 4,-2 0,-1 -1,-2 -1,-2 l 2,-1 c 1,-1 0,-7 -4,-7 C 9.0003481,0 6.4303481,7 6.4303481,7 l 0.007,0.011 -0.007,0 c 0,0 -5.99999998,10.989 -5.99999998,20 0.065,0 -1,5 0,6 0.99999998,1 4.99999998,1 4.99999998,1 C 15.430348,38 34.000348,35 34.000348,26 c 0,-13 -19.57,-10 -22.57,-4 z"
     id="path4"
     inkscape:connector-curvature="0"
     style="fill:#ffdc5d" />
  <path
     d="m 18.494348,32.252 c -3.178,0 -5.793,-1.283 -5.941,-1.357 -0.493,-0.247 -0.693,-0.846 -0.447,-1.34 0.246,-0.494 0.845,-0.695 1.34,-0.45 0.042,0.021 4.241,2.061 7.957,0.641 2.055,-0.785 3.625,-2.507 4.669,-5.116 0.205,-0.515 0.791,-0.763 1.3,-0.558 0.513,0.205 0.763,0.787 0.558,1.3 -1.263,3.155 -3.223,5.258 -5.827,6.248 -1.216,0.461 -2.451,0.632 -3.609,0.632 z"
     id="path6"
     inkscape:connector-curvature="0"
     style="fill:#ef9645" />
</svg>
