<?xml version="1.0" encoding="UTF-8" standalone="no"?>
<svg
   xmlns:dc="http://purl.org/dc/elements/1.1/"
   xmlns:cc="http://creativecommons.org/ns#"
   xmlns:rdf="http://www.w3.org/1999/02/22-rdf-syntax-ns#"
   xmlns:svg="http://www.w3.org/2000/svg"
   xmlns="http://www.w3.org/2000/svg"
   xmlns:sodipodi="http://sodipodi.sourceforge.net/DTD/sodipodi-0.dtd"
   xmlns:inkscape="http://www.inkscape.org/namespaces/inkscape"
   viewBox="0 0 36 30"
   id="svg2"
   version="1.1"
   inkscape:version="0.91 r13725"
   sodipodi:docname="1f4bb.svg"
   width="36"
   height="30">
  <metadata
     id="metadata18">
    <rdf:RDF>
      <cc:Work
         rdf:about="">
        <dc:format>image/svg+xml</dc:format>
        <dc:type
           rdf:resource="http://purl.org/dc/dcmitype/StillImage" />
      </cc:Work>
    </rdf:RDF>
  </metadata>
  <defs
     id="defs16" />
  <sodipodi:namedview
     pagecolor="#ffffff"
     bordercolor="#666666"
     borderopacity="1"
     objecttolerance="10"
     gridtolerance="10"
     guidetolerance="10"
     inkscape:pageopacity="0"
     inkscape:pageshadow="2"
     inkscape:window-width="640"
     inkscape:window-height="480"
     id="namedview14"
     showgrid="false"
     inkscape:zoom="6.5555556"
     inkscape:cx="18"
     inkscape:cy="18"
     inkscape:window-x="0"
     inkscape:window-y="0"
     inkscape:window-maximized="0"
     inkscape:current-layer="svg2" />
  <path
     d="m 34,23.096 c -0.417,-0.963 -0.896,-2.008 -2,-2.008 l -1,0 c 1.104,0 2,-0.899 2,-2.008 L 33,2.008 C 33,0.899 32.104,0 31,0 L 5,0 C 3.896,0 3,0.899 3,2.008 L 3,19.08 c 0,1.109 0.896,2.008 2,2.008 l -1,0 c -1.104,0 -1.667,1.004 -2,2.008 L 0,27.991 C 0,29.101 0.896,30 2,30 l 32,0 c 1.104,0 2,-0.899 2,-2.008 l -2,-4.896 z"
     id="path4"
     inkscape:connector-curvature="0"
     style="fill:#ccd6dd" />
  <path
     d="m 0.008,28.075 0.006,0.057 0.17,0.692 C 0.5,29.516 1.192,30 2,30 l 32,0 c 1.076,0 1.947,-0.855 1.992,-1.925 l -35.984,0 z"
     id="path6"
     inkscape:connector-curvature="0"
     style="fill:#9aaab4" />
  <path
     d="m 31,18.075 c 0,0.555 -0.447,1.004 -1,1.004 l -24,0 c -0.552,0 -1,-0.449 -1,-1.004 L 5,3.013 C 5,2.458 5.448,2.009 6,2.009 l 24,0 c 0.553,0 1,0.45 1,1.004 l 0,15.062 z"
     id="path8"
     inkscape:connector-curvature="0"
     style="fill:#5dadec" />
  <path
     d="m 32.906,25.042 -0.76,-2.175 C 31.907,22.407 31.511,22.03 30.958,22.03 l -25.848,0 c -0.552,0 -0.906,0.408 -1.156,1.036 l -0.688,1.977 c -0.219,0.596 0.448,1.004 1,1.004 l 7.578,0 c 0,0 0.937,-0.047 1.103,-0.608 0.192,-0.648 0.415,-1.624 0.463,-1.796 0.074,-0.264 0.388,-0.531 0.856,-0.531 l 8.578,0 c 0.5,0 0.746,0.253 0.811,0.566 0.042,0.204 0.312,1.141 0.438,1.782 0.111,0.571 1.221,0.586 1.221,0.586 l 6.594,0 c 0.551,0 1.217,-0.471 0.998,-1.004 z"
     id="path10"
     inkscape:connector-curvature="0"
     style="fill:#aebbc1" />
  <path
     d="m 22.375,27.113 -7.781,0 c -0.375,0 -0.538,-0.343 -0.484,-0.675 0.054,-0.331 0.359,-1.793 0.383,-1.963 0.023,-0.171 0.274,-0.375 0.524,-0.375 l 7.015,0 c 0.297,0 0.49,0.163 0.55,0.489 0.059,0.327 0.302,1.641 0.321,1.941 0.019,0.301 -0.169,0.583 -0.528,0.583 z"
     id="path12"
     inkscape:connector-curvature="0"
     style="fill:#9aaab4" />
</svg>
