<?xml version="1.0" encoding="UTF-8" standalone="no"?>
<svg
   xmlns:dc="http://purl.org/dc/elements/1.1/"
   xmlns:cc="http://creativecommons.org/ns#"
   xmlns:rdf="http://www.w3.org/1999/02/22-rdf-syntax-ns#"
   xmlns:svg="http://www.w3.org/2000/svg"
   xmlns="http://www.w3.org/2000/svg"
   xmlns:sodipodi="http://sodipodi.sourceforge.net/DTD/sodipodi-0.dtd"
   xmlns:inkscape="http://www.inkscape.org/namespaces/inkscape"
   viewBox="0 0 36 36"
   id="svg2"
   version="1.1"
   inkscape:version="0.91 r13725"
   sodipodi:docname="1f4b9.svg"
   width="36"
   height="36">
  <metadata
     id="metadata14">
    <rdf:RDF>
      <cc:Work
         rdf:about="">
        <dc:format>image/svg+xml</dc:format>
        <dc:type
           rdf:resource="http://purl.org/dc/dcmitype/StillImage" />
      </cc:Work>
    </rdf:RDF>
  </metadata>
  <defs
     id="defs12" />
  <sodipodi:namedview
     pagecolor="#ffffff"
     bordercolor="#666666"
     borderopacity="1"
     objecttolerance="10"
     gridtolerance="10"
     guidetolerance="10"
     inkscape:pageopacity="0"
     inkscape:pageshadow="2"
     inkscape:window-width="640"
     inkscape:window-height="480"
     id="namedview10"
     showgrid="false"
     inkscape:zoom="6.5555556"
     inkscape:cx="17.958"
     inkscape:cy="18"
     inkscape:window-x="0"
     inkscape:window-y="0"
     inkscape:window-maximized="0"
     inkscape:current-layer="svg2" />
  <path
     d="m 36,32 c 0,2.209 -1.791,4 -4,4 L 4,36 C 1.791,36 0,34.209 0,32 L 0,4 C 0,1.791 1.791,0 4,0 l 28,0 c 2.209,0 4,1.791 4,4 l 0,28 z"
     id="path4"
     inkscape:connector-curvature="0"
     style="fill:#77b255" />
  <path
     d="m 9.854,14.875 -4.104,0 c -0.688,0 -1.227,-0.327 -1.227,-0.985 0,-0.661 0.539,-0.99 1.227,-0.99 l 2.876,0 L 3.834,5.501 C 3.536,5.052 3.385,4.725 3.385,4.306 c 0,-0.571 0.57,-0.99 1.049,-0.99 0.48,0 0.958,0.21 1.378,0.839 l 5.36,8.058 5.362,-8.058 c 0.419,-0.629 0.897,-0.839 1.378,-0.839 0.478,0 1.046,0.42 1.046,0.99 0,0.419 -0.148,0.746 -0.448,1.195 l -4.792,7.399 2.875,0 c 0.689,0 1.229,0.329 1.229,0.99 0,0.658 -0.539,0.985 -1.229,0.985 l -4.102,0 0,2.126 4.102,0 c 0.689,0 1.229,0.332 1.229,0.99 0,0.658 -0.539,0.987 -1.229,0.987 l -4.102,0 0,4.611 c 0,0.868 -0.539,1.41 -1.319,1.41 -0.778,0 -1.317,-0.542 -1.317,-1.41 l 0,-4.611 -4.105,0 c -0.688,0 -1.227,-0.329 -1.227,-0.987 0,-0.658 0.539,-0.99 1.227,-0.99 l 4.105,0 0,-2.126 z"
     id="path6"
     inkscape:connector-curvature="0"
     style="fill:#ffffff" />
  <path
     d="M 3.96,34 C 3.28,34 2.618,33.654 2.243,33.029 1.675,32.082 1.982,30.853 2.929,30.285 l 5,-3 c 0.501,-0.3 1.108,-0.366 1.661,-0.183 l 4.677,1.56 3.129,-3.911 c 0.55,-0.688 1.483,-0.933 2.305,-0.608 l 3.03,1.213 2.329,-6.988 c 0.099,-0.295 0.264,-0.562 0.483,-0.782 l 5,-5 c 0.781,-0.781 2.047,-0.781 2.828,0 0.781,0.781 0.781,2.047 0,2.828 l -4.666,4.666 -2.851,8.553 c -0.174,0.522 -0.557,0.95 -1.056,1.182 -0.499,0.23 -1.072,0.246 -1.585,0.043 l -3.622,-1.449 -3.073,3.841 c -0.523,0.654 -1.399,0.912 -2.194,0.648 L 9.198,31.188 4.987,33.714 C 4.665,33.908 4.31,34 3.96,34 Z"
     id="path8"
     inkscape:connector-curvature="0"
     style="fill:#ffffff" />
</svg>
