<?xml version="1.0" encoding="UTF-8" standalone="no"?>
<svg
   xmlns:dc="http://purl.org/dc/elements/1.1/"
   xmlns:cc="http://creativecommons.org/ns#"
   xmlns:rdf="http://www.w3.org/1999/02/22-rdf-syntax-ns#"
   xmlns:svg="http://www.w3.org/2000/svg"
   xmlns="http://www.w3.org/2000/svg"
   xmlns:sodipodi="http://sodipodi.sourceforge.net/DTD/sodipodi-0.dtd"
   xmlns:inkscape="http://www.inkscape.org/namespaces/inkscape"
   viewBox="0 0 36 36"
   id="svg2"
   version="1.1"
   inkscape:version="0.91 r13725"
   sodipodi:docname="1f4bd.svg"
   width="36"
   height="36">
  <metadata
     id="metadata18">
    <rdf:RDF>
      <cc:Work
         rdf:about="">
        <dc:format>image/svg+xml</dc:format>
        <dc:type
           rdf:resource="http://purl.org/dc/dcmitype/StillImage" />
      </cc:Work>
    </rdf:RDF>
  </metadata>
  <defs
     id="defs16" />
  <sodipodi:namedview
     pagecolor="#ffffff"
     bordercolor="#666666"
     borderopacity="1"
     objecttolerance="10"
     gridtolerance="10"
     guidetolerance="10"
     inkscape:pageopacity="0"
     inkscape:pageshadow="2"
     inkscape:window-width="640"
     inkscape:window-height="480"
     id="namedview14"
     showgrid="false"
     inkscape:zoom="6.5555556"
     inkscape:cx="18"
     inkscape:cy="18"
     inkscape:window-x="0"
     inkscape:window-y="0"
     inkscape:window-maximized="0"
     inkscape:current-layer="svg2" />
  <path
     d="m 36,32 c 0,2.209 -1.791,4 -4,4 L 4,36 C 1.791,36 0,34.209 0,32 L 0,4 C 0,1.791 1.791,0 4,0 l 28,0 c 2.209,0 4,1.791 4,4 l 0,28 z"
     id="path4"
     inkscape:connector-curvature="0"
     style="fill:#292f33" />
  <path
     d="M 34,18 C 34,26.837 26.837,34 18,34 9.164,34 2,26.837 2,18 2,9.164 9.164,2 18,2 26.837,2 34,9.164 34,18 Z M 18,15.333 c -1.473,0 -2.667,1.194 -2.667,2.667 0,1.473 1.194,2.667 2.667,2.667 1.473,0 2.667,-1.194 2.667,-2.667 0,-1.473 -1.194,-2.667 -2.667,-2.667 z"
     id="path6"
     inkscape:connector-curvature="0"
     style="fill:#ffd983" />
  <path
     d="m 13.811,17.535 c 0.109,-0.982 0.531,-1.868 1.193,-2.53 L 7.943,7.943 C 5.717,10.169 4.231,13.13 3.868,16.43 l 9.943,1.105 z m 8.378,0.93 c -0.109,0.981 -0.532,1.867 -1.194,2.53 l 7.062,7.062 c 2.226,-2.226 3.712,-5.187 4.075,-8.487 l -9.943,-1.105 z"
     id="path8"
     inkscape:connector-curvature="0"
     style="fill:#ffac33" />
  <path
     d="m 18.469,22.189 1.111,9.941 c 3.295,-0.365 6.253,-1.85 8.476,-4.074 l -7.062,-7.062 c -0.661,0.662 -1.546,1.086 -2.525,1.195 z m -0.91,-8.38 -1.048,-9.953 C 13.178,4.203 10.187,5.699 7.942,7.943 l 7.062,7.062 c 0.668,-0.668 1.564,-1.092 2.555,-1.196 z"
     id="path10"
     inkscape:connector-curvature="0"
     style="fill:#ffe8b6" />
  <path
     d="m 36,21 c 0,1.104 -0.896,2 -2,2 l -11,0 c -1.104,0 -2,-0.896 -2,-2 l 0,-6 c 0,-1.104 0.896,-2 2,-2 l 11,0 c 1.104,0 2,0.896 2,2 l 0,6 z"
     id="path12"
     inkscape:connector-curvature="0"
     style="fill:#f5f8fa" />
</svg>
