<?xml version="1.0" encoding="UTF-8" standalone="no"?>
<svg
   xmlns:dc="http://purl.org/dc/elements/1.1/"
   xmlns:cc="http://creativecommons.org/ns#"
   xmlns:rdf="http://www.w3.org/1999/02/22-rdf-syntax-ns#"
   xmlns:svg="http://www.w3.org/2000/svg"
   xmlns="http://www.w3.org/2000/svg"
   xmlns:sodipodi="http://sodipodi.sourceforge.net/DTD/sodipodi-0.dtd"
   xmlns:inkscape="http://www.inkscape.org/namespaces/inkscape"
   viewBox="0 0 36 24.062"
   id="svg2"
   version="1.1"
   inkscape:version="0.91 r13725"
   sodipodi:docname="1f4b5.svg"
   width="36"
   height="24.062">
  <metadata
     id="metadata14">
    <rdf:RDF>
      <cc:Work
         rdf:about="">
        <dc:format>image/svg+xml</dc:format>
        <dc:type
           rdf:resource="http://purl.org/dc/dcmitype/StillImage" />
      </cc:Work>
    </rdf:RDF>
  </metadata>
  <defs
     id="defs12" />
  <sodipodi:namedview
     pagecolor="#ffffff"
     bordercolor="#666666"
     borderopacity="1"
     objecttolerance="10"
     gridtolerance="10"
     guidetolerance="10"
     inkscape:pageopacity="0"
     inkscape:pageshadow="2"
     inkscape:window-width="640"
     inkscape:window-height="480"
     id="namedview10"
     showgrid="false"
     inkscape:zoom="6.5555556"
     inkscape:cx="18"
     inkscape:cy="12.062"
     inkscape:window-x="0"
     inkscape:window-y="0"
     inkscape:window-maximized="0"
     inkscape:current-layer="svg2" />
  <path
     d="M 2,0 C 0,0 0,2 0,2 l 0,20 c 0,0 0,2 2,2 l 32,0 c 2,0 2,-2 2,-2 L 36,2 C 36,2 36,0 34,0 L 2,0 Z"
     id="path4"
     inkscape:connector-curvature="0"
     style="fill:#a7d28b" />
  <path
     d="m 13,0 10,0 0,24.062 -10,0 z"
     id="path6"
     inkscape:connector-curvature="0"
     style="fill:#9aaab4" />
  <path
     d="m 11,14.031 c 0,-2.979 -5.493,-2.785 -5.493,-4.584 0,-0.871 0.833,-1.296 1.799,-1.296 1.625,0 1.914,1.044 2.65,1.044 0.521,0 0.772,-0.328 0.772,-0.696 0,-0.856 -1.296,-1.502 -2.539,-1.726 l 0,-0.825 c 0,-0.515 -0.417,-0.932 -0.932,-0.932 -0.515,0 -0.932,0.417 -0.932,0.932 l 0,0.853 c -1.354,0.31 -2.521,1.25 -2.521,2.781 0,2.862 5.493,2.746 5.493,4.758 0,0.695 -0.754,1.391 -1.992,1.391 -1.857,0 -2.476,-1.257 -3.229,-1.257 -0.368,0 -0.696,0.309 -0.696,0.775 0,0.741 1.24,1.631 2.947,1.881 l -0.001,0.004 0,0.934 c 0,0.514 0.418,0.932 0.933,0.932 0.515,0 0.932,-0.418 0.932,-0.932 l 0,-0.934 c 0,-0.01 -0.005,-0.019 -0.006,-0.028 C 9.719,16.819 11,15.82 11,14.031 Z"
     id="path8"
     inkscape:connector-curvature="0"
     style="fill:#67757f" />
</svg>
