<?xml version="1.0" encoding="UTF-8" standalone="no"?>
<svg
   xmlns:dc="http://purl.org/dc/elements/1.1/"
   xmlns:cc="http://creativecommons.org/ns#"
   xmlns:rdf="http://www.w3.org/1999/02/22-rdf-syntax-ns#"
   xmlns:svg="http://www.w3.org/2000/svg"
   xmlns="http://www.w3.org/2000/svg"
   xmlns:sodipodi="http://sodipodi.sourceforge.net/DTD/sodipodi-0.dtd"
   xmlns:inkscape="http://www.inkscape.org/namespaces/inkscape"
   viewBox="0 0 28 36"
   id="svg2"
   version="1.1"
   inkscape:version="0.91 r13725"
   sodipodi:docname="1f4ba.svg"
   width="28"
   height="36">
  <metadata
     id="metadata22">
    <rdf:RDF>
      <cc:Work
         rdf:about="">
        <dc:format>image/svg+xml</dc:format>
        <dc:type
           rdf:resource="http://purl.org/dc/dcmitype/StillImage" />
      </cc:Work>
    </rdf:RDF>
  </metadata>
  <defs
     id="defs20" />
  <sodipodi:namedview
     pagecolor="#ffffff"
     bordercolor="#666666"
     borderopacity="1"
     objecttolerance="10"
     gridtolerance="10"
     guidetolerance="10"
     inkscape:pageopacity="0"
     inkscape:pageshadow="2"
     inkscape:window-width="640"
     inkscape:window-height="480"
     id="namedview18"
     showgrid="false"
     inkscape:zoom="6.5555556"
     inkscape:cx="13"
     inkscape:cy="18"
     inkscape:window-x="0"
     inkscape:window-y="0"
     inkscape:window-maximized="0"
     inkscape:current-layer="svg2" />
  <path
     d="M 6,27 C 6,28.104 5.104,29 4,29 2.896,29 2,28.104 2,27 L 2,16 c 0,-1.104 0.896,-2 2,-2 1.104,0 2,0.896 2,2 l 0,11 z m 20,0 c 0,1.104 -0.896,2 -2,2 -1.104,0 -2,-0.896 -2,-2 l 0,-11 c 0,-1.104 0.896,-2 2,-2 1.104,0 2,0.896 2,2 l 0,11 z"
     id="path4"
     inkscape:connector-curvature="0"
     style="fill:#9aaab4" />
  <path
     d="m 24,34 c 0,1.104 -0.896,2 -2,2 -1.104,0 -2,-0.896 -2,-2 l 0,-6 c 0,-1.104 0.896,-2 2,-2 1.104,0 2,0.896 2,2 l 0,6 z M 8,34 C 8,35.104 7.104,36 6,36 4.896,36 4,35.104 4,34 l 0,-6 c 0,-1.104 0.896,-2 2,-2 1.104,0 2,0.896 2,2 l 0,6 z"
     id="path6"
     inkscape:connector-curvature="0"
     style="fill:#67757f" />
  <path
     d="m 24,18 c 0,2.209 -1.791,4 -4,4 L 8,22 C 5.791,22 4,20.209 4,18 L 4,4 C 4,1.791 5.791,0 8,0 l 12,0 c 2.209,0 4,1.791 4,4 l 0,14 z"
     id="path8"
     inkscape:connector-curvature="0"
     style="fill:#4289c1" />
  <path
     d="m 10,0 8,0 0,8 -8,0 z"
     id="path10"
     inkscape:connector-curvature="0"
     style="fill:#e1e8ed" />
  <path
     d="m 6,15 c 0,1.104 -0.896,2 -2,2 L 2,17 C 0.896,17 0,16.104 0,15 0,13.896 0.896,13 2,13 l 2,0 c 1.104,0 2,0.896 2,2 z m 22,0 c 0,1.104 -0.896,2 -2,2 l -2,0 c -1.104,0 -2,-0.896 -2,-2 0,-1.104 0.896,-2 2,-2 l 2,0 c 1.104,0 2,0.896 2,2 z"
     id="path12"
     inkscape:connector-curvature="0"
     style="fill:#ccd6dd" />
  <path
     d="m 24,23 c 0,1.657 -1.343,3 -3,3 L 7,26 C 5.343,26 4,24.657 4,23 4,21.343 5.343,20 7,20 l 14,0 c 1.657,0 3,1.343 3,3 z"
     id="path14"
     inkscape:connector-curvature="0"
     style="fill:#5dadec" />
  <path
     d="m 4,23 20,0 0,6 -20,0 z"
     id="path16"
     inkscape:connector-curvature="0"
     style="fill:#2a6797" />
</svg>
