<?xml version="1.0" encoding="UTF-8" standalone="no"?>
<svg
   xmlns:dc="http://purl.org/dc/elements/1.1/"
   xmlns:cc="http://creativecommons.org/ns#"
   xmlns:rdf="http://www.w3.org/1999/02/22-rdf-syntax-ns#"
   xmlns:svg="http://www.w3.org/2000/svg"
   xmlns="http://www.w3.org/2000/svg"
   xmlns:sodipodi="http://sodipodi.sourceforge.net/DTD/sodipodi-0.dtd"
   xmlns:inkscape="http://www.inkscape.org/namespaces/inkscape"
   viewBox="0 0 35.07045 33.155842"
   id="svg2"
   version="1.1"
   inkscape:version="0.91 r13725"
   sodipodi:docname="1f4b8.svg"
   width="35.07045"
   height="33.155842">
  <metadata
     id="metadata22">
    <rdf:RDF>
      <cc:Work
         rdf:about="">
        <dc:format>image/svg+xml</dc:format>
        <dc:type
           rdf:resource="http://purl.org/dc/dcmitype/StillImage" />
      </cc:Work>
    </rdf:RDF>
  </metadata>
  <defs
     id="defs20" />
  <sodipodi:namedview
     pagecolor="#ffffff"
     bordercolor="#666666"
     borderopacity="1"
     objecttolerance="10"
     gridtolerance="10"
     guidetolerance="10"
     inkscape:pageopacity="0"
     inkscape:pageshadow="2"
     inkscape:window-width="640"
     inkscape:window-height="480"
     id="namedview18"
     showgrid="false"
     inkscape:zoom="6.5555556"
     inkscape:cx="17.535945"
     inkscape:cy="15.418015"
     inkscape:window-x="0"
     inkscape:window-y="0"
     inkscape:window-maximized="0"
     inkscape:current-layer="svg2" />
  <path
     d="M 11.011945,9.9738278 C 7.2289452,15.223828 0.60394521,17.710828 0.60394521,17.710828 c -1.236,1.047 -0.192,2.281 -0.192,2.281 l 10.43799979,12.359 c 0,0 0.522,0.617 2.28,0.189 0,0 6.625,-2.482 10.407,-7.732 3.899,-5.41 10.93,-7.118 10.93,-7.118 1.235,-1.047 0.192,-2.283 0.192,-2.283 l -10.438,-12.3570002 c 0,0 -0.522,-0.618 -2.28,-0.192 0,0 -7.03,1.704 -10.929,7.116 z"
     id="path4"
     inkscape:connector-curvature="0"
     style="fill:#a7d28b" />
  <path
     d="m 13.814945,7.0258278 c -1.009,0.831 -1.978,1.802 -2.803,2.948 -0.816,1.1320002 -1.7679998,2.1290002 -2.7529998,3.0070002 l 12.5259998,14.835 c 0.985,-0.879 1.938,-1.875 2.753,-3.008 0.825,-1.144 1.794,-2.115 2.803,-2.947 l -12.526,-14.8350002 z"
     id="path6"
     inkscape:connector-curvature="0"
     style="fill:#9aaab4" />
  <path
     d="m 14.014945,22.292828 c -1.557,-1.844 -4.8529998,1.148 -5.7929998,0.035 -0.455,-0.539 -0.162,-1.238 0.436,-1.742 1.005,-0.85 1.7299998,-0.355 2.1849998,-0.74 0.323,-0.272 0.306,-0.605 0.114,-0.834 -0.446,-0.527 -1.5859998,-0.252 -2.4719998,0.26 l -0.431,-0.51 c -0.269,-0.318 -0.745,-0.359 -1.063,-0.09 -0.318,0.27 -0.358,0.744 -0.089,1.062 l 0.446,0.529 c -0.677,0.898 -0.907,2.09 -0.106,3.037 1.496,1.77 4.8329998,-1.172 5.8829998,0.072 0.364,0.432 0.262,1.256 -0.504,1.902 -1.148,0.971 -2.188,0.516 -2.6549998,0.91 -0.228,0.191 -0.269,0.555 -0.026,0.844 0.3869998,0.457 1.6199998,0.359 2.8049998,-0.379 0.002,0.002 0.002,0.004 0.002,0.006 l 0.487,0.576 c 0.269,0.318 0.746,0.357 1.064,0.09 0.319,-0.27 0.358,-0.746 0.089,-1.064 l -0.487,-0.576 c -0.005,-0.006 -0.013,-0.01 -0.019,-0.016 0.799,-0.978 1.069,-2.267 0.134,-3.372 z"
     id="path8"
     inkscape:connector-curvature="0"
     style="fill:#67757f" />
  <path
     d="m 31.991945,32.325828 c 0.009,-0.008 0.019,-0.014 0.028,-0.021 0.068,-0.068 0.121,-0.146 0.181,-0.221 0.042,-0.052 0.089,-0.102 0.128,-0.155 0.035,-0.05 0.064,-0.101 0.096,-0.152 1.42,-2.187 0.49,-5.895 -2.321,-8.707 -2.812,-2.812 -6.521,-3.742 -8.707,-2.321 -0.052,0.031 -0.103,0.06 -0.153,0.096 -0.053,0.039 -0.104,0.086 -0.154,0.127 -0.074,0.061 -0.152,0.113 -0.221,0.182 -0.009,0.009 -0.015,0.019 -0.022,0.028 -0.011,0.011 -0.024,0.018 -0.036,0.03 l 0.006,0.005 c -1,1.062 -1.012,2.705 -0.006,3.712 1.008,1.008 2.65,0.994 3.713,-0.006 l 0.011,0.012 c -0.021,0.02 -0.044,0.033 -0.064,0.053 -1.059,1.059 -1.084,2.748 -0.059,3.775 1.026,1.025 2.717,1 3.775,-0.059 0.02,-0.02 0.033,-0.043 0.053,-0.064 l 0.011,0.012 c -1,1.062 -1.013,2.705 -0.005,3.713 1.007,1.006 2.649,0.994 3.711,-0.006 l 0.006,0.006 c 0.01,-0.014 0.018,-0.027 0.029,-0.039 z"
     id="path10"
     inkscape:connector-curvature="0"
     style="fill:#e1e8ed" />
  <path
     d="m 20.812945,24.968828 c 0.906,0.905 2.321,0.979 3.37,0.261 0.439,-0.75 0.565,-1.463 0.565,-1.686 -2.207,1.646 -4.177,0.009 -4.618,-0.97 -0.183,0.846 0.039,1.75 0.683,2.395 z m 7.299,3.84 c 0.298,-0.419 0.529,-0.824 0.637,-1.098 -1.405,1.288 -4.091,0.345 -4.905,-1.698 -0.358,0.95 -0.175,2.044 0.571,2.79 1.002,1.002 2.634,0.994 3.697,0.006 z m 3.854,3.595 0.029,-0.036 c 0.01,-0.008 0.02,-0.014 0.028,-0.022 0.069,-0.068 0.122,-0.146 0.181,-0.22 0.043,-0.053 0.089,-0.102 0.128,-0.156 0.036,-0.049 0.065,-0.101 0.097,-0.152 0.065,-0.1 0.1,-0.218 0.155,-0.324 -2.528,1.131 -4.415,-0.788 -4.944,-1.745 -0.295,0.917 -0.103,1.944 0.609,2.657 1.006,1.007 2.648,0.995 3.711,-0.006 l 0.006,0.004 z"
     id="path12"
     inkscape:connector-curvature="0"
     style="fill:#ccd6dd" />
  <path
     d="m 13.491945,12.235828 0.028,-0.022 c 0.069,-0.068 0.122,-0.146 0.181,-0.22 0.042,-0.052 0.088,-0.101 0.127,-0.155 0.036,-0.05 0.065,-0.101 0.097,-0.152 1.42,-2.1870002 0.489,-5.8960002 -2.322,-8.7070002 C 8.7909452,0.16782784 5.0829452,-0.76317216 2.8959452,0.65682784 c -0.051,0.032 -0.103,0.061 -0.153,0.097 -0.054,0.039 -0.103,0.085 -0.155,0.127 -0.074,0.06 -0.152,0.112 -0.22,0.18099996 -0.009,0.009 -0.015,0.02 -0.022,0.028 -0.011,0.01 -0.025,0.019 -0.036,0.03 l 0.005,0.005 c -1,1.062 -1.012,2.705 -0.005,3.712 1.007,1.007 2.65,0.995 3.712,-0.005 l 0.011,0.011 c -0.021,0.019 -0.044,0.033 -0.064,0.053 -1.059,1.059 -1.084,2.748 -0.058,3.775 1.026,1.027 2.716,1.001 3.775,-0.058 0.02,-0.02 0.033,-0.043 0.053,-0.064 l 0.011,0.011 c -1,1.062 -1.013,2.7050002 -0.005,3.7120002 1.0069998,1.007 2.6489998,0.995 3.7109998,-0.006 l 0.005,0.006 c 0.011,-0.011 0.02,-0.024 0.031,-0.036 z"
     id="path14"
     inkscape:connector-curvature="0"
     style="fill:#e1e8ed" />
  <path
     d="m 2.3089452,4.8378278 c 0.906,0.906 2.321,0.98 3.37,0.26 0.439,-0.75 0.564,-1.462 0.564,-1.685 -2.206,1.645 -4.177,0.007 -4.617,-0.972 -0.183,0.847 0.039,1.752 0.683,2.397 z m 7.301,3.838 c 0.297,-0.419 0.5279998,-0.822 0.6349998,-1.096 -1.4059998,1.288 -4.0919998,0.344 -4.9049998,-1.699 -0.358,0.95 -0.175,2.044 0.57,2.79 1.004,1.003 2.637,0.994 3.7,0.005 z m 3.8509998,3.5970002 c 0.011,-0.011 0.02,-0.024 0.03,-0.036 l 0.028,-0.022 c 0.069,-0.068 0.122,-0.146 0.181,-0.22 0.042,-0.052 0.088,-0.101 0.127,-0.155 0.036,-0.05 0.065,-0.101 0.097,-0.152 0.065,-0.1 0.1,-0.219 0.155,-0.325 -2.528,1.131 -4.4149998,-0.787 -4.9439998,-1.7440002 -0.295,0.9170002 -0.103,1.9440002 0.609,2.6560002 1.0069998,1.007 2.6489998,0.995 3.7109998,-0.006 l 0.006,0.004 z"
     id="path16"
     inkscape:connector-curvature="0"
     style="fill:#ccd6dd" />
</svg>
