<?xml version="1.0" encoding="UTF-8" standalone="no"?>
<svg
   xmlns:dc="http://purl.org/dc/elements/1.1/"
   xmlns:cc="http://creativecommons.org/ns#"
   xmlns:rdf="http://www.w3.org/1999/02/22-rdf-syntax-ns#"
   xmlns:svg="http://www.w3.org/2000/svg"
   xmlns="http://www.w3.org/2000/svg"
   xmlns:sodipodi="http://sodipodi.sourceforge.net/DTD/sodipodi-0.dtd"
   xmlns:inkscape="http://www.inkscape.org/namespaces/inkscape"
   viewBox="0 0 19.618999 36.005001"
   id="svg2"
   version="1.1"
   inkscape:version="0.91 r13725"
   sodipodi:docname="1f4b2.svg"
   width="19.618999"
   height="36.005001">
  <metadata
     id="metadata10">
    <rdf:RDF>
      <cc:Work
         rdf:about="">
        <dc:format>image/svg+xml</dc:format>
        <dc:type
           rdf:resource="http://purl.org/dc/dcmitype/StillImage" />
      </cc:Work>
    </rdf:RDF>
  </metadata>
  <defs
     id="defs8" />
  <sodipodi:namedview
     pagecolor="#ffffff"
     bordercolor="#666666"
     borderopacity="1"
     objecttolerance="10"
     gridtolerance="10"
     guidetolerance="10"
     inkscape:pageopacity="0"
     inkscape:pageshadow="2"
     inkscape:window-width="640"
     inkscape:window-height="480"
     id="namedview6"
     showgrid="false"
     inkscape:zoom="6.5555556"
     inkscape:cx="8.809"
     inkscape:cy="18.002"
     inkscape:window-x="0"
     inkscape:window-y="0"
     inkscape:window-maximized="0"
     inkscape:current-layer="svg2" />
  <path
     d="m 19.619,23.212 c 0,-7.672 -14.144,-7.171 -14.144,-11.803 0,-2.242 2.145,-3.337 4.633,-3.337 4.184,0 4.929,2.688 6.824,2.688 1.342,0 1.988,-0.845 1.988,-1.792 0,-2.201 -3.337,-3.867 -6.537,-4.444 l 0,-2.124 C 12.383,1.075 11.311,0 9.985,0 8.658,0 7.585,1.075 7.585,2.4 l 0,2.199 c -3.489,0.794 -6.49,3.214 -6.49,7.159 0,7.369 14.142,7.071 14.142,12.247 0,1.793 -1.941,3.586 -5.129,3.586 -4.781,0 -6.374,-3.236 -8.316,-3.236 -0.946,0 -1.792,0.796 -1.792,1.996 0,1.906 3.195,4.2 7.588,4.841 l -0.003,0.015 0,2.397 c 0,1.326 1.075,2.401 2.401,2.401 1.325,0 2.399,-1.075 2.399,-2.401 l 0,-2.397 c 0,-0.028 -0.014,-0.05 -0.016,-0.075 3.953,-0.738 7.25,-3.315 7.25,-7.92 z"
     id="path4"
     inkscape:connector-curvature="0"
     style="fill:#292f33" />
</svg>
