<?xml version="1.0" encoding="UTF-8" standalone="no"?>
<svg
   xmlns:dc="http://purl.org/dc/elements/1.1/"
   xmlns:cc="http://creativecommons.org/ns#"
   xmlns:rdf="http://www.w3.org/1999/02/22-rdf-syntax-ns#"
   xmlns:svg="http://www.w3.org/2000/svg"
   xmlns="http://www.w3.org/2000/svg"
   xmlns:sodipodi="http://sodipodi.sourceforge.net/DTD/sodipodi-0.dtd"
   xmlns:inkscape="http://www.inkscape.org/namespaces/inkscape"
   viewBox="0 0 34 34"
   id="svg2"
   version="1.1"
   inkscape:version="0.91 r13725"
   sodipodi:docname="1f4c9.svg"
   width="34"
   height="34">
  <metadata
     id="metadata14">
    <rdf:RDF>
      <cc:Work
         rdf:about="">
        <dc:format>image/svg+xml</dc:format>
        <dc:type
           rdf:resource="http://purl.org/dc/dcmitype/StillImage" />
      </cc:Work>
    </rdf:RDF>
  </metadata>
  <defs
     id="defs12" />
  <sodipodi:namedview
     pagecolor="#ffffff"
     bordercolor="#666666"
     borderopacity="1"
     objecttolerance="10"
     gridtolerance="10"
     guidetolerance="10"
     inkscape:pageopacity="0"
     inkscape:pageshadow="2"
     inkscape:window-width="640"
     inkscape:window-height="480"
     id="namedview10"
     showgrid="false"
     inkscape:zoom="6.5555556"
     inkscape:cx="17"
     inkscape:cy="17"
     inkscape:window-x="0"
     inkscape:window-y="0"
     inkscape:window-maximized="0"
     inkscape:current-layer="svg2" />
  <path
     d="M 30,1 4,1 C 2.343,1 1,2.343 1,4 l 0,26 c 0,1.657 1.343,3 3,3 l 26,0 c 1.657,0 3,-1.343 3,-3 L 33,4 C 33,2.343 31.657,1 30,1 Z"
     id="path4"
     inkscape:connector-curvature="0"
     style="fill:#ccd6dd" />
  <path
     d="M 30,0 4,0 C 1.791,0 0,1.791 0,4 l 0,26 c 0,2.209 1.791,4 4,4 l 26,0 c 2.209,0 4,-1.791 4,-4 L 34,4 C 34,1.791 32.209,0 30,0 Z m 0,2 c 1.103,0 2,0.897 2,2 l 0,4 -6,0 0,-6 4,0 z m -4,16 6,0 0,6 -6,0 0,-6 z m 0,-2 0,-6 6,0 0,6 -6,0 z m -2,-14 0,6 -6,0 0,-6 6,0 z m -6,8 6,0 0,6 -6,0 0,-6 z m 0,8 6,0 0,6 -6,0 0,-6 z m -2,-16 0,6 -6,0 0,-6 6,0 z m -6,8 6,0 0,6 -6,0 0,-6 z m 0,8 6,0 0,6 -6,0 0,-6 z M 2,4 C 2,2.897 2.897,2 4,2 L 8,2 8,8 2,8 2,4 Z m 0,6 6,0 0,6 -6,0 0,-6 z m 0,8 6,0 0,6 -6,0 0,-6 z M 4,32 C 2.897,32 2,31.103 2,30 l 0,-4 6,0 0,6 -4,0 z m 6,0 0,-6 6,0 0,6 -6,0 z m 8,0 0,-6 6,0 0,6 -6,0 z m 12,0 -4,0 0,-6 6,0 0,4 c 0,1.103 -0.897,2 -2,2 z"
     id="path6"
     inkscape:connector-curvature="0"
     style="fill:#e1e8ed" />
  <path
     d="m 30.002,32 c -0.721,0 -1.416,-0.39 -1.774,-1.072 l -9.738,-18.59 -6.076,6.076 c -0.446,0.447 -1.076,0.66 -1.705,0.564 -0.626,-0.092 -1.171,-0.474 -1.47,-1.03 l -7,-13 C 1.715,3.975 2.079,2.762 3.052,2.239 4.027,1.716 5.238,2.079 5.761,3.051 l 5.726,10.633 6.1,-6.099 c 0.45,-0.45 1.089,-0.659 1.716,-0.563 0.629,0.096 1.175,0.485 1.47,1.049 l 11,21 c 0.513,0.979 0.135,2.187 -0.844,2.699 C 30.632,31.927 30.315,32 30.002,32 Z"
     id="path8"
     inkscape:connector-curvature="0"
     style="fill:#3b94d9" />
</svg>
