<?xml version="1.0" encoding="UTF-8" standalone="no"?>
<svg
   xmlns:dc="http://purl.org/dc/elements/1.1/"
   xmlns:cc="http://creativecommons.org/ns#"
   xmlns:rdf="http://www.w3.org/1999/02/22-rdf-syntax-ns#"
   xmlns:svg="http://www.w3.org/2000/svg"
   xmlns="http://www.w3.org/2000/svg"
   xmlns:sodipodi="http://sodipodi.sourceforge.net/DTD/sodipodi-0.dtd"
   xmlns:inkscape="http://www.inkscape.org/namespaces/inkscape"
   viewBox="0 0 36 36"
   id="svg2"
   version="1.1"
   inkscape:version="0.91 r13725"
   sodipodi:docname="1f4c7.svg"
   width="36"
   height="36">
  <metadata
     id="metadata20">
    <rdf:RDF>
      <cc:Work
         rdf:about="">
        <dc:format>image/svg+xml</dc:format>
        <dc:type
           rdf:resource="http://purl.org/dc/dcmitype/StillImage" />
      </cc:Work>
    </rdf:RDF>
  </metadata>
  <defs
     id="defs18" />
  <sodipodi:namedview
     pagecolor="#ffffff"
     bordercolor="#666666"
     borderopacity="1"
     objecttolerance="10"
     gridtolerance="10"
     guidetolerance="10"
     inkscape:pageopacity="0"
     inkscape:pageshadow="2"
     inkscape:window-width="640"
     inkscape:window-height="480"
     id="namedview16"
     showgrid="false"
     inkscape:zoom="6.5555556"
     inkscape:cx="18"
     inkscape:cy="18"
     inkscape:window-x="0"
     inkscape:window-y="0"
     inkscape:window-maximized="0"
     inkscape:current-layer="svg2" />
  <path
     d="M 32,13 4,13 c -2.209,0 -4,1.791 -4,4 l 0,2 c 0,2.209 1.791,4 4,4 l 0,9 c 0,2.209 1.791,4 4,4 l 20,0 c 2.209,0 4,-1.791 4,-4 l 0,-9 c 2.209,0 4,-1.791 4,-4 l 0,-2 c 0,-2.209 -1.791,-4 -4,-4 z"
     id="path4"
     inkscape:connector-curvature="0"
     style="fill:#292f33" />
  <path
     d="m 30,15 c 0,1.104 -0.896,2 -2,2 L 8,17 C 6.896,17 6,16.104 6,15 L 6,2 C 6,0.895 6.896,0 8,0 l 20,0 c 1.104,0 2,0.896 2,2 l 0,13 z"
     id="path6"
     inkscape:connector-curvature="0"
     style="fill:#ccd6dd" />
  <path
     d="m 18,13 c 0,0.552 -0.447,1 -1,1 L 9,14 C 8.448,14 8,13.552 8,13 L 8,3 C 8,2.448 8.448,2 9,2 l 8,0 c 0.553,0 1,0.448 1,1 l 0,10 z"
     id="path8"
     inkscape:connector-curvature="0"
     style="fill:#55acee" />
  <path
     d="m 30,32 c 0,1.104 -0.896,2 -2,2 L 8,34 C 6.896,34 6,33.104 6,32 L 6,21 c 0,-1.104 0.896,-2 2,-2 l 20,0 c 1.104,0 2,0.896 2,2 l 0,11 z"
     id="path10"
     inkscape:connector-curvature="0"
     style="fill:#ccd6dd" />
  <path
     d="m 28,4 c 0,0.552 -0.447,1 -1,1 L 21,5 C 20.447,5 20,4.552 20,4 20,3.448 20.447,3 21,3 l 6,0 c 0.553,0 1,0.448 1,1 z m 0,4 c 0,0.552 -0.447,1 -1,1 L 21,9 C 20.447,9 20,8.552 20,8 20,7.448 20.447,7 21,7 l 6,0 c 0.553,0 1,0.448 1,1 z m 0,4 c 0,0.552 -0.447,1 -1,1 l -6,0 c -0.553,0 -1,-0.448 -1,-1 0,-0.552 0.447,-1 1,-1 l 6,0 c 0.553,0 1,0.448 1,1 z"
     id="path12"
     inkscape:connector-curvature="0"
     style="fill:#66757f" />
  <path
     d="m 14,20 c 0,0.553 -0.448,1 -1,1 -0.552,0 -1,-0.447 -1,-1 l 0,-4 c 0,-0.553 0.448,-1 1,-1 0.552,0 1,0.447 1,1 l 0,4 z m 10,0 c 0,0.553 -0.447,1 -1,1 -0.553,0 -1,-0.447 -1,-1 l 0,-4 c 0,-0.553 0.447,-1 1,-1 0.553,0 1,0.447 1,1 l 0,4 z"
     id="path14"
     inkscape:connector-curvature="0"
     style="fill:#99aab5" />
</svg>
