<?xml version="1.0" encoding="UTF-8" standalone="no"?>
<svg
   xmlns:dc="http://purl.org/dc/elements/1.1/"
   xmlns:cc="http://creativecommons.org/ns#"
   xmlns:rdf="http://www.w3.org/1999/02/22-rdf-syntax-ns#"
   xmlns:svg="http://www.w3.org/2000/svg"
   xmlns="http://www.w3.org/2000/svg"
   xmlns:sodipodi="http://sodipodi.sourceforge.net/DTD/sodipodi-0.dtd"
   xmlns:inkscape="http://www.inkscape.org/namespaces/inkscape"
   viewBox="0 0 34.869499 34.870377"
   id="svg2"
   version="1.1"
   inkscape:version="0.91 r13725"
   sodipodi:docname="1f4cf.svg"
   width="34.869499"
   height="34.870377">
  <metadata
     id="metadata12">
    <rdf:RDF>
      <cc:Work
         rdf:about="">
        <dc:format>image/svg+xml</dc:format>
        <dc:type
           rdf:resource="http://purl.org/dc/dcmitype/StillImage" />
      </cc:Work>
    </rdf:RDF>
  </metadata>
  <defs
     id="defs10" />
  <sodipodi:namedview
     pagecolor="#ffffff"
     bordercolor="#666666"
     borderopacity="1"
     objecttolerance="10"
     gridtolerance="10"
     guidetolerance="10"
     inkscape:pageopacity="0"
     inkscape:pageshadow="2"
     inkscape:window-width="640"
     inkscape:window-height="480"
     id="namedview8"
     showgrid="false"
     inkscape:zoom="6.5555556"
     inkscape:cx="17.435875"
     inkscape:cy="17.435875"
     inkscape:window-x="0"
     inkscape:window-y="0"
     inkscape:window-maximized="0"
     inkscape:current-layer="svg2" />
  <path
     d="m 29.456875,33.6985 c -1.563,1.563 -4.095,1.562 -5.656,0 l -22.629,-22.628 c -1.56199997,-1.562 -1.56299997,-4.094 0,-5.657 l 4.243,-4.242 c 1.562,-1.562 4.095,-1.562 5.657,0 l 22.626,22.628 c 1.562,1.562 1.562,4.096 10e-4,5.656 l -4.242,4.243 z"
     id="path4"
     inkscape:connector-curvature="0"
     style="fill:#ffcc4d" />
  <path
     d="m 8.950875,6.1215 c -0.391,0.39 -1.023,0.39 -1.414,0 -0.39,-0.391 -0.39,-1.024 0,-1.415 l 3.536,-3.536 1.414,1.415 -3.536,3.536 z m 5.656,1.414 c -0.39,0.391 -1.024,0.391 -1.414,0 -0.391,-0.391 -0.391,-1.024 0,-1.414 l 1.415,-1.415 1.414,1.415 -1.415,1.414 z m 1.415,5.656 c -0.391,0.391 -1.024,0.391 -1.414,0 -0.39,-0.391 -0.39,-1.024 0,-1.414 l 3.536,-3.536 c 0.486,0.486 0.929,0.928 1.414,1.415 l -3.536,3.535 z m 5.656,1.414 c -0.39,0.391 -1.023,0.391 -1.413,0 -0.392,-0.391 -0.391,-1.024 0,-1.414 l 1.414,-1.415 c 0.485,0.487 0.928,0.928 1.414,1.415 l -1.415,1.414 z m 1.415,5.657 c -0.391,0.391 -1.023,0.392 -1.414,0 -0.391,-0.391 -0.391,-1.023 -0.001,-1.414 l 3.536,-3.535 1.414,1.414 -3.535,3.535 z m 7.071,7.071 c -0.39,0.391 -1.023,0.391 -1.413,0 -0.392,-0.391 -0.392,-1.023 -0.001,-1.414 l 3.536,-3.535 1.414,1.414 -3.536,3.535 z m -1.415,-5.657 c -0.391,0.391 -1.022,0.391 -1.414,10e-4 -0.391,-0.391 -0.39,-1.024 0,-1.414 l 1.415,-1.414 1.413,1.413 -1.414,1.414 z"
     id="path6"
     inkscape:connector-curvature="0"
     style="fill:#292f33" />
</svg>
