<?xml version="1.0" encoding="UTF-8" standalone="no"?>
<svg
   xmlns:dc="http://purl.org/dc/elements/1.1/"
   xmlns:cc="http://creativecommons.org/ns#"
   xmlns:rdf="http://www.w3.org/1999/02/22-rdf-syntax-ns#"
   xmlns:svg="http://www.w3.org/2000/svg"
   xmlns="http://www.w3.org/2000/svg"
   xmlns:sodipodi="http://sodipodi.sourceforge.net/DTD/sodipodi-0.dtd"
   xmlns:inkscape="http://www.inkscape.org/namespaces/inkscape"
   viewBox="0 0 36 36"
   id="svg2"
   version="1.1"
   inkscape:version="0.91 r13725"
   sodipodi:docname="1f4dc.svg"
   width="36"
   height="36">
  <metadata
     id="metadata16">
    <rdf:RDF>
      <cc:Work
         rdf:about="">
        <dc:format>image/svg+xml</dc:format>
        <dc:type
           rdf:resource="http://purl.org/dc/dcmitype/StillImage" />
      </cc:Work>
    </rdf:RDF>
  </metadata>
  <defs
     id="defs14" />
  <sodipodi:namedview
     pagecolor="#ffffff"
     bordercolor="#666666"
     borderopacity="1"
     objecttolerance="10"
     gridtolerance="10"
     guidetolerance="10"
     inkscape:pageopacity="0"
     inkscape:pageshadow="2"
     inkscape:window-width="640"
     inkscape:window-height="480"
     id="namedview12"
     showgrid="false"
     inkscape:zoom="6.5555556"
     inkscape:cx="18"
     inkscape:cy="18"
     inkscape:window-x="0"
     inkscape:window-y="0"
     inkscape:window-maximized="0"
     inkscape:current-layer="svg2" />
  <path
     d="M 32,0 10,0 C 7.791,0 6,1.791 6,4 l 0,24 -2,0 c -2.209,0 -4,1.791 -4,4 0,2.209 1.791,4 4,4 l 24,0 c 2.209,0 4,-1.791 4,-4 L 32,8 C 34.209,8 36,6.209 36,4 36,1.791 34.209,0 32,0 Z"
     id="path4"
     inkscape:connector-curvature="0"
     style="fill:#ffd983" />
  <path
     d="M 8,10 32,10 32,8 10,8 8,7 Z"
     id="path6"
     inkscape:connector-curvature="0"
     style="fill:#e39f3d" />
  <path
     d="M 10,0 C 7.791,0 6,1.791 6,4 L 6,28.555 C 5.41,28.211 4.732,28 4,28 c -2.209,0 -4,1.791 -4,4 0,2.209 1.791,4 4,4 2.209,0 4,-1.791 4,-4 L 8,7.445 C 8.59,7.789 9.268,8 10,8 12.209,8 14,6.209 14,4 14,1.791 12.209,0 10,0 Z"
     id="path8"
     inkscape:connector-curvature="0"
     style="fill:#ffe8b6" />
  <path
     d="M 12,4 C 12,5.104 11.104,6 10,6 8.896,6 8,5.104 8,4 8,2.896 8.896,2 10,2 c 1.104,0 2,0.896 2,2 M 6,32 c 0,1.104 -0.896,2 -2,2 -1.104,0 -2,-0.896 -2,-2 0,-1.104 0.896,-2 2,-2 1.104,0 2,0.896 2,2 M 30,15 c 0,0.552 -0.447,1 -1,1 l -18,0 c -0.552,0 -1,-0.448 -1,-1 0,-0.552 0.448,-1 1,-1 l 18,0 c 0.553,0 1,0.448 1,1 m 0,4 c 0,0.553 -0.447,1 -1,1 l -18,0 c -0.552,0 -1,-0.447 -1,-1 0,-0.553 0.448,-1 1,-1 l 18,0 c 0.553,0 1,0.447 1,1 m 0,4 c 0,0.553 -0.447,1 -1,1 l -18,0 c -0.552,0 -1,-0.447 -1,-1 0,-0.553 0.448,-1 1,-1 l 18,0 c 0.553,0 1,0.447 1,1 m 0,4 c 0,0.553 -0.447,1 -1,1 l -18,0 c -0.552,0 -1,-0.447 -1,-1 0,-0.553 0.448,-1 1,-1 l 18,0 c 0.553,0 1,0.447 1,1"
     id="path10"
     inkscape:connector-curvature="0"
     style="fill:#c1694f" />
</svg>
