<?xml version="1.0" encoding="UTF-8" standalone="no"?>
<svg
   xmlns:dc="http://purl.org/dc/elements/1.1/"
   xmlns:cc="http://creativecommons.org/ns#"
   xmlns:rdf="http://www.w3.org/1999/02/22-rdf-syntax-ns#"
   xmlns:svg="http://www.w3.org/2000/svg"
   xmlns="http://www.w3.org/2000/svg"
   xmlns:sodipodi="http://sodipodi.sourceforge.net/DTD/sodipodi-0.dtd"
   xmlns:inkscape="http://www.inkscape.org/namespaces/inkscape"
   viewBox="0 0 35.857513 20"
   id="svg2"
   version="1.1"
   inkscape:version="0.91 r13725"
   sodipodi:docname="1f4e8.svg"
   width="35.857513"
   height="20">
  <metadata
     id="metadata18">
    <rdf:RDF>
      <cc:Work
         rdf:about="">
        <dc:format>image/svg+xml</dc:format>
        <dc:type
           rdf:resource="http://purl.org/dc/dcmitype/StillImage" />
      </cc:Work>
    </rdf:RDF>
  </metadata>
  <defs
     id="defs16" />
  <sodipodi:namedview
     pagecolor="#ffffff"
     bordercolor="#666666"
     borderopacity="1"
     objecttolerance="10"
     gridtolerance="10"
     guidetolerance="10"
     inkscape:pageopacity="0"
     inkscape:pageshadow="2"
     inkscape:window-width="640"
     inkscape:window-height="480"
     id="namedview14"
     showgrid="false"
     inkscape:zoom="6.5555556"
     inkscape:cx="18"
     inkscape:cy="11"
     inkscape:window-x="0"
     inkscape:window-y="0"
     inkscape:window-maximized="0"
     inkscape:current-layer="svg2" />
  <path
     d="M 7,3 C 7,3.552 6.552,4 6,4 L 1,4 C 0.448,4 0,3.552 0,3 0,2.448 0.448,2 1,2 L 6,2 C 6.552,2 7,2.448 7,3 M 5,8 C 5,8.552 4.552,9 4,9 L 1,9 C 0.448,9 0,8.552 0,8 0,7.448 0.448,7 1,7 l 3,0 c 0.552,0 1,0.448 1,1 m -2,5 c 0,0.553 -0.448,1 -1,1 L 1,14 C 0.448,14 0,13.553 0,13 0,12.447 0.448,12 1,12 l 1,0 c 0.552,0 1,0.447 1,1"
     id="path4"
     inkscape:connector-curvature="0"
     style="fill:#55acee" />
  <path
     d="m 32.301,16 c -0.626,2.209 -2.925,4 -5.134,4 l -20,0 C 4.958,20 3.675,18.209 4.301,16 L 7.699,4 C 8.325,1.791 10.623,0 12.832,0 l 20,0 c 2.209,0 3.493,1.791 2.867,4 l -3.398,12 z"
     id="path6"
     inkscape:connector-curvature="0"
     style="fill:#ccd6dd" />
  <path
     d="M 17.336,8.636 4.384,17.949 C 4.35,17.977 4.33,18.012 4.299,18.04 c 0.179,0.57 0.518,1.043 0.992,1.384 0.035,-0.023 0.073,-0.033 0.107,-0.06 L 18.35,10.05 c 0.501,-0.391 0.681,-1.023 0.401,-1.414 -0.281,-0.391 -0.913,-0.391 -1.415,0 m 13.81,9.404 C 31.131,18.012 31.13,17.977 31.112,17.95 L 23.438,8.636 c -0.281,-0.391 -0.913,-0.391 -1.416,0 -0.501,0.391 -0.68,1.023 -0.4,1.414 l 7.676,9.314 c 0.018,0.026 0.051,0.037 0.072,0.06 0.666,-0.34 1.274,-0.814 1.776,-1.384"
     id="path8"
     inkscape:connector-curvature="0"
     style="fill:#99aab5" />
  <path
     d="M 35.699,4 C 36.325,1.791 35.041,0 32.832,0 l -20,0 C 10.623,0 8.325,1.791 7.699,4 l -0.021,0.074 8.806,8.452 c 1.631,1.584 3.788,1.475 5.725,0.371 L 35.436,4.933 35.699,4 Z"
     id="path10"
     inkscape:connector-curvature="0"
     style="fill:#99aab5" />
  <path
     d="m 32.832,0 -20,0 C 11.254,0 9.643,0.921 8.615,2.248 l 9.217,8.794 c 0.749,0.719 2.434,0.729 3.656,0 L 35.782,2.274 C 35.516,0.933 34.42,0 32.832,0 Z"
     id="path12"
     inkscape:connector-curvature="0"
     style="fill:#e1e8ed" />
</svg>
