<?xml version="1.0" encoding="UTF-8" standalone="no"?>
<svg
   xmlns:dc="http://purl.org/dc/elements/1.1/"
   xmlns:cc="http://creativecommons.org/ns#"
   xmlns:rdf="http://www.w3.org/1999/02/22-rdf-syntax-ns#"
   xmlns:svg="http://www.w3.org/2000/svg"
   xmlns="http://www.w3.org/2000/svg"
   xmlns:sodipodi="http://sodipodi.sourceforge.net/DTD/sodipodi-0.dtd"
   xmlns:inkscape="http://www.inkscape.org/namespaces/inkscape"
   viewBox="0 0 26 36"
   id="svg2"
   version="1.1"
   inkscape:version="0.91 r13725"
   sodipodi:docname="1f4ee.svg"
   width="26"
   height="36">
  <metadata
     id="metadata22">
    <rdf:RDF>
      <cc:Work
         rdf:about="">
        <dc:format>image/svg+xml</dc:format>
        <dc:type
           rdf:resource="http://purl.org/dc/dcmitype/StillImage" />
      </cc:Work>
    </rdf:RDF>
  </metadata>
  <defs
     id="defs20" />
  <sodipodi:namedview
     pagecolor="#ffffff"
     bordercolor="#666666"
     borderopacity="1"
     objecttolerance="10"
     gridtolerance="10"
     guidetolerance="10"
     inkscape:pageopacity="0"
     inkscape:pageshadow="2"
     inkscape:window-width="640"
     inkscape:window-height="480"
     id="namedview18"
     showgrid="false"
     inkscape:zoom="6.5555556"
     inkscape:cx="13"
     inkscape:cy="18"
     inkscape:window-x="0"
     inkscape:window-y="0"
     inkscape:window-maximized="0"
     inkscape:current-layer="svg2" />
  <path
     d="m 9,28 9,0 0,8 -9,0 z"
     id="path4"
     inkscape:connector-curvature="0"
     style="fill:#66757f" />
  <path
     d="m 26,25 c 0,2.209 -1.791,4 -4,4 L 4,29 C 1.791,29 0,27.209 0,25 L 0,4 C 0,1.791 1.791,0 4,0 l 18,0 c 2.209,0 4,1.791 4,4 l 0,21 z"
     id="path6"
     inkscape:connector-curvature="0"
     style="fill:#dd2e44" />
  <path
     d="M 2,8 2,6 C 2,6 2,4 4,4 l 18,0 c 0,0 2,0 2,2 L 24,8 2,8 Z"
     id="path8"
     inkscape:connector-curvature="0"
     style="fill:#a0041e" />
  <path
     d="M 22,12 4,12 c 0,0 -2,0 -2,-2 l 0,-3 22,0 0,3 c 0,2 -2,2 -2,2 z"
     id="path10"
     inkscape:connector-curvature="0"
     style="fill:#292f33" />
  <path
     d="m 6,7 0,14 c 0,0 0,2 2,2 l 10,0 c 0,0 2,0 2,-2 L 20,7 6,7 Z"
     id="path12"
     inkscape:connector-curvature="0"
     style="fill:#e1e8ed" />
  <path
     d="m 8,23 9.22,0 C 15.373,20.635 10.795,14.795 10,14 9,13 10,12 10,12 L 15,7 6,7 6,21 c 0,0 0,2 2,2 z"
     id="path14"
     inkscape:connector-curvature="0"
     style="fill:#ccd6dd" />
  <path
     d="m 10,14 c 0.795,0.795 5.373,6.635 7.22,9 L 18,23 c 0,0 0.404,-0.01 0.848,-0.19 L 11,13 17,7 15,7 10,12 c 0,0 -1,1 0,2 z"
     id="path16"
     inkscape:connector-curvature="0"
     style="fill:#66757f" />
</svg>
