<?xml version="1.0" encoding="UTF-8" standalone="no"?>
<svg
   xmlns:dc="http://purl.org/dc/elements/1.1/"
   xmlns:cc="http://creativecommons.org/ns#"
   xmlns:rdf="http://www.w3.org/1999/02/22-rdf-syntax-ns#"
   xmlns:svg="http://www.w3.org/2000/svg"
   xmlns="http://www.w3.org/2000/svg"
   xmlns:sodipodi="http://sodipodi.sourceforge.net/DTD/sodipodi-0.dtd"
   xmlns:inkscape="http://www.inkscape.org/namespaces/inkscape"
   viewBox="0 0 36 36"
   id="svg2"
   version="1.1"
   inkscape:version="0.91 r13725"
   sodipodi:docname="1f4e5.svg"
   width="36"
   height="36">
  <metadata
     id="metadata16">
    <rdf:RDF>
      <cc:Work
         rdf:about="">
        <dc:format>image/svg+xml</dc:format>
        <dc:type
           rdf:resource="http://purl.org/dc/dcmitype/StillImage" />
      </cc:Work>
    </rdf:RDF>
  </metadata>
  <defs
     id="defs14" />
  <sodipodi:namedview
     pagecolor="#ffffff"
     bordercolor="#666666"
     borderopacity="1"
     objecttolerance="10"
     gridtolerance="10"
     guidetolerance="10"
     inkscape:pageopacity="0"
     inkscape:pageshadow="2"
     inkscape:window-width="640"
     inkscape:window-height="480"
     id="namedview12"
     showgrid="false"
     inkscape:zoom="6.5555556"
     inkscape:cx="18"
     inkscape:cy="18"
     inkscape:window-x="0"
     inkscape:window-y="0"
     inkscape:window-maximized="0"
     inkscape:current-layer="svg2" />
  <path
     d="m 36,32 c 0,2.209 -1.791,4 -4,4 L 4,36 C 1.791,36 0,34.209 0,32 l 0,-9 c 0,-2.209 0.791,-3 3,-3 l 30,0 c 2.209,0 3,0.791 3,3 l 0,9 z"
     id="path4"
     inkscape:connector-curvature="0"
     style="fill:#d99e82" />
  <path
     d="m 25,20 c 0,3.866 -3.134,7 -7,7 -3.866,0 -7,-3.134 -7,-7 l 14,0 z"
     id="path6"
     inkscape:connector-curvature="0"
     style="fill:#662113" />
  <path
     d="m 4,36 28,0 c 2.209,0 4,-1.791 4,-4 L 0,32 c 0,2.209 1.791,4 4,4 z"
     id="path8"
     inkscape:connector-curvature="0"
     style="fill:#c1694f" />
  <path
     d="m 26.716,8 -4.783,0 0,-6 c 0,-1.105 -0.896,-2 -2,-2 l -4.001,0 c -1.104,0 -1.999,0.896 -1.999,2 l 0,6 -4.785,0 C 7.925,8 7.632,8.623 8.497,9.489 l 7.863,7.863 c 0.865,0.865 2.28,0.865 3.146,0 L 27.369,9.489 C 28.232,8.623 27.94,8 26.716,8 Z"
     id="path10"
     inkscape:connector-curvature="0"
     style="fill:#77b255" />
</svg>
