<?xml version="1.0" encoding="UTF-8" standalone="no"?>
<svg
   xmlns:dc="http://purl.org/dc/elements/1.1/"
   xmlns:cc="http://creativecommons.org/ns#"
   xmlns:rdf="http://www.w3.org/1999/02/22-rdf-syntax-ns#"
   xmlns:svg="http://www.w3.org/2000/svg"
   xmlns="http://www.w3.org/2000/svg"
   xmlns:sodipodi="http://sodipodi.sourceforge.net/DTD/sodipodi-0.dtd"
   xmlns:inkscape="http://www.inkscape.org/namespaces/inkscape"
   viewBox="0 0 35.965 36.000084"
   id="svg2"
   version="1.1"
   inkscape:version="0.91 r13725"
   sodipodi:docname="1f4ef.svg"
   width="35.965"
   height="36.000084">
  <metadata
     id="metadata14">
    <rdf:RDF>
      <cc:Work
         rdf:about="">
        <dc:format>image/svg+xml</dc:format>
        <dc:type
           rdf:resource="http://purl.org/dc/dcmitype/StillImage" />
      </cc:Work>
    </rdf:RDF>
  </metadata>
  <defs
     id="defs12" />
  <sodipodi:namedview
     pagecolor="#ffffff"
     bordercolor="#666666"
     borderopacity="1"
     objecttolerance="10"
     gridtolerance="10"
     guidetolerance="10"
     inkscape:pageopacity="0"
     inkscape:pageshadow="2"
     inkscape:window-width="640"
     inkscape:window-height="480"
     id="namedview10"
     showgrid="false"
     inkscape:zoom="6.5555556"
     inkscape:cx="18"
     inkscape:cy="18.000085"
     inkscape:window-x="0"
     inkscape:window-y="0"
     inkscape:window-maximized="0"
     inkscape:current-layer="svg2" />
  <path
     d="m 34.724,29.656 c -1.239,-0.01 -1.241,1.205 -1.241,1.205 l -14.983,0 c -5.246,0 -9.5,-4.254 -9.5,-9.5 0,-5.246 4.254,-9.5 9.5,-9.5 5.246,0 9.5,4.254 9.5,9.5 0,3.062 -1.6,5.897 -3.852,7.633 l 5.434,0 C 31.022,26.849 32,24.139 32,21.361 32,13.905 25.955,7.861 18.5,7.861 11.044,7.861 5,13.905 5,21.361 c 0,7.455 6.044,13.5 13.5,13.5 l 14.982,0 c 0,0 -0.003,1.127 1.241,1.139 1.238,0.012 1.228,-1.245 1.228,-1.245 l 0.014,-3.821 c 0,0 10e-4,-1.267 -1.241,-1.278 z M 5,14.26 C 6.014,12.429 7.378,10.822 9,9.521 L 9,9 C 9,4 14,2 14,1 14,0 13,0 13,0 L 1,0 C 0,0 0,1 0,1 0,2 5,4.333 5,8.69 l 0,5.57 z"
     id="path4"
     inkscape:connector-curvature="0"
     style="fill:#ffac33" />
  <path
     d="M 13.091,29.166 C 10.621,27.45 9,24.597 9,21.361 9,21.052 9.018,20.748 9.046,20.446 L 5.069,19.985 C 5.023,20.437 5,20.896 5,21.361 c 0,4.573 2.28,8.608 5.76,11.051 l 2.331,-3.246 z"
     id="path6"
     inkscape:connector-curvature="0"
     style="fill:#be1931" />
  <path
     d="m 6,25.924 c 0,0 -5.188,-0.812 -5,1 0.188,1.812 5,-1 5,-1 z m 0,0.312 c 0,0 -4.125,2.688 -2.938,3.75 C 4.249,31.048 6,26.236 6,26.236 Z"
     id="path8"
     inkscape:connector-curvature="0"
     style="fill:#be1931" />
</svg>
