<?xml version="1.0" encoding="UTF-8" standalone="no"?>
<svg
   xmlns:dc="http://purl.org/dc/elements/1.1/"
   xmlns:cc="http://creativecommons.org/ns#"
   xmlns:rdf="http://www.w3.org/1999/02/22-rdf-syntax-ns#"
   xmlns:svg="http://www.w3.org/2000/svg"
   xmlns="http://www.w3.org/2000/svg"
   xmlns:sodipodi="http://sodipodi.sourceforge.net/DTD/sodipodi-0.dtd"
   xmlns:inkscape="http://www.inkscape.org/namespaces/inkscape"
   viewBox="0 0 28.000999 35.7075"
   id="svg2"
   version="1.1"
   inkscape:version="0.91 r13725"
   sodipodi:docname="1f4e6.svg"
   width="28.000999"
   height="35.7075">
  <metadata
     id="metadata24">
    <rdf:RDF>
      <cc:Work
         rdf:about="">
        <dc:format>image/svg+xml</dc:format>
        <dc:type
           rdf:resource="http://purl.org/dc/dcmitype/StillImage" />
      </cc:Work>
    </rdf:RDF>
  </metadata>
  <defs
     id="defs22" />
  <sodipodi:namedview
     pagecolor="#ffffff"
     bordercolor="#666666"
     borderopacity="1"
     objecttolerance="10"
     gridtolerance="10"
     guidetolerance="10"
     inkscape:pageopacity="0"
     inkscape:pageshadow="2"
     inkscape:window-width="640"
     inkscape:window-height="480"
     id="namedview20"
     showgrid="false"
     inkscape:zoom="6.5555556"
     inkscape:cx="14.0005"
     inkscape:cy="17.75"
     inkscape:window-x="0"
     inkscape:window-y="0"
     inkscape:window-maximized="0"
     inkscape:current-layer="svg2" />
  <path
     d="m 5e-4,10.9575 0,12.375 c 0,2.042 1.093,2.484 1.093,2.484 l 11.574,9.099 c 1.822,1.432 1.333,-1.583 1.333,-1.583 l 0,-11.375 -14,-11 z"
     id="path4"
     inkscape:connector-curvature="0"
     style="fill:#662113" />
  <path
     d="m 28.0005,10.9575 0,12.375 c 0,2.042 -1.063,2.484 -1.063,2.484 0,0 -9.767,7.667 -11.588,9.099 -1.823,1.432 -1.349,-1.583 -1.349,-1.583 l 0,-11.375 14,-11 z"
     id="path6"
     inkscape:connector-curvature="0"
     style="fill:#c1694f" />
  <path
     d="m 15.2895,0.4575 c -0.753,-0.61 -1.988,-0.61 -2.742,0 l -11.982,9.529 c -0.754,0.61 -0.754,1.607 0,2.216 l 12.023,9.646 c 0.754,0.609 1.989,0.609 2.743,0 l 12.104,-9.73 c 0.754,-0.609 0.754,-1.606 0,-2.216 l -12.146,-9.445 z"
     id="path8"
     inkscape:connector-curvature="0"
     style="fill:#d99e82" />
  <path
     d="m 14.0005,35.7075 c -0.552,0 -1,-0.482 -1,-1.078 l 0,-12.927 c 0,-0.596 0.448,-1.078 1,-1.078 0.553,0 1,0.482 1,1.078 l 0,12.927 c 0,0.596 -0.447,1.078 -1,1.078 z"
     id="path10"
     inkscape:connector-curvature="0"
     style="fill:#d99e82" />
  <path
     d="m 24.0005,18.7935 c 0,1.104 0.104,1.646 -1,2.442 l -2.469,1.878 c -1.104,0.797 -1.531,0.113 -1.531,-0.992 l 0,-2.961 c 0,-0.193 -0.026,-0.4 -0.278,-0.608 -2.578,-2.125 -12.588,-10.076 -14.412,-11.544 l 4.625,-3.678 c 1.266,0.926 10.753,8.252 14.722,11.377 0.197,0.156 0.343,0.328 0.343,0.516 l 0,3.57 z"
     id="path12"
     inkscape:connector-curvature="0"
     style="fill:#99aab5" />
  <path
     d="M 23.6565,14.7075 C 19.6885,11.5825 10.2015,4.2565 8.9355,3.3305 l -1.721,1.368 -2.904,2.31 c 1.825,1.468 11.834,9.419 14.412,11.544 0.151,0.125 0.217,0.25 0.248,0.371 l 4.933,-3.966 c -0.06,-0.087 -0.146,-0.171 -0.247,-0.25 z"
     id="path14"
     inkscape:connector-curvature="0"
     style="fill:#ccd6dd" />
  <path
     d="m 24.0005,18.7935 0,-3.57 c 0,-0.188 -0.146,-0.359 -0.344,-0.516 -3.968,-3.125 -13.455,-10.451 -14.721,-11.377 l -2.073,1.649 c 3.393,2.669 12.481,9.681 14.86,11.573 0.256,0.204 0.278,0.415 0.278,0.608 l 0,4.836 1,-0.761 c 1.104,-0.797 1,-1.338 1,-2.442 z"
     id="path16"
     inkscape:connector-curvature="0"
     style="fill:#ccd6dd" />
  <path
     d="M 23.6565,14.7075 C 19.6885,11.5825 10.2015,4.2565 8.9355,3.3305 l -2.073,1.649 c 3.393,2.669 12.481,9.681 14.86,11.573 0.037,0.029 0.06,0.059 0.087,0.088 l 2.094,-1.683 c -0.06,-0.087 -0.146,-0.171 -0.247,-0.25 z"
     id="path18"
     inkscape:connector-curvature="0"
     style="fill:#e1e8ed" />
</svg>
