<?xml version="1.0" encoding="UTF-8" standalone="no"?>
<svg
   xmlns:dc="http://purl.org/dc/elements/1.1/"
   xmlns:cc="http://creativecommons.org/ns#"
   xmlns:rdf="http://www.w3.org/1999/02/22-rdf-syntax-ns#"
   xmlns:svg="http://www.w3.org/2000/svg"
   xmlns="http://www.w3.org/2000/svg"
   xmlns:sodipodi="http://sodipodi.sourceforge.net/DTD/sodipodi-0.dtd"
   xmlns:inkscape="http://www.inkscape.org/namespaces/inkscape"
   viewBox="0 0 36 36"
   id="svg2"
   version="1.1"
   inkscape:version="0.91 r13725"
   sodipodi:docname="1f4e0.svg"
   width="36"
   height="36">
  <metadata
     id="metadata44">
    <rdf:RDF>
      <cc:Work
         rdf:about="">
        <dc:format>image/svg+xml</dc:format>
        <dc:type
           rdf:resource="http://purl.org/dc/dcmitype/StillImage" />
      </cc:Work>
    </rdf:RDF>
  </metadata>
  <defs
     id="defs42" />
  <sodipodi:namedview
     pagecolor="#ffffff"
     bordercolor="#666666"
     borderopacity="1"
     objecttolerance="10"
     gridtolerance="10"
     guidetolerance="10"
     inkscape:pageopacity="0"
     inkscape:pageshadow="2"
     inkscape:window-width="640"
     inkscape:window-height="480"
     id="namedview40"
     showgrid="false"
     inkscape:zoom="6.5555556"
     inkscape:cx="18"
     inkscape:cy="18"
     inkscape:window-x="0"
     inkscape:window-y="0"
     inkscape:window-maximized="0"
     inkscape:current-layer="svg2" />
  <path
     d="m 8,17 -8,0 0,15 c 0,2.209 1.791,4 4,4 2.209,0 4,-1.791 4,-4 0,2.209 1.791,4 4,4 l 20,0 c 2.209,0 4,-1.791 4,-4 L 36,17 8,17 Z"
     id="path4"
     inkscape:connector-curvature="0"
     style="fill:#292f33" />
  <path
     d="M 32,10 12,10 C 9.791,10 8,11.791 8,14 8,11.791 6.209,10 4,10 1.791,10 0,11.791 0,14 l 0,15 c 0,2.209 1.791,4 4,4 2.209,0 4,-1.791 4,-4 0,2.209 1.791,4 4,4 l 20,0 c 2.209,0 4,-1.791 4,-4 l 0,-15 c 0,-2.209 -1.791,-4 -4,-4 z"
     id="path6"
     inkscape:connector-curvature="0"
     style="fill:#66757f" />
  <path
     d="m 21,16 c 0,1.104 -0.896,2 -2,2 l -7,0 c -1.104,0 -2,-0.896 -2,-2 l 0,-2 c 0,-1.104 0.896,-2 2,-2 l 7,0 c 1.104,0 2,0.896 2,2 l 0,2 z"
     id="path8"
     inkscape:connector-curvature="0"
     style="fill:#c6e5b3" />
  <g
     id="g10"
     style="fill:#ccd6dd">
    <circle
       cx="11.5"
       cy="21.5"
       r="1.5"
       id="circle12" />
    <circle
       cx="15.5"
       cy="21.5"
       r="1.5"
       id="circle14" />
    <circle
       cx="19.5"
       cy="21.5"
       r="1.5"
       id="circle16" />
    <circle
       cx="11.5"
       cy="25.5"
       r="1.5"
       id="circle18" />
    <circle
       cx="15.5"
       cy="25.5"
       r="1.5"
       id="circle20" />
    <circle
       cx="19.5"
       cy="25.5"
       r="1.5"
       id="circle22" />
    <circle
       cx="11.5"
       cy="29.5"
       r="1.5"
       id="circle24" />
    <circle
       cx="15.5"
       cy="29.5"
       r="1.5"
       id="circle26" />
    <circle
       cx="19.5"
       cy="29.5"
       r="1.5"
       id="circle28" />
  </g>
  <path
     d="m 34,21 c 0,0.553 -0.447,1 -1,1 l -9,0 c -0.553,0 -1,-0.447 -1,-1 0,-0.553 0.447,-1 1,-1 l 9,0 c 0.553,0 1,0.447 1,1 z m 0,3 c 0,0.553 -0.447,1 -1,1 l -9,0 c -0.553,0 -1,-0.447 -1,-1 0,-0.553 0.447,-1 1,-1 l 9,0 c 0.553,0 1,0.447 1,1 z m 0,3 c 0,0.553 -0.447,1 -1,1 l -9,0 c -0.553,0 -1,-0.447 -1,-1 0,-0.553 0.447,-1 1,-1 l 9,0 c 0.553,0 1,0.447 1,1 z m 0,3 c 0,0.553 -0.447,1 -1,1 l -9,0 c -0.553,0 -1,-0.447 -1,-1 0,-0.553 0.447,-1 1,-1 l 9,0 c 0.553,0 1,0.447 1,1 z"
     id="path30"
     inkscape:connector-curvature="0"
     style="fill:#99aab5" />
  <circle
     cx="25"
     cy="15"
     r="2"
     id="circle32"
     style="fill:#ccd6dd" />
  <circle
     cx="32"
     cy="15"
     r="2"
     id="circle34"
     style="fill:#ccd6dd" />
  <path
     d="m 32,10 -20,0 0,-6 c 0,-2.209 1.791,-4 4,-4 l 12,0 c 2.209,0 4,1.791 4,4 l 0,6 z"
     id="path36"
     inkscape:connector-curvature="0"
     style="fill:#ccd6dd" />
  <path
     d="m 30,4 c 0,0.553 -0.447,1 -1,1 L 15,5 C 14.447,5 14,4.553 14,4 14,3.447 14.447,3 15,3 l 14,0 c 0.553,0 1,0.447 1,1 z m -8,3 c 0,0.553 -0.447,1 -1,1 L 15,8 C 14.447,8 14,7.553 14,7 14,6.447 14.447,6 15,6 l 6,0 c 0.553,0 1,0.447 1,1 z"
     id="path38"
     inkscape:connector-curvature="0"
     style="fill:#99aab5" />
</svg>
