<?xml version="1.0" encoding="UTF-8" standalone="no"?>
<svg
   xmlns:dc="http://purl.org/dc/elements/1.1/"
   xmlns:cc="http://creativecommons.org/ns#"
   xmlns:rdf="http://www.w3.org/1999/02/22-rdf-syntax-ns#"
   xmlns:svg="http://www.w3.org/2000/svg"
   xmlns="http://www.w3.org/2000/svg"
   xmlns:sodipodi="http://sodipodi.sourceforge.net/DTD/sodipodi-0.dtd"
   xmlns:inkscape="http://www.inkscape.org/namespaces/inkscape"
   viewBox="0 0 34 33.65675"
   id="svg2"
   version="1.1"
   inkscape:version="0.91 r13725"
   sodipodi:docname="1f4ec.svg"
   width="34"
   height="33.65675">
  <metadata
     id="metadata22">
    <rdf:RDF>
      <cc:Work
         rdf:about="">
        <dc:format>image/svg+xml</dc:format>
        <dc:type
           rdf:resource="http://purl.org/dc/dcmitype/StillImage" />
      </cc:Work>
    </rdf:RDF>
  </metadata>
  <defs
     id="defs20" />
  <sodipodi:namedview
     pagecolor="#ffffff"
     bordercolor="#666666"
     borderopacity="1"
     objecttolerance="10"
     gridtolerance="10"
     guidetolerance="10"
     inkscape:pageopacity="0"
     inkscape:pageshadow="2"
     inkscape:window-width="640"
     inkscape:window-height="480"
     id="namedview18"
     showgrid="false"
     inkscape:zoom="6.5555556"
     inkscape:cx="18"
     inkscape:cy="16.65675"
     inkscape:window-x="0"
     inkscape:window-y="0"
     inkscape:window-maximized="0"
     inkscape:current-layer="svg2" />
  <path
     d="m 22,32 c 0,2.209 -8,2.209 -8,0 l 0,-10 c 0,-2.209 1.791,-4 4,-4 2.209,0 4,1.791 4,4 l 0,10 z"
     id="path4"
     inkscape:connector-curvature="0"
     style="fill:#c1694f" />
  <path
     d="M 10,2 C 5.582,2 2,5.582 2,10 l 0,12 16,0 0,-12 C 18,5.582 14.418,2 10,2 Z"
     id="path6"
     inkscape:connector-curvature="0"
     style="fill:#292f33" />
  <path
     d="M 20,17.761 C 20,18.997 18.935,20 17.707,20 L 2.293,20 C 1.064,20 0,18.997 0,17.761 L 0,7.239 C 0,6.003 1.064,5 2.293,5 L 17.707,5 C 18.935,5 20,6.003 20,7.239 l 0,10.522 z"
     id="path8"
     inkscape:connector-curvature="0"
     style="fill:#ccd6dd" />
  <path
     d="M 20,7.239 C 20,6.003 18.935,5 17.707,5 L 2.293,5 C 1.064,5 0,6.003 0,7.239 l 0,1.419 4.879,4.904 -4.78,4.806 c 0.112,0.376 0.316,0.716 0.596,0.983 l 4.972,-4.998 2.407,2.419 c 1.052,1.06 2.768,1.06 3.821,0 l 2.426,-2.432 4.984,5.011 c 0.28,-0.268 0.483,-0.608 0.596,-0.983 L 15.109,13.55 20,8.646 20,7.239 Z"
     id="path10"
     inkscape:connector-curvature="0"
     style="fill:#99aab5" />
  <path
     d="M 17.707,5 2.293,5 C 1.127,5 0.121,5.906 0.02,7.055 l 8.408,8.397 c 0.869,0.874 2.277,0.84 3.145,-0.035 l 8.41,-8.346 C 19.889,5.914 18.877,5 17.707,5 Z"
     id="path12"
     inkscape:connector-curvature="0"
     style="fill:#e1e8ed" />
  <path
     d="M 26,2 10,2 c 4.418,0 8,3.582 8,8 l 0,12 16,0 0,-12 C 34,5.582 30.418,2 26,2 Z"
     id="path14"
     inkscape:connector-curvature="0"
     style="fill:#99aab5" />
  <path
     d="m 26,0 -4,0 c -1.104,0 -2,0.896 -2,2 l 0,12 c 0,1.104 0.896,2 2,2 1.104,0 2,-0.896 2,-2 l 0,-8 2,0 c 1.104,0 2,-0.896 2,-2 L 28,2 C 28,0.896 27.104,0 26,0 Z"
     id="path16"
     inkscape:connector-curvature="0"
     style="fill:#dd2e44" />
</svg>
