<?xml version="1.0" encoding="UTF-8" standalone="no"?>
<svg
   xmlns:dc="http://purl.org/dc/elements/1.1/"
   xmlns:cc="http://creativecommons.org/ns#"
   xmlns:rdf="http://www.w3.org/1999/02/22-rdf-syntax-ns#"
   xmlns:svg="http://www.w3.org/2000/svg"
   xmlns="http://www.w3.org/2000/svg"
   xmlns:sodipodi="http://sodipodi.sourceforge.net/DTD/sodipodi-0.dtd"
   xmlns:inkscape="http://www.inkscape.org/namespaces/inkscape"
   viewBox="0 0 36 36.000751"
   id="svg2"
   version="1.1"
   inkscape:version="0.91 r13725"
   sodipodi:docname="1f4e4.svg"
   width="36"
   height="36.000751">
  <metadata
     id="metadata16">
    <rdf:RDF>
      <cc:Work
         rdf:about="">
        <dc:format>image/svg+xml</dc:format>
        <dc:type
           rdf:resource="http://purl.org/dc/dcmitype/StillImage" />
      </cc:Work>
    </rdf:RDF>
  </metadata>
  <defs
     id="defs14" />
  <sodipodi:namedview
     pagecolor="#ffffff"
     bordercolor="#666666"
     borderopacity="1"
     objecttolerance="10"
     gridtolerance="10"
     guidetolerance="10"
     inkscape:pageopacity="0"
     inkscape:pageshadow="2"
     inkscape:window-width="640"
     inkscape:window-height="480"
     id="namedview12"
     showgrid="false"
     inkscape:zoom="6.5555556"
     inkscape:cx="18"
     inkscape:cy="18"
     inkscape:window-x="0"
     inkscape:window-y="0"
     inkscape:window-maximized="0"
     inkscape:current-layer="svg2" />
  <path
     d="m 36,32.00075 c 0,2.209 -1.791,4 -4,4 l -28,0 c -2.209,0 -4,-1.791 -4,-4 l 0,-9 c 0,-2.209 0.791,-3 3,-3 l 30,0 c 2.209,0 3,0.791 3,3 l 0,9 z"
     id="path4"
     inkscape:connector-curvature="0"
     style="fill:#d99e82" />
  <path
     d="m 25,20.00075 c 0,3.866 -3.134,7 -7,7 -3.866,0 -7,-3.134 -7,-7 l 14,0 z"
     id="path6"
     inkscape:connector-curvature="0"
     style="fill:#662113" />
  <path
     d="m 4,36.00075 28,0 c 2.209,0 4,-1.791 4,-4 l -36,0 c 0,2.209 1.791,4 4,4 z"
     id="path8"
     inkscape:connector-curvature="0"
     style="fill:#c1694f" />
  <path
     d="m 27.435,8.51175 -7.863,-7.863 c -0.864,-0.865 -2.28,-0.865 -3.145,0 l -7.863,7.863 c -0.864,0.866 -0.571,1.489 0.652,1.489 l 4.784,0 0,6 c 0,1.104 0.896,2 2,2 l 4,0 c 1.104,0 2,-0.896 2,-2 l 0,-6 4.784,0 c 1.223,0 1.516,-0.623 0.651,-1.489 z"
     id="path10"
     inkscape:connector-curvature="0"
     style="fill:#dd2e44" />
</svg>
