<?xml version="1.0" encoding="UTF-8" standalone="no"?>
<svg
   xmlns:dc="http://purl.org/dc/elements/1.1/"
   xmlns:cc="http://creativecommons.org/ns#"
   xmlns:rdf="http://www.w3.org/1999/02/22-rdf-syntax-ns#"
   xmlns:svg="http://www.w3.org/2000/svg"
   xmlns="http://www.w3.org/2000/svg"
   xmlns:sodipodi="http://sodipodi.sourceforge.net/DTD/sodipodi-0.dtd"
   xmlns:inkscape="http://www.inkscape.org/namespaces/inkscape"
   viewBox="0 0 36 36"
   id="svg2"
   version="1.1"
   inkscape:version="0.91 r13725"
   sodipodi:docname="1f4f2.svg"
   width="36"
   height="36">
  <metadata
     id="metadata12">
    <rdf:RDF>
      <cc:Work
         rdf:about="">
        <dc:format>image/svg+xml</dc:format>
        <dc:type
           rdf:resource="http://purl.org/dc/dcmitype/StillImage" />
      </cc:Work>
    </rdf:RDF>
  </metadata>
  <defs
     id="defs10" />
  <sodipodi:namedview
     pagecolor="#ffffff"
     bordercolor="#666666"
     borderopacity="1"
     objecttolerance="10"
     gridtolerance="10"
     guidetolerance="10"
     inkscape:pageopacity="0"
     inkscape:pageshadow="2"
     inkscape:window-width="640"
     inkscape:window-height="480"
     id="namedview8"
     showgrid="false"
     inkscape:zoom="6.5555556"
     inkscape:cx="18"
     inkscape:cy="18"
     inkscape:window-x="0"
     inkscape:window-y="0"
     inkscape:window-maximized="0"
     inkscape:current-layer="svg2" />
  <path
     d="m 18,36 c 0,0 -4,0 -4,-4 L 14,4 c 0,0 0,-4 4,-4 l 14,0 c 0,0 4,0 4,4 l 0,28 c 0,0 0,4 -4,4 l -14,0 z"
     id="path4"
     inkscape:connector-curvature="0"
     style="fill:#31373d" />
  <path
     d="m 16,5 18,0 0,26 -18,0 z m -3,11 c 0,0 1,1 1,2 0,1 -1,2 -1,2 L 8,25 C 7,26 5,26 5,24 l 0,-3 -3,0 c 0,0 -2,0 -2,-2 l 0,-2 c 0,-2 2,-2 2,-2 l 3,0 0,-3 c 0,-2 2,-2 3,-1 l 5,5 z"
     id="path6"
     inkscape:connector-curvature="0"
     style="fill:#55acee" />
</svg>
