<?xml version="1.0" encoding="UTF-8" standalone="no"?>
<svg
   xmlns:dc="http://purl.org/dc/elements/1.1/"
   xmlns:cc="http://creativecommons.org/ns#"
   xmlns:rdf="http://www.w3.org/1999/02/22-rdf-syntax-ns#"
   xmlns:svg="http://www.w3.org/2000/svg"
   xmlns="http://www.w3.org/2000/svg"
   xmlns:sodipodi="http://sodipodi.sourceforge.net/DTD/sodipodi-0.dtd"
   xmlns:inkscape="http://www.inkscape.org/namespaces/inkscape"
   viewBox="0 0 36 36"
   id="svg2"
   version="1.1"
   inkscape:version="0.91 r13725"
   sodipodi:docname="1f4f0.svg"
   width="36"
   height="36">
  <metadata
     id="metadata16">
    <rdf:RDF>
      <cc:Work
         rdf:about="">
        <dc:format>image/svg+xml</dc:format>
        <dc:type
           rdf:resource="http://purl.org/dc/dcmitype/StillImage" />
      </cc:Work>
    </rdf:RDF>
  </metadata>
  <defs
     id="defs14" />
  <sodipodi:namedview
     pagecolor="#ffffff"
     bordercolor="#666666"
     borderopacity="1"
     objecttolerance="10"
     gridtolerance="10"
     guidetolerance="10"
     inkscape:pageopacity="0"
     inkscape:pageshadow="2"
     inkscape:window-width="640"
     inkscape:window-height="480"
     id="namedview12"
     showgrid="false"
     inkscape:zoom="6.5555556"
     inkscape:cx="18"
     inkscape:cy="18"
     inkscape:window-x="0"
     inkscape:window-y="0"
     inkscape:window-maximized="0"
     inkscape:current-layer="svg2" />
  <path
     d="M 33,36 4,36 c 4,0 3,-9 3,-9 0,-2.209 1.791,-15 4,-15 l 21,0 c 0,0 4,0 4,4 l 0,17 c 0,0 0,3 -3,3 z"
     id="path4"
     inkscape:connector-curvature="0"
     style="fill:#99aab5" />
  <path
     d="m 30,33 c 0,3 3,3 3,3 L 3,36 C 3,36 0,36 0,32 L 0,4 C 0,1.791 1.791,0 4,0 l 22,0 c 2.209,0 4,1.791 4,4 l 0,29 z"
     id="path6"
     inkscape:connector-curvature="0"
     style="fill:#ccd6dd" />
  <path
     d="m 27,20 c 0,0.553 -0.447,1 -1,1 l -8,0 c -0.552,0 -1,-0.447 -1,-1 0,-0.553 0.448,-1 1,-1 l 8,0 c 0.553,0 1,0.447 1,1 z m 0,-4 c 0,0.553 -0.447,1 -1,1 l -8,0 c -0.552,0 -1,-0.447 -1,-1 0,-0.553 0.448,-1 1,-1 l 8,0 c 0.553,0 1,0.447 1,1 z m 0,-4 c 0,0.553 -0.447,1 -1,1 l -8,0 c -0.552,0 -1,-0.447 -1,-1 0,-0.553 0.448,-1 1,-1 l 8,0 c 0.553,0 1,0.447 1,1 z m 0,12 c 0,0.553 -0.447,1 -1,1 L 4,25 C 3.448,25 3,24.553 3,24 3,23.447 3.448,23 4,23 l 22,0 c 0.553,0 1,0.447 1,1 z m 0,4 c 0,0.553 -0.447,1 -1,1 L 4,29 C 3.448,29 3,28.553 3,28 3,27.447 3.448,27 4,27 l 22,0 c 0.553,0 1,0.447 1,1 z m 0,4 c 0,0.553 -0.447,1 -1,1 L 4,33 C 3.448,33 3,32.553 3,32 3,31.447 3.448,31 4,31 l 22,0 c 0.553,0 1,0.447 1,1 z M 25,9 c 0,0 2,0 2,-2 L 27,5 C 27,5 27,3 25,3 L 5,3 C 5,3 3,3 3,5 l 0,2 c 0,0 0,2 2,2 l 20,0 z"
     id="path8"
     inkscape:connector-curvature="0"
     style="fill:#99aab5" />
  <path
     d="m 13,21 c 0,0 2,0 2,-2 l 0,-6 c 0,0 0,-2 -2,-2 l -8,0 c 0,0 -2,0 -2,2 l 0,6 c 0,0 0,2 2,2 l 8,0 z"
     id="path10"
     inkscape:connector-curvature="0"
     style="fill:#55acee" />
</svg>
