<?xml version="1.0" encoding="UTF-8" standalone="no"?>
<svg
   xmlns:dc="http://purl.org/dc/elements/1.1/"
   xmlns:cc="http://creativecommons.org/ns#"
   xmlns:rdf="http://www.w3.org/1999/02/22-rdf-syntax-ns#"
   xmlns:svg="http://www.w3.org/2000/svg"
   xmlns="http://www.w3.org/2000/svg"
   xmlns:sodipodi="http://sodipodi.sourceforge.net/DTD/sodipodi-0.dtd"
   xmlns:inkscape="http://www.inkscape.org/namespaces/inkscape"
   viewBox="0 0 34 34.096249"
   id="svg2"
   version="1.1"
   inkscape:version="0.91 r13725"
   sodipodi:docname="1f4fa.svg"
   width="34"
   height="34.096249">
  <metadata
     id="metadata20">
    <rdf:RDF>
      <cc:Work
         rdf:about="">
        <dc:format>image/svg+xml</dc:format>
        <dc:type
           rdf:resource="http://purl.org/dc/dcmitype/StillImage" />
      </cc:Work>
    </rdf:RDF>
  </metadata>
  <defs
     id="defs18" />
  <sodipodi:namedview
     pagecolor="#ffffff"
     bordercolor="#666666"
     borderopacity="1"
     objecttolerance="10"
     gridtolerance="10"
     guidetolerance="10"
     inkscape:pageopacity="0"
     inkscape:pageshadow="2"
     inkscape:window-width="640"
     inkscape:window-height="480"
     id="namedview16"
     showgrid="false"
     inkscape:zoom="6.5555556"
     inkscape:cx="17"
     inkscape:cy="17"
     inkscape:window-x="0"
     inkscape:window-y="0"
     inkscape:window-maximized="0"
     inkscape:current-layer="svg2" />
  <path
     d="m 34,30.09625 c 0,0 0,4 -4,4 l -26,0 c -4,0 -4,-4 -4,-4 l 0,-19 c 0,-4 4,-4 4,-4 l 26,0 c 0,0 4,0 4,4 l 0,19 z"
     id="path4"
     inkscape:connector-curvature="0"
     style="fill:#31373d" />
  <path
     d="m 20.303,9.48525 c 0.391,0.391 0.391,1.023 0,1.414 -0.391,0.391 -1.023,0.391 -1.414,0 l -9.192,-9.192 c -0.391,-0.391 -0.391,-1.023 0,-1.414 0.391,-0.391 1.023,-0.391 1.414,0 l 9.192,9.192 z"
     id="path6"
     inkscape:connector-curvature="0"
     style="fill:#31373d" />
  <path
     d="m 13.697,9.48525 c -0.391,0.391 -0.391,1.023 0,1.414 0.391,0.391 1.023,0.391 1.414,0 l 9.192,-9.192 c 0.391,-0.391 0.391,-1.023 0,-1.414 -0.391,-0.391 -1.023,-0.391 -1.414,0 l -9.192,9.192 z"
     id="path8"
     inkscape:connector-curvature="0"
     style="fill:#31373d" />
  <path
     d="m 17,10.09625 c 8,0 10,1 11,2 1,1 2,3 2,8 0,5 -1,7 -2,8 -1,1 -3,2 -11,2 -8,0 -10,-1 -11,-2 -1,-1 -2,-3 -2,-8 0,-5 1,-7 2,-8 1,-1 3,-2 11,-2 z"
     id="path10"
     inkscape:connector-curvature="0"
     style="fill:#55acee" />
  <circle
     cx="30.5"
     cy="30.596251"
     r="1.5"
     id="circle12"
     style="fill:#66757f" />
  <circle
     cx="3.5"
     cy="30.596251"
     r="1.5"
     id="circle14"
     style="fill:#66757f" />
</svg>
