<?xml version="1.0" encoding="UTF-8" standalone="no"?>
<svg
   xmlns:dc="http://purl.org/dc/elements/1.1/"
   xmlns:cc="http://creativecommons.org/ns#"
   xmlns:rdf="http://www.w3.org/1999/02/22-rdf-syntax-ns#"
   xmlns:svg="http://www.w3.org/2000/svg"
   xmlns="http://www.w3.org/2000/svg"
   xmlns:sodipodi="http://sodipodi.sourceforge.net/DTD/sodipodi-0.dtd"
   xmlns:inkscape="http://www.inkscape.org/namespaces/inkscape"
   viewBox="0 0 36 36"
   id="svg2"
   version="1.1"
   inkscape:version="0.91 r13725"
   sodipodi:docname="1f4f5.svg"
   width="36"
   height="36">
  <metadata
     id="metadata16">
    <rdf:RDF>
      <cc:Work
         rdf:about="">
        <dc:format>image/svg+xml</dc:format>
        <dc:type
           rdf:resource="http://purl.org/dc/dcmitype/StillImage" />
      </cc:Work>
    </rdf:RDF>
  </metadata>
  <defs
     id="defs14" />
  <sodipodi:namedview
     pagecolor="#ffffff"
     bordercolor="#666666"
     borderopacity="1"
     objecttolerance="10"
     gridtolerance="10"
     guidetolerance="10"
     inkscape:pageopacity="0"
     inkscape:pageshadow="2"
     inkscape:window-width="640"
     inkscape:window-height="480"
     id="namedview12"
     showgrid="false"
     inkscape:zoom="6.5555556"
     inkscape:cx="18"
     inkscape:cy="18"
     inkscape:window-x="0"
     inkscape:window-y="0"
     inkscape:window-maximized="0"
     inkscape:current-layer="svg2" />
  <path
     d="M 35,18 C 35,8.611 27.389,1 18,1 8.611,1 1,8.611 1,18 c 0,9.389 7.611,17 17,17 9.389,0 17,-7.611 17,-17 z"
     id="path4"
     inkscape:connector-curvature="0" />
  <path
     d="m 13,31 c 0,0 -3,0 -3,-3 L 10,8 c 0,0 0,-3 3,-3 l 10,0 c 0,0 3,0 3,3 l 0,20 c 0,0 0,3 -3,3 l -10,0 z"
     id="path6"
     inkscape:connector-curvature="0"
     style="fill:#ffffff" />
  <path
     d="m 12,9 12,0 0,18 -12,0 z"
     id="path8"
     inkscape:connector-curvature="0" />
  <path
     d="M 18,0 C 8.06,0 0,8.059 0,18 0,27.941 8.059,36 18,36 27.941,36 36,27.941 36,18 36,8.059 27.941,0 18,0 Z m 0,34 C 9.164,34 2,26.837 2,18 2,14.288 3.276,10.879 5.397,8.165 L 27.834,30.602 C 25.12,32.725 21.713,34 18,34 Z M 29.68,28.912 7.089,6.321 C 9.948,3.648 13.777,2 18,2 c 8.837,0 16,7.163 16,16 0,4.223 -1.648,8.053 -4.32,10.912 z"
     id="path10"
     inkscape:connector-curvature="0"
     style="fill:#dd2e44" />
</svg>
