<?xml version="1.0" encoding="UTF-8" standalone="no"?>
<svg
   xmlns:dc="http://purl.org/dc/elements/1.1/"
   xmlns:cc="http://creativecommons.org/ns#"
   xmlns:rdf="http://www.w3.org/1999/02/22-rdf-syntax-ns#"
   xmlns:svg="http://www.w3.org/2000/svg"
   xmlns="http://www.w3.org/2000/svg"
   xmlns:sodipodi="http://sodipodi.sourceforge.net/DTD/sodipodi-0.dtd"
   xmlns:inkscape="http://www.inkscape.org/namespaces/inkscape"
   viewBox="0 0 36 23"
   id="svg2"
   version="1.1"
   inkscape:version="0.91 r13725"
   sodipodi:docname="1f4fc.svg"
   width="36"
   height="23">
  <metadata
     id="metadata26">
    <rdf:RDF>
      <cc:Work
         rdf:about="">
        <dc:format>image/svg+xml</dc:format>
        <dc:type
           rdf:resource="http://purl.org/dc/dcmitype/StillImage" />
      </cc:Work>
    </rdf:RDF>
  </metadata>
  <defs
     id="defs24" />
  <sodipodi:namedview
     pagecolor="#ffffff"
     bordercolor="#666666"
     borderopacity="1"
     objecttolerance="10"
     gridtolerance="10"
     guidetolerance="10"
     inkscape:pageopacity="0"
     inkscape:pageshadow="2"
     inkscape:window-width="640"
     inkscape:window-height="480"
     id="namedview22"
     showgrid="false"
     inkscape:zoom="6.5555556"
     inkscape:cx="18"
     inkscape:cy="11"
     inkscape:window-x="0"
     inkscape:window-y="0"
     inkscape:window-maximized="0"
     inkscape:current-layer="svg2" />
  <path
     d="m 36,19 c 0,0 0,4 -4,4 L 4,23 C 4,23 0,23 0,19 L 0,4 C 0,0 4,0 4,0 l 28,0 c 0,0 4,0 4,4 l 0,15 z"
     id="path4"
     inkscape:connector-curvature="0"
     style="fill:#31373d" />
  <path
     d="m 32,6 -6,0 c 0,0 -1,0 -1,1 l 0,8 c 0,0 0,1 1,1 l 6,0 c 1,0 2,-2 2,-5 0,-3 -1,-5 -2,-5 z"
     id="path6"
     inkscape:connector-curvature="0"
     style="fill:#ccd6dd" />
  <path
     d="M 29.894,6 26,6 c 0,0 -1,0 -1,1 l 0,1 c 1.656,0 3,1.343 3,3 0,1.657 -1.344,3 -3,3 l 0,1 c 0,0 0,1 1,1 l 3.895,0 C 31.193,14.73 32,12.96 32,11 32,9.041 31.192,7.271 29.894,6 Z"
     id="path8"
     inkscape:connector-curvature="0" />
  <path
     d="M 28,11 C 28,9.343 26.656,8 25,8 l 0,6 c 1.656,0 3,-1.343 3,-3 z"
     id="path10"
     inkscape:connector-curvature="0"
     style="fill:#66757f" />
  <path
     d="m 4,6 6,0 c 0,0 1,0 1,1 l 0,8 c 0,0 0,1 -1,1 L 4,16 C 3,16 2,14 2,11 2,8 3,6 4,6 Z"
     id="path12"
     inkscape:connector-curvature="0"
     style="fill:#ccd6dd" />
  <path
     d="M 11,14 C 9.343,14 8,12.657 8,11 8,9.343 9.343,8 11,8 L 11,7 C 11,6 10,6 10,6 L 6.106,6 C 4.808,7.271 4,9.04 4,11 c 0,1.96 0.808,3.729 2.106,5 L 10,16 c 1,0 1,-1 1,-1 l 0,-1 z"
     id="path14"
     inkscape:connector-curvature="0" />
  <path
     d="m 8,11 c 0,1.657 1.343,3 3,3 L 11,8 C 9.343,8 8,9.343 8,11 Z"
     id="path16"
     inkscape:connector-curvature="0"
     style="fill:#66757f" />
  <path
     d="m 13,8 c 0,0 0,-1 1,-1 l 8,0 c 0,0 1,0 1,1 l 0,6 c 0,0 0,1 -1,1 l -8,0 c 0,0 -1,0 -1,-1 l 0,-6 z"
     id="path18"
     inkscape:connector-curvature="0"
     style="fill:#88c9f9" />
  <path
     d="m 34,20 c 0,0.553 -0.447,1 -1,1 L 3,21 C 2.448,21 2,20.553 2,20 2,19.447 2.448,19 3,19 l 30,0 c 0.553,0 1,0.447 1,1 z"
     id="path20"
     inkscape:connector-curvature="0" />
</svg>
