<?xml version="1.0" encoding="UTF-8" standalone="no"?>
<svg
   xmlns:dc="http://purl.org/dc/elements/1.1/"
   xmlns:cc="http://creativecommons.org/ns#"
   xmlns:rdf="http://www.w3.org/1999/02/22-rdf-syntax-ns#"
   xmlns:svg="http://www.w3.org/2000/svg"
   xmlns="http://www.w3.org/2000/svg"
   xmlns:sodipodi="http://sodipodi.sourceforge.net/DTD/sodipodi-0.dtd"
   xmlns:inkscape="http://www.inkscape.org/namespaces/inkscape"
   viewBox="0 0 36 29"
   id="svg2"
   version="1.1"
   inkscape:version="0.91 r13725"
   sodipodi:docname="1f4f9.svg"
   width="36"
   height="29">
  <metadata
     id="metadata12">
    <rdf:RDF>
      <cc:Work
         rdf:about="">
        <dc:format>image/svg+xml</dc:format>
        <dc:type
           rdf:resource="http://purl.org/dc/dcmitype/StillImage" />
      </cc:Work>
    </rdf:RDF>
  </metadata>
  <defs
     id="defs10" />
  <sodipodi:namedview
     pagecolor="#ffffff"
     bordercolor="#666666"
     borderopacity="1"
     objecttolerance="10"
     gridtolerance="10"
     guidetolerance="10"
     inkscape:pageopacity="0"
     inkscape:pageshadow="2"
     inkscape:window-width="640"
     inkscape:window-height="480"
     id="namedview8"
     showgrid="false"
     inkscape:zoom="6.5555556"
     inkscape:cx="18"
     inkscape:cy="17"
     inkscape:window-x="0"
     inkscape:window-y="0"
     inkscape:window-maximized="0"
     inkscape:current-layer="svg2" />
  <path
     d="M 29,12 16,12 C 12.332,12 11,9.01 11,7 L 11,5 7,5 C 4,5 4,8 4,8 4,8 2,7 1,7 0,7 0,8 0,8 l 0,10 c 0,0 0,1 1,1 1,0 3,-1 3,-1 l 0,7 c 0,4 4,4 4,4 l 18,0 c 4,0 4,-4 4,-4 L 30,11.894 C 29.653,11.963 29.315,12 29,12 Z"
     id="path4"
     inkscape:connector-curvature="0"
     style="fill:#31373d" />
  <path
     d="M 35,0 C 34.441,0 32.95,0.934 31.74,1.76 31.413,0.934 30.674,0 29,0 L 18,0 c 0,0 -5,0 -5,5 l 0,2 c 0,0 0,3 3,3 l 13,0 C 29,10 31.075,9.994 31.771,8.261 32.976,9.082 34.446,10 35,10 36,10 36,9 36,9 L 36,1 C 36,1 36,0 35,0 Z M 9,29 9,20 c 0,0 0,-3 2.75,-3 L 22,17 c 0,0 3,0 3,3 l 0,9 -2,0 0,-9 c 0,0 0,-1 -1,-1 l -10,0 c 0,0 -1,0 -1,1 l 0,9 -2,0 z"
     id="path6"
     inkscape:connector-curvature="0"
     style="fill:#66757f" />
</svg>
