<?xml version="1.0" encoding="UTF-8" standalone="no"?>
<svg
   xmlns:dc="http://purl.org/dc/elements/1.1/"
   xmlns:cc="http://creativecommons.org/ns#"
   xmlns:rdf="http://www.w3.org/1999/02/22-rdf-syntax-ns#"
   xmlns:svg="http://www.w3.org/2000/svg"
   xmlns="http://www.w3.org/2000/svg"
   xmlns:sodipodi="http://sodipodi.sourceforge.net/DTD/sodipodi-0.dtd"
   xmlns:inkscape="http://www.inkscape.org/namespaces/inkscape"
   viewBox="0 0 36 36"
   id="svg2"
   version="1.1"
   inkscape:version="0.91 r13725"
   sodipodi:docname="1f506.svg"
   width="36"
   height="36">
  <metadata
     id="metadata10">
    <rdf:RDF>
      <cc:Work
         rdf:about="">
        <dc:format>image/svg+xml</dc:format>
        <dc:type
           rdf:resource="http://purl.org/dc/dcmitype/StillImage" />
      </cc:Work>
    </rdf:RDF>
  </metadata>
  <defs
     id="defs8" />
  <sodipodi:namedview
     pagecolor="#ffffff"
     bordercolor="#666666"
     borderopacity="1"
     objecttolerance="10"
     gridtolerance="10"
     guidetolerance="10"
     inkscape:pageopacity="0"
     inkscape:pageshadow="2"
     inkscape:window-width="640"
     inkscape:window-height="480"
     id="namedview6"
     showgrid="false"
     inkscape:zoom="6.5555556"
     inkscape:cx="18"
     inkscape:cy="18"
     inkscape:window-x="0"
     inkscape:window-y="0"
     inkscape:window-maximized="0"
     inkscape:current-layer="svg2" />
  <path
     d="M 20,6 C 20,7.104 19.104,8 18,8 16.896,8 16,7.104 16,6 l 0,-4 c 0,-1.104 0.896,-2 2,-2 1.104,0 2,0.896 2,2 l 0,4 z m 0,28 c 0,1.104 -0.896,2 -2,2 -1.104,0 -2,-0.896 -2,-2 l 0,-4 c 0,-1.104 0.896,-2 2,-2 1.104,0 2,0.896 2,2 l 0,4 z M 6,16 c 1.104,0 2,0.896 2,2 0,1.104 -0.896,2 -2,2 L 2,20 C 0.896,20 0,19.104 0,18 0,16.896 0.896,16 2,16 l 4,0 z m 28,0 c 1.104,0 2,0.896 2,2 0,1.104 -0.896,2 -2,2 l -4,0 c -1.104,0 -2,-0.896 -2,-2 0,-1.104 0.896,-2 2,-2 l 4,0 z M 8.101,25.071 c 0.781,-0.78 2.047,-0.781 2.828,0 0.781,0.78 0.781,2.048 0,2.828 l -2.828,2.829 c -0.781,0.78 -2.048,0.78 -2.828,0 -0.781,-0.781 -0.781,-2.048 0,-2.828 L 8.101,25.071 Z M 27.899,5.272 c 0.781,-0.781 2.047,-0.782 2.828,0 0.781,0.781 0.781,2.047 0,2.829 l -2.828,2.828 c -0.781,0.781 -2.048,0.781 -2.828,0 -0.781,-0.781 -0.781,-2.047 0,-2.829 l 2.828,-2.828 z m -2.828,22.627 c -0.78,-0.781 -0.781,-2.047 0,-2.828 0.78,-0.781 2.048,-0.781 2.828,0 l 2.829,2.828 c 0.78,0.781 0.78,2.048 0,2.828 -0.781,0.781 -2.048,0.781 -2.828,0 L 25.071,27.899 Z M 18,9 c -4.971,0 -9,4.029 -9,9 0,4.97 4.029,9 9,9 4.971,0 9,-4.029 9,-9 0,-4.97 -4.029,-9 -9,-9 z m 0,14 c -2.761,0 -5,-2.238 -5,-5 0,-2.762 2.239,-5 5,-5 2.762,0 5,2.239 5,5 0,2.761 -2.238,5 -5,5 z M 5.272,8.101 C 4.491,7.32 4.49,6.054 5.272,5.273 c 0.781,-0.781 2.047,-0.781 2.829,0 l 2.828,2.828 c 0.781,0.781 0.781,2.048 0,2.828 -0.781,0.781 -2.047,0.781 -2.829,0 L 5.272,8.101 Z"
     id="path4"
     inkscape:connector-curvature="0"
     style="fill:#ffac33" />
</svg>
