<?xml version="1.0" encoding="UTF-8" standalone="no"?>
<svg
   xmlns:dc="http://purl.org/dc/elements/1.1/"
   xmlns:cc="http://creativecommons.org/ns#"
   xmlns:rdf="http://www.w3.org/1999/02/22-rdf-syntax-ns#"
   xmlns:svg="http://www.w3.org/2000/svg"
   xmlns="http://www.w3.org/2000/svg"
   xmlns:sodipodi="http://sodipodi.sourceforge.net/DTD/sodipodi-0.dtd"
   xmlns:inkscape="http://www.inkscape.org/namespaces/inkscape"
   viewBox="0 0 36 33"
   id="svg2"
   version="1.1"
   inkscape:version="0.91 r13725"
   sodipodi:docname="1f50f.svg"
   width="36"
   height="33">
  <metadata
     id="metadata16">
    <rdf:RDF>
      <cc:Work
         rdf:about="">
        <dc:format>image/svg+xml</dc:format>
        <dc:type
           rdf:resource="http://purl.org/dc/dcmitype/StillImage" />
      </cc:Work>
    </rdf:RDF>
  </metadata>
  <defs
     id="defs14" />
  <sodipodi:namedview
     pagecolor="#ffffff"
     bordercolor="#666666"
     borderopacity="1"
     objecttolerance="10"
     gridtolerance="10"
     guidetolerance="10"
     inkscape:pageopacity="0"
     inkscape:pageshadow="2"
     inkscape:window-width="640"
     inkscape:window-height="480"
     id="namedview12"
     showgrid="false"
     inkscape:zoom="6.5555556"
     inkscape:cx="18"
     inkscape:cy="18"
     inkscape:window-x="0"
     inkscape:window-y="0"
     inkscape:window-maximized="0"
     inkscape:current-layer="svg2" />
  <path
     d="M 13,0 C 7.477,0 3,4.477 3,10 l 0,10 4,0 0,-10 c 0,-3.313 2.686,-5.999 6,-5.999 3.314,0 6,2.686 6,5.999 l 0,10 4,0 0,-10 C 23,4.477 18.523,0 13,0 Z"
     id="path4"
     inkscape:connector-curvature="0"
     style="fill:#aab8c2" />
  <path
     d="m 26,29 c 0,2.209 -1.791,4 -4,4 L 4,33 C 1.791,33 0,31.209 0,29 L 0,17 c 0,-2.209 1.791,-4 4,-4 l 18,0 c 2.209,0 4,1.791 4,4 l 0,12 z"
     id="path6"
     inkscape:connector-curvature="0"
     style="fill:#ffac33" />
  <path
     d="M 32,19 16,15 5,22 17.184,22 c 0.413,-1.163 1.512,-2 2.816,-2 1.656,0 3,1.343 3,3 0,1.657 -1.344,3 -3,3 -1.305,0 -2.403,-0.837 -2.816,-2 L 5,24 l 11,7 16,-4 -1,-4 1,-4 z"
     id="path8"
     inkscape:connector-curvature="0"
     style="fill:#66757f" />
  <path
     d="m 36,15 -3,0 c -0.55,0 -1.201,0.402 -1.447,0.894 l -3.105,6.211 c -0.246,0.492 -0.246,1.297 0,1.789 l 3.105,6.211 C 31.799,30.598 32.45,31 33,31 l 3,0 0,-16 z"
     id="path10"
     inkscape:connector-curvature="0"
     style="fill:#292f33" />
</svg>
