<?xml version="1.0" encoding="UTF-8" standalone="no"?>
<svg
   xmlns:dc="http://purl.org/dc/elements/1.1/"
   xmlns:cc="http://creativecommons.org/ns#"
   xmlns:rdf="http://www.w3.org/1999/02/22-rdf-syntax-ns#"
   xmlns:svg="http://www.w3.org/2000/svg"
   xmlns="http://www.w3.org/2000/svg"
   xmlns:sodipodi="http://sodipodi.sourceforge.net/DTD/sodipodi-0.dtd"
   xmlns:inkscape="http://www.inkscape.org/namespaces/inkscape"
   viewBox="0 0 20 34"
   id="svg2"
   version="1.1"
   inkscape:version="0.91 r13725"
   sodipodi:docname="1f508.svg"
   width="20"
   height="34">
  <metadata
     id="metadata12">
    <rdf:RDF>
      <cc:Work
         rdf:about="">
        <dc:format>image/svg+xml</dc:format>
        <dc:type
           rdf:resource="http://purl.org/dc/dcmitype/StillImage" />
      </cc:Work>
    </rdf:RDF>
  </metadata>
  <defs
     id="defs10" />
  <sodipodi:namedview
     pagecolor="#ffffff"
     bordercolor="#666666"
     borderopacity="1"
     objecttolerance="10"
     gridtolerance="10"
     guidetolerance="10"
     inkscape:pageopacity="0"
     inkscape:pageshadow="2"
     inkscape:window-width="640"
     inkscape:window-height="480"
     id="namedview8"
     showgrid="false"
     inkscape:zoom="6.5555556"
     inkscape:cx="11"
     inkscape:cy="17"
     inkscape:window-x="0"
     inkscape:window-y="0"
     inkscape:window-maximized="0"
     inkscape:current-layer="svg2" />
  <path
     d="M 2,9 C 2,9 0,9 0,11 l 0,12 c 0,2 2,2 2,2 l 6,0 8,8 c 0,0 1,1 2,1 l 1,0 c 0,0 1,0 1,-1 L 20,1 C 20,1 20,0 19,0 L 18,0 C 17,0 16,1 16,1 L 8,9 2,9 Z"
     id="path4"
     inkscape:connector-curvature="0"
     style="fill:#8899a6" />
  <path
     d="m 8,25 8,8 c 0,0 1,1 2,1 l 1,0 c 0,0 1,0 1,-1 L 20,1 C 20,1 20,0 19,0 L 18,0 C 17,0 16,1 16,1 L 8,9 8,25 Z"
     id="path6"
     inkscape:connector-curvature="0"
     style="fill:#ccd6dd" />
</svg>
