<?xml version="1.0" encoding="UTF-8" standalone="no"?>
<svg
   xmlns:dc="http://purl.org/dc/elements/1.1/"
   xmlns:cc="http://creativecommons.org/ns#"
   xmlns:rdf="http://www.w3.org/1999/02/22-rdf-syntax-ns#"
   xmlns:svg="http://www.w3.org/2000/svg"
   xmlns="http://www.w3.org/2000/svg"
   xmlns:sodipodi="http://sodipodi.sourceforge.net/DTD/sodipodi-0.dtd"
   xmlns:inkscape="http://www.inkscape.org/namespaces/inkscape"
   viewBox="0 0 36 36"
   id="svg2"
   version="1.1"
   inkscape:version="0.91 r13725"
   sodipodi:docname="1f51f.svg"
   width="36"
   height="36">
  <metadata
     id="metadata12">
    <rdf:RDF>
      <cc:Work
         rdf:about="">
        <dc:format>image/svg+xml</dc:format>
        <dc:type
           rdf:resource="http://purl.org/dc/dcmitype/StillImage" />
      </cc:Work>
    </rdf:RDF>
  </metadata>
  <defs
     id="defs10" />
  <sodipodi:namedview
     pagecolor="#ffffff"
     bordercolor="#666666"
     borderopacity="1"
     objecttolerance="10"
     gridtolerance="10"
     guidetolerance="10"
     inkscape:pageopacity="0"
     inkscape:pageshadow="2"
     inkscape:window-width="640"
     inkscape:window-height="480"
     id="namedview8"
     showgrid="false"
     inkscape:zoom="6.5555556"
     inkscape:cx="18"
     inkscape:cy="18"
     inkscape:window-x="0"
     inkscape:window-y="0"
     inkscape:window-maximized="0"
     inkscape:current-layer="svg2" />
  <path
     d="m 36,32 c 0,2.209 -1.791,4 -4,4 L 4,36 C 1.791,36 0,34.209 0,32 L 0,4 C 0,1.791 1.791,0 4,0 l 28,0 c 2.209,0 4,1.791 4,4 l 0,28 z"
     id="path4"
     inkscape:connector-curvature="0"
     style="fill:#3b88c3" />
  <path
     d="m 7.213,10.975 -1.958,0 C 3.663,10.975 3,9.814 3,8.686 3,7.526 3.829,6.398 5.255,6.398 l 4.71,0 c 1.426,0 2.223,1.028 2.223,2.354 l 0,18.875 c 0,1.658 -1.062,2.586 -2.488,2.586 -1.426,0 -2.487,-0.928 -2.487,-2.586 l 0,-16.652 z m 7.967,7.231 C 15.18,12.799 17.27,6 23.97,6 c 6.7,0 8.791,6.799 8.791,12.206 0,5.406 -2.091,12.207 -8.791,12.207 -6.7,0 -8.79,-6.801 -8.79,-12.207 z m 12.406,0 c 0,-2.521 -0.232,-7.696 -3.616,-7.696 -3.383,0 -3.615,5.175 -3.615,7.696 0,2.355 0.232,7.695 3.615,7.695 3.384,0 3.616,-5.339 3.616,-7.695 z"
     id="path6"
     inkscape:connector-curvature="0"
     style="fill:#f5f8fa" />
</svg>
