<?xml version="1.0" encoding="UTF-8" standalone="no"?>
<svg
   xmlns:dc="http://purl.org/dc/elements/1.1/"
   xmlns:cc="http://creativecommons.org/ns#"
   xmlns:rdf="http://www.w3.org/1999/02/22-rdf-syntax-ns#"
   xmlns:svg="http://www.w3.org/2000/svg"
   xmlns="http://www.w3.org/2000/svg"
   xmlns:sodipodi="http://sodipodi.sourceforge.net/DTD/sodipodi-0.dtd"
   xmlns:inkscape="http://www.inkscape.org/namespaces/inkscape"
   viewBox="0 0 26 33"
   id="svg2"
   version="1.1"
   inkscape:version="0.91 r13725"
   sodipodi:docname="1f512.svg"
   width="26"
   height="33">
  <metadata
     id="metadata12">
    <rdf:RDF>
      <cc:Work
         rdf:about="">
        <dc:format>image/svg+xml</dc:format>
        <dc:type
           rdf:resource="http://purl.org/dc/dcmitype/StillImage" />
      </cc:Work>
    </rdf:RDF>
  </metadata>
  <defs
     id="defs10" />
  <sodipodi:namedview
     pagecolor="#ffffff"
     bordercolor="#666666"
     borderopacity="1"
     objecttolerance="10"
     gridtolerance="10"
     guidetolerance="10"
     inkscape:pageopacity="0"
     inkscape:pageshadow="2"
     inkscape:window-width="640"
     inkscape:window-height="480"
     id="namedview8"
     showgrid="false"
     inkscape:zoom="6.5555556"
     inkscape:cx="13"
     inkscape:cy="18"
     inkscape:window-x="0"
     inkscape:window-y="0"
     inkscape:window-maximized="0"
     inkscape:current-layer="svg2" />
  <path
     d="M 13,0 C 7.477,0 3,4.477 3,10 l 0,10 4,0 0,-10 c 0,-3.313 2.686,-6 6,-6 3.314,0 6,2.687 6,6 l 0,10 4,0 0,-10 C 23,4.477 18.523,0 13,0 Z"
     id="path4"
     inkscape:connector-curvature="0"
     style="fill:#aab8c2" />
  <path
     d="m 26,29 c 0,2.209 -1.791,4 -4,4 L 4,33 C 1.791,33 0,31.209 0,29 L 0,17 c 0,-2.209 1.791,-4 4,-4 l 18,0 c 2.209,0 4,1.791 4,4 l 0,12 z"
     id="path6"
     inkscape:connector-curvature="0"
     style="fill:#ffac33" />
</svg>
