<?xml version="1.0" encoding="UTF-8" standalone="no"?>
<svg
   xmlns:dc="http://purl.org/dc/elements/1.1/"
   xmlns:cc="http://creativecommons.org/ns#"
   xmlns:rdf="http://www.w3.org/1999/02/22-rdf-syntax-ns#"
   xmlns:svg="http://www.w3.org/2000/svg"
   xmlns="http://www.w3.org/2000/svg"
   xmlns:sodipodi="http://sodipodi.sourceforge.net/DTD/sodipodi-0.dtd"
   xmlns:inkscape="http://www.inkscape.org/namespaces/inkscape"
   viewBox="0 0 36.000023 35.999191"
   id="svg2"
   version="1.1"
   inkscape:version="0.91 r13725"
   sodipodi:docname="1f51c.svg"
   width="36.000023"
   height="35.999191">
  <metadata
     id="metadata10">
    <rdf:RDF>
      <cc:Work
         rdf:about="">
        <dc:format>image/svg+xml</dc:format>
        <dc:type
           rdf:resource="http://purl.org/dc/dcmitype/StillImage" />
      </cc:Work>
    </rdf:RDF>
  </metadata>
  <defs
     id="defs8" />
  <sodipodi:namedview
     pagecolor="#ffffff"
     bordercolor="#666666"
     borderopacity="1"
     objecttolerance="10"
     gridtolerance="10"
     guidetolerance="10"
     inkscape:pageopacity="0"
     inkscape:pageshadow="2"
     inkscape:window-width="640"
     inkscape:window-height="480"
     id="namedview6"
     showgrid="false"
     inkscape:zoom="6.5555556"
     inkscape:cx="18"
     inkscape:cy="18"
     inkscape:window-x="0"
     inkscape:window-y="0"
     inkscape:window-maximized="0"
     inkscape:current-layer="svg2" />
  <path
     d="M 35.311,6.6511912 25.17,0.26219117 c -0.904,-0.569 -1.645,-0.181 -1.645,0.86500003 l 0,1.872 -21.525,0 c -1.104,0 -2,0.895 -2,2 l 0,5.9999998 c 0,1.104 0.896,2 2,2 l 21.525,0 0,1.899 c 0,1.046 0.723,1.413 1.607,0.811 L 35.347,8.7781912 c 0.885,-0.6 0.868,-1.557 -0.036,-2.127 z M 6.303,27.262191 c 0,0.537 -0.357,1.018 -0.921,1.018 -0.563,0 -1.002,-0.412 -1.826,-0.412 -0.591,0 -1.126,0.316 -1.126,0.893 0,1.414 4.587,0.509 4.587,4.052 0,1.962 -1.621,3.186 -3.516,3.186 -1.058,0 -3.337,-0.248 -3.337,-1.539 0,-0.535 0.356,-0.976 0.92,-0.976 0.645,0 1.415,0.536 2.308,0.536 0.907,0 1.401,-0.509 1.401,-1.182 0,-1.62 -4.588,-0.645 -4.588,-3.832 0,-1.923 1.58,-3.118 3.407,-3.118 0.768,0.001 2.691,0.289 2.691,1.374 z m 1.213,3.681 c 0,-2.855 1.922,-5.055 4.725,-5.055 2.761,0 4.725,2.268 4.725,5.055 0,2.844 -1.91,5.056 -4.725,5.056 -2.788,0 -4.725,-2.212 -4.725,-5.056 z m 7.307,0 c 0,-1.661 -0.866,-3.159 -2.583,-3.159 -1.717,0 -2.582,1.498 -2.582,3.159 0,1.676 0.838,3.159 2.582,3.159 1.745,0.001 2.583,-1.483 2.583,-3.159 z m 2.615,0 c 0,-2.855 1.923,-5.055 4.725,-5.055 2.76,0 4.725,2.268 4.725,5.055 0,2.844 -1.909,5.056 -4.725,5.056 -2.789,0 -4.725,-2.212 -4.725,-5.056 z m 7.306,0 c 0,-1.661 -0.864,-3.159 -2.581,-3.159 -1.718,0 -2.582,1.498 -2.582,3.159 0,1.676 0.838,3.159 2.582,3.159 1.743,0.001 2.581,-1.483 2.581,-3.159 z m 2.918,-3.9 c 0,-0.688 0.44,-1.072 1.03,-1.072 0.261,0 0.687,0.206 0.865,0.454 l 4.353,5.81 0.028,0 0,-5.191 c 0,-0.688 0.439,-1.072 1.031,-1.072 0.589,0 1.029,0.385 1.029,1.072 l 0,7.802 c 0,0.688 -0.44,1.072 -1.029,1.072 -0.263,0 -0.675,-0.206 -0.866,-0.454 l -4.354,-5.741 -0.027,0 0,5.123 c 0,0.688 -0.44,1.072 -1.03,1.072 -0.59,0 -1.03,-0.385 -1.03,-1.072 l 0,-7.803 z"
     id="path4"
     inkscape:connector-curvature="0"
     style="fill:#31373d" />
</svg>
