<?xml version="1.0" encoding="UTF-8" standalone="no"?>
<svg
   xmlns:dc="http://purl.org/dc/elements/1.1/"
   xmlns:cc="http://creativecommons.org/ns#"
   xmlns:rdf="http://www.w3.org/1999/02/22-rdf-syntax-ns#"
   xmlns:svg="http://www.w3.org/2000/svg"
   xmlns="http://www.w3.org/2000/svg"
   xmlns:sodipodi="http://sodipodi.sourceforge.net/DTD/sodipodi-0.dtd"
   xmlns:inkscape="http://www.inkscape.org/namespaces/inkscape"
   viewBox="0 0 36.000034 35.91119"
   id="svg2"
   version="1.1"
   inkscape:version="0.91 r13725"
   sodipodi:docname="1f51a.svg"
   width="36.000034"
   height="35.91119">
  <metadata
     id="metadata10">
    <rdf:RDF>
      <cc:Work
         rdf:about="">
        <dc:format>image/svg+xml</dc:format>
        <dc:type
           rdf:resource="http://purl.org/dc/dcmitype/StillImage" />
      </cc:Work>
    </rdf:RDF>
  </metadata>
  <defs
     id="defs8" />
  <sodipodi:namedview
     pagecolor="#ffffff"
     bordercolor="#666666"
     borderopacity="1"
     objecttolerance="10"
     gridtolerance="10"
     guidetolerance="10"
     inkscape:pageopacity="0"
     inkscape:pageshadow="2"
     inkscape:window-width="640"
     inkscape:window-height="480"
     id="namedview6"
     showgrid="false"
     inkscape:zoom="6.5555556"
     inkscape:cx="18.000034"
     inkscape:cy="17.912"
     inkscape:window-x="0"
     inkscape:window-y="0"
     inkscape:window-maximized="0"
     inkscape:current-layer="svg2" />
  <path
     d="m 34.000034,2.9991912 -21.525,0 0,-1.872 c 0,-1.04600003 -0.74,-1.43400003 -1.644,-0.86500003 L 0.69003351,6.6511912 c -0.905,0.57 -0.922,1.527 -0.038,2.127 L 10.867034,15.709191 c 0.884,0.602 1.607,0.235 1.607,-0.811 l 0,-1.899 21.526,0 c 1.104,0 2,-0.896 2,-2 l 0,-5.9999998 c 0,-1.104 -0.896,-2 -2,-2 z M 0.08803351,22.914191 c 0,-1.03 0.515,-1.791 1.60599999,-1.791 l 5.108,0 c 0.989,0 1.462,0.7 1.462,1.421 0,0.7 -0.495,1.421 -1.462,1.421 l -3.624,0 0,3.008 3.378,0 c 1.009,0 1.503,0.699 1.503,1.421 0,0.699 -0.515,1.42 -1.503,1.42 l -3.378,0 0,3.131 3.811,0 c 0.988,0 1.462,0.701 1.462,1.421 0,0.701 -0.495,1.422 -1.462,1.422 l -5.314,0 c -0.90599999,0 -1.58599999,-0.617 -1.58599999,-1.544 l 0,-11.33 z m 9.41899999,-0.309 c 0,-1.029 0.6590005,-1.606 1.5450005,-1.606 0.392,0 1.03,0.31 1.298,0.68 l 6.529,8.712 0.041,0 0,-7.785 c 0,-1.029 0.659,-1.606 1.545,-1.606 0.886,0 1.545,0.577 1.545,1.606 l 0,11.699 c 0,1.03 -0.659,1.606 -1.545,1.606 -0.391,0 -1.009,-0.309 -1.297,-0.681 l -6.53,-8.608 -0.041,0 0,7.683 c 0,1.03 -0.659,1.606 -1.544,1.606 -0.885,0 -1.5450005,-0.576 -1.5450005,-1.606 l 0,-11.7 z m 14.2390005,0.104 c 0,-0.948 0.659,-1.586 1.586,-1.586 l 3.419,0 c 4.612,0 7.249,2.965 7.249,7.537 0,4.326 -2.801,7.127 -7.043,7.127 l -3.584,0 c -0.68,0 -1.627,-0.37 -1.627,-1.544 l 0,-11.534 z m 3.09,10.235 2.08,0 c 2.656,0 3.872,-1.957 3.872,-4.429 0,-2.637 -1.235,-4.551 -4.078,-4.551 l -1.874,0 0,8.98 z"
     id="path4"
     inkscape:connector-curvature="0"
     style="fill:#31373d" />
</svg>
