<?xml version="1.0" encoding="UTF-8" standalone="no"?>
<svg
   xmlns:dc="http://purl.org/dc/elements/1.1/"
   xmlns:cc="http://creativecommons.org/ns#"
   xmlns:rdf="http://www.w3.org/1999/02/22-rdf-syntax-ns#"
   xmlns:svg="http://www.w3.org/2000/svg"
   xmlns="http://www.w3.org/2000/svg"
   xmlns:sodipodi="http://sodipodi.sourceforge.net/DTD/sodipodi-0.dtd"
   xmlns:inkscape="http://www.inkscape.org/namespaces/inkscape"
   viewBox="0 0 34 35.958"
   id="svg2"
   version="1.1"
   inkscape:version="0.91 r13725"
   sodipodi:docname="1f525.svg"
   width="34"
   height="35.958">
  <metadata
     id="metadata12">
    <rdf:RDF>
      <cc:Work
         rdf:about="">
        <dc:format>image/svg+xml</dc:format>
        <dc:type
           rdf:resource="http://purl.org/dc/dcmitype/StillImage" />
      </cc:Work>
    </rdf:RDF>
  </metadata>
  <defs
     id="defs10" />
  <sodipodi:namedview
     pagecolor="#ffffff"
     bordercolor="#666666"
     borderopacity="1"
     objecttolerance="10"
     gridtolerance="10"
     guidetolerance="10"
     inkscape:pageopacity="0"
     inkscape:pageshadow="2"
     inkscape:window-width="640"
     inkscape:window-height="480"
     id="namedview8"
     showgrid="false"
     inkscape:zoom="6.5555556"
     inkscape:cx="17"
     inkscape:cy="18"
     inkscape:window-x="0"
     inkscape:window-y="0"
     inkscape:window-maximized="0"
     inkscape:current-layer="svg2" />
  <path
     d="M 34,18.958 C 34,16.896 33.633,14.919 32.96,13.09 32.5,18.479 29.627,21.247 26.625,19.958 23.813,18.75 25.708,14.041 25.848,11.794 26.084,7.985 25.836,3.625 18.917,0 21.792,5.5 19.25,8.917 16.584,9.125 13.626,9.356 10.917,6.583 11.917,2.083 8.679,4.469 8.585,8.485 9.584,11.083 10.626,13.791 9.542,16.041 7.001,16.291 4.161,16.571 2.583,13.25 4.038,7.958 1.52,10.923 0,14.763 0,18.958 c 0,9.389 7.611,17 17,17 9.389,0 17,-7.611 17,-17 z"
     id="path4"
     inkscape:connector-curvature="0"
     style="fill:#f4900c" />
  <path
     d="m 27.394,23.957 c 0.148,3.084 -2.561,4.293 -4.019,3.709 -2.106,-0.843 -1.541,-2.291 -2.083,-5.291 -0.542,-3 -2.625,-5.083 -5.708,-6 2.25,6.333 -1.247,8.667 -3.08,9.084 C 10.632,25.885 8.751,25.458 8.536,21.452 6.352,23.626 5,26.634 5,29.958 c 0,0.368 0.023,0.73 0.055,1.09 3.07,3.034 7.287,4.91 11.945,4.91 4.658,0 8.875,-1.876 11.945,-4.91 0.032,-0.36 0.055,-0.722 0.055,-1.09 0,-2.187 -0.584,-4.236 -1.606,-6.001 z"
     id="path6"
     inkscape:connector-curvature="0"
     style="fill:#ffcc4d" />
</svg>
