<?xml version="1.0" encoding="UTF-8" standalone="no"?>
<svg
   xmlns:dc="http://purl.org/dc/elements/1.1/"
   xmlns:cc="http://creativecommons.org/ns#"
   xmlns:rdf="http://www.w3.org/1999/02/22-rdf-syntax-ns#"
   xmlns:svg="http://www.w3.org/2000/svg"
   xmlns="http://www.w3.org/2000/svg"
   xmlns:sodipodi="http://sodipodi.sourceforge.net/DTD/sodipodi-0.dtd"
   xmlns:inkscape="http://www.inkscape.org/namespaces/inkscape"
   viewBox="0 0 34.234974 32.683094"
   id="svg2"
   version="1.1"
   inkscape:version="0.91 r13725"
   sodipodi:docname="1f528.svg"
   width="34.234974"
   height="32.683094">
  <metadata
     id="metadata12">
    <rdf:RDF>
      <cc:Work
         rdf:about="">
        <dc:format>image/svg+xml</dc:format>
        <dc:type
           rdf:resource="http://purl.org/dc/dcmitype/StillImage" />
      </cc:Work>
    </rdf:RDF>
  </metadata>
  <defs
     id="defs10" />
  <sodipodi:namedview
     pagecolor="#ffffff"
     bordercolor="#666666"
     borderopacity="1"
     objecttolerance="10"
     gridtolerance="10"
     guidetolerance="10"
     inkscape:pageopacity="0"
     inkscape:pageshadow="2"
     inkscape:window-width="640"
     inkscape:window-height="480"
     id="namedview8"
     showgrid="false"
     inkscape:zoom="6.5555556"
     inkscape:cx="17.444444"
     inkscape:cy="16.790531"
     inkscape:window-x="0"
     inkscape:window-y="0"
     inkscape:window-maximized="0"
     inkscape:current-layer="svg2" />
  <path
     d="m 29.323444,31.771562 c 1.166,1.166 3.021,1.221 4.121,0.121 1.1,-1.1 1.045,-2.955 -0.121,-4.121 l -21.758,-21.758 c -1.166,-1.166 -3.0209996,-1.221 -4.1209996,-0.121 -1.1,1.1 -1.045,2.955 0.121,4.121 l 21.7579996,21.758 z"
     id="path4"
     inkscape:connector-curvature="0"
     style="fill:#f4900c" />
  <path
     d="m 21.444444,0.89256198 c 0,0 -6,-2.99999998 -11,2.00000002 l -6.9999996,7 c 0,0 -1,-1 -2,0 l -0.99999996,1 c 0,0 -1,1 0,2 l 3.99999996,4 c 0,0 1,1 2,0 l 1,-1 c 0,0 1,-1 0,-2 l -0.078,-0.078 c 0.77,-0.743 1.923,-1.5 3.0779996,-0.922 l 4,-4 c 0,0 -1,-3 1,-5 2,-2 3,-2 5,-2 2,0 1,-1.00000002 1,-1.00000002 z"
     id="path6"
     inkscape:connector-curvature="0"
     style="fill:#66757f" />
</svg>
