<?xml version="1.0" encoding="UTF-8" standalone="no"?>
<svg
   xmlns:dc="http://purl.org/dc/elements/1.1/"
   xmlns:cc="http://creativecommons.org/ns#"
   xmlns:rdf="http://www.w3.org/1999/02/22-rdf-syntax-ns#"
   xmlns:svg="http://www.w3.org/2000/svg"
   xmlns="http://www.w3.org/2000/svg"
   xmlns:sodipodi="http://sodipodi.sourceforge.net/DTD/sodipodi-0.dtd"
   xmlns:inkscape="http://www.inkscape.org/namespaces/inkscape"
   viewBox="0 0 36 36"
   id="svg2"
   version="1.1"
   inkscape:version="0.91 r13725"
   sodipodi:docname="1f523.svg"
   width="36"
   height="36">
  <metadata
     id="metadata12">
    <rdf:RDF>
      <cc:Work
         rdf:about="">
        <dc:format>image/svg+xml</dc:format>
        <dc:type
           rdf:resource="http://purl.org/dc/dcmitype/StillImage" />
      </cc:Work>
    </rdf:RDF>
  </metadata>
  <defs
     id="defs10" />
  <sodipodi:namedview
     pagecolor="#ffffff"
     bordercolor="#666666"
     borderopacity="1"
     objecttolerance="10"
     gridtolerance="10"
     guidetolerance="10"
     inkscape:pageopacity="0"
     inkscape:pageshadow="2"
     inkscape:window-width="640"
     inkscape:window-height="480"
     id="namedview8"
     showgrid="false"
     inkscape:zoom="6.5555556"
     inkscape:cx="18"
     inkscape:cy="18"
     inkscape:window-x="0"
     inkscape:window-y="0"
     inkscape:window-maximized="0"
     inkscape:current-layer="svg2" />
  <path
     d="m 36,32 c 0,2.209 -1.791,4 -4,4 L 4,36 C 1.791,36 0,34.209 0,32 L 0,4 C 0,1.791 1.791,0 4,0 l 28,0 c 2.209,0 4,1.791 4,4 l 0,28 z"
     id="path4"
     inkscape:connector-curvature="0"
     style="fill:#3b88c3" />
  <path
     d="m 12.83,27.757 0.741,-0.854 c 0.494,-0.57 0.836,-0.874 1.444,-0.874 0.551,0 1.045,0.475 1.045,1.196 0,0.513 -0.437,1.121 -1.045,1.805 l -0.475,0.514 1.292,1.462 c 0.266,0.305 0.418,0.514 0.418,0.95 0,0.646 -0.608,1.272 -1.33,1.272 -0.437,0 -0.722,-0.133 -1.007,-0.437 l -1.311,-1.368 c -1.235,1.083 -2.489,1.805 -4.179,1.805 -2.546,0 -4.654,-1.443 -4.654,-4.103 0,-1.881 1.311,-3.268 2.869,-4.123 -0.741,-0.74 -1.254,-1.501 -1.254,-2.565 0,-2.166 2.033,-3.191 3.989,-3.191 1.71,0 3.876,0.969 3.876,2.982 0,1.519 -1.197,2.697 -2.413,3.324 l 1.994,2.205 z M 8.137,26.56 c -0.855,0.552 -1.634,1.216 -1.634,2.299 0,1.197 0.817,1.862 1.976,1.862 1.025,0 1.69,-0.418 2.413,-1.102 L 8.137,26.56 Z m 1.235,-5.148 c -0.494,0 -1.14,0.379 -1.14,0.949 0,0.57 0.266,0.912 1.007,1.634 0.57,-0.285 1.387,-0.798 1.387,-1.481 0,-0.856 -0.76,-1.102 -1.254,-1.102 z m 10.358,0.911 c 0,-1.652 1.234,-3.077 2.926,-3.077 1.689,0 2.925,1.425 2.925,3.077 0,1.653 -1.235,3.059 -2.925,3.059 -1.691,0 -2.926,-1.405 -2.926,-3.059 z m 3.914,0 c 0,-0.607 -0.36,-1.14 -0.987,-1.14 -0.627,0 -0.988,0.532 -0.988,1.14 0,0.608 0.361,1.121 0.988,1.121 0.626,0 0.987,-0.512 0.987,-1.121 z M 28.26,19.74 c 0.247,-0.475 0.438,-0.608 0.874,-0.608 0.589,0 1.12,0.476 1.12,1.063 0,0.152 0,0.285 -0.151,0.57 l -6.384,11.949 c -0.284,0.399 -0.399,0.627 -0.854,0.627 -0.494,0 -1.084,-0.475 -1.084,-1.045 0,-0.285 0.114,-0.551 0.19,-0.703 L 28.26,19.74 Z m -1.843,10.429 c 0,-1.652 1.235,-3.077 2.926,-3.077 1.69,0 2.925,1.425 2.925,3.077 0,1.653 -1.234,3.059 -2.925,3.059 -1.691,0 -2.926,-1.406 -2.926,-3.059 z m 3.913,0 c 0,-0.607 -0.36,-1.14 -0.987,-1.14 -0.627,0 -0.987,0.532 -0.987,1.14 0,0.608 0.36,1.121 0.987,1.121 0.627,0 0.987,-0.513 0.987,-1.121 z M 3,3 17,3 17,6 3,6 Z m 14,6 -14,0 0,3 5,0 0,5 4,0 0,-5 5,0 z M 32,5 27,3 27,11.203 C 26.462,11.077 25.81,11 25,11 c -2,0 -4,2 -4,4 0,1 1,2 3,2 3,0 5,-2 5,-4 L 29,6.8 32,8 32,5 Z"
     id="path6"
     inkscape:connector-curvature="0"
     style="fill:#ffffff" />
</svg>
