<?xml version="1.0" encoding="UTF-8" standalone="no"?>
<svg
   xmlns:dc="http://purl.org/dc/elements/1.1/"
   xmlns:cc="http://creativecommons.org/ns#"
   xmlns:rdf="http://www.w3.org/1999/02/22-rdf-syntax-ns#"
   xmlns:svg="http://www.w3.org/2000/svg"
   xmlns="http://www.w3.org/2000/svg"
   xmlns:sodipodi="http://sodipodi.sourceforge.net/DTD/sodipodi-0.dtd"
   xmlns:inkscape="http://www.inkscape.org/namespaces/inkscape"
   viewBox="0 0 36 36"
   id="svg2"
   version="1.1"
   inkscape:version="0.91 r13725"
   sodipodi:docname="1f527.svg"
   width="36"
   height="36">
  <metadata
     id="metadata10">
    <rdf:RDF>
      <cc:Work
         rdf:about="">
        <dc:format>image/svg+xml</dc:format>
        <dc:type
           rdf:resource="http://purl.org/dc/dcmitype/StillImage" />
      </cc:Work>
    </rdf:RDF>
  </metadata>
  <defs
     id="defs8" />
  <sodipodi:namedview
     pagecolor="#ffffff"
     bordercolor="#666666"
     borderopacity="1"
     objecttolerance="10"
     gridtolerance="10"
     guidetolerance="10"
     inkscape:pageopacity="0"
     inkscape:pageshadow="2"
     inkscape:window-width="640"
     inkscape:window-height="480"
     id="namedview6"
     showgrid="false"
     inkscape:zoom="6.5555556"
     inkscape:cx="18"
     inkscape:cy="18"
     inkscape:window-x="0"
     inkscape:window-y="0"
     inkscape:window-maximized="0"
     inkscape:current-layer="svg2" />
  <path
     d="m 27.989,19.977 c -0.622,0 -1.225,0.078 -1.806,0.213 L 15.811,9.818 C 15.945,9.237 16.023,8.634 16.023,8.012 16.023,3.587 12.436,0 8.012,0 7.11,0 5.91,0.916 6.909,1.915 l 2.997,2.997 c 0,0 0.999,1.998 -0.999,3.995 C 6.909,10.904 4.911,9.905 4.911,9.905 L 1.915,6.909 C 0.916,5.91 0,7.105 0,8.012 c 0,4.425 3.587,8.012 8.012,8.012 0.622,0 1.225,-0.078 1.806,-0.212 l 10.371,10.371 c -0.135,0.581 -0.213,1.184 -0.213,1.806 0,4.425 3.588,8.011 8.012,8.011 0.901,0 2.101,-0.916 1.102,-1.915 l -2.997,-2.997 c 0,0 -0.999,-1.998 0.999,-3.995 1.998,-1.997 3.995,-0.999 3.995,-0.999 l 2.997,2.997 c 1,0.999 1.916,-0.196 1.916,-1.102 0,-4.425 -3.587,-8.012 -8.011,-8.012 z"
     id="path4"
     inkscape:connector-curvature="0"
     style="fill:#8899a6" />
</svg>
