<?xml version="1.0" encoding="UTF-8" standalone="no"?>
<svg
   xmlns:dc="http://purl.org/dc/elements/1.1/"
   xmlns:cc="http://creativecommons.org/ns#"
   xmlns:rdf="http://www.w3.org/1999/02/22-rdf-syntax-ns#"
   xmlns:svg="http://www.w3.org/2000/svg"
   xmlns="http://www.w3.org/2000/svg"
   xmlns:sodipodi="http://sodipodi.sourceforge.net/DTD/sodipodi-0.dtd"
   xmlns:inkscape="http://www.inkscape.org/namespaces/inkscape"
   viewBox="0 0 34.43655 34.592999"
   id="svg2"
   version="1.1"
   inkscape:version="0.91 r13725"
   sodipodi:docname="1f54a.svg"
   width="34.43655"
   height="34.592999">
  <metadata
     id="metadata18">
    <rdf:RDF>
      <cc:Work
         rdf:about="">
        <dc:format>image/svg+xml</dc:format>
        <dc:type
           rdf:resource="http://purl.org/dc/dcmitype/StillImage" />
      </cc:Work>
    </rdf:RDF>
  </metadata>
  <defs
     id="defs16" />
  <sodipodi:namedview
     pagecolor="#ffffff"
     bordercolor="#666666"
     borderopacity="1"
     objecttolerance="10"
     gridtolerance="10"
     guidetolerance="10"
     inkscape:pageopacity="0"
     inkscape:pageshadow="2"
     inkscape:window-width="640"
     inkscape:window-height="480"
     id="namedview14"
     showgrid="false"
     inkscape:zoom="6.5555556"
     inkscape:cx="17.436551"
     inkscape:cy="17.593"
     inkscape:window-x="0"
     inkscape:window-y="0"
     inkscape:window-maximized="0"
     inkscape:current-layer="svg2" />
  <path
     d="m 0.23055096,15.112 c 1.00000004,0 5.87500004,1.344 6.50000004,2.312 l -1.281,-0.124 c 0,0 -3.906,-1.25 -4.90600004,-1.25 -1.001,0 -0.313,-0.938 -0.313,-0.938 z"
     id="path4"
     inkscape:connector-curvature="0"
     style="fill:#5c913b" />
  <path
     d="m 10.436551,1 c 1,1 3,7 3,10 0,3 -2,6 2,8 4,2 5.001,-1 5.001,-5 0,-4 -1.001,-8 -2.001,-10 -1,-2 -2,0 -2,0 0,0 -1,-4 -2,-4 -1,0 -1,2 -1,2 0,0 -2,-2 -3,-2 -1,0 0,1 0,1 z"
     id="path6"
     inkscape:connector-curvature="0"
     style="fill:#99aab5" />
  <path
     d="m 9.436551,14 c 3,0 4,4 6,4 2,0 1,-3 3,-3 2,0 10,-5 10,-11 0,-6 3,-3 3,-1 1,0 2,1.586 2,3 0,1 0,2 -1,3 1,0 2,2 1,3 1,3 -1,6 -3,7 0,1 -2,3 -4,2 0,0 -1,3 -3,2 0,0 3.052,1.684 4,2 3,1 7,1 7,1 0,0 0,1 -2,2 0,0 1,1 0,2 -1,1 -2,1 -2,1 0,0 1,2 -2,1 -3,-1 -6,-4 -6,-4 0,0 -5,1 -9,-1 -4,-2 -6,-6 -6,-8 0,-2 -3,-1 -4,-1 -1,0 2,-2 3,-2 0,0 0,-2 3,-2 z"
     id="path8"
     inkscape:connector-curvature="0"
     style="fill:#ccd6dd" />
  <path
     d="m 6.386551,17.019 c 0,0 5.438,2.625 7.938,6.656 1.9,3.064 2.782,8.656 2.782,8.656 0,0 0.043,0.564 -0.907,-2.281 -1,-3 -2.217,-6.288 -4.312,-8.188 -3.344,-3.031 -4.75,-3.5 -6.062,-4.25 -0.332,-0.189 0.217,-0.687 0.561,-0.593 z"
     id="path10"
     inkscape:connector-curvature="0"
     style="fill:#5c913b" />
  <path
     d="m 15.634551,27.54 c 0,0 2.038,0.103 3.107,2.139 1.068,2.036 -0.053,4.914 -0.053,4.914 0,0 -2.75,-1.268 -3.462,-2.947 -0.712,-1.68 0.408,-4.106 0.408,-4.106 z m -2.133,-4.778 c 0,0 1.274,1.437 3.558,1.705 2.284,0.269 4.121,-1.379 4.121,-1.379 0,0 -2.144,-1.97 -3.968,-2.033 -1.823,-0.065 -3.711,1.707 -3.711,1.707 z m -4.047,-3.148 c 0,0 -2.015,0.329 -2.85,2.472 -0.835,2.143 0.425,4.01 0.425,4.01 0,0 2.534,-0.848 3.055,-2.597 0.521,-1.747 -0.63,-3.885 -0.63,-3.885 z"
     id="path12"
     inkscape:connector-curvature="0"
     style="fill:#5c913b" />
</svg>
