<?xml version="1.0" encoding="UTF-8" standalone="no"?>
<svg
   xmlns:dc="http://purl.org/dc/elements/1.1/"
   xmlns:cc="http://creativecommons.org/ns#"
   xmlns:rdf="http://www.w3.org/1999/02/22-rdf-syntax-ns#"
   xmlns:svg="http://www.w3.org/2000/svg"
   xmlns="http://www.w3.org/2000/svg"
   xmlns:sodipodi="http://sodipodi.sourceforge.net/DTD/sodipodi-0.dtd"
   xmlns:inkscape="http://www.inkscape.org/namespaces/inkscape"
   viewBox="0 0 34.000801 36.000252"
   id="svg2"
   version="1.1"
   inkscape:version="0.91 r13725"
   sodipodi:docname="1f54d.svg"
   width="34.000801"
   height="36.000252">
  <metadata
     id="metadata38">
    <rdf:RDF>
      <cc:Work
         rdf:about="">
        <dc:format>image/svg+xml</dc:format>
        <dc:type
           rdf:resource="http://purl.org/dc/dcmitype/StillImage" />
      </cc:Work>
    </rdf:RDF>
  </metadata>
  <defs
     id="defs36" />
  <sodipodi:namedview
     pagecolor="#ffffff"
     bordercolor="#666666"
     borderopacity="1"
     objecttolerance="10"
     gridtolerance="10"
     guidetolerance="10"
     inkscape:pageopacity="0"
     inkscape:pageshadow="2"
     inkscape:window-width="640"
     inkscape:window-height="480"
     id="namedview34"
     showgrid="false"
     inkscape:zoom="6.5555556"
     inkscape:cx="17"
     inkscape:cy="18"
     inkscape:window-x="0"
     inkscape:window-y="0"
     inkscape:window-maximized="0"
     inkscape:current-layer="svg2" />
  <path
     d="m 25,9.00025 -8,-8 -8,8 0,27 16,0 z"
     id="path4"
     inkscape:connector-curvature="0"
     style="fill:#a7a9ac" />
  <path
     d="m 25,10.00025 c -0.256,0 -0.512,-0.098 -0.707,-0.293 L 17,2.41425 9.707,9.70725 c -0.391,0.391 -1.023,0.391 -1.414,0 -0.391,-0.391 -0.391,-1.023 0,-1.414 l 8,-8 c 0.391,-0.391 1.023,-0.391 1.414,0 l 8,8 c 0.391,0.391 0.391,1.023 0,1.414 -0.195,0.195 -0.451,0.293 -0.707,0.293 z"
     id="path6"
     inkscape:connector-curvature="0"
     style="fill:#292f33" />
  <path
     d="m 10,36.00025 -7,0 c -1.104,0 -2,-0.896 -2,-2 l 0,-14 c 0,-1.104 0.896,-2 2,-2 l 5,0 c 1.104,0 2,0.896 2,2 l 0,16 z"
     id="path8"
     inkscape:connector-curvature="0"
     style="fill:#d1d3d4" />
  <path
     d="m 11,19.78525 c 0.171,-0.662 0.005,-1.395 -0.514,-1.914 l -3.536,-3.535 c -0.781,-0.781 -2.047,-0.781 -2.828,0 l -3.536,3.536 c -0.52,0.519 -0.686,1.251 -0.514,1.914 l 10.928,0 z"
     id="path10"
     inkscape:connector-curvature="0"
     style="fill:#67757f" />
  <path
     d="m 1,20.00025 9,0 0,1 -9,0 z m 23,16 7,0 c 1.104,0 2,-0.896 2,-2 l 0,-14 c 0,-1.104 -0.896,-2 -2,-2 l -5,0 c -1.104,0 -2,0.896 -2,2 l 0,16 z"
     id="path12"
     inkscape:connector-curvature="0"
     style="fill:#d1d3d4" />
  <path
     d="m 33.936,19.78525 c 0.171,-0.662 0.005,-1.395 -0.515,-1.914 l -3.536,-3.536 c -0.78,-0.781 -2.047,-0.781 -2.828,0 l -3.535,3.536 c -0.519,0.519 -0.686,1.251 -0.514,1.914 l 10.928,0 z"
     id="path14"
     inkscape:connector-curvature="0"
     style="fill:#67757f" />
  <path
     d="m 24,20.00025 9,0 0,1 -9,0 z"
     id="path16"
     inkscape:connector-curvature="0"
     style="fill:#d1d3d4" />
  <path
     d="m 11,19.78525 c 0,0.553 -0.448,1 -1,1 l -9,0 c -0.552,0 -1,-0.447 -1,-1 0,-0.552 0.448,-1 1,-1 l 9,0 c 0.552,0 1,0.448 1,1 z m 23,0 c 0,0.553 -0.447,1 -1,1 l -9,0 c -0.553,0 -1,-0.447 -1,-1 0,-0.552 0.447,-1 1,-1 l 9,0 c 0.553,0 1,0.448 1,1 z"
     id="path18"
     inkscape:connector-curvature="0"
     style="fill:#292f33" />
  <path
     d="m 16.799,20.00025 c -0.693,0 -1.33,-0.388 -1.703,-1.038 l -0.672,-1.173 -1.581,0 c -0.714,0 -1.34,-0.346 -1.676,-0.926 -0.345,-0.597 -0.326,-1.344 0.05,-1.999 l 0.765,-1.335 -0.766,-1.336 c -0.377,-0.657 -0.395,-1.404 -0.049,-2 0.336,-0.579 0.962,-0.924 1.675,-0.924 l 1.581,0 0.671,-1.172 c 0.375,-0.651 1.011,-1.039 1.704,-1.039 0.67,0 1.295,0.368 1.674,0.984 l 0.757,1.227 1.855,0 c 0.726,0 1.356,0.353 1.685,0.945 0.337,0.603 0.3,1.354 -0.102,2.006 l -0.809,1.31 0.808,1.309 c 0.401,0.651 0.439,1.401 0.102,2.007 -0.329,0.591 -0.958,0.944 -1.684,0.944 l -1.854,0 -0.76,1.23 c -0.375,0.613 -1.001,0.98 -1.671,0.98 z"
     id="path20"
     inkscape:connector-curvature="0"
     style="fill:#67757f" />
  <path
     d="m 16.799,19.00025 c -0.336,0 -0.64,-0.195 -0.836,-0.536 l -3.878,-6.768 c -0.2,-0.348 -0.219,-0.714 -0.052,-1 0.157,-0.271 0.453,-0.427 0.811,-0.427 l 8.242,0 c 0.363,0 0.658,0.157 0.811,0.431 0.161,0.288 0.133,0.651 -0.079,0.996 l -4.196,6.799 c -0.199,0.32 -0.499,0.505 -0.823,0.505 z m -3.812,-7.735 3.814,6.658 4.108,-6.656 -7.922,-0.002 z"
     id="path22"
     inkscape:connector-curvature="0"
     style="fill:#ffcc4d" />
  <path
     d="m 21.086,16.78925 -8.242,0 c -0.358,0 -0.653,-0.155 -0.811,-0.427 -0.167,-0.288 -0.148,-0.652 0.052,-1 l 3.878,-6.769 c 0.196,-0.34 0.5,-0.536 0.836,-0.536 0.323,0 0.624,0.185 0.822,0.507 l 4.196,6.798 c 0.212,0.344 0.24,0.706 0.079,0.995 -0.152,0.275 -0.447,0.432 -0.81,0.432 z m -8.098,-0.998 7.922,0.002 -4.108,-6.658 -3.814,6.656 z"
     id="path24"
     inkscape:connector-curvature="0"
     style="fill:#ffcc4d" />
  <path
     d="m 14,27.53125 6,0 0,6.469 -6,0 z"
     id="path26"
     inkscape:connector-curvature="0"
     style="fill:#67757f" />
  <ellipse
     cx="17"
     cy="27.50025"
     rx="3"
     ry="2.5"
     id="ellipse28"
     style="fill:#67757f" />
  <path
     d="m 9,34.00025 16,0 0,2 -16,0 z"
     id="path30"
     inkscape:connector-curvature="0"
     style="fill:#d1d3d4" />
  <path
     d="m 7,28.78525 c 0,0.828 -0.671,-1 -1.5,-1 -0.829,0 -1.5,1.828 -1.5,1 l 0,-4.5 c 0,-0.828 0.671,-1.5 1.5,-1.5 0.829,0 1.5,0.672 1.5,1.5 l 0,4.5 z m 23,0 c 0,0.828 -0.672,-1 -1.5,-1 -0.828,0 -1.5,1.828 -1.5,1 l 0,-4.5 c 0,-0.828 0.672,-1.5 1.5,-1.5 0.828,0 1.5,0.672 1.5,1.5 l 0,4.5 z"
     id="path32"
     inkscape:connector-curvature="0"
     style="fill:#67757f" />
</svg>
