<?xml version="1.0" encoding="UTF-8" standalone="no"?>
<svg
   xmlns:dc="http://purl.org/dc/elements/1.1/"
   xmlns:cc="http://creativecommons.org/ns#"
   xmlns:rdf="http://www.w3.org/1999/02/22-rdf-syntax-ns#"
   xmlns:svg="http://www.w3.org/2000/svg"
   xmlns="http://www.w3.org/2000/svg"
   xmlns:sodipodi="http://sodipodi.sourceforge.net/DTD/sodipodi-0.dtd"
   xmlns:inkscape="http://www.inkscape.org/namespaces/inkscape"
   viewBox="0 0 34 35.674"
   id="svg2"
   version="1.1"
   inkscape:version="0.91 r13725"
   sodipodi:docname="1f54c.svg"
   width="34"
   height="35.674">
  <metadata
     id="metadata22">
    <rdf:RDF>
      <cc:Work
         rdf:about="">
        <dc:format>image/svg+xml</dc:format>
        <dc:type
           rdf:resource="http://purl.org/dc/dcmitype/StillImage" />
      </cc:Work>
    </rdf:RDF>
  </metadata>
  <defs
     id="defs20" />
  <sodipodi:namedview
     pagecolor="#ffffff"
     bordercolor="#666666"
     borderopacity="1"
     objecttolerance="10"
     gridtolerance="10"
     guidetolerance="10"
     inkscape:pageopacity="0"
     inkscape:pageshadow="2"
     inkscape:window-width="640"
     inkscape:window-height="480"
     id="namedview18"
     showgrid="false"
     inkscape:zoom="6.5555556"
     inkscape:cx="17"
     inkscape:cy="18"
     inkscape:window-x="0"
     inkscape:window-y="0"
     inkscape:window-maximized="0"
     inkscape:current-layer="svg2" />
  <path
     d="m 22,4 c 0,4.368 -9.837,6.652 -9.837,13.206 0,2.184 1.085,4.468 2.177,4.468 l 15.291,0 c 1.093,0 2.192,-2.284 2.192,-4.468 C 31.823,10.651 22,8.368 22,4 Z"
     id="path4"
     inkscape:connector-curvature="0"
     style="fill:#f4900c" />
  <path
     d="m 34,33.489 c 0,1.207 -0.289,2.185 -2.185,2.185 l -19.66,0 C 10.26,35.674 10,34.696 10,33.489 l 0,-10.921 c 0,-1.206 0.26,-1.894 2.156,-1.894 l 19.66,0 c 1.895,0 2.184,0.688 2.184,1.894 l 0,10.921 z"
     id="path6"
     inkscape:connector-curvature="0"
     style="fill:#ffd983" />
  <path
     d="m 22,33.674 c 0,1.104 -0.896,2 -2,2 l -18,0 c -1.104,0 -2,-0.896 -2,-2 l 0,-1 c 0,-1.104 0.896,-2 2,-2 l 18,0 c 1.104,0 2,0.896 2,2 l 0,1 z"
     id="path8"
     inkscape:connector-curvature="0"
     style="fill:#ffd983" />
  <path
     d="m 25,28.674 c 0,-3 -1.896,-5 -3,-5 -1.104,0 -3,2 -3,5 l 0,7 6,0 0,-7 z m -8,2.333 c 0,-2 -1.264,-3.333 -2,-3.333 -0.736,0 -2,1.333 -2,3.333 l 0,4.667 4,0 0,-4.667 z m 14,0 c 0,-2 -1.264,-3.333 -2,-3.333 -0.736,0 -2,1.333 -2,3.333 l 0,4.667 4,0 0,-4.667 z"
     id="path10"
     inkscape:connector-curvature="0"
     style="fill:#662113" />
  <path
     d="m 8,33.674 c 0,1.104 -0.896,2 -2,2 l -2,0 c -1.104,0 -2,-0.896 -2,-2 l 0,-26 c 0,-1.104 0.896,-2 2,-2 l 2,0 c 1.104,0 2,0.896 2,2 l 0,26 z"
     id="path12"
     inkscape:connector-curvature="0"
     style="fill:#ffd983" />
  <path
     d="m 4.995,0 c 0,1.837 -2.832,2.918 -2.832,5.675 0,0.919 0.312,2 0.627,2 l 4.402,0 c 0.314,0 0.631,-1.081 0.631,-2 C 7.823,2.918 4.995,1.837 4.995,0 Z"
     id="path14"
     inkscape:connector-curvature="0"
     style="fill:#f4900c" />
  <path
     d="m 9,11.674 c 0,0.552 -0.448,1 -1,1 l -6,0 c -0.552,0 -1,-0.448 -1,-1 0,-0.552 0.448,-1 1,-1 l 6,0 c 0.552,0 1,0.448 1,1 z m 0,-4 c 0,0.552 -0.448,1 -1,1 l -6,0 c -0.552,0 -1,-0.448 -1,-1 0,-0.552 0.448,-1 1,-1 l 6,0 c 0.552,0 1,0.448 1,1 z"
     id="path16"
     inkscape:connector-curvature="0"
     style="fill:#ffac33" />
</svg>
