<?xml version="1.0" encoding="UTF-8" standalone="no"?>
<svg
   xmlns:dc="http://purl.org/dc/elements/1.1/"
   xmlns:cc="http://creativecommons.org/ns#"
   xmlns:rdf="http://www.w3.org/1999/02/22-rdf-syntax-ns#"
   xmlns:svg="http://www.w3.org/2000/svg"
   xmlns="http://www.w3.org/2000/svg"
   xmlns:sodipodi="http://sodipodi.sourceforge.net/DTD/sodipodi-0.dtd"
   xmlns:inkscape="http://www.inkscape.org/namespaces/inkscape"
   viewBox="0 0 36 36"
   id="svg2"
   version="1.1"
   inkscape:version="0.91 r13725"
   sodipodi:docname="1f54e.svg"
   width="36"
   height="36">
  <metadata
     id="metadata12">
    <rdf:RDF>
      <cc:Work
         rdf:about="">
        <dc:format>image/svg+xml</dc:format>
        <dc:type
           rdf:resource="http://purl.org/dc/dcmitype/StillImage" />
      </cc:Work>
    </rdf:RDF>
  </metadata>
  <defs
     id="defs10" />
  <sodipodi:namedview
     pagecolor="#ffffff"
     bordercolor="#666666"
     borderopacity="1"
     objecttolerance="10"
     gridtolerance="10"
     guidetolerance="10"
     inkscape:pageopacity="0"
     inkscape:pageshadow="2"
     inkscape:window-width="640"
     inkscape:window-height="480"
     id="namedview8"
     showgrid="false"
     inkscape:zoom="6.5555556"
     inkscape:cx="18"
     inkscape:cy="18"
     inkscape:window-x="0"
     inkscape:window-y="0"
     inkscape:window-maximized="0"
     inkscape:current-layer="svg2" />
  <path
     d="m 36,32 c 0,2.209 -1.791,4 -4,4 L 4,36 C 1.791,36 0,34.209 0,32 L 0,4 C 0,1.791 1.791,0 4,0 l 28,0 c 2.209,0 4,1.791 4,4 l 0,28 z"
     id="path4"
     inkscape:connector-curvature="0"
     style="fill:#9266cc" />
  <path
     d="m 33.25,12 -2,0 c 0,7 -5.411,12.687 -12.25,13.202 l 0,-1.563 C 24.977,23.129 29.688,18 29.688,12 l -2,0 c 0,5 -3.814,9.136 -8.688,9.638 L 19,20.06 C 23.009,19.565 26.125,16 26.125,12 l -2,0 c 0,3 -2.223,5.559 -5.125,6.039 l 0,-1.562 C 21.051,16.018 22.592,14 22.592,12 l -2,0 c 0,1 -0.658,2 -1.592,2.392 L 19,11 l -2,0 0,3.392 C 16.066,14 15.409,13 15.409,12 l -2,0 c 0,2 1.54,4.018 3.591,4.477 l 0,1.562 C 14.098,17.559 11.875,15 11.875,12 l -2,0 c 0,4 3.116,7.564 7.125,8.06 l 0,1.579 C 12.126,21.136 8.312,17 8.312,12 l -2,0 c 0,6 4.71,11.129 10.688,11.639 l 0,1.563 C 10.161,24.687 4.75,19 4.75,12 l -2,0 c 0,8 6.308,14.683 14.25,15.202 L 17,29 14,29 c -1.104,0 -2,0.896 -2,2 l -2,0 c -0.552,0 -1,0.447 -1,1 0,0.553 0.448,1 1,1 l 16,0 c 0.553,0 1,-0.447 1,-1 0,-0.553 -0.447,-1 -1,-1 l -2,0 c 0,-1.104 -0.896,-2 -2,-2 l -3,0 0,-1.798 C 26.943,26.683 33.25,20 33.25,12 Z m -1,-6.948 c -0.303,0 -0.886,1.582 -0.985,3.918 C 31.241,9.529 31.69,10 32.25,10 32.81,10 33.259,9.529 33.235,8.97 33.136,6.634 32.553,5.052 32.25,5.052 Z m -3.562,0 c -0.303,0 -0.886,1.582 -0.985,3.918 -0.025,0.559 0.425,1.03 0.984,1.03 0.56,0 1.009,-0.471 0.985,-1.03 C 29.573,6.634 28.99,5.052 28.688,5.052 Z m -3.563,0 C 24.822,5.052 24.239,6.634 24.14,8.97 24.116,9.529 24.565,10 25.125,10 25.685,10 26.134,9.529 26.11,8.97 26.011,6.634 25.428,5.052 25.125,5.052 Z m -3.563,0 c -0.303,0 -0.886,1.582 -0.985,3.918 -0.024,0.559 0.426,1.03 0.985,1.03 0.56,0 1.009,-0.471 0.985,-1.03 C 22.448,6.634 21.865,5.052 21.562,5.052 Z M 18,4.051 c -0.303,0 -0.886,1.582 -0.985,3.918 -0.024,0.559 0.425,1.03 0.985,1.03 0.56,0 1.009,-0.471 0.985,-1.03 C 18.886,5.633 18.303,4.051 18,4.051 Z m -3.562,1.001 c -0.303,0 -0.886,1.582 -0.985,3.918 -0.025,0.559 0.425,1.03 0.984,1.03 0.56,0 1.009,-0.471 0.985,-1.03 C 15.323,6.634 14.74,5.052 14.438,5.052 Z m -3.563,0 C 10.572,5.052 9.989,6.634 9.89,8.97 9.866,9.529 10.315,10 10.875,10 11.435,10 11.884,9.529 11.86,8.97 11.761,6.634 11.178,5.052 10.875,5.052 Z m -3.563,0 C 7.009,5.052 6.426,6.634 6.327,8.97 6.303,9.529 6.753,10 7.312,10 7.872,10 8.321,9.529 8.297,8.97 8.198,6.634 7.615,5.052 7.312,5.052 Z m -3.562,0 C 3.447,5.052 2.864,6.634 2.765,8.97 2.741,9.529 3.19,10 3.75,10 4.31,10 4.759,9.529 4.735,8.97 4.636,6.634 4.053,5.052 3.75,5.052 Z"
     id="path6"
     inkscape:connector-curvature="0"
     style="fill:#ffffff" />
</svg>
