<?xml version="1.0" encoding="UTF-8" standalone="no"?>
<svg
   xmlns:dc="http://purl.org/dc/elements/1.1/"
   xmlns:cc="http://creativecommons.org/ns#"
   xmlns:rdf="http://www.w3.org/1999/02/22-rdf-syntax-ns#"
   xmlns:svg="http://www.w3.org/2000/svg"
   xmlns="http://www.w3.org/2000/svg"
   xmlns:sodipodi="http://sodipodi.sourceforge.net/DTD/sodipodi-0.dtd"
   xmlns:inkscape="http://www.inkscape.org/namespaces/inkscape"
   viewBox="0 0 12.465095 35.698002"
   id="svg2"
   version="1.1"
   inkscape:version="0.91 r13725"
   sodipodi:docname="1f574-1f3fe-200d-2640-fe0f.svg"
   width="12.465095"
   height="35.698002">
  <metadata
     id="metadata38">
    <rdf:RDF>
      <cc:Work
         rdf:about="">
        <dc:format>image/svg+xml</dc:format>
        <dc:type
           rdf:resource="http://purl.org/dc/dcmitype/StillImage" />
      </cc:Work>
    </rdf:RDF>
  </metadata>
  <defs
     id="defs36" />
  <sodipodi:namedview
     pagecolor="#ffffff"
     bordercolor="#666666"
     borderopacity="1"
     objecttolerance="10"
     gridtolerance="10"
     guidetolerance="10"
     inkscape:pageopacity="0"
     inkscape:pageshadow="2"
     inkscape:window-width="640"
     inkscape:window-height="480"
     id="namedview34"
     showgrid="false"
     inkscape:zoom="6.5555556"
     inkscape:cx="6.2505472"
     inkscape:cy="17.833"
     inkscape:window-x="0"
     inkscape:window-y="0"
     inkscape:window-maximized="0"
     inkscape:current-layer="svg2" />
  <path
     d="m 6.2335472,0.582 c 1.747,0 4.6579998,0.873 4.6579998,4.657 0,3.784 0,4.657 -0.873,4.657 -0.8729998,0 -2.0379998,-0.873 -3.7849998,-0.873 -1.747,0 -2.886,0.873 -3.785,0.873 -0.973,0 -0.873,-3.492 -0.873,-4.657 0,-3.783 2.912,-4.657 4.658,-4.657 z"
     id="path4"
     inkscape:connector-curvature="0"
     style="fill:#60352a" />
  <path
     d="m 2.7405472,5.112 c 0,-2.481 1.564,-4.493 3.494,-4.493 1.929,0 3.494,2.012 3.494,4.493 0,2.481 -1.564,4.493 -3.494,4.493 -1.93,0 -3.494,-2.012 -3.494,-4.493 z"
     id="path6"
     inkscape:connector-curvature="0"
     style="fill:#ae7e57" />
  <path
     d="m 1.8855472,6.694 c -0.009,-0.095 -0.019,-0.188 -0.019,-0.291 0,-1.455 0.873,0.164 0.873,-0.873 0,-1.037 0.582,-1.164 1.165,-1.746 l 0.873,-0.873 c 0,0 1.456,0.873 2.62,0.873 1.164,0 2.329,0.582 2.329,1.746 0,1.164 0.8729998,-0.582 0.8729998,0.873 0,0.103 -0.01,0.196 -0.017,0.291 l 0.305,0 c 0.003,-0.43 0.003,-0.911 0.003,-1.455 C 10.890547,1.456 7.9795472,0 6.2325472,0 c -1.747,0 -4.658,1.455 -4.658,5.239 0,0.337 -0.008,0.869 0.004,1.455 l 0.307,0 z"
     id="path8"
     inkscape:connector-curvature="0"
     style="fill:#60352a" />
  <path
     d="m 12.310547,18.597 c 0,0.559 -0.453,1.012 -1.012,1.012 -0.559,0 -1.012,-0.453 -1.012,-1.012 l 0,-2.589 c 0,-0.559 1.012,-1.012 1.012,-1.012 0.559,0 1.012,0.453 1.012,1.012 l 0,2.589 z m -12.15599983,0 c 0,0.559 0.453,1.012 1.01200003,1.012 0.559,0 1.012,-0.453 1.012,-1.012 l 0,-2.839 c 0,-0.559 -1.012,-1.012 -1.012,-1.012 -0.55900003,0 -1.01200003,0.453 -1.01200003,1.012 l 0,2.839 z"
     id="path10"
     inkscape:connector-curvature="0"
     style="fill:#ae7e57" />
  <path
     d="m 8.9915472,29.65 c -0.184,-0.513 -0.711,-0.764 -1.55,-0.764 -1.209,0 -1.429,0.713 -1.429,1.11 0,1.512 1.077,2.584 1.498,2.584 0.44,0 1.93,-1.678 1.481,-2.93 z"
     id="path12"
     inkscape:connector-curvature="0"
     style="fill:#dd2f45" />
  <path
     d="m 3.4735472,29.65 c 0.184,-0.513 0.711,-0.764 1.55,-0.764 1.209,0 1.429,0.713 1.429,1.11 0,1.512 -1.077,2.584 -1.498,2.584 -0.44,0 -1.93,-1.678 -1.481,-2.93 z"
     id="path14"
     inkscape:connector-curvature="0"
     style="fill:#dd2f45" />
  <path
     d="m 8.4755472,29.427 c 0,0.559 -0.453,1.012 -1.012,1.012 -0.559,0 -1.012,-0.453 -1.012,-1.012 l 0,-7.947 c 0,-0.559 0.453,-1.012 1.012,-1.012 0.559,0 1.012,0.453 1.012,1.012 l 0,7.947 z m -2.523,0 c 0,0.559 -0.453,1.012 -1.012,1.012 -0.559,0 -1.012,-0.453 -1.012,-1.012 l 0,-7.947 c 0,-0.559 0.453,-1.012 1.012,-1.012 0.559,0 1.012,0.453 1.012,1.012 l 0,7.947 z"
     id="path16"
     inkscape:connector-curvature="0"
     style="fill:#ae7e57" />
  <path
     d="m 7.5325472,7.795 c -0.015,-0.025 -0.043,-0.041 -0.073,-0.041 l -2.453,0 c -0.03,0 -0.058,0.015 -0.073,0.041 -0.015,0.025 -0.017,0.057 -0.003,0.084 0.015,0.029 0.372,0.704 1.303,0.704 0.931,0 1.288,-0.676 1.303,-0.704 0.013,-0.027 0.011,-0.059 -0.004,-0.084 z"
     id="path18"
     inkscape:connector-curvature="0"
     style="fill:#de2032" />
  <path
     d="m 6.2325472,6.635 c -0.269,0 -0.478,-0.048 -0.646,-0.122 0.055,0.198 0.21,0.474 0.646,0.474 0.436,0 0.59,-0.276 0.646,-0.474 -0.168,0.073 -0.377,0.122 -0.646,0.122 z"
     id="path20"
     inkscape:connector-curvature="0"
     style="fill:#915a34" />
  <ellipse
     cx="6.2325473"
     cy="34.698002"
     rx="6"
     ry="1"
     id="ellipse22"
     style="fill:#98a9b4" />
  <path
     d="m 8.7285472,24.857 c 2.2089998,-5.322 0.594,-7.213 0.594,-7.213 l -6.216,-0.006 c 0,0 -1.531,1.537 0.59,7.219 l 5.032,0 z"
     id="path24"
     inkscape:connector-curvature="0"
     style="fill:#8899a6" />
  <path
     d="m 6.2325472,9.865 c -6.62500003,0 -6.22800003,6.853 -6.22800003,6.853 l 2.28500003,0 c 0,-2.186 0.839,-3.145 0.839,-3.145 l 0.432,3.288 -0.436,0.782 c 0,0 1.041,0.569 3.108,0.569 2.067,0 3.108,-0.569 3.108,-0.569 l -0.436,-0.782 0.432,-3.288 c 0,0 0.8389998,0.958 0.8389998,3.145 l 2.285,0 c 0,0 0.397,-6.853 -6.2279998,-6.853 z"
     id="path26"
     inkscape:connector-curvature="0"
     style="fill:#292f33" />
  <path
     d="m 5.0315472,8.99 0,1.155 c 0,0 0.451,0.408 1.201,0.408 0.75,0 1.201,-0.408 1.201,-0.408 l 0,-1.155 -2.402,0 z"
     id="path28"
     inkscape:connector-curvature="0"
     style="fill:#ae7e57" />
  <path
     d="m 9.2435472,4.403 c -0.256,-0.25 -1.536,-0.091 -2.122,0.188 -0.236,0.112 -0.35,0.203 -0.51,0.336 -0.214,0.179 -0.379,0.178 -0.379,0.178 0,0 -0.164,10e-4 -0.379,-0.178 -0.159,-0.133 -0.274,-0.224 -0.51,-0.336 -0.586,-0.28 -1.867,-0.438 -2.122,-0.188 -0.417,0.407 -0.101,2.32 0.635,2.47 0.536,0.109 0.952,0.07 1.19,-0.01 0.168,-0.056 0.507,-0.209 0.744,-0.808 0.214,-0.541 0.442,-0.536 0.442,-0.536 0,0 0.228,-0.005 0.442,0.536 0.237,0.598 0.576,0.751 0.744,0.807 0.238,0.08 0.655,0.119 1.19,0.01 0.736,-0.149 1.051,-2.062 0.635,-2.469 z"
     id="path30"
     inkscape:connector-curvature="0"
     style="fill:#dd2f45" />
  <path
     d="m 4.8285472,4.7 c 0,0 -0.942,-0.169 -1.141,0.05 -0.198,0.218 -0.142,1.254 0.218,1.696 0.196,0.241 0.977,0.186 1.148,0.104 0.309,-0.148 0.617,-0.6 0.617,-1.18 0.001,-0.407 -0.554,-0.63 -0.842,-0.67 z m 2.808,0 c 0,0 0.942,-0.169 1.141,0.05 0.198,0.218 0.142,1.254 -0.218,1.696 -0.196,0.241 -0.977,0.186 -1.148,0.104 -0.309,-0.148 -0.617,-0.6 -0.617,-1.18 -0.001,-0.407 0.554,-0.63 0.842,-0.67 z"
     id="path32"
     inkscape:connector-curvature="0"
     style="fill:#292f33" />
</svg>
