<?xml version="1.0" encoding="UTF-8" standalone="no"?>
<svg
   xmlns:dc="http://purl.org/dc/elements/1.1/"
   xmlns:cc="http://creativecommons.org/ns#"
   xmlns:rdf="http://www.w3.org/1999/02/22-rdf-syntax-ns#"
   xmlns:svg="http://www.w3.org/2000/svg"
   xmlns="http://www.w3.org/2000/svg"
   xmlns:sodipodi="http://sodipodi.sourceforge.net/DTD/sodipodi-0.dtd"
   xmlns:inkscape="http://www.inkscape.org/namespaces/inkscape"
   viewBox="0 0 30.001024 35.99968"
   id="svg2"
   version="1.1"
   inkscape:version="0.91 r13725"
   sodipodi:docname="1f575-1f3fd-200d-2642-fe0f.svg"
   width="30.001024"
   height="35.99968">
  <metadata
     id="metadata40">
    <rdf:RDF>
      <cc:Work
         rdf:about="">
        <dc:format>image/svg+xml</dc:format>
        <dc:type
           rdf:resource="http://purl.org/dc/dcmitype/StillImage" />
      </cc:Work>
    </rdf:RDF>
  </metadata>
  <defs
     id="defs38" />
  <sodipodi:namedview
     pagecolor="#ffffff"
     bordercolor="#666666"
     borderopacity="1"
     objecttolerance="10"
     gridtolerance="10"
     guidetolerance="10"
     inkscape:pageopacity="0"
     inkscape:pageshadow="2"
     inkscape:window-width="640"
     inkscape:window-height="480"
     id="namedview36"
     showgrid="false"
     inkscape:zoom="6.5555556"
     inkscape:cx="15.001025"
     inkscape:cy="18"
     inkscape:window-x="0"
     inkscape:window-y="0"
     inkscape:window-maximized="0"
     inkscape:current-layer="svg2" />
  <path
     d="m 30.001025,35.999679 0,-1 c 0,-3.313 -2.687,-6 -6,-6 l -18.0000003,0 c -3.313,0 -6.00000001,2.687 -6.00000001,6 l 0,1 30.00000031,0 z"
     id="path4"
     inkscape:connector-curvature="0"
     style="fill:#66757f" />
  <path
     d="m 9.0010247,27.481679 c 1.6720003,1.575 3.7460003,2.518 6.0000003,2.518 2.254,0 4.327,-0.944 6,-2.518 l 0,-1.482 -12.0000003,0 0,1.482 z"
     id="path6"
     inkscape:connector-curvature="0"
     style="fill:#ef9645" />
  <path
     d="m 23.751025,20.434679 c 1.188,0.208 2.619,0.129 2.416,0.917 -0.479,1.854 -2.604,1.167 -2.979,1.188 -0.375,0.02 0.563,-2.105 0.563,-2.105 z"
     id="path8"
     inkscape:connector-curvature="0"
     style="fill:#66757f" />
  <path
     d="m 24.063025,20.644679 c 1.875,0.25 2.541,0.416 1.166,0.958 -0.772,0.305 -2.243,4.803 -3.331,4.118 -1.087,-0.685 2.165,-5.076 2.165,-5.076 z"
     id="path10"
     inkscape:connector-curvature="0"
     style="fill:#292f33" />
  <path
     d="m 6.2560247,20.434679 c -1.188,0.208 -2.619,0.129 -2.416,0.917 0.479,1.854 2.604,1.167 2.979,1.188 0.375,0.02 -0.563,-2.105 -0.563,-2.105 z"
     id="path12"
     inkscape:connector-curvature="0"
     style="fill:#66757f" />
  <path
     d="m 5.9440247,20.644679 c -1.875,0.25 -2.541,0.416 -1.166,0.958 0.772,0.305 2.243,4.803 3.331,4.118 1.088,-0.685 -2.165,-5.076 -2.165,-5.076 z"
     id="path14"
     inkscape:connector-curvature="0"
     style="fill:#292f33" />
  <path
     d="m 5.0560247,11.030679 c -1.953,0 -2.305,3.164 -0.664,3.594 0,0 -1.367,3.32 1.953,3.32 -0.547,-1.68 -1.562,-4.414 -0.781,-6.406 m 19.3800003,-0.508 c 1.953,0 2.305,3.164 0.664,3.594 0,0 1.367,3.32 -1.953,3.32 0.547,-1.68 1.562,-4.414 0.781,-6.406"
     id="path16"
     inkscape:connector-curvature="0"
     style="fill:#963b22" />
  <ellipse
     cx="15.001024"
     cy="15.499679"
     rx="10"
     ry="12.5"
     id="ellipse18"
     style="fill:#d5ab88" />
  <path
     d="m 11.001025,16.999679 c -0.552,0 -1,-0.448 -1,-1 l 0,-1 c 0,-0.552 0.448,-1 1,-1 0.552,0 1,0.448 1,1 l 0,1 c 0,0.552 -0.448,1 -1,1 z m 8,0 c -0.553,0 -1,-0.448 -1,-1 l 0,-1 c 0,-0.552 0.447,-1 1,-1 0.553,0 1,0.448 1,1 l 0,1 c 0,0.552 -0.447,1 -1,1 z"
     id="path20"
     inkscape:connector-curvature="0"
     style="fill:#662113" />
  <path
     d="m 16.001025,20.499679 c 0,0.276 -0.224,0.5 -0.5,0.5 l -1,0 c -0.276,0 -0.5,-0.224 -0.5,-0.5 0,-0.276 0.224,-0.5 0.5,-0.5 l 1,0 c 0.276,0 0.5,0.224 0.5,0.5 z"
     id="path22"
     inkscape:connector-curvature="0"
     style="fill:#c1694f" />
  <path
     d="m 4.6580247,14.787679 c 0.148,0.147 0.888,0.591 1.036,1.034 0.148,0.443 0.445,2.954 1.333,3.693 0.916,0.762 4.3700003,0.478 5.0320003,0.149 1.48,-0.738 1.662,-2.798 1.924,-3.842 0.148,-0.591 1.036,-0.591 1.036,-0.591 0,0 0.888,0 1.036,0.591 0.262,1.044 0.444,3.104 1.924,3.841 0.662,0.33 4.116,0.614 5.034,-0.147 0.887,-0.739 1.183,-3.25 1.331,-3.694 0.146,-0.443 0.888,-0.886 1.035,-1.034 0.148,-0.148 0.148,-0.739 0,-0.887 -0.296,-0.295 -3.788,-0.559 -7.548,-0.148 -0.75,0.082 -1.035,0.295 -2.812,0.295 -1.776,0 -2.062,-0.214 -2.812,-0.295 -3.7590003,-0.411 -7.2520003,-0.148 -7.5480003,0.148 -0.149,0.148 -0.149,0.74 -10e-4,0.887 z"
     id="path24"
     inkscape:connector-curvature="0"
     style="clip-rule:evenodd;fill:#292f33;fill-rule:evenodd" />
  <path
     d="m 4.8590247,8.3946787 c 0,0 1.359,-8.90099998 5.9320003,-8.37199998 3.512,0.406 4.89,0.825 7.833,0.097 1.947,-0.482 4.065,1.13599998 5.342,4.37899998 0.816,2.068 1.224,4.041 1.224,4.041 0,0 3.938,-0.385 4.165,1.7320003 0.228,2.117 -4.354,4.716 -15.889,4.716 -6.4650003,-10e-4 -13.13500031,-2.358 -13.45200031,-4.331 -0.317,-1.9730003 4.84500001,-2.2620003 4.84500001,-2.2620003 z"
     id="path26"
     inkscape:connector-curvature="0"
     style="fill:#66757f" />
  <path
     d="m 5.1260247,7.1486787 c 0,0 -0.27,1.104 -0.406,1.871 -0.136,0.768 0.226,1.2960003 2.705,1.8240003 3.2870003,0.7 10.6790003,0.692 15.0580003,-0.383 1.759,-0.432 2.886,-0.7200003 2.751,-1.5830003 -0.167,-1.068 -0.196,-1.066 -0.541,-2.208 0,0 -1.477,0.502 -3.427,0.96 -2.66,0.624 -9.964,0.911 -13.4810003,0.144 -1.874,-0.41 -2.659,-0.625 -2.659,-0.625 z m -0.136,13.9540003 c -0.354,0.145 2.921,1.378 7.4800003,1.458 4.771,0.084 6.234,0.39 5.146,1.459 -1.146,1.125 -0.852,2.894 -0.771,3.418 0.081,0.524 2.047,1.916 2.208,2.56 0.161,0.645 -1.229,5.961 -1.229,5.961 l -8.7290003,-0.252 c -2.565,-8.844 -2.883,-8.501 -4.105,-13.604 -0.241,-1.008 0,-1 0,-1 z"
     id="path28"
     inkscape:connector-curvature="0"
     style="fill:#292f33" />
  <path
     d="m 3.9900247,21.143679 c -0.354,0.146 2.921,1.378 7.4800003,1.458 4.771,0.084 6.234,0.39 5.146,1.459 -1.146,1.125 -0.664,2.894 -0.583,3.418 0.081,0.524 1.859,1.916 2.021,2.561 0.16,0.644 -1.231,5.96 -1.231,5.96 l -8.7290003,-0.252 c -2.565,-8.844 -2.883,-8.501 -4.105,-13.604 -0.24,-1.008 0.001,-1 0.001,-1 z"
     id="path30"
     inkscape:connector-curvature="0"
     style="fill:#66757f" />
  <path
     d="m 25.053025,21.102679 c 0.354,0.145 -2.921,1.378 -7.479,1.458 -4.771,0.084 -6.234,0.39 -5.146,1.459 1.146,1.125 2.976,2.892 2.896,3.416 -0.081,0.524 -4.172,1.918 -4.333,2.562 -0.161,0.645 1.229,5.961 1.229,5.961 l 8.729,-0.252 c 2.565,-8.844 2.883,-8.501 4.104,-13.604 0.241,-1.008 0,-1 0,-1 z"
     id="path32"
     inkscape:connector-curvature="0"
     style="fill:#292f33" />
  <path
     d="m 25.959025,21.102679 c 0.354,0.145 -2.921,1.378 -7.479,1.458 -4.771,0.084 -6.234,0.39 -5.146,1.459 1.146,1.125 2.977,2.892 2.896,3.416 -0.081,0.524 -4.172,1.918 -4.333,2.562 -0.161,0.645 1.229,5.961 1.229,5.961 l 8.657,0.01 c 2.565,-8.844 2.955,-8.763 4.177,-13.866 0.24,-1.008 -0.001,-1 -0.001,-1 z"
     id="path34"
     inkscape:connector-curvature="0"
     style="fill:#66757f" />
</svg>
