<?xml version="1.0" encoding="UTF-8" standalone="no"?>
<svg
   xmlns:dc="http://purl.org/dc/elements/1.1/"
   xmlns:cc="http://creativecommons.org/ns#"
   xmlns:rdf="http://www.w3.org/1999/02/22-rdf-syntax-ns#"
   xmlns:svg="http://www.w3.org/2000/svg"
   xmlns="http://www.w3.org/2000/svg"
   xmlns:sodipodi="http://sodipodi.sourceforge.net/DTD/sodipodi-0.dtd"
   xmlns:inkscape="http://www.inkscape.org/namespaces/inkscape"
   viewBox="0 0 21.217936 35.816139"
   id="svg2"
   version="1.1"
   inkscape:version="0.91 r13725"
   sodipodi:docname="1f57a-1f3fd.svg"
   width="21.217936"
   height="35.816139">
  <metadata
     id="metadata34">
    <rdf:RDF>
      <cc:Work
         rdf:about="">
        <dc:format>image/svg+xml</dc:format>
        <dc:type
           rdf:resource="http://purl.org/dc/dcmitype/StillImage" />
      </cc:Work>
    </rdf:RDF>
  </metadata>
  <defs
     id="defs32" />
  <sodipodi:namedview
     pagecolor="#ffffff"
     bordercolor="#666666"
     borderopacity="1"
     objecttolerance="10"
     gridtolerance="10"
     guidetolerance="10"
     inkscape:pageopacity="0"
     inkscape:pageshadow="2"
     inkscape:window-width="640"
     inkscape:window-height="480"
     id="namedview30"
     showgrid="false"
     inkscape:zoom="6.5555556"
     inkscape:cx="10.438"
     inkscape:cy="17.908"
     inkscape:window-x="0"
     inkscape:window-y="0"
     inkscape:window-maximized="0"
     inkscape:current-layer="svg2" />
  <path
     d="m 18.595,35.168139 c -0.005,-0.034 -0.055,-0.214 -0.055,-0.214 l -0.057,0.027 0.004,-0.134 c -0.021,-0.58 -0.608,-0.51 -0.678,-0.516 -0.07,-0.006 -0.305,0.006 -0.596,-0.031 -0.29,-0.037 -0.57,-0.108 -0.816,-0.257 -0.287,-0.174 -0.678,-0.467 -1.014,-0.663 -0.336,-0.196 -0.758,-0.437 -0.758,-0.437 0,0 -0.367,0.682 -1.127,0.654 -0.409,-0.015 -1.05,-0.337 -1.133,-0.36 -0.11,-0.031 -0.159,0.031 -0.205,0.116 -0.046,0.086 -0.211,0.684 -0.211,1.005 0,0.204 0.025,0.333 0.044,0.405 l -0.055,-0.017 c -0.025,-0.007 -0.049,0.012 -0.049,0.039 l 0,0.687 c 0,0.045 0.037,0.147 0.155,0.171 0.118,0.024 1.759,0.165 1.821,0.11 0.062,-0.055 0.13,-0.232 0.183,-0.257 0.053,-0.024 0.603,0.094 0.859,0.155 0.256,0.061 0.698,0.165 1.218,0.165 0.52,0 1.191,-0.153 1.607,-0.257 0.415,-0.104 0.741,-0.243 0.815,-0.289 0.074,-0.046 0.053,-0.067 0.048,-0.102 z"
     id="path4"
     inkscape:connector-curvature="0"
     style="fill:#292f33" />
  <path
     d="m 13.628,35.313139 -0.41,-0.287 c 0.008,-0.013 0.829,-1.147 2.439,-0.666 0.092,-0.126 0.23,-0.324 0.363,-0.544 l 0.428,0.26 c -0.24,0.396 -0.491,0.718 -0.501,0.731 l -0.111,0.142 -0.17,-0.061 c -1.379,-0.491 -2.031,0.415 -2.038,0.425 z"
     id="path6"
     inkscape:connector-curvature="0"
     style="fill:#4b545d" />
  <path
     d="m 6.706,35.168139 c -0.005,-0.034 -0.055,-0.214 -0.055,-0.214 l -0.057,0.027 0.004,-0.134 c -0.021,-0.58 -0.608,-0.51 -0.678,-0.516 -0.07,-0.006 -0.305,0.006 -0.596,-0.031 -0.291,-0.037 -0.57,-0.108 -0.816,-0.257 -0.287,-0.174 -0.678,-0.467 -1.014,-0.663 -0.336,-0.196 -0.758,-0.437 -0.758,-0.437 0,0 -0.367,0.682 -1.127,0.654 -0.409,-0.015 -1.05,-0.337 -1.133,-0.36 -0.11,-0.031 -0.159,0.031 -0.205,0.116 -0.046,0.086 -0.211,0.684 -0.211,1.005 0,0.204 0.025,0.333 0.044,0.405 l -0.055,-0.017 c -0.025,-0.007 -0.049,0.012 -0.049,0.039 l 0,0.687 c 0,0.045 0.037,0.147 0.155,0.171 0.118,0.024 1.759,0.165 1.821,0.11 0.062,-0.055 0.13,-0.232 0.183,-0.257 0.053,-0.024 0.603,0.094 0.859,0.155 0.256,0.061 0.698,0.165 1.218,0.165 0.52,0 1.191,-0.153 1.607,-0.257 0.415,-0.104 0.741,-0.243 0.815,-0.289 0.073,-0.046 0.053,-0.067 0.048,-0.102 z"
     id="path8"
     inkscape:connector-curvature="0"
     style="fill:#292f33" />
  <path
     d="m 1.738,35.314139 -0.409,-0.288 c 0.008,-0.012 0.823,-1.149 2.439,-0.666 0.091,-0.126 0.23,-0.324 0.363,-0.544 l 0.428,0.26 c -0.24,0.396 -0.491,0.718 -0.501,0.731 l -0.111,0.142 -0.17,-0.061 c -1.366,-0.488 -2.012,0.388 -2.039,0.426 z"
     id="path10"
     inkscape:connector-curvature="0"
     style="fill:#4b545d" />
  <path
     d="m 21.096,1.7241395 c -0.19,-0.089 -0.279,0.102 -0.279,0.102 l -0.378,0.812 c 0.007,-0.014 -0.083,-0.071 -0.077,-0.082 l 0.56,-1.201 c 0,0 0.089,-0.19 -0.102,-0.279 -0.191,-0.089 -0.279,0.102 -0.279,0.102 l -0.054,0.115 -0.472,1.013 c 10e-4,-0.003 -0.093,-0.049 -0.092,-0.051 l 0.622,-1.33600001 c 0,0 0.089,-0.19 -0.102,-0.279 -0.19,-0.089 -0.279,0.102 -0.279,0.102 L 19.542,2.0781395 c -0.001,0.002 -0.097,-0.039 -0.099,-0.036 l 0.515,-1.10600001 c 0,0 0.089,-0.19 -0.102,-0.279 -0.19,-0.089 -0.279,0.102 -0.279,0.102 L 18.875,2.2661395 c -0.048,0.103 -0.139,0.105 -0.179,0.078 -0.106,-0.072 -0.05,-0.26 -0.079,-0.424 -0.045,-0.25 -0.196,-0.415 -0.355,-0.418 -0.176,-0.003 -0.206,0.138 -0.192,0.187 0.028,0.095 0.073,0.254 0.126,0.506 0.037,0.177 -0.017,0.324 -0.017,0.324 -0.023,0.072 -0.085,0.318 -0.038,0.604 0.028,0.169 0.092,0.352 0.205,0.52 l -0.332,0.714 1.507,0.659 0.366,-0.956 c 0.267,-0.119 0.5,-0.319 0.633,-0.604 l 0.044,-0.095 0.631,-1.355 c 0.003,-0.004 0.091,-0.194 -0.099,-0.282 z"
     id="path12"
     inkscape:connector-curvature="0"
     style="fill:#d4ab88" />
  <path
     d="m 18.786,2.3511395 c 0.04,-0.012 0.06,-0.036 0.075,-0.058 0.168,0.108 0.389,0.272 0.491,0.543 0.132,0.351 0.054,0.627 -0.028,0.798 -0.066,0.138 -0.172,0.168 -0.099,-0.047 0.092,-0.27 0.143,-0.866 -0.455,-1.205 l -0.055,-0.03 c 0.001,0 0.037,0.009 0.071,-10e-4 z"
     id="path14"
     inkscape:connector-curvature="0"
     style="fill:#b78b60" />
  <path
     d="m 3.835,20.281139 c -0.076,-0.064 -0.202,-0.171 -0.385,-0.352 -0.129,-0.128 -0.165,-0.279 -0.165,-0.279 -0.021,-0.073 -0.105,-0.312 -0.303,-0.524 -0.117,-0.126 -0.271,-0.243 -0.459,-0.319 l -0.116,-0.779 -1.62,0.284 0.224,0.999 c -0.156,0.247 -0.24,0.542 -0.193,0.854 l 0.016,0.104 0.224,1.478 c 0,0 0.031,0.207 0.239,0.176 0.208,-0.031 0.176,-0.239 0.176,-0.239 l -0.135,-0.886 c 0.002,0.015 0.108,0.013 0.11,0.026 l 0.198,1.31 c 0,0 0.031,0.207 0.239,0.176 0.207,-0.031 0.176,-0.239 0.176,-0.239 l -0.019,-0.126 -0.167,-1.105 c 0,0.003 0.104,-0.01 0.105,-0.009 l 0.221,1.457 c 0,0 0.031,0.207 0.239,0.176 0.207,-0.031 0.176,-0.239 0.176,-0.239 l -0.22,-1.457 c 0,-0.002 0.103,-0.021 0.102,-0.024 l 0.182,1.206 c 0,0 0.031,0.207 0.239,0.176 0.207,-0.031 0.176,-0.239 0.176,-0.239 l -0.249,-1.644 c -0.017,-0.112 0.057,-0.165 0.106,-0.164 0.128,10e-4 0.185,0.189 0.3,0.309 0.176,0.183 0.393,0.237 0.527,0.152 0.148,-0.092 0.095,-0.227 0.056,-0.259 z"
     id="path16"
     inkscape:connector-curvature="0"
     style="fill:#d4ab88" />
  <path
     d="m 18.252,3.6371395 c 0,0 -2.059,4.321 -2.302,4.461 -0.219,0.126 -1.719,-0.042 -3.699,0.354 -1.979,0.396 -2.744,-0.155 -4.769,-0.075 -1.176,0.046 -2.413,0.452 -3.227,0.648 -1.237,0.299 -3.276,3.2369995 -3.848,4.2599995 -0.443,0.791 -0.421,1.68 -0.327,2.372 0.078,0.578 0.058,1.486 0.82,3.41 l 1.719,-0.281 c 0,0 -0.289,-3.783 -0.043,-4.192 0.102,-0.169 1.323,-2.119 2.303,-2.473 l 8.188,-0.385 c 0,0 3.375,-0.485 4.302,-1.167 0.708,-0.521 2.497,-6.2509995 2.497,-6.2509995 l -1.614,-0.681 z"
     id="path18"
     inkscape:connector-curvature="0"
     style="fill:#292f33" />
  <path
     d="m 7.984,5.7651395 c 0.175,-0.172 0.407,-0.289 0.671,-0.314 0.613,-0.064 1.16,0.383 1.222,0.997 l 0.319,3.153 c 0.061,0.6109995 -0.384,1.1599995 -0.997,1.2209995 -0.615,0.063 -1.161,-0.384 -1.222,-0.9969995 l -0.32,-3.153 c -0.035,-0.35 0.095,-0.676 0.327,-0.907 z"
     id="path20"
     inkscape:connector-curvature="0"
     style="fill:#d4ab88" />
  <path
     d="m 11.681,4.2041395 c 0,1.849 -1.309,3.348 -2.927,3.348 -1.618,0 -2.929,-1.499 -2.929,-3.348 0,-1.848 1.311,-3.34700001 2.929,-3.34700001 1.618,0 2.927,1.49900001 2.927,3.34700001 z"
     id="path22"
     inkscape:connector-curvature="0"
     style="fill:#d4ab88" />
  <path
     d="m 10.328,1.9261395 c 0,0 -1.14,1.07 -2.349,1.255 0,0 -0.723,1.171 -0.768,1.847 0,0 -0.45,-1.081 -0.81,-0.9 -0.36,0.18 -0.496,0.855 -0.18,1.305 0.315,0.451 0.705,1.226 0.363,1.003 -0.689,-0.45 -0.79,-0.768 -0.976,-1.07 -0.127,-0.206 -0.425,-0.943 -0.465,-2.162 -0.024,-0.721 0.232,-2.116 1.707,-2.85700001 1.278,-0.644 3.287,-0.315 4.231,0.359 0.945,0.67600001 1.18,2.38000001 0.594,3.05600001 0,0 -0.085,-0.63 -0.488,-1.14 -0.226,-0.283 -0.859,-0.696 -0.859,-0.696 z"
     id="path24"
     inkscape:connector-curvature="0"
     style="fill:#963b22" />
  <path
     d="m 4.845,9.3821395 0,9.2529995 7.083,-0.024 c 0,0 0.625,-2.703 1.034,-4.549 0.474,-2.135 -1.079,-5.3919995 -1.079,-5.3919995 l -1.082,-0.108 -0.212,-1.011 -1.056,0.4 -0.151,1.751 -0.456,-1.666 -1.548,-0.135 -0.184,1.067 -2.349,0.414 z"
     id="path26"
     inkscape:connector-curvature="0"
     style="fill:#dd2e44" />
  <path
     d="m 4.219,9.5011395 c 0,0 0.688,2.4429995 0.385,7.4999995 2.228,-0.038 3.963,-0.732 3.963,-0.732 0,0 0.146,-1.919 -0.228,-3.615 -0.546,-2.469 -1.105,-3.9209995 -1.105,-3.9209995 l -3.015,0.768 z m 6.516,-1.246 c 0,0 0.623,3.2709995 0.484,5.2239995 -0.14,1.953 -0.235,2.694 -0.235,2.694 0,0 0.441,0.486 1.57,0.466 0.467,-1.222 0.752,-3.679 0.695,-5.183 C 13.19,9.8711395 12.247,8.3291395 12.247,8.3291395 l -1.512,-0.074 z M 4.845,18.635139 c 0,0 -0.607,6.995 -0.982,8.307 -0.334,1.168 -3.799,6.742 -3.799,6.742 0,0 1.646,0.406 3.229,0.094 0,0 3.163,-3.836 3.99,-5.688 0.24,-0.539 1.835,-5.521 1.835,-5.521 0,0 1.712,1.908 2.863,3.599 0.728,2.003 0.09,7.442 0.09,7.442 0,0 1.483,0.312 2.899,0.042 0,0 0.859,-5.397 0.651,-7.688 -0.033,-0.367 -0.103,-1.05 -0.245,-1.309 -0.619,-1.123 -1.963,-3.231 -2.822,-4.172 -0.774,-0.847 -0.625,-1.873 -0.625,-1.873 l -7.084,0.025 z"
     id="path28"
     inkscape:connector-curvature="0"
     style="fill:#292f33" />
</svg>
