<?xml version="1.0" encoding="UTF-8" standalone="no"?>
<svg
   xmlns:dc="http://purl.org/dc/elements/1.1/"
   xmlns:cc="http://creativecommons.org/ns#"
   xmlns:rdf="http://www.w3.org/1999/02/22-rdf-syntax-ns#"
   xmlns:svg="http://www.w3.org/2000/svg"
   xmlns="http://www.w3.org/2000/svg"
   xmlns:sodipodi="http://sodipodi.sourceforge.net/DTD/sodipodi-0.dtd"
   xmlns:inkscape="http://www.inkscape.org/namespaces/inkscape"
   viewBox="0 0 32 34"
   id="svg2"
   version="1.1"
   inkscape:version="0.91 r13725"
   sodipodi:docname="1f579.svg"
   width="32"
   height="34">
  <metadata
     id="metadata22">
    <rdf:RDF>
      <cc:Work
         rdf:about="">
        <dc:format>image/svg+xml</dc:format>
        <dc:type
           rdf:resource="http://purl.org/dc/dcmitype/StillImage" />
      </cc:Work>
    </rdf:RDF>
  </metadata>
  <defs
     id="defs20" />
  <sodipodi:namedview
     pagecolor="#ffffff"
     bordercolor="#666666"
     borderopacity="1"
     objecttolerance="10"
     gridtolerance="10"
     guidetolerance="10"
     inkscape:pageopacity="0"
     inkscape:pageshadow="2"
     inkscape:window-width="640"
     inkscape:window-height="480"
     id="namedview18"
     showgrid="false"
     inkscape:zoom="6.5555556"
     inkscape:cx="16"
     inkscape:cy="18"
     inkscape:window-x="0"
     inkscape:window-y="0"
     inkscape:window-maximized="0"
     inkscape:current-layer="svg2" />
  <path
     d="m 14,7 4,0 0,17 -4,0 z"
     id="path4"
     inkscape:connector-curvature="0"
     style="fill:#99aab5" />
  <path
     d="M 8,22.5 C 8,23.328 7.328,24 6.5,24 l -3,0 C 2.672,24 2,23.328 2,22.5 2,21.672 2.672,21 3.5,21 l 3,0 C 7.328,21 8,21.672 8,22.5 Z"
     id="path6"
     inkscape:connector-curvature="0"
     style="fill:#da2f47" />
  <path
     d="m 32,31 c 0,1.104 -0.896,2 -2,2 L 2,33 C 0.896,33 0,32.104 0,31 l 0,-6 c 0,-1.104 0.896,-2 2,-2 l 28,0 c 1.104,0 2,0.896 2,2 l 0,6 z"
     id="path8"
     inkscape:connector-curvature="0"
     style="fill:#31373d" />
  <path
     d="M 8,32.5 C 8,33.328 7.329,34 6.5,34 l -3,0 C 2.671,34 2,33.328 2,32.5 2,31.672 2.671,31 3.5,31 l 3,0 C 7.329,31 8,31.672 8,32.5 Z m 22,0 c 0,0.828 -0.672,1.5 -1.5,1.5 l -3,0 C 24.672,34 24,33.328 24,32.5 24,31.672 24.672,31 25.5,31 l 3,0 c 0.828,0 1.5,0.672 1.5,1.5 z"
     id="path10"
     inkscape:connector-curvature="0"
     style="fill:#31373d" />
  <circle
     cx="16"
     cy="5"
     r="5"
     id="circle12"
     style="fill:#da2f47" />
  <path
     d="m 23,24 c 0,1.104 -0.896,2 -2,2 L 11,26 C 9.896,26 9,25.104 9,24 l 0,-1 c 0,-1.104 3.896,-6 5,-6 l 4,0 c 1.104,0 5,4.896 5,6 l 0,1 z"
     id="path14"
     inkscape:connector-curvature="0"
     style="fill:#31373d" />
  <path
     d="m 31,26 c 0,0.553 -0.447,1 -1,1 L 2,27 C 1.448,27 1,26.553 1,26 1,25.447 1.448,25 2,25 l 28,0 c 0.553,0 1,0.447 1,1 z"
     id="path16"
     inkscape:connector-curvature="0"
     style="fill:#66757f" />
</svg>
