<?xml version="1.0" encoding="UTF-8" standalone="no"?>
<svg
   xmlns:dc="http://purl.org/dc/elements/1.1/"
   xmlns:cc="http://creativecommons.org/ns#"
   xmlns:rdf="http://www.w3.org/1999/02/22-rdf-syntax-ns#"
   xmlns:svg="http://www.w3.org/2000/svg"
   xmlns="http://www.w3.org/2000/svg"
   xmlns:sodipodi="http://sodipodi.sourceforge.net/DTD/sodipodi-0.dtd"
   xmlns:inkscape="http://www.inkscape.org/namespaces/inkscape"
   viewBox="0 0 33.910999 10.992874"
   id="svg2"
   version="1.1"
   inkscape:version="0.91 r13725"
   sodipodi:docname="1f576.svg"
   width="33.910999"
   height="10.992874">
  <metadata
     id="metadata10">
    <rdf:RDF>
      <cc:Work
         rdf:about="">
        <dc:format>image/svg+xml</dc:format>
        <dc:type
           rdf:resource="http://purl.org/dc/dcmitype/StillImage" />
      </cc:Work>
    </rdf:RDF>
  </metadata>
  <defs
     id="defs8" />
  <sodipodi:namedview
     pagecolor="#ffffff"
     bordercolor="#666666"
     borderopacity="1"
     objecttolerance="10"
     gridtolerance="10"
     guidetolerance="10"
     inkscape:pageopacity="0"
     inkscape:pageshadow="2"
     inkscape:window-width="640"
     inkscape:window-height="480"
     id="namedview6"
     showgrid="false"
     inkscape:zoom="6.5555556"
     inkscape:cx="16.93925"
     inkscape:cy="5.9921689"
     inkscape:window-x="0"
     inkscape:window-y="0"
     inkscape:window-maximized="0"
     inkscape:current-layer="svg2" />
  <path
     d="m 0.17925,2.0187048 c 0.24,0.239 1.438,0.957 1.677,1.675 0.24,0.717 0.72,5.307 2.158,6.5040002 1.483,1.232 7.077,0.773 8.148,0.24 2.397,-1.1950002 2.691,-5.0550002 3.115,-6.7450002 0.239,-0.957 1.677,-0.957 1.677,-0.957 0,0 1.438,0 1.678,0.956 0.424,1.691 0.72,5.562 3.115,6.7550002 1.072,0.535 6.666,0.994 8.151,-0.238 1.436,-1.1970002 1.915,-5.7990002 2.155,-6.5170002 0.238,-0.717 1.438,-1.435 1.677,-1.674 0.241,-0.239 0.241,-1.19600002 0,-1.43600002 -0.479,-0.478 -6.134,-0.904 -12.223,-0.239 -1.215,0.133 -1.677,0.478 -4.554,0.478 -2.875,0 -3.339,-0.346 -4.553,-0.478 -6.085,-0.664 -11.741,-0.238 -12.221,0.24 -0.239,0.239 -0.239,1.19700002 0,1.43600002 z"
     id="path4"
     inkscape:connector-curvature="0"
     style="clip-rule:evenodd;fill:#31373d;fill-rule:evenodd" />
</svg>
