<?xml version="1.0" encoding="UTF-8" standalone="no"?>
<svg
   xmlns:dc="http://purl.org/dc/elements/1.1/"
   xmlns:cc="http://creativecommons.org/ns#"
   xmlns:rdf="http://www.w3.org/1999/02/22-rdf-syntax-ns#"
   xmlns:svg="http://www.w3.org/2000/svg"
   xmlns="http://www.w3.org/2000/svg"
   xmlns:sodipodi="http://sodipodi.sourceforge.net/DTD/sodipodi-0.dtd"
   xmlns:inkscape="http://www.inkscape.org/namespaces/inkscape"
   viewBox="0 0 30.000021 35"
   id="svg2"
   version="1.1"
   inkscape:version="0.91 r13725"
   sodipodi:docname="1f577.svg"
   width="30.000021"
   height="35">
  <metadata
     id="metadata28">
    <rdf:RDF>
      <cc:Work
         rdf:about="">
        <dc:format>image/svg+xml</dc:format>
        <dc:type
           rdf:resource="http://purl.org/dc/dcmitype/StillImage" />
      </cc:Work>
    </rdf:RDF>
  </metadata>
  <defs
     id="defs26" />
  <sodipodi:namedview
     pagecolor="#ffffff"
     bordercolor="#666666"
     borderopacity="1"
     objecttolerance="10"
     gridtolerance="10"
     guidetolerance="10"
     inkscape:pageopacity="0"
     inkscape:pageshadow="2"
     inkscape:window-width="640"
     inkscape:window-height="480"
     id="namedview24"
     showgrid="false"
     inkscape:zoom="6.5555556"
     inkscape:cx="15.000245"
     inkscape:cy="18"
     inkscape:window-x="0"
     inkscape:window-y="0"
     inkscape:window-maximized="0"
     inkscape:current-layer="svg2" />
  <path
     d="m 11.999245,16 c -0.208,0 -0.419,-0.065 -0.599,-0.2 C 6.8632453,12.397 3.9592453,6.585 4.0002453,0.993 c 0.004,-0.553 0.412,-0.975 1.007,-0.993 0.553,0.004 0.997,0.455 0.993,1.007 -0.037,4.98 2.554,10.159 6.5999997,13.193 0.442,0.331 0.531,0.958 0.2,1.4 -0.196,0.262 -0.497,0.4 -0.801,0.4 z"
     id="path4"
     inkscape:connector-curvature="0"
     style="fill:#31373d" />
  <path
     d="m 13.000245,18 c -0.377,0 -9.2729997,-0.098 -12.91899971,-8.606 -0.218,-0.508 0.018,-1.096 0.525,-1.313 C 1.1142453,7.863 1.7022453,8.099 1.9192453,8.606 5.0522453,15.916 12.677245,16 13.000245,16 c 0.552,0 1,0.448 1,1 0,0.553 -0.448,1 -1,1 z"
     id="path6"
     inkscape:connector-curvature="0"
     style="fill:#31373d" />
  <path
     d="m 1.0002453,28 c -0.10400001,0 -0.21100001,-0.017 -0.31600001,-0.052 -0.524,-0.174 -0.807,-0.74 -0.632,-1.265 1.38800001,-4.164 4.71900001,-9.054 12.70999971,-8.692 0.102,0.005 0.183,0.009 0.238,0.009 0.552,0 1,0.447 1,1 0,0.553 -0.448,1 -1,1 -0.076,0 -0.187,-0.005 -0.328,-0.011 -5.4109997,-0.237 -9.0209997,2.222 -10.7229997,7.327 -0.14,0.419 -0.53,0.684 -0.949,0.684 z"
     id="path8"
     inkscape:connector-curvature="0"
     style="fill:#31373d" />
  <path
     d="m 5.0002453,35 c -0.552,0 -1,-0.447 -1,-1 0,-4.495 3.228,-12.703 8.4849997,-15.857 0.474,-0.284 1.088,-0.131 1.372,0.343 0.284,0.474 0.131,1.088 -0.343,1.372 C 8.9972453,22.568 6.0002453,30.165 6.0002453,34 c 0,0.553 -0.448,1 -1,1 z M 18.001245,16 c -0.305,0 -0.604,-0.138 -0.801,-0.4 -0.332,-0.442 -0.242,-1.069 0.2,-1.4 4.046,-3.035 6.637,-8.213 6.6,-13.193 -0.004,-0.552 0.44,-1.003 0.992,-1.007 l 0.008,0 c 0.549,0 0.996,0.443 1,0.993 0.042,5.592 -2.863,11.404 -7.4,14.807 -0.18,0.135 -0.39,0.2 -0.599,0.2 z"
     id="path10"
     inkscape:connector-curvature="0"
     style="fill:#31373d" />
  <path
     d="m 17.000245,18 c -0.553,0 -1,-0.447 -1,-1 0,-0.552 0.447,-1 1,-1 0.323,0 7.948,-0.084 11.081,-7.394 0.218,-0.507 0.808,-0.742 1.312,-0.525 0.508,0.217 0.743,0.805 0.525,1.313 -3.646,8.508 -12.541,8.606 -12.918,8.606 z"
     id="path12"
     inkscape:connector-curvature="0"
     style="fill:#31373d" />
  <path
     d="m 29.000245,28 c -0.419,0 -0.809,-0.265 -0.948,-0.684 -1.702,-5.105 -5.293,-7.559 -10.724,-7.327 -0.141,0.006 -0.252,0.011 -0.328,0.011 -0.553,0 -1,-0.447 -1,-1 0,-0.553 0.447,-1 1,-1 0.055,0 0.136,-0.004 0.238,-0.009 7.979,-0.36 11.323,4.528 12.71,8.692 0.175,0.524 -0.108,1.091 -0.632,1.265 -0.105,0.035 -0.212,0.052 -0.316,0.052 z"
     id="path14"
     inkscape:connector-curvature="0"
     style="fill:#31373d" />
  <path
     d="m 25.000245,35 c -0.553,0 -1,-0.447 -1,-1 0,-3.835 -2.997,-11.432 -7.515,-14.143 -0.474,-0.284 -0.627,-0.898 -0.343,-1.372 0.284,-0.473 0.897,-0.627 1.372,-0.343 5.257,3.155 8.486,11.363 8.486,15.858 0,0.553 -0.447,1 -1,1 z"
     id="path16"
     inkscape:connector-curvature="0"
     style="fill:#31373d" />
  <ellipse
     cx="15.000245"
     cy="24.208"
     rx="6"
     ry="6.7919998"
     id="ellipse18"
     style="fill:#31373d" />
  <ellipse
     cx="15.000245"
     cy="16"
     rx="4"
     ry="6"
     id="ellipse20"
     style="fill:#31373d" />
  <path
     d="m 13.000245,13 c -0.256,0 -0.512,-0.098 -0.707,-0.293 -1.293,-1.293 -1.293,-2.631 -1.293,-3.707 0,-0.552 0.448,-1 1,-1 0.552,0 1,0.448 1,1 0,0.92 0,1.586 0.707,2.293 0.391,0.391 0.391,1.023 0,1.414 -0.195,0.195 -0.451,0.293 -0.707,0.293 z m 4,0 c -0.256,0 -0.512,-0.098 -0.707,-0.293 -0.391,-0.391 -0.391,-1.023 0,-1.414 0.707,-0.707 0.707,-1.373 0.707,-2.293 0,-0.552 0.447,-1 1,-1 0.553,0 1,0.448 1,1 0,1.076 0,2.414 -1.293,3.707 -0.195,0.195 -0.451,0.293 -0.707,0.293 z"
     id="path22"
     inkscape:connector-curvature="0"
     style="fill:#31373d" />
</svg>
