<?xml version="1.0" encoding="UTF-8" standalone="no"?>
<svg
   xmlns:dc="http://purl.org/dc/elements/1.1/"
   xmlns:cc="http://creativecommons.org/ns#"
   xmlns:rdf="http://www.w3.org/1999/02/22-rdf-syntax-ns#"
   xmlns:svg="http://www.w3.org/2000/svg"
   xmlns="http://www.w3.org/2000/svg"
   xmlns:sodipodi="http://sodipodi.sourceforge.net/DTD/sodipodi-0.dtd"
   xmlns:inkscape="http://www.inkscape.org/namespaces/inkscape"
   viewBox="0 0 36 28"
   id="svg2"
   version="1.1"
   inkscape:version="0.91 r13725"
   sodipodi:docname="1f570.svg"
   width="36"
   height="28">
  <metadata
     id="metadata24">
    <rdf:RDF>
      <cc:Work
         rdf:about="">
        <dc:format>image/svg+xml</dc:format>
        <dc:type
           rdf:resource="http://purl.org/dc/dcmitype/StillImage" />
      </cc:Work>
    </rdf:RDF>
  </metadata>
  <defs
     id="defs22" />
  <sodipodi:namedview
     pagecolor="#ffffff"
     bordercolor="#666666"
     borderopacity="1"
     objecttolerance="10"
     gridtolerance="10"
     guidetolerance="10"
     inkscape:pageopacity="0"
     inkscape:pageshadow="2"
     inkscape:window-width="640"
     inkscape:window-height="480"
     id="namedview20"
     showgrid="false"
     inkscape:zoom="6.5555556"
     inkscape:cx="18"
     inkscape:cy="18"
     inkscape:window-x="0"
     inkscape:window-y="0"
     inkscape:window-maximized="0"
     inkscape:current-layer="svg2" />
  <path
     d="m 2,21 -1,6 8,0 c 0,0 1,-2 3,-2 l 6,0 0,-4 -16,0 z m 32,0 1,6 -8,0 c 0,0 -1,-2 -3,-2 l -6,0 0,-4 16,0 z M 6,12 c 0,1 0,8 -4,8 l 8,1 -4,-9 z m 24,0 c 0,1 0,8 4,8 l -8,1 4,-9 z"
     id="path4"
     inkscape:connector-curvature="0"
     style="fill:#662113" />
  <path
     d="M 30,12 C 30,18.628 24.627,24 18,24 11.373,24 6,18.628 6,12 6,5.373 11.373,0 18,0 24.627,0 30,5.373 30,12 Z"
     id="path6"
     inkscape:connector-curvature="0"
     style="fill:#662113" />
  <path
     d="m 10,27 c 0,0.553 -0.448,1 -1,1 L 1,28 C 0.448,28 0,27.553 0,27 0,26.447 0.448,26 1,26 l 8,0 c 0.552,0 1,0.447 1,1 z m 26,0 c 0,0.553 -0.447,1 -1,1 l -8,0 c -0.553,0 -1,-0.447 -1,-1 0,-0.553 0.447,-1 1,-1 l 8,0 c 0.553,0 1,0.447 1,1 z m -1,-6 c 0,0.553 -0.447,1 -1,1 L 2,22 C 1.448,22 1,21.553 1,21 1,20.447 1.448,20 2,20 l 32,0 c 0.553,0 1,0.447 1,1 z"
     id="path8"
     inkscape:connector-curvature="0"
     style="fill:#a0041e" />
  <path
     d="m 27,12 c 0,4.971 -4.03,9 -9,9 -4.971,0 -9,-4.029 -9,-9 0,-4.97 4.029,-9 9,-9 4.97,0 9,4.03 9,9 z"
     id="path10"
     inkscape:connector-curvature="0"
     style="fill:#ffac33" />
  <path
     d="m 26,12 c 0,4.418 -3.582,8 -8,8 -4.418,0 -8,-3.582 -8,-8 0,-4.418 3.582,-8 8,-8 4.418,0 8,3.582 8,8 z"
     id="path12"
     inkscape:connector-curvature="0"
     style="fill:#f5f8fa" />
  <path
     d="m 18,12 c 0,0 -0.119,1 -1.5,1 -1.381,0 -3.5,-1 -3.5,-1 0,0 2.119,-1 3.5,-1 1.381,0 1.5,1 1.5,1 z"
     id="path14"
     inkscape:connector-curvature="0"
     style="fill:#c1694f" />
  <path
     d="M 19,8.5 C 19,10.433 18.552,12 18,12 17.448,12 17,10.434 17,8.5 17,6.566 18,5.001 18,5.001 18,5 19,6.567 19,8.5 Z"
     id="path16"
     inkscape:connector-curvature="0"
     style="fill:#c1694f" />
  <circle
     cx="18"
     cy="12"
     r="0.58600003"
     id="circle18"
     style="fill:#662113" />
</svg>
