<?xml version="1.0" encoding="UTF-8" standalone="no"?>
<svg
   xmlns:dc="http://purl.org/dc/elements/1.1/"
   xmlns:cc="http://creativecommons.org/ns#"
   xmlns:rdf="http://www.w3.org/1999/02/22-rdf-syntax-ns#"
   xmlns:svg="http://www.w3.org/2000/svg"
   xmlns="http://www.w3.org/2000/svg"
   xmlns:sodipodi="http://sodipodi.sourceforge.net/DTD/sodipodi-0.dtd"
   xmlns:inkscape="http://www.inkscape.org/namespaces/inkscape"
   viewBox="0 0 34.59679 35.361271"
   id="svg2"
   version="1.1"
   inkscape:version="0.91 r13725"
   sodipodi:docname="1f58a.svg"
   width="34.59679"
   height="35.361271">
  <metadata
     id="metadata20">
    <rdf:RDF>
      <cc:Work
         rdf:about="">
        <dc:format>image/svg+xml</dc:format>
        <dc:type
           rdf:resource="http://purl.org/dc/dcmitype/StillImage" />
      </cc:Work>
    </rdf:RDF>
  </metadata>
  <defs
     id="defs18" />
  <sodipodi:namedview
     pagecolor="#ffffff"
     bordercolor="#666666"
     borderopacity="1"
     objecttolerance="10"
     gridtolerance="10"
     guidetolerance="10"
     inkscape:pageopacity="0"
     inkscape:pageshadow="2"
     inkscape:window-width="640"
     inkscape:window-height="480"
     id="namedview16"
     showgrid="false"
     inkscape:zoom="6.5555556"
     inkscape:cx="17.99944"
     inkscape:cy="17.999488"
     inkscape:window-x="0"
     inkscape:window-y="0"
     inkscape:window-maximized="0"
     inkscape:current-layer="svg2" />
  <path
     d="m 3.96744,32.807782 c -1.757,1.758 -3.498,2.866 -3.889,2.475 -0.391,-0.391 0.718,-2.132 2.475,-3.889 1.757,-1.758 3.498,-2.866 3.889,-2.475 0.39,0.391 -0.718,2.131 -2.475,3.889 z"
     id="path4"
     inkscape:connector-curvature="0"
     style="fill:#c1694f" />
  <path
     d="m 6.44244,28.919782 -2.122,-2.122 c 0,0 -1.083,1.393 -2.284,3.63 -0.9,1.676 -1.251,2.734 -1.251,2.734 l 0.707,0.707 0.707,0.707 c 0,0 1.059,-0.352 2.734,-1.251 2.237,-1.201 3.629,-2.284 3.629,-2.284 l -2.12,-2.121 z"
     id="path6"
     inkscape:connector-curvature="0"
     style="fill:#ffcc4d" />
  <path
     d="m 34.01944,1.3417822 c -3.535,-3.536 -18.164,10.2969998 -18.871,11.0039998 -0.707,0.707 -1.304,1.348 -0.928,1.724 l -2.121,2.121 c -2.122,2.122 -8.486,9.899 -7.779,10.606 l 2.122,2.122 2.121,2.121 c 0.707,0.707 8.485,-5.657 10.607,-7.778 l 2.121,-2.121 c 0.376,0.376 1.017,-0.222 1.724,-0.929 0.707,-0.706 14.54,-15.3339998 11.004,-18.8699998 z"
     id="path8"
     inkscape:connector-curvature="0"
     style="fill:#31373d" />
  <path
     d="m 23.01544,20.212782 c 0.085,-0.084 0.362,-0.375 0.774,-0.817 l -7.823,-7.822 c -0.442,0.411 -0.732,0.689 -0.817,0.774 -0.707,0.707 -1.304,1.348 -0.928,1.724 l 3.535,3.536 3.536,3.535 c 0.375,0.374 1.016,-0.223 1.723,-0.93 z"
     id="path10"
     inkscape:connector-curvature="0"
     style="fill:#ffcc4d" />
  <path
     d="m 31.21144,1.3627822 c -0.927,-0.92700003 -2.164,-1.89900003 -3.932,-1.01500003 -1.768,0.88400003 -7.313,4.44100003 -9.878,7.00500003 -1.322,1.322 -1.247,2.102 -0.751,2.165 0.821,0.106 1.37,0.088 2.122,-0.663 0.75,-0.751 0.883,-2.033 0.883,-2.033 0,0 3.05,-2.342 5.458,-3.778 2.409,-1.437 3.268,-1.682 4.11,-0.84 0.842,0.842 1.988,-0.841 1.988,-0.841 z"
     id="path12"
     inkscape:connector-curvature="0"
     style="fill:#ffac33" />
  <path
     d="m 28.86944,1.8487822 4.643,4.643 c 0.353,-0.709 0.631,-1.384 0.818,-2.011 l -3.45,-3.45 c -0.627,0.188 -1.301,0.466 -2.011,0.818 z"
     id="path14"
     inkscape:connector-curvature="0"
     style="fill:#ffac33" />
</svg>
