<?xml version="1.0" encoding="UTF-8" standalone="no"?>
<svg
   xmlns:dc="http://purl.org/dc/elements/1.1/"
   xmlns:cc="http://creativecommons.org/ns#"
   xmlns:rdf="http://www.w3.org/1999/02/22-rdf-syntax-ns#"
   xmlns:svg="http://www.w3.org/2000/svg"
   xmlns="http://www.w3.org/2000/svg"
   xmlns:sodipodi="http://sodipodi.sourceforge.net/DTD/sodipodi-0.dtd"
   xmlns:inkscape="http://www.inkscape.org/namespaces/inkscape"
   viewBox="0 0 35.999748 35.999748"
   id="svg2"
   version="1.1"
   inkscape:version="0.91 r13725"
   sodipodi:docname="1f58d.svg"
   width="35.999748"
   height="35.999748">
  <metadata
     id="metadata16">
    <rdf:RDF>
      <cc:Work
         rdf:about="">
        <dc:format>image/svg+xml</dc:format>
        <dc:type
           rdf:resource="http://purl.org/dc/dcmitype/StillImage" />
      </cc:Work>
    </rdf:RDF>
  </metadata>
  <defs
     id="defs14" />
  <sodipodi:namedview
     pagecolor="#ffffff"
     bordercolor="#666666"
     borderopacity="1"
     objecttolerance="10"
     gridtolerance="10"
     guidetolerance="10"
     inkscape:pageopacity="0"
     inkscape:pageshadow="2"
     inkscape:window-width="640"
     inkscape:window-height="480"
     id="namedview12"
     showgrid="false"
     inkscape:zoom="6.5555556"
     inkscape:cx="18"
     inkscape:cy="18"
     inkscape:window-x="0"
     inkscape:window-y="0"
     inkscape:window-maximized="0"
     inkscape:current-layer="svg2" />
  <path
     d="m 35.702,7.47675 -7.18,-7.179 c -0.396,-0.397 -1.038,-0.397 -1.436,0 l -23.691,23.691 c -0.397,0.397 -0.397,1.038 0,1.437 0.72,0.719 -3.14,7.959 -3.395,8.496 l 2.068,2.078 c 0.536,-0.255 7.785,-4.115 8.506,-3.395 0.397,0.397 1.039,0.397 1.436,0 l 23.692,-23.692 c 0.397,-0.396 0.397,-1.039 0,-1.436 z"
     id="path4"
     inkscape:connector-curvature="0"
     style="fill:#dd2e44" />
  <path
     d="m 4.139,23.23975 22.268,-22.268 8.62,8.62 -22.268,22.268 z"
     id="path6"
     inkscape:connector-curvature="0"
     style="fill:#ea596e" />
  <path
     d="m 23.534,3.84575 1.437,-1.436 8.62,8.62 -1.437,1.436 z m -17.958,17.957 1.436,-1.437 8.62,8.62 -1.437,1.437 z"
     id="path8"
     inkscape:connector-curvature="0"
     style="fill:#292f33" />
  <path
     d="m 26.886,9.35275 c -1.521,-1.521 -5.982,0.476 -9.967,4.459 -3.983,3.984 -5.979,8.446 -4.459,9.967 1.52,1.521 5.983,-0.476 9.967,-4.459 3.983,-3.984 5.979,-8.447 4.459,-9.967 z"
     id="path10"
     inkscape:connector-curvature="0"
     style="fill:#be1931" />
</svg>
