<?xml version="1.0" encoding="UTF-8" standalone="no"?>
<svg
   xmlns:dc="http://purl.org/dc/elements/1.1/"
   xmlns:cc="http://creativecommons.org/ns#"
   xmlns:rdf="http://www.w3.org/1999/02/22-rdf-syntax-ns#"
   xmlns:svg="http://www.w3.org/2000/svg"
   xmlns="http://www.w3.org/2000/svg"
   xmlns:sodipodi="http://sodipodi.sourceforge.net/DTD/sodipodi-0.dtd"
   xmlns:inkscape="http://www.inkscape.org/namespaces/inkscape"
   viewBox="0 0 32 36"
   id="svg2"
   version="1.1"
   inkscape:version="0.91 r13725"
   sodipodi:docname="1f5a8.svg"
   width="32"
   height="36">
  <metadata
     id="metadata26">
    <rdf:RDF>
      <cc:Work
         rdf:about="">
        <dc:format>image/svg+xml</dc:format>
        <dc:type
           rdf:resource="http://purl.org/dc/dcmitype/StillImage" />
      </cc:Work>
    </rdf:RDF>
  </metadata>
  <defs
     id="defs24" />
  <sodipodi:namedview
     pagecolor="#ffffff"
     bordercolor="#666666"
     borderopacity="1"
     objecttolerance="10"
     gridtolerance="10"
     guidetolerance="10"
     inkscape:pageopacity="0"
     inkscape:pageshadow="2"
     inkscape:window-width="640"
     inkscape:window-height="480"
     id="namedview22"
     showgrid="false"
     inkscape:zoom="6.5555556"
     inkscape:cx="16"
     inkscape:cy="18"
     inkscape:window-x="0"
     inkscape:window-y="0"
     inkscape:window-maximized="0"
     inkscape:current-layer="svg2" />
  <path
     d="M 28,12 4,12 4,5 C 4,3.895 4.826,3 5.846,3 L 26.155,3 C 27.173,3 28,3.895 28,5 l 0,7 z m 0,19 c 0,1.104 -0.896,2 -2,2 L 6,33 C 4.896,33 4,32.104 4,31 l 0,-3 24,0 0,3 z"
     id="path4"
     inkscape:connector-curvature="0"
     style="fill:#67757f" />
  <path
     d="M 25,12 7,12 7,2 C 7,0.895 7.896,0 9,0 l 14,0 c 1.104,0 2,0.896 2,2 l 0,10 z"
     id="path6"
     inkscape:connector-curvature="0"
     style="fill:#e1e8ed" />
  <path
     d="m 32,25 c 0,1 -1,3 -3,3 L 3,28 C 1,28 0,26 0,25 l 0,-9 c 0,-2.209 1.791,-4 4,-4 l 24,0 c 2.209,0 4,1.791 4,4 l 0,9 z"
     id="path8"
     inkscape:connector-curvature="0"
     style="fill:#5dadec" />
  <path
     d="m 28,25 c 0,-1.104 -0.978,-2 -2.182,-2 L 6.182,23 C 4.977,23 4,23.896 4,25 l 0,4 24,0 0,-4 z"
     id="path10"
     inkscape:connector-curvature="0"
     style="fill:#292f33" />
  <path
     d="m 28,15 c 0,1.104 -0.896,2 -2,2 L 6,17 C 4.896,17 4,16.104 4,15 l 0,-4 24,0 0,4 z"
     id="path12"
     inkscape:connector-curvature="0"
     style="fill:#4289c1" />
  <path
     d="m 25,34 c 0,1.104 -0.896,2 -2,2 L 9,36 C 7.896,36 7,35.104 7,34 l 0,-8 18,0 0,8 z"
     id="path14"
     inkscape:connector-curvature="0"
     style="fill:#e1e8ed" />
  <path
     d="m 23,29 c 0,0.553 -0.447,1 -1,1 L 10,30 C 9.448,30 9,29.553 9,29 9,28.447 9.448,28 10,28 l 12,0 c 0.553,0 1,0.447 1,1 z"
     id="path16"
     inkscape:connector-curvature="0"
     style="fill:#9aaab4" />
  <circle
     cx="28.5"
     cy="19.5"
     r="1.5"
     id="circle18"
     style="fill:#f5f8fa" />
  <path
     d="m 23,32 c 0,0.553 -0.447,1 -1,1 L 10,33 C 9.448,33 9,32.553 9,32 9,31.447 9.448,31 10,31 l 12,0 c 0.553,0 1,0.447 1,1 z m -16,-7 18,0 0,2 -18,0 z"
     id="path20"
     inkscape:connector-curvature="0"
     style="fill:#9aaab4" />
</svg>
