<?xml version="1.0" encoding="UTF-8" standalone="no"?>
<svg
   xmlns:dc="http://purl.org/dc/elements/1.1/"
   xmlns:cc="http://creativecommons.org/ns#"
   xmlns:rdf="http://www.w3.org/1999/02/22-rdf-syntax-ns#"
   xmlns:svg="http://www.w3.org/2000/svg"
   xmlns="http://www.w3.org/2000/svg"
   xmlns:sodipodi="http://sodipodi.sourceforge.net/DTD/sodipodi-0.dtd"
   xmlns:inkscape="http://www.inkscape.org/namespaces/inkscape"
   viewBox="0 0 24 36"
   id="svg2"
   version="1.1"
   inkscape:version="0.91 r13725"
   sodipodi:docname="1f5b1.svg"
   width="24"
   height="36">
  <metadata
     id="metadata12">
    <rdf:RDF>
      <cc:Work
         rdf:about="">
        <dc:format>image/svg+xml</dc:format>
        <dc:type
           rdf:resource="http://purl.org/dc/dcmitype/StillImage" />
      </cc:Work>
    </rdf:RDF>
  </metadata>
  <defs
     id="defs10" />
  <sodipodi:namedview
     pagecolor="#ffffff"
     bordercolor="#666666"
     borderopacity="1"
     objecttolerance="10"
     gridtolerance="10"
     guidetolerance="10"
     inkscape:pageopacity="0"
     inkscape:pageshadow="2"
     inkscape:window-width="640"
     inkscape:window-height="480"
     id="namedview8"
     showgrid="false"
     inkscape:zoom="6.5555556"
     inkscape:cx="12"
     inkscape:cy="18"
     inkscape:window-x="0"
     inkscape:window-y="0"
     inkscape:window-maximized="0"
     inkscape:current-layer="svg2" />
  <path
     d="M 14,2.047 14,2 C 14,0.896 13.104,0 12,0 10.896,0 10,0.896 10,2 l 0,0.047 C 1.737,2.422 0,5.127 0,7 l 0,17 c 0,6.627 5.373,12 12,12 6.627,0 12,-5.373 12,-12 L 24,7 C 24,5.127 22.263,2.422 14,2.047 Z"
     id="path4"
     inkscape:connector-curvature="0"
     style="fill:#99aab5" />
  <path
     d="m 16,9.199 0,-7 C 15.378,2.133 14.712,2.083 14,2.048 L 14,9 c 0,1.104 -0.896,2 -2,2 -1.104,0 -2,-0.896 -2,-2 L 10,2.048 C 9.288,2.082 8.622,2.133 8,2.199 l 0,7 C 1.459,9.89 0,12.29 0,14 l 0,2 C 0,14.275 1.482,11.847 8.169,11.181 8.646,12.228 10.171,13 12,13 13.83,13 15.355,12.228 15.831,11.181 22.518,11.847 24,14.275 24,16 l 0,-2 C 24,12.29 22.541,9.89 16,9.199 Z"
     id="path6"
     inkscape:connector-curvature="0"
     style="fill:#292f33" />
</svg>
