<?xml version="1.0" encoding="UTF-8" standalone="no"?>
<svg
   xmlns:dc="http://purl.org/dc/elements/1.1/"
   xmlns:cc="http://creativecommons.org/ns#"
   xmlns:rdf="http://www.w3.org/1999/02/22-rdf-syntax-ns#"
   xmlns:svg="http://www.w3.org/2000/svg"
   xmlns="http://www.w3.org/2000/svg"
   xmlns:sodipodi="http://sodipodi.sourceforge.net/DTD/sodipodi-0.dtd"
   xmlns:inkscape="http://www.inkscape.org/namespaces/inkscape"
   viewBox="0 0 34 34"
   id="svg2"
   version="1.1"
   inkscape:version="0.91 r13725"
   sodipodi:docname="1f5c3.svg"
   width="34"
   height="34">
  <metadata
     id="metadata30">
    <rdf:RDF>
      <cc:Work
         rdf:about="">
        <dc:format>image/svg+xml</dc:format>
        <dc:type
           rdf:resource="http://purl.org/dc/dcmitype/StillImage" />
      </cc:Work>
    </rdf:RDF>
  </metadata>
  <defs
     id="defs28" />
  <sodipodi:namedview
     pagecolor="#ffffff"
     bordercolor="#666666"
     borderopacity="1"
     objecttolerance="10"
     gridtolerance="10"
     guidetolerance="10"
     inkscape:pageopacity="0"
     inkscape:pageshadow="2"
     inkscape:window-width="640"
     inkscape:window-height="480"
     id="namedview26"
     showgrid="false"
     inkscape:zoom="6.5555556"
     inkscape:cx="17"
     inkscape:cy="17"
     inkscape:window-x="0"
     inkscape:window-y="0"
     inkscape:window-maximized="0"
     inkscape:current-layer="svg2" />
  <path
     d="m 34,19 c 0,2.209 -1.791,2 -4,2 L 4,21 C 1.791,21 0,21.209 0,19 L 2,7 C 2.125,5.083 3.791,3 6,3 l 22,0 c 2.209,0 3.791,2.208 4,4 l 2,12 z"
     id="path4"
     inkscape:connector-curvature="0"
     style="fill:#67757f" />
  <path
     d="m 27,12 c 0,1.104 -0.896,2 -2,2 L 9,14 C 7.896,14 7,13.104 7,12 L 7,4 C 7,2.895 7.896,2 9,2 l 16,0 c 1.104,0 2,0.895 2,2 l 0,8 z"
     id="path6"
     inkscape:connector-curvature="0"
     style="fill:#ccd6dd" />
  <path
     d="m 29,16 c 0,1.104 -0.896,2 -2,2 L 7,18 C 5.896,18 5,17.104 5,16 L 5,8 C 5,6.896 5.896,6 7,6 l 20,0 c 1.104,0 2,0.896 2,2 l 0,8 z"
     id="path8"
     inkscape:connector-curvature="0"
     style="fill:#e1e8ed" />
  <path
     d="m 31,20 c 0,1.104 -0.896,2 -2,2 L 5,22 C 3.896,22 3,21.104 3,20 l 0,-8 c 0,-1.104 0.896,-2 2,-2 l 24,0 c 1.104,0 2,0.896 2,2 l 0,8 z"
     id="path10"
     inkscape:connector-curvature="0"
     style="fill:#f5f8fa" />
  <path
     d="m 34,30 c 0,2.209 -1.791,4 -4,4 L 4,34 C 1.791,34 0,32.209 0,30 L 0,19 c 0,-2.209 1.791,-4 4,-4 l 26,0 c 2.209,0 4,1.791 4,4 l 0,11 z"
     id="path12"
     inkscape:connector-curvature="0"
     style="fill:#9aaab4" />
  <path
     d="m 13,11 z m 0,0 z"
     id="path14"
     inkscape:connector-curvature="0"
     style="fill:#67757f" />
  <path
     d="m 21,0 -5,0 c -1.104,0 -2,0.895 -2,2 l 0,1 4,0 c 1.104,0 2,0.896 2,2 l 1,0 c 1.104,0 2,-0.896 2,-2 L 23,2 C 23,0.895 22.104,0 21,0 Z"
     id="path16"
     inkscape:connector-curvature="0"
     style="fill:#fcab40" />
  <path
     d="m 17,4 -5,0 c -1.104,0 -2,0.896 -2,2 l 0,1 4,0 c 1.104,0 2,0.896 2,2 l 1,0 c 1.104,0 2,-0.896 2,-2 L 19,6 C 19,4.896 18.104,4 17,4 Z"
     id="path18"
     inkscape:connector-curvature="0"
     style="fill:#5dadec" />
  <path
     d="m 15,11 c 0,1.104 -0.896,2 -2,2 L 8,13 C 6.896,13 6,12.104 6,11 L 6,10 C 6,8.896 6.896,8 8,8 l 5,0 c 1.104,0 2,0.896 2,2 l 0,1 z"
     id="path20"
     inkscape:connector-curvature="0"
     style="fill:#e75a70" />
  <path
     d="m 24,27 c 0,1.104 -0.896,2 -2,2 l -10,0 c -1.104,0 -2,-0.896 -2,-2 l 0,-5 c 0,-1.104 0.896,-2 2,-2 l 10,0 c 1.104,0 2,0.896 2,2 l 0,5 z M 13,23 Z"
     id="path22"
     inkscape:connector-curvature="0"
     style="fill:#67757f" />
  <path
     d="m 22,26 c 0,0.553 -0.447,1 -1,1 l -8,0 c -0.552,0 -1,-0.447 -1,-1 l 0,-3 c 0,-0.553 0.448,-1 1,-1 l 8,0 c 0.553,0 1,0.447 1,1 l 0,3 z"
     id="path24"
     inkscape:connector-curvature="0"
     style="fill:#e1e8ed" />
</svg>
