<?xml version="1.0" encoding="UTF-8" standalone="no"?>
<svg
   xmlns:dc="http://purl.org/dc/elements/1.1/"
   xmlns:cc="http://creativecommons.org/ns#"
   xmlns:rdf="http://www.w3.org/1999/02/22-rdf-syntax-ns#"
   xmlns:svg="http://www.w3.org/2000/svg"
   xmlns="http://www.w3.org/2000/svg"
   xmlns:sodipodi="http://sodipodi.sourceforge.net/DTD/sodipodi-0.dtd"
   xmlns:inkscape="http://www.inkscape.org/namespaces/inkscape"
   viewBox="0 0 35.375038 35.012772"
   id="svg2"
   version="1.1"
   inkscape:version="0.91 r13725"
   sodipodi:docname="1f5de.svg"
   width="35.375038"
   height="35.012772">
  <metadata
     id="metadata20">
    <rdf:RDF>
      <cc:Work
         rdf:about="">
        <dc:format>image/svg+xml</dc:format>
        <dc:type
           rdf:resource="http://purl.org/dc/dcmitype/StillImage" />
      </cc:Work>
    </rdf:RDF>
  </metadata>
  <defs
     id="defs18" />
  <sodipodi:namedview
     pagecolor="#ffffff"
     bordercolor="#666666"
     borderopacity="1"
     objecttolerance="10"
     gridtolerance="10"
     guidetolerance="10"
     inkscape:pageopacity="0"
     inkscape:pageshadow="2"
     inkscape:window-width="640"
     inkscape:window-height="480"
     id="namedview16"
     showgrid="false"
     inkscape:zoom="6.5555556"
     inkscape:cx="17.688263"
     inkscape:cy="17.585771"
     inkscape:window-x="0"
     inkscape:window-y="0"
     inkscape:window-maximized="0"
     inkscape:current-layer="svg2" />
  <path
     d="m 31.367263,4.151 c -0.082,-0.087 -0.159,-0.176 -0.244,-0.261 -2.928,-2.929 -6.886,-3.721 -8.838,-1.769 l -21.2140002,21.214 5.556,5.556 24.7400002,-24.74 z"
     id="path4"
     inkscape:connector-curvature="0"
     style="fill:#99aab5" />
  <path
     d="m 9.9102628,25.103 c -2.928,-2.929 -6.886,-3.721 -8.839,-1.768 -1.95300003,1.953 -1.16100003,5.91 1.768,8.838 2.929,2.93 6.886,3.721 8.8390002,1.769 1.952,-1.953 1.161,-5.91 -1.7680002,-8.839 z"
     id="path6"
     inkscape:connector-curvature="0"
     style="fill:#66757f" />
  <path
     d="m 31.368263,4.151 c 2.722,2.898 3.419,6.682 1.523,8.577 l -21.213,21.214 c 1.953,-1.953 1.161,-5.909 -1.7680002,-8.839 l -3.889,-3.889 L 27.234263,0 l 4.142,4.142 -0.008,0.009 z"
     id="path8"
     inkscape:connector-curvature="0"
     style="fill:#ccd6dd" />
  <path
     d="m 32.782263,2.737 c 2.722,2.898 3.42,6.682 1.523,8.577 l -21.213,21.213 c 1.953,-1.952 1.162,-5.909 -1.768,-8.838 L 8.8492628,21.214 30.062263,0 l 2.728,2.728 -0.008,0.009 z"
     id="path10"
     inkscape:connector-curvature="0"
     style="fill:#e1e8ed" />
  <path
     d="m 1.8982628,24.43 c -1.40200003,1.401 -0.838,4.371 1.281,6.759 1.916,2.158 4.947,4.008 7.1860002,2.123 0.762,-0.633 1.163,-1.607 1.147,-2.735 -0.028,-1.974 -1.298,-4.192 -3.3130002,-5.79 -0.324,-0.258 -0.788,-0.199 -1.054,0.121 -0.257,0.325 -0.203,0.797 0.122,1.054 1.647,1.305 2.724,3.126 2.7460002,4.638 0.007,0.474 -0.095,1.13 -0.6120002,1.566 -1.514,1.273 -3.917,-0.641 -5.099,-1.971 -1.676,-1.888 -2.053,-3.994 -1.343,-4.704 0.184,-0.184 0.412,-0.231 0.695,-0.147 0.877,0.262 2,1.662 2.534,4.205 0.085,0.406 0.483,0.666 0.889,0.581 0.405,-0.086 0.665,-0.483 0.579,-0.889 -0.589,-2.81 -1.958,-4.853 -3.573,-5.335 -0.813,-0.243 -1.609,-0.051 -2.185,0.524 z M 28.120263,3.713 c -0.02,0.019 -0.038,0.038 -0.055,0.06 -0.261,0.322 -0.209,0.794 0.112,1.054 0.031,0.024 3.1,2.539 3.257,5.816 0.021,0.413 0.373,0.732 0.785,0.712 0.415,-0.021 0.733,-0.372 0.714,-0.785 -0.19,-3.96 -3.668,-6.794 -3.816,-6.912 -0.301,-0.242 -0.731,-0.212 -0.997,0.055 z m -2.122,2.121 c -0.019,0.019 -0.037,0.038 -0.055,0.06 -0.26,0.322 -0.208,0.794 0.113,1.055 0.031,0.024 3.1,2.539 3.257,5.816 0.021,0.414 0.372,0.732 0.785,0.712 0.414,-0.021 0.732,-0.372 0.714,-0.785 -0.191,-3.96 -3.668,-6.794 -3.816,-6.912 -0.301,-0.243 -0.731,-0.213 -0.998,0.054 z m -8.486,8.486 c -0.018,0.019 -0.037,0.038 -0.054,0.059 -0.261,0.322 -0.209,0.794 0.112,1.055 0.031,0.024 3.1,2.539 3.257,5.816 0.021,0.413 0.372,0.733 0.785,0.712 0.414,-0.021 0.732,-0.372 0.714,-0.785 -0.191,-3.959 -3.668,-6.794 -3.816,-6.912 -0.301,-0.242 -0.73,-0.213 -0.998,0.055 z m -4.949,4.949 c -0.019,0.019 -0.038,0.039 -0.055,0.06 -0.26,0.322 -0.208,0.794 0.112,1.055 0.032,0.024 3.1,2.539 3.257,5.816 0.02,0.413 0.373,0.732 0.786,0.711 0.414,-0.02 0.732,-0.371 0.713,-0.785 -0.191,-3.959 -3.667,-6.793 -3.816,-6.912 -0.3,-0.241 -0.73,-0.213 -0.997,0.055 z"
     id="path12"
     inkscape:connector-curvature="0"
     style="fill:#99aab5" />
  <path
     d="m 24.463263,18.966 c 1.296,-1.348 3.49,-3.383 3.756,-3.661 0.613,-0.642 -1.541,-5.472 -3.302,-6.854 -0.386,-0.303 -0.859,-0.058 -1.062,0.15 -1.495,1.531 -2.683,2.719 -3.677,3.708 -0.231,0.231 -0.365,0.651 -0.039,0.952 1.067,0.984 2.986,3.424 3.528,5.663 0.064,0.261 0.528,0.323 0.796,0.042 z"
     id="path14"
     inkscape:connector-curvature="0"
     style="fill:#5dadec" />
</svg>
