<?xml version="1.0" encoding="UTF-8" standalone="no"?>
<svg
   xmlns:dc="http://purl.org/dc/elements/1.1/"
   xmlns:cc="http://creativecommons.org/ns#"
   xmlns:rdf="http://www.w3.org/1999/02/22-rdf-syntax-ns#"
   xmlns:svg="http://www.w3.org/2000/svg"
   xmlns="http://www.w3.org/2000/svg"
   xmlns:sodipodi="http://sodipodi.sourceforge.net/DTD/sodipodi-0.dtd"
   xmlns:inkscape="http://www.inkscape.org/namespaces/inkscape"
   viewBox="0 0 32 36"
   id="svg2"
   version="1.1"
   inkscape:version="0.91 r13725"
   sodipodi:docname="1f5dc.svg"
   width="32"
   height="36">
  <metadata
     id="metadata24">
    <rdf:RDF>
      <cc:Work
         rdf:about="">
        <dc:format>image/svg+xml</dc:format>
        <dc:type
           rdf:resource="http://purl.org/dc/dcmitype/StillImage" />
      </cc:Work>
    </rdf:RDF>
  </metadata>
  <defs
     id="defs22" />
  <sodipodi:namedview
     pagecolor="#ffffff"
     bordercolor="#666666"
     borderopacity="1"
     objecttolerance="10"
     gridtolerance="10"
     guidetolerance="10"
     inkscape:pageopacity="0"
     inkscape:pageshadow="2"
     inkscape:window-width="640"
     inkscape:window-height="480"
     id="namedview20"
     showgrid="false"
     inkscape:zoom="6.5555556"
     inkscape:cx="15"
     inkscape:cy="18"
     inkscape:window-x="0"
     inkscape:window-y="0"
     inkscape:window-maximized="0"
     inkscape:current-layer="svg2" />
  <circle
     cx="10"
     cy="33"
     r="3"
     id="circle4"
     style="fill:#67757f" />
  <circle
     cx="29"
     cy="33"
     r="3"
     id="circle6"
     style="fill:#67757f" />
  <path
     d="m 10,32 19,0 0,2 -19,0 z"
     id="path8"
     inkscape:connector-curvature="0"
     style="fill:#67757f" />
  <path
     d="m 17,15.502 c 0,-1.381 1.119,-1.5 2.5,-1.5 1.381,0 2.5,0.119 2.5,1.5 L 22,33.5 C 22,34.881 20.881,36 19.5,36 18.119,36 17,34.881 17,33.5 l 0,-17.998 z"
     id="path10"
     inkscape:connector-curvature="0"
     style="fill:#9aaab4" />
  <path
     d="m 24,15.002 c 0,1.104 -0.896,2 -2,2 l -5,0 c -1.104,0 -2,-0.896 -2,-2 0,-1.105 0.896,-1 2,-1 l 5,0 c 1.104,0 2,-0.104 2,1 z"
     id="path12"
     inkscape:connector-curvature="0"
     style="fill:#67757f" />
  <path
     d="m 25,27 c 0,1.104 -0.896,2 -2,2 l -7,0 c -1.104,0 -2,-0.896 -2,-2 l 0,-5 c 0,-1.104 0.896,-2 2,-2 l 7,0 c 1.104,0 2,0.896 2,2 l 0,5 z M 25,5 c 0,1.104 -0.896,2 -2,2 L 16,7 C 14.896,7 14,6.104 14,5 l 0,-1 c 0,-1.105 0.896,-2 2,-2 l 7,0 c 1.104,0 2,0.895 2,2 l 0,1 z"
     id="path14"
     inkscape:connector-curvature="0"
     style="fill:#da2f47" />
  <path
     d="M 10,22 C 8.896,22 8,21.104 8,20 L 8,7 C 8,5.896 8.896,5 10,5 L 25,5 25,4 C 25,1.791 23.209,0 21,0 L 4,0 C 1.791,0 0,1.791 0,4 l 0,19 c 0,2.209 1.791,4 4,4 l 14,0 c 2.209,0 4,-1.791 4,-4 l 0,-1 -12,0 z"
     id="path16"
     inkscape:connector-curvature="0"
     style="fill:#da2f47" />
  <path
     d="M 6,20 C 6,21.104 5.104,22 4,22 2.896,22 2,21.104 2,20 L 2,7 C 2,5.896 2.896,5 4,5 5.104,5 6,5.896 6,7 l 0,13 z"
     id="path18"
     inkscape:connector-curvature="0"
     style="fill:#e75a70" />
</svg>
