<?xml version="1.0" encoding="UTF-8" standalone="no"?>
<svg
   xmlns:dc="http://purl.org/dc/elements/1.1/"
   xmlns:cc="http://creativecommons.org/ns#"
   xmlns:rdf="http://www.w3.org/1999/02/22-rdf-syntax-ns#"
   xmlns:svg="http://www.w3.org/2000/svg"
   xmlns="http://www.w3.org/2000/svg"
   xmlns:sodipodi="http://sodipodi.sourceforge.net/DTD/sodipodi-0.dtd"
   xmlns:inkscape="http://www.inkscape.org/namespaces/inkscape"
   viewBox="0 0 34.737137 33.384853"
   id="svg2"
   version="1.1"
   inkscape:version="0.91 r13725"
   sodipodi:docname="1f5e3.svg"
   width="34.737137"
   height="33.384853">
  <metadata
     id="metadata12">
    <rdf:RDF>
      <cc:Work
         rdf:about="">
        <dc:format>image/svg+xml</dc:format>
        <dc:type
           rdf:resource="http://purl.org/dc/dcmitype/StillImage" />
      </cc:Work>
    </rdf:RDF>
  </metadata>
  <defs
     id="defs10" />
  <sodipodi:namedview
     pagecolor="#ffffff"
     bordercolor="#666666"
     borderopacity="1"
     objecttolerance="10"
     gridtolerance="10"
     guidetolerance="10"
     inkscape:pageopacity="0"
     inkscape:pageshadow="2"
     inkscape:window-width="640"
     inkscape:window-height="480"
     id="namedview8"
     showgrid="false"
     inkscape:zoom="6.5555556"
     inkscape:cx="16.899122"
     inkscape:cy="16.357514"
     inkscape:window-x="0"
     inkscape:window-y="0"
     inkscape:window-maximized="0"
     inkscape:current-layer="svg2" />
  <path
     d="m 34.737122,22.186342 c 0.003,0.553 -0.443,1.002 -0.998,1.003 l -5,0.013 c -0.552,0.002 -0.999,-0.446 -1,-0.997 -0.003,-0.555 0.444,-1.002 0.995,-1.004 l 5,-0.013 c 0.553,0 1.002,0.445 1.003,0.998 z m -1.587,-5.489 c 0.238,0.499 0.025,1.095 -0.475,1.333 l -4.517,2.145 c -0.498,0.236 -1.094,0.023 -1.33,-0.476 -0.239,-0.498 -0.025,-1.094 0.474,-1.333 l 4.516,-2.144 c 0.5,-0.236 1.095,-0.024 1.332,0.475 z m 0.027,10.987 c 0.234,-0.501 0.02,-1.096 -0.48,-1.33 l -4.527,-2.122 c -0.501,-0.235 -1.095,-0.02 -1.33,0.48 -0.234,0.501 -0.019,1.096 0.482,1.33 l 4.526,2.123 c 0.499,0.234 1.096,0.019 1.329,-0.481 z"
     id="path4"
     inkscape:connector-curvature="0"
     style="fill:#fa743e" />
  <path
     d="m 26.878122,13.902342 c -1.42,-0.419 -2.693,-1.547 -3.136,-2.25 -0.76,-1.208 0.157,-1.521 -0.153,-4.8890004 -0.285,-3.083 -4.53,-6.39900003 -9.69,-6.73600003 -2.346,-0.153 -4.786,0.326 -7.286,1.69300003 -6.41999998,3.511 -8.964,10.9320004 -4.006,18.0990004 4.47,6.46 0.276,9.379 0.276,9.379 0,0 0.166,1.36 2.914,3.188 2.749,1.827 6.121,0.588 6.121,0.588 0,0 1.112,-3.954 4.748,-3.59 2.606,0.384 6.266,-0.129 7.191,-1.024 0.865,-0.837 -0.151,-1.886 0.539,-4.224 -2.365,-0.232 -3.665,-1.359 -3.79,-2.948 2.625,0.255 3.708,-0.578 4.458,-1.495 -0.021,-0.54 -0.075,-1.686 -0.127,-2.454 2.322,-0.672 3.212,-2.962 1.941,-3.337 z"
     id="path6"
     inkscape:connector-curvature="0"
     style="fill:#226699" />
</svg>
