<?xml version="1.0" encoding="UTF-8" standalone="no"?>
<svg
   xmlns:dc="http://purl.org/dc/elements/1.1/"
   xmlns:cc="http://creativecommons.org/ns#"
   xmlns:rdf="http://www.w3.org/1999/02/22-rdf-syntax-ns#"
   xmlns:svg="http://www.w3.org/2000/svg"
   xmlns="http://www.w3.org/2000/svg"
   xmlns:sodipodi="http://sodipodi.sourceforge.net/DTD/sodipodi-0.dtd"
   xmlns:inkscape="http://www.inkscape.org/namespaces/inkscape"
   viewBox="0 0 36 26.181999"
   id="svg2"
   version="1.1"
   inkscape:version="0.91 r13725"
   sodipodi:docname="1f5fb.svg"
   width="36"
   height="26.181999">
  <metadata
     id="metadata20">
    <rdf:RDF>
      <cc:Work
         rdf:about="">
        <dc:format>image/svg+xml</dc:format>
        <dc:type
           rdf:resource="http://purl.org/dc/dcmitype/StillImage" />
      </cc:Work>
    </rdf:RDF>
  </metadata>
  <defs
     id="defs18" />
  <sodipodi:namedview
     pagecolor="#ffffff"
     bordercolor="#666666"
     borderopacity="1"
     objecttolerance="10"
     gridtolerance="10"
     guidetolerance="10"
     inkscape:pageopacity="0"
     inkscape:pageshadow="2"
     inkscape:window-width="640"
     inkscape:window-height="480"
     id="namedview16"
     showgrid="false"
     inkscape:zoom="6.5555556"
     inkscape:cx="18"
     inkscape:cy="18"
     inkscape:window-x="0"
     inkscape:window-y="0"
     inkscape:window-maximized="0"
     inkscape:current-layer="svg2" />
  <path
     d="M 25.208,7.182 11,7.182 c 0,0 -4.109,3.332 -4.757,3.896 C 2.75,14.12 0,13.846 0,15.206 l 0,10.976 36,0 0,-9 -10.792,-10 z"
     id="path4"
     inkscape:connector-curvature="0"
     style="fill:#4b545d" />
  <path
     d="M 3.911,26.182 C 3.825,25.537 3.64,23.208 5.062,21.151 c 0.415,-0.6 -0.032,-1.472 2.281,-5 0.636,-0.97 3.052,-2.928 3.711,-3.688 0.659,-0.76 1.323,-3.406 1.323,-3.406 l -1.51,-0.029 c 0,0 -0.861,2.274 -1.562,2.625 -1.867,0.935 -3.802,3.122 -4.167,3.75 -0.508,0.873 -3.842,5.437 -4.43,6.404 L 0,22.982 l 0,3.2 3.911,0 z m 27.463,-14.199 -9.223,-1.961 1.3,3.724 2.097,1.035 c 1.296,0.836 2.895,1.31 3.103,3.666 0.056,0.632 -0.39,2.882 -0.755,4.261 -0.307,1.159 0.057,2.079 -0.114,3.473 l 3.443,0 c -0.723,-1.452 -1.158,-3.185 -1.147,-3.398 0.016,-0.309 0.313,-3.223 0.48,-4.858 0.766,1.378 2.102,3.889 2.15,4.714 0.037,0.639 -0.011,2.307 -0.056,3.542 l 3.348,0 0,-11.561 c 0,-1.247 -3.155,-1.289 -4.626,-2.637 z m -15.709,7.345 c -0.525,1.297 -0.241,1.298 -0.306,2.099 -0.133,1.634 0.758,2.653 0.758,2.653 0,0 0.669,-1.379 0.655,-1.929 -0.067,-2.494 0.965,-3.376 0.833,-4.048 -0.001,-0.001 -1.415,-0.071 -1.94,1.225 z m -4.945,1 c 0.301,-0.51 1.124,-0.543 1.58,-1.344 0.456,-0.8 0.446,-2.183 0.924,-3.632 0.478,-1.449 2.608,-2.359 2.608,-2.359 0,0 -1.796,-2.533 -3.243,-0.813 -1.242,1.477 -1.031,4.184 -1.18,4.927 -0.149,0.743 -1.832,2.934 -1.832,2.934 0,0 -0.361,2.382 -0.289,3.046 0.071,0.666 0.851,-1.775 1.432,-2.759 z m 12.567,-1.637 c -0.377,-0.61 -1.063,-1.391 -1.191,-2.114 -0.148,-0.836 -0.203,-1.273 -0.482,-1.379 -0.279,-0.106 -0.783,0.118 -1.156,0.618 -0.347,0.465 -0.062,1.827 -0.062,1.827 0,0 0.842,0.73 1.375,1.066 0.454,0.286 0.763,3.013 0.852,3.332 0.088,0.319 1.041,-2.74 0.664,-3.35 z"
     id="path6"
     inkscape:connector-curvature="0"
     style="fill:#292f33" />
  <path
     d="m 16.063,0.088 c -0.762,0 -5.001,5.587 -5.001,5.587 L 10.905,5.931 5.593,11.65 c 0,0 0.242,0.737 0.698,1.266 0.731,0.847 2.059,-0.709 2.963,-1.003 1.453,-0.472 0.976,2.182 1.915,2.289 1.272,0.145 2.585,-2.184 3.511,-2.11 0.926,0.074 1.953,2.65 2.937,2.65 1.468,0 1.309,-1.947 3.32,-1.947 0.953,0 1.141,1.117 2.514,0.952 1.073,-0.129 2.621,-2.404 3.133,-2.597 1.15,-0.433 2.6,1.446 3.452,1.356 0.851,-0.09 0.655,-0.185 0.655,-0.185 L 19.575,0.025 l -0.644,0 C 18.417,0.025 18.195,0 17.606,0 17.21,0 16.277,0.088 16.063,0.088 Z"
     id="path8"
     inkscape:connector-curvature="0"
     style="fill:#e1e8ed" />
  <path
     d="m 15.721,3.476 c 0,0 -1.838,3.483 -2.025,4.049 -0.187,0.566 -0.63,2.447 -0.63,2.447 0,0 0.886,-0.589 1.186,-1.039 0.3,-0.45 0.762,-1.906 1.098,-2.474 0.336,-0.568 0.953,-1.166 1.186,-1.596 0.233,-0.43 0.141,-2.55 0.141,-2.55 L 15.721,3.476 Z M 11.68,4.719 C 11.201,5.23 9.794,7.129 9.794,7.129 l -4.218,4.5 c 0,0 0.53,1.524 1.171,1.541 0.641,0.017 0.89,-1.481 0.907,-2.19 C 7.671,10.271 9.583,9.096 9.821,8.416 10.059,7.736 10.87,7.508 11.379,6.899 11.888,6.29 11.968,5.453 12.67,4.782 14.451,3.08 13.478,2.64 13.478,2.64 c 0,0 -1.319,1.568 -1.798,2.079 z m 7.515,3.947 C 19.092,7.552 18.096,5.074 18.096,5.074 c 0,0 -0.402,2.154 -0.441,2.876 -0.039,0.722 0.191,1.611 0.407,2.403 0.215,0.792 0.817,1.839 0.817,1.839 0,0 0.419,-2.411 0.316,-3.526 z"
     id="path10"
     inkscape:connector-curvature="0"
     style="fill:#aab8c2" />
  <path
     d="m 20.415,0.025 -1.396,0 c -0.19,0 0.167,1.162 0.02,2.043 -0.161,0.964 1.821,3.066 2.239,5.307 0.099,0.53 0.716,3.322 1.353,4.855 0.598,1.44 0.819,1.518 0.819,1.518 0,0 1.971,-0.225 2.842,-2.124 0.512,-1.117 4.274,2.481 5.081,0.36 0,0 -3.166,-2.326 -6.169,-6.466 -2.755,-3.8 -4.288,-5.493 -4.789,-5.493 z"
     id="path12"
     inkscape:connector-curvature="0"
     style="fill:#ccd6dd" />
  <path
     d="m 22.289,6.656 c 0.158,0.749 0.66,1.224 0.596,2.83 -0.062,1.559 3.048,2.824 2.754,3.118 -1.03,1.032 -2.188,1.143 -2.188,1.143 C 23.115,13.568 22.137,11.875 21.915,10.915 21.693,9.955 21.292,7.118 21.023,6.536 20.754,5.953 20.175,5.259 19.854,4.582 19.533,3.905 19.437,3.336 19.437,3.336 c 0,0 0.962,0.375 1.617,0.936 0.657,0.561 1.077,1.634 1.235,2.384 z"
     id="path14"
     inkscape:connector-curvature="0"
     style="fill:#aab8c2" />
</svg>
