<?xml version="1.0" encoding="UTF-8" standalone="no"?>
<svg
   xmlns:dc="http://purl.org/dc/elements/1.1/"
   xmlns:cc="http://creativecommons.org/ns#"
   xmlns:rdf="http://www.w3.org/1999/02/22-rdf-syntax-ns#"
   xmlns:svg="http://www.w3.org/2000/svg"
   xmlns="http://www.w3.org/2000/svg"
   xmlns:sodipodi="http://sodipodi.sourceforge.net/DTD/sodipodi-0.dtd"
   xmlns:inkscape="http://www.inkscape.org/namespaces/inkscape"
   viewBox="0 0 30.285 35.849998"
   id="svg2"
   version="1.1"
   inkscape:version="0.91 r13725"
   sodipodi:docname="1f5fc.svg"
   width="30.285"
   height="35.849998">
  <metadata
     id="metadata26">
    <rdf:RDF>
      <cc:Work
         rdf:about="">
        <dc:format>image/svg+xml</dc:format>
        <dc:type
           rdf:resource="http://purl.org/dc/dcmitype/StillImage" />
      </cc:Work>
    </rdf:RDF>
  </metadata>
  <defs
     id="defs24" />
  <sodipodi:namedview
     pagecolor="#ffffff"
     bordercolor="#666666"
     borderopacity="1"
     objecttolerance="10"
     gridtolerance="10"
     guidetolerance="10"
     inkscape:pageopacity="0"
     inkscape:pageshadow="2"
     inkscape:window-width="640"
     inkscape:window-height="480"
     id="namedview22"
     showgrid="false"
     inkscape:zoom="6.5555556"
     inkscape:cx="15.539"
     inkscape:cy="18"
     inkscape:window-x="0"
     inkscape:window-y="0"
     inkscape:window-maximized="0"
     inkscape:current-layer="svg2" />
  <path
     d="m 13.642,25.85 3,0 0,10 -3,0 z"
     id="path4"
     inkscape:connector-curvature="0"
     style="fill:#be1931" />
  <path
     d="m 18.258,19.309 -6.233,0.002 C 11.996,19.415 9.28,28.835 0,35.85 l 5.825,0 c 2.453,-1.656 5.72,-2.678 9.316,-2.678 3.596,0 6.864,1.022 9.317,2.678 l 5.827,0 C 21.04,28.852 18.287,19.413 18.258,19.309 Z m -3.116,10.863 c -2.151,0 -4.202,0.329 -6.093,0.906 1.28,-1.659 2.303,-3.265 3.119,-4.717 l 5.947,0 c 0.816,1.453 1.839,3.058 3.119,4.717 -1.891,-0.578 -3.941,-0.906 -6.092,-0.906 z"
     id="path6"
     inkscape:connector-curvature="0"
     style="fill:#dd2e44" />
  <path
     d="m 12.078,15.888 c -0.225,1.239 -0.487,2.437 -0.785,3.5 l 7.755,0 c -0.299,-1.063 -0.56,-2.261 -0.785,-3.5 l -6.185,0 z"
     id="path8"
     inkscape:connector-curvature="0"
     style="fill:#dd2e44" />
  <path
     d="m 20.959,19.436 -0.875,-0.642 c -0.045,-0.033 -0.101,-0.051 -0.158,-0.051 l -9.547,0 c -0.057,0 -0.113,0.018 -0.158,0.051 l -0.875,0.642 c -0.069,0.051 -0.107,0.132 -0.102,0.215 0,0 0.204,3.441 0.265,3.552 0.073,0.133 0.508,0.48 0.588,0.48 l 10.111,0 c 0.08,0 0.514,-0.346 0.588,-0.48 0.062,-0.112 0.265,-3.552 0.265,-3.552 0.006,-0.083 -0.032,-0.164 -0.102,-0.215 z m -3.221,-6.881 -5.136,0 c -0.148,1.085 -0.322,2.22 -0.524,3.333 l 6.184,0 C 18.06,14.775 17.886,13.64 17.738,12.555 Z"
     id="path10"
     inkscape:connector-curvature="0"
     style="fill:#cdd6dd" />
  <path
     d="m 17.313,9.055 -4.286,0 c -0.108,1.002 -0.249,2.212 -0.425,3.5 l 5.136,0 c -0.176,-1.288 -0.316,-2.498 -0.425,-3.5 z"
     id="path12"
     inkscape:connector-curvature="0"
     style="fill:#dd2e44" />
  <path
     d="M 17.196,7.939 C 17.171,7.943 13.175,7.941 13.145,7.936 13.111,8.27 13.072,8.64 13.027,9.055 l 4.286,0 -0.117,-1.116 z"
     id="path14"
     inkscape:connector-curvature="0"
     style="fill:#cdd6dd" />
  <path
     d="M 17.196,7.939 C 17.137,7.368 17.061,6.658 17.061,6.658 l -3.781,0 c 0,0 -0.076,0.709 -0.135,1.278 0.03,0.005 4.026,0.007 4.051,0.003 z"
     id="path16"
     inkscape:connector-curvature="0"
     style="fill:#aab8c2" />
  <path
     d="m 12.714,5.751 0,1.318 c 0,0.276 0.233,0.5 0.521,0.5 l 3.888,0 c 0.287,0 0.521,-0.224 0.521,-0.5 l 0,-1.318 -4.93,0 z"
     id="path18"
     inkscape:connector-curvature="0"
     style="fill:#e1e8ed" />
  <path
     d="m 17.122,3.933 -1.099,0 -0.205,-3.758 C 15.818,0.078 15.736,0 15.636,0 l -0.848,0 c -0.101,0 -0.182,0.078 -0.182,0.175 l -0.205,3.758 -1.166,0 c -0.287,0 -0.521,0.224 -0.521,0.5 l 0,1.318 4.929,0 0,-1.318 c 0,-0.276 -0.233,-0.5 -0.521,-0.5 z"
     id="path20"
     inkscape:connector-curvature="0"
     style="fill:#dd2e44" />
</svg>
