<?xml version="1.0" encoding="UTF-8" standalone="no"?>
<svg
   xmlns:dc="http://purl.org/dc/elements/1.1/"
   xmlns:cc="http://creativecommons.org/ns#"
   xmlns:rdf="http://www.w3.org/1999/02/22-rdf-syntax-ns#"
   xmlns:svg="http://www.w3.org/2000/svg"
   xmlns="http://www.w3.org/2000/svg"
   xmlns:sodipodi="http://sodipodi.sourceforge.net/DTD/sodipodi-0.dtd"
   xmlns:inkscape="http://www.inkscape.org/namespaces/inkscape"
   viewBox="0 0 36 29.216"
   id="svg2"
   version="1.1"
   inkscape:version="0.91 r13725"
   sodipodi:docname="1f5fa.svg"
   width="36"
   height="29.216">
  <metadata
     id="metadata22">
    <rdf:RDF>
      <cc:Work
         rdf:about="">
        <dc:format>image/svg+xml</dc:format>
        <dc:type
           rdf:resource="http://purl.org/dc/dcmitype/StillImage" />
      </cc:Work>
    </rdf:RDF>
  </metadata>
  <defs
     id="defs20" />
  <sodipodi:namedview
     pagecolor="#ffffff"
     bordercolor="#666666"
     borderopacity="1"
     objecttolerance="10"
     gridtolerance="10"
     guidetolerance="10"
     inkscape:pageopacity="0"
     inkscape:pageshadow="2"
     inkscape:window-width="640"
     inkscape:window-height="480"
     id="namedview18"
     showgrid="false"
     inkscape:zoom="6.5555556"
     inkscape:cx="18"
     inkscape:cy="15.608"
     inkscape:window-x="0"
     inkscape:window-y="0"
     inkscape:window-maximized="0"
     inkscape:current-layer="svg2" />
  <path
     d="M 12,3.215 3,0.804 C 1.343,0.36 0,1.343 0,3.001 l 0,20 c 0,1.656 1.343,3.359 3,3.804 l 9,2.411 0,-26.001 z m 12,22.786 9,2.411 c 1.656,0.443 3,-0.54 3,-2.196 l 0,-20 C 36,4.559 34.656,2.856 33,2.412 l -9,-2.411 0,26 z"
     id="path4"
     inkscape:connector-curvature="0"
     style="fill:#ccd6dd" />
  <path
     d="m 24,26 -12,3.215 0,-26 L 24,0 Z"
     id="path6"
     inkscape:connector-curvature="0"
     style="fill:#e1e8ed" />
  <path
     d="M 12,5.215 4,3.071 C 2.896,2.775 2,3.431 2,4.535 l 0,18 c 0,1.104 0.896,2.24 2,2.535 l 8,2.145 0,-22 z m 20,-1.072 -8,-2.144 0,22 8,2.144 c 1.104,0.296 2,-0.359 2,-1.465 l 0,-18 C 34,5.575 33.104,4.439 32,4.143 Z"
     id="path8"
     inkscape:connector-curvature="0"
     style="fill:#55acee" />
  <path
     d="m 24,24 -12,3.215 0,-22 L 24,2 Z"
     id="path10"
     inkscape:connector-curvature="0"
     style="fill:#88c9f9" />
  <path
     d="m 12,17.114 c -0.268,0.006 -0.595,0.104 -0.845,0.145 -0.436,0.073 -0.329,0.517 -0.463,0.443 C 10.557,17.628 10.217,17.437 9.88,17.044 9.543,16.65 10.13,16.567 10.298,16.422 10.466,16.277 9.982,16.25 9.813,16.09 9.644,15.931 9.342,16.194 9.074,15.814 8.804,15.438 8.973,15.024 8.941,14.634 8.907,14.244 9.377,14.293 9.68,14.3 c 0.303,0.003 0.538,0.144 0.538,0.602 0,0.456 0.37,0.708 0.269,0.146 -0.101,-0.561 0.101,-0.657 0.235,-0.89 0.134,-0.23 0.37,-0.55 0.672,-1.04 0.221,-0.358 0.389,-0.283 0.606,-0.164 l 0,-3.345 c -0.055,-0.044 -0.11,-0.09 -0.165,-0.113 -0.303,-0.132 0.096,0.753 -0.139,1.109 -0.237,0.356 -0.598,0.193 -0.97,0.094 C 10.357,10.6 10.013,10.154 10.283,9.692 10.551,9.23 11.065,9.424 11.334,9.039 11.603,8.654 10.377,8.367 9.94,8.098 9.502,7.827 8.977,7.689 8.54,7.952 8.103,8.216 7.167,8.085 6.797,8.138 6.427,8.192 6.361,7.769 6.294,7.445 6.227,7.123 5.641,7.116 5.037,7.107 4.431,7.097 3.296,7.388 3.49,8.866 3.558,9.38 4.095,8.99 4.197,8.902 c 0.101,-0.088 0.605,0.2 0.671,0.637 0.068,0.439 0.035,0.887 -0.099,1.232 -0.137,0.345 0.336,1.006 0.604,1.612 0.269,0.605 0.573,0.686 0.707,0.723 0.135,0.036 0.908,0.587 0.875,0.996 -0.033,0.411 0.706,0.991 1.009,1.34 0.303,0.35 0.494,0.662 0.887,0.846 0.393,0.183 0.852,1.035 1.054,1.165 0.155,0.1 0.418,0.451 0.576,0.58 -0.208,0.242 -0.612,0.748 -0.612,1.029 0,0.383 0.44,1.103 0.608,1.3 0.167,0.196 0.65,0.442 0.751,0.85 0.101,0.407 -0.07,1.646 -0.372,1.907 -0.304,0.262 -0.414,1.043 -0.414,1.043 0,0 0.107,0.293 0.465,0.124 0.309,-0.144 0.776,-0.566 1.094,-0.801 l 0,-6.371 z"
     id="path12"
     inkscape:connector-curvature="0"
     style="fill:#5c913b" />
  <path
     d="m 12.268,13.021 c -0.1,0.016 -0.187,0.012 -0.268,0.011 l 0,-3.345 c 0.254,0.065 0.512,0.317 0.707,0.736 0.234,0.509 0.604,0.066 0.739,0.374 0.134,0.308 0.875,0.758 0.505,0.742 -0.371,-0.015 -0.741,0.008 -0.841,0.454 -0.102,0.448 0.168,0.794 -0.102,0.828 -0.27,0.033 -0.37,0.142 -0.74,0.2 z m 2.59,5.558 C 14.422,18.505 14.499,18.556 14.23,17.98 13.962,17.403 13.799,17.237 13.194,17.324 12.589,17.411 12.611,17.46 12.443,17.161 12.371,17.033 12.202,17.079 12,17.192 l 0,6.37 c 0.09,-0.114 0.17,-0.211 0.228,-0.267 0.505,-0.477 0.996,-1.026 1.466,-1.646 0.47,-0.621 0.3,-0.924 0.535,-1.481 0.236,-0.558 0.541,-0.617 0.944,-1.145 0.405,-0.53 0.122,-0.368 -0.315,-0.444 z M 24,11.339 24,5.025 C 23.96,5.029 23.932,5.037 23.89,5.04 23.681,5.051 23.408,5.175 23.111,5.36 23.087,5.355 23.065,5.344 23.041,5.339 22.145,5.164 21.729,6.544 21.002,6.491 20.273,6.438 19.302,6.147 18.67,7.005 c -0.631,0.857 -0.777,1.53 0,1.294 0.777,-0.236 1.312,-1.425 1.7,-1.089 0.388,0.336 0.29,0.721 -0.632,1.105 -0.922,0.385 -1.918,0.817 -2.452,0.96 -0.534,0.143 -0.655,0.534 -0.292,0.822 0.364,0.288 -0.219,0.471 -0.826,1.02 -0.607,0.547 0.146,0.512 0.656,0.705 0.51,0.193 0.898,-0.323 1.117,-0.932 0.217,-0.608 1.158,-1.521 1.55,-1.544 0.392,-0.023 0.392,0.197 0.318,0.602 -0.013,0.071 10e-4,0.103 0.011,0.138 -0.17,0.54 -0.31,1.03 -0.365,1.306 -0.026,0.135 -0.031,0.351 -0.027,0.595 -0.086,0.004 -0.183,0.021 -0.248,10e-4 -0.438,-0.129 -1.434,-0.22 -1.701,0.043 -0.267,0.265 -0.412,0.502 -0.728,0.723 -0.317,0.219 -1.603,1.224 -1.627,2.084 -0.025,0.859 -0.049,1.83 0.461,1.721 0.51,-0.109 1.749,-0.826 2.137,-1.288 0.387,-0.463 0.921,-0.522 1.092,-0.156 0.17,0.369 0.048,0.649 -0.12,1.354 -0.171,0.708 0.11,0.963 0.381,1.468 0.273,0.504 0.491,0.775 0.491,1.189 0,0.412 0.389,0.723 0.97,-0.123 0.188,-0.27 0.367,-0.606 0.536,-0.957 0.409,-0.469 0.768,-0.923 0.758,-1.096 -0.016,-0.281 -0.021,-0.434 -0.024,-0.624 l 0.091,-0.22 c 0.127,-0.293 0.241,-0.746 0.362,-1.155 0.007,-0.01 0.013,-0.017 0.02,-0.024 0.237,-0.337 0.185,-0.353 0.58,-0.756 0.264,-0.27 0.254,-0.512 0.214,-0.678 0.105,-0.175 0.134,-0.28 -0.033,-0.235 l -0.016,0.004 c -0.002,0 -0.005,0.019 -0.006,0.014 -0.023,-0.149 -0.206,0.003 -0.501,0.148 -0.284,0.008 -0.566,-0.066 -0.668,-0.368 -0.133,-0.396 -0.602,-0.996 -0.639,-1.336 0.003,-0.041 0.005,-0.077 0.01,-0.124 0.014,-0.036 0.033,-0.066 0.069,-0.088 0.038,-0.022 0.075,-0.03 0.112,-0.035 0.041,0.111 0.075,0.279 0.086,0.464 0.026,0.477 0.394,0.196 0.394,0.498 0,0.303 0.53,0.492 0.661,0.548 0.037,0.016 0.094,-0.027 0.159,-0.098 0.031,0.011 0.06,0.033 0.093,0.037 0.292,0.031 0.922,-0.984 1.117,-1.164 0.102,-0.095 0.104,-0.269 0.033,-0.394 L 24,11.339 Z"
     id="path14"
     inkscape:connector-curvature="0"
     style="fill:#77b255" />
  <path
     d="m 27.634,15.829 c -0.053,0.44 0.184,0.201 0.606,0.705 0.423,0.508 -0.104,0.394 -0.289,0.316 -0.185,-0.08 -0.37,-0.131 -0.579,-0.518 -0.213,-0.391 0,-0.695 0,-1.027 0,0 0.316,0.084 0.262,0.524 z m 0.362,-0.901 c 0.389,0.166 0.114,-0.482 0.244,-0.841 0.132,-0.356 0.316,-0.368 0.555,-0.363 0.236,0.002 0.422,-0.191 0.581,-0.389 0.157,-0.199 0.448,-0.454 0.422,-0.733 -0.026,-0.279 -0.104,-0.482 -0.212,-0.843 -0.105,-0.36 0.316,-0.368 0.502,-0.711 0.184,-0.343 0,0 0.421,-0.008 0.422,-0.008 0.238,-0.058 0.316,-0.218 0.08,-0.159 0.133,-0.327 0.054,-0.68 -0.078,-0.353 -0.37,-0.1 -0.66,-0.177 C 29.93,9.888 30.325,9.54 30.351,9.185 30.377,8.829 30.748,9.02 31.012,9.06 31.275,9.099 31.354,9.544 31.433,9.657 31.514,9.769 32.328,9.292 32.541,9.016 32.752,8.741 32.355,8.725 32.462,8.613 32.568,8.502 31.83,8.276 31.537,8.144 31.248,8.011 30.509,7.777 30.219,7.495 29.93,7.212 28.823,7.069 28.531,7.158 28.24,7.244 28.055,7.015 27.925,6.752 27.794,6.49 27.239,6.455 27.081,6.285 26.923,6.115 26.765,6.412 26.552,6.445 26.342,6.48 26.263,6.488 25.998,6.236 25.735,5.984 26.078,5.865 25.71,5.615 25.355,5.377 24.897,5.433 24,5.024 l 0,6.314 c 0.157,0.014 0.309,0.036 0.364,0.051 0.131,0.035 0.448,0.573 0.448,0.784 0,0.211 0.158,0.828 0.291,1.195 0.131,0.366 0.42,0.506 0.686,0.818 0.264,0.312 0.394,0.137 0.394,0.137 0,0 -0.105,-0.544 -0.105,-0.965 0,-0.424 0.316,-0.701 0.316,-0.701 0,0 0.5,0.558 0.528,0.685 0.026,0.128 0.421,0.656 0.449,0.876 0.026,0.219 0.237,0.546 0.625,0.71 z m 2.092,-2.068 c 0.184,0.08 0.976,0.171 0.554,-0.334 -0.423,-0.506 -0.106,-0.299 -0.053,-0.738 0.053,-0.44 -0.264,-0.524 -0.264,-0.524 0,0.332 -0.211,0.638 0,1.026 0.21,0.39 -0.423,0.49 -0.237,0.57 z m 2.004,5.371 c -0.131,-0.217 -0.421,-0.385 -0.738,-0.461 -0.315,-0.076 -0.29,-0.48 -0.606,-0.533 -0.316,-0.055 -0.544,-0.389 -0.686,-0.512 -0.312,-0.266 -0.106,0.209 0,0.699 0.106,0.488 0.501,0.246 0.869,0.586 0.369,0.34 0.397,0.016 0.74,0.229 0.342,0.211 0.475,0.52 0.804,0.578 0.329,0.059 -0.25,-0.369 -0.383,-0.586 z m -3.088,-1.432 c 0.262,0.402 0.159,0.043 0.504,-0.016 0.343,-0.059 -0.291,-0.561 -0.502,-0.799 -0.211,-0.238 -0.42,-0.301 -0.605,0.049 -0.21,0.399 0.342,0.364 0.603,0.766 z m 2.403,2.579 c -0.133,-0.338 -0.518,-0.713 -0.675,-0.91 -0.159,-0.193 -0.407,-0.312 -0.618,-0.279 -0.212,0.031 -0.343,-0.092 -0.448,-0.361 -0.106,-0.266 -0.29,-0.233 -0.449,-0.244 -0.157,-0.012 -0.791,0.119 -1.161,0.23 -0.368,0.113 -0.537,0.252 -0.778,0.457 -0.382,0.32 -0.17,0.105 0,0.424 0.168,0.318 -0.187,1.066 -0.213,1.543 -0.027,0.477 0.676,0.031 0.939,0.039 0.264,0.012 0.186,-0.189 0.396,-0.314 0.212,-0.125 0.349,-0.129 0.579,0.172 0.233,0.305 0.537,0.611 0.537,0.883 0,0.27 0.834,0.947 1.151,0.852 0.316,-0.098 0.501,-0.408 0.791,-0.635 0.291,-0.225 0.186,-0.824 0.264,-1.168 0.081,-0.344 -0.185,-0.354 -0.315,-0.689 z"
     id="path16"
     inkscape:connector-curvature="0"
     style="fill:#5c913b" />
</svg>
