<?xml version="1.0" encoding="UTF-8" standalone="no"?>
<svg
   xmlns:dc="http://purl.org/dc/elements/1.1/"
   xmlns:cc="http://creativecommons.org/ns#"
   xmlns:rdf="http://www.w3.org/1999/02/22-rdf-syntax-ns#"
   xmlns:svg="http://www.w3.org/2000/svg"
   xmlns="http://www.w3.org/2000/svg"
   xmlns:sodipodi="http://sodipodi.sourceforge.net/DTD/sodipodi-0.dtd"
   xmlns:inkscape="http://www.inkscape.org/namespaces/inkscape"
   viewBox="0 0 36 36"
   id="svg2"
   version="1.1"
   inkscape:version="0.91 r13725"
   sodipodi:docname="1f60c.svg"
   width="36"
   height="36">
  <metadata
     id="metadata12">
    <rdf:RDF>
      <cc:Work
         rdf:about="">
        <dc:format>image/svg+xml</dc:format>
        <dc:type
           rdf:resource="http://purl.org/dc/dcmitype/StillImage" />
      </cc:Work>
    </rdf:RDF>
  </metadata>
  <defs
     id="defs10" />
  <sodipodi:namedview
     pagecolor="#ffffff"
     bordercolor="#666666"
     borderopacity="1"
     objecttolerance="10"
     gridtolerance="10"
     guidetolerance="10"
     inkscape:pageopacity="0"
     inkscape:pageshadow="2"
     inkscape:window-width="640"
     inkscape:window-height="480"
     id="namedview8"
     showgrid="false"
     inkscape:zoom="6.5555556"
     inkscape:cx="18"
     inkscape:cy="18"
     inkscape:window-x="0"
     inkscape:window-y="0"
     inkscape:window-maximized="0"
     inkscape:current-layer="svg2" />
  <path
     d="M 36,18 C 36,27.941 27.941,36 18,36 8.059,36 0,27.941 0,18 0,8.059 8.059,0 18,0 27.941,0 36,8.059 36,18"
     id="path4"
     inkscape:connector-curvature="0"
     style="fill:#ffcc4d" />
  <path
     d="M 28.312,15.612 C 28.137,15.47 27.886,15.465 27.702,15.598 27.69,15.607 26.441,16.5 24,16.5 c -2.44,0 -3.69,-0.893 -3.7,-0.9 -0.183,-0.137 -0.435,-0.133 -0.611,0.009 -0.178,0.142 -0.238,0.386 -0.146,0.594 0.06,0.135 1.5,3.297 4.457,3.297 2.958,0 4.397,-3.162 4.457,-3.297 0.092,-0.207 0.032,-0.449 -0.145,-0.591 z M 15.702,15.598 C 15.69,15.607 14.442,16.5 12,16.5 9.559,16.5 8.31,15.607 8.3,15.6 8.117,15.463 7.866,15.467 7.689,15.609 7.511,15.751 7.451,15.995 7.543,16.203 7.603,16.338 9.043,19.5 12,19.5 c 2.958,0 4.397,-3.162 4.457,-3.297 0.092,-0.207 0.032,-0.449 -0.145,-0.591 -0.176,-0.143 -0.428,-0.147 -0.61,-0.014 z M 29.001,13 C 28.696,13 28.397,12.862 28.2,12.6 25.608,9.144 21.239,9.972 21.196,9.98 20.649,10.088 20.128,9.737 20.019,9.196 19.911,8.655 20.262,8.128 20.803,8.019 c 0.231,-0.047 5.657,-1.072 8.996,3.38 0.332,0.442 0.242,1.069 -0.2,1.4 C 29.42,12.935 29.21,13 29.001,13 Z M 6.999,13 C 6.791,13 6.58,12.935 6.4,12.8 5.958,12.469 5.869,11.842 6.2,11.4 9.539,6.946 14.966,7.974 15.196,8.02 15.738,8.128 16.089,8.655 15.98,9.197 15.872,9.737 15.346,10.088 14.806,9.982 14.62,9.947 10.37,9.174 7.8,12.6 7.604,12.862 7.303,13 6.999,13 Z m 16.255,10.577 c -0.188,-0.111 -0.432,-0.086 -0.597,0.06 -0.01,0.008 -1.013,0.863 -4.657,0.863 -3.641,0 -4.646,-0.854 -4.646,-0.854 -0.159,-0.16 -0.404,-0.19 -0.6,-0.082 -0.195,0.111 -0.293,0.339 -0.238,0.557 0.01,0.044 1.144,4.379 5.484,4.379 4.34,0 5.474,-4.335 5.485,-4.379 0.053,-0.213 -0.044,-0.431 -0.231,-0.544 z"
     id="path6"
     inkscape:connector-curvature="0"
     style="fill:#664500" />
</svg>
