<?xml version="1.0" encoding="UTF-8" standalone="no"?>
<svg
   xmlns:dc="http://purl.org/dc/elements/1.1/"
   xmlns:cc="http://creativecommons.org/ns#"
   xmlns:rdf="http://www.w3.org/1999/02/22-rdf-syntax-ns#"
   xmlns:svg="http://www.w3.org/2000/svg"
   xmlns="http://www.w3.org/2000/svg"
   xmlns:sodipodi="http://sodipodi.sourceforge.net/DTD/sodipodi-0.dtd"
   xmlns:inkscape="http://www.inkscape.org/namespaces/inkscape"
   viewBox="0 0 36 36"
   id="svg2"
   version="1.1"
   inkscape:version="0.91 r13725"
   sodipodi:docname="1f607.svg"
   width="36"
   height="36">
  <metadata
     id="metadata20">
    <rdf:RDF>
      <cc:Work
         rdf:about="">
        <dc:format>image/svg+xml</dc:format>
        <dc:type
           rdf:resource="http://purl.org/dc/dcmitype/StillImage" />
      </cc:Work>
    </rdf:RDF>
  </metadata>
  <defs
     id="defs18" />
  <sodipodi:namedview
     pagecolor="#ffffff"
     bordercolor="#666666"
     borderopacity="1"
     objecttolerance="10"
     gridtolerance="10"
     guidetolerance="10"
     inkscape:pageopacity="0"
     inkscape:pageshadow="2"
     inkscape:window-width="640"
     inkscape:window-height="480"
     id="namedview16"
     showgrid="false"
     inkscape:zoom="6.5555556"
     inkscape:cx="18"
     inkscape:cy="18"
     inkscape:window-x="0"
     inkscape:window-y="0"
     inkscape:window-maximized="0"
     inkscape:current-layer="svg2" />
  <circle
     cx="18"
     cy="18"
     r="18"
     id="circle4"
     style="fill:#ffcc4d" />
  <path
     d="M 27.335,22.629 C 27.157,22.468 26.891,22.458 26.7,22.6 26.661,22.629 22.778,25.5 18,25.5 13.234,25.5 9.338,22.629 9.3,22.6 9.109,22.458 8.843,22.47 8.665,22.629 8.488,22.789 8.448,23.053 8.571,23.257 8.7,23.472 11.788,28.5 18,28.5 c 6.212,0 9.301,-5.028 9.429,-5.243 0.123,-0.205 0.084,-0.468 -0.094,-0.628 z M 26,19 C 25.581,19 25.191,18.735 25.052,18.316 24.849,17.717 24.033,16 23,16 c -1.062,0 -1.889,1.827 -2.052,2.316 -0.175,0.523 -0.736,0.808 -1.265,0.632 C 19.16,18.774 18.876,18.208 19.051,17.683 19.177,17.307 20.355,14 23,14 c 2.645,0 3.823,3.307 3.948,3.684 0.175,0.524 -0.108,1.091 -0.632,1.265 C 26.211,18.983 26.104,19 26,19 Z M 16,19 C 15.581,19 15.191,18.735 15.051,18.316 14.848,17.717 14.034,16 13,16 c -1.062,0 -1.888,1.827 -2.051,2.316 -0.175,0.523 -0.738,0.808 -1.265,0.632 C 9.16,18.774 8.877,18.208 9.052,17.683 9.177,17.307 10.355,14 13,14 c 2.645,0 3.823,3.307 3.949,3.684 0.175,0.524 -0.108,1.091 -0.632,1.265 C 16.211,18.983 16.104,19 16,19 Z"
     id="path6"
     inkscape:connector-curvature="0"
     style="fill:#664500" />
  <path
     d="m 33.175,8.316 c 0,0 -9.042,0.161 -15.175,0.161 C 14.095,8.477 2.794,8.359 2.794,8.359 L 2.273,9.235 c 3.043,1.856 9.064,2.917 15.727,2.917 6.596,0 12.576,-1.04 15.652,-2.86 L 33.73,9.245 c 0,0 -0.374,-0.664 -0.555,-0.929 z"
     id="path8"
     inkscape:connector-curvature="0"
     style="fill:#ffac33" />
  <path
     d="M 23.777,0.345 C 22.565,0.251 21.304,0.186 20.004,0.155 19.343,0.139 18.676,0.129 18,0.129 c -0.672,0 -1.336,0.01 -1.993,0.025 C 14.705,0.185 13.443,0.25 12.23,0.344 5.34,0.88 0.169,2.451 0.169,5.287 c 0,3.588 8.264,5.771 17.831,5.771 9.567,0 17.831,-2.183 17.831,-5.771 0,-2.835 -5.168,-4.405 -12.054,-4.942 z M 18,7.383 C 11.139,7.383 5.09,6.55 5.09,4.647 5.09,4.111 5.584,3.624 6.429,3.198 7.582,2.617 9.407,2.154 11.618,1.849 13.529,1.587 15.716,1.439 18,1.439 c 2.291,0 4.485,0.148 6.4,0.413 2.242,0.31 4.086,0.783 5.232,1.377 0.807,0.418 1.278,0.894 1.278,1.418 0,1.903 -6.049,2.736 -12.91,2.736 z"
     id="path10"
     inkscape:connector-curvature="0"
     style="fill:#5dadec" />
  <path
     d="m 24.4,1.853 c 2.242,0.31 4.086,0.783 5.232,1.377 l 0.062,0.017 C 27.409,1.573 25.124,0.687 23.777,0.345 22.565,0.251 21.304,0.186 20.004,0.155 L 20.022,0.162 24.4,1.853 Z M 6.429,3.199 C 7.582,2.618 9.407,2.155 11.618,1.85 L 15.984,0.162 16.007,0.154 C 14.705,0.185 13.443,0.25 12.23,0.344 10.883,0.686 8.597,1.571 6.311,3.246 L 6.429,3.199 Z"
     id="path12"
     inkscape:connector-curvature="0"
     style="fill:#3b94d9" />
  <path
     d="M 28.472,3.375 C 27.812,2.932 27.126,2.465 26.471,2.115 23.947,0.765 21.063,0 18,0 15.071,0 12.305,0.7 9.86,1.941 8.771,2.494 7.979,2.94 7.69,3.375 l 20.782,0 z"
     id="path14"
     inkscape:connector-curvature="0"
     style="fill:#ffcc4d" />
</svg>
