<?xml version="1.0" encoding="UTF-8" standalone="no"?>
<svg
   xmlns:dc="http://purl.org/dc/elements/1.1/"
   xmlns:cc="http://creativecommons.org/ns#"
   xmlns:rdf="http://www.w3.org/1999/02/22-rdf-syntax-ns#"
   xmlns:svg="http://www.w3.org/2000/svg"
   xmlns="http://www.w3.org/2000/svg"
   xmlns:sodipodi="http://sodipodi.sourceforge.net/DTD/sodipodi-0.dtd"
   xmlns:inkscape="http://www.inkscape.org/namespaces/inkscape"
   viewBox="0 0 36 36"
   id="svg2"
   version="1.1"
   inkscape:version="0.91 r13725"
   sodipodi:docname="1f60b.svg"
   width="36"
   height="36">
  <metadata
     id="metadata16">
    <rdf:RDF>
      <cc:Work
         rdf:about="">
        <dc:format>image/svg+xml</dc:format>
        <dc:type
           rdf:resource="http://purl.org/dc/dcmitype/StillImage" />
      </cc:Work>
    </rdf:RDF>
  </metadata>
  <defs
     id="defs14" />
  <sodipodi:namedview
     pagecolor="#ffffff"
     bordercolor="#666666"
     borderopacity="1"
     objecttolerance="10"
     gridtolerance="10"
     guidetolerance="10"
     inkscape:pageopacity="0"
     inkscape:pageshadow="2"
     inkscape:window-width="640"
     inkscape:window-height="480"
     id="namedview12"
     showgrid="false"
     inkscape:zoom="6.5555556"
     inkscape:cx="18"
     inkscape:cy="18"
     inkscape:window-x="0"
     inkscape:window-y="0"
     inkscape:window-maximized="0"
     inkscape:current-layer="svg2" />
  <circle
     cx="18"
     cy="18"
     r="18"
     id="circle4"
     style="fill:#ffcc4d" />
  <path
     d="M 32.093,29.177 C 31.875,28.546 31.534,27.96 31.049,27.475 l -3.671,-3.789 c -0.814,1.885 -2.858,5.337 -7.189,6.795 l 3.685,3.685 c 0.214,0.214 0.453,0.406 0.709,0.573 2.973,-1.169 5.556,-3.1 7.51,-5.562 z"
     id="path6"
     inkscape:connector-curvature="0"
     style="fill:#ffac33" />
  <path
     d="M 6.999,17 C 6.849,17 6.696,16.966 6.553,16.895 6.059,16.648 5.859,16.047 6.106,15.553 6.158,15.448 7.424,13 11,13 c 3.577,0 4.842,2.449 4.894,2.553 0.247,0.494 0.046,1.095 -0.447,1.342 -0.491,0.247 -1.085,0.049 -1.336,-0.436 C 14.067,16.378 13.28,15 11,15 8.683,15 7.901,16.433 7.894,16.447 7.719,16.798 7.366,17 6.999,17 Z M 29,17 c 0.15,0 0.303,-0.034 0.446,-0.105 0.494,-0.247 0.694,-0.848 0.447,-1.342 C 29.841,15.448 28.575,13 24.999,13 c -3.577,0 -4.842,2.449 -4.894,2.553 -0.247,0.494 -0.046,1.095 0.447,1.342 0.491,0.247 1.085,0.049 1.336,-0.436 C 21.932,16.378 22.719,15 24.999,15 c 2.317,0 3.099,1.433 3.106,1.447 C 28.28,16.798 28.633,17 29,17 Z m 0.503,6.52 c 0.323,-0.749 0.461,-1.257 0.466,-1.277 0.134,-0.534 -0.19,-1.075 -0.725,-1.21 -0.536,-0.136 -1.077,0.188 -1.215,0.723 C 27.955,22.051 26.081,29 18,29 9.919,29 8.045,22.051 7.97,21.755 7.832,21.221 7.291,20.897 6.755,21.032 6.221,21.167 5.897,21.708 6.03,22.242 6.052,22.33 8.331,31 18,31 c 1.65,0 3.07,-0.266 4.315,-0.685 4.33,-1.458 6.374,-4.91 7.188,-6.795 z"
     id="path8"
     inkscape:connector-curvature="0"
     style="fill:#664500" />
  <path
     d="M 33.175,27.309 29.504,23.52 c -0.814,1.885 -2.858,5.337 -7.189,6.795 L 26,34 c 1.728,1.728 5,2 7,0 2,-2 1.903,-4.962 0.175,-6.691 z"
     id="path10"
     inkscape:connector-curvature="0"
     style="fill:#e75a70" />
</svg>
