<?xml version="1.0" encoding="UTF-8" standalone="no"?>
<svg
   xmlns:dc="http://purl.org/dc/elements/1.1/"
   xmlns:cc="http://creativecommons.org/ns#"
   xmlns:rdf="http://www.w3.org/1999/02/22-rdf-syntax-ns#"
   xmlns:svg="http://www.w3.org/2000/svg"
   xmlns="http://www.w3.org/2000/svg"
   xmlns:sodipodi="http://sodipodi.sourceforge.net/DTD/sodipodi-0.dtd"
   xmlns:inkscape="http://www.inkscape.org/namespaces/inkscape"
   viewBox="0 0 36 36"
   id="svg2"
   version="1.1"
   inkscape:version="0.91 r13725"
   sodipodi:docname="1f609.svg"
   width="36"
   height="36">
  <metadata
     id="metadata14">
    <rdf:RDF>
      <cc:Work
         rdf:about="">
        <dc:format>image/svg+xml</dc:format>
        <dc:type
           rdf:resource="http://purl.org/dc/dcmitype/StillImage" />
      </cc:Work>
    </rdf:RDF>
  </metadata>
  <defs
     id="defs12" />
  <sodipodi:namedview
     pagecolor="#ffffff"
     bordercolor="#666666"
     borderopacity="1"
     objecttolerance="10"
     gridtolerance="10"
     guidetolerance="10"
     inkscape:pageopacity="0"
     inkscape:pageshadow="2"
     inkscape:window-width="640"
     inkscape:window-height="480"
     id="namedview10"
     showgrid="false"
     inkscape:zoom="6.5555556"
     inkscape:cx="18"
     inkscape:cy="18"
     inkscape:window-x="0"
     inkscape:window-y="0"
     inkscape:window-maximized="0"
     inkscape:current-layer="svg2" />
  <path
     d="M 36,18 C 36,27.941 27.941,36 18,36 8.06,36 0,27.941 0,18 0,8.06 8.06,0 18,0 27.941,0 36,8.06 36,18"
     id="path4"
     inkscape:connector-curvature="0"
     style="fill:#ffcc4d" />
  <ellipse
     cx="11.5"
     cy="16.5"
     rx="2.5"
     ry="3.5"
     id="ellipse6"
     style="fill:#664500" />
  <path
     d="M 28.457,17.797 C 28.397,17.662 26.958,14.5 24,14.5 c -2.957,0 -4.397,3.162 -4.457,3.297 -0.092,0.207 -0.032,0.449 0.145,0.591 0.175,0.142 0.426,0.147 0.61,0.014 C 20.31,18.393 21.56,17.5 24,17.5 c 2.426,0 3.674,0.881 3.702,0.901 0.088,0.066 0.194,0.099 0.298,0.099 0.11,0 0.221,-0.037 0.312,-0.109 0.177,-0.142 0.238,-0.386 0.145,-0.594 z M 5.999,12.458 c -0.208,0 -0.419,-0.065 -0.599,-0.2 -0.442,-0.331 -0.531,-0.958 -0.2,-1.4 3.262,-4.35 7.616,-4.4 7.8,-4.4 0.552,0 1,0.448 1,1 0,0.551 -0.445,0.998 -0.996,1 -0.156,0.002 -3.569,0.086 -6.205,3.6 -0.195,0.262 -0.496,0.4 -0.8,0.4 z m 23.002,2.125 c -0.305,0 -0.604,-0.138 -0.801,-0.4 -2.592,-3.457 -6.961,-2.627 -7.004,-2.62 -0.547,0.108 -1.068,-0.243 -1.177,-0.784 -0.108,-0.542 0.243,-1.068 0.784,-1.177 0.231,-0.047 5.657,-1.072 8.996,3.38 0.332,0.442 0.242,1.069 -0.2,1.4 -0.179,0.137 -0.389,0.201 -0.598,0.201 z m -5.747,8.994 c -0.188,-0.11 -0.432,-0.087 -0.597,0.06 -0.01,0.008 -1.013,0.863 -4.657,0.863 -3.641,0 -4.646,-0.854 -4.646,-0.854 -0.159,-0.16 -0.404,-0.19 -0.6,-0.082 -0.195,0.111 -0.293,0.339 -0.238,0.557 0.01,0.044 1.144,4.379 5.484,4.379 4.34,0 5.474,-4.335 5.485,-4.379 0.053,-0.213 -0.044,-0.431 -0.231,-0.544 z"
     id="path8"
     inkscape:connector-curvature="0"
     style="fill:#664500" />
</svg>
