<?xml version="1.0" encoding="UTF-8" standalone="no"?>
<svg
   xmlns:dc="http://purl.org/dc/elements/1.1/"
   xmlns:cc="http://creativecommons.org/ns#"
   xmlns:rdf="http://www.w3.org/1999/02/22-rdf-syntax-ns#"
   xmlns:svg="http://www.w3.org/2000/svg"
   xmlns="http://www.w3.org/2000/svg"
   xmlns:sodipodi="http://sodipodi.sourceforge.net/DTD/sodipodi-0.dtd"
   xmlns:inkscape="http://www.inkscape.org/namespaces/inkscape"
   viewBox="0 0 36 36.000042"
   id="svg2"
   version="1.1"
   inkscape:version="0.91 r13725"
   sodipodi:docname="1f608.svg"
   width="36"
   height="36.000042">
  <metadata
     id="metadata14">
    <rdf:RDF>
      <cc:Work
         rdf:about="">
        <dc:format>image/svg+xml</dc:format>
        <dc:type
           rdf:resource="http://purl.org/dc/dcmitype/StillImage" />
      </cc:Work>
    </rdf:RDF>
  </metadata>
  <defs
     id="defs12" />
  <sodipodi:namedview
     pagecolor="#ffffff"
     bordercolor="#666666"
     borderopacity="1"
     objecttolerance="10"
     gridtolerance="10"
     guidetolerance="10"
     inkscape:pageopacity="0"
     inkscape:pageshadow="2"
     inkscape:window-width="640"
     inkscape:window-height="480"
     id="namedview10"
     showgrid="false"
     inkscape:zoom="6.5555556"
     inkscape:cx="18"
     inkscape:cy="18"
     inkscape:window-x="0"
     inkscape:window-y="0"
     inkscape:window-maximized="0"
     inkscape:current-layer="svg2" />
  <circle
     cx="18"
     cy="18.000042"
     r="18"
     id="circle4"
     style="fill:#aa8dd8" />
  <path
     d="m 10,4.0000429 c -2.58,0 -5.631,-2.466 -6.586,-3.41399999 -0.571,-0.572 -1.433,-0.743 -2.179,-0.433 C 0.487,0.46204291 0,1.1910429 0,2.0000429 c 0,3.459 1.672,10.0000001 8,10.0000001 0.757,0 1.45,-0.428 1.789,-1.106 l 2,-4.0000001 c 0.31,-0.62 0.277,-1.356 -0.088,-1.946 -0.364,-0.589 -1.008,-0.948 -1.701,-0.948 z M 34.766,0.15304291 c -0.75,-0.311 -1.607,-0.139 -2.18,0.434 C 31.7,1.4720429 28.589,4.0000429 26,4.0000429 c -0.693,0 -1.337,0.359 -1.701,0.949 -0.364,0.589 -0.397,1.326 -0.088,1.946 l 2,4.0000001 c 0.339,0.677 1.031,1.105 1.789,1.105 6.328,0 8,-6.5410001 8,-10.0000001 0,-0.809 -0.487,-1.53799999 -1.234,-1.84699999 z"
     id="path6"
     inkscape:connector-curvature="0"
     style="fill:#aa8dd8" />
  <path
     d="m 27.335,25.629043 c -0.178,-0.161 -0.444,-0.171 -0.635,-0.029 -0.039,0.029 -3.922,2.9 -8.7,2.9 -4.766,0 -8.662,-2.871 -8.7,-2.9 -0.191,-0.142 -0.457,-0.13 -0.635,0.029 -0.177,0.16 -0.217,0.424 -0.094,0.628 0.129,0.215 3.217,5.243 9.429,5.243 6.212,0 9.301,-5.028 9.429,-5.243 0.123,-0.205 0.084,-0.468 -0.094,-0.628 z m -11.628,-7.336 c -3.255,-3.255 -8.486,-3.293 -8.707,-3.293 -0.552,0 -0.999,0.447 -0.999,0.998 -0.001,0.552 0.446,1.001 0.998,1.002 0.029,0 1.925,0.022 3.983,0.737 -0.593,0.64 -0.982,1.634 -0.982,2.763 0,1.934 1.119,3.5 2.5,3.5 1.381,0 2.5,-1.566 2.5,-3.5 0,-0.174 -0.019,-0.34 -0.037,-0.507 0.013,0 0.025,0.007 0.037,0.007 0.256,0 0.512,-0.098 0.707,-0.293 0.391,-0.391 0.391,-1.023 0,-1.414 z M 29,15.000043 c -0.221,0 -5.451,0.038 -8.707,3.293 -0.391,0.391 -0.391,1.023 0,1.414 0.195,0.195 0.451,0.293 0.707,0.293 0.013,0 0.024,-0.007 0.036,-0.007 -0.016,0.167 -0.036,0.333 -0.036,0.507 0,1.934 1.119,3.5 2.5,3.5 1.381,0 2.5,-1.566 2.5,-3.5 0,-1.129 -0.389,-2.123 -0.982,-2.763 2.058,-0.715 3.954,-0.737 3.984,-0.737 0.551,-0.001 0.998,-0.45 0.997,-1.002 -10e-4,-0.551 -0.447,-0.998 -0.999,-0.998 z"
     id="path8"
     inkscape:connector-curvature="0"
     style="fill:#553986" />
</svg>
