<?xml version="1.0" encoding="UTF-8" standalone="no"?>
<svg
   xmlns:dc="http://purl.org/dc/elements/1.1/"
   xmlns:cc="http://creativecommons.org/ns#"
   xmlns:rdf="http://www.w3.org/1999/02/22-rdf-syntax-ns#"
   xmlns:svg="http://www.w3.org/2000/svg"
   xmlns="http://www.w3.org/2000/svg"
   xmlns:sodipodi="http://sodipodi.sourceforge.net/DTD/sodipodi-0.dtd"
   xmlns:inkscape="http://www.inkscape.org/namespaces/inkscape"
   viewBox="0 0 36 36"
   id="svg2"
   version="1.1"
   inkscape:version="0.91 r13725"
   sodipodi:docname="1f61d.svg"
   width="36"
   height="36">
  <metadata
     id="metadata16">
    <rdf:RDF>
      <cc:Work
         rdf:about="">
        <dc:format>image/svg+xml</dc:format>
        <dc:type
           rdf:resource="http://purl.org/dc/dcmitype/StillImage" />
      </cc:Work>
    </rdf:RDF>
  </metadata>
  <defs
     id="defs14" />
  <sodipodi:namedview
     pagecolor="#ffffff"
     bordercolor="#666666"
     borderopacity="1"
     objecttolerance="10"
     gridtolerance="10"
     guidetolerance="10"
     inkscape:pageopacity="0"
     inkscape:pageshadow="2"
     inkscape:window-width="640"
     inkscape:window-height="480"
     id="namedview12"
     showgrid="false"
     inkscape:zoom="6.5555556"
     inkscape:cx="18"
     inkscape:cy="18"
     inkscape:window-x="0"
     inkscape:window-y="0"
     inkscape:window-maximized="0"
     inkscape:current-layer="svg2" />
  <path
     d="M 36,18 C 36,27.941 27.941,36 18,36 8.06,36 0,27.941 0,18 0,8.06 8.06,0 18,0 27.941,0 36,8.06 36,18"
     id="path4"
     inkscape:connector-curvature="0"
     style="fill:#ffcb4c" />
  <path
     d="M 30.6,18.2 C 30.486,18.115 28.669,16.774 25.954,15.856 25.98,15.741 26,15.623 26,15.5 26,15.131 25.861,14.797 25.641,14.536 27.443,14.016 28.975,14 29.002,14 29.553,13.998 30,13.55 29.999,12.998 29.998,12.447 29.552,12 29,12 c -0.221,0 -5.451,0.038 -8.707,3.293 -0.286,0.286 -0.372,0.716 -0.217,1.09 C 20.23,16.756 20.596,17 21,17 c 4.59,0 8.363,2.773 8.401,2.801 0.18,0.134 0.39,0.199 0.598,0.199 0.305,0 0.605,-0.139 0.802,-0.401 0.33,-0.443 0.24,-1.068 -0.201,-1.399 z M 15.707,15.293 C 12.452,12.038 7.221,12 7,12 6.448,12 6.001,12.447 6.001,12.998 6,13.55 6.447,13.998 6.999,14 7.025,14 8.557,14.016 10.36,14.536 10.139,14.797 10,15.131 10,15.5 c 0,0.123 0.019,0.241 0.047,0.356 C 7.331,16.774 5.514,18.115 5.4,18.2 4.958,18.531 4.869,19.158 5.2,19.6 5.396,19.862 5.697,20 6.001,20 6.209,20 6.42,19.935 6.6,19.8 6.637,19.772 10.387,17 15,17 c 0.404,0 0.769,-0.244 0.924,-0.617 0.155,-0.374 0.069,-0.804 -0.217,-1.09 z M 7,21.263 c 0,3.964 4.596,9 11,9 6.404,0 11,-5 11,-9 0,0 -10.333,2.756 -22,0 z"
     id="path6"
     inkscape:connector-curvature="0"
     style="fill:#65471b" />
  <path
     d="M 18.545,23.604 17.454,23.599 C 14.238,23.525 12,23.003 12,23.003 l 0,6.961 c 0,3 2,6 6,6 4,0 6,-3 6,-6 l 0,-6.92 c -1.922,0.395 -3.787,0.543 -5.455,0.56 z"
     id="path8"
     inkscape:connector-curvature="0"
     style="fill:#e8596e" />
  <path
     d="m 18,31.844 c 0.301,0 0.545,-0.244 0.545,-0.545 l 0,-7.694 -1.091,-0.005 0,7.699 c 10e-4,0.301 0.245,0.545 0.546,0.545 z"
     id="path10"
     inkscape:connector-curvature="0"
     style="fill:#dd2f45" />
</svg>
