<?xml version="1.0" encoding="UTF-8" standalone="no"?>
<svg
   xmlns:dc="http://purl.org/dc/elements/1.1/"
   xmlns:cc="http://creativecommons.org/ns#"
   xmlns:rdf="http://www.w3.org/1999/02/22-rdf-syntax-ns#"
   xmlns:svg="http://www.w3.org/2000/svg"
   xmlns="http://www.w3.org/2000/svg"
   xmlns:sodipodi="http://sodipodi.sourceforge.net/DTD/sodipodi-0.dtd"
   xmlns:inkscape="http://www.inkscape.org/namespaces/inkscape"
   viewBox="0 0 36 36"
   id="svg2"
   version="1.1"
   inkscape:version="0.91 r13725"
   sodipodi:docname="1f613.svg"
   width="36"
   height="36">
  <metadata
     id="metadata14">
    <rdf:RDF>
      <cc:Work
         rdf:about="">
        <dc:format>image/svg+xml</dc:format>
        <dc:type
           rdf:resource="http://purl.org/dc/dcmitype/StillImage" />
      </cc:Work>
    </rdf:RDF>
  </metadata>
  <defs
     id="defs12" />
  <sodipodi:namedview
     pagecolor="#ffffff"
     bordercolor="#666666"
     borderopacity="1"
     objecttolerance="10"
     gridtolerance="10"
     guidetolerance="10"
     inkscape:pageopacity="0"
     inkscape:pageshadow="2"
     inkscape:window-width="640"
     inkscape:window-height="480"
     id="namedview10"
     showgrid="false"
     inkscape:zoom="6.5555556"
     inkscape:cx="18"
     inkscape:cy="18"
     inkscape:window-x="0"
     inkscape:window-y="0"
     inkscape:window-maximized="0"
     inkscape:current-layer="svg2" />
  <path
     d="M 36,18 C 36,27.941 27.941,36 18,36 8.06,36 0,27.941 0,18 0,8.06 8.06,0 18,0 27.941,0 36,8.06 36,18"
     id="path4"
     inkscape:connector-curvature="0"
     style="fill:#ffcc4d" />
  <path
     d="M 28.457,17.797 C 28.397,17.662 26.958,14.5 24,14.5 c -2.957,0 -4.397,3.162 -4.457,3.297 -0.092,0.207 -0.032,0.449 0.145,0.591 0.175,0.142 0.426,0.147 0.61,0.014 C 20.31,18.393 21.56,17.5 24,17.5 c 2.426,0 3.674,0.881 3.702,0.901 0.088,0.066 0.194,0.099 0.298,0.099 0.11,0 0.221,-0.037 0.312,-0.109 0.177,-0.142 0.238,-0.386 0.145,-0.594 z m -11,0 C 17.397,17.662 15.958,14.5 13,14.5 c -2.957,0 -4.397,3.162 -4.457,3.297 -0.092,0.207 -0.032,0.449 0.144,0.591 0.176,0.142 0.427,0.147 0.61,0.014 C 9.31,18.393 10.559,17.5 13,17.5 c 2.426,0 3.674,0.881 3.702,0.901 0.089,0.066 0.194,0.099 0.298,0.099 0.11,0 0.221,-0.037 0.312,-0.109 0.178,-0.142 0.237,-0.386 0.145,-0.594 z M 13,28 c 0,0 1,-4 5,-4 4,0 5,4 5,4 0,0 -1,-1 -5,-1 -4,0 -5,1 -5,1 z"
     id="path6"
     inkscape:connector-curvature="0"
     style="fill:#664500" />
  <path
     d="M 11,11 C 11,13.762 8.762,16 6,16 3.239,16 1,13.762 1,11 1,8.238 5,1 6,1 c 1,0 5,7.238 5,10 z"
     id="path8"
     inkscape:connector-curvature="0"
     style="fill:#5dadec" />
</svg>
