<?xml version="1.0" encoding="UTF-8" standalone="no"?>
<svg
   xmlns:dc="http://purl.org/dc/elements/1.1/"
   xmlns:cc="http://creativecommons.org/ns#"
   xmlns:rdf="http://www.w3.org/1999/02/22-rdf-syntax-ns#"
   xmlns:svg="http://www.w3.org/2000/svg"
   xmlns="http://www.w3.org/2000/svg"
   xmlns:sodipodi="http://sodipodi.sourceforge.net/DTD/sodipodi-0.dtd"
   xmlns:inkscape="http://www.inkscape.org/namespaces/inkscape"
   viewBox="0 0 36 36"
   id="svg2"
   version="1.1"
   inkscape:version="0.91 r13725"
   sodipodi:docname="1f61e.svg"
   width="36"
   height="36">
  <metadata
     id="metadata12">
    <rdf:RDF>
      <cc:Work
         rdf:about="">
        <dc:format>image/svg+xml</dc:format>
        <dc:type
           rdf:resource="http://purl.org/dc/dcmitype/StillImage" />
      </cc:Work>
    </rdf:RDF>
  </metadata>
  <defs
     id="defs10" />
  <sodipodi:namedview
     pagecolor="#ffffff"
     bordercolor="#666666"
     borderopacity="1"
     objecttolerance="10"
     gridtolerance="10"
     guidetolerance="10"
     inkscape:pageopacity="0"
     inkscape:pageshadow="2"
     inkscape:window-width="640"
     inkscape:window-height="480"
     id="namedview8"
     showgrid="false"
     inkscape:zoom="6.5555556"
     inkscape:cx="18"
     inkscape:cy="18"
     inkscape:window-x="0"
     inkscape:window-y="0"
     inkscape:window-maximized="0"
     inkscape:current-layer="svg2" />
  <circle
     cx="18"
     cy="18"
     r="18"
     id="circle4"
     style="fill:#ffcc4d" />
  <path
     d="M 23.485,28.879 C 23.474,28.835 22.34,24.5 18,24.5 c -4.34,0 -5.474,4.335 -5.485,4.379 -0.053,0.213 0.044,0.431 0.232,0.544 0.188,0.112 0.433,0.086 0.596,-0.06 C 13.352,29.355 14.356,28.5 18,28.5 c 3.59,0 4.617,0.83 4.656,0.863 0.095,0.09 0.219,0.137 0.344,0.137 0.084,0 0.169,-0.021 0.246,-0.064 0.196,-0.112 0.294,-0.339 0.239,-0.557 z M 11.226,15.512 c -0.317,0 -0.636,0.039 -0.947,0.116 -2.87,0.707 -3.513,4.121 -3.539,4.267 -0.04,0.223 0.076,0.443 0.281,0.54 0.067,0.031 0.14,0.047 0.211,0.047 0.145,0 0.287,-0.063 0.385,-0.18 0.01,-0.012 1.01,-1.178 3.379,-1.761 0.714,-0.176 1.412,-0.265 2.073,-0.265 1.104,0 1.732,0.253 1.735,0.254 0.067,0.028 0.131,0.04 0.207,0.04 0.272,0.012 0.509,-0.221 0.509,-0.5 0,-0.165 -0.08,-0.311 -0.203,-0.402 -0.367,-0.435 -1.953,-2.156 -4.091,-2.156 z m 13.548,0 c 0.317,0 0.636,0.039 0.947,0.116 2.87,0.707 3.513,4.121 3.539,4.267 0.04,0.223 -0.076,0.443 -0.281,0.54 -0.067,0.031 -0.14,0.047 -0.211,0.047 -0.145,0 -0.287,-0.063 -0.385,-0.18 -0.01,-0.012 -1.01,-1.178 -3.379,-1.761 -0.714,-0.176 -1.412,-0.265 -2.073,-0.265 -1.104,0 -1.731,0.253 -1.735,0.254 -0.067,0.028 -0.131,0.04 -0.206,0.04 -0.272,0.012 -0.509,-0.221 -0.509,-0.5 0,-0.165 0.08,-0.311 0.203,-0.402 0.366,-0.435 1.952,-2.156 4.09,-2.156 z"
     id="path6"
     inkscape:connector-curvature="0"
     style="fill:#664500" />
</svg>
