<?xml version="1.0" encoding="UTF-8" standalone="no"?>
<svg
   xmlns:dc="http://purl.org/dc/elements/1.1/"
   xmlns:cc="http://creativecommons.org/ns#"
   xmlns:rdf="http://www.w3.org/1999/02/22-rdf-syntax-ns#"
   xmlns:svg="http://www.w3.org/2000/svg"
   xmlns="http://www.w3.org/2000/svg"
   xmlns:sodipodi="http://sodipodi.sourceforge.net/DTD/sodipodi-0.dtd"
   xmlns:inkscape="http://www.inkscape.org/namespaces/inkscape"
   viewBox="0 0 36 36"
   id="svg2"
   version="1.1"
   inkscape:version="0.91 r13725"
   sodipodi:docname="1f62b.svg"
   width="36"
   height="36">
  <metadata
     id="metadata16">
    <rdf:RDF>
      <cc:Work
         rdf:about="">
        <dc:format>image/svg+xml</dc:format>
        <dc:type
           rdf:resource="http://purl.org/dc/dcmitype/StillImage" />
      </cc:Work>
    </rdf:RDF>
  </metadata>
  <defs
     id="defs14" />
  <sodipodi:namedview
     pagecolor="#ffffff"
     bordercolor="#666666"
     borderopacity="1"
     objecttolerance="10"
     gridtolerance="10"
     guidetolerance="10"
     inkscape:pageopacity="0"
     inkscape:pageshadow="2"
     inkscape:window-width="640"
     inkscape:window-height="480"
     id="namedview12"
     showgrid="false"
     inkscape:zoom="6.5555556"
     inkscape:cx="18"
     inkscape:cy="18"
     inkscape:window-x="0"
     inkscape:window-y="0"
     inkscape:window-maximized="0"
     inkscape:current-layer="svg2" />
  <path
     d="M 36,18 C 36,27.941 27.941,36 18,36 8.059,36 0,27.941 0,18 0,8.059 8.059,0 18,0 27.941,0 36,8.059 36,18"
     id="path4"
     inkscape:connector-curvature="0"
     style="fill:#ffcc4d" />
  <path
     d="M 18,21.5 C 8.667,21.5 7.515,29.854 7.504,29.938 7.483,30.109 7.55,30.278 7.683,30.387 7.773,30.461 7.886,30.5 8,30.5 8.053,30.5 8.106,30.491 8.158,30.475 8.217,30.455 14.126,28.5 18,28.5 c 5.595,0 9.745,1.933 9.786,1.952 0.161,0.077 0.358,0.06 0.507,-0.047 0.147,-0.107 0.226,-0.286 0.203,-0.468 C 28.485,29.854 27.333,21.5 18,21.5 Z M 29,10 C 23.446,10 21.198,5.633 21.105,5.447 20.858,4.953 21.058,4.352 21.552,4.105 22.045,3.859 22.644,4.057 22.892,4.548 22.967,4.694 24.713,8 29,8 c 0.553,0 1,0.448 1,1 0,0.552 -0.447,1 -1,1 z M 7,10 C 6.448,10 6,9.552 6,9 6,8.448 6.448,8 7,8 12.083,8 12.996,4.88 13.033,4.747 13.178,4.219 13.725,3.899 14.252,4.038 14.782,4.177 15.103,4.711 14.97,5.243 14.921,5.437 13.704,10 7,10 Z"
     id="path6"
     inkscape:connector-curvature="0"
     style="fill:#664500" />
  <path
     d="m 18,23 c 4,0 6,2 6,2 l -12,0 c 0,0 2,-2 6,-2 z"
     id="path8"
     inkscape:connector-curvature="0"
     style="fill:#ccd6dd" />
  <path
     d="M 6.001,19 C 5.697,19 5.397,18.862 5.2,18.6 4.868,18.159 4.958,17.532 5.4,17.201 5.543,17.094 8.351,15.018 12.256,14.268 9.781,13.027 7.034,13 6.999,13 6.447,12.998 6,12.55 6.001,11.998 6.001,11.447 6.448,11 7,11 c 0.221,0 5.452,0.038 8.707,3.293 0.286,0.286 0.372,0.716 0.217,1.09 C 15.769,15.756 15.404,16 15,16 10.387,16 6.637,18.772 6.6,18.8 6.42,18.935 6.209,19 6.001,19 Z m 23.998,-0.001 c -0.208,0 -0.418,-0.064 -0.598,-0.198 C 29.363,18.772 25.59,16 21,16 20.596,16 20.23,15.756 20.076,15.383 19.921,15.009 20.007,14.579 20.293,14.293 23.549,11.038 28.779,11 29,11 c 0.552,0 0.998,0.447 0.999,0.998 0.001,0.552 -0.446,1 -0.997,1.002 -0.036,0 -2.783,0.027 -5.258,1.268 3.905,0.75 6.713,2.826 6.855,2.933 0.441,0.331 0.531,0.956 0.201,1.398 -0.196,0.261 -0.496,0.4 -0.801,0.4 z"
     id="path10"
     inkscape:connector-curvature="0"
     style="fill:#664500" />
</svg>
