<?xml version="1.0" encoding="UTF-8" standalone="no"?>
<svg
   xmlns:dc="http://purl.org/dc/elements/1.1/"
   xmlns:cc="http://creativecommons.org/ns#"
   xmlns:rdf="http://www.w3.org/1999/02/22-rdf-syntax-ns#"
   xmlns:svg="http://www.w3.org/2000/svg"
   xmlns="http://www.w3.org/2000/svg"
   xmlns:sodipodi="http://sodipodi.sourceforge.net/DTD/sodipodi-0.dtd"
   xmlns:inkscape="http://www.inkscape.org/namespaces/inkscape"
   viewBox="0 0 36 36"
   id="svg2"
   version="1.1"
   inkscape:version="0.91 r13725"
   sodipodi:docname="1f624.svg"
   width="36"
   height="36">
  <metadata
     id="metadata16">
    <rdf:RDF>
      <cc:Work
         rdf:about="">
        <dc:format>image/svg+xml</dc:format>
        <dc:type
           rdf:resource="http://purl.org/dc/dcmitype/StillImage" />
      </cc:Work>
    </rdf:RDF>
  </metadata>
  <defs
     id="defs14" />
  <sodipodi:namedview
     pagecolor="#ffffff"
     bordercolor="#666666"
     borderopacity="1"
     objecttolerance="10"
     gridtolerance="10"
     guidetolerance="10"
     inkscape:pageopacity="0"
     inkscape:pageshadow="2"
     inkscape:window-width="640"
     inkscape:window-height="480"
     id="namedview12"
     showgrid="false"
     inkscape:zoom="6.5555556"
     inkscape:cx="18"
     inkscape:cy="18"
     inkscape:window-x="0"
     inkscape:window-y="0"
     inkscape:window-maximized="0"
     inkscape:current-layer="svg2" />
  <path
     d="M 36,18 C 36,27.941 27.941,36 18,36 8.059,36 0,27.941 0,18 0,8.059 8.059,0 18,0 27.941,0 36,8.059 36,18"
     id="path4"
     inkscape:connector-curvature="0"
     style="fill:#ffcc4d" />
  <path
     d="M 20.001,13 C 19.946,13 19.892,12.996 19.836,12.986 19.291,12.895 18.923,12.38 19.014,11.835 19.407,9.471 21.584,5 27,5 c 0.553,0 1,0.448 1,1 0,0.552 -0.447,1 -1,1 -5.095,0 -5.979,4.954 -6.014,5.165 C 20.905,12.653 20.481,13 20.001,13 Z m -4.002,0 C 15.52,13 15.097,12.655 15.014,12.167 14.977,11.957 14.059,7 9,7 8.448,7 8,6.552 8,6 8,5.448 8.448,5 9,5 c 5.416,0 7.592,4.471 7.986,6.835 0.091,0.545 -0.277,1.06 -0.822,1.151 C 16.109,12.996 16.053,13 15.999,13 Z m -4.589,4.892 c -2.335,0 -3.87,-0.997 -3.964,-1.06 -0.459,-0.306 -0.583,-0.927 -0.277,-1.387 0.306,-0.46 0.926,-0.585 1.387,-0.277 0.099,0.064 2.602,1.636 5.998,-0.062 0.495,-0.247 1.095,-0.046 1.342,0.447 0.247,0.494 0.047,1.095 -0.447,1.342 -1.495,0.746 -2.868,0.997 -4.039,0.997 z m 13.181,0 c -1.172,0 -2.545,-0.251 -4.038,-0.998 -0.494,-0.247 -0.694,-0.848 -0.447,-1.342 0.248,-0.494 0.848,-0.694 1.342,-0.447 3.4,1.7 5.899,0.126 6.004,0.059 0.46,-0.298 1.081,-0.17 1.382,0.289 0.302,0.459 0.179,1.074 -0.278,1.379 -0.096,0.063 -1.631,1.06 -3.965,1.06 z M 26.001,27 C 25.696,27 25.397,26.862 25.2,26.6 25.175,26.566 22.418,23 18,23 c -4.417,0 -7.174,3.566 -7.202,3.603 -0.333,0.438 -0.961,0.525 -1.4,0.194 C 8.958,26.465 8.869,25.841 9.2,25.4 9.335,25.22 12.562,21 18,21 c 5.438,0 8.665,4.221 8.8,4.4 0.332,0.441 0.242,1.068 -0.2,1.399 C 26.42,26.935 26.21,27 26.001,27 Z"
     id="path6"
     inkscape:connector-curvature="0"
     style="fill:#664500" />
  <path
     d="m 15.391,20.08 c -0.453,-0.195 -0.979,-0.027 -1.239,0.39 l -5,8 C 8.96,28.779 8.949,29.167 9.126,29.485 9.302,29.803 9.636,30 10,30 l 3,0 c 0.459,0 0.859,-0.312 0.97,-0.758 l 2,-8 c 0.119,-0.476 -0.126,-0.97 -0.579,-1.162 z m 11.457,8.39 -5,-8 c -0.262,-0.418 -0.787,-0.584 -1.238,-0.39 -0.453,0.192 -0.699,0.686 -0.579,1.162 l 2,8 C 22.142,29.688 22.541,30 23,30 l 3,0 c 0.363,0 0.698,-0.197 0.875,-0.516 0.176,-0.317 0.166,-0.706 -0.027,-1.014 z"
     id="path8"
     inkscape:connector-curvature="0"
     style="fill:#f5f8fa" />
  <path
     d="M 31.982,30.178 C 31.985,30.118 32,30.061 32,30 32,28.344 30.656,27 29,27 27.973,27 27.068,27.518 26.527,28.305 26.057,28.11 25.541,28 25,28 c -2.209,0 -4,1.791 -4,4 0,2.209 1.791,4 4,4 1.365,0 2.568,-0.687 3.29,-1.731 0.48,1.02 1.508,1.731 2.71,1.731 1.657,0 3,-1.343 3,-3 0,-1.312 -0.846,-2.414 -2.018,-2.822 z M 11,28 C 10.458,28 9.944,28.11 9.473,28.305 8.932,27.518 8.027,27 7,27 5.344,27 4,28.344 4,30 4,30.061 4.014,30.118 4.018,30.178 2.846,30.586 2,31.688 2,33 2,34.657 3.343,36 5,36 6.202,36 7.231,35.289 7.709,34.269 8.432,35.313 9.634,36 11,36 c 2.209,0 4,-1.791 4,-4 0,-2.209 -1.791,-4 -4,-4 z"
     id="path10"
     inkscape:connector-curvature="0"
     style="fill:#e1e8ed" />
</svg>
