<?xml version="1.0" encoding="UTF-8" standalone="no"?>
<svg
   xmlns:dc="http://purl.org/dc/elements/1.1/"
   xmlns:cc="http://creativecommons.org/ns#"
   xmlns:rdf="http://www.w3.org/1999/02/22-rdf-syntax-ns#"
   xmlns:svg="http://www.w3.org/2000/svg"
   xmlns="http://www.w3.org/2000/svg"
   xmlns:sodipodi="http://sodipodi.sourceforge.net/DTD/sodipodi-0.dtd"
   xmlns:inkscape="http://www.inkscape.org/namespaces/inkscape"
   viewBox="0 0 36.002144 35.998295"
   id="svg2"
   version="1.1"
   inkscape:version="0.91 r13725"
   sodipodi:docname="1f63f.svg"
   width="36.002144"
   height="35.998295">
  <metadata
     id="metadata30">
    <rdf:RDF>
      <cc:Work
         rdf:about="">
        <dc:format>image/svg+xml</dc:format>
        <dc:type
           rdf:resource="http://purl.org/dc/dcmitype/StillImage" />
      </cc:Work>
    </rdf:RDF>
  </metadata>
  <defs
     id="defs28" />
  <sodipodi:namedview
     pagecolor="#ffffff"
     bordercolor="#666666"
     borderopacity="1"
     objecttolerance="10"
     gridtolerance="10"
     guidetolerance="10"
     inkscape:pageopacity="0"
     inkscape:pageshadow="2"
     inkscape:window-width="640"
     inkscape:window-height="480"
     id="namedview26"
     showgrid="false"
     inkscape:zoom="6.5555556"
     inkscape:cx="18.001072"
     inkscape:cy="18"
     inkscape:window-x="0"
     inkscape:window-y="0"
     inkscape:window-maximized="0"
     inkscape:current-layer="svg2" />
  <path
     d="m 35.735072,19.927294 c -0.359,-3.269 -0.734,-4.929 -1.734,-6.929 0,0 3,-8.9999999 1,-12.69999987 -0.674,-1.246 -7.404,1.68799997 -10,3.69999997 0,0 -4,-0.998 -7,-0.998 -3,0 -7,0.998 -7,0.998 -2.5959998,-2.012 -9.3259998,-4.94599997 -9.9999998,-3.69999997 -2.00000003,3.69999997 1,12.69999987 1,12.69999987 -1,2 -1.37500003,3.66 -1.73400003,6.929 -0.395,3.584 0.391,6.441 0.73400003,7.071 0.39,0.716 2.367,3.025 5,5 3.9999998,3 9.9999998,4 11.9999998,4 2,0 8,-1 12,-4 2.633,-1.975 4.61,-4.284 5,-5 0.343,-0.63 1.129,-3.487 0.734,-7.071 z"
     id="path4"
     inkscape:connector-curvature="0"
     style="fill:#ffcc4d" />
  <path
     d="m 18.001072,19.498294 c 3,0 3,0.5 3,1.5 0,1 -1.5,3 -3,3 -1.5,0 -3,-2 -3,-3 0,-1 -0.001,-1.5 3,-1.5 z"
     id="path6"
     inkscape:connector-curvature="0"
     style="fill:#e75a70" />
  <path
     d="m 2.0010722,2.9982941 c 0.447,-1.342 5.64,1 6.64,2 0,0 -4.64,3 -5.64,5.9999999 0,0 -2,-4.9999999 -1,-7.9999999 z m 31.9999998,0 c -0.447,-1.342 -5.64,1 -6.64,2 0,0 4.64,3 5.64,5.9999999 0,0 2,-4.9999999 1,-7.9999999 z"
     id="path8"
     inkscape:connector-curvature="0"
     style="fill:#f18f26" />
  <path
     d="m 4.9350722,5.6012941 c 0,-1.414 6.0659998,1.397 5.0659998,2.397 -0.9999998,1 -1.9999998,1.603 -2.9999998,2.6029999 -1,1 -2.066,-3.9999999 -2.066,-4.9999999 z m 26.1319998,0 c 0,-1.414 -6.066,1.397 -5.066,2.397 1,1 2,1.603 3,2.6029999 1,1 2.066,-3.9999999 2.066,-4.9999999 z"
     id="path10"
     inkscape:connector-curvature="0"
     style="fill:#ffcc4d" />
  <path
     d="m 0.70207217,24.998294 c -0.148,0 -0.294,-0.065 -0.393,-0.19 -0.171,-0.217 -0.134,-0.531 0.083,-0.702 0.162,-0.127 4.02000003,-3.12 10.64799983,-2.605 0.275,0.02 0.481,0.261 0.46,0.536 -0.021,0.275 -0.257,0.501 -0.537,0.46 -6.2329998,-0.474 -9.9149998,2.366 -9.9509998,2.395 -0.093,0.071 -0.20200003,0.106 -0.31000003,0.106 z m 8.86800003,-4.663 c -0.049,0 -0.1,-0.007 -0.149,-0.022 -4.79,-1.497 -8.73700003,-0.347 -8.77700003,-0.336 -0.265,0.081 -0.543,-0.07 -0.623,-0.335 -0.079,-0.265 0.071,-0.543 0.335,-0.622 0.173,-0.052 4.28600003,-1.247 9.36200003,0.338 0.264,0.083 0.4109998,0.363 0.3279998,0.627 -0.066,0.213 -0.2629998,0.35 -0.4759998,0.35 z m 25.7299998,4.663 c 0.148,0 0.294,-0.065 0.393,-0.19 0.171,-0.217 0.134,-0.531 -0.083,-0.702 -0.162,-0.127 -4.02,-3.12 -10.648,-2.605 -0.275,0.02 -0.481,0.261 -0.46,0.536 0.021,0.275 0.257,0.501 0.537,0.46 6.233,-0.474 9.915,2.366 9.951,2.395 0.093,0.071 0.202,0.106 0.31,0.106 z m -8.868,-4.663 c 0.049,0 0.1,-0.007 0.149,-0.022 4.79,-1.497 8.737,-0.347 8.777,-0.336 0.265,0.081 0.543,-0.07 0.623,-0.335 0.079,-0.265 -0.071,-0.543 -0.335,-0.622 -0.173,-0.052 -4.286,-1.247 -9.362,0.338 -0.264,0.083 -0.411,0.363 -0.328,0.627 0.065,0.213 0.263,0.35 0.476,0.35 z"
     id="path12"
     inkscape:connector-curvature="0"
     style="fill:#fee7b8" />
  <path
     d="m 25.363072,30.634294 c -0.483,-0.766 -3.415,-5.136 -7.362,-5.136 -4.234,0 -7.3,5.028 -7.428,5.243 -0.121,0.2 -0.085,0.457 0.084,0.619 0.094,0.091 0.219,0.138 0.344,0.138 0.096,0 0.193,-0.027 0.277,-0.084 0.029,-0.02 2.918,-1.916 6.723,-1.916 3.792,0 6.695,1.897 6.723,1.916 0.086,0.058 0.215,0.096 0.281,0.084 0.277,-0.004 0.516,-0.219 0.516,-0.5 0,-0.144 -0.06,-0.272 -0.158,-0.364 z"
     id="path14"
     inkscape:connector-curvature="0"
     style="fill:#292f33" />
  <g
     id="g16"
     style="fill:#292f33"
     transform="translate(0.00107217,-0.00170587)">
    <ellipse
       cx="12"
       cy="14.5"
       rx="2"
       ry="3.5"
       id="ellipse18" />
    <ellipse
       cx="24"
       cy="14.5"
       rx="2"
       ry="3.5"
       id="ellipse20" />
    <path
       d="M 31.001,14 C 30.696,14 30.397,13.862 30.2,13.6 27.559,10.079 24.139,10.001 23.994,10 23.444,9.994 23,9.544 23.003,8.995 23.006,8.444 23.45,8 24,8 c 0.184,0 4.537,0.05 7.8,4.4 0.332,0.442 0.242,1.069 -0.2,1.4 -0.18,0.135 -0.39,0.2 -0.599,0.2 z M 4.999,14 C 4.791,14 4.58,13.935 4.4,13.8 3.958,13.469 3.869,12.842 4.2,12.4 7.462,8.05 11.816,8 12,8 c 0.552,0 1,0.448 1,1 0,0.551 -0.445,0.998 -0.996,1 -0.156,0.002 -3.569,0.086 -6.205,3.6 -0.195,0.262 -0.496,0.4 -0.8,0.4 z"
       id="path22"
       inkscape:connector-curvature="0" />
  </g>
  <path
     d="m 15.001072,30.998294 c 0,2.762 -2.239,5 -5,5 -2.7609998,0 -4.9999998,-2.238 -4.9999998,-5 0,-2.762 4,-13 4.9999998,-13 1,0 5,10.238 5,13 z"
     id="path24"
     inkscape:connector-curvature="0"
     style="fill:#5dadec" />
</svg>
