<?xml version="1.0" encoding="UTF-8" standalone="no"?>
<svg
   xmlns:dc="http://purl.org/dc/elements/1.1/"
   xmlns:cc="http://creativecommons.org/ns#"
   xmlns:rdf="http://www.w3.org/1999/02/22-rdf-syntax-ns#"
   xmlns:svg="http://www.w3.org/2000/svg"
   xmlns="http://www.w3.org/2000/svg"
   xmlns:sodipodi="http://sodipodi.sourceforge.net/DTD/sodipodi-0.dtd"
   xmlns:inkscape="http://www.inkscape.org/namespaces/inkscape"
   viewBox="0 0 36 36"
   id="svg2"
   version="1.1"
   inkscape:version="0.91 r13725"
   sodipodi:docname="1f634.svg"
   width="36"
   height="36">
  <metadata
     id="metadata26">
    <rdf:RDF>
      <cc:Work
         rdf:about="">
        <dc:format>image/svg+xml</dc:format>
        <dc:type
           rdf:resource="http://purl.org/dc/dcmitype/StillImage" />
      </cc:Work>
    </rdf:RDF>
  </metadata>
  <defs
     id="defs24" />
  <sodipodi:namedview
     pagecolor="#ffffff"
     bordercolor="#666666"
     borderopacity="1"
     objecttolerance="10"
     gridtolerance="10"
     guidetolerance="10"
     inkscape:pageopacity="0"
     inkscape:pageshadow="2"
     inkscape:window-width="640"
     inkscape:window-height="480"
     id="namedview22"
     showgrid="false"
     inkscape:zoom="6.5555556"
     inkscape:cx="18"
     inkscape:cy="18"
     inkscape:window-x="0"
     inkscape:window-y="0"
     inkscape:window-maximized="0"
     inkscape:current-layer="svg2" />
  <circle
     cx="18"
     cy="18"
     r="18"
     id="circle4"
     style="fill:#ffcc4d" />
  <circle
     cx="18"
     cy="26"
     r="3"
     id="circle6"
     style="fill:#664500" />
  <path
     d="M 17.312,16.612 C 17.136,16.469 16.885,16.465 16.702,16.598 16.69,16.607 15.442,17.5 13,17.5 10.559,17.5 9.31,16.607 9.3,16.6 9.117,16.463 8.865,16.467 8.689,16.609 c -0.178,0.142 -0.238,0.386 -0.146,0.594 0.06,0.135 1.5,3.297 4.457,3.297 2.958,0 4.397,-3.162 4.457,-3.297 0.092,-0.207 0.032,-0.449 -0.145,-0.591 z m 10,0 C 27.136,16.469 26.886,16.464 26.702,16.598 26.69,16.607 25.441,17.5 23,17.5 c -2.44,0 -3.69,-0.893 -3.7,-0.9 -0.183,-0.137 -0.434,-0.133 -0.611,0.009 -0.178,0.142 -0.238,0.386 -0.146,0.594 0.06,0.135 1.5,3.297 4.457,3.297 2.958,0 4.397,-3.162 4.457,-3.297 0.092,-0.207 0.032,-0.449 -0.145,-0.591 z"
     id="path8"
     inkscape:connector-curvature="0"
     style="fill:#664500" />
  <path
     d="m 34.43,12.534 c 0.004,-0.044 0.023,-0.077 0.023,-0.123 0,-0.754 -0.548,-1.188 -1.225,-1.188 l -3.582,0 4.279,-5.993 c 0.206,-0.283 0.282,-0.453 0.282,-0.811 0,-0.735 -0.64,-0.849 -0.885,-0.849 l -5.349,0 -0.032,-0.688 c 0,0 -1.409,0.831 -1.503,0.888 -0.094,0.057 -0.505,0.372 -0.505,0.987 0,0.754 0.546,1.187 1.225,1.187 l 3.149,0 -4.261,5.993 c -0.094,0.151 -0.244,0.433 -0.244,0.735 0,0.622 0.508,0.924 1.111,0.924 l 6.315,0 c 0.258,0 0.515,-0.076 0.681,-0.176 l 1.503,-0.888 -0.982,0 z"
     id="path10"
     inkscape:connector-curvature="0"
     style="fill:#ffac33" />
  <path
     d="m 31.771,5.084 -3.149,0 c -0.679,0 -1.225,-0.433 -1.225,-1.187 0,-0.754 0.546,-1.188 1.225,-1.188 l 6.164,0 c 0.245,0 0.885,0.113 0.885,0.848 0,0.358 -0.076,0.528 -0.282,0.811 l -4.279,5.993 3.582,0 c 0.677,0 1.225,0.433 1.225,1.187 0,0.754 -0.548,1.187 -1.225,1.187 l -6.315,0 c -0.603,0 -1.111,-0.302 -1.111,-0.924 0,-0.302 0.15,-0.584 0.244,-0.735 l 4.261,-5.992 z"
     id="path12"
     inkscape:connector-curvature="0"
     style="fill:#2a6797" />
  <path
     d="m 24.886,7.48 c 0.003,-0.033 0.018,-0.058 0.018,-0.092 0,-0.564 -0.41,-0.889 -0.917,-0.889 l -2.682,0 3.203,-4.487 C 24.664,1.8 24.72,1.673 24.72,1.406 c 0,-0.55 -0.479,-0.635 -0.663,-0.635 l -4.004,0 -0.024,-0.515 c 0,0 -1.055,0.622 -1.125,0.665 -0.07,0.043 -0.378,0.279 -0.378,0.739 0,0.564 0.409,0.889 0.917,0.889 l 2.357,0 -3.19,4.487 c -0.07,0.113 -0.183,0.324 -0.183,0.55 0,0.466 0.38,0.691 0.832,0.691 l 4.728,0 c 0.193,0 0.385,-0.057 0.51,-0.132 l 1.125,-0.665 -0.736,0 z"
     id="path14"
     inkscape:connector-curvature="0"
     style="fill:#ffac33" />
  <path
     d="m 22.896,1.903 -2.357,0 c -0.508,0 -0.917,-0.324 -0.917,-0.889 0,-0.564 0.409,-0.889 0.917,-0.889 l 4.615,0 c 0.184,0 0.663,0.085 0.663,0.635 0,0.268 -0.057,0.395 -0.211,0.607 l -3.203,4.487 2.682,0 C 25.59,5.854 26,6.178 26,6.743 26,7.308 25.59,7.632 25.083,7.632 l -4.728,0 c -0.452,0 -0.832,-0.226 -0.832,-0.691 0,-0.226 0.113,-0.437 0.183,-0.55 l 3.19,-4.488 z"
     id="path16"
     inkscape:connector-curvature="0"
     style="fill:#2a6797" />
  <path
     d="m 17.741,10.425 c 0.003,-0.028 0.015,-0.049 0.015,-0.079 0,-0.483 -0.351,-0.761 -0.785,-0.761 l -2.295,0 2.742,-3.84 c 0.132,-0.181 0.181,-0.29 0.181,-0.519 0,-0.471 -0.41,-0.544 -0.567,-0.544 l -3.427,0 -0.021,-0.441 -0.963,0.569 c -0.06,0.037 -0.324,0.238 -0.324,0.633 0,0.483 0.35,0.761 0.785,0.761 l 2.017,0 -2.73,3.84 c -0.06,0.097 -0.157,0.278 -0.157,0.471 0,0.399 0.326,0.592 0.712,0.592 l 4.047,0 c 0.165,0 0.33,-0.049 0.436,-0.113 l 0.963,-0.569 -0.629,0 z"
     id="path18"
     inkscape:connector-curvature="0"
     style="fill:#ffac33" />
  <path
     d="m 16.037,5.652 -2.017,0 c -0.435,0 -0.785,-0.278 -0.785,-0.761 0,-0.483 0.35,-0.761 0.785,-0.761 l 3.95,0 c 0.157,0 0.567,0.073 0.567,0.544 0,0.229 -0.048,0.338 -0.181,0.519 l -2.742,3.84 2.295,0 c 0.434,0 0.785,0.278 0.785,0.761 0,0.483 -0.351,0.761 -0.785,0.761 l -4.047,0 c -0.386,0 -0.712,-0.193 -0.712,-0.592 0,-0.193 0.096,-0.374 0.157,-0.471 l 2.73,-3.84 z"
     id="path20"
     inkscape:connector-curvature="0"
     style="fill:#2a6797" />
</svg>
