<?xml version="1.0" encoding="UTF-8" standalone="no"?>
<svg
   xmlns:dc="http://purl.org/dc/elements/1.1/"
   xmlns:cc="http://creativecommons.org/ns#"
   xmlns:rdf="http://www.w3.org/1999/02/22-rdf-syntax-ns#"
   xmlns:svg="http://www.w3.org/2000/svg"
   xmlns="http://www.w3.org/2000/svg"
   xmlns:sodipodi="http://sodipodi.sourceforge.net/DTD/sodipodi-0.dtd"
   xmlns:inkscape="http://www.inkscape.org/namespaces/inkscape"
   viewBox="0 0 36 36"
   id="svg2"
   version="1.1"
   inkscape:version="0.91 r13725"
   sodipodi:docname="1f632.svg"
   width="36"
   height="36">
  <metadata
     id="metadata20">
    <rdf:RDF>
      <cc:Work
         rdf:about="">
        <dc:format>image/svg+xml</dc:format>
        <dc:type
           rdf:resource="http://purl.org/dc/dcmitype/StillImage" />
      </cc:Work>
    </rdf:RDF>
  </metadata>
  <defs
     id="defs18" />
  <sodipodi:namedview
     pagecolor="#ffffff"
     bordercolor="#666666"
     borderopacity="1"
     objecttolerance="10"
     gridtolerance="10"
     guidetolerance="10"
     inkscape:pageopacity="0"
     inkscape:pageshadow="2"
     inkscape:window-width="640"
     inkscape:window-height="480"
     id="namedview16"
     showgrid="false"
     inkscape:zoom="6.5555556"
     inkscape:cx="18"
     inkscape:cy="18"
     inkscape:window-x="0"
     inkscape:window-y="0"
     inkscape:window-maximized="0"
     inkscape:current-layer="svg2" />
  <path
     d="M 36,18 C 36,27.941 27.941,36 18,36 8.06,36 0,27.941 0,18 0,8.06 8.06,0 18,0 27.941,0 36,8.06 36,18"
     id="path4"
     inkscape:connector-curvature="0"
     style="fill:#ffcc4d" />
  <ellipse
     cx="18"
     cy="27"
     rx="5"
     ry="6"
     id="ellipse6"
     style="fill:#664500" />
  <path
     d="M 5.999,11 C 5.791,11 5.58,10.935 5.4,10.8 4.958,10.469 4.869,9.842 5.2,9.4 8.462,5.05 12.816,5 13,5 13.552,5 14,5.448 14,6 14,6.551 13.555,6.998 13.004,7 12.849,7.002 9.436,7.086 6.8,10.6 6.604,10.862 6.303,11 5.999,11 Z m 24.002,0 C 29.696,11 29.397,10.862 29.2,10.6 26.56,7.079 23.139,7.002 22.994,7 22.444,6.994 22,6.544 22.003,5.995 22.006,5.444 22.45,5 23,5 c 0.184,0 4.537,0.05 7.8,4.4 0.332,0.442 0.242,1.069 -0.2,1.4 -0.18,0.135 -0.39,0.2 -0.599,0.2 z"
     id="path8"
     inkscape:connector-curvature="0"
     style="fill:#664500" />
  <path
     d="m 18,23 c -1.657,0 -3,1.79 -3,4 l 6,0 c 0,-2.21 -1.343,-4 -3,-4 z"
     id="path10"
     inkscape:connector-curvature="0"
     style="fill:#f5f8fa" />
  <ellipse
     cx="12"
     cy="14.5"
     rx="2.5"
     ry="3.5"
     id="ellipse12"
     style="fill:#664500" />
  <ellipse
     cx="24"
     cy="14.5"
     rx="2.5"
     ry="3.5"
     id="ellipse14"
     style="fill:#664500" />
</svg>
