<?xml version="1.0" encoding="UTF-8" standalone="no"?>
<svg
   xmlns:dc="http://purl.org/dc/elements/1.1/"
   xmlns:cc="http://creativecommons.org/ns#"
   xmlns:rdf="http://www.w3.org/1999/02/22-rdf-syntax-ns#"
   xmlns:svg="http://www.w3.org/2000/svg"
   xmlns="http://www.w3.org/2000/svg"
   xmlns:sodipodi="http://sodipodi.sourceforge.net/DTD/sodipodi-0.dtd"
   xmlns:inkscape="http://www.inkscape.org/namespaces/inkscape"
   viewBox="0 0 36.002144 35.998295"
   id="svg2"
   version="1.1"
   inkscape:version="0.91 r13725"
   sodipodi:docname="1f63d.svg"
   width="36.002144"
   height="35.998295">
  <metadata
     id="metadata20">
    <rdf:RDF>
      <cc:Work
         rdf:about="">
        <dc:format>image/svg+xml</dc:format>
        <dc:type
           rdf:resource="http://purl.org/dc/dcmitype/StillImage" />
      </cc:Work>
    </rdf:RDF>
  </metadata>
  <defs
     id="defs18" />
  <sodipodi:namedview
     pagecolor="#ffffff"
     bordercolor="#666666"
     borderopacity="1"
     objecttolerance="10"
     gridtolerance="10"
     guidetolerance="10"
     inkscape:pageopacity="0"
     inkscape:pageshadow="2"
     inkscape:window-width="640"
     inkscape:window-height="480"
     id="namedview16"
     showgrid="false"
     inkscape:zoom="6.5555556"
     inkscape:cx="18.001072"
     inkscape:cy="18"
     inkscape:window-x="0"
     inkscape:window-y="0"
     inkscape:window-maximized="0"
     inkscape:current-layer="svg2" />
  <path
     d="m 35.735072,19.927294 c -0.359,-3.269 -0.734,-4.929 -1.734,-6.929 0,0 3,-8.9999999 1,-12.69999987 -0.674,-1.246 -7.404,1.68799997 -10,3.69999997 0,0 -4,-0.998 -7,-0.998 -3,0 -7,0.998 -7,0.998 -2.5959998,-2.012 -9.3259998,-4.94599997 -9.9999998,-3.69999997 -2.00000003,3.69999997 1,12.69999987 1,12.69999987 -1,2 -1.37500003,3.66 -1.73400003,6.929 -0.395,3.584 0.391,6.441 0.73400003,7.071 0.39,0.716 2.367,3.025 5,5 3.9999998,3 9.9999998,4 11.9999998,4 2,0 8,-1 12,-4 2.633,-1.975 4.61,-4.284 5,-5 0.343,-0.63 1.129,-3.487 0.734,-7.071 z"
     id="path4"
     inkscape:connector-curvature="0"
     style="fill:#ffcc4d" />
  <path
     d="m 18.001072,19.498294 c 3,0 3,0.5 3,1.5 0,1 -1.5,3 -3,3 -1.5,0 -3,-2 -3,-3 0,-1 -0.001,-1.5 3,-1.5 z"
     id="path6"
     inkscape:connector-curvature="0"
     style="fill:#e75a70" />
  <path
     d="m 2.0010722,2.9982941 c 0.447,-1.342 5.64,1 6.64,2 0,0 -4.64,3 -5.64,5.9999999 0,0 -2,-4.9999999 -1,-7.9999999 z m 31.9999998,0 c -0.447,-1.342 -5.64,1 -6.64,2 0,0 4.64,3 5.64,5.9999999 0,0 2,-4.9999999 1,-7.9999999 z"
     id="path8"
     inkscape:connector-curvature="0"
     style="fill:#f18f26" />
  <path
     d="m 4.9350722,5.6012941 c 0,-1.414 6.0659998,1.397 5.0659998,2.397 -0.9999998,1 -1.9999998,1.603 -2.9999998,2.6029999 -1,1 -2.066,-3.9999999 -2.066,-4.9999999 z m 26.1319998,0 c 0,-1.414 -6.066,1.397 -5.066,2.397 1,1 2,1.603 3,2.6029999 1,1 2.066,-3.9999999 2.066,-4.9999999 z"
     id="path10"
     inkscape:connector-curvature="0"
     style="fill:#ffcc4d" />
  <path
     d="m 0.70207217,24.998294 c -0.148,0 -0.294,-0.065 -0.393,-0.19 -0.171,-0.217 -0.134,-0.531 0.083,-0.702 0.162,-0.127 4.02000003,-3.12 10.64799983,-2.605 0.275,0.02 0.481,0.261 0.46,0.536 -0.021,0.275 -0.257,0.501 -0.537,0.46 -6.2329998,-0.474 -9.9149998,2.366 -9.9509998,2.395 -0.093,0.071 -0.20200003,0.106 -0.31000003,0.106 z m 8.86800003,-4.663 c -0.049,0 -0.1,-0.007 -0.149,-0.022 -4.79,-1.497 -8.73700003,-0.347 -8.77700003,-0.336 -0.265,0.081 -0.543,-0.07 -0.623,-0.335 -0.079,-0.265 0.071,-0.543 0.335,-0.622 0.173,-0.052 4.28600003,-1.247 9.36200003,0.338 0.264,0.083 0.4109998,0.363 0.3279998,0.627 -0.066,0.213 -0.2629998,0.35 -0.4759998,0.35 z m 25.7299998,4.663 c 0.148,0 0.294,-0.065 0.393,-0.19 0.171,-0.217 0.134,-0.531 -0.083,-0.702 -0.162,-0.127 -4.02,-3.12 -10.648,-2.605 -0.275,0.02 -0.481,0.261 -0.46,0.536 0.021,0.275 0.257,0.501 0.537,0.46 6.233,-0.474 9.915,2.366 9.951,2.395 0.093,0.071 0.202,0.106 0.31,0.106 z m -8.868,-4.663 c 0.049,0 0.1,-0.007 0.149,-0.022 4.79,-1.497 8.737,-0.347 8.777,-0.336 0.265,0.081 0.543,-0.07 0.623,-0.335 0.079,-0.265 -0.071,-0.543 -0.335,-0.622 -0.173,-0.052 -4.286,-1.247 -9.362,0.338 -0.264,0.083 -0.411,0.363 -0.328,0.627 0.065,0.213 0.263,0.35 0.476,0.35 z"
     id="path12"
     inkscape:connector-curvature="0"
     style="fill:#fee7b8" />
  <path
     d="m 21.872072,29.998294 c 1.335,-0.412 2.629,-1.156 2.629,-2.5 0,-2.619 -4.912,-2.968 -5.473,-2.999 -0.277,-0.035 -0.51,0.194 -0.526,0.468 -0.017,0.274 0.19,0.511 0.464,0.53 0.035,0.002 3.535,0.299 3.535,2.001 0,1.702 -3.5,1.999 -3.535,2.001 -0.01,0.001 -0.017,0.006 -0.027,0.008 -0.123,0.008 -0.229,0.064 -0.308,0.157 -0.006,0.007 -0.011,0.016 -0.017,0.022 -0.028,0.039 -0.054,0.078 -0.072,0.124 -0.011,0.027 -0.016,0.057 -0.021,0.086 -0.005,0.023 -0.017,0.046 -0.019,0.07 -10e-4,0.011 0.004,0.021 0.004,0.032 0,0.011 -0.005,0.021 -0.004,0.031 0.002,0.025 0.013,0.046 0.019,0.07 0.006,0.029 0.011,0.059 0.022,0.087 0.013,0.032 0.032,0.06 0.051,0.088 0.017,0.023 0.03,0.047 0.05,0.067 0.023,0.024 0.052,0.043 0.081,0.062 0.024,0.017 0.045,0.033 0.071,0.046 0.031,0.015 0.065,0.021 0.101,0.027 0.023,0.006 0.044,0.018 0.069,0.02 0.035,0.003 3.535,0.3 3.535,2.002 0,1.702 -3.5,1.999 -3.535,2.001 -0.273,0.02 -0.481,0.257 -0.464,0.53 0.017,0.265 0.236,0.469 0.499,0.469 l 0.027,-0.001 c 0.561,-0.031 5.473,-0.38 5.473,-2.999 0,-1.344 -1.294,-2.088 -2.629,-2.5 z m 6.545,-12.277 c -0.061,-0.091 -1.515,-2.223 -4.416,-2.223 -2.9,0 -4.355,2.132 -4.416,2.223 -0.135,0.202 -0.104,0.47 0.071,0.638 0.174,0.167 0.446,0.185 0.643,0.042 0.012,-0.01 1.262,-0.903 3.702,-0.903 2.426,0 3.674,0.881 3.702,0.901 0.089,0.066 0.194,0.099 0.298,0.099 0.124,0 0.248,-0.046 0.344,-0.137 0.177,-0.167 0.207,-0.438 0.072,-0.64 z m -12,0 c -0.061,-0.091 -1.515,-2.223 -4.416,-2.223 -2.8999998,0 -4.3549998,2.132 -4.4159998,2.223 -0.134,0.202 -0.104,0.47 0.071,0.638 0.175,0.167 0.447,0.185 0.642,0.042 0.013,-0.01 1.262,-0.903 3.7029998,-0.903 2.426,0 3.674,0.881 3.702,0.901 0.089,0.066 0.194,0.099 0.298,0.099 0.124,0 0.248,-0.046 0.344,-0.137 0.177,-0.167 0.207,-0.438 0.072,-0.64 z m 14.585,-1.723 c -0.305,0 -0.604,-0.138 -0.801,-0.4 -2.641,-3.521 -6.061,-3.599 -6.206,-3.6 -0.55,-0.006 -0.994,-0.456 -0.991,-1.005 0.003,-0.551 0.447,-0.9949999 0.997,-0.9949999 0.184,0 4.537,0.05 7.8,4.3999999 0.332,0.442 0.242,1.069 -0.2,1.4 -0.18,0.135 -0.39,0.2 -0.599,0.2 z m -26.0019998,0 c -0.208,0 -0.419,-0.065 -0.599,-0.2 -0.442,-0.331 -0.531,-0.958 -0.2,-1.4 3.262,-4.35 7.6159998,-4.3999999 7.7999998,-4.3999999 0.552,0 1,0.4479999 1,0.9999999 0,0.551 -0.445,0.998 -0.996,1 -0.156,0.002 -3.5689998,0.086 -6.2049998,3.6 -0.195,0.262 -0.496,0.4 -0.8,0.4 z"
     id="path14"
     inkscape:connector-curvature="0"
     style="fill:#292f33" />
</svg>
