<?xml version="1.0" encoding="UTF-8" standalone="no"?>
<svg
   xmlns:dc="http://purl.org/dc/elements/1.1/"
   xmlns:cc="http://creativecommons.org/ns#"
   xmlns:rdf="http://www.w3.org/1999/02/22-rdf-syntax-ns#"
   xmlns:svg="http://www.w3.org/2000/svg"
   xmlns="http://www.w3.org/2000/svg"
   xmlns:sodipodi="http://sodipodi.sourceforge.net/DTD/sodipodi-0.dtd"
   xmlns:inkscape="http://www.inkscape.org/namespaces/inkscape"
   viewBox="0 0 36 36.000751"
   id="svg2"
   version="1.1"
   inkscape:version="0.91 r13725"
   sodipodi:docname="1f647-1f3fd-200d-2642-fe0f.svg"
   width="36"
   height="36.000751">
  <metadata
     id="metadata26">
    <rdf:RDF>
      <cc:Work
         rdf:about="">
        <dc:format>image/svg+xml</dc:format>
        <dc:type
           rdf:resource="http://purl.org/dc/dcmitype/StillImage" />
      </cc:Work>
    </rdf:RDF>
  </metadata>
  <defs
     id="defs24" />
  <sodipodi:namedview
     pagecolor="#ffffff"
     bordercolor="#666666"
     borderopacity="1"
     objecttolerance="10"
     gridtolerance="10"
     guidetolerance="10"
     inkscape:pageopacity="0"
     inkscape:pageshadow="2"
     inkscape:window-width="640"
     inkscape:window-height="480"
     id="namedview22"
     showgrid="false"
     inkscape:zoom="6.5555556"
     inkscape:cx="18"
     inkscape:cy="18"
     inkscape:window-x="0"
     inkscape:window-y="0"
     inkscape:window-maximized="0"
     inkscape:current-layer="svg2" />
  <path
     d="m 27,22.000753 -18,0 c 0,0 -9,0 -9,7 0,3.156 4,7 4,7 l 28,0 c 0,0 4,-3.844 4,-7 0,-7 -9,-7 -9,-7 z"
     id="path4"
     inkscape:connector-curvature="0"
     style="fill:#4289c1" />
  <circle
     cx="18"
     cy="28.000753"
     r="3"
     id="circle6"
     style="fill:#cc9b7a" />
  <path
     d="m 9,9.938753 0,11.062 c 0,4.971 4.029,9 9,9 4.971,0 9,-4.029 9,-9 l 0,-10.75 -18,-0.312 z"
     id="path8"
     inkscape:connector-curvature="0"
     style="fill:#d5ab88" />
  <path
     d="m 10.847,17.715753 c 0,1.58 -0.8,2.861 -1.788,2.861 -0.988,0 -1.788,-1.281 -1.788,-2.861 0,-1.58 0.801,-2.861 1.788,-2.861 0.987,0 1.788,1.281 1.788,2.861 z m 17.882,0 c 0,1.58 -0.8,2.861 -1.788,2.861 -0.988,0 -1.788,-1.281 -1.788,-2.861 0,-1.58 0.8,-2.861 1.788,-2.861 0.988,0 1.788,1.281 1.788,2.861 z"
     id="path10"
     inkscape:connector-curvature="0"
     style="fill:#d5ab88" />
  <path
     d="m 18,4.823753 c -7.019,0 -10.139,4.684 -10.139,8.588 0,3.903 1.343,4.986 1.56,3.903 0.78,-3.903 3.12,-5.101 3.12,-5.101 4.68,3.904 3.9,0.781 3.9,0.781 4.679,4.684 2.34,0 2.34,0 1.56,1.562 6.239,1.562 6.239,1.562 0,0 0.78,1.198 1.559,2.759 0.78,1.562 1.56,0 1.56,-3.903 0,-3.905 -3.9,-8.589 -10.139,-8.589 z"
     id="path12"
     inkscape:connector-curvature="0"
     style="fill:#963b22" />
  <path
     d="m 17,34.000753 -5,-1 -2,-1 -3,0 -1,4 11,0 c 1,0 1,-1 1,-1 0,-0.553 -1,-1 -1,-1 z m 9,-2 -2,1 -5,1 c 0,0 -1,0.447 -1,1 0,0 0,1 1,1 l 11,0 -1,-4 -3,0 z"
     id="path14"
     inkscape:connector-curvature="0"
     style="fill:#d5ab88" />
  <path
     d="m 22,22.000753 c -0.553,0 -1,-0.447 -1,-1 l 0,-1 c 0,-0.553 0.447,-1 1,-1 0.553,0 1,0.447 1,1 l 0,1 c 0,0.553 -0.447,1 -1,1 z m -8,0 c -0.552,0 -1,-0.447 -1,-1 l 0,-1 c 0,-0.553 0.448,-1 1,-1 0.552,0 1,0.447 1,1 l 0,1 c 0,0.553 -0.448,1 -1,1 z"
     id="path16"
     inkscape:connector-curvature="0"
     style="fill:#662113" />
  <path
     d="m 19,26.500753 -2,0 c -0.276,0 -0.5,-0.224 -0.5,-0.5 0,-0.276 0.224,-0.5 0.5,-0.5 l 2,0 c 0.276,0 0.5,0.224 0.5,0.5 0,0.276 -0.224,0.5 -0.5,0.5 z"
     id="path18"
     inkscape:connector-curvature="0"
     style="fill:#c1694f" />
  <path
     d="m 5.499,8.000753 c -0.209,0 -0.419,-0.065 -0.599,-0.2 l -4,-3 c -0.442,-0.331 -0.531,-0.958 -0.2,-1.4 0.332,-0.441 0.958,-0.531 1.4,-0.2 l 4,3 c 0.442,0.331 0.531,0.958 0.2,1.4 -0.197,0.262 -0.497,0.4 -0.801,0.4 z m 3.002,-3 c -0.323,0 -0.64,-0.156 -0.833,-0.445 l -2,-3 c -0.306,-0.46 -0.182,-1.08100001 0.277,-1.38700001 0.459,-0.307 1.08,-0.182 1.387,0.277 l 2,3.00000001 c 0.306,0.459 0.182,1.081 -0.277,1.387 -0.171,0.114 -0.364,0.168 -0.554,0.168 z m 22,3 c -0.305,0 -0.604,-0.138 -0.801,-0.4 -0.332,-0.442 -0.242,-1.069 0.2,-1.4 l 4,-3 c 0.44,-0.333 1.068,-0.242 1.399,0.2 0.332,0.442 0.242,1.069 -0.2,1.4 l -4,3 c -0.179,0.135 -0.389,0.2 -0.598,0.2 z m -3.002,-3 c -0.19,0 -0.383,-0.054 -0.554,-0.168 -0.46,-0.306 -0.584,-0.927 -0.277,-1.387 l 2,-3.00000001 c 0.306,-0.459 0.925,-0.585 1.387,-0.277 0.46,0.306 0.584,0.92700001 0.277,1.38700001 l -2,3 c -0.192,0.289 -0.51,0.445 -0.833,0.445 z"
     id="path20"
     inkscape:connector-curvature="0"
     style="fill:#5dadec" />
</svg>
