<?xml version="1.0" encoding="UTF-8" standalone="no"?>
<svg
   xmlns:dc="http://purl.org/dc/elements/1.1/"
   xmlns:cc="http://creativecommons.org/ns#"
   xmlns:rdf="http://www.w3.org/1999/02/22-rdf-syntax-ns#"
   xmlns:svg="http://www.w3.org/2000/svg"
   xmlns="http://www.w3.org/2000/svg"
   xmlns:sodipodi="http://sodipodi.sourceforge.net/DTD/sodipodi-0.dtd"
   xmlns:inkscape="http://www.inkscape.org/namespaces/inkscape"
   viewBox="0 0 36 36"
   id="svg2"
   version="1.1"
   inkscape:version="0.91 r13725"
   sodipodi:docname="1f64f-1f3ff.svg"
   width="36"
   height="36">
  <metadata
     id="metadata26">
    <rdf:RDF>
      <cc:Work
         rdf:about="">
        <dc:format>image/svg+xml</dc:format>
        <dc:type
           rdf:resource="http://purl.org/dc/dcmitype/StillImage" />
      </cc:Work>
    </rdf:RDF>
  </metadata>
  <defs
     id="defs24" />
  <sodipodi:namedview
     pagecolor="#ffffff"
     bordercolor="#666666"
     borderopacity="1"
     objecttolerance="10"
     gridtolerance="10"
     guidetolerance="10"
     inkscape:pageopacity="0"
     inkscape:pageshadow="2"
     inkscape:window-width="640"
     inkscape:window-height="480"
     id="namedview22"
     showgrid="false"
     inkscape:zoom="6.5555556"
     inkscape:cx="18"
     inkscape:cy="18"
     inkscape:window-x="0"
     inkscape:window-y="0"
     inkscape:window-maximized="0"
     inkscape:current-layer="svg2" />
  <path
     d="m 30,22 c -3,0 -6.688,7.094 -7,10 -0.421,3.915 2,4 2,4 l 11,0 0,-10 c 0,0 -3.438,-4 -6,-4 z"
     id="path4"
     inkscape:connector-curvature="0"
     style="fill:#50a5e6" />
  <ellipse
     transform="matrix(0.5,-0.8660254,0.8660254,0.5,0,0)"
     cx="-10.886065"
     cy="38.123783"
     rx="5.848"
     ry="1.638"
     id="ellipse6"
     style="fill:#1c6399" />
  <path
     d="m 20.086,0 c 1.181,0 2.138,0.957 2.138,2.138 0,0.789 0.668,10.824 0.668,10.824 L 17.948,18 l 0,-15.862 C 17.948,0.957 18.905,0 20.086,0 Z"
     id="path8"
     inkscape:connector-curvature="0"
     style="fill:#664131" />
  <path
     d="m 18.875,4.323 c 0,-1.099 0.852,-1.989 1.903,-1.989 1.051,0 1.903,0.891 1.903,1.989 0,0 0.535,5.942 1.192,9.37 0.878,1.866 1.369,4.682 1.261,6.248 0.054,0.398 5.625,5.006 5.625,5.006 C 30.478,26.76 28.5,31.102 26,33.106 l -3.521,-2.924 c -2.885,-0.404 -4.458,-3.331 -4.458,-4.264 0,-2.984 0.854,-21.595 0.854,-21.595 z"
     id="path10"
     inkscape:connector-curvature="0"
     style="fill:#7c533e" />
  <path
     d="m 6,22 c 3,0 6.688,7.094 7,10 0.421,3.915 -2,4 -2,4 L 0,36 0,26 c 0,0 3.438,-4 6,-4 z"
     id="path12"
     inkscape:connector-curvature="0"
     style="fill:#50a5e6" />
  <ellipse
     transform="matrix(0.8660254,-0.5,0.5,0.8660254,0,0)"
     cx="-6.9471025"
     cy="28.884197"
     rx="1.638"
     ry="5.848"
     id="ellipse14"
     style="fill:#1c6399" />
  <path
     d="m 16.061,0.011 c -1.266,-0.127 -2.333,0.864 -2.333,2.103 0,0.78 -0.184,10.319 -0.184,10.319 L 17.895,18 17.957,2.235 c 0,-1.106 -0.795,-2.114 -1.896,-2.224 z"
     id="path16"
     inkscape:connector-curvature="0"
     style="fill:#664131" />
  <path
     d="m 17.125,4.323 c 0,-1.099 -0.852,-1.989 -1.903,-1.989 -1.051,0 -1.903,0.891 -1.903,1.989 0,0 -0.535,5.942 -1.192,9.37 -0.878,1.866 -1.369,4.682 -1.261,6.248 -0.054,0.398 -5.625,5.006 -5.625,5.006 C 5.522,26.76 7.5,31.102 10,33.106 l 3.521,-2.924 c 2.885,-0.404 4.458,-3.331 4.458,-4.264 0,-2.984 -0.854,-21.595 -0.854,-21.595 z"
     id="path18"
     inkscape:connector-curvature="0"
     style="fill:#7c533e" />
  <path
     d="m 18,25.823 c -0.414,0 -0.75,-0.336 -0.75,-0.75 l 0,-22.281 c 0,-0.414 0.336,-0.75 0.75,-0.75 0.414,0 0.75,0.336 0.75,0.75 l 0,22.281 c 0,0.414 -0.336,0.75 -0.75,0.75 z"
     id="path20"
     inkscape:connector-curvature="0"
     style="fill:#664131" />
</svg>
