<?xml version="1.0" encoding="UTF-8" standalone="no"?>
<svg
   xmlns:dc="http://purl.org/dc/elements/1.1/"
   xmlns:cc="http://creativecommons.org/ns#"
   xmlns:rdf="http://www.w3.org/1999/02/22-rdf-syntax-ns#"
   xmlns:svg="http://www.w3.org/2000/svg"
   xmlns="http://www.w3.org/2000/svg"
   xmlns:sodipodi="http://sodipodi.sourceforge.net/DTD/sodipodi-0.dtd"
   xmlns:inkscape="http://www.inkscape.org/namespaces/inkscape"
   viewBox="0 0 36 36.000751"
   id="svg2"
   version="1.1"
   inkscape:version="0.91 r13725"
   sodipodi:docname="1f647-1f3fb-200d-2640-fe0f.svg"
   width="36"
   height="36.000751">
  <metadata
     id="metadata22">
    <rdf:RDF>
      <cc:Work
         rdf:about="">
        <dc:format>image/svg+xml</dc:format>
        <dc:type
           rdf:resource="http://purl.org/dc/dcmitype/StillImage" />
      </cc:Work>
    </rdf:RDF>
  </metadata>
  <defs
     id="defs20" />
  <sodipodi:namedview
     pagecolor="#ffffff"
     bordercolor="#666666"
     borderopacity="1"
     objecttolerance="10"
     gridtolerance="10"
     guidetolerance="10"
     inkscape:pageopacity="0"
     inkscape:pageshadow="2"
     inkscape:window-width="640"
     inkscape:window-height="480"
     id="namedview18"
     showgrid="false"
     inkscape:zoom="6.5555556"
     inkscape:cx="18"
     inkscape:cy="18"
     inkscape:window-x="0"
     inkscape:window-y="0"
     inkscape:window-maximized="0"
     inkscape:current-layer="svg2" />
  <path
     d="m 19,4.000753 c -1.721,0 -3.343,0.406 -4.793,1.111 -0.393,-0.068 -0.795,-0.111 -1.207,-0.111 -3.866,0 -7,3.134 -7,7 l 0,12 0.018,0 c 0.183,6.467 5.471,11.656 11.982,11.656 6.511,0 11.799,-5.189 11.982,-11.656 l 0.018,0 0,-9 c 0,-6.075 -4.925,-11 -11,-11 z"
     id="path4"
     inkscape:connector-curvature="0"
     style="fill:#292f33" />
  <path
     d="m 27,22.000753 -18,0 c 0,0 -9,0 -9,7 0,3.156 4,7 4,7 l 28,0 c 0,0 4,-3.844 4,-7 0,-7 -9,-7 -9,-7 z"
     id="path6"
     inkscape:connector-curvature="0"
     style="fill:#9268ca" />
  <circle
     cx="18"
     cy="28.000753"
     r="3"
     id="circle8"
     style="fill:#eec2ad" />
  <path
     d="m 14,11.000753 c 0,0 -0.003,5.308 -5,5.936 l 0,4.064 c 0,4.971 4.029,9 9,9 4.971,0 9,-4.029 9,-9 l 0,-3.019 c -11.11,-0.376 -13,-6.981 -13,-6.981 z m 3,23 -5,-1 -2,-1 -3,0 -1,4 11,0 c 1,0 1,-1 1,-1 0,-0.553 -1,-1 -1,-1 z m 9,-2 -2,1 -5,1 c 0,0 -1,0.447 -1,1 0,0 0,1 1,1 l 11,0 -1,-4 -3,0 z"
     id="path10"
     inkscape:connector-curvature="0"
     style="fill:#f7dece" />
  <path
     d="m 22,22.000753 c -0.553,0 -1,-0.447 -1,-1 l 0,-1 c 0,-0.553 0.447,-1 1,-1 0.553,0 1,0.447 1,1 l 0,1 c 0,0.553 -0.447,1 -1,1 z m -8,0 c -0.552,0 -1,-0.447 -1,-1 l 0,-1 c 0,-0.553 0.448,-1 1,-1 0.552,0 1,0.447 1,1 l 0,1 c 0,0.553 -0.448,1 -1,1 z"
     id="path12"
     inkscape:connector-curvature="0"
     style="fill:#662113" />
  <path
     d="m 19,26.500753 -2,0 c -0.276,0 -0.5,-0.224 -0.5,-0.5 0,-0.276 0.224,-0.5 0.5,-0.5 l 2,0 c 0.276,0 0.5,0.224 0.5,0.5 0,0.276 -0.224,0.5 -0.5,0.5 z"
     id="path14"
     inkscape:connector-curvature="0"
     style="fill:#c1694f" />
  <path
     d="m 5.499,8.000753 c -0.209,0 -0.419,-0.065 -0.599,-0.2 l -4,-3 c -0.442,-0.331 -0.531,-0.958 -0.2,-1.4 0.332,-0.441 0.958,-0.531 1.4,-0.2 l 4,3 c 0.442,0.331 0.531,0.958 0.2,1.4 -0.197,0.262 -0.497,0.4 -0.801,0.4 z m 3.002,-3 c -0.323,0 -0.64,-0.156 -0.833,-0.445 l -2,-3 c -0.306,-0.46 -0.182,-1.08100001 0.277,-1.38700001 0.459,-0.307 1.08,-0.182 1.387,0.277 l 2,3.00000001 c 0.306,0.459 0.182,1.081 -0.277,1.387 -0.171,0.114 -0.364,0.168 -0.554,0.168 z m 22,3 c -0.305,0 -0.604,-0.138 -0.801,-0.4 -0.332,-0.442 -0.242,-1.069 0.2,-1.4 l 4,-3 c 0.44,-0.333 1.068,-0.242 1.399,0.2 0.332,0.442 0.242,1.069 -0.2,1.4 l -4,3 c -0.179,0.135 -0.389,0.2 -0.598,0.2 z m -3.002,-3 c -0.19,0 -0.383,-0.054 -0.554,-0.168 -0.46,-0.306 -0.584,-0.927 -0.277,-1.387 l 2,-3.00000001 c 0.306,-0.459 0.925,-0.585 1.387,-0.277 0.46,0.306 0.584,0.92700001 0.277,1.38700001 l -2,3 c -0.192,0.289 -0.51,0.445 -0.833,0.445 z"
     id="path16"
     inkscape:connector-curvature="0"
     style="fill:#5dadec" />
</svg>
