<?xml version="1.0" encoding="UTF-8" standalone="no"?>
<svg
   xmlns:dc="http://purl.org/dc/elements/1.1/"
   xmlns:cc="http://creativecommons.org/ns#"
   xmlns:rdf="http://www.w3.org/1999/02/22-rdf-syntax-ns#"
   xmlns:svg="http://www.w3.org/2000/svg"
   xmlns="http://www.w3.org/2000/svg"
   xmlns:sodipodi="http://sodipodi.sourceforge.net/DTD/sodipodi-0.dtd"
   xmlns:inkscape="http://www.inkscape.org/namespaces/inkscape"
   viewBox="0 0 35.304085 36"
   id="svg2"
   version="1.1"
   inkscape:version="0.91 r13725"
   sodipodi:docname="1f64c.svg"
   width="35.304085"
   height="36">
  <metadata
     id="metadata18">
    <rdf:RDF>
      <cc:Work
         rdf:about="">
        <dc:format>image/svg+xml</dc:format>
        <dc:type
           rdf:resource="http://purl.org/dc/dcmitype/StillImage" />
      </cc:Work>
    </rdf:RDF>
  </metadata>
  <defs
     id="defs16" />
  <sodipodi:namedview
     pagecolor="#ffffff"
     bordercolor="#666666"
     borderopacity="1"
     objecttolerance="10"
     gridtolerance="10"
     guidetolerance="10"
     inkscape:pageopacity="0"
     inkscape:pageshadow="2"
     inkscape:window-width="640"
     inkscape:window-height="480"
     id="namedview14"
     showgrid="false"
     inkscape:zoom="6.5555556"
     inkscape:cx="17.657039"
     inkscape:cy="18"
     inkscape:window-x="0"
     inkscape:window-y="0"
     inkscape:window-maximized="0"
     inkscape:current-layer="svg2" />
  <path
     d="m 2.6570385,26 8.0000005,0 0,10 -8.0000005,0 z m 22.0000005,0 8,0 0,10 -8,0 z"
     id="path4"
     inkscape:connector-curvature="0"
     style="fill:#ffdc5d" />
  <path
     d="m 32.657039,28.72 c 0,0 -3,2 -8,1 l 0,-5 8,0 0,4 z m -30.0000005,0 c 0,0 3,2 8.0000005,1 l 0,-5 -8.0000005,0 0,4 z"
     id="path6"
     inkscape:connector-curvature="0"
     style="fill:#f9ca55" />
  <path
     d="m 3.6400385,18.604 8.0000005,0 0,8 -8.0000005,0 z m 20.0230005,-0.5 8,0 0,8 -8,0 z"
     id="path8"
     inkscape:connector-curvature="0"
     style="fill:#ef9645" />
  <path
     d="m 0.03003851,11.835 c 0,0 0.003,-1.225 1.22699999,-1.222 1.226,0.004 1.222,1.229 1.222,1.229 l -0.019,5.684 c 0.195,-0.09 0.399,-0.171 0.613,-0.241 l 0.025,-7.889 c 0,0 0.004,-1.225 1.227,-1.221 1.224,0.003 1.221,1.229 1.221,1.229 l -0.021,7.42 c 0.199,-0.018 0.404,-0.032 0.61,-0.042 l 0.028,-8.602 c 0,0 0.003,-1.225 1.228,-1.22 1.225,0.004 1.22,1.229 1.22,1.229 l -0.028,8.6 c 0.21,0.012 0.412,0.033 0.614,0.052 l 0.025,-8.039 c 0,0 0.004,-1.225 1.2270005,-1.22 1.224,0.003 1.219,1.227 1.219,1.227 l -0.024,8.501 -0.003,0.681 0,0.611 c -3.6740005,-0.009 -6.1330005,3.042 -6.1440005,6.104 0,0.612 0.612,0.616 0.612,0.616 0.01,-3.678 2.467,-6.115 6.1420005,-6.104 l 1.801,-4.188 c 0,0 0.395,-1.159 1.556,-0.762 1.158,0.392 0.765,1.553 0.765,1.553 l -0.893,3.105 c -0.354,1.234 -0.685,2.476 -0.859,3.744 -0.498,3.584 -3.581,6.34 -7.2990005,6.33 C 3.2670385,28.983 -0.01296149,25.685 3.8510125e-5,21.63 0.00103851,21.416 0.01403851,21.212 0.03403851,21.02 l -0.032,-0.004 0.028,-9.181 z m 35.24400049,0 c 0,0 -0.003,-1.225 -1.227,-1.222 -1.226,0.004 -1.223,1.229 -1.223,1.229 l 0.019,5.684 c -0.194,-0.09 -0.399,-0.171 -0.612,-0.241 l -0.025,-7.889 c 0,0 -0.004,-1.225 -1.227,-1.221 -1.225,0.003 -1.222,1.229 -1.222,1.229 l 0.022,7.42 c -0.198,-0.018 -0.403,-0.032 -0.61,-0.042 l -0.027,-8.602 c 0,0 -0.004,-1.225 -1.229,-1.22 -1.225,0.004 -1.22,1.229 -1.22,1.229 l 0.028,8.6 c -0.21,0.012 -0.412,0.033 -0.614,0.052 l -0.025,-8.039 c 0,0 -0.005,-1.225 -1.228,-1.22 -1.224,0.003 -1.219,1.227 -1.219,1.227 l 0.024,8.501 0.003,0.681 0,0.611 c 3.674,-0.009 6.133,3.042 6.145,6.104 0,0.612 -0.612,0.616 -0.612,0.616 -0.011,-3.678 -2.468,-6.115 -6.142,-6.104 l -1.801,-4.188 c 0,0 -0.394,-1.159 -1.556,-0.762 -1.157,0.392 -0.765,1.553 -0.765,1.553 l 0.893,3.105 c 0.354,1.234 0.685,2.476 0.859,3.744 0.498,3.584 3.58,6.34 7.299,6.33 4.055,-0.017 7.336,-3.315 7.322,-7.37 -0.001,-0.214 -0.014,-0.418 -0.034,-0.61 l 0.032,-0.004 -0.028,-9.181 z"
     id="path10"
     inkscape:connector-curvature="0"
     style="fill:#ffdc5d" />
  <path
     d="m 23.198039,6.458 c -0.213,0 -0.429,-0.068 -0.61,-0.208 -0.438,-0.338 -0.518,-0.966 -0.18,-1.403 l 2.979,-3.855 c 0.335,-0.436 0.965,-0.52 1.402,-0.18 0.438,0.338 0.518,0.966 0.18,1.403 l -2.979,3.855 c -0.196,0.255 -0.492,0.388 -0.792,0.388 z m -11.02,0 c -0.299,0 -0.595,-0.134 -0.792,-0.389 L 8.4070385,2.215 c -0.337,-0.437 -0.256,-1.065 0.181,-1.403 0.437,-0.337 1.064,-0.257 1.403,0.18 l 2.9790005,3.855 c 0.337,0.437 0.257,1.065 -0.18,1.403 -0.183,0.141 -0.398,0.208 -0.612,0.208 z M 17.657039,6 c -0.552,0 -1,-0.448 -1,-1 l 0,-4 c 0,-0.552 0.448,-1 1,-1 0.553,0 1,0.448 1,1 l 0,4 c 0,0.552 -0.447,1 -1,1 z"
     id="path12"
     inkscape:connector-curvature="0"
     style="fill:#5dadec" />
</svg>
