<?xml version="1.0" encoding="UTF-8" standalone="no"?>
<svg
   xmlns:dc="http://purl.org/dc/elements/1.1/"
   xmlns:cc="http://creativecommons.org/ns#"
   xmlns:rdf="http://www.w3.org/1999/02/22-rdf-syntax-ns#"
   xmlns:svg="http://www.w3.org/2000/svg"
   xmlns="http://www.w3.org/2000/svg"
   xmlns:sodipodi="http://sodipodi.sourceforge.net/DTD/sodipodi-0.dtd"
   xmlns:inkscape="http://www.inkscape.org/namespaces/inkscape"
   viewBox="0 0 34.119053 35.999825"
   id="svg2"
   version="1.1"
   inkscape:version="0.91 r13725"
   sodipodi:docname="1f648.svg"
   width="34.119053"
   height="35.999825">
  <metadata
     id="metadata36">
    <rdf:RDF>
      <cc:Work
         rdf:about="">
        <dc:format>image/svg+xml</dc:format>
        <dc:type
           rdf:resource="http://purl.org/dc/dcmitype/StillImage" />
      </cc:Work>
    </rdf:RDF>
  </metadata>
  <defs
     id="defs34" />
  <sodipodi:namedview
     pagecolor="#ffffff"
     bordercolor="#666666"
     borderopacity="1"
     objecttolerance="10"
     gridtolerance="10"
     guidetolerance="10"
     inkscape:pageopacity="0"
     inkscape:pageshadow="2"
     inkscape:window-width="640"
     inkscape:window-height="480"
     id="namedview32"
     showgrid="false"
     inkscape:zoom="6.5555556"
     inkscape:cx="17.060526"
     inkscape:cy="18"
     inkscape:window-x="0"
     inkscape:window-y="0"
     inkscape:window-maximized="0"
     inkscape:current-layer="svg2" />
  <path
     d="m 18.045526,34.999824 -1.97,0 c -6.5000004,0 -12.8030004,-4.982 -12.8030004,-11.956 0,-3.985 1.477,-5.978 1.477,-5.978 0,0 -0.492,-1.993 -0.492,-3.985 0,-5.978 6.3030004,-10.96 12.8030004,-10.96 6.5,0 12.803,5.978 12.803,10.96 0,1.993 -0.492,3.985 -0.492,3.985 0,0 1.477,1.993 1.477,5.978 0,6.974 -6.303,11.956 -12.803,11.956 z"
     id="path4"
     inkscape:connector-curvature="0"
     style="fill:#bf6952" />
  <path
     d="m 28.727526,15.378824 c 0,-3.807 -3.087,-6.894 -6.894,-6.894 -1.854,0 -3.534,0.736 -4.773,1.926 -1.239,-1.191 -2.919,-1.926 -4.773,-1.926 -3.8070004,0 -6.8940004,3.087 -6.8940004,6.894 0,2.309 1.14,4.348 2.882,5.599 -0.489,1.212 -0.761,2.546 -0.761,3.946 0,5.565 4.2740004,9.015 9.5450004,9.015 5.271,0 9.545,-3.45 9.545,-9.015 0,-1.401 -0.272,-2.734 -0.761,-3.946 1.744,-1.251 2.884,-3.29 2.884,-5.599 z"
     id="path6"
     inkscape:connector-curvature="0"
     style="fill:#d79e84" />
  <ellipse
     cx="12.060526"
     cy="16.999825"
     rx="2"
     ry="3"
     id="ellipse8"
     style="fill:#292f33" />
  <ellipse
     cx="22.060526"
     cy="16.999825"
     rx="2"
     ry="3"
     id="ellipse10"
     style="fill:#292f33" />
  <path
     d="m 17.060526,31.499824 c 2.715,0 5.027,-1.38 5.895,-3.309 0.359,-0.798 -0.25,-1.691 -1.157,-1.691 l -9.476,0 c -0.907,0 -1.516,0.893 -1.157,1.691 0.868,1.929 3.18,3.309 5.895,3.309 z"
     id="path12"
     inkscape:connector-curvature="0"
     style="fill:#642116" />
  <ellipse
     cx="15.560526"
     cy="21.999825"
     rx="1"
     ry="1.061"
     id="ellipse14"
     style="fill:#642116" />
  <circle
     cx="18.560526"
     cy="21.999825"
     r="1"
     id="circle16"
     style="fill:#642116" />
  <path
     d="m 21.302526,0.16982402 c 0,0 -5.303,-1.061 -7.424,2.12099998 -2.121,3.182 4.242,1.061 4.242,1.061 0,0 1.061,-3.18199998 3.182,-3.18199998 z"
     id="path18"
     inkscape:connector-curvature="0"
     style="fill:#bf6952" />
  <path
     d="m 8.0605256,31.996824 c 0.125,0.659 1.781,1.409 1.781,1.409 l -0.781,-14.41 -2,5.004 c 0,0 0.875,7.337 1,7.997 z m 18.0000004,0 c -0.188,0.722 -1.75,1.378 -1.75,1.378 l 0.751,-14.379 1.999,5.004 c 0,0 -0.812,7.275 -1,7.997 z"
     id="path20"
     inkscape:connector-curvature="0"
     style="fill:#9b3c07" />
  <path
     d="m 1.0605256,35.999824 8,0 -1.012,-15.833 -3.997,-4.168 z m 32.0000004,0 -8,0 1.002,-15.833 3.997,-4.168 z"
     id="path22"
     inkscape:connector-curvature="0"
     style="fill:#bf6952" />
  <path
     d="m 29.668526,15.052824 c 0,0 0.2,-2.476 1.197,-3.542 1.302,-1.393 2.87,-0.314 2.749,1.64 -0.44,7.086 -1.996,9.033 -4.018,10.196 -2.021,1.164 -4.789,0.946 -7.718,-1.872 -2.929,-2.818 -4.158,-4.554 -4.508,-5.797 -0.35,-1.244 0.956,-2.254 2.07,-1.621 1.002,0.569 2.51,2.308 2.51,2.308 0,0 -1.947,-2.696 -2.223,-3.738 -0.382,-1.441 1.322,-2.301 2.247,-1.507 0.912,0.783 2.792,3.156 2.792,3.156 0,0 -1.606,-2.464 -1.754,-3.651 -0.146,-1.172 1.239,-2.208 2.463,-1.186 1.223,1.023 3.189,3.971 4.193,5.614 z m -25.2160004,0 c 0,0 -0.2,-2.476 -1.197,-3.542 -1.302,-1.393 -2.87000002,-0.314 -2.74900002,1.64 0.44,7.086 1.99600002,9.033 4.01800002,10.196 2.021,1.164 4.789,0.946 7.7180004,-1.872 2.929,-2.818 4.158,-4.554 4.508,-5.797 0.35,-1.244 -0.956,-2.254 -2.07,-1.621 -1.002,0.569 -2.51,2.308 -2.51,2.308 0,0 1.947,-2.696 2.223,-3.738 0.382,-1.441 -1.322,-2.301 -2.247,-1.507 -0.912,0.783 -2.7920004,3.156 -2.7920004,3.156 0,0 1.6060004,-2.464 1.7540004,-3.651 0.146,-1.172 -1.2390004,-2.208 -2.4630004,-1.186 -1.224,1.022 -3.189,3.971 -4.193,5.614 z"
     id="path24"
     inkscape:connector-curvature="0"
     style="fill:#d79e84" />
  <path
     d="m 27.142526,24.511824 c -1.83,0 -3.774,-0.909 -5.611,-2.676 -2.795,-2.688 -4.227,-4.546 -4.642,-6.022 -0.217,-0.771 0.034,-1.554 0.656,-2.041 0.592,-0.464 1.362,-0.54 2.036,-0.207 -0.157,-0.308 -0.278,-0.588 -0.337,-0.81 -0.226,-0.851 0.09,-1.666 0.823,-2.126 0.726,-0.456 1.623,-0.412 2.233,0.112 0.084,0.073 0.176,0.157 0.272,0.251 -0.026,-0.107 -0.046,-0.209 -0.058,-0.305 -0.097,-0.776 0.307,-1.553 1.004,-1.934 0.727,-0.396 1.577,-0.281 2.275,0.302 1.12,0.936 2.682,3.211 3.59,4.611 0.187,-0.834 0.523,-1.864 1.115,-2.498 0.681,-0.729 1.536,-0.972 2.292,-0.647 0.879,0.379 1.398,1.423 1.321,2.659 -0.436,7.031 -1.956,9.269 -4.268,10.6 -0.847,0.49 -1.76,0.731 -2.701,0.731 z m -8.422,-10.15 c -0.197,0 -0.391,0.066 -0.559,0.198 -0.301,0.236 -0.417,0.603 -0.311,0.983 0.355,1.26 1.785,3.083 4.373,5.572 2.474,2.378 5.002,3.017 7.123,1.799 1.658,-0.955 3.315,-2.498 3.768,-9.794 0.057,-0.921 -0.32,-1.507 -0.72,-1.679 -0.355,-0.156 -0.771,-0.008 -1.165,0.412 -0.717,0.768 -1.011,2.6 -1.063,3.241 -0.018,0.216 -0.172,0.396 -0.383,0.446 -0.21,0.051 -0.429,-0.042 -0.542,-0.226 -0.963,-1.575 -2.907,-4.504 -4.088,-5.49 -0.52,-0.434 -0.947,-0.307 -1.155,-0.192 -0.341,0.186 -0.538,0.56 -0.491,0.932 0.11,0.88 1.248,2.781 1.678,3.44 0.146,0.224 0.09,0.522 -0.127,0.679 -0.215,0.156 -0.518,0.115 -0.684,-0.095 -0.019,-0.023 -1.861,-2.345 -2.727,-3.087 -0.313,-0.27 -0.765,-0.202 -1.05,-0.024 -0.17,0.107 -0.548,0.42 -0.388,1.023 0.207,0.781 1.618,2.845 2.145,3.574 0.156,0.217 0.115,0.519 -0.095,0.685 -0.209,0.164 -0.513,0.138 -0.688,-0.064 -0.403,-0.466 -1.618,-1.77 -2.378,-2.201 -0.153,-0.089 -0.314,-0.132 -0.473,-0.132 z"
     id="path26"
     inkscape:connector-curvature="0"
     style="fill:#bf6952" />
  <path
     d="m 6.9785256,24.511824 c -0.942,0 -1.854,-0.241 -2.704,-0.73 -2.311,-1.331 -3.83100002,-3.568 -4.26700002,-10.6 -0.077,-1.236 0.442,-2.28 1.32200002,-2.659 0.75,-0.324 1.609,-0.083 2.291,0.647 0.592,0.633 0.929,1.663 1.116,2.498 0.908,-1.399 2.468,-3.674 3.59,-4.611 0.699,-0.585 1.549,-0.699 2.2740004,-0.302 0.698,0.38 1.102,1.158 1.004,1.934 -0.012,0.096 -0.032,0.198 -0.058,0.305 0.097,-0.094 0.188,-0.179 0.273,-0.251 0.608,-0.522 1.507,-0.567 2.232,-0.112 0.734,0.46 1.05,1.275 0.825,2.126 -0.059,0.222 -0.18,0.502 -0.336,0.811 0.672,-0.332 1.443,-0.257 2.034,0.207 0.623,0.487 0.874,1.27 0.657,2.041 -0.416,1.478 -1.848,3.335 -4.643,6.022 -1.836,1.765 -3.7800004,2.674 -5.6100004,2.674 z m -4.964,-13.131 c -0.1,0 -0.196,0.02 -0.29,0.06 -0.399,0.172 -0.77600002,0.758 -0.719,1.679 0.453,7.296 2.11,8.839 3.768,9.794 2.121,1.221 4.648,0.581 7.1220004,-1.799 2.588,-2.488 4.018,-4.311 4.373,-5.572 0.107,-0.38 -0.009,-0.748 -0.31,-0.983 -0.303,-0.238 -0.689,-0.264 -1.032,-0.068 -0.761,0.433 -1.975,1.735 -2.379,2.201 -0.176,0.202 -0.48,0.229 -0.688,0.064 -0.209,-0.166 -0.251,-0.468 -0.095,-0.685 0.526,-0.729 1.938,-2.793 2.146,-3.574 0.16,-0.603 -0.219,-0.916 -0.389,-1.023 -0.284,-0.179 -0.734,-0.248 -1.049,0.024 -0.865,0.743 -2.7070004,3.064 -2.7250004,3.087 -0.166,0.208 -0.467,0.251 -0.684,0.095 -0.217,-0.156 -0.273,-0.455 -0.127,-0.679 0.429,-0.659 1.5680004,-2.561 1.6770004,-3.44 0.046,-0.372 -0.151,-0.746 -0.491,-0.932 -0.2080004,-0.113 -0.6360004,-0.241 -1.1540004,0.192 -1.03,0.86 -2.841,3.449 -4.089,5.49 -0.113,0.185 -0.329,0.278 -0.542,0.226 -0.21,-0.05 -0.365,-0.23 -0.383,-0.446 -0.052,-0.641 -0.346,-2.473 -1.063,-3.241 -0.292,-0.309 -0.594,-0.47 -0.877,-0.47 z"
     id="path28"
     inkscape:connector-curvature="0"
     style="fill:#bf6952" />
  <path
     d="m 25.048526,9.757824 c 0.036,0.026 0.069,0.035 0.106,0.066 1.181,0.986 3.125,3.915 4.088,5.49 0.09,0.146 0.249,0.21 0.414,0.215 0.216,-1.052 0.273,-2.283 0.266,-3.455 -0.247,0.518 -0.425,1.087 -0.538,1.593 -0.908,-1.4 -2.47,-3.675 -3.59,-4.611 -0.666,-0.557 -1.468,-0.672 -2.171,-0.34 0.672,0.226 1.12,0.615 1.425,1.042 z m -20.1700004,5.556 c 1.248,-2.042 3.059,-4.63 4.089,-5.49 0.069,-0.058 0.131,-0.082 0.196,-0.121 0.299,-0.4 0.731,-0.759 1.3590004,-0.976 -0.7080004,-0.349 -1.5220004,-0.235 -2.1970004,0.33 -1.122,0.937 -2.683,3.212 -3.59,4.611 -0.106,-0.472 -0.267,-1.001 -0.488,-1.49 -0.003,1.141 0.057,2.328 0.265,3.349 0.148,-0.02 0.286,-0.082 0.366,-0.213 z"
     id="path30"
     inkscape:connector-curvature="0"
     style="fill:#9b3c07" />
</svg>
