<?xml version="1.0" encoding="UTF-8" standalone="no"?>
<svg
   xmlns:dc="http://purl.org/dc/elements/1.1/"
   xmlns:cc="http://creativecommons.org/ns#"
   xmlns:rdf="http://www.w3.org/1999/02/22-rdf-syntax-ns#"
   xmlns:svg="http://www.w3.org/2000/svg"
   xmlns="http://www.w3.org/2000/svg"
   xmlns:sodipodi="http://sodipodi.sourceforge.net/DTD/sodipodi-0.dtd"
   xmlns:inkscape="http://www.inkscape.org/namespaces/inkscape"
   viewBox="0 0 36 36"
   id="svg2"
   version="1.1"
   inkscape:version="0.91 r13725"
   sodipodi:docname="1f644.svg"
   width="36"
   height="36">
  <metadata
     id="metadata16">
    <rdf:RDF>
      <cc:Work
         rdf:about="">
        <dc:format>image/svg+xml</dc:format>
        <dc:type
           rdf:resource="http://purl.org/dc/dcmitype/StillImage" />
      </cc:Work>
    </rdf:RDF>
  </metadata>
  <defs
     id="defs14" />
  <sodipodi:namedview
     pagecolor="#ffffff"
     bordercolor="#666666"
     borderopacity="1"
     objecttolerance="10"
     gridtolerance="10"
     guidetolerance="10"
     inkscape:pageopacity="0"
     inkscape:pageshadow="2"
     inkscape:window-width="640"
     inkscape:window-height="480"
     id="namedview12"
     showgrid="false"
     inkscape:zoom="6.5555556"
     inkscape:cx="18"
     inkscape:cy="18"
     inkscape:window-x="0"
     inkscape:window-y="0"
     inkscape:window-maximized="0"
     inkscape:current-layer="svg2" />
  <circle
     cx="18"
     cy="18"
     r="18"
     id="circle4"
     style="fill:#ffcc4d" />
  <circle
     cx="24.5"
     cy="13.5"
     r="5.5"
     id="circle6"
     style="fill:#f4f7f9" />
  <circle
     cx="11.5"
     cy="13.5"
     r="5.5"
     id="circle8"
     style="fill:#f4f7f9" />
  <path
     d="m 23.109,23.424 c -2.763,-0.667 -8.873,-0.06 -11.162,4.405 -0.082,0.158 -0.04,0.353 0.1,0.464 0.068,0.055 0.151,0.082 0.234,0.082 0.085,0 0.171,-0.029 0.241,-0.087 3.084,-2.58 7.436,-2.58 10.036,-2.58 1.635,0 2.536,0 2.536,-0.708 0,-0.708 -0.705,-1.268 -1.985,-1.576 z M 10.5,13 C 11.881,13 13,11.881 13,10.5 13,9.248 12.077,8.22 10.876,8.038 10.086,8.127 9.35,8.386 8.698,8.774 8.268,9.223 8,9.829 8,10.5 8,11.881 9.119,13 10.5,13 Z m 13,0 C 24.881,13 26,11.881 26,10.5 26,9.248 25.077,8.22 23.876,8.038 23.087,8.127 22.35,8.386 21.699,8.774 21.268,9.223 21,9.829 21,10.5 c 0,1.381 1.119,2.5 2.5,2.5 z"
     id="path10"
     inkscape:connector-curvature="0"
     style="fill:#65471b" />
</svg>
