<?xml version="1.0" encoding="UTF-8" standalone="no"?>
<svg
   xmlns:dc="http://purl.org/dc/elements/1.1/"
   xmlns:cc="http://creativecommons.org/ns#"
   xmlns:rdf="http://www.w3.org/1999/02/22-rdf-syntax-ns#"
   xmlns:svg="http://www.w3.org/2000/svg"
   xmlns="http://www.w3.org/2000/svg"
   xmlns:sodipodi="http://sodipodi.sourceforge.net/DTD/sodipodi-0.dtd"
   xmlns:inkscape="http://www.inkscape.org/namespaces/inkscape"
   viewBox="0 0 35.02602 35"
   id="svg2"
   version="1.1"
   inkscape:version="0.91 r13725"
   sodipodi:docname="1f680.svg"
   width="35.02602"
   height="35">
  <metadata
     id="metadata20">
    <rdf:RDF>
      <cc:Work
         rdf:about="">
        <dc:format>image/svg+xml</dc:format>
        <dc:type
           rdf:resource="http://purl.org/dc/dcmitype/StillImage" />
      </cc:Work>
    </rdf:RDF>
  </metadata>
  <defs
     id="defs18" />
  <sodipodi:namedview
     pagecolor="#ffffff"
     bordercolor="#666666"
     borderopacity="1"
     objecttolerance="10"
     gridtolerance="10"
     guidetolerance="10"
     inkscape:pageopacity="0"
     inkscape:pageshadow="2"
     inkscape:window-width="640"
     inkscape:window-height="480"
     id="namedview16"
     showgrid="false"
     inkscape:zoom="6.5555556"
     inkscape:cx="17.02702"
     inkscape:cy="17"
     inkscape:window-x="0"
     inkscape:window-y="0"
     inkscape:window-maximized="0"
     inkscape:current-layer="svg2" />
  <path
     d="m 0.02701951,17 7.99999999,-7 16.0000005,1 1,16 -7,8 c 0,0 0.001,-5.999 -6,-12 C 6.0260195,16.999 0.02701951,17 0.02701951,17 Z"
     id="path4"
     inkscape:connector-curvature="0"
     style="fill:#a0041e" />
  <path
     d="m 1.9507771e-5,35 c 0,0 -0.03599999777,-7.979 2.984999992229,-11 3.021,-3.021 11.0420005,-2.813 11.0420005,-2.813 0,0 -10e-4,7.813 -3.001,10.813 C 8.0260195,35 1.9507771e-5,35 1.9507771e-5,35 Z"
     id="path6"
     inkscape:connector-curvature="0"
     style="fill:#ffac33" />
  <circle
     cx="8.0260191"
     cy="27"
     r="4"
     id="circle8"
     style="fill:#ffcc4d" />
  <path
     d="m 35.02602,0 c 0,0 -10,0 -22,10 C 7.0260195,15 7.0260195,24 9.0260195,26 11.02602,28 20.02602,28 25.02602,22 c 10,-12 10,-22 10,-22 z"
     id="path10"
     inkscape:connector-curvature="0"
     style="fill:#55acee" />
  <path
     d="m 26.02602,5 c -1.623,0 -3.013,0.971 -3.641,2.36 0.502,-0.227 1.055,-0.36 1.641,-0.36 2.209,0 4,1.791 4,4 0,0.586 -0.133,1.139 -0.359,1.64 1.389,-0.627 2.359,-2.017 2.359,-3.64 0,-2.209 -1.791,-4 -4,-4 z"
     id="path12"
     inkscape:connector-curvature="0" />
  <path
     d="m 7.0270195,28 c 0,0 0,-4 1,-5 1,-1 13.0010005,-10.999 14.0000005,-10 0.999,0.999 -9.001,13 -10.001,14 -1,1 -4.9990005,1 -4.9990005,1 z"
     id="path14"
     inkscape:connector-curvature="0"
     style="fill:#a0041e" />
</svg>
