<?xml version="1.0" encoding="UTF-8" standalone="no"?>
<svg
   xmlns:dc="http://purl.org/dc/elements/1.1/"
   xmlns:cc="http://creativecommons.org/ns#"
   xmlns:rdf="http://www.w3.org/1999/02/22-rdf-syntax-ns#"
   xmlns:svg="http://www.w3.org/2000/svg"
   xmlns="http://www.w3.org/2000/svg"
   xmlns:sodipodi="http://sodipodi.sourceforge.net/DTD/sodipodi-0.dtd"
   xmlns:inkscape="http://www.inkscape.org/namespaces/inkscape"
   viewBox="0 0 36 35"
   id="svg2"
   version="1.1"
   inkscape:version="0.91 r13725"
   sodipodi:docname="1f689.svg"
   width="36"
   height="35">
  <metadata
     id="metadata48">
    <rdf:RDF>
      <cc:Work
         rdf:about="">
        <dc:format>image/svg+xml</dc:format>
        <dc:type
           rdf:resource="http://purl.org/dc/dcmitype/StillImage" />
      </cc:Work>
    </rdf:RDF>
  </metadata>
  <defs
     id="defs46" />
  <sodipodi:namedview
     pagecolor="#ffffff"
     bordercolor="#666666"
     borderopacity="1"
     objecttolerance="10"
     gridtolerance="10"
     guidetolerance="10"
     inkscape:pageopacity="0"
     inkscape:pageshadow="2"
     inkscape:window-width="640"
     inkscape:window-height="480"
     id="namedview44"
     showgrid="false"
     inkscape:zoom="6.5555556"
     inkscape:cx="18"
     inkscape:cy="18"
     inkscape:window-x="0"
     inkscape:window-y="0"
     inkscape:window-maximized="0"
     inkscape:current-layer="svg2" />
  <path
     d="m 0,35 28,0 -9.625,-17 -8.75,0 z"
     id="path4"
     inkscape:connector-curvature="0"
     style="fill:#a7a9ac" />
  <path
     d="m 2.625,35 22.75,0 -8.75,-17 -5.25,0 z"
     id="path6"
     inkscape:connector-curvature="0"
     style="fill:#58595b" />
  <path
     d="m 5.25,35 17.5,0 -7.875,-17 -1.75,0 z"
     id="path8"
     inkscape:connector-curvature="0"
     style="fill:#808285" />
  <path
     d="m 24,34 c 0,0.553 -0.447,1 -1,1 L 5,35 C 4.448,35 4,34.553 4,34 4,33.447 4.448,33 5,33 l 18,0 c 0.553,0 1,0.447 1,1 z m -2,-4 c 0,0.553 -0.447,1 -1,1 L 7,31 C 6.448,31 6,30.553 6,30 6,29.447 6.448,29 7,29 l 14,0 c 0.553,0 1,0.447 1,1 z m -2,-4 c 0,0.553 -0.447,1 -1,1 L 9,27 C 8.448,27 8,26.553 8,26 8,25.447 8.448,25 9,25 l 10,0 c 0.553,0 1,0.447 1,1 z"
     id="path10"
     inkscape:connector-curvature="0"
     style="fill:#a7a9ac" />
  <path
     d="M 6.896,22.82 C 7.88,24.046 9.186,25 10.5,25 l 7,0 c 1.313,0 2.62,-0.955 3.604,-2.18 l -2.23,-3.938 C 17.685,18.979 16.119,19 14,19 11.843,19 10.26,19.023 9.063,18.992 L 6.896,22.82 Z"
     id="path12"
     inkscape:connector-curvature="0"
     style="fill:#58595b" />
  <path
     d="M 15,2 C 15,2.552 14.552,3 14,3 13.448,3 13,2.552 13,2 l 0,-1 c 0,-0.552 0.448,-1 1,-1 0.552,0 1,0.448 1,1 l 0,1 z"
     id="path14"
     inkscape:connector-curvature="0"
     style="fill:#414042" />
  <path
     d="m 18,4 c 0,1.104 -0.896,2 -2,2 L 12,6 C 10.896,6 10,5.104 10,4 10,2.896 10.896,2 12,2 l 4,0 c 1.104,0 2,0.896 2,2 z"
     id="path16"
     inkscape:connector-curvature="0"
     style="fill:#6d6e71" />
  <path
     d="m 23,17 c 0,2.209 -3.412,5 -5.4,5 l -7.2,0 C 8.412,22 5,19.209 5,17 L 5,7 C 5,4.791 6.612,3 8.6,3 L 19.4,3 C 21.388,3 23,4.791 23,7 l 0,10 z"
     id="path18"
     inkscape:connector-curvature="0"
     style="fill:#d1d3d4" />
  <path
     d="m 21,15 c 0,2.209 -1.791,4 -4,4 l -6,0 C 8.791,19 7,17.209 7,15 L 7,10 C 7,7.791 8.791,7 11,7 l 6,0 c 2.209,0 4,0.791 4,3 l 0,5 z"
     id="path20"
     inkscape:connector-curvature="0"
     style="fill:#808285" />
  <path
     d="m 11,14 6,0 c 2.209,0 4,-1.791 4,-4 L 21,9 7,9 7,10 c 0,2.209 1.791,4 4,4 z"
     id="path22"
     inkscape:connector-curvature="0"
     style="fill:#55acee" />
  <path
     d="M 14,19 C 7.7,19 6.122,17.199 5,15.758 L 5,17 c 0,2.209 2.7,6 5.4,6 l 7.2,0 c 2.7,0 5.4,-3.791 5.4,-6 l 0,-1.891 C 21.879,16.839 20.3,19 14,19 Z"
     id="path24"
     inkscape:connector-curvature="0"
     style="fill:#5c913b" />
  <path
     d="M 11,16.5 C 11,17.328 10.328,18 9.5,18 8.671,18 8,17.328 8,16.5 8,15.671 8.671,15 9.5,15 c 0.828,0 1.5,0.671 1.5,1.5 z m 9,0 C 20,17.328 19.328,18 18.5,18 17.672,18 17,17.328 17,16.5 17,15.671 17.672,15 18.5,15 c 0.828,0 1.5,0.671 1.5,1.5 z"
     id="path26"
     inkscape:connector-curvature="0"
     style="fill:#ffd983" />
  <path
     d="M 21,9 21,7 C 21,5.896 20.104,5 19,5 L 9,5 C 7.896,5 7,5.896 7,7 l 0,2 14,0 z"
     id="path28"
     inkscape:connector-curvature="0"
     style="fill:#292f33" />
  <path
     d="m 17,7 c 0,0.552 -0.447,1 -1,1 L 12,8 C 11.448,8 11,7.552 11,7 11,6.448 11.448,6 12,6 l 4,0 c 0.553,0 1,0.448 1,1 z"
     id="path30"
     inkscape:connector-curvature="0"
     style="fill:#6d6e71" />
  <path
     d="m 23,21.94 9,13.06 4,0 0,-5 -4,0 -9,-10 z"
     id="path32"
     inkscape:connector-curvature="0"
     style="fill:#58595b" />
  <path
     d="m 36,30 0,-10 -13,0 9,10 z"
     id="path34"
     inkscape:connector-curvature="0"
     style="fill:#a7a9ac" />
  <path
     d="m 33,23 c 0,1 0,1 -1,1 -1,0 -1,0 -1,-1 l 0,-11 c 0,-0.552 0.447,-1 1,-1 0.553,0 1,0.448 1,1 l 0,11 z"
     id="path36"
     inkscape:connector-curvature="0"
     style="fill:#6d6e71" />
  <path
     d="m 33,16 c 0,1 0,1 -1,1 -1,0 -1,0 -1,-1 l 0,-7 c 0,-0.552 0.447,-1 1,-1 0.553,0 1,0.448 1,1 l 0,7 z"
     id="path38"
     inkscape:connector-curvature="0"
     style="fill:#939598" />
  <path
     d="m 36,10 c 0,1.104 -0.896,2 -2,2 l -4,0 c -1.104,0 -2,-0.896 -2,-2 l 0,-2 c 0,-1.104 0.896,-2 2,-2 l 4,0 c 1.104,0 2,0.896 2,2 l 0,2 z"
     id="path40"
     inkscape:connector-curvature="0"
     style="fill:#58595b" />
  <path
     d="m 34,9 c 0,0.552 -0.447,1 -1,1 l -2,0 C 30.447,10 30,9.552 30,9 30,8.448 30.447,8 31,8 l 2,0 c 0.553,0 1,0.448 1,1 z"
     id="path42"
     inkscape:connector-curvature="0"
     style="fill:#939598" />
</svg>
