<?xml version="1.0" encoding="UTF-8" standalone="no"?>
<svg
   xmlns:dc="http://purl.org/dc/elements/1.1/"
   xmlns:cc="http://creativecommons.org/ns#"
   xmlns:rdf="http://www.w3.org/1999/02/22-rdf-syntax-ns#"
   xmlns:svg="http://www.w3.org/2000/svg"
   xmlns="http://www.w3.org/2000/svg"
   xmlns:sodipodi="http://sodipodi.sourceforge.net/DTD/sodipodi-0.dtd"
   xmlns:inkscape="http://www.inkscape.org/namespaces/inkscape"
   viewBox="0 0 36 25"
   id="svg2"
   version="1.1"
   inkscape:version="0.91 r13725"
   sodipodi:docname="1f68c.svg"
   width="36"
   height="25">
  <metadata
     id="metadata36">
    <rdf:RDF>
      <cc:Work
         rdf:about="">
        <dc:format>image/svg+xml</dc:format>
        <dc:type
           rdf:resource="http://purl.org/dc/dcmitype/StillImage" />
      </cc:Work>
    </rdf:RDF>
  </metadata>
  <defs
     id="defs34" />
  <sodipodi:namedview
     pagecolor="#ffffff"
     bordercolor="#666666"
     borderopacity="1"
     objecttolerance="10"
     gridtolerance="10"
     guidetolerance="10"
     inkscape:pageopacity="0"
     inkscape:pageshadow="2"
     inkscape:window-width="640"
     inkscape:window-height="480"
     id="namedview32"
     showgrid="false"
     inkscape:zoom="6.5555556"
     inkscape:cx="18"
     inkscape:cy="17"
     inkscape:window-x="0"
     inkscape:window-y="0"
     inkscape:window-maximized="0"
     inkscape:current-layer="svg2" />
  <path
     d="m 0,11 0,7 c 0,1.657 1.343,3 3,3 l 30,0 c 1.657,0 3,-1.343 3,-3 l 0,-7 -36,0 z"
     id="path4"
     inkscape:connector-curvature="0"
     style="fill:#808285" />
  <path
     d="M 36,12 36,3 C 36,1.343 32.657,0 31,0 L 11,0 C 3,0 0,2.343 0,4 l 0,8 36,0 z"
     id="path6"
     inkscape:connector-curvature="0"
     style="fill:#ccd6dd" />
  <path
     d="m 0,12 36,0 0,3 -36,0 z"
     id="path8"
     inkscape:connector-curvature="0"
     style="fill:#939598" />
  <path
     d="M 7,15 C 3.937,15 1.414,17.298 1.05,20.263 1.576,20.716 2.252,21 3,21 l 10,0 c 0,-3.313 -2.686,-6 -6,-6 z m 27.95,5.263 C 34.586,17.298 32.063,15 29,15 c -3.313,0 -6,2.687 -6,6 l 10,0 c 0.749,0 1.425,-0.284 1.95,-0.737 z"
     id="path10"
     inkscape:connector-curvature="0"
     style="fill:#bcbec0" />
  <circle
     cx="7"
     cy="21"
     r="4"
     id="circle12" />
  <circle
     cx="7"
     cy="21"
     r="2"
     id="circle14"
     style="fill:#99aab5" />
  <circle
     cx="29"
     cy="21"
     r="4"
     id="circle16" />
  <circle
     cx="29"
     cy="21"
     r="2"
     id="circle18"
     style="fill:#99aab5" />
  <path
     d="m 0,15 1,0 0,2 -1,0 z m 35,-2 1,0 0,2 -1,0 z"
     id="path20"
     inkscape:connector-curvature="0"
     style="fill:#f4900c" />
  <path
     d="M 1,3 36,3 36,13 1,13 Z"
     id="path22"
     inkscape:connector-curvature="0"
     style="fill:#58595b" />
  <path
     d="M 2,3 0.342,3 C 0.11,3.344 0,3.685 0,4 l 0,11 2,0 c 1.104,0 2,-0.896 2,-2 L 4,5 C 4,3.896 3.104,3 2,3 Z"
     id="path24"
     inkscape:connector-curvature="0"
     style="fill:#292f33" />
  <path
     d="m 31,10 c 0,0.553 -0.447,1 -1,1 L 7,11 C 6.448,11 6,10.553 6,10 L 6,6 C 6,5.448 6.448,5 7,5 l 23,0 c 0.553,0 1,0.448 1,1 l 0,4 z"
     id="path26"
     inkscape:connector-curvature="0"
     style="fill:#55acee" />
  <path
     d="m 35,9 1,0 0,2 -1,0 z"
     id="path28"
     inkscape:connector-curvature="0"
     style="fill:#ffac33" />
  <path
     d="m 1,5 -1,0 0,8 1,0 c 0.552,0 1,-0.447 1,-1 L 2,6 C 2,5.448 1.552,5 1,5 Z"
     id="path30"
     inkscape:connector-curvature="0"
     style="fill:#55acee" />
</svg>
