<?xml version="1.0" encoding="UTF-8" standalone="no"?>
<svg
   xmlns:dc="http://purl.org/dc/elements/1.1/"
   xmlns:cc="http://creativecommons.org/ns#"
   xmlns:rdf="http://www.w3.org/1999/02/22-rdf-syntax-ns#"
   xmlns:svg="http://www.w3.org/2000/svg"
   xmlns="http://www.w3.org/2000/svg"
   xmlns:sodipodi="http://sodipodi.sourceforge.net/DTD/sodipodi-0.dtd"
   xmlns:inkscape="http://www.inkscape.org/namespaces/inkscape"
   viewBox="0 0 36 36"
   id="svg2"
   version="1.1"
   inkscape:version="0.91 r13725"
   sodipodi:docname="1f68b.svg"
   width="36"
   height="36">
  <metadata
     id="metadata34">
    <rdf:RDF>
      <cc:Work
         rdf:about="">
        <dc:format>image/svg+xml</dc:format>
        <dc:type
           rdf:resource="http://purl.org/dc/dcmitype/StillImage" />
      </cc:Work>
    </rdf:RDF>
  </metadata>
  <defs
     id="defs32" />
  <sodipodi:namedview
     pagecolor="#ffffff"
     bordercolor="#666666"
     borderopacity="1"
     objecttolerance="10"
     gridtolerance="10"
     guidetolerance="10"
     inkscape:pageopacity="0"
     inkscape:pageshadow="2"
     inkscape:window-width="640"
     inkscape:window-height="480"
     id="namedview30"
     showgrid="false"
     inkscape:zoom="6.5555556"
     inkscape:cx="18"
     inkscape:cy="18"
     inkscape:window-x="0"
     inkscape:window-y="0"
     inkscape:window-maximized="0"
     inkscape:current-layer="svg2" />
  <path
     d="m 0,34 36,0 0,2 -36,0 z"
     id="path4"
     inkscape:connector-curvature="0"
     style="fill:#939598" />
  <path
     d="m 10,32 c 0,-1.657 -1.344,-3 -3,-3 -1.656,0 -3,1.343 -3,3 0,1.657 1.343,3 3,3 1.657,0 3,-1.343 3,-3 z"
     id="path6"
     inkscape:connector-curvature="0"
     style="fill:#58595b" />
  <path
     d="m 9,32 c 0,-1.105 -0.896,-2 -2,-2 -1.104,0 -2,0.895 -2,2 0,1.105 0.896,2 2,2 1.104,0 2,-0.895 2,-2 z"
     id="path8"
     inkscape:connector-curvature="0"
     style="fill:#292f33" />
  <circle
     cx="29"
     cy="32"
     r="3"
     id="circle10"
     style="fill:#58595b" />
  <circle
     cx="29"
     cy="32"
     r="2"
     id="circle12"
     style="fill:#292f33" />
  <path
     d="M 34,2 2,2 C 1.448,2 1,1.552 1,1 1,0.448 1.448,0 2,0 l 32,0 c 0.553,0 1,0.448 1,1 0,0.552 -0.447,1 -1,1 z"
     id="path14"
     inkscape:connector-curvature="0"
     style="fill:#e6e7e8" />
  <path
     d="M 22.998,4.944 C 22.982,4.66 22.847,4.396 22.625,4.218 L 18.942,1.273 C 19.029,0.971 18.991,0.638 18.78,0.375 18.466,-0.019 17.921,-0.093 17.499,0.154 17.079,-0.094 16.533,-0.02 16.218,0.375 16.007,0.639 15.968,0.972 16.056,1.273 L 12.374,4.218 C 12.152,4.396 12.016,4.659 12,4.944 c -0.016,0.284 0.09,0.561 0.291,0.762 l 3.835,3.834 c -0.198,0.377 -0.152,0.848 0.165,1.165 C 16.488,10.902 16.744,11 17,11 c 0.176,0 0.344,-0.063 0.5,-0.155 0.156,0.091 0.324,0.155 0.5,0.155 0.256,0 0.512,-0.098 0.707,-0.293 0.317,-0.317 0.363,-0.788 0.165,-1.165 L 22.707,5.707 C 22.908,5.505 23.015,5.228 22.998,4.944 Z M 17.5,8.085 14.497,5.082 17.5,2.68 20.503,5.083 17.5,8.085 Z"
     id="path16"
     inkscape:connector-curvature="0"
     style="fill:#66757f" />
  <path
     d="m 30,10 c 0,1.104 -0.896,2 -2,2 L 8,12 C 6.896,12 6,11.104 6,10 6,8.896 6.896,8 8,8 l 20,0 c 1.104,0 2,0.896 2,2 z"
     id="path18"
     inkscape:connector-curvature="0"
     style="fill:#bcbec0" />
  <path
     d="m 36,22 c 0,2.209 -1.791,4 -4,4 L 4,26 C 1.791,26 0,24.209 0,22 l 0,-8 c 0,-2.209 1.791,-4 4,-4 l 28,0 c 2.209,0 4,1.791 4,4 l 0,8 z m -36,6 36,0 0,4 -36,0 z"
     id="path20"
     inkscape:connector-curvature="0"
     style="fill:#e6e7e8" />
  <path
     d="m 0,14 36,0 0,14 -36,0 z"
     id="path22"
     inkscape:connector-curvature="0"
     style="fill:#be1931" />
  <path
     d="m 36,14 -36,0 0,10 6,0 0,6 7,0 0,-6 10,0 0,6 7,0 0,-6 6,0 z"
     id="path24"
     inkscape:connector-curvature="0"
     style="fill:#dd2e44" />
  <path
     d="m 2,16 -2,0 0,10 2,0 c 1.104,0 2,-0.896 2,-2 L 4,18 C 4,16.896 3.104,16 2,16 Z m 34,0 -2,0 c -1.104,0 -2,0.896 -2,2 l 0,6 c 0,1.104 0.896,2 2,2 l 2,0 0,-10 z m -15,6 c 0,0.553 -0.448,1 -1,1 l -4,0 c -0.553,0 -1,-0.447 -1,-1 l 0,-4 c 0,-0.553 0.448,-1 1,-1 l 4,0 c 0.552,0 1,0.447 1,1 l 0,4 z m -9,1 c 0,0.553 -0.448,1 -1,1 L 8,24 C 7.448,24 7,23.553 7,23 l 0,-5 c 0,-0.552 0.448,-1 1,-1 l 3,0 c 0.552,0 1,0.448 1,1 l 0,5 z m 17,0 c 0,0.553 -0.447,1 -1,1 l -3,0 c -0.553,0 -1,-0.447 -1,-1 l 0,-5 c 0,-0.552 0.447,-1 1,-1 l 3,0 c 0.553,0 1,0.448 1,1 l 0,5 z"
     id="path26"
     inkscape:connector-curvature="0"
     style="fill:#55acee" />
  <path
     d="m 0,28 36,0 0,2 -36,0 z"
     id="path28"
     inkscape:connector-curvature="0"
     style="fill:#a0041e" />
</svg>
