<?xml version="1.0" encoding="UTF-8" standalone="no"?>
<svg
   xmlns:dc="http://purl.org/dc/elements/1.1/"
   xmlns:cc="http://creativecommons.org/ns#"
   xmlns:rdf="http://www.w3.org/1999/02/22-rdf-syntax-ns#"
   xmlns:svg="http://www.w3.org/2000/svg"
   xmlns="http://www.w3.org/2000/svg"
   xmlns:sodipodi="http://sodipodi.sourceforge.net/DTD/sodipodi-0.dtd"
   xmlns:inkscape="http://www.inkscape.org/namespaces/inkscape"
   viewBox="0 0 36 36"
   id="svg2"
   version="1.1"
   inkscape:version="0.91 r13725"
   sodipodi:docname="1f687.svg"
   width="36"
   height="36">
  <metadata
     id="metadata28">
    <rdf:RDF>
      <cc:Work
         rdf:about="">
        <dc:format>image/svg+xml</dc:format>
        <dc:type
           rdf:resource="http://purl.org/dc/dcmitype/StillImage" />
      </cc:Work>
    </rdf:RDF>
  </metadata>
  <defs
     id="defs26" />
  <sodipodi:namedview
     pagecolor="#ffffff"
     bordercolor="#666666"
     borderopacity="1"
     objecttolerance="10"
     gridtolerance="10"
     guidetolerance="10"
     inkscape:pageopacity="0"
     inkscape:pageshadow="2"
     inkscape:window-width="640"
     inkscape:window-height="480"
     id="namedview24"
     showgrid="false"
     inkscape:zoom="6.5555556"
     inkscape:cx="18"
     inkscape:cy="18"
     inkscape:window-x="0"
     inkscape:window-y="0"
     inkscape:window-maximized="0"
     inkscape:current-layer="svg2" />
  <path
     d="M 36,18 C 36,27.941 27.941,36 18,36 8.059,36 0,27.941 0,18 0,8.059 8.059,0 18,0 27.941,0 36,8.059 36,18 Z"
     id="path4"
     inkscape:connector-curvature="0"
     style="fill:#292f33" />
  <path
     d="m 8.896,33.509 c 0.7,0.412 1.421,0.79 2.178,1.106 L 17.65,20 16.231,20 8.896,33.509 Z M 19.77,20 l -1.42,0 6.577,14.615 c 0.756,-0.316 1.478,-0.694 2.178,-1.106 L 19.77,20 Z"
     id="path6"
     inkscape:connector-curvature="0"
     style="fill:#808285" />
  <path
     d="m 12,26 2,0 0,2 -2,0 z m 10,0 2,0 0,2 -2,0 z"
     id="path8"
     inkscape:connector-curvature="0"
     style="fill:#58595b" />
  <path
     d="m 26,25 c 0,1.104 -0.896,2 -2,2 l -12,0 c -1.104,0 -2,-0.896 -2,-2 l 0,-2 c 0,-1.104 0.896,-2 2,-2 l 12,0 c 1.104,0 2,0.896 2,2 l 0,2 z"
     id="path10"
     inkscape:connector-curvature="0"
     style="fill:#a7a9ac" />
  <path
     d="M 24.363,6 11.636,6 C 9.628,6 8,7.628 8,9.636 L 8,23 c 0,1.104 0.896,2 2,2 l 16,0 c 1.104,0 2,-0.896 2,-2 L 28,9.636 C 28,7.628 26.372,6 24.363,6 Z"
     id="path12"
     inkscape:connector-curvature="0"
     style="fill:#d1d3d4" />
  <path
     d="m 8,19 0,4 c 0,1.104 0.896,2 2,2 l 16,0 c 1.104,0 2,-0.896 2,-2 l 0,-8 -20,0 0,4 z"
     id="path14"
     inkscape:connector-curvature="0"
     style="fill:#dd2e44" />
  <path
     d="m 26,17 c 0,1.104 -0.896,2 -2,2 l -12,0 c -1.104,0 -2,-0.896 -2,-2 l 0,-7 c 0,-1.104 0.896,-2 2,-2 l 12,0 c 1.104,0 2,0.896 2,2 l 0,7 z"
     id="path16"
     inkscape:connector-curvature="0"
     style="fill:#58595b" />
  <path
     d="m 24,16 c 0,0.552 -0.447,1 -1,1 l -10,0 c -0.552,0 -1,-0.448 -1,-1 l 0,-5 c 0,-0.552 0.448,-1 1,-1 l 10,0 c 0.553,0 1,0.448 1,1 l 0,5 z"
     id="path18"
     inkscape:connector-curvature="0"
     style="fill:#55acee" />
  <path
     d="m 10,21 4,0 0,2 -4,0 z m 12,0 4,0 0,2 -4,0 z"
     id="path20"
     inkscape:connector-curvature="0"
     style="fill:#ffd983" />
  <path
     d="m 20,9 c 0,0.552 -0.447,1 -1,1 l -2,0 C 16.448,10 16,9.552 16,9 16,8.448 16.448,8 17,8 l 2,0 c 0.553,0 1,0.448 1,1 z"
     id="path22"
     inkscape:connector-curvature="0"
     style="fill:#808285" />
</svg>
