<?xml version="1.0" encoding="UTF-8" standalone="no"?>
<svg
   xmlns:dc="http://purl.org/dc/elements/1.1/"
   xmlns:cc="http://creativecommons.org/ns#"
   xmlns:rdf="http://www.w3.org/1999/02/22-rdf-syntax-ns#"
   xmlns:svg="http://www.w3.org/2000/svg"
   xmlns="http://www.w3.org/2000/svg"
   xmlns:sodipodi="http://sodipodi.sourceforge.net/DTD/sodipodi-0.dtd"
   xmlns:inkscape="http://www.inkscape.org/namespaces/inkscape"
   viewBox="0 0 36 33"
   id="svg2"
   version="1.1"
   inkscape:version="0.91 r13725"
   sodipodi:docname="1f682.svg"
   width="36"
   height="33">
  <metadata
     id="metadata52">
    <rdf:RDF>
      <cc:Work
         rdf:about="">
        <dc:format>image/svg+xml</dc:format>
        <dc:type
           rdf:resource="http://purl.org/dc/dcmitype/StillImage" />
      </cc:Work>
    </rdf:RDF>
  </metadata>
  <defs
     id="defs50" />
  <sodipodi:namedview
     pagecolor="#ffffff"
     bordercolor="#666666"
     borderopacity="1"
     objecttolerance="10"
     gridtolerance="10"
     guidetolerance="10"
     inkscape:pageopacity="0"
     inkscape:pageshadow="2"
     inkscape:window-width="640"
     inkscape:window-height="480"
     id="namedview48"
     showgrid="false"
     inkscape:zoom="6.5555556"
     inkscape:cx="18"
     inkscape:cy="18"
     inkscape:window-x="0"
     inkscape:window-y="0"
     inkscape:window-maximized="0"
     inkscape:current-layer="svg2" />
  <path
     d="m 0,31 36,0 0,2 -36,0 z"
     id="path4"
     inkscape:connector-curvature="0"
     style="fill:#939598" />
  <path
     d="m 6,24 29,0 0,5 -29,0 z"
     id="path6"
     inkscape:connector-curvature="0"
     style="fill:#231f20" />
  <circle
     cx="6.9990001"
     cy="29"
     r="3"
     id="circle8"
     style="fill:#58595b" />
  <circle
     cx="12.999"
     cy="29"
     r="3"
     id="circle10"
     style="fill:#58595b" />
  <circle
     cx="6.9990001"
     cy="29"
     r="1.5"
     id="circle12"
     style="fill:#a0041e" />
  <circle
     cx="12.999"
     cy="29"
     r="1.5"
     id="circle14"
     style="fill:#a0041e" />
  <path
     d="m 5,30 -4,0 c -1,0 -1.5,-0.5 0,-2 l 4,-4 c 1,-1 2,-2.001 2,0 l 0,4 c 0,2 -0.001,2 -2,2 z"
     id="path16"
     inkscape:connector-curvature="0"
     style="fill:#dd2e44" />
  <path
     d="m 8,17 c 0,3.313 -1.343,6 -3,6 -1.657,0 -3,-2.687 -3,-6 0,-3.314 1.343,-6 3,-6 1.657,0 3,2.686 3,6 z"
     id="path18"
     inkscape:connector-curvature="0"
     style="fill:#231f20" />
  <path
     d="M 11,12 7,12 5,4 13,4 Z"
     id="path20"
     inkscape:connector-curvature="0"
     style="fill:#6d6e71" />
  <path
     d="m 26,22 c 0,1.104 -0.896,2 -2,2 L 6,24 C 4.896,24 4,23.104 4,22 L 4,12 c 0,-1.104 0.896,-2 2,-2 l 18,0 c 1.104,0 2,0.896 2,2 l 0,10 z"
     id="path22"
     inkscape:connector-curvature="0"
     style="fill:#414042" />
  <path
     d="m 13,23 c 0,0.553 -0.448,1 -1,1 -0.552,0 -1,-0.447 -1,-1 l 0,-13 c 0,-0.552 0.448,-1 1,-1 0.552,0 1,0.448 1,1 l 0,13 z m 6,0 c 0,0.553 -0.447,1 -1,1 -0.553,0 -1,-0.447 -1,-1 l 0,-13 c 0,-0.552 0.447,-1 1,-1 0.553,0 1,0.448 1,1 l 0,13 z"
     id="path24"
     inkscape:connector-curvature="0"
     style="fill:#c1694f" />
  <path
     d="m 36,23 c 0,0.553 -0.447,1 -1,1 L 7,24 C 6.448,24 6,23.553 6,23 6,22.447 6.448,22 7,22 l 28,0 c 0.553,0 1,0.447 1,1 z"
     id="path26"
     inkscape:connector-curvature="0"
     style="fill:#808285" />
  <circle
     cx="29.999001"
     cy="28"
     r="4"
     id="circle28"
     style="fill:#58595b" />
  <circle
     cx="21.999001"
     cy="28"
     r="4"
     id="circle30"
     style="fill:#58595b" />
  <circle
     cx="29.999001"
     cy="28"
     r="2"
     id="circle32"
     style="fill:#a0041e" />
  <circle
     cx="21.999001"
     cy="28"
     r="2"
     id="circle34"
     style="fill:#a0041e" />
  <path
     d="M 12,0 6,0 C 5.448,0 5,0.448 5,1 l 0,3 8,0 0,-3 C 13,0.448 12.552,0 12,0 Z"
     id="path36"
     inkscape:connector-curvature="0"
     style="fill:#414042" />
  <path
     d="m 23,4 12,0 0,18 -12,0 z"
     id="path38"
     inkscape:connector-curvature="0"
     style="fill:#be1931" />
  <path
     d="m 36,3 c 0,0.552 -0.447,1 -1,1 L 23,4 C 22.447,4 22,3.552 22,3 22,2.448 22.447,2 23,2 l 12,0 c 0.553,0 1,0.448 1,1 z"
     id="path40"
     inkscape:connector-curvature="0"
     style="fill:#a0041e" />
  <path
     d="m 25,15 8,0 0,5 -8,0 z"
     id="path42"
     inkscape:connector-curvature="0"
     style="fill:#ea596e" />
  <path
     d="m 30,29 -8,0 c -0.127,0 -0.253,-0.024 -0.371,-0.071 L 16.807,27 10,27 C 9.448,27 9,26.553 9,26 9,25.447 9.448,25 10,25 l 7,0 c 0.128,0 0.253,0.024 0.372,0.071 L 22.192,27 30,27 c 0.553,0 1,0.447 1,1 0,0.553 -0.447,1 -1,1 z"
     id="path44"
     inkscape:connector-curvature="0"
     style="fill:#f4900c" />
  <path
     d="M 33,7 C 33,6.448 32.553,6 32,6 l -6,0 c -0.553,0 -1,0.448 -1,1 l 0,5 c 0,0.552 0.447,1 1,1 l 6,0 c 0.553,0 1,-0.448 1,-1 l 0,-5 z"
     id="path46"
     inkscape:connector-curvature="0"
     style="fill:#55acee" />
</svg>
