<?xml version="1.0" encoding="UTF-8" standalone="no"?>
<svg
   xmlns:dc="http://purl.org/dc/elements/1.1/"
   xmlns:cc="http://creativecommons.org/ns#"
   xmlns:rdf="http://www.w3.org/1999/02/22-rdf-syntax-ns#"
   xmlns:svg="http://www.w3.org/2000/svg"
   xmlns="http://www.w3.org/2000/svg"
   xmlns:sodipodi="http://sodipodi.sourceforge.net/DTD/sodipodi-0.dtd"
   xmlns:inkscape="http://www.inkscape.org/namespaces/inkscape"
   viewBox="0 0 32 36"
   id="svg2"
   version="1.1"
   inkscape:version="0.91 r13725"
   sodipodi:docname="1f68a.svg"
   width="32"
   height="36">
  <metadata
     id="metadata36">
    <rdf:RDF>
      <cc:Work
         rdf:about="">
        <dc:format>image/svg+xml</dc:format>
        <dc:type
           rdf:resource="http://purl.org/dc/dcmitype/StillImage" />
      </cc:Work>
    </rdf:RDF>
  </metadata>
  <defs
     id="defs34" />
  <sodipodi:namedview
     pagecolor="#ffffff"
     bordercolor="#666666"
     borderopacity="1"
     objecttolerance="10"
     gridtolerance="10"
     guidetolerance="10"
     inkscape:pageopacity="0"
     inkscape:pageshadow="2"
     inkscape:window-width="640"
     inkscape:window-height="480"
     id="namedview32"
     showgrid="false"
     inkscape:zoom="6.5555556"
     inkscape:cx="16"
     inkscape:cy="18"
     inkscape:window-x="0"
     inkscape:window-y="0"
     inkscape:window-maximized="0"
     inkscape:current-layer="svg2" />
  <path
     d="M 0,36 32,36 21,19 11,19 Z"
     id="path4"
     inkscape:connector-curvature="0"
     style="fill:#a7a9ac" />
  <path
     d="M 3,36 29,36 19,19 13,19 Z"
     id="path6"
     inkscape:connector-curvature="0"
     style="fill:#58595b" />
  <path
     d="m 6,36 20,0 -9,-17 -2,0 z"
     id="path8"
     inkscape:connector-curvature="0"
     style="fill:#808285" />
  <path
     d="m 26,35 c 0,0.553 -0.447,1 -1,1 L 7,36 C 6.448,36 6,35.553 6,35 6,34.447 6.448,34 7,34 l 18,0 c 0.553,0 1,0.447 1,1 z m -2,-4 c 0,0.553 -0.447,1 -1,1 L 9,32 C 8.448,32 8,31.553 8,31 8,30.447 8.448,30 9,30 l 14,0 c 0.553,0 1,0.447 1,1 z m -2,-4 c 0,0.553 -0.447,1 -1,1 l -10,0 c -0.552,0 -1,-0.447 -1,-1 0,-0.553 0.448,-1 1,-1 l 10,0 c 0.553,0 1,0.447 1,1 z"
     id="path10"
     inkscape:connector-curvature="0"
     style="fill:#a7a9ac" />
  <path
     d="M 7.881,23.82 C 9.006,25.046 10.498,26 12,26 l 8,0 c 1.501,0 2.994,-0.955 4.119,-2.18 L 21.57,19.882 C 20.211,19.979 18.422,20 16,20 13.535,20 11.726,20.023 10.358,19.992 L 7.881,23.82 Z"
     id="path12"
     inkscape:connector-curvature="0"
     style="fill:#58595b" />
  <path
     d="M 17,2 C 17,2.552 16.552,3 16,3 15.448,3 15,2.552 15,2 l 0,-1 c 0,-0.552 0.448,-1 1,-1 0.552,0 1,0.448 1,1 l 0,1 z"
     id="path14"
     inkscape:connector-curvature="0"
     style="fill:#414042" />
  <path
     d="m 20,4 c 0,1.104 -0.896,2 -2,2 L 14,6 C 12.896,6 12,5.104 12,4 12,2.896 12.896,2 14,2 l 4,0 c 1.104,0 2,0.896 2,2 z"
     id="path16"
     inkscape:connector-curvature="0"
     style="fill:#6d6e71" />
  <path
     d="m 26,18 c 0,2.209 -3.791,5 -6,5 l -8,0 C 9.791,23 6,20.209 6,18 L 6,7 C 6,4.791 7.791,3 10,3 l 12,0 c 2.209,0 4,1.791 4,4 l 0,11 z"
     id="path18"
     inkscape:connector-curvature="0"
     style="fill:#d1d3d4" />
  <path
     d="m 23,16 c 0,2.209 -1.791,4 -4,4 l -6,0 C 10.791,20 9,18.209 9,16 L 9,11 C 9,8.791 10.791,7 13,7 l 6,0 c 2.209,0 4,1.791 4,4 l 0,5 z"
     id="path20"
     inkscape:connector-curvature="0"
     style="fill:#808285" />
  <path
     d="m 13,15 6,0 c 2.209,0 4,-1.791 4,-4 L 23,9 9,9 9,11 c 0,2.209 1.791,4 4,4 z"
     id="path22"
     inkscape:connector-curvature="0"
     style="fill:#55acee" />
  <path
     d="M 16,20 C 9,20 7.246,18.199 6,16.758 L 6,18 c 0,2.209 3,6 6,6 l 8,0 c 3,0 6,-3.791 6,-6 l 0,-1.891 C 24.754,17.839 23,20 16,20 Z"
     id="path24"
     inkscape:connector-curvature="0"
     style="fill:#5c913b" />
  <path
     d="M 13,17.5 C 13,18.328 12.328,19 11.5,19 10.671,19 10,18.328 10,17.5 10,16.671 10.672,16 11.5,16 c 0.828,0 1.5,0.671 1.5,1.5 z m 9,0 C 22,18.328 21.328,19 20.5,19 19.672,19 19,18.328 19,17.5 19,16.671 19.672,16 20.5,16 c 0.828,0 1.5,0.671 1.5,1.5 z"
     id="path26"
     inkscape:connector-curvature="0"
     style="fill:#ffd983" />
  <path
     d="M 23,9 23,7 C 23,5.896 22.104,5 21,5 L 11,5 C 9.896,5 9,5.896 9,7 l 0,2 14,0 z"
     id="path28"
     inkscape:connector-curvature="0"
     style="fill:#292f33" />
  <path
     d="m 19,7 c 0,0.552 -0.447,1 -1,1 L 14,8 C 13.448,8 13,7.552 13,7 13,6.448 13.448,6 14,6 l 4,0 c 0.553,0 1,0.448 1,1 z"
     id="path30"
     inkscape:connector-curvature="0"
     style="fill:#6d6e71" />
</svg>
