<?xml version="1.0" encoding="UTF-8" standalone="no"?>
<svg
   xmlns:dc="http://purl.org/dc/elements/1.1/"
   xmlns:cc="http://creativecommons.org/ns#"
   xmlns:rdf="http://www.w3.org/1999/02/22-rdf-syntax-ns#"
   xmlns:svg="http://www.w3.org/2000/svg"
   xmlns="http://www.w3.org/2000/svg"
   xmlns:sodipodi="http://sodipodi.sourceforge.net/DTD/sodipodi-0.dtd"
   xmlns:inkscape="http://www.inkscape.org/namespaces/inkscape"
   viewBox="0 0 35.482269 32"
   id="svg2"
   version="1.1"
   inkscape:version="0.91 r13725"
   sodipodi:docname="1f681.svg"
   width="35.482269"
   height="32">
  <metadata
     id="metadata32">
    <rdf:RDF>
      <cc:Work
         rdf:about="">
        <dc:format>image/svg+xml</dc:format>
        <dc:type
           rdf:resource="http://purl.org/dc/dcmitype/StillImage" />
      </cc:Work>
    </rdf:RDF>
  </metadata>
  <defs
     id="defs30" />
  <sodipodi:namedview
     pagecolor="#ffffff"
     bordercolor="#666666"
     borderopacity="1"
     objecttolerance="10"
     gridtolerance="10"
     guidetolerance="10"
     inkscape:pageopacity="0"
     inkscape:pageshadow="2"
     inkscape:window-width="640"
     inkscape:window-height="480"
     id="namedview28"
     showgrid="false"
     inkscape:zoom="6.5555556"
     inkscape:cx="17.741"
     inkscape:cy="16"
     inkscape:window-x="0"
     inkscape:window-y="0"
     inkscape:window-maximized="0"
     inkscape:current-layer="svg2" />
  <path
     d="m 16.001,24 2,0 0,5 -2,0 z m -7.9999998,0 1.9999998,0 0,5 -1.9999998,0 z"
     id="path4"
     inkscape:connector-curvature="0"
     style="fill:#66757f" />
  <ellipse
     cx="6"
     cy="1"
     rx="6"
     ry="1"
     id="ellipse6"
     style="fill:#99aab5" />
  <ellipse
     cx="20"
     cy="1"
     rx="6"
     ry="1"
     id="ellipse8"
     style="fill:#99aab5" />
  <path
     d="m 12.001,1 2,0 0,6 -2,0 z"
     id="path10"
     inkscape:connector-curvature="0"
     style="fill:#99aab5" />
  <ellipse
     cx="13"
     cy="1"
     rx="2"
     ry="1"
     id="ellipse12"
     style="fill:#66757f" />
  <path
     d="m 34,8 c 0,-3 0,-7 -1,-7 -1,0 -3,4 -4,6 -1,2 5,1 5,1 z"
     id="path14"
     inkscape:connector-curvature="0"
     style="fill:#ffcc4d" />
  <path
     d="M 34,8 C 34,5.791 26,5 15,5 L 13,5 C 6.3730002,5 0.25000018,10.451 0.25000018,16.25 0.25000018,22.049 4.0000002,26 13,26 22,26 25,21.299 25,15.5 25,14.619 24.862,13.769 24.629,12.951 29,12 34,10.006 34,8 Z"
     id="path16"
     inkscape:connector-curvature="0"
     style="fill:#ffcc4d" />
  <path
     d="m 4.0000002,11 c -2.091,2.918 -3.06800002,7.589 1.213,7.784 C 10,19 12,19 13.063,16.412 14.427,13.092 14,8.999 12.787,8.217 10.467,6.72 6.0920002,8.082 4.0000002,11 Z M 20.841,10.535 C 23,14 22.911,16.696 19,18 16,19 15,16 15.159,12.465 15.271,9.982 15.365,8.27 17,8 c 1.447,-0.24 2.526,0.426 3.841,2.535 z"
     id="path18"
     inkscape:connector-curvature="0"
     style="fill:#3b88c3" />
  <path
     d="m 31.182,5.114 c 0.903,1.273 1.271,2.564 0.82,2.884 -0.45,0.32 -1.548,-0.454 -2.451,-1.726 -0.903,-1.273 -1.271,-2.564 -0.82,-2.884 0.45,-0.321 1.547,0.453 2.451,1.726 z"
     id="path20"
     inkscape:connector-curvature="0"
     style="fill:#99aab5" />
  <path
     d="m 34.461,9.735 c 0.909,1.279 1.28,2.575 0.83,2.894 -0.45,0.32 -1.553,-0.458 -2.46,-1.737 -0.909,-1.279 -1.279,-2.576 -0.829,-2.896 0.45,-0.318 1.551,0.46 2.459,1.739 z"
     id="path22"
     inkscape:connector-curvature="0"
     style="fill:#99aab5" />
  <path
     d="m 32.817,7.419 c 0.319,0.45 0.214,1.074 -0.236,1.394 -0.45,0.32 -1.074,0.214 -1.395,-0.236 -0.319,-0.45 -0.214,-1.074 0.237,-1.394 0.451,-0.321 1.075,-0.214 1.394,0.236 z"
     id="path24"
     inkscape:connector-curvature="0"
     style="fill:#66757f" />
  <path
     d="m 25.001,30 c 0,1.104 -0.896,2 -2,2 L 3.0010002,32 c -1.104,0 -2,-0.896 -2,-2 0,-1.104 0.896,-2 2,-2 L 23.001,28 c 1.104,0 2,0.896 2,2 z"
     id="path26"
     inkscape:connector-curvature="0"
     style="fill:#99aab5" />
</svg>
