<?xml version="1.0" encoding="UTF-8" standalone="no"?>
<svg
   xmlns:dc="http://purl.org/dc/elements/1.1/"
   xmlns:cc="http://creativecommons.org/ns#"
   xmlns:rdf="http://www.w3.org/1999/02/22-rdf-syntax-ns#"
   xmlns:svg="http://www.w3.org/2000/svg"
   xmlns="http://www.w3.org/2000/svg"
   xmlns:sodipodi="http://sodipodi.sourceforge.net/DTD/sodipodi-0.dtd"
   xmlns:inkscape="http://www.inkscape.org/namespaces/inkscape"
   viewBox="0 0 36 30"
   id="svg2"
   version="1.1"
   inkscape:version="0.91 r13725"
   sodipodi:docname="1f685.svg"
   width="36"
   height="30">
  <metadata
     id="metadata24">
    <rdf:RDF>
      <cc:Work
         rdf:about="">
        <dc:format>image/svg+xml</dc:format>
        <dc:type
           rdf:resource="http://purl.org/dc/dcmitype/StillImage" />
      </cc:Work>
    </rdf:RDF>
  </metadata>
  <defs
     id="defs22" />
  <sodipodi:namedview
     pagecolor="#ffffff"
     bordercolor="#666666"
     borderopacity="1"
     objecttolerance="10"
     gridtolerance="10"
     guidetolerance="10"
     inkscape:pageopacity="0"
     inkscape:pageshadow="2"
     inkscape:window-width="640"
     inkscape:window-height="480"
     id="namedview20"
     showgrid="false"
     inkscape:zoom="6.5555556"
     inkscape:cx="18"
     inkscape:cy="18"
     inkscape:window-x="0"
     inkscape:window-y="0"
     inkscape:window-maximized="0"
     inkscape:current-layer="svg2" />
  <path
     d="m 0,28 36,0 0,2 -36,0 z"
     id="path4"
     inkscape:connector-curvature="0"
     style="fill:#939598" />
  <path
     d="M 3,29 36,29 36,0 21,0 c -4,0 -5,2 -5,2 l -4,6 c 0,0 -12,5 -12,10 0,4 6,6 6,6 l -3,5 z"
     id="path6"
     inkscape:connector-curvature="0"
     style="fill:#d1d3d4" />
  <path
     d="m 14,29 2,-3 20,0 0,3 z"
     id="path8"
     inkscape:connector-curvature="0"
     style="fill:#231f20" />
  <path
     d="m 0,17.999 c 0,4 6,6 6,6 L 6,11.125 C 3,13 0,15.499 0,17.999 Z M 6,24 6,23.999 6,24 Z"
     id="path10"
     inkscape:connector-curvature="0"
     style="fill:#3b88c3" />
  <path
     d="m 6,24 -3,5 33,0 0,-5 z"
     id="path12"
     inkscape:connector-curvature="0"
     style="fill:#226699" />
  <path
     d="m 20,24 4,-6 12,0 0,6 z"
     id="path14"
     inkscape:connector-curvature="0"
     style="fill:#3b88c3" />
  <path
     d="M 26,2 16,2 12,8 11.999,8 22.842,8 C 23.319,8 23.95,7.552 24.254,7 L 26.451,3 C 26.754,2.448 26.553,2 26,2 Z"
     id="path16"
     inkscape:connector-curvature="0"
     style="fill:#55acee" />
  <path
     d="M 25.902,4 26.451,3 C 26.754,2.448 26.553,2 26,2 L 16,2 14.667,4 25.902,4 Z"
     id="path18"
     inkscape:connector-curvature="0"
     style="fill:#3b88c3" />
</svg>
