<?xml version="1.0" encoding="UTF-8" standalone="no"?>
<svg
   xmlns:dc="http://purl.org/dc/elements/1.1/"
   xmlns:cc="http://creativecommons.org/ns#"
   xmlns:rdf="http://www.w3.org/1999/02/22-rdf-syntax-ns#"
   xmlns:svg="http://www.w3.org/2000/svg"
   xmlns="http://www.w3.org/2000/svg"
   xmlns:sodipodi="http://sodipodi.sourceforge.net/DTD/sodipodi-0.dtd"
   xmlns:inkscape="http://www.inkscape.org/namespaces/inkscape"
   viewBox="0 0 36.351704 28"
   id="svg2"
   version="1.1"
   inkscape:version="0.91 r13725"
   sodipodi:docname="1f684.svg"
   width="36.351704"
   height="28">
  <metadata
     id="metadata26">
    <rdf:RDF>
      <cc:Work
         rdf:about="">
        <dc:format>image/svg+xml</dc:format>
        <dc:type
           rdf:resource="http://purl.org/dc/dcmitype/StillImage" />
      </cc:Work>
    </rdf:RDF>
  </metadata>
  <defs
     id="defs24" />
  <sodipodi:namedview
     pagecolor="#ffffff"
     bordercolor="#666666"
     borderopacity="1"
     objecttolerance="10"
     gridtolerance="10"
     guidetolerance="10"
     inkscape:pageopacity="0"
     inkscape:pageshadow="2"
     inkscape:window-width="640"
     inkscape:window-height="480"
     id="namedview22"
     showgrid="false"
     inkscape:zoom="6.5555556"
     inkscape:cx="18.351702"
     inkscape:cy="18"
     inkscape:window-x="0"
     inkscape:window-y="0"
     inkscape:window-maximized="0"
     inkscape:current-layer="svg2" />
  <path
     d="m 0.35170225,26 35.99999975,0 0,2 -35.99999975,0 z"
     id="path4"
     inkscape:connector-curvature="0"
     style="fill:#939598" />
  <path
     d="m 3.3517023,27 32.9999997,0 0,-27 c 0,0 -28.9999997,1 -35.99999975,15.999 -2.11499995,4.531 6.00000005,6 6.00000005,6 l -3,5.001 z"
     id="path6"
     inkscape:connector-curvature="0"
     style="fill:#bcbec0" />
  <path
     d="M 23.351702,10 8.3517023,17 0.04170225,17 c -0.584,3.748 6.31000005,4.999 6.31000005,4.999 l -3,5.001 32.9999997,0 0,-19.71 -13,2.71 z"
     id="path8"
     inkscape:connector-curvature="0"
     style="fill:#3b88c3" />
  <path
     d="m 14.351702,27 2,-3 20,0 0,3 z"
     id="path10"
     inkscape:connector-curvature="0"
     style="fill:#231f20" />
  <path
     d="m 36.351702,6.142 c -4.347,0.358 -13.388,1.62 -19.581,6.044 -5.603,4.002 -11.8769997,3.899 -16.03299975,3.829 l -0.39,-0.006 c -0.34699999645,0.748 -0.411,1.41 -0.283,1.998 0.214,0.003 0.411,0.004 0.64,0.008 0.55300005,0.009 1.15500005,0.019 1.79900005,0.019 4.185,0 10.1079997,-0.42 15.4289997,-4.221 5.23,-3.735 13.453,-5.241 18.419,-5.672 l 0,-1.999 z"
     id="path12"
     inkscape:connector-curvature="0"
     style="fill:#e6e7e8" />
  <path
     d="m 12.351702,8 3.878,-4.929 c 4.849,-1.939 13.122,-3.051 20.122,-3.051 l 0,2 c -7,-10e-4 -18,1.98 -24,5.98 z"
     id="path14"
     inkscape:connector-curvature="0"
     style="fill:#a7a9ac" />
  <path
     d="m 3.4467023,11.465 c 1.672,-0.392 3.617,-0.723 5.44,-1.65 C 18.351702,5 19.359702,2.017 19.351702,2 c -7,0 -11.9999997,4 -15.9049997,9.465 z"
     id="path16"
     inkscape:connector-curvature="0"
     style="fill:#58595b" />
  <path
     d="M 6.3517023,21.999 36.351702,22 l 0,-2 -34.8869997,0 c 1.875,1.452 4.887,1.999 4.887,1.999 z"
     id="path18"
     inkscape:connector-curvature="0"
     style="fill:#226699" />
  <path
     d="m 3.9007023,14.145 c 0.47,0.034 1.013,0.019 1.591,-0.06 1.642,-0.222 2.913,-0.846 2.839,-1.394 -0.073,-0.541 -1.435,-0.803 -3.052,-0.594 -0.648,0.632 -1.12,1.326 -1.378,2.048 z"
     id="path20"
     inkscape:connector-curvature="0"
     style="fill:#ffe8b6" />
</svg>
