<?xml version="1.0" encoding="UTF-8" standalone="no"?>
<svg
   xmlns:dc="http://purl.org/dc/elements/1.1/"
   xmlns:cc="http://creativecommons.org/ns#"
   xmlns:rdf="http://www.w3.org/1999/02/22-rdf-syntax-ns#"
   xmlns:svg="http://www.w3.org/2000/svg"
   xmlns="http://www.w3.org/2000/svg"
   xmlns:sodipodi="http://sodipodi.sourceforge.net/DTD/sodipodi-0.dtd"
   xmlns:inkscape="http://www.inkscape.org/namespaces/inkscape"
   viewBox="0 0 36 30.75"
   id="svg2"
   version="1.1"
   inkscape:version="0.91 r13725"
   sodipodi:docname="1f698.svg"
   width="36"
   height="30.75">
  <metadata
     id="metadata24">
    <rdf:RDF>
      <cc:Work
         rdf:about="">
        <dc:format>image/svg+xml</dc:format>
        <dc:type
           rdf:resource="http://purl.org/dc/dcmitype/StillImage" />
      </cc:Work>
    </rdf:RDF>
  </metadata>
  <defs
     id="defs22" />
  <sodipodi:namedview
     pagecolor="#ffffff"
     bordercolor="#666666"
     borderopacity="1"
     objecttolerance="10"
     gridtolerance="10"
     guidetolerance="10"
     inkscape:pageopacity="0"
     inkscape:pageshadow="2"
     inkscape:window-width="640"
     inkscape:window-height="480"
     id="namedview20"
     showgrid="false"
     inkscape:zoom="6.5555556"
     inkscape:cx="18"
     inkscape:cy="17"
     inkscape:window-x="0"
     inkscape:window-y="0"
     inkscape:window-maximized="0"
     inkscape:current-layer="svg2" />
  <path
     d="m 34,28.75 c 0,1.104 -0.896,2 -2,2 l -3,0 c -1.104,0 -2,-0.896 -2,-2 l 0,-8 c 0,-1.104 0.896,-2 2,-2 l 3,0 c 1.104,0 2,0.896 2,2 l 0,8 z m -25,0 c 0,1.104 -0.896,2 -2,2 l -3,0 c -1.104,0 -2,-0.896 -2,-2 l 0,-8 c 0,-1.104 0.896,-2 2,-2 l 3,0 c 1.104,0 2,0.896 2,2 l 0,8 z"
     id="path4"
     inkscape:connector-curvature="0"
     style="fill:#292f33" />
  <path
     d="m 9,0.75 c 4,-1 14,-1 18,0 3.881,0.97 5,11 5,11 0,0 2,0 2,4 l 0,8 c 0,0 -0.119,3.03 -4,4 -4,1 -7,1 -12,1 -5,0 -8,0 -12,-1 -3.88,-0.97 -4,-4 -4,-4 l 0,-8 c 0,0 0,-4 2,-4 0,0 1.12,-10.03 5,-11 z"
     id="path6"
     inkscape:connector-curvature="0"
     style="fill:#3b88c3" />
  <path
     d="m 18,10.75 c 3.905,0 8.623,0.2 12,0.561 L 29,5.75 c -1,-3 -7,-3 -11,-3 -4,0 -10,0 -11,3 L 6,11.311 C 9.377,10.95 14.095,10.75 18,10.75 Z"
     id="path8"
     inkscape:connector-curvature="0"
     style="fill:#bbddf5" />
  <path
     d="m 5,11.25 c 0,0.829 -0.671,1.5 -1.5,1.5 l -2,0 C 0.671,12.75 0,12.079 0,11.25 0,10.421 0.671,9.75 1.5,9.75 l 2,0 c 0.829,0 1.5,0.671 1.5,1.5 z m 26,0 c 0,0.829 0.672,1.5 1.5,1.5 l 2,0 c 0.828,0 1.5,-0.671 1.5,-1.5 0,-0.829 -0.672,-1.5 -1.5,-1.5 l -2,0 c -0.828,0 -1.5,0.671 -1.5,1.5 z"
     id="path10"
     inkscape:connector-curvature="0"
     style="fill:#3b88c3" />
  <path
     d="m 11,18.75 c 0,1.657 -1.343,3 -3,3 l -1,0 c -1.657,0 -3,-1.343 -3,-3 0,-1.657 1.343,-3 3,-3 l 1,0 c 1.657,0 3,1.343 3,3 z m 21,0 c 0,1.657 -1.344,3 -3,3 l -1,0 c -1.656,0 -3,-1.343 -3,-3 0,-1.657 1.344,-3 3,-3 l 1,0 c 1.656,0 3,1.343 3,3 z"
     id="path12"
     inkscape:connector-curvature="0"
     style="fill:#ffcc4d" />
  <path
     d="m 12.001,17.75 c -0.323,0 -0.64,-0.156 -0.833,-0.445 C 9.426,14.691 4.849,13.74 4.803,13.731 4.262,13.622 3.911,13.095 4.02,12.553 4.129,12.012 4.652,11.662 5.196,11.77 c 0.221,0.044 5.431,1.119 7.636,4.426 0.306,0.46 0.182,1.08 -0.277,1.387 -0.171,0.112 -0.364,0.167 -0.554,0.167 z m 11.998,0 c -0.19,0 -0.383,-0.055 -0.554,-0.168 -0.46,-0.307 -0.584,-0.927 -0.277,-1.387 2.204,-3.307 7.415,-4.382 7.636,-4.426 0.54,-0.106 1.067,0.242 1.176,0.783 0.109,0.542 -0.241,1.068 -0.782,1.178 -0.046,0.009 -4.623,0.96 -6.365,3.574 -0.193,0.29 -0.511,0.446 -0.834,0.446 z"
     id="path14"
     inkscape:connector-curvature="0"
     style="fill:#226699" />
  <path
     d="m 18,24.75 c -5.663,0 -12.639,-0.225 -13.707,-1.293 -0.391,-0.391 -0.391,-1.023 0,-1.414 0.344,-0.345 0.877,-0.386 1.267,-0.122 0.232,0.1 2.285,0.829 12.44,0.829 10.155,0 12.208,-0.729 12.44,-0.829 0.391,-0.264 0.922,-0.223 1.267,0.122 0.391,0.391 0.391,1.023 0,1.414 C 30.639,24.525 23.663,24.75 18,24.75 Z"
     id="path16"
     inkscape:connector-curvature="0"
     style="fill:#55acee" />
  <path
     d="m 25,25.25 c 0,1.5 -3.134,2.5 -7,2.5 -3.866,0 -7,-1 -7,-2.5 0,-0.828 3.134,-0.5 7,-0.5 3.866,0 7,-0.328 7,0.5 z"
     id="path18"
     inkscape:connector-curvature="0"
     style="fill:#226699" />
</svg>
