<?xml version="1.0" encoding="UTF-8" standalone="no"?>
<svg
   xmlns:dc="http://purl.org/dc/elements/1.1/"
   xmlns:cc="http://creativecommons.org/ns#"
   xmlns:rdf="http://www.w3.org/1999/02/22-rdf-syntax-ns#"
   xmlns:svg="http://www.w3.org/2000/svg"
   xmlns="http://www.w3.org/2000/svg"
   xmlns:sodipodi="http://sodipodi.sourceforge.net/DTD/sodipodi-0.dtd"
   xmlns:inkscape="http://www.inkscape.org/namespaces/inkscape"
   viewBox="0 0 36 24"
   id="svg2"
   version="1.1"
   inkscape:version="0.91 r13725"
   sodipodi:docname="1f699.svg"
   width="36"
   height="24">
  <metadata
     id="metadata24">
    <rdf:RDF>
      <cc:Work
         rdf:about="">
        <dc:format>image/svg+xml</dc:format>
        <dc:type
           rdf:resource="http://purl.org/dc/dcmitype/StillImage" />
      </cc:Work>
    </rdf:RDF>
  </metadata>
  <defs
     id="defs22" />
  <sodipodi:namedview
     pagecolor="#ffffff"
     bordercolor="#666666"
     borderopacity="1"
     objecttolerance="10"
     gridtolerance="10"
     guidetolerance="10"
     inkscape:pageopacity="0"
     inkscape:pageshadow="2"
     inkscape:window-width="640"
     inkscape:window-height="480"
     id="namedview20"
     showgrid="false"
     inkscape:zoom="6.5555556"
     inkscape:cx="18"
     inkscape:cy="17"
     inkscape:window-x="0"
     inkscape:window-y="0"
     inkscape:window-maximized="0"
     inkscape:current-layer="svg2" />
  <path
     d="m 36,13 c 0,0.553 -0.447,1 -1,1 l -1,0 c -0.553,0 -1,-0.447 -1,-1 l 0,-6 c 0,-0.553 0.447,-1 1,-1 l 1,0 c 0.553,0 1,0.447 1,1 l 0,6 z"
     id="path4"
     inkscape:connector-curvature="0"
     style="fill:#292f33" />
  <path
     d="m 5,20 26,0 c 1,0 3,-1 3,-4 C 34,14 34,8 33,7 32,6 33,0 29,0 L 15,0 C 12,0 9,7 9,7 L 5,8 C 5,8 1,9 1,12 l 0,3 C 1,15 0,15.338 0,16.957 0,18.576 1,19 1,19 l 4,1 z"
     id="path6"
     inkscape:connector-curvature="0"
     style="fill:#3b88c3" />
  <circle
     cx="9"
     cy="20"
     r="4"
     id="circle8"
     style="fill:#292f33" />
  <circle
     cx="9"
     cy="20"
     r="2"
     id="circle10"
     style="fill:#ccd6dd" />
  <circle
     cx="27"
     cy="20"
     r="4"
     id="circle12"
     style="fill:#292f33" />
  <circle
     cx="27"
     cy="20"
     r="2"
     id="circle14"
     style="fill:#ccd6dd" />
  <path
     d="m 24,6 c 0,0.552 0.447,1 1,1 l 4,0 c 0.553,0 1,-0.448 1,-1 L 30,3 C 30,2.448 29.553,2 29,2 l -4,0 c -0.553,0 -1,0.448 -1,1 l 0,3 z M 13,6 c 0,1 0.448,1 1,1 l 7,0 c 0.553,0 1,-0.448 1,-1 L 22,3 C 22,2.448 21.553,2 21,2 l -5,0 c -1,0 -3,3 -3,4 z"
     id="path16"
     inkscape:connector-curvature="0"
     style="fill:#bbddf5" />
  <path
     d="m 32,12.5 c 0,0.828 -0.672,1.5 -1.5,1.5 l -22,0 C 7.671,14 7,13.328 7,12.5 7,11.671 7.671,11 8.5,11 l 22,0 c 0.828,0 1.5,0.671 1.5,1.5 z"
     id="path18"
     inkscape:connector-curvature="0"
     style="fill:#55acee" />
</svg>
