<?xml version="1.0" encoding="UTF-8" standalone="no"?>
<svg
   xmlns:dc="http://purl.org/dc/elements/1.1/"
   xmlns:cc="http://creativecommons.org/ns#"
   xmlns:rdf="http://www.w3.org/1999/02/22-rdf-syntax-ns#"
   xmlns:svg="http://www.w3.org/2000/svg"
   xmlns="http://www.w3.org/2000/svg"
   xmlns:sodipodi="http://sodipodi.sourceforge.net/DTD/sodipodi-0.dtd"
   xmlns:inkscape="http://www.inkscape.org/namespaces/inkscape"
   viewBox="0 0 36 33"
   id="svg2"
   version="1.1"
   inkscape:version="0.91 r13725"
   sodipodi:docname="1f694.svg"
   width="36"
   height="33">
  <metadata
     id="metadata28">
    <rdf:RDF>
      <cc:Work
         rdf:about="">
        <dc:format>image/svg+xml</dc:format>
        <dc:type
           rdf:resource="http://purl.org/dc/dcmitype/StillImage" />
      </cc:Work>
    </rdf:RDF>
  </metadata>
  <defs
     id="defs26" />
  <sodipodi:namedview
     pagecolor="#ffffff"
     bordercolor="#666666"
     borderopacity="1"
     objecttolerance="10"
     gridtolerance="10"
     guidetolerance="10"
     inkscape:pageopacity="0"
     inkscape:pageshadow="2"
     inkscape:window-width="640"
     inkscape:window-height="480"
     id="namedview24"
     showgrid="false"
     inkscape:zoom="6.5555556"
     inkscape:cx="18"
     inkscape:cy="17"
     inkscape:window-x="0"
     inkscape:window-y="0"
     inkscape:window-maximized="0"
     inkscape:current-layer="svg2" />
  <path
     d="m 34,31 c 0,1.104 -0.896,2 -2,2 l -3,0 c -1.104,0 -2,-0.896 -2,-2 l 0,-8 c 0,-1.104 0.896,-2 2,-2 l 3,0 c 1.104,0 2,0.896 2,2 l 0,8 z M 9,31 c 0,1.104 -0.896,2 -2,2 L 4,33 C 2.896,33 2,32.104 2,31 l 0,-8 c 0,-1.104 0.896,-2 2,-2 l 3,0 c 1.104,0 2,0.896 2,2 l 0,8 z M 5,13.5 C 5,14.329 4.329,15 3.5,15 l -2,0 C 0.671,15 0,14.329 0,13.5 0,12.671 0.671,12 1.5,12 l 2,0 C 4.329,12 5,12.671 5,13.5 Z m 26,0 c 0,0.829 0.672,1.5 1.5,1.5 l 2,0 C 35.328,15 36,14.329 36,13.5 36,12.671 35.328,12 34.5,12 l -2,0 C 31.672,12 31,12.671 31,13.5 Z"
     id="path4"
     inkscape:connector-curvature="0"
     style="fill:#66757f" />
  <path
     d="m 9,3 c 4,-1 14,-1 18,0 3.881,0.97 5,11 5,11 0,0 2,0 2,4 l 0,8 c 0,0 0,3 -3,4 -3.911,1.304 -8,1 -13,1 C 13,31 8.912,31.304 5,30 2,29 2,26 2,26 L 2,18 C 2,18 2,14 4,14 4,14 5.12,3.97 9,3 Z"
     id="path6"
     inkscape:connector-curvature="0"
     style="fill:#ccd6dd" />
  <path
     d="M 18,19 C 12.282,19 6.864,18.899 2,18.721 L 2,26 c 0,0 0,3 3,4 3.912,1.304 8,1 13,1 5,0 9.089,0.304 13,-1 3,-1 3,-4 3,-4 l 0,-7.279 C 29.136,18.899 23.718,19 18,19 Z"
     id="path8"
     inkscape:connector-curvature="0"
     style="fill:#292f33" />
  <path
     d="m 18,13 c 3.905,0 8.623,0.2 12,0.561 L 29,8 C 28,5 22,5 18,5 14,5 8,5 7,8 L 6,13.561 C 9.377,13.2 14.095,13 18,13 Z"
     id="path10"
     inkscape:connector-curvature="0"
     style="fill:#55acee" />
  <path
     d="m 12,22 c 0,1.104 -0.896,2 -2,2 L 6,24 C 4.896,24 4,23.104 4,22 4,20.896 4.896,20 6,20 l 4,0 c 1.104,0 2,0.896 2,2 z m 12,0 c 0,1.104 0.896,2 2,2 l 4,0 c 1.104,0 2,-0.896 2,-2 0,-1.104 -0.896,-2 -2,-2 l -4,0 c -1.104,0 -2,0.896 -2,2 z"
     id="path12"
     inkscape:connector-curvature="0"
     style="fill:#ccd6dd" />
  <path
     d="m 29,26.5 c 0,0.828 -0.672,1.5 -1.5,1.5 l -19,0 C 7.671,28 7,27.328 7,26.5 7,25.672 7.671,25 8.5,25 l 19,0 c 0.828,0 1.5,0.672 1.5,1.5 z"
     id="path14"
     inkscape:connector-curvature="0"
     style="fill:#66757f" />
  <path
     d="m 11.999,19 c -0.15,0 -0.303,-0.034 -0.446,-0.105 l -6,-3 C 5.059,15.648 4.859,15.047 5.106,14.553 5.353,14.059 5.952,13.857 6.448,14.106 l 6,3 c 0.494,0.247 0.694,0.848 0.447,1.342 C 12.719,18.798 12.366,19 11.999,19 Z m 12.002,0 c -0.367,0 -0.72,-0.202 -0.896,-0.553 -0.247,-0.494 -0.047,-1.095 0.447,-1.342 l 6,-3 c 0.494,-0.246 1.094,-0.046 1.342,0.447 0.247,0.494 0.047,1.095 -0.447,1.342 l -6,3 C 24.304,18.966 24.151,19 24.001,19 Z"
     id="path16"
     inkscape:connector-curvature="0"
     style="fill:#99aab5" />
  <path
     d="M 18,1.5 C 18,2.329 17.329,3 16.5,3 l -7,0 C 8.671,3 8,2.329 8,1.5 8,0.671 8.671,0 9.5,0 l 7,0 C 17.329,0 18,0.671 18,1.5 Z"
     id="path18"
     inkscape:connector-curvature="0"
     style="fill:#dd2e44" />
  <path
     d="M 28,1.5 C 28,2.329 27.328,3 26.5,3 l -7,0 C 18.671,3 18,2.329 18,1.5 18,0.671 18.671,0 19.5,0 l 7,0 C 27.328,0 28,0.671 28,1.5 Z"
     id="path20"
     inkscape:connector-curvature="0"
     style="fill:#55acee" />
  <path
     d="m 16,0 4,0 0,3 -4,0 z"
     id="path22"
     inkscape:connector-curvature="0"
     style="fill:#f5f8fa" />
</svg>
