<?xml version="1.0" encoding="UTF-8" standalone="no"?>
<svg
   xmlns:dc="http://purl.org/dc/elements/1.1/"
   xmlns:cc="http://creativecommons.org/ns#"
   xmlns:rdf="http://www.w3.org/1999/02/22-rdf-syntax-ns#"
   xmlns:svg="http://www.w3.org/2000/svg"
   xmlns="http://www.w3.org/2000/svg"
   xmlns:sodipodi="http://sodipodi.sourceforge.net/DTD/sodipodi-0.dtd"
   xmlns:inkscape="http://www.inkscape.org/namespaces/inkscape"
   viewBox="0 0 36 21"
   id="svg2"
   version="1.1"
   inkscape:version="0.91 r13725"
   sodipodi:docname="1f697.svg"
   width="36"
   height="21">
  <metadata
     id="metadata20">
    <rdf:RDF>
      <cc:Work
         rdf:about="">
        <dc:format>image/svg+xml</dc:format>
        <dc:type
           rdf:resource="http://purl.org/dc/dcmitype/StillImage" />
      </cc:Work>
    </rdf:RDF>
  </metadata>
  <defs
     id="defs18" />
  <sodipodi:namedview
     pagecolor="#ffffff"
     bordercolor="#666666"
     borderopacity="1"
     objecttolerance="10"
     gridtolerance="10"
     guidetolerance="10"
     inkscape:pageopacity="0"
     inkscape:pageshadow="2"
     inkscape:window-width="640"
     inkscape:window-height="480"
     id="namedview16"
     showgrid="false"
     inkscape:zoom="6.5555556"
     inkscape:cx="18"
     inkscape:cy="17"
     inkscape:window-x="0"
     inkscape:window-y="0"
     inkscape:window-maximized="0"
     inkscape:current-layer="svg2" />
  <path
     d="m 13,18 20,0 c 0,0 3,0 3,-4 C 36,12 36,8 35,7 34,6 27,0 24,0 L 18,0 C 15,0 8,7 8,7 L 4,8 C 4,8 1,9 1,11 l 0,3 C 1,14 0,14.338 0,15.957 0,18 2,18 2,18 l 11,0 z"
     id="path4"
     inkscape:connector-curvature="0"
     style="fill:#dd2e44" />
  <path
     d="M 20,2 18,2 C 16,2 10,8 10,8 10,8 14.997,7.737 20,7.481 L 20,2 Z M 30,5 C 29,4 25,2 23,2 l -1,0 0,5.379 C 26.011,7.175 29.582,7 30,7 31,7 31,6 30,5 Z"
     id="path6"
     inkscape:connector-curvature="0"
     style="fill:#bbddf5" />
  <circle
     cx="10"
     cy="17"
     r="4"
     id="circle8"
     style="fill:#292f33" />
  <circle
     cx="10"
     cy="17"
     r="2"
     id="circle10"
     style="fill:#ccd6dd" />
  <circle
     cx="27"
     cy="17"
     r="4"
     id="circle12"
     style="fill:#292f33" />
  <circle
     cx="27"
     cy="17"
     r="2"
     id="circle14"
     style="fill:#ccd6dd" />
</svg>
