<?xml version="1.0" encoding="UTF-8" standalone="no"?>
<svg
   xmlns:dc="http://purl.org/dc/elements/1.1/"
   xmlns:cc="http://creativecommons.org/ns#"
   xmlns:rdf="http://www.w3.org/1999/02/22-rdf-syntax-ns#"
   xmlns:svg="http://www.w3.org/2000/svg"
   xmlns="http://www.w3.org/2000/svg"
   xmlns:sodipodi="http://sodipodi.sourceforge.net/DTD/sodipodi-0.dtd"
   xmlns:inkscape="http://www.inkscape.org/namespaces/inkscape"
   viewBox="0 0 36 36"
   id="svg2"
   version="1.1"
   inkscape:version="0.91 r13725"
   sodipodi:docname="1f6a8.svg"
   width="36"
   height="36">
  <metadata
     id="metadata18">
    <rdf:RDF>
      <cc:Work
         rdf:about="">
        <dc:format>image/svg+xml</dc:format>
        <dc:type
           rdf:resource="http://purl.org/dc/dcmitype/StillImage" />
      </cc:Work>
    </rdf:RDF>
  </metadata>
  <defs
     id="defs16" />
  <sodipodi:namedview
     pagecolor="#ffffff"
     bordercolor="#666666"
     borderopacity="1"
     objecttolerance="10"
     gridtolerance="10"
     guidetolerance="10"
     inkscape:pageopacity="0"
     inkscape:pageshadow="2"
     inkscape:window-width="640"
     inkscape:window-height="480"
     id="namedview14"
     showgrid="false"
     inkscape:zoom="6.5555556"
     inkscape:cx="18"
     inkscape:cy="18"
     inkscape:window-x="0"
     inkscape:window-y="0"
     inkscape:window-maximized="0"
     inkscape:current-layer="svg2" />
  <path
     d="M 34.16,28.812 31.244,2.678 C 31.074,1.153 29.785,0 28.251,0 L 7.664,0 C 6.119,0 4.825,1.168 4.667,2.704 l -2.67,26.108 32.163,0 z"
     id="path4"
     inkscape:connector-curvature="0"
     style="fill:#dd2e44" />
  <circle
     cx="18.069"
     cy="14"
     r="9.3660002"
     id="circle6"
     style="fill:#be1931" />
  <path
     d="M 35.521,29.18 0.479,29.18 0,34 c 0,2 2,2 2,2 l 32,0 c 0,0 2,0 2,-2 l -0.479,-4.82 z"
     id="path8"
     inkscape:connector-curvature="0"
     style="fill:#99aab5" />
  <path
     d="M 35.594,29.912 35.521,29.18 C 35.38,28.442 34.751,28 34,28 L 2,28 c -0.751,0 -1.38,0.442 -1.521,1.18 l -0.073,0.732 35.188,0 z"
     id="path10"
     inkscape:connector-curvature="0"
     style="fill:#ccd6dd" />
  <path
     d="M 29.647,13.63 21.979,12.382 26.518,6.074 C 26.625,5.926 26.609,5.72 26.479,5.59 26.348,5.461 26.143,5.444 25.995,5.551 L 19.686,10.089 18.439,2.422 C 18.41,2.241 18.252,2.108 18.069,2.108 c -0.183,0 -0.341,0.133 -0.37,0.314 L 16.451,10.089 10.143,5.551 C 9.994,5.444 9.79,5.461 9.659,5.59 9.529,5.721 9.513,5.925 9.62,6.074 L 14.158,12.382 6.49,13.63 C 6.309,13.659 6.176,13.816 6.176,14 c 0,0.184 0.133,0.341 0.314,0.37 l 7.668,1.248 -4.538,6.308 c -0.107,0.149 -0.091,0.354 0.039,0.484 0.131,0.129 0.335,0.146 0.484,0.039 l 6.308,-4.538 1.248,7.667 c 0.029,0.182 0.187,0.314 0.37,0.314 0.183,0 0.341,-0.134 0.37,-0.314 l 1.247,-7.667 6.308,4.538 c 0.148,0.106 0.354,0.09 0.484,-0.039 0.13,-0.131 0.146,-0.335 0.039,-0.484 l -4.538,-6.308 7.668,-1.248 c 0.182,-0.029 0.314,-0.187 0.314,-0.37 0,-0.183 -0.132,-0.341 -0.314,-0.37 z"
     id="path12"
     inkscape:connector-curvature="0"
     style="fill:#ec9dad" />
</svg>
