<?xml version="1.0" encoding="UTF-8" standalone="no"?>
<svg
   xmlns:dc="http://purl.org/dc/elements/1.1/"
   xmlns:cc="http://creativecommons.org/ns#"
   xmlns:rdf="http://www.w3.org/1999/02/22-rdf-syntax-ns#"
   xmlns:svg="http://www.w3.org/2000/svg"
   xmlns="http://www.w3.org/2000/svg"
   xmlns:sodipodi="http://sodipodi.sourceforge.net/DTD/sodipodi-0.dtd"
   xmlns:inkscape="http://www.inkscape.org/namespaces/inkscape"
   viewBox="0 0 36 23"
   id="svg2"
   version="1.1"
   inkscape:version="0.91 r13725"
   sodipodi:docname="1f6a4.svg"
   width="36"
   height="23">
  <metadata
     id="metadata30">
    <rdf:RDF>
      <cc:Work
         rdf:about="">
        <dc:format>image/svg+xml</dc:format>
        <dc:type
           rdf:resource="http://purl.org/dc/dcmitype/StillImage" />
      </cc:Work>
    </rdf:RDF>
  </metadata>
  <defs
     id="defs28" />
  <sodipodi:namedview
     pagecolor="#ffffff"
     bordercolor="#666666"
     borderopacity="1"
     objecttolerance="10"
     gridtolerance="10"
     guidetolerance="10"
     inkscape:pageopacity="0"
     inkscape:pageshadow="2"
     inkscape:window-width="640"
     inkscape:window-height="480"
     id="namedview26"
     showgrid="false"
     inkscape:zoom="6.5555556"
     inkscape:cx="18"
     inkscape:cy="18"
     inkscape:window-x="0"
     inkscape:window-y="0"
     inkscape:window-maximized="0"
     inkscape:current-layer="svg2" />
  <path
     d="m 33,14 -2,0 1,-8 2,0 z"
     id="path4"
     inkscape:connector-curvature="0"
     style="fill:#5c913b" />
  <path
     d="m 1,1 c 9.055,0.053 11,1 17,2 2.959,0.493 7,1 11,1 2,0 4,1 4,4 0,2 0.534,3.187 -5.433,3.815 C 23.59,12.233 13,10 9,8 3,5 0,0.995 1,1 Z"
     id="path6"
     inkscape:connector-curvature="0"
     style="fill:#dd2e44" />
  <path
     d="m 0,11 36,0 0,12 -36,0 z"
     id="path8"
     inkscape:connector-curvature="0"
     style="fill:#55acee" />
  <path
     d="m 5,0 c 4,0 11,0 18,1 7,1 10,1 10,3 l 0,3 C 33,8.414 26.131,7.447 23,7 16,6 9,4 5,3 0.953,1.989 -2,0 5,0 Z"
     id="path10"
     inkscape:connector-curvature="0"
     style="fill:#ffcc4d" />
  <path
     d="M 30.592,11.322 C 32.714,10.783 32.995,10.015 33.01,8.961 31.747,9.58 29.311,9.281 27.124,9.008 19.164,8.013 10.643,6.073 2.402,3.4 3.445,4.44 4.986,5.69 6.97,6.883 c 6.706,1.901 13.484,3.307 19.905,4.109 1.259,0.157 2.53,0.312 3.717,0.33 z"
     id="path12"
     inkscape:connector-curvature="0"
     style="fill:#a0041e" />
  <path
     d="m 12,11 c 3,-2 7,-5 6,-3 -1,2 -1.001,3 1,2 2,-1 5,-2 4,0 -1,2 2,1 3,0 1,-1 4,0 3,1 -1,1 -9,2 -12,2 -3,0 -5,-2 -5,-2 z"
     id="path14"
     inkscape:connector-curvature="0"
     style="fill:#55acee" />
  <path
     d="m 34,3 -1,0 c -1.104,0 -2,0.896 -2,2 l 1,0 c 0.553,0 1,0.447 1,1 l 0,1 1,0 c 1.104,0 2,0.104 2,-1 0,-1.104 -0.896,-3 -2,-3 z"
     id="path16"
     inkscape:connector-curvature="0"
     style="fill:#5c913b" />
  <path
     d="M 30,3 C 30.97,3.243 30,5 29,6 28,7 19,5 19,5 l 2,-3 c 0,0 5,0 9,1 z"
     id="path18"
     inkscape:connector-curvature="0"
     style="fill:#c1694f" />
  <path
     d="M 29,6 C 29.328,5.672 29.645,5.263 29.899,4.853 28.424,4.089 26.269,3.468 23.82,3.189 22.571,3.047 21.379,3.011 20.293,3.061 L 19,5 c 0,0 9,2 10,1 z"
     id="path20"
     inkscape:connector-curvature="0"
     style="fill:#a0041e" />
  <path
     d="m 21,2 0,-1 -4,1 -2,2 4,1 z"
     id="path22"
     inkscape:connector-curvature="0"
     style="fill:#55acee" />
  <path
     d="m 23,1 c -0.553,0 -1,1.343 -1,3 0,0.612 0.062,1.181 0.167,1.656 0.502,0.127 1.035,0.221 1.592,0.278 C 23.907,5.41 24,4.741 24,4 24,2.344 23.553,1 23,1 Z"
     id="path24"
     inkscape:connector-curvature="0"
     style="fill:#292f33" />
</svg>
