<?xml version="1.0" encoding="UTF-8" standalone="no"?>
<svg
   xmlns:dc="http://purl.org/dc/elements/1.1/"
   xmlns:cc="http://creativecommons.org/ns#"
   xmlns:rdf="http://www.w3.org/1999/02/22-rdf-syntax-ns#"
   xmlns:svg="http://www.w3.org/2000/svg"
   xmlns="http://www.w3.org/2000/svg"
   xmlns:sodipodi="http://sodipodi.sourceforge.net/DTD/sodipodi-0.dtd"
   xmlns:inkscape="http://www.inkscape.org/namespaces/inkscape"
   viewBox="0 0 36 30.35124"
   id="svg2"
   version="1.1"
   inkscape:version="0.91 r13725"
   sodipodi:docname="1f6a3-1f3fd-200d-2640-fe0f.svg"
   width="36"
   height="30.35124">
  <metadata
     id="metadata26">
    <rdf:RDF>
      <cc:Work
         rdf:about="">
        <dc:format>image/svg+xml</dc:format>
        <dc:type
           rdf:resource="http://purl.org/dc/dcmitype/StillImage" />
      </cc:Work>
    </rdf:RDF>
  </metadata>
  <defs
     id="defs24" />
  <sodipodi:namedview
     pagecolor="#ffffff"
     bordercolor="#666666"
     borderopacity="1"
     objecttolerance="10"
     gridtolerance="10"
     guidetolerance="10"
     inkscape:pageopacity="0"
     inkscape:pageshadow="2"
     inkscape:window-width="640"
     inkscape:window-height="480"
     id="namedview22"
     showgrid="false"
     inkscape:zoom="6.5555556"
     inkscape:cx="18"
     inkscape:cy="18"
     inkscape:window-x="0"
     inkscape:window-y="0"
     inkscape:window-maximized="0"
     inkscape:current-layer="svg2" />
  <path
     d="m 15.356,10.22624 3.083,1.158 -1.156,3.084 c 0,0 -4.55,-1.004 -5.259,-2.113 -0.709,-1.111 0.602,-2.7289999 0.602,-2.7289999 l 2.73,0.5999999 z"
     id="path4"
     inkscape:connector-curvature="0" />
  <path
     d="m 2,11.35124 32,0 c 0,0 0,2 -1,7 -0.86,4.302 -21,1 -24.601,0 -3.083,-0.856 -6.399,-7 -6.399,-7 z"
     id="path6"
     inkscape:connector-curvature="0"
     style="fill:#c1694f" />
  <path
     d="m 35,12.35124 c 0,0.553 -0.447,1 -1,1 l -32,0 c -0.552,0 -1,-0.447 -1,-1 0,-0.553 0.448,-1 1,-1 l 32,0 c 0.553,0 1,0.447 1,1 z"
     id="path8"
     inkscape:connector-curvature="0"
     style="fill:#f4900c" />
  <path
     d="m 0,18.28424 0,10.067 c 0,1.105 0.895,2 2,2 l 32,0 c 1.105,0 2,-0.895 2,-2 l 0,-9.637 c 0,-0.637 -0.585,-1.097 -1.21,-0.976 -11.333,2.19 -22.667,-2.809 -34,-0.439 -0.461,0.096 -0.79,0.514 -0.79,0.985 z"
     id="path10"
     inkscape:connector-curvature="0"
     style="fill:#55acee" />
  <path
     d="m 24.646,7.8842401 c -0.171,-0.171 -0.448,-0.171 -0.619,0 L 15.996,15.91524 c -2.225,2.224 -2.691,0.599 -5.033,2.941 l -3.231,3.231 c -0.2,0.199 -0.199,0.523 0,0.723 l 0.994,0.994 0.994,0.994 c 0.2,0.2 0.523,0.2 0.722,0 l 3.231,-3.231 c 2.342,-2.342 0.717,-2.809 2.941,-5.033 l 8.031,-8.0309999 c 0.172,-0.171 0.172,-0.448 0.001,-0.619 z"
     id="path12"
     inkscape:connector-curvature="0"
     style="fill:#1c6399" />
  <path
     d="m 17.028,3.5802401 c -0.176,-0.21 -0.314,-0.46 -0.388,-0.773 -0.265,-1.118 0.345,-2.22000005 1.362,-2.46100005 1.017,-0.241 2.447,0.464 2.46,1.61300005 0.013,1.141 -0.556,2.847 -1.522,2.6 -0.255,-0.065 -0.51,-0.138 -0.754,-0.228 -0.098,0.125 -0.153,0.592 -0.096,0.987 0.147,1.008 -1.245,1.167 -1.391,0.157 -0.116,-0.798 0.365,-1.327 0.329,-1.895 z"
     id="path14"
     inkscape:connector-curvature="0"
     style="fill:#d4ab88" />
  <path
     d="m 13.809,2.6092401 c 0.568,-0.028 1.117,-0.092 2.056,-1.302 0.624,-0.80400005 1.207,-1.32000005 2.649,-1.307000048 1.531,0.013999998 2.814,1.317000048 1.831,1.969000048 -0.429,0.284 -0.788,0.149 -1.476,0.342 -1.081,0.303 -1.245,1.453 -2.221,1.711 -1.912,0.506 -3.406,-1.385 -2.839,-1.413 z"
     id="path16"
     inkscape:connector-curvature="0"
     style="fill:#963b22" />
  <path
     d="m 24.039,8.3112401 c -0.331,-0.341 -0.519,0.068 -0.754,0.058 -0.139,-0.006 -2.338,-0.872 -2.623,-1.143 -0.285,-0.271 -1.105,-1.326 -1.929,-1.875 -0.824,-0.549 -1.384,-0.171 -1.597,0.237 -0.282,0.541 -0.146,1.165 0.412,1.517 0.397,0.25 1.755,1.106 2.535,1.54 0.561,0.311 2.569,0.67 2.744,0.741 0.236,0.095 0.555,0.6179999 0.787,0.57 0.232,-0.048 0.479,-0.425 0.719,-0.809 0.239,-0.385 0.037,-0.495 -0.294,-0.836 z"
     id="path18"
     inkscape:connector-curvature="0"
     style="fill:#d4ab88" />
  <path
     d="m 20.25,6.7172401 -0.738,-0.759 c -0.482,-0.732 -0.789,-1.183 -1.524,-1.344 -1.287,-0.284 -2.912,0.308 -4.222,1.927 -0.829,1.024 -0.947,2.174 -2.259,3.7939999 0,0 4.444,0.604 4.552,0.092 0.137,-0.6529999 0.753,-1.2529999 1.055,-2.1739999 0.78,-0.345 0.86,-0.869 0.88,-0.855 0.447,0.326 1.073,0.678 1.073,0.678 l 1.183,-1.359 z"
     id="path20"
     inkscape:connector-curvature="0"
     style="fill:#9266cc" />
</svg>
