<?xml version="1.0" encoding="UTF-8" standalone="no"?>
<svg
   xmlns:dc="http://purl.org/dc/elements/1.1/"
   xmlns:cc="http://creativecommons.org/ns#"
   xmlns:rdf="http://www.w3.org/1999/02/22-rdf-syntax-ns#"
   xmlns:svg="http://www.w3.org/2000/svg"
   xmlns="http://www.w3.org/2000/svg"
   xmlns:sodipodi="http://sodipodi.sourceforge.net/DTD/sodipodi-0.dtd"
   xmlns:inkscape="http://www.inkscape.org/namespaces/inkscape"
   viewBox="0 0 35.999817 30"
   id="svg2"
   version="1.1"
   inkscape:version="0.91 r13725"
   sodipodi:docname="1f6ac.svg"
   width="35.999817"
   height="30">
  <metadata
     id="metadata16">
    <rdf:RDF>
      <cc:Work
         rdf:about="">
        <dc:format>image/svg+xml</dc:format>
        <dc:type
           rdf:resource="http://purl.org/dc/dcmitype/StillImage" />
      </cc:Work>
    </rdf:RDF>
  </metadata>
  <defs
     id="defs14" />
  <sodipodi:namedview
     pagecolor="#ffffff"
     bordercolor="#666666"
     borderopacity="1"
     objecttolerance="10"
     gridtolerance="10"
     guidetolerance="10"
     inkscape:pageopacity="0"
     inkscape:pageshadow="2"
     inkscape:window-width="640"
     inkscape:window-height="480"
     id="namedview12"
     showgrid="false"
     inkscape:zoom="6.5555556"
     inkscape:cx="18"
     inkscape:cy="12"
     inkscape:window-x="0"
     inkscape:window-y="0"
     inkscape:window-maximized="0"
     inkscape:current-layer="svg2" />
  <path
     d="M 13,30 2,30 c 0,0 -2,0 -2,-2 l 0,-5 c 0,-2 2,-2 2,-2 l 11,0 0,9 z"
     id="path4"
     inkscape:connector-curvature="0"
     style="fill:#d99e82" />
  <path
     d="m 12,21 14,0 0,9 -14,0 z"
     id="path6"
     inkscape:connector-curvature="0"
     style="fill:#e1e8ed" />
  <path
     d="m 31,21 -6,0 0,9 6,0 c 0,0 2,0 2,-2 l 0,-5 c 0,-2 -2,-2 -2,-2 z"
     id="path8"
     inkscape:connector-curvature="0"
     style="fill:#66757f" />
  <path
     d="m 27.79,20 c -0.488,0 -0.916,-0.358 -0.988,-0.855 -0.029,-0.2 -0.654,-4.924 4.475,-8.002 C 33.775,9.644 34.34,6.897 33.809,4.979 33.561,4.083 32.673,2 29.791,2 c -3.142,0 -3.963,1.77 -4.15,2.562 -0.282,1.197 0,2.141 0.625,2.594 0.649,0.47 1.423,0.332 1.932,0.017 0.389,-0.24 0.594,-0.646 0.594,-1.173 0,-0.552 0.447,-1 1,-1 0.553,0 1,0.448 1,1 0,1.221 -0.562,2.269 -1.542,2.874 C 28.144,9.557 26.431,9.412 25.331,8.797 23.98,8.041 23.27,6.174 23.742,4.178 24.358,1.562 26.62,0 29.791,0 c 2.908,0 5.186,1.703 5.945,4.445 0.889,3.208 -0.522,6.667 -3.431,8.412 -4,2.4 -3.53,5.962 -3.525,5.998 0.08,0.547 -0.299,1.055 -0.845,1.134 C 27.887,19.997 27.838,20 27.79,20 Z"
     id="path10"
     inkscape:connector-curvature="0"
     style="fill:#ccd6dd" />
</svg>
