<?xml version="1.0" encoding="UTF-8" standalone="no"?>
<svg
   xmlns:dc="http://purl.org/dc/elements/1.1/"
   xmlns:cc="http://creativecommons.org/ns#"
   xmlns:rdf="http://www.w3.org/1999/02/22-rdf-syntax-ns#"
   xmlns:svg="http://www.w3.org/2000/svg"
   xmlns="http://www.w3.org/2000/svg"
   xmlns:sodipodi="http://sodipodi.sourceforge.net/DTD/sodipodi-0.dtd"
   xmlns:inkscape="http://www.inkscape.org/namespaces/inkscape"
   viewBox="0 0 36 36"
   id="svg2"
   version="1.1"
   inkscape:version="0.91 r13725"
   sodipodi:docname="1f6ad.svg"
   width="36"
   height="36">
  <metadata
     id="metadata14">
    <rdf:RDF>
      <cc:Work
         rdf:about="">
        <dc:format>image/svg+xml</dc:format>
        <dc:type
           rdf:resource="http://purl.org/dc/dcmitype/StillImage" />
      </cc:Work>
    </rdf:RDF>
  </metadata>
  <defs
     id="defs12" />
  <sodipodi:namedview
     pagecolor="#ffffff"
     bordercolor="#666666"
     borderopacity="1"
     objecttolerance="10"
     gridtolerance="10"
     guidetolerance="10"
     inkscape:pageopacity="0"
     inkscape:pageshadow="2"
     inkscape:window-width="640"
     inkscape:window-height="480"
     id="namedview10"
     showgrid="false"
     inkscape:zoom="6.5555556"
     inkscape:cx="18"
     inkscape:cy="18"
     inkscape:window-x="0"
     inkscape:window-y="0"
     inkscape:window-maximized="0"
     inkscape:current-layer="svg2" />
  <circle
     cx="18"
     cy="18"
     r="17"
     id="circle4" />
  <path
     d="m 23.703,17 -0.017,0 c -0.407,0 -0.733,-0.261 -0.733,-0.668 0,-0.219 0.082,-2.149 2.929,-4.047 1.475,-0.983 1.784,-2.609 1.447,-3.721 -0.315,-1.042 -1.164,-1.63 -2.328,-1.63 -1.771,0 -2.26,0.957 -2.394,1.524 -0.169,0.713 0.046,1.179 0.268,1.369 0.325,0.279 0.8,0.218 1.075,0.049 0.196,-0.122 0.301,-0.331 0.301,-0.606 0,-0.414 0.336,-0.75 0.75,-0.75 0.414,0 0.75,0.336 0.75,0.75 0,0.799 -0.369,1.485 -1.013,1.883 -0.721,0.446 -1.832,0.4 -2.557,-0.004 -0.886,-0.494 -1.337,-1.743 -1.034,-3.031 0.396,-1.674 1.836,-2.674 3.854,-2.674 1.844,0 3.251,1.011 3.764,2.704 0.602,1.986 -0.242,4.215 -2.051,5.421 -2.173,1.449 -2.259,2.723 -2.261,2.779 C 24.435,16.75 24.104,17 23.703,17 Z M 22,19 6,19 c 0,0 -2,0 -2,2 l 0,1 c 0,2 2,2 2,2 l 16,0 0,-5 z m 5,0 -3,0 0,5 3,0 c 0,0 2,0 2,-2 l 0,-1 c 0,-2 -2,-2 -2,-2 z"
     id="path6"
     inkscape:connector-curvature="0"
     style="fill:#ffffff" />
  <path
     d="M 18,0 C 8.059,0 0,8.06 0,18 0,27.941 8.059,36 18,36 27.941,36 36,27.941 36,18 36,8.06 27.941,0 18,0 Z m 16,18 c 0,3.969 -1.453,7.592 -3.845,10.389 L 7.612,5.845 C 10.409,3.453 14.032,2 18,2 26.837,2 34,9.164 34,18 Z M 2,18 C 2,14.032 3.453,10.409 5.844,7.613 L 28.387,30.156 C 25.591,32.548 21.968,34 18,34 9.164,34 2,26.837 2,18 Z"
     id="path8"
     inkscape:connector-curvature="0"
     style="fill:#dd2e44" />
</svg>
