<?xml version="1.0" encoding="UTF-8" standalone="no"?>
<svg
   xmlns:dc="http://purl.org/dc/elements/1.1/"
   xmlns:cc="http://creativecommons.org/ns#"
   xmlns:rdf="http://www.w3.org/1999/02/22-rdf-syntax-ns#"
   xmlns:svg="http://www.w3.org/2000/svg"
   xmlns="http://www.w3.org/2000/svg"
   xmlns:sodipodi="http://sodipodi.sourceforge.net/DTD/sodipodi-0.dtd"
   xmlns:inkscape="http://www.inkscape.org/namespaces/inkscape"
   viewBox="0 0 36 36"
   id="svg2"
   version="1.1"
   inkscape:version="0.91 r13725"
   sodipodi:docname="1f6b0.svg"
   width="36"
   height="36">
  <metadata
     id="metadata18">
    <rdf:RDF>
      <cc:Work
         rdf:about="">
        <dc:format>image/svg+xml</dc:format>
        <dc:type
           rdf:resource="http://purl.org/dc/dcmitype/StillImage" />
      </cc:Work>
    </rdf:RDF>
  </metadata>
  <defs
     id="defs16" />
  <sodipodi:namedview
     pagecolor="#ffffff"
     bordercolor="#666666"
     borderopacity="1"
     objecttolerance="10"
     gridtolerance="10"
     guidetolerance="10"
     inkscape:pageopacity="0"
     inkscape:pageshadow="2"
     inkscape:window-width="640"
     inkscape:window-height="480"
     id="namedview14"
     showgrid="false"
     inkscape:zoom="6.5555556"
     inkscape:cx="18"
     inkscape:cy="18"
     inkscape:window-x="0"
     inkscape:window-y="0"
     inkscape:window-maximized="0"
     inkscape:current-layer="svg2" />
  <path
     d="M 0,4 C 0,0 4,0 4,0 l 28,0 c 0,0 4,0 4,4 l 0,28 c 0,0 0,4 -4,4 L 4,36 C 4,36 0,36 0,32 L 0,4 Z"
     id="path4"
     inkscape:connector-curvature="0"
     style="fill:#226699" />
  <g
     id="g6"
     style="fill:#ffffff">
    <path
       d="M 33,9 22,9 22,3 c 0,0 0,-1 -1,-1 -1,0 -1,1 -1,1 l 0,6 c -8,0 -8,7 -8,7 l 0,2 c 0,1 1,1 1,1 l 3,0 c 0,0 1,0 1,-1 l 0,-2 c 0,-2 2,-2 2,-2 l 14,0 c 1,0 1,-1 1,-1 l 0,-3 c 0,0 0,-1 -1,-1 z"
       id="path8"
       inkscape:connector-curvature="0" />
    <path
       d="m 18.5,3 -3,0 C 14.671,3 14,3.671 14,4.5 14,5.329 14.671,6 15.5,6 l 3,0 C 19.328,6 20,5.329 20,4.5 20,3.671 19.328,3 18.5,3 Z m 5,3 3,0 C 27.328,6 28,5.329 28,4.5 28,3.671 27.328,3 26.5,3 l -3,0 C 22.672,3 22,3.671 22,4.5 22,5.329 22.672,6 23.5,6 Z"
       id="path10"
       inkscape:connector-curvature="0" />
  </g>
  <path
     d="m 20,20 c -1,0 -1,1 -1,1 l 0,5 -9,0 0,-5 c 0,0 0,-1 -1,-1 -1,0 -1,1 -1,1 l 0,11 c 0,0 0,2 2,2 l 9,0 c 2,0 2,-2 2,-2 l 0,-11 c 0,0 0,-1 -1,-1 z"
     id="path12"
     inkscape:connector-curvature="0"
     style="fill:#ffffff" />
</svg>
