<?xml version="1.0" encoding="UTF-8" standalone="no"?>
<svg
   xmlns:dc="http://purl.org/dc/elements/1.1/"
   xmlns:cc="http://creativecommons.org/ns#"
   xmlns:rdf="http://www.w3.org/1999/02/22-rdf-syntax-ns#"
   xmlns:svg="http://www.w3.org/2000/svg"
   xmlns="http://www.w3.org/2000/svg"
   xmlns:sodipodi="http://sodipodi.sourceforge.net/DTD/sodipodi-0.dtd"
   xmlns:inkscape="http://www.inkscape.org/namespaces/inkscape"
   viewBox="0 0 36 34.392303"
   id="svg2"
   version="1.1"
   inkscape:version="0.91 r13725"
   sodipodi:docname="1f6b4-1f3fc-200d-2640-fe0f.svg"
   width="36"
   height="34.392303">
  <metadata
     id="metadata40">
    <rdf:RDF>
      <cc:Work
         rdf:about="">
        <dc:format>image/svg+xml</dc:format>
        <dc:type
           rdf:resource="http://purl.org/dc/dcmitype/StillImage" />
      </cc:Work>
    </rdf:RDF>
  </metadata>
  <defs
     id="defs38" />
  <sodipodi:namedview
     pagecolor="#ffffff"
     bordercolor="#666666"
     borderopacity="1"
     objecttolerance="10"
     gridtolerance="10"
     guidetolerance="10"
     inkscape:pageopacity="0"
     inkscape:pageshadow="2"
     inkscape:window-width="640"
     inkscape:window-height="480"
     id="namedview36"
     showgrid="false"
     inkscape:zoom="6.5555556"
     inkscape:cx="18"
     inkscape:cy="18"
     inkscape:window-x="0"
     inkscape:window-y="0"
     inkscape:window-maximized="0"
     inkscape:current-layer="svg2" />
  <path
     d="m 12.375,4.7253048 c -1,1 0.625,0.667 1.625,2.667 1,2 4,1 3,-1 -0.211,-0.423 -1.044,-1.096 -1.731,-1.604 0,0 0.586,-0.687 0.273,-1.416 -0.313,-0.729 -3.167,1.353 -3.167,1.353 z"
     id="path4"
     inkscape:connector-curvature="0"
     style="fill:#f3d2a2" />
  <path
     d="m 11.978,0.68830485 c -1.54,0.04 -2.756,1.31999995 -2.717,2.85999995 0.04,1.54 1.32,2.756 2.86,2.717 1.54,-0.04 2.756,-1.32 2.717,-2.86 -0.039,-1.541 -1.32,-2.75699995 -2.86,-2.71699995 z"
     id="path6"
     inkscape:connector-curvature="0"
     style="fill:#f3d2a2" />
  <path
     d="m 19.953,2.2463048 c -0.855,0.237 -1.891,0.562 -3.461,-0.583 -1.121,-0.81799995 -2.167,-1.08999995 -4.369,-0.608 -2.338,0.512 -3.981,2.234 -2.32,2.709 0.725,0.207 1.247,-0.07 2.341,-0.184 1.605,-0.167 2.257,1.189 3.814,1.188 3.046,-0.004 5.271,-2.876 3.995,-2.522 z"
     id="path8"
     inkscape:connector-curvature="0"
     style="fill:#ffe51e" />
  <path
     d="m 19,14.392305 c 0,0 -3,2 -3,3 0,1 4,4 5,5 1,1 3,1 2,-1 -1,-2 -4,-7 -4,-7 z"
     id="path10"
     inkscape:connector-curvature="0"
     style="fill:#e2c196" />
  <path
     d="m 20.634,21.413305 c 0,0 1.173,0.789 1.962,-0.385 0.789,-1.174 1.365,1.771 1.365,1.771 0,0 -2.559,2.539 -4.521,2.924 -1.962,0.385 -1.173,-0.789 -0.385,-1.962 l 1.579,-2.348 z"
     id="path12"
     inkscape:connector-curvature="0"
     style="fill:#a0041e" />
  <path
     d="m 7,20.392305 c -3.866,0 -7,3.134 -7,7 0,3.866 3.134,7 7,7 3.866,0 7,-3.134 7,-7 0,-3.866 -3.133,-7 -7,-7 z m 0,12 c -2.761,0 -5,-2.238 -5,-5 0,-2.762 2.239,-5 5,-5 2.761,0 5,2.238 5,5 0,2.762 -2.238,5 -5,5 z m 22,-12 c -3.865,0 -7,3.134 -7,7 0,3.866 3.135,7 7,7 3.867,0 7,-3.134 7,-7 0,-3.866 -3.133,-7 -7,-7 z m 0,12 c -2.761,0 -5,-2.238 -5,-5 0,-2.762 2.239,-5 5,-5 2.762,0 5,2.238 5,5 0,2.762 -2.238,5 -5,5 z"
     id="path14"
     inkscape:connector-curvature="0"
     style="fill:#292f33" />
  <g
     id="g16"
     style="fill:#aab8c2"
     transform="translate(0,-1.6076952)">
    <path
       d="m 22,20 c 0,-0.553 -0.484,-1 -1.083,-1 L 10.083,19 C 9.485,19 9,19.447 9,20 c 0,0.553 0.485,1 1.083,1 l 10.833,0 C 21.516,21 22,20.553 22,20 Z m 8,9 c 0,-0.553 -0.447,-1 -1,-1 l -11,0 c -0.552,0 -1,0.447 -1,1 0,0.553 0.448,1 1,1 l 11,0 c 0.553,0 1,-0.447 1,-1 z"
       id="path18"
       inkscape:connector-curvature="0" />
    <path
       d="m 21.224,17 -4.166,11.664 c -0.185,0.519 0.086,1.092 0.606,1.277 C 17.775,29.981 17.888,30 18,30 c 0.411,0 0.796,-0.255 0.942,-0.664 L 23.348,17 21.224,17 Z"
       id="path20"
       inkscape:connector-curvature="0" />
    <path
       d="m 29.001,30 c -0.33,0 -0.654,-0.164 -0.845,-0.463 l -7,-11 c -0.297,-0.466 -0.159,-1.084 0.307,-1.381 0.467,-0.297 1.084,-0.159 1.381,0.307 l 7,11 c 0.297,0.466 0.159,1.084 -0.307,1.381 C 29.37,29.949 29.185,30 29.001,30 Z M 19,25.734 10.613,19.21 C 10.178,18.87 9.55,18.95 9.21,19.386 8.871,19.823 8.95,20.45 9.386,20.789 l 9,7 C 18.568,27.932 18.784,28 18.999,28 L 19,28 19,25.734 Z"
       id="path22"
       inkscape:connector-curvature="0" />
    <path
       d="M 7,30 C 6.896,30 6.789,29.983 6.684,29.948 6.16,29.774 5.877,29.208 6.052,28.683 L 8.824,20.367 5.401,17.799 c -0.442,-0.331 -0.531,-0.958 -0.2,-1.4 0.331,-0.44 0.957,-0.531 1.4,-0.2 l 4.577,3.433 -3.228,9.684 C 7.809,29.735 7.418,30 7,30 Z"
       id="path24"
       inkscape:connector-curvature="0" />
  </g>
  <path
     d="m 26.383,17.392305 c -0.03,0 -0.059,-0.002 -0.089,-0.006 l -5.672,-0.708 c -0.372,-0.046 -0.644,-0.374 -0.62,-0.748 0.023,-0.374 0.333,-0.665 0.707,-0.665 0.041,0 4.067,-0.018 5.989,-1.299 0.25,-0.167 0.582,-0.157 0.824,0.026 0.239,0.185 0.337,0.501 0.241,0.788 l -0.709,2.127 c -0.096,0.293 -0.369,0.485 -0.671,0.485 z m -15.383,-1 -5,0 c -0.552,0 -1,-0.448 -1,-1 0,-0.552 0.448,-1 1,-1 l 5,0 c 0.552,0 1,0.448 1,1 0,0.552 -0.448,1 -1,1 z"
     id="path26"
     inkscape:connector-curvature="0"
     style="fill:#292f33" />
  <path
     d="m 21.999,11.392305 -3.999,3 3,3 z"
     id="path28"
     inkscape:connector-curvature="0"
     style="fill:#a0041e" />
  <path
     d="m 19.999,15.392305 c 0,0 -2,3 -2,4 0,1 1,4 1,7 0,3 2,3 2,2 0,-1 1.581,-5.419 0,-7 -1,-1 2,-4 2,-4 l -3,-2 z m -4.314,-3.703 -2.75,-0.784 c -0.447,1.956 -3.023,4.486 -3.935,4.486 -1,0 -2,0 -2,1 0,1 0,1 2,1 2,0 4,-2 5,-3 0.65,-0.65 1.309,-1.757 1.685,-2.702 z"
     id="path30"
     inkscape:connector-curvature="0"
     style="fill:#f3d2a2" />
  <path
     d="m 21.999,11.392305 -3,4 4,3 c 0,0 5,-5 5,-7 0,-2.0000002 -3,-3.0000002 -3,-3.0000002 l -3,3.0000002 z"
     id="path32"
     inkscape:connector-curvature="0"
     style="fill:#be1931" />
  <path
     d="m 20.999,5.3913048 c -3,-1 -5.585,-0.414 -7,1 -1,1 -1,2 -1,4.0000002 0,0.176 -0.03,0.362 -0.073,0.55 l 2.744,0.784 c 0.202,-0.509 0.33,-0.984 0.33,-1.334 0,-1.0000002 1,-1.0000002 2,0 1,1 2,2 3,2 1,0 6,-4.0000002 6,-4.0000002 -3.001,-1 -4.103,-2.368 -6.001,-3 z M 19,27.392305 c 0,0 1,1 2,0 1,-1 1,2 1,2 0,0 -3,2 -5,2 -2,0 -1,-1 0,-2 l 2,-2 z M 11,0.39230485 c 2,-1 6,0 4,1.99999995 -1,1 -7,2 -7,2 0,-1 1,-3 3,-3.99999995 z"
     id="path34"
     inkscape:connector-curvature="0"
     style="fill:#dd2e44" />
</svg>
