<?xml version="1.0" encoding="UTF-8" standalone="no"?>
<svg
   xmlns:dc="http://purl.org/dc/elements/1.1/"
   xmlns:cc="http://creativecommons.org/ns#"
   xmlns:rdf="http://www.w3.org/1999/02/22-rdf-syntax-ns#"
   xmlns:svg="http://www.w3.org/2000/svg"
   xmlns="http://www.w3.org/2000/svg"
   xmlns:sodipodi="http://sodipodi.sourceforge.net/DTD/sodipodi-0.dtd"
   xmlns:inkscape="http://www.inkscape.org/namespaces/inkscape"
   viewBox="0 0 36 36"
   id="svg2"
   version="1.1"
   inkscape:version="0.91 r13725"
   sodipodi:docname="1f6bb.svg"
   width="36"
   height="36">
  <metadata
     id="metadata12">
    <rdf:RDF>
      <cc:Work
         rdf:about="">
        <dc:format>image/svg+xml</dc:format>
        <dc:type
           rdf:resource="http://purl.org/dc/dcmitype/StillImage" />
      </cc:Work>
    </rdf:RDF>
  </metadata>
  <defs
     id="defs10" />
  <sodipodi:namedview
     pagecolor="#ffffff"
     bordercolor="#666666"
     borderopacity="1"
     objecttolerance="10"
     gridtolerance="10"
     guidetolerance="10"
     inkscape:pageopacity="0"
     inkscape:pageshadow="2"
     inkscape:window-width="640"
     inkscape:window-height="480"
     id="namedview8"
     showgrid="false"
     inkscape:zoom="6.5555556"
     inkscape:cx="18"
     inkscape:cy="18"
     inkscape:window-x="0"
     inkscape:window-y="0"
     inkscape:window-maximized="0"
     inkscape:current-layer="svg2" />
  <path
     d="m 36,32 c 0,2.209 -1.791,4 -4,4 L 4,36 C 1.791,36 0,34.209 0,32 L 0,4 C 0,1.791 1.791,0 4,0 l 28,0 c 2.209,0 4,1.791 4,4 l 0,28 z"
     id="path4"
     inkscape:connector-curvature="0"
     style="fill:#3b88c3" />
  <path
     d="M 17.838,18.211 C 17.181,16.677 15.139,12.391 12.313,10.702 12.736,10.1 13,9.339 13,8.5 13,6.566 11.656,5 10,5 8.343,5 7,6.566 7,8.5 c 0,0.84 0.264,1.6 0.687,2.203 -2.826,1.689 -4.868,5.976 -5.525,7.51 -0.435,1.014 0.035,2.189 1.049,2.625 C 3.468,20.947 3.735,21 3.999,21 4.774,21 5.512,20.546 5.838,19.789 5.89,19.667 5.945,19.547 6,19.426 L 6,31.5 C 6,32.328 6.671,33 7.5,33 8.329,33 9,32.328 9,31.5 L 9,24 c 0,-0.553 0.448,-1 1,-1 0.552,0 1,0.447 1,1 l 0,7.5 c 0,0.828 0.672,1.5 1.5,1.5 0.828,0 1.5,-0.672 1.5,-1.5 l 0,-12.072 c 0.055,0.12 0.109,0.239 0.162,0.361 0.437,1.014 1.612,1.483 2.627,1.048 1.014,-0.437 1.484,-1.61 1.049,-2.626 z m 13.158,1.914 c 0.297,0.346 0.717,0.523 1.14,0.523 0.345,0 0.692,-0.119 0.976,-0.361 0.629,-0.539 0.701,-1.486 0.162,-2.115 l -5.73,-6.686 C 28.412,10.874 29,9.771 29,8.5 29,6.566 27.656,5 26,5 c -1.657,0 -3,1.567 -3,3.5 0,1.35 0.662,2.507 1.621,3.091 l -5.739,6.408 c -0.552,0.617 -0.5,1.566 0.117,2.118 0.618,0.553 1.567,0.499 2.118,-0.117 L 23,18 l 0,2 -4,6 3,0 0,5.5 c 0,0.828 0.671,1.5 1.5,1.5 0.829,0 1.5,-0.672 1.5,-1.5 l 0,-5.5 2,0 0,5.5 c 0,0.828 0.672,1.5 1.5,1.5 0.828,0 1.5,-0.672 1.5,-1.5 l 0,-5.5 3,0 -4,-6 0,-2 1.996,2.125 z"
     id="path6"
     inkscape:connector-curvature="0"
     style="fill:#ffffff" />
</svg>
