<?xml version="1.0" encoding="UTF-8" standalone="no"?>
<svg
   xmlns:dc="http://purl.org/dc/elements/1.1/"
   xmlns:cc="http://creativecommons.org/ns#"
   xmlns:rdf="http://www.w3.org/1999/02/22-rdf-syntax-ns#"
   xmlns:svg="http://www.w3.org/2000/svg"
   xmlns="http://www.w3.org/2000/svg"
   xmlns:sodipodi="http://sodipodi.sourceforge.net/DTD/sodipodi-0.dtd"
   xmlns:inkscape="http://www.inkscape.org/namespaces/inkscape"
   viewBox="0 0 36 36"
   id="svg2"
   version="1.1"
   inkscape:version="0.91 r13725"
   sodipodi:docname="1f6b3.svg"
   width="36"
   height="36">
  <metadata
     id="metadata18">
    <rdf:RDF>
      <cc:Work
         rdf:about="">
        <dc:format>image/svg+xml</dc:format>
        <dc:type
           rdf:resource="http://purl.org/dc/dcmitype/StillImage" />
      </cc:Work>
    </rdf:RDF>
  </metadata>
  <defs
     id="defs16" />
  <sodipodi:namedview
     pagecolor="#ffffff"
     bordercolor="#666666"
     borderopacity="1"
     objecttolerance="10"
     gridtolerance="10"
     guidetolerance="10"
     inkscape:pageopacity="0"
     inkscape:pageshadow="2"
     inkscape:window-width="640"
     inkscape:window-height="480"
     id="namedview14"
     showgrid="false"
     inkscape:zoom="6.5555556"
     inkscape:cx="18"
     inkscape:cy="18"
     inkscape:window-x="0"
     inkscape:window-y="0"
     inkscape:window-maximized="0"
     inkscape:current-layer="svg2" />
  <path
     d="m 34.999,17.999 c 0,9.389 -7.611,17 -17,17 C 8.61,34.999 1,27.388 1,17.999 1,8.61 8.61,1 17.999,1 c 9.389,0 17,7.61 17,16.999 z"
     id="path4"
     inkscape:connector-curvature="0" />
  <g
     id="g6"
     style="fill:#ffffff">
    <path
       d="m 27,15 c -1.025,0 -1.996,0.226 -2.873,0.622 l -3.067,-4.818 0.03,-0.085 2.203,0.275 c 0.031,0.004 0.06,0.006 0.09,0.006 0.302,0 0.575,-0.192 0.672,-0.485 L 24.764,8.388 C 24.86,8.101 24.762,7.784 24.523,7.6 24.281,7.416 23.949,7.406 23.699,7.574 21.777,8.855 17.751,8.873 17.71,8.873 c -0.374,0 -0.684,0.291 -0.707,0.665 -0.024,0.374 0.248,0.701 0.62,0.748 L 19.058,10.465 18.509,12 12.332,12 8.6,9.2 c -0.443,-0.332 2.223,4.167 2.223,4.167 L 10.24,15.116 C 9.837,15.044 9.424,15 9,15 c -3.866,0 -7,3.134 -7,7 0,3.866 3.134,7 7,7 3.53,0 6.442,-2.615 6.922,-6.014 C 15.948,22.988 15.974,23 16,23 l 4.079,0 c 0.487,3.391 3.396,6 6.921,6 3.867,0 7,-3.134 7,-7 0,-3.866 -3.133,-7 -7,-7 z m -3.47,3.411 1.648,2.589 -3.077,0 c 0.205,-1.008 0.717,-1.901 1.429,-2.589 z M 20.079,21 l -2.66,0 2.5,-7 0.805,0 1.716,2.697 C 21.188,17.774 20.325,19.286 20.079,21 Z m -7.358,-7 5.074,0 -2.111,5.913 C 15.116,18.091 13.819,16.594 12.138,15.749 L 12.721,14 Z M 9,27 c -2.761,0 -5,-2.238 -5,-5 0,-2.762 2.239,-5 5,-5 0.203,0 0.396,0.036 0.592,0.06 L 8.051,21.684 C 7.876,22.208 8.159,22.775 8.683,22.949 8.788,22.983 8.895,23 9,23 9.419,23 9.809,22.735 9.949,22.316 l 1.543,-4.628 C 12.984,18.553 14,20.15 14,22 c 0,2.762 -2.239,5 -5,5 z m 18,0 c -2.418,0 -4.435,-1.718 -4.899,-4 l 4.9,0 c 0.116,0 0.23,-0.028 0.343,-0.069 0.034,-0.013 0.064,-0.027 0.097,-0.043 0.031,-0.017 0.066,-0.024 0.097,-0.044 0.03,-0.02 0.048,-0.051 0.075,-0.072 0.055,-0.044 0.103,-0.089 0.147,-0.143 0.041,-0.049 0.074,-0.099 0.104,-0.154 0.03,-0.056 0.055,-0.11 0.075,-0.172 0.021,-0.066 0.033,-0.132 0.04,-0.201 C 27.983,22.066 28,22.036 28,22 28,21.973 27.986,21.949 27.984,21.922 27.979,21.855 27.963,21.79 27.944,21.724 27.925,21.659 27.904,21.598 27.873,21.538 27.86,21.514 27.858,21.486 27.844,21.463 L 25.221,17.341 C 25.775,17.129 26.371,17 27,17 c 2.762,0 5,2.238 5,5 0,2.762 -2.238,5 -5,5 z"
       id="path8"
       inkscape:connector-curvature="0" />
    <path
       d="m 9,9 5,0 C 14.552,9 15,8.552 15,8 15,7.448 14.552,7 14,7 L 9,7 C 8.448,7 8,7.448 8,8 8,8.552 8.448,9 9,9 Z"
       id="path10"
       inkscape:connector-curvature="0" />
  </g>
  <path
     d="M 18,0 C 8.059,0 0,8.06 0,18 0,27.941 8.059,36 18,36 27.941,36 36,27.941 36,18 36,8.06 27.941,0 18,0 Z m 16,18 c 0,3.968 -1.453,7.591 -3.845,10.388 L 7.612,5.845 C 10.409,3.453 14.032,2 18,2 26.837,2 34,9.164 34,18 Z M 2,18 C 2,14.032 3.453,10.408 5.845,7.612 L 28.388,30.156 C 25.592,32.548 21.968,34 18,34 9.164,34 2,26.837 2,18 Z"
     id="path12"
     inkscape:connector-curvature="0"
     style="fill:#dd2e44" />
</svg>
