<?xml version="1.0" encoding="UTF-8" standalone="no"?>
<svg
   xmlns:dc="http://purl.org/dc/elements/1.1/"
   xmlns:cc="http://creativecommons.org/ns#"
   xmlns:rdf="http://www.w3.org/1999/02/22-rdf-syntax-ns#"
   xmlns:svg="http://www.w3.org/2000/svg"
   xmlns="http://www.w3.org/2000/svg"
   xmlns:sodipodi="http://sodipodi.sourceforge.net/DTD/sodipodi-0.dtd"
   xmlns:inkscape="http://www.inkscape.org/namespaces/inkscape"
   viewBox="0 0 36 36"
   id="svg2"
   version="1.1"
   inkscape:version="0.91 r13725"
   sodipodi:docname="1f6c5.svg"
   width="36"
   height="36">
  <metadata
     id="metadata14">
    <rdf:RDF>
      <cc:Work
         rdf:about="">
        <dc:format>image/svg+xml</dc:format>
        <dc:type
           rdf:resource="http://purl.org/dc/dcmitype/StillImage" />
      </cc:Work>
    </rdf:RDF>
  </metadata>
  <defs
     id="defs12" />
  <sodipodi:namedview
     pagecolor="#ffffff"
     bordercolor="#666666"
     borderopacity="1"
     objecttolerance="10"
     gridtolerance="10"
     guidetolerance="10"
     inkscape:pageopacity="0"
     inkscape:pageshadow="2"
     inkscape:window-width="640"
     inkscape:window-height="480"
     id="namedview10"
     showgrid="false"
     inkscape:zoom="6.5555556"
     inkscape:cx="18"
     inkscape:cy="18"
     inkscape:window-x="0"
     inkscape:window-y="0"
     inkscape:window-maximized="0"
     inkscape:current-layer="svg2" />
  <path
     d="m 36,32 c 0,2.209 -1.791,4 -4,4 L 4,36 C 1.791,36 0,34.209 0,32 L 0,4 C 0,1.791 1.791,0 4,0 l 28,0 c 2.209,0 4,1.791 4,4 l 0,28 z"
     id="path4"
     inkscape:connector-curvature="0"
     style="fill:#226699" />
  <path
     d="m 26,17 -1,0 0,13 1,0 c 1.104,0 2,-0.896 2,-2 l 0,-9 c 0,-1.104 -0.896,-2 -2,-2 z m -16,0 c -1.104,0 -2,0.896 -2,2 l 0,9 c 0,1.104 0.896,2 2,2 l 1,0 0,-13 -1,0 z m 12,0 0,-2 c 0,-1.104 -0.896,-2 -2,-2 l -4,0 c -1.104,0 -2,0.896 -2,2 l 0,2 -1,0 0,13 10,0 0,-13 -1,0 z m -6,-1 c 0,-0.553 0.448,-1 1,-1 l 2,0 c 0.553,0 1,0.447 1,1 l 0,1 -4,0 0,-1 z"
     id="path6"
     inkscape:connector-curvature="0"
     style="fill:#f5f8fa" />
  <path
     d="M 32,10 4,10 c -1.104,0 -2,0.896 -2,2 l 0,20 c 0,1.104 0.896,2 2,2 l 28,0 c 1.104,0 2,-0.896 2,-2 l 0,-20 c 0,-1.104 -0.896,-2 -2,-2 z m 0,21 c 0,0.553 -0.447,1 -1,1 L 5,32 C 4.448,32 4,31.553 4,31 L 4,13 c 0,-0.553 0.448,-1 1,-1 l 26,0 c 0.553,0 1,0.447 1,1 l 0,18 z M 24,4 17.65,4 C 17.087,2.821 15.894,2 14.5,2 12.567,2 11,3.567 11,5.5 11,7.433 12.567,9 14.5,9 16.262,9 17.705,7.694 17.95,6 l 1.719,0 C 19.916,6.926 20.416,8 21,8 21.584,8 22.084,6.926 22.331,6 L 23,6 c 0,1.104 0.448,2 1,2 0.552,0 1,-1 1,-3 C 25,3.895 24.552,4 24,4 Z M 13.5,7 C 12.671,7 12,6.329 12,5.5 12,4.671 12.671,4 13.5,4 14.329,4 15,4.671 15,5.5 15,6.329 14.329,7 13.5,7 Z"
     id="path8"
     inkscape:connector-curvature="0"
     style="fill:#f5f8fa" />
</svg>
