<?xml version="1.0" encoding="UTF-8" standalone="no"?>
<svg
   xmlns:dc="http://purl.org/dc/elements/1.1/"
   xmlns:cc="http://creativecommons.org/ns#"
   xmlns:rdf="http://www.w3.org/1999/02/22-rdf-syntax-ns#"
   xmlns:svg="http://www.w3.org/2000/svg"
   xmlns="http://www.w3.org/2000/svg"
   xmlns:sodipodi="http://sodipodi.sourceforge.net/DTD/sodipodi-0.dtd"
   xmlns:inkscape="http://www.inkscape.org/namespaces/inkscape"
   viewBox="0 0 36 36"
   id="svg2"
   version="1.1"
   inkscape:version="0.91 r13725"
   sodipodi:docname="1f6c3.svg"
   width="36"
   height="36">
  <metadata
     id="metadata14">
    <rdf:RDF>
      <cc:Work
         rdf:about="">
        <dc:format>image/svg+xml</dc:format>
        <dc:type
           rdf:resource="http://purl.org/dc/dcmitype/StillImage" />
      </cc:Work>
    </rdf:RDF>
  </metadata>
  <defs
     id="defs12" />
  <sodipodi:namedview
     pagecolor="#ffffff"
     bordercolor="#666666"
     borderopacity="1"
     objecttolerance="10"
     gridtolerance="10"
     guidetolerance="10"
     inkscape:pageopacity="0"
     inkscape:pageshadow="2"
     inkscape:window-width="640"
     inkscape:window-height="480"
     id="namedview10"
     showgrid="false"
     inkscape:zoom="6.5555556"
     inkscape:cx="18"
     inkscape:cy="18"
     inkscape:window-x="0"
     inkscape:window-y="0"
     inkscape:window-maximized="0"
     inkscape:current-layer="svg2" />
  <path
     d="m 36,32 c 0,2.209 -1.791,4 -4,4 L 4,36 C 1.791,36 0,34.209 0,32 L 0,4 C 0,1.791 1.791,0 4,0 l 28,0 c 2.209,0 4,1.791 4,4 l 0,28 z"
     id="path4"
     inkscape:connector-curvature="0"
     style="fill:#226699" />
  <path
     d="m 32.828,9 c 0,3.314 -2.685,6 -6,6 -3.312,0 -6,-2.686 -6,-6 l 12,0 z m 0,-6 -12,0 c -0.553,0 -1,0.448 -1,1 0,0.182 0.049,0.569 0.134,1.007 C 19.917,5.005 19.874,5 19.828,5 c -1.104,0 -2,0.448 -2,1 0,0.552 0.896,1 2,1 0.37,0 0.684,-0.003 0.971,-0.008 C 20.809,6.994 20.818,7 20.828,7 l 12,0 c 0.553,0 1,-2.448 1,-3 0,-0.552 -0.447,-1 -1,-1 z M 32.648,18.18 20.828,30 c 0,1.104 0.896,2 2,2 l 8,0 c 1.105,0 2,-0.896 2,-2 l 0,-11 c 0,-0.293 -0.066,-0.569 -0.18,-0.82 z m -2.82,-1.18 -7,0 c -0.057,0 -0.11,0.012 -0.166,0.017 -1.318,-0.07 -2.796,0.118 -3.248,0.569 l -5.828,6 c -0.781,0.781 -0.781,2.048 0,2.829 0.781,0.78 2.047,0.78 2.829,0 l 4.413,-4.544 0,4.129 9,-9 z"
     id="path6"
     inkscape:connector-curvature="0"
     style="fill:#f5f8fa" />
  <path
     d="M 15,28 6,28 6,19 C 6,17.896 5.104,17 4,17 2.896,17 2,17.896 2,19 l 0,9 c 0,1.104 0.896,2 2,2 0,1.104 0.896,2 2,2 l 9,0 c 1.104,0 2,-0.896 2,-2 0,-1.104 -0.896,-2 -2,-2 z"
     id="path8"
     inkscape:connector-curvature="0"
     style="fill:#f5f8fa" />
</svg>
