<?xml version="1.0" encoding="UTF-8" standalone="no"?>
<svg
   xmlns:dc="http://purl.org/dc/elements/1.1/"
   xmlns:cc="http://creativecommons.org/ns#"
   xmlns:rdf="http://www.w3.org/1999/02/22-rdf-syntax-ns#"
   xmlns:svg="http://www.w3.org/2000/svg"
   xmlns="http://www.w3.org/2000/svg"
   xmlns:sodipodi="http://sodipodi.sourceforge.net/DTD/sodipodi-0.dtd"
   xmlns:inkscape="http://www.inkscape.org/namespaces/inkscape"
   viewBox="0 0 34 36"
   id="svg2"
   version="1.1"
   inkscape:version="0.91 r13725"
   sodipodi:docname="1f6cd.svg"
   width="34"
   height="36">
  <metadata
     id="metadata16">
    <rdf:RDF>
      <cc:Work
         rdf:about="">
        <dc:format>image/svg+xml</dc:format>
        <dc:type
           rdf:resource="http://purl.org/dc/dcmitype/StillImage" />
      </cc:Work>
    </rdf:RDF>
  </metadata>
  <defs
     id="defs14" />
  <sodipodi:namedview
     pagecolor="#ffffff"
     bordercolor="#666666"
     borderopacity="1"
     objecttolerance="10"
     gridtolerance="10"
     guidetolerance="10"
     inkscape:pageopacity="0"
     inkscape:pageshadow="2"
     inkscape:window-width="640"
     inkscape:window-height="480"
     id="namedview12"
     showgrid="false"
     inkscape:zoom="6.5555556"
     inkscape:cx="17"
     inkscape:cy="18"
     inkscape:window-x="0"
     inkscape:window-y="0"
     inkscape:window-maximized="0"
     inkscape:current-layer="svg2" />
  <path
     d="M 10,0 C 5.582,0 2,3.582 2,8 l 0,8 2,0 0,-8 c 0,-3.313 2.687,-6 6,-6 3.314,0 6,2.687 6,6 l 0,8 2,0 0,-8 C 18,3.582 14.418,0 10,0 Z"
     id="path4"
     inkscape:connector-curvature="0"
     style="fill:#f4900c" />
  <path
     d="m 0,8 2,2 2,-2 2,2 2,-2 2,2 2,-2 2,2 2,-2 2,2 2,-2 0,23 -20,0 z"
     id="path6"
     inkscape:connector-curvature="0"
     style="fill:#dd2e44" />
  <path
     d="m 24,5 c -4.418,0 -8,3.582 -8,8 l 0,8 2,0 0,-8 c 0,-3.314 2.688,-6 6,-6 3.315,0 6,2.686 6,6 l 0,8 2,0 0,-8 C 32,8.582 28.418,5 24,5 Z"
     id="path8"
     inkscape:connector-curvature="0"
     style="fill:#ffcc4d" />
  <path
     d="m 14,13 2,2 2,-2 2,2 2,-2 2,2 2,-2 2,2 2,-2 2,2 2,-2 0,23 -20,0 z"
     id="path10"
     inkscape:connector-curvature="0"
     style="fill:#744eaa" />
</svg>
