<?xml version="1.0" encoding="UTF-8" standalone="no"?>
<svg
   xmlns:dc="http://purl.org/dc/elements/1.1/"
   xmlns:cc="http://creativecommons.org/ns#"
   xmlns:rdf="http://www.w3.org/1999/02/22-rdf-syntax-ns#"
   xmlns:svg="http://www.w3.org/2000/svg"
   xmlns="http://www.w3.org/2000/svg"
   xmlns:sodipodi="http://sodipodi.sourceforge.net/DTD/sodipodi-0.dtd"
   xmlns:inkscape="http://www.inkscape.org/namespaces/inkscape"
   viewBox="0 0 36 36"
   id="svg2"
   version="1.1"
   inkscape:version="0.91 r13725"
   sodipodi:docname="1f6c0-1f3fb.svg"
   width="36"
   height="36">
  <metadata
     id="metadata28">
    <rdf:RDF>
      <cc:Work
         rdf:about="">
        <dc:format>image/svg+xml</dc:format>
        <dc:type
           rdf:resource="http://purl.org/dc/dcmitype/StillImage" />
      </cc:Work>
    </rdf:RDF>
  </metadata>
  <defs
     id="defs26" />
  <sodipodi:namedview
     pagecolor="#ffffff"
     bordercolor="#666666"
     borderopacity="1"
     objecttolerance="10"
     gridtolerance="10"
     guidetolerance="10"
     inkscape:pageopacity="0"
     inkscape:pageshadow="2"
     inkscape:window-width="640"
     inkscape:window-height="480"
     id="namedview24"
     showgrid="false"
     inkscape:zoom="6.5555556"
     inkscape:cx="18"
     inkscape:cy="18"
     inkscape:window-x="0"
     inkscape:window-y="0"
     inkscape:window-maximized="0"
     inkscape:current-layer="svg2" />
  <path
     d="m 11,17 c 1,3 0.209,5 -2,5 -2.209,0 -5.012,-2.024 -6,-4 -1,-2 0.904,-4.301 3,-5 3,-1 4.368,2.102 5,4 z"
     id="path4"
     inkscape:connector-curvature="0"
     style="fill:#f7dece" />
  <path
     d="M 9,13 C 9,12 6,11 3,14 0,17 4.021,19 4.021,19 4.021,19 8,22 7,19 6,16 9,13.999 9,13 Z"
     id="path6"
     inkscape:connector-curvature="0"
     style="fill:#292f33" />
  <ellipse
     cx="32"
     cy="16"
     rx="2"
     ry="1"
     id="ellipse8"
     style="fill:#99aab5" />
  <path
     d="m 33,21 c -0.553,0 -1,-0.447 -1,-1 L 32,4 C 32,2.418 30.038,2 29,2 27.962,2 26,2.418 26,4 26,4.552 25.553,5 25,5 24.447,5 24,4.552 24,4 c 0,-2.626 2.516,-4 5,-4 2.484,0 5,1.374 5,4 l 0,16 c 0,0.553 -0.447,1 -1,1 z"
     id="path10"
     inkscape:connector-curvature="0"
     style="fill:#ccd6dd" />
  <path
     d="m 28,6 c 0,1.104 -1.343,1 -3,1 -1.657,0 -3,0.104 -3,-1 0,-1.104 1.343,-2 3,-2 1.657,0 3,0.896 3,2 z"
     id="path12"
     inkscape:connector-curvature="0"
     style="fill:#99aab5" />
  <path
     d="m 29,7 c 0,0.552 -0.447,1 -1,1 L 22,8 C 21.447,8 21,7.552 21,7 21,6.448 21.447,6 22,6 l 6,0 c 0.553,0 1,0.448 1,1 z"
     id="path14"
     inkscape:connector-curvature="0"
     style="fill:#ccd6dd" />
  <circle
     cx="12"
     cy="34"
     r="2"
     id="circle16"
     style="fill:#99aab5" />
  <circle
     cx="28"
     cy="34"
     r="2"
     id="circle18"
     style="fill:#99aab5" />
  <path
     d="M 30,34 12,34 C 7,34 2,28 1,20 0.752,18.016 1.812,19 4.021,19 4.021,19 17,21 30,21 c 2,0 5,-1.209 5,1 0,0 -1,12 -5,12 z"
     id="path20"
     inkscape:connector-curvature="0"
     style="fill:#ccd6dd" />
  <path
     d="m 36,21 c 0,0.553 -0.447,1 -1,1 L 1,20 C 0.448,20 0,19.553 0,19 0,18.447 0.448,18 1,18 l 34,2 c 0.553,0 1,0.447 1,1 z"
     id="path22"
     inkscape:connector-curvature="0"
     style="fill:#99aab5" />
</svg>
