<?xml version="1.0" encoding="UTF-8" standalone="no"?>
<svg
   xmlns:dc="http://purl.org/dc/elements/1.1/"
   xmlns:cc="http://creativecommons.org/ns#"
   xmlns:rdf="http://www.w3.org/1999/02/22-rdf-syntax-ns#"
   xmlns:svg="http://www.w3.org/2000/svg"
   xmlns="http://www.w3.org/2000/svg"
   xmlns:sodipodi="http://sodipodi.sourceforge.net/DTD/sodipodi-0.dtd"
   xmlns:inkscape="http://www.inkscape.org/namespaces/inkscape"
   viewBox="0 0 36 24"
   id="svg2"
   version="1.1"
   inkscape:version="0.91 r13725"
   sodipodi:docname="1f6cf.svg"
   width="36"
   height="24">
  <metadata
     id="metadata18">
    <rdf:RDF>
      <cc:Work
         rdf:about="">
        <dc:format>image/svg+xml</dc:format>
        <dc:type
           rdf:resource="http://purl.org/dc/dcmitype/StillImage" />
      </cc:Work>
    </rdf:RDF>
  </metadata>
  <defs
     id="defs16" />
  <sodipodi:namedview
     pagecolor="#ffffff"
     bordercolor="#666666"
     borderopacity="1"
     objecttolerance="10"
     gridtolerance="10"
     guidetolerance="10"
     inkscape:pageopacity="0"
     inkscape:pageshadow="2"
     inkscape:window-width="640"
     inkscape:window-height="480"
     id="namedview14"
     showgrid="false"
     inkscape:zoom="6.5555556"
     inkscape:cx="18"
     inkscape:cy="18"
     inkscape:window-x="0"
     inkscape:window-y="0"
     inkscape:window-maximized="0"
     inkscape:current-layer="svg2" />
  <path
     d="m 1,16 34,0 0,5 -34,0 z"
     id="path4"
     inkscape:connector-curvature="0"
     style="fill:#c1694f" />
  <path
     d="m 36,23 c 0,0.553 -0.447,1 -1,1 -0.553,0 -1,-0.447 -1,-1 L 34,9 c 0,-0.553 0.447,-1 1,-1 0.553,0 1,0.447 1,1 l 0,14 z M 0,23 c 0,0.553 0.447,1 1,1 0.553,0 1,-0.447 1,-1 L 2,1 C 2,0.448 1.553,0 1,0 0.447,0 0,0.448 0,1 l 0,22 z"
     id="path6"
     inkscape:connector-curvature="0"
     style="fill:#c1694f" />
  <path
     d="M 32,11 4,11 c -1.104,0 -2,0.896 -2,2 l 0,4 32,0 0,-4 c 0,-1.104 -0.896,-2 -2,-2 z"
     id="path8"
     inkscape:connector-curvature="0"
     style="fill:#226699" />
  <path
     d="M 32,11 4,11 c -1.104,0 -2,0.896 -2,2 l 0,4 32,0 0,-4 c 0,-1.104 -0.896,-2 -2,-2 z"
     id="path10"
     inkscape:connector-curvature="0"
     style="fill:#55acee" />
  <path
     d="m 2.126,7.938 c -0.261,1.073 1.485,2.419 3.9,3.006 2.415,0.587 4.584,0.192 4.846,-0.881 C 11.133,8.99 9.387,7.644 6.972,7.056 4.557,6.469 2.387,6.864 2.126,7.938 Z"
     id="path12"
     inkscape:connector-curvature="0"
     style="fill:#5c913b" />
</svg>
