<?xml version="1.0" encoding="UTF-8" standalone="no"?>
<svg
   xmlns:dc="http://purl.org/dc/elements/1.1/"
   xmlns:cc="http://creativecommons.org/ns#"
   xmlns:rdf="http://www.w3.org/1999/02/22-rdf-syntax-ns#"
   xmlns:svg="http://www.w3.org/2000/svg"
   xmlns="http://www.w3.org/2000/svg"
   xmlns:sodipodi="http://sodipodi.sourceforge.net/DTD/sodipodi-0.dtd"
   xmlns:inkscape="http://www.inkscape.org/namespaces/inkscape"
   viewBox="0 0 36 34.5"
   id="svg2"
   version="1.1"
   inkscape:version="0.91 r13725"
   sodipodi:docname="1f6d5.svg"
   width="36"
   height="34.5">
  <metadata
     id="metadata30">
    <rdf:RDF>
      <cc:Work
         rdf:about="">
        <dc:format>image/svg+xml</dc:format>
        <dc:type
           rdf:resource="http://purl.org/dc/dcmitype/StillImage" />
      </cc:Work>
    </rdf:RDF>
  </metadata>
  <defs
     id="defs28" />
  <sodipodi:namedview
     pagecolor="#ffffff"
     bordercolor="#666666"
     borderopacity="1"
     objecttolerance="10"
     gridtolerance="10"
     guidetolerance="10"
     inkscape:pageopacity="0"
     inkscape:pageshadow="2"
     inkscape:window-width="640"
     inkscape:window-height="480"
     id="namedview26"
     showgrid="false"
     inkscape:zoom="6.5555556"
     inkscape:cx="18"
     inkscape:cy="18"
     inkscape:window-x="0"
     inkscape:window-y="0"
     inkscape:window-maximized="0"
     inkscape:current-layer="svg2" />
  <path
     d="M 25,1.375 18,0.5 18,5.75 25,4.875 22.2,3.125 Z"
     id="path4"
     inkscape:connector-curvature="0"
     style="fill:#ff8044" />
  <path
     d="m 0,34.5 36,0 -2,-2 -32,0 z"
     id="path6"
     inkscape:connector-curvature="0"
     style="fill:#c7521e" />
  <path
     d="m 17.5,1.5 c 0,-2 1,-2 1,0 0,5 1,9 1,9 l -3,0 c 0,0 1,-4 1,-9 z"
     id="path8"
     inkscape:connector-curvature="0"
     style="fill:#662113" />
  <path
     d="m 28,27.5 0,-2 -4,-1.938 0,-4.062 -2,-2 -0.123,0 c 0,0 0.732,-3.967 -1.377,-5.449 l 0,-1.551 -1,-1 -3,0 -1,1 0,1.551 C 13.391,13.533 14.123,17.5 14.123,17.5 l -0.123,0 -2,2 0,4.062 -4,1.938 0,2 -4,2 0,4 28,0.037 0,-4.037 -4,-2 z"
     id="path10"
     inkscape:connector-curvature="0"
     style="fill:#c7521e" />
  <path
     d="m 19.846,17.5 -3.692,0 c 0,0 -0.615,-5 0.615,-5 l 2.462,0 c 1.231,0 0.615,5 0.615,5 z"
     id="path12"
     inkscape:connector-curvature="0"
     style="fill:#662113" />
  <path
     d="m 11.784,21.977 0,-0.521 -0.292,-0.292 -0.063,0 C 11.343,20.729 11.2,19.851 11.2,18.827 c 0,-0.584 -0.292,-0.584 -0.292,0 0,1.023 -0.143,1.902 -0.229,2.337 l -0.063,0 -0.292,0.292 0,0.521 C 9.859,22.451 10.031,23.5 10.031,23.5 l 2.045,0 c 0,0 0.172,-1.049 -0.292,-1.523 z m 13.906,0 0,-0.521 -0.292,-0.292 -0.063,0 c -0.086,-0.435 -0.229,-1.313 -0.229,-2.337 0,-0.584 -0.292,-0.584 -0.292,0 0,1.023 -0.143,1.902 -0.229,2.337 l -0.063,0 -0.292,0.292 0,0.521 C 23.765,22.451 23.938,23.5 23.938,23.5 l 2.045,0 c -0.001,0 0.171,-1.049 -0.293,-1.523 z m 4,4 0,-0.521 -0.292,-0.292 -0.063,0 c -0.086,-0.435 -0.229,-1.313 -0.229,-2.337 0,-0.584 -0.292,-0.584 -0.292,0 0,1.023 -0.143,1.902 -0.229,2.337 l -0.063,0 -0.292,0.292 0,0.521 C 27.765,26.451 27.938,27.5 27.938,27.5 l 2.045,0 c -0.001,0 0.171,-1.049 -0.293,-1.523 z m 4,5 0,-0.521 -0.292,-0.292 -0.063,0 c -0.086,-0.435 -0.229,-1.313 -0.229,-2.337 0,-0.584 -0.292,-0.584 -0.292,0 0,1.023 -0.143,1.902 -0.229,2.337 l -0.063,0 -0.292,0.292 0,0.521 C 31.765,31.451 31.938,32.5 31.938,32.5 l 2.045,0 c -10e-4,0 0.171,-1.049 -0.293,-1.523 z m -25.906,-5 0,-0.521 -0.292,-0.292 -0.063,0 C 7.343,24.728 7.2,23.85 7.2,22.827 c 0,-0.584 -0.292,-0.584 -0.292,0 0,1.023 -0.143,1.902 -0.229,2.337 l -0.064,0 -0.292,0.292 0,0.521 C 5.859,26.451 6.031,27.5 6.031,27.5 l 2.045,0 c 0,0 0.172,-1.049 -0.292,-1.523 z m -4,5 0,-0.521 -0.292,-0.292 -0.063,0 C 3.343,29.728 3.2,28.85 3.2,27.827 c 0,-0.584 -0.292,-0.584 -0.292,0 0,1.023 -0.143,1.902 -0.229,2.337 l -0.064,0 -0.292,0.292 0,0.521 C 1.859,31.451 2.031,32.5 2.031,32.5 l 2.045,0 c 0,0 0.172,-1.049 -0.292,-1.523 z"
     id="path14"
     inkscape:connector-curvature="0"
     style="fill:#c7521e" />
  <path
     d="m 15.5,10.5 1,-1 3,0 1,1 z m -3.5,9 2,-2 8,0 2,2 z m -4,6 2,-2 16,0 2,2 z m -4,4 2,-2 24,0 2,2 z m -4,5 2,-2 32,0 2,2 z"
     id="path16"
     inkscape:connector-curvature="0"
     style="fill:#ff8044" />
  <path
     d="m 21,23.5 -6,0 c 0,0 0,-4 1.5,-4 l 3,0 c 1.5,0 1.5,4 1.5,4 z m 1,4 -8,0 c 0,0 0,-2 2,-2 l 4,0 c 2,0 2,2 2,2 z"
     id="path18"
     inkscape:connector-curvature="0"
     style="fill:#662113" />
  <path
     d="m 24,32.5 -12,0 c 0,0 0,-3 3,-3 l 6,0 c 3,0 3,3 3,3 z"
     id="path20"
     inkscape:connector-curvature="0"
     style="fill:#292f33" />
  <path
     d="m 21,25.5 -6,0 c -0.552,0 -1,-0.448 -1,-1 0,-0.552 0.448,-1 1,-1 l 6,0 c 0.552,0 1,0.448 1,1 0,0.552 -0.448,1 -1,1 z m 1,4 -8,0 c -0.552,0 -1,-0.448 -1,-1 0,-0.552 0.448,-1 1,-1 l 8,0 c 0.552,0 1,0.448 1,1 0,0.552 -0.448,1 -1,1 z m 2,5 -12,0 c -0.552,0 -1,-0.448 -1,-1 0,-0.552 0.448,-1 1,-1 l 12,0 c 0.552,0 1,0.448 1,1 0,0.552 -0.448,1 -1,1 z"
     id="path22"
     inkscape:connector-curvature="0"
     style="fill:#ffa06c" />
  <path
     d="m 21,29.5 1,0 0,3 -1,0 z m -7,0 1,0 0,3 -1,0 z"
     id="path24"
     inkscape:connector-curvature="0"
     style="fill:#ff8044" />
</svg>
