<?xml version="1.0" encoding="UTF-8" standalone="no"?>
<svg
   xmlns:dc="http://purl.org/dc/elements/1.1/"
   xmlns:cc="http://creativecommons.org/ns#"
   xmlns:rdf="http://www.w3.org/1999/02/22-rdf-syntax-ns#"
   xmlns:svg="http://www.w3.org/2000/svg"
   xmlns="http://www.w3.org/2000/svg"
   xmlns:sodipodi="http://sodipodi.sourceforge.net/DTD/sodipodi-0.dtd"
   xmlns:inkscape="http://www.inkscape.org/namespaces/inkscape"
   viewBox="0 0 31.999893 33"
   id="svg2"
   version="1.1"
   inkscape:version="0.91 r13725"
   sodipodi:docname="1f6d2.svg"
   width="31.999893"
   height="33">
  <metadata
     id="metadata20">
    <rdf:RDF>
      <cc:Work
         rdf:about="">
        <dc:format>image/svg+xml</dc:format>
        <dc:type
           rdf:resource="http://purl.org/dc/dcmitype/StillImage" />
      </cc:Work>
    </rdf:RDF>
  </metadata>
  <defs
     id="defs18" />
  <sodipodi:namedview
     pagecolor="#ffffff"
     bordercolor="#666666"
     borderopacity="1"
     objecttolerance="10"
     gridtolerance="10"
     guidetolerance="10"
     inkscape:pageopacity="0"
     inkscape:pageshadow="2"
     inkscape:window-width="640"
     inkscape:window-height="480"
     id="namedview16"
     showgrid="false"
     inkscape:zoom="6.5555556"
     inkscape:cx="16"
     inkscape:cy="17"
     inkscape:window-x="0"
     inkscape:window-y="0"
     inkscape:window-maximized="0"
     inkscape:current-layer="svg2" />
  <path
     d="M 29,20 9,20 7,8 31,8 Z"
     id="path4"
     inkscape:connector-curvature="0"
     style="fill:#ccd6dd" />
  <path
     d="m 30.984,25 -22,0 C 7.89,25 7,24.109 7,23.016 7,21.923 7.906,21 9,21 L 9.007,20.999 9.015,21 29,21 c 0.489,0 0.906,-0.354 0.986,-0.836 l 2,-12 C 32.035,7.874 31.953,7.578 31.762,7.353 31.573,7.129 31.294,7 31,7 L 7.817,7 6.777,0.834 C 6.698,0.361 6.293,0.042 5.835,0.02 5.819,0.017 5.808,0 5.792,0 L 1,0 C 0.448,0 0,0.448 0,1 0,1.552 0.448,2 1,2 L 4.946,2 7.849,19.216 C 6.207,19.709 5,21.216 5,23.016 5,25.213 6.788,27 8.984,27 l 22,0 c 0.553,0 1,-0.447 1,-1 0,-0.553 -0.447,-1 -1,-1 z m -2.164,-10 -3.307,0 0.273,-2 3.366,0 -0.332,2 z m -5.326,0 -3.494,0 0,-2 3.767,0 -0.273,2 z M 18,15 14.506,15 14.233,13 18,13 l 0,2 z m -5.512,0 -3.307,0 -0.333,-2 3.367,0 0.273,2 z m -2.641,4 -0.333,-2 3.247,0 0.273,2 -3.187,0 z m 5.206,0 -0.273,-2 3.22,0 0,2 -2.947,0 z M 20,19 20,17 23.22,17 22.947,19 20,19 Z m 4.967,0 0.273,-2 3.247,0 -0.333,2 -3.187,0 z m 4.852,-10 -0.333,2 -3.426,0 0.273,-2 3.486,0 z M 24.314,9 24.041,11 20,11 20,9 24.314,9 Z M 18,9 18,11 13.959,11 13.686,9 18,9 Z M 11.667,9 11.94,11 8.513,11 8.18,9 11.667,9 Z"
     id="path6"
     inkscape:connector-curvature="0"
     style="fill:#66757f" />
  <circle
     cx="12"
     cy="29"
     r="3"
     id="circle8"
     style="fill:#e1e8ed" />
  <path
     d="m 12,33 c -2.206,0 -4,-1.794 -4,-4 0,-2.206 1.794,-4 4,-4 2.206,0 4,1.794 4,4 0,2.206 -1.794,4 -4,4 z m 0,-6 c -1.103,0 -2,0.897 -2,2 0,1.103 0.897,2 2,2 1.103,0 2,-0.897 2,-2 0,-1.103 -0.897,-2 -2,-2 z"
     id="path10"
     inkscape:connector-curvature="0"
     style="fill:#292f33" />
  <circle
     cx="26"
     cy="29"
     r="3"
     id="circle12"
     style="fill:#e1e8ed" />
  <path
     d="m 26,33 c -2.206,0 -4,-1.794 -4,-4 0,-2.206 1.794,-4 4,-4 2.206,0 4,1.794 4,4 0,2.206 -1.794,4 -4,4 z m 0,-6 c -1.103,0 -2,0.897 -2,2 0,1.103 0.897,2 2,2 1.103,0 2,-0.897 2,-2 0,-1.103 -0.897,-2 -2,-2 z"
     id="path14"
     inkscape:connector-curvature="0"
     style="fill:#292f33" />
</svg>
