<?xml version="1.0" encoding="UTF-8" standalone="no"?>
<svg
   xmlns:dc="http://purl.org/dc/elements/1.1/"
   xmlns:cc="http://creativecommons.org/ns#"
   xmlns:rdf="http://www.w3.org/1999/02/22-rdf-syntax-ns#"
   xmlns:svg="http://www.w3.org/2000/svg"
   xmlns="http://www.w3.org/2000/svg"
   xmlns:sodipodi="http://sodipodi.sourceforge.net/DTD/sodipodi-0.dtd"
   xmlns:inkscape="http://www.inkscape.org/namespaces/inkscape"
   viewBox="0 0 36 36"
   id="svg2"
   version="1.1"
   inkscape:version="0.91 r13725"
   sodipodi:docname="1f6e4.svg"
   width="36"
   height="36">
  <metadata
     id="metadata26">
    <rdf:RDF>
      <cc:Work
         rdf:about="">
        <dc:format>image/svg+xml</dc:format>
        <dc:type
           rdf:resource="http://purl.org/dc/dcmitype/StillImage" />
      </cc:Work>
    </rdf:RDF>
  </metadata>
  <defs
     id="defs24" />
  <sodipodi:namedview
     pagecolor="#ffffff"
     bordercolor="#666666"
     borderopacity="1"
     objecttolerance="10"
     gridtolerance="10"
     guidetolerance="10"
     inkscape:pageopacity="0"
     inkscape:pageshadow="2"
     inkscape:window-width="640"
     inkscape:window-height="480"
     id="namedview22"
     showgrid="false"
     inkscape:zoom="6.5555556"
     inkscape:cx="18"
     inkscape:cy="18"
     inkscape:window-x="0"
     inkscape:window-y="0"
     inkscape:window-maximized="0"
     inkscape:current-layer="svg2" />
  <path
     d="m 36,32 c 0,0 0,4 -4,4 L 4,36 C 4,36 0,36 0,32 L 0,4 C 0,0 4,0 4,0 l 28,0 c 4,0 4,4 4,4 l 0,28 z"
     id="path4"
     inkscape:connector-curvature="0"
     style="fill:#88c9f9" />
  <path
     d="m 0,32 c 0,4 4,4 4,4 l 28,0 c 4,0 4,-4 4,-4 L 36,19 0,19 0,32 Z"
     id="path6"
     inkscape:connector-curvature="0"
     style="fill:#77b255" />
  <path
     d="m 29.313,4.678 c -0.274,0 -0.539,0.042 -0.787,0.119 -0.296,-0.843 -1.096,-1.449 -2.04,-1.449 -1.013,0 -1.86,0.697 -2.096,1.637 -0.25,-0.189 -0.559,-0.306 -0.898,-0.306 -0.827,0 -1.497,0.67 -1.497,1.497 0,0.201 0.041,0.392 0.114,0.567 C 21.965,6.703 21.817,6.675 21.663,6.675 20.744,6.674 20,7.418 20,8.337 20,9.256 20.744,10 21.663,10 l 7.65,0 C 30.782,10 31.974,8.809 31.974,7.339 31.975,5.87 30.782,4.678 29.313,4.678 Z"
     id="path8"
     inkscape:connector-curvature="0"
     style="fill:#f5f8fa" />
  <path
     d="M 22.375,19 13.625,19 2.263,35.616 C 3.167,35.995 4,36 4,36 l 28,0 c 0.71,0 1.289,-0.13 1.77,-0.338 L 22.375,19 Z"
     id="path10"
     inkscape:connector-curvature="0"
     style="fill:#c1694f" />
  <path
     d="m 4,36 28,0 -10.625,-17 -6.75,0 z"
     id="path12"
     inkscape:connector-curvature="0"
     style="fill:#ccd6dd" />
  <path
     d="m 6.625,36 22.75,0 -8.75,-17 -5.25,0 z"
     id="path14"
     inkscape:connector-curvature="0"
     style="fill:#58595b" />
  <path
     d="m 9.25,36 17.5,0 -6.875,-17 -3.75,0 z"
     id="path16"
     inkscape:connector-curvature="0"
     style="fill:#808285" />
  <path
     d="m 28,35 c 0,0.553 -0.447,1 -1,1 L 9,36 C 8.448,36 8,35.553 8,35 8,34.447 8.448,34 9,34 l 18,0 c 0.553,0 1,0.447 1,1 z m -2,-4 c 0,0.553 -0.447,1 -1,1 l -14,0 c -0.552,0 -1,-0.447 -1,-1 0,-0.553 0.448,-1 1,-1 l 14,0 c 0.553,0 1,0.447 1,1 z m -2,-4 c 0,0.553 -0.447,1 -1,1 l -10,0 c -0.552,0 -1,-0.447 -1,-1 0,-0.553 0.448,-1 1,-1 l 10,0 c 0.553,0 1,0.447 1,1 z m -2,-3.3 c 0,0.387 -0.224,0.7 -0.5,0.7 l -7,0 C 14.224,24.4 14,24.087 14,23.7 14,23.313 14.224,23 14.5,23 l 7,0 c 0.276,0 0.5,0.313 0.5,0.7 z m -1,-2.366 c 0,0.221 -0.18,0.399 -0.4,0.399 l -5.2,0 c -0.221,0 -0.4,-0.179 -0.4,-0.399 l 0,-0.201 c 0,-0.221 0.179,-0.399 0.4,-0.399 l 5.2,0 c 0.221,0 0.4,0.179 0.4,0.399 l 0,0.201 z m -1,-2.102 c 0,0.085 -0.18,0.412 -0.4,0.412 l -3.2,0 c -0.221,0 -0.4,-0.327 -0.4,-0.412 l 0,-0.078 C 16,19.069 16.179,19 16.4,19 l 3.2,0 c 0.221,0 0.4,0.069 0.4,0.154 l 0,0.078 z"
     id="path18"
     inkscape:connector-curvature="0"
     style="fill:#a7a9ac" />
  <path
     d="m 3.562,15.125 c 2.133,0 3.554,2.252 4.621,2.252 1.067,0 1.207,-0.502 2.629,-0.502 1.422,0 1.859,2.125 3.415,2.125 L 0,19 0.005,16.999 c 0,0 1.335,-1.874 3.557,-1.874 z m 28.876,1.187 c -2.133,0 -3.554,1.065 -4.621,1.065 -1.066,0 -1.269,-0.127 -2.691,-0.127 -1.422,0 -1.797,1.75 -3.353,1.75 L 36,19 35.994,16.999 c 0,0 -1.334,-0.687 -3.556,-0.687 z"
     id="path20"
     inkscape:connector-curvature="0"
     style="fill:#5c913b" />
</svg>
