<?xml version="1.0" encoding="UTF-8" standalone="no"?>
<svg
   xmlns:dc="http://purl.org/dc/elements/1.1/"
   xmlns:cc="http://creativecommons.org/ns#"
   xmlns:rdf="http://www.w3.org/1999/02/22-rdf-syntax-ns#"
   xmlns:svg="http://www.w3.org/2000/svg"
   xmlns="http://www.w3.org/2000/svg"
   xmlns:sodipodi="http://sodipodi.sourceforge.net/DTD/sodipodi-0.dtd"
   xmlns:inkscape="http://www.inkscape.org/namespaces/inkscape"
   viewBox="0 0 36 36"
   id="svg2"
   version="1.1"
   inkscape:version="0.91 r13725"
   sodipodi:docname="1f6e3.svg"
   width="36"
   height="36">
  <metadata
     id="metadata38">
    <rdf:RDF>
      <cc:Work
         rdf:about="">
        <dc:format>image/svg+xml</dc:format>
        <dc:type
           rdf:resource="http://purl.org/dc/dcmitype/StillImage" />
      </cc:Work>
    </rdf:RDF>
  </metadata>
  <defs
     id="defs36" />
  <sodipodi:namedview
     pagecolor="#ffffff"
     bordercolor="#666666"
     borderopacity="1"
     objecttolerance="10"
     gridtolerance="10"
     guidetolerance="10"
     inkscape:pageopacity="0"
     inkscape:pageshadow="2"
     inkscape:window-width="640"
     inkscape:window-height="480"
     id="namedview34"
     showgrid="false"
     inkscape:zoom="6.5555556"
     inkscape:cx="18"
     inkscape:cy="18"
     inkscape:window-x="0"
     inkscape:window-y="0"
     inkscape:window-maximized="0"
     inkscape:current-layer="svg2" />
  <path
     d="m 36,32 c 0,0 0,4 -4,4 L 4,36 C 4,36 0,36 0,32 L 0,4 C 0,0 4,0 4,0 l 28,0 c 4,0 4,4 4,4 l 0,28 z"
     id="path4"
     inkscape:connector-curvature="0"
     style="fill:#88c9f9" />
  <path
     d="m 0,32 c 0,4 4,4 4,4 l 28,0 c 4,0 4,-4 4,-4 L 36,19 0,19 0,32 Z"
     id="path6"
     inkscape:connector-curvature="0"
     style="fill:#77b255" />
  <path
     d="m 31.313,2.678 c -0.274,0 -0.539,0.042 -0.787,0.119 -0.296,-0.843 -1.096,-1.449 -2.04,-1.449 -1.013,0 -1.86,0.697 -2.096,1.637 -0.25,-0.189 -0.559,-0.306 -0.898,-0.306 -0.827,0 -1.497,0.67 -1.497,1.497 0,0.201 0.041,0.392 0.114,0.567 C 23.965,4.703 23.817,4.675 23.663,4.675 22.744,4.674 22,5.418 22,6.337 22,7.256 22.744,8 23.663,8 l 7.65,0 C 32.782,8 33.974,6.809 33.974,5.339 33.975,3.87 32.782,2.678 31.313,2.678 Z"
     id="path8"
     inkscape:connector-curvature="0"
     style="fill:#f5f8fa" />
  <path
     d="M 22.375,19 13.625,19 2.263,35.616 C 3.167,35.995 4,36 4,36 l 28,0 c 0.71,0 1.289,-0.13 1.77,-0.338 L 22.375,19 Z"
     id="path10"
     inkscape:connector-curvature="0"
     style="fill:#d99e82" />
  <path
     d="m 4,36 28,0 -10.625,-17 -6.75,0 z"
     id="path12"
     inkscape:connector-curvature="0"
     style="fill:#58595b" />
  <path
     d="m 6.625,36 22.75,0 -8.75,-17 -5.25,0 z"
     id="path14"
     inkscape:connector-curvature="0"
     style="fill:#808285" />
  <path
     d="m 24,36 -1,0 -4,-17 0.469,0 z m -7,-17 -4,17 -1,0 4.484,-17 z"
     id="path16"
     inkscape:connector-curvature="0"
     style="fill:#ccd6dd" />
  <path
     d="m 12,33 12,0 0,1 -12,0 z m 0,-3 12,0 0,1 -12,0 z m -0.062,-2.688 12,0 0,1 -12,0 z M 13,25 l 10,0 0,1 -10,0 z m 2,-2 6,0 0,1 -6,0 z m 0,-1.688 6,0 0,0.688 -6,0 z m 0,-1.437 6,0 0,0.688 -6,0 z"
     id="path18"
     inkscape:connector-curvature="0"
     style="fill:#808285" />
  <path
     d="M 8,21.5 C 8,21.776 7.776,22 7.5,22 7.224,22 7,21.776 7,21.5 l 0,-11 C 7,10.224 7.224,10 7.5,10 7.776,10 8,10.224 8,10.5 l 0,11 z m 21,0.096 C 29,21.819 28.819,22 28.596,22 l -0.191,0 C 28.181,22 28,21.819 28,21.596 L 28,10.404 C 28,10.181 28.181,10 28.404,10 l 0.191,0 C 28.819,10 29,10.181 29,10.404 l 0,11.192 z"
     id="path20"
     inkscape:connector-curvature="0"
     style="fill:#66757f" />
  <path
     d="m 29,10.5 c 0,0.276 -0.224,0.5 -0.5,0.5 l -21,0 C 7.224,11 7,10.776 7,10.5 7,10.224 7.224,10 7.5,10 l 21,0 c 0.276,0 0.5,0.224 0.5,0.5 z m 0,5.116 C 29,15.828 28.828,16 28.616,16 L 7.384,16 C 7.172,16 7,15.828 7,15.616 L 7,15.384 C 7,15.172 7.172,15 7.384,15 l 21.232,0 C 28.828,15 29,15.172 29,15.384 l 0,0.232 z"
     id="path22"
     inkscape:connector-curvature="0"
     style="fill:#66757f" />
  <path
     d="m 27,15 c 0,0.552 -0.447,1 -1,1 L 10,16 C 9.448,16 9,15.552 9,15 l 0,-4 c 0,-0.552 0.448,-1 1,-1 l 16,0 c 0.553,0 1,0.448 1,1 l 0,4 z"
     id="path24"
     inkscape:connector-curvature="0"
     style="fill:#5c913b" />
  <path
     d="m 13,11 2,0 0,2 -2,0 z"
     id="path26"
     inkscape:connector-curvature="0"
     style="fill:#a6d488" />
  <path
     d="m 12,14 4,0 0,1 -4,0 z"
     id="path28"
     inkscape:connector-curvature="0"
     style="fill:#77b255" />
  <path
     d="m 21,11 2,0 0,2 -2,0 z"
     id="path30"
     inkscape:connector-curvature="0"
     style="fill:#a6d488" />
  <path
     d="m 20,14 4,0 0,1 -4,0 z"
     id="path32"
     inkscape:connector-curvature="0"
     style="fill:#77b255" />
</svg>
