<?xml version="1.0" encoding="UTF-8" standalone="no"?>
<svg
   xmlns:dc="http://purl.org/dc/elements/1.1/"
   xmlns:cc="http://creativecommons.org/ns#"
   xmlns:rdf="http://www.w3.org/1999/02/22-rdf-syntax-ns#"
   xmlns:svg="http://www.w3.org/2000/svg"
   xmlns="http://www.w3.org/2000/svg"
   xmlns:sodipodi="http://sodipodi.sourceforge.net/DTD/sodipodi-0.dtd"
   xmlns:inkscape="http://www.inkscape.org/namespaces/inkscape"
   viewBox="0 0 36 21"
   id="svg2"
   version="1.1"
   inkscape:version="0.91 r13725"
   sodipodi:docname="1f6e5.svg"
   width="36"
   height="21">
  <metadata
     id="metadata22">
    <rdf:RDF>
      <cc:Work
         rdf:about="">
        <dc:format>image/svg+xml</dc:format>
        <dc:type
           rdf:resource="http://purl.org/dc/dcmitype/StillImage" />
      </cc:Work>
    </rdf:RDF>
  </metadata>
  <defs
     id="defs20" />
  <sodipodi:namedview
     pagecolor="#ffffff"
     bordercolor="#666666"
     borderopacity="1"
     objecttolerance="10"
     gridtolerance="10"
     guidetolerance="10"
     inkscape:pageopacity="0"
     inkscape:pageshadow="2"
     inkscape:window-width="640"
     inkscape:window-height="480"
     id="namedview18"
     showgrid="false"
     inkscape:zoom="6.5555556"
     inkscape:cx="18"
     inkscape:cy="18"
     inkscape:window-x="0"
     inkscape:window-y="0"
     inkscape:window-maximized="0"
     inkscape:current-layer="svg2" />
  <path
     d="m 35,4 c 0,0.553 -0.447,1 -1,1 L 31,5 C 30.447,5 30,4.553 30,4 l 0,-2 c 0,-0.552 0.447,-1 1,-1 l 3,0 c 0.553,0 1,0.448 1,1 l 0,2 z"
     id="path4"
     inkscape:connector-curvature="0"
     style="fill:#66757f" />
  <path
     d="m 32,3 2,0 0,7 -2,0 z"
     id="path6"
     inkscape:connector-curvature="0"
     style="fill:#66757f" />
  <path
     d="M 6,4.219 C 6,4.219 11,0 16,0 L 16.029,0 16,5 C 16,5 16,6 12,6 8,6 6,4.219 6,4.219 Z"
     id="path8"
     inkscape:connector-curvature="0"
     style="fill:#e1e8ed" />
  <path
     d="M 7.248,4.101 C 10.798,1.41 14,1.043 15,1.043 L 15,5 C 15,8.162 7.248,4.101 7.248,4.101 Z"
     id="path10"
     inkscape:connector-curvature="0"
     style="fill:#3b88c3" />
  <path
     d="m 33,9.964 c 0,0 0.5,-4.013 -1,-5.731 L 1,3.086 c 0,0 2,3.439 6,5.732 4,2.291 26,1.146 26,1.146 z"
     id="path12"
     inkscape:connector-curvature="0"
     style="fill:#ccd6dd" />
  <path
     d="m 7,8.817 c 4,2.292 26,1.146 26,1.146 0,0 0.288,-2.335 -0.24,-4.206 L 2.078,4.589 C 3.055,5.794 4.692,7.494 7,8.817 Z"
     id="path14"
     inkscape:connector-curvature="0"
     style="fill:#f4900c" />
  <path
     d="M 0,9 36,9 36,21 0,21 Z"
     id="path16"
     inkscape:connector-curvature="0"
     style="fill:#55acee" />
</svg>
