<?xml version="1.0" encoding="UTF-8" standalone="no"?>
<svg
   xmlns:dc="http://purl.org/dc/elements/1.1/"
   xmlns:cc="http://creativecommons.org/ns#"
   xmlns:rdf="http://www.w3.org/1999/02/22-rdf-syntax-ns#"
   xmlns:svg="http://www.w3.org/2000/svg"
   xmlns="http://www.w3.org/2000/svg"
   xmlns:sodipodi="http://sodipodi.sourceforge.net/DTD/sodipodi-0.dtd"
   xmlns:inkscape="http://www.inkscape.org/namespaces/inkscape"
   viewBox="0 0 36 29"
   id="svg2"
   version="1.1"
   inkscape:version="0.91 r13725"
   sodipodi:docname="1f6f3.svg"
   width="36"
   height="29">
  <metadata
     id="metadata24">
    <rdf:RDF>
      <cc:Work
         rdf:about="">
        <dc:format>image/svg+xml</dc:format>
        <dc:type
           rdf:resource="http://purl.org/dc/dcmitype/StillImage" />
      </cc:Work>
    </rdf:RDF>
  </metadata>
  <defs
     id="defs22" />
  <sodipodi:namedview
     pagecolor="#ffffff"
     bordercolor="#666666"
     borderopacity="1"
     objecttolerance="10"
     gridtolerance="10"
     guidetolerance="10"
     inkscape:pageopacity="0"
     inkscape:pageshadow="2"
     inkscape:window-width="640"
     inkscape:window-height="480"
     id="namedview20"
     showgrid="false"
     inkscape:zoom="6.5555556"
     inkscape:cx="18"
     inkscape:cy="18"
     inkscape:window-x="0"
     inkscape:window-y="0"
     inkscape:window-maximized="0"
     inkscape:current-layer="svg2" />
  <path
     d="m 31,5 -4,0 1,-5 3,0 z"
     id="path4"
     inkscape:connector-curvature="0"
     style="fill:#dd2e44" />
  <path
     d="M 33,5 25,5 25.887,2 32.41,2 Z"
     id="path6"
     inkscape:connector-curvature="0"
     style="fill:#ccd6dd" />
  <path
     d="M 35.583,7 35.4,6 34.4,6 34,4 18,4 17,2 8.342,2 8,3 9,3 8.55,4 7.371,4 7,5 8,5 6,11 34.531,11 34.984,10.031 34.6,7 Z"
     id="path8"
     inkscape:connector-curvature="0"
     style="fill:#ccd6dd" />
  <path
     d="m 15,3 -4,0 1,-3 3,0 z"
     id="path10"
     inkscape:connector-curvature="0"
     style="fill:#ccd6dd" />
  <path
     d="M 14,3 9,3 8.55,4 14.292,4 Z M 35.375,6 8.422,6 8.75,5 35.2,5 Z M 34.719,8 7.75,8 8.094,7 34.6,7 Z M 35,10 7.125,10 7.45,9 34.875,9 Z m -2,6.964 C 33,16.964 35,14 35,10 L 1,10 c 1,2 4,3 5,5.817 2.272,6.401 27,1.147 27,1.147 z"
     id="path12"
     inkscape:connector-curvature="0"
     style="fill:#226699" />
  <path
     d="m 4.937,14 29.417,0 C 34.712,12.886 35,11.519 35,10 L 1,10 c 0.75,1.5 2.624,2.438 3.937,4 z"
     id="path14"
     inkscape:connector-curvature="0"
     style="fill:#ccd6dd" />
  <path
     d="m 0,17 36,0 0,12 -36,0 z"
     id="path16"
     inkscape:connector-curvature="0"
     style="fill:#55acee" />
  <path
     d="m 16,11 0,0.229 C 16,11.655 16.345,12 16.771,12 l 1.458,0 C 18.655,12 19,11.655 19,11.229 L 19,11 16,11 Z m 3,0 0,0.229 C 19,11.655 19.346,12 19.771,12 l 1.457,0 C 21.654,12 22,11.655 22,11.229 L 22,11 19,11 Z m 3,0 0,0.229 C 22,11.655 22.346,12 22.771,12 l 1.457,0 C 24.654,12 25,11.655 25,11.229 L 25,11 22,11 Z m 4,0 0,0.229 C 26,11.655 26.346,12 26.771,12 l 1.457,0 C 28.654,12 29,11.655 29,11.229 L 29,11 26,11 Z m 3,0 0,0.229 C 29,11.655 29.346,12 29.771,12 l 1.457,0 C 31.654,12 32,11.655 32,11.229 L 32,11 29,11 Z"
     id="path18"
     inkscape:connector-curvature="0"
     style="fill:#ffac33" />
</svg>
