<?xml version="1.0" encoding="UTF-8" standalone="no"?>
<svg
   xmlns:dc="http://purl.org/dc/elements/1.1/"
   xmlns:cc="http://creativecommons.org/ns#"
   xmlns:rdf="http://www.w3.org/1999/02/22-rdf-syntax-ns#"
   xmlns:svg="http://www.w3.org/2000/svg"
   xmlns="http://www.w3.org/2000/svg"
   xmlns:sodipodi="http://sodipodi.sourceforge.net/DTD/sodipodi-0.dtd"
   xmlns:inkscape="http://www.inkscape.org/namespaces/inkscape"
   viewBox="0 0 28.540249 36"
   id="svg2"
   version="1.1"
   inkscape:version="0.91 r13725"
   sodipodi:docname="1f91a-1f3fc.svg"
   width="28.540249"
   height="36">
  <metadata
     id="metadata12">
    <rdf:RDF>
      <cc:Work
         rdf:about="">
        <dc:format>image/svg+xml</dc:format>
        <dc:type
           rdf:resource="http://purl.org/dc/dcmitype/StillImage" />
      </cc:Work>
    </rdf:RDF>
  </metadata>
  <defs
     id="defs10" />
  <sodipodi:namedview
     pagecolor="#ffffff"
     bordercolor="#666666"
     borderopacity="1"
     objecttolerance="10"
     gridtolerance="10"
     guidetolerance="10"
     inkscape:pageopacity="0"
     inkscape:pageshadow="2"
     inkscape:window-width="640"
     inkscape:window-height="480"
     id="namedview8"
     showgrid="false"
     inkscape:zoom="6.5555556"
     inkscape:cx="14.54025"
     inkscape:cy="18"
     inkscape:window-x="0"
     inkscape:window-y="0"
     inkscape:window-maximized="0"
     inkscape:current-layer="svg2" />
  <path
     d="m 12.04025,2.965 c 1.381,0 2.5,1.119 2.5,2.5 l 0,0.005 2.5,-5.005 c 1.381,0 2.5,1.119 2.5,2.5 l 0,1.285 2.5,-1.535 c 1.381,0 2.5,1.119 2.5,2.5 l 0,3.535 1,9.25 -13.542,0 0.042,-15.035 z"
     id="path4"
     inkscape:connector-curvature="0"
     style="fill:#d2a077" />
  <path
     d="m 1.1652498,16.219 c 1.381,-0.611 3.354,0.208 4.75,2.188 0.917,1.3 1.187,3.151 2.391,3.344 0.46,0.073 1.234,-0.313 1.234,-1.397 l 0,-15.854 c 0,0 0,-2 2.0000002,-2 2,0 2,2 2,2 l 0,11.633 c 0,-0.029 1,-0.064 1,-0.082 l 0,-14.051 c 0,0 0,-2 2,-2 2,0 2,2 2,2 l 0,14.053 c 0,0.017 1,0.041 1,0.069 l 0,-11.872 c 0,0 0,-2 2,-2 2,0 2,2 2,2 l 0,12.638 c 0,0.118 1,0.251 1,0.398 l 0,-8.536 c 0,0 0,-2 2,-2 2,0 2,2 2,2 l 0,15.25 c 0,6.627 -5.373,12 -12,12 -4.775,0 -8.0600002,-2.598 -9.8960002,-5.292 -1.557,-2.285 -2.008,-4.657 -2.104,-5.374 0,0 -0.123,-1.479 -1.156,-2.865 -1.469,-1.969 -2.49999999,-3.156 -3.12499999,-3.866 -0.317,-0.359 -0.625,-1.707 0.90599999,-2.384 z"
     id="path6"
     inkscape:connector-curvature="0"
     style="fill:#f3d2a2" />
</svg>
