<?xml version="1.0" encoding="UTF-8" standalone="no"?>
<svg
   xmlns:dc="http://purl.org/dc/elements/1.1/"
   xmlns:cc="http://creativecommons.org/ns#"
   xmlns:rdf="http://www.w3.org/1999/02/22-rdf-syntax-ns#"
   xmlns:svg="http://www.w3.org/2000/svg"
   xmlns="http://www.w3.org/2000/svg"
   xmlns:sodipodi="http://sodipodi.sourceforge.net/DTD/sodipodi-0.dtd"
   xmlns:inkscape="http://www.inkscape.org/namespaces/inkscape"
   viewBox="0 0 36 36"
   id="svg2"
   version="1.1"
   inkscape:version="0.91 r13725"
   sodipodi:docname="1f911.svg"
   width="36"
   height="36">
  <metadata
     id="metadata18">
    <rdf:RDF>
      <cc:Work
         rdf:about="">
        <dc:format>image/svg+xml</dc:format>
        <dc:type
           rdf:resource="http://purl.org/dc/dcmitype/StillImage" />
      </cc:Work>
    </rdf:RDF>
  </metadata>
  <defs
     id="defs16" />
  <sodipodi:namedview
     pagecolor="#ffffff"
     bordercolor="#666666"
     borderopacity="1"
     objecttolerance="10"
     gridtolerance="10"
     guidetolerance="10"
     inkscape:pageopacity="0"
     inkscape:pageshadow="2"
     inkscape:window-width="640"
     inkscape:window-height="480"
     id="namedview14"
     showgrid="false"
     inkscape:zoom="6.5555556"
     inkscape:cx="18"
     inkscape:cy="18"
     inkscape:window-x="0"
     inkscape:window-y="0"
     inkscape:window-maximized="0"
     inkscape:current-layer="svg2" />
  <path
     d="M 36,18 C 36,27.941 27.941,36 18,36 8.06,36 0,27.941 0,18 0,8.06 8.06,0 18,0 27.941,0 36,8.06 36,18"
     id="path4"
     inkscape:connector-curvature="0"
     style="fill:#ffcc4d" />
  <path
     d="m 7,21.263 c 0,3.964 4.596,9 11,9 6.404,0 11,-5 11,-9 0,0 -10.333,2.756 -22,0 z"
     id="path6"
     inkscape:connector-curvature="0"
     style="fill:#664500" />
  <path
     d="m 12,23.003 0,6.961 c 0,3 2,6 6,6 4,0 6,-3 6,-6 l 0,-6.92 C 17.709,24.336 12,23.003 12,23.003 Z"
     id="path8"
     inkscape:connector-curvature="0"
     style="fill:#5d9040" />
  <path
     d="m 12.284,12.33 c -0.756,-0.292 -1.471,-0.568 -1.471,-0.968 0,-0.659 0.884,-0.693 1.061,-0.693 0.625,0 0.936,0.234 1.21,0.441 0.21,0.159 0.428,0.323 0.731,0.323 0.564,0 0.821,-0.397 0.821,-0.766 0,-0.736 -0.902,-1.256 -1.858,-1.474 l 0,-0.393 c 0,-0.518 -0.421,-0.939 -0.939,-0.939 -0.518,0 -0.939,0.421 -0.939,0.939 l 0,0.426 C 9.756,9.559 9.055,10.4 9.055,11.461 c 0,1.311 1.293,1.849 2.434,2.323 0.817,0.34 1.589,0.661 1.589,1.162 0,0.366 -0.46,0.762 -1.203,0.762 -0.75,0 -1.18,-0.3 -1.56,-0.564 -0.262,-0.183 -0.51,-0.356 -0.806,-0.356 -0.43,0 -0.766,0.362 -0.766,0.824 0,0.679 0.931,1.356 2.157,1.594 l 0,0.47 c 0,0.518 0.421,0.938 0.939,0.938 0.518,0 0.939,-0.421 0.939,-0.938 l -0.005,-0.498 c 1.296,-0.315 2.062,-1.222 2.062,-2.459 10e-4,-1.404 -1.414,-1.95 -2.551,-2.389 z m 14.41,2.406 c 0,-1.404 -1.415,-1.95 -2.552,-2.389 -0.756,-0.292 -1.47,-0.568 -1.47,-0.968 0,-0.659 0.884,-0.693 1.061,-0.693 0.625,0 0.935,0.234 1.21,0.441 0.211,0.159 0.428,0.323 0.73,0.323 0.565,0 0.822,-0.397 0.822,-0.766 0,-0.737 -0.902,-1.256 -1.858,-1.474 l 0,-0.392 c 0,-0.518 -0.422,-0.939 -0.939,-0.939 -0.518,0 -0.94,0.421 -0.94,0.939 l 0,0.426 c -1.143,0.333 -1.845,1.174 -1.845,2.235 0,1.311 1.293,1.849 2.434,2.323 0.817,0.34 1.589,0.661 1.589,1.162 0,0.366 -0.459,0.762 -1.202,0.762 -0.75,0 -1.18,-0.3 -1.559,-0.564 -0.263,-0.183 -0.511,-0.356 -0.806,-0.356 -0.431,0 -0.767,0.362 -0.767,0.824 0,0.679 0.931,1.356 2.156,1.594 l 0,0.47 c 0,0.517 0.423,0.938 0.941,0.938 0.518,0 0.938,-0.421 0.938,-0.938 l -0.003,-0.498 c 1.295,-0.317 2.06,-1.223 2.06,-2.46 z"
     id="path10"
     inkscape:connector-curvature="0"
     style="fill:#664500" />
  <path
     d="m 20.97,31.069 c 0,-1.368 -1.379,-1.901 -2.487,-2.329 -0.737,-0.284 -1.434,-0.554 -1.434,-0.943 0,-0.643 0.861,-0.675 1.034,-0.675 0.609,0 0.912,0.229 1.18,0.43 0.205,0.155 0.418,0.315 0.713,0.315 0.55,0 0.801,-0.388 0.801,-0.747 0,-0.717 -0.879,-1.224 -1.812,-1.437 l 0,-0.383 c 0,-0.505 -0.411,-0.916 -0.916,-0.916 -0.505,0 -0.916,0.411 -0.916,0.916 l 0,0.415 c -1.115,0.324 -1.799,1.145 -1.799,2.179 0,1.278 1.261,1.803 2.373,2.265 0.797,0.331 1.549,0.644 1.549,1.132 0,0.357 -0.448,0.743 -1.173,0.743 -0.731,0 -1.15,-0.292 -1.52,-0.551 -0.255,-0.178 -0.497,-0.347 -0.785,-0.347 -0.419,0 -0.748,0.354 -0.748,0.804 0,0.663 0.907,1.322 2.102,1.554 l 0,0.459 c 0,0.504 0.411,0.914 0.917,0.914 0.505,0 0.915,-0.41 0.915,-0.914 l -0.003,-0.486 c 1.263,-0.309 2.009,-1.193 2.009,-2.398 z"
     id="path12"
     inkscape:connector-curvature="0"
     style="fill:#ffffff" />
</svg>
