<?xml version="1.0" encoding="UTF-8" standalone="no"?>
<svg
   xmlns:dc="http://purl.org/dc/elements/1.1/"
   xmlns:cc="http://creativecommons.org/ns#"
   xmlns:rdf="http://www.w3.org/1999/02/22-rdf-syntax-ns#"
   xmlns:svg="http://www.w3.org/2000/svg"
   xmlns="http://www.w3.org/2000/svg"
   xmlns:sodipodi="http://sodipodi.sourceforge.net/DTD/sodipodi-0.dtd"
   xmlns:inkscape="http://www.inkscape.org/namespaces/inkscape"
   viewBox="0 0 35.271309 33.751907"
   id="svg2"
   version="1.1"
   inkscape:version="0.91 r13725"
   sodipodi:docname="1f919-1f3fd.svg"
   width="35.271309"
   height="33.751907">
  <metadata
     id="metadata22">
    <rdf:RDF>
      <cc:Work
         rdf:about="">
        <dc:format>image/svg+xml</dc:format>
        <dc:type
           rdf:resource="http://purl.org/dc/dcmitype/StillImage" />
      </cc:Work>
    </rdf:RDF>
  </metadata>
  <defs
     id="defs20" />
  <sodipodi:namedview
     pagecolor="#ffffff"
     bordercolor="#666666"
     borderopacity="1"
     objecttolerance="10"
     gridtolerance="10"
     guidetolerance="10"
     inkscape:pageopacity="0"
     inkscape:pageshadow="2"
     inkscape:window-width="640"
     inkscape:window-height="480"
     id="namedview18"
     showgrid="false"
     inkscape:zoom="6.5555556"
     inkscape:cx="17.836102"
     inkscape:cy="15.787863"
     inkscape:window-x="0"
     inkscape:window-y="0"
     inkscape:window-maximized="0"
     inkscape:current-layer="svg2" />
  <path
     d="m 1.6251025,15.820044 c 1.478,-2.63 3.772,-4.847 6.111,-5.9170002 3.6569995,-1.673 5.1689995,-7.582 6.2109995,-9.05000005 1.447,-2.03699995 4.373,-0.165 3.889,2.86500005 -0.522,3.265 -1.943,4.053 -2.804,6.021 -0.438,1.0040002 -0.297,1.7130002 1.556,1.8470002 1.854,0.134 6.996,0.634 7.249,1.647 0.616,2.464 -7.787,8.445 -0.978,13.534 0,0 8.661,1.651 10.409,1.908 3.026,0.445 2.481,4.531 -0.675,4.196 -2.972,-0.314 -10.24,-1.826 -12.477,-0.436 -1.796,1.116 -8.495,2.609 -14.4449995,-0.734 -5.94900001,-3.342 -7.075,-10.491 -4.046,-15.881 z"
     id="path4"
     inkscape:connector-curvature="0"
     style="fill:#d5ab88" />
  <path
     d="m 13.935102,25.863044 c -4.1559995,-0.865 -3.689,-5.886 0.27,-5.569 3.22,0.257 8.846,1.235 10.252,1.553 2.877,0.649 2.238,5.659 -1.159,5.249 -2.206,-0.266 -6.129,-0.56 -9.363,-1.233 z"
     id="path6"
     inkscape:connector-curvature="0"
     style="fill:#b78b60" />
  <path
     d="m 14.357102,24.940044 c -3.449,-0.795 -2.49,-4.429 0.734,-4.244 3.225,0.185 8.139,0.931 9.563,1.159 3.326,0.534 1.829,4.806 -0.621,4.459 -2.45,-0.347 -7.104,-0.782 -9.676,-1.374 z"
     id="path8"
     inkscape:connector-curvature="0"
     style="fill:#d5ab88" />
  <path
     d="m 13.028102,21.968044 c -4.9429995,-0.069 -4.6739995,-5.581 -0.974,-6.013 3.208,-0.375 10.28,0.419 11.722,0.478 2.683,0.111 2.702,5.015 -0.345,5.176 -2.472,0.129 -7.763,0.396 -10.403,0.359 z"
     id="path10"
     inkscape:connector-curvature="0"
     style="fill:#b78b60" />
  <path
     d="m 12.882102,21.030044 c -3.0739995,0.141 -3.4219995,-4.014 -0.207,-4.315 3.215,-0.302 10.089,-0.23 11.53,-0.206 2.508,0.041 2.419,4.234 -0.661,4.352 -2.472,0.094 -8.025,0.049 -10.662,0.169 z"
     id="path12"
     inkscape:connector-curvature="0"
     style="fill:#d5ab88" />
  <path
     d="m 12.614102,17.700044 c -4.4469995,0.518 -4.5699995,-5.147 -1.359,-5.491 4.535,-0.485 6.597,0.24 6.921,0.165 2.759,-0.64 5.166,-0.559 5.661,0.859 0.423,1.212 -0.381,3.204 -1.972,3.411 -2.453,0.32 -6.629,0.75 -9.251,1.056 z"
     id="path14"
     inkscape:connector-curvature="0"
     style="fill:#b78b60" />
  <path
     d="m 12.795102,16.822044 c -3.0669995,0.248 -3.8449995,-3.611 -0.683,-4.266 3.163,-0.656 7.689,-1.01 9.525,-1.091 2.811,-0.125 3.308,3.966 0.26,4.423 -2.447,0.368 -5.982,0.681 -9.102,0.934 z"
     id="path16"
     inkscape:connector-curvature="0"
     style="fill:#d5ab88" />
</svg>
