<?xml version="1.0" encoding="UTF-8" standalone="no"?>
<svg
   xmlns:dc="http://purl.org/dc/elements/1.1/"
   xmlns:cc="http://creativecommons.org/ns#"
   xmlns:rdf="http://www.w3.org/1999/02/22-rdf-syntax-ns#"
   xmlns:svg="http://www.w3.org/2000/svg"
   xmlns="http://www.w3.org/2000/svg"
   xmlns:sodipodi="http://sodipodi.sourceforge.net/DTD/sodipodi-0.dtd"
   xmlns:inkscape="http://www.inkscape.org/namespaces/inkscape"
   viewBox="0 0 35.646019 36.000229"
   id="svg2"
   version="1.1"
   inkscape:version="0.91 r13725"
   sodipodi:docname="1f917.svg"
   width="35.646019"
   height="36.000229">
  <metadata
     id="metadata18">
    <rdf:RDF>
      <cc:Work
         rdf:about="">
        <dc:format>image/svg+xml</dc:format>
        <dc:type
           rdf:resource="http://purl.org/dc/dcmitype/StillImage" />
      </cc:Work>
    </rdf:RDF>
  </metadata>
  <defs
     id="defs16" />
  <sodipodi:namedview
     pagecolor="#ffffff"
     bordercolor="#666666"
     borderopacity="1"
     objecttolerance="10"
     gridtolerance="10"
     guidetolerance="10"
     inkscape:pageopacity="0"
     inkscape:pageshadow="2"
     inkscape:window-width="640"
     inkscape:window-height="480"
     id="namedview14"
     showgrid="false"
     inkscape:zoom="6.5555556"
     inkscape:cx="17.822766"
     inkscape:cy="18.000228"
     inkscape:window-x="0"
     inkscape:window-y="0"
     inkscape:window-maximized="0"
     inkscape:current-layer="svg2" />
  <path
     d="m 33.822766,16 c 0,8.834 -7.166,16 -16,16 C 8.9867657,32 1.8227657,24.834 1.8227657,16 c 0,-8.836 7.164,-16 16.0000003,-16 8.834,0 16,7.164 16,16"
     id="path4"
     inkscape:connector-curvature="0"
     style="fill:#ffcc4d" />
  <path
     d="m 25.683766,16.129 c -0.15,-0.161 -0.374,-0.171 -0.535,-0.029 -0.033,0.029 -3.303,2.9 -7.326,2.9 -4.013,0 -7.293,-2.871 -7.326,-2.9 -0.162,-0.142 -0.385,-0.13 -0.5350003,0.029 -0.149,0.16 -0.182,0.424 -0.079,0.628 0.108,0.215 2.7090003,5.243 7.9400003,5.243 5.231,0 7.833,-5.028 7.94,-5.243 0.103,-0.205 0.07,-0.468 -0.079,-0.628 z"
     id="path6"
     inkscape:connector-curvature="0"
     style="fill:#664500" />
  <path
     d="m 13.215766,23.154 -1.539,-2.219 c 0,0 -0.543,-0.867 -1.411,-0.325 -0.8670003,0.541 -0.3240003,1.409 -0.3240003,1.409 l 1.7580003,3.38 c 0,0 0.144,0.768 -0.918,-0.091 -0.463,-0.374 -0.197,-0.163 -0.197,-0.163 l -0.44,-0.361 -5.4910003,-4.508 c 0,0 -0.709,-0.748 -1.359,0.042 -0.648,0.791 0.223,1.341 0.223,1.341 l 5.193,4.266 c -0.12,0.12 -0.482,0.534 -0.6,0.663 l -5.557,-4.56 c 0,0 -0.71,-0.749 -1.358,0.041 -0.65000001,0.791 0.222,1.341 0.222,1.341 l 5.555,4.562 c -0.103,0.14 -0.363,0.476 -0.459,0.614 l -4.792,-3.934 c 0,0 -0.71,-0.748 -1.35800001,0.042 -0.651,0.791 0.222,1.342 0.222,1.342 L 5.6797657,30.22 c -0.064,0.178 -0.363,0.646 -0.41,0.82 l -3.672,-3.012 c 0,0 -0.70900001,-0.752 -1.35700001,0.041 -0.65,0.791 0.222,1.341 0.222,1.341 l 5.93000001,4.868 0.395,0.326 c 2.62,2.151 6.4890003,1.771 8.6400003,-0.849 1.971,-2.403 1.817,-5.853 -0.24,-8.069 -0.729,-0.782 -1.36,-1.653 -1.972,-2.532 z m 22.19,4.916 c -0.648,-0.793 -1.357,-0.041 -1.357,-0.041 l -3.672,3.012 c -0.047,-0.174 -0.346,-0.643 -0.41,-0.82 l 5.094,-4.184 c 0,0 0.873,-0.551 0.223,-1.342 -0.648,-0.79 -1.358,-0.042 -1.358,-0.042 l -4.792,3.934 c -0.096,-0.139 -0.357,-0.475 -0.459,-0.614 l 5.555,-4.562 c 0,0 0.873,-0.55 0.223,-1.341 -0.648,-0.79 -1.357,-0.041 -1.357,-0.041 l -5.558,4.56 c -0.117,-0.129 -0.479,-0.543 -0.6,-0.663 l 5.193,-4.266 c 0,0 0.87,-0.55 0.223,-1.341 -0.65,-0.79 -1.359,-0.042 -1.359,-0.042 l -5.491,4.508 -0.439,0.361 c 0,0 0.99,-0.841 -0.197,0.163 -1.188,1.004 -0.918,0.091 -0.918,0.091 l 1.758,-3.38 c 0,0 0.543,-0.868 -0.324,-1.409 -0.869,-0.542 -1.411,0.325 -1.411,0.325 l -1.538,2.219 c -0.613,0.879 -1.244,1.75 -1.974,2.533 -2.058,2.217 -2.212,5.666 -0.239,8.069 2.15,2.62 6.02,3 8.64,0.849 l 0.396,-0.326 5.93,-4.868 c -0.005,-10e-4 0.867,-0.551 0.218,-1.342 z"
     id="path8"
     inkscape:connector-curvature="0"
     style="fill:#f4900c" />
  <path
     d="m 27.499766,10.983 c -0.051,-0.122 -1.285,-2.983 -3.821,-2.983 -2.534,0 -3.768,2.861 -3.819,2.983 -0.08,0.188 -0.028,0.406 0.123,0.536 0.149,0.128 0.365,0.132 0.523,0.012 0.01,-0.009 1.081,-0.816 3.173,-0.816 2.079,0 3.149,0.797 3.174,0.816 0.075,0.059 0.165,0.089 0.255,0.089 0.095,0 0.189,-0.034 0.267,-0.099 0.153,-0.129 0.205,-0.35 0.125,-0.538 z m -11,0 c -0.052,-0.122 -1.285,-2.983 -3.821,-2.983 -2.534,0 -3.7680003,2.861 -3.8200003,2.983 -0.079,0.188 -0.028,0.406 0.124,0.536 0.15,0.128 0.366,0.132 0.523,0.012 0.011,-0.009 1.0810003,-0.816 3.1730003,-0.816 2.08,0 3.149,0.797 3.173,0.816 0.076,0.059 0.165,0.089 0.255,0.089 0.095,0 0.189,-0.034 0.267,-0.099 0.154,-0.129 0.205,-0.35 0.126,-0.538 z"
     id="path10"
     inkscape:connector-curvature="0"
     style="fill:#664500" />
  <path
     d="m 11.004766,25.478 c 0,0 -2.5930003,3.314 0.484,7.46 0.212,0.285 0.75,0.146 0.521,-0.188 -0.25,-0.364 -2.7500003,-3.896 -0.4,-7.057 0,0 -0.381,-0.047 -0.605,-0.215 z m 13.583,0.098 c 0,0 2.594,3.314 -0.484,7.46 -0.212,0.285 -0.75,0.146 -0.521,-0.188 0.25,-0.364 2.75,-3.896 0.4,-7.057 -0.001,0.001 0.381,-0.046 0.605,-0.215 z"
     id="path12"
     inkscape:connector-curvature="0"
     style="fill:#b55005" />
</svg>
