<?xml version="1.0" encoding="UTF-8" standalone="no"?>
<svg
   xmlns:dc="http://purl.org/dc/elements/1.1/"
   xmlns:cc="http://creativecommons.org/ns#"
   xmlns:rdf="http://www.w3.org/1999/02/22-rdf-syntax-ns#"
   xmlns:svg="http://www.w3.org/2000/svg"
   xmlns="http://www.w3.org/2000/svg"
   xmlns:sodipodi="http://sodipodi.sourceforge.net/DTD/sodipodi-0.dtd"
   xmlns:inkscape="http://www.inkscape.org/namespaces/inkscape"
   viewBox="0 0 33.396065 35.640739"
   id="svg2"
   version="1.1"
   inkscape:version="0.91 r13725"
   sodipodi:docname="1f91f-1f3fe.svg"
   width="33.396065"
   height="35.640739">
  <metadata
     id="metadata18">
    <rdf:RDF>
      <cc:Work
         rdf:about="">
        <dc:format>image/svg+xml</dc:format>
        <dc:type
           rdf:resource="http://purl.org/dc/dcmitype/StillImage" />
      </cc:Work>
    </rdf:RDF>
  </metadata>
  <defs
     id="defs16" />
  <sodipodi:namedview
     pagecolor="#ffffff"
     bordercolor="#666666"
     borderopacity="1"
     objecttolerance="10"
     gridtolerance="10"
     guidetolerance="10"
     inkscape:pageopacity="0"
     inkscape:pageshadow="2"
     inkscape:window-width="640"
     inkscape:window-height="480"
     id="namedview14"
     showgrid="false"
     inkscape:zoom="6.5555556"
     inkscape:cx="16.69838"
     inkscape:cy="17.784132"
     inkscape:window-x="0"
     inkscape:window-y="0"
     inkscape:window-maximized="0"
     inkscape:current-layer="svg2" />
  <path
     d="m 17.84838,34.624608 c 2.772,-1.191 4.574,-3.617 5.644,-5.956 1.673,-3.657 7.582,-5.169 9.05,-6.211 2.038,-1.446 0.166,-4.373 -2.864,-3.889 -3.265,0.522 -4.053,1.943 -6.021,2.804 -1.004,0.438 -1.713,0.297 -1.847,-1.556 -0.098,-1.359 1.656,-12.037 2.19,-16.96 0.183,-1.685 -0.519,-2.64499998 -1.875,-2.82599998 -1.536,-0.205 -2.331,0.631 -2.656,2.16999998 -0.81,3.832 -2.094,11.344 -2.633,11.768 -2.896,1.817 -6.757,4.194 -10.2079997,-0.423 0,0 -1.651,-8.661 -1.908,-10.409 -0.445,-3.02599998 -4.53100004,-2.47999998 -4.19600004,0.675 0.314,2.972 1.28900004,9.985 0.435,12.476 -0.75,2.189 -2.07399996,9.702 0.84300004,14.277 2.878,4.514 10.5599997,6.417 16.0459997,4.06 z"
     id="path4"
     inkscape:connector-curvature="0"
     style="fill:#af7e57" />
  <path
     d="m 7.5323803,22.470608 c 0.865,4.156 5.8859997,3.689 5.5689997,-0.27 -0.257,-3.22 -1.235,-8.846 -1.553,-10.252 -0.648,-2.877 -5.6589997,-2.238 -5.2489997,1.159 0.266,2.205 0.56,6.128 1.233,9.363 z"
     id="path6"
     inkscape:connector-curvature="0"
     style="fill:#90603e" />
  <path
     d="m 8.4563803,22.047608 c 0.795,3.449 4.4289997,2.49 4.2439997,-0.734 -0.185,-3.225 -0.931,-8.139 -1.159,-9.563 -0.534,-3.326 -4.8059997,-1.829 -4.4589997,0.621 0.347,2.45 0.781,7.104 1.374,9.676 z"
     id="path8"
     inkscape:connector-curvature="0"
     style="fill:#af7e57" />
  <path
     d="m 11.42838,23.376608 c 0.069,4.943 5.581,4.674 6.013,0.974 0.375,-3.208 -0.419,-10.28 -0.478,-11.722 -0.111,-2.683 -5.015,-2.702 -5.176,0.345 -0.13,2.472 -0.396,7.764 -0.359,10.403 z"
     id="path10"
     inkscape:connector-curvature="0"
     style="fill:#90603e" />
  <path
     d="m 12.36538,23.522608 c -0.141,3.074 4.014,3.422 4.315,0.207 0.302,-3.215 0.23,-10.089 0.206,-11.53 -0.041,-2.508 -4.234,-2.419 -4.352,0.661 -0.094,2.472 -0.049,8.025 -0.169,10.662 z"
     id="path12"
     inkscape:connector-curvature="0"
     style="fill:#af7e57" />
</svg>
