<?xml version="1.0" encoding="UTF-8" standalone="no"?>
<svg
   xmlns:dc="http://purl.org/dc/elements/1.1/"
   xmlns:cc="http://creativecommons.org/ns#"
   xmlns:rdf="http://www.w3.org/1999/02/22-rdf-syntax-ns#"
   xmlns:svg="http://www.w3.org/2000/svg"
   xmlns="http://www.w3.org/2000/svg"
   xmlns:sodipodi="http://sodipodi.sourceforge.net/DTD/sodipodi-0.dtd"
   xmlns:inkscape="http://www.inkscape.org/namespaces/inkscape"
   viewBox="0 0 35.879631 23.158371"
   id="svg2"
   version="1.1"
   inkscape:version="0.91 r13725"
   sodipodi:docname="1f91b.svg"
   width="35.879631"
   height="23.158371">
  <metadata
     id="metadata18">
    <rdf:RDF>
      <cc:Work
         rdf:about="">
        <dc:format>image/svg+xml</dc:format>
        <dc:type
           rdf:resource="http://purl.org/dc/dcmitype/StillImage" />
      </cc:Work>
    </rdf:RDF>
  </metadata>
  <defs
     id="defs16" />
  <sodipodi:namedview
     pagecolor="#ffffff"
     bordercolor="#666666"
     borderopacity="1"
     objecttolerance="10"
     gridtolerance="10"
     guidetolerance="10"
     inkscape:pageopacity="0"
     inkscape:pageshadow="2"
     inkscape:window-width="640"
     inkscape:window-height="480"
     id="namedview14"
     showgrid="false"
     inkscape:zoom="6.5555556"
     inkscape:cx="17.879631"
     inkscape:cy="11.169891"
     inkscape:window-x="0"
     inkscape:window-y="0"
     inkscape:window-maximized="0"
     inkscape:current-layer="svg2" />
  <path
     d="M 8.2806307,0.17148017 C 11.497631,1.0154802 19.223631,3.2854802 21.062631,4.0784802 c 4.244,1.829 7.507,5.306 7.448,9.2059998 -0.064,4.219 -1.768,6.944 -7.888,8.048 -6.201,1.119 -10.241,1.437 -12.6260003,1.79 -3.452,0.511 -4.322,-4.596 -0.671,-5.05 0,0 -3.171,-0.447 -5.121,-0.664 -2.30099999,-0.256 -2.47499999,-2.106 -1.97499999,-4.578 0.511,-2.525 2.29399999,-6.8969998 3.19299999,-9.1419998 1.144,-2.85900003 2.301,-4.18900003 4.858,-3.51700003 z"
     id="path4"
     inkscape:connector-curvature="0"
     style="fill:#ffdc5d" />
  <path
     d="m 5.0176307,21.08248 c 0,0 -0.301,-2.733 2.365,-3.005 1.566,-0.16 3.6760003,-0.418 4.4750003,-0.511 1.374,-0.16 1.662,-1.343 1.311,-2.365 -0.347,-1.009 -2.493,-6.2969998 -3.005,-7.6399998 -0.3800003,-0.997 -1.3640003,-0.659 -1.7260003,0.064 -0.669,1.337 -1.828,3.8449998 -1.982,4.2509998 -0.349,0.924 0.735,1.566 1.247,0.639 0.346,-0.627 1.63,-3.6439998 1.63,-3.6439998 0,0 2.3970003,5.7859998 2.6530003,6.5209998 0.223,0.64 -0.064,1.023 -0.703,1.119 -0.639,0.096 -3.4850003,0.441 -4.3470003,0.575 -1.439,0.224 -2.526,1.663 -1.918,3.996 z"
     id="path6"
     inkscape:connector-curvature="0"
     style="fill:#ef9645" />
  <path
     d="m 7.5746307,11.58948 c 0,0 1.023,0.448 1.822,0.735 0.7990003,0.288 0.511,1.406 -0.32,1.183 -0.831,-0.224 -2.174,-0.575 -2.174,-0.575 l 0.672,-1.343 z m -3.516,-8.1509998 c 0.389,-0.829 1.311,-0.352 1.087,0.32 -0.224,0.671 -3.612,8.7579998 -3.932,9.5889998 -0.31999999,0.831 -0.83099999,0.639 -0.57499999,-0.224 0.256,-0.863 2.93999999,-8.6619998 3.41999999,-9.6849998 z"
     id="path8"
     inkscape:connector-curvature="0"
     style="fill:#ef9645" />
  <path
     d="m 9.3326307,8.8724802 c -0.391,1.3969998 0.054,3.0909998 0.441,3.8339998 l -2.436,-0.891 1.995,-2.9429998 z"
     id="path10"
     inkscape:connector-curvature="0"
     style="fill:#ef9645" />
  <path
     d="m 21.136631,4.1464802 c 3.218,1.04 7.624,1.139 11.535,0.772 2.021,-0.189 3.208,-0.197 3.208,1.436 l 0,10.6039998 c 0,1.99 -0.668,1.969 -2.812,1.683 -3.267,-0.436 -5.099,-1.228 -8.218,1.347 -2.176,1.797 -9.769,-17.7979998 -3.713,-15.8419998 z"
     id="path12"
     inkscape:connector-curvature="0"
     style="fill:#ffdc5d" />
</svg>
