<?xml version="1.0" encoding="UTF-8" standalone="no"?>
<svg
   xmlns:dc="http://purl.org/dc/elements/1.1/"
   xmlns:cc="http://creativecommons.org/ns#"
   xmlns:rdf="http://www.w3.org/1999/02/22-rdf-syntax-ns#"
   xmlns:svg="http://www.w3.org/2000/svg"
   xmlns="http://www.w3.org/2000/svg"
   xmlns:sodipodi="http://sodipodi.sourceforge.net/DTD/sodipodi-0.dtd"
   xmlns:inkscape="http://www.inkscape.org/namespaces/inkscape"
   viewBox="0 0 34 36"
   id="svg2"
   version="1.1"
   inkscape:version="0.91 r13725"
   sodipodi:docname="1f92b.svg"
   width="34"
   height="36">
  <metadata
     id="metadata16">
    <rdf:RDF>
      <cc:Work
         rdf:about="">
        <dc:format>image/svg+xml</dc:format>
        <dc:type
           rdf:resource="http://purl.org/dc/dcmitype/StillImage" />
      </cc:Work>
    </rdf:RDF>
  </metadata>
  <defs
     id="defs14" />
  <sodipodi:namedview
     pagecolor="#ffffff"
     bordercolor="#666666"
     borderopacity="1"
     objecttolerance="10"
     gridtolerance="10"
     guidetolerance="10"
     inkscape:pageopacity="0"
     inkscape:pageshadow="2"
     inkscape:window-width="640"
     inkscape:window-height="480"
     id="namedview12"
     showgrid="false"
     inkscape:zoom="6.5555556"
     inkscape:cx="17"
     inkscape:cy="18"
     inkscape:window-x="0"
     inkscape:window-y="0"
     inkscape:window-maximized="0"
     inkscape:current-layer="svg2" />
  <path
     d="M 34,17 C 34,26.389 26.389,34 17,34 7.611,34 0,26.389 0,17 0,7.611 7.611,0 17,0 26.389,0 34,7.611 34,17"
     id="path4"
     inkscape:connector-curvature="0"
     style="fill:#ffcb4c" />
  <ellipse
     cx="16.812"
     cy="23.125"
     rx="4.0619998"
     ry="1.9299999"
     id="ellipse6"
     style="fill:#65471b" />
  <path
     d="m 24.35,25.981 -0.033,-0.02 c -0.839,-0.515 -1.947,-0.25 -2.462,0.589 l -0.151,0.245 c -0.542,-0.562 -1.25,-0.974 -2.068,-1.141 l -1.399,-0.286 1.272,-6.224 c 0.197,-0.965 -0.431,-1.915 -1.395,-2.112 l -0.038,-0.008 c -0.965,-0.197 -1.915,0.431 -2.112,1.395 l -1.673,8.183 -0.015,0.074 -0.313,1.531 -10e-4,0.01 -1.128,5.533 c -0.22,1.078 0.27,2.25 1.895,2.25 L 18,36 c 2.804,0 3.635,-1.01 4.198,-3.093 l 2.741,-4.463 c 0.514,-0.839 0.25,-1.947 -0.589,-2.463 z"
     id="path8"
     inkscape:connector-curvature="0"
     style="fill:#f19020" />
  <path
     d="m 21.409,30.743 c -0.02,0 -0.042,-0.002 -0.064,-0.006 -0.184,-0.034 -0.305,-0.212 -0.269,-0.397 0.059,-0.312 -0.002,-0.587 -0.187,-0.839 -0.59,-0.808 -2.289,-1.175 -2.894,-1.248 -0.186,-0.022 -0.319,-0.192 -0.296,-0.377 0.022,-0.186 0.184,-0.321 0.377,-0.296 0.101,0.011 2.474,0.31 3.36,1.521 0.298,0.407 0.401,0.868 0.306,1.368 -0.031,0.161 -0.173,0.274 -0.333,0.274 z m -3.259,4.73 c -0.253,0 -0.53,-0.031 -0.833,-0.102 -0.61,-0.144 -1.04,-0.499 -1.18,-0.975 -0.118,-0.401 -0.01,-0.825 0.289,-1.135 0.388,-0.402 1.003,-0.534 1.695,-0.358 0.181,0.046 0.291,0.231 0.245,0.413 -0.046,0.18 -0.229,0.291 -0.413,0.245 -0.445,-0.114 -0.825,-0.05 -1.038,0.171 -0.128,0.132 -0.175,0.309 -0.127,0.473 0.069,0.236 0.319,0.421 0.685,0.506 1.18,0.277 1.833,-0.186 2.174,-0.625 0.508,-0.653 0.568,-1.538 0.387,-1.885 -0.422,-0.812 -2.049,-0.992 -2.64,-0.993 -0.187,0 -0.339,-0.152 -0.339,-0.339 0,-0.187 0.152,-0.339 0.339,-0.339 0.103,0 2.542,0.015 3.242,1.359 0.305,0.585 0.218,1.751 -0.454,2.614 -0.308,0.394 -0.943,0.97 -2.032,0.97 z M 13.222,13.222 c 0,1.391 -0.846,2.519 -1.889,2.519 -1.043,0 -1.889,-1.127 -1.889,-2.519 0,-1.391 0.845,-2.519 1.889,-2.519 1.043,0.001 1.889,1.128 1.889,2.519 z m 15.664,-2.951 c 0.222,0 0.445,-0.069 0.637,-0.213 0.47,-0.352 0.564,-1.018 0.212,-1.487 -3.466,-4.622 -8.092,-4.675 -8.287,-4.675 -0.587,0 -1.062,0.476 -1.062,1.063 0,0.585 0.473,1.06 1.058,1.062 0.166,0.002 3.792,0.091 6.592,3.825 0.208,0.278 0.527,0.425 0.85,0.425 z m -8.108,2.951 c 0,1.391 0.846,2.519 1.889,2.519 1.043,0 1.889,-1.127 1.889,-2.519 0,-1.391 -0.845,-2.519 -1.889,-2.519 -1.044,0.001 -1.889,1.128 -1.889,2.519 z M 5.114,10.271 C 4.892,10.271 4.669,10.202 4.477,10.058 4.008,9.706 3.913,9.04 4.265,8.571 7.731,3.949 12.357,3.896 12.552,3.896 c 0.587,0 1.062,0.476 1.062,1.063 0,0.585 -0.473,1.06 -1.058,1.062 -0.166,0.002 -3.792,0.091 -6.592,3.825 -0.208,0.278 -0.527,0.425 -0.85,0.425 z"
     id="path10"
     inkscape:connector-curvature="0"
     style="fill:#65471b" />
</svg>
