<?xml version="1.0" encoding="UTF-8" standalone="no"?>
<svg
   xmlns:dc="http://purl.org/dc/elements/1.1/"
   xmlns:cc="http://creativecommons.org/ns#"
   xmlns:rdf="http://www.w3.org/1999/02/22-rdf-syntax-ns#"
   xmlns:svg="http://www.w3.org/2000/svg"
   xmlns="http://www.w3.org/2000/svg"
   xmlns:sodipodi="http://sodipodi.sourceforge.net/DTD/sodipodi-0.dtd"
   xmlns:inkscape="http://www.inkscape.org/namespaces/inkscape"
   viewBox="0 0 25.817492 35.176998"
   id="svg2"
   version="1.1"
   inkscape:version="0.91 r13725"
   sodipodi:docname="1f926-1f3fc-200d-2642-fe0f.svg"
   width="25.817492"
   height="35.176998">
  <metadata
     id="metadata42">
    <rdf:RDF>
      <cc:Work
         rdf:about="">
        <dc:format>image/svg+xml</dc:format>
        <dc:type
           rdf:resource="http://purl.org/dc/dcmitype/StillImage" />
      </cc:Work>
    </rdf:RDF>
  </metadata>
  <defs
     id="defs40" />
  <sodipodi:namedview
     pagecolor="#ffffff"
     bordercolor="#666666"
     borderopacity="1"
     objecttolerance="10"
     gridtolerance="10"
     guidetolerance="10"
     inkscape:pageopacity="0"
     inkscape:pageshadow="2"
     inkscape:window-width="640"
     inkscape:window-height="480"
     id="namedview38"
     showgrid="false"
     inkscape:zoom="6.5555556"
     inkscape:cx="12.817492"
     inkscape:cy="18"
     inkscape:window-x="0"
     inkscape:window-y="0"
     inkscape:window-maximized="0"
     inkscape:current-layer="svg2" />
  <path
     d="m 21.817492,26.177 -17.0000003,0 0,9 21.0000003,0 0,-5 c 0,-2.209 -1.791,-4 -4,-4 z"
     id="path4"
     inkscape:connector-curvature="0"
     style="fill:#4289c1" />
  <path
     d="m 20.817492,31.177 1,0 0,4 -1,0 z"
     id="path6"
     inkscape:connector-curvature="0"
     style="fill:#2a6797" />
  <path
     d="m 3.8174917,5.115 0,11.062 c 0,4.971 4.029,9 9.0000003,9 4.971,0 9,-4.029 9,-9 l 0,-10.75 L 3.8174917,5.115 Z"
     id="path8"
     inkscape:connector-curvature="0"
     style="fill:#f3d2a2" />
  <path
     d="m 13.817492,18.677 -2,0 c -0.276,0 -0.5,-0.224 -0.5,-0.5 0,-0.276 0.224,-0.5 0.5,-0.5 l 2,0 c 0.276,0 0.5,0.224 0.5,0.5 0,0.276 -0.224,0.5 -0.5,0.5 z"
     id="path10"
     inkscape:connector-curvature="0"
     style="fill:#c1694f" />
  <path
     d="m 5.6644917,12.892 c 0,1.58 -0.8,2.861 -1.788,2.861 -0.988,0 -1.788,-1.281 -1.788,-2.861 0,-1.58 0.801,-2.861 1.788,-2.861 0.987,0 1.788,1.281 1.788,2.861 z m 17.8820003,0 c 0,1.58 -0.8,2.861 -1.788,2.861 -0.988,0 -1.788,-1.281 -1.788,-2.861 0,-1.58 0.8,-2.861 1.788,-2.861 0.988,0 1.788,1.281 1.788,2.861 z"
     id="path12"
     inkscape:connector-curvature="0"
     style="fill:#f3d2a2" />
  <path
     d="M 12.817492,0 C 5.7984917,0 2.6784917,4.684 2.6784917,8.588 c 0,3.903 1.343,4.986 1.56,3.903 0.78,-3.903 3.12,-5.101 3.12,-5.101 4.6800003,3.904 3.9000003,0.781 3.9000003,0.781 4.679,4.684 2.34,0 2.34,0 1.56,1.562 6.239,1.562 6.239,1.562 0,0 0.78,1.198 1.559,2.759 0.78,1.562 1.56,0 1.56,-3.903 0,-3.905 -3.9,-8.589 -10.139,-8.589 z"
     id="path14"
     inkscape:connector-curvature="0"
     style="fill:#ffe51e" />
  <path
     d="m 9.8174917,23.177 0,4 c 0,1.657 1.3430003,3 3.0000003,3 1.657,0 3,-1.343 3,-3 l 0,-4 -6.0000003,0 z"
     id="path16"
     inkscape:connector-curvature="0"
     style="fill:#f3d2a2" />
  <path
     d="m 13.551492,17.563 1.827,0.691 c 0,0 -6.5290003,13.746 -7.4130003,15.022 -0.884,1.276 -1.87,2.055 -4.57,1.76 L 13.551492,17.563 Z m 7.266,13.614 1,0 0,4 -1,0 z"
     id="path18"
     inkscape:connector-curvature="0"
     style="fill:#2a6797" />
  <path
     d="m 8.3304917,7.023 c 0.945,-0.291 1.598,0.508 1.7700003,1.195 l 0.284,1.14 0.756,-2.155 c 0.366,-1.042 1.507,-1.591 2.549,-1.225 l 3.774,1.324 c 1.042,0.366 1.591,1.507 1.225,2.549 l -2.648,7.549 c 0,0 -0.331,0.944 -1.275,0.613 l -5.6620003,-1.986 -0.613,-1.275 0.345,-0.984 -1.226,-4.929 c -0.17,-0.688 0.044,-1.607 0.721,-1.816 z"
     id="path20"
     inkscape:connector-curvature="0"
     style="fill:#d2a077" />
  <path
     d="m 18.974492,15.548 c -0.026,-0.058 -0.596,-1.288 -1.747,-1.529 l -0.49,1.395 c 0.037,-10e-4 0.063,-0.009 0.101,-0.009 1.162,0 1.76,0.422 1.774,0.432 0.042,0.032 0.093,0.047 0.143,0.047 0.053,0 0.106,-0.018 0.149,-0.052 0.085,-0.067 0.114,-0.184 0.07,-0.284 z"
     id="path22"
     inkscape:connector-curvature="0"
     style="fill:#662113" />
  <path
     d="m 16.838492,13.969 c -1.417,0 -2.107,1.515 -2.136,1.58 -0.044,0.099 -0.016,0.215 0.069,0.283 0.084,0.068 0.204,0.07 0.292,0.007 0.005,-0.004 0.578,-0.397 1.673,-0.423 l 0.49,-1.395 c -0.124,-0.027 -0.25,-0.052 -0.388,-0.052 z"
     id="path24"
     inkscape:connector-curvature="0"
     style="fill:#4f140b" />
  <path
     d="m 15.812492,22.541 c 0,0 -0.56,-1.117 -1.678,-1.681 -0.246,0.514 -0.516,1.078 -0.807,1.681 l 2.485,0 z"
     id="path26"
     inkscape:connector-curvature="0"
     style="fill:#c1694f" />
  <path
     d="m 13.551492,17.563 -1.9,3.234 -1.024,1.744 -1.1600003,1.974 0.35,2.662 c 0,0.594 0.178,1.144 0.4760003,1.61 0.98,-1.986 2.097,-4.295 3.035,-6.246 l 0.807,-1.681 c 0.741,-1.547 1.244,-2.606 1.244,-2.606 l -1.828,-0.691 z"
     id="path28"
     inkscape:connector-curvature="0"
     style="fill:#d2a077" />
  <path
     d="m 14.134492,20.86 c -0.377,-0.191 -0.818,-0.319 -1.322,-0.319 -0.438,0 -0.819,0.107 -1.161,0.256 l -1.024,1.744 2.701,0 0.806,-1.681 z"
     id="path30"
     inkscape:connector-curvature="0"
     style="fill:#894935" />
  <path
     d="m 7.3304917,6.834 c 0.687,-0.171 1.383,0.248 1.555,0.934 l 0.284,1.14 0.756,-2.155 C 10.291492,5.711 11.432492,5.162 12.474492,5.528 l 3.774,1.324 c 1.042,0.366 1.591,1.507 1.225,2.549 l -2.648,7.549 c 0,0 -0.331,0.944 -1.275,0.613 l -5.6610003,-1.986 -0.613,-1.275 0.345,-0.984 -1.226,-4.929 c -0.171,-0.688 0.248,-1.385 0.935,-1.555 z"
     id="path32"
     inkscape:connector-curvature="0"
     style="fill:#f3d2a2" />
  <path
     d="m 13.560492,11.231 1.655,-4.718 0.944,0.331 -1.655,4.718 z m -2.83,-0.993 1.656,-4.718 0.943,0.331 -1.655,4.718 z"
     id="path34"
     inkscape:connector-curvature="0"
     style="fill:#d2a077" />
  <path
     d="m 9.0954917,29.027 c 0,0 -1.719,3.579 -2.107,4.416 -0.687,1.484 -2.171,1.734 -2.171,1.734 -8,0 -3.622,-8.343 -3.622,-8.343 l 6.432,-11.846 6.5410003,2.58 -5.0730003,11.459 z"
     id="path36"
     inkscape:connector-curvature="0"
     style="fill:#4289c1" />
</svg>
