<?xml version="1.0" encoding="UTF-8" standalone="no"?>
<svg
   xmlns:dc="http://purl.org/dc/elements/1.1/"
   xmlns:cc="http://creativecommons.org/ns#"
   xmlns:rdf="http://www.w3.org/1999/02/22-rdf-syntax-ns#"
   xmlns:svg="http://www.w3.org/2000/svg"
   xmlns="http://www.w3.org/2000/svg"
   xmlns:sodipodi="http://sodipodi.sourceforge.net/DTD/sodipodi-0.dtd"
   xmlns:inkscape="http://www.inkscape.org/namespaces/inkscape"
   viewBox="0 0 36 36"
   id="svg2"
   version="1.1"
   inkscape:version="0.91 r13725"
   sodipodi:docname="1f922.svg"
   width="36"
   height="36">
  <metadata
     id="metadata14">
    <rdf:RDF>
      <cc:Work
         rdf:about="">
        <dc:format>image/svg+xml</dc:format>
        <dc:type
           rdf:resource="http://purl.org/dc/dcmitype/StillImage" />
      </cc:Work>
    </rdf:RDF>
  </metadata>
  <defs
     id="defs12" />
  <sodipodi:namedview
     pagecolor="#ffffff"
     bordercolor="#666666"
     borderopacity="1"
     objecttolerance="10"
     gridtolerance="10"
     guidetolerance="10"
     inkscape:pageopacity="0"
     inkscape:pageshadow="2"
     inkscape:window-width="640"
     inkscape:window-height="480"
     id="namedview10"
     showgrid="false"
     inkscape:zoom="6.5555556"
     inkscape:cx="18.01"
     inkscape:cy="18"
     inkscape:window-x="0"
     inkscape:window-y="0"
     inkscape:window-maximized="0"
     inkscape:current-layer="svg2" />
  <path
     d="M 36,18 C 36,27.941 27.941,36 18,36 8.06,36 0,27.941 0,18 0,8.06 8.06,0 18,0 27.94,0 36,8.06 36,18"
     id="path4"
     inkscape:connector-curvature="0"
     style="fill:#77b255" />
  <path
     d="m 15.374,26.122 -1.515,-2.295 c 1.154,-0.762 2.606,-1.182 4.089,-1.182 1.49,0 2.895,0.402 4.062,1.162 l -1.502,2.305 c -1.425,-0.928 -3.721,-0.924 -5.134,0.01 z M 28.038,13.036 c -0.244,-0.3 -6.771,-1.502 -6.826,-1.502 -0.118,0 -0.251,0.089 -0.275,0.205 -0.218,1.027 -0.052,2.071 0.466,2.941 0.521,0.876 1.337,1.47 2.296,1.673 0.232,0.049 0.471,0.074 0.707,0.074 1.746,0 3.296,-1.336 3.686,-3.177 0.014,-0.075 -0.006,-0.156 -0.054,-0.214 z M 14.766,11.534 c -0.056,0 -6.583,1.202 -6.827,1.502 -0.048,0.059 -0.068,0.14 -0.052,0.213 0.389,1.84 1.939,3.176 3.686,3.176 0.236,0 0.474,-0.025 0.707,-0.074 1.972,-0.417 3.211,-2.486 2.762,-4.613 -0.024,-0.115 -0.157,-0.204 -0.276,-0.204 z"
     id="path6"
     inkscape:connector-curvature="0"
     style="fill:#292f33" />
  <path
     d="m 11.657,29.647 c -0.444,0 -0.857,-0.28 -1.005,-0.724 -0.185,-0.555 0.115,-1.155 0.669,-1.339 0.095,-0.033 2.453,-0.877 2.453,-3.231 0,-2.354 -2.358,-3.198 -2.458,-3.232 -0.55,-0.191 -0.846,-0.791 -0.659,-1.342 0.187,-0.552 0.78,-0.852 1.334,-0.665 0.159,0.053 3.9,1.344 3.9,5.239 0,3.895 -3.741,5.187 -3.9,5.239 -0.11,0.037 -0.223,0.055 -0.334,0.055 z m 12.705,0 c -0.111,0 -0.223,-0.018 -0.334,-0.055 -0.159,-0.053 -3.9,-1.344 -3.9,-5.239 0,-3.895 3.741,-5.187 3.9,-5.239 0.559,-0.187 1.154,0.115 1.339,0.669 0.185,0.553 -0.113,1.151 -0.664,1.338 -0.1,0.034 -2.458,0.878 -2.458,3.232 0,2.354 2.358,3.198 2.458,3.232 0.551,0.191 0.847,0.791 0.66,1.342 -0.15,0.442 -0.561,0.72 -1.001,0.72 z"
     id="path8"
     inkscape:connector-curvature="0"
     style="fill:#3e721d" />
</svg>
