<?xml version="1.0" encoding="UTF-8" standalone="no"?>
<svg
   xmlns:dc="http://purl.org/dc/elements/1.1/"
   xmlns:cc="http://creativecommons.org/ns#"
   xmlns:rdf="http://www.w3.org/1999/02/22-rdf-syntax-ns#"
   xmlns:svg="http://www.w3.org/2000/svg"
   xmlns="http://www.w3.org/2000/svg"
   xmlns:sodipodi="http://sodipodi.sourceforge.net/DTD/sodipodi-0.dtd"
   xmlns:inkscape="http://www.inkscape.org/namespaces/inkscape"
   viewBox="0 0 34 35.853001"
   id="svg2"
   version="1.1"
   inkscape:version="0.91 r13725"
   sodipodi:docname="1f92f.svg"
   width="34"
   height="35.853001">
  <metadata
     id="metadata28">
    <rdf:RDF>
      <cc:Work
         rdf:about="">
        <dc:format>image/svg+xml</dc:format>
        <dc:type
           rdf:resource="http://purl.org/dc/dcmitype/StillImage" />
      </cc:Work>
    </rdf:RDF>
  </metadata>
  <defs
     id="defs26" />
  <sodipodi:namedview
     pagecolor="#ffffff"
     bordercolor="#666666"
     borderopacity="1"
     objecttolerance="10"
     gridtolerance="10"
     guidetolerance="10"
     inkscape:pageopacity="0"
     inkscape:pageshadow="2"
     inkscape:window-width="640"
     inkscape:window-height="480"
     id="namedview24"
     showgrid="false"
     inkscape:zoom="6.5555556"
     inkscape:cx="17"
     inkscape:cy="18"
     inkscape:window-x="0"
     inkscape:window-y="0"
     inkscape:window-maximized="0"
     inkscape:current-layer="svg2" />
  <path
     d="m 34,18.472 c 0,-3.794 -3.075,-6.869 -6.869,-6.869 -0.979,0 -2.752,0.578 -2.752,0.578 l -13.126,1.384 c 0,0 -2.717,-1.581 -4.383,-1.581 -3.795,0 -6.87,3.075 -6.87,6.869 0,0.237 0.012,0.471 0.035,0.702 0.371,9.061 7.814,16.298 16.965,16.298 9.389,0 17,-7.611 17,-17 C 34,18.801 33.991,18.752 33.988,18.7 33.991,18.624 34,18.549 34,18.472 Z"
     id="path4"
     inkscape:connector-curvature="0"
     style="fill:#ffcb4c" />
  <ellipse
     cx="17"
     cy="28.491001"
     rx="4.3319998"
     ry="4.9499998"
     id="ellipse6"
     style="fill:#65471b" />
  <path
     d="m 13,20.459 c 0,1.473 -0.896,2.667 -2,2.667 -1.105,0 -2,-1.194 -2,-2.667 0,-1.473 0.895,-2.667 2,-2.667 1.104,0 2,1.194 2,2.667 z m 12,-0.001 c 0,1.473 -0.895,2.667 -2,2.667 -1.105,0 -2,-1.194 -2,-2.667 0,-1.472 0.896,-2.667 2,-2.667 1.105,0.001 2,1.195 2,2.667 z"
     id="path8"
     inkscape:connector-curvature="0"
     style="fill:#65471b" />
  <path
     d="m 5.266,13.541 c 0.25,-0.188 1.113,-0.512 1.716,0.051 1.018,0.949 1.265,-1.445 4.477,0.303 1.469,0.799 8.989,0.96 9.699,0.607 2.692,-1.337 4.768,-2.198 5.572,-1.743 0.624,0.353 -0.973,0.955 0.195,1.092 1.193,0.14 1.261,-0.49 2.202,-0.246 1.655,0.429 -1.094,2.324 -1.094,2.324 C 23.676,19.504 8.604,16.832 5.944,15.153 4.845,14.459 4.88,13.83 5.266,13.541 Z"
     id="path10"
     inkscape:connector-curvature="0"
     style="fill:#f19020" />
  <path
     d="M 28.688,8.968 17,7.665 4.938,8.968 c 3.656,3.667 4.844,7.917 4.844,7.917 l 4.437,0.892 9.501,0.014 c -10e-4,0 1.53,-5.782 4.968,-8.823 z"
     id="path12"
     inkscape:connector-curvature="0"
     style="fill:#d93047" />
  <path
     d="m 28.306,9.288 c 1.281,-1.263 -4.775,-1.821 -9.587,-1.821 -4.812,0 -8.359,1.052 -8.359,1.052 0,0 -5.092,0.784 -4.395,1.557 0.988,1.094 2.2,3.153 2.2,3.153 0,0 4.757,2.405 8.351,-0.626 2.5,1.5 6,0.969 7.562,-1.609 0,0 1.217,0.453 2.451,0.531 0,0 0.953,-1.425 1.777,-2.237 z"
     id="path14"
     inkscape:connector-curvature="0"
     style="fill:#c02334" />
  <path
     d="m 28.609,15.499 c -1.749,1.262 -2.091,-0.253 -3.685,-0.253 -1.115,0 -1.231,0.606 -2.789,1.328 -0.957,0.444 -2.326,-0.764 -3.176,-0.764 -1.15,0 -2.217,1.553 -3.719,0.73 -0.84,-0.46 -1.487,-1.259 -2.623,-1.229 -1.955,0.052 -1.914,0.954 -3.652,0.664 C 4.485,15.226 4.61,13.601 4.61,13.601 l -0.658,4.233 9.382,0 3.792,1.798 4.458,-1.798 5.493,0 c 0,0 0.641,-0.178 1.094,-0.342 1.584,-0.571 1.773,-2.956 0.438,-1.993 z"
     id="path16"
     inkscape:connector-curvature="0"
     style="fill:#ffcb4c" />
  <path
     d="m 30.125,3.578 c -0.24,0 -0.467,0.045 -0.686,0.109 -0.688,-0.845 -1.723,-1.396 -2.898,-1.396 -0.087,0 -0.169,0.02 -0.255,0.026 -0.734,-0.827 -1.794,-1.359 -2.987,-1.359 -1.505,0 -2.8,0.839 -3.486,2.066 C 19.467,2.226 18.674,1.667 17.749,1.667 17.031,1.667 16.4,2.009 15.988,2.532 15.48,1.062 14.1,0 12.458,0 11.135,0 9.978,0.689 9.31,1.723 9.126,1.694 8.942,1.665 8.75,1.665 7.318,1.665 6.089,2.477 5.457,3.657 5.254,3.619 5.047,3.594 4.833,3.594 c -1.864,0 -3.375,1.511 -3.375,3.375 0,1.864 1.511,3.375 3.375,3.375 0.588,0 1.135,-0.159 1.614,-0.425 0.376,0.282 0.838,0.456 1.345,0.456 0.145,0 0.285,-0.016 0.422,-0.043 0.855,1.379 2.367,2.303 4.109,2.303 1.709,0 3.206,-0.885 4.073,-2.217 0.72,0.882 1.802,1.457 3.029,1.457 1.815,0 3.327,-1.238 3.776,-2.911 0.034,10e-4 0.065,0.01 0.099,0.01 0.283,0 0.559,-0.031 0.826,-0.087 0.654,0.556 1.491,0.904 2.417,0.904 1.174,0 2.21,-0.551 2.897,-1.396 0.219,0.064 0.446,0.109 0.686,0.109 1.36,0 2.463,-1.103 2.463,-2.463 0,-1.36 -1.104,-2.463 -2.464,-2.463 z"
     id="path18"
     inkscape:connector-curvature="0"
     style="fill:#e8596e" />
  <circle
     cx="26.795"
     cy="5.6200004"
     r="2.1210001"
     id="circle20"
     style="fill:#f3aab9" />
  <path
     d="m 18.876,5.756 c 0,-1.193 -0.967,-2.161 -2.16,-2.161 -0.368,0 -0.71,0.101 -1.013,0.263 -0.251,-0.601 -0.844,-1.024 -1.537,-1.024 -0.567,0 -1.067,0.285 -1.368,0.718 C 12.128,2.929 11.237,2.539 10.25,2.539 8.495,2.539 7.034,3.749 6.625,5.377 6.26,5.01 5.755,4.782 5.196,4.782 c -1.111,0 -2.012,0.901 -2.012,2.012 0,1.111 0.901,2.012 2.012,2.012 0.703,0 1.319,-0.361 1.679,-0.907 0.517,1.081 1.529,1.873 2.749,2.079 0.39,0.67 1.107,1.125 1.938,1.125 1.074,0 1.969,-0.754 2.193,-1.76 0.324,0.18 0.691,0.292 1.087,0.292 1.07,0 1.962,-0.749 2.19,-1.75 1.042,-0.155 1.844,-1.044 1.844,-2.129 z"
     id="path22"
     inkscape:connector-curvature="0"
     style="fill:#f3aab9" />
</svg>
