<?xml version="1.0" encoding="UTF-8" standalone="no"?>
<svg
   xmlns:dc="http://purl.org/dc/elements/1.1/"
   xmlns:cc="http://creativecommons.org/ns#"
   xmlns:rdf="http://www.w3.org/1999/02/22-rdf-syntax-ns#"
   xmlns:svg="http://www.w3.org/2000/svg"
   xmlns="http://www.w3.org/2000/svg"
   xmlns:sodipodi="http://sodipodi.sourceforge.net/DTD/sodipodi-0.dtd"
   xmlns:inkscape="http://www.inkscape.org/namespaces/inkscape"
   viewBox="0 0 36 36"
   id="svg2"
   version="1.1"
   inkscape:version="0.91 r13725"
   sodipodi:docname="1f927.svg"
   width="36"
   height="36">
  <metadata
     id="metadata16">
    <rdf:RDF>
      <cc:Work
         rdf:about="">
        <dc:format>image/svg+xml</dc:format>
        <dc:type
           rdf:resource="http://purl.org/dc/dcmitype/StillImage" />
      </cc:Work>
    </rdf:RDF>
  </metadata>
  <defs
     id="defs14" />
  <sodipodi:namedview
     pagecolor="#ffffff"
     bordercolor="#666666"
     borderopacity="1"
     objecttolerance="10"
     gridtolerance="10"
     guidetolerance="10"
     inkscape:pageopacity="0"
     inkscape:pageshadow="2"
     inkscape:window-width="640"
     inkscape:window-height="480"
     id="namedview12"
     showgrid="false"
     inkscape:zoom="6.5555556"
     inkscape:cx="18"
     inkscape:cy="18"
     inkscape:window-x="0"
     inkscape:window-y="0"
     inkscape:window-maximized="0"
     inkscape:current-layer="svg2" />
  <path
     d="M 36,18 C 36,27.941 27.941,36 18,36 8.06,36 0,27.941 0,18 0,8.06 8.06,0 18,0 27.941,0 36,8.06 36,18"
     id="path4"
     inkscape:connector-curvature="0"
     style="fill:#ffcc4d" />
  <path
     d="M 30.6,17.2 C 30.486,17.115 28.669,15.774 25.954,14.856 25.98,14.741 26,14.623 26,14.5 26,14.131 25.861,13.797 25.641,13.536 27.443,13.016 28.975,13 29.002,13 29.553,12.998 30,12.55 29.999,11.998 29.998,11.447 29.552,11 29,11 c -0.221,0 -5.451,0.038 -8.707,3.293 -0.286,0.286 -0.372,0.716 -0.217,1.09 C 20.23,15.756 20.596,16 21,16 c 4.59,0 8.363,2.772 8.401,2.801 0.18,0.134 0.39,0.198 0.598,0.198 0.305,0 0.605,-0.139 0.802,-0.4 0.33,-0.443 0.24,-1.068 -0.201,-1.399 z M 15.707,14.293 C 12.452,11.038 7.221,11 7,11 6.448,11 6.001,11.447 6.001,11.998 6,12.55 6.447,12.998 6.999,13 7.025,13 8.557,13.016 10.36,13.536 10.139,13.797 10,14.131 10,14.5 c 0,0.123 0.019,0.241 0.047,0.356 C 7.331,15.774 5.514,17.115 5.4,17.2 4.958,17.531 4.869,18.158 5.2,18.599 5.396,18.862 5.697,19 6.001,19 6.209,19 6.42,18.935 6.6,18.8 6.637,18.772 10.387,16 15,16 c 0.404,0 0.769,-0.244 0.924,-0.617 0.155,-0.374 0.069,-0.804 -0.217,-1.09 z M 16,29 c 2,-5 13,-5 13,-3 0,1 -8,-1 -13,3 z"
     id="path6"
     inkscape:connector-curvature="0"
     style="fill:#664500" />
  <path
     d="m 18.406,18.033 c 2.678,2.676 -3.974,15.524 -5.25,16.8 -1.05,1.05 -4.2,1.05 -5.25,-1.05 -1.05,-2.1 -4.2,0 -5.25,-1.05 -2.1,-2.1 1.05,-3.15 0,-5.25 -1.05,-2.1 -3.15,-3.15 -1.05,-5.25 2.1,-2.1 7.35,-1.05 10.5,-3.15 3.15,-2.1 5.249,-2.1 6.3,-1.05 z"
     id="path8"
     inkscape:connector-curvature="0"
     style="fill:#ccd6dd" />
  <path
     d="m 17.322,19.872 c -0.016,-0.062 -0.053,-0.113 -0.079,-0.17 -0.03,-0.066 -0.05,-0.135 -0.094,-0.194 -0.161,-0.218 -0.405,-0.374 -0.694,-0.415 l -10e-4,0 c -0.137,-0.019 -0.274,-0.011 -0.406,0.022 -0.091,0.023 -0.169,0.071 -0.249,0.117 -0.038,0.021 -0.08,0.03 -0.115,0.056 -0.111,0.082 -0.206,0.185 -0.278,0.305 -2.934,4.89 -9.942,7.944 -10.013,7.975 -0.533,0.229 -0.779,0.846 -0.55,1.379 0.171,0.398 0.558,0.636 0.965,0.636 0.138,0 0.278,-0.027 0.413,-0.085 0.223,-0.096 4.055,-1.77 7.425,-4.712 -2.068,3.825 -5.23,5.995 -5.273,6.025 -0.481,0.323 -0.61,0.974 -0.288,1.456 0.203,0.302 0.535,0.467 0.874,0.467 0.2,0 0.402,-0.057 0.581,-0.176 0.273,-0.183 6.703,-4.549 7.807,-12.274 0.018,-0.14 0.009,-0.279 -0.025,-0.412 z"
     id="path10"
     inkscape:connector-curvature="0"
     style="fill:#f5f8fa" />
</svg>
