<?xml version="1.0" encoding="UTF-8" standalone="no"?>
<svg
   xmlns:dc="http://purl.org/dc/elements/1.1/"
   xmlns:cc="http://creativecommons.org/ns#"
   xmlns:rdf="http://www.w3.org/1999/02/22-rdf-syntax-ns#"
   xmlns:svg="http://www.w3.org/2000/svg"
   xmlns="http://www.w3.org/2000/svg"
   xmlns:sodipodi="http://sodipodi.sourceforge.net/DTD/sodipodi-0.dtd"
   xmlns:inkscape="http://www.inkscape.org/namespaces/inkscape"
   viewBox="0 0 24.629999 35"
   id="svg2"
   version="1.1"
   inkscape:version="0.91 r13725"
   sodipodi:docname="1f933-1f3fd.svg"
   width="24.629999"
   height="35">
  <metadata
     id="metadata48">
    <rdf:RDF>
      <cc:Work
         rdf:about="">
        <dc:format>image/svg+xml</dc:format>
        <dc:type
           rdf:resource="http://purl.org/dc/dcmitype/StillImage" />
      </cc:Work>
    </rdf:RDF>
  </metadata>
  <defs
     id="defs46" />
  <sodipodi:namedview
     pagecolor="#ffffff"
     bordercolor="#666666"
     borderopacity="1"
     objecttolerance="10"
     gridtolerance="10"
     guidetolerance="10"
     inkscape:pageopacity="0"
     inkscape:pageshadow="2"
     inkscape:window-width="640"
     inkscape:window-height="480"
     id="namedview44"
     showgrid="false"
     inkscape:zoom="6.5555556"
     inkscape:cx="11.5"
     inkscape:cy="18"
     inkscape:window-x="0"
     inkscape:window-y="0"
     inkscape:window-maximized="0"
     inkscape:current-layer="svg2" />
  <path
     d="m 21.884,5.753 c 0,0 -2.42,-0.003 -2.697,1.999 l -1.3,9.659 c -0.372,2.182 2.133,2.637 3.64,2.668 1.507,0.031 2.761,-1.113 2.801,-2.556 L 24.432,14.477 24.585,9.989 24.63,8.54 c 0,-1.208 -0.521,-2.498 -2.746,-2.787 z"
     id="path4"
     inkscape:connector-curvature="0"
     style="fill:#d5ab88" />
  <path
     d="M 23.646,9.439 23.487,9.432 c -0.474,-0.019 -0.878,0.353 -0.898,0.827 l -0.073,2.506 1.766,0.328 0.132,-3.103 C 24.292,9.681 23.998,9.453 23.646,9.439 Z"
     id="path6"
     inkscape:connector-curvature="0"
     style="fill:#b78b60" />
  <path
     d="m 22.75,20.906 -3.594,0 -0.5,-1.656 4.594,0 z m -8.826,-14.4 c 0,0 0.144,-0.764 1.347,-0.68 L 14.939,6.877 13.924,6.506 Z"
     id="path8"
     inkscape:connector-curvature="0"
     style="fill:#d5ab88" />
  <path
     d="M 22.5,1.365 C 22.5,0.611 21.889,0 21.135,0 l -4.27,0 C 16.111,0 15.5,0.611 15.5,1.365 l 0,15.27 c 0,0.754 2.611,1.365 3.365,1.365 l 2.27,0 c 0.754,0 1.365,-0.611 1.365,-1.365 l 0,-15.27 z"
     id="path10"
     inkscape:connector-curvature="0"
     style="fill:#6d6e71" />
  <path
     d="M 21.5,1.365 C 21.5,0.611 20.889,0 20.135,0 l -4.27,0 C 15.111,0 14.5,0.611 14.5,1.365 l 0,15.27 c 0,0.754 0.611,1.365 1.365,1.365 l 4.27,0 c 0.754,0 1.365,-0.611 1.365,-1.365 l 0,-15.27 z"
     id="path12"
     inkscape:connector-curvature="0"
     style="fill:#231f20" />
  <path
     d="m 15.5,2 5,0 0,13 -5,0 z"
     id="path14"
     inkscape:connector-curvature="0"
     style="fill:#88c9f9" />
  <path
     d="m 14.046,13.136 0.131,0.745 0.537,-0.045 0.599,-0.042 c 0.49,-0.035 0.884,-0.37 1.022,-0.812 l -2.289,0.154 z m 0,-2.391 0.02,0.73 0.651,-0.007 c 0.525,-0.015 0.967,-0.334 1.172,-0.782 l -1.843,0.059 z m -0.01,-2.65 0.011,0.717 0.223,0.031 c 0.524,0.036 0.995,-0.238 1.242,-0.664 L 14.036,8.095 Z m 9.868,2.763 -0.144,0.067 c -0.43,0.201 -0.946,0.014 -1.147,-0.416 L 21.85,8.878 C 21.649,8.448 21.836,7.932 22.266,7.731 L 22.41,7.664 C 22.84,7.463 23.356,7.65 23.557,8.08 l 0.763,1.631 c 0.201,0.43 0.014,0.946 -0.416,1.147 z"
     id="path16"
     inkscape:connector-curvature="0"
     style="fill:#b78b60" />
  <path
     d="M 22.826,15.167 22.667,15.16 C 22.193,15.14 21.821,14.736 21.84,14.262 l 0.162,-3.936 C 22.022,9.852 22.426,9.48 22.9,9.499 l 0.159,0.007 c 0.474,0.02 0.846,0.424 0.827,0.898 l -0.162,3.936 c -0.019,0.475 -0.423,0.847 -0.898,0.827 z"
     id="path18"
     inkscape:connector-curvature="0"
     style="fill:#d5ab88" />
  <path
     d="m 23.385,10.915 -0.144,0.067 c -0.43,0.201 -0.946,0.014 -1.147,-0.416 L 21.33,8.935 C 21.129,8.505 21.316,7.989 21.746,7.788 L 21.89,7.72 c 0.43,-0.201 0.946,-0.014 1.147,0.416 L 23.8,9.767 c 0.202,0.43 0.015,0.947 -0.415,1.148 z m 0.933,1.865 c -0.785,-0.332 -1.639,-0.124 -1.974,0.114 -2.887,2.044 -2.462,5.208 -0.448,5.645 1.63,0.353 2.182,-0.789 2.182,-0.789 l 0.182,-3.272 0.058,-1.698 z m -10.1,-1.878 -0.06,0.002 c -0.18,0.005 -0.332,-0.138 -0.337,-0.319 L 13.78,9.108 c -0.005,-0.18 0.138,-0.332 0.319,-0.337 l 0.06,-0.002 c 0.18,-0.005 0.332,0.138 0.337,0.319 l 0.041,1.477 c 0.005,0.18 -0.138,0.332 -0.319,0.337 z"
     id="path20"
     inkscape:connector-curvature="0"
     style="fill:#d5ab88" />
  <g
     id="g22"
     style="fill:#d5ab88"
     transform="translate(-6.5,-1)">
    <path
       d="m 20.695,14.369 1.486,-0.105 c 0,0 0.378,-0.029 0.654,-0.283 0.172,-0.159 0.305,-0.405 0.277,-0.79 -0.071,-1.002 -1.073,-0.931 -1.073,-0.931 l -0.403,0.029 -0.599,0.042 -0.483,0.034 0.141,2.004 z"
       id="path24"
       inkscape:connector-curvature="0" />
    <path
       d="m 20.713,14.368 -0.037,0.003 c -0.175,0.012 -0.328,-0.121 -0.341,-0.296 l -0.097,-1.368 c -0.012,-0.175 0.121,-0.328 0.296,-0.341 l 0.037,-0.003 c 0.175,-0.012 0.328,0.121 0.341,0.296 l 0.097,1.368 c 0.012,0.175 -0.121,0.329 -0.296,0.341 z"
       id="path26"
       inkscape:connector-curvature="0" />
  </g>
  <g
     id="g28"
     style="fill:#d5ab88"
     transform="translate(-6.5,-1)">
    <path
       d="m 20.846,14.79 0.187,1.693 0.571,-0.049 c 0,0 0.291,-0.037 0.513,-0.236 0.156,-0.139 0.278,-0.356 0.24,-0.704 -0.094,-0.846 -0.94,-0.753 -0.94,-0.753 l -0.571,0.049 z"
       id="path30"
       inkscape:connector-curvature="0" />
    <path
       d="m 21.049,16.481 -0.031,0.004 c -0.147,0.021 -0.285,-0.083 -0.306,-0.23 L 20.55,15.104 c -0.021,-0.147 0.083,-0.285 0.23,-0.306 l 0.031,-0.004 c 0.147,-0.021 0.285,0.083 0.306,0.23 l 0.162,1.151 c 0.021,0.147 -0.083,0.285 -0.23,0.306 z"
       id="path32"
       inkscape:connector-curvature="0" />
  </g>
  <g
     id="g34"
     style="fill:#d5ab88"
     transform="translate(-6.5,-1)">
    <path
       d="m 21.339,9.348 c 0,0 0.358,0.018 0.673,-0.169 C 22.24,9.044 22.446,8.804 22.477,8.358 22.551,7.294 21.487,7.22 21.487,7.22 l -0.532,-0.037 -0.148,-0.01 -0.148,2.128 0.68,0.047 z"
       id="path36"
       inkscape:connector-curvature="0" />
    <path
       d="m 20.689,9.303 -0.06,-0.004 c -0.18,-0.013 -0.317,-0.17 -0.305,-0.35 l 0.102,-1.474 c 0.013,-0.18 0.17,-0.317 0.35,-0.305 l 0.06,0.004 c 0.18,0.013 0.317,0.17 0.305,0.35 l -0.102,1.474 c -0.013,0.181 -0.17,0.318 -0.35,0.305 z"
       id="path38"
       inkscape:connector-curvature="0" />
  </g>
  <path
     d="m 15.235,10.873 c 0,0 0.358,-0.017 0.653,-0.234 0.214,-0.157 0.396,-0.415 0.383,-0.862 -0.03,-1.066 -1.096,-1.036 -1.096,-1.036 l -0.533,0.015 -0.514,0.014 0.06,2.133 1.047,-0.03 z"
     id="path40"
     inkscape:connector-curvature="0"
     style="fill:#d5ab88" />
  <path
     d="m 22.75,20 -3.792,0 c -0.411,0 -0.583,0.203 -1.198,1.211 L 13.378,27.91 0,24.871 0,35 16.365,35 c 1.333,0 2.533,-0.307 3.035,-1.542 L 24.033,21.832 C 24.458,20.5 23.697,20 22.75,20 Z"
     id="path42"
     inkscape:connector-curvature="0"
     style="fill:#5c913b" />
</svg>
