<?xml version="1.0" encoding="UTF-8" standalone="no"?>
<svg
   xmlns:dc="http://purl.org/dc/elements/1.1/"
   xmlns:cc="http://creativecommons.org/ns#"
   xmlns:rdf="http://www.w3.org/1999/02/22-rdf-syntax-ns#"
   xmlns:svg="http://www.w3.org/2000/svg"
   xmlns="http://www.w3.org/2000/svg"
   xmlns:sodipodi="http://sodipodi.sourceforge.net/DTD/sodipodi-0.dtd"
   xmlns:inkscape="http://www.inkscape.org/namespaces/inkscape"
   viewBox="0 0 36.075001 36"
   id="svg2"
   version="1.1"
   inkscape:version="0.91 r13725"
   sodipodi:docname="1f939-1f3fd-200d-2642-fe0f.svg"
   width="36.075001"
   height="36">
  <metadata
     id="metadata44">
    <rdf:RDF>
      <cc:Work
         rdf:about="">
        <dc:format>image/svg+xml</dc:format>
        <dc:type
           rdf:resource="http://purl.org/dc/dcmitype/StillImage" />
      </cc:Work>
    </rdf:RDF>
  </metadata>
  <defs
     id="defs42" />
  <sodipodi:namedview
     pagecolor="#ffffff"
     bordercolor="#666666"
     borderopacity="1"
     objecttolerance="10"
     gridtolerance="10"
     guidetolerance="10"
     inkscape:pageopacity="0"
     inkscape:pageshadow="2"
     inkscape:window-width="640"
     inkscape:window-height="480"
     id="namedview40"
     showgrid="false"
     inkscape:zoom="6.5555556"
     inkscape:cx="18"
     inkscape:cy="18"
     inkscape:window-x="0"
     inkscape:window-y="0"
     inkscape:window-maximized="0"
     inkscape:current-layer="svg2" />
  <path
     d="M 26,26.163 26.017,26.999 6,26.999 6,36 30,36 30,26.165 Z"
     id="path4"
     inkscape:connector-curvature="0"
     style="fill:#77b255" />
  <path
     d="m 14,26.999 c 0,0 0.85,2.063 3.55,2.063 2.7,0 3.45,-2.063 3.45,-2.063 l -0.024,-3.9 -6.976,-0.1 0,4 z"
     id="path6"
     inkscape:connector-curvature="0"
     style="fill:#d5ab88" />
  <path
     d="m 14.066,25.029 c 1.058,1.207 2.049,1.51 3.477,1.51 1.426,0 2.426,-0.304 3.485,-1.51 l 0,-3.515 -6.961,0 0,3.515 z"
     id="path8"
     inkscape:connector-curvature="0"
     style="fill:#cc9b7a" />
  <path
     d="m 11.842,16.187 c 0,1.271 -0.639,2.304 -1.426,2.304 -0.788,0 -1.426,-1.033 -1.426,-2.304 0,-1.272 0.639,-2.305 1.426,-2.305 0.788,0 1.426,1.033 1.426,2.305 m 14.26,0 c 0,1.271 -0.638,2.304 -1.424,2.304 -0.789,0 -1.428,-1.033 -1.428,-2.304 0,-1.272 0.639,-2.305 1.428,-2.305 0.786,0 1.424,1.033 1.424,2.305"
     id="path10"
     inkscape:connector-curvature="0"
     style="fill:#d5ab88" />
  <path
     d="m 10.13,17.087 c 0,-4.911 3.32,-8.893 7.416,-8.893 4.095,0 7.416,3.982 7.416,8.893 0,4.91 -3.32,8.893 -7.416,8.893 -4.095,-0.001 -7.416,-3.983 -7.416,-8.893"
     id="path12"
     inkscape:connector-curvature="0"
     style="fill:#d5ab88" />
  <path
     d="m 17.546,23.099 c -2.396,0 -3.132,-0.62 -3.256,-0.745 -0.222,-0.225 -0.222,-0.59 0,-0.815 0.216,-0.218 0.562,-0.223 0.786,-0.019 0.045,0.032 0.627,0.428 2.47,0.428 1.914,0 2.466,-0.426 2.472,-0.431 0.223,-0.223 0.573,-0.213 0.796,0.014 0.223,0.225 0.21,0.6 -0.013,0.824 -0.122,0.124 -0.858,0.744 -3.255,0.744"
     id="path14"
     inkscape:connector-curvature="0"
     style="fill:#c1694f" />
  <path
     d="m 17.546,5.243 c 4.914,0 7.986,3.663 7.986,6.714 0,3.051 -0.614,4.273 -1.229,3.051 l -1.229,-2.44 c 0,0 -3.686,0 -4.915,-1.223 0,0 1.845,3.663 -1.843,0 0,0 0.614,2.442 -3.071,-0.609 0,0 -1.843,1.221 -2.457,4.272 -0.17,0.847 -1.229,0 -1.229,-3.051 0.001,-3.052 2.459,-6.714 7.987,-6.714"
     id="path16"
     inkscape:connector-curvature="0"
     style="fill:#963b22" />
  <path
     d="m 14.066,17.122 c -0.478,0 -0.87,-0.395 -0.87,-0.878 l 0,-0.879 c 0,-0.483 0.392,-0.878 0.87,-0.878 0.479,0 0.87,0.395 0.87,0.878 l 0,0.879 c 0,0.483 -0.392,0.878 -0.87,0.878 m 6.961,0 c -0.479,0 -0.87,-0.395 -0.87,-0.878 l 0,-0.879 c 0,-0.483 0.392,-0.878 0.87,-0.878 0.477,0 0.87,0.395 0.87,0.878 l 0,0.879 c 0,0.483 -0.393,0.878 -0.87,0.878"
     id="path18"
     inkscape:connector-curvature="0"
     style="fill:#662113" />
  <path
     d="m 18.199,19.539 -1.306,0 c -0.36,0 -0.652,-0.296 -0.652,-0.659 0,-0.362 0.293,-0.659 0.652,-0.659 l 1.306,0 c 0.359,0 0.652,0.297 0.652,0.659 0.001,0.363 -0.292,0.659 -0.652,0.659"
     id="path20"
     inkscape:connector-curvature="0"
     style="fill:#c1694f" />
  <path
     d="m 5.895,14.205 c 0,0 -3.834,1.39 -4.214,6.221 0,0 -2.4,-4.817 -0.522,-10.149 l 4.736,3.928 z M 20.051,5.977 c 0,0 -2.758,-3.005 -7.363,-1.497 0,0 3.522,-4.069 9.167,-4.387 l -1.804,5.884 z m 9.22,10.36 c 0,0 1.972,-3.571 -0.923,-7.457 0,0 4.978,2.046 7.075,7.296 l -6.152,0.161 z"
     id="path22"
     inkscape:connector-curvature="0"
     style="fill:#d1d3d4" />
  <circle
     cx="4.6030002"
     cy="10.986"
     r="3.5"
     id="circle24"
     style="fill:#5c913b" />
  <circle
     cx="22.516001"
     cy="3.5"
     r="3.5"
     id="circle26"
     style="fill:#be1931" />
  <circle
     cx="32.396"
     cy="17.854"
     r="3.5"
     id="circle28"
     style="fill:#3b88c3" />
  <path
     d="M 32.646,23.488 C 32.535,22.95 32.012,22.604 31.477,22.714 l -2.057,0.431 -1.809,0 c -0.85,0 -1.538,0.695 -1.538,1.555 l 0,1.552 3.847,0 c 0.83,0 1.503,-0.666 1.532,-1.496 l 0.273,-0.057 0.503,0 c 0,-0.059 -0.022,-0.113 -0.035,-0.169 0.342,-0.215 0.537,-0.621 0.453,-1.042 z"
     id="path30"
     inkscape:connector-curvature="0"
     style="fill:#cc9b7a" />
  <path
     d="m 36.075,23.921 c 0,-0.429 -0.344,-0.776 -0.77,-0.776 l -4.616,0.776 -3.847,0 c -0.426,0 -0.77,0.349 -0.77,0.778 L 26,26.25 l 1.611,0.002 3.078,0 4.616,-1.553 c 10e-4,0 0.77,-0.348 0.77,-0.778 z"
     id="path32"
     inkscape:connector-curvature="0"
     style="fill:#d5ab88" />
  <path
     d="m 3.43,27.236 c 0.11,-0.538 0.633,-0.884 1.168,-0.774 l 2.058,0.431 1.808,0 c 0.85,0 1.539,0.695 1.539,1.555 l 0,1.552 -3.848,0 C 5.325,30 4.652,29.334 4.623,28.504 l -0.273,-0.057 -0.503,0 c 0,-0.059 0.022,-0.113 0.036,-0.169 C 3.54,28.063 3.345,27.657 3.43,27.236 Z"
     id="path34"
     inkscape:connector-curvature="0"
     style="fill:#cc9b7a" />
  <path
     d="M 0,27.669 C 0,27.24 0.344,26.893 0.769,26.893 l 4.617,0.776 3.847,0 c 0.425,0 0.769,0.349 0.769,0.778 l 0,1.553 -4.616,0 -4.617,-1.553 C 0.769,28.447 0,28.099 0,27.669 Z"
     id="path36"
     inkscape:connector-curvature="0"
     style="fill:#d5ab88" />
  <path
     d="m 10,30 1,0 0,6 -1,0 z m 15,-3 1,0 0,9 -1,0 z"
     id="path38"
     inkscape:connector-curvature="0"
     style="fill:#5c913b" />
</svg>
