<?xml version="1.0" encoding="UTF-8" standalone="no"?>
<svg
   xmlns:dc="http://purl.org/dc/elements/1.1/"
   xmlns:cc="http://creativecommons.org/ns#"
   xmlns:rdf="http://www.w3.org/1999/02/22-rdf-syntax-ns#"
   xmlns:svg="http://www.w3.org/2000/svg"
   xmlns="http://www.w3.org/2000/svg"
   xmlns:sodipodi="http://sodipodi.sourceforge.net/DTD/sodipodi-0.dtd"
   xmlns:inkscape="http://www.inkscape.org/namespaces/inkscape"
   viewBox="0 0 35.612427 33.748802"
   id="svg2"
   version="1.1"
   inkscape:version="0.91 r13725"
   sodipodi:docname="1f93a.svg"
   width="35.612427"
   height="33.748802">
  <metadata
     id="metadata22">
    <rdf:RDF>
      <cc:Work
         rdf:about="">
        <dc:format>image/svg+xml</dc:format>
        <dc:type
           rdf:resource="http://purl.org/dc/dcmitype/StillImage" />
      </cc:Work>
    </rdf:RDF>
  </metadata>
  <defs
     id="defs20" />
  <sodipodi:namedview
     pagecolor="#ffffff"
     bordercolor="#666666"
     borderopacity="1"
     objecttolerance="10"
     gridtolerance="10"
     guidetolerance="10"
     inkscape:pageopacity="0"
     inkscape:pageshadow="2"
     inkscape:window-width="640"
     inkscape:window-height="480"
     id="namedview18"
     showgrid="false"
     inkscape:zoom="6.5555556"
     inkscape:cx="17.890426"
     inkscape:cy="17.025"
     inkscape:window-x="0"
     inkscape:window-y="0"
     inkscape:window-maximized="0"
     inkscape:current-layer="svg2" />
  <path
     d="m 24.109426,6.2238018 c -1.781,0 -2.438,1.344 -2.562,1.688 -0.125,0.344 -1.344,2.4060002 -1.438,2.8750002 -0.094,0.469 -0.562,0.25 -0.969,0.188 -0.406,-0.062 -2.375,-0.156 -3.094,-0.188 0,0 -0.485,-0.743 -1.156,-0.688 -0.75,0.062 -1.281,0.281 -1.406,1.031 -0.125,0.75 1.031,1.562 1.562,1.562 0.531,0 1,-0.281 1.188,-0.281 0.188,0 3.094,0.656 3.625,0.719 0.531,0.062 1.469,0.031 1.719,-0.375 0.25,-0.406 2.094,-2.9060002 2.344,-3.4060002 0.25,-0.5 0.187,-3.125 0.187,-3.125 z m -1.531,8.5940002 c 0,0 -3.503,7.748 -3.792,8.184 -0.289,0.435 -0.334,1.233 -0.208,1.91 0.126,0.677 2.003,6.486 1.847,7.673 -0.076,0.576 2.588,1.38 2.087,0.039 -0.469,-1.258 -0.349,-3.708 -0.497,-5.681 -0.105,-1.396 -0.5,-2.813 -0.5,-2.813 l 3.562,-5.562 c 0,0 1.917,4.909 2,5.781 0.031,0.323 -0.208,1.214 -0.188,2.344 0.034,1.922 0.309,4.416 0.25,5.125 -0.09,1.075 1.597,1.829 1.712,0.071 0.125,-1.91 1.353,-5.644 0.976,-8.134 -0.637,-4.205 -1.5,-8.469 -1.5,-8.469 l -5.749,-0.468 z"
     id="path4"
     inkscape:connector-curvature="0"
     style="fill:#ccd6dd" />
  <path
     d="m 30.997426,33.748802 -4.08,0 c -0.582,0 -0.166,-1.287 -0.125,-1.827 0.042,-0.54 0.291,-0.249 0.498,-0.083 0.208,0.166 0.716,-0.042 1.173,-0.291 0.457,-0.249 1.074,-0.466 1.27,-0.168 0.719,1.094 1.35,0.9 1.875,1.312 0.438,0.344 0.657,1.057 -0.611,1.057 z m -12.419,0 3.848,0 c 0.581,0 0.166,-1.287 0.125,-1.827 -0.042,-0.54 -0.291,-0.249 -0.498,-0.083 -0.208,0.166 -1.557,0.374 -1.693,-0.271 -0.107,-0.509 -0.958,-0.266 -1.156,0.031 -0.625,0.936 -2.218,0.565 -2.625,1.094 -0.359,0.465 -0.426,1.056 1.999,1.056 z m 6.562,-27.5560002 2.75,0 c 0.969,0 1.5,0.719 1.625,1.25 0.125,0.531 0.156,1.844 -0.312,2.6250002 -0.469,0.781 -1.356,2.469 -1.356,3.344 0,0.875 0.95,2.937 1.075,3.5 0.125,0.563 -0.985,0.459 -1.781,1 -0.781,0.531 -1.594,1.438 -1.656,1.719 -0.062,0.281 -1.031,0.656 -1.219,0.062 -0.188,-0.594 -0.833,-1.35 -1.688,-2.062 -0.562,-0.469 -1.031,-0.625 -1,-0.938 0.031,-0.312 0.649,-1.887 0.703,-2.43 0.25,-2.531 -1.249,-2.596 -0.828,-4.3200002 0.248,-1.015 1.125,-3.156 1.875,-3.531 0.75,-0.375 1,-0.219 1.812,-0.219 z"
     id="path6"
     inkscape:connector-curvature="0"
     style="fill:#99aab5" />
  <path
     d="m 28.765426,6.4428018 c 0.906,-0.062 1.188,0.406 1.594,0.594 0.406,0.188 1.5,0.594 1.75,0.688 0.25,0.094 0.688,0.625 0.688,-0.219 0,-0.439 0.219,-1.531 0.312,-2.031 0.133,-0.709 0.25,-1.375 0.25,-1.375 0,0 -0.719,-1.031 -0.688,-1.344 0.031,-0.312 0.375,-1.125 0.781,-1.312 0.406,-0.188 1.562,0.469 1.938,0.719 0.376,0.25 0.219,0.875 -0.062,1.281 -0.281,0.406 -0.562,1.115 -0.562,1.774 0,0.844 0.019,3.264 -0.2,4.9210002 -0.074,0.561 -0.844,0.562 -1.406,0.5 -0.562,-0.062 -3.051,-0.476 -4.582,-0.8200002 -1.532,-0.345 -0.719,-3.314 0.187,-3.376 z m -4.024,-6.36200005 c 1.404,-0.299 2.624,0.453 3.105,1.26000005 0.826,1.383 -0.332,3.458 0.138,4.32 0.436,0.8 0.126,0.986 -0.5,1.406 -0.612,0.411 -1.263,0.932 -2.531,0.906 -1.465,-0.029 -1.676,-0.859 -1.5,-1.562 0.086,-0.342 0.087,-0.676 0.028,-0.998 0,0 -0.586,-0.469 -0.615,-2.021 -0.023,-1.201 -0.323,-2.84200005 1.875,-3.31100005 z"
     id="path8"
     inkscape:connector-curvature="0"
     style="fill:#ccd6dd" />
  <path
     d="m 27.640426,2.9318018 c -0.18,1.623 -1.391,3.51 -2.719,3.51 -1.328,0 -2.198,-1.312 -2.349,-2.905 -0.15,-1.587 1.466,-3.59200005 2.849,-3.50200005 1.325,0.088 2.395,1.31400005 2.219,2.89700005 z"
     id="path10"
     inkscape:connector-curvature="0"
     style="fill:#f5f8fa" />
  <path
     d="m 27.230426,2.8738018 c -0.18,1.623 -1.168,3.256 -2.496,3.256 -1.328,0 -2.366,-1.332 -2.22,-3.236 0.138,-1.796 1.212,-2.97900005 2.595,-2.88900005 1.325,0.087 2.297,1.28500005 2.121,2.86900005 z"
     id="path12"
     inkscape:connector-curvature="0"
     style="fill:#292f33" />
  <path
     d="m 13.979426,10.465802 -0.664,-0.14 C 6.0194264,8.8048018 0.05842635,7.7968018 4.2635155e-4,8.0758018 -0.05757365,8.3548018 5.8094264,9.8148018 13.104426,11.335802 l 0.665,0.137 0.21,-1.007 z"
     id="path14"
     inkscape:connector-curvature="0"
     style="fill:#66757f" />
  <path
     d="m 15.098426,11.224802 c -0.183,0.878 -0.784,1.497 -1.341,1.38 -0.557,-0.116 -1.106,-0.974 -0.922,-1.852 0.183,-0.8790002 1.029,-1.4460002 1.586,-1.3290002 0.557,0.116 0.86,0.9230002 0.677,1.8010002 z"
     id="path16"
     inkscape:connector-curvature="0"
     style="fill:#66757f" />
</svg>
