<?xml version="1.0" encoding="UTF-8" standalone="no"?>
<svg
   xmlns:dc="http://purl.org/dc/elements/1.1/"
   xmlns:cc="http://creativecommons.org/ns#"
   xmlns:rdf="http://www.w3.org/1999/02/22-rdf-syntax-ns#"
   xmlns:svg="http://www.w3.org/2000/svg"
   xmlns="http://www.w3.org/2000/svg"
   xmlns:sodipodi="http://sodipodi.sourceforge.net/DTD/sodipodi-0.dtd"
   xmlns:inkscape="http://www.inkscape.org/namespaces/inkscape"
   viewBox="0 0 30.412609 34.913731"
   id="svg2"
   version="1.1"
   inkscape:version="0.91 r13725"
   sodipodi:docname="1f93e-1f3ff-200d-2642-fe0f.svg"
   width="30.412609"
   height="34.913731">
  <metadata
     id="metadata40">
    <rdf:RDF>
      <cc:Work
         rdf:about="">
        <dc:format>image/svg+xml</dc:format>
        <dc:type
           rdf:resource="http://purl.org/dc/dcmitype/StillImage" />
      </cc:Work>
    </rdf:RDF>
  </metadata>
  <defs
     id="defs38" />
  <sodipodi:namedview
     pagecolor="#ffffff"
     bordercolor="#666666"
     borderopacity="1"
     objecttolerance="10"
     gridtolerance="10"
     guidetolerance="10"
     inkscape:pageopacity="0"
     inkscape:pageshadow="2"
     inkscape:window-width="640"
     inkscape:window-height="480"
     id="namedview36"
     showgrid="false"
     inkscape:zoom="6.5555556"
     inkscape:cx="13.158075"
     inkscape:cy="17.194905"
     inkscape:window-x="0"
     inkscape:window-y="0"
     inkscape:window-maximized="0"
     inkscape:current-layer="svg2" />
  <path
     d="m 2.5100746,31.042826 c -0.294,0.944 -0.323,1.49 -0.512,2.473 -0.139,0.722 -0.656,1.525 -1.25200004,1.381 -0.472,-0.114 -0.821,-0.587 -0.675,-1.614 0.078,-0.55 0.238,-0.916 0.45,-1.477 0.122,-0.324 0.297,-0.771 0.401,-1.202 0.11400004,-0.47 0.48400004,-0.963 1.09100004,-0.816 0.45,0.107 0.693,0.627 0.497,1.255 z"
     id="path4"
     inkscape:connector-curvature="0"
     style="fill:#1c6399" />
  <path
     d="m 1.2060746,30.792826 c 0.026,-0.017 0.255,-0.137 0.58,-0.031 0.325,0.106 0.434,0.3 0.448,0.328 0.014,0.029 -0.338,0.802 -0.393,1.019 -0.057,0.232 -0.254,0.882 -0.263,0.909 -0.016,0.056 -0.076,0.087 -0.134,0.07 l -0.62000004,-0.179 c -0.059,-0.017 -0.092,-0.076 -0.076,-0.132 l 0.25400004,-0.878 c 0.071,-0.243 0.177,-1.089 0.204,-1.106 z"
     id="path6"
     inkscape:connector-curvature="0"
     style="fill:#3b94d9" />
  <path
     d="m 1.6950746,32.982826 c -0.019,0 -0.037,-0.002 -0.057,-0.008 l -0.94400004,-0.277 c -0.105,-0.031 -0.166,-0.142 -0.136,-0.248 0.031,-0.106 0.137,-0.167 0.249,-0.136 l 0.94400004,0.277 c 0.105,0.031 0.166,0.142 0.136,0.248 -0.026,0.087 -0.105,0.144 -0.192,0.144 z m 0.22,-0.747 c -0.019,0 -0.037,-0.002 -0.057,-0.008 l -0.94400004,-0.277 c -0.106,-0.031 -0.166,-0.142 -0.136,-0.248 0.031,-0.106 0.137,-0.167 0.24900004,-0.136 l 0.944,0.277 c 0.105,0.031 0.166,0.142 0.136,0.248 -0.026,0.088 -0.105,0.144 -0.192,0.144 z m 0.219,-0.747 c -0.019,0 -0.037,-0.002 -0.057,-0.008 l -0.944,-0.277 c -0.105,-0.031 -0.16600004,-0.142 -0.13600004,-0.248 0.031,-0.106 0.13700004,-0.167 0.24900004,-0.136 l 0.944,0.277 c 0.105,0.031 0.166,0.142 0.136,0.248 -0.026,0.088 -0.106,0.144 -0.192,0.144 z"
     id="path8"
     inkscape:connector-curvature="0"
     style="fill:#ccd6dd" />
  <path
     d="m 10.148075,30.084826 c -0.1890004,0.97 -0.4230004,1.465 -0.7230004,2.419 -0.22,0.701 -0.146,1.653 0.446,1.809 0.4690004,0.124 1.0010004,-0.127 1.3600004,-1.101 0.192,-0.521 0.225,-0.919 0.306,-1.514 0.046,-0.343 0.105,-0.819 0.218,-1.249 0.123,-0.468 0.031,-1.077 -0.573,-1.236 -0.447,-0.116 -0.908,0.226 -1.034,0.872 z"
     id="path10"
     inkscape:connector-curvature="0"
     style="fill:#1c6399" />
  <path
     d="m 10.433075,30.262826 c 0.026,-0.018 0.252,-0.143 0.579,-0.045 0.327,0.098 0.441,0.289 0.456,0.317 0.014,0.028 -0.319,0.809 -0.369,1.028 -0.051,0.233 -0.233,0.888 -0.241,0.915 -0.015,0.056 -0.074,0.089 -0.132,0.073 l -0.624,-0.164 c -0.059,-0.016 -0.094,-0.074 -0.079,-0.13 l 0.233,-0.883 c 0.064,-0.245 0.15,-1.093 0.177,-1.111 z"
     id="path12"
     inkscape:connector-curvature="0"
     style="fill:#3b94d9" />
  <path
     d="m 10.978075,32.423826 c -0.017,0 -0.034,-0.002 -0.051,-0.007 l -0.9510004,-0.25 c -0.107,-0.028 -0.171,-0.137 -0.143,-0.244 0.027,-0.106 0.138,-0.172 0.2440004,-0.142 l 0.951,0.25 c 0.107,0.028 0.171,0.137 0.143,0.244 -0.023,0.09 -0.104,0.149 -0.193,0.149 z m 0.199,-0.752 c -0.017,0 -0.034,-0.002 -0.051,-0.007 l -0.951,-0.251 c -0.107,-0.028 -0.171,-0.137 -0.143,-0.244 0.028,-0.106 0.138,-0.172 0.244,-0.142 l 0.951,0.251 c 0.107,0.028 0.171,0.137 0.143,0.244 -0.024,0.09 -0.105,0.149 -0.193,0.149 z m 0.198,-0.753 c -0.017,0 -0.034,-0.002 -0.051,-0.007 l -0.951,-0.251 c -0.107,-0.028 -0.171,-0.137 -0.143,-0.244 0.028,-0.106 0.138,-0.172 0.244,-0.142 l 0.951,0.251 c 0.107,0.028 0.171,0.137 0.143,0.244 -0.023,0.09 -0.104,0.149 -0.193,0.149 z"
     id="path14"
     inkscape:connector-curvature="0"
     style="fill:#ccd6dd" />
  <g
     id="g16"
     style="fill:#7c533e"
     transform="translate(-4.8419254,-0.28117366)">
    <path
       d="m 15.907,24.067 -2.664,-1.668 -1.149,2.757 c -0.24,0.185 -0.28,0.276 -1.615,1.052 -1.203,0.699 -3.041,2.897 -3.791,3.832 -0.213,0.198 -0.504,0.544 -0.646,1.061 0.566,0.137 1.023,0.266 1.023,0.266 0,0 0.171,-0.202 0.466,-0.396 1.438,-0.821 6.319,-3.633 6.319,-3.633 0.394,-0.283 0.64,-0.478 0.78,-0.72 l 0.01,0.006 c 0.954,-1.365 1.048,-2.063 1.267,-2.557 z m 6.532,-2.196 -2.815,1.487 c 0.171,0.271 0.513,0.854 0.797,1.59 0.083,0.213 0.132,0.49 -0.223,0.746 -0.2,0.146 -0.433,0.331 -0.731,0.568 -0.204,0.163 -0.438,0.349 -0.714,0.563 -0.997,0.778 -2.582,2.469 -2.694,2.575 -0.059,0.056 -0.145,0.12 -0.239,0.202 -0.08,0.07 -0.165,0.163 -0.248,0.278 -0.002,0.004 -0.005,0.005 -0.007,0.008 l -0.002,0.005 c -0.12,0.17 -0.231,0.388 -0.292,0.673 0.087,0.019 0.965,0.233 0.965,0.233 0,0 0.165,-0.224 0.465,-0.4 0.907,-0.513 5.677,-3.215 6.356,-3.703 l 0.062,-0.044 c 0.69,-0.495 0.977,-0.699 0.915,-1.409 -0.109,-1.24 -1.264,-2.915 -1.595,-3.372 z M 14.05,10.366 C 14.08,9.694 13.841,8.75 12.278,8.75 10.579,8.75 9.032,8.922 8.592,9.048 7.94,9.234 7.884,8.148 7.59,7.095 7.295,6.039 7.013,4.647 7.044,4.42 7.098,4.035 6.583,1.18 6.539,1.137 6.467,1.067 6.264,1.204 6.126,1.212 6.015,1.219 5.936,1.31 5.818,1.388 c -0.682,0.447 -0.906,1.376 -0.974,2 -0.043,0.386 0.596,1.118 0.66,1.526 0.047,0.301 0.154,4.237 0.231,4.678 0.095,0.539 0.207,1.278 1.122,1.502 0.916,0.223 4.298,0.317 5.205,0.406 1.04,0.102 1.948,-0.243 1.988,-1.134 z m 19.773,1.975 c -0.285,-0.018 -0.335,-0.066 -0.612,-0.059 -0.406,0.01 -0.393,0.062 -0.577,0.059 -0.399,-0.007 -0.967,-0.038 -1.387,-0.094 -0.31,-0.041 -1.968,-0.32 -2.419,-0.413 -0.614,-0.126 -1.372,-0.353 -2.786,-0.23 l 0,-10e-4 c -1.217,-0.728 -3.875,-1.827 -4.754,-2.147 -1.009,-0.367 -2.187,2.707 -0.602,2.97 1.277,0.211 3.237,1.018 5.292,1.425 l 10e-4,-0.032 c 0.023,0.016 0.037,0.039 0.062,0.052 0,0 1.491,-0.204 2.303,-0.259 1.124,-0.076 2.682,-0.406 3.092,-0.267 0.518,0.176 1.068,0.34 1.715,-0.034 1.106,-0.639 2.212,-0.265 2.095,-0.794 -0.026,-0.124 -0.88,-0.142 -1.423,-0.176 z M 17.827,4.826 c -0.062,-0.564 -0.59,-1 -1.148,-0.934 -0.564,0.062 -0.977,0.558 -0.914,1.122 l 0.411,3.61 -0.328,0.048 c 0,0 -0.391,1.056 1.422,1.056 1.813,0 1.621,-0.825 1.621,-0.825 L 18.296,8.79 17.827,4.826 Z"
       id="path18"
       inkscape:connector-curvature="0" />
    <path
       d="m 19.859,4.648 c 0,-1.702 -1.208,-3.083 -2.697,-3.083 -1.489,0 -2.697,1.38 -2.697,3.083 0,1.703 1.011,3.083 2.794,3.083 0.68,0 1.784,-0.136 2.258,-0.61 0.564,-0.566 0.342,-1.548 0.342,-2.473 z"
       id="path20"
       inkscape:connector-curvature="0" />
  </g>
  <path
     d="m 14.032075,0.44882634 c -0.718,-0.5 -2.529,-0.678 -3.757,-0.029 C 8.8890746,1.1518263 8.5420746,2.4998263 8.7730746,3.8858263 c 0.212,1.274 0.825,1.802 0.825,1.802 0.235,0.254 0.8600004,-0.413 0.5020004,-0.977 -0.4200004,-0.66 -0.3020004,-1.439 0.174,-1.488 0.336,-0.034 0.697,0.162 0.6,0.464 -0.116,0.363 0.033,0.512 0.033,0.512 0,0 0.277,0.197 0.555,-0.644 0.146,-0.441 1.189,-0.372 2.721,-1.066 0.181,-0.082 0.642,0.433 0.772,1.581 0.028,0.248 0.491,-0.516 0.555,-1.073 0.106,-0.923 -0.558,-1.906 -1.478,-2.54799996 z"
     id="path22"
     inkscape:connector-curvature="0"
     style="fill:#0b0200" />
  <g
     id="g24"
     style="fill:#1c6399"
     transform="translate(-4.8419254,-0.28117366)">
    <path
       d="m 14.789,17.894 c 0,0 -0.826,2.083 -1.101,2.948 -0.275,0.865 -0.848,1.848 -0.848,1.848 0,0 1.729,1.586 3.066,1.546 l 1.843,-3.299 2.021,2.896 c 0,0 1.959,-1.333 3.167,-1.542 0,0 -1.709,-3.03 -2.062,-3.698 -0.354,-0.668 -0.75,-1.094 -0.75,-1.094 l -5.336,0.395 z"
       id="path26"
       inkscape:connector-curvature="0" />
    <path
       d="m 15.858,24.412 c -1.382,0 -3.064,-1.526 -3.136,-1.593 -0.061,-0.056 -0.075,-0.146 -0.033,-0.217 0.006,-0.01 0.566,-0.978 0.833,-1.813 0.274,-0.861 1.071,-2.875 1.105,-2.96 0.024,-0.062 0.083,-0.105 0.15,-0.11 l 5.335,-0.394 c 0.056,-0.005 0.104,0.017 0.141,0.055 0.017,0.018 0.417,0.45 0.776,1.131 0.349,0.658 2.044,3.664 2.061,3.694 0.028,0.05 0.03,0.109 0.006,0.161 -0.024,0.051 -0.072,0.088 -0.128,0.098 -1.157,0.199 -3.08,1.5 -3.099,1.513 -0.079,0.053 -0.188,0.033 -0.242,-0.044 l -1.86,-2.667 -1.707,3.055 c -0.03,0.054 -0.086,0.088 -0.148,0.09 l -0.054,10e-4 z m -2.795,-1.76 c 0.375,0.32 1.687,1.374 2.741,1.409 l 1.793,-3.209 c 0.029,-0.053 0.084,-0.087 0.144,-0.09 0.06,0.002 0.118,0.025 0.152,0.074 l 1.923,2.756 c 0.445,-0.291 1.816,-1.151 2.853,-1.421 -0.392,-0.694 -1.652,-2.936 -1.948,-3.496 -0.263,-0.496 -0.552,-0.857 -0.67,-0.995 l -5.139,0.379 c -0.169,0.429 -0.821,2.094 -1.056,2.834 -0.223,0.702 -0.628,1.463 -0.793,1.759 z"
       id="path28"
       inkscape:connector-curvature="0" />
  </g>
  <path
     d="m 9.0170746,8.2808263 c 0.812,0 1.4500004,0.072 1.9900004,0.111 0,0 0.077,0.847 1.387,0.886 1.309,0.039 1.656,-0.655 1.656,-0.655 0,0 1.411,-0.055 2.143,0.407 l 1.606,0.685 c 0,0 -0.915,1.3379997 -0.821,2.7189997 l -0.74,-0.212 c 0,0 0.032,0.025 0.068,0.525 0.088,1.207 -0.208,5.343 -0.054,5.69 0,0 -1.521,0.536 -3.469,0.75 -1.192,0.131 -3.7030004,0.106 -3.7030004,0.106 0.31,-1.295 0.529,-3.545 0.578,-4.652 0.096,-2.173 -0.497,-3.318 -0.708,-3.298 -0.896,0.083 -1.729,-0.125 -1.729,-0.125 0,0 0.375,-0.688 0.292,-1.4579997 -0.083,-0.771 -0.312,-1.292 -0.312,-1.292 0,0 1.004,-0.187 1.816,-0.187 z"
     id="path30"
     inkscape:connector-curvature="0"
     style="fill:#4289c1" />
  <circle
     cx="2.6580746"
     cy="2.6358263"
     r="2.0550001"
     id="circle32"
     style="fill:#226699" />
  <path
     d="m 1.8760746,1.5388263 -0.079,-0.013 c 0.133,0.02 0.261,-0.069 0.284,-0.203 0.023,-0.135 -0.068,-0.265 -0.204,-0.289 l -0.513,-0.091 -0.82500004,0.90099996 -0.25,0.922 0.81700004,0.15 c 0.135,0.023 0.265,-0.068 0.288,-0.204 0.022,-0.129 -0.064,-0.248 -0.189,-0.279 l 0.22,0.038 c 0.135,0.023 0.265,-0.068 0.288,-0.204 0.023,-0.131 -0.065,-0.253 -0.193,-0.282 l 0.271,0.046 c 0.135,0.023 0.265,-0.068 0.288,-0.204 0.023,-0.136 -0.068,-0.265 -0.203,-0.288 z"
     id="path34"
     inkscape:connector-curvature="0"
     style="fill:#7c533e" />
</svg>
