<?xml version="1.0" encoding="UTF-8" standalone="no"?>
<svg
   xmlns:dc="http://purl.org/dc/elements/1.1/"
   xmlns:cc="http://creativecommons.org/ns#"
   xmlns:rdf="http://www.w3.org/1999/02/22-rdf-syntax-ns#"
   xmlns:svg="http://www.w3.org/2000/svg"
   xmlns="http://www.w3.org/2000/svg"
   xmlns:sodipodi="http://sodipodi.sourceforge.net/DTD/sodipodi-0.dtd"
   xmlns:inkscape="http://www.inkscape.org/namespaces/inkscape"
   viewBox="0 0 26 33.5"
   id="svg2"
   version="1.1"
   inkscape:version="0.91 r13725"
   sodipodi:docname="1f935-1f3ff-200d-2640-fe0f.svg"
   width="26"
   height="33.5">
  <metadata
     id="metadata48">
    <rdf:RDF>
      <cc:Work
         rdf:about="">
        <dc:format>image/svg+xml</dc:format>
        <dc:type
           rdf:resource="http://purl.org/dc/dcmitype/StillImage" />
      </cc:Work>
    </rdf:RDF>
  </metadata>
  <defs
     id="defs46" />
  <sodipodi:namedview
     pagecolor="#ffffff"
     bordercolor="#666666"
     borderopacity="1"
     objecttolerance="10"
     gridtolerance="10"
     guidetolerance="10"
     inkscape:pageopacity="0"
     inkscape:pageshadow="2"
     inkscape:window-width="640"
     inkscape:window-height="480"
     id="namedview44"
     showgrid="false"
     inkscape:zoom="6.5555556"
     inkscape:cx="13"
     inkscape:cy="18"
     inkscape:window-x="0"
     inkscape:window-y="0"
     inkscape:window-maximized="0"
     inkscape:current-layer="svg2" />
  <path
     d="m 13.004,1.479 c 4.104,0 10.947,2.053 10.947,10.947 0,8.895 0,10.948 -2.053,10.948 -2.053,0 -4.79,-2.053 -8.894,-2.053 -4.106,0 -6.785,2.053 -8.896,2.053 -2.287,0 -2.053,-8.211 -2.053,-10.948 0,-8.895 6.844,-10.947 10.949,-10.947"
     id="path4"
     inkscape:connector-curvature="0"
     style="fill:#0b0200" />
  <path
     d="M 26,33.5 26,29 c 0,-3.314 -3.56,-5.5 -6.875,-5.5 l -12,0 C 3.812,23.5 0,25.686 0,29 l 0,4.5 26,0 z"
     id="path6"
     inkscape:connector-curvature="0"
     style="fill:#292f33" />
  <path
     d="m 9.5,23.5 c 1,1.982 2.792,2 3.5,2 0.708,0 2.512,-0.049 3.5,-2 l 0,-3.591 -7,0 0,3.591 z"
     id="path8"
     inkscape:connector-curvature="0"
     style="fill:#7c533e" />
  <path
     d="m 9.5,21.554 c 0.975,1.102 2.185,1.4 3.499,1.4 1.315,0 2.526,-0.298 3.501,-1.4 l 0,-1.051 -7,0 0,1.051 z"
     id="path10"
     inkscape:connector-curvature="0"
     style="fill:#664131" />
  <path
     d="M 8.95,27.103 5.087,26.278 6.808,23.5 8.95,23.503 Z"
     id="path12"
     inkscape:connector-curvature="0"
     style="fill:#546170" />
  <path
     d="m 11.078,33.5 -2.406,0 -4.485,-7.9 2.621,0.831 1.571,-1.983 z"
     id="path14"
     inkscape:connector-curvature="0"
     style="fill:#66757f" />
  <path
     d="M 17.05,27.103 20.913,26.278 19.192,23.5 17.051,23.503 Z"
     id="path16"
     inkscape:connector-curvature="0"
     style="fill:#546170" />
  <path
     d="m 14.922,33.5 2.406,0 4.485,-7.9 -2.621,0.831 -1.57,-1.983 z"
     id="path18"
     inkscape:connector-curvature="0"
     style="fill:#66757f" />
  <path
     d="m 15.145,33.5 3.011,-10 -5.156,1 -5.156,-1 3.011,10 z"
     id="path20"
     inkscape:connector-curvature="0"
     style="fill:#dfe7ec" />
  <circle
     cx="13"
     cy="28.296"
     r="0.625"
     id="circle22"
     style="fill:#292f33" />
  <circle
     cx="13"
     cy="30.896"
     r="0.625"
     id="circle24"
     style="fill:#292f33" />
  <path
     d="m 13,32.875 c -0.345,0 -0.625,0.28 -0.625,0.625 l 1.25,0 c 0,-0.345 -0.28,-0.625 -0.625,-0.625 z"
     id="path26"
     inkscape:connector-curvature="0"
     style="fill:#292f33" />
  <path
     d="M 9.294,22.372 13,24.466 10.583,27.03 7.843,23.5 Z m 7.412,0 -3.706,2.094 2.417,2.564 2.74,-3.53 z"
     id="path28"
     inkscape:connector-curvature="0"
     style="fill:#f4f7f9" />
  <path
     d="M 15.781,23.553 C 15.709,23.51 15.622,23.51 15.55,23.55 l -2.551,1.402 -2.551,-1.402 c -0.072,-0.04 -0.159,-0.039 -0.231,0.003 -0.071,0.042 -0.115,0.119 -0.115,0.201 l 0,2.928 c 0,0.082 0.044,0.159 0.115,0.201 0.037,0.021 0.078,0.032 0.119,0.032 0.039,0 0.077,-0.01 0.112,-0.029 l 2.551,-1.402 2.551,1.402 c 0.035,0.02 0.073,0.029 0.112,0.029 0.041,0 0.082,-0.011 0.119,-0.032 0.07,-0.042 0.114,-0.119 0.114,-0.201 l 0,-2.928 c 0.001,-0.082 -0.043,-0.159 -0.114,-0.201 z"
     id="path30"
     inkscape:connector-curvature="0"
     style="fill:#292f33" />
  <path
     d="m 4.793,12.127 c 0,-5.834 3.676,-10.563 8.211,-10.563 4.533,0 8.209,4.729 8.209,10.563 0,5.833 -3.676,10.285 -8.209,10.285 -4.535,0 -8.211,-4.452 -8.211,-10.285"
     id="path32"
     inkscape:connector-curvature="0"
     style="fill:#7c533e" />
  <path
     d="m 13.004,19.952 c -1.606,0 -2.447,-0.794 -2.537,-0.885 -0.268,-0.267 -0.268,-0.7 0,-0.967 0.266,-0.265 0.692,-0.267 0.961,-0.007 0.035,0.032 0.551,0.491 1.576,0.491 1.038,0 1.555,-0.473 1.576,-0.492 0.273,-0.256 0.703,-0.248 0.963,0.019 0.26,0.269 0.26,0.691 -0.004,0.955 -0.09,0.092 -0.929,0.886 -2.535,0.886"
     id="path34"
     inkscape:connector-curvature="0"
     style="fill:#df1f32" />
  <path
     d="m 13.895,16.909 -1.69,0 c -0.233,0 -0.423,-0.189 -0.423,-0.423 l 0,-0.153 c 0,-0.233 0.189,-0.424 0.423,-0.424 l 1.69,0 c 0.233,0 0.424,0.19 0.424,0.424 l 0,0.153 c 0,0.234 -0.191,0.423 -0.424,0.423"
     id="path36"
     inkscape:connector-curvature="0"
     style="fill:#3d2e24" />
  <path
     d="m 16.432,14.296 c -0.465,0 -0.846,-0.381 -0.846,-0.847 l 0,-0.845 c 0,-0.465 0.381,-0.846 0.846,-0.846 0.465,0 0.846,0.381 0.846,0.846 l 0,0.845 c 0,0.466 -0.381,0.847 -0.846,0.847 m -6.765,0 c -0.465,0 -0.846,-0.381 -0.846,-0.847 l 0,-0.845 c 0,-0.465 0.381,-0.846 0.846,-0.846 0.466,0 0.847,0.381 0.847,0.846 l 0,0.845 c 0,0.466 -0.381,0.847 -0.847,0.847"
     id="path38"
     inkscape:connector-curvature="0" />
  <path
     d="m 2.784,15.409 c -0.021,-1 -0.044,-0.224 -0.044,-0.465 0,-3.422 2.053,0.494 2.053,-1.943 0,-2.438 1.368,-2.683 2.736,-4.051 0.685,-0.685 2.053,-2.026 2.053,-2.026 0,0 3.421,2.067 6.158,2.067 2.736,0 5.474,1.375 5.474,4.112 0,2.736 2.053,-1.584 2.053,1.837 0,0.244 -0.022,-0.531 -0.04,0.469 l 0.719,0 c 0.006,-2 0.006,-1.924 0.006,-3.202 C 23.951,3.313 17.11,0 13.003,0 8.898,0 2.056,3.257 2.056,12.152 c 0,0.793 -0.02,1.257 0.008,3.257 l 0.72,0 z"
     id="path40"
     inkscape:connector-curvature="0"
     style="fill:#0b0200" />
  <path
     d="m 6.503,12.345 c 0,1.448 -0.734,2.622 -1.639,2.622 -0.905,0 -1.639,-1.174 -1.639,-2.622 0,-1.448 0.734,-2.623 1.639,-2.623 0.905,0 1.639,1.175 1.639,2.623 m 16.389,0 c 0,1.448 -0.733,2.622 -1.639,2.622 -0.905,0 -1.639,-1.174 -1.639,-2.622 0,-1.448 0.733,-2.623 1.639,-2.623 0.905,0 1.639,1.175 1.639,2.623"
     id="path42"
     inkscape:connector-curvature="0"
     style="fill:#7c533e" />
</svg>
