<?xml version="1.0" encoding="UTF-8" standalone="no"?>
<svg
   xmlns:dc="http://purl.org/dc/elements/1.1/"
   xmlns:cc="http://creativecommons.org/ns#"
   xmlns:rdf="http://www.w3.org/1999/02/22-rdf-syntax-ns#"
   xmlns:svg="http://www.w3.org/2000/svg"
   xmlns="http://www.w3.org/2000/svg"
   xmlns:sodipodi="http://sodipodi.sourceforge.net/DTD/sodipodi-0.dtd"
   xmlns:inkscape="http://www.inkscape.org/namespaces/inkscape"
   viewBox="0 0 36 36"
   id="svg2"
   version="1.1"
   inkscape:version="0.91 r13725"
   sodipodi:docname="1f937-1f3fe-200d-2640-fe0f.svg"
   width="36"
   height="36">
  <metadata
     id="metadata36">
    <rdf:RDF>
      <cc:Work
         rdf:about="">
        <dc:format>image/svg+xml</dc:format>
        <dc:type
           rdf:resource="http://purl.org/dc/dcmitype/StillImage" />
      </cc:Work>
    </rdf:RDF>
  </metadata>
  <defs
     id="defs34" />
  <sodipodi:namedview
     pagecolor="#ffffff"
     bordercolor="#666666"
     borderopacity="1"
     objecttolerance="10"
     gridtolerance="10"
     guidetolerance="10"
     inkscape:pageopacity="0"
     inkscape:pageshadow="2"
     inkscape:window-width="640"
     inkscape:window-height="480"
     id="namedview32"
     showgrid="false"
     inkscape:zoom="6.5555556"
     inkscape:cx="18"
     inkscape:cy="18"
     inkscape:window-x="0"
     inkscape:window-y="0"
     inkscape:window-maximized="0"
     inkscape:current-layer="svg2" />
  <path
     d="M 19,0 C 17.279,0 15.657,0.406 14.207,1.111 13.814,1.043 13.412,1 13,1 9.134,1 6,4.134 6,8 l 0,12 0.018,0 C 6.201,26.467 11.489,31.656 18,31.656 24.511,31.656 29.799,26.467 29.982,20 L 30,20 30,11 C 30,4.925 25.075,0 19,0 Z"
     id="path4"
     inkscape:connector-curvature="0"
     style="fill:#60352a" />
  <path
     d="M 27,21 9,21 c -2.209,0 -4,1.791 -4,4 l 0,11 26,0 0,-11 c 0,-2.209 -1.791,-4 -4,-4 z"
     id="path6"
     inkscape:connector-curvature="0"
     style="fill:#9268ca" />
  <path
     d="m 14,5 c 0,0 -0.003,5.308 -5,5.936 L 9,17 c 0,4.971 4.029,9 9,9 4.971,0 9,-4.029 9,-9 l 0,-5.019 C 15.89,11.605 14,5 14,5 Z"
     id="path8"
     inkscape:connector-curvature="0"
     style="fill:#af7e57" />
  <path
     d="m 10,27 1,0 0,9 -1,0 z"
     id="path10"
     inkscape:connector-curvature="0"
     style="fill:#7450a8" />
  <path
     d="m 4.702,26.495 -0.283,-0.059 -0.511,0 c 0,-0.058 0.023,-0.112 0.035,-0.169 C 3.595,26.052 3.397,25.642 3.485,25.219 3.597,24.677 4.128,24.329 4.671,24.44 l 2.091,0.433 1.676,0 c 0.863,0 1.562,0.7 1.562,1.564 L 10,28 6.253,28 c 0,0 -1.481,-0.669 -1.551,-1.505 z"
     id="path12"
     inkscape:connector-curvature="0"
     style="fill:#90603e" />
  <path
     d="m 0,25.655 c 0,-0.432 0.35,-0.782 0.781,-0.782 l 4.69,0.782 3.747,0 c 0.432,0 0.781,0.351 0.781,0.781 L 9.999,28 5,28 0.781,26.437 c 0,0 -0.781,-0.35 -0.781,-0.782 z"
     id="path14"
     inkscape:connector-curvature="0"
     style="fill:#af7e57" />
  <path
     d="m 4,36 6,0 0,-8 -5,0 z"
     id="path16"
     inkscape:connector-curvature="0"
     style="fill:#9268ca" />
  <path
     d="m 25,27 1,0 0,9 -1,0 z"
     id="path18"
     inkscape:connector-curvature="0"
     style="fill:#7450a8" />
  <path
     d="m 31.298,26.495 0.283,-0.059 0.511,0 c 0,-0.058 -0.023,-0.112 -0.035,-0.169 0.348,-0.215 0.546,-0.625 0.458,-1.048 -0.112,-0.542 -0.642,-0.89 -1.185,-0.779 l -2.091,0.433 -1.676,0 c -0.863,0 -1.562,0.7 -1.562,1.564 l 0,1.563 3.747,0 c -0.001,0 1.48,-0.669 1.55,-1.505 z"
     id="path20"
     inkscape:connector-curvature="0"
     style="fill:#90603e" />
  <path
     d="m 36,25.655 c 0,-0.432 -0.35,-0.782 -0.781,-0.782 l -4.691,0.782 -3.747,0 C 26.349,25.655 26,26.006 26,26.436 l 0,1.564 5,0 4.219,-1.563 c 0,0 0.781,-0.35 0.781,-0.782 z"
     id="path22"
     inkscape:connector-curvature="0"
     style="fill:#af7e57" />
  <path
     d="m 32,36 -6,0 0,-8 5,0 z"
     id="path24"
     inkscape:connector-curvature="0"
     style="fill:#9268ca" />
  <path
     d="m 19,19.5 -2,0 c -0.276,0 -0.5,-0.224 -0.5,-0.5 0,-0.276 0.224,-0.5 0.5,-0.5 l 2,0 c 0.276,0 0.5,0.224 0.5,0.5 0,0.276 -0.224,0.5 -0.5,0.5 z"
     id="path26"
     inkscape:connector-curvature="0"
     style="fill:#915a34" />
  <path
     d="M 20.5,23 20,23 c -0.276,0 -0.5,-0.224 -0.5,-0.5 0,-0.276 0.224,-0.5 0.5,-0.5 l 0.5,0 c 0.276,0 0.5,0.224 0.5,0.5 0,0.276 -0.224,0.5 -0.5,0.5 z"
     id="path28"
     inkscape:connector-curvature="0"
     style="fill:#df1f32" />
  <path
     d="m 14,16 c -0.552,0 -1,-0.448 -1,-1 l 0,-1 c 0,-0.552 0.448,-1 1,-1 0.552,0 1,0.448 1,1 l 0,1 c 0,0.552 -0.448,1 -1,1 z m 8,0 c -0.553,0 -1,-0.448 -1,-1 l 0,-1 c 0,-0.552 0.447,-1 1,-1 0.553,0 1,0.448 1,1 l 0,1 c 0,0.552 -0.447,1 -1,1 z"
     id="path30"
     inkscape:connector-curvature="0"
     style="fill:#60352a" />
</svg>
