<?xml version="1.0" encoding="UTF-8" standalone="no"?>
<svg
   xmlns:dc="http://purl.org/dc/elements/1.1/"
   xmlns:cc="http://creativecommons.org/ns#"
   xmlns:rdf="http://www.w3.org/1999/02/22-rdf-syntax-ns#"
   xmlns:svg="http://www.w3.org/2000/svg"
   xmlns="http://www.w3.org/2000/svg"
   xmlns:sodipodi="http://sodipodi.sourceforge.net/DTD/sodipodi-0.dtd"
   xmlns:inkscape="http://www.inkscape.org/namespaces/inkscape"
   viewBox="0 0 35.109001 33.99802"
   id="svg2"
   version="1.1"
   inkscape:version="0.91 r13725"
   sodipodi:docname="1f93c-200d-2640-fe0f.svg"
   width="35.109001"
   height="33.99802">
  <metadata
     id="metadata58">
    <rdf:RDF>
      <cc:Work
         rdf:about="">
        <dc:format>image/svg+xml</dc:format>
        <dc:type
           rdf:resource="http://purl.org/dc/dcmitype/StillImage" />
      </cc:Work>
    </rdf:RDF>
  </metadata>
  <defs
     id="defs56" />
  <sodipodi:namedview
     pagecolor="#ffffff"
     bordercolor="#666666"
     borderopacity="1"
     objecttolerance="10"
     gridtolerance="10"
     guidetolerance="10"
     inkscape:pageopacity="0"
     inkscape:pageshadow="2"
     inkscape:window-width="640"
     inkscape:window-height="480"
     id="namedview54"
     showgrid="false"
     inkscape:zoom="6.5555556"
     inkscape:cx="17.174"
     inkscape:cy="17.249357"
     inkscape:window-x="0"
     inkscape:window-y="0"
     inkscape:window-maximized="0"
     inkscape:current-layer="svg2" />
  <path
     d="m 31.598,26.560663 c 0,0 0.59,1.186 1.777,0.594 1.186,-0.591 0.293,2.075 0.293,2.075 0,0 -2.887,0.123 -4.931,0.019 -1.872,-0.095 -0.697,-0.915 0.488,-1.506 l 2.373,-1.182 z"
     id="path4"
     inkscape:connector-curvature="0"
     style="fill:#553788" />
  <path
     d="m 25.68,12.107663 c -0.655,1.039 -1.508,2.081 -2.078,2.228 -0.428,0.111 -1.28,0.317 -1.847,0.663 -0.567,0.345 -0.483,0.7 0.255,1.063 0.737,0.364 1.703,0.209 2.208,-0.352 0.505,-0.562 1.834,-1.453 2.656,-1.981 0.82,-0.527 -0.702,-2.401 -1.194,-1.621 z"
     id="path6"
     inkscape:connector-curvature="0"
     style="fill:#f9ca55" />
  <path
     d="m 25.433,12.611663 c 0.287,-0.48 0.958,-1.044 0.958,-1.044 l -0.387,-2.4730001 3.029,0.12 c 0,0 -0.421,2.5580001 -0.549,3.1370001 -0.127,0.579 -1.305,1.332 -2.087,1.666 -0.781,0.334 -1.285,-0.869 -0.964,-1.406 z m 5.241,9.949 c 0,0 -3.5,-1.299 -3.5,-0.375 0,0.923 3.25,2.563 4.438,4.563 0.479,0.808 2.23,1.372 1.875,-0.375 -0.687,-3.38 -2.813,-3.813 -2.813,-3.813 z"
     id="path8"
     inkscape:connector-curvature="0"
     style="fill:#f9ca55" />
  <path
     d="m 28.164,22.195663 c 0,0 1.303,1.517 2.135,1.115 0.832,-0.402 2.445,-3.768 2.875,-5 0.43,-1.232 -0.491,-3.736 -1.752,-2.104 -1.261,1.634 -3.258,5.989 -3.258,5.989 z"
     id="path10"
     inkscape:connector-curvature="0"
     style="fill:#f9ca55" />
  <path
     d="m 34.275,16.371663 -6.101,2.377 3.855,2.08 z"
     id="path12"
     inkscape:connector-curvature="0"
     style="fill:#553788" />
  <path
     d="m 27.173,18.748663 c 0,0 -2,3 -2,4 0,1 1,4 1,7 0,3 2,3 2,2 0,-1 1.581,-5.419 0,-7 -1,-1 2,-4 2,-4 l -3,-2 z"
     id="path14"
     inkscape:connector-curvature="0"
     style="fill:#ffdc5d" />
  <path
     d="m 29.173,14.748663 -2.624,5 3,1.938 c 0,0 5.56,-5.017 5.56,-7.017 0,-2.797 -2.497,-3.733 -2.497,-3.733 l -3.439,3.812 z"
     id="path16"
     inkscape:connector-curvature="0"
     style="fill:#9266cc" />
  <path
     d="m 26.169,3.8026629 1.014,2.162 -2.562,1.035 -1.057,-1.77 z"
     id="path18"
     inkscape:connector-curvature="0"
     style="fill:#ffdc5d" />
  <path
     d="m 26.648,3.6046629 c -0.178,1.588 -1.526,2.277 -2.88,2.804 -1.291,0.502 -2.363,-1.756 -2.536,-3.333 -0.175,-1.588 1.681,-2.79999997 3.124,-2.63799997 1.443,0.162 2.47,1.57899997 2.292,3.16699997 z m -4.974,8.5820001 c -1.312,0.875 -2.812,2.5 -3.625,2.625 -0.988,0.152 -1.688,-0.938 -2.59,0.366 -0.569,0.822 0.34,1.696 2.215,1.696 1.079,0 4.091,-1.626 5.25,-2.438 1.25,-0.875 1.528,-1.867 1.982,-3.061 0.051,-0.134 0.106,-0.069 0.197,0.085 l 4.571,-4.6490001 c -2.521,-1.908 -3.59,-0.753 -5.382,0.134 -1.267,0.628 -1.868,2.366 -2.618,5.2420001 z"
     id="path20"
     inkscape:connector-curvature="0"
     style="fill:#ffdc5d" />
  <path
     d="m 29.173,14.748663 c 3.209,-1.291 4.563,-3.062 4.563,-3.062 -1.562,-1.7500001 -2.467,-3.6690001 -4.062,-4.8760001 -0.354,-0.267 -0.676,-0.469 -0.978,-0.625 0.125,0.229 0.106,0.47 -0.334,0.625 -0.952,0.336 -2.056,-0.277 -3.219,-0.318 -0.205,0.112 -0.416,0.228 -0.637,0.343 0.978,0.12 1.86,0.977 1.903,2.21 0.047,1.3440001 -1.375,2.3280001 -1.375,2.3280001 0,0 0.26,0.536 0.849,1.042 0.588,0.505 1.994,0.849 3.29,2.333 z m -3.071,15.773 c 0,0 0.705,1.226 1.931,0.52 1.226,-0.705 0.445,2.191 0.445,2.191 0,0 -3.417,1.151 -5.348,0.63 -1.931,-0.521 -0.705,-1.226 0.521,-1.931 l 2.451,-1.41 z"
     id="path22"
     inkscape:connector-curvature="0"
     style="fill:#9266cc" />
  <path
     d="m 25.989,0.56066293 c -0.495,-0.339 -1.024,-0.538 -1.609,-0.559 -0.768,-0.028 -1.608,0.297 -2.677,1.01999997 -0.982,0.665 -0.869,1.927 -0.534,2.131 0.034,0.008 0.063,0.032 0.098,0.034 0.023,10e-4 0.042,-0.007 0.064,-0.007 0.485,-0.015 0.827,-0.447 1.373,-0.51 0.255,-0.029 0.551,0.015 0.937,0.237 0.059,0.034 0.109,0.096 0.154,0.167 0.224,0.35 0.295,1.038 0.295,1.038 0,0 0.027,-0.785 0.056,-1.06 0.028,-0.256 0.29,-0.547 0.626,-0.157 0.292,0.338 0.125,0.986 -0.085,1.05 -0.162,0.049 0.09,0.448 0.485,0.757 0.721,0.563 1.378,0.333 1.378,0.333 0,0 0.305,0.034 0.526,-1.022 0.221,-1.056 0.049,-2.675 -1.087,-3.45199997 z"
     id="path24"
     inkscape:connector-curvature="0"
     style="fill:#ffac33" />
  <path
     d="m 26.81,3.2486629 c 0,0 -0.656,-0.872 0.631,-1.65 1.061,-0.64199997 1.956,0.422 2.972,0.457 0.767,0.026 1.463,-0.307 1.784,-0.872 0,0 -0.264,1.132 -0.856,1.807 -0.77,0.878 -2.088,1.215 -2.808,1.193 -1.126,-0.034 -1.723,-0.935 -1.723,-0.935 z"
     id="path26"
     inkscape:connector-curvature="0"
     style="fill:#ffac33" />
  <path
     d="m 9.263,26.876663 c 0,0 -0.736,1.102 -1.838,0.365 -1.102,-0.736 -0.553,2.021 -0.553,2.021 0,0 2.849,0.486 4.889,0.642 1.869,0.142 0.807,-0.819 -0.294,-1.555 l -2.204,-1.473 z"
     id="path28"
     inkscape:connector-curvature="0"
     style="fill:#a0041e" />
  <path
     d="m 3.026,30.048663 c 0,0 -0.924,1.07 -1.994,0.146 -1.07,-0.924 -0.852,2.068 -0.852,2.068 0,0 3.137,1.776 5.132,1.631 1.995,-0.146 0.925,-1.07 -0.146,-1.995 l -2.14,-1.85 z M 6.924,6.5606629 c 2.732,-0.311 3.692,1.405 3.692,1.405 1.12,3.6580001 -1.341,4.0220001 -1.341,4.0220001 -0.471,0.688 -2.862,2.717 -3.152,3.841 -0.29,1.123 0.145,1.123 0.906,1.667 0.297,0.212 0.883,0.543 1.51,0.919 l -1.662,2.803 -1.297,-0.406 -3.532,0.93 c -0.29,-0.616 -2.048,-3.014 -2.048,-4.318 0,-1.304 0.652,-3.297 1.159,-4.022 0.507,-0.725 1.531,-3.5220001 1.775,-4.3120001 0.472,-1.522 2.069,-2.31 3.99,-2.529 z"
     id="path30"
     inkscape:connector-curvature="0"
     style="fill:#dd2e44" />
  <path
     d="m 5.393,20.310663 c 0,0 -2.293,0.614 -3.344,1.43 0.266,0.627 0.649,1.389 0.396,1.86 -0.254,0.471 -1.14,2.155 -1.285,3.133 -0.145,0.978 -0.127,3.46 -0.127,3.46 1.104,1.069 1.993,-0.145 1.993,-0.145 0.019,-1.505 1.213,-4.111 1.793,-4.836 0.358,-0.447 1.196,-1.703 1.232,-2.355 0.036,-0.652 -0.399,-1.92 -0.399,-1.92 l -0.259,-0.627 z"
     id="path32"
     inkscape:connector-curvature="0"
     style="fill:#ffdc5d" />
  <path
     d="m 10.841,20.227663 c -0.245,-0.534 -1.337,-1.236 -2.321,-1.825 -0.864,0.629 -1.653,2.407 -1.814,2.783 l 1.343,0.563 c 0,0 -0.326,0.697 -0.507,1.711 -0.181,1.014 -0.254,3.696 -0.254,3.696 1.136,0.921 1.886,-0.157 1.886,-0.157 -0.072,-0.833 1.065,-3.937 1.5,-4.625 0.435,-0.688 0.565,-1.276 0.167,-2.146 z"
     id="path34"
     inkscape:connector-curvature="0"
     style="fill:#f9ca55" />
  <path
     d="m 2.58,10.029663 c -0.156,1.156 1,1.469 2,1.062 1,-0.406 1.812,-1.0940001 2,-2.1560001 0.121,-0.688 -0.219,-2.281 -1.25,-2.062 -1.388,0.294 -2.507,1.358 -2.75,3.1560001 z"
     id="path36"
     inkscape:connector-curvature="0"
     style="fill:#ffdc5d" />
  <path
     d="m 8.752,6.7016629 c 0.969,0.125 1.922,0.484 2.234,1.422 0.312,0.938 0.732,3.7090001 0.844,3.9690001 0.094,0.219 0.281,0.469 0.625,0.312 0.344,-0.156 1.5,-0.375 2.094,-0.438 0.594,-0.062 0.594,-0.875 1.375,-1.156 0.781,-0.281 1.656,0.25 1.688,1.031 0.031,0.781 -0.188,1.125 -1.188,1.312 -1,0.187 -1.625,0.469 -1.938,0.625 -0.312,0.156 -3.125,1 -3.531,0.906 -0.406,-0.094 -1.68,-2.698 -1.68,-2.698 0,0 0.92,-0.537 1.039,-1.52 C 10.705,7.2486629 8.752,6.7016629 8.752,6.7016629 Z"
     id="path38"
     inkscape:connector-curvature="0"
     style="fill:#f9ca55" />
  <path
     d="m 2.705,9.8736629 c -0.036,0.8440001 0.344,4.0000001 0.375,4.5000001 0.031,0.5 3.969,2.25 4.344,2.406 0.375,0.156 1.094,1.094 1.656,1.125 0.563,0.031 2.156,-0.25 1.625,-1.125 -0.531,-0.875 -1.438,-1.406 -2.125,-1.344 -0.688,0.062 -2.531,-1.719 -2.938,-1.875 -0.406,-0.156 -0.562,-0.375 -0.406,-0.844 0.156,-0.469 0.75,-2.625 0.812,-3.3120001 0.064,-0.687 -3.28,-1 -3.343,0.469 z"
     id="path40"
     inkscape:connector-curvature="0"
     style="fill:#ffdc5d" />
  <path
     d="m 6.705,21.186663 c -0.094,0.031 -1.125,-0.375 -1.125,-0.375 l -0.844,-2.156 2.5,1.437 c 0,0 -0.156,0.266 -0.281,0.516 -0.125,0.25 -0.25,0.578 -0.25,0.578 z"
     id="path42"
     inkscape:connector-curvature="0"
     style="fill:#a0041e" />
  <path
     d="m 8.205,6.4676629 c 0.281,0.031 0.793,1.064 0.844,1.5 0.094,0.813 -0.906,1.156 -1.469,0.188 -0.563,-0.968 -0.812,-1.407 -1.281,-1.501 0,0 0.5,-0.125 0.969,-0.156 0.469,-0.031 0.937,-0.031 0.937,-0.031 z"
     id="path44"
     inkscape:connector-curvature="0"
     style="fill:#ffdc5d" />
  <path
     d="m 7.757,4.9566629 -0.875,1.667 1.761,1.344 1,-1.875 z"
     id="path46"
     inkscape:connector-curvature="0"
     style="fill:#ffdc5d" />
  <path
     d="m 10.102,1.8236629 c -1.269,-0.154 -2.442,0.899 -2.617,2.35 -0.175,1.451 0.712,2.752 1.982,2.906 1.27,0.154 2.442,-0.899 2.617,-2.35 0.175,-1.451 -0.712,-2.752 -1.982,-2.906 z"
     id="path48"
     inkscape:connector-curvature="0"
     style="fill:#ffdc5d" />
  <path
     d="m 6.371,1.4206629 c -1.037,-0.214 -1.453,0.898 -2.261,1.216 -0.609,0.24 -1.265,0.171 -1.684,-0.192 0,0 0.535,0.835 1.204,1.21 0.87,0.487 2.027,0.382 2.6,0.159 0.896,-0.35 1.12,-1.245 1.12,-1.245 0,0 0.279,-0.889 -0.979,-1.148 z"
     id="path50"
     inkscape:connector-curvature="0"
     style="fill:#ffac33" />
  <path
     d="M 11.648,1.2886629 C 11.088,0.78866293 9.562,0.44966293 8.449,0.87666293 7.192,1.3586629 6.757,2.4706629 6.811,3.6766629 c 0.032,0.715 0.426,1.744 0.678,1.821 0.387,0.118 0.733,-0.531 0.571,-0.569 -0.3,-0.071 -0.369,-1.026 -0.084,-1.244 0.3,-0.229 0.525,0.064 0.559,0.334 0.034,0.27 0.121,1.037 0.121,1.037 0,0 0.068,-0.948 0.367,-1.212 0.298,-0.264 1.538,-0.047 2.218,-1.264 0,0 0.393,0.207 0.662,0.739 0.221,0.44 0.181,1.411 0.181,1.411 0,0 0.319,-0.564 0.561,-1.117 0.276,-0.633 -0.279,-1.682 -0.997,-2.324 z"
     id="path52"
     inkscape:connector-curvature="0"
     style="fill:#ffac33" />
</svg>
