<?xml version="1.0" encoding="UTF-8" standalone="no"?>
<svg
   xmlns:dc="http://purl.org/dc/elements/1.1/"
   xmlns:cc="http://creativecommons.org/ns#"
   xmlns:rdf="http://www.w3.org/1999/02/22-rdf-syntax-ns#"
   xmlns:svg="http://www.w3.org/2000/svg"
   xmlns="http://www.w3.org/2000/svg"
   xmlns:sodipodi="http://sodipodi.sourceforge.net/DTD/sodipodi-0.dtd"
   xmlns:inkscape="http://www.inkscape.org/namespaces/inkscape"
   viewBox="0 0 35.931953 36"
   id="svg2"
   version="1.1"
   inkscape:version="0.91 r13725"
   sodipodi:docname="1f93f.svg"
   width="35.931953"
   height="36">
  <metadata
     id="metadata28">
    <rdf:RDF>
      <cc:Work
         rdf:about="">
        <dc:format>image/svg+xml</dc:format>
        <dc:type
           rdf:resource="http://purl.org/dc/dcmitype/StillImage" />
      </cc:Work>
    </rdf:RDF>
  </metadata>
  <defs
     id="defs26" />
  <sodipodi:namedview
     pagecolor="#ffffff"
     bordercolor="#666666"
     borderopacity="1"
     objecttolerance="10"
     gridtolerance="10"
     guidetolerance="10"
     inkscape:pageopacity="0"
     inkscape:pageshadow="2"
     inkscape:window-width="640"
     inkscape:window-height="480"
     id="namedview24"
     showgrid="false"
     inkscape:zoom="6.5555556"
     inkscape:cx="17.931954"
     inkscape:cy="18"
     inkscape:window-x="0"
     inkscape:window-y="0"
     inkscape:window-maximized="0"
     inkscape:current-layer="svg2" />
  <path
     d="m 20.931954,25 c -2.556,0 -4.062,-3.128 -5.161,-4.676 -0.412,-0.58 -1.266,-0.58 -1.677,0 -1.1,1.548 -2.605,4.676 -5.1620003,4.676 -4.551,0 -7.923,-3.033 -8.78400004,-7.619 C -0.87204634,11.955 3.5209537,7 9.0419537,7 L 20.821954,7 c 5.521,0 9.914,4.955 8.894,10.381 -0.861,4.586 -4.233,7.619 -8.784,7.619 z"
     id="path4"
     inkscape:connector-curvature="0"
     style="fill:#66757f" />
  <path
     d="m 17.931954,22 -3,-3 -3,3 -2.0000003,2 c 2.0000003,0 3.0000003,3 5.0000003,3 2,0 3,-3 5,-3 l -2,-2 z"
     id="path6"
     inkscape:connector-curvature="0"
     style="fill:#292f33" />
  <path
     d="m 20.931954,25 c -2.556,0 -4.062,-3.128 -5.161,-4.676 -0.412,-0.58 -1.266,-0.58 -1.677,0 -1.1,1.548 -2.605,4.676 -5.1620003,4.676 -4.551,0 -7.923,-3.033 -8.78400004,-7.619 C -0.87204634,11.955 3.5209537,7 9.0419537,7 L 20.821954,7 c 5.521,0 9.914,4.955 8.894,10.381 -0.861,4.586 -4.233,7.619 -8.784,7.619 z"
     id="path8"
     inkscape:connector-curvature="0"
     style="fill:#4e9322" />
  <path
     d="m 20.931954,23 c -1.041,0 -2.113,-1.664 -2.896,-2.88 -0.226,-0.35 -0.437,-0.676 -0.635,-0.954 -0.568,-0.8 -1.491,-1.277 -2.469,-1.277 -0.979,0 -1.901,0.477 -2.469,1.275 -0.199,0.281 -0.41,0.606 -0.635,0.957 -0.783,1.215 -1.8540003,2.879 -2.8960003,2.879 -3.512,0 -6.125,-2.295 -6.819,-5.988 -0.365,-1.941 0.147,-3.87 1.442,-5.431 1.361,-1.64 3.361,-2.581 5.487,-2.581 L 20.821954,9 c 2.126,0 4.126,0.941 5.486,2.581 1.295,1.561 1.808,3.49 1.442,5.431 -0.693,3.694 -3.306,5.988 -6.818,5.988 z"
     id="path10"
     inkscape:connector-curvature="0"
     style="fill:#88c9f9" />
  <path
     d="m 26.692954,11.262 c -1.456,-1.755 -3.596,-2.762 -5.871,-2.762 l -11.7800003,0 c -2.275,0 -4.415,1.007 -5.871,2.762 -1.392,1.678 -1.942,3.752 -1.549,5.842 0.741,3.945 3.542,6.396 7.31,6.396 1.3140003,0 2.4240003,-1.723 3.3160003,-3.108 0.221,-0.344 0.428,-0.663 0.622,-0.938 0.475,-0.667 1.245,-1.065 2.062,-1.065 0.817,0 1.587,0.398 2.062,1.067 0.194,0.272 0.401,0.593 0.622,0.935 0.892,1.385 2.002,3.109 3.316,3.109 3.769,0 6.569,-2.45 7.31,-6.396 0.393,-2.089 -0.158,-4.164 -1.549,-5.842 z m 0.566,5.658 c -0.646,3.442 -3.07,5.58 -6.327,5.58 -0.769,0 -1.837,-1.659 -2.476,-2.651 -0.23,-0.356 -0.445,-0.688 -0.647,-0.972 -0.662,-0.931 -1.737,-1.487 -2.877,-1.487 -1.14,0 -2.215,0.555 -2.877,1.486 -0.203,0.287 -0.417,0.618 -0.648,0.976 -0.639,0.99 -1.7060003,2.648 -2.4750003,2.648 -3.256,0 -5.681,-2.139 -6.328,-5.581 -0.336,-1.792 0.138,-3.574 1.336,-5.019 1.266,-1.525 3.125,-2.4 5.102,-2.4 l 11.7800003,0 c 1.977,0 3.836,0.875 5.102,2.4 1.197,1.445 1.672,3.228 1.335,5.02 z"
     id="path12"
     inkscape:connector-curvature="0"
     style="fill:#292f33" />
  <path
     d="m 12.426954,9.505 -8.9770003,8.977 c 0.436,1.29 1.091,2.313 1.996,3.004 L 17.426954,9.505 l -5,0 z"
     id="path14"
     inkscape:connector-curvature="0"
     style="fill:#bbddf5" />
  <path
     d="m 14.931954,15 c -1.837,0 -3.674,4.215 -5.5110003,7.227 0.8270003,-0.557 1.7320003,-1.831 2.2860003,-2.692 0.209,-0.325 0.405,-0.627 0.589,-0.888 0.527,-0.741 1.515,-1.277 2.635,-1.277 1.315,0 2.352,0.719 2.879,1.461 0.184,0.258 0.38,0.561 0.589,0.885 0.561,0.871 1.127,2.044 2.058,2.537 -1.84,-3.013 -3.683,-7.253 -5.525,-7.253 z"
     id="path16"
     inkscape:connector-curvature="0"
     style="fill:#3c96ce" />
  <path
     d="m 25.931954,36 c -3.557,0 -6.874,-1.914 -8.659,-4.995 -0.553,-0.956 -0.227,-2.179 0.729,-2.732 0.958,-0.554 2.18,-0.228 2.733,0.729 1.071,1.849 3.062,2.998 5.197,2.998 3.309,0 6,-2.691 6,-6 l 0,-24 c 0,-1.104 0.896,-2 2,-2 1.104,0 2,0.896 2,2 l 0,24 c 0,5.514 -4.486,10 -10,10 z"
     id="path18"
     inkscape:connector-curvature="0"
     style="fill:#f4900c" />
  <path
     d="m 21.517954,30.146 -3.732,1.44 c -1.026,0.396 -2.19,-0.12 -2.586,-1.146 -0.396,-1.026 0.12,-2.19 1.146,-2.586 l 3.732,-1.44 c 1.026,-0.396 2.19,0.12 2.586,1.146 0.396,1.027 -0.12,2.19 -1.146,2.586 z"
     id="path20"
     inkscape:connector-curvature="0"
     style="fill:#292f33" />
  <path
     d="m 31.931954,5 4,0 0,4 -4,0 z m 0,7 4,0 0,4 -4,0 z"
     id="path22"
     inkscape:connector-curvature="0"
     style="fill:#ffcc4d" />
</svg>
