<?xml version="1.0" encoding="UTF-8" standalone="no"?>
<svg
   xmlns:dc="http://purl.org/dc/elements/1.1/"
   xmlns:cc="http://creativecommons.org/ns#"
   xmlns:rdf="http://www.w3.org/1999/02/22-rdf-syntax-ns#"
   xmlns:svg="http://www.w3.org/2000/svg"
   xmlns="http://www.w3.org/2000/svg"
   xmlns:sodipodi="http://sodipodi.sourceforge.net/DTD/sodipodi-0.dtd"
   xmlns:inkscape="http://www.inkscape.org/namespaces/inkscape"
   viewBox="0 0 35.232136 28.236198"
   id="svg2"
   version="1.1"
   inkscape:version="0.91 r13725"
   sodipodi:docname="1f932.svg"
   width="35.232136"
   height="28.236198">
  <metadata
     id="metadata18">
    <rdf:RDF>
      <cc:Work
         rdf:about="">
        <dc:format>image/svg+xml</dc:format>
        <dc:type
           rdf:resource="http://purl.org/dc/dcmitype/StillImage" />
      </cc:Work>
    </rdf:RDF>
  </metadata>
  <defs
     id="defs16" />
  <sodipodi:namedview
     pagecolor="#ffffff"
     bordercolor="#666666"
     borderopacity="1"
     objecttolerance="10"
     gridtolerance="10"
     guidetolerance="10"
     inkscape:pageopacity="0"
     inkscape:pageshadow="2"
     inkscape:window-width="640"
     inkscape:window-height="480"
     id="namedview14"
     showgrid="false"
     inkscape:zoom="6.5555556"
     inkscape:cx="17.616068"
     inkscape:cy="14.343701"
     inkscape:window-x="0"
     inkscape:window-y="0"
     inkscape:window-maximized="0"
     inkscape:current-layer="svg2" />
  <path
     d="m 6.8940677,25.886496 c 0.059,0.982 1.052,1.262 2.065,1.201 1.016,-0.059 3.7260003,0.768 4.6790003,0.77 1.687,0.003 2.268,-0.829 2.332,-2.319 0.146,-3.375 1.646,-3.458 1.646,-7.375 l 0,-13.2709996 c 0,-1.766 -1.98,-2.61 -2.312,-1.094 -0.642,2.925 -0.598,5.097 -0.65,6.3719996 l -0.516,-0.129 c 0,0 0.47,-5.0779996 0.983,-7.4709996 0.371,-1.74099996 -2.718,-2.38099996 -3.092,-0.641 -0.498,2.308 -0.611,6.273 -0.646,7.801 l -0.639,-0.057 c 0,0 0.221,-3.768 0.981,-8.045 0.284,-1.60899996 -2.8020003,-2.37999996 -3.1890003,-0.63399996 -0.502,2.25699996 -0.87,6.69999996 -0.855,9.05499956 l -0.629,0.133 c 0,0 0.19,-4.3529996 0.921,-7.4359996 0.319,-1.346 -2.188,-2.17399996 -2.744,-0.184 -1.6,5.688 -1.006,10.6879996 -1.017,11.1299996 -0.049,1.85 -0.477,3.986 -1.225,3.442 -1.131,-0.824 -2.76300001,0.239 -1.364,2.319 1.577,2.344 4.98,2.093 5.099,4.087 0.05,0.858 0.172,2.346 0.172,2.346"
     id="path4"
     inkscape:connector-curvature="0"
     style="fill:#ef9645" />
  <path
     d="m 4.9520677,26.925496 c 0.058,0.982 0.946,1.363 1.96,1.305 1.013,-0.064 5.6100003,-0.295 6.5600003,-0.354 0.951,-0.055 1.92,-0.879 1.858,-1.892 -0.06,-1.016 -0.196,-2.463 0.643,-3.931 0.458,-0.798 1.3,-3.784 1.08,-9.472 -0.146,-3.7709996 0.033,-6.7219996 0.138,-8.2709996 0.091,-1.354 -2.143,-1.898 -2.45,-0.125 -0.509,2.942 -0.644,4.667 -0.781,6.0589996 l -0.518,-0.128 c 0,0 0.474,-5.3199996 0.935,-7.7239996 0.315,-1.63399996 -2.287,-2.07599996 -2.66,-0.335 -0.498,2.31 -0.995,6.219 -1.03,7.747 l -0.641,-0.054 c 0,0 0.232,-4.085 0.994,-8.365 0.253,-1.42799996 -2.4210003,-1.89399996 -2.8090003,-0.148 -0.5,2.255 -1.263,6.533 -1.247,8.8859996 l -0.626,0.133 c 0,0 -0.033,-3.6899996 0.92,-7.4359996 0.34,-1.34 -2.188,-2.17399996 -2.748,-0.184 -0.558,1.985 -0.809,5.002 -0.919,6.783 -1.364,-1.214 -2.79300001,-0.405 -2.74600001,0.036 0.40300001,3.8119996 -2.42999999,6.7289996 0.42600001,11.0759996 1.554,2.364 2.535,2.307 3.529,4.044 0.522,0.913 0.132,2.35 0.132,2.35"
     id="path6"
     inkscape:connector-curvature="0"
     style="fill:#ffdc5d" />
  <path
     d="m 3.9330677,15.599496 c 0.718,0.2 1.46,0.475 2.099,0.931 1.117,0.795 1.797,1.679 1.962,1.969 0.175,0.298 0.787,0.164 0.525,-0.345 -0.256,-0.494 -1.099,-1.432 -2.093,-2.11 -0.694,-0.475 -1.696,-0.875 -2.597,-1.114 -0.162,-0.043 1.01,-4.132 -0.22,-5.5109996 0.469,0.8479996 -0.344,4.5479996 -0.344,5.1609996 0,0.613 0.286,0.912 0.668,1.019 z m 24.4050003,10.287 c -0.059,0.982 -1.052,1.262 -2.065,1.201 -1.016,-0.059 -3.726,0.768 -4.679,0.77 -1.687,0.003 -2.268,-0.829 -2.332,-2.319 -0.146,-3.375 -1.646,-3.458 -1.646,-7.375 l 0,-13.2709996 c 0,-1.766 1.98,-2.61 2.312,-1.094 0.642,2.925 0.597,5.097 0.65,6.3719996 l 0.516,-0.129 c 0,0 -0.47,-5.0779996 -0.983,-7.4709996 -0.371,-1.74099996 2.718,-2.38099996 3.092,-0.641 0.498,2.308 0.611,6.273 0.646,7.801 l 0.639,-0.057 c 0,0 -0.221,-3.768 -0.981,-8.045 -0.284,-1.60899996 2.802,-2.37999996 3.189,-0.63399996 0.502,2.25699996 0.87,6.69999996 0.855,9.05499956 l 0.629,0.133 c 0,0 -0.035,-3.6229996 -0.986,-7.3689996 -0.341,-1.341 2.254,-2.24099996 2.81,-0.251 1.6,5.688 1.006,10.6879996 1.017,11.1299996 0.049,1.85 0.477,3.986 1.225,3.442 1.131,-0.824 2.763,0.239 1.364,2.319 -1.577,2.344 -4.98,2.093 -5.099,4.087 -0.051,0.858 -0.173,2.346 -0.173,2.346"
     id="path8"
     inkscape:connector-curvature="0"
     style="fill:#ef9645" />
  <path
     d="m 30.280068,26.925496 c -0.058,0.982 -0.946,1.363 -1.96,1.305 -1.013,-0.064 -5.61,-0.295 -6.56,-0.354 -0.951,-0.055 -1.92,-0.879 -1.858,-1.892 0.06,-1.016 0.196,-2.463 -0.643,-3.931 -0.458,-0.798 -1.3,-3.784 -1.08,-9.472 0.146,-3.7709996 -0.033,-6.7219996 -0.138,-8.2709996 -0.091,-1.354 2.143,-1.898 2.45,-0.125 0.509,2.942 0.644,4.667 0.781,6.0589996 l 0.518,-0.128 c 0,0 -0.474,-5.3199996 -0.935,-7.7239996 -0.315,-1.63399996 2.287,-2.07599996 2.66,-0.335 0.498,2.31 0.995,6.219 1.03,7.747 l 0.641,-0.054 c 0,0 -0.232,-4.085 -0.994,-8.365 -0.253,-1.42799996 2.421,-1.89399996 2.809,-0.148 0.499,2.256 1.262,6.534 1.247,8.8879996 l 0.626,0.133 c 0,0 0.033,-3.6899996 -0.92,-7.4359996 -0.34,-1.34 2.188,-2.17399996 2.748,-0.184 0.558,1.985 0.809,5.002 0.919,6.783 1.364,-1.214 2.793,-0.405 2.746,0.036 -0.403,3.8119996 2.43,6.7289996 -0.426,11.0759996 -1.554,2.364 -2.535,2.307 -3.529,4.044 -0.522,0.911 -0.132,2.348 -0.132,2.348"
     id="path10"
     inkscape:connector-curvature="0"
     style="fill:#ffdc5d" />
  <path
     d="m 31.299068,15.599496 c -0.718,0.2 -1.46,0.475 -2.099,0.931 -1.117,0.795 -1.797,1.679 -1.962,1.969 -0.175,0.298 -0.787,0.164 -0.525,-0.345 0.256,-0.494 1.099,-1.432 2.093,-2.11 0.694,-0.475 1.696,-0.875 2.597,-1.114 0.162,-0.043 -1.01,-4.132 0.22,-5.5109996 -0.469,0.8479996 0.344,4.5479996 0.344,5.1609996 0,0.613 -0.286,0.912 -0.668,1.019 z"
     id="path12"
     inkscape:connector-curvature="0"
     style="fill:#ef9645" />
</svg>
