<?xml version="1.0" encoding="UTF-8" standalone="no"?>
<svg
   xmlns:dc="http://purl.org/dc/elements/1.1/"
   xmlns:cc="http://creativecommons.org/ns#"
   xmlns:rdf="http://www.w3.org/1999/02/22-rdf-syntax-ns#"
   xmlns:svg="http://www.w3.org/2000/svg"
   xmlns="http://www.w3.org/2000/svg"
   xmlns:sodipodi="http://sodipodi.sourceforge.net/DTD/sodipodi-0.dtd"
   xmlns:inkscape="http://www.inkscape.org/namespaces/inkscape"
   viewBox="0 0 21.515112 35.849953"
   id="svg2"
   version="1.1"
   inkscape:version="0.91 r13725"
   sodipodi:docname="1f930-1f3fe.svg"
   width="21.515112"
   height="35.849953">
  <metadata
     id="metadata44">
    <rdf:RDF>
      <cc:Work
         rdf:about="">
        <dc:format>image/svg+xml</dc:format>
        <dc:type
           rdf:resource="http://purl.org/dc/dcmitype/StillImage" />
      </cc:Work>
    </rdf:RDF>
  </metadata>
  <defs
     id="defs42" />
  <sodipodi:namedview
     pagecolor="#ffffff"
     bordercolor="#666666"
     borderopacity="1"
     objecttolerance="10"
     gridtolerance="10"
     guidetolerance="10"
     inkscape:pageopacity="0"
     inkscape:pageshadow="2"
     inkscape:window-width="640"
     inkscape:window-height="480"
     id="namedview40"
     showgrid="false"
     inkscape:zoom="6.5555556"
     inkscape:cx="8.77"
     inkscape:cy="18"
     inkscape:window-x="0"
     inkscape:window-y="0"
     inkscape:window-maximized="0"
     inkscape:current-layer="svg2" />
  <path
     d="m 12.893,13.627954 -4.444,0 c -1.793,0 -3.333,1.541 -3.333,3.333 l 0,18.889 10.654,0 0,-8.956 0.457,-1.752 0,-8.181 c 0,-1.793 -1.541,-3.333 -3.334,-3.333 z"
     id="path4"
     inkscape:connector-curvature="0"
     style="fill:#9268ca" />
  <path
     d="m 8.77,16.349954 c -2.485,0 -4.5,2.015 -4.5,4.5 0,2.485 2.015,4.5 4.5,4.5 l 0,-9 z"
     id="path6"
     inkscape:connector-curvature="0"
     style="fill:#7450a8" />
  <path
     d="m 8.77,17.349954 c -1.933,0 -3.5,1.567 -3.5,3.5 0,1.933 1.567,3.5 3.5,3.5 l 0,-7 z"
     id="path8"
     inkscape:connector-curvature="0"
     style="fill:#9268ca" />
  <path
     d="m 10.77,16.349954 c -2.485,0 -4.5,2.015 -4.5,4.5 0,2.485 2.015,4.5 4.5,4.5 l 0,-9 z"
     id="path10"
     inkscape:connector-curvature="0"
     style="fill:#7450a8" />
  <path
     d="m 10.77,17.349954 c -1.933,0 -3.5,1.567 -3.5,3.5 0,1.933 1.567,3.5 3.5,3.5 l 0,-7 z"
     id="path12"
     inkscape:connector-curvature="0"
     style="fill:#9268ca" />
  <path
     d="m 2.584,35.849954 7.154,0 0,-14.25 c -0.453,-0.076 -0.916,-0.125 -1.391,-0.125 -4.61,0 -8.347,3.737 -8.347,8.347 0,2.372 0.994,4.508 2.584,6.028 z"
     id="path14"
     inkscape:connector-curvature="0"
     style="fill:#7450a8" />
  <path
     d="m 9.56,18.020954 0,4.491 c -0.396,-0.066 -0.799,-0.109 -1.213,-0.109 -4.098,0 -7.419,3.321 -7.419,7.419 0,2.486 1.228,4.682 3.105,6.028 l 10.696,0 0,-20.667 -5.169,2.838 z"
     id="path16"
     inkscape:connector-curvature="0"
     style="fill:#9268ca" />
  <path
     d="m 15.208,15.849954 4.85,5.114 -4.288,4.511 -0.002,3.046 -3.94,2.674 -2.641,-4.139 5.645,-5.81 -1.939,-1.923 z"
     id="path18"
     inkscape:connector-curvature="0"
     style="fill:#7450a8" />
  <path
     d="m 15.208,14.599954 5.464,5.694 c 0,0 1.897,1.528 0,3.333 -1.139,1.083 -8.276,5.89 -8.276,5.89 l -2.222,-2.222 6.054,-5.89 -3.334,-3.333 2.314,-3.472 z"
     id="path20"
     inkscape:connector-curvature="0"
     style="fill:#9268ca" />
  <path
     d="m 11.101,27.381954 c -1.124,-0.535 -2.19,-0.461 -3.221,0.142 -0.493,0.289 -0.694,0.829 0.061,1.008 0.758,0.177 3.16,-1.15 3.16,-1.15 z"
     id="path22"
     inkscape:connector-curvature="0"
     style="fill:#9b6a49" />
  <path
     d="m 12.615,29.298954 c 0.139,1.765 -2.226,3.414 -4.02,3.199 -1.282,-0.154 -2.398,-3.608 -0.877,-4.053 1.356,-0.396 1.731,-1.628 3.34,-1.168 1.278,0.366 1.506,1.344 1.557,2.022 z"
     id="path24"
     inkscape:connector-curvature="0"
     style="fill:#af7e57" />
  <path
     d="m 11.429,29.981954 -0.212,-0.441 c 0,0 -0.771,1.147 -1.843,1.59 -0.813,0.332 -1.498,0.365 -1.857,0.306 0.154,0.293 0.157,0.343 0.359,0.53 1.117,0.039 2.902,-0.56 3.553,-1.985 z m -2.217,-0.039 c 0.99,-0.678 1.279,-1.326 1.279,-1.326 l -0.323,-0.409 c 0,0 -1.145,1.776 -3.177,1.685 0.015,0.248 -0.005,0.296 0.068,0.55 0.273,0.009 1.349,0.05 2.153,-0.5 z"
     id="path26"
     inkscape:connector-curvature="0"
     style="fill:#90603e" />
  <path
     d="m 6.343,4.658954 c 0.576,1.385 -0.072,2.969 -1.446,3.54 -1.375,0.571 -2.956,-0.086 -3.531,-1.472 -0.575,-1.384 0.072,-2.969 1.448,-3.54 1.375,-0.571 2.956,0.087 3.529,1.472 z"
     id="path28"
     inkscape:connector-curvature="0"
     style="fill:#60352a" />
  <path
     d="m 11.753,11.648954 c 1.203,-1.435 1.921,-3.269 1.304,-4.751 l -1.02,-2.457 c -5.514,2.076 -7.783,-0.773 -7.783,-0.773 0,0 1.08,2.598 -1.238,3.921 l 1.233,2.968 c 1.008,2.424 2.382,4.16 4.803,3.165 l 0.082,0.326 c 0.206,0.817 0.055,1.478 1.258,1.524 0.841,0.032 1.977,-1.47 1.771,-2.287 l -0.41,-1.636 z"
     id="path30"
     inkscape:connector-curvature="0"
     style="fill:#af7e57" />
  <path
     d="m 18.18,5.261954 c 0.824,-2.202 -1.159,-3.876 -2.847,-4.048 -1.024,-0.104 -1.948,0.549 -2.398,1.331 C 10.884,-0.88904597 7.816,-0.08004597 5.864,0.60695403 3.796,1.334954 0.72,3.475954 1.927,5.776954 c 1.207,2.302 5.238,1.312 5.238,1.312 l 1.459,2.352 c -0.394,-2.024 0.95,-2.476 1.571,-2.035 0.654,0.465 0.22,1.956 0.518,2.544 0.298,0.588 1.33,1.394 1.33,1.394 0.634,-0.806 2.635,-3.578 1.7,-6.935 0.387,-0.145 0.968,-0.047 1.437,0.198 1.192,0.619 0.253,3.703 1.911,4.678 1.589,0.935 2.521,-0.351 2.521,-0.351 -1.628,0.054 -2.219,-1.567 -1.432,-3.672 z"
     id="path32"
     inkscape:connector-curvature="0"
     style="fill:#60352a" />
  <path
     d="m 5.112,11.631954 -0.308,0.128 c -0.135,0.056 -0.29,-0.006 -0.347,-0.143 -0.055,-0.135 0.008,-0.29 0.143,-0.346 l 0.309,-0.128 c 0.136,-0.057 0.291,0.008 0.347,0.143 0.056,0.135 -0.009,0.289 -0.144,0.346 z"
     id="path34"
     inkscape:connector-curvature="0"
     style="fill:#915a34" />
  <path
     d="m 5.263,9.560954 c -0.27,0.112 -0.58,-0.017 -0.692,-0.286 l -0.205,-0.491 c -0.112,-0.269 0.017,-0.581 0.287,-0.692 0.271,-0.113 0.582,0.017 0.693,0.285 l 0.204,0.49 c 0.113,0.271 -0.015,0.582 -0.287,0.694 z"
     id="path36"
     inkscape:connector-curvature="0"
     style="fill:#60352a" />
  <path
     d="m 5.531,12.832954 c 0.243,0.295 0.509,0.541 0.796,0.733 1.055,-0.609 1.129,-1.533 1.129,-1.533 l -1.875,0.779 -0.05,0.021 z"
     id="path38"
     inkscape:connector-curvature="0"
     style="fill:#df1f32" />
</svg>
