<?xml version="1.0" encoding="UTF-8" standalone="no"?>
<svg
   xmlns:dc="http://purl.org/dc/elements/1.1/"
   xmlns:cc="http://creativecommons.org/ns#"
   xmlns:rdf="http://www.w3.org/1999/02/22-rdf-syntax-ns#"
   xmlns:svg="http://www.w3.org/2000/svg"
   xmlns="http://www.w3.org/2000/svg"
   xmlns:sodipodi="http://sodipodi.sourceforge.net/DTD/sodipodi-0.dtd"
   xmlns:inkscape="http://www.inkscape.org/namespaces/inkscape"
   viewBox="0 0 30.072449 34.344086"
   id="svg2"
   version="1.1"
   inkscape:version="0.91 r13725"
   sodipodi:docname="1f93e-1f3fb-200d-2640-fe0f.svg"
   width="30.072449"
   height="34.344086">
  <metadata
     id="metadata40">
    <rdf:RDF>
      <cc:Work
         rdf:about="">
        <dc:format>image/svg+xml</dc:format>
        <dc:type
           rdf:resource="http://purl.org/dc/dcmitype/StillImage" />
      </cc:Work>
    </rdf:RDF>
  </metadata>
  <defs
     id="defs38" />
  <sodipodi:namedview
     pagecolor="#ffffff"
     bordercolor="#666666"
     borderopacity="1"
     objecttolerance="10"
     gridtolerance="10"
     guidetolerance="10"
     inkscape:pageopacity="0"
     inkscape:pageshadow="2"
     inkscape:window-width="640"
     inkscape:window-height="480"
     id="namedview36"
     showgrid="false"
     inkscape:zoom="6.5555556"
     inkscape:cx="13.032915"
     inkscape:cy="17.010956"
     inkscape:window-x="0"
     inkscape:window-y="0"
     inkscape:window-maximized="0"
     inkscape:current-layer="svg2" />
  <path
     d="m 2.3829153,30.623128 c -0.257,0.905 -0.272,1.425 -0.428,2.365 -0.115,0.69 -0.588,1.466 -1.15799997,1.343 -0.452,-0.097 -0.795,-0.538 -0.68,-1.52 0.061,-0.525 0.205,-0.877 0.393,-1.416 0.108,-0.311 0.264,-0.74 0.353,-1.153 0.097,-0.45 0.43799997,-0.928 1.01799997,-0.802 0.43,0.091 0.673,0.58 0.502,1.183 z"
     id="path4"
     inkscape:connector-curvature="0"
     style="fill:#dd2e44" />
  <path
     d="m 1.0919153,30.417128 c 0.024,-0.017 0.237,-0.141 0.55,-0.054 0.313,0.087 0.425,0.267 0.44,0.293 0.014,0.027 -0.289,0.776 -0.332,0.985 -0.044,0.223 -0.205,0.849 -0.212,0.876 -0.013,0.054 -0.069,0.086 -0.125,0.072 l -0.59699997,-0.144 c -0.056,-0.014 -0.09,-0.068 -0.077,-0.122 l 0.205,-0.845 c 0.057,-0.235 0.12299997,-1.044 0.14799997,-1.061 z"
     id="path6"
     inkscape:connector-curvature="0"
     style="fill:#a0041e" />
  <path
     d="m 1.6479153,32.473128 c -0.016,0 -0.031,-0.002 -0.047,-0.006 l -0.90999997,-0.22 c -0.107,-0.026 -0.174,-0.134 -0.147,-0.241 0.026,-0.107 0.134,-0.173 0.241,-0.147 l 0.90999997,0.22 c 0.107,0.026 0.174,0.134 0.147,0.241 -0.022,0.091 -0.103,0.153 -0.194,0.153 z m 0.175,-0.72 c -0.016,0 -0.031,-0.002 -0.047,-0.006 l -0.90999997,-0.22 c -0.107,-0.026 -0.174,-0.134 -0.147,-0.241 0.025,-0.107 0.135,-0.174 0.241,-0.147 l 0.90999997,0.22 c 0.107,0.026 0.174,0.134 0.147,0.241 -0.022,0.092 -0.103,0.153 -0.194,0.153 z m 0.174,-0.72 c -0.016,0 -0.031,-0.002 -0.047,-0.006 l -0.91,-0.22 c -0.10699997,-0.026 -0.17399997,-0.134 -0.14699997,-0.241 0.027,-0.107 0.13399997,-0.174 0.24099997,-0.147 l 0.91,0.22 c 0.107,0.026 0.174,0.134 0.147,0.241 -0.022,0.092 -0.103,0.153 -0.194,0.153 z"
     id="path8"
     inkscape:connector-curvature="0"
     style="fill:#ccd6dd" />
  <path
     d="m 9.8999153,29.734128 c -0.18,0.923 -0.402,1.394 -0.688,2.302 -0.21,0.667 -0.139,1.573 0.425,1.722 0.4469997,0.118 0.9529997,-0.12 1.2939997,-1.047 0.183,-0.496 0.214,-0.875 0.291,-1.441 0.044,-0.326 0.1,-0.78 0.207,-1.188 0.117,-0.445 0.029,-1.025 -0.545,-1.176 -0.425,-0.113 -0.864,0.213 -0.9839997,0.828 z"
     id="path10"
     inkscape:connector-curvature="0"
     style="fill:#dd2e44" />
  <path
     d="m 10.170915,29.904128 c 0.024,-0.017 0.24,-0.136 0.551,-0.043 0.311,0.094 0.42,0.275 0.434,0.302 0.013,0.027 -0.304,0.77 -0.351,0.978 -0.049,0.222 -0.221,0.845 -0.229,0.871 -0.014,0.054 -0.071,0.084 -0.126,0.07 l -0.5939997,-0.156 c -0.056,-0.015 -0.089,-0.07 -0.075,-0.124 l 0.2209997,-0.841 c 0.062,-0.233 0.144,-1.041 0.169,-1.057 z"
     id="path12"
     inkscape:connector-curvature="0"
     style="fill:#a0041e" />
  <path
     d="m 10.689915,31.970128 c -0.017,0 -0.034,-0.002 -0.051,-0.007 l -0.9049997,-0.239 c -0.107,-0.028 -0.171,-0.137 -0.143,-0.244 0.027,-0.106 0.137,-0.172 0.244,-0.142 l 0.9049997,0.239 c 0.107,0.028 0.171,0.137 0.143,0.244 -0.023,0.089 -0.104,0.149 -0.193,0.149 z m 0.189,-0.716 c -0.017,0 -0.034,-0.002 -0.051,-0.007 l -0.9049997,-0.239 c -0.107,-0.028 -0.171,-0.137 -0.143,-0.244 0.027,-0.106 0.138,-0.172 0.2439997,-0.142 l 0.905,0.239 c 0.107,0.028 0.171,0.137 0.143,0.244 -0.023,0.089 -0.104,0.149 -0.193,0.149 z m 0.188,-0.716 c -0.017,0 -0.034,-0.002 -0.051,-0.007 l -0.905,-0.239 c -0.107,-0.028 -0.1709997,-0.137 -0.1429997,-0.244 0.028,-0.106 0.1389997,-0.173 0.2439997,-0.142 l 0.905,0.239 c 0.107,0.028 0.171,0.137 0.143,0.244 -0.023,0.089 -0.104,0.149 -0.193,0.149 z"
     id="path14"
     inkscape:connector-curvature="0"
     style="fill:#ccd6dd" />
  <g
     id="g16"
     style="fill:#f7dece"
     transform="translate(-4.9670847,-0.66687225)">
    <path
       d="m 16.042,24.146 -2.5,-1.438 -1.281,2.614 c -0.24,0.185 -0.28,0.276 -1.615,1.052 -1.203,0.699 -3.46,3.091 -4.21,4.025 C 6.223,30.597 6.177,30.74 6.043,31.1 l 1.023,0.266 c 0,0 0.182,-0.34 0.476,-0.533 1.438,-0.821 6.309,-3.495 6.309,-3.495 0.394,-0.283 0.64,-0.478 0.78,-0.72 0,0 1.192,-1.979 1.411,-2.472 z m 6.037,-2.159 -2.501,1.313 c 0.171,0.271 0.513,0.854 0.797,1.59 0.083,0.213 0.191,0.618 -0.163,0.874 -0.2,0.146 -0.59,0.466 -0.889,0.704 -0.204,0.163 -0.438,0.349 -0.714,0.563 -0.997,0.778 -3.032,2.787 -3.198,2.951 -0.166,0.164 -0.283,0.377 -0.344,0.662 0.087,0.019 0.965,0.233 0.965,0.233 0,0 0.123,-0.307 0.421,-0.487 0.929,-0.561 6.214,-3.599 6.214,-3.599 0.69,-0.495 1.067,-0.722 1.005,-1.432 -0.108,-1.24 -1.263,-2.915 -1.593,-3.372 z M 13.576,9.322 C 13.309,9.042 12.871,8.9 12.277,8.9 10.588,8.9 8.919,9.115 8.494,9.2 8.376,9.224 8.321,9.224 8.193,9.148 7.875,8.96 7.759,8.452 7.61,7.808 7.562,7.591 7.509,7.362 7.445,7.136 7.166,6.135 6.857,4.676 6.895,4.4 6.949,4.015 6.583,1.18 6.539,1.137 6.468,1.067 6.265,1.204 6.126,1.212 6.015,1.219 5.936,1.31 5.818,1.388 c -0.682,0.447 -0.78,1.376 -0.849,2 -0.042,0.386 0.62,1.095 0.684,1.502 0.02,0.133 0.047,0.804 0.089,1.888 0.044,1.135 0.099,2.549 0.141,2.788 0.101,0.572 0.208,1.186 1.01,1.382 0.604,0.147 2.378,0.241 3.673,0.309 0.65,0.035 1.213,0.064 1.512,0.093 0.647,0.062 1.198,-0.058 1.515,-0.331 0.192,-0.167 0.296,-0.389 0.309,-0.66 0.017,-0.443 -0.091,-0.793 -0.326,-1.037 z m 20.031,3.101 c -0.285,-0.016 -0.335,-0.059 -0.612,-0.053 -0.406,0.009 -0.393,0.056 -0.577,0.053 -0.399,-0.006 -0.967,-0.034 -1.387,-0.084 -0.31,-0.037 -1.968,-0.116 -2.419,-0.198 C 27.998,12.028 27.228,11.88 25.814,11.989 25.02,11.58 23.945,11.119 22.991,10.71 22.292,10.41 21.632,10.127 21.189,9.91 20.966,9.801 20.747,9.745 20.537,9.745 c -0.156,0 -0.308,0.031 -0.449,0.092 -0.325,0.141 -0.568,0.43 -0.686,0.813 -0.043,0.142 -0.162,0.638 0.108,1.073 0.216,0.347 0.624,0.573 1.214,0.671 0.618,0.102 1.367,0.333 2.234,0.6 0.857,0.265 1.82,0.561 2.804,0.772 0,0 1.555,-0.164 2.367,-0.213 1.124,-0.068 2.682,-0.362 3.092,-0.238 0.518,0.157 1.068,0.303 1.715,-0.03 1.106,-0.569 2.212,-0.236 2.095,-0.707 -0.028,-0.109 -0.881,-0.125 -1.424,-0.155 z m -15.78,-7.43 c -0.062,-0.564 -0.59,-1 -1.148,-0.934 -0.564,0.062 -0.977,0.558 -0.914,1.122 l 0.411,3.61 -0.355,0.047 c 0,0 -0.363,1.057 1.449,1.057 1.812,0 1.621,-0.825 1.621,-0.825 L 18.296,8.957 17.827,4.993 Z"
       id="path18"
       inkscape:connector-curvature="0" />
    <ellipse
       cx="17.167"
       cy="4.9169998"
       rx="2.625"
       ry="3"
       id="ellipse20" />
  </g>
  <path
     d="m 13.865915,0.43712775 c -0.699,-0.487 -2.461,-0.66 -3.656,-0.029 -0.6149997,0.325 -1.0109997,0.77800005 -1.2479997,1.29800005 -0.181,-0.193 -0.487,-0.359 -1.016,-0.403 -1.196,-0.099 -1.513,1.208 -2.378,1.675 -0.653,0.352 -1.4,0.364 -1.921,0.013 0,0 0.716,0.867 1.52,1.198 1.045,0.43 2.333,0.154 2.947,-0.175 0.258,-0.138 0.452,-0.314 0.604,-0.498 0.01,0.089 0.015,0.177 0.03,0.266 0.207,1.24 1.3489997,2.324 1.3489997,2.324 0,0 0.414,-1.064 0.227,-1.085 -0.3469997,-0.039 -0.5549997,-1.105 -0.264,-1.389 0.306,-0.299 0.6,0 0.675,0.3 0.075,0.3 0.277,1.151 0.277,1.151 0,0 -0.052,-1.076 0.248,-1.414 0.3,-0.337 1.724,-0.262 2.324,-1.724 0,0 0.47,0.179 0.845,0.742 0.309,0.464 0.396,1.562 0.396,1.562 0,0 0.283,-0.678 0.479,-1.333 0.225,-0.749 -0.542,-1.855 -1.438,-2.47900005 z"
     id="path22"
     inkscape:connector-curvature="0"
     style="fill:#292f33" />
  <g
     id="g24"
     style="fill:#a0041e"
     transform="translate(-4.9670847,-0.66687225)">
    <path
       d="m 15.104,18.375 c -0.318,1.396 -2.009,4.729 -2.009,4.729 0,0 1.639,1.477 2.987,1.437 l 1.954,-2.841 1.735,2.446 c 0,0 1.713,-1.274 2.931,-1.485 0,0 -1.666,-3.182 -2.023,-3.856 -0.357,-0.674 -1.057,-1.547 -1.057,-1.547 0,0 -4.27,0.028 -4.518,1.117 z"
       id="path26"
       inkscape:connector-curvature="0" />
    <path
       d="m 16.028,24.667 c -1.37,0 -2.949,-1.41 -3.016,-1.471 -0.042,-0.038 -0.054,-0.099 -0.028,-0.149 0.017,-0.033 1.688,-3.335 1.998,-4.7 0.263,-1.152 4.193,-1.211 4.64,-1.214 l 0.001,0 c 0.038,0 0.074,0.017 0.098,0.047 0.028,0.036 0.712,0.89 1.07,1.566 0.356,0.675 2.022,3.857 2.022,3.857 0.019,0.035 0.02,0.077 0.002,0.113 -0.018,0.035 -0.052,0.061 -0.091,0.067 -1.176,0.204 -2.861,1.45 -2.879,1.463 -0.027,0.02 -0.062,0.026 -0.094,0.022 -0.033,-0.005 -0.062,-0.023 -0.082,-0.051 l -1.632,-2.3 -1.853,2.693 c -0.032,0.051 -0.098,0.058 -0.156,0.057 z m -2.777,-1.595 c 0.32,0.271 1.65,1.337 2.765,1.345 l 1.918,-2.788 c 0.023,-0.033 0.062,-0.054 0.102,-0.054 l 10e-4,0 c 0.041,0 0.079,0.02 0.102,0.053 l 1.662,2.343 c 0.373,-0.267 1.665,-1.15 2.715,-1.398 -0.332,-0.633 -1.635,-3.122 -1.945,-3.709 -0.301,-0.567 -0.858,-1.29 -1.008,-1.479 -1.617,0.018 -4.174,0.305 -4.336,1.019 -0.293,1.284 -1.702,4.122 -1.976,4.668 z"
       id="path28"
       inkscape:connector-curvature="0" />
  </g>
  <path
     d="m 8.9889153,8.0551278 c 0.549,-0.02 1.3209997,0.078 1.8649997,0.117 0,0 0.078,0.855 1.399,0.894 1.321,0.039 1.671,-0.661 1.671,-0.661 0,0 1.01,0.078 1.749,0.544 0.738,0.466 1.865,0.884 1.865,0.884 0,0 -1.049,1.1970002 -0.661,2.1690002 l -1.049,-0.315 c 0,0 0.352,0.593 0.235,1.021 -0.117,0.427 -0.538,0.88 -0.581,1.269 -0.12,1.082 0.227,3.672 0.383,4.021 0,0 -1.225,-0.346 -3.191,-0.13 -1.201,0.133 -3.0409997,0.965 -3.0409997,0.965 0.022,-0.842 0.4129997,-2.902 0.5589997,-4.01 0.142,-1.079 -0.8139997,-3.793 -1.4739997,-3.948 -0.661,-0.155 -1.166,-0.194 -1.166,-0.194 0,0 0.155,-0.9940002 0,-1.5380002 -0.155,-0.544 -0.233,-0.933 -0.233,-0.933 0,0 1.121,-0.135 1.67,-0.155 z"
     id="path30"
     inkscape:connector-curvature="0"
     style="fill:#dd2e44" />
  <circle
     cx="2.5329154"
     cy="2.2501278"
     r="2.0550001"
     id="circle32"
     style="fill:#226699" />
  <path
     d="m 1.7509153,1.1531278 -0.079,-0.013 c 0.133,0.02 0.261,-0.069 0.284,-0.20300005 0.023,-0.135 -0.068,-0.265 -0.204,-0.289 l -0.513,-0.091 -0.82499997,0.90100005 -0.25,0.922 0.817,0.15 c 0.13499997,0.023 0.26499997,-0.068 0.28799997,-0.204 0.022,-0.129 -0.064,-0.248 -0.189,-0.279 l 0.22,0.038 c 0.135,0.023 0.265,-0.068 0.288,-0.204 0.023,-0.131 -0.065,-0.253 -0.193,-0.282 l 0.271,0.046 c 0.135,0.023 0.265,-0.068 0.288,-0.204 0.023,-0.136 -0.068,-0.265 -0.203,-0.288 z"
     id="path34"
     inkscape:connector-curvature="0"
     style="fill:#f7dece" />
</svg>
