<?xml version="1.0" encoding="UTF-8" standalone="no"?>
<svg
   xmlns:dc="http://purl.org/dc/elements/1.1/"
   xmlns:cc="http://creativecommons.org/ns#"
   xmlns:rdf="http://www.w3.org/1999/02/22-rdf-syntax-ns#"
   xmlns:svg="http://www.w3.org/2000/svg"
   xmlns="http://www.w3.org/2000/svg"
   xmlns:sodipodi="http://sodipodi.sourceforge.net/DTD/sodipodi-0.dtd"
   xmlns:inkscape="http://www.inkscape.org/namespaces/inkscape"
   viewBox="0 0 27.88282 35.674"
   id="svg2"
   version="1.1"
   inkscape:version="0.91 r13725"
   sodipodi:docname="1f94a.svg"
   width="27.88282"
   height="35.674">
  <metadata
     id="metadata18">
    <rdf:RDF>
      <cc:Work
         rdf:about="">
        <dc:format>image/svg+xml</dc:format>
        <dc:type
           rdf:resource="http://purl.org/dc/dcmitype/StillImage" />
      </cc:Work>
    </rdf:RDF>
  </metadata>
  <defs
     id="defs16" />
  <sodipodi:namedview
     pagecolor="#ffffff"
     bordercolor="#666666"
     borderopacity="1"
     objecttolerance="10"
     gridtolerance="10"
     guidetolerance="10"
     inkscape:pageopacity="0"
     inkscape:pageshadow="2"
     inkscape:window-width="640"
     inkscape:window-height="480"
     id="namedview14"
     showgrid="false"
     inkscape:zoom="6.5555556"
     inkscape:cx="14.04182"
     inkscape:cy="18"
     inkscape:window-x="0"
     inkscape:window-y="0"
     inkscape:window-maximized="0"
     inkscape:current-layer="svg2" />
  <path
     d="m 15.63982,0 c 9.613,0 12.243,1.697 12.243,11.311 0,5.506 -1.167,8.488 -1.167,13.488 0,2.958 -4.551,3 -8.659,3 -4.218,0 -9.1420004,0.199 -11.3410004,-2 -6.00000002,-6 -10.545,-16.449 -2,-19 C 5.1708196,0.288 6.0258196,0 15.63982,0 Z"
     id="path4"
     inkscape:connector-curvature="0"
     style="fill:#be1931" />
  <path
     d="m 22.77782,25.674 c 2.229,0 4.264,0.858 4.264,2.903 l 0,3.519 c 0,2.045 -2.035,3.578 -4.264,3.578 l -11.736,0 0,-10 11.736,0 z"
     id="path6"
     inkscape:connector-curvature="0"
     style="fill:#99aab5" />
  <path
     d="m 18.38282,25.674 c 2.454,0 4.659,0.858 4.659,2.903 l 0,3.519 c 0,2.045 -2.205,3.578 -4.659,3.578 l -7.333,0 c -2.4550004,0 -4.0080004,-1.533 -4.0080004,-3.578 l 0,-3.519 c 0,-2.045 1.553,-2.903 4.0080004,-2.903 l 7.333,0 z"
     id="path8"
     inkscape:connector-curvature="0"
     style="fill:#ccd6dd" />
  <path
     d="M 0.33381958,10.622 C 1.0488196,10.047 2.1958196,9.198 2.7168196,11.8 c 1,5 3.794,9.384 3,7 -1,-3 -1,-12 -1,-12 -2.437,0.727 -3.80600002,2.097 -4.38300002,3.822 z"
     id="path10"
     inkscape:connector-curvature="0"
     style="fill:#a0041e" />
  <path
     d="m 17.71582,27.674 c 1.105,0 2.326,0.538 2.326,1.459 l 0,3.333 c 0,0.92 -1.221,1.208 -2.326,1.208 l -5,0 c -1.104,0 -1.674,-0.288 -1.674,-1.208 l 0,-3.333 c 0,-0.921 0.57,-1.459 1.674,-1.459 l 5,0 z"
     id="path12"
     inkscape:connector-curvature="0"
     style="fill:#e1e8ed" />
</svg>
