<?xml version="1.0" encoding="UTF-8" standalone="no"?>
<svg
   xmlns:dc="http://purl.org/dc/elements/1.1/"
   xmlns:cc="http://creativecommons.org/ns#"
   xmlns:rdf="http://www.w3.org/1999/02/22-rdf-syntax-ns#"
   xmlns:svg="http://www.w3.org/2000/svg"
   xmlns="http://www.w3.org/2000/svg"
   xmlns:sodipodi="http://sodipodi.sourceforge.net/DTD/sodipodi-0.dtd"
   xmlns:inkscape="http://www.inkscape.org/namespaces/inkscape"
   viewBox="0 0 34.607452 35.922001"
   id="svg2"
   version="1.1"
   inkscape:version="0.91 r13725"
   sodipodi:docname="1f94b.svg"
   width="34.607452"
   height="35.922001">
  <metadata
     id="metadata26">
    <rdf:RDF>
      <cc:Work
         rdf:about="">
        <dc:format>image/svg+xml</dc:format>
        <dc:type
           rdf:resource="http://purl.org/dc/dcmitype/StillImage" />
      </cc:Work>
    </rdf:RDF>
  </metadata>
  <defs
     id="defs24" />
  <sodipodi:namedview
     pagecolor="#ffffff"
     bordercolor="#666666"
     borderopacity="1"
     objecttolerance="10"
     gridtolerance="10"
     guidetolerance="10"
     inkscape:pageopacity="0"
     inkscape:pageshadow="2"
     inkscape:window-width="640"
     inkscape:window-height="480"
     id="namedview22"
     showgrid="false"
     inkscape:zoom="6.5555556"
     inkscape:cx="17.215557"
     inkscape:cy="18"
     inkscape:window-x="0"
     inkscape:window-y="0"
     inkscape:window-maximized="0"
     inkscape:current-layer="svg2" />
  <path
     d="m 33.215557,5.922 c -2,-3 -9,-4 -16,-4 -7,0 -14.9999998,1 -15.9999998,3 -1.90700001,3.814 -1.00000001,20 -1.00000001,21 0,1 5.00000001,1 5.00000001,1 l 0,-13 1,-2 0,23 c 0,0 3,1 10.9999998,1 8,0 11,-1 11,-1 l 0,-23 1,2 0,13 c 0,0 5,0 5,-1 0,-1 1.365,-16.452 -1,-20 z"
     id="path4"
     inkscape:connector-curvature="0"
     style="fill:#e1e8ed" />
  <path
     d="m 6.2155572,26.922 -1,0 0,-13 c 0,-1 1,-2 1,-2 l 0,15 z m 22.9999998,0 -1,0 0,-15 c 0,0 1,1 1,2 l 0,13 z"
     id="path6"
     inkscape:connector-curvature="0"
     style="fill:#99aab5" />
  <path
     d="m 10.996557,1.922 6.281,11.344 5.938,-11.344 -6.109,-1.25 z"
     id="path8"
     inkscape:connector-curvature="0"
     style="fill:#66757f" />
  <path
     d="m 11.215557,0.547 c 0,0 2.25,-0.547 6,-0.547 3.75,0 6,0.547 6,0.547 l 0,2.375 c 0,0 -1.625,-1 -6,-1 -4.375,0 -6,1 -6,1 l 0,-2.375 z"
     id="path10"
     inkscape:connector-curvature="0"
     style="fill:#ccd6dd" />
  <path
     d="m 6.2155572,34.922 c 0,0 17.7479998,-31.659 17.7479998,-32.638 0,-1 -0.748,-1.737 -0.748,-1.737 l -16.9999998,31.375 0,3 z"
     id="path12"
     inkscape:connector-curvature="0"
     style="fill:#99aab5" />
  <path
     d="m 17.033557,14.644 c 0,0 -6.692,-11.381 -6.692,-12.36 0,-1 0.874,-1.737 0.874,-1.737 l 6.761,12.573 -0.943,1.524 z"
     id="path14"
     inkscape:connector-curvature="0"
     style="fill:#99aab5" />
  <path
     d="m 6.2155572,21.922 c 0,0 4.9999998,2 10.9999998,2 6,0 11,-2 11,-2 l 0,3 c 0,0 -4,2 -11,2 -7,0 -10.9999998,-2 -10.9999998,-2 l 0,-3 z"
     id="path16"
     inkscape:connector-curvature="0"
     style="fill:#292f33" />
  <path
     d="m 20.215557,23.922 c 0,0 -2,-1 -3,-1 -1,0 -3,1 -3,1 0,0 -1,0 -1,1 0,1 1,2 1,2 0,0 2,1 3,1 1,0 3,-1 3,-1 0,0 1,-1 1,-2 0,-1 -1,-1 -1,-1 z"
     id="path18"
     inkscape:connector-curvature="0"
     style="fill:#292f33" />
  <path
     d="m 11.215557,32.922 3,1 c 0,0 1,-5 3,-7 l -2,-3 c 0,0 -3,4 -4,9 z m 12,0 -3,1 c 0,0 -1,-5 -3,-7 l 2,-3 c 0,0 3,4 4,9 z"
     id="path20"
     inkscape:connector-curvature="0"
     style="fill:#292f33" />
</svg>
