<?xml version="1.0" encoding="UTF-8" standalone="no"?>
<svg
   xmlns:dc="http://purl.org/dc/elements/1.1/"
   xmlns:cc="http://creativecommons.org/ns#"
   xmlns:rdf="http://www.w3.org/1999/02/22-rdf-syntax-ns#"
   xmlns:svg="http://www.w3.org/2000/svg"
   xmlns="http://www.w3.org/2000/svg"
   xmlns:sodipodi="http://sodipodi.sourceforge.net/DTD/sodipodi-0.dtd"
   xmlns:inkscape="http://www.inkscape.org/namespaces/inkscape"
   viewBox="0 0 24.643976 35.857716"
   id="svg2"
   version="1.1"
   inkscape:version="0.91 r13725"
   sodipodi:docname="1f940.svg"
   width="24.643976"
   height="35.857716">
  <metadata
     id="metadata24">
    <rdf:RDF>
      <cc:Work
         rdf:about="">
        <dc:format>image/svg+xml</dc:format>
        <dc:type
           rdf:resource="http://purl.org/dc/dcmitype/StillImage" />
      </cc:Work>
    </rdf:RDF>
  </metadata>
  <defs
     id="defs22" />
  <sodipodi:namedview
     pagecolor="#ffffff"
     bordercolor="#666666"
     borderopacity="1"
     objecttolerance="10"
     gridtolerance="10"
     guidetolerance="10"
     inkscape:pageopacity="0"
     inkscape:pageshadow="2"
     inkscape:window-width="640"
     inkscape:window-height="480"
     id="namedview20"
     showgrid="false"
     inkscape:zoom="6.5555556"
     inkscape:cx="11.140787"
     inkscape:cy="17.937392"
     inkscape:window-x="0"
     inkscape:window-y="0"
     inkscape:window-maximized="0"
     inkscape:current-layer="svg2" />
  <path
     d="m 15.921787,4.6353246 c 0,0 -5.691,-7.14 -10.6560001,-3.697 -3.683,2.554 -3.667,7.228 -3.304,9.4780004 0.371,2.298 1.505,7.529 2.194,11.915 0.69,4.396 1.178,8.329 1.894,12.912 0.181,1.159 4.0680001,0.521 3.9640001,-0.613 -0.1770001,-1.944 -1.8210001,-8.965 -2.2570001,-12.05 -0.405,-2.865 -1.366,-8.421 -1.929,-11.649 -0.619,-3.5460004 -0.279,-6.6760004 2.148,-7.3900004 2.7870001,-0.819 5.5510001,3.835 5.5510001,3.835 l 2.395,-2.741 z"
     id="path4"
     inkscape:connector-curvature="0"
     style="fill:#78b159" />
  <path
     d="m 6.2217869,16.345325 c 0,0 1.71,0.642 2.871,1.803 1.5360001,1.536 2.4710001,4.541 1.2690001,7.947 -0.7390001,2.093 1.069,5.074 1.069,5.074 0,0 -2.0130001,-1.077 -3.2720001,-2.671 -1.279,-1.618 -2.12,-3.833 -2.297,-5.647 -0.117,-1.197 -0.174,-3.568 0.36,-6.506"
     id="path6"
     inkscape:connector-curvature="0"
     style="fill:#c6e4b5" />
  <path
     d="m 3.4167869,13.897325 c -0.786,0.363 -2.99299998,3.198 -3.24199998,4.768 -1.037,6.55 2.87899998,10.825 2.87899998,10.825 0,0 0.688,-3.983 1.761,-5.421 1.245,-1.67 0.545,-5.677 0,-7.151 -0.391,-1.054 -1.398,-3.021 -1.398,-3.021"
     id="path8"
     inkscape:connector-curvature="0"
     style="fill:#a6d388" />
  <path
     d="m 17.875787,8.1783246 c -0.786,1.067 -2.577,1.082 -3.999,0.033 -1.423,-1.048 -1.938,-2.763 -1.151,-3.83 0.785,-1.067 2.576,-1.082 3.999,-0.033 1.423,1.048 1.937,2.763 1.151,3.83"
     id="path10"
     inkscape:connector-curvature="0"
     style="fill:#78b159" />
  <path
     d="m 19.345787,5.2903246 c 0.845,1.281 0.107,3.255 -1.645,4.41 -1.752,1.1540004 -3.858,1.0520004 -4.701,-0.229 -0.843,-1.28 -0.106,-3.254 1.646,-4.409 1.753,-1.155 3.856,-1.053 4.7,0.228"
     id="path12"
     inkscape:connector-curvature="0"
     style="fill:#78b159" />
  <path
     d="m 13.850787,8.0643246 c -0.874,1.148 -2.897,1.476 -2.897,1.476 0,0 1.695,1.2570004 2.733,0.5460004 1.038,-0.7100004 0.164,-2.0220004 0.164,-2.0220004 m 2.551,-3.28 c -0.055,-0.82 1.312,-2.295 1.967,-1.913 0,0 -0.874,0.984 -0.054,1.585 0.819,0.601 -1.913,0.328 -1.913,0.328"
     id="path14"
     inkscape:connector-curvature="0"
     style="fill:#78b159" />
  <path
     d="m 14.390787,8.5873246 c -1.791,0.958 -3.399,3.2320004 -2.56,7.5930004 0.726,3.774 3.918,5.321 2.855,7.836 -0.986,2.335 0.822,6.097 3.228,0.392 0.755,-1.788 2.812,-9.279 0.77,-13.862 -1.23,-2.7570004 -3.455,-2.4080004 -4.293,-1.9590004 z"
     id="path16"
     inkscape:connector-curvature="0"
     style="fill:#da2f47" />
  <path
     d="m 16.494787,7.0003246 c 1.322,-1.933 3.245,-2.175 4.541,-0.946 6.034,5.7240004 3.544,16.9480004 -0.52,19.3670004 -2.403,1.43 -0.847,-7.209 -4.089,-10.74 -1.905,-2.077 -1.959,-5.2730004 0.068,-7.6810004"
     id="path18"
     inkscape:connector-curvature="0"
     style="fill:#e75a70" />
</svg>
