<?xml version="1.0" encoding="UTF-8" standalone="no"?>
<svg
   xmlns:dc="http://purl.org/dc/elements/1.1/"
   xmlns:cc="http://creativecommons.org/ns#"
   xmlns:rdf="http://www.w3.org/1999/02/22-rdf-syntax-ns#"
   xmlns:svg="http://www.w3.org/2000/svg"
   xmlns="http://www.w3.org/2000/svg"
   xmlns:sodipodi="http://sodipodi.sourceforge.net/DTD/sodipodi-0.dtd"
   xmlns:inkscape="http://www.inkscape.org/namespaces/inkscape"
   viewBox="0 0 36 36"
   id="svg2"
   version="1.1"
   inkscape:version="0.91 r13725"
   sodipodi:docname="1f947.svg"
   width="36"
   height="36">
  <metadata
     id="metadata16">
    <rdf:RDF>
      <cc:Work
         rdf:about="">
        <dc:format>image/svg+xml</dc:format>
        <dc:type
           rdf:resource="http://purl.org/dc/dcmitype/StillImage" />
      </cc:Work>
    </rdf:RDF>
  </metadata>
  <defs
     id="defs14" />
  <sodipodi:namedview
     pagecolor="#ffffff"
     bordercolor="#666666"
     borderopacity="1"
     objecttolerance="10"
     gridtolerance="10"
     guidetolerance="10"
     inkscape:pageopacity="0"
     inkscape:pageshadow="2"
     inkscape:window-width="640"
     inkscape:window-height="480"
     id="namedview12"
     showgrid="false"
     inkscape:zoom="6.5555556"
     inkscape:cx="18"
     inkscape:cy="18"
     inkscape:window-x="0"
     inkscape:window-y="0"
     inkscape:window-maximized="0"
     inkscape:current-layer="svg2" />
  <path
     d="M 18,8 11,0 0,0 14,17 25.521,12.25 Z"
     id="path4"
     inkscape:connector-curvature="0"
     style="fill:#55acee" />
  <path
     d="m 25,0 -7,8 5.39,7.312 1.227,-1.489 L 36,0 Z"
     id="path6"
     inkscape:connector-curvature="0"
     style="fill:#3b88c3" />
  <path
     d="m 23.205,16.026 c 0.08,-0.217 0.131,-0.448 0.131,-0.693 0,-1.104 -0.896,-2 -2,-2 l -6.667,0 c -1.105,0 -2,0.896 -2,2 0,0.245 0.05,0.476 0.131,0.693 C 9.542,17.852 7.336,21.333 7.336,25.333 7.335,31.224 12.111,36 18.002,36 c 5.891,0 10.667,-4.776 10.667,-10.667 0,-4 -2.206,-7.481 -5.464,-9.307 z"
     id="path8"
     inkscape:connector-curvature="0"
     style="fill:#ffac33" />
  <path
     d="m 19.404,18.6 -1.721,0 -2.73,2.132 c -0.056,0.056 -0.112,0.206 -0.112,0.28 l 0,1.178 c 0,0.186 0.15,0.354 0.337,0.354 l 1.795,0 0,8.414 c 0,0.188 0.15,0.355 0.355,0.355 l 2.076,0 c 0.186,0 0.336,-0.168 0.336,-0.355 l 0,-12.004 c 0,-0.186 -0.149,-0.354 -0.336,-0.354 z"
     id="path10"
     inkscape:connector-curvature="0"
     style="fill:#9e5200" />
</svg>
