<?xml version="1.0" encoding="UTF-8" standalone="no"?>
<svg
   xmlns:dc="http://purl.org/dc/elements/1.1/"
   xmlns:cc="http://creativecommons.org/ns#"
   xmlns:rdf="http://www.w3.org/1999/02/22-rdf-syntax-ns#"
   xmlns:svg="http://www.w3.org/2000/svg"
   xmlns="http://www.w3.org/2000/svg"
   xmlns:sodipodi="http://sodipodi.sourceforge.net/DTD/sodipodi-0.dtd"
   xmlns:inkscape="http://www.inkscape.org/namespaces/inkscape"
   viewBox="0 0 26.4 28.527"
   id="svg2"
   version="1.1"
   inkscape:version="0.91 r13725"
   sodipodi:docname="1f943.svg"
   width="26.4"
   height="28.527">
  <metadata
     id="metadata30">
    <rdf:RDF>
      <cc:Work
         rdf:about="">
        <dc:format>image/svg+xml</dc:format>
        <dc:type
           rdf:resource="http://purl.org/dc/dcmitype/StillImage" />
      </cc:Work>
    </rdf:RDF>
  </metadata>
  <defs
     id="defs28" />
  <sodipodi:namedview
     pagecolor="#ffffff"
     bordercolor="#666666"
     borderopacity="1"
     objecttolerance="10"
     gridtolerance="10"
     guidetolerance="10"
     inkscape:pageopacity="0"
     inkscape:pageshadow="2"
     inkscape:window-width="640"
     inkscape:window-height="480"
     id="namedview26"
     showgrid="false"
     inkscape:zoom="6.5555556"
     inkscape:cx="13.2"
     inkscape:cy="16.175"
     inkscape:window-x="0"
     inkscape:window-y="0"
     inkscape:window-maximized="0"
     inkscape:current-layer="svg2" />
  <path
     d="m 1.919,4.339 1.948,21.013 18.5,0 2.145,-21.719 z"
     id="path4"
     inkscape:connector-curvature="0"
     style="fill:#ccd6dd" />
  <path
     d="M 23.783,13.581 2.307,13.727 c 0,0 1.06,10.875 3.372,10.875 l 15.021,0 c 2.362,0 3.083,-11.021 3.083,-11.021 z"
     id="path6"
     inkscape:connector-curvature="0"
     style="fill:#e27e00" />
  <path
     d="m 13.184,11.79 c -5.468,0 -9.901,0.831 -9.901,1.855 0,0.028 0.016,0.055 0.022,0.082 0.15,0.642 2.037,1.199 4.809,1.51 l 10.344,-0.023 c 2.661,-0.315 4.459,-0.86 4.606,-1.486 0.006,-0.027 0.022,-0.054 0.022,-0.082 C 23.085,12.62 18.652,11.79 13.184,11.79 Z"
     id="path8"
     inkscape:connector-curvature="0"
     style="fill:#ffb900" />
  <path
     d="m 11.596,15.474 1.937,0.961 5.473,-0.92 -0.565,-0.302 c -1.523,0.181 -3.322,0.287 -5.257,0.287 -0.542,0 -1.07,-0.01 -1.588,-0.026 z"
     id="path10"
     inkscape:connector-curvature="0"
     style="fill:#f4bd61" />
  <path
     d="m 14.2,12.644 -6.203,0.833 3.599,1.997 c 0.518,0.016 1.046,0.026 1.588,0.026 1.935,0 3.734,-0.106 5.257,-0.287 L 14.2,12.644 Z"
     id="path12"
     inkscape:connector-curvature="0"
     style="fill:#f1f2f2" />
  <path
     d="m 13.499,22.112 4.439,-1.359 1.068,-5.238 -5.473,0.92 z"
     id="path14"
     inkscape:connector-curvature="0"
     style="fill:#e9ab61" />
  <path
     d="M 11.596,15.474 C 10.345,15.436 9.175,15.354 8.129,15.236 l 0.464,5.264 4.906,1.612 0.034,-5.677 -1.937,-0.961 z"
     id="path16"
     inkscape:connector-curvature="0"
     style="fill:#e4973e" />
  <path
     d="m 7.997,13.477 0.132,1.76 c 1.046,0.118 2.216,0.2 3.467,0.238 L 7.997,13.477 Z"
     id="path18"
     inkscape:connector-curvature="0"
     style="fill:#d1d3d4" />
  <path
     d="M 25.288,2.182 C 24.639,2.134 24.071,2.6 24.012,3.246 l -1.478,16.255 c -0.57,3.084 -1.958,4.851 -6.334,4.851 l -6,0 c -4.596,0 -5.896,-1.947 -6.414,-5.324 L 2.351,3.246 C 2.292,2.6 1.727,2.126 1.075,2.182 0.429,2.241 -0.047,2.812 0.012,3.458 l 2.005,22.049 c 0.256,1.919 1.41,3.02 3.165,3.02 l 16,0 c 2.535,0 3.022,-1.737 3.17,-3.068 l 2,-22 C 26.41,2.812 25.934,2.241 25.288,2.182 Z"
     id="path20"
     inkscape:connector-curvature="0"
     style="fill:#8899a6" />
  <path
     d="M 26.4,3.35 C 26.4,5.2 22.372,6.7 13.2,6.7 4.028,6.7 0,5.2 0,3.35 0,1.499 4.028,0 13.2,0 22.372,0 26.4,1.499 26.4,3.35 Z"
     id="path22"
     inkscape:connector-curvature="0"
     style="fill:#ccd6dd" />
  <path
     d="M 25.729,3.455 C 25.443,2.984 24.828,2.834 24.355,3.119 22.022,4.535 15.542,4.723 13.234,4.665 c -0.008,0 -0.014,0.004 -0.022,0.004 -0.007,0 -0.014,-0.004 -0.021,-0.004 C 10.891,4.722 4.406,4.536 2.07,3.119 1.598,2.833 0.983,2.982 0.696,3.455 0.409,3.928 0.56,4.542 1.032,4.829 c 2.795,1.696 9.322,1.842 11.495,1.842 0.37,0 0.607,-0.004 0.685,-0.005 0.078,10e-4 0.314,0.005 0.685,0.005 2.173,0 8.7,-0.147 11.495,-1.842 0.473,-0.288 0.623,-0.902 0.337,-1.374 z"
     id="path24"
     inkscape:connector-curvature="0"
     style="fill:#ffffff" />
</svg>
