<?xml version="1.0" encoding="UTF-8" standalone="no"?>
<svg
   xmlns:dc="http://purl.org/dc/elements/1.1/"
   xmlns:cc="http://creativecommons.org/ns#"
   xmlns:rdf="http://www.w3.org/1999/02/22-rdf-syntax-ns#"
   xmlns:svg="http://www.w3.org/2000/svg"
   xmlns="http://www.w3.org/2000/svg"
   xmlns:sodipodi="http://sodipodi.sourceforge.net/DTD/sodipodi-0.dtd"
   xmlns:inkscape="http://www.inkscape.org/namespaces/inkscape"
   viewBox="0 0 36 36"
   id="svg2"
   version="1.1"
   inkscape:version="0.91 r13725"
   sodipodi:docname="1f949.svg"
   width="36"
   height="36">
  <metadata
     id="metadata16">
    <rdf:RDF>
      <cc:Work
         rdf:about="">
        <dc:format>image/svg+xml</dc:format>
        <dc:type
           rdf:resource="http://purl.org/dc/dcmitype/StillImage" />
      </cc:Work>
    </rdf:RDF>
  </metadata>
  <defs
     id="defs14" />
  <sodipodi:namedview
     pagecolor="#ffffff"
     bordercolor="#666666"
     borderopacity="1"
     objecttolerance="10"
     gridtolerance="10"
     guidetolerance="10"
     inkscape:pageopacity="0"
     inkscape:pageshadow="2"
     inkscape:window-width="640"
     inkscape:window-height="480"
     id="namedview12"
     showgrid="false"
     inkscape:zoom="6.5555556"
     inkscape:cx="18"
     inkscape:cy="18"
     inkscape:window-x="0"
     inkscape:window-y="0"
     inkscape:window-maximized="0"
     inkscape:current-layer="svg2" />
  <path
     d="M 18,8 11,0 0,0 14,17 25.521,12.25 Z"
     id="path4"
     inkscape:connector-curvature="0"
     style="fill:#55acee" />
  <path
     d="m 25,0 -7,8 5.39,7.312 1.227,-1.489 L 36,0 Z"
     id="path6"
     inkscape:connector-curvature="0"
     style="fill:#3b88c3" />
  <path
     d="m 23.205,16.026 c 0.08,-0.217 0.131,-0.448 0.131,-0.693 0,-1.104 -0.896,-2 -2,-2 l -6.667,0 c -1.105,0 -2,0.896 -2,2 0,0.245 0.05,0.476 0.131,0.693 C 9.542,17.852 7.336,21.333 7.336,25.333 7.335,31.224 12.111,36 18.002,36 c 5.891,0 10.667,-4.776 10.667,-10.667 0,-4 -2.206,-7.481 -5.464,-9.307 z"
     id="path8"
     inkscape:connector-curvature="0"
     style="fill:#ff8a3b" />
  <path
     d="m 14.121,29.35 1.178,-1.178 c 0.13,-0.132 0.318,-0.15 0.467,-0.038 0,0 1.159,0.861 2.056,0.861 0.805,0 1.628,-0.673 1.628,-1.496 0,-0.823 -0.842,-1.514 -2.225,-1.514 l -0.639,0 c -0.186,0 -0.354,-0.168 -0.354,-0.355 l 0,-1.552 c 0,-0.206 0.168,-0.355 0.354,-0.355 l 0.639,0 c 1.309,0 2,-0.635 2,-1.439 0,-0.805 -0.691,-1.402 -1.496,-1.402 -0.823,0 -1.346,0.43 -1.626,0.747 -0.132,0.15 -0.355,0.15 -0.504,0.02 l -1.141,-1.122 c -0.151,-0.132 -0.132,-0.355 0,-0.486 0,0 1.533,-1.646 3.57,-1.646 2.169,0 4.039,1.328 4.039,3.422 0,1.439 -1.085,2.505 -1.926,2.897 l 0,0.057 c 0.879,0.374 2.262,1.533 2.262,3.141 0,2.038 -1.776,3.572 -4.357,3.572 -2.354,0 -3.552,-1.16 -3.944,-1.664 -0.113,-0.134 -0.093,-0.34 0.019,-0.47 z"
     id="path10"
     inkscape:connector-curvature="0"
     style="fill:#7c4119" />
</svg>
