<?xml version="1.0" encoding="UTF-8" standalone="no"?>
<svg
   xmlns:dc="http://purl.org/dc/elements/1.1/"
   xmlns:cc="http://creativecommons.org/ns#"
   xmlns:rdf="http://www.w3.org/1999/02/22-rdf-syntax-ns#"
   xmlns:svg="http://www.w3.org/2000/svg"
   xmlns="http://www.w3.org/2000/svg"
   xmlns:sodipodi="http://sodipodi.sourceforge.net/DTD/sodipodi-0.dtd"
   xmlns:inkscape="http://www.inkscape.org/namespaces/inkscape"
   viewBox="0 0 32.974712 32.974724"
   id="svg2"
   version="1.1"
   inkscape:version="0.91 r13725"
   sodipodi:docname="1f956.svg"
   width="32.974712"
   height="32.974724">
  <metadata
     id="metadata14">
    <rdf:RDF>
      <cc:Work
         rdf:about="">
        <dc:format>image/svg+xml</dc:format>
        <dc:type
           rdf:resource="http://purl.org/dc/dcmitype/StillImage" />
      </cc:Work>
    </rdf:RDF>
  </metadata>
  <defs
     id="defs12" />
  <sodipodi:namedview
     pagecolor="#ffffff"
     bordercolor="#666666"
     borderopacity="1"
     objecttolerance="10"
     gridtolerance="10"
     guidetolerance="10"
     inkscape:pageopacity="0"
     inkscape:pageshadow="2"
     inkscape:window-width="640"
     inkscape:window-height="480"
     id="namedview10"
     showgrid="false"
     inkscape:zoom="6.5555556"
     inkscape:cx="16.113436"
     inkscape:cy="16.405"
     inkscape:window-x="0"
     inkscape:window-y="0"
     inkscape:window-maximized="0"
     inkscape:current-layer="svg2" />
  <path
     d="m 10.810436,29.734725 c -3.7849995,3.785 -8.2729995,3.838 -9.84099953,2.271 -1.568,-1.568 -1.514,-6.056 2.27100003,-9.841 L 22.165436,3.2397252 c 3.785,-3.78399995 8.271,-3.83799995 9.84,-2.27099995 1.567,1.56799995 1.515,6.05599995 -2.271,9.84099975 l -18.924,18.925 z"
     id="path4"
     inkscape:connector-curvature="0"
     style="fill:#edb980" />
  <path
     d="m 22.435436,6.5387252 c 1.568,1.568 2.758,2.917 3.595,2.082 0.152,-0.152 0.241,-0.349 0.301,-0.565 -0.018,-0.043 -0.036,-0.087 -0.041,-0.136 -0.128,-1.148 -2.41,-3.641 -4.08,-4.721 l -0.045,0.042 -1.474,1.474 c 0.438,0.539 1.064,1.144 1.744,1.824 z m -4.543,4.5419998 c 1.568,1.568 2.76,2.917 3.597,2.082 0.152,-0.152 0.241,-0.35 0.301,-0.567 -0.018,-0.043 -0.036,-0.086 -0.041,-0.135 -0.127,-1.148 -2.411,-3.6429998 -4.083,-4.7219998 l -1.517,1.517 c 0.437,0.54 1.063,1.1449998 1.743,1.8249998 z m -4.54,4.542 c 1.567,1.568 2.759,2.918 3.595,2.081 0.152,-0.152 0.241,-0.349 0.301,-0.565 -0.018,-0.043 -0.036,-0.087 -0.042,-0.136 -0.128,-1.148 -2.412,-3.642 -4.083,-4.721 l -1.517,1.517 c 0.439,0.539 1.065,1.144 1.746,1.824 z m -4.5419995,4.542 c 1.5669995,1.567 2.7589995,2.919 3.5959995,2.082 0.152,-0.152 0.241,-0.35 0.301,-0.566 -0.018,-0.043 -0.036,-0.087 -0.042,-0.136 -0.127,-1.148 -2.411,-3.643 -4.0819995,-4.722 l -1.517,1.517 c 0.437,0.54 1.063,1.145 1.744,1.825 z m -4.542,4.541 c 1.567,1.568 2.759,2.919 3.596,2.082 0.152,-0.152 0.241,-0.35 0.301,-0.566 -0.018,-0.043 -0.036,-0.086 -0.042,-0.135 -0.128,-1.148 -2.412,-3.643 -4.083,-4.722 l -0.801,0.801 c -0.246,0.246 -0.475,0.496 -0.691,0.747 0.437,0.532 1.053,1.126 1.72,1.793 z"
     id="path6"
     inkscape:connector-curvature="0"
     style="fill:#e5a157" />
  <path
     d="m 22.972436,2.5017252 c -0.126,0.106 -0.634,0.569 -0.762,0.696 1.67,1.08 3.952,3.574 4.08,4.721 0.005,0.049 0.023,0.093 0.042,0.136 0.077,0.182 0.252,0.309 0.455,0.309 l 0.057,-0.003 c 0.274,-0.031 0.472,-0.278 0.441,-0.553 -0.164,-1.452 -2.382,-4 -4.313,-5.306 z m -4.583,4.514 -0.724,0.724 c 1.671,1.079 3.956,3.5739998 4.083,4.7219998 0.005,0.049 0.023,0.092 0.041,0.135 0.076,0.183 0.252,0.31 0.455,0.31 l 0.057,-0.003 c 0.274,-0.031 0.472,-0.278 0.441,-0.552 -0.162,-1.464 -2.411,-4.0399998 -4.353,-5.3359998 z m -4.541,4.5409998 -0.724,0.724 c 1.671,1.079 3.955,3.574 4.083,4.721 0.005,0.049 0.023,0.093 0.042,0.136 0.077,0.182 0.252,0.309 0.454,0.309 l 0.057,-0.003 c 0.274,-0.031 0.472,-0.278 0.441,-0.552 -0.163,-1.463 -2.412,-4.038 -4.353,-5.335 z m -4.5419995,4.541 -0.724,0.724 c 1.6709995,1.079 3.9549995,3.574 4.0819995,4.722 0.005,0.049 0.023,0.093 0.042,0.136 0.077,0.183 0.252,0.309 0.455,0.309 l 0.056,-0.003 c 0.274,-0.03 0.472,-0.277 0.442,-0.552 -0.163,-1.463 -2.411,-4.039 -4.3529995,-5.336 z m -4.542,4.543 -0.724,0.724 c 1.671,1.079 3.955,3.574 4.083,4.722 0.005,0.049 0.023,0.092 0.042,0.135 0.077,0.182 0.252,0.309 0.455,0.309 0.019,0 0.037,-0.001 0.056,-0.003 0.274,-0.03 0.472,-0.278 0.442,-0.553 -0.164,-1.462 -2.413,-4.038 -4.354,-5.334 z"
     id="path8"
     inkscape:connector-curvature="0"
     style="fill:#ffd983" />
</svg>
