<?xml version="1.0" encoding="UTF-8" standalone="no"?>
<svg
   xmlns:dc="http://purl.org/dc/elements/1.1/"
   xmlns:cc="http://creativecommons.org/ns#"
   xmlns:rdf="http://www.w3.org/1999/02/22-rdf-syntax-ns#"
   xmlns:svg="http://www.w3.org/2000/svg"
   xmlns="http://www.w3.org/2000/svg"
   xmlns:sodipodi="http://sodipodi.sourceforge.net/DTD/sodipodi-0.dtd"
   xmlns:inkscape="http://www.inkscape.org/namespaces/inkscape"
   viewBox="0 0 34.101551 30.068264"
   id="svg2"
   version="1.1"
   inkscape:version="0.91 r13725"
   sodipodi:docname="1f957.svg"
   width="34.101551"
   height="30.068264">
  <metadata
     id="metadata34">
    <rdf:RDF>
      <cc:Work
         rdf:about="">
        <dc:format>image/svg+xml</dc:format>
        <dc:type
           rdf:resource="http://purl.org/dc/dcmitype/StillImage" />
      </cc:Work>
    </rdf:RDF>
  </metadata>
  <defs
     id="defs32" />
  <sodipodi:namedview
     pagecolor="#ffffff"
     bordercolor="#666666"
     borderopacity="1"
     objecttolerance="10"
     gridtolerance="10"
     guidetolerance="10"
     inkscape:pageopacity="0"
     inkscape:pageshadow="2"
     inkscape:window-width="640"
     inkscape:window-height="480"
     id="namedview30"
     showgrid="false"
     inkscape:zoom="6.5555556"
     inkscape:cx="17"
     inkscape:cy="17"
     inkscape:window-x="0"
     inkscape:window-y="0"
     inkscape:window-maximized="0"
     inkscape:current-layer="svg2" />
  <path
     d="m 17,30.068264 c -14.958,0 -17,-14 -17,-18 l 34,0 c 0,2 -1.958,18 -17,18 z"
     id="path4"
     inkscape:connector-curvature="0"
     style="fill:#ccd6dd" />
  <path
     d="m 34,12.124264 c 0,5.216 -7.611,9.444 -17,9.444 -9.389,0 -17,-4.229 -17,-9.444 0,-5.2159999 7.611,-8.4439999 17,-8.4439999 9.389,-10e-4 17,3.228 17,8.4439999 z"
     id="path6"
     inkscape:connector-curvature="0"
     style="fill:#66757f" />
  <path
     d="m 1.708,13.943264 c -0.808,-1.161 -2.333,-3.5 -0.708,-6.9999999 0.708,-1.833 2.18,-3.027 2.375,-2.458 0.458,1.333 1.375,2.5 2.75,2.375 -0.018,0.473 -0.669,-4.309 1.625,-5.584 1.125,-0.625 2.333,0.375 3.708,2.583 2.202,3.537 7.811,1.884 9.385,0.958 1.594,-0.938 2.99,-1.552 2.573,-4.062 -0.092,-0.551 0.743,-1.029 1.595,-0.573 1.431,0.766 3.498,2.671 3.863,4.761 1.021,0.271 1.786,-0.163 2.375,-1.354 0.292,-0.59 1.292,-0.729 1.72,0.041 0.754,1.356 1.992,5.527 0.239,9.1049999 -2,4.083 -5.042,6.25 -11.875,7.125 -6.833,0.875 -15.625,-0.167 -19.625,-5.917 z"
     id="path8"
     inkscape:connector-curvature="0"
     style="fill:#77b255" />
  <path
     d="m 18.417,5.2142641 c 0,2.106 -1.81,3.812 -4.042,3.812 -2.232,0 -4.042,-1.707 -4.042,-3.812 0,-2.105 1.81,-3.812 4.042,-3.812 2.232,-0.001 4.042,1.707 4.042,3.812 z"
     id="path10"
     inkscape:connector-curvature="0"
     style="fill:#5c913b" />
  <path
     d="m 17.417,5.2142641 c 0,1.585 -1.362,2.869 -3.042,2.869 -1.68,0 -3.042,-1.285 -3.042,-2.869 0,-1.585 1.362,-2.87 3.042,-2.87 1.68,10e-4 3.042,1.286 3.042,2.87 z"
     id="path12"
     inkscape:connector-curvature="0"
     style="fill:#c6e5b3" />
  <ellipse
     cx="7.1669998"
     cy="9.568264"
     rx="2.2920001"
     ry="2"
     id="ellipse14"
     style="fill:#292f33" />
  <path
     d="m 16.524,10.250264 c 1.267,2.388 -2.104,0.951 -4.614,2.284 -2.511,1.333 -3.209,4.929 -4.477,2.541 -1.268,-2.388 -0.26,-5.4039999 2.25,-6.7369999 2.511,-1.332 5.574,-0.476 6.841,1.9119999 z"
     id="path16"
     inkscape:connector-curvature="0"
     style="fill:#dd2e44" />
  <ellipse
     cx="23.167"
     cy="7.568264"
     rx="2.2920001"
     ry="2"
     id="ellipse18"
     style="fill:#292f33" />
  <path
     d="m 28.117,15.197264 c -1.564,1.48 -1.178,-1.412 -2.734,-3.056 -1.558,-1.644 -4.466,-1.415 -2.903,-2.8959999 1.563,-1.481 4.094,-1.349 5.65,0.294 1.557,1.6429999 1.551,4.1769999 -0.013,5.6579999 z"
     id="path20"
     inkscape:connector-curvature="0"
     style="fill:#9266cc" />
  <path
     d="m 27.117,16.197264 c -1.564,1.48 -1.178,-1.412 -2.734,-3.057 -1.558,-1.643 -4.466,-1.415 -2.903,-2.896 1.563,-1.4809999 4.094,-1.3489999 5.65,0.294 1.557,1.644 1.551,4.178 -0.013,5.659 z"
     id="path22"
     inkscape:connector-curvature="0"
     style="fill:#e1e8ed" />
  <path
     d="m 23.013,14.996264 c 0.781,2.062 -1.798,0.555 -3.966,1.377 -2.166,0.821 -3.1,3.658 -3.881,1.597 -0.781,-2.06 0.343,-4.398 2.509,-5.219 2.167,-0.821 4.556,0.185 5.338,2.245 z"
     id="path24"
     inkscape:connector-curvature="0"
     style="fill:#dd2e44" />
  <path
     d="m 7.958,14.152264 c -0.167,-1.542 2.833,-8.4179999 8.167,-2.417 -1.25,0.208 -4.292,0.208 -5.667,2.125 -1.375,1.917 -2.625,0.208 -2.5,0.292"
     id="path26"
     inkscape:connector-curvature="0"
     style="fill:#ea596e" />
  <path
     d="m 3.917,14.777264 c -0.728,-0.971 1.75,-3.209 3.625,-1.293 0.792,-0.958 4.708,-2.874 6.167,1.293 0.667,-0.75 6.125,-0.917 6.208,3.708 0.041,0.625 -6.295,0.506 -9.542,-0.25 -1.792,-0.417 -5.083,-1.625 -6.458,-3.458 z m 21.083,2.749 c -1.167,0.315 0.793,-5.125 4.459,-4.208 0.125,-1 0.916,-4.2919999 3.208,-3.7079999 C 32.75,10.568264 32.708,15.442264 25,17.526264 Z"
     id="path28"
     inkscape:connector-curvature="0"
     style="fill:#a6d388" />
</svg>
