<?xml version="1.0" encoding="UTF-8" standalone="no"?>
<svg
   xmlns:dc="http://purl.org/dc/elements/1.1/"
   xmlns:cc="http://creativecommons.org/ns#"
   xmlns:rdf="http://www.w3.org/1999/02/22-rdf-syntax-ns#"
   xmlns:svg="http://www.w3.org/2000/svg"
   xmlns="http://www.w3.org/2000/svg"
   xmlns:sodipodi="http://sodipodi.sourceforge.net/DTD/sodipodi-0.dtd"
   xmlns:inkscape="http://www.inkscape.org/namespaces/inkscape"
   viewBox="0 0 35.479889 35.553375"
   id="svg2"
   version="1.1"
   inkscape:version="0.91 r13725"
   sodipodi:docname="1f95c.svg"
   width="35.479889"
   height="35.553375">
  <metadata
     id="metadata14">
    <rdf:RDF>
      <cc:Work
         rdf:about="">
        <dc:format>image/svg+xml</dc:format>
        <dc:type
           rdf:resource="http://purl.org/dc/dcmitype/StillImage" />
      </cc:Work>
    </rdf:RDF>
  </metadata>
  <defs
     id="defs12" />
  <sodipodi:namedview
     pagecolor="#ffffff"
     bordercolor="#666666"
     borderopacity="1"
     objecttolerance="10"
     gridtolerance="10"
     guidetolerance="10"
     inkscape:pageopacity="0"
     inkscape:pageshadow="2"
     inkscape:window-width="640"
     inkscape:window-height="480"
     id="namedview10"
     showgrid="false"
     inkscape:zoom="6.5555556"
     inkscape:cx="17.519263"
     inkscape:cy="17.750362"
     inkscape:window-x="0"
     inkscape:window-y="0"
     inkscape:window-maximized="0"
     inkscape:current-layer="svg2" />
  <path
     d="m 16.775263,31.322012 c -4.754,4.754 -11.2069995,5.573 -14.6829995,2.097 -3.475,-3.475 -2.51700001,-10.066 2.099,-14.682 3.355,-3.356 6.7109995,-3.356 9.2279995,-5.873 2.517,-2.516 1.678,-5.0330002 5.454,-8.8090002 4.614,-4.61299996 10.486,-5.453 14.262,-1.678 3.774,3.776 2.832,9.7540002 -1.678,14.2630002 -3.775,3.775 -6.292,2.936 -8.809,5.452 -2.518,2.518 -2.518,5.873 -5.873,9.23 z"
     id="path4"
     inkscape:connector-curvature="0"
     style="fill:#d99e82" />
  <path
     d="m 7.7302635,21.200012 c -0.324,0 -0.643,-0.157 -0.835,-0.448 -0.305,-0.46 -0.179,-1.081 0.282,-1.386 0.682,-0.451 1.438,-0.853 2.245,-1.193 3.9379995,-1.516 6.9019995,-4.208 7.7649995,-7.037 0.161,-0.529 0.721,-0.829 1.248,-0.665 0.529,0.161 0.826,0.72 0.666,1.248 -1.039,3.406 -4.46,6.589 -8.931,8.309 -0.6649995,0.28 -1.3099995,0.623 -1.8889995,1.006 -0.17,0.113 -0.361,0.166 -0.551,0.166 z m -5.044,8.937 -0.022,0 c -0.552,-0.012 -0.99,-0.47 -0.979,-1.021 0.047,-2.164 0.385,-4.916 2.601,-7.002 0.403,-0.377 1.036,-0.358 1.414,0.043 0.379,0.402 0.359,1.035 -0.042,1.414 -1.666,1.567 -1.932,3.704 -1.972,5.588 -0.012,0.544 -0.458,0.978 -1,0.978 z m 4.125,-0.709 c -0.082,0 -0.166,-0.01 -0.249,-0.031 -0.535,-0.137 -0.858,-0.682 -0.721,-1.217 0.562,-2.191 1.782,-5.277 5.8749995,-6.774 0.517,-0.188 1.093,0.077 1.282,0.596 0.19,0.519 -0.077,1.093 -0.596,1.283 -3.1709995,1.159 -4.1369995,3.49 -4.6249995,5.392 -0.113,0.451 -0.52,0.751 -0.966,0.751 z m 17.6669995,-11.041 c -0.412,0 -0.798,-0.257 -0.943,-0.667 -0.184,-0.521 0.09,-1.092 0.61,-1.276 4.279,-1.51 6.849,-4.449 7.856,-8.9820002 0.12,-0.54 0.657,-0.874 1.193,-0.759 0.539,0.12 0.879,0.654 0.76,1.193 -1.154,5.1900002 -4.23,8.7010002 -9.144,10.4350002 -0.109,0.037 -0.222,0.056 -0.332,0.056 z"
     id="path6"
     inkscape:connector-curvature="0"
     style="fill:#c1694f" />
  <path
     d="m 23.978263,14.678012 c -0.397,0 -0.774,-0.24 -0.93,-0.632 -0.203,-0.514 0.048,-1.095 0.562,-1.298 1.722,-0.682 3.378,-2.263 4.12,-3.9350002 0.225,-0.502 0.813,-0.732 1.32,-0.508 0.505,0.225 0.731,0.815 0.508,1.32 -0.956,2.1510002 -3.002,4.1070002 -5.212,4.9820002 -0.121,0.049 -0.245,0.071 -0.368,0.071 z m -8.709,7.209 c -0.395,0 -0.768,-0.234 -0.926,-0.622 -0.209,-0.512 0.037,-1.095 0.548,-1.304 0.955,-0.39 1.979,-1.345 2.266,-1.832 0.28,-0.476 0.895,-0.635 1.369,-0.354 0.477,0.28 0.635,0.893 0.354,1.369 -0.513,0.873 -1.864,2.11 -3.233,2.669 -0.124,0.051 -0.252,0.074 -0.378,0.074 z m 4,-12.6670002 c -0.108,0 -0.22,-0.018 -0.328,-0.056 -0.522,-0.181 -0.798,-0.751 -0.617,-1.272 0.4,-1.152 1.234,-2.255 2.124,-2.812 0.469,-0.293 1.086,-0.15 1.378,0.318 0.293,0.468 0.15,1.085 -0.317,1.378 -0.421,0.263 -1.017,0.973 -1.295,1.772 -0.144,0.413 -0.531,0.672 -0.945,0.672 z M 5.9762635,33.718012 c -0.49,0 -0.917,-0.358 -0.988,-0.857 -0.064,-0.451 0,-1.253 0.098,-1.691 0.12,-0.539 0.659,-0.87 1.193,-0.759 0.539,0.12 0.879,0.655 0.759,1.194 -0.064,0.286 -0.09,0.824 -0.069,0.975 0.076,0.546 -0.305,1.053 -0.852,1.129 -0.048,0.006 -0.095,0.009 -0.141,0.009 z"
     id="path8"
     inkscape:connector-curvature="0"
     style="fill:#c1694f" />
</svg>
