<?xml version="1.0" encoding="UTF-8" standalone="no"?>
<svg
   xmlns:dc="http://purl.org/dc/elements/1.1/"
   xmlns:cc="http://creativecommons.org/ns#"
   xmlns:rdf="http://www.w3.org/1999/02/22-rdf-syntax-ns#"
   xmlns:svg="http://www.w3.org/2000/svg"
   xmlns="http://www.w3.org/2000/svg"
   xmlns:sodipodi="http://sodipodi.sourceforge.net/DTD/sodipodi-0.dtd"
   xmlns:inkscape="http://www.inkscape.org/namespaces/inkscape"
   viewBox="0 0 34.737343 33.128548"
   id="svg2"
   version="1.1"
   inkscape:version="0.91 r13725"
   sodipodi:docname="1f951.svg"
   width="34.737343"
   height="33.128548">
  <metadata
     id="metadata20">
    <rdf:RDF>
      <cc:Work
         rdf:about="">
        <dc:format>image/svg+xml</dc:format>
        <dc:type
           rdf:resource="http://purl.org/dc/dcmitype/StillImage" />
      </cc:Work>
    </rdf:RDF>
  </metadata>
  <defs
     id="defs18" />
  <sodipodi:namedview
     pagecolor="#ffffff"
     bordercolor="#666666"
     borderopacity="1"
     objecttolerance="10"
     gridtolerance="10"
     guidetolerance="10"
     inkscape:pageopacity="0"
     inkscape:pageshadow="2"
     inkscape:window-width="640"
     inkscape:window-height="480"
     id="namedview16"
     showgrid="false"
     inkscape:zoom="6.5555556"
     inkscape:cx="17.039697"
     inkscape:cy="17.627833"
     inkscape:window-x="0"
     inkscape:window-y="0"
     inkscape:window-maximized="0"
     inkscape:current-layer="svg2" />
  <path
     d="m 34.039697,3.4047162 c 2.394,6.042 -1.438,20.5429998 -10.5,26.4999998 -9.06,5.957 -20.3950004,3.573 -23.09700037,-6.443 -1.66900003,-6.186 2.78999997,-10.721 11.85100037,-16.6769998 9.061,-5.95700004 19.386,-9.337 21.746,-3.38 z"
     id="path4"
     inkscape:connector-curvature="0"
     style="fill:#3e721d" />
  <path
     d="m 19.644697,23.530716 c -6.523,4.546 -15.2870004,5.15 -18.4690004,0.582 -3.183,-4.566 0.418,-12.578 6.943,-17.1239998 6.5220004,-4.545 21.9510004,-9.796 25.1340004,-5.23 3.183,4.57 -7.085,17.2259998 -13.608,21.7719998"
     id="path6"
     inkscape:connector-curvature="0"
     style="fill:#3e721d" />
  <path
     d="m 18.854697,24.078716 c -5.757,4.013 -13.4820004,3.097 -16.2900004,-0.934 -2.80699997,-4.031 0.475,-11.17 6.232,-15.1809998 5.7550004,-4.011 20.2580004,-9.264 23.0680004,-5.234 2.807,4.03 -4.825,16.1749998 -13.01,21.3489998"
     id="path8"
     inkscape:connector-curvature="0"
     style="fill:#a6d388" />
  <path
     d="m 17.208697,21.426716 c -4.506,3.14 -9.9390004,3.127 -12.1360004,-0.027 -2.2,-3.154 -0.33,-8.255 4.176,-11.395 C 13.755697,6.8637162 25.083697,2.7667162 27.283697,5.9207162 c 2.199,3.154 -5.567,12.3659998 -10.075,15.5059998 z"
     id="path10"
     inkscape:connector-curvature="0"
     style="fill:#c6e5b3" />
  <path
     d="m 10.201697,9.9887162 c 3.48,-2.332 7.382,-1.495 9.798,0.9949998 1.433,1.477 -0.88,5.382 -4.359,7.714 -3.478,2.33 -7.7690004,1.763 -8.2390004,0.731 -1.44,-3.157 -0.677,-7.109 2.8000004,-9.4399998 z"
     id="path12"
     inkscape:connector-curvature="0"
     style="fill:#662113" />
  <path
     d="m 12.110697,10.606716 c 1.51,-1.0129998 3.414,-0.8189998 4.254,0.431 0.837,1.251 0.294,3.087 -1.217,4.1 -1.51,1.01 -3.414,0.817 -4.253,-0.433 -0.839,-1.252 -0.294,-3.086 1.216,-4.098 z"
     id="path14"
     inkscape:connector-curvature="0"
     style="fill:#7c3225" />
</svg>
