<?xml version="1.0" encoding="UTF-8" standalone="no"?>
<svg
   xmlns:dc="http://purl.org/dc/elements/1.1/"
   xmlns:cc="http://creativecommons.org/ns#"
   xmlns:rdf="http://www.w3.org/1999/02/22-rdf-syntax-ns#"
   xmlns:svg="http://www.w3.org/2000/svg"
   xmlns="http://www.w3.org/2000/svg"
   xmlns:sodipodi="http://sodipodi.sourceforge.net/DTD/sodipodi-0.dtd"
   xmlns:inkscape="http://www.inkscape.org/namespaces/inkscape"
   viewBox="0 0 34.083187 32.449139"
   id="svg2"
   version="1.1"
   inkscape:version="0.91 r13725"
   sodipodi:docname="1f959.svg"
   width="34.083187"
   height="32.449139">
  <metadata
     id="metadata36">
    <rdf:RDF>
      <cc:Work
         rdf:about="">
        <dc:format>image/svg+xml</dc:format>
        <dc:type
           rdf:resource="http://purl.org/dc/dcmitype/StillImage" />
      </cc:Work>
    </rdf:RDF>
  </metadata>
  <defs
     id="defs34" />
  <sodipodi:namedview
     pagecolor="#ffffff"
     bordercolor="#666666"
     borderopacity="1"
     objecttolerance="10"
     gridtolerance="10"
     guidetolerance="10"
     inkscape:pageopacity="0"
     inkscape:pageshadow="2"
     inkscape:window-width="640"
     inkscape:window-height="480"
     id="namedview32"
     showgrid="false"
     inkscape:zoom="6.5555556"
     inkscape:cx="17.030229"
     inkscape:cy="16.099342"
     inkscape:window-x="0"
     inkscape:window-y="0"
     inkscape:window-maximized="0"
     inkscape:current-layer="svg2" />
  <path
     d="m 32.238229,4.8077957 c -3.333,-4.20799997 -28.6659995,-1.75 -32.16699953,7.6670003 -0.874,9.875 6.34400003,21.152 18.95899953,19.875 13.167,-1.333 18.083,-12.416 13.208,-27.5420003 z"
     id="path4"
     inkscape:connector-curvature="0"
     style="fill:#edb97f" />
  <path
     d="m 3.0302295,10.349796 c 2.736,-2.3480003 12.9999995,-8.0000003 24.9999995,-6.0000003 8,0.75 -0.708,7.5420003 -9.708,9.5420003 -7.87,1.749 -20.2919995,0.75 -15.2919995,-3.542 z"
     id="path6"
     inkscape:connector-curvature="0"
     style="fill:#ffd983" />
  <path
     d="m 28.686229,6.9747957 c 1.438,-1.5 1.188,-6.06199997 0.531,-6.81199997 -0.968,-0.813 -1.937,1.64499997 -4.812,2.39499997 -0.708,-1.375 -1.481,-1.85199997 -1.5,-1.86499997 -0.833,-0.593 -2.625,-0.509 -3.125,1.90699997 -1.719,-1.5 -5.323,-1.63599997 -5.542,-0.833 -1.333,4.896 -3.166,5.541 -5.1659995,7.583 -3.009,3.0720003 2.7079995,3.6880003 8.5209995,1.8750003 5.813,-1.8130003 11.093,-4.2500003 11.093,-4.2500003 z"
     id="path8"
     inkscape:connector-curvature="0"
     style="fill:#77b255" />
  <path
     d="m 11.280229,8.8917957 c -0.5,-3.5 -6.8479995,-4.161 -8.2499995,-3.082 -2,1.54 -0.833,6.3730003 1.25,7.0400003 3.639,1.164 6.9999995,-3.9580003 6.9999995,-3.9580003 z"
     id="path10"
     inkscape:connector-curvature="0"
     style="fill:#77b255" />
  <path
     d="m 4.2802295,12.849796 c -1.336,-0.528 0.625,-3.5000003 2.75,-4.0830003 2.125,-0.583 3.1249995,0.5 3.5419995,1.083 0.042,-0.583 0.875,-1.583 1.583,-1.792 0.708,-0.208 1.542,0.167 1.958,1.042 0,-0.917 0.042,-3.875 3.333,-4.833 0.875,-0.292 3.375,-0.375 3.917,1 0.833,-0.708 3.584,-1.333 4.25,0.375 0.291,-0.5 2.625,-1.375 3.541,0.292 0.667,0.917 -0.362,1.802 -2.041,2.917 -5.458,3.6240003 -17.6659995,6.0410003 -22.8329995,3.9990003 z"
     id="path12"
     inkscape:connector-curvature="0"
     style="fill:#662113" />
  <circle
     cx="6.8632298"
     cy="10.807796"
     r="1.25"
     id="circle14"
     style="fill:#c1694f" />
  <circle
     cx="22.864229"
     cy="8.8077955"
     r="1.25"
     id="circle16"
     style="fill:#c1694f" />
  <path
     d="m 20.781229,7.1417957 c 0,0.875 -0.71,1.584 -1.583,1.584 -0.876,0 -1.584,-0.709 -1.584,-1.584 0,-0.875 0.708,-1.583 1.584,-1.583 0.873,-0.001 1.583,0.708 1.583,1.583 z m -9.751,5.1250003 c 0,0.391 -0.317,0.708 -0.708,0.708 -0.3919995,0 -0.7079995,-0.317 -0.7079995,-0.708 0,-0.392 0.317,-0.708 0.7079995,-0.708 0.391,-10e-4 0.708,0.316 0.708,0.708 z"
     id="path18"
     inkscape:connector-curvature="0"
     style="fill:#c1694f" />
  <path
     d="m 15.780229,8.4117957 c 0.297,-0.604 3.341,2.1230003 2.562,3.8750003 -0.75,0.375 -3.375,0.844 -6.125,1.125 1.23,-0.874 2.896,-3.6450003 3.563,-5.0000003 z"
     id="path20"
     inkscape:connector-curvature="0"
     style="fill:#dd2e44" />
  <path
     d="m 14.968229,9.9117957 c 0.487,-0.975 2.312,1.6880003 1.688,2.7810003 -0.969,0.281 -3.719,0.688 -4.594,0.781 0.624,-0.812 2.406,-2.562 2.906,-3.5620003 z"
     id="path22"
     inkscape:connector-curvature="0"
     style="fill:#ea596e" />
  <path
     d="m 20.592229,11.755796 c 0.75,-0.219 4.469,-1.25 6.969,-3.1880003 0.062,-1.281 -0.969,-2.906 -2.656,-0.156 -1.125,-0.687 -3.906,0.626 -4.313,3.3440003 z"
     id="path24"
     inkscape:connector-curvature="0"
     style="fill:#77b255" />
  <circle
     cx="25.03023"
     cy="21.349796"
     r="2"
     id="circle26"
     style="fill:#e5a157" />
  <circle
     cx="22.03023"
     cy="26.349796"
     r="1"
     id="circle28"
     style="fill:#e5a157" />
  <circle
     cx="14.53023"
     cy="22.849796"
     r="1.5"
     id="circle30"
     style="fill:#e5a157" />
</svg>
