<?xml version="1.0" encoding="UTF-8" standalone="no"?>
<svg
   xmlns:dc="http://purl.org/dc/elements/1.1/"
   xmlns:cc="http://creativecommons.org/ns#"
   xmlns:rdf="http://www.w3.org/1999/02/22-rdf-syntax-ns#"
   xmlns:svg="http://www.w3.org/2000/svg"
   xmlns="http://www.w3.org/2000/svg"
   xmlns:sodipodi="http://sodipodi.sourceforge.net/DTD/sodipodi-0.dtd"
   xmlns:inkscape="http://www.inkscape.org/namespaces/inkscape"
   viewBox="0 0 35.558613 30.21036"
   id="svg2"
   version="1.1"
   inkscape:version="0.91 r13725"
   sodipodi:docname="1f954.svg"
   width="35.558613"
   height="30.21036">
  <metadata
     id="metadata20">
    <rdf:RDF>
      <cc:Work
         rdf:about="">
        <dc:format>image/svg+xml</dc:format>
        <dc:type
           rdf:resource="http://purl.org/dc/dcmitype/StillImage" />
      </cc:Work>
    </rdf:RDF>
  </metadata>
  <defs
     id="defs18" />
  <sodipodi:namedview
     pagecolor="#ffffff"
     bordercolor="#666666"
     borderopacity="1"
     objecttolerance="10"
     gridtolerance="10"
     guidetolerance="10"
     inkscape:pageopacity="0"
     inkscape:pageshadow="2"
     inkscape:window-width="640"
     inkscape:window-height="480"
     id="namedview16"
     showgrid="false"
     inkscape:zoom="6.5555556"
     inkscape:cx="17.75"
     inkscape:cy="14.479738"
     inkscape:window-x="0"
     inkscape:window-y="0"
     inkscape:window-maximized="0"
     inkscape:current-layer="svg2" />
  <path
     d="M 0,10.730622 C 0,3.5726222 10,-4.2693778 18,2.7306222 c 2.714,2.375 5,4 5,7 12,-2 13.703,8.8919998 12,13.9999998 -1,3 -5.868,11.059 -24,3 -9,-4 -11,-11.616 -11,-16 z"
     id="path4"
     inkscape:connector-curvature="0"
     style="fill:#d99e82" />
  <path
     d="m 17.46,12.552622 c 1.827,-1.737 3.628,-2.498 5.649,-2.8379998 l -0.109,0.015 c 0,-0.858 -0.204,-1.597 -0.534,-2.28 -2.074,0.772 -4.288,2.281 -5.006,5.1029998 z"
     id="path6"
     inkscape:connector-curvature="0"
     style="fill:#c1694f" />
  <circle
     cx="10"
     cy="13.730622"
     r="1"
     id="circle8"
     style="fill:#c1694f" />
  <circle
     cx="30"
     cy="23.730621"
     r="1"
     id="circle10"
     style="fill:#c1694f" />
  <circle
     cx="14.5"
     cy="23.230621"
     r="1.5"
     id="circle12"
     style="fill:#c1694f" />
  <circle
     cx="5.5"
     cy="17.230621"
     r="1.5"
     id="circle14"
     style="fill:#c1694f" />
</svg>
