<?xml version="1.0" encoding="UTF-8" standalone="no"?>
<svg
   xmlns:dc="http://purl.org/dc/elements/1.1/"
   xmlns:cc="http://creativecommons.org/ns#"
   xmlns:rdf="http://www.w3.org/1999/02/22-rdf-syntax-ns#"
   xmlns:svg="http://www.w3.org/2000/svg"
   xmlns="http://www.w3.org/2000/svg"
   xmlns:sodipodi="http://sodipodi.sourceforge.net/DTD/sodipodi-0.dtd"
   xmlns:inkscape="http://www.inkscape.org/namespaces/inkscape"
   viewBox="0 0 33.930309 33.588905"
   id="svg2"
   version="1.1"
   inkscape:version="0.91 r13725"
   sodipodi:docname="1f965.svg"
   width="33.930309"
   height="33.588905">
  <metadata
     id="metadata30">
    <rdf:RDF>
      <cc:Work
         rdf:about="">
        <dc:format>image/svg+xml</dc:format>
        <dc:type
           rdf:resource="http://purl.org/dc/dcmitype/StillImage" />
      </cc:Work>
    </rdf:RDF>
  </metadata>
  <defs
     id="defs28" />
  <sodipodi:namedview
     pagecolor="#ffffff"
     bordercolor="#666666"
     borderopacity="1"
     objecttolerance="10"
     gridtolerance="10"
     guidetolerance="10"
     inkscape:pageopacity="0"
     inkscape:pageshadow="2"
     inkscape:window-width="640"
     inkscape:window-height="480"
     id="namedview26"
     showgrid="false"
     inkscape:zoom="6.5555556"
     inkscape:cx="17.378825"
     inkscape:cy="17.051426"
     inkscape:window-x="0"
     inkscape:window-y="0"
     inkscape:window-maximized="0"
     inkscape:current-layer="svg2" />
  <path
     d="m 4.8848245,28.70448 c -7.03,-7.029 -6.397,-19.0589995 1.414,-26.8699995 L 31.754825,27.29048 c -7.811,7.811 -19.841,8.443 -26.8700005,1.414 z"
     id="path4"
     inkscape:connector-curvature="0"
     style="fill:#8b5e3c" />
  <path
     d="m 6.2988245,1.8344805 c -3.905,3.905 -1.373,12.7699995 5.6560005,19.7999995 7.031,7.029 15.895,9.561 19.799,5.656 3.905,-3.904 1.374,-12.769 -5.657,-19.7989995 -7.028,-7.03 -15.893,-9.561 -19.7980005,-5.657 z"
     id="path6"
     inkscape:connector-curvature="0"
     style="fill:#603913" />
  <path
     d="m 30.969825,22.75448 c 0.229,0.229 0.56,0.336 0.887,0.276 0.387,-0.071 0.696,-0.362 0.79,-0.745 0.067,-0.269 1.575,-6.67 -3.013,-11.258 -1.12,-1.1199995 -2.783,-3.7739995 -3.256,-4.5439995 -0.4,-0.415 -0.733,-0.27 -1.498,-1.035 -0.35,-0.35 -1.405,-2.248 -4.439,0.629 -0.35,0.332 -0.39,0.878 -0.116,1.275 l 10.528,15.2629995 c 0.036,0.05 0.075,0.097 0.117,0.139 z"
     id="path8"
     inkscape:connector-curvature="0"
     style="fill:#f5f8fa" />
  <path
     d="m 23.649825,6.0994805 c 0.707,0.707 1.458,1.417 1.458,1.417 0,0 2.404,2.8039995 3.819,4.2179995 4.242,4.243 2.75,10.313 2.75,10.313 l -11.652,-15.6769995 c 0,0 2.792,-1.042 3.625,-0.271 z m 1.271,-1.354 c -1.833,-1.438 -4.777,-0.315 -5.5,0.396 -0.683,0.683 -0.467,1.984 0.081,2.778 l 10.528,15.2629995 c 0.07,0.101 0.147,0.193 0.232,0.278 0.46,0.46 1.121,0.673 1.775,0.553 0.774,-0.142 1.393,-0.725 1.581,-1.489 0.072,-0.293 1.705,-7.223 -3.277,-12.205 -0.892,-0.8919995 -1.938,-1.7379995 -2.909,-2.9129995 -0.329,-0.423 -1.186,-1.441 -2.074,-2.328 l -0.437,-0.333 z"
     id="path10"
     inkscape:connector-curvature="0"
     style="fill:#603913" />
  <path
     d="m 7.7128245,3.2484805 c -3.124,3.124 -0.592,10.7219995 5.6570005,16.9699995 6.247,6.248 13.846,8.781 16.97,5.657 3.124,-3.124 0.591,-10.723 -5.657,-16.9709995 -6.248,-6.247 -13.846,-8.78 -16.9700005,-5.656 z"
     id="path12"
     inkscape:connector-curvature="0"
     style="fill:#f5f8fa" />
  <path
     d="m 9.7898245,5.4144805 c -2.318,2.318 -0.083,8.3139995 4.9940005,13.3909995 5.078,5.078 11.072,7.312 13.391,4.994 2.318,-2.318 0.083,-8.313 -4.994,-13.391 -5.076,-5.0779995 -11.072,-7.3129995 -13.3910005,-4.9939995 z"
     id="path14"
     inkscape:connector-curvature="0"
     style="fill:#99aab5" />
  <path
     d="m 19.577825,8.4764805 1.176,-0.335 c 0.562,-0.312 1.354,-0.333 1.896,0.167 l 1.211,1.273 c 0.573,0.6899995 1.919,2.1369995 2.995,3.2129995 3.807,3.807 2.319,8.722 2.253,8.93 -0.057,0.182 -0.213,0.315 -0.401,0.344 -0.159,0.024 -0.318,-0.029 -0.429,-0.141 -0.021,-0.021 -0.04,-0.043 -0.058,-0.068 l -8.797,-12.6689995 c -0.079,-0.114 -0.108,-0.254 -0.078,-0.39 0.029,-0.135 0.113,-0.252 0.232,-0.324 z"
     id="path16"
     inkscape:connector-curvature="0"
     style="fill:#99aab5" />
  <path
     d="m 23.138825,24.59348 c 0,0 -3.209,-2.085 -3.771,-3.771 -0.628,-1.885 -4.662,-2.252 -5.29,-4.138 -0.627,-1.885 -1.676,-4.765 -2.253,-5.918 -0.576,-1.1529995 -1.258,-10e-4 -1.8860005,-1.8859995 -0.628,-1.887 -1.885,-3.144 -1.885,-3.144 0,0 0,8.8009995 1.885,10.6859995 1.8860005,1.886 9.4290005,9.429 10.0580005,8.799 0.628,-0.628 3.142,-0.628 3.142,-0.628 z"
     id="path18"
     inkscape:connector-curvature="0"
     style="fill:#f5f8fa" />
  <path
     d="m 22.216825,26.26748 c 0,0 -3.73,-2.537 -4.316,-4.294 -0.655,-1.964 -5.29,-2.619 -5.944,-4.583 -0.655,-1.964 -1.596,-5.486 -1.913,-5.892 -0.9160005,-1.18 -1.3090005,-0.001 -1.9640005,-1.9639995 -0.655,-1.965 -1.964,-3.274 -1.964,-3.274 0,0 0,9.1659995 1.964,11.1299995 1.9640005,1.965 9.8200005,9.821 10.4760005,9.166 0.655,-0.654 3.661,-0.289 3.661,-0.289 z"
     id="path20"
     inkscape:connector-curvature="0"
     style="fill:#603913" />
  <path
     d="m 21.147825,27.99748 c 0,0 -3.61,-2.345 -4.242,-4.242 -0.707,-2.121 -6.365,-3.536 -7.0720005,-5.657 -0.707,-2.122 -0.707,-4.95 -1.414,-5.657 -0.707,-0.708 -1.414,0 -2.121,-2.122 -0.707,-2.1209995 -2.121,-3.5349995 -2.121,-3.5349995 0,0 0,9.8999995 2.121,12.0209995 2.121,2.121 10.6060005,10.606 11.3130005,9.899 0.708,-0.707 3.536,-0.707 3.536,-0.707 z"
     id="path22"
     inkscape:connector-curvature="0"
     style="fill:#8b5e3c" />
  <path
     d="m 10.189825,31.39048 c 0.091,-0.285 0.836,-0.061 1.113,0.001 6.934,1.526 11.66,-1.385 11.712,-1.409 0.272,-0.136 0.579,-0.034 0.685,0.224 0.106,0.258 -0.026,0.577 -0.296,0.712 -0.225,0.112 -4.808,2.55 -12.125,0.939 -0.091,-0.021 -0.721,-0.131 -0.781,-0.191 -0.123,-0.123 -0.37,-0.084 -0.308,-0.276 z m -8.3640005,-9.968 c 0.115,0.114 0.108,0.212 0.29,0.165 0.288,-0.073 0.299,-0.517 0.255,-0.798 -0.492,-3.192 0.36,-6.504 1.841,-10.352 0.107,-0.281 -0.027,-0.5749995 -0.294,-0.6519995 -0.272,-0.08 -0.579,0.084 -0.687,0.3639995 -1.555,4.034 -2.057,7.636 -1.536,11.013 0.017,0.104 0.064,0.192 0.131,0.26 z m 10.3570005,9.178 c 0.07,0.071 0.167,0.118 0.279,0.132 3.769,0.426 6.893,-1.137 7.024,-1.204 0.269,-0.137 0.4,-0.456 0.291,-0.714 -0.108,-0.259 -0.417,-0.356 -0.688,-0.218 -0.029,0.015 -2.743,1.843 -6.181,1.453 -0.285,-0.032 -0.826,-0.016 -0.889,0.275 -0.036,0.177 0.053,0.166 0.164,0.276 z"
     id="path24"
     inkscape:connector-curvature="0"
     style="fill:#a97c50" />
</svg>
