<?xml version="1.0" encoding="UTF-8" standalone="no"?>
<svg
   xmlns:dc="http://purl.org/dc/elements/1.1/"
   xmlns:cc="http://creativecommons.org/ns#"
   xmlns:rdf="http://www.w3.org/1999/02/22-rdf-syntax-ns#"
   xmlns:svg="http://www.w3.org/2000/svg"
   xmlns="http://www.w3.org/2000/svg"
   xmlns:sodipodi="http://sodipodi.sourceforge.net/DTD/sodipodi-0.dtd"
   xmlns:inkscape="http://www.inkscape.org/namespaces/inkscape"
   viewBox="0 0 34 22"
   id="svg2"
   version="1.1"
   inkscape:version="0.91 r13725"
   sodipodi:docname="1f969.svg"
   width="34"
   height="22">
  <metadata
     id="metadata22">
    <rdf:RDF>
      <cc:Work
         rdf:about="">
        <dc:format>image/svg+xml</dc:format>
        <dc:type
           rdf:resource="http://purl.org/dc/dcmitype/StillImage" />
      </cc:Work>
    </rdf:RDF>
  </metadata>
  <defs
     id="defs20" />
  <sodipodi:namedview
     pagecolor="#ffffff"
     bordercolor="#666666"
     borderopacity="1"
     objecttolerance="10"
     gridtolerance="10"
     guidetolerance="10"
     inkscape:pageopacity="0"
     inkscape:pageshadow="2"
     inkscape:window-width="640"
     inkscape:window-height="480"
     id="namedview18"
     showgrid="false"
     inkscape:zoom="6.5555556"
     inkscape:cx="17"
     inkscape:cy="11"
     inkscape:window-x="0"
     inkscape:window-y="0"
     inkscape:window-maximized="0"
     inkscape:current-layer="svg2" />
  <path
     d="M 17,4 C 8,4 0,7.461 0,13 c 0,4.154 4,7.615 10,7.615 3.454,0 7.111,-2.085 9.727,-2.085 0.093,0 0.184,0.003 0.273,0.008 3.909,0.235 4,3.462 9,3.462 2.341,0 5,-2.077 5,-6.923 C 34,8.846 27,4 17,4 Z"
     id="path4"
     inkscape:connector-curvature="0"
     style="fill:#ffd983" />
  <path
     d="m 32,11 2,0 0,4 -2,0 z M 0,9 2,9 2,13 0,13 Z"
     id="path6"
     inkscape:connector-curvature="0"
     style="fill:#ffd983" />
  <path
     d="m 29,17.308 c -2.271,0 -3.282,-0.755 -4.455,-1.628 -1.069,-0.797 -2.281,-1.699 -4.458,-1.831 -0.119,-0.007 -0.238,-0.011 -0.36,-0.011 -1.433,0 -2.978,0.483 -4.613,0.996 -1.712,0.535 -3.482,1.089 -5.113,1.089 -5.215,0 -9,-2.912 -9,-6.923 0,-5.396 8.244,-8.308 16,-8.308 9.271,0 16,4.367 16,10.385 C 33,15.648 30.607,17.308 29,17.308 Z"
     id="path8"
     inkscape:connector-curvature="0"
     style="fill:#a0041e" />
  <path
     d="m 17,1.385 c 8.691,0 15,4.076 15,9.692 0,4.144 -2.06,5.538 -3,5.538 -1.834,0 -2.585,-0.559 -3.723,-1.407 -1.133,-0.844 -2.543,-1.895 -5.104,-2.049 -0.146,-0.009 -0.295,-0.014 -0.446,-0.014 -1.648,0 -3.289,0.514 -5.025,1.057 C 13.086,14.708 11.416,15.23 10,15.23 6.024,15.23 2,13.089 2,9 2,4.054 9.729,1.385 17,1.385 M 17,0 C 8,0 0,3.461 0,9 c 0,4.154 4,7.615 10,7.615 3.454,0 7.111,-2.085 9.727,-2.085 0.093,0 0.184,0.003 0.273,0.008 3.909,0.235 4,3.462 9,3.462 2.341,0 5,-2.077 5,-6.923 C 34,4.846 27,0 17,0 Z"
     id="path10"
     inkscape:connector-curvature="0"
     style="fill:#ffe8b6" />
  <path
     d="m 15.161,1.443 c 0,0 2.839,-0.058 4.839,1.326 1,0.692 0.335,2.25 0.335,2.25 L 22,5.539 c 0,0 -0.062,-0.835 3,-1.385 2.251,-0.404 4.542,1.385 4.542,1.385 0,0 -2.542,-3.462 -7.542,-4.154 -5,-0.693 -6.839,0.058 -6.839,0.058 z"
     id="path12"
     inkscape:connector-curvature="0"
     style="fill:#ffe8b6" />
  <path
     d="m 24,6.923 c 0,1.529 -1.791,2.769 -4,2.769 -2.209,0 -4,-1.24 -4,-2.769 0,-1.529 1.791,-2.769 4,-2.769 2.209,0 4,1.24 4,2.769 z"
     id="path14"
     inkscape:connector-curvature="0"
     style="fill:#e6e7e8" />
  <path
     d="m 22,6.923 c 0,0.765 -0.896,1.385 -2,1.385 -1.104,0 -2,-0.62 -2,-1.385 0,-0.765 0.896,-1.384 2,-1.384 1.104,0 2,0.619 2,1.384 z"
     id="path16"
     inkscape:connector-curvature="0"
     style="fill:#a7a9ac" />
</svg>
