<?xml version="1.0" encoding="UTF-8" standalone="no"?>
<svg
   xmlns:dc="http://purl.org/dc/elements/1.1/"
   xmlns:cc="http://creativecommons.org/ns#"
   xmlns:rdf="http://www.w3.org/1999/02/22-rdf-syntax-ns#"
   xmlns:svg="http://www.w3.org/2000/svg"
   xmlns="http://www.w3.org/2000/svg"
   xmlns:sodipodi="http://sodipodi.sourceforge.net/DTD/sodipodi-0.dtd"
   xmlns:inkscape="http://www.inkscape.org/namespaces/inkscape"
   viewBox="0 0 24 36"
   id="svg2"
   version="1.1"
   inkscape:version="0.91 r13725"
   sodipodi:docname="1f96b.svg"
   width="24"
   height="36">
  <metadata
     id="metadata44">
    <rdf:RDF>
      <cc:Work
         rdf:about="">
        <dc:format>image/svg+xml</dc:format>
        <dc:type
           rdf:resource="http://purl.org/dc/dcmitype/StillImage" />
      </cc:Work>
    </rdf:RDF>
  </metadata>
  <defs
     id="defs42" />
  <sodipodi:namedview
     pagecolor="#ffffff"
     bordercolor="#666666"
     borderopacity="1"
     objecttolerance="10"
     gridtolerance="10"
     guidetolerance="10"
     inkscape:pageopacity="0"
     inkscape:pageshadow="2"
     inkscape:window-width="640"
     inkscape:window-height="480"
     id="namedview40"
     showgrid="false"
     inkscape:zoom="6.5555556"
     inkscape:cx="12"
     inkscape:cy="18"
     inkscape:window-x="0"
     inkscape:window-y="0"
     inkscape:window-maximized="0"
     inkscape:current-layer="svg2" />
  <path
     d="M 24,32.5 C 24,34.433 18.627,36 12,36 5.373,36 0,34.433 0,32.5 0,30.568 5.372,29 12,29 c 6.627,0 12,1.567 12,3.5 z"
     id="path4"
     inkscape:connector-curvature="0"
     style="fill:#99aab5" />
  <path
     d="m 0,31.5 24,0 0,1 -24,0 z"
     id="path6"
     inkscape:connector-curvature="0"
     style="fill:#99aab5" />
  <path
     d="M 24,31.5 C 24,33.433 18.627,35 12,35 5.373,35 0,33.433 0,31.5 0,29.567 5.372,28 12,28 c 6.627,0 12,1.567 12,3.5 z"
     id="path8"
     inkscape:connector-curvature="0"
     style="fill:#e6e7e8" />
  <path
     d="m 23,31 c 0,1.656 -4.926,3 -11,3 -6.075,0 -11,-1.343 -11,-3 0,-1.657 4.924,-3 11,-3 6.075,0 11,1.343 11,3 z"
     id="path10"
     inkscape:connector-curvature="0"
     style="fill:#5c913b" />
  <path
     d="M 1,8 23,8 23,31 1,31 Z"
     id="path12"
     inkscape:connector-curvature="0"
     style="fill:#5c913b" />
  <path
     d="m 23,23 c 0,1.932 -4.926,3.5 -11,3.5 -6.075,0 -11,-1.567 -11,-3.5 0,-1.933 4.924,-3.5 11,-3.5 6.074,0 11,1.567 11,3.5 z"
     id="path14"
     inkscape:connector-curvature="0"
     style="fill:#a6d388" />
  <path
     d="m 1,10 22,0 0,13 -22,0 z"
     id="path16"
     inkscape:connector-curvature="0"
     style="fill:#a6d388" />
  <path
     d="m 23,14 c 0,1.932 -4.926,3.5 -11,3.5 -6.075,0 -10.999,-1.567 -10.999,-3.5 0,-1.933 4.924,-3.5 10.999,-3.5 6.074,0 11,1.567 11,3.5 z"
     id="path18"
     inkscape:connector-curvature="0"
     style="fill:#5c913b" />
  <path
     d="M 1,4 23,4 23,14 1,14 Z"
     id="path20"
     inkscape:connector-curvature="0"
     style="fill:#5c913b" />
  <path
     d="M 24,4.5 C 24,6.433 18.627,8 12,8 5.373,8 0,6.433 0,4.5 0,2.567 5.373,1 12,1 18.627,1 24,2.567 24,4.5 Z"
     id="path22"
     inkscape:connector-curvature="0"
     style="fill:#99aab5" />
  <path
     d="m 0,3.5 24,0 0,1 -24,0 z"
     id="path24"
     inkscape:connector-curvature="0"
     style="fill:#99aab5" />
  <path
     d="M 24,3.5 C 24,5.433 18.627,7 12,7 5.373,7 0,5.433 0,3.5 0,1.567 5.373,0 12,0 18.627,0 24,1.567 24,3.5 Z"
     id="path26"
     inkscape:connector-curvature="0"
     style="fill:#e6e7e8" />
  <path
     d="M 22.25,3.5 C 22.25,4.881 17.662,6 12,6 6.338,6 1.75,4.881 1.75,3.5 1.75,2.119 6.338,1 12,1 17.662,1 22.25,2.119 22.25,3.5 Z"
     id="path28"
     inkscape:connector-curvature="0"
     style="fill:#ccd6dd" />
  <path
     d="m 21.25,3.5 c 0,1.105 -4.14,2 -9.25,2 -5.11,0 -9.25,-0.895 -9.25,-2 0,-1.105 4.141,-2 9.25,-2 5.11,0 9.25,0.895 9.25,2 z"
     id="path30"
     inkscape:connector-curvature="0"
     style="fill:#e6e7e8" />
  <path
     d="M 18,3.5 C 18,4.19 15.314,4.75 12,4.75 8.686,4.75 6,4.19 6,3.5 6,2.81 8.686,2.25 12,2.25 c 3.314,0 6,0.56 6,1.25 z"
     id="path32"
     inkscape:connector-curvature="0"
     style="fill:#ccd6dd" />
  <ellipse
     cx="12"
     cy="3.5"
     rx="4.75"
     ry="0.75"
     id="ellipse34"
     style="fill:#e6e7e8" />
  <path
     d="m 19,21 c 0,4.142 -3.134,7.5 -7,7.5 -3.866,0 -7,-3.358 -7,-7.5 0,-4.142 3.134,-7.5 7,-7.5 3.866,0 7,3.358 7,7.5 z"
     id="path36"
     inkscape:connector-curvature="0"
     style="fill:#ffcc4d" />
  <path
     d="m 17,21 c 0,3.156 -2.239,5.715 -5,5.715 -2.761,0 -5,-2.56 -5,-5.715 0,-3.155 2.238,-5.714 5,-5.714 2.762,0 5,2.558 5,5.714 z"
     id="path38"
     inkscape:connector-curvature="0"
     style="fill:#ffac33" />
</svg>
