<?xml version="1.0" encoding="UTF-8" standalone="no"?>
<svg
   xmlns:dc="http://purl.org/dc/elements/1.1/"
   xmlns:cc="http://creativecommons.org/ns#"
   xmlns:rdf="http://www.w3.org/1999/02/22-rdf-syntax-ns#"
   xmlns:svg="http://www.w3.org/2000/svg"
   xmlns="http://www.w3.org/2000/svg"
   xmlns:sodipodi="http://sodipodi.sourceforge.net/DTD/sodipodi-0.dtd"
   xmlns:inkscape="http://www.inkscape.org/namespaces/inkscape"
   viewBox="0 0 35.498947 35.499947"
   id="svg2"
   version="1.1"
   inkscape:version="0.91 r13725"
   sodipodi:docname="1f96c.svg"
   width="35.498947"
   height="35.499947">
  <metadata
     id="metadata18">
    <rdf:RDF>
      <cc:Work
         rdf:about="">
        <dc:format>image/svg+xml</dc:format>
        <dc:type
           rdf:resource="http://purl.org/dc/dcmitype/StillImage" />
      </cc:Work>
    </rdf:RDF>
  </metadata>
  <defs
     id="defs16" />
  <sodipodi:namedview
     pagecolor="#ffffff"
     bordercolor="#666666"
     borderopacity="1"
     objecttolerance="10"
     gridtolerance="10"
     guidetolerance="10"
     inkscape:pageopacity="0"
     inkscape:pageshadow="2"
     inkscape:window-width="640"
     inkscape:window-height="480"
     id="namedview14"
     showgrid="false"
     inkscape:zoom="6.5555556"
     inkscape:cx="17.748948"
     inkscape:cy="17.749948"
     inkscape:window-x="0"
     inkscape:window-y="0"
     inkscape:window-maximized="0"
     inkscape:current-layer="svg2" />
  <path
     d="m 29.614948,24.375 c 2.522,-0.841 5.884,-4.203 5.884,-5.884 0,-1.681 -2.522,-0.841 -1.681,-3.362 0.841,-2.521 1.681,-5.043 0,-6.724 -1.681,-1.681 -3.362,0 -5.043,-1.681 -1.681,-1.681 0,-3.362 -1.681,-5.043 -1.681,-1.681 -4.203,-0.841 -6.724,0 -2.521,0.841 -1.682,-1.681 -3.363,-1.681 -1.681,0 -5.043,3.362 -5.884,5.884 -0.841,2.522 -2.5209996,0.84 -3.3609996,3.362 -0.78,2.341 0.177,4.823 -1.972,9.748 -1.026,1.621 -1.995,3.178 -2.899,4.543 -3.978,6.005 -2.69299998,11.765 -2.69299998,11.765 0,0 5.75999998,1.285 11.76499958,-2.693 1.365,-0.904 2.922,-1.873 4.543,-2.899 4.925,-2.15 7.407,-1.192 9.748,-1.972 2.521,-0.841 0.84,-2.522 3.361,-3.363 z"
     id="path4"
     inkscape:connector-curvature="0"
     style="fill:#5c913b" />
  <path
     d="m 34.001948,18.767 c -0.103,-0.312 -0.438,-0.483 -0.75,-0.379 -3.21,1.054 -5.749,0.677 -7.001,0.349 2.811,-2.865 5.337,-5.842 7.222,-8.589 0.186,-0.271 0.116,-0.641 -0.154,-0.827 -0.271,-0.187 -0.641,-0.116 -0.826,0.154 -1.082,1.576 -2.403,3.251 -3.878,4.944 0.082,-1.765 -0.065,-4.516 -1.327,-7.238 -0.139,-0.298 -0.492,-0.427 -0.789,-0.289 -0.298,0.138 -0.428,0.491 -0.289,0.789 1.679,3.623 1.194,7.416 1.062,8.235 -1.369,1.489 -2.837,2.973 -4.356,4.402 0.156,-1.873 0.084,-4.922 -1.559,-7.337 -0.183,-0.271 -0.552,-0.343 -0.825,-0.158 -0.271,0.185 -0.342,0.554 -0.157,0.826 1.957,2.879 1.347,7.003 1.178,7.925 -2.44,2.2 -4.953,4.211 -7.33,5.836 1.535,-2.474 3.146,-6.37 2,-10.845 -0.082,-0.318 -0.406,-0.511 -0.723,-0.428 -0.318,0.082 -0.51,0.405 -0.428,0.723 1.679,6.557 -3.33,11.987 -3.778,12.456 -5.4069996,3.356 -8.3729996,4.368 -8.4069996,4.379 -0.311,0.104 -0.479,0.439 -0.375,0.751 0.083,0.249 0.314,0.407 0.563,0.407 0.062,0 0.125,-0.01 0.187,-0.03 0.16,-0.054 3.996,-1.354 11.0559996,-6.036 1.365,-0.905 2.768,-1.936 4.176,-3.05 0.695,0.426 2.288,1.141 5.162,1.141 0.804,0 1.706,-0.057 2.717,-0.19 0.325,-0.043 0.554,-0.342 0.511,-0.667 -0.042,-0.325 -0.349,-0.555 -0.667,-0.511 -3.704,0.492 -5.777,-0.136 -6.717,-0.581 1.974,-1.619 3.937,-3.396 5.799,-5.235 0.617,0.218 1.922,0.586 3.735,0.586 1.299,0 2.854,-0.189 4.592,-0.761 0.309,-0.105 0.478,-0.441 0.376,-0.752 z"
     id="path6"
     inkscape:connector-curvature="0"
     style="fill:#679e44" />
  <path
     d="m 12.501948,24.077 c 0.456,-0.09 1.009,-0.182 1.61,-0.281 3.811,-0.633 7.752,-1.288 7.752,-3.729 0,-1.241 -0.664,-1.982 -1.101,-2.436 0.25,-0.076 0.59,-0.147 0.825,-0.198 1.07,-0.227 2.402,-0.51 2.983,-1.69 0.359,-0.729 0.313,-1.608 -0.143,-2.635 0.416,-0.307 1.58,-0.678 2.308,-0.909 1.796,-0.572 3.493,-1.113 3.959,-2.504 0.163,-0.484 0.223,-1.25 -0.409,-2.144 -0.008,-0.011 -0.02,-0.035 -0.028,-0.05 -0.495,-0.084 -0.989,-0.284 -1.484,-0.778 -0.313,-0.313 -0.509,-0.626 -0.632,-0.939 0.234,0.645 0.845,2.094 1.123,2.486 2.031,2.872 -7.321,2.534 -6.024,5.247 1.541,3.222 -2.907,2.206 -3.747,3.467 -0.841,1.261 1.121,1.401 1.121,3.082 0,1.681 -5.746,2.271 -8.354,2.783 -5.2689996,1.037 -12.06399958,12.453 -12.06399958,12.453 0,0 0.508,0.11 1.36299998,0.165 2.052,-3.324 7.257,-10.666 10.9419996,-11.39 z"
     id="path8"
     inkscape:connector-curvature="0"
     style="fill:#3e721d" />
  <path
     d="m 12.260948,22.851 c 2.608,-0.512 8.354,-1.102 8.354,-2.783 0,-1.681 -1.961,-1.821 -1.121,-3.082 0.841,-1.261 5.288,-0.245 3.747,-3.467 -1.298,-2.713 8.055,-2.375 6.024,-5.247 -0.322,-0.455 -1.094,-2.335 -1.205,-2.729 -0.363,-1.287 0.321,-2.574 -0.967,-3.861 -1.681,-1.681 -4.203,-0.841 -6.724,0 -2.521,0.841 -1.681,-1.682 -3.362,-1.682 -1.681,0 -5.043,3.362 -5.884,5.884 -0.841,2.522 -2.5209996,0.84 -3.3609996,3.362 -0.78,2.341 0.177,4.823 -1.972,9.748 -1.026,1.621 -1.995,3.178 -2.899,4.543 -3.978,6.005 -2.69299998,11.765 -2.69299998,11.765 0,0 6.79399998,-11.416 12.06299958,-12.451 z"
     id="path10"
     inkscape:connector-curvature="0"
     style="fill:#77b255" />
  <path
     d="m 28.148948,8.042 c -2.723,-1.262 -5.475,-1.409 -7.24,-1.326 1.693,-1.476 3.367,-2.797 4.944,-3.878 0.271,-0.186 0.34,-0.556 0.154,-0.827 -0.186,-0.27 -0.556,-0.339 -0.826,-0.154 -2.747,1.884 -5.724,4.411 -8.589,7.222 -0.329,-1.253 -0.706,-3.791 0.349,-7.001 0.103,-0.312 -0.067,-0.648 -0.379,-0.75 -0.31,-0.103 -0.647,0.067 -0.75,0.379 -1.366,4.158 -0.55,7.265 -0.176,8.328 -1.839,1.862 -3.616,3.824 -5.235,5.799 -0.4449996,-0.94 -1.0709996,-3.013 -0.5799996,-6.719 0.043,-0.325 -0.186,-0.624 -0.511,-0.667 -0.32,-0.043 -0.623,0.184 -0.667,0.51 -0.613,4.63 0.407,6.991 0.951,7.879 -1.115,1.408 -2.145,2.811 -3.05,4.176 -4.683,7.06 -5.98299998,10.896 -6.03599998,11.055 -0.104,0.312 0.065,0.647 0.376,0.751 0.062,0.021 0.12499998,0.03 0.18799998,0.03 0.249,0 0.481,-0.157 0.564,-0.406 0.011,-0.034 1.023,-2.999 4.378,-8.406 0.463,-0.446 5.8819996,-5.465 12.4559996,-3.778 0.314,0.079 0.642,-0.111 0.723,-0.429 0.081,-0.318 -0.11,-0.642 -0.429,-0.724 -4.475,-1.144 -8.373,0.468 -10.8479996,2.003 1.625,-2.378 3.6369996,-4.893 5.8379996,-7.334 0.923,-0.169 5.047,-0.777 7.925,1.18 0.103,0.069 0.219,0.103 0.333,0.103 0.19,0 0.378,-0.091 0.492,-0.26 0.185,-0.271 0.114,-0.641 -0.157,-0.826 -2.416,-1.642 -5.465,-1.714 -7.338,-1.558 1.428,-1.518 2.912,-2.986 4.401,-4.355 0.814,-0.134 4.598,-0.625 8.236,1.061 0.081,0.038 0.166,0.056 0.25,0.056 0.224,0 0.438,-0.128 0.539,-0.345 0.142,-0.298 0.012,-0.652 -0.286,-0.789 z"
     id="path12"
     inkscape:connector-curvature="0"
     style="fill:#a6d388" />
</svg>
