<?xml version="1.0" encoding="UTF-8" standalone="no"?>
<svg
   xmlns:dc="http://purl.org/dc/elements/1.1/"
   xmlns:cc="http://creativecommons.org/ns#"
   xmlns:rdf="http://www.w3.org/1999/02/22-rdf-syntax-ns#"
   xmlns:svg="http://www.w3.org/2000/svg"
   xmlns="http://www.w3.org/2000/svg"
   xmlns:sodipodi="http://sodipodi.sourceforge.net/DTD/sodipodi-0.dtd"
   xmlns:inkscape="http://www.inkscape.org/namespaces/inkscape"
   viewBox="0 0 32.999596 36"
   id="svg2"
   version="1.1"
   inkscape:version="0.91 r13725"
   sodipodi:docname="1f961.svg"
   width="32.999596"
   height="36">
  <metadata
     id="metadata18">
    <rdf:RDF>
      <cc:Work
         rdf:about="">
        <dc:format>image/svg+xml</dc:format>
        <dc:type
           rdf:resource="http://purl.org/dc/dcmitype/StillImage" />
      </cc:Work>
    </rdf:RDF>
  </metadata>
  <defs
     id="defs16" />
  <sodipodi:namedview
     pagecolor="#ffffff"
     bordercolor="#666666"
     borderopacity="1"
     objecttolerance="10"
     gridtolerance="10"
     guidetolerance="10"
     inkscape:pageopacity="0"
     inkscape:pageshadow="2"
     inkscape:window-width="640"
     inkscape:window-height="480"
     id="namedview14"
     showgrid="false"
     inkscape:zoom="6.5555556"
     inkscape:cx="16"
     inkscape:cy="18"
     inkscape:window-x="0"
     inkscape:window-y="0"
     inkscape:window-maximized="0"
     inkscape:current-layer="svg2" />
  <path
     d="M 32,7 0,7 3,36 29,36 Z"
     id="path4"
     inkscape:connector-curvature="0"
     style="fill:#e1e8ed" />
  <path
     d="M 12,7 0,7 3,36 13,36 Z"
     id="path6"
     inkscape:connector-curvature="0"
     style="fill:#99aab5" />
  <path
     d="M 32.901,0.567 C 32.734,0.22 32.385,0 32,0 L 14,0 C 13.696,0 13.409,0.138 13.219,0.375 L 7.439,7 10,7 l 4.48,-5 15.438,0 -6.7,8.375 c -0.345,0.431 -0.274,1.061 0.156,1.405 0.186,0.148 0.406,0.22 0.625,0.22 0.294,0 0.584,-0.128 0.782,-0.375 l 8,-10 c 0.24,-0.3 0.286,-0.712 0.12,-1.058 z"
     id="path8"
     inkscape:connector-curvature="0"
     style="fill:#66757f" />
  <path
     d="m 28.495,32 -14,0 2.159,-3 10,0 z m -3.073,-4 -7.429,0 0.768,-1 6,0 z m 1.392,-2 -10,0 2.159,-3 6,0 z m -1.787,-4 -6,0 1.053,-1 4,0 z m 0.106,-2 -6,0 2.159,-3 2,0 z m -1.787,-4 -2,0 1.159,-3 z"
     id="path10"
     inkscape:connector-curvature="0"
     style="fill:#dd2e44" />
  <path
     d="m 12.008,32 -8.839,0 0.944,-3 6.314,0 z m -2.499,-4 -4.69,0 0.345,-1 3.788,0 z m 0.599,-2 -6.313,0 0.944,-3 3.789,0 z M 8.422,22 4.633,22 5.159,21 7.684,21 Z M 8.209,20 4.421,20 5.366,17 6.628,17 Z M 6.522,16 5.26,16 5.573,13 Z"
     id="path12"
     inkscape:connector-curvature="0"
     style="fill:#be1931" />
</svg>
