<?xml version="1.0" encoding="UTF-8" standalone="no"?>
<svg
   xmlns:dc="http://purl.org/dc/elements/1.1/"
   xmlns:cc="http://creativecommons.org/ns#"
   xmlns:rdf="http://www.w3.org/1999/02/22-rdf-syntax-ns#"
   xmlns:svg="http://www.w3.org/2000/svg"
   xmlns="http://www.w3.org/2000/svg"
   xmlns:sodipodi="http://sodipodi.sourceforge.net/DTD/sodipodi-0.dtd"
   xmlns:inkscape="http://www.inkscape.org/namespaces/inkscape"
   viewBox="0 0 34.016998 29.814522"
   id="svg2"
   version="1.1"
   inkscape:version="0.91 r13725"
   sodipodi:docname="1f96a.svg"
   width="34.016998"
   height="29.814522">
  <metadata
     id="metadata26">
    <rdf:RDF>
      <cc:Work
         rdf:about="">
        <dc:format>image/svg+xml</dc:format>
        <dc:type
           rdf:resource="http://purl.org/dc/dcmitype/StillImage" />
      </cc:Work>
    </rdf:RDF>
  </metadata>
  <defs
     id="defs24" />
  <sodipodi:namedview
     pagecolor="#ffffff"
     bordercolor="#666666"
     borderopacity="1"
     objecttolerance="10"
     gridtolerance="10"
     guidetolerance="10"
     inkscape:pageopacity="0"
     inkscape:pageshadow="2"
     inkscape:window-width="640"
     inkscape:window-height="480"
     id="namedview22"
     showgrid="false"
     inkscape:zoom="6.5555556"
     inkscape:cx="17"
     inkscape:cy="15.381023"
     inkscape:window-x="0"
     inkscape:window-y="0"
     inkscape:window-maximized="0"
     inkscape:current-layer="svg2" />
  <path
     d="m 34,16.9495 -34,-0.516 0.017,2.625 c 0.017,0.593 0.355,1.188 1.08,1.632 l 6.907,4.228 6.908,4.227 c 1.526,0.935 4.145,0.848 5.525,0 1.383,-0.845 0.692,-1.267 2.073,-2.114 1.381,-0.844 2.071,-0.422 3.454,-1.266 1.383,-0.848 6.909,-4.227 6.909,-4.227 0.761,-0.466 1.141,-1.077 1.143,-1.689 L 34,16.9495 Z"
     id="path4"
     inkscape:connector-curvature="0"
     style="fill:#f4900c" />
  <path
     d="m 32.873,15.1545 c 0,0 -30.394,-1.69 -31.776,-0.845 -1.382,0.845 -1.526,2.447 0,3.382 l 6.907,4.228 6.908,4.228 c 1.526,0.935 4.145,0.848 5.525,0 1.383,-0.845 0.692,-1.267 2.073,-2.114 1.381,-0.844 2.071,-0.422 3.454,-1.266 1.383,-0.848 6.908,-4.228 6.908,-4.228 1.526,-0.935 1.527,-2.451 10e-4,-3.385 z"
     id="path6"
     inkscape:connector-curvature="0"
     style="fill:#ffac33" />
  <path
     d="m 9.222,21.0755 7.071,4.228 c 0,0 1.414,0.844 2.828,0 1.197,-0.717 2.121,-2.114 2.121,-2.114 l -12.02,-2.114 z"
     id="path8"
     inkscape:connector-curvature="0"
     style="fill:#ffd983" />
  <path
     d="m 32.739,14.9985 c -1.941,-2.589 -26.694,-4.412 -30.577,-0.767 -0.784,0.737 -2.265,2.22 -0.688,4.439 0.688,1.162 2.116,1.919 2.306,1.56 0.443,-0.842 1.327,-1.578 2.653,-1.507 -0.075,0.178 0.641,3.207 0.56,3.275 -0.925,0.786 0.997,3.518 3.249,2.063 0.561,1.108 3.956,3.843 6.299,0.102 0.466,0.844 5.36,2.128 6.719,-1.766 -0.011,0.067 -0.008,0.124 -0.026,0.196 -0.089,0.35 0.722,0.653 1.548,0.363 1.389,-0.486 3.395,-1.693 3.75,-3.018 0.991,-0.173 1.734,0.102 2.306,0.858 0.283,0.374 1.254,0.464 1.669,-0.025 0.732,-0.859 1.933,-3.503 0.232,-5.773 z"
     id="path10"
     inkscape:connector-curvature="0"
     style="fill:#77b255" />
  <path
     d="m 30,21.4745 c 0,0.529 -0.896,0.959 -2,0.959 l -22,0 c -1.104,0 -2,-0.43 -2,-0.959 l 0,-6.551 26,0 0,6.551 z"
     id="path12"
     inkscape:connector-curvature="0"
     style="fill:#ffcc4d" />
  <path
     d="m 32.311,16.4205 c 0,2.768 -4.586,5.013 -10.242,5.013 -5.658,0 -10.243,-2.245 -10.243,-5.013 0,-2.769 4.585,-5.013 10.243,-5.013 5.656,0 10.242,2.245 10.242,5.013 z"
     id="path14"
     inkscape:connector-curvature="0"
     style="fill:#be1931" />
  <path
     d="m 34,10.9495 -34,-0.516 0,2.625 0.017,0 c 0.017,0.593 0.355,1.188 1.08,1.632 l 6.907,4.228 6.908,4.227 c 1.526,0.935 4.145,0.848 5.525,0 1.383,-0.845 0.692,-1.267 2.073,-2.114 1.381,-0.844 2.071,-0.422 3.454,-1.266 1.383,-0.848 6.909,-4.227 6.909,-4.227 0.761,-0.466 1.141,-1.077 1.143,-1.689 l 0,-0.005 L 34,10.9495 Z"
     id="path16"
     inkscape:connector-curvature="0"
     style="fill:#f4900c" />
  <path
     d="M 32.873,9.1545 19.058,0.7005 c -1.526,-0.934 -4,-0.934 -5.527,0 l -6.908,4.228 c -1.381,0.845 -0.691,1.268 -2.072,2.113 -1.381,0.845 -2.072,0.422 -3.454,1.268 -1.382,0.845 -1.526,2.447 0,3.382 l 13.815,8.455 c 1.526,0.935 4.145,0.848 5.525,0 1.383,-0.845 0.692,-1.267 2.073,-2.114 1.381,-0.844 2.071,-0.422 3.454,-1.266 1.383,-0.848 6.908,-4.228 6.908,-4.228 1.526,-0.934 1.527,-2.45 10e-4,-3.384 z"
     id="path18"
     inkscape:connector-curvature="0"
     style="fill:#ffac33" />
  <path
     d="M 31.85,10.0015 17.707,1.5465 c 0,0 -1.507,-0.791 -2.829,0 l -6.962,4.162 c -1.197,0.715 -1.033,1.463 -2.23,2.178 -1.196,0.716 -2.339,0.553 -3.536,1.268 -1.414,0.847 0,1.693 0,1.693 l 14.142,8.455 c 0,0 1.414,0.844 2.828,0 1.197,-0.717 0.926,-1.397 2.121,-2.114 1.197,-0.717 2.447,-0.619 3.644,-1.334 1.197,-0.714 6.963,-4.163 6.963,-4.163 0,0 1.323,-0.901 0.002,-1.69 z"
     id="path20"
     inkscape:connector-curvature="0"
     style="fill:#ffd983" />
</svg>
