<?xml version="1.0" encoding="UTF-8" standalone="no"?>
<svg
   xmlns:dc="http://purl.org/dc/elements/1.1/"
   xmlns:cc="http://creativecommons.org/ns#"
   xmlns:rdf="http://www.w3.org/1999/02/22-rdf-syntax-ns#"
   xmlns:svg="http://www.w3.org/2000/svg"
   xmlns="http://www.w3.org/2000/svg"
   xmlns:sodipodi="http://sodipodi.sourceforge.net/DTD/sodipodi-0.dtd"
   xmlns:inkscape="http://www.inkscape.org/namespaces/inkscape"
   viewBox="0 0 31.854357 34.813522"
   id="svg2"
   version="1.1"
   inkscape:version="0.91 r13725"
   sodipodi:docname="1f962.svg"
   width="31.854357"
   height="34.813522">
  <metadata
     id="metadata16">
    <rdf:RDF>
      <cc:Work
         rdf:about="">
        <dc:format>image/svg+xml</dc:format>
        <dc:type
           rdf:resource="http://purl.org/dc/dcmitype/StillImage" />
      </cc:Work>
    </rdf:RDF>
  </metadata>
  <defs
     id="defs14" />
  <sodipodi:namedview
     pagecolor="#ffffff"
     bordercolor="#666666"
     borderopacity="1"
     objecttolerance="10"
     gridtolerance="10"
     guidetolerance="10"
     inkscape:pageopacity="0"
     inkscape:pageshadow="2"
     inkscape:window-width="640"
     inkscape:window-height="480"
     id="namedview12"
     showgrid="false"
     inkscape:zoom="6.5555556"
     inkscape:cx="15.718152"
     inkscape:cy="17.264677"
     inkscape:window-x="0"
     inkscape:window-y="0"
     inkscape:window-maximized="0"
     inkscape:current-layer="svg2" />
  <path
     d="m 0.09815249,32.708847 c -0.512,-0.324 1.13000001,-3.04 1.45300001,-3.577 L 17.757152,1.3288474 c 0.933,-1.549 1.937,-1.551 2.847,-0.974 0.91,0.577 1.336,1.485 0.334,2.99 L 2.8011525,29.798847 c -0.347,0.521 -2.19100001,3.234 -2.70300001,2.91 z"
     id="path4"
     inkscape:connector-curvature="0"
     style="fill:#c1694f" />
  <path
     d="m 20.603152,0.3538474 c -0.91,-0.577 -1.913,-0.575 -2.846,0.974 l -3.356,5.758 c 0.335,0.921 1.924,1.75 2.901,1.562 l 3.636,-5.304 c 1.002,-1.505 0.575,-2.413 -0.335,-2.99 z"
     id="path6"
     inkscape:connector-curvature="0"
     style="fill:#662113" />
  <path
     d="m 3.3021525,34.746847 c -0.414,-0.443 1.885,-2.593 2.333,-3.031 L 28.284152,8.8158474 c 1.293,-1.265 2.265,-1.014 3,-0.227 0.736,0.787 0.92,1.7729996 -0.429,2.9779996 l -24.5949995,21.312 c -0.468,0.417 -2.545,2.311 -2.958,1.868 z"
     id="path8"
     inkscape:connector-curvature="0"
     style="fill:#c1694f" />
  <path
     d="m 31.284152,8.5888474 c -0.736,-0.787 -1.707,-1.037 -3,0.227 l -4.576,4.6269996 c 0.057,0.93 1.498,2.183 2.376,2.259 l 4.772,-4.135 c 1.348,-1.205 1.164,-2.1909996 0.428,-2.9779996 z"
     id="path10"
     inkscape:connector-curvature="0"
     style="fill:#662113" />
</svg>
