<?xml version="1.0" encoding="UTF-8" standalone="no"?>
<svg
   xmlns:dc="http://purl.org/dc/elements/1.1/"
   xmlns:cc="http://creativecommons.org/ns#"
   xmlns:rdf="http://www.w3.org/1999/02/22-rdf-syntax-ns#"
   xmlns:svg="http://www.w3.org/2000/svg"
   xmlns="http://www.w3.org/2000/svg"
   xmlns:sodipodi="http://sodipodi.sourceforge.net/DTD/sodipodi-0.dtd"
   xmlns:inkscape="http://www.inkscape.org/namespaces/inkscape"
   viewBox="0 0 33.962498 29.895815"
   id="svg2"
   version="1.1"
   inkscape:version="0.91 r13725"
   sodipodi:docname="1f967.svg"
   width="33.962498"
   height="29.895815">
  <metadata
     id="metadata30">
    <rdf:RDF>
      <cc:Work
         rdf:about="">
        <dc:format>image/svg+xml</dc:format>
        <dc:type
           rdf:resource="http://purl.org/dc/dcmitype/StillImage" />
      </cc:Work>
    </rdf:RDF>
  </metadata>
  <defs
     id="defs28" />
  <sodipodi:namedview
     pagecolor="#ffffff"
     bordercolor="#666666"
     borderopacity="1"
     objecttolerance="10"
     gridtolerance="10"
     guidetolerance="10"
     inkscape:pageopacity="0"
     inkscape:pageshadow="2"
     inkscape:window-width="640"
     inkscape:window-height="480"
     id="namedview26"
     showgrid="false"
     inkscape:zoom="6.5555556"
     inkscape:cx="17.033138"
     inkscape:cy="14.171481"
     inkscape:window-x="0"
     inkscape:window-y="0"
     inkscape:window-maximized="0"
     inkscape:current-layer="svg2" />
  <path
     d="m 6.7611383,0.85633391 c 0,0 0.418,-1.003 1.661,-0.838 1.243,0.165 9.6669997,1.59299999 13.6759997,3.45399999 4.01,1.86 8.529,4.059 11.358,7.3840001 0.75,0.883 0.445,1.529 0.445,1.529 l -1.036,7.438 c 0,0 -0.3,1.489 -1.737,1.886 l -29.5879997,8.154 c 0,0 -1.50700003,0.344 -1.50700003,-1.207 l 0,-7.766 c 0,0 0.152,-0.933 0.521,-2.025 0.368,-1.095 6.20700003,-18.00900009 6.20700003,-18.00900009 z"
     id="path4"
     inkscape:connector-curvature="0"
     style="fill:#f4900c" />
  <path
     d="m 29.642138,18.271334 c -4.448,-4.258 -15.009,-9.2190001 -22.8339997,-9.9650001 -0.221,-0.018 -0.435,0.114 -0.507,0.329 0,0 -6.27800003,18.6100001 -6.27800003,18.9180001 0,0.15 0.07,0.293 0.187,0.386 0.086,0.066 0.193,0.102 0.3,0.102 0.039,0 0.079,-0.005 0.119,-0.014 l 29.41899973,-8.115 c 0.186,-0.048 0.279,-0.154 0.312,-0.344 0.061,-0.332 -0.076,-0.684 -0.718,-1.297 z"
     id="path6"
     inkscape:connector-curvature="0"
     style="fill:#a0041e" />
  <path
     d="m 30.356138,19.603334 -30.32299973,8.15 0,-7.112 c 0,0 5.33100003,-11.9750001 6.39700003,-19.2550001 16.7459997,2.418 24.7519997,11.1160001 24.7519997,11.1160001 l -0.826,7.101 z"
     id="path8"
     inkscape:connector-curvature="0"
     style="fill:#a0041e" />
  <path
     d="m 7.2211383,23.256334 c 0,1.421 -1.151,2.572 -2.573,2.572 -1.422,0 -2.573,-1.151 -2.573,-2.572 0,-1.422 1.151,-2.573 2.573,-2.573 1.421,0 2.573,1.151 2.573,2.573 z m 4.9999997,-4 c 0,1.421 -1.151,2.572 -2.5729997,2.572 -1.422,0 -2.573,-1.151 -2.573,-2.572 0,-1.422 1.151,-2.573 2.573,-2.573 1.4209997,0 2.5729997,1.151 2.5729997,2.573 z m 6,1 c 0,1.421 -1.151,2.572 -2.573,2.572 -1.422,0 -2.573,-1.151 -2.573,-2.572 0,-1.422 1.151,-2.573 2.573,-2.573 1.421,0 2.573,1.151 2.573,2.573 z m 5,-4 c 0,1.421 -1.151,2.572 -2.573,2.572 -1.422,0 -2.573,-1.151 -2.573,-2.572 0,-1.422 1.151,-2.573 2.573,-2.573 1.421,0 2.573,1.151 2.573,2.573 z m 6,1 c 0,1.421 -1.151,2.572 -2.573,2.572 -1.422,0 -2.573,-1.151 -2.573,-2.572 0,-1.422 1.151,-2.573 2.573,-2.573 1.421,0 2.573,1.151 2.573,2.573 z"
     id="path10"
     inkscape:connector-curvature="0"
     style="fill:#be1931" />
  <path
     d="m 31.129138,11.222334 c -4.449,-4.2580001 -16.495,-9.1700001 -24.3209997,-9.9160001 -0.221,-0.019 -0.435,0.114 -0.507,0.329 0,0 -4.982,13.8270001 -6.19300003,17.6210001 -0.175,0.548 -0.085,1.258 -0.085,1.297 0,0.15 0.07,0.293 0.187,0.386 0.086,0.066 0.193,0.102 0.3,0.102 0.039,0 0.079,-0.005 0.119,-0.014 l 30.79699973,-7.747 c 0.186,-0.047 0.326,-0.199 0.359,-0.389 0.06,-0.331 -0.015,-1.055 -0.656,-1.669 z"
     id="path12"
     inkscape:connector-curvature="0"
     style="fill:#f4900c" />
  <path
     d="m 31.129138,11.222334 c -4.449,-4.2580001 -16.495,-9.1700001 -24.3209997,-9.9160001 -0.221,-0.019 -0.435,0.114 -0.507,0.329 0,0 -6.27800003,17.6100001 -6.27800003,17.9180001 0,0.15 0.07,0.293 0.187,0.386 0.086,0.066 0.193,0.102 0.3,0.102 0.039,0 0.079,-0.005 0.119,-0.014 l 30.19399973,-7.739 c 0.185,-0.047 0.326,-0.199 0.359,-0.389 0.06,-0.331 0.588,-0.063 -0.053,-0.677 z"
     id="path14"
     inkscape:connector-curvature="0"
     style="fill:#f4900c" />
  <path
     d="m 8.6831383,17.963334 -1.833,-2.456 4.4579997,-0.527 1.436,1.942 5.584,-1.431 -0.922,-1.232 4.218,-0.499 0.571,0.772 5.571,-1.456 -0.029,-0.039 0.325,-0.038 3.613,-0.944 c -0.099,-0.271 -0.262,-0.561 -0.546,-0.832 -0.612,-0.586 -1.38,-1.184 -2.249,-1.7830001 l -3.569,0.355 -1.941,-2.595 1.416,-0.167 c -3.435,-1.761 -7.531,-3.361 -11.415,-4.435 l 1.437,1.944 -4.348,0.432 -1.6699997,-2.234 3.5269997,-0.417 c -1.951,-0.496 -3.8299997,-0.857 -5.5089997,-1.017 -0.221,-0.019 -0.435,0.114 -0.507,0.329 0,0 -1.376,3.586 -2.768,7.741 l 3.453,-0.24 1.709,2.3110001 -4.539,0.451 -1.022,-1.339 c -0.721,2.154 -1.568,4.362 -2.15000003,6.124 l 2.12400003,2.709 5.575,-1.429 z m 8.6199997,-10.0470001 1.842,2.4910001 -4.301,0.428 -1.806,-2.4150001 4.265,-0.504 z"
     id="path16"
     inkscape:connector-curvature="0"
     style="fill:#ffcc4d" />
  <path
     d="m 9.8951383,15.211334 c 0.8069997,-0.218 2.4199997,-1.237 4.0129997,-1.456 1.594,-0.219 3.531,0.617 4.108,0.549 l 2.313,-0.273 c 0.516,-0.061 2.829,-1.338 4.173,-1.526 1.344,-0.188 3.145,0.762 3.791,0.584 0,0 0.718,0.203 0,0.294 -0.718,0.091 -2.601,-0.645 -3.646,-0.472 -1.502,0.25 -2.573,1.112 -4.318,1.393 -1.052,0.169 -1.792,0.307 -2.421,0.357 -1.164,0.094 -2.6,-0.779 -4.069,-0.529 -1.469,0.25 -2.275,1.243 -3.9449997,1.404 -0.989,0.096 -0.616,-0.158 10e-4,-0.325 z m -4.32,2.961 c 1.194,-0.278 2.57,-0.742 3.108,-0.21 l -2.691,1.032 -2.884,0.397 c -10e-4,0.001 0.092,-0.666 2.467,-1.219 z m 9.8539997,-2.552 c 1.489,-0.356 2.464,-0.425 2.898,-0.129 l -2.72,1.025 -2.864,0.406 c 10e-4,0 0.248,-0.719 2.686,-1.302 z"
     id="path18"
     inkscape:connector-curvature="0"
     style="fill:#f4900c" />
  <path
     d="m 24.741138,13.307334 c 1.082,-0.297 2.479,-0.438 2.833,-0.354 0,0 2.857,-0.741 3.991,-0.871 0,0 -2.604,0.891 -3.412,1.1 -0.808,0.208 -5.901,1.616 -5.959,1.35 -0.057,-0.266 0.881,-0.766 2.547,-1.225 z"
     id="path20"
     inkscape:connector-curvature="0"
     style="fill:#f4900c" />
  <path
     d="m 0.98313827,16.683334 c 0,0 -0.075,-1.197 0.75800003,-3.359 0.833,-2.162 1.2,-3.017 1.392,-2.765 0.192,0.252 -0.559,2.999 -0.851,3.665 -0.292,0.666 -0.757,2.04 -0.979,2.312 -0.221,0.273 -0.32000003,0.147 -0.32000003,0.147 z M 3.5331383,9.3753339 c 0,0 0.062,-1.526 0.437,-2.589 0.375,-1.063 1.048,-1.682 1.138,-1.931 0.09,-0.249 0.07,-1.507 0.32,-2.09 0.25,-0.583 0.758,-1.711 1.379,-1.46 0.621,0.251 -1.395,4.315 -1.636,5.127 -0.242,0.813 -1.638,2.943 -1.638,2.943 z"
     id="path22"
     inkscape:connector-curvature="0"
     style="fill:#ffcc4d" />
  <path
     d="m 5.8951383,9.2113339 c 0.807,-0.218 2.419,-1.237 4.013,-1.456 1.5939997,-0.219 3.5309997,0.617 4.1079997,0.549 l 2.313,-0.273 c 0.516,-0.061 2.829,-1.338 4.173,-1.526 1.344,-0.188 3.145,0.762 3.791,0.584 0,0 0.718,0.203 0,0.294 -0.718,0.091 -2.601,-0.645 -3.646,-0.472 -1.502,0.25 -2.573,1.113 -4.318,1.393 -1.052,0.169 -1.792,0.307 -2.421,0.357 -1.164,0.094 -2.6,-0.779 -4.0689997,-0.529 -1.469,0.25 -2.275,1.243 -3.945,1.404 -0.989,0.096 -0.616,-0.158 0.001,-0.325 z m 1.986,6.1730001 c -0.759,0.09 -1.809,-0.775 -3.703,-0.437 -1.895,0.339 -3.19500003,1.736 -3.19500003,1.736 l 0.12200003,0.573 c 0,0 -0.48000003,-0.337 0.187,-0.544 0.667,-0.207 1.366,-1.232 2.991,-1.407 1.625,-0.175 2.156,0.388 3.25,0.419 1.094,0.031 0.348,-0.34 0.348,-0.34 z m 19.1519997,-2.425 1.579,0.092 0.421,-0.327 -0.281,0.89 -1.313,0.405 z M 6.1581383,2.4433339 c 1.469,-0.406 2.426,0.322 3.489,0.196 1.0629997,-0.126 1.0779997,0.167 0.261,0.335 -0.817,0.168 -2.86,-0.545 -3.706,-0.269 -0.846,0.276 -0.985,1.15 -0.985,1.15 l 0.14,-0.874 c -0.001,0 -0.163,-0.272 0.801,-0.538 z m 1.971,9.0590001 c 2.0599997,-0.33 2.2039997,-0.847 3.7479997,-1.154 1.406,-0.28 2.281,0.383 3.071,0.383 1.284,0 0.892,-0.7840001 0.46,-0.6 -0.906,0.386 -2.734,-0.7120001 -4.531,0 -0.9169997,0.363 -1.3389997,0.865 -2.7479997,1.042 -1.408,0.176 -0.738,0.448 0,0.329 z m 10.3719997,-1.031 c 0.86,-0.085 2.188,-0.8820001 3.5,-1.0950001 1.312,-0.214 2.487,0.5 3.309,0.419 0.822,-0.082 0.99,-0.524 0.348,-0.459 -0.642,0.065 -2.281,-0.642 -3.875,-0.33 -1.594,0.312 -2.219,0.969 -3.282,1.1250001 -1.062,0.155 -0.644,0.404 0,0.34 z m -16.2059997,1.445 c 0.715,-0.188 1.459,0.236 2.239,-0.056 0.78,-0.292 0.832,-0.636 0.114,-0.448 -0.718,0.188 -1.551,-0.135 -2.192,0.12 l -0.161,0.384 z m 5.269,-7.2230001 c 1.355,-0.061 2.104,0.358 3.0669997,0.262 0.962,-0.096 0.559,-0.341 -0.144,-0.302 -0.7039997,0.04 -1.7219997,-0.429 -3.1819997,-0.148 -1.46,0.281 -1.387,0.572 -2.517,0.817 l -0.255,0.36 c 0,0 0.51,-0.105 1.083,-0.36 0.573,-0.254 1.2,-0.596 1.948,-0.629 z m 7.0309997,-0.132 c 0.887,-0.053 1.633,-0.706 2.582,-0.771 l -0.551,-0.19 c 0,0 -1.126,0.588 -2.032,0.653 -0.905,0.065 -0.937,0.364 0.001,0.308 z"
     id="path24"
     inkscape:connector-curvature="0"
     style="fill:#f4900c" />
</svg>
