<?xml version="1.0" encoding="UTF-8" standalone="no"?>
<svg
   xmlns:dc="http://purl.org/dc/elements/1.1/"
   xmlns:cc="http://creativecommons.org/ns#"
   xmlns:rdf="http://www.w3.org/1999/02/22-rdf-syntax-ns#"
   xmlns:svg="http://www.w3.org/2000/svg"
   xmlns="http://www.w3.org/2000/svg"
   xmlns:sodipodi="http://sodipodi.sourceforge.net/DTD/sodipodi-0.dtd"
   xmlns:inkscape="http://www.inkscape.org/namespaces/inkscape"
   viewBox="0 0 36.000076 36"
   id="svg2"
   version="1.1"
   inkscape:version="0.91 r13725"
   sodipodi:docname="1f976.svg"
   width="36.000076"
   height="36">
  <metadata
     id="metadata24">
    <rdf:RDF>
      <cc:Work
         rdf:about="">
        <dc:format>image/svg+xml</dc:format>
        <dc:type
           rdf:resource="http://purl.org/dc/dcmitype/StillImage" />
      </cc:Work>
    </rdf:RDF>
  </metadata>
  <defs
     id="defs22" />
  <sodipodi:namedview
     pagecolor="#ffffff"
     bordercolor="#666666"
     borderopacity="1"
     objecttolerance="10"
     gridtolerance="10"
     guidetolerance="10"
     inkscape:pageopacity="0"
     inkscape:pageshadow="2"
     inkscape:window-width="640"
     inkscape:window-height="480"
     id="namedview20"
     showgrid="false"
     inkscape:zoom="6.5555556"
     inkscape:cx="18"
     inkscape:cy="18"
     inkscape:window-x="0"
     inkscape:window-y="0"
     inkscape:window-maximized="0"
     inkscape:current-layer="svg2" />
  <circle
     cx="18"
     cy="18"
     r="18"
     id="circle4"
     style="fill:#50a5e6" />
  <ellipse
     cx="11.985"
     cy="15.188"
     rx="2.5"
     ry="3.5"
     id="ellipse6"
     style="fill:#1c6399" />
  <ellipse
     cx="23.985001"
     cy="15.188"
     rx="2.5"
     ry="3.5"
     id="ellipse8"
     style="fill:#1c6399" />
  <path
     d="m 24.985,21.833 c 2.209,0 4,1.791 4,4 0,2.209 -1.791,4 -4,4 l -14,0 c -2.209,0 -4,-1.791 -4,-4 0,-2.209 1.791,-4 4,-4 l 14,0 z"
     id="path10"
     inkscape:connector-curvature="0"
     style="fill:#ffffff" />
  <path
     d="m 24.985,20.812 -14,0 c -2.757,0 -5,2.243 -5,5 0,2.757 2.243,5 5,5 l 14,0 c 2.757,0 5,-2.243 5,-5 0,-2.757 -2.243,-5 -5,-5 z m 0,2 c 1.483,0 2.71,1.084 2.949,2.5 l -3.449,0 0,-2.5 0.5,0 z m -1.5,0 0,2.5 -3,0 0,-2.5 3,0 z m -4,0 0,2.5 -3,0 0,-2.5 3,0 z m -4,0 0,2.5 -3,0 0,-2.5 3,0 z m -4.5,0 0.5,0 0,2.5 -3.45,0 c 0.24,-1.415 1.467,-2.5 2.95,-2.5 z m 0,6 c -1.483,0 -2.71,-1.084 -2.949,-2.5 l 3.449,0 0,2.5 -0.5,0 z m 1.5,0 0,-2.5 3,0 0,2.5 -3,0 z m 4,0 0,-2.5 3,0 0,2.5 -3,0 z m 4,0 0,-2.5 3,0 0,2.5 -3,0 z m 4.5,0 -0.5,0 0,-2.5 3.449,0 c -0.239,1.416 -1.466,2.5 -2.949,2.5 z"
     id="path12"
     inkscape:connector-curvature="0"
     style="fill:#1c6399" />
  <path
     d="m 35.756,15.188 c 0,-0.445 -0.046,2.24 -3.752,3.394 -1.461,0.455 -1.288,2.58 -1.265,3.152 0.08,1.975 0.398,3.892 0.497,4.392 0.1,0.507 0.507,2.106 0.602,2.589 0.105,0.532 0.241,2.406 0.333,2.873 0.111,0.563 0.215,0.968 0.3,1.398 0.184,0.929 0.424,1.598 0.832,1.598 0.409,0 0.416,-1.125 0.599,-2.053 0.085,-0.429 0.107,-0.787 0.218,-1.349 0.092,-0.464 0.363,-3.641 0.465,-4.156 0.097,-0.491 0.636,-2.568 0.734,-3.067 0.1,-0.507 0.399,-2.494 0.479,-2.979 0.478,-2.897 -0.042,-5.791 -0.042,-5.792 z M 0.313,21.375 c 0,-0.29 0.613,1.164 1.148,1.488 0.69,0.418 1.23,1.2 2.04,1.887 0.81,0.687 0.808,1.974 0.776,2.594 C 4.141,30 3.791,32.643 3.715,32.969 3.639,33.3 3.357,35.792 2.985,35.792 2.613,35.792 2.432,34.914 2.292,34.308 L 2.067,33.331 C 1.997,33.029 1.947,32.7 1.867,32.355 1.795,32.041 1.446,29.768 1.371,29.442 1.295,29.111 0.965,27.799 0.892,27.484 0.812,27.137 0.778,26.8 0.702,26.497 0.375,25.197 0.313,21.376 0.313,21.375 Z"
     id="path14"
     inkscape:connector-curvature="0"
     style="fill:#bbddf5" />
  <path
     d="m 5.986,11.375 c -0.552,0 -1,-0.448 -1,-1 0,-0.551 0.445,-0.998 0.996,-1 0.156,-0.002 3.569,-0.086 6.205,-3.6 0.331,-0.44 0.957,-0.532 1.4,-0.2 0.442,0.331 0.531,0.958 0.2,1.4 -3.263,4.35 -7.617,4.4 -7.801,4.4 z m 24,0 c -0.184,0 -4.537,-0.05 -7.8,-4.4 -0.332,-0.442 -0.242,-1.069 0.2,-1.4 0.441,-0.333 1.067,-0.242 1.399,0.2 2.641,3.521 6.062,3.599 6.206,3.6 0.55,0.006 0.994,0.456 0.991,1.005 -0.002,0.551 -0.446,0.995 -0.996,0.995 z"
     id="path16"
     inkscape:connector-curvature="0"
     style="fill:#1c6399" />
  <path
     d="m 24.266,1.125 c 0,0 -0.991,-0.421 -1.317,-0.521 C 22.662,0.516 21.756,0.328 21.196,0.22 20.571,0.099 19.902,0.105 19.902,0.105 c 0,0 -0.03,0.402 0.114,1.025 0.116,0.502 0.404,1.198 0.458,1.559 0.059,0.391 0.068,0.855 0.141,1.348 0.064,0.426 0.128,0.88 0.197,1.342 0.067,0.446 0.182,0.894 0.249,1.341 0.07,0.464 0.102,0.925 0.167,1.353 0.074,0.496 -0.01,0.978 0.049,1.371 0.121,0.806 0.333,1.932 0.562,1.932 0.229,0 0.431,-1.019 0.552,-1.828 C 22.45,9.157 22.364,8.853 22.438,8.36 22.502,7.934 22.556,7.51 22.626,7.048 22.693,6.602 22.747,6.166 22.814,5.72 22.884,5.256 22.875,4.804 22.939,4.376 23.013,3.88 23.302,3.269 23.361,2.876 23.48,2.07 24.266,1.125 24.266,1.125 Z M 5.875,9.379 c 0,0 0.731,-0.164 1.427,-0.309 C 7.755,8.976 8.114,8.611 8.855,8.341 9.626,8.06 10.122,7.817 10.122,7.817 c 0,0 0.063,1.305 -0.109,1.956 -0.139,0.525 -0.212,1.203 -0.276,1.58 -0.07,0.408 -0.109,0.889 -0.197,1.404 -0.076,0.445 -0.216,0.91 -0.299,1.394 -0.08,0.467 -0.144,1.014 -0.224,1.481 -0.083,0.485 -0.105,0.902 -0.182,1.349 -0.089,0.518 -0.022,0.57 -0.093,0.98 C 8.597,18.804 8.577,18.688 8.53,19.147 8.483,19.606 8.136,19.663 7.986,19.327 7.836,18.991 7.995,18.806 7.85,17.96 7.78,17.552 7.523,16.473 7.44,15.99 7.36,15.523 7.252,14.791 7.172,14.324 7.089,13.839 7.068,13.057 6.991,12.609 6.902,12.091 6.766,11.771 6.696,11.361 6.551,10.52 5.875,9.379 5.875,9.379 Z"
     id="path18"
     inkscape:connector-curvature="0"
     style="fill:#bbddf5" />
</svg>
