<?xml version="1.0" encoding="UTF-8" standalone="no"?>
<svg
   xmlns:dc="http://purl.org/dc/elements/1.1/"
   xmlns:cc="http://creativecommons.org/ns#"
   xmlns:rdf="http://www.w3.org/1999/02/22-rdf-syntax-ns#"
   xmlns:svg="http://www.w3.org/2000/svg"
   xmlns="http://www.w3.org/2000/svg"
   xmlns:sodipodi="http://sodipodi.sourceforge.net/DTD/sodipodi-0.dtd"
   xmlns:inkscape="http://www.inkscape.org/namespaces/inkscape"
   viewBox="0 0 36.022297 36"
   id="svg2"
   version="1.1"
   inkscape:version="0.91 r13725"
   sodipodi:docname="1f97c.svg"
   width="36.022297"
   height="36">
  <metadata
     id="metadata26">
    <rdf:RDF>
      <cc:Work
         rdf:about="">
        <dc:format>image/svg+xml</dc:format>
        <dc:type
           rdf:resource="http://purl.org/dc/dcmitype/StillImage" />
      </cc:Work>
    </rdf:RDF>
  </metadata>
  <defs
     id="defs24" />
  <sodipodi:namedview
     pagecolor="#ffffff"
     bordercolor="#666666"
     borderopacity="1"
     objecttolerance="10"
     gridtolerance="10"
     guidetolerance="10"
     inkscape:pageopacity="0"
     inkscape:pageshadow="2"
     inkscape:window-width="640"
     inkscape:window-height="480"
     id="namedview22"
     showgrid="false"
     inkscape:zoom="6.5555556"
     inkscape:cx="18.022142"
     inkscape:cy="18"
     inkscape:window-x="0"
     inkscape:window-y="0"
     inkscape:window-maximized="0"
     inkscape:current-layer="svg2" />
  <path
     d="m 23.022142,34 c 0,0 -2,-1 -5,-1 -3,0 -5,1 -5,1 l 0.999,-32 8.002,0 0.999,32 z"
     id="path4"
     inkscape:connector-curvature="0"
     style="fill:#9aaab4" />
  <path
     d="m 18.000142,0 1,0 c 2,0 4.001,2 4.001,2 0,0 3.227,1.274 6.227,2.274 3,1 6.822,18.205 6.794,19.394 -0.022,0.96 -4.746,1.866 -4.975,1.263 -0.517,-1.361 -1.718,-5.296 -2.83,-10.804 0,11 2.416,19.707 2.416,19.707 0,0 -5.633,2.166 -8.633,2.166 -1,-4 -0.999,-17 -0.999,-20 0,-3 -3.001,-16 -3.001,-16 z"
     id="path6"
     inkscape:connector-curvature="0"
     style="fill:#e1e8ed" />
  <path
     d="m 18.022142,0 -1,0 c -2,0 -4.001,2 -4.001,2 0,0 -3.2269997,1.274 -6.2269997,2.274 -3,1 -6.82100001,18.205 -6.79400001094,19.394 C 0.02214229,24.628 4.7461423,25.534 4.9741423,24.931 c 0.517,-1.361 1.717,-4.993 2.83,-10.804 0,11 -2.416,19.707 -2.416,19.707 0,0 5.6339997,2.166 8.6339997,2.166 1,-4 0.999,-17 0.999,-20 0,-3 3.001,-16 3.001,-16 z"
     id="path8"
     inkscape:connector-curvature="0"
     style="fill:#e1e8ed" />
  <path
     d="m 24.024142,4 c 0,0 -3.002,-4 -5.002,-4 l -2,0 c -2,0 -5.002,4 -5.002,4 l 2.001,1 -2.001,1 3.001,10.004 6.002,0 3.001,-10.004 -2.001,-1 2.001,-1 z m -11.822,24.167 c -0.537,0.062 -2.6679997,-0.25 -3.0839997,-0.458 -0.565,-0.283 -0.648,-0.615 -0.583,-1.208 0.065,-0.594 0.311,-1.344 0.425,-3.5 0.909,0.417 2.9509997,0.542 4.5349997,0.583 0,1.812 -0.332,3.417 -0.332,3.417 -0.069,0.549 -0.424,1.103 -0.961,1.166 z m 11.64,0 c 0.537,0.062 2.667,-0.25 3.084,-0.458 0.565,-0.283 0.648,-0.615 0.583,-1.208 -0.065,-0.594 -0.311,-1.344 -0.425,-3.5 -0.909,0.417 -2.951,0.542 -4.535,0.583 0,1.812 0.332,3.417 0.332,3.417 0.069,0.549 0.424,1.103 0.961,1.166 z"
     id="path10"
     inkscape:connector-curvature="0"
     style="fill:#f5f8fa" />
  <ellipse
     cx="23.585142"
     cy="13.813"
     rx="0.354"
     ry="2.0209999"
     id="ellipse12"
     style="fill:#bb1a34" />
  <ellipse
     cx="24.585142"
     cy="13.813"
     rx="0.354"
     ry="2.0209999"
     id="ellipse14"
     style="fill:#4289c1" />
  <path
     d="m 25.940142,16.917 c -0.39,0.153 -2.209,0.167 -2.709,-0.042 -0.5,-0.208 -0.688,-0.438 -0.729,-1.021 -0.042,-0.583 0.062,-2.854 0.062,-2.854 l 3.959,0 c 0,0 0.125,1.625 0.125,3 0.001,0.585 -0.254,0.739 -0.708,0.917 z"
     id="path16"
     inkscape:connector-curvature="0"
     style="fill:#f5f8fa" />
  <path
     d="m 21.023142,3.5 -6.002,0 0,-1 c 0,-1.105 0.895,-2 2,-2 l 2.002,0 c 1.105,0 2,0.895 2,2 l 0,1 z"
     id="path18"
     inkscape:connector-curvature="0"
     style="fill:#ccd6dd" />
  <path
     d="m 21.023142,31.712 -6.002,0 0,-28.211 c 0,-1.105 0.895,-2 2,-2 l 2.002,0 c 1.105,0 2,0.895 2,2 l 0,28.211 z"
     id="path20"
     inkscape:connector-curvature="0"
     style="fill:#9aaab4" />
</svg>
