<?xml version="1.0" encoding="UTF-8" standalone="no"?>
<svg
   xmlns:dc="http://purl.org/dc/elements/1.1/"
   xmlns:cc="http://creativecommons.org/ns#"
   xmlns:rdf="http://www.w3.org/1999/02/22-rdf-syntax-ns#"
   xmlns:svg="http://www.w3.org/2000/svg"
   xmlns="http://www.w3.org/2000/svg"
   xmlns:sodipodi="http://sodipodi.sourceforge.net/DTD/sodipodi-0.dtd"
   xmlns:inkscape="http://www.inkscape.org/namespaces/inkscape"
   viewBox="0 0 34 35.999428"
   id="svg2"
   version="1.1"
   inkscape:version="0.91 r13725"
   sodipodi:docname="1f971.svg"
   width="34"
   height="35.999428">
  <metadata
     id="metadata16">
    <rdf:RDF>
      <cc:Work
         rdf:about="">
        <dc:format>image/svg+xml</dc:format>
        <dc:type
           rdf:resource="http://purl.org/dc/dcmitype/StillImage" />
      </cc:Work>
    </rdf:RDF>
  </metadata>
  <defs
     id="defs14" />
  <sodipodi:namedview
     pagecolor="#ffffff"
     bordercolor="#666666"
     borderopacity="1"
     objecttolerance="10"
     gridtolerance="10"
     guidetolerance="10"
     inkscape:pageopacity="0"
     inkscape:pageshadow="2"
     inkscape:window-width="640"
     inkscape:window-height="480"
     id="namedview12"
     showgrid="false"
     inkscape:zoom="6.5555556"
     inkscape:cx="17"
     inkscape:cy="17.999428"
     inkscape:window-x="0"
     inkscape:window-y="0"
     inkscape:window-maximized="0"
     inkscape:current-layer="svg2" />
  <path
     d="M 34,17 C 34,26.389 26.389,34 17,34 7.612,34 0,26.389 0,17 0,7.612 7.612,0 17,0 26.389,0 34,7.612 34,17"
     id="path4"
     inkscape:connector-curvature="0"
     style="fill:#ffcc4d" />
  <ellipse
     cx="17"
     cy="19.5"
     rx="7"
     ry="7.5"
     id="ellipse6"
     style="fill:#664500" />
  <path
     d="m 21.468,27.371 c 0,0 0.997,-0.721 0.165,-1.614 -0.832,-0.893 -1.621,0.052 -1.621,0.052 l -4.148,3.866 c -0.069,-0.205 -0.459,-0.743 -0.55,-0.947 l 5.755,-5.366 c 0,0 0.998,-0.721 0.164,-1.615 -0.832,-0.892 -1.622,0.051 -1.622,0.051 l -5.413,5.046 c -0.125,-0.158 -0.461,-0.54 -0.594,-0.698 l 6.276,-5.85 c 0,0 0.997,-0.722 0.164,-1.614 -0.832,-0.893 -1.621,0.051 -1.621,0.051 l -6.278,5.848 c -0.15,-0.145 -0.612,-0.609 -0.764,-0.746 l 5.866,-5.468 c 0,0 0.996,-0.722 0.164,-1.614 -0.833,-0.893 -1.621,0.051 -1.621,0.051 L 9.587,22.585 9.09,23.049 8.87,23.256 c 0,0 -0.538,0.744 -1.087,0.179 l 1.842,-4.158 c 0,0 0.58,-1.074 -0.493,-1.655 -1.075,-0.581 -1.655,0.493 -1.655,0.493 L 5.809,20.873 C 5.146,21.966 4.46,23.051 3.65,24.04 c -2.284,2.793 -2.211,6.914 0.318,9.629 2.759,2.959 7.396,3.122 10.355,0.364 l 0.447,-0.418 6.698,-6.244 z"
     id="path8"
     inkscape:connector-curvature="0"
     style="fill:#f4900c" />
  <path
     d="M 10.016,6.08 C 7.761,6.684 6.536,8.045 6.461,8.13 6.097,8.545 6.138,9.177 6.552,9.542 6.967,9.907 7.598,9.867 7.963,9.451 8.042,9.364 10.053,7.198 13.773,7.959 14.315,8.07 14.843,7.72 14.953,7.18 15.064,6.639 14.715,6.11 14.174,6 12.539,5.664 11.148,5.777 10.016,6.08 Z M 23.984,6.081 C 22.852,5.778 21.461,5.665 19.825,5.999 c -0.541,0.111 -0.89,0.639 -0.779,1.18 0.112,0.541 0.639,0.89 1.18,0.779 3.724,-0.762 5.731,1.405 5.814,1.497 0.367,0.407 1,0.444 1.41,0.078 0.41,-0.366 0.451,-0.991 0.088,-1.404 -0.075,-0.084 -1.3,-1.444 -3.554,-2.048 z"
     id="path10"
     inkscape:connector-curvature="0"
     style="fill:#664500" />
</svg>
