<?xml version="1.0" encoding="UTF-8" standalone="no"?>
<svg
   xmlns:dc="http://purl.org/dc/elements/1.1/"
   xmlns:cc="http://creativecommons.org/ns#"
   xmlns:rdf="http://www.w3.org/1999/02/22-rdf-syntax-ns#"
   xmlns:svg="http://www.w3.org/2000/svg"
   xmlns="http://www.w3.org/2000/svg"
   xmlns:sodipodi="http://sodipodi.sourceforge.net/DTD/sodipodi-0.dtd"
   xmlns:inkscape="http://www.inkscape.org/namespaces/inkscape"
   viewBox="0 0 28.939062 34.986"
   id="svg2"
   version="1.1"
   inkscape:version="0.91 r13725"
   sodipodi:docname="1f97b.svg"
   width="28.939062"
   height="34.986">
  <metadata
     id="metadata28">
    <rdf:RDF>
      <cc:Work
         rdf:about="">
        <dc:format>image/svg+xml</dc:format>
        <dc:type
           rdf:resource="http://purl.org/dc/dcmitype/StillImage" />
      </cc:Work>
    </rdf:RDF>
  </metadata>
  <defs
     id="defs26" />
  <sodipodi:namedview
     pagecolor="#ffffff"
     bordercolor="#666666"
     borderopacity="1"
     objecttolerance="10"
     gridtolerance="10"
     guidetolerance="10"
     inkscape:pageopacity="0"
     inkscape:pageshadow="2"
     inkscape:window-width="640"
     inkscape:window-height="480"
     id="namedview24"
     showgrid="false"
     inkscape:zoom="6.5555556"
     inkscape:cx="14.511899"
     inkscape:cy="17.986"
     inkscape:window-x="0"
     inkscape:window-y="0"
     inkscape:window-maximized="0"
     inkscape:current-layer="svg2" />
  <path
     d="m 23.296899,8.606 c -0.071,3.25 1.712,8.071 4.491,14.867 -1.01,0.423 -6.747,2.074 -8.961,-0.596 -2.214,-2.67 4.47,-14.271 4.47,-14.271 z"
     id="path4"
     inkscape:connector-curvature="0"
     style="fill:#ffac33" />
  <path
     d="m 23.591899,8.151 c -0.071,3.25 1.042,7.553 3.821,14.35 -1.01,0.423 -5.943,1.906 -8.157,-0.764 -2.214,-2.671 4.336,-13.586 4.336,-13.586 z"
     id="path6"
     inkscape:connector-curvature="0"
     style="fill:#5c913b" />
  <path
     d="m 22.772899,12.896 c -0.071,3.25 1.379,8.063 4.159,14.859 -1.01,0.423 -6.747,2.074 -8.961,-0.596 -2.215,-2.67 4.802,-14.263 4.802,-14.263 z"
     id="path8"
     inkscape:connector-curvature="0"
     style="fill:#ffac33" />
  <path
     d="m 22.779899,12.366 c 0.34,2.964 1.042,7.553 3.821,14.35 -1.01,0.423 -5.943,1.906 -8.157,-0.765 -1.516,-1.829 -0.556,-11.372 1.23,-14.78 0.821,-1.567 3.106,1.195 3.106,1.195 z"
     id="path10"
     inkscape:connector-curvature="0"
     style="fill:#77b255" />
  <path
     d="m 23.427899,14 4.389,-1.379 c 0.892,-0.28 1.355,-1.257 1.005,-2.124 C 27.488899,7.198 24.052899,0 19.427899,0 L 9.5118992,0 c -4.626,0 -8.064,7.203 -9.39500005,10.501 -0.349,0.865 0.113,1.84 1.00300005,2.119 l 4.392,1.38 1.726,-0.844 c -0.257,5.762 -0.756,15.214 -1.726,19.58 7.9999998,3 9.9999998,3 17.9999998,0 -0.968,-4.355 -1.467,-13.785 -1.724,-19.538 l 1.64,0.802 z"
     id="path12"
     inkscape:connector-curvature="0"
     style="fill:#9266cc" />
  <path
     d="m 21.782899,13.182 -0.355,-7.182 2,8 z"
     id="path14"
     inkscape:connector-curvature="0"
     style="fill:#553788" />
  <path
     d="m 21.188899,9.865 c -1.156,10.985 -14.7779998,16.321 -14.7779998,16.321 0,0 0.531,-7.102 0.754,-11.469 9.9999998,-5 12.3899998,-14.685 12.3899998,-14.685 0,0 0.861,-0.149 1.381,0.252 0.371,1.383 0.737,4.971 0.253,9.581 z"
     id="path16"
     inkscape:connector-curvature="0"
     style="fill:#ffac33" />
  <path
     d="m 20.712899,5.587 c 0,11.851 -14.1659998,18.754 -14.1659998,18.754 l 0.518,-7.812 c 0,0 2.9389998,-0.973 7.3219998,-4.823 4.775,-4.194 5.465,-11.643 5.465,-11.643 0,0 0.357,-0.104 0.683,0.074 0.254,0.799 0.178,3.131 0.178,5.45 z"
     id="path18"
     inkscape:connector-curvature="0"
     style="fill:#77b255" />
  <path
     d="m 7.2278992,13.211 0.284,-7.211 -2,8 z M 14.511899,4.088 c 2.257,0 4.087,-1.83 4.087,-4.088 l -8.175,0 c 10e-4,2.257 1.831,4.088 4.088,4.088 z"
     id="path20"
     inkscape:connector-curvature="0"
     style="fill:#553788" />
  <path
     d="m 0.35489915,9.926 c -0.085,0.2 -0.166,0.396 -0.238,0.575 -0.349,0.865 0.112,1.84 1.00300005,2.12 l 4.392,1.379 0.046,-0.022 c 0.121,-0.561 0.245,-1.071 0.319,-1.403 -4.053,-0.952 -5.39600005,-1.267 -5.52200005,-2.649 z M 23.103899,12.575 c 0.075,0.335 0.201,0.855 0.324,1.425 l 4.362,-1.37 c 0.906,-0.285 1.377,-1.277 1.021,-2.158 L 28.614899,10 c -0.168,1.318 -1.534,1.641 -5.511,2.575 z M 5.7648992,31.404 c -0.081,0.478 -0.164,0.932 -0.253,1.332 7.9999998,3 9.9999998,3 17.9999998,0 -0.094,-0.422 -0.182,-0.904 -0.267,-1.414 -7.803,3.829 -14.3269998,1.451 -17.4799998,0.082 z"
     id="path22"
     inkscape:connector-curvature="0"
     style="fill:#ffac33" />
</svg>
