<?xml version="1.0" encoding="UTF-8" standalone="no"?>
<svg
   xmlns:dc="http://purl.org/dc/elements/1.1/"
   xmlns:cc="http://creativecommons.org/ns#"
   xmlns:rdf="http://www.w3.org/1999/02/22-rdf-syntax-ns#"
   xmlns:svg="http://www.w3.org/2000/svg"
   xmlns="http://www.w3.org/2000/svg"
   xmlns:sodipodi="http://sodipodi.sourceforge.net/DTD/sodipodi-0.dtd"
   xmlns:inkscape="http://www.inkscape.org/namespaces/inkscape"
   viewBox="0 0 36 17.999268"
   id="svg2"
   version="1.1"
   inkscape:version="0.91 r13725"
   sodipodi:docname="1f97d.svg"
   width="36"
   height="17.999268">
  <metadata
     id="metadata24">
    <rdf:RDF>
      <cc:Work
         rdf:about="">
        <dc:format>image/svg+xml</dc:format>
        <dc:type
           rdf:resource="http://purl.org/dc/dcmitype/StillImage" />
      </cc:Work>
    </rdf:RDF>
  </metadata>
  <defs
     id="defs22" />
  <sodipodi:namedview
     pagecolor="#ffffff"
     bordercolor="#666666"
     borderopacity="1"
     objecttolerance="10"
     gridtolerance="10"
     guidetolerance="10"
     inkscape:pageopacity="0"
     inkscape:pageshadow="2"
     inkscape:window-width="640"
     inkscape:window-height="480"
     id="namedview20"
     showgrid="false"
     inkscape:zoom="6.5555556"
     inkscape:cx="18"
     inkscape:cy="8.999267"
     inkscape:window-x="0"
     inkscape:window-y="0"
     inkscape:window-maximized="0"
     inkscape:current-layer="svg2" />
  <path
     d="m 18,0 0,11.756 c -3,0 -1.067,5.182 -6,5.999 -1.781,0.295 -3.931,0.355 -6,0 C 2.747,17.196 1.176,14.728 0.958,10.074 0.677,4.081 2.234,1.227 6.276,0.541 9.394,0.012 14,0 18,0 Z"
     id="path4"
     inkscape:connector-curvature="0"
     style="fill:#9aaab4" />
  <path
     d="m 17.926,0 0,11.756 c 3,0 1.067,5.182 6,5.999 1.781,0.295 3.931,0.355 6,0 3.253,-0.559 4.824,-3.027 5.042,-7.681 C 35.249,4.081 33.692,1.227 29.65,0.541 26.532,0.012 21.926,0 17.926,0 Z M 1.5,12 C 0.675,12 0,11.325 0,10.5 l 0,-3 C 0,6.675 0.675,6 1.5,6 2.325,6 3,6.675 3,7.5 l 0,3 C 3,11.325 2.325,12 1.5,12 Z"
     id="path6"
     inkscape:connector-curvature="0"
     style="fill:#9aaab4" />
  <path
     d="M 34.5,12 C 33.675,12 33,11.325 33,10.5 l 0,-3 C 33,6.675 33.675,6 34.5,6 35.325,6 36,6.675 36,7.5 l 0,3 c 0,0.825 -0.675,1.5 -1.5,1.5 z"
     id="path8"
     inkscape:connector-curvature="0"
     style="fill:#9aaab4" />
  <path
     d="M 34.5,13 C 33.675,13 33,12.325 33,11.5 l 0,-5 C 33,5.675 33.675,5 34.5,5 35.325,5 36,5.675 36,6.5 l 0,5 c 0,0.825 -0.675,1.5 -1.5,1.5 z m -33,0 C 0.675,13 0,12.325 0,11.5 l 0,-5 C 0,5.675 0.675,5 1.5,5 2.325,5 3,5.675 3,6.5 l 0,5 C 3,12.325 2.325,13 1.5,13 Z"
     id="path10"
     inkscape:connector-curvature="0"
     style="fill:#9aaab4" />
  <path
     d="m 18,2 0,7.756 c -4,0 -2.615,5.396 -7,6 -1.583,0.218 -2.161,0.263 -4,0 C 4.108,15.343 3.078,13.201 2.831,9.866 2.506,5.472 4.097,2.907 7.69,2.4 10.461,2.009 14.444,2 18,2 Z"
     id="path12"
     inkscape:connector-curvature="0"
     style="fill:#ccd6dd" />
  <path
     d="m 18,2 0,7.756 c 4,0 2.615,5.396 7,6 1.583,0.218 2.161,0.263 4,0 2.892,-0.413 3.922,-2.555 4.169,-5.89 C 33.494,5.472 31.903,2.907 28.31,2.4 25.539,2.009 21.556,2 18,2 Z"
     id="path14"
     inkscape:connector-curvature="0"
     style="fill:#ccd6dd" />
  <path
     d="M 26.993,2.252 C 26.338,2.191 25.643,2.145 24.916,2.11 l -3.695,10.151 c 0.378,0.76 0.75,1.56 1.323,2.212 L 26.993,2.252 Z M 18,2 C 17.354,2 16.692,2.001 16.027,2.004 L 11.024,15.751 C 15.378,15.13 14.008,9.756 18,9.756 c 0.601,0 1.07,0.133 1.466,0.342 L 22.403,2.03 C 20.937,2.003 19.435,2 18,2 Z"
     id="path16"
     inkscape:connector-curvature="0"
     style="fill:#e1e8ed" />
  <path
     d="m 35,7 -1,0 0,4 1,0 c 0.55,0 1,-0.45 1,-1 L 36,8 C 36,7.45 35.55,7 35,7 Z M 1,7 C 0.45,7 0,7.45 0,8 l 0,2 c 0,0.55 0.45,1 1,1 L 2,11 2,7 1,7 Z"
     id="path18"
     inkscape:connector-curvature="0"
     style="fill:#292f33" />
</svg>
