<?xml version="1.0" encoding="UTF-8" standalone="no"?>
<svg
   xmlns:dc="http://purl.org/dc/elements/1.1/"
   xmlns:cc="http://creativecommons.org/ns#"
   xmlns:rdf="http://www.w3.org/1999/02/22-rdf-syntax-ns#"
   xmlns:svg="http://www.w3.org/2000/svg"
   xmlns="http://www.w3.org/2000/svg"
   xmlns:sodipodi="http://sodipodi.sourceforge.net/DTD/sodipodi-0.dtd"
   xmlns:inkscape="http://www.inkscape.org/namespaces/inkscape"
   viewBox="0 0 35.678001 36"
   id="svg2"
   version="1.1"
   inkscape:version="0.91 r13725"
   sodipodi:docname="1f981.svg"
   width="35.678001"
   height="36">
  <metadata
     id="metadata40">
    <rdf:RDF>
      <cc:Work
         rdf:about="">
        <dc:format>image/svg+xml</dc:format>
        <dc:type
           rdf:resource="http://purl.org/dc/dcmitype/StillImage" />
      </cc:Work>
    </rdf:RDF>
  </metadata>
  <defs
     id="defs38" />
  <sodipodi:namedview
     pagecolor="#ffffff"
     bordercolor="#666666"
     borderopacity="1"
     objecttolerance="10"
     gridtolerance="10"
     guidetolerance="10"
     inkscape:pageopacity="0"
     inkscape:pageshadow="2"
     inkscape:window-width="640"
     inkscape:window-height="480"
     id="namedview36"
     showgrid="false"
     inkscape:zoom="6.5555556"
     inkscape:cx="17.842"
     inkscape:cy="18"
     inkscape:window-x="0"
     inkscape:window-y="0"
     inkscape:window-maximized="0"
     inkscape:current-layer="svg2" />
  <path
     d="m 32.167,10.958 c 0,0 2.315,0.024 3.511,1.177 -0.336,-4.971 -2.104,-8.249 -5.944,-10.13 -3.141,-1.119 -6.066,1.453 -6.066,1.453 0,0 0.862,-1.99 2.19,-2.746 C 23.631,0.236 20.988,0 17.842,0 14.706,0 12.057,0.227 9.836,0.701 c 1.341,0.745 2.215,2.758 2.215,2.758 0,0 -3.015,-2.656 -6.209,-1.406 C 2.063,3.949 0.323,7.223 0,12.174 c 1.183,-1.19 3.55,-1.215 3.55,-1.215 0,0 -3.813,2.308 -3.426,5.655 0.387,2.947 1.394,5.967 2.879,8.722 C 2.881,22.15 5.759,20 5.759,20 c 0,0 -2.492,5.96 -0.581,8.738 1.935,2.542 4.313,4.641 6.976,5.916 -0.955,-1.645 -0.136,-3.044 -0.103,-2.945 0.042,0.125 0.459,3.112 2.137,3.743 1.178,0.356 2.4,0.548 3.654,0.548 1.292,0 2.55,-0.207 3.761,-0.583 1.614,-0.691 2.024,-3.585 2.064,-3.708 0.032,-0.098 0.843,1.287 -0.09,2.921 2.706,-1.309 5.118,-3.463 7.064,-6.073 C 32.34,25.711 29.958,20 29.958,20 c 0,0 2.85,2.13 2.757,5.288 1.556,-2.906 2.585,-6.104 2.911,-9.2 -0.035,-3.061 -3.459,-5.13 -3.459,-5.13 z"
     id="path4"
     inkscape:connector-curvature="0"
     style="fill:#662113" />
  <path
     d="m 13.701,9.495 c 0.596,2.392 0.16,4.422 -2.231,5.017 -2.392,0.596 -6.363,0.087 -6.958,-2.304 -0.596,-2.392 0.469,-5.39 1.81,-5.724 1.341,-0.334 6.784,0.62 7.379,3.011 z m 9.104,18.432 c 0,2.74 -2.222,4.963 -4.963,4.963 -2.741,0 -4.963,-2.223 -4.963,-4.963 0,-2.741 2.223,-4.964 4.963,-4.964 2.741,0 4.963,2.222 4.963,4.964 z"
     id="path6"
     inkscape:connector-curvature="0"
     style="fill:#ffcc4d" />
  <path
     d="m 21.151,27.927 c 0,1.827 -1.481,3.309 -3.309,3.309 -1.828,0 -3.309,-1.481 -3.309,-3.309 0,-1.827 1.481,-3.31 3.309,-3.31 1.828,0 3.309,1.483 3.309,3.31 z"
     id="path8"
     inkscape:connector-curvature="0"
     style="fill:#dd2e44" />
  <path
     d="m 10.894,8.997 c 0.871,1.393 0.447,3.229 -0.946,4.1 C 8.554,13.968 7.34,13.894 6.469,12.501 5.598,11.107 6.283,8.37 6.793,8.051 c 0.51,-0.319 3.23,-0.448 4.101,0.946 z"
     id="path10"
     inkscape:connector-curvature="0"
     style="fill:#e6aaaa" />
  <path
     d="m 21.983,9.495 c -0.596,2.392 -0.159,4.422 2.232,5.017 2.392,0.596 6.363,0.087 6.959,-2.304 0.596,-2.392 -0.47,-5.39 -1.811,-5.724 -1.342,-0.334 -6.786,0.62 -7.38,3.011 z"
     id="path12"
     inkscape:connector-curvature="0"
     style="fill:#ffcc4d" />
  <path
     d="m 24.79,8.997 c -0.871,1.393 -0.447,3.229 0.945,4.1 1.394,0.871 2.608,0.797 3.479,-0.596 0.871,-1.394 0.185,-4.131 -0.324,-4.45 -0.51,-0.319 -3.229,-0.448 -4.1,0.946 z"
     id="path14"
     inkscape:connector-curvature="0"
     style="fill:#e6aaaa" />
  <path
     d="m 17.842,7.125 -0.002,0 C 5.009,7.126 6.967,12.083 8.342,18.667 9.717,25.25 10.226,27 10.226,27 l 15.228,0 c 0,0 0.51,-1.75 1.885,-8.333 1.375,-6.584 3.332,-11.541 -9.497,-11.542 z"
     id="path16"
     inkscape:connector-curvature="0"
     style="fill:#ffcc4d" />
  <path
     d="m 11.842,16 c 0,0 0,-1.5 1.5,-1.5 1.5,0 1.5,1.5 1.5,1.5 l 0,1.5 c 0,0 0,1.5 -1.5,1.5 -1.5,0 -1.5,-1.5 -1.5,-1.5 l 0,-1.5 z m 9,0 c 0,0 0,-1.5 1.5,-1.5 1.5,0 1.5,1.5 1.5,1.5 l 0,1.5 c 0,0 0,1.5 -1.5,1.5 -1.5,0 -1.5,-1.5 -1.5,-1.5 l 0,-1.5 z"
     id="path18"
     inkscape:connector-curvature="0"
     style="fill:#272b2b" />
  <path
     d="m 20.01,21.521 c -1.598,0 -1.385,0.848 -2.168,2.113 -0.783,-1.266 -0.571,-2.113 -2.168,-2.113 -6.865,0 -6.837,0.375 -6.865,2.828 -0.058,4.986 2.802,6.132 5.257,6.06 1.597,-0.048 2.994,-0.88 3.777,-2.131 0.783,1.251 2.179,2.083 3.776,2.131 2.455,0.072 5.315,-1.073 5.257,-6.06 -0.029,-2.453 -0.001,-2.828 -6.866,-2.828 z"
     id="path20"
     inkscape:connector-curvature="0"
     style="fill:#ffe8b6" />
  <path
     d="m 14.424,21.411 c -1.14,0.233 2.279,4.431 3.418,4.431 1.139,0 4.559,-4.198 3.419,-4.431 -1.14,-0.232 -5.698,-0.232 -6.837,0 z"
     id="path22"
     inkscape:connector-curvature="0"
     style="fill:#272b2b" />
  <circle
     cx="11.342"
     cy="24.5"
     r="0.5"
     id="circle24"
     style="fill:#d99e82" />
  <circle
     cx="10.342"
     cy="26.5"
     r="0.5"
     id="circle26"
     style="fill:#d99e82" />
  <circle
     cx="12.342"
     cy="27.5"
     r="0.5"
     id="circle28"
     style="fill:#d99e82" />
  <circle
     cx="24.341999"
     cy="24.5"
     r="0.5"
     id="circle30"
     style="fill:#d99e82" />
  <circle
     cx="25.341999"
     cy="26.5"
     r="0.5"
     id="circle32"
     style="fill:#d99e82" />
  <circle
     cx="23.341999"
     cy="27.5"
     r="0.5"
     id="circle34"
     style="fill:#d99e82" />
</svg>
