<?xml version="1.0" encoding="UTF-8" standalone="no"?>
<svg
   xmlns:dc="http://purl.org/dc/elements/1.1/"
   xmlns:cc="http://creativecommons.org/ns#"
   xmlns:rdf="http://www.w3.org/1999/02/22-rdf-syntax-ns#"
   xmlns:svg="http://www.w3.org/2000/svg"
   xmlns="http://www.w3.org/2000/svg"
   xmlns:sodipodi="http://sodipodi.sourceforge.net/DTD/sodipodi-0.dtd"
   xmlns:inkscape="http://www.inkscape.org/namespaces/inkscape"
   viewBox="0 0 35.815815 35.829403"
   id="svg2"
   version="1.1"
   inkscape:version="0.91 r13725"
   sodipodi:docname="1f984.svg"
   width="35.815815"
   height="35.829403">
  <metadata
     id="metadata24">
    <rdf:RDF>
      <cc:Work
         rdf:about="">
        <dc:format>image/svg+xml</dc:format>
        <dc:type
           rdf:resource="http://purl.org/dc/dcmitype/StillImage" />
      </cc:Work>
    </rdf:RDF>
  </metadata>
  <defs
     id="defs22" />
  <sodipodi:namedview
     pagecolor="#ffffff"
     bordercolor="#666666"
     borderopacity="1"
     objecttolerance="10"
     gridtolerance="10"
     guidetolerance="10"
     inkscape:pageopacity="0"
     inkscape:pageshadow="2"
     inkscape:window-width="640"
     inkscape:window-height="480"
     id="namedview20"
     showgrid="false"
     inkscape:zoom="6.5555556"
     inkscape:cx="17.815816"
     inkscape:cy="18.001"
     inkscape:window-x="0"
     inkscape:window-y="0"
     inkscape:window-maximized="0"
     inkscape:current-layer="svg2" />
  <path
     d="m 35.815816,19.682403 c -2.482,-9.9310003 -10.994,-17.9450003 -19.969,-13.0220003 0,0 -4.522,-1.496 -5.174,-1.948 -0.635,-0.44 -1.6349995,-0.904 -0.9119995,0.436 0.4229995,0.782 0.8749995,1.672 2.4029995,3.317 -4.3479995,4.3210003 -3.0689995,9.6250003 -4.6049995,13.1130003 -1.304,2.962 -2.577,4.733 -1.31,6.976 1.317,2.33 4.7289995,3.462 7.0179995,1.06 1.244,-1.307 0.471,-1.937 3.132,-4.202 2.723,-0.543 4.394,-1.791 4.394,-4.375 0,0 0.795,-0.382 1.826,6.009 0.456,2.818 -0.157,5.632 -0.039,8.783 l 13.236,0 0,-16.147 z"
     id="path4"
     inkscape:connector-curvature="0"
     style="fill:#c1cdd5" />
  <path
     d="m 31.721816,5.8904027 c 0.531,1.312 0.848,3.71 0.595,5.3180003 -0.15,-3.9230003 -3.188,-6.5810003 -4.376,-7.1930003 -2.202,-1.137 -4.372,-0.979 -6.799,-0.772 0.111,0.168 0.403,0.814 0.32,1.547 -0.479,-0.875 -1.604,-1.42 -2.333,-1.271 -1.36,0.277 -2.561,0.677 -3.475,1.156 -0.504,0.102 -1.249,0.413 -2.372,1.101 -1.911,1.171 -4.1749995,4.3380003 -6.7369995,3.511 1.042,2.5000003 3.6309995,1.8450003 3.6309995,1.8450003 1.207,-1.9500003 4.067,-3.7790003 6.168,-4.4520003 7.619,-1.745 12.614,3.4390003 15.431,9.3980003 0.768,1.625 2.611,7.132 4.041,10.292 l 0,-15.586 c -0.749,-1.0380003 -1.281,-3.0180003 -4.094,-4.8940003 z"
     id="path6"
     inkscape:connector-curvature="0"
     style="fill:#60379a" />
  <path
     d="m 13.604816,3.4904027 c 0.573,0.788 3.236,0.794 4.596,3.82 1.359,3.0260003 -1.943,2.63 -3.14,1.23 -1.334,-1.561 -1.931,-2.863 -2.165,-3.992 -0.124,-0.596 -0.451,-2.649 0.709,-1.058 z"
     id="path8"
     inkscape:connector-curvature="0"
     style="fill:#c1cdd5" />
  <path
     d="m 14.024816,4.7904027 c 0.956,0.573 2.164,1.515 2.517,2.596 0.351,1.081 -0.707,0.891 -1.349,-0.042 -0.641,-0.934 -0.94,-1.975 -1.285,-2.263 -0.346,-0.289 0.117,-0.291 0.117,-0.291 z"
     id="path10"
     inkscape:connector-curvature="0"
     style="fill:#758795" />
  <circle
     cx="15.070817"
     cy="14.393402"
     r="0.94599998"
     id="circle12"
     style="fill:#292f33" />
  <path
     d="m 8.4458165,26.705403 c 0.119,0.658 -0.181,1.263 -0.67,1.351 -0.49,0.089 -0.984,-0.372 -1.104,-1.03 -0.119,-0.659 0.182,-1.265 0.671,-1.354 0.49,-0.088 0.984,0.373 1.103,1.033 z"
     id="path14"
     inkscape:connector-curvature="0"
     style="fill:#53626c" />
  <path
     d="m 13.659816,7.9524027 0.003,-0.002 -0.005,-0.007 -0.016,-0.014 c -0.008,-0.007 -0.011,-0.019 -0.019,-0.025 -0.009,-0.007 -0.021,-0.011 -0.031,-0.018 -1.155,-0.98 -12.84299954,-8.553 -13.55699954,-7.839 -0.729,0.729 10.22399954,9.523 10.92999954,10.0610003 l 0.011,0.006 0.541,0.439 c 0.008,0.007 0.01,0.018 0.018,0.024 0.013,0.01 0.028,0.015 0.042,0.024 l 0.047,0.038 -0.009,-0.016 c 0.565,0.361 1.427,0.114 1.979,-0.592 0.559,-0.7150003 0.577,-1.6250003 0.066,-2.0790003 z"
     id="path16"
     inkscape:connector-curvature="0"
     style="fill:#ee7c0e" />
  <path
     d="m 4.4928165,2.0784027 0.009,-0.025 c -0.301,-0.174 -0.594,-0.341 -0.878,-0.5 -0.016,0.038 -0.022,0.069 -0.041,0.11 -0.112,0.243 -0.256,0.484 -0.429,0.716 -0.166,0.224 -0.349,0.424 -0.541,0.595 -0.02,0.018 -0.036,0.026 -0.056,0.043 0.238,0.22 0.489,0.446 0.745,0.676 0.234,-0.21 0.456,-0.449 0.654,-0.717 0.214,-0.287 0.395,-0.589 0.537,-0.898 z m 2.275,2.945 c 0.306,-0.41 0.521,-0.822 0.66,-1.212 -0.292,-0.181 -0.584,-0.36 -0.876,-0.538 -0.076,0.298 -0.247,0.699 -0.586,1.152 -0.31,0.417 -0.613,0.681 -0.864,0.845 0.259,0.223 0.52,0.445 0.779,0.665 0.314,-0.244 0.619,-0.552 0.887,-0.912 z m 2.918,2.125 c 0.3649995,-0.49 0.6089995,-0.983 0.7339995,-1.437 l -0.9059995,-0.586 c -0.023,0.296 -0.172,0.81 -0.631,1.425 -0.412,0.554 -0.821,0.847 -1.1,0.978 l 0.814,0.671 c 0.381,-0.256 0.761,-0.611 1.089,-1.051 z"
     id="path18"
     inkscape:connector-curvature="0"
     style="fill:#c43512" />
</svg>
