<?xml version="1.0" encoding="UTF-8" standalone="no"?>
<svg
   xmlns:dc="http://purl.org/dc/elements/1.1/"
   xmlns:cc="http://creativecommons.org/ns#"
   xmlns:rdf="http://www.w3.org/1999/02/22-rdf-syntax-ns#"
   xmlns:svg="http://www.w3.org/2000/svg"
   xmlns="http://www.w3.org/2000/svg"
   xmlns:sodipodi="http://sodipodi.sourceforge.net/DTD/sodipodi-0.dtd"
   xmlns:inkscape="http://www.inkscape.org/namespaces/inkscape"
   viewBox="0 0 25.97583 34.499866"
   id="svg2"
   version="1.1"
   inkscape:version="0.91 r13725"
   sodipodi:docname="1f989.svg"
   width="25.97583"
   height="34.499866">
  <metadata
     id="metadata30">
    <rdf:RDF>
      <cc:Work
         rdf:about="">
        <dc:format>image/svg+xml</dc:format>
        <dc:type
           rdf:resource="http://purl.org/dc/dcmitype/StillImage" />
      </cc:Work>
    </rdf:RDF>
  </metadata>
  <defs
     id="defs28" />
  <sodipodi:namedview
     pagecolor="#ffffff"
     bordercolor="#666666"
     borderopacity="1"
     objecttolerance="10"
     gridtolerance="10"
     guidetolerance="10"
     inkscape:pageopacity="0"
     inkscape:pageshadow="2"
     inkscape:window-width="640"
     inkscape:window-height="480"
     id="namedview26"
     showgrid="false"
     inkscape:zoom="6.5555556"
     inkscape:cx="12.999915"
     inkscape:cy="17.249865"
     inkscape:window-x="0"
     inkscape:window-y="0"
     inkscape:window-maximized="0"
     inkscape:current-layer="svg2" />
  <path
     d="m 2.3169153,10.25 c -5.723,9.083 0.958,18 0.958,18 0,0 2.874,-0.442 6.8749997,-5.2 4,-4.758 -7.8329997,-12.8 -7.8329997,-12.8 z m 21.3419997,0 c 5.723,9.083 -0.958,18 -0.958,18 0,0 -2.874,-0.442 -6.875,-5.2 -4.001,-4.758 7.833,-12.8 7.833,-12.8 z"
     id="path4"
     inkscape:connector-curvature="0"
     style="fill:#662113" />
  <path
     d="m 10.202915,30.807 c -0.123,-0.229 -0.3169997,-0.384 -0.5309997,-0.496 -2.032,-2.172 -0.589,-4.717 -0.589,-4.717 0,-0.703 1.2709997,-2.544 0,-2.544 l -1.272,1.272 c -1.272,1.271 -1.272,5.089 -1.272,5.089 l -2.544,0 c -0.703,0 -1.272,0.568 -1.272,1.272 0,0.701 0.569,1.271 1.272,1.271 l 1.408,0 -0.282,0.153 c -0.618,0.334 -0.848,1.105 -0.514,1.726 0.334,0.616 1.106,0.848 1.724,0.514 l 3.357,-1.816 c 0.6189997,-0.334 0.8459997,-1.105 0.5149997,-1.724 z m 5.596,0 c 0.123,-0.229 0.317,-0.384 0.53,-0.496 2.033,-2.172 0.589,-4.717 0.589,-4.717 0,-0.703 -1.271,-2.544 0,-2.544 l 1.272,1.272 c 1.273,1.271 1.273,5.089 1.273,5.089 l 2.544,0 c 0.704,0 1.271,0.568 1.271,1.272 0,0.701 -0.566,1.271 -1.271,1.271 l -1.408,0 0.281,0.153 c 0.62,0.334 0.848,1.105 0.515,1.726 -0.336,0.616 -1.105,0.848 -1.726,0.514 l -3.356,-1.816 c -0.619,-0.334 -0.847,-1.105 -0.514,-1.724 z"
     id="path6"
     inkscape:connector-curvature="0"
     style="fill:#ffac33" />
  <path
     d="m 23.277915,10.542 c 2.891,-6.092 0,-10.542 0,-10.542 0,0 -5.781,0.959 -6.744,2.875 -1.219,2.424 6.744,7.667 6.744,7.667 z"
     id="path8"
     inkscape:connector-curvature="0"
     style="fill:#662113" />
  <path
     d="m 24.561915,11.988 c 0,10.297 -3.152,20.595 -11.562,20.595 -8.4089997,0 -11.5629997,-10.298 -11.5629997,-20.595 0,-10.298 5.177,-10.655 11.5629997,-10.655 6.387,0 11.562,0.357 11.562,10.655 z"
     id="path10"
     inkscape:connector-curvature="0"
     style="fill:#662113" />
  <path
     d="m 22.665915,16.988 c 0,10.297 -7.774,14.595 -9.666,14.595 -1.892,0 -9.6659997,-4.298 -9.6659997,-14.595 0,-10.298 19.3319997,-10.298 19.3319997,0 z"
     id="path12"
     inkscape:connector-curvature="0"
     style="fill:#c1694f" />
  <path
     d="m 2.7219153,10.542 c -2.89099996,-6.092 0,-10.542 0,-10.542 0,0 5.782,0.959 6.746,2.875 1.2179997,2.424 -6.746,7.667 -6.746,7.667 z"
     id="path14"
     inkscape:connector-curvature="0"
     style="fill:#662113" />
  <path
     d="m 9.9289153,3.623 c -4.227,-1.584 -7.207,-3.623 -7.207,-3.623 0,0 -2.07599996,3.221 -0.928,7.926 0.446,2.137 1.94,4.195 3.904,4.662 2.637,0.627 7.3019997,-0.049 7.3019997,-3.963 0,-2.695 -1.074,-4.252 -3.0709997,-5.002 z m 6.1419997,0 c 4.227,-1.584 7.206,-3.623 7.206,-3.623 0,0 2.076,3.221 0.928,7.926 -0.445,2.137 -1.939,4.195 -3.902,4.662 -2.638,0.627 -7.303,-0.049 -7.303,-3.963 0,-2.695 1.074,-4.252 3.071,-5.002 z"
     id="path16"
     inkscape:connector-curvature="0"
     style="fill:#c1694f" />
  <path
     d="m 11.082915,7.667 c 0,2.117 -1.7159997,3.833 -3.8329997,3.833 -2.117,0 -3.833,-1.716 -3.833,-3.833 0,-2.117 1.717,-3.833 3.833,-3.833 2.117,-10e-4 3.8329997,1.716 3.8329997,3.833 z m 11.5,0 c 0,2.117 -1.716,3.833 -3.833,3.833 -2.117,0 -3.833,-1.716 -3.833,-3.833 0,-2.117 1.716,-3.833 3.833,-3.833 2.117,0 3.833,1.716 3.833,3.833 z"
     id="path18"
     inkscape:connector-curvature="0"
     style="fill:#ffd983" />
  <path
     d="m 9.1669153,7.667 c 0,1.059 -0.858,1.917 -1.917,1.917 -1.059,0 -1.917,-0.858 -1.917,-1.917 0,-1.058 0.858,-1.917 1.917,-1.917 1.059,0 1.917,0.858 1.917,1.917 z m 11.4999997,0 c 0,1.059 -0.858,1.917 -1.917,1.917 -1.059,0 -1.917,-0.858 -1.917,-1.917 0,-1.058 0.858,-1.917 1.917,-1.917 1.059,0 1.917,0.858 1.917,1.917 z"
     id="path20"
     inkscape:connector-curvature="0"
     style="fill:#292f33" />
  <path
     d="m 15.874915,11.979 c 0,2.382 -2.875,3.354 -2.875,3.354 0,0 -2.875,-0.973 -2.875,-3.354 0,-2.381 2.875,-3.354 2.875,-3.354 0,0 2.875,0.972 2.875,3.354 z"
     id="path22"
     inkscape:connector-curvature="0"
     style="fill:#ffcc4d" />
  <path
     d="m 15.874915,11.979 c 0,2.382 -2.875,3.354 -2.875,3.354 0,0 -2.875,-0.973 -2.875,-3.354 1.198,1.198 2.875,1.438 2.875,1.438 0,0 1.677,-0.24 2.875,-1.438 z"
     id="path24"
     inkscape:connector-curvature="0"
     style="fill:#f4900c" />
</svg>
