<?xml version="1.0" encoding="UTF-8" standalone="no"?>
<svg
   xmlns:dc="http://purl.org/dc/elements/1.1/"
   xmlns:cc="http://creativecommons.org/ns#"
   xmlns:rdf="http://www.w3.org/1999/02/22-rdf-syntax-ns#"
   xmlns:svg="http://www.w3.org/2000/svg"
   xmlns="http://www.w3.org/2000/svg"
   xmlns:sodipodi="http://sodipodi.sourceforge.net/DTD/sodipodi-0.dtd"
   xmlns:inkscape="http://www.inkscape.org/namespaces/inkscape"
   viewBox="0 0 35.771843 32.215"
   id="svg2"
   version="1.1"
   inkscape:version="0.91 r13725"
   sodipodi:docname="1f98b.svg"
   width="35.771843"
   height="32.215">
  <metadata
     id="metadata30">
    <rdf:RDF>
      <cc:Work
         rdf:about="">
        <dc:format>image/svg+xml</dc:format>
        <dc:type
           rdf:resource="http://purl.org/dc/dcmitype/StillImage" />
      </cc:Work>
    </rdf:RDF>
  </metadata>
  <defs
     id="defs28" />
  <sodipodi:namedview
     pagecolor="#ffffff"
     bordercolor="#666666"
     borderopacity="1"
     objecttolerance="10"
     gridtolerance="10"
     guidetolerance="10"
     inkscape:pageopacity="0"
     inkscape:pageshadow="2"
     inkscape:window-width="640"
     inkscape:window-height="480"
     id="namedview26"
     showgrid="false"
     inkscape:zoom="6.5555556"
     inkscape:cx="17.864422"
     inkscape:cy="16.188"
     inkscape:window-x="0"
     inkscape:window-y="0"
     inkscape:window-maximized="0"
     inkscape:current-layer="svg2" />
  <path
     d="m 19.868422,18.27 c -0.426,0 -0.858,0.01 -1.294,0.031 -0.436,1.268 -0.468,2.747 0,5.097 0.328,1.646 2.659,6.299 4.584,7.933 0.683,0.58 1.638,0.884 2.69,0.884 2.144,0 4.691,-1.265 6.157,-4.034 3.001,-5.671 -3.474,-9.911 -12.137,-9.911 z"
     id="path4"
     inkscape:connector-curvature="0"
     style="fill:#1c6399" />
  <path
     d="m 33.530422,0 c -0.204,0 -0.425,0.021 -0.663,0.066 -3.182,0.601 -9.302,5.126 -14.287,11.771 0,0 -0.789,5.16 -0.789,6.194 0,0.336 1.264,0.5 3.058,0.5 3.717,0 9.709,-0.705 11.424,-2.041 1.898,-1.479 3.65,-9.804 3.488,-14.079 -0.046,-1.175 -0.662,-2.411 -2.231,-2.411 z"
     id="path6"
     inkscape:connector-curvature="0"
     style="fill:#1c6399" />
  <path
     d="m 26.962422,11.963 6.629,-0.436 c 0,0 -1.055,3.619 -3.102,4.656 -2.047,1.037 -7.719,1.5 -7.719,1.5 0,0 2.33,-4.261 3.286,-5.29 0.237,-0.256 0.559,-0.408 0.906,-0.43 z m 0.52,-1.952 7.526,-8.151 c 0,0 0.002,5.365 -1.206,8.635 0,0 -5.383,0.379 -5.914,0.391 -0.703,0.016 -0.969,-0.265 -0.406,-0.875 z m -6.068,7.672 5.5,-8.547 c 0.188,-0.22 0.253,-0.52 0.171,-0.798 l -0.968,-3.233 -6.722,6.609 -0.844,6.031 2.863,-0.062 z m 6.312,-10.776 c 0.172,0.406 0.516,0.5 0.938,0.125 0.422,-0.375 6.074,-6.094 6,-6.218 0,0 -2.832,-1.194 -7.8,3.463 0,0 0.69,2.224 0.862,2.63 z m -8.925,12.099 5.373,5.228 c 0.203,0.178 0.255,0.473 0.125,0.709 l -2.375,4.334 c 0,0 -4.187,-5.479 -3.123,-10.271 z m 7.282,6.301 5.549,0.741 c 0,0 -1.058,3.845 -3.394,4.854 -3.906,1.688 -5.312,-0.625 -5.312,-0.625 l 2.352,-4.562 c 0.151,-0.298 0.477,-0.463 0.805,-0.408 z m -5.95,-6.426 5.375,4.958 c 0.077,0.066 0.169,0.11 0.269,0.129 l 6.119,0.903 c 0,0 -1.219,-3.031 -4.429,-4.531 -3.71,-1.733 -7.334,-1.459 -7.334,-1.459 z"
     id="path8"
     inkscape:connector-curvature="0"
     style="fill:#55acee" />
  <path
     d="m 19.868422,18.27 c -0.426,0 -0.858,0.01 -1.294,0.031 -0.436,1.268 -0.468,2.747 0,5.097 0.328,1.646 2.659,6.299 4.584,7.933 0.683,0.58 1.638,0.884 2.69,0.884 2.144,0 4.691,-1.265 6.157,-4.034 3.001,-5.671 -3.474,-9.911 -12.137,-9.911 z m 10.537,9.326 c -1.316,2.486 -3.05,3.473 -4.558,3.473 -0.767,0 -1.704,-0.313 -2.15,-0.691 -1.695,-1.439 -3.437,-4.58 -4.25,-7.224 -0.465,-1.513 -0.354,-4.022 -0.354,-4.022 l 0.667,-0.021 c 5.168,0 9.249,2.058 10.726,4.512 0.714,1.186 0.687,2.523 -0.081,3.973 z"
     id="path10"
     inkscape:connector-curvature="0"
     style="fill:#292f33" />
  <path
     d="m 33.530422,1.25 c 0.231,0 0.935,0 0.981,1.208 0.102,2.681 -0.594,6.061 -1.397,8.882 -0.541,1.901 -1.586,3.292 -2.094,3.687 -0.56,0.436 -1.863,1.238 -3.719,1.563 -2.03,0.355 -4.207,0.833 -6.456,0.833 -0.827,0 -1.433,0.019 -1.794,-0.021 0.131,-1.218 0.489,-3.551 0.717,-5.064 3.768,-4.94 9.711,-10.361 13.331,-11.044 0.155,-0.029 0.3,-0.044 0.431,-0.044 m 0,-1.25 c -0.204,0 -0.425,0.021 -0.663,0.066 -3.182,0.601 -9.302,5.126 -14.287,11.771 0,0 -0.789,5.16 -0.789,6.194 0,0.336 1.264,0.5 3.058,0.5 3.717,0 9.709,-0.705 11.424,-2.041 1.898,-1.479 3.65,-9.804 3.488,-14.079 -0.046,-1.175 -0.662,-2.411 -2.231,-2.411 z"
     id="path12"
     inkscape:connector-curvature="0"
     style="fill:#292f33" />
  <path
     d="m 3.7664218,28.181 c 1.466,2.769 4.012,4.034 6.157,4.034 1.0520002,0 2.0070002,-0.304 2.6900002,-0.884 1.925,-1.633 4.256,-6.286 4.584,-7.933 0.468,-2.35 0.436,-3.828 0,-5.097 -0.436,-0.021 -0.868,-0.031 -1.294,-0.031 -8.6650002,0 -15.13900021,4.24 -12.1370002,9.911 z"
     id="path14"
     inkscape:connector-curvature="0"
     style="fill:#1c6399" />
  <path
     d="M 2.2404218,0 C 0.67142179,0 0.05442179,1.236 0.01042179,2.41 c -0.162,4.275 1.59000001,12.601 3.48800001,14.079 1.715,1.336 7.7060002,2.041 11.4240002,2.041 1.794,0 3.058,-0.164 3.058,-0.5 0,-1.033 -0.789,-6.194 -0.789,-6.194 C 12.205422,5.192 6.0844218,0.667 2.9034218,0.066 2.6654218,0.021 2.4444218,0 2.2404218,0 Z"
     id="path16"
     inkscape:connector-curvature="0"
     style="fill:#1c6399" />
  <path
     d="m 8.8074218,11.963 -6.628,-0.436 c 0,0 1.055,3.619 3.102,4.656 2.047,1.037 7.7190002,1.5 7.7190002,1.5 0,0 -2.33,-4.261 -3.2860002,-5.29 -0.237,-0.256 -0.559,-0.408 -0.907,-0.43 z m -0.519,-1.952 L 0.76242179,1.86 c 0,0 -0.002,5.365 1.20600001,8.635 0,0 5.383,0.379 5.914,0.391 0.703,0.016 0.969,-0.265 0.406,-0.875 z M 14.356422,17.683 8.8564218,9.136 c -0.188,-0.22 -0.253,-0.52 -0.171,-0.798 l 0.968,-3.233 6.7220002,6.609 0.844,6.031 -2.863,-0.062 z M 8.0434218,6.907 c -0.172,0.406 -0.516,0.5 -0.938,0.125 -0.422,-0.375 -6.074,-6.094 -6,-6.218 0,0 2.832,-1.194 7.8,3.463 0.001,0 -0.69,2.224 -0.862,2.63 z m 8.9260002,12.099 -5.373,5.228 c -0.203,0.178 -0.255,0.473 -0.125,0.709 l 2.375,4.333 c -0.001,0.001 4.187,-5.478 3.123,-10.27 z m -7.2830002,6.301 -5.549,0.741 c 0,0 1.058,3.845 3.394,4.854 3.9060002,1.688 5.3120002,-0.625 5.3120002,-0.625 l -2.352,-4.562 c -0.15,-0.298 -0.476,-0.463 -0.8050002,-0.408 z m 5.9510002,-6.426 -5.375,4.958 c -0.077,0.066 -0.169,0.11 -0.2690002,0.129 l -6.119,0.903 c 0,0 1.219,-3.031 4.429,-4.531 3.7090002,-1.733 7.3340002,-1.459 7.3340002,-1.459 z"
     id="path18"
     inkscape:connector-curvature="0"
     style="fill:#55acee" />
  <path
     d="m 3.7664218,28.181 c 1.466,2.769 4.012,4.034 6.157,4.034 1.0520002,0 2.0070002,-0.304 2.6900002,-0.884 1.925,-1.633 4.256,-6.286 4.584,-7.933 0.468,-2.35 0.436,-3.828 0,-5.097 -0.436,-0.021 -0.868,-0.031 -1.294,-0.031 -8.6650002,0 -15.13900021,4.24 -12.1370002,9.911 z m 1.518,-4.559 c 1.477,-2.454 5.5580002,-4.512 10.7260002,-4.512 l 0.667,0.021 c 0,0 0.111,2.51 -0.354,4.022 -0.813,2.644 -2.555,5.785 -4.25,7.224 -0.446,0.379 -1.383,0.691 -2.1500002,0.691 -1.508,0 -3.242,-0.986 -4.558,-3.473 -0.768,-1.449 -0.795,-2.786 -0.081,-3.973 z"
     id="path20"
     inkscape:connector-curvature="0"
     style="fill:#292f33" />
  <path
     d="m 2.2404218,1.25 c 0.131,0 0.276,0.015 0.431,0.044 3.619,0.683 9.5630002,6.104 13.3310002,11.044 0.228,1.513 0.586,3.846 0.717,5.064 -0.361,0.04 -0.967,0.021 -1.794,0.021 -2.249,0 -4.426,-0.478 -6.4560002,-0.833 -1.856,-0.325 -3.159,-1.127 -3.719,-1.563 -0.508,-0.396 -1.553,-1.786 -2.094,-3.687 -0.803,-2.821 -1.499,-6.201 -1.397,-8.882 0.046,-1.208 0.749,-1.208 0.981,-1.208 m 0,-1.25 C 0.67142179,0 0.05442179,1.236 0.01042179,2.41 c -0.162,4.275 1.59000001,12.601 3.48800001,14.079 1.715,1.336 7.7060002,2.041 11.4240002,2.041 1.794,0 3.058,-0.164 3.058,-0.5 0,-1.033 -0.789,-6.194 -0.789,-6.194 C 12.205422,5.192 6.0844218,0.667 2.9034218,0.066 2.6654218,0.021 2.4444218,0 2.2404218,0 Z"
     id="path22"
     inkscape:connector-curvature="0"
     style="fill:#292f33" />
  <path
     d="m 21.751422,2.789 c -0.25,-0.138 -0.563,-0.047 -0.701,0.203 l -2.74,4.98 c -0.018,0.033 -0.022,0.068 -0.032,0.102 -0.127,-0.007 -0.244,-0.018 -0.393,-0.018 -0.148,0 -0.266,0.01 -0.392,0.018 -0.01,-0.034 -0.014,-0.069 -0.032,-0.102 l -2.74,-4.98 c -0.138,-0.25 -0.452,-0.341 -0.702,-0.203 -0.25,0.137 -0.341,0.451 -0.203,0.701 l 2.655,4.826 c -1.179,0.784 1.15,3.438 0.381,9.204 -1.033,7.75 1.033,9.817 1.033,9.817 0,0 2.067,-2.067 1.033,-9.817 -0.769,-5.766 1.56,-8.42 0.381,-9.204 l 2.656,-4.826 c 0.137,-0.25 0.046,-0.564 -0.204,-0.701 z"
     id="path24"
     inkscape:connector-curvature="0"
     style="fill:#292f33" />
</svg>
