<?xml version="1.0" encoding="UTF-8" standalone="no"?>
<svg
   xmlns:dc="http://purl.org/dc/elements/1.1/"
   xmlns:cc="http://creativecommons.org/ns#"
   xmlns:rdf="http://www.w3.org/1999/02/22-rdf-syntax-ns#"
   xmlns:svg="http://www.w3.org/2000/svg"
   xmlns="http://www.w3.org/2000/svg"
   xmlns:sodipodi="http://sodipodi.sourceforge.net/DTD/sodipodi-0.dtd"
   xmlns:inkscape="http://www.inkscape.org/namespaces/inkscape"
   viewBox="0 0 36 36"
   id="svg2"
   version="1.1"
   inkscape:version="0.91 r13725"
   sodipodi:docname="1f988.svg"
   width="36"
   height="36">
  <metadata
     id="metadata24">
    <rdf:RDF>
      <cc:Work
         rdf:about="">
        <dc:format>image/svg+xml</dc:format>
        <dc:type
           rdf:resource="http://purl.org/dc/dcmitype/StillImage" />
      </cc:Work>
    </rdf:RDF>
  </metadata>
  <defs
     id="defs22" />
  <sodipodi:namedview
     pagecolor="#ffffff"
     bordercolor="#666666"
     borderopacity="1"
     objecttolerance="10"
     gridtolerance="10"
     guidetolerance="10"
     inkscape:pageopacity="0"
     inkscape:pageshadow="2"
     inkscape:window-width="640"
     inkscape:window-height="480"
     id="namedview20"
     showgrid="false"
     inkscape:zoom="6.5555556"
     inkscape:cx="18"
     inkscape:cy="18"
     inkscape:window-x="0"
     inkscape:window-y="0"
     inkscape:window-maximized="0"
     inkscape:current-layer="svg2" />
  <path
     d="m 36,21 c 0,5 -3,9 -11,11 -7.062,1.766 -21,-0.934 -21,-2 0,-1.129 2.503,-1.371 6.812,-1.125 10.938,0.625 13.75,-3.857 12,-5.25 C 19.75,21.188 16.375,24 10.75,23.5 3.782,22.881 0,17.472 0,16 0,14 11.716,8 20,8 c 8.284,0 16,4.25 16,13 z"
     id="path4"
     inkscape:connector-curvature="0"
     style="fill:#66757f" />
  <path
     d="M 15,12.5 C 15,13.329 14.329,14 13.5,14 12.671,14 12,13.329 12,12.5 12,11.671 12.671,12 13.5,12 14.329,12 15,11.671 15,12.5 Z"
     id="path6"
     inkscape:connector-curvature="0"
     style="fill:#292f33" />
  <path
     d="M 14,9 C 16,4 19.291,0 21.958,0 24.625,0 21,2 26,10 31,18 14,9 14,9 Z M 3,30 C 3,26 1.96,24 3.146,24 4.332,24 9.157,28.031 9.157,30.24 9.157,32.449 4.331,36 3.146,36 1.96,36 3,34 3,30 Z"
     id="path8"
     inkscape:connector-curvature="0"
     style="fill:#66757f" />
  <path
     d="m 26.921,22.5 7.996,7.5 c 0,0 -3.242,1.833 -7.996,-7.5 z"
     id="path10"
     inkscape:connector-curvature="0"
     style="fill:#292f33" />
  <path
     d="m 26.921,22.5 5.537,-3.833 c 0,0 3.875,9.917 2.459,11.333 -2.583,-1 -7.996,-7.5 -7.996,-7.5 z"
     id="path12"
     inkscape:connector-curvature="0"
     style="fill:#66757f" />
  <path
     d="M 9,20.307 C 9,20.8 8.492,22.98 8,22.98 7.508,22.98 7,20.8 7,20.307 l 0,-1.779 c 0,-0.493 0.508,0.889 1,0.889 0.492,0 1,-1.382 1,-0.889 l 0,1.779 z m 3,0 c 0,0.493 -0.508,2.673 -1,2.673 -0.492,0 -1,-2.18 -1,-2.673 l 0,-1.779 c 0,-0.493 0.508,0.889 1,0.889 0.492,0 1,-1.382 1,-0.889 l 0,1.779 z m 3,-1 c 0,0.493 -0.508,2.673 -1,2.673 -0.492,0 -1,-2.18 -1,-2.673 l 0,-1.779 c 0,-0.493 0.508,0.889 1,0.889 0.492,0 1,-1.382 1,-0.889 l 0,1.779 z m 3,0 c 0,0.493 -0.508,2.673 -1,2.673 -0.492,0 -1,-2.18 -1,-2.673 l 0,-1.779 c 0,-0.493 0.508,0.889 1,0.889 0.492,0 1,-1.382 1,-0.889 l 0,1.779 z"
     id="path14"
     inkscape:connector-curvature="0"
     style="fill:#ffffff" />
  <path
     d="m 6,20 7,-1 6,0 0,-2 -13,0 z"
     id="path16"
     inkscape:connector-curvature="0"
     style="fill:#66757f" />
  <path
     d="m 18.417,19.167 c -4,-2.083 -13.385,-0.011 -14.917,1.513 0.469,0.36 0.988,0.707 1.547,1.028 6.109,-3.281 14.082,-2.169 13.37,-2.541 z"
     id="path18"
     inkscape:connector-curvature="0"
     style="fill:#292f33" />
</svg>
