<?xml version="1.0" encoding="UTF-8" standalone="no"?>
<svg
   xmlns:dc="http://purl.org/dc/elements/1.1/"
   xmlns:cc="http://creativecommons.org/ns#"
   xmlns:rdf="http://www.w3.org/1999/02/22-rdf-syntax-ns#"
   xmlns:svg="http://www.w3.org/2000/svg"
   xmlns="http://www.w3.org/2000/svg"
   xmlns:sodipodi="http://sodipodi.sourceforge.net/DTD/sodipodi-0.dtd"
   xmlns:inkscape="http://www.inkscape.org/namespaces/inkscape"
   viewBox="0 0 35.459892 33.156006"
   id="svg2"
   version="1.1"
   inkscape:version="0.91 r13725"
   sodipodi:docname="1f982.svg"
   width="35.459892"
   height="33.156006">
  <metadata
     id="metadata28">
    <rdf:RDF>
      <cc:Work
         rdf:about="">
        <dc:format>image/svg+xml</dc:format>
        <dc:type
           rdf:resource="http://purl.org/dc/dcmitype/StillImage" />
      </cc:Work>
    </rdf:RDF>
  </metadata>
  <defs
     id="defs26" />
  <sodipodi:namedview
     pagecolor="#ffffff"
     bordercolor="#666666"
     borderopacity="1"
     objecttolerance="10"
     gridtolerance="10"
     guidetolerance="10"
     inkscape:pageopacity="0"
     inkscape:pageshadow="2"
     inkscape:window-width="640"
     inkscape:window-height="480"
     id="namedview24"
     showgrid="false"
     inkscape:zoom="6.5555556"
     inkscape:cx="17.598549"
     inkscape:cy="15.416"
     inkscape:window-x="0"
     inkscape:window-y="0"
     inkscape:window-maximized="0"
     inkscape:current-layer="svg2" />
  <path
     d="m 18.318549,26.143007 c -0.467,2.46 1.725,5.179 1.725,5.179 0,0 -0.424,-3.209 0.806,-4.842 0.847,-1.126 0.247,-2.372 -0.451,-2.466 -0.7,-0.093 -1.817,0.745 -2.08,2.129 z"
     id="path4"
     inkscape:connector-curvature="0"
     style="fill:#583529" />
  <path
     d="m 15.223549,26.220007 c -2.522,1.884 -4.935,0.761 -6.1439995,-1.08 -1.207,-1.842 -2.481,-0.79 -1.281,1.204 1.199,1.992 4.8239995,4.955 9.1709995,1.585 3.299,-2.554 -0.959,-2.296 -1.746,-1.709 z"
     id="path6"
     inkscape:connector-curvature="0"
     style="fill:#583529" />
  <path
     d="m 9.2375495,25.846007 c -1.569,2.229 -5.719,1.694 -7.323,-2.011 -1.55000005,-3.582 -0.344,-6.84 0.463,-7.849 0.329,-0.41 -0.512,4.813 2.237,6.252 1.205,0.63 -2.445,-3.399 -0.695,-7.133 0.525,-1.12 -0.049,3.787 3.263,5.195 1.445,0.614 4.3559995,2.281 2.055,5.546 z m 2.6749995,-4.273 c 0.594,-0.753 1.641,-1.554 8.499,-1.554 5.125,0 6.58,-2.417 8.287,-3.02 5.838,-2.061 3.757,11.752 -5.972,11.752 -9.73,10e-4 -11.612,-6.168 -10.814,-7.178 z"
     id="path8"
     inkscape:connector-curvature="0"
     style="fill:#7c533e" />
  <path
     d="m 22.770549,19.821007 c 6.388,-1.071 8.032,-8.666 5.911,-12.581 -1.99,-3.674 -6.98,-5.397 -11.153,-1.958 0.159,1.028 0.505,5.625 -3.341,6.183 1.227,-2.514 -2.538,-4.374 -1.394,-7.633 1.146,-3.25900003 4.257,-2.477 4.523,-1.631 3.157,-2.54300003 7.24,-2.79300003 8.832,-1.21000003 4.747,0.042 7.714,3.23400003 7.712,5.58200003 2.738,2.729 1.372,9.473 0.226,10.217 0.512,4.034 -0.661,7.755 -5.112,9.043 -0.769,0.223 -11.916,-5.054 -6.204,-6.012 z"
     id="path10"
     inkscape:connector-curvature="0"
     style="fill:#7c533e" />
  <path
     d="m 17.611549,25.286007 c -1.06,1.73 -2.948,2.413 -4.773,2.201 -2.481,-0.287 -2.49,1.587 0.117,1.991 1.498,0.232 3.868,0.012 5.635,-1.425 2.247,-1.829 -0.369,-3.769 -0.979,-2.767 z"
     id="path12"
     inkscape:connector-curvature="0"
     style="fill:#af7e57" />
  <path
     d="m 13.568549,27.863007 c 0.798,2.984 -2.683,6.209 -7.0729995,4.911 -4.244,-1.255 -6.20300005,-4.67 -6.49300005,-6.106 -0.117,-0.583 3.81600005,3.943 7.06500005,2.597 1.423,-0.59 -4.735,-0.345 -6.71300005,-4.58 -0.593,-1.269 3.25900005,2.795 6.89100005,0.938 1.587,-0.812 5.1509995,-2.134 6.3229995,2.24 z"
     id="path14"
     inkscape:connector-curvature="0"
     style="fill:#af7e57" />
  <path
     d="m 16.664549,22.465007 c 0,0.704 -0.571,1.275 -1.276,1.275 -0.705,0 -1.276,-0.571 -1.276,-1.275 0,-0.706 0.571,-1.276 1.276,-1.276 0.705,-0.001 1.276,0.57 1.276,1.276 z"
     id="path16"
     inkscape:connector-curvature="0"
     style="fill:#292f33" />
  <path
     d="m 30.339549,25.313007 c 1.428,2.058 0.53,5.433 0.53,5.433 0,0 -0.917,-3.104 -2.705,-4.096 -1.231,-0.685 -1.19,-2.067 -0.59,-2.437 0.602,-0.369 1.962,-0.058 2.765,1.1 z m -2.846,1.579 c 1.113,2.243 -0.265,5.452 -0.265,5.452 0,0 -0.457,-3.204 -2.081,-4.445 -1.119,-0.856 -0.878,-2.218 -0.23,-2.496 0.648,-0.279 1.95,0.227 2.576,1.489 z m -3.283,1.085 c 0.468,2.46 -1.725,5.179 -1.725,5.179 0,0 0.424,-3.209 -0.806,-4.842 -0.848,-1.126 -0.247,-2.372 0.451,-2.466 0.701,-0.093 1.819,0.745 2.08,2.129 z"
     id="path18"
     inkscape:connector-curvature="0"
     style="fill:#af7e57" />
  <path
     d="m 29.098549,14.065007 c -0.229,-0.013 -1.15,1.68 -1.082,2.023 0.226,1.132 4.854,1.277 6.07,0.702 0.907,-0.428 1.383,-2.55 1.261,-3.529 -2.024,1 -5.739,0.833 -6.249,0.804 z m 3.567,-10.287 c -0.208,1.04 -2.927,2.868 -4.142,3.139 -0.188,0.042 0.386,1.495 0.705,1.685 0.32,0.19 4.456,-1.02 4.631,-2.031 0.098,-0.565 -0.23,-2.237 -1.194,-2.793 z m -6.517,-2.78800003 c -10e-4,-0.226 -0.785,-1.018 -2.098,-0.93 0.423,1.47700003 -0.405,2.89800003 -0.814,3.41300003 -0.136,0.171 1.449,0.508 1.687,0.429 0.427,-0.142 1.228,-1.766 1.225,-2.91200003 z"
     id="path20"
     inkscape:connector-curvature="0"
     style="fill:#583529" />
  <path
     d="m 17.494549,2.198007 c -0.542,-1.097 -2.417,-1.43700003 -3.792,-0.062 -1.375,1.375 -1.646,3.167 -0.792,4.958 0.854,1.792 1.854,2.938 1.062,4.5 2.042,-0.271 3.279,-2.199 3.625,-3.167 0.626,-1.749 0.751,-4.499 -0.103,-6.229 z"
     id="path22"
     inkscape:connector-curvature="0"
     style="fill:#292f33" />
</svg>
