<?xml version="1.0" encoding="UTF-8" standalone="no"?>
<svg
   xmlns:dc="http://purl.org/dc/elements/1.1/"
   xmlns:cc="http://creativecommons.org/ns#"
   xmlns:rdf="http://www.w3.org/1999/02/22-rdf-syntax-ns#"
   xmlns:svg="http://www.w3.org/2000/svg"
   xmlns="http://www.w3.org/2000/svg"
   xmlns:sodipodi="http://sodipodi.sourceforge.net/DTD/sodipodi-0.dtd"
   xmlns:inkscape="http://www.inkscape.org/namespaces/inkscape"
   viewBox="0 0 35.442497 35.715931"
   id="svg2"
   version="1.1"
   inkscape:version="0.91 r13725"
   sodipodi:docname="1f990.svg"
   width="35.442497"
   height="35.715931">
  <metadata
     id="metadata20">
    <rdf:RDF>
      <cc:Work
         rdf:about="">
        <dc:format>image/svg+xml</dc:format>
        <dc:type
           rdf:resource="http://purl.org/dc/dcmitype/StillImage" />
      </cc:Work>
    </rdf:RDF>
  </metadata>
  <defs
     id="defs18" />
  <sodipodi:namedview
     pagecolor="#ffffff"
     bordercolor="#666666"
     borderopacity="1"
     objecttolerance="10"
     gridtolerance="10"
     guidetolerance="10"
     inkscape:pageopacity="0"
     inkscape:pageshadow="2"
     inkscape:window-width="640"
     inkscape:window-height="480"
     id="namedview16"
     showgrid="false"
     inkscape:zoom="6.5555556"
     inkscape:cx="17.814056"
     inkscape:cy="17.920816"
     inkscape:window-x="0"
     inkscape:window-y="0"
     inkscape:window-maximized="0"
     inkscape:current-layer="svg2" />
  <path
     d="m 4.2720564,7.2241161 c -4.53000001,0.32 -4.77500001,-5.511 3.801,-4.738 8.5759996,0.773 17.9639996,3.4 20.2179996,1.789 1.789,-1.279 1.416,-3.60800001 0.966,-4.07800001 -0.45,-0.469 -1.132,-0.045 -0.787,0.682 0.344,0.72800001 -0.062,2.67800001 -2.262,2.87500001 -2.199,0.197 -10.4,-1.352 -15.575,-2.081 -5.2849996,-0.74200001 -9.5319996,-0.374 -10.45499961,2.582 -0.919,2.947 1.94400001,3.873 3.45800001,4.017 1.514,0.143 0.636,-1.048 0.636,-1.048 z"
     id="path4"
     inkscape:connector-curvature="0"
     style="fill:#be1931" />
  <path
     d="m 5.8970564,6.5031161 c -4.542,0 -4.375,-5.83300001 4.1249996,-4.458 8.5,1.375 17.679,4.657 20.042,3.208 1.875,-1.15 1.666,-3.5 1.25,-4 -0.416,-0.50000001 -1.125,-0.125 -0.833,0.625 0.292,0.75 -0.25,2.667 -2.458,2.708 -2.208,0.043 -10.279,-2.08 -15.39,-3.171 -5.2189996,-1.11400001 -9.4819996,-1.04500001 -10.6109996,1.838 -1.12500001,2.875 1.667,4 3.167,4.25 1.5,0.25 0.708,-1 0.708,-1 z"
     id="path6"
     inkscape:connector-curvature="0"
     style="fill:#dd2e44" />
  <path
     d="m 33.192056,13.041116 c -2.541,-3.9279999 -6.765,-6.6289999 -11.255,-7.4839999 -7.317,-1.393 -17.3109996,-0.824 -20.1229996,3.238 -0.562,0.812 -0.478,4.6709999 3,5.9999999 1.763,0.674 6.5419996,-0.162 9.8409996,-0.462 l -0.22,1.737 c -0.069,0.548 0.318,1.048 0.866,1.118 0.548,0.069 1.048,-0.318 1.118,-0.866 l 0.264,-2.082 c 0.796,0.02 1.572,0.1 2.336,0.232 l -0.599,1.959 c -0.162,0.528 0.136,1.087 0.663,1.249 0.529,0.161 1.088,-0.136 1.249,-0.664 l 0.638,-2.088 c 0.742,0.223 1.479,0.5 2.219,0.826 l -1.043,1.695 c -0.29,0.471 -0.142,1.086 0.327,1.376 0.472,0.288 1.087,0.142 1.376,-0.328 l 1.14,-1.854 c 0.088,0.047 0.174,0.089 0.262,0.138 2.808,1.558 4.526,5.937 4.454,7.555 -0.036,0.812 0.169,1.406 0.608,1.771 0.792,0.652 2.078,0.343 3.018,0.117 0.318,-0.077 0.647,-0.156 0.799,-0.153 l 0.302,-0.992 0.098,-0.285 c 1.981,-5.772 0.366,-9.121 -1.338,-11.753 z"
     id="path8"
     inkscape:connector-curvature="0"
     style="fill:#dd2e44" />
  <path
     d="m 22.007056,8.2981161 c -0.609,1.144 0.135,0.936 1.025,0.066 0.596,-0.583 1.541,-1.218 2.541,-1.671 -0.562,-0.243 -1.133,-0.459 -1.714,-0.641 -0.785,0.756 -1.522,1.628 -1.852,2.246 z m 5.981,3.0959999 c 1.271,-0.63 2.827,-0.215 4.356,0.481 -0.684,-0.874 -1.457,-1.67 -2.296,-2.3889999 -0.717,0.044 -1.431,0.26 -2.034,0.7029999 -1.005,0.737 -2.215,2.288 -0.026,1.205 z m 3.863,3.908 c -1.196,0.349 -2.864,1.392 -0.438,1.124 1.411,-0.156 2.731,0.768 3.93,1.947 -0.14,-1.046 -0.422,-1.975 -0.782,-2.82 -0.832,-0.37 -1.791,-0.519 -2.71,-0.251 z m 2.44,8.633 c -0.402,-0.205 -2.004,1.771 -3.686,-0.738 -0.003,-0.005 -0.008,-0.005 -0.011,-0.01 -0.076,-1.172 -0.625,-6.221 -5.888,-8.991 -0.559,-0.294 -1.166,-0.565 -1.837,-0.8 -0.845,-0.296 -1.787,-0.537 -2.827,-0.713 -0.536,-0.091 -1.094,-0.168 -1.686,-0.221 -0.103,-0.009 -0.209,-0.011 -0.313,-0.019 -0.99,-0.071 -2.004,-0.063 -3.025,-0.003 -0.665,0.039 -1.333,0.097 -1.998,0.168 -3.9699996,0.423 -7.8439996,1.242 -10.4909996,0.452 0.506,0.706 1.24,1.336 2.285,1.735 1.491,0.569 5.137,0.06 8.2219996,-0.292 l 0.002,0.228 c 0.005,0.552 0.457,0.996 1.009,0.991 0.552,-0.005 0.996,-0.456 0.991,-1.009 l -0.004,-0.411 c 0.596,-0.048 1.14,-0.076 1.589,-0.066 0.33,0.007 0.656,0.028 0.98,0.055 l -0.097,0.406 c -0.128,0.538 0.205,1.077 0.741,1.204 0.537,0.128 1.076,-0.204 1.205,-0.741 l 0.137,-0.577 c 0.788,0.165 1.566,0.386 2.342,0.667 l -0.265,0.525 c -0.248,0.494 -0.05,1.095 0.441,1.344 0.493,0.249 1.095,0.051 1.345,-0.441 l 0.327,-0.648 c 0.488,0.232 0.977,0.477 1.472,0.752 2.792,1.55 4.506,5.887 4.453,7.526 -0.021,0.122 -0.032,0.251 -0.03,0.387 0.01,0.508 -0.112,1.094 -0.365,1.743 -0.511,1.316 -1.538,2.8 -2.619,3.779 -0.416,0.379 -0.718,0.801 -0.895,1.254 -0.32,0.829 -0.167,1.685 0.385,2.131 0.107,0.087 0.224,0.151 0.346,0.197 3.333,-3.019 2.071,-1.367 2.898,1.117 0.332,0.61 0.822,0.757 1.065,0.789 0.706,0.091 1.403,-0.398 1.779,-1.249 l 0.049,-0.118 c 0.564,-1.452 2.175,-8.657 2.328,-9.716 0.042,-0.282 -0.1,-0.558 -0.354,-0.687 z"
     id="path10"
     inkscape:connector-curvature="0"
     style="fill:#be1931" />
  <path
     d="m 26.528056,33.798116 c 0.39,0.147 0.839,0.092 1.244,-0.174 0.538,-0.353 0.893,-0.405 1.033,-0.343 0.147,0.064 0.274,0.35 0.339,0.762 0.059,0.367 0.16,0.649 0.282,0.872 -0.828,-2.484 1.947,-6.731 -2.898,-1.117 z"
     id="path12"
     inkscape:connector-curvature="0"
     style="fill:#292f33" />
  <circle
     cx="6.8140564"
     cy="8.7951164"
     r="1"
     id="circle14"
     style="fill:#292f33" />
</svg>
