<?xml version="1.0" encoding="UTF-8" standalone="no"?>
<svg
   xmlns:dc="http://purl.org/dc/elements/1.1/"
   xmlns:cc="http://creativecommons.org/ns#"
   xmlns:rdf="http://www.w3.org/1999/02/22-rdf-syntax-ns#"
   xmlns:svg="http://www.w3.org/2000/svg"
   xmlns="http://www.w3.org/2000/svg"
   xmlns:sodipodi="http://sodipodi.sourceforge.net/DTD/sodipodi-0.dtd"
   xmlns:inkscape="http://www.inkscape.org/namespaces/inkscape"
   viewBox="0 0 34.532276 32.243076"
   id="svg2"
   version="1.1"
   inkscape:version="0.91 r13725"
   sodipodi:docname="1f994.svg"
   width="34.532276"
   height="32.243076">
  <metadata
     id="metadata26">
    <rdf:RDF>
      <cc:Work
         rdf:about="">
        <dc:format>image/svg+xml</dc:format>
        <dc:type
           rdf:resource="http://purl.org/dc/dcmitype/StillImage" />
      </cc:Work>
    </rdf:RDF>
  </metadata>
  <defs
     id="defs24" />
  <sodipodi:namedview
     pagecolor="#ffffff"
     bordercolor="#666666"
     borderopacity="1"
     objecttolerance="10"
     gridtolerance="10"
     guidetolerance="10"
     inkscape:pageopacity="0"
     inkscape:pageshadow="2"
     inkscape:window-width="640"
     inkscape:window-height="480"
     id="namedview22"
     showgrid="false"
     inkscape:zoom="6.5555556"
     inkscape:cx="17.265987"
     inkscape:cy="17"
     inkscape:window-x="0"
     inkscape:window-y="0"
     inkscape:window-maximized="0"
     inkscape:current-layer="svg2" />
  <path
     d="m 27.953987,17.555078 c 0,5.905 -4.784,10.688 -10.688,10.688 -5.903,0 -10.688,-4.783 -10.688,-10.688 0,-5.903 4.786,-10.6890003 10.688,-10.6890003 5.904,0.001 10.688,4.7860003 10.688,10.6890003 z"
     id="path4"
     inkscape:connector-curvature="0"
     style="fill:#6d6e71" />
  <path
     d="m 25.265987,30.743078 -16,0 c -1.665,0 -2.479,-1.339 -2.763,-2.31 l -2.664,-0.056 c -0.153,-0.003 -0.297,-0.077 -0.389,-0.2 -0.092,-0.122 -0.123,-0.281 -0.083,-0.43 l 0.594,-2.216 -2.446,-0.651 c -0.152,-0.041 -0.276,-0.15 -0.335,-0.296 -0.059,-0.146 -0.046,-0.311 0.035,-0.445 l 1.199,-1.993 -2.15600002,-1.192 c -0.139,-0.077 -0.233,-0.216 -0.254,-0.374 -0.02,-0.157 0.036,-0.315 0.151,-0.426 l 1.72900002,-1.647 -1.72900002,-1.646 c -0.115,-0.11 -0.171,-0.268 -0.151,-0.426 0.021,-0.158 0.115,-0.297 0.254,-0.374 l 2.15600002,-1.194 -1.2,-1.994 c -0.081,-0.135 -0.094,-0.3 -0.035,-0.445 0.059,-0.146 0.183,-0.255 0.335,-0.296 l 2.446,-0.65 -0.594,-2.2180003 c -0.04,-0.148 -0.009,-0.307 0.083,-0.43 0.092,-0.123 0.236,-0.196 0.39,-0.2 l 2.575,-0.053 0.058,-2.302 c 0.004,-0.149 0.074,-0.289 0.192,-0.381 0.118,-0.092 0.271,-0.127 0.416,-0.094 l 2.521,0.561 0.717,-2.234 c 0.045,-0.139 0.148,-0.251 0.282,-0.308 0.136,-0.056 0.288,-0.051 0.417,0.014 l 2.284,1.139 1.341,-2.009 c 0.08,-0.119 0.208,-0.199 0.35,-0.218 0.145,-0.019 0.287,0.024 0.394,0.119 l 1.88,1.633 1.88,-1.636 c 0.109,-0.094 0.251,-0.137 0.395,-0.118 0.143,0.019 0.269,0.099 0.35,0.218 l 1.34,2.009 2.286,-1.139 c 0.13,-0.065 0.283,-0.069 0.417,-0.014 0.135,0.057 0.237,0.169 0.282,0.308 l 0.716,2.234 2.521,-0.561 c 0.146,-0.032 0.298,0.002 0.416,0.094 0.118,0.092 0.188,0.232 0.192,0.381 l 0.058,2.302 2.574,0.053 c 0.153,0.003 0.297,0.077 0.389,0.2 0.093,0.123 0.123,0.282 0.083,0.43 l -0.595,2.2170003 2.449,0.65 c 0.152,0.04 0.276,0.15 0.336,0.296 0.059,0.146 0.046,0.311 -0.035,0.445 l -1.201,1.994 2.155,1.194 c 0.14,0.077 0.233,0.216 0.254,0.374 0.021,0.158 -0.036,0.316 -0.151,0.426 l -1.729,1.646 1.729,1.647 c 0.115,0.11 0.172,0.269 0.151,0.426 -0.021,0.158 -0.114,0.297 -0.254,0.374 l -2.154,1.192 1.2,1.993 c 0.081,0.135 0.094,0.3 0.035,0.445 -0.06,0.146 -0.184,0.255 -0.335,0.296 l -2.45,0.651 0.595,2.216 c 0.04,0.148 0.01,0.307 -0.082,0.43 -0.093,0.123 -0.236,0.197 -0.39,0.2 l -2.663,0.056 c -0.285,0.974 -1.099,2.313 -2.764,2.313 z"
     id="path6"
     inkscape:connector-curvature="0"
     style="fill:#662113" />
  <path
     d="m 15.453987,26.067078 c -0.022,0 -0.044,-10e-4 -0.066,-0.004 -0.143,-0.019 -0.27,-0.099 -0.35,-0.219 l -1.058,-1.585 -1.805,0.899 c -0.131,0.064 -0.283,0.07 -0.418,0.014 -0.134,-0.057 -0.237,-0.169 -0.282,-0.309 l -0.564,-1.757 -1.99,0.442 c -0.148,0.031 -0.299,-0.003 -0.417,-0.095 -0.118,-0.092 -0.188,-0.231 -0.192,-0.381 l -0.045,-1.804 -2.029,-0.043 c -0.153,-0.003 -0.297,-0.077 -0.389,-0.2 -0.092,-0.122 -0.123,-0.281 -0.083,-0.43 l 0.464,-1.732 -1.92,-0.51 c -0.152,-0.041 -0.276,-0.15 -0.335,-0.296 -0.059,-0.146 -0.046,-0.311 0.035,-0.445 l 0.937,-1.557 -1.688,-0.934 c -0.14,-0.077 -0.234,-0.216 -0.254,-0.374 -0.02,-0.158 0.036,-0.316 0.151,-0.426 l 1.352,-1.289 -1.352,-1.287 c -0.115,-0.11 -0.171,-0.268 -0.151,-0.426 0.021,-0.158 0.115,-0.297 0.254,-0.374 l 1.689,-0.935 -0.937,-1.5580003 c -0.081,-0.135 -0.094,-0.3 -0.035,-0.445 0.059,-0.146 0.183,-0.255 0.335,-0.296 l 1.922,-0.511 -0.466,-1.732 c -0.04,-0.148 -0.009,-0.307 0.083,-0.43 0.092,-0.123 0.236,-0.196 0.39,-0.2 l 2.029,-0.042 0.045,-1.805 c 0.004,-0.149 0.074,-0.289 0.192,-0.381 0.117,-0.092 0.27,-0.127 0.416,-0.094 l 1.99,0.442 0.564,-1.756 c 0.045,-0.139 0.148,-0.25099997 0.282,-0.30799997 0.136,-0.055 0.287,-0.051 0.418,0.014 l 1.805,0.89899997 1.058,-1.58399997 c 0.08,-0.119 0.207,-0.199 0.35,-0.218 0.144,-0.021 0.287,0.024 0.395,0.119 l 1.482,1.29099997 1.484,-1.29099997 c 0.109,-0.095 0.253,-0.138 0.395,-0.119 0.143,0.019 0.269,0.099 0.35,0.218 l 1.057,1.58299997 1.807,-0.89999997 c 0.13,-0.064 0.283,-0.069 0.417,-0.013 0.135,0.057 0.237,0.16899997 0.282,0.30799997 l 0.562,1.756 1.991,-0.442 c 0.146,-0.033 0.3,0.002 0.416,0.094 0.118,0.092 0.188,0.232 0.192,0.382 l 0.045,1.804 2.028,0.042 c 0.153,0.003 0.297,0.077 0.389,0.2 0.093,0.123 0.123,0.282 0.083,0.43 l -0.465,1.734 1.924,0.511 c 0.152,0.041 0.276,0.15 0.336,0.296 0.059,0.146 0.046,0.311 -0.035,0.445 l -0.938,1.5580003 1.689,0.935 c 0.14,0.077 0.233,0.216 0.254,0.374 0.021,0.158 -0.036,0.316 -0.151,0.426 l -1.353,1.287 1.353,1.289 c 0.115,0.11 0.172,0.268 0.151,0.426 -0.021,0.158 -0.115,0.296 -0.254,0.374 l -1.688,0.934 0.938,1.557 c 0.081,0.135 0.094,0.3 0.035,0.445 -0.06,0.145 -0.184,0.255 -0.335,0.296 l -1.925,0.512 0.465,1.732 c 0.04,0.148 0.01,0.307 -0.082,0.43 -0.093,0.123 -0.236,0.197 -0.39,0.2 l -2.028,0.043 -0.045,1.804 c -0.004,0.149 -0.074,0.289 -0.192,0.381 -0.117,0.092 -0.271,0.126 -0.416,0.095 l -1.991,-0.442 -0.562,1.757 c -0.045,0.139 -0.147,0.252 -0.282,0.309 -0.134,0.058 -0.284,0.053 -0.417,-0.014 l -1.806,-0.899 -1.058,1.585 c -0.08,0.12 -0.207,0.199 -0.35,0.219 -0.142,0.018 -0.286,-0.024 -0.395,-0.119 l -1.485,-1.297 -1.483,1.294 c -0.092,0.08 -0.209,0.123 -0.329,0.123 z"
     id="path8"
     inkscape:connector-curvature="0"
     style="fill:#8a4b38" />
  <path
     d="m 12.765987,24.295078 9,0 c 3.521,0 6.5,2.575 6.5,4.5 0,1.65 -1.35,2 -3,2 l -16,0 c -1.65,0 -3,-0.35 -3,-2 0,-1.925 2.99,-4.5 6.5,-4.5 z"
     id="path10"
     inkscape:connector-curvature="0"
     style="fill:#8a4b38" />
  <path
     d="m 25.487987,20.022078 c 0,4.088 -3.68,7.398 -8.222,7.398 -4.542,0 -8.222,-3.31 -8.222,-7.398 0,-4.087 3.68,-7.4 8.222,-7.4 4.542,0 8.222,3.313 8.222,7.4 z"
     id="path12"
     inkscape:connector-curvature="0"
     style="fill:#d99e82" />
  <path
     d="m 20.554987,23.722078 c 0,2.043 -1.473,3.699 -3.289,3.699 -1.816,0 -3.289,-1.656 -3.289,-3.699 0,-2.043 1.472,-3.699 3.289,-3.699 1.817,0 3.289,1.655 3.289,3.699 z"
     id="path14"
     inkscape:connector-curvature="0"
     style="fill:#e6e7e8" />
  <path
     d="m 18.910987,24.954078 c 0,0.908 -0.736,1.645 -1.645,1.645 -0.909,0 -1.645,-0.736 -1.645,-1.645 0,-0.908 0.736,-1.642 1.645,-1.642 0.909,0 1.645,0.734 1.645,1.642 z m -4.934,-6.166 c 0,0.682 -0.552,1.234 -1.233,1.234 -0.681,0 -1.233,-0.553 -1.233,-1.234 0,-0.68 0.552,-1.232 1.233,-1.232 0.681,-10e-4 1.233,0.552 1.233,1.232 z m 9.044,0 c 0,0.682 -0.552,1.234 -1.232,1.234 -0.682,0 -1.233,-0.553 -1.233,-1.234 0,-0.68 0.552,-1.232 1.233,-1.232 0.68,-10e-4 1.232,0.552 1.232,1.232 z"
     id="path16"
     inkscape:connector-curvature="0"
     style="fill:#231f20" />
  <path
     d="m 10.687987,15.089078 c 0,0 4.111,-1.644 4.933,0 0.823,1.644 1.645,1.644 1.645,1.644 l 0,-4.934 c 0,10e-4 -6.578,10e-4 -6.578,3.29 z m 13.155,0 c 0,0 -4.11,-1.644 -4.933,0 -0.822,1.644 -1.644,1.644 -1.644,1.644 l 0,-4.934 c 0,10e-4 6.577,10e-4 6.577,3.29 z"
     id="path18"
     inkscape:connector-curvature="0"
     style="fill:#c1694f" />
  <path
     d="m 11.510987,15.499078 c 0,1.136 -0.92,2.056 -2.055,2.056 -1.136,0 -2.056,-0.92 -2.056,-2.056 0,-1.135 0.92,-2.055 2.056,-2.055 1.135,0 2.055,0.92 2.055,2.055 z m 15.621,0 c 0,1.136 -0.92,2.056 -2.056,2.056 -1.135,0 -2.056,-0.92 -2.056,-2.056 0,-1.135 0.921,-2.055 2.056,-2.055 1.136,0 2.056,0.92 2.056,2.055 z m -16.866,16.744 c -2,0 -2,-4 2,-4 4,0 4.062,4 2,4 l -4,0 z m 10,0 c -2,0 -2,-4 2,-4 4,0 4.062,4 2,4 l -4,0 z"
     id="path20"
     inkscape:connector-curvature="0"
     style="fill:#d99e82" />
</svg>
