<?xml version="1.0" encoding="UTF-8" standalone="no"?>
<svg
   xmlns:dc="http://purl.org/dc/elements/1.1/"
   xmlns:cc="http://creativecommons.org/ns#"
   xmlns:rdf="http://www.w3.org/1999/02/22-rdf-syntax-ns#"
   xmlns:svg="http://www.w3.org/2000/svg"
   xmlns="http://www.w3.org/2000/svg"
   xmlns:sodipodi="http://sodipodi.sourceforge.net/DTD/sodipodi-0.dtd"
   xmlns:inkscape="http://www.inkscape.org/namespaces/inkscape"
   viewBox="0 0 36 32"
   id="svg2"
   version="1.1"
   inkscape:version="0.91 r13725"
   sodipodi:docname="1f99a.svg"
   width="36"
   height="32">
  <metadata
     id="metadata70">
    <rdf:RDF>
      <cc:Work
         rdf:about="">
        <dc:format>image/svg+xml</dc:format>
        <dc:type
           rdf:resource="http://purl.org/dc/dcmitype/StillImage" />
      </cc:Work>
    </rdf:RDF>
  </metadata>
  <defs
     id="defs68" />
  <sodipodi:namedview
     pagecolor="#ffffff"
     bordercolor="#666666"
     borderopacity="1"
     objecttolerance="10"
     gridtolerance="10"
     guidetolerance="10"
     inkscape:pageopacity="0"
     inkscape:pageshadow="2"
     inkscape:window-width="640"
     inkscape:window-height="480"
     id="namedview66"
     showgrid="false"
     inkscape:zoom="6.5555556"
     inkscape:cx="18"
     inkscape:cy="18"
     inkscape:window-x="0"
     inkscape:window-y="0"
     inkscape:window-maximized="0"
     inkscape:current-layer="svg2" />
  <path
     d="m 14.5,32 c -0.128,0 -0.256,-0.049 -0.354,-0.146 -0.195,-0.195 -0.195,-0.512 0,-0.707 L 16,29.293 16,27.5 c 0,-0.276 0.224,-0.5 0.5,-0.5 0.276,0 0.5,0.224 0.5,0.5 l 0,2.207 -2.146,2.146 C 14.756,31.951 14.628,32 14.5,32 Z"
     id="path4"
     inkscape:connector-curvature="0"
     style="fill:#292f33" />
  <path
     d="m 16.5,30 -3,0 C 13.224,30 13,29.776 13,29.5 13,29.224 13.224,29 13.5,29 l 3,0 c 0.276,0 0.5,0.224 0.5,0.5 0,0.276 -0.224,0.5 -0.5,0.5 z m 5,2 c -0.128,0 -0.256,-0.049 -0.354,-0.146 L 19,29.707 19,27.5 c 0,-0.276 0.224,-0.5 0.5,-0.5 0.276,0 0.5,0.224 0.5,0.5 l 0,1.793 1.854,1.854 c 0.195,0.195 0.195,0.512 0,0.707 C 21.756,31.951 21.628,32 21.5,32 Z"
     id="path6"
     inkscape:connector-curvature="0"
     style="fill:#292f33" />
  <path
     d="m 22.5,30 -3,0 C 19.224,30 19,29.776 19,29.5 19,29.224 19.224,29 19.5,29 l 3,0 c 0.276,0 0.5,0.224 0.5,0.5 0,0.276 -0.224,0.5 -0.5,0.5 z"
     id="path8"
     inkscape:connector-curvature="0"
     style="fill:#292f33" />
  <path
     d="M 36,21.909 C 36,25.727 34.001,27 18,27 1.999,27 0,25.727 0,21.909 0,9.257 8.059,0 18,0 27.941,0 36,9.257 36,21.909 Z"
     id="path10"
     inkscape:connector-curvature="0"
     style="fill:#a6d388" />
  <path
     d="m 18,25 c -0.209,0 -0.404,-0.133 -0.474,-0.342 -0.087,-0.262 0.054,-0.545 0.316,-0.633 l 16.5,-5.5 c 0.263,-0.086 0.545,0.055 0.633,0.316 0.087,0.262 -0.055,0.545 -0.316,0.633 l -16.5,5.5 C 18.105,24.992 18.052,25 18,25 Z m 0,-3 c -0.155,0 -0.308,-0.071 -0.405,-0.207 -0.162,-0.224 -0.112,-0.536 0.111,-0.698 l 14.5,-10.5 c 0.222,-0.163 0.536,-0.112 0.698,0.111 0.162,0.223 0.111,0.537 -0.112,0.698 l -14.5,10.5 C 18.205,21.969 18.102,22 18,22 Z m 0,-4 c -0.091,0 -0.183,-0.024 -0.266,-0.077 -0.233,-0.146 -0.304,-0.456 -0.157,-0.689 l 8.5,-13.5 C 26.224,3.5 26.535,3.433 26.766,3.577 27,3.724 27.07,4.033 26.923,4.267 l -8.5,13.5 C 18.328,17.917 18.166,18 18,18 Z"
     id="path12"
     inkscape:connector-curvature="0"
     style="fill:#77b255" />
  <circle
     cx="32.5"
     cy="23"
     r="2"
     id="circle14"
     style="fill:#55acee" />
  <circle
     cx="32.5"
     cy="16"
     r="2"
     id="circle16"
     style="fill:#55acee" />
  <circle
     cx="28.5"
     cy="9"
     r="2"
     id="circle18"
     style="fill:#55acee" />
  <circle
     cx="21.5"
     cy="4"
     r="2"
     id="circle20"
     style="fill:#55acee" />
  <circle
     cx="28"
     cy="24.5"
     r="1.5"
     id="circle22"
     style="fill:#55acee" />
  <circle
     cx="28"
     cy="18.5"
     r="1.5"
     id="circle24"
     style="fill:#55acee" />
  <circle
     cx="25"
     cy="12.5"
     r="1.5"
     id="circle26"
     style="fill:#55acee" />
  <circle
     cx="24.5"
     cy="25"
     r="1"
     id="circle28"
     style="fill:#55acee" />
  <circle
     cx="24.5"
     cy="20"
     r="1"
     id="circle30"
     style="fill:#55acee" />
  <circle
     cx="21.5"
     cy="16"
     r="1"
     id="circle32"
     style="fill:#55acee" />
  <path
     d="m 17.5,25 c -0.052,0 -0.105,-0.008 -0.158,-0.025 l -16.5,-5.5 C 0.58,19.387 0.439,19.104 0.526,18.842 0.613,18.58 0.895,18.437 1.158,18.526 l 16.5,5.5 c 0.262,0.088 0.403,0.371 0.316,0.633 C 17.904,24.867 17.709,25 17.5,25 Z m 0,-3 c -0.102,0 -0.204,-0.031 -0.293,-0.095 l -14.5,-10.5 C 2.483,11.243 2.434,10.93 2.596,10.707 2.757,10.483 3.07,10.433 3.294,10.596 l 14.5,10.5 c 0.224,0.162 0.273,0.475 0.111,0.698 C 17.807,21.929 17.654,22 17.5,22 Z m 0,-4 c -0.166,0 -0.329,-0.083 -0.424,-0.233 l -8.5,-13.5 C 8.43,4.033 8.5,3.724 8.733,3.577 8.969,3.431 9.276,3.5 9.423,3.733 l 8.5,13.5 C 18.07,17.466 18,17.776 17.766,17.922 17.684,17.976 17.591,18 17.5,18 Z"
     id="path34"
     inkscape:connector-curvature="0"
     style="fill:#77b255" />
  <path
     d="M 17.5,20 C 17.224,20 17,19.776 17,19.5 l 0,-18 C 17,1.224 17.224,1 17.5,1 17.776,1 18,1.224 18,1.5 l 0,18 c 0,0.276 -0.224,0.5 -0.5,0.5 z"
     id="path36"
     inkscape:connector-curvature="0"
     style="fill:#77b255" />
  <path
     d="m 15,12 c -1,-2 0,-4 0,-4 0,0 0,1 1,2 0,-3 1,-3 1,-3 0,0 0,2 1,3 1,1 -3,2 -3,2 z m 7.997,13 c -0.433,-2 -1.725,-3.061 -2.559,-4.5 -0.671,-1.156 -2.134,-3.75 -0.132,-6.618 0.532,-0.762 -1.885,-1.831 -2.305,-1.877 l 0,-0.004 -0.015,0.002 -0.015,-0.002 0,0.004 c -0.42,0.046 -2.837,1.115 -2.305,1.877 2.002,2.868 0.538,5.462 -0.132,6.618 -0.834,1.439 -2.126,2.5 -2.559,4.5 -0.362,1.668 2.247,3.981 4.997,3.998 l 0,10e-4 0.015,0 L 18,29 18,28.998 c 2.75,-0.017 5.358,-2.33 4.997,-3.998 z"
     id="path38"
     inkscape:connector-curvature="0"
     style="fill:#226699" />
  <path
     d="m 19,12 c 3,0 6,2 6,2 0,0 -3,1 -6,0 -3,-1 0,-2 0,-2"
     id="path40"
     inkscape:connector-curvature="0"
     style="fill:#292f33" />
  <circle
     cx="18"
     cy="12"
     r="3"
     id="circle42"
     style="fill:#226699" />
  <circle
     cx="19"
     cy="12"
     r="1"
     id="circle44"
     style="fill:#292f33" />
  <circle
     cx="3"
     cy="23"
     r="2"
     id="circle46"
     style="fill:#55acee" />
  <circle
     cx="3"
     cy="16"
     r="2"
     id="circle48"
     style="fill:#55acee" />
  <circle
     cx="7"
     cy="9"
     r="2"
     id="circle50"
     style="fill:#55acee" />
  <circle
     cx="14"
     cy="4"
     r="2"
     id="circle52"
     style="fill:#55acee" />
  <circle
     cx="7.5"
     cy="24.5"
     r="1.5"
     id="circle54"
     style="fill:#55acee" />
  <circle
     cx="7.5"
     cy="18.5"
     r="1.5"
     id="circle56"
     style="fill:#55acee" />
  <circle
     cx="10.5"
     cy="12.5"
     r="1.5"
     id="circle58"
     style="fill:#55acee" />
  <circle
     cx="11"
     cy="25"
     r="1"
     id="circle60"
     style="fill:#55acee" />
  <circle
     cx="11"
     cy="20"
     r="1"
     id="circle62"
     style="fill:#55acee" />
  <circle
     cx="14"
     cy="16"
     r="1"
     id="circle64"
     style="fill:#55acee" />
</svg>
