<?xml version="1.0" encoding="UTF-8" standalone="no"?>
<svg
   xmlns:dc="http://purl.org/dc/elements/1.1/"
   xmlns:cc="http://creativecommons.org/ns#"
   xmlns:rdf="http://www.w3.org/1999/02/22-rdf-syntax-ns#"
   xmlns:svg="http://www.w3.org/2000/svg"
   xmlns="http://www.w3.org/2000/svg"
   xmlns:sodipodi="http://sodipodi.sourceforge.net/DTD/sodipodi-0.dtd"
   xmlns:inkscape="http://www.inkscape.org/namespaces/inkscape"
   viewBox="0 0 28.671015 35.915493"
   id="svg2"
   version="1.1"
   inkscape:version="0.91 r13725"
   sodipodi:docname="1f99e.svg"
   width="28.671015"
   height="35.915493">
  <metadata
     id="metadata72">
    <rdf:RDF>
      <cc:Work
         rdf:about="">
        <dc:format>image/svg+xml</dc:format>
        <dc:type
           rdf:resource="http://purl.org/dc/dcmitype/StillImage" />
      </cc:Work>
    </rdf:RDF>
  </metadata>
  <defs
     id="defs70" />
  <sodipodi:namedview
     pagecolor="#ffffff"
     bordercolor="#666666"
     borderopacity="1"
     objecttolerance="10"
     gridtolerance="10"
     guidetolerance="10"
     inkscape:pageopacity="0"
     inkscape:pageshadow="2"
     inkscape:window-width="640"
     inkscape:window-height="480"
     id="namedview68"
     showgrid="false"
     inkscape:zoom="6.5555556"
     inkscape:cx="14.030007"
     inkscape:cy="17.957492"
     inkscape:window-x="0"
     inkscape:window-y="0"
     inkscape:window-maximized="0"
     inkscape:current-layer="svg2" />
  <g
     id="g4"
     style="fill:#be1931"
     transform="translate(-3.9699926,-0.042)">
    <path
       d="m 14.847,22.402 -0.064,0 C 12.666,22.333 9.864,21.396 8.537,17.325 8.402,16.912 8.626,16.461 9.04,16.326 c 0.414,-0.135 0.857,0.085 0.992,0.499 l 0.003,0.011 c 0.312,0.959 1.263,3.876 4.8,3.991 0.435,0.015 0.776,0.378 0.762,0.812 -0.014,0.415 -0.344,0.743 -0.75,0.763 z m -5.348,5.637 c 0.151,-0.221 0.411,-0.359 0.698,-0.342 3.034,0.181 4.578,-1.938 5.086,-2.634 0.256,-0.352 0.749,-0.429 1.1,-0.173 0.352,0.256 0.414,0.747 0.173,1.1 -1.698,2.33 -3.869,3.434 -6.453,3.28 -0.434,-0.026 -0.766,-0.399 -0.74,-0.834 0.01,-0.148 0.059,-0.284 0.136,-0.397 z"
       id="path6"
       inkscape:connector-curvature="0" />
    <path
       d="m 14.362,23.967 c 0.421,-0.064 0.767,-0.141 1.022,-0.2 l 0.179,-0.04 c 0.426,-0.092 0.695,-0.511 0.603,-0.937 -0.092,-0.425 -0.515,-0.698 -0.937,-0.603 l -0.193,0.043 c -1.087,0.245 -3.635,0.824 -6.463,-1.149 -0.357,-0.248 -0.849,-0.161 -1.096,0.195 -0.249,0.357 -0.161,0.848 0.195,1.096 2.665,1.86 5.165,1.826 6.69,1.595 z"
       id="path8"
       inkscape:connector-curvature="0" />
    <path
       d="m 15.403,25.298 c 0.376,-0.199 1.053,-0.624 1.053,-0.624 0.371,-0.228 0.487,-0.712 0.259,-1.084 -0.227,-0.37 -0.718,-0.488 -1.084,-0.259 l -0.168,0.105 c -0.944,0.591 -3.156,1.981 -6.479,1.057 -0.419,-0.116 -0.854,0.129 -0.97,0.548 -0.117,0.419 0.129,0.854 0.548,0.97 3.131,0.87 5.479,0.009 6.841,-0.713 z"
       id="path10"
       inkscape:connector-curvature="0" />
  </g>
  <g
     id="g12"
     style="fill:#be1931"
     transform="translate(-3.9699926,-0.042)">
    <path
       d="m 21.833,22.402 0.064,0 c 2.117,-0.069 4.919,-1.006 6.246,-5.077 0.135,-0.413 -0.089,-0.864 -0.503,-0.999 -0.414,-0.135 -0.857,0.085 -0.992,0.499 l -0.003,0.011 c -0.312,0.959 -1.263,3.876 -4.8,3.991 -0.435,0.015 -0.776,0.378 -0.762,0.812 0.015,0.415 0.344,0.743 0.75,0.763 z m 5.348,5.637 C 27.03,27.818 26.77,27.68 26.483,27.697 c -3.034,0.181 -4.578,-1.938 -5.086,-2.634 -0.256,-0.352 -0.749,-0.429 -1.1,-0.173 -0.352,0.256 -0.414,0.747 -0.173,1.1 1.698,2.33 3.869,3.434 6.453,3.28 0.434,-0.026 0.766,-0.399 0.74,-0.834 -0.009,-0.148 -0.058,-0.284 -0.136,-0.397 z"
       id="path14"
       inkscape:connector-curvature="0" />
    <path
       d="m 22.318,23.967 c -0.421,-0.064 -0.767,-0.141 -1.022,-0.2 l -0.179,-0.04 c -0.426,-0.092 -0.695,-0.511 -0.603,-0.937 0.092,-0.425 0.515,-0.698 0.937,-0.603 l 0.193,0.043 c 1.087,0.245 3.635,0.824 6.463,-1.149 0.357,-0.248 0.849,-0.161 1.096,0.195 0.249,0.357 0.161,0.848 -0.195,1.096 -2.664,1.86 -5.165,1.826 -6.69,1.595 z"
       id="path16"
       inkscape:connector-curvature="0" />
    <path
       d="m 21.277,25.298 c -0.376,-0.199 -1.053,-0.624 -1.053,-0.624 -0.371,-0.228 -0.487,-0.712 -0.259,-1.084 0.227,-0.37 0.718,-0.488 1.084,-0.259 l 0.168,0.105 c 0.944,0.591 3.156,1.981 6.479,1.057 0.419,-0.116 0.854,0.129 0.97,0.548 0.117,0.419 -0.129,0.854 -0.548,0.97 -3.131,0.87 -5.479,0.009 -6.841,-0.713 z"
       id="path18"
       inkscape:connector-curvature="0" />
  </g>
  <path
     d="m 5.0130074,6.88 c 0.752,-0.779 2.316,-2.461 1.59,-3.954 0.949,0.077 6.7569996,6.159 -0.06,9.073 -1.072,-0.137 -1.53,-5.119 -1.53,-5.119 z m 8.7719996,23.394 c -0.726,0.329 -4.2499996,2.171 -4.3539996,5.46 0.069,0.789 2.7299996,-1.25 5.0099996,-1.25 l 0,-3.454 -0.656,-0.756 z"
     id="path20"
     inkscape:connector-curvature="0"
     style="fill:#be1931" />
  <path
     d="m 15.065007,30.274 c 0.726,0.329 4.25,2.171 4.354,5.46 -0.069,0.789 -2.73,-1.25 -5.01,-1.25 l 0,-3.454 0.656,-0.756 z M 3.6650074,11.971 c 0.133,1.429 2.975,2.889 5.023,3.227 0.262,-0.57 -1.354,-2.237 -2.227,-3.246 -0.488,-0.564 -0.701,-1.904 -2.185,-1.321 -1.484,0.583 -0.611,1.34 -0.611,1.34 z"
     id="path22"
     inkscape:connector-curvature="0"
     style="fill:#be1931" />
  <path
     d="m 7.7720074,13.751 c -0.655,0 -0.83,1.754 2.4889996,2.544 3.319,0.79 1.56,-0.878 1.048,-1.667 -0.656,-1.009 -3.5369996,-0.877 -3.5369996,-0.877 z"
     id="path24"
     inkscape:connector-curvature="0"
     style="fill:#be1931" />
  <path
     d="m 11.495007,25.34 c -0.187,0.987 -0.075,6.217 2.961,6.612 l 0,-7.006 -2.961,0.394 z"
     id="path26"
     inkscape:connector-curvature="0"
     style="fill:#89021f" />
  <path
     d="m 23.659007,6.88 c -0.752,-0.779 -2.316,-2.461 -1.59,-3.954 -0.949,0.077 -6.757,6.159 0.06,9.073 1.072,-0.137 1.53,-5.119 1.53,-5.119 z"
     id="path28"
     inkscape:connector-curvature="0"
     style="fill:#be1931" />
  <path
     d="m 25.006007,11.971 c -0.133,1.429 -2.975,2.889 -5.023,3.227 -0.262,-0.57 1.354,-2.237 2.227,-3.246 0.488,-0.564 0.701,-1.904 2.185,-1.321 1.484,0.583 0.611,1.34 0.611,1.34 z"
     id="path30"
     inkscape:connector-curvature="0"
     style="fill:#be1931" />
  <path
     d="m 20.900007,13.751 c 0.655,0 0.83,1.754 -2.489,2.544 -3.319,0.79 -1.56,-0.878 -1.048,-1.667 0.655,-1.009 3.537,-0.877 3.537,-0.877 z"
     id="path32"
     inkscape:connector-curvature="0"
     style="fill:#be1931" />
  <path
     d="m 24.421007,0 c 2.633,0.67 4.675,5.092 4.174,7.847 -0.782,4.302 -2.992,5.787 -5.428,6.164 -0.748,-0.058 -3.293,-3.474 -0.576,-6.272 2.717,-2.798 2.505,-5.856 1.83,-7.739 z"
     id="path34"
     inkscape:connector-curvature="0"
     style="fill:#dd2e44" />
  <path
     d="m 13.571007,12.458 c -0.258,0 -0.478,-0.199 -0.498,-0.461 -0.498,-6.35 -2.635,-10.064 -6.0179996,-10.459 -0.274,-0.032 -0.471,-0.28 -0.438,-0.555 0.032,-0.273 0.274,-0.468 0.555,-0.438 2.264,0.264 6.1699996,2.093 6.8979996,11.374 0.021,0.275 -0.184,0.516 -0.459,0.538 l -0.04,10e-4 z m 1.418,0 -0.04,-10e-4 c -0.275,-0.021 -0.481,-0.262 -0.459,-0.538 0.728,-9.281 4.635,-11.11 6.899,-11.374 0.27,-0.038 0.522,0.164 0.555,0.438 0.031,0.274 -0.165,0.523 -0.439,0.555 -3.383,0.395 -5.52,4.109 -6.018,10.459 -0.02,0.262 -0.239,0.461 -0.498,0.461 z"
     id="path36"
     inkscape:connector-curvature="0"
     style="fill:#be1931" />
  <path
     d="m 14.411007,22.998 c 0,1 0.019,3.326 0.019,4.876 -0.576,0 -1.491,-0.016 -2.438,-0.3 -1.497,-0.45 -1.113,-3.901 -0.614,-4.701 l 3.033,0.125 z"
     id="path38"
     inkscape:connector-curvature="0"
     style="fill:#a0041e" />
  <path
     d="m 14.365007,19.197 c 0,1.113 0.022,3.702 0.022,5.428 -0.655,0 -1.696,-0.017 -2.773,-0.334 -1.7029996,-0.501 -1.266,-4.342 -0.699,-5.233 l 3.45,0.139 z"
     id="path40"
     inkscape:connector-curvature="0"
     style="fill:#be1931" />
  <path
     d="m 14.365007,11.689 c 0,2.169 0.279,8.822 0.279,9.497 -1.397,0 -5.3009996,0.337 -5.0819996,-3.134 0.218,-3.47 2.3579996,-6.363 4.8029996,-6.363 z"
     id="path42"
     inkscape:connector-curvature="0"
     style="fill:#dd2e44" />
  <path
     d="m 17.182007,25.34 c 0.187,0.987 0.075,6.217 -2.961,6.612 l 0,-7.006 2.961,0.394 z"
     id="path44"
     inkscape:connector-curvature="0"
     style="fill:#89021f" />
  <path
     d="m 14.265007,22.998 c 0,1 -0.152,3.326 -0.152,4.876 0.576,0 1.624,-0.016 2.57,-0.3 1.497,-0.45 1.113,-3.901 0.614,-4.701 l -3.032,0.125 z"
     id="path46"
     inkscape:connector-curvature="0"
     style="fill:#a0041e" />
  <path
     d="m 14.312007,19.197 c 0,1.113 -0.165,3.702 -0.165,5.428 0.655,0 1.84,-0.017 2.916,-0.334 1.703,-0.501 1.266,-4.342 0.699,-5.233 l -3.45,0.139 z"
     id="path48"
     inkscape:connector-curvature="0"
     style="fill:#be1931" />
  <path
     d="m 14.312007,11.689 c 0,2.169 -0.21,8.822 -0.21,9.497 1.397,0 5.231,0.337 5.013,-3.134 -0.218,-3.471 -2.358,-6.363 -4.803,-6.363 z M 4.2500074,0 c -2.633,0.67 -4.67499998,5.092 -4.17399998,7.847 0.782,4.302 2.99199998,5.787 5.42799998,6.164 0.748,-0.058 3.293,-3.474 0.576,-6.272 -2.717,-2.798 -2.504,-5.856 -1.83,-7.739 z"
     id="path50"
     inkscape:connector-curvature="0"
     style="fill:#dd2e44" />
  <ellipse
     transform="matrix(0.98460097,-0.17481685,0.17481685,0.98460097,0,0)"
     cx="10.158955"
     cy="14.902761"
     rx="1.015"
     ry="1.4349999"
     id="ellipse52"
     style="fill:#be1931" />
  <ellipse
     transform="matrix(0.17469656,-0.98462232,0.98462232,0.17469656,0,0)"
     cx="-9.8777857"
     cy="17.905975"
     rx="1.4349999"
     ry="1.015"
     id="ellipse54"
     style="fill:#be1931" />
  <ellipse
     transform="matrix(0.98460097,-0.17481685,0.17481685,0.98460097,0,0)"
     cx="10.159635"
     cy="14.183987"
     rx="1.015"
     ry="1.4349999"
     id="ellipse56"
     style="fill:#292f33" />
  <ellipse
     transform="matrix(0.17469656,-0.98462232,0.98462232,0.17469656,0,0)"
     cx="-9.2039061"
     cy="17.903208"
     rx="1.4349999"
     ry="1.015"
     id="ellipse58"
     style="fill:#292f33" />
  <path
     d="m 10.405007,18.864 c 0.281,0.844 0.844,1.75 3.844,1.75 2.094,0 4.156,-0.375 4.094,-1.906 -0.781,0.656 -1.75,0.938 -4.094,0.938 -2.5,0 -3.844,-0.782 -3.844,-0.782 z"
     id="path60"
     inkscape:connector-curvature="0"
     style="fill:#ea596e" />
  <path
     d="m 11.302007,22.881 c 0.218,0.595 0.653,1.234 2.975,1.234 1.62,0 3.217,-0.264 3.168,-1.344 -0.605,0.463 -1.354,0.661 -3.168,0.661 -1.935,-10e-4 -2.975,-0.551 -2.975,-0.551 z"
     id="path62"
     inkscape:connector-curvature="0"
     style="fill:#dd2e44" />
  <path
     d="m 11.406007,26.047 c 0.205,0.595 0.615,1.234 2.803,1.234 1.527,0 3.031,-0.264 2.986,-1.344 -0.57,0.463 -1.276,0.661 -2.986,0.661 -1.823,0 -2.803,-0.551 -2.803,-0.551 z"
     id="path64"
     inkscape:connector-curvature="0"
     style="fill:#be1931" />
  <path
     d="m 4.8420074,12.739 c -0.106,0 -0.214,-0.022 -0.316,-0.07 -2.026,-0.944 -3.157,-2.62 -3.361,-4.98 -0.036,-0.412 0.265,-0.812 0.677,-0.848 0.413,-0.036 0.773,0.231 0.81,0.643 l 0.006,0.076 c 0.064,0.737 0.233,2.693 2.501,3.75 0.375,0.175 0.538,0.621 0.363,0.997 -0.127,0.272 -0.397,0.432 -0.68,0.432 z m 18.9379996,0 c -0.282,0 -0.553,-0.16 -0.68,-0.433 -0.175,-0.375 -0.013,-0.822 0.363,-0.997 2.268,-1.057 2.437,-3.013 2.5,-3.75 l 0.754,-0.008 0.741,0.137 c -0.205,2.36 -1.336,4.036 -3.362,4.98 -0.102,0.049 -0.21,0.071 -0.316,0.071 z"
     id="path66"
     inkscape:connector-curvature="0"
     style="fill:#ea596e" />
</svg>
