<?xml version="1.0" encoding="UTF-8" standalone="no"?>
<svg
   xmlns:dc="http://purl.org/dc/elements/1.1/"
   xmlns:cc="http://creativecommons.org/ns#"
   xmlns:rdf="http://www.w3.org/1999/02/22-rdf-syntax-ns#"
   xmlns:svg="http://www.w3.org/2000/svg"
   xmlns="http://www.w3.org/2000/svg"
   xmlns:sodipodi="http://sodipodi.sourceforge.net/DTD/sodipodi-0.dtd"
   xmlns:inkscape="http://www.inkscape.org/namespaces/inkscape"
   viewBox="0 0 32.936703 35.470379"
   id="svg2"
   version="1.1"
   inkscape:version="0.91 r13725"
   sodipodi:docname="1f996.svg"
   width="32.936703"
   height="35.470379">
  <metadata
     id="metadata30">
    <rdf:RDF>
      <cc:Work
         rdf:about="">
        <dc:format>image/svg+xml</dc:format>
        <dc:type
           rdf:resource="http://purl.org/dc/dcmitype/StillImage" />
      </cc:Work>
    </rdf:RDF>
  </metadata>
  <defs
     id="defs28" />
  <sodipodi:namedview
     pagecolor="#ffffff"
     bordercolor="#666666"
     borderopacity="1"
     objecttolerance="10"
     gridtolerance="10"
     guidetolerance="10"
     inkscape:pageopacity="0"
     inkscape:pageshadow="2"
     inkscape:window-width="640"
     inkscape:window-height="480"
     id="namedview26"
     showgrid="false"
     inkscape:zoom="6.5555556"
     inkscape:cx="15.709701"
     inkscape:cy="18"
     inkscape:window-x="0"
     inkscape:window-y="0"
     inkscape:window-maximized="0"
     inkscape:current-layer="svg2" />
  <path
     d="m 11.209701,22.959377 c 0,0 -1.103,1.377 -0.737,3.268 0.225,1.165 1.315,2.367 2.775,2.592 0.488,0.075 0.727,1.028 0.592,1.728 -0.153,0.792 -0.699,1.902 -0.999,2.465 -0.3,0.563 -0.89,0.562 -1.615,1.213 -0.507,0.455 -0.678,1.245 0.186,1.245 l 3.821,0 c 0.766,0 1.255,-0.469 1.418,-1.241 0.226,-1.071 1.093,-5.148 0.846,-5.935 -0.177,-0.564 -0.777,-1.014 -1.165,-2.104 -0.286,-0.807 0.378,-2.968 0.378,-2.968 l -5.5,-0.263 z m -10.95999963,-0.607 c 0,0 0.79700003,-0.724 1.34400003,-0.937 0.547,-0.213 2.554,-0.058 3.065,-0.164 0.511,-0.107 1.363,-0.97 1.363,-0.97 0,0 2.144,0.835 2.166,1.04 0.023,0.206 -1.44,1.618 -1.761,1.986 -0.321,0.367 -2.316,-0.537 -2.91,-0.537 -0.594,0 -1.842,0.533 -2.281,0.783 -0.44000003,0.249 -0.51100003,-0.131 -0.26100003,-0.404 0,0 -0.402,0.491 -0.539,0.311 -0.138,-0.18 0.231,-0.572 0.231,-0.572 0,0 -0.345,0.439 -0.535,0.297 -0.19,-0.142 -0.194,-0.457 0.118,-0.833 z M 12.124701,6.1673773 c -0.233,0.62 -0.831,1.637 0.355,1.72 1.186,0.083 0.021,1.248 -1.031,1.323 -1.052,0.075 -4.4699996,-1.39 -4.0949996,-2.254 0.376,-0.864 1.88,-1.803 3.0439996,-1.578 1.164,0.226 1.727,0.789 1.727,0.789 z"
     id="path4"
     inkscape:connector-curvature="0"
     style="fill:#662113" />
  <path
     d="m 18.521701,4.9233773 c -0.078,0.578 -0.234,1 -0.344,0.984 -0.109,-0.016 -0.375,-1.062 -0.375,-1.062 0,0 -0.203,1.156 -0.344,1.141 -0.141,-0.016 -0.281,-1.062 -0.281,-1.062 0,0 -0.234,1.063 -0.391,1.063 -0.156,0 -0.359,-1.063 -0.359,-1.063 0,0 -0.17,1.052 -0.295,1.067 -0.125,0.016 -0.502,-0.959 -0.502,-0.959 0,0 -0.219,0.986 -0.328,0.986 -0.109,0 -0.422,-0.986 -0.422,-0.986 0,0 -0.188,0.97 -0.281,0.97 -0.094,0 -0.438,-0.97 -0.438,-0.97 0,0 -0.138,1.041 -0.234,1.064 -0.256,0.062 -0.72,-0.891 -0.72,-0.891 0,0 0.218,1.06 0.079,1.079 -0.234,0.031 -0.984,-0.735 -0.984,-0.735 0,0 0.953,-0.953 1.719,-1.109 0.766,-0.156 4.016,-0.781 4.391,-0.641 0.375,0.14 0.109,1.124 0.109,1.124 z m -0.636,2.742 c -0.137,-0.567 -0.336,-0.97 -0.444,-0.944 -0.107,0.027 -0.132,1.003 -0.132,1.003 0,0 -0.453,-1.037 -0.591,-1.007 -0.138,0.03 -0.061,1.075 -0.061,1.075 0,0 -0.452,-1.022 -0.607,-1.005 -0.155,0.016 -0.092,1.078 -0.092,1.078 0,0 -0.522,-1.093 -0.648,-1.095 -0.126,-0.003 -0.141,1.067 -0.141,1.067 0,0 -0.388,-1.013 -0.497,-1.001 -0.109,0.011 -0.231,1.108 -0.231,1.108 0,0 -0.29,-0.975 -0.383,-0.966 -0.093,0.01 -0.256,1.016 -0.256,1.016 0,0 -0.293,-0.865 -0.389,-0.886 -0.096,-0.021 -0.22,0.903 -0.22,0.903 0,0 -0.29,-0.682 -0.421,-0.732 -0.131,-0.049 -0.215,0.879 -0.215,0.879 0,0 0.125,0.377 0.903,0.453 0.778,0.076 4.075,0.363 4.433,0.184 0.358,-0.179 -0.008,-1.13 -0.008,-1.13 z"
     id="path6"
     inkscape:connector-curvature="0"
     style="fill:#f4900c" />
  <path
     d="m 8.7447014,6.9563773 c 0.114,-0.683 2.1409996,0.338 2.5539996,0.225 0.413,-0.113 2.066,-1.766 2.517,-1.803 0.451,-0.037 4.47,-0.113 4.921,-0.338 0.451,-0.225 0.188,-1.991 -0.225,-2.479 -0.413,-0.488 -1.878,-1.57799996 -3.606,-1.76599996 -1.728,-0.188 -2.93,-0.225 -3.494,-0.526 -0.564,-0.301 -1.8029996,-0.413 -2.6669996,0 -0.865,0.414 -3.945,0.90199996 -5.222,2.17899996 -1.277,1.277 -2.74200003,2.968 -3.08000003,5.71 -0.338,2.7419997 0.516,4.5729997 1.05200003,5.5819997 0.394,0.742 1.503,3.509 1.766,4.598 0.263,1.089 1.846,4.978 4.934,5.879 3.0879996,0.902 5.3589996,2.648 8.1759996,3.099 3.208,0.513 9.091,-0.188 12.096,-2.066 3.005,-1.878 4.47,-3.794 4.47,-6.311 0,-2.517 -1.615,-5.259 -3.869,-5.334 -2.254,-0.075 -0.789,0.676 -0.113,0.827 0.676,0.15 1.991,1.766 1.69,3.193 -0.3,1.427 -0.902,2.517 -2.517,2.554 -1.615,0.038 -3.306,-1.765 -4.207,-2.968 -0.902,-1.202 -4.959,-3.339 -6.875,-3.454 -1.916,-0.115 -5.898,-0.115 -6.386,-1.317 -0.488,-1.202 -0.376,-1.803 -0.038,-1.953 0.338,-0.15 2.216,-0.5629997 3.531,-0.6009997 1.315,-0.037 3.644,-0.376 3.944,-0.826 0.301,-0.451 0.225,-1.39 -0.113,-1.427 -0.338,-0.038 -2.442,0.188 -3.043,0.188 -0.601,0 -0.939,-0.488 -1.578,-0.301 -0.639,0.188 -1.803,0.902 -2.292,0.826 -0.486,-0.075 -2.3639996,-1.164 -2.3259996,-1.39 z"
     id="path8"
     inkscape:connector-curvature="0"
     style="fill:#ab7e59" />
  <path
     d="m 24.661701,25.723377 c -2.693,0.388 -7.845,-0.466 -9.358,-0.982 -1.512,-0.516 -4.616,-1.318 -6.8009996,-1.782 -2.186,-0.463 -3.884,-2.298 -5.084,-4.098 0.519,1.484 2.069,4.567 4.775,5.357 3.0879996,0.902 5.3589996,2.648 8.1759996,3.099 3.208,0.513 9.091,-0.188 12.096,-2.066 1.09,-0.682 1.972,-1.369 2.66,-2.087 -0.946,0.708 -3.785,2.173 -6.464,2.559 z m -14.136,-24.6849997 c 1.336,0.208 0.204,0.909 2.683,0.904 0,0 -1.872,1 -2.624,1 -1.2969996,0 -1.5679996,-0.644 -1.5669996,-1.182 0,-0.484 0.809,-0.83099996 1.5079996,-0.722 z"
     id="path10"
     inkscape:connector-curvature="0"
     style="fill:#8b5e3c" />
  <circle
     cx="10.209702"
     cy="1.9703773"
     r="0.5"
     id="circle12"
     style="fill:#292f33" />
  <path
     d="m 14.841701,24.236377 c 0,0 0.424,1.503 1.796,2.855 1.372,1.352 4.121,1.653 4.609,1.728 0.488,0.075 1.017,0.263 1.243,0.939 0.225,0.676 0.65,2.691 0.349,3.254 -0.301,0.563 -1.548,0.878 -1.887,1.517 -0.189,0.358 -0.682,0.941 0.182,0.941 l 4.576,0 c 0.766,0 0.953,-0.603 0.953,-1.391 0,-0.789 0.263,-2.066 -0.225,-3.456 -0.488,-1.39 -0.676,-3.494 -1.503,-3.719 -0.827,-0.225 -2.141,-2.479 -2.141,-2.479 l -7.952,-0.189 z m -12.7769996,1.982 c 0,0 0.559,-0.996 1.037,-1.394 0.478,-0.398 2.55,-0.916 3.028,-1.195 0.478,-0.279 1.045,-1.434 1.045,-1.434 0,0 2.437,0.12 2.529,0.319 0.092,0.199 -0.905,2.112 -1.104,2.59 -0.199,0.478 -2.51,0.239 -3.108,0.438 -0.598,0.199 -1.673,1.156 -2.032,1.554 -0.359,0.398 -0.558,0.04 -0.398,-0.319 0,0 -0.239,0.629 -0.438,0.494 -0.199,-0.135 0.04,-0.653 0.04,-0.653 0,0 -0.199,0.558 -0.438,0.478 -0.24,-0.081 -0.349,-0.395 -0.161,-0.878 z"
     id="path14"
     inkscape:connector-curvature="0"
     style="fill:#ab7e59" />
  <path
     d="m 13.419701,15.133377 c 0,0.318 -0.258,0.576 -0.576,0.576 -0.318,0 -0.576,-0.258 -0.576,-0.576 0,-0.318 0.258,-0.576 0.576,-0.576 0.319,0 0.576,0.258 0.576,0.576 z m 3.061,1.264 c 0,0.453 -0.367,0.82 -0.82,0.82 -0.453,0 -0.82,-0.367 -0.82,-0.82 0,-0.453 0.367,-0.82 0.82,-0.82 0.453,0 0.82,0.367 0.82,0.82 z m -1.639,-1.672 c 0,0.241 -0.195,0.436 -0.436,0.436 -0.241,0 -0.436,-0.195 -0.436,-0.436 0,-0.241 0.195,-0.436 0.436,-0.436 0.241,0 0.436,0.195 0.436,0.436 z m 2.955,0.24 c 0,0.228 -0.184,0.412 -0.412,0.412 -0.228,0 -0.412,-0.185 -0.412,-0.412 0,-0.228 0.185,-0.412 0.412,-0.412 0.227,-10e-4 0.412,0.184 0.412,0.412 z m 2.613,1.174 c 0,0.421 -0.341,0.762 -0.762,0.762 -0.421,0 -0.762,-0.341 -0.762,-0.762 0,-0.421 0.341,-0.762 0.762,-0.762 0.42,0 0.762,0.341 0.762,0.762 z"
     id="path16"
     inkscape:connector-curvature="0"
     style="fill:#8b5e3c" />
  <circle
     cx="22.816702"
     cy="19.792377"
     r="0.48800001"
     id="circle18"
     style="fill:#8b5e3c" />
  <circle
     cx="18.284702"
     cy="17.704376"
     r="0.48800001"
     id="circle20"
     style="fill:#8b5e3c" />
  <circle
     cx="22.699701"
     cy="17.704376"
     r="0.48800001"
     id="circle22"
     style="fill:#8b5e3c" />
  <circle
     cx="20.972702"
     cy="17.450377"
     r="0.722"
     id="circle24"
     style="fill:#8b5e3c" />
</svg>
