<?xml version="1.0" encoding="UTF-8" standalone="no"?>
<svg
   xmlns:dc="http://purl.org/dc/elements/1.1/"
   xmlns:cc="http://creativecommons.org/ns#"
   xmlns:rdf="http://www.w3.org/1999/02/22-rdf-syntax-ns#"
   xmlns:svg="http://www.w3.org/2000/svg"
   xmlns="http://www.w3.org/2000/svg"
   xmlns:sodipodi="http://sodipodi.sourceforge.net/DTD/sodipodi-0.dtd"
   xmlns:inkscape="http://www.inkscape.org/namespaces/inkscape"
   viewBox="0 0 35.799 32.301998"
   id="svg2"
   version="1.1"
   inkscape:version="0.91 r13725"
   sodipodi:docname="1f99d.svg"
   width="35.799"
   height="32.301998">
  <metadata
     id="metadata44">
    <rdf:RDF>
      <cc:Work
         rdf:about="">
        <dc:format>image/svg+xml</dc:format>
        <dc:type
           rdf:resource="http://purl.org/dc/dcmitype/StillImage" />
      </cc:Work>
    </rdf:RDF>
  </metadata>
  <defs
     id="defs42" />
  <sodipodi:namedview
     pagecolor="#ffffff"
     bordercolor="#666666"
     borderopacity="1"
     objecttolerance="10"
     gridtolerance="10"
     guidetolerance="10"
     inkscape:pageopacity="0"
     inkscape:pageshadow="2"
     inkscape:window-width="640"
     inkscape:window-height="480"
     id="namedview40"
     showgrid="false"
     inkscape:zoom="6.5555556"
     inkscape:cx="17.924"
     inkscape:cy="16.017"
     inkscape:window-x="0"
     inkscape:window-y="0"
     inkscape:window-maximized="0"
     inkscape:current-layer="svg2" />
  <path
     d="M 10.592,3.901 C 8.956,0.764 4.363,-0.71 3.508,0.583 2.653,1.876 4.215,10.735 5.265,10.55 6.316,10.365 10.592,3.901 10.592,3.901 Z"
     id="path4"
     inkscape:connector-curvature="0"
     style="fill:#99aab5" />
  <path
     d="M 9.765,5.959 C 8.495,3.279 5.069,1.139 4.461,2.214 4.026,2.985 4.583,7.477 5.218,9.91 L 9.765,5.959 Z"
     id="path6"
     inkscape:connector-curvature="0"
     style="fill:#292f33" />
  <path
     d="M 25.208,3.901 C 26.844,0.764 31.436,-0.71 32.292,0.583 33.148,1.876 31.584,10.735 30.534,10.55 29.483,10.365 25.208,3.901 25.208,3.901 Z"
     id="path8"
     inkscape:connector-curvature="0"
     style="fill:#99aab5" />
  <path
     d="m 26.284,5.959 c 1.231,-2.686 4.501,-4.854 5.07,-3.786 0.416,0.78 -0.178,5.425 -0.815,7.825 L 26.284,5.959 Z"
     id="path10"
     inkscape:connector-curvature="0"
     style="fill:#292f33" />
  <path
     d="M 33.054,11.601 C 30.471,8.437 24.006,0 17.899,0 11.792,0 5.328,8.437 2.745,11.601 c -3.138,3.844 -3.051,8.297 -2.248,10.877 0.805,2.587 3.155,5.038 9.261,7.431 2.065,0.809 5.705,2.393 8.142,2.393 2.437,0 6.076,-1.583 8.142,-2.393 6.106,-2.393 8.457,-4.843 9.261,-7.431 0.802,-2.58 0.89,-7.033 -2.249,-10.877 z"
     id="path12"
     inkscape:connector-curvature="0"
     style="fill:#99aab5" />
  <path
     d="M 17.9,12.693 C 17.9,7.78 13.822,7.838 11.358,8.121 6.846,8.638 0,14.882 0,18.854 c 0,1.39 0.16,2.631 0.496,3.624 0.584,1.726 1.875,3.015 5.034,5.266 C 9.02,19.393 17.9,16.498 17.9,12.693 Z"
     id="path14"
     inkscape:connector-curvature="0"
     style="fill:#e1e8ed" />
  <path
     d="m 17.9,14.062 c 0,-2.399 -4.389,-3.04 -6.649,-2.678 -4.884,0.783 -10.74,7.534 -10.755,10.971 l 0,0.013 c 0.002,0.006 0.001,0.111 0.001,0.111 0,0 0.384,1.401 1.623,2.815 0.867,0.991 2.346,2.068 3.333,2.584 l 0.01,-0.011 C 8.415,24.006 12.34,21.451 15.485,20.25 17.248,19.577 17.9,16.75 17.9,14.062 Z"
     id="path16"
     inkscape:connector-curvature="0"
     style="fill:#292f33" />
  <circle
     cx="13.32"
     cy="15.774"
     r="1.527"
     id="circle18"
     style="fill:#99aab5" />
  <path
     d="m 17.9,12.693 c 0,-4.913 4.078,-4.855 6.542,-4.572 4.511,0.518 11.357,6.762 11.357,10.734 0,1.39 -0.16,2.631 -0.496,3.624 -0.584,1.726 -1.875,3.015 -5.034,5.266 C 26.78,19.393 17.9,16.498 17.9,12.693 Z"
     id="path20"
     inkscape:connector-curvature="0"
     style="fill:#e1e8ed" />
  <path
     d="m 17.9,14.062 c 0,-2.399 4.389,-3.04 6.649,-2.678 4.884,0.783 10.74,7.534 10.755,10.971 l 0,0.013 c -0.002,0.006 -0.001,0.111 -0.001,0.111 0,0 -0.384,1.401 -1.623,2.815 -0.868,0.991 -2.347,2.068 -3.333,2.584 l -0.01,-0.011 C 27.385,24.006 23.46,21.451 20.315,20.25 18.552,19.577 17.9,16.75 17.9,14.062 Z"
     id="path22"
     inkscape:connector-curvature="0"
     style="fill:#292f33" />
  <circle
     cx="22.479"
     cy="15.774"
     r="1.527"
     id="circle24"
     style="fill:#99aab5" />
  <path
     d="M 20.67,20.387 C 19.747,19.314 18.92,1.352 17.9,1.352 c -1.02,0 -1.847,17.962 -2.77,19.035 l 5.54,0 z"
     id="path26"
     inkscape:connector-curvature="0"
     style="fill:#66757f" />
  <path
     d="m 24.839,22.469 c -1.636,-2.06 -4.164,-3.705 -6.94,-3.705 -2.776,0 -5.304,1.646 -6.94,3.705 -1.388,1.748 -1.388,3.061 -0.925,4.226 0.482,1.214 1.388,2.821 4.164,3.986 0.939,0.394 2.594,1.165 3.701,1.165 1.108,0 2.762,-0.771 3.701,-1.165 2.776,-1.165 3.682,-2.772 4.164,-3.986 0.463,-1.165 0.463,-2.478 -0.925,-4.226 z"
     id="path28"
     inkscape:connector-curvature="0"
     style="fill:#e1e8ed" />
  <path
     d="m 21.538,26.657 c -0.689,-0.562 -1.629,0.184 -3.639,0.184 -2.01,0 -2.95,-0.746 -3.639,-0.184 -0.689,0.562 0.585,2.308 3.639,2.308 3.054,0 4.328,-1.746 3.639,-2.308 z"
     id="path30"
     inkscape:connector-curvature="0"
     style="fill:#292f33" />
  <path
     d="m 13.089,23.054 c -0.133,0 -0.268,-0.035 -0.391,-0.107 C 9.696,21.155 4.341,22.034 3.034,22.661 2.656,22.845 2.199,22.684 2.015,22.304 1.833,21.923 1.993,21.467 2.373,21.285 c 1.744,-0.838 7.624,-1.725 11.107,0.35 0.362,0.217 0.481,0.685 0.264,1.047 -0.142,0.239 -0.395,0.372 -0.655,0.372 z"
     id="path32"
     inkscape:connector-curvature="0"
     style="fill:#66757f" />
  <path
     d="m 2.065,27.987 c -0.168,0 -0.337,-0.056 -0.478,-0.169 -0.328,-0.264 -0.38,-0.744 -0.116,-1.073 1.455,-1.807 4.896,-4.888 11.581,-5.216 0.419,-0.035 0.779,0.304 0.8,0.725 0.021,0.421 -0.304,0.779 -0.725,0.8 C 7.038,23.353 3.956,26.095 2.66,27.703 2.509,27.89 2.288,27.987 2.065,27.987 Z m 31.669,0 c -0.223,0 -0.443,-0.097 -0.594,-0.284 -1.295,-1.608 -4.377,-4.35 -10.467,-4.649 -0.42,-0.021 -0.745,-0.379 -0.725,-0.8 0.021,-0.42 0.383,-0.763 0.8,-0.725 6.685,0.328 10.124,3.409 11.58,5.216 0.264,0.329 0.213,0.809 -0.115,1.073 -0.141,0.113 -0.31,0.169 -0.479,0.169 z"
     id="path34"
     inkscape:connector-curvature="0"
     style="fill:#66757f" />
  <path
     d="m 22.711,23.054 c -0.26,0 -0.514,-0.133 -0.657,-0.373 -0.216,-0.362 -0.097,-0.83 0.264,-1.047 3.482,-2.076 9.366,-1.188 11.107,-0.35 0.381,0.182 0.541,0.638 0.358,1.018 -0.182,0.381 -0.636,0.544 -1.018,0.358 -1.31,-0.628 -6.664,-1.505 -9.664,0.286 -0.123,0.074 -0.257,0.108 -0.39,0.108 z"
     id="path36"
     inkscape:connector-curvature="0"
     style="fill:#66757f" />
  <path
     d="m 21.538,20.529 c 0,1.765 -2.539,3.223 -3.639,3.223 -1.1,0 -3.639,-1.458 -3.639,-3.223 0,-1.765 1.629,-1.81 3.639,-1.81 2.01,0 3.639,0.045 3.639,1.81 z"
     id="path38"
     inkscape:connector-curvature="0"
     style="fill:#292f33" />
</svg>
