<?xml version="1.0" encoding="UTF-8" standalone="no"?>
<svg
   xmlns:dc="http://purl.org/dc/elements/1.1/"
   xmlns:cc="http://creativecommons.org/ns#"
   xmlns:rdf="http://www.w3.org/1999/02/22-rdf-syntax-ns#"
   xmlns:svg="http://www.w3.org/2000/svg"
   xmlns="http://www.w3.org/2000/svg"
   xmlns:sodipodi="http://sodipodi.sourceforge.net/DTD/sodipodi-0.dtd"
   xmlns:inkscape="http://www.inkscape.org/namespaces/inkscape"
   viewBox="0 0 35.539894 35.851677"
   id="svg2"
   version="1.1"
   inkscape:version="0.91 r13725"
   sodipodi:docname="1f998.svg"
   width="35.539894"
   height="35.851677">
  <metadata
     id="metadata24">
    <rdf:RDF>
      <cc:Work
         rdf:about="">
        <dc:format>image/svg+xml</dc:format>
        <dc:type
           rdf:resource="http://purl.org/dc/dcmitype/StillImage" />
      </cc:Work>
    </rdf:RDF>
  </metadata>
  <defs
     id="defs22" />
  <sodipodi:namedview
     pagecolor="#ffffff"
     bordercolor="#666666"
     borderopacity="1"
     objecttolerance="10"
     gridtolerance="10"
     guidetolerance="10"
     inkscape:pageopacity="0"
     inkscape:pageshadow="2"
     inkscape:window-width="640"
     inkscape:window-height="480"
     id="namedview20"
     showgrid="false"
     inkscape:zoom="6.5555556"
     inkscape:cx="17.85293"
     inkscape:cy="18"
     inkscape:window-x="0"
     inkscape:window-y="0"
     inkscape:window-maximized="0"
     inkscape:current-layer="svg2" />
  <path
     d="m 6.3659297,0.73767669 c 0,0.98400001 0.649,3.92600001 1.153,5.04700001 0.504,1.121 -0.505,0.35 -1.442,-0.771 -0.937,-1.121 -1.657,-2.244 -1.225,-3.435 0.432,-1.19100001 1.514,-2.17300001 1.514,-0.84100001 z"
     id="path4"
     inkscape:connector-curvature="0"
     style="fill:#bf6952" />
  <path
     d="m 0.16692973,10.550677 c -0.004,0.961 1.21999997,2.097 2.88299997,1.682 1.333,-0.332 3.234,-1.359 3.316,-0.561 0.082,0.798 -1.179,3.471 -0.629,6.276 0.93,4.74 2.379,8.873 7.2010003,10.095 0,0 0.723,2.775 1.479,3.986 0.694,1.111 1.029,2.022 0.45,2.215 -0.579,0.193 -3.472,0.386 -4.694,0.579 -1.2210003,0.193 -1.4140003,1.029 -0.064,1.029 l 6.944,0 c 0.707,0 0.643,-0.643 0.193,-1.607 -0.45,-0.964 0.805,-2.643 0.598,-5.332 0.414,0.14 1.395,0.067 1.974,0.838 0.579,0.772 3.729,5.976 8.809,5.976 5.08,0 6.43,-3.826 6.815,-4.855 0.386,-1.029 -0.45,-1.029 -1.093,-0.193 -0.643,0.836 -2.761,1.931 -5.722,1.508 -3.151,-0.45 -3.822,-4.465 -4.658,-6.909 -0.836,-2.443 -2.74,-6.968 -7.044,-9.487 -3.177,-1.859 -5.483,-1.31 -5.363,-3.356 0.178,-3.0330003 0.325,-5.2100003 -1.099,-6.8920003 -1.1500003,-1.357 -3.8510003,-1.264 -5.4180003,-0.319 -0.697,0.42 -1.117,1.595 -1.778,2.103 -1.986,1.523 -3.09699997,2.373 -3.09999997,3.2240003 z"
     id="path6"
     inkscape:connector-curvature="0"
     style="fill:#d99e82" />
  <path
     d="m 5.8949297,22.476677 c -0.259,0.531 -0.006,1.019 -0.158,1.355 -0.225,0.497 -1.254,0.804 -1.35,-0.032 -0.097,-0.836 -0.021,-1.948 0.45,-2.572 0.322,-0.427 3.279,-2.797 3.408,-2.893 0.129,-0.096 -0.354,-2.893 -0.354,-2.893 0,0 0.096,-1.125 1.447,-0.868 1.3500003,0.257 1.3180003,1.415 1.3180003,2.636 0,1.221 0.225,2.443 -0.386,2.733 -0.6110003,0.29 -4.1170003,2.003 -4.3750003,2.534 z"
     id="path8"
     inkscape:connector-curvature="0"
     style="fill:#d79e84" />
  <path
     d="m 6.5099297,7.2566767 c 0,0.465 -0.387,0.841 -0.865,0.841 -0.478,0 -0.865,-0.377 -0.865,-0.841 0,-0.464 0.387,-0.561 0.865,-0.561 0.478,0 0.865,0.096 0.865,0.561 z"
     id="path10"
     inkscape:connector-curvature="0"
     style="fill:#292f33" />
  <path
     d="m 9.8259297,0.10667669 c 0.9120003,-0.665 1.0090003,1.96300001 0.7930003,2.80400001 -0.216,0.841 -1.8750003,3.014 -1.8750003,3.014 0,0 -1.297,0.631 -1.297,-0.911 0,-1.542 1.514,-4.27600001 2.379,-4.90700001 z"
     id="path12"
     inkscape:connector-curvature="0"
     style="fill:#d99e82" />
  <path
     d="m 9.9149297,1.9416767 c 0.5800003,0.346 -1.307,3.303 -1.766,3.055 -0.459,-0.247 0.988,-3.519 1.766,-3.055 z"
     id="path14"
     inkscape:connector-curvature="0"
     style="fill:#bf6952" />
  <path
     d="m 0.16692973,9.9906767 c 0.86899997,-0.528 1.08099997,0.9110003 0.793,1.4020003 -0.289,0.49 -1.37,-1.052 -0.793,-1.4020003 z"
     id="path16"
     inkscape:connector-curvature="0"
     style="fill:#292f33" />
  <path
     d="m 7.1269297,22.191677 c -0.125,0 -0.244,-0.073 -0.297,-0.195 -0.071,-0.164 0.004,-0.354 0.168,-0.426 1.066,-0.464 1.99,-1.182 2.367,-1.533 0.15,-0.182 0.523,-1.447 0.7770003,-2.511 0.042,-0.174 0.219,-0.278 0.39,-0.24 0.174,0.042 0.281,0.216 0.24,0.39 -0.223,0.931 -0.645,2.536 -0.9660003,2.835 -0.546,0.508 -1.546,1.216 -2.55,1.652 -0.042,0.019 -0.086,0.028 -0.129,0.028 z"
     id="path18"
     inkscape:connector-curvature="0"
     style="fill:#bf6952" />
</svg>
