<?xml version="1.0" encoding="UTF-8" standalone="no"?>
<svg
   xmlns:dc="http://purl.org/dc/elements/1.1/"
   xmlns:cc="http://creativecommons.org/ns#"
   xmlns:rdf="http://www.w3.org/1999/02/22-rdf-syntax-ns#"
   xmlns:svg="http://www.w3.org/2000/svg"
   xmlns="http://www.w3.org/2000/svg"
   xmlns:sodipodi="http://sodipodi.sourceforge.net/DTD/sodipodi-0.dtd"
   xmlns:inkscape="http://www.inkscape.org/namespaces/inkscape"
   viewBox="0 0 36 33.870647"
   id="svg2"
   version="1.1"
   inkscape:version="0.91 r13725"
   sodipodi:docname="1f9a7.svg"
   width="36"
   height="33.870647">
  <metadata
     id="metadata36">
    <rdf:RDF>
      <cc:Work
         rdf:about="">
        <dc:format>image/svg+xml</dc:format>
        <dc:type
           rdf:resource="http://purl.org/dc/dcmitype/StillImage" />
      </cc:Work>
    </rdf:RDF>
  </metadata>
  <defs
     id="defs34" />
  <sodipodi:namedview
     pagecolor="#ffffff"
     bordercolor="#666666"
     borderopacity="1"
     objecttolerance="10"
     gridtolerance="10"
     guidetolerance="10"
     inkscape:pageopacity="0"
     inkscape:pageshadow="2"
     inkscape:window-width="640"
     inkscape:window-height="480"
     id="namedview32"
     showgrid="false"
     inkscape:zoom="6.5555556"
     inkscape:cx="18"
     inkscape:cy="17.870647"
     inkscape:window-x="0"
     inkscape:window-y="0"
     inkscape:window-maximized="0"
     inkscape:current-layer="svg2" />
  <path
     d="M 36,30 C 36,18 34,2 18,2 2,2 0,18 0,30 l 8,0 0,-5 c 0,-1 1,-1 1,0 0,7 4,6 4,6 l 2,2 1,-1 c 0,-0.552 1.448,-1 2,-1 0.552,0 2,0.448 2,1 l 1,1 2,-2 c 0,0 4,1 4,-6 0,-1 1,-1 1,0 l 0,5 8,0 z"
     id="path4"
     inkscape:connector-curvature="0"
     style="fill:#e26000" />
  <circle
     cx="18"
     cy="11.5"
     r="11.5"
     id="circle6"
     style="fill:#e26000" />
  <path
     d="m 32,29 c -3,0 -4,1 -4,1 l 0,1 c 0,0.552 0.448,1 1,1 0.552,0 1,-0.448 1,-1 0,0.552 0.448,1 1,1 0.552,0 1,-0.448 1,-1 0,0.552 0.448,1 1,1 0.552,0 1,-0.448 1,-1 0,0.552 0.448,1 1,1 0.552,0 1,-0.448 1,-1 l 0,-1 c 0,0 -1,-1 -4,-1 z M 4,29 c -3,0 -4,1 -4,1 l 0,1 c 0,0.552 0.448,1 1,1 0.552,0 1,-0.448 1,-1 0,0.552 0.448,1 1,1 0.552,0 1,-0.448 1,-1 0,0.552 0.448,1 1,1 0.552,0 1,-0.448 1,-1 0,0.552 0.448,1 1,1 0.552,0 1,-0.448 1,-1 L 8,30 C 8,30 7,29 4,29 Z"
     id="path8"
     inkscape:connector-curvature="0"
     style="fill:#d9b981" />
  <path
     d="M 6.5,17.607 C 6.5,23.051 14.167,25 18,25 c 3.833,0 11.5,-1.949 11.5,-7.393 0,-2.366 -0.974,-4.536 -2.595,-6.235 0.023,-0.244 0.04,-0.491 0.04,-0.747 C 26.944,5.862 24.9,2 18,2 11.1,2 9.056,5.862 9.056,10.625 c 0,0.256 0.017,0.503 0.04,0.747 C 7.474,13.071 6.5,15.241 6.5,17.607 Z"
     id="path10"
     inkscape:connector-curvature="0"
     style="fill:#c45400" />
  <path
     d="M 8,15.571 C 8,20.305 14.667,22 18,22 c 3.333,0 10,-1.695 10,-6.429 0,-2.057 -0.847,-3.944 -2.257,-5.422 0.02,-0.212 0.035,-0.427 0.035,-0.65 C 25.778,5.358 24,2 18,2 c -6,0 -7.778,3.358 -7.778,7.5 0,0.223 0.015,0.438 0.035,0.65 C 8.847,11.627 8,13.514 8,15.571 Z"
     id="path12"
     inkscape:connector-curvature="0"
     style="fill:#d9b981" />
  <circle
     cx="16"
     cy="9"
     r="1"
     id="circle14"
     style="fill:#292f33" />
  <circle
     cx="20"
     cy="9"
     r="1"
     id="circle16"
     style="fill:#292f33" />
  <path
     d="m 12.67,9.073 c -0.042,0 -0.084,-0.005 -0.127,-0.016 -0.267,-0.07 -0.427,-0.343 -0.357,-0.61 0.488,-1.867 2.405,-2.988 4.271,-2.503 0.267,0.07 0.427,0.343 0.357,0.61 -0.07,0.267 -0.343,0.424 -0.61,0.357 -1.332,-0.347 -2.702,0.455 -3.05,1.788 -0.059,0.225 -0.262,0.374 -0.484,0.374 z m 10.66,0 C 23.107,9.073 22.905,8.924 22.847,8.699 22.678,8.053 22.268,7.511 21.692,7.174 21.116,6.835 20.443,6.742 19.796,6.912 19.527,6.981 19.256,6.821 19.187,6.555 c -0.07,-0.268 0.09,-0.541 0.357,-0.61 0.901,-0.236 1.846,-0.106 2.653,0.367 0.807,0.473 1.381,1.231 1.616,2.136 0.07,0.267 -0.09,0.54 -0.357,0.61 -0.042,0.009 -0.085,0.015 -0.126,0.015 z"
     id="path18"
     inkscape:connector-curvature="0"
     style="fill:#ffe8b6" />
  <path
     d="m 13,3 2,3 1,-1 2,3 2,-3 1,1 2,-3 C 23,3 21,2 18,2 15,2 13,3 13,3 Z"
     id="path20"
     inkscape:connector-curvature="0"
     style="fill:#c09154" />
  <path
     d="m 13,3 2,2 1,-2 2,3 2,-3 1,2 2,-2 C 23,3 21,1 18,1 15,1 13,3 13,3 Z"
     id="path22"
     inkscape:connector-curvature="0"
     style="fill:#e26000" />
  <circle
     cx="17.5"
     cy="11.5"
     r="0.5"
     id="circle24"
     style="fill:#c09154" />
  <circle
     cx="18.5"
     cy="11.5"
     r="0.5"
     id="circle26"
     style="fill:#c09154" />
  <path
     d="m 18,19 c -3.665,0 -5.286,-1.579 -5.354,-1.646 -0.195,-0.195 -0.195,-0.512 0,-0.707 0.195,-0.194 0.51,-0.195 0.705,-0.002 C 13.365,16.658 14.783,18 18,18 c 3.218,0 4.635,-1.342 4.648,-1.356 0.197,-0.191 0.514,-0.189 0.706,0.006 0.193,0.195 0.193,0.509 -10e-4,0.703 C 23.286,17.421 21.665,19 18,19 Z"
     id="path28"
     inkscape:connector-curvature="0"
     style="fill:#292f33" />
  <path
     d="m 17.295,31 c -0.235,2.224 -5,4 -6,2 C 11.048,32.506 8.954,28.064 8.76,27.547 8.566,27.03 8.828,26.453 9.346,26.26 c 0.518,-0.193 1.094,0.068 1.287,0.586 -0.194,-0.517 0.068,-1.094 0.586,-1.287 0.517,-0.194 1.094,0.068 1.287,0.586 -0.194,-0.517 0.068,-1.094 0.586,-1.287 0.517,-0.194 1.094,0.068 1.287,0.586 -0.194,-0.517 0.068,-1.094 0.586,-1.287 0.518,-0.193 1.094,0.068 1.287,0.586 0.193,0.514 1.148,5.263 1.043,6.257 z m 1.41,0 c 0.235,2.224 5,4 6,2 0.247,-0.494 2.341,-4.936 2.535,-5.453 0.194,-0.517 -0.068,-1.094 -0.586,-1.287 -0.518,-0.193 -1.094,0.068 -1.287,0.586 0.194,-0.517 -0.068,-1.094 -0.586,-1.287 -0.517,-0.194 -1.094,0.068 -1.287,0.586 0.194,-0.517 -0.068,-1.094 -0.586,-1.287 -0.517,-0.194 -1.094,0.068 -1.287,0.586 0.194,-0.517 -0.068,-1.094 -0.586,-1.287 -0.518,-0.193 -1.094,0.068 -1.287,0.586 C 19.555,25.257 18.6,30.006 18.705,31 Z"
     id="path30"
     inkscape:connector-curvature="0"
     style="fill:#d9b981" />
</svg>
