<?xml version="1.0" encoding="UTF-8" standalone="no"?>
<svg
   xmlns:dc="http://purl.org/dc/elements/1.1/"
   xmlns:cc="http://creativecommons.org/ns#"
   xmlns:rdf="http://www.w3.org/1999/02/22-rdf-syntax-ns#"
   xmlns:svg="http://www.w3.org/2000/svg"
   xmlns="http://www.w3.org/2000/svg"
   xmlns:sodipodi="http://sodipodi.sourceforge.net/DTD/sodipodi-0.dtd"
   xmlns:inkscape="http://www.inkscape.org/namespaces/inkscape"
   viewBox="0 0 35.876938 34.870415"
   id="svg2"
   version="1.1"
   inkscape:version="0.91 r13725"
   sodipodi:docname="1f9a2.svg"
   width="35.876938"
   height="34.870415">
  <metadata
     id="metadata20">
    <rdf:RDF>
      <cc:Work
         rdf:about="">
        <dc:format>image/svg+xml</dc:format>
        <dc:type
           rdf:resource="http://purl.org/dc/dcmitype/StillImage" />
      </cc:Work>
    </rdf:RDF>
  </metadata>
  <defs
     id="defs18" />
  <sodipodi:namedview
     pagecolor="#ffffff"
     bordercolor="#666666"
     borderopacity="1"
     objecttolerance="10"
     gridtolerance="10"
     guidetolerance="10"
     inkscape:pageopacity="0"
     inkscape:pageshadow="2"
     inkscape:window-width="640"
     inkscape:window-height="480"
     id="namedview16"
     showgrid="false"
     inkscape:zoom="6.5555556"
     inkscape:cx="17.878"
     inkscape:cy="17.333"
     inkscape:window-x="0"
     inkscape:window-y="0"
     inkscape:window-maximized="0"
     inkscape:current-layer="svg2" />
  <path
     d="m 3.305,6.5714144 c -1.049,-1.086 -1.535,-2.903 0.2,-5.106 1.735,-2.20299999 9.144,-2.87 8.61,4.939 -0.067,1.835 -0.768,4.6049996 -2.603,8.3759996 -0.467,0.968 -1.268,2.536 -1.602,4.839 0.968,-0.801 3.904,-2.236 6.908,-1.835 3.003,0.4 18.054,7.142 21.057,4.305 0.1,1.168 -3.637,12.781 -18.555,12.781 -14.918,0 -17.32,-7.509 -17.32,-10.912 0,-3.403 0.868,-5.173 3.371,-7.542 2.503,-2.369 6.342,-8.0089996 4.606,-10.5119996 -0.367,0.667 -2.769,2.636 -4.672,0.667 z"
     id="path4"
     inkscape:connector-curvature="0"
     style="fill:#e1e8ed" />
  <path
     d="m 10.08,26.094414 c -0.567,2.136 2.967,6.589 8.71,6.608 8.385,0.028 12.881,-4.705 15.384,-10.746 -2.436,-1.068 -13.826,-3.254 -17.129,-1.919 -3.303,1.335 -3.667,1.583 -7.298,3.52 1.167,0.201 0.3,2.537 0.333,2.537 z"
     id="path6"
     inkscape:connector-curvature="0"
     style="fill:#ccd6dd" />
  <path
     d="m 5.353,6.9144144 c 0.098,-0.085 0.155,-0.187 0.155,-0.309 0,-0.968 0.067,-2.503 0.4,-2.903 0.785,0.083 1.118,-0.735 0.618,-1.269 -0.5,-0.534 -1.418,0.067 -1.352,0.634 -1.414,-0.377 -2.442,-0.142 -2.784,0.912 -0.104,1.066 0.302,1.957 0.915,2.592 0.295,0.305 1.776,0.427 2.048,0.343 z"
     id="path8"
     inkscape:connector-curvature="0"
     style="fill:#292f33" />
  <path
     d="m 7.597,4.2994144 c -0.004,0.986 -0.74,2.149 -2.244,2.614 -0.159,0.136 -0.429,0.223 -0.751,0.268 0.131,0.088 0.268,0.165 0.411,0.23 1.41,0.096 2.704,-1.032 2.965,-1.507 0.006,0.008 0.008,0.018 0.013,0.026 0.03,-0.89 -0.394,-1.631 -0.394,-1.631 z"
     id="path10"
     inkscape:connector-curvature="0"
     style="fill:#ccd6dd" />
  <path
     d="m 9.179,23.624414 c 0.033,-1.468 1.368,-7.375 9.077,-7.542 7.709,-0.167 8.31,4.672 14.416,-0.467 -0.1,1.301 -2.269,15.017 -13.849,15.017 -9.21,0 -9.678,-5.54 -9.644,-7.008 z"
     id="path12"
     inkscape:connector-curvature="0"
     style="fill:#e1e8ed" />
  <path
     d="m 0.632,10.108414 c 0.85,-0.2639996 3.775,-1.9679996 4.843,-3.1699996 0.3,-0.334 -1.495,-2.405 -3.164,-2.639 0.1,0.534 0.06,2.572 -1.575,4.374 -0.434,0.334 -1.026,1.6019996 -0.104,1.4349996 z"
     id="path14"
     inkscape:connector-curvature="0"
     style="fill:#f4900c" />
</svg>
