<?xml version="1.0" encoding="UTF-8" standalone="no"?>
<svg
   xmlns:dc="http://purl.org/dc/elements/1.1/"
   xmlns:cc="http://creativecommons.org/ns#"
   xmlns:rdf="http://www.w3.org/1999/02/22-rdf-syntax-ns#"
   xmlns:svg="http://www.w3.org/2000/svg"
   xmlns="http://www.w3.org/2000/svg"
   xmlns:sodipodi="http://sodipodi.sourceforge.net/DTD/sodipodi-0.dtd"
   xmlns:inkscape="http://www.inkscape.org/namespaces/inkscape"
   viewBox="0 0 35.845795 20.582817"
   id="svg2"
   version="1.1"
   inkscape:version="0.91 r13725"
   sodipodi:docname="1f9a1.svg"
   width="35.845795"
   height="20.582817">
  <metadata
     id="metadata16">
    <rdf:RDF>
      <cc:Work
         rdf:about="">
        <dc:format>image/svg+xml</dc:format>
        <dc:type
           rdf:resource="http://purl.org/dc/dcmitype/StillImage" />
      </cc:Work>
    </rdf:RDF>
  </metadata>
  <defs
     id="defs14" />
  <sodipodi:namedview
     pagecolor="#ffffff"
     bordercolor="#666666"
     borderopacity="1"
     objecttolerance="10"
     gridtolerance="10"
     guidetolerance="10"
     inkscape:pageopacity="0"
     inkscape:pageshadow="2"
     inkscape:window-width="640"
     inkscape:window-height="480"
     id="namedview12"
     showgrid="false"
     inkscape:zoom="6.5555556"
     inkscape:cx="17.845793"
     inkscape:cy="18.000817"
     inkscape:window-x="0"
     inkscape:window-y="0"
     inkscape:window-maximized="0"
     inkscape:current-layer="svg2" />
  <path
     d="m 34.002793,5.291 c -0.807,-1.404 -1.932,-2.604 -3.565,-3.526 -0.431,-0.244 -1.826,-0.275 -1.826,-0.275 0,0 -0.707,-0.809 -1.344,-0.978 -3.476,-0.923 -8.798,0.434 -10.427,1.086 -1.628,0.652 -1.914,0.299 -3.995,-0.016 -0.277,-0.042 -0.586,-0.066 -0.918,-0.073 C 11.424793,1.078 11.813793,0 10.813793,0 9.8137929,0 9.3807929,1.047 8.8457929,1.582 c -0.226,0.031 -0.456,0.074 -0.688,0.125 -0.207,0.042 -0.412,0.097 -0.621,0.155 -0.32,-0.673 -0.774,-1.347 -1.222,-1.28 -0.402,0.06 -0.466,1.098 -0.421,1.943 -0.272,0.152 -1.946,3.729 -3.019,6.198 -0.092,0.212 -1.882,0.83 -2.064,1.011 -0.616,0.612 -1.062,1.152 -0.653,1.642 0.631,0.757 2.649,0.694 3.91,0.505 1.261,-0.189 3.847,-1.513 5.108,-1.513 3.4430001,0 3.9250001,3.154 4.3530001,5.505 0.387,2.128 0.339,4.763 1.317,4.709 0.978,-0.054 3,-2 3,-5 1,0 7.728,0.674 8,1 0.272,0.326 1,4 2,4 1,0 5,-7 5,-13 1,2 0.668,4.172 0.668,4.878 0,0.706 0.332,2.122 1.332,2.122 1,0 1,-2.009 1,-3 0,-0.991 -0.594,-4.119 -1.843,-6.291 z"
     id="path4"
     inkscape:connector-curvature="0"
     style="fill:#31373d" />
  <path
     d="m 32.465793,5.37 c -0.43,-1.59 -1.333,-2.86 -2.031,-3.598 -0.895,-0.506 -1.934,-0.933 -3.166,-1.26 0.261,1.098 -0.923,6.903 -8.923,11.133 -0.94,0.497 0.857,2.652 3.469,3.312 4.907,1.241 8.457,0.855 10.098,-1.79 0.553,-1.802 0.933,-3.74 0.933,-5.585 0.02,0.04 0.032,0.081 0.051,0.121 l 0,-0.001 c -0.097,-0.937 -0.277,-1.761 -0.431,-2.332 z"
     id="path6"
     inkscape:connector-curvature="0"
     style="fill:#99aab5" />
  <path
     d="m 4.8037929,6.582 c 0.853,-2.352 1.615,-3.78 4.042,-5 -1.229,0.167 -2.579,0.554 -3.75,1.458 -2.775,2.144 -1.659,3.795 -3.235,5.624 -0.329,0.381 -0.714,0.736 -1.049,1.069 1.784,-0.151 3.144,-0.811 3.992,-3.151 z M 16.399793,2.773 c -2.504,0.888 -5.941,3.094 -7.6790001,4.553 -2.375,1.996 -4.316,2.729 -5.313,3.256 -1.631,0.863 0.755,1.177 3.438,0 2.108,-0.925 5.9400001,-2.519 8.8750001,-2.5 6.462,0.041 9.625,-5.292 11.548,-7.57 -3.792,-0.334 -8.162,1.301 -10.869,2.261 z"
     id="path8"
     inkscape:connector-curvature="0"
     style="fill:#e1e8ed" />
  <circle
     cx="6.8457928"
     cy="5.5819998"
     r="1"
     id="circle10"
     style="fill:#e1e8ed" />
</svg>
