<?xml version="1.0" encoding="UTF-8" standalone="no"?>
<svg
   xmlns:dc="http://purl.org/dc/elements/1.1/"
   xmlns:cc="http://creativecommons.org/ns#"
   xmlns:rdf="http://www.w3.org/1999/02/22-rdf-syntax-ns#"
   xmlns:svg="http://www.w3.org/2000/svg"
   xmlns="http://www.w3.org/2000/svg"
   xmlns:sodipodi="http://sodipodi.sourceforge.net/DTD/sodipodi-0.dtd"
   xmlns:inkscape="http://www.inkscape.org/namespaces/inkscape"
   viewBox="0 0 36 33.038864"
   id="svg2"
   version="1.1"
   inkscape:version="0.91 r13725"
   sodipodi:docname="1f9a5.svg"
   width="36"
   height="33.038864">
  <metadata
     id="metadata30">
    <rdf:RDF>
      <cc:Work
         rdf:about="">
        <dc:format>image/svg+xml</dc:format>
        <dc:type
           rdf:resource="http://purl.org/dc/dcmitype/StillImage" />
      </cc:Work>
    </rdf:RDF>
  </metadata>
  <defs
     id="defs28" />
  <sodipodi:namedview
     pagecolor="#ffffff"
     bordercolor="#666666"
     borderopacity="1"
     objecttolerance="10"
     gridtolerance="10"
     guidetolerance="10"
     inkscape:pageopacity="0"
     inkscape:pageshadow="2"
     inkscape:window-width="640"
     inkscape:window-height="480"
     id="namedview26"
     showgrid="false"
     inkscape:zoom="6.5555556"
     inkscape:cx="18"
     inkscape:cy="17.035186"
     inkscape:window-x="0"
     inkscape:window-y="0"
     inkscape:window-maximized="0"
     inkscape:current-layer="svg2" />
  <path
     d="m 6,19.003678 c -1.105,0 -2,-0.895 -2,-2 L 4,2.0036778 c 0,-1.10500001 0.895,-1 2,-1 1.105,0 2,-0.10500001 2,1 0,0 -0.606,6.424 0,11.9970002 0.54,4.974 4,6.003 4,6.003 0,1.105 -4.895,-1 -6,-1 z m 14,4.999 c -1.105,0 -2,-0.895 -2,-2 L 18,1.0026778 c 0,-1.10500001 0.895,-1.00000001 2,-1.00000001 1.105,0 2,-0.105 2,1.00000001 0,0 -0.446,5.108 -0.125,9.2970002 0.32,4.187 0.125,11.703 0.125,11.703 0,1.104 -0.895,2 -2,2 z"
     id="path4"
     inkscape:connector-curvature="0"
     style="fill:#7a5c44" />
  <path
     d="m 36,2.0036778 -36,4 0,-4 36,-2.00000001 z"
     id="path6"
     inkscape:connector-curvature="0"
     style="fill:#662113" />
  <path
     d="m 22.644,16.409678 c -0.633,1.126 -1.363,1.809 -2.16,2.193 -0.402,0.041 -1.132,-0.085 -1.417,-1.443 -0.332,-1.587 -0.668,-3.833 -0.668,-6.594 0,-4.1440002 0.601,-8.7420002 0.601,-8.7420002 0,-0.92900001 1.412,-0.93600001 2.086,-0.99100001 -0.156,-0.83200000082 -1.749,-0.83 -3.684,-0.83 -1.453,0 -2.256,1.07400001 -2.402,2.30100001 -0.147,1.228 -0.789,6.347 -0.744,10.0000002 0.024,1.984 0.154,4.161 0.315,6.016 -0.792,-0.201 -1.585,-0.393 -2.364,-0.491 -2.807,-0.356 -6.505,-0.535 -7.129,-5.881 C 4.584,7.7156778 5,2.8236778 5,2.8236778 c 0,-0.929 1.412,-1.158 2.086,-1.213 C 6.93,0.77867779 5.408,0.69967779 3.476,0.82767779 2.026,0.92367779 1.235,1.6716778 1,3.3036778 c -0.378,2.629 -0.422,8.6880002 -0.2,12.8760002 0.124,2.338 0.49,10.76 4.099,14.035 2.108,1.912 5.688,3.042 10.101,2.789 4.185,-0.24 7.623,-1.796 9.548,-3.413 3.342,-2.807 4.09,-4.837 4.229,-7.035 0.223,-3.552 -4.757,-8.593 -6.133,-6.146 z"
     id="path8"
     inkscape:connector-curvature="0"
     style="fill:#a78e81" />
  <path
     d="m 35.025,20.674678 c -2.101,3.201 -6.277,4.173 -10.759,1.232 -4.482,-2.941 -5.253,-7.159 -3.152,-10.36 2.101,-3.2010002 7.488,-2.5840002 10.384,-0.624 2.896,1.96 5.628,6.551 3.527,9.752 z"
     id="path10"
     inkscape:connector-curvature="0"
     style="fill:#a78e81" />
  <path
     d="m 33.271,21.181678 c -1.5,2.287 -5.164,2.984 -9.005,0.464 -3.841,-2.52 -4.419,-6.001 -2.918,-8.288 1.5,-2.287 4.294,-1.921 8.135,0.6 3.841,2.521 5.288,4.938 3.788,7.224 z"
     id="path12"
     inkscape:connector-curvature="0"
     style="fill:#e2d2c7" />
  <path
     d="m 20.565,12.567678 c -0.499,1.126 -0.677,2.336 -0.491,3.55 1.498,0.439 3.637,0.97 4.65,0.759 1.646,-0.342 2.198,-1.817 1.956,-2.981 -0.335,-1.616 -3.191,-2.544 -6.115,-1.328 z"
     id="path14"
     inkscape:connector-curvature="0"
     style="fill:#292f33" />
  <circle
     cx="23.389"
     cy="14.579678"
     r="1.188"
     id="circle16"
     style="fill:#f5f8fa" />
  <path
     d="m 34.307,21.584678 c -0.834,0.906 -1.873,1.551 -3.061,1.864 -0.999,-1.199 -2.337,-2.951 -2.548,-3.964 -0.342,-1.646 0.792,-2.739 1.956,-2.981 1.617,-0.335 3.605,1.915 3.653,5.081 z"
     id="path18"
     inkscape:connector-curvature="0"
     style="fill:#292f33" />
  <circle
     cx="31.337999"
     cy="19.795677"
     r="1.188"
     id="circle20"
     style="fill:#f5f8fa" />
  <path
     d="m 28.047,20.478678 c -0.72,1.098 -2.194,1.403 -3.291,0.683 -1.098,-0.72 -1.403,-2.194 -0.683,-3.291 0.72,-1.098 1.542,-0.41 2.639,0.31 1.097,0.72 2.055,1.2 1.335,2.298 z"
     id="path22"
     inkscape:connector-curvature="0"
     style="fill:#292f33" />
  <path
     d="m 27.979,23.125678 c -0.024,0 -0.049,-0.002 -0.073,-0.005 -4.479,-0.654 -6.297,-4.07 -6.372,-4.216 -0.126,-0.244 -0.031,-0.545 0.214,-0.672 0.246,-0.13 0.546,-0.031 0.674,0.211 0.017,0.031 1.673,3.109 5.629,3.687 0.273,0.04 0.462,0.294 0.423,0.567 -0.037,0.249 -0.25,0.428 -0.495,0.428 z"
     id="path24"
     inkscape:connector-curvature="0"
     style="fill:#292f33" />
</svg>
