<?xml version="1.0" encoding="UTF-8" standalone="no"?>
<svg
   xmlns:dc="http://purl.org/dc/elements/1.1/"
   xmlns:cc="http://creativecommons.org/ns#"
   xmlns:rdf="http://www.w3.org/1999/02/22-rdf-syntax-ns#"
   xmlns:svg="http://www.w3.org/2000/svg"
   xmlns="http://www.w3.org/2000/svg"
   xmlns:sodipodi="http://sodipodi.sourceforge.net/DTD/sodipodi-0.dtd"
   xmlns:inkscape="http://www.inkscape.org/namespaces/inkscape"
   viewBox="0 0 35.662998 35.827129"
   id="svg2"
   version="1.1"
   inkscape:version="0.91 r13725"
   sodipodi:docname="1f9a8.svg"
   width="35.662998"
   height="35.827129">
  <metadata
     id="metadata18">
    <rdf:RDF>
      <cc:Work
         rdf:about="">
        <dc:format>image/svg+xml</dc:format>
        <dc:type
           rdf:resource="http://purl.org/dc/dcmitype/StillImage" />
      </cc:Work>
    </rdf:RDF>
  </metadata>
  <defs
     id="defs16" />
  <sodipodi:namedview
     pagecolor="#ffffff"
     bordercolor="#666666"
     borderopacity="1"
     objecttolerance="10"
     gridtolerance="10"
     guidetolerance="10"
     inkscape:pageopacity="0"
     inkscape:pageshadow="2"
     inkscape:window-width="640"
     inkscape:window-height="480"
     id="namedview14"
     showgrid="false"
     inkscape:zoom="6.5555556"
     inkscape:cx="17.787"
     inkscape:cy="17.950736"
     inkscape:window-x="0"
     inkscape:window-y="0"
     inkscape:window-maximized="0"
     inkscape:current-layer="svg2" />
  <path
     d="m 35.663,23.448394 c 0,-3.299 -1.021,-5.408 -4.901,-9.145 -2.746,-2.645 -2.088,-5.8069997 -0.237,-5.3649997 1.851,0.442 2.229,2.2929997 2.229,2.2929997 0,0 1.133,-1.4479997 -0.378,-2.9369997 1.096,0.362 1.73,1.158 2.005,2.2709997 1.431,-1.8169997 2.426,-6.1249997 -1.376,-8.9399997 -3.523,-2.60899998 -9.193,-2.08099998 -12.303,1.612 -3.516,4.175 -1.506,8.3459997 1.266,10.6719997 1.676,1.406 3.089,2.617 3.878,3.925 -3.408,-0.743 -7.49,0.538 -9.063,1.167 -1.629,0.652 -2.544,-0.231 -2.863,-0.324 1.077,-2.555 -2.966,-2.347 -2.997,-0.726 -0.39,-0.05 -0.802,-0.07 -1.22,-0.071 -0.023,-1.44 -2.206,-0.909 -2.111,0.295 -0.223,0.066 -0.447,0.123 -0.669,0.216 -3.235,1.355 -2.583,3.237 -4.578,4.597 -1.179,0.803 -2.345,0.388 -2.345,2.18 0,0.985 1.584,1.759 3.171,1.835 3.058,0.146 4.583,-0.806 5.801,-0.48 3.326,0.89 4.07,4.401 4.498,6.752 0.387,2.13 0.339,2.597 1.317,2.542 0.978,-0.054 3,0.168 3,-2.832 1.704,-0.273 3.974,0.717 7,0.387 0.422,-0.046 0.697,2.074 1.272,2.339 0.515,0.238 2.15,0.147 2.931,-0.634 0.569,-0.569 0.59,-1.485 0.595,-2.466 4.87,-2.039 6.078,-6.188 6.078,-9.163 z"
     id="path4"
     inkscape:connector-curvature="0"
     style="fill:#292f33" />
  <g
     id="g6"
     style="fill:#e1e8ed"
     transform="translate(-0.213,-0.12360568)">
    <circle
       cx="8.1700001"
       cy="21.424"
       r="1"
       id="circle8" />
    <path
       d="m 4.951,21.424 c 0.413,-1.834 1.85,-3.156 4.073,-3.374 1.541,-0.151 2.111,0.026 2.111,0.026 0,0 -0.692,1.065 -1.502,1.285 -1.134,0.31 -2.783,-0.18 -4.682,2.063 z m 10.629,-1.99 c 2.747,1.123 4.557,4.732 7.591,6.159 6.083,2.862 9.112,-0.932 9.826,-3.385 0.853,-2.932 -1.514,-6.22 -4.541,-9.067 C 24.861,9.76 25.702,5.273 27.658,3.685 29.557,2.144 31.888,1.6 34.78,3.321 32.365,0.768 29.668,0.725 27.246,1.731 24.824,2.737 22.21,5.876 23.641,9.713 c 1.294,3.468 5.367,5.672 6.33,8.397 0.492,1.393 -0.282,4.22 -2.835,4.566 -4.223,0.572 -6.579,-2.725 -11.556,-3.242 z"
       id="path10"
       inkscape:connector-curvature="0" />
    <path
       d="m 17.117,19.373 c 0,0 2.972,-0.699 5.835,-0.534 2.862,0.165 4.156,0.534 4.156,0.534 0,0 0.734,-1.84 -2.394,-4.569 -3.557,-3.103 -5.712,-5.296 -4.483,-9.159 1.085,-3.41 6.272,-6.86 11.46,-4.779 -5.463,-1.2 -8.463,2.02 -9.564,3.974 -1.101,1.954 -1.183,4.761 1.624,7.872 2.807,3.111 5.367,4.761 4.183,6.853 -0.401,0.709 -2.175,1.472 -4.679,0.816 -1.882,-0.491 -3.992,-1.228 -6.138,-1.008 z"
       id="path12"
       inkscape:connector-curvature="0" />
  </g>
</svg>
