<?xml version="1.0" encoding="UTF-8" standalone="no"?>
<svg
   xmlns:dc="http://purl.org/dc/elements/1.1/"
   xmlns:cc="http://creativecommons.org/ns#"
   xmlns:rdf="http://www.w3.org/1999/02/22-rdf-syntax-ns#"
   xmlns:svg="http://www.w3.org/2000/svg"
   xmlns="http://www.w3.org/2000/svg"
   xmlns:sodipodi="http://sodipodi.sourceforge.net/DTD/sodipodi-0.dtd"
   xmlns:inkscape="http://www.inkscape.org/namespaces/inkscape"
   viewBox="0 0 35.367943 26.100117"
   id="svg2"
   version="1.1"
   inkscape:version="0.91 r13725"
   sodipodi:docname="1f9b6-1f3ff.svg"
   width="35.367943"
   height="26.100117">
  <metadata
     id="metadata12">
    <rdf:RDF>
      <cc:Work
         rdf:about="">
        <dc:format>image/svg+xml</dc:format>
        <dc:type
           rdf:resource="http://purl.org/dc/dcmitype/StillImage" />
      </cc:Work>
    </rdf:RDF>
  </metadata>
  <defs
     id="defs10" />
  <sodipodi:namedview
     pagecolor="#ffffff"
     bordercolor="#666666"
     borderopacity="1"
     objecttolerance="10"
     gridtolerance="10"
     guidetolerance="10"
     inkscape:pageopacity="0"
     inkscape:pageshadow="2"
     inkscape:window-width="640"
     inkscape:window-height="480"
     id="namedview8"
     showgrid="false"
     inkscape:zoom="6.5555556"
     inkscape:cx="17.682944"
     inkscape:cy="16.014437"
     inkscape:window-x="0"
     inkscape:window-y="0"
     inkscape:window-maximized="0"
     inkscape:current-layer="svg2" />
  <path
     d="m 34.306944,3.0946806 c 0.322,-2.49499996 -10.793,-4.379 -10.996,-2.002 -0.203,2.377 -0.247,4.06 -1.02,6.958 -1.25,4.6850004 -6.654,7.0350004 -12.025,7.0350004 l -1.6880001,0 c -0.653,0 -1.207,0.426 -1.411,1.012 -1.024,0 -1.646,0.58 -1.646,1.262 -0.531,0 -1.713,0.508 -1.713,1.725 0,0 -2.5,-0.106 -2.5,2.5 l 0.002,0.015 c -2.14499998,0.606 -1.52999998,4.091 0.93,4.419 2.334,0.311 2.428,-0.369 4.428,-0.369 1.968,0 2.255,0.435 4.6400001,0.435 4.913,0 4.79,-0.968 9.447,-1.681 5.138,-0.787 6.406,1.124 9.406,1.124 3,0 5.207,-2.339 5.207,-5.412 0,-5 -2.059,-5.03 -2.059,-9.03 0,-4.0000004 0.676,-5.4970004 0.998,-7.9910004 z"
     id="path4"
     inkscape:connector-curvature="0"
     style="fill:#7c533e" />
  <path
     d="m 27.576944,15.162681 c -0.262,0 -0.481,-0.202 -0.499,-0.467 -0.019,-0.275 0.19,-0.514 0.466,-0.532 0.991,-0.066 1.563,-0.676 1.869,-1.177 0.514,-0.842 0.655,-2.045 0.329,-2.799 -0.109,-0.2530004 0.007,-0.5480004 0.261,-0.6580004 0.252,-0.108 0.547,0.007 0.657,0.26 0.458,1.0590004 0.296,2.5870004 -0.394,3.7180004 -0.605,0.992 -1.549,1.579 -2.656,1.653 -0.011,0.002 -0.022,0.002 -0.033,0.002 z m -21.1280001,4.923 -2.697,0 c -0.825,0 -1.927,0.476 -1.927,1.301 0,0.005 0.627,-0.249 1.886,-0.249 l 2.738,10e-4 c 0.291,0 0.526,-0.236 0.526,-0.526 0,-0.291 -0.235,-0.527 -0.526,-0.527 z m 0.897,-1.839 -1.805,0 c -0.544,0 -1.006,0.352 -1.18,0.839 l 2.985,0 c 0.231,0 0.419,-0.189 0.419,-0.419 0.001,-0.231 -0.188,-0.42 -0.419,-0.42 z m 0.884,-1.445 -1.414,0 c -0.362,0 -0.669,0.234 -0.785,0.558 l 2.199,0 c 0.153,0 0.279,-0.126 0.279,-0.279 0,-0.153 -0.126,-0.279 -0.279,-0.279 z m 0.732,-1.034 -0.797,0 c -0.214,0 -0.396,0.139 -0.465,0.33 l 1.262,0 c 0.091,0 0.165,-0.074 0.165,-0.165 0,-0.091 -0.074,-0.165 -0.165,-0.165 z"
     id="path6"
     inkscape:connector-curvature="0"
     style="fill:#583529" />
</svg>
