<?xml version="1.0" encoding="UTF-8" standalone="no"?>
<svg
   xmlns:dc="http://purl.org/dc/elements/1.1/"
   xmlns:cc="http://creativecommons.org/ns#"
   xmlns:rdf="http://www.w3.org/1999/02/22-rdf-syntax-ns#"
   xmlns:svg="http://www.w3.org/2000/svg"
   xmlns="http://www.w3.org/2000/svg"
   xmlns:sodipodi="http://sodipodi.sourceforge.net/DTD/sodipodi-0.dtd"
   xmlns:inkscape="http://www.inkscape.org/namespaces/inkscape"
   viewBox="0 0 33.977001 35.810001"
   id="svg2"
   version="1.1"
   inkscape:version="0.91 r13725"
   sodipodi:docname="1f9ba.svg"
   width="33.977001"
   height="35.810001">
  <metadata
     id="metadata18">
    <rdf:RDF>
      <cc:Work
         rdf:about="">
        <dc:format>image/svg+xml</dc:format>
        <dc:type
           rdf:resource="http://purl.org/dc/dcmitype/StillImage" />
      </cc:Work>
    </rdf:RDF>
  </metadata>
  <defs
     id="defs16" />
  <sodipodi:namedview
     pagecolor="#ffffff"
     bordercolor="#666666"
     borderopacity="1"
     objecttolerance="10"
     gridtolerance="10"
     guidetolerance="10"
     inkscape:pageopacity="0"
     inkscape:pageshadow="2"
     inkscape:window-width="640"
     inkscape:window-height="480"
     id="namedview14"
     showgrid="false"
     inkscape:zoom="6.5555556"
     inkscape:cx="17"
     inkscape:cy="17.81"
     inkscape:window-x="0"
     inkscape:window-y="0"
     inkscape:window-maximized="0"
     inkscape:current-layer="svg2" />
  <path
     d="M 16.988,2.184 C 14,2.184 11.679,1.092 10.618,0 l 0,15.292 12.741,0 0,-15.292 C 22.297,1.092 20,2.184 16.988,2.184 Z"
     id="path4"
     inkscape:connector-curvature="0"
     style="fill:#994308" />
  <path
     d="m 27.909,7.958 0,-4.79 c 0,-1.083 -0.674,-2.026 -1.635,-2.289 L 23.055,0 16.988,14.589 10.921,0 7.702,0.879 C 6.741,1.142 6.067,2.086 6.067,3.168 l 0,4.789 c 0,3.663 -2.716,6.632 -6.067,6.632 l 0,19.036 c 0,1.206 0.951,2.185 2.123,2.185 l 11.831,0 c 1.675,0 3.034,-1.485 3.034,-3.316 0,1.831 1.358,3.316 3.034,3.316 l 11.831,0 c 1.173,0 2.124,-0.978 2.124,-2.185 l 0,-19.036 c -3.352,0 -6.068,-2.969 -6.068,-6.631 z"
     id="path6"
     inkscape:connector-curvature="0"
     style="fill:#eb7421" />
  <path
     d="m 0,29 16.988,0 0,3 L 0,32 Z m 33.976,3 -16.988,0 0,-3 16.988,0 z M 0,22 l 16.988,0 0,3 L 0,25 Z m 33.976,3 -16.988,0 0,-3 16.988,0 z"
     id="path8"
     inkscape:connector-curvature="0"
     style="fill:#fcfb65" />
  <path
     d="M 11,23 11,0.19 10.921,0 8,0.798 8,23 Z M 26,23 26,0.805 23.055,0 23,0.133 23,23 Z"
     id="path10"
     inkscape:connector-curvature="0"
     style="fill:#fcfb65" />
  <path
     d="m 15.926,11 0,23.995 c 0.645,-0.608 1.062,-1.497 1.062,-2.501 0,0.979 0.395,1.849 1.012,2.456 L 18,11 15.926,11 Z"
     id="path12"
     inkscape:connector-curvature="0"
     style="fill:#994308" />
</svg>
