<?xml version="1.0" encoding="UTF-8" standalone="no"?>
<svg
   xmlns:dc="http://purl.org/dc/elements/1.1/"
   xmlns:cc="http://creativecommons.org/ns#"
   xmlns:rdf="http://www.w3.org/1999/02/22-rdf-syntax-ns#"
   xmlns:svg="http://www.w3.org/2000/svg"
   xmlns="http://www.w3.org/2000/svg"
   xmlns:sodipodi="http://sodipodi.sourceforge.net/DTD/sodipodi-0.dtd"
   xmlns:inkscape="http://www.inkscape.org/namespaces/inkscape"
   viewBox="0 0 34 32.787895"
   id="svg2"
   version="1.1"
   inkscape:version="0.91 r13725"
   sodipodi:docname="1f9b8-1f3fb.svg"
   width="34"
   height="32.787895">
  <metadata
     id="metadata32">
    <rdf:RDF>
      <cc:Work
         rdf:about="">
        <dc:format>image/svg+xml</dc:format>
        <dc:type
           rdf:resource="http://purl.org/dc/dcmitype/StillImage" />
      </cc:Work>
    </rdf:RDF>
  </metadata>
  <defs
     id="defs30" />
  <sodipodi:namedview
     pagecolor="#ffffff"
     bordercolor="#666666"
     borderopacity="1"
     objecttolerance="10"
     gridtolerance="10"
     guidetolerance="10"
     inkscape:pageopacity="0"
     inkscape:pageshadow="2"
     inkscape:window-width="640"
     inkscape:window-height="480"
     id="namedview28"
     showgrid="false"
     inkscape:zoom="6.5555556"
     inkscape:cx="17"
     inkscape:cy="18"
     inkscape:window-x="0"
     inkscape:window-y="0"
     inkscape:window-maximized="0"
     inkscape:current-layer="svg2" />
  <path
     d="m 7.115,13.775896 c 0,2.848 2.876,7.967 9.795,7.967 6.919,0 9.665,-4.837 9.665,-9.055 0,-1.127 -4.043,-3.61 -9.575,-3.61 -5.532,0 -9.885,2.625 -9.885,4.698 z"
     id="path4"
     inkscape:connector-curvature="0"
     style="fill:#292f33" />
  <path
     d="m 28.627,25.137896 c -3,-1.999 -11.627,2.65 -11.627,2.65 0,0 -8.627,-4.649 -11.627,-2.65 -3,2 -5.373,7.65 -5.373,7.65 l 34,0 c 0,0 -2.373,-5.65 -5.373,-7.65 z"
     id="path6"
     inkscape:connector-curvature="0"
     style="fill:#a0041e" />
  <path
     d="m 27,25.787896 -20,0 c -3,0 -4,7 -4,7 l 28,0 c 0,0 -1,-7 -4,-7 z"
     id="path8"
     inkscape:connector-curvature="0"
     style="fill:#55acee" />
  <path
     d="m 13.269,26.828896 c 1.466,1.065 2.964,0.98 3.672,0.98 0.708,0 2.194,0.085 3.66,-0.98 l 0,-5.664 -7.332,0 0,5.664 z"
     id="path10"
     inkscape:connector-curvature="0"
     style="fill:#f7dece" />
  <path
     d="m 13.264,21.966896 c 1.022,1.155 2.29,1.468 3.668,1.468 1.379,0 2.647,-0.312 3.67,-1.468 l 0,-2.936 -7.338,0 0,2.936 z"
     id="path12"
     inkscape:connector-curvature="0"
     style="fill:#eec2ad" />
  <path
     d="m 8.675,12.505896 c 0,5.833 3.676,10.285 8.211,10.285 4.533,0 8.209,-4.452 8.209,-10.285 0,-5.834 -3.676,-10.563 -8.209,-10.563 -4.534,-10e-4 -8.211,4.729 -8.211,10.563"
     id="path14"
     inkscape:connector-curvature="0"
     style="fill:#f7dece" />
  <path
     d="m 16.887,20.330896 c -1.606,0 -2.447,-0.794 -2.537,-0.885 -0.268,-0.267 -0.268,-0.7 0,-0.967 0.266,-0.265 0.692,-0.267 0.961,-0.007 0.035,0.032 0.551,0.491 1.576,0.491 1.038,0 1.555,-0.473 1.576,-0.492 0.273,-0.256 0.703,-0.248 0.963,0.02 0.26,0.269 0.26,0.691 -0.004,0.955 -0.09,0.091 -0.93,0.885 -2.535,0.885"
     id="path16"
     inkscape:connector-curvature="0"
     style="fill:#df1f32" />
  <path
     d="m 17.777,17.287896 -1.69,0 c -0.233,0 -0.423,-0.19 -0.423,-0.423 l 0,-0.153 c 0,-0.233 0.189,-0.424 0.423,-0.424 l 1.69,0 c 0.233,0 0.424,0.19 0.424,0.424 l 0,0.153 c 0,0.233 -0.19,0.423 -0.424,0.423"
     id="path18"
     inkscape:connector-curvature="0"
     style="fill:#c1694f" />
  <path
     d="m 12.556,2.717896 c 0,0 -2.556,-1.92999996 -5.556,0.07 -3,2 -1,6 -1,6 0,0 -2,1 -2,3 0,2 2,3 2,3 0,0 -1,1 -1,2 0,1 2,2.001 2,3.001 0,1 -2,2 -2,2 0,0 4,0 4,-2 0,-2 -2,-8.001 4,-12.001 0,0 3,1 5,1 2,0 7,1 7,4 l 0,7.001 c 0,1 2,2 3,2 0,0 -1.077,-0.962 -1.077,-1.962 0,-1 2.482,-2.962 2.482,-4.962 0,-2 -1.405,-3.077 -1.405,-3.077 0,0 2,-3 1,-5 -1,-2 -3.557,-2.372 -3.557,-2.372 0,0 -0.048,-3.136 -3.048,-4.13599996 -3,-1 -5.877,1.00099996 -5.877,1.00099996 0,0 -1.524,-1.30599996 -2.786,-0.78399996 C 12.425,1.037896 12.556,2.717896 12.556,2.717896 Z"
     id="path20"
     inkscape:connector-curvature="0"
     style="fill:#292f33" />
  <path
     d="m 23.523,9.787896 c -2.796,0 -4.66,0.857 -6.523,0.857 -1.863,0 -3.728,-0.857 -6.523,-0.857 -2.796,0 -0.932,4.903 0,5.76 0.932,0.857 4.66,-0.857 6.523,-0.857 1.863,0 5.591,1.714 6.523,0.857 0.932,-0.857 2.796,-5.76 0,-5.76 z"
     id="path22"
     inkscape:connector-curvature="0"
     style="fill:#226699" />
  <path
     d="m 13.5,14.056896 c -0.465,0 -0.846,-0.381 -0.846,-0.847 l 0,-0.845 c 0,-0.465 0.381,-0.846 0.846,-0.846 0.466,0 0.847,0.381 0.847,0.846 l 0,0.845 c -10e-4,0.466 -0.382,0.847 -0.847,0.847 m 7,0 c -0.465,0 -0.846,-0.381 -0.846,-0.847 l 0,-0.845 c 0,-0.465 0.381,-0.846 0.846,-0.846 0.465,0 0.846,0.381 0.846,0.846 l 0,0.845 c 0,0.466 -0.381,0.847 -0.846,0.847"
     id="path24"
     inkscape:connector-curvature="0"
     style="fill:#88c9f9" />
  <path
     d="m 23.056,32.787896 c -1.211,-1.194 -3.466,-2 -6.056,-2 -2.59,0 -4.845,0.806 -6.056,2 l 12.112,0 z m -6.056,-5 c 0,0 -5,0 -7,1 0,0 -1,-3 -3,-3 -2,0 -4,1.683 -4,1.683 0,0 1.124,-2.118 2.932,-2.975 1.568,-0.743 3.068,0.021 3.068,0.021 0,0 0.708,-0.768 1.708,-0.768 1.066,0 2.095,0.094 2.667,0.914 0.719,1.031 2.625,3.125 3.625,3.125 z m 0,0 c 0,0 5,0 7,1 0,0 1,-3 3,-3 2,0 4,1.683 4,1.683 0,0 -1.124,-2.118 -2.932,-2.975 -1.568,-0.743 -3.068,0.021 -3.068,0.021 0,0 -0.708,-0.768 -1.708,-0.768 -1.066,0 -2.095,0.094 -2.667,0.914 -0.719,1.031 -2.625,3.125 -3.625,3.125 z"
     id="path26"
     inkscape:connector-curvature="0"
     style="fill:#dd2e44" />
</svg>
