<?xml version="1.0" encoding="UTF-8" standalone="no"?>
<svg
   xmlns:dc="http://purl.org/dc/elements/1.1/"
   xmlns:cc="http://creativecommons.org/ns#"
   xmlns:rdf="http://www.w3.org/1999/02/22-rdf-syntax-ns#"
   xmlns:svg="http://www.w3.org/2000/svg"
   xmlns="http://www.w3.org/2000/svg"
   xmlns:sodipodi="http://sodipodi.sourceforge.net/DTD/sodipodi-0.dtd"
   xmlns:inkscape="http://www.inkscape.org/namespaces/inkscape"
   viewBox="0 0 35.588131 35.817848"
   id="svg2"
   version="1.1"
   inkscape:version="0.91 r13725"
   sodipodi:docname="1f9b4.svg"
   width="35.588131"
   height="35.817848">
  <metadata
     id="metadata14">
    <rdf:RDF>
      <cc:Work
         rdf:about="">
        <dc:format>image/svg+xml</dc:format>
        <dc:type
           rdf:resource="http://purl.org/dc/dcmitype/StillImage" />
      </cc:Work>
    </rdf:RDF>
  </metadata>
  <defs
     id="defs12" />
  <sodipodi:namedview
     pagecolor="#ffffff"
     bordercolor="#666666"
     borderopacity="1"
     objecttolerance="10"
     gridtolerance="10"
     guidetolerance="10"
     inkscape:pageopacity="0"
     inkscape:pageshadow="2"
     inkscape:window-width="640"
     inkscape:window-height="480"
     id="namedview10"
     showgrid="false"
     inkscape:zoom="6.5555556"
     inkscape:cx="17.885724"
     inkscape:cy="17.892722"
     inkscape:window-x="0"
     inkscape:window-y="0"
     inkscape:window-maximized="0"
     inkscape:current-layer="svg2" />
  <path
     d="m 34.230724,24.540124 c -1.582,-0.977 -4.292,0.715 -5.675,-0.668 -0.877,-0.877 -7.984,-8.516 -11.111,-11.493 -3.127,-2.9769999 -6.622,-5.6539999 -7.439,-6.3889999 -0.4770002,-0.429 1.076,-3.55 -0.2380002,-4.864 -1.394,-1.39300001 -3.316,-1.54900001 -4.709,-0.15600001 -0.856,0.85500001 -0.461,2.28500001 -1.062,2.68300001 -0.601,0.398 -2.212,0.59 -3.06600005,1.445 -1.393,1.392 -1.191,3.683 0.39600005,4.85 1.621,1.1919999 4.053,-0.095 5.007,0.1909999 1.301,0.39 4.7340002,4.223 9.3470002,8.822 4.303,4.29 7.882,9.171 8.25,9.585 0.763,0.858 -1.478,3.767 0.668,6.152 1.318,1.464 3.71,1.489 5.103,0.095 0.856,-0.854 0.806,-3.721 1.574,-4.292 0.768,-0.571 2.53,-0.051 3.386,-0.906 1.391,-1.392 1.19,-4.053 -0.431,-5.055 z"
     id="path4"
     inkscape:connector-curvature="0"
     style="fill:#ffe8b6" />
  <path
     d="m 4.9987238,2.9381241 c 0.095,-1.145 1.431,-2.71800001 2.909,-2.57500001 1.478,0.143 2.003,1.66900001 1.86,2.48000001 -0.144,0.81 -0.382,1.573 -0.478,2.193 -0.095,0.62 -0.143,1.097 1.0970002,2.003 1.24,0.906 11.397,10.1569999 13.734,12.9709999 2.337,2.814 3.72,4.578 4.673,4.816 0.954,0.238 1.812,0.143 2.718,0 0.847,-0.134 2.847,-0.575 3.729,0.885 -0.227,-0.475 -0.557,-0.891 -1.01,-1.171 -1.582,-0.977 -4.292,0.715 -5.675,-0.668 -0.877,-0.877 -7.984,-8.516 -11.111,-11.493 -3.127,-2.9769999 -6.622,-5.6549999 -7.439,-6.3899999 -0.4770002,-0.429 1.076,-3.55 -0.2380002,-4.864 -1.394,-1.39200001 -3.316,-1.54800001 -4.709,-0.15500001 -0.856,0.85500001 -0.461,2.28500001 -1.062,2.68300001 -0.14,0.093 -0.34,0.175 -0.568,0.257 0.953,-0.055 1.494,-0.06 1.57,-0.972 z"
     id="path6"
     inkscape:connector-curvature="0"
     style="fill:#f2c994" />
  <path
     d="m 35.422724,27.878124 c -0.143,1.24 -2.48,2.146 -3.958,1.669 -0.873,-0.282 -1.717,-0.143 -1.621,0.763 0.095,0.906 0.238,2.241 -0.286,3.29 -0.477,0.954 -2.48,1.431 -3.767,0.525 -1.186,-0.835 -1.383,-2.957 -0.858,-3.958 0.525,-1.001 0.572,-1.669 -0.668,-3.195 -0.628,-0.773 -4.109,-4.765 -8.011,-8.87 -3.801,-3.998 -7.5930002,-7.828 -8.3930002,-8.3929999 -1.623,-1.144 -2.466,-0.662 -3.625,-0.381 -1.574,0.381 -3.1,-0.715 -3.38600005,-1.431 -0.255,-0.639 -0.228,-2.13 0.24300005,-2.933 -0.054,0.045 -0.11300005,0.085 -0.16200005,0.134 -1.393,1.392 -1.191,3.683 0.39600005,4.85 1.621,1.1919999 4.053,-0.095 5.007,0.1909999 1.301,0.39 4.7340002,4.223 9.3470002,8.822 4.303,4.29 7.882,9.171 8.25,9.585 0.763,0.858 -1.478,3.767 0.668,6.152 1.318,1.464 3.71,1.489 5.103,0.095 0.855,-0.854 0.806,-3.721 1.574,-4.292 0.767,-0.571 2.53,-0.051 3.386,-0.906 0.558,-0.557 0.848,-1.317 0.906,-2.093 -0.065,0.026 -0.118,0.142 -0.145,0.376 z"
     id="path8"
     inkscape:connector-curvature="0"
     style="fill:#d99e82" />
</svg>
