<?xml version="1.0" encoding="UTF-8" standalone="no"?>
<svg
   xmlns:dc="http://purl.org/dc/elements/1.1/"
   xmlns:cc="http://creativecommons.org/ns#"
   xmlns:rdf="http://www.w3.org/1999/02/22-rdf-syntax-ns#"
   xmlns:svg="http://www.w3.org/2000/svg"
   xmlns="http://www.w3.org/2000/svg"
   xmlns:sodipodi="http://sodipodi.sourceforge.net/DTD/sodipodi-0.dtd"
   xmlns:inkscape="http://www.inkscape.org/namespaces/inkscape"
   viewBox="0 0 35.99601 32.930134"
   id="svg2"
   version="1.1"
   inkscape:version="0.91 r13725"
   sodipodi:docname="1f9b8-1f3fb-200d-2642-fe0f.svg"
   width="35.99601"
   height="32.930134">
  <metadata
     id="metadata34">
    <rdf:RDF>
      <cc:Work
         rdf:about="">
        <dc:format>image/svg+xml</dc:format>
        <dc:type
           rdf:resource="http://purl.org/dc/dcmitype/StillImage" />
      </cc:Work>
    </rdf:RDF>
  </metadata>
  <defs
     id="defs32" />
  <sodipodi:namedview
     pagecolor="#ffffff"
     bordercolor="#666666"
     borderopacity="1"
     objecttolerance="10"
     gridtolerance="10"
     guidetolerance="10"
     inkscape:pageopacity="0"
     inkscape:pageshadow="2"
     inkscape:window-width="640"
     inkscape:window-height="480"
     id="namedview30"
     showgrid="false"
     inkscape:zoom="6.5555556"
     inkscape:cx="18.000004"
     inkscape:cy="18"
     inkscape:window-x="0"
     inkscape:window-y="0"
     inkscape:window-maximized="0"
     inkscape:current-layer="svg2" />
  <path
     d="m 18.000004,32.930132 -17.9999999490741,0 c 0,0 -0.021000000926,-5.918 2.9610000490741,-7.945 3.851,-2.617 15.0389999,2.945 15.0389999,2.945 l 0,5 z"
     id="path4"
     inkscape:connector-curvature="0"
     style="fill:#a0041e" />
  <path
     d="m 17.996004,32.930132 18,0 c 0,0 0.021,-5.918 -2.961,-7.945 -3.852,-2.617 -15.039,2.945 -15.039,2.945 l 0,5 z"
     id="path6"
     inkscape:connector-curvature="0"
     style="fill:#a0041e" />
  <path
     d="m 18.000004,24.930132 0,8 -15.9999999,0 c 0,0 -1.99500005,-4.989 2,-7 2.155,-1.085 4,0 4,0 l 9.9999999,-1 z m 0,0 0,8 16,0 c 0,0 1.995,-4.989 -2,-7 -2.155,-1.085 -4,0 -4,0 l -10,-1 z"
     id="path8"
     inkscape:connector-curvature="0"
     style="fill:#55acee" />
  <path
     d="m 13.640004,25.467132 c 1.744,1.268 2.847,1.963 4.36,1.963 1.512,0 2.615,-0.696 4.359,-1.963 l 0,-4.247 -8.72,0 0,4.247 z"
     id="path10"
     inkscape:connector-curvature="0"
     style="fill:#f7dece" />
  <path
     d="m 13.632004,22.430132 c 0.368,2.027 2.724,2.219 4.364,2.219 1.639,0 4.004,-0.191 4.363,-2.219 l 0,-3.019 -8.728,0 0,3.019 z"
     id="path12"
     inkscape:connector-curvature="0"
     style="fill:#eec2ad" />
  <path
     d="m 11.444004,12.866132 c 0,1.448 -0.734,2.622 -1.6389999,2.622 -0.905,0 -1.639,-1.174 -1.639,-2.622 0,-1.448 0.734,-2.623 1.639,-2.623 0.9049999,-10e-4 1.6389999,1.174 1.6389999,2.623 m 16.389,0 c 0,1.448 -0.733,2.622 -1.639,2.622 -0.905,0 -1.639,-1.174 -1.639,-2.622 0,-1.448 0.733,-2.623 1.639,-2.623 0.906,-10e-4 1.639,1.174 1.639,2.623"
     id="path14"
     inkscape:connector-curvature="0"
     style="fill:#f7dece" />
  <path
     d="m 18.000004,3.9301321 c -5,0 -8,2 -8,5 0,2.9999999 0,8.9999999 2,11.9999999 2,3 4,3 6,3 2,0 4,0 6,-3 2,-3 2,-9 2,-11.9999999 0,-3 -3,-5 -8,-5 z"
     id="path16"
     inkscape:connector-curvature="0"
     style="fill:#f7dece" />
  <path
     d="m 18.821004,0.04813207 c 6.004,0.49 8.356,4.24600003 8.356,7.85100003 0,3.6039999 -0.706,5.0469999 -1.412,3.6039999 -0.706,-1.441 -1.356,-3.3679999 -1.356,-3.3679999 0,0 -4.292,0.485 -5.704,-0.957 0,0 2.118,4.3259999 -2.118,0 0,0 0.706,2.8839999 -3.53,-0.72 0,0 -2.118,1.442 -2.824,5.0459999 -0.196,1.001 -1.4119999,0 -1.4119999,-3.6039999 10e-4,-2.677 0.179,-6.652 4.9079999,-6.17 1.028,-1.63900003 3.018,-1.85100003 5.092,-1.68200003 z"
     id="path18"
     inkscape:connector-curvature="0"
     style="fill:#292f33" />
  <path
     d="m 25.000004,8.9301321 c -3,0 -5,1 -7,1 -2,0 -4,-1 -7,-1 -2.9999999,0 -1,5.7199999 0,6.7199999 1,1 5,-1 7,-1 2,0 6,2 7,1 1,-1 3,-6.7199999 0,-6.7199999 z"
     id="path20"
     inkscape:connector-curvature="0"
     style="fill:#226699" />
  <path
     d="m 14.000004,13.930132 c -0.55,0 -1,-0.45 -1,-1 l 0,-1 c 0,-0.55 0.45,-1 1,-1 0.55,0 1,0.45 1,1 l 0,1 c 0,0.55 -0.45,1 -1,1 m 8,0 c -0.55,0 -1,-0.45 -1,-1 l 0,-1 c 0,-0.55 0.45,-1 1,-1 0.55,0 1,0.45 1,1 l 0,1 c 0,0.55 -0.45,1 -1,1"
     id="path22"
     inkscape:connector-curvature="0"
     style="fill:#88c9f9" />
  <path
     d="m 18.750004,16.680132 -1.5,0 c -0.413,0 -0.75,-0.337 -0.75,-0.75 0,-0.413 0.337,-0.75 0.75,-0.75 l 1.5,0 c 0.413,0 0.75,0.337 0.75,0.75 0,0.413 -0.337,0.75 -0.75,0.75"
     id="path24"
     inkscape:connector-curvature="0"
     style="fill:#c1694f" />
  <path
     d="m 24.056004,32.930132 c -1.211,-1.194 -3.466,-2 -6.056,-2 -2.59,0 -4.845,0.806 -6.056,2 l 12.112,0 z m -10.056,-7.312 c -0.572,-0.82 -1.545,-1.784 -3.014,-1.755 -0.9999999,0.02 -1.8449999,0.614 -1.8449999,0.614 0,0 -1.641,-0.813 -3.594,-0.547 -1.305,0.177 -2.357,0.764 -2.846,1.248 2.83,-1.685 4.757,-0.229 6.065,0.643 1.3079999,0.872 2.2339999,3.109 2.2339999,3.109 2,-1 7,-1 7,-1 l 0,-1 c -1,0 -3.281,-0.281 -4,-1.312 z m 8,0 c 0.572,-0.82 1.545,-1.784 3.014,-1.755 1,0.02 1.845,0.614 1.845,0.614 0,0 1.641,-0.813 3.594,-0.547 1.305,0.177 2.357,0.764 2.846,1.248 -2.83,-1.685 -4.757,-0.229 -6.065,0.643 -1.308,0.872 -2.234,3.109 -2.234,3.109 -2,-1 -7,-1 -7,-1 l 0,-1 c 1,0 3.281,-0.281 4,-1.312 z"
     id="path26"
     inkscape:connector-curvature="0"
     style="fill:#dd2e44" />
  <path
     d="m 18.000004,20.180132 c -2.058,0 -3.594,-0.504 -3.658,-0.525 -0.262,-0.088 -0.403,-0.37 -0.316,-0.632 0.086,-0.262 0.366,-0.407 0.632,-0.317 0.014,0.004 1.455,0.474 3.342,0.474 1.887,0 3.328,-0.47 3.343,-0.475 0.257,-0.087 0.544,0.055 0.632,0.317 0.087,0.262 -0.055,0.544 -0.316,0.632 -0.065,0.022 -1.601,0.526 -3.659,0.526 z"
     id="path28"
     inkscape:connector-curvature="0"
     style="fill:#c1694f" />
</svg>
