<?xml version="1.0" encoding="UTF-8" standalone="no"?>
<svg
   xmlns:dc="http://purl.org/dc/elements/1.1/"
   xmlns:cc="http://creativecommons.org/ns#"
   xmlns:rdf="http://www.w3.org/1999/02/22-rdf-syntax-ns#"
   xmlns:svg="http://www.w3.org/2000/svg"
   xmlns="http://www.w3.org/2000/svg"
   xmlns:sodipodi="http://sodipodi.sourceforge.net/DTD/sodipodi-0.dtd"
   xmlns:inkscape="http://www.inkscape.org/namespaces/inkscape"
   viewBox="0 0 29.628922 28.466022"
   id="svg2"
   version="1.1"
   inkscape:version="0.91 r13725"
   sodipodi:docname="1f9bd.svg"
   width="29.628922"
   height="28.466022">
  <metadata
     id="metadata50">
    <rdf:RDF>
      <cc:Work
         rdf:about="">
        <dc:format>image/svg+xml</dc:format>
        <dc:type
           rdf:resource="http://purl.org/dc/dcmitype/StillImage" />
      </cc:Work>
    </rdf:RDF>
  </metadata>
  <defs
     id="defs48" />
  <sodipodi:namedview
     pagecolor="#ffffff"
     bordercolor="#666666"
     borderopacity="1"
     objecttolerance="10"
     gridtolerance="10"
     guidetolerance="10"
     inkscape:pageopacity="0"
     inkscape:pageshadow="2"
     inkscape:window-width="640"
     inkscape:window-height="480"
     id="namedview46"
     showgrid="false"
     inkscape:zoom="6.5555556"
     inkscape:cx="15.659921"
     inkscape:cy="18"
     inkscape:window-x="0"
     inkscape:window-y="0"
     inkscape:window-maximized="0"
     inkscape:current-layer="svg2" />
  <g
     id="g4"
     style="fill:#dd2e44"
     transform="translate(-2.3400791,-7.5339771)">
    <path
       d="m 11.83,26.822 11.18,0.981 c 0.274,0.024 0.518,-0.18 0.542,-0.454 l 0.003,-0.03 C 23.579,27.045 23.374,26.801 23.1,26.777 L 11.92,25.796 c -0.274,-0.024 -0.518,0.18 -0.542,0.455 l -0.003,0.03 c -0.024,0.273 0.181,0.517 0.455,0.541 z"
       id="path6"
       inkscape:connector-curvature="0" />
    <path
       d="M 23.01,27.803 22.98,27.8 c -0.274,-0.024 -0.478,-0.268 -0.455,-0.542 l 0.452,-5.161 c 0.024,-0.274 0.268,-0.478 0.542,-0.455 l 0.03,0.003 c 0.274,0.024 0.478,0.268 0.455,0.542 l -0.452,5.161 c -0.024,0.274 -0.268,0.479 -0.542,0.455 z m -11.062,-7.809 -0.03,-0.003 c -0.274,-0.024 -0.518,0.181 -0.542,0.454 l -1.048,11.977 c -0.024,0.274 0.181,0.518 0.455,0.542 l 0.03,0.003 c 0.274,0.024 0.518,-0.181 0.542,-0.454 l 1.048,-11.977 c 0.023,-0.274 -0.181,-0.518 -0.455,-0.542 z"
       id="path8"
       inkscape:connector-curvature="0" />
  </g>
  <path
     d="m 19.866921,12.594023 c 1.475,-0.212 2.919,-0.152 2.416,0.56 -0.504,0.713 -1.623,1.963 -3.521,1.759 -1.899,-0.204 0.191,-2.188 1.105,-2.319 z"
     id="path10"
     inkscape:connector-curvature="0"
     style="fill:#292f33" />
  <path
     d="m 18.760921,14.913023 -10.2620001,-0.898 c -1.026,-0.09 -1.026,-0.09 -0.936,-1.116 0.049,-0.564 0.552,-0.986 1.116,-0.936 l 10.2620001,0.898 c 0.564,0.049 0.986,0.552 0.936,1.116 -0.089,1.025 -0.089,1.025 -1.116,0.936 z"
     id="path12"
     inkscape:connector-curvature="0"
     style="fill:#292f33" />
  <path
     d="m 19.304921,15.216023 -11.3180001,-0.99 c -0.274,-0.024 -0.478,-0.268 -0.455,-0.542 l 0.003,-0.03 c 0.024,-0.274 0.268,-0.478 0.542,-0.455 l 11.3180001,0.99 c 0.274,0.024 0.478,0.268 0.455,0.542 l -0.003,0.03 c -0.024,0.274 -0.268,0.479 -0.542,0.455 z"
     id="path14"
     inkscape:connector-curvature="0"
     style="fill:#dd2e44" />
  <path
     d="m 23.733921,1.1200229 -0.898,10.2620001 c -0.09,1.026 -0.09,1.026 -1.116,0.936 -0.564,-0.049 -0.986,-0.552 -0.936,-1.116 l 0.898,-10.26200009 c 0.049,-0.564 0.552,-0.986 1.116,-0.936 1.026,0.09 1.026,0.09 0.936,1.11599999 z"
     id="path16"
     inkscape:connector-curvature="0"
     style="fill:#292f33" />
  <path
     d="m 24.184921,0.63302291 -0.99,11.31800009 c -0.024,0.274 -0.268,0.478 -0.542,0.455 l -0.03,-0.003 c -0.274,-0.024 -0.478,-0.268 -0.455,-0.542 l 0.99,-11.31800009 c 0.024,-0.274 0.268,-0.478 0.542,-0.455 l 0.03,0.003 c 0.274,0.025 0.479,0.268 0.455,0.542 z"
     id="path18"
     inkscape:connector-curvature="0"
     style="fill:#dd2e44" />
  <path
     d="m 20.996921,10.458023 -7.78,-0.6810001 c -0.778,-0.068 -0.778,-0.068 -0.711,-0.836 0.037,-0.423 0.417,-0.738 0.845,-0.7 l 7.78,0.681 c 0.428,0.037 0.748,0.414 0.711,0.836 -0.067,0.7680001 -0.067,0.7680001 -0.845,0.7000001 z"
     id="path20"
     inkscape:connector-curvature="0"
     style="fill:#292f33" />
  <path
     d="m 18.866921,14.143023 c 1.035,0.091 3.079,0.269 3.348,-2.809 0.269,-3.0780001 1.296,-2.9890001 1.026,0.09 -0.27,3.079 -1.966,3.964 -4.464,3.746 -2.052,-0.18 -1.963,-1.206 0.09,-1.027 z m -10.7640001,-0.941 c 2.0530001,0.171 2.4640001,1.255 0.412,1.07 -0.909,-0.082 -0.991,0.305 -1.198,1.095 -0.195,0.743 -0.469,1.858 -0.884,3.418 -0.304,1.146 -1.258,0.734 -1.006,-0.265 0.423,-1.679 0.822,-3.142 1.083,-4.072 0.267,-0.95 0.517,-1.336 1.593,-1.246 z"
     id="path22"
     inkscape:connector-curvature="0"
     style="fill:#dd2e44" />
  <g
     id="g24"
     style="fill:#66757f"
     transform="translate(-2.3400791,-7.5339771)">
    <circle
       cx="23.212999"
       cy="27.243999"
       r="1.545"
       id="circle26" />
    <path
       d="m 30.161,30.661 -6.245,-3.606 3.606,-6.245 -0.892,-0.515 -3.606,6.245 -6.245,-3.605 -0.515,0.892 6.245,3.605 -3.605,6.245 0.892,0.515 3.605,-6.245 6.245,3.606 z"
       id="path28"
       inkscape:connector-curvature="0" />
    <path
       d="m 25.71,34.573 -1.866,-6.965 6.965,-1.866 -0.267,-0.995 -6.965,1.866 -1.866,-6.965 -0.995,0.266 1.866,6.966 -6.965,1.866 0.266,0.995 6.966,-1.866 1.866,6.965 z"
       id="path30"
       inkscape:connector-curvature="0" />
  </g>
  <path
     d="m 20.872921,10.954023 c -4.836,0 -8.756,3.92 -8.756,8.756 0,4.836 3.92,8.756 8.756,8.756 4.836,0 8.756,-3.92 8.756,-8.756 0,-4.836 -3.92,-8.756 -8.756,-8.756 z m 0,15.452 c -3.698,0 -6.696,-2.998 -6.696,-6.696 0,-3.698 2.998,-6.696 6.696,-6.696 3.698,0 6.696,2.998 6.696,6.696 0,3.698 -2.998,6.696 -6.696,6.696 z"
     id="path32"
     inkscape:connector-curvature="0"
     style="fill:#292f33" />
  <path
     d="m 20.872921,11.984023 c -4.267,0 -7.726,3.459 -7.726,7.726 0,4.267 3.459,7.726 7.726,7.726 4.267,0 7.726,-3.459 7.726,-7.726 0,-4.267 -3.459,-7.726 -7.726,-7.726 z m 0,14.422 c -3.698,0 -6.696,-2.998 -6.696,-6.696 0,-3.698 2.998,-6.696 6.696,-6.696 3.698,0 6.696,2.998 6.696,6.696 0,3.698 -2.998,6.696 -6.696,6.696 z m -9.428,-0.446 -2.2300001,-1.288 1.2870001,-2.23 -0.8920001,-0.515 -1.287,2.23 -2.231,-1.288 -0.515,0.892 2.231,1.288 -1.288,2.23 0.892,0.515 1.288,-2.23 2.2300001,1.288 z"
     id="path34"
     inkscape:connector-curvature="0"
     style="fill:#66757f" />
  <path
     d="m 8.5109209,21.255023 c -1.991,0 -3.605,1.614 -3.605,3.605 0,1.991 1.614,3.606 3.605,3.606 1.9910001,0 3.6050001,-1.614 3.6050001,-3.605 0,-1.991 -1.614,-3.606 -3.6050001,-3.606 z m 0,6.181 c -1.422,0 -2.575,-1.153 -2.575,-2.575 0,-1.422 1.153,-2.575 2.575,-2.575 1.422,0 2.5750001,1.153 2.5750001,2.575 10e-4,1.422 -1.1520001,2.575 -2.5750001,2.575 z"
     id="path36"
     inkscape:connector-curvature="0"
     style="fill:#292f33" />
  <path
     d="m 6.2469209,17.512023 -0.029,-0.008 c -0.266,-0.071 -0.541,0.088 -0.612,0.354 l -1.608,5.999 c -0.071,0.266 0.088,0.541 0.354,0.612 l 0.029,0.008 c 0.266,0.071 0.541,-0.088 0.612,-0.354 l 1.608,-5.999 c 0.07,-0.265 -0.089,-0.54 -0.354,-0.612 z"
     id="path38"
     inkscape:connector-curvature="0"
     style="fill:#dd2e44" />
  <path
     d="m 4.3799209,24.478023 -4.00900002,-1.074 c -0.266,-0.071 -0.425,-0.347 -0.354,-0.612 l 0.008,-0.029 c 0.071,-0.266 0.347,-0.425 0.612,-0.354 l 4.00900002,1.074 c 0.266,0.071 0.425,0.347 0.354,0.612 l -0.008,0.029 c -0.07,0.266 -0.346,0.425 -0.612,0.354 z"
     id="path40"
     inkscape:connector-curvature="0"
     style="fill:#66757f" />
  <path
     d="m 26.659921,1.6530229 -3.073,-0.542 c -0.271,-0.048 -0.453,-0.30799999 -0.406,-0.57899999 l 0.005,-0.03 c 0.048,-0.271 0.308,-0.453 0.579,-0.406 l 3.073,0.542 c 0.271,0.048 0.453,0.308 0.406,0.57899999 l -0.005,0.03 c -0.048,0.272 -0.309,0.454 -0.579,0.406 z"
     id="path42"
     inkscape:connector-curvature="0"
     style="fill:#dd2e44" />
  <path
     d="m 27.658921,1.8300229 -2.694,-0.482 c -0.279,-0.049 -0.268,-0.283 -0.219,-0.56199999 0.049,-0.279 0.119,-0.502 0.398,-0.453 l 2.694,0.482 c 0.279,0.049 0.467,0.31799999 0.418,0.59699999 -0.049,0.279 -0.318,0.467 -0.597,0.418 z"
     id="path44"
     inkscape:connector-curvature="0"
     style="fill:#292f33" />
</svg>
