<?xml version="1.0" encoding="UTF-8" standalone="no"?>
<svg
   xmlns:dc="http://purl.org/dc/elements/1.1/"
   xmlns:cc="http://creativecommons.org/ns#"
   xmlns:rdf="http://www.w3.org/1999/02/22-rdf-syntax-ns#"
   xmlns:svg="http://www.w3.org/2000/svg"
   xmlns="http://www.w3.org/2000/svg"
   xmlns:sodipodi="http://sodipodi.sourceforge.net/DTD/sodipodi-0.dtd"
   xmlns:inkscape="http://www.inkscape.org/namespaces/inkscape"
   viewBox="0 0 19.743544 35.751957"
   id="svg2"
   version="1.1"
   inkscape:version="0.91 r13725"
   sodipodi:docname="1f9ce-1f3fc-200d-2642-fe0f.svg"
   width="19.743544"
   height="35.751957">
  <metadata
     id="metadata26">
    <rdf:RDF>
      <cc:Work
         rdf:about="">
        <dc:format>image/svg+xml</dc:format>
        <dc:type
           rdf:resource="http://purl.org/dc/dcmitype/StillImage" />
      </cc:Work>
    </rdf:RDF>
  </metadata>
  <defs
     id="defs24" />
  <sodipodi:namedview
     pagecolor="#ffffff"
     bordercolor="#666666"
     borderopacity="1"
     objecttolerance="10"
     gridtolerance="10"
     guidetolerance="10"
     inkscape:pageopacity="0"
     inkscape:pageshadow="2"
     inkscape:window-width="640"
     inkscape:window-height="480"
     id="namedview22"
     showgrid="false"
     inkscape:zoom="6.5555556"
     inkscape:cx="10.873536"
     inkscape:cy="17.875791"
     inkscape:window-x="0"
     inkscape:window-y="0"
     inkscape:window-maximized="0"
     inkscape:current-layer="svg2" />
  <path
     d="m 13.778536,0.97916627 c -2.182,-0.859 -5.5839999,0.24900003 -5.9789999,2.79900003 -0.393,2.532 0.328,6.5019997 2.5519999,6.2619997 2.332,-0.2519997 4.724,-0.7589997 5.668,-3.1599997 0.944,-2.399 -0.059,-5.042 -2.241,-5.90100003 z"
     id="path4"
     inkscape:connector-curvature="0"
     style="fill:#f3d2a2" />
  <path
     d="m 15.399536,7.4991663 c 3.175,-3.73 -4.474,-3.367 -4.474,-3.367 -1.4479999,0.053 -0.451,2.465 -1.1329999,3.782 -0.467,0.912 1.4989999,1.395 1.4989999,1.395 0,0 0.903,-0.013 0.951,1.0819997 l 0,0.01 c 0.011,0.279 -0.018,0.61 -0.148,1.053 -0.648,2.192 2.297,3.537 2.944,1.34 0.256,-0.869 0.157,-1.634 0.027,-2.34 l -0.012,-0.063 c -0.196,-1.0489997 -0.44,-1.9689997 0.346,-2.8919997 z"
     id="path6"
     inkscape:connector-curvature="0"
     style="fill:#f3d2a2" />
  <path
     d="m 16.271536,1.8591663 c -1.453,-1.70100003 -3.535,-2.60400003 -6.8749999,-1.08300003 -1.361,0.62000003 -1.971,0.39100003 -2.165,0.66300003 -0.93,1.306 0.337,2.753 0.833,2.464 1.572,-0.917 2.9899999,-0.644 3.3519999,0.019 0.362,0.663 0.028,1.854 0.321,1.862 0.792,0.021 0.664,-0.755 0.977,-1.202 0.514,-0.731 1.296,-0.318 1.467,0.496 0.136,0.645 0,1.741 -1.054,1.934 0.717,1.577 2.136,2.058 2.136,2.058 0,0 0.461,0.181 1.25,-1.371 0.789,-1.554 1.201,-4.151 -0.242,-5.84 z"
     id="path8"
     inkscape:connector-curvature="0"
     style="fill:#ffe51e" />
  <path
     d="m 13.539536,32.101166 c -0.937,0.204 -1.397,0.837 -1.522,1.423 -0.126,0.586 0.419,1.633 0.963,1.842 0.544,0.209 5.354,0.548 6.132,-0.078 1.162,-0.934 -4.804,-3.354 -5.573,-3.187 z"
     id="path10"
     inkscape:connector-curvature="0"
     style="fill:#292f33" />
  <path
     d="m 13.797536,31.707166 c -0.521,0.24 -0.593,1.505 0.045,2.283 0.721,0.879 2.524,1.26 3.455,1.51 0.931,0.25 2.442,-10e-4 2.446,-1.322 0.004,-1.115 -1.452,-1.429 -2.145,-1.46 -0.693,-0.031 -1.505,-0.042 -1.868,-0.464 -0.363,-0.422 -1.391,-0.796 -1.933,-0.547 z"
     id="path12"
     inkscape:connector-curvature="0"
     style="fill:#3a4449" />
  <path
     d="m 18.623536,25.976166 c 0.655,2.154 0.529,4.598 -1.058,5.452 -1.52,0.818 -4.71,0.946 -4.71,0.946 0,0 -0.905,0.89 -0.351,2.014 0.315,0.639 0.649,0.921 0.58,1.007 -0.061,0.076 -0.748,0.153 -1.053,0.214 -0.814,0.163 -1.755,0.102 -3.3409999,0.061 -1.586,-0.041 -2.272,0.113 -3.998,0.076 -1.912,-0.041 -3.344,-0.507 -4.29800001,-2.08 -0.814,-1.343 -0.39500000231,-3.338 1.50500001,-4.638 1.546,-1.058 6.469,-2.197 8.3409999,-2.482 1.874,-0.285 7.814,-2.441 8.383,-0.57 z"
     id="path14"
     inkscape:connector-curvature="0"
     style="fill:#4289c1" />
  <path
     d="m 19.250536,25.430166 c -0.057,1.128 0.391,2.499 -0.26,2.27 -2.565,-0.9 -9.1879999,-0.988 -9.1879999,-0.988 -0.568,-2.564 -0.037,-6.416 0.008,-9.956 0.059,-4.645 3.1479999,-7.1919997 5.0819999,-6.61 2.528,0.761 3.689,3.387 4.016,7.511 0.327,4.124 0.398,6.646 0.342,7.773 z"
     id="path16"
     inkscape:connector-curvature="0"
     style="fill:#77b255" />
  <path
     d="m 12.255536,16.080166 c -0.442,2.329 -0.227,6.078 -0.59,6.249 -2.0949999,0.984 -3.8829999,3.239 -5.2589999,3.722 -0.997,0.349 -1.992,0.55 -2.42,0.928 -0.686,0.605 -1.503,1.121 -1.573,1.735 -0.072,0.623 0.645,0.847 1.896,0.323 0.919,-0.385 1.64,-0.333 2.461,-0.928 1.17,-0.847 5.8319999,-1.399 7.5959999,-4.008 0.595,-0.881 1.227,-2.94 2.074,-7.249 -1.091,-0.449 -4.185,-0.772 -4.185,-0.772 z"
     id="path18"
     inkscape:connector-curvature="0"
     style="fill:#f3d2a2" />
  <path
     d="m 4.3025361,32.324166 c 0.718,0.062 6.5909999,0.163 8.1369999,0.081 0,0 0,0.57 -1.505,0.651 -1.5049999,0.081 -4.5159999,-0.407 -6.4689999,-0.244 -0.538,0.045 -1.485,0.121 -1.587,-0.041 -0.117,-0.185 0.924,-0.491 1.424,-0.447 z"
     id="path20"
     inkscape:connector-curvature="0"
     style="fill:#2a6797" />
</svg>
