<?xml version="1.0" encoding="UTF-8" standalone="no"?>
<svg
   xmlns:dc="http://purl.org/dc/elements/1.1/"
   xmlns:cc="http://creativecommons.org/ns#"
   xmlns:rdf="http://www.w3.org/1999/02/22-rdf-syntax-ns#"
   xmlns:svg="http://www.w3.org/2000/svg"
   xmlns="http://www.w3.org/2000/svg"
   xmlns:sodipodi="http://sodipodi.sourceforge.net/DTD/sodipodi-0.dtd"
   xmlns:inkscape="http://www.inkscape.org/namespaces/inkscape"
   viewBox="0 0 34.68787 32.52"
   id="svg2"
   version="1.1"
   inkscape:version="0.91 r13725"
   sodipodi:docname="1f9cf-1f3fd-200d-2642-fe0f.svg"
   width="34.68787"
   height="32.52">
  <metadata
     id="metadata34">
    <rdf:RDF>
      <cc:Work
         rdf:about="">
        <dc:format>image/svg+xml</dc:format>
        <dc:type
           rdf:resource="http://purl.org/dc/dcmitype/StillImage" />
      </cc:Work>
    </rdf:RDF>
  </metadata>
  <defs
     id="defs32" />
  <sodipodi:namedview
     pagecolor="#ffffff"
     bordercolor="#666666"
     borderopacity="1"
     objecttolerance="10"
     gridtolerance="10"
     guidetolerance="10"
     inkscape:pageopacity="0"
     inkscape:pageshadow="2"
     inkscape:window-width="640"
     inkscape:window-height="480"
     id="namedview30"
     showgrid="false"
     inkscape:zoom="6.5555556"
     inkscape:cx="17.68587"
     inkscape:cy="18"
     inkscape:window-x="0"
     inkscape:window-y="0"
     inkscape:window-maximized="0"
     inkscape:current-layer="svg2" />
  <path
     d="m 34.68787,32.52 0,-2 c 0,-3.314 -2.686,-6 -6,-6 l -16,0 c -3.313,0 -6,2.686 -6,6 l 0,2 28,0 z"
     id="path4"
     inkscape:connector-curvature="0"
     style="fill:#4289c1" />
  <path
     d="m 16.32787,24.621 c 0,0.736 1.965,1.963 4.36,1.963 2.395,0 4.359,-1.157 4.359,-1.963 l 0,-3.811 -8.72,0 0,3.811 z"
     id="path6"
     inkscape:connector-curvature="0"
     style="fill:#d4ab88" />
  <path
     d="m 16.31987,22.493 c 1.216,1.374 2.724,1.746 4.364,1.746 1.639,0 3.146,-0.373 4.363,-1.746 l 0,-3.491 -8.728,0 0,3.491 z"
     id="path8"
     inkscape:connector-curvature="0"
     style="fill:#cc9b7a" />
  <path
     d="m 14.13287,12.456 c 0,1.448 -0.734,2.622 -1.639,2.622 -0.905,0 -1.639,-1.174 -1.639,-2.622 0,-1.448 0.734,-2.623 1.639,-2.623 0.905,-10e-4 1.639,1.174 1.639,2.623 m 16.388,0 c 0,1.448 -0.733,2.622 -1.639,2.622 -0.905,0 -1.639,-1.174 -1.639,-2.622 0,-1.448 0.733,-2.623 1.639,-2.623 0.906,-10e-4 1.639,1.174 1.639,2.623"
     id="path10"
     inkscape:connector-curvature="0"
     style="fill:#d4ab88" />
  <path
     d="m 12.16587,13.479 c 0,-5.589 3.816,-10.121 8.522,-10.121 4.707,0 8.523,4.532 8.523,10.121 0,5.589 -3.816,10.121 -8.523,10.121 -4.706,0 -8.522,-4.531 -8.522,-10.121"
     id="path12"
     inkscape:connector-curvature="0"
     style="fill:#d4ab88" />
  <path
     d="m 20.68787,20.322 c -2.754,0 -3.6,-0.705 -3.741,-0.848 -0.256,-0.256 -0.256,-0.671 0,-0.927 0.248,-0.248 0.646,-0.255 0.902,-0.023 0.052,0.037 0.721,0.487 2.839,0.487 2.2,0 2.836,-0.485 2.842,-0.49 0.256,-0.255 0.657,-0.243 0.913,0.015 0.256,0.256 0.242,0.683 -0.014,0.938 -0.141,0.143 -0.987,0.848 -3.741,0.848"
     id="path14"
     inkscape:connector-curvature="0"
     style="fill:#c1694f" />
  <path
     d="m 20.68587,0 c 5.648,0 9.178,4.168 9.178,7.641 0,3.473 -0.706,4.863 -1.412,3.473 l -1.412,-2.778 c 0,0 -4.235,0 -5.647,-1.39 0,0 2.118,4.168 -2.118,0 0,0 0.706,2.779 -3.53,-0.694 0,0 -2.118,1.389 -2.824,4.862 -0.196,0.964 -1.412,0 -1.412,-3.473 C 11.50787,4.168 14.33187,0 20.68587,0"
     id="path16"
     inkscape:connector-curvature="0"
     style="fill:#963b22" />
  <path
     d="m 16.68787,13.52 c -0.55,0 -1,-0.45 -1,-1 l 0,-1 c 0,-0.55 0.45,-1 1,-1 0.55,0 1,0.45 1,1 l 0,1 c 0,0.55 -0.45,1 -1,1 m 8,0 c -0.55,0 -1,-0.45 -1,-1 l 0,-1 c 0,-0.55 0.45,-1 1,-1 0.55,0 1,0.45 1,1 l 0,1 c 0,0.55 -0.45,1 -1,1"
     id="path18"
     inkscape:connector-curvature="0"
     style="fill:#662113" />
  <path
     d="m 21.43787,16.27 -1.5,0 c -0.413,0 -0.75,-0.337 -0.75,-0.75 0,-0.413 0.337,-0.75 0.75,-0.75 l 1.5,0 c 0.413,0 0.75,0.337 0.75,0.75 0,0.413 -0.336,0.75 -0.75,0.75"
     id="path20"
     inkscape:connector-curvature="0"
     style="fill:#c1694f" />
  <path
     d="m 7.68787,25.078 0,7.442 1,0 0.303,-7.442 z"
     id="path22"
     inkscape:connector-curvature="0"
     style="fill:#2a6797" />
  <path
     d="m 4.02087,24.573 -1.333,7.947 5,0 0.721,-7.588 z"
     id="path24"
     inkscape:connector-curvature="0"
     style="fill:#4289c1" />
  <path
     d="m 6.47487,18.778 c 0.923,-0.923 3.558,-2.964 4.215,-3.637 0.658,-0.672 1.53,0.097 1.068,0.918 -0.462,0.821 -3.129,3.847 -3.129,3.847 0,0 1.59,0.462 1.949,0.872 0.359,0.41 1.026,3.078 0.41,3.488 -0.616,0.41 -1.539,0.103 -1.539,0.103 0,0 -0.973,2.411 -3.487,2.257 -1.044,-0.064 -2.103,-0.975 -2.001,-2.514 0.103,-1.539 0.904,-2.969 1.18,-3.796 0.308,-0.923 1.334,-1.538 1.334,-1.538 z"
     id="path26"
     inkscape:connector-curvature="0"
     style="fill:#d4ab88" />
  <path
     d="m 5.78887,17.225 c -0.048,0 -0.097,-0.007 -0.146,-0.021 -2.429,-0.74 -2.859,-3.564 -2.876,-3.684 -0.039,-0.273 0.15,-0.525 0.423,-0.565 0.272,-0.038 0.526,0.149 0.566,0.422 0.003,0.023 0.362,2.316 2.178,2.869 0.264,0.081 0.413,0.36 0.333,0.624 -0.066,0.216 -0.264,0.355 -0.478,0.355 z m -1.077,2.012 c -0.049,0 -0.099,-0.007 -0.148,-0.023 -3.557,-1.101 -4.51199997,-5.109 -4.55099997,-5.279 -0.062,-0.269 0.106,-0.537 0.375,-0.599 0.271,-0.062 0.537,0.106 0.6,0.375 0.008,0.036 0.87199997,3.618 3.87299997,4.548 0.264,0.082 0.411,0.361 0.33,0.625 -0.067,0.215 -0.265,0.353 -0.479,0.353 z"
     id="path28"
     inkscape:connector-curvature="0"
     style="fill:#5dadec" />
</svg>
