<?xml version="1.0" encoding="UTF-8" standalone="no"?>
<svg
   xmlns:dc="http://purl.org/dc/elements/1.1/"
   xmlns:cc="http://creativecommons.org/ns#"
   xmlns:rdf="http://www.w3.org/1999/02/22-rdf-syntax-ns#"
   xmlns:svg="http://www.w3.org/2000/svg"
   xmlns="http://www.w3.org/2000/svg"
   xmlns:sodipodi="http://sodipodi.sourceforge.net/DTD/sodipodi-0.dtd"
   xmlns:inkscape="http://www.inkscape.org/namespaces/inkscape"
   viewBox="0 0 23.279329 36.010582"
   id="svg2"
   version="1.1"
   inkscape:version="0.91 r13725"
   sodipodi:docname="1f9c2.svg"
   width="23.279329"
   height="36.010582">
  <metadata
     id="metadata24">
    <rdf:RDF>
      <cc:Work
         rdf:about="">
        <dc:format>image/svg+xml</dc:format>
        <dc:type
           rdf:resource="http://purl.org/dc/dcmitype/StillImage" />
      </cc:Work>
    </rdf:RDF>
  </metadata>
  <defs
     id="defs22" />
  <sodipodi:namedview
     pagecolor="#ffffff"
     bordercolor="#666666"
     borderopacity="1"
     objecttolerance="10"
     gridtolerance="10"
     guidetolerance="10"
     inkscape:pageopacity="0"
     inkscape:pageshadow="2"
     inkscape:window-width="640"
     inkscape:window-height="480"
     id="namedview20"
     showgrid="false"
     inkscape:zoom="6.5555556"
     inkscape:cx="11.639665"
     inkscape:cy="18"
     inkscape:window-x="0"
     inkscape:window-y="0"
     inkscape:window-maximized="0"
     inkscape:current-layer="svg2" />
  <path
     d="m 19.639665,4.010583 c 0,3 -3.582,6 -8,6 -4.4180005,0 -8.0000005,-3 -8.0000005,-6 0,-4.418 6,-4 8.0000005,-4 2,0 8,-0.418 8,4 z"
     id="path4"
     inkscape:connector-curvature="0"
     style="fill:#66757f" />
  <path
     d="m 17.945665,12.010583 -12.6120005,0 c -0.978,0 -1.812,0.707 -1.973,1.671 l -3.33299999,20 c -0.203,1.219 0.737,2.329 1.97299999,2.329 l 19.2780005,0 c 1.236,0 2.176,-1.11 1.973,-2.329 l -3.333,-20 c -0.161,-0.964 -0.996,-1.671 -1.973,-1.671 z"
     id="path6"
     inkscape:connector-curvature="0"
     style="fill:#ccd6dd" />
  <path
     d="m 12.983665,14.010583 -6.8020005,0 c -0.489,0 -0.906,0.353 -0.986,0.836 l -3,18 c -0.103,0.609 0.367,1.164 0.985,1.164 l 10.4270005,0 -0.624,-20 z m 5.101,0.836 c -0.08,-0.483 -0.498,-0.836 -0.986,-0.836 l -2.413,0 0.909,20 4.505,0 c 0.618,0 1.088,-0.555 0.986,-1.164 l -3.001,-18 z"
     id="path8"
     inkscape:connector-curvature="0"
     style="fill:#f5f8fa" />
  <ellipse
     cx="8.6396646"
     cy="1.510583"
     rx="1.2"
     ry="0.60000002"
     id="ellipse10"
     style="fill:#ccd6dd" />
  <ellipse
     cx="14.639665"
     cy="1.510583"
     rx="1.2"
     ry="0.60000002"
     id="ellipse12"
     style="fill:#ccd6dd" />
  <ellipse
     cx="11.639665"
     cy="3.5105829"
     rx="1.2"
     ry="0.60000002"
     id="ellipse14"
     style="fill:#ccd6dd" />
  <path
     d="m 18.639665,12.010583 -14.0000005,0 0,-2.472 c 0,-0.844 0.684,-1.262 1.528,-1.262 l 10.9440005,0 c 0.844,0 1.528,0.418 1.528,1.262 l 0,2.472 z"
     id="path16"
     inkscape:connector-curvature="0"
     style="fill:#66757f" />
  <path
     d="m 17.111665,8.010583 -10.9440005,0 c -0.657,0 -1.213,0.417 -1.429,1 l 13.8010005,0 c -0.215,-0.583 -0.77,-1 -1.428,-1 z m -12.4720005,2 14.0000005,0 0,1 -14.0000005,0 z m 0,2 14.0000005,0 0,0.5 -14.0000005,0 z"
     id="path18"
     inkscape:connector-curvature="0"
     style="fill:#ccd6dd" />
</svg>
