<?xml version="1.0" encoding="UTF-8" standalone="no"?>
<svg
   xmlns:dc="http://purl.org/dc/elements/1.1/"
   xmlns:cc="http://creativecommons.org/ns#"
   xmlns:rdf="http://www.w3.org/1999/02/22-rdf-syntax-ns#"
   xmlns:svg="http://www.w3.org/2000/svg"
   xmlns="http://www.w3.org/2000/svg"
   xmlns:sodipodi="http://sodipodi.sourceforge.net/DTD/sodipodi-0.dtd"
   xmlns:inkscape="http://www.inkscape.org/namespaces/inkscape"
   viewBox="0 0 36 33.273998"
   id="svg2"
   version="1.1"
   inkscape:version="0.91 r13725"
   sodipodi:docname="1f9c6.svg"
   width="36"
   height="33.273998">
  <metadata
     id="metadata60">
    <rdf:RDF>
      <cc:Work
         rdf:about="">
        <dc:format>image/svg+xml</dc:format>
        <dc:type
           rdf:resource="http://purl.org/dc/dcmitype/StillImage" />
      </cc:Work>
    </rdf:RDF>
  </metadata>
  <defs
     id="defs58" />
  <sodipodi:namedview
     pagecolor="#ffffff"
     bordercolor="#666666"
     borderopacity="1"
     objecttolerance="10"
     gridtolerance="10"
     guidetolerance="10"
     inkscape:pageopacity="0"
     inkscape:pageshadow="2"
     inkscape:window-width="640"
     inkscape:window-height="480"
     id="namedview56"
     showgrid="false"
     inkscape:zoom="6.5555556"
     inkscape:cx="18"
     inkscape:cy="16.636999"
     inkscape:window-x="0"
     inkscape:window-y="0"
     inkscape:window-maximized="0"
     inkscape:current-layer="svg2" />
  <ellipse
     cx="10.757"
     cy="6.8839998"
     rx="8.0319996"
     ry="6.8839998"
     id="ellipse4"
     style="fill:#c15829" />
  <path
     d="m 15.347,12.621 c 0,-0.972 0.144,-1.874 0.395,-2.7099999 -1.43,-0.467 -2.983,-0.732 -4.626,-0.732 -2.628,0 -5.057,0.628 -7.053,1.7849999 1.438,1.83 3.898,2.805 6.694,2.805 1.714,0 3.291,-0.378 4.593,-1.084 0,-0.022 -0.003,-0.042 -0.003,-0.064 z"
     id="path6"
     inkscape:connector-curvature="0"
     style="fill:#933813" />
  <path
     d="m 13.052,12.621 c 0,0.308 0.02,0.606 0.046,0.901 3.294,-0.721 5.691,-3.017 5.691,-6.6379999 0,-0.889 -0.15,-1.695 -0.417,-2.42 -3.172,1.423 -5.32,4.271 -5.32,8.1569999 z"
     id="path8"
     inkscape:connector-curvature="0"
     style="fill:#933813" />
  <ellipse
     cx="25.673"
     cy="12.621"
     rx="10.327"
     ry="9.1789999"
     id="ellipse10"
     style="fill:#c15829" />
  <path
     d="m 25.673,21.227 c 0,-6.029 -4.354,-9.953 -10.088,-10.745 -0.153,0.673 -0.239,1.385 -0.239,2.139 0,5.693 4.608,9.166 10.297,9.178 0.01,-0.191 0.03,-0.377 0.03,-0.572 z"
     id="path12"
     inkscape:connector-curvature="0"
     style="fill:#933813" />
  <ellipse
     cx="12.263"
     cy="22.374001"
     rx="12.263"
     ry="10.9"
     id="ellipse14"
     style="fill:#c15829" />
  <path
     d="m 34.709,12.621 c 0,-4.6209999 -3.471,-7.5659999 -7.946,-7.9769999 -0.107,0.032 -0.216,0.059 -0.321,0.101 -2.761,1.102 -3.698,5.254 -2.094,9.2749999 1.274,3.192 3.767,5.334 6.123,5.533 2.543,-1.302 4.238,-3.707 4.238,-6.932 z"
     id="path16"
     inkscape:connector-curvature="0"
     style="fill:#a0ad55" />
  <path
     d="m 26.442,4.7450001 c -2.761,1.102 -3.698,5.254 -2.094,9.2749999 1.274,3.192 3.767,5.334 6.123,5.533 C 24.526,9.1790001 26.547,4.7030001 26.442,4.7450001 Z"
     id="path18"
     inkscape:connector-curvature="0"
     style="fill:#c4ce89" />
  <circle
     cx="3.8729999"
     cy="18.358002"
     r="1.147"
     id="circle20"
     style="fill:#ffac33" />
  <circle
     cx="5.5939999"
     cy="15.490001"
     r="0.574"
     id="circle22"
     style="fill:#77b255" />
  <circle
     cx="8.4619999"
     cy="17.210999"
     r="1.147"
     id="circle24"
     style="fill:#77b255" />
  <circle
     cx="10.757"
     cy="13.768"
     r="1.147"
     id="circle26"
     style="fill:#ffac33" />
  <circle
     cx="5.5939999"
     cy="4.0149999"
     r="0.574"
     id="circle28"
     style="fill:#ffac33" />
  <circle
     cx="7.3150001"
     cy="2.2940001"
     r="1.147"
     id="circle30"
     style="fill:#77b255" />
  <circle
     cx="10.183"
     cy="1.7210002"
     r="0.574"
     id="circle32"
     style="fill:#ffac33" />
  <circle
     cx="20.51"
     cy="6.3099999"
     r="0.574"
     id="circle34"
     style="fill:#77b255" />
  <circle
     cx="18.789"
     cy="8.0310001"
     r="1.147"
     id="circle36"
     style="fill:#ffac33" />
  <circle
     cx="29"
     cy="8.6370001"
     r="1"
     id="circle38"
     style="fill:#a6d388" />
  <circle
     cx="33"
     cy="12.637"
     r="1"
     id="circle40"
     style="fill:#a6d388" />
  <circle
     cx="4"
     cy="25.637001"
     r="1"
     id="circle42"
     style="fill:#77b255" />
  <circle
     cx="10"
     cy="28.637001"
     r="1"
     id="circle44"
     style="fill:#77b255" />
  <circle
     cx="19"
     cy="23.637001"
     r="1"
     id="circle46"
     style="fill:#77b255" />
  <circle
     cx="22"
     cy="11.637"
     r="1"
     id="circle48"
     style="fill:#77b255" />
  <circle
     cx="15"
     cy="3.6370001"
     r="1"
     id="circle50"
     style="fill:#77b255" />
  <circle
     cx="8"
     cy="7.6370001"
     r="1"
     id="circle52"
     style="fill:#77b255" />
  <circle
     cx="14"
     cy="20.637001"
     r="1"
     id="circle54"
     style="fill:#ffac33" />
</svg>
