<?xml version="1.0" encoding="UTF-8" standalone="no"?>
<svg
   xmlns:dc="http://purl.org/dc/elements/1.1/"
   xmlns:cc="http://creativecommons.org/ns#"
   xmlns:rdf="http://www.w3.org/1999/02/22-rdf-syntax-ns#"
   xmlns:svg="http://www.w3.org/2000/svg"
   xmlns="http://www.w3.org/2000/svg"
   xmlns:sodipodi="http://sodipodi.sourceforge.net/DTD/sodipodi-0.dtd"
   xmlns:inkscape="http://www.inkscape.org/namespaces/inkscape"
   viewBox="0 0 34.670132 34.898411"
   id="svg2"
   version="1.1"
   inkscape:version="0.91 r13725"
   sodipodi:docname="1f9dc-200d-2642-fe0f.svg"
   width="34.670132"
   height="34.898411">
  <metadata
     id="metadata34">
    <rdf:RDF>
      <cc:Work
         rdf:about="">
        <dc:format>image/svg+xml</dc:format>
        <dc:type
           rdf:resource="http://purl.org/dc/dcmitype/StillImage" />
      </cc:Work>
    </rdf:RDF>
  </metadata>
  <defs
     id="defs32" />
  <sodipodi:namedview
     pagecolor="#ffffff"
     bordercolor="#666666"
     borderopacity="1"
     objecttolerance="10"
     gridtolerance="10"
     guidetolerance="10"
     inkscape:pageopacity="0"
     inkscape:pageshadow="2"
     inkscape:window-width="640"
     inkscape:window-height="480"
     id="namedview30"
     showgrid="false"
     inkscape:zoom="6.5555556"
     inkscape:cx="16.751133"
     inkscape:cy="17.911412"
     inkscape:window-x="0"
     inkscape:window-y="0"
     inkscape:window-maximized="0"
     inkscape:current-layer="svg2" />
  <path
     d="m 15.454133,12.221 c -2.061,-0.088 -4.3,-0.078 -4.3,-0.078 0,0 -2.2399999,-0.01 -4.2999999,0.078 -0.501,0.021 -0.979,0.233 -1.35,0.456 -0.439,0.264 -0.728,0.544 -0.728,0.544 0.105,1.368 1.219,3.286 1.368,3.564 0.418,0.78 0.922,4.264 0.922,4.264 0.114,1.201 0,2 0,2 l 8.1759999,0 c 0,0 -0.114,-0.799 0,-2 0,0 0.504,-3.484 0.922,-4.264 0.149,-0.278 1.263,-2.196 1.368,-3.564 0,0 -0.984,-0.953 -2.078,-1 z"
     id="path4"
     inkscape:connector-curvature="0"
     style="fill:#ffdc5d" />
  <path
     d="m 13.736133,17.319 c -1.131,0 -1.968,-0.354 -2.014,-0.374 -0.126,-0.055 -0.185,-0.202 -0.13,-0.328 0.054,-0.126 0.2,-0.187 0.328,-0.131 0.014,0.006 1.35,0.565 2.857,0.215 0.137,-0.029 0.269,0.053 0.3,0.187 0.031,0.134 -0.053,0.269 -0.187,0.3 -0.403,0.095 -0.793,0.131 -1.154,0.131 z m -5.3239999,0 c -0.36,0 -0.75,-0.036 -1.155,-0.13 -0.134,-0.031 -0.218,-0.166 -0.187,-0.3 0.031,-0.134 0.164,-0.216 0.3,-0.187 1.516,0.353 2.8439999,-0.209 2.8569999,-0.215 0.127,-0.056 0.274,0.003 0.329,0.13 0.055,0.127 -0.004,0.274 -0.13,0.329 -0.047,0.02 -0.8829999,0.373 -2.0139999,0.373 z"
     id="path6"
     inkscape:connector-curvature="0"
     style="fill:#ef9645" />
  <path
     d="m 27.495133,24.532 c 1.738,-2.783 -0.967,-7.196 -0.967,-7.196 -0.067,0.534 -0.348,1.714 -0.348,1.714 -0.163,0.998 -0.678,2.566 -2.219,4.469 -1.049,1.294 4.467,5.504 5.708,4.687 1.937,-1.276 1.587,-3.432 3.655,-5.726 0.367,-0.407 0.8,-0.817 1.346,-1.228 -3.575,-0.319 -7.175,3.28 -7.175,3.28 z m -3.123,3.078 c -4.478,3.618 -9.355,2.292 -10.385,1.38 L 6.3431331,23.012 c -5.51599999,0 -4.48,7.846 1.132,10.349 9.5759999,4.271 17.1029999,-1.423 18.3989999,-4.18 l -1.502,-1.571 z"
     id="path8"
     inkscape:connector-curvature="0"
     style="fill:#184f87" />
  <path
     d="m 26.565133,25.865 c 1.408,-2.155 0.357,-5.346 -0.385,-6.815 -0.163,0.998 -0.843,2.383 -2.384,4.286 -1.049,1.294 -0.483,3.302 -0.021,4.199 l 0.001,0.001 c -3.596,2.842 -7.065,2.264 -8.825,1.464 1.17,-0.542 1.986,-1.7 1.986,-3.053 0,-1.87 -1.547,-3.385 -3.454,-3.385 l -7.1399999,0 c -5.51599999,0 -4.48,7.39 1.132,9.843 9.1649999,4.007 16.9999999,-0.67 18.7929999,-3.448 0.863,0.096 2.363,0.056 3.573,-0.741 1.937,-1.276 1.414,-3.441 3.482,-5.734 -3.483,0.249 -6.758,3.383 -6.758,3.383 z"
     id="path10"
     inkscape:connector-curvature="0"
     style="fill:#4292e0" />
  <path
     d="m 14.963133,29.001 c -2.309,-0.46 -6.9939999,-2.625 -7.1929999,-2.717 -0.194,-0.09 -0.278,-0.319 -0.188,-0.512 0.09,-0.195 0.321,-0.28 0.513,-0.188 0.048,0.022 5.4879999,2.428 7.7069999,2.869 0,0 -0.158,0.133 -0.336,0.267 -0.179,0.132 -0.503,0.281 -0.503,0.281 z"
     id="path12"
     inkscape:connector-curvature="0"
     style="fill:#184f87" />
  <path
     d="m 6.2331331,16.379 c -1.878,1.035 -3.267,2.429 -3.38,2.58 -0.477,0.637 -0.324,1.509 -0.251,2.345 0.086,0.995 0.112,2.231 0.595,2.908 0.198,0.277 0.107,0.759 -0.032,1.208 -0.419,1.353 0.306,3.199 -0.145,2.882 -0.918,-0.644 -1.074,-1.83 -1.047,-2.528 0.015,-0.393 -0.166,-0.884 -0.257,-1.138 -0.059,-0.16 -1.34799999,-3.094 -1.62199999,-4.431 -0.148,-0.722 -0.186,-1.381 0.379,-2.263 0.62099999,-0.971 1.93899999,-2.945 3.11699999,-3.885 0.989,-0.789 1.564,-1.189 1.914,-1.38 1.57,-0.857 1.389,3.338 0.729,3.702 z M 29.150133,9.639 c -0.084,0.009 -0.143,0.102 -0.203,0.238 -0.023,-0.164 -0.074,-0.276 -0.184,-0.264 -0.129,0.013 -0.201,0.22 -0.304,0.492 -0.027,-0.047 -0.062,-0.079 -0.117,-0.078 -0.261,0.009 -0.349,0.811 -0.909,1.334 -0.081,0.036 -0.154,0.078 -0.248,0.104 -0.059,0.016 -0.098,0.041 -0.146,0.061 0.005,-0.255 0.171,-0.405 0.271,-0.474 0.239,-0.166 0.089,-0.586 -0.314,-0.331 -0.289,0.183 -0.41,0.365 -0.501,0.55 -0.255,0.519 -0.354,1.058 -0.333,1.487 l -0.119,0.215 c -0.139,0.242 -1.626,1.17 -2.696,1.967 -1.066,0.793 -1.846,1.694 -2.415,1.132 -0.396,-0.391 -1.462,-1.74 -3.322,-2.833 -1.124,-0.661 -2.733,-0.866 -2.733,-0.866 -0.807,0.662 0.226,3.019 0.812,3.647 0.981,1.051 4.341,2.844 5.388,3.31 1.047,0.466 1.704,-0.161 2.196,-0.609 0.403,-0.366 3.434,-4.072 3.703,-4.326 0.365,-0.344 1.063,-0.797 1.457,-1.491 0.338,-0.596 0.543,-1.079 0.667,-1.855 0.071,-0.456 0.402,-1.447 0.05,-1.41 z M 9.2901331,9.278 l 0,3.727 c 0,1.029 0.8339999,1.864 1.8639999,1.864 1.029,0 1.864,-0.834 1.864,-1.864 l 0,-3.727 -3.7279999,0 z"
     id="path14"
     inkscape:connector-curvature="0"
     style="fill:#ffdc5d" />
  <path
     d="m 13.018133,8.347 -3.7269999,0.017 0,3.71 c 0,0 1.8639999,0.932 3.7269999,0 l 0,-3.727 z"
     id="path16"
     inkscape:connector-curvature="0"
     style="fill:#f9ca55" />
  <path
     d="m 15.813133,3.688 -9.3179999,-0.827 0,4.554 c 0,2.574 2.086,4.659 4.6589999,4.659 2.573,0 4.659,-2.085 4.659,-4.659 l 0,-3.727 z"
     id="path18"
     inkscape:connector-curvature="0"
     style="fill:#ffdc5d" />
  <path
     d="m 13.018133,10.21 -3.7279999,0 c 0,0 0,0.932 1.8639999,0.932 1.864,0 1.864,-0.932 1.864,-0.932 z"
     id="path20"
     inkscape:connector-curvature="0"
     style="fill:#c1694f" />
  <circle
     cx="8.8241329"
     cy="6.9489999"
     r="0.46599999"
     id="circle22"
     style="fill:#662113" />
  <circle
     cx="13.484133"
     cy="6.9489999"
     r="0.46599999"
     id="circle24"
     style="fill:#662113" />
  <path
     d="m 10.222133,8.347 1.864,0 c 0,0 0,0.932 -0.932,0.932 -0.932,0 -0.932,-0.932 -0.932,-0.932 z"
     id="path26"
     inkscape:connector-curvature="0"
     style="fill:#c1694f" />
  <path
     d="m 11.154133,0 c 3.199,0 5.198,2.36 5.198,4.327 0,1.967 -0.4,2.754 -0.8,1.967 l -0.8,-1.573 c 0,0 -2.399,0 -3.198,-0.787 0,0 1.2,2.36 -1.2,0 0,0 0.4,1.574 -1.9989999,-0.393 0,0 -1.2,0.787 -1.599,2.753 -0.111,0.546 -0.8,0 -0.8,-1.967 0,-1.966 1.6,-4.327 5.1979999,-4.327"
     id="path28"
     inkscape:connector-curvature="0"
     style="fill:#4292e0" />
</svg>
