<?xml version="1.0" encoding="UTF-8" standalone="no"?>
<svg
   xmlns:dc="http://purl.org/dc/elements/1.1/"
   xmlns:cc="http://creativecommons.org/ns#"
   xmlns:rdf="http://www.w3.org/1999/02/22-rdf-syntax-ns#"
   xmlns:svg="http://www.w3.org/2000/svg"
   xmlns="http://www.w3.org/2000/svg"
   xmlns:sodipodi="http://sodipodi.sourceforge.net/DTD/sodipodi-0.dtd"
   xmlns:inkscape="http://www.inkscape.org/namespaces/inkscape"
   viewBox="0 0 36 34.52"
   id="svg2"
   version="1.1"
   inkscape:version="0.91 r13725"
   sodipodi:docname="1f9d6-200d-2642-fe0f.svg"
   width="36"
   height="34.52">
  <metadata
     id="metadata48">
    <rdf:RDF>
      <cc:Work
         rdf:about="">
        <dc:format>image/svg+xml</dc:format>
        <dc:type
           rdf:resource="http://purl.org/dc/dcmitype/StillImage" />
      </cc:Work>
    </rdf:RDF>
  </metadata>
  <defs
     id="defs46" />
  <sodipodi:namedview
     pagecolor="#ffffff"
     bordercolor="#666666"
     borderopacity="1"
     objecttolerance="10"
     gridtolerance="10"
     guidetolerance="10"
     inkscape:pageopacity="0"
     inkscape:pageshadow="2"
     inkscape:window-width="640"
     inkscape:window-height="480"
     id="namedview44"
     showgrid="false"
     inkscape:zoom="6.5555556"
     inkscape:cx="18"
     inkscape:cy="18"
     inkscape:window-x="0"
     inkscape:window-y="0"
     inkscape:window-maximized="0"
     inkscape:current-layer="svg2" />
  <g
     id="g4"
     style="fill:#e1e8ed"
     transform="translate(0,-1.48)">
    <circle
       cx="4.5"
       cy="25.5"
       r="4.5"
       id="circle6" />
    <circle
       cx="25.5"
       cy="20.5"
       r="5.5"
       id="circle8" />
    <circle
       cx="31"
       cy="26.5"
       r="5"
       id="circle10" />
    <circle
       cx="12"
       cy="24"
       r="5"
       id="circle12" />
    <path
       d="m 33,30 c -1.657,0 -3,1.343 -3,3 L 6,33 c 0,-1.657 -1.343,-3 -3,-3 -1.657,0 -3,1.343 -3,3 0,1.657 1.343,3 3,3 l 29,0 0,-0.184 c 0.314,0.112 0.647,0.184 1,0.184 1.657,0 3,-1.343 3,-3 0,-1.657 -1.343,-3 -3,-3 z"
       id="path14"
       inkscape:connector-curvature="0" />
    <path
       d="m 0,25.5 9,0 0,7.5 -9,0 z m 20,-2.5 9,0 0,4 -9,0 z m 11,3.5 5,0 0,6.5 -5,0 z"
       id="path16"
       inkscape:connector-curvature="0" />
  </g>
  <path
     d="m 23.35,18.52 c 1.014,0.324 2.845,1.15 2.65,2.941 1.924,0.357 2.306,1.966 2.436,2.907 C 28.684,26.158 21,24.17 21,24.17 l -1,-3.482 3.35,-2.168 z m -10.38,0.5 c -0.769,0.185 -2.749,0.5 -3.64,2.793 -1.99,0 -2.33,2.02 -2.33,3.538 0,2.253 7.336,1.955 8.495,0.678 1.158,-1.277 0.784,-5.36 0.784,-5.36 L 12.97,19.02 Z"
     id="path18"
     inkscape:connector-curvature="0"
     style="fill:#77b255" />
  <path
     d="m 32,34.52 0,-4 c 0,-3.314 -2.685,-6 -6,-6 l -16,0 c -3.313,0 -6,2.686 -6,6 l 0,4 28,0 z"
     id="path20"
     inkscape:connector-curvature="0"
     style="fill:#ffdc5d" />
  <path
     d="M 13.667,25.642 18,29.521 22.316,26.894 22,20.52 l -8,0 z"
     id="path22"
     inkscape:connector-curvature="0"
     style="fill:#ffdc5d" />
  <path
     d="m 14,22.52 c 1.216,1.374 2.355,1.719 3.996,1.719 1.639,0 2.787,-0.346 4.004,-1.719 l 0,-4 -8,0 0,4 z"
     id="path24"
     inkscape:connector-curvature="0"
     style="fill:#f9ca55" />
  <path
     d="m 11.444,12.456 c 0,1.448 -0.734,2.622 -1.639,2.622 -0.905,0 -1.639,-1.174 -1.639,-2.622 0,-1.448 0.734,-2.623 1.639,-2.623 0.905,-10e-4 1.639,1.174 1.639,2.623 m 16.389,0 c 0,1.448 -0.733,2.622 -1.639,2.622 -0.905,0 -1.639,-1.174 -1.639,-2.622 0,-1.448 0.733,-2.623 1.639,-2.623 0.906,-10e-4 1.639,1.174 1.639,2.623"
     id="path26"
     inkscape:connector-curvature="0"
     style="fill:#ffdc5d" />
  <path
     d="M 9.477,13.48 C 9.477,7.891 13.293,3.359 18,3.359 c 4.707,0 8.522,4.532 8.522,10.121 0,5.589 -3.815,10.121 -8.522,10.121 C 13.293,23.6 9.477,19.069 9.477,13.48"
     id="path28"
     inkscape:connector-curvature="0"
     style="fill:#ffdc5d" />
  <path
     d="m 18,20.322 c -2.754,0 -3.6,-0.705 -3.741,-0.848 -0.256,-0.256 -0.256,-0.671 0,-0.927 0.248,-0.248 0.646,-0.255 0.902,-0.023 0.052,0.037 0.721,0.487 2.839,0.487 2.2,0 2.836,-0.485 2.842,-0.49 0.256,-0.255 0.657,-0.243 0.913,0.015 0.256,0.256 0.242,0.683 -0.014,0.938 C 21.6,19.617 20.754,20.322 18,20.322"
     id="path30"
     inkscape:connector-curvature="0"
     style="fill:#c1694f" />
  <path
     d="m 18,0 c 5.648,0 9.178,4.168 9.178,7.641 0,3.473 -0.706,4.863 -1.412,3.473 L 24.354,8.336 c 0,0 -4.235,0 -5.647,-1.39 0,0 2.118,4.168 -2.118,0 0,0 0.706,2.779 -3.53,-0.694 0,0 -2.118,1.389 -2.824,4.862 -0.196,0.964 -1.412,0 -1.412,-3.473 C 8.822,4.168 11.646,0 18,0"
     id="path32"
     inkscape:connector-curvature="0"
     style="fill:#ffac33" />
  <path
     d="m 14,13.52 c -0.55,0 -1,-0.45 -1,-1 l 0,-1 c 0,-0.55 0.45,-1 1,-1 0.55,0 1,0.45 1,1 l 0,1 c 0,0.55 -0.45,1 -1,1 m 8,0 c -0.55,0 -1,-0.45 -1,-1 l 0,-1 c 0,-0.55 0.45,-1 1,-1 0.55,0 1,0.45 1,1 l 0,1 c 0,0.55 -0.45,1 -1,1"
     id="path34"
     inkscape:connector-curvature="0"
     style="fill:#662113" />
  <path
     d="m 18.75,16.27 -1.5,0 c -0.413,0 -0.75,-0.337 -0.75,-0.75 0,-0.413 0.337,-0.75 0.75,-0.75 l 1.5,0 c 0.413,0 0.75,0.337 0.75,0.75 0,0.413 -0.337,0.75 -0.75,0.75"
     id="path36"
     inkscape:connector-curvature="0"
     style="fill:#c1694f" />
  <path
     d="m 13.758,24.232 c -0.269,3.395 0.314,5.641 0.636,6.672 0.158,0.505 -0.201,1.016 -0.729,1.045 -0.714,0.039 -1.591,0.08 -2.116,0.08 -1,0 -3.477,2.243 -3.942,-0.193 C 7.143,29.4 7,27.231 7,26.429 c 0,-0.802 -0.158,-3.166 1.167,-3.17 1.817,-0.005 2.155,-0.153 2.917,-0.705 0.857,-0.622 2.738,0.879 2.674,1.678 z m 8.426,0.007 c 0.247,3.305 -0.257,5.437 -0.553,6.44 -0.145,0.492 -0.261,0.897 0.099,1.237 0.698,0.66 2.007,-0.07 2.49,-0.07 0.92,0 2.935,2.261 3.612,-0.991 0.633,-3.039 0.604,-5.475 0.604,-6.255 0,-0.78 -0.468,-1.038 -1.077,-1.363 -1.486,-0.792 -1.982,-0.149 -2.683,-0.687 -0.788,-0.605 -2.55,0.911 -2.492,1.689 z"
     id="path38"
     inkscape:connector-curvature="0"
     style="fill:#77b255" />
  <path
     d="m 8.002,23.756 c 0.156,-0.67 0.885,-1.175 1.063,-0.623 0.177,0.55 0.233,3.471 0.295,4.387 C 9.422,28.436 8.752,27.336 8.499,26.622 8.245,25.908 7.855,24.388 8.002,23.756 Z m 19.115,-0.849 c -0.175,-0.579 -0.846,-0.279 -1.003,0.176 -0.157,0.455 0.021,1.692 -0.01,2.465 -0.031,0.773 0.325,0.014 0.551,-0.574 0.227,-0.588 0.627,-1.521 0.462,-2.067 z M 10.315,22.055 c 0.024,-0.521 0.923,-1.192 1.004,-0.656 0.081,0.536 0.571,6.09 0.845,7.289 0.274,1.199 -0.196,0.978 -0.522,0.124 -0.326,-0.854 -1.401,-5.186 -1.327,-6.757 z m 14.802,-0.853 c -0.245,-0.141 -0.842,0.207 -0.89,0.639 -0.047,0.432 -0.005,4.021 -0.202,4.982 -0.196,0.961 0.115,0.81 0.383,0.133 0.268,-0.677 1.831,-5.106 0.709,-5.754 z"
     id="path40"
     inkscape:connector-curvature="0"
     style="fill:#a6d388" />
  <path
     d="m 32,26.52 c -2.975,0 -5.438,2.168 -5.911,5.009 C 26.058,31.528 26.03,31.52 26,31.52 c -2.049,0 -3.806,1.236 -4.578,3 l 11.578,0 c 1.65,0 3,-1.35 3,-3 l 0,-3.463 C 34.938,27.104 33.539,26.52 32,26.52 Z m -18.422,8 c -0.772,-1.764 -2.529,-3 -4.578,-3 -0.78,0 -1.509,0.194 -2.166,0.512 C 6.932,31.71 7,31.375 7,31.02 c 0,-1.933 -1.567,-3.5 -3.5,-3.5 -1.762,0 -3.205,1.306 -3.45,3 l -0.05,0 0,1 c 0,1.65 1.35,3 3,3 l 10.578,0 z"
     id="path42"
     inkscape:connector-curvature="0"
     style="opacity:0.7;fill:#ffffff" />
</svg>
