<?xml version="1.0" encoding="UTF-8" standalone="no"?>
<svg
   xmlns:dc="http://purl.org/dc/elements/1.1/"
   xmlns:cc="http://creativecommons.org/ns#"
   xmlns:rdf="http://www.w3.org/1999/02/22-rdf-syntax-ns#"
   xmlns:svg="http://www.w3.org/2000/svg"
   xmlns="http://www.w3.org/2000/svg"
   xmlns:sodipodi="http://sodipodi.sourceforge.net/DTD/sodipodi-0.dtd"
   xmlns:inkscape="http://www.inkscape.org/namespaces/inkscape"
   viewBox="0 0 35.5896 36"
   id="svg2"
   version="1.1"
   inkscape:version="0.91 r13725"
   sodipodi:docname="1f9d7.svg"
   width="35.5896"
   height="36">
  <metadata
     id="metadata44">
    <rdf:RDF>
      <cc:Work
         rdf:about="">
        <dc:format>image/svg+xml</dc:format>
        <dc:type
           rdf:resource="http://purl.org/dc/dcmitype/StillImage" />
      </cc:Work>
    </rdf:RDF>
  </metadata>
  <defs
     id="defs42" />
  <sodipodi:namedview
     pagecolor="#ffffff"
     bordercolor="#666666"
     borderopacity="1"
     objecttolerance="10"
     gridtolerance="10"
     guidetolerance="10"
     inkscape:pageopacity="0"
     inkscape:pageshadow="2"
     inkscape:window-width="640"
     inkscape:window-height="480"
     id="namedview40"
     showgrid="false"
     inkscape:zoom="6.5555556"
     inkscape:cx="18"
     inkscape:cy="18"
     inkscape:window-x="0"
     inkscape:window-y="0"
     inkscape:window-maximized="0"
     inkscape:current-layer="svg2" />
  <path
     d="M 32.75,36 4,36 C 1.791,36 0,34.209 0,32 L 0,4 C 0,1.791 1.791,0 4,0 l 15.042,0 c 0,0 4.849,0.569 4.542,2 -0.351,1.634 -2.455,6.896 -2.542,7.708 -0.173,1.62 4.735,4.393 4.5,6.292 -0.733,5.934 -3.5,8.25 -2.505,11.305 0.126,0.386 3.679,0.718 4.588,1.195 C 33,31.318 32.958,36 32.75,36 Z"
     id="path4"
     inkscape:connector-curvature="0"
     style="fill:#66757f" />
  <path
     d="M 30,36 4,36 C 1.791,36 0,34.209 0,32 L 0,4 C 0,1.791 1.791,0 4,0 l 7.167,0 c 0,0 8.955,0.862 8.842,2.062 -0.173,1.851 -3.639,7.717 -2.51,8.812 1.129,1.095 4.432,3.794 4.571,5.542 0.179,2.244 -4.284,8.299 -1.918,13.304 0.756,1.598 5.061,0.957 6.329,1.852 C 29.644,33.807 30.304,36 30,36 Z"
     id="path6"
     inkscape:connector-curvature="0"
     style="fill:#99aab5" />
  <path
     d="m 29.759,29.818 c 0,0 0.404,0.278 1.516,0.666 0.443,0.154 -0.044,1.84 -0.305,2.08 -0.261,0.24 -2.188,0.627 -3.928,0.098 -1.593,-0.484 -0.405,-0.938 0.744,-1.193 1.151,-0.254 1.973,-1.651 1.973,-1.651 z"
     id="path8"
     inkscape:connector-curvature="0"
     style="fill:#292f33" />
  <path
     d="m 28.313,14.316 c -1.108,0.471 -2.32,0.982 -2.873,0.817 -0.415,-0.124 -1.235,-0.382 -1.886,-0.38 -0.651,0.002 -0.76,0.343 -0.325,1.021 0.435,0.679 1.324,1.039 2.032,0.823 0.708,-0.216 2.276,-0.29 3.233,-0.317 0.956,-0.025 1.692,-2.759 -0.181,-1.964 z"
     id="path10"
     inkscape:connector-curvature="0"
     style="fill:#f9ca55" />
  <path
     d="m 27.85,14.614 c 0.484,-0.258 1.333,-0.391 1.333,-0.391 l 0.929,-2.272 2.482,1.636 c 0,0 -1.65,1.934 -2.05,2.355 -0.4,0.422 -1.793,0.417 -2.898,0.371 -0.833,-0.034 -0.337,-1.411 0.204,-1.699 z m 1.972,11.558 c 0,0 -2.739,-1.872 -2.937,-1.076 -0.198,0.796 2.252,2.908 2.846,4.888 0.24,0.799 1.68,1.663 1.697,0.079 0.03,-2.735 -1.606,-3.891 -1.606,-3.891 z"
     id="path12"
     inkscape:connector-curvature="0"
     style="fill:#f9ca55" />
  <path
     d="m 27.162,25.501 c 0,0 0.88,1.752 1.766,1.567 0.886,-0.185 3.219,-3.005 3.92,-4.075 0.701,-1.07 0.419,-3.671 -1.168,-2.416 -1.586,1.253 -4.518,4.924 -4.518,4.924 z"
     id="path14"
     inkscape:connector-curvature="0"
     style="fill:#f9ca55" />
  <path
     d="m 34.225,21.936 -6.368,0.815 3.175,2.892 z"
     id="path16"
     inkscape:connector-curvature="0"
     style="fill:#2a6797" />
  <path
     d="m 27.622,22.132 c 0,0 -2.369,2.157 -2.583,3.02 -0.215,0.862 0.003,3.664 -0.642,6.25 -0.645,2.586 1.079,3.016 1.294,2.154 0.215,-0.862 2.652,-4.022 1.856,-5.917 -0.384,-0.916 2.231,-3.138 2.231,-3.138 l -2.156,-2.369 z"
     id="path18"
     inkscape:connector-curvature="0"
     style="fill:#ffdc5d" />
  <path
     d="m 29.807,19.266 c -1.291,0.84 -1.944,2.066 -3.733,4.052 l 2.395,2.554 c 0,0 6.032,-2.286 6.953,-5.358 0.794,-2.649 -1.491,-4.143 -1.491,-4.143 0,0 -2.89,2.092 -4.124,2.895 z"
     id="path20"
     inkscape:connector-curvature="0"
     style="fill:#357baa" />
  <path
     d="M 32.932,7.593 32.687,9.922 30.012,9.493 30.022,7.471 Z"
     id="path22"
     inkscape:connector-curvature="0"
     style="fill:#ffdc5d" />
  <path
     d="M 33.434,7.67 C 32.481,8.913 31,8.808 29.596,8.564 28.258,8.331 28.503,5.893 29.156,4.481 29.814,3.059 31.985,2.983 33.115,3.85 c 1.131,0.867 1.273,2.577 0.319,3.82 z"
     id="path24"
     inkscape:connector-curvature="0"
     style="fill:#ffdc5d" />
  <path
     d="M 25.146,7.833 C 24.204,6.607 22.821,5.373 22.645,4.586 22.431,3.629 22.481,2.632 21.146,1.834 20.304,1.331 20.868,2.716 20.992,4.551 c 0.071,1.055 1.664,4.103 2.633,5.094 0.623,0.637 3.588,1.518 4.57,3.638 0.166,0.358 0.605,1.03 1.117,1.841 0.85,1.343 1.341,2.469 0.658,4.033 2.984,0.155 5.318,-1.113 5.318,-1.113 -0.883,-2.313 -0.212,-4.329 -0.94,-6.15 -1.15,-2.879 -2.429,-2.989 -4.35,-2.598 0,0 -0.402,-0.733 -2.142,-0.546 -0.839,-0.331 -1.635,-0.614 -2.71,-0.917 z"
     id="path26"
     inkscape:connector-curvature="0"
     style="fill:#ffdc5d" />
  <path
     d="m 29.779,19.141 c 2.984,0.155 5.625,-0.824 5.625,-0.824 -0.23,-1.965 -0.328,-4.602 -1.056,-6.423 -0.161,-0.404 -0.33,-0.736 -0.504,-1.021 -0.011,0.256 -0.149,0.448 -0.597,0.356 -0.97,-0.2 -1.585,-1.274 -2.541,-1.898 -0.229,-0.01 -0.465,-0.019 -0.708,-0.035 0.76,0.597 1.077,2.165 0.639,3.292 -0.443,1.14 -1.332,1.394 -2.302,1.034 0.037,0.079 0.377,0.919 0.722,1.809 0.477,1.23 0.694,2.691 0.722,3.71 z"
     id="path28"
     inkscape:connector-curvature="0"
     style="fill:#4289c1" />
  <path
     d="m 24.3,31.985 c 0,0 0.371,1.007 1.62,0.869 0.277,-0.031 -0.079,1.164 -0.39,1.461 -0.311,0.297 -3.405,1.719 -4.959,0.855 -1.553,-0.864 -0.345,-1.208 0.864,-1.553 1.208,-0.345 2.865,-1.632 2.865,-1.632 z"
     id="path30"
     inkscape:connector-curvature="0"
     style="fill:#292f33" />
  <path
     d="m 30.938,2.812 c 1.992,-0.206 3.292,0.989 3.449,2.102 0.239,1.69 -1.15,2.967 -1.455,3.627 C 32.624,9.208 30.545,8.203 30.438,6.562 30.401,6 30.169,5.371 30.238,4.918 30.3,4.508 29.506,4.476 29.188,4.332 28.742,4.131 29.555,2.956 30.938,2.812 Z"
     id="path32"
     inkscape:connector-curvature="0"
     style="fill:#ffac33" />
  <path
     d="m 6.333,2.417 4.708,0 c 0.792,0 -2.208,3.156 -3.292,3.156 -1.084,0 -2.832,-3.156 -1.416,-3.156 z m 4.334,6.208 4.458,0 c 0.75,0 -2.458,2.949 -3.458,2.949 -1,0 -2.292,-2.949 -1,-2.949 z m -1.792,9.118 9.125,0 c 1.292,0 -5.542,5.098 -6.667,5.098 -1.125,0 -4.916,-5.098 -2.458,-5.098 z m -5.708,11.309 8.071,0 c 1.888,0 -3.281,4.531 -5.113,4.531 -1.832,0 -4.792,-4.531 -2.958,-4.531 z"
     id="path34"
     inkscape:connector-curvature="0"
     style="fill:#66757f" />
  <path
     d="m 29.779,18.5 c 0.01,-0.046 1.158,0.125 2.814,-0.125 1.297,-0.196 2.811,-0.54 2.811,-0.54 l 0.095,0.649 c 0,0 -1.917,0.495 -3.069,0.629 -1.152,0.134 -2.623,0.152 -2.623,0.152 0,0 -0.111,-0.355 -0.028,-0.765 z"
     id="path36"
     inkscape:connector-curvature="0"
     style="fill:#2a6797" />
  <path
     d="M 30.312,5.604 C 30.573,5.295 31.25,5.396 31.229,5.875 31.208,6.354 31.041,6.813 30.479,6.771 29.917,6.729 30.083,5.875 30.312,5.604 Z"
     id="path38"
     inkscape:connector-curvature="0"
     style="fill:#ffdc5d" />
</svg>
