<?xml version="1.0" encoding="UTF-8" standalone="no"?>
<svg
   xmlns:dc="http://purl.org/dc/elements/1.1/"
   xmlns:cc="http://creativecommons.org/ns#"
   xmlns:rdf="http://www.w3.org/1999/02/22-rdf-syntax-ns#"
   xmlns:svg="http://www.w3.org/2000/svg"
   xmlns="http://www.w3.org/2000/svg"
   xmlns:sodipodi="http://sodipodi.sourceforge.net/DTD/sodipodi-0.dtd"
   xmlns:inkscape="http://www.inkscape.org/namespaces/inkscape"
   viewBox="0 0 28 33"
   id="svg2"
   version="1.1"
   inkscape:version="0.91 r13725"
   sodipodi:docname="1f9de-200d-2642-fe0f.svg"
   width="28"
   height="33">
  <metadata
     id="metadata34">
    <rdf:RDF>
      <cc:Work
         rdf:about="">
        <dc:format>image/svg+xml</dc:format>
        <dc:type
           rdf:resource="http://purl.org/dc/dcmitype/StillImage" />
      </cc:Work>
    </rdf:RDF>
  </metadata>
  <defs
     id="defs32" />
  <sodipodi:namedview
     pagecolor="#ffffff"
     bordercolor="#666666"
     borderopacity="1"
     objecttolerance="10"
     gridtolerance="10"
     guidetolerance="10"
     inkscape:pageopacity="0"
     inkscape:pageshadow="2"
     inkscape:window-width="640"
     inkscape:window-height="480"
     id="namedview30"
     showgrid="false"
     inkscape:zoom="6.5555556"
     inkscape:cx="14"
     inkscape:cy="18"
     inkscape:window-x="0"
     inkscape:window-y="0"
     inkscape:window-maximized="0"
     inkscape:current-layer="svg2" />
  <path
     d="m 28,33 0,-2 c 0,-3.313 -2.687,-6 -6,-6 L 6,25 c -3.313,0 -6,2.687 -6,6 l 0,2 28,0 z"
     id="path4"
     inkscape:connector-curvature="0"
     style="fill:#88c9f9" />
  <path
     d="m 9.64,25.101 c 1.744,1.267 2.849,3.728 4.36,3.728 1.511,0 2.616,-2.462 4.36,-3.728 l 0,-3.811 -8.72,0 0,3.811 z M 7.444,12.935 c 0,1.448 -0.734,2.622 -1.639,2.622 C 4.9,15.558 4,14.448 4,13 c 0,-1.935 0.501,-2.687 1.806,-2.687 0.905,0 1.638,1.174 1.638,2.622 z M 24,13 c 0,1.448 -0.9,2.558 -1.806,2.558 -0.905,0 -1.639,-1.174 -1.639,-2.622 0,-1.448 0.734,-2.623 1.639,-2.623 1.352,0 1.806,0.752 1.806,2.687 z"
     id="path6"
     inkscape:connector-curvature="0"
     style="fill:#88c9f9" />
  <path
     d="M 5.478,13.96 C 5.478,8.371 7,2 14,2 21,2 22.522,8.371 22.522,13.96 22.522,19 20,24.08 14,24.08 8,24.08 5.478,19 5.478,13.96 Z"
     id="path8"
     inkscape:connector-curvature="0"
     style="fill:#88c9f9" />
  <path
     d="m 17.703,13.908 -0.145,0 c -0.459,0 -0.835,-0.376 -0.835,-0.835 l 0,-1.053 c 0,-0.459 0.376,-0.835 0.835,-0.835 l 0.145,0 c 0.459,0 0.835,0.376 0.835,0.835 l 0,1.053 c 0,0.459 -0.375,0.835 -0.835,0.835 z m -7.406,0 0.145,0 c 0.459,0 0.835,-0.376 0.835,-0.835 l 0,-1.053 c 0,-0.459 -0.376,-0.835 -0.835,-0.835 l -0.145,0 c -0.459,0 -0.835,0.376 -0.835,0.835 l 0,1.053 c 0,0.459 0.375,0.835 0.835,0.835 z"
     id="path10"
     inkscape:connector-curvature="0"
     style="fill:#662113" />
  <path
     d="m 14.007,20.802 c 2.754,0 3.6,-0.706 3.741,-0.848 0.256,-0.256 0.256,-0.671 0,-0.927 -0.248,-0.248 -0.645,-0.255 -0.902,-0.024 -0.052,0.038 -0.721,0.487 -2.839,0.487 -2.2,0 -2.836,-0.485 -2.842,-0.49 -0.255,-0.255 -0.656,-0.243 -0.913,0.013 -0.256,0.256 -0.242,0.684 0.014,0.94 0.141,0.143 0.987,0.849 3.741,0.849 z"
     id="path12"
     inkscape:connector-curvature="0"
     style="fill:#226699" />
  <path
     d="m 14.75,16.75 -1.5,0 c -0.413,0 -0.75,-0.337 -0.75,-0.75 0,-0.413 0.337,-0.75 0.75,-0.75 l 1.5,0 c 0.413,0 0.75,0.337 0.75,0.75 0,0.413 -0.337,0.75 -0.75,0.75 z"
     id="path14"
     inkscape:connector-curvature="0"
     style="fill:#55acee" />
  <path
     d="m 8.016,24.95 c 0,0 -0.157,6.817 3.987,6.817 l 0,1.233 -7.019,0 C 4.984,33 4.77,27.076 6,25 l 2.016,-0.05 z m 11.955,0 c 0,0 0.157,6.817 -3.987,6.817 l 0,1.233 7.019,0 c 0,0 0.214,-5.924 -1.016,-8 L 19.971,24.95 Z M 14,5.934 c 0,0 7.149,1.858 8.245,5.204 C 22.723,10.117 23,7.881 23,6.62 23,2.781 20,0 15.125,0 l -2.25,0 C 8.75,0 5,2.781 5,6.62 5,7.882 5.277,10.284 5.754,11.304 6.851,7.957 14,5.934 14,5.934 Z"
     id="path16"
     inkscape:connector-curvature="0"
     style="fill:#744eaa" />
  <g
     id="g18"
     style="fill:#cbb7ea"
     transform="translate(-4,-3)">
    <path
       d="M 26.985,10.177 C 25.589,9.062 23.941,8.14 22.373,7.618 22.008,7.496 21.618,7.694 21.497,8.055 c -0.121,0.363 0.075,0.755 0.438,0.876 1.666,0.555 3.495,1.666 4.882,2.935 0.09,-0.623 0.151,-1.328 0.168,-1.689 z M 9.117,11.311 C 11.124,9.875 17.84,5.552 25.515,5.492 25.042,4.947 24.531,4.555 23.936,4.184 17.23,4.682 11.508,8.023 9.005,9.706 c 0.01,0.455 0.046,1.013 0.112,1.605 z"
       id="path20"
       inkscape:connector-curvature="0" />
    <path
       d="m 26.421,6.89 c -0.028,-0.004 -0.084,0 -0.113,0 -2.835,0 -5.703,0.71 -8.528,2.108 C 17.919,8.956 18,8.934 18,8.934 c 0,0 0.815,0.212 1.937,0.621 2.126,-0.845 4.263,-1.28 6.371,-1.28 0.203,0 0.404,0.014 0.573,0.052 C 26.806,7.908 26.633,7.316 26.421,6.89 Z M 9.188,8.036 C 11.665,6.45 16.289,4.164 21.53,3.252 20.734,3.016 19.983,3 19.125,3 L 17.36,3 C 14.635,4.059 12.208,4.857 10.338,5.887 9.802,6.565 9.404,7.201 9.188,8.036 Z"
       id="path22"
       inkscape:connector-curvature="0" />
  </g>
  <path
     d="m 14.112,2.887 c 0.887,0 1.612,0.726 1.612,1.612 l 0,1.651 c 0,0.887 -0.726,1.612 -1.612,1.612 C 13.225,7.762 12.5,7.036 12.5,6.15 l 0,-1.651 c 0,-0.887 0.726,-1.612 1.612,-1.612 z"
     id="path24"
     inkscape:connector-curvature="0"
     style="fill:#ffd983" />
  <path
     d="m 14.112,3.89 c 0.484,0 0.881,0.396 0.881,0.881 l 0,1.108 c 0,0.484 -0.396,0.881 -0.881,0.881 -0.484,0 -0.881,-0.396 -0.881,-0.881 l 0,-1.108 C 13.232,4.286 13.628,3.89 14.112,3.89 Z"
     id="path26"
     inkscape:connector-curvature="0"
     style="fill:#ffac33" />
  <path
     d="m 22.546,17.159 c 0.032,-0.204 -0.107,-0.396 -0.312,-0.428 -0.209,-0.039 -0.396,0.108 -0.428,0.312 -0.01,0.064 -1.072,6.251 -7.231,6.625 0.111,-0.968 -0.078,-1.805 -0.088,-1.846 -0.063,-0.27 -0.334,-0.44 -0.602,-0.372 -0.269,0.063 -0.435,0.332 -0.372,0.601 0.002,0.009 0.178,0.784 0.052,1.627 -6.269,-0.28 -7.328,-6.37 -7.37,-6.636 -0.033,-0.204 -0.224,-0.344 -0.429,-0.312 -0.204,0.032 -0.344,0.224 -0.312,0.428 0.008,0.049 0.567,3.305 3.133,5.45 0.007,0.017 0.026,0.04 0.07,0.078 0.749,0.646 3.923,3.988 5.34,4.061 l 0,0.001 0.004,-0.001 0.004,0.001 0,-0.001 c 1.416,-0.073 4.591,-3.415 5.34,-4.061 0.043,-0.037 0.062,-0.06 0.07,-0.077 2.564,-2.144 3.124,-5.401 3.131,-5.45 z"
     id="path28"
     inkscape:connector-curvature="0" />
</svg>
