<?xml version="1.0" encoding="UTF-8" standalone="no"?>
<svg
   xmlns:dc="http://purl.org/dc/elements/1.1/"
   xmlns:cc="http://creativecommons.org/ns#"
   xmlns:rdf="http://www.w3.org/1999/02/22-rdf-syntax-ns#"
   xmlns:svg="http://www.w3.org/2000/svg"
   xmlns="http://www.w3.org/2000/svg"
   xmlns:sodipodi="http://sodipodi.sourceforge.net/DTD/sodipodi-0.dtd"
   xmlns:inkscape="http://www.inkscape.org/namespaces/inkscape"
   viewBox="0 0 26.663 30"
   id="svg2"
   version="1.1"
   inkscape:version="0.91 r13725"
   sodipodi:docname="1f9d3-1f3fd.svg"
   width="26.663"
   height="30">
  <metadata
     id="metadata18">
    <rdf:RDF>
      <cc:Work
         rdf:about="">
        <dc:format>image/svg+xml</dc:format>
        <dc:type
           rdf:resource="http://purl.org/dc/dcmitype/StillImage" />
      </cc:Work>
    </rdf:RDF>
  </metadata>
  <defs
     id="defs16" />
  <sodipodi:namedview
     pagecolor="#ffffff"
     bordercolor="#666666"
     borderopacity="1"
     objecttolerance="10"
     gridtolerance="10"
     guidetolerance="10"
     inkscape:pageopacity="0"
     inkscape:pageshadow="2"
     inkscape:window-width="640"
     inkscape:window-height="480"
     id="namedview14"
     showgrid="false"
     inkscape:zoom="6.5555556"
     inkscape:cx="13.334"
     inkscape:cy="17"
     inkscape:window-x="0"
     inkscape:window-y="0"
     inkscape:window-maximized="0"
     inkscape:current-layer="svg2" />
  <path
     d="m 17.334,7 c -4,0 -9,-2 -9,-2 0,0 -2,1 -3,2 C 3.471,8.863 1.61,12.372 1.363,15.312 1.67,23.487 3.084,30 13.334,30 23.584,30 24.94,23.56 25.299,15.449 24.947,11.819 21.144,7 17.334,7 Z"
     id="path4"
     inkscape:connector-curvature="0"
     style="fill:#d5ab88" />
  <path
     d="m 13.334,26.5 c -2.347,0 -3.575,-1.16 -3.707,-1.293 -0.391,-0.391 -0.391,-1.023 0,-1.414 0.387,-0.387 1.013,-0.39 1.404,-0.01 0.051,0.047 0.806,0.717 2.303,0.717 1.519,0 2.273,-0.689 2.305,-0.719 0.398,-0.373 1.027,-0.362 1.408,0.029 0.379,0.393 0.38,1.011 -0.006,1.396 -0.132,0.133 -1.36,1.294 -3.707,1.294 z m 1,-5 -2,0 c -0.552,0 -1,-0.447 -1,-1 0,-0.553 0.448,-1 1,-1 l 2,0 c 0.553,0 1,0.447 1,1 0,0.553 -0.447,1 -1,1 z"
     id="path6"
     inkscape:connector-curvature="0"
     style="fill:#c1694f" />
  <path
     d="m 8.334,19 c -0.552,0 -1,-0.447 -1,-1 l 0,-1 c 0,-0.552 0.448,-1 1,-1 0.552,0 1,0.448 1,1 l 0,1 c 0,0.553 -0.448,1 -1,1 z m 10,0 c -0.553,0 -1,-0.447 -1,-1 l 0,-1 c 0,-0.552 0.447,-1 1,-1 0.553,0 1,0.448 1,1 l 0,1 c 0,0.553 -0.447,1 -1,1 z"
     id="path8"
     inkscape:connector-curvature="0"
     style="fill:#662113" />
  <path
     d="m 20.834,15 -3,0 c -0.553,0 -1,-0.448 -1,-1 0,-0.552 0.447,-1 1,-1 l 3,0 c 0.553,0 1,0.448 1,1 0,0.552 -0.447,1 -1,1 z m -12,0 -3,0 c -0.552,0 -1,-0.448 -1,-1 0,-0.552 0.448,-1 1,-1 l 3,0 c 0.552,0 1,0.448 1,1 0,0.552 -0.448,1 -1,1 z"
     id="path10"
     inkscape:connector-curvature="0"
     style="fill:#d1d3d4" />
  <path
     d="m 13.332,0 c 8.205,0 13.331,5.137 13.331,10.182 0,5.044 -1.026,7.064 -2.051,5.044 C 23.586,13.209 22.334,10 22.334,10 c 0,0 -3,2 -6,-0.828 0,0 1.1,6.054 -5.054,0 0,0 0.054,3.828 -5.127,-1.008 0,0 -3.077,2.018 -4.102,7.062 C 1.767,16.627 0,15.226 0,10.182 0,5.137 4.102,0 13.332,0"
     id="path12"
     inkscape:connector-curvature="0"
     style="fill:#d1d3d4" />
</svg>
