<?xml version="1.0" encoding="UTF-8" standalone="no"?>
<svg
   xmlns:dc="http://purl.org/dc/elements/1.1/"
   xmlns:cc="http://creativecommons.org/ns#"
   xmlns:rdf="http://www.w3.org/1999/02/22-rdf-syntax-ns#"
   xmlns:svg="http://www.w3.org/2000/svg"
   xmlns="http://www.w3.org/2000/svg"
   xmlns:sodipodi="http://sodipodi.sourceforge.net/DTD/sodipodi-0.dtd"
   xmlns:inkscape="http://www.inkscape.org/namespaces/inkscape"
   viewBox="0 0 26 36"
   id="svg2"
   version="1.1"
   inkscape:version="0.91 r13725"
   sodipodi:docname="1f9de-200d-2640-fe0f.svg"
   width="26"
   height="36">
  <metadata
     id="metadata38">
    <rdf:RDF>
      <cc:Work
         rdf:about="">
        <dc:format>image/svg+xml</dc:format>
        <dc:type
           rdf:resource="http://purl.org/dc/dcmitype/StillImage" />
      </cc:Work>
    </rdf:RDF>
  </metadata>
  <defs
     id="defs36" />
  <sodipodi:namedview
     pagecolor="#ffffff"
     bordercolor="#666666"
     borderopacity="1"
     objecttolerance="10"
     gridtolerance="10"
     guidetolerance="10"
     inkscape:pageopacity="0"
     inkscape:pageshadow="2"
     inkscape:window-width="640"
     inkscape:window-height="480"
     id="namedview34"
     showgrid="false"
     inkscape:zoom="6.5555556"
     inkscape:cx="13"
     inkscape:cy="18"
     inkscape:window-x="0"
     inkscape:window-y="0"
     inkscape:window-maximized="0"
     inkscape:current-layer="svg2" />
  <ellipse
     cx="13"
     cy="3.5"
     rx="4"
     ry="3.5"
     id="ellipse4"
     style="fill:#292f33" />
  <ellipse
     cx="13"
     cy="16"
     rx="12"
     ry="10"
     id="ellipse6"
     style="fill:#292f33" />
  <ellipse
     cx="13"
     cy="4"
     rx="3"
     ry="2"
     id="ellipse8"
     style="fill:#ffcc4d" />
  <path
     d="m 26,36 0,-4.5 C 26,28.186 22.44,26 19.125,26 l -12,0 C 3.812,26 0,28.186 0,31.5 l 0,4.5 26,0 z"
     id="path10"
     inkscape:connector-curvature="0"
     style="fill:#88c9f9" />
  <path
     d="m 9.5,26.518 c 1.466,1.065 2.792,0.98 3.5,0.98 0.708,0 2.194,0.085 3.488,-0.949 l 0.012,-4.14 -7,0 0,4.109 z"
     id="path12"
     inkscape:connector-curvature="0"
     style="fill:#88c9f9" />
  <path
     d="m 9.483,24.438 c 0.973,0.938 2.674,1.118 3.508,1.118 0.823,0 2.537,-0.181 3.51,-1.118 l 0,-3.286 -7.017,0 0,3.286 z"
     id="path14"
     inkscape:connector-curvature="0"
     style="fill:#55acee" />
  <path
     d="m 5.734,14.627 c 0,-5.834 3.229,-10.563 7.211,-10.563 3.981,0 7.209,4.73 7.209,10.563 0,5.833 -3.228,10.285 -7.209,10.285 -3.983,0 -7.211,-4.452 -7.211,-10.285"
     id="path16"
     inkscape:connector-curvature="0"
     style="fill:#88c9f9" />
  <path
     d="m 12.945,22.452 c -1.606,0 -2.447,-0.794 -2.537,-0.885 -0.268,-0.267 -0.268,-0.7 0,-0.967 0.266,-0.265 0.692,-0.267 0.961,-0.007 0.035,0.032 0.551,0.491 1.576,0.491 1.038,0 1.555,-0.473 1.576,-0.492 0.273,-0.256 0.703,-0.248 0.963,0.02 0.26,0.269 0.26,0.691 -0.004,0.955 -0.089,0.091 -0.929,0.885 -2.535,0.885"
     id="path18"
     inkscape:connector-curvature="0"
     style="fill:#df1f32" />
  <path
     d="m 9.608,16.796 c -0.465,0 -0.846,-0.381 -0.846,-0.847 l 0,-0.845 c 0,-0.465 0.381,-0.846 0.846,-0.846 0.466,0 0.847,0.381 0.847,0.846 l 0,0.845 c 0,0.466 -0.381,0.847 -0.847,0.847 m 6.765,0 c -0.465,0 -0.846,-0.381 -0.846,-0.847 l 0,-0.845 c 0,-0.465 0.381,-0.846 0.846,-0.846 0.465,0 0.846,0.381 0.846,0.846 l 0,0.845 c 0,0.466 -0.381,0.847 -0.846,0.847"
     id="path20"
     inkscape:connector-curvature="0"
     style="fill:#662113" />
  <path
     d="m 13.836,19.409 -1.69,0 c -0.233,0 -0.423,-0.19 -0.423,-0.423 l 0,-0.153 c 0,-0.233 0.189,-0.424 0.423,-0.424 l 1.69,0 c 0.233,0 0.424,0.19 0.424,0.424 l 0,0.153 c 0,0.234 -0.191,0.423 -0.424,0.423"
     id="path22"
     inkscape:connector-curvature="0"
     style="fill:#55acee" />
  <path
     d="M 13.052,3 C 21.107,3 24,9.197 24,15.123 24,21.049 21.107,23 21.107,23 c 0,0 1,-1.951 0,-3.902 -1,-1.951 -1,-5.854 -1,-5.854 0,0 -2.879,-0.286 -5,-0.976 -3,-0.976 -4,-1.951 -4,-1.951 0,0 -3,2.927 -5,2.927 0,0 0,1.951 -1,4.878 -0.632,1.851 0,4.878 0,4.878 0,0 -3,-2.927 -3,-8.78 C 2.107,8.367 4.996,3 13.052,3 Z"
     id="path24"
     inkscape:connector-curvature="0"
     style="fill:#292f33" />
  <ellipse
     transform="matrix(0.92820036,-0.37208075,0.37208075,0.92820036,0,0)"
     cx="-1.1149838"
     cy="17.329378"
     rx="1.5"
     ry="2.5"
     id="ellipse26"
     style="fill:#88c9f9" />
  <ellipse
     transform="matrix(0.37209695,-0.92819387,0.92819387,0.37209695,0,0)"
     cx="-7.654839"
     cy="25.248327"
     rx="2.5"
     ry="1.5"
     id="ellipse28"
     style="fill:#88c9f9" />
  <path
     d="m 4,36 c 0,0 -1,-3 1,-4 2.828,-1.414 7,3 8,3 1,0 5.172,-4.414 8,-3 2,1 1,4 1,4 L 4,36 Z"
     id="path30"
     inkscape:connector-curvature="0"
     style="fill:#a0041e" />
  <path
     d="m 13,29 c 3,0 4,-3 4,-3 l 1,0 c 0,0 0,5 -5,5 -5,0 -5,-5 -5,-5 l 1,0 c 0,0 1,3 4,3 z"
     id="path32"
     inkscape:connector-curvature="0"
     style="fill:#ffcc4d" />
</svg>
