<?xml version="1.0" encoding="UTF-8" standalone="no"?>
<svg
   xmlns:dc="http://purl.org/dc/elements/1.1/"
   xmlns:cc="http://creativecommons.org/ns#"
   xmlns:rdf="http://www.w3.org/1999/02/22-rdf-syntax-ns#"
   xmlns:svg="http://www.w3.org/2000/svg"
   xmlns="http://www.w3.org/2000/svg"
   xmlns:sodipodi="http://sodipodi.sourceforge.net/DTD/sodipodi-0.dtd"
   xmlns:inkscape="http://www.inkscape.org/namespaces/inkscape"
   viewBox="0 0 34.697594 32.931"
   id="svg2"
   version="1.1"
   inkscape:version="0.91 r13725"
   sodipodi:docname="1f9da-1f3fd-200d-2640-fe0f.svg"
   width="34.697594"
   height="32.931">
  <metadata
     id="metadata36">
    <rdf:RDF>
      <cc:Work
         rdf:about="">
        <dc:format>image/svg+xml</dc:format>
        <dc:type
           rdf:resource="http://purl.org/dc/dcmitype/StillImage" />
      </cc:Work>
    </rdf:RDF>
  </metadata>
  <defs
     id="defs34" />
  <sodipodi:namedview
     pagecolor="#ffffff"
     bordercolor="#666666"
     borderopacity="1"
     objecttolerance="10"
     gridtolerance="10"
     guidetolerance="10"
     inkscape:pageopacity="0"
     inkscape:pageshadow="2"
     inkscape:window-width="640"
     inkscape:window-height="480"
     id="namedview32"
     showgrid="false"
     inkscape:zoom="6.5555556"
     inkscape:cx="17.354514"
     inkscape:cy="18"
     inkscape:window-x="0"
     inkscape:window-y="0"
     inkscape:window-maximized="0"
     inkscape:current-layer="svg2" />
  <path
     d="m 20.123514,17.204 c -4.558,6.089 -5.676,12.675 -2.497,14.71 3.179,2.035 9.451,-1.252 14.008,-7.341 4.558,-6.089 2.752,-17.029 2.497,-16.631 -1.777,2.774 -9.45,3.173 -14.008,9.262 z"
     id="path4"
     inkscape:connector-curvature="0"
     style="fill:#abdfff" />
  <path
     d="m 14.609514,17.204 c 4.558,6.089 5.676,12.675 2.498,14.71 -3.179,2.035 -9.4509997,-1.252 -14.0089997,-7.341 C -1.4594857,18.484 0.25851434,7.604 0.60151434,7.942 4.3545143,11.641 10.052514,11.115 14.609514,17.204 Z"
     id="path6"
     inkscape:connector-curvature="0"
     style="fill:#abdfff" />
  <path
     d="m 3.9525143,14.76 c 0.96,1.604 1.586,3.147 4.251,5.659 1.03,0.971 0.941,2.245 -0.179,1.398 -2.664,-2.015 -4.306,-5.221 -4.848,-7.268 -0.382,-1.441 0.292,-0.597 0.776,0.211 z m 26.8039997,0 c -0.96,1.604 -1.586,3.147 -4.251,5.659 -1.03,0.971 -0.941,2.245 0.179,1.398 2.664,-2.015 4.306,-5.221 4.848,-7.268 0.382,-1.441 -0.292,-0.597 -0.776,0.211 z"
     id="path8"
     inkscape:connector-curvature="0"
     style="fill:#55acee" />
  <path
     d="m 30.354514,32.931 0,-3.5 c 0,-3.314 -3.685,-5.5 -7,-5.5 l -12,0 c -3.3129997,0 -6.9999997,2.186 -6.9999997,5.5 l 0,3.5 25.9999997,0 z"
     id="path10"
     inkscape:connector-curvature="0"
     style="fill:#d5ab88" />
  <path
     d="m 17.299514,0 c 4.105,0 10.947,4.053 10.947,12.947 0,8.896 0,10.948 -2.053,10.948 -2.053,0 -4.79,-2.053 -8.895,-2.053 -4.105,0 -6.785,2.053 -8.8949997,2.053 -2.287,0 -2.053,-8.211 -2.053,-10.948 C 6.3515143,4.053 13.194514,0 17.299514,0"
     id="path12"
     inkscape:connector-curvature="0"
     style="fill:#963b22" />
  <path
     d="m 13.682514,23.949 c 1.466,1.065 2.964,0.98 3.672,0.98 0.708,0 2.194,0.085 3.66,-0.98 l 0,-3.203 -7.332,0 0,3.203 z"
     id="path14"
     inkscape:connector-curvature="0"
     style="fill:#d5ab88" />
  <path
     d="m 13.676514,22.11 c 1.022,1.155 2.29,1.468 3.668,1.468 1.379,0 2.647,-0.312 3.67,-1.468 l 0,-2.936 -7.338,0 0,2.936 z"
     id="path16"
     inkscape:connector-curvature="0"
     style="fill:#cc9b7a" />
  <path
     d="m 9.0885143,12.649 c 0,-5.834 3.6759997,-12.564 8.2109997,-12.564 4.533,0 8.209,6.729 8.209,12.564 0,5.833 -3.676,10.285 -8.209,10.285 -4.535,0 -8.2109997,-4.452 -8.2109997,-10.285"
     id="path18"
     inkscape:connector-curvature="0"
     style="fill:#d5ab88" />
  <path
     d="m 17.299514,20.474 c -1.606,0 -2.447,-0.794 -2.537,-0.885 -0.268,-0.267 -0.268,-0.7 0,-0.967 0.266,-0.265 0.692,-0.267 0.961,-0.007 0.035,0.032 0.551,0.491 1.576,0.491 1.038,0 1.555,-0.473 1.576,-0.492 0.273,-0.256 0.703,-0.248 0.963,0.02 0.26,0.269 0.26,0.691 -0.004,0.955 -0.089,0.091 -0.929,0.885 -2.535,0.885"
     id="path20"
     inkscape:connector-curvature="0"
     style="fill:#df1f32" />
  <path
     d="m 7.0795143,15.931 c -0.021,-1 -0.044,-0.224 -0.044,-0.465 0,-3.422 2.053,0.494 2.053,-1.943 0,-2.439 1.3679997,-2.683 2.7359997,-4.051 0.685,-0.685 2.053,-2.026 2.053,-2.026 0,0 3.421,2.067 6.158,2.067 2.736,0 5.474,1.375 5.474,4.112 0,2.736 2.053,-1.584 2.053,1.837 0,0.244 -0.023,-0.531 -0.04,0.469 l 0.719,0 c 0.006,-2 0.006,-1.924 0.006,-3.202 0,-8.895 -4.893,-12.729 -10.948,-12.729 -5.945,0 -10.9479997,3.779 -10.9479997,12.674 0,0.793 -0.02,1.257 0.008,3.257 l 0.72,0 z"
     id="path22"
     inkscape:connector-curvature="0"
     style="fill:#963b22" />
  <path
     d="m 25.354514,11.931 -0.47,0.129 c 0,0 -1.192,3.401 0,3.997 2.664,1.331 3.47,-3.794 3.47,-5.126 0,-1 -3,1 -3,1 z m -15.9999997,0 0.47,0.129 c 0,0 1.1919997,3.401 0,3.997 -2.664,1.331 -3.47,-3.794 -3.47,-5.126 0,-1 3,1 3,1 z"
     id="path24"
     inkscape:connector-curvature="0"
     style="fill:#d5ab88" />
  <path
     d="m 13.962514,14.818 c -0.465,0 -0.846,-0.381 -0.846,-0.847 l 0,-0.845 c 0,-0.465 0.381,-0.846 0.846,-0.846 0.466,0 0.847,0.381 0.847,0.846 l 0,0.845 c 0,0.466 -0.381,0.847 -0.847,0.847 m 6.765,0 c -0.465,0 -0.846,-0.381 -0.846,-0.847 l 0,-0.845 c 0,-0.465 0.381,-0.846 0.846,-0.846 0.465,0 0.846,0.381 0.846,0.846 l 0,0.845 c 0,0.466 -0.381,0.847 -0.846,0.847"
     id="path26"
     inkscape:connector-curvature="0"
     style="fill:#662113" />
  <path
     d="m 18.190514,17.431 -1.69,0 c -0.233,0 -0.423,-0.19 -0.423,-0.423 l 0,-0.153 c 0,-0.233 0.189,-0.424 0.423,-0.424 l 1.69,0 c 0.233,0 0.424,0.19 0.424,0.424 l 0,0.153 c 0,0.233 -0.191,0.423 -0.424,0.423"
     id="path28"
     inkscape:connector-curvature="0"
     style="fill:#c1694f" />
  <path
     d="m 8.3545143,32.931 17.9999997,0 0,-5 -2.5,2 -2,-2 -2.219,2 -2.281,-2 -2.234,2 -2.25,-2 -2.016,2 -2.4999997,-2 z"
     id="path30"
     inkscape:connector-curvature="0"
     style="fill:#77b255" />
</svg>
