<?xml version="1.0" encoding="UTF-8" standalone="no"?>
<svg
   xmlns:dc="http://purl.org/dc/elements/1.1/"
   xmlns:cc="http://creativecommons.org/ns#"
   xmlns:rdf="http://www.w3.org/1999/02/22-rdf-syntax-ns#"
   xmlns:svg="http://www.w3.org/2000/svg"
   xmlns="http://www.w3.org/2000/svg"
   xmlns:sodipodi="http://sodipodi.sourceforge.net/DTD/sodipodi-0.dtd"
   xmlns:inkscape="http://www.inkscape.org/namespaces/inkscape"
   viewBox="0 0 30 33"
   id="svg2"
   version="1.1"
   inkscape:version="0.91 r13725"
   sodipodi:docname="1f9db-1f3fc.svg"
   width="30"
   height="33">
  <metadata
     id="metadata34">
    <rdf:RDF>
      <cc:Work
         rdf:about="">
        <dc:format>image/svg+xml</dc:format>
        <dc:type
           rdf:resource="http://purl.org/dc/dcmitype/StillImage" />
      </cc:Work>
    </rdf:RDF>
  </metadata>
  <defs
     id="defs32" />
  <sodipodi:namedview
     pagecolor="#ffffff"
     bordercolor="#666666"
     borderopacity="1"
     objecttolerance="10"
     gridtolerance="10"
     guidetolerance="10"
     inkscape:pageopacity="0"
     inkscape:pageshadow="2"
     inkscape:window-width="640"
     inkscape:window-height="480"
     id="namedview30"
     showgrid="false"
     inkscape:zoom="6.5555556"
     inkscape:cx="15"
     inkscape:cy="18"
     inkscape:window-x="0"
     inkscape:window-y="0"
     inkscape:window-maximized="0"
     inkscape:current-layer="svg2" />
  <path
     d="m 29,33 0,-2 c 0,-3.313 -2.687,-6 -6,-6 L 7,25 c -3.313,0 -6,2.687 -6,6 l 0,2 28,0 z"
     id="path4"
     inkscape:connector-curvature="0"
     style="fill:#292f33" />
  <path
     d="M 15,9 C 1,9 0,14 0,14 c 0,4 7,7 7,11 2,3 8,4 8,4 0,0 6,-1 8,-4 0,-4 7,-7 7,-11 0,0 -3.667,-5 -15,-5 z"
     id="path6"
     inkscape:connector-curvature="0"
     style="fill:#be1931" />
  <path
     d="M 19.635,27.033 16.73,28.328 C 16.546,28.129 16.29,28 16,28 l -2,0 c -0.29,0 -0.546,0.129 -0.73,0.328 L 10.365,27.033 C 9.672,26.86 9,27.384 9,28.099 l 0,2 c 0,0.796 0.748,1.38 1.521,1.187 l 2.967,-1.449 C 13.64,29.931 13.809,30 14,30 l 2,0 c 0.191,0 0.36,-0.069 0.512,-0.163 l 2.967,1.449 C 20.252,31.479 21,30.895 21,30.099 l 0,-2 c 0,-0.715 -0.672,-1.239 -1.365,-1.066 z"
     id="path8"
     inkscape:connector-curvature="0"
     style="fill:#e1e8ed" />
  <path
     d="M 12.517,30.325 C 12.492,30.276 11.91,29.13 12.373,27.952 l 0.931,0.367 c -0.294,0.747 0.097,1.537 0.101,1.545 l -0.888,0.461 z m 5.004,0 -0.889,-0.461 c 0.003,-0.005 0.396,-0.798 0.102,-1.545 l 0.93,-0.367 c 0.464,1.178 -0.118,2.324 -0.143,2.373 z"
     id="path10"
     inkscape:connector-curvature="0"
     style="fill:#99aab5" />
  <path
     d="m 10.64,25.101 c 1.744,1.267 2.848,1.962 4.36,1.962 1.511,0 2.616,-0.696 4.36,-1.962 l 0,-3.811 -8.72,0 0,3.811 z"
     id="path12"
     inkscape:connector-curvature="0"
     style="fill:#f3d2a2" />
  <path
     d="m 10.632,22.973 c 1.216,1.374 2.724,1.746 4.364,1.746 1.639,0 3.147,-0.372 4.364,-1.746 l 0,-3.491 -8.728,0 0,3.491 z"
     id="path14"
     inkscape:connector-curvature="0"
     style="fill:#e2c196" />
  <path
     d="M 6.478,13.96 C 6.478,8.371 10.294,3.839 15,3.839 c 4.706,0 8.522,4.531 8.522,10.121 0,5.589 -3.816,10.12 -8.522,10.12 -4.706,0 -8.522,-4.531 -8.522,-10.12 z"
     id="path16"
     inkscape:connector-curvature="0"
     style="fill:#f3d2a2" />
  <path
     d="m 18.755,19.015 c -0.257,-0.256 -0.657,-0.268 -0.913,-0.013 -0.006,0.005 -0.643,0.49 -2.842,0.49 -2.118,0 -2.787,-0.449 -2.839,-0.487 -0.257,-0.232 -0.654,-0.225 -0.902,0.024 -0.256,0.256 -0.256,0.671 0,0.927 0.036,0.036 0.118,0.186 0.265,0.389 -0.033,0.156 -0.031,0.32 0.009,0.481 0.008,0.034 0.02,0.067 0.036,0.098 l 1.012,2.072 c 0.084,0.172 0.258,0.281 0.449,0.281 l 0.009,0 c 0.194,-0.003 0.369,-0.119 0.448,-0.296 l 0.484,-1.085 C 14.281,21.958 14.618,22 15,22 c 0.367,0 0.694,-0.037 0.996,-0.096 l 0.479,1.075 c 0.079,0.177 0.254,0.293 0.448,0.296 l 0.009,0 c 0.191,0 0.365,-0.109 0.449,-0.281 l 1.012,-2.072 c 0.015,-0.031 0.027,-0.064 0.036,-0.098 0.036,-0.144 0.032,-0.29 0.008,-0.432 0.167,-0.226 0.265,-0.4 0.304,-0.438 0.256,-0.256 0.27,-0.683 0.014,-0.939 z"
     id="path18"
     inkscape:connector-curvature="0"
     style="fill:#c1694f" />
  <path
     d="M 16.586,20.188 17.395,20 c 0.368,0 0.639,0.346 0.549,0.703 l -1.012,2.072 -0.88,-1.973 c -0.08,-0.321 0.212,-0.568 0.534,-0.614 z m -3.211,0 L 12.566,20 c -0.368,0 -0.639,0.346 -0.549,0.703 l 1.012,2.072 0.88,-1.973 c 0.08,-0.321 -0.212,-0.568 -0.534,-0.614 z"
     id="path20"
     inkscape:connector-curvature="0"
     style="fill:#f5f8fa" />
  <path
     d="m 11,14 c -0.55,0 -1,-0.45 -1,-1 l 0,-1 c 0,-0.55 0.45,-1 1,-1 0.55,0 1,0.45 1,1 l 0,1 c 0,0.55 -0.45,1 -1,1 z m 8,0 c -0.55,0 -1,-0.45 -1,-1 l 0,-1 c 0,-0.55 0.45,-1 1,-1 0.55,0 1,0.45 1,1 l 0,1 c 0,0.55 -0.45,1 -1,1 z"
     id="path22"
     inkscape:connector-curvature="0"
     style="fill:#dd2e44" />
  <path
     d="m 15.75,16.75 -1.5,0 c -0.413,0 -0.75,-0.337 -0.75,-0.75 0,-0.413 0.337,-0.75 0.75,-0.75 l 1.5,0 c 0.413,0 0.75,0.337 0.75,0.75 0,0.413 -0.337,0.75 -0.75,0.75 z"
     id="path24"
     inkscape:connector-curvature="0"
     style="fill:#c1694f" />
  <path
     d="m 23,13 -0.47,0.129 c 0,0 -1.192,3.401 0,3.997 C 25.194,18.457 26,13.332 26,12 c 0,-1 -3,1 -3,1 z m -16,0 0.47,0.129 c 0,0 1.192,3.401 0,3.997 C 4.806,18.457 4,13.332 4,12 c 0,-1 3,1 3,1 z"
     id="path26"
     inkscape:connector-curvature="0"
     style="fill:#f3d2a2" />
  <path
     d="M 15,0 C 7,0 6,4 6,10 c 0,6 1.757,0.97 2,0 1,-4 5,-5 7,-1 2,-4 6,-3 7,1 0.243,0.97 2,6 2,0 C 24,4 23,0 15,0 Z"
     id="path28"
     inkscape:connector-curvature="0"
     style="fill:#292f33" />
</svg>
