<?xml version="1.0" encoding="UTF-8" standalone="no"?>
<svg
   xmlns:dc="http://purl.org/dc/elements/1.1/"
   xmlns:cc="http://creativecommons.org/ns#"
   xmlns:rdf="http://www.w3.org/1999/02/22-rdf-syntax-ns#"
   xmlns:svg="http://www.w3.org/2000/svg"
   xmlns="http://www.w3.org/2000/svg"
   xmlns:sodipodi="http://sodipodi.sourceforge.net/DTD/sodipodi-0.dtd"
   xmlns:inkscape="http://www.inkscape.org/namespaces/inkscape"
   viewBox="0 0 26 31"
   id="svg2"
   version="1.1"
   inkscape:version="0.91 r13725"
   sodipodi:docname="1f9d5.svg"
   width="26"
   height="31">
  <metadata
     id="metadata24">
    <rdf:RDF>
      <cc:Work
         rdf:about="">
        <dc:format>image/svg+xml</dc:format>
        <dc:type
           rdf:resource="http://purl.org/dc/dcmitype/StillImage" />
      </cc:Work>
    </rdf:RDF>
  </metadata>
  <defs
     id="defs22" />
  <sodipodi:namedview
     pagecolor="#ffffff"
     bordercolor="#666666"
     borderopacity="1"
     objecttolerance="10"
     gridtolerance="10"
     guidetolerance="10"
     inkscape:pageopacity="0"
     inkscape:pageshadow="2"
     inkscape:window-width="640"
     inkscape:window-height="480"
     id="namedview20"
     showgrid="false"
     inkscape:zoom="6.5555556"
     inkscape:cx="13"
     inkscape:cy="18"
     inkscape:window-x="0"
     inkscape:window-y="0"
     inkscape:window-maximized="0"
     inkscape:current-layer="svg2" />
  <path
     d="m 26,31 0,-3.5 C 26,24.186 22.315,22 19,22 L 7,22 c -3.313,0 -7,2.186 -7,5.5 l 0,3.5 26,0 z"
     id="path4"
     inkscape:connector-curvature="0"
     style="fill:#9266cc" />
  <path
     d="m 22.235,11.761 c 0,-8.494 -5.309,-11.026 -9.229,-11.026 -3.92,0 -9.8,2.559 -9.8,11.026 0,3.489 1.255,6.182 0.644,8.238 -1.2,4.038 2.928,7.507 6.15,9.001 4.94,2.29 10,-3 10,-3 3.975,0 2.235,-4.248 2.235,-14.239 z"
     id="path6"
     inkscape:connector-curvature="0"
     style="fill:#744eaa" />
  <path
     d="M 22.807,11.761 C 22.807,3.267 16.926,0 13.006,0 c -3.92,0 -9.8,3.294 -9.8,11.761 0,8.494 7.187,11.761 11.107,11.761 C 17.252,23.521 18.065,25 20,25 c 5.281,0 2.807,-4.419 2.807,-13.239 z"
     id="path8"
     inkscape:connector-curvature="0"
     style="fill:#9266cc" />
  <path
     d="m 11.904,6.166 c -2.167,0.265 -6.558,3.877 -6.719,5.799 0.2,5.341 3.62,9.596 7.821,9.596 4.178,0 7.583,-4.208 7.818,-9.507 -0.23,-2.372 -6.919,-6.133 -8.92,-5.888 z"
     id="path10"
     inkscape:connector-curvature="0"
     style="fill:#ffdc5d" />
  <path
     d="m 12.944,18.543 c -1.605,0 -2.446,-0.794 -2.536,-0.885 -0.268,-0.267 -0.268,-0.7 0,-0.967 0.266,-0.265 0.692,-0.267 0.96,-0.007 0.035,0.032 0.553,0.491 1.576,0.491 1.039,0 1.557,-0.473 1.577,-0.492 0.273,-0.256 0.703,-0.248 0.963,0.02 0.26,0.269 0.26,0.691 -0.004,0.955 -0.089,0.091 -0.929,0.885 -2.536,0.885"
     id="path12"
     inkscape:connector-curvature="0"
     style="fill:#df1f32" />
  <path
     d="m 9.608,12.886 c -0.465,0 -0.846,-0.381 -0.846,-0.846 l 0,-0.845 c 0,-0.465 0.381,-0.846 0.846,-0.846 0.465,0 0.847,0.381 0.847,0.846 l 0,0.845 c 0,0.465 -0.382,0.846 -0.847,0.846 m 6.765,0 c -0.465,0 -0.846,-0.381 -0.846,-0.846 l 0,-0.845 c 0,-0.465 0.381,-0.846 0.846,-0.846 0.465,0 0.846,0.381 0.846,0.846 l 0,0.845 c 0,0.465 -0.381,0.846 -0.846,0.846"
     id="path14"
     inkscape:connector-curvature="0"
     style="fill:#662113" />
  <path
     d="m 13.837,15.5 -1.691,0 c -0.233,0 -0.423,-0.19 -0.423,-0.423 l 0,-0.153 c 0,-0.233 0.189,-0.424 0.423,-0.424 l 1.691,0 c 0.232,0 0.423,0.19 0.423,0.424 l 0,0.153 c 0,0.233 -0.191,0.423 -0.423,0.423"
     id="path16"
     inkscape:connector-curvature="0"
     style="fill:#c1694f" />
  <path
     d="m 5,12 c 0,0 3,-5 8,-5 5,0 8,5 8,5 0,0 -1,-8 -8,-8 -7,0 -8,8 -8,8 z"
     id="path18"
     inkscape:connector-curvature="0"
     style="fill:#553788" />
</svg>
