<?xml version="1.0" encoding="UTF-8" standalone="no"?>
<svg
   xmlns:dc="http://purl.org/dc/elements/1.1/"
   xmlns:cc="http://creativecommons.org/ns#"
   xmlns:rdf="http://www.w3.org/1999/02/22-rdf-syntax-ns#"
   xmlns:svg="http://www.w3.org/2000/svg"
   xmlns="http://www.w3.org/2000/svg"
   xmlns:sodipodi="http://sodipodi.sourceforge.net/DTD/sodipodi-0.dtd"
   xmlns:inkscape="http://www.inkscape.org/namespaces/inkscape"
   viewBox="0 0 36 36"
   id="svg2"
   version="1.1"
   inkscape:version="0.91 r13725"
   sodipodi:docname="1f9d0.svg"
   width="36"
   height="36">
  <metadata
     id="metadata24">
    <rdf:RDF>
      <cc:Work
         rdf:about="">
        <dc:format>image/svg+xml</dc:format>
        <dc:type
           rdf:resource="http://purl.org/dc/dcmitype/StillImage" />
      </cc:Work>
    </rdf:RDF>
  </metadata>
  <defs
     id="defs22" />
  <sodipodi:namedview
     pagecolor="#ffffff"
     bordercolor="#666666"
     borderopacity="1"
     objecttolerance="10"
     gridtolerance="10"
     guidetolerance="10"
     inkscape:pageopacity="0"
     inkscape:pageshadow="2"
     inkscape:window-width="640"
     inkscape:window-height="480"
     id="namedview20"
     showgrid="false"
     inkscape:zoom="6.5555556"
     inkscape:cx="18"
     inkscape:cy="18"
     inkscape:window-x="0"
     inkscape:window-y="0"
     inkscape:window-maximized="0"
     inkscape:current-layer="svg2" />
  <path
     d="M 36,18 C 36,27.941 27.941,36 18,36 8.06,36 0,27.941 0,18 0,8.06 8.06,0 18,0 27.941,0 36,8.06 36,18"
     id="path4"
     inkscape:connector-curvature="0"
     style="fill:#ffcb4c" />
  <ellipse
     cx="12.176"
     cy="14.71"
     rx="2.6470001"
     ry="3.7060001"
     id="ellipse6"
     style="fill:#65471b" />
  <circle
     cx="24.882"
     cy="14.294"
     r="6.882"
     id="circle8"
     style="fill:#f4f7f9" />
  <path
     d="M 14.825,9.946 C 14.503,9.946 14.185,9.8 13.977,9.523 12.986,8.202 11.949,7.494 10.894,7.419 9.504,7.324 8.371,8.366 8.16,8.577 7.746,8.991 7.076,8.991 6.663,8.577 6.249,8.163 6.249,7.493 6.663,7.08 7.12,6.623 8.792,5.144 11.044,5.307 c 1.695,0.12 3.251,1.111 4.627,2.945 0.351,0.468 0.256,1.132 -0.211,1.482 -0.192,0.143 -0.415,0.212 -0.635,0.212 z"
     id="path10"
     inkscape:connector-curvature="0"
     style="fill:#65471b" />
  <path
     d="m 32.824,36 c -0.585,0 -1.059,-0.474 -1.059,-1.059 l 0,-20.117 c 0,-0.585 0.474,-1.059 1.059,-1.059 0.585,0 1.059,0.474 1.059,1.059 l 0,20.118 C 33.882,35.526 33.409,36 32.824,36 Z"
     id="path12"
     inkscape:connector-curvature="0"
     style="fill:#292f33" />
  <path
     d="m 32.824,12.706 c -0.054,0 -0.105,0.012 -0.158,0.016 -0.732,-3.628 -3.943,-6.369 -7.784,-6.369 -4.379,0 -7.941,3.562 -7.941,7.941 0,4.379 3.562,7.941 7.941,7.941 3.468,0 6.416,-2.238 7.496,-5.343 0.144,0.031 0.292,0.049 0.445,0.049 1.17,0 2.118,-0.948 2.118,-2.118 0,-1.169 -0.948,-2.117 -2.117,-2.117 z m -7.942,7.412 c -3.211,0 -5.823,-2.612 -5.823,-5.824 0,-3.212 2.613,-5.824 5.823,-5.824 3.211,0 5.824,2.612 5.824,5.824 0,3.212 -2.613,5.824 -5.824,5.824 z"
     id="path14"
     inkscape:connector-curvature="0"
     style="fill:#67757f" />
  <path
     d="m 21.175,28.588 c -0.159,0 -0.321,-0.036 -0.473,-0.112 -1.819,-0.91 -3.587,-0.91 -5.406,0 -0.524,0.261 -1.16,0.05 -1.421,-0.474 -0.262,-0.523 -0.05,-1.159 0.474,-1.421 2.421,-1.21 4.877,-1.21 7.3,0 0.523,0.262 0.735,0.898 0.474,1.421 -0.185,0.372 -0.559,0.586 -0.948,0.586 z"
     id="path16"
     inkscape:connector-curvature="0"
     style="fill:#65471b" />
  <path
     d="m 28.049,9.411 c -0.912,-0.593 -1.998,-0.94 -3.167,-0.94 -3.216,0 -5.824,2.607 -5.824,5.824 0,1.169 0.348,2.255 0.94,3.167 l 8.051,-8.051 z m -5.652,10.144 c 0.755,0.357 1.595,0.563 2.485,0.563 3.216,0 5.824,-2.607 5.824,-5.824 0,-0.89 -0.206,-1.731 -0.563,-2.485 l -7.746,7.746 z"
     id="path18"
     inkscape:connector-curvature="0"
     style="fill:#bdddf4" />
</svg>
