<?xml version="1.0" encoding="UTF-8" standalone="no"?>
<svg
   xmlns:dc="http://purl.org/dc/elements/1.1/"
   xmlns:cc="http://creativecommons.org/ns#"
   xmlns:rdf="http://www.w3.org/1999/02/22-rdf-syntax-ns#"
   xmlns:svg="http://www.w3.org/2000/svg"
   xmlns="http://www.w3.org/2000/svg"
   xmlns:sodipodi="http://sodipodi.sourceforge.net/DTD/sodipodi-0.dtd"
   xmlns:inkscape="http://www.inkscape.org/namespaces/inkscape"
   viewBox="0 0 22.658222 35.736301"
   id="svg2"
   version="1.1"
   inkscape:version="0.91 r13725"
   sodipodi:docname="1f9ef.svg"
   width="22.658222"
   height="35.736301">
  <metadata
     id="metadata32">
    <rdf:RDF>
      <cc:Work
         rdf:about="">
        <dc:format>image/svg+xml</dc:format>
        <dc:type
           rdf:resource="http://purl.org/dc/dcmitype/StillImage" />
      </cc:Work>
    </rdf:RDF>
  </metadata>
  <defs
     id="defs30" />
  <sodipodi:namedview
     pagecolor="#ffffff"
     bordercolor="#666666"
     borderopacity="1"
     objecttolerance="10"
     gridtolerance="10"
     guidetolerance="10"
     inkscape:pageopacity="0"
     inkscape:pageshadow="2"
     inkscape:window-width="640"
     inkscape:window-height="480"
     id="namedview28"
     showgrid="false"
     inkscape:zoom="6.5555556"
     inkscape:cx="13.810179"
     inkscape:cy="18"
     inkscape:window-x="0"
     inkscape:window-y="0"
     inkscape:window-maximized="0"
     inkscape:current-layer="svg2" />
  <path
     d="m 13.810179,9.7362996 c -1.1,0 -2,-0.9 -2,-2 l 0,-3 c 0,-1.1 0.9,-2 2,-2 1.1,0 2,0.9 2,2 l 0,3 c 0,1.1 -0.9,2 -2,2 z"
     id="path4"
     inkscape:connector-curvature="0"
     style="fill:#66757f" />
  <circle
     cx="13.810179"
     cy="14.7363"
     r="6"
     id="circle6"
     style="fill:#dd2e44" />
  <path
     d="m 11.810179,7.7362996 4,0 0,4.0000004 -4,0 z m 6,28.0000004 -8.0000003,0 c -1.1,0 -2,-0.9 -2,-2 l 0,-19 12.0000003,0 0,19 c 0,1.1 -0.9,2 -2,2 z"
     id="path8"
     inkscape:connector-curvature="0"
     style="fill:#dd2e44" />
  <path
     d="m 5.2161787,35.5853 -4.49200001,-1.263 c -0.529,-0.149 -0.838,-0.533 -0.685,-0.853 l 4.43900001,-9.311 c 0.458,-0.96 1.278,-1.621 1.823,-1.467 l 0.22,0.062 c 0.545,0.153 0.9,1.144 0.791,2.202 l -1.065,10.26 c -0.038,0.353 -0.501,0.519 -1.031,0.37 z"
     id="path10"
     inkscape:connector-curvature="0"
     style="fill:#292f33" />
  <path
     d="m 21.832179,1.9842996 -9.848,1.736 c -0.542,0.095 -1.063,-0.27 -1.158,-0.811 -0.095,-0.542 0.27,-1.063 0.811,-1.158 l 9.848,-1.73600002 c 0.542,-0.096 1.063,0.27 1.158,0.811 0.095,0.54200002 -0.27,1.06300002 -0.811,1.15800002 z"
     id="path12"
     inkscape:connector-curvature="0"
     style="fill:#66757f" />
  <path
     d="m 20.865179,7.0962996 -9.397,-3.42 c -0.517,-0.188 -0.786,-0.765 -0.598,-1.282 0.188,-0.517 0.765,-0.786 1.282,-0.598 l 9.397,3.42 c 0.517,0.188 0.786,0.765 0.598,1.282 -0.188,0.517 -0.765,0.786 -1.282,0.598 z"
     id="path14"
     inkscape:connector-curvature="0"
     style="fill:#66757f" />
  <path
     d="m 6.3341787,24.1433 c -0.042,0 -0.085,-0.004 -0.128,-0.011 -0.408,-0.07 -0.682,-0.459 -0.612,-0.867 0.726,-4.203 0.161,-6.198 -0.336,-7.958 -0.386,-1.364 -0.75,-2.653 -0.33,-4.556 0.934,-4.2290004 4.627,-5.7650004 6.8820003,-5.7650004 0.414,0 0.75,0.336 0.75,0.75 0,0.414 -0.336,0.75 -0.75,0.75 -1.225,0 -4.5860003,0.824 -5.4170003,4.5890004 -0.339,1.535 -0.067,2.495 0.309,3.824 0.515,1.819 1.155,4.083 0.372,8.622 -0.064,0.364 -0.382,0.622 -0.74,0.622 z"
     id="path16"
     inkscape:connector-curvature="0"
     style="fill:#292f33" />
  <circle
     cx="11.810179"
     cy="6.7362995"
     r="3"
     id="circle18"
     style="fill:#ccd6dd" />
  <circle
     cx="11.810179"
     cy="6.7362995"
     r="2"
     id="circle20"
     style="fill:#dd2e44" />
  <path
     d="m 12.310179,9.7362996 c -0.828,0 -1.5,1.5670004 -1.5,3.5000004 l 0,22 c 0,0.275 0.225,0.5 0.5,0.5 l 2,0 c 0.275,0 0.5,-0.225 0.5,-0.5 l 0,-22 c 0,-1.933 -0.672,-3.5000004 -1.5,-3.5000004 z"
     id="path22"
     inkscape:connector-curvature="0"
     style="fill:#ea596e" />
  <path
     d="m 16.310179,17.7363 -5,0 c -0.825,0 -1.5000003,-0.675 -1.5000003,-1.5 l 0,-2 c 0,-0.825 0.6750003,-1.5 1.5000003,-1.5 l 5,0 c 0.825,0 1.5,0.675 1.5,1.5 l 0,2 c 0,0.825 -0.675,1.5 -1.5,1.5 z"
     id="path24"
     inkscape:connector-curvature="0"
     style="fill:#f5f8fa" />
  <path
     d="m 11.810179,4.7362996 c -0.552,0 -1.052,0.224 -1.414,0.586 l 1.414,1.414 1.414,-1.414 c -0.362,-0.362 -0.862,-0.586 -1.414,-0.586 z"
     id="path26"
     inkscape:connector-curvature="0"
     style="fill:#77b255" />
</svg>
