<?xml version="1.0" encoding="UTF-8" standalone="no"?>
<svg
   xmlns:dc="http://purl.org/dc/elements/1.1/"
   xmlns:cc="http://creativecommons.org/ns#"
   xmlns:rdf="http://www.w3.org/1999/02/22-rdf-syntax-ns#"
   xmlns:svg="http://www.w3.org/2000/svg"
   xmlns="http://www.w3.org/2000/svg"
   xmlns:sodipodi="http://sodipodi.sourceforge.net/DTD/sodipodi-0.dtd"
   xmlns:inkscape="http://www.inkscape.org/namespaces/inkscape"
   viewBox="0 0 34 34.014473"
   id="svg2"
   version="1.1"
   inkscape:version="0.91 r13725"
   sodipodi:docname="1f9e5.svg"
   width="34"
   height="34.014473">
  <metadata
     id="metadata16">
    <rdf:RDF>
      <cc:Work
         rdf:about="">
        <dc:format>image/svg+xml</dc:format>
        <dc:type
           rdf:resource="http://purl.org/dc/dcmitype/StillImage" />
      </cc:Work>
    </rdf:RDF>
  </metadata>
  <defs
     id="defs14" />
  <sodipodi:namedview
     pagecolor="#ffffff"
     bordercolor="#666666"
     borderopacity="1"
     objecttolerance="10"
     gridtolerance="10"
     guidetolerance="10"
     inkscape:pageopacity="0"
     inkscape:pageshadow="2"
     inkscape:window-width="640"
     inkscape:window-height="480"
     id="namedview12"
     showgrid="false"
     inkscape:zoom="6.5555556"
     inkscape:cx="17"
     inkscape:cy="17.514475"
     inkscape:window-x="0"
     inkscape:window-y="0"
     inkscape:window-maximized="0"
     inkscape:current-layer="svg2" />
  <path
     d="m 29,7.5 c -1,-2 -5,-4 -7,-4 0,0 1.194,-2.174 -1,-3 C 20.013,0.128 19,0 17,0 c -1.615,0 -3.013,0.128 -4,0.5 -2.194,0.826 -1,3 -1,3 -2,0 -6,2 -7,4 -1,2 -5,21.969 -5,25.5 0,1 4.632,1.43 5,0.5 0.791,-2 3,-16 3,-16 l 0,15 c 0,2 5,1 9,1 4,0 9,1 9,-1 l 0,-15 c 0,0 2.525,15.12 3,16 0.499,0.923 5,0.5 5,-0.5 C 34,29.469 30,9.5 29,7.5 Z"
     id="path4"
     inkscape:connector-curvature="0"
     style="fill:#55acee" />
  <path
     d="m 13,1.5 c 0,-0.552 0,-1 4,-1 4,0 4,0.448 4,1 0,0.552 -1.791,2 -4,2 -2.209,0 -4,-1.448 -4,-2 z"
     id="path6"
     inkscape:connector-curvature="0"
     style="fill:#226699" />
  <path
     d="m 17,33 c -0.276,0 -0.5,-0.224 -0.5,-0.5 l 0,-28 C 16.5,4.224 16.724,4 17,4 c 0.276,0 0.5,0.224 0.5,0.5 l 0,28 c 0,0.276 -0.224,0.5 -0.5,0.5 z m -4.375,-0.972 c -1.794,0 -3.564,-0.177 -3.675,-0.188 -0.275,-0.027 -0.475,-0.272 -0.447,-0.548 0.028,-0.273 0.273,-0.479 0.548,-0.446 0.041,0.003 4.044,0.401 5.985,0.007 0.272,-0.055 0.535,0.119 0.59,0.391 0.055,0.271 -0.119,0.534 -0.39,0.59 -0.72,0.145 -1.669,0.194 -2.611,0.194 z m -0.97,-3.084 c -1.378,0 -2.627,-0.079 -2.881,-0.096 -0.275,-0.019 -0.484,-0.257 -0.465,-0.532 0.019,-0.275 0.246,-0.49 0.533,-0.466 1.323,0.089 5.002,0.223 6.109,-0.219 0.257,-0.102 0.547,0.021 0.65,0.278 0.103,0.257 -0.022,0.548 -0.279,0.649 -0.763,0.306 -2.28,0.386 -3.667,0.386 z m 1.217,-3.179 c -1.65,0 -3.551,-0.143 -4.105,-0.188 -0.275,-0.022 -0.48,-0.264 -0.458,-0.538 0.023,-0.275 0.268,-0.479 0.539,-0.458 2.574,0.208 5.549,0.275 6.072,0.024 0.25,-0.119 0.548,-0.014 0.667,0.235 0.119,0.249 0.014,0.548 -0.235,0.667 -0.409,0.196 -1.39,0.258 -2.48,0.258 z m -0.039,-3.09 c -1.77,0 -3.75,-0.208 -4.08,-0.244 -0.274,-0.03 -0.473,-0.276 -0.443,-0.552 0.029,-0.274 0.272,-0.478 0.551,-0.442 1.344,0.147 5.059,0.438 6.091,0.032 0.255,-0.104 0.547,0.025 0.649,0.281 0.101,0.258 -0.025,0.548 -0.282,0.648 -0.527,0.208 -1.472,0.277 -2.486,0.277 z m 0.047,-3.524 c -1.753,0 -3.767,-0.112 -4.102,-0.132 -0.276,-0.016 -0.486,-0.252 -0.47,-0.528 0.016,-0.275 0.249,-0.505 0.528,-0.47 1.382,0.08 5.187,0.237 6.189,0.012 0.27,-0.062 0.537,0.107 0.598,0.377 0.061,0.27 -0.108,0.537 -0.378,0.598 -0.475,0.106 -1.379,0.143 -2.365,0.143 z M 8.807,15.875 c -0.27,0 -0.492,-0.371 -0.5,-0.642 C 8.3,14.957 8.518,14.649 8.794,14.642 l 6.328,-0.205 c 0.246,0.011 0.506,0.191 0.513,0.467 0.007,0.276 -0.211,0.652 -0.487,0.659 l -6.328,0.312 -0.013,0 z M 15.552,5.5 15.528,5.5 C 14.555,5.5 12.94,4.596 12.759,4.496 12.517,4.363 12.428,4.067 12.562,3.825 12.695,3.583 13,3.5 13.241,3.631 c 0.606,0.333 1.775,0.872 2.334,0.898 0.276,0.013 0.489,0.233 0.476,0.508 C 16.039,5.306 15.817,5.5 15.552,5.5 Z m 10.02,5.784 c -0.104,0 -0.21,-0.033 -0.3,-0.1 -0.221,-0.166 -0.266,-0.479 -0.101,-0.7 l 2.293,-3.068 c 0.167,-0.222 0.48,-0.264 0.7,-0.1 0.221,0.166 0.266,0.479 0.101,0.7 l -2.293,3.068 c -0.098,0.131 -0.248,0.2 -0.4,0.2 z"
     id="path8"
     inkscape:connector-curvature="0"
     style="fill:#3b88c3" />
  <path
     d="m 17.044,33 c -0.276,0 -0.5,-0.224 -0.5,-0.5 l 0,-28 c 0,-0.276 0.224,-0.5 0.5,-0.5 0.276,0 0.5,0.224 0.5,0.5 l 0,28 c 0,0.276 -0.224,0.5 -0.5,0.5 z m 9.473,-18.76 c -0.209,0 -0.404,-0.132 -0.475,-0.342 -0.087,-0.262 0.055,-0.545 0.316,-0.632 l 3,-1 c 0.262,-0.087 0.545,0.054 0.633,0.316 0.087,0.262 -0.055,0.545 -0.316,0.632 l -3,1 c -0.053,0.018 -0.106,0.026 -0.158,0.026 z m 0.612,3.481 c -0.209,0 -0.404,-0.133 -0.475,-0.342 -0.087,-0.262 0.055,-0.545 0.316,-0.633 l 3,-1 c 0.263,-0.084 0.545,0.054 0.633,0.316 0.087,0.262 -0.055,0.545 -0.316,0.632 l -3,1 c -0.053,0.019 -0.105,0.027 -0.158,0.027 z m 0.576,3.485 c -0.209,0 -0.404,-0.133 -0.475,-0.342 -0.087,-0.262 0.055,-0.545 0.316,-0.633 l 3,-1 c 0.262,-0.087 0.545,0.055 0.633,0.316 0.087,0.262 -0.055,0.545 -0.316,0.633 l -3,1 c -0.052,0.019 -0.105,0.026 -0.158,0.026 z m 0.642,3.488 c -0.209,-0.003 -0.402,-0.139 -0.469,-0.349 -0.083,-0.263 0.063,-0.544 0.326,-0.628 l 3.014,-0.955 c 0.263,-0.082 0.544,0.063 0.628,0.326 0.083,0.263 -0.063,0.544 -0.326,0.628 l -3.014,0.955 c -0.054,0.017 -0.107,0.024 -0.159,0.023 z m 0.594,3.405 c -0.208,-0.017 -0.392,-0.165 -0.445,-0.379 -0.065,-0.268 0.099,-0.539 0.367,-0.605 l 3.071,-0.754 c 0.269,-0.065 0.539,0.099 0.605,0.367 0.065,0.268 -0.099,0.539 -0.367,0.605 l -3.071,0.754 c -0.054,0.013 -0.107,0.017 -0.16,0.012 z m 0.577,3.439 c -0.208,-0.02 -0.39,-0.171 -0.44,-0.386 -0.061,-0.269 0.107,-0.537 0.376,-0.599 l 3.082,-0.706 c 0.269,-0.061 0.537,0.107 0.599,0.376 0.061,0.269 -0.107,0.537 -0.376,0.599 l -3.082,0.706 c -0.053,0.013 -0.106,0.015 -0.159,0.01 z m -8.099,0.49 c -0.942,0 -1.891,-0.049 -2.61,-0.195 -0.271,-0.056 -0.445,-0.319 -0.391,-0.59 0.056,-0.271 0.324,-0.446 0.59,-0.391 1.943,0.399 5.946,-0.003 5.985,-0.007 0.271,-0.032 0.521,0.171 0.548,0.446 0.028,0.275 -0.172,0.521 -0.446,0.548 -0.113,0.012 -1.882,0.189 -3.676,0.189 z m 0.971,-3.084 c -1.388,0 -2.904,-0.08 -3.667,-0.385 -0.257,-0.102 -0.381,-0.393 -0.278,-0.649 0.103,-0.256 0.395,-0.383 0.649,-0.278 1.108,0.441 4.786,0.309 6.109,0.219 0.248,-0.017 0.514,0.189 0.532,0.466 0.019,0.275 -0.189,0.514 -0.466,0.532 -0.253,0.016 -1.502,0.095 -2.879,0.095 z m -1.218,-3.179 c -1.091,0 -2.071,-0.062 -2.479,-0.258 -0.249,-0.119 -0.354,-0.418 -0.235,-0.667 0.119,-0.249 0.419,-0.353 0.667,-0.235 0.524,0.251 3.497,0.185 6.072,-0.024 0.271,-0.021 0.517,0.183 0.538,0.458 0.022,0.274 -0.183,0.516 -0.458,0.538 -0.553,0.045 -2.455,0.188 -4.105,0.188 z m 0.038,-3.09 c -1.014,0 -1.958,-0.068 -2.485,-0.276 -0.257,-0.101 -0.383,-0.391 -0.281,-0.648 0.102,-0.257 0.392,-0.385 0.648,-0.281 1.031,0.404 4.746,0.115 6.09,-0.032 0.271,-0.03 0.521,0.167 0.552,0.442 0.03,0.275 -0.168,0.521 -0.442,0.552 -0.332,0.035 -2.312,0.243 -4.082,0.243 z m -0.064,-3.524 c 1.753,0 3.767,-0.112 4.102,-0.132 0.276,-0.016 0.486,-0.252 0.47,-0.528 -0.016,-0.275 -0.249,-0.505 -0.528,-0.47 -1.382,0.08 -5.187,0.237 -6.189,0.012 -0.269,-0.062 -0.537,0.107 -0.598,0.377 -0.061,0.27 0.108,0.537 0.378,0.598 0.476,0.106 1.38,0.143 2.365,0.143 z m 4.09,-3.276 -0.013,0 -6.328,-0.322 c -0.276,-0.007 -0.494,-0.315 -0.487,-0.591 0.007,-0.275 0.251,-0.511 0.513,-0.526 l 6.328,0.147 c 0.276,0.007 0.494,0.383 0.487,0.659 -0.007,0.272 -0.229,0.633 -0.5,0.633 z M 19.043,12.25 c -0.253,0 -0.47,-0.191 -0.496,-0.449 -0.028,-0.274 0.171,-0.52 0.445,-0.549 l 4.818,-0.499 c 0.267,-0.028 0.521,0.171 0.549,0.446 0.028,0.274 -0.171,0.52 -0.445,0.549 l -4.818,0.499 -0.053,0.003 z m 0.084,-3.547 c -0.197,0 -0.385,-0.118 -0.463,-0.312 -0.104,-0.256 0.02,-0.547 0.275,-0.651 1.6,-0.648 6.095,-0.93 6.307,-0.942 0.312,-0.025 0.511,0.199 0.524,0.474 0.015,0.276 -0.197,0.511 -0.474,0.525 -1.393,0.072 -4.783,0.383 -5.982,0.869 -0.061,0.025 -0.125,0.037 -0.187,0.037 z M 8.496,11.284 c 0.104,0 0.21,-0.033 0.3,-0.1 0.221,-0.166 0.266,-0.479 0.101,-0.7 L 6.604,7.416 c -0.167,-0.222 -0.48,-0.264 -0.7,-0.1 -0.221,0.166 -0.266,0.479 -0.1,0.7 l 2.293,3.068 c 0.097,0.131 0.248,0.2 0.399,0.2 z M 7.552,14.24 c 0.209,0 0.404,-0.132 0.475,-0.342 0.087,-0.262 -0.055,-0.545 -0.316,-0.632 l -3,-1 c -0.262,-0.087 -0.545,0.054 -0.633,0.316 -0.087,0.262 0.055,0.545 0.316,0.632 l 3,1 c 0.052,0.018 0.105,0.026 0.158,0.026 z M 6.94,17.721 c 0.209,0 0.404,-0.133 0.475,-0.342 C 7.502,17.117 7.36,16.834 7.099,16.746 l -3,-1 C 3.836,15.662 3.554,15.8 3.466,16.062 c -0.087,0.262 0.055,0.545 0.316,0.632 l 3,1 c 0.052,0.019 0.105,0.027 0.158,0.027 z m -0.577,3.485 c 0.209,0 0.404,-0.133 0.475,-0.342 0.087,-0.262 -0.055,-0.545 -0.316,-0.633 l -3,-1 C 3.26,19.144 2.977,19.286 2.889,19.547 2.802,19.809 2.944,20.092 3.205,20.18 l 3,1 c 0.053,0.019 0.106,0.026 0.158,0.026 z M 5.722,24.694 C 5.931,24.691 6.124,24.555 6.191,24.345 6.274,24.082 6.128,23.801 5.865,23.717 L 2.851,22.762 C 2.588,22.68 2.307,22.825 2.223,23.088 2.14,23.351 2.286,23.632 2.549,23.716 l 3.014,0.955 c 0.053,0.017 0.106,0.024 0.159,0.023 z M 5.127,28.099 C 5.335,28.082 5.519,27.934 5.572,27.72 5.637,27.452 5.473,27.181 5.205,27.115 L 2.134,26.361 c -0.269,-0.065 -0.539,0.099 -0.605,0.367 -0.065,0.268 0.099,0.539 0.367,0.605 l 3.071,0.754 c 0.055,0.013 0.108,0.017 0.16,0.012 z M 4.55,31.538 C 4.758,31.518 4.94,31.367 4.99,31.152 5.051,30.883 4.883,30.615 4.614,30.553 L 1.532,29.847 C 1.263,29.786 0.995,29.954 0.933,30.223 0.872,30.492 1.04,30.76 1.309,30.822 l 3.082,0.706 c 0.053,0.013 0.107,0.015 0.159,0.01 z M 15.025,12.25 c 0.253,0 0.47,-0.191 0.496,-0.449 0.028,-0.274 -0.171,-0.52 -0.445,-0.549 l -4.818,-0.499 c -0.267,-0.028 -0.521,0.171 -0.549,0.446 -0.028,0.274 0.171,0.52 0.445,0.549 l 4.818,0.499 0.053,0.003 z M 14.942,8.703 c 0.197,0 0.385,-0.118 0.463,-0.312 C 15.509,8.135 15.385,7.844 15.13,7.74 13.53,7.092 9.035,6.81 8.823,6.798 8.51,6.772 8.312,6.997 8.298,7.271 8.283,7.547 8.495,7.783 8.772,7.797 c 1.394,0.072 4.783,0.383 5.982,0.869 0.062,0.025 0.125,0.037 0.188,0.037 z M 18.492,5.5 c -0.266,0 -0.487,-0.193 -0.5,-0.461 -0.013,-0.276 0.201,-0.502 0.476,-0.515 0.561,-0.026 1.729,-0.56 2.334,-0.892 0.243,-0.132 0.548,-0.044 0.68,0.199 0.133,0.242 0.044,0.532 -0.197,0.664 -0.181,0.1 -1.797,1.005 -2.769,1.005 l -0.024,0 z"
     id="path10"
     inkscape:connector-curvature="0"
     style="fill:#3b88c3" />
</svg>
