<?xml version="1.0" encoding="UTF-8" standalone="no"?>
<svg
   xmlns:dc="http://purl.org/dc/elements/1.1/"
   xmlns:cc="http://creativecommons.org/ns#"
   xmlns:rdf="http://www.w3.org/1999/02/22-rdf-syntax-ns#"
   xmlns:svg="http://www.w3.org/2000/svg"
   xmlns="http://www.w3.org/2000/svg"
   xmlns:sodipodi="http://sodipodi.sourceforge.net/DTD/sodipodi-0.dtd"
   xmlns:inkscape="http://www.inkscape.org/namespaces/inkscape"
   viewBox="0 0 36 36"
   id="svg2"
   version="1.1"
   inkscape:version="0.91 r13725"
   sodipodi:docname="1f9ee.svg"
   width="36"
   height="36">
  <metadata
     id="metadata30">
    <rdf:RDF>
      <cc:Work
         rdf:about="">
        <dc:format>image/svg+xml</dc:format>
        <dc:type
           rdf:resource="http://purl.org/dc/dcmitype/StillImage" />
      </cc:Work>
    </rdf:RDF>
  </metadata>
  <defs
     id="defs28" />
  <sodipodi:namedview
     pagecolor="#ffffff"
     bordercolor="#666666"
     borderopacity="1"
     objecttolerance="10"
     gridtolerance="10"
     guidetolerance="10"
     inkscape:pageopacity="0"
     inkscape:pageshadow="2"
     inkscape:window-width="640"
     inkscape:window-height="480"
     id="namedview26"
     showgrid="false"
     inkscape:zoom="6.5555556"
     inkscape:cx="18"
     inkscape:cy="18"
     inkscape:window-x="0"
     inkscape:window-y="0"
     inkscape:window-maximized="0"
     inkscape:current-layer="svg2" />
  <path
     d="m 3,16 0,-2 30,0 0,2 z m 0,7 0,-2 30,0 0,2 z m 0,7 0,-2 30,0 0,2 z M 3,9 3,7 33,7 33,9 Z"
     id="path4"
     inkscape:connector-curvature="0"
     style="fill:#ccd6dd" />
  <path
     d="M 35,33 35,1 C 35,0.448 34.552,0 34,0 L 33,0 C 32.448,0 32,0.448 32,1 L 4,1 C 4,0.448 3.552,0 3,0 L 2,0 C 1.448,0 1,0.448 1,1 l 0,32 34,0 z M 4,4 32,4 32,33 4,33 4,4 Z"
     id="path6"
     inkscape:connector-curvature="0"
     style="fill:#d5ab88" />
  <path
     d="M 19,5.5 C 18.171,5.5 17.5,6.171 17.5,7 17.5,6.171 16.829,5.5 16,5.5 15.171,5.5 14.5,6.171 14.5,7 14.5,6.171 13.829,5.5 13,5.5 12.171,5.5 11.5,6.171 11.5,7 11.5,6.171 10.829,5.5 10,5.5 9.171,5.5 8.5,6.171 8.5,7 8.5,6.171 7.829,5.5 7,5.5 6.171,5.5 5.5,6.171 5.5,7 l 0,2 c 0,0.829 0.671,1.5 1.5,1.5 0.829,0 1.5,-0.671 1.5,-1.5 0,0.829 0.671,1.5 1.5,1.5 0.829,0 1.5,-0.671 1.5,-1.5 0,0.829 0.671,1.5 1.5,1.5 0.829,0 1.5,-0.671 1.5,-1.5 0,0.829 0.671,1.5 1.5,1.5 0.829,0 1.5,-0.671 1.5,-1.5 0,0.829 0.671,1.5 1.5,1.5 0.828,0 1.5,-0.671 1.5,-1.5 l 0,-2 C 20.5,6.171 19.828,5.5 19,5.5 Z"
     id="path8"
     inkscape:connector-curvature="0"
     style="fill:#3b94d9" />
  <path
     d="m 19,12.5 c -0.829,0 -1.5,0.671 -1.5,1.5 0,-0.829 -0.671,-1.5 -1.5,-1.5 -0.829,0 -1.5,0.671 -1.5,1.5 0,-0.829 -0.671,-1.5 -1.5,-1.5 -0.829,0 -1.5,0.671 -1.5,1.5 0,-0.829 -0.671,-1.5 -1.5,-1.5 -0.829,0 -1.5,0.671 -1.5,1.5 0,-0.829 -0.671,-1.5 -1.5,-1.5 -0.829,0 -1.5,0.671 -1.5,1.5 l 0,2 c 0,0.829 0.671,1.5 1.5,1.5 0.829,0 1.5,-0.671 1.5,-1.5 0,0.829 0.671,1.5 1.5,1.5 0.829,0 1.5,-0.671 1.5,-1.5 0,0.829 0.671,1.5 1.5,1.5 0.829,0 1.5,-0.671 1.5,-1.5 0,0.829 0.671,1.5 1.5,1.5 0.829,0 1.5,-0.671 1.5,-1.5 0,0.829 0.671,1.5 1.5,1.5 0.828,0 1.5,-0.671 1.5,-1.5 l 0,-2 c 0,-0.829 -0.672,-1.5 -1.5,-1.5 z"
     id="path10"
     inkscape:connector-curvature="0"
     style="fill:#be1931" />
  <path
     d="m 19,19.5 c -0.829,0 -1.5,0.672 -1.5,1.5 0,-0.828 -0.671,-1.5 -1.5,-1.5 -0.829,0 -1.5,0.672 -1.5,1.5 0,-0.828 -0.671,-1.5 -1.5,-1.5 -0.829,0 -1.5,0.672 -1.5,1.5 0,-0.828 -0.671,-1.5 -1.5,-1.5 -0.829,0 -1.5,0.672 -1.5,1.5 0,-0.828 -0.671,-1.5 -1.5,-1.5 -0.829,0 -1.5,0.672 -1.5,1.5 l 0,2 c 0,0.828 0.671,1.5 1.5,1.5 0.829,0 1.5,-0.672 1.5,-1.5 0,0.828 0.671,1.5 1.5,1.5 0.829,0 1.5,-0.672 1.5,-1.5 0,0.828 0.671,1.5 1.5,1.5 0.829,0 1.5,-0.672 1.5,-1.5 0,0.828 0.671,1.5 1.5,1.5 0.829,0 1.5,-0.672 1.5,-1.5 0,0.828 0.671,1.5 1.5,1.5 0.828,0 1.5,-0.672 1.5,-1.5 l 0,-2 c 0,-0.828 -0.672,-1.5 -1.5,-1.5 z"
     id="path12"
     inkscape:connector-curvature="0"
     style="fill:#5c913b" />
  <path
     d="m 19,26.5 c -0.829,0 -1.5,0.672 -1.5,1.5 0,-0.828 -0.671,-1.5 -1.5,-1.5 -0.829,0 -1.5,0.672 -1.5,1.5 0,-0.828 -0.671,-1.5 -1.5,-1.5 -0.829,0 -1.5,0.672 -1.5,1.5 0,-0.828 -0.671,-1.5 -1.5,-1.5 -0.829,0 -1.5,0.672 -1.5,1.5 0,-0.828 -0.671,-1.5 -1.5,-1.5 -0.829,0 -1.5,0.672 -1.5,1.5 l 0,2 c 0,0.828 0.671,1.5 1.5,1.5 0.829,0 1.5,-0.672 1.5,-1.5 0,0.828 0.671,1.5 1.5,1.5 0.829,0 1.5,-0.672 1.5,-1.5 0,0.828 0.671,1.5 1.5,1.5 0.829,0 1.5,-0.672 1.5,-1.5 0,0.828 0.671,1.5 1.5,1.5 0.829,0 1.5,-0.672 1.5,-1.5 0,0.828 0.671,1.5 1.5,1.5 0.828,0 1.5,-0.672 1.5,-1.5 l 0,-2 c 0,-0.828 -0.672,-1.5 -1.5,-1.5 z"
     id="path14"
     inkscape:connector-curvature="0"
     style="fill:#ffac33" />
  <path
     d="M 29,10.5 C 28.172,10.5 27.5,9.829 27.5,9 l 0,-2 c 0,-0.829 0.672,-1.5 1.5,-1.5 0.828,0 1.5,0.671 1.5,1.5 l 0,2 c 0,0.829 -0.672,1.5 -1.5,1.5 z"
     id="path16"
     inkscape:connector-curvature="0"
     style="fill:#3b94d9" />
  <path
     d="m 29,17.5 c -0.828,0 -1.5,-0.671 -1.5,-1.5 l 0,-2 c 0,-0.829 0.672,-1.5 1.5,-1.5 0.828,0 1.5,0.671 1.5,1.5 l 0,2 c 0,0.829 -0.672,1.5 -1.5,1.5 z"
     id="path18"
     inkscape:connector-curvature="0"
     style="fill:#be1931" />
  <path
     d="m 29,24.5 c -0.828,0 -1.5,-0.672 -1.5,-1.5 l 0,-2 c 0,-0.828 0.672,-1.5 1.5,-1.5 0.828,0 1.5,0.672 1.5,1.5 l 0,2 c 0,0.828 -0.672,1.5 -1.5,1.5 z"
     id="path20"
     inkscape:connector-curvature="0"
     style="fill:#5c913b" />
  <path
     d="m 29,31.5 c -0.828,0 -1.5,-0.672 -1.5,-1.5 l 0,-2 c 0,-0.828 0.672,-1.5 1.5,-1.5 0.828,0 1.5,0.672 1.5,1.5 l 0,2 c 0,0.828 -0.672,1.5 -1.5,1.5 z"
     id="path22"
     inkscape:connector-curvature="0"
     style="fill:#ffac33" />
  <path
     d="M 35,33 1,33 c -0.552,0 -1,0.448 -1,1 l 0,1 c 0,0.552 0.448,1 1,1 l 34,0 c 0.552,0 1,-0.448 1,-1 l 0,-1 c 0,-0.552 -0.448,-1 -1,-1 z"
     id="path24"
     inkscape:connector-curvature="0"
     style="fill:#bf6952" />
</svg>
