<?xml version="1.0" encoding="UTF-8" standalone="no"?>
<svg
   xmlns:dc="http://purl.org/dc/elements/1.1/"
   xmlns:cc="http://creativecommons.org/ns#"
   xmlns:rdf="http://www.w3.org/1999/02/22-rdf-syntax-ns#"
   xmlns:svg="http://www.w3.org/2000/svg"
   xmlns="http://www.w3.org/2000/svg"
   xmlns:sodipodi="http://sodipodi.sourceforge.net/DTD/sodipodi-0.dtd"
   xmlns:inkscape="http://www.inkscape.org/namespaces/inkscape"
   viewBox="0 0 32.171795 35.734329"
   id="svg2"
   version="1.1"
   inkscape:version="0.91 r13725"
   sodipodi:docname="1f9e4.svg"
   width="32.171795"
   height="35.734329">
  <metadata
     id="metadata18">
    <rdf:RDF>
      <cc:Work
         rdf:about="">
        <dc:format>image/svg+xml</dc:format>
        <dc:type
           rdf:resource="http://purl.org/dc/dcmitype/StillImage" />
      </cc:Work>
    </rdf:RDF>
  </metadata>
  <defs
     id="defs16" />
  <sodipodi:namedview
     pagecolor="#ffffff"
     bordercolor="#666666"
     borderopacity="1"
     objecttolerance="10"
     gridtolerance="10"
     guidetolerance="10"
     inkscape:pageopacity="0"
     inkscape:pageshadow="2"
     inkscape:window-width="640"
     inkscape:window-height="480"
     id="namedview14"
     showgrid="false"
     inkscape:zoom="6.5555556"
     inkscape:cx="16.085476"
     inkscape:cy="17.866155"
     inkscape:window-x="0"
     inkscape:window-y="0"
     inkscape:window-maximized="0"
     inkscape:current-layer="svg2" />
  <path
     d="m 31.419476,26.964174 c -0.588,-1.143 -1.532,-4.627 -1.246,-5.976 0.286,-1.349 1.015,-3.975 0.402,-6.053 l -2.274,-7.7070005 c 0,0 -0.108,-1.503 -1.519,-1.122 -1.949,0.526 -1.501,2.043 -1.501,2.043 l 0.715,3.0920005 1.157,2.42 c 0,0 -0.701,0.206 -1.551,-2.674 l -2.872,-9.7310005 c 0,0 -0.067,-1.48799999 -1.485,-1.13299999 -1.85,0.463 -1.521,2.10199999 -1.521,2.10199999 l 2.662,9.0200005 c -0.402,0.05 -0.456,0.203 -0.46,0.191 l -2.905,-9.8460005 c 0,0 0.079,-1.46099999 -1.354,-1.17899999 -1.92,0.377 -1.695,2.07999999 -1.695,2.07999999 l 2.939,9.8510005 c 0.003,0.012 -0.479,0.156 -0.473,0.176 l -2.506,-8.4940005 c 0,0 0.059,-1.547 -1.355,-1.179 -2.018,0.525 -1.659,2.142 -1.659,2.142 l 2.676,9.0500005 c 0.024,0.083 -0.45,0.226 -0.419,0.33 l -1.92,-6.5070005 c 0,0 0.079,-1.461 -1.355,-1.178 -1.837,0.363 -1.448,2.006 -1.448,2.006 l 3.101,10.5100005 0.037,-0.011 c -0.02,0.005 0.074,0.474 0.17,0.711 0.604,1.49 1.395,2.726 2.324,3.706 0.029,0.094 0.078,0.186 0.163,0.277 0.969,1.036 3.396,4.267 4.325,7.59 0.581,2.078 4.215,0.914 5.026,0.556 1.078,-0.477 -0.641,-3.61 -0.753,-4.311 -0.112,-0.701 0.618,-1.482 1.096,-0.51 0.479,0.972 0.646,4.026 1.657,3.835 1.012,-0.191 2.888,-1.17 3.558,-1.855 0.44,-0.452 0.851,-1.079 0.263,-2.222 z"
     id="path4"
     inkscape:connector-curvature="0"
     style="fill:#292f33" />
  <path
     d="m 31.879476,26.773174 c -0.588,-1.143 -1.532,-4.627 -1.246,-5.976 0.286,-1.349 1.015,-3.975 0.402,-6.053 l -2.274,-7.7060005 c 0,0 -0.413,-1.401 -1.816,-0.988 -1.4,0.414 -0.987,1.815 -0.987,1.815 l 0.886,3.0030005 0.768,2.602 c 0,0 -0.701,0.206 -1.551,-2.675 l -2.872,-9.7310005 c 0,0 -0.414,-1.40099999 -1.815,-0.98799999 -1.401,0.414 -0.988,1.81499999 -0.988,1.81499999 l 2.715,9.2030005 c -0.006,-0.02 -0.713,0.162 -0.717,0.15 l -2.905,-9.8460005 c 0,0 -0.413,-1.40199999 -1.815,-0.98799999 -1.401,0.414 -0.988,1.81499999 -0.988,1.81499999 l 2.905,9.8470005 c 0.003,0.012 -0.692,0.235 -0.686,0.255 l -2.506,-8.4940005 c 0,0 -0.414,-1.401 -1.815,-0.988 -1.401,0.414 -0.988,1.815 -0.988,1.815 l 2.665,9.0300005 c 0.024,0.083 -0.649,0.383 -0.618,0.486 l -1.92,-6.5070005 c 0,0 -0.414,-1.401 -1.815,-0.987 -1.401,0.414 -0.988,1.815 -0.988,1.815 l 3.102,10.5100005 0.037,-0.011 c -0.02,0.005 0.074,0.474 0.17,0.711 0.604,1.49 1.395,2.726 2.324,3.705 0.029,0.094 0.078,0.187 0.163,0.277 0.969,1.036 3.396,4.267 4.325,7.59 0.581,2.078 4.215,0.914 5.026,0.556 1.078,-0.477 -0.641,-3.61 -0.753,-4.311 -0.112,-0.7 0.618,-1.482 1.096,-0.51 0.479,0.972 0.646,4.026 1.657,3.835 1.012,-0.191 2.888,-1.17 3.558,-1.855 0.441,-0.451 0.853,-1.078 0.264,-2.221 z"
     id="path6"
     inkscape:connector-curvature="0"
     style="fill:#66757f" />
  <path
     d="m 27.828476,25.893174 c -1.09,-0.681 -3.683,-3.193 -4.127,-4.498 -0.444,-1.305 -1.16,-3.935 -2.75,-5.407 l -5.895,-5.461 c 0,0 -0.861,-1.2360005 -1.879,-0.188 -1.406,1.448 -0.245,2.523 -0.245,2.523 l 2.196,2.291 2.231,1.488 c 0,0 -0.497,0.536 -2.701,-1.505 L 7.2144756,8.2411735 c 0,0 -0.819,-1.244 -1.855,-0.214 -1.353,1.344 -0.233,2.5840005 -0.233,2.5840005 l 6.8990004,6.391 c -0.32,0.248 -0.288,0.408 -0.298,0.399 l -7.5310004,-6.976 c 0,0 -0.679,-1.2960005 -1.767,-0.321 -1.45699996,1.306 -0.393,2.654 -0.393,2.654 l 7.563,6.964 c 0.009,0.008 -0.332,0.379 -0.317,0.393 l -6.496,-6.018 c 0,0 -0.74,-1.359 -1.767,-0.32 -1.46599996,1.483 -0.32999996,2.689 -0.32999996,2.689 l 6.92799996,6.409 c 0.063,0.058 -0.271,0.424 -0.192,0.498 l -4.977,-4.611 c 0,0 -0.679,-1.296 -1.76699996,-0.32 -1.393,1.252 -0.219,2.464 -0.219,2.464 0,0 7.86599996,7.274 8.03899996,7.447 0.173,0.172 0.536,0.496 0.536,0.496 1.3190004,1.112 2.4010004,1.536 3.7980004,2.031 0.156,0.056 0.257,0.086 0.376,0.12 1.363,0.395 5.1,1.931 7.597,4.311 1.562,1.488 4.09,-1.37 4.603,-2.092 0.683,-0.961 -2.397,-2.775 -2.851,-3.32 -0.454,-0.545 -0.227,-1.589 0.681,-0.999 0.908,0.59 2.613,3.13 3.385,2.448 0.772,-0.681 1.884,-2.482 2.11,-3.413 0.148,-0.612 0.181,-1.361 -0.908,-2.042 z"
     id="path8"
     inkscape:connector-curvature="0"
     style="fill:#66757f" />
  <path
     d="m 28.126476,25.493174 c -1.09,-0.681 -3.682,-3.193 -4.127,-4.498 -0.444,-1.305 -1.16,-3.935 -2.75,-5.407 l -5.895,-5.461 c 0,0 -1.072,-0.9930005 -2.065,0.079 -0.992,1.072 0.08,2.064 0.08,2.064 l 2.297,2.128 1.991,1.844 c 0,0 -0.497,0.536 -2.701,-1.505 L 7.5124756,7.8421735 c 0,0 -1.072,-0.993 -2.065,0.079 -0.992,1.072 0.079,2.065 0.079,2.065 l 7.0390004,6.5200005 c -0.015,-0.014 -0.53,0.504 -0.54,0.495 l -7.5310004,-6.976 c 0,0 -1.072,-0.9930005 -2.065,0.079 -0.993,1.072 0.079,2.064 0.079,2.064 l 7.5320004,6.977 c 0.009,0.008 -0.4750004,0.556 -0.4600004,0.57 l -6.496,-6.017 c 0,0 -1.072,-0.993 -2.065,0.079 -0.99299996,1.072 0.079,2.065 0.079,2.065 l 6.907,6.398 c 0.063,0.059 -0.362,0.661 -0.283,0.734 l -4.977,-4.61 c 0,0 -1.072,-0.993 -2.06499996,0.08 -0.993,1.072 0.079,2.065 0.079,2.065 l 8.03899996,7.447 c 0,0 0.332,0.341 0.536,0.496 1.2800004,0.972 2.4440004,1.603 3.7410004,2.01 0.127,0.042 0.314,0.107 0.433,0.141 1.363,0.395 5.1,1.931 7.597,4.311 1.562,1.489 4.09,-1.37 4.603,-2.092 0.683,-0.961 -2.397,-2.775 -2.851,-3.32 -0.454,-0.545 -0.227,-1.589 0.681,-0.999 0.908,0.59 2.613,3.13 3.385,2.448 0.772,-0.681 1.884,-2.482 2.11,-3.413 0.149,-0.614 0.182,-1.364 -0.907,-2.045 z"
     id="path10"
     inkscape:connector-curvature="0"
     style="fill:#99aab5" />
  <path
     d="m 17.182476,27.492174 c -0.067,0 -0.136,-0.014 -0.202,-0.043 l -6.529,-2.883 c -0.252,-0.111 -0.367,-0.406 -0.255,-0.659 0.112,-0.252 0.406,-0.366 0.66,-0.255 l 6.529,2.883 c 0.252,0.111 0.367,0.406 0.255,0.659 -0.083,0.187 -0.267,0.298 -0.458,0.298 z m 2.497,-2.997 c -0.127,0 -0.253,-0.048 -0.351,-0.144 l -5.253,-5.167 c -0.197,-0.193 -0.2,-0.51 -0.006,-0.707 0.193,-0.197 0.51,-0.2 0.707,-0.006 l 5.252,5.167 c 0.197,0.193 0.199,0.51 0.006,0.707 -0.096,0.1 -0.226,0.15 -0.355,0.15 z m -1.226,1.453 c -0.098,0 -0.195,-0.028 -0.281,-0.087 l -6.235,-4.241 c -0.229,-0.155 -0.288,-0.466 -0.132,-0.694 0.155,-0.229 0.467,-0.286 0.695,-0.132 l 6.235,4.241 c 0.228,0.155 0.287,0.466 0.132,0.694 -0.097,0.143 -0.255,0.219 -0.414,0.219 z"
     id="path12"
     inkscape:connector-curvature="0"
     style="fill:#66757f" />
</svg>
