<?xml version="1.0" encoding="UTF-8" standalone="no"?>
<svg
   xmlns:dc="http://purl.org/dc/elements/1.1/"
   xmlns:cc="http://creativecommons.org/ns#"
   xmlns:rdf="http://www.w3.org/1999/02/22-rdf-syntax-ns#"
   xmlns:svg="http://www.w3.org/2000/svg"
   xmlns="http://www.w3.org/2000/svg"
   xmlns:sodipodi="http://sodipodi.sourceforge.net/DTD/sodipodi-0.dtd"
   xmlns:inkscape="http://www.inkscape.org/namespaces/inkscape"
   viewBox="0 0 35.824162 35.824162"
   id="svg2"
   version="1.1"
   inkscape:version="0.91 r13725"
   sodipodi:docname="1f9ea.svg"
   width="35.824162"
   height="35.824162">
  <metadata
     id="metadata18">
    <rdf:RDF>
      <cc:Work
         rdf:about="">
        <dc:format>image/svg+xml</dc:format>
        <dc:type
           rdf:resource="http://purl.org/dc/dcmitype/StillImage" />
      </cc:Work>
    </rdf:RDF>
  </metadata>
  <defs
     id="defs16" />
  <sodipodi:namedview
     pagecolor="#ffffff"
     bordercolor="#666666"
     borderopacity="1"
     objecttolerance="10"
     gridtolerance="10"
     guidetolerance="10"
     inkscape:pageopacity="0"
     inkscape:pageshadow="2"
     inkscape:window-width="640"
     inkscape:window-height="480"
     id="namedview14"
     showgrid="false"
     inkscape:zoom="6.5555556"
     inkscape:cx="17.895"
     inkscape:cy="17.929"
     inkscape:window-x="0"
     inkscape:window-y="0"
     inkscape:window-maximized="0"
     inkscape:current-layer="svg2" />
  <path
     d="m 14.458,14.309161 10.907,-10.9090004 6.961,6.9620004 -10.908,10.908 z"
     id="path4"
     inkscape:connector-curvature="0"
     style="fill:#ccd6dd" />
  <path
     d="m 7.998,34.294161 c -5.603,-0.399 -6.603,-4.337 -6.468,-6.467 0.322,-5.07 15.601,-16.551 15.601,-16.551 l 12.517,1.93 c 0.001,0 -17.389,21.392 -21.65,21.088 z"
     id="path6"
     inkscape:connector-curvature="0"
     style="fill:#68e090" />
  <path
     d="M 32.221,3.6031606 C 29.3,0.68216063 25.999,-0.75383937 24.849,0.39716063 c -0.013,0.013 -0.022,0.031 -0.034,0.044 -0.006,0.006 -0.015,0.008 -0.021,0.014 L 2.19,23.059161 c -1.412,1.412 -2.19,3.29 -2.19,5.288 0,1.997 0.778,3.875 2.19,5.287 1.413,1.413 3.291,2.19 5.288,2.19 1.998,0 3.875,-0.777 5.287,-2.189 l 22.604,-22.604 c 0.007,-0.007 0.009,-0.016 0.015,-0.023 0.013,-0.012 0.03,-0.02 0.043,-0.033 C 36.578,9.8251606 35.142,6.5241606 32.221,3.6031606 Z M 10.645,31.514161 c -0.846,0.846 -1.97,1.311 -3.166,1.311 -1.196,0 -2.321,-0.466 -3.167,-1.312 -0.846,-0.846 -1.312,-1.97 -1.312,-3.167 0,-1.196 0.466,-2.32 1.311,-3.166 L 25.307,4.1851606 c 0.622,1.144 1.56,2.394 2.749,3.584 1.189,1.189 2.44,2.127 3.584,2.7490004 l -20.995,20.996 z"
     id="path8"
     inkscape:connector-curvature="0"
     style="fill:#8899a6" />
  <path
     d="m 29.091,13.039161 c -0.058,0.379 -2.627,0.751 -5.691,0.343 -3.063,-0.408 -5.482,-1.223 -5.403,-1.82 0.08,-0.597 2.627,-0.751 5.691,-0.343 3.064,0.408 5.495,1.224 5.403,1.82 z m -18.356,10.103 c -0.31,0.31 -0.813,0.31 -1.123,0 -0.31,-0.31 -0.31,-0.813 0,-1.123 0.31,-0.31 0.813,-0.31 1.123,0 0.31,0.31 0.31,0.813 0,1.123 z m 3.317,2.615 c -0.507,0.507 -1.328,0.506 -1.835,0 -0.506,-0.506 -0.506,-1.328 0,-1.834 0.507,-0.507 1.328,-0.506 1.834,0 0.507,0.506 0.508,1.327 10e-4,1.834 z m 1.677,-5.324 c -0.476,0.476 -1.25,0.476 -1.726,0 -0.476,-0.476 -0.476,-1.249 0,-1.726 0.476,-0.476 1.249,-0.477 1.725,0 0.478,0.477 0.478,1.25 10e-4,1.726 z m -6.868,8.858 c -0.581,0.581 -1.524,0.581 -2.105,0 -0.582,-0.582 -0.581,-1.524 0,-2.105 0.581,-0.581 1.523,-0.581 2.105,0 0.581,0.581 0.582,1.523 0,2.105 z m 11.396,-9.158 c -0.413,0.413 -1.083,0.413 -1.496,0 -0.413,-0.413 -0.412,-1.083 0.001,-1.496 0.414,-0.414 1.083,-0.414 1.496,-10e-4 0.413,0.414 0.413,1.083 -10e-4,1.497 z m -1.207,-4.288 c -0.27,0.27 -0.708,0.27 -0.979,0 -0.27,-0.27 -0.27,-0.708 0,-0.979 0.27,-0.27 0.708,-0.271 0.979,0 0.27,0.271 0.27,0.709 0,0.979 z"
     id="path10"
     inkscape:connector-curvature="0"
     style="fill:#17bf63" />
  <ellipse
     transform="matrix(0.70709444,-0.70711912,0.70711912,0.70709444,0,0)"
     cx="18.097134"
     cy="25.336065"
     rx="1.184"
     ry="4.8470001"
     id="ellipse12"
     style="fill:#ccd6dd" />
</svg>
