<?xml version="1.0" encoding="UTF-8" standalone="no"?>
<svg
   xmlns:dc="http://purl.org/dc/elements/1.1/"
   xmlns:cc="http://creativecommons.org/ns#"
   xmlns:rdf="http://www.w3.org/1999/02/22-rdf-syntax-ns#"
   xmlns:svg="http://www.w3.org/2000/svg"
   xmlns="http://www.w3.org/2000/svg"
   xmlns:sodipodi="http://sodipodi.sourceforge.net/DTD/sodipodi-0.dtd"
   xmlns:inkscape="http://www.inkscape.org/namespaces/inkscape"
   viewBox="0 0 35.749096 35.750603"
   id="svg2"
   version="1.1"
   inkscape:version="0.91 r13725"
   sodipodi:docname="1f9f7.svg"
   width="35.749096"
   height="35.750603">
  <metadata
     id="metadata14">
    <rdf:RDF>
      <cc:Work
         rdf:about="">
        <dc:format>image/svg+xml</dc:format>
        <dc:type
           rdf:resource="http://purl.org/dc/dcmitype/StillImage" />
      </cc:Work>
    </rdf:RDF>
  </metadata>
  <defs
     id="defs12" />
  <sodipodi:namedview
     pagecolor="#ffffff"
     bordercolor="#666666"
     borderopacity="1"
     objecttolerance="10"
     gridtolerance="10"
     guidetolerance="10"
     inkscape:pageopacity="0"
     inkscape:pageshadow="2"
     inkscape:window-width="640"
     inkscape:window-height="480"
     id="namedview10"
     showgrid="false"
     inkscape:zoom="6.5555556"
     inkscape:cx="18"
     inkscape:cy="18"
     inkscape:window-x="0"
     inkscape:window-y="0"
     inkscape:window-maximized="0"
     inkscape:current-layer="svg2" />
  <path
     d="m 5.864,24.022604 c -3.238,0 -5.864,2.625 -5.864,5.864 0,3.239 2.626,5.864 5.864,5.864 3.238,0 5.864,-2.625 5.864,-5.864 0,-3.239 -2.625,-5.864 -5.864,-5.864 z m 0,10.053 c -2.313,0 -4.189,-1.875 -4.189,-4.189 0,-2.313 1.875,-4.189 4.189,-4.189 2.314,0 4.189,1.875 4.189,4.189 0,2.313 -1.875,4.189 -4.189,4.189 z M 19.67,3.6886044 c -1.131,1.131 -1.924,2.197 -2.441,3.211 -0.427,0.835 -0.241,1.852 0.422,2.515 l 8.684,8.6839996 c 0.663,0.663 1.68,0.849 2.515,0.422 1.014,-0.518 2.08,-1.31 3.211,-2.441 5.133,-5.133 4.381,-9.9289996 0.959,-13.3509996 -3.422,-3.42199999 -8.217,-4.173 -13.35,0.96 z"
     id="path4"
     inkscape:connector-curvature="0"
     style="fill:#99aab5" />
  <path
     d="m 30.544,9.5996044 c -0.616,2.4989996 -4.393,4.0959996 -6.195,0.8779996 -1.848,2.601 0,5.214 1.182,6.816 -2.072,-1.876 -5.127,-4.89 -7.222,-7.222 2.047,1.467 3.85,1.516 3.85,0.851 0,-2.4199996 2.133,-5.8869996 4.552,-5.8869996 2.419,0 4.412,2.215 3.833,4.564 z"
     id="path6"
     inkscape:connector-curvature="0"
     style="fill:#66757f" />
  <path
     d="m 1.356,26.513604 c 0.621,-1.188 8.854,-12.722 17.213,-19.1939996 l 0.98,1.265 C 12.225,14.255604 4.757,24.234604 3.086,26.752604 c -0.156,0.235 -1.73,-0.239 -1.73,-0.239 z m 8.292,7.661 -0.714,-1.432 c 1.066,-0.532 12.235,-8.36 18.666,-16.358 l 1.246,1.003 c -6.431,8 -17.591,15.986 -19.198,16.787 z"
     id="path8"
     inkscape:connector-curvature="0"
     style="fill:#99aab5" />
</svg>
