<?xml version="1.0" encoding="UTF-8" standalone="no"?>
<svg
   xmlns:dc="http://purl.org/dc/elements/1.1/"
   xmlns:cc="http://creativecommons.org/ns#"
   xmlns:rdf="http://www.w3.org/1999/02/22-rdf-syntax-ns#"
   xmlns:svg="http://www.w3.org/2000/svg"
   xmlns="http://www.w3.org/2000/svg"
   xmlns:sodipodi="http://sodipodi.sourceforge.net/DTD/sodipodi-0.dtd"
   xmlns:inkscape="http://www.inkscape.org/namespaces/inkscape"
   viewBox="0 0 36 27.458931"
   id="svg2"
   version="1.1"
   inkscape:version="0.91 r13725"
   sodipodi:docname="1f9fa.svg"
   width="36"
   height="27.458931">
  <metadata
     id="metadata20">
    <rdf:RDF>
      <cc:Work
         rdf:about="">
        <dc:format>image/svg+xml</dc:format>
        <dc:type
           rdf:resource="http://purl.org/dc/dcmitype/StillImage" />
      </cc:Work>
    </rdf:RDF>
  </metadata>
  <defs
     id="defs18" />
  <sodipodi:namedview
     pagecolor="#ffffff"
     bordercolor="#666666"
     borderopacity="1"
     objecttolerance="10"
     gridtolerance="10"
     guidetolerance="10"
     inkscape:pageopacity="0"
     inkscape:pageshadow="2"
     inkscape:window-width="640"
     inkscape:window-height="480"
     id="namedview16"
     showgrid="false"
     inkscape:zoom="6.5555556"
     inkscape:cx="18"
     inkscape:cy="14"
     inkscape:window-x="0"
     inkscape:window-y="0"
     inkscape:window-maximized="0"
     inkscape:current-layer="svg2" />
  <path
     d="m 2,10.833931 c 0,0 -2,-3.6250001 -2,-7.6250001 C 0,-0.79106911 3.786,-0.33306911 5,0.77093089 6.292,1.9449309 8,5.7089309 8,5.7089309 l -1,0.688 c 0,0 -0.833,-1.51 -1.833,-2.823 -1,-1.313 -2.75,-0.943 -2.75,1.057 0,2 1.583,5.8280001 1.583,5.8280001 l -2,0.375 z m 32,0 c 0,0 2,-3.6250001 2,-7.6250001 C 36,-0.79106911 32.214,-0.33306911 31,0.77093089 29.708,1.9449309 28,5.7089309 28,5.7089309 l 1,0.688 c 0,0 0.833,-1.51 1.833,-2.823 1,-1.313 2.75,-0.943 2.75,1.057 0,2 -1.583,5.8280001 -1.583,5.8280001 l 2,0.375 z"
     id="path4"
     inkscape:connector-curvature="0"
     style="fill:#c1694f" />
  <path
     d="m 33.238,12.220931 c 0,4.734 -2.857,15.238 -15.238,15.238 -12.381,0 -15.238,-10.504 -15.238,-15.238 0,-2.8570001 5.77,-4.7620001 15.238,-4.7620001 9.468,0 15.238,1.905 15.238,4.7620001 z"
     id="path6"
     inkscape:connector-curvature="0"
     style="fill:#c1694f" />
  <path
     d="m 35,9.0149309 c 0,6.4440001 -6.959,8.4440001 -17,8.4440001 -10.041,0 -17,-2 -17,-8.4440001 0,-3.334 6.438,-5.556 17,-5.556 10.562,0 17,2.222 17,5.556 z"
     id="path8"
     inkscape:connector-curvature="0"
     style="fill:#d99e82" />
  <ellipse
     cx="18"
     cy="9.0149307"
     rx="15.938"
     ry="4.4439998"
     id="ellipse10"
     style="fill:#662113" />
  <path
     d="m 17,23.448931 c -3.646,-0.051 -6.853,-0.387 -9.415,-1.138 1.007,1.094 2.262,2.045 3.784,2.765 1.717,0.226 3.608,0.341 5.631,0.37 l 0,-1.997 z m 2,0 0,1.998 c 2.022,-0.029 3.913,-0.143 5.631,-0.37 1.522,-0.721 2.777,-1.671 3.784,-2.765 -2.562,0.749 -5.769,1.085 -9.415,1.137 z m -9.87,-4.766 c -1.77,-0.38 -3.312,-0.906 -4.55,-1.628 0.282,0.861 0.648,1.728 1.11,2.576 1.299,0.572 2.848,0.984 4.583,1.276 -0.451,-0.727 -0.828,-1.475 -1.143,-2.224 z m 8.87,2.776 c 1.875,0 3.64,-0.071 5.275,-0.226 0.458,-0.697 0.845,-1.417 1.173,-2.141 -1.953,0.249 -4.11,0.367 -6.448,0.367 -2.442,0 -4.684,-0.129 -6.703,-0.403 0.327,0.727 0.716,1.448 1.174,2.148 1.705,0.174 3.555,0.255 5.529,0.255 z m 8.61,-2.724 c -0.317,0.746 -0.695,1.492 -1.147,2.215 1.844,-0.293 3.483,-0.718 4.848,-1.32 0.462,-0.848 0.828,-1.715 1.11,-2.576 -1.299,0.758 -2.932,1.299 -4.811,1.681 z"
     id="path12"
     inkscape:connector-curvature="0"
     style="fill:#d99e82" />
  <path
     d="m 17,8.0529309 c -3.646,0.051 -6.853,0.387 -9.415,1.138 1.007,-1.094 2.262,-2.045 3.784,-2.765 1.717,-0.226 3.608,-0.341 5.631,-0.37 l 0,1.997 z m 2,0 0,-1.998 c 2.022,0.029 3.913,0.143 5.631,0.37 1.522,0.721 2.777,1.671 3.784,2.765 -2.562,-0.75 -5.769,-1.086 -9.415,-1.137 z M 9.178,12.714931 c 0.306,-0.714 0.665,-1.427 1.095,-2.12 -1.716,0.288 -3.247,0.695 -4.537,1.257 0.99,0.332 2.15,0.623 3.442,0.863 z m 8.822,-2.672 c 1.875,0 3.64,0.071 5.275,0.226 0.458,0.697 0.845,1.417 1.173,2.141 -1.953,-0.249 -4.109,-0.367 -6.448,-0.367 -2.442,0 -4.684,0.129 -6.703,0.403 0.327,-0.727 0.716,-1.448 1.174,-2.148 1.705,-0.175 3.555,-0.255 5.529,-0.255 z m 7.463,0.508 c 0.449,0.719 0.825,1.46 1.14,2.201 1.378,-0.247 2.617,-0.55 3.661,-0.9 -1.356,-0.591 -2.977,-1.011 -4.801,-1.301 z"
     id="path14"
     inkscape:connector-curvature="0"
     style="fill:#8a4633" />
</svg>
