<?xml version="1.0" encoding="UTF-8" standalone="no"?>
<svg
   xmlns:dc="http://purl.org/dc/elements/1.1/"
   xmlns:cc="http://creativecommons.org/ns#"
   xmlns:rdf="http://www.w3.org/1999/02/22-rdf-syntax-ns#"
   xmlns:svg="http://www.w3.org/2000/svg"
   xmlns="http://www.w3.org/2000/svg"
   xmlns:sodipodi="http://sodipodi.sourceforge.net/DTD/sodipodi-0.dtd"
   xmlns:inkscape="http://www.inkscape.org/namespaces/inkscape"
   viewBox="0 0 33 34.458134"
   id="svg2"
   version="1.1"
   inkscape:version="0.91 r13725"
   sodipodi:docname="1f9fc.svg"
   width="33"
   height="34.458134">
  <metadata
     id="metadata58">
    <rdf:RDF>
      <cc:Work
         rdf:about="">
        <dc:format>image/svg+xml</dc:format>
        <dc:type
           rdf:resource="http://purl.org/dc/dcmitype/StillImage" />
      </cc:Work>
    </rdf:RDF>
  </metadata>
  <defs
     id="defs56" />
  <sodipodi:namedview
     pagecolor="#ffffff"
     bordercolor="#666666"
     borderopacity="1"
     objecttolerance="10"
     gridtolerance="10"
     guidetolerance="10"
     inkscape:pageopacity="0"
     inkscape:pageshadow="2"
     inkscape:window-width="640"
     inkscape:window-height="480"
     id="namedview54"
     showgrid="false"
     inkscape:zoom="6.5555556"
     inkscape:cx="16"
     inkscape:cy="17.224897"
     inkscape:window-x="0"
     inkscape:window-y="0"
     inkscape:window-maximized="0"
     inkscape:current-layer="svg2" />
  <circle
     cx="26.5"
     cy="25.733238"
     r="3.5"
     id="circle4"
     style="fill:#ccd6dd" />
  <circle
     cx="27.5"
     cy="24.733238"
     r="2.5"
     id="circle6"
     style="fill:#f5f8fa" />
  <circle
     cx="24"
     cy="29.233238"
     r="3"
     id="circle8"
     style="fill:#ccd6dd" />
  <circle
     cx="24.5"
     cy="28.733238"
     r="2.5"
     id="circle10"
     style="fill:#f5f8fa" />
  <path
     d="m 30.469,7.4212374 c 0,0 1.156,2.375 0.531,6.8439996 -0.625,4.469 -2.428,7.734 -7.384,12.737 -8.411,8.493 -14.321,9.461 -19.461,4.271 -1.883,-1.901 -2.627,-3.883 -2.936,-5.977 -0.309,-2.094 -0.228,-4.757 -0.219,-5.063 0.034,-1.234 1.188,-4.667 1.188,-4.667 L 30.469,7.4212374 Z"
     id="path12"
     inkscape:connector-curvature="0"
     style="fill:#ea596e" />
  <path
     d="m 8.261,7.5912374 c 3.207,-3.282 7.529,-6.524 11.02,-7.35799997 3.582,-0.856 6.319,0.766 8.484,2.88099997 1.87,1.827 3.482,4.751 3.141,7.7749996 -0.438,3.889 -3.512,8.087 -7.167,11.827 -3.095,3.167 -7.228,6.373 -10.614,7.267 -3.723,0.982 -6.652,-0.602 -8.891,-2.79 -1.933,-1.889 -3.565,-4.781 -3.141,-7.929 0.515,-3.813 3.608,-8.031 7.168,-11.6729996 z"
     id="path14"
     inkscape:connector-curvature="0"
     style="fill:#f4abba" />
  <path
     d="m 9.626,7.6082374 c 3.179,-3.24 6.801,-6.001 10.03,-6.531 2.428,-0.39899997 4.675,0.785 6.111,2.193 1.363,1.337 2.642,3.525 2.389,5.807 -0.368,3.3189996 -3.118,7.0499996 -6.418,10.4139996 -2.682,2.734 -6.094,5.501 -8.926,6.336 -3.049,0.9 -5.481,-0.297 -7.215,-1.998 -1.618,-1.587 -2.826,-3.994 -2.191,-6.815 0.678,-3.01 3.345,-6.475 6.22,-9.4059996 z"
     id="path16"
     inkscape:connector-curvature="0"
     style="fill:#ffccd6" />
  <circle
     cx="7"
     cy="9.2332373"
     r="3"
     id="circle18"
     style="fill:#ccd6dd" />
  <circle
     cx="7.5"
     cy="8.7332373"
     r="2.5"
     id="circle20"
     style="fill:#f5f8fa" />
  <circle
     cx="3.5"
     cy="7.7332373"
     r="2.5"
     id="circle22"
     style="fill:#ccd6dd" />
  <circle
     cx="10"
     cy="5.2332373"
     r="3"
     id="circle24"
     style="fill:#ccd6dd" />
  <circle
     cx="7"
     cy="2.2332375"
     r="2"
     id="circle26"
     style="fill:#ccd6dd" />
  <circle
     cx="1.5"
     cy="3.7332375"
     r="1.5"
     id="circle28"
     style="fill:#ccd6dd" />
  <circle
     cx="16"
     cy="3.2332375"
     r="2"
     id="circle30"
     style="fill:#ccd6dd" />
  <circle
     cx="3"
     cy="14.233237"
     r="2"
     id="circle32"
     style="fill:#ccd6dd" />
  <circle
     cx="30.5"
     cy="24.733238"
     r="2.5"
     id="circle34"
     style="fill:#ccd6dd" />
  <circle
     cx="31"
     cy="18.233238"
     r="2"
     id="circle36"
     style="fill:#ccd6dd" />
  <circle
     cx="4"
     cy="7.2332373"
     r="2"
     id="circle38"
     style="fill:#f5f8fa" />
  <circle
     cx="3.5"
     cy="13.733237"
     r="1.5"
     id="circle40"
     style="fill:#f5f8fa" />
  <circle
     cx="10.5"
     cy="4.7332373"
     r="2.5"
     id="circle42"
     style="fill:#f5f8fa" />
  <circle
     cx="7.5"
     cy="1.7332374"
     r="1.5"
     id="circle44"
     style="fill:#f5f8fa" />
  <circle
     cx="2"
     cy="3.2332375"
     r="1"
     id="circle46"
     style="fill:#f5f8fa" />
  <circle
     cx="16.5"
     cy="2.7332375"
     r="1.5"
     id="circle48"
     style="fill:#f5f8fa" />
  <circle
     cx="31"
     cy="24.233238"
     r="2"
     id="circle50"
     style="fill:#f5f8fa" />
  <circle
     cx="31.5"
     cy="17.733238"
     r="1.5"
     id="circle52"
     style="fill:#f5f8fa" />
</svg>
