<?xml version="1.0" encoding="UTF-8" standalone="no"?>
<svg
   xmlns:dc="http://purl.org/dc/elements/1.1/"
   xmlns:cc="http://creativecommons.org/ns#"
   xmlns:rdf="http://www.w3.org/1999/02/22-rdf-syntax-ns#"
   xmlns:svg="http://www.w3.org/2000/svg"
   xmlns="http://www.w3.org/2000/svg"
   xmlns:sodipodi="http://sodipodi.sourceforge.net/DTD/sodipodi-0.dtd"
   xmlns:inkscape="http://www.inkscape.org/namespaces/inkscape"
   viewBox="0 0 35.529499 35.529499"
   id="svg2"
   version="1.1"
   inkscape:version="0.91 r13725"
   sodipodi:docname="1f9f9.svg"
   width="35.529499"
   height="35.529499">
  <metadata
     id="metadata20">
    <rdf:RDF>
      <cc:Work
         rdf:about="">
        <dc:format>image/svg+xml</dc:format>
        <dc:type
           rdf:resource="http://purl.org/dc/dcmitype/StillImage" />
      </cc:Work>
    </rdf:RDF>
  </metadata>
  <defs
     id="defs18" />
  <sodipodi:namedview
     pagecolor="#ffffff"
     bordercolor="#666666"
     borderopacity="1"
     objecttolerance="10"
     gridtolerance="10"
     guidetolerance="10"
     inkscape:pageopacity="0"
     inkscape:pageshadow="2"
     inkscape:window-width="640"
     inkscape:window-height="480"
     id="namedview16"
     showgrid="false"
     inkscape:zoom="6.5555556"
     inkscape:cx="18"
     inkscape:cy="18"
     inkscape:window-x="0"
     inkscape:window-y="0"
     inkscape:window-maximized="0"
     inkscape:current-layer="svg2" />
  <path
     d="m 19.175,16.3545 c -0.706,-0.706 -0.706,-1.861 0,-2.567 L 32.433,0.5295 c 0.706,-0.706 1.861,-0.706 2.567,0 0.706,0.706 0.706,1.861 0,2.567 l -13.258,13.258 c -0.706,0.706 -1.861,0.706 -2.567,0 z"
     id="path4"
     inkscape:connector-curvature="0"
     style="fill:#c1694f" />
  <path
     d="m 8.839,26.8945 -0.204,-0.204 c -0.941,-0.941 -0.941,-2.48 0,-3.42 l 8.35,-8.35 c 0.941,-0.941 2.48,-0.941 3.42,0 l 0.204,0.204 c 0.941,0.941 0.941,2.48 0,3.42 l -8.35,8.35 c -0.94,0.941 -2.48,0.941 -3.42,0 z"
     id="path6"
     inkscape:connector-curvature="0"
     style="fill:#66757f" />
  <path
     d="m 19.389,25.8705 c 1.688,-1.688 0.671,-5.441 -1.809,-7.921 -2.48,-2.48 -6.233,-3.497 -7.921,-1.809 L 0,25.6895 l 9.84,9.84 9.549,-9.659 z"
     id="path8"
     inkscape:connector-curvature="0"
     style="fill:#ffcc4d" />
  <path
     d="m 2.02,27.7095 8.66,-8.658 0.58,0.58 -8.66,8.658 z m 1.74,1.74 8.66,-8.659 0.58,0.58 -8.66,8.66 z m 1.74,1.74 8.658,-8.66 0.58,0.58 -8.66,8.66 z m 1.74,1.74 8.659,-8.66 0.58,0.58 -8.66,8.659 z"
     id="path10"
     inkscape:connector-curvature="0"
     style="fill:#ffac33" />
  <path
     d="m 9.875,15.9595 c -0.073,0.059 -0.149,0.114 -0.216,0.181 l -2.199,2.168 9.761,9.761 2.167,-2.199 c 0.067,-0.067 0.123,-0.143 0.181,-0.216 l -9.694,-9.695 z"
     id="path12"
     inkscape:connector-curvature="0"
     style="fill:#55acee" />
  <path
     d="m 8.882,17.7505 0.235,-0.568 9.225,9.224 -0.572,0.232 z"
     id="path14"
     inkscape:connector-curvature="0"
     style="fill:#226699" />
</svg>
