<?xml version="1.0" encoding="UTF-8" standalone="no"?>
<svg
   xmlns:dc="http://purl.org/dc/elements/1.1/"
   xmlns:cc="http://creativecommons.org/ns#"
   xmlns:rdf="http://www.w3.org/1999/02/22-rdf-syntax-ns#"
   xmlns:svg="http://www.w3.org/2000/svg"
   xmlns="http://www.w3.org/2000/svg"
   xmlns:sodipodi="http://sodipodi.sourceforge.net/DTD/sodipodi-0.dtd"
   xmlns:inkscape="http://www.inkscape.org/namespaces/inkscape"
   viewBox="0 0 18 36"
   id="svg2"
   version="1.1"
   inkscape:version="0.91 r13725"
   sodipodi:docname="1fa71.svg"
   width="18"
   height="36">
  <metadata
     id="metadata14">
    <rdf:RDF>
      <cc:Work
         rdf:about="">
        <dc:format>image/svg+xml</dc:format>
        <dc:type
           rdf:resource="http://purl.org/dc/dcmitype/StillImage" />
      </cc:Work>
    </rdf:RDF>
  </metadata>
  <defs
     id="defs12" />
  <sodipodi:namedview
     pagecolor="#ffffff"
     bordercolor="#666666"
     borderopacity="1"
     objecttolerance="10"
     gridtolerance="10"
     guidetolerance="10"
     inkscape:pageopacity="0"
     inkscape:pageshadow="2"
     inkscape:window-width="640"
     inkscape:window-height="480"
     id="namedview10"
     showgrid="false"
     inkscape:zoom="6.5555556"
     inkscape:cx="9"
     inkscape:cy="18"
     inkscape:window-x="0"
     inkscape:window-y="0"
     inkscape:window-maximized="0"
     inkscape:current-layer="svg2" />
  <path
     d="M 18,12.964 C 18,9.964 14.802,3.609 14,0 L 13,0 C 13,2 14,8.998 9,8.998 4,8.998 5,2 5,0 L 4,0 C 3.198,3.609 0,9.964 0,12.964 c 0,3 3.34,4.144 2,8.036 -1.292,3.753 -2,6 -2,7 5,1 7,5 7,8 l 4,0 c 0,-2 2,-7 7,-8 0,-1 -0.708,-3.247 -2,-7 -1.34,-3.893 2,-5.036 2,-8.036 z"
     id="path4"
     inkscape:connector-curvature="0"
     style="fill:#9268ca" />
  <path
     d="m 15.695,19 -13.39,0 c 0.019,0.31 -0.003,0.645 -0.06,1 l 13.509,0 C 15.698,19.645 15.676,19.31 15.695,19 Z M 16,21 2,21 c -0.251,0.728 -0.472,1.383 -0.678,2 l 15.356,0 C 16.472,22.383 16.251,21.728 16,21 Z"
     id="path6"
     inkscape:connector-curvature="0"
     style="fill:#78b159" />
  <path
     d="M 12,17 6,17 C 4.086,17 2.173,16.993 0.259,14.365 0.814,15.888 2.085,17.022 2.283,18.795 3.649,18.002 7.55,18 9,18 c 1.45,0 5.351,0.002 6.717,0.795 0.198,-1.773 1.469,-2.907 2.024,-4.43 C 15.827,16.993 13.914,17 12,17 Z M 0.505,25.57 C 0.174,26.704 0,27.506 0,28 c 5,1 7,5 7,8 l 1,0 C 8,30.524 3.116,26.895 0.505,25.57 Z M 18,28 C 18,27.506 17.826,26.704 17.495,25.57 14.884,26.895 10,30.524 10,36 l 1,0 c 0,-2 2,-7 7,-8 z"
     id="path8"
     inkscape:connector-curvature="0"
     style="fill:#7450a8" />
</svg>
