<?xml version="1.0" encoding="UTF-8" standalone="no"?>
<svg
   xmlns:dc="http://purl.org/dc/elements/1.1/"
   xmlns:cc="http://creativecommons.org/ns#"
   xmlns:rdf="http://www.w3.org/1999/02/22-rdf-syntax-ns#"
   xmlns:svg="http://www.w3.org/2000/svg"
   xmlns="http://www.w3.org/2000/svg"
   xmlns:sodipodi="http://sodipodi.sourceforge.net/DTD/sodipodi-0.dtd"
   xmlns:inkscape="http://www.inkscape.org/namespaces/inkscape"
   viewBox="0 0 35.470764 35.628788"
   id="svg2"
   version="1.1"
   inkscape:version="0.91 r13725"
   sodipodi:docname="1fa7a.svg"
   width="35.470764"
   height="35.628788">
  <metadata
     id="metadata18">
    <rdf:RDF>
      <cc:Work
         rdf:about="">
        <dc:format>image/svg+xml</dc:format>
        <dc:type
           rdf:resource="http://purl.org/dc/dcmitype/StillImage" />
      </cc:Work>
    </rdf:RDF>
  </metadata>
  <defs
     id="defs16" />
  <sodipodi:namedview
     pagecolor="#ffffff"
     bordercolor="#666666"
     borderopacity="1"
     objecttolerance="10"
     gridtolerance="10"
     guidetolerance="10"
     inkscape:pageopacity="0"
     inkscape:pageshadow="2"
     inkscape:window-width="640"
     inkscape:window-height="480"
     id="namedview14"
     showgrid="false"
     inkscape:zoom="6.5555556"
     inkscape:cx="17.73541"
     inkscape:cy="17.815"
     inkscape:window-x="0"
     inkscape:window-y="0"
     inkscape:window-maximized="0"
     inkscape:current-layer="svg2" />
  <path
     d="m 28.71241,16.305789 0.011,-0.006 c -1.466,0.66 -3.102,0.795 -4.676,0.372 -1.626,-0.436 -3.006,-1.423 -3.947,-2.796 0.019,0.028 0.034,0.058 0.054,0.086 l -1.419,-0.148 -0.213,1.302 c 1.019,1.443 2.426,2.535 4.069,3.174 l -0.084,0.311 c -0.408,1.521 -0.275,3.296 -0.134,5.176 0.184,2.45 0.375,4.984 -0.665,6.933 -0.978,1.829 -2.921,2.919 -5.205,2.919 l -0.032,0 c -2.129,-0.01 -4.063,-0.98 -4.813,-2.415 -0.538,-1.03 -0.597,-2.431 -0.66,-3.912 -0.101,-2.393 -0.214,-5.104 -2.2680004,-7.443 l -3.949,-4.501 -1.503,1.319 3.949,4.5 c 1.588,1.811 1.682,4.046 1.773,6.209 0.069,1.636 0.14,3.328 0.885,4.754 1.1010004,2.106 3.6820004,3.476 6.5770004,3.489 l 0.042,0 c 3.035,0 5.638,-1.484 6.968,-3.977 1.314,-2.461 1.092,-5.417 0.895,-8.025 -0.128,-1.704 -0.249,-3.315 0.071,-4.506 l 0.085,-0.318 c 0.451,0.069 0.902,0.113 1.352,0.113 1.252,-0.001 2.487,-0.277 3.644,-0.795 l 0.216,-1.307 -1.023,-0.508 z"
     id="path4"
     inkscape:connector-curvature="0"
     style="fill:#31373d" />
  <path
     d="m 0.99340965,18.680789 c -1.457,-1.66 -1.292,-4.188 0.36799995,-5.645 1.66,-1.457 4.188,-1.292 5.645,0.368 1.457,1.661 1.292,4.188 -0.368,5.645 -1.66,1.457 -4.188,1.293 -5.64499995,-0.368 z"
     id="path6"
     inkscape:connector-curvature="0"
     style="fill:#99aab5" />
  <path
     d="m 2.4974096,17.361789 c -0.729,-0.83 -0.646,-2.094 0.184,-2.822 0.83,-0.729 2.094,-0.646 2.822,0.184 0.729,0.83 0.646,2.094 -0.184,2.822 -0.83,0.729 -2.094,0.646 -2.822,-0.184 z"
     id="path8"
     inkscape:connector-curvature="0"
     style="fill:#31373d" />
  <path
     d="m 29.52641,18.131789 -0.814,-1.826 c 1.936,-0.865 3.362,-2.534 3.911,-4.579 l 0.778,-2.8970001 c 0.286,-1.065 -0.348,-2.164 -1.413,-2.451 l 0.52,-1.932 c 2.13,0.573 3.397,2.771 2.825,4.901 l -0.778,2.8970001 c -0.707,2.63 -2.54,4.775 -5.029,5.887 z m -11.006,-3.014 c -1.555,-2.197 -2.047,-4.946 -1.35,-7.5420001 l 0.778,-2.897 c 0.572,-2.131 2.771,-3.398 4.9,-2.826 l -0.519,1.932 c -1.067,-0.286 -2.164,0.348 -2.45,1.413 l -0.778,2.898 c -0.543,2.0190001 -0.16,4.1580001 1.051,5.8670001 l -1.632,1.155 z"
     id="path10"
     inkscape:connector-curvature="0"
     style="fill:#99aab5" />
  <path
     d="m 22.29541,5.8457889 c -0.8,-0.215 -1.274,-1.038 -1.059,-1.838 l 0.778,-2.897 c 0.215,-0.79999996 1.038,-1.27399996 1.838,-1.05899996 0.8,0.215 1.274,1.03799996 1.059,1.83799996 l -0.778,2.897 c -0.215,0.8 -1.038,1.274 -1.838,1.059 z m 8.692,2.335 c -0.8,-0.215 -1.274,-1.038 -1.059,-1.838 l 0.778,-2.897 c 0.215,-0.8 1.038,-1.274 1.838,-1.059 0.8,0.215 1.274,1.038 1.06,1.838 l -0.778,2.897 c -0.216,0.8 -1.039,1.274 -1.839,1.059 z"
     id="path12"
     inkscape:connector-curvature="0"
     style="fill:#31373d" />
</svg>
