<?xml version="1.0" encoding="UTF-8" standalone="no"?>
<svg
   xmlns:dc="http://purl.org/dc/elements/1.1/"
   xmlns:cc="http://creativecommons.org/ns#"
   xmlns:rdf="http://www.w3.org/1999/02/22-rdf-syntax-ns#"
   xmlns:svg="http://www.w3.org/2000/svg"
   xmlns="http://www.w3.org/2000/svg"
   xmlns:sodipodi="http://sodipodi.sourceforge.net/DTD/sodipodi-0.dtd"
   xmlns:inkscape="http://www.inkscape.org/namespaces/inkscape"
   viewBox="0 0 35.223557 34.627998"
   id="svg2"
   version="1.1"
   inkscape:version="0.91 r13725"
   sodipodi:docname="1fa81.svg"
   width="35.223557"
   height="34.627998">
  <metadata
     id="metadata18">
    <rdf:RDF>
      <cc:Work
         rdf:about="">
        <dc:format>image/svg+xml</dc:format>
        <dc:type
           rdf:resource="http://purl.org/dc/dcmitype/StillImage" />
      </cc:Work>
    </rdf:RDF>
  </metadata>
  <defs
     id="defs16" />
  <sodipodi:namedview
     pagecolor="#ffffff"
     bordercolor="#666666"
     borderopacity="1"
     objecttolerance="10"
     gridtolerance="10"
     guidetolerance="10"
     inkscape:pageopacity="0"
     inkscape:pageshadow="2"
     inkscape:window-width="640"
     inkscape:window-height="480"
     id="namedview14"
     showgrid="false"
     inkscape:zoom="6.5555556"
     inkscape:cx="17.408"
     inkscape:cy="17.339"
     inkscape:window-x="0"
     inkscape:window-y="0"
     inkscape:window-maximized="0"
     inkscape:current-layer="svg2" />
  <path
     d="M 21.858,31.578 0,18.041 5.958,0 24,5.958 Z"
     id="path4"
     inkscape:connector-curvature="0"
     style="fill:#55acee" />
  <path
     d="m 19.951,28.789 c -0.366,0 -0.719,-0.201 -0.895,-0.551 L 6.337,2.976 C 6.088,2.483 6.287,1.881 6.78,1.633 7.274,1.384 7.875,1.583 8.123,2.076 l 12.72,25.264 c 0.248,0.493 0.05,1.094 -0.444,1.343 -0.143,0.072 -0.297,0.106 -0.448,0.106 z"
     id="path6"
     inkscape:connector-curvature="0"
     style="fill:#226699" />
  <path
     d="m 2.528,17.769 c -0.366,0 -0.718,-0.201 -0.894,-0.55 -0.249,-0.493 -0.05,-1.095 0.443,-1.343 l 18.947,-9.54 c 0.49,-0.25 1.094,-0.05 1.343,0.443 0.248,0.493 0.05,1.095 -0.443,1.343 l -18.947,9.54 c -0.145,0.073 -0.298,0.107 -0.449,0.107 z"
     id="path8"
     inkscape:connector-curvature="0"
     style="fill:#226699" />
  <path
     d="m 26.775,34.628 c -2.44,0 -4.521,-1.268 -6.199,-3.784 -0.307,-0.459 -0.183,-1.08 0.277,-1.387 0.458,-0.307 1.079,-0.183 1.387,0.277 1.564,2.343 3.359,3.228 5.644,2.781 0.945,-0.184 1.793,-0.98 2.27,-2.132 0.701,-1.693 0.47,-3.668 -0.62,-5.282 -2.006,-2.971 -2.777,-6.787 -2.063,-10.21 0.615,-2.956 2.24,-5.344 4.698,-6.905 0.466,-0.295 1.084,-0.158 1.38,0.308 0.297,0.466 0.158,1.084 -0.308,1.38 -2.516,1.598 -3.462,3.941 -3.813,5.625 -0.604,2.905 0.055,6.151 1.765,8.683 1.466,2.172 1.769,4.851 0.811,7.167 -0.734,1.772 -2.131,3.018 -3.736,3.329 -0.513,0.1 -1.009,0.15 -1.493,0.15 z"
     id="path10"
     inkscape:connector-curvature="0"
     style="fill:#3b88c3" />
  <path
     d="m 30.94,30.281 c -0.781,-2.485 -2.807,-4.482 -4.157,-2.075 -1.342,2.392 1.04,3.456 3.717,2.74 0.781,2.485 2.807,4.482 4.157,2.075 1.342,-2.392 -1.039,-3.456 -3.717,-2.74 z m -1.425,-7.039 c 2.377,1.066 5.215,0.876 4.311,-1.731 -0.898,-2.592 -3.275,-1.517 -4.517,0.961 -2.377,-1.066 -5.215,-0.876 -4.311,1.731 0.898,2.592 3.275,1.517 4.517,-0.961 z m -1.261,-6.597 c 1.355,2.225 3.802,3.676 4.534,1.015 0.727,-2.645 -1.84,-3.105 -4.267,-1.766 -1.355,-2.224 -3.802,-3.676 -4.534,-1.015 -0.728,2.645 1.84,3.105 4.267,1.766 z m 2.897,-6.557 c -0.132,2.602 1.074,5.178 3.177,3.39 2.089,-1.777 0.226,-3.602 -2.534,-3.861 0.132,-2.602 -1.074,-5.178 -3.177,-3.39 -2.089,1.777 -0.225,3.602 2.534,3.861 z"
     id="path12"
     inkscape:connector-curvature="0"
     style="fill:#9266cc" />
</svg>
