<?xml version="1.0" encoding="UTF-8" standalone="no"?>
<svg
   xmlns:dc="http://purl.org/dc/elements/1.1/"
   xmlns:cc="http://creativecommons.org/ns#"
   xmlns:rdf="http://www.w3.org/1999/02/22-rdf-syntax-ns#"
   xmlns:svg="http://www.w3.org/2000/svg"
   xmlns="http://www.w3.org/2000/svg"
   xmlns:sodipodi="http://sodipodi.sourceforge.net/DTD/sodipodi-0.dtd"
   xmlns:inkscape="http://www.inkscape.org/namespaces/inkscape"
   viewBox="0 0 35 35"
   id="svg2"
   version="1.1"
   inkscape:version="0.91 r13725"
   sodipodi:docname="1fa80.svg"
   width="35"
   height="35">
  <metadata
     id="metadata20">
    <rdf:RDF>
      <cc:Work
         rdf:about="">
        <dc:format>image/svg+xml</dc:format>
        <dc:type
           rdf:resource="http://purl.org/dc/dcmitype/StillImage" />
      </cc:Work>
    </rdf:RDF>
  </metadata>
  <defs
     id="defs18" />
  <sodipodi:namedview
     pagecolor="#ffffff"
     bordercolor="#666666"
     borderopacity="1"
     objecttolerance="10"
     gridtolerance="10"
     guidetolerance="10"
     inkscape:pageopacity="0"
     inkscape:pageshadow="2"
     inkscape:window-width="640"
     inkscape:window-height="480"
     id="namedview16"
     showgrid="false"
     inkscape:zoom="6.5555556"
     inkscape:cx="17.5"
     inkscape:cy="17.5"
     inkscape:window-x="0"
     inkscape:window-y="0"
     inkscape:window-maximized="0"
     inkscape:current-layer="svg2" />
  <ellipse
     cx="17.222"
     cy="21.007"
     rx="12.917"
     ry="13.993"
     id="ellipse4"
     style="fill:#be1931" />
  <ellipse
     cx="15.069"
     cy="21.007"
     rx="12.917"
     ry="13.993"
     id="ellipse6"
     style="fill:#a0041e" />
  <path
     d="m 27.798,13.241 c -1.643,0 -3.457,-0.825 -5.227,-1.629 -2.124,-0.966 -4.322,-1.966 -5.46,-1.113 L 15.944,8.944 c 2.06,-1.544 4.79,-0.303 7.431,0.898 2.023,0.92 4.117,1.868 5.327,1.263 0.664,-0.331 1.155,-1.195 1.459,-2.566 l 1.899,0.422 c -0.444,2 -1.259,3.27 -2.49,3.885 -0.558,0.278 -1.153,0.395 -1.772,0.395 z"
     id="path8"
     inkscape:connector-curvature="0"
     style="fill:#99aab5" />
  <ellipse
     cx="12.917"
     cy="21.007"
     rx="12.917"
     ry="13.993"
     id="ellipse10"
     style="fill:#dd2e44" />
  <ellipse
     cx="12.378"
     cy="21.007"
     rx="9.1490002"
     ry="10.433"
     id="ellipse12"
     style="fill:#ea596e" />
  <path
     d="m 31.111,9.722 c -2.41,0 -3.889,-3.398 -3.889,-5.833 C 27.222,1.454 28.676,0 31.111,0 33.546,0 35,1.454 35,3.889 35,6.325 33.521,9.722 31.111,9.722 Z m 0,-7.778 c -1.344,0 -1.944,0.6 -1.944,1.944 0,1.878 1.141,3.889 1.944,3.889 0.803,0 1.944,-2.011 1.944,-3.889 10e-4,-1.344 -0.599,-1.944 -1.944,-1.944 z"
     id="path14"
     inkscape:connector-curvature="0"
     style="fill:#99aab5" />
</svg>
