<?xml version="1.0" encoding="UTF-8" standalone="no"?>
<svg
   xmlns:dc="http://purl.org/dc/elements/1.1/"
   xmlns:cc="http://creativecommons.org/ns#"
   xmlns:rdf="http://www.w3.org/1999/02/22-rdf-syntax-ns#"
   xmlns:svg="http://www.w3.org/2000/svg"
   xmlns="http://www.w3.org/2000/svg"
   xmlns:sodipodi="http://sodipodi.sourceforge.net/DTD/sodipodi-0.dtd"
   xmlns:inkscape="http://www.inkscape.org/namespaces/inkscape"
   viewBox="0 0 35.928661 28.549999"
   id="svg2"
   version="1.1"
   inkscape:version="0.91 r13725"
   sodipodi:docname="1fa93.svg"
   width="35.928661"
   height="28.549999">
  <metadata
     id="metadata14">
    <rdf:RDF>
      <cc:Work
         rdf:about="">
        <dc:format>image/svg+xml</dc:format>
        <dc:type
           rdf:resource="http://purl.org/dc/dcmitype/StillImage" />
      </cc:Work>
    </rdf:RDF>
  </metadata>
  <defs
     id="defs12" />
  <sodipodi:namedview
     pagecolor="#ffffff"
     bordercolor="#666666"
     borderopacity="1"
     objecttolerance="10"
     gridtolerance="10"
     guidetolerance="10"
     inkscape:pageopacity="0"
     inkscape:pageshadow="2"
     inkscape:window-width="640"
     inkscape:window-height="480"
     id="namedview10"
     showgrid="false"
     inkscape:zoom="6.5555556"
     inkscape:cx="17.981036"
     inkscape:cy="13.4925"
     inkscape:window-x="0"
     inkscape:window-y="0"
     inkscape:window-maximized="0"
     inkscape:current-layer="svg2" />
  <path
     d="m 35.201036,27.7985 -0.024,0.024 c -0.97,0.97 -2.542,0.97 -3.511,0 L 7.8160365,3.9725 c -0.582,-0.582 -0.582,-1.525 0,-2.107 l 1.429,-1.429 c 0.582,-0.582 1.5249995,-0.582 2.1069995,0 l 23.85,23.85 c 0.969,0.97 0.969,2.542 -10e-4,3.512 z"
     id="path4"
     inkscape:connector-curvature="0"
     style="fill:#f4900c" />
  <path
     d="m 17.746036,4.0035 -3.536,-3.536 c -0.586,-0.586 -1.535,-0.586 -2.121,0 l -3.5349995,3.536 c -2.128,2.092 -3.85,3.015 -6.055,3.056 -0.171,1.573 0.665,5.193 1.967,6.652 1.692,1.896 4.545,2.495 7.2229995,2.454 -0.134,-2.363 0.437,-4.422 2.521,-6.506 l 3.535,-3.536 c 0.587,-0.585 0.587,-1.535 0.001,-2.12 z"
     id="path6"
     inkscape:connector-curvature="0"
     style="fill:#66757f" />
  <path
     d="m 2.4990365,7.0595 c -0.751,0.014 -1.55600003,-0.072 -2.45400003,-0.252 -0.707,4.95 7.07100003,12.728 12.02099953,12.021 -0.193,-0.937 -0.328,-1.819 -0.376,-2.663 -4.4179995,-1.409 -8.1069995,-5.072 -9.1909995,-9.106 z"
     id="path8"
     inkscape:connector-curvature="0"
     style="fill:#ccd6dd" />
</svg>
