<?xml version="1.0" encoding="UTF-8" standalone="no"?>
<svg
   xmlns:dc="http://purl.org/dc/elements/1.1/"
   xmlns:cc="http://creativecommons.org/ns#"
   xmlns:rdf="http://www.w3.org/1999/02/22-rdf-syntax-ns#"
   xmlns:svg="http://www.w3.org/2000/svg"
   xmlns="http://www.w3.org/2000/svg"
   xmlns:sodipodi="http://sodipodi.sourceforge.net/DTD/sodipodi-0.dtd"
   xmlns:inkscape="http://www.inkscape.org/namespaces/inkscape"
   viewBox="0 0 35.952999 35.952999"
   id="svg2"
   version="1.1"
   inkscape:version="0.91 r13725"
   sodipodi:docname="1fa95.svg"
   width="35.952999"
   height="35.952999">
  <metadata
     id="metadata42">
    <rdf:RDF>
      <cc:Work
         rdf:about="">
        <dc:format>image/svg+xml</dc:format>
        <dc:type
           rdf:resource="http://purl.org/dc/dcmitype/StillImage" />
      </cc:Work>
    </rdf:RDF>
  </metadata>
  <defs
     id="defs40" />
  <sodipodi:namedview
     pagecolor="#ffffff"
     bordercolor="#666666"
     borderopacity="1"
     objecttolerance="10"
     gridtolerance="10"
     guidetolerance="10"
     inkscape:pageopacity="0"
     inkscape:pageshadow="2"
     inkscape:window-width="640"
     inkscape:window-height="480"
     id="namedview38"
     showgrid="false"
     inkscape:zoom="6.5555556"
     inkscape:cx="17.953"
     inkscape:cy="17.952999"
     inkscape:window-x="0"
     inkscape:window-y="0"
     inkscape:window-maximized="0"
     inkscape:current-layer="svg2" />
  <circle
     cx="10"
     cy="16.952999"
     r="1"
     id="circle4"
     style="fill:#67757f" />
  <circle
     cx="1"
     cy="25.952999"
     r="1"
     id="circle6"
     style="fill:#67757f" />
  <circle
     cx="19"
     cy="25.952999"
     r="1"
     id="circle8"
     style="fill:#67757f" />
  <circle
     cx="10"
     cy="34.952999"
     r="1"
     id="circle10"
     style="fill:#67757f" />
  <circle
     cx="3.5"
     cy="19.827999"
     r="1"
     id="circle12"
     style="fill:#67757f" />
  <circle
     cx="16.167"
     cy="32.494999"
     r="1"
     id="circle14"
     style="fill:#67757f" />
  <path
     d="M 32.292,5.338 16.842,22.672 13.281,19.112 30.613,3.66 Z"
     id="path16"
     inkscape:connector-curvature="0"
     style="fill:#292f33" />
  <circle
     transform="matrix(0.61540013,-0.78821487,0.78821487,0.61540013,0,0)"
     cx="-14.30254"
     cy="23.853626"
     id="ellipse18"
     r="9"
     style="fill:#f18f26" />
  <circle
     transform="matrix(0.61540013,-0.78821487,0.78821487,0.61540013,0,0)"
     cx="-14.30254"
     cy="23.853626"
     id="ellipse20"
     r="7"
     style="fill:#f5f8fa" />
  <path
     d="M 4.5809999,29.934 28.753,5.807 29.283,6.338 5.1129999,30.466 Z m 0.869,0.87 L 29.623,6.676 30.154,7.207 5.9809999,31.335 Z"
     id="path22"
     inkscape:connector-curvature="0"
     style="fill:#ccd6dd" />
  <path
     d="m 1.9999999,31.953 2,-3 c 0,0 1,0 2,1 1,1 1,2 1,2 l -3,2 -2,-2 z"
     id="path24"
     inkscape:connector-curvature="0"
     style="fill:#292f33" />
  <path
     d="m 9.0499999,30.903 c -0.256,0 -0.512,-0.098 -0.707,-0.293 l -3,-3 c -0.391,-0.391 -0.391,-1.023 0,-1.414 0.391,-0.391 1.023,-0.391 1.414,0 l 3,3 c 0.3910001,0.391 0.3910001,1.023 0,1.414 -0.196,0.196 -0.452,0.293 -0.707,0.293 z"
     id="path26"
     inkscape:connector-curvature="0"
     style="fill:#67757f" />
  <path
     d="m 34.657,2.685 c 0.438,0.438 0.438,1.155 -10e-4,1.592 L 31.47,7.463 C 31.032,7.901 30.315,7.901 29.877,7.462 L 28.487,6.073 C 28.049,5.635 28.049,4.918 28.488,4.481 l 3.187,-3.186 c 0.438,-0.438 1.155,-0.438 1.593,0 l 1.389,1.39 z"
     id="path28"
     inkscape:connector-curvature="0"
     style="fill:#f18f26" />
  <circle
     cx="32.952999"
     cy="8"
     r="1"
     id="circle30"
     style="fill:#642116" />
  <circle
     cx="34.952999"
     cy="6"
     r="1"
     id="circle32"
     style="fill:#642116" />
  <circle
     cx="27.952999"
     cy="3"
     r="1"
     id="circle34"
     style="fill:#642116" />
  <circle
     cx="29.952999"
     cy="1"
     r="1"
     id="circle36"
     style="fill:#642116" />
</svg>
