<?xml version="1.0" encoding="UTF-8" standalone="no"?>
<svg
   xmlns:dc="http://purl.org/dc/elements/1.1/"
   xmlns:cc="http://creativecommons.org/ns#"
   xmlns:rdf="http://www.w3.org/1999/02/22-rdf-syntax-ns#"
   xmlns:svg="http://www.w3.org/2000/svg"
   xmlns="http://www.w3.org/2000/svg"
   xmlns:sodipodi="http://sodipodi.sourceforge.net/DTD/sodipodi-0.dtd"
   xmlns:inkscape="http://www.inkscape.org/namespaces/inkscape"
   viewBox="0 0 29 36"
   id="svg2"
   version="1.1"
   inkscape:version="0.91 r13725"
   sodipodi:docname="1fa91.svg"
   width="29"
   height="36">
  <metadata
     id="metadata24">
    <rdf:RDF>
      <cc:Work
         rdf:about="">
        <dc:format>image/svg+xml</dc:format>
        <dc:type
           rdf:resource="http://purl.org/dc/dcmitype/StillImage" />
      </cc:Work>
    </rdf:RDF>
  </metadata>
  <defs
     id="defs22" />
  <sodipodi:namedview
     pagecolor="#ffffff"
     bordercolor="#666666"
     borderopacity="1"
     objecttolerance="10"
     gridtolerance="10"
     guidetolerance="10"
     inkscape:pageopacity="0"
     inkscape:pageshadow="2"
     inkscape:window-width="640"
     inkscape:window-height="480"
     id="namedview20"
     showgrid="false"
     inkscape:zoom="6.5555556"
     inkscape:cx="15"
     inkscape:cy="18"
     inkscape:window-x="0"
     inkscape:window-y="0"
     inkscape:window-maximized="0"
     inkscape:current-layer="svg2" />
  <path
     d="m 9,20 c -1.1,0 -2,0.9 -2,2 l 0,10 c 0,1.1 0.9,2 2,2 1.1,0 2,-0.9 2,-2 l 0,-10 c 0,-1.1 -0.9,-2 -2,-2 z m 18,0 c -1.1,0 -2,0.9 -2,2 l 0,10 c 0,1.1 0.9,2 2,2 1.1,0 2,-0.9 2,-2 l 0,-10 c 0,-1.1 -0.9,-2 -2,-2 z"
     id="path4"
     inkscape:connector-curvature="0"
     style="fill:#a4523a" />
  <path
     d="m 10,2 16,0 0,8 -16,0 z"
     id="path6"
     inkscape:connector-curvature="0"
     style="fill:#c1694f" />
  <path
     d="m 13,9 2,0 0,13 -2,0 z m 4,0 2,0 0,13 -2,0 z m 4,0 2,0 0,13 -2,0 z M 4,23 c -1.1,0 -2,0.9 -2,2 l 0,9 c 0,1.1 0.9,2 2,2 1.1,0 2,-0.9 2,-2 L 6,25 C 6,23.9 5.1,23 4,23 Z"
     id="path8"
     inkscape:connector-curvature="0"
     style="fill:#c1694f" />
  <path
     d="m 22,21 c -1.1,0 -2,0.9 -2,2 l 0,11 c 0,1.1 0.9,2 2,2 1.1,0 2,-0.9 2,-2 l 0,-11 c 0,-1.1 -0.9,-2 -2,-2 z M 9,0 C 7.9,0 7,0.9 7,2 l 0,20 4,0 0,-20 C 11,0.9 10.1,0 9,0 Z m 18,0 c -1.1,0 -2,0.9 -2,2 l 0,20 4,0 0,-20 C 29,0.9 28.1,0 27,0 Z"
     id="path10"
     inkscape:connector-curvature="0"
     style="fill:#c1694f" />
  <path
     d="m 11,2 1,0 0,8 -1,0 z m 14,8 -1,0 0,-8 1,0 z"
     id="path12"
     inkscape:connector-curvature="0"
     style="fill:#a4523a" />
  <path
     d="M 27.769,20 7.341,20 c -0.223,0 -0.442,0.061 -0.633,0.175 l -5.954,3.041 c 0,0 22.726,2.418 24.726,2.418 l 3.029,-2.265 C 28.818,23.137 29,22.772 29,22.384 l 0,-1.153 C 29,20.551 28.449,20 27.769,20 Z"
     id="path14"
     inkscape:connector-curvature="0"
     style="fill:#d99e82" />
  <path
     d="m 13,10 2,0 0,1 -2,0 z m -11,16 4,0 0,1 -4,0 z m 18,0 4,0 0,1 -4,0 z m -3,-16 2,0 0,1 -2,0 z m 4,0 2,0 0,1 -2,0 z"
     id="path16"
     inkscape:connector-curvature="0"
     style="fill:#a4523a" />
  <path
     d="M 24.44,26 1.56,26 C 0.698,26 0,25.328 0,24.5 0,23.672 0.698,23 1.56,23 l 22.88,0 c 0.862,0 1.56,0.672 1.56,1.5 0,0.828 -0.698,1.5 -1.56,1.5 z"
     id="path18"
     inkscape:connector-curvature="0"
     style="fill:#c1694f" />
</svg>
