<?xml version="1.0" encoding="UTF-8" standalone="no"?>
<svg
   xmlns:dc="http://purl.org/dc/elements/1.1/"
   xmlns:cc="http://creativecommons.org/ns#"
   xmlns:rdf="http://www.w3.org/1999/02/22-rdf-syntax-ns#"
   xmlns:svg="http://www.w3.org/2000/svg"
   xmlns="http://www.w3.org/2000/svg"
   xmlns:sodipodi="http://sodipodi.sourceforge.net/DTD/sodipodi-0.dtd"
   xmlns:inkscape="http://www.inkscape.org/namespaces/inkscape"
   viewBox="0 0 35 34.900002"
   id="svg2"
   version="1.1"
   inkscape:version="0.91 r13725"
   sodipodi:docname="1fa94.svg"
   width="35"
   height="34.900002">
  <metadata
     id="metadata22">
    <rdf:RDF>
      <cc:Work
         rdf:about="">
        <dc:format>image/svg+xml</dc:format>
        <dc:type
           rdf:resource="http://purl.org/dc/dcmitype/StillImage" />
      </cc:Work>
    </rdf:RDF>
  </metadata>
  <defs
     id="defs20" />
  <sodipodi:namedview
     pagecolor="#ffffff"
     bordercolor="#666666"
     borderopacity="1"
     objecttolerance="10"
     gridtolerance="10"
     guidetolerance="10"
     inkscape:pageopacity="0"
     inkscape:pageshadow="2"
     inkscape:window-width="640"
     inkscape:window-height="480"
     id="namedview18"
     showgrid="false"
     inkscape:zoom="6.5555556"
     inkscape:cx="17.5"
     inkscape:cy="17.452"
     inkscape:window-x="0"
     inkscape:window-y="0"
     inkscape:window-maximized="0"
     inkscape:current-layer="svg2" />
  <path
     d="m 32.639,20.912 c 0.719,0.341 0.364,1.157 0,1.865 C 30.884,26.189 20.978,34.9 12.863,34.9 5.759,34.9 0,29.254 0,22.777 0,16.3 7.91,19.679 13.056,16.249 c 1.715,0 1.865,-3.73 19.583,4.663 z"
     id="path4"
     inkscape:connector-curvature="0"
     style="fill:#be1931" />
  <path
     d="M 30.774,20.912 C 33.903,22.926 19.741,27.939 12.636,27.939 5.532,27.939 0,25.43 0,21.8 c 0,-3.63 5.759,-6.573 12.863,-6.573 7.105,0 12.316,2.085 17.911,5.685 z"
     id="path6"
     inkscape:connector-curvature="0"
     style="fill:#7f031e" />
  <path
     d="m 28.909,21.844 c 2.655,1.8 -8.492,6.201 -16.046,6.201 -7.03,0 -11.35,-2.432 -11.35,-5.432 0,-3 5.082,-5.432 11.35,-5.432 6.268,0 12.316,2.134 16.046,4.663 z"
     id="path8"
     inkscape:connector-curvature="0"
     style="fill:#ffac33" />
  <path
     d="m 24.245,23.71 c -0.418,0 -0.798,-0.282 -0.904,-0.706 -0.124,-0.499 0.178,-1.005 0.679,-1.131 3.698,-0.925 5.061,-1.766 5.849,-4.917 0.125,-0.5 0.632,-0.803 1.131,-0.679 0.499,0.125 0.803,0.631 0.679,1.131 -1.107,4.428 -3.685,5.393 -7.207,6.274 -0.076,0.019 -0.152,0.028 -0.227,0.028 z"
     id="path10"
     inkscape:connector-curvature="0" />
  <path
     d="m 26.25,11.567 c 0,4.296 2.496,5.833 4.375,5.833 C 32.504,17.4 35,15.862 35,11.567 35,7.271 33.056,2.916 30.625,0 28.194,2.916 26.25,7.271 26.25,11.567 Z"
     id="path12"
     inkscape:connector-curvature="0"
     style="fill:#f4900c" />
  <ellipse
     cx="30.625"
     cy="13.025"
     rx="2.431"
     ry="4.375"
     id="ellipse14"
     style="fill:#ffcc4d" />
  <ellipse
     cx="11.667"
     cy="22.261"
     rx="6.8060002"
     ry="2.9170001"
     id="ellipse16"
     style="fill:#ffcc4d" />
</svg>
