<?xml version="1.0" encoding="UTF-8" standalone="no"?>
<svg
   xmlns:dc="http://purl.org/dc/elements/1.1/"
   xmlns:cc="http://creativecommons.org/ns#"
   xmlns:rdf="http://www.w3.org/1999/02/22-rdf-syntax-ns#"
   xmlns:svg="http://www.w3.org/2000/svg"
   xmlns="http://www.w3.org/2000/svg"
   xmlns:sodipodi="http://sodipodi.sourceforge.net/DTD/sodipodi-0.dtd"
   xmlns:inkscape="http://www.inkscape.org/namespaces/inkscape"
   viewBox="0 0 35 21.388"
   id="svg2"
   version="1.1"
   inkscape:version="0.91 r13725"
   sodipodi:docname="1fa90.svg"
   width="35"
   height="21.388">
  <metadata
     id="metadata16">
    <rdf:RDF>
      <cc:Work
         rdf:about="">
        <dc:format>image/svg+xml</dc:format>
        <dc:type
           rdf:resource="http://purl.org/dc/dcmitype/StillImage" />
      </cc:Work>
    </rdf:RDF>
  </metadata>
  <defs
     id="defs14" />
  <sodipodi:namedview
     pagecolor="#ffffff"
     bordercolor="#666666"
     borderopacity="1"
     objecttolerance="10"
     gridtolerance="10"
     guidetolerance="10"
     inkscape:pageopacity="0"
     inkscape:pageshadow="2"
     inkscape:window-width="640"
     inkscape:window-height="480"
     id="namedview12"
     showgrid="false"
     inkscape:zoom="6.5555556"
     inkscape:cx="17.5"
     inkscape:cy="10.694"
     inkscape:window-x="0"
     inkscape:window-y="0"
     inkscape:window-maximized="0"
     inkscape:current-layer="svg2" />
  <circle
     cx="17.5"
     cy="10.694"
     r="10.694"
     id="circle4"
     style="fill:#ffcc4d" />
  <path
     d="M 9.729,15.445 C 8.744,15.512 8.04,15.137 7.526,14.528 c 0.214,0.557 0.487,1.081 0.788,1.588 0.771,0.289 1.591,0.41 2.54,-0.272 -0.463,-0.227 -0.88,-0.415 -1.125,-0.399 z M 22.586,1.3020002 c 0.045,0.328 -0.187,0.5 -0.75,0.363 -0.955,-0.232 -1.793,0.776 -2.274,1.619 -0.947,1.657 -4.854,3.524 -4.857,2.087 -10e-4,-0.679 -3.452,0.843 -3.893,0.161 -0.417,-0.644 -1.663,-0.396 -1.921,-1.168 -1.135,1.544 -1.869,3.402 -2.04,5.422 C 7.228,10.504 7.715,11.068 8.203,11.312 c 0.66,0.33 3.726,1.528 4.174,0.763 0.747,-1.276 5.229,-0.373 5.122,-1.044 -0.205,-1.2849998 2.427,-0.23 3.373,-1.8859998 0.482,-0.843 1.533,-1.49 2.489,-1.258 1.116,0.271 2.493,-1.643 2.389,-3.996 -0.871,-1.057 -1.951,-1.931 -3.164,-2.589 z M 25.767,17.477 c -0.338,0.166 -0.671,0.293 -0.975,0.326 -2.248,0.243 -2.734,2.005 -4.242,1.703 -0.777,-0.156 -1.837,1.214 -3.05,1.297 -0.611,0.042 -1.489,0.141 -2.386,0.308 0.768,0.175 1.565,0.277 2.386,0.277 3.331,0 6.305,-1.523 8.267,-3.911 z"
     id="path6"
     inkscape:connector-curvature="0"
     style="fill:#f4900c" />
  <path
     d="m 22.725,1.3680002 c 0.953,0.535 1.811,1.213 2.554,2.003 2.491,-0.157 4.01,0.429 3.883,1.777 -0.066,0.705 -0.585,1.542 -1.431,2.435 -2.108,2.221 -6.309,4.7959998 -11.07,6.6019998 -3.309,1.255 -6.258,1.9 -8.366,1.934 C 6.15,16.154 4.877,15.556 4.993,14.316 5.069,13.501 5.745,12.51 6.845,11.459 6.826,11.204 6.806,10.952 6.806,10.694 6.806,9.8460002 6.915,9.0250002 7.102,8.2330002 2.8,11.216 0,14.501 0,17.063 c 0,3.487 5.162,4.558 12.275,2.957 1.65,-0.371 3.405,-0.886 5.225,-1.549 3.9,-1.419 7.489,-3.3 10.399,-5.317 C 32.2,10.171 35,6.8860002 35,4.3240002 c 0,-3.48599996 -5.162,-4.55799996 -12.275,-2.956 z"
     id="path8"
     inkscape:connector-curvature="0"
     style="fill:#e85e00" />
  <path
     d="m 5.856,10.745 c -0.742,0.711 -1.369,1.524 -1.88,2.382 -0.49,0.852 -0.907,1.811 -0.844,2.671 0.035,0.856 0.682,1.366 1.558,1.602 0.874,0.227 1.845,0.287 2.834,0.229 1.962,-0.089 3.93,-0.415 5.841,-0.965 1.924,-0.505 3.791,-1.225 5.615,-2.036 3.648,-1.628 7.068,-3.789 10.132,-6.3819998 0.368,-0.333 0.771,-0.649 1.124,-0.986 0.333,-0.337 0.647,-0.713 0.91,-1.097 0.522,-0.768 0.826,-1.667 0.335,-2.352 -0.49,-0.696 -1.495,-1.075 -2.453,-1.271 -0.981,-0.187 -2.01,-0.23 -3.03,-0.111 0.992,-0.265 2.037,-0.395 3.088,-0.316 1.03,0.092 2.172,0.3 3.008,1.221 0.41,0.457 0.599,1.145 0.524,1.746 -0.057,0.611 -0.293,1.15 -0.563,1.635 -0.278,0.485 -0.59,0.925 -0.945,1.348 -0.352,0.404 -0.709,0.777 -1.072,1.163 C 27.106,12.22 23.598,14.64 19.777,16.385 15.961,18.105 11.803,19.296 7.516,19.139 6.46,19.099 5.359,19.006 4.28,18.591 3.746,18.382 3.198,18.074 2.78,17.575 2.351,17.085 2.145,16.404 2.191,15.801 2.289,14.588 2.895,13.649 3.54,12.825 4.204,12.006 4.987,11.3 5.856,10.745 Z"
     id="path10"
     inkscape:connector-curvature="0"
     style="fill:#f4900c" />
</svg>
