<?xml version="1.0" encoding="UTF-8" standalone="no"?>
<svg
   xmlns:dc="http://purl.org/dc/elements/1.1/"
   xmlns:cc="http://creativecommons.org/ns#"
   xmlns:rdf="http://www.w3.org/1999/02/22-rdf-syntax-ns#"
   xmlns:svg="http://www.w3.org/2000/svg"
   xmlns="http://www.w3.org/2000/svg"
   xmlns:sodipodi="http://sodipodi.sourceforge.net/DTD/sodipodi-0.dtd"
   xmlns:inkscape="http://www.inkscape.org/namespaces/inkscape"
   viewBox="0 0 36 36.000198"
   id="svg2"
   version="1.1"
   inkscape:version="0.91 r13725"
   sodipodi:docname="23f0.svg"
   width="36"
   height="36.000198">
  <metadata
     id="metadata22">
    <rdf:RDF>
      <cc:Work
         rdf:about="">
        <dc:format>image/svg+xml</dc:format>
        <dc:type
           rdf:resource="http://purl.org/dc/dcmitype/StillImage" />
      </cc:Work>
    </rdf:RDF>
  </metadata>
  <defs
     id="defs20" />
  <sodipodi:namedview
     pagecolor="#ffffff"
     bordercolor="#666666"
     borderopacity="1"
     objecttolerance="10"
     gridtolerance="10"
     guidetolerance="10"
     inkscape:pageopacity="0"
     inkscape:pageshadow="2"
     inkscape:window-width="640"
     inkscape:window-height="480"
     id="namedview18"
     showgrid="false"
     inkscape:zoom="6.5555556"
     inkscape:cx="18"
     inkscape:cy="18.000199"
     inkscape:window-x="0"
     inkscape:window-y="0"
     inkscape:window-maximized="0"
     inkscape:current-layer="svg2" />
  <path
     d="m 20,6.042 c 0,1.112 -0.903,2.014 -2,2.014 -1.097,0 -2,-0.902 -2,-2.014 L 16,2.014 C 16,0.901 16.903,0 18,0 c 1.097,0 2,0.901 2,2.014 l 0,4.028 z"
     id="path4"
     inkscape:connector-curvature="0"
     style="fill:#ffcc4d" />
  <path
     d="M 9.18,36 C 8.956,36 8.728,35.948 8.514,35.841 7.778,35.467 7.479,34.561 7.847,33.814 l 8.94,-18.127 c 0.252,-0.512 0.768,-0.835 1.333,-0.835 0.565,0 1.081,0.323 1.333,0.835 l 8.941,18.127 c 0.368,0.747 0.07,1.653 -0.666,2.027 -0.736,0.372 -1.631,0.07 -1.999,-0.676 L 18.121,19.74 10.514,35.165 C 10.252,35.694 9.726,36 9.18,36 Z"
     id="path6"
     inkscape:connector-curvature="0"
     style="fill:#ffac33" />
  <path
     d="m 18.121,20.392 c -0.263,0 -0.516,-0.106 -0.702,-0.295 L 3.512,5.998 C 3.124,5.604 3.124,4.967 3.512,4.574 3.9,4.181 4.529,4.181 4.916,4.574 L 18.121,17.96 31.324,4.573 c 0.389,-0.393 1.017,-0.393 1.405,0 0.388,0.394 0.388,1.031 0,1.424 l -13.905,14.1 c -0.187,0.188 -0.439,0.295 -0.703,0.295 z"
     id="path8"
     inkscape:connector-curvature="0"
     style="fill:#58595b" />
  <path
     d="m 34.015,19.385 c 0,8.898 -7.115,16.111 -15.894,16.111 -8.777,0 -15.893,-7.213 -15.893,-16.111 0,-8.9 7.116,-16.113 15.893,-16.113 8.778,-10e-4 15.894,7.213 15.894,16.113 z"
     id="path10"
     inkscape:connector-curvature="0"
     style="fill:#dd2e44" />
  <path
     d="m 30.041,19.385 c 0,6.674 -5.335,12.084 -11.92,12.084 -6.583,0 -11.919,-5.41 -11.919,-12.084 0,-6.675 5.336,-12.085 11.919,-12.085 6.585,-10e-4 11.92,5.41 11.92,12.085 z"
     id="path12"
     inkscape:connector-curvature="0"
     style="fill:#e6e7e8" />
  <path
     d="m 30.04,1.257 c -1.646,0 -3.135,0.676 -4.214,1.77 l 8.429,8.544 C 35.333,10.478 36,8.968 36,7.299 36,3.963 33.331,1.257 30.04,1.257 Z m -24.08,0 c 1.645,0 3.135,0.676 4.214,1.77 L 1.745,11.571 C 0.667,10.478 0,8.968 0,7.299 0,3.963 2.668,1.257 5.96,1.257 Z"
     id="path14"
     inkscape:connector-curvature="0"
     style="fill:#ffcc4d" />
  <path
     d="m 23,20 -5,0 c -0.552,0 -1,-0.447 -1,-1 l 0,-9 c 0,-0.552 0.448,-1 1,-1 0.552,0 1,0.448 1,1 l 0,8 4,0 c 0.553,0 1,0.448 1,1 0,0.553 -0.447,1 -1,1 z"
     id="path16"
     inkscape:connector-curvature="0"
     style="fill:#414042" />
</svg>
