<?xml version="1.0" encoding="UTF-8" standalone="no"?>
<svg
   xmlns:dc="http://purl.org/dc/elements/1.1/"
   xmlns:cc="http://creativecommons.org/ns#"
   xmlns:rdf="http://www.w3.org/1999/02/22-rdf-syntax-ns#"
   xmlns:svg="http://www.w3.org/2000/svg"
   xmlns="http://www.w3.org/2000/svg"
   xmlns:sodipodi="http://sodipodi.sourceforge.net/DTD/sodipodi-0.dtd"
   xmlns:inkscape="http://www.inkscape.org/namespaces/inkscape"
   viewBox="0 0 34 36"
   id="svg2"
   version="1.1"
   inkscape:version="0.91 r13725"
   sodipodi:docname="23f2.svg"
   width="34"
   height="36">
  <metadata
     id="metadata18">
    <rdf:RDF>
      <cc:Work
         rdf:about="">
        <dc:format>image/svg+xml</dc:format>
        <dc:type
           rdf:resource="http://purl.org/dc/dcmitype/StillImage" />
      </cc:Work>
    </rdf:RDF>
  </metadata>
  <defs
     id="defs16" />
  <sodipodi:namedview
     pagecolor="#ffffff"
     bordercolor="#666666"
     borderopacity="1"
     objecttolerance="10"
     gridtolerance="10"
     guidetolerance="10"
     inkscape:pageopacity="0"
     inkscape:pageshadow="2"
     inkscape:window-width="640"
     inkscape:window-height="480"
     id="namedview14"
     showgrid="false"
     inkscape:zoom="6.5555556"
     inkscape:cx="17"
     inkscape:cy="18"
     inkscape:window-x="0"
     inkscape:window-y="0"
     inkscape:window-maximized="0"
     inkscape:current-layer="svg2" />
  <path
     d="M 17,0 C 7.611,0 0,7.611 0,17 l 0.029,0 0,17 c 0,1.1 0.9,2 2,2 L 32,36 c 1.1,0 2,-0.9 2,-2 L 34,17 C 34,7.611 26.389,0 17,0 Z"
     id="path4"
     inkscape:connector-curvature="0"
     style="fill:#aab8c2" />
  <circle
     cx="17"
     cy="17"
     r="14"
     id="circle6"
     style="fill:#ffffff" />
  <path
     d="M 17,4 C 24.18,4 30,9.82 30,17 30,24.18 24.18,30 17,30 9.82,30 4,24.18 4,17 4,9.82 9.82,4 17,4 M 17,2 C 8.729,2 2,8.729 2,17 2,25.271 8.729,32 17,32 25.271,32 32,25.271 32,17 32,8.729 25.271,2 17,2 Z"
     id="path8"
     inkscape:connector-curvature="0"
     style="fill:#66757f" />
  <path
     d="M 18,6 C 18,5.448 17.552,5 17,5 16.448,5 16,5.448 16,6 l 0,1 c 0,0.552 0.448,1 1,1 0.552,0 1,-0.448 1,-1 l 0,-1 z m 0,21 c 0,-0.552 -0.448,-1 -1,-1 -0.552,0 -1,0.448 -1,1 l 0,1 c 0,0.552 0.448,1 1,1 0.552,0 1,-0.448 1,-1 l 0,-1 z M 7,16 6,16 c -0.552,0 -1,0.448 -1,1 0,0.552 0.448,1 1,1 l 1,0 C 7.552,18 8,17.552 8,17 8,16.448 7.552,16 7,16 Z m 21,0 -1,0 c -0.552,0 -1,0.448 -1,1 0,0.552 0.448,1 1,1 l 1,0 c 0.552,0 1,-0.448 1,-1 0,-0.552 -0.448,-1 -1,-1 z M 25.707,24.293 25,23.586 c -0.391,-0.391 -1.024,-0.391 -1.414,0 -0.391,0.391 -0.391,1.024 0,1.414 l 0.707,0.707 c 0.391,0.391 1.024,0.391 1.414,0 0.391,-0.39 0.391,-1.024 0,-1.414 z M 9,23.586 8.293,24.293 c -0.391,0.391 -0.391,1.024 0,1.414 0.391,0.391 1.024,0.391 1.414,0 L 10.414,25 c 0.391,-0.391 0.391,-1.024 0,-1.414 -0.39,-0.391 -1.023,-0.391 -1.414,0 z M 8.293,9.707 9,10.414 c 0.391,0.391 1.024,0.391 1.414,0 0.39,-0.391 0.391,-1.024 0,-1.414 L 9.707,8.293 c -0.391,-0.391 -1.024,-0.391 -1.414,0 -0.39,0.391 -0.391,1.024 0,1.414 z M 25,10.414 25.707,9.707 c 0.391,-0.391 0.391,-1.024 0,-1.414 -0.391,-0.391 -1.024,-0.391 -1.414,0 L 23.586,9 c -0.391,0.391 -0.391,1.024 0,1.414 0.39,0.391 1.023,0.391 1.414,0 z"
     id="path10"
     inkscape:connector-curvature="0"
     style="fill:#292f33" />
  <path
     d="M 7.915,13.839 C 7.82,13.601 7.816,13.327 7.926,13.074 8.144,12.567 8.732,12.333 9.24,12.551 l 8.154,3.51 c 0.507,0.218 0.741,0.806 0.523,1.314 -0.218,0.507 -0.806,0.741 -1.314,0.523 L 8.449,14.388 C 8.195,14.278 8.01,14.077 7.915,13.839 Z"
     id="path12"
     inkscape:connector-curvature="0"
     style="fill:#dd2e44" />
</svg>
