<?xml version="1.0" encoding="UTF-8" standalone="no"?>
<svg
   xmlns:dc="http://purl.org/dc/elements/1.1/"
   xmlns:cc="http://creativecommons.org/ns#"
   xmlns:rdf="http://www.w3.org/1999/02/22-rdf-syntax-ns#"
   xmlns:svg="http://www.w3.org/2000/svg"
   xmlns="http://www.w3.org/2000/svg"
   xmlns:sodipodi="http://sodipodi.sourceforge.net/DTD/sodipodi-0.dtd"
   xmlns:inkscape="http://www.inkscape.org/namespaces/inkscape"
   viewBox="0 0 33.290928 35.714348"
   id="svg2"
   version="1.1"
   inkscape:version="0.91 r13725"
   sodipodi:docname="2604.svg"
   width="33.290928"
   height="35.714348">
  <metadata
     id="metadata16">
    <rdf:RDF>
      <cc:Work
         rdf:about="">
        <dc:format>image/svg+xml</dc:format>
        <dc:type
           rdf:resource="http://purl.org/dc/dcmitype/StillImage" />
      </cc:Work>
    </rdf:RDF>
  </metadata>
  <defs
     id="defs14" />
  <sodipodi:namedview
     pagecolor="#ffffff"
     bordercolor="#666666"
     borderopacity="1"
     objecttolerance="10"
     gridtolerance="10"
     guidetolerance="10"
     inkscape:pageopacity="0"
     inkscape:pageshadow="2"
     inkscape:window-width="640"
     inkscape:window-height="480"
     id="namedview12"
     showgrid="false"
     inkscape:zoom="6.5555556"
     inkscape:cx="16.291086"
     inkscape:cy="17.7144"
     inkscape:window-x="0"
     inkscape:window-y="0"
     inkscape:window-maximized="0"
     inkscape:current-layer="svg2" />
  <path
     d="m 31.953086,0.04894554 c -1.148,-0.077 -5.869,-0.75 -17.522,6.66499996 C 2.7790856,14.128946 -3.3549144,26.608946 1.8950856,33.328946 c 1.104,1.413 5.518,4.283 10.6820004,0.53 3.247,-2.359 4.242,-7.52 7.15,-14.434 1.986,-4.723 6.444,-13.5940005 12.668,-17.6110005 1.942,-0.96999996 0.22,-1.71999996 -0.442,-1.76499996 z"
     id="path4"
     inkscape:connector-curvature="0"
     style="fill:#5dadec" />
  <path
     d="m 14.916086,13.650946 c -0.265,-1.059 0.971,-4.2810005 1.324,-5.1640005 C 9.8030856,11.415946 3.7310856,20.102946 3.7700856,21.666946 c 0.006,0.227 0.139,0.305 0.42,0.193 5.398,-2.166 8.8820004,1.07 9.8070004,3.751 0.095,0.274 0.214,0.414 0.339,0.44 0.171,0.036 0.352,-0.15 0.494,-0.557 2.026,-5.819 6.573,-16.4390005 11.296,-20.4940005 -2.648,1.28 -10.106,6.7970005 -11.21,8.6510005 z"
     id="path6"
     inkscape:connector-curvature="0"
     style="fill:#8ccaf7" />
  <path
     d="m 12.533086,12.988946 c -1.737,0.827 -7.2750004,6.192 -8.7620004,8.678 0.006,0.227 0.139,0.305 0.42,0.193 5.398,-2.166 8.8820004,1.07 9.8070004,3.751 0.095,0.274 0.214,0.414 0.339,0.44 0.057,-2.328 -0.092,-7.616 2.213,-11.561 -4.061,3.707 -5.076,3.618 -4.017,-1.501 z"
     id="path8"
     inkscape:connector-curvature="0"
     style="fill:#bdddf4" />
  <path
     d="m 7.0160856,23.662946 c -2.925,0 -5.297,2.371 -5.297,5.297 0,2.925 2.372,5.296 5.297,5.296 2.925,0 5.2960004,-2.371 5.2960004,-5.296 0,-2.926 -2.3710004,-5.297 -5.2960004,-5.297 z"
     id="path10"
     inkscape:connector-curvature="0"
     style="fill:#f5f8fa" />
</svg>
