<?xml version="1.0" encoding="UTF-8" standalone="no"?>
<svg
   xmlns:dc="http://purl.org/dc/elements/1.1/"
   xmlns:cc="http://creativecommons.org/ns#"
   xmlns:rdf="http://www.w3.org/1999/02/22-rdf-syntax-ns#"
   xmlns:svg="http://www.w3.org/2000/svg"
   xmlns="http://www.w3.org/2000/svg"
   xmlns:sodipodi="http://sodipodi.sourceforge.net/DTD/sodipodi-0.dtd"
   xmlns:inkscape="http://www.inkscape.org/namespaces/inkscape"
   viewBox="0 0 36 28"
   id="svg2"
   version="1.1"
   inkscape:version="0.91 r13725"
   sodipodi:docname="260e.svg"
   width="36"
   height="28">
  <metadata
     id="metadata14">
    <rdf:RDF>
      <cc:Work
         rdf:about="">
        <dc:format>image/svg+xml</dc:format>
        <dc:type
           rdf:resource="http://purl.org/dc/dcmitype/StillImage" />
      </cc:Work>
    </rdf:RDF>
  </metadata>
  <defs
     id="defs12" />
  <sodipodi:namedview
     pagecolor="#ffffff"
     bordercolor="#666666"
     borderopacity="1"
     objecttolerance="10"
     gridtolerance="10"
     guidetolerance="10"
     inkscape:pageopacity="0"
     inkscape:pageshadow="2"
     inkscape:window-width="640"
     inkscape:window-height="480"
     id="namedview10"
     showgrid="false"
     inkscape:zoom="6.5555556"
     inkscape:cx="18"
     inkscape:cy="14"
     inkscape:window-x="0"
     inkscape:window-y="0"
     inkscape:window-maximized="0"
     inkscape:current-layer="svg2" />
  <path
     d="M 36,7.5 C 36,4.462 33,0 18,0 3,0 0,4.462 0,7.5 0,7.545 0.019,7.576 0.022,7.619 0.01,7.815 0,8.021 0,8.25 0,10.873 2.239,12 5,12 7.761,12 10,10.873 10,8.25 10,8.032 9.979,7.838 9.949,7.653 12.374,7.302 15.102,7 18,7 20.898,7 23.626,7.302 26.051,7.653 26.021,7.838 26,8.032 26,8.25 26,10.873 28.238,12 31,12 33.762,12 36,10.873 36,8.25 36,8.025 35.991,7.821 35.976,7.629 35.98,7.583 36,7.549 36,7.5 Z"
     id="path4"
     inkscape:connector-curvature="0"
     style="fill:#be1931" />
  <path
     d="M 34.934,19 C 34.452,17.969 32.624,14.81 30.966,11.993 29.408,9.346 27,7 25,7 L 25,5 C 25,3.896 24.104,3 23,3 21.896,3 21,3.896 21,5 l 0,2 -6,0 0,-2 C 15,3.896 14.104,3 13,3 11.896,3 11,3.896 11,5 l 0,2 C 9,7 6.59,9.351 5.03,12 3.373,14.815 1.547,17.97 1.066,19 0.488,20.239 0,21 0,23 c 0,2 1.791,5 4,5 l 28,0 c 2.209,0 4,-3 4,-5 0,-2 -0.448,-2.676 -1.066,-4 z"
     id="path6"
     inkscape:connector-curvature="0"
     style="fill:#dd2e44" />
  <path
     d="m 20.046,10.818 c 0,0.452 -0.916,0.818 -2.046,0.818 -1.13,0 -2.045,-0.366 -2.045,-0.818 C 15.955,10.366 16.87,10 18,10 c 1.13,0 2.046,0.366 2.046,0.818 z m -4.91,0 c 0,0.452 -0.915,0.818 -2.045,0.818 -1.13,0 -2.045,-0.366 -2.045,-0.818 0,-0.452 0.916,-0.818 2.045,-0.818 1.129,0 2.045,0.366 2.045,0.818 z m 9.818,0 c 0,0.452 -0.915,0.818 -2.045,0.818 -1.13,0 -2.046,-0.366 -2.046,-0.818 0,-0.452 0.916,-0.818 2.046,-0.818 1.13,0 2.045,0.366 2.045,0.818 z m -4.5,2.864 c 0,0.679 -1.099,1.228 -2.454,1.228 -1.355,0 -2.455,-0.549 -2.455,-1.228 0,-0.677 1.099,-1.227 2.455,-1.227 1.356,0 2.454,0.549 2.454,1.227 z m 5.728,0 c 0,0.679 -1.1,1.228 -2.454,1.228 -1.355,0 -2.455,-0.549 -2.455,-1.228 0,-0.677 1.1,-1.227 2.455,-1.227 1.354,0 2.454,0.549 2.454,1.227 z m -11.455,0 c 0,0.679 -1.099,1.228 -2.454,1.228 -1.355,0 -2.455,-0.549 -2.455,-1.228 0,-0.677 1.099,-1.227 2.455,-1.227 1.355,0 2.454,0.549 2.454,1.227 z m 6.545,3.681 C 21.272,18.269 19.807,19 18,19 c -1.807,0 -3.273,-0.731 -3.273,-1.637 0,-0.903 1.466,-1.636 3.273,-1.636 1.807,10e-4 3.272,0.733 3.272,1.636 z m 7.365,0 c 0,0.905 -1.467,1.637 -3.273,1.637 -1.807,0 -3.273,-0.731 -3.273,-1.637 0,-0.903 1.466,-1.636 3.273,-1.636 1.806,10e-4 3.273,0.733 3.273,1.636 z m -14.728,0 c 0,0.905 -1.466,1.637 -3.273,1.637 -1.807,0 -3.272,-0.731 -3.272,-1.637 0,-0.903 1.465,-1.636 3.272,-1.636 1.807,10e-4 3.273,0.733 3.273,1.636 z"
     id="path8"
     inkscape:connector-curvature="0"
     style="fill:#ffffff" />
</svg>
