<?xml version="1.0" encoding="UTF-8" standalone="no"?>
<svg
   xmlns:dc="http://purl.org/dc/elements/1.1/"
   xmlns:cc="http://creativecommons.org/ns#"
   xmlns:rdf="http://www.w3.org/1999/02/22-rdf-syntax-ns#"
   xmlns:svg="http://www.w3.org/2000/svg"
   xmlns="http://www.w3.org/2000/svg"
   xmlns:sodipodi="http://sodipodi.sourceforge.net/DTD/sodipodi-0.dtd"
   xmlns:inkscape="http://www.inkscape.org/namespaces/inkscape"
   viewBox="0 0 36 36.000999"
   id="svg2"
   version="1.1"
   inkscape:version="0.91 r13725"
   sodipodi:docname="2615.svg"
   width="36"
   height="36.000999">
  <metadata
     id="metadata20">
    <rdf:RDF>
      <cc:Work
         rdf:about="">
        <dc:format>image/svg+xml</dc:format>
        <dc:type
           rdf:resource="http://purl.org/dc/dcmitype/StillImage" />
      </cc:Work>
    </rdf:RDF>
  </metadata>
  <defs
     id="defs18" />
  <sodipodi:namedview
     pagecolor="#ffffff"
     bordercolor="#666666"
     borderopacity="1"
     objecttolerance="10"
     gridtolerance="10"
     guidetolerance="10"
     inkscape:pageopacity="0"
     inkscape:pageshadow="2"
     inkscape:window-width="640"
     inkscape:window-height="480"
     id="namedview16"
     showgrid="false"
     inkscape:zoom="6.5555556"
     inkscape:cx="18"
     inkscape:cy="18"
     inkscape:window-x="0"
     inkscape:window-y="0"
     inkscape:window-maximized="0"
     inkscape:current-layer="svg2" />
  <ellipse
     cx="18"
     cy="26.000999"
     rx="18"
     ry="10"
     id="ellipse4"
     style="fill:#99aab5" />
  <ellipse
     cx="18"
     cy="24.000999"
     rx="18"
     ry="10"
     id="ellipse6"
     style="fill:#ccd6dd" />
  <path
     d="m 18,31.001 c -14.958,0 -17,-15 -17,-19 l 34,0 c 0,2 -1.958,19 -17,19 z"
     id="path8"
     inkscape:connector-curvature="0"
     style="fill:#f5f8fa" />
  <path
     d="M 34.385,9.645 C 36.827,-0.478 24.604,1.939 22.181,3.846 20.841,3.698 19.445,3.612 18,3.612 c -9.389,0 -17,3.229 -17,8.444 0,5.216 7.611,9.445 17,9.445 9.389,0 17,-4.229 17,-9.444 0,-0.863 -0.226,-1.664 -0.615,-2.412 z M 31.882,6.953 C 30.525,6.015 28.78,5.259 26.761,4.703 c 1.875,-0.576 4.551,-0.309 5.121,2.25 z"
     id="path10"
     inkscape:connector-curvature="0"
     style="fill:#ccd6dd" />
  <ellipse
     cx="18"
     cy="13.001"
     rx="15"
     ry="7"
     id="ellipse12"
     style="fill:#8a4b38" />
  <path
     d="m 20,17.001 c -0.256,0 -0.512,-0.098 -0.707,-0.293 -2.337,-2.337 -2.376,-4.885 -0.125,-8.262 0.739,-1.109 0.9,-2.246 0.478,-3.377 -0.461,-1.236 -1.438,-1.996 -1.731,-2.077 -0.553,0 -0.958,-0.443 -0.958,-0.996 0,-0.552 0.491,-0.995 1.043,-0.995 0.997,0 2.395,1.153 3.183,2.625 1.034,1.933 0.91,4.039 -0.351,5.929 -1.961,2.942 -1.531,4.332 -0.125,5.738 0.391,0.391 0.391,1.023 0,1.414 -0.195,0.196 -0.451,0.294 -0.707,0.294 z m -6,-2 c -0.256,0 -0.512,-0.098 -0.707,-0.293 C 10.956,12.371 10.917,9.823 13.168,6.446 13.895,5.355 14.061,4.363 13.662,3.499 13.218,2.538 12.231,2.03 11.978,2 11.426,2 10.989,1.553 10.989,1 c 0,-0.552 0.458,-1 1.011,-1 0.997,0 2.585,0.974 3.36,2.423 0.481,0.899 1.052,2.761 -0.528,5.131 -1.961,2.942 -1.531,4.332 -0.125,5.738 0.391,0.391 0.391,1.023 0,1.414 -0.195,0.197 -0.451,0.295 -0.707,0.295 z"
     id="path14"
     inkscape:connector-curvature="0"
     style="fill:#d99e82" />
</svg>
