<?xml version="1.0" encoding="UTF-8" standalone="no"?>
<svg
   xmlns:dc="http://purl.org/dc/elements/1.1/"
   xmlns:cc="http://creativecommons.org/ns#"
   xmlns:rdf="http://www.w3.org/1999/02/22-rdf-syntax-ns#"
   xmlns:svg="http://www.w3.org/2000/svg"
   xmlns="http://www.w3.org/2000/svg"
   xmlns:sodipodi="http://sodipodi.sourceforge.net/DTD/sodipodi-0.dtd"
   xmlns:inkscape="http://www.inkscape.org/namespaces/inkscape"
   viewBox="0 0 34.063999 35.978809"
   id="svg2"
   version="1.1"
   inkscape:version="0.91 r13725"
   sodipodi:docname="2618.svg"
   width="34.063999"
   height="35.978809">
  <metadata
     id="metadata10">
    <rdf:RDF>
      <cc:Work
         rdf:about="">
        <dc:format>image/svg+xml</dc:format>
        <dc:type
           rdf:resource="http://purl.org/dc/dcmitype/StillImage" />
      </cc:Work>
    </rdf:RDF>
  </metadata>
  <defs
     id="defs8" />
  <sodipodi:namedview
     pagecolor="#ffffff"
     bordercolor="#666666"
     borderopacity="1"
     objecttolerance="10"
     gridtolerance="10"
     guidetolerance="10"
     inkscape:pageopacity="0"
     inkscape:pageshadow="2"
     inkscape:window-width="640"
     inkscape:window-height="480"
     id="namedview6"
     showgrid="false"
     inkscape:zoom="6.5555556"
     inkscape:cx="17.055"
     inkscape:cy="17.978808"
     inkscape:window-x="0"
     inkscape:window-y="0"
     inkscape:window-maximized="0"
     inkscape:current-layer="svg2" />
  <path
     d="M 31.395,19.208 C 31.593,17.733 34.064,17 34.064,14.666 34.064,12.333 28.305,8.25 20.055,16 23.867,10.688 26.597,1.491 22.258,1.491 20.788,1.491 19.679,2.833 17.93,2.833 15.555,2.833 15.263,0 13.055,0 c -2.583,0 -5,6.25 1,15 C 12.555,13.375 2.972,8.375 1.053,13.731 0.425,15.484 2.784,16.512 2.597,18.25 2.419,19.904 0,20.287 0,22.622 c 0,3.293 8.048,4.834 16.044,-1.613 -0.245,4.524 0.557,10.515 3.857,14.158 1.344,1.483 2.407,0.551 2.822,0.187 0.416,-0.365 1.604,-1.414 0.185,-2.822 -3.834,-3.807 -5.225,-8.174 -5.619,-11.381 2.043,2.215 12.357,8.742 15.517,2.767 0.881,-1.668 -1.643,-2.977 -1.411,-4.71 z"
     id="path4"
     inkscape:connector-curvature="0"
     style="fill:#77b255" />
</svg>
