<?xml version="1.0" encoding="UTF-8" standalone="no"?>
<svg
   xmlns:dc="http://purl.org/dc/elements/1.1/"
   xmlns:cc="http://creativecommons.org/ns#"
   xmlns:rdf="http://www.w3.org/1999/02/22-rdf-syntax-ns#"
   xmlns:svg="http://www.w3.org/2000/svg"
   xmlns="http://www.w3.org/2000/svg"
   xmlns:sodipodi="http://sodipodi.sourceforge.net/DTD/sodipodi-0.dtd"
   xmlns:inkscape="http://www.inkscape.org/namespaces/inkscape"
   viewBox="0 0 36 36"
   id="svg2"
   version="1.1"
   inkscape:version="0.91 r13725"
   sodipodi:docname="2626.svg"
   width="36"
   height="36">
  <metadata
     id="metadata14">
    <rdf:RDF>
      <cc:Work
         rdf:about="">
        <dc:format>image/svg+xml</dc:format>
        <dc:type
           rdf:resource="http://purl.org/dc/dcmitype/StillImage" />
      </cc:Work>
    </rdf:RDF>
  </metadata>
  <defs
     id="defs12" />
  <sodipodi:namedview
     pagecolor="#ffffff"
     bordercolor="#666666"
     borderopacity="1"
     objecttolerance="10"
     gridtolerance="10"
     guidetolerance="10"
     inkscape:pageopacity="0"
     inkscape:pageshadow="2"
     inkscape:window-width="640"
     inkscape:window-height="480"
     id="namedview10"
     showgrid="false"
     inkscape:zoom="6.5555556"
     inkscape:cx="18"
     inkscape:cy="18"
     inkscape:window-x="0"
     inkscape:window-y="0"
     inkscape:window-maximized="0"
     inkscape:current-layer="svg2" />
  <path
     d="m 36,32 c 0,2.209 -1.791,4 -4,4 L 4,36 C 1.791,36 0,34.209 0,32 L 0,4 C 0,1.791 1.791,0 4,0 l 28,0 c 2.209,0 4,1.791 4,4 l 0,28 z"
     id="path4"
     inkscape:connector-curvature="0"
     style="fill:#9266cc" />
  <path
     d="M 23,6 20,6 20,4 C 20,3.448 19.553,3 19,3 l -2,0 c -0.552,0 -1,0.448 -1,1 l 0,2 -3,0 c -0.552,0 -1,0.448 -1,1 l 0,2 c 0,0.552 0.448,1 1,1 l 3,0 0,22 c 0,0.553 0.448,1 1,1 l 2,0 c 0.553,0 1,-0.447 1,-1 l 0,-22 3,0 c 0.553,0 1,-0.448 1,-1 L 24,7 C 24,6.448 23.553,6 23,6 Z"
     id="path6"
     inkscape:connector-curvature="0"
     style="fill:#ffffff" />
  <path
     d="M 29,13 7,13 c -0.552,0 -1,0.448 -1,1 l 0,2 c 0,0.553 0.448,1 1,1 l 22,0 c 0.553,0 1,-0.447 1,-1 l 0,-2 c 0,-0.552 -0.447,-1 -1,-1 z M 24.324,24.924 12.895,21.267 c -0.526,-0.168 -1.089,0.122 -1.257,0.648 l -0.61,1.905 c -0.168,0.526 0.122,1.089 0.648,1.257 l 11.429,3.657 c 0.526,0.168 1.089,-0.121 1.257,-0.648 l 0.61,-1.905 c 0.168,-0.526 -0.121,-1.089 -0.648,-1.257 z"
     id="path8"
     inkscape:connector-curvature="0"
     style="fill:#ffffff" />
</svg>
