<?xml version="1.0" encoding="UTF-8" standalone="no"?>
<svg
   xmlns:dc="http://purl.org/dc/elements/1.1/"
   xmlns:cc="http://creativecommons.org/ns#"
   xmlns:rdf="http://www.w3.org/1999/02/22-rdf-syntax-ns#"
   xmlns:svg="http://www.w3.org/2000/svg"
   xmlns="http://www.w3.org/2000/svg"
   xmlns:sodipodi="http://sodipodi.sourceforge.net/DTD/sodipodi-0.dtd"
   xmlns:inkscape="http://www.inkscape.org/namespaces/inkscape"
   viewBox="0 0 36 36"
   id="svg2"
   version="1.1"
   inkscape:version="0.91 r13725"
   sodipodi:docname="2638.svg"
   width="36"
   height="36">
  <metadata
     id="metadata12">
    <rdf:RDF>
      <cc:Work
         rdf:about="">
        <dc:format>image/svg+xml</dc:format>
        <dc:type
           rdf:resource="http://purl.org/dc/dcmitype/StillImage" />
      </cc:Work>
    </rdf:RDF>
  </metadata>
  <defs
     id="defs10" />
  <sodipodi:namedview
     pagecolor="#ffffff"
     bordercolor="#666666"
     borderopacity="1"
     objecttolerance="10"
     gridtolerance="10"
     guidetolerance="10"
     inkscape:pageopacity="0"
     inkscape:pageshadow="2"
     inkscape:window-width="640"
     inkscape:window-height="480"
     id="namedview8"
     showgrid="false"
     inkscape:zoom="6.5555556"
     inkscape:cx="18"
     inkscape:cy="18"
     inkscape:window-x="0"
     inkscape:window-y="0"
     inkscape:window-maximized="0"
     inkscape:current-layer="svg2" />
  <path
     d="m 36,32 c 0,2.209 -1.791,4 -4,4 L 4,36 C 1.791,36 0,34.209 0,32 L 0,4 C 0,1.791 1.791,0 4,0 l 28,0 c 2.209,0 4,1.791 4,4 l 0,28 z"
     id="path4"
     inkscape:connector-curvature="0"
     style="fill:#9266cc" />
  <path
     d="m 32,17 -1.051,0 C 30.732,14.168 29.608,11.589 27.861,9.553 L 29.02,8.394 c 0.391,-0.391 0.391,-1.023 0,-1.414 -0.391,-0.391 -1.023,-0.391 -1.414,0 L 26.447,8.139 C 24.411,6.392 21.833,5.268 19,5.051 L 19,4 C 19,3.448 18.553,3 18,3 17.447,3 17,3.448 17,4 l 0,1.051 C 14.167,5.268 11.589,6.392 9.552,8.139 L 8.487,7.073 c -0.391,-0.391 -1.023,-0.391 -1.414,0 -0.391,0.391 -0.391,1.023 0,1.414 L 8.139,9.553 C 6.391,11.589 5.268,14.168 5.051,17 L 4,17 c -0.552,0 -1,0.447 -1,1 0,0.553 0.448,1 1,1 l 1.051,0 c 0.217,2.833 1.341,5.411 3.088,7.447 L 6.98,27.606 c -0.391,0.391 -0.391,1.023 0,1.414 0.195,0.195 0.451,0.293 0.707,0.293 0.256,0 0.512,-0.098 0.707,-0.293 l 1.159,-1.159 c 2.036,1.747 4.615,2.871 7.447,3.088 L 17,32 c 0,0.553 0.447,1 1,1 0.553,0 1,-0.447 1,-1 l 0,-1.051 c 2.832,-0.217 5.41,-1.341 7.447,-3.088 l 1.066,1.066 c 0.195,0.195 0.451,0.293 0.707,0.293 0.256,0 0.512,-0.098 0.707,-0.293 0.391,-0.391 0.391,-1.023 0,-1.414 l -1.066,-1.066 c 1.747,-2.037 2.871,-4.615 3.088,-7.448 l 1.051,0 c 0.553,0 1,-0.447 1,-1 C 33,17.446 32.553,17 32,17 Z m -5.552,-6.033 c 1.391,1.667 2.294,3.751 2.501,6.033 l -6.04,0 C 22.79,16.351 22.546,15.748 22.202,15.212 l 4.246,-4.245 z M 19,7.051 c 2.283,0.207 4.366,1.111 6.034,2.501 l -4.22,4.22 C 20.275,13.403 19.662,13.136 19,13.001 l 0,-5.95 z M 21,17.9 c 0,1.654 -1.346,3 -3,3 -1.654,0 -3,-1.346 -3,-3 0,-1.654 1.346,-3 3,-3 1.654,0 3,1.346 3,3 z m -4,-10.849 0,5.95 c -0.662,0.135 -1.275,0.402 -1.814,0.771 l -4.22,-4.22 C 12.633,8.162 14.717,7.258 17,7.051 Z m -7.448,3.916 4.246,4.246 c -0.344,0.536 -0.588,1.139 -0.707,1.788 l -6.04,0 c 0.207,-2.284 1.11,-4.367 2.501,-6.034 z m 0,14.067 C 8.161,23.366 7.258,21.283 7.051,19 l 6.08,0 c 0.141,0.622 0.392,1.203 0.741,1.714 l -4.32,4.32 z M 17,28.949 c -2.283,-0.207 -4.366,-1.111 -6.034,-2.501 l 4.345,-4.345 c 0.509,0.327 1.076,0.572 1.688,0.697 l 0,6.149 z m 2,0 0,-6.15 c 0.612,-0.125 1.179,-0.37 1.688,-0.697 l 4.345,4.346 c -1.667,1.391 -3.75,2.294 -6.033,2.501 z m 7.447,-3.915 -4.32,-4.32 c 0.35,-0.511 0.601,-1.092 0.741,-1.715 l 6.08,0 c -0.206,2.284 -1.11,4.368 -2.501,6.035 z"
     id="path6"
     inkscape:connector-curvature="0"
     style="fill:#ffffff" />
</svg>
