<?xml version="1.0" encoding="UTF-8" standalone="no"?>
<svg
   xmlns:dc="http://purl.org/dc/elements/1.1/"
   xmlns:cc="http://creativecommons.org/ns#"
   xmlns:rdf="http://www.w3.org/1999/02/22-rdf-syntax-ns#"
   xmlns:svg="http://www.w3.org/2000/svg"
   xmlns="http://www.w3.org/2000/svg"
   xmlns:sodipodi="http://sodipodi.sourceforge.net/DTD/sodipodi-0.dtd"
   xmlns:inkscape="http://www.inkscape.org/namespaces/inkscape"
   viewBox="0 0 36 36"
   id="svg2"
   version="1.1"
   inkscape:version="0.91 r13725"
   sodipodi:docname="264a.svg"
   width="36"
   height="36">
  <metadata
     id="metadata18">
    <rdf:RDF>
      <cc:Work
         rdf:about="">
        <dc:format>image/svg+xml</dc:format>
        <dc:type
           rdf:resource="http://purl.org/dc/dcmitype/StillImage" />
      </cc:Work>
    </rdf:RDF>
  </metadata>
  <defs
     id="defs16" />
  <sodipodi:namedview
     pagecolor="#ffffff"
     bordercolor="#666666"
     borderopacity="1"
     objecttolerance="10"
     gridtolerance="10"
     guidetolerance="10"
     inkscape:pageopacity="0"
     inkscape:pageshadow="2"
     inkscape:window-width="640"
     inkscape:window-height="480"
     id="namedview14"
     showgrid="false"
     inkscape:zoom="6.5555556"
     inkscape:cx="18"
     inkscape:cy="18"
     inkscape:window-x="0"
     inkscape:window-y="0"
     inkscape:window-maximized="0"
     inkscape:current-layer="svg2" />
  <path
     d="m 36,32 c 0,2.209 -1.791,4 -4,4 L 4,36 C 1.791,36 0,34.209 0,32 L 0,4 C 0,1.791 1.791,0 4,0 l 28,0 c 2.209,0 4,1.791 4,4 l 0,28 z"
     id="path4"
     inkscape:connector-curvature="0"
     style="fill:#9266cc" />
  <g
     id="g6"
     style="fill:#ffffff">
    <path
       d="m 28.999,30.5 c -0.157,0 -0.317,-0.024 -0.475,-0.077 C 28.504,30.417 25.549,29.5 17.999,29.5 10.449,29.5 7.494,30.417 7.464,30.426 6.679,30.679 5.833,30.248 5.577,29.464 5.321,28.68 5.742,27.838 6.524,27.577 6.657,27.533 9.849,26.5 17.999,26.5 c 8.149,0 11.343,1.033 11.475,1.077 0.786,0.262 1.21,1.111 0.948,1.897 -0.209,0.629 -0.795,1.026 -1.423,1.026 z"
       id="path8"
       inkscape:connector-curvature="0" />
    <path
       d="m 12,8 3,0 0,20 -3,0 z m 9,0 3,0 0,20 -3,0 z"
       id="path10"
       inkscape:connector-curvature="0" />
    <path
       d="M 17.999,9.5 C 9.849,9.5 6.657,8.467 6.525,8.423 5.739,8.161 5.314,7.311 5.576,6.525 5.837,5.742 6.68,5.317 7.465,5.574 7.511,5.588 10.471,6.5 17.999,6.5 25.55,6.5 28.505,5.584 28.533,5.574 29.318,5.324 30.165,5.752 30.421,6.535 30.677,7.319 30.256,8.161 29.474,8.422 29.342,8.466 26.148,9.5 17.999,9.5 Z"
       id="path12"
       inkscape:connector-curvature="0" />
  </g>
</svg>
