<?xml version="1.0" encoding="UTF-8" standalone="no"?>
<svg
   xmlns:dc="http://purl.org/dc/elements/1.1/"
   xmlns:cc="http://creativecommons.org/ns#"
   xmlns:rdf="http://www.w3.org/1999/02/22-rdf-syntax-ns#"
   xmlns:svg="http://www.w3.org/2000/svg"
   xmlns="http://www.w3.org/2000/svg"
   xmlns:sodipodi="http://sodipodi.sourceforge.net/DTD/sodipodi-0.dtd"
   xmlns:inkscape="http://www.inkscape.org/namespaces/inkscape"
   viewBox="0 0 36 36"
   id="svg2"
   version="1.1"
   inkscape:version="0.91 r13725"
   sodipodi:docname="264c.svg"
   width="36"
   height="36">
  <metadata
     id="metadata14">
    <rdf:RDF>
      <cc:Work
         rdf:about="">
        <dc:format>image/svg+xml</dc:format>
        <dc:type
           rdf:resource="http://purl.org/dc/dcmitype/StillImage" />
      </cc:Work>
    </rdf:RDF>
  </metadata>
  <defs
     id="defs12" />
  <sodipodi:namedview
     pagecolor="#ffffff"
     bordercolor="#666666"
     borderopacity="1"
     objecttolerance="10"
     gridtolerance="10"
     guidetolerance="10"
     inkscape:pageopacity="0"
     inkscape:pageshadow="2"
     inkscape:window-width="640"
     inkscape:window-height="480"
     id="namedview10"
     showgrid="false"
     inkscape:zoom="6.5555556"
     inkscape:cx="18"
     inkscape:cy="18"
     inkscape:window-x="0"
     inkscape:window-y="0"
     inkscape:window-maximized="0"
     inkscape:current-layer="svg2" />
  <path
     d="m 36,32 c 0,2.209 -1.791,4 -4,4 L 4,36 C 1.791,36 0,34.209 0,32 L 0,4 C 0,1.791 1.791,0 4,0 l 28,0 c 2.209,0 4,1.791 4,4 l 0,28 z"
     id="path4"
     inkscape:connector-curvature="0"
     style="fill:#9266cc" />
  <path
     d="m 11.999,27.5 c -3.584,0 -6.5,-2.916 -6.5,-6.5 0,-3.584 2.916,-6.5 6.5,-6.5 3.584,0 6.5,2.916 6.5,6.5 0,3.584 -2.916,6.5 -6.5,6.5 z m 0,-10 c -1.93,0 -3.5,1.57 -3.5,3.5 0,1.93 1.57,3.5 3.5,3.5 1.93,0 3.5,-1.57 3.5,-3.5 0,-1.93 -1.57,-3.5 -3.5,-3.5 z"
     id="path6"
     inkscape:connector-curvature="0"
     style="fill:#ffffff" />
  <path
     d="m 25.553,29.768 c -0.654,0 -1.337,-0.114 -2.028,-0.345 -1.654,-0.552 -2.783,-1.78 -3.18,-3.46 -0.64,-2.71 0.737,-6.167 3.594,-9.024 1.911,-1.912 2.75,-4.625 1.993,-6.452 C 25.251,8.845 23.418,8.5 22,8.5 c -2.173,0 -4.5,1.406 -4.5,3.5 0,1.821 0.388,2.812 0.798,3.862 0.618,1.581 1.257,3.216 0.125,6.612 -0.262,0.784 -1.111,1.211 -1.897,0.948 -0.786,-0.262 -1.21,-1.111 -0.948,-1.897 0.789,-2.366 0.465,-3.196 -0.073,-4.57 C 15.057,15.811 14.5,14.387 14.5,12 c 0,-4.015 3.893,-6.5 7.5,-6.5 4.448,0 6.109,2.405 6.703,3.839 1.221,2.947 0.134,6.944 -2.643,9.722 -2.382,2.382 -3.12,4.837 -2.795,6.213 0.157,0.667 0.541,1.081 1.209,1.304 0.91,0.305 1.701,0.244 2.285,-0.178 0.456,-0.329 0.74,-0.865 0.74,-1.399 0,-0.828 0.672,-1.5 1.5,-1.5 0.828,0 1.5,0.672 1.5,1.5 0,1.504 -0.742,2.938 -1.986,3.834 -0.86,0.618 -1.873,0.933 -2.96,0.933 z"
     id="path8"
     inkscape:connector-curvature="0"
     style="fill:#ffffff" />
</svg>
