<?xml version="1.0" encoding="UTF-8" standalone="no"?>
<svg
   xmlns:dc="http://purl.org/dc/elements/1.1/"
   xmlns:cc="http://creativecommons.org/ns#"
   xmlns:rdf="http://www.w3.org/1999/02/22-rdf-syntax-ns#"
   xmlns:svg="http://www.w3.org/2000/svg"
   xmlns="http://www.w3.org/2000/svg"
   xmlns:sodipodi="http://sodipodi.sourceforge.net/DTD/sodipodi-0.dtd"
   xmlns:inkscape="http://www.inkscape.org/namespaces/inkscape"
   viewBox="0 0 36 36"
   id="svg2"
   version="1.1"
   inkscape:version="0.91 r13725"
   sodipodi:docname="264d.svg"
   width="36"
   height="36">
  <metadata
     id="metadata12">
    <rdf:RDF>
      <cc:Work
         rdf:about="">
        <dc:format>image/svg+xml</dc:format>
        <dc:type
           rdf:resource="http://purl.org/dc/dcmitype/StillImage" />
      </cc:Work>
    </rdf:RDF>
  </metadata>
  <defs
     id="defs10" />
  <sodipodi:namedview
     pagecolor="#ffffff"
     bordercolor="#666666"
     borderopacity="1"
     objecttolerance="10"
     gridtolerance="10"
     guidetolerance="10"
     inkscape:pageopacity="0"
     inkscape:pageshadow="2"
     inkscape:window-width="640"
     inkscape:window-height="480"
     id="namedview8"
     showgrid="false"
     inkscape:zoom="6.5555556"
     inkscape:cx="18"
     inkscape:cy="18"
     inkscape:window-x="0"
     inkscape:window-y="0"
     inkscape:window-maximized="0"
     inkscape:current-layer="svg2" />
  <path
     d="m 36,32 c 0,2.209 -1.791,4 -4,4 L 4,36 C 1.791,36 0,34.209 0,32 L 0,4 C 0,1.791 1.791,0 4,0 l 28,0 c 2.209,0 4,1.791 4,4 l 0,28 z"
     id="path4"
     inkscape:connector-curvature="0"
     style="fill:#9266cc" />
  <path
     d="m 28.742,23.398 c 1.696,-5.48 -0.952,-8.824 -1.065,-8.964 l -0.631,-0.776 -0.959,0.284 c -0.102,0.03 -1.56,0.49 -3.087,1.979 L 23,11 C 23,7.021 21.224,6.061 19.732,5.709 18.267,5.364 16.761,6 15.708,6.978 15.113,6.227 14.395,5.865 13.732,5.709 12.272,5.364 10.773,5.995 9.72,6.966 8.705,5.619 7.393,5.5 7,5.5 6.171,5.5 5.5,6.171 5.5,7 5.5,7.829 6.171,8.5 7,8.5 7.135,8.5 7.832,8.992 8,11 l 0,12 c 0,0.828 0.671,1.5 1.5,1.5 0.829,0 1.5,-0.672 1.5,-1.5 L 11,9.914 c 0,-0.83 0.67,-1.502 1.5,-1.502 0.83,0 1.5,0.672 1.5,1.502 L 14,23 c 0,0.828 0.671,1.5 1.5,1.5 0.829,0 1.5,-0.672 1.5,-1.5 L 17,9.914 c 0,-0.83 0.67,-1.502 1.5,-1.502 0.83,0 1.5,0.672 1.5,1.502 l 0,11.415 c -0.427,1.99 -0.011,4.162 0.704,6.127 -1.385,0.751 -2.712,1.29 -3.511,1.557 -0.786,0.263 -1.212,1.111 -0.95,1.897 0.261,0.786 1.108,1.211 1.895,0.951 0.154,-0.052 1.812,-0.611 3.788,-1.662 1.038,1.983 2.089,3.382 2.188,3.512 0.295,0.388 0.742,0.592 1.194,0.592 0.316,0 0.636,-0.1 0.907,-0.307 0.659,-0.501 0.787,-1.442 0.285,-2.102 -0.51,-0.671 -1.301,-1.863 -2.021,-3.266 1.875,-1.339 3.6,-3.086 4.263,-5.23 z m -2.865,-0.887 c -0.377,1.216 -1.374,2.325 -2.587,3.276 -0.463,-1.467 -0.657,-2.944 -0.28,-4.164 0.729,-2.354 1.986,-3.61 2.882,-4.239 0.386,1.029 0.714,2.773 -0.015,5.127 z"
     id="path6"
     inkscape:connector-curvature="0"
     style="fill:#ffffff" />
</svg>
