<?xml version="1.0" encoding="UTF-8" standalone="no"?>
<svg
   xmlns:dc="http://purl.org/dc/elements/1.1/"
   xmlns:cc="http://creativecommons.org/ns#"
   xmlns:rdf="http://www.w3.org/1999/02/22-rdf-syntax-ns#"
   xmlns:svg="http://www.w3.org/2000/svg"
   xmlns="http://www.w3.org/2000/svg"
   xmlns:sodipodi="http://sodipodi.sourceforge.net/DTD/sodipodi-0.dtd"
   xmlns:inkscape="http://www.inkscape.org/namespaces/inkscape"
   viewBox="0 0 36 36"
   id="svg2"
   version="1.1"
   inkscape:version="0.91 r13725"
   sodipodi:docname="2651.svg"
   width="36"
   height="36">
  <metadata
     id="metadata12">
    <rdf:RDF>
      <cc:Work
         rdf:about="">
        <dc:format>image/svg+xml</dc:format>
        <dc:type
           rdf:resource="http://purl.org/dc/dcmitype/StillImage" />
      </cc:Work>
    </rdf:RDF>
  </metadata>
  <defs
     id="defs10" />
  <sodipodi:namedview
     pagecolor="#ffffff"
     bordercolor="#666666"
     borderopacity="1"
     objecttolerance="10"
     gridtolerance="10"
     guidetolerance="10"
     inkscape:pageopacity="0"
     inkscape:pageshadow="2"
     inkscape:window-width="640"
     inkscape:window-height="480"
     id="namedview8"
     showgrid="false"
     inkscape:zoom="6.5555556"
     inkscape:cx="18"
     inkscape:cy="18"
     inkscape:window-x="0"
     inkscape:window-y="0"
     inkscape:window-maximized="0"
     inkscape:current-layer="svg2" />
  <path
     d="m 36,32 c 0,2.209 -1.791,4 -4,4 L 4,36 C 1.791,36 0,34.209 0,32 L 0,4 C 0,1.791 1.791,0 4,0 l 28,0 c 2.209,0 4,1.791 4,4 l 0,28 z"
     id="path4"
     inkscape:connector-curvature="0"
     style="fill:#9266cc" />
  <path
     d="m 26,19.531 c -1.616,0 -3.027,0.477 -4.117,1.316 C 21.436,18.67 20.763,15.431 19.967,11.716 18.889,6.685 16.259,5.62 14.788,5.434 13.064,5.213 11.337,5.97 10.001,7.416 8.963,5.671 7.431,5.531 7,5.531 c -0.829,0 -1.5,0.671 -1.5,1.5 0,0.829 0.671,1.5 1.5,1.5 0.155,0 1,0.646 1,3.5 l 0,11 c 0,0.828 0.671,1.5 1.5,1.5 0.829,0 1.5,-0.672 1.5,-1.5 l 0,-10.828 c 0,-1.328 0.546,-3.792 2.952,-3.792 1.469,0 2.585,1.616 3.082,3.935 1.448,6.755 2.487,11.928 2.496,11.979 0.658,3.643 -2.108,4.237 -3.529,4.206 -0.828,-0.018 -1.5,0.672 -1.5,1.5 0,0.828 0.671,1.5 1.5,1.5 2.573,0 5.171,-1.198 6.122,-3.511 1.252,0.735 2.759,0.998 4.141,0.859 3.083,-0.306 5.237,-2.299 5.237,-4.849 C 31.5,21.424 29.187,19.531 26,19.531 Z m -0.033,6.364 c -1.153,0.117 -2.562,-0.202 -3.208,-1.361 0.487,-1.263 1.639,-2.002 3.241,-2.002 1.005,0 2.5,0.399 2.5,1.5 0,1.058 -1.274,1.738 -2.533,1.863 z"
     id="path6"
     inkscape:connector-curvature="0"
     style="fill:#ffffff" />
</svg>
