<?xml version="1.0" encoding="UTF-8" standalone="no"?>
<svg
   xmlns:dc="http://purl.org/dc/elements/1.1/"
   xmlns:cc="http://creativecommons.org/ns#"
   xmlns:rdf="http://www.w3.org/1999/02/22-rdf-syntax-ns#"
   xmlns:svg="http://www.w3.org/2000/svg"
   xmlns="http://www.w3.org/2000/svg"
   xmlns:sodipodi="http://sodipodi.sourceforge.net/DTD/sodipodi-0.dtd"
   xmlns:inkscape="http://www.inkscape.org/namespaces/inkscape"
   viewBox="0 0 36 36"
   id="svg2"
   version="1.1"
   inkscape:version="0.91 r13725"
   sodipodi:docname="2653.svg"
   width="36"
   height="36">
  <metadata
     id="metadata12">
    <rdf:RDF>
      <cc:Work
         rdf:about="">
        <dc:format>image/svg+xml</dc:format>
        <dc:type
           rdf:resource="http://purl.org/dc/dcmitype/StillImage" />
      </cc:Work>
    </rdf:RDF>
  </metadata>
  <defs
     id="defs10" />
  <sodipodi:namedview
     pagecolor="#ffffff"
     bordercolor="#666666"
     borderopacity="1"
     objecttolerance="10"
     gridtolerance="10"
     guidetolerance="10"
     inkscape:pageopacity="0"
     inkscape:pageshadow="2"
     inkscape:window-width="640"
     inkscape:window-height="480"
     id="namedview8"
     showgrid="false"
     inkscape:zoom="6.5555556"
     inkscape:cx="18"
     inkscape:cy="18"
     inkscape:window-x="0"
     inkscape:window-y="0"
     inkscape:window-maximized="0"
     inkscape:current-layer="svg2" />
  <path
     d="m 36,32 c 0,2.209 -1.791,4 -4,4 L 4,36 C 1.791,36 0,34.209 0,32 L 0,4 C 0,1.791 1.791,0 4,0 l 28,0 c 2.209,0 4,1.791 4,4 l 0,28 z"
     id="path4"
     inkscape:connector-curvature="0"
     style="fill:#9266cc" />
  <path
     d="M 30.5,18.5 C 30.5,17.671 29.828,17 29,17 l -3.472,0 c 0.291,-6.296 3.25,-8.705 3.371,-8.8 0.662,-0.497 0.797,-1.438 0.3,-2.1 C 28.702,5.437 27.762,5.304 27.098,5.8 26.918,5.935 22.856,9.096 22.531,17 l -9.064,0 C 13.141,9.096 9.079,5.935 8.898,5.8 8.241,5.306 7.315,5.438 6.815,6.092 6.315,6.744 6.439,7.682 7.086,8.19 7.218,8.294 10.179,10.704 10.47,17 L 7,17 C 6.171,17 5.5,17.671 5.5,18.5 5.5,19.328 6.171,20 7,20 l 3.398,0 C 9.863,25.524 7.237,27.691 7.088,27.809 6.435,28.308 6.304,29.242 6.798,29.901 7.093,30.293 7.543,30.5 8,30.5 c 0.313,0 0.629,-0.098 0.899,-0.3 0.173,-0.129 3.9,-3.028 4.508,-10.2 l 9.185,0 c 0.607,7.172 4.335,10.071 4.507,10.2 0.269,0.201 0.582,0.298 0.892,0.298 0.451,0 0.896,-0.204 1.192,-0.59 0.5,-0.652 0.376,-1.591 -0.271,-2.099 -0.125,-0.099 -2.773,-2.26 -3.312,-7.81 l 3.4,0 C 29.828,20 30.5,19.328 30.5,18.5 Z"
     id="path6"
     inkscape:connector-curvature="0"
     style="fill:#ffffff" />
</svg>
