<?xml version="1.0" encoding="UTF-8" standalone="no"?>
<svg
   xmlns:dc="http://purl.org/dc/elements/1.1/"
   xmlns:cc="http://creativecommons.org/ns#"
   xmlns:rdf="http://www.w3.org/1999/02/22-rdf-syntax-ns#"
   xmlns:svg="http://www.w3.org/2000/svg"
   xmlns="http://www.w3.org/2000/svg"
   xmlns:sodipodi="http://sodipodi.sourceforge.net/DTD/sodipodi-0.dtd"
   xmlns:inkscape="http://www.inkscape.org/namespaces/inkscape"
   viewBox="0 0 34 35.5005"
   id="svg2"
   version="1.1"
   inkscape:version="0.91 r13725"
   sodipodi:docname="2668.svg"
   width="34"
   height="35.5005">
  <metadata
     id="metadata16">
    <rdf:RDF>
      <cc:Work
         rdf:about="">
        <dc:format>image/svg+xml</dc:format>
        <dc:type
           rdf:resource="http://purl.org/dc/dcmitype/StillImage" />
      </cc:Work>
    </rdf:RDF>
  </metadata>
  <defs
     id="defs14" />
  <sodipodi:namedview
     pagecolor="#ffffff"
     bordercolor="#666666"
     borderopacity="1"
     objecttolerance="10"
     gridtolerance="10"
     guidetolerance="10"
     inkscape:pageopacity="0"
     inkscape:pageshadow="2"
     inkscape:window-width="640"
     inkscape:window-height="480"
     id="namedview12"
     showgrid="false"
     inkscape:zoom="6.5555556"
     inkscape:cx="17"
     inkscape:cy="18"
     inkscape:window-x="0"
     inkscape:window-y="0"
     inkscape:window-maximized="0"
     inkscape:current-layer="svg2" />
  <path
     d="m 30.538,21.0725 c 0.928,1.04 1.462,2.199 1.462,3.428 0,4.418 -6.715,8 -15,8 -8.284,0 -15,-3.582 -15,-8 0,-1.229 0.535,-2.388 1.462,-3.428 -2.163,1.51 -3.462,3.387 -3.462,5.428 0,4.971 7.611,9 17,9 9.389,0 17,-4.029 17,-9 0,-2.041 -1.299,-3.918 -3.462,-5.428 z"
     id="path4"
     inkscape:connector-curvature="0"
     style="fill:#dd2e44" />
  <path
     d="m 8.001,27.0005 c -0.55,0 -1.08,-0.304 -1.343,-0.829 -0.37,-0.741 -0.07,-1.642 0.671,-2.013 0.12,-0.062 3.171,-1.692 3.171,-5.658 0,-2.127 -1.164,-3.634 -2.396,-5.229 C 6.824,11.6145 5.5,9.9005 5.5,7.5005 c 0,-4.569 2.34,-6.961 2.439,-7.061 0.586,-0.586 1.535,-0.586 2.121,0 0.583,0.582 0.586,1.524 0.011,2.11 -0.085,0.091 -1.571,1.713 -1.571,4.951 0,1.376 0.917,2.564 1.978,3.938 1.347,1.742 3.022,3.911 3.022,7.062 0,5.859 -4.632,8.243 -4.829,8.342 -0.215,0.107 -0.444,0.158 -0.67,0.158 z"
     id="path6"
     inkscape:connector-curvature="0"
     style="fill:#dd2e44" />
  <path
     d="m 15.001,27.0005 c -0.55,0 -1.08,-0.304 -1.343,-0.829 -0.37,-0.741 -0.07,-1.642 0.671,-2.013 0.12,-0.062 3.171,-1.692 3.171,-5.658 0,-2.127 -1.164,-3.634 -2.396,-5.229 -1.28,-1.657 -2.604,-3.371 -2.604,-5.771 0,-4.569 2.34,-6.961 2.439,-7.061 0.586,-0.586 1.535,-0.586 2.121,0 0.583,0.582 0.586,1.524 0.011,2.11 -0.085,0.091 -1.571,1.713 -1.571,4.951 0,1.376 0.917,2.564 1.978,3.938 1.346,1.742 3.022,3.911 3.022,7.062 0,5.859 -4.632,8.243 -4.829,8.342 -0.215,0.107 -0.444,0.158 -0.67,0.158 z"
     id="path8"
     inkscape:connector-curvature="0"
     style="fill:#dd2e44" />
  <path
     d="m 22.001,27.0005 c -0.55,0 -1.08,-0.304 -1.343,-0.829 -0.37,-0.741 -0.07,-1.642 0.671,-2.013 0.12,-0.062 3.171,-1.692 3.171,-5.658 0,-2.127 -1.164,-3.634 -2.396,-5.229 -1.28,-1.657 -2.604,-3.371 -2.604,-5.771 0,-4.569 2.34,-6.961 2.44,-7.061 0.586,-0.586 1.535,-0.586 2.121,0 0.582,0.582 0.586,1.524 0.011,2.11 -0.086,0.091 -1.572,1.713 -1.572,4.951 0,1.376 0.917,2.564 1.979,3.938 1.345,1.742 3.021,3.911 3.021,7.062 0,5.859 -4.632,8.243 -4.829,8.342 -0.216,0.107 -0.444,0.158 -0.67,0.158 z"
     id="path10"
     inkscape:connector-curvature="0"
     style="fill:#dd2e44" />
</svg>
