<?xml version="1.0" encoding="UTF-8" standalone="no"?>
<svg
   xmlns:dc="http://purl.org/dc/elements/1.1/"
   xmlns:cc="http://creativecommons.org/ns#"
   xmlns:rdf="http://www.w3.org/1999/02/22-rdf-syntax-ns#"
   xmlns:svg="http://www.w3.org/2000/svg"
   xmlns="http://www.w3.org/2000/svg"
   xmlns:sodipodi="http://sodipodi.sourceforge.net/DTD/sodipodi-0.dtd"
   xmlns:inkscape="http://www.inkscape.org/namespaces/inkscape"
   viewBox="0 0 36 36"
   id="svg2"
   version="1.1"
   inkscape:version="0.91 r13725"
   sodipodi:docname="267f.svg"
   width="36"
   height="36">
  <metadata
     id="metadata14">
    <rdf:RDF>
      <cc:Work
         rdf:about="">
        <dc:format>image/svg+xml</dc:format>
        <dc:type
           rdf:resource="http://purl.org/dc/dcmitype/StillImage" />
      </cc:Work>
    </rdf:RDF>
  </metadata>
  <defs
     id="defs12" />
  <sodipodi:namedview
     pagecolor="#ffffff"
     bordercolor="#666666"
     borderopacity="1"
     objecttolerance="10"
     gridtolerance="10"
     guidetolerance="10"
     inkscape:pageopacity="0"
     inkscape:pageshadow="2"
     inkscape:window-width="640"
     inkscape:window-height="480"
     id="namedview10"
     showgrid="false"
     inkscape:zoom="6.5555556"
     inkscape:cx="18"
     inkscape:cy="18"
     inkscape:window-x="0"
     inkscape:window-y="0"
     inkscape:window-maximized="0"
     inkscape:current-layer="svg2" />
  <path
     d="m 36,32 c 0,2.209 -1.791,4 -4,4 L 4,36 C 1.791,36 0,34.209 0,32 L 0,4 C 0,1.791 1.791,0 4,0 l 28,0 c 2.209,0 4,1.791 4,4 l 0,28 z"
     id="path4"
     inkscape:connector-curvature="0"
     style="fill:#226699" />
  <circle
     cx="27"
     cy="7"
     r="3"
     id="circle6"
     style="fill:#ffffff" />
  <path
     d="m 13.06,13.06 2.367,-2.366 3.859,1.158 -2.635,2.847 c 1.766,0.694 3.282,1.875 4.392,3.379 l 5.017,-5.017 c 0.373,-0.373 0.523,-0.916 0.393,-1.427 -0.129,-0.512 -0.518,-0.918 -1.023,-1.07 l -9.999,-3 C 14.902,7.404 14.329,7.549 13.939,7.94 l -3,3 c -0.586,0.585 -0.586,1.536 0,2.121 0.586,0.585 1.535,0.585 2.121,-10e-4 z m 16.065,4.949 C 28.809,17.65 28.338,17.46 27.863,17.506 l -6.786,0.617 c 0.632,0.867 1.135,1.833 1.464,2.879 l 3.548,-0.322 -1.554,6.995 c -0.18,0.809 0.33,1.609 1.139,1.789 0.109,0.024 0.219,0.036 0.326,0.036 0.688,0 1.308,-0.476 1.463,-1.175 l 2,-9 c 0.104,-0.468 -0.022,-0.956 -0.338,-1.316 z M 13,16 c -4.418,0 -8,3.582 -8,8 0,4.418 3.582,8 8,8 4.418,0 8,-3.582 8,-8 0,-4.418 -3.582,-8 -8,-8 z m 0,14 c -3.313,0 -6,-2.687 -6,-6 0,-3.313 2.687,-6 6,-6 3.314,0 6,2.687 6,6 0,3.313 -2.687,6 -6,6 z"
     id="path8"
     inkscape:connector-curvature="0"
     style="fill:#ffffff" />
</svg>
