<?xml version="1.0" encoding="UTF-8" standalone="no"?>
<svg
   xmlns:dc="http://purl.org/dc/elements/1.1/"
   xmlns:cc="http://creativecommons.org/ns#"
   xmlns:rdf="http://www.w3.org/1999/02/22-rdf-syntax-ns#"
   xmlns:svg="http://www.w3.org/2000/svg"
   xmlns="http://www.w3.org/2000/svg"
   xmlns:sodipodi="http://sodipodi.sourceforge.net/DTD/sodipodi-0.dtd"
   xmlns:inkscape="http://www.inkscape.org/namespaces/inkscape"
   viewBox="0 0 35.96069 34.19228"
   id="svg2"
   version="1.1"
   inkscape:version="0.91 r13725"
   sodipodi:docname="2692.svg"
   width="35.96069"
   height="34.19228">
  <metadata
     id="metadata22">
    <rdf:RDF>
      <cc:Work
         rdf:about="">
        <dc:format>image/svg+xml</dc:format>
        <dc:type
           rdf:resource="http://purl.org/dc/dcmitype/StillImage" />
      </cc:Work>
    </rdf:RDF>
  </metadata>
  <defs
     id="defs20" />
  <sodipodi:namedview
     pagecolor="#ffffff"
     bordercolor="#666666"
     borderopacity="1"
     objecttolerance="10"
     gridtolerance="10"
     guidetolerance="10"
     inkscape:pageopacity="0"
     inkscape:pageshadow="2"
     inkscape:window-width="640"
     inkscape:window-height="480"
     id="namedview18"
     showgrid="false"
     inkscape:zoom="6.5555556"
     inkscape:cx="17.99975"
     inkscape:cy="16.190531"
     inkscape:window-x="0"
     inkscape:window-y="0"
     inkscape:window-maximized="0"
     inkscape:current-layer="svg2" />
  <path
     d="m 6.81375,33.28075 c -1.166,1.166 -3.021,1.221 -4.121,0.121 -1.1,-1.1 -1.045,-2.955 0.121,-4.121 l 23.265,-23.265 c 1.167,-1.167 3.021,-1.221 4.121,-0.121 1.101,1.1 1.046,2.955 -0.121,4.121 l -23.265,23.265 z"
     id="path4"
     inkscape:connector-curvature="0"
     style="fill:#d67909" />
  <path
     d="m 32.58475,7.65875 c 0.781,-0.781 0.781,-2.048 0,-2.829 l -1.414,-1.414 c -0.78,-0.78 -2.047,-0.78 -2.828,0 -0.781,0.781 -0.781,2.048 0,2.829 l 1.414,1.414 c 0.781,0.781 2.048,0.781 2.828,0 z"
     id="path6"
     inkscape:connector-curvature="0"
     style="fill:#d67909" />
  <path
     d="m 32.58475,7.65875 c 0.781,-0.781 0.781,-2.048 0,-2.829 l -1.414,-1.414 c -0.78,-0.78 -2.047,-0.78 -2.828,0 -0.781,0.781 -0.781,2.048 0,2.829 l 1.414,1.414 c 0.781,0.781 2.048,0.781 2.828,0 z"
     id="path8"
     inkscape:connector-curvature="0"
     style="fill:#d67909" />
  <path
     d="m 35.78875,13.42575 c -0.252,-1.765 -0.375,-4.354 -3.204,-7.182 l -0.707,-0.708 -4.949,-4.95 c -0.781,-0.781 -2.048,-0.781 -2.828,0 l -3.536,3.536 c -0.781,0.781 -0.781,2.047 0,2.829 l 6.364,6.364 2.121,2.121 1.414,1.414 c 1.027,1.027 3.314,3.315 4.718,1.911 0.773,-0.772 0.961,-2.86 0.607,-5.335 z"
     id="path10"
     inkscape:connector-curvature="0"
     style="fill:#66757f" />
  <path
     d="m 29.18475,33.28075 c 1.166,1.166 3.022,1.221 4.121,0.121 1.1,-1.1 1.045,-2.955 -0.121,-4.121 l -23.264,-23.265 c -1.167,-1.167 -3.022,-1.222 -4.121,-0.121 -1.101,1.1 -1.046,2.955 0.121,4.121 l 23.264,23.265 z"
     id="path12"
     inkscape:connector-curvature="0"
     style="fill:#f4900c" />
  <path
     d="m 3.41475,7.65875 c -0.781,-0.781 -0.781,-2.048 0,-2.829 l 1.414,-1.414 c 0.78,-0.78 2.047,-0.78 2.828,0 0.781,0.781 0.781,2.048 0,2.829 l -1.414,1.414 c -0.781,0.781 -2.048,0.781 -2.828,0 z"
     id="path14"
     inkscape:connector-curvature="0"
     style="fill:#f4900c" />
  <path
     d="m 4.12175,15.43775 c 0.78,0.78 2.047,0.78 2.828,0 l 8.485,-8.485 c 0.781,-0.781 0.781,-2.048 0,-2.829 l -3.536,-3.535 c -0.78,-0.781 -2.047,-0.781 -2.828,0 l -8.485,8.484 c -0.781,0.781 -0.781,2.047 0,2.828 l 3.536,3.537 z"
     id="path16"
     inkscape:connector-curvature="0"
     style="fill:#66757f" />
</svg>
