<?xml version="1.0" encoding="UTF-8" standalone="no"?>
<svg
   xmlns:dc="http://purl.org/dc/elements/1.1/"
   xmlns:cc="http://creativecommons.org/ns#"
   xmlns:rdf="http://www.w3.org/1999/02/22-rdf-syntax-ns#"
   xmlns:svg="http://www.w3.org/2000/svg"
   xmlns="http://www.w3.org/2000/svg"
   xmlns:sodipodi="http://sodipodi.sourceforge.net/DTD/sodipodi-0.dtd"
   xmlns:inkscape="http://www.inkscape.org/namespaces/inkscape"
   viewBox="0 0 36 32"
   id="svg2"
   version="1.1"
   inkscape:version="0.91 r13725"
   sodipodi:docname="2696.svg"
   width="36"
   height="32">
  <metadata
     id="metadata26">
    <rdf:RDF>
      <cc:Work
         rdf:about="">
        <dc:format>image/svg+xml</dc:format>
        <dc:type
           rdf:resource="http://purl.org/dc/dcmitype/StillImage" />
      </cc:Work>
    </rdf:RDF>
  </metadata>
  <defs
     id="defs24" />
  <sodipodi:namedview
     pagecolor="#ffffff"
     bordercolor="#666666"
     borderopacity="1"
     objecttolerance="10"
     gridtolerance="10"
     guidetolerance="10"
     inkscape:pageopacity="0"
     inkscape:pageshadow="2"
     inkscape:window-width="640"
     inkscape:window-height="480"
     id="namedview22"
     showgrid="false"
     inkscape:zoom="6.5555556"
     inkscape:cx="18"
     inkscape:cy="16"
     inkscape:window-x="0"
     inkscape:window-y="0"
     inkscape:window-maximized="0"
     inkscape:current-layer="svg2" />
  <path
     d="M 3.923,20.923 C 3.711,21.434 3.125,21.674 2.615,21.462 2.105,21.249 1.864,20.664 2.076,20.154 L 6.693,7.616 C 6.905,7.106 7.491,6.865 8,7.077 8.51,7.29 8.751,7.875 8.539,8.385 L 3.923,20.923 Z"
     id="path4"
     inkscape:connector-curvature="0"
     style="fill:#66757f" />
  <path
     d="m 13.923,20.154 c 0.212,0.51 -0.029,1.095 -0.539,1.308 -0.51,0.212 -1.095,-0.028 -1.308,-0.539 L 7.461,8.385 C 7.249,7.875 7.49,7.29 8,7.077 8.51,6.865 9.095,7.106 9.308,7.616 l 4.615,12.538 z m 10.001,0.769 c -0.213,0.511 -0.799,0.751 -1.309,0.539 -0.51,-0.213 -0.75,-0.798 -0.538,-1.308 L 26.693,7.615 C 26.905,7.106 27.49,6.865 28,7.077 c 0.51,0.213 0.752,0.798 0.539,1.308 l -4.615,12.538 z"
     id="path6"
     inkscape:connector-curvature="0"
     style="fill:#66757f" />
  <path
     d="m 33.923,20.154 c 0.212,0.51 -0.028,1.095 -0.538,1.308 -0.51,0.212 -1.096,-0.028 -1.309,-0.539 L 27.461,8.385 C 27.248,7.875 27.49,7.29 28,7.077 c 0.51,-0.212 1.095,0.029 1.307,0.539 l 4.616,12.538 z"
     id="path8"
     inkscape:connector-curvature="0"
     style="fill:#66757f" />
  <path
     d="M 14.857,20 1.143,20 C 0.512,20 0,20.511 0,21.143 c 0,2.524 3.582,4.571 8,4.571 4.418,0 8,-2.047 8,-4.571 C 16,20.511 15.488,20 14.857,20 Z M 24,32 12,32 c -0.552,0 -1,-0.447 -1,-1 0,-2.209 3.134,-4 7,-4 3.866,0 7,1.791 7,4 0,0.553 -0.447,1 -1,1 z M 34.857,20 21.143,20 C 20.511,20 20,20.511 20,21.143 c 0,2.524 3.581,4.571 8,4.571 4.419,0 8,-2.047 8,-4.571 C 36,20.511 35.489,20 34.857,20 Z"
     id="path10"
     inkscape:connector-curvature="0"
     style="fill:#ffac33" />
  <path
     d="M 19,1 C 19,0.448 18.553,0 18,0 17.448,0 17,0.448 17,1 l 0,27 c 0,0.553 0.448,1 1,1 0.553,0 1,-0.447 1,-1 L 19,1 Z"
     id="path12"
     inkscape:connector-curvature="0"
     style="fill:#ffac33" />
  <circle
     cx="18"
     cy="2"
     r="2"
     id="circle14"
     style="fill:#ffac33" />
  <circle
     cx="8"
     cy="8"
     r="2"
     id="circle16"
     style="fill:#ffac33" />
  <circle
     cx="28"
     cy="8"
     r="2"
     id="circle18"
     style="fill:#ffac33" />
  <path
     d="M 28,8 C 28,9.104 28,8 18,8 8,8 8,9.104 8,8 8,6.896 11,4 18,4 25,4 28,6.896 28,8 Z"
     id="path20"
     inkscape:connector-curvature="0"
     style="fill:#ffac33" />
</svg>
