<?xml version="1.0" encoding="UTF-8" standalone="no"?>
<svg
   xmlns:dc="http://purl.org/dc/elements/1.1/"
   xmlns:cc="http://creativecommons.org/ns#"
   xmlns:rdf="http://www.w3.org/1999/02/22-rdf-syntax-ns#"
   xmlns:svg="http://www.w3.org/2000/svg"
   xmlns="http://www.w3.org/2000/svg"
   xmlns:sodipodi="http://sodipodi.sourceforge.net/DTD/sodipodi-0.dtd"
   xmlns:inkscape="http://www.inkscape.org/namespaces/inkscape"
   viewBox="0 0 36 36"
   id="svg2"
   version="1.1"
   inkscape:version="0.91 r13725"
   sodipodi:docname="2699.svg"
   width="36"
   height="36">
  <metadata
     id="metadata10">
    <rdf:RDF>
      <cc:Work
         rdf:about="">
        <dc:format>image/svg+xml</dc:format>
        <dc:type
           rdf:resource="http://purl.org/dc/dcmitype/StillImage" />
      </cc:Work>
    </rdf:RDF>
  </metadata>
  <defs
     id="defs8" />
  <sodipodi:namedview
     pagecolor="#ffffff"
     bordercolor="#666666"
     borderopacity="1"
     objecttolerance="10"
     gridtolerance="10"
     guidetolerance="10"
     inkscape:pageopacity="0"
     inkscape:pageshadow="2"
     inkscape:window-width="640"
     inkscape:window-height="480"
     id="namedview6"
     showgrid="false"
     inkscape:zoom="6.5555556"
     inkscape:cx="18"
     inkscape:cy="18"
     inkscape:window-x="0"
     inkscape:window-y="0"
     inkscape:window-maximized="0"
     inkscape:current-layer="svg2" />
  <path
     d="m 34,15 -3.362,0 c -0.324,-1.369 -0.864,-2.651 -1.582,-3.814 l 2.379,-2.379 c 0.781,-0.781 0.781,-2.048 0,-2.829 L 30.021,4.564 c -0.781,-0.781 -2.047,-0.781 -2.828,0 L 24.814,6.943 C 23.65,6.225 22.369,5.686 21,5.362 L 21,2 C 21,0.896 20.104,0 19,0 l -2,0 c -1.104,0 -2,0.896 -2,2 l 0,3.362 C 13.631,5.686 12.349,6.226 11.186,6.944 L 8.808,4.565 C 8.027,3.784 6.76,3.784 5.98,4.565 L 4.565,5.979 C 3.784,6.76 3.784,8.027 4.564,8.808 l 2.379,2.379 C 6.225,12.35 5.686,13.632 5.362,15 L 2,15 c -1.104,0 -2,0.896 -2,2 l 0,2 c 0,1.104 0.896,2 2,2 l 3.362,0 c 0.324,1.368 0.864,2.65 1.582,3.813 l -2.379,2.379 c -0.78,0.78 -0.78,2.048 10e-4,2.829 l 1.414,1.414 c 0.78,0.78 2.047,0.78 2.828,0 l 2.379,-2.379 c 1.163,0.719 2.445,1.258 3.814,1.582 l 0,3.362 c 0,1.104 0.896,2 2,2 l 2,0 c 1.104,0 2,-0.896 2,-2 l 0,-3.362 c 1.368,-0.324 2.65,-0.864 3.813,-1.582 l 2.379,2.379 c 0.781,0.781 2.047,0.781 2.828,0 l 1.414,-1.414 c 0.781,-0.781 0.781,-2.048 0,-2.829 l -2.379,-2.379 c 0.719,-1.163 1.258,-2.445 1.582,-3.814 l 3.362,0 c 1.104,0 2,-0.896 2,-2 l 0,-2 C 36,15.896 35.104,15 34,15 Z M 18,26 c -4.418,0 -8,-3.582 -8,-8 0,-4.418 3.582,-8 8,-8 4.418,0 8,3.582 8,8 0,4.418 -3.582,8 -8,8 z"
     id="path4"
     inkscape:connector-curvature="0"
     style="fill:#66757f" />
</svg>
