<?xml version="1.0" encoding="UTF-8" standalone="no"?>
<svg
   xmlns:dc="http://purl.org/dc/elements/1.1/"
   xmlns:cc="http://creativecommons.org/ns#"
   xmlns:rdf="http://www.w3.org/1999/02/22-rdf-syntax-ns#"
   xmlns:svg="http://www.w3.org/2000/svg"
   xmlns="http://www.w3.org/2000/svg"
   xmlns:sodipodi="http://sodipodi.sourceforge.net/DTD/sodipodi-0.dtd"
   xmlns:inkscape="http://www.inkscape.org/namespaces/inkscape"
   viewBox="0 0 36 36"
   id="svg2"
   version="1.1"
   inkscape:version="0.91 r13725"
   sodipodi:docname="269b.svg"
   width="36"
   height="36">
  <metadata
     id="metadata16">
    <rdf:RDF>
      <cc:Work
         rdf:about="">
        <dc:format>image/svg+xml</dc:format>
        <dc:type
           rdf:resource="http://purl.org/dc/dcmitype/StillImage" />
      </cc:Work>
    </rdf:RDF>
  </metadata>
  <defs
     id="defs14" />
  <sodipodi:namedview
     pagecolor="#ffffff"
     bordercolor="#666666"
     borderopacity="1"
     objecttolerance="10"
     gridtolerance="10"
     guidetolerance="10"
     inkscape:pageopacity="0"
     inkscape:pageshadow="2"
     inkscape:window-width="640"
     inkscape:window-height="480"
     id="namedview12"
     showgrid="false"
     inkscape:zoom="6.5555556"
     inkscape:cx="18"
     inkscape:cy="18"
     inkscape:window-x="0"
     inkscape:window-y="0"
     inkscape:window-maximized="0"
     inkscape:current-layer="svg2" />
  <path
     d="m 36,32 c 0,2.209 -1.791,4 -4,4 L 4,36 C 1.791,36 0,34.209 0,32 L 0,4 C 0,1.791 1.791,0 4,0 l 28,0 c 2.209,0 4,1.791 4,4 l 0,28 z"
     id="path4"
     inkscape:connector-curvature="0"
     style="fill:#9266cc" />
  <g
     id="g6"
     style="fill:#ffffff">
    <path
       d="m 26.464,18 c 2.888,-2.529 4.589,-5.118 3.594,-6.867 -0.5,-0.877 -1.527,-1.322 -3.052,-1.322 -1.298,0 -2.961,0.346 -4.795,0.954 C 21.447,6.944 20.033,4.125 18,4.125 c -2.033,0 -3.447,2.819 -4.211,6.64 -1.834,-0.608 -3.497,-0.954 -4.795,-0.954 -1.524,0 -2.552,0.445 -3.052,1.323 -0.995,1.748 0.706,4.337 3.594,6.866 -2.888,2.529 -4.589,5.118 -3.594,6.867 0.5,0.877 1.527,1.322 3.052,1.322 1.298,0 2.961,-0.346 4.795,-0.954 0.764,3.821 2.178,6.64 4.211,6.64 2.033,0 3.447,-2.819 4.211,-6.64 1.834,0.608 3.497,0.954 4.795,0.954 1.524,0 2.552,-0.445 3.052,-1.323 C 31.053,23.118 29.351,20.529 26.464,18 Z m 0.542,-6.439 c 0.802,0 1.374,0.164 1.53,0.438 0.347,0.609 -0.724,2.526 -3.448,4.874 -0.727,-0.564 -1.499,-1.118 -2.307,-1.652 -0.062,-0.93 -0.156,-1.841 -0.279,-2.72 1.746,-0.602 3.309,-0.94 4.504,-0.94 z m -7.459,9.154 C 19.03,21.009 18.514,21.288 18,21.553 17.486,21.288 16.97,21.01 16.453,20.715 15.912,20.407 15.406,20.099 14.917,19.792 14.893,19.215 14.875,18.623 14.875,18 c 0,-0.623 0.017,-1.215 0.042,-1.792 0.49,-0.307 0.995,-0.615 1.536,-0.923 0.517,-0.294 1.033,-0.573 1.547,-0.838 0.514,0.265 1.03,0.543 1.547,0.838 0.541,0.308 1.047,0.616 1.536,0.923 0.024,0.577 0.042,1.169 0.042,1.792 0,0.623 -0.017,1.215 -0.042,1.792 -0.489,0.307 -0.995,0.615 -1.536,0.923 z m 1.389,1.212 c -0.032,0.324 -0.07,0.633 -0.11,0.939 -0.287,-0.118 -0.58,-0.251 -0.872,-0.382 0.153,-0.084 0.305,-0.161 0.458,-0.248 0.177,-0.1 0.349,-0.206 0.524,-0.309 z m -4.89,0.557 c -0.292,0.13 -0.586,0.263 -0.872,0.382 -0.039,-0.306 -0.077,-0.615 -0.11,-0.938 0.175,0.103 0.348,0.209 0.524,0.309 0.152,0.086 0.305,0.163 0.458,0.247 z M 13.134,18.608 C 12.846,18.403 12.573,18.201 12.308,18 c 0.265,-0.201 0.538,-0.403 0.826,-0.608 -0.003,0.203 -0.009,0.405 -0.009,0.608 0,0.203 0.006,0.405 0.009,0.608 z m 1.93,-4.535 c 0.032,-0.324 0.07,-0.633 0.11,-0.938 0.287,0.118 0.58,0.251 0.872,0.382 -0.153,0.084 -0.305,0.161 -0.458,0.248 -0.177,0.099 -0.349,0.205 -0.524,0.308 z m 4.89,-0.557 c 0.292,-0.13 0.586,-0.263 0.872,-0.382 0.039,0.306 0.077,0.615 0.11,0.939 C 20.761,13.97 20.588,13.864 20.412,13.764 20.26,13.677 20.107,13.6 19.954,13.516 Z m 2.912,3.876 c 0.288,0.205 0.561,0.407 0.826,0.608 -0.265,0.201 -0.538,0.403 -0.826,0.608 0.003,-0.203 0.009,-0.405 0.009,-0.608 0,-0.203 -0.006,-0.405 -0.009,-0.608 z M 18,5.875 c 0.706,0 1.855,1.908 2.546,5.494 -0.83,0.33 -1.683,0.713 -2.546,1.132 -0.863,-0.42 -1.716,-0.803 -2.546,-1.132 C 16.145,7.783 17.294,5.875 18,5.875 Z M 7.464,12 c 0.156,-0.275 0.729,-0.439 1.53,-0.439 1.194,0 2.758,0.339 4.504,0.94 -0.123,0.879 -0.218,1.79 -0.279,2.72 -0.808,0.534 -1.58,1.088 -2.307,1.652 C 8.188,14.525 7.117,12.608 7.464,12 Z m 1.53,12.439 c -0.802,0 -1.374,-0.164 -1.53,-0.438 -0.347,-0.609 0.724,-2.526 3.448,-4.874 0.727,0.564 1.499,1.118 2.307,1.652 0.062,0.93 0.156,1.841 0.279,2.72 -1.746,0.602 -3.309,0.94 -4.504,0.94 z M 18,30.125 c -0.706,0 -1.855,-1.908 -2.546,-5.494 0.83,-0.33 1.683,-0.713 2.546,-1.132 0.863,0.42 1.716,0.803 2.546,1.132 -0.691,3.586 -1.84,5.494 -2.546,5.494 z M 28.536,24 c -0.156,0.275 -0.729,0.439 -1.53,0.439 -1.194,0 -2.758,-0.339 -4.504,-0.94 0.123,-0.879 0.218,-1.79 0.279,-2.72 0.808,-0.534 1.58,-1.088 2.307,-1.652 2.724,2.348 3.795,4.265 3.448,4.873 z"
       id="path8"
       inkscape:connector-curvature="0" />
    <path
       d="m 18,16.586 c -0.781,0 -1.414,0.633 -1.414,1.414 0,0.781 0.633,1.414 1.414,1.414 0.781,0 1.414,-0.633 1.414,-1.414 0,-0.781 -0.633,-1.414 -1.414,-1.414 z"
       id="path10"
       inkscape:connector-curvature="0" />
  </g>
</svg>
