<?xml version="1.0" encoding="UTF-8" standalone="no"?>
<svg
   xmlns:dc="http://purl.org/dc/elements/1.1/"
   xmlns:cc="http://creativecommons.org/ns#"
   xmlns:rdf="http://www.w3.org/1999/02/22-rdf-syntax-ns#"
   xmlns:svg="http://www.w3.org/2000/svg"
   xmlns="http://www.w3.org/2000/svg"
   xmlns:sodipodi="http://sodipodi.sourceforge.net/DTD/sodipodi-0.dtd"
   xmlns:inkscape="http://www.inkscape.org/namespaces/inkscape"
   viewBox="0 0 30.00021 36"
   id="svg2"
   version="1.1"
   inkscape:version="0.91 r13725"
   sodipodi:docname="26a1.svg"
   width="30.00021"
   height="36">
  <metadata
     id="metadata10">
    <rdf:RDF>
      <cc:Work
         rdf:about="">
        <dc:format>image/svg+xml</dc:format>
        <dc:type
           rdf:resource="http://purl.org/dc/dcmitype/StillImage" />
      </cc:Work>
    </rdf:RDF>
  </metadata>
  <defs
     id="defs8" />
  <sodipodi:namedview
     pagecolor="#ffffff"
     bordercolor="#666666"
     borderopacity="1"
     objecttolerance="10"
     gridtolerance="10"
     guidetolerance="10"
     inkscape:pageopacity="0"
     inkscape:pageshadow="2"
     inkscape:window-width="640"
     inkscape:window-height="480"
     id="namedview6"
     showgrid="false"
     inkscape:zoom="6.5555556"
     inkscape:cx="14.999837"
     inkscape:cy="18"
     inkscape:window-x="0"
     inkscape:window-y="0"
     inkscape:window-maximized="0"
     inkscape:current-layer="svg2" />
  <path
     d="m 29.937837,15.651 c -0.146,-0.391 -0.52,-0.651 -0.938,-0.651 l -12.075,0 6.965,-13.542 c 0.219,-0.426 0.106,-0.947 -0.271,-1.243 -0.182,-0.144 -0.401,-0.215 -0.619,-0.215 -0.233,0 -0.466,0.082 -0.653,0.243 l -7.347,6.345 -14.65300042,12.655 c -0.316,0.273 -0.43,0.714 -0.284,1.105 0.146,0.391 0.519,0.652 0.937,0.652 L 13.074837,21 6.1098366,34.542 c -0.219,0.426 -0.106,0.947 0.271,1.243 0.182,0.144 0.401,0.215 0.619,0.215 0.233,0 0.466,-0.082 0.653,-0.243 l 7.3470004,-6.345 14.653,-12.655 c 0.317,-0.273 0.43,-0.714 0.285,-1.106 z"
     id="path4"
     inkscape:connector-curvature="0"
     style="fill:#ffac33" />
</svg>
