<?xml version="1.0" encoding="UTF-8" standalone="no"?>
<svg
   xmlns:dc="http://purl.org/dc/elements/1.1/"
   xmlns:cc="http://creativecommons.org/ns#"
   xmlns:rdf="http://www.w3.org/1999/02/22-rdf-syntax-ns#"
   xmlns:svg="http://www.w3.org/2000/svg"
   xmlns="http://www.w3.org/2000/svg"
   xmlns:sodipodi="http://sodipodi.sourceforge.net/DTD/sodipodi-0.dtd"
   xmlns:inkscape="http://www.inkscape.org/namespaces/inkscape"
   viewBox="0 0 32 32"
   id="svg2"
   version="1.1"
   inkscape:version="0.91 r13725"
   sodipodi:docname="26d1.svg"
   width="32"
   height="32">
  <metadata
     id="metadata20">
    <rdf:RDF>
      <cc:Work
         rdf:about="">
        <dc:format>image/svg+xml</dc:format>
        <dc:type
           rdf:resource="http://purl.org/dc/dcmitype/StillImage" />
      </cc:Work>
    </rdf:RDF>
  </metadata>
  <defs
     id="defs18" />
  <sodipodi:namedview
     pagecolor="#ffffff"
     bordercolor="#666666"
     borderopacity="1"
     objecttolerance="10"
     gridtolerance="10"
     guidetolerance="10"
     inkscape:pageopacity="0"
     inkscape:pageshadow="2"
     inkscape:window-width="640"
     inkscape:window-height="480"
     id="namedview16"
     showgrid="false"
     inkscape:zoom="6.5555556"
     inkscape:cx="16"
     inkscape:cy="16"
     inkscape:window-x="0"
     inkscape:window-y="0"
     inkscape:window-maximized="0"
     inkscape:current-layer="svg2" />
  <path
     d="m 27,15 0,5 c 0,4.142 -4.896,9 -11,9 C 9.896,29 5,24.142 5,20 l 0,-5 -2,0 0,5 c 0,5.246 5.268,11 13,11 7.732,0 13,-5.754 13,-11 l 0,-5 -2,0 z"
     id="path4"
     inkscape:connector-curvature="0"
     style="fill:#d99e82" />
  <path
     d="M 20,30.083 C 20,31.142 19.142,32 18.083,32 l -4.166,0 C 12.858,32 12,31.142 12,30.083 l 0,-0.166 C 12,28.858 12.858,28 13.917,28 l 4.166,0 C 19.142,28 20,28.858 20,29.917 l 0,0.166 z"
     id="path6"
     inkscape:connector-curvature="0"
     style="fill:#c1694f" />
  <path
     d="m 0,15 c 0,-2.762 6.611,-5 16,-5 9.389,0 16,2.238 16,5 0,2.761 -6.611,6 -16,6 C 6.611,21 0,17.761 0,15 Z"
     id="path8"
     inkscape:connector-curvature="0"
     style="fill:#ea596e" />
  <path
     d="M 1,14 C 1,7 7.198,0 16,0 24.802,0 31,7 31,14 31,15 24.802,18 16,18 7.198,18 1,15 1,14 Z"
     id="path10"
     inkscape:connector-curvature="0"
     style="fill:#dd2e44" />
  <path
     d="M 23,17 C 22.447,17 22,16.552 22,16 22,8.272 20.07,2.375 20.051,2.316 19.877,1.792 20.16,1.226 20.685,1.051 c 0.522,-0.173 1.089,0.109 1.264,0.632 0.08,0.24 1.876,5.71 2.04,13.223 1.139,-0.161 3.165,-0.602 5.564,-1.801 0.494,-0.247 1.094,-0.047 1.342,0.447 0.247,0.494 0.047,1.095 -0.447,1.342 C 26.284,16.976 23.132,17 23,17 Z M 9,17 C 8.868,17 5.716,16.976 1.553,14.894 1.059,14.647 0.859,14.046 1.106,13.552 c 0.247,-0.493 0.847,-0.695 1.342,-0.447 2.399,1.2 4.425,1.64 5.565,1.801 C 8.177,7.393 9.972,1.923 10.052,1.683 10.227,1.159 10.796,0.878 11.316,1.051 11.84,1.225 12.124,1.792 11.949,2.316 11.929,2.374 10,8.271 10,16 c 0,0.552 -0.448,1 -1,1 z"
     id="path12"
     inkscape:connector-curvature="0"
     style="fill:#a0041e" />
  <path
     d="m 19,10 -2,0 0,-2 C 17,7.448 16.552,7 16,7 15.448,7 15,7.448 15,8 l 0,2 -2,0 c -0.552,0 -1,0.448 -1,1 0,0.552 0.448,1 1,1 l 2,0 0,2 c 0,0.552 0.448,1 1,1 0.552,0 1,-0.448 1,-1 l 0,-2 2,0 c 0.553,0 1,-0.448 1,-1 0,-0.552 -0.447,-1 -1,-1 z"
     id="path14"
     inkscape:connector-curvature="0"
     style="fill:#ffffff" />
</svg>
