<?xml version="1.0" encoding="UTF-8" standalone="no"?>
<svg
   xmlns:dc="http://purl.org/dc/elements/1.1/"
   xmlns:cc="http://creativecommons.org/ns#"
   xmlns:rdf="http://www.w3.org/1999/02/22-rdf-syntax-ns#"
   xmlns:svg="http://www.w3.org/2000/svg"
   xmlns="http://www.w3.org/2000/svg"
   xmlns:sodipodi="http://sodipodi.sourceforge.net/DTD/sodipodi-0.dtd"
   xmlns:inkscape="http://www.inkscape.org/namespaces/inkscape"
   viewBox="0 0 36 33"
   id="svg2"
   version="1.1"
   inkscape:version="0.91 r13725"
   sodipodi:docname="26f4.svg"
   width="36"
   height="33">
  <metadata
     id="metadata56">
    <rdf:RDF>
      <cc:Work
         rdf:about="">
        <dc:format>image/svg+xml</dc:format>
        <dc:type
           rdf:resource="http://purl.org/dc/dcmitype/StillImage" />
      </cc:Work>
    </rdf:RDF>
  </metadata>
  <defs
     id="defs54" />
  <sodipodi:namedview
     pagecolor="#ffffff"
     bordercolor="#666666"
     borderopacity="1"
     objecttolerance="10"
     gridtolerance="10"
     guidetolerance="10"
     inkscape:pageopacity="0"
     inkscape:pageshadow="2"
     inkscape:window-width="640"
     inkscape:window-height="480"
     id="namedview52"
     showgrid="false"
     inkscape:zoom="6.5555556"
     inkscape:cx="18"
     inkscape:cy="18"
     inkscape:window-x="0"
     inkscape:window-y="0"
     inkscape:window-maximized="0"
     inkscape:current-layer="svg2" />
  <ellipse
     cx="19.5"
     cy="8.5"
     rx="0.5"
     ry="1.5"
     id="ellipse4"
     style="fill:#ea596e" />
  <ellipse
     cx="25.5"
     cy="8.5"
     rx="0.5"
     ry="1.5"
     id="ellipse6"
     style="fill:#ea596e" />
  <ellipse
     cx="21.5"
     cy="8.5"
     rx="0.5"
     ry="1.5"
     id="ellipse8"
     style="fill:#a6d388" />
  <ellipse
     cx="18.5"
     cy="8.5"
     rx="0.5"
     ry="1.5"
     id="ellipse10"
     style="fill:#a6d388" />
  <ellipse
     cx="22.5"
     cy="8.5"
     rx="0.5"
     ry="1.5"
     id="ellipse12"
     style="fill:#55acee" />
  <ellipse
     cx="26.5"
     cy="8.5"
     rx="0.5"
     ry="1.5"
     id="ellipse14"
     style="fill:#55acee" />
  <ellipse
     cx="30.5"
     cy="13.5"
     rx="0.5"
     ry="1.5"
     id="ellipse16"
     style="fill:#55acee" />
  <ellipse
     cx="3.5"
     cy="13.5"
     rx="0.5"
     ry="1.5"
     id="ellipse18"
     style="fill:#55acee" />
  <ellipse
     cx="32.5"
     cy="13.5"
     rx="0.5"
     ry="1.5"
     id="ellipse20"
     style="fill:#a6d388" />
  <ellipse
     cx="6.5"
     cy="13.5"
     rx="0.5"
     ry="1.5"
     id="ellipse22"
     style="fill:#a6d388" />
  <ellipse
     cx="33.5"
     cy="13.5"
     rx="0.5"
     ry="1.5"
     id="ellipse24"
     style="fill:#f4900c" />
  <ellipse
     cx="5.5"
     cy="13.5"
     rx="0.5"
     ry="1.5"
     id="ellipse26"
     style="fill:#f4900c" />
  <ellipse
     cx="23.5"
     cy="9.5"
     rx="0.5"
     ry="1.5"
     id="ellipse28"
     style="fill:#f4900c" />
  <path
     d="m 29,13.5 0,-2 C 29,11.224 29.224,11 29.5,11 L 31.4,11 31,9 7,9 6.6,11 7.5,11 C 7.776,11 8,11.224 8,11.5 l 0,2 C 8,13.776 7.776,14 7.5,14 l 21,0 C 28.224,14 29,13.776 29,13.5 Z"
     id="path30"
     inkscape:connector-curvature="0"
     style="fill:#ccd6dd" />
  <path
     d="m 14,13.5 c 0,0.276 -0.224,0.5 -0.5,0.5 l -4,0 C 9.224,14 9,13.776 9,13.5 l 0,-2 C 9,11.224 9.224,11 9.5,11 l 4,0 c 0.276,0 0.5,0.224 0.5,0.5 l 0,2 z m 7,0 c 0,0.276 -0.224,0.5 -0.5,0.5 l -4,0 C 16.224,14 16,13.776 16,13.5 l 0,-2 C 16,11.224 16.224,11 16.5,11 l 4,0 c 0.276,0 0.5,0.224 0.5,0.5 l 0,2 z m 7,0 c 0,0.276 -0.224,0.5 -0.5,0.5 l -4,0 C 23.224,14 23,13.776 23,13.5 l 0,-2 C 23,11.224 23.224,11 23.5,11 l 4,0 c 0.276,0 0.5,0.224 0.5,0.5 l 0,2 z"
     id="path32"
     inkscape:connector-curvature="0"
     style="fill:#66757f" />
  <path
     d="M 33.402,21.708 C 33.402,21.708 35,17 35,13 L 1,13 c 1,2 2.8,5.557 4.24,6.878 5.005,4.592 28.162,1.83 28.162,1.83 z"
     id="path34"
     inkscape:connector-curvature="0"
     style="fill:#ccd6dd" />
  <path
     d="m 3.762,18 c 0.504,0.771 1.01,1.448 1.478,1.878 5.004,4.592 28.162,1.83 28.162,1.83 0,0 0.538,-1.593 0.99,-3.708 l -30.63,0 z"
     id="path36"
     inkscape:connector-curvature="0"
     style="fill:#dd2e44" />
  <path
     d="M 8,16.5 C 8,16.776 7.776,17 7.5,17 l -1,0 C 6.224,17 6,16.776 6,16.5 l 0,-1 C 6,15.224 6.224,15 6.5,15 l 1,0 C 7.776,15 8,15.224 8,15.5 l 0,1 z m 4,0 c 0,0.276 -0.224,0.5 -0.5,0.5 l -1,0 C 10.224,17 10,16.776 10,16.5 l 0,-1 C 10,15.224 10.224,15 10.5,15 l 1,0 c 0.276,0 0.5,0.224 0.5,0.5 l 0,1 z m 4,0 c 0,0.276 -0.224,0.5 -0.5,0.5 l -1,0 C 14.224,17 14,16.776 14,16.5 l 0,-1 C 14,15.224 14.224,15 14.5,15 l 1,0 c 0.276,0 0.5,0.224 0.5,0.5 l 0,1 z m 4,0 c 0,0.276 -0.224,0.5 -0.5,0.5 l -1,0 C 18.224,17 18,16.776 18,16.5 l 0,-1 C 18,15.224 18.224,15 18.5,15 l 1,0 c 0.276,0 0.5,0.224 0.5,0.5 l 0,1 z m 4,0 c 0,0.276 -0.224,0.5 -0.5,0.5 l -1,0 C 22.224,17 22,16.776 22,16.5 l 0,-1 C 22,15.224 22.224,15 22.5,15 l 1,0 c 0.276,0 0.5,0.224 0.5,0.5 l 0,1 z m 4,0 c 0,0.276 -0.224,0.5 -0.5,0.5 l -1,0 C 26.224,17 26,16.776 26,16.5 l 0,-1 C 26,15.224 26.224,15 26.5,15 l 1,0 c 0.276,0 0.5,0.224 0.5,0.5 l 0,1 z m 4,0 c 0,0.276 -0.224,0.5 -0.5,0.5 l -1,0 C 30.224,17 30,16.776 30,16.5 l 0,-1 C 30,15.224 30.224,15 30.5,15 l 1,0 c 0.276,0 0.5,0.224 0.5,0.5 l 0,1 z"
     id="path38"
     inkscape:connector-curvature="0"
     style="fill:#66757f" />
  <path
     d="m 15,10 -8.4,1 0.9,-6.208 7.5,0 z"
     id="path40"
     inkscape:connector-curvature="0"
     style="fill:#ccd6dd" />
  <path
     d="M 14,4.5 C 14,4.776 13.776,5 13.5,5 13.224,5 13,4.776 13,4.5 l 0,-4 C 13,0.224 13.224,0 13.5,0 13.776,0 14,0.224 14,0.5 l 0,4 z m -2,2 C 12,6.776 11.776,7 11.5,7 11.224,7 11,6.776 11,6.5 l 0,-4 C 11,2.224 11.224,2 11.5,2 11.776,2 12,2.224 12,2.5 l 0,4 z"
     id="path42"
     inkscape:connector-curvature="0"
     style="fill:#ccd6dd" />
  <path
     d="M 15.5,4.75 C 15.5,4.888 15.276,5 15,5 L 7.5,5 C 7.224,5 7,4.888 7,4.75 L 7,4.25 C 7,4.112 7.224,4 7.5,4 L 15,4 c 0.276,0 0.5,0.112 0.5,0.25 l 0,0.5 z"
     id="path44"
     inkscape:connector-curvature="0"
     style="fill:#226699" />
  <path
     d="M 13.5,6 7.35,6 7.05,8 13.5,8 C 13.776,8 14,7.776 14,7.5 l 0,-1 C 14,6.224 13.776,6 13.5,6 Z"
     id="path46"
     inkscape:connector-curvature="0"
     style="fill:#66757f" />
  <path
     d="m 11,5 1,0 0,4 -1,0 z"
     id="path48"
     inkscape:connector-curvature="0"
     style="fill:#ccd6dd" />
  <path
     d="m 0,21 36,0 0,12 -36,0 z"
     id="path50"
     inkscape:connector-curvature="0"
     style="fill:#55acee" />
</svg>
