<?xml version="1.0" encoding="UTF-8" standalone="no"?>
<svg
   xmlns:dc="http://purl.org/dc/elements/1.1/"
   xmlns:cc="http://creativecommons.org/ns#"
   xmlns:rdf="http://www.w3.org/1999/02/22-rdf-syntax-ns#"
   xmlns:svg="http://www.w3.org/2000/svg"
   xmlns="http://www.w3.org/2000/svg"
   xmlns:sodipodi="http://sodipodi.sourceforge.net/DTD/sodipodi-0.dtd"
   xmlns:inkscape="http://www.inkscape.org/namespaces/inkscape"
   viewBox="0 0 36 35.001495"
   id="svg2"
   version="1.1"
   inkscape:version="0.91 r13725"
   sodipodi:docname="26f7-1f3fb.svg"
   width="36"
   height="35.001495">
  <metadata
     id="metadata52">
    <rdf:RDF>
      <cc:Work
         rdf:about="">
        <dc:format>image/svg+xml</dc:format>
        <dc:type
           rdf:resource="http://purl.org/dc/dcmitype/StillImage" />
      </cc:Work>
    </rdf:RDF>
  </metadata>
  <defs
     id="defs50" />
  <sodipodi:namedview
     pagecolor="#ffffff"
     bordercolor="#666666"
     borderopacity="1"
     objecttolerance="10"
     gridtolerance="10"
     guidetolerance="10"
     inkscape:pageopacity="0"
     inkscape:pageshadow="2"
     inkscape:window-width="640"
     inkscape:window-height="480"
     id="namedview48"
     showgrid="false"
     inkscape:zoom="6.5555556"
     inkscape:cx="18"
     inkscape:cy="18"
     inkscape:window-x="0"
     inkscape:window-y="0"
     inkscape:window-maximized="0"
     inkscape:current-layer="svg2" />
  <path
     d="m 36,12.063497 0,18.938 c 0,0 0,4 -4,4 l -28,0 c -4,0 -4,-4 -4,-4 l 0,-4.938 c 0,0 17,-10 36,-14 z"
     id="path4"
     inkscape:connector-curvature="0"
     style="fill:#e1e8ed" />
  <path
     d="m 14.751,23.461497 c 0.167,0.177 0.14,0.473 -0.062,0.662 -0.201,0.189 -0.5,0.2 -0.666,0.023 l -6.647,-7.052 c -0.167,-0.177 -0.139,-0.474 0.062,-0.664 0.201,-0.189 0.499,-0.199 0.666,-0.022 l 6.647,7.053 z"
     id="path6"
     inkscape:connector-curvature="0"
     style="fill:#8899a7" />
  <path
     d="m 26.812,16.810497 c 0.435,0.516 0.086,1.301 -0.777,1.756 l -19.464,10.218 c -1.812,0.876 -4.896,-0.04 -5.271,-0.79 -0.416,-0.832 1.193,-1.11 2.057,-1.563 l 20.322,-10.67 c 0.863,-0.453 1.914,-0.401 2.349,0.113 l 0.784,0.936 z"
     id="path8"
     inkscape:connector-curvature="0"
     style="fill:#aa8ed6" />
  <path
     d="m 13.562,20.829497 c -0.234,0.641 -1.078,1.061 -1.625,1.468 -0.547,0.407 -0.641,0.766 -0.641,1.204 0,0.438 0.328,1.047 1.656,1 1.328,-0.047 2.125,-0.703 2.391,-0.969 0.266,-0.266 0.531,-0.375 0.547,-0.328 0.016,0.047 0.859,-0.372 0.938,-0.616 0.078,-0.243 0.047,-1.29 -0.219,-1.853 -0.266,-0.563 -3.047,0.094 -3.047,0.094 z"
     id="path10"
     inkscape:connector-curvature="0"
     style="fill:#1c6399" />
  <path
     d="m 31.825,21.345497 c 0.435,0.516 0.086,1.301 -0.777,1.756 l -19.465,10.218 c -1.812,0.876 -4.896,-0.04 -5.271,-0.79 -0.416,-0.832 1.193,-1.11 2.057,-1.563 l 20.322,-10.67 c 0.863,-0.453 1.914,-0.4 2.349,0.113 l 0.785,0.936 z"
     id="path12"
     inkscape:connector-curvature="0"
     style="fill:#aa8ed6" />
  <path
     d="m 19.344,25.001497 c -0.234,0.641 -1.078,1.061 -1.625,1.468 -0.547,0.407 -0.641,0.766 -0.641,1.204 0,0.438 0.328,1.047 1.656,1 1.328,-0.047 2.125,-0.703 2.391,-0.969 0.266,-0.266 0.531,-0.375 0.547,-0.328 0.016,0.047 0.859,-0.372 0.938,-0.616 0.078,-0.243 0.047,-1.29 -0.219,-1.853 -0.266,-0.563 -3.047,0.094 -3.047,0.094 z"
     id="path14"
     inkscape:connector-curvature="0"
     style="fill:#1c6399" />
  <path
     d="m 18.558,25.943497 c 0.4,-0.141 0.798,-0.159 1.159,0.017 0.436,0.212 0.673,0.642 0.673,0.799 0,0.077 -0.266,0.391 -0.403,0.079 -0.153,-0.347 -0.806,-0.877 -1.429,-0.895 z m -0.69,0.505 c 0.36,-0.127 0.719,-0.143 1.044,0.015 0.393,0.191 0.606,0.578 0.606,0.719 0,0.069 -0.239,0.352 -0.363,0.071 -0.138,-0.313 -0.726,-0.789 -1.287,-0.805 z"
     id="path16"
     inkscape:connector-curvature="0"
     style="fill:#55acee" />
  <path
     d="m 34.844,20.327497 c 0.228,0.156 0.285,0.467 0.129,0.693 -0.157,0.228 -0.468,0.287 -0.694,0.129 l -9.062,-6.236 c -0.228,-0.157 -0.286,-0.468 -0.129,-0.696 0.156,-0.227 0.468,-0.285 0.695,-0.128 l 9.061,6.238 z"
     id="path18"
     inkscape:connector-curvature="0"
     style="fill:#8899a7" />
  <path
     d="m 24.688,13.405497 c -0.312,0.958 -0.676,1.875 -0.312,2.412 0.359,0.531 1.672,1.382 2.406,1.278 0.734,-0.104 1.469,-1.75 0.927,-3.21 -0.312,-0.841 -3.021,-0.48 -3.021,-0.48 z"
     id="path20"
     inkscape:connector-curvature="0"
     style="fill:#1c6399" />
  <path
     d="m 21.733,13.606497 -7.449,-0.077 -1.255,1.614 c -0.31,0.398 -0.467,1.01 -0.467,1.337 -10e-4,0.833 0.562,2.792 0.732,4.287 0.181,1.598 3.542,0.793 3.497,0.192 -0.073,-0.972 0.11,-1.64 -0.302,-2.511 -0.078,-0.165 0.199,-0.662 0.199,-0.662 0.415,0.24 0.872,0.395 1.353,0.449 l -0.627,1.269 c -0.224,0.454 -0.259,1.109 -0.086,1.584 0,0 1.328,3.135 1.476,3.874 0.323,1.602 4.206,0.488 3.706,-0.61 -0.595,-1.308 -0.553,-2.954 -1.438,-3.923 0.905,-1.135 2.197,-2.59 2.041,-3.979 0.002,-10e-4 -1.319,-2.672 -1.38,-2.844 z"
     id="path22"
     inkscape:connector-curvature="0"
     style="fill:#67757f" />
  <path
     d="m 21.062,6.0584967 c -0.524,-0.108 -6.586,2.12 -8.108,2.69 -1.959,0.733 -1.381,2.4070003 -2.238,3.9440003 -0.459,0.823 -1.578,1.197 -2.252,1.815 -0.7,0.643 -0.278,1.564 0.196,2.262 0.794,1.169 1.585,1.244 2.766,0.487 0.916,-0.587 1.594,-1.51 2.162,-2.422 0.724,2.055 3.283,2.263 5.183,2.32 1.193,0.036 2.42,-0.056 3.566,-0.407 0.837,-0.257 1.119,-0.397 1.105,-1.385 0,0 0.222,-2.11 -0.544,-4.019 0.385,0.302 0.737,0.501 0.927,0.959 0.152,0.369 0.08,0.794 0.196,1.156 0.165,0.511 0.585,0.7 1.087,0.866 0.607,0.201 1.322,0.321 1.963,0.252 0.87,-0.094 0.849,-0.441 0.778,-1.294 -0.129,-1.561 -0.546,-3.25 -1.748,-4.3160003 -1.411,-1.25 -3.16,-2.52 -5.039,-2.908 z"
     id="path24"
     inkscape:connector-curvature="0"
     style="fill:#bbddf5" />
  <path
     d="M 29.996,2.9394967 28.877,0.28649668 c -0.076,-0.181 -0.273,-0.295 -0.487,-0.28600000045 -0.129,0.006 -3.21,0.17400000045 -7.169,3.11200002045 -3.748,2.78 -4.634,2.82 -6.578,2.906 l -2.997,0.133 c -0.133,0.006 -0.257,0.059 -0.347,0.148 -0.506,0.498 -0.615,1.17 -0.291,1.799 0.411,0.796 1.623,1.614 3.795,1.517 1.437,-0.064 3.482,-1.196 5.851,-2.507 2.91,-1.61 6.208,-3.436 8.894,-3.555 0.161,-0.007 0.309,-0.083 0.396,-0.205 0.09,-0.122 0.11,-0.274 0.052,-0.409 z"
     id="path26"
     inkscape:connector-curvature="0"
     style="fill:#1c6399" />
  <path
     d="m 16.405,3.2914967 c 0.734,2.083 -0.36,4.368 -2.443,5.102 -2.083,0.734 -4.368,-0.36 -5.102,-2.443 -0.734,-2.084 0.692,-3.425 2.776,-4.159 2.083,-0.735 4.035,-0.584 4.769,1.5 z"
     id="path28"
     inkscape:connector-curvature="0"
     style="fill:#f7dece" />
  <path
     d="m 10.361,5.4204967 c 1.886,-0.665 3.44,-2.272 3.772,-1.329 0.333,0.943 0.997,2.83 2.883,2.165 1.886,-0.665 0.503,-7.599 -5.156,-5.60500002 C 6.203,2.6454967 7.532,6.4174967 10.361,5.4204967 Z"
     id="path30"
     inkscape:connector-curvature="0"
     style="fill:#9aaab4" />
  <circle
     cx="10.056"
     cy="6.058497"
     r="2"
     id="circle32"
     style="fill:#67757f" />
  <circle
     cx="10.056"
     cy="6.058497"
     r="1"
     id="circle34"
     style="fill:#bdddf4" />
  <circle
     cx="12.891"
     cy="5.0634966"
     r="2"
     id="circle36"
     style="fill:#67757f" />
  <circle
     cx="12.891"
     cy="5.0634966"
     r="1"
     id="circle38"
     style="fill:#bdddf4" />
  <path
     d="m 8.312,15.374497 c -0.907,0.382 -1.531,1.127 -1.703,1.517 -0.172,0.39 0.358,1.815 1.703,2.219 1.345,0.404 1.485,-1.297 1.813,-1.609 0.328,-0.312 -0.844,-2.535 -1.813,-2.127 z"
     id="path40"
     inkscape:connector-curvature="0"
     style="fill:#1c6399" />
  <path
     d="m 7.387,17.083497 -0.151,-0.161 c -0.167,-0.177 -0.139,-0.474 0.062,-0.664 0.201,-0.189 0.499,-0.199 0.666,-0.022 0,0 0.092,0.095 0.151,0.161 0.22,0.245 -0.539,0.892 -0.728,0.686 z"
     id="path42"
     inkscape:connector-curvature="0"
     style="fill:#8899a7" />
  <path
     d="m 9.818,18.123497 c 0.117,-0.394 -0.157,-1.006 -0.338,-1.249 -0.337,0.439 -0.792,0.91 -1.184,0.808 0.084,0.314 0.578,0.204 0.885,0.016 0.307,-0.189 0.637,0.425 0.637,0.425 z"
     id="path44"
     inkscape:connector-curvature="0"
     style="fill:#004a77" />
  <path
     d="m 12.776,21.772497 c 0.4,-0.141 0.798,-0.159 1.159,0.017 0.436,0.212 0.673,0.642 0.673,0.799 0,0.077 -0.266,0.391 -0.403,0.079 -0.152,-0.348 -0.805,-0.878 -1.429,-0.895 z m -0.69,0.504 c 0.36,-0.127 0.719,-0.143 1.044,0.015 0.393,0.191 0.606,0.578 0.606,0.719 0,0.069 -0.239,0.352 -0.363,0.071 -0.137,-0.313 -0.725,-0.789 -1.287,-0.805 z"
     id="path46"
     inkscape:connector-curvature="0"
     style="fill:#55acee" />
</svg>
