<?xml version="1.0" encoding="UTF-8" standalone="no"?>
<svg
   xmlns:dc="http://purl.org/dc/elements/1.1/"
   xmlns:cc="http://creativecommons.org/ns#"
   xmlns:rdf="http://www.w3.org/1999/02/22-rdf-syntax-ns#"
   xmlns:svg="http://www.w3.org/2000/svg"
   xmlns="http://www.w3.org/2000/svg"
   xmlns:sodipodi="http://sodipodi.sourceforge.net/DTD/sodipodi-0.dtd"
   xmlns:inkscape="http://www.inkscape.org/namespaces/inkscape"
   viewBox="0 0 35.479752 30.606327"
   id="svg2"
   version="1.1"
   inkscape:version="0.91 r13725"
   sodipodi:docname="26f8.svg"
   width="35.479752"
   height="30.606327">
  <metadata
     id="metadata18">
    <rdf:RDF>
      <cc:Work
         rdf:about="">
        <dc:format>image/svg+xml</dc:format>
        <dc:type
           rdf:resource="http://purl.org/dc/dcmitype/StillImage" />
      </cc:Work>
    </rdf:RDF>
  </metadata>
  <defs
     id="defs16" />
  <sodipodi:namedview
     pagecolor="#ffffff"
     bordercolor="#666666"
     borderopacity="1"
     objecttolerance="10"
     gridtolerance="10"
     guidetolerance="10"
     inkscape:pageopacity="0"
     inkscape:pageshadow="2"
     inkscape:window-width="640"
     inkscape:window-height="480"
     id="namedview14"
     showgrid="false"
     inkscape:zoom="6.5555556"
     inkscape:cx="17.479753"
     inkscape:cy="18"
     inkscape:window-x="0"
     inkscape:window-y="0"
     inkscape:window-maximized="0"
     inkscape:current-layer="svg2" />
  <path
     d="m 25.479753,27.606327 c 2,2 -11,2 -9,0 3,0 3,-3 3,-3 l 3,0 c 0,0 0,3 3,3 z m -14,0 c 2,2 -10.99999959,2 -8.9999996,0 3,0 3,-3 3,-3 l 3,0 c 0,0 0,3 2.9999996,3 z"
     id="path4"
     inkscape:connector-curvature="0"
     style="fill:#99aab5" />
  <path
     d="m 29.479753,30.606327 -27.9999996,0 c -1.10399999,0 -2.10399999,-3 -0.99999999,-3 l 27.99999959,0 c 3,0 3,-3 4,-4 5,3 2,7 -3,7 z"
     id="path6"
     inkscape:connector-curvature="0"
     style="fill:#99aab5" />
  <path
     d="m 0.47975341,22.606327 c 0,-9 1.99999999,-14.0000002 1.99999999,-21.0000002 0,-2.27899996 12.9999996,-1.99999996 12.9999996,0 0,2 -1.5,10.0000002 5,13.0000002 6.268,2.893 15,2 15,8 l -34.99999959,0 z"
     id="path8"
     inkscape:connector-curvature="0"
     style="fill:#e6e7e8" />
  <path
     d="m 35.479753,22.606327 c -24,0 -19.001,-1 -25,-1 l -9.99999959,0 0,1 c 0,1.104 0.89599999,2 1.99999999,2 l 7.9999996,0 c 2.333,0 0.398,-2.041 3,-1 5,2 20,1 20,1 1.104,0 2,-0.896 2,-2 z"
     id="path10"
     inkscape:connector-curvature="0"
     style="fill:#e6e7e8" />
  <path
     d="m 15.791753,15.356327 c -0.25,0 -0.5,-0.093 -0.694,-0.28 -0.398,-0.383 -0.409,-1.017 -0.025,-1.414 l 1.688,-1.75 c 0.384,-0.396 1.017,-0.408 1.414,-0.025 0.398,0.383 0.409,1.016 0.025,1.414 l -1.688,1.75 c -0.196,0.202 -0.458,0.305 -0.72,0.305 z m 3.687,2.25 c -0.15,0 -0.303,-0.034 -0.446,-0.105 -0.494,-0.247 -0.694,-0.848 -0.447,-1.342 l 1,-2 c 0.248,-0.494 0.848,-0.692 1.342,-0.447 0.494,0.247 0.694,0.848 0.447,1.342 l -1,2 c -0.176,0.35 -0.529,0.552 -0.896,0.552 z m 4.002,1 c -0.047,0 -0.095,-0.003 -0.143,-0.01 -0.547,-0.079 -0.927,-0.585 -0.849,-1.132 l 0.209,-1.458 c 0.079,-0.547 0.587,-0.923 1.132,-0.849 0.547,0.079 0.927,0.585 0.849,1.132 l -0.209,1.458 c -0.072,0.5 -0.5,0.859 -0.989,0.859 z"
     id="path12"
     inkscape:connector-curvature="0"
     style="fill:#dd2e44" />
</svg>
