<?xml version="1.0" encoding="UTF-8" standalone="no"?>
<svg
   xmlns:dc="http://purl.org/dc/elements/1.1/"
   xmlns:cc="http://creativecommons.org/ns#"
   xmlns:rdf="http://www.w3.org/1999/02/22-rdf-syntax-ns#"
   xmlns:svg="http://www.w3.org/2000/svg"
   xmlns="http://www.w3.org/2000/svg"
   xmlns:sodipodi="http://sodipodi.sourceforge.net/DTD/sodipodi-0.dtd"
   xmlns:inkscape="http://www.inkscape.org/namespaces/inkscape"
   viewBox="0 0 35.04916 35.04916"
   id="svg2"
   version="1.1"
   inkscape:version="0.91 r13725"
   sodipodi:docname="2708.svg"
   width="35.04916"
   height="35.04916">
  <metadata
     id="metadata16">
    <rdf:RDF>
      <cc:Work
         rdf:about="">
        <dc:format>image/svg+xml</dc:format>
        <dc:type
           rdf:resource="http://purl.org/dc/dcmitype/StillImage" />
      </cc:Work>
    </rdf:RDF>
  </metadata>
  <defs
     id="defs14" />
  <sodipodi:namedview
     pagecolor="#ffffff"
     bordercolor="#666666"
     borderopacity="1"
     objecttolerance="10"
     gridtolerance="10"
     guidetolerance="10"
     inkscape:pageopacity="0"
     inkscape:pageshadow="2"
     inkscape:window-width="640"
     inkscape:window-height="480"
     id="namedview12"
     showgrid="false"
     inkscape:zoom="6.5555556"
     inkscape:cx="17.656854"
     inkscape:cy="17.656854"
     inkscape:window-x="0"
     inkscape:window-y="0"
     inkscape:window-maximized="0"
     inkscape:current-layer="svg2" />
  <path
     d="m 29.656854,23.220305 c -0.391,0.392 -1.023,0.392 -1.414,0 l -1.414,-1.414 c -0.392,-0.391 -0.392,-1.024 0,-1.414 l 2.828,-2.828 c 0.391,-0.391 1.023,-0.391 1.414,0 l 1.414,1.414 c 0.392,0.391 0.392,1.024 0,1.414 l -2.828,2.828 z m -15,-15.0000002 c -0.391,0.392 -1.023,0.392 -1.414,0 l -1.414,-1.414 c -0.392,-0.391 -0.392,-1.023 0,-1.414 l 2.828,-2.828 c 0.391,-0.391 1.023,-0.391 1.414,0 l 1.414,1.414 c 0.392,0.391 0.392,1.023 0,1.414 l -2.828,2.828 z"
     id="path4"
     inkscape:connector-curvature="0"
     style="fill:#66757f" />
  <path
     d="m 1.6568542,21.392305 c 2,0 10.9999998,1 10.9999998,1 0,0 1,9 1,11 0,2 -2,2 -3,1 -0.9999998,-1 -3.9999998,-6 -3.9999998,-6 0,0 -5,-3 -5.99999995,-4 -1,-1 -1,-3 0.99999995,-3 z m 2,-15.9610002 c 3,-0.039 24.9999998,0.961 24.9999998,0.961 0,0 0.924,22.0000002 0.962,25.0000002 0.038,3 -2.763,4.002 -3.862,0.001 -1.099,-4.001 -5.1,-17.001 -5.1,-17.001 0,0 -13.9549998,-4.4170002 -17.0049998,-5.1020002 -3.99499995,-0.898 -2.99599995,-3.821 0.005,-3.859 z"
     id="path6"
     inkscape:connector-curvature="0"
     style="fill:#55acee" />
  <path
     d="m 26.656854,2.3923048 c 2,-1.99999995 7,-2.99999995 8,-1.99999995 1,0.99999995 0,5.99999995 -2,7.99999995 -2,2.0000002 -19,18.0000002 -19,18.0000002 0,0 -6.4999998,4.5 -7.9999998,3 -1.5,-1.5 3,-8 3,-8 0,0 15.9999998,-17.0000002 17.9999998,-19.0000002 z"
     id="path8"
     inkscape:connector-curvature="0"
     style="fill:#ccd6dd" />
  <path
     d="m 13.656854,21.392305 c 0,0 0.5,0.5 -3.9999998,5 -4.5,4.5 -5,4 -5,4 0,0 -0.5,-0.5 4,-5 4.4999998,-4.5 4.9999998,-4 4.9999998,-4 z m 15,-18.0000002 c 1.657,0 3,1.343 3,3 l 0.805,0 c 0.114,-0.315 0.195,-0.645 0.195,-1 0,-1.657 -1.343,-3 -3,-3 -0.355,0 -0.685,0.081 -1,0.195 l 0,0.805 z"
     id="path10"
     inkscape:connector-curvature="0"
     style="fill:#66757f" />
</svg>
