<?xml version="1.0" encoding="UTF-8" standalone="no"?>
<svg
   xmlns:dc="http://purl.org/dc/elements/1.1/"
   xmlns:cc="http://creativecommons.org/ns#"
   xmlns:rdf="http://www.w3.org/1999/02/22-rdf-syntax-ns#"
   xmlns:svg="http://www.w3.org/2000/svg"
   xmlns="http://www.w3.org/2000/svg"
   xmlns:sodipodi="http://sodipodi.sourceforge.net/DTD/sodipodi-0.dtd"
   xmlns:inkscape="http://www.inkscape.org/namespaces/inkscape"
   viewBox="0 0 34.318512 35.053001"
   id="svg2"
   version="1.1"
   inkscape:version="0.91 r13725"
   sodipodi:docname="270a-1f3fd.svg"
   width="34.318512"
   height="35.053001">
  <metadata
     id="metadata16">
    <rdf:RDF>
      <cc:Work
         rdf:about="">
        <dc:format>image/svg+xml</dc:format>
        <dc:type
           rdf:resource="http://purl.org/dc/dcmitype/StillImage" />
      </cc:Work>
    </rdf:RDF>
  </metadata>
  <defs
     id="defs14" />
  <sodipodi:namedview
     pagecolor="#ffffff"
     bordercolor="#666666"
     borderopacity="1"
     objecttolerance="10"
     gridtolerance="10"
     guidetolerance="10"
     inkscape:pageopacity="0"
     inkscape:pageshadow="2"
     inkscape:window-width="640"
     inkscape:window-height="480"
     id="namedview12"
     showgrid="false"
     inkscape:zoom="6.5555556"
     inkscape:cx="17"
     inkscape:cy="17.999"
     inkscape:window-x="0"
     inkscape:window-y="0"
     inkscape:window-maximized="0"
     inkscape:current-layer="svg2" />
  <path
     d="M 31.218,9.967 C 30.408,8.78 29.046,8 27.5,8 L 27,8 C 27,8 21.647,2.328 21.85,1.909 20.754,2.5 20,3.645 20,4.978 20,4.978 14.491,1.547 14.753,1.031 13.71,1.723 13,3 13,4.478 L 13,5 C 13,5 7.553,3.375 7.857,2.905 6.757,3.495 6,4.642 6,5.978 l 0,1.886 -6,6.272 0,2.645 17.16,14.439 c 0,0.001 13.128,-22.164 14.058,-21.253 z"
     id="path4"
     inkscape:connector-curvature="0"
     style="fill:#b78b60" />
  <g
     id="g6"
     style="fill:#d4ab88"
     transform="translate(-1,-0.946)">
    <path
       d="m 4.124,18.946 c 1.474,0 2.738,-0.831 3.392,-2.043 0.678,1.212 1.958,2.043 3.446,2.043 l 0.076,0 c 1.153,0 2.169,-0.51 2.889,-1.298 C 13.95,17.624 14,17.566 14,17.566 c 0.185,-0.212 0.343,-0.448 0.481,-0.695 0.04,-0.072 0.281,-0.621 0.342,-0.833 0.052,-0.173 0.106,-0.344 0.134,-0.526 0.141,0.167 0.296,0.319 0.46,0.46 0.069,0.059 0.45,0.339 0.576,0.413 0.589,0.351 1.271,0.56 2.008,0.56 l 3.166,0 c -0.535,0.27 -0.999,0.614 -1.424,1 -1.729,1.568 -2.579,4.085 -2.579,7.663 0,0.276 0.224,0.5 0.5,0.5 0.276,0 0.5,-0.224 0.5,-0.5 0,-3.962 1.01,-6.427 3.24,-7.663 1.175,-0.651 2.682,-0.967 4.571,-0.967 0.059,0 0.526,-0.033 0.526,-0.033 0.276,0 0.5,-0.224 0.5,-0.5 0,-0.276 -0.224,-0.5 -0.5,-0.5 l -8.501,0 c -1.657,0 -3,-1.343 -3,-3 0,-1.657 1.343,-3 3,-3 l 11,0 c 0.973,0 2.288,0.056 3.218,0.967 0.325,0.318 0.604,0.736 0.803,1.297 l 1.659,5.472 c 0.156,0.512 0.73,2.857 0.626,3.346 0,7.34 -8.7,14.972 -19.004,14.972 C 6.326,36 1,27.883 1,17.957 l 0,-0.229 c 0.01,0.01 0.021,0.016 0.031,0.026 0.881,0.882 1.799,1.192 2.845,1.192 l 0.248,0 z"
       id="path8"
       inkscape:connector-curvature="0" />
    <path
       d="m 3.864,5.946 0.271,0 C 5.718,5.946 7,7.229 7,8.81 l 0,6.272 c 0,1.582 -1.282,2.864 -2.864,2.864 l -0.272,0 C 2.282,17.946 1,16.664 1,15.082 L 1,8.81 C 1,7.229 2.282,5.946 3.864,5.946 Z m 10.136,9 c 0,0.891 -0.396,1.683 -1.014,2.233 -0.53,0.472 -1.221,0.767 -1.986,0.767 -1.657,0 -3,-1.343 -3,-3 l 0,-9 C 8,5.13 8.328,4.392 8.857,3.851 9.401,3.294 10.159,2.946 11,2.946 c 1.657,0 3,1.343 3,3 l 0,9 z m 4,-6 c -1.201,0 -2.267,0.541 -3,1.38 l 0,-6.38 c 0,-0.758 0.29,-1.442 0.753,-1.97 0.55,-0.627 1.347,-1.03 2.247,-1.03 1.657,0 3,1.343 3,3 l 0,5 -3,0 z m 4,-4.007 c 0,-0.812 0.326,-1.545 0.85,-2.085 0.544,-0.559 1.301,-0.909 2.143,-0.909 l 0.014,0 C 26.66,1.946 28,3.286 28,4.939 l 0,4.007 -6,0 0,-4.007 z"
       id="path10"
       inkscape:connector-curvature="0" />
  </g>
</svg>
