<?xml version="1.0" encoding="UTF-8" standalone="no"?>
<svg
   xmlns:dc="http://purl.org/dc/elements/1.1/"
   xmlns:cc="http://creativecommons.org/ns#"
   xmlns:rdf="http://www.w3.org/1999/02/22-rdf-syntax-ns#"
   xmlns:svg="http://www.w3.org/2000/svg"
   xmlns="http://www.w3.org/2000/svg"
   xmlns:sodipodi="http://sodipodi.sourceforge.net/DTD/sodipodi-0.dtd"
   xmlns:inkscape="http://www.inkscape.org/namespaces/inkscape"
   viewBox="0 0 22.419167 33.111057"
   id="svg2"
   version="1.1"
   inkscape:version="0.91 r13725"
   sodipodi:docname="270c-1f3fb.svg"
   width="22.419167"
   height="33.111057">
  <metadata
     id="metadata16">
    <rdf:RDF>
      <cc:Work
         rdf:about="">
        <dc:format>image/svg+xml</dc:format>
        <dc:type
           rdf:resource="http://purl.org/dc/dcmitype/StillImage" />
      </cc:Work>
    </rdf:RDF>
  </metadata>
  <defs
     id="defs14" />
  <sodipodi:namedview
     pagecolor="#ffffff"
     bordercolor="#666666"
     borderopacity="1"
     objecttolerance="10"
     gridtolerance="10"
     guidetolerance="10"
     inkscape:pageopacity="0"
     inkscape:pageshadow="2"
     inkscape:window-width="640"
     inkscape:window-height="480"
     id="namedview12"
     showgrid="false"
     inkscape:zoom="6.5555556"
     inkscape:cx="11"
     inkscape:cy="18"
     inkscape:window-x="0"
     inkscape:window-y="0"
     inkscape:window-maximized="0"
     inkscape:current-layer="svg2" />
  <path
     d="m 19.992,16.127056 c -0.255,-0.255 -0.553,-0.47 -0.875,-0.636 l -0.4,-1.356 -8.012,-0.056 -0.307,1.091 c -0.467,0.095 -1.041,0.389 -1.393,0.718 l -3.611,-3.954 c -0.817,0.364 -1.389,1.18 -1.389,2.133 l 0,0.96 -4,4.166 0.016,2.188 9.984,10.729 c 0,0 10.518,-15.288 10.543,-15.258 -0.127,-0.224 -0.511,-0.703 -0.556,-0.725 z"
     id="path4"
     inkscape:connector-curvature="0"
     style="fill:#e0aa94" />
  <g
     id="g6"
     style="fill:#f7dece"
     transform="translate(-7,-2.8889438)">
    <path
       d="M 24.581,18 18,18 c -0.208,0 -0.411,0.021 -0.607,0.061 L 17.32,17.783 14.047,5.319 c 0,0 -0.416,-1.957 1.54,-2.372 1.956,-0.416 2.372,1.54 2.372,1.54 l 3.097,11.569 c 0.446,0.024 0.878,0.063 1.305,0.107 L 24.422,5.651 c 0,0 0.188,-1.991 2.18,-1.804 1.991,0.188 1.803,2.179 1.803,2.179 L 26.34,17.187 26.119,18.381 C 25.655,18.146 25.137,18 24.581,18 Z M 8.916,16 9.084,16 C 10.143,16 11,16.858 11,17.917 l 0,4.166 C 11,23.142 10.143,24 9.084,24 L 8.916,24 C 7.857,24 7,23.142 7,22.083 L 7,17.917 C 7,16.858 7.857,16 8.916,16 Z m 6.918,2.96 -0.056,0.062 C 15.304,19.551 15,20.233 15,21 c 0,0.063 0.013,0.123 0.018,0.185 0.044,0.678 0.308,1.292 0.728,1.774 -0.071,0.129 -0.163,0.243 -0.259,0.353 C 15.121,23.729 14.597,24 14,24 12.896,24 12,23.104 12,22 l 0,-6 c 0,-0.441 0.147,-0.845 0.389,-1.176 C 12.753,14.327 13.336,14 14,14 c 1.104,0 2,0.896 2,2 l 0,2.778 c -0.061,0.055 -0.109,0.123 -0.166,0.182 z"
       id="path8"
       inkscape:connector-curvature="0" />
    <path
       d="m 9.062,25 c 1.024,0 1.925,-0.526 2.45,-1.322 0.123,0.183 0.271,0.346 0.431,0.497 1.185,1.115 3.034,1.044 4.167,-0.086 0.152,-0.152 0.303,-0.305 0.419,-0.488 L 16.526,23.598 C 16.727,23.713 17,24 18,24 l 2.537,0 c -0.37,0.279 -0.708,0.623 -1.024,1 -1.228,1.467 -2.013,3.606 -2.013,6 0,0.276 0.224,0.5 0.5,0.5 0.276,0 0.5,-0.224 0.5,-0.5 0,-2.548 0.956,-4.775 2.377,-6 0.732,-0.631 1.584,-1 2.498,-1 0.713,0.079 0.847,-1 0.125,-1 L 18,23 c -1.104,0 -2,-0.896 -2,-2 0,-1.104 0.896,-2 2,-2 l 8,0 c 0.858,0 1.66,0.596 1.913,1.415 L 29,24 c 0.103,0.335 0.479,1.871 0.411,2.191 C 29.411,31 24.715,36 19,36 12.463,36 7.156,30.769 7.014,24.266 l 0.014,0.01 C 7.543,24.721 8.204,25 8.938,25 l 0.124,0 z"
       id="path10"
       inkscape:connector-curvature="0" />
  </g>
</svg>
