<?xml version="1.0" encoding="UTF-8" standalone="no"?>
<svg
   xmlns:dc="http://purl.org/dc/elements/1.1/"
   xmlns:cc="http://creativecommons.org/ns#"
   xmlns:rdf="http://www.w3.org/1999/02/22-rdf-syntax-ns#"
   xmlns:svg="http://www.w3.org/2000/svg"
   xmlns="http://www.w3.org/2000/svg"
   xmlns:sodipodi="http://sodipodi.sourceforge.net/DTD/sodipodi-0.dtd"
   xmlns:inkscape="http://www.inkscape.org/namespaces/inkscape"
   viewBox="0 0 36 36"
   id="svg2"
   version="1.1"
   inkscape:version="0.91 r13725"
   sodipodi:docname="2733.svg"
   width="36"
   height="36">
  <metadata
     id="metadata12">
    <rdf:RDF>
      <cc:Work
         rdf:about="">
        <dc:format>image/svg+xml</dc:format>
        <dc:type
           rdf:resource="http://purl.org/dc/dcmitype/StillImage" />
      </cc:Work>
    </rdf:RDF>
  </metadata>
  <defs
     id="defs10" />
  <sodipodi:namedview
     pagecolor="#ffffff"
     bordercolor="#666666"
     borderopacity="1"
     objecttolerance="10"
     gridtolerance="10"
     guidetolerance="10"
     inkscape:pageopacity="0"
     inkscape:pageshadow="2"
     inkscape:window-width="640"
     inkscape:window-height="480"
     id="namedview8"
     showgrid="false"
     inkscape:zoom="6.5555556"
     inkscape:cx="18"
     inkscape:cy="18"
     inkscape:window-x="0"
     inkscape:window-y="0"
     inkscape:window-maximized="0"
     inkscape:current-layer="svg2" />
  <path
     d="m 36,32 c 0,2.209 -1.791,4 -4,4 L 4,36 C 1.791,36 0,34.209 0,32 L 0,4 C 0,1.791 1.791,0 4,0 l 28,0 c 2.209,0 4,1.791 4,4 l 0,28 z"
     id="path4"
     inkscape:connector-curvature="0"
     style="fill:#77b255" />
  <path
     d="m 31.999,16 -9.171,0 6.899,-6.899 C 30.508,8.32 30.509,7.054 29.728,6.273 28.946,5.491 27.68,5.492 26.899,6.273 L 20,13.172 20,4 C 20,2.896 19.104,2 18,2 16.896,2 16,2.896 16,4 L 16,13.171 9.101,6.272 C 8.32,5.491 7.053,5.491 6.273,6.272 5.492,7.053 5.492,8.319 6.273,9.1 L 13.173,16 4,16 c -1.104,0 -2.001,0.896 -2,2 0,1.104 0.896,2 1.999,2 l 9.174,0 -6.9,6.9 c -0.781,0.78 -0.781,2.047 0,2.828 0.78,0.78 2.047,0.78 2.827,0 L 16,22.828 16,32 c 0,1.104 0.896,2 2,2 1.104,0 2,-0.896 2,-2 l 0,-9.172 6.899,6.899 c 0.781,0.781 2.047,0.782 2.828,0.001 0.781,-0.781 0.781,-2.048 0,-2.829 L 22.828,20 31.999,20 C 33.104,20 34,19.105 34,18.001 34,16.896 33.104,16 31.999,16 Z"
     id="path6"
     inkscape:connector-curvature="0"
     style="fill:#ffffff" />
</svg>
