<?xml version="1.0" encoding="UTF-8" standalone="no"?>
<svg
   xmlns:dc="http://purl.org/dc/elements/1.1/"
   xmlns:cc="http://creativecommons.org/ns#"
   xmlns:rdf="http://www.w3.org/1999/02/22-rdf-syntax-ns#"
   xmlns:svg="http://www.w3.org/2000/svg"
   xmlns="http://www.w3.org/2000/svg"
   xmlns:sodipodi="http://sodipodi.sourceforge.net/DTD/sodipodi-0.dtd"
   xmlns:inkscape="http://www.inkscape.org/namespaces/inkscape"
   viewBox="0 0 33.334293 36"
   id="svg2"
   version="1.1"
   inkscape:version="0.91 r13725"
   sodipodi:docname="2744.svg"
   width="33.334293"
   height="36">
  <metadata
     id="metadata14">
    <rdf:RDF>
      <cc:Work
         rdf:about="">
        <dc:format>image/svg+xml</dc:format>
        <dc:type
           rdf:resource="http://purl.org/dc/dcmitype/StillImage" />
      </cc:Work>
    </rdf:RDF>
  </metadata>
  <defs
     id="defs12" />
  <sodipodi:namedview
     pagecolor="#ffffff"
     bordercolor="#666666"
     borderopacity="1"
     objecttolerance="10"
     gridtolerance="10"
     guidetolerance="10"
     inkscape:pageopacity="0"
     inkscape:pageshadow="2"
     inkscape:window-width="640"
     inkscape:window-height="480"
     id="namedview10"
     showgrid="false"
     inkscape:zoom="6.5555556"
     inkscape:cx="16.666391"
     inkscape:cy="18"
     inkscape:window-x="0"
     inkscape:window-y="0"
     inkscape:window-maximized="0"
     inkscape:current-layer="svg2" />
  <path
     d="m 17.666391,27.586 0,-19.171 4.828,-4.829 c 0,0 0.707,-0.707 0,-1.415 -0.707,-0.707 -1.414,0 -1.414,0 l -3.414,3.415 0,-4.586 c 0,0 0,-1 -1,-1 -1,0 -1,1 -1,1 l 0,4.586 -3.414,-3.415 c 0,0 -0.707,-0.707 -1.414,0 -0.707,0.708 0,1.415 0,1.415 l 4.828,4.829 0,19.171 -4.828,4.828 c 0,0 -0.707,0.707 0,1.414 0.707,0.707 1.414,0 1.414,0 l 3.414,-3.414 0,4.586 c 0,0 0,1 1,1 1,0 1,-1 1,-1 l 0,-4.586 3.414,3.414 c 0,0 0.707,0.707 1.414,0 0.707,-0.707 0,-1.414 0,-1.414 l -4.828,-4.828 z"
     id="path4"
     inkscape:connector-curvature="0"
     style="fill:#88c9f9" />
  <path
     d="m 33.288391,20.866 c -0.259,-0.966 -1.225,-0.707 -1.225,-0.707 l -6.595,1.767 -16.6029997,-9.586 -1.767,-6.595 c 0,0 -0.259,-0.966 -1.225,-0.707 -0.967,0.259 -0.707,1.225 -0.707,1.225 l 1.25,4.664 -3.972,-2.294 c 0,0 -0.866,-0.5 -1.366,0.366 -0.49999999,0.866 0.366,1.366 0.366,1.366 l 3.971,2.293 -4.66399999,1.249 c 0,0 -0.967,0.259 -0.707,1.225 0.259,0.967 1.22499999,0.708 1.22499999,0.708 l 6.596,-1.767 16.6029997,9.586 1.767,6.596 c 0,0 0.259,0.966 1.225,0.707 0.966,-0.26 0.707,-1.225 0.707,-1.225 l -1.25,-4.664 3.972,2.293 c 0,0 0.867,0.5 1.367,-0.365 0.5,-0.867 -0.367,-1.367 -0.367,-1.367 l -3.971,-2.293 4.663,-1.249 c 0,-10e-4 0.966,-0.26 0.707,-1.226 z"
     id="path6"
     inkscape:connector-curvature="0"
     style="fill:#88c9f9" />
  <path
     d="m 32.581391,13.907 -4.664,-1.25 3.972,-2.293 c 0,0 0.867,-0.501 0.367,-1.367 -0.501,-0.867 -1.367,-0.366 -1.367,-0.366 l -3.971,2.292 1.249,-4.663 c 0,0 0.259,-0.966 -0.707,-1.225 -0.966,-0.259 -1.225,0.707 -1.225,0.707 l -1.767,6.595 -16.6039997,9.589 -6.594,-1.768 c 0,0 -0.96599999,-0.259 -1.22499999,0.707 -0.26,0.967 0.707,1.225 0.707,1.225 l 4.66299999,1.249 -3.971,2.293 c 0,0 -0.86499999,0.501 -0.365,1.367 0.5,0.865 1.365,0.365 1.365,0.365 l 3.972,-2.293 -1.25,4.663 c 0,0 -0.259,0.967 0.707,1.225 0.967,0.26 1.226,-0.706 1.226,-0.706 l 1.768,-6.597 16.6039997,-9.585 6.595,1.768 c 0,0 0.966,0.259 1.225,-0.707 0.255,-0.967 -0.71,-1.225 -0.71,-1.225 z"
     id="path8"
     inkscape:connector-curvature="0"
     style="fill:#88c9f9" />
</svg>
