<?xml version="1.0" encoding="UTF-8" standalone="no"?>
<svg
   xmlns:dc="http://purl.org/dc/elements/1.1/"
   xmlns:cc="http://creativecommons.org/ns#"
   xmlns:rdf="http://www.w3.org/1999/02/22-rdf-syntax-ns#"
   xmlns:svg="http://www.w3.org/2000/svg"
   xmlns="http://www.w3.org/2000/svg"
   xmlns:sodipodi="http://sodipodi.sourceforge.net/DTD/sodipodi-0.dtd"
   xmlns:inkscape="http://www.inkscape.org/namespaces/inkscape"
   viewBox="0 0 34.000046 32.529007"
   id="svg2"
   version="1.1"
   inkscape:version="0.91 r13725"
   sodipodi:docname="2b50.svg"
   width="34.000046"
   height="32.529007">
  <metadata
     id="metadata10">
    <rdf:RDF>
      <cc:Work
         rdf:about="">
        <dc:format>image/svg+xml</dc:format>
        <dc:type
           rdf:resource="http://purl.org/dc/dcmitype/StillImage" />
      </cc:Work>
    </rdf:RDF>
  </metadata>
  <defs
     id="defs8" />
  <sodipodi:namedview
     pagecolor="#ffffff"
     bordercolor="#666666"
     borderopacity="1"
     objecttolerance="10"
     gridtolerance="10"
     guidetolerance="10"
     inkscape:pageopacity="0"
     inkscape:pageshadow="2"
     inkscape:window-width="640"
     inkscape:window-height="480"
     id="namedview6"
     showgrid="false"
     inkscape:zoom="6.5555556"
     inkscape:cx="17.000242"
     inkscape:cy="16.627006"
     inkscape:window-x="0"
     inkscape:window-y="0"
     inkscape:window-maximized="0"
     inkscape:current-layer="svg2" />
  <path
     d="m 26.287242,32.529 c -0.404,0 -0.806,-0.124 -1.152,-0.371 l -8.135,-5.834 -8.1349998,5.834 c -0.693,0.496 -1.623,0.496 -2.312,-0.008 -0.689,-0.499 -0.979,-1.385 -0.721,-2.194 l 3.034,-9.792 -8.06199997,-5.681 c -0.685,-0.505 -0.97,-1.393 -0.708,-2.203 0.264,-0.808 1.01599997,-1.357 1.86599997,-1.363 l 9.9849998,-0.015 3.179,-9.549 c 0.268,-0.809 1.023,-1.353 1.874,-1.353 0.851,0 1.606,0.545 1.875,1.353 l 3.125,9.549 10.036,0.015 c 0.853,0.006 1.606,0.556 1.867,1.363 0.263,0.81 -0.022,1.698 -0.708,2.203 l -8.062,5.681 3.034,9.792 c 0.26,0.809 -0.033,1.695 -0.72,2.194 -0.347,0.254 -0.753,0.379 -1.16,0.379 z"
     id="path4"
     inkscape:connector-curvature="0"
     style="fill:#ffac33" />
</svg>
