<?xml version="1.0" encoding="UTF-8" standalone="no"?>
<svg
   xmlns:dc="http://purl.org/dc/elements/1.1/"
   xmlns:cc="http://creativecommons.org/ns#"
   xmlns:rdf="http://www.w3.org/1999/02/22-rdf-syntax-ns#"
   xmlns:svg="http://www.w3.org/2000/svg"
   xmlns="http://www.w3.org/2000/svg"
   xmlns:sodipodi="http://sodipodi.sourceforge.net/DTD/sodipodi-0.dtd"
   xmlns:inkscape="http://www.inkscape.org/namespaces/inkscape"
   viewBox="0 0 35.001297 28.000999"
   id="svg2"
   version="1.1"
   inkscape:version="0.91 r13725"
   sodipodi:docname="303d.svg"
   width="35.001297"
   height="28.000999">
  <metadata
     id="metadata10">
    <rdf:RDF>
      <cc:Work
         rdf:about="">
        <dc:format>image/svg+xml</dc:format>
        <dc:type
           rdf:resource="http://purl.org/dc/dcmitype/StillImage" />
      </cc:Work>
    </rdf:RDF>
  </metadata>
  <defs
     id="defs8" />
  <sodipodi:namedview
     pagecolor="#ffffff"
     bordercolor="#666666"
     borderopacity="1"
     objecttolerance="10"
     gridtolerance="10"
     guidetolerance="10"
     inkscape:pageopacity="0"
     inkscape:pageshadow="2"
     inkscape:window-width="640"
     inkscape:window-height="480"
     id="namedview6"
     showgrid="false"
     inkscape:zoom="6.5555556"
     inkscape:cx="17.501105"
     inkscape:cy="14.501"
     inkscape:window-x="0"
     inkscape:window-y="0"
     inkscape:window-maximized="0"
     inkscape:current-layer="svg2" />
  <path
     d="M 34.862105,24.679 C 26.278105,0 23.052105,0 21.501105,0 c -3.125,0 -4.538,3.18 -5.785,5.985 -0.1,0.225 -0.217,0.485 -0.339,0.754 -0.486,0.939 -1.266,0.939 -1.752,0 -0.122,-0.269 -0.239,-0.529 -0.339,-0.754 C 12.039105,3.18 10.626105,0 7.5011051,0 c -2.304,0 -5.466,2.083 -7.45200005,12.01 -0.271,1.354 0.607,2.67 1.96000005,2.941 1.351,0.272 2.67,-0.607 2.942,-1.96 0.547,-1.835 1.748,-5.663 1.748,-5.663 0.429,-1.001 1.177,-1.031 1.672,-0.078 0.125,0.273 0.243,0.537 0.344,0.765 0.183,0.412 0.371,0.831 0.566,1.248 l 0.003,0.007 c 0.195,0.416 0.398,0.828 0.615,1.226 l 0.003,0.004 c 1.0429999,1.917 2.3939999,3.5 4.5979999,3.5 2.661,0 4.08,-2.307 5.212,-4.724 l 0.012,-0.024 c 0.193,-0.413 0.379,-0.829 0.561,-1.237 0.091,-0.205 0.197,-0.441 0.308,-0.685 0.446,-0.881 1.188,-0.803 1.654,0.182 0,0 3.902,8.748 5.594,12.519 0.801,2.095 1.583,4.231 2.299,6.29 0.359,1.032 1.327,1.68 2.361,1.68 0.272,0 0.55,-0.045 0.821,-0.14 1.304,-0.454 1.993,-1.879 1.54,-3.182 z"
     id="path4"
     inkscape:connector-curvature="0"
     style="fill:#ffcc4d" />
</svg>
