<?xml version="1.0" encoding="UTF-8" standalone="no"?>
<svg
   xmlns:dc="http://purl.org/dc/elements/1.1/"
   xmlns:cc="http://creativecommons.org/ns#"
   xmlns:rdf="http://www.w3.org/1999/02/22-rdf-syntax-ns#"
   xmlns:svg="http://www.w3.org/2000/svg"
   xmlns="http://www.w3.org/2000/svg"
   xmlns:sodipodi="http://sodipodi.sourceforge.net/DTD/sodipodi-0.dtd"
   xmlns:inkscape="http://www.inkscape.org/namespaces/inkscape"
   viewBox="0 0 36 36"
   id="svg2"
   version="1.1"
   inkscape:version="0.91 r13725"
   sodipodi:docname="3299.svg"
   width="36"
   height="36">
  <metadata
     id="metadata12">
    <rdf:RDF>
      <cc:Work
         rdf:about="">
        <dc:format>image/svg+xml</dc:format>
        <dc:type
           rdf:resource="http://purl.org/dc/dcmitype/StillImage" />
      </cc:Work>
    </rdf:RDF>
  </metadata>
  <defs
     id="defs10" />
  <sodipodi:namedview
     pagecolor="#ffffff"
     bordercolor="#666666"
     borderopacity="1"
     objecttolerance="10"
     gridtolerance="10"
     guidetolerance="10"
     inkscape:pageopacity="0"
     inkscape:pageshadow="2"
     inkscape:window-width="640"
     inkscape:window-height="480"
     id="namedview8"
     showgrid="false"
     inkscape:zoom="6.5555556"
     inkscape:cx="18"
     inkscape:cy="18"
     inkscape:window-x="0"
     inkscape:window-y="0"
     inkscape:window-maximized="0"
     inkscape:current-layer="svg2" />
  <path
     d="M 36,18 C 36,27.94 27.941,36 18,36 8.059,36 0,27.94 0,18 0,8.059 8.059,0 18,0 27.941,0 36,8.059 36,18 Z"
     id="path4"
     inkscape:connector-curvature="0"
     style="fill:#dd2e44" />
  <path
     d="m 14.002,12.155 c 0.486,0 0.756,0.351 0.756,0.891 0,0.567 -0.27,0.945 -0.756,0.945 l -2.457,0 c 0.621,1.431 1.512,2.726 2.483,3.698 0.189,0.189 0.297,0.486 0.297,0.755 0,0.243 -0.081,0.459 -0.216,0.621 -0.162,0.189 -0.378,0.297 -0.621,0.297 -0.243,0 -0.54,-0.135 -0.729,-0.378 -0.54,-0.702 -1.161,-1.862 -1.62,-3.104 0.162,1.403 0.297,2.915 0.297,4.102 l 0,9.61 c 0,0.513 -0.351,0.809 -0.972,0.809 -0.594,0 -0.917,-0.297 -0.917,-0.809 l 0,-8.907 c 0,-1.404 0.216,-2.943 0.405,-4.211 -0.675,2.24 -1.809,5.047 -3.185,6.937 C 6.551,23.708 6.254,23.87 5.93,23.87 5.741,23.87 5.552,23.816 5.39,23.682 5.12,23.465 4.985,23.196 4.985,22.899 c 0,-0.216 0.081,-0.432 0.243,-0.647 1.835,-2.295 3.266,-5.48 3.995,-8.26 l -2.914,0 c -0.486,0 -0.756,-0.378 -0.756,-0.945 0,-0.54 0.27,-0.891 0.756,-0.891 l 3.239,0 0,-3.51 C 8.711,8.835 7.847,8.997 7.064,9.105 7.01,9.132 6.957,9.132 6.875,9.132 6.416,9.132 6.065,8.862 5.984,8.296 l 0,-0.162 c 0,-0.486 0.297,-0.837 0.729,-0.918 2.213,-0.297 4.643,-0.944 6.262,-1.781 0.216,-0.108 0.432,-0.162 0.648,-0.162 0.351,0 0.648,0.189 0.864,0.486 0.135,0.189 0.189,0.378 0.189,0.567 0,0.324 -0.189,0.594 -0.54,0.756 -0.755,0.378 -1.7,0.729 -2.699,1.053 l 0,4.022 2.565,0 z m 4.588,-0.54 c 0,-0.486 0.405,-0.783 1.026,-0.783 0.566,0 0.972,0.297 0.972,0.81 l 0,9.231 c 2.699,-3.59 4.588,-8.071 5.83,-13.308 0.108,-0.459 0.405,-0.729 0.918,-0.729 0.081,0 0.189,0 0.324,0.027 0.539,0.108 0.863,0.54 0.863,0.972 0,0.108 0,0.189 -0.026,0.27 -1.782,6.559 -4.482,11.85 -7.909,15.71 l 0,2.726 c 0,0.648 0.189,0.918 0.863,0.999 0.459,0.054 1.025,0.081 1.863,0.081 0.836,0 1.457,-0.081 1.916,-0.189 0.54,-0.136 0.837,-0.324 0.998,-0.892 0.162,-0.566 0.298,-1.565 0.324,-2.807 0.027,-0.432 0.405,-0.81 0.999,-0.81 l 0.054,0 c 0.621,0.026 0.918,0.378 0.918,0.972 l 0,0.081 c -0.054,1.511 -0.243,2.807 -0.566,3.697 -0.324,0.918 -0.999,1.485 -2.105,1.701 -0.702,0.135 -1.539,0.188 -2.537,0.216 -1.08,0 -1.971,-0.054 -2.673,-0.135 -1.431,-0.189 -2.051,-0.837 -2.051,-2.214 l 0,-1.943 c -1.323,1.215 -2.807,2.349 -4.373,3.293 -0.243,0.162 -0.486,0.243 -0.702,0.243 -0.324,0 -0.621,-0.162 -0.783,-0.513 -0.135,-0.162 -0.189,-0.378 -0.189,-0.567 0,-0.351 0.162,-0.701 0.54,-0.918 2.025,-1.133 3.86,-2.618 5.507,-4.291 l 0,-10.93 z m -2.294,3.077 c 0.054,0 0.108,0 0.189,0.027 0.567,0.081 0.837,0.432 0.837,0.918 0,0.081 0,0.162 -0.027,0.243 -0.27,2.483 -0.864,5.102 -1.7,7.072 -0.216,0.405 -0.567,0.621 -0.945,0.621 -0.135,0 -0.297,-0.027 -0.432,-0.108 -0.378,-0.161 -0.54,-0.432 -0.54,-0.756 0,-0.188 0.054,-0.378 0.162,-0.594 0.81,-1.862 1.35,-4.237 1.62,-6.64 0.053,-0.513 0.35,-0.783 0.836,-0.783 z m 7.153,-6.289 c 0.297,0.27 0.485,0.594 0.485,0.917 0,0.189 -0.054,0.378 -0.189,0.54 -0.217,0.297 -0.566,0.459 -0.918,0.459 -0.27,0 -0.513,-0.081 -0.701,-0.243 C 21.018,9.158 19.183,7.97 17.726,7.269 17.429,7.08 17.24,6.783 17.24,6.459 c 0,-0.162 0.054,-0.351 0.162,-0.513 0.216,-0.351 0.567,-0.513 0.918,-0.513 0.189,0 0.378,0.054 0.567,0.135 1.511,0.676 3.428,1.836 4.562,2.835 z m 4.453,6.64 c 0.378,0 0.702,0.216 0.892,0.648 0.917,1.943 1.511,3.914 1.943,5.911 0.026,0.136 0.054,0.27 0.054,0.378 0,0.432 -0.189,0.756 -0.675,0.918 -0.135,0.027 -0.269,0.054 -0.405,0.054 -0.404,0 -0.728,-0.243 -0.863,-0.81 -0.432,-1.781 -1.053,-3.914 -1.863,-5.695 -0.08,-0.135 -0.107,-0.297 -0.107,-0.459 0,-0.351 0.189,-0.675 0.567,-0.837 0.16,-0.081 0.323,-0.108 0.457,-0.108 z"
     id="path6"
     inkscape:connector-curvature="0"
     style="fill:#ffffff" />
</svg>
