<?xml version="1.0" encoding="UTF-8" standalone="no"?>
<svg
   xmlns:dc="http://purl.org/dc/elements/1.1/"
   xmlns:cc="http://creativecommons.org/ns#"
   xmlns:rdf="http://www.w3.org/1999/02/22-rdf-syntax-ns#"
   xmlns:svg="http://www.w3.org/2000/svg"
   xmlns="http://www.w3.org/2000/svg"
   xmlns:sodipodi="http://sodipodi.sourceforge.net/DTD/sodipodi-0.dtd"
   xmlns:inkscape="http://www.inkscape.org/namespaces/inkscape"
   viewBox="0 0 36 36"
   id="svg2"
   version="1.1"
   inkscape:version="0.91 r13725"
   sodipodi:docname="37-20e3.svg"
   width="36"
   height="36">
  <metadata
     id="metadata12">
    <rdf:RDF>
      <cc:Work
         rdf:about="">
        <dc:format>image/svg+xml</dc:format>
        <dc:type
           rdf:resource="http://purl.org/dc/dcmitype/StillImage" />
      </cc:Work>
    </rdf:RDF>
  </metadata>
  <defs
     id="defs10" />
  <sodipodi:namedview
     pagecolor="#ffffff"
     bordercolor="#666666"
     borderopacity="1"
     objecttolerance="10"
     gridtolerance="10"
     guidetolerance="10"
     inkscape:pageopacity="0"
     inkscape:pageshadow="2"
     inkscape:window-width="640"
     inkscape:window-height="480"
     id="namedview8"
     showgrid="false"
     inkscape:zoom="6.5555556"
     inkscape:cx="18"
     inkscape:cy="18"
     inkscape:window-x="0"
     inkscape:window-y="0"
     inkscape:window-maximized="0"
     inkscape:current-layer="svg2" />
  <path
     d="m 36,32 c 0,2.209 -1.791,4 -4,4 L 4,36 C 1.791,36 0,34.209 0,32 L 0,4 C 0,1.791 1.791,0 4,0 l 28,0 c 2.209,0 4,1.791 4,4 l 0,28 z"
     id="path4"
     inkscape:connector-curvature="0"
     style="fill:#3b88c3" />
  <path
     d="m 20.357,11.203 -7.937,0 c -1.674,0 -2.294,-1.085 -2.294,-2.139 0,-1.085 0.589,-2.14 2.294,-2.14 l 11.224,0 c 1.582,0 2.233,1.426 2.233,2.232 0,0.62 -0.341,1.271 -0.713,2.046 l -7.69,15.627 c -0.868,1.736 -1.209,2.355 -2.604,2.355 -1.705,0 -2.574,-1.302 -2.574,-2.201 0,-0.372 0.093,-0.65 0.311,-1.085 l 7.75,-14.695 z"
     id="path6"
     inkscape:connector-curvature="0"
     style="fill:#ffffff" />
</svg>
