<?xml version="1.0" encoding="UTF-8" standalone="no"?>
<svg
   xmlns:dc="http://purl.org/dc/elements/1.1/"
   xmlns:cc="http://creativecommons.org/ns#"
   xmlns:rdf="http://www.w3.org/1999/02/22-rdf-syntax-ns#"
   xmlns:svg="http://www.w3.org/2000/svg"
   xmlns="http://www.w3.org/2000/svg"
   xmlns:sodipodi="http://sodipodi.sourceforge.net/DTD/sodipodi-0.dtd"
   xmlns:inkscape="http://www.inkscape.org/namespaces/inkscape"
   viewBox="0 0 28 36"
   id="svg2"
   version="1.1"
   inkscape:version="0.91 r13725"
   sodipodi:docname="1f004.svg"
   width="28"
   height="36">
  <metadata
     id="metadata12">
    <rdf:RDF>
      <cc:Work
         rdf:about="">
        <dc:format>image/svg+xml</dc:format>
        <dc:type
           rdf:resource="http://purl.org/dc/dcmitype/StillImage" />
      </cc:Work>
    </rdf:RDF>
  </metadata>
  <defs
     id="defs10" />
  <sodipodi:namedview
     pagecolor="#ffffff"
     bordercolor="#666666"
     borderopacity="1"
     objecttolerance="10"
     gridtolerance="10"
     guidetolerance="10"
     inkscape:pageopacity="0"
     inkscape:pageshadow="2"
     inkscape:window-width="448"
     inkscape:window-height="402"
     id="namedview8"
     showgrid="false"
     inkscape:zoom="6.5555556"
     inkscape:cx="14"
     inkscape:cy="18"
     inkscape:window-x="0"
     inkscape:window-y="0"
     inkscape:window-maximized="0"
     inkscape:current-layer="svg2" />
  <path
     d="m 28,32 c 0,2.209 -1.791,4 -4,4 L 4,36 C 1.791,36 0,34.209 0,32 L 0,4 C 0,1.791 1.791,0 4,0 l 20,0 c 2.209,0 4,1.791 4,4 l 0,28 z"
     id="path4"
     inkscape:connector-curvature="0"
     style="fill:#e6e7e8" />
  <path
     d="m 4.397,11.891 c 0.53,0 0.996,0.078 1.392,0.232 0.244,0.066 0.453,0.143 0.63,0.231 0.796,-0.044 1.612,-0.122 2.453,-0.231 1.104,-0.134 2.463,-0.297 4.076,-0.497 l 0,-2.319 c 0,-1.613 -0.188,-2.948 -0.563,-4.01 -0.155,-0.332 -0.233,-0.552 -0.233,-0.662 0,-0.331 0.133,-0.498 0.398,-0.498 0.706,0 1.359,0.089 1.954,0.266 0.686,0.198 1.028,0.453 1.028,0.761 0,0.111 -0.042,0.342 -0.134,0.696 -0.265,0.685 -0.395,1.955 -0.395,3.811 l 0,1.723 c 1.299,-0.132 2.723,-0.276 4.271,-0.43 0.706,-0.045 1.381,-0.166 2.023,-0.366 0.463,-0.088 0.739,-0.132 0.83,-0.132 0.264,0 0.837,0.222 1.72,0.662 0.928,0.553 1.394,0.984 1.394,1.293 0,0.242 -0.12,0.486 -0.362,0.729 -0.819,0.881 -1.408,1.809 -1.759,2.782 l -0.798,1.691 c -0.13,0.329 -0.276,0.583 -0.426,0.76 l 0.128,0.067 c 0.508,0.311 0.761,0.586 0.761,0.829 0,0.198 -0.183,0.309 -0.56,0.332 -1.699,0 -3.236,0.088 -4.606,0.266 l -2.614,0.196 -0.034,4.442 c 0,2.009 -0.069,3.62 -0.198,4.838 -0.133,1.368 -0.333,2.341 -0.598,2.914 C 13.93,32.755 13.73,33 13.577,33 13.488,33 13.345,32.734 13.146,32.202 13.014,31.585 12.948,30.515 12.948,28.988 l 0,-8.749 -1.789,0.167 c -1.194,0.111 -2.111,0.168 -2.75,0.168 -0.266,0 -0.488,-0.024 -0.664,-0.069 -0.044,0.2 -0.11,0.376 -0.198,0.533 -0.133,0.287 -0.277,0.43 -0.432,0.43 -0.198,0 -0.385,-0.154 -0.562,-0.465 C 6.266,20.565 6.111,20.111 6.089,19.645 L 5.691,17.06 C 5.536,15.712 5.359,14.774 5.16,14.242 5.049,13.691 4.751,13.161 4.266,12.652 4.089,12.542 4,12.466 4,12.422 4,12.068 4.133,11.891 4.397,11.891 Z m 3.347,7.221 c 1.812,-0.085 3.545,-0.196 5.203,-0.328 l 0,-6.132 C 11.245,12.851 9.6,13.116 8.01,13.448 7.7,13.559 7.413,13.636 7.148,13.68 c 0,0.265 0.022,0.53 0.067,0.793 0.265,2.013 0.441,3.561 0.529,4.639 z m 7.259,-6.69 0,6.163 c 0.728,-0.087 1.435,-0.179 2.119,-0.265 1.326,-0.178 2.286,-0.286 2.879,-0.331 0.048,-0.11 0.103,-0.232 0.168,-0.363 0.199,-0.641 0.463,-1.646 0.798,-3.016 0.264,-1.084 0.394,-1.768 0.394,-2.056 0,-0.353 -0.339,-0.529 -1.024,-0.529 -1.041,0 -2.696,0.121 -4.973,0.363 -0.13,-10e-4 -0.254,0.012 -0.361,0.034 z"
     id="path6"
     inkscape:connector-curvature="0"
     style="fill:#be1931" />
</svg>
