<?xml version="1.0" encoding="UTF-8" standalone="no"?>
<svg
   xmlns:dc="http://purl.org/dc/elements/1.1/"
   xmlns:cc="http://creativecommons.org/ns#"
   xmlns:rdf="http://www.w3.org/1999/02/22-rdf-syntax-ns#"
   xmlns:svg="http://www.w3.org/2000/svg"
   xmlns="http://www.w3.org/2000/svg"
   xmlns:sodipodi="http://sodipodi.sourceforge.net/DTD/sodipodi-0.dtd"
   xmlns:inkscape="http://www.inkscape.org/namespaces/inkscape"
   viewBox="0 0 28 36"
   id="svg2"
   version="1.1"
   inkscape:version="0.91 r13725"
   sodipodi:docname="1f0cf.svg"
   width="28"
   height="36">
  <metadata
     id="metadata34">
    <rdf:RDF>
      <cc:Work
         rdf:about="">
        <dc:format>image/svg+xml</dc:format>
        <dc:type
           rdf:resource="http://purl.org/dc/dcmitype/StillImage" />
      </cc:Work>
    </rdf:RDF>
  </metadata>
  <defs
     id="defs32" />
  <sodipodi:namedview
     pagecolor="#ffffff"
     bordercolor="#666666"
     borderopacity="1"
     objecttolerance="10"
     gridtolerance="10"
     guidetolerance="10"
     inkscape:pageopacity="0"
     inkscape:pageshadow="2"
     inkscape:window-width="640"
     inkscape:window-height="480"
     id="namedview30"
     showgrid="false"
     inkscape:zoom="6.5555556"
     inkscape:cx="14"
     inkscape:cy="18"
     inkscape:window-x="0"
     inkscape:window-y="0"
     inkscape:window-maximized="0"
     inkscape:current-layer="svg2" />
  <path
     d="m 28,32 c 0,2.209 -1.791,4 -4,4 L 4,36 C 1.791,36 0,34.209 0,32 L 0,4 C 0,1.791 1.791,0 4,0 l 20,0 c 2.209,0 4,1.791 4,4 l 0,28 z"
     id="path4"
     inkscape:connector-curvature="0"
     style="fill:#e6e7e8" />
  <path
     d="M 7,7 C 4.481,7 2.417,8.87 2.071,11.293 2.802,10.503 3.839,10 5,10 c 2.209,0 4,1.791 4,4 0,2 1.497,2.198 0.707,2.929 C 12.13,16.583 12,14.519 12,12 12,9.239 9.761,7 7,7 Z"
     id="path6"
     inkscape:connector-curvature="0"
     style="fill:#dd2e44" />
  <path
     d="m 19,14 c 0,-2.209 1.791,-4 4,-4 1.161,0 2.198,0.503 2.929,1.293 C 25.583,8.87 23.52,7 21,7 c -2.762,0 -5,2.239 -5,5 0,2.519 -0.131,4.583 2.293,4.929 C 17.503,16.198 19,16 19,14 Z"
     id="path8"
     inkscape:connector-curvature="0"
     style="fill:#55acee" />
  <path
     d="m 10,12 c 0,-4.971 4,-9 4,-9 0,0 4,4.029 4,9 0,4.971 -1.791,9 -4,9 -2.209,0 -4,-4.029 -4,-9 z"
     id="path10"
     inkscape:connector-curvature="0"
     style="fill:#ffac33" />
  <path
     d="M 7.707,21.071 C 8.497,21.802 9,22.839 9,24 9,26.209 7.209,28 5,28 3.839,28 2.802,27.497 2.071,26.707 2.417,29.131 4.481,31 7,31 c 2.761,0 5,-2.238 5,-5 0,-2.52 -1.87,-4.583 -4.293,-4.929 z M 23,28 c -2.209,0 -4,-1.791 -4,-4 0,-1.161 0.503,-2.198 1.293,-2.929 C 17.869,21.417 16,23.48 16,26 c 0,2.762 2.238,5 5,5 2.52,0 4.583,-1.869 4.929,-4.293 C 25.198,27.497 24.161,28 23,28 Z"
     id="path12"
     inkscape:connector-curvature="0"
     style="fill:#553788" />
  <path
     d="m 10,24 c 0,4.971 3,9 4,9 1,0 4,-4.029 4,-9 0,-0.874 -0.055,-1.719 -0.159,-2.519 C 17.357,17.737 15.82,15 14,15 12.18,15 10.643,17.737 10.159,21.481 10.055,22.281 10,23.126 10,24 Z"
     id="path14"
     inkscape:connector-curvature="0"
     style="fill:#9266cc" />
  <path
     d="m 9,17 c 0,-3.866 3,-4 5,-4 2,0 5,0.134 5,4 0,3.865 -2.238,7 -5,7 -2.761,0 -5,-3.135 -5,-7 z"
     id="path16"
     inkscape:connector-curvature="0"
     style="fill:#edbb9f" />
  <circle
     cx="12"
     cy="17"
     r="1"
     id="circle18"
     style="fill:#662113" />
  <circle
     cx="16"
     cy="17"
     r="1"
     id="circle20"
     style="fill:#662113" />
  <path
     d="m 14,22 c 1.104,0 2,-0.896 2,-2 l -4,0 c 0,1.104 0.896,2 2,2 z"
     id="path22"
     inkscape:connector-curvature="0"
     style="fill:#662113" />
  <circle
     cx="2"
     cy="11"
     r="1"
     id="circle24"
     style="fill:#a0041e" />
  <circle
     cx="26"
     cy="11"
     r="1"
     id="circle26"
     style="fill:#226699" />
  <circle
     cx="14"
     cy="3"
     r="1"
     id="circle28"
     style="fill:#dd2e44" />
</svg>
