<?xml version="1.0" encoding="UTF-8" standalone="no"?>
<svg
   xmlns:dc="http://purl.org/dc/elements/1.1/"
   xmlns:cc="http://creativecommons.org/ns#"
   xmlns:rdf="http://www.w3.org/1999/02/22-rdf-syntax-ns#"
   xmlns:svg="http://www.w3.org/2000/svg"
   xmlns="http://www.w3.org/2000/svg"
   xmlns:sodipodi="http://sodipodi.sourceforge.net/DTD/sodipodi-0.dtd"
   xmlns:inkscape="http://www.inkscape.org/namespaces/inkscape"
   viewBox="0 0 36 36"
   id="svg2"
   version="1.1"
   inkscape:version="0.91 r13725"
   sodipodi:docname="1f198.svg"
   width="36"
   height="36">
  <metadata
     id="metadata12">
    <rdf:RDF>
      <cc:Work
         rdf:about="">
        <dc:format>image/svg+xml</dc:format>
        <dc:type
           rdf:resource="http://purl.org/dc/dcmitype/StillImage" />
      </cc:Work>
    </rdf:RDF>
  </metadata>
  <defs
     id="defs10" />
  <sodipodi:namedview
     pagecolor="#ffffff"
     bordercolor="#666666"
     borderopacity="1"
     objecttolerance="10"
     gridtolerance="10"
     guidetolerance="10"
     inkscape:pageopacity="0"
     inkscape:pageshadow="2"
     inkscape:window-width="640"
     inkscape:window-height="480"
     id="namedview8"
     showgrid="false"
     inkscape:zoom="6.5555556"
     inkscape:cx="18"
     inkscape:cy="18"
     inkscape:window-x="0"
     inkscape:window-y="0"
     inkscape:window-maximized="0"
     inkscape:current-layer="svg2" />
  <path
     d="m 36,32 c 0,2.209 -1.791,4 -4,4 L 4,36 C 1.791,36 0,34.209 0,32 L 0,4 C 0,1.791 1.791,0 4,0 l 28,0 c 2.209,0 4,1.791 4,4 l 0,28 z"
     id="path4"
     inkscape:connector-curvature="0"
     style="fill:#dd2e44" />
  <path
     d="m 9.762,12.518 c 0,0.78 -0.52,1.48 -1.34,1.48 -0.82,0 -1.46,-0.6 -2.661,-0.6 -0.86,0 -1.641,0.46 -1.641,1.3 0,2.06 6.682,0.74 6.682,5.901 0,2.861 -2.361,4.642 -5.121,4.642 -1.541,0 -4.861,-0.36 -4.861,-2.24 0,-0.78 0.521,-1.421 1.34,-1.421 0.94,0 2.061,0.78 3.361,0.78 1.32,0 2.041,-0.74 2.041,-1.721 0,-2.36 -6.682,-0.94 -6.682,-5.581 0,-2.801 2.301,-4.541 4.961,-4.541 1.121,0 3.921,0.42 3.921,2.001 z m 1.358,5.361 c 0,-4.161 2.801,-7.362 6.882,-7.362 4.02,0 6.881,3.3 6.881,7.362 0,4.141 -2.78,7.361 -6.881,7.361 -4.061,0 -6.882,-3.22 -6.882,-7.361 z m 10.643,0 c 0,-2.421 -1.261,-4.602 -3.761,-4.602 -2.501,0 -3.761,2.181 -3.761,4.602 0,2.44 1.22,4.601 3.761,4.601 2.541,-0.001 3.761,-2.161 3.761,-4.601 z m 12.38,-5.361 c 0,0.78 -0.521,1.48 -1.342,1.48 -0.821,0 -1.459,-0.6 -2.66,-0.6 -0.859,0 -1.641,0.46 -1.641,1.3 0,2.06 6.682,0.74 6.682,5.901 0,2.861 -2.359,4.642 -5.121,4.642 -1.539,0 -4.861,-0.36 -4.861,-2.24 0,-0.78 0.521,-1.421 1.342,-1.421 0.939,0 2.061,0.78 3.359,0.78 1.32,0 2.041,-0.74 2.041,-1.721 0,-2.36 -6.682,-0.94 -6.682,-5.581 0,-2.801 2.301,-4.541 4.961,-4.541 1.121,0 3.922,0.42 3.922,2.001 z"
     id="path6"
     inkscape:connector-curvature="0"
     style="fill:#ffffff" />
</svg>
