<?xml version="1.0" encoding="UTF-8" standalone="no"?>
<svg
   xmlns:dc="http://purl.org/dc/elements/1.1/"
   xmlns:cc="http://creativecommons.org/ns#"
   xmlns:rdf="http://www.w3.org/1999/02/22-rdf-syntax-ns#"
   xmlns:svg="http://www.w3.org/2000/svg"
   xmlns="http://www.w3.org/2000/svg"
   xmlns:sodipodi="http://sodipodi.sourceforge.net/DTD/sodipodi-0.dtd"
   xmlns:inkscape="http://www.inkscape.org/namespaces/inkscape"
   viewBox="0 0 36 36"
   id="svg2"
   version="1.1"
   inkscape:version="0.91 r13725"
   sodipodi:docname="1f193.svg"
   width="36"
   height="36">
  <metadata
     id="metadata12">
    <rdf:RDF>
      <cc:Work
         rdf:about="">
        <dc:format>image/svg+xml</dc:format>
        <dc:type
           rdf:resource="http://purl.org/dc/dcmitype/StillImage" />
      </cc:Work>
    </rdf:RDF>
  </metadata>
  <defs
     id="defs10" />
  <sodipodi:namedview
     pagecolor="#ffffff"
     bordercolor="#666666"
     borderopacity="1"
     objecttolerance="10"
     gridtolerance="10"
     guidetolerance="10"
     inkscape:pageopacity="0"
     inkscape:pageshadow="2"
     inkscape:window-width="640"
     inkscape:window-height="480"
     id="namedview8"
     showgrid="false"
     inkscape:zoom="6.5555556"
     inkscape:cx="18"
     inkscape:cy="18"
     inkscape:window-x="0"
     inkscape:window-y="0"
     inkscape:window-maximized="0"
     inkscape:current-layer="svg2" />
  <path
     d="m 36,32 c 0,2.209 -1.791,4 -4,4 L 4,36 C 1.791,36 0,34.209 0,32 L 0,4 C 0,1.791 1.791,0 4,0 l 28,0 c 2.209,0 4,1.791 4,4 l 0,28 z"
     id="path4"
     inkscape:connector-curvature="0"
     style="fill:#3b88c3" />
  <path
     d="m 1.836,12.585 c 0,-0.738 0.504,-1.404 1.405,-1.404 l 4.609,0 c 0.792,0 1.206,0.612 1.206,1.242 0,0.612 -0.396,1.243 -1.206,1.243 l -3.312,0 0,2.629 2.791,0 c 0.864,0 1.296,0.612 1.296,1.224 0,0.631 -0.432,1.261 -1.296,1.261 l -2.791,0 0,3.925 c 0,0.9 -0.576,1.405 -1.351,1.405 -0.774,0 -1.351,-0.505 -1.351,-1.405 l 0,-10.12 z m 7.992,0 c 0,-0.864 0.486,-1.404 1.387,-1.404 l 3.169,0 c 2.773,0 4.483,1.242 4.483,4.069 0,1.981 -1.495,3.115 -3.331,3.403 l 3.061,3.277 c 0.252,0.269 0.36,0.54 0.36,0.792 0,0.702 -0.558,1.387 -1.351,1.387 -0.324,0 -0.756,-0.126 -1.044,-0.469 l -3.998,-4.843 -0.036,0 0,3.906 c 0,0.9 -0.576,1.405 -1.351,1.405 -0.774,0 -1.351,-0.505 -1.351,-1.405 l 0,-10.118 z m 2.701,4.267 1.854,0 c 0.99,0 1.674,-0.594 1.674,-1.603 0,-1.026 -0.684,-1.584 -1.674,-1.584 l -1.854,0 0,3.187 z m 6.948,-4.105 c 0,-0.9 0.449,-1.566 1.404,-1.566 l 4.465,0 c 0.865,0 1.279,0.612 1.279,1.242 0,0.612 -0.434,1.243 -1.279,1.243 l -3.168,0 0,2.629 2.952,0 c 0.882,0 1.313,0.612 1.313,1.242 0,0.612 -0.449,1.242 -1.313,1.242 l -2.952,0 0,2.737 3.33,0 c 0.865,0 1.279,0.611 1.279,1.242 0,0.612 -0.434,1.242 -1.279,1.242 l -4.644,0 c -0.793,0 -1.387,-0.54 -1.387,-1.351 l 0,-9.902 z m 7.974,0 c 0,-0.9 0.449,-1.566 1.404,-1.566 l 4.465,0 c 0.863,0 1.277,0.612 1.277,1.242 0,0.612 -0.432,1.243 -1.277,1.243 l -3.17,0 0,2.629 2.953,0 c 0.883,0 1.314,0.612 1.314,1.242 0,0.612 -0.449,1.242 -1.314,1.242 l -2.953,0 0,2.737 3.332,0 c 0.863,0 1.277,0.611 1.277,1.242 0,0.612 -0.432,1.242 -1.277,1.242 l -4.646,0 c -0.791,0 -1.385,-0.54 -1.385,-1.351 l 0,-9.902 z"
     id="path6"
     inkscape:connector-curvature="0"
     style="fill:#ffffff" />
</svg>
