<?xml version="1.0" encoding="UTF-8" standalone="no"?>
<svg
   xmlns:dc="http://purl.org/dc/elements/1.1/"
   xmlns:cc="http://creativecommons.org/ns#"
   xmlns:rdf="http://www.w3.org/1999/02/22-rdf-syntax-ns#"
   xmlns:svg="http://www.w3.org/2000/svg"
   xmlns="http://www.w3.org/2000/svg"
   xmlns:sodipodi="http://sodipodi.sourceforge.net/DTD/sodipodi-0.dtd"
   xmlns:inkscape="http://www.inkscape.org/namespaces/inkscape"
   viewBox="0 0 36 36"
   id="svg2"
   version="1.1"
   inkscape:version="0.91 r13725"
   sodipodi:docname="1f197.svg"
   width="36"
   height="36">
  <metadata
     id="metadata12">
    <rdf:RDF>
      <cc:Work
         rdf:about="">
        <dc:format>image/svg+xml</dc:format>
        <dc:type
           rdf:resource="http://purl.org/dc/dcmitype/StillImage" />
      </cc:Work>
    </rdf:RDF>
  </metadata>
  <defs
     id="defs10" />
  <sodipodi:namedview
     pagecolor="#ffffff"
     bordercolor="#666666"
     borderopacity="1"
     objecttolerance="10"
     gridtolerance="10"
     guidetolerance="10"
     inkscape:pageopacity="0"
     inkscape:pageshadow="2"
     inkscape:window-width="640"
     inkscape:window-height="480"
     id="namedview8"
     showgrid="false"
     inkscape:zoom="6.5555556"
     inkscape:cx="18"
     inkscape:cy="18"
     inkscape:window-x="0"
     inkscape:window-y="0"
     inkscape:window-maximized="0"
     inkscape:current-layer="svg2" />
  <path
     d="m 36,32 c 0,2.209 -1.791,4 -4,4 L 4,36 C 1.791,36 0,34.209 0,32 L 0,4 C 0,1.791 1.791,0 4,0 l 28,0 c 2.209,0 4,1.791 4,4 l 0,28 z"
     id="path4"
     inkscape:connector-curvature="0"
     style="fill:#3b88c3" />
  <path
     d="m 1.933,17.455 c 0,-4.992 3.36,-8.833 8.256,-8.833 4.825,0 8.257,3.96 8.257,8.833 0,4.969 -3.336,8.833 -8.257,8.833 -4.872,0 -8.256,-3.864 -8.256,-8.833 z m 12.769,0 c 0,-2.904 -1.512,-5.52 -4.513,-5.52 -3,0 -4.512,2.616 -4.512,5.52 0,2.929 1.464,5.521 4.512,5.521 3.048,0 4.513,-2.592 4.513,-5.521 z m 5.23,-6.913 c 0,-0.984 0.721,-1.776 1.801,-1.776 1.031,0 1.8,0.672 1.8,1.776 l 0,5.185 5.905,-6.289 c 0.264,-0.288 0.719,-0.672 1.391,-0.672 0.912,0 1.777,0.696 1.777,1.728 0,0.624 -0.385,1.128 -1.176,1.92 l -4.537,4.464 5.545,5.785 c 0.576,0.576 1.008,1.103 1.008,1.824 0,1.128 -0.889,1.655 -1.873,1.655 -0.695,0 -1.15,-0.407 -1.824,-1.128 l -6.216,-6.721 0,6.121 c 0,0.936 -0.72,1.728 -1.8,1.728 -1.032,0 -1.801,-0.672 -1.801,-1.728 l 0,-13.872 z"
     id="path6"
     inkscape:connector-curvature="0"
     style="fill:#ffffff" />
</svg>
