<?xml version="1.0" encoding="UTF-8" standalone="no"?>
<svg
   xmlns:dc="http://purl.org/dc/elements/1.1/"
   xmlns:cc="http://creativecommons.org/ns#"
   xmlns:rdf="http://www.w3.org/1999/02/22-rdf-syntax-ns#"
   xmlns:svg="http://www.w3.org/2000/svg"
   xmlns="http://www.w3.org/2000/svg"
   xmlns:sodipodi="http://sodipodi.sourceforge.net/DTD/sodipodi-0.dtd"
   xmlns:inkscape="http://www.inkscape.org/namespaces/inkscape"
   viewBox="0 0 36 36"
   id="svg2"
   version="1.1"
   inkscape:version="0.91 r13725"
   sodipodi:docname="1f19a.svg"
   width="36"
   height="36">
  <metadata
     id="metadata12">
    <rdf:RDF>
      <cc:Work
         rdf:about="">
        <dc:format>image/svg+xml</dc:format>
        <dc:type
           rdf:resource="http://purl.org/dc/dcmitype/StillImage" />
      </cc:Work>
    </rdf:RDF>
  </metadata>
  <defs
     id="defs10" />
  <sodipodi:namedview
     pagecolor="#ffffff"
     bordercolor="#666666"
     borderopacity="1"
     objecttolerance="10"
     gridtolerance="10"
     guidetolerance="10"
     inkscape:pageopacity="0"
     inkscape:pageshadow="2"
     inkscape:window-width="640"
     inkscape:window-height="480"
     id="namedview8"
     showgrid="false"
     inkscape:zoom="6.5555556"
     inkscape:cx="18"
     inkscape:cy="18"
     inkscape:window-x="0"
     inkscape:window-y="0"
     inkscape:window-maximized="0"
     inkscape:current-layer="svg2" />
  <path
     d="m 36,32 c 0,2.209 -1.791,4 -4,4 L 4,36 C 1.791,36 0,34.209 0,32 L 0,4 C 0,1.791 1.791,0 4,0 l 28,0 c 2.209,0 4,1.791 4,4 l 0,28 z"
     id="path4"
     inkscape:connector-curvature="0"
     style="fill:#f4900c" />
  <path
     d="m 16.98,7.14 c -1.02,0 -1.649,0.66 -2.04,1.47 L 10.291,21.089 5.64,8.61 C 5.25,7.8 4.621,7.14 3.601,7.14 2.4,7.14 1.29,8.04 1.29,9.3 c 0,0.42 0.06,0.721 0.21,1.11 l 6.57,16.71 c 0.391,0.959 0.9,1.738 2.221,1.738 1.32,0 1.83,-0.779 2.22,-1.738 l 6.57,-16.71 C 19.231,10.02 19.29,9.72 19.29,9.3 19.289,8.04 18.18,7.14 16.98,7.14 Z m 7.71,6.089 c 0,-1.26 1.17,-1.949 2.461,-1.949 1.799,0 2.76,0.899 3.99,0.899 1.228,0 2.01,-1.05 2.01,-2.22 0,-2.37 -4.201,-3 -5.881,-3 -3.99,0 -7.439,2.609 -7.439,6.811 0,6.959 10.02,4.828 10.02,8.369 0,1.471 -1.08,2.58 -3.059,2.58 -1.951,0 -3.631,-1.17 -5.041,-1.17 -1.231,0 -2.01,0.959 -2.01,2.129 0,2.82 4.981,3.361 7.289,3.361 4.141,0 7.68,-2.67 7.68,-6.961 C 34.709,14.34 24.69,16.319 24.69,13.229 Z"
     id="path6"
     inkscape:connector-curvature="0"
     style="fill:#ffffff" />
</svg>
