<?xml version="1.0" encoding="UTF-8" standalone="no"?>
<svg
   xmlns:dc="http://purl.org/dc/elements/1.1/"
   xmlns:cc="http://creativecommons.org/ns#"
   xmlns:rdf="http://www.w3.org/1999/02/22-rdf-syntax-ns#"
   xmlns:svg="http://www.w3.org/2000/svg"
   xmlns="http://www.w3.org/2000/svg"
   xmlns:sodipodi="http://sodipodi.sourceforge.net/DTD/sodipodi-0.dtd"
   xmlns:inkscape="http://www.inkscape.org/namespaces/inkscape"
   viewBox="0 0 36 36"
   id="svg2"
   version="1.1"
   inkscape:version="0.91 r13725"
   sodipodi:docname="1f196.svg"
   width="36"
   height="36">
  <metadata
     id="metadata12">
    <rdf:RDF>
      <cc:Work
         rdf:about="">
        <dc:format>image/svg+xml</dc:format>
        <dc:type
           rdf:resource="http://purl.org/dc/dcmitype/StillImage" />
      </cc:Work>
    </rdf:RDF>
  </metadata>
  <defs
     id="defs10" />
  <sodipodi:namedview
     pagecolor="#ffffff"
     bordercolor="#666666"
     borderopacity="1"
     objecttolerance="10"
     gridtolerance="10"
     guidetolerance="10"
     inkscape:pageopacity="0"
     inkscape:pageshadow="2"
     inkscape:window-width="640"
     inkscape:window-height="480"
     id="namedview8"
     showgrid="false"
     inkscape:zoom="6.5555556"
     inkscape:cx="18"
     inkscape:cy="18"
     inkscape:window-x="0"
     inkscape:window-y="0"
     inkscape:window-maximized="0"
     inkscape:current-layer="svg2" />
  <path
     d="m 36,32 c 0,2.209 -1.791,4 -4,4 L 4,36 C 1.791,36 0,34.209 0,32 L 0,4 C 0,1.791 1.791,0 4,0 l 28,0 c 2.209,0 4,1.791 4,4 l 0,28 z"
     id="path4"
     inkscape:connector-curvature="0"
     style="fill:#3b88c3" />
  <path
     d="m 2.508,10.639 c 0,-1.2 0.768,-1.872 1.8,-1.872 0.456,0 1.2,0.36 1.512,0.792 l 7.608,10.153 0.048,0 0,-9.073 c 0,-1.2 0.768,-1.872 1.8,-1.872 1.032,0 1.8,0.672 1.8,1.872 l 0,13.633 c 0,1.2 -0.768,1.872 -1.8,1.872 -0.456,0 -1.176,-0.359 -1.512,-0.792 l -7.607,-10.033 -0.048,0 0,8.953 c 0,1.2 -0.768,1.872 -1.8,1.872 -1.032,0 -1.8,-0.672 -1.8,-1.872 l 0,-13.633 z m 29.402,5.232 c 1.512,0 2.111,0.768 2.111,2.305 0,4.632 -3.024,8.112 -7.824,8.112 -4.873,0 -8.257,-3.864 -8.257,-8.833 0,-4.992 3.36,-8.833 8.257,-8.833 3.623,0 6.6,1.704 6.6,3.384 0,1.032 -0.647,1.68 -1.488,1.68 -1.631,0 -1.967,-1.752 -5.111,-1.752 -3,0 -4.513,2.616 -4.513,5.52 0,2.929 1.464,5.521 4.513,5.521 1.896,0 4.08,-1.056 4.08,-3.792 l -2.448,0 c -0.984,0 -1.682,-0.696 -1.682,-1.681 0,-1.008 0.77,-1.632 1.682,-1.632 l 4.08,0 z"
     id="path6"
     inkscape:connector-curvature="0"
     style="fill:#ffffff" />
</svg>
