<?xml version="1.0" encoding="UTF-8" standalone="no"?>
<svg
   xmlns:dc="http://purl.org/dc/elements/1.1/"
   xmlns:cc="http://creativecommons.org/ns#"
   xmlns:rdf="http://www.w3.org/1999/02/22-rdf-syntax-ns#"
   xmlns:svg="http://www.w3.org/2000/svg"
   xmlns="http://www.w3.org/2000/svg"
   xmlns:sodipodi="http://sodipodi.sourceforge.net/DTD/sodipodi-0.dtd"
   xmlns:inkscape="http://www.inkscape.org/namespaces/inkscape"
   viewBox="0 0 36 36"
   id="svg2"
   version="1.1"
   inkscape:version="0.91 r13725"
   sodipodi:docname="1f191.svg"
   width="36"
   height="36">
  <metadata
     id="metadata12">
    <rdf:RDF>
      <cc:Work
         rdf:about="">
        <dc:format>image/svg+xml</dc:format>
        <dc:type
           rdf:resource="http://purl.org/dc/dcmitype/StillImage" />
      </cc:Work>
    </rdf:RDF>
  </metadata>
  <defs
     id="defs10" />
  <sodipodi:namedview
     pagecolor="#ffffff"
     bordercolor="#666666"
     borderopacity="1"
     objecttolerance="10"
     gridtolerance="10"
     guidetolerance="10"
     inkscape:pageopacity="0"
     inkscape:pageshadow="2"
     inkscape:window-width="640"
     inkscape:window-height="480"
     id="namedview8"
     showgrid="false"
     inkscape:zoom="6.5555556"
     inkscape:cx="18"
     inkscape:cy="18"
     inkscape:window-x="0"
     inkscape:window-y="0"
     inkscape:window-maximized="0"
     inkscape:current-layer="svg2" />
  <path
     d="m 36,32 c 0,2.209 -1.791,4 -4,4 L 4,36 C 1.791,36 0,34.209 0,32 L 0,4 C 0,1.791 1.791,0 4,0 l 28,0 c 2.209,0 4,1.791 4,4 l 0,28 z"
     id="path4"
     inkscape:connector-curvature="0"
     style="fill:#dd2e44" />
  <path
     d="m 12.81,6.552 c 2.263,0 6.667,0.744 6.667,3.473 0,1.116 -0.776,2.077 -1.923,2.077 -1.271,0 -2.139,-1.085 -4.744,-1.085 -3.845,0 -5.829,3.256 -5.829,7.038 0,3.689 2.015,6.852 5.829,6.852 2.605,0 3.658,-1.302 4.93,-1.302 1.395,0 2.046,1.395 2.046,2.107 0,2.977 -4.682,3.659 -6.976,3.659 -6.294,0 -10.666,-4.992 -10.666,-11.41 0,-6.448 4.341,-11.409 10.666,-11.409 z m 8.522,2.604 c 0,-1.55 0.992,-2.418 2.326,-2.418 1.334,0 2.326,0.868 2.326,2.418 l 0,15.564 5.518,0 c 1.582,0 2.264,1.179 2.232,2.232 C 33.674,27.977 32.867,29 31.502,29 l -7.75,0 c -1.52,0 -2.42,-0.992 -2.42,-2.543 l 0,-17.301 z"
     id="path6"
     inkscape:connector-curvature="0"
     style="fill:#ffffff" />
</svg>
