<?xml version="1.0" encoding="UTF-8" standalone="no"?>
<svg
   xmlns:dc="http://purl.org/dc/elements/1.1/"
   xmlns:cc="http://creativecommons.org/ns#"
   xmlns:rdf="http://www.w3.org/1999/02/22-rdf-syntax-ns#"
   xmlns:svg="http://www.w3.org/2000/svg"
   xmlns="http://www.w3.org/2000/svg"
   xmlns:sodipodi="http://sodipodi.sourceforge.net/DTD/sodipodi-0.dtd"
   xmlns:inkscape="http://www.inkscape.org/namespaces/inkscape"
   viewBox="0 0 36 26"
   id="svg2"
   version="1.1"
   inkscape:version="0.91 r13725"
   sodipodi:docname="1f1e6-1f1f7.svg"
   width="36"
   height="26">
  <metadata
     id="metadata24">
    <rdf:RDF>
      <cc:Work
         rdf:about="">
        <dc:format>image/svg+xml</dc:format>
        <dc:type
           rdf:resource="http://purl.org/dc/dcmitype/StillImage" />
      </cc:Work>
    </rdf:RDF>
  </metadata>
  <defs
     id="defs22" />
  <sodipodi:namedview
     pagecolor="#ffffff"
     bordercolor="#666666"
     borderopacity="1"
     objecttolerance="10"
     gridtolerance="10"
     guidetolerance="10"
     inkscape:pageopacity="0"
     inkscape:pageshadow="2"
     inkscape:window-width="640"
     inkscape:window-height="480"
     id="namedview20"
     showgrid="false"
     inkscape:zoom="6.5555556"
     inkscape:cx="18"
     inkscape:cy="13"
     inkscape:window-x="0"
     inkscape:window-y="0"
     inkscape:window-maximized="0"
     inkscape:current-layer="svg2" />
  <path
     d="m 36,22 c 0,2.209 -1.791,4 -4,4 L 4,26 C 1.791,26 0,24.209 0,22 L 0,4 C 0,1.791 1.791,0 4,0 l 28,0 c 2.209,0 4,1.791 4,4 l 0,18 z"
     id="path4"
     inkscape:connector-curvature="0"
     style="fill:#75aadb" />
  <path
     d="M 0,8 36,8 36,18 0,18 Z"
     id="path6"
     inkscape:connector-curvature="0"
     style="fill:#eeeeee" />
  <path
     d="m 18,8 0.488,2.548 1.426,-2.167 -0.525,2.54 2.146,-1.457 -1.457,2.147 2.541,-0.524 -2.167,1.425 L 23,13 l -2.548,0.488 2.167,1.426 -2.541,-0.525 1.457,2.146 -2.146,-1.457 0.525,2.541 L 18.488,15.452 18,18 l -0.488,-2.548 -1.425,2.167 0.524,-2.541 -2.147,1.457 1.457,-2.146 -2.54,0.525 2.167,-1.426 L 13,13 l 2.548,-0.488 -2.167,-1.425 2.54,0.524 -1.457,-2.147 2.147,1.457 -0.524,-2.54 1.425,2.167 z"
     id="path8"
     inkscape:connector-curvature="0"
     style="fill:#fcbf49" />
  <path
     d="m 18,9.33 0.242,1.265 0.116,0.605 0.339,-0.514 0.708,-1.076 -0.261,1.261 -0.125,0.604 0.51,-0.346 1.066,-0.723 -0.723,1.066 -0.346,0.51 0.603,-0.125 1.262,-0.26 -1.076,0.708 -0.515,0.337 0.605,0.116 1.265,0.242 -1.265,0.242 -0.605,0.116 0.514,0.339 1.076,0.708 -1.262,-0.261 -0.604,-0.125 0.346,0.51 0.723,1.065 -1.065,-0.723 -0.51,-0.346 0.125,0.604 0.261,1.262 L 18.696,15.315 18.358,14.8 18.242,15.405 18,16.67 17.758,15.405 17.642,14.8 l -0.339,0.515 -0.708,1.076 0.26,-1.262 0.125,-0.603 -0.51,0.346 -1.066,0.723 0.723,-1.066 0.346,-0.51 -0.604,0.125 -1.261,0.261 1.076,-0.708 0.514,-0.339 L 15.593,13.242 14.33,13 l 1.265,-0.242 0.605,-0.116 -0.515,-0.339 -1.076,-0.708 1.261,0.26 0.603,0.125 -0.346,-0.51 -0.724,-1.066 1.066,0.724 0.51,0.346 -0.125,-0.603 -0.26,-1.261 0.708,1.076 0.339,0.515 0.116,-0.605 L 18,9.33 M 18,8 l -0.488,2.548 -1.425,-2.167 0.524,2.541 -2.147,-1.457 1.457,2.147 -2.54,-0.524 2.167,1.425 L 13,13 l 2.548,0.488 -2.167,1.426 2.54,-0.525 -1.457,2.146 2.147,-1.457 -0.524,2.541 1.425,-2.167 L 18,18 l 0.488,-2.548 1.426,2.167 -0.525,-2.541 2.146,1.457 -1.457,-2.146 2.541,0.525 L 20.452,13.488 23,13 20.452,12.512 22.619,11.087 20.078,11.611 21.535,9.464 19.389,10.921 19.914,8.38 18.488,10.547 18,8 Z m 1.914,0.381 0.005,0 -0.005,0 z m 1.621,1.083 0.005,0 -0.005,0 z m 1.084,1.623 0.005,0 -0.005,0 z"
     id="path10"
     inkscape:connector-curvature="0"
     style="fill:#843511" />
  <circle
     cx="18"
     cy="13"
     r="2"
     id="circle12"
     style="fill:#fcbf49" />
  <path
     d="m 18,15.125 c -1.172,0 -2.125,-0.953 -2.125,-2.125 0,-1.172 0.953,-2.125 2.125,-2.125 1.172,0 2.125,0.953 2.125,2.125 0,1.172 -0.953,2.125 -2.125,2.125 z m 0,-4 c -1.034,0 -1.875,0.841 -1.875,1.875 0,1.034 0.841,1.875 1.875,1.875 1.034,0 1.875,-0.841 1.875,-1.875 0,-1.034 -0.841,-1.875 -1.875,-1.875 z"
     id="path14"
     inkscape:connector-curvature="0"
     style="fill:#843511" />
  <path
     d="m 17.801,12.774 c 0,0.155 -0.261,0.28 -0.583,0.28 -0.323,0 -0.584,-0.125 -0.584,-0.28 0,-0.155 0.261,-0.28 0.584,-0.28 0.322,0 0.583,0.125 0.583,0.28 z m 1.553,-0.024 c 0,-0.161 -0.266,-0.292 -0.594,-0.292 -0.328,0 -0.594,0.13 -0.594,0.292 0,0.162 0.266,0.292 0.594,0.292 0.329,0 0.594,-0.131 0.594,-0.292 z"
     id="path16"
     inkscape:connector-curvature="0"
     style="fill:#c16540" />
  <path
     d="m 17.463,13.874 c 0,-0.126 0.246,-0.229 0.548,-0.229 0.303,0 0.548,0.102 0.548,0.229 0,0.126 -0.246,0.229 -0.548,0.229 -0.303,0 -0.548,-0.103 -0.548,-0.229 z"
     id="path18"
     inkscape:connector-curvature="0"
     style="fill:#ed8662" />
</svg>
