<?xml version="1.0" encoding="UTF-8" standalone="no"?>
<svg
   xmlns:dc="http://purl.org/dc/elements/1.1/"
   xmlns:cc="http://creativecommons.org/ns#"
   xmlns:rdf="http://www.w3.org/1999/02/22-rdf-syntax-ns#"
   xmlns:svg="http://www.w3.org/2000/svg"
   xmlns="http://www.w3.org/2000/svg"
   xmlns:sodipodi="http://sodipodi.sourceforge.net/DTD/sodipodi-0.dtd"
   xmlns:inkscape="http://www.inkscape.org/namespaces/inkscape"
   viewBox="0 0 36 26"
   id="svg2"
   version="1.1"
   inkscape:version="0.91 r13725"
   sodipodi:docname="1f1e6-1f1f4.svg"
   width="36"
   height="26">
  <metadata
     id="metadata22">
    <rdf:RDF>
      <cc:Work
         rdf:about="">
        <dc:format>image/svg+xml</dc:format>
        <dc:type
           rdf:resource="http://purl.org/dc/dcmitype/StillImage" />
      </cc:Work>
    </rdf:RDF>
  </metadata>
  <defs
     id="defs20" />
  <sodipodi:namedview
     pagecolor="#ffffff"
     bordercolor="#666666"
     borderopacity="1"
     objecttolerance="10"
     gridtolerance="10"
     guidetolerance="10"
     inkscape:pageopacity="0"
     inkscape:pageshadow="2"
     inkscape:window-width="640"
     inkscape:window-height="480"
     id="namedview18"
     showgrid="false"
     inkscape:zoom="6.5555556"
     inkscape:cx="18"
     inkscape:cy="13"
     inkscape:window-x="0"
     inkscape:window-y="0"
     inkscape:window-maximized="0"
     inkscape:current-layer="svg2" />
  <path
     d="m 0,13 0,9 c 0,2.209 1.791,4 4,4 l 28,0 c 2.209,0 4,-1.791 4,-4 l 0,-9 -36,0 z"
     id="path4"
     inkscape:connector-curvature="0"
     style="fill:#141414" />
  <path
     d="M 36,13 36,4 C 36,1.791 34.209,0 32,0 L 4,0 C 1.791,0 0,1.791 0,4 l 0,9 36,0 z"
     id="path6"
     inkscape:connector-curvature="0"
     style="fill:#ce1b26" />
  <path
     d="m 17.452,8.646 0.602,1.221 1.348,0.196 -0.975,0.951 0.231,1.343 -1.206,-0.634 -1.206,0.634 0.23,-1.343 -0.976,-0.951 1.349,-0.196 z m -2.296,3.542 c 0.344,0.562 3.172,3.516 5.922,5.234 0.359,0.234 1.344,0.984 1.719,1.25 -0.156,0.203 -0.375,0.5 -0.609,0.75 -0.391,-0.312 -3.969,-2.516 -5.141,-3.109 -1.172,-0.594 -2.234,-1.625 -2.234,-2.609 -0.001,-0.985 0.343,-1.516 0.343,-1.516 z m 7.828,6.609 c -0.172,0.25 -0.438,0.594 -0.594,0.781 0.312,0.047 1.109,0.438 1.516,1.281 0.406,0.844 1.141,0.406 1.078,-0.047 -0.063,-0.453 -0.953,-1.437 -2,-2.015 z"
     id="path8"
     inkscape:connector-curvature="0"
     style="fill:#f9d616" />
  <circle
     cx="23.257999"
     cy="19.492001"
     r="0.18000001"
     id="circle10"
     style="fill:#292f33" />
  <circle
     cx="24.257999"
     cy="20.492001"
     r="0.18000001"
     id="circle12"
     style="fill:#292f33" />
  <path
     d="m 22.547,19.041 c -0.029,0 -0.059,-0.009 -0.084,-0.026 l -4.657,-3.172 c -0.068,-0.047 -0.086,-0.14 -0.04,-0.208 0.047,-0.069 0.141,-0.087 0.208,-0.04 l 4.656,3.172 c 0.069,0.047 0.087,0.14 0.04,0.208 -0.028,0.043 -0.075,0.066 -0.123,0.066 z"
     id="path14"
     inkscape:connector-curvature="0"
     style="fill:#292f33" />
  <path
     d="m 24.826,13.648 0.008,-1.295 -1.085,0.007 c -0.041,-0.417 -0.126,-0.82 -0.244,-1.208 l 0.972,-0.39 -0.438,-1.219 -1.046,0.416 C 22.815,9.637 22.609,9.334 22.379,9.05 L 23.078,8.252 22.084,7.421 21.459,8.131 C 21.149,7.881 20.818,7.659 20.465,7.47 L 20.919,6.503 19.706,6.046 19.264,6.981 C 18.907,6.878 18.539,6.805 18.16,6.767 l -0.138,1.347 c 2.495,0.257 4.447,2.34 4.447,4.902 0,1.509 -0.688,2.842 -1.751,3.751 l 0.553,0.382 1.365,1.016 0.531,-0.578 -0.833,-0.618 c 0.252,-0.303 0.476,-0.627 0.668,-0.974 l 1.006,0.408 0.5,-1.195 -1.001,-0.406 c 0.112,-0.369 0.196,-0.751 0.238,-1.146 l 1.081,-0.008 z m -4.93,5.12 -0.412,-0.799 -0.51,-0.243 c -0.464,0.144 -0.947,0.243 -1.458,0.243 -1.198,0 -2.282,-0.442 -3.139,-1.15 l -0.832,0.979 c 0.308,0.255 0.646,0.473 0.999,0.665 l -0.446,0.959 1.194,0.503 0.45,-0.972 c 0.346,0.104 0.701,0.176 1.069,0.219 l -0.007,1.01 1.295,-0.014 0.007,-0.961 c 0.404,-0.038 0.797,-0.114 1.175,-0.226 l 0.344,0.994 0.688,-0.203 -0.431,-0.999 0.014,-0.005 z"
     id="path16"
     inkscape:connector-curvature="0"
     style="fill:#f9d616" />
</svg>
