<?xml version="1.0" encoding="UTF-8" standalone="no"?>
<svg
   xmlns:dc="http://purl.org/dc/elements/1.1/"
   xmlns:cc="http://creativecommons.org/ns#"
   xmlns:rdf="http://www.w3.org/1999/02/22-rdf-syntax-ns#"
   xmlns:svg="http://www.w3.org/2000/svg"
   xmlns="http://www.w3.org/2000/svg"
   xmlns:sodipodi="http://sodipodi.sourceforge.net/DTD/sodipodi-0.dtd"
   xmlns:inkscape="http://www.inkscape.org/namespaces/inkscape"
   viewBox="0 0 36 26"
   id="svg2"
   version="1.1"
   inkscape:version="0.91 r13725"
   sodipodi:docname="1f1e7-1f1ee.svg"
   width="36"
   height="26">
  <metadata
     id="metadata28">
    <rdf:RDF>
      <cc:Work
         rdf:about="">
        <dc:format>image/svg+xml</dc:format>
        <dc:type
           rdf:resource="http://purl.org/dc/dcmitype/StillImage" />
      </cc:Work>
    </rdf:RDF>
  </metadata>
  <defs
     id="defs26" />
  <sodipodi:namedview
     pagecolor="#ffffff"
     bordercolor="#666666"
     borderopacity="1"
     objecttolerance="10"
     gridtolerance="10"
     guidetolerance="10"
     inkscape:pageopacity="0"
     inkscape:pageshadow="2"
     inkscape:window-width="640"
     inkscape:window-height="480"
     id="namedview24"
     showgrid="false"
     inkscape:zoom="6.5555556"
     inkscape:cx="18"
     inkscape:cy="13"
     inkscape:window-x="0"
     inkscape:window-y="0"
     inkscape:window-maximized="0"
     inkscape:current-layer="svg2" />
  <path
     d="m 36,22 c 0,2.209 -1.791,4 -4,4 L 4,26 C 1.791,26 0,24.209 0,22 L 0,4 C 0,1.791 1.791,0 4,0 l 28,0 c 2.209,0 4,1.791 4,4 l 0,18 z"
     id="path4"
     inkscape:connector-curvature="0"
     style="fill:#eeeeee" />
  <path
     d="M 13.685,8.068 C 14.835,7.04 16.347,6.41 18.01,6.41 c 1.646,0 3.145,0.617 4.291,1.626 L 33.134,0.182 C 32.772,0.075 32.397,0 32,0 L 4,0 C 3.589,0 3.2,0.08 2.826,0.195 l 10.859,7.873 z"
     id="path6"
     inkscape:connector-curvature="0"
     style="fill:#ce1126" />
  <path
     d="m 24.038,10.483 c 0.303,0.751 0.473,1.569 0.473,2.427 0,0.928 -0.198,1.809 -0.548,2.608 l 11.544,8.369 C 35.811,23.323 36,22.687 36,22 L 36,4 C 36,3.33 35.819,2.708 35.528,2.153 l -11.49,8.33 z m -11.999,4.994 c -0.339,-0.788 -0.528,-1.655 -0.528,-2.566 0,-0.842 0.165,-1.644 0.457,-2.383 L 0.456,2.182 C 0.174,2.73 0,3.342 0,4 l 0,18 c 0,0.675 0.183,1.301 0.478,1.859 l 11.561,-8.382 z"
     id="path8"
     inkscape:connector-curvature="0"
     style="fill:#1eb53a" />
  <path
     d="m 22.157,17.916 c -1.125,0.933 -2.57,1.495 -4.146,1.495 -1.593,0 -3.051,-0.575 -4.181,-1.526 L 2.881,25.822 C 3.238,25.926 3.609,26 4,26 l 28,0 c 0.377,0 0.734,-0.069 1.079,-0.166 L 22.157,17.916 Z"
     id="path10"
     inkscape:connector-curvature="0"
     style="fill:#ce1126" />
  <path
     d="m 19.077,10.266 0.317,-0.548 0.216,-0.375 -1.066,0 -0.317,-0.548 -0.216,-0.375 -0.217,0.375 -0.316,0.548 -1.067,0 0.217,0.375 0.316,0.548 -0.316,0.549 -0.217,0.375 1.067,0 0.316,0.548 0.217,0.375 0.216,-0.375 0.317,-0.548 1.066,0 -0.216,-0.375 z"
     id="path12"
     inkscape:connector-curvature="0"
     style="fill:#1eb53a" />
  <path
     d="m 19.177,9.593 -0.777,0 -0.389,-0.673 -0.389,0.673 -0.778,0 0.389,0.673 -0.389,0.674 0.778,0 0.389,0.673 0.389,-0.673 0.777,0 -0.389,-0.674 z"
     id="path14"
     inkscape:connector-curvature="0"
     style="fill:#ce1126" />
  <path
     d="m 21.928,14.805 0.317,-0.549 0.217,-0.375 -1.067,0 -0.316,-0.548 -0.217,-0.375 -0.216,0.375 -0.317,0.548 -1.066,0 0.216,0.375 0.317,0.549 -0.317,0.548 -0.216,0.375 1.066,0 0.317,0.548 0.216,0.376 0.217,-0.376 0.316,-0.548 1.067,0 -0.217,-0.375 z"
     id="path16"
     inkscape:connector-curvature="0"
     style="fill:#1eb53a" />
  <path
     d="m 20.862,13.458 -0.389,0.673 -0.777,0 0.388,0.674 -0.388,0.673 0.777,0 0.389,0.673 0.389,-0.673 0.778,0 -0.389,-0.673 0.389,-0.674 -0.778,0 z"
     id="path18"
     inkscape:connector-curvature="0"
     style="fill:#ce1126" />
  <path
     d="m 16.542,15.353 -0.316,-0.548 0.316,-0.549 0.217,-0.375 -1.066,0 -0.317,-0.548 -0.217,-0.375 -0.216,0.375 -0.317,0.548 -1.066,0 0.216,0.375 0.317,0.549 -0.317,0.548 -0.216,0.375 1.066,0 0.317,0.548 0.216,0.376 0.217,-0.376 0.317,-0.548 1.066,0 z"
     id="path20"
     inkscape:connector-curvature="0"
     style="fill:#1eb53a" />
  <path
     d="m 16.326,14.131 -0.778,0 -0.389,-0.673 -0.388,0.673 -0.778,0 0.389,0.674 -0.389,0.673 0.778,0 0.388,0.673 0.389,-0.673 0.778,0 -0.389,-0.673 z"
     id="path22"
     inkscape:connector-curvature="0"
     style="fill:#ce1126" />
</svg>
