<?xml version="1.0" encoding="UTF-8" standalone="no"?>
<svg
   xmlns:dc="http://purl.org/dc/elements/1.1/"
   xmlns:cc="http://creativecommons.org/ns#"
   xmlns:rdf="http://www.w3.org/1999/02/22-rdf-syntax-ns#"
   xmlns:svg="http://www.w3.org/2000/svg"
   xmlns="http://www.w3.org/2000/svg"
   xmlns:sodipodi="http://sodipodi.sourceforge.net/DTD/sodipodi-0.dtd"
   xmlns:inkscape="http://www.inkscape.org/namespaces/inkscape"
   viewBox="0 0 36 26"
   id="svg2"
   version="1.1"
   inkscape:version="0.91 r13725"
   sodipodi:docname="1f1e8-1f1e8.svg"
   width="36"
   height="26">
  <metadata
     id="metadata16">
    <rdf:RDF>
      <cc:Work
         rdf:about="">
        <dc:format>image/svg+xml</dc:format>
        <dc:type
           rdf:resource="http://purl.org/dc/dcmitype/StillImage" />
      </cc:Work>
    </rdf:RDF>
  </metadata>
  <defs
     id="defs14" />
  <sodipodi:namedview
     pagecolor="#ffffff"
     bordercolor="#666666"
     borderopacity="1"
     objecttolerance="10"
     gridtolerance="10"
     guidetolerance="10"
     inkscape:pageopacity="0"
     inkscape:pageshadow="2"
     inkscape:window-width="640"
     inkscape:window-height="480"
     id="namedview12"
     showgrid="false"
     inkscape:zoom="6.5555556"
     inkscape:cx="18"
     inkscape:cy="13"
     inkscape:window-x="0"
     inkscape:window-y="0"
     inkscape:window-maximized="0"
     inkscape:current-layer="svg2" />
  <path
     d="m 36,22 c 0,2.209 -1.791,4 -4,4 L 4,26 C 1.791,26 0,24.209 0,22 L 0,4 C 0,1.791 1.791,0 4,0 l 28,0 c 2.209,0 4,1.791 4,4 l 0,18 z"
     id="path4"
     inkscape:connector-curvature="0"
     style="fill:#008000" />
  <path
     d="m 30.529,14.661 0.17,0.583 0.587,0 -0.464,0.358 0.171,0.567 -0.464,-0.357 -0.464,0.34 0.17,-0.55 -0.464,-0.358 0.573,0 z M 28.998,8.157 28.319,8.784 28.387,7.863 27.473,7.724 28.235,7.201 27.775,6.4 l 0.884,0.27 0.339,-0.859 0.339,0.859 0.884,-0.27 -0.46,0.801 0.761,0.522 -0.913,0.14 0.068,0.921 z m -3.623,5.313 -0.679,0.627 0.068,-0.922 -0.914,-0.139 0.762,-0.522 -0.46,-0.802 0.884,0.271 0.339,-0.859 0.339,0.859 0.884,-0.271 -0.46,0.802 0.761,0.522 -0.913,0.139 0.068,0.922 z m 7.11,-0.439 -0.678,0.627 0.067,-0.922 -0.914,-0.139 0.763,-0.522 -0.46,-0.802 0.883,0.271 0.339,-0.859 0.339,0.859 0.884,-0.271 -0.46,0.802 0.762,0.522 -0.913,0.139 0.067,0.922 z m -3.547,7.74 -0.678,0.627 0.067,-0.921 -0.914,-0.139 0.763,-0.523 -0.46,-0.801 0.884,0.27 0.338,-0.859 0.339,0.859 0.884,-0.27 -0.46,0.801 0.762,0.522 -0.913,0.14 0.067,0.921 z M 20.365,16.94 c -2.175,0 -3.94,-1.766 -3.94,-3.941 0,-2.177 1.765,-3.94 3.94,-3.94 0.828,0 1.594,0.258 2.228,0.695 -0.905,-1.039 -2.235,-1.699 -3.724,-1.699 -2.731,0 -4.944,2.214 -4.944,4.945 0,2.73 2.213,4.945 4.944,4.945 1.488,0 2.819,-0.66 3.727,-1.7 -0.635,0.437 -1.403,0.695 -2.231,0.695 z M 11.973,7 c 0,2.809 -2.276,5.086 -5.085,5.086 -2.809,0 -5.087,-2.277 -5.087,-5.086 0,-2.809 2.277,-5.086 5.086,-5.086 2.809,0 5.086,2.277 5.086,5.086 z"
     id="path6"
     inkscape:connector-curvature="0"
     style="fill:#ffe000" />
  <path
     d="M 7.144,11 6.01,11 c 0,0 0.372,-0.352 0.567,-0.67 C 6.772,10.011 7.55,8.318 7.462,6.773 7.375,5.228 7.64,5.486 7.729,6.408 7.818,7.329 7.729,9.22 7.57,9.77 7.41,10.319 7.234,10.669 7.464,10.74 7.693,10.811 7.764,11 7.764,11 l -0.62,0 z"
     id="path8"
     inkscape:connector-curvature="0"
     style="fill:#802000" />
  <path
     d="m 5.177,3.919 0.691,0 L 7.286,5.267 6.807,4.398 7.243,4.127 7.374,3.052 8.561,2.945 8.402,3.548 9.022,3.867 8.331,4.876 9.837,4.735 9.554,5.621 l 0.815,0 0.337,1.116 -1.985,-0.159 0.992,0.744 0,1.134 L 7.622,6.489 7.445,7.322 7.321,8.155 6.863,8.292 6.754,7.659 6.275,8.456 l -0.637,0 0.62,-2.248 -3.19,0.6 L 3.919,5.781 5.602,5.443 4.114,4.664 6.311,5.054 4.043,3.919 Z"
     id="path10"
     inkscape:connector-curvature="0"
     style="fill:#008000" />
</svg>
