<?xml version="1.0" encoding="UTF-8" standalone="no"?>
<svg
   xmlns:dc="http://purl.org/dc/elements/1.1/"
   xmlns:cc="http://creativecommons.org/ns#"
   xmlns:rdf="http://www.w3.org/1999/02/22-rdf-syntax-ns#"
   xmlns:svg="http://www.w3.org/2000/svg"
   xmlns="http://www.w3.org/2000/svg"
   xmlns:sodipodi="http://sodipodi.sourceforge.net/DTD/sodipodi-0.dtd"
   xmlns:inkscape="http://www.inkscape.org/namespaces/inkscape"
   viewBox="0 0 36 26"
   id="svg2"
   version="1.1"
   inkscape:version="0.91 r13725"
   sodipodi:docname="1f1ee-1f1f7.svg"
   width="36"
   height="26">
  <metadata
     id="metadata24">
    <rdf:RDF>
      <cc:Work
         rdf:about="">
        <dc:format>image/svg+xml</dc:format>
        <dc:type
           rdf:resource="http://purl.org/dc/dcmitype/StillImage" />
      </cc:Work>
    </rdf:RDF>
  </metadata>
  <defs
     id="defs22" />
  <sodipodi:namedview
     pagecolor="#ffffff"
     bordercolor="#666666"
     borderopacity="1"
     objecttolerance="10"
     gridtolerance="10"
     guidetolerance="10"
     inkscape:pageopacity="0"
     inkscape:pageshadow="2"
     inkscape:window-width="640"
     inkscape:window-height="480"
     id="namedview20"
     showgrid="false"
     inkscape:zoom="6.5555556"
     inkscape:cx="18"
     inkscape:cy="13"
     inkscape:window-x="0"
     inkscape:window-y="0"
     inkscape:window-maximized="0"
     inkscape:current-layer="svg2" />
  <path
     d="m 0,22 c 0,2.209 1.791,4 4,4 l 28,0 c 2.209,0 4,-1.791 4,-4 l 0,-4 -36,0 0,4 z"
     id="path4"
     inkscape:connector-curvature="0"
     style="fill:#da0001" />
  <path
     d="M 0,8 36,8 36,18 0,18 Z"
     id="path6"
     inkscape:connector-curvature="0"
     style="fill:#eeeeee" />
  <path
     d="M 36,8 36,4 C 36,1.791 34.209,0 32,0 L 4,0 C 1.791,0 0,1.791 0,4 l 0,4 36,0 z"
     id="path8"
     inkscape:connector-curvature="0"
     style="fill:#239f40" />
  <path
     d="m 0,18 36,0 0,1 -36,0 z"
     id="path10"
     inkscape:connector-curvature="0"
     style="fill:#e96667" />
  <g
     id="g12"
     style="fill:#be1931"
     transform="translate(0,-5)">
    <path
       d="m 19.465,14.969 c 0.957,0.49 3.038,2.953 0.798,5.731 1.391,-0.308 3.162,-4.408 -0.798,-5.731 z m -2.937,0 c -3.959,1.323 -2.189,5.423 -0.798,5.731 -2.24,-2.778 -0.159,-5.241 0.798,-5.731 z m 1.453,-0.143 c 0.04,0.197 1.101,0.436 0.974,-0.573 -0.168,0.408 -0.654,0.396 -0.968,0.207 -0.432,0.241 -0.835,0.182 -0.988,-0.227 -0.148,0.754 0.587,0.975 0.982,0.593 z"
       id="path14"
       inkscape:connector-curvature="0" />
    <path
       d="m 20.538,17.904 c -0.015,-1.248 -0.677,-2.352 -1.329,-2.799 0.43,0.527 1.752,3.436 -0.785,5.351 l 0.047,-5.097 -0.475,-0.418 -0.475,0.398 0.08,5.146 -0.018,-0.015 c -2.563,-1.914 -1.233,-4.837 -0.802,-5.365 -0.652,0.447 -1.315,1.551 -1.329,2.799 -0.013,1.071 0.477,2.243 1.834,3.205 -0.558,0.149 -1.162,0.208 -1.678,0.201 0.464,0.253 1.34,0.192 2.007,0.131 l 0.001,0.068 0.398,0.437 0.4,-0.455 0,-0.052 c 0.672,0.062 1.567,0.129 2.039,-0.128 -0.532,0.008 -1.159,-0.053 -1.732,-0.213 1.344,-0.961 1.83,-2.127 1.817,-3.194 z"
       id="path16"
       inkscape:connector-curvature="0" />
  </g>
  <path
     d="M 0,7 36,7 36,8 0,8 Z"
     id="path18"
     inkscape:connector-curvature="0"
     style="fill:#7bc58c" />
</svg>
