<?xml version="1.0" encoding="UTF-8" standalone="no"?>
<svg
   xmlns:dc="http://purl.org/dc/elements/1.1/"
   xmlns:cc="http://creativecommons.org/ns#"
   xmlns:rdf="http://www.w3.org/1999/02/22-rdf-syntax-ns#"
   xmlns:svg="http://www.w3.org/2000/svg"
   xmlns="http://www.w3.org/2000/svg"
   xmlns:sodipodi="http://sodipodi.sourceforge.net/DTD/sodipodi-0.dtd"
   xmlns:inkscape="http://www.inkscape.org/namespaces/inkscape"
   viewBox="0 0 36 26"
   id="svg2"
   version="1.1"
   inkscape:version="0.91 r13725"
   sodipodi:docname="1f1ed-1f1f9.svg"
   width="36"
   height="26">
  <metadata
     id="metadata44">
    <rdf:RDF>
      <cc:Work
         rdf:about="">
        <dc:format>image/svg+xml</dc:format>
        <dc:type
           rdf:resource="http://purl.org/dc/dcmitype/StillImage" />
      </cc:Work>
    </rdf:RDF>
  </metadata>
  <defs
     id="defs42" />
  <sodipodi:namedview
     pagecolor="#ffffff"
     bordercolor="#666666"
     borderopacity="1"
     objecttolerance="10"
     gridtolerance="10"
     guidetolerance="10"
     inkscape:pageopacity="0"
     inkscape:pageshadow="2"
     inkscape:window-width="640"
     inkscape:window-height="480"
     id="namedview40"
     showgrid="false"
     inkscape:zoom="6.5555556"
     inkscape:cx="18"
     inkscape:cy="13"
     inkscape:window-x="0"
     inkscape:window-y="0"
     inkscape:window-maximized="0"
     inkscape:current-layer="svg2" />
  <path
     d="m 36,22 c 0,2.209 -1.791,4 -4,4 L 4,26 C 1.791,26 0,24.209 0,22 L 0,4 C 0,1.791 1.791,0 4,0 l 28,0 c 2.209,0 4,1.791 4,4 l 0,18 z"
     id="path4"
     inkscape:connector-curvature="0"
     style="fill:#d21c33" />
  <path
     d="M 32,0 4,0 C 1.791,0 0,1.791 0,4 l 0,9 36,0 0,-9 C 36,1.791 34.209,0 32,0 Z"
     id="path6"
     inkscape:connector-curvature="0"
     style="fill:#00209f" />
  <path
     d="m 12,8.041 11.906,0 0,9.959 L 12,18 Z"
     id="path8"
     inkscape:connector-curvature="0"
     style="fill:#ffffff" />
  <path
     d="m 23.906,16.622 c -1.499,-0.761 -3.529,-1.237 -5.901,-1.237 -2.37,0 -4.506,0.476 -6.005,1.237 l 0,1.378 11.906,0 0,-1.378 z"
     id="path10"
     inkscape:connector-curvature="0"
     style="fill:#006a16" />
  <path
     d="m 15.523,11.72 1.165,1.311 -0.146,0.822 -0.252,-0.143 -0.227,0.858 -0.059,0 -0.107,0.453 -1.979,-0.167 0.048,-1.412 0.477,0.137 0.058,-1.318 0.693,0.471 0.035,-0.798 z"
     id="path12"
     inkscape:connector-curvature="0"
     style="fill:#00209f" />
  <path
     d="m 18.005,14.282 0,2.002 -1.5,-0.441 -0.382,-0.56 -0.262,-0.191 0.143,-0.506 0.226,-0.876 0.346,0 0.085,-0.739 z m -4.313,-0.906 c 0.179,-0.214 0.513,-0.071 0.524,0 0.012,0.072 -0.131,0.059 -0.262,0.179 -0.131,0.119 -0.095,0.488 -0.322,0.441 -0.226,-0.048 0.06,-0.62 0.06,-0.62 z m 0.809,-1.115 c 0.231,-0.156 0.513,0.074 0.504,0.146 -0.009,0.072 -0.143,0.021 -0.301,0.099 -0.159,0.078 -0.227,0.443 -0.432,0.334 -0.204,-0.109 0.229,-0.579 0.229,-0.579 z m 0.954,-0.682 c 0.249,-0.125 0.499,0.14 0.481,0.21 -0.018,0.07 -0.193,-0.054 -0.36,0.003 -0.168,0.057 -0.234,0.466 -0.423,0.331 -0.189,-0.134 0.302,-0.544 0.302,-0.544 z"
     id="path14"
     inkscape:connector-curvature="0"
     style="fill:#d21c33" />
  <path
     d="m 14.945,11.023 0.773,0.471 -0.085,0.226 2.087,2.311 0,0.179 -2.169,-2.431 -0.283,-0.047 z m -1.11,0.697 c 0,0 0.775,0.298 0.775,0.334 0,0.036 0.142,0.274 0.142,0.274 l 2.824,2.288 -0.083,0.108 -2.801,-2.288 -0.405,-0.179 -0.452,-0.537 z m -0.822,1.174 c 0,0 0.894,0.125 0.906,0.161 0.012,0.036 0.072,0.239 0.072,0.239 l 3.276,1.787 -0.143,0.084 -3.193,-1.765 -0.369,-0.024 -0.549,-0.482 z"
     id="path16"
     inkscape:connector-curvature="0"
     style="fill:#f1b517" />
  <path
     d="m 13.788,14.592 3.367,0.411 -0.319,0.384 -0.499,0.05 0.373,0.501 -0.18,0.203 -0.501,-0.548 c 0,0 -0.155,0.798 -0.834,0.798 -0.679,0 -0.895,-0.679 -0.895,-0.906 0,-0.227 0.06,-0.345 0.06,-0.345 l -0.644,0 0.072,-0.548 z"
     id="path18"
     inkscape:connector-curvature="0"
     style="fill:#f1b517" />
  <path
     d="m 20.445,11.648 -1.217,1.443 0.05,0.833 0.313,-0.214 0.226,0.858 0.06,0 0.107,0.453 1.978,-0.167 -0.048,-1.412 -0.476,0.137 -0.059,-1.318 -0.692,0.471 -0.037,-0.798 z"
     id="path20"
     inkscape:connector-curvature="0"
     style="fill:#00209f" />
  <path
     d="m 18.005,14.282 0,2.002 1.436,-0.441 0.349,-0.56 0.246,-0.191 -0.151,-0.506 -0.235,-0.876 -0.266,0.198 -0.092,-0.817 z m 4.183,-0.906 c -0.18,-0.214 -0.514,-0.071 -0.525,0 -0.012,0.072 0.132,0.059 0.263,0.179 0.131,0.119 0.096,0.488 0.322,0.441 0.226,-0.048 -0.06,-0.62 -0.06,-0.62 z m -0.809,-1.115 c -0.231,-0.156 -0.512,0.074 -0.504,0.146 0.009,0.072 0.143,0.021 0.302,0.099 0.159,0.078 0.226,0.443 0.432,0.334 0.203,-0.109 -0.23,-0.579 -0.23,-0.579 z m -0.953,-0.682 c -0.25,-0.125 -0.498,0.14 -0.481,0.21 0.018,0.07 0.192,-0.054 0.359,0.003 0.168,0.057 0.235,0.466 0.424,0.331 0.189,-0.134 -0.302,-0.544 -0.302,-0.544 z"
     id="path22"
     inkscape:connector-curvature="0"
     style="fill:#d21c33" />
  <path
     d="m 20.935,11.023 -0.772,0.471 0.149,0.226 -2.02,2.311 0,0.179 2.103,-2.431 0.251,-0.047 z m 1.11,0.697 c 0,0 -0.774,0.298 -0.774,0.334 0,0.036 -0.143,0.274 -0.143,0.274 l -2.824,2.288 0.084,0.108 2.8,-2.288 0.404,-0.179 0.453,-0.537 z m 0.822,1.174 c 0,0 -0.894,0.125 -0.905,0.161 -0.013,0.036 -0.071,0.239 -0.071,0.239 l -3.277,1.787 0.143,0.084 3.193,-1.764 0.37,-0.024 0.547,-0.483 z"
     id="path24"
     inkscape:connector-curvature="0"
     style="fill:#f1b517" />
  <path
     d="m 22.093,14.592 -3.366,0.411 0.319,0.384 0.498,0.05 -0.373,0.501 0.181,0.203 0.501,-0.548 c 0,0 0.155,0.798 0.834,0.798 0.68,0 0.894,-0.679 0.894,-0.905 0,-0.227 -0.059,-0.345 -0.059,-0.345 l 0.643,0 -0.072,-0.549 z"
     id="path26"
     inkscape:connector-curvature="0"
     style="fill:#f1b517" />
  <path
     d="m 22.86,17.142 c 0,0 -0.59,0.021 -1.209,-0.113 -0.619,-0.135 -0.726,-0.377 -0.995,-0.323 -0.269,0.054 -0.893,0.285 -1.404,0.351 -0.512,0.064 -1.247,0.086 -1.247,0.086 0,0 -0.676,-0.021 -1.188,-0.086 -0.512,-0.066 -1.077,-0.297 -1.347,-0.351 -0.269,-0.054 -0.377,0.189 -0.997,0.323 -0.619,0.135 -1.212,0.113 -1.212,0.113 l 0.162,0.286 -0.162,0.14 c 1.401,0.026 2.048,-0.426 2.048,-0.426 0.7,0.464 2.696,0.477 2.696,0.477 0,0 2.056,-0.013 2.756,-0.477 0,0 0.676,0.452 2.076,0.426 l -0.148,-0.14 0.171,-0.286 z"
     id="path28"
     inkscape:connector-curvature="0"
     style="fill:#ffffff" />
  <path
     d="m 18.292,12.894 c 0,1.49 -0.13,2.699 -0.292,2.699 -0.161,0 -0.292,-1.209 -0.292,-2.699 0,-1.491 0.131,-2.699 0.292,-2.699 0.162,0 0.292,1.208 0.292,2.699 z"
     id="path30"
     inkscape:connector-curvature="0"
     style="fill:#f1b517" />
  <path
     d="m 17.434,15.426 1.144,0 0,1.145 -1.144,0 z"
     id="path32"
     inkscape:connector-curvature="0"
     style="fill:#d21c33" />
  <path
     d="m 18.649,15.354 c 0,0.132 -0.274,0.238 -0.614,0.238 -0.339,0 -0.614,-0.107 -0.614,-0.238 0,-0.131 0.275,-0.238 0.614,-0.238 0.34,0 0.614,0.107 0.614,0.238 z"
     id="path34"
     inkscape:connector-curvature="0"
     style="fill:#ffffff" />
  <path
     d="m 18.649,16.498 c 0,0.132 -0.274,0.238 -0.614,0.238 -0.339,0 -0.614,-0.106 -0.614,-0.238 0,-0.132 0.275,-0.238 0.614,-0.238 0.34,0 0.614,0.106 0.614,0.238 z"
     id="path36"
     inkscape:connector-curvature="0"
     style="fill:#d21c33" />
  <path
     d="M 20.514,9.694 C 20.285,9.42 19.696,9.432 19.296,9.42 18.897,9.408 18.695,9.551 18.874,9.361 19.053,9.171 19.329,9.219 19.62,9.206 19.912,9.194 19.963,9.159 19.784,9.064 19.605,8.969 19.291,8.851 18.874,8.958 c -0.409,0.105 -0.667,0.36 -0.885,0.404 -0.218,-0.043 -0.491,-0.299 -0.9,-0.404 -0.417,-0.107 -0.74,0.01 -0.918,0.106 -0.179,0.095 -0.131,0.13 0.161,0.142 0.292,0.012 0.565,-0.036 0.744,0.155 0.179,0.191 -0.024,0.047 -0.423,0.059 -0.399,0.012 -0.989,0 -1.218,0.274 -0.229,0.274 0.199,0.095 0.426,0.059 0.226,-0.036 0.56,-0.047 0.56,-0.047 0,0 -0.56,0.166 -0.715,0.381 -0.155,0.214 0.047,0.405 0.334,0.238 0.286,-0.167 0.727,-0.393 0.965,-0.417 0,0 -0.62,0.258 -0.894,0.481 -0.274,0.223 0.013,0.199 0.221,0.199 0.208,0 0.422,-0.083 0.601,-0.215 0.179,-0.131 -0.118,0.262 -0.167,0.513 -0.047,0.25 0.322,0.191 0.388,0 0.065,-0.191 0.279,-0.572 0.279,-0.572 0,0 -0.094,0.548 -0.082,0.918 0.012,0.37 0.134,0.393 0.229,0.226 0.095,-0.167 0.425,0.099 0.425,0.099 0,0 0.3,-0.266 0.395,-0.099 0.096,0.167 0.186,0.143 0.198,-0.226 0.012,-0.369 -0.083,-0.918 -0.083,-0.918 0,0 0.214,0.381 0.28,0.572 0.065,0.191 0.435,0.25 0.387,0 -0.047,-0.25 -0.345,-0.644 -0.166,-0.513 0.179,0.131 0.393,0.215 0.601,0.215 0.209,0 0.495,0.024 0.222,-0.199 -0.274,-0.223 -0.894,-0.481 -0.894,-0.481 0.239,0.024 0.679,0.25 0.965,0.417 0.286,0.167 0.488,-0.024 0.333,-0.238 -0.155,-0.215 -0.715,-0.381 -0.715,-0.381 0,0 0.334,0.012 0.561,0.047 0.226,0.037 0.654,0.215 0.425,-0.059 z"
     id="path38"
     inkscape:connector-curvature="0"
     style="fill:#006a16" />
</svg>
