<?xml version="1.0" encoding="UTF-8" standalone="no"?>
<svg
   xmlns:dc="http://purl.org/dc/elements/1.1/"
   xmlns:cc="http://creativecommons.org/ns#"
   xmlns:rdf="http://www.w3.org/1999/02/22-rdf-syntax-ns#"
   xmlns:svg="http://www.w3.org/2000/svg"
   xmlns="http://www.w3.org/2000/svg"
   xmlns:sodipodi="http://sodipodi.sourceforge.net/DTD/sodipodi-0.dtd"
   xmlns:inkscape="http://www.inkscape.org/namespaces/inkscape"
   viewBox="0 0 36 26"
   id="svg2"
   version="1.1"
   inkscape:version="0.91 r13725"
   sodipodi:docname="1f1ea-1f1f7.svg"
   width="36"
   height="26">
  <metadata
     id="metadata16">
    <rdf:RDF>
      <cc:Work
         rdf:about="">
        <dc:format>image/svg+xml</dc:format>
        <dc:type
           rdf:resource="http://purl.org/dc/dcmitype/StillImage" />
      </cc:Work>
    </rdf:RDF>
  </metadata>
  <defs
     id="defs14" />
  <sodipodi:namedview
     pagecolor="#ffffff"
     bordercolor="#666666"
     borderopacity="1"
     objecttolerance="10"
     gridtolerance="10"
     guidetolerance="10"
     inkscape:pageopacity="0"
     inkscape:pageshadow="2"
     inkscape:window-width="640"
     inkscape:window-height="480"
     id="namedview12"
     showgrid="false"
     inkscape:zoom="6.5555556"
     inkscape:cx="18"
     inkscape:cy="13"
     inkscape:window-x="0"
     inkscape:window-y="0"
     inkscape:window-maximized="0"
     inkscape:current-layer="svg2" />
  <path
     d="M 32,0 4,0 C 2.815,0 1.762,0.525 1.03,1.343 L 1.03,13 36,13 36,4 C 36,1.791 34.209,0 32,0 Z"
     id="path4"
     inkscape:connector-curvature="0"
     style="fill:#3e9a00" />
  <path
     d="M 32,26 4,26 C 2.815,26 1.762,25.475 1.03,24.657 L 1.03,13 36,13 l 0,9 c 0,2.209 -1.791,4 -4,4 z"
     id="path6"
     inkscape:connector-curvature="0"
     style="fill:#4289de" />
  <path
     d="M 1.03,1.343 C 0.397,2.051 0,2.976 0,4 l 0,18 c 0,1.024 0.397,1.949 1.03,2.657 L 36,13 1.03,1.343 Z"
     id="path8"
     inkscape:connector-curvature="0"
     style="fill:#eb0438" />
  <path
     d="m 11.688,19.312 c -0.457,0.188 -2,0.312 -2.375,0 -0.375,-0.312 0.75,-1 0.75,-1 0,0 -1.125,0.062 -2.469,-0.406 C 6.25,17.438 5.625,16.594 5,16.594 c 0.406,-0.406 1.781,0.281 1.781,0.281 0,0 -2.469,-1.156 -2.594,-2.844 0.781,1.094 1.656,1.344 1.656,1.344 0,0 -1.969,-1.406 -1.312,-3.469 C 4.688,12.438 5.094,13 5.094,13 c 0,0 -0.75,-2.312 0.094,-3.625 0.281,0.25 0.375,1.844 0.375,1.844 0,0 -0.125,-1.531 0.094,-2.375 C 5.875,8 6.531,7.688 6.531,7.688 L 6.25,9.25 c 0,0 0.562,-0.438 0.781,-0.812 0.219,-0.374 1.25,-1.75 2,-1.844 0.094,0.219 -0.594,0.875 -0.594,0.875 0,0 1.844,-0.938 2.688,-0.531 -0.5,0.469 -2.062,0.656 -2.062,0.656 0,0 0.812,0.375 1.188,0.094 C 10.157,7.969 9.532,8.188 9.095,8.094 8.656,8 8.25,8.375 8.25,8.375 c 0,0 0.629,0.265 0.906,0 -0.188,0.594 -1.125,0.469 -1.438,0.469 -0.313,0 -1.438,0.75 -1.438,1.281 0.5,-0.156 0.875,-0.781 0.875,-0.781 0,0 0.345,0.906 -0.561,1.312 -0.906,0.406 -0.844,1.188 -0.844,1.188 0,0 0.502,-0.184 0.562,-0.625 0.531,0.25 -0.156,0.688 -0.312,0.938 -0.156,0.25 -0.188,1.375 -0.188,1.375 0,0 0.281,-0.969 0.344,-1.094 C 6.219,12.313 6.688,13.312 6.5,13.75 6.312,14.188 6.125,15.094 6.406,15.594 6.594,15.469 6.469,14.5 6.469,14.5 c 0,0 0.656,0.594 0.688,1.188 0.188,0.156 0.188,-0.375 0.188,-0.375 0,0 0.438,0.906 0.594,1.406 0.156,0.5 1.062,0.938 1.5,0.906 0.438,-0.031 0.969,0.281 0.969,0.281 0,0 -0.188,-1.094 -0.188,-1.562 0,-0.469 0.062,-0.969 0.062,-0.969 0,0 -1.875,0.906 -1.938,-0.844 0.469,0.531 1.062,0.344 1.062,0.344 0,0 -1.156,-0.219 -1.094,-1.25 0.375,0.469 0.938,0.469 0.938,0.469 0,0 -0.625,-0.402 -0.469,-1.029 0.719,0.123 1.125,1.217 1.125,1.217 0,0 0.062,-0.902 0.031,-1.217 -0.031,-0.315 -0.062,-0.908 -0.062,-0.908 0,0 -1.156,0.5 -1.344,-1.031 0.312,0.406 0.656,0.25 0.656,0.25 0,0 -0.656,-0.5 -0.375,-1.438 0.219,0.625 0.719,0.875 0.719,0.875 0,0 -0.219,-0.5 -0.219,-0.781 0.438,0 0.906,0.438 0.812,1.406 0.594,-0.594 0.5,-1.406 0.375,-1.656 -0.531,0.188 -1,-0.5 -1,-0.5 0,0 0.656,0.25 0.781,-0.219 C 9.499,9.282 9.311,8.657 9.311,8.657 c 0,0 0.688,-0.25 1.031,0 0.25,-0.188 0.094,-0.594 0.094,-0.594 0,0 0.969,0.344 0.312,1.188 0.125,0.406 0.125,1.031 0.125,1.031 0,0 0.312,-0.969 1.094,-1.031 -0.469,0.438 -0.281,0.844 -0.281,0.844 0,0 0.564,-0.095 0.626,-0.439 0.719,0.594 -0.688,1.312 -0.688,1.312 0,0 0.406,0.156 0.75,-0.281 0.438,0.719 -0.688,0.906 -1.125,0.75 -0.438,-0.156 -0.688,-0.188 -0.781,0.094 -0.094,0.281 -0.219,1.562 -0.188,1.469 0.031,-0.094 0.252,-0.93 0.5,-1.281 -0.031,0.469 0.125,0.906 0.125,0.906 0,0 1,0.031 0.75,-0.906 0.969,-0.062 -0.188,1.346 -0.188,1.346 0,0 0.472,0.377 1.048,0 0.202,0.873 -0.767,0.685 -1.111,0.685 -0.344,0 -1.188,-0.062 -1.062,0.531 0.127,0.594 0.439,1.719 0.439,1.719 0,0 0.094,-0.688 0.375,-1.188 0.281,-0.5 0.656,-0.656 0.5,0.125 0.406,-0.062 0.719,-0.75 0.719,-0.75 0,0 0.469,0.844 -0.531,1.438 0.219,0.219 0.701,-0.375 0.701,-0.375 0,0 0.112,0.875 -0.638,1.125 -0.75,0.25 -1.031,0.094 -1.094,0.562 -0.062,0.469 0,0.844 0,0.844 0,0 0.375,0.062 0.969,-0.312 0.594,-0.375 1.062,-0.031 1.438,-0.438 0.375,-0.406 0.438,-1.531 1.062,-1.938 0.031,0.406 0,0.812 0,0.812 0,0 0.469,-0.312 0.469,-0.781 0,-0.469 0.094,-0.719 0.25,-0.906 0.156,-0.188 -0.188,-0.621 -0.219,-1.154 -0.031,-0.533 0.259,-0.783 0.259,-0.783 0,0 0.178,1.188 0.585,1.594 0.312,-1 -0.25,-1.469 -0.375,-2.031 -0.125,-0.562 0.219,-0.594 -0.375,-1 -0.594,-0.406 -0.938,-1 -0.719,-1.656 0.406,0.906 0.938,0.969 0.938,0.969 0,0 -0.562,-1.406 -0.875,-1.312 -0.312,0.094 -1.094,0.469 -1.656,-0.094 0.781,0.031 0.906,-0.125 0.906,-0.125 0,0 -0.188,-0.594 -0.906,-0.375 -0.719,0.219 -1.625,-0.187 -1.906,-0.562 0.531,0.156 0.688,0.062 0.688,0.062 L 10.815,7.407 c 0,0 0.438,0.094 0.75,0 0.312,-0.094 0.406,-0.312 0.812,0.031 0.406,0.344 1,0.688 1,0.688 0,0 -1.031,-0.688 -0.969,-1.531 1.281,0.375 1.625,1.531 1.938,1.719 0.313,0.188 0.81,0.686 0.966,1.186 0.156,-0.594 -0.469,-1.625 -0.469,-1.625 0,0 1.094,0.094 1.156,2.781 0.281,-0.188 0,-1.531 0,-1.531 0,0 1,0.5 0.75,1.906 -0.25,1.406 -0.656,2.033 -0.656,2.033 0,0 0.611,-0.283 0.696,-0.971 0.71,0.688 0.147,1.812 -1.009,3.281 1.323,-0.625 1.323,-1.656 1.323,-1.656 0,0 0.271,1.375 -0.885,2.188 -1.156,0.812 -1.688,0.938 -1.688,0.938 0,0 0.781,0.062 1.156,0.156 -0.188,1.062 -3.844,1.219 -4.531,1.312 0.845,0.5 0.811,0.886 0.533,1 z"
     id="path10"
     inkscape:connector-curvature="0"
     style="fill:#ffc827" />
</svg>
