<?xml version="1.0" encoding="UTF-8" standalone="no"?>
<svg
   xmlns:dc="http://purl.org/dc/elements/1.1/"
   xmlns:cc="http://creativecommons.org/ns#"
   xmlns:rdf="http://www.w3.org/1999/02/22-rdf-syntax-ns#"
   xmlns:svg="http://www.w3.org/2000/svg"
   xmlns="http://www.w3.org/2000/svg"
   xmlns:sodipodi="http://sodipodi.sourceforge.net/DTD/sodipodi-0.dtd"
   xmlns:inkscape="http://www.inkscape.org/namespaces/inkscape"
   viewBox="0 0 36 26"
   id="svg2"
   version="1.1"
   inkscape:version="0.91 r13725"
   sodipodi:docname="1f1ec-1f1eb.svg"
   width="36"
   height="26">
  <metadata
     id="metadata14">
    <rdf:RDF>
      <cc:Work
         rdf:about="">
        <dc:format>image/svg+xml</dc:format>
        <dc:type
           rdf:resource="http://purl.org/dc/dcmitype/StillImage" />
      </cc:Work>
    </rdf:RDF>
  </metadata>
  <defs
     id="defs12" />
  <sodipodi:namedview
     pagecolor="#ffffff"
     bordercolor="#666666"
     borderopacity="1"
     objecttolerance="10"
     gridtolerance="10"
     guidetolerance="10"
     inkscape:pageopacity="0"
     inkscape:pageshadow="2"
     inkscape:window-width="640"
     inkscape:window-height="480"
     id="namedview10"
     showgrid="false"
     inkscape:zoom="6.5555556"
     inkscape:cx="18"
     inkscape:cy="13"
     inkscape:window-x="0"
     inkscape:window-y="0"
     inkscape:window-maximized="0"
     inkscape:current-layer="svg2" />
  <path
     d="M 32,0 4,0 C 2.994,0 2.085,0.384 1.382,0.998 l 14.846,10.722 0.828,0 0.944,-2.906 0.944,2.906 3.056,0 -2.472,1.796 0.249,0.767 14.841,10.718 C 35.458,24.269 36,23.203 36,22 L 36,4 C 36,1.791 34.209,0 32,0 Z"
     id="path4"
     inkscape:connector-curvature="0"
     style="fill:#078930" />
  <path
     d="M 20.472,16.422 18,14.626 15.528,16.422 16.472,13.516 14,11.72 l 2.228,0 L 1.382,0.998 C 0.542,1.731 0,2.797 0,4 l 0,18 c 0,2.209 1.791,4 4,4 l 28,0 c 1.006,0 1.915,-0.384 2.618,-0.998 l -14.841,-10.718 0.695,2.138 z"
     id="path6"
     inkscape:connector-curvature="0"
     style="fill:#fcdd09" />
  <path
     d="M 16.472,13.516 15.528,16.422 18,14.626 20.472,16.422 19.777,14.284 19.528,13.516 22,11.72 18.944,11.72 18,8.814 17.056,11.72 14,11.72 Z"
     id="path8"
     inkscape:connector-curvature="0"
     style="fill:#da121a" />
</svg>
