<?xml version="1.0" encoding="UTF-8" standalone="no"?>
<svg
   xmlns:dc="http://purl.org/dc/elements/1.1/"
   xmlns:cc="http://creativecommons.org/ns#"
   xmlns:rdf="http://www.w3.org/1999/02/22-rdf-syntax-ns#"
   xmlns:svg="http://www.w3.org/2000/svg"
   xmlns="http://www.w3.org/2000/svg"
   xmlns:sodipodi="http://sodipodi.sourceforge.net/DTD/sodipodi-0.dtd"
   xmlns:inkscape="http://www.inkscape.org/namespaces/inkscape"
   viewBox="0 0 36 26"
   id="svg2"
   version="1.1"
   inkscape:version="0.91 r13725"
   sodipodi:docname="1f1e6-1f1e9.svg"
   width="36"
   height="26">
  <metadata
     id="metadata38">
    <rdf:RDF>
      <cc:Work
         rdf:about="">
        <dc:format>image/svg+xml</dc:format>
        <dc:type
           rdf:resource="http://purl.org/dc/dcmitype/StillImage" />
      </cc:Work>
    </rdf:RDF>
  </metadata>
  <defs
     id="defs36" />
  <sodipodi:namedview
     pagecolor="#ffffff"
     bordercolor="#666666"
     borderopacity="1"
     objecttolerance="10"
     gridtolerance="10"
     guidetolerance="10"
     inkscape:pageopacity="0"
     inkscape:pageshadow="2"
     inkscape:window-width="640"
     inkscape:window-height="480"
     id="namedview34"
     showgrid="false"
     inkscape:zoom="6.5555556"
     inkscape:cx="18"
     inkscape:cy="13"
     inkscape:window-x="0"
     inkscape:window-y="0"
     inkscape:window-maximized="0"
     inkscape:current-layer="svg2" />
  <path
     d="m 36,22 c 0,2.209 -1.791,4 -4,4 L 4,26 C 1.791,26 0,24.209 0,22 L 0,4 C 0,1.791 1.791,0 4,0 l 28,0 c 2.209,0 4,1.791 4,4 l 0,18 z"
     id="path4"
     inkscape:connector-curvature="0"
     style="fill:#d01c3a" />
  <path
     d="M 4,0 C 1.791,0 0,1.791 0,4 l 0,18 c 0,2.209 1.791,4 4,4 l 8,0 0,-26 -8,0 z"
     id="path6"
     inkscape:connector-curvature="0"
     style="fill:#0020a8" />
  <path
     d="m 12,0 12,0 0,26 -12,0 z"
     id="path8"
     inkscape:connector-curvature="0"
     style="fill:#fedf00" />
  <path
     d="m 23.035,14.641 c -0.159,-0.472 -0.563,-0.382 -0.563,-0.225 0,0 -0.539,-0.39 -0.135,-1.104 0,0 0.786,0.093 0.337,-0.514 0,0 0.674,-0.382 0.696,-1.168 0.022,-0.787 -0.876,-1.281 -1.258,-0.967 0,0 -0.023,-0.314 -0.18,-0.314 -0.157,0 -0.247,0.202 -0.247,0.202 0,0 0.023,-0.517 0.359,-0.809 0.337,-0.292 1.033,-1.079 -0.428,-1.528 -1.46,-0.449 -1.527,0.473 -1.303,0.675 0,0 -0.359,0.201 -0.764,0.179 C 19.145,9.047 19.436,8.575 19.526,8.372 19.616,8.17 19.549,7.451 19.053,7.474 18.559,7.496 18.536,7.699 18.357,7.766 18.18,7.832 18,7.787 18,7.787 18,7.787 17.82,7.832 17.64,7.764 17.461,7.697 17.438,7.495 16.944,7.472 16.449,7.449 16.382,8.168 16.472,8.37 16.562,8.573 16.854,9.045 16.449,9.066 16.045,9.088 15.685,8.887 15.685,8.887 15.91,8.685 15.842,7.763 14.382,8.212 c -1.46,0.449 -0.764,1.236 -0.427,1.528 0.337,0.292 0.36,0.809 0.36,0.809 0,0 -0.09,-0.202 -0.248,-0.202 -0.157,0 -0.179,0.314 -0.179,0.314 -0.382,-0.314 -1.281,0.18 -1.259,0.967 0.023,0.786 0.697,1.168 0.697,1.168 -0.45,0.606 0.337,0.514 0.337,0.514 0.404,0.715 -0.135,1.104 -0.135,1.104 0,-0.157 -0.404,-0.247 -0.564,0.225 -0.159,0.472 0.316,0.629 0.316,0.629 -0.629,0.81 -0.225,1.573 0.382,2.022 0.607,0.449 1.775,0.383 2.359,0.427 0.584,0.045 0.697,0.337 0.697,0.337 -0.449,0.428 0.225,0.765 0.225,0.765 0.135,0.449 0.674,-0.045 0.674,-0.045 L 18,19.112 18.382,18.775 c 0,0 0.54,0.494 0.674,0.045 0,0 0.675,-0.337 0.225,-0.765 0,0 0.113,-0.292 0.697,-0.337 0.584,-0.044 1.753,0.022 2.359,-0.427 0.606,-0.449 1.011,-1.213 0.382,-2.022 0,10e-4 0.475,-0.157 0.316,-0.628 z"
     id="path10"
     inkscape:connector-curvature="0"
     style="fill:#c7b37f" />
  <path
     d="m 17.82,12.641 0,-2.966 -2.966,0 0,2.966 2.966,0 z"
     id="path12"
     inkscape:connector-curvature="0"
     style="fill:#d01c3a" />
  <path
     d="m 15.933,11.506 -0.882,0.91 0.138,0.157 0.744,-0.82 z m 1.449,-1.157 c 0,0 0.391,0.102 0.391,-0.247 0,-0.349 -0.234,-0.349 -0.312,-0.349 -0.079,0 -0.438,0.057 -0.45,0.202 -0.011,0.146 0.141,0.236 0.059,0.315 -0.081,0.078 -0.302,0.273 -0.302,0.273 l 0.131,0.156 c 0,0 0.188,-0.156 0.337,-0.373 0.076,-0.11 0.018,-0.378 0.09,-0.394 0.213,-0.044 0.292,0.057 0.281,0.136 -0.011,0.078 -0.146,0.157 -0.146,0.157 l -0.079,0.124 z"
     id="path14"
     inkscape:connector-curvature="0"
     style="fill:#fedf00" />
  <path
     d="m 16.652,11.91 c 0,0 0.056,0.416 0.258,0.438 0.202,0.022 0.27,-0.646 0.601,-0.646 0.332,0 0.365,0.579 0,0.669 l -0.05,-0.168 c 0,0 0.236,-0.236 0.067,-0.271 -0.168,-0.033 -0.247,0.18 -0.269,0.271 -0.023,0.09 -0.158,0.325 -0.36,0.325 -0.337,0 -0.382,-0.309 -0.433,-0.547 -0.05,-0.239 0.186,-0.071 0.186,-0.071 z m -0.6,0 c 0,0 -0.056,0.416 -0.259,0.438 -0.202,0.022 -0.27,-0.646 -0.601,-0.646 -0.332,0 -0.366,0.579 0,0.669 l 0.05,-0.168 c 0,0 -0.236,-0.236 -0.067,-0.271 0.168,-0.033 0.247,0.18 0.269,0.271 0.023,0.09 0.157,0.325 0.359,0.325 0.337,0 0.382,-0.309 0.433,-0.547 0.052,-0.239 -0.184,-0.071 -0.184,-0.071 z"
     id="path16"
     inkscape:connector-curvature="0"
     style="fill:#ffffff" />
  <path
     d="m 16.394,9.798 0.865,1.101 -0.433,1.18 c 0,0 -0.174,-0.102 -0.433,-0.102 -0.259,0 -0.461,0.102 -0.461,0.102 l -0.46,-1.191 0.922,-1.09 z"
     id="path18"
     inkscape:connector-curvature="0"
     style="fill:#ffffff" />
  <path
     d="m 16.466,10.18 0.604,0.725 -0.306,0.927 -0.292,-0.09 z m -0.199,0 -0.604,0.725 0.306,0.927 0.292,-0.09 z m -1.413,2.73 0,1.843 c 0,1.214 0.886,1.381 1.648,1.214 0.614,-0.136 1.318,0 1.318,0 l 0,-3.057 -2.966,0 z"
     id="path20"
     inkscape:connector-curvature="0"
     style="fill:#fedf00" />
  <path
     d="m 16.502,15.967 0.06,-0.012 0,-3.045 -0.45,0 0,3.108 c 0.131,-0.005 0.262,-0.024 0.39,-0.051 z m 0.959,-0.046 0,-3.011 -0.45,0 0,2.998 c 0.165,-0.005 0.32,0.002 0.45,0.013 z m -1.798,0.058 0,-3.069 -0.449,0 0,2.841 c 0.127,0.115 0.282,0.189 0.449,0.228 z"
     id="path22"
     inkscape:connector-curvature="0"
     style="fill:#d01c3a" />
  <path
     d="m 18.18,12.641 0,-2.966 2.966,0 0,2.966 -2.966,0 z"
     id="path24"
     inkscape:connector-curvature="0"
     style="fill:#fedf00" />
  <path
     d="m 18.539,9.675 0.45,0 0,2.966 -0.45,0 z m 0.899,0 0.45,0 0,2.966 -0.45,0 z m 0.899,0 0.449,0 0,2.966 -0.449,0 z"
     id="path26"
     inkscape:connector-curvature="0"
     style="fill:#d01c3a" />
  <path
     d="m 21.146,12.91 0,1.843 c 0,1.214 -0.886,1.381 -1.648,1.214 -0.614,-0.136 -1.318,0 -1.318,0 l 0,-3.057 2.966,0 z"
     id="path28"
     inkscape:connector-curvature="0"
     style="fill:#fedf00" />
  <path
     d="m 18.629,13.404 0.281,-0.225 0.348,0 0,0.181 c 0,0 0.495,-0.008 0.899,-0.049 0.404,-0.042 0.528,0.262 0.404,0.34 -0.123,0.079 0.022,0.383 0,0.528 -0.022,0.146 -0.292,0.359 -0.225,0.236 0.067,-0.124 0,-0.461 0,-0.461 0,0 -0.078,0.259 -0.146,0.337 -0.068,0.079 -0.304,0.09 -0.214,0.023 0.09,-0.067 0.18,-0.213 0.101,-0.292 -0.078,-0.078 -0.431,-0.09 -0.446,-0.056 -0.014,0.033 -0.081,0.426 -0.126,0.449 -0.046,0.022 -0.102,-0.034 -0.068,-0.157 0.034,-0.124 0,-0.337 0,-0.337 0,0 -0.235,-0.012 -0.225,0.09 0.012,0.101 0.113,0.146 0.091,0.225 -0.023,0.078 -0.169,0.18 -0.18,0.045 -0.012,-0.135 -0.236,-0.225 -0.135,-0.292 0.101,-0.067 0.203,-0.173 0.203,-0.173 0,0 -0.127,-0.029 -0.216,-0.153 -0.09,-0.123 -0.166,-0.112 -0.346,-0.112 -0.09,0 0,-0.147 0,-0.147 z m 0,1.349 0.281,-0.225 0.348,0 0,0.18 c 0,0 0.495,-0.007 0.899,-0.049 0.404,-0.041 0.528,0.262 0.404,0.341 -0.123,0.079 0.022,0.382 0,0.528 -0.022,0.146 -0.292,0.358 -0.225,0.236 0.067,-0.124 0,-0.461 0,-0.461 0,0 -0.078,0.258 -0.146,0.337 -0.068,0.079 -0.304,0.09 -0.214,0.022 0.09,-0.067 0.18,-0.214 0.101,-0.292 -0.078,-0.078 -0.431,-0.09 -0.446,-0.057 -0.014,0.034 -0.081,0.427 -0.126,0.45 -0.046,0.021 -0.102,-0.034 -0.068,-0.158 0.034,-0.123 0,-0.337 0,-0.337 0,0 -0.235,-0.011 -0.225,0.09 0.012,0.101 0.113,0.146 0.091,0.225 -0.023,0.079 -0.169,0.181 -0.18,0.045 -0.012,-0.134 -0.236,-0.225 -0.135,-0.292 0.101,-0.067 0.203,-0.173 0.203,-0.173 0,0 -0.127,-0.029 -0.216,-0.152 -0.09,-0.124 -0.166,-0.112 -0.346,-0.112 -0.09,0 0,-0.146 0,-0.146 z"
     id="path30"
     inkscape:connector-curvature="0"
     style="fill:#d01c3a" />
  <path
     d="m 14.629,16.191 c 0,0.033 1.652,0.482 1.837,0.517 0.186,0.033 0.118,0.415 -0.129,0.393 -0.247,-0.021 -1.472,-0.291 -1.629,-0.37 -0.157,-0.08 -0.079,-0.54 -0.079,-0.54 z m 2.27,0.556 c 0,0 0.495,0.067 0.921,0.085 0.427,0.017 0.719,-0.02 0.719,-0.02 l 0.304,0.412 c 0,0 -0.528,0.057 -0.888,0.057 -0.359,0 -0.944,-0.057 -0.944,-0.057 l -0.112,-0.477 z m 2.157,0 c 0,0 0.708,-0.129 1.136,-0.231 0.427,-0.101 0.988,-0.303 1.135,-0.325 0.146,-0.023 0.247,0.241 0.291,0.277 l 0.045,0.037 c 0,0 -0.741,0.348 -1.101,0.449 -0.359,0.102 -1.506,0.259 -1.506,0.259 0,0 -0.164,-0.436 0,-0.466 z"
     id="path32"
     inkscape:connector-curvature="0"
     style="fill:#af9167" />
</svg>
