<?xml version="1.0" encoding="UTF-8" standalone="no"?>
<svg
   xmlns:dc="http://purl.org/dc/elements/1.1/"
   xmlns:cc="http://creativecommons.org/ns#"
   xmlns:rdf="http://www.w3.org/1999/02/22-rdf-syntax-ns#"
   xmlns:svg="http://www.w3.org/2000/svg"
   xmlns="http://www.w3.org/2000/svg"
   xmlns:sodipodi="http://sodipodi.sourceforge.net/DTD/sodipodi-0.dtd"
   xmlns:inkscape="http://www.inkscape.org/namespaces/inkscape"
   viewBox="0 0 36 26"
   id="svg2"
   version="1.1"
   inkscape:version="0.91 r13725"
   sodipodi:docname="1f1ec-1f1f5.svg"
   width="36"
   height="26">
  <metadata
     id="metadata16">
    <rdf:RDF>
      <cc:Work
         rdf:about="">
        <dc:format>image/svg+xml</dc:format>
        <dc:type
           rdf:resource="http://purl.org/dc/dcmitype/StillImage" />
      </cc:Work>
    </rdf:RDF>
  </metadata>
  <defs
     id="defs14" />
  <sodipodi:namedview
     pagecolor="#ffffff"
     bordercolor="#666666"
     borderopacity="1"
     objecttolerance="10"
     gridtolerance="10"
     guidetolerance="10"
     inkscape:pageopacity="0"
     inkscape:pageshadow="2"
     inkscape:window-width="640"
     inkscape:window-height="480"
     id="namedview12"
     showgrid="false"
     inkscape:zoom="6.5555556"
     inkscape:cx="18"
     inkscape:cy="13"
     inkscape:window-x="0"
     inkscape:window-y="0"
     inkscape:window-maximized="0"
     inkscape:current-layer="svg2" />
  <path
     d="m 36,22 c 0,2.209 -1.791,4 -4,4 L 4,26 C 1.791,26 0,24.209 0,22 L 0,4 C 0,1.791 1.791,0 4,0 l 28,0 c 2.209,0 4,1.791 4,4 l 0,18 z"
     id="path4"
     inkscape:connector-curvature="0"
     style="fill:#002488" />
  <path
     d="m 0,22 c 0,2.209 1.791,4 4,4 l 28,0 c 2.209,0 4,-1.791 4,-4 L 36,9 0,9 0,22 Z"
     id="path6"
     inkscape:connector-curvature="0"
     style="fill:#141414" />
  <path
     d="m 29,23.479 c 0,0 -8.396,-4.417 -12.458,-5.75 -4.062,-1.333 -5.146,-0.292 -5.375,0.208 0.438,-1.188 0.896,-1.479 0.896,-1.479 0,0 -1.604,0.416 -1.583,1.416 -0.333,-0.896 0.791,-2 2.271,-2.021 -1.333,-0.188 -3.646,0.021 -4.062,1.333 0.021,-1.354 2.375,-1.729 3.333,-1.688 -2.396,-0.75 -4.396,-0.729 -4.542,0.271 -0.167,-0.438 0.292,-0.797 0.292,-0.797 0,0 -0.938,-0.079 -1.396,0.338 C 6.355,14.935 7.897,14.561 8.647,14.644 7.335,14.123 6.314,14.038 6.064,14.632 5.979,13.938 8.417,13.75 9.542,14 6.917,13.042 5.938,12.667 4.959,13.688 c 0,-0.708 0.854,-0.979 1.458,-0.917 -0.521,-0.542 -0.916,-0.896 -1.458,-0.917 0.312,-0.125 0.979,0.125 0.979,0.125 0,0 -0.75,-0.792 -1.271,-1.042 0.917,0.146 2.625,1.917 2.75,2.062 0.125,0.145 0.854,0.312 0.854,0.312 0,0 -2.375,-1.938 -2.458,-2.562 0.979,0.479 2.896,2.583 2.896,2.583 0,0 0.479,0.271 0.5,0.062 0.021,-0.208 -2.875,-2.104 -2.833,-3.188 0.583,0.812 1.417,1.729 1.417,1.729 0,0 -0.604,-0.792 -0.542,-1.521 0.583,1.042 1.458,2.312 2.25,2.75 -1.302,-1.278 -1.438,-2.021 -1.333,-2.292 0.708,1.292 1.854,2.583 2.042,2.667 0.188,0.084 0.292,0.062 0.292,0.062 0,0 -0.812,-0.854 -0.938,-1.396 0.562,0.396 0.958,1.312 1.083,1.354 0.125,0.042 0.271,-0.042 0.271,-0.042 0,0 -1.208,-1.25 -1.208,-1.854 0.583,0.458 1.354,1.729 1.458,1.917 0.104,0.188 0.583,0.521 0.646,0.375 0.063,-0.146 -1.729,-1.771 -1.208,-2.042 0.833,0.688 1.312,1.688 1.396,1.708 0.084,0.02 0.458,0.167 0.396,0.042 -0.062,-0.125 -1.175,-1.531 -0.896,-2.312 0.061,0.829 0.917,2.417 2.396,2.771 1.479,0.354 5.875,3.312 8.812,4.188 2.937,0.876 8.229,2.042 8.229,2.042 l -0.167,0.25 c 0,0 -7.771,-2.042 -7.771,-1.979 0,0.063 0.229,0.271 0.229,0.271 0,0 7.459,1.958 7.438,2.021 -0.021,0.063 -0.168,0.356 -0.168,0.356 l -7.562,-2.354 -0.229,0 c 0,0 7.542,2.542 7.542,2.604 0,0.062 -0.146,0.333 -0.146,0.333 l -7.792,-2.938 0.25,0.292 c 0,0 7.438,2.832 7.417,2.916 -0.021,0.084 -0.209,0.292 -0.209,0.292 l -7.083,-2.896 -0.417,-0.104 7.375,3.188 -0.229,0.271 -6.854,-3.041 -0.229,0 6.938,3.438 L 29,23.479 Z"
     id="path8"
     inkscape:connector-curvature="0"
     style="fill:#008000" />
  <path
     d="m 25.351,19.345 c 0,0 -0.259,-0.883 -1.971,-0.919 l 0.004,-0.004 c 0.933,-0.933 1.781,-0.845 2.245,-0.663 0,0 -0.433,-0.78 -2.056,-0.491 0.716,-1.012 1.531,-1.094 2.008,-1.01 0,0 -0.598,-0.724 -2.215,-0.043 0.01,-0.023 0.024,-0.043 0.033,-0.068 0.471,-1.232 1.281,-1.498 1.779,-1.521 0,0 -0.711,-0.544 -2.073,0.381 0.245,-1.205 0.952,-1.611 1.421,-1.727 0,0 -0.837,-0.415 -2.029,0.851 0,-0.017 0.003,-0.032 0.002,-0.048 -0.065,-1.316 0.567,-1.888 1.014,-2.109 0,0 -0.896,-0.22 -1.781,1.247 l -10e-4,-0.005 c -0.343,-1.272 0.155,-1.965 0.545,-2.276 0,0 -0.914,-0.024 -1.471,1.576 -0.579,-1.158 -0.241,-1.931 0.074,-2.312 0,0 -0.895,0.17 -1.109,1.844 -0.799,-1.012 -0.628,-1.836 -0.399,-2.273 0,0 -0.842,0.351 -0.706,2.035 -0.995,-0.827 -0.997,-1.669 -0.862,-2.145 0,0 -0.752,0.517 -0.271,2.138 -1.144,-0.601 -1.323,-1.427 -1.29,-1.921 0,0 -0.634,0.664 0.184,2.161 -1.266,-0.345 -1.616,-1.123 -1.687,-1.616 0,0 -0.479,0.774 0.613,2.054 -1.274,-0.093 -1.768,-0.769 -1.936,-1.232 0,0 -0.318,0.87 1.054,1.913 -0.008,10e-4 -0.015,0 -0.023,0.002 -1.3,0.205 -1.938,-0.363 -2.205,-0.785 0,0 -0.117,0.882 1.351,1.6 -1.154,0.374 -1.853,-0.033 -2.183,-0.382 0,0 0.053,0.938 1.76,1.343 -0.022,0.013 -0.044,0.021 -0.066,0.035 -1.106,0.714 -1.919,0.452 -2.333,0.175 0,0 0.259,0.883 1.97,0.919 l -0.005,0.004 c -0.93,0.931 -1.78,0.847 -2.244,0.663 0,0 0.433,0.781 2.055,0.491 -0.714,1.01 -1.53,1.096 -2.007,1.01 0,0 0.598,0.724 2.214,0.042 -0.01,0.024 -0.024,0.044 -0.033,0.068 -0.469,1.229 -1.28,1.5 -1.778,1.521 0,0 0.71,0.544 2.071,-0.38 -0.243,1.203 -0.95,1.612 -1.419,1.726 0,0 0.836,0.415 2.028,-0.851 0,0.016 -0.003,0.031 -0.002,0.048 0.067,1.314 -0.565,1.889 -1.013,2.109 0,0 0.896,0.22 1.781,-1.247 l 0.001,0.005 c 0.344,1.271 -0.154,1.965 -0.544,2.275 0,0 0.914,0.024 1.47,-1.575 0.579,1.156 0.242,1.93 -0.074,2.312 0,0 0.895,-0.171 1.109,-1.844 0.8,1.011 0.629,1.835 0.399,2.272 0,0 0.842,-0.351 0.707,-2.035 0.995,0.826 0.997,1.669 0.862,2.144 0,0 0.752,-0.517 0.271,-2.137 1.147,0.603 1.321,1.429 1.29,1.92 0,0 0.633,-0.663 -0.183,-2.159 1.268,0.346 1.613,1.124 1.687,1.614 0,0 0.478,-0.772 -0.611,-2.052 1.275,0.093 1.765,0.77 1.935,1.23 0,0 0.318,-0.869 -1.054,-1.913 l 0.021,-10e-4 c 1.303,-0.206 1.938,0.364 2.205,0.784 0,0 0.117,-0.881 -1.351,-1.601 1.155,-0.374 1.852,0.035 2.183,0.382 0,0 -0.053,-0.937 -1.759,-1.344 0.022,-0.013 0.044,-0.021 0.065,-0.034 1.107,-0.711 1.917,-0.447 2.333,-0.171 z M 6.249,6.417 c 0,0 0.043,-1.479 -0.916,-2.271 C 4.375,3.354 3.771,4.208 3.812,4.688 3.854,5.167 4.267,5.792 5.029,6.021 4.562,5.104 5.196,5.087 5.416,5.209 5.727,5.381 5.895,5.834 5.895,6.417 l 0.354,0 z M 6.688,1.271 c -1.042,0.542 -1,2.146 -0.667,2.958 0.333,0.813 0.417,2.188 0.417,2.188 l 0.5,0 c 0,0 0.083,-1.375 0.417,-2.188 C 7.688,3.417 7.729,1.812 6.688,1.271 Z m 0.438,5.146 c 0,0 -0.043,-1.479 0.916,-2.271 C 9,3.354 9.604,4.208 9.562,4.688 9.52,5.167 9.107,5.792 8.345,6.021 8.812,5.104 8.178,5.087 7.958,5.209 7.647,5.381 7.479,5.834 7.479,6.417 l -0.353,0 z M 6.688,6.604 5.811,6.677 6.688,6.75 7.564,6.677 Z m 1.14,1.084 C 7.281,7.391 7.126,6.938 7.126,6.938 l -0.877,0 c 0,0 -0.155,0.453 -0.702,0.75 0.484,0.078 0.984,-0.172 0.984,-0.172 0,0 -0.282,0.688 0.156,1.359 0.438,-0.672 0.156,-1.359 0.156,-1.359 0,0 0.501,0.25 0.985,0.172 z m 9.734,-1.271 c 0,0 0.043,-1.479 -0.916,-2.271 -0.958,-0.792 -1.563,0.062 -1.521,0.542 0.042,0.479 0.455,1.104 1.217,1.333 -0.467,-0.917 0.167,-0.934 0.387,-0.812 0.311,0.172 0.479,0.625 0.479,1.208 l 0.354,0 z M 18,1.271 c -1.042,0.542 -1,2.146 -0.667,2.958 0.333,0.813 0.417,2.188 0.417,2.188 l 0.5,0 c 0,0 0.083,-1.375 0.417,-2.188 C 19,3.417 19.042,1.812 18,1.271 Z m 0.438,5.146 c 0,0 -0.043,-1.479 0.916,-2.271 0.958,-0.792 1.562,0.062 1.521,0.542 C 20.833,5.167 20.42,5.792 19.657,6.021 20.125,5.104 19.49,5.087 19.27,5.209 18.959,5.381 18.791,5.834 18.791,6.417 l -0.353,0 z M 18,6.604 17.123,6.677 18,6.75 18.877,6.677 Z m 1.141,1.084 C 18.594,7.391 18.439,6.938 18.439,6.938 l -0.877,0 c 0,0 -0.155,0.453 -0.702,0.75 0.484,0.078 0.984,-0.172 0.984,-0.172 0,0 -0.282,0.687 0.156,1.359 0.438,-0.672 0.156,-1.359 0.156,-1.359 0,0 0.5,0.25 0.985,0.172 z m 9.811,-1.271 c 0,0 0.043,-1.479 -0.915,-2.271 -0.959,-0.792 -1.563,0.062 -1.521,0.542 0.042,0.479 0.455,1.104 1.217,1.333 -0.467,-0.917 0.168,-0.934 0.388,-0.812 0.311,0.172 0.479,0.625 0.479,1.208 l 0.352,0 z m 0.439,-5.146 c -1.042,0.542 -1,2.146 -0.666,2.958 0.333,0.813 0.416,2.188 0.416,2.188 l 0.5,0 c 0,0 0.083,-1.375 0.416,-2.188 0.334,-0.812 0.376,-2.417 -0.666,-2.958 z m 0.438,5.146 c 0,0 -0.043,-1.479 0.916,-2.271 0.958,-0.792 1.562,0.062 1.52,0.542 C 32.223,5.167 31.81,5.792 31.047,6.021 31.515,5.104 30.88,5.087 30.66,5.209 30.349,5.381 30.181,5.834 30.181,6.417 l -0.352,0 z m -0.438,0.187 -0.877,0.073 0.877,0.073 0.877,-0.073 z m 1.14,1.084 C 29.984,7.391 29.829,6.938 29.829,6.938 l -0.876,0 c 0,0 -0.155,0.453 -0.702,0.75 0.484,0.078 0.984,-0.172 0.984,-0.172 0,0 -0.282,0.688 0.156,1.359 0.438,-0.672 0.156,-1.359 0.156,-1.359 0,0 0.5,0.25 0.984,0.172 z"
     id="path10"
     inkscape:connector-curvature="0"
     style="fill:#fcdd09" />
</svg>
