<?xml version="1.0" encoding="UTF-8" standalone="no"?>
<svg
   xmlns:dc="http://purl.org/dc/elements/1.1/"
   xmlns:cc="http://creativecommons.org/ns#"
   xmlns:rdf="http://www.w3.org/1999/02/22-rdf-syntax-ns#"
   xmlns:svg="http://www.w3.org/2000/svg"
   xmlns="http://www.w3.org/2000/svg"
   xmlns:sodipodi="http://sodipodi.sourceforge.net/DTD/sodipodi-0.dtd"
   xmlns:inkscape="http://www.inkscape.org/namespaces/inkscape"
   viewBox="0 0 36 26"
   id="svg2"
   version="1.1"
   inkscape:version="0.91 r13725"
   sodipodi:docname="1f1e7-1f1f9.svg"
   width="36"
   height="26">
  <metadata
     id="metadata14">
    <rdf:RDF>
      <cc:Work
         rdf:about="">
        <dc:format>image/svg+xml</dc:format>
        <dc:type
           rdf:resource="http://purl.org/dc/dcmitype/StillImage" />
      </cc:Work>
    </rdf:RDF>
  </metadata>
  <defs
     id="defs12" />
  <sodipodi:namedview
     pagecolor="#ffffff"
     bordercolor="#666666"
     borderopacity="1"
     objecttolerance="10"
     gridtolerance="10"
     guidetolerance="10"
     inkscape:pageopacity="0"
     inkscape:pageshadow="2"
     inkscape:window-width="640"
     inkscape:window-height="480"
     id="namedview10"
     showgrid="false"
     inkscape:zoom="6.5555556"
     inkscape:cx="18"
     inkscape:cy="13"
     inkscape:window-x="0"
     inkscape:window-y="0"
     inkscape:window-maximized="0"
     inkscape:current-layer="svg2" />
  <path
     d="M 1.193,24.846 C 1.915,25.558 2.905,26 4,26 l 28,0 c 2.209,0 4,-1.791 4,-4 L 36,4 C 36,3.104 35.695,2.286 35.197,1.619 L 1.193,24.846 Z"
     id="path4"
     inkscape:connector-curvature="0"
     style="fill:#ff4e11" />
  <path
     d="M 32,0 4,0 C 1.791,0 0,1.791 0,4 l 0,18 c 0,1.114 0.458,2.121 1.193,2.846 L 35.197,1.619 C 34.468,0.642 33.313,0 32,0 Z"
     id="path6"
     inkscape:connector-curvature="0"
     style="fill:#ffd521" />
  <path
     d="m 31.925,5.479 c -0.361,0.024 -0.554,0.289 -0.771,0.289 l -0.386,0 c 0,0 0.312,-0.434 0.482,-0.554 0.168,-0.121 0.794,-0.169 0.939,-0.289 0.144,-0.121 0.168,-0.289 0.168,-0.289 -0.313,0.217 -1.036,0.096 -1.348,0.168 -0.312,0.072 -0.579,0.41 -0.579,0.41 0,0 0.361,-0.723 0.458,-1.037 0.096,-0.313 0.096,-0.843 0.482,-1.132 0.385,-0.289 0.145,-0.651 0.145,-0.651 0,0 -0.097,0.241 -0.361,0.458 -0.265,0.217 -0.53,0.193 -0.506,0.603 0.025,0.409 0.048,0.409 -0.144,0.602 C 30.312,4.25 30.312,4.201 29.998,4.732 29.685,5.262 29.54,4.708 28.865,4.949 28.19,5.19 27.877,4.515 27.348,4.588 26.818,4.66 25.565,4.418 25.06,4.25 24.553,4.081 24.819,3.864 23.589,3.287 22.361,2.708 21.589,3.263 22.071,3.238 22.309,3.226 22.676,3.32 22.986,3.418 22.6,3.39 22.288,3.551 22.288,3.551 c 0,0 0.675,0.192 1.229,0.674 0.554,0.482 0,0.434 -0.723,0 C 22.071,3.791 21.301,3.695 20.65,3.767 20,3.839 20.169,4.056 20.53,4.032 20.891,4.008 21.711,4.249 22.362,4.49 23.011,4.731 22.313,4.78 22.313,4.78 20.891,3.936 20.265,4.611 20.65,4.466 c 0.387,-0.145 0.819,0.193 1.494,0.555 0.675,0.362 -0.963,0.145 -0.963,0.145 0,0 -0.747,-0.313 -1.471,-0.386 -0.723,-0.072 -1.276,0.626 -1.036,0.963 0.241,0.337 0.698,0.144 0.698,0.144 -0.518,-0.15 -0.361,-0.53 -0.023,-0.626 0.337,-0.096 1.639,0.241 2,0.386 0.361,0.144 0.506,0.699 -0.481,0.24 C 19.88,5.429 20.241,5.96 20.241,5.96 19.277,5.887 20.675,6.514 20.072,6.346 19.47,6.177 18.771,6.418 18.193,6.418 c -0.578,0 -0.795,0.627 -0.795,0.627 0,0 0.337,-0.193 0.759,-0.338 0.422,-0.144 1.602,0.145 1.602,0.145 -0.481,0.482 -0.458,1.373 -0.458,1.373 -0.505,0.12 -0.987,1.036 -0.987,1.036 0.192,-0.313 0.867,-0.41 0.867,-0.41 0,0 0.12,0.265 -0.192,0.651 -0.313,0.385 -0.217,0.867 -0.217,0.867 0,0 0.144,-0.385 0.338,-0.578 0.191,-0.193 0.674,-0.169 0.674,-0.169 -0.217,0.506 0.603,0.819 0.603,0.819 -0.241,0.433 0.218,0.916 0.144,0.892 -0.071,-0.024 -0.844,0.24 -0.844,0.24 0,0 1.062,0.024 0.506,0.169 -0.554,0.144 -1.565,-0.434 -1.565,-0.434 l -1.18,-0.53 c 0,0 0.506,0.482 -0.072,0.41 -0.579,-0.072 -1.157,0.217 -1.663,-0.12 -0.506,-0.338 -1.35,-0.531 -1.181,-0.217 0.168,0.314 0.41,0.626 0.41,0.626 -0.915,-0.193 -0.458,0.626 -1.132,0.555 -0.675,-0.073 -0.121,0.578 -0.771,0.385 -0.651,-0.193 -1.277,0.53 -1.277,0.53 0.217,-0.121 0.915,0.072 0.915,0.072 -0.265,0.096 -0.144,0.601 -0.144,0.601 -0.627,0.167 -0.458,1.11 -0.458,1.11 -0.53,0 -0.626,0.36 -0.843,0.601 -0.216,0.241 -0.723,0.241 -0.723,0.241 0.354,0.275 1.051,0.087 1.3,0.008 -0.228,0.148 -0.192,0.811 -0.192,0.811 -0.434,0.072 -0.048,0.723 -0.144,0.65 -0.097,-0.072 -0.337,0.097 -0.578,0.289 -0.241,0.193 -0.554,0.241 -0.554,0.241 0.168,0.217 0.554,0.241 0.554,0.241 0,0 -0.29,0.554 -0.651,0.675 -0.361,0.119 -1.373,0.36 -1.638,0.385 -0.265,0.024 -0.843,0 -1.373,-0.145 -0.53,-0.144 -1.084,0 -1.518,-0.049 -0.434,-0.048 -0.699,0.386 -0.699,0.386 0,0 0.361,-0.12 0.674,-0.048 0.313,0.072 0.41,0.361 0.747,0.217 0.337,-0.145 1.036,0.193 1.036,0.193 0,0 -0.241,0.144 -0.578,0.265 -0.337,0.12 -0.795,0.264 -1.181,0.337 -0.385,0.072 -0.843,0.627 -0.53,0.361 0.313,-0.265 0.505,-0.048 0.939,-0.121 0.435,-0.072 0.844,-0.096 0.844,-0.096 0,0 -0.289,0 -0.506,0.265 -0.217,0.266 -0.819,0.507 -1.157,0.507 -0.337,0 -0.891,0.169 -1.205,0.578 -0.313,0.41 -0.699,0.482 -0.699,0.482 0,0 0.241,0.265 0.603,0 0.361,-0.266 0.434,-0.386 0.964,-0.482 0.53,-0.097 1.084,-0.289 1.084,-0.289 -0.289,0.241 -0.458,0.53 -0.939,0.602 -0.482,0.073 -1.229,0.65 -1.518,0.94 -0.289,0.289 -0.795,0.507 -0.795,0.507 0.481,0.289 0.723,-0.072 1.229,-0.361 0.506,-0.289 0.771,-0.097 1.374,-0.266 0.602,-0.169 0.53,-0.674 0.722,-0.698 0.193,-0.023 0.699,0 0.844,-0.241 0.145,-0.24 0.048,-0.433 0.41,-0.433 0.361,0 0.505,-0.169 0.505,-0.169 -0.145,0.312 -0.505,0.578 -0.505,0.578 0.434,0.12 0.771,-0.289 1.205,-0.555 0.434,-0.265 0.723,-0.265 0.723,-0.265 0,0 -0.265,0.458 -0.554,0.506 -0.29,0.048 -0.627,0.555 -0.627,0.555 0.193,-0.41 1.108,-0.338 1.446,-0.627 0.337,-0.289 0.795,-0.772 1.084,-0.94 0.289,-0.169 0.578,-0.529 1.084,-0.987 0.506,-0.458 1.397,-0.361 1.397,-0.434 0,-0.072 -0.024,0.674 -0.024,0.674 l -0.843,0.073 0.53,0.385 c -0.337,-0.145 -0.819,0.53 -0.819,0.53 l 0.834,-0.097 0.178,0.483 c 0.265,-0.556 0.458,-0.435 0.458,-0.435 0.289,0.337 0.313,1.108 0.313,1.108 0,0 -0.385,-0.097 -0.819,0.409 -0.434,0.507 0.361,1.47 0.361,1.47 0,0 -0.145,0.217 0,0.627 0.144,0.409 0.891,0.843 1.638,0.602 0.747,-0.241 0.675,-1.252 0.675,-1.252 0,0 0.265,-0.266 0.216,-0.796 -0.048,-0.53 -0.289,-0.818 -0.289,-0.818 0,0 0.458,-0.169 0.747,0.144 0.289,0.312 0.361,1.035 0.361,1.035 0,0 0.289,-1.349 -0.144,-1.685 -0.433,-0.336 -1.494,-0.313 -1.494,-0.313 -0.024,-0.555 -0.506,-0.868 -0.627,-1.229 -0.121,-0.361 0.072,-1.253 0.072,-1.253 l 0.602,0.049 c 0,0 -0.048,0.217 0.385,0.53 0.434,0.312 1.132,0.096 1.132,0.096 0,0 0.795,0.072 1.181,-0.626 0.385,-0.698 -0.337,-1.253 -0.337,-1.253 -0.12,-1.108 -1.759,-0.481 -1.759,-0.481 0.169,-0.747 0.892,-0.747 0.892,-0.747 0,0 -0.843,-0.435 -1.325,-0.266 -0.482,0.169 -0.314,1.374 -0.699,1.326 -0.385,-0.048 -0.434,-1.23 -0.121,-2.146 0.313,-0.915 1.903,-0.963 3.421,-0.36 1.517,0.601 3.662,0.722 3.662,0.722 -0.071,0.289 -0.457,0.724 -0.457,0.724 l -0.675,-0.266 0.409,0.507 c -0.145,0.361 -0.53,0.626 -0.53,0.626 0.409,0.289 0.867,-0.289 0.867,-0.289 l 0.169,0.699 0.41,-0.578 c 0,0 0.842,0.602 1.541,0.866 0.698,0.266 2.049,0.507 2.049,0.507 0,0 -0.458,0.217 0.023,0.987 0.482,0.771 1.59,0.987 1.59,0.987 0,0 0.844,0.386 1.613,-0.289 0.772,-0.675 0.145,-1.903 0.145,-1.903 0,-1.42 -1.517,-0.975 -1.517,-0.975 0.312,-0.614 1.048,-1.025 1.048,-1.025 -1.193,-0.698 -1.698,0.676 -2.59,0.965 -0.892,0.289 -2.458,-0.555 -2.529,-0.555 -0.073,0 0.047,-0.145 0.071,-0.458 0.024,-0.312 0.747,-0.915 1.108,-1.662 0.362,-0.747 0.266,-1.976 0.266,-1.976 0.481,-0.481 1.133,-0.121 1.133,-0.121 -0.024,0.506 -0.338,0.723 -0.338,0.723 0.361,0.024 0.53,-0.314 0.53,-0.314 -0.169,0.53 0.386,1.157 0.386,1.157 l 0.168,-0.82 0.506,0.579 -0.312,-1.06 c 0.963,0 1.975,-0.699 1.975,-0.699 0,0 0.482,0.699 1.446,0.699 0.963,0 1.927,-1.036 1.927,-1.494 0,-0.458 -0.867,-1.108 -0.867,-1.108 0,0 0.337,-0.771 -0.939,-0.771 -1.276,0 -1.662,1.555 -1.662,1.555 0,0 -0.531,-0.229 -1.254,-0.038 -0.722,0.193 -1.902,-0.409 -2.625,-0.77 -0.724,-0.361 -1.735,-1.35 -1.735,-1.35 0,-0.337 0.188,-0.868 0.188,-0.868 0,0 1.04,0.073 0.728,0.193 -0.314,0.121 -1.132,0.362 -0.481,0.41 0.649,0.048 1.276,-0.217 1.083,0 -0.192,0.217 -0.915,0.723 -0.626,0.723 0.289,0 0.675,-0.362 0.868,-0.41 0.192,-0.048 0.529,0.072 1.012,0.072 0.128,0 0.263,-0.074 0.392,-0.179 0.496,0.235 1.23,0.934 1.583,1.287 0.434,0.433 0.698,-0.145 0.892,-0.409 C 28.594,9.177 28.289,8.89 27.96,8.631 28.015,8.563 28.071,8.496 28.121,8.438 28.147,8.408 28.19,8.387 28.229,8.364 l 0.553,0.2 c 0.003,0.418 -0.01,0.983 -0.01,0.983 0.266,-0.189 0.278,-0.569 0.283,-0.889 0.379,0.131 0.711,0.231 0.923,0.238 0.698,0.024 1.155,-0.217 1.806,-0.289 0.65,-0.072 0.698,0.531 0.698,0.531 0,0 0.266,-0.193 -0.12,-0.579 C 31.977,8.173 31.47,8.198 31.47,8.198 c 0,-0.555 -0.669,-0.53 -0.669,-0.53 0.56,0.313 -0.005,0.65 -0.005,0.65 0.072,-0.313 -0.627,-0.504 -0.627,-0.504 0,0 0.458,0.215 0.17,0.479 -0.18,0.165 -0.428,0.164 -0.737,0.117 0.036,-0.166 0.1,-0.419 0.205,-0.647 0.17,-0.361 -0.12,-0.722 -0.12,-0.722 L 30,6.462 c 0,0 1.036,-0.169 1.324,-0.313 0.29,-0.145 0.578,-0.266 1.301,-0.241 0.724,0.024 0.893,-0.385 0.893,-0.385 -0.316,0.196 -1.232,-0.068 -1.593,-0.044 z m -4.794,1.566 c 0.241,-0.168 0.386,-0.024 0.386,-0.024 l 0.19,0.434 0.243,-0.53 0.337,0.265 -0.191,0.337 0.723,-0.096 -0.072,0.241 c 0,0 -0.257,0.231 -0.509,0.434 -0.499,-0.155 -1.079,-0.374 -1.494,-0.598 0.079,-0.134 0.225,-0.35 0.387,-0.463 z m 0.818,1.276 C 27.875,8.37 27.824,8.435 27.788,8.505 27.605,8.368 27.433,8.247 27.348,8.177 27.267,8.111 27.159,8.05 27.041,7.991 c 0.306,0.078 0.629,0.181 0.955,0.296 l -0.047,0.034 z m 0.69,-0.099 c 0.073,-0.013 0.129,-0.021 0.129,-0.021 l 0.003,0.053 C 28.728,8.244 28.687,8.235 28.639,8.222 Z m 0.445,0.099 c 0.066,-0.273 0.288,-0.433 0.288,-0.433 -0.01,0.191 0.022,0.358 0.059,0.5 L 29.084,8.321 Z"
     id="path8"
     inkscape:connector-curvature="0"
     style="fill:#ffffff" />
</svg>
