<?xml version="1.0" encoding="UTF-8" standalone="no"?>
<svg
   xmlns:dc="http://purl.org/dc/elements/1.1/"
   xmlns:cc="http://creativecommons.org/ns#"
   xmlns:rdf="http://www.w3.org/1999/02/22-rdf-syntax-ns#"
   xmlns:svg="http://www.w3.org/2000/svg"
   xmlns="http://www.w3.org/2000/svg"
   xmlns:sodipodi="http://sodipodi.sourceforge.net/DTD/sodipodi-0.dtd"
   xmlns:inkscape="http://www.inkscape.org/namespaces/inkscape"
   viewBox="0 0 36 26"
   id="svg2"
   version="1.1"
   inkscape:version="0.91 r13725"
   sodipodi:docname="1f1ec-1f1f6.svg"
   width="36"
   height="26">
  <metadata
     id="metadata46">
    <rdf:RDF>
      <cc:Work
         rdf:about="">
        <dc:format>image/svg+xml</dc:format>
        <dc:type
           rdf:resource="http://purl.org/dc/dcmitype/StillImage" />
      </cc:Work>
    </rdf:RDF>
  </metadata>
  <defs
     id="defs44" />
  <sodipodi:namedview
     pagecolor="#ffffff"
     bordercolor="#666666"
     borderopacity="1"
     objecttolerance="10"
     gridtolerance="10"
     guidetolerance="10"
     inkscape:pageopacity="0"
     inkscape:pageshadow="2"
     inkscape:window-width="640"
     inkscape:window-height="480"
     id="namedview42"
     showgrid="false"
     inkscape:zoom="6.5555556"
     inkscape:cx="18"
     inkscape:cy="13"
     inkscape:window-x="0"
     inkscape:window-y="0"
     inkscape:window-maximized="0"
     inkscape:current-layer="svg2" />
  <path
     d="m 36,22 c 0,2.209 -1.791,4 -4,4 L 4,26 C 1.791,26 0,24.209 0,22 L 0,4 C 0,1.791 1.791,0 4,0 l 28,0 c 2.209,0 4,1.791 4,4 l 0,18 z"
     id="path4"
     inkscape:connector-curvature="0"
     style="fill:#e32118" />
  <path
     d="M 0,8 36,8 36,18 0,18 Z"
     id="path6"
     inkscape:connector-curvature="0"
     style="fill:#eeeeee" />
  <path
     d="M 32,0 4,0 C 1.791,0 0,1.791 0,4 L 0,8 36,8 36,4 C 36,1.791 34.209,0 32,0 Z"
     id="path8"
     inkscape:connector-curvature="0"
     style="fill:#3e9a00" />
  <path
     d="M 7.333,8 1.91,0.604 C 0.768,1.308 0,2.56 0,4 l 0,18 c 0,1.44 0.768,2.692 1.91,3.396 L 7.333,18 11,13 7.333,8 Z"
     id="path10"
     inkscape:connector-curvature="0"
     style="fill:#0173ce" />
  <path
     d="m 18.443,10 -2.396,0 0,4.75 c 0,0.969 0.547,1.125 0.828,1.125 l 0.922,0 c 0.578,0 0.646,0.479 0.646,0.479 0,0 0.068,-0.479 0.646,-0.479 l 0.922,0 c 0.281,0 0.828,-0.156 0.828,-1.125 l 0,-4.75 -2.396,0 z"
     id="path12"
     inkscape:connector-curvature="0" />
  <path
     d="M 18.443,15.93 C 18.31,15.789 18.104,15.675 17.797,15.675 l -0.922,0 c -0.188,0 -0.628,-0.09 -0.628,-0.925 l 0,-4.55 4.392,0 0,4.55 c 0,0.835 -0.439,0.925 -0.628,0.925 l -0.921,0 c -0.308,0 -0.514,0.114 -0.647,0.255 z"
     id="path14"
     inkscape:connector-curvature="0"
     style="fill:#ffffff" />
  <path
     d="m 14.922,13.703 c 0,0 0.249,0.438 0.562,0.734 0.578,0.547 -0.352,0.984 -0.352,0.984 0,0 -0.289,-0.188 -0.383,-0.406 -0.093,-0.218 0.235,-0.874 0.173,-1.312 z"
     id="path16"
     inkscape:connector-curvature="0" />
  <path
     d="m 15.148,15.185 c -0.085,-0.069 -0.179,-0.164 -0.215,-0.248 -0.015,-0.056 0.04,-0.273 0.077,-0.418 0.021,-0.078 0.041,-0.16 0.06,-0.243 0.082,0.104 0.176,0.213 0.276,0.308 0.143,0.135 0.129,0.22 0.125,0.248 -0.02,0.131 -0.189,0.27 -0.323,0.353 z"
     id="path18"
     inkscape:connector-curvature="0"
     style="fill:#ffffff" />
  <path
     d="m 15.202,14.73 c 0,0 10e-4,0.776 0.767,1.081 0.943,0.376 1.594,0.22 1.672,0.251 0.078,0.031 0,0.797 0,0.797 0,0 -1.043,0.172 -1.967,-0.266 -0.924,-0.438 -0.877,-0.782 -0.829,-0.876 0.048,-0.094 0.11,-0.161 0.155,-0.405 0.042,-0.227 0.202,-0.582 0.202,-0.582 z"
     id="path20"
     inkscape:connector-curvature="0" />
  <path
     d="m 17.134,16.692 c -0.357,0 -0.887,-0.048 -1.374,-0.279 -0.668,-0.316 -0.75,-0.56 -0.735,-0.608 0.066,-0.115 0.122,-0.212 0.164,-0.414 0.128,0.229 0.343,0.462 0.706,0.607 0.452,0.181 0.913,0.271 1.37,0.271 0.082,0 0.153,-0.002 0.211,-0.005 0.001,0.105 -0.007,0.262 -0.019,0.416 -0.082,0.007 -0.192,0.012 -0.323,0.012 z"
     id="path22"
     inkscape:connector-curvature="0"
     style="fill:#ffffff" />
  <path
     d="m 21.965,13.703 c 0,0 -0.249,0.438 -0.562,0.734 -0.578,0.547 0.352,0.984 0.352,0.984 0,0 0.289,-0.188 0.383,-0.406 0.092,-0.218 -0.236,-0.874 -0.173,-1.312 z"
     id="path24"
     inkscape:connector-curvature="0" />
  <path
     d="m 21.738,15.185 c 0.085,-0.069 0.179,-0.164 0.215,-0.248 0.015,-0.056 -0.04,-0.273 -0.077,-0.418 -0.021,-0.078 -0.041,-0.16 -0.06,-0.243 -0.082,0.104 -0.176,0.213 -0.276,0.308 -0.143,0.135 -0.129,0.22 -0.125,0.248 0.02,0.131 0.189,0.27 0.323,0.353 z"
     id="path26"
     inkscape:connector-curvature="0"
     style="fill:#ffffff" />
  <path
     d="m 21.685,14.73 c 0,0 -10e-4,0.776 -0.767,1.081 -0.943,0.376 -1.594,0.22 -1.672,0.251 -0.078,0.031 0,0.797 0,0.797 0,0 1.043,0.172 1.967,-0.266 0.924,-0.438 0.877,-0.782 0.829,-0.876 -0.049,-0.094 -0.11,-0.161 -0.155,-0.405 -0.042,-0.227 -0.202,-0.582 -0.202,-0.582 z"
     id="path28"
     inkscape:connector-curvature="0" />
  <path
     d="m 19.753,16.692 c 0.358,0 0.887,-0.048 1.374,-0.279 0.668,-0.316 0.75,-0.56 0.735,-0.608 -0.066,-0.115 -0.122,-0.212 -0.164,-0.414 -0.128,0.229 -0.343,0.462 -0.706,0.607 -0.452,0.181 -0.913,0.271 -1.37,0.271 -0.082,0 -0.153,-0.002 -0.211,-0.005 -0.001,0.105 0.007,0.262 0.02,0.416 0.081,0.007 0.191,0.012 0.322,0.012 z"
     id="path30"
     inkscape:connector-curvature="0"
     style="fill:#ffffff" />
  <path
     d="m 19.715,16.354 c 0,0 -0.012,0.338 -1.271,0.338 -1.26,0 -1.271,-0.338 -1.271,-0.338 0,0 -0.047,0.538 0,0.755 0.047,0.217 0.375,0.344 1.271,0.344 0.896,0 1.225,-0.127 1.271,-0.344 0.047,-0.216 0,-0.755 0,-0.755 z"
     id="path32"
     inkscape:connector-curvature="0" />
  <path
     d="m 18.443,17.253 c -1.007,0 -1.072,-0.167 -1.076,-0.185 -0.015,-0.067 -0.018,-0.19 -0.016,-0.319 0.219,0.083 0.56,0.145 1.092,0.145 0.531,0 0.873,-0.061 1.092,-0.145 0.002,0.13 -0.001,0.252 -0.016,0.319 -0.003,0.018 -0.069,0.185 -1.076,0.185 z"
     id="path34"
     inkscape:connector-curvature="0"
     style="fill:#ffffff" />
  <path
     d="m 17.854,8.476 0.169,0.293 0.339,0 -0.17,0.293 0.17,0.294 -0.339,0 -0.169,0.293 -0.169,-0.293 -0.339,0 0.169,-0.294 -0.169,-0.293 0.339,0 z m -1.339,0.155 0.23,0.248 0.33,-0.076 -0.099,0.324 0.231,0.248 -0.33,0.076 -0.099,0.324 -0.231,-0.248 -0.33,0.076 0.098,-0.324 -0.23,-0.248 0.33,-0.076 z m -1.259,0.431 0.273,0.201 0.31,-0.138 -0.037,0.338 0.274,0.199 -0.309,0.137 -0.036,0.337 -0.274,-0.2 -0.309,0.137 0.035,-0.336 -0.274,-0.2 0.31,-0.137 z m 3.862,-0.586 -0.169,0.293 -0.339,0 0.17,0.293 -0.17,0.294 0.339,0 0.169,0.293 0.17,-0.293 0.339,0 -0.169,-0.294 0.169,-0.293 -0.339,0 z m 1.34,0.155 -0.23,0.248 -0.331,-0.076 0.1,0.324 -0.231,0.248 0.33,0.076 0.098,0.324 0.232,-0.248 0.33,0.076 -0.099,-0.324 0.231,-0.248 -0.33,-0.076 z m 1.259,0.431 -0.274,0.201 -0.309,-0.138 0.037,0.338 -0.275,0.199 0.31,0.137 0.036,0.337 0.274,-0.2 0.309,0.137 L 21.79,9.737 22.063,9.537 21.754,9.4 Z"
     id="path36"
     inkscape:connector-curvature="0"
     style="fill:#ffd701" />
  <path
     d="m 18.443,15.625 c -0.6,0 -0.693,-0.219 -0.49,-0.688 0.203,-0.469 0.312,-1.104 0.312,-1.873 0,-0.768 -0.273,-0.94 -0.59,-1.237 -0.316,-0.297 0.162,-0.188 0.384,0 0.222,0.188 0.303,0.359 0.303,0.359 l 0,-0.719 0.248,0.078 0,0.547 c 0,0 0.36,-0.312 0.602,-0.344 0.241,-0.031 0.382,0.156 0.069,0.25 -0.312,0.094 -0.671,0.255 -0.671,1.065 0,0.81 0.124,1.654 0.28,1.951 0.157,0.298 0.153,0.611 -0.447,0.611 z"
     id="path38"
     inkscape:connector-curvature="0"
     style="fill:#a36629" />
  <path
     d="m 17.75,12.547 c -0.318,0.167 -0.543,-0.203 -0.543,-0.203 0,0 -0.289,0.203 -0.561,0.062 -0.271,-0.141 -0.229,-0.266 0,-0.391 0.229,-0.125 0.505,-0.156 0.505,-0.156 0,0 0.071,-0.344 0.194,-0.578 0.123,-0.234 0.33,-0.328 0.33,-0.328 0,0 0.252,-0.547 0.687,-0.578 0.435,-0.031 0.435,0.422 0.435,0.422 0,0 0.27,0 0.322,0.156 0.24,-0.25 0.662,-0.219 0.756,-0.109 0.094,0.109 0,0.344 0,0.344 0,0 0.371,-0.109 0.451,0.016 0.08,0.125 0,0.286 0,0.286 0,0 0.299,0.058 0.158,0.386 -0.141,0.328 -0.578,0.234 -0.578,0.234 0,0 -0.178,0.188 -0.37,0.172 C 19.344,12.266 19.281,12 19.281,12 c 0,0 -0.298,0.078 -0.484,-0.188 -0.187,0.281 -0.531,0.125 -0.578,0.016 -0.047,0.36 -0.141,0.547 -0.469,0.719 z"
     id="path40"
     inkscape:connector-curvature="0"
     style="fill:#009a3b" />
</svg>
