<?xml version="1.0" encoding="UTF-8" standalone="no"?>
<svg
   xmlns:dc="http://purl.org/dc/elements/1.1/"
   xmlns:cc="http://creativecommons.org/ns#"
   xmlns:rdf="http://www.w3.org/1999/02/22-rdf-syntax-ns#"
   xmlns:svg="http://www.w3.org/2000/svg"
   xmlns="http://www.w3.org/2000/svg"
   xmlns:sodipodi="http://sodipodi.sourceforge.net/DTD/sodipodi-0.dtd"
   xmlns:inkscape="http://www.inkscape.org/namespaces/inkscape"
   viewBox="0 0 36 26"
   id="svg2"
   version="1.1"
   inkscape:version="0.91 r13725"
   sodipodi:docname="1f1ec-1f1f9.svg"
   width="36"
   height="26">
  <metadata
     id="metadata42">
    <rdf:RDF>
      <cc:Work
         rdf:about="">
        <dc:format>image/svg+xml</dc:format>
        <dc:type
           rdf:resource="http://purl.org/dc/dcmitype/StillImage" />
      </cc:Work>
    </rdf:RDF>
  </metadata>
  <defs
     id="defs40" />
  <sodipodi:namedview
     pagecolor="#ffffff"
     bordercolor="#666666"
     borderopacity="1"
     objecttolerance="10"
     gridtolerance="10"
     guidetolerance="10"
     inkscape:pageopacity="0"
     inkscape:pageshadow="2"
     inkscape:window-width="640"
     inkscape:window-height="480"
     id="namedview38"
     showgrid="false"
     inkscape:zoom="6.5555556"
     inkscape:cx="18"
     inkscape:cy="13"
     inkscape:window-x="0"
     inkscape:window-y="0"
     inkscape:window-maximized="0"
     inkscape:current-layer="svg2" />
  <path
     d="m 32,0 -8,0 0,26 8,0 c 2.209,0 4,-1.791 4,-4 L 36,4 C 36,1.791 34.209,0 32,0 Z M 4,0 C 1.791,0 0,1.791 0,4 l 0,18 c 0,2.209 1.791,4 4,4 l 8,0 0,-26 -8,0 z"
     id="path4"
     inkscape:connector-curvature="0"
     style="fill:#4997d0" />
  <path
     d="m 12,0 12,0 0,26 -12,0 z"
     id="path6"
     inkscape:connector-curvature="0"
     style="fill:#eeeeee" />
  <path
     d="m 22.658,13.736 c 0.113,-0.242 0.097,-0.396 -0.034,-0.259 -0.115,0.12 -0.283,0.162 -0.492,0.31 l 0.017,-0.059 c 0.183,-0.346 0.579,-0.179 0.813,-0.731 0.041,-0.102 0.25,-0.211 -0.035,-0.194 -0.204,0.012 -0.461,0.133 -0.647,0.393 0.142,-0.386 0.484,-0.189 0.624,-1.119 0.025,-0.171 0.045,-0.52 -0.068,-0.234 -0.046,0.114 -0.156,0.228 -0.272,0.364 0.038,-0.192 0.025,-0.359 -0.015,-0.486 0.072,-0.111 0.137,-0.225 0.155,-0.357 0.031,-0.227 -0.023,-0.428 -0.109,-0.189 -0.03,0.086 -0.087,0.142 -0.147,0.2 -0.022,-0.08 -0.043,-0.108 -0.105,0 -0.065,0.112 -0.1,0.255 -0.12,0.414 l -0.002,0.01 c -0.015,-0.084 -0.035,-0.167 -0.054,-0.249 0.046,-0.312 0.527,-0.303 0.36,-1.311 -0.039,-0.244 -0.057,-0.315 -0.143,-0.012 -0.08,0.281 -0.328,0.304 -0.34,0.866 L 22.023,11.028 C 21.968,10.489 22.337,10.038 22.058,9.576 21.91,9.33 21.831,9.308 21.847,9.508 c 0.019,0.233 -0.121,0.48 -0.095,0.819 l -0.01,-0.022 C 21.683,9.888 21.833,9.762 21.664,9.491 21.576,9.353 21.445,9.171 21.479,9.399 c 0.007,0.046 0.011,0.1 0.016,0.156 -0.054,-0.236 -0.258,-0.381 -0.516,-0.464 -0.244,-0.079 -0.17,0.037 -0.08,0.131 0.128,0.137 0.095,0.305 0.254,0.512 -0.172,-0.083 -0.321,-0.091 -0.42,-0.215 -0.195,-0.241 -0.094,0.067 -0.047,0.206 0.095,0.272 0.254,0.418 0.438,0.511 -0.018,0.02 -0.01,0.09 0.042,0.236 0.064,0.18 0.143,0.314 0.228,0.422 -0.064,-0.04 -0.122,-0.084 -0.165,-0.148 -0.205,-0.303 -0.285,-0.337 -0.246,0.024 0.035,0.313 0.168,0.48 0.329,0.59 0.002,0.063 0.025,0.151 0.089,0.243 0.114,0.165 0.234,0.234 0.345,0.276 0.055,0.128 0.085,0.247 0.114,0.37 -0.007,-0.005 -0.012,-0.014 -0.02,-0.019 -0.307,-0.217 -0.23,-0.092 -0.205,0.097 0.115,0.891 0.537,0.585 0.451,1.16 -0.012,0.053 -0.024,0.104 -0.038,0.155 0.015,-0.331 -0.138,-0.518 -0.264,-0.664 -0.174,-0.201 -0.234,-0.143 -0.148,0.229 0.02,0.087 0.04,0.195 0.057,0.309 l -0.004,-0.012 c -0.174,-0.351 -0.225,-0.25 -0.209,0.017 0.02,0.257 -0.197,0.359 -0.057,0.852 0.042,0.144 0.063,0.421 -0.077,0.633 l -0.024,0.032 c 0.308,-0.569 -0.064,-0.739 -0.03,-0.911 0.041,-0.195 -0.01,-0.229 -0.119,0.012 -0.125,0.278 -0.099,0.474 -0.061,0.64 -0.023,0.013 -0.04,0.02 -0.07,0.04 -0.099,0.067 -0.179,0.132 -0.246,0.194 0.009,-0.054 0.024,-0.106 0.029,-0.16 0.025,-0.255 -0.045,-0.38 -0.154,-0.104 -0.137,0.339 -0.383,0.332 -0.539,0.841 -0.123,0.411 -0.214,0.494 -0.405,0.575 l -0.028,0.012 c 0.289,-0.224 0.448,-0.525 0.491,-0.875 0.045,-0.388 -0.051,-0.332 -0.182,-0.098 -0.125,0.225 -0.363,0.192 -0.514,0.683 -0.047,0.152 -0.158,0.385 -0.45,0.491 0.395,-0.281 0.568,-0.745 0.522,-1.023 -0.021,-0.138 -0.086,-0.223 -0.148,0.005 -0.074,0.28 -0.279,0.212 -0.445,0.743 -0.085,0.27 -0.159,0.325 -0.513,0.485 l 0.052,-0.01 c -0.207,0.084 -0.387,0.171 -0.537,0.26 -0.141,-0.085 -0.316,-0.168 -0.517,-0.249 l 0.029,0.005 c -0.35,-0.159 -0.424,-0.213 -0.508,-0.48 -0.162,-0.525 -0.367,-0.457 -0.44,-0.733 -0.06,-0.227 -0.124,-0.143 -0.146,-0.007 -0.046,0.274 0.125,0.731 0.511,1.009 -0.285,-0.106 -0.394,-0.334 -0.441,-0.483 -0.148,-0.485 -0.383,-0.452 -0.507,-0.674 -0.129,-0.232 -0.225,-0.287 -0.179,0.096 0.041,0.345 0.198,0.643 0.483,0.864 L 16.2,16.161 c -0.165,-0.078 -0.251,-0.173 -0.367,-0.554 -0.152,-0.504 -0.396,-0.496 -0.532,-0.83 -0.11,-0.272 -0.177,-0.15 -0.151,0.102 0.005,0.054 0.019,0.106 0.029,0.159 -0.066,-0.062 -0.145,-0.126 -0.243,-0.192 -0.03,-0.02 -0.047,-0.027 -0.07,-0.04 0.037,-0.164 0.063,-0.359 -0.061,-0.634 -0.108,-0.236 -0.158,-0.203 -0.119,-0.012 0.035,0.173 -0.335,0.34 -0.024,0.908 l -0.023,-0.03 c -0.146,-0.211 -0.123,-0.489 -0.083,-0.635 0.139,-0.486 -0.074,-0.587 -0.056,-0.841 0.018,-0.265 -0.034,-0.364 -0.205,-0.017 l -0.005,0.014 c 0.017,-0.114 0.037,-0.221 0.057,-0.307 0.085,-0.368 0.023,-0.425 -0.146,-0.226 -0.125,0.145 -0.277,0.33 -0.262,0.657 -0.014,-0.051 -0.026,-0.103 -0.038,-0.156 -0.084,-0.566 0.332,-0.266 0.447,-1.146 0.024,-0.187 0.101,-0.311 -0.204,-0.096 -0.008,0.005 -0.013,0.014 -0.02,0.019 0.029,-0.122 0.059,-0.24 0.115,-0.367 0.11,-0.042 0.228,-0.11 0.341,-0.273 0.063,-0.092 0.086,-0.178 0.087,-0.241 0.158,-0.109 0.289,-0.275 0.323,-0.584 0.04,-0.355 -0.039,-0.322 -0.241,-0.023 -0.043,0.063 -0.1,0.107 -0.163,0.146 0.083,-0.107 0.162,-0.238 0.225,-0.416 0.05,-0.144 0.058,-0.214 0.04,-0.234 0.183,-0.093 0.341,-0.237 0.433,-0.506 C 15.331,9.668 15.43,9.365 15.238,9.602 15.139,9.725 14.993,9.733 14.823,9.815 14.981,9.611 14.948,9.444 15.074,9.308 15.162,9.214 15.237,9.1 14.996,9.178 14.739,9.26 14.538,9.404 14.484,9.637 14.489,9.582 14.493,9.528 14.5,9.483 14.534,9.257 14.403,9.438 14.319,9.573 14.151,9.841 14.297,9.966 14.242,10.376 l -0.011,0.025 c 0.026,-0.336 -0.113,-0.58 -0.095,-0.811 0.016,-0.197 -0.061,-0.175 -0.207,0.068 -0.275,0.455 0.087,0.9 0.036,1.431 l -0.02,0.063 c -0.015,-0.551 -0.26,-0.573 -0.337,-0.851 -0.086,-0.3 -0.102,-0.229 -0.142,0.012 -0.164,0.996 0.312,0.987 0.356,1.296 -0.019,0.082 -0.038,0.164 -0.053,0.247 l -0.003,-0.014 c -0.007,-0.054 -0.022,-0.099 -0.034,-0.147 l -0.004,-0.011 c -0.022,-0.087 -0.042,-0.177 -0.081,-0.246 -0.061,-0.107 -0.081,-0.079 -0.103,0 -0.059,-0.057 -0.115,-0.112 -0.145,-0.198 -0.084,-0.237 -0.139,-0.038 -0.108,0.187 0.018,0.13 0.082,0.243 0.153,0.353 -0.039,0.126 -0.052,0.292 -0.014,0.482 -0.115,-0.135 -0.223,-0.248 -0.268,-0.361 -0.113,-0.282 -0.093,0.062 -0.068,0.232 0.138,0.922 0.477,0.724 0.617,1.108 -0.184,-0.259 -0.437,-0.379 -0.64,-0.391 -0.282,-0.017 -0.076,0.092 -0.034,0.192 0.231,0.547 0.621,0.382 0.802,0.723 l 0.017,0.059 c -0.207,-0.147 -0.371,-0.189 -0.485,-0.308 -0.13,-0.135 -0.145,0.018 -0.033,0.257 -0.122,0.014 -0.252,0.024 -0.334,-0.003 -0.102,-0.034 -0.102,0.119 0.181,0.238 0.129,0.054 0.333,0.138 0.529,0.234 0.145,0.109 0.29,0.183 0.415,0.297 -0.389,-0.28 -0.682,-0.145 -0.9,-0.272 -0.271,-0.157 -0.124,0.089 -0.049,0.164 0.764,0.765 0.884,0.187 1.307,0.593 -0.066,-0.03 -0.137,-0.053 -0.217,-0.063 -0.339,-0.039 -0.46,-0.089 -0.283,0.125 0.211,0.256 0.384,0.38 0.536,0.448 -0.1,-0.001 -0.197,0.004 -0.286,0.022 -0.218,0.046 -0.143,0.086 0.004,0.13 0.18,0.054 0.294,0.18 0.494,0.262 l -0.002,0 c -0.328,0.102 -0.384,0.14 -0.135,0.263 0.425,0.213 0.722,0.219 0.958,0.18 -0.114,0.036 -0.217,0.086 -0.305,0.151 -0.18,0.133 -0.131,0.183 0.023,0.158 0.291,-0.047 0.472,0.04 0.712,0.04 -0.146,0.107 -0.268,0.228 -0.487,0.293 -0.147,0.044 -0.195,0.126 0.045,0.148 0.917,0.078 1.15,-0.496 1.588,-0.49 0.224,0.069 0.434,0.151 0.633,0.284 -0.06,0.046 -0.124,0.093 -0.159,0.136 0.011,0.103 0.247,0.052 0.271,0.109 0.03,-0.032 0.062,-0.055 0.093,-0.083 0.031,0.028 0.062,0.051 0.093,0.083 0.023,-0.057 0.219,-0.039 0.23,-0.141 -0.027,-0.034 -0.08,-0.069 -0.122,-0.104 0.204,-0.137 0.417,-0.22 0.646,-0.291 0.443,-0.006 0.679,0.575 1.606,0.496 0.242,-0.022 0.195,-0.105 0.047,-0.15 -0.222,-0.065 -0.346,-0.188 -0.494,-0.296 0.243,10e-4 0.427,-0.087 0.721,-0.04 0.156,0.024 0.205,-0.026 0.022,-0.161 -0.088,-0.066 -0.193,-0.116 -0.308,-0.153 0.239,0.039 0.54,0.034 0.97,-0.182 0.252,-0.124 0.195,-0.163 -0.135,-0.266 l -0.002,0 c 0.202,-0.083 0.317,-0.21 0.498,-0.265 0.15,-0.045 0.225,-0.085 0.004,-0.131 -0.089,-0.019 -0.188,-0.024 -0.289,-0.023 0.154,-0.069 0.33,-0.195 0.545,-0.454 0.176,-0.217 0.055,-0.165 -0.287,-0.126 -0.083,0.01 -0.156,0.033 -0.224,0.065 0.431,-0.415 0.55,0.174 1.326,-0.602 0.074,-0.073 0.223,-0.324 -0.051,-0.164 -0.221,0.129 -0.52,-0.011 -0.919,0.283 0.129,-0.121 0.281,-0.196 0.431,-0.31 0.197,-0.097 0.402,-0.181 0.533,-0.236 0.287,-0.121 0.287,-0.274 0.182,-0.24 -0.081,0.031 -0.211,0.021 -0.335,0.007 z m -6.94,2.353 0.105,0.066 c -0.113,-0.051 -0.244,-0.1 -0.385,-0.143 0.079,0.003 0.171,0.021 0.29,0.088 l -0.01,-0.011 z m 1.23,0.324 -0.053,-0.016 0.037,0.006 0.016,0.01 z M 14.83,14.972 c 0.009,0.014 0.011,0.022 0.021,0.038 0.086,0.134 0.1,0.272 0.183,0.435 -0.039,-0.035 -0.078,-0.07 -0.116,-0.107 -0.106,-0.128 -0.113,-0.242 -0.088,-0.366 z m -0.165,-4.493 c -0.112,0.149 -0.297,0.172 -0.469,0.314 0.099,-0.172 0.228,-0.333 0.39,-0.376 0.063,-0.017 0.124,-0.039 0.184,-0.063 -0.029,0.031 -0.063,0.07 -0.105,0.125 z m -0.17,4.54 0.016,0.018 -0.012,-0.007 -0.004,-0.011 z m 1.136,1.362 c 0.172,-0.035 0.315,-0.08 0.455,-0.072 l 0.059,0.03 c -0.186,-0.009 -0.36,0.002 -0.514,0.042 z m 5.937,-6.252 c 0,0 -0.001,0 0,0 -0.001,0 0,0 0,0 z m -0.253,0.275 c -0.043,-0.056 -0.077,-0.096 -0.108,-0.127 0.06,0.025 0.122,0.046 0.186,0.064 0.164,0.044 0.295,0.207 0.394,0.38 -0.173,-0.143 -0.359,-0.167 -0.472,-0.317 z m -0.779,5.594 c -0.142,0.043 -0.274,0.092 -0.388,0.143 l 0.098,-0.062 -0.005,0.006 c 0.122,-0.066 0.215,-0.084 0.295,-0.087 z m 0.59,-1.013 0.022,-0.039 c 0.025,0.125 0.019,0.24 -0.088,0.369 -0.039,0.038 -0.079,0.075 -0.12,0.11 0.085,-0.165 0.099,-0.304 0.186,-0.44 z m -2.104,1.409 0.042,-0.007 -0.061,0.019 c 0.006,-0.003 0.013,-0.007 0.019,-0.012 z m 0.798,-0.066 0.062,-0.031 c 0.146,-0.007 0.294,0.042 0.476,0.077 -0.16,-0.043 -0.343,-0.054 -0.538,-0.046 z m 1.65,-1.314 0.015,-0.018 -0.003,0.01 c -0.005,0.002 -0.008,0.006 -0.012,0.008 z"
     id="path8"
     inkscape:connector-curvature="0"
     style="fill:#437e24" />
  <path
     d="m 16.595,13.422 c 0,0 -0.763,0.686 -0.857,0.779 -0.093,0.093 -0.187,0.499 -0.187,0.499 l 0.249,0.155 1.107,-1.137 -0.312,-0.296 z"
     id="path10"
     inkscape:connector-curvature="0"
     style="fill:#b1b6ba" />
  <path
     d="m 15.536,14.685 0.234,0.186 c 0,0 -0.203,0.202 -0.234,0.405 -0.031,0.203 -0.577,0.825 -0.686,0.981 -0.109,0.157 -0.25,0.124 -0.312,0 -0.061,-0.124 -0.201,-0.218 -0.217,-0.311 -0.017,-0.093 0.343,-0.421 0.514,-0.607 0.17,-0.188 0.357,-0.265 0.451,-0.373 0.094,-0.111 0.25,-0.281 0.25,-0.281 z m 1.107,-1.092 -0.473,0.529 0.126,0.126 0.455,-0.515 z"
     id="path12"
     inkscape:connector-curvature="0"
     style="fill:#6c301e" />
  <path
     d="m 14.46,8.981 1.512,1.573 0.374,-0.187 -0.117,-0.169 -0.257,0.06 z"
     id="path14"
     inkscape:connector-curvature="0"
     style="fill:#b1b6ba" />
  <path
     d="m 16.346,15.524 0.187,0.313 0.17,-0.157 c 0,0 0.138,0.25 0,0.296 -0.139,0.048 -0.242,0 -0.242,0 l -0.474,0.387 c 0,0 -0.187,-0.113 -0.343,0 0,0 0.032,-0.229 0.126,-0.229 0.093,0 0.434,-0.452 0.434,-0.452 0,0 -0.181,-0.051 -0.144,-0.157 0.037,-0.108 0.286,-0.001 0.286,-0.001 z"
     id="path16"
     inkscape:connector-curvature="0"
     style="fill:#fab81b" />
  <path
     d="m 16.346,15.65 c 0,0 2.773,-2.758 3.927,-2.862 0,0 -0.873,0.531 -1.418,0.967 -0.546,0.437 -2.321,2.083 -2.321,2.083 L 16.346,15.65 Z"
     id="path18"
     inkscape:connector-curvature="0"
     style="fill:#b1b6ba" />
  <path
     d="m 19.493,13.422 c 0,0 0.764,0.686 0.855,0.779 0.094,0.093 0.188,0.499 0.188,0.499 l -0.248,0.155 -1.107,-1.137 0.312,-0.296 z"
     id="path20"
     inkscape:connector-curvature="0"
     style="fill:#b1b6ba" />
  <path
     d="m 20.552,14.685 -0.234,0.186 c 0,0 0.203,0.202 0.234,0.405 0.031,0.203 0.578,0.825 0.686,0.981 0.109,0.157 0.25,0.124 0.312,0 0.062,-0.124 0.201,-0.218 0.217,-0.311 0.018,-0.093 -0.344,-0.421 -0.514,-0.607 -0.17,-0.188 -0.357,-0.265 -0.451,-0.373 -0.094,-0.111 -0.25,-0.281 -0.25,-0.281 z m -1.108,-1.092 0.473,0.529 -0.125,0.126 -0.455,-0.515 z"
     id="path22"
     inkscape:connector-curvature="0"
     style="fill:#6c301e" />
  <path
     d="m 18.785,11.264 -0.176,0.498 1.505,-1.504 -0.231,-0.042 z"
     id="path24"
     inkscape:connector-curvature="0"
     style="fill:#b1b6ba" />
  <path
     d="m 21.626,8.981 -1.512,1.573 -0.373,-0.187 0.373,-0.109 z"
     id="path26"
     inkscape:connector-curvature="0"
     style="fill:#b1b6ba" />
  <path
     d="m 19.741,15.524 -0.185,0.313 -0.17,-0.157 c 0,0 -0.139,0.25 0,0.296 0.137,0.048 0.242,0 0.242,0 l 0.473,0.387 c 0,0 0.188,-0.113 0.342,0 0,0 -0.031,-0.229 -0.125,-0.229 -0.094,0 -0.434,-0.452 -0.434,-0.452 0,0 0.18,-0.051 0.143,-0.157 -0.036,-0.108 -0.286,-0.001 -0.286,-0.001 z"
     id="path28"
     inkscape:connector-curvature="0"
     style="fill:#fab81b" />
  <path
     d="m 19.741,15.65 c 0,0 -2.773,-2.758 -3.926,-2.862 0,0 0.874,0.531 1.418,0.967 0.546,0.437 2.322,2.083 2.322,2.083 l 0.186,-0.188 z"
     id="path30"
     inkscape:connector-curvature="0"
     style="fill:#b1b6ba" />
  <path
     d="m 16.367,10.164 c 0.453,-0.026 1.76,0.016 2.244,0 0.482,-0.015 0.373,0.234 0.404,0.375 0.031,0.14 -0.263,0.296 -0.263,0.296 0,0 0.31,0.187 0.716,1.278 0.404,1.091 0.31,1.588 -0.234,1.621 -0.544,0.031 -1.947,0.125 -2.416,0.125 -0.467,0 -0.545,-0.171 -0.545,-0.421 0,-0.249 0.374,-0.624 0.748,-0.411 0,0 0,-0.166 -0.218,-0.789 -0.218,-0.623 -0.686,-1.293 -0.732,-1.589 -0.048,-0.298 0.062,-0.471 0.296,-0.485 z"
     id="path32"
     inkscape:connector-curvature="0"
     style="fill:#f9f0aa" />
  <path
     d="m 17.738,9.089 c -0.187,-0.172 0.073,-0.359 0.263,-0.343 0.188,0.016 0.282,0.124 0.08,0.343 0,0 0.546,0.296 0.981,0.701 0.436,0.405 1.332,1.498 1.418,2.68 0.109,1.527 -0.732,2.321 -1.045,2.866 -0.311,0.546 -1.011,1.917 -1.011,1.917 0,0 -0.016,-0.701 0.904,-1.979 0,0 -0.716,1.278 -1.823,1.512 0,0 1.385,-0.976 1.774,-1.756 0.389,-0.778 0.957,-1.949 0.865,-2.759 -0.094,-0.811 -0.24,-1.499 -1.315,-2.03 0,0 -0.681,-0.038 -0.981,-0.28 -0.484,-0.389 -0.11,-0.872 -0.11,-0.872 z"
     id="path34"
     inkscape:connector-curvature="0"
     style="fill:#437e24" />
  <path
     d="m 18.751,10.835 c 0,0.047 0.202,0.3 0.175,0.3 l -2.381,0 c -0.026,0 -0.16,-0.165 -0.16,-0.212 L 16.203,10.71 c 0.142,0.055 0.315,0 0.341,0 l 2.38,0 c 0.028,0 -0.173,0.077 -0.173,0.125 z m -1.729,2.758 c 0,0.047 -0.1,0.201 -0.073,0.201 l 2.381,0 c 0.025,0 0.245,-0.165 0.245,-0.212 l 0.096,-0.212 c -0.142,0.055 -0.315,0 -0.341,0 l -2.381,0 c -0.026,0 0.073,0.175 0.073,0.223 z"
     id="path36"
     inkscape:connector-curvature="0"
     style="fill:#e2cf81" />
</svg>
