<?xml version="1.0" encoding="UTF-8" standalone="no"?>
<svg
   xmlns:dc="http://purl.org/dc/elements/1.1/"
   xmlns:cc="http://creativecommons.org/ns#"
   xmlns:rdf="http://www.w3.org/1999/02/22-rdf-syntax-ns#"
   xmlns:svg="http://www.w3.org/2000/svg"
   xmlns="http://www.w3.org/2000/svg"
   xmlns:sodipodi="http://sodipodi.sourceforge.net/DTD/sodipodi-0.dtd"
   xmlns:inkscape="http://www.inkscape.org/namespaces/inkscape"
   viewBox="0 0 36 26"
   id="svg2"
   version="1.1"
   inkscape:version="0.91 r13725"
   sodipodi:docname="1f1e8-1f1fc.svg"
   width="36"
   height="26">
  <metadata
     id="metadata16">
    <rdf:RDF>
      <cc:Work
         rdf:about="">
        <dc:format>image/svg+xml</dc:format>
        <dc:type
           rdf:resource="http://purl.org/dc/dcmitype/StillImage" />
      </cc:Work>
    </rdf:RDF>
  </metadata>
  <defs
     id="defs14" />
  <sodipodi:namedview
     pagecolor="#ffffff"
     bordercolor="#666666"
     borderopacity="1"
     objecttolerance="10"
     gridtolerance="10"
     guidetolerance="10"
     inkscape:pageopacity="0"
     inkscape:pageshadow="2"
     inkscape:window-width="640"
     inkscape:window-height="480"
     id="namedview12"
     showgrid="false"
     inkscape:zoom="6.5555556"
     inkscape:cx="18"
     inkscape:cy="13"
     inkscape:window-x="0"
     inkscape:window-y="0"
     inkscape:window-maximized="0"
     inkscape:current-layer="svg2" />
  <path
     d="m 0,22 c 0,2.209 1.791,4 4,4 l 28,0 c 2.209,0 4,-1.791 4,-4 l 0,-2 -36,0 0,2 z"
     id="path4"
     inkscape:connector-curvature="0"
     style="fill:#002b7f" />
  <path
     d="m 0,16 36,0 0,4 -36,0 z"
     id="path6"
     inkscape:connector-curvature="0"
     style="fill:#f9e814" />
  <path
     d="M 32,0 4,0 C 1.791,0 0,1.791 0,4 L 0,16 36,16 36,4 C 36,1.791 34.209,0 32,0 Z M 4,4.764 2.824,5.618 3.273,4.236 2.098,3.382 3.551,3.382 4,2 4.449,3.382 5.902,3.382 4.727,4.236 5.176,5.618 4,4.764 Z M 9.567,10.157 8,9.019 6.433,10.158 7.032,8.315 5.465,7.176 7.402,7.176 8,5.333 l 0.599,1.843 1.937,0 -1.567,1.139 0.598,1.842 z"
     id="path8"
     inkscape:connector-curvature="0"
     style="fill:#002b7f" />
  <path
     d="M 8.599,7.176 8,5.333 7.401,7.176 5.464,7.176 7.031,8.315 6.433,10.157 8,9.019 9.567,10.157 8.969,8.315 10.536,7.176 Z M 5.902,3.382 4.449,3.382 4,2 3.551,3.382 2.098,3.382 3.273,4.236 2.824,5.618 4,4.764 5.176,5.618 4.727,4.236 Z"
     id="path10"
     inkscape:connector-curvature="0"
     style="fill:#ffffff" />
</svg>
