<?xml version="1.0" encoding="UTF-8" standalone="no"?>
<svg
   xmlns:dc="http://purl.org/dc/elements/1.1/"
   xmlns:cc="http://creativecommons.org/ns#"
   xmlns:rdf="http://www.w3.org/1999/02/22-rdf-syntax-ns#"
   xmlns:svg="http://www.w3.org/2000/svg"
   xmlns="http://www.w3.org/2000/svg"
   xmlns:sodipodi="http://sodipodi.sourceforge.net/DTD/sodipodi-0.dtd"
   xmlns:inkscape="http://www.inkscape.org/namespaces/inkscape"
   viewBox="0 0 36 26"
   id="svg2"
   version="1.1"
   inkscape:version="0.91 r13725"
   sodipodi:docname="1f1ee-1f1e8.svg"
   width="36"
   height="26">
  <metadata
     id="metadata48">
    <rdf:RDF>
      <cc:Work
         rdf:about="">
        <dc:format>image/svg+xml</dc:format>
        <dc:type
           rdf:resource="http://purl.org/dc/dcmitype/StillImage" />
      </cc:Work>
    </rdf:RDF>
  </metadata>
  <defs
     id="defs46" />
  <sodipodi:namedview
     pagecolor="#ffffff"
     bordercolor="#666666"
     borderopacity="1"
     objecttolerance="10"
     gridtolerance="10"
     guidetolerance="10"
     inkscape:pageopacity="0"
     inkscape:pageshadow="2"
     inkscape:window-width="640"
     inkscape:window-height="480"
     id="namedview44"
     showgrid="false"
     inkscape:zoom="6.5555556"
     inkscape:cx="18"
     inkscape:cy="13"
     inkscape:window-x="0"
     inkscape:window-y="0"
     inkscape:window-maximized="0"
     inkscape:current-layer="svg2" />
  <path
     d="m 36,22 c 0,2.209 -1.791,4 -4,4 L 4,26 C 1.791,26 0,24.209 0,22 L 0,4 C 0,1.791 1.791,0 4,0 l 28,0 c 2.209,0 4,1.791 4,4 l 0,18 z"
     id="path4"
     inkscape:connector-curvature="0"
     style="fill:#ffcc00" />
  <path
     d="M 4,0 C 1.791,0 0,1.791 0,4 l 0,18 c 0,2.209 1.791,4 4,4 l 8,0 0,-26 -8,0 z"
     id="path6"
     inkscape:connector-curvature="0"
     style="fill:#eeeeee" />
  <path
     d="m 12,0 12,0 0,26 -12,0 z"
     id="path8"
     inkscape:connector-curvature="0"
     style="fill:#0868a9" />
  <path
     d="m 21.021,11.3 c -0.278,-0.29 -0.614,0 -0.762,-0.088 -0.146,-0.088 -0.336,-0.154 -0.321,0.154 0.015,0.308 0.249,0.45 0.381,0.553 0.132,0.103 0.059,0.408 0.059,0.408 0,0 -0.22,-0.25 -0.308,-0.411 -0.088,-0.161 -0.161,-0.308 -0.322,-0.308 -0.161,0 -0.322,0.219 -0.22,0.307 0.103,0.088 0.469,0.176 0.469,0.41 0,0.234 0.146,0.469 0.146,0.469 l -0.044,0.161 c 0,0 -0.146,-0.073 -0.19,-0.161 -0.044,-0.088 0.044,-0.366 -0.161,-0.366 -0.205,0 -0.264,0.454 -0.132,0.527 0.132,0.073 0.513,0.498 0.513,0.498 0,0 0.16,0.307 0.409,0.454 0.249,0.146 0.572,0.469 0.572,0.469 0,0 -0.425,0.308 -0.454,0.498 -0.029,0.189 0.146,0.263 0.131,0.425 -0.015,0.16 -0.204,0.078 -0.365,0.166 -0.162,0.088 0.003,0.312 0.003,0.312 l 0.44,0 0.217,-0.405 0,-0.294 0.464,-0.103 c 0,0 -0.042,0.176 0.046,0.278 0.088,0.104 0.426,0.249 0.426,0.498 0,0.249 -0.131,0.257 -0.278,0.271 -0.146,0.016 -0.219,0.186 -0.219,0.186 l 0.572,0 c 0,0 0.16,-0.375 0.249,-0.55 0.087,-0.177 0.028,-0.298 -0.074,-0.343 -0.103,-0.044 -0.204,-0.273 -0.175,-0.463 0,0 0.204,0.164 0.439,0.12 0.234,-0.044 0.439,-0.241 0.454,-0.489 0.015,-0.25 0,-0.495 -0.234,-0.582 -0.234,-0.087 -0.189,0.164 -0.103,0.236 0.088,0.073 0.088,0.396 -0.029,0.47 -0.117,0.074 -0.307,0.162 -0.366,-0.043 -0.059,-0.205 -0.186,-0.526 -0.436,-0.614 -0.249,-0.088 -0.589,-0.645 -0.574,-1.04 0.012,-0.394 0.114,-1.259 -0.223,-1.61 z m -6.061,0 c 0.278,-0.29 0.615,0 0.761,-0.088 0.146,-0.088 0.337,-0.154 0.322,0.154 -0.015,0.308 -0.249,0.45 -0.38,0.553 -0.132,0.103 -0.059,0.408 -0.059,0.408 0,0 0.22,-0.25 0.308,-0.411 0.088,-0.161 0.161,-0.308 0.322,-0.308 0.161,0 0.322,0.219 0.22,0.307 -0.103,0.088 -0.469,0.176 -0.469,0.41 0,0.234 -0.146,0.469 -0.146,0.469 l 0.044,0.161 c 0,0 0.146,-0.073 0.19,-0.161 0.044,-0.088 -0.044,-0.366 0.161,-0.366 0.205,0 0.264,0.454 0.132,0.527 -0.132,0.073 -0.513,0.498 -0.513,0.498 0,0 -0.161,0.307 -0.41,0.454 -0.249,0.146 -0.571,0.469 -0.571,0.469 0,0 0.425,0.308 0.454,0.498 0.029,0.189 -0.146,0.263 -0.132,0.425 0.015,0.16 0.205,0.078 0.366,0.166 0.161,0.088 0.118,0.307 0.118,0.307 l -0.441,0 -0.336,-0.399 0,-0.294 -0.456,-0.103 c 0,0 0.038,0.176 -0.05,0.278 -0.088,0.104 -0.428,0.249 -0.428,0.498 0,0.249 0.13,0.257 0.277,0.271 0.146,0.016 0.218,0.186 0.218,0.186 l -0.571,0 c 0,0 -0.162,-0.375 -0.249,-0.55 -0.088,-0.177 -0.03,-0.298 0.073,-0.343 0.102,-0.044 0.205,-0.273 0.176,-0.463 0,0 -0.205,0.164 -0.439,0.12 -0.234,-0.044 -0.439,-0.241 -0.454,-0.489 -0.015,-0.25 0,-0.495 0.234,-0.582 0.234,-0.087 0.191,0.164 0.103,0.236 -0.088,0.073 -0.088,0.396 0.029,0.47 0.117,0.074 0.308,0.162 0.366,-0.043 0.059,-0.205 0.186,-0.526 0.436,-0.614 0.249,-0.088 0.589,-0.645 0.575,-1.04 -0.016,-0.395 -0.118,-1.26 0.219,-1.611 z"
     id="path10"
     inkscape:connector-curvature="0"
     style="fill:#c09b5a" />
  <path
     d="m 21.226,12.245 c -0.213,0.036 -0.555,0.009 -0.805,-0.007 -0.088,-0.005 -0.122,0.249 -0.059,0.264 0.196,0.045 0.713,0.076 0.875,-0.018 0.061,-0.036 0.084,-0.255 -0.011,-0.239 z"
     id="path12"
     inkscape:connector-curvature="0"
     style="fill:#8c8d8f" />
  <path
     d="m 20.176,11.169 c 0,0 -0.086,0.131 -0.239,0.154 0,0 -0.017,-0.124 0.072,-0.172 0.09,-0.048 0.167,0.018 0.167,0.018 z m 0.354,0.219 c -0.128,-0.026 -0.227,0.051 -0.103,0.095 0.126,0.044 0.183,-0.079 0.103,-0.095 z m 0.55,0.3 c 0,0 -0.015,0.468 -0.27,0.461 -0.257,-0.007 -0.154,-0.402 0,-0.571 0,0 -0.185,0.47 -0.016,0.483 0.169,0.015 0.286,-0.373 0.286,-0.373 z"
     id="path14"
     inkscape:connector-curvature="0" />
  <path
     d="m 14.754,12.245 c 0.213,0.036 0.555,0.009 0.806,-0.007 0.088,-0.005 0.122,0.249 0.058,0.264 -0.196,0.045 -0.712,0.076 -0.875,-0.018 -0.061,-0.036 -0.084,-0.255 0.011,-0.239 z"
     id="path16"
     inkscape:connector-curvature="0"
     style="fill:#8c8d8f" />
  <path
     d="m 15.805,11.169 c 0,0 0.085,0.131 0.239,0.154 0,0 0.017,-0.124 -0.072,-0.172 -0.09,-0.048 -0.167,0.018 -0.167,0.018 z m -0.355,0.219 c 0.129,-0.026 0.227,0.051 0.103,0.095 -0.125,0.044 -0.183,-0.079 -0.103,-0.095 z m -0.549,0.3 c 0,0 0.015,0.468 0.271,0.461 0.256,-0.007 0.154,-0.402 0,-0.571 0,0 0.184,0.47 0.015,0.483 -0.17,0.015 -0.286,-0.373 -0.286,-0.373 z"
     id="path18"
     inkscape:connector-curvature="0" />
  <path
     d="m 18.757,10.138 c 0,0 -0.296,-0.285 -0.616,-0.212 l -0.069,-0.046 0.006,-0.313 -0.146,0 0.007,0.313 -0.069,0.046 c -0.319,-0.072 -0.616,0.212 -0.616,0.212 -0.475,-0.19 -0.933,0.123 -0.933,0.484 0,0.361 0.274,0.524 0.332,0.587 0.059,0.064 0.374,0.847 0.374,0.847 l 1.955,0 c 0,0 0.316,-0.783 0.375,-0.847 0.059,-0.063 0.332,-0.227 0.332,-0.587 0.001,-0.361 -0.457,-0.675 -0.932,-0.484 z"
     id="path20"
     inkscape:connector-curvature="0"
     style="fill:#ebd11b" />
  <path
     d="m 17.815,10.451 0,0.234 -0.163,0.182 c 0,0 -0.158,0.014 -0.231,-0.04 -0.072,-0.055 -0.136,-0.186 -0.136,-0.186 0,0 0.167,-0.113 0.265,-0.141 0.098,-0.027 0.265,-0.049 0.265,-0.049 z m -0.588,0.267 c 0,0 -0.027,0.19 -0.168,0.24 -0.14,0.05 -0.28,0.027 -0.28,0.027 0,0 0.036,-0.099 0.153,-0.181 0.118,-0.081 0.295,-0.086 0.295,-0.086 z"
     id="path22"
     inkscape:connector-curvature="0"
     style="fill:#be1827" />
  <path
     d="m 17.507,10.247 c 0.146,-0.035 0.308,0 0.308,0 0,0 -0.003,0.207 -0.194,0.237 -0.19,0.03 -0.267,-0.056 -0.267,-0.056 0,0 0.04,-0.154 0.153,-0.181 z m -0.903,0.394 c -0.052,-0.25 0.292,-0.342 0.464,-0.151 0,0 0.034,0.259 -0.168,0.338 -0.203,0.08 -0.275,-0.088 -0.296,-0.187 z m 0.467,-0.349 c 0.043,-0.096 0.237,-0.008 0.179,0.095 -0.06,0.105 -0.254,0.069 -0.179,-0.095 z"
     id="path24"
     inkscape:connector-curvature="0"
     style="fill:#0868a9" />
  <path
     d="m 17.112,10.537 c 0.091,-0.095 0.227,0.094 0.115,0.144 -0.113,0.051 -0.185,-0.072 -0.115,-0.144 z"
     id="path26"
     inkscape:connector-curvature="0"
     style="fill:#0868a9" />
  <path
     d="m 18.167,10.451 0,0.234 0.177,0.182 c 0,0 0.166,0.014 0.238,-0.04 0.072,-0.055 0.139,-0.186 0.139,-0.186 0,0 -0.18,-0.113 -0.277,-0.141 -0.097,-0.027 -0.277,-0.049 -0.277,-0.049 z m 0.617,0.267 c 0,0 0.027,0.19 0.167,0.24 0.141,0.05 0.281,0.027 0.281,0.027 0,0 -0.036,-0.099 -0.154,-0.181 -0.117,-0.081 -0.294,-0.086 -0.294,-0.086 z"
     id="path28"
     inkscape:connector-curvature="0"
     style="fill:#be1827" />
  <path
     d="m 18.503,10.247 c -0.145,-0.035 -0.307,0 -0.307,0 0,0 0.003,0.207 0.194,0.237 0.19,0.03 0.268,-0.056 0.268,-0.056 0,0 -0.041,-0.154 -0.155,-0.181 z m 0.903,0.394 c 0.052,-0.25 -0.292,-0.342 -0.464,-0.151 0,0 -0.034,0.259 0.169,0.338 0.202,0.08 0.275,-0.088 0.295,-0.187 z M 18.94,10.292 c -0.044,-0.096 -0.237,-0.008 -0.179,0.095 0.059,0.105 0.255,0.069 0.179,-0.095 z"
     id="path30"
     inkscape:connector-curvature="0"
     style="fill:#0868a9" />
  <path
     d="m 18.898,10.537 c -0.09,-0.095 -0.226,0.094 -0.114,0.144 0.112,0.051 0.184,-0.072 0.114,-0.144 z"
     id="path32"
     inkscape:connector-curvature="0"
     style="fill:#0868a9" />
  <path
     d="m 17.028,11.916 c 0,-0.186 0.431,-0.337 0.963,-0.337 0.532,0 0.963,0.151 0.963,0.337 0,0.186 -0.431,0.337 -0.963,0.337 -0.533,-10e-4 -0.963,-0.152 -0.963,-0.337 z"
     id="path34"
     inkscape:connector-curvature="0"
     style="fill:#be1827" />
  <path
     d="m 17.999,11.854 -1.874,0 0,3.063 c 0,1.207 1.875,1.207 1.875,1.207 0,0 1.854,0 1.854,-1.207 l 0,-3.063 -1.855,0 z"
     id="path36"
     inkscape:connector-curvature="0"
     style="fill:#020202" />
  <path
     d="m 17.998,12.057 -1.661,0 0,2.861 c 0,0.995 1.661,0.98 1.661,0.98 0,0 1.661,0.015 1.661,-0.98 l 0,-2.861 -1.661,0 z"
     id="path38"
     inkscape:connector-curvature="0"
     style="fill:#4c86c7" />
  <path
     d="m 20.364,9.738 c 0.242,-0.088 0.44,-0.42 0.44,-0.42 0,0 -0.39,0.049 -0.635,0 C 19.924,9.269 19.742,9.093 19.742,9.093 19.919,8.781 19.629,8.592 19.073,8.526 18.643,8.476 17.997,8.458 17.997,8.458 c 0,0 -0.657,0.018 -1.088,0.068 -0.555,0.065 -0.851,0.254 -0.675,0.567 0,0 -0.185,0.176 -0.43,0.225 -0.245,0.049 -0.635,0 -0.635,0 0,0 0.196,0.332 0.439,0.42 0,0 -0.069,0.225 -0.372,0.273 0,0 0.635,0.107 1.093,-0.087 C 16.788,9.729 17.042,9.563 17.11,9.494 17.179,9.426 16.929,9.27 17.114,9.25 17.3,9.231 17.996,9.211 17.996,9.211 c 0,0 0.685,0.02 0.871,0.039 0.186,0.02 -0.077,0.176 -0.008,0.244 0.068,0.068 0.322,0.234 0.781,0.43 0.459,0.195 1.093,0.087 1.093,0.087 -0.3,-0.048 -0.369,-0.273 -0.369,-0.273 z"
     id="path40"
     inkscape:connector-curvature="0"
     style="fill:#a5a7a9" />
  <path
     d="m 18.557,15.547 -1.132,0 0.566,-0.567 z m -0.82,-1.874 -1.133,0 0.567,-0.567 z m 0,-0.879 -1.133,0 0.567,-0.566 z m 0,1.815 -1.133,0 0.567,-0.565 z m 1.581,-0.936 -1.132,0 0.566,-0.567 z m 0,-0.879 -1.132,0 0.566,-0.566 z m 0,1.815 -1.132,0 0.566,-0.565 z"
     id="path42"
     inkscape:connector-curvature="0"
     style="fill:#ffffff" />
</svg>
