<?xml version="1.0" encoding="UTF-8" standalone="no"?>
<svg
   xmlns:dc="http://purl.org/dc/elements/1.1/"
   xmlns:cc="http://creativecommons.org/ns#"
   xmlns:rdf="http://www.w3.org/1999/02/22-rdf-syntax-ns#"
   xmlns:svg="http://www.w3.org/2000/svg"
   xmlns="http://www.w3.org/2000/svg"
   xmlns:sodipodi="http://sodipodi.sourceforge.net/DTD/sodipodi-0.dtd"
   xmlns:inkscape="http://www.inkscape.org/namespaces/inkscape"
   viewBox="0 0 36 26"
   id="svg2"
   version="1.1"
   inkscape:version="0.91 r13725"
   sodipodi:docname="1f1e7-1f1e6.svg"
   width="36"
   height="26">
  <metadata
     id="metadata14">
    <rdf:RDF>
      <cc:Work
         rdf:about="">
        <dc:format>image/svg+xml</dc:format>
        <dc:type
           rdf:resource="http://purl.org/dc/dcmitype/StillImage" />
      </cc:Work>
    </rdf:RDF>
  </metadata>
  <defs
     id="defs12" />
  <sodipodi:namedview
     pagecolor="#ffffff"
     bordercolor="#666666"
     borderopacity="1"
     objecttolerance="10"
     gridtolerance="10"
     guidetolerance="10"
     inkscape:pageopacity="0"
     inkscape:pageshadow="2"
     inkscape:window-width="640"
     inkscape:window-height="480"
     id="namedview10"
     showgrid="false"
     inkscape:zoom="6.5555556"
     inkscape:cx="18"
     inkscape:cy="13"
     inkscape:window-x="0"
     inkscape:window-y="0"
     inkscape:window-maximized="0"
     inkscape:current-layer="svg2" />
  <path
     d="M 32,0 9.177,0 8.512,0.484 8.877,1.607 7.921,0.912 6.965,1.607 7.33,0.484 6.665,0 4,0 C 1.791,0 0,1.791 0,4 l 0,18 c 0,2.209 1.791,4 4,4 l 19.725,0 0.105,-0.324 -0.955,-0.695 1.181,0 0.365,-1.123 0.365,1.123 1.181,0 -0.955,0.695 L 25.117,26 32,26 c 2.209,0 4,-1.791 4,-4 L 36,4 C 36,1.791 34.209,0 32,0 Z"
     id="path4"
     inkscape:connector-curvature="0"
     style="fill:#2d3189" />
  <path
     d="M 6.965,1.607 7.921,0.912 8.876,1.607 8.512,0.484 9.177,0 6.665,0 7.33,0.484 Z m 19.002,23.374 -1.181,0 -0.365,-1.122 -0.365,1.122 -1.181,0 0.955,0.695 -0.105,0.324 1.392,0 -0.106,-0.324 z M 9.999,1.815 l 0.364,1.123 1.182,0 -0.956,0.695 0.365,1.123 L 9.999,4.061 9.043,4.756 9.408,3.633 8.453,2.938 l 1.18,0 z m 2.069,3.15 0.365,1.122 1.182,0 -0.956,0.695 0.365,1.123 -0.956,-0.694 -0.955,0.694 0.365,-1.123 -0.956,-0.695 1.181,0 z m 2.054,3.148 0.365,1.123 1.181,0 -0.956,0.695 0.365,1.123 -0.955,-0.695 -0.956,0.695 0.365,-1.123 -0.955,-0.695 1.181,0 z m 2.061,3.15 0.365,1.123 1.181,0 -0.955,0.694 0.365,1.123 -0.956,-0.694 -0.955,0.694 0.365,-1.123 -0.956,-0.694 1.181,0 z m 2.061,3.149 0.365,1.123 1.182,0 -0.956,0.694 0.365,1.124 -0.956,-0.695 -0.955,0.695 0.365,-1.124 -0.955,-0.694 1.181,0 z m 2.062,3.149 0.365,1.123 1.181,0 -0.955,0.694 0.364,1.123 -0.955,-0.694 -0.955,0.694 0.364,-1.123 -0.955,-0.694 1.181,0 z m 2.053,3.148 0.365,1.124 1.182,0 -0.956,0.694 0.365,1.123 -0.956,-0.694 -0.955,0.694 0.365,-1.123 -0.956,-0.694 1.181,0 z"
     id="path6"
     inkscape:connector-curvature="0"
     style="fill:#e1e8ed" />
  <path
     d="M 28,26 28,0 11,0 Z"
     id="path8"
     inkscape:connector-curvature="0"
     style="fill:#fbd116" />
</svg>
