<?xml version="1.0" encoding="UTF-8" standalone="no"?>
<svg
   xmlns:dc="http://purl.org/dc/elements/1.1/"
   xmlns:cc="http://creativecommons.org/ns#"
   xmlns:rdf="http://www.w3.org/1999/02/22-rdf-syntax-ns#"
   xmlns:svg="http://www.w3.org/2000/svg"
   xmlns="http://www.w3.org/2000/svg"
   xmlns:sodipodi="http://sodipodi.sourceforge.net/DTD/sodipodi-0.dtd"
   xmlns:inkscape="http://www.inkscape.org/namespaces/inkscape"
   viewBox="0 0 36 26"
   id="svg2"
   version="1.1"
   inkscape:version="0.91 r13725"
   sodipodi:docname="1f1ef-1f1ea.svg"
   width="36"
   height="26">
  <metadata
     id="metadata36">
    <rdf:RDF>
      <cc:Work
         rdf:about="">
        <dc:format>image/svg+xml</dc:format>
        <dc:type
           rdf:resource="http://purl.org/dc/dcmitype/StillImage" />
      </cc:Work>
    </rdf:RDF>
  </metadata>
  <defs
     id="defs34" />
  <sodipodi:namedview
     pagecolor="#ffffff"
     bordercolor="#666666"
     borderopacity="1"
     objecttolerance="10"
     gridtolerance="10"
     guidetolerance="10"
     inkscape:pageopacity="0"
     inkscape:pageshadow="2"
     inkscape:window-width="640"
     inkscape:window-height="480"
     id="namedview32"
     showgrid="false"
     inkscape:zoom="6.5555556"
     inkscape:cx="18"
     inkscape:cy="13"
     inkscape:window-x="0"
     inkscape:window-y="0"
     inkscape:window-maximized="0"
     inkscape:current-layer="svg2" />
  <path
     d="m 36,22 c 0,2.209 -1.791,4 -4,4 L 4,26 C 1.791,26 0,24.209 0,22 L 0,4 C 0,1.791 1.791,0 4,0 l 28,0 c 2.209,0 4,1.791 4,4 l 0,18 z"
     id="path4"
     inkscape:connector-curvature="0"
     style="fill:#eeeeee" />
  <path
     d="M 3.186,0.084 C 2.018,0.326 1.052,1.086 0.499,2.104 L 15.286,13 0.499,23.896 c 0.553,1.019 1.519,1.778 2.687,2.021 L 18,15 32.814,25.916 c 1.168,-0.242 2.135,-1.002 2.688,-2.021 L 20.714,13 35.502,2.104 C 34.949,1.086 33.982,0.326 32.814,0.084 L 18,11 3.186,0.084 Z"
     id="path6"
     inkscape:connector-curvature="0"
     style="fill:#d52048" />
  <path
     d="m 20.531,2 c -0.168,0.065 -0.254,0.365 -0.254,0.365 0,0 -0.15,-0.339 -0.605,-0.118 0,0 0.248,0.248 0.195,0.456 -0.053,0.209 -0.197,0.301 -0.443,0.267 -0.287,-0.039 -0.34,-0.371 -0.34,-0.371 0,0 0.178,-0.033 0.197,-0.183 0.012,-0.091 -0.033,-0.222 -0.189,-0.234 -0.119,-0.01 -0.235,0.065 -0.235,0.208 0,0.105 0.131,0.195 0.131,0.195 0,0 -0.104,0.224 -0.34,0.235 C 18.349,2.833 18.216,2.664 18.212,2.377 18.205,1.966 18.733,1.96 18.733,1.96 c 0,0 -0.046,-0.202 -0.228,-0.306 -0.182,-0.104 -0.352,0.039 -0.352,0.039 0,0 0.13,-0.293 0.091,-0.496 C 18.21,1.024 18.08,0.851 18.033,0.794 l 0,-0.019 -0.008,0.01 -0.008,-0.01 0,0.021 c -0.047,0.057 -0.178,0.229 -0.211,0.403 -0.039,0.202 0.091,0.496 0.091,0.496 0,0 -0.169,-0.144 -0.352,-0.039 -0.183,0.104 -0.229,0.306 -0.229,0.306 0,0 0.528,0.006 0.521,0.417 C 17.833,2.666 17.7,2.835 17.4,2.822 17.165,2.811 17.061,2.587 17.061,2.587 c 0,0 0.13,-0.09 0.13,-0.195 0,-0.144 -0.116,-0.218 -0.234,-0.208 -0.156,0.013 -0.201,0.143 -0.189,0.234 0.02,0.15 0.196,0.183 0.196,0.183 0,0 -0.052,0.333 -0.339,0.371 C 16.378,3.006 16.234,2.914 16.182,2.705 16.13,2.497 16.377,2.249 16.377,2.249 15.921,2.027 15.772,2.367 15.772,2.367 15.772,2.367 15.687,2.065 15.519,2 15.349,1.935 15.18,1.961 15.18,1.961 c 0,0 0.313,0.496 0.521,0.977 0.209,0.482 0.287,0.978 0.287,0.978 0,0 0.356,-0.25 0.938,-0.391 0.45,-0.109 1.024,-0.117 1.1,-0.118 0.075,10e-4 0.649,0.008 1.098,0.118 0.584,0.142 0.94,0.391 0.94,0.391 0,0 0.078,-0.496 0.287,-0.978 0.209,-0.481 0.521,-0.977 0.521,-0.977 0,0 -0.171,-0.026 -0.341,0.039 z"
     id="path8"
     inkscape:connector-curvature="0"
     style="fill:#ffcc4d" />
  <path
     d="m 20.062,3.916 c 0,0 -0.477,-0.313 -0.977,-0.424 -0.467,-0.103 -0.99,-0.104 -1.061,-0.104 -0.071,0 -0.594,10e-4 -1.06,0.104 -0.502,0.111 -0.977,0.424 -0.977,0.424 0,0 -0.409,1.52 -0.169,2.626 0.473,2.186 2.021,3.086 2.199,3.184 l 0,0.01 0.008,-0.004 0.008,0.004 0,-0.01 C 18.211,9.629 19.76,8.728 20.232,6.542 20.473,5.436 20.062,3.916 20.062,3.916 Z"
     id="path10"
     inkscape:connector-curvature="0"
     style="fill:#dd2e44" />
  <path
     d="M 18.018,9.737 18.014,9.725 C 17.84,9.631 16.288,8.727 15.815,6.542 15.578,5.448 15.981,3.93 15.984,3.915 15.99,3.91 16.467,3.599 16.963,3.489 c 0.439,-0.097 0.923,-0.104 1.061,-0.104 0.138,0 0.622,0.007 1.062,0.104 0.494,0.11 0.972,0.421 0.977,0.424 l 0.001,0.001 c 0.005,0.015 0.408,1.533 0.17,2.627 -0.472,2.185 -2.024,3.089 -2.2,3.185 l 0.001,0.008 c -0.003,0.002 -0.007,0 -0.012,-0.002 L 18.018,9.737 Z M 18.024,9.729 18.035,9.734 18.031,9.726 C 18.208,9.628 19.758,8.725 20.231,6.542 20.465,5.46 20.073,3.962 20.061,3.918 20.039,3.904 19.571,3.603 19.085,3.495 18.646,3.398 18.163,3.391 18.025,3.391 c -0.138,0 -0.621,0.007 -1.06,0.104 -0.496,0.109 -0.972,0.42 -0.977,0.423 -0.003,0.014 -0.405,1.531 -0.168,2.624 0.472,2.183 2.022,3.086 2.197,3.182 l 0.001,0.008 0.006,-0.003 z"
     id="path12"
     inkscape:connector-curvature="0"
     style="fill:#231f20" />
  <path
     d="m 19.406,3.922 c 0,0 -0.092,0.124 -0.411,0.124 -0.319,0 -0.177,-0.042 -0.43,-0.042 -0.255,0 -0.365,0.065 -0.365,0.143 0,0.078 0.091,0.127 0.431,0.127 0.338,0 0.463,-0.085 0.736,-0.085 0.273,0 0.377,0.098 0.377,0.222 0,0.124 -0.176,0.352 -0.457,0.28 0,0 0.197,0.097 0.406,0.084 0.207,-0.012 0.383,-0.051 0.397,-0.005 0.014,0.045 0.098,0.286 0.086,0.417 -0.02,0.202 -0.275,0.273 -0.379,0.261 -0.104,-0.013 -0.24,0.085 -0.279,0.13 l 0.025,-0.137 -0.105,0.039 0.059,-0.169 -0.129,0 c 0,0 0.064,-0.131 0.168,-0.131 0.105,0 0.34,0.026 0.354,-0.045 0.012,-0.071 -0.066,-0.169 -0.215,-0.163 -0.15,0.006 -0.438,0.091 -0.613,0.045 0,0 -0.058,0.084 -0.006,0.15 0.051,0.065 0.129,0.144 0.09,0.189 -0.039,0.045 -0.137,0.045 -0.227,0.039 -0.092,-0.006 -0.405,0.019 -0.515,0.059 -0.111,0.039 -0.215,0.098 -0.215,0.098 l 0.052,-0.15 c 0,0 -0.104,-0.033 -0.156,0.013 0,0 0.02,-0.097 0.104,-0.117 L 18.091,5.272 c 0,0 0.04,-0.117 0.183,-0.104 0.143,0.013 0.208,0.045 0.254,-0.007 0.046,-0.052 -0.111,-0.156 -0.111,-0.156 0,0 -0.117,0.046 -0.377,0.085 -0.261,0.04 -0.43,0.026 -0.43,0.026 0,0 -0.033,0.274 -0.45,0.319 C 16.743,5.48 16.535,5.285 16.437,5.246 16.339,5.207 16.202,5.24 16.202,5.24 L 16.267,5.116 16.11,5.149 c 0,0 -0.01,-0.15 0.098,-0.156 L 16.065,4.954 c 0,0 0.104,-0.124 0.247,-0.091 0.144,0.032 0.217,0.154 0.352,0.221 0.222,0.111 0.737,0.033 0.353,-0.045 -0.09,-0.018 -0.153,-0.104 -0.153,-0.104 0,0 -0.245,0.052 -0.434,-0.241 -0.129,-0.201 -0.189,-0.365 -0.424,-0.319 0,0 0.111,-0.143 0.235,-0.098 0,0 -0.072,-0.091 -0.182,-0.085 0,0 0.052,-0.13 0.208,-0.084 0,0 -0.085,-0.078 -0.163,-0.072 0,0 0.045,-0.137 0.254,-0.02 0.207,0.114 0.082,0.213 0.122,0.284 0.026,0.045 0.083,0.125 0.222,0.248 0.235,0.208 0.345,0.261 0.273,0.049 -0.078,-0.052 -0.124,-0.186 -0.143,-0.251 -0.02,-0.065 -0.13,-0.221 -0.098,-0.261 0.033,-0.039 0.13,0.033 0.13,0.033 0,0 0.124,-0.053 0.293,-0.053 0.169,0 0.234,0.078 0.234,0.078 0,0 0.117,-0.091 0.137,-0.045 0.019,0.045 -0.065,0.118 -0.104,0.196 -0.039,0.078 0.006,0.169 0.006,0.169 0,0 0.114,0.149 0.349,0.156 0.234,0.006 0.583,-0.033 0.707,-0.059 0.123,-0.026 0.338,-0.069 0.482,-0.042 0.144,0.026 0.548,0.016 0.535,-0.088 C 19.489,4.326 19.392,4.293 19.191,4.319 18.988,4.345 18.813,4.41 18.441,4.384 18.069,4.358 18.032,4.169 18.056,4.077 c 0.033,-0.124 0.242,-0.199 0.437,-0.199 0.196,0 0.441,0.082 0.583,0.082 0.145,0.002 0.33,-0.038 0.33,-0.038 z"
     id="path14"
     inkscape:connector-curvature="0"
     style="fill:#ffcc4d" />
  <path
     d="m 16.995,4.492 c 0,0 0.078,0.037 0.124,0.033 0.046,-0.004 0.127,-0.045 0.127,-0.045 0,0 -0.026,0.049 -0.026,0.094 0,0.045 -0.01,0.092 -0.088,0.094 C 17.015,4.671 17.031,4.596 17.025,4.564 17.018,4.532 16.995,4.492 16.995,4.492 Z"
     id="path16"
     inkscape:connector-curvature="0"
     style="fill:#dd2e44" />
  <path
     d="m 17.19,4.913 c 0,0.032 -0.026,0.059 -0.059,0.059 l -0.013,0 c -0.032,0 -0.058,-0.027 -0.058,-0.059 l 0,-0.254 C 17.06,4.627 17.086,4.6 17.118,4.6 l 0.013,0 c 0.033,0 0.059,0.026 0.059,0.059 l 0,0.254 z M 16.161,4.879 C 16.1,4.908 16.063,4.952 16.063,4.952 l 0.143,0.039 C 16.098,4.997 16.108,5.147 16.108,5.147 L 16.263,5.114 16.161,4.879 Z m 3.314,0.317 c -0.068,0.035 -0.107,0.115 -0.107,0.115 l 0.129,0 -0.059,0.169 0.105,-0.039 -0.025,0.137 C 19.536,5.555 19.58,5.52 19.631,5.492 L 19.475,5.196 Z M 18.282,5.503 18.175,5.181 C 18.11,5.21 18.09,5.27 18.09,5.27 l 0.098,0.026 C 18.103,5.315 18.084,5.413 18.084,5.413 18.136,5.368 18.24,5.4 18.24,5.4 l -0.052,0.15 c 0,0.001 0.038,-0.021 0.094,-0.047 z m -2.18,-1.47 c 0.045,-0.004 0.094,0.021 0.125,0.043 L 16.245,3.97 C 16.131,3.948 16.102,4.033 16.102,4.033 Z M 16.264,5.116 16.2,5.239 c 0,0 0.051,-0.012 0.112,-0.013 L 16.264,5.116 Z M 16.201,4.238 16.224,4.097 c -0.125,-0.015 -0.168,0.092 -0.168,0.092 0.063,-0.003 0.113,0.024 0.145,0.049 z m -0.197,0.134 c 0.072,-0.014 0.127,-0.008 0.173,0.012 l 0.02,-0.118 C 16.091,4.26 16.004,4.372 16.004,4.372 Z"
     id="path18"
     inkscape:connector-curvature="0"
     style="fill:#11429a" />
  <path
     d="m 19.219,5.719 c 0,0 -0.08,0.111 -0.368,0.111 -0.287,0 -0.158,-0.038 -0.387,-0.038 -0.228,0 -0.327,0.058 -0.327,0.129 0,0.07 0.082,0.114 0.386,0.114 0.303,0 0.416,-0.076 0.66,-0.076 0.246,0 0.34,0.088 0.34,0.199 0,0.112 -0.158,0.316 -0.408,0.252 0,0 0.174,0.088 0.361,0.076 0.188,-0.011 0.346,-0.046 0.357,-0.005 0.011,0.041 0.086,0.257 0.076,0.375 -0.018,0.182 -0.246,0.246 -0.34,0.234 -0.094,-0.011 -0.217,0.076 -0.252,0.117 l 0.023,-0.123 -0.094,0.035 0.053,-0.152 -0.117,0 c 0,0 0.059,-0.117 0.152,-0.117 0.094,0 0.305,0.023 0.316,-0.041 0.012,-0.065 -0.059,-0.152 -0.193,-0.146 -0.135,0.005 -0.393,0.081 -0.55,0.041 0,0 -0.052,0.076 -0.005,0.135 0.046,0.058 0.116,0.128 0.081,0.169 -0.035,0.041 -0.123,0.041 -0.204,0.035 -0.082,-0.005 -0.363,0.018 -0.462,0.053 -0.1,0.035 -0.193,0.087 -0.193,0.087 L 18.17,7.048 c 0,0 -0.094,-0.029 -0.141,0.012 0,0 0.018,-0.088 0.094,-0.106 L 18.035,6.931 c 0,0 0.035,-0.105 0.164,-0.093 0.129,0.011 0.188,0.041 0.229,-0.006 0.04,-0.047 -0.1,-0.141 -0.1,-0.141 0,0 -0.105,0.041 -0.34,0.076 -0.234,0.036 -0.386,0.023 -0.386,0.023 0,0 -0.029,0.246 -0.404,0.287 -0.375,0.04 -0.562,-0.135 -0.65,-0.17 -0.087,-0.035 -0.21,-0.005 -0.21,-0.005 l 0.058,-0.112 -0.14,0.03 c 0,0 -0.008,-0.135 0.087,-0.141 L 16.215,6.644 c 0,0 0.094,-0.111 0.222,-0.082 0.129,0.029 0.195,0.139 0.316,0.199 0.198,0.1 0.661,0.029 0.316,-0.041 -0.081,-0.017 -0.138,-0.093 -0.138,-0.093 0,0 -0.219,0.046 -0.389,-0.217 -0.116,-0.18 -0.17,-0.328 -0.38,-0.287 0,0 0.1,-0.128 0.21,-0.088 0,0 -0.064,-0.082 -0.164,-0.076 0,0 0.047,-0.117 0.187,-0.076 0,0 -0.076,-0.07 -0.146,-0.064 0,0 0.041,-0.123 0.228,-0.019 0.188,0.106 0.075,0.194 0.111,0.258 0.024,0.041 0.075,0.112 0.199,0.223 0.211,0.188 0.311,0.234 0.246,0.043 C 16.963,6.278 16.922,6.157 16.905,6.099 16.887,6.04 16.788,5.9 16.817,5.865 c 0.029,-0.035 0.117,0.03 0.117,0.03 0,0 0.111,-0.047 0.263,-0.047 0.152,0 0.21,0.071 0.21,0.071 0,0 0.106,-0.082 0.123,-0.042 0.018,0.042 -0.058,0.105 -0.093,0.176 -0.035,0.07 0.006,0.152 0.006,0.152 0,0 0.102,0.135 0.313,0.141 0.21,0.005 0.523,-0.03 0.634,-0.053 0.111,-0.023 0.305,-0.061 0.433,-0.038 0.13,0.023 0.492,0.015 0.48,-0.08 C 19.291,6.082 19.203,6.053 19.022,6.076 18.841,6.099 18.684,6.158 18.35,6.134 18.017,6.111 17.983,5.942 18.005,5.859 c 0.029,-0.111 0.216,-0.178 0.392,-0.178 0.175,0 0.395,0.073 0.524,0.073 0.132,0 0.298,-0.035 0.298,-0.035 z"
     id="path20"
     inkscape:connector-curvature="0"
     style="fill:#ffcc4d" />
  <path
     d="m 17.042,6.234 c 0,0 0.07,0.032 0.111,0.03 0.041,-0.004 0.114,-0.042 0.114,-0.042 0,0 -0.023,0.044 -0.023,0.085 0,0.041 -0.009,0.083 -0.08,0.085 C 17.058,6.395 17.074,6.327 17.068,6.299 17.063,6.268 17.042,6.234 17.042,6.234 Z"
     id="path22"
     inkscape:connector-curvature="0"
     style="fill:#dd2e44" />
  <path
     d="m 17.218,6.611 c 0,0.03 -0.023,0.053 -0.053,0.053 l -0.011,0 c -0.029,0 -0.053,-0.023 -0.053,-0.053 l 0,-0.228 c 0,-0.03 0.024,-0.053 0.053,-0.053 l 0.011,0 c 0.029,0 0.053,0.023 0.053,0.053 l 0,0.228 z M 16.253,6.578 c -0.054,0.025 -0.088,0.066 -0.088,0.066 l 0.129,0.035 C 16.197,6.684 16.206,6.82 16.206,6.82 L 16.345,6.791 16.253,6.578 Z m 2.976,0.283 c -0.061,0.032 -0.098,0.103 -0.098,0.103 l 0.117,0 -0.051,0.152 0.094,-0.035 -0.023,0.123 C 19.284,7.184 19.323,7.152 19.37,7.126 L 19.229,6.861 Z M 18.158,7.138 18.062,6.849 C 18.003,6.875 17.985,6.93 17.985,6.93 l 0.087,0.023 c -0.076,0.018 -0.093,0.106 -0.093,0.106 0.047,-0.042 0.14,-0.012 0.14,-0.012 l -0.047,0.135 c 0.001,-0.001 0.036,-0.02 0.086,-0.044 z m -1.957,-1.32 c 0.042,-0.004 0.084,0.018 0.113,0.038 L 16.33,5.76 C 16.226,5.742 16.201,5.818 16.201,5.818 Z m 0.145,0.973 -0.058,0.11 c 0,0 0.045,-0.011 0.101,-0.011 L 16.346,6.791 Z M 16.29,6.002 16.311,5.875 c -0.112,-0.013 -0.15,0.083 -0.15,0.083 0.055,-0.003 0.1,0.022 0.129,0.044 z m -0.177,0.12 C 16.177,6.11 16.227,6.114 16.268,6.133 L 16.286,6.027 C 16.19,6.022 16.113,6.122 16.113,6.122 Z"
     id="path24"
     inkscape:connector-curvature="0"
     style="fill:#11429a" />
  <path
     d="m 18.864,7.462 c 0,0 -0.062,0.082 -0.274,0.082 -0.213,0 -0.117,-0.028 -0.287,-0.028 -0.169,0 -0.243,0.044 -0.243,0.095 0,0.053 0.06,0.085 0.287,0.085 0.226,0 0.309,-0.057 0.491,-0.057 0.182,0 0.252,0.066 0.252,0.148 0,0.083 -0.118,0.235 -0.304,0.187 0,0 0.131,0.065 0.269,0.057 0.139,-0.009 0.258,-0.035 0.266,-0.004 0.008,0.031 0.065,0.191 0.057,0.278 -0.014,0.135 -0.184,0.183 -0.252,0.174 -0.07,-0.009 -0.161,0.057 -0.187,0.087 l 0.017,-0.092 -0.069,0.026 0.04,-0.113 -0.088,0 c 0,0 0.044,-0.087 0.112,-0.087 0.07,0 0.228,0.018 0.236,-0.03 0.008,-0.048 -0.043,-0.114 -0.144,-0.108 -0.099,0.004 -0.29,0.06 -0.408,0.03 0,0 -0.039,0.057 -0.004,0.1 0.035,0.044 0.087,0.096 0.061,0.127 -0.026,0.029 -0.091,0.029 -0.153,0.025 -0.06,-0.004 -0.269,0.013 -0.343,0.039 -0.074,0.026 -0.143,0.065 -0.143,0.065 l 0.035,-0.101 c 0,0 -0.07,-0.021 -0.104,0.009 0,0 0.013,-0.064 0.07,-0.078 L 17.989,8.36 c 0,0 0.025,-0.078 0.121,-0.07 0.096,0.009 0.139,0.031 0.17,-0.004 0.03,-0.035 -0.074,-0.105 -0.074,-0.105 0,0 -0.079,0.031 -0.252,0.057 -0.174,0.026 -0.287,0.018 -0.287,0.018 0,0 -0.022,0.183 -0.3,0.213 C 17.089,8.5 16.95,8.369 16.884,8.344 16.819,8.318 16.728,8.34 16.728,8.34 l 0.044,-0.083 -0.104,0.022 c 0,0 -0.006,-0.101 0.065,-0.104 L 16.637,8.149 c 0,0 0.069,-0.083 0.165,-0.061 0.096,0.022 0.145,0.103 0.235,0.148 0.148,0.073 0.492,0.021 0.235,-0.031 -0.06,-0.012 -0.102,-0.07 -0.102,-0.07 0,0 -0.163,0.035 -0.29,-0.161 -0.086,-0.134 -0.125,-0.243 -0.282,-0.213 0,0 0.074,-0.095 0.157,-0.065 0,0 -0.048,-0.061 -0.122,-0.057 0,0 0.035,-0.086 0.139,-0.057 0,0 -0.057,-0.052 -0.109,-0.048 0,0 0.031,-0.09 0.17,-0.012 0.139,0.078 0.055,0.144 0.083,0.192 0.018,0.031 0.055,0.083 0.148,0.165 0.156,0.139 0.23,0.174 0.182,0.033 C 17.194,7.877 17.164,7.787 17.151,7.745 17.138,7.701 17.064,7.597 17.086,7.57 c 0.022,-0.026 0.087,0.022 0.087,0.022 0,0 0.083,-0.035 0.196,-0.035 0.113,0 0.157,0.052 0.157,0.052 0,0 0.078,-0.061 0.091,-0.03 0.013,0.03 -0.044,0.079 -0.07,0.131 -0.026,0.052 0.004,0.113 0.004,0.113 0,0 0.077,0.1 0.233,0.104 0.157,0.004 0.389,-0.022 0.472,-0.039 C 18.339,7.87 18.483,7.843 18.578,7.859 18.674,7.877 18.944,7.87 18.935,7.8 18.926,7.731 18.861,7.709 18.726,7.726 18.592,7.745 18.474,7.787 18.226,7.77 17.979,7.752 17.954,7.627 17.97,7.565 c 0.022,-0.082 0.161,-0.133 0.291,-0.133 0.13,0 0.294,0.055 0.389,0.055 0.09,0.001 0.214,-0.025 0.214,-0.025 z"
     id="path26"
     inkscape:connector-curvature="0"
     style="fill:#ffcc4d" />
  <path
     d="m 17.255,7.843 c 0,0 0.052,0.023 0.083,0.021 0.03,-0.002 0.084,-0.031 0.084,-0.031 0,0 -0.017,0.033 -0.017,0.064 0,0.03 -0.007,0.061 -0.059,0.062 C 17.268,7.962 17.279,7.912 17.274,7.889 17.271,7.868 17.255,7.843 17.255,7.843 Z"
     id="path28"
     inkscape:connector-curvature="0"
     style="fill:#dd2e44" />
  <path
     d="m 17.385,8.123 c 0,0.021 -0.017,0.039 -0.039,0.039 l -0.008,0 c -0.022,0 -0.039,-0.018 -0.039,-0.039 l 0,-0.169 c 0,-0.022 0.017,-0.04 0.039,-0.04 l 0.008,0 c 0.022,0 0.039,0.017 0.039,0.04 l 0,0.169 z M 16.699,8.1 C 16.658,8.119 16.634,8.149 16.634,8.149 L 16.73,8.175 C 16.659,8.178 16.665,8.279 16.665,8.279 L 16.768,8.257 16.699,8.1 Z m 2.21,0.211 c -0.044,0.024 -0.071,0.077 -0.071,0.077 l 0.088,0 -0.04,0.113 0.069,-0.026 -0.017,0.092 C 18.95,8.551 18.98,8.528 19.014,8.509 L 18.909,8.311 Z M 18.114,8.517 18.043,8.302 C 18,8.322 17.986,8.362 17.986,8.362 l 0.065,0.018 c -0.057,0.013 -0.07,0.078 -0.07,0.078 0.035,-0.029 0.104,-0.009 0.104,-0.009 L 18.05,8.55 C 18.051,8.549 18.077,8.534 18.114,8.517 Z M 16.659,7.535 c 0.031,-0.003 0.063,0.015 0.084,0.029 l 0.012,-0.07 C 16.678,7.479 16.659,7.535 16.659,7.535 Z m 0.109,0.724 -0.043,0.081 c 0,0 0.034,-0.008 0.075,-0.009 L 16.768,8.259 Z M 16.726,7.672 16.741,7.578 C 16.658,7.568 16.629,7.64 16.629,7.64 16.67,7.638 16.704,7.656 16.726,7.672 Z m -0.132,0.09 c 0.047,-0.009 0.084,-0.005 0.115,0.008 l 0.013,-0.079 c -0.07,-0.003 -0.128,0.071 -0.128,0.071 z"
     id="path30"
     inkscape:connector-curvature="0"
     style="fill:#11429a" />
</svg>
