<?xml version="1.0" encoding="UTF-8" standalone="no"?>
<svg
   xmlns:dc="http://purl.org/dc/elements/1.1/"
   xmlns:cc="http://creativecommons.org/ns#"
   xmlns:rdf="http://www.w3.org/1999/02/22-rdf-syntax-ns#"
   xmlns:svg="http://www.w3.org/2000/svg"
   xmlns="http://www.w3.org/2000/svg"
   xmlns:sodipodi="http://sodipodi.sourceforge.net/DTD/sodipodi-0.dtd"
   xmlns:inkscape="http://www.inkscape.org/namespaces/inkscape"
   viewBox="0 0 36 26"
   id="svg2"
   version="1.1"
   inkscape:version="0.91 r13725"
   sodipodi:docname="1f1e7-1f1e7.svg"
   width="36"
   height="26">
  <metadata
     id="metadata16">
    <rdf:RDF>
      <cc:Work
         rdf:about="">
        <dc:format>image/svg+xml</dc:format>
        <dc:type
           rdf:resource="http://purl.org/dc/dcmitype/StillImage" />
      </cc:Work>
    </rdf:RDF>
  </metadata>
  <defs
     id="defs14" />
  <sodipodi:namedview
     pagecolor="#ffffff"
     bordercolor="#666666"
     borderopacity="1"
     objecttolerance="10"
     gridtolerance="10"
     guidetolerance="10"
     inkscape:pageopacity="0"
     inkscape:pageshadow="2"
     inkscape:window-width="640"
     inkscape:window-height="480"
     id="namedview12"
     showgrid="false"
     inkscape:zoom="6.5555556"
     inkscape:cx="18"
     inkscape:cy="13"
     inkscape:window-x="0"
     inkscape:window-y="0"
     inkscape:window-maximized="0"
     inkscape:current-layer="svg2" />
  <path
     d="m 36,22 c 0,2.209 -1.791,4 -4,4 L 4,26 C 1.791,26 0,24.209 0,22 L 0,4 C 0,1.791 1.791,0 4,0 l 28,0 c 2.209,0 4,1.791 4,4 l 0,18 z"
     id="path4"
     inkscape:connector-curvature="0"
     style="fill:#00267f" />
  <path
     d="M 4,0 C 1.791,0 0,1.791 0,4 l 0,18 c 0,2.209 1.791,4 4,4 l 8,0 0,-26 -8,0 z"
     id="path6"
     inkscape:connector-curvature="0"
     style="fill:#00267f" />
  <path
     d="m 12,0 12,0 0,26 -12,0 z"
     id="path8"
     inkscape:connector-curvature="0"
     style="fill:#ffc726" />
  <path
     d="m 22.83,8.516 c -1.406,0 -2.5,1.031 -2.859,1.438 0.422,-0.094 0.516,0.234 0.453,0.438 -0.444,1.477 -0.819,3.215 -0.931,4.15 l -0.903,0 0,-5.186 L 19.68,9.13 18.314,8.857 18.031,7.48 17.748,8.857 16.381,9.13 l 1.1,0.228 0,5.184 -0.947,0 c -0.112,-0.936 -0.487,-2.674 -0.931,-4.15 -0.062,-0.203 0.031,-0.531 0.453,-0.438 -0.359,-0.406 -1.453,-1.438 -2.859,-1.438 0.613,0.906 2.245,3.432 2.458,6.403 l 0,0.622 1.826,0 0,2.414 1.109,0 0,-2.414 1.756,0 0,-0.232 c 0.085,-3.14 1.844,-5.848 2.484,-6.793 z"
     id="path10"
     inkscape:connector-curvature="0" />
</svg>
