<?xml version="1.0" encoding="UTF-8" standalone="no"?>
<svg
   xmlns:dc="http://purl.org/dc/elements/1.1/"
   xmlns:cc="http://creativecommons.org/ns#"
   xmlns:rdf="http://www.w3.org/1999/02/22-rdf-syntax-ns#"
   xmlns:svg="http://www.w3.org/2000/svg"
   xmlns="http://www.w3.org/2000/svg"
   xmlns:sodipodi="http://sodipodi.sourceforge.net/DTD/sodipodi-0.dtd"
   xmlns:inkscape="http://www.inkscape.org/namespaces/inkscape"
   viewBox="0 0 36 26"
   id="svg2"
   version="1.1"
   inkscape:version="0.91 r13725"
   sodipodi:docname="1f1e8-1f1fe.svg"
   width="36"
   height="26">
  <metadata
     id="metadata18">
    <rdf:RDF>
      <cc:Work
         rdf:about="">
        <dc:format>image/svg+xml</dc:format>
        <dc:type
           rdf:resource="http://purl.org/dc/dcmitype/StillImage" />
      </cc:Work>
    </rdf:RDF>
  </metadata>
  <defs
     id="defs16" />
  <sodipodi:namedview
     pagecolor="#ffffff"
     bordercolor="#666666"
     borderopacity="1"
     objecttolerance="10"
     gridtolerance="10"
     guidetolerance="10"
     inkscape:pageopacity="0"
     inkscape:pageshadow="2"
     inkscape:window-width="640"
     inkscape:window-height="480"
     id="namedview14"
     showgrid="false"
     inkscape:zoom="6.5555556"
     inkscape:cx="18"
     inkscape:cy="13"
     inkscape:window-x="0"
     inkscape:window-y="0"
     inkscape:window-maximized="0"
     inkscape:current-layer="svg2" />
  <path
     d="m 36,22 c 0,2.209 -1.791,4 -4,4 L 4,26 C 1.791,26 0,24.209 0,22 L 0,4 C 0,1.791 1.791,0 4,0 l 28,0 c 2.209,0 4,1.791 4,4 l 0,18 z"
     id="path4"
     inkscape:connector-curvature="0"
     style="fill:#eeeeee" />
  <g
     id="g6"
     style="clip-rule:evenodd;fill:#5c913b;fill-rule:evenodd"
     transform="translate(0,-5)">
    <path
       d="m 12.974,22.148 c 0.013,0.061 -0.008,0.072 -0.073,0.053 -0.355,-0.1 -0.67,-0.26 -0.891,-0.568 -0.073,-0.1 -0.12,-0.213 -0.148,-0.334 -0.013,-0.059 -0.002,-0.09 0.068,-0.072 0.411,0.101 0.739,0.324 0.97,0.682 0.045,0.07 0.072,0.15 0.074,0.239 z m 8.469,0.069 c -0.021,-0.111 0.008,-0.213 0.064,-0.303 0.23,-0.363 0.562,-0.584 0.977,-0.69 0.073,-0.018 0.075,0.021 0.063,0.074 -0.052,0.236 -0.184,0.422 -0.366,0.572 -0.215,0.177 -0.464,0.284 -0.738,0.347 z m 0.95,0.23 c -0.007,0.039 -0.031,0.068 -0.059,0.092 -0.294,0.269 -0.632,0.418 -1.038,0.379 -0.102,-0.01 -0.193,-0.053 -0.278,-0.113 -0.045,-0.031 -0.042,-0.053 -0.001,-0.088 0.148,-0.127 0.319,-0.207 0.505,-0.256 0.255,-0.066 0.514,-0.084 0.776,-0.041 0.033,0.004 0.065,0.01 0.095,0.027 z m -9.954,-0.049 c 0.276,0.004 0.584,0.061 0.858,0.244 0.05,0.033 0.133,0.07 0.128,0.119 -0.006,0.057 -0.09,0.084 -0.149,0.109 -0.168,0.074 -0.341,0.072 -0.515,0.031 -0.262,-0.062 -0.499,-0.174 -0.689,-0.369 -0.023,-0.023 -0.059,-0.051 -0.046,-0.084 0.01,-0.025 0.053,-0.023 0.083,-0.029 0.094,-0.019 0.189,-0.021 0.33,-0.021 z m 1.091,-0.384 c 0,0.094 -0.012,0.184 -0.044,0.271 -0.019,0.051 -0.042,0.059 -0.087,0.025 -0.142,-0.105 -0.227,-0.25 -0.285,-0.412 -0.096,-0.267 -0.141,-0.541 -0.072,-0.822 0.024,-0.098 0.035,-0.1 0.104,-0.027 0.256,0.271 0.36,0.601 0.384,0.965 z m 7.35,-0.03 c 0.028,-0.338 0.13,-0.666 0.383,-0.932 0.073,-0.078 0.087,-0.076 0.106,0.027 0.079,0.412 0.004,0.793 -0.25,1.131 -0.039,0.053 -0.099,0.131 -0.154,0.115 -0.066,-0.018 -0.062,-0.115 -0.074,-0.184 -0.01,-0.043 -0.007,-0.09 -0.011,-0.157 z m -2.228,0.62 c 0.032,0.551 -0.229,0.947 -0.604,1.303 -0.119,-0.432 0.093,-1.097 0.604,-1.303 z m -2.282,1.314 c -0.362,-0.352 -0.628,-0.723 -0.614,-1.236 0.002,-0.076 0.026,-0.078 0.085,-0.043 0.35,0.209 0.508,0.529 0.546,0.92 0.012,0.111 0.011,0.224 -0.017,0.359 z m 3.627,-1.908 c 0.067,0.193 0.059,0.387 0.02,0.582 -0.048,0.24 -0.143,0.457 -0.325,0.629 -0.09,0.084 -0.104,0.082 -0.151,-0.035 -0.059,-0.146 -0.053,-0.297 -0.016,-0.445 0.066,-0.266 0.2,-0.494 0.399,-0.682 0.014,-0.014 0.027,-0.025 0.042,-0.037 l 0.031,-0.012 z m -5.59,-0.008 c 0.333,0.223 0.567,0.764 0.488,1.1 -0.015,0.066 -0.028,0.156 -0.085,0.174 -0.053,0.016 -0.105,-0.062 -0.145,-0.111 -0.28,-0.341 -0.351,-0.725 -0.258,-1.163 z m 5.622,1.43 c 0.326,0.02 0.607,0.137 0.824,0.391 0.07,0.082 0.065,0.09 -0.041,0.119 -0.271,0.074 -0.522,0.006 -0.766,-0.107 -0.135,-0.064 -0.258,-0.144 -0.366,-0.246 -0.045,-0.041 -0.044,-0.066 0.016,-0.09 0.107,-0.042 0.216,-0.069 0.333,-0.067 z m -5.644,0.002 c 0.106,-0.002 0.208,0.018 0.306,0.057 0.093,0.037 0.097,0.049 0.023,0.111 -0.208,0.182 -0.446,0.303 -0.718,0.353 -0.135,0.025 -0.269,0.023 -0.401,-0.016 -0.103,-0.029 -0.107,-0.035 -0.036,-0.119 0.163,-0.197 0.38,-0.307 0.625,-0.365 0.066,-0.015 0.134,-0.021 0.201,-0.021 z m 5.786,0.826 c -0.384,0.185 -0.944,0.174 -1.219,-0.254 -0.038,-0.062 -0.028,-0.082 0.038,-0.098 0.456,-0.105 0.84,0.03 1.181,0.352 z m -5.928,0.004 c 0.209,-0.223 0.46,-0.342 0.752,-0.383 0.139,-0.02 0.276,-0.012 0.412,0.023 0.096,0.023 0.098,0.029 0.043,0.109 -0.189,0.277 -0.46,0.377 -0.782,0.357 -0.144,-0.007 -0.285,-0.034 -0.425,-0.106 z m 1.399,-0.922 c -0.004,0.088 -0.019,0.158 -0.045,0.228 -0.021,0.057 -0.045,0.062 -0.091,0.024 -0.167,-0.139 -0.278,-0.316 -0.358,-0.516 -0.082,-0.203 -0.147,-0.41 -0.11,-0.635 0.005,-0.027 0.005,-0.066 0.028,-0.074 0.032,-0.014 0.051,0.025 0.071,0.045 0.22,0.217 0.406,0.453 0.483,0.76 0.009,0.035 0.013,0.07 0.018,0.108 l 0.004,0.06 z m 3.128,0.004 c -0.001,-0.146 0.043,-0.283 0.11,-0.414 0.102,-0.201 0.245,-0.373 0.407,-0.531 0.048,-0.045 0.069,-0.049 0.084,0.023 0.033,0.156 0.005,0.307 -0.037,0.455 -0.076,0.266 -0.195,0.508 -0.407,0.697 -0.078,0.068 -0.085,0.064 -0.122,-0.031 C 18.78,23.48 18.771,23.414 18.77,23.346 Z m 0.662,1.398 c -0.199,0.014 -0.401,0.021 -0.6,-0.035 -0.272,-0.078 -0.442,-0.269 -0.564,-0.514 -0.018,-0.035 -0.02,-0.057 0.031,-0.057 0.471,0.002 0.845,0.195 1.127,0.566 0.006,0.006 0.008,0.016 0.012,0.025 0,0.003 -0.003,0.007 -0.006,0.015 z m -4.471,0.008 c 0.061,-0.125 0.141,-0.201 0.227,-0.272 0.259,-0.213 0.55,-0.344 0.893,-0.342 0.058,0 0.087,0.004 0.051,0.072 -0.174,0.344 -0.445,0.533 -0.834,0.539 -0.107,0.005 -0.214,0.003 -0.337,0.003 z m 5.395,-1.932 c -0.132,-0.195 -0.142,-0.402 -0.091,-0.615 0.053,-0.228 0.169,-0.426 0.323,-0.602 0.042,-0.049 0.063,-0.041 0.091,0.01 0.072,0.133 0.082,0.273 0.06,0.42 -0.046,0.301 -0.177,0.557 -0.383,0.787 z m -6.583,-1.255 c 0.311,0.269 0.553,0.887 0.286,1.244 -0.348,-0.266 -0.511,-0.977 -0.286,-1.244 z m -0.502,1.863 c -0.141,-0.004 -0.306,-0.02 -0.451,-0.113 -0.092,-0.059 -0.09,-0.067 -0.011,-0.135 0.18,-0.158 0.393,-0.178 0.616,-0.145 0.17,0.025 0.335,0.074 0.501,0.117 0.057,0.016 0.056,0.035 0.023,0.074 -0.075,0.084 -0.175,0.121 -0.279,0.152 -0.121,0.036 -0.246,0.05 -0.399,0.05 z m 7.841,0 C 20.933,23.424 20.767,23.405 20.611,23.33 l -0.05,-0.025 c -0.05,-0.029 -0.12,-0.062 -0.117,-0.119 0.003,-0.051 0.083,-0.043 0.13,-0.055 0.217,-0.057 0.432,-0.123 0.66,-0.105 0.14,0.012 0.261,0.064 0.367,0.154 0.08,0.068 0.081,0.076 -0.011,0.135 -0.148,0.095 -0.316,0.109 -0.478,0.113 z"
       id="path8"
       inkscape:connector-curvature="0" />
    <path
       d="m 18.027,24.555 c -0.25,-0.061 -0.502,-0.121 -0.752,-0.184 -0.049,-0.012 -0.095,-0.012 -0.144,0 -0.25,0.064 -0.502,0.123 -0.755,0.18 0.158,-0.125 0.338,-0.205 0.551,-0.27 l -0.815,-0.283 c 0.1,-0.016 0.165,0.016 0.231,0.033 0.262,0.068 0.526,0.125 0.792,0.176 0.114,0.021 0.22,-0.016 0.328,-0.037 0.319,-0.062 0.635,-0.145 0.952,-0.225 -0.299,0.125 -0.608,0.223 -0.936,0.334 0.208,0.067 0.389,0.143 0.548,0.276 z"
       id="path10"
       inkscape:connector-curvature="0" />
  </g>
  <path
     d="M 25.774,6.114 25.625,6.187 C 25.357,6.313 25.104,6.486 24.787,6.465 24.757,6.463 24.722,6.479 24.716,6.513 24.695,6.613 24.619,6.625 24.54,6.626 24.387,6.629 24.273,6.693 24.184,6.819 24.085,6.957 23.96,7.063 23.786,7.1 23.73,7.112 23.678,7.144 23.629,7.174 23.484,7.262 23.33,7.303 23.162,7.286 23.107,7.28 23.071,7.297 23.038,7.342 22.961,7.445 22.876,7.544 22.794,7.643 22.749,7.696 22.7,7.749 22.633,7.762 22.409,7.806 22.231,7.943 22.037,8.048 21.675,8.244 21.311,8.438 20.905,8.533 20.737,8.572 20.559,8.62 20.395,8.576 20.26,8.54 20.177,8.585 20.086,8.651 20.03,8.69 19.976,8.731 19.928,8.778 19.739,8.962 19.519,9.044 19.255,9.01 19.206,9.003 19.157,9.004 19.112,9.029 18.892,9.149 18.644,9.152 18.406,9.198 18.298,9.22 18.187,9.181 18.084,9.206 17.838,9.263 17.597,9.196 17.358,9.174 17.181,9.157 17.007,9.116 16.828,9.145 16.719,9.163 16.626,9.136 16.546,9.064 16.468,8.994 16.389,8.989 16.301,9.04 16.226,9.084 16.146,9.087 16.071,9.047 15.983,9.001 15.897,8.999 15.804,9.025 15.691,9.056 15.575,9.077 15.459,9.039 15.188,8.952 14.908,8.888 14.648,8.768 14.523,8.71 14.523,8.714 14.535,8.856 c 0.014,0.165 0.071,0.323 0.065,0.492 -0.008,0.231 -0.018,0.461 -0.036,0.692 -0.026,0.343 -0.204,0.574 -0.498,0.735 -0.111,0.061 -0.21,0.061 -0.322,0.007 -0.204,-0.1 -0.405,-0.206 -0.619,-0.286 -0.273,-0.102 -0.541,-0.127 -0.816,-0.008 -0.094,0.041 -0.175,0.129 -0.294,0.099 -0.007,-0.002 -0.02,0.013 -0.028,0.021 -0.096,0.1 -0.196,0.197 -0.233,0.337 -0.054,0.201 -0.142,0.373 -0.344,0.475 -0.111,0.056 -0.202,0.15 -0.317,0.204 -0.158,0.074 -0.351,0.086 -0.465,-0.018 -0.135,-0.124 -0.333,-0.198 -0.396,-0.397 -0.012,-0.037 -0.055,-0.065 -0.08,-0.009 -0.054,0.124 -0.106,0.252 -0.042,0.39 0.047,0.101 0.097,0.2 0.175,0.28 0.024,0.025 0.039,0.055 0.046,0.089 0.023,0.116 0.031,0.233 0.002,0.348 -0.017,0.068 -0.006,0.126 0.03,0.184 0.026,0.042 0.074,0.102 0.051,0.132 -0.092,0.118 -0.006,0.192 0.048,0.277 0.004,0.008 0.01,0.017 0.01,0.026 -0.004,0.138 0.095,0.187 0.199,0.233 0.062,0.028 0.125,0.059 0.147,0.131 0.059,0.192 0.085,0.393 0.153,0.585 0.023,0.065 0.038,0.11 0.1,0.145 0.141,0.078 0.291,0.143 0.378,0.297 0.041,0.072 0.135,0.094 0.223,0.084 0.034,-0.004 0.076,-0.018 0.094,0.014 0.042,0.068 0.109,0.068 0.17,0.062 0.143,-0.016 0.244,0.045 0.325,0.154 0.042,0.057 0.096,0.092 0.163,0.113 0.146,0.049 0.292,0.098 0.431,0.162 0.083,0.039 0.164,0.053 0.243,-0.01 0.021,-0.016 0.045,-0.018 0.07,-0.014 0.134,0.025 0.248,-0.014 0.349,-0.104 0.041,-0.037 0.091,-0.062 0.144,-0.037 0.089,0.041 0.173,0.021 0.261,0 0.097,-0.025 0.199,-0.033 0.288,0.018 0.166,0.094 0.27,0.248 0.372,0.404 0.066,0.1 0.065,0.209 0.046,0.32 -0.007,0.039 0.007,0.045 0.042,0.047 0.191,0.014 0.383,0.031 0.579,0.049 -0.017,-0.065 -0.064,-0.107 -0.098,-0.156 -0.075,-0.113 -0.123,-0.236 -0.079,-0.367 0.076,-0.227 0.24,-0.391 0.449,-0.49 0.088,-0.043 0.183,-0.08 0.272,-0.123 0.25,-0.123 0.507,-0.108 0.766,-0.033 0.136,0.039 0.297,-0.012 0.382,-0.119 0.017,-0.022 0.041,-0.029 0.064,-0.031 0.07,-0.01 0.143,-0.021 0.211,0 0.073,0.025 0.132,0.025 0.186,-0.043 0.024,-0.029 0.069,-0.037 0.11,-0.035 0.027,0 0.051,0 0.074,-0.025 0.063,-0.074 0.151,-0.102 0.243,-0.123 0.021,-0.004 0.043,-0.002 0.059,-0.021 0.135,-0.169 0.331,-0.215 0.529,-0.255 0.071,-0.015 0.12,-0.044 0.161,-0.104 0.145,-0.21 0.289,-0.263 0.536,-0.198 0.062,0.017 0.078,-0.005 0.093,-0.057 0.026,-0.094 0.068,-0.182 0.155,-0.232 0.049,-0.028 0.061,-0.062 0.061,-0.111 0.001,-0.142 0.003,-0.284 0.006,-0.425 0.007,-0.328 0.248,-0.499 0.498,-0.539 0.153,-0.024 0.308,-0.007 0.461,-0.004 0.106,0.003 0.2,0.031 0.287,0.088 0.079,0.053 0.151,0.115 0.231,0.168 0.078,0.054 0.158,0.049 0.242,0.003 0.072,-0.04 0.105,-0.092 0.083,-0.174 -0.013,-0.051 0.013,-0.066 0.06,-0.063 0.071,0.005 0.153,0.023 0.209,-0.016 0.13,-0.088 0.262,-0.044 0.393,-0.035 0.05,0.003 0.102,0.002 0.144,0.028 0.108,0.07 0.249,0.063 0.351,0.149 0.007,0.006 0.021,10e-4 0.056,10e-4 -0.053,-0.028 -0.048,-0.058 -0.04,-0.093 0.018,-0.082 0,-0.161 -0.048,-0.229 -0.079,-0.113 -0.221,-0.179 -0.243,-0.336 -0.005,-0.03 -0.056,-0.056 -0.087,-0.08 -0.061,-0.047 -0.124,-0.091 -0.186,-0.137 -0.037,-0.028 -0.075,-0.06 -0.085,-0.106 -0.037,-0.181 -0.162,-0.298 -0.286,-0.418 -0.242,-0.235 -0.345,-0.517 -0.288,-0.855 0.018,-0.11 0.029,-0.224 0.104,-0.31 0.066,-0.076 0.145,-0.137 0.138,-0.25 -10e-4,-0.013 0.011,-0.031 0.021,-0.039 0.131,-0.108 0.259,-0.219 0.45,-0.18 0.082,0.017 0.167,0.017 0.248,0.003 C 22.251,9.19 22.336,9.134 22.367,9.016 22.383,8.954 22.395,8.887 22.429,8.833 22.606,8.544 22.864,8.332 23.142,8.15 23.256,8.075 23.395,8.025 23.522,7.964 23.603,7.926 23.682,7.881 23.771,7.869 23.828,7.861 23.863,7.835 23.897,7.792 24.055,7.585 24.225,7.391 24.494,7.321 24.568,7.302 24.603,7.237 24.63,7.168 24.663,7.078 24.695,6.98 24.778,6.928 25.037,6.765 25.26,6.53 25.593,6.512 25.665,6.509 25.704,6.468 25.722,6.4 l 0.07,-0.277 c 0.003,-0.004 0.011,-0.01 0.01,-0.012 -0.011,-0.007 -0.02,-0.002 -0.028,0.003 z"
     id="path12"
     inkscape:connector-curvature="0"
     style="clip-rule:evenodd;fill:#f4900c;fill-rule:evenodd" />
</svg>
