<?xml version="1.0" encoding="UTF-8" standalone="no"?>
<svg
   xmlns:dc="http://purl.org/dc/elements/1.1/"
   xmlns:cc="http://creativecommons.org/ns#"
   xmlns:rdf="http://www.w3.org/1999/02/22-rdf-syntax-ns#"
   xmlns:svg="http://www.w3.org/2000/svg"
   xmlns="http://www.w3.org/2000/svg"
   xmlns:sodipodi="http://sodipodi.sourceforge.net/DTD/sodipodi-0.dtd"
   xmlns:inkscape="http://www.inkscape.org/namespaces/inkscape"
   viewBox="0 0 36 26"
   id="svg2"
   version="1.1"
   inkscape:version="0.91 r13725"
   sodipodi:docname="1f1e8-1f1ff.svg"
   width="36"
   height="26">
  <metadata
     id="metadata14">
    <rdf:RDF>
      <cc:Work
         rdf:about="">
        <dc:format>image/svg+xml</dc:format>
        <dc:type
           rdf:resource="http://purl.org/dc/dcmitype/StillImage" />
      </cc:Work>
    </rdf:RDF>
  </metadata>
  <defs
     id="defs12" />
  <sodipodi:namedview
     pagecolor="#ffffff"
     bordercolor="#666666"
     borderopacity="1"
     objecttolerance="10"
     gridtolerance="10"
     guidetolerance="10"
     inkscape:pageopacity="0"
     inkscape:pageshadow="2"
     inkscape:window-width="640"
     inkscape:window-height="480"
     id="namedview10"
     showgrid="false"
     inkscape:zoom="6.5555556"
     inkscape:cx="18"
     inkscape:cy="13"
     inkscape:window-x="0"
     inkscape:window-y="0"
     inkscape:window-maximized="0"
     inkscape:current-layer="svg2" />
  <path
     d="M 1.383,24.973 C 2.084,25.628 2.998,26 4,26 l 28,0 c 2.209,0 4,-1.791 4,-4.5 L 36,13 17.5,13 1.383,24.973 Z"
     id="path4"
     inkscape:connector-curvature="0"
     style="fill:#d7141a" />
  <path
     d="M 32,0 4,0 C 2.984,0 2.06,0.382 1.354,1.006 L 17.5,13 36,13 36,4 C 36,1.791 34.209,0 32,0 Z"
     id="path6"
     inkscape:connector-curvature="0"
     style="fill:#eeeeee" />
  <path
     d="M 1.383,24.973 17.5,13 1.354,1.006 C 0.525,1.739 0,2.807 0,4 l 0,17.5 c 0,1.48 0.537,2.683 1.383,3.473 z"
     id="path8"
     inkscape:connector-curvature="0"
     style="fill:#11457e" />
</svg>
