<?xml version="1.0" encoding="UTF-8" standalone="no"?>
<svg
   xmlns:dc="http://purl.org/dc/elements/1.1/"
   xmlns:cc="http://creativecommons.org/ns#"
   xmlns:rdf="http://www.w3.org/1999/02/22-rdf-syntax-ns#"
   xmlns:svg="http://www.w3.org/2000/svg"
   xmlns="http://www.w3.org/2000/svg"
   xmlns:sodipodi="http://sodipodi.sourceforge.net/DTD/sodipodi-0.dtd"
   xmlns:inkscape="http://www.inkscape.org/namespaces/inkscape"
   viewBox="0 0 36 26"
   id="svg2"
   version="1.1"
   inkscape:version="0.91 r13725"
   sodipodi:docname="1f1ec-1f1ee.svg"
   width="36"
   height="26">
  <metadata
     id="metadata46">
    <rdf:RDF>
      <cc:Work
         rdf:about="">
        <dc:format>image/svg+xml</dc:format>
        <dc:type
           rdf:resource="http://purl.org/dc/dcmitype/StillImage" />
      </cc:Work>
    </rdf:RDF>
  </metadata>
  <defs
     id="defs44" />
  <sodipodi:namedview
     pagecolor="#ffffff"
     bordercolor="#666666"
     borderopacity="1"
     objecttolerance="10"
     gridtolerance="10"
     guidetolerance="10"
     inkscape:pageopacity="0"
     inkscape:pageshadow="2"
     inkscape:window-width="640"
     inkscape:window-height="480"
     id="namedview42"
     showgrid="false"
     inkscape:zoom="6.5555556"
     inkscape:cx="18"
     inkscape:cy="13"
     inkscape:window-x="0"
     inkscape:window-y="0"
     inkscape:window-maximized="0"
     inkscape:current-layer="svg2" />
  <path
     d="m 36,22 c 0,2.209 -1.791,4 -4,4 L 4,26 C 1.791,26 0,24.209 0,22 l 0,-5 36,0 0,5 z"
     id="path4"
     inkscape:connector-curvature="0"
     style="fill:#da1c0b" />
  <path
     d="M 32,0 4,0 C 1.791,0 0,1.791 0,4 L 0,18 36,18 36,4 C 36,1.791 34.209,0 32,0 Z"
     id="path6"
     inkscape:connector-curvature="0"
     style="fill:#eeeeee" />
  <path
     d="m 14.451,5.363 0,0.779 -0.778,0 0,-0.779 -1.557,0 0,0.779 -0.779,0 0,-0.779 -0.778,0 0,1.557 0.778,0 0,3.892 3.114,0 0,-3.892 0.779,0 0,-1.557 z"
     id="path8"
     inkscape:connector-curvature="0"
     style="fill:#da1c0b" />
  <path
     d="m 15.241,9.255 0,0.779 -0.779,0 0,-0.779 -0.778,0 0,0.779 -1.557,0 0,-0.779 -0.779,0 0,0.779 -0.778,0 0,-0.779 -0.778,0 0,1.557 0,-10e-4 0,10e-4 0.778,0 0,4.254 -0.778,0.416 0,0.779 6.227,0 0,-0.779 -0.778,-0.416 0,-4.254 0.778,0 0,-1.557 z"
     id="path10"
     inkscape:connector-curvature="0"
     style="fill:#da1c0b" />
  <path
     d="m 12.116,8.477 1.557,0 0,1.557 -1.557,0 z"
     id="path12"
     inkscape:connector-curvature="0" />
  <path
     d="m 13.673,8.477 c 0,0.43 -0.348,0.778 -0.778,0.778 -0.43,0 -0.778,-0.348 -0.778,-0.778 0,-0.43 0.348,-0.778 0.778,-0.778 0.43,-10e-4 0.778,0.348 0.778,0.778 z m 0,4.903 c 0,-0.621 -0.157,-1.125 -0.778,-1.125 -0.621,0 -0.778,0.504 -0.778,1.125 l 0,1.325 1.557,0 0,-1.325 -10e-4,0 z"
     id="path14"
     inkscape:connector-curvature="0" />
  <path
     d="m 24.91,5.363 0,0.779 -0.778,0 0,-0.779 -1.557,0 0,0.779 -0.778,0 0,-0.779 -0.779,0 0,1.557 0.779,0 0,3.892 3.113,0 0,-3.892 0.78,0 0,-1.557 z"
     id="path16"
     inkscape:connector-curvature="0"
     style="fill:#da1c0b" />
  <path
     d="m 25.69,9.255 0,0.779 -0.78,0 0,-0.779 -0.778,0 0,0.779 -1.557,0 0,-0.779 -0.778,0 0,0.779 -0.779,0 0,-0.779 -0.778,0 0,1.557 0,-10e-4 0,10e-4 0.778,0 0,4.254 -0.778,0.416 0,0.779 6.227,0 0,-0.779 -0.777,-0.416 0,-4.254 0.777,0 0,-1.557 z"
     id="path18"
     inkscape:connector-curvature="0"
     style="fill:#da1c0b" />
  <path
     d="m 22.575,8.477 1.557,0 0,1.557 -1.557,0 z"
     id="path20"
     inkscape:connector-curvature="0" />
  <path
     d="m 24.132,8.477 c 0,0.43 -0.349,0.778 -0.778,0.778 -0.43,0 -0.778,-0.348 -0.778,-0.778 0,-0.43 0.349,-0.778 0.778,-0.778 0.429,-10e-4 0.778,0.348 0.778,0.778 z m 0,4.903 c 0,-0.621 -0.157,-1.125 -0.778,-1.125 -0.621,0 -0.778,0.504 -0.778,1.125 l 0,1.325 1.557,0 0,-1.325 -10e-4,0 z"
     id="path22"
     inkscape:connector-curvature="0" />
  <path
     d="m 20,3 0,1 -1,0 0,-1 -2,0 0,1 -1,0 0,-1 -1,0 0,2 1,0 0,5 4,0 0,-5 1,0 0,-2 z"
     id="path24"
     inkscape:connector-curvature="0"
     style="fill:#da1c0b" />
  <path
     d="m 21,8 0,1 -1,0 0,-1 -1,0 0,1 -2,0 0,-1 -1,0 0,1 -1,0 0,-1 -1,0 0,9 8,0 0,-9 z"
     id="path26"
     inkscape:connector-curvature="0"
     style="fill:#da1c0b" />
  <path
     d="m 17,7 2,0 0,2 -2,0 z"
     id="path28"
     inkscape:connector-curvature="0" />
  <circle
     cx="18"
     cy="7"
     r="1"
     id="circle30" />
  <path
     d="m 19.444,13.298 c 0,-0.798 -0.646,-1.445 -1.444,-1.445 -0.798,0 -1.444,0.647 -1.444,1.445 l 0,2.167 2.889,0 0,-2.167 -0.001,0 z"
     id="path32"
     inkscape:connector-curvature="0" />
  <path
     d="m 18.162,18.349 0,0.133 1.079,1.078 -1.079,1.078 0,4.717 -0.348,0 0,-0.527 -1.191,0 0,-0.707 0.348,0 0,0.361 0.843,0 0,-1.049 -0.843,0 0,0.355 -0.348,0 0,-0.702 1.191,0 0,-2.45 -1.08,-1.076 1.08,-1.074 0,-0.137 z"
     id="path34"
     inkscape:connector-curvature="0"
     style="fill:#fff100" />
  <path
     d="m 17.24,19.557 0.748,-0.748 0.748,0.749 -0.749,0.748 z"
     id="path36"
     inkscape:connector-curvature="0"
     style="fill:#da1c0b" />
  <path
     d="m 18.147,16.32 -0.294,0 c -0.243,0 -0.44,0.3 -0.44,0.669 l 0,1.338 c 0,0.369 0.197,0.669 0.44,0.669 l 0.294,0 c 0.243,0 0.44,-0.3 0.44,-0.669 l 0,-1.338 c 0,-0.369 -0.197,-0.669 -0.44,-0.669 z m 0.11,2.029 c 0,0.209 -0.111,0.377 -0.247,0.377 -0.136,0 -0.248,-0.168 -0.248,-0.377 l 0,-1.349 c 0,-0.207 0.111,-0.375 0.248,-0.375 0.137,0 0.247,0.168 0.247,0.375 l 0,1.349 z"
     id="path38"
     inkscape:connector-curvature="0"
     style="fill:#fff100" />
  <path
     d="m 19.326,15.265 c -0.107,-0.06 -0.25,-0.058 -0.318,0.003 L 18,16.177 16.992,15.268 c -0.068,-0.061 -0.211,-0.062 -0.318,-0.003 -0.108,0.059 -0.14,0.156 -0.072,0.218 l 1.232,1.108 c 0.038,0.034 0.1,0.045 0.166,0.041 0.066,0.004 0.127,-0.007 0.166,-0.041 l 1.232,-1.108 c 0.069,-0.062 0.037,-0.16 -0.072,-0.218 z"
     id="path40"
     inkscape:connector-curvature="0"
     style="fill:#fff100" />
</svg>
