<?xml version="1.0" encoding="UTF-8" standalone="no"?>
<svg
   xmlns:dc="http://purl.org/dc/elements/1.1/"
   xmlns:cc="http://creativecommons.org/ns#"
   xmlns:rdf="http://www.w3.org/1999/02/22-rdf-syntax-ns#"
   xmlns:svg="http://www.w3.org/2000/svg"
   xmlns="http://www.w3.org/2000/svg"
   xmlns:sodipodi="http://sodipodi.sourceforge.net/DTD/sodipodi-0.dtd"
   xmlns:inkscape="http://www.inkscape.org/namespaces/inkscape"
   viewBox="0 0 36 26"
   id="svg2"
   version="1.1"
   inkscape:version="0.91 r13725"
   sodipodi:docname="1f1e9-1f1ff.svg"
   width="36"
   height="26">
  <metadata
     id="metadata16">
    <rdf:RDF>
      <cc:Work
         rdf:about="">
        <dc:format>image/svg+xml</dc:format>
        <dc:type
           rdf:resource="http://purl.org/dc/dcmitype/StillImage" />
      </cc:Work>
    </rdf:RDF>
  </metadata>
  <defs
     id="defs14" />
  <sodipodi:namedview
     pagecolor="#ffffff"
     bordercolor="#666666"
     borderopacity="1"
     objecttolerance="10"
     gridtolerance="10"
     guidetolerance="10"
     inkscape:pageopacity="0"
     inkscape:pageshadow="2"
     inkscape:window-width="640"
     inkscape:window-height="480"
     id="namedview12"
     showgrid="false"
     inkscape:zoom="6.5555556"
     inkscape:cx="18"
     inkscape:cy="13"
     inkscape:window-x="0"
     inkscape:window-y="0"
     inkscape:window-maximized="0"
     inkscape:current-layer="svg2" />
  <path
     d="M 4,0 C 1.791,0 0,1.791 0,4 l 0,18 c 0,2.209 1.791,4 4,4 L 18,26 18,0 4,0 Z"
     id="path4"
     inkscape:connector-curvature="0"
     style="fill:#006233" />
  <path
     d="m 32,0 -14,0 0,26 14,0 c 2.209,0 4,-1.791 4,-4 L 36,4 C 36,1.791 34.209,0 32,0 Z"
     id="path6"
     inkscape:connector-curvature="0"
     style="fill:#eeeeee" />
  <path
     d="m 20,19 c -3.315,0 -6,-2.685 -6,-6 0,-3.314 2.685,-6 6,-6 1.31,0 2.52,0.425 3.507,1.138 C 22.159,6.614 20.195,5.647 18,5.647 c -4.061,0 -7.353,3.292 -7.353,7.353 0,4.062 3.292,7.354 7.353,7.354 2.195,0 4.16,-0.967 5.507,-2.492 C 22.521,18.575 21.312,19 20,19 Z"
     id="path8"
     inkscape:connector-curvature="0"
     style="fill:#d20f34" />
  <path
     d="m 25.302,13.23 -2.44,0.562 -0.22,2.493 -1.288,-2.146 -2.44,0.561 1.644,-1.888 -1.287,-2.147 2.303,0.98 1.644,-1.889 -0.22,2.494 z"
     id="path10"
     inkscape:connector-curvature="0"
     style="fill:#d20f34" />
</svg>
