<?xml version="1.0" encoding="UTF-8" standalone="no"?>
<svg
   xmlns:dc="http://purl.org/dc/elements/1.1/"
   xmlns:cc="http://creativecommons.org/ns#"
   xmlns:rdf="http://www.w3.org/1999/02/22-rdf-syntax-ns#"
   xmlns:svg="http://www.w3.org/2000/svg"
   xmlns="http://www.w3.org/2000/svg"
   xmlns:sodipodi="http://sodipodi.sourceforge.net/DTD/sodipodi-0.dtd"
   xmlns:inkscape="http://www.inkscape.org/namespaces/inkscape"
   viewBox="0 0 36 26"
   id="svg2"
   version="1.1"
   inkscape:version="0.91 r13725"
   sodipodi:docname="1f1e9-1f1f0.svg"
   width="36"
   height="26">
  <metadata
     id="metadata12">
    <rdf:RDF>
      <cc:Work
         rdf:about="">
        <dc:format>image/svg+xml</dc:format>
        <dc:type
           rdf:resource="http://purl.org/dc/dcmitype/StillImage" />
      </cc:Work>
    </rdf:RDF>
  </metadata>
  <defs
     id="defs10" />
  <sodipodi:namedview
     pagecolor="#ffffff"
     bordercolor="#666666"
     borderopacity="1"
     objecttolerance="10"
     gridtolerance="10"
     guidetolerance="10"
     inkscape:pageopacity="0"
     inkscape:pageshadow="2"
     inkscape:window-width="640"
     inkscape:window-height="480"
     id="namedview8"
     showgrid="false"
     inkscape:zoom="6.5555556"
     inkscape:cx="18"
     inkscape:cy="13"
     inkscape:window-x="0"
     inkscape:window-y="0"
     inkscape:window-maximized="0"
     inkscape:current-layer="svg2" />
  <path
     d="m 32,0 -17,0 0,11 21,0 0,-7 C 36,1.791 34.209,0 32,0 Z m -17,26 17,0 c 2.209,0 4,-1.791 4,-4.5 L 36,15 15,15 15,26 Z M 0,15 0,21.5 C 0,24.209 1.791,26 4,26 l 7,0 0,-11 -11,0 z M 11,0 4,0 C 1.791,0 0,1.791 0,4 l 0,7 11,0 0,-11 z"
     id="path4"
     inkscape:connector-curvature="0"
     style="fill:#c60c30" />
  <path
     d="m 15,0 -4,0 0,11 -11,0 0,4 11,0 0,11 4,0 0,-11 21,0 0,-4 -21,0 z"
     id="path6"
     inkscape:connector-curvature="0"
     style="fill:#eeeeee" />
</svg>
