<?xml version="1.0" encoding="UTF-8" standalone="no"?>
<svg
   xmlns:dc="http://purl.org/dc/elements/1.1/"
   xmlns:cc="http://creativecommons.org/ns#"
   xmlns:rdf="http://www.w3.org/1999/02/22-rdf-syntax-ns#"
   xmlns:svg="http://www.w3.org/2000/svg"
   xmlns="http://www.w3.org/2000/svg"
   xmlns:sodipodi="http://sodipodi.sourceforge.net/DTD/sodipodi-0.dtd"
   xmlns:inkscape="http://www.inkscape.org/namespaces/inkscape"
   viewBox="0 0 36 26"
   id="svg2"
   version="1.1"
   inkscape:version="0.91 r13725"
   sodipodi:docname="1f1ea-1f1ec.svg"
   width="36"
   height="26">
  <metadata
     id="metadata28">
    <rdf:RDF>
      <cc:Work
         rdf:about="">
        <dc:format>image/svg+xml</dc:format>
        <dc:type
           rdf:resource="http://purl.org/dc/dcmitype/StillImage" />
      </cc:Work>
    </rdf:RDF>
  </metadata>
  <defs
     id="defs26" />
  <sodipodi:namedview
     pagecolor="#ffffff"
     bordercolor="#666666"
     borderopacity="1"
     objecttolerance="10"
     gridtolerance="10"
     guidetolerance="10"
     inkscape:pageopacity="0"
     inkscape:pageshadow="2"
     inkscape:window-width="640"
     inkscape:window-height="480"
     id="namedview24"
     showgrid="false"
     inkscape:zoom="6.5555556"
     inkscape:cx="18"
     inkscape:cy="13"
     inkscape:window-x="0"
     inkscape:window-y="0"
     inkscape:window-maximized="0"
     inkscape:current-layer="svg2" />
  <path
     d="m 36,22 c 0,2.209 -1.791,4 -4,4 L 4,26 C 1.791,26 0,24.209 0,22 L 0,4 C 0,1.791 1.791,0 4,0 l 28,0 c 2.209,0 4,1.791 4,4 l 0,18 z"
     id="path4"
     inkscape:connector-curvature="0"
     style="fill:#141414" />
  <path
     d="M 0,8 36,8 36,18 0,18 Z"
     id="path6"
     inkscape:connector-curvature="0"
     style="fill:#eeeeee" />
  <path
     d="M 32,0 4,0 C 1.791,0 0,1.791 0,4 L 0,8 36,8 36,4 C 36,1.791 34.209,0 32,0 Z"
     id="path8"
     inkscape:connector-curvature="0"
     style="fill:#ce1225" />
  <path
     d="m 14.75,16.562 c 0,0 0.016,0.25 0.234,0.375 0,0 -0.062,0.188 0.172,0.297 0.234,0.109 1.078,0.281 2.547,0.281 1.469,0 2.297,-0.156 2.516,-0.266 0.219,-0.109 0.234,-0.359 0.234,-0.359 0,0 0.234,-0.125 0.219,-0.281 -0.016,-0.156 -0.328,-0.328 -0.328,-0.328 0,0 -0.078,-0.203 -0.297,-0.281 -0.219,-0.078 -0.922,0.344 -2.266,0.281 -1.344,-0.062 -2.109,-0.266 -2.359,-0.25 -0.25,0.016 -0.359,0.266 -0.359,0.266 0,0 -0.282,0.125 -0.313,0.265 z"
     id="path10"
     inkscape:connector-curvature="0"
     style="fill:#bf9300" />
  <path
     d="m 14.922,16.547 c -0.013,0.093 0.188,0.297 0.188,0.297 0,0 0,0.234 0.203,0.297 0.203,0.063 1.031,0.219 2.375,0.203 1.344,-0.016 2.297,-0.094 2.406,-0.188 0.109,-0.094 0.203,-0.297 0.203,-0.297 0,0 0.219,-0.156 0.203,-0.281 -0.016,-0.125 -0.328,-0.203 -0.328,-0.203 0,0 -0.088,-0.188 -0.192,-0.266 -0.104,-0.078 -0.776,0.312 -2.214,0.312 -1.407,0 -2.219,-0.344 -2.359,-0.328 -0.141,0.016 -0.234,0.281 -0.234,0.281 0,0 -0.235,0.064 -0.251,0.173 z"
     id="path12"
     inkscape:connector-curvature="0"
     style="fill:#eeeeee" />
  <path
     d="m 20.859,10.484 c 0,0 -0.031,-0.734 -0.703,-0.641 -0.672,0.094 -0.719,0.422 -1.438,0.5 L 18.57,10.357 C 18.462,10.072 18.374,9.66 18.374,9.343 18.374,8.874 18.515,8.671 18.03,8.437 17.546,8.203 17.452,8.421 17.452,8.421 c 0,0 -0.375,-0.188 -0.547,-0.047 -0.172,0.141 -0.078,0.5 0,0.391 0.078,-0.109 0.391,0.203 0.391,0.203 0.106,0.519 -0.195,1.081 -0.401,1.394 -0.071,-0.007 -0.128,-0.01 -0.208,-0.019 -0.719,-0.078 -0.766,-0.406 -1.438,-0.5 -0.672,-0.094 -0.703,0.641 -0.703,0.641 l -0.266,5.672 0.547,-0.422 0.003,-0.067 1.138,-1.011 0.19,-0.19 -0.471,1.377 c 0,0 -0.719,-0.047 -0.516,0.531 0,0 0.109,-0.328 0.297,-0.266 0.188,0.062 0.734,0.203 0.734,0.203 l 0.188,0.297 0.234,-0.219 0.734,-0.031 c 0,0 0.234,0.062 0.219,0.266 0.049,-0.113 0.055,-0.206 0.037,-0.283 l 0.221,-0.015 c -0.022,0.08 -0.018,0.178 0.034,0.299 -0.016,-0.203 0.219,-0.266 0.219,-0.266 l 0.734,0.031 0.235,0.219 0.188,-0.297 c 0,0 0.546,-0.141 0.733,-0.203 0.187,-0.062 0.297,0.266 0.297,0.266 0.203,-0.578 -0.516,-0.531 -0.516,-0.531 l -0.449,-1.313 0.126,0.126 1.138,1.011 0.003,0.067 0.547,0.422 -0.265,-5.673 z m -3.107,3.438 c -1.127,-0.696 -1.22,-2.453 -1.22,-2.453 0,0 0.697,-0.036 1.203,-0.391 0.456,0.405 1.234,0.359 1.234,0.359 0,0 -0.053,1.764 -1.217,2.485 z m 2.576,-3.656 -0.953,0.906 -0.16,0.064 c -0.164,0.006 -0.962,0.008 -1.465,-0.439 -0.625,0.438 -1.484,0.469 -1.484,0.469 l -0.133,-0.053 -1.055,-0.947 -0.277,0.114 c 0.012,-0.113 0.074,-0.367 0.418,-0.317 0.564,0.081 0.797,0.391 1.391,0.453 l 0.168,0.017 -0.059,0.076 c 0.092,0 0.228,-0.027 0.328,-0.049 l 0.113,0.011 -0.051,0.178 c 0.08,-0.024 0.196,-0.093 0.291,-0.154 l 0.26,0.025 0.059,0.082 0.198,-0.099 0.133,-0.013 c 0.115,0.067 0.279,0.127 0.279,0.127 l 0.031,-0.156 c 0.141,0.094 0.375,0.094 0.375,0.094 -0.027,-0.022 -0.054,-0.078 -0.082,-0.126 l 0.144,-0.015 c 0.594,-0.062 0.826,-0.372 1.391,-0.453 0.344,-0.049 0.406,0.204 0.418,0.317 l -0.278,-0.112 z"
     id="path14"
     inkscape:connector-curvature="0"
     style="fill:#bf9300" />
  <path
     d="m 17.375,13.891 -0.563,2.14 -0.937,-0.187 0.969,-2.75 z m 0.699,0 0.562,2.14 0.938,-0.187 -0.969,-2.75 z"
     id="path16"
     inkscape:connector-curvature="0"
     style="fill:#eeeeee" />
  <path
     d="m 16.766,11.641 c 0,0 0.078,0.906 0.484,1.609 l 0,-1.812 c 0,0 -0.266,0.156 -0.484,0.203 z m 1.953,0.031 c 0,0 -0.078,0.906 -0.484,1.609 l 0,-1.812 c -10e-4,0 0.265,0.156 0.484,0.203 z"
     id="path18"
     inkscape:connector-curvature="0"
     style="fill:#bf9300" />
  <path
     d="m 16.953,8.578 c 0,0 0.109,-0.109 0.422,0.109 0.203,0.142 0.383,0.25 0.383,0.25 0,0 0.128,-0.135 0.316,-0.104 0.188,0.031 0.083,0.292 0.114,0.838 0.031,0.547 0.25,0.781 0.25,0.781 l -0.266,-0.156 0.016,0.172 -0.297,-0.141 -0.141,0.203 -0.141,-0.219 -0.228,0.139 -0.069,-0.186 -0.266,0.141 c 0,0 0.391,-0.484 0.422,-1.016 0.009,-0.159 -0.031,-0.516 -0.031,-0.516 0,0 -0.249,-0.311 -0.484,-0.295 z"
     id="path20"
     inkscape:connector-curvature="0"
     style="fill:#eeeeee" />
  <path
     d="m 15.547,16.656 c -0.179,0.107 -0.109,0.172 0,0.219 0.109,0.047 0.765,0.126 2.094,0.156 1.359,0.031 2.203,-0.125 2.312,-0.188 0.109,-0.062 0.125,-0.172 -0.062,-0.203 -0.188,-0.031 -1.125,0.125 -2.266,0.125 -1.406,10e-4 -2,-0.156 -2.078,-0.109 z"
     id="path22"
     inkscape:connector-curvature="0"
     style="fill:#bf9300" />
</svg>
