<?xml version="1.0" encoding="UTF-8" standalone="no"?>
<svg
   xmlns:dc="http://purl.org/dc/elements/1.1/"
   xmlns:cc="http://creativecommons.org/ns#"
   xmlns:rdf="http://www.w3.org/1999/02/22-rdf-syntax-ns#"
   xmlns:svg="http://www.w3.org/2000/svg"
   xmlns="http://www.w3.org/2000/svg"
   xmlns:sodipodi="http://sodipodi.sourceforge.net/DTD/sodipodi-0.dtd"
   xmlns:inkscape="http://www.inkscape.org/namespaces/inkscape"
   viewBox="0 0 36 26"
   id="svg2"
   version="1.1"
   inkscape:version="0.91 r13725"
   sodipodi:docname="1f1ed-1f1f3.svg"
   width="36"
   height="26">
  <metadata
     id="metadata14">
    <rdf:RDF>
      <cc:Work
         rdf:about="">
        <dc:format>image/svg+xml</dc:format>
        <dc:type
           rdf:resource="http://purl.org/dc/dcmitype/StillImage" />
      </cc:Work>
    </rdf:RDF>
  </metadata>
  <defs
     id="defs12" />
  <sodipodi:namedview
     pagecolor="#ffffff"
     bordercolor="#666666"
     borderopacity="1"
     objecttolerance="10"
     gridtolerance="10"
     guidetolerance="10"
     inkscape:pageopacity="0"
     inkscape:pageshadow="2"
     inkscape:window-width="640"
     inkscape:window-height="480"
     id="namedview10"
     showgrid="false"
     inkscape:zoom="6.5555556"
     inkscape:cx="18"
     inkscape:cy="13"
     inkscape:window-x="0"
     inkscape:window-y="0"
     inkscape:window-maximized="0"
     inkscape:current-layer="svg2" />
  <path
     d="m 0,9 36,0 0,8 -36,0 z"
     id="path4"
     inkscape:connector-curvature="0"
     style="fill:#eeeeee" />
  <path
     d="M 32,0 4,0 C 1.791,0 0,1.791 0,4 L 0,9 36,9 36,4 C 36,1.791 34.209,0 32,0 Z M 0,22 c 0,2.209 1.791,4 4,4 l 28,0 c 2.209,0 4,-1.791 4,-4 l 0,-5 -36,0 0,5 z"
     id="path6"
     inkscape:connector-curvature="0"
     style="fill:#0156a3" />
  <path
     d="m 18.265,12.76 -0.249,-0.766 -0.249,0.766 -0.806,0 0.652,0.473 L 17.364,14 18.016,13.526 18.668,14 18.419,13.233 19.071,12.76 Z m 5.332,2.48 -0.249,0.766 0.652,-0.473 0.652,0.473 -0.249,-0.766 0.652,-0.473 -0.806,0 L 24,14 l -0.249,0.767 -0.806,0 z M 24.249,10.76 24,9.994 l -0.249,0.766 -0.806,0 0.652,0.473 L 23.348,12 24,11.526 24.652,12 24.403,11.233 25.055,10.76 Z m -12.707,4.48 -0.249,0.766 0.652,-0.473 0.652,0.473 -0.249,-0.766 0.652,-0.473 -0.806,0 -0.249,-0.767 -0.249,0.767 -0.806,0 z m 0.652,-4.48 -0.249,-0.766 -0.249,0.766 -0.806,0 0.652,0.473 L 11.293,12 11.945,11.526 12.597,12 12.348,11.233 13,10.76 Z"
     id="path8"
     inkscape:connector-curvature="0"
     style="fill:#2657a7" />
</svg>
