<?xml version="1.0" encoding="UTF-8" standalone="no"?>
<svg
   xmlns:dc="http://purl.org/dc/elements/1.1/"
   xmlns:cc="http://creativecommons.org/ns#"
   xmlns:rdf="http://www.w3.org/1999/02/22-rdf-syntax-ns#"
   xmlns:svg="http://www.w3.org/2000/svg"
   xmlns="http://www.w3.org/2000/svg"
   xmlns:sodipodi="http://sodipodi.sourceforge.net/DTD/sodipodi-0.dtd"
   xmlns:inkscape="http://www.inkscape.org/namespaces/inkscape"
   viewBox="0 0 36 26"
   id="svg2"
   version="1.1"
   inkscape:version="0.91 r13725"
   sodipodi:docname="1f1ec-1f1fa.svg"
   width="36"
   height="26">
  <metadata
     id="metadata44">
    <rdf:RDF>
      <cc:Work
         rdf:about="">
        <dc:format>image/svg+xml</dc:format>
        <dc:type
           rdf:resource="http://purl.org/dc/dcmitype/StillImage" />
      </cc:Work>
    </rdf:RDF>
  </metadata>
  <defs
     id="defs42" />
  <sodipodi:namedview
     pagecolor="#ffffff"
     bordercolor="#666666"
     borderopacity="1"
     objecttolerance="10"
     gridtolerance="10"
     guidetolerance="10"
     inkscape:pageopacity="0"
     inkscape:pageshadow="2"
     inkscape:window-width="640"
     inkscape:window-height="480"
     id="namedview40"
     showgrid="false"
     inkscape:zoom="6.5555556"
     inkscape:cx="18"
     inkscape:cy="13"
     inkscape:window-x="0"
     inkscape:window-y="0"
     inkscape:window-maximized="0"
     inkscape:current-layer="svg2" />
  <path
     d="m 36,22 c 0,2.209 -1.791,4 -4,4 L 4,26 C 1.791,26 0,24.209 0,22 L 0,4 C 0,1.791 1.791,0 4,0 l 28,0 c 2.209,0 4,1.791 4,4 l 0,18 z"
     id="path4"
     inkscape:connector-curvature="0"
     style="fill:#dd2e44" />
  <path
     d="m 35,22 c 0,1.657 -1.343,3 -3,3 L 4,25 C 2.343,25 1,23.657 1,22 L 1,4 C 1,2.343 2.343,1 4,1 l 28,0 c 1.657,0 3,1.343 3,3 l 0,18 z"
     id="path6"
     inkscape:connector-curvature="0"
     style="fill:#00297b" />
  <path
     d="m 17.519,21.625 c 2.672,-2.22 5.629,-4.795 5.629,-8.434 0,-3.64 -2.957,-6.215 -5.629,-8.435 -2.673,2.22 -5.63,4.794 -5.63,8.435 0,3.639 2.957,6.214 5.63,8.434 z"
     id="path8"
     inkscape:connector-curvature="0"
     style="fill:#dd2e44" />
  <path
     d="m 12.727,14.626 c 0.615,2.561 2.794,4.497 4.792,6.202 1.999,-1.705 4.178,-3.642 4.792,-6.202 l -9.584,0 z"
     id="path10"
     inkscape:connector-curvature="0"
     style="fill:#017bdd" />
  <path
     d="m 22.31,14.626 c 0.111,-0.457 0.172,-0.936 0.172,-1.435 0,-3.296 -2.607,-5.628 -4.963,-7.638 -2.356,2.01 -4.962,4.341 -4.962,7.638 0,0.499 0.06,0.978 0.17,1.435 l 9.583,0 z"
     id="path12"
     inkscape:connector-curvature="0"
     style="fill:#66afeb" />
  <path
     d="m 22.463,13.664 c -0.025,0.331 -0.076,0.651 -0.152,0.962 l -5.758,0 c 0.071,-0.192 0.17,-0.488 0.256,-0.711 1.62,0.223 4.171,0.163 5.654,-0.251 z"
     id="path14"
     inkscape:connector-curvature="0"
     style="fill:#9c8431" />
  <path
     d="m 14.938,18.423 c -0.441,-0.479 -0.848,-0.983 -1.196,-1.515 0.906,0.041 2.676,0.229 3.379,0.84 0.171,0.148 0.171,0.222 -0.042,0.192 -0.427,-0.058 -1.567,0.181 -2.141,0.483 z"
     id="path16"
     inkscape:connector-curvature="0"
     style="fill:#fff100" />
  <path
     d="m 21.789,16.05 c -0.932,1.88 -2.66,3.404 -4.27,4.778 -0.501,-0.428 -1.013,-0.869 -1.509,-1.331 0.684,-1.083 2.59,-0.417 2.59,-1.379 0,-0.503 -0.483,-0.943 -1.166,-0.992 -0.213,-0.014 -0.265,-0.023 -0.1,-0.147 0.782,-0.591 1.579,0.044 2.914,-0.562 0.973,-0.441 1.418,-0.408 1.541,-0.367 z"
     id="path18"
     inkscape:connector-curvature="0"
     style="fill:#fff100" />
  <path
     d="M 18.542,9.45 C 18.524,9.427 18.503,9.366 18.496,9.351 18.538,9.388 18.724,9.436 18.791,9.447 18.763,9.429 18.713,9.355 18.695,9.34 18.748,9.362 18.947,9.432 18.99,9.41 18.955,9.374 18.854,9.269 18.812,9.24 18.886,9.266 19.064,9.366 19.11,9.366 19.1,9.326 19.085,9.263 19.061,9.21 c 0.062,0.045 0.18,0.097 0.24,0.119 -0.006,-0.048 -0.021,-0.126 -0.041,-0.17 0.062,0.044 0.178,0.133 0.254,0.163 -0.02,-0.03 -0.014,-0.126 -0.049,-0.17 0.049,0.037 0.199,0.156 0.264,0.178 -0.037,-0.044 -0.043,-0.133 -0.072,-0.17 0.043,0.037 0.186,0.104 0.25,0.148 -0.016,-0.03 -0.043,-0.097 -0.072,-0.141 0.043,0.044 0.234,0.155 0.291,0.2 -0.014,-0.044 -0.043,-0.141 -0.062,-0.178 0.084,0.03 0.305,0.163 0.377,0.192 C 20.185,8.869 19.035,8.697 18.378,8.905 18.482,8.854 18.538,8.752 18.735,8.704 18.686,8.689 18.563,8.626 18.55,8.604 18.613,8.619 18.848,8.574 18.898,8.567 18.855,8.53 18.777,8.471 18.742,8.434 18.835,8.441 19.055,8.419 19.119,8.397 19.082,8.382 19.004,8.353 18.961,8.331 19.025,8.338 19.175,8.353 19.238,8.338 19.197,8.301 19.125,8.212 19.068,8.175 19.16,8.197 19.345,8.197 19.466,8.182 19.409,8.145 19.331,8.108 19.28,8.079 19.339,8.086 19.579,8.02 19.643,8.005 19.608,7.968 19.514,7.946 19.457,7.924 19.557,7.917 19.721,7.82 19.769,7.776 18.977,7.788 18.319,8.172 17.976,8.738 17.987,8.554 17.926,8.33 17.917,8.199 L 17.818,8.324 C 17.848,8.222 17.847,7.951 17.831,7.869 17.813,7.922 17.764,8.002 17.742,8.043 17.749,7.945 17.723,7.675 17.693,7.568 17.671,7.624 17.615,7.7 17.592,7.742 17.61,7.619 17.531,7.303 17.493,7.182 17.494,7.24 17.441,7.383 17.424,7.419 17.421,7.309 17.332,6.955 17.291,6.879 17.309,6.938 17.277,7.094 17.275,7.149 17.248,7.071 17.141,6.867 17.104,6.808 17.118,6.85 17.105,6.93 17.105,6.973 17.043,6.884 16.879,6.718 16.805,6.665 16.869,6.763 16.925,6.917 16.959,6.983 16.94,6.973 16.891,6.952 16.867,6.947 16.923,7.015 17.029,7.2 17.068,7.267 17.033,7.255 16.96,7.249 16.924,7.249 c 0.074,0.058 0.22,0.223 0.27,0.291 -0.032,-0.014 -0.13,-0.008 -0.157,0.004 0.064,0.034 0.213,0.17 0.258,0.232 C 17.26,7.753 17.176,7.731 17.142,7.734 17.217,7.813 17.326,7.951 17.375,8.005 17.332,7.979 17.193,7.94 17.144,7.945 17.202,8.002 17.375,8.187 17.42,8.248 17.376,8.232 17.274,8.247 17.238,8.247 17.303,8.307 17.472,8.5 17.513,8.55 17.472,8.527 17.36,8.508 17.32,8.505 17.395,8.589 17.502,8.757 17.549,8.827 17.51,8.824 17.426,8.813 17.393,8.799 17.022,8.186 16.353,7.808 15.887,7.773 c 0.064,0.029 0.285,0.17 0.355,0.244 -0.05,0 -0.121,-0.015 -0.164,-0.015 0.078,0.067 0.242,0.163 0.306,0.192 -0.021,0 -0.114,0 -0.142,0.019 0.064,0.064 0.234,0.111 0.345,0.192 -0.042,0 -0.114,0.007 -0.156,0.007 0.096,0.037 0.263,0.156 0.32,0.241 C 16.723,8.649 16.644,8.642 16.605,8.638 16.697,8.69 16.826,8.782 16.882,8.842 16.847,8.831 16.765,8.831 16.733,8.831 16.79,8.875 16.964,8.953 17.017,9.019 16.988,9.016 16.889,9.008 16.861,9.008 c 0.06,0.048 0.229,0.178 0.321,0.278 -1.084,-0.524 -2.403,-0.287 -3.101,0.677 0.086,-0.029 0.384,-0.207 0.483,-0.237 -0.043,0.052 -0.029,0.119 -0.057,0.17 0.085,-0.052 0.22,-0.163 0.32,-0.23 -0.021,0.037 -0.036,0.118 -0.071,0.185 0.071,-0.044 0.291,-0.192 0.398,-0.281 -0.014,0.067 -0.042,0.126 -0.064,0.17 0.114,-0.067 0.327,-0.215 0.399,-0.267 -0.035,0.066 -0.064,0.141 -0.1,0.185 0.1,-0.037 0.327,-0.185 0.462,-0.259 -0.021,0.052 -0.035,0.126 -0.071,0.17 0.107,-0.059 0.277,-0.111 0.392,-0.104 -0.022,0.037 -0.057,0.104 -0.1,0.133 0.107,-0.037 0.259,-0.064 0.43,-0.042 -0.733,0.242 -1.466,1.032 -1.446,1.552 0.067,-0.119 0.203,-0.277 0.288,-0.355 -0.018,0.056 -0.007,0.145 -0.003,0.196 0.035,-0.111 0.11,-0.244 0.177,-0.363 -0.01,0.067 0.011,0.152 0.025,0.196 0.035,-0.107 0.164,-0.325 0.22,-0.415 -0.018,0.063 0.004,0.182 0.018,0.244 0.054,-0.111 0.164,-0.281 0.253,-0.381 -0.021,0.067 -0.018,0.181 -0.014,0.222 0.056,-0.1 0.198,-0.278 0.284,-0.37 -0.025,0.078 -0.025,0.196 -0.029,0.252 0.068,-0.107 0.26,-0.307 0.37,-0.403 -0.032,0.07 -0.043,0.185 -0.053,0.233 0.082,-0.089 0.32,-0.237 0.409,-0.263 -0.143,0.1 -0.292,0.355 -0.377,0.477 l 0.138,-0.026 c -0.078,0.052 -0.23,0.24 -0.267,0.307 0.043,-0.026 0.121,-0.052 0.161,-0.067 -0.061,0.063 -0.196,0.267 -0.235,0.359 0.046,-0.026 0.128,-0.044 0.167,-0.059 -0.081,0.074 -0.206,0.34 -0.249,0.447 0.032,-0.041 0.149,-0.107 0.182,-0.122 -0.06,0.078 -0.199,0.377 -0.213,0.455 0.022,-0.052 0.132,-0.141 0.164,-0.178 -0.025,0.07 -0.068,0.277 -0.075,0.341 0.014,-0.038 0.067,-0.085 0.092,-0.115 -0.007,0.1 0.011,0.315 0.032,0.396 0.011,-0.107 0.06,-0.248 0.075,-0.314 0.007,0.019 0.028,0.063 0.042,0.082 0,-0.082 0.033,-0.274 0.043,-0.344 0.018,0.029 0.064,0.078 0.089,0.1 -0.018,-0.085 -0.025,-0.288 -0.021,-0.366 0.014,0.029 0.085,0.085 0.11,0.092 -0.025,-0.063 -0.049,-0.248 -0.046,-0.318 0.01,0.037 0.057,0.103 0.082,0.122 -0.007,-0.1 -0.003,-0.262 -0.007,-0.329 0.014,0.044 0.088,0.155 0.125,0.181 -0.008,-0.074 -0.022,-0.307 -0.018,-0.377 0.022,0.037 0.1,0.088 0.124,0.111 -0.01,-0.081 -0.018,-0.318 -0.018,-0.377 0.014,0.041 0.082,0.122 0.107,0.148 -0.004,-0.104 0.018,-0.285 0.025,-0.362 0.024,0.026 0.078,0.085 0.092,0.115 0.014,-0.155 0.107,-0.318 0.227,-0.466 0.128,0.133 0.239,0.429 0.26,0.455 0.014,-0.033 0.032,-0.104 0.046,-0.119 0.003,0.074 0.035,0.267 0.042,0.318 0.015,-0.037 0.057,-0.115 0.071,-0.126 0,0.089 0.01,0.237 0.021,0.304 0.014,-0.037 0.049,-0.096 0.071,-0.111 -0.018,0.074 -0.01,0.274 0,0.348 0.014,-0.03 0.061,-0.093 0.085,-0.115 -0.022,0.067 0.05,0.304 0.057,0.407 0.007,-0.037 0.058,-0.096 0.078,-0.133 0,0.081 0.028,0.318 0.035,0.436 0.015,-0.048 0.064,-0.119 0.09,-0.148 -0.018,0.107 0.035,0.311 0.074,0.403 0.007,-0.052 0.028,-0.137 0.05,-0.17 0.035,0.071 0.131,0.271 0.135,0.381 0.043,-0.107 0.036,-0.326 -0.014,-0.462 0.032,0.026 0.063,0.044 0.085,0.052 -0.024,-0.096 -0.1,-0.281 -0.139,-0.314 0.036,0.018 0.089,0.044 0.11,0.063 -0.024,-0.111 -0.107,-0.296 -0.152,-0.374 0.042,0.011 0.103,0.022 0.142,0.044 -0.039,-0.081 -0.175,-0.27 -0.235,-0.321 0.036,0.011 0.126,0.04 0.157,0.052 -0.039,-0.067 -0.221,-0.226 -0.331,-0.296 0.058,-0.007 0.156,-0.007 0.203,-0.007 -0.067,-0.085 -0.228,-0.2 -0.327,-0.252 0.032,0.004 0.117,0.022 0.159,0.033 -0.027,-0.081 -0.184,-0.237 -0.259,-0.303 0.065,0.034 0.271,0.137 0.334,0.204 0.015,-0.052 0.004,-0.174 -0.018,-0.226 0.063,0.04 0.217,0.184 0.245,0.24 0.015,-0.052 0.015,-0.141 0.011,-0.174 0.163,0.115 0.267,0.251 0.31,0.326 0.007,-0.052 0.01,-0.174 -0.004,-0.237 0.05,0.044 0.167,0.181 0.193,0.24 0.002,-0.048 0.01,-0.126 -0.004,-0.167 0.035,0.044 0.131,0.237 0.145,0.277 0.012,-0.041 0.037,-0.17 0.025,-0.207 0.039,0.056 0.17,0.251 0.189,0.318 0.014,-0.059 0.039,-0.152 0.035,-0.185 0.043,0.063 0.121,0.288 0.127,0.351 0.018,-0.03 0.053,-0.182 0.047,-0.237 0.035,0.067 0.139,0.337 0.16,0.393 0.014,-0.041 0.035,-0.163 0.031,-0.196 0.025,0.041 0.143,0.333 0.146,0.381 0.017,-0.044 0.027,-0.155 0.023,-0.192 0.016,0.067 0.104,0.245 0.217,0.37 0.101,-0.957 -0.921,-1.564 -1.736,-1.688 z"
     id="path20"
     inkscape:connector-curvature="0"
     style="fill:#029270" />
  <path
     d="m 16.894,15.684 c -0.396,0 -0.576,0.073 -1,0.103 -0.006,-1.64 0.003,-2.212 -0.045,-2.212 -0.047,0 -0.04,0.573 -0.045,2.215 -0.089,0.005 -0.167,0.011 -0.281,0.011 -0.74,0 -0.875,-0.118 -1.373,-0.118 -0.016,0.177 0.188,0.353 0.753,0.426 l -0.023,0.145 c -0.078,-0.003 -0.164,-0.016 -0.208,-0.031 -0.032,0.167 0.363,0.207 0.85,0.207 0.487,0 0.881,-0.04 0.849,-0.207 -0.044,0.016 -0.13,0.028 -0.208,0.031 L 16.14,16.11 c 0.566,-0.073 0.77,-0.25 0.754,-0.426 z m -0.853,0.583 c -0.174,0.024 -0.394,0.024 -0.519,0.024 -0.125,0 -0.345,0 -0.52,-0.024 l 0.019,-0.145 c 0.147,0.014 0.308,0.024 0.5,0.024 0.192,0 0.352,-0.01 0.499,-0.024 l 0.021,0.145 z"
     id="path22"
     inkscape:connector-curvature="0"
     style="fill:#7b4800" />
  <g
     id="g24"
     style="fill:#7b4800"
     transform="translate(0,-5)">
    <path
       d="m 17.661,14.707 c 0.063,1.825 -0.718,6.224 2.046,7.589 0.264,0.119 0.068,0.617 -0.381,0.386 -2.631,-1.491 -1.789,-6.031 -1.836,-7.986 l 0.171,0.011 z"
       id="path26"
       inkscape:connector-curvature="0" />
    <circle
       cx="17.448999"
       cy="14.775"
       r="0.198"
       id="circle28" />
    <circle
       cx="17.681999"
       cy="14.705"
       r="0.198"
       id="circle30" />
    <circle
       cx="17.782"
       cy="14.517"
       r="0.198"
       id="circle32" />
    <circle
       cx="17.436001"
       cy="14.454"
       r="0.198"
       id="circle34" />
  </g>
  <path
     d="m 14.825,13.694 c 0.17,0.621 -0.015,1.441 -0.32,2.012 0.654,-0.066 1.706,-0.133 2.062,0 -0.313,-0.828 -1.031,-1.842 -1.742,-2.012 z"
     id="path36"
     inkscape:connector-curvature="0"
     style="fill:#ffffff" />
  <path
     d="m 14.845,12.567 c -0.048,-0.135 -0.137,-0.218 -0.257,-0.218 -0.18,0 -0.296,0.184 -0.296,0.458 0,0.274 0.119,0.465 0.3,0.462 0.152,-10e-4 0.253,-0.109 0.264,-0.288 l -0.233,0 0,-0.215 0.432,0 0,0.699 -0.138,0 c 0,-0.047 -0.007,-0.111 -0.02,-0.154 -0.066,0.116 -0.175,0.182 -0.308,0.189 -0.277,0.018 -0.511,-0.288 -0.511,-0.695 0,-0.407 0.198,-0.676 0.511,-0.676 0.247,0 0.45,0.185 0.45,0.438 l -0.194,0 z m 1.611,0.709 c 0.165,0 0.208,-0.124 0.208,-0.24 l 0,-0.906 0.23,0 0,0.903 c 0,0.222 -0.101,0.47 -0.439,0.47 -0.337,0 -0.439,-0.248 -0.439,-0.47 l 0,-0.903 0.231,0 0,0.906 c 0.002,0.117 0.046,0.24 0.209,0.24 z m 2.089,-0.283 -0.146,10e-4 0.151,-0.558 0.15,0.558 -0.155,-10e-4 0,0.229 0.22,0 0.074,0.279 0.225,0 -0.381,-1.373 -0.266,0 -0.381,1.373 0.225,0 0.075,-0.279 0.209,0 0,-0.229 z m 1.781,0.508 -0.213,-1.046 0,1.046 -0.222,0 0,-1.373 0.345,0 0.205,1.053 0.205,-1.053 0.346,0 0,1.373 -0.222,0 0,-1.046 -0.213,1.046 z"
     id="path38"
     inkscape:connector-curvature="0"
     style="fill:#dd2e44" />
</svg>
