<?xml version="1.0" encoding="UTF-8" standalone="no"?>
<svg
   xmlns:dc="http://purl.org/dc/elements/1.1/"
   xmlns:cc="http://creativecommons.org/ns#"
   xmlns:rdf="http://www.w3.org/1999/02/22-rdf-syntax-ns#"
   xmlns:svg="http://www.w3.org/2000/svg"
   xmlns="http://www.w3.org/2000/svg"
   xmlns:sodipodi="http://sodipodi.sourceforge.net/DTD/sodipodi-0.dtd"
   xmlns:inkscape="http://www.inkscape.org/namespaces/inkscape"
   viewBox="0 0 36 26"
   id="svg2"
   version="1.1"
   inkscape:version="0.91 r13725"
   sodipodi:docname="1f1f9-1f1f1.svg"
   width="36"
   height="26">
  <metadata
     id="metadata16">
    <rdf:RDF>
      <cc:Work
         rdf:about="">
        <dc:format>image/svg+xml</dc:format>
        <dc:type
           rdf:resource="http://purl.org/dc/dcmitype/StillImage" />
      </cc:Work>
    </rdf:RDF>
  </metadata>
  <defs
     id="defs14" />
  <sodipodi:namedview
     pagecolor="#ffffff"
     bordercolor="#666666"
     borderopacity="1"
     objecttolerance="10"
     gridtolerance="10"
     guidetolerance="10"
     inkscape:pageopacity="0"
     inkscape:pageshadow="2"
     inkscape:window-width="640"
     inkscape:window-height="480"
     id="namedview12"
     showgrid="false"
     inkscape:zoom="6.5555556"
     inkscape:cx="18"
     inkscape:cy="13"
     inkscape:window-x="0"
     inkscape:window-y="0"
     inkscape:window-maximized="0"
     inkscape:current-layer="svg2" />
  <path
     d="M 32,0 4,0 C 1.791,0 0,1.791 0,4 l 0,18 c 0,2.209 1.791,4 4,4 l 28,0 c 2.209,0 4,-1.791 4,-4 L 36,4 C 36,1.791 34.209,0 32,0 Z"
     id="path4"
     inkscape:connector-curvature="0"
     style="fill:#dc241f" />
  <path
     d="M 16,13 1.296,24.947 c 0.079,0.072 0.16,0.141 0.244,0.207 L 23.667,13 1.54,0.846 C 1.456,0.912 1.374,0.981 1.296,1.053 L 16,13 Z"
     id="path6"
     inkscape:connector-curvature="0"
     style="fill:#ffc726" />
  <path
     d="M 1.296,1.053 1.294,1.054 C 0.499,1.785 0,2.834 0,4 l 0,18 c 0,1.166 0.499,2.216 1.296,2.947 L 16,13 1.296,1.053 Z"
     id="path8"
     inkscape:connector-curvature="0"
     style="fill:#141414" />
  <path
     d="m 4.761,14.01 0.492,3.269 1.523,-2.934 3.262,0.542 L 7.718,12.532 9.241,9.598 6.284,11.076 3.964,8.721 4.457,11.99 1.5,13.468 Z"
     id="path10"
     inkscape:connector-curvature="0"
     style="fill:#ffffff" />
</svg>
