<?xml version="1.0" encoding="UTF-8" standalone="no"?>
<svg
   xmlns:dc="http://purl.org/dc/elements/1.1/"
   xmlns:cc="http://creativecommons.org/ns#"
   xmlns:rdf="http://www.w3.org/1999/02/22-rdf-syntax-ns#"
   xmlns:svg="http://www.w3.org/2000/svg"
   xmlns="http://www.w3.org/2000/svg"
   xmlns:sodipodi="http://sodipodi.sourceforge.net/DTD/sodipodi-0.dtd"
   xmlns:inkscape="http://www.inkscape.org/namespaces/inkscape"
   viewBox="0 0 36 26"
   id="svg2"
   version="1.1"
   inkscape:version="0.91 r13725"
   sodipodi:docname="1f1fc-1f1f8.svg"
   width="36"
   height="26">
  <metadata
     id="metadata14">
    <rdf:RDF>
      <cc:Work
         rdf:about="">
        <dc:format>image/svg+xml</dc:format>
        <dc:type
           rdf:resource="http://purl.org/dc/dcmitype/StillImage" />
      </cc:Work>
    </rdf:RDF>
  </metadata>
  <defs
     id="defs12" />
  <sodipodi:namedview
     pagecolor="#ffffff"
     bordercolor="#666666"
     borderopacity="1"
     objecttolerance="10"
     gridtolerance="10"
     guidetolerance="10"
     inkscape:pageopacity="0"
     inkscape:pageshadow="2"
     inkscape:window-width="640"
     inkscape:window-height="480"
     id="namedview10"
     showgrid="false"
     inkscape:zoom="6.5555556"
     inkscape:cx="18"
     inkscape:cy="13"
     inkscape:window-x="0"
     inkscape:window-y="0"
     inkscape:window-maximized="0"
     inkscape:current-layer="svg2" />
  <path
     d="m 32,0 -13,0 0,13 -19,0 0,9 c 0,2.209 1.791,4 4,4 l 28,0 c 2.209,0 4,-1.791 4,-4 L 36,4 C 36,1.791 34.209,0 32,0 Z"
     id="path4"
     inkscape:connector-curvature="0"
     style="fill:#ce1126" />
  <path
     d="M 19,0 4,0 C 1.791,0 0,1.791 0,4 l 0,9 19,0 0,-13 z m -9.924,1.591 0.341,-1.049 0.341,1.049 1.103,0 L 9.968,2.24 10.309,3.289 9.417,2.641 8.524,3.289 8.865,2.24 7.972,1.591 l 1.104,0 z M 6.337,6.539 5.444,5.89 4.551,6.539 4.892,5.49 4,4.841 l 1.103,0 0.341,-1.049 0.341,1.049 1.103,0 -0.892,0.649 0.341,1.049 z m 4.196,5.919 -1.116,-0.811 -1.116,0.811 0.426,-1.312 -1.116,-0.811 1.379,0 0.426,-1.312 0.426,1.312 1.379,0 -1.116,0.811 0.428,1.312 z M 11.961,8.306 11.403,7.9 10.845,8.305 11.058,7.649 10.5,7.244 l 0.69,0 0.213,-0.656 0.213,0.656 0.69,0 -0.558,0.405 0.213,0.657 z m 2.355,-2.48 -0.837,-0.608 -0.837,0.608 0.32,-0.984 -0.837,-0.608 1.034,0 0.32,-0.984 0.32,0.984 1.034,0 -0.837,0.608 0.32,0.984 z"
     id="path6"
     inkscape:connector-curvature="0"
     style="fill:#002b7f" />
  <path
     d="M 8.524,3.289 9.417,2.641 10.309,3.289 9.968,2.24 10.861,1.591 9.758,1.591 9.417,0.542 9.076,1.591 7.972,1.591 8.865,2.24 Z M 5.785,4.841 5.444,3.792 5.103,4.841 4,4.841 4.893,5.49 4.552,6.539 5.444,5.891 6.337,6.539 5.996,5.49 6.889,4.841 Z m 8.014,-0.607 -0.32,-0.984 -0.32,0.984 -1.034,0 0.837,0.608 -0.32,0.984 0.837,-0.608 0.837,0.608 -0.32,-0.984 0.837,-0.608 z M 11.616,7.244 11.403,6.588 11.19,7.244 10.5,7.244 11.058,7.65 10.845,8.306 11.403,7.9 11.961,8.306 11.748,7.65 12.306,7.244 Z M 9.843,10.336 9.417,9.024 8.99,10.336 l -1.379,0 1.116,0.81 -0.426,1.312 1.116,-0.81 1.116,0.81 -0.427,-1.312 1.116,-0.81 z"
     id="path8"
     inkscape:connector-curvature="0"
     style="fill:#ffffff" />
</svg>
