<?xml version="1.0" encoding="UTF-8" standalone="no"?>
<svg
   xmlns:dc="http://purl.org/dc/elements/1.1/"
   xmlns:cc="http://creativecommons.org/ns#"
   xmlns:rdf="http://www.w3.org/1999/02/22-rdf-syntax-ns#"
   xmlns:svg="http://www.w3.org/2000/svg"
   xmlns="http://www.w3.org/2000/svg"
   xmlns:sodipodi="http://sodipodi.sourceforge.net/DTD/sodipodi-0.dtd"
   xmlns:inkscape="http://www.inkscape.org/namespaces/inkscape"
   viewBox="0 0 36 26"
   id="svg2"
   version="1.1"
   inkscape:version="0.91 r13725"
   sodipodi:docname="1f1f2-1f1f8.svg"
   width="36"
   height="26">
  <metadata
     id="metadata34">
    <rdf:RDF>
      <cc:Work
         rdf:about="">
        <dc:format>image/svg+xml</dc:format>
        <dc:type
           rdf:resource="http://purl.org/dc/dcmitype/StillImage" />
      </cc:Work>
    </rdf:RDF>
  </metadata>
  <defs
     id="defs32" />
  <sodipodi:namedview
     pagecolor="#ffffff"
     bordercolor="#666666"
     borderopacity="1"
     objecttolerance="10"
     gridtolerance="10"
     guidetolerance="10"
     inkscape:pageopacity="0"
     inkscape:pageshadow="2"
     inkscape:window-width="640"
     inkscape:window-height="480"
     id="namedview30"
     showgrid="false"
     inkscape:zoom="6.5555556"
     inkscape:cx="18"
     inkscape:cy="13"
     inkscape:window-x="0"
     inkscape:window-y="0"
     inkscape:window-maximized="0"
     inkscape:current-layer="svg2" />
  <path
     d="M 32,0 4,0 C 3.795,0 3.593,0.015 3.396,0.045 L 3.392,1.799 0.662,1.795 C 0.244,2.427 0,3.185 0,4 l 0,18 c 0,2.209 1.791,4 4,4 l 28,0 c 2.209,0 4,-1.791 4,-4 L 36,4 C 36,1.791 34.209,0 32,0 Z"
     id="path4"
     inkscape:connector-curvature="0"
     style="fill:#00247d" />
  <path
     d="m 32.962,7.498 -9.936,0 0,7.52 4.968,2 4.968,-2 z"
     id="path6"
     inkscape:connector-curvature="0"
     style="fill:#55acee" />
  <path
     d="m 23.026,15.018 c 0.006,0.082 0.004,0.17 0.013,0.25 0.142,1.225 0.65,2.131 1.477,2.869 1.431,1.278 3.478,1.559 3.478,1.863 0,-0.305 2.047,-0.585 3.477,-1.863 0.827,-0.738 1.337,-1.645 1.477,-2.869 0.009,-0.08 0.008,-0.168 0.013,-0.25 l -9.935,0 z"
     id="path8"
     inkscape:connector-curvature="0"
     style="fill:#9f1d22" />
  <path
     d="m 28.342,9.753 1.893,0 0,-0.628 -1.893,0 0,-0.843 -0.663,0 0,0.843 -1.927,0 0,0.628 1.927,0 0,7.954 0.663,0 z"
     id="path10"
     inkscape:connector-curvature="0" />
  <path
     d="m 28.342,10.689 c 0.114,-0.099 0.175,-0.158 0.244,-0.148 0.071,0.011 0.166,0.006 0.236,-0.016 0.07,-0.022 0.421,-0.065 0.564,-0.017 0.048,0.006 0.113,0.032 0.213,0.117 0.102,0.084 0.248,0.231 0.198,0.637 -0.05,0.406 -0.033,0.58 -0.054,0.807 -0.037,0.4 -0.128,0.732 -0.287,0.705 0.217,0.378 0.237,0.704 0.378,0.964 0.141,0.259 0.23,0.791 0.174,1.365 -0.055,0.574 -0.206,1.863 0.249,2.73 -0.076,0.054 -0.26,0 -0.423,-0.174 -0.161,-0.174 -0.233,-0.167 -0.368,-0.065 -0.41,0.312 -0.796,0.693 -1.365,0.312 -0.13,-0.086 -0.17,-0.189 -0.076,-0.454 0.239,-0.661 0.354,-1.566 0.316,-1.992 l 0,-4.771 z"
     id="path12"
     inkscape:connector-curvature="0"
     style="fill:#77b253" />
  <path
     d="m 26.022,15.594 c 0.347,0.357 1.43,1.503 1.569,1.633 0.141,0.13 0.207,0.12 0.262,-0.01 0.392,-0.943 0.293,-2.145 -0.678,-3.327 -0.157,0.581 -0.562,0.958 -1.196,1.094 -0.323,0.069 -0.379,0.277 -0.32,0.357 0.088,-0.156 0.282,-0.162 0.375,0.017 0.074,0.147 -0.024,0.331 -0.186,0.38 -0.162,0.048 -0.401,0.043 -0.498,-0.126 -0.098,-0.167 -0.178,-0.558 0.271,-0.751 0.45,-0.196 0.933,-0.396 1.023,-0.798 0.093,-0.4 0.217,-0.595 0.488,-0.622 1.5,1.381 1.69,2.926 1.066,4.306 -0.151,0.335 -0.39,0.423 -0.553,0.218 -0.162,-0.207 -1.297,-1.549 -1.882,-2.21 0.135,-0.009 0.224,-0.084 0.259,-0.161 z"
     id="path14"
     inkscape:connector-curvature="0"
     style="fill:#faaa34" />
  <path
     d="m 28.733,10.282 c 0.03,0.093 0.046,0.212 -0.003,0.319 -0.05,0.109 -0.06,0.239 0.022,0.396 0.131,-0.184 0.314,-0.147 0.422,-0.255 0.109,-0.108 0.131,-0.211 0.213,-0.233 -0.082,-0.07 -0.207,-0.146 -0.18,-0.352 C 29.234,9.951 29.521,9.783 29.261,9.469 29.094,9.266 28.85,9.323 28.744,9.401 28.694,9.438 28.652,9.49 28.635,9.526 28.62,9.561 28.64,9.641 28.6,9.689 c -0.026,0.033 -0.059,0.065 -0.097,0.092 -0.024,0.017 -0.04,0.043 -0.014,0.073 0.01,0.012 0.029,0.015 0.05,0.022 -0.011,0.025 -0.025,0.049 -0.039,0.067 -0.013,0.016 -0.008,0.032 0.009,0.045 -0.021,0.065 0.019,0.073 -0.009,0.121 -0.022,0.042 -0.055,0.092 0.032,0.141 0.025,0.014 0.141,0.04 0.201,0.032 z m -1.054,1.079 c -0.15,0.038 -0.393,-0.027 -0.58,-0.005 -0.08,0.009 -0.145,-0.033 -0.135,-0.113 0.011,-0.082 0.022,-0.207 0.006,-0.321 -0.024,-0.177 0.06,-0.422 0.179,-0.693 0.12,-0.271 0.18,-0.422 0.18,-0.549 0,-0.085 0.007,-0.179 0.083,-0.228 0.057,-0.036 0.067,-0.071 0.088,-0.1 0.045,-0.068 0.089,-0.084 0.093,-0.044 0.005,0.025 -0.004,0.047 -0.025,0.08 0.049,-0.04 0.13,-0.088 0.151,-0.102 0.018,-0.013 0.113,-0.081 0.118,-0.017 0.039,-0.019 0.066,-0.018 0.073,0.002 0.011,0.023 0.004,0.032 -0.014,0.048 0.026,-0.006 0.059,0.042 0.005,0.084 0.027,-0.01 0.056,0.037 0.006,0.081 -0.052,0.045 -0.112,0.076 -0.132,0.112 -0.018,0.035 -0.147,0.133 -0.198,0.155 -0.05,0.022 -0.053,0.051 -0.053,0.127 0,0.834 -0.101,0.767 -0.101,0.967 0,0.054 -0.011,0.103 0.043,0.086 0.056,-0.016 0.134,-0.041 0.214,-0.041 l 0,0.471 z m 0.034,1.798 c 0.245,-0.124 0.524,-0.168 0.671,-0.207 0.146,-0.037 0.38,-0.151 0.493,-0.211 0.113,-0.059 0.205,-0.14 0.27,-0.162 0.065,-0.021 0.139,-0.066 0.179,-0.147 0.212,-0.411 0.325,-0.742 0.325,-1.028 0,-0.19 -0.05,-0.4 -0.233,-0.25 -0.172,0.143 -0.36,0.418 -0.411,0.618 -0.077,0.304 -0.14,0.368 -0.157,0.429 -0.016,0.059 -0.077,0.059 -0.152,0.075 -0.318,0.071 -0.395,0.12 -0.633,0.298 -0.239,0.179 -0.498,0.336 -0.673,0.433 -0.173,0.097 -0.204,0.108 -0.243,0.187 -0.038,0.079 -0.072,0.138 -0.105,0.174 -0.033,0.035 -0.043,0.076 -0.035,0.119 0.006,0.035 -0.01,0.197 -0.014,0.252 -0.002,0.054 0.011,0.068 0.033,0.07 0.021,0.002 0.051,-0.008 0.062,-0.073 -0.012,0.066 0.079,0.043 0.084,-0.005 -0.003,0.07 0.092,0.029 0.098,-0.036 0,0.045 0.071,0.014 0.077,-0.008 0.017,-0.055 0.031,-0.114 0.052,-0.157 0.031,-0.063 0.066,-0.145 0.128,-0.19 0.07,-0.051 0.037,-0.108 0.184,-0.181 z m 1.754,4.437 c 0.018,0.059 0.046,0.127 0.058,0.166 0.012,0.041 -0.009,0.054 -0.02,0.078 -0.057,0.117 -0.117,0.307 -0.126,0.41 -0.007,0.06 -0.047,0.118 -0.066,0.151 -0.021,0.038 -0.014,0.07 0.035,0.107 0.023,0.017 0.098,-0.006 0.105,-0.043 0.028,0.026 0.077,0.015 0.098,-0.026 0.024,0.026 0.065,0.008 0.092,-0.032 0.025,0.017 0.061,-0.015 0.074,-0.038 0.037,0.02 0.078,-0.004 0.079,-0.078 0,-0.014 0.01,-0.041 0.021,-0.057 0.009,-0.018 0.014,-0.053 0.013,-0.083 -10e-4,-0.03 0.018,-0.089 0.044,-0.132 0.025,-0.041 0.07,-0.115 0.05,-0.186 -0.016,-0.066 -0.046,-0.061 -0.069,-0.155 -0.06,-0.063 -0.141,-0.149 -0.225,-0.153 -0.085,-0.005 -0.134,0.05 -0.163,0.071 z m -1.54,0.464 c 0.075,0.076 0.245,0.079 0.366,-0.049 -0.044,-0.019 -0.14,-0.062 -0.183,-0.098 -0.059,0.061 -0.128,0.129 -0.183,0.147 z"
     id="path16"
     inkscape:connector-curvature="0"
     style="fill:#f6ddcd" />
  <path
     d="m 28.693,9.449 c 0.029,-0.193 0.165,-0.188 0.252,-0.168 0.035,0.008 0.121,0.016 0.202,-0.006 0.16,-0.043 0.282,0.014 0.267,0.168 0.043,0.032 0.088,0.108 0.08,0.173 -0.007,0.065 0.006,0.092 0.064,0.101 0.06,0.008 0.188,0.081 0.104,0.184 0.082,0.049 0.144,0.173 0.101,0.257 -0.043,0.083 -0.175,0.097 -0.227,0.021 -0.061,0.027 -0.157,0.032 -0.218,-0.03 -0.041,0.048 -0.145,0.043 -0.164,0 C 29.136,10.105 29.105,10.083 29.066,10.07 29.023,10.056 29.019,9.937 29.085,9.924 29.075,9.889 29.079,9.848 29.096,9.83 29.111,9.81 29.099,9.775 29.06,9.746 29.023,9.716 28.99,9.602 29.027,9.54 28.964,9.562 28.819,9.5 28.789,9.456 28.762,9.414 28.721,9.411 28.693,9.449 Z"
     id="path18"
     inkscape:connector-curvature="0"
     style="fill:#955c0f" />
  <path
     d="m 29.638,10.237 c -0.043,0 -0.081,-0.018 -0.104,-0.048 -0.063,0.027 -0.154,0.028 -0.215,-0.028 -0.022,0.022 -0.057,0.031 -0.088,0.031 l -0.02,-10e-4 C 29.18,10.187 29.156,10.173 29.148,10.153 29.132,10.115 29.106,10.091 29.065,10.079 29.038,10.07 29.027,10.031 29.028,9.999 29.03,9.967 29.044,9.931 29.078,9.92 29.069,9.883 29.075,9.845 29.092,9.826 29.103,9.812 29.095,9.781 29.057,9.753 29.02,9.723 28.989,9.618 29.015,9.552 L 28.997,9.553 C 28.923,9.553 28.811,9.501 28.784,9.462 28.771,9.442 28.756,9.431 28.74,9.431 l -10e-4,0 c -0.015,0 -0.028,0.008 -0.039,0.023 L 28.686,9.449 c 0.012,-0.073 0.039,-0.125 0.082,-0.155 0.045,-0.031 0.103,-0.037 0.18,-0.02 0.034,0.007 0.12,0.015 0.198,-0.006 0.095,-0.025 0.177,-0.016 0.227,0.026 0.038,0.032 0.056,0.083 0.05,0.146 0.045,0.035 0.088,0.112 0.08,0.177 -0.007,0.064 0.006,0.085 0.058,0.092 0.041,0.005 0.11,0.039 0.132,0.092 0.009,0.022 0.012,0.056 -0.019,0.097 0.082,0.053 0.141,0.176 0.097,0.263 -0.022,0.042 -0.068,0.071 -0.121,0.075 l -0.012,10e-4 z m -0.099,-0.067 0.003,0.005 c 0.022,0.031 0.063,0.05 0.105,0.046 0.047,-0.003 0.089,-0.028 0.108,-0.066 0.041,-0.081 -0.02,-0.201 -0.098,-0.248 L 29.649,9.903 29.655,9.896 C 29.68,9.865 29.687,9.835 29.676,9.807 29.657,9.761 29.594,9.729 29.556,9.724 29.488,9.715 29.479,9.677 29.485,9.615 29.493,9.555 29.452,9.481 29.408,9.449 l -0.003,-0.002 0,-0.004 C 29.412,9.383 29.396,9.336 29.361,9.306 29.316,9.268 29.237,9.26 29.148,9.283 29.067,9.305 28.978,9.297 28.942,9.289 28.868,9.272 28.815,9.278 28.775,9.306 28.74,9.33 28.716,9.37 28.704,9.427 28.714,9.42 28.725,9.416 28.736,9.416 l 0.002,0 c 0.021,0 0.041,0.014 0.056,0.038 0.024,0.035 0.134,0.085 0.201,0.085 0.011,0 0.021,-10e-4 0.029,-0.004 l 0.019,-0.006 -0.01,0.018 c -0.035,0.057 -0.005,0.167 0.031,0.196 0.02,0.015 0.033,0.032 0.04,0.049 0.007,0.018 0.006,0.034 -0.003,0.045 -0.015,0.017 -0.019,0.054 -0.01,0.088 l 0.003,0.008 -0.008,10e-4 c -0.031,0.006 -0.044,0.039 -0.045,0.067 -0.002,0.032 0.009,0.06 0.025,0.065 0.046,0.014 0.076,0.042 0.093,0.083 0.007,0.014 0.025,0.025 0.052,0.028 0.031,0.005 0.076,-0.002 0.1,-0.03 l 0.006,-0.006 0.005,0.006 c 0.057,0.057 0.146,0.055 0.21,0.028 l 0.007,-0.005 z m -0.805,0.12 -0.002,-0.015 c 0.051,-0.007 0.085,-0.025 0.115,-0.042 0.03,-0.017 0.059,-0.032 0.097,-0.032 l 0.009,0 0,0.015 c -0.039,-0.002 -0.065,0.012 -0.098,0.03 -0.032,0.018 -0.067,0.037 -0.121,0.044 z m -0.149,2.018 -0.01,-0.011 c 0.171,-0.157 0.108,-0.495 0.062,-0.742 L 28.634,11.54 c -0.037,-0.213 0,-0.397 0.111,-0.547 l 0.012,0.009 c -0.108,0.146 -0.145,0.327 -0.107,0.535 l 0.002,0.015 c 0.047,0.251 0.111,0.594 -0.067,0.756 z m 0.268,0.575 c -0.06,0 -0.119,-0.012 -0.168,-0.037 l 0.006,-0.014 c 0.11,0.055 0.27,0.045 0.362,-0.021 0.096,-0.07 0.272,-0.072 0.406,-0.043 l -0.004,0.015 c -0.123,-0.026 -0.301,-0.026 -0.395,0.041 -0.054,0.039 -0.13,0.059 -0.207,0.059 z"
     id="path20"
     inkscape:connector-curvature="0" />
  <path
     d="M 19,13 19,0 4,0 C 3.68,0 3.396,0.045 3.396,0.045 L 3.392,1.799 0.662,1.795 C 0.662,1.795 0.62,1.854 0.535,2 0.195,2.589 0,3.272 0,4 l 0,9 19,0 z"
     id="path22"
     inkscape:connector-curvature="0"
     style="fill:#00247d" />
  <path
     d="M 19,0 16.669,0 12,3.269 12,0 7,0 7,2.569 3.396,0.045 C 2.782,0.139 2.206,0.37 1.724,0.71 L 6.426,4 4.69,4 0.967,1.391 C 0.857,1.52 0.756,1.653 0.662,1.795 L 3.813,4 0,4 0,9 3.885,9 0,11.766 0,13 3.332,13 7,10.432 7,13 12,13 12,9.731 16.668,13 19,13 19,10.971 16.185,9 19,9 19,4 16.186,4 19,2.029 19,0 Z"
     id="path24"
     inkscape:connector-curvature="0"
     style="fill:#eeeeee" />
  <path
     d="m 11,0 -3,0 0,5 -8,0 0,3 8,0 0,5 3,0 0,-5 8,0 0,-3 -8,0 z"
     id="path26"
     inkscape:connector-curvature="0"
     style="fill:#cf1b2b" />
  <path
     d="M 19,0 17.539,0 12,3.879 12,4 13.571,4 19,0.198 Z M 1.724,0.71 C 1.443,0.905 1.19,1.133 0.967,1.391 L 4.69,4 6.425,4 1.724,0.71 Z M 6.437,9 0.734,13 2.461,13 7,9.822 7,9 Z M 19,12.802 19,11.582 15.313,9 13.57,9 Z"
     id="path28"
     inkscape:connector-curvature="0"
     style="fill:#cf1b2b" />
</svg>
