<?xml version="1.0" encoding="UTF-8" standalone="no"?>
<svg
   xmlns:dc="http://purl.org/dc/elements/1.1/"
   xmlns:cc="http://creativecommons.org/ns#"
   xmlns:rdf="http://www.w3.org/1999/02/22-rdf-syntax-ns#"
   xmlns:svg="http://www.w3.org/2000/svg"
   xmlns="http://www.w3.org/2000/svg"
   xmlns:sodipodi="http://sodipodi.sourceforge.net/DTD/sodipodi-0.dtd"
   xmlns:inkscape="http://www.inkscape.org/namespaces/inkscape"
   viewBox="0 0 36 36"
   id="svg2"
   version="1.1"
   inkscape:version="0.91 r13725"
   sodipodi:docname="1f1f6.svg"
   width="36"
   height="36">
  <metadata
     id="metadata12">
    <rdf:RDF>
      <cc:Work
         rdf:about="">
        <dc:format>image/svg+xml</dc:format>
        <dc:type
           rdf:resource="http://purl.org/dc/dcmitype/StillImage" />
      </cc:Work>
    </rdf:RDF>
  </metadata>
  <defs
     id="defs10" />
  <sodipodi:namedview
     pagecolor="#ffffff"
     bordercolor="#666666"
     borderopacity="1"
     objecttolerance="10"
     gridtolerance="10"
     guidetolerance="10"
     inkscape:pageopacity="0"
     inkscape:pageshadow="2"
     inkscape:window-width="640"
     inkscape:window-height="480"
     id="namedview8"
     showgrid="false"
     inkscape:zoom="6.5555556"
     inkscape:cx="18"
     inkscape:cy="18"
     inkscape:window-x="0"
     inkscape:window-y="0"
     inkscape:window-maximized="0"
     inkscape:current-layer="svg2" />
  <path
     d="m 36,32 c 0,2.209 -1.791,4 -4,4 L 4,36 C 1.791,36 0,34.209 0,32 L 0,4 C 0,1.791 1.791,0 4,0 l 28,0 c 2.209,0 4,1.791 4,4 l 0,28 z"
     id="path4"
     inkscape:connector-curvature="0"
     style="fill:#3b88c3" />
  <path
     d="m 23.459,28.008 c -1.519,0.868 -3.348,1.364 -5.457,1.364 -6.294,0 -10.666,-4.992 -10.666,-11.41 0,-6.449 4.341,-11.41 10.666,-11.41 6.232,0 10.666,5.116 10.666,11.41 0,2.728 -0.713,5.209 -2.078,7.162 l 1.768,1.52 c 0.59,0.527 1.086,1.023 1.086,1.892 0,1.085 -1.086,1.953 -2.139,1.953 -0.684,0 -1.24,-0.279 -2.078,-0.992 l -1.768,-1.489 z m -0.371,-6.077 c 0.526,-1.179 0.744,-2.542 0.744,-3.969 0,-3.689 -1.954,-7.131 -5.83,-7.131 -3.876,0 -5.829,3.379 -5.829,7.131 0,3.782 1.891,7.132 5.829,7.132 0.713,0 1.365,-0.094 1.984,-0.218 L 18.87,23.791 c -0.341,-0.311 -0.589,-0.807 -0.589,-1.24 0,-1.209 0.838,-2.232 2.108,-2.232 0.435,0 0.806,0.155 1.179,0.403 l 1.52,1.209 z"
     id="path6"
     inkscape:connector-curvature="0"
     style="fill:#ffffff" />
</svg>
