<?xml version="1.0" encoding="UTF-8" standalone="no"?>
<svg
   xmlns:dc="http://purl.org/dc/elements/1.1/"
   xmlns:cc="http://creativecommons.org/ns#"
   xmlns:rdf="http://www.w3.org/1999/02/22-rdf-syntax-ns#"
   xmlns:svg="http://www.w3.org/2000/svg"
   xmlns="http://www.w3.org/2000/svg"
   xmlns:sodipodi="http://sodipodi.sourceforge.net/DTD/sodipodi-0.dtd"
   xmlns:inkscape="http://www.inkscape.org/namespaces/inkscape"
   viewBox="0 0 36 26"
   id="svg2"
   version="1.1"
   inkscape:version="0.91 r13725"
   sodipodi:docname="1f1f3-1f1ff.svg"
   width="36"
   height="26">
  <metadata
     id="metadata34">
    <rdf:RDF>
      <cc:Work
         rdf:about="">
        <dc:format>image/svg+xml</dc:format>
        <dc:type
           rdf:resource="http://purl.org/dc/dcmitype/StillImage" />
      </cc:Work>
    </rdf:RDF>
  </metadata>
  <defs
     id="defs32" />
  <sodipodi:namedview
     pagecolor="#ffffff"
     bordercolor="#666666"
     borderopacity="1"
     objecttolerance="10"
     gridtolerance="10"
     guidetolerance="10"
     inkscape:pageopacity="0"
     inkscape:pageshadow="2"
     inkscape:window-width="640"
     inkscape:window-height="480"
     id="namedview30"
     showgrid="false"
     inkscape:zoom="6.5555556"
     inkscape:cx="18"
     inkscape:cy="13"
     inkscape:window-x="0"
     inkscape:window-y="0"
     inkscape:window-maximized="0"
     inkscape:current-layer="svg2" />
  <path
     d="M 32,0 4,0 C 3.795,0 3.593,0.015 3.396,0.045 L 3.392,1.799 0.662,1.795 C 0.244,2.427 0,3.185 0,4 l 0,18 c 0,2.209 1.791,4 4,4 l 28,0 c 2.209,0 4,-1.791 4,-4 L 36,4 C 36,1.791 34.209,0 32,0 Z"
     id="path4"
     inkscape:connector-curvature="0"
     style="fill:#00247d" />
  <path
     d="M 29.194,4.5 27.931,4.5 27.737,3.92 27.5,3.214 27.263,3.92 27.069,4.5 l -1.263,0 0.535,0.443 0.472,0.39 L 26.614,5.92 26.347,6.702 27.003,6.198 27.5,5.815 27.997,6.198 28.653,6.702 28.386,5.92 28.187,5.333 28.659,4.943 Z"
     id="path6"
     inkscape:connector-curvature="0"
     style="fill:#eeeded" />
  <path
     d="M 27.5,4 27.249,4.75 26.5,4.75 27.105,5.251 26.85,6 27.5,5.5 28.15,6 27.895,5.251 28.5,4.75 l -0.749,0 z"
     id="path8"
     inkscape:connector-curvature="0"
     style="fill:#cf1b2b" />
  <path
     d="m 29.194,20.75 -1.263,0 -0.194,-0.58 -0.237,-0.706 -0.237,0.706 -0.194,0.58 -1.263,0 0.535,0.443 0.472,0.39 -0.199,0.587 -0.267,0.782 0.656,-0.504 0.497,-0.383 0.497,0.383 0.656,0.504 -0.267,-0.782 -0.199,-0.587 0.472,-0.39 z"
     id="path10"
     inkscape:connector-curvature="0"
     style="fill:#eeeded" />
  <path
     d="M 27.5,20.25 27.249,21 26.5,21 l 0.605,0.501 -0.255,0.749 0.65,-0.5 0.65,0.5 L 27.895,21.501 28.5,21 27.751,21 Z"
     id="path12"
     inkscape:connector-curvature="0"
     style="fill:#cf1b2b" />
  <path
     d="M 33.194,8.5 31.931,8.5 31.737,7.92 31.5,7.214 31.263,7.92 31.069,8.5 l -1.263,0 0.535,0.443 0.472,0.39 -0.199,0.587 -0.267,0.782 0.656,-0.504 0.497,-0.383 0.497,0.383 0.656,0.504 -0.267,-0.782 -0.199,-0.587 0.472,-0.39 z"
     id="path14"
     inkscape:connector-curvature="0"
     style="fill:#eeeded" />
  <path
     d="M 31.5,8 31.249,8.75 30.5,8.75 31.105,9.251 30.85,10 31.5,9.5 32.15,10 31.895,9.251 32.5,8.75 l -0.749,0 z"
     id="path16"
     inkscape:connector-curvature="0"
     style="fill:#cf1b2b" />
  <path
     d="m 25.194,10.5 -1.263,0 L 23.737,9.92 23.5,9.214 23.263,9.92 l -0.194,0.58 -1.263,0 0.535,0.443 0.472,0.39 -0.199,0.587 -0.267,0.782 0.656,-0.504 0.497,-0.383 0.497,0.383 0.656,0.504 -0.267,-0.782 -0.199,-0.587 0.472,-0.39 z"
     id="path18"
     inkscape:connector-curvature="0"
     style="fill:#eeeded" />
  <path
     d="m 23.5,10 -0.251,0.75 -0.749,0 0.605,0.501 L 22.85,12 23.5,11.5 24.15,12 23.895,11.251 24.5,10.75 l -0.749,0 z"
     id="path20"
     inkscape:connector-curvature="0"
     style="fill:#cf1b2b" />
  <path
     d="M 19,13 19,0 4,0 C 3.68,0 3.396,0.045 3.396,0.045 L 3.392,1.799 0.662,1.795 C 0.662,1.795 0.62,1.854 0.535,2 0.195,2.589 0,3.272 0,4 l 0,9 19,0 z"
     id="path22"
     inkscape:connector-curvature="0"
     style="fill:#00247d" />
  <path
     d="M 19,0 16.669,0 12,3.269 12,0 7,0 7,2.569 3.396,0.045 C 2.782,0.139 2.206,0.37 1.724,0.71 L 6.426,4 4.69,4 0.967,1.391 C 0.857,1.52 0.756,1.653 0.662,1.795 L 3.813,4 0,4 0,9 3.885,9 0,11.766 0,13 3.332,13 7,10.432 7,13 12,13 12,9.731 16.668,13 19,13 19,10.971 16.185,9 19,9 19,4 16.186,4 19,2.029 19,0 Z"
     id="path24"
     inkscape:connector-curvature="0"
     style="fill:#eeeeee" />
  <path
     d="m 11,0 -3,0 0,5 -8,0 0,3 8,0 0,5 3,0 0,-5 8,0 0,-3 -8,0 z"
     id="path26"
     inkscape:connector-curvature="0"
     style="fill:#cf1b2b" />
  <path
     d="M 19,0 17.539,0 12,3.879 12,4 13.571,4 19,0.198 Z M 1.724,0.71 C 1.443,0.905 1.19,1.133 0.967,1.391 L 4.69,4 6.425,4 1.724,0.71 Z M 6.437,9 0.734,13 2.461,13 7,9.822 7,9 Z M 19,12.802 19,11.582 15.313,9 13.57,9 Z"
     id="path28"
     inkscape:connector-curvature="0"
     style="fill:#cf1b2b" />
</svg>
