<?xml version="1.0" encoding="UTF-8" standalone="no"?>
<svg
   xmlns:dc="http://purl.org/dc/elements/1.1/"
   xmlns:cc="http://creativecommons.org/ns#"
   xmlns:rdf="http://www.w3.org/1999/02/22-rdf-syntax-ns#"
   xmlns:svg="http://www.w3.org/2000/svg"
   xmlns="http://www.w3.org/2000/svg"
   xmlns:sodipodi="http://sodipodi.sourceforge.net/DTD/sodipodi-0.dtd"
   xmlns:inkscape="http://www.inkscape.org/namespaces/inkscape"
   viewBox="0 0 36 26"
   id="svg2"
   version="1.1"
   inkscape:version="0.91 r13725"
   sodipodi:docname="1f1f0-1f1ed.svg"
   width="36"
   height="26">
  <metadata
     id="metadata16">
    <rdf:RDF>
      <cc:Work
         rdf:about="">
        <dc:format>image/svg+xml</dc:format>
        <dc:type
           rdf:resource="http://purl.org/dc/dcmitype/StillImage" />
      </cc:Work>
    </rdf:RDF>
  </metadata>
  <defs
     id="defs14" />
  <sodipodi:namedview
     pagecolor="#ffffff"
     bordercolor="#666666"
     borderopacity="1"
     objecttolerance="10"
     gridtolerance="10"
     guidetolerance="10"
     inkscape:pageopacity="0"
     inkscape:pageshadow="2"
     inkscape:window-width="640"
     inkscape:window-height="480"
     id="namedview12"
     showgrid="false"
     inkscape:zoom="6.5555556"
     inkscape:cx="18"
     inkscape:cy="13"
     inkscape:window-x="0"
     inkscape:window-y="0"
     inkscape:window-maximized="0"
     inkscape:current-layer="svg2" />
  <path
     d="m 36,22 c 0,2.209 -1.791,4 -4,4 L 4,26 C 1.791,26 0,24.209 0,22 L 0,4 C 0,1.791 1.791,0 4,0 l 28,0 c 2.209,0 4,1.791 4,4 l 0,18 z"
     id="path4"
     inkscape:connector-curvature="0"
     style="fill:#032ea1" />
  <path
     d="m 0,5.572 36,0 0,14.855 -36,0 z"
     id="path6"
     inkscape:connector-curvature="0"
     style="fill:#e01e24" />
  <path
     d="m 27.021,17.897 0,-0.902 -0.542,0 0,-0.901 -0.496,0 0,-0.586 -0.226,0 0,-0.451 -0.438,0 -0.238,-0.341 0,-1.599 0.271,-0.271 0,-1.488 -0.226,0.203 0,-0.474 -0.181,0 0,0.226 -0.359,0 0,-0.723 -0.429,0.384 0.136,-0.485 -0.249,-1.116 -0.136,0 c 0,0 -0.111,-0.474 -0.337,-0.474 0,0 0.09,-0.292 -0.091,-0.292 -0.181,0 -0.136,0.225 -0.136,0.225 0,0 -0.315,0.136 -0.315,0.473 l -0.18,-0.022 -0.271,1.307 0.191,0.384 -0.44,-0.384 0,0.993 -2.389,0 0,-0.902 -0.136,0.135 0,0.316 -0.315,0 0,-0.316 0.226,-0.203 0,-0.428 -0.182,0.191 -0.271,-0.372 0,-0.316 -0.157,0.157 -0.046,-0.27 0.226,-0.36 -0.034,-0.293 -0.258,0.315 0,-0.27 0.113,-0.248 -0.519,-1.309 -0.124,-0.362 -0.191,-0.022 0,-0.181 c 0,0 -0.136,-0.315 -0.316,-0.315 -0.18,0 -0.315,0.315 -0.315,0.315 l 0,0.181 -0.191,0.022 -0.125,0.362 -0.518,1.309 0.113,0.248 0,0.27 -0.259,-0.315 -0.035,0.293 0.226,0.36 -0.044,0.27 -0.158,-0.157 0,0.316 -0.27,0.372 -0.181,-0.191 0,0.428 0.226,0.203 0,0.316 -0.315,0 0,-0.316 -0.136,-0.135 0,0.902 -2.394,0 0,-0.993 -0.44,0.384 0.191,-0.384 -0.271,-1.307 -0.181,0.022 c 0,-0.337 -0.315,-0.473 -0.315,-0.473 0,0 0.045,-0.225 -0.136,-0.225 -0.18,0 -0.09,0.292 -0.09,0.292 C 12.112,8.899 12,9.373 12,9.373 l -0.135,0 -0.248,1.116 0.135,0.485 -0.428,-0.384 0,0.722 -0.361,0 0,-0.226 -0.181,0 0,0.474 -0.225,-0.203 0,1.488 0.27,0.271 0,1.599 -0.239,0.341 -0.348,0 0,0.451 -0.314,0 0,0.586 -0.452,0 0,0.901 -0.495,0 0,0.902 -0.497,0 -0.045,0.991 19.035,0 0.045,-0.991 -0.496,0 z"
     id="path8"
     inkscape:connector-curvature="0"
     style="fill:#ffffff" />
  <path
     d="m 11.596,12.869 0,1.735 -0.813,0 -0.194,0.378 1.007,0 0,3.907 0.342,0 0,-6.02 z m 13.731,2.113 -0.178,-0.378 -0.736,0 0,-1.735 -0.338,0 0,6.02 0.338,0 0,-3.907 z m -8.222,-2.113 0,1.735 -3.692,0 0,-1.745 -0.33,0 0,6.02 0.33,0 0,-3.897 3.692,0 0,3.907 0.353,0 0,-6.02 z m 5.406,0 0,1.735 -3.599,0 0,-1.735 -0.349,0 0,6.02 0.349,0 0,-3.907 3.599,0 0,3.907 0.427,0 0,-6.02 z"
     id="path10"
     inkscape:connector-curvature="0"
     style="fill:#db7f86" />
</svg>
