<?xml version="1.0" encoding="UTF-8" standalone="no"?>
<svg
   xmlns:dc="http://purl.org/dc/elements/1.1/"
   xmlns:cc="http://creativecommons.org/ns#"
   xmlns:rdf="http://www.w3.org/1999/02/22-rdf-syntax-ns#"
   xmlns:svg="http://www.w3.org/2000/svg"
   xmlns="http://www.w3.org/2000/svg"
   xmlns:sodipodi="http://sodipodi.sourceforge.net/DTD/sodipodi-0.dtd"
   xmlns:inkscape="http://www.inkscape.org/namespaces/inkscape"
   viewBox="0 0 36 26"
   id="svg2"
   version="1.1"
   inkscape:version="0.91 r13725"
   sodipodi:docname="1f1f0-1f1ea.svg"
   width="36"
   height="26">
  <metadata
     id="metadata30">
    <rdf:RDF>
      <cc:Work
         rdf:about="">
        <dc:format>image/svg+xml</dc:format>
        <dc:type
           rdf:resource="http://purl.org/dc/dcmitype/StillImage" />
      </cc:Work>
    </rdf:RDF>
  </metadata>
  <defs
     id="defs28" />
  <sodipodi:namedview
     pagecolor="#ffffff"
     bordercolor="#666666"
     borderopacity="1"
     objecttolerance="10"
     gridtolerance="10"
     guidetolerance="10"
     inkscape:pageopacity="0"
     inkscape:pageshadow="2"
     inkscape:window-width="640"
     inkscape:window-height="480"
     id="namedview26"
     showgrid="false"
     inkscape:zoom="6.5555556"
     inkscape:cx="18"
     inkscape:cy="13"
     inkscape:window-x="0"
     inkscape:window-y="0"
     inkscape:window-maximized="0"
     inkscape:current-layer="svg2" />
  <path
     d="m 36,22 c 0,2.209 -1.791,4 -4,4 L 4,26 C 1.791,26 0,24.209 0,22 L 0,4 C 0,1.791 1.791,0 4,0 l 28,0 c 2.209,0 4,1.791 4,4 l 0,18 z"
     id="path4"
     inkscape:connector-curvature="0"
     style="fill:#006600" />
  <path
     d="M 0,8 36,8 36,18 0,18 Z"
     id="path6"
     inkscape:connector-curvature="0"
     style="fill:#bb1600" />
  <path
     d="M 32,0 4,0 C 1.791,0 0,1.791 0,4 L 0,8 36,8 36,4 C 36,1.791 34.209,0 32,0 Z"
     id="path8"
     inkscape:connector-curvature="0"
     style="fill:#141414" />
  <path
     d="M 0,8 36,8 36,9 0,9 Z m 0,9 36,0 0,1 -36,0 z"
     id="path10"
     inkscape:connector-curvature="0"
     style="fill:#eeeeee" />
  <path
     d="m 23.054,4.404 c -0.066,-0.039 -0.186,0.089 -0.794,0.764 -0.216,0.24 -0.486,0.539 -0.785,0.86 -0.608,0.653 -1.244,1.461 -0.783,1.935 l -7.265,12.211 c -0.011,0.018 -0.019,0.047 0.003,0.087 0.046,0.083 0.199,0.175 0.294,0.177 l 0.003,0 c 0.046,0 0.068,-0.021 0.079,-0.039 L 21.074,8.184 C 21.7,8.332 22.098,7.4 22.379,6.568 c 0.14,-0.417 0.274,-0.796 0.381,-1.1 0.302,-0.856 0.356,-1.027 0.294,-1.064 z"
     id="path12"
     inkscape:connector-curvature="0"
     style="fill:#141414" />
  <path
     d="m 22.305,5.208 c -0.216,0.24 -0.486,0.539 -0.786,0.861 -0.886,0.952 -1.124,1.528 -0.769,1.868 l 0.018,0.016 -7.29,12.252 c -0.004,0.008 10e-4,0.021 0.005,0.027 0.035,0.063 0.169,0.144 0.242,0.145 l 0.002,0 c 0.01,0 0.023,-10e-4 0.028,-0.01 l 7.279,-12.234 0.012,-0.02 0.022,0.006 c 0.458,0.13 0.846,-0.355 1.254,-1.572 0.14,-0.417 0.274,-0.796 0.381,-1.101 0.168,-0.475 0.314,-0.889 0.314,-0.984 -0.082,0.046 -0.375,0.372 -0.712,0.746 z"
     id="path14"
     inkscape:connector-curvature="0"
     style="fill:#ffffff" />
  <path
     d="M 15.308,7.963 C 15.769,7.489 15.134,6.681 14.525,6.028 14.226,5.706 13.956,5.408 13.74,5.168 13.132,4.494 13.012,4.365 12.946,4.404 c -0.062,0.038 -0.008,0.208 0.293,1.063 0.107,0.304 0.241,0.683 0.381,1.1 0.28,0.833 0.678,1.764 1.305,1.616 l 7.268,12.215 c 0.011,0.018 0.033,0.039 0.079,0.039 l 0.003,0 c 0.095,-0.002 0.248,-0.094 0.294,-0.177 0.021,-0.04 0.014,-0.069 0.003,-0.087 L 15.308,7.963 Z"
     id="path16"
     inkscape:connector-curvature="0"
     style="fill:#141414" />
  <path
     d="m 15.25,7.937 c 0.355,-0.34 0.118,-0.916 -0.769,-1.868 -0.3,-0.322 -0.569,-0.621 -0.786,-0.861 -0.337,-0.374 -0.631,-0.7 -0.714,-0.745 0,0.095 0.146,0.509 0.314,0.984 0.107,0.305 0.242,0.684 0.381,1.101 0.409,1.217 0.796,1.702 1.254,1.572 l 0.022,-0.006 0.012,0.02 7.279,12.234 c 0.005,0.009 0.019,0.01 0.028,0.01 l 0.002,0 c 0.073,-0.001 0.207,-0.081 0.242,-0.145 0.004,-0.007 0.009,-0.02 0.005,-0.027 L 15.23,7.954 15.25,7.937 Z"
     id="path18"
     inkscape:connector-curvature="0"
     style="fill:#ffffff" />
  <path
     d="M 18.018,5.458 18,5.444 17.982,5.458 c -2.492,1.87 -3.704,4.331 -3.704,7.523 0,3.192 1.211,5.653 3.704,7.524 L 18,20.518 18.018,20.505 c 2.492,-1.87 3.704,-4.331 3.704,-7.524 0,-3.193 -1.212,-5.655 -3.704,-7.523 z"
     id="path20"
     inkscape:connector-curvature="0"
     style="fill:#141414" />
  <path
     d="m 20.879,9.059 c -0.603,-1.363 -1.551,-2.54 -2.88,-3.54 -1.326,0.999 -2.273,2.174 -2.877,3.533 0.525,1.181 0.782,2.468 0.782,3.937 0,1.467 -0.256,2.751 -0.779,3.928 0.604,1.356 1.55,2.529 2.873,3.527 1.326,-0.999 2.273,-2.174 2.876,-3.534 -0.521,-1.178 -0.776,-2.461 -0.776,-3.921 0.002,-1.462 0.258,-2.747 0.781,-3.93 z"
     id="path22"
     inkscape:connector-curvature="0"
     style="fill:#bb1600" />
  <path
     d="m 18,13.927 c 0.306,0 0.555,-0.424 0.555,-0.946 0,-0.522 -0.249,-0.947 -0.555,-0.947 -0.306,0 -0.554,0.424 -0.554,0.947 -0.001,0.522 0.248,0.946 0.554,0.946 z M 17.769,11.43 c -0.502,-0.739 -0.746,-1.677 -0.746,-2.821 0,-1.145 0.244,-2.083 0.746,-2.823 l 0,5.644 z m 0.462,0 c 0.501,-0.739 0.744,-1.677 0.744,-2.821 0,-1.145 -0.243,-2.083 -0.744,-2.823 l 0,5.644 z m -0.462,3.1 c -0.502,0.738 -0.746,1.677 -0.746,2.821 0,1.146 0.244,2.082 0.746,2.822 l 0,-5.643 z m 0.462,0 c 0.501,0.738 0.744,1.677 0.744,2.821 0,1.146 -0.243,2.082 -0.744,2.822 l 0,-5.643 z"
     id="path24"
     inkscape:connector-curvature="0"
     style="fill:#ffffff" />
</svg>
