<?xml version="1.0" encoding="UTF-8" standalone="no"?>
<svg
   xmlns:dc="http://purl.org/dc/elements/1.1/"
   xmlns:cc="http://creativecommons.org/ns#"
   xmlns:rdf="http://www.w3.org/1999/02/22-rdf-syntax-ns#"
   xmlns:svg="http://www.w3.org/2000/svg"
   xmlns="http://www.w3.org/2000/svg"
   xmlns:sodipodi="http://sodipodi.sourceforge.net/DTD/sodipodi-0.dtd"
   xmlns:inkscape="http://www.inkscape.org/namespaces/inkscape"
   viewBox="0 0 36 26"
   id="svg2"
   version="1.1"
   inkscape:version="0.91 r13725"
   sodipodi:docname="1f1f2-1f1f3.svg"
   width="36"
   height="26">
  <metadata
     id="metadata20">
    <rdf:RDF>
      <cc:Work
         rdf:about="">
        <dc:format>image/svg+xml</dc:format>
        <dc:type
           rdf:resource="http://purl.org/dc/dcmitype/StillImage" />
      </cc:Work>
    </rdf:RDF>
  </metadata>
  <defs
     id="defs18" />
  <sodipodi:namedview
     pagecolor="#ffffff"
     bordercolor="#666666"
     borderopacity="1"
     objecttolerance="10"
     gridtolerance="10"
     guidetolerance="10"
     inkscape:pageopacity="0"
     inkscape:pageshadow="2"
     inkscape:window-width="640"
     inkscape:window-height="480"
     id="namedview16"
     showgrid="false"
     inkscape:zoom="6.5555556"
     inkscape:cx="18"
     inkscape:cy="13"
     inkscape:window-x="0"
     inkscape:window-y="0"
     inkscape:window-maximized="0"
     inkscape:current-layer="svg2" />
  <path
     d="m 36,22 c 0,2.209 -1.791,4 -4,4 L 4,26 C 1.791,26 0,24.209 0,22 L 0,4 C 0,1.791 1.791,0 4,0 l 28,0 c 2.209,0 4,1.791 4,4 l 0,18 z"
     id="path4"
     inkscape:connector-curvature="0"
     style="fill:#c4272f" />
  <path
     d="m 12,0 12,0 0,26 -12,0 z"
     id="path6"
     inkscape:connector-curvature="0"
     style="fill:#005197" />
  <g
     id="g8"
     style="fill:#f9cf01"
     transform="translate(0,-5)">
    <path
       d="m 1.286,16.429 1.571,0 0,12.571 -1.571,0 z m 2.395,2.357 4.639,0 0,0.786 -4.639,0 z m 5.462,-2.357 1.571,0 0,12.571 -1.571,0 z m -5.462,9.427 4.639,0 0,0.786 -4.639,0 z m 0.087,-9.427 4.464,0 L 6,17.989 Z m -0.087,11.198 4.638,0 L 6,29.249 Z m 3.89,-15.913 c 0,0.869 -0.704,1.571 -1.571,1.571 -0.867,0 -1.571,-0.703 -1.571,-1.571 0,-0.869 0.704,-1.571 1.571,-1.571 0.867,0 1.571,0.703 1.571,1.571 z M 6.786,8.768 C 6.786,9.527 6.434,9.75 6,9.75 5.566,9.75 5.214,9.527 5.214,8.768 5.214,8.008 5.754,7 6,7 6.246,7 6.786,8.008 6.786,8.768 Z"
       id="path10"
       inkscape:connector-curvature="0" />
    <path
       d="m 6,14.404 c -1.303,0 -2.438,-0.593 -3.084,-1.477 0.271,1.462 1.546,2.567 3.084,2.567 1.538,0 2.813,-1.105 3.084,-2.566 C 8.438,13.811 7.303,14.404 6,14.404 Z m 2.569,8.31 c 0,-1.095 -0.687,-2.022 -1.649,-2.39 0.299,0.257 0.58,0.447 0.58,1.062 0,0.973 -0.578,1.496 -1.5,1.496 l 0,0.009 c -0.642,0.024 -1.158,0.547 -1.158,1.193 0,0.645 0.516,1.167 1.158,1.191 l 0,0.008 c 0.01,0 0.018,-0.003 0.028,-0.003 0.005,0 0.009,0.003 0.014,0.003 0.015,0 0.027,-0.008 0.042,-0.008 1.379,-0.045 2.485,-1.169 2.485,-2.561 z m -2.94,1.37 c 0,-0.229 0.183,-0.413 0.413,-0.413 0.229,0 0.413,0.184 0.413,0.413 0,0.228 -0.183,0.414 -0.413,0.414 -0.23,0 -0.413,-0.186 -0.413,-0.414 z"
       id="path12"
       inkscape:connector-curvature="0" />
    <path
       d="m 6,20.152 0,-0.006 -0.021,0.002 -0.01,-0.002 c -0.011,0 -0.02,0.006 -0.031,0.006 -1.389,0.034 -2.507,1.162 -2.507,2.562 0,1.096 0.687,2.023 1.649,2.391 -0.299,-0.257 -0.557,-0.448 -0.557,-0.999 0,-0.98 0.524,-1.522 1.43,-1.522 l 0.002,-0.018 c 0.005,0 0.009,0.003 0.014,0.003 0.668,0 1.211,-0.546 1.211,-1.212 0,-0.659 -0.527,-1.188 -1.18,-1.205 z m -0.031,1.62 c -0.231,0 -0.417,-0.188 -0.417,-0.417 0,-0.229 0.185,-0.419 0.417,-0.419 0.232,0 0.417,0.189 0.417,0.419 -0.001,0.229 -0.186,0.417 -0.417,0.417 z"
       id="path14"
       inkscape:connector-curvature="0" />
  </g>
</svg>
