<?xml version="1.0" encoding="UTF-8" standalone="no"?>
<svg
   xmlns:dc="http://purl.org/dc/elements/1.1/"
   xmlns:cc="http://creativecommons.org/ns#"
   xmlns:rdf="http://www.w3.org/1999/02/22-rdf-syntax-ns#"
   xmlns:svg="http://www.w3.org/2000/svg"
   xmlns="http://www.w3.org/2000/svg"
   xmlns:sodipodi="http://sodipodi.sourceforge.net/DTD/sodipodi-0.dtd"
   xmlns:inkscape="http://www.inkscape.org/namespaces/inkscape"
   viewBox="0 0 36 26"
   id="svg2"
   version="1.1"
   inkscape:version="0.91 r13725"
   sodipodi:docname="1f1f2-1f1fe.svg"
   width="36"
   height="26">
  <metadata
     id="metadata18">
    <rdf:RDF>
      <cc:Work
         rdf:about="">
        <dc:format>image/svg+xml</dc:format>
        <dc:type
           rdf:resource="http://purl.org/dc/dcmitype/StillImage" />
      </cc:Work>
    </rdf:RDF>
  </metadata>
  <defs
     id="defs16" />
  <sodipodi:namedview
     pagecolor="#ffffff"
     bordercolor="#666666"
     borderopacity="1"
     objecttolerance="10"
     gridtolerance="10"
     guidetolerance="10"
     inkscape:pageopacity="0"
     inkscape:pageshadow="2"
     inkscape:window-width="640"
     inkscape:window-height="480"
     id="namedview14"
     showgrid="false"
     inkscape:zoom="6.5555556"
     inkscape:cx="18"
     inkscape:cy="13"
     inkscape:window-x="0"
     inkscape:window-y="0"
     inkscape:window-maximized="0"
     inkscape:current-layer="svg2" />
  <path
     d="m 36,22 c 0,2.209 -1.791,4 -4,4 L 4,26 C 1.791,26 0,24.209 0,22 L 0,4 C 0,1.791 1.791,0 4,0 l 28,0 c 2.209,0 4,1.791 4,4 l 0,18 z"
     id="path4"
     inkscape:connector-curvature="0"
     style="fill:#dd2e44" />
  <path
     d="m 0.555,24 34.891,0 C 35.789,23.409 36,22.732 36,22 L 0,22 c 0,0.732 0.211,1.409 0.555,2 z M 0,18 l 36,0 0,2 -36,0 z m 0,-4 36,0 0,2 -36,0 z m 0,-4 36,0 0,2 -36,0 z M 0,6 36,6 36,8 0,8 Z M 0.555,2 C 0.211,2.59 0,3.268 0,4 L 36,4 C 36,3.268 35.789,2.59 35.445,2 L 0.555,2 Z"
     id="path6"
     inkscape:connector-curvature="0"
     style="fill:#eeeeee" />
  <path
     d="M 18,0 4,0 C 1.791,0 0,1.791 0,4 l 0,10 18,0 0,-14 z"
     id="path8"
     inkscape:connector-curvature="0"
     style="fill:#010066" />
  <path
     d="M 9.534,12.233 C 6.644,12.233 4.3,9.89 4.3,7 4.3,4.11 6.643,1.767 9.533,1.767 c 0.715,0 1.397,0.146 2.018,0.405 C 10.556,1.438 9.331,1 8,1 4.687,1 2,3.687 2,7 c 0,3.314 2.687,6 6,6 1.331,0 2.556,-0.438 3.551,-1.172 -0.621,0.26 -1.302,0.405 -2.017,0.405 z"
     id="path10"
     inkscape:connector-curvature="0"
     style="fill:#ffcc4d" />
  <path
     d="M 12.922,3.829 13.256,5.449 14.259,4.134 13.857,5.738 15.332,4.989 14.273,6.26 15.927,6.225 14.422,6.911 15.927,7.597 14.273,7.562 15.332,8.833 13.857,8.084 14.259,9.689 13.256,8.373 12.922,9.994 12.588,8.373 11.585,9.689 11.987,8.084 10.512,8.833 11.57,7.562 9.917,7.597 11.422,6.911 9.917,6.225 11.57,6.26 10.512,4.989 11.987,5.738 11.585,4.134 12.588,5.449 Z"
     id="path12"
     inkscape:connector-curvature="0"
     style="fill:#ffcc4d" />
</svg>
