<?xml version="1.0" encoding="UTF-8" standalone="no"?>
<svg
   xmlns:dc="http://purl.org/dc/elements/1.1/"
   xmlns:cc="http://creativecommons.org/ns#"
   xmlns:rdf="http://www.w3.org/1999/02/22-rdf-syntax-ns#"
   xmlns:svg="http://www.w3.org/2000/svg"
   xmlns="http://www.w3.org/2000/svg"
   xmlns:sodipodi="http://sodipodi.sourceforge.net/DTD/sodipodi-0.dtd"
   xmlns:inkscape="http://www.inkscape.org/namespaces/inkscape"
   viewBox="0 0 36 26"
   id="svg2"
   version="1.1"
   inkscape:version="0.91 r13725"
   sodipodi:docname="1f1f9-1f1ef.svg"
   width="36"
   height="26">
  <metadata
     id="metadata20">
    <rdf:RDF>
      <cc:Work
         rdf:about="">
        <dc:format>image/svg+xml</dc:format>
        <dc:type
           rdf:resource="http://purl.org/dc/dcmitype/StillImage" />
      </cc:Work>
    </rdf:RDF>
  </metadata>
  <defs
     id="defs18" />
  <sodipodi:namedview
     pagecolor="#ffffff"
     bordercolor="#666666"
     borderopacity="1"
     objecttolerance="10"
     gridtolerance="10"
     guidetolerance="10"
     inkscape:pageopacity="0"
     inkscape:pageshadow="2"
     inkscape:window-width="640"
     inkscape:window-height="480"
     id="namedview16"
     showgrid="false"
     inkscape:zoom="6.5555556"
     inkscape:cx="18"
     inkscape:cy="13"
     inkscape:window-x="0"
     inkscape:window-y="0"
     inkscape:window-maximized="0"
     inkscape:current-layer="svg2" />
  <path
     d="M 32,0 4,0 C 1.791,0 0,1.791 0,4 L 0,8.5 36,8.5 36,4 C 36,1.791 34.209,0 32,0 Z"
     id="path4"
     inkscape:connector-curvature="0"
     style="fill:#cc0000" />
  <path
     d="m 0,22 c 0,2.209 1.791,4 4,4 l 28,0 c 2.209,0 4,-1.791 4,-4 l 0,-4.5 -36,0 0,4.5 z"
     id="path6"
     inkscape:connector-curvature="0"
     style="fill:#006600" />
  <path
     d="m 0,8.5 36,0 0,9 -36,0 z"
     id="path8"
     inkscape:connector-curvature="0"
     style="fill:#eeeeee" />
  <g
     id="g10"
     style="fill:#ffac33"
     transform="translate(0,-5)">
    <path
       d="m 16.13,21.455 c -0.408,0.116 -0.646,-0.272 -0.646,-0.272 l 0.323,-0.145 0.156,-0.5 0.323,0.465 0.364,0 c 0.001,-0.001 -0.082,0.327 -0.52,0.452 z m 5.146,0.437 c -0.625,-0.188 -2.082,-0.438 -3.188,-0.438 -1.104,0 -2.562,0.25 -3.188,0.438 -0.626,0.188 -0.479,0.791 0,0.603 0.479,-0.188 1.646,-0.375 3.188,-0.375 1.542,0 2.709,0.188 3.188,0.375 0.48,0.188 0.625,-0.415 0,-0.603 z m -2.937,-1.125 -0.25,-0.417 -0.25,0.417 -0.438,0.188 c 0,0 0.312,0.353 0.688,0.353 0.376,0 0.688,-0.353 0.688,-0.353 l -0.438,-0.188 z m 1.709,0.688 c 0.408,0.116 0.646,-0.272 0.646,-0.272 l -0.323,-0.145 -0.156,-0.5 -0.322,0.465 -0.365,0 c -0.002,-0.001 0.082,0.327 0.52,0.452 z"
       id="path12"
       inkscape:connector-curvature="0" />
    <path
       d="m 22.443,20.2 c -0.104,-0.267 -0.362,0.448 -1.062,0.338 -0.792,-0.125 -0.958,-0.917 -0.958,-0.917 0,0 -0.625,0.626 -1.271,0.334 -0.646,-0.292 -0.812,-0.708 -0.812,-1.167 0,-0.459 -0.059,-0.796 0,-0.979 0.094,-0.292 0.438,-0.501 0.792,-0.167 0.292,-0.416 -0.208,-1.291 -1.042,-1.291 -0.833,0 -1.333,0.875 -1.042,1.291 0.354,-0.333 0.698,-0.125 0.792,0.167 0.059,0.183 0,0.52 0,0.979 0,0.459 -0.167,0.875 -0.812,1.167 -0.645,0.292 -1.271,-0.334 -1.271,-0.334 0,0 -0.167,0.792 -0.958,0.917 -0.7,0.11 -0.958,-0.605 -1.062,-0.338 -0.104,0.267 0.458,1.067 1.25,0.808 0.792,-0.26 0.896,-0.928 0.896,-0.928 0,0 0.407,0.749 1.354,0.458 0.714,-0.22 0.854,-0.896 0.854,-0.896 0,0 0.141,0.676 0.854,0.896 0.948,0.291 1.354,-0.458 1.354,-0.458 0,0 0.104,0.668 0.896,0.928 0.79,0.259 1.353,-0.542 1.248,-0.808 z m -5.042,-3.1 c 0.207,-0.44 0.688,-0.375 0.688,-0.375 0,0 0.48,-0.065 0.688,0.375 -0.354,0.041 -0.688,0.312 -0.688,0.312 0,0 -0.334,-0.27 -0.688,-0.312 z m -4.062,0.994 0.197,0.61 0.641,0 -0.518,0.377 0.198,0.608 -0.518,-0.377 -0.518,0.377 0.197,-0.608 -0.518,-0.377 0.641,0 z m 0.625,-2.229 0.197,0.61 0.641,0 -0.518,0.377 0.198,0.608 -0.518,-0.377 -0.518,0.377 0.197,-0.608 -0.518,-0.377 0.641,0 z m 1.676,-1.792 0.198,0.61 0.641,0 -0.518,0.377 0.197,0.608 -0.518,-0.377 -0.518,0.377 0.198,-0.608 -0.518,-0.377 0.641,0 z m 2.449,-0.604 0.197,0.609 0.641,0 -0.518,0.377 0.198,0.608 -0.518,-0.377 -0.518,0.377 0.197,-0.608 -0.518,-0.377 0.641,0 z m 4.572,4.625 -0.197,0.61 -0.641,0 0.518,0.377 -0.198,0.608 0.518,-0.377 0.518,0.377 -0.198,-0.608 0.519,-0.377 -0.641,0 z m -0.625,-2.229 -0.197,0.61 -0.641,0 0.518,0.377 -0.198,0.608 0.518,-0.377 0.518,0.377 -0.198,-0.608 0.519,-0.377 -0.641,0 z m -1.676,-1.792 -0.198,0.61 -0.641,0 0.519,0.377 -0.198,0.608 0.518,-0.377 0.518,0.377 -0.198,-0.608 0.518,-0.377 -0.641,0 z"
       id="path14"
       inkscape:connector-curvature="0" />
  </g>
</svg>
