<?xml version="1.0" encoding="UTF-8" standalone="no"?>
<svg
   xmlns:dc="http://purl.org/dc/elements/1.1/"
   xmlns:cc="http://creativecommons.org/ns#"
   xmlns:rdf="http://www.w3.org/1999/02/22-rdf-syntax-ns#"
   xmlns:svg="http://www.w3.org/2000/svg"
   xmlns="http://www.w3.org/2000/svg"
   xmlns:sodipodi="http://sodipodi.sourceforge.net/DTD/sodipodi-0.dtd"
   xmlns:inkscape="http://www.inkscape.org/namespaces/inkscape"
   viewBox="0 0 36 26"
   id="svg2"
   version="1.1"
   inkscape:version="0.91 r13725"
   sodipodi:docname="1f1f5-1f1f3.svg"
   width="36"
   height="26">
  <metadata
     id="metadata56">
    <rdf:RDF>
      <cc:Work
         rdf:about="">
        <dc:format>image/svg+xml</dc:format>
        <dc:type
           rdf:resource="http://purl.org/dc/dcmitype/StillImage" />
      </cc:Work>
    </rdf:RDF>
  </metadata>
  <defs
     id="defs54" />
  <sodipodi:namedview
     pagecolor="#ffffff"
     bordercolor="#666666"
     borderopacity="1"
     objecttolerance="10"
     gridtolerance="10"
     guidetolerance="10"
     inkscape:pageopacity="0"
     inkscape:pageshadow="2"
     inkscape:window-width="640"
     inkscape:window-height="480"
     id="namedview52"
     showgrid="false"
     inkscape:zoom="6.5555556"
     inkscape:cx="18"
     inkscape:cy="13"
     inkscape:window-x="0"
     inkscape:window-y="0"
     inkscape:window-maximized="0"
     inkscape:current-layer="svg2" />
  <path
     d="M 32,0 4,0 C 3.795,0 3.593,0.015 3.396,0.045 L 3.392,1.799 0.662,1.795 C 0.244,2.427 0,3.185 0,4 l 0,18 c 0,2.209 1.791,4 4,4 l 28,0 c 2.209,0 4,-1.791 4,-4 L 36,4 C 36,1.791 34.209,0 32,0 Z"
     id="path4"
     inkscape:connector-curvature="0"
     style="fill:#00247d" />
  <path
     d="m 30.464,15.153 c 0,0.49 -0.561,0.888 -1.253,0.888 -0.691,0 -1.252,-0.397 -1.252,-0.888 0,-0.491 0.561,-0.889 1.252,-0.889 0.692,0.001 1.253,0.398 1.253,0.889 z"
     id="path6"
     inkscape:connector-curvature="0"
     style="fill:#dd2e44" />
  <path
     d="m 24.744,13.771 c 0,0.421 1.267,0.916 2.286,-0.326 1.02,-1.242 0.723,0.448 0.305,0.71 -0.418,0.262 -0.865,0.894 -1.767,0.797 -0.901,-0.098 -1.131,-0.454 -1.339,-0.974 -0.208,-0.52 0.515,-0.207 0.515,-0.207 z"
     id="path8"
     inkscape:connector-curvature="0"
     style="fill:#009a67" />
  <path
     d="m 24.926,11.122 c 0.104,0.256 -0.018,0.547 -0.274,0.652 l -0.926,0.378 c -0.256,0.105 -0.548,-0.018 -0.652,-0.273 -0.104,-0.256 0.018,-0.547 0.274,-0.652 l 0.926,-0.379 c 0.255,-0.105 0.547,0.018 0.652,0.274 z m 7.972,2.816 c -0.15,0.232 -0.419,0.324 -0.6,0.207 l -1.31,-0.85 c -0.181,-0.117 -0.206,-0.399 -0.056,-0.631 0.15,-0.232 0.419,-0.325 0.601,-0.208 l 1.31,0.85 c 0.18,0.118 0.206,0.4 0.055,0.632 z"
     id="path10"
     inkscape:connector-curvature="0"
     style="fill:#fff100" />
  <path
     d="m 33.068,13.63 c 0.074,0.266 -0.081,0.542 -0.347,0.616 -0.267,0.074 -0.542,-0.081 -0.616,-0.347 l -0.537,-1.927 c -0.074,-0.266 0.081,-0.542 0.347,-0.616 0.267,-0.074 0.542,0.081 0.616,0.347 l 0.537,1.927 z"
     id="path12"
     inkscape:connector-curvature="0"
     style="fill:#fff100" />
  <path
     d="m 33.479,13.852 c 0,0.277 -0.224,0.5 -0.5,0.5 -0.276,0 -0.5,-0.223 -0.5,-0.5 0,-0.276 0.224,-0.5 0.5,-0.5 0.276,0 0.5,0.224 0.5,0.5 z"
     id="path14"
     inkscape:connector-curvature="0"
     style="fill:#fff100" />
  <path
     d="M 25,13.625 C 25,13.832 24.776,14 24.5,14 24.224,14 24,13.833 24,13.625 l 0,-2.25 C 24,11.167 24.224,11 24.5,11 c 0.276,0 0.5,0.167 0.5,0.375 l 0,2.25 z"
     id="path16"
     inkscape:connector-curvature="0"
     style="fill:#009a67" />
  <path
     d="m 25.719,12.587 c 0.166,0.221 0.167,0.499 0.003,0.622 l -1.185,0.889 c -0.163,0.123 -0.431,0.043 -0.597,-0.178 -0.166,-0.222 -0.167,-0.5 -0.003,-0.623 l 1.185,-0.889 c 0.163,-0.122 0.431,-0.043 0.597,0.179 z"
     id="path18"
     inkscape:connector-curvature="0"
     style="fill:#009a67" />
  <path
     d="m 24.535,13.615 c 0,0.272 -0.239,0.493 -0.535,0.493 -0.296,0 -0.536,-0.221 -0.536,-0.493 0,-0.272 0.24,-0.493 0.536,-0.493 0.296,0 0.535,0.221 0.535,0.493 z m 9.311,-1.614 c -0.109,0.258 -0.657,0.271 -1.225,0.029 -0.566,-0.242 -0.937,-0.646 -0.826,-0.904 0.109,-0.258 0.657,-0.271 1.225,-0.029 0.566,0.241 0.936,0.646 0.826,0.904 z"
     id="path20"
     inkscape:connector-curvature="0"
     style="fill:#009a67" />
  <path
     d="m 27.805,12.255 c -0.58,0.376 -1.357,1.076 -1.357,1.076 l 0.433,0.055 c 0,0 0.529,0.554 0.621,1.079 0.092,0.524 -0.118,0.169 -0.162,0.575 -0.044,0.406 0.184,0.68 0.184,0.68 0,0 0.628,-0.212 1.04,-0.528 0.412,-0.316 0.688,-0.79 0.923,-0.547 C 29.722,14.888 29.694,15 29.694,15 L 30,15 c 0,0 -0.506,-0.494 -0.498,-0.777 0.008,-0.283 -0.443,-1.689 -0.443,-1.689 l -1.254,-0.279 z m -0.681,-1.261 c 0,0 0.475,-0.361 0.425,-0.316 -0.05,0.045 0.537,0.25 0.894,0.104 0.356,-0.146 1.052,-0.849 1.223,-0.745 0.171,0.103 -0.863,0.709 -0.431,0.805 0.432,0.096 0.568,-0.268 0.835,-0.4 0.267,-0.132 0.685,-0.148 0.281,0.119 -0.403,0.267 -0.959,1.422 -0.959,1.422 l -1.63,-0.128 -0.427,-0.313 -0.211,-0.548 z"
     id="path22"
     inkscape:connector-curvature="0"
     style="fill:#d4d5d6" />
  <path
     d="m 29.905,12.203 c 0,0.23 -0.602,0.417 -1.344,0.417 -0.741,0 -1.343,-0.187 -1.343,-0.417 0,-0.23 0.601,-0.417 1.343,-0.417 0.743,-10e-4 1.344,0.186 1.344,0.417 z m -4.439,4.943 c -0.069,0.22 -0.57,0.255 -1.12,0.081 -0.549,-0.174 -0.938,-0.491 -0.869,-0.71 0.07,-0.22 0.571,-0.256 1.121,-0.082 0.548,0.174 0.937,0.493 0.868,0.711 z m 7.605,1.623 c -0.03,0.17 -0.526,0.225 -1.108,0.122 -0.582,-0.101 -1.03,-0.322 -1,-0.491 0.029,-0.169 0.525,-0.224 1.107,-0.121 0.582,0.101 1.031,0.322 1.001,0.49 z"
     id="path24"
     inkscape:connector-curvature="0"
     style="fill:#009a67" />
  <path
     d="m 32.082,18.851 c -0.157,0.757 -0.423,1.34 -0.592,1.305 -0.169,-0.035 -0.179,-0.676 -0.021,-1.432 0.157,-0.756 0.422,-1.34 0.591,-1.305 0.169,0.035 0.179,0.677 0.022,1.432 z m -2.513,-6.514 c 0.274,0.715 1.049,2.129 1.788,2.139 0.739,0.01 0.837,-0.31 0.837,-0.31 0,0 0.027,0.562 -0.645,0.666 -0.672,0.104 -1.054,-0.228 -0.931,-0.113 0.123,0.114 0.395,0.374 1.021,0.538 0.626,0.164 1.696,0.357 1.664,0.956 -0.032,0.599 -0.45,0.831 -0.408,0.567 0.042,-0.264 -0.429,-0.744 -1.256,-0.93 -0.827,-0.186 -1.763,-0.637 -2.172,-1.977 -0.409,-1.341 -0.076,-0.123 -0.076,-0.123 0,0 -0.81,0.247 -0.805,-0.157 0.005,-0.404 0.628,-0.192 0.5,-0.706 -0.128,-0.514 -0.432,-0.865 -0.13,-0.756 0.303,0.11 0.613,0.206 0.613,0.206 z m -2.038,1.83 c -0.406,0.624 -1.585,1.502 -1.965,1.914 -0.38,0.412 -0.655,1.191 -0.736,1.708 -0.081,0.517 0.074,1.313 0.362,0.419 0.288,-0.894 0.798,-1.241 1.313,-1.818 0.516,-0.577 0.866,-0.959 1.055,-1.344 0.189,-0.385 -0.029,-0.879 -0.029,-0.879 z"
     id="path26"
     inkscape:connector-curvature="0"
     style="fill:#009a67" />
  <path
     d="m 29.955,14.589 c 0.127,0.419 0.114,0.793 -0.029,0.836 -0.143,0.043 -0.361,-0.261 -0.487,-0.68 -0.127,-0.419 -0.113,-0.794 0.03,-0.837 0.142,-0.043 0.36,0.262 0.486,0.681 z m -3.539,-0.006 c 0,0.127 -0.308,0.229 -0.688,0.229 -0.38,0 -0.688,-0.103 -0.688,-0.229 0,-0.127 0.308,-0.229 0.688,-0.229 0.38,0 0.688,0.102 0.688,0.229 z m -1.101,4.145 c 0.149,0.772 0.127,1.425 -0.048,1.458 -0.174,0.033 -0.436,-0.564 -0.583,-1.337 -0.149,-0.772 -0.127,-1.426 0.048,-1.459 0.174,-0.034 0.436,0.565 0.583,1.338 z"
     id="path28"
     inkscape:connector-curvature="0"
     style="fill:#fff100" />
  <path
     d="m 25.821,18.585 c 0,0.156 -0.442,0.281 -0.986,0.281 -0.545,0 -0.987,-0.125 -0.987,-0.281 0,-0.155 0.442,-0.281 0.987,-0.281 0.544,0 0.986,0.126 0.986,0.281 z m 0.225,2.193 c 0.188,0.382 0.24,0.744 0.111,0.807 -0.127,0.063 -0.384,-0.196 -0.574,-0.578 -0.188,-0.382 -0.239,-0.745 -0.111,-0.807 0.128,-0.064 0.384,0.196 0.574,0.578 z m 5.431,0.244 c -0.277,0.396 -0.65,0.614 -0.834,0.486 -0.185,-0.129 -0.108,-0.555 0.169,-0.951 0.277,-0.397 0.65,-0.615 0.835,-0.486 0.183,0.128 0.107,0.554 -0.17,0.951 z m 2.279,-4.598 c 0.124,0.203 -0.253,0.66 -0.844,1.021 -0.59,0.361 -1.169,0.488 -1.293,0.285 -0.125,-0.204 0.252,-0.661 0.842,-1.022 0.591,-0.361 1.17,-0.488 1.295,-0.284 z m -10.113,-0.21 c 0.281,-0.662 1.153,-1.016 1.73,-1.168 0.576,-0.152 0.705,-0.325 1.171,-0.692 0.466,-0.367 0.354,-0.615 0.581,-0.449 0.227,0.166 0.417,0.243 0.198,0.553 -0.219,0.31 -0.983,0.966 -1.479,1.157 -0.495,0.191 -1.469,0.601 -1.531,0.712 -0.063,0.111 -0.764,0.108 -0.67,-0.113 z"
     id="path30"
     inkscape:connector-curvature="0"
     style="fill:#fff100" />
  <path
     d="m 25.88,15.192 4.775,0 0,3.632 c 0,1.547 -2.388,3.154 -2.388,3.154 0,0 -2.388,-1.577 -2.388,-3.229 l 10e-4,-3.557 z"
     id="path32"
     inkscape:connector-curvature="0"
     style="fill:#4d8fcc" />
  <path
     d="m 30.354,19.818 -2.059,-4.078 -2.218,3.83 c 0.558,1.316 2.189,2.408 2.189,2.408 0,0 1.454,-0.988 2.088,-2.16 z"
     id="path34"
     inkscape:connector-curvature="0"
     style="fill:#009a67" />
  <path
     d="m 26.072,19.312 0.157,0.386 2.067,-3.741 2.005,3.71 0.163,-0.412 -2.125,-4.063 z m 4.47,-3.736 c 0.333,0.549 0.942,0.386 1.204,1.312 0.262,0.927 0.123,1.931 -0.151,1.137 -0.274,-0.794 -0.354,-1.24 -1.131,-1.445 -0.776,-0.205 0.078,-1.004 0.078,-1.004 z M 25.566,20.373 25.372,21.531 26.416,21 Z m 5.535,0.184 -0.984,0.457 1.079,0.648 z"
     id="path36"
     inkscape:connector-curvature="0"
     style="fill:#fff100" />
  <path
     d="m 29.251,18.813 c 0,0.103 -0.084,0.187 -0.186,0.187 l -1.456,0 c -0.103,0 -0.187,-0.084 -0.187,-0.187 0,-0.103 0.084,-0.186 0.187,-0.186 l 1.456,0 c 0.102,0 0.186,0.084 0.186,0.186 z"
     id="path38"
     inkscape:connector-curvature="0"
     style="fill:#fff100" />
  <path
     d="M 28.428,20.738 C 28.428,20.882 28.39,21 28.344,21 l -0.154,0 c -0.046,0 -0.084,-0.117 -0.084,-0.262 l 0,-2.477 c 0,-0.144 0.038,-0.262 0.084,-0.262 l 0.154,0 c 0.046,0 0.084,0.117 0.084,0.262 l 0,2.477 z"
     id="path40"
     inkscape:connector-curvature="0"
     style="fill:#fff100" />
  <path
     d="m 27.049,19.83 0.584,0.61 -0.102,0.125 0.659,0.435 0.901,-0.434 -0.192,-0.121 0.653,-0.492 -0.094,0.832 -0.239,-0.069 -0.943,0.796 -0.991,-0.841 -0.189,0.02 z"
     id="path42"
     inkscape:connector-curvature="0"
     style="fill:#fff100" />
  <path
     d="M 19,13 19,0 4,0 C 3.68,0 3.396,0.045 3.396,0.045 L 3.392,1.799 0.662,1.795 C 0.662,1.795 0.62,1.854 0.535,2 0.195,2.589 0,3.272 0,4 l 0,9 19,0 z"
     id="path44"
     inkscape:connector-curvature="0"
     style="fill:#00247d" />
  <path
     d="M 19,0 16.669,0 12,3.269 12,0 7,0 7,2.569 3.396,0.045 C 2.782,0.139 2.206,0.37 1.724,0.71 L 6.426,4 4.69,4 0.967,1.391 C 0.857,1.52 0.756,1.653 0.662,1.795 L 3.813,4 0,4 0,9 3.885,9 0,11.766 0,13 3.332,13 7,10.432 7,13 12,13 12,9.731 16.668,13 19,13 19,10.971 16.185,9 19,9 19,4 16.186,4 19,2.029 19,0 Z"
     id="path46"
     inkscape:connector-curvature="0"
     style="fill:#eeeeee" />
  <path
     d="m 11,0 -3,0 0,5 -8,0 0,3 8,0 0,5 3,0 0,-5 8,0 0,-3 -8,0 z"
     id="path48"
     inkscape:connector-curvature="0"
     style="fill:#cf1b2b" />
  <path
     d="M 19,0 17.539,0 12,3.879 12,4 13.571,4 19,0.198 Z M 1.724,0.71 C 1.443,0.905 1.19,1.133 0.967,1.391 L 4.69,4 6.425,4 1.724,0.71 Z M 6.437,9 0.734,13 2.461,13 7,9.822 7,9 Z M 19,12.802 19,11.582 15.313,9 13.57,9 Z"
     id="path50"
     inkscape:connector-curvature="0"
     style="fill:#cf1b2b" />
</svg>
