<?xml version="1.0" encoding="UTF-8" standalone="no"?>
<svg
   xmlns:dc="http://purl.org/dc/elements/1.1/"
   xmlns:cc="http://creativecommons.org/ns#"
   xmlns:rdf="http://www.w3.org/1999/02/22-rdf-syntax-ns#"
   xmlns:svg="http://www.w3.org/2000/svg"
   xmlns="http://www.w3.org/2000/svg"
   xmlns:sodipodi="http://sodipodi.sourceforge.net/DTD/sodipodi-0.dtd"
   xmlns:inkscape="http://www.inkscape.org/namespaces/inkscape"
   viewBox="0 0 36 26"
   id="svg2"
   version="1.1"
   inkscape:version="0.91 r13725"
   sodipodi:docname="1f1f3-1f1e6.svg"
   width="36"
   height="26">
  <metadata
     id="metadata22">
    <rdf:RDF>
      <cc:Work
         rdf:about="">
        <dc:format>image/svg+xml</dc:format>
        <dc:type
           rdf:resource="http://purl.org/dc/dcmitype/StillImage" />
      </cc:Work>
    </rdf:RDF>
  </metadata>
  <defs
     id="defs20" />
  <sodipodi:namedview
     pagecolor="#ffffff"
     bordercolor="#666666"
     borderopacity="1"
     objecttolerance="10"
     gridtolerance="10"
     guidetolerance="10"
     inkscape:pageopacity="0"
     inkscape:pageshadow="2"
     inkscape:window-width="640"
     inkscape:window-height="480"
     id="namedview18"
     showgrid="false"
     inkscape:zoom="6.5555556"
     inkscape:cx="18"
     inkscape:cy="13"
     inkscape:window-x="0"
     inkscape:window-y="0"
     inkscape:window-maximized="0"
     inkscape:current-layer="svg2" />
  <path
     d="M 1.067,24.701 C 1.798,25.495 2.836,26 4,26 l 28,0 c 2.209,0 4,-1.791 4,-4 L 36,4 C 36,2.982 35.607,2.063 34.981,1.357 L 1.067,24.701 Z"
     id="path4"
     inkscape:connector-curvature="0"
     style="fill:#009543" />
  <path
     d="M 34.933,1.299 C 34.202,0.505 33.164,0 32,0 L 4,0 C 1.791,0 0,1.791 0,4 l 0,18 c 0,1.018 0.393,1.937 1.019,2.643 L 34.933,1.299 Z"
     id="path6"
     inkscape:connector-curvature="0"
     style="fill:#003580" />
  <path
     d="M 36,4 C 36,1.791 34.209,0 32,0 L 31.336,0 0,21.942 0,22 c 0,2.209 1.791,4 4,4 L 4.664,26 36,4.059 36,4 Z"
     id="path8"
     inkscape:connector-curvature="0"
     style="fill:#eeeeee" />
  <path
     d="M 32.984,0.136 0.175,23.108 c 0.399,1.377 1.506,2.447 2.912,2.777 L 35.843,2.949 C 35.465,1.567 34.375,0.49 32.984,0.136 Z"
     id="path10"
     inkscape:connector-curvature="0"
     style="fill:#d20f34" />
  <path
     d="M 8,3 8.809,4.981 10.5,3.67 10.21,5.79 12.33,5.5 11.019,7.191 13,8 11.019,8.809 12.33,10.5 10.21,10.21 10.5,12.33 8.809,11.019 8,13 7.191,11.019 5.5,12.33 5.79,10.21 3.67,10.5 4.981,8.809 3,8 4.981,7.191 3.67,5.5 5.79,5.79 5.5,3.67 7.191,4.981 Z"
     id="path12"
     inkscape:connector-curvature="0"
     style="fill:#ffce00" />
  <circle
     cx="8"
     cy="8"
     r="3.175"
     id="circle14"
     style="fill:#003580" />
  <circle
     cx="8"
     cy="8"
     r="2.467"
     id="circle16"
     style="fill:#ffce00" />
</svg>
