<?xml version="1.0" encoding="UTF-8" standalone="no"?>
<svg
   xmlns:dc="http://purl.org/dc/elements/1.1/"
   xmlns:cc="http://creativecommons.org/ns#"
   xmlns:rdf="http://www.w3.org/1999/02/22-rdf-syntax-ns#"
   xmlns:svg="http://www.w3.org/2000/svg"
   xmlns="http://www.w3.org/2000/svg"
   xmlns:sodipodi="http://sodipodi.sourceforge.net/DTD/sodipodi-0.dtd"
   xmlns:inkscape="http://www.inkscape.org/namespaces/inkscape"
   viewBox="0 0 26 26"
   id="svg2"
   version="1.1"
   inkscape:version="0.91 r13725"
   sodipodi:docname="1f1fb-1f1e6.svg"
   width="26"
   height="26">
  <metadata
     id="metadata68">
    <rdf:RDF>
      <cc:Work
         rdf:about="">
        <dc:format>image/svg+xml</dc:format>
        <dc:type
           rdf:resource="http://purl.org/dc/dcmitype/StillImage" />
      </cc:Work>
    </rdf:RDF>
  </metadata>
  <defs
     id="defs66" />
  <sodipodi:namedview
     pagecolor="#ffffff"
     bordercolor="#666666"
     borderopacity="1"
     objecttolerance="10"
     gridtolerance="10"
     guidetolerance="10"
     inkscape:pageopacity="0"
     inkscape:pageshadow="2"
     inkscape:window-width="640"
     inkscape:window-height="480"
     id="namedview64"
     showgrid="false"
     inkscape:zoom="6.5555556"
     inkscape:cx="13"
     inkscape:cy="13"
     inkscape:window-x="0"
     inkscape:window-y="0"
     inkscape:window-maximized="0"
     inkscape:current-layer="svg2" />
  <path
     d="M 14,26 4,26 C 1.791,26 0,24.209 0,22 L 0,4 C 0,1.791 1.791,0 4,0 l 10,0 0,26 z"
     id="path4"
     inkscape:connector-curvature="0"
     style="fill:#fddf00" />
  <path
     d="m 26,22 c 0,2.209 -1.791,4 -4,4 l -9,0 0,-26 9,0 c 2.209,0 4,1.791 4,4 l 0,18 z"
     id="path6"
     inkscape:connector-curvature="0"
     style="fill:#eeeeee" />
  <path
     d="M 23.816,9.234 24.145,8.625 23.473,8.93 Z"
     id="path8"
     inkscape:connector-curvature="0"
     style="fill:#a1a1a1" />
  <path
     d="m 23.846,8.682 c 0,0.137 0.11,0.248 0.247,0.248 0.137,0 0.247,-0.111 0.247,-0.248 0,-0.136 -0.11,-0.247 -0.247,-0.247 -0.137,0 -0.247,0.111 -0.247,0.247 z M 23.27,8.827 c -0.116,0.115 -0.057,0.362 0.131,0.549 0.188,0.189 0.434,0.247 0.549,0.131 C 24.066,9.392 24.008,9.146 23.819,8.958 23.633,8.77 23.386,8.71 23.27,8.827 Z"
     id="path10"
     inkscape:connector-curvature="0"
     style="fill:#a1a1a1" />
  <path
     d="m 17.561,14.562 c 0.379,0.359 0.701,-0.105 1.306,-0.641 0.553,-0.49 4.188,-3.87 4.578,-4.214 0.391,-0.344 0.028,-0.864 -0.425,-0.442 -0.453,0.422 -4.801,4.062 -5.127,4.359 -0.327,0.298 -0.752,0.54 -0.332,0.938 z"
     id="path12"
     inkscape:connector-curvature="0"
     style="fill:#cb9c2b" />
  <path
     d="m 23.348,9.558 0.437,0.488 -0.219,0.188 0.219,0.187 0.219,-0.187 0.312,0.344 0,0.343 -0.609,0.517 -0.359,-0.235 0,-0.282 -0.297,0 0,0.267 0.156,0.015 0.141,0.156 0.015,0.36 -0.54,0.437 -1.108,-1.051 z m -8.688,6.103 c 0,0.822 0.667,1.489 1.489,1.489 0.822,0 1.489,-0.667 1.489,-1.489 0,-0.822 -0.667,-1.489 -1.489,-1.489 -0.822,0 -1.489,0.667 -1.489,1.489 z m 0.954,0.001 c -0.267,-0.004 -0.482,-0.22 -0.482,-0.486 0,-0.27 0.219,-0.488 0.488,-0.488 0.27,0 0.488,0.219 0.488,0.488 l -0.001,0.007 c 0.014,-10e-4 0.026,-0.009 0.041,-0.009 0.001,-0.268 0.22,-0.486 0.488,-0.486 0.27,0 0.488,0.219 0.488,0.488 0,0.267 -0.215,0.482 -0.481,0.486 0.267,0.005 0.481,0.221 0.481,0.487 0,0.269 -0.219,0.488 -0.488,0.488 -0.269,0 -0.487,-0.219 -0.488,-0.487 -0.015,0 -0.027,-0.008 -0.042,-0.009 l 0.002,0.008 c 0,0.269 -0.219,0.488 -0.488,0.488 -0.27,0 -0.488,-0.219 -0.488,-0.488 10e-4,-0.266 0.216,-0.482 0.482,-0.487 z"
     id="path14"
     inkscape:connector-curvature="0"
     style="fill:#cb9c2b" />
  <path
     d="m 17.122,14.247 c -0.116,0.115 -0.057,0.362 0.131,0.549 0.188,0.188 0.434,0.247 0.549,0.131 0.116,-0.115 0.058,-0.361 -0.131,-0.549 -0.187,-0.188 -0.434,-0.247 -0.549,-0.131 z m -2.394,0.188 c 0,0.141 0.114,0.255 0.256,0.255 0.141,0 0.255,-0.114 0.255,-0.255 0,-0.142 -0.114,-0.256 -0.255,-0.256 -0.142,0 -0.256,0.114 -0.256,0.256 z m 2.223,2.461 c 0,0.141 0.114,0.255 0.256,0.255 0.141,0 0.255,-0.114 0.255,-0.255 0,-0.142 -0.114,-0.256 -0.255,-0.256 -0.142,0 -0.256,0.114 -0.256,0.256 z M 14.66,16.813 c 0,0.141 0.114,0.255 0.256,0.255 0.141,0 0.255,-0.114 0.255,-0.255 0,-0.142 -0.114,-0.256 -0.255,-0.256 -0.142,0.001 -0.256,0.115 -0.256,0.256 z"
     id="path16"
     inkscape:connector-curvature="0"
     style="fill:#a1a1a1" />
  <path
     d="m 21.77,12.083 c 0.139,-0.091 0.245,-0.215 0.316,-0.37 C 22.385,11.061 22.014,10.012 21.787,9.607 21.51,9.11 21.68,8.786 21.813,8.631 21.776,8.617 21.731,8.606 21.682,8.606 c -0.109,0 -0.215,0.053 -0.312,0.158 -0.292,0.311 -0.154,0.726 0.253,1.669 0.306,0.707 0.425,1.217 0.147,1.65 z"
     id="path18"
     inkscape:connector-curvature="0"
     style="fill:#b4b4b5" />
  <path
     d="m 21.211,9.043 c 0.143,-0.208 0.363,-0.324 0.633,-0.324 0.219,0 0.445,0.082 0.635,0.226 l 0.28,-0.422 C 22.635,8.42 22.336,8.206 21.998,8.206 c -0.089,0 -0.175,0.015 -0.258,0.044 -0.383,0.137 -0.512,0.49 -0.529,0.793 z"
     id="path20"
     inkscape:connector-curvature="0"
     style="fill:#b4b4b5" />
  <path
     d="M 15.184,9.234 14.855,8.625 15.527,8.93 Z"
     id="path22"
     inkscape:connector-curvature="0"
     style="fill:#cb9c2b" />
  <path
     d="m 15.154,8.682 c 0,0.137 -0.11,0.248 -0.247,0.248 -0.137,0 -0.247,-0.111 -0.247,-0.248 0,-0.136 0.11,-0.247 0.247,-0.247 0.137,0 0.247,0.111 0.247,0.247 z m 0.575,0.145 C 15.845,8.942 15.786,9.189 15.598,9.376 15.41,9.565 15.164,9.623 15.049,9.507 14.933,9.392 14.991,9.146 15.18,8.958 15.367,8.77 15.614,8.71 15.729,8.827 Z"
     id="path24"
     inkscape:connector-curvature="0"
     style="fill:#cb9c2b" />
  <path
     d="M 21.439,14.562 C 21.06,14.921 20.738,14.457 20.133,13.921 19.58,13.431 15.945,10.051 15.555,9.707 15.164,9.363 15.527,8.843 15.98,9.265 c 0.453,0.422 4.801,4.062 5.127,4.359 0.327,0.298 0.752,0.54 0.332,0.938 z"
     id="path26"
     inkscape:connector-curvature="0"
     style="fill:#a1a1a1" />
  <path
     d="m 15.652,9.558 -0.437,0.488 0.219,0.188 -0.219,0.187 -0.219,-0.187 -0.312,0.344 0,0.343 0.609,0.517 0.359,-0.235 0,-0.282 0.297,0 0,0.267 -0.156,0.015 -0.141,0.156 -0.015,0.36 0.54,0.437 1.108,-1.051 z m 7.199,4.614 c -0.822,0 -1.489,0.667 -1.489,1.489 0,0.822 0.667,1.489 1.489,1.489 0.822,0 1.489,-0.667 1.489,-1.489 0,-0.822 -0.667,-1.489 -1.489,-1.489 z m 1.016,1.977 c 0,0.269 -0.219,0.488 -0.488,0.488 -0.27,0 -0.488,-0.219 -0.488,-0.488 l 0.002,-0.008 c -0.015,0.001 -0.027,0.009 -0.042,0.009 -10e-4,0.268 -0.219,0.487 -0.488,0.487 -0.269,0 -0.488,-0.219 -0.488,-0.488 0,-0.267 0.215,-0.482 0.481,-0.487 -0.267,-0.004 -0.481,-0.22 -0.481,-0.486 0,-0.27 0.219,-0.488 0.488,-0.488 0.269,0 0.487,0.218 0.488,0.486 0.015,0 0.027,0.008 0.041,0.009 l -0.001,-0.007 c 0,-0.27 0.219,-0.488 0.488,-0.488 0.27,0 0.488,0.219 0.488,0.488 0,0.267 -0.215,0.482 -0.481,0.486 0.266,0.005 0.481,0.221 0.481,0.487 z"
     id="path28"
     inkscape:connector-curvature="0"
     style="fill:#a1a1a1" />
  <path
     d="m 21.878,14.247 c 0.116,0.115 0.057,0.362 -0.131,0.549 -0.188,0.188 -0.434,0.247 -0.549,0.131 -0.116,-0.115 -0.058,-0.361 0.131,-0.549 0.187,-0.188 0.434,-0.247 0.549,-0.131 z m 2.394,0.188 c 0,0.141 -0.114,0.255 -0.256,0.255 -0.141,0 -0.255,-0.114 -0.255,-0.255 0,-0.142 0.114,-0.256 0.255,-0.256 0.142,0 0.256,0.114 0.256,0.256 z m -2.223,2.461 c 0,0.141 -0.114,0.255 -0.256,0.255 -0.141,0 -0.255,-0.114 -0.255,-0.255 0,-0.142 0.114,-0.256 0.255,-0.256 0.142,0 0.256,0.114 0.256,0.256 z m 2.291,-0.083 c 0,0.141 -0.114,0.255 -0.256,0.255 -0.141,0 -0.255,-0.114 -0.255,-0.255 0,-0.142 0.114,-0.256 0.255,-0.256 0.142,0.001 0.256,0.115 0.256,0.256 z"
     id="path30"
     inkscape:connector-curvature="0"
     style="fill:#cb9c2b" />
  <path
     d="m 20.918,8.719 c 0,1.467 -0.639,1.427 -1.428,1.427 -0.788,0 -1.427,0.04 -1.427,-1.427 0,-1.467 0.639,-3.052 1.427,-3.052 0.789,0 1.428,1.585 1.428,3.052 z"
     id="path32"
     inkscape:connector-curvature="0" />
  <path
     d="m 19.427,10.046 c -0.424,0 -0.72,-0.013 -0.923,-0.17 -0.232,-0.181 -0.341,-0.548 -0.341,-1.157 0,-1.49 0.657,-2.952 1.327,-2.952 0.67,0 1.328,1.462 1.328,2.952 0,1.327 -0.533,1.327 -1.208,1.327 l -0.183,0 z"
     id="path34"
     inkscape:connector-curvature="0"
     style="fill:#ffffff" />
  <path
     d="m 20.236,9.042 c -0.5,-0.146 -0.419,-0.625 -0.746,-0.625 -0.327,0 -0.246,0.479 -0.746,0.625 -0.499,0.146 -0.746,-0.083 -0.746,-0.083 l 0.233,0.958 c 0,0 0.419,-0.354 1.259,-0.354 0.84,0 1.259,0.354 1.259,0.354 l 0.233,-0.958 c 0,-10e-4 -0.247,0.228 -0.746,0.083 z"
     id="path36"
     inkscape:connector-curvature="0"
     style="fill:#cb9c2b" />
  <path
     d="M 20.318,7.774 C 19.763,7.621 19.853,7.116 19.49,7.116 c -0.363,0 -0.274,0.505 -0.828,0.658 -0.554,0.153 -0.827,-0.087 -0.827,-0.087 l 0.258,1.008 c 0,0 0.466,-0.373 1.397,-0.373 0.932,0 1.397,0.373 1.397,0.373 l 0.258,-1.008 c 0,10e-4 -0.273,0.241 -0.827,0.087 z"
     id="path38"
     inkscape:connector-curvature="0"
     style="fill:#cb9c2b" />
  <path
     d="M 20.187,6.445 C 19.72,6.316 19.795,5.891 19.49,5.891 c -0.306,0 -0.23,0.425 -0.697,0.554 -0.466,0.129 -0.696,-0.073 -0.696,-0.073 l 0.218,0.849 c 0,0 0.392,-0.236 1.176,-0.236 0.784,0 1.176,0.236 1.176,0.236 l 0.218,-0.849 c -0.001,0 -0.232,0.202 -0.698,0.073 z M 19.312,5.498 c 0,0.148 0.08,0.269 0.178,0.269 0.098,0 0.178,-0.12 0.178,-0.269 0,-0.149 -0.08,-0.269 -0.178,-0.269 -0.097,0 -0.178,0.12 -0.178,0.269 z"
     id="path40"
     inkscape:connector-curvature="0"
     style="fill:#cb9c2b" />
  <path
     d="m 19.041,5.206 c 0,0.102 0.201,0.185 0.449,0.185 0.248,0 0.449,-0.083 0.449,-0.185 0,-0.103 -0.201,-0.186 -0.449,-0.186 -0.248,0.001 -0.449,0.084 -0.449,0.186 z"
     id="path42"
     inkscape:connector-curvature="0"
     style="fill:#cb9c2b" />
  <path
     d="m 19.312,4.935 c 0,0.103 0.08,0.186 0.178,0.186 0.098,0 0.178,-0.083 0.178,-0.186 0,-0.103 -0.08,-0.185 -0.178,-0.185 -0.097,0 -0.178,0.083 -0.178,0.185 z"
     id="path44"
     inkscape:connector-curvature="0"
     style="fill:#cb9c2b" />
  <path
     d="m 17.211,12.083 c -0.139,-0.091 -0.245,-0.215 -0.316,-0.37 -0.299,-0.652 0.072,-1.701 0.299,-2.106 0.277,-0.497 0.107,-0.821 -0.026,-0.976 0.037,-0.014 0.082,-0.025 0.131,-0.025 0.109,0 0.215,0.053 0.312,0.158 0.292,0.311 0.154,0.726 -0.253,1.669 -0.306,0.707 -0.425,1.217 -0.147,1.65 z"
     id="path46"
     inkscape:connector-curvature="0"
     style="fill:#b4b4b5" />
  <path
     d="M 17.77,9.043 C 17.626,8.835 17.407,8.719 17.137,8.719 c -0.219,0 -0.445,0.082 -0.635,0.226 l -0.28,-0.422 c 0.124,-0.103 0.423,-0.317 0.761,-0.317 0.089,0 0.175,0.015 0.258,0.044 0.382,0.137 0.511,0.49 0.529,0.793 z"
     id="path48"
     inkscape:connector-curvature="0"
     style="fill:#b4b4b5" />
  <path
     d="m 19.49,12 c 0.2,0.154 0.246,0.75 0.246,1.453 l 0,5.484 c 0,0 0.307,0.078 0.213,0.891 -0.027,0.232 -0.484,0.188 -0.562,0 -0.078,-0.188 -0.04,-0.791 0.104,-0.875 l 0,-5.453 c 0,-0.812 -0.136,-1.127 -0.178,-1.281 C 19.27,12.065 19.394,11.925 19.49,12 Z"
     id="path50"
     inkscape:connector-curvature="0"
     style="fill:#ec1c24" />
  <path
     d="m 21.375,15.799 c -0.196,-0.137 -0.471,-0.482 -0.707,-0.812 -0.312,-0.438 -0.391,-0.736 -0.701,-1.111 -0.31,-0.375 -1.122,-1.152 -1.314,-1.125 -0.076,0.011 -0.156,0.188 -0.083,0.25 0.073,0.062 0.302,0.312 0.817,0.703 0.516,0.391 0.594,0.828 1.024,1.453 0.397,0.577 0.74,0.971 1.049,1.024 -0.045,-0.121 -0.072,-0.249 -0.085,-0.382 z"
     id="path52"
     inkscape:connector-curvature="0"
     style="fill:#ec1c24" />
  <path
     d="m 20.36,12.551 c -0.183,0.175 -0.749,0.729 -1.057,1.089 -0.308,0.36 -0.698,1.22 -1.042,1.61 -0.221,0.25 -0.46,0.464 -0.642,0.596 -0.017,0.136 -0.046,0.267 -0.097,0.389 0.248,-0.083 0.602,-0.311 1.046,-0.953 0.614,-0.891 0.911,-1.547 1.208,-1.797 0.297,-0.25 0.416,-0.324 0.583,-0.498 0.168,-0.175 0.185,-0.612 10e-4,-0.436 z"
     id="path54"
     inkscape:connector-curvature="0"
     style="fill:#ec1c24" />
  <path
     d="m 19.124,13.281 0,5.781 c -0.331,0.266 -0.237,0.707 -0.175,0.924 0.062,0.217 0.603,0.216 0.687,0.108 C 19.72,19.986 19.743,19.25 19.434,19 l 0,-5.359 c 0,-0.141 -0.31,-0.575 -0.31,-0.36 z"
     id="path56"
     inkscape:connector-curvature="0"
     style="fill:#ec1c24" />
  <path
     d="m 17.095,15.982 c -0.297,0.207 -0.552,0.564 0.112,0.83 0.664,0.266 1.543,0.625 2.283,0.625 0.74,0 2.123,-0.502 2.447,-0.728 0.324,-0.226 0.464,-0.495 -0.052,-0.647 -0.271,-0.08 -0.312,0.125 -0.171,0.172 0.141,0.047 0.305,0.193 -0.051,0.323 -0.355,0.13 -1.168,0.511 -2.23,0.511 -1.062,0 -2.062,-0.453 -2.226,-0.511 -0.164,-0.058 -0.209,-0.245 -0.093,-0.323 0.116,-0.078 0.114,-0.344 -0.019,-0.252 z"
     id="path58"
     inkscape:connector-curvature="0"
     style="fill:#ec1c24" />
  <path
     d="m 19.856,18.759 c 0,0.117 -0.095,0.211 -0.212,0.211 -0.116,0 -0.211,-0.094 -0.211,-0.211 0,-0.117 0.095,-0.212 0.211,-0.212 0.118,0 0.212,0.095 0.212,0.212 z"
     id="path60"
     inkscape:connector-curvature="0"
     style="fill:#cb9c2b" />
  <path
     d="m 19.5,18.899 c 0,0.117 -0.095,0.211 -0.212,0.211 -0.116,0 -0.211,-0.094 -0.211,-0.211 0,-0.117 0.095,-0.212 0.211,-0.212 0.117,10e-4 0.212,0.095 0.212,0.212 z"
     id="path62"
     inkscape:connector-curvature="0"
     style="fill:#cb9c2b" />
</svg>
