<?xml version="1.0" encoding="UTF-8" standalone="no"?>
<svg
   xmlns:dc="http://purl.org/dc/elements/1.1/"
   xmlns:cc="http://creativecommons.org/ns#"
   xmlns:rdf="http://www.w3.org/1999/02/22-rdf-syntax-ns#"
   xmlns:svg="http://www.w3.org/2000/svg"
   xmlns="http://www.w3.org/2000/svg"
   xmlns:sodipodi="http://sodipodi.sourceforge.net/DTD/sodipodi-0.dtd"
   xmlns:inkscape="http://www.inkscape.org/namespaces/inkscape"
   viewBox="0 0 19.796 26"
   id="svg2"
   version="1.1"
   inkscape:version="0.91 r13725"
   sodipodi:docname="1f1f3-1f1f5.svg"
   width="19.796"
   height="26">
  <metadata
     id="metadata14">
    <rdf:RDF>
      <cc:Work
         rdf:about="">
        <dc:format>image/svg+xml</dc:format>
        <dc:type
           rdf:resource="http://purl.org/dc/dcmitype/StillImage" />
      </cc:Work>
    </rdf:RDF>
  </metadata>
  <defs
     id="defs12" />
  <sodipodi:namedview
     pagecolor="#ffffff"
     bordercolor="#666666"
     borderopacity="1"
     objecttolerance="10"
     gridtolerance="10"
     guidetolerance="10"
     inkscape:pageopacity="0"
     inkscape:pageshadow="2"
     inkscape:window-width="640"
     inkscape:window-height="480"
     id="namedview10"
     showgrid="false"
     inkscape:zoom="6.5555556"
     inkscape:cx="10"
     inkscape:cy="13"
     inkscape:window-x="0"
     inkscape:window-y="0"
     inkscape:window-maximized="0"
     inkscape:current-layer="svg2" />
  <path
     d="M 19.796,14 0,0 0,26 19.796,26 7.918,14 Z"
     id="path4"
     inkscape:connector-curvature="0"
     style="fill:#22408b" />
  <path
     d="M 17,13 1,2.196 1,25 17,25 5.574,13 Z"
     id="path6"
     inkscape:connector-curvature="0"
     style="fill:#dd2f45" />
  <path
     d="m 6.291,19.041 0.586,-0.816 -1,0.098 0.1,-1 -0.817,0.586 -0.414,-0.916 -0.414,0.916 -0.817,-0.586 0.099,1 -1,-0.098 0.586,0.816 -0.916,0.414 0.916,0.414 -0.586,0.816 1,-0.098 -0.099,1 0.817,-0.586 0.414,0.916 0.414,-0.916 0.817,0.586 -0.1,-1 1,0.098 -0.586,-0.816 0.916,-0.414 z m -1.546,-7.147 0.001,0.002 10e-4,-0.002 0.018,0.002 c 1.468,0 2.66,-1.13 2.784,-2.567 -0.348,0.648 -0.912,1.16 -1.595,1.442 L 5.779,10.527 6.39,10.251 5.779,9.975 6.17,9.43 5.502,9.496 5.569,8.828 5.023,9.219 4.747,8.607 4.471,9.219 3.925,8.828 3.992,9.496 3.324,9.43 3.715,9.975 3.104,10.251 3.715,10.527 3.548,10.76 C 2.878,10.476 2.326,9.968 1.982,9.329 c 0.121,1.429 1.303,2.554 2.763,2.565 z"
     id="path8"
     inkscape:connector-curvature="0"
     style="fill:#ffffff" />
</svg>
