<?xml version="1.0" encoding="UTF-8" standalone="no"?>
<svg
   xmlns:dc="http://purl.org/dc/elements/1.1/"
   xmlns:cc="http://creativecommons.org/ns#"
   xmlns:rdf="http://www.w3.org/1999/02/22-rdf-syntax-ns#"
   xmlns:svg="http://www.w3.org/2000/svg"
   xmlns="http://www.w3.org/2000/svg"
   xmlns:sodipodi="http://sodipodi.sourceforge.net/DTD/sodipodi-0.dtd"
   xmlns:inkscape="http://www.inkscape.org/namespaces/inkscape"
   viewBox="0 0 36 26"
   id="svg2"
   version="1.1"
   inkscape:version="0.91 r13725"
   sodipodi:docname="1f1f8-1f1f0.svg"
   width="36"
   height="26">
  <metadata
     id="metadata22">
    <rdf:RDF>
      <cc:Work
         rdf:about="">
        <dc:format>image/svg+xml</dc:format>
        <dc:type
           rdf:resource="http://purl.org/dc/dcmitype/StillImage" />
      </cc:Work>
    </rdf:RDF>
  </metadata>
  <defs
     id="defs20" />
  <sodipodi:namedview
     pagecolor="#ffffff"
     bordercolor="#666666"
     borderopacity="1"
     objecttolerance="10"
     gridtolerance="10"
     guidetolerance="10"
     inkscape:pageopacity="0"
     inkscape:pageshadow="2"
     inkscape:window-width="640"
     inkscape:window-height="480"
     id="namedview18"
     showgrid="false"
     inkscape:zoom="6.5555556"
     inkscape:cx="18"
     inkscape:cy="13"
     inkscape:window-x="0"
     inkscape:window-y="0"
     inkscape:window-maximized="0"
     inkscape:current-layer="svg2" />
  <path
     d="m 36,22 0,-4 -36,0 0,4 c 0,2.209 1.791,4 4,4 l 28,0 c 2.209,0 4,-1.791 4,-4 z"
     id="path4"
     inkscape:connector-curvature="0"
     style="fill:#ee2024" />
  <path
     d="M 36,18 0,18 0,4 C 0,1.791 1.791,0 4,0 l 28,0 c 2.209,0 4,1.791 4,4 l 0,14 z"
     id="path6"
     inkscape:connector-curvature="0"
     style="fill:#eeeeee" />
  <path
     d="M 0,8 36,8 36,18 0,18 Z"
     id="path8"
     inkscape:connector-curvature="0"
     style="fill:#0a4ea2" />
  <path
     d="M 11.837,20.09 C 10.708,19.444 8.199,17.812 7.282,15.602 6.357,13.375 6.563,10.179 6.801,6.478 l 0.06,-0.936 11.963,0 0.061,0.936 c 0.238,3.7 0.444,6.895 -0.481,9.123 -0.918,2.211 -3.426,3.844 -4.556,4.489 l -1.004,0.572 -1.007,-0.572 z"
     id="path10"
     inkscape:connector-curvature="0"
     style="fill:#ffffff" />
  <path
     d="m 17.886,6.542 -10.088,0 c -0.238,3.707 -0.422,6.68 0.407,8.676 1.021,2.46 4.516,4.22 4.631,4.276 l 0,0.006 0.005,-0.003 0.005,0.003 0,-0.006 c 0.115,-0.057 3.61,-1.816 4.632,-4.276 0.83,-1.996 0.647,-4.97 0.408,-8.676 z"
     id="path12"
     inkscape:connector-curvature="0"
     style="fill:#ee2024" />
  <path
     d="m 15.865,11.109 c 0,0 -1.401,0.133 -2.632,0.165 -0.009,-0.269 -0.014,-0.506 -0.014,-0.681 0,-0.188 0.007,-0.394 0.017,-0.605 0.973,0.06 1.645,0.246 1.645,0.246 0.247,0 0.447,-0.2 0.447,-0.447 l 0,-0.606 c 0,-0.247 -0.2,-0.447 -0.447,-0.447 0,0 -0.739,0.126 -1.568,0.179 0.071,-0.782 0.156,-1.435 0.156,-1.435 0,-0.247 -0.2,-0.447 -0.447,-0.447 l -0.605,0 c -0.247,0 -0.447,0.2 -0.447,0.447 0,0 0.092,0.666 0.17,1.443 -0.852,-0.047 -1.583,-0.187 -1.583,-0.187 -0.247,0 -0.447,0.2 -0.447,0.447 l 0,0.606 c 0,0.247 0.2,0.447 0.447,0.447 0,0 0.639,-0.206 1.67,-0.255 0.014,0.23 0.024,0.453 0.024,0.646 0,0.161 -0.006,0.388 -0.016,0.649 -1.242,-0.033 -2.693,-0.164 -2.693,-0.164 -0.247,0 -0.447,0.2 -0.447,0.447 l 0,0.606 c 0,0.247 0.2,0.447 0.447,0.447 0,0 1.319,-0.108 2.635,-0.128 -0.083,1.531 -0.207,3.322 -0.207,3.322 0,0.247 0.2,0.447 0.447,0.447 l 0.605,0 c 0.247,0 0.447,-0.2 0.447,-0.447 0,0 -0.111,-1.773 -0.185,-3.317 1.272,0.03 2.581,0.123 2.581,0.123 0.247,0 0.447,-0.2 0.447,-0.447 l 0,-0.606 c 0,-0.247 -0.2,-0.448 -0.447,-0.448 z"
     id="path14"
     inkscape:connector-curvature="0"
     style="fill:#ffffff" />
  <path
     d="m 17.079,15.965 c -0.508,-1.086 -1.905,-1.393 -2.568,-0.066 -0.438,-1.594 -1.681,-1.594 -1.681,-1.594 0,0 -1.244,0 -1.681,1.594 -0.658,-1.316 -2.04,-1.024 -2.558,0.041 1.314,2.074 4.143,3.504 4.247,3.555 l 0,0.005 0.005,-0.003 0.005,0.003 0,-0.006 c 0.103,-0.051 2.91,-1.469 4.231,-3.529 z"
     id="path16"
     inkscape:connector-curvature="0"
     style="fill:#0a4ea2" />
</svg>
