<?xml version="1.0" encoding="UTF-8" standalone="no"?>
<svg
   xmlns:dc="http://purl.org/dc/elements/1.1/"
   xmlns:cc="http://creativecommons.org/ns#"
   xmlns:rdf="http://www.w3.org/1999/02/22-rdf-syntax-ns#"
   xmlns:svg="http://www.w3.org/2000/svg"
   xmlns="http://www.w3.org/2000/svg"
   xmlns:sodipodi="http://sodipodi.sourceforge.net/DTD/sodipodi-0.dtd"
   xmlns:inkscape="http://www.inkscape.org/namespaces/inkscape"
   viewBox="0 0 36 26"
   id="svg2"
   version="1.1"
   inkscape:version="0.91 r13725"
   sodipodi:docname="1f1f5-1f1f9.svg"
   width="36"
   height="26">
  <metadata
     id="metadata24">
    <rdf:RDF>
      <cc:Work
         rdf:about="">
        <dc:format>image/svg+xml</dc:format>
        <dc:type
           rdf:resource="http://purl.org/dc/dcmitype/StillImage" />
      </cc:Work>
    </rdf:RDF>
  </metadata>
  <defs
     id="defs22" />
  <sodipodi:namedview
     pagecolor="#ffffff"
     bordercolor="#666666"
     borderopacity="1"
     objecttolerance="10"
     gridtolerance="10"
     guidetolerance="10"
     inkscape:pageopacity="0"
     inkscape:pageshadow="2"
     inkscape:window-width="640"
     inkscape:window-height="480"
     id="namedview20"
     showgrid="false"
     inkscape:zoom="6.5555556"
     inkscape:cx="18"
     inkscape:cy="13"
     inkscape:window-x="0"
     inkscape:window-y="0"
     inkscape:window-maximized="0"
     inkscape:current-layer="svg2" />
  <path
     d="m 36,22 c 0,2.209 -1.791,4 -4,4 L 4,26 C 1.791,26 0,24.209 0,22 L 0,4 C 0,1.791 1.791,0 4,0 l 28,0 c 2.209,0 4,1.791 4,4 l 0,18 z"
     id="path4"
     inkscape:connector-curvature="0"
     style="fill:#006600" />
  <path
     d="m 32,0 -17,0 0,26 17,0 c 2.209,0 4,-1.791 4,-4 L 36,4 C 36,1.791 34.209,0 32,0 Z"
     id="path6"
     inkscape:connector-curvature="0"
     style="fill:#d52b1e" />
  <path
     d="m 15,5 c -4.418,0 -8,3.582 -8,8 0,4.418 3.582,8 8,8 4.418,0 8,-3.582 8,-8 0,-4.418 -3.582,-8 -8,-8 z m 3.994,5.938 2.089,-1.393 c 0.491,0.863 0.803,1.839 0.888,2.881 L 18.994,10.938 Z M 16,19 18.592,19 C 17.813,19.467 16.937,19.786 16,19.92 L 16,19 Z M 8.029,12.426 C 8.112,11.404 8.412,10.444 8.887,9.594 l 1.602,1.602 -2.46,1.23 z m 0,1.147 3.747,1.874 0.447,-0.895 L 9.118,13 l 2.116,-1.058 1.412,1.412 0.707,-0.707 -1.176,-1.176 0.046,-0.023 -0.447,-0.895 -0.344,0.172 L 10.457,9.75 11.918,9.994 12.082,9.008 9.568,8.589 C 10.652,7.256 12.218,6.336 14,6.081 L 14,18 l -3.099,0 2.376,-1.584 -0.555,-0.832 -3,2 0.014,0.021 C 8.777,16.508 8.154,15.113 8.029,13.573 Z M 14,19.92 C 13.063,19.785 12.187,19.467 11.408,19 l 2.592,0 0,0.92 z m 6.287,-2.34 -2.933,-2.933 -0.707,0.707 0.471,0.471 -0.395,0.592 L 19.099,18 16,18 16,6.08 c 1.321,0.189 2.524,0.741 3.499,1.561 l -2.657,0.886 0.316,0.948 3,-1 -0.103,-0.308 c 0.167,0.174 0.323,0.357 0.471,0.548 L 17.722,10.584 18,11 17.776,11.447 20.882,13 l -3.105,1.553 0.447,0.895 3.747,-1.874 c -0.124,1.527 -0.737,2.913 -1.684,4.006 z"
     id="path8"
     inkscape:connector-curvature="0"
     style="fill:#ffcc4d" />
  <path
     d="m 11,8 0,7 c 0,2.209 1.791,4 4,4 2.209,0 4,-1.791 4,-4 l 0,-7 -8,0 z"
     id="path10"
     inkscape:connector-curvature="0"
     style="fill:#d52b1e" />
  <path
     d="m 12,9 0,6 c 0,1.656 1.343,3 3,3 1.657,0 3,-1.344 3,-3 l 0,-6 -6,0 z"
     id="path12"
     inkscape:connector-curvature="0"
     style="fill:#ffffff" />
  <path
     d="m 13,12 4,0 0,2 -4,0 z"
     id="path14"
     inkscape:connector-curvature="0"
     style="fill:#829acd" />
  <path
     d="m 14,11 2,0 0,4 -2,0 z"
     id="path16"
     inkscape:connector-curvature="0"
     style="fill:#829acd" />
  <path
     d="m 12,12 1,0 0,2 -1,0 z m 2,0 2,0 0,2 -2,0 z m 3,0 1,0 0,2 -1,0 z m -3,3 2,0 0,2 -2,0 z m 0,-6 2,0 0,2 -2,0 z"
     id="path18"
     inkscape:connector-curvature="0"
     style="fill:#003399" />
</svg>
