<?xml version="1.0" encoding="UTF-8" standalone="no"?>
<svg
   xmlns:dc="http://purl.org/dc/elements/1.1/"
   xmlns:cc="http://creativecommons.org/ns#"
   xmlns:rdf="http://www.w3.org/1999/02/22-rdf-syntax-ns#"
   xmlns:svg="http://www.w3.org/2000/svg"
   xmlns="http://www.w3.org/2000/svg"
   xmlns:sodipodi="http://sodipodi.sourceforge.net/DTD/sodipodi-0.dtd"
   xmlns:inkscape="http://www.inkscape.org/namespaces/inkscape"
   viewBox="0 0 36 26"
   id="svg2"
   version="1.1"
   inkscape:version="0.91 r13725"
   sodipodi:docname="1f1f8-1f1f8.svg"
   width="36"
   height="26">
  <metadata
     id="metadata20">
    <rdf:RDF>
      <cc:Work
         rdf:about="">
        <dc:format>image/svg+xml</dc:format>
        <dc:type
           rdf:resource="http://purl.org/dc/dcmitype/StillImage" />
      </cc:Work>
    </rdf:RDF>
  </metadata>
  <defs
     id="defs18" />
  <sodipodi:namedview
     pagecolor="#ffffff"
     bordercolor="#666666"
     borderopacity="1"
     objecttolerance="10"
     gridtolerance="10"
     guidetolerance="10"
     inkscape:pageopacity="0"
     inkscape:pageshadow="2"
     inkscape:window-width="640"
     inkscape:window-height="480"
     id="namedview16"
     showgrid="false"
     inkscape:zoom="6.5555556"
     inkscape:cx="18"
     inkscape:cy="13"
     inkscape:window-x="0"
     inkscape:window-y="0"
     inkscape:window-maximized="0"
     inkscape:current-layer="svg2" />
  <path
     d="M 32,0 4,0 C 1.791,0 0,1.791 0,4 L 0,7 36,7 36,4 C 36,1.791 34.209,0 32,0 Z"
     id="path4"
     inkscape:connector-curvature="0"
     style="fill:#141414" />
  <path
     d="m 0,22 c 0,2.209 1.791,4 4,4 l 28,0 c 2.209,0 4,-1.791 4,-4 l 0,-3 -36,0 0,3 z"
     id="path6"
     inkscape:connector-curvature="0"
     style="fill:#078930" />
  <path
     d="M 0,7 36,7 36,19 0,19 Z"
     id="path8"
     inkscape:connector-curvature="0"
     style="fill:#da121a" />
  <path
     d="M 0,7 36,7 36,9 0,9 Z m 0,10 36,0 0,2 -36,0 z"
     id="path10"
     inkscape:connector-curvature="0"
     style="fill:#eeeeee" />
  <path
     d="m 1.351,1.004 -10e-4,0 C 0.522,1.737 0,2.808 0,4.267 l 0,18 c 0,0.926 0.522,1.997 1.351,2.729 L 17.5,13 1.351,1.004 Z"
     id="path12"
     inkscape:connector-curvature="0"
     style="fill:#0f47af" />
  <path
     d="m 8.249,12.917 1.777,-2.446 -2.875,0.934 -1.776,-2.445 0,3.023 -2.875,0.934 2.875,0.934 0,3.022 1.776,-2.445 2.875,0.934 z"
     id="path14"
     inkscape:connector-curvature="0"
     style="fill:#fcdd09" />
</svg>
