<?xml version="1.0" encoding="UTF-8" standalone="no"?>
<svg
   xmlns:dc="http://purl.org/dc/elements/1.1/"
   xmlns:cc="http://creativecommons.org/ns#"
   xmlns:rdf="http://www.w3.org/1999/02/22-rdf-syntax-ns#"
   xmlns:svg="http://www.w3.org/2000/svg"
   xmlns="http://www.w3.org/2000/svg"
   xmlns:sodipodi="http://sodipodi.sourceforge.net/DTD/sodipodi-0.dtd"
   xmlns:inkscape="http://www.inkscape.org/namespaces/inkscape"
   viewBox="0 0 36 26"
   id="svg2"
   version="1.1"
   inkscape:version="0.91 r13725"
   sodipodi:docname="1f1fb-1f1fa.svg"
   width="36"
   height="26">
  <metadata
     id="metadata20">
    <rdf:RDF>
      <cc:Work
         rdf:about="">
        <dc:format>image/svg+xml</dc:format>
        <dc:type
           rdf:resource="http://purl.org/dc/dcmitype/StillImage" />
      </cc:Work>
    </rdf:RDF>
  </metadata>
  <defs
     id="defs18" />
  <sodipodi:namedview
     pagecolor="#ffffff"
     bordercolor="#666666"
     borderopacity="1"
     objecttolerance="10"
     gridtolerance="10"
     guidetolerance="10"
     inkscape:pageopacity="0"
     inkscape:pageshadow="2"
     inkscape:window-width="640"
     inkscape:window-height="480"
     id="namedview16"
     showgrid="false"
     inkscape:zoom="6.5555556"
     inkscape:cx="18"
     inkscape:cy="13"
     inkscape:window-x="0"
     inkscape:window-y="0"
     inkscape:window-maximized="0"
     inkscape:current-layer="svg2" />
  <path
     d="M 32,0 4,0 C 1.791,0 0,1.791 0,4 l 0,9 36,0 0,-9 C 36,1.791 34.209,0 32,0 Z"
     id="path4"
     inkscape:connector-curvature="0"
     style="fill:#d21034" />
  <path
     d="m 4,26 28,0 c 2.209,0 4,-1.791 4,-4 l 0,-9 -36,0 0,9 c 0,2.209 1.791,4 4,4 z"
     id="path6"
     inkscape:connector-curvature="0"
     style="fill:#009543" />
  <path
     d="M 17,10 1.732,0.705 C 1.258,1.032 0.858,1.459 0.562,1.955 L 0.56,1.957 C 0.205,2.555 0,3.254 0,4 l 0,18 c 0,0.747 0.205,1.447 0.562,2.045 l 10e-4,0.003 c 0.301,0.504 0.71,0.937 1.195,1.265 l 10e-4,0 L 17,16 l 19,0 0,-6 -19,0 z"
     id="path8"
     inkscape:connector-curvature="0"
     style="fill:#141414" />
  <path
     d="M 0.562,1.955 0.56,1.957 C 0.205,2.555 0,3.254 0,4 l 15,9 -15,9 c 0,0.747 0.205,1.447 0.562,2.045 L 17,14 36,14 36,12 17,12 0.562,1.955 Z"
     id="path10"
     inkscape:connector-curvature="0"
     style="fill:#fdce12" />
  <path
     d="m 4.375,16.606 c 0,0 3.25,-0.5 3.25,-3.71 0,-1.974 -1.708,-3.062 -3.042,-3.062 -1.333,0 -2.75,1 -2.75,2.75 0,1.75 1.625,2.292 2.417,2.292 0.792,0 2,-0.625 1.833,-2 C 5.619,14.789 3.67,14.734 2.916,13.584 2.083,12.313 3.375,10.5 5.042,11 c 1.579,0.474 1.661,2.081 1.125,3.084 -0.667,1.25 -1.771,1.188 -1.771,1.188 l -0.021,1.334 z"
     id="path12"
     inkscape:connector-curvature="0"
     style="fill:#fdce12" />
  <path
     d="M 5.376,13.021 C 5.193,12.779 4.969,12.56 4.74,12.368 5.232,11.863 5.651,11.72 5.521,11.646 5.432,11.595 4.972,11.802 4.48,12.162 3.988,11.802 3.528,11.595 3.439,11.646 c -0.13,0.075 0.289,0.218 0.781,0.722 -0.229,0.192 -0.453,0.41 -0.636,0.653 -0.199,0.263 -0.167,0.708 -0.167,0.708 0,0 0.269,-0.108 0.5,-0.333 0.187,-0.181 0.347,-0.446 0.563,-0.723 0.216,0.277 0.376,0.542 0.563,0.723 0.231,0.225 0.5,0.333 0.5,0.333 0,0 0.032,-0.445 -0.167,-0.708 z"
     id="path14"
     inkscape:connector-curvature="0"
     style="fill:#fdce12" />
</svg>
