<?xml version="1.0" encoding="UTF-8" standalone="no"?>
<svg
   xmlns:dc="http://purl.org/dc/elements/1.1/"
   xmlns:cc="http://creativecommons.org/ns#"
   xmlns:rdf="http://www.w3.org/1999/02/22-rdf-syntax-ns#"
   xmlns:svg="http://www.w3.org/2000/svg"
   xmlns="http://www.w3.org/2000/svg"
   xmlns:sodipodi="http://sodipodi.sourceforge.net/DTD/sodipodi-0.dtd"
   xmlns:inkscape="http://www.inkscape.org/namespaces/inkscape"
   viewBox="0 0 36 26"
   id="svg2"
   version="1.1"
   inkscape:version="0.91 r13725"
   sodipodi:docname="1f1f9-1f1f9.svg"
   width="36"
   height="26">
  <metadata
     id="metadata14">
    <rdf:RDF>
      <cc:Work
         rdf:about="">
        <dc:format>image/svg+xml</dc:format>
        <dc:type
           rdf:resource="http://purl.org/dc/dcmitype/StillImage" />
      </cc:Work>
    </rdf:RDF>
  </metadata>
  <defs
     id="defs12" />
  <sodipodi:namedview
     pagecolor="#ffffff"
     bordercolor="#666666"
     borderopacity="1"
     objecttolerance="10"
     gridtolerance="10"
     guidetolerance="10"
     inkscape:pageopacity="0"
     inkscape:pageshadow="2"
     inkscape:window-width="640"
     inkscape:window-height="480"
     id="namedview10"
     showgrid="false"
     inkscape:zoom="6.5555556"
     inkscape:cx="18"
     inkscape:cy="13"
     inkscape:window-x="0"
     inkscape:window-y="0"
     inkscape:window-maximized="0"
     inkscape:current-layer="svg2" />
  <path
     d="M 1.148,1.196 C 0.438,1.918 0,2.908 0,4 l 0,18 c 0,2.209 1.791,4 4,4 L 24.99,26 1.149,1.195 1.148,1.196 Z M 32,0 11.01,0 34.851,24.805 C 35.562,24.083 36,23.093 36,22 L 36,4 C 36,1.791 34.209,0 32,0 Z"
     id="path4"
     inkscape:connector-curvature="0"
     style="fill:#ce1126" />
  <path
     d="M 2.23,0.412 C 1.826,0.612 1.461,0.877 1.149,1.195 L 24.99,26 26.825,26 2.23,0.412 Z M 11.01,0 9.175,0 33.769,25.588 c 0.404,-0.2 0.77,-0.465 1.082,-0.783 L 11.01,0 Z"
     id="path6"
     inkscape:connector-curvature="0"
     style="fill:#eeeeee" />
  <path
     d="M 4,0 C 3.365,0 2.764,0.148 2.231,0.412 L 26.825,26 32,26 c 0.635,0 1.235,-0.148 1.768,-0.411 L 33.77,25.588 9.175,0 4,0 Z"
     id="path8"
     inkscape:connector-curvature="0"
     style="fill:#141414" />
</svg>
