<?xml version="1.0" encoding="UTF-8" standalone="no"?>
<svg
   xmlns:dc="http://purl.org/dc/elements/1.1/"
   xmlns:cc="http://creativecommons.org/ns#"
   xmlns:rdf="http://www.w3.org/1999/02/22-rdf-syntax-ns#"
   xmlns:svg="http://www.w3.org/2000/svg"
   xmlns="http://www.w3.org/2000/svg"
   xmlns:sodipodi="http://sodipodi.sourceforge.net/DTD/sodipodi-0.dtd"
   xmlns:inkscape="http://www.inkscape.org/namespaces/inkscape"
   viewBox="0 0 36 25.959"
   id="svg2"
   version="1.1"
   inkscape:version="0.91 r13725"
   sodipodi:docname="1f1f8-1f1f2.svg"
   width="36"
   height="25.959">
  <metadata
     id="metadata34">
    <rdf:RDF>
      <cc:Work
         rdf:about="">
        <dc:format>image/svg+xml</dc:format>
        <dc:type
           rdf:resource="http://purl.org/dc/dcmitype/StillImage" />
      </cc:Work>
    </rdf:RDF>
  </metadata>
  <defs
     id="defs32" />
  <sodipodi:namedview
     pagecolor="#ffffff"
     bordercolor="#666666"
     borderopacity="1"
     objecttolerance="10"
     gridtolerance="10"
     guidetolerance="10"
     inkscape:pageopacity="0"
     inkscape:pageshadow="2"
     inkscape:window-width="640"
     inkscape:window-height="480"
     id="namedview30"
     showgrid="false"
     inkscape:zoom="6.5555556"
     inkscape:cx="18"
     inkscape:cy="13"
     inkscape:window-x="0"
     inkscape:window-y="0"
     inkscape:window-maximized="0"
     inkscape:current-layer="svg2" />
  <path
     d="m 0,12.959 0,9 c 0,2.209 1.791,4 4,4 l 28,0 c 2.209,0 4,-1.791 4,-4 l 0,-9 -36,0 z"
     id="path4"
     inkscape:connector-curvature="0"
     style="fill:#5eb6e4" />
  <path
     d="M 32,0 4,0 C 1.791,0 0,1.791 0,4 l 0,8.959 36,0 L 36,4 C 36,1.791 34.209,0 32,0 Z"
     id="path6"
     inkscape:connector-curvature="0"
     style="fill:#eeeeee" />
  <path
     d="m 18,9.219 c -2.433,0 -2.656,-0.984 0,-0.984 2.656,-10e-4 2.433,0.984 0,0.984 z"
     id="path8"
     inkscape:connector-curvature="0"
     style="fill:#f4900c" />
  <path
     d="m 19.875,8.938 c -0.609,0 -1.094,0.375 -1.531,0.609 C 18.219,9.391 18,9.406 18,9.406 c 0,0 -0.219,-0.016 -0.344,0.141 -0.438,-0.234 -0.922,-0.609 -1.531,-0.609 -0.609,0 -2.047,0.594 -2.047,3.609 0,3.969 3.922,5.234 3.922,5.234 0,0 3.922,-1.266 3.922,-5.234 0,-3.016 -1.438,-3.609 -2.047,-3.609 z M 15.188,7.609 c 0.391,0.078 0.904,0.797 0.904,1.117 C 16.453,8.328 18,8.296 18,8.296 c 0,0 1.547,0.031 1.908,0.43 0,-0.32 0.514,-1.039 0.904,-1.117 C 20.734,7.453 20.515,7.5 20.515,7.5 c 0,0 0.484,-0.828 0.297,-1.219 C 20.624,5.89 19.89,5.906 19.296,5.843 18.702,5.781 18.593,5.515 18.593,5.515 l 0.156,-0.188 c 0,0 -0.297,-0.062 -0.234,-0.266 0.062,-0.203 -0.188,-0.188 -0.188,-0.188 0,0 0.188,-0.188 0.109,-0.359 -0.078,-0.172 -0.25,-0.219 -0.25,-0.219 0,0 -0.109,-0.25 0,-0.328 0.109,-0.078 0.359,0.219 0.359,-0.078 0,-0.297 -0.281,-0.047 -0.359,-0.156 C 18.109,3.625 18.328,3.344 18,3.344 c -0.328,0 -0.109,0.281 -0.188,0.391 -0.078,0.109 -0.359,-0.141 -0.359,0.156 0,0.297 0.25,0 0.359,0.078 0.109,0.078 0,0.328 0,0.328 0,0 -0.172,0.047 -0.25,0.219 -0.078,0.172 0.109,0.359 0.109,0.359 0,0 -0.25,-0.016 -0.188,0.188 0.062,0.203 -0.234,0.266 -0.234,0.266 l 0.156,0.188 c 0,0 -0.109,0.266 -0.703,0.328 -0.594,0.062 -1.328,0.047 -1.516,0.438 -0.188,0.391 0.297,1.219 0.297,1.219 0,0 -0.217,-0.049 -0.295,0.107 z m 4.124,-1.421 c 0.531,0.094 1.391,0.281 0.375,0.953 0.016,-0.234 -0.109,-0.422 -0.109,-0.422 0,0 -0.25,0.031 -0.453,0.219 -0.087,-0.31 -0.234,-0.406 -0.234,-0.406 0,0 -0.297,0.093 -0.391,0.327 C 18.463,6.758 18.412,6.673 18.356,6.602 18.444,6.449 18.5,6.241 18.5,6.011 c 0,-0.049 -0.012,-0.092 -0.017,-0.139 0.258,0.158 0.572,0.27 0.829,0.316 z m -2.624,0 c 0.255,-0.045 0.567,-0.156 0.823,-0.312 -0.005,0.046 -0.016,0.087 -0.016,0.135 0,0.232 0.056,0.442 0.146,0.596 -0.054,0.07 -0.104,0.154 -0.14,0.253 C 17.407,6.626 17.11,6.532 17.11,6.532 c 0,0 -0.148,0.097 -0.234,0.406 -0.203,-0.188 -0.453,-0.219 -0.453,-0.219 0,0 -0.125,0.188 -0.109,0.422 -1.017,-0.672 -0.158,-0.86 0.374,-0.953 z"
     id="path10"
     inkscape:connector-curvature="0"
     style="fill:#ffac33" />
  <path
     d="m 20.887,12.938 c 0,-2.328 -0.672,-2.594 -0.672,-2.594 0,0 -0.324,0.391 -0.787,0.234 -0.463,-0.156 -1.119,-0.672 -1.119,-0.672 0,0 -0.115,0.146 -0.326,0.154 -0.211,-0.007 -0.327,-0.154 -0.327,-0.154 0,0 -0.656,0.516 -1.118,0.672 -0.462,0.156 -0.788,-0.234 -0.788,-0.234 0,0 -0.672,0.266 -0.672,2.594 0,2.202 2.608,4.276 2.891,4.494 l 0,0.021 0.014,-0.011 0.014,0.011 0,-0.021 c 0.282,-0.218 2.89,-2.292 2.89,-4.494 z"
     id="path12"
     inkscape:connector-curvature="0"
     style="fill:#a0cfeb" />
  <path
     d="m 17.312,15.156 c 0.156,-0.453 0.25,-0.75 0.25,-1.016 l 0,-1.141 c 0,0 -0.25,-0.125 -0.25,-0.266 l 0,-0.422 0.25,-0.094 0,0.281 0.25,-0.094 0,-0.25 0.188,0 0,0.266 0.219,0.047 0,-0.234 0.281,0.078 0,0.391 c 0,0 -0.219,0.234 -0.219,0.297 l 0,1.141 c 0,0.109 0.328,1.016 0.328,1.016 l -1.297,0 z m 0.649,-3.218 c 0,0 -0.07,-0.297 -0.242,-0.547 -0.172,-0.25 -0.115,-0.718 0.264,-0.719 0.705,-0.001 0.236,0.633 0.236,0.633 0,0 -0.156,-0.32 -0.219,-0.227 -0.062,0.094 0.164,0.453 0.062,0.656 -0.102,0.203 -0.101,0.204 -0.101,0.204 z m -1.578,0.281 c 0,0 -0.07,-0.297 -0.242,-0.547 -0.172,-0.25 -0.115,-0.718 0.264,-0.719 0.705,-10e-4 0.236,0.633 0.236,0.633 0,0 -0.156,-0.32 -0.219,-0.226 -0.062,0.094 0.164,0.453 0.062,0.656 l -0.101,0.203 z m 3.131,0 c 0,0 -0.07,-0.297 -0.242,-0.547 -0.172,-0.25 -0.115,-0.718 0.264,-0.719 0.705,-10e-4 0.236,0.633 0.236,0.633 0,0 -0.156,-0.32 -0.219,-0.226 -0.062,0.094 0.164,0.453 0.062,0.656 l -0.101,0.203 z m -3.662,2.865 c 0.084,-0.268 0.132,-0.473 0.132,-0.662 l 0,-1.141 c 0,0 -0.25,-0.125 -0.25,-0.266 l 0,-0.422 0.25,-0.094 0,0.281 0.25,-0.094 0,-0.25 0.188,0 0,0.266 0.219,0.047 0,-0.234 0.281,0.078 0,0.391 c 0,0 -0.219,0.234 -0.219,0.297 l 0,1.141 c 0,0.11 0.328,1.016 0.328,1.016 0,0 -1.213,-0.247 -1.179,-0.354 z m 3.013,0.354 c 0.156,-0.453 0.25,-0.75 0.25,-1.016 l 0,-1.141 c 0,0 -0.25,-0.125 -0.25,-0.266 l 0,-0.422 0.25,-0.094 0,0.281 0.25,-0.094 0,-0.25 0.188,0 0,0.266 0.219,0.047 0,-0.234 0.281,0.078 0,0.391 c 0,0 -0.219,0.234 -0.219,0.297 l 0,1.141 c 0,0.068 0.131,0.457 0.228,0.733 0.055,0.16 -1.197,0.283 -1.197,0.283 z"
     id="path14"
     inkscape:connector-curvature="0"
     style="fill:#ccd6dd" />
  <path
     d="m 16.383,12.438 -0.148,0 0,0.25 -0.25,0.094 0,-0.281 -0.25,0.094 0,0.422 c 0,0.141 0.25,0.266 0.25,0.266 l 0,1.141 c 0,0.189 -0.048,0.395 -0.132,0.662 -0.016,0.051 0.248,0.133 0.531,0.205 l 0,-2.853 z m 1.568,-0.282 -0.149,0 0,0.25 -0.25,0.094 0,-0.281 -0.25,0.094 0,0.422 c 0,0.141 0.25,0.266 0.25,0.266 l 0,1.141 c 0,0.189 -0.048,0.395 -0.132,0.662 -0.016,0.051 0.249,0.133 0.531,0.205 l 0,-2.853 z m 1.601,0.328 -0.196,-0.047 0,0.25 -0.25,0.094 0,-0.281 -0.25,0.094 0,0.422 c 0,0.141 0.25,0.266 0.25,0.266 l 0,1.141 c 0,0.189 -0.049,0.395 -0.133,0.662 -0.016,0.051 0.248,0.133 0.579,0.252 l 0,-2.853 z"
     id="path16"
     inkscape:connector-curvature="0"
     style="fill:#99aab5" />
  <path
     d="m 18.984,14.992 c 0,0 -0.328,-0.422 -0.984,-0.422 -0.656,0 -0.938,0.438 -0.938,0.438 0,0 -0.579,-0.228 -1.251,0.093 0.794,1.249 1.973,2.189 2.157,2.331 l 0,0.021 0.014,-0.011 0.014,0.011 0,-0.021 c 0.185,-0.142 1.371,-1.09 2.165,-2.345 -0.716,-0.304 -1.177,-0.095 -1.177,-0.095 z"
     id="path18"
     inkscape:connector-curvature="0"
     style="fill:#8bb273" />
  <path
     d="m 18.855,19.5 c -0.442,-0.723 -0.839,-1.547 -1.917,-2.047 -1.078,-0.5 -1.25,-0.641 -1.562,-1.156 -0.312,-0.515 -0.922,-0.859 -0.922,-0.859 0,0 0.016,-0.484 -0.188,-0.797 -0.203,-0.312 -0.188,-0.703 -0.188,-0.703 0,0 -0.25,0.133 -0.188,-0.355 0.062,-0.488 -0.25,-0.816 -0.25,-0.816 0,0 0.391,-0.516 0.062,-1.18 0.375,-0.648 0.203,-1.383 0.203,-1.383 0,0 0.328,-0.609 0,-1.266 -1.047,0.438 -1.109,1.828 -1.109,1.828 L 12.202,9.907 c 0,0 -0.5,0.328 -0.375,0.938 0.125,0.609 0.094,0.742 0.094,0.742 l -0.562,-0.476 c 0,0 -0.406,0.672 0.156,1.203 0.562,0.531 0.656,0.688 0.656,0.688 0,0 -0.281,-0.156 -0.281,0.094 0,0.25 0.062,0.359 0.062,0.359 l -0.736,-0.609 c 0,0 -0.217,0.828 0.298,1.297 0.516,0.469 0.828,0.641 0.828,0.641 0,0 -0.984,-0.281 -0.969,-0.211 0.016,0.07 0.203,0.586 0.703,0.867 0.5,0.281 0.875,0.391 0.875,0.391 l -1.016,0.184 c 0,0 0.25,0.723 0.844,0.723 0.594,0 1.156,-0.188 1.156,-0.188 0,0 -0.422,0.344 -0.547,0.609 -0.125,0.266 -0.484,0.297 -0.484,0.297 0,0 0.328,0.344 0.938,0.234 0.609,-0.109 0.688,-0.938 1.438,-0.672 0.75,0.266 2.094,0.75 2.531,1.422 0.437,0.672 0.594,0.828 0.688,1.062 0.095,0.232 0.485,0.209 0.356,-0.002 z"
     id="path20"
     inkscape:connector-curvature="0"
     style="fill:#658d5c" />
  <path
     d="m 17.027,19.5 c 0.441,-0.723 0.839,-1.547 1.917,-2.047 1.078,-0.5 1.25,-0.641 1.562,-1.156 0.312,-0.515 0.922,-0.859 0.922,-0.859 0,0 -0.016,-0.484 0.188,-0.797 0.204,-0.313 0.188,-0.703 0.188,-0.703 0,0 0.25,0.133 0.188,-0.355 -0.062,-0.488 0.25,-0.816 0.25,-0.816 0,0 -0.391,-0.516 -0.062,-1.18 -0.375,-0.648 -0.203,-1.383 -0.203,-1.383 0,0 -0.328,-0.609 0,-1.266 1.047,0.438 1.109,1.828 1.109,1.828 L 23.68,9.907 c 0,0 0.5,0.328 0.375,0.938 -0.125,0.609 -0.094,0.742 -0.094,0.742 l 0.562,-0.476 c 0,0 0.406,0.672 -0.156,1.203 -0.562,0.531 -0.656,0.688 -0.656,0.688 0,0 0.281,-0.156 0.281,0.094 0,0.25 -0.062,0.359 -0.062,0.359 l 0.735,-0.609 c 0,0 0.218,0.828 -0.298,1.297 -0.516,0.469 -0.828,0.641 -0.828,0.641 0,0 0.984,-0.281 0.969,-0.211 -0.016,0.07 -0.203,0.586 -0.703,0.867 -0.5,0.281 -0.875,0.391 -0.875,0.391 l 1.016,0.184 c 0,0 -0.25,0.723 -0.844,0.723 -0.594,0 -1.156,-0.188 -1.156,-0.188 0,0 0.422,0.344 0.547,0.609 0.125,0.266 0.484,0.297 0.484,0.297 0,0 -0.328,0.344 -0.938,0.234 -0.61,-0.11 -0.688,-0.938 -1.438,-0.672 -0.75,0.266 -2.094,0.75 -2.531,1.422 -0.437,0.672 -0.594,0.828 -0.688,1.062 -0.094,0.232 -0.484,0.209 -0.355,-0.002 z"
     id="path22"
     inkscape:connector-curvature="0"
     style="fill:#658d5c" />
  <path
     d="m 15.625,18.103 c -0.734,0.085 -0.922,0.569 -1.953,0.116 -0.047,0.234 0.328,0.594 0.328,0.594 0,0 -0.562,0.016 -0.828,-0.078 0.141,0.578 0.797,0.797 1.344,0.75 0.547,-0.047 0.891,-0.453 1.524,-0.312 0.633,0.141 1.088,0.335 0.962,-0.797 -0.424,-0.454 -1.377,-0.273 -1.377,-0.273 z m 4.75,0 c 0.734,0.085 0.922,0.569 1.953,0.116 0.047,0.234 -0.328,0.594 -0.328,0.594 0,0 0.562,0.016 0.828,-0.078 -0.141,0.578 -0.797,0.797 -1.344,0.75 -0.547,-0.047 -0.891,-0.453 -1.524,-0.312 -0.633,0.141 -1.088,0.335 -0.962,-0.797 0.424,-0.454 1.377,-0.273 1.377,-0.273 z"
     id="path24"
     inkscape:connector-curvature="0"
     style="fill:#e1e8ed" />
  <path
     d="M 20.422,17.375 C 20,17.188 19.078,17.656 18,17.656 c -1.078,0 -2,-0.469 -2.422,-0.281 -0.422,0.188 -0.344,0.25 -0.312,0.406 0.031,0.156 0.078,0.578 0.109,0.812 0.031,0.234 0.281,0.391 0.578,0.188 0.297,-0.203 0.672,-0.297 1.188,-0.141 0.516,0.156 0.834,0.146 0.834,0.146 0,0 0.369,0.01 0.885,-0.146 0.516,-0.156 0.891,-0.062 1.188,0.141 0.297,0.203 0.547,0.047 0.578,-0.188 0.031,-0.234 0.078,-0.656 0.109,-0.812 0.031,-0.156 0.109,-0.218 -0.313,-0.406 z"
     id="path26"
     inkscape:connector-curvature="0"
     style="fill:#f5f8fa" />
  <path
     d="m 19.838,17.781 c 0,0.096 -0.191,0.48 -1.952,0.48 -1.761,0 -1.892,-0.385 -1.892,-0.48 0,-0.096 0.288,0.212 2.048,0.212 1.76,0 1.796,-0.307 1.796,-0.212 z"
     id="path28"
     inkscape:connector-curvature="0"
     style="fill:#99aab5" />
</svg>
