<?xml version="1.0" encoding="UTF-8" standalone="no"?>
<svg
   xmlns:dc="http://purl.org/dc/elements/1.1/"
   xmlns:cc="http://creativecommons.org/ns#"
   xmlns:rdf="http://www.w3.org/1999/02/22-rdf-syntax-ns#"
   xmlns:svg="http://www.w3.org/2000/svg"
   xmlns="http://www.w3.org/2000/svg"
   xmlns:sodipodi="http://sodipodi.sourceforge.net/DTD/sodipodi-0.dtd"
   xmlns:inkscape="http://www.inkscape.org/namespaces/inkscape"
   viewBox="0 0 36 26"
   id="svg2"
   version="1.1"
   inkscape:version="0.91 r13725"
   sodipodi:docname="1f1f5-1f1f7.svg"
   width="36"
   height="26">
  <metadata
     id="metadata22">
    <rdf:RDF>
      <cc:Work
         rdf:about="">
        <dc:format>image/svg+xml</dc:format>
        <dc:type
           rdf:resource="http://purl.org/dc/dcmitype/StillImage" />
      </cc:Work>
    </rdf:RDF>
  </metadata>
  <defs
     id="defs20" />
  <sodipodi:namedview
     pagecolor="#ffffff"
     bordercolor="#666666"
     borderopacity="1"
     objecttolerance="10"
     gridtolerance="10"
     guidetolerance="10"
     inkscape:pageopacity="0"
     inkscape:pageshadow="2"
     inkscape:window-width="640"
     inkscape:window-height="480"
     id="namedview18"
     showgrid="false"
     inkscape:zoom="6.5555556"
     inkscape:cx="18"
     inkscape:cy="13"
     inkscape:window-x="0"
     inkscape:window-y="0"
     inkscape:window-maximized="0"
     inkscape:current-layer="svg2" />
  <path
     d="M 32,0 4,0 C 2.992,0 2.074,0.375 1.371,0.99 L 6.923,5 36,5 36,4 C 36,1.791 34.209,0 32,0 Z"
     id="path4"
     inkscape:connector-curvature="0"
     style="fill:#ea0b19" />
  <path
     d="M 13.846,10 36,10 36,5 6.923,5 Z"
     id="path6"
     inkscape:connector-curvature="0"
     style="fill:#eeeeee" />
  <path
     d="M 18,13 13.846,16 36,16 36,10 13.846,10 Z"
     id="path8"
     inkscape:connector-curvature="0"
     style="fill:#ea0b19" />
  <path
     d="M 6.923,21 36,21 36,16 13.846,16 Z"
     id="path10"
     inkscape:connector-curvature="0"
     style="fill:#eeeeee" />
  <path
     d="M 1.371,25.01 C 2.074,25.625 2.992,26 4,26 l 28,0 c 2.209,0 4,-1.791 4,-4 l 0,-1 -29.077,0 -5.552,4.01 z"
     id="path12"
     inkscape:connector-curvature="0"
     style="fill:#ea0b19" />
  <path
     d="M 13.846,16 18,13 13.846,10 6.923,5 1.371,0.99 C 0.532,1.724 0,2.799 0,4 l 0,18 c 0,1.201 0.532,2.276 1.371,3.01 L 6.923,21 13.846,16 Z"
     id="path14"
     inkscape:connector-curvature="0"
     style="fill:#0f55ec" />
  <path
     d="m 8.187,13.838 2.313,-1.675 -2.859,0 -0.888,-2.726 -0.89,2.726 -2.863,0 2.315,1.677 -0.89,2.723 2.325,-1.684 2.325,1.684 z"
     id="path16"
     inkscape:connector-curvature="0"
     style="fill:#ffffff" />
</svg>
