<?xml version="1.0" encoding="UTF-8" standalone="no"?>
<svg
   xmlns:dc="http://purl.org/dc/elements/1.1/"
   xmlns:cc="http://creativecommons.org/ns#"
   xmlns:rdf="http://www.w3.org/1999/02/22-rdf-syntax-ns#"
   xmlns:svg="http://www.w3.org/2000/svg"
   xmlns="http://www.w3.org/2000/svg"
   xmlns:sodipodi="http://sodipodi.sourceforge.net/DTD/sodipodi-0.dtd"
   xmlns:inkscape="http://www.inkscape.org/namespaces/inkscape"
   viewBox="0 0 36 26"
   id="svg2"
   version="1.1"
   inkscape:version="0.91 r13725"
   sodipodi:docname="1f1fe-1f1f9.svg"
   width="36"
   height="26">
  <metadata
     id="metadata56">
    <rdf:RDF>
      <cc:Work
         rdf:about="">
        <dc:format>image/svg+xml</dc:format>
        <dc:type
           rdf:resource="http://purl.org/dc/dcmitype/StillImage" />
      </cc:Work>
    </rdf:RDF>
  </metadata>
  <defs
     id="defs54" />
  <sodipodi:namedview
     pagecolor="#ffffff"
     bordercolor="#666666"
     borderopacity="1"
     objecttolerance="10"
     gridtolerance="10"
     guidetolerance="10"
     inkscape:pageopacity="0"
     inkscape:pageshadow="2"
     inkscape:window-width="640"
     inkscape:window-height="480"
     id="namedview52"
     showgrid="false"
     inkscape:zoom="6.5555556"
     inkscape:cx="18"
     inkscape:cy="13"
     inkscape:window-x="0"
     inkscape:window-y="0"
     inkscape:window-maximized="0"
     inkscape:current-layer="svg2" />
  <path
     d="m 36,22 c 0,2.209 -1.791,4 -4,4 L 4,26 C 1.791,26 0,24.209 0,22 L 0,4 C 0,1.791 1.791,0 4,0 l 28,0 c 2.209,0 4,1.791 4,4 l 0,18 z"
     id="path4"
     inkscape:connector-curvature="0"
     style="fill:#eeeeee" />
  <path
     d="m 8.775,3.131 0.557,0 0.825,2.426 0.819,-2.426 0.553,0 0,2.869 -0.371,0 0,-1.693 c 0,-0.059 0.001,-0.156 0.004,-0.291 0.003,-0.135 0.004,-0.281 0.004,-0.436 L 10.346,6 9.961,6 9.134,3.58 l 0,0.088 c 0,0.07 0.002,0.177 0.006,0.321 0.004,0.144 0.006,0.25 0.006,0.317 l 0,1.694 -0.371,0 0,-2.869 z m 4.579,0 0.438,0 L 14.834,6 14.408,6 14.109,5.141 12.983,5.141 12.672,6 12.274,6 13.354,3.131 Z m 0.645,1.693 -0.442,-1.268 -0.459,1.268 0.901,0 z m 0.669,-1.693 0.453,0 0.825,1.379 0.825,-1.379 0.457,0 -1.086,1.713 0,1.156 -0.389,0 0,-1.156 -1.085,-1.713 z m 5.253,0.41 c 0.189,0.254 0.285,0.579 0.285,0.975 0,0.428 -0.109,0.785 -0.326,1.068 -0.256,0.333 -0.619,0.5 -1.092,0.5 -0.441,0 -0.789,-0.146 -1.041,-0.438 -0.225,-0.281 -0.338,-0.637 -0.338,-1.066 0,-0.388 0.096,-0.72 0.289,-0.996 0.248,-0.354 0.613,-0.531 1.098,-0.531 0.506,0 0.881,0.162 1.125,0.488 z M 19.578,5.37 c 0.152,-0.246 0.229,-0.528 0.229,-0.847 0,-0.337 -0.089,-0.609 -0.265,-0.815 -0.177,-0.206 -0.418,-0.309 -0.724,-0.309 -0.297,0 -0.539,0.102 -0.727,0.306 -0.188,0.204 -0.281,0.504 -0.281,0.902 0,0.318 0.081,0.586 0.241,0.804 0.16,0.218 0.421,0.328 0.782,0.328 0.344,-10e-4 0.592,-0.124 0.745,-0.369 z m 3.177,-2.239 0,0.342 -0.967,0 0,2.527 -0.393,0 0,-2.527 -0.967,0 0,-0.342 2.327,0 z m 2.602,0 0,0.342 -0.967,0 0,2.527 -0.393,0 0,-2.527 -0.967,0 0,-0.342 2.327,0 z m 0.635,0 2.082,0 0,0.352 -1.703,0 0,0.871 1.574,0 0,0.332 -1.574,0 0,0.973 1.732,0 0,0.341 -2.111,0 0,-2.869 z"
     id="path6"
     inkscape:connector-curvature="0"
     style="fill:#d42e11" />
  <path
     d="m 18,19.91 c -0.069,0 -0.125,-0.056 -0.125,-0.124 l 0,-0.001 C 17.875,19.75 17.86,18.91 17,18.91 l -2,0 c -1.105,0 -1.847,-0.854 -1.847,-2.125 l 0,-8.449 c 0,-0.069 0.056,-0.125 0.125,-0.125 l 9.423,0 c 0.069,0 0.125,0.056 0.125,0.125 l 0,8.449 c 0,1.271 -0.733,2.125 -1.826,2.125 l -2,0 c -0.86,0 -0.875,0.84 -0.875,0.875 l 0,0.001 c 0,0.068 -0.056,0.124 -0.125,0.124 z"
     id="path8"
     inkscape:connector-curvature="0"
     style="fill:#231f20" />
  <path
     d="m 13.403,8.461 0,8.324 c 0,0.934 0.494,1.875 1.597,1.875 l 2,0 c 0.552,0 0.852,0.283 1,0.591 0.148,-0.308 0.448,-0.591 1,-0.591 l 2,0 c 0.957,0 1.576,-0.736 1.576,-1.875 l 0,-8.324 -9.173,0 z"
     id="path10"
     inkscape:connector-curvature="0"
     style="fill:#eeeeee" />
  <path
     d="m 20.5,11.525 c 0,0.538 -0.448,0.975 -1,0.975 -0.553,0 -1.001,-0.437 -1.001,-0.975 0,-0.538 0.448,-0.975 1.001,-0.975 0.552,10e-4 1,0.437 1,0.975 z"
     id="path12"
     inkscape:connector-curvature="0"
     style="fill:#226699" />
  <path
     d="m 20.5,13.025 c 0,0.538 -0.448,0.975 -1,0.975 -0.553,0 -1.001,-0.437 -1.001,-0.975 0,-0.538 0.448,-0.975 1.001,-0.975 0.552,10e-4 1,0.437 1,0.975 z"
     id="path14"
     inkscape:connector-curvature="0"
     style="fill:#226699" />
  <path
     d="m 19,11.525 c 0,0.538 -0.448,0.975 -1,0.975 -0.553,0 -1.001,-0.437 -1.001,-0.975 0,-0.538 0.448,-0.975 1.001,-0.975 0.552,10e-4 1,0.437 1,0.975 z"
     id="path16"
     inkscape:connector-curvature="0"
     style="fill:#226699" />
  <path
     d="M 19,13.025 C 19,13.563 18.552,14 18,14 c -0.553,0 -1.001,-0.437 -1.001,-0.975 0,-0.538 0.448,-0.975 1.001,-0.975 0.552,10e-4 1,0.437 1,0.975 z"
     id="path18"
     inkscape:connector-curvature="0"
     style="fill:#226699" />
  <path
     d="m 17.5,11.525 c 0,0.538 -0.448,0.975 -1,0.975 -0.553,0 -1.001,-0.437 -1.001,-0.975 0,-0.538 0.448,-0.975 1.001,-0.975 0.552,10e-4 1,0.437 1,0.975 z"
     id="path20"
     inkscape:connector-curvature="0"
     style="fill:#226699" />
  <path
     d="m 17.5,13.025 c 0,0.538 -0.448,0.975 -1,0.975 -0.553,0 -1.001,-0.437 -1.001,-0.975 0,-0.538 0.448,-0.975 1.001,-0.975 0.552,10e-4 1,0.437 1,0.975 z"
     id="path22"
     inkscape:connector-curvature="0"
     style="fill:#226699" />
  <path
     d="M 22,11.525 C 22,11.217 21.844,10.954 21.614,10.775 21.844,10.597 22,10.334 22,10.025 22,9.487 21.552,9.05 21,9.05 20.706,9.05 20.448,9.178 20.265,9.375 20.082,9.152 19.814,9 19.5,9 19.195,9 18.932,9.142 18.748,9.354 18.565,9.142 18.303,9 18,9 17.696,9 17.433,9.143 17.25,9.357 17.066,9.143 16.803,9 16.5,9 16.196,9 15.933,9.143 15.75,9.357 15.566,9.143 15.304,9 15,9 c -0.553,0 -1,0.448 -1,1 0,0.304 0.143,0.566 0.356,0.75 C 14.143,10.934 14,11.196 14,11.5 c 0,0.304 0.143,0.566 0.356,0.75 C 14.143,12.434 14,12.696 14,13 c 0,0.552 0.447,1.25 1,1.25 l 6,0 c 0.552,0 1,-0.562 1,-1.1 0,-0.308 -0.156,-0.634 -0.386,-0.812 C 21.844,12.159 22,11.834 22,11.525 Z"
     id="path24"
     inkscape:connector-curvature="0"
     style="fill:#171796" />
  <path
     d="M 22,14.025 C 22,13.831 21.94,13.651 21.84,13.5 l -7.681,0 c -0.1,0.152 -0.16,0.331 -0.16,0.525 0,0.304 0.146,0.571 0.369,0.75 -0.224,0.179 -0.369,0.446 -0.369,0.75 0,0.304 0.146,0.571 0.369,0.75 -0.224,0.179 -0.369,0.446 -0.369,0.75 0,0.538 0.448,0.975 1.001,0.975 0.3,0 0.566,-0.132 0.75,-0.336 0.183,0.204 0.449,0.336 0.75,0.336 0.3,0 0.566,-0.132 0.75,-0.336 C 17.433,17.868 17.699,18 18,18 c 0.3,0 0.566,-0.132 0.75,-0.336 0.183,0.204 0.449,0.336 0.75,0.336 0.3,0 0.566,-0.132 0.75,-0.336 C 20.433,17.868 20.699,18 21,18 c 0.552,0 1,-0.437 1,-0.975 0,-0.304 -0.146,-0.571 -0.369,-0.75 C 21.854,16.097 22,15.829 22,15.525 22,15.221 21.854,14.954 21.631,14.775 21.854,14.597 22,14.329 22,14.025 Z"
     id="path26"
     inkscape:connector-curvature="0"
     style="fill:#d42e11" />
  <path
     d="M 18,12 C 17.069,12 16.294,11.361 16.07,10.5 16.029,10.661 16,10.826 16,11 c 0,1.104 0.896,2 2,2 1.104,0 2,-0.896 2,-2 0,-0.174 -0.029,-0.339 -0.071,-0.5 C 19.706,11.361 18.931,12 18,12 Z"
     id="path28"
     inkscape:connector-curvature="0"
     style="fill:#eeeeee" />
  <path
     d="m 16.869,15.627 c -0.101,-0.058 -0.196,-0.098 -0.286,-0.127 0.089,-0.029 0.185,-0.069 0.286,-0.127 0.287,-0.165 0.475,-0.377 0.42,-0.473 -0.056,-0.096 -0.333,-0.039 -0.62,0.127 -0.101,0.058 -0.182,0.121 -0.252,0.184 0.019,-0.092 0.033,-0.194 0.033,-0.311 0,-0.332 -0.089,-0.601 -0.2,-0.601 -0.111,0 -0.2,0.269 -0.2,0.601 0,0.116 0.014,0.219 0.033,0.311 -0.07,-0.062 -0.152,-0.126 -0.253,-0.184 -0.287,-0.166 -0.564,-0.223 -0.62,-0.127 -0.055,0.096 0.132,0.307 0.42,0.473 0.101,0.058 0.196,0.098 0.285,0.127 -0.089,0.029 -0.185,0.069 -0.285,0.127 -0.288,0.166 -0.476,0.378 -0.42,0.473 0.055,0.096 0.333,0.039 0.62,-0.127 0.101,-0.058 0.183,-0.121 0.253,-0.184 -0.019,0.092 -0.033,0.194 -0.033,0.311 0,0.332 0.089,0.601 0.2,0.601 0.11,0 0.2,-0.269 0.2,-0.601 0,-0.116 -0.014,-0.219 -0.033,-0.31 0.07,0.063 0.152,0.126 0.253,0.184 0.287,0.165 0.564,0.222 0.62,0.126 0.054,-0.096 -0.134,-0.308 -0.421,-0.473 z m 3.5,0 c -0.101,-0.058 -0.196,-0.098 -0.285,-0.127 0.089,-0.029 0.185,-0.069 0.285,-0.127 0.287,-0.165 0.475,-0.377 0.42,-0.473 -0.056,-0.096 -0.333,-0.039 -0.62,0.127 -0.1,0.058 -0.182,0.121 -0.252,0.183 0.019,-0.092 0.033,-0.194 0.033,-0.31 0,-0.332 -0.09,-0.601 -0.2,-0.601 -0.11,0 -0.2,0.269 -0.2,0.601 0,0.116 0.014,0.219 0.033,0.311 -0.07,-0.063 -0.152,-0.126 -0.253,-0.184 -0.287,-0.166 -0.564,-0.223 -0.62,-0.127 -0.055,0.096 0.133,0.307 0.42,0.473 0.101,0.058 0.197,0.098 0.286,0.127 -0.089,0.029 -0.185,0.069 -0.286,0.127 -0.287,0.166 -0.475,0.378 -0.42,0.473 0.056,0.096 0.333,0.039 0.62,-0.127 0.101,-0.058 0.183,-0.121 0.253,-0.184 -0.019,0.092 -0.033,0.194 -0.033,0.311 0,0.332 0.09,0.601 0.2,0.601 0.11,0 0.2,-0.269 0.2,-0.601 0,-0.116 -0.014,-0.218 -0.033,-0.31 0.07,0.062 0.151,0.126 0.252,0.184 0.287,0.165 0.565,0.222 0.62,0.126 0.056,-0.096 -0.133,-0.308 -0.42,-0.473 z"
     id="path30"
     inkscape:connector-curvature="0"
     style="fill:#ffac33" />
  <path
     d="m 9.181,23.658 c 0,0 2.397,-1.298 3.167,-1.473 0.771,-0.177 1.65,-0.198 1.299,0.329 -0.353,0.527 0.065,1.166 -0.484,1.1 -0.549,-0.066 -1.804,0.506 -2.266,0.705 -0.462,0.197 -1.145,0.55 -1.145,0.55 L 9.181,23.658 Z"
     id="path32"
     inkscape:connector-curvature="0"
     style="fill:#ccd6dd" />
  <path
     d="m 13.998,22.845 c -0.132,-0.33 -0.306,-0.659 -0.306,-0.659 0,0 -0.085,0.2 -0.387,0.337 -0.262,0.119 -0.521,0.33 -0.451,0.477 0.097,0.204 1.144,-0.155 1.144,-0.155 z"
     id="path34"
     inkscape:connector-curvature="0"
     style="fill:#66757f" />
  <path
     d="m 27.154,23.658 c 0,0 -2.398,-1.298 -3.169,-1.473 -0.769,-0.177 -1.649,-0.198 -1.298,0.329 0.354,0.527 -0.065,1.166 0.485,1.1 0.551,-0.066 1.803,0.506 2.266,0.705 0.462,0.197 1.145,0.55 1.145,0.55 l 0.571,-1.211 z"
     id="path36"
     inkscape:connector-curvature="0"
     style="fill:#ccd6dd" />
  <path
     d="m 22.336,22.845 c 0.132,-0.33 0.306,-0.659 0.306,-0.659 0,0 0.086,0.2 0.388,0.337 0.262,0.119 0.521,0.33 0.45,0.477 -0.096,0.204 -1.144,-0.155 -1.144,-0.155 z"
     id="path38"
     inkscape:connector-curvature="0"
     style="fill:#66757f" />
  <path
     d="M 21.963,22.339 C 21.368,22.141 19.741,22.03 19.212,22.03 l -2.089,0 c -0.528,0 -2.155,0.11 -2.75,0.309 -0.594,0.198 -1.108,0.672 -1.518,0.66 0.03,0.125 0.065,0.285 0.22,0.77 0.153,0.484 0.572,0.462 1.056,0.221 0.484,-0.243 1.189,-0.396 1.849,-0.396 l 4.377,0 c 0.661,0 1.365,0.153 1.849,0.396 0.483,0.241 0.902,0.264 1.057,-0.221 0.153,-0.484 0.188,-0.645 0.219,-0.77 -0.413,0.012 -0.926,-0.462 -1.519,-0.66 z"
     id="path40"
     inkscape:connector-curvature="0"
     style="fill:#ccd6dd" />
  <path
     d="m 15.585,22.5 1.73,0 0,0.819 -1.73,0 z m 2.593,0 2.949,0 0,0.819 -2.949,0 z"
     id="path42"
     inkscape:connector-curvature="0"
     style="fill:#99aab5" />
  <path
     d="m 6.464,7.875 0.99,0.25 0.833,-0.667 c 0,0 1,-0.375 1.542,-0.083 C 10.37,7.667 9.912,7.625 9.412,7.75 8.912,7.875 8.806,8.372 8.933,8.562 9.121,8.843 9.692,8.866 9.621,8.437 9.59,8.249 10.413,8.666 10.329,9.125 l -0.083,0.458 c 0,0 -0.042,1.042 0.625,1.25 0.667,0.208 0.594,0.833 -0.031,0.792 -0.625,-0.041 -1.677,-0.833 -1.677,-0.833 0,0 -0.542,0.375 -0.667,0.125 0,0 -1.292,-0.292 -1.125,-1.458 0,0 -0.406,1.292 0.406,1.729 1.17,0.63 1.316,0.196 2.302,0.979 1.167,0.927 2.083,2.646 1.792,5.021 -0.291,2.375 -0.958,3.969 -3.625,3.969 C 6.684,21.157 5.84,19.99 5.84,18.845 5.839,17.698 6.87,17 7.526,17 8.307,17 8.557,17.75 8.464,17.938 8.15,18.566 7.849,18.132 8.089,17.844 8.245,17.656 7.932,17.36 7.558,17.375 c -0.75,0.031 -1.156,0.76 -1.156,1.469 0,0.709 0.802,1.781 1.802,1.781 1,0 2.125,-0.916 2.125,-2.333 0,-1.417 -0.584,-2.333 -1.542,-3.125 l -0.479,0.927 c 0,0 -1.833,-0.261 -2.875,-1.344 -1.042,-1.083 -0.941,-2.463 -0.75,-2.312 0.438,0.344 1.479,0.396 1.479,0.396 0,0 -0.416,-0.875 -0.708,-1.042 C 5.162,11.625 4.568,10.729 5.027,9.688 5.485,8.646 6.163,8.334 6.329,8.667 6.495,9 6.933,8.771 6.808,8.438 6.683,8.105 6.464,7.875 6.464,7.875 Z"
     id="path44"
     inkscape:connector-curvature="0"
     style="fill:#ccd6dd" />
  <path
     d="m 5.933,12.406 c 0.594,0.812 1.281,1.875 2.281,2.406 1,0.531 2.156,1.906 2.156,3.281 0,1.375 -0.927,2.531 -2.166,2.531 -1.24,0 -1.833,-1.156 -1.833,-1.906 0,-0.75 0.656,-1.156 0.656,-1.156 0,0 -0.719,0.156 -0.875,1.094 -0.139,0.832 0.656,2.188 1.969,2.188 1.937,0 2.656,-1.312 2.656,-2.75 0,-1.438 -1.25,-3 -2.094,-3.844 -0.844,-0.844 -2,-1.812 -2.531,-2.375 -0.531,-0.563 -0.219,0.531 -0.219,0.531 z"
     id="path46"
     inkscape:connector-curvature="0"
     style="fill:#99aab5" />
  <path
     d="M 29.479,7.875 28.49,8.125 27.656,7.458 c 0,0 -1,-0.375 -1.541,-0.083 -0.542,0.292 -0.084,0.25 0.416,0.375 0.5,0.125 0.607,0.622 0.479,0.812 -0.188,0.281 -0.759,0.304 -0.688,-0.125 0.031,-0.188 -0.792,0.229 -0.708,0.688 l 0.083,0.458 c 0,0 0.042,1.042 -0.625,1.25 -0.667,0.208 -0.594,0.833 0.031,0.792 0.625,-0.041 1.677,-0.833 1.677,-0.833 0,0 0.542,0.375 0.667,0.125 0,0 1.292,-0.292 1.125,-1.458 0,0 0.406,1.292 -0.406,1.729 -1.171,0.63 -1.315,0.196 -2.302,0.979 -1.167,0.927 -2.084,2.646 -1.792,5.021 0.292,2.375 0.958,3.969 3.625,3.969 1.562,0 2.406,-1.167 2.406,-2.312 0,-1.146 -1.031,-1.844 -1.688,-1.844 -0.781,0 -1.031,0.75 -0.938,0.938 0.313,0.628 0.615,0.194 0.375,-0.094 -0.156,-0.188 0.157,-0.484 0.531,-0.469 0.75,0.031 1.156,0.76 1.156,1.469 0,0.709 -0.802,1.781 -1.802,1.781 -1,0 -2.125,-0.916 -2.125,-2.333 0,-1.417 0.584,-2.333 1.541,-3.125 l 0.479,0.927 c 0,0 1.833,-0.261 2.875,-1.344 1.042,-1.083 0.94,-2.463 0.75,-2.312 -0.438,0.344 -1.479,0.396 -1.479,0.396 0,0 0.416,-0.875 0.709,-1.042 0.291,-0.167 0.885,-1.063 0.427,-2.104 C 30.456,8.648 29.778,8.335 29.612,8.668 29.445,9.001 29.008,8.772 29.133,8.439 29.258,8.106 29.479,7.875 29.479,7.875 Z"
     id="path48"
     inkscape:connector-curvature="0"
     style="fill:#ccd6dd" />
  <path
     d="m 30.01,12.406 c -0.594,0.812 -1.281,1.875 -2.281,2.406 -1,0.531 -2.156,1.906 -2.156,3.281 0,1.375 0.927,2.531 2.167,2.531 1.239,0 1.833,-1.156 1.833,-1.906 0,-0.75 -0.656,-1.156 -0.656,-1.156 0,0 0.719,0.156 0.875,1.094 0.139,0.832 -0.656,2.188 -1.969,2.188 -1.938,0 -2.656,-1.312 -2.656,-2.75 0,-1.438 1.25,-3 2.094,-3.844 0.844,-0.844 2,-1.812 2.531,-2.375 0.53,-0.563 0.218,0.531 0.218,0.531 z"
     id="path50"
     inkscape:connector-curvature="0"
     style="fill:#99aab5" />
</svg>
