<?xml version="1.0" encoding="UTF-8" standalone="no"?>
<svg
   xmlns:dc="http://purl.org/dc/elements/1.1/"
   xmlns:cc="http://creativecommons.org/ns#"
   xmlns:rdf="http://www.w3.org/1999/02/22-rdf-syntax-ns#"
   xmlns:svg="http://www.w3.org/2000/svg"
   xmlns="http://www.w3.org/2000/svg"
   xmlns:sodipodi="http://sodipodi.sourceforge.net/DTD/sodipodi-0.dtd"
   xmlns:inkscape="http://www.inkscape.org/namespaces/inkscape"
   viewBox="0 0 36 26"
   id="svg2"
   version="1.1"
   inkscape:version="0.91 r13725"
   sodipodi:docname="1f1f7-1f1fc.svg"
   width="36"
   height="26">
  <metadata
     id="metadata20">
    <rdf:RDF>
      <cc:Work
         rdf:about="">
        <dc:format>image/svg+xml</dc:format>
        <dc:type
           rdf:resource="http://purl.org/dc/dcmitype/StillImage" />
      </cc:Work>
    </rdf:RDF>
  </metadata>
  <defs
     id="defs18" />
  <sodipodi:namedview
     pagecolor="#ffffff"
     bordercolor="#666666"
     borderopacity="1"
     objecttolerance="10"
     gridtolerance="10"
     guidetolerance="10"
     inkscape:pageopacity="0"
     inkscape:pageshadow="2"
     inkscape:window-width="640"
     inkscape:window-height="480"
     id="namedview16"
     showgrid="false"
     inkscape:zoom="6.5555556"
     inkscape:cx="18"
     inkscape:cy="13"
     inkscape:window-x="0"
     inkscape:window-y="0"
     inkscape:window-maximized="0"
     inkscape:current-layer="svg2" />
  <path
     d="m 36,22 c 0,2.209 -1.791,4 -4,4 L 4,26 C 1.791,26 0,24.209 0,22 L 0,4 C 0,1.791 1.791,0 4,0 l 28,0 c 2.209,0 4,1.791 4,4 l 0,18 z"
     id="path4"
     inkscape:connector-curvature="0"
     style="fill:#20603d" />
  <path
     d="m 0,14 36,0 0,7 -36,0 z"
     id="path6"
     inkscape:connector-curvature="0"
     style="fill:#fad201" />
  <path
     d="M 32,0 4,0 C 1.791,0 0,1.791 0,4 L 0,16 36,16 36,4 C 36,1.791 34.209,0 32,0 Z"
     id="path8"
     inkscape:connector-curvature="0"
     style="fill:#00a1de" />
  <path
     d="M 26,0 26.522,4.034 28.07,0.272 27.531,4.304 30,1.072 28.435,4.827 31.656,2.343 29.173,5.565 32.929,4 29.695,6.469 33.728,5.929 29.966,7.477 34,8 29.966,8.523 33.728,10.07 29.695,9.531 32.929,12 29.173,10.435 31.656,13.657 28.435,11.173 30,14.929 27.531,11.695 28.07,15.728 26.522,11.966 26,16 25.478,11.966 23.929,15.728 24.469,11.695 22,14.929 23.565,11.173 20.344,13.657 22.826,10.435 19.071,12 22.304,9.531 18.272,10.07 22.033,8.523 18,8 22.033,7.477 18.272,5.929 22.304,6.469 19.071,4 22.826,5.565 20.344,2.343 23.565,4.827 22,1.072 l 2.469,3.232 -0.54,-4.032 1.549,3.762 z"
     id="path10"
     inkscape:connector-curvature="0"
     style="fill:#fad201" />
  <circle
     cx="26"
     cy="8"
     r="4"
     id="circle12"
     style="fill:#00a1de" />
  <circle
     cx="26"
     cy="8"
     r="3"
     id="circle14"
     style="fill:#fad201" />
</svg>
