<?xml version="1.0" encoding="UTF-8" standalone="no"?>
<svg
   xmlns:dc="http://purl.org/dc/elements/1.1/"
   xmlns:cc="http://creativecommons.org/ns#"
   xmlns:rdf="http://www.w3.org/1999/02/22-rdf-syntax-ns#"
   xmlns:svg="http://www.w3.org/2000/svg"
   xmlns="http://www.w3.org/2000/svg"
   xmlns:sodipodi="http://sodipodi.sourceforge.net/DTD/sodipodi-0.dtd"
   xmlns:inkscape="http://www.inkscape.org/namespaces/inkscape"
   viewBox="0 0 36 26"
   id="svg2"
   version="1.1"
   inkscape:version="0.91 r13725"
   sodipodi:docname="1f1f3-1f1e8.svg"
   width="36"
   height="26">
  <metadata
     id="metadata26">
    <rdf:RDF>
      <cc:Work
         rdf:about="">
        <dc:format>image/svg+xml</dc:format>
        <dc:type
           rdf:resource="http://purl.org/dc/dcmitype/StillImage" />
      </cc:Work>
    </rdf:RDF>
  </metadata>
  <defs
     id="defs24" />
  <sodipodi:namedview
     pagecolor="#ffffff"
     bordercolor="#666666"
     borderopacity="1"
     objecttolerance="10"
     gridtolerance="10"
     guidetolerance="10"
     inkscape:pageopacity="0"
     inkscape:pageshadow="2"
     inkscape:window-width="640"
     inkscape:window-height="480"
     id="namedview22"
     showgrid="false"
     inkscape:zoom="6.5555556"
     inkscape:cx="18"
     inkscape:cy="13"
     inkscape:window-x="0"
     inkscape:window-y="0"
     inkscape:window-maximized="0"
     inkscape:current-layer="svg2" />
  <path
     d="m 36,22 c 0,2.209 -1.791,4 -4,4 L 4,26 C 1.791,26 0,24.209 0,22 L 0,4 C 0,1.791 1.791,0 4,0 l 28,0 c 2.209,0 4,1.791 4,4 l 0,18 z"
     id="path4"
     inkscape:connector-curvature="0"
     style="fill:#009543" />
  <path
     d="M 0,8 36,8 36,18 0,18 Z"
     id="path6"
     inkscape:connector-curvature="0"
     style="fill:#ed4135" />
  <path
     d="M 32,0 4,0 C 1.791,0 0,1.791 0,4 L 0,8 36,8 36,4 C 36,1.791 34.209,0 32,0 Z"
     id="path8"
     inkscape:connector-curvature="0"
     style="fill:#0035ad" />
  <circle
     transform="matrix(0.22981194,-0.97323506,0.97323506,0.22981194,0,0)"
     cx="-9.6662436"
     cy="15.639814"
     id="ellipse10"
     r="9.4020004"
     style="fill:#141414" />
  <circle
     cx="13"
     cy="13"
     r="9"
     id="circle12"
     style="fill:#fae600" />
  <g
     id="g14"
     style="fill:#141414"
     transform="translate(0,-5)">
    <path
       d="m 12.87,9.008 0.322,0 0,17.984 -0.322,0 z"
       id="path16"
       inkscape:connector-curvature="0" />
    <path
       d="m 14.25,14.719 c 0,0.673 -0.546,1.219 -1.219,1.219 -0.673,0 -1.219,-0.545 -1.219,-1.219 0,-0.673 0.546,-1.219 1.219,-1.219 0.673,0 1.219,0.545 1.219,1.219 z m -0.219,7.547 c 0,0.786 -0.448,1.422 -1,1.422 -0.552,0 -1,-0.636 -1,-1.422 0,-0.786 0.448,-1.422 1,-1.422 0.552,0 1,0.635 1,1.422 z m 0.219,-3.985 c 0,0.406 -0.546,0.734 -1.219,0.734 -0.673,0 -1.219,-0.328 -1.219,-0.734 0,-0.406 0.546,-0.734 1.219,-0.734 0.673,0 1.219,0.328 1.219,0.734 z M 11.688,13 c 0,0 -0.125,-0.875 0.125,-1.25 0.25,-0.375 0.906,-0.719 1.438,-0.844 C 13.781,10.781 14.5,10 14.5,10 c 0,0 -0.094,1.156 -0.969,1.875 C 12.656,12.594 11.688,13 11.688,13 Z m -0.766,1.776 c 0,0 0.484,0.312 0.609,0.781 0.125,0.469 0.469,0.969 1.469,0.969 l 0,0.562 c 0,0 -0.844,0.062 -1.312,-0.125 -0.469,-0.188 -0.594,-1.062 -0.594,-1.375 0,-0.313 -0.172,-0.812 -0.172,-0.812 z m 4.187,0 c 0,0 -0.484,0.312 -0.609,0.781 -0.125,0.469 -0.469,0.969 -1.469,0.969 l 0,0.562 c 0,0 0.844,0.062 1.312,-0.125 0.469,-0.188 0.594,-1.062 0.594,-1.375 0,-0.313 0.172,-0.812 0.172,-0.812 z"
       id="path18"
       inkscape:connector-curvature="0" />
    <path
       d="M 14.938,21.188 C 14.938,20.876 14.797,20 14.329,19.813 13.859,19.625 13,19.553 13,19.553 c 0,0 -0.844,0.072 -1.312,0.26 -0.469,0.188 -0.594,1.062 -0.594,1.375 0,0.313 -0.172,1.812 -0.172,1.812 0,0 0.656,-1.098 0.781,-1.566 0.125,-0.469 0.641,-1.053 1.297,-1.053 0.672,0 1.203,0.562 1.328,1.031 0.125,0.469 0.774,1.588 0.774,1.588 0,0 -0.164,-1.5 -0.164,-1.812 z M 13,24 l 0,3 c 0,0 -0.875,0.094 -2.125,-0.234 -1.25,-0.328 -1.484,-0.453 -1.484,-0.453 0,0 1.272,-1.273 1.828,-1.75 C 11.875,24 13,24 13,24 Z m 0,0 0,3 c 0,0 0.875,0.094 2.125,-0.234 1.25,-0.328 1.484,-0.453 1.484,-0.453 0,0 -1.273,-1.273 -1.828,-1.75 C 14.125,24 13,24 13,24 Z"
       id="path20"
       inkscape:connector-curvature="0" />
  </g>
</svg>
