<?xml version="1.0" encoding="UTF-8" standalone="no"?>
<svg
   xmlns:dc="http://purl.org/dc/elements/1.1/"
   xmlns:cc="http://creativecommons.org/ns#"
   xmlns:rdf="http://www.w3.org/1999/02/22-rdf-syntax-ns#"
   xmlns:svg="http://www.w3.org/2000/svg"
   xmlns="http://www.w3.org/2000/svg"
   xmlns:sodipodi="http://sodipodi.sourceforge.net/DTD/sodipodi-0.dtd"
   xmlns:inkscape="http://www.inkscape.org/namespaces/inkscape"
   viewBox="0 0 36 26"
   id="svg2"
   version="1.1"
   inkscape:version="0.91 r13725"
   sodipodi:docname="1f1f9-1f1fc.svg"
   width="36"
   height="26">
  <metadata
     id="metadata16">
    <rdf:RDF>
      <cc:Work
         rdf:about="">
        <dc:format>image/svg+xml</dc:format>
        <dc:type
           rdf:resource="http://purl.org/dc/dcmitype/StillImage" />
      </cc:Work>
    </rdf:RDF>
  </metadata>
  <defs
     id="defs14" />
  <sodipodi:namedview
     pagecolor="#ffffff"
     bordercolor="#666666"
     borderopacity="1"
     objecttolerance="10"
     gridtolerance="10"
     guidetolerance="10"
     inkscape:pageopacity="0"
     inkscape:pageshadow="2"
     inkscape:window-width="640"
     inkscape:window-height="480"
     id="namedview12"
     showgrid="false"
     inkscape:zoom="6.5555556"
     inkscape:cx="18"
     inkscape:cy="13"
     inkscape:window-x="0"
     inkscape:window-y="0"
     inkscape:window-maximized="0"
     inkscape:current-layer="svg2" />
  <path
     d="m 32,0 -15,0 0,13 -17,0 0,9 c 0,2.209 1.791,4 4,4 l 28,0 c 2.209,0 4,-1.791 4,-4 L 36,4 C 36,1.791 34.209,0 32,0 Z"
     id="path4"
     inkscape:connector-curvature="0"
     style="fill:#fe0000" />
  <path
     d="M 17,0 4,0 C 1.791,0 0,1.791 0,4 l 0,9 17,0 0,-13 z M 10.937,4.61 12.972,4.062 11.481,5.549 C 11.36,5.201 11.174,4.884 10.937,4.61 Z m 0.251,1.89 c 0,1.346 -1.091,2.438 -2.438,2.438 -1.347,0 -2.438,-1.092 -2.438,-2.438 0,-1.346 1.092,-2.438 2.438,-2.438 1.346,0 2.438,1.092 2.438,2.438 z m 0,-4.222 -0.548,2.035 C 10.367,4.076 10.049,3.89 9.701,3.769 L 11.188,2.278 Z M 8.75,1.625 9.292,3.659 C 9.117,3.626 8.935,3.607 8.75,3.607 8.565,3.607 8.383,3.626 8.208,3.659 L 8.75,1.625 Z M 7.799,3.769 C 7.451,3.89 7.134,4.076 6.86,4.313 L 6.312,2.278 7.799,3.769 Z M 6.563,4.61 C 6.326,4.883 6.14,5.201 6.019,5.549 L 4.528,4.062 6.563,4.61 Z M 5.909,5.958 C 5.875,6.134 5.857,6.315 5.857,6.5 c 0,0.185 0.018,0.367 0.052,0.542 L 3.875,6.5 5.909,5.958 Z M 6.019,7.45 C 6.14,7.798 6.327,8.116 6.563,8.389 L 4.528,8.937 6.019,7.45 Z M 6.312,10.722 6.86,8.687 C 7.133,8.923 7.451,9.11 7.799,9.231 L 6.312,10.722 Z M 8.75,11.375 8.208,9.341 c 0.176,0.034 0.357,0.052 0.542,0.052 0.185,0 0.367,-0.018 0.542,-0.052 L 8.75,11.375 Z M 9.701,9.231 C 10.049,9.11 10.367,8.923 10.64,8.687 L 11.188,10.722 9.701,9.231 Z M 10.937,8.39 C 11.174,8.117 11.36,7.799 11.481,7.451 L 12.972,8.938 10.937,8.39 Z M 11.591,7.042 C 11.625,6.866 11.643,6.685 11.643,6.5 11.643,6.315 11.625,6.133 11.591,5.958 L 13.625,6.5 11.591,7.042 Z"
     id="path6"
     inkscape:connector-curvature="0"
     style="fill:#000095" />
  <path
     d="M 9.292,3.659 8.75,1.625 8.208,3.659 C 8.383,3.626 8.565,3.607 8.75,3.607 c 0.185,0 0.367,0.019 0.542,0.052 z M 5.857,6.5 c 0,-0.185 0.018,-0.367 0.052,-0.542 L 3.875,6.5 5.909,7.042 C 5.876,6.867 5.857,6.685 5.857,6.5 Z M 8.208,9.341 8.75,11.375 9.292,9.341 C 9.116,9.375 8.935,9.393 8.75,9.393 8.565,9.393 8.383,9.374 8.208,9.341 Z M 11.643,6.5 c 0,0.185 -0.018,0.367 -0.052,0.542 L 13.625,6.5 11.591,5.958 c 0.033,0.175 0.052,0.357 0.052,0.542 z M 11.188,2.278 9.701,3.769 c 0.348,0.122 0.666,0.308 0.939,0.544 L 11.188,2.278 Z M 10.937,8.39 12.972,8.938 11.481,7.451 C 11.36,7.799 11.174,8.116 10.937,8.39 Z M 6.312,10.722 7.799,9.231 C 7.451,9.11 7.133,8.923 6.86,8.687 L 6.312,10.722 Z M 6.563,4.61 4.528,4.062 6.019,5.549 C 6.14,5.201 6.326,4.884 6.563,4.61 Z M 9.701,9.231 11.188,10.722 10.64,8.687 C 10.366,8.924 10.049,9.11 9.701,9.231 Z M 6.019,7.45 4.528,8.937 6.563,8.389 C 6.326,8.116 6.14,7.799 6.019,7.45 Z M 7.799,3.769 6.312,2.278 6.86,4.313 C 7.134,4.076 7.451,3.89 7.799,3.769 Z m 5.173,0.293 -2.035,0.548 c 0.237,0.273 0.423,0.591 0.544,0.939 l 1.491,-1.487 z"
     id="path8"
     inkscape:connector-curvature="0"
     style="fill:#ffffff" />
  <circle
     cx="8.75"
     cy="6.5"
     r="2.438"
     id="circle10"
     style="fill:#ffffff" />
</svg>
