<?xml version="1.0" encoding="UTF-8" standalone="no"?>
<svg
   xmlns:dc="http://purl.org/dc/elements/1.1/"
   xmlns:cc="http://creativecommons.org/ns#"
   xmlns:rdf="http://www.w3.org/1999/02/22-rdf-syntax-ns#"
   xmlns:svg="http://www.w3.org/2000/svg"
   xmlns="http://www.w3.org/2000/svg"
   xmlns:sodipodi="http://sodipodi.sourceforge.net/DTD/sodipodi-0.dtd"
   xmlns:inkscape="http://www.inkscape.org/namespaces/inkscape"
   viewBox="0 0 36 26"
   id="svg2"
   version="1.1"
   inkscape:version="0.91 r13725"
   sodipodi:docname="1f1f0-1f1fe.svg"
   width="36"
   height="26">
  <metadata
     id="metadata44">
    <rdf:RDF>
      <cc:Work
         rdf:about="">
        <dc:format>image/svg+xml</dc:format>
        <dc:type
           rdf:resource="http://purl.org/dc/dcmitype/StillImage" />
      </cc:Work>
    </rdf:RDF>
  </metadata>
  <defs
     id="defs42" />
  <sodipodi:namedview
     pagecolor="#ffffff"
     bordercolor="#666666"
     borderopacity="1"
     objecttolerance="10"
     gridtolerance="10"
     guidetolerance="10"
     inkscape:pageopacity="0"
     inkscape:pageshadow="2"
     inkscape:window-width="640"
     inkscape:window-height="480"
     id="namedview40"
     showgrid="false"
     inkscape:zoom="6.5555556"
     inkscape:cx="18"
     inkscape:cy="13"
     inkscape:window-x="0"
     inkscape:window-y="0"
     inkscape:window-maximized="0"
     inkscape:current-layer="svg2" />
  <path
     d="M 32,0 4,0 C 3.795,0 3.593,0.015 3.396,0.045 L 3.392,1.799 0.662,1.795 C 0.244,2.427 0,3.185 0,4 l 0,18 c 0,2.209 1.791,4 4,4 l 28,0 c 2.209,0 4,-1.791 4,-4 L 36,4 C 36,1.791 34.209,0 32,0 Z"
     id="path4"
     inkscape:connector-curvature="0"
     style="fill:#00247d" />
  <path
     d="m 33.74,17.72 c -0.279,0.04 -0.396,0.44 -0.516,0.68 0,0 -0.279,0.24 -0.72,0.2 0,0 0.202,-0.32 0.401,-0.641 0.2,-0.319 0.081,-0.72 -0.199,-0.759 -0.279,-0.041 -0.319,-0.201 -0.68,-0.52 -0.36,-0.32 -1,-0.36 -1.12,-0.08 -0.12,0.279 -0.681,0.48 -0.6,0.88 0.079,0.4 0.279,0.92 0.479,1.24 0,0 -0.946,0.6 -1.707,0.88 -0.76,0.28 -1.311,0.32 -1.311,0.32 0,0 -0.799,-0.04 -1.559,-0.32 -0.761,-0.28 -1.484,-0.88 -1.484,-0.88 0.199,-0.32 0.399,-0.84 0.481,-1.24 0.079,-0.399 -0.481,-0.601 -0.601,-0.88 -0.12,-0.28 -0.76,-0.24 -1.12,0.08 -0.36,0.319 -0.399,0.479 -0.681,0.52 -0.279,0.039 -0.4,0.439 -0.2,0.759 0.2,0.32 0.398,0.641 0.398,0.641 -0.44,0.04 -0.721,-0.2 -0.721,-0.2 -0.12,-0.24 -0.244,-0.64 -0.524,-0.68 -0.28,-0.04 -0.286,0.239 -0.246,0.521 0.04,0.279 0.225,0.8 0.344,1.119 0.12,0.32 0.331,0.36 0.772,0.44 0.44,0.08 1.102,-0.279 1.102,-0.279 1.562,1.519 3.808,1.479 3.808,1.479 0,0 2.465,0.04 4.025,-1.479 0,0 0.772,0.359 1.213,0.279 0.44,-0.08 0.707,-0.12 0.826,-0.44 0.12,-0.319 0.334,-0.84 0.374,-1.119 0.042,-0.282 0.047,-0.561 -0.234,-0.521 z"
     id="path6"
     inkscape:connector-curvature="0"
     style="fill:#f9d050" />
  <path
     d="m 33.588,19.319 c 0,0 0.319,-0.959 0.399,-1.28 0.08,-0.319 -0.24,-0.44 -0.479,-0.24 -0.24,0.201 -0.601,1.361 -0.601,1.361 0,0 0.12,-0.24 0.36,-0.201 0.241,0.041 0.321,0.36 0.321,0.36 z M 31.667,17.84 c 0,0 0.44,-0.521 0.48,-0.841 0.04,-0.319 -0.4,-0.72 -0.721,-0.68 -0.319,0.04 -0.56,0.28 -0.479,0.56 0.08,0.28 0.359,0.841 0.359,0.841 0,0 0,-0.08 0.161,-0.08 0.16,0 0.2,0.2 0.2,0.2 z m -9.741,1.479 c 0,0 -0.32,-0.959 -0.401,-1.28 -0.079,-0.319 0.24,-0.44 0.48,-0.24 0.24,0.201 0.601,1.361 0.601,1.361 0,0 -0.12,-0.24 -0.36,-0.201 -0.241,0.041 -0.32,0.36 -0.32,0.36 z m 1.92,-1.479 c 0,0 -0.44,-0.521 -0.48,-0.841 -0.04,-0.319 0.4,-0.72 0.72,-0.68 0.32,0.04 0.561,0.28 0.48,0.56 -0.08,0.28 -0.36,0.841 -0.36,0.841 0,0 0,-0.08 -0.159,-0.08 -0.161,0 -0.201,0.2 -0.201,0.2 z"
     id="path8"
     inkscape:connector-curvature="0"
     style="fill:#db1c1c" />
  <path
     d="m 27.767,10.838 -3.231,0 0,2.928 7,0 0,-2.928 z"
     id="path10"
     inkscape:connector-curvature="0"
     style="fill:#cf1b2b" />
  <path
     d="m 30.271,18.358 c 0.56,-0.681 1.265,-1.919 1.265,-3.64 l 0,-1.486 c -0.214,-0.004 -0.445,-0.024 -0.503,-0.007 -0.369,0.106 -0.431,0.493 -0.879,0.493 -0.519,0 -0.661,-0.52 -1.181,-0.52 -0.521,0 -0.691,0.52 -1.211,0.52 -0.439,0 -0.805,-0.52 -1.205,-0.52 -0.4,0 -0.843,0.52 -1.203,0.52 -0.318,0 -0.528,-0.405 -0.819,-0.5 l 0.002,1.5 c 0,1.196 0.243,2.146 0.527,2.864 0.165,0.417 0.623,1.042 0.706,1.107 0,0 0.945,0.205 1.494,1.169 0,0 0.098,0.071 0.514,0.071 0.416,0 0.507,-0.092 0.507,-0.092 0.547,-0.999 1.486,-0.871 1.986,-1.479 z"
     id="path12"
     inkscape:connector-curvature="0"
     style="fill:#ffffff" />
  <path
     d="m 25.231,15.879 c 0.479,0 1.079,-0.439 1.399,-0.439 0.32,0 0.6,0.439 1.04,0.439 0.44,0 1,-0.439 1.28,-0.439 0.28,0 0.72,0.439 1.159,0.439 0.44,0 0.6,-0.439 0.999,-0.439 0.08,0 0.316,0.031 0.38,0.059 0.041,-0.261 0.061,-0.698 0.047,-1.106 -0.167,-0.004 -0.284,-0.01 -0.364,-0.01 -0.047,0 -0.106,-0.009 -0.173,0.014 -0.34,0.119 -0.411,0.483 -0.846,0.483 -0.519,0 -0.661,-0.52 -1.181,-0.52 -0.521,0 -0.691,0.52 -1.211,0.52 -0.439,0 -0.805,-0.52 -1.205,-0.52 -0.4,0 -0.843,0.52 -1.203,0.52 -0.247,0 -0.427,-0.245 -0.631,-0.398 -0.093,-0.07 -0.186,-0.093 -0.186,-0.093 -0.024,0.554 0.03,1.103 0.03,1.103 0.198,0.115 0.289,0.387 0.666,0.387 z m 3.764,2.361 c -0.515,0 -0.679,0.505 -1.185,0.516 -0.506,-0.011 -0.671,-0.516 -1.185,-0.516 -0.348,0 -0.625,0.296 -0.856,0.45 0.267,0.169 0.655,0.276 1.163,0.653 0.362,0.269 0.878,0.297 0.878,0.297 0,0 0.516,-0.029 0.878,-0.297 0.509,-0.377 0.897,-0.484 1.163,-0.653 -0.23,-0.154 -0.508,-0.45 -0.856,-0.45 z m 2.311,-2.121 c -0.56,0 -0.518,0.52 -1.037,0.52 -0.521,0 -0.641,-0.52 -1.16,-0.52 -0.521,0 -0.681,0.52 -1.2,0.52 -0.441,0 -0.801,-0.52 -1.201,-0.52 -0.399,0 -0.84,0.52 -1.199,0.52 -0.274,0 -0.572,-0.302 -0.857,-0.447 0,0 0.139,0.835 0.405,1.374 0.091,0.04 0.214,0.073 0.331,0.073 0.48,0 1.079,-0.439 1.4,-0.439 0.32,0 0.6,0.439 1.04,0.439 0.44,0 1,-0.439 1.28,-0.439 0.28,0 0.72,0.439 1.159,0.439 0.285,0 0.48,-0.192 0.672,-0.322 0.184,-0.338 0.323,-0.728 0.434,-1.195 -0.019,-0.002 -0.045,-0.003 -0.067,-0.003 z"
     id="path14"
     inkscape:connector-curvature="0"
     style="fill:#0b50a0" />
  <path
     d="m 25.841,14.834 0.355,-1.207 0.365,1.204 1.258,-0.036 -1.032,0.72 0.422,1.185 -1.003,-0.76 -0.997,0.769 0.412,-1.189 -1.038,-0.711 z m 3.681,0 0.354,-1.207 0.366,1.204 1.258,-0.036 -1.033,0.72 0.423,1.185 -1.004,-0.76 -0.996,0.769 0.412,-1.189 -1.039,-0.711 z"
     id="path16"
     inkscape:connector-curvature="0"
     style="fill:#059334" />
  <path
     d="m 27.682,16.994 0.354,-1.208 0.366,1.205 1.258,-0.035 -1.033,0.719 0.423,1.185 -1.003,-0.758 -0.998,0.767 0.413,-1.188 -1.039,-0.712 z"
     id="path18"
     inkscape:connector-curvature="0"
     style="fill:#059334" />
  <path
     d="m 25.184,11.098 c 0.25,-0.205 0.48,0.12 0.521,0.32 0.04,0.2 0.28,0.48 0.52,0.48 0,0 0.16,-0.48 0.28,-0.72 0.12,-0.24 0.44,-0.32 0.641,-0.24 0.2,0.08 0.56,0.04 0.52,0.4 -0.04,0.36 -0.16,0.52 -0.16,0.52 0,0 0.72,0.04 1.04,0 0.32,-0.04 0.681,-0.24 0.921,-0.12 0.239,0.12 0.6,0.16 0.72,0.08 0.12,-0.08 0.2,-0.32 -0.08,-0.28 -0.28,0.041 -0.52,0.041 -0.76,0.081 -0.24,0.039 -1.28,0.08 -1.28,-0.24 0,-0.32 0.399,-0.36 0.479,-0.32 0.081,0.04 0.681,-0.4 0.801,-0.2 0.12,0.2 0.12,0.44 -0.24,0.44 -0.36,0 -0.881,-0.08 -0.881,0.04 0,0.12 0.161,0.2 0.401,0.2 0.239,0 0.64,-0.16 0.919,-0.16 0.28,0 0.681,-0.32 0.92,-0.12 0.24,0.2 0.44,0.48 0.24,0.6 -0.199,0.12 -0.92,0.16 -1.16,0.12 0,0 0.28,0.16 0.521,0.2 0.24,0.041 0.72,0.12 0.681,0.36 -0.041,0.24 0.079,0.56 -0.24,0.52 -0.32,-0.04 -0.28,-0.2 -0.2,-0.32 0.08,-0.12 -0.12,-0.24 -0.48,-0.2 -0.359,0.04 -0.8,-0.16 -0.8,-0.16 0,0 -0.12,0.32 0.04,0.4 0,0 -0.48,0.2 -0.76,0.24 -0.28,0.04 -0.56,0.16 -0.56,0 0,-0.16 0.2,-0.4 0.36,-0.32 0.16,0.08 0.439,-0.041 0.521,-0.041 0.079,0 -0.281,-0.24 -0.081,-0.32 0.2,-0.08 -0.159,-0.12 -0.359,0 -0.2,0.12 -1.4,0.44 -1.801,0.6 -0.399,0.16 -0.76,0.12 -0.92,0.2 -0.16,0.08 -0.479,-0.12 -0.32,-0.32 0.16,-0.2 0.24,-0.32 0.36,-0.2 0.12,0.12 0.32,0.08 0.6,0 0.28,-0.08 -0.159,-0.16 -0.239,-0.24 -0.08,-0.08 -0.4,-0.56 -0.4,-0.68 -0.005,-0.12 -0.725,-0.24 -0.285,-0.6 z m 1.483,-3.019 c -0.24,-0.36 -0.96,-0.84 -0.96,-0.84 l 0.68,0.2 c 0,0 -0.32,-0.44 -0.68,-0.52 0.079,0 0.72,0.08 0.919,0.24 0,0 -0.56,-0.64 -0.84,-0.76 0,0 0.681,0.2 0.921,0.44 l -0.28,-0.6 c 0,0 0.52,0.24 0.68,0.56 0,0 -0.16,-0.64 -0.48,-0.96 0,0 0.48,0.281 0.642,0.52 l 0.118,-0.571 0.353,0.318 0.241,-0.444 0.282,0.459 0.485,-0.503 c 0,0 -0.12,0.39 -0.16,0.751 0,0 0.2,-0.325 0.64,-0.485 0,0 -0.56,0.858 -0.64,1.178 0,0 0.8,-0.792 1.32,-0.992 0,0 -0.721,0.845 -0.92,1.165 0,0 0.6,-0.518 1.159,-0.678 0,0 -0.72,0.761 -0.84,0.921 0,0 0.4,-0.16 0.92,-0.12 0,0 -1.199,0.68 -1.479,0.92 -0.281,0.24 -2.081,-0.199 -2.081,-0.199 z"
     id="path20"
     inkscape:connector-curvature="0"
     style="fill:#f9d050" />
  <path
     d="m 26.098,9.844 c -0.432,0.079 -0.55,0.315 -0.511,0.551 0.039,0.236 0.315,0.432 0.589,0.314 0.275,-0.118 0.402,-0.176 0.512,-0.196 0.267,-0.049 0.629,-0.157 0.629,-0.157 0,0 0.433,0.078 0.669,0 0,0 0.432,0.196 0.786,0.039 0,0 0.865,0.393 1.258,0.236 C 30.423,10.474 30.102,9.947 29.912,9.884 29.558,9.766 28.693,9.648 28.024,9.609 27.356,9.569 26.098,9.844 26.098,9.844 Z"
     id="path22"
     inkscape:connector-curvature="0"
     style="fill:#ffffff" />
  <path
     d="M 29.947,9.879 C 29.8,9.83 29.564,9.78 29.292,9.736 c 0,0 0.055,0.222 0.095,0.462 0.027,0.161 0.036,0.339 0.123,0.439 0.205,0.065 0.413,0.058 0.558,0 0.399,-0.158 0.073,-0.694 -0.121,-0.758 z M 27.604,9.606 c 0.123,0.144 0.199,0.521 0.371,0.757 0.062,0.038 0.458,0.214 0.795,0.044 C 28.807,10.34 28.49,9.636 28.49,9.636 28.331,9.62 27.757,9.595 27.604,9.606 Z m -0.86,0.896 c 0.061,0.037 0.543,-0.105 0.543,-0.138 -0.006,-0.063 -0.06,-0.15 -0.139,-0.326 -0.065,-0.142 -0.15,-0.258 -0.241,-0.353 -0.395,0.06 -0.733,0.13 -0.817,0.148 0.168,0.286 0.353,0.489 0.654,0.669 z"
     id="path24"
     inkscape:connector-curvature="0"
     style="fill:#073163" />
  <path
     d="m 24.787,8.239 c 0,0 0.12,-0.441 0.64,-0.441 0.52,0 0.28,0.32 0.88,0.36 0.601,0.04 2.721,0.32 3.04,0.48 0.32,0.16 0.721,0.12 0.92,0.08 0.2,-0.041 0.041,0.2 -0.159,0.32 -0.2,0.12 -0.601,0.04 -0.601,0.04 0,0 0.441,0.4 0.561,0.68 0.12,0.28 0,0.4 -0.2,0.28 -0.2,-0.12 -0.44,0.12 -0.481,-0.04 -0.04,-0.16 -0.439,-0.72 -0.439,-0.72 0,0 -1.16,-0.16 -1.48,0.12 -0.319,0.28 -0.712,0.384 -1.36,0.32 -0.399,-0.04 -0.64,-0.24 -0.559,-0.48 0.08,-0.24 0.279,-0.32 0.279,-0.32 0,0 -0.04,-0.48 -0.199,-0.36 -0.16,0.12 -0.521,0.04 -0.561,-0.04 C 25.027,8.439 24.787,8.239 24.787,8.239 Z"
     id="path26"
     inkscape:connector-curvature="0"
     style="fill:#059334" />
  <path
     d="m 26.066,8.079 c 0.172,-0.103 1,-0.48 1.641,-0.44 0.64,0.04 1.04,0.2 1.479,0.44 0.441,0.24 0.4,0.44 0.641,0.52 0.24,0.08 0.12,0.2 0,0.32 -0.12,0.12 -0.521,0.8 -1.801,0.76 -1.28,-0.04 -1.4,-0.4 -1.6,-0.56 -0.2,-0.16 -0.32,-0.56 -0.32,-0.68 0,-0.12 -0.239,-0.241 -0.04,-0.36 z"
     id="path28"
     inkscape:connector-curvature="0"
     style="fill:#059334" />
  <path
     d="M 28.467,9.279 C 28.901,9.16 29.489,9.003 29.775,8.577 29.591,8.486 29.591,8.299 29.187,8.079 28.748,7.839 28.347,7.679 27.708,7.639 27.256,7.61 26.709,7.79 26.367,7.935 c -0.019,0.283 -0.019,0.624 -0.019,0.624 0,0 0.36,0.2 0.64,0.44 0.279,0.24 1.038,0.4 1.479,0.28 z"
     id="path30"
     inkscape:connector-curvature="0"
     style="fill:#00493d" />
  <path
     d="M 19,13 19,0 4,0 C 3.68,0 3.396,0.045 3.396,0.045 L 3.392,1.799 0.662,1.795 C 0.662,1.795 0.62,1.854 0.535,2 0.195,2.589 0,3.272 0,4 l 0,9 19,0 z"
     id="path32"
     inkscape:connector-curvature="0"
     style="fill:#00247d" />
  <path
     d="M 19,0 16.669,0 12,3.269 12,0 7,0 7,2.569 3.396,0.045 C 2.782,0.139 2.206,0.37 1.724,0.71 L 6.426,4 4.69,4 0.967,1.391 C 0.857,1.52 0.756,1.653 0.662,1.795 L 3.813,4 0,4 0,9 3.885,9 0,11.766 0,13 3.332,13 7,10.432 7,13 12,13 12,9.731 16.668,13 19,13 19,10.971 16.185,9 19,9 19,4 16.186,4 19,2.029 19,0 Z"
     id="path34"
     inkscape:connector-curvature="0"
     style="fill:#eeeeee" />
  <path
     d="m 11,0 -3,0 0,5 -8,0 0,3 8,0 0,5 3,0 0,-5 8,0 0,-3 -8,0 z"
     id="path36"
     inkscape:connector-curvature="0"
     style="fill:#cf1b2b" />
  <path
     d="M 19,0 17.539,0 12,3.879 12,4 13.571,4 19,0.198 Z M 1.724,0.71 C 1.443,0.905 1.19,1.133 0.967,1.391 L 4.69,4 6.425,4 1.724,0.71 Z M 6.437,9 0.734,13 2.461,13 7,9.822 7,9 Z M 19,12.802 19,11.582 15.313,9 13.57,9 Z"
     id="path38"
     inkscape:connector-curvature="0"
     style="fill:#cf1b2b" />
</svg>
