<?xml version="1.0" encoding="UTF-8" standalone="no"?>
<svg
   xmlns:dc="http://purl.org/dc/elements/1.1/"
   xmlns:cc="http://creativecommons.org/ns#"
   xmlns:rdf="http://www.w3.org/1999/02/22-rdf-syntax-ns#"
   xmlns:svg="http://www.w3.org/2000/svg"
   xmlns="http://www.w3.org/2000/svg"
   xmlns:sodipodi="http://sodipodi.sourceforge.net/DTD/sodipodi-0.dtd"
   xmlns:inkscape="http://www.inkscape.org/namespaces/inkscape"
   viewBox="0 0 36 26"
   id="svg2"
   version="1.1"
   inkscape:version="0.91 r13725"
   sodipodi:docname="1f1fb-1f1ea.svg"
   width="36"
   height="26">
  <metadata
     id="metadata16">
    <rdf:RDF>
      <cc:Work
         rdf:about="">
        <dc:format>image/svg+xml</dc:format>
        <dc:type
           rdf:resource="http://purl.org/dc/dcmitype/StillImage" />
      </cc:Work>
    </rdf:RDF>
  </metadata>
  <defs
     id="defs14" />
  <sodipodi:namedview
     pagecolor="#ffffff"
     bordercolor="#666666"
     borderopacity="1"
     objecttolerance="10"
     gridtolerance="10"
     guidetolerance="10"
     inkscape:pageopacity="0"
     inkscape:pageshadow="2"
     inkscape:window-width="640"
     inkscape:window-height="480"
     id="namedview12"
     showgrid="false"
     inkscape:zoom="6.5555556"
     inkscape:cx="18"
     inkscape:cy="13"
     inkscape:window-x="0"
     inkscape:window-y="0"
     inkscape:window-maximized="0"
     inkscape:current-layer="svg2" />
  <path
     d="m 0,22 c 0,2.209 1.791,4 4,4 l 28,0 c 2.209,0 4,-1.791 4,-4 l 0,-4 -36,0 0,4 z"
     id="path4"
     inkscape:connector-curvature="0"
     style="fill:#cf142b" />
  <path
     d="M 0,18 36,18 36,8 0,8 0,18 Z m 25.316,-3.55 0.269,0.74 0.787,-0.027 -0.62,0.485 0.269,0.74 -0.653,-0.44 -0.62,0.485 0.217,-0.757 -0.653,-0.44 0.787,-0.027 0.217,-0.759 z m -1.216,-1.665 0.73,-0.295 -0.417,0.667 0.506,0.603 -0.764,-0.19 -0.417,0.667 -0.055,-0.785 -0.764,-0.19 0.73,-0.295 -0.055,-0.785 0.506,0.603 z m -2.9,-2.145 0.682,0.394 0.585,-0.527 -0.164,0.77 0.682,0.394 -0.783,0.082 -0.164,0.77 -0.32,-0.719 -0.783,0.082 0.585,-0.527 -0.32,-0.719 z m -2.002,-0.493 0.37,-0.695 0.11,0.779 0.775,0.137 -0.707,0.345 0.11,0.779 -0.547,-0.566 -0.709,0.345 0.37,-0.695 -0.547,-0.566 0.775,0.137 z m -2.875,0.084 0.11,-0.779 0.37,0.695 0.775,-0.137 -0.547,0.566 0.37,0.695 -0.707,-0.345 -0.547,0.566 0.11,-0.779 -0.707,-0.345 0.773,-0.137 z m -2.789,0.276 0.585,0.527 0.681,-0.394 -0.32,0.719 0.585,0.527 -0.783,-0.082 -0.32,0.719 -0.164,-0.77 -0.783,-0.082 0.682,-0.394 -0.163,-0.77 z m -2.364,1.983 0.73,0.295 0.506,-0.603 -0.055,0.785 0.73,0.295 -0.764,0.19 -0.055,0.785 -0.417,-0.667 -0.764,0.19 0.506,-0.603 -0.417,-0.667 z m -0.756,2.699 0.269,-0.74 0.217,0.757 0.787,0.027 -0.653,0.44 0.217,0.757 -0.62,-0.485 -0.653,0.44 0.269,-0.74 -0.62,-0.485 0.787,0.029 z"
     id="path6"
     inkscape:connector-curvature="0"
     style="fill:#00247d" />
  <path
     d="M 32,0 4,0 C 1.791,0 0,1.791 0,4 L 0,8 36,8 36,4 C 36,1.791 34.209,0 32,0 Z"
     id="path8"
     inkscape:connector-curvature="0"
     style="fill:#ffcc00" />
  <path
     d="m 18.6,11.271 0.707,-0.345 0.547,0.566 -0.11,-0.779 0.708,-0.345 -0.775,-0.137 -0.11,-0.779 -0.369,0.695 -0.776,-0.137 0.547,0.566 z m 3.118,0.532 0.32,0.719 0.163,-0.769 0.783,-0.083 -0.681,-0.393 0.163,-0.77 -0.585,0.526 -0.681,-0.393 0.32,0.719 -0.585,0.527 z m 1.201,1.459 0.764,0.19 0.055,0.785 0.417,-0.667 0.763,0.19 -0.506,-0.603 0.418,-0.667 -0.73,0.295 -0.506,-0.603 0.055,0.785 z m 2.046,2.412 -0.217,0.756 0.621,-0.484 0.652,0.44 -0.269,-0.74 0.62,-0.484 -0.786,0.027 -0.27,-0.739 -0.217,0.756 -0.786,0.028 z m -8.819,-4.182 0.547,-0.566 0.707,0.345 -0.369,-0.695 0.547,-0.566 -0.776,0.137 -0.369,-0.695 -0.11,0.779 -0.775,0.137 0.708,0.345 z m -2.347,0.261 0.163,0.769 0.32,-0.719 0.783,0.083 -0.585,-0.527 0.32,-0.719 -0.681,0.393 -0.585,-0.526 0.163,0.77 -0.681,0.393 z m -1.954,1.817 0.417,0.667 0.055,-0.785 0.764,-0.19 -0.73,-0.295 0.055,-0.785 -0.506,0.603 -0.73,-0.295 0.418,0.667 -0.506,0.603 z m -1.866,2.816 0.652,-0.44 0.621,0.484 -0.217,-0.756 0.652,-0.44 -0.786,-0.028 -0.217,-0.756 -0.27,0.739 -0.786,-0.027 0.62,0.484 z"
     id="path10"
     inkscape:connector-curvature="0"
     style="fill:#ffffff" />
</svg>
