<?xml version="1.0" encoding="UTF-8" standalone="no"?>
<svg
   xmlns:dc="http://purl.org/dc/elements/1.1/"
   xmlns:cc="http://creativecommons.org/ns#"
   xmlns:rdf="http://www.w3.org/1999/02/22-rdf-syntax-ns#"
   xmlns:svg="http://www.w3.org/2000/svg"
   xmlns="http://www.w3.org/2000/svg"
   xmlns:sodipodi="http://sodipodi.sourceforge.net/DTD/sodipodi-0.dtd"
   xmlns:inkscape="http://www.inkscape.org/namespaces/inkscape"
   viewBox="0 0 36 26"
   id="svg2"
   version="1.1"
   inkscape:version="0.91 r13725"
   sodipodi:docname="1f1fb-1f1ee.svg"
   width="36"
   height="26">
  <metadata
     id="metadata22">
    <rdf:RDF>
      <cc:Work
         rdf:about="">
        <dc:format>image/svg+xml</dc:format>
        <dc:type
           rdf:resource="http://purl.org/dc/dcmitype/StillImage" />
      </cc:Work>
    </rdf:RDF>
  </metadata>
  <defs
     id="defs20" />
  <sodipodi:namedview
     pagecolor="#ffffff"
     bordercolor="#666666"
     borderopacity="1"
     objecttolerance="10"
     gridtolerance="10"
     guidetolerance="10"
     inkscape:pageopacity="0"
     inkscape:pageshadow="2"
     inkscape:window-width="640"
     inkscape:window-height="480"
     id="namedview18"
     showgrid="false"
     inkscape:zoom="6.5555556"
     inkscape:cx="18"
     inkscape:cy="13"
     inkscape:window-x="0"
     inkscape:window-y="0"
     inkscape:window-maximized="0"
     inkscape:current-layer="svg2" />
  <path
     d="m 36,22 c 0,2.209 -1.791,4 -4,4 L 4,26 C 1.791,26 0,24.209 0,22 L 0,4 C 0,1.791 1.791,0 4,0 l 28,0 c 2.209,0 4,1.791 4,4 l 0,18 z"
     id="path4"
     inkscape:connector-curvature="0"
     style="fill:#eeeeee" />
  <path
     d="m 13,19.812 c 0,0 -0.188,0.126 -0.375,0.084 -0.187,-0.042 -0.458,0.009 -0.458,0.009 l -1.613,-2.777 c 0,0 -0.866,0.81 -1.658,0.102 0.417,0.125 0.916,-0.709 1.521,-0.354 C 9.854,16.354 8.771,17.271 8.229,16 c 0.75,0.459 1.188,-0.271 1.875,0.188 -0.667,-0.75 -1.646,0.069 -2.042,-0.944 0.604,0.216 1.104,-0.444 1.646,0 -0.458,-0.931 -1.854,0.361 -2.125,-1.201 0.604,0.312 1.271,-0.083 1.646,0.229 -0.708,-1.354 -1.354,0.207 -1.958,-1.771 0.417,0.583 1,0.021 1.604,0.938 -0.438,-1.667 -1.625,-0.271 -2,-2.229 0.75,-0.25 1.062,0.854 1.667,1.083 C 8.167,11 7.375,11.375 7.854,9.854 8.937,10.396 8.458,11.312 8.812,12.375 9.083,12 8.729,11.521 8.917,11.188 c 0.188,-0.333 0.292,-0.5 0.229,-0.667 0.979,1.125 -0.209,2.083 -0.104,2.479 0.104,0.396 0.271,0.542 0.271,0.542 0,0 -0.104,-0.604 0.104,-0.958 0.208,-0.354 0.542,-0.479 0.521,-0.792 0.229,0.271 0.146,0.896 -0.125,1.208 -0.271,0.312 -0.313,1.084 -0.146,1.354 -0.064,-0.845 0.688,-0.792 0.563,-1.646 0.417,0.083 0.564,1.042 0.104,1.396 -0.459,0.354 -0.104,1.333 -0.104,1.333 0,0 0.021,-0.624 0.271,-0.916 0.25,-0.292 0.396,-0.605 0.333,-0.896 0.333,0.271 0.375,1.042 0.146,1.417 -0.229,0.375 -0.583,0.583 -0.229,1.188 -0.042,-1.104 0.708,-0.896 0.688,-1.604 0.438,0.334 0.188,1.043 -0.062,1.271 -0.25,0.228 -0.208,0.75 -0.208,0.75 0,0 0.271,-0.376 0.479,-0.521 C 11.856,15.981 12,15.562 12,15.562 c 0,0 0.258,1.299 -0.562,1.354 -0.021,0.605 1.145,2.396 1.562,2.896 z"
     id="path6"
     inkscape:connector-curvature="0"
     style="fill:#379543" />
  <path
     d="m 27.35,14.129 0.43,0.21 -2.356,2.791 2.196,-4.172 0.324,0.456 0.618,-2.766 -1.803,2.054 0.468,0.104 -1.644,3.088 0.521,-2.186 0.417,0.375 0,-2.833 -1.313,2.396 0.48,0 -0.925,3.789 -0.487,0.915 -0.56,0.216 -0.227,0.398 -0.159,0.021 -1.834,1.955 0.924,0.006 0.184,0.908 0.782,-0.933 -0.282,0.912 0.834,-0.399 0.562,0.733 0.646,-2.584 -0.295,-0.558 -0.008,-0.026 0.164,-0.69 3.121,-3.732 0.209,0.518 1.242,-2.547 z m -23.704,-4.067 -1.917,0 c 0,0 0.417,0.083 0.604,0.521 0.187,0.438 1.361,3.882 1.458,4.296 0.146,0.62 -0.312,0.745 -0.312,0.745 l 1.896,0 c 0,0 -0.542,-0.095 -0.375,-0.745 C 5.167,14.229 6.271,11 6.396,10.604 6.521,10.208 6.875,10.062 6.875,10.062 l -1.896,0 c 0,0 0.646,0.144 0.458,0.666 -0.188,0.521 -1.021,3.313 -1.021,3.313 0,0 -0.938,-2.793 -1.104,-3.313 -0.166,-0.52 0.334,-0.666 0.334,-0.666 z m 30.198,0 -1.75,0 c 0,0 0.34,0.234 0.34,0.688 0,0.461 -0.012,3.933 -0.012,4.266 0,0.438 -0.4,0.609 -0.4,0.609 l 1.895,0 c 0,0 -0.509,-0.266 -0.509,-0.641 l 0,-4.336 c -0.001,-0.398 0.436,-0.586 0.436,-0.586 z"
     id="path8"
     inkscape:connector-curvature="0"
     style="fill:#0081c7" />
  <path
     d="M 32.998,3.479 C 32.508,3.541 30.926,4.396 28.029,4.958 27.862,4.833 27.55,4.896 27.05,5.125 26.55,5.354 24.154,6.021 23.488,6.271 22.822,6.521 22.47,7.037 22.55,7.479 22.696,8.271 23.279,8.396 23.071,8.625 22.863,8.854 22.238,8.313 21.821,8.563 21.606,8.692 20.405,8.401 20.376,8.271 20.272,7.813 19.814,7.417 19.814,7.417 c 0,0 0.354,-0.062 0.438,-0.208 C 19.668,6.876 19.294,6.23 19.294,6.23 c 0,0 0.375,0.167 0.5,0 C 19.315,5.792 19.356,4.792 19.127,4.355 18.898,3.918 18.627,3.584 18.069,3.563 17.511,3.542 17.294,3.584 16.96,4.021 16.71,4 16.66,4.292 16.66,4.292 c 0,0 -0.221,0.021 -0.575,0.083 -0.354,0.062 -0.583,0.5 -0.438,0.896 C 15.73,5.042 16.189,5 16.564,4.959 c 0.375,-0.041 0.646,0.417 0.5,0.562 -0.146,0.145 -0.188,0.333 -0.271,0.688 -0.083,0.355 -0.698,0.521 -0.698,0.521 0,0 0.177,0.188 0.448,0.167 -0.146,0.229 -0.583,0.542 -0.896,0.583 0.188,0.229 0.479,0.188 0.479,0.188 0,0 -0.167,0.458 -0.479,0.729 0,0 -1.159,0.296 -1.375,0.167 C 13.855,8.314 13.23,8.856 13.022,8.626 12.814,8.396 13.397,8.272 13.543,7.48 13.624,7.038 13.272,6.522 12.605,6.272 11.938,6.022 9.543,5.355 9.043,5.126 8.543,4.897 8.229,4.833 8.062,4.958 5.167,4.396 3.583,3.542 3.094,3.479 2.605,3.416 2.458,4.229 3.187,4.562 2.979,4.791 3.104,5.416 3.729,5.458 3.479,5.729 3.791,6.291 4.917,6.541 4.771,6.833 5.084,7.52 6.438,7.749 6.292,8.166 6.75,8.603 7.771,8.728 7.583,9.02 7.938,9.478 8.917,9.582 c -0.312,0.479 0.521,0.812 1.583,0.792 -0.354,0.208 -0.208,0.792 0.292,0.896 -0.167,0.333 0.292,0.896 0.833,0.812 0.042,0.271 0.417,0.479 0.771,0.229 0,0.354 0.771,0.75 1,0.292 0.176,0.175 0.675,0.286 1.015,-0.056 0.015,0.083 0.035,0.164 0.056,0.245 -0.14,0.414 -0.438,0.858 -0.926,1.228 -0.521,0.396 -0.791,1.041 -0.771,1.458 0.02,0.417 -0.146,0.729 -0.396,0.833 l 0.229,0.084 c 0,0 -0.375,0.499 -0.583,0.541 -0.208,0.042 -1.208,-0.083 -1.396,0.104 -0.188,0.187 -0.562,0.937 -0.312,1.083 0.25,0.146 0.354,0.396 0.5,0.542 0.146,0.146 0.937,-0.084 1.104,-0.229 0.167,-0.145 0.146,-0.875 0.292,-0.958 0.146,-0.083 1.521,-0.708 1.521,-0.708 l 0.021,0.312 c 0,0 0.229,-0.271 0.417,-0.354 0.188,-0.083 0.229,-0.479 0.333,-0.667 0.096,-0.173 0.778,-0.781 1.698,-0.975 0.116,0.067 -0.073,0.204 -0.073,0.204 -0.366,-0.081 -0.521,0.396 -0.5,0.583 -0.396,0.042 -1.313,1.312 -1.458,1.75 -0.145,0.438 -0.021,0.626 0.167,0.604 -0.021,0.312 0.229,0.573 0.5,0.484 0.021,0.328 0.208,0.537 0.438,0.516 0.042,0.354 0.25,0.562 0.5,0.5 0.042,0.354 0.312,0.542 0.667,0.438 0.021,0.479 0.375,0.937 0.875,0.416 0.083,0.959 1.271,1.273 1.396,0.063 0.437,0.396 1,0.188 1,-0.479 0.25,0.188 0.604,-0.062 0.625,-0.438 0.25,0.104 0.459,-0.146 0.459,-0.562 0.271,0.146 0.459,-0.155 0.438,-0.474 0.291,0.099 0.562,-0.192 0.5,-0.526 0.271,0.104 0.457,-0.324 0.125,-0.854 -0.521,-0.833 -1.334,-1.438 -1.334,-1.438 0,0 0.126,-0.496 -0.541,-0.592 -0.09,-0.013 -0.189,-0.135 -0.09,-0.193 0.914,0.197 1.589,0.8 1.685,0.972 0.104,0.188 0.146,0.584 0.333,0.667 0.187,0.083 0.417,0.354 0.417,0.354 l 0.021,-0.312 c 0,0 1.375,0.625 1.521,0.708 0.144,0.083 0.125,0.812 0.291,0.958 0.168,0.146 0.959,0.375 1.104,0.229 0.145,-0.146 0.25,-0.396 0.5,-0.542 0.25,-0.146 -0.125,-0.896 -0.312,-1.083 -0.187,-0.187 -1.188,-0.062 -1.396,-0.104 -0.209,-0.042 -0.584,-0.541 -0.584,-0.541 l 0.229,-0.084 c -0.25,-0.104 -0.417,-0.416 -0.396,-0.833 0.019,-0.417 -0.25,-1.062 -0.771,-1.458 -0.477,-0.363 -0.772,-0.795 -0.915,-1.203 0.023,-0.09 0.047,-0.178 0.064,-0.27 0.34,0.341 0.84,0.23 1.015,0.055 0.229,0.458 1,0.062 1,-0.292 0.354,0.25 0.73,0.042 0.771,-0.229 0.541,0.083 1,-0.479 0.833,-0.812 0.5,-0.104 0.646,-0.688 0.292,-0.896 1.062,0.021 1.896,-0.312 1.583,-0.792 0.979,-0.104 1.333,-0.563 1.146,-0.854 1.021,-0.125 1.48,-0.562 1.334,-0.979 1.354,-0.229 1.666,-0.917 1.521,-1.208 1.125,-0.25 1.438,-0.812 1.188,-1.083 0.625,-0.042 0.751,-0.667 0.542,-0.896 0.725,-0.331 0.578,-1.143 0.09,-1.081 z"
     id="path10"
     inkscape:connector-curvature="0"
     style="fill:#f4c63d" />
  <path
     d="m 13.805,10.501 c 0.01,1.006 0.244,1.883 0.602,2.646 0.207,0.441 0.454,0.845 0.727,1.21 l 0.605,0.717 c 0.22,0.232 0.446,0.442 0.671,0.635 l 0.605,0.481 c 0.258,0.191 0.505,0.358 0.727,0.497 0.107,0.067 0.209,0.13 0.303,0.186 0.094,-0.056 0.196,-0.119 0.303,-0.186 0.205,-0.13 0.432,-0.282 0.67,-0.456 l 0.606,-0.474 c 0.244,-0.207 0.491,-0.436 0.73,-0.688 l 0.605,-0.717 c 0.273,-0.364 0.518,-0.767 0.725,-1.207 0.359,-0.763 0.593,-1.64 0.602,-2.646 l -8.481,0 z"
     id="path12"
     inkscape:connector-curvature="0"
     style="fill:#ffffff" />
  <path
     d="m 14.407,10.501 0,2.646 c 0.207,0.441 0.454,0.845 0.727,1.21 l 0,-3.857 0.605,0 0,4.573 c 0.22,0.232 0.446,0.442 0.671,0.635 l 0,-5.209 0.605,0 0,5.69 c 0.258,0.191 0.505,0.358 0.727,0.497 l 0,-6.188 0.605,0 0,6.188 c 0.205,-0.13 0.432,-0.282 0.67,-0.456 l 0,-5.732 0.606,0 0,5.258 c 0.244,-0.207 0.491,-0.436 0.73,-0.688 l 0,-4.57 0.605,0 0,3.853 c 0.273,-0.364 0.518,-0.767 0.725,-1.207 l 0,-2.646 -7.276,0 z"
     id="path14"
     inkscape:connector-curvature="0"
     style="fill:#a70033" />
  <path
     d="m 18.046,7.521 c 0,0 -1.043,0.544 -2.182,0.544 -1.139,0 -2.062,-0.523 -2.062,-0.523 l 0,2.896 c 0,0.1 0.01,0.194 0.014,0.291 l 8.46,0 c 0.005,-0.097 0.015,-0.191 0.015,-0.291 l 0,-2.896 c 0,0 -0.924,0.523 -2.062,0.523 -1.14,0 -2.183,-0.544 -2.183,-0.544 z"
     id="path16"
     inkscape:connector-curvature="0"
     style="fill:#172668" />
</svg>
