<?xml version="1.0" encoding="UTF-8" standalone="no"?>
<svg
   xmlns:dc="http://purl.org/dc/elements/1.1/"
   xmlns:cc="http://creativecommons.org/ns#"
   xmlns:rdf="http://www.w3.org/1999/02/22-rdf-syntax-ns#"
   xmlns:svg="http://www.w3.org/2000/svg"
   xmlns="http://www.w3.org/2000/svg"
   xmlns:sodipodi="http://sodipodi.sourceforge.net/DTD/sodipodi-0.dtd"
   xmlns:inkscape="http://www.inkscape.org/namespaces/inkscape"
   viewBox="0 0 36 26"
   id="svg2"
   version="1.1"
   inkscape:version="0.91 r13725"
   sodipodi:docname="1f1f4-1f1f2.svg"
   width="36"
   height="26">
  <metadata
     id="metadata20">
    <rdf:RDF>
      <cc:Work
         rdf:about="">
        <dc:format>image/svg+xml</dc:format>
        <dc:type
           rdf:resource="http://purl.org/dc/dcmitype/StillImage" />
      </cc:Work>
    </rdf:RDF>
  </metadata>
  <defs
     id="defs18" />
  <sodipodi:namedview
     pagecolor="#ffffff"
     bordercolor="#666666"
     borderopacity="1"
     objecttolerance="10"
     gridtolerance="10"
     guidetolerance="10"
     inkscape:pageopacity="0"
     inkscape:pageshadow="2"
     inkscape:window-width="640"
     inkscape:window-height="480"
     id="namedview16"
     showgrid="false"
     inkscape:zoom="6.5555556"
     inkscape:cx="18"
     inkscape:cy="13"
     inkscape:window-x="0"
     inkscape:window-y="0"
     inkscape:window-maximized="0"
     inkscape:current-layer="svg2" />
  <path
     d="m 8,26 24,0 c 2.209,0 4,-1.791 4,-4 l 0,-4 -28,0 0,8 z"
     id="path4"
     inkscape:connector-curvature="0"
     style="fill:#008000" />
  <path
     d="M 32,0 8,0 8,8 36,8 36,4 C 36,1.791 34.209,0 32,0 Z"
     id="path6"
     inkscape:connector-curvature="0"
     style="fill:#eeeeee" />
  <path
     d="M 36,8 9,8 9,0 4,0 C 1.791,0 0,1.791 0,4 l 0,18 c 0,2.209 1.791,4 4,4 l 5,0 0,-8 27,0 0,-10 z"
     id="path8"
     inkscape:connector-curvature="0"
     style="fill:#db161b" />
  <g
     id="g10"
     style="fill:#eeeeee"
     transform="translate(0,-5)">
    <path
       d="M 3.625,8.453 C 3.938,9.02 3.938,9.242 3.847,9.292 3.757,9.342 3.609,9.202 3.297,8.635 2.984,8.068 2.625,7.29 2.715,7.24 2.806,7.189 3.312,7.887 3.625,8.453 Z M 5.516,8.104 C 5.203,8.671 5.023,9.171 5.114,9.221 5.204,9.271 5.531,8.852 5.844,8.286 6.156,7.719 6.337,7.219 6.246,7.169 6.155,7.119 5.828,7.538 5.516,8.104 Z M 4.953,9.016 4.656,7.594 4.628,7.588 C 4.731,7.539 4.812,7.462 4.812,7.351 c 0,-0.16 -0.147,-0.289 -0.328,-0.289 -0.181,0 -0.328,0.13 -0.328,0.29 0,0.108 0.075,0.193 0.175,0.243 L 4.047,9.031 4.953,9.016 Z"
       id="path12"
       inkscape:connector-curvature="0" />
    <path
       d="M 6.703,11.766 C 6.432,11.54 5.354,10.607 4.842,10.05 4.888,9.89 4.915,9.718 4.904,9.534 l 0.017,0 0,0.008 0.891,0 0,0.172 1.094,0 0,-0.531 -1.094,0 0,0.172 -0.89,0 0,0.008 -0.031,0 0,-0.269 -0.813,0 0,0.269 -0.328,0 0,0.016 -0.641,0 0,-0.22 -1.031,0 0,0.578 1.031,0 0,-0.218 0.641,0 0,0.016 0.276,0 -0.036,0.374 c 0,0 -1.039,0.046 -1.318,0.091 -0.688,0.109 -0.469,0.312 0.094,0.5 0.259,0.086 0.517,0.12 0.761,0.133 -0.397,0.424 -1.207,1.053 -1.402,1.164 -0.219,0.125 -0.219,0.281 0.203,0.188 0.409,-0.091 1.355,-0.926 1.684,-1.348 l 0.285,-0.012 c 0.15,-0.006 0.269,-0.1 0.369,-0.224 0.427,0.505 1.264,1.254 1.6,1.458 0.359,0.219 0.527,0.214 0.654,0.193 C 7.047,12.031 6.984,12 6.703,11.766 Z"
       id="path14"
       inkscape:connector-curvature="0" />
  </g>
</svg>
