<?xml version="1.0" encoding="UTF-8" standalone="no"?>
<svg
   xmlns:dc="http://purl.org/dc/elements/1.1/"
   xmlns:cc="http://creativecommons.org/ns#"
   xmlns:rdf="http://www.w3.org/1999/02/22-rdf-syntax-ns#"
   xmlns:svg="http://www.w3.org/2000/svg"
   xmlns="http://www.w3.org/2000/svg"
   xmlns:sodipodi="http://sodipodi.sourceforge.net/DTD/sodipodi-0.dtd"
   xmlns:inkscape="http://www.inkscape.org/namespaces/inkscape"
   viewBox="0 0 36 26"
   id="svg2"
   version="1.1"
   inkscape:version="0.91 r13725"
   sodipodi:docname="1f1f8-1f1ff.svg"
   width="36"
   height="26">
  <metadata
     id="metadata34">
    <rdf:RDF>
      <cc:Work
         rdf:about="">
        <dc:format>image/svg+xml</dc:format>
        <dc:type
           rdf:resource="http://purl.org/dc/dcmitype/StillImage" />
      </cc:Work>
    </rdf:RDF>
  </metadata>
  <defs
     id="defs32" />
  <sodipodi:namedview
     pagecolor="#ffffff"
     bordercolor="#666666"
     borderopacity="1"
     objecttolerance="10"
     gridtolerance="10"
     guidetolerance="10"
     inkscape:pageopacity="0"
     inkscape:pageshadow="2"
     inkscape:window-width="640"
     inkscape:window-height="480"
     id="namedview30"
     showgrid="false"
     inkscape:zoom="6.5555556"
     inkscape:cx="18"
     inkscape:cy="13"
     inkscape:window-x="0"
     inkscape:window-y="0"
     inkscape:window-maximized="0"
     inkscape:current-layer="svg2" />
  <path
     d="m 36,22 c 0,2.209 -1.791,4 -4,4 L 4,26 C 1.791,26 0,24.209 0,22 L 0,4 C 0,1.791 1.791,0 4,0 l 28,0 c 2.209,0 4,1.791 4,4 l 0,18 z"
     id="path4"
     inkscape:connector-curvature="0"
     style="fill:#3e5eb9" />
  <path
     d="M 0,5 36,5 36,21 0,21 Z"
     id="path6"
     inkscape:connector-curvature="0"
     style="fill:#ffd900" />
  <path
     d="M 0,6 36,6 36,20 0,20 Z"
     id="path8"
     inkscape:connector-curvature="0"
     style="fill:#b10d0d" />
  <path
     d="m 27.513,11.779 1.562,0.594 1.531,-0.594 -1.531,-0.5 z"
     id="path10"
     inkscape:connector-curvature="0"
     style="fill:#ffffff" />
  <path
     d="m 28.531,11.8 c 0,0.155 -0.126,0.281 -0.281,0.281 l -22.469,0 C 5.626,12.081 5.5,11.955 5.5,11.8 c 0,-0.155 0.126,-0.281 0.281,-0.281 l 22.469,0 c 0.155,0 0.281,0.126 0.281,0.281 z"
     id="path12"
     inkscape:connector-curvature="0"
     style="fill:#ffd900" />
  <path
     d="m 28.513,10.779 1.562,0.594 1.531,-0.594 -1.531,-0.5 z"
     id="path14"
     inkscape:connector-curvature="0"
     style="fill:#ffffff" />
  <path
     d="m 29.531,10.8 c 0,0.155 -0.126,0.281 -0.281,0.281 l -22.469,0 C 6.626,11.081 6.5,10.955 6.5,10.8 c 0,-0.155 0.126,-0.281 0.281,-0.281 l 22.469,0 c 0.155,0 0.281,0.125 0.281,0.281 z m 4.196,2.192 c 0,0.233 -0.188,0.422 -0.422,0.422 l -30.157,0 c -0.233,0 -0.422,-0.189 -0.422,-0.422 0,-0.233 0.189,-0.422 0.422,-0.422 l 30.156,0 c 0.234,0 0.423,0.189 0.423,0.422 z"
     id="path16"
     inkscape:connector-curvature="0"
     style="fill:#ffd900" />
  <path
     d="m 27.229,13.031 c 0,0 -4.058,5.49 -9.062,5.49 -5.004,0 -9.063,-5.49 -9.063,-5.49 0,0 4.058,-5.49 9.063,-5.49 5.005,0 9.062,5.49 9.062,5.49 z"
     id="path18"
     inkscape:connector-curvature="0"
     style="fill:#ffffff" />
  <path
     d="m 18.979,17.354 c -0.438,-0.208 -1.188,-0.458 -1.167,-0.646 0.021,-0.188 0.583,-0.25 1.104,-0.312 0.521,-0.062 0.5,-0.312 0.354,-0.438 -0.146,-0.126 -0.75,-0.292 -1.104,-0.5 -0.354,-0.208 -0.021,-0.396 0.297,-0.646 0.318,-0.25 0.328,-0.541 0.328,-0.75 0,-0.209 0.25,-0.646 0.667,-0.917 0.417,-0.271 0.021,-0.312 -0.312,-0.479 -0.333,-0.167 -0.313,-0.729 -0.25,-1.146 0.063,-0.417 0.042,-0.646 -0.104,-0.667 -0.146,-0.021 -0.229,-0.146 -0.312,-0.261 -0.083,-0.115 0,-0.323 -0.312,-0.364 C 17.856,10.187 17.876,10.082 17.793,9.895 17.71,9.708 17.439,9.416 17.314,9.062 17.209,8.764 17.463,8.199 18.142,7.543 c -4.993,0.019 -9.036,5.488 -9.036,5.488 0,0 4.058,5.49 9.063,5.49 0.641,0 1.266,-0.092 1.868,-0.249 -0.143,-0.587 -0.705,-0.75 -1.058,-0.918 z"
     id="path20"
     inkscape:connector-curvature="0" />
  <path
     d="m 12.479,11.042 0.438,0 0,1.479 -0.438,0 z m 0,2.458 0.438,0 0,1.479 -0.438,0 z m 0.854,-2.458 0.438,0 0,1.479 -0.438,0 z m 0,2.458 0.438,0 0,1.479 -0.438,0 z m 0.855,-2.458 0.438,0 0,1.479 -0.438,0 z m 0,2.458 0.438,0 0,1.479 -0.438,0 z m 0.854,-2.458 0.438,0 0,1.479 -0.438,0 z m 0,2.458 0.438,0 0,1.479 -0.438,0 z m 0.854,-2.458 0.438,0 0,1.479 -0.438,0 z m 0,2.458 0.438,0 0,1.479 -0.438,0 z m 0.854,-2.458 0.438,0 0,1.479 -0.438,0 z m 0,2.458 0.438,0 0,1.479 -0.438,0 z"
     id="path22"
     inkscape:connector-curvature="0"
     style="fill:#ffffff" />
  <path
     d="m 19.229,11.042 0.438,0 0,1.479 -0.438,0 z m 0,2.458 0.438,0 0,1.479 -0.438,0 z m 0.855,-2.458 0.438,0 0,1.479 -0.438,0 z m 0,2.458 0.438,0 0,1.479 -0.438,0 z m 0.854,-2.458 0.438,0 0,1.479 -0.438,0 z m 0,2.458 0.438,0 0,1.479 -0.438,0 z m 0.853,-2.458 0.438,0 0,1.479 -0.438,0 z m 0,2.458 0.438,0 0,1.479 -0.438,0 z m 0.855,-2.458 0.438,0 0,1.479 -0.438,0 z m 0,2.458 0.438,0 0,1.479 -0.438,0 z m 0.854,-2.458 0.438,0 0,1.479 -0.438,0 z m 0,2.458 0.438,0 0,1.479 -0.438,0 z"
     id="path24"
     inkscape:connector-curvature="0" />
  <path
     d="m 15.156,8.594 c -0.4,0.265 -1.219,1.078 -1.266,1.672 0.172,-0.156 0.375,-0.188 0.375,-0.188 0,0 -0.234,0.328 -0.203,0.734 0.141,-0.156 0.281,-0.219 0.281,-0.219 0,0 0.083,0.375 0.391,0.766 0.156,-0.094 0.203,-0.25 0.203,-0.25 0,0 0.094,0.328 0.422,0.578 0.12,-0.031 0.12,-0.172 0.12,-0.172 0,0 0.193,0.406 0.99,0.578 -0.141,-0.266 0.312,-0.635 0.141,-1.052 0.14,0.083 0.281,0.286 0.281,0.286 0,0 0.14,-0.203 -0.141,-0.578 0.172,0.156 0.266,0.292 0.266,0.292 0,0 0.108,-0.651 -0.266,-1.058 0.235,0.094 0.438,0.203 0.438,0.203 0,0 -0.039,-0.787 -0.625,-1.141 C 15.812,8.594 15.156,8.922 15.156,8.594 Z m -11,4.312 c 0,0 0.359,0.328 -0.141,0.375 -0.5,0.047 -0.906,0.641 -0.891,1.234 L 3.39,14.39 c 0,0 -0.078,0.406 0.047,0.672 0.109,-0.266 0.266,-0.25 0.266,-0.25 0,0 0.031,0.391 0.094,0.688 0.125,-0.156 0.109,-0.328 0.109,-0.328 0,0 0.188,0.062 0.281,0.328 0.093,0.266 0.141,0.469 0.359,0.594 0.094,-0.047 0.141,-0.172 0.141,-0.172 0,0 0.188,0.156 0.484,0.281 -0.062,-0.422 0.344,-0.375 0.516,-0.672 0.062,0.078 0.078,0.234 0.078,0.234 0,0 0.125,-0.234 0.125,-0.469 0,-0.235 0.141,-0.422 0.141,-0.422 0,0 0.016,0.109 0,0.281 0.141,-0.078 0.172,-0.969 0.109,-1.25 0.094,0.078 0.172,0.25 0.172,0.25 0,0 0.109,-0.453 0,-0.742 C 6.203,13.124 5.89,12.889 5.5,13.03 5.109,13.171 4.531,12.796 4.531,12.796 c 0,0 0.094,0.234 -0.031,0.312 C 4.375,13.186 4.484,12.984 4.156,12.906 Z M 31.547,12.75 c 0,0 -0.312,0.109 -0.812,0.578 -0.5,0.469 -0.656,1.266 -0.656,1.266 0,0 0.281,-0.234 0.391,-0.266 -0.266,0.609 0.25,0.891 0.172,1.375 0.203,-0.031 0.391,-0.391 0.391,-0.391 0,0 0.375,0.672 0.906,1.047 0.125,-0.359 0.484,-0.656 0.484,-0.656 l 0.078,0.203 0.219,-0.547 0.156,0.266 c 0,0 0.141,-0.307 0,-0.646 0.021,0.061 0.234,0.224 0.234,0.224 l 0,-0.75 c 0,0 0.125,0.234 0.219,0.297 0,-0.328 -0.188,-0.562 -0.109,-0.703 l 0.109,0.193 c 0,0 0.094,-0.521 -0.453,-0.928 -0.547,-0.406 -1.057,-0.375 -1.169,-0.32 -0.113,0.055 -0.16,-0.242 -0.16,-0.242 z"
     id="path26"
     inkscape:connector-curvature="0"
     style="fill:#3d5da7" />
  <path
     d="m 14.859,9.578 c 0.29,-0.088 0.188,0.844 -0.156,1.219 0.188,-0.641 -0.203,-1.109 0.156,-1.219 z m 0.68,-0.266 c 0.069,-0.24 0.569,0.391 1.21,0.422 -0.561,0.094 -1.296,-0.125 -1.21,-0.422 z m -0.195,0.969 c 0.17,-0.079 0.219,0.859 0,1.125 0.031,-0.468 -0.235,-1.015 0,-1.125 z m 0.625,-0.234 c -0.217,0.059 0.421,0.578 0.781,0.547 -0.338,-0.064 -0.438,-0.641 -0.781,-0.547 z m -0.125,0.995 c -0.226,0 0,0.599 0.406,0.739 -0.141,-0.219 -0.042,-0.739 -0.406,-0.739 z m -11.61,2.567 c 0.206,0 -0.062,0.703 -0.5,0.984 0.235,-0.343 0.204,-0.984 0.5,-0.984 z M 4.906,13.5 C 4.739,13.628 5.203,14.199 5.734,14.24 5.391,14 5.109,13.345 4.906,13.5 Z m -0.5,0.906 c 0.124,-0.021 0.148,0.653 -0.203,0.828 0.188,-0.437 0.016,-0.796 0.203,-0.828 z m 0.594,0 C 5.207,14.279 5.31,14.808 5.609,14.979 5.109,14.859 4.797,14.531 5,14.406 Z m -0.257,0.5 c 0.207,-0.091 0.319,0.659 0,0.875 0.116,-0.484 -0.18,-0.797 0,-0.875 z M 31.156,14.24 c 0.216,-0.006 -0.172,0.635 -0.5,0.807 0.313,-0.469 0.266,-0.801 0.5,-0.807 z m 0.782,-0.334 c -0.161,0.111 0.297,0.422 0.516,0.422 -0.271,-0.084 -0.313,-0.562 -0.516,-0.422 z m -0.563,1.073 c 0.165,-0.126 0.234,0.286 0,0.583 0.143,-0.302 -0.219,-0.416 0,-0.583 z m 0.672,-0.424 c -0.171,0.069 0.156,0.555 0.406,0.586 -0.273,-0.168 -0.156,-0.688 -0.406,-0.586 z m -0.235,0.492 c 0.142,-0.107 0.432,0.594 0.091,0.953 0.162,-0.521 -0.359,-0.75 -0.091,-0.953 z"
     id="path28"
     inkscape:connector-curvature="0"
     style="fill:#a70000" />
</svg>
