<?xml version="1.0" encoding="UTF-8" standalone="no"?>
<svg
   xmlns:dc="http://purl.org/dc/elements/1.1/"
   xmlns:cc="http://creativecommons.org/ns#"
   xmlns:rdf="http://www.w3.org/1999/02/22-rdf-syntax-ns#"
   xmlns:svg="http://www.w3.org/2000/svg"
   xmlns="http://www.w3.org/2000/svg"
   xmlns:sodipodi="http://sodipodi.sourceforge.net/DTD/sodipodi-0.dtd"
   xmlns:inkscape="http://www.inkscape.org/namespaces/inkscape"
   viewBox="0 0 36 26"
   id="svg2"
   version="1.1"
   inkscape:version="0.91 r13725"
   sodipodi:docname="1f1f5-1f1eb.svg"
   width="36"
   height="26">
  <metadata
     id="metadata20">
    <rdf:RDF>
      <cc:Work
         rdf:about="">
        <dc:format>image/svg+xml</dc:format>
        <dc:type
           rdf:resource="http://purl.org/dc/dcmitype/StillImage" />
      </cc:Work>
    </rdf:RDF>
  </metadata>
  <defs
     id="defs18" />
  <sodipodi:namedview
     pagecolor="#ffffff"
     bordercolor="#666666"
     borderopacity="1"
     objecttolerance="10"
     gridtolerance="10"
     guidetolerance="10"
     inkscape:pageopacity="0"
     inkscape:pageshadow="2"
     inkscape:window-width="640"
     inkscape:window-height="480"
     id="namedview16"
     showgrid="false"
     inkscape:zoom="6.5555556"
     inkscape:cx="18"
     inkscape:cy="13"
     inkscape:window-x="0"
     inkscape:window-y="0"
     inkscape:window-maximized="0"
     inkscape:current-layer="svg2" />
  <path
     d="m 36,22 c 0,2.209 -1.791,4 -4,4 L 4,26 C 1.791,26 0,24.209 0,22 L 0,4 C 0,1.791 1.791,0 4,0 l 28,0 c 2.209,0 4,1.791 4,4 l 0,18 z"
     id="path4"
     inkscape:connector-curvature="0"
     style="fill:#ce1126" />
  <path
     d="M 0,7 36,7 36,19 0,19 Z"
     id="path6"
     inkscape:connector-curvature="0"
     style="fill:#eeeeee" />
  <path
     d="m 14.962,14.766 c -0.13,-0.35 -0.166,-0.656 -0.166,-0.656 0,0 -0.078,-0.109 -0.318,0 -0.24,0.109 -0.494,0.312 -0.854,0.391 -0.167,0.036 -0.311,-0.049 -0.42,-0.147 0.04,0.143 0.101,0.275 0.153,0.413 l 1.605,0 z m 3.571,0 C 18.434,14.564 18.312,14.407 18,14.407 c -0.302,0 -0.437,0.177 -0.536,0.359 l 1.069,0 z m 4.11,0 c 0.059,-0.152 0.124,-0.302 0.167,-0.461 -0.331,0.337 -0.84,0.208 -0.997,0.008 -0.172,-0.219 -0.562,-0.252 -0.562,-0.252 0,0 -0.047,0.315 -0.15,0.69 -10e-4,0.005 -0.005,0.011 -0.007,0.016 l 1.549,0 z m -0.356,0.75 c 0.079,-0.135 0.161,-0.268 0.228,-0.411 C 22.418,15.056 22.3,15.011 22.157,15.008 21.813,15 21.78,15.246 21.298,15.25 c -0.229,0.002 -0.35,-0.056 -0.416,-0.13 -0.116,0.142 -0.272,0.279 -0.444,0.396 l 1.849,0 z m -5.374,0 2.067,0 C 18.938,15.474 18.897,15.43 18.862,15.382 l 0.003,0.012 c 0,0 -0.428,-0.409 -0.866,-0.409 -0.562,0 -0.95,0.409 -0.95,0.409 l 0.013,-0.024 c -0.043,0.049 -0.094,0.099 -0.149,0.146 z m -1.439,0 c -0.141,-0.117 -0.259,-0.257 -0.348,-0.41 -0.148,0.102 -0.315,0.188 -0.485,0.176 -0.422,-0.031 -0.69,-0.48 -0.938,-0.359 -0.085,0.042 -0.165,0.083 -0.242,0.119 0.074,0.165 0.164,0.32 0.254,0.475 l 1.759,-10e-4 z m -1.094,0.89 7.242,0 c 0.119,-0.129 0.233,-0.262 0.339,-0.402 -0.168,-0.144 -0.422,-0.316 -0.711,-0.316 -0.484,0 -0.691,0.438 -1.119,0.438 -0.428,0 -0.475,-0.391 -1.006,-0.391 -0.531,0 -0.766,0.453 -1.18,0.453 -0.414,0 -0.711,-0.453 -1.101,-0.453 -0.391,0 -0.688,0.453 -1.109,0.453 -0.421,0 -0.656,-0.5 -1.031,-0.5 -0.236,0 -0.515,0.15 -0.699,0.265 0.116,0.158 0.242,0.309 0.375,0.453 z m 6.356,0.735 c 0.115,-0.078 0.236,-0.147 0.345,-0.234 -0.251,-0.12 -0.667,-0.297 -0.95,-0.297 -0.428,0 -0.537,0.234 -1.006,0.234 -0.469,0 -0.676,-0.266 -1.143,-0.266 -0.467,0 -0.625,0.344 -1.069,0.344 -0.444,0 -0.632,-0.375 -1.179,-0.375 -0.321,0 -0.698,0.134 -0.957,0.245 0.149,0.13 0.315,0.237 0.479,0.349 l 5.48,0 z m -1.595,0.265 c -0.531,0 -0.781,0.453 -1.141,0.453 -0.36,0 -0.674,-0.469 -1.087,-0.469 -0.248,0 -0.538,0.138 -0.74,0.25 0.565,0.228 1.178,0.36 1.827,0.36 0.652,0 1.265,-0.139 1.831,-0.369 -0.182,-0.112 -0.427,-0.225 -0.69,-0.225 z"
     id="path8"
     inkscape:connector-curvature="0"
     style="fill:#083e9d" />
  <path
     d="m 14.777,11.677 -1.399,-0.574 c -0.147,0.355 -0.239,0.735 -0.3,1.126 l 1.699,0.122 0,-0.674 z m 1.02,0.419 0,0.328 0.949,0.068 0,-0.007 -0.949,-0.389 z m 5.303,0.252 1.821,-0.131 C 22.856,11.808 22.758,11.41 22.6,11.04 l -1.5,0.616 0,0.692 z m -0.969,-0.294 -0.853,0.35 0.003,0.074 0.85,-0.061 0,-0.363 z m 1.562,-2.399 -0.593,0.518 0,0.845 1.146,-0.6 C 22.083,10.147 21.905,9.888 21.693,9.655 Z m -1.562,1.363 -0.875,0.763 0.007,0.199 0.868,-0.455 0,-0.507 z m -3.4,0.903 -0.934,-0.815 0,0.57 0.941,0.497 -0.007,-0.252 z M 14.777,10.217 14.234,9.744 c -0.216,0.249 -0.398,0.523 -0.561,0.81 l 1.104,0.583 0,-0.92 z m 5.354,-0.013 c 0,-0.152 0.206,-0.24 0.427,-0.261 l 0.69,-0.715 C 21.002,9.02 20.74,8.832 20.458,8.671 l -1.229,2.127 c 0.003,0.172 0.009,0.341 0.014,0.51 l 0.889,-0.922 -0.001,-0.182 z m -4.334,-0.188 0,0.46 0.921,1.002 -0.014,-0.497 -1.294,-2.238 c -0.256,0.156 -0.495,0.335 -0.72,0.529 l 0.537,0.584 c 0.273,-0.035 0.57,0.008 0.57,0.16 z M 19.221,9.87 19.912,8.402 C 19.647,8.29 19.376,8.191 19.09,8.127 L 18.813,9.25 c 0,0 0.583,0.021 0.458,0.042 -0.033,0.005 -0.047,0.239 -0.05,0.578 z M 16.627,8.215 C 16.416,8.276 16.22,8.367 16.022,8.453 l 0.652,1.462 -0.047,-1.7 z m -1.85,4.672 -1.761,-0.047 C 13.01,12.893 13,12.945 13,13 c 0,0.198 0.032,0.388 0.058,0.578 l 1.719,0 0,-0.691 z m 6.323,0.691 1.842,0 C 22.968,13.388 23,13.198 23,13 23,12.945 22.99,12.893 22.984,12.84 l -1.884,0.069 0,0.669 z"
     id="path10"
     inkscape:connector-curvature="0"
     style="fill:#ff9d11" />
  <path
     d="m 15.047,10.297 0,3.578 c 0,0.484 0.266,1.641 1.031,1.641 1.047,0 1.386,-1.297 1.386,-1.297 0,0 -0.755,0.664 -1.291,0.453 C 15.637,14.461 15.6,14.141 15.6,13.438 l 0,-3.052 c 0.001,-0.277 -0.553,-0.339 -0.553,-0.089 z m 5.855,0 0,3.578 c 0,0.484 -0.266,1.641 -1.031,1.641 -1.047,0 -1.386,-1.297 -1.386,-1.297 0,0 0.755,0.664 1.29,0.453 0.536,-0.211 0.573,-0.531 0.573,-1.234 l 0,-3.052 c 0.001,-0.277 0.554,-0.339 0.554,-0.089 z m -2.09,1.997 -1.797,-0.551 0,-2.868 c 0,-0.844 0.646,-1.26 1.797,-0.859 -1,0.094 -1.318,0.936 0,1.562 l 0,2.716 z"
     id="path12"
     inkscape:connector-curvature="0"
     style="fill:#ce1126" />
  <path
     d="m 20,13.711 c 0,0.073 -0.06,0.133 -0.133,0.133 l -3.859,0 c -0.073,0 -0.133,-0.06 -0.133,-0.133 0,-0.073 0.06,-0.133 0.133,-0.133 l 3.859,0 c 0.073,0 0.133,0.06 0.133,0.133 z m -2.984,0.702 -0.893,0 0.383,-0.507 0.893,0 z m 1.853,0 0.893,0 -0.383,-0.507 -0.894,0 z m -2.211,-1.116 -0.223,-0.243 0.222,-0.242 c 0.04,-0.043 0.025,-0.102 -0.034,-0.131 -0.058,-0.029 -0.139,-0.017 -0.179,0.027 l -0.101,0.109 0,-0.149 c 0,-0.035 -0.028,-0.063 -0.063,-0.063 -0.035,0 -0.063,0.028 -0.063,0.063 l 0,0.149 -0.1,-0.109 c -0.04,-0.044 -0.121,-0.056 -0.179,-0.027 -0.059,0.029 -0.074,0.088 -0.034,0.131 l 0.222,0.242 -0.223,0.243 c -0.04,0.043 -0.024,0.102 0.034,0.132 0.059,0.028 0.138,0.016 0.179,-0.028 l 0.164,-0.179 0.164,0.179 c 0.041,0.044 0.121,0.056 0.179,0.028 0.059,-0.03 0.074,-0.089 0.035,-0.132 z m 0.828,0 -0.223,-0.243 0.222,-0.242 c 0.04,-0.043 0.025,-0.102 -0.034,-0.131 -0.058,-0.029 -0.139,-0.017 -0.179,0.027 l -0.101,0.109 0,-0.149 c 0,-0.035 -0.028,-0.063 -0.063,-0.063 -0.035,0 -0.063,0.028 -0.063,0.063 l 0,0.149 -0.1,-0.109 c -0.04,-0.044 -0.121,-0.056 -0.179,-0.027 -0.059,0.029 -0.074,0.088 -0.034,0.131 l 0.222,0.242 -0.223,0.243 c -0.04,0.043 -0.024,0.102 0.034,0.132 0.059,0.028 0.138,0.016 0.179,-0.028 l 0.164,-0.179 0.164,0.179 c 0.041,0.044 0.121,0.056 0.179,0.028 0.059,-0.03 0.075,-0.089 0.035,-0.132 z m 0.829,0 -0.223,-0.243 0.222,-0.242 c 0.04,-0.043 0.025,-0.102 -0.034,-0.131 -0.058,-0.029 -0.139,-0.017 -0.179,0.027 L 18,12.818 18,12.669 c 0,-0.035 -0.028,-0.063 -0.063,-0.063 -0.035,0 -0.063,0.028 -0.063,0.063 l 0,0.149 -0.1,-0.109 c -0.04,-0.044 -0.121,-0.056 -0.179,-0.027 -0.059,0.029 -0.074,0.088 -0.034,0.131 l 0.222,0.242 -0.223,0.243 c -0.04,0.043 -0.024,0.102 0.034,0.132 0.059,0.028 0.138,0.016 0.179,-0.028 l 0.164,-0.179 0.164,0.179 c 0.041,0.044 0.121,0.056 0.179,0.028 0.059,-0.031 0.075,-0.09 0.035,-0.133 z m 0.831,0 -0.223,-0.243 0.222,-0.242 c 0.04,-0.043 0.025,-0.102 -0.034,-0.131 -0.058,-0.029 -0.139,-0.017 -0.179,0.027 l -0.101,0.109 0,-0.149 c 0,-0.035 -0.028,-0.063 -0.063,-0.063 -0.035,0 -0.063,0.028 -0.063,0.063 l 0,0.149 -0.1,-0.109 c -0.04,-0.044 -0.121,-0.056 -0.179,-0.027 -0.059,0.029 -0.074,0.088 -0.034,0.131 l 0.222,0.242 -0.223,0.243 c -0.04,0.043 -0.024,0.102 0.034,0.132 0.059,0.028 0.138,0.016 0.179,-0.028 l 0.164,-0.179 0.164,0.179 c 0.041,0.044 0.121,0.056 0.179,0.028 0.059,-0.03 0.075,-0.089 0.035,-0.132 z m 0.828,0 -0.223,-0.243 0.222,-0.242 c 0.04,-0.043 0.025,-0.102 -0.034,-0.131 -0.058,-0.029 -0.139,-0.017 -0.179,0.027 l -0.101,0.109 0,-0.149 c 0,-0.035 -0.028,-0.063 -0.063,-0.063 -0.035,0 -0.063,0.028 -0.063,0.063 l 0,0.149 -0.1,-0.109 c -0.04,-0.044 -0.121,-0.056 -0.179,-0.027 -0.059,0.029 -0.074,0.088 -0.034,0.131 l 0.222,0.242 -0.223,0.243 c -0.04,0.043 -0.024,0.102 0.034,0.132 0.059,0.028 0.138,0.016 0.179,-0.028 l 0.164,-0.179 0.164,0.179 c 0.041,0.044 0.121,0.056 0.179,0.028 0.059,-0.03 0.075,-0.089 0.035,-0.132 z"
     id="path14"
     inkscape:connector-curvature="0"
     style="fill:#630810" />
</svg>
