<?xml version="1.0" encoding="UTF-8" standalone="no"?>
<svg
   xmlns:dc="http://purl.org/dc/elements/1.1/"
   xmlns:cc="http://creativecommons.org/ns#"
   xmlns:rdf="http://www.w3.org/1999/02/22-rdf-syntax-ns#"
   xmlns:svg="http://www.w3.org/2000/svg"
   xmlns="http://www.w3.org/2000/svg"
   xmlns:sodipodi="http://sodipodi.sourceforge.net/DTD/sodipodi-0.dtd"
   xmlns:inkscape="http://www.inkscape.org/namespaces/inkscape"
   viewBox="0 0 36 36"
   id="svg2"
   version="1.1"
   inkscape:version="0.91 r13725"
   sodipodi:docname="1f1fc.svg"
   width="36"
   height="36">
  <metadata
     id="metadata12">
    <rdf:RDF>
      <cc:Work
         rdf:about="">
        <dc:format>image/svg+xml</dc:format>
        <dc:type
           rdf:resource="http://purl.org/dc/dcmitype/StillImage" />
      </cc:Work>
    </rdf:RDF>
  </metadata>
  <defs
     id="defs10" />
  <sodipodi:namedview
     pagecolor="#ffffff"
     bordercolor="#666666"
     borderopacity="1"
     objecttolerance="10"
     gridtolerance="10"
     guidetolerance="10"
     inkscape:pageopacity="0"
     inkscape:pageshadow="2"
     inkscape:window-width="640"
     inkscape:window-height="480"
     id="namedview8"
     showgrid="false"
     inkscape:zoom="6.5555556"
     inkscape:cx="18"
     inkscape:cy="18"
     inkscape:window-x="0"
     inkscape:window-y="0"
     inkscape:window-maximized="0"
     inkscape:current-layer="svg2" />
  <path
     d="m 36,32 c 0,2.209 -1.791,4 -4,4 L 4,36 C 1.791,36 0,34.209 0,32 L 0,4 C 0,1.791 1.791,0 4,0 l 28,0 c 2.209,0 4,1.791 4,4 l 0,28 z"
     id="path4"
     inkscape:connector-curvature="0"
     style="fill:#3b88c3" />
  <path
     d="M 4.298,9.838 C 4.205,9.435 4.174,9.218 4.174,8.784 c 0,-0.992 0.837,-2.046 2.201,-2.046 1.488,0 2.202,0.868 2.48,2.232 l 2.636,13.177 0.062,0 4.031,-13.58 c 0.341,-1.116 1.272,-1.83 2.418,-1.83 1.148,0 2.077,0.713 2.419,1.83 l 4.03,13.58 0.062,0 L 27.15,8.97 c 0.277,-1.364 0.992,-2.232 2.48,-2.232 1.363,0 2.201,1.054 2.201,2.046 0,0.434 -0.031,0.651 -0.125,1.054 l -3.936,16.93 c -0.311,1.303 -1.334,2.418 -3.069,2.418 -1.519,0 -2.698,-0.992 -3.069,-2.263 l -3.597,-11.969 -0.062,0 -3.597,11.969 c -0.372,1.271 -1.551,2.263 -3.07,2.263 -1.736,0 -2.759,-1.115 -3.07,-2.418 L 4.298,9.838 Z"
     id="path6"
     inkscape:connector-curvature="0"
     style="fill:#ffffff" />
</svg>
