<?xml version="1.0" encoding="UTF-8" standalone="no"?>
<svg
   xmlns:dc="http://purl.org/dc/elements/1.1/"
   xmlns:cc="http://creativecommons.org/ns#"
   xmlns:rdf="http://www.w3.org/1999/02/22-rdf-syntax-ns#"
   xmlns:svg="http://www.w3.org/2000/svg"
   xmlns="http://www.w3.org/2000/svg"
   xmlns:sodipodi="http://sodipodi.sourceforge.net/DTD/sodipodi-0.dtd"
   xmlns:inkscape="http://www.inkscape.org/namespaces/inkscape"
   viewBox="0 0 36 26"
   id="svg2"
   version="1.1"
   inkscape:version="0.91 r13725"
   sodipodi:docname="1f1f2-1f1fd.svg"
   width="36"
   height="26">
  <metadata
     id="metadata30">
    <rdf:RDF>
      <cc:Work
         rdf:about="">
        <dc:format>image/svg+xml</dc:format>
        <dc:type
           rdf:resource="http://purl.org/dc/dcmitype/StillImage" />
      </cc:Work>
    </rdf:RDF>
  </metadata>
  <defs
     id="defs28" />
  <sodipodi:namedview
     pagecolor="#ffffff"
     bordercolor="#666666"
     borderopacity="1"
     objecttolerance="10"
     gridtolerance="10"
     guidetolerance="10"
     inkscape:pageopacity="0"
     inkscape:pageshadow="2"
     inkscape:window-width="640"
     inkscape:window-height="480"
     id="namedview26"
     showgrid="false"
     inkscape:zoom="6.5555556"
     inkscape:cx="18"
     inkscape:cy="13"
     inkscape:window-x="0"
     inkscape:window-y="0"
     inkscape:window-maximized="0"
     inkscape:current-layer="svg2" />
  <path
     d="M 4,0 C 1.791,0 0,1.791 0,4 l 0,18 c 0,2.209 1.791,4 4,4 l 7,0 0,-26 -7,0 z"
     id="path4"
     inkscape:connector-curvature="0"
     style="fill:#006847" />
  <path
     d="m 32,0 -7,0 0,26 7,0 c 2.209,0 4,-1.791 4,-4 L 36,4 C 36,1.791 34.209,0 32,0 Z"
     id="path6"
     inkscape:connector-curvature="0"
     style="fill:#ce1126" />
  <path
     d="m 11,0 14,0 0,26 -14,0 z"
     id="path8"
     inkscape:connector-curvature="0"
     style="fill:#eeeeee" />
  <path
     d="m 23,13 c 0,2.762 -2.238,5 -5,5 -2.761,0 -5,-2.238 -5,-5 l -1,0 c 0,3.313 2.686,6 6,6 3.314,0 6,-2.687 6,-6 l -1,0 z"
     id="path10"
     inkscape:connector-curvature="0"
     style="fill:#a6d388" />
  <path
     d="m 13.543,15.269 c -0.092,-0.18 -0.278,-0.28 -0.468,-0.271 -0.069,0.002 -0.14,0.02 -0.205,0.053 -0.247,0.125 -0.344,0.427 -0.219,0.673 0.09,0.177 0.189,0.35 0.296,0.516 l 0,0.001 0.004,0.006 0,0.001 0.008,0.011 0,0.001 0.003,0.006 10e-4,0.002 0.004,0.005 0,0.001 0.003,0.005 0,0.002 0.003,0.005 10e-4,0.002 0.003,0.005 10e-4,0.002 0.003,0.004 0.002,0.003 0.002,0.003 0.001,0.003 0.003,0.005 10e-4,0.001 0.002,0.003 0.003,0.006 0.001,0.002 0.003,0.005 10e-4,0.002 0.007,0.01 0,0.001 0.005,0.007 0,10e-4 c 0.052,0.077 0.105,0.151 0.161,0.226 0.102,0.138 0.262,0.206 0.421,0.2 0.096,-0.004 0.193,-0.036 0.276,-0.099 0.222,-0.164 0.268,-0.478 0.103,-0.699 -0.158,-0.226 -0.305,-0.464 -0.43,-0.71 z M 13.046,13.687 C 13.025,13.531 13.01,13.372 13.003,13.21 12.998,13.09 12.998,12.972 13,12.854 13.008,12.579 12.791,12.348 12.515,12.34 l -0.036,10e-4 c -0.26,0.011 -0.471,0.221 -0.478,0.485 -0.002,0.104 -0.003,0.207 -10e-4,0.311 l 0,0.09 10e-4,0.005 0,0.028 0.001,0.003 -0.001,0.002 0,0.003 0.001,0.002 0,0.029 10e-4,0.003 0,0.011 10e-4,0.019 0.001,0.009 0,0.011 c 0.009,0.16 0.025,0.319 0.046,0.477 0.036,0.257 0.261,0.44 0.515,0.43 0.016,-0.001 0.032,-0.002 0.047,-0.005 0.281,-0.04 0.471,-0.293 0.433,-0.567 z m 5.294,4.3 -0.006,0.001 -0.124,0.008 c -0.237,0.009 -0.477,0.003 -0.71,-0.021 -0.024,-0.003 -0.047,-0.003 -0.071,-0.002 -0.245,0.01 -0.451,0.2 -0.476,0.45 -0.027,0.274 0.173,0.519 0.447,0.547 l 0.125,0.011 0.004,10e-4 0.002,-10e-4 0.003,10e-4 0.002,0 0.006,0.001 0.006,0 0.003,0.001 0.001,0 0.006,-0.001 0.003,0.001 0.005,0 0.006,10e-4 0.005,0.001 0.013,0 0.006,10e-4 0.013,0 c 0.152,0.01 0.305,0.015 0.459,0.012 l 0.039,0 0.007,-10e-4 0.006,10e-4 0.015,0 0.005,-10e-4 0.019,0 0.006,-0.001 0.001,0 0.005,0.001 0.001,-0.001 0.006,0.001 10e-4,0 0.005,-0.001 0.008,0 0.006,-0.001 0.006,0 10e-4,0.001 0.006,-0.001 0.007,0 0.005,-10e-4 0.02,0 0.005,-0.001 0.004,0 0.004,-0.001 0.004,0.001 0.005,0 0.004,-0.001 0.005,0 c 0.042,-10e-4 0.085,-0.005 0.127,-0.007 0.269,-0.022 0.471,-0.255 0.453,-0.526 -0.007,-0.272 -0.242,-0.483 -0.514,-0.473 z m -2.439,-0.448 c -0.251,-0.116 -0.495,-0.255 -0.724,-0.411 -0.092,-0.064 -0.199,-0.091 -0.303,-0.087 -0.152,0.006 -0.3,0.08 -0.393,0.217 -0.155,0.227 -0.098,0.539 0.13,0.694 l 10e-4,10e-4 0.006,0.003 0.006,0.006 0.006,0.004 0.006,0.005 c 0.266,0.181 0.548,0.34 0.842,0.476 0.074,0.035 0.153,0.049 0.23,0.046 0.182,-0.008 0.352,-0.113 0.433,-0.289 0.119,-0.251 0.01,-0.549 -0.24,-0.665 z m 5.03,-0.398 c -0.085,0.004 -0.171,0.03 -0.248,0.08 -0.233,0.148 -0.481,0.279 -0.734,0.387 -0.255,0.106 -0.375,0.399 -0.267,0.655 0.084,0.197 0.279,0.312 0.48,0.305 0.059,-0.002 0.116,-0.016 0.173,-0.038 l 0.134,-0.06 0.002,0 0.006,-0.004 0.002,-0.001 0.004,-0.002 0.004,0 0.004,-0.002 0.002,-0.002 0.006,-0.001 0.002,-0.002 0.003,-0.002 0.005,-0.002 0.003,-0.001 0.005,-0.002 0.002,-0.001 0.005,-0.002 0.002,-0.001 c 0.003,-0.002 0.003,-0.003 0.005,-0.003 l 0.002,-0.001 0.006,-0.003 0.002,0 0.006,-0.003 0.006,-0.003 0.002,-10e-4 0.005,-0.003 0.002,-0.001 0.006,-0.003 10e-4,-0.001 0.007,-10e-4 0.007,-0.004 0.002,-10e-4 0.004,-0.003 0.002,0 0.006,-0.004 0.008,-0.002 0.006,-0.004 10e-4,0 0.007,-0.004 0.001,-10e-4 0.014,-0.006 0.007,-0.003 0.014,-0.008 0.008,-0.003 0.006,-0.003 0.001,0 0.014,-0.008 0,-10e-4 0.006,-0.002 10e-4,0 0.022,-0.012 0.007,-0.002 0.014,-0.008 0.007,-0.004 0.001,0 c 10e-4,-10e-4 0.003,-0.002 0.007,-0.002 0.002,-0.003 0.004,-0.004 0.006,-0.005 l 0.008,-0.004 0.006,-0.003 0,-10e-4 0.014,-0.006 10e-4,0 0.007,-0.004 0.001,-0.001 0.005,-0.003 10e-4,0 0.007,-0.004 0.006,-0.003 0.002,0 0.006,-0.004 0,-0.001 0.007,-0.003 0.001,-0.001 0.006,-0.003 0,-0.001 0.006,-0.002 0.002,-0.001 0.004,-0.003 0.003,-10e-4 0.005,-0.003 0.002,-0.001 0.005,-0.003 0.002,-0.001 0.006,-0.002 c -10e-4,-0.001 0,-0.001 0.001,-0.001 l 0.006,-0.003 0.002,-10e-4 0.004,-0.003 0.002,-0.001 0.006,-0.003 0.002,-10e-4 c 0,-0.002 0.002,-0.002 0.004,-0.003 l 0.003,-0.001 0.004,-0.002 0.003,-0.002 0.004,-0.002 0.003,-0.002 0.003,-0.002 0.003,-0.003 0.005,-10e-4 0.004,-0.001 0.002,-0.002 0.004,-0.002 0.004,-0.003 0.002,-0.001 0.004,-0.002 0.004,-0.003 0.003,-0.002 c 0.002,0.001 0.003,0 0.005,-10e-4 l 0.002,-0.002 0.004,-0.002 0.003,-0.002 0.003,-0.002 0.004,-0.002 0.004,-0.003 0.002,-0.001 c 0.002,-10e-4 0.006,-10e-4 0.008,-0.003 -0.002,-10e-4 -0.002,-10e-4 0,-10e-4 l 0.004,-0.002 0.007,-0.005 0.002,-10e-4 0.007,-0.003 0,-0.001 0.012,-0.006 0.008,-0.005 c 0.006,-0.004 0.012,-0.008 0.02,-0.011 l 10e-4,0 c 0.063,-0.038 0.128,-0.077 0.19,-0.117 0.232,-0.15 0.301,-0.457 0.152,-0.69 -0.115,-0.149 -0.285,-0.232 -0.457,-0.225 z m 2.571,-4.618 -0.024,10e-4 c -0.266,0.011 -0.478,0.229 -0.479,0.498 0,0.277 -0.025,0.557 -0.072,0.829 -0.047,0.271 0.137,0.531 0.408,0.577 0.036,0.006 0.071,0.009 0.106,0.008 0.23,-0.01 0.432,-0.179 0.473,-0.417 l 0,-0.005 10e-4,-0.002 0.001,-0.002 -0.001,-0.002 0.001,-0.002 0,-0.002 0.001,-0.002 0,-0.003 10e-4,-0.002 0,-0.009 c 0.002,-10e-4 0.002,-0.003 0.002,-0.004 l 0,-0.006 c 0.021,-0.129 0.039,-0.259 0.052,-0.391 l -0.001,-10e-4 0.001,-0.003 0,-10e-4 10e-4,-0.004 0,-0.011 0.002,-0.003 0,-10e-4 -0.001,-0.003 0,-0.002 0.001,-0.003 0,-0.004 0.002,-10e-4 -0.002,-0.003 0,-0.004 c 0.002,-10e-4 0.002,-0.002 0.002,-0.003 l 0,-0.019 0.002,-0.003 0,-0.001 C 23.992,13.354 24,13.189 24,13.022 24,12.749 23.778,12.524 23.502,12.523 Z m -0.443,2.696 c -0.084,-0.046 -0.175,-0.066 -0.263,-0.062 -0.169,0.007 -0.329,0.1 -0.417,0.258 -0.134,0.242 -0.289,0.476 -0.463,0.692 -0.172,0.217 -0.135,0.531 0.08,0.702 0.1,0.079 0.217,0.113 0.333,0.108 0.14,-0.006 0.276,-0.07 0.37,-0.188 0.116,-0.146 0.227,-0.299 0.33,-0.455 0.002,-0.007 0.007,-0.014 0.011,-0.02 l 0.001,-0.001 0.004,-0.006 0,-0.001 0.004,-0.007 c 0.002,-0.002 0.004,-0.004 0.004,-0.006 l 10e-4,0.001 0.004,-0.006 0,-0.001 c 0.002,-0.002 0.003,-0.005 0.003,-0.007 l 0.002,-10e-4 0.004,-0.006 0,-0.001 c 0.002,-0.001 0.002,-0.003 0.003,-0.005 l 0.001,-0.001 0.004,-0.006 0.001,-0.002 0.002,-0.005 0.003,-0.002 0.002,-0.005 0.002,0 0.002,-0.006 0.001,-0.002 0.004,-0.004 0.001,-0.002 c 0.001,-0.002 0.001,-0.004 0.003,-0.005 l 0.001,-0.003 0.004,-0.003 c 0,-0.001 0,-0.002 0.002,-0.003 l 0,-0.004 0.003,-0.002 0.003,-0.005 10e-4,-0.002 0.003,-0.006 0.002,-0.002 0.002,-0.004 0.002,-0.003 c 0,-10e-4 0,-0.002 0.002,-0.003 0,-10e-4 0,-0.002 0.002,-0.003 l 0.003,-0.005 10e-4,-0.003 0.002,-0.003 0.002,-0.003 c 0.002,-10e-4 0.002,-0.002 0.002,-0.003 0.002,-10e-4 0.002,-0.002 0.002,-0.004 l 0.002,-0.003 0.003,-0.004 0.003,-0.004 0,-0.003 0.002,-0.003 0.003,-0.004 0.003,-0.003 0,-0.003 0.004,-0.005 0,-0.003 c 0.002,-0.001 0.003,-0.002 0.003,-0.004 l 0.002,-0.002 0.002,-0.003 0.003,-0.005 0.002,-0.003 0,-0.002 0.004,-0.005 c 0,-0.001 0,-0.002 0.002,-0.003 l 0.001,-0.003 0.003,-0.004 0.002,-0.004 0.002,-0.003 c 10e-4,-0.001 0,-0.003 0.002,-0.004 0,-0.001 0,-0.002 0.002,-0.002 l 0.002,-0.005 0.002,-0.002 0.002,-0.006 0.002,-10e-4 0.002,-0.004 0.002,-0.002 0.002,-0.005 0.002,-0.002 0.002,-0.006 c 0.002,-10e-4 0,-0.002 0,-0.002 l 0.004,-0.005 10e-4,-0.002 0.004,-0.005 0,-10e-4 0.003,-0.006 0.002,-0.002 0.002,-0.006 0,-10e-4 0.005,-0.005 0.003,-0.006 0,-10e-4 0.004,-0.007 0.002,-10e-4 0.025,-0.047 c 0.129,-0.234 0.043,-0.538 -0.199,-0.672 z"
     id="path12"
     inkscape:connector-curvature="0"
     style="fill:#5c913b" />
  <ellipse
     cx="18"
     cy="16"
     rx="3"
     ry="1"
     id="ellipse14"
     style="fill:#55acee" />
  <ellipse
     cx="18.5"
     cy="16"
     rx="1.5"
     ry="1"
     id="ellipse16"
     style="fill:#ffcc4d" />
  <path
     d="m 19.117,16.274 c -0.081,0 -0.163,-0.02 -0.239,-0.061 -0.243,-0.132 -0.333,-0.436 -0.201,-0.678 0.16,-0.294 0.328,-0.561 0.502,-0.795 -0.139,0.006 -0.283,0.009 -0.43,0.009 -0.276,0 -0.528,-0.225 -0.528,-0.501 0,-0.276 0.195,-0.5 0.472,-0.5 l 0.082,0.001 c 0.296,0 0.6,-0.018 0.872,-0.043 0.158,-0.017 0.309,0.047 0.41,0.156 0.014,-0.011 0.028,-0.022 0.043,-0.031 0.1,-0.066 0.193,-0.119 0.28,-0.161 0.059,-0.046 0.131,-0.079 0.211,-0.094 l 0.036,-0.007 C 20.815,13.508 20.947,13.5 21,13.5 c 0.159,0 0.308,0.075 0.402,0.203 0.094,0.128 0.122,0.292 0.075,0.444 -0.082,0.266 -0.265,0.326 -0.586,0.39 -0.06,0.023 -0.142,0.063 -0.238,0.128 -0.188,0.123 -0.432,0.104 -0.599,-0.034 0.137,0.177 0.143,0.431 -0.002,0.614 -0.17,0.217 -0.337,0.475 -0.496,0.768 -0.09,0.167 -0.262,0.261 -0.439,0.261 z m -1.42,-1.589 c -0.021,0 -0.044,-0.001 -0.066,-0.004 -0.374,-0.05 -0.729,-0.124 -1.056,-0.221 -0.265,-0.079 -0.416,-0.357 -0.337,-0.622 l 0.006,-0.02 -0.012,0.023 c -0.135,0.241 -0.44,0.328 -0.681,0.192 -0.34,-0.19 -0.645,-0.419 -0.907,-0.681 -0.195,-0.195 -0.195,-0.512 0,-0.707 0.195,-0.195 0.512,-0.195 0.707,0 0.197,0.197 0.428,0.37 0.688,0.515 0.214,0.12 0.306,0.374 0.229,0.597 0.105,-0.213 0.354,-0.326 0.59,-0.256 0.276,0.082 0.579,0.145 0.9,0.188 0.274,0.036 0.467,0.287 0.431,0.561 -0.029,0.252 -0.245,0.435 -0.492,0.435 z m -2.452,-2.339 c -0.426,0 -0.977,-0.165 -1.311,-0.559 C 13.422,11.183 13.121,10.408 13.167,9.814 13.179,9.655 13.024,9.527 12.872,9.487 12.785,9.464 12.632,9.45 12.56,9.605 12.501,9.731 12.353,9.784 12.228,9.727 12.103,9.669 12.048,9.52 12.106,9.395 c 0.156,-0.339 0.506,-0.49 0.892,-0.392 0.358,0.093 0.701,0.415 0.667,0.85 -0.036,0.462 0.226,1.109 0.65,1.61 0.223,0.264 0.611,0.371 0.875,0.381 0.215,0.011 0.324,-0.038 0.347,-0.059 -0.056,-0.133 -0.797,-0.523 -1.113,-0.689 -0.269,-0.141 -0.349,-0.335 -0.369,-0.472 -0.067,-0.455 0.4,-0.916 0.852,-1.36 0.159,-0.157 0.31,-0.305 0.392,-0.414 0.093,-0.123 0.078,-0.205 0.06,-0.256 C 15.29,8.407 14.991,8.222 14.631,8.142 14.298,8.068 14.073,7.907 13.963,7.663 13.818,7.342 13.895,6.922 14.197,6.378 c 0.067,-0.122 0.22,-0.164 0.34,-0.097 0.121,0.067 0.164,0.219 0.097,0.34 -0.285,0.512 -0.257,0.744 -0.215,0.837 0.042,0.092 0.149,0.157 0.32,0.195 0.423,0.094 0.932,0.345 1.088,0.767 0.089,0.241 0.044,0.501 -0.128,0.73 -0.104,0.139 -0.268,0.3 -0.441,0.471 -0.258,0.254 -0.739,0.727 -0.708,0.931 0.006,0.042 0.061,0.079 0.107,0.102 0.751,0.394 1.25,0.679 1.352,1.028 0.036,0.123 0.021,0.247 -0.042,0.359 -0.097,0.169 -0.299,0.273 -0.585,0.299 -0.043,0.004 -0.09,0.006 -0.137,0.006 z"
     id="path18"
     inkscape:connector-curvature="0"
     style="fill:#5c913b" />
  <ellipse
     cx="19.5"
     cy="13"
     rx="0.5"
     ry="1"
     id="ellipse20"
     style="fill:#ffcc4d" />
  <path
     d="m 17.292,12.188 c 0,0.288 -0.345,0.521 -0.771,0.521 -0.425,0 -0.771,-0.233 -0.771,-0.521 0,-0.288 0.345,-0.521 0.771,-0.521 0.425,0 0.771,0.233 0.771,0.521 z M 16.105,7.561 c 0.05,0.212 -0.227,0.46 -0.619,0.553 -0.392,0.093 -0.75,-0.004 -0.801,-0.216 -0.05,-0.213 0.227,-0.461 0.618,-0.554 0.393,-0.092 0.752,0.004 0.802,0.217 z"
     id="path22"
     inkscape:connector-curvature="0"
     style="fill:#ffcc4d" />
  <path
     d="m 22.533,12.955 c 0.09,0.07 0.243,-0.729 0.22,-0.978 0,-0.017 -0.029,-0.546 0.083,-0.924 C 22.905,10.925 22.909,9.97 22.803,9.719 22.887,9.712 22.988,9.685 23,9.583 22.612,9.726 22.521,8.766 22.148,8.214 21.786,7.661 21.337,7.339 20.868,7.003 20.903,6.909 20.959,6.821 21.03,6.733 20.455,7.021 19.559,5.978 18.235,6.056 c -0.297,0.029 -0.438,0.047 -0.514,0.229 -0.247,0.02 -0.498,0.076 -0.498,0.401 0,0.078 0.071,0.22 0.229,0.221 0.216,0.063 0.392,0.014 0.539,0.316 l 0.039,0.312 c 0,0 -0.193,-0.247 -0.299,-0.286 l 0.065,-0.133 c -0.1,-0.058 -0.277,-0.011 -0.277,-0.011 0,0 -0.385,-0.18 -0.694,-0.132 l -0.06,-0.25 C 16.711,6.877 16.59,6.869 16.573,7.014 16.539,6.91 16.494,6.781 16.462,6.677 16.353,6.825 16.385,6.985 16.346,7.139 16.304,7.175 16.218,7.176 16.196,7.077 16.185,6.955 16.17,6.944 16.17,6.799 16.092,6.936 15.998,7.003 15.967,7.238 l -0.083,-0.26 c 0.003,0.307 -0.261,0.49 -0.511,0.707 -0.071,0.13 0.011,0.131 0.017,0.198 l 0.132,0.066 0.237,-0.017 c 0.039,0.049 0.007,0.053 0.11,0.084 0.276,0.077 0.62,-0.254 0.89,0.267 -0.124,0.104 -0.249,0.347 -0.209,0.393 0.05,0 -0.1,0.07 0.102,0.006 -0.21,0.204 -0.352,0.473 -0.352,0.489 -0.024,0.058 0.084,-0.008 0.062,0.097 l 0.05,-0.006 c -0.479,0.518 -0.016,1.075 -0.067,1.374 0.08,0.129 0.09,-0.003 0.19,-0.016 0.084,0.368 0.326,0.591 0.474,0.882 l -0.312,0.003 c 0.007,0.138 0.132,0.269 0.231,0.39 l -0.209,0.066 c -0.149,0.076 -0.247,0.157 -0.352,0.274 -0.069,0.168 0.333,0.208 0.527,0.238 l -0.007,0.203 c 0.303,0.029 0.653,-0.061 0.653,-0.078 l 0.076,-0.059 0.171,0.094 c 0.057,0 0.146,-0.228 0.105,-0.403 0.11,0.131 0.214,0.342 0.324,0.474 l 0.103,-0.014 c 0.094,0.149 0.223,0.297 0.317,0.446 l 0.105,0.04 c 0.061,-0.021 0.113,-0.028 0.146,-0.148 l 0.048,0.084 0.166,-0.114 0.116,-0.023 0.087,0.142 c 0.051,-0.019 0.101,-0.13 0.104,-0.248 0.052,0.103 0.066,0.095 0.104,0.122 l 0.077,-0.162 0.415,0.388 0.314,0.018 c 0.112,0.076 0.419,0.124 0.471,0.001 0.252,0.108 0.549,-0.014 0.534,-0.134 0.232,0.092 0.589,0.03 0.589,0.015 0.043,-0.005 0.153,-0.113 0.049,-0.194 -0.767,-0.534 -1.904,-1.418 -2.343,-1.631 0,-0.158 -0.119,-0.727 -0.247,-0.883 l 0.104,-0.174 c 0.299,0.279 0.407,0.252 0.566,0.296 0.17,0.135 0.229,0.34 0.399,0.527 l 0.152,0.028 c -0.105,-0.267 -0.236,-0.526 -0.554,-0.873 0.164,0.082 0.436,0.301 0.618,0.46 0.12,0.201 0.155,0.361 0.265,0.613 0.08,0.051 0.162,0.238 0.151,0.083 -0.019,-0.291 -0.224,-0.752 -0.224,-0.785 0.326,0.258 0.322,0.66 0.421,0.905 0.083,0.124 0.125,0.29 0.161,0.251 l -0.096,-0.756 -0.056,-0.277 c 0.241,0.139 0.327,0.669 0.44,1.305 0,0.101 0.041,0.212 0.035,0.277 0.052,0.064 0.111,0.241 0.11,0.136 0,0 0,-1.034 -0.071,-1.271 -0.018,-0.127 0.03,-0.333 0.03,-0.333 0.088,0.429 0.182,0.894 0.271,1.322 l 0,0.315 0.132,0.133 c 0.025,-0.26 0.055,-0.518 0.081,-0.776 l -0.099,-0.925 0,-0.264 c -0.002,-0.093 0.085,-0.076 0.14,0.03 0.013,0.227 0.013,0.404 0.022,0.63 0.039,0.258 0.066,0.447 0.085,0.776 0.011,0.266 0.023,0.904 0.079,0.893 z"
     id="path24"
     inkscape:connector-curvature="0"
     style="fill:#c1694f" />
</svg>
