<?xml version="1.0" encoding="UTF-8" standalone="no"?>
<svg
   xmlns:dc="http://purl.org/dc/elements/1.1/"
   xmlns:cc="http://creativecommons.org/ns#"
   xmlns:rdf="http://www.w3.org/1999/02/22-rdf-syntax-ns#"
   xmlns:svg="http://www.w3.org/2000/svg"
   xmlns="http://www.w3.org/2000/svg"
   xmlns:sodipodi="http://sodipodi.sourceforge.net/DTD/sodipodi-0.dtd"
   xmlns:inkscape="http://www.inkscape.org/namespaces/inkscape"
   viewBox="0 0 36 36"
   id="svg2"
   version="1.1"
   inkscape:version="0.91 r13725"
   sodipodi:docname="1f235.svg"
   width="36"
   height="36">
  <metadata
     id="metadata12">
    <rdf:RDF>
      <cc:Work
         rdf:about="">
        <dc:format>image/svg+xml</dc:format>
        <dc:type
           rdf:resource="http://purl.org/dc/dcmitype/StillImage" />
      </cc:Work>
    </rdf:RDF>
  </metadata>
  <defs
     id="defs10" />
  <sodipodi:namedview
     pagecolor="#ffffff"
     bordercolor="#666666"
     borderopacity="1"
     objecttolerance="10"
     gridtolerance="10"
     guidetolerance="10"
     inkscape:pageopacity="0"
     inkscape:pageshadow="2"
     inkscape:window-width="640"
     inkscape:window-height="480"
     id="namedview8"
     showgrid="false"
     inkscape:zoom="6.5555556"
     inkscape:cx="18"
     inkscape:cy="18"
     inkscape:window-x="0"
     inkscape:window-y="0"
     inkscape:window-maximized="0"
     inkscape:current-layer="svg2" />
  <path
     d="m 36,32 c 0,2.209 -1.791,4 -4,4 L 4,36 C 1.791,36 0,34.209 0,32 L 0,4 C 0,1.791 1.791,0 4,0 l 28,0 c 2.209,0 4,1.791 4,4 l 0,28 z"
     id="path4"
     inkscape:connector-curvature="0"
     style="fill:#dd2e44" />
  <path
     d="m 10.921,15.583 c 0.208,0.182 0.338,0.468 0.338,0.754 0,0.208 -0.078,0.416 -0.234,0.624 -0.208,0.26 -0.52,0.39 -0.806,0.39 -0.26,0 -0.494,-0.078 -0.676,-0.26 -1.014,-0.936 -2.34,-1.924 -3.458,-2.6 -0.234,-0.13 -0.364,-0.39 -0.364,-0.702 0,-0.208 0.078,-0.416 0.208,-0.624 0.208,-0.26 0.494,-0.39 0.806,-0.39 0.182,0 0.364,0.052 0.52,0.13 1.248,0.702 2.549,1.716 3.666,2.678 z m 0.39,6.136 c 0,0.131 -0.026,0.234 -0.052,0.364 -0.754,2.288 -1.898,4.94 -3.225,7.099 -0.208,0.338 -0.52,0.494 -0.884,0.494 -0.182,0 -0.39,-0.052 -0.598,-0.156 -0.312,-0.182 -0.52,-0.494 -0.52,-0.832 0,-0.182 0.052,-0.39 0.182,-0.572 1.222,-1.976 2.418,-4.42 3.12,-6.708 0.13,-0.442 0.468,-0.649 0.884,-0.649 0.104,0 0.234,0.025 0.338,0.052 0.496,0.154 0.755,0.518 0.755,0.908 z m 0.676,-11.83 c 0,0.234 -0.078,0.468 -0.234,0.65 -0.208,0.234 -0.494,0.338 -0.754,0.338 -0.286,0 -0.572,-0.104 -0.78,-0.312 C 9.335,9.707 8.295,8.849 7.203,8.121 6.969,7.965 6.839,7.679 6.839,7.393 6.839,7.185 6.917,6.951 7.073,6.769 7.281,6.509 7.567,6.353 7.879,6.353 c 0.182,0 0.39,0.052 0.572,0.182 1.066,0.676 2.21,1.586 3.198,2.548 0.235,0.234 0.338,0.52 0.338,0.806 z m 0.573,4.94 c -0.468,0 -0.728,-0.312 -0.728,-0.858 0,-0.52 0.26,-0.858 0.728,-0.858 l 3.796,0 0,-2.835 -2.964,0 c -0.468,0 -0.728,-0.338 -0.728,-0.884 0,-0.52 0.26,-0.832 0.728,-0.832 l 2.964,0 0,-1.897 c 0,-0.442 0.338,-0.702 0.884,-0.702 0.572,0 0.936,0.26 0.936,0.702 l 0,1.898 5.097,0 0,-1.898 c 0,-0.442 0.363,-0.676 0.91,-0.676 0.571,0 0.909,0.234 0.909,0.676 l 0,1.898 3.458,0 c 0.469,0 0.728,0.312 0.728,0.832 0,0.546 -0.26,0.884 -0.728,0.884 l -3.458,0 0,2.835 4.316,0 c 0.468,0 0.728,0.311 0.728,0.858 0,0.52 -0.26,0.858 -0.728,0.858 l -7.852,0 0,2.21 5.226,0 c 1.534,0 2.21,0.676 2.21,2.055 l 0,8.294 c 0,1.716 -0.78,2.392 -2.652,2.392 -0.78,0 -1.586,-0.052 -2.313,-0.182 -0.391,-0.078 -0.702,-0.416 -0.702,-0.884 0,-0.078 0,-0.156 0.026,-0.234 0.104,-0.52 0.467,-0.754 0.806,-0.754 0.052,0 0.104,0 0.155,0.026 0.65,0.155 1.301,0.208 1.795,0.208 0.858,0 1.066,-0.208 1.066,-0.962 l 0,-7.644 c 0,-0.521 -0.26,-0.65 -0.806,-0.65 l -4.81,0 0,6.37 1.248,0 c 0.469,0 0.676,-0.155 0.676,-0.649 l 0,-3.562 c 0,-0.441 0.364,-0.702 0.858,-0.702 0.442,0 0.91,0.261 0.91,0.702 l 0,3.979 c 0,1.352 -0.572,1.872 -1.897,1.872 l -5.279,0 c -1.326,0 -1.898,-0.521 -1.898,-1.872 l 0,-3.979 c 0,-0.441 0.442,-0.702 0.884,-0.702 0.494,0 0.884,0.261 0.884,0.702 l 0,3.562 c 0,0.494 0.208,0.649 0.676,0.649 l 1.118,0 0,-6.37 -4.447,0 c -0.52,0 -0.78,0.13 -0.78,0.65 l 0,10.01 c 0,0.547 -0.39,0.807 -0.988,0.807 -0.546,0 -0.936,-0.26 -0.936,-0.807 l 0,-10.27 c 0,-1.378 0.676,-2.055 2.211,-2.055 l 4.939,0 0,-2.21 -7.176,0 z m 10.712,-4.55 -5.097,0 0,2.835 5.097,0 0,-2.835 z"
     id="path6"
     inkscape:connector-curvature="0"
     style="fill:#ffffff" />
</svg>
