<?xml version="1.0" encoding="UTF-8" standalone="no"?>
<svg
   xmlns:dc="http://purl.org/dc/elements/1.1/"
   xmlns:cc="http://creativecommons.org/ns#"
   xmlns:rdf="http://www.w3.org/1999/02/22-rdf-syntax-ns#"
   xmlns:svg="http://www.w3.org/2000/svg"
   xmlns="http://www.w3.org/2000/svg"
   xmlns:sodipodi="http://sodipodi.sourceforge.net/DTD/sodipodi-0.dtd"
   xmlns:inkscape="http://www.inkscape.org/namespaces/inkscape"
   viewBox="0 0 36 36"
   id="svg2"
   version="1.1"
   inkscape:version="0.91 r13725"
   sodipodi:docname="1f232.svg"
   width="36"
   height="36">
  <metadata
     id="metadata12">
    <rdf:RDF>
      <cc:Work
         rdf:about="">
        <dc:format>image/svg+xml</dc:format>
        <dc:type
           rdf:resource="http://purl.org/dc/dcmitype/StillImage" />
      </cc:Work>
    </rdf:RDF>
  </metadata>
  <defs
     id="defs10" />
  <sodipodi:namedview
     pagecolor="#ffffff"
     bordercolor="#666666"
     borderopacity="1"
     objecttolerance="10"
     gridtolerance="10"
     guidetolerance="10"
     inkscape:pageopacity="0"
     inkscape:pageshadow="2"
     inkscape:window-width="640"
     inkscape:window-height="480"
     id="namedview8"
     showgrid="false"
     inkscape:zoom="6.5555556"
     inkscape:cx="18"
     inkscape:cy="18"
     inkscape:window-x="0"
     inkscape:window-y="0"
     inkscape:window-maximized="0"
     inkscape:current-layer="svg2" />
  <path
     d="m 36,32 c 0,2.209 -1.791,4 -4,4 L 4,36 C 1.791,36 0,34.209 0,32 L 0,4 C 0,1.791 1.791,0 4,0 l 28,0 c 2.209,0 4,1.791 4,4 l 0,28 z"
     id="path4"
     inkscape:connector-curvature="0"
     style="fill:#dd2e44" />
  <path
     d="m 7.106,10.233 c -0.468,0 -0.728,-0.338 -0.728,-0.858 0,-0.546 0.26,-0.832 0.728,-0.832 l 4.42,0 0,-1.82 c 0,-0.468 0.364,-0.728 0.91,-0.728 0.546,0 0.858,0.26 0.858,0.728 l 0,1.82 3.094,0 c 0.468,0 0.727,0.286 0.727,0.806 0,0.546 -0.26,0.884 -0.727,0.884 l -2.548,0 c 0.806,1.144 1.872,2.106 2.886,2.756 0.286,0.182 0.416,0.442 0.416,0.702 0,0.182 -0.078,0.364 -0.182,0.546 -0.182,0.208 -0.416,0.312 -0.676,0.312 -0.182,0 -0.39,-0.078 -0.598,-0.208 -0.936,-0.727 -2.158,-2.132 -2.678,-3.25 0.156,0.78 0.286,1.768 0.286,2.47 l 0,2.262 c 0,0.442 -0.312,0.702 -0.858,0.702 -0.546,0 -0.91,-0.26 -0.91,-0.702 l 0,-2.262 c 0,-0.676 0.104,-1.716 0.286,-2.418 -0.884,1.846 -2.834,3.77 -4.446,4.888 -0.182,0.13 -0.39,0.208 -0.598,0.208 -0.26,0 -0.52,-0.13 -0.702,-0.364 -0.156,-0.182 -0.208,-0.39 -0.208,-0.572 0,-0.286 0.13,-0.572 0.39,-0.728 1.742,-1.066 3.432,-2.574 4.602,-4.342 l -3.744,0 z M 7.054,22.948 c -0.442,0 -0.676,-0.39 -0.676,-0.884 0,-0.494 0.234,-0.884 0.676,-0.884 l 21.762,0 c 0.442,0 0.677,0.39 0.677,0.884 0,0.494 -0.234,0.884 -0.677,0.884 l -9.75,0 0,4.706 c 0,1.716 -0.832,2.314 -3.068,2.314 -0.962,0 -1.794,-0.104 -2.444,-0.26 -0.442,-0.104 -0.728,-0.442 -0.728,-0.858 0,-0.103 0,-0.182 0.052,-0.286 0.13,-0.468 0.468,-0.702 0.832,-0.702 0.052,0 0.13,0 0.208,0.026 0.598,0.156 1.222,0.26 1.872,0.26 1.014,0 1.222,-0.182 1.222,-0.858 l 0,-4.342 -9.958,0 z m 6.396,1.821 c 0,0.182 -0.078,0.416 -0.286,0.65 -1.118,1.325 -2.99,2.938 -4.68,3.926 -0.182,0.104 -0.364,0.156 -0.572,0.156 -0.338,0 -0.676,-0.156 -0.884,-0.494 -0.104,-0.183 -0.156,-0.338 -0.156,-0.521 0,-0.311 0.182,-0.598 0.494,-0.78 1.508,-0.858 3.276,-2.262 4.264,-3.405 0.208,-0.261 0.468,-0.391 0.78,-0.391 0.182,0 0.364,0.052 0.572,0.156 0.287,0.157 0.468,0.416 0.468,0.703 z M 9.862,19.204 c -0.442,0 -0.65,-0.417 -0.65,-0.884 0,-0.442 0.208,-0.884 0.65,-0.884 l 16.12,0 c 0.442,0 0.65,0.442 0.65,0.884 0,0.468 -0.208,0.884 -0.65,0.884 l -16.12,0 z m 8.841,-8.971 C 18.261,10.233 18,9.896 18,9.375 18,8.829 18.26,8.543 18.702,8.543 l 3.64,0 0,-1.793 c 0,-0.468 0.364,-0.702 0.91,-0.702 0.546,0 0.858,0.234 0.858,0.702 l 0,1.794 4.653,0 c 0.468,0 0.729,0.286 0.729,0.806 0,0.546 -0.261,0.884 -0.729,0.884 l -4.004,0 c 1.3,1.742 3.198,3.12 4.941,4.082 0.286,0.156 0.441,0.468 0.441,0.78 0,0.182 -0.052,0.39 -0.155,0.546 -0.183,0.338 -0.494,0.468 -0.78,0.468 -0.182,0 -0.364,-0.052 -0.546,-0.156 -1.898,-1.17 -3.614,-2.73 -4.837,-4.81 0.156,0.754 0.287,1.716 0.287,2.47 l 0,2.236 c 0,0.442 -0.339,0.702 -0.858,0.702 -0.546,0 -0.91,-0.26 -0.91,-0.702 l 0,-2.34 c 0,-0.754 0.13,-1.612 0.26,-2.34 -0.937,1.82 -2.418,3.354 -4.004,4.394 -0.182,0.13 -0.39,0.208 -0.572,0.208 -0.234,0 -0.468,-0.104 -0.65,-0.364 -0.104,-0.156 -0.156,-0.338 -0.156,-0.494 0,-0.286 0.156,-0.546 0.39,-0.702 1.638,-0.936 3.042,-2.366 4.082,-3.978 l -2.989,0 z m 4.783,13.704 c 0.312,0 0.599,0.13 0.807,0.311 1.066,1.145 2.834,2.523 4.264,3.225 0.391,0.182 0.624,0.494 0.624,0.858 0,0.182 -0.052,0.363 -0.182,0.546 -0.208,0.338 -0.521,0.519 -0.884,0.519 -0.156,0 -0.338,-0.052 -0.521,-0.13 -1.69,-0.858 -3.64,-2.444 -4.914,-3.9 -0.13,-0.156 -0.208,-0.363 -0.208,-0.572 0,-0.26 0.13,-0.546 0.441,-0.701 0.184,-0.105 0.392,-0.156 0.573,-0.156 z"
     id="path6"
     inkscape:connector-curvature="0"
     style="fill:#ffffff" />
</svg>
