<?xml version="1.0" encoding="UTF-8" standalone="no"?>
<svg
   xmlns:dc="http://purl.org/dc/elements/1.1/"
   xmlns:cc="http://creativecommons.org/ns#"
   xmlns:rdf="http://www.w3.org/1999/02/22-rdf-syntax-ns#"
   xmlns:svg="http://www.w3.org/2000/svg"
   xmlns="http://www.w3.org/2000/svg"
   xmlns:sodipodi="http://sodipodi.sourceforge.net/DTD/sodipodi-0.dtd"
   xmlns:inkscape="http://www.inkscape.org/namespaces/inkscape"
   viewBox="0 0 36 36"
   id="svg2"
   version="1.1"
   inkscape:version="0.91 r13725"
   sodipodi:docname="1f234.svg"
   width="36"
   height="36">
  <metadata
     id="metadata12">
    <rdf:RDF>
      <cc:Work
         rdf:about="">
        <dc:format>image/svg+xml</dc:format>
        <dc:type
           rdf:resource="http://purl.org/dc/dcmitype/StillImage" />
      </cc:Work>
    </rdf:RDF>
  </metadata>
  <defs
     id="defs10" />
  <sodipodi:namedview
     pagecolor="#ffffff"
     bordercolor="#666666"
     borderopacity="1"
     objecttolerance="10"
     gridtolerance="10"
     guidetolerance="10"
     inkscape:pageopacity="0"
     inkscape:pageshadow="2"
     inkscape:window-width="640"
     inkscape:window-height="480"
     id="namedview8"
     showgrid="false"
     inkscape:zoom="6.5555556"
     inkscape:cx="18"
     inkscape:cy="18"
     inkscape:window-x="0"
     inkscape:window-y="0"
     inkscape:window-maximized="0"
     inkscape:current-layer="svg2" />
  <path
     d="m 36,32 c 0,2.209 -1.791,4 -4,4 L 4,36 C 1.791,36 0,34.209 0,32 L 0,4 C 0,1.791 1.791,0 4,0 l 28,0 c 2.209,0 4,1.791 4,4 l 0,28 z"
     id="path4"
     inkscape:connector-curvature="0"
     style="fill:#dd2e44" />
  <path
     d="m 17.929,6.327 c 0.572,0 1.145,0.208 1.482,0.624 2.782,3.614 6.267,6.059 10.271,7.957 0.416,0.182 0.624,0.546 0.624,0.936 0,0.156 -0.026,0.338 -0.104,0.52 -0.182,0.39 -0.572,0.65 -0.988,0.65 -0.155,0 -0.338,-0.026 -0.493,-0.104 -4.212,-2.132 -8.06,-5.174 -10.453,-8.32 -0.13,-0.156 -0.233,-0.234 -0.338,-0.234 -0.104,0 -0.208,0.078 -0.311,0.208 -2.341,3.198 -6.345,6.474 -10.349,8.346 -0.156,0.078 -0.338,0.13 -0.494,0.13 -0.39,0 -0.729,-0.208 -0.937,-0.624 -0.077,-0.156 -0.104,-0.312 -0.104,-0.468 0,-0.39 0.234,-0.78 0.65,-0.962 4.056,-1.924 7.488,-4.654 10.036,-8.035 0.338,-0.416 0.935,-0.624 1.508,-0.624 z m 6.292,12.923 c 1.586,0 2.315,0.676 2.315,2.234 l 0,5.721 c 0,1.586 -0.729,2.236 -2.315,2.236 l -12.428,0 c -1.587,0 -2.314,-0.65 -2.314,-2.236 l 0,-5.721 c 0,-1.559 0.728,-2.234 2.314,-2.234 l 12.428,0 z m -0.598,8.32 c 0.546,0 0.832,-0.156 0.832,-0.728 l 0,-4.992 c 0,-0.572 -0.286,-0.729 -0.832,-0.729 l -11.259,0 c -0.546,0 -0.806,0.156 -0.806,0.729 l 0,4.992 c 0,0.572 0.26,0.728 0.806,0.728 l 11.259,0 z M 23.26,14.413 c 0.467,0 0.754,0.442 0.754,0.962 0,0.546 -0.287,0.962 -0.754,0.962 l -10.531,0 c -0.494,0 -0.754,-0.416 -0.754,-0.962 0,-0.521 0.26,-0.962 0.754,-0.962 l 10.531,0 z"
     id="path6"
     inkscape:connector-curvature="0"
     style="fill:#ffffff" />
</svg>
