<?xml version="1.0" encoding="UTF-8" standalone="no"?>
<svg
   xmlns:dc="http://purl.org/dc/elements/1.1/"
   xmlns:cc="http://creativecommons.org/ns#"
   xmlns:rdf="http://www.w3.org/1999/02/22-rdf-syntax-ns#"
   xmlns:svg="http://www.w3.org/2000/svg"
   xmlns="http://www.w3.org/2000/svg"
   xmlns:sodipodi="http://sodipodi.sourceforge.net/DTD/sodipodi-0.dtd"
   xmlns:inkscape="http://www.inkscape.org/namespaces/inkscape"
   viewBox="0 0 36 36"
   id="svg2"
   version="1.1"
   inkscape:version="0.91 r13725"
   sodipodi:docname="1f30e.svg"
   width="36"
   height="36">
  <metadata
     id="metadata12">
    <rdf:RDF>
      <cc:Work
         rdf:about="">
        <dc:format>image/svg+xml</dc:format>
        <dc:type
           rdf:resource="http://purl.org/dc/dcmitype/StillImage" />
      </cc:Work>
    </rdf:RDF>
  </metadata>
  <defs
     id="defs10" />
  <sodipodi:namedview
     pagecolor="#ffffff"
     bordercolor="#666666"
     borderopacity="1"
     objecttolerance="10"
     gridtolerance="10"
     guidetolerance="10"
     inkscape:pageopacity="0"
     inkscape:pageshadow="2"
     inkscape:window-width="640"
     inkscape:window-height="480"
     id="namedview8"
     showgrid="false"
     inkscape:zoom="6.5555556"
     inkscape:cx="18"
     inkscape:cy="18"
     inkscape:window-x="0"
     inkscape:window-y="0"
     inkscape:window-maximized="0"
     inkscape:current-layer="svg2" />
  <circle
     cx="18"
     cy="18"
     r="18"
     id="circle4"
     style="fill:#88c9f9" />
  <path
     d="M 30.13,23.748 C 29.113,23.358 29.294,23.5 28.667,22.167 28.04,20.835 27.66,20.406 26.25,20.25 24.839,20.095 24.892,20.205 24.5,19.5 c -0.392,-0.706 -1.982,0.191 -3,0.584 -1.021,0.392 -0.769,1.246 -1.083,1.166 -0.315,-0.078 -1.107,-0.281 -1.893,-0.907 -0.784,-0.628 0.583,-1.118 0.976,-1.509 0.393,-0.393 -0.74,-0.179 -1.133,-0.416 -0.393,-0.234 -1.096,0.471 -1.723,-0.158 -0.628,-0.627 -0.235,-1.568 -0.313,-2.352 -0.079,-0.785 1.018,-0.941 1.724,-1.098 0.705,-0.156 1.253,10e-4 1.253,0.941 0,0.941 0.863,1.255 0.628,0.156 -0.235,-1.099 0.235,-1.411 0.55,-1.96 0.313,-0.549 0.862,-1.334 1.567,-2.51 0.706,-1.176 1.177,-0.628 2.039,-0.544 0.863,0.085 1.098,-0.083 1.725,-0.004 0.625,0.079 0,-0.784 0.236,-1.646 C 26.287,8.381 27.15,8.537 28.014,8.773 28.876,9.008 27.15,7.674 26.837,6.969 26.522,6.263 25.66,6.969 25.113,5.793 24.56,4.617 23.789,3.856 23.083,3.751 22.377,3.645 23.308,5.245 22.759,6.107 22.208,6.969 21.364,6.834 20.499,6.834 19.638,6.834 18.838,6.107 19.466,5.009 20.092,3.912 21.289,4.025 21.916,3.084 22.544,2.144 19.686,2.23 18.666,1.917 17.646,1.603 16.422,1.606 15.403,2.39 14.383,3.173 12.202,3.418 11.339,3.731 10.477,4.044 10.322,3.211 10.166,2.583 10.096,2.304 9.778,2.216 9.33,2.226 7.11,3.45 5.187,5.138 3.664,7.147 3.901,7.954 5.049,6.958 5.274,6.733 5.509,6.498 6.685,6.812 6.841,7.674 6.998,8.536 6.92,9.479 6.607,10.263 c -0.314,0.783 0.784,1.881 1.411,2.979 0.628,1.099 1.333,1.098 1.647,1.098 0.313,0 2.117,0.706 2.038,1.568 -0.078,0.863 1.647,1.646 2.353,2.195 0.706,0.551 1.152,1.092 2.068,1.25 0.917,0.158 1.989,1.657 2.459,1.815 0.361,0.12 0.972,0.697 1.341,0.876 -0.485,0.614 -1.424,1.875 -1.424,2.456 0,0.786 1.025,2.021 1.417,2.334 0.391,0.312 1.517,0.55 1.75,1.333 0.236,0.784 -0.164,3.423 -0.868,4.128 -0.708,0.705 -0.965,2.372 -0.965,2.372 0,0 0.249,0.541 1.083,0 C 21.839,34.07 23.383,32.37 24,32 c 1.176,-0.707 2.319,-1.565 3.417,-2.583 1.098,-1.019 0.7,-1.733 1.25,-2.75 0.549,-1.019 1.259,-0.973 2.199,-1.833 0.942,-0.864 0.284,-0.693 -0.736,-1.086 z"
     id="path6"
     inkscape:connector-curvature="0"
     style="fill:#5c913b" />
</svg>
