<?xml version="1.0" encoding="UTF-8" standalone="no"?>
<svg
   xmlns:dc="http://purl.org/dc/elements/1.1/"
   xmlns:cc="http://creativecommons.org/ns#"
   xmlns:rdf="http://www.w3.org/1999/02/22-rdf-syntax-ns#"
   xmlns:svg="http://www.w3.org/2000/svg"
   xmlns="http://www.w3.org/2000/svg"
   xmlns:sodipodi="http://sodipodi.sourceforge.net/DTD/sodipodi-0.dtd"
   xmlns:inkscape="http://www.inkscape.org/namespaces/inkscape"
   viewBox="0 0 36 36"
   id="svg2"
   version="1.1"
   inkscape:version="0.91 r13725"
   sodipodi:docname="1f30b.svg"
   width="36"
   height="36">
  <metadata
     id="metadata52">
    <rdf:RDF>
      <cc:Work
         rdf:about="">
        <dc:format>image/svg+xml</dc:format>
        <dc:type
           rdf:resource="http://purl.org/dc/dcmitype/StillImage" />
      </cc:Work>
    </rdf:RDF>
  </metadata>
  <defs
     id="defs50" />
  <sodipodi:namedview
     pagecolor="#ffffff"
     bordercolor="#666666"
     borderopacity="1"
     objecttolerance="10"
     gridtolerance="10"
     guidetolerance="10"
     inkscape:pageopacity="0"
     inkscape:pageshadow="2"
     inkscape:window-width="640"
     inkscape:window-height="480"
     id="namedview48"
     showgrid="false"
     inkscape:zoom="6.5555556"
     inkscape:cx="18"
     inkscape:cy="18"
     inkscape:window-x="0"
     inkscape:window-y="0"
     inkscape:window-maximized="0"
     inkscape:current-layer="svg2" />
  <path
     d="m 12,36 0,-20 c 0,0 -1.17,1.053 -2.354,1.929 -0.313,0.231 -1.977,0.79 -2.312,1.04 C 5.572,20.284 4.782,22.81 4.542,23.136 4.083,23.76 0,36 0,36 l 12,0 z"
     id="path4"
     inkscape:connector-curvature="0"
     style="fill:#292f33" />
  <path
     d="M 32,36 26.5,18.25 18,12.594 11.542,14.802 C 11.135,15.583 10,18.25 10,18.25 L 8.75,22 0,36 32,36 Z"
     id="path6"
     inkscape:connector-curvature="0"
     style="fill:#4b545d" />
  <path
     d="M 18.135,25.726 C 17.99,25.213 18.109,24.756 17.958,24.25 17.81,23.751 17.392,23.203 17.265,22.772 17,21.873 16.811,21.189 16.82,21 c 0.024,-0.469 0.894,-0.401 1.102,0.469 0.293,1.224 0.688,1.594 0.688,1.594 0,0 0.084,-3.381 -0.632,-4.068 0.145,-0.231 0.289,-0.476 0.418,-0.744 0.625,-1.292 0.646,-2.104 0.646,-2.104 0,0 -2.521,3.061 -3.222,4.853 -0.701,1.792 1,8 1,8 l -4,7 4.467,0 c 0,0 -0.474,-1.469 -0.467,-1.969 0.007,-0.5 1.899,-3.688 2,-5.031 0.041,-0.545 -0.285,-1.861 -0.685,-3.274 z m 15.74,0.024 c -0.515,-0.586 -1.841,-1.42 -3.128,-2.154 0,0 -2.335,-5.596 -3.622,-7.263 -1.287,-1.667 -3.667,-3 -3.667,-3 l -2.646,1.479 c 0,0 1.705,1.446 2.646,3.062 0.941,1.616 0.689,3.519 0.745,3.908 0.067,0.467 0.059,0.973 0.588,1.759 1.045,1.553 1.726,1.541 2.183,2.276 0.049,0.145 0.099,0.291 0.15,0.432 0.14,0.385 0.68,0.656 0.792,1.021 0.175,0.576 0.878,2.284 0.682,3.09 -0.106,0.437 -0.224,1.521 -0.307,2.014 C 27.95,34.417 29.057,36 29.057,36 L 36,36 c 0,0 -1,-8.969 -2.125,-10.25 z"
     id="path8"
     inkscape:connector-curvature="0"
     style="fill:#292f33" />
  <path
     d="m 26.098,22.256 c -0.772,-0.754 -1.187,-1.898 -1.229,-3.294 0.173,-1.667 -4.662,-4.923 -4.662,-4.923 l -1.915,0.316 c 0,0 4.112,1.681 4.708,4.453 0.297,1.381 -0.107,3.271 -0.208,4.11 -0.136,1.119 0.661,1.768 0.875,2.832 0.111,0.55 0.007,1.694 -0.14,2.878 -0.075,0.602 -0.348,1.175 -0.422,1.726 -0.192,1.424 -0.12,2.472 0.229,1.812 0.422,-0.796 0.653,-1.922 1.263,-3.606 0.293,-0.81 0.311,-1.743 0.239,-2.811 -0.031,-0.461 0.111,-1.009 0.061,-1.521 -0.051,-0.528 -0.294,-1.02 -0.333,-1.604 -0.011,-0.166 0.03,-0.738 0.092,-1.444 0.074,0.012 0.146,0.054 0.216,0.172 0.938,1.562 0.764,3.025 1.276,2.581 0.41,-0.356 0.493,-1.146 -0.05,-1.677 z"
     id="path10"
     inkscape:connector-curvature="0"
     style="fill:#ffac33" />
  <path
     d="m 8.77,24.997 c 0,0 -4.437,3.087 -5.603,4.545 C 2.001,31 0,36 0,36 l 4.5,0 c 0,0 0.042,-1.896 -0.156,-2.688 -0.198,-0.792 0.312,-2.455 0.906,-2.875 1.417,-1 2.381,-2.31 2.52,-2.149 0.521,0.604 0.521,1.208 0.521,1.208 0,0 0.499,-1.378 0.521,-2.542 C 8.834,25.79 8.77,24.997 8.77,24.997 Z"
     id="path12"
     inkscape:connector-curvature="0"
     style="fill:#292f33" />
  <path
     d="m 18,12.594 c 0,0 -3.844,-1.094 -6.458,1.25 C 10.351,14.911 10.48,15.896 10,18.25 9.52,20.604 8.139,21.336 7.938,22.271 7.542,24.104 6.086,25.501 5.521,26.375 5.193,26.883 4.763,27.711 4.483,28.177 3.897,29.155 3.469,29.982 3.417,30.416 3.292,31.458 5.25,29.208 5.25,29.208 L 8.531,25.173 C 8.424,27.474 7.607,29.911 8.5,29.687 9.25,29.499 9.863,28.551 9.516,27.531 9.062,26.195 9.178,25.048 9.422,24.075 c 0.05,-0.089 2.252,-4.007 2.787,-7.117 0.542,-3.146 5.381,-3.976 5.381,-3.976 l 2.244,0.862 0.417,-1.066 L 18,12.594 Z"
     id="path14"
     inkscape:connector-curvature="0"
     style="fill:#ffac33" />
  <path
     d="m 27.953,17 c -1.328,-1.75 -3.286,-3.685 -4.234,-3.988 -0.823,-0.263 -0.428,0.815 -0.428,0.815 0,0 2.833,1.236 4.271,6.736 0.686,2.625 2.765,3.711 3.344,5.344 1.938,5.469 4.166,6.463 2.943,4.747 C 32.626,28.938 29.281,18.75 27.953,17 Z m -9.972,1.535 c -0.108,-0.166 -0.205,-0.306 -0.294,-0.437 1.259,-1.904 2.751,-4.035 2.751,-4.035 0,0 -2.912,-0.294 -3,0.031 -0.875,3.219 -1.669,4.238 -2.312,6.281 -1.876,5.958 1.21,9.869 1.694,8.625 0.388,-1 -0.211,-3.746 -0.672,-5.373 -0.461,-1.627 -0.266,-2.002 -0.169,-2.669 0.034,-0.233 0.594,-1.153 1.303,-2.244 0.089,0.071 0.172,0.163 0.243,0.29 0.446,0.8 0.653,2.26 0.753,3.251 0.115,1.139 1.134,1.653 1.696,1.25 0.562,-0.403 -0.188,-2.422 -1.41,-3.726 -0.289,-0.31 -0.392,-0.95 -0.583,-1.244 z"
     id="path16"
     inkscape:connector-curvature="0"
     style="fill:#e95f28" />
  <path
     d="m 23.969,13.125 c 0,0 0.594,1.156 -1.635,1.135 -0.584,-0.005 -0.861,0.512 -1.625,0.576 -0.636,0.053 -1.509,-0.243 -2.229,-0.243 -0.72,0 -1.55,0.491 -2.186,0.438 -0.766,-0.064 -1.659,-0.834 -2.231,-0.959 -1.062,-0.232 -1.792,-0.289 -1.792,-0.646 0,-0.357 1.207,-0.789 2.271,-1.021 0.571,-0.125 1.058,0.285 1.822,0.221 0.636,-0.053 1.291,-0.101 2.011,-0.101 0.72,0 1.415,-0.431 2.051,-0.377 0.766,0.064 1.403,0.432 1.979,0.535 0.683,0.123 1.088,0.244 1.314,0.329 0.185,0.069 0.25,0.113 0.25,0.113 z"
     id="path18"
     inkscape:connector-curvature="0"
     style="fill:#e95f28" />
  <path
     d="m 25.531,6.906 c 0,0 -3.455,-1.365 -6.764,-1.365 -3.309,0 -7.392,1.886 -7.392,1.886 3.25,2.764 3.119,5.697 3.119,5.697 l 7.688,0 c 0,10e-4 1.162,-4.052 3.349,-6.218 z"
     id="path20"
     inkscape:connector-curvature="0"
     style="fill:#ffac33" />
  <path
     d="m 22.182,13.125 c 0,0 -0.056,0.21 -0.4,0.312 -0.091,0.027 -0.307,-0.048 -0.453,0 -0.174,0.057 -0.486,0.201 -0.641,0.219 -0.166,0.02 -0.546,-0.094 -0.734,-0.078 -0.344,0.028 -0.519,0.159 -0.922,0.172 -0.273,0.008 -0.401,-0.098 -0.693,-0.098 -0.109,0 -0.341,-0.097 -0.525,-0.089 -0.303,0.012 -0.583,0.13 -0.75,0.125 -0.453,-0.014 -0.545,-0.216 -0.922,-0.25 -0.365,-0.032 -0.625,0.141 -0.891,0.094 -0.502,-0.089 -0.756,-0.406 -0.756,-0.406 0,-0.291 1.721,-0.527 3.844,-0.527 2.123,0 3.843,0.526 3.843,0.526 z"
     id="path22"
     inkscape:connector-curvature="0"
     style="fill:#ffac33" />
  <path
     d="m 17.145,13.682 c 0,0 -0.07,-0.575 -0.301,-1.367 C 16.229,10.208 16.25,8.687 16.25,8.687 l -1.396,0.667 c 0,0 0.729,1.396 1.305,4.093 0,0 0.2,0.005 0.429,0.129 0.229,0.124 0.557,0.106 0.557,0.106 z m 1.698,0.063 c 0.004,-0.228 0.01,-0.715 0.074,-1.214 0.063,-0.492 0.321,-1.677 0.417,-2.26 0.163,-0.995 0.117,-1.696 0.333,-2.083 l -2.229,0.083 c 0,0 0.471,0.931 0.583,2.042 0.088,0.866 10e-4,2.239 0.195,3.327 0,0 0.063,0.017 0.149,0.024 0.043,0.003 0.14,0.003 0.192,0.012 0.157,0.026 0.286,0.069 0.286,0.069 z m 2.212,-0.2 c 0,0 0.462,-1.455 0.62,-2.446 0.257,-1.613 1.714,-3.985 2.106,-4.38 L 20.953,6.625 c 0,0 0.069,2.111 -0.058,3.491 -0.096,1.043 -0.598,1.991 -0.519,3.503 0,0 0.134,0.05 0.311,0.037 0.155,-0.012 0.368,-0.111 0.368,-0.111 z"
     id="path24"
     inkscape:connector-curvature="0"
     style="fill:#e95f28" />
  <path
     d="m 30.375,2.039 c -0.045,0 -0.088,0.01 -0.132,0.013 -0.193,-0.446 -0.635,-0.76 -1.153,-0.76 -0.235,0 -0.443,0.082 -0.631,0.194 -0.448,-0.72 -1.241,-1.204 -2.152,-1.204 -0.814,0 -1.531,0.39 -1.996,0.985 -0.493,-0.336 -1.088,-0.534 -1.729,-0.534 -1.154,0 -2.148,0.644 -2.674,1.585 C 19.643,1.706 19.034,1.277 18.325,1.277 17.775,1.277 17.29,1.54 16.974,1.941 16.584,0.815 15.525,0 14.266,0 13.251,0 12.364,0.528 11.852,1.322 11.711,1.301 11.569,1.279 11.422,1.279 10.62,1.279 9.896,1.609 9.374,2.138 9.306,2.133 9.242,2.118 9.173,2.118 9.139,2.118 9.107,2.127 9.074,2.128 8.766,1.73 8.291,1.471 7.751,1.471 7.225,1.471 6.761,1.718 6.454,2.097 6.284,2.047 6.107,2.013 5.92,2.013 4.86,2.013 4,2.873 4,3.934 c 0,1.061 0.86,1.921 1.921,1.921 0.055,0 0.106,-0.012 0.16,-0.016 0.217,0.271 0.536,0.456 0.91,0.456 0.046,0 0.085,-0.021 0.129,-0.026 0.473,0.62 1.212,1.026 2.051,1.026 0.19,0 0.374,-0.023 0.552,-0.062 0.35,0.278 0.758,0.485 1.213,0.576 0.644,1.121 1.839,1.885 3.224,1.885 1.311,0 2.459,-0.679 3.125,-1.701 0.552,0.677 1.382,1.118 2.323,1.118 1.392,0 2.552,-0.95 2.897,-2.233 0.026,10e-4 0.05,0.008 0.076,0.008 0.367,0 0.714,-0.075 1.041,-0.193 0.516,0.403 1.157,0.653 1.863,0.653 1.062,0 1.995,-0.546 2.539,-1.37 0.194,0.139 0.419,0.238 0.676,0.238 0.482,0 0.893,-0.291 1.078,-0.704 0.188,0.067 0.387,0.11 0.597,0.11 0.988,0 1.789,-0.801 1.789,-1.789 0,-0.988 -0.801,-1.792 -1.789,-1.792 z"
     id="path26"
     inkscape:connector-curvature="0"
     style="fill:#ccd6dd" />
  <circle
     cx="14.25"
     cy="4.7030001"
     r="2.0239999"
     id="circle28"
     style="fill:#aab8c2" />
  <circle
     cx="11.75"
     cy="4.5370002"
     r="2.0009999"
     id="circle30"
     style="fill:#aab8c2" />
  <circle
     cx="9.7840004"
     cy="4.6279998"
     r="1.11"
     id="circle32"
     style="fill:#aab8c2" />
  <circle
     cx="23.659"
     cy="3.6689999"
     r="1.11"
     id="circle34"
     style="fill:#aab8c2" />
  <circle
     cx="26.208"
     cy="3.2869999"
     r="1.495"
     id="circle36"
     style="fill:#aab8c2" />
  <circle
     cx="15.976"
     cy="4.263"
     r="1.632"
     id="circle38"
     style="fill:#aab8c2" />
  <circle
     cx="25.555"
     cy="4.1630001"
     r="1.784"
     id="circle40"
     style="fill:#aab8c2" />
  <circle
     cx="17.421"
     cy="4.8410001"
     r="1.5319999"
     id="circle42"
     style="fill:#aab8c2" />
  <circle
     cx="14.203"
     cy="3.5309999"
     r="1.7"
     id="circle44"
     style="fill:#aab8c2" />
  <circle
     cx="14.162"
     cy="5.2740002"
     r="2.8599999"
     id="circle46"
     style="fill:#aab8c2" />
</svg>
