<?xml version="1.0" encoding="UTF-8" standalone="no"?>
<svg
   xmlns:dc="http://purl.org/dc/elements/1.1/"
   xmlns:cc="http://creativecommons.org/ns#"
   xmlns:rdf="http://www.w3.org/1999/02/22-rdf-syntax-ns#"
   xmlns:svg="http://www.w3.org/2000/svg"
   xmlns="http://www.w3.org/2000/svg"
   xmlns:sodipodi="http://sodipodi.sourceforge.net/DTD/sodipodi-0.dtd"
   xmlns:inkscape="http://www.inkscape.org/namespaces/inkscape"
   viewBox="0 0 36.000999 36"
   id="svg2"
   version="1.1"
   inkscape:version="0.91 r13725"
   sodipodi:docname="1f301.svg"
   width="36.000999"
   height="36">
  <metadata
     id="metadata22">
    <rdf:RDF>
      <cc:Work
         rdf:about="">
        <dc:format>image/svg+xml</dc:format>
        <dc:type
           rdf:resource="http://purl.org/dc/dcmitype/StillImage" />
      </cc:Work>
    </rdf:RDF>
  </metadata>
  <defs
     id="defs20" />
  <sodipodi:namedview
     pagecolor="#ffffff"
     bordercolor="#666666"
     borderopacity="1"
     objecttolerance="10"
     gridtolerance="10"
     guidetolerance="10"
     inkscape:pageopacity="0"
     inkscape:pageshadow="2"
     inkscape:window-width="640"
     inkscape:window-height="480"
     id="namedview18"
     showgrid="false"
     inkscape:zoom="6.5555556"
     inkscape:cx="18.001"
     inkscape:cy="18"
     inkscape:window-x="0"
     inkscape:window-y="0"
     inkscape:window-maximized="0"
     inkscape:current-layer="svg2" />
  <path
     d="m 32.001,0 -28,0 c -2.209,0 -4,1.791 -4,4 l 0,6 36,0 0,-6 c 0,-2.209 -1.791,-4 -4,-4 z"
     id="path4"
     inkscape:connector-curvature="0"
     style="fill:#88c9f9" />
  <path
     d="m 36.001,16.368 0,-7.111 C 35.363,8.863 34.618,8.625 33.813,8.625 c -1.325,0 -2.491,0.627 -3.259,1.588 C 29.751,9.466 28.684,9 27.501,9 26.78,9 26.109,9.185 25.505,9.486 24.764,8.018 23.258,7 21.501,7 20.894,7 20.317,7.124 19.789,7.342 19.309,5.981 18.025,5 16.501,5 15.294,5 14.228,5.611 13.6,6.542 12.971,6.207 12.264,6 11.501,6 9.86,6 8.439,6.887 7.653,8.198 6.929,6.33 5.126,5 3.001,5 1.87,5 0.839,5.389 0.001,6.022 l 0,7.955 c 0.838,0.634 24.5,4.023 24.5,4.023 0,0 10.862,-1.238 11.5,-1.632 z"
     id="path6"
     inkscape:connector-curvature="0"
     style="fill:#e1e8ed" />
  <path
     d="M 36.001,14.771 C 35.158,13.7 33.865,13 32.397,13 30.4,13 28.716,14.279 28.079,16.059 27.889,16.026 27.699,16 27.501,16 26.681,16 25.936,16.294 25.339,16.767 24.68,16.289 23.877,16 23.001,16 c -0.353,0 -0.689,0.06 -1.015,0.146 0.002,-0.049 0.015,-0.096 0.015,-0.146 0,-2.209 -1.791,-4 -4,-4 -1.215,0 -2.291,0.554 -3.024,1.409 C 14.37,13.148 13.703,13 13.001,13 c -0.18,0 -0.35,0.034 -0.525,0.053 C 11.43,10.505 8.927,8.709 6.001,8.709 c -2.551,0 -4.777,1.369 -6,3.408 l 0,13.544 32.396,-1.452 c 0,0 2.761,-1.343 3.604,-2.966 l 0,-6.472 z"
     id="path8"
     inkscape:connector-curvature="0"
     style="fill:#ccd6dd" />
  <path
     d="m 36.001,30.499 0,-10.077 C 35.388,20.154 34.713,20 34.001,20 31.876,20 30.073,21.33 29.349,23.198 28.563,21.887 27.142,21 25.501,21 24.738,21 24.031,21.207 23.402,21.542 22.774,20.611 21.708,20 20.501,20 18.977,20 17.693,20.981 17.213,22.342 16.685,22.124 16.108,22 15.501,22 13.744,22 12.238,23.018 11.497,24.486 10.893,24.185 10.222,24 9.501,24 8.318,24 7.251,24.466 6.447,25.213 5.679,24.252 4.513,23.625 3.188,23.625 1.904,23.625 0.769,24.216 0,25.126 l 0,5.373 36.001,0 z"
     id="path10"
     inkscape:connector-curvature="0"
     style="fill:#e1e8ed" />
  <path
     d="M 36.001,24.059 C 32.466,22.229 25.014,17.594 20.001,9 c 0,0 0,-2 -2,-2 -2,0 -2,2 -2,2 -5.013,8.594 -12.465,13.229 -16,15.059 l 0,2.068 c 1.044,-0.495 2.422,-1.204 4,-2.169 l 0,0.042 2,0 0,-1.341 c 1.284,-0.88 2.637,-1.908 4,-3.094 l 0,7.435 2,0 0,-9.292 c 1.384,-1.375 2.74,-2.923 4,-4.655 l 0,10.947 4,0 0,-10.946 c 1.26,1.731 2.616,3.28 4,4.655 l 0,8.291 2,0 0,-6.435 c 1.362,1.186 2.716,2.214 4,3.095 l 0,2.34 2,0 0,-1.042 c 1.578,0.965 2.956,1.674 4,2.169 l 0,-2.068 z"
     id="path12"
     inkscape:connector-curvature="0"
     style="fill:#fe5011" />
  <path
     d="m 25.001,25 c -0.821,0 -1.582,0.249 -2.217,0.673 -0.664,-1.839 -2.5,-3.07 -4.534,-2.863 -1.883,0.192 -3.348,1.56 -3.777,3.298 -0.181,-0.012 -0.363,-0.019 -0.55,0 -0.773,0.079 -1.448,0.427 -1.965,0.93 C 11.291,26.651 10.506,26.456 9.68,26.54 9.347,26.574 9.036,26.663 8.738,26.776 8.735,26.729 8.742,26.683 8.738,26.637 8.526,24.554 6.665,23.038 4.583,23.25 3.438,23.367 2.476,23.992 1.867,24.869 1.281,24.683 0.65,24.611 0.001,24.672 l 0,7.328 c 0,0.773 0.23,1.489 0.61,2.101 0.105,-0.003 28.39,-2.892 28.39,-5.101 0,-2.209 -1.791,-4 -4,-4 z"
     id="path14"
     inkscape:connector-curvature="0"
     style="fill:#f5f8fa" />
  <path
     d="m 32.001,36 c 2.209,0 4,-1.791 4,-4 l 0,-7.608 c -0.91,-0.433 -1.925,-0.683 -3,-0.683 -2.926,0 -5.429,1.796 -6.475,4.344 C 26.351,28.034 26.181,28 26.001,28 25.299,28 24.632,28.147 24.025,28.409 23.292,27.554 22.216,27 21.001,27 c -2.209,0 -4,1.791 -4,4 0,0.05 0.013,0.097 0.015,0.146 C 16.69,31.06 16.354,31 16.001,31 15.125,31 14.322,31.289 13.663,31.767 13.066,31.294 12.321,31 11.501,31 11.303,31 11.113,31.026 10.924,31.059 10.287,29.279 8.603,28 6.605,28 4.618,28 2.94,29.266 2.295,31.03 2.196,31.022 2.102,31 2.001,31 c -0.732,0 -1.41,0.211 -2,0.555 l 0,0.445 c 0,2.209 1.791,4 4,4 l 28,0 z"
     id="path16"
     inkscape:connector-curvature="0"
     style="fill:#ccd6dd" />
</svg>
