<?xml version="1.0" encoding="UTF-8" standalone="no"?>
<svg
   xmlns:dc="http://purl.org/dc/elements/1.1/"
   xmlns:cc="http://creativecommons.org/ns#"
   xmlns:rdf="http://www.w3.org/1999/02/22-rdf-syntax-ns#"
   xmlns:svg="http://www.w3.org/2000/svg"
   xmlns="http://www.w3.org/2000/svg"
   xmlns:sodipodi="http://sodipodi.sourceforge.net/DTD/sodipodi-0.dtd"
   xmlns:inkscape="http://www.inkscape.org/namespaces/inkscape"
   viewBox="0 0 36.000011 33.13089"
   id="svg2"
   version="1.1"
   inkscape:version="0.91 r13725"
   sodipodi:docname="1f30a.svg"
   width="36.000011"
   height="33.13089">
  <metadata
     id="metadata12">
    <rdf:RDF>
      <cc:Work
         rdf:about="">
        <dc:format>image/svg+xml</dc:format>
        <dc:type
           rdf:resource="http://purl.org/dc/dcmitype/StillImage" />
      </cc:Work>
    </rdf:RDF>
  </metadata>
  <defs
     id="defs10" />
  <sodipodi:namedview
     pagecolor="#ffffff"
     bordercolor="#666666"
     borderopacity="1"
     objecttolerance="10"
     gridtolerance="10"
     guidetolerance="10"
     inkscape:pageopacity="0"
     inkscape:pageshadow="2"
     inkscape:window-width="640"
     inkscape:window-height="480"
     id="namedview8"
     showgrid="false"
     inkscape:zoom="6.5555556"
     inkscape:cx="18.000012"
     inkscape:cy="18"
     inkscape:window-x="0"
     inkscape:window-y="0"
     inkscape:window-maximized="0"
     inkscape:current-layer="svg2" />
  <path
     d="m 33.398012,20.80889 c -7.562,4.875 -20.062,-0.438 -18.375,-8.062 1.479,-6.6840001 9.419,-4.7630001 11.225,-3.8610001 1.806,0.902 0.713,-3.889 -3.475,-5.327 -5.673,-1.948 -12.617,-1.535 -14.8119997,8.2500001 -1.5,6.687 1.438,16.062 12.7189997,16.187 11.281,0.125 12.718,-7.187 12.718,-7.187 z"
     id="path4"
     inkscape:connector-curvature="0"
     style="fill:#226699" />
  <path
     d="m 35.988012,22.32389 c 0,-2.146 -2.754,-2.334 -4,-1.119 -2.994,2.919 -7.402,4.012 -13.298,2.861 -10.2499997,-2 -10.3409997,-14.014 -3.333,-17.4410001 3.791,-1.854 8.289,0.341 9.999,1.655 1.488,1.143 4.334,2.6600001 4.185,0.752 -0.318,-4.062 -8.279,-12.761 -18.946,-7.261 C -0.07098774,7.2708899 1.2255876e-5,19.68389 1.2255876e-5,21.93389 l 0,7.25 c 0,2.209 1.814000044124,3.947 4.023000044124,3.947 l 27.9999997,0 c 2.209,0 3.977,-1.738 3.977,-3.947 0,0 -0.004,-6.854 -0.012,-6.86 z"
     id="path6"
     inkscape:connector-curvature="0"
     style="fill:#55acee" />
</svg>
