<?xml version="1.0" encoding="UTF-8" standalone="no"?>
<svg
   xmlns:dc="http://purl.org/dc/elements/1.1/"
   xmlns:cc="http://creativecommons.org/ns#"
   xmlns:rdf="http://www.w3.org/1999/02/22-rdf-syntax-ns#"
   xmlns:svg="http://www.w3.org/2000/svg"
   xmlns="http://www.w3.org/2000/svg"
   xmlns:sodipodi="http://sodipodi.sourceforge.net/DTD/sodipodi-0.dtd"
   xmlns:inkscape="http://www.inkscape.org/namespaces/inkscape"
   viewBox="0 0 36 36"
   id="svg2"
   version="1.1"
   inkscape:version="0.91 r13725"
   sodipodi:docname="1f304.svg"
   width="36"
   height="36">
  <metadata
     id="metadata18">
    <rdf:RDF>
      <cc:Work
         rdf:about="">
        <dc:format>image/svg+xml</dc:format>
        <dc:type
           rdf:resource="http://purl.org/dc/dcmitype/StillImage" />
      </cc:Work>
    </rdf:RDF>
  </metadata>
  <defs
     id="defs16" />
  <sodipodi:namedview
     pagecolor="#ffffff"
     bordercolor="#666666"
     borderopacity="1"
     objecttolerance="10"
     gridtolerance="10"
     guidetolerance="10"
     inkscape:pageopacity="0"
     inkscape:pageshadow="2"
     inkscape:window-width="640"
     inkscape:window-height="480"
     id="namedview14"
     showgrid="false"
     inkscape:zoom="6.5555556"
     inkscape:cx="18"
     inkscape:cy="18"
     inkscape:window-x="0"
     inkscape:window-y="0"
     inkscape:window-maximized="0"
     inkscape:current-layer="svg2" />
  <path
     d="M 32,0 4,0 C 1.791,0 0,1.791 0,4 L 0,31 36,31 36,4 C 36,1.791 34.209,0 32,0 Z"
     id="path4"
     inkscape:connector-curvature="0"
     style="fill:#ffcc4d" />
  <path
     d="m 32.114,18.736 c 1.587,-0.451 1.587,-1.147 0.001,-1.599 L 31.556,16.983 31,16.82 31,16.825 28.06,15.934 30.383,14 l -0.014,0 0.493,-0.322 0.497,-0.359 C 32.65,12.296 32.367,11.633 30.73,11.821 L 30.094,11.91 29.462,12 29.46,12 26.481,12.339 28.251,9.159 28.56,8.601 C 29.362,7.161 28.841,6.638 27.402,7.438 L 26.844,7.72 26.288,8 26.286,8 23.66,9.489 24,6.543 24,6.54 24.08,5.908 24.157,5.27 C 24.345,3.636 23.665,3.355 22.641,4.647 L 22.247,5.146 19.99,7.996 19.171,5.115 19.169,5.11 18.821,3.885 c -0.451,-1.587 -1.19,-1.587 -1.642,0 L 17.005,4.497 16.831,5.11 16.01,7.996 14.149,5.646 14.148,5.645 13.753,5.146 13.356,4.645 C 12.333,3.355 11.652,3.638 11.841,5.274 l 0.074,0.634 0.073,0.632 0,0.001 L 12.334,9.52 9.157,7.75 8.6,7.44 C 7.159,6.637 6.637,7.159 7.439,8.6 l 0.31,0.556 1.77,3.177 -2.979,-0.346 -0.001,0 L 5.907,11.914 5.272,11.84 C 3.636,11.651 3.354,12.332 4.643,13.355 l 0.501,0.397 0.499,0.395 0.001,10e-4 2.35,1.861 -2.884,0.822 -0.612,0.174 -0.612,0.174 c -1.587,0.452 -1.587,1.19 0,1.642 l 1.225,0.348 0.004,0.002 2.881,0.819 -2.851,2.258 -0.499,0.396 c -1.292,1.023 -1.011,1.705 0.623,1.517 L 5.907,24.081 6.539,24 6.541,24 9.489,23.66 8,26.286 8,26.288 7.72,26.844 7.424,27.402 c -0.8,1.44 -0.271,1.96 1.169,1.158 l 0.56,-0.309 3.185,-1.77 -0.338,2.979 0,0.002 -0.08,0.632 -0.077,0.635 c -0.189,1.637 0.491,1.918 1.514,0.627 l 0.396,-0.5 0.395,-0.5 1.862,-2.352 0.82,2.885 0,0.001 0.174,0.612 0.175,0.613 c 0.452,1.586 1.105,1.586 1.557,-0.001 L 19,30.89 l 0,-0.004 0.905,-2.882 1.905,2.352 0.416,0.5 0.407,0.5 c 1.022,1.29 1.71,1.01 1.521,-0.625 L 24.076,30.094 24,29.461 24,29.458 23.66,26.511 26.284,28 l 0.002,0 0.557,0.28 0.558,0.295 c 1.44,0.803 1.963,0.272 1.16,-1.167 L 28.281,26.847 28,26.29 28,26.288 26.511,23.66 29.458,24 l 0.003,0 0.633,0.08 0.637,0.077 c 1.635,0.189 1.915,-0.492 0.625,-1.515 l -0.5,-0.396 -0.5,-0.395 -2.352,-1.947 2.882,-0.904 0.004,0 1.224,-0.264 z"
     id="path6"
     inkscape:connector-curvature="0"
     style="fill:#f4900c" />
  <circle
     cx="18"
     cy="18"
     r="9.6300001"
     id="circle8"
     style="fill:#ffe8b6" />
  <path
     d="m 36,32 0,-4.739 C 33.114,23.448 27.818,17 25,17 22.322,17 17.406,22.823 14.447,26.675 L 14.447,36 32,36 c 2.209,0 4,-1.791 4,-4 z"
     id="path10"
     inkscape:connector-curvature="0"
     style="fill:#5c913b" />
  <path
     d="M 9,23 C 6.751,23 2.922,27.109 0,30.707 L 0,32 c 0,2.209 1.791,4 4,4 l 18,0 C 22,36 18.204,30.519 14.447,26.675 12.419,24.6 10.402,23 9,23 Z"
     id="path12"
     inkscape:connector-curvature="0"
     style="fill:#3e721d" />
</svg>
