<?xml version="1.0" encoding="UTF-8" standalone="no"?>
<svg
   xmlns:dc="http://purl.org/dc/elements/1.1/"
   xmlns:cc="http://creativecommons.org/ns#"
   xmlns:rdf="http://www.w3.org/1999/02/22-rdf-syntax-ns#"
   xmlns:svg="http://www.w3.org/2000/svg"
   xmlns="http://www.w3.org/2000/svg"
   xmlns:sodipodi="http://sodipodi.sourceforge.net/DTD/sodipodi-0.dtd"
   xmlns:inkscape="http://www.inkscape.org/namespaces/inkscape"
   viewBox="0 0 36 36"
   id="svg2"
   version="1.1"
   inkscape:version="0.91 r13725"
   sodipodi:docname="1f309.svg"
   width="36"
   height="36">
  <metadata
     id="metadata36">
    <rdf:RDF>
      <cc:Work
         rdf:about="">
        <dc:format>image/svg+xml</dc:format>
        <dc:type
           rdf:resource="http://purl.org/dc/dcmitype/StillImage" />
      </cc:Work>
    </rdf:RDF>
  </metadata>
  <defs
     id="defs34" />
  <sodipodi:namedview
     pagecolor="#ffffff"
     bordercolor="#666666"
     borderopacity="1"
     objecttolerance="10"
     gridtolerance="10"
     guidetolerance="10"
     inkscape:pageopacity="0"
     inkscape:pageshadow="2"
     inkscape:window-width="640"
     inkscape:window-height="480"
     id="namedview32"
     showgrid="false"
     inkscape:zoom="6.5555556"
     inkscape:cx="18"
     inkscape:cy="18"
     inkscape:window-x="0"
     inkscape:window-y="0"
     inkscape:window-maximized="0"
     inkscape:current-layer="svg2" />
  <path
     d="m 36,32 c 0,2.209 -1.791,4 -4,4 L 4,36 C 1.791,36 0,34.209 0,32 L 0,4 C 0,1.791 1.791,0 4,0 l 28,0 c 2.209,0 4,1.791 4,4 l 0,28 z"
     id="path4"
     inkscape:connector-curvature="0"
     style="fill:#004a77" />
  <path
     d="m 32,23.958 c 1.575,0.963 2.957,1.676 4,2.171 l 0,-2.07 C 32.465,22.229 25.013,17.594 20,9 20,9 20,7 18,7 16,7 16,9 16,9 10.987,17.594 3.535,22.229 0,24.059 l 0,2.07 C 1.043,25.634 2.425,24.921 4,23.958 L 4,27 l -4,0 0,4 16,0 0,5 4,0 0,-5 16,0 0,-4 -4,0 0,-3.042 z M 30,27 l -4,0 0,-7.435 c 1.362,1.186 2.716,2.214 4,3.095 L 30,27 Z M 6,22.659 c 1.284,-0.88 2.637,-1.908 4,-3.094 L 10,27 6,27 6,22.659 Z M 12,27 12,17.708 c 1.384,-1.375 2.74,-2.923 4,-4.655 L 16,27 12,27 Z m 8,-13.946 c 1.26,1.731 2.616,3.28 4,4.655 L 24,27 20,27 20,13.054 Z"
     id="path6"
     inkscape:connector-curvature="0"
     style="fill:#fe5011" />
  <g
     id="g8"
     style="fill:#ffffff">
    <path
       d="M 6.5,7 C 5.119,7 4,5.881 4,4.5 4,3.37 4.755,2.426 5.784,2.117 5.533,2.048 5.273,2 5,2 3.343,2 2,3.343 2,5 2,6.657 3.343,8 5,8 5.959,8 6.803,7.542 7.353,6.841 7.085,6.938 6.801,7 6.5,7 Z"
       id="path10"
       inkscape:connector-curvature="0" />
    <circle
       cx="10.5"
       cy="2.5"
       r="0.5"
       id="circle12" />
    <circle
       cx="26.5"
       cy="11.5"
       r="0.5"
       id="circle14" />
    <circle
       cx="7.5"
       cy="11.5"
       r="0.5"
       id="circle16" />
    <circle
       cx="22"
       cy="5"
       r="1"
       id="circle18" />
    <circle
       cx="4"
       cy="17"
       r="1"
       id="circle20" />
    <circle
       cx="12"
       cy="7"
       r="1"
       id="circle22" />
    <circle
       cx="32"
       cy="17"
       r="1"
       id="circle24" />
    <circle
       cx="26.5"
       cy="5.5"
       r="0.5"
       id="circle26" />
    <circle
       cx="31"
       cy="3"
       r="1"
       id="circle28" />
    <circle
       cx="31.5"
       cy="7.5"
       r="0.5"
       id="circle30" />
  </g>
</svg>
