<?xml version="1.0" encoding="UTF-8" standalone="no"?>
<svg
   xmlns:dc="http://purl.org/dc/elements/1.1/"
   xmlns:cc="http://creativecommons.org/ns#"
   xmlns:rdf="http://www.w3.org/1999/02/22-rdf-syntax-ns#"
   xmlns:svg="http://www.w3.org/2000/svg"
   xmlns="http://www.w3.org/2000/svg"
   xmlns:sodipodi="http://sodipodi.sourceforge.net/DTD/sodipodi-0.dtd"
   xmlns:inkscape="http://www.inkscape.org/namespaces/inkscape"
   viewBox="0 0 36 36"
   id="svg2"
   version="1.1"
   inkscape:version="0.91 r13725"
   sodipodi:docname="1f307.svg"
   width="36"
   height="36">
  <metadata
     id="metadata20">
    <rdf:RDF>
      <cc:Work
         rdf:about="">
        <dc:format>image/svg+xml</dc:format>
        <dc:type
           rdf:resource="http://purl.org/dc/dcmitype/StillImage" />
      </cc:Work>
    </rdf:RDF>
  </metadata>
  <defs
     id="defs18" />
  <sodipodi:namedview
     pagecolor="#ffffff"
     bordercolor="#666666"
     borderopacity="1"
     objecttolerance="10"
     gridtolerance="10"
     guidetolerance="10"
     inkscape:pageopacity="0"
     inkscape:pageshadow="2"
     inkscape:window-width="640"
     inkscape:window-height="480"
     id="namedview16"
     showgrid="false"
     inkscape:zoom="6.5555556"
     inkscape:cx="18"
     inkscape:cy="18"
     inkscape:window-x="0"
     inkscape:window-y="0"
     inkscape:window-maximized="0"
     inkscape:current-layer="svg2" />
  <path
     d="M 32,0 4,0 C 1.791,0 0,1.791 0,4 L 0,32 36,32 36,4 C 36,1.791 34.209,0 32,0 Z"
     id="path4"
     inkscape:connector-curvature="0"
     style="fill:#ffcc4d" />
  <path
     d="m 32.114,16.736 c 1.587,-0.451 1.587,-1.147 0.001,-1.599 L 31.556,14.983 31,14.82 31,14.825 28.06,13.934 30.383,12 l -0.014,0 0.493,-0.322 0.497,-0.359 C 32.65,10.296 32.367,9.633 30.73,9.821 L 30.094,9.91 29.462,10 29.46,10 26.481,10.339 28.251,7.159 28.56,6.601 C 29.362,5.161 28.841,4.638 27.402,5.438 L 26.844,5.72 26.288,6 26.286,6 23.66,7.489 24,4.542 24,4.539 24.08,3.907 24.157,3.269 C 24.345,1.635 23.665,1.354 22.641,2.646 L 22.247,3.145 19.99,5.996 19.171,3.115 19.169,3.11 18.821,1.885 c -0.451,-1.587 -1.19,-1.587 -1.642,0 L 17.005,2.497 16.831,3.11 16.01,5.996 14.149,3.646 14.148,3.645 13.753,3.146 13.356,2.645 C 12.333,1.355 11.652,1.638 11.841,3.274 l 0.074,0.634 0.073,0.632 0,0.001 L 12.334,7.52 9.157,5.75 8.6,5.439 C 7.159,4.637 6.637,5.159 7.439,6.6 l 0.31,0.556 1.77,3.177 L 6.54,9.987 6.539,9.987 5.907,9.914 5.272,9.84 C 3.636,9.651 3.354,10.332 4.643,11.355 l 0.501,0.397 0.499,0.395 0.001,10e-4 2.35,1.861 -2.884,0.822 -0.612,0.174 -0.612,0.174 c -1.587,0.452 -1.587,1.19 0,1.642 l 1.225,0.348 0.004,0.002 2.881,0.819 -2.851,2.258 -0.499,0.396 c -1.292,1.023 -1.011,1.705 0.623,1.517 L 5.907,22.081 6.539,22 6.541,22 9.489,21.66 8,24.286 8,24.288 7.72,24.844 7.424,25.403 c -0.8,1.44 -0.271,1.96 1.169,1.158 l 0.56,-0.309 3.185,-1.77 -0.338,2.978 0,0.002 -0.08,0.632 -0.077,0.635 c -0.189,1.637 0.491,1.918 1.514,0.627 l 0.396,-0.5 0.395,-0.5 1.862,-2.352 0.82,2.885 0,0.001 0.174,0.612 0.175,0.613 c 0.452,1.586 1.105,1.586 1.557,-10e-4 L 19,28.89 l 0,-0.004 0.905,-2.882 1.905,2.352 0.416,0.5 0.407,0.5 c 1.022,1.29 1.71,1.01 1.521,-0.625 L 24.076,28.094 24,27.461 24,27.458 23.66,24.511 26.284,26 l 0.002,0 0.557,0.28 0.558,0.295 c 1.44,0.803 1.963,0.273 1.16,-1.167 L 28.281,24.848 28,24.29 28,24.288 26.511,21.66 29.458,22 l 0.003,0 0.633,0.08 0.637,0.077 c 1.635,0.188 1.915,-0.492 0.625,-1.515 l -0.5,-0.395 -0.5,-0.395 -2.352,-1.947 2.882,-0.905 0.004,0 1.224,-0.264 z"
     id="path6"
     inkscape:connector-curvature="0"
     style="fill:#f4900c" />
  <circle
     cx="18"
     cy="16"
     r="9.6300001"
     id="circle8"
     style="fill:#ffe8b6" />
  <path
     d="m 10,36 0,-21 4,-4 2,0 4,4 0,21 z M 33,19 c 0,-1 -1,-1 -1,-1 l -7,0 c 0,0 -1,0 -1,1 l 0,17 9,0 0,-17 z"
     id="path10"
     inkscape:connector-curvature="0"
     style="fill:#485359" />
  <path
     d="m 28,25 c 0,-1 -1,-1 -1,-1 l -8,0 c -1,0 -1,1 -1,1 l 0,11 10,0 0,-11 z m -17,2 -5,0 0,-5 c 0,0 0,-1 -1,-1 l -5,0 0,11 c 0,2.209 1.791,4 4,4 l 8,0 0,-8 c 0,0 0,-1 -1,-1 z m 21,4 c -1,0 -1,1 -1,1 l 0,4 1,0 c 2.209,0 4,-1.791 4,-4 l 0,-1 -4,0 z"
     id="path12"
     inkscape:connector-curvature="0"
     style="fill:#292f33" />
  <path
     d="m 8,29 2,0 0,2 -2,0 z m -2,4 2,0 0,2 -2,0 z m 10,-16 2,0 0,2 -2,0 z m 0,4 2,0 0,2 -2,0 z m -2,4 2,0 0,2 -2,0 z m 10,1 2,0 0,2 -2,0 z m -2,4 2,0 0,2 -2,0 z m 7,-10 2,0 0,2 -2,0 z m 0,4 2,0 0,2 -2,0 z"
     id="path14"
     inkscape:connector-curvature="0"
     style="fill:#ffcc4d" />
</svg>
