<?xml version="1.0" encoding="UTF-8" standalone="no"?>
<svg
   xmlns:dc="http://purl.org/dc/elements/1.1/"
   xmlns:cc="http://creativecommons.org/ns#"
   xmlns:rdf="http://www.w3.org/1999/02/22-rdf-syntax-ns#"
   xmlns:svg="http://www.w3.org/2000/svg"
   xmlns="http://www.w3.org/2000/svg"
   xmlns:sodipodi="http://sodipodi.sourceforge.net/DTD/sodipodi-0.dtd"
   xmlns:inkscape="http://www.inkscape.org/namespaces/inkscape"
   viewBox="0 0 36 36"
   id="svg2"
   version="1.1"
   inkscape:version="0.91 r13725"
   sodipodi:docname="1f30d.svg"
   width="36"
   height="36">
  <metadata
     id="metadata12">
    <rdf:RDF>
      <cc:Work
         rdf:about="">
        <dc:format>image/svg+xml</dc:format>
        <dc:type
           rdf:resource="http://purl.org/dc/dcmitype/StillImage" />
      </cc:Work>
    </rdf:RDF>
  </metadata>
  <defs
     id="defs10" />
  <sodipodi:namedview
     pagecolor="#ffffff"
     bordercolor="#666666"
     borderopacity="1"
     objecttolerance="10"
     gridtolerance="10"
     guidetolerance="10"
     inkscape:pageopacity="0"
     inkscape:pageshadow="2"
     inkscape:window-width="640"
     inkscape:window-height="480"
     id="namedview8"
     showgrid="false"
     inkscape:zoom="6.5555556"
     inkscape:cx="18"
     inkscape:cy="18"
     inkscape:window-x="0"
     inkscape:window-y="0"
     inkscape:window-maximized="0"
     inkscape:current-layer="svg2" />
  <circle
     cx="18"
     cy="18"
     r="18"
     id="circle4"
     style="fill:#88c9f9" />
  <path
     d="m 25.716,1.756 c -1.022,0.568 -1.872,1.528 -3.028,1.181 -1.875,-0.562 -4.375,-1.812 -6,-0.25 -1.625,1.562 -2,3 0,2.938 2,-0.062 3.375,-2.438 4.375,-1.438 1,1 0.749,1.813 -1.625,2.125 C 17.064,6.624 14.5,7 13.125,7 11.75,7 11.437,7.812 12.375,8.688 13.313,9.564 11.812,9.625 10.25,10.5 c -1.562,0.875 0.375,1.25 1.688,2 1.313,0.75 2.312,-0.188 2.875,-1.438 0.563,-1.25 2.981,-2.75 3.99,-2.562 1.01,0.188 1.01,0.688 0.822,1.562 -0.188,0.874 0.75,0.625 0.812,-0.375 0.062,-1 1.188,-1.75 2.062,-1.812 0.874,-0.062 1.625,1.188 0.625,1.812 -1,0.624 -2,1.125 -0.75,1.438 1.25,0.313 2.125,1.938 0.688,2.625 -1.437,0.687 -3.937,1.125 -5.062,0.562 -1.125,-0.563 -3.688,-1.375 -4.375,-0.938 -0.687,0.437 -1.062,0.89 -1.875,1.195 -0.812,0.305 -4.125,1.805 -4.188,3.743 -0.063,1.938 -0.124,4.126 1.188,4.188 1.312,0.062 4.5,-0.812 5.5,-1.625 1,-0.813 2.375,-0.625 2.812,0.312 0.437,0.937 0.125,1.5 -0.312,3 -0.437,1.5 0.286,2.25 0.987,3.562 0.701,1.312 1.263,2.062 1.263,3 0,0.938 1,1.875 2.5,0.312 1.5,-1.563 2.875,-4.625 3.5,-5.75 0.625,-1.125 1.125,-3.625 1.875,-4.125 0.75,-0.5 1.938,-1.688 1.062,-1.5 -0.876,0.188 -2.625,-0.062 -3.062,-1.312 -0.437,-1.25 -2.312,-3.625 -1.438,-3.875 0.874,-0.25 1.875,1.39 2.25,2.164 0.375,0.774 0.875,1.711 1.625,1.961 0.75,0.25 2.375,-1.673 2.875,-1.961 0.5,-0.289 0.125,-1.476 -0.875,-1.351 -1,0.125 -2.312,0 -2.312,-0.624 0,-0.624 1.25,-1.438 2.25,-1.25 1,0.188 1.75,0.5 2.375,1.25 0.625,0.75 1.875,2.125 2.375,3 0.5,0.875 0.875,1 1.125,-0.562 0.166,-1.038 0.387,-1.609 0.59,-2.222 C 34.702,9.075 30.895,4.221 25.716,1.756 Z"
     id="path6"
     inkscape:connector-curvature="0"
     style="fill:#5c913b" />
</svg>
