<?xml version="1.0" encoding="UTF-8" standalone="no"?>
<svg
   xmlns:dc="http://purl.org/dc/elements/1.1/"
   xmlns:cc="http://creativecommons.org/ns#"
   xmlns:rdf="http://www.w3.org/1999/02/22-rdf-syntax-ns#"
   xmlns:svg="http://www.w3.org/2000/svg"
   xmlns="http://www.w3.org/2000/svg"
   xmlns:sodipodi="http://sodipodi.sourceforge.net/DTD/sodipodi-0.dtd"
   xmlns:inkscape="http://www.inkscape.org/namespaces/inkscape"
   viewBox="0 0 29.347 35.894001"
   id="svg2"
   version="1.1"
   inkscape:version="0.91 r13725"
   sodipodi:docname="1f31b.svg"
   width="29.347"
   height="35.894001">
  <metadata
     id="metadata22">
    <rdf:RDF>
      <cc:Work
         rdf:about="">
        <dc:format>image/svg+xml</dc:format>
        <dc:type
           rdf:resource="http://purl.org/dc/dcmitype/StillImage" />
      </cc:Work>
    </rdf:RDF>
  </metadata>
  <defs
     id="defs20" />
  <sodipodi:namedview
     pagecolor="#ffffff"
     bordercolor="#666666"
     borderopacity="1"
     objecttolerance="10"
     gridtolerance="10"
     guidetolerance="10"
     inkscape:pageopacity="0"
     inkscape:pageshadow="2"
     inkscape:window-width="640"
     inkscape:window-height="480"
     id="namedview18"
     showgrid="false"
     inkscape:zoom="6.5555556"
     inkscape:cx="11.347"
     inkscape:cy="18"
     inkscape:window-x="0"
     inkscape:window-y="0"
     inkscape:window-maximized="0"
     inkscape:current-layer="svg2" />
  <path
     d="M 18.347,12.894 C 18.347,7.91 16.413,3.389 13.274,0 c 9.034,0.962 16.073,8.604 16.073,17.894 0,9.941 -8.06,18 -18,18 -4.303,0 -8.25,-1.515 -11.347,-4.033 7.163,-0.245 13.305,-4.451 16.35,-10.484 0.622,-1.232 -2.795,-1.201 -2.962,-3.482 -0.154,-2.131 4.959,-2.741 4.959,-5.001"
     id="path4"
     inkscape:connector-curvature="0"
     style="fill:#ffd983" />
  <g
     id="g6"
     style="fill:#ffcc4d"
     transform="translate(-6.653,-0.106)">
    <circle
       cx="25.5"
       cy="28.5"
       r="3.5"
       id="circle8" />
    <circle
       cx="27"
       cy="7"
       r="1"
       id="circle10" />
    <circle
       cx="18"
       cy="32"
       r="1"
       id="circle12" />
    <circle
       cx="33"
       cy="20"
       r="2"
       id="circle14" />
  </g>
  <path
     d="m 13.144,25.917 c 0.775,-0.819 1.48,-1.705 2.104,-2.651 5.449,1.226 7.637,-0.273 7.316,0.807 -0.34,1.147 -4.797,3.008 -9.42,1.844 m 6.203,-11.523 c 0,1.381 1.12,2.5 2.5,2.5 1.38,0 2.5,-1.119 2.5,-2.5 0,-1.381 -1.12,-2.5 -2.5,-2.5 -1.38,0 -2.5,1.119 -2.5,2.5"
     id="path16"
     inkscape:connector-curvature="0"
     style="fill:#292f33" />
</svg>
