<?xml version="1.0" encoding="UTF-8" standalone="no"?>
<svg
   xmlns:dc="http://purl.org/dc/elements/1.1/"
   xmlns:cc="http://creativecommons.org/ns#"
   xmlns:rdf="http://www.w3.org/1999/02/22-rdf-syntax-ns#"
   xmlns:svg="http://www.w3.org/2000/svg"
   xmlns="http://www.w3.org/2000/svg"
   xmlns:sodipodi="http://sodipodi.sourceforge.net/DTD/sodipodi-0.dtd"
   xmlns:inkscape="http://www.inkscape.org/namespaces/inkscape"
   viewBox="0 0 36 36"
   id="svg2"
   version="1.1"
   inkscape:version="0.91 r13725"
   sodipodi:docname="1f312.svg"
   width="36"
   height="36">
  <metadata
     id="metadata30">
    <rdf:RDF>
      <cc:Work
         rdf:about="">
        <dc:format>image/svg+xml</dc:format>
        <dc:type
           rdf:resource="http://purl.org/dc/dcmitype/StillImage" />
      </cc:Work>
    </rdf:RDF>
  </metadata>
  <defs
     id="defs28" />
  <sodipodi:namedview
     pagecolor="#ffffff"
     bordercolor="#666666"
     borderopacity="1"
     objecttolerance="10"
     gridtolerance="10"
     guidetolerance="10"
     inkscape:pageopacity="0"
     inkscape:pageshadow="2"
     inkscape:window-width="640"
     inkscape:window-height="480"
     id="namedview26"
     showgrid="false"
     inkscape:zoom="6.5555556"
     inkscape:cx="18"
     inkscape:cy="18"
     inkscape:window-x="0"
     inkscape:window-y="0"
     inkscape:window-maximized="0"
     inkscape:current-layer="svg2" />
  <circle
     cx="18"
     cy="18"
     r="18"
     id="circle4"
     style="fill:#ffd983" />
  <path
     d="m 0,18 c 0,9.941 8.059,18 18,18 0.295,0 0.58,-0.029 0.87,-0.043 C 24.761,33.393 29,26.332 29,18 29,9.669 24.761,2.607 18.87,0.044 18.58,0.03 18.295,0 18,0 8.059,0 0,8.059 0,18 Z"
     id="path6"
     inkscape:connector-curvature="0"
     style="fill:#66757f" />
  <circle
     cx="10.5"
     cy="8.5"
     r="3.5"
     id="circle8"
     style="fill:#5b6876" />
  <circle
     cx="20"
     cy="16"
     r="3"
     id="circle10"
     style="fill:#5b6876" />
  <circle
     cx="21.5"
     cy="27.5"
     r="3.5"
     id="circle12"
     style="fill:#5b6876" />
  <circle
     cx="21"
     cy="6"
     r="2"
     id="circle14"
     style="fill:#5b6876" />
  <circle
     cx="3"
     cy="18"
     r="1"
     id="circle16"
     style="fill:#5b6876" />
  <circle
     cx="30"
     cy="9"
     r="1"
     id="circle18"
     style="fill:#ffcc4d" />
  <circle
     cx="15"
     cy="31"
     r="1"
     id="circle20"
     style="fill:#5b6876" />
  <circle
     cx="32"
     cy="19"
     r="2"
     id="circle22"
     style="fill:#ffcc4d" />
  <circle
     cx="10"
     cy="23"
     r="2"
     id="circle24"
     style="fill:#5b6876" />
</svg>
