<?xml version="1.0" encoding="UTF-8" standalone="no"?>
<svg
   xmlns:dc="http://purl.org/dc/elements/1.1/"
   xmlns:cc="http://creativecommons.org/ns#"
   xmlns:rdf="http://www.w3.org/1999/02/22-rdf-syntax-ns#"
   xmlns:svg="http://www.w3.org/2000/svg"
   xmlns="http://www.w3.org/2000/svg"
   xmlns:sodipodi="http://sodipodi.sourceforge.net/DTD/sodipodi-0.dtd"
   xmlns:inkscape="http://www.inkscape.org/namespaces/inkscape"
   viewBox="0 0 36 36"
   id="svg2"
   version="1.1"
   inkscape:version="0.91 r13725"
   sodipodi:docname="1f31a.svg"
   width="36"
   height="36">
  <metadata
     id="metadata30">
    <rdf:RDF>
      <cc:Work
         rdf:about="">
        <dc:format>image/svg+xml</dc:format>
        <dc:type
           rdf:resource="http://purl.org/dc/dcmitype/StillImage" />
      </cc:Work>
    </rdf:RDF>
  </metadata>
  <defs
     id="defs28" />
  <sodipodi:namedview
     pagecolor="#ffffff"
     bordercolor="#666666"
     borderopacity="1"
     objecttolerance="10"
     gridtolerance="10"
     guidetolerance="10"
     inkscape:pageopacity="0"
     inkscape:pageshadow="2"
     inkscape:window-width="640"
     inkscape:window-height="480"
     id="namedview26"
     showgrid="false"
     inkscape:zoom="6.5555556"
     inkscape:cx="18"
     inkscape:cy="18"
     inkscape:window-x="0"
     inkscape:window-y="0"
     inkscape:window-maximized="0"
     inkscape:current-layer="svg2" />
  <path
     d="M 36,18 C 36,27.94 27.94,36 18,36 8.059,36 0,27.94 0,18 0,8.059 8.059,0 18,0 27.94,0 36,8.059 36,18"
     id="path4"
     inkscape:connector-curvature="0"
     style="fill:#66757f" />
  <g
     id="g6"
     style="fill:#5b6876">
    <circle
       cx="9.5"
       cy="7.5"
       r="3.5"
       id="circle8" />
    <circle
       cx="24.5"
       cy="28.5"
       r="3.5"
       id="circle10" />
    <circle
       cx="22"
       cy="5"
       r="2"
       id="circle12" />
    <circle
       cx="3"
       cy="18"
       r="1"
       id="circle14" />
    <circle
       cx="30"
       cy="9"
       r="1"
       id="circle16" />
    <circle
       cx="16"
       cy="31"
       r="1"
       id="circle18" />
    <circle
       cx="32"
       cy="19"
       r="2"
       id="circle20" />
    <circle
       cx="6"
       cy="26"
       r="2"
       id="circle22" />
  </g>
  <path
     d="m 18,24.904 c -7,0 -9,-2.618 -9,-1.381 0,1.239 4,4.477 9,4.477 5,0 9,-3.238 9,-4.477 0,-1.237 -2,1.381 -9,1.381 M 27,15 c 0,1.657 -1.344,3 -3,3 -1.656,0 -3,-1.343 -3,-3 0,-1.657 1.344,-3 3,-3 1.656,0 3,1.343 3,3 m -12,0 c 0,1.657 -1.344,3 -3,3 -1.656,0 -3,-1.343 -3,-3 0,-1.657 1.344,-3 3,-3 1.656,0 3,1.343 3,3"
     id="path24"
     inkscape:connector-curvature="0"
     style="fill:#292f33" />
</svg>
