<?xml version="1.0" encoding="UTF-8" standalone="no"?>
<svg
   xmlns:dc="http://purl.org/dc/elements/1.1/"
   xmlns:cc="http://creativecommons.org/ns#"
   xmlns:rdf="http://www.w3.org/1999/02/22-rdf-syntax-ns#"
   xmlns:svg="http://www.w3.org/2000/svg"
   xmlns="http://www.w3.org/2000/svg"
   xmlns:sodipodi="http://sodipodi.sourceforge.net/DTD/sodipodi-0.dtd"
   xmlns:inkscape="http://www.inkscape.org/namespaces/inkscape"
   viewBox="0 0 32.842846 32.841843"
   id="svg2"
   version="1.1"
   inkscape:version="0.91 r13725"
   sodipodi:docname="1f32d.svg"
   width="32.842846"
   height="32.841843">
  <metadata
     id="metadata16">
    <rdf:RDF>
      <cc:Work
         rdf:about="">
        <dc:format>image/svg+xml</dc:format>
        <dc:type
           rdf:resource="http://purl.org/dc/dcmitype/StillImage" />
      </cc:Work>
    </rdf:RDF>
  </metadata>
  <defs
     id="defs14" />
  <sodipodi:namedview
     pagecolor="#ffffff"
     bordercolor="#666666"
     borderopacity="1"
     objecttolerance="10"
     gridtolerance="10"
     guidetolerance="10"
     inkscape:pageopacity="0"
     inkscape:pageshadow="2"
     inkscape:window-width="640"
     inkscape:window-height="480"
     id="namedview12"
     showgrid="false"
     inkscape:zoom="6.5555556"
     inkscape:cx="16.471464"
     inkscape:cy="16.42038"
     inkscape:window-x="0"
     inkscape:window-y="0"
     inkscape:window-maximized="0"
     inkscape:current-layer="svg2" />
  <path
     d="m 29.891464,29.892464 c -3.515,3.515 -9.213,3.515 -12.728,0 l -14.1419996,-14.143 c -3.515,-3.515 -3.515,-9.2129996 0,-12.7279996 3.515,-3.515 9.2129996,-3.515 12.7279996,0 l 14.142,14.1429996 c 3.515,3.514 3.515,9.213 0,12.728 z"
     id="path4"
     inkscape:connector-curvature="0"
     style="fill:#d99e82" />
  <path
     d="m 27.806464,19.321464 c 3.515,3.515 4.609,8.119 2.475,10.253 -2.135,2.134 -6.739,1.039 -10.253,-2.475 l -14.1429996,-14.142 c -3.515,-3.5149996 -4.609,-8.1199996 -2.475,-10.2529996 2.134,-2.134 6.7379996,-1.04 10.2529996,2.475 l 14.143,14.1419996 z"
     id="path6"
     inkscape:connector-curvature="0"
     style="fill:#f7bba6" />
  <path
     d="m 31.638464,27.395464 c 1.415,1.415 1.611,3.51 0.44,4.682 -1.172,1.171 -3.267,0.975 -4.682,-0.44 L 1.2034644,5.4464644 c -1.414,-1.414 -1.61,-3.51 -0.439,-4.682 1.171,-1.171 3.268,-0.975 4.682,0.439 L 31.638464,27.395464 Z"
     id="path8"
     inkscape:connector-curvature="0"
     style="fill:#dd2e44" />
  <path
     d="m 30.598464,30.185464 c -0.256,0 -0.512,-0.098 -0.707,-0.293 -0.916,-0.916 -1.598,-1.07 -2.462,-1.266 -0.988,-0.224 -2.109,-0.478 -3.435,-1.803 -1.326,-1.325 -1.578,-2.446 -1.802,-3.435 -0.195,-0.863 -0.35,-1.546 -1.266,-2.462 -0.915,-0.915 -1.597,-1.069 -2.46,-1.264 -0.989,-0.224 -2.11,-0.477 -3.434,-1.801 -1.323,-1.324 -1.576,-2.444 -1.799,-3.432 -0.194,-0.862 -0.348,-1.543 -1.262,-2.458 -0.914,-0.914 -1.595,-1.067 -2.4569996,-1.262 -0.988,-0.223 -2.108,-0.476 -3.432,-1.7989996 -1.322,-1.322 -1.575,-2.442 -1.798,-3.43 -0.195,-0.863 -0.348,-1.544 -1.263,-2.458 -0.391,-0.39 -0.391,-1.023 0,-1.414 0.391,-0.391 1.023,-0.391 1.414,0 1.324,1.323 1.577,2.443 1.8,3.432 0.195,0.862 0.348,1.543 1.263,2.458 0.914,0.914 1.595,1.067 2.457,1.262 0.9879996,0.223 2.1079996,0.476 3.4319996,1.7989996 1.324,1.324 1.576,2.444 1.799,3.432 0.194,0.862 0.348,1.543 1.262,2.458 0.916,0.916 1.597,1.07 2.46,1.264 0.988,0.224 2.109,0.477 3.434,1.801 1.325,1.325 1.578,2.446 1.802,3.435 0.195,0.863 0.35,1.546 1.266,2.462 0.916,0.916 1.599,1.07 2.462,1.266 0.989,0.224 2.11,0.478 3.435,1.803 0.391,0.391 0.391,1.023 0,1.414 -0.197,0.193 -0.453,0.291 -0.709,0.291 z"
     id="path10"
     inkscape:connector-curvature="0"
     style="fill:#ffcc4d" />
</svg>
