<?xml version="1.0" encoding="UTF-8" standalone="no"?>
<svg
   xmlns:dc="http://purl.org/dc/elements/1.1/"
   xmlns:cc="http://creativecommons.org/ns#"
   xmlns:rdf="http://www.w3.org/1999/02/22-rdf-syntax-ns#"
   xmlns:svg="http://www.w3.org/2000/svg"
   xmlns="http://www.w3.org/2000/svg"
   xmlns:sodipodi="http://sodipodi.sourceforge.net/DTD/sodipodi-0.dtd"
   xmlns:inkscape="http://www.inkscape.org/namespaces/inkscape"
   viewBox="0 0 36 36"
   id="svg2"
   version="1.1"
   inkscape:version="0.91 r13725"
   sodipodi:docname="1f329.svg"
   width="36"
   height="36">
  <metadata
     id="metadata12">
    <rdf:RDF>
      <cc:Work
         rdf:about="">
        <dc:format>image/svg+xml</dc:format>
        <dc:type
           rdf:resource="http://purl.org/dc/dcmitype/StillImage" />
      </cc:Work>
    </rdf:RDF>
  </metadata>
  <defs
     id="defs10" />
  <sodipodi:namedview
     pagecolor="#ffffff"
     bordercolor="#666666"
     borderopacity="1"
     objecttolerance="10"
     gridtolerance="10"
     guidetolerance="10"
     inkscape:pageopacity="0"
     inkscape:pageshadow="2"
     inkscape:window-width="640"
     inkscape:window-height="480"
     id="namedview8"
     showgrid="false"
     inkscape:zoom="6.5555556"
     inkscape:cx="18"
     inkscape:cy="18"
     inkscape:window-x="0"
     inkscape:window-y="0"
     inkscape:window-maximized="0"
     inkscape:current-layer="svg2" />
  <path
     d="M 13.917,36 C 13.826,36 13.735,35.971 13.659,35.911 13.502,35.787 13.455,35.57 13.546,35.393 L 17,29 11.922,29 C 11.748,29 11.484,28.969 11.36,28.703 11.246,28.46 11.303,28.229 11.407,28 L 15,19 c 0.078,-0.067 6.902,0.393 7,0.393 0.09,0 0.182,0.029 0.257,0.089 0.157,0.124 0.204,0.341 0.112,0.519 l -3.817,6 5.032,0 c 0.174,0 0.329,0.108 0.391,0.271 0.06,0.163 0.013,0.347 -0.119,0.461 L 14.19,35.899 C 14.111,35.966 14.014,36 13.917,36 Z"
     id="path4"
     inkscape:connector-curvature="0"
     style="fill:#f4900c" />
  <path
     d="M 28,4 C 27.175,4 26.38,4.125 25.631,4.357 24.744,1.822 22.338,0 19.5,0 16.456,0 13.908,2.096 13.201,4.921 12.447,4.351 11.519,4 10.5,4 8.015,4 6,6.015 6,8.5 6,9.104 6.123,9.678 6.339,10.204 5.91,10.085 5.467,10 5,10 c -2.762,0 -5,2.238 -5,5 0,2.762 2.238,5 5,5 l 23,0 c 4.418,0 8,-3.581 8,-8 0,-4.418 -3.582,-8 -8,-8 z"
     id="path6"
     inkscape:connector-curvature="0"
     style="fill:#e1e8ed" />
</svg>
