<?xml version="1.0" encoding="UTF-8" standalone="no"?>
<svg
   xmlns:dc="http://purl.org/dc/elements/1.1/"
   xmlns:cc="http://creativecommons.org/ns#"
   xmlns:rdf="http://www.w3.org/1999/02/22-rdf-syntax-ns#"
   xmlns:svg="http://www.w3.org/2000/svg"
   xmlns="http://www.w3.org/2000/svg"
   xmlns:sodipodi="http://sodipodi.sourceforge.net/DTD/sodipodi-0.dtd"
   xmlns:inkscape="http://www.inkscape.org/namespaces/inkscape"
   viewBox="0 0 36 36"
   id="svg2"
   version="1.1"
   inkscape:version="0.91 r13725"
   sodipodi:docname="1f328.svg"
   width="36"
   height="36">
  <metadata
     id="metadata12">
    <rdf:RDF>
      <cc:Work
         rdf:about="">
        <dc:format>image/svg+xml</dc:format>
        <dc:type
           rdf:resource="http://purl.org/dc/dcmitype/StillImage" />
      </cc:Work>
    </rdf:RDF>
  </metadata>
  <defs
     id="defs10" />
  <sodipodi:namedview
     pagecolor="#ffffff"
     bordercolor="#666666"
     borderopacity="1"
     objecttolerance="10"
     gridtolerance="10"
     guidetolerance="10"
     inkscape:pageopacity="0"
     inkscape:pageshadow="2"
     inkscape:window-width="640"
     inkscape:window-height="480"
     id="namedview8"
     showgrid="false"
     inkscape:zoom="6.5555556"
     inkscape:cx="18"
     inkscape:cy="18"
     inkscape:window-x="0"
     inkscape:window-y="0"
     inkscape:window-maximized="0"
     inkscape:current-layer="svg2" />
  <path
     d="M 28,4 C 27.175,4 26.38,4.125 25.631,4.357 24.744,1.822 22.338,0 19.5,0 16.456,0 13.908,2.096 13.201,4.921 12.447,4.351 11.519,4 10.5,4 8.015,4 6,6.015 6,8.5 6,9.104 6.123,9.678 6.339,10.204 5.91,10.085 5.467,10 5,10 c -2.762,0 -5,2.238 -5,5 0,2.762 2.238,5 5,5 l 23,0 c 4.418,0 8,-3.581 8,-8 0,-4.418 -3.582,-8 -8,-8 z"
     id="path4"
     inkscape:connector-curvature="0"
     style="fill:#e1e8ed" />
  <path
     d="M 6.53,26.75 C 6.392,26.511 6.087,26.43 5.847,26.567 L 4,27.634 4,25.5 C 4,25.224 3.776,25 3.5,25 3.224,25 3,25.224 3,25.5 L 3,27.635 1.151,26.568 C 0.912,26.43 0.606,26.511 0.468,26.751 0.329,26.991 0.411,27.296 0.651,27.435 L 2.499,28.5 0.651,29.567 c -0.239,0.138 -0.32,0.443 -0.183,0.683 0.138,0.24 0.443,0.321 0.683,0.184 L 3,29.366 3,31.5 C 3,31.776 3.224,32 3.5,32 3.776,32 4,31.776 4,31.5 l 0,-2.133 1.848,1.067 C 6.087,30.572 6.393,30.491 6.531,30.25 6.669,30.011 6.588,29.705 6.348,29.567 L 4.5,28.5 6.348,27.433 C 6.587,27.295 6.669,26.99 6.53,26.75 Z m 10,4 C 16.392,30.511 16.087,30.43 15.847,30.567 L 14,31.634 14,29.5 C 14,29.224 13.776,29 13.5,29 13.224,29 13,29.224 13,29.5 l 0,2.135 -1.849,-1.067 c -0.239,-0.138 -0.545,-0.057 -0.683,0.183 -0.139,0.24 -0.057,0.545 0.183,0.684 l 1.848,1.067 -1.848,1.067 c -0.239,0.138 -0.32,0.443 -0.183,0.683 0.138,0.24 0.443,0.321 0.683,0.184 L 13,33.366 13,35.5 c 0,0.276 0.224,0.5 0.5,0.5 0.276,0 0.5,-0.224 0.5,-0.5 l 0,-2.133 1.848,1.067 c 0.239,0.138 0.545,0.057 0.683,-0.184 0.138,-0.239 0.057,-0.545 -0.183,-0.683 L 14.5,32.5 16.348,31.433 C 16.587,31.295 16.669,30.99 16.53,30.75 Z M 11,27.5 c 0,0.276 0.224,0.5 0.5,0.5 0.276,0 0.5,-0.224 0.5,-0.5 l 0,-2.133 1.848,1.067 c 0.239,0.138 0.545,0.057 0.683,-0.184 0.138,-0.239 0.057,-0.545 -0.183,-0.683 L 12.5,24.5 14.348,23.433 c 0.239,-0.139 0.321,-0.443 0.183,-0.684 -0.138,-0.239 -0.443,-0.32 -0.683,-0.183 L 12,23.634 12,21.5 C 12,21.224 11.776,21 11.5,21 11.224,21 11,21.224 11,21.5 l 0,2.135 -1.849,-1.067 C 8.912,22.43 8.606,22.511 8.468,22.751 c -0.139,0.24 -0.057,0.545 0.183,0.684 l 1.848,1.067 -1.848,1.067 c -0.239,0.138 -0.32,0.443 -0.183,0.683 0.138,0.24 0.443,0.321 0.683,0.184 L 11,25.366 11,27.5 Z m 12.848,-0.066 c 0.239,0.138 0.545,0.057 0.683,-0.184 0.138,-0.239 0.057,-0.545 -0.183,-0.683 L 22.5,25.5 24.348,24.433 c 0.239,-0.139 0.321,-0.443 0.183,-0.684 -0.138,-0.239 -0.443,-0.32 -0.683,-0.183 L 22,24.634 22,22.5 C 22,22.224 21.776,22 21.5,22 21.224,22 21,22.224 21,22.5 l 0,2.135 -1.849,-1.067 c -0.239,-0.138 -0.545,-0.057 -0.683,0.183 -0.139,0.24 -0.057,0.545 0.183,0.684 l 1.848,1.067 -1.848,1.067 c -0.239,0.138 -0.32,0.443 -0.183,0.683 0.138,0.24 0.443,0.321 0.683,0.184 L 21,26.366 21,28.5 c 0,0.276 0.224,0.5 0.5,0.5 0.276,0 0.5,-0.224 0.5,-0.5 l 0,-2.133 1.848,1.067 z M 34.348,25.567 32.5,24.5 34.348,23.433 c 0.239,-0.139 0.321,-0.443 0.183,-0.684 -0.138,-0.239 -0.443,-0.32 -0.683,-0.183 L 32,23.634 32,21.5 C 32,21.224 31.776,21 31.5,21 31.224,21 31,21.224 31,21.5 l 0,2.135 -1.849,-1.067 c -0.239,-0.138 -0.545,-0.057 -0.683,0.183 -0.139,0.24 -0.057,0.545 0.183,0.684 l 1.848,1.067 -1.848,1.067 c -0.239,0.138 -0.32,0.443 -0.183,0.683 0.138,0.24 0.443,0.321 0.683,0.184 L 31,25.366 31,27.5 c 0,0.276 0.224,0.5 0.5,0.5 0.276,0 0.5,-0.224 0.5,-0.5 l 0,-2.133 1.848,1.067 c 0.239,0.138 0.545,0.057 0.683,-0.184 0.137,-0.239 0.056,-0.545 -0.183,-0.683 z M 29.53,30.75 C 29.392,30.511 29.087,30.43 28.847,30.567 L 27,31.634 27,29.5 C 27,29.224 26.776,29 26.5,29 26.224,29 26,29.224 26,29.5 l 0,2.135 -1.849,-1.067 c -0.239,-0.138 -0.545,-0.057 -0.683,0.183 -0.139,0.24 -0.057,0.545 0.183,0.684 l 1.848,1.067 -1.848,1.067 c -0.239,0.138 -0.32,0.443 -0.183,0.683 0.138,0.24 0.443,0.321 0.683,0.184 L 26,33.366 26,35.5 c 0,0.276 0.224,0.5 0.5,0.5 0.276,0 0.5,-0.224 0.5,-0.5 l 0,-2.133 1.848,1.067 c 0.239,0.138 0.545,0.057 0.683,-0.184 0.138,-0.239 0.057,-0.545 -0.183,-0.683 L 27.5,32.5 29.348,31.433 c 0.239,-0.138 0.321,-0.443 0.182,-0.683 z"
     id="path6"
     inkscape:connector-curvature="0"
     style="fill:#5dadec" />
</svg>
