<?xml version="1.0" encoding="UTF-8" standalone="no"?>
<svg
   xmlns:dc="http://purl.org/dc/elements/1.1/"
   xmlns:cc="http://creativecommons.org/ns#"
   xmlns:rdf="http://www.w3.org/1999/02/22-rdf-syntax-ns#"
   xmlns:svg="http://www.w3.org/2000/svg"
   xmlns="http://www.w3.org/2000/svg"
   xmlns:sodipodi="http://sodipodi.sourceforge.net/DTD/sodipodi-0.dtd"
   xmlns:inkscape="http://www.inkscape.org/namespaces/inkscape"
   viewBox="0 0 36 22"
   id="svg2"
   version="1.1"
   inkscape:version="0.91 r13725"
   sodipodi:docname="1f32e.svg"
   width="36"
   height="22">
  <metadata
     id="metadata114">
    <rdf:RDF>
      <cc:Work
         rdf:about="">
        <dc:format>image/svg+xml</dc:format>
        <dc:type
           rdf:resource="http://purl.org/dc/dcmitype/StillImage" />
      </cc:Work>
    </rdf:RDF>
  </metadata>
  <defs
     id="defs112" />
  <sodipodi:namedview
     pagecolor="#ffffff"
     bordercolor="#666666"
     borderopacity="1"
     objecttolerance="10"
     gridtolerance="10"
     guidetolerance="10"
     inkscape:pageopacity="0"
     inkscape:pageshadow="2"
     inkscape:window-width="640"
     inkscape:window-height="480"
     id="namedview110"
     showgrid="false"
     inkscape:zoom="6.5555556"
     inkscape:cx="18"
     inkscape:cy="11"
     inkscape:window-x="0"
     inkscape:window-y="0"
     inkscape:window-maximized="0"
     inkscape:current-layer="svg2" />
  <path
     d="M 12,0 C 5.374,0 0,7.164 0,16 l 6,0 0,6 17.119,0 C 23.683,20.146 24,18.123 24,16 24,7.164 18.627,0 12,0 Z"
     id="path4"
     inkscape:connector-curvature="0"
     style="fill:#ffe8b6" />
  <path
     d="m 29,14 4.896,0 C 33.156,6.11 28.118,0 22,0 15.373,0 10,7.164 10,16 c 0,2.123 0.317,4.146 0.88,6 L 29,22 29,14 Z"
     id="path6"
     inkscape:connector-curvature="0"
     style="fill:#ffe8b6" />
  <path
     d="M 36,16 C 36,7.164 30.627,0 24,0 17.374,0 12,7.164 12,16 c 0,2.123 0.317,4.146 0.88,6 L 30,22 c 3.314,0 6,-2.685 6,-6 z"
     id="path8"
     inkscape:connector-curvature="0"
     style="fill:#ffac33" />
  <path
     d="m 6,16 10,0 0,6 -10,0 z"
     id="path10"
     inkscape:connector-curvature="0"
     style="fill:#ffac33" />
  <path
     d="m 0,16 c 0,-3.312 2.687,-6 6,-6 3.313,0 6,2.687 6,6 0,3.315 -2.687,6 -6,6 -3.313,0 -6,-2.685 -6,-6 z"
     id="path12"
     inkscape:connector-curvature="0"
     style="fill:#ffe8b6" />
  <path
     d="M 14,0 C 7.374,0 2,7.164 2,16 c 0,2.21 1.791,4 4,4 2.209,0 4,-1.79 4,-4 C 10,9.037 13.342,3.129 18,0.931 16.747,0.339 15.405,0 14,0 Z"
     id="path14"
     inkscape:connector-curvature="0"
     style="fill:#ffac33" />
  <circle
     cx="4"
     cy="16"
     r="1"
     id="circle16"
     style="fill:#d99e82" />
  <path
     d="M 9.975,16.25 C 9.855,15.541 9.243,15 8.5,15 8.32,15 8.15,15.037 7.99,15.095 7.992,15.062 8,15.032 8,15 8,13.896 7.104,13 6,13 4.896,13 4,13.896 4,15 4,15.525 4.207,16 4.539,16.357 4.212,16.633 4,17.039 4,17.5 c 0,0.678 0.453,1.244 1.07,1.43 0.167,0.557 0.651,0.962 1.241,1.039 1.978,-0.156 3.54,-1.733 3.664,-3.719 z"
     id="path18"
     inkscape:connector-curvature="0"
     style="fill:#c1694f" />
  <path
     d="M 9.5,14 C 8.672,14 8,14.672 8,15.5 8,16.328 8.672,17 9.5,17 9.63,17 9.754,16.979 9.875,16.947 9.95,16.642 10,16.328 10,16 10,15.363 10.037,14.739 10.091,14.122 9.91,14.044 9.711,14 9.5,14 Z"
     id="path20"
     inkscape:connector-curvature="0"
     style="fill:#d99e82" />
  <ellipse
     cx="6.5"
     cy="13"
     rx="1.5"
     ry="1"
     id="ellipse22"
     style="fill:#ffcc4d" />
  <circle
     cx="7"
     cy="14"
     r="1"
     id="circle24"
     style="fill:#ffcc4d" />
  <circle
     cx="9"
     cy="14"
     r="1"
     id="circle26"
     style="fill:#c1694f" />
  <circle
     cx="5"
     cy="15"
     r="1"
     id="circle28"
     style="fill:#d99e82" />
  <circle
     cx="7"
     cy="15"
     r="1"
     id="circle30"
     style="fill:#d99e82" />
  <circle
     cx="8"
     cy="13"
     r="1"
     id="circle32"
     style="fill:#ffd983" />
  <circle
     cx="7"
     cy="11"
     r="1"
     id="circle34"
     style="fill:#ffe8b6" />
  <circle
     cx="6"
     cy="13"
     r="1"
     id="circle36"
     style="fill:#ffe8b6" />
  <circle
     cx="9"
     cy="11"
     r="1"
     id="circle38"
     style="fill:#ffd983" />
  <circle
     cx="9"
     cy="13"
     r="1"
     id="circle40"
     style="fill:#ffd983" />
  <circle
     cx="9"
     cy="12"
     r="1"
     id="circle42"
     style="fill:#ffd983" />
  <circle
     cx="9"
     cy="12"
     r="1"
     id="circle44"
     style="fill:#ffe8b6" />
  <path
     d="M 10.572,5.453 C 10.3,5.174 9.921,5 9.5,5 8.762,5 8.152,5.533 8.027,6.235 7.812,6.096 7.549,6 7.25,6 6.56,6 6,6.448 6,7 6,7.19 6.084,7.358 6.2,7.51 6.077,7.656 6,7.821 6,8 5.448,8 5,8.448 5,9 5,9.202 5.075,9.379 5.178,9.537 5.068,9.676 5,9.832 5,10 5,10.552 5.671,11 6.5,11 6.93,11 7.315,10.878 7.589,10.684 7.843,10.879 8.156,11 8.5,11 c 0.198,0 0.385,-0.041 0.558,-0.11 0.163,0.602 0.69,1.042 1.331,1.091 0.495,-2.544 1.45,-4.835 2.738,-6.72 C 12.806,5.097 12.419,5 12,5 11.44,5 10.935,5.174 10.572,5.453 Z"
     id="path46"
     inkscape:connector-curvature="0"
     style="fill:#77b255" />
  <circle
     cx="8"
     cy="8"
     r="1"
     id="circle48"
     style="fill:#a6d388" />
  <path
     d="M 10,6.5 C 10,6.776 9.776,7 9.5,7 9.224,7 9,6.777 9,6.5 9,6.224 9.224,6 9.5,6 9.776,6 10,6.224 10,6.5 Z"
     id="path50"
     inkscape:connector-curvature="0"
     style="fill:#a6d388" />
  <circle
     cx="6.5"
     cy="9.5"
     r="0.5"
     id="circle52"
     style="fill:#a6d388" />
  <path
     d="M 10,9.5 C 10,9.776 9.776,10 9.5,10 9.224,10 9,9.777 9,9.5 9,9.223 9.224,9 9.5,9 9.776,9 10,9.224 10,9.5 Z"
     id="path54"
     inkscape:connector-curvature="0"
     style="fill:#a6d388" />
  <circle
     cx="10"
     cy="8"
     r="1"
     id="circle56"
     style="fill:#a6d388" />
  <circle
     cx="9"
     cy="5"
     r="1"
     id="circle58"
     style="fill:#dd2e44" />
  <circle
     cx="11"
     cy="5"
     r="1"
     id="circle60"
     style="fill:#ffd983" />
  <circle
     cx="12"
     cy="3"
     r="1"
     id="circle62"
     style="fill:#ffd983" />
  <circle
     cx="9"
     cy="7"
     r="1"
     id="circle64"
     style="fill:#ffd983" />
  <path
     d="m 15,2 c -0.552,0 -1,0.448 -1,1 0,0.035 0.016,0.064 0.02,0.098 C 13.858,3.038 13.684,3 13.5,3 12.671,3 12,3.671 12,4.5 12,5.061 12.311,5.543 12.767,5.801 13.612,4.447 14.623,3.288 15.756,2.365 15.573,2.147 15.308,2 15,2 Z"
     id="path66"
     inkscape:connector-curvature="0"
     style="fill:#a6d388" />
  <circle
     cx="12"
     cy="4"
     r="1"
     id="circle68"
     style="fill:#dd2e44" />
  <circle
     transform="matrix(0.16020853,-0.98708319,0.98708319,0.16020853,0,0)"
     cx="0.26875293"
     cy="14.139582"
     id="ellipse70"
     r="1"
     style="fill:#dd2e44" />
  <circle
     cx="17"
     cy="18"
     r="1"
     id="circle72"
     style="fill:#f4900c" />
  <circle
     cx="13"
     cy="21"
     r="1"
     id="circle74"
     style="fill:#f4900c" />
  <circle
     cx="19"
     cy="21"
     r="1"
     id="circle76"
     style="fill:#f4900c" />
  <circle
     cx="22"
     cy="20"
     r="1"
     id="circle78"
     style="fill:#f4900c" />
  <circle
     cx="26"
     cy="20"
     r="1"
     id="circle80"
     style="fill:#f4900c" />
  <circle
     cx="29"
     cy="21"
     r="1"
     id="circle82"
     style="fill:#f4900c" />
  <circle
     cx="31"
     cy="19"
     r="1"
     id="circle84"
     style="fill:#f4900c" />
  <circle
     cx="21"
     cy="15"
     r="1"
     id="circle86"
     style="fill:#f4900c" />
  <circle
     cx="15"
     cy="15"
     r="1"
     id="circle88"
     style="fill:#f4900c" />
  <circle
     cx="34"
     cy="17"
     r="1"
     id="circle90"
     style="fill:#f4900c" />
  <circle
     cx="17"
     cy="11"
     r="1"
     id="circle92"
     style="fill:#f4900c" />
  <circle
     cx="22"
     cy="9"
     r="1"
     id="circle94"
     style="fill:#f4900c" />
  <path
     d="m 20,5 c 0,0.552 -0.447,1 -1,1 -0.552,0 -1,-0.448 -1,-1 0,-0.552 0.448,-1 1,-1 0.553,0 1,0.448 1,1 z"
     id="path96"
     inkscape:connector-curvature="0"
     style="fill:#f4900c" />
  <circle
     cx="27"
     cy="6"
     r="1"
     id="circle98"
     style="fill:#f4900c" />
  <circle
     cx="24"
     cy="3"
     r="1"
     id="circle100"
     style="fill:#f4900c" />
  <circle
     cx="31"
     cy="12"
     r="1"
     id="circle102"
     style="fill:#f4900c" />
  <circle
     cx="26"
     cy="12"
     r="1"
     id="circle104"
     style="fill:#f4900c" />
  <circle
     cx="24"
     cy="16"
     r="1"
     id="circle106"
     style="fill:#f4900c" />
  <circle
     cx="29"
     cy="15"
     r="1"
     id="circle108"
     style="fill:#f4900c" />
</svg>
