<?xml version="1.0" encoding="UTF-8" standalone="no"?>
<svg
   xmlns:dc="http://purl.org/dc/elements/1.1/"
   xmlns:cc="http://creativecommons.org/ns#"
   xmlns:rdf="http://www.w3.org/1999/02/22-rdf-syntax-ns#"
   xmlns:svg="http://www.w3.org/2000/svg"
   xmlns="http://www.w3.org/2000/svg"
   xmlns:sodipodi="http://sodipodi.sourceforge.net/DTD/sodipodi-0.dtd"
   xmlns:inkscape="http://www.inkscape.org/namespaces/inkscape"
   viewBox="0 0 34 34.000751"
   id="svg2"
   version="1.1"
   inkscape:version="0.91 r13725"
   sodipodi:docname="1f321.svg"
   width="34"
   height="34.000751">
  <metadata
     id="metadata14">
    <rdf:RDF>
      <cc:Work
         rdf:about="">
        <dc:format>image/svg+xml</dc:format>
        <dc:type
           rdf:resource="http://purl.org/dc/dcmitype/StillImage" />
      </cc:Work>
    </rdf:RDF>
  </metadata>
  <defs
     id="defs12" />
  <sodipodi:namedview
     pagecolor="#ffffff"
     bordercolor="#666666"
     borderopacity="1"
     objecttolerance="10"
     gridtolerance="10"
     guidetolerance="10"
     inkscape:pageopacity="0"
     inkscape:pageshadow="2"
     inkscape:window-width="640"
     inkscape:window-height="480"
     id="namedview10"
     showgrid="false"
     inkscape:zoom="6.5555556"
     inkscape:cx="17"
     inkscape:cy="17"
     inkscape:window-x="0"
     inkscape:window-y="0"
     inkscape:window-maximized="0"
     inkscape:current-layer="svg2" />
  <path
     d="m 32.536,1.46475 c -1.953,-1.953 -5.118,-1.953 -7.071,0 l -1.197,1.199 2.842,2.843 c 0.391,0.391 0.391,1.024 0,1.414 -0.195,0.195 -0.451,0.293 -0.707,0.293 -0.256,0 -0.512,-0.098 -0.707,-0.293 l -2.841,-2.842 -2.11,2.112 2.841,2.84 c 0.391,0.39 0.391,1.023 0,1.414 -0.195,0.195 -0.451,0.293 -0.707,0.293 -0.256,0 -0.512,-0.098 -0.707,-0.293 l -2.84,-2.839 -2.12,2.122 2.837,2.838 c 0.391,0.391 0.391,1.024 0,1.414 -0.195,0.195 -0.451,0.293 -0.707,0.293 -0.256,0 -0.512,-0.098 -0.707,-0.293 l -2.837,-2.837 -2.12,2.123 2.836,2.836 c 0.391,0.391 0.391,1.023 0,1.414 -0.195,0.195 -0.451,0.293 -0.707,0.293 -0.256,0 -0.512,-0.098 -0.707,-0.293 l -2.835,-2.835 -2.12,2.123 2.833,2.833 c 0.391,0.391 0.391,1.023 0,1.414 -0.195,0.195 -0.451,0.293 -0.707,0.293 -0.256,0 -0.512,-0.098 -0.707,-0.293 l -2.833,-2.832 -1.781,1.785 c -3.843,0.027 -6.95,3.148 -6.95,6.997 0,3.866 3.134,7 7,7 3.832,0 6.941,-3.081 6.995,-6.9 l 18.541,-18.564 c 1.952,-1.953 1.952,-5.119 0,-7.072 z"
     id="path4"
     inkscape:connector-curvature="0"
     style="fill:#ccd6dd" />
  <path
     d="m 29.938,4.09175 c -0.781,-0.781 -2.047,-0.781 -2.828,0 l -19.065,19.065 c -1.338,-0.362 -2.823,-0.035 -3.873,1.015 -1.562,1.562 -1.562,4.095 0,5.657 1.562,1.562 4.095,1.562 5.657,0 1.038,-1.038 1.371,-2.502 1.029,-3.828 l 19.08,-19.08 c 0.781,-0.781 0.781,-2.048 0,-2.829 z"
     id="path6"
     inkscape:connector-curvature="0"
     style="fill:#dd2e44" />
  <path
     d="m 12.272,21.34375 c 0.256,0 0.512,-0.098 0.707,-0.293 0.391,-0.391 0.391,-1.023 0,-1.414 l -2.833,-2.833 -1.413,1.415 2.833,2.832 c 0.194,0.195 0.45,0.293 0.706,0.293 z m 3.536,-3.535 c 0.256,0 0.512,-0.098 0.707,-0.293 0.391,-0.391 0.391,-1.023 0,-1.414 l -2.836,-2.836 -1.413,1.415 2.835,2.835 c 0.195,0.195 0.451,0.293 0.707,0.293 z m 3.535,-3.536 c 0.256,0 0.512,-0.098 0.707,-0.293 0.391,-0.39 0.391,-1.023 0,-1.414 l -2.837,-2.838 -1.413,1.415 2.837,2.837 c 0.194,0.195 0.45,0.293 0.706,0.293 z m 3.536,-3.536 c 0.256,0 0.512,-0.098 0.707,-0.293 0.391,-0.391 0.391,-1.024 0,-1.414 l -2.841,-2.84 -1.413,1.415 2.84,2.839 c 0.195,0.196 0.451,0.293 0.707,0.293 z m 3.523,-3.523 c 0.256,0 0.512,-0.098 0.707,-0.293 0.391,-0.39 0.391,-1.023 0,-1.414 l -2.842,-2.843 -1.413,1.415 2.841,2.842 c 0.196,0.195 0.451,0.293 0.707,0.293 z"
     id="path8"
     inkscape:connector-curvature="0"
     style="fill:#292f33" />
</svg>
