<?xml version="1.0" encoding="UTF-8" standalone="no"?>
<svg
   xmlns:dc="http://purl.org/dc/elements/1.1/"
   xmlns:cc="http://creativecommons.org/ns#"
   xmlns:rdf="http://www.w3.org/1999/02/22-rdf-syntax-ns#"
   xmlns:svg="http://www.w3.org/2000/svg"
   xmlns="http://www.w3.org/2000/svg"
   xmlns:sodipodi="http://sodipodi.sourceforge.net/DTD/sodipodi-0.dtd"
   xmlns:inkscape="http://www.inkscape.org/namespaces/inkscape"
   viewBox="0 0 35.635487 24.588594"
   id="svg2"
   version="1.1"
   inkscape:version="0.91 r13725"
   sodipodi:docname="1f32c.svg"
   width="35.635487"
   height="24.588594">
  <metadata
     id="metadata30">
    <rdf:RDF>
      <cc:Work
         rdf:about="">
        <dc:format>image/svg+xml</dc:format>
        <dc:type
           rdf:resource="http://purl.org/dc/dcmitype/StillImage" />
      </cc:Work>
    </rdf:RDF>
  </metadata>
  <defs
     id="defs28" />
  <sodipodi:namedview
     pagecolor="#ffffff"
     bordercolor="#666666"
     borderopacity="1"
     objecttolerance="10"
     gridtolerance="10"
     guidetolerance="10"
     inkscape:pageopacity="0"
     inkscape:pageshadow="2"
     inkscape:window-width="640"
     inkscape:window-height="480"
     id="namedview26"
     showgrid="false"
     inkscape:zoom="6.5555556"
     inkscape:cx="17.802485"
     inkscape:cy="12.26"
     inkscape:window-x="0"
     inkscape:window-y="0"
     inkscape:window-maximized="0"
     inkscape:current-layer="svg2" />
  <g
     id="g4"
     style="fill:#bbddf5"
     transform="translate(-0.19751481,-5.6714062)">
    <path
       d="m 33.052,20.252 c 0,1.783 -1.431,3.227 -3.197,3.227 -1.766,0 -3.197,-1.444 -3.197,-3.227 0,-1.782 1.431,-3.229 3.197,-3.229 1.766,0 3.197,1.447 3.197,3.229 z"
       id="path6"
       inkscape:connector-curvature="0" />
    <path
       d="m 35.833,22.565 c 0,1.536 -1.245,2.781 -2.781,2.781 -1.536,0 -2.781,-1.245 -2.781,-2.781 0,-1.535 1.245,-2.78 2.781,-2.78 1.536,0 2.781,1.245 2.781,2.78 z"
       id="path8"
       inkscape:connector-curvature="0" />
    <path
       d="m 34.595,27.072 c 0,1.761 -1.427,3.188 -3.188,3.188 -1.76,0 -3.188,-1.427 -3.188,-3.188 0,-1.76 1.428,-3.187 3.188,-3.187 1.761,10e-4 3.188,1.427 3.188,3.187 z"
       id="path10"
       inkscape:connector-curvature="0" />
    <path
       d="m 30.271,27.288 c 0,0.879 -0.996,1.592 -2.225,1.592 -1.229,0 -2.224,-0.713 -2.224,-1.592 0,-0.878 0.995,-1.591 2.224,-1.591 1.229,0 2.225,0.713 2.225,1.591 z m -1.248,-5.777 c 0,0 -2.968,0.951 -5.789,0.504 2.479,1.871 6.845,0.998 6.845,0.998 l -1.056,-1.502 z"
       id="path12"
       inkscape:connector-curvature="0" />
    <path
       d="m 29.221,23.335 c -0.087,0.021 -3.002,0.551 -7.037,0.145 1.222,1.227 6.482,1.358 7.438,1.033 0.953,-0.325 -0.401,-1.178 -0.401,-1.178 z m 0.686,4 c 0,0 -2.422,-1.123 -6.673,-1.988 2.896,-0.836 7.366,0.2 7.824,0.865 0.46,0.665 -1.151,1.123 -1.151,1.123 z"
       id="path14"
       inkscape:connector-curvature="0" />
    <path
       d="m 32.463,24.292 c 0,2.275 -0.999,4.12 -2.232,4.12 -1.233,0 -2.233,-1.845 -2.233,-4.12 0,-2.277 1,-4.122 2.233,-4.122 1.233,0 2.232,1.845 2.232,4.122 z"
       id="path16"
       inkscape:connector-curvature="0" />
  </g>
  <path
     d="m 1.7044852,2.4535938 c 0,0 2.803,2.014 5.365,0.19 4.2169998,-3.00200004 8.7419998,-3.16500004 11.1399998,-1.88900004 2.686,1.42700004 4.563,4.92100004 3.104,7.54400004 -1.792,3.2310002 -0.551,4.0650002 0.6,4.6080002 1.186,0.562 -0.338,1.859 -1.008,2.018 -0.668,0.16 0.297,1.501 1.039,1.501 -0.232,0.925 -0.643,1.349 -1.05,1.539 0.612,0.353 0.868,1.495 0.484,1.578 -0.813,0.176 -1.491,0.524 -1.771,1.156 -1.684,3.818 -3.475,-1.509 -7.986,1.268 -4.8969998,3.013 -9.8549998,-2.424 -7.2989998,-6.395 -3.307,-0.658 -4.10400001,-4.176 -1.807,-6.0570002 -2.56100001,-1.374 -3.18600001,-5.624 -0.811,-7.061 z"
     id="path18"
     inkscape:connector-curvature="0"
     style="fill:#ccd6dd" />
  <path
     d="m 1.4384852,10.974594 c 0,0 -1.49200001,3.71 2.886,4.598 3.52,0.714 5.645,-1.911 5.645,-1.911 0,0 -2.795,1.831 -5.75,0.645 -2.955,-1.187 -2.781,-3.332 -2.781,-3.332 z m 0.266,-8.5210002 c 0,0 -1.86000001,0.875 -1.69400001,3.5 0.167,2.625 2.16700001,4.2910002 4.54200001,3.375 -3.70800001,-0.458 -5.25000001,-4.542 -2.848,-6.875 z"
     id="path20"
     inkscape:connector-curvature="0"
     style="fill:#99aab5" />
  <path
     d="m 4.3244852,15.572594 c 0,0 -1.853,2.135 0,5.133 1.853,2.998 5.027,2.225 5.8259998,1.923 -5.1389998,0.772 -6.7489998,-5.232 -4.5689998,-6.933 2.179,-1.7 -1.257,-0.123 -1.257,-0.123 z m 17.6209998,0.854 c 0,0 -0.471,0.871 -1.674,0.934 -0.542,0.028 0.071,0.671 0.624,0.605 0.433,-0.051 0.781,-0.441 1.05,-1.539 z m -0.483,3.063 c 0.164,-0.142 -0.535,-0.54 -1.129,-0.304 -0.594,0.236 -0.777,1.994 -1.443,2.623 1.084,-1.121 0.798,-1.591 1.678,-1.941 0.467,-0.186 0.726,-0.232 0.894,-0.378 z m 0.885,-5.994 c 0,0 0.006,1.048 -1.613,1.534 -1.619,0.486 -0.94,-0.508 -0.088,-0.576 1.468,-0.117 1.699,-0.96 1.701,-0.958 z m -2.378,-1.708 c 0,0 0.097,-0.722 -0.13,-1.266 -0.167,-0.402 -0.037,0.572 -0.949,1.022 -0.985,0.486 -2.072,0.534 -2.072,0.534 0,0 1.968,0.845 3.151,-0.29 z m 1.852,-5.4270002 c 0,0 0.325,3.562 -3.675,3.7180002 -4,0.156 -7.469,-3.7180002 -7.469,-3.7180002 0,0 3.719,3.25 7.5,2.968 3.781,-0.281 3.644,-2.968 3.644,-2.968 z"
     id="path22"
     inkscape:connector-curvature="0"
     style="fill:#99aab5" />
  <path
     d="m 16.594485,9.5825938 c 0,0 -1.417,2.4540002 -5.5,2.4960002 -4.0829998,0.042 -4.4579998,-3.5410002 -4.4579998,-3.5410002 0,0 0.955,3.4040002 5.2499998,2.8830002 2.917,-0.354 3.708,-2.1330002 3.708,-2.1330002 l 1,0.295 z"
     id="path24"
     inkscape:connector-curvature="0"
     style="fill:#99aab5" />
</svg>
