<?xml version="1.0" encoding="UTF-8" standalone="no"?>
<svg
   xmlns:dc="http://purl.org/dc/elements/1.1/"
   xmlns:cc="http://creativecommons.org/ns#"
   xmlns:rdf="http://www.w3.org/1999/02/22-rdf-syntax-ns#"
   xmlns:svg="http://www.w3.org/2000/svg"
   xmlns="http://www.w3.org/2000/svg"
   xmlns:sodipodi="http://sodipodi.sourceforge.net/DTD/sodipodi-0.dtd"
   xmlns:inkscape="http://www.inkscape.org/namespaces/inkscape"
   viewBox="0 0 35.91576 34.329746"
   id="svg2"
   version="1.1"
   inkscape:version="0.91 r13725"
   sodipodi:docname="1f32f.svg"
   width="35.91576"
   height="34.329746">
  <metadata
     id="metadata84">
    <rdf:RDF>
      <cc:Work
         rdf:about="">
        <dc:format>image/svg+xml</dc:format>
        <dc:type
           rdf:resource="http://purl.org/dc/dcmitype/StillImage" />
      </cc:Work>
    </rdf:RDF>
  </metadata>
  <defs
     id="defs82" />
  <sodipodi:namedview
     pagecolor="#ffffff"
     bordercolor="#666666"
     borderopacity="1"
     objecttolerance="10"
     gridtolerance="10"
     guidetolerance="10"
     inkscape:pageopacity="0"
     inkscape:pageshadow="2"
     inkscape:window-width="640"
     inkscape:window-height="480"
     id="namedview80"
     showgrid="false"
     inkscape:zoom="6.5555556"
     inkscape:cx="17.921733"
     inkscape:cy="17.147198"
     inkscape:window-x="0"
     inkscape:window-y="0"
     inkscape:window-maximized="0"
     inkscape:current-layer="svg2" />
  <path
     d="m 26.223733,12.67155 -0.174,-0.174 -9.182,-9.1360005 c 2.814,3.28 2.163,7.7850005 -1.616,10.3120005 -3.672,2.455 -8.9959998,2.174 -12.3889998,-0.509 l 5.227,5.321 2.4649998,2.465 c 1.218,1.218 3.125,1.751 4.531,1.713 1.059,-0.028 1.834,-0.379 1.808,-1.009 -0.014,-0.362 0.189,-0.652 0.527,-0.881 1.086,-0.737 3.605,-0.828 5.108,-0.527 0.492,0.098 0.957,0.081 1.395,-0.013 1.333,-0.286 2.393,-1.352 3.034,-2.601 0.648,-1.264 0.867,-2.704 0.512,-3.689 l -0.01,-0.035 -1.236,-1.237 z"
     id="path4"
     inkscape:connector-curvature="0"
     style="fill:#ffcc4d" />
  <path
     d="m 18.935733,16.65355 c -0.389,-0.389 -1.118,-0.488 -1.629,-0.22 -0.511,0.267 -0.609,0.799 -0.22,1.189 0.389,0.39 1.118,0.488 1.629,0.22 0.511,-0.268 0.61,-0.8 0.22,-1.189 z"
     id="path6"
     inkscape:connector-curvature="0"
     style="fill:#ffac33" />
  <path
     d="m 24.378733,15.46455 c -0.389,-0.389 -0.901,-0.271 -1.145,0.264 -0.243,0.535 -0.125,1.284 0.264,1.673 0.389,0.389 0.901,0.271 1.145,-0.264 0.243,-0.535 0.125,-1.283 -0.264,-1.673 z"
     id="path8"
     inkscape:connector-curvature="0"
     style="fill:#d99e82" />
  <path
     d="m 21.824733,11.09055 c -0.268,0.511 -0.799,0.609 -1.189,0.22 -0.39,-0.389 -0.488,-1.118 -0.22,-1.6290005 0.267,-0.511 0.799,-0.609 1.189,-0.22 0.39,0.389 0.488,1.1180005 0.22,1.6290005 z"
     id="path10"
     inkscape:connector-curvature="0"
     style="fill:#ffac33" />
  <path
     d="m 12.668733,20.24655 c -0.584,0.195 -1.372,0.037 -1.761,-0.352 -0.389,-0.389 -0.232,-0.862 0.352,-1.057 0.584,-0.195 1.372,-0.037 1.761,0.352 0.389,0.39 0.232,0.863 -0.352,1.057 z"
     id="path12"
     inkscape:connector-curvature="0"
     style="fill:#d99e82" />
  <path
     d="m 23.924733,20.23355 c -0.438,0.094 -0.903,0.112 -1.395,0.013 -1.503,-0.301 -4.021,-0.209 -5.108,0.527 l 13.022,13.022 c 2.486,-0.848 3.93,-3.036 3.962,-3.082 l -10.481,-10.48 z m 9.857,0.031 0.018,-0.018 -3.522,-3.522 c -1,-2.113 0.775,-3.433 0.071,-4.137 -0.676,-0.676 -2.715,0.027 -4.124,0.084 l 1.236,1.236 c 0.373,0.986 0.154,2.447 -0.501,3.725 l 8.928,8.928 c 0.261,-3.237 -1.368,-5.466 -2.106,-6.296 z"
     id="path14"
     inkscape:connector-curvature="0"
     style="fill:#bdbdbd" />
  <path
     d="m 15.085733,22.66455 c -1.405,0.037 -3.313,-0.496 -4.531,-1.713 l -1.7609998,-1.761 c -0.176,0.528 0,1.409 0.352,1.761 0.704,0.704 -0.705,3.521 2.1119998,4.93 1.89,0.945 4.226,0 5.635,1.409 0,0 4.483,4.506 4.931,4.931 0.448,0.425 2.334,1.863 4.9,2.083 l -11.638,-11.64 z"
     id="path16"
     inkscape:connector-curvature="0"
     style="fill:#808285" />
  <path
     d="m 17.421733,20.77355 c -0.338,0.229 -0.542,0.519 -0.527,0.881 0.025,0.63 -0.75,0.981 -1.808,1.009 l 11.639,11.639 c 2.163,0.166 3.646,-0.481 3.718,-0.508 l -13.022,-13.021 z"
     id="path18"
     inkscape:connector-curvature="0"
     style="fill:#a6a6a6" />
  <path
     d="m 26.958733,17.63255 c -0.641,1.249 -1.701,2.315 -3.034,2.601 l 10.481,10.481 c 1.347,-1.901 1.473,-4.056 1.481,-4.154 l -8.928,-8.928 z"
     id="path20"
     inkscape:connector-curvature="0"
     style="fill:#d8d8d8" />
  <path
     d="m 3.0767332,6.5895495 c 0.069,-0.304 0.205,-0.605 0.435,-0.835 0.646,-0.646 1.474,-1.282 2.577,-1.308 0.711,-0.017 1.535,0.091 2.501,0.675 l 7.0689998,0.059 c -0.244,-0.406 -0.541,-0.798 -0.907,-1.164 -2.528,-2.528 -7.0349998,-2.935 -10.0649998,-0.908 -1.431,0.956 -2.268,2.284 -2.497,3.685 0.256,-0.207 0.587,-0.284 0.887,-0.204 z m 12.5919998,-1.391 -0.009,-0.016 -0.004,0 0.013,0.016 z m -12.7879998,3.826 c -0.023,-0.019 -0.051,-0.027 -0.073,-0.049 -0.131,-0.131 -0.202,-0.294 -0.244,-0.462 -0.137,-0.035 -0.264,-0.101 -0.379,-0.189 -0.079,-0.499 -0.076,-1.007 0,-1.501 -0.169,1.075 0.026,2.19 0.598,3.2150005 l -10e-4,-0.002 c -0.081,-0.3370005 -0.057,-0.6940005 0.099,-1.0120005 z"
     id="path22"
     inkscape:connector-curvature="0"
     style="fill:#ffac33" />
  <path
     d="m 2.1867332,6.7955495 -0.002,0.028 0.005,-0.029 -0.003,0.001 z"
     id="path24"
     inkscape:connector-curvature="0"
     style="fill:#c1694f" />
  <path
     d="m 16.867733,3.3615495 c -0.137,-0.16 -0.274,-0.32 -0.428,-0.474 -3.307,-3.30599997 -9.2199998,-3.86999997 -13.1629998,-1.189 -3.83499998,2.608 -4.398,7.608 -1.189,10.7850005 0.244,0.242 0.504,0.467 0.774,0.68 3.393,2.683 8.7179998,2.964 12.3889998,0.509 3.78,-2.526 4.431,-7.0310005 1.617,-10.3110005 z m -1.208,1.821 0.009,0.016 c 1.428,2.397 0.759,5.3370005 -1.826,7.0660005 -3.03,2.027 -7.5369998,1.62 -10.0659998,-0.909 -0.412,-0.412 -0.737,-0.856 -0.995,-1.317 -0.572,-1.0250005 -0.767,-2.1400005 -0.598,-3.2150005 l 0.002,-0.028 0.003,-0.002 c 0.23,-1.401 1.067,-2.729 2.498,-3.685 3.031,-2.026 7.5369998,-1.62 10.0659998,0.909 0.366,0.366 0.663,0.758 0.907,1.164"
     id="path26"
     inkscape:connector-curvature="0"
     style="fill:#ffe8b6" />
  <path
     d="m 13.842733,12.26455 c 2.585,-1.729 3.254,-4.6690005 1.826,-7.0660005 l -0.013,-0.016 0.004,0 -10e-4,-0.002 -7.0689998,-0.059 c -0.967,-0.584 -1.791,-0.692 -2.501,-0.675 -1.103,0.026 -1.931,0.662 -2.577,1.308 -0.23,0.23 -0.366,0.531 -0.435,0.835 -0.3,-0.08 -0.631,-0.003 -0.888,0.204 l -0.005,0.029 c -0.076,0.494 -0.079,1.002 0,1.501 0.116,0.089 0.243,0.155 0.38,0.19 0.043,0.168 0.113,0.331 0.244,0.462 0.022,0.022 0.05,0.03 0.073,0.049 -0.156,0.318 -0.18,0.675 -0.099,1.0120005 l 10e-4,0.002 c 0.257,0.461 0.583,0.906 0.995,1.317 2.528,2.529 7.0349998,2.936 10.0649998,0.909 z"
     id="path28"
     inkscape:connector-curvature="0"
     style="fill:#c1694f" />
  <path
     d="m 8.5897332,5.3325495 7.2789998,0.271 c -0.124,-0.276 -0.281,-0.554 -0.484,-0.834 -2.6,-1.922 -6.5469998,-2.087 -9.2899998,-0.253 l -0.006,0.035 c 0.71,-0.016 1.534,0.197 2.501,0.781 z"
     id="path30"
     inkscape:connector-curvature="0"
     style="fill:#f4900c" />
  <circle
     cx="5.6247334"
     cy="7.5685492"
     r="0.99599999"
     id="circle32"
     style="fill:#d99e82" />
  <circle
     cx="7.0337334"
     cy="9.6815491"
     r="1.494"
     id="circle34"
     style="fill:#d99e82" />
  <circle
     cx="9.8507328"
     cy="10.38555"
     r="0.99599999"
     id="circle36"
     style="fill:#d99e82" />
  <circle
     cx="4.2167335"
     cy="6.8645496"
     r="0.498"
     id="circle38"
     style="fill:#d99e82" />
  <circle
     cx="7.7377334"
     cy="12.498549"
     r="0.99599999"
     id="circle40"
     style="fill:#d99e82" />
  <circle
     cx="6.3297334"
     cy="4.7505493"
     r="1.494"
     id="circle42"
     style="fill:#ffd983" />
  <path
     d="m 10.555733,12.49855 c -0.389,-0.389 -1.0189998,-0.389 -1.4089998,0 -0.281,0.281 -0.351,0.685 -0.228,1.035 0.629,0.035 1.2619998,0.005 1.8829998,-0.097 0.08,-0.327 0.009,-0.682 -0.246,-0.938 z"
     id="path44"
     inkscape:connector-curvature="0"
     style="fill:#d99e82" />
  <path
     d="m 16.190733,6.8645495 c -0.389,-0.389 -1.02,-0.389 -1.409,0 -0.129,0.129 -0.211,0.285 -0.255,0.45 -0.164,0.043 -0.321,0.126 -0.45,0.254 0.389,-0.389 0.39,-1.021 10e-4,-1.41 0.385,-0.385 0.393,-1.013 0.009,-1.398 l -0.016,-0.016 c -0.386,-0.386 -1.015,-0.382 -1.402,0.005 -0.131,-0.131 -0.293,-0.201 -0.461,-0.244 -0.043,-0.168 -0.113,-0.329 -0.245,-0.46 -0.232,-0.232 -0.55,-0.322 -0.851,-0.278 -0.058,-0.413 -0.239,-0.813 -0.557,-1.131 -0.7769998,-0.777 -2.0369998,-0.777 -2.8159998,0.002 -0.779,0.779 -0.779,2.039 -0.001,2.817 0.532,0.531 1.285,0.691 1.959,0.497 0.043,0.073 0.092,0.144 0.154,0.207 -0.389,0.389 -0.389,1.02 0,1.409 0.2259998,0.226 0.5319998,0.316 0.8259998,0.28 0.066,0.187 0.169,0.363 0.319,0.512 0.396,0.396 0.974,0.497 1.464,0.307 0.048,0.112 0.117,0.218 0.208,0.31 -0.389,0.389 -0.389,1.02 0,1.4090005 0.389,0.389 1.019,0.389 1.409,0 0.075,0.075 0.16,0.13 0.249,0.176 l 0.03,0.016 c 0.37,0.175 0.823,0.114 1.129,-0.192 0.389,-0.3890005 0.389,-1.0200005 0,-1.4090005 0.094,-0.094 0.163,-0.203 0.211,-0.318 10e-4,-0.04 -0.001,-0.079 -0.001,-0.119 0.181,-0.039 0.353,-0.127 0.494,-0.268 0.391,-0.389 0.391,-1.02 0.002,-1.408 z"
     id="path46"
     inkscape:connector-curvature="0"
     style="fill:#77b255" />
  <circle
     cx="14.781733"
     cy="7.5685492"
     r="0.498"
     id="circle48"
     style="fill:#a6d388" />
  <circle
     cx="12.668733"
     cy="11.79455"
     r="0.99599999"
     id="circle50"
     style="fill:#ffd983" />
  <path
     d="m 12.316733,8.6245495 c -0.488,-0.488 -1.226,-0.562 -1.797,-0.234 -0.073,-0.17 -0.176,-0.331 -0.316,-0.47 -0.139,-0.139 -0.2999998,-0.243 -0.4699998,-0.316 0.3279998,-0.571 0.254,-1.309 -0.234,-1.797 -0.584,-0.584 -1.529,-0.584 -2.113,0 -0.584,0.584 -0.584,1.529 0,2.113 0.139,0.139 0.3,0.243 0.47,0.316 -0.328,0.571 -0.254,1.309 0.234,1.7970005 0.488,0.488 1.226,0.562 1.797,0.234 0.073,0.17 0.1759998,0.331 0.3159998,0.47 0.584,0.584 1.529,0.584 2.113,0 0.584,-0.583 0.584,-1.5290005 0,-2.1130005 z"
     id="path52"
     inkscape:connector-curvature="0"
     style="fill:#ffd983" />
  <circle
     cx="10.379733"
     cy="9.5055494"
     r="1.245"
     id="circle54"
     style="fill:#ffe8b6" />
  <circle
     cx="8.9707327"
     cy="7.3925495"
     r="0.74699998"
     id="circle56"
     style="fill:#ffe8b6" />
  <circle
     cx="7.5617332"
     cy="5.9835496"
     r="0.74699998"
     id="circle58"
     style="fill:#ffe8b6" />
  <circle
     cx="8.4427328"
     cy="4.0465493"
     r="0.498"
     id="circle60"
     style="fill:#a6d388" />
  <circle
     cx="14.781733"
     cy="5.4555492"
     r="0.99599999"
     id="circle62"
     style="fill:#77b255" />
  <circle
     cx="14.077733"
     cy="7.5685492"
     r="0.99599999"
     id="circle64"
     style="fill:#a6d388" />
  <path
     d="m 13.020733,5.1035495 c -0.219,-0.219 -0.488,-0.355 -0.77,-0.41 -0.014,-0.235 -0.107,-0.466 -0.286,-0.646 -0.389,-0.389 -1.019,-0.389 -1.409,0 -0.389,-0.389 -1.0189998,-0.389 -1.4089998,0 -0.389,0.389 -0.389,1.019 0,1.409 0.389,0.39 1.0189998,0.389 1.4089998,0 0.021,0.021 0.046,0.037 0.069,0.056 -0.269,0.556 -0.179,1.242 0.283,1.705 0.584,0.584 1.529,0.584 2.113,0 0.584,-0.585 0.584,-1.53 0,-2.114 z"
     id="path66"
     inkscape:connector-curvature="0"
     style="fill:#a6d388" />
  <circle
     cx="10.379733"
     cy="3.1665494"
     r="0.74699998"
     id="circle68"
     style="fill:#dd2e44" />
  <circle
     cx="14.605733"
     cy="5.9835496"
     r="0.74699998"
     id="circle70"
     style="fill:#dd2e44" />
  <circle
     cx="14.077733"
     cy="8.9775496"
     r="0.99599999"
     id="circle72"
     style="fill:#dd2e44" />
  <path
     d="m 13.372733,2.6375495 c -0.389,-0.389 -1.02,-0.389 -1.409,0 -0.389,0.389 -0.389,1.02 0,1.409 -0.389,0.389 -0.389,1.02 0,1.409 0.389,0.389 1.019,0.389 1.409,0 0.389,-0.389 0.389,-1.02 0,-1.409 0.389,-0.389 0.389,-1.02 0,-1.409 z"
     id="path74"
     inkscape:connector-curvature="0"
     style="fill:#77b255" />
  <circle
     cx="11.963733"
     cy="5.4555492"
     r="0.99599999"
     id="circle76"
     style="fill:#dd2e44" />
  <circle
     cx="13.372733"
     cy="3.3425493"
     r="0.498"
     id="circle78"
     style="fill:#dd2e44" />
</svg>
