<?xml version="1.0" encoding="UTF-8" standalone="no"?>
<svg
   xmlns:dc="http://purl.org/dc/elements/1.1/"
   xmlns:cc="http://creativecommons.org/ns#"
   xmlns:rdf="http://www.w3.org/1999/02/22-rdf-syntax-ns#"
   xmlns:svg="http://www.w3.org/2000/svg"
   xmlns="http://www.w3.org/2000/svg"
   xmlns:sodipodi="http://sodipodi.sourceforge.net/DTD/sodipodi-0.dtd"
   xmlns:inkscape="http://www.inkscape.org/namespaces/inkscape"
   viewBox="0 0 36 35.460445"
   id="svg2"
   version="1.1"
   inkscape:version="0.91 r13725"
   sodipodi:docname="1f327.svg"
   width="36"
   height="35.460445">
  <metadata
     id="metadata12">
    <rdf:RDF>
      <cc:Work
         rdf:about="">
        <dc:format>image/svg+xml</dc:format>
        <dc:type
           rdf:resource="http://purl.org/dc/dcmitype/StillImage" />
      </cc:Work>
    </rdf:RDF>
  </metadata>
  <defs
     id="defs10" />
  <sodipodi:namedview
     pagecolor="#ffffff"
     bordercolor="#666666"
     borderopacity="1"
     objecttolerance="10"
     gridtolerance="10"
     guidetolerance="10"
     inkscape:pageopacity="0"
     inkscape:pageshadow="2"
     inkscape:window-width="640"
     inkscape:window-height="480"
     id="namedview8"
     showgrid="false"
     inkscape:zoom="6.5555556"
     inkscape:cx="18"
     inkscape:cy="17.460444"
     inkscape:window-x="0"
     inkscape:window-y="0"
     inkscape:window-maximized="0"
     inkscape:current-layer="svg2" />
  <path
     d="M 28,4 C 27.175,4 26.38,4.125 25.631,4.357 24.744,1.822 22.338,0 19.5,0 16.456,0 13.908,2.096 13.201,4.921 12.447,4.351 11.519,4 10.5,4 8.015,4 6,6.015 6,8.5 6,9.104 6.123,9.678 6.339,10.204 5.91,10.085 5.467,10 5,10 c -2.762,0 -5,2.238 -5,5 0,2.762 2.238,5 5,5 l 23,0 c 4.418,0 8,-3.581 8,-8 0,-4.418 -3.582,-8 -8,-8 z"
     id="path4"
     inkscape:connector-curvature="0"
     style="fill:#e1e8ed" />
  <path
     d="m 11.999,24.961 -0.113,-3.421 -2.87,1.708 c -0.638,0.345 -1.062,1.024 -1.036,1.799 0.037,1.103 0.966,1.976 2.076,1.953 1.109,-0.023 1.98,-0.937 1.943,-2.039 z M 10.02,32.421 9.907,29 7.037,30.708 c -0.638,0.345 -1.062,1.024 -1.036,1.799 0.037,1.103 0.966,1.976 2.076,1.953 1.11,-0.023 1.98,-0.937 1.943,-2.039 z m -5,-4.46 -0.113,-3.421 -2.87,1.708 c -0.638,0.345 -1.062,1.024 -1.036,1.799 0.037,1.102 0.966,1.975 2.076,1.953 1.11,-0.023 1.98,-0.937 1.943,-2.039 z m 18,-3 -0.113,-3.421 -2.869,1.708 c -0.639,0.345 -1.062,1.024 -1.036,1.799 0.037,1.103 0.966,1.976 2.076,1.953 1.109,-0.023 1.979,-0.937 1.942,-2.039 z m -6.021,4 -0.113,-3.421 -2.869,1.708 c -0.639,0.345 -1.062,1.024 -1.036,1.799 0.037,1.103 0.966,1.976 2.076,1.953 1.109,-0.023 1.979,-0.937 1.942,-2.039 z M 22.02,33.421 21.906,30 19.037,31.708 c -0.639,0.345 -1.062,1.024 -1.036,1.799 0.037,1.103 0.966,1.976 2.076,1.953 1.11,-0.023 1.98,-0.937 1.943,-2.039 z m 6.979,-5.46 -0.113,-3.421 -2.869,1.708 c -0.639,0.345 -1.062,1.024 -1.036,1.799 0.037,1.103 0.966,1.976 2.076,1.953 1.109,-0.023 1.979,-0.937 1.942,-2.039 z"
     id="path6"
     inkscape:connector-curvature="0"
     style="fill:#5dadec" />
</svg>
