<?xml version="1.0" encoding="UTF-8" standalone="no"?>
<svg
   xmlns:dc="http://purl.org/dc/elements/1.1/"
   xmlns:cc="http://creativecommons.org/ns#"
   xmlns:rdf="http://www.w3.org/1999/02/22-rdf-syntax-ns#"
   xmlns:svg="http://www.w3.org/2000/svg"
   xmlns="http://www.w3.org/2000/svg"
   xmlns:sodipodi="http://sodipodi.sourceforge.net/DTD/sodipodi-0.dtd"
   xmlns:inkscape="http://www.inkscape.org/namespaces/inkscape"
   viewBox="0 0 31.95307 34.329414"
   id="svg2"
   version="1.1"
   inkscape:version="0.91 r13725"
   sodipodi:docname="1f33f.svg"
   width="31.95307"
   height="34.329414">
  <metadata
     id="metadata18">
    <rdf:RDF>
      <cc:Work
         rdf:about="">
        <dc:format>image/svg+xml</dc:format>
        <dc:type
           rdf:resource="http://purl.org/dc/dcmitype/StillImage" />
      </cc:Work>
    </rdf:RDF>
  </metadata>
  <defs
     id="defs16" />
  <sodipodi:namedview
     pagecolor="#ffffff"
     bordercolor="#666666"
     borderopacity="1"
     objecttolerance="10"
     gridtolerance="10"
     guidetolerance="10"
     inkscape:pageopacity="0"
     inkscape:pageshadow="2"
     inkscape:window-width="640"
     inkscape:window-height="480"
     id="namedview14"
     showgrid="false"
     inkscape:zoom="6.5555556"
     inkscape:cx="15.55107"
     inkscape:cy="17.071415"
     inkscape:window-x="0"
     inkscape:window-y="0"
     inkscape:window-maximized="0"
     inkscape:current-layer="svg2" />
  <path
     d="m 18.46807,21.76 c -2.706,-0.331 -3.895,-1.852 -6.273,-4.889 3.039,-2.376 4.559,-3.565 7.266,-3.235 2.71,0.332 5.25,2.016 6.273,4.889 -1.683,2.543 -4.557,3.563 -7.266,3.235 z m -5.959,8.814 c -2.549,-0.187 -3.733,-1.553 -6.098,-4.288 2.735,-2.364 4.102,-3.547 6.652,-3.364 2.551,0.185 5.009,1.644 6.098,4.287 -1.459,2.458 -4.1,3.548 -6.652,3.365 z m -6.22,-15.707 c 1.338,1.631 1.191,3.117 0.898,6.088 -2.97,-0.294 -4.456,-0.44 -5.795,-2.071 C 0.05307004,17.25 -0.46892996,14.949 0.49407004,12.796 2.79507,12.272 4.95007,13.235 6.28907,14.867 Z m 21.116,-5.448 c -2.435,1.02 -4.16,0.314 -7.613,-1.097 1.411,-3.453 2.118,-5.18 4.549,-6.203 2.434,-1.021 5.378,-0.826 7.612,1.096 -0.194,2.944 -2.117,5.181 -4.548,6.204 z m -12.751,-3.553 c 0.874,2.869 -0.124,4.742 -2.119,8.488 -3.745,-1.996 -5.619,-2.994 -6.494,-5.864 -0.876,-2.872 -0.315,-6.18 2.118,-8.49 3.308,0.561 5.619,2.993 6.495,5.866 z"
     id="path4"
     inkscape:connector-curvature="0"
     style="fill:#77b255" />
  <path
     d="m 6.04107,8.49 c 0.862,2.828 2.702,3.843 6.338,5.781 l 0,-0.005 c -0.07,-2.521 -2.733,-10.876 -4.267,-14.214 -2.389,2.308 -2.941,5.587 -2.071,8.438 z m -5.59199996,4.429 c -0.89,2.118 -0.371,4.362 0.94299996,5.965 1.34,1.632 2.826,1.777 5.795,2.071 -0.997,-1.937 -4.911,-6.388 -6.73799996,-8.036 z"
     id="path6"
     inkscape:connector-curvature="0"
     style="fill:#a6d388" />
  <path
     d="m 19.46107,13.636 c -2.563,-0.312 -4.077,0.75 -6.808,2.879 1.746,0.105 8.786,0.745 13.06,2.037 0.006,-0.01 0.015,-0.017 0.021,-0.027 -1.023,-2.873 -3.563,-4.557 -6.273,-4.889 z m -0.304,13.565 c -1.091,-2.637 -3.545,-4.094 -6.094,-4.279 -2.5,-0.179 -3.87,0.961 -6.498,3.232 2.767,-0.305 7.905,-0.87 12.592,1.047 z"
     id="path8"
     inkscape:connector-curvature="0"
     style="fill:#5c913b" />
  <path
     d="m 19.97207,8.395 c 3.327,1.359 5.043,2.024 7.432,1.024 2.419,-1.018 4.332,-3.239 4.542,-6.16 -3.922,0.761 -10.391,4.15 -11.974,5.136 z"
     id="path10"
     inkscape:connector-curvature="0"
     style="fill:#a6d388" />
  <path
     d="m 2.30207,34.319 c -0.584,-0.091 -1.36299996,-0.831 -1.273,-1.416 0.546,-3.562 2.858,-12.168 18.298,-24.755 0.458,-0.375 0.976,-0.659 1.364,-0.212 0.391,0.447 -0.052,0.95 -0.498,1.339 -13.288,11.57 -15.514,20.734 -16.023,24.065 -0.091,0.585 -1.283,1.067 -1.868,0.979 z"
     id="path12"
     inkscape:connector-curvature="0"
     style="fill:#a06253" />
</svg>
