<?xml version="1.0" encoding="UTF-8" standalone="no"?>
<svg
   xmlns:dc="http://purl.org/dc/elements/1.1/"
   xmlns:cc="http://creativecommons.org/ns#"
   xmlns:rdf="http://www.w3.org/1999/02/22-rdf-syntax-ns#"
   xmlns:svg="http://www.w3.org/2000/svg"
   xmlns="http://www.w3.org/2000/svg"
   xmlns:sodipodi="http://sodipodi.sourceforge.net/DTD/sodipodi-0.dtd"
   xmlns:inkscape="http://www.inkscape.org/namespaces/inkscape"
   viewBox="0 0 34 35.484749"
   id="svg2"
   version="1.1"
   inkscape:version="0.91 r13725"
   sodipodi:docname="1f335.svg"
   width="34"
   height="35.484749">
  <metadata
     id="metadata40">
    <rdf:RDF>
      <cc:Work
         rdf:about="">
        <dc:format>image/svg+xml</dc:format>
        <dc:type
           rdf:resource="http://purl.org/dc/dcmitype/StillImage" />
      </cc:Work>
    </rdf:RDF>
  </metadata>
  <defs
     id="defs38" />
  <sodipodi:namedview
     pagecolor="#ffffff"
     bordercolor="#666666"
     borderopacity="1"
     objecttolerance="10"
     gridtolerance="10"
     guidetolerance="10"
     inkscape:pageopacity="0"
     inkscape:pageshadow="2"
     inkscape:window-width="640"
     inkscape:window-height="480"
     id="namedview36"
     showgrid="false"
     inkscape:zoom="6.5555556"
     inkscape:cx="17"
     inkscape:cy="17.48475"
     inkscape:window-x="0"
     inkscape:window-y="0"
     inkscape:window-maximized="0"
     inkscape:current-layer="svg2" />
  <path
     d="m 29,4 c -2.209,0 -4,1.791 -4,4 l 0,9.125 c 0,1.086 -0.887,1.96 -2,2.448 L 23,6 C 23,2.687 20.313,0 17,0 13.687,0 11,2.687 11,6 l 0,17.629 C 9.878,23.154 9,22.258 9,21.125 L 9,16 C 9,13.791 7.209,12 5,12 2.791,12 1,13.791 1,16 l 0,7 c 0,2.209 1.75,3.875 3.375,4.812 1.244,0.718 4.731,1.6 6.625,1.651 L 11,33 c 0,3.313 12,3.313 12,0 l 0,-7.549 c 1.981,-0.119 5.291,-0.953 6.479,-1.639 C 31.104,22.875 33,21.209 33,19 L 33,8 C 33,5.791 31.209,4 29,4 Z"
     id="path4"
     inkscape:connector-curvature="0"
     style="fill:#77b255" />
  <g
     id="g6"
     style="fill:#3e721d"
     transform="translate(-1,0)">
    <circle
       cx="12"
       cy="6"
       r="1"
       id="circle8" />
    <circle
       cx="23"
       cy="3"
       r="1"
       id="circle10" />
    <circle
       cx="21"
       cy="9"
       r="1"
       id="circle12" />
    <circle
       cx="14"
       cy="16"
       r="1"
       id="circle14" />
    <circle
       cx="20"
       cy="20"
       r="1"
       id="circle16" />
    <circle
       cx="13"
       cy="26"
       r="1"
       id="circle18" />
    <circle
       cx="5"
       cy="27"
       r="1"
       id="circle20" />
    <circle
       cx="9"
       cy="20"
       r="1"
       id="circle22" />
    <circle
       cx="2"
       cy="18"
       r="1"
       id="circle24" />
    <circle
       cx="34"
       cy="8"
       r="1"
       id="circle26" />
    <circle
       cx="28"
       cy="11"
       r="1"
       id="circle28" />
    <circle
       cx="32"
       cy="16"
       r="1"
       id="circle30" />
    <circle
       cx="29"
       cy="24"
       r="1"
       id="circle32" />
    <circle
       cx="22"
       cy="30"
       r="1"
       id="circle34" />
  </g>
</svg>
