<?xml version="1.0" encoding="UTF-8" standalone="no"?>
<svg
   xmlns:dc="http://purl.org/dc/elements/1.1/"
   xmlns:cc="http://creativecommons.org/ns#"
   xmlns:rdf="http://www.w3.org/1999/02/22-rdf-syntax-ns#"
   xmlns:svg="http://www.w3.org/2000/svg"
   xmlns="http://www.w3.org/2000/svg"
   xmlns:sodipodi="http://sodipodi.sourceforge.net/DTD/sodipodi-0.dtd"
   xmlns:inkscape="http://www.inkscape.org/namespaces/inkscape"
   viewBox="0 0 34 35.912998"
   id="svg2"
   version="1.1"
   inkscape:version="0.91 r13725"
   sodipodi:docname="1f33b.svg"
   width="34"
   height="35.912998">
  <metadata
     id="metadata14">
    <rdf:RDF>
      <cc:Work
         rdf:about="">
        <dc:format>image/svg+xml</dc:format>
        <dc:type
           rdf:resource="http://purl.org/dc/dcmitype/StillImage" />
      </cc:Work>
    </rdf:RDF>
  </metadata>
  <defs
     id="defs12" />
  <sodipodi:namedview
     pagecolor="#ffffff"
     bordercolor="#666666"
     borderopacity="1"
     objecttolerance="10"
     gridtolerance="10"
     guidetolerance="10"
     inkscape:pageopacity="0"
     inkscape:pageshadow="2"
     inkscape:window-width="640"
     inkscape:window-height="480"
     id="namedview10"
     showgrid="false"
     inkscape:zoom="6.5555556"
     inkscape:cx="17"
     inkscape:cy="18"
     inkscape:window-x="0"
     inkscape:window-y="0"
     inkscape:window-maximized="0"
     inkscape:current-layer="svg2" />
  <path
     d="m 27,26.913 c -8,0 -8,6 -8,6 l 0,-11 -4,0 0,11 c 0,0 0,-6 -8,-6 -4,0 -7,-2 -7,-2 0,0 0,9 9,9 l 6,0 c 0,0 0,2 2,2 2,0 2,-2 2,-2 l 6,0 c 9,0 9,-9 9,-9 0,0 -3,2 -7,2 z"
     id="path4"
     inkscape:connector-curvature="0"
     style="fill:#3e721d" />
  <path
     d="m 20.125,27.575 c -0.328,0 -0.651,-0.097 -0.927,-0.283 l -2.323,-1.575 -2.322,1.575 c -0.277,0.186 -0.601,0.283 -0.929,0.283 -0.143,0 -0.287,-0.018 -0.429,-0.057 -0.462,-0.123 -0.851,-0.441 -1.06,-0.874 L 10.91,24.117 8.113,24.321 c -0.04,0.002 -0.079,0.004 -0.119,0.004 -0.438,0 -0.86,-0.174 -1.17,-0.484 -0.34,-0.342 -0.516,-0.81 -0.481,-1.288 l 0.201,-2.8 -2.523,-1.225 C 3.589,18.319 3.27,17.93 3.145,17.466 3.02,17.002 3.103,16.508 3.373,16.11 L 4.946,13.787 3.373,11.465 C 3.103,11.067 3.02,10.573 3.145,10.108 3.27,9.646 3.589,9.257 4.021,9.048 L 6.544,7.823 6.343,5.026 C 6.309,4.546 6.485,4.075 6.824,3.737 7.134,3.425 7.556,3.252 7.994,3.252 c 0.04,0 0.079,0 0.119,0.003 L 10.91,3.456 12.135,0.933 C 12.344,0.501 12.733,0.182 13.195,0.057 13.337,0.019 13.48,0 13.624,0 c 0.328,0 0.651,0.098 0.929,0.285 l 2.322,1.573 2.323,-1.573 C 19.473,0.097 19.797,0 20.125,0 c 0.144,0 0.29,0.02 0.428,0.057 0.465,0.125 0.854,0.444 1.062,0.876 l 1.225,2.523 2.8,-0.201 c 0.037,-0.003 0.078,-0.003 0.116,-0.003 0.438,0 0.858,0.173 1.172,0.485 0.338,0.338 0.515,0.809 0.48,1.289 l -0.204,2.797 2.527,1.225 c 0.433,0.209 0.751,0.598 0.874,1.06 0.124,0.465 0.043,0.96 -0.227,1.357 l -1.575,2.322 1.575,2.323 c 0.269,0.398 0.351,0.892 0.227,1.356 -0.123,0.464 -0.441,0.852 -0.874,1.062 l -2.527,1.225 0.204,2.8 c 0.034,0.478 -0.143,0.946 -0.48,1.288 -0.313,0.311 -0.734,0.484 -1.172,0.484 -0.038,0 -0.079,-0.002 -0.116,-0.004 l -2.8,-0.204 -1.225,2.527 c -0.209,0.433 -0.598,0.751 -1.062,0.874 -0.139,0.04 -0.284,0.057 -0.428,0.057 z"
     id="path6"
     inkscape:connector-curvature="0"
     style="fill:#ffac33" />
  <circle
     cx="17"
     cy="13.913"
     r="7"
     id="circle8"
     style="fill:#732700" />
</svg>
