<?xml version="1.0" encoding="UTF-8" standalone="no"?>
<svg
   xmlns:dc="http://purl.org/dc/elements/1.1/"
   xmlns:cc="http://creativecommons.org/ns#"
   xmlns:rdf="http://www.w3.org/1999/02/22-rdf-syntax-ns#"
   xmlns:svg="http://www.w3.org/2000/svg"
   xmlns="http://www.w3.org/2000/svg"
   xmlns:sodipodi="http://sodipodi.sourceforge.net/DTD/sodipodi-0.dtd"
   xmlns:inkscape="http://www.inkscape.org/namespaces/inkscape"
   viewBox="0 0 34.258755 34.711342"
   id="svg2"
   version="1.1"
   inkscape:version="0.91 r13725"
   sodipodi:docname="1f33a.svg"
   width="34.258755"
   height="34.711342">
  <metadata
     id="metadata20">
    <rdf:RDF>
      <cc:Work
         rdf:about="">
        <dc:format>image/svg+xml</dc:format>
        <dc:type
           rdf:resource="http://purl.org/dc/dcmitype/StillImage" />
      </cc:Work>
    </rdf:RDF>
  </metadata>
  <defs
     id="defs18" />
  <sodipodi:namedview
     pagecolor="#ffffff"
     bordercolor="#666666"
     borderopacity="1"
     objecttolerance="10"
     gridtolerance="10"
     guidetolerance="10"
     inkscape:pageopacity="0"
     inkscape:pageshadow="2"
     inkscape:window-width="640"
     inkscape:window-height="480"
     id="namedview16"
     showgrid="false"
     inkscape:zoom="6.5555556"
     inkscape:cx="16.788722"
     inkscape:cy="16.955882"
     inkscape:window-x="0"
     inkscape:window-y="0"
     inkscape:window-maximized="0"
     inkscape:current-layer="svg2" />
  <path
     d="m 18.390722,32.084461 c 6.509,6.506 17.254,-7.669 15.72,-7.669 -7.669,0 -22.227,1.161 -15.72,7.669 z"
     id="path4"
     inkscape:connector-curvature="0"
     style="fill:#77b255" />
  <path
     d="m 14.432722,33.127461 c -6.0320001,6.032 -15.7140001,-7.109 -14.2920001,-7.109 3.81,0 9.374,-0.348 12.7900001,0.867 2.958,1.052 4.304,3.442 1.502,6.242 z"
     id="path6"
     inkscape:connector-curvature="0"
     style="fill:#77b255" />
  <path
     d="m 33.401722,15.509461 c -0.052,-0.901 -0.175,-2.585 -1.398,-4.227 -1.16,-1.5490003 -3.805,-3.3710003 -5.534,-2.5850003 0.516,-1.676 -0.264,-4.125 -1.191,-5.49 -1.179,-1.736 -4.262,-3.84300004 -8.146,-3.02600004 -1.754,0.369 -4.18,2.03600004 -4.632,3.86400004 -1.18,-1.471 -4.2200001,-1.675 -6.0150001,-1.222 -2.026,0.511 -3.154,1.777 -3.739,2.461 l 0.003,-0.005 -0.03,0.034 -0.027,0.033 c -0.583,0.689 -1.656,1.994 -1.847,4.074 -0.193,2.1460003 0.75,5.8320003 3.026,6.0420003 0.149,0.014 0.324,0.031 0.514,0.051 -2.271,0.098 -3.572,3.654 -3.595,5.8 -0.022,2.102 0.926,3.506 1.443,4.243 l -0.003,-0.004 c 0.008,0.01 0.019,0.024 0.025,0.036 0.007,0.011 0.02,0.023 0.026,0.036 0.523,0.733 1.525,2.094 3.515,2.776 1.958,0.669 5.5530001,0.656 6.5670001,-1.236 -0.273,2.244 3.027,4.077 5.169,4.438 2.115,0.358 3.71,-0.358 4.55,-0.753 l -0.005,0.003 c 0.013,-0.008 0.028,-0.015 0.041,-0.021 l 0.041,-0.02 c 0.838,-0.4 2.398,-1.178 3.462,-3.04 0.729,-1.282 1.27,-3.403 0.951,-5.015 l 0.192,0.127 c 1.826,1.224 4.63,-1.119 5.705,-2.938 1.044,-1.761 0.932,-4.424 0.932,-4.436 z"
     id="path8"
     inkscape:connector-curvature="0"
     style="fill:#f4abba" />
  <path
     d="m 26.330722,13.297461 c -1.786,-0.997 -4.874,-0.434 -6.792,0.308 -0.266,-0.468 -0.621,-0.875 -1.051,-1.196 1.393,-1.607 3.526,-4.5930003 1.468,-6.3620003 -2.191,-1.883 -3.74,2.154 -3.575,5.6050003 -0.068,-0.003 -0.132,-0.02 -0.201,-0.02 -1.019,0 -1.94,0.402 -2.632,1.045 -1.401,-2.277 -3.9420001,-4.2440003 -5.3140001,-2.392 -1.482,2.002 1.148,3.153 4.2220001,4.2 -0.09,0.329 -0.154,0.668 -0.154,1.025 0,0.456 0.093,0.887 0.238,1.293 -2.5410001,0.732 -6.2360001,2.718 -4.2100001,4.91 2.1220001,2.296 4.4720001,-1.238 5.6040001,-3.053 0.635,0.454 1.407,0.727 2.247,0.727 0.225,0 0.441,-0.029 0.655,-0.066 -0.109,4.802 1.443,7.07 4.036,5.892 2.295,-1.043 -0.137,-5.299 -1.781,-7.165 0.316,-0.362 0.564,-0.779 0.729,-1.241 7.008,2.544 8.589,-2.351 6.511,-3.51 z"
     id="path10"
     inkscape:connector-curvature="0"
     style="fill:#ea596e" />
  <path
     d="m 16.495722,17.214461 c -0.679,0 -0.668,-0.562 -0.832,-1.25 -0.532,-2.233 -2.381,-6.3080003 -4.601,-9.1630003 -0.509,-0.654 -0.391,-1.596 0.263,-2.105 0.654,-0.508 1.596,-0.391 2.105,0.263 2.439,3.136 3.264,7.4040003 3.982,10.4210003 0.191,0.806 0.237,1.601 -0.569,1.792 -0.116,0.028 -0.233,0.042 -0.348,0.042 z"
     id="path12"
     inkscape:connector-curvature="0"
     style="fill:#be1931" />
  <path
     d="m 14.692722,5.0824607 c 0.498,0.684 0.079,1.838 -0.936,2.578 l -0.475,0.347 c -1.016,0.739 -2.243,0.785 -2.741,0.101 l -2.7800001,-3.817 c -0.498,-0.684 -0.079,-1.838 0.936,-2.577 l 0.475,-0.347 c 1.0150001,-0.73900004 2.2420001,-0.78500004 2.7400001,-0.101 l 2.781,3.816 z"
     id="path14"
     inkscape:connector-curvature="0"
     style="fill:#ffcc4d" />
</svg>
