<?xml version="1.0" encoding="UTF-8" standalone="no"?>
<svg
   xmlns:dc="http://purl.org/dc/elements/1.1/"
   xmlns:cc="http://creativecommons.org/ns#"
   xmlns:rdf="http://www.w3.org/1999/02/22-rdf-syntax-ns#"
   xmlns:svg="http://www.w3.org/2000/svg"
   xmlns="http://www.w3.org/2000/svg"
   xmlns:sodipodi="http://sodipodi.sourceforge.net/DTD/sodipodi-0.dtd"
   xmlns:inkscape="http://www.inkscape.org/namespaces/inkscape"
   viewBox="0 0 35.5611 34.362892"
   id="svg2"
   version="1.1"
   inkscape:version="0.91 r13725"
   sodipodi:docname="1f338.svg"
   width="35.5611"
   height="34.362892">
  <metadata
     id="metadata26">
    <rdf:RDF>
      <cc:Work
         rdf:about="">
        <dc:format>image/svg+xml</dc:format>
        <dc:type
           rdf:resource="http://purl.org/dc/dcmitype/StillImage" />
      </cc:Work>
    </rdf:RDF>
  </metadata>
  <defs
     id="defs24" />
  <sodipodi:namedview
     pagecolor="#ffffff"
     bordercolor="#666666"
     borderopacity="1"
     objecttolerance="10"
     gridtolerance="10"
     guidetolerance="10"
     inkscape:pageopacity="0"
     inkscape:pageshadow="2"
     inkscape:window-width="640"
     inkscape:window-height="480"
     id="namedview22"
     showgrid="false"
     inkscape:zoom="6.5555556"
     inkscape:cx="17.7802"
     inkscape:cy="17.180893"
     inkscape:window-x="0"
     inkscape:window-y="0"
     inkscape:window-maximized="0"
     inkscape:current-layer="svg2" />
  <path
     d="m 31.0782,19.989 c 4.197,-1.363 5.027,-3.182 4.191,-6.416 -0.952,0.308 -2.105,-0.001 -2.272,-0.518 -0.168,-0.513 0.581,-1.443 1.533,-1.753 -1.223,-3.107 -2.964,-4.089 -7.161,-2.727 -1.606,0.522 -3.238,1.492 -4.655,2.635 0.648,-1.701 1.066,-3.553 1.066,-5.242 0,-4.412 -1.473,-5.765 -4.807,-5.968 0,1 -0.652,2 -1.193,2 -0.541,0 -1.194,-1 -1.194,-2 -3.334,0.203 -4.806,1.556 -4.806,5.968 0,1.689 0.417,3.541 1.066,5.241 -1.416,-1.142 -3.0490001,-2.111 -4.6550001,-2.633 -4.197,-1.364 -5.938,-0.381 -7.162,2.727 0.951,0.31 1.701,1.238 1.534,1.753 -0.167,0.515 -1.32,0.826 -2.27099998,0.518 -0.837,3.233 -0.005,5.052 4.18999998,6.415 1.606,0.521 3.497,0.697 5.314,0.605 -1.524,0.994 -2.95,2.247 -3.943,3.613 -2.594,3.57 -2.197,5.53 0.381,7.654 0.588,-0.809 1.703,-1.235 2.142,-0.917 0.438,0.317 0.378,1.511 -0.21,2.32 2.8160001,1.795 4.8030001,1.565 7.3960001,-2.003 0.993,-1.366 1.743,-3.111 2.218,-4.867 0.475,1.757 1.226,3.501 2.218,4.867 2.594,3.57 4.58,3.798 7.397,2.003 -0.587,-0.81 -0.649,-2.002 -0.21,-2.321 0.437,-0.317 1.553,0.107 2.142,0.917 2.577,-2.123 2.973,-4.083 0.381,-7.653 -0.993,-1.366 -2.42,-2.619 -3.943,-3.613 1.816,0.092 3.706,-0.084 5.313,-0.605 z m -13.298,-0.47 c -0.162,-0.292 -0.353,-0.538 -0.588,-0.709 -0.234,-0.171 -0.528,-0.276 -0.856,-0.341 0.228,-0.244 0.403,-0.502 0.493,-0.778 0.09,-0.275 0.1,-0.587 0.059,-0.919 0.302,0.141 0.602,0.228 0.892,0.228 0.29,0 0.59,-0.087 0.894,-0.229 -0.041,0.332 -0.031,0.644 0.059,0.919 0.09,0.276 0.265,0.534 0.492,0.778 -0.327,0.065 -0.621,0.17 -0.855,0.341 -0.236,0.172 -0.428,0.418 -0.59,0.71 z"
     id="path4"
     inkscape:connector-curvature="0"
     style="fill:#f4abba" />
  <g
     id="g6"
     style="fill:#ffffff"
     transform="translate(-0.21980008,-0.818)">
    <path
       d="m 16.795,18.685 c -0.12,0.54 -0.653,0.88 -1.193,0.76 L 9.744,18.143 C 9.205,18.023 8.865,17.49 8.985,16.95 c 0.12,-0.539 0.654,-0.879 1.193,-0.759 l 5.857,1.302 c 0.54,0.12 0.88,0.653 0.76,1.192 z m 0.976,0.218 c 0.12,-0.54 0.654,-0.88 1.193,-0.76 l 5.857,1.302 c 0.54,0.12 0.879,0.653 0.76,1.193 -0.12,0.538 -0.654,0.879 -1.193,0.759 l -5.857,-1.302 c -0.54,-0.118 -0.88,-0.654 -0.76,-1.192 z"
       id="path8"
       inkscape:connector-curvature="0" />
    <path
       d="m 17.771,18.903 c -0.466,0.296 -1.083,0.159 -1.38,-0.308 L 13.17,13.534 c -0.296,-0.466 -0.16,-1.084 0.307,-1.38 0.466,-0.297 1.084,-0.159 1.38,0.307 l 3.222,5.062 c 0.295,0.466 0.158,1.083 -0.308,1.38 z m 0.797,1.252 c 0.466,-0.296 1.084,-0.159 1.38,0.307 l 3.223,5.062 c 0.296,0.467 0.159,1.083 -0.308,1.381 -0.466,0.296 -1.084,0.159 -1.381,-0.307 l -3.221,-5.062 c -0.296,-0.466 -0.157,-1.084 0.307,-1.381 z"
       id="path10"
       inkscape:connector-curvature="0" />
    <path
       d="m 17.988,17.927 c -0.539,-0.12 -0.879,-0.654 -0.759,-1.193 l 1.302,-5.857 c 0.119,-0.539 0.652,-0.879 1.192,-0.759 0.54,0.12 0.879,0.654 0.759,1.193 l -1.301,5.857 c -0.119,0.538 -0.654,0.879 -1.193,0.759 z m -0.217,0.976 c 0.539,0.119 0.879,0.653 0.759,1.192 l -1.3,5.857 c -0.121,0.54 -0.654,0.88 -1.194,0.76 -0.538,-0.12 -0.878,-0.654 -0.76,-1.193 l 1.303,-5.857 c 0.119,-0.539 0.653,-0.879 1.192,-0.759 z"
       id="path12"
       inkscape:connector-curvature="0" />
    <path
       d="m 17.771,18.902 c -0.297,-0.466 -0.159,-1.083 0.307,-1.38 l 5.062,-3.221 c 0.466,-0.296 1.084,-0.16 1.38,0.307 0.297,0.466 0.159,1.083 -0.307,1.38 l -5.062,3.221 c -0.466,0.297 -1.084,0.16 -1.38,-0.307 z"
       id="path14"
       inkscape:connector-curvature="0" />
    <path
       d="m 17.771,18.902 c 0.296,0.467 0.159,1.084 -0.307,1.381 l -5.062,3.222 c -0.466,0.296 -1.083,0.16 -1.381,-0.308 -0.296,-0.465 -0.159,-1.083 0.307,-1.38 l 5.062,-3.222 c 0.467,-0.296 1.085,-0.158 1.381,0.307 z"
       id="path16"
       inkscape:connector-curvature="0" />
  </g>
  <path
     d="m 21.7922,24.748 c 0.932,-0.592 2.168,-0.317 2.762,0.614 0.593,0.932 0.318,2.168 -0.614,2.762 -0.932,0.593 -2.168,0.318 -2.762,-0.614 -0.592,-0.932 -0.318,-2.168 0.614,-2.762 z m -7.462,-11.725 c -0.932,0.593 -2.168,0.319 -2.761,-0.613 -0.593,-0.932 -0.318,-2.168 0.614,-2.761 0.932,-0.593 2.168,-0.318 2.761,0.613 0.593,0.932 0.318,2.168 -0.614,2.761 z m 1.92,10.918 c 1.078,0.241 1.758,1.31 1.52,2.388 -0.24,1.078 -1.308,1.758 -2.387,1.519 -1.079,-0.24 -1.758,-1.309 -1.519,-2.387 0.239,-1.079 1.308,-1.758 2.386,-1.52 z m 3.037,-13.665 c -1.078,-0.239 -1.758,-1.308 -1.518,-2.386 0.239,-1.078 1.308,-1.758 2.386,-1.519 1.078,0.24 1.759,1.308 1.519,2.386 -0.241,1.079 -1.309,1.758 -2.387,1.519 z m -6.013,10.53 c 0.592,0.933 0.317,2.169 -0.614,2.763 -0.932,0.593 -2.168,0.318 -2.7620001,-0.615 -0.593,-0.931 -0.318,-2.167 0.6130001,-2.761 0.933,-0.592 2.169,-0.318 2.763,0.613 z m 9.339,-5.943 c -0.593,-0.932 -0.317,-2.168 0.614,-2.761 0.932,-0.593 2.168,-0.318 2.761,0.614 0.593,0.932 0.317,2.168 -0.613,2.761 -0.933,0.593 -2.169,0.318 -2.762,-0.614 z m 0.795,4.524 c 0.24,-1.079 1.309,-1.759 2.387,-1.52 1.078,0.24 1.758,1.309 1.519,2.387 -0.24,1.078 -1.309,1.758 -2.387,1.518 -1.079,-0.238 -1.758,-1.307 -1.519,-2.385 z m -12.69,-2.821 c -0.24,1.079 -1.3080001,1.758 -2.3860001,1.519 -1.078,-0.24 -1.758,-1.309 -1.519,-2.387 0.239,-1.078 1.308,-1.758 2.386,-1.519 C 10.2782,14.42 10.9572,15.488 10.7182,16.566 Z"
     id="path18"
     inkscape:connector-curvature="0"
     style="fill:#ea596e" />
  <circle
     cx="17.780199"
     cy="18"
     r="4"
     id="circle20"
     style="fill:#ffcc4d" />
</svg>
