<?xml version="1.0" encoding="UTF-8" standalone="no"?>
<svg
   xmlns:dc="http://purl.org/dc/elements/1.1/"
   xmlns:cc="http://creativecommons.org/ns#"
   xmlns:rdf="http://www.w3.org/1999/02/22-rdf-syntax-ns#"
   xmlns:svg="http://www.w3.org/2000/svg"
   xmlns="http://www.w3.org/2000/svg"
   xmlns:sodipodi="http://sodipodi.sourceforge.net/DTD/sodipodi-0.dtd"
   xmlns:inkscape="http://www.inkscape.org/namespaces/inkscape"
   viewBox="0 0 28.001354 34.380001"
   id="svg2"
   version="1.1"
   inkscape:version="0.91 r13725"
   sodipodi:docname="1f33e.svg"
   width="28.001354"
   height="34.380001">
  <metadata
     id="metadata12">
    <rdf:RDF>
      <cc:Work
         rdf:about="">
        <dc:format>image/svg+xml</dc:format>
        <dc:type
           rdf:resource="http://purl.org/dc/dcmitype/StillImage" />
      </cc:Work>
    </rdf:RDF>
  </metadata>
  <defs
     id="defs10" />
  <sodipodi:namedview
     pagecolor="#ffffff"
     bordercolor="#666666"
     borderopacity="1"
     objecttolerance="10"
     gridtolerance="10"
     guidetolerance="10"
     inkscape:pageopacity="0"
     inkscape:pageshadow="2"
     inkscape:window-width="640"
     inkscape:window-height="480"
     id="namedview8"
     showgrid="false"
     inkscape:zoom="6.5555556"
     inkscape:cx="16.000844"
     inkscape:cy="17"
     inkscape:window-x="0"
     inkscape:window-y="0"
     inkscape:window-maximized="0"
     inkscape:current-layer="svg2" />
  <path
     d="m 19.388844,0 c -1.852,0 -4.235,1.849 -6.22,4.826 -2.322,3.483 -1.069,5.989 -0.062,8.002 0.155,0.31 0.459,0.517 0.805,0.549 0.029,10e-4 0.059,0.003 0.089,0.003 0.313,0 0.61,-0.147 0.8,-0.4 2.394,-3.193 6.211,-8.196 6.907,-8.893 0.188,-0.187 0.293,-0.442 0.293,-0.707 0,-2.492 -1.35,-3.38 -2.612,-3.38 z m 2.378,8.995 c -1.21,0 -2.575,1.132 -4.565,3.785 -2.124,2.831 -2.461,5.313 -1.095,8.047 0.151,0.302 0.444,0.507 0.779,0.546 0.038,0.005 0.077,0.007 0.115,0.007 0.295,0 0.577,-0.131 0.769,-0.359 1.719,-2.063 5.173,-6.168 5.938,-6.934 0.188,-0.188 0.293,-0.442 0.293,-0.707 0,-1.085 0,-4.385 -2.234,-4.385 z"
     id="path4"
     inkscape:connector-curvature="0"
     style="fill:#ffcc4d" />
  <path
     d="m 27.874844,10.897 c -0.268,-0.482 -0.878,-0.654 -1.359,-0.385 -7.171,3.983 -13.783,14.15 -16.367,19.609 0.838,-10.195 5.569,-20.044 13.559,-28.034 0.391,-0.391 0.391,-1.023 0,-1.414 -0.391,-0.391 -1.023,-0.391 -1.414,0 -7.963,7.963 -12.8269999,17.717 -14.0049999,27.881 -0.674,-5.697 -0.978,-13.91 1.625,-19.768 0.2249999,-0.505 -0.003,-1.096 -0.507,-1.32 -0.505,-0.226 -1.096,0.003 -1.32,0.507 -1.326,2.983 -1.945,6.501 -2.162,10.009 -0.884,-1.884 -1.923,-3.602 -3.452,-3.602 l -0.046,0 c -0.91,0 -1.691,0.466 -2.321,1.726 -0.247,0.494 -0.047,0.922 0.447,1.169 0.495,0.248 1.095,0.046 1.342,-0.447 0.311,-0.622 0.525,-0.77 0.521,-0.792 0.636,0.196 1.744,2.696 2.162,3.642 0.196,0.443 0.374,0.842 0.527,1.15 0.148,0.296 0.425,0.478 0.728,0.529 0.026,4.957 0.698,9.53 1.163,12.091 l 0.02,0.11 c 0.088,0.483 0.509,0.822 0.984,0.822 0.059,0 0.119,-0.005 0.179,-0.016 0.122,-0.023 0.231,-0.071 0.331,-0.132 0.147,0.086 0.308,0.148 0.491,0.148 0.183,0 0.344,-0.062 0.492,-0.147 0.144,0.085 0.302,0.147 0.482,0.147 l 0.026,0 c 0.53,0 0.971,-0.448 1,-0.98 0.057,-1.037 2.494,-6.014 6.143,-11.043 0.104,-0.015 0.207,-0.033 0.305,-0.082 0.244,-0.122 0.517,-0.272 0.808,-0.433 0.934,-0.517 2.494,-1.38 3.106,-1.02 0.149,0.088 0.638,0.535 0.638,2.558 0,0.553 0.447,1 1,1 0.553,0 1,-0.447 1,-1 0,-2.236 -0.53,-3.636 -1.622,-4.28 -0.783,-0.461 -1.668,-0.424 -2.54,-0.174 2.32,-2.714 4.938,-5.165 7.647,-6.67 0.484,-0.269 0.658,-0.876 0.389,-1.359 z"
     id="path6"
     inkscape:connector-curvature="0"
     style="fill:#77b255" />
</svg>
