<?xml version="1.0" encoding="UTF-8" standalone="no"?>
<svg
   xmlns:dc="http://purl.org/dc/elements/1.1/"
   xmlns:cc="http://creativecommons.org/ns#"
   xmlns:rdf="http://www.w3.org/1999/02/22-rdf-syntax-ns#"
   xmlns:svg="http://www.w3.org/2000/svg"
   xmlns="http://www.w3.org/2000/svg"
   xmlns:sodipodi="http://sodipodi.sourceforge.net/DTD/sodipodi-0.dtd"
   xmlns:inkscape="http://www.inkscape.org/namespaces/inkscape"
   viewBox="0 0 36 36.001102"
   id="svg2"
   version="1.1"
   inkscape:version="0.91 r13725"
   sodipodi:docname="1f330.svg"
   width="36"
   height="36.001102">
  <metadata
     id="metadata22">
    <rdf:RDF>
      <cc:Work
         rdf:about="">
        <dc:format>image/svg+xml</dc:format>
        <dc:type
           rdf:resource="http://purl.org/dc/dcmitype/StillImage" />
      </cc:Work>
    </rdf:RDF>
  </metadata>
  <defs
     id="defs20" />
  <sodipodi:namedview
     pagecolor="#ffffff"
     bordercolor="#666666"
     borderopacity="1"
     objecttolerance="10"
     gridtolerance="10"
     guidetolerance="10"
     inkscape:pageopacity="0"
     inkscape:pageshadow="2"
     inkscape:window-width="640"
     inkscape:window-height="480"
     id="namedview18"
     showgrid="false"
     inkscape:zoom="6.5555556"
     inkscape:cx="18"
     inkscape:cy="18"
     inkscape:window-x="0"
     inkscape:window-y="0"
     inkscape:window-maximized="0"
     inkscape:current-layer="svg2" />
  <path
     d="m 36,25.001101 c 0,4 -8.059,11 -18,11 -9.941,0 -18,-7 -18,-11 C 0,6.0011013 17,0.00110127 18,0.00110127 c 1,0 18,6.00000003 18,24.99999973 z"
     id="path4"
     inkscape:connector-curvature="0"
     style="fill:#c1694f" />
  <g
     id="g6"
     style="fill:#a95233"
     transform="translate(0,0.00110127)">
    <path
       d="m 3.001,29.385 c -0.05,0 -0.1,-0.004 -0.15,-0.012 C 2.305,29.291 1.929,28.782 2.011,28.236 2.145,27.341 5.441,6.268 17.546,0.109 18.039,-0.143 18.64,0.055 18.891,0.547 19.141,1.039 18.945,1.641 18.453,1.892 7.267,7.583 4.021,28.325 3.989,28.533 3.914,29.029 3.488,29.385 3.001,29.385 Z"
       id="path8"
       inkscape:connector-curvature="0" />
    <path
       d="m 32.999,29.385 c -0.486,0 -0.913,-0.355 -0.988,-0.852 C 31.98,28.325 28.734,7.583 17.547,1.891 17.055,1.64 16.859,1.038 17.109,0.546 c 0.25,-0.492 0.854,-0.689 1.344,-0.438 12.107,6.16 15.401,27.234 15.536,28.128 0.082,0.546 -0.294,1.055 -0.841,1.137 -0.049,0.008 -0.1,0.012 -0.149,0.012 z"
       id="path10"
       inkscape:connector-curvature="0" />
    <path
       d="m 12.001,33 -0.054,-10e-4 c -0.551,-0.029 -0.975,-0.501 -0.945,-1.052 0.053,-0.999 1.356,-24.544 6.176,-31.516 0.314,-0.455 0.938,-0.567 1.391,-0.254 0.455,0.314 0.568,0.937 0.254,1.392 -4.5,6.508 -5.811,30.246 -5.824,30.484 C 12.97,32.587 12.529,33 12.001,33 Z"
       id="path12"
       inkscape:connector-curvature="0" />
    <path
       d="M 23.999,33 C 23.472,33 23.03,32.587 23.001,32.053 22.988,31.815 21.677,8.077 17.177,1.569 c -0.314,-0.454 -0.2,-1.077 0.254,-1.392 0.456,-0.314 1.079,-0.2 1.391,0.254 4.819,6.972 6.123,30.517 6.177,31.516 0.029,0.551 -0.395,1.021 -0.946,1.052 L 23.999,33 Z"
       id="path14"
       inkscape:connector-curvature="0" />
  </g>
  <path
     d="m 36,25.001101 c 0,4 -8.059,11 -18,11 -9.941,0 -18,-7 -18,-11 3,4 10,7 18,7 8,0 15,-3 18,-7 z"
     id="path16"
     inkscape:connector-curvature="0"
     style="fill:#662113" />
</svg>
