<?xml version="1.0" encoding="UTF-8" standalone="no"?>
<svg
   xmlns:dc="http://purl.org/dc/elements/1.1/"
   xmlns:cc="http://creativecommons.org/ns#"
   xmlns:rdf="http://www.w3.org/1999/02/22-rdf-syntax-ns#"
   xmlns:svg="http://www.w3.org/2000/svg"
   xmlns="http://www.w3.org/2000/svg"
   xmlns:sodipodi="http://sodipodi.sourceforge.net/DTD/sodipodi-0.dtd"
   xmlns:inkscape="http://www.inkscape.org/namespaces/inkscape"
   viewBox="0 0 27.832172 35.466885"
   id="svg2"
   version="1.1"
   inkscape:version="0.91 r13725"
   sodipodi:docname="1f34d.svg"
   width="27.832172"
   height="35.466885">
  <metadata
     id="metadata14">
    <rdf:RDF>
      <cc:Work
         rdf:about="">
        <dc:format>image/svg+xml</dc:format>
        <dc:type
           rdf:resource="http://purl.org/dc/dcmitype/StillImage" />
      </cc:Work>
    </rdf:RDF>
  </metadata>
  <defs
     id="defs12" />
  <sodipodi:namedview
     pagecolor="#ffffff"
     bordercolor="#666666"
     borderopacity="1"
     objecttolerance="10"
     gridtolerance="10"
     guidetolerance="10"
     inkscape:pageopacity="0"
     inkscape:pageshadow="2"
     inkscape:window-width="640"
     inkscape:window-height="480"
     id="namedview10"
     showgrid="false"
     inkscape:zoom="6.5555556"
     inkscape:cx="14.999"
     inkscape:cy="17.999886"
     inkscape:window-x="0"
     inkscape:window-y="0"
     inkscape:window-maximized="0"
     inkscape:current-layer="svg2" />
  <path
     d="M 15.24,9.1 C 14.963,5.793 17.41,4.38 17.41,4.38 14.211,4.493 12.516,7.206 12.516,7.206 11.764,5.906 13.462,3.194 14.685,2.487 11.487,2.6 11.015,4.607 11.015,4.607 9.512,2.006 9.985,0 9.985,0 8.864,0.647 8.218,2.113 7.844,3.512 L 5.526,0.842 C 5.296,1.886 5.683,4.016 6.099,5.801 3.044,4.011 0.196,5.651 0.196,5.651 c 3.95,1.188 5.45,3.788 5.45,3.788 0,0 -3.948,-1.187 -5.646,1.526 2.597,-0.092 4.5,0.499 5.856,1.23 -1.163,0.289 -3.145,-0.236 -4.355,1.371 0,0 3.198,-0.113 3.851,1.055 -2.172,0.614 -3.575,2.251 -3.575,2.251 4.422,-0.818 9.123,1.669 9.123,1.669 l 6.119,-3.532 C 15.99,10.402 19.661,8.282 19.661,8.282 16.937,6.387 15.24,9.1 15.24,9.1 Z"
     id="path4"
     inkscape:connector-curvature="0"
     style="fill:#5c913b" />
  <path
     d="m 26.559,22.347 c 2.488,4.309 1.218,9.7 -2.837,12.041 -4.055,2.341 -9.359,0.746 -11.846,-3.562 l -1.589,-2.753 c -2.488,-4.31 -1.217,-9.699 2.837,-12.04 4.055,-2.341 9.359,-0.747 11.846,3.562 l 1.589,2.752 z"
     id="path6"
     inkscape:connector-curvature="0"
     style="fill:#ffac33" />
  <path
     d="m 27.561,24.831 c -0.209,-0.848 -0.54,-1.685 -1.002,-2.484 l -0.186,-0.323 0,10e-4 -1.951,-0.828 0.624,-1.471 -0.075,-0.131 c -2.025,-3.51 -5.92,-5.217 -9.486,-4.466 l -0.818,1.926 -1.884,-0.8 c -3.28,2.122 -4.567,6.319 -3.262,10.128 l 1.006,0.427 -0.401,0.946 c 0.055,0.105 0.102,0.212 0.163,0.315 l 1.589,2.753 c 0.685,1.187 1.59,2.16 2.618,2.909 l 0.229,-0.538 1.951,0.828 -0.324,0.764 c 0.665,0.277 1.357,0.465 2.061,0.572 l 0.215,-0.507 1.403,0.595 c 1.144,-0.048 2.28,-0.336 3.343,-0.883 l -0.017,-0.007 0.828,-1.951 1.189,0.504 c 0.522,-0.521 0.973,-1.104 1.334,-1.736 l -1.693,-0.72 0.828,-1.951 1.667,0.707 c 0.191,-0.7 0.301,-1.427 0.316,-2.167 l -1.155,-0.49 0.828,-1.951 0.062,0.029 z m -6.212,-7.243 1.95,0.829 -0.828,1.95 -1.951,-0.828 0.829,-1.951 z m 0.294,4.731 -0.828,1.95 -1.951,-0.827 0.828,-1.951 1.951,0.828 z m -4.197,-6.387 1.951,0.828 -0.829,1.952 -1.951,-0.828 0.829,-1.952 z m -1.656,3.902 1.951,0.828 -0.828,1.951 -1.95,-0.828 0.827,-1.951 z m -3.902,-1.655 1.95,0.828 -0.828,1.949 -1.95,-0.828 0.828,-1.949 z m -2.484,5.853 0.828,-1.952 1.951,0.828 -0.829,1.952 -1.95,-0.828 z m 4.196,6.385 -1.951,-0.827 0.828,-1.951 1.951,0.828 -0.828,1.95 z m -0.295,-4.73 0.829,-1.951 1.951,0.827 -0.829,1.952 -1.951,-0.828 z m 4.196,6.386 -1.95,-0.828 0.828,-1.95 1.95,0.829 -0.828,1.949 z m -0.294,-4.73 0.828,-1.952 1.951,0.829 -0.828,1.952 -1.951,-0.829 z m 4.197,6.388 -1.951,-0.828 0.828,-1.951 1.951,0.828 -0.828,1.951 z m 1.657,-3.904 -1.95,-0.827 0.828,-1.952 1.95,0.828 -0.828,1.951 z m 1.656,-3.901 -1.951,-0.828 0.828,-1.95 1.951,0.827 -0.828,1.951 z"
     id="path8"
     inkscape:connector-curvature="0"
     style="fill:#ffcc4d" />
</svg>
