<?xml version="1.0" encoding="UTF-8" standalone="no"?>
<svg
   xmlns:dc="http://purl.org/dc/elements/1.1/"
   xmlns:cc="http://creativecommons.org/ns#"
   xmlns:rdf="http://www.w3.org/1999/02/22-rdf-syntax-ns#"
   xmlns:svg="http://www.w3.org/2000/svg"
   xmlns="http://www.w3.org/2000/svg"
   xmlns:sodipodi="http://sodipodi.sourceforge.net/DTD/sodipodi-0.dtd"
   xmlns:inkscape="http://www.inkscape.org/namespaces/inkscape"
   viewBox="0 0 33.639908 36"
   id="svg2"
   version="1.1"
   inkscape:version="0.91 r13725"
   sodipodi:docname="1f346.svg"
   width="33.639908"
   height="36">
  <metadata
     id="metadata12">
    <rdf:RDF>
      <cc:Work
         rdf:about="">
        <dc:format>image/svg+xml</dc:format>
        <dc:type
           rdf:resource="http://purl.org/dc/dcmitype/StillImage" />
      </cc:Work>
    </rdf:RDF>
  </metadata>
  <defs
     id="defs10" />
  <sodipodi:namedview
     pagecolor="#ffffff"
     bordercolor="#666666"
     borderopacity="1"
     objecttolerance="10"
     gridtolerance="10"
     guidetolerance="10"
     inkscape:pageopacity="0"
     inkscape:pageshadow="2"
     inkscape:window-width="640"
     inkscape:window-height="480"
     id="namedview8"
     showgrid="false"
     inkscape:zoom="6.5555556"
     inkscape:cx="16.639907"
     inkscape:cy="18"
     inkscape:window-x="0"
     inkscape:window-y="0"
     inkscape:window-maximized="0"
     inkscape:current-layer="svg2" />
  <path
     d="m 4.6399067,4 c 3,0 5,2 8.0000003,6 3,4 7.957,7.191 12,8 5,1 9,5 9,11 0,4.897 -3.846,7 -9,7 -5,0 -9,-3 -14,-8 C 5.6399067,23 0.6399067,14 0.6399067,10 c 0,-4 1,-6 4,-6 z"
     id="path4"
     inkscape:connector-curvature="0"
     style="fill:#744eaa" />
  <path
     d="m 2.1549067,0 c 1.248,0 1.248,1.248 1.248,2.495 0,1.764 1.248,1.129 2.496,1.129 1.246,0 3.741,2.376 3.741,2.376 l -3.742,0 c -1.248,0 0,2.614 -1.248,2.614 -1.248,0 -1.248,-1.188 -2.495,-1.188 -1.247,0 -1.515,3.574 -1.515,3.574 0,0 -1.604,-4.153 0.267,-6.024 1.248,-1.248 -1.247,-4.976 1.248,-4.976 z"
     id="path6"
     inkscape:connector-curvature="0"
     style="fill:#77b255" />
</svg>
