<?xml version="1.0" encoding="UTF-8" standalone="no"?>
<svg
   xmlns:dc="http://purl.org/dc/elements/1.1/"
   xmlns:cc="http://creativecommons.org/ns#"
   xmlns:rdf="http://www.w3.org/1999/02/22-rdf-syntax-ns#"
   xmlns:svg="http://www.w3.org/2000/svg"
   xmlns="http://www.w3.org/2000/svg"
   xmlns:sodipodi="http://sodipodi.sourceforge.net/DTD/sodipodi-0.dtd"
   xmlns:inkscape="http://www.inkscape.org/namespaces/inkscape"
   viewBox="0 0 35.998848 35.832169"
   id="svg2"
   version="1.1"
   inkscape:version="0.91 r13725"
   sodipodi:docname="1f34a.svg"
   width="35.998848"
   height="35.832169">
  <metadata
     id="metadata14">
    <rdf:RDF>
      <cc:Work
         rdf:about="">
        <dc:format>image/svg+xml</dc:format>
        <dc:type
           rdf:resource="http://purl.org/dc/dcmitype/StillImage" />
      </cc:Work>
    </rdf:RDF>
  </metadata>
  <defs
     id="defs12" />
  <sodipodi:namedview
     pagecolor="#ffffff"
     bordercolor="#666666"
     borderopacity="1"
     objecttolerance="10"
     gridtolerance="10"
     guidetolerance="10"
     inkscape:pageopacity="0"
     inkscape:pageshadow="2"
     inkscape:window-width="640"
     inkscape:window-height="480"
     id="namedview10"
     showgrid="false"
     inkscape:zoom="6.5555556"
     inkscape:cx="17.999848"
     inkscape:cy="18"
     inkscape:window-x="0"
     inkscape:window-y="0"
     inkscape:window-maximized="0"
     inkscape:current-layer="svg2" />
  <path
     d="m 2.9998484,19.332167 c 0,-9.112 7.3869996,-16.5 16.4989996,-16.5 9.113,0 16.5,7.387 16.5,16.5 0,9.113 -7.387,16.5 -16.5,16.5 -9.112,0 -16.4989996,-7.387 -16.4989996,-16.5 z"
     id="path4"
     inkscape:connector-curvature="0"
     style="fill:#f4900c" />
  <path
     d="m 11.413848,7.417167 c -0.267,-0.267 -0.797,-0.197 -1.355,0.12 -3.2999996,-2.732 -8.6529996,-3.652 -8.8949996,-3.692 -0.54599995,-0.089 -1.05899995,0.277 -1.14999995,0.821 -0.091,0.544 0.276,1.06 0.821,1.151 0.053,0.009 4.93399995,0.854 7.82099995,3.16 -0.275,0.525 -0.324,1.015 -0.07,1.268 0.39,0.391 1.34,0.074 2.1209996,-0.707 0.781,-0.78 1.097,-1.73 0.707,-2.121 z"
     id="path6"
     inkscape:connector-curvature="0"
     style="fill:#662113" />
  <path
     d="m 20.999848,0.83216702 c 0,0 -3.106,4.31799998 -7.021,5.27299998 -2.979,0.727 -6.9379996,0.797 -7.3329996,-0.123 -0.394,-0.919 1.572,-3.937 4.9689996,-5.39299998 3.397,-1.455 9.385,0.243 9.385,0.243 z"
     id="path8"
     inkscape:connector-curvature="0"
     style="fill:#5c913b" />
</svg>
