<?xml version="1.0" encoding="UTF-8" standalone="no"?>
<svg
   xmlns:dc="http://purl.org/dc/elements/1.1/"
   xmlns:cc="http://creativecommons.org/ns#"
   xmlns:rdf="http://www.w3.org/1999/02/22-rdf-syntax-ns#"
   xmlns:svg="http://www.w3.org/2000/svg"
   xmlns="http://www.w3.org/2000/svg"
   xmlns:sodipodi="http://sodipodi.sourceforge.net/DTD/sodipodi-0.dtd"
   xmlns:inkscape="http://www.inkscape.org/namespaces/inkscape"
   viewBox="0 0 30 36.000252"
   id="svg2"
   version="1.1"
   inkscape:version="0.91 r13725"
   sodipodi:docname="1f34f.svg"
   width="30"
   height="36.000252">
  <metadata
     id="metadata14">
    <rdf:RDF>
      <cc:Work
         rdf:about="">
        <dc:format>image/svg+xml</dc:format>
        <dc:type
           rdf:resource="http://purl.org/dc/dcmitype/StillImage" />
      </cc:Work>
    </rdf:RDF>
  </metadata>
  <defs
     id="defs12" />
  <sodipodi:namedview
     pagecolor="#ffffff"
     bordercolor="#666666"
     borderopacity="1"
     objecttolerance="10"
     gridtolerance="10"
     guidetolerance="10"
     inkscape:pageopacity="0"
     inkscape:pageshadow="2"
     inkscape:window-width="640"
     inkscape:window-height="480"
     id="namedview10"
     showgrid="false"
     inkscape:zoom="6.5555556"
     inkscape:cx="15"
     inkscape:cy="18"
     inkscape:window-x="0"
     inkscape:window-y="0"
     inkscape:window-maximized="0"
     inkscape:current-layer="svg2" />
  <path
     d="m 21,7.00025 c -3,0 -3,1 -6,1 -3,0 -3,-1 -6,-1 -4,0 -9,2 -9,9 0,11 6,20 10,20 3,0 3,-1 5,-1 2,0 2,1 5,1 4,0 10,-9 10,-20 0,-7.001 -5,-9 -9,-9 z"
     id="path4"
     inkscape:connector-curvature="0"
     style="fill:#77b255" />
  <path
     d="m 14.311,7.88025 c 0,0 -1.775,-4.674 -6.58,-6.06 -3.843,-1.108 -6.318,0.26 -6.318,0.26 0,0 3.012,3.991 5.895,4.822 2.882,0.83 7.003,0.978 7.003,0.978 z"
     id="path6"
     inkscape:connector-curvature="0"
     style="fill:#3e721d" />
  <path
     d="m 15,10.00025 c -0.552,0 -1,-0.448 -1,-1 0,-3.441 1.2,-6.615 3.293,-8.707 0.391,-0.391 1.023,-0.391 1.414,0 0.391,0.391 0.391,1.024 0,1.414 -1.721,1.72 -2.707,4.378 -2.707,7.293 0,0.552 -0.448,1 -1,1 z"
     id="path8"
     inkscape:connector-curvature="0"
     style="fill:#662113" />
</svg>
