<?xml version="1.0" encoding="UTF-8" standalone="no"?>
<svg
   xmlns:dc="http://purl.org/dc/elements/1.1/"
   xmlns:cc="http://creativecommons.org/ns#"
   xmlns:rdf="http://www.w3.org/1999/02/22-rdf-syntax-ns#"
   xmlns:svg="http://www.w3.org/2000/svg"
   xmlns="http://www.w3.org/2000/svg"
   xmlns:sodipodi="http://sodipodi.sourceforge.net/DTD/sodipodi-0.dtd"
   xmlns:inkscape="http://www.inkscape.org/namespaces/inkscape"
   viewBox="0 0 31.155138 34.311401"
   id="svg2"
   version="1.1"
   inkscape:version="0.91 r13725"
   sodipodi:docname="1f348.svg"
   width="31.155138"
   height="34.311401">
  <metadata
     id="metadata16">
    <rdf:RDF>
      <cc:Work
         rdf:about="">
        <dc:format>image/svg+xml</dc:format>
        <dc:type
           rdf:resource="http://purl.org/dc/dcmitype/StillImage" />
      </cc:Work>
    </rdf:RDF>
  </metadata>
  <defs
     id="defs14" />
  <sodipodi:namedview
     pagecolor="#ffffff"
     bordercolor="#666666"
     borderopacity="1"
     objecttolerance="10"
     gridtolerance="10"
     guidetolerance="10"
     inkscape:pageopacity="0"
     inkscape:pageshadow="2"
     inkscape:window-width="640"
     inkscape:window-height="480"
     id="namedview12"
     showgrid="false"
     inkscape:zoom="6.5555556"
     inkscape:cx="15.025805"
     inkscape:cy="16.839468"
     inkscape:window-x="0"
     inkscape:window-y="0"
     inkscape:window-maximized="0"
     inkscape:current-layer="svg2" />
  <path
     d="m 28.949805,10.453931 c 4.418,7.652 1.99,17.326 -5.424,21.607 -7.414,4.28 -16.5050003,2.413 -20.9240003,-5.241 -4.999,-8.66 -2.49,-18.1919998 4.924,-22.4719998 7.4140003,-4.27999998 17.9240003,0.044 21.4240003,6.1059998 z"
     id="path4"
     inkscape:connector-curvature="0"
     style="fill:#a6d388" />
  <path
     d="m 21.025805,5.4719312 c 3,1 6,4 8,6.9999998 0.836,1.254 0.729,-0.078 -0.294,-2.348 -3.686,-5.8839998 -13.929,-9.97699978 -21.2060003,-5.7759998 -3.01,1.738 -5.194,4.349 -6.413,7.4079998 0.721,-0.813 1.433,-1.284 1.913,-1.284 1,0 -1.896,3.279 1,11 3,8 3,4 3,4 0,0 -2,-9 -1,-12 1,-3 2,-4.9999998 3,-3.9999998 1.0000003,0.9999998 5.0000003,8.9999998 7.0000003,13.9999998 2.259,5.647 2,-1 -1,-8 -2.841,-6.6279998 -3,-7.9999998 -2,-7.9999998 1,0 3.465,1.464 7,4.9999998 2,2 3,5 4,6 1,1 1,-1 0,-4 -0.707,-2.121 -3,-5.9999998 -6,-7.9999998 -2.496,-1.664 0,-2 3,-1 z"
     id="path6"
     inkscape:connector-curvature="0"
     style="fill:#77b255" />
  <path
     d="m 8.9598047,5.8299312 c -0.479,0.276 -1.091,0.112 -1.367,-0.366 -1.104,-1.914 -1.26,-4.303 -1.266,-4.404 -0.033,-0.54999998 0.387,-1.02199998 0.937,-1.05799998 0.552,-0.034 1.025,0.385 1.061,0.936 0.001,0.021 0.137,2.02699998 1.001,3.52499998 0.275,0.479 0.112,1.091 -0.366,1.367 z"
     id="path8"
     inkscape:connector-curvature="0"
     style="fill:#5c913b" />
  <path
     d="m 8.9868047,30.004931 c -0.961,-0.533 -1.727,-1.976 -2.409,-3.225 -0.682,-1.249 0.276,-1.276 0.886,-0.159 0.681,1.249 1.204,1.612 1.886,2.861 0.6820003,1.249 0.194,0.832 -0.363,0.523 z m 9.5430003,0.373 c -0.874,-2.059 -0.812,-3.057 -1.686,-5.114 -0.874,-2.059 -0.749,-4.055 0.124,-1.997 0.874,2.059 1.748,4.118 1.687,5.115 -0.064,0.999 -0.125,1.996 -0.125,1.996 z m 5.496,-11.906 c 1,3 0,2 1,5 1,3 1,5 1,0 0,-3.162 -1,-6 -2,-7 -1.581,-1.581 0,2 0,2 z"
     id="path10"
     inkscape:connector-curvature="0"
     style="fill:#77b255" />
</svg>
