<?xml version="1.0" encoding="UTF-8" standalone="no"?>
<svg
   xmlns:dc="http://purl.org/dc/elements/1.1/"
   xmlns:cc="http://creativecommons.org/ns#"
   xmlns:rdf="http://www.w3.org/1999/02/22-rdf-syntax-ns#"
   xmlns:svg="http://www.w3.org/2000/svg"
   xmlns="http://www.w3.org/2000/svg"
   xmlns:sodipodi="http://sodipodi.sourceforge.net/DTD/sodipodi-0.dtd"
   xmlns:inkscape="http://www.inkscape.org/namespaces/inkscape"
   viewBox="0 0 36 23.438"
   id="svg2"
   version="1.1"
   inkscape:version="0.91 r13725"
   sodipodi:docname="1f35b.svg"
   width="36"
   height="23.438">
  <metadata
     id="metadata20">
    <rdf:RDF>
      <cc:Work
         rdf:about="">
        <dc:format>image/svg+xml</dc:format>
        <dc:type
           rdf:resource="http://purl.org/dc/dcmitype/StillImage" />
      </cc:Work>
    </rdf:RDF>
  </metadata>
  <defs
     id="defs18" />
  <sodipodi:namedview
     pagecolor="#ffffff"
     bordercolor="#666666"
     borderopacity="1"
     objecttolerance="10"
     gridtolerance="10"
     guidetolerance="10"
     inkscape:pageopacity="0"
     inkscape:pageshadow="2"
     inkscape:window-width="640"
     inkscape:window-height="480"
     id="namedview16"
     showgrid="false"
     inkscape:zoom="6.5555556"
     inkscape:cx="18"
     inkscape:cy="15"
     inkscape:window-x="0"
     inkscape:window-y="0"
     inkscape:window-maximized="0"
     inkscape:current-layer="svg2" />
  <ellipse
     cx="18"
     cy="13.438"
     rx="18"
     ry="10"
     id="ellipse4"
     style="fill:#939598" />
  <ellipse
     cx="18"
     cy="11.438"
     rx="18"
     ry="10"
     id="ellipse6"
     style="fill:#f1f2f2" />
  <ellipse
     cx="18"
     cy="11.049"
     rx="14.8"
     ry="7.6110001"
     id="ellipse8"
     style="fill:#f4900c" />
  <path
     d="M 13,14.438 C 9.25,14.438 3,12.376 3,8.938 3,4.813 6.828,0 13,0 c 6.172,0 10,5.5 10,8.938 0,3.438 -5.625,5.5 -10,5.5 z"
     id="path10"
     inkscape:connector-curvature="0"
     style="fill:#eeeeee" />
  <path
     d="M 4.64,9.259 C 4.295,9.119 4.129,8.725 4.27,8.38 4.41,8.036 4.804,7.87 5.148,8.01 l 1.249,0.509 c 0.345,0.14 0.51,0.533 0.37,0.878 C 6.626,9.742 6.233,9.908 5.888,9.768 L 4.64,9.259 Z M 8.344,5.826 C 8.037,6.037 7.617,5.959 7.406,5.651 7.196,5.344 7.274,4.924 7.581,4.714 L 8.694,3.952 C 9.001,3.742 9.42,3.82 9.631,4.127 9.841,4.434 9.763,4.854 9.456,5.065 L 8.344,5.826 Z m 9,5 c -0.307,0.211 -0.727,0.133 -0.938,-0.175 -0.21,-0.307 -0.132,-0.728 0.175,-0.938 l 1.113,-0.762 c 0.307,-0.211 0.726,-0.132 0.937,0.175 0.21,0.307 0.132,0.727 -0.175,0.937 l -1.112,0.763 z M 11.696,8.985 C 11.184,8.777 10.938,8.193 11.147,7.681 11.356,7.17 11.94,6.924 12.451,7.132 l 1.853,0.755 c 0.511,0.208 0.757,0.791 0.549,1.303 -0.208,0.512 -0.792,0.758 -1.304,0.549 L 11.696,8.985 Z M 16.641,5.259 C 16.295,5.119 16.129,4.725 16.271,4.38 16.411,4.036 16.805,3.87 17.149,4.01 l 1.25,0.509 c 0.344,0.14 0.51,0.533 0.369,0.878 -0.141,0.345 -0.533,0.511 -0.879,0.37 L 16.641,5.259 Z m -5.734,5.761 c 0.348,-0.133 0.738,0.042 0.871,0.391 0.132,0.347 -0.044,0.737 -0.392,0.868 L 10.125,12.76 C 9.779,12.893 9.389,12.718 9.257,12.369 9.123,12.02 9.298,11.632 9.647,11.498 l 1.26,-0.478 z"
     id="path12"
     inkscape:connector-curvature="0"
     style="fill:#ccd6dd" />
  <path
     d="m 30,9.438 c 0,1.104 -0.896,2 -2,2 l -1,0 c -1.104,0 -2,-0.896 -2,-2 0,-1.104 0.896,-2 2,-2 l 1,0 c 1.104,0 2,0.896 2,2 z m -3,4.5 c 0,0.828 -0.672,1.5 -1.5,1.5 l -1,0 c -0.828,0 -1.5,-0.672 -1.5,-1.5 0,-0.828 0.672,-1.5 1.5,-1.5 l 1,0 c 0.828,0 1.5,0.672 1.5,1.5 z m -6,2.5 c 0,0.553 -0.447,1 -1,1 l -1,0 c -0.553,0 -1,-0.447 -1,-1 0,-0.553 0.447,-1 1,-1 l 1,0 c 0.553,0 1,0.447 1,1 z"
     id="path14"
     inkscape:connector-curvature="0"
     style="fill:#ffd983" />
</svg>
