<?xml version="1.0" encoding="UTF-8" standalone="no"?>
<svg
   xmlns:dc="http://purl.org/dc/elements/1.1/"
   xmlns:cc="http://creativecommons.org/ns#"
   xmlns:rdf="http://www.w3.org/1999/02/22-rdf-syntax-ns#"
   xmlns:svg="http://www.w3.org/2000/svg"
   xmlns="http://www.w3.org/2000/svg"
   xmlns:sodipodi="http://sodipodi.sourceforge.net/DTD/sodipodi-0.dtd"
   xmlns:inkscape="http://www.inkscape.org/namespaces/inkscape"
   viewBox="0 0 30 33"
   id="svg2"
   version="1.1"
   inkscape:version="0.91 r13725"
   sodipodi:docname="1f35f.svg"
   width="30"
   height="33">
  <metadata
     id="metadata18">
    <rdf:RDF>
      <cc:Work
         rdf:about="">
        <dc:format>image/svg+xml</dc:format>
        <dc:type
           rdf:resource="http://purl.org/dc/dcmitype/StillImage" />
      </cc:Work>
    </rdf:RDF>
  </metadata>
  <defs
     id="defs16" />
  <sodipodi:namedview
     pagecolor="#ffffff"
     bordercolor="#666666"
     borderopacity="1"
     objecttolerance="10"
     gridtolerance="10"
     guidetolerance="10"
     inkscape:pageopacity="0"
     inkscape:pageshadow="2"
     inkscape:window-width="640"
     inkscape:window-height="480"
     id="namedview14"
     showgrid="false"
     inkscape:zoom="6.5555556"
     inkscape:cx="15"
     inkscape:cy="17"
     inkscape:window-x="0"
     inkscape:window-y="0"
     inkscape:window-maximized="0"
     inkscape:current-layer="svg2" />
  <path
     d="M 15,0 C 6.716,0 0,4.492 0,12.5 0,12.559 0.052,13.258 0.125,14.009 0.391,13.995 15,26 15,26 15,26 29.607,13.994 29.871,14.008 29.921,13.514 30,12.577 30,12.5 30,4.492 23.284,0 15,0 Z"
     id="path4"
     inkscape:connector-curvature="0"
     style="fill:#be1931" />
  <path
     d="M 27.166,9.509 C 26.833,9.471 26.517,9.549 26.248,9.705 26.245,9.273 26.189,8.894 26.046,8.601 L 26.422,7.473 C 26.684,6.687 26.26,5.838 25.474,5.576 25.123,5.457 24.761,5.483 24.442,5.612 24.25,4.892 23.558,4.406 22.797,4.512 22.674,4.529 22.559,4.564 22.449,4.608 22.296,4.043 21.819,3.596 21.203,3.512 20.372,3.401 19.625,3.975 19.514,4.796 L 19.2,7.102 C 18.904,6.705 18.421,6.46 17.894,6.502 17.251,6.548 16.737,6.993 16.565,7.577 L 16.492,6.849 C 16.409,6.024 15.667,5.422 14.85,5.506 14.034,5.588 13.438,6.31 13.507,7.125 l -0.02,0.01 C 13.536,6.604 13.304,6.094 12.887,5.789 L 12.47,3.705 C 12.307,2.893 11.52,2.364 10.705,2.528 9.893,2.69 9.366,3.481 9.528,4.293 L 10.246,7.884 9.864,9.489 8.41,5.487 C 8.126,4.708 7.265,4.306 6.488,4.59 5.709,4.874 5.307,5.734 5.59,6.513 L 6.698,9.56 C 6.353,9.796 6.104,10.17 6.052,10.618 L 5.807,12.717 5.48,10.754 C 5.344,9.936 4.569,9.382 3.754,9.521 2.937,9.657 2.385,10.43 2.521,11.247 l 1.55,9.299 23.305,0 c 0.049,-0.122 1.116,-9.38 1.116,-9.38 0.09,-0.824 -0.503,-1.565 -1.326,-1.657 z"
     id="path6"
     inkscape:connector-curvature="0"
     style="fill:#f4900c" />
  <path
     d="M 24.486,5.797 C 24.477,5.733 24.458,5.674 24.442,5.613 24.25,4.893 23.558,4.407 22.797,4.513 22.674,4.53 22.559,4.565 22.449,4.609 21.822,4.857 21.418,5.504 21.514,6.202 l 1.956,14.343 3.028,0 -2.012,-14.748 z m -4.99,2.096 C 19.475,7.596 19.365,7.326 19.199,7.103 18.903,6.706 18.42,6.461 17.893,6.503 17.25,6.549 16.736,6.994 16.564,7.578 16.515,7.745 16.49,7.922 16.503,8.106 l 0.879,12.312 0.009,0.127 3.009,0 L 20.398,20.518 19.496,7.893 Z M 7.715,9.301 C 7.341,9.258 6.987,9.361 6.698,9.559 6.353,9.795 6.104,10.169 6.052,10.617 l -1.159,9.929 3.02,0 1.118,-9.581 C 9.127,10.142 8.538,9.397 7.715,9.301 Z M 12.471,3.706 C 12.308,2.894 11.521,2.365 10.706,2.529 9.894,2.691 9.367,3.482 9.529,4.294 l 3.25,16.252 3.059,0 -3.367,-16.84 z"
     id="path8"
     inkscape:connector-curvature="0"
     style="fill:#ffcc4d" />
  <path
     d="m 26,15 c 0,2.762 -4.373,5 -11,5 C 8.373,20 4,17.762 4,15 4,13.896 2.104,14 1,14 0.684,14 0.391,13.995 0.125,14.009 0.186,14.644 2,29 2,29 c 0,2.209 1.791,4 4,4 l 18,0 c 2.209,0 4,-1.791 4,-4 0,0 1.858,-14.864 1.871,-14.992 C 29.607,13.994 29.314,14 29,14 c -1.104,0 -3,-0.104 -3,1 z"
     id="path10"
     inkscape:connector-curvature="0"
     style="fill:#dd2e44" />
  <circle
     cx="15"
     cy="26"
     r="4"
     id="circle12"
     style="fill:#be1931" />
</svg>
