<?xml version="1.0" encoding="UTF-8" standalone="no"?>
<svg
   xmlns:dc="http://purl.org/dc/elements/1.1/"
   xmlns:cc="http://creativecommons.org/ns#"
   xmlns:rdf="http://www.w3.org/1999/02/22-rdf-syntax-ns#"
   xmlns:svg="http://www.w3.org/2000/svg"
   xmlns="http://www.w3.org/2000/svg"
   xmlns:sodipodi="http://sodipodi.sourceforge.net/DTD/sodipodi-0.dtd"
   xmlns:inkscape="http://www.inkscape.org/namespaces/inkscape"
   viewBox="0 0 30 35.547352"
   id="svg2"
   version="1.1"
   inkscape:version="0.91 r13725"
   sodipodi:docname="1f353.svg"
   width="30"
   height="35.547352">
  <metadata
     id="metadata14">
    <rdf:RDF>
      <cc:Work
         rdf:about="">
        <dc:format>image/svg+xml</dc:format>
        <dc:type
           rdf:resource="http://purl.org/dc/dcmitype/StillImage" />
      </cc:Work>
    </rdf:RDF>
  </metadata>
  <defs
     id="defs12" />
  <sodipodi:namedview
     pagecolor="#ffffff"
     bordercolor="#666666"
     borderopacity="1"
     objecttolerance="10"
     gridtolerance="10"
     guidetolerance="10"
     inkscape:pageopacity="0"
     inkscape:pageshadow="2"
     inkscape:window-width="640"
     inkscape:window-height="480"
     id="namedview10"
     showgrid="false"
     inkscape:zoom="6.5555556"
     inkscape:cx="15.001"
     inkscape:cy="17.805231"
     inkscape:window-x="0"
     inkscape:window-y="0"
     inkscape:window-maximized="0"
     inkscape:current-layer="svg2" />
  <path
     d="m 19.615,34.58712 c 3.462,-1.154 6.117,-3.034 6.12,-9.373 0.002,-4.011 4.266,-8.472 4.265,-12.551 C 29.999,8.7421201 25.385,2.2791201 14.9,3.3771201 4.123,4.5061201 10e-4,7.7421201 0,14.81512 c 0,4.927 5.304,8.381 8.127,13.518 1.874,3.409 7.425,9.596 11.488,6.254 z"
     id="path4"
     inkscape:connector-curvature="0"
     style="fill:#be1931" />
  <path
     d="m 23.253,3.3141201 c -1.278,-1.044 -3.28,-1.55 -5.35,-1.677 0.273,-0.037 0.542,-0.076 0.82,-0.094 0.973,-0.063 3.614,-1.23199996 1.4,-1.08699996 -0.969,0.063 -1.901,0.259 -2.837,0.423 0.237,-0.154 0.479,-0.306 0.74,-0.442 -0.025,-0.695 -4.025,-0.695 -6.044,0.99299996 -0.512,-0.112 -0.981,-0.68799996 -3.981,-0.68799996 -2,0 -4.685,0.92599996 -3,0.99999996 0.917,0.041 2,0 1.858,0.365 -0.655,0.06 -3.858,0.635 -3.858,1.635 0,0.353 2.76,-0.173 3,0 -1.722,0.644 -3,2 -3,3 0,0.423 2.211,-0.825 3,-1 -1,1 -1.4,1.701 -1.342,2.427 0.038,0.475 2.388,-0.09 2.632,-0.169 0.822,-0.27 3.71,-1.258 4.6,-2.724 0.117,0.285 2.963,1.341 4.11,1.466 0.529,0.058 2.62,0.274 2.141,-0.711 -0.141,-0.289 -1.141,-1.289 -1.446,-2.264 0.446,-0.019 8.305,0.975 6.557,-0.453 z"
     id="path6"
     inkscape:connector-curvature="0"
     style="fill:#77b255" />
  <path
     d="m 6.34,17.04812 c -0.136,-1.46 -2.54,-3.252 -2.331,-1 0.136,1.46 2.54,3.252 2.331,1 z m 7.458,0.553 c -0.069,-0.622 -0.282,-1.191 -0.687,-1.671 -0.466,-0.55 -1.075,-0.362 -1.234,0.316 -0.187,0.799 0.082,1.752 0.606,2.372 l 0.041,0.048 c -0.213,-0.525 -0.427,-1.05 -0.642,-1.574 l 0.006,0.047 c 0.071,0.64 0.397,1.73 1.136,1.906 0.754,0.182 0.826,-0.988 0.774,-1.444 z m 5.752,-4.841 c 0.476,-0.955 0.17,-3.9619999 -0.831,-1.954 -0.476,0.954 -0.171,3.962 0.831,1.954 z m 7.211,-1.457 c -0.03,-0.357 -0.073,-0.78 -0.391,-1.01 -1.189,-0.8579999 -2.381,2.359 -1.385,3.08 0.02,0.012 0.036,0.025 0.055,0.039 l -0.331,-0.919 c 0,0.018 0.001,0.035 0.003,0.052 0.049,0.564 0.376,1.377 1.084,0.948 0.667,-0.406 1.028,-1.444 0.965,-2.19 z m -1.345,8.567 c 1.016,-1.569 -0.545,-3.451 -1.78,-1.542 -1.016,1.568 0.546,3.45 1.78,1.542 z m -5.748,2.894 c 0.173,-1.938 -2.309,-2.752 -2.51,-0.496 -0.173,1.938 2.309,2.752 2.51,0.496 z m -9.896,-1.212 -0.049,0.004 1.362,0.715 c -0.006,-0.004 -0.011,-0.011 -0.018,-0.017 -0.306,-0.28 -1.353,-1.083 -1.788,-0.592 -0.44,0.497 0.498,1.421 0.804,1.703 0.342,0.314 0.928,0.763 1.429,0.73 1.437,-0.093 -0.783,-2.605 -1.74,-2.543 z m 13.227,5.907 c 0.969,-1.066 0.725,-4.05 -0.798,-2.376 -0.969,1.066 -0.724,4.05 0.798,2.376 z M 9.6,13.49512 c 0.093,-0.005 0.187,-0.012 0.28,-0.019 0.703,-0.046 1.004,-1.454 1.042,-1.952 0.044,-0.571 -0.043,-1.456 -0.785,-1.407 l -0.281,0.019 c -0.702,0.047 -1.004,1.454 -1.042,1.952 -0.044,0.571 0.044,1.457 0.786,1.407 z m 7.846,15.257 c 0.395,0.764 0.252,1.623 -0.32,1.919 -0.572,0.296 -1.357,-0.081 -1.753,-0.844 -0.395,-0.764 -0.252,-1.623 0.32,-1.919 0.573,-0.296 1.357,0.081 1.753,0.844 z"
     id="path8"
     inkscape:connector-curvature="0"
     style="fill:#f4abba" />
</svg>
