<?xml version="1.0" encoding="UTF-8" standalone="no"?>
<svg
   xmlns:dc="http://purl.org/dc/elements/1.1/"
   xmlns:cc="http://creativecommons.org/ns#"
   xmlns:rdf="http://www.w3.org/1999/02/22-rdf-syntax-ns#"
   xmlns:svg="http://www.w3.org/2000/svg"
   xmlns="http://www.w3.org/2000/svg"
   xmlns:sodipodi="http://sodipodi.sourceforge.net/DTD/sodipodi-0.dtd"
   xmlns:inkscape="http://www.inkscape.org/namespaces/inkscape"
   viewBox="0 0 34 33.521461"
   id="svg2"
   version="1.1"
   inkscape:version="0.91 r13725"
   sodipodi:docname="1f359.svg"
   width="34"
   height="33.521461">
  <metadata
     id="metadata14">
    <rdf:RDF>
      <cc:Work
         rdf:about="">
        <dc:format>image/svg+xml</dc:format>
        <dc:type
           rdf:resource="http://purl.org/dc/dcmitype/StillImage" />
      </cc:Work>
    </rdf:RDF>
  </metadata>
  <defs
     id="defs12" />
  <sodipodi:namedview
     pagecolor="#ffffff"
     bordercolor="#666666"
     borderopacity="1"
     objecttolerance="10"
     gridtolerance="10"
     guidetolerance="10"
     inkscape:pageopacity="0"
     inkscape:pageshadow="2"
     inkscape:window-width="640"
     inkscape:window-height="480"
     id="namedview10"
     showgrid="false"
     inkscape:zoom="6.5555556"
     inkscape:cx="17"
     inkscape:cy="17.002278"
     inkscape:window-x="0"
     inkscape:window-y="0"
     inkscape:window-maximized="0"
     inkscape:current-layer="svg2" />
  <path
     d="m 34,24.519185 c 0,9.389 -7.609,9 -17,9 -9.391,0 -17,0.389 -17,-9 0,-8 8,-18.9999998 13,-22.9999998 2.75,-2.00000001 5.129,-2.05100001 8,0 7,5 13,17.9999998 13,22.9999998 z"
     id="path4"
     inkscape:connector-curvature="0"
     style="fill:#eeeeee" />
  <path
     d="m 26.258,28.161185 c -0.461,0.316 -1.091,0.199 -1.406,-0.263 -0.316,-0.46 -0.198,-1.091 0.262,-1.406 l 1.67,-1.144 c 0.46,-0.315 1.089,-0.198 1.405,0.263 0.315,0.46 0.198,1.091 -0.263,1.405 l -1.668,1.145 z m 2.438,-7.095 c -0.512,-0.207 -0.758,-0.792 -0.549,-1.303 0.209,-0.512 0.793,-0.758 1.304,-0.549 l 1.852,0.755 c 0.511,0.208 0.757,0.791 0.549,1.303 -0.208,0.512 -0.792,0.758 -1.304,0.549 l -1.852,-0.755 z m -4.494,-5.256 c -0.519,-0.21 -0.767,-0.801 -0.555,-1.318 0.209,-0.517 0.801,-0.766 1.316,-0.556 l 1.875,0.764 c 0.516,0.211 0.765,0.801 0.554,1.318 -0.211,0.517 -0.8,0.766 -1.318,0.555 l -1.872,-0.763 z m -21.001,7 c -0.517,-0.21 -0.766,-0.801 -0.554,-1.318 0.21,-0.517 0.801,-0.766 1.317,-0.556 l 1.873,0.764 c 0.518,0.211 0.766,0.801 0.556,1.318 -0.211,0.518 -0.802,0.767 -1.318,0.556 l -1.874,-0.764 z m 3.557,-6.149 c -0.461,0.316 -1.091,0.199 -1.406,-0.264 -0.315,-0.46 -0.198,-1.09 0.262,-1.405 l 1.67,-1.144 c 0.46,-0.315 1.089,-0.198 1.405,0.263 0.315,0.46 0.198,1.091 -0.263,1.406 l -1.668,1.144 z m 9.028,3.739 c -0.767,-0.312 -1.137,-1.188 -0.824,-1.956 0.314,-0.766 1.189,-1.135 1.956,-0.823 l 2.778,1.134 c 0.767,0.312 1.136,1.186 0.824,1.953 -0.312,0.768 -1.188,1.137 -1.956,0.824 l -2.778,-1.132 z m -6.184,6.052 c 0.522,-0.199 1.106,0.062 1.306,0.586 0.197,0.519 -0.066,1.105 -0.588,1.303 l -1.892,0.721 c -0.519,0.199 -1.104,-0.063 -1.302,-0.586 -0.2,-0.524 0.062,-1.107 0.585,-1.307 l 1.891,-0.717 z"
     id="path6"
     inkscape:connector-curvature="0"
     style="fill:#ccd6dd" />
  <path
     d="m 23,19.519185 -12,0 c -1.104,0 -2,0.896 -2,2 l 0,11.812 c 2.384,0.224 5.107,0.188 8,0.188 2.893,0 5.616,0.036 8,-0.188 l 0,-11.812 c 0,-1.104 -0.896,-2 -2,-2 z"
     id="path8"
     inkscape:connector-curvature="0"
     style="fill:#292f33" />
</svg>
