<?xml version="1.0" encoding="UTF-8" standalone="no"?>
<svg
   xmlns:dc="http://purl.org/dc/elements/1.1/"
   xmlns:cc="http://creativecommons.org/ns#"
   xmlns:rdf="http://www.w3.org/1999/02/22-rdf-syntax-ns#"
   xmlns:svg="http://www.w3.org/2000/svg"
   xmlns="http://www.w3.org/2000/svg"
   xmlns:sodipodi="http://sodipodi.sourceforge.net/DTD/sodipodi-0.dtd"
   xmlns:inkscape="http://www.inkscape.org/namespaces/inkscape"
   viewBox="0 0 34 32"
   id="svg2"
   version="1.1"
   inkscape:version="0.91 r13725"
   sodipodi:docname="1f35a.svg"
   width="34"
   height="32">
  <metadata
     id="metadata16">
    <rdf:RDF>
      <cc:Work
         rdf:about="">
        <dc:format>image/svg+xml</dc:format>
        <dc:type
           rdf:resource="http://purl.org/dc/dcmitype/StillImage" />
      </cc:Work>
    </rdf:RDF>
  </metadata>
  <defs
     id="defs14" />
  <sodipodi:namedview
     pagecolor="#ffffff"
     bordercolor="#666666"
     borderopacity="1"
     objecttolerance="10"
     gridtolerance="10"
     guidetolerance="10"
     inkscape:pageopacity="0"
     inkscape:pageshadow="2"
     inkscape:window-width="640"
     inkscape:window-height="480"
     id="namedview12"
     showgrid="false"
     inkscape:zoom="6.5555556"
     inkscape:cx="17"
     inkscape:cy="18"
     inkscape:window-x="0"
     inkscape:window-y="0"
     inkscape:window-maximized="0"
     inkscape:current-layer="svg2" />
  <path
     d="M 17,32 C 2.042,32 0,17 0,13 l 34,0 c 0,2 -1.958,19 -17,19 z"
     id="path4"
     inkscape:connector-curvature="0"
     style="fill:#dd2e44" />
  <ellipse
     cx="17"
     cy="13.056"
     rx="17"
     ry="9.4440002"
     id="ellipse6"
     style="fill:#a0041e" />
  <path
     d="M 17,21 C 11,21 1,18 1,13 1,7 7.125,0 17,0 c 9.875,0 16,8 16,13 0,5 -9,8 -16,8 z"
     id="path8"
     inkscape:connector-curvature="0"
     style="fill:#e6e9ea" />
  <path
     d="m 14.41,15.892 c 0.419,0.359 0.468,0.991 0.108,1.41 -0.359,0.419 -0.991,0.468 -1.41,0.108 l -1.519,-1.302 c -0.419,-0.359 -0.468,-0.991 -0.108,-1.41 0.359,-0.419 0.991,-0.468 1.41,-0.108 l 1.519,1.302 z M 6.283,14.385 C 5.979,14.845 5.358,14.972 4.897,14.668 4.437,14.363 4.31,13.743 4.614,13.282 l 1.103,-1.669 c 0.305,-0.461 0.925,-0.587 1.386,-0.283 0.46,0.305 0.587,0.925 0.283,1.386 l -1.103,1.669 z m 23,0 c -0.305,0.46 -0.926,0.587 -1.387,0.283 -0.46,-0.305 -0.587,-0.925 -0.282,-1.386 l 1.103,-1.669 c 0.305,-0.461 0.926,-0.587 1.386,-0.283 0.46,0.305 0.587,0.925 0.283,1.386 l -1.103,1.669 z M 23.18,10.779 c 0.11,0.541 -0.239,1.069 -0.78,1.18 -0.541,0.11 -1.069,-0.239 -1.18,-0.78 L 20.821,9.219 C 20.711,8.678 21.059,8.15 21.601,8.04 22.142,7.929 22.67,8.279 22.78,8.82 l 0.4,1.959 z M 15.64,6.821 c -0.345,-0.14 -0.511,-0.534 -0.37,-0.879 0.14,-0.344 0.534,-0.51 0.878,-0.37 l 1.249,0.509 c 0.345,0.14 0.51,0.533 0.37,0.878 -0.141,0.345 -0.534,0.511 -0.879,0.37 L 15.64,6.821 Z M 6.344,8.388 C 6.037,8.599 5.617,8.521 5.406,8.213 5.196,7.906 5.274,7.486 5.581,7.276 L 6.694,6.514 C 7.001,6.304 7.42,6.382 7.631,6.689 7.841,6.996 7.763,7.416 7.456,7.627 L 6.344,8.388 Z m 13.593,8.545 c -0.551,-0.036 -0.969,-0.513 -0.933,-1.064 0.037,-0.55 0.513,-0.968 1.062,-0.933 l 1.997,0.131 c 0.55,0.035 0.969,0.512 0.933,1.062 -0.035,0.551 -0.511,0.97 -1.062,0.933 L 19.937,16.933 Z M 10.696,10.547 C 10.184,10.339 9.938,9.754 10.147,9.243 10.356,8.732 10.94,8.486 11.451,8.694 l 1.853,0.755 c 0.511,0.208 0.757,0.791 0.549,1.303 -0.208,0.512 -0.792,0.758 -1.304,0.549 L 10.696,10.547 Z M 26.641,7.821 c -0.346,-0.14 -0.512,-0.534 -0.37,-0.879 0.14,-0.344 0.534,-0.51 0.878,-0.37 l 1.25,0.509 c 0.344,0.14 0.51,0.533 0.369,0.878 -0.141,0.345 -0.533,0.511 -0.879,0.37 L 26.641,7.821 Z"
     id="path10"
     inkscape:connector-curvature="0"
     style="fill:#ccd6dd" />
</svg>
