<?xml version="1.0" encoding="UTF-8" standalone="no"?>
<svg
   xmlns:dc="http://purl.org/dc/elements/1.1/"
   xmlns:cc="http://creativecommons.org/ns#"
   xmlns:rdf="http://www.w3.org/1999/02/22-rdf-syntax-ns#"
   xmlns:svg="http://www.w3.org/2000/svg"
   xmlns="http://www.w3.org/2000/svg"
   xmlns:sodipodi="http://sodipodi.sourceforge.net/DTD/sodipodi-0.dtd"
   xmlns:inkscape="http://www.inkscape.org/namespaces/inkscape"
   viewBox="0 0 35 35.786999"
   id="svg2"
   version="1.1"
   inkscape:version="0.91 r13725"
   sodipodi:docname="1f351.svg"
   width="35"
   height="35.786999">
  <metadata
     id="metadata16">
    <rdf:RDF>
      <cc:Work
         rdf:about="">
        <dc:format>image/svg+xml</dc:format>
        <dc:type
           rdf:resource="http://purl.org/dc/dcmitype/StillImage" />
      </cc:Work>
    </rdf:RDF>
  </metadata>
  <defs
     id="defs14" />
  <sodipodi:namedview
     pagecolor="#ffffff"
     bordercolor="#666666"
     borderopacity="1"
     objecttolerance="10"
     gridtolerance="10"
     guidetolerance="10"
     inkscape:pageopacity="0"
     inkscape:pageshadow="2"
     inkscape:window-width="640"
     inkscape:window-height="480"
     id="namedview12"
     showgrid="false"
     inkscape:zoom="6.5555556"
     inkscape:cx="17"
     inkscape:cy="17.912"
     inkscape:window-x="0"
     inkscape:window-y="0"
     inkscape:window-maximized="0"
     inkscape:current-layer="svg2" />
  <path
     d="m 0.062,5 c 0,0 4.875,-5 10,-5 C 16.188,0 18,4.937 18,4.937 c 0,0 0.625,-4 5,-4 4.375,0 6.938,3.125 6.938,3.125 0,0 -3.562,2.125 -4.625,2.562 C 22.512,7.777 13.938,10.186 9.938,9.186 5.938,8.186 0.062,5 0.062,5 Z"
     id="path4"
     inkscape:connector-curvature="0"
     style="fill:#5c913b" />
  <path
     d="m 17,5.875 c 0,0 1.042,-0.896 6,-0.896 6.542,0 12,4.812 12,12.927 C 35,29.437 20.042,35.787 20.042,35.787 20.042,35.787 0,34.708 0,17.852 0,7.893 6.75,4.875 11,4.875 c 4.958,0 6,1 6,1 z"
     id="path6"
     inkscape:connector-curvature="0"
     style="fill:#ff886c" />
  <path
     d="m 0.062,5 c 0,0 4.875,-5 10,-5 C 16.188,0 18,4.937 18,4.937 c 0,0 -4.062,5.25 -8.062,4.25 C 5.938,8.187 0.062,5 0.062,5 Z"
     id="path8"
     inkscape:connector-curvature="0"
     style="fill:#77b255" />
  <path
     d="m 21.999,29.875 c -0.19,0 -0.383,-0.055 -0.554,-0.168 C 20.985,29.4 20.861,28.78 21.168,28.32 21.183,28.298 23,25.413 23,18.875 23,12.43 18.422,8.693 18.375,8.656 17.944,8.311 17.874,7.682 18.219,7.251 18.565,6.82 19.194,6.75 19.625,7.095 19.844,7.27 25,11.479 25,18.875 c 0,7.22 -2.079,10.422 -2.168,10.555 -0.192,0.289 -0.51,0.445 -0.833,0.445 z"
     id="path10"
     inkscape:connector-curvature="0"
     style="fill:#dd2e44" />
</svg>
