<?xml version="1.0" encoding="UTF-8" standalone="no"?>
<svg
   xmlns:dc="http://purl.org/dc/elements/1.1/"
   xmlns:cc="http://creativecommons.org/ns#"
   xmlns:rdf="http://www.w3.org/1999/02/22-rdf-syntax-ns#"
   xmlns:svg="http://www.w3.org/2000/svg"
   xmlns="http://www.w3.org/2000/svg"
   xmlns:sodipodi="http://sodipodi.sourceforge.net/DTD/sodipodi-0.dtd"
   xmlns:inkscape="http://www.inkscape.org/namespaces/inkscape"
   viewBox="0 0 36 30"
   id="svg2"
   version="1.1"
   inkscape:version="0.91 r13725"
   sodipodi:docname="1f35e.svg"
   width="36"
   height="30">
  <metadata
     id="metadata14">
    <rdf:RDF>
      <cc:Work
         rdf:about="">
        <dc:format>image/svg+xml</dc:format>
        <dc:type
           rdf:resource="http://purl.org/dc/dcmitype/StillImage" />
      </cc:Work>
    </rdf:RDF>
  </metadata>
  <defs
     id="defs12" />
  <sodipodi:namedview
     pagecolor="#ffffff"
     bordercolor="#666666"
     borderopacity="1"
     objecttolerance="10"
     gridtolerance="10"
     guidetolerance="10"
     inkscape:pageopacity="0"
     inkscape:pageshadow="2"
     inkscape:window-width="640"
     inkscape:window-height="480"
     id="namedview10"
     showgrid="false"
     inkscape:zoom="6.5555556"
     inkscape:cx="18"
     inkscape:cy="17"
     inkscape:window-x="0"
     inkscape:window-y="0"
     inkscape:window-maximized="0"
     inkscape:current-layer="svg2" />
  <path
     d="M 36,8.5 C 36,3.942 31.565,0.233 26,0.021 L 26,0 10,0 10,0.021 C 4.435,0.233 0,3.942 0,8.5 c 0,1.861 0.747,3.576 2,4.976 L 2,26 c 0,2.209 1.791,4 4,4 l 24,0 c 2.209,0 4,-1.791 4,-4 l 0,-12.524 c 1.253,-1.4 2,-3.115 2,-4.976 z"
     id="path4"
     inkscape:connector-curvature="0"
     style="fill:#d99e82" />
  <path
     d="m 19,13.476 15,0 0,1.5 -15,0 z"
     id="path6"
     inkscape:connector-curvature="0"
     style="fill:#cc927a" />
  <path
     d="M 21,8.5 C 21,5.039 17.462,2.209 13,2.011 12.835,2.004 10.668,2 10.5,2 5.806,2 2,4.91 2,8.5 c 0,1.595 0.754,3.053 2,4.184 L 4,25 c 0,1.657 1.343,3 3,3 l 9,0 c 1.657,0 3,-1.343 3,-3 l 0,-12.321 c 1.244,-1.131 2,-2.586 2,-4.179 z"
     id="path8"
     inkscape:connector-curvature="0"
     style="fill:#ffe8b6" />
</svg>
