<?xml version="1.0" encoding="UTF-8" standalone="no"?>
<svg
   xmlns:dc="http://purl.org/dc/elements/1.1/"
   xmlns:cc="http://creativecommons.org/ns#"
   xmlns:rdf="http://www.w3.org/1999/02/22-rdf-syntax-ns#"
   xmlns:svg="http://www.w3.org/2000/svg"
   xmlns="http://www.w3.org/2000/svg"
   xmlns:sodipodi="http://sodipodi.sourceforge.net/DTD/sodipodi-0.dtd"
   xmlns:inkscape="http://www.inkscape.org/namespaces/inkscape"
   viewBox="0 0 34 34"
   id="svg2"
   version="1.1"
   inkscape:version="0.91 r13725"
   sodipodi:docname="1f36a.svg"
   width="34"
   height="34">
  <metadata
     id="metadata12">
    <rdf:RDF>
      <cc:Work
         rdf:about="">
        <dc:format>image/svg+xml</dc:format>
        <dc:type
           rdf:resource="http://purl.org/dc/dcmitype/StillImage" />
      </cc:Work>
    </rdf:RDF>
  </metadata>
  <defs
     id="defs10" />
  <sodipodi:namedview
     pagecolor="#ffffff"
     bordercolor="#666666"
     borderopacity="1"
     objecttolerance="10"
     gridtolerance="10"
     guidetolerance="10"
     inkscape:pageopacity="0"
     inkscape:pageshadow="2"
     inkscape:window-width="640"
     inkscape:window-height="480"
     id="namedview8"
     showgrid="false"
     inkscape:zoom="6.5555556"
     inkscape:cx="17"
     inkscape:cy="17"
     inkscape:window-x="0"
     inkscape:window-y="0"
     inkscape:window-maximized="0"
     inkscape:current-layer="svg2" />
  <circle
     cx="17"
     cy="17"
     r="17"
     id="circle4"
     style="fill:#d99e82" />
  <path
     d="m 21.638,15.947 c 1.177,-0.385 2.444,0.261 2.827,1.44 0.384,1.179 -0.26,2.447 -1.441,2.831 -1.181,0.384 -3.871,0.201 -4.255,-0.978 -0.383,-1.181 1.687,-2.911 2.869,-3.293 z m 8.57,-0.672 c -0.38,0.452 -1.055,0.512 -1.507,0.131 -0.452,-0.381 -0.511,-1.055 -0.131,-1.508 0.381,-0.451 1.514,-1.057 1.966,-0.677 0.453,0.381 0.053,1.601 -0.328,2.054 z m -22,-7 C 7.828,8.727 7.153,8.787 6.701,8.406 6.249,8.025 6.19,7.352 6.57,6.898 6.951,6.447 8.084,5.841 8.536,6.221 8.989,6.602 8.589,7.822 8.208,8.275 Z M 20.301,6.381 c -0.748,-0.478 -0.969,-1.472 -0.49,-2.22 0.479,-0.749 1.473,-0.968 2.222,-0.49 0.749,0.479 1.872,2.05 1.394,2.798 -0.48,0.75 -2.377,0.392 -3.126,-0.088 z m -7.926,6.217 c -0.515,-1.066 -0.064,-2.351 1.005,-2.864 1.069,-0.513 2.351,-0.061 2.864,1.008 0.513,1.07 0.682,3.643 -0.387,4.154 -1.071,0.514 -2.971,-1.227 -3.482,-2.298 z m 1.024,14.099 c 0.602,-0.874 1.8,-1.096 2.672,-0.492 0.874,0.605 1.094,1.801 0.49,2.675 -0.604,0.874 -2.528,2.147 -3.4,1.544 -0.875,-0.604 -0.366,-2.854 0.238,-3.727 z m 10.013,-0.406 c -0.687,-0.436 -0.889,-1.348 -0.449,-2.034 0.438,-0.685 1.349,-0.886 2.035,-0.447 0.686,0.438 1.715,1.878 1.276,2.562 -0.438,0.688 -2.176,0.359 -2.862,-0.081 z M 4.536,17.42 C 5.298,16.567 6.607,16.494 7.459,17.257 8.311,18.021 8.383,19.328 7.62,20.179 6.857,21.033 4.628,22.134 3.777,21.37 2.923,20.607 3.772,18.271 4.536,17.42 Z"
     id="path6"
     inkscape:connector-curvature="0"
     style="fill:#8a4b38" />
</svg>
