<?xml version="1.0" encoding="UTF-8" standalone="no"?>
<svg
   xmlns:dc="http://purl.org/dc/elements/1.1/"
   xmlns:cc="http://creativecommons.org/ns#"
   xmlns:rdf="http://www.w3.org/1999/02/22-rdf-syntax-ns#"
   xmlns:svg="http://www.w3.org/2000/svg"
   xmlns="http://www.w3.org/2000/svg"
   xmlns:sodipodi="http://sodipodi.sourceforge.net/DTD/sodipodi-0.dtd"
   xmlns:inkscape="http://www.inkscape.org/namespaces/inkscape"
   viewBox="0 0 21.375 35.861"
   id="svg2"
   version="1.1"
   inkscape:version="0.91 r13725"
   sodipodi:docname="1f366.svg"
   width="21.375"
   height="35.861">
  <metadata
     id="metadata20">
    <rdf:RDF>
      <cc:Work
         rdf:about="">
        <dc:format>image/svg+xml</dc:format>
        <dc:type
           rdf:resource="http://purl.org/dc/dcmitype/StillImage" />
      </cc:Work>
    </rdf:RDF>
  </metadata>
  <defs
     id="defs18" />
  <sodipodi:namedview
     pagecolor="#ffffff"
     bordercolor="#666666"
     borderopacity="1"
     objecttolerance="10"
     gridtolerance="10"
     guidetolerance="10"
     inkscape:pageopacity="0"
     inkscape:pageshadow="2"
     inkscape:window-width="640"
     inkscape:window-height="480"
     id="namedview16"
     showgrid="false"
     inkscape:zoom="6.5555556"
     inkscape:cx="11"
     inkscape:cy="18"
     inkscape:window-x="0"
     inkscape:window-y="0"
     inkscape:window-maximized="0"
     inkscape:current-layer="svg2" />
  <path
     d="m 10.182,22.861 -7.364,0 c 0,0 1.353,6.5 2.351,9.752 0.998,3.254 4.604,3.248 5.422,3.248 1.635,0 4.424,0.006 5.422,-3.248 0.997,-3.252 3.17,-9.752 3.17,-9.752 l -9.001,0 z"
     id="path4"
     inkscape:connector-curvature="0"
     style="fill:#ffcc4d" />
  <path
     d="m 11,27.861 c 3.46,0 5.831,-0.751 7.097,-1.725 0.349,-1.06 0.653,-1.977 0.85,-2.569 -0.15,-0.25 -0.373,-0.487 -0.67,-0.706 l -14.554,0 c -0.341,0.252 -0.585,0.526 -0.732,0.817 0.109,0.508 0.262,1.214 0.447,2.037 1.089,1.17 3.617,2.146 7.562,2.146 z"
     id="path6"
     inkscape:connector-curvature="0"
     style="fill:#ffac33" />
  <path
     d="m 2,19.861 0,3 c 0,1.657 4.03,3 9,3 4.97,0 9,-1.343 9,-3 l 0,-3 -18,0 z"
     id="path8"
     inkscape:connector-curvature="0"
     style="fill:#ffcc4d" />
  <path
     d="m 19.183,20.361 c 0,1.381 -3.664,2.5 -8.183,2.5 -4.519,0 -8.182,-1.119 -8.182,-2.5 0,-1.381 3.663,-2.5 8.182,-2.5 4.519,0 8.183,1.119 8.183,2.5 z"
     id="path10"
     inkscape:connector-curvature="0"
     style="fill:#f4900c" />
  <path
     d="M 19.902,13.769 C 20.12,12.83 20.061,11.828 19.644,10.827 19.24,9.858 18.538,9.101 17.688,8.588 17.878,7.879 17.842,7.119 17.509,6.36 17.008,5.215 15.92,4.457 14.695,4.247 14.847,3.906 14.909,3.487 14.734,2.959 14.139,1.177 11.764,2.375 9.983,0 8.507,0.885 8.206,2.208 8.276,3.315 6.924,3.556 6.144,3.847 6.144,3.847 l 0,10e-4 C 5.336,4.175 4.765,4.967 4.765,5.892 c 0,0.49 0.165,0.939 0.436,1.305 l -0.48,0.179 0.001,0.002 c -1.384,0.517 -2.36,1.767 -2.36,3.229 0,0.622 0.191,1.197 0.5,1.702 C 1.176,13.059 0,14.699 0,16.615 c 0,2.495 1.989,4.518 4.508,4.712 2.663,0.826 7.99,0.6 12.076,-0.091 2.371,-0.4 4.791,-1.82 4.791,-4.225 0,-1.295 -0.576,-2.445 -1.473,-3.242 z"
     id="path12"
     inkscape:connector-curvature="0"
     style="fill:#ffe8b6" />
  <path
     d="m 7.75,18.073 c -2.24,0.634 -5.602,0.796 -7.39,0.314 0.725,1.744 2.478,2.977 4.535,2.977 6.145,0 12.417,-4.183 12.417,-4.183 1.969,-1.226 2.972,-3.16 2.649,-5.188 -2.042,2.888 -9.869,5.417 -12.211,6.08 z M 6.135,14.092 c 4.739,0 9.575,-3.069 9.575,-3.069 1.583,-0.937 2.372,-2.438 2.02,-3.994 -6.026,3.918 -11.564,5.07 -14.918,5.198 0.633,1.104 1.876,1.865 3.323,1.865 z M 4.833,6.416 c 0.236,0.964 1.1,1.681 2.136,1.681 0.655,0 1.312,-0.111 1.936,-0.277 0.384,-0.116 0.764,-0.24 1.143,-0.375 1.456,-0.565 2.517,-1.291 2.517,-1.291 1.056,-0.677 2.143,-1.873 2.143,-1.873 0,0 0.369,-0.831 -0.25,-1.319 C 12.713,4.71 7.145,6.44 4.833,6.416 Z"
     id="path14"
     inkscape:connector-curvature="0"
     style="fill:#ffd983" />
</svg>
