<?xml version="1.0" encoding="UTF-8" standalone="no"?>
<svg
   xmlns:dc="http://purl.org/dc/elements/1.1/"
   xmlns:cc="http://creativecommons.org/ns#"
   xmlns:rdf="http://www.w3.org/1999/02/22-rdf-syntax-ns#"
   xmlns:svg="http://www.w3.org/2000/svg"
   xmlns="http://www.w3.org/2000/svg"
   xmlns:sodipodi="http://sodipodi.sourceforge.net/DTD/sodipodi-0.dtd"
   xmlns:inkscape="http://www.inkscape.org/namespaces/inkscape"
   viewBox="0 0 32.382313 34.738998"
   id="svg2"
   version="1.1"
   inkscape:version="0.91 r13725"
   sodipodi:docname="1f367.svg"
   width="32.382313"
   height="34.738998">
  <metadata
     id="metadata24">
    <rdf:RDF>
      <cc:Work
         rdf:about="">
        <dc:format>image/svg+xml</dc:format>
        <dc:type
           rdf:resource="http://purl.org/dc/dcmitype/StillImage" />
      </cc:Work>
    </rdf:RDF>
  </metadata>
  <defs
     id="defs22" />
  <sodipodi:namedview
     pagecolor="#ffffff"
     bordercolor="#666666"
     borderopacity="1"
     objecttolerance="10"
     gridtolerance="10"
     guidetolerance="10"
     inkscape:pageopacity="0"
     inkscape:pageshadow="2"
     inkscape:window-width="640"
     inkscape:window-height="480"
     id="namedview20"
     showgrid="false"
     inkscape:zoom="6.5555556"
     inkscape:cx="16.164478"
     inkscape:cy="17.105"
     inkscape:window-x="0"
     inkscape:window-y="0"
     inkscape:window-maximized="0"
     inkscape:current-layer="svg2" />
  <path
     d="m 14.933478,21.634 -12.963,0 c 0,0 2.248,7.146 5.784,10.584 2.408,2.34 6.458,2.521 7.899,2.521 2.88,0 6.55,-0.192 8.958,-2.534 4.198,-4.078 6.165,-10.571 6.165,-10.571 l -15.843,0 z"
     id="path4"
     inkscape:connector-curvature="0"
     style="fill:#55acee" />
  <path
     d="m 29.255478,25.417 c 0.623,-1.304 1.048,-2.413 1.287,-3.088 -0.135,-0.24 -0.336,-0.472 -0.588,-0.695 l -27.162,0 c -0.251,0.223 -0.452,0.454 -0.587,0.694 0.237,0.672 0.652,1.776 1.213,3.041 2.087,1.507 6.422,2.715 12.956,2.715 6.462,0 10.768,-1.183 12.881,-2.667 z"
     id="path6"
     inkscape:connector-curvature="0"
     style="fill:#3b88c3" />
  <path
     d="m 0.16447798,16.634 0,4.453 c 0,2.318 7.25100002,4.198 16.00000002,4.198 8.751,0 16,-1.88 16,-4.198 l 0,-4.453 -32.00000002,0 z"
     id="path8"
     inkscape:connector-curvature="0"
     style="fill:#55acee" />
  <path
     d="m 2.021478,18.917 c 0.901,0.331 6.693,2.383 13.999,2.383 8.226,0 14.254,-1.788 15.634,-2.779 1.38,-0.993 1.328,-9.595 -4.955,-12.91 -5.365,-2.831 -5.515,-5.611 -10.628,-5.611 -7.664,0.001 -21.203,16.286 -14.05,18.917 z"
     id="path10"
     inkscape:connector-curvature="0"
     style="fill:#f9d2dc" />
  <path
     d="m 10.012478,11.403 c 2.91,3.9 9.483,1.756 12.293,-0.975 2.289,-2.226 5.179,-1.633 8.452,-0.784 -0.892,-1.583 -2.2,-3.041 -4.069,-4.027 -5.363,-2.829 -5.513,-5.608 -10.624,-5.608 -4.049,0 -9.737,4.548 -13.146,9.225 1.894,-0.617 4.802,-0.902 7.094,2.169 z"
     id="path12"
     inkscape:connector-curvature="0"
     style="fill:#f98097" />
  <circle
     cx="10.164478"
     cy="6.6339998"
     r="1"
     id="circle14"
     style="fill:#ea596e" />
  <circle
     cx="16.164478"
     cy="9.6339998"
     r="1"
     id="circle16"
     style="fill:#ea596e" />
  <circle
     cx="20.164478"
     cy="4.6339998"
     r="1"
     id="circle18"
     style="fill:#ea596e" />
</svg>
