<?xml version="1.0" encoding="UTF-8" standalone="no"?>
<svg
   xmlns:dc="http://purl.org/dc/elements/1.1/"
   xmlns:cc="http://creativecommons.org/ns#"
   xmlns:rdf="http://www.w3.org/1999/02/22-rdf-syntax-ns#"
   xmlns:svg="http://www.w3.org/2000/svg"
   xmlns="http://www.w3.org/2000/svg"
   xmlns:sodipodi="http://sodipodi.sourceforge.net/DTD/sodipodi-0.dtd"
   xmlns:inkscape="http://www.inkscape.org/namespaces/inkscape"
   viewBox="0 0 35.577 35.577"
   id="svg2"
   version="1.1"
   inkscape:version="0.91 r13725"
   sodipodi:docname="1f36b.svg"
   width="35.577"
   height="35.577">
  <metadata
     id="metadata18">
    <rdf:RDF>
      <cc:Work
         rdf:about="">
        <dc:format>image/svg+xml</dc:format>
        <dc:type
           rdf:resource="http://purl.org/dc/dcmitype/StillImage" />
      </cc:Work>
    </rdf:RDF>
  </metadata>
  <defs
     id="defs16" />
  <sodipodi:namedview
     pagecolor="#ffffff"
     bordercolor="#666666"
     borderopacity="1"
     objecttolerance="10"
     gridtolerance="10"
     guidetolerance="10"
     inkscape:pageopacity="0"
     inkscape:pageshadow="2"
     inkscape:window-width="640"
     inkscape:window-height="480"
     id="namedview14"
     showgrid="false"
     inkscape:zoom="6.5555556"
     inkscape:cx="17.5815"
     inkscape:cy="18.0815"
     inkscape:window-x="0"
     inkscape:window-y="0"
     inkscape:window-maximized="0"
     inkscape:current-layer="svg2" />
  <path
     d="m 25.9205,32.9915 c -1.562,1.561 -4.095,1.561 -5.657,0 L 1.1715,13.8995 c -1.562,-1.562 -1.562,-2.681 0,-4.243 l 8.485,-8.485 c 1.562,-1.562 2.681,-1.562 4.243,0 l 19.092,19.092 c 1.562,1.562 1.562,4.095 0,5.657 l -7.071,7.071 z"
     id="path4"
     inkscape:connector-curvature="0"
     style="fill:#c1694f" />
  <path
     d="m 16.1635,14.7485 -4.885,-4.885 5.657,-5.657 -1.415,-1.414 -5.656,5.657 -3.743,-3.743 -1.414,1.415 3.743,3.742 -5.657,5.657 1.414,1.414 5.657,-5.657 4.885,4.885 z"
     id="path6"
     inkscape:connector-curvature="0"
     style="fill:#8a4b38" />
  <path
     d="m 25.9205,34.4055 c -1.562,1.562 -4.095,1.562 -5.657,0 l -9.899,-9.899 14.142,-14.142 9.899,9.899 c 1.562,1.562 1.562,4.095 0,5.657 l -8.485,8.485 z"
     id="path8"
     inkscape:connector-curvature="0"
     style="fill:#dd2e44" />
  <path
     d="m 12.4065,26.5485 4.673,4.674 7.955,-20.33 -0.528,-0.529 -1.504,-0.932 z"
     id="path10"
     inkscape:connector-curvature="0"
     style="fill:#be1931" />
  <path
     d="m 22.3855,8.2425 2.121,2.121 c -0.707,2.122 -8.485,15.557 -9.9,18.385 0,0 -0.707,2.121 -2.475,0.354 l -5.304,-5.304 c -0.679,-0.679 -0.685,-2.142 0,-2.828 l 12.729,-12.728 c 1.414,-1.414 2.829,0 2.829,0 z"
     id="path12"
     inkscape:connector-curvature="0"
     style="fill:#ccd6dd" />
</svg>
