<?xml version="1.0" encoding="UTF-8" standalone="no"?>
<svg
   xmlns:dc="http://purl.org/dc/elements/1.1/"
   xmlns:cc="http://creativecommons.org/ns#"
   xmlns:rdf="http://www.w3.org/1999/02/22-rdf-syntax-ns#"
   xmlns:svg="http://www.w3.org/2000/svg"
   xmlns="http://www.w3.org/2000/svg"
   xmlns:sodipodi="http://sodipodi.sourceforge.net/DTD/sodipodi-0.dtd"
   xmlns:inkscape="http://www.inkscape.org/namespaces/inkscape"
   viewBox="0 0 32.118229 35.178001"
   id="svg2"
   version="1.1"
   inkscape:version="0.91 r13725"
   sodipodi:docname="1f364.svg"
   width="32.118229"
   height="35.178001">
  <metadata
     id="metadata16">
    <rdf:RDF>
      <cc:Work
         rdf:about="">
        <dc:format>image/svg+xml</dc:format>
        <dc:type
           rdf:resource="http://purl.org/dc/dcmitype/StillImage" />
      </cc:Work>
    </rdf:RDF>
  </metadata>
  <defs
     id="defs14" />
  <sodipodi:namedview
     pagecolor="#ffffff"
     bordercolor="#666666"
     borderopacity="1"
     objecttolerance="10"
     gridtolerance="10"
     guidetolerance="10"
     inkscape:pageopacity="0"
     inkscape:pageshadow="2"
     inkscape:window-width="640"
     inkscape:window-height="480"
     id="namedview12"
     showgrid="false"
     inkscape:zoom="6.5555556"
     inkscape:cx="16.059165"
     inkscape:cy="17.613"
     inkscape:window-x="0"
     inkscape:window-y="0"
     inkscape:window-maximized="0"
     inkscape:current-layer="svg2" />
  <path
     d="m 28.473165,8.845 c -2.266,-3.135 -6.545,-6.934 -14.066,-7.232 l -0.372,-0.015 -0.126,0.35 c -0.063,0.176 -0.302,0.519 -0.532,0.851 -0.679,0.979 -1.609,2.319 -1.212,3.52 0.221,0.669 0.814,1.17 1.764,1.491 1.893,0.639 5.829,3.862 6.602,7.745 0.215,1.076 0.155,2.111 -0.144,3.105 -1.624,-3.031 -4.566,-4.938 -8.158,-4.938 -5.8139999,0 -9.5269999,4.787 -9.5269999,10.67 0,5.082 3.713,10.671 9.5269999,10.671 0.029,0 0.058,-0.004 0.086,-0.004 l 0.091,0.006 c 0.602,0.043 1.608,0.113 2.826,0.113 6.086,0 13.838,-1.729 16.201,-9.968 1.554,-5.419 0.421,-11.69 -2.96,-16.365 z"
     id="path4"
     inkscape:connector-curvature="0"
     style="fill:#ffac33" />
  <path
     d="m 16.970165,30.363 c -0.17,0.636 2.905,1.47 5.61,-1.461 3.049,-3.303 3.239,-11.623 -3.789,-17.297 -0.071,-0.021 -0.133,-0.033 -0.2,-0.049 0.909,1.172 1.648,2.539 1.938,3.999 0.208,1.04 0.154,2.04 -0.12,3.004 1.932,3.715 2.909,9.93 -3.439,11.804 z m 11.962,-6.542 c 0.759,-0.091 1.894,-0.461 2.991,-0.937 0.104,-0.723 0.164,-1.455 0.182,-2.19 -0.908,0.835 -1.941,1.532 -2.793,1.92 -1.397,0.636 -1.968,1.397 -0.38,1.207 z m -0.89,-8.257 c -2.223,2.032 0.101,1.333 1.398,0.508 0.761,-0.484 1.315,-1.189 1.687,-1.972 -0.429,-1.311 -0.995,-2.578 -1.693,-3.769 0.118,2.073 -0.098,4.051 -1.392,5.233 z"
     id="path6"
     inkscape:connector-curvature="0"
     style="fill:#f4900c" />
  <path
     d="m 18.955165,2.95 c -0.043,-0.434 -0.357,-0.791 -0.782,-0.889 C 16.578165,1.693 5.4031651,0 3.0191651,0 l -0.195,0.003 c -1.421,0.065 -2.50700005,0.79 -2.76800005,1.848 -0.123,0.498 -0.209,1.771 1.62400005,2.84 0.551,0.322 0.887,0.661 0.899,0.908 0.01,0.235 -0.261,0.712 -1.062,1.283 -0.79400005,0.567 -1.11900005,1.442 -0.85000005,2.284 0.331,1.033 1.46700005,1.728 2.82800005,1.728 0.744,0 1.513,-0.196 2.285,-0.582 1.996,-0.999 4.6819999,-1.643 6.8439999,-1.643 1.066,0 1.971,0.15 2.689,0.445 0.362,0.149 0.717,0.225 1.053,0.225 0.619,0 1.965,-0.2 1.6,-0.722 -2.647,-3.787 1.059,-4.98 0.989,-5.667 z"
     id="path8"
     inkscape:connector-curvature="0"
     style="fill:#ff839b" />
  <path
     d="m 0.59216505,3.808 c 0.252,0.297 0.59700005,0.597 1.08800005,0.883 0.551,0.322 0.887,0.661 0.899,0.908 0.01,0.235 -0.261,0.712 -1.062,1.283 C 0.91316505,7.313 0.58516505,7.923 0.57916505,8.561 11.275165,4.758 3.6781651,6.364 0.59216505,3.808 Z"
     id="path10"
     inkscape:connector-curvature="0"
     style="fill:#ea596e" />
</svg>
