<?xml version="1.0" encoding="UTF-8" standalone="no"?>
<svg
   xmlns:dc="http://purl.org/dc/elements/1.1/"
   xmlns:cc="http://creativecommons.org/ns#"
   xmlns:rdf="http://www.w3.org/1999/02/22-rdf-syntax-ns#"
   xmlns:svg="http://www.w3.org/2000/svg"
   xmlns="http://www.w3.org/2000/svg"
   xmlns:sodipodi="http://sodipodi.sourceforge.net/DTD/sodipodi-0.dtd"
   xmlns:inkscape="http://www.inkscape.org/namespaces/inkscape"
   viewBox="0 0 27.014742 35"
   id="svg2"
   version="1.1"
   inkscape:version="0.91 r13725"
   sodipodi:docname="1f36f.svg"
   width="27.014742"
   height="35">
  <metadata
     id="metadata26">
    <rdf:RDF>
      <cc:Work
         rdf:about="">
        <dc:format>image/svg+xml</dc:format>
        <dc:type
           rdf:resource="http://purl.org/dc/dcmitype/StillImage" />
      </cc:Work>
    </rdf:RDF>
  </metadata>
  <defs
     id="defs24" />
  <sodipodi:namedview
     pagecolor="#ffffff"
     bordercolor="#666666"
     borderopacity="1"
     objecttolerance="10"
     gridtolerance="10"
     guidetolerance="10"
     inkscape:pageopacity="0"
     inkscape:pageshadow="2"
     inkscape:window-width="640"
     inkscape:window-height="480"
     id="namedview22"
     showgrid="false"
     inkscape:zoom="6.5555556"
     inkscape:cx="13.507544"
     inkscape:cy="18"
     inkscape:window-x="0"
     inkscape:window-y="0"
     inkscape:window-maximized="0"
     inkscape:current-layer="svg2" />
  <path
     d="m 26.507544,21 c -3,11 -5.019,14 -13,14 C 5.5075441,35 3.5075441,32 0.50754414,21 -1.5274559,13.54 2.5075441,7 13.507544,7 c 11,0 15.034,6.54 13,14 z"
     id="path4"
     inkscape:connector-curvature="0"
     style="fill:#f4900c" />
  <path
     d="m 24.507544,10 c 2,4 -3,8 -11,8 -7.9999999,0 -12.99999986,-4 -10.9999999,-8 1.482,-2.964 4.373,-6 10.9999999,-6 6.627,0 9.519,3.036 11,6 z"
     id="path6"
     inkscape:connector-curvature="0"
     style="fill:#be1931" />
  <ellipse
     cx="13.507545"
     cy="10"
     rx="12"
     ry="6"
     id="ellipse8"
     style="fill:#ffac33" />
  <path
     d="m 22.507544,9 c 1,1 2,2 2,3 0,1 -1,3 -2,2 0,0 2.948,1.154 2,4 -1,3 -4,2 -4,0 0,-2 -1.553,-3.342 -2,-2 -1,3 -3,3 -4,2 -1,-1 -1,-2 -1,-2 0,0 -3,0 -2,-2 1,-2 0,-2 0,-2 0,0 0,-1 1,-1 1,0 7,-1 8,-2 1,-1 2,0 2,0 z"
     id="path10"
     inkscape:connector-curvature="0"
     style="fill:#ffe8b6" />
  <path
     d="m 23.507544,8.278 c 0,2.608 -4.477,4.722 -10,4.722 -5.5229999,0 -9.9999999,-2.114 -9.9999999,-4.722 0,-2.608 4.477,-4.278 9.9999999,-4.278 5.523,0 10,1.67 10,4.278 z"
     id="path12"
     inkscape:connector-curvature="0"
     style="fill:#662113" />
  <path
     d="m 13.507544,13 c 4.548,0 8.379,-1.435 9.593,-3.396 -0.193,-0.202 -0.392,-0.403 -0.593,-0.604 0,0 -2,-2 -3,-1 -1,1 -6,1 -7,1 -1,0 -2,1 -2,1 0,0 1.587,2.011 1.397,2.934 0.523,0.04 1.056,0.066 1.603,0.066 z"
     id="path14"
     inkscape:connector-curvature="0"
     style="fill:#f4900c" />
  <path
     d="m 21.507544,7.5 c 0,1.933 -3.582,3.5 -8,3.5 -4.4179999,0 -7.9999999,-1.567 -7.9999999,-3.5 0,-1.933 3.582,-5.5 7.9999999,-5.5 4.418,0 8,3.567 8,5.5 z"
     id="path16"
     inkscape:connector-curvature="0"
     style="fill:#ffcc4d" />
  <ellipse
     cx="13.507545"
     cy="1.5"
     rx="2"
     ry="1.5"
     id="ellipse18"
     style="fill:#f4900c" />
  <path
     d="m 1.1925441,23.41 c 0.725,2.457 1.425,4.435 2.204,6.013 C 6.5075441,32 11.507544,32 13.507544,32 c 2,0 7,0 10.106,-2.576 0.78,-1.576 1.483,-3.556 2.208,-6.014 -2.705,1.563 -7.202,2.59 -12.314,2.59 C 8.3955441,26 3.8975441,24.973 1.1925441,23.41 Z"
     id="path20"
     inkscape:connector-curvature="0"
     style="fill:#ffcc4d" />
</svg>
