<?xml version="1.0" encoding="UTF-8" standalone="no"?>
<svg
   xmlns:dc="http://purl.org/dc/elements/1.1/"
   xmlns:cc="http://creativecommons.org/ns#"
   xmlns:rdf="http://www.w3.org/1999/02/22-rdf-syntax-ns#"
   xmlns:svg="http://www.w3.org/2000/svg"
   xmlns="http://www.w3.org/2000/svg"
   xmlns:sodipodi="http://sodipodi.sourceforge.net/DTD/sodipodi-0.dtd"
   xmlns:inkscape="http://www.inkscape.org/namespaces/inkscape"
   viewBox="0 0 35.280499 35.280499"
   id="svg2"
   version="1.1"
   inkscape:version="0.91 r13725"
   sodipodi:docname="1f36d.svg"
   width="35.280499"
   height="35.280499">
  <metadata
     id="metadata16">
    <rdf:RDF>
      <cc:Work
         rdf:about="">
        <dc:format>image/svg+xml</dc:format>
        <dc:type
           rdf:resource="http://purl.org/dc/dcmitype/StillImage" />
      </cc:Work>
    </rdf:RDF>
  </metadata>
  <defs
     id="defs14" />
  <sodipodi:namedview
     pagecolor="#ffffff"
     bordercolor="#666666"
     borderopacity="1"
     objecttolerance="10"
     gridtolerance="10"
     guidetolerance="10"
     inkscape:pageopacity="0"
     inkscape:pageshadow="2"
     inkscape:window-width="640"
     inkscape:window-height="480"
     id="namedview12"
     showgrid="false"
     inkscape:zoom="6.5555556"
     inkscape:cx="17.64"
     inkscape:cy="17.6405"
     inkscape:window-x="0"
     inkscape:window-y="0"
     inkscape:window-maximized="0"
     inkscape:current-layer="svg2" />
  <path
     d="m 34.706,34.706 c -0.766,0.766 -2.006,0.766 -2.771,0 L 11.838,14.61 c -0.766,-0.766 -0.766,-2.007 0,-2.773 0.766,-0.765 2.007,-0.765 2.772,0 l 20.096,20.098 c 0.766,0.764 0.766,2.006 0,2.771 z"
     id="path4"
     inkscape:connector-curvature="0"
     style="fill:#ffac33" />
  <path
     d="m 27.44,13.72 c 0,7.576 -6.142,13.72 -13.72,13.72 C 6.143,27.44 0,21.296 0,13.72 0,6.142 6.143,0 13.72,0 21.298,0 27.44,6.142 27.44,13.72 Z"
     id="path6"
     inkscape:connector-curvature="0"
     style="fill:#dd2e44" />
  <path
     d="M 17.051,27.016 C 15.592,27.108 14.113,26.95 12.672,26.513 9.516,25.552 6.924,23.42 5.372,20.51 4.155,18.227 3.899,15.608 4.653,13.134 5.405,10.66 7.077,8.627 9.36,7.41 c 1.781,-0.95 3.822,-1.149 5.751,-0.561 1.929,0.586 3.514,1.89 4.463,3.67 0.734,1.377 0.889,2.958 0.434,4.451 -0.454,1.494 -1.462,2.721 -2.84,3.455 -1.056,0.562 -2.267,0.682 -3.412,0.333 -1.144,-0.348 -2.085,-1.122 -2.648,-2.178 -0.879,-1.648 -0.253,-3.704 1.395,-4.583 0.592,-0.317 1.272,-0.384 1.915,-0.187 0.231,0.07 0.447,0.171 0.644,0.299 -0.672,-0.327 -1.486,-0.34 -2.194,0.037 -1.347,0.719 -1.858,2.399 -1.14,3.746 0.404,0.758 1.079,1.313 1.901,1.564 0.822,0.25 1.692,0.166 2.45,-0.239 1.836,-0.98 2.534,-3.271 1.555,-5.108 C 17.072,11.054 16.132,10.282 14.989,9.935 13.846,9.586 12.636,9.704 11.581,10.267 8.98,11.655 7.992,14.9 9.379,17.502 c 0.809,1.517 2.162,2.629 3.807,3.13 1.645,0.5 3.387,0.33 4.905,-0.479 1.839,-0.98 3.187,-2.62 3.794,-4.614 0.605,-1.994 0.399,-4.105 -0.58,-5.944 C 20.11,7.354 18.112,5.711 15.682,4.971 13.25,4.231 10.678,4.482 8.437,5.679 5.693,7.142 3.683,9.586 2.777,12.562 c -0.905,2.976 -0.598,6.125 0.865,8.869 0.917,1.721 2.151,3.202 3.623,4.392 1.924,1.028 4.12,1.615 6.455,1.615 1.151,0.002 2.263,-0.155 3.331,-0.422 z M 15.726,14.468 c 0.161,-0.086 0.288,-0.211 0.377,-0.356 -0.071,0.566 -0.407,1.09 -0.947,1.378 -0.297,0.158 -0.637,0.19 -0.957,0.093 -0.321,-0.098 -0.585,-0.314 -0.743,-0.611 -0.21,-0.393 -0.06,-0.884 0.333,-1.094 0.067,-0.036 0.14,-0.053 0.212,-0.053 0.161,0 0.318,0.086 0.399,0.238 0.255,0.479 0.848,0.661 1.326,0.405 z"
     id="path8"
     inkscape:connector-curvature="0"
     style="fill:#f4900c" />
  <path
     d="M 24.155,8.139 C 22.586,4.667 18.038,0.827 12.384,0.204 12.172,0.181 11.961,0.171 11.751,0.157 8.151,0.677 5.008,2.586 2.88,5.333 6.262,2.524 9.656,2.119 12.144,2.389 c 4.835,0.533 8.694,3.751 10.006,6.655 2.009,4.448 0.023,9.702 -4.424,11.71 -1.669,0.755 -3.534,0.812 -5.247,0.165 -1.714,-0.647 -3.074,-1.924 -3.828,-3.594 -1.196,-2.647 -0.015,-5.774 2.631,-6.97 2.007,-0.906 4.38,-0.01 5.287,1.997 0.564,1.251 0.19,2.691 -0.822,3.524 0.263,-0.27 0.47,-0.593 0.607,-0.956 0.261,-0.692 0.237,-1.444 -0.067,-2.118 -0.35,-0.775 -0.981,-1.369 -1.777,-1.669 -0.797,-0.301 -1.663,-0.274 -2.437,0.077 -0.903,0.407 -1.594,1.142 -1.944,2.068 -0.35,0.927 -0.318,1.934 0.089,2.837 0.479,1.061 1.343,1.873 2.433,2.284 1.09,0.412 2.275,0.373 3.335,-0.105 2.599,-1.174 3.76,-4.246 2.586,-6.847 -1.405,-3.111 -5.083,-4.497 -8.195,-3.095 -3.752,1.696 -5.425,6.128 -3.731,9.88 0.997,2.206 2.792,3.891 5.056,4.745 1.042,0.394 2.124,0.59 3.205,0.59 1.269,0 2.534,-0.27 3.725,-0.808 5.551,-2.51 8.029,-9.067 5.523,-14.62 z m -9.859,6.003 c -0.054,0.142 -0.16,0.255 -0.297,0.318 -0.554,0.249 -0.799,0.9 -0.55,1.454 0.119,0.264 0.329,0.458 0.576,0.562 -0.202,-0.017 -0.402,-0.062 -0.597,-0.134 -0.54,-0.205 -0.969,-0.607 -1.206,-1.133 -0.166,-0.367 -0.179,-0.777 -0.036,-1.154 0.142,-0.376 0.423,-0.676 0.792,-0.841 0.129,-0.059 0.267,-0.088 0.405,-0.088 0.118,0 0.236,0.021 0.349,0.064 0.247,0.094 0.442,0.276 0.551,0.518 0.062,0.138 0.066,0.292 0.013,0.434 z"
     id="path10"
     inkscape:connector-curvature="0"
     style="fill:#ffcc4d" />
</svg>
