<?xml version="1.0" encoding="UTF-8" standalone="no"?>
<svg
   xmlns:dc="http://purl.org/dc/elements/1.1/"
   xmlns:cc="http://creativecommons.org/ns#"
   xmlns:rdf="http://www.w3.org/1999/02/22-rdf-syntax-ns#"
   xmlns:svg="http://www.w3.org/2000/svg"
   xmlns="http://www.w3.org/2000/svg"
   xmlns:sodipodi="http://sodipodi.sourceforge.net/DTD/sodipodi-0.dtd"
   xmlns:inkscape="http://www.inkscape.org/namespaces/inkscape"
   viewBox="0 0 29.246 35.852718"
   id="svg2"
   version="1.1"
   inkscape:version="0.91 r13725"
   sodipodi:docname="1f378.svg"
   width="29.246"
   height="35.852718">
  <metadata
     id="metadata18">
    <rdf:RDF>
      <cc:Work
         rdf:about="">
        <dc:format>image/svg+xml</dc:format>
        <dc:type
           rdf:resource="http://purl.org/dc/dcmitype/StillImage" />
      </cc:Work>
    </rdf:RDF>
  </metadata>
  <defs
     id="defs16" />
  <sodipodi:namedview
     pagecolor="#ffffff"
     bordercolor="#666666"
     borderopacity="1"
     objecttolerance="10"
     gridtolerance="10"
     guidetolerance="10"
     inkscape:pageopacity="0"
     inkscape:pageshadow="2"
     inkscape:window-width="640"
     inkscape:window-height="480"
     id="namedview14"
     showgrid="false"
     inkscape:zoom="6.5555556"
     inkscape:cx="15.246"
     inkscape:cy="17.98"
     inkscape:window-x="0"
     inkscape:window-y="0"
     inkscape:window-maximized="0"
     inkscape:current-layer="svg2" />
  <path
     d="m 16.246,20.127718 c 0,0 11.458,-11.0410001 12.583,-12.0050001 1.125,-0.964 -0.708,-2.25 -2.957,-2.25 l -22.497,0 c -1.125,0 -4.483,0.729 -2.796,2.417 1.204,1.203 12.667,11.8380001 12.667,11.8380001 l 0,10.123 c 0,0 -4.584,2.34 -5.498,2.883 -0.984,0.562 -0.33,1.462 0.063,1.617 0.656,0.258 2.253,1.102 6.78,1.102 4.641,0 6.202,-0.914 6.765,-1.102 0.217,-0.072 1.347,-0.932 0.011,-1.723 -2.378,-1.408 -5.121,-2.777 -5.121,-2.777 l 0,-10.123 z"
     id="path4"
     inkscape:connector-curvature="0"
     style="fill:#8899a6" />
  <path
     d="m 29.246,7.3147179 c 0,-1.622 -6.547,-2.935 -14.623,-2.935 -8.076,0 -14.623,1.313 -14.623,2.935 0,0.756 1.436,1.443 3.775,1.963 2.746,2.3410001 7.298,6.0980001 9.627,8.0130001 0.9,0.741 2.135,0.623 2.801,0.123 0.503,-0.377 6.606,-5.643 9.57,-8.2030001 2.163,-0.511 3.473,-1.172 3.473,-1.896 z"
     id="path6"
     inkscape:connector-curvature="0"
     style="fill:#ccd6dd" />
  <path
     d="m 14.114,16.404718 c -0.237,-0.125 -0.05,-0.8 0.248,-1.328 L 21.81,0.55871789 c 0.3,-0.529 0.97,-0.715 1.498,-0.416 0.529,0.299 0.714,0.96900001 0.416,1.49800001 L 15.057,15.525718 c -0.15,0.264 -0.674,1.02 -0.943,0.879 z"
     id="path8"
     inkscape:connector-curvature="0"
     style="fill:#662113" />
  <path
     d="m 18.991,7.7277179 c 1.133,0.639 1.996,2.6360001 1.2,4.0460001 -0.797,1.411 -2.954,1.699 -4.087,1.059 -1.132,-0.64 -2.065,-2.515 -1.199,-4.0460001 0.865,-1.531 2.953,-1.699 4.086,-1.059 z"
     id="path10"
     inkscape:connector-curvature="0"
     style="fill:#5c913b" />
  <path
     d="m 14.043,10.633718 c -3.775,0 -7.361,-0.49 -10.737,-1.4710001 l -0.129,-0.037 c -0.531,-0.153 -0.836,-0.708 -0.683,-1.238 0.152,-0.531 0.705,-0.837 1.238,-0.684 l 0.132,0.039 c 6.533,1.898 13.942,1.855 22.018,-0.132 0.543,-0.13 1.079,0.196 1.21,0.732 0.132,0.536 -0.195,1.078 -0.731,1.21 -4.289,1.0540001 -8.404,1.5810001 -12.318,1.5810001 z"
     id="path12"
     inkscape:connector-curvature="0"
     style="fill:#ffffff" />
</svg>
