<?xml version="1.0" encoding="UTF-8" standalone="no"?>
<svg
   xmlns:dc="http://purl.org/dc/elements/1.1/"
   xmlns:cc="http://creativecommons.org/ns#"
   xmlns:rdf="http://www.w3.org/1999/02/22-rdf-syntax-ns#"
   xmlns:svg="http://www.w3.org/2000/svg"
   xmlns="http://www.w3.org/2000/svg"
   xmlns:sodipodi="http://sodipodi.sourceforge.net/DTD/sodipodi-0.dtd"
   xmlns:inkscape="http://www.inkscape.org/namespaces/inkscape"
   viewBox="0 0 34 36"
   id="svg2"
   version="1.1"
   inkscape:version="0.91 r13725"
   sodipodi:docname="1f371.svg"
   width="34"
   height="36">
  <metadata
     id="metadata42">
    <rdf:RDF>
      <cc:Work
         rdf:about="">
        <dc:format>image/svg+xml</dc:format>
        <dc:type
           rdf:resource="http://purl.org/dc/dcmitype/StillImage" />
      </cc:Work>
    </rdf:RDF>
  </metadata>
  <defs
     id="defs40" />
  <sodipodi:namedview
     pagecolor="#ffffff"
     bordercolor="#666666"
     borderopacity="1"
     objecttolerance="10"
     gridtolerance="10"
     guidetolerance="10"
     inkscape:pageopacity="0"
     inkscape:pageshadow="2"
     inkscape:window-width="640"
     inkscape:window-height="480"
     id="namedview38"
     showgrid="false"
     inkscape:zoom="6.5555556"
     inkscape:cx="17"
     inkscape:cy="18"
     inkscape:window-x="0"
     inkscape:window-y="0"
     inkscape:window-maximized="0"
     inkscape:current-layer="svg2" />
  <path
     d="M 30,0 4,0 C 1.791,0 0,1.791 0,4 l 0,28 c 0,2.209 1.791,4 4,4 l 26,0 c 2.209,0 4,-1.791 4,-4 L 34,4 C 34,1.791 32.209,0 30,0 Z"
     id="path4"
     inkscape:connector-curvature="0"
     style="fill:#292f33" />
  <path
     d="m 13,11 c 0,2.209 -1.791,4 -4,4 L 8,15 C 5.791,15 4,13.209 4,11 L 4,9 C 4,6.791 5.791,5 8,5 l 1,0 c 2.209,0 4,1.791 4,4 l 0,2 z"
     id="path6"
     inkscape:connector-curvature="0"
     style="fill:#292f33" />
  <path
     d="m 21,27 c 0,1.104 -0.896,2 -2,2 L 4,29 C 2.896,29 2,28.104 2,27 l 0,-8 c 0,-1.104 0.896,-2 2,-2 l 15,0 c 1.104,0 2,0.896 2,2 l 0,8 z m 11,-8 c 0,-1.104 -0.896,-2 -2,-2 l -5,0 c -1.104,0 -2,0.896 -2,2 l 0,8 c 0,1.104 0.896,2 2,2 l 5,0 c 1.104,0 2,-0.896 2,-2 l 0,-8 z M 15,4 c 0,-1.104 0.896,-2 2,-2 l 13,0 c 1.104,0 2,0.896 2,2 l 0,9 c 0,1.104 -0.896,2 -2,2 l -13,0 c -1.104,0 -2,-0.896 -2,-2 l 0,-9 z m -2,9 c 0,1.104 -0.896,2 -2,2 L 4,15 C 2.896,15 2,14.104 2,13 L 2,4 C 2,2.896 2.896,2 4,2 l 7,0 c 1.104,0 2,0.896 2,2 l 0,9 z"
     id="path8"
     inkscape:connector-curvature="0"
     style="fill:#be1931" />
  <path
     d="m 13,13 c 0,1.104 -0.896,2 -2,2 L 4,15 C 2.896,15 2,14.104 2,13 L 2,7 C 2,5.896 2.896,5 4,5 l 7,0 c 1.104,0 2,0.896 2,2 l 0,6 z m 19,0 c 0,1.104 -0.896,2 -2,2 l -13,0 c -1.104,0 -2,-0.896 -2,-2 l 0,-6 c 0,-1.104 0.896,-2 2,-2 l 13,0 c 1.104,0 2,0.896 2,2 l 0,6 z"
     id="path10"
     inkscape:connector-curvature="0"
     style="fill:#dd2e44" />
  <path
     d="m 21,27 c 0,1.104 -0.896,2 -2,2 L 4,29 C 2.896,29 2,28.104 2,27 l 0,-5 c 0,-1.104 0.896,-2 2,-2 l 15,0 c 1.104,0 2,0.896 2,2 l 0,5 z"
     id="path12"
     inkscape:connector-curvature="0"
     style="fill:#e1e8ed" />
  <path
     d="m 32,27 c 0,1.104 -0.896,2 -2,2 l -5,0 c -1.104,0 -2,-0.896 -2,-2 l 0,-5 c 0,-1.104 0.896,-2 2,-2 l 5,0 c 1.104,0 2,0.896 2,2 l 0,5 z"
     id="path14"
     inkscape:connector-curvature="0"
     style="fill:#dd2e44" />
  <path
     d="m 26.015,9.24 c 1.315,1.478 1.908,3.098 1.322,3.619 L 26.278,13.8 c -0.585,0.522 -2.126,-0.255 -3.44,-1.733 L 19.267,8.054 C 17.953,6.575 17.36,4.955 17.946,4.434 l 1.059,-0.941 c 0.586,-0.521 2.124,0.255 3.438,1.733 l 3.572,4.014 z"
     id="path16"
     inkscape:connector-curvature="0"
     style="fill:#ffac33" />
  <path
     d="m 21.28,11.076 c -0.598,1.539 -1.477,2.633 -1.961,2.444 l -0.877,-0.341 c -0.485,-0.188 -0.393,-1.588 0.205,-3.126 l 1.625,-4.178 c 0.599,-1.538 1.477,-2.632 1.962,-2.444 l 0.876,0.341 c 0.485,0.188 0.394,1.588 -0.205,3.126 l -1.625,4.178 z"
     id="path18"
     inkscape:connector-curvature="0"
     style="fill:#ffd983" />
  <path
     d="m 22.113,11.536 c -1.562,0.535 -2.965,0.568 -3.133,0.076 l -0.305,-0.891 c -0.169,-0.492 0.962,-1.324 2.522,-1.858 l 4.242,-1.45 c 1.562,-0.534 2.964,-0.567 3.133,-0.075 l 0.304,0.89 c 0.169,0.493 -0.961,1.325 -2.523,1.858 l -4.24,1.45 z"
     id="path20"
     inkscape:connector-curvature="0"
     style="fill:#ffd983" />
  <path
     d="m 5.442,7.873 c 0.373,-4.106 4.907,-0.961 7.135,1.049 -1.34,1.485 -7.586,3.93 -7.135,-1.049 z"
     id="path22"
     inkscape:connector-curvature="0"
     style="fill:#5c913b" />
  <path
     d="M 5.584,7.784 C 9.323,6.047 8.877,11.547 8.256,14.482 6.3,14.068 1.05,9.892 5.584,7.784 Z"
     id="path24"
     inkscape:connector-curvature="0"
     style="fill:#5c913b" />
  <path
     d="M 4,8 C 2.8,6.4 5,3 10,3 11,4 7,12 4,8 Z"
     id="path26"
     inkscape:connector-curvature="0"
     style="fill:#77b255" />
  <path
     d="m 5,27 c -0.256,0 -0.512,-0.098 -0.707,-0.293 -0.391,-0.391 -0.391,-1.023 0,-1.414 l 1,-1 c 0.391,-0.391 1.023,-0.391 1.414,0 0.391,0.391 0.391,1.023 0,1.414 l -1,1 C 5.512,26.902 5.256,27 5,27 Z m 12.417,0.499 c -0.256,0 -0.512,-0.098 -0.707,-0.293 l -1,-1 c -0.391,-0.391 -0.391,-1.024 0,-1.414 0.391,-0.391 1.024,-0.391 1.415,0 l 1,1 c 0.391,0.391 0.391,1.023 0,1.414 -0.196,0.195 -0.452,0.293 -0.708,0.293 z M 11.25,23.208 c -0.255,0 -0.511,-0.098 -0.707,-0.292 l -0.459,-0.458 c -0.391,-0.391 -0.392,-1.023 -0.002,-1.414 0.389,-0.392 1.023,-0.392 1.415,-0.002 l 0.459,0.458 c 0.391,0.391 0.392,1.023 0.002,1.414 -0.195,0.196 -0.451,0.294 -0.708,0.294 z"
     id="path28"
     inkscape:connector-curvature="0"
     style="fill:#b2c2cc" />
  <path
     d="m 31.149,23.412 c 0.707,0.848 0.592,2.109 -0.257,2.816 l -2.305,1.921 c -0.848,0.707 -2.109,0.592 -2.816,-0.257 L 23.85,25.587 c -0.707,-0.848 -0.592,-2.109 0.257,-2.816 l 2.305,-1.921 c 0.848,-0.707 2.109,-0.592 2.816,0.257 l 1.921,2.305 z"
     id="path30"
     inkscape:connector-curvature="0"
     style="fill:#b26304" />
  <path
     d="m 31.149,21.412 c 0.707,0.848 0.592,2.109 -0.257,2.816 l -2.305,1.921 c -0.848,0.707 -2.109,0.592 -2.816,-0.257 L 23.85,23.587 c -0.707,-0.848 -0.592,-2.109 0.257,-2.816 l 2.305,-1.921 c 0.848,-0.707 2.109,-0.592 2.816,0.257 l 1.921,2.305 z"
     id="path32"
     inkscape:connector-curvature="0"
     style="fill:#f4900c" />
  <circle
     cx="11"
     cy="26"
     r="1"
     id="circle34"
     style="fill:#ccd6dd" />
  <circle
     cx="19"
     cy="22"
     r="1"
     id="circle36"
     style="fill:#ccd6dd" />
</svg>
