<?xml version="1.0" encoding="UTF-8" standalone="no"?>
<svg
   xmlns:dc="http://purl.org/dc/elements/1.1/"
   xmlns:cc="http://creativecommons.org/ns#"
   xmlns:rdf="http://www.w3.org/1999/02/22-rdf-syntax-ns#"
   xmlns:svg="http://www.w3.org/2000/svg"
   xmlns="http://www.w3.org/2000/svg"
   xmlns:sodipodi="http://sodipodi.sourceforge.net/DTD/sodipodi-0.dtd"
   xmlns:inkscape="http://www.inkscape.org/namespaces/inkscape"
   viewBox="0 0 31.134153 35.695999"
   id="svg2"
   version="1.1"
   inkscape:version="0.91 r13725"
   sodipodi:docname="1f376.svg"
   width="31.134153"
   height="35.695999">
  <metadata
     id="metadata34">
    <rdf:RDF>
      <cc:Work
         rdf:about="">
        <dc:format>image/svg+xml</dc:format>
        <dc:type
           rdf:resource="http://purl.org/dc/dcmitype/StillImage" />
      </cc:Work>
    </rdf:RDF>
  </metadata>
  <defs
     id="defs32" />
  <sodipodi:namedview
     pagecolor="#ffffff"
     bordercolor="#666666"
     borderopacity="1"
     objecttolerance="10"
     gridtolerance="10"
     guidetolerance="10"
     inkscape:pageopacity="0"
     inkscape:pageshadow="2"
     inkscape:window-width="640"
     inkscape:window-height="480"
     id="namedview30"
     showgrid="false"
     inkscape:zoom="6.5555556"
     inkscape:cx="15.677"
     inkscape:cy="18.203"
     inkscape:window-x="0"
     inkscape:window-y="0"
     inkscape:window-maximized="0"
     inkscape:current-layer="svg2" />
  <path
     d="M 30.677,20.493 C 30.117,17.696 28.569,13.537 26.97,10.478 28.77,9.23 30.329,6.762 30.329,1.996 29.677,1.493 29.048,1.493 27.677,1.493 c -1.37,0 -3.771,-0.99999997 -3.771,-0.99999997 l -1.372,0 c 0,0 -2.171,0.99999997 -2.858,0.99999997 -0.685,0 -3.043,-0.043 -3.513,0.427 0,4.709 1.612,7.207 3.337,8.491 -1.572,3.076 -3.124,7.288 -3.823,10.082 -1,4 -0.034,9.327 0,9.5 0.312,1.584 2.254,3.5 7.5,3.5 5.246,0 7.021,-1.999 7.5,-3.5 0.056,-0.175 1,-4.5 0,-9.5 z"
     id="path4"
     inkscape:connector-curvature="0"
     style="fill:#55acee" />
  <ellipse
     cx="23.219999"
     cy="1.789"
     rx="7.0830002"
     ry="1.789"
     id="ellipse6"
     style="fill:#3b88c3" />
  <path
     d="m 23.108,4.137 c -3.154,0 -5.515,-0.701 -6.154,-1.001 -0.5,-0.235 -0.715,-0.83 -0.48,-1.33 0.234,-0.5 0.827,-0.716 1.33,-0.48 0.731,0.344 5.593,1.707 11.045,-0.094 0.521,-0.172 1.09,0.112 1.263,0.636 0.174,0.524 -0.111,1.09 -0.636,1.263 -2.276,0.75 -4.467,1.006 -6.368,1.006 z"
     id="path8"
     inkscape:connector-curvature="0"
     style="fill:#88c9f9" />
  <path
     d="m 17.329,23.882 c 0,-1.104 -0.868,-1.389 -2.542,-1.389 l -12.276,0 c -0.837,0 -2.478,-0.48 -2.478,1.297 0,10.199 6.195,11.906 8.366,11.906 3.008,0 8.93,-1.551 8.93,-11.814 z"
     id="path10"
     inkscape:connector-curvature="0"
     style="fill:#ccd6dd" />
  <path
     d="m 17.298,23.184 c 0,1.206 -2.639,2.184 -8.649,2.184 C 2.639,25.368 0,24.39 0,23.184 0,21.977 2.64,21 8.649,21 c 6.01,0.001 8.649,0.977 8.649,2.184 z"
     id="path12"
     inkscape:connector-curvature="0"
     style="fill:#8899a6" />
  <path
     d="M 8.505,25.831 C 4.704,25.831 1.862,24.99 1.092,24.629 0.592,24.395 0.377,23.8 0.611,23.3 c 0.235,-0.501 0.829,-0.718 1.33,-0.481 0.906,0.425 6.928,2.114 13.649,-0.105 0.527,-0.175 1.09,0.11 1.263,0.636 0.174,0.524 -0.111,1.09 -0.635,1.263 -2.758,0.909 -5.412,1.218 -7.713,1.218 z"
     id="path14"
     inkscape:connector-curvature="0"
     style="fill:#ffffff" />
  <path
     d="m 26.344,15.889 c 0,0.955 -0.793,1.729 -1.771,1.729 -0.979,0 -1.771,-0.774 -1.771,-1.729 0,-0.955 0.793,-1.729 1.771,-1.729 0.978,0 1.771,0.774 1.771,1.729 z"
     id="path16"
     inkscape:connector-curvature="0"
     style="fill:#88c9f9" />
  <path
     d="m 28.344,17.889 c 0,0.955 -0.793,1.729 -1.771,1.729 -0.979,0 -1.771,-0.774 -1.771,-1.729 0,-0.955 0.793,-1.729 1.771,-1.729 0.978,0 1.771,0.774 1.771,1.729 z"
     id="path18"
     inkscape:connector-curvature="0"
     style="fill:#88c9f9" />
  <path
     d="m 26.344,18.889 c 0,0.955 -0.793,1.729 -1.771,1.729 -0.979,0 -1.771,-0.774 -1.771,-1.729 0,-0.955 0.793,-1.729 1.771,-1.729 0.978,0 1.771,0.774 1.771,1.729 z m -6.593,6.557 c 0.658,0.262 0.974,1.021 0.706,1.694 -0.269,0.674 -1.02,1.007 -1.678,0.745 -0.657,-0.262 -0.974,-1.02 -0.705,-1.694 0.268,-0.674 1.02,-1.008 1.677,-0.745 z"
     id="path20"
     inkscape:connector-curvature="0"
     style="fill:#88c9f9" />
  <path
     d="m 21.678,24.617 c 0.658,0.262 0.974,1.021 0.706,1.694 -0.269,0.674 -1.021,1.008 -1.678,0.746 -0.657,-0.263 -0.975,-1.022 -0.705,-1.695 0.269,-0.674 1.02,-1.007 1.677,-0.745 z"
     id="path22"
     inkscape:connector-curvature="0"
     style="fill:#88c9f9" />
  <path
     d="m 21.819,26.269 c 0.657,0.262 0.973,1.021 0.705,1.694 -0.269,0.674 -1.02,1.007 -1.678,0.745 -0.657,-0.262 -0.974,-1.021 -0.705,-1.694 0.268,-0.673 1.02,-1.007 1.678,-0.745 z"
     id="path24"
     inkscape:connector-curvature="0"
     style="fill:#88c9f9" />
  <circle
     cx="25.302"
     cy="17.618"
     r="1.125"
     id="circle26"
     style="fill:#bbddf5" />
  <path
     d="m 21.469,26.577 c 0,0.437 -0.354,0.791 -0.792,0.791 -0.437,0 -0.791,-0.354 -0.791,-0.791 0,-0.438 0.354,-0.792 0.791,-0.792 0.438,0 0.792,0.354 0.792,0.792 z"
     id="path28"
     inkscape:connector-curvature="0"
     style="fill:#bbddf5" />
</svg>
