<?xml version="1.0" encoding="UTF-8" standalone="no"?>
<svg
   xmlns:dc="http://purl.org/dc/elements/1.1/"
   xmlns:cc="http://creativecommons.org/ns#"
   xmlns:rdf="http://www.w3.org/1999/02/22-rdf-syntax-ns#"
   xmlns:svg="http://www.w3.org/2000/svg"
   xmlns="http://www.w3.org/2000/svg"
   xmlns:sodipodi="http://sodipodi.sourceforge.net/DTD/sodipodi-0.dtd"
   xmlns:inkscape="http://www.inkscape.org/namespaces/inkscape"
   viewBox="0 0 35.463512 35.465"
   id="svg2"
   version="1.1"
   inkscape:version="0.91 r13725"
   sodipodi:docname="1f37c.svg"
   width="35.463512"
   height="35.465">
  <metadata
     id="metadata16">
    <rdf:RDF>
      <cc:Work
         rdf:about="">
        <dc:format>image/svg+xml</dc:format>
        <dc:type
           rdf:resource="http://purl.org/dc/dcmitype/StillImage" />
      </cc:Work>
    </rdf:RDF>
  </metadata>
  <defs
     id="defs14" />
  <sodipodi:namedview
     pagecolor="#ffffff"
     bordercolor="#666666"
     borderopacity="1"
     objecttolerance="10"
     gridtolerance="10"
     guidetolerance="10"
     inkscape:pageopacity="0"
     inkscape:pageshadow="2"
     inkscape:window-width="640"
     inkscape:window-height="480"
     id="namedview12"
     showgrid="false"
     inkscape:zoom="6.5555556"
     inkscape:cx="17.5565"
     inkscape:cy="17.5555"
     inkscape:window-x="0"
     inkscape:window-y="0"
     inkscape:window-maximized="0"
     inkscape:current-layer="svg2" />
  <path
     d="m 32.5565,7.1314983 c 0,-1.414 0.717,-0.707 1.424,-1.414 1.416,-1.414 2.128,-3.536 0.714,-4.94999997 -1.415,-1.414 -3.534,-0.697 -4.948,0.71699997 -0.708,0.707 0.002,1.425 -1.412,1.425 l -5.657,0 0.707,0.697 c 0,0 3.536,4.944 4.243,4.237 -0.707,0.708 4.231,4.2399997 4.231,4.2399997 l 0.698,0.705 0,-5.6569997 z"
     id="path4"
     inkscape:connector-curvature="0"
     style="fill:#ffac33" />
  <path
     d="m 30.4555,14.909498 -4.949,-4.9499997 -4.95,-4.949 c -0.707,0.707 -4.243,0 -5.657,1.414 l -0.707,0.707 -2.122,2.122 -10.899,10.8979997 c -1.562,1.562 -1.562,4.096 0,5.657 l 8.485,8.485 c 1.562,1.562 4.095,1.562 5.657,0 l 9.9,-9.899 3.121,-3.121 0.707,-0.707 c 1.414,-1.415 0.707,-4.95 1.414,-5.657 z"
     id="path6"
     inkscape:connector-curvature="0"
     style="fill:#ccd6dd" />
  <path
     d="m 32.2235,14.555498 c -0.977,0.977 -1.852,1.684 -2.828,0.707 l -9.192,-9.1919997 c -0.977,-0.977 -0.269,-1.852 0.707,-2.829 0.977,-0.976 2.559,-0.976 3.535,0 l 7.778,7.7779997 c 0.977,0.977 0.977,2.56 0,3.536 z"
     id="path8"
     inkscape:connector-curvature="0"
     style="fill:#55acee" />
  <path
     d="m 12.5565,31.909498 c -0.256,0 -0.512,-0.098 -0.707,-0.293 -0.391,-0.391 -0.391,-1.023 0,-1.414 l 12,-12 c 0.391,-0.391 1.023,-0.391 1.414,0 0.391,0.391 0.391,1.024 0,1.415 l -12,12 c -0.195,0.194 -0.451,0.292 -0.707,0.292 z m -4,-4 c -0.256,0 -0.512,-0.098 -0.707,-0.293 -0.391,-0.391 -0.391,-1.023 0,-1.414 l 12,-12 c 0.391,-0.391 1.023,-0.391 1.414,0 0.391,0.391 0.391,1.023 0,1.414 l -12,12.001 c -0.195,0.194 -0.451,0.292 -0.707,0.292 z m -4,-4 c -0.256,0 -0.512,-0.098 -0.707,-0.293 -0.391,-0.391 -0.391,-1.023 0,-1.414 l 12,-12 c 0.391,-0.3909997 1.023,-0.3909997 1.414,0 0.391,0.391 0.391,1.023 0,1.414 l -12,12.001 c -0.195,0.194 -0.451,0.292 -0.707,0.292 z"
     id="path10"
     inkscape:connector-curvature="0"
     style="fill:#99aab5" />
</svg>
