<?xml version="1.0" encoding="UTF-8" standalone="no"?>
<svg
   xmlns:dc="http://purl.org/dc/elements/1.1/"
   xmlns:cc="http://creativecommons.org/ns#"
   xmlns:rdf="http://www.w3.org/1999/02/22-rdf-syntax-ns#"
   xmlns:svg="http://www.w3.org/2000/svg"
   xmlns="http://www.w3.org/2000/svg"
   xmlns:sodipodi="http://sodipodi.sourceforge.net/DTD/sodipodi-0.dtd"
   xmlns:inkscape="http://www.inkscape.org/namespaces/inkscape"
   viewBox="0 0 36 35.957153"
   id="svg2"
   version="1.1"
   inkscape:version="0.91 r13725"
   sodipodi:docname="1f37b.svg"
   width="36"
   height="35.957153">
  <metadata
     id="metadata28">
    <rdf:RDF>
      <cc:Work
         rdf:about="">
        <dc:format>image/svg+xml</dc:format>
        <dc:type
           rdf:resource="http://purl.org/dc/dcmitype/StillImage" />
      </cc:Work>
    </rdf:RDF>
  </metadata>
  <defs
     id="defs26" />
  <sodipodi:namedview
     pagecolor="#ffffff"
     bordercolor="#666666"
     borderopacity="1"
     objecttolerance="10"
     gridtolerance="10"
     guidetolerance="10"
     inkscape:pageopacity="0"
     inkscape:pageshadow="2"
     inkscape:window-width="640"
     inkscape:window-height="480"
     id="namedview24"
     showgrid="false"
     inkscape:zoom="6.5555556"
     inkscape:cx="18"
     inkscape:cy="18"
     inkscape:window-x="0"
     inkscape:window-y="0"
     inkscape:window-maximized="0"
     inkscape:current-layer="svg2" />
  <path
     d="m 2.72,5.4211537 3.53,0 0,2.679 -1.786,0 c -1.786,0 -1.786,0.893 -1.786,1.786 l 0,7.3870003 c 0,1.359 1.289,1.542 1.289,1.542 l 2.283,0 0,2.679 -3.53,0 c -1.502,0 -2.72,-1.217 -2.72,-2.719 L 0,8.1401537 c 0,-1.501 1.217,-2.719 2.72,-2.719 z"
     id="path4"
     inkscape:connector-curvature="0"
     style="fill:#ffac33" />
  <path
     d="m 5.357,5.4211537 15.179,0 0,18.5360003 c 0,1.1 -0.9,2 -2,2 l -11.179,0 c -1.1,0 -2,-0.9 -2,-2 l 0,-18.5360003 z"
     id="path6"
     inkscape:connector-curvature="0"
     style="fill:#ffac33" />
  <path
     d="m 8.482,23.278154 c 0.493,0 0.893,-0.399 0.893,-0.893 l 0,-9.821 c 0,-0.493 -0.399,-0.893 -0.893,-0.893 -0.493,0 -0.893,0.399 -0.893,0.893 l 0,9.821 c 0,0.494 0.4,0.893 0.893,0.893 z m 4.464,0 c 0.493,0 0.893,-0.399 0.893,-0.893 l 0,-9.821 c 0,-0.493 -0.399,-0.893 -0.893,-0.893 -0.493,0 -0.893,0.399 -0.893,0.893 l 0,9.821 c 10e-4,0.494 0.4,0.893 0.893,0.893 z M 5.357,8.5321537 l 0,-3.111 15.179,0 0,4.8780003 c -0.292,0.107 -0.604,0.175 -0.933,0.175 -1.138,0 -2.111,-0.7010003 -2.516,-1.6940003 -0.238,0.206 -0.545,0.334 -0.883,0.334 -0.46,0 -0.865,-0.23 -1.111,-0.58 -0.483,0.756 -1.324,1.26 -2.288,1.26 -0.884,0 -1.663,-0.429 -2.159,-1.083 -0.248,0.633 -0.86,1.083 -1.58,1.083 -0.645,0 -1.199,-0.364 -1.488,-0.893 -0.27,0.132 -0.57,0.213 -0.892,0.213 -0.882,0 -1.329,-0.582 -1.329,-0.582 z"
     id="path8"
     inkscape:connector-curvature="0"
     style="fill:#f4900c" />
  <path
     d="m 8.036,0.9571537 11.607,0 c 1.786,0 2.679,0.893 2.679,2.679 l 0,2.76 c 0,1.502 -1.218,2.719 -2.719,2.719 -1.138,0 -2.111,-0.701 -2.516,-1.693 -0.238,0.205 -0.545,0.334 -0.883,0.334 -0.46,0 -0.865,-0.23 -1.111,-0.58 -0.483,0.755 -1.324,1.259 -2.288,1.259 -0.884,0 -1.663,-0.429 -2.159,-1.083 -0.248,0.633 -0.86,1.083 -1.58,1.083 -0.62,0 -1.15,-0.34 -1.447,-0.837 -0.241,0.229 -0.564,0.372 -0.923,0.372 -0.74,0 -1.339,-0.6 -1.339,-1.339 l 0,-2.995 c 0,-1.786 0.893,-2.679 2.679,-2.679 z"
     id="path10"
     inkscape:connector-curvature="0"
     style="fill:#e1e8ed" />
  <path
     d="m 30.495,6.4711537 c -0.256,0 -0.512,-0.098 -0.707,-0.293 -0.391,-0.391 -0.391,-1.024 0,-1.415 l 3.552,-3.55 c 0.391,-0.39 1.023,-0.39 1.414,0 0.391,0.39 0.391,1.024 0,1.415 l -3.552,3.55 c -0.195,0.196 -0.451,0.293 -0.707,0.293 z m -4.164,-1.697 c -0.109,0 -0.221,-0.019 -0.33,-0.057 -0.521,-0.182 -0.796,-0.752 -0.614,-1.274 l 0.97,-2.773 c 0.183,-0.521 0.752,-0.796 1.274,-0.614 0.521,0.182 0.796,0.752 0.614,1.274 l -0.97,2.773 c -0.144,0.413 -0.531,0.671 -0.944,0.671 z m 6.143,5.7740003 c -0.412,0 -0.798,-0.257 -0.943,-0.6670003 -0.184,-0.521 0.09,-1.092 0.61,-1.276 l 2.494,-0.881 c 0.522,-0.185 1.092,0.09 1.276,0.61 0.184,0.521 -0.09,1.092 -0.61,1.276 l -2.494,0.8810003 c -0.111,0.039 -0.223,0.057 -0.333,0.057 z"
     id="path12"
     inkscape:connector-curvature="0"
     style="fill:#fa743e" />
  <path
     d="m 33.28,15.421154 -3.53,0 0,2.679 1.786,0 c 1.786,0 1.786,0.893 1.786,1.786 l 0,7.387 c 0,1.359 -1.289,1.542 -1.289,1.542 l -2.283,0 0,2.679 3.53,0 c 1.502,0 2.72,-1.217 2.72,-2.719 l 0,-10.635 c 0,-1.501 -1.217,-2.719 -2.72,-2.719 z"
     id="path14"
     inkscape:connector-curvature="0"
     style="fill:#ffac33" />
  <path
     d="m 30.643,15.421154 -15.179,0 0,18.536 c 0,1.1 0.9,2 2,2 l 11.179,0 c 1.1,0 2,-0.9 2,-2 l 0,-18.536 z"
     id="path16"
     inkscape:connector-curvature="0"
     style="fill:#ffcc4d" />
  <path
     d="m 18.589,33.278154 c -0.493,0 -0.893,-0.399 -0.893,-0.893 l 0,-9.821 c 0,-0.493 0.4,-0.893 0.893,-0.893 0.493,0 0.893,0.399 0.893,0.893 l 0,9.821 c 0,0.494 -0.4,0.893 -0.893,0.893 z m 8.929,0 c -0.493,0 -0.893,-0.399 -0.893,-0.893 l 0,-9.821 c 0,-0.493 0.399,-0.893 0.893,-0.893 0.493,0 0.893,0.399 0.893,0.893 l 0,9.821 c 0,0.494 -0.4,0.893 -0.893,0.893 z m -4.464,0 c -0.493,0 -0.893,-0.399 -0.893,-0.893 l 0,-9.821 c 0,-0.493 0.399,-0.893 0.893,-0.893 0.494,0 0.893,0.399 0.893,0.893 l 0,9.821 c -10e-4,0.494 -0.4,0.893 -0.893,0.893 z"
     id="path18"
     inkscape:connector-curvature="0"
     style="fill:#f4900c" />
  <path
     d="m 30.643,18.532154 0,-3.111 -15.179,0 0,4.878 c 0.292,0.107 0.604,0.175 0.933,0.175 1.138,0 2.111,-0.701 2.516,-1.694 0.238,0.206 0.545,0.334 0.883,0.334 0.46,0 0.865,-0.23 1.111,-0.58 0.483,0.756 1.324,1.26 2.288,1.26 0.884,0 1.663,-0.429 2.159,-1.083 0.248,0.633 0.86,1.083 1.58,1.083 0.645,0 1.199,-0.364 1.488,-0.893 0.27,0.132 0.57,0.213 0.892,0.213 0.882,0 1.329,-0.582 1.329,-0.582 z"
     id="path20"
     inkscape:connector-curvature="0"
     style="fill:#ffac33" />
  <path
     d="m 27.964,10.957154 -11.607,0 c -1.786,0 -2.679,0.893 -2.679,2.679 l 0,2.76 c 0,1.502 1.218,2.719 2.719,2.719 1.138,0 2.111,-0.701 2.516,-1.693 0.238,0.205 0.545,0.334 0.883,0.334 0.46,0 0.865,-0.23 1.111,-0.58 0.483,0.755 1.324,1.259 2.288,1.259 0.884,0 1.663,-0.429 2.159,-1.083 0.248,0.633 0.86,1.083 1.58,1.083 0.62,0 1.15,-0.34 1.447,-0.837 0.24,0.229 0.564,0.372 0.922,0.372 0.74,0 1.339,-0.6 1.339,-1.339 l 0,-2.995 c 0.001,-1.786 -0.892,-2.679 -2.678,-2.679 z"
     id="path22"
     inkscape:connector-curvature="0"
     style="fill:#eeeeee" />
</svg>
