<?xml version="1.0" encoding="UTF-8" standalone="no"?>
<svg
   xmlns:dc="http://purl.org/dc/elements/1.1/"
   xmlns:cc="http://creativecommons.org/ns#"
   xmlns:rdf="http://www.w3.org/1999/02/22-rdf-syntax-ns#"
   xmlns:svg="http://www.w3.org/2000/svg"
   xmlns="http://www.w3.org/2000/svg"
   xmlns:sodipodi="http://sodipodi.sourceforge.net/DTD/sodipodi-0.dtd"
   xmlns:inkscape="http://www.inkscape.org/namespaces/inkscape"
   viewBox="0 0 36.000778 36.000011"
   id="svg2"
   version="1.1"
   inkscape:version="0.91 r13725"
   sodipodi:docname="1f373.svg"
   width="36.000778"
   height="36.000011">
  <metadata
     id="metadata16">
    <rdf:RDF>
      <cc:Work
         rdf:about="">
        <dc:format>image/svg+xml</dc:format>
        <dc:type
           rdf:resource="http://purl.org/dc/dcmitype/StillImage" />
      </cc:Work>
    </rdf:RDF>
  </metadata>
  <defs
     id="defs14" />
  <sodipodi:namedview
     pagecolor="#ffffff"
     bordercolor="#666666"
     borderopacity="1"
     objecttolerance="10"
     gridtolerance="10"
     guidetolerance="10"
     inkscape:pageopacity="0"
     inkscape:pageshadow="2"
     inkscape:window-width="640"
     inkscape:window-height="480"
     id="namedview12"
     showgrid="false"
     inkscape:zoom="6.5555556"
     inkscape:cx="18"
     inkscape:cy="18.00001"
     inkscape:window-x="0"
     inkscape:window-y="0"
     inkscape:window-maximized="0"
     inkscape:current-layer="svg2" />
  <path
     d="M 34.238,27.931 C 33.534,27.228 30.381,25.27 27.303,23.567 28.999,21.137 30,18.187 30,15 30,6.716 23.284,0 15,0 6.715,0 0,6.716 0,15 c 0,8.284 6.715,15 15,15 3.159,0 6.086,-0.981 8.504,-2.649 1.705,3.081 3.666,6.24 4.37,6.944 C 29.288,35.709 31,36.002 32,36 c 1.177,-0.002 4.055,-2.881 4,-4 -0.049,-0.999 -0.348,-2.655 -1.762,-4.069 z"
     id="path4"
     inkscape:connector-curvature="0"
     style="fill:#292f33" />
  <circle
     cx="15"
     cy="15"
     r="12"
     id="circle6"
     style="fill:#66757f" />
  <path
     d="m 16,25 c 4.863,-1.533 4,-5 4,-9 0,-4 4.001,-6.708 0.334,-9.75 C 18.157,4.444 13.584,3.833 11.459,4.625 9.506,5.352 7,6.833 7,9.833 7,12.833 6.942,12.76 5.292,15.458 2.667,19.75 9.125,27.167 16,25 Z"
     id="path8"
     inkscape:connector-curvature="0"
     style="fill:#f5f8fa" />
  <circle
     cx="13"
     cy="18"
     r="4"
     id="circle10"
     style="fill:#ffac33" />
</svg>
