<?xml version="1.0" encoding="UTF-8" standalone="no"?>
<svg
   xmlns:dc="http://purl.org/dc/elements/1.1/"
   xmlns:cc="http://creativecommons.org/ns#"
   xmlns:rdf="http://www.w3.org/1999/02/22-rdf-syntax-ns#"
   xmlns:svg="http://www.w3.org/2000/svg"
   xmlns="http://www.w3.org/2000/svg"
   xmlns:sodipodi="http://sodipodi.sourceforge.net/DTD/sodipodi-0.dtd"
   xmlns:inkscape="http://www.inkscape.org/namespaces/inkscape"
   viewBox="0 0 36 36"
   id="svg2"
   version="1.1"
   inkscape:version="0.91 r13725"
   sodipodi:docname="1f37d.svg"
   width="36"
   height="36">
  <metadata
     id="metadata46">
    <rdf:RDF>
      <cc:Work
         rdf:about="">
        <dc:format>image/svg+xml</dc:format>
        <dc:type
           rdf:resource="http://purl.org/dc/dcmitype/StillImage" />
      </cc:Work>
    </rdf:RDF>
  </metadata>
  <defs
     id="defs44" />
  <sodipodi:namedview
     pagecolor="#ffffff"
     bordercolor="#666666"
     borderopacity="1"
     objecttolerance="10"
     gridtolerance="10"
     guidetolerance="10"
     inkscape:pageopacity="0"
     inkscape:pageshadow="2"
     inkscape:window-width="640"
     inkscape:window-height="480"
     id="namedview42"
     showgrid="false"
     inkscape:zoom="6.5555556"
     inkscape:cx="18"
     inkscape:cy="18"
     inkscape:window-x="0"
     inkscape:window-y="0"
     inkscape:window-maximized="0"
     inkscape:current-layer="svg2" />
  <path
     d="M 36,18 C 36,27.941 27.941,36 18,36 8.059,36 0,27.941 0,18 0,8.059 8.059,0 18,0 27.941,0 36,8.059 36,18 Z"
     id="path4"
     inkscape:connector-curvature="0"
     style="fill:#e1e8ed" />
  <path
     d="M 30,18 C 30,24.628 24.628,30 18,30 11.372,30 6,24.628 6,18 6,11.372 11.372,6 18,6 c 6.628,0 12,5.372 12,12 z"
     id="path6"
     inkscape:connector-curvature="0"
     style="fill:#ccd6dd" />
  <path
     d="M 29,18 C 29,24.075 24.075,29 18,29 11.924,29 7,24.075 7,18 7,11.924 11.925,7 18,7 c 6.075,0 11,4.924 11,11 z"
     id="path8"
     inkscape:connector-curvature="0"
     style="fill:#e1e8ed" />
  <g
     id="g10"
     style="fill:#99aab5">
    <circle
       cx="1"
       cy="1"
       r="1"
       id="circle12" />
    <path
       d="M 0,1 2,1 2,8 0,8 Z"
       id="path14"
       inkscape:connector-curvature="0" />
    <circle
       cx="5"
       cy="1"
       r="1"
       id="circle16" />
    <path
       d="M 4,1 6,1 6,8 4,8 Z"
       id="path18"
       inkscape:connector-curvature="0" />
    <circle
       cx="9"
       cy="1"
       r="1"
       id="circle20" />
    <path
       d="m 8,1 2,0 0,7 -2,0 z m -5,13 4,0 0,20 -4,0 z"
       id="path22"
       inkscape:connector-curvature="0" />
    <circle
       cx="5"
       cy="34"
       r="2"
       id="circle24" />
    <path
       d="M 8,8 C 8,8.552 7.552,9 7,9 6.448,9 6,8.552 6,8 L 4,8 C 4,8.552 3.552,9 3,9 2.448,9 2,8.552 2,8 L 0,8 c 0,3.866 1,7 5,7 4,0 5,-3.134 5,-7 L 8,8 Z"
       id="path26"
       inkscape:connector-curvature="0" />
    <circle
       cx="1"
       cy="8"
       r="1"
       id="circle28" />
    <circle
       cx="5"
       cy="8"
       r="1"
       id="circle30" />
    <circle
       cx="9"
       cy="8"
       r="1"
       id="circle32" />
  </g>
  <g
     id="g34"
     style="fill:#99aab5">
    <path
       d="m 30,14 4,0 0,20 -4,0 z"
       id="path36"
       inkscape:connector-curvature="0" />
    <circle
       cx="32"
       cy="34"
       r="2"
       id="circle38" />
    <path
       d="m 32,0 c 1,0 2,1 2,3 l 0,16 c 0,0 -7,2 -7,-8 0,-6 3,-11 5,-11 z"
       id="path40"
       inkscape:connector-curvature="0" />
  </g>
</svg>
