<?xml version="1.0" encoding="UTF-8" standalone="no"?>
<svg
   xmlns:dc="http://purl.org/dc/elements/1.1/"
   xmlns:cc="http://creativecommons.org/ns#"
   xmlns:rdf="http://www.w3.org/1999/02/22-rdf-syntax-ns#"
   xmlns:svg="http://www.w3.org/2000/svg"
   xmlns="http://www.w3.org/2000/svg"
   xmlns:sodipodi="http://sodipodi.sourceforge.net/DTD/sodipodi-0.dtd"
   xmlns:inkscape="http://www.inkscape.org/namespaces/inkscape"
   viewBox="0 0 35.310875 35.509941"
   id="svg2"
   version="1.1"
   inkscape:version="0.91 r13725"
   sodipodi:docname="1f37e.svg"
   width="35.310875"
   height="35.509941">
  <metadata
     id="metadata30">
    <rdf:RDF>
      <cc:Work
         rdf:about="">
        <dc:format>image/svg+xml</dc:format>
        <dc:type
           rdf:resource="http://purl.org/dc/dcmitype/StillImage" />
      </cc:Work>
    </rdf:RDF>
  </metadata>
  <defs
     id="defs28" />
  <sodipodi:namedview
     pagecolor="#ffffff"
     bordercolor="#666666"
     borderopacity="1"
     objecttolerance="10"
     gridtolerance="10"
     guidetolerance="10"
     inkscape:pageopacity="0"
     inkscape:pageshadow="2"
     inkscape:window-width="640"
     inkscape:window-height="480"
     id="namedview26"
     showgrid="false"
     inkscape:zoom="6.5555556"
     inkscape:cx="17.311"
     inkscape:cy="17.66248"
     inkscape:window-x="0"
     inkscape:window-y="0"
     inkscape:window-maximized="0"
     inkscape:current-layer="svg2" />
  <circle
     cx="6.5"
     cy="27.347462"
     r="1.5"
     id="circle4"
     style="fill:#ccd6dd" />
  <path
     d="m 8.92,13.081461 c 0.051,-0.237 0.08,-0.482 0.08,-0.734 0,-1.933 -1.567,-3.4999997 -3.5,-3.4999997 -1.764,0 -3.208,1.3079997 -3.45,3.0049997 -0.017,0 -0.033,-0.005 -0.05,-0.005 -1.104,0 -2,0.896 -2,2 0,1.104 0.896,2 2,2 0.033,0 0.063,-0.008 0.095,-0.01 -0.058,0.16 -0.095,0.33 -0.095,0.51 0,0.46 0.212,0.867 0.539,1.143 -0.332,0.357 -0.539,0.831 -0.539,1.357 0,1.104 0.896,2 2,2 0,0.375 0.11,0.721 0.289,1.021 -0.727,0.103 -1.289,0.723 -1.289,1.479 0,0.828 0.672,1.5 1.5,1.5 0.828,0 1.5,-0.672 1.5,-1.5 0,-0.18 -0.037,-0.35 -0.095,-0.51 0.032,0.002 0.062,0.01 0.095,0.01 1.104,0 2,-0.896 2,-2 0,-0.601 -0.27,-1.133 -0.69,-1.5 0.419,-0.367 0.69,-0.899 0.69,-1.5 0,-0.378 -0.111,-0.728 -0.294,-1.03 0.097,0.015 0.193,0.03 0.294,0.03 1.104,0 2,-0.896 2,-2 0,-0.771 -0.441,-1.432 -1.08,-1.766 z"
     id="path6"
     inkscape:connector-curvature="0"
     style="fill:#ccd6dd" />
  <circle
     cx="5"
     cy="18.847462"
     r="1"
     id="circle8"
     style="fill:#e4ebef" />
  <path
     d="m 8,12.847461 c 0,-1.105 -0.895,-2 -2,-2 -1.105,0 -2,0.895 -2,2 0,0.032 0.008,0.063 0.01,0.095 -0.16,-0.058 -0.33,-0.095 -0.51,-0.095 -0.829,0 -1.5,0.671 -1.5,1.5 0,0.829 0.671,1.5 1.5,1.5 0.198,0 0.385,-0.04 0.558,-0.11 0.172,0.638 0.749,1.11 1.442,1.11 0.829,0 1.5,-0.671 1.5,-1.5 0,-0.248 -0.066,-0.478 -0.172,-0.684 0.69,-0.315 1.172,-1.007 1.172,-1.816 z"
     id="path10"
     inkscape:connector-curvature="0"
     style="fill:#e4ebef" />
  <path
     d="m 6.612,2.9234613 c 0,0 -0.817,-0.798 -0.873,-0.842 0.233,-0.618 0.164,-1.26899997 -0.25,-1.69199997 -0.627,-0.616 -1.758,-0.488 -2.536,0.29 L 0.832,2.8004613 c -0.777,0.777 -0.906,1.909 -0.29,2.536 0.423,0.413 1.073,0.483 1.692,0.25 0.045,0.055 0.842,0.873 0.842,0.873 0.781,0.78 2.047,0.78 2.828,0 l 0.707,-0.708 c 0.781,-0.781 0.781,-2.047 0.001,-2.828 z"
     id="path12"
     inkscape:connector-curvature="0"
     style="fill:#c1694f" />
  <path
     d="m 6.038,3.8324613 c 0.096,-0.096 0.395,-0.412 0.703,-0.75 -0.043,-0.053 -0.08,-0.109 -0.13,-0.159 0,0 -0.817,-0.798 -0.873,-0.842 -0.112,0.298 -0.289,0.59 -0.542,0.842 l -2.119,2.121 c -0.253,0.253 -0.545,0.43 -0.843,0.542 0.045,0.055 0.842,0.873 0.842,0.873 0.049,0.049 0.106,0.086 0.159,0.13 0.291,-0.261 0.584,-0.537 0.682,-0.634 l 2.121,-2.123 z"
     id="path14"
     inkscape:connector-curvature="0"
     style="fill:#a95233" />
  <path
     d="m 34.211,23.634461 -5.067,-5.067 c -3.664,-3.664 -7.322,-4.14 -14.358,-6.945 l -3.149,3.149 c 3.231,6.61 3.236,10.739 6.9,14.403 l 5.068,5.068 c 0.993,0.993 1.787,1.81 2.782,0.816 l 8.409,-8.412 c 0.996,-0.996 0.408,-2.019 -0.585,-3.012 z"
     id="path16"
     inkscape:connector-curvature="0"
     style="fill:#264612" />
  <path
     d="m 15.516,12.011461 c 0,0 1.739,0.644 -0.56,2.943 -2.122,2.122 -2.917,0.651 -2.917,0.651 l -3.447,-3.447 3.536,-3.5359997 3.388,3.3889997 z"
     id="path18"
     inkscape:connector-curvature="0"
     style="fill:#ffe8b6" />
  <path
     d="m 12.435,8.9304613 -1.014,-1.015 -3.536,3.5349997 1.014,1.015 c 0.994,0.993 0.819,1.055 2.644,-0.77 l 0.592,-0.593 c 1.442,-1.4429997 1.293,-1.1789997 0.3,-2.1719997 z"
     id="path20"
     inkscape:connector-curvature="0"
     style="fill:#ffd983" />
  <path
     d="m 11.774,6.8544613 c 0.586,0.586 0.586,1.536 -10e-4,2.122 L 8.946,11.803461 c -0.586,0.587 -1.536,0.587 -2.122,0 -0.586,-0.585 -0.586,-1.536 0,-2.1219997 l 2.827,-2.827 c 0.587,-0.585 1.537,-0.586 2.123,0 z"
     id="path22"
     inkscape:connector-curvature="0"
     style="fill:#264612" />
  <path
     d="m 27.684,19.936461 c -0.781,-0.78 -2.048,-0.78 -2.829,0 l -4.949,4.95 c -0.781,0.78 -0.781,2.047 0,2.828 l 4.242,4.242 c 0.781,0.781 2.048,0.781 2.829,0 l 4.949,-4.949 c 0.781,-0.781 0.781,-2.048 0,-2.828 l -4.242,-4.243 z"
     id="path24"
     inkscape:connector-curvature="0"
     style="fill:#ffe8b6" />
</svg>
