<?xml version="1.0" encoding="UTF-8" standalone="no"?>
<svg
   xmlns:dc="http://purl.org/dc/elements/1.1/"
   xmlns:cc="http://creativecommons.org/ns#"
   xmlns:rdf="http://www.w3.org/1999/02/22-rdf-syntax-ns#"
   xmlns:svg="http://www.w3.org/2000/svg"
   xmlns="http://www.w3.org/2000/svg"
   xmlns:sodipodi="http://sodipodi.sourceforge.net/DTD/sodipodi-0.dtd"
   xmlns:inkscape="http://www.inkscape.org/namespaces/inkscape"
   viewBox="0 0 32.632999 34"
   id="svg2"
   version="1.1"
   inkscape:version="0.91 r13725"
   sodipodi:docname="1f37f.svg"
   width="32.632999"
   height="34">
  <metadata
     id="metadata28">
    <rdf:RDF>
      <cc:Work
         rdf:about="">
        <dc:format>image/svg+xml</dc:format>
        <dc:type
           rdf:resource="http://purl.org/dc/dcmitype/StillImage" />
      </cc:Work>
    </rdf:RDF>
  </metadata>
  <defs
     id="defs26" />
  <sodipodi:namedview
     pagecolor="#ffffff"
     bordercolor="#666666"
     borderopacity="1"
     objecttolerance="10"
     gridtolerance="10"
     guidetolerance="10"
     inkscape:pageopacity="0"
     inkscape:pageshadow="2"
     inkscape:window-width="640"
     inkscape:window-height="480"
     id="namedview24"
     showgrid="false"
     inkscape:zoom="6.5555556"
     inkscape:cx="16.332"
     inkscape:cy="17"
     inkscape:window-x="0"
     inkscape:window-y="0"
     inkscape:window-maximized="0"
     inkscape:current-layer="svg2" />
  <path
     d="M 29.633,10 3,10 c -1.657,0 -3,1.343 -3,3 0,1.657 1.343,3 3,3 0.182,0 0.357,-0.023 0.53,-0.053 L 3.514,16 4.151,30.004 C 4.25,32.202 6.132,34 8.332,34 l 16,0 c 2.2,0 4.082,-1.798 4.182,-3.996 L 29.15,16 29.135,15.95 c 0.163,0.027 0.327,0.05 0.498,0.05 1.657,0 3,-1.343 3,-3 0,-1.657 -1.344,-3 -3,-3 z"
     id="path4"
     inkscape:connector-curvature="0"
     style="fill:#e1e8ed" />
  <path
     d="m 27,16 0,16.989 c 0.863,-0.734 1.444,-1.796 1.492,-2.986 L 29.172,16 27,16 Z m -6,0 3,0 0,18 -3,0 z m -6,18 0,-18 3,0 0,18 z m -6,-18 3,0 0,18 -3,0 z m -5.508,0 0.68,14.003 C 4.226,31.345 4.948,32.531 6,33.257 L 6,16 3.492,16 Z"
     id="path6"
     inkscape:connector-curvature="0"
     style="fill:#da2f47" />
  <path
     d="m 3.492,16 0.097,2 25.485,0 0.098,-2 z"
     id="path8"
     inkscape:connector-curvature="0"
     style="opacity:0.6;fill:#99aab5" />
  <path
     d="M 29.261,10.07 C 29.304,9.886 29.332,9.697 29.332,9.5 29.332,8.826 29.062,8.216 28.628,7.767 29.05,7.501 29.332,7.035 29.332,6.5 29.332,5.671 28.66,5 27.832,5 27.635,5 27.447,5.04 27.274,5.11 27.135,4.597 26.735,4.197 26.222,4.058 26.292,3.885 26.332,3.698 26.332,3.5 26.332,2.671 25.66,2 24.832,2 24.641,2 24.46,2.039 24.292,2.104 24.101,0.913 23.077,0 21.832,0 c -1.381,0 -2.5,1.119 -2.5,2.5 0,0.187 0.024,0.368 0.063,0.544 -0.64,0.113 -1.19,0.469 -1.563,0.969 C 17.376,3.402 16.654,3 15.832,3 c -1.381,0 -2.5,1.119 -2.5,2.5 l 10e-4,0.012 C 13.029,5.282 12.676,5.117 12.286,5.046 12.072,3.882 11.057,3 9.832,3 8.604,3 7.587,3.887 7.377,5.055 7.198,5.027 7.019,5 6.832,5 c -1.933,0 -3.5,1.567 -3.5,3.5 0,0.545 0.135,1.054 0.357,1.514 -0.76,0.073 -1.357,0.706 -1.357,1.486 0,0.829 0.672,1.5 1.5,1.5 l 25,0 c 0.828,0 1.5,-0.671 1.5,-1.5 0,-0.678 -0.453,-1.245 -1.071,-1.43 z"
     id="path10"
     inkscape:connector-curvature="0"
     style="fill:#ffd983" />
  <g
     id="g12"
     style="fill:#ffac33"
     transform="translate(-1.668,-1)">
    <circle
       cx="28"
       cy="8"
       r="1"
       id="circle14" />
    <circle
       cx="24.5"
       cy="5.5"
       r="1.5"
       id="circle16" />
    <circle
       cx="12"
       cy="7"
       r="1"
       id="circle18" />
    <path
       d="M 31,12.5 C 31,11.672 30.328,11 29.5,11 28.842,11 28.288,11.427 28.086,12.017 28.057,12.015 28.031,12 28,12 c -0.552,0 -1,0.448 -1,1 l 3.908,0 C 30.964,12.843 31,12.676 31,12.5 Z M 9.5,12 c 0.198,0 0.385,0.04 0.558,0.11 C 10.23,11.472 10.808,11 11.5,11 c 0.828,0 1.5,0.671 1.5,1.5 0,0.176 -0.036,0.343 -0.092,0.5 l 4.184,0 C 17.036,12.843 17,12.676 17,12.5 17,11.671 17.672,11 18.5,11 c 0.237,0 0.459,0.06 0.658,0.158 C 19.06,10.959 19,10.737 19,10.5 19,9.671 19.672,9 20.5,9 c 0.828,0 1.5,0.671 1.5,1.5 0,0.198 -0.04,0.385 -0.11,0.558 0.638,0.172 1.11,0.749 1.11,1.442 0,0.176 -0.036,0.343 -0.092,0.5 l 2.968,0 -0.566,-0.5 C 25.73,12.133 26,11.601 26,11 26,9.896 25.104,9 24,9 23.622,9 23.272,9.111 22.97,9.294 22.985,9.197 23,9.101 23,9 23,7.896 22.104,7 21,7 20.192,7 19.499,7.482 19.184,8.172 18.978,8.066 18.748,8 18.5,8 17.672,8 17,8.672 17,9.5 c 0,0.198 0.04,0.385 0.11,0.558 -0.638,0.173 -1.11,0.75 -1.11,1.442 0,0.198 0.04,0.385 0.11,0.558 C 15.88,12.12 15.672,12.235 15.5,12.39 15.234,12.15 14.886,12 14.5,12 14.263,12 14.041,12.06 13.841,12.159 13.94,11.959 14,11.737 14,11.5 14,10.672 13.328,10 12.5,10 12.302,10 12.115,10.04 11.942,10.11 11.77,9.472 11.192,9 10.5,9 9.672,9 9,9.672 9,10.5 9,10.698 9.04,10.885 9.11,11.058 8.88,11.12 8.672,11.235 8.5,11.39 8.234,11.15 7.886,11 7.5,11 6.672,11 6,11.672 6,12.5 6,12.676 6.036,12.843 6.092,13 l 2,0 C 8.299,12.419 8.848,12 9.5,12 Z"
       id="path20"
       inkscape:connector-curvature="0" />
  </g>
  <path
     d="m 2.332,12 0,1 c 0,0.552 0.448,1 1,1 l 26,0 c 0.553,0 1,-0.448 1,-1 l 0,-1 -28,0 z"
     id="path22"
     inkscape:connector-curvature="0"
     style="fill:#ffffff" />
</svg>
