<?xml version="1.0" encoding="UTF-8" standalone="no"?>
<svg
   xmlns:dc="http://purl.org/dc/elements/1.1/"
   xmlns:cc="http://creativecommons.org/ns#"
   xmlns:rdf="http://www.w3.org/1999/02/22-rdf-syntax-ns#"
   xmlns:svg="http://www.w3.org/2000/svg"
   xmlns="http://www.w3.org/2000/svg"
   xmlns:sodipodi="http://sodipodi.sourceforge.net/DTD/sodipodi-0.dtd"
   xmlns:inkscape="http://www.inkscape.org/namespaces/inkscape"
   viewBox="0 0 34.427582 34.021828"
   id="svg2"
   version="1.1"
   inkscape:version="0.91 r13725"
   sodipodi:docname="1f38b.svg"
   width="34.427582"
   height="34.021828">
  <metadata
     id="metadata28">
    <rdf:RDF>
      <cc:Work
         rdf:about="">
        <dc:format>image/svg+xml</dc:format>
        <dc:type
           rdf:resource="http://purl.org/dc/dcmitype/StillImage" />
      </cc:Work>
    </rdf:RDF>
  </metadata>
  <defs
     id="defs26" />
  <sodipodi:namedview
     pagecolor="#ffffff"
     bordercolor="#666666"
     borderopacity="1"
     objecttolerance="10"
     gridtolerance="10"
     guidetolerance="10"
     inkscape:pageopacity="0"
     inkscape:pageshadow="2"
     inkscape:window-width="640"
     inkscape:window-height="480"
     id="namedview24"
     showgrid="false"
     inkscape:zoom="6.5555556"
     inkscape:cx="17.416782"
     inkscape:cy="17.625"
     inkscape:window-x="0"
     inkscape:window-y="0"
     inkscape:window-maximized="0"
     inkscape:current-layer="svg2" />
  <path
     d="m 19.832782,13.336828 c -1.003,-1.821 -1.381,-3.7699996 -1.685,-5.3359996 -0.083,-0.427 1.579,-2.199 1.701,-1.66 0.092,0.401 0.175,0.83 0.263,1.279 0.291,1.503 0.621,3.2069996 1.473,4.7519996 0.267,0.485 -1.569,1.296 -1.752,0.965 z"
     id="path4"
     inkscape:connector-curvature="0" />
  <path
     d="m 17.872782,15.668828 c 0.875,-0.524 5.387,-2.693 6.682,-3.288 0.524,1.679 2.903,15.461 9.234,15.146 1.469,0.069 0.104,1.504 -1.085,1.644 -1.189,0.141 -2.901,-0.174 -3.602,-0.489 0.21,0.734 0.272,2.973 0.244,3.742 -0.034,0.945 -1.129,0.59 -2.169,-0.035 -6.226,-3.742 -9.304,-16.72 -9.304,-16.72 z"
     id="path6"
     inkscape:connector-curvature="0"
     style="fill:#be1931" />
  <path
     d="m 24.554782,12.381828 c -1.295,0.595 -5.807,2.763 -6.682,3.288 0,0 0.148,0.624 0.445,1.637 1.477,-0.676 4.959,-2.242 6.705,-3.026 -0.222,-0.916 -0.375,-1.601 -0.468,-1.899 z"
     id="path8"
     inkscape:connector-curvature="0"
     style="fill:#a0041e" />
  <path
     d="m 17.628782,15.844828 c 1.135,-0.454 6.191,-2.764 7.205,-3.253 1.015,-0.49 0.7,-2.344 -0.489,-1.924 -1.189,0.42 -6.052,2.763 -7.205,3.253 -1.155,0.489 -0.386,2.273 0.489,1.924 z"
     id="path10"
     inkscape:connector-curvature="0"
     style="fill:#ffac33" />
  <path
     d="m 5.6117818,12.440828 c -1.895,-1.62 4.242,-5.0039996 7.7980002,-6.1379996 -0.251,1.072 -5.0640002,8.4749996 -7.7980002,6.1379996 z M 24.955782,2.7828284 c 0.964,-2.29899999 6.06,2.512 8.225,5.55 -1.096,0.089 -9.615,-2.233 -8.225,-5.55 z"
     id="path12"
     inkscape:connector-curvature="0"
     style="fill:#a6d388" />
  <path
     d="m 2.4997818,34.021828 c -0.829,0 -1.49999996,-0.672 -1.49999996,-1.5 0,-0.192 -0.005,-0.438 -0.011,-0.734 -0.086,-4.165 -0.059,-16.531 8.42799996,-30.80799959 0.424,-0.712 1.0560002,-1.254 1.7670002,-0.831 0.712,0.423 0.323,1.36899999 -0.1,2.08099999 C 3.0347818,15.768828 3.9067818,27.772828 3.9877818,31.724828 c 0.007,0.322 0.012,0.589 0.012,0.797 0,0.828 -0.671,1.5 -1.5,1.5 z"
     id="path14"
     inkscape:connector-curvature="0"
     style="fill:#5c913b" />
  <path
     d="m 1.4987818,31.437828 c -0.78699996,0 -1.44799996,-0.613 -1.49599996,-1.41 -0.05,-0.827 0.58,-1.537 1.40699996,-1.587 l 2.083,-0.125 c 0.825,-0.06 1.538,0.58 1.587,1.407 0.05,0.827 -0.58,1.537 -1.407,1.587 l -2.083,0.125 c -0.03,0.002 -0.061,0.003 -0.091,0.003 z"
     id="path16"
     inkscape:connector-curvature="0"
     style="fill:#3e721d" />
  <path
     d="m 7.1267818,33.979828 c -0.095,0 -0.19,-0.009 -0.287,-0.027 -0.813,-0.158 -1.345,-0.945 -1.187,-1.759 0.035,-0.18 0.078,-0.448 0.132,-0.793 3.4,-21.294 13.5160002,-28.2689996 21.7990002,-30.83699959 0.799,-0.245 2.104,-0.359 2.349,0.431 0.245,0.79099999 -0.6,1.28199999 -1.391,1.52699999 -7.472,2.317 -16.638,9.5789996 -19.7940002,29.3519996 -0.062,0.388 -0.111,0.689 -0.15,0.892 -0.139,0.717 -0.767,1.214 -1.471,1.214 z"
     id="path18"
     inkscape:connector-curvature="0"
     style="fill:#5c913b" />
  <path
     d="m 9.3327818,7.0218284 c -0.199,0 -0.4,-0.04 -0.594,-0.123 l -2.125,-0.917 c -0.76,-0.328 -1.111,-1.21 -0.783,-1.971 0.328,-0.762 1.211,-1.111 1.972,-0.783 l 2.125,0.916 c 0.7610002,0.328 1.1110002,1.211 0.7830002,1.972 -0.245,0.567 -0.7970002,0.906 -1.3780002,0.906 z m -4.457,12.2909996 c -0.125,0 -0.251,-0.016 -0.377,-0.048 l -2.25,-0.583 c -0.802,-0.208 -1.28299996,-1.026 -1.076,-1.829 0.208,-0.802 1.025,-1.285 1.829,-1.076 l 2.25,0.583 c 0.802,0.208 1.283,1.026 1.076,1.828 -0.176,0.677 -0.785,1.125 -1.452,1.125 z M 22.084782,7.1468284 c -0.481,0 -0.955,-0.232 -1.245,-0.662 l -1.292,-1.916 c -0.463,-0.687 -0.281,-1.619 0.405,-2.082 0.687,-0.462 1.619,-0.282 2.083,0.405 l 1.292,1.917 c 0.463,0.687 0.281,1.619 -0.405,2.082 -0.258,0.173 -0.549,0.256 -0.838,0.256 z m -8.003,9.5419996 c -0.235,0 -0.473,-0.056 -0.695,-0.172 l -2.542,-1.333 c -0.734,-0.385 -1.0170002,-1.292 -0.631,-2.025 0.385,-0.733 1.292,-1.017 2.025,-0.631 l 2.542,1.333 c 0.734,0.385 1.017,1.292 0.631,2.025 -0.268,0.511 -0.79,0.803 -1.33,0.803 z m -4.7480002,11.666 c -0.127,0 -0.255,-0.016 -0.384,-0.05 l -2.208,-0.583 c -0.801,-0.211 -1.279,-1.032 -1.067,-1.833 0.212,-0.801 1.035,-1.279 1.833,-1.067 l 2.208,0.583 c 0.8010002,0.211 1.2790002,1.032 1.0670002,1.833 -0.177,0.673 -0.7840002,1.117 -1.4490002,1.117 z"
     id="path20"
     inkscape:connector-curvature="0"
     style="fill:#3e721d" />
  <path
     d="m 4.3747818,13.604828 c -2.252,1.068 -2.834,-5.9169996 -2.417,-9.6249996 0.876,0.667 5.667,8.0839996 2.417,9.6249996 z"
     id="path22"
     inkscape:connector-curvature="0"
     style="fill:#a6d388" />
</svg>
