<?xml version="1.0" encoding="UTF-8" standalone="no"?>
<svg
   xmlns:dc="http://purl.org/dc/elements/1.1/"
   xmlns:cc="http://creativecommons.org/ns#"
   xmlns:rdf="http://www.w3.org/1999/02/22-rdf-syntax-ns#"
   xmlns:svg="http://www.w3.org/2000/svg"
   xmlns="http://www.w3.org/2000/svg"
   xmlns:sodipodi="http://sodipodi.sourceforge.net/DTD/sodipodi-0.dtd"
   xmlns:inkscape="http://www.inkscape.org/namespaces/inkscape"
   viewBox="0 0 35.802299 32.766056"
   id="svg2"
   version="1.1"
   inkscape:version="0.91 r13725"
   sodipodi:docname="1f38c.svg"
   width="35.802299"
   height="32.766056">
  <metadata
     id="metadata20">
    <rdf:RDF>
      <cc:Work
         rdf:about="">
        <dc:format>image/svg+xml</dc:format>
        <dc:type
           rdf:resource="http://purl.org/dc/dcmitype/StillImage" />
      </cc:Work>
    </rdf:RDF>
  </metadata>
  <defs
     id="defs18" />
  <sodipodi:namedview
     pagecolor="#ffffff"
     bordercolor="#666666"
     borderopacity="1"
     objecttolerance="10"
     gridtolerance="10"
     guidetolerance="10"
     inkscape:pageopacity="0"
     inkscape:pageshadow="2"
     inkscape:window-width="640"
     inkscape:window-height="480"
     id="namedview16"
     showgrid="false"
     inkscape:zoom="6.5555556"
     inkscape:cx="17.901005"
     inkscape:cy="16.383"
     inkscape:window-x="0"
     inkscape:window-y="0"
     inkscape:window-maximized="0"
     inkscape:current-layer="svg2" />
  <path
     d="m 33.631005,16.570056 c -0.491,1.981 -1.376,2.514 -3.356,2.022 l -11.654,-2.887 3.332,-13.4479997 11.655,2.888 c 1.979,0.491 2.515,1.376 2.023,3.356 l -2,8.0689997 z"
     id="path4"
     inkscape:connector-curvature="0"
     style="fill:#e8eaeb" />
  <path
     d="m 14.001005,32.766056 c -0.073,0 -0.147,-0.009 -0.221,-0.027 -0.495,-0.121 -0.798,-0.622 -0.676,-1.117 l 7.608,-30.91899975 c 0.122,-0.496 0.622,-0.798 1.117,-0.676 0.495,0.122 0.798,0.623 0.676,1.11800005 l -7.608,30.9179997 c -0.103,0.421 -0.481,0.703 -0.896,0.703 z"
     id="path6"
     inkscape:connector-curvature="0"
     style="fill:#66757f" />
  <path
     d="m 30.149005,11.425056 c -0.43,1.733 -2.183,2.79 -3.915,2.36 -1.733,-0.429 -2.791,-2.182 -2.361,-3.9159997 0.43,-1.733 2.184,-2.79 3.916,-2.36 1.732,0.43 2.788,2.183 2.36,3.9159997 z"
     id="path8"
     inkscape:connector-curvature="0"
     style="fill:#be1931" />
  <path
     d="m 2.1710053,16.570056 c 0.491,1.981 1.375,2.514 3.356,2.022 l 11.6549997,-2.887 -3.333,-13.4479997 -11.6549997,2.888 c -1.97999997,0.491 -2.51399997,1.376 -2.02299997,3.356 L 2.1710053,16.570056 Z"
     id="path10"
     inkscape:connector-curvature="0"
     style="fill:#e8eaeb" />
  <path
     d="m 21.801005,32.766056 c -0.415,0 -0.792,-0.282 -0.896,-0.703 l -7.608,-30.9179997 c -0.122,-0.49500005 0.181,-0.99600005 0.676,-1.11800005 0.499,-0.121 0.996,0.181 1.118,0.676 l 7.607,30.91799975 c 0.122,0.495 -0.181,0.996 -0.676,1.117 -0.074,0.019 -0.148,0.028 -0.221,0.028 z"
     id="path12"
     inkscape:connector-curvature="0"
     style="fill:#66757f" />
  <path
     d="m 5.6530053,11.425056 c 0.43,1.733 2.183,2.79 3.916,2.36 1.7329997,-0.429 2.7899997,-2.182 2.3609997,-3.9159997 -0.429,-1.733 -2.1829997,-2.79 -3.9149997,-2.36 -1.734,0.43 -2.791,2.183 -2.362,3.9159997 z"
     id="path14"
     inkscape:connector-curvature="0"
     style="fill:#be1931" />
</svg>
