<?xml version="1.0" encoding="UTF-8" standalone="no"?>
<svg
   xmlns:dc="http://purl.org/dc/elements/1.1/"
   xmlns:cc="http://creativecommons.org/ns#"
   xmlns:rdf="http://www.w3.org/1999/02/22-rdf-syntax-ns#"
   xmlns:svg="http://www.w3.org/2000/svg"
   xmlns="http://www.w3.org/2000/svg"
   xmlns:sodipodi="http://sodipodi.sourceforge.net/DTD/sodipodi-0.dtd"
   xmlns:inkscape="http://www.inkscape.org/namespaces/inkscape"
   viewBox="0 0 36.001152 35.420673"
   id="svg2"
   version="1.1"
   inkscape:version="0.91 r13725"
   sodipodi:docname="1f389.svg"
   width="36.001152"
   height="35.420673">
  <metadata
     id="metadata38">
    <rdf:RDF>
      <cc:Work
         rdf:about="">
        <dc:format>image/svg+xml</dc:format>
        <dc:type
           rdf:resource="http://purl.org/dc/dcmitype/StillImage" />
      </cc:Work>
    </rdf:RDF>
  </metadata>
  <defs
     id="defs36" />
  <sodipodi:namedview
     pagecolor="#ffffff"
     bordercolor="#666666"
     borderopacity="1"
     objecttolerance="10"
     gridtolerance="10"
     guidetolerance="10"
     inkscape:pageopacity="0"
     inkscape:pageshadow="2"
     inkscape:window-width="640"
     inkscape:window-height="480"
     id="namedview34"
     showgrid="false"
     inkscape:zoom="6.5555556"
     inkscape:cx="18"
     inkscape:cy="18.001674"
     inkscape:window-x="0"
     inkscape:window-y="0"
     inkscape:window-maximized="0"
     inkscape:current-layer="svg2" />
  <path
     d="m 11.626,6.9069973 c -0.112,0.112 -0.197,0.247 -0.268,0.395 l -0.008,-0.008 -11.216,25.2659997 0.011,0.011 c -0.208,0.403 0.14,1.223 0.853,1.937 0.713,0.713 1.533,1.061 1.936,0.853 l 0.01,0.01 25.266,-11.217 -0.008,-0.009 c 0.147,-0.07 0.282,-0.155 0.395,-0.269 1.562,-1.562 -0.971,-6.627 -5.656,-11.313 C 18.254,7.8769973 13.189,5.3449973 11.626,6.9069973 Z"
     id="path4"
     inkscape:connector-curvature="0"
     style="fill:#dd2e44" />
  <path
     d="m 13,11.418997 -12.584,20.506 -0.282,0.635 0.011,0.011 c -0.208,0.403 0.14,1.223 0.853,1.937 0.232,0.232 0.473,0.408 0.709,0.557 l 15.293,-18.646 -4,-5 z"
     id="path6"
     inkscape:connector-curvature="0"
     style="fill:#ea596e" />
  <path
     d="m 23.012,12.484997 c 4.67,4.672 7.263,9.652 5.789,11.124 -1.473,1.474 -6.453,-1.118 -11.126,-5.788 -4.671,-4.672 -7.263,-9.6539997 -5.79,-11.1269997 1.474,-1.473 6.454,1.119 11.127,5.7909997 z"
     id="path8"
     inkscape:connector-curvature="0"
     style="fill:#a0041e" />
  <path
     d="m 18.59,13.027997 c -0.199,0.161 -0.459,0.245 -0.734,0.215 -0.868,-0.094 -1.598,-0.396 -2.109,-0.873 -0.541,-0.505 -0.808,-1.183 -0.735,-1.862 0.128,-1.1919997 1.324,-2.2859997 3.363,-2.0659997 0.793,0.085 1.147,-0.17 1.159,-0.292 0.014,-0.121 -0.277,-0.446 -1.07,-0.532 -0.868,-0.094 -1.598,-0.396 -2.11,-0.873 -0.541,-0.505 -0.809,-1.183 -0.735,-1.862 0.13,-1.192 1.325,-2.286 3.362,-2.065 0.578,0.062 0.883,-0.057 1.012,-0.134 0.103,-0.063 0.144,-0.123 0.148,-0.158 0.012,-0.121 -0.275,-0.446 -1.07,-0.532 -0.549,-0.06 -0.947,-0.552 -0.886,-1.10199996 0.059,-0.549 0.55,-0.946 1.101,-0.886 2.037,0.219 2.973,1.54199996 2.844,2.73499996 -0.13,1.194 -1.325,2.286 -3.364,2.067 -0.578,-0.063 -0.88,0.057 -1.01,0.134 -0.103,0.062 -0.145,0.123 -0.149,0.157 -0.013,0.122 0.276,0.446 1.071,0.532 2.037,0.22 2.973,1.542 2.844,2.735 -0.129,1.192 -1.324,2.2859997 -3.362,2.0649997 -0.578,-0.062 -0.882,0.058 -1.012,0.134 -0.104,0.064 -0.144,0.124 -0.148,0.158 -0.013,0.121 0.276,0.446 1.07,0.532 0.548,0.06 0.947,0.553 0.886,1.102 -0.028,0.274 -0.167,0.511 -0.366,0.671 z"
     id="path10"
     inkscape:connector-curvature="0"
     style="fill:#aa8dd8" />
  <path
     d="m 30.661,22.275997 c 1.973,-0.557 3.334,0.323 3.658,1.478 0.324,1.154 -0.378,2.615 -2.35,3.17 -0.77,0.216 -1.001,0.584 -0.97,0.701 0.034,0.118 0.425,0.312 1.193,0.095 1.972,-0.555 3.333,0.325 3.657,1.479 0.326,1.155 -0.378,2.614 -2.351,3.17 -0.769,0.216 -1.001,0.585 -0.967,0.702 0.033,0.117 0.423,0.311 1.192,0.095 0.53,-0.149 1.084,0.16 1.233,0.691 0.148,0.532 -0.161,1.084 -0.693,1.234 -1.971,0.555 -3.333,-0.323 -3.659,-1.479 -0.324,-1.154 0.379,-2.613 2.353,-3.169 0.77,-0.217 1.001,-0.584 0.967,-0.702 -0.032,-0.117 -0.422,-0.312 -1.19,-0.096 -1.974,0.556 -3.334,-0.322 -3.659,-1.479 -0.325,-1.154 0.378,-2.613 2.351,-3.17 0.768,-0.215 0.999,-0.585 0.967,-0.701 -0.034,-0.118 -0.423,-0.312 -1.192,-0.096 -0.532,0.15 -1.083,-0.16 -1.233,-0.691 -0.149,-0.53 0.161,-1.082 0.693,-1.232 z"
     id="path12"
     inkscape:connector-curvature="0"
     style="fill:#77b255" />
  <path
     d="m 23.001,19.578997 c -0.294,0 -0.584,-0.129 -0.782,-0.375 -0.345,-0.432 -0.274,-1.061 0.156,-1.406 0.218,-0.175 5.418,-4.259 12.767,-3.208 0.547,0.078 0.927,0.584 0.849,1.131 -0.078,0.546 -0.58,0.93 -1.132,0.848 -6.493,-0.922 -11.187,2.754 -11.233,2.791 -0.186,0.148 -0.406,0.219 -0.625,0.219 z"
     id="path14"
     inkscape:connector-curvature="0"
     style="fill:#aa8dd8" />
  <path
     d="m 5.754,15.418997 c -0.095,0 -0.192,-0.014 -0.288,-0.042 -0.529,-0.159 -0.829,-0.716 -0.67,-1.245 1.133,-3.773 2.16,-9.7939997 0.898,-11.3639997 -0.141,-0.178 -0.354,-0.353 -0.842,-0.316 -0.938,0.072 -0.849,2.051 -0.848,2.071 0.042,0.551 -0.372,1.031 -0.922,1.072 -0.559,0.034 -1.031,-0.372 -1.072,-0.923 -0.103,-1.379 0.326,-4.03499996 2.692,-4.21399996 1.056,-0.08 1.933,0.287 2.552,1.05699996 2.371,2.951 -0.036,11.5059997 -0.542,13.1919997 -0.13,0.433 -0.528,0.712 -0.958,0.712 z"
     id="path16"
     inkscape:connector-curvature="0"
     style="fill:#77b255" />
  <circle
     cx="25.5"
     cy="8.9189978"
     r="1.5"
     id="circle18"
     style="fill:#5c913b" />
  <circle
     cx="2"
     cy="17.418997"
     r="2"
     id="circle20"
     style="fill:#9266cc" />
  <circle
     cx="32.5"
     cy="18.918997"
     r="1.5"
     id="circle22"
     style="fill:#5c913b" />
  <circle
     cx="23.5"
     cy="30.918997"
     r="1.5"
     id="circle24"
     style="fill:#5c913b" />
  <circle
     cx="28"
     cy="3.4189973"
     r="2"
     id="circle26"
     style="fill:#ffcc4d" />
  <circle
     cx="32.5"
     cy="7.9189973"
     r="1.5"
     id="circle28"
     style="fill:#ffcc4d" />
  <circle
     cx="29.5"
     cy="11.918998"
     r="1.5"
     id="circle30"
     style="fill:#ffcc4d" />
  <circle
     cx="7.5"
     cy="22.918997"
     r="1.5"
     id="circle32"
     style="fill:#ffcc4d" />
</svg>
