<?xml version="1.0" encoding="UTF-8" standalone="no"?>
<svg
   xmlns:dc="http://purl.org/dc/elements/1.1/"
   xmlns:cc="http://creativecommons.org/ns#"
   xmlns:rdf="http://www.w3.org/1999/02/22-rdf-syntax-ns#"
   xmlns:svg="http://www.w3.org/2000/svg"
   xmlns="http://www.w3.org/2000/svg"
   xmlns:sodipodi="http://sodipodi.sourceforge.net/DTD/sodipodi-0.dtd"
   xmlns:inkscape="http://www.inkscape.org/namespaces/inkscape"
   viewBox="0 0 36 36"
   id="svg2"
   version="1.1"
   inkscape:version="0.91 r13725"
   sodipodi:docname="1f386.svg"
   width="36"
   height="36">
  <metadata
     id="metadata18">
    <rdf:RDF>
      <cc:Work
         rdf:about="">
        <dc:format>image/svg+xml</dc:format>
        <dc:type
           rdf:resource="http://purl.org/dc/dcmitype/StillImage" />
      </cc:Work>
    </rdf:RDF>
  </metadata>
  <defs
     id="defs16" />
  <sodipodi:namedview
     pagecolor="#ffffff"
     bordercolor="#666666"
     borderopacity="1"
     objecttolerance="10"
     gridtolerance="10"
     guidetolerance="10"
     inkscape:pageopacity="0"
     inkscape:pageshadow="2"
     inkscape:window-width="640"
     inkscape:window-height="480"
     id="namedview14"
     showgrid="false"
     inkscape:zoom="6.5555556"
     inkscape:cx="18"
     inkscape:cy="18"
     inkscape:window-x="0"
     inkscape:window-y="0"
     inkscape:window-maximized="0"
     inkscape:current-layer="svg2" />
  <path
     d="m 36,32 c 0,2.209 -1.791,4 -4,4 L 4,36 C 1.791,36 0,34.209 0,32 L 0,4 C 0,1.791 1.791,0 4,0 l 28,0 c 2.209,0 4,1.791 4,4 l 0,28 z"
     id="path4"
     inkscape:connector-curvature="0"
     style="fill:#226699" />
  <path
     d="M 18,2.249 21.751,6 27,6 27,11.249 30.751,15 27,18.751 27,24 21.751,24 18,27.751 14.249,24 9,24 9,18.751 5.249,15 9,11.249 9,6 14.249,6 Z"
     id="path6"
     inkscape:connector-curvature="0"
     style="fill:#55acee" />
  <path
     d="m 15,15 z m 3,-10.406 2.234,5.069 4.852,-1.417 -1.418,4.851 6.486,2.235 -6.486,2.234 1.418,4.851 L 20.234,21 18,33.154 15.765,21 l -4.85,1.417 1.417,-4.851 -6.487,-2.234 6.487,-2.235 -1.417,-4.851 4.85,1.417 z"
     id="path8"
     inkscape:connector-curvature="0"
     style="fill:#ffd983" />
  <circle
     cx="18"
     cy="15"
     r="3"
     id="circle10"
     style="fill:#f5f8fa" />
  <path
     d="M 9.999,13 C 9.809,13 9.616,12.946 9.445,12.832 l -6,-4 C 2.986,8.526 2.862,7.905 3.168,7.445 3.474,6.985 4.095,6.861 4.555,7.168 l 6,4 c 0.46,0.306 0.583,0.927 0.277,1.387 C 10.639,12.844 10.322,13 9.999,13 Z m 16.002,0 c -0.323,0 -0.641,-0.156 -0.833,-0.445 -0.307,-0.46 -0.183,-1.081 0.277,-1.387 l 6,-4 c 0.46,-0.307 1.081,-0.183 1.387,0.277 0.307,0.459 0.183,1.081 -0.277,1.387 l -6,4 C 26.384,12.946 26.191,13 26.001,13 Z m -22,11 C 3.678,24 3.361,23.844 3.168,23.555 2.862,23.095 2.986,22.475 3.445,22.168 l 6,-4 c 0.459,-0.308 1.08,-0.183 1.387,0.277 0.306,0.46 0.182,1.08 -0.277,1.387 l -6,4 C 4.384,23.945 4.191,24 4.001,24 Z m 28.998,0 c -0.168,0 -0.339,-0.042 -0.495,-0.132 l -7,-4 c -0.479,-0.274 -0.646,-0.885 -0.372,-1.364 0.274,-0.479 0.884,-0.647 1.364,-0.372 l 7,4 c 0.479,0.274 0.646,0.885 0.372,1.364 C 33.684,23.819 33.347,24 32.999,24 Z M 10,34 C 9.864,34 9.727,33.973 9.594,33.914 9.09,33.689 8.862,33.098 9.087,32.594 l 4,-9 c 0.224,-0.504 0.814,-0.733 1.32,-0.508 0.504,0.225 0.732,0.816 0.507,1.32 l -4,9 C 10.748,33.778 10.382,34 10,34 Z m 16.001,0 c -0.384,0 -0.749,-0.221 -0.915,-0.594 l -4,-9 c -0.224,-0.505 0.003,-1.096 0.508,-1.32 0.506,-0.224 1.096,0.004 1.32,0.508 l 4,9 c 0.224,0.505 -0.003,1.096 -0.508,1.32 C 26.274,33.973 26.137,34 26.001,34 Z m -11,-26 C 14.634,8 14.281,7.798 14.105,7.447 l -2,-4 C 11.858,2.953 12.058,2.352 12.552,2.105 13.047,1.858 13.647,2.059 13.894,2.552 l 2,4 C 16.141,7.046 15.941,7.647 15.447,7.894 15.304,7.966 15.151,8 15.001,8 Z m 5.998,0 C 20.849,8 20.696,7.966 20.553,7.895 20.059,7.648 19.859,7.047 20.106,6.553 l 2,-4 c 0.248,-0.495 0.847,-0.695 1.342,-0.447 0.494,0.247 0.694,0.848 0.447,1.342 l -2,4 C 21.719,7.798 21.366,8 20.999,8 Z"
     id="path12"
     inkscape:connector-curvature="0"
     style="fill:#ffcc4d" />
</svg>
