<?xml version="1.0" encoding="UTF-8" standalone="no"?>
<svg
   xmlns:dc="http://purl.org/dc/elements/1.1/"
   xmlns:cc="http://creativecommons.org/ns#"
   xmlns:rdf="http://www.w3.org/1999/02/22-rdf-syntax-ns#"
   xmlns:svg="http://www.w3.org/2000/svg"
   xmlns="http://www.w3.org/2000/svg"
   xmlns:sodipodi="http://sodipodi.sourceforge.net/DTD/sodipodi-0.dtd"
   xmlns:inkscape="http://www.inkscape.org/namespaces/inkscape"
   viewBox="0 0 34 34.562"
   id="svg2"
   version="1.1"
   inkscape:version="0.91 r13725"
   sodipodi:docname="1f38e.svg"
   width="34"
   height="34.562">
  <metadata
     id="metadata50">
    <rdf:RDF>
      <cc:Work
         rdf:about="">
        <dc:format>image/svg+xml</dc:format>
        <dc:type
           rdf:resource="http://purl.org/dc/dcmitype/StillImage" />
      </cc:Work>
    </rdf:RDF>
  </metadata>
  <defs
     id="defs48" />
  <sodipodi:namedview
     pagecolor="#ffffff"
     bordercolor="#666666"
     borderopacity="1"
     objecttolerance="10"
     gridtolerance="10"
     guidetolerance="10"
     inkscape:pageopacity="0"
     inkscape:pageshadow="2"
     inkscape:window-width="640"
     inkscape:window-height="480"
     id="namedview46"
     showgrid="false"
     inkscape:zoom="6.5555556"
     inkscape:cx="17"
     inkscape:cy="17"
     inkscape:window-x="0"
     inkscape:window-y="0"
     inkscape:window-maximized="0"
     inkscape:current-layer="svg2" />
  <path
     d="m 30,18.562 -8,0 c -1.65,0 -4,3.583 -4,7 l 0,6 c 0,1.65 1.35,3 3,3 l 10,0 c 1.65,0 3,-1.35 3,-3 l 0,-6 c 0,-3.417 -2.35,-7 -4,-7 z"
     id="path4"
     inkscape:connector-curvature="0"
     style="fill:#f26522" />
  <path
     d="M 33.816,32.558 C 29.211,32.511 27,30.751 27,28.562 l 0,-4 c 3.2,-1 3,-3 3,-5 l -8,0 c 0,2 -0.2,4 3,5 l 0,4 c 0,2.189 -2.211,3.949 -6.816,3.996 0.414,1.162 1.516,2.004 2.816,2.004 l 10,0 c 1.3,0 2.402,-0.842 2.816,-2.004 z"
     id="path6"
     inkscape:connector-curvature="0"
     style="fill:#d14a15" />
  <circle
     cx="21"
     cy="29.562"
     r="1"
     id="circle8"
     style="fill:#ffb699" />
  <circle
     cx="31"
     cy="29.562"
     r="1"
     id="circle10"
     style="fill:#ffb699" />
  <path
     d="m 26,21.562 c -4.527,0 -6,3 -6,3 l 6,4 6,-4 c 0,0 -1.473,-3 -6,-3 z"
     id="path12"
     inkscape:connector-curvature="0"
     style="fill:#ffcc4d" />
  <path
     d="m 34,11.562 0,6 c 0,3 -5.707,0 -7.5,0 -1.976,0 -8.5,3 -8.5,0 l 0,-6 c 0,-4.418 3.582,-8 8,-8 4.418,0 8,3.582 8,8 z"
     id="path14"
     inkscape:connector-curvature="0"
     style="fill:#292f33" />
  <path
     d="m 32,13.562 c 0,3 -0.406,7 -6,7 -5.594,0 -6,-3 -6,-7 3.031,0 6,-2 6,-2 0,0 3.031,2 6,2 z"
     id="path16"
     inkscape:connector-curvature="0"
     style="fill:#f5f8fa" />
  <path
     d="m 30.603,15.923 c -0.906,-0.146 -2.457,-0.47 -3.318,0.318 -0.357,0.261 -0.098,1.003 0.572,0.685 0.669,-0.318 2.184,-0.403 2.789,-0.438 0.607,-0.033 0.617,-0.459 -0.043,-0.565 z m -9.167,0 c 0.906,-0.146 2.457,-0.47 3.318,0.318 0.357,0.261 0.098,1.003 -0.572,0.685 -0.669,-0.318 -2.184,-0.403 -2.789,-0.438 -0.606,-0.033 -0.616,-0.459 0.043,-0.565 z"
     id="path18"
     inkscape:connector-curvature="0"
     style="fill:#292f33" />
  <ellipse
     cx="26.02"
     cy="18.859001"
     rx="1.5"
     ry="0.53100002"
     id="ellipse20"
     style="fill:#a0041e" />
  <path
     d="m 31.02,5.821 c 0,-1.247 -2.239,-2.259 -5,-2.259 -2.761,0 -5,1.011 -5,2.259 0,0.61 2.88,1.164 5,1.57 2.119,-0.407 5,-0.96 5,-1.57 z"
     id="path22"
     inkscape:connector-curvature="0"
     style="fill:#f26522" />
  <path
     d="M 22.549,2.697 C 22.553,2.652 22.562,2.608 22.562,2.562 22.562,1.699 21.862,1 21,1 c -0.862,0 -1.562,0.699 -1.562,1.562 0,0.863 0.7,1.562 1.562,1.562 0.046,0 0.09,-0.01 0.135,-0.014 l 1.158,1.158 c 0.195,0.196 0.451,0.294 0.707,0.294 0.256,0 0.512,-0.098 0.707,-0.293 0.391,-0.391 0.391,-1.023 0,-1.414 L 22.549,2.697 Z M 26,0 c -0.863,0 -1.562,0.7 -1.562,1.562 0,0.48 0.221,0.905 0.562,1.191 l 0,1.809 c 0,0.552 0.447,1 1,1 0.553,0 1,-0.448 1,-1 L 27,2.753 C 27.341,2.467 27.562,2.042 27.562,1.562 27.562,0.699 26.863,0 26,0 Z m 5,1 c -0.863,0 -1.562,0.7 -1.562,1.562 0,0.046 0.01,0.09 0.014,0.135 l -1.158,1.158 c -0.391,0.391 -0.391,1.023 0,1.414 0.194,0.195 0.45,0.293 0.706,0.293 0.256,0 0.512,-0.098 0.707,-0.293 l 1.158,-1.158 c 0.045,0.004 0.089,0.013 0.135,0.013 0.863,0 1.562,-0.7 1.562,-1.562 C 32.562,1.7 31.863,1 31,1 Z"
     id="path24"
     inkscape:connector-curvature="0"
     style="fill:#d14a15" />
  <path
     d="m 12,18.562 -8,0 c -1.65,0 -4,3.583 -4,7 l 0,6 c 0,1.65 1.35,3 3,3 l 10,0 c 1.65,0 3,-1.35 3,-3 l 0,-6 c 0,-3.417 -2.35,-7 -4,-7 z"
     id="path26"
     inkscape:connector-curvature="0"
     style="fill:#27aae1" />
  <path
     d="M 15.816,32.558 C 11.211,32.511 9,30.751 9,28.562 l 0,-4 c 3.2,-1 3,-3 3,-5 l -8,0 c 0,2 -0.2,4 3,5 l 0,4 C 7,30.751 4.789,32.511 0.184,32.558 0.598,33.72 1.7,34.562 3,34.562 l 10,0 c 1.3,0 2.402,-0.842 2.816,-2.004 z"
     id="path28"
     inkscape:connector-curvature="0"
     style="fill:#005792" />
  <circle
     cx="3"
     cy="26.562"
     r="1"
     id="circle30"
     style="fill:#bbddf5" />
  <circle
     cx="13"
     cy="29.562"
     r="1"
     id="circle32"
     style="fill:#bbddf5" />
  <path
     d="M 9.182,21.441 8.001,21.438 6.82,21.441 c -0.484,0.001 -0.928,0.324 -0.85,0.98 l 1.152,10.143 c 0.098,0.513 0.395,0.811 0.879,0.81 0.484,10e-4 0.78,-0.297 0.879,-0.81 l 1.152,-10.143 c 0.077,-0.656 -0.366,-0.979 -0.85,-0.98 z"
     id="path34"
     inkscape:connector-curvature="0"
     style="fill:#ffcc4d" />
  <path
     d="m 16,12.562 0,3 c 0,3 -6.207,3 -8,3 -1.976,0 -8,0 -8,-3 l 0,-3 c 0,-4.418 3.582,-6 8,-6 4.418,0 8,1.582 8,6 z"
     id="path36"
     inkscape:connector-curvature="0"
     style="fill:#292f33" />
  <path
     d="m 2,12.654 0,0.908 c 0,4 0.406,7 6,7 5.594,0 6,-4 6,-7 l 0,-0.908 c -1.223,0.533 -3.449,0.891 -6,0.891 -2.551,0 -4.777,-0.358 -6,-0.891 z"
     id="path38"
     inkscape:connector-curvature="0"
     style="fill:#f5f8fa" />
  <path
     d="m 12.603,15.923 c -0.906,-0.146 -2.457,-0.47 -3.318,0.318 -0.357,0.261 -0.098,1.003 0.572,0.685 0.669,-0.318 2.184,-0.403 2.789,-0.438 0.607,-0.033 0.617,-0.459 -0.043,-0.565 z m -9.167,0 c 0.906,-0.146 2.457,-0.47 3.318,0.318 0.357,0.261 0.098,1.003 -0.572,0.685 C 5.513,16.608 3.998,16.523 3.393,16.488 2.787,16.455 2.777,16.029 3.436,15.923 Z"
     id="path40"
     inkscape:connector-curvature="0"
     style="fill:#292f33" />
  <ellipse
     cx="8.0200005"
     cy="18.859001"
     rx="1.5"
     ry="0.53100002"
     id="ellipse42"
     style="fill:#a0041e" />
  <path
     d="m 11.125,7.436 c 0,3.46 -6.25,3.46 -6.25,0 0,-3.46 1.399,-6.874 3.125,-6.874 1.726,0 3.125,3.414 3.125,6.874 z"
     id="path44"
     inkscape:connector-curvature="0"
     style="fill:#26aae1" />
</svg>
