<?xml version="1.0" encoding="UTF-8" standalone="no"?>
<svg
   xmlns:dc="http://purl.org/dc/elements/1.1/"
   xmlns:cc="http://creativecommons.org/ns#"
   xmlns:rdf="http://www.w3.org/1999/02/22-rdf-syntax-ns#"
   xmlns:svg="http://www.w3.org/2000/svg"
   xmlns="http://www.w3.org/2000/svg"
   xmlns:sodipodi="http://sodipodi.sourceforge.net/DTD/sodipodi-0.dtd"
   xmlns:inkscape="http://www.inkscape.org/namespaces/inkscape"
   viewBox="0 0 34 24"
   id="svg2"
   version="1.1"
   inkscape:version="0.91 r13725"
   sodipodi:docname="1f39e.svg"
   width="34"
   height="24">
  <metadata
     id="metadata16">
    <rdf:RDF>
      <cc:Work
         rdf:about="">
        <dc:format>image/svg+xml</dc:format>
        <dc:type
           rdf:resource="http://purl.org/dc/dcmitype/StillImage" />
      </cc:Work>
    </rdf:RDF>
  </metadata>
  <defs
     id="defs14" />
  <sodipodi:namedview
     pagecolor="#ffffff"
     bordercolor="#666666"
     borderopacity="1"
     objecttolerance="10"
     gridtolerance="10"
     guidetolerance="10"
     inkscape:pageopacity="0"
     inkscape:pageshadow="2"
     inkscape:window-width="640"
     inkscape:window-height="480"
     id="namedview12"
     showgrid="false"
     inkscape:zoom="6.5555556"
     inkscape:cx="17"
     inkscape:cy="12"
     inkscape:window-x="0"
     inkscape:window-y="0"
     inkscape:window-maximized="0"
     inkscape:current-layer="svg2" />
  <path
     d="m 28,5 6,0 0,14 -6,0 z M 0,5 6,5 6,19 0,19 Z m 8,0 18,0 0,14 -18,0 z"
     id="path4"
     inkscape:connector-curvature="0"
     style="fill:#bbddf5" />
  <path
     d="m 34,5 0,-5 -34,0 0,5 6,0 0,14 -6,0 0,5 34,0 0,-5 -6,0 0,-14 6,0 z M 26,19 8,19 8,5 26,5 26,19 Z"
     id="path6"
     inkscape:connector-curvature="0"
     style="fill:#231f20" />
  <path
     d="m 30,1 2,0 0,3 -2,0 z m -4,0 2,0 0,3 -2,0 z m -4,0 2,0 0,3 -2,0 z m -4,0 2,0 0,3 -2,0 z m -4,0 2,0 0,3 -2,0 z m -4,0 2,0 0,3 -2,0 z M 6,1 8,1 8,4 6,4 Z M 2,1 4,1 4,4 2,4 Z m 28,19 2,0 0,3 -2,0 z m -4,0 2,0 0,3 -2,0 z m -4,0 2,0 0,3 -2,0 z m -4,0 2,0 0,3 -2,0 z m -4,0 2,0 0,3 -2,0 z m -4,0 2,0 0,3 -2,0 z m -4,0 2,0 0,3 -2,0 z m -4,0 2,0 0,3 -2,0 z"
     id="path8"
     inkscape:connector-curvature="0"
     style="fill:#f5f8fa" />
  <path
     d="m 28,19 0,-14 1,0 0,14 z M 8,19 8,5 9,5 9,19 Z"
     id="path10"
     inkscape:connector-curvature="0"
     style="fill:#88c9f9" />
</svg>
