<?xml version="1.0" encoding="UTF-8" standalone="no"?>
<svg
   xmlns:dc="http://purl.org/dc/elements/1.1/"
   xmlns:cc="http://creativecommons.org/ns#"
   xmlns:rdf="http://www.w3.org/1999/02/22-rdf-syntax-ns#"
   xmlns:svg="http://www.w3.org/2000/svg"
   xmlns="http://www.w3.org/2000/svg"
   xmlns:sodipodi="http://sodipodi.sourceforge.net/DTD/sodipodi-0.dtd"
   xmlns:inkscape="http://www.inkscape.org/namespaces/inkscape"
   viewBox="0 0 26 36"
   id="svg2"
   version="1.1"
   inkscape:version="0.91 r13725"
   sodipodi:docname="1f399.svg"
   width="26"
   height="36">
  <metadata
     id="metadata44">
    <rdf:RDF>
      <cc:Work
         rdf:about="">
        <dc:format>image/svg+xml</dc:format>
        <dc:type
           rdf:resource="http://purl.org/dc/dcmitype/StillImage" />
      </cc:Work>
    </rdf:RDF>
  </metadata>
  <defs
     id="defs42" />
  <sodipodi:namedview
     pagecolor="#ffffff"
     bordercolor="#666666"
     borderopacity="1"
     objecttolerance="10"
     gridtolerance="10"
     guidetolerance="10"
     inkscape:pageopacity="0"
     inkscape:pageshadow="2"
     inkscape:window-width="640"
     inkscape:window-height="480"
     id="namedview40"
     showgrid="false"
     inkscape:zoom="6.5555556"
     inkscape:cx="13"
     inkscape:cy="18"
     inkscape:window-x="0"
     inkscape:window-y="0"
     inkscape:window-maximized="0"
     inkscape:current-layer="svg2" />
  <path
     d="m 1,15 24,0 0,2 -24,0 z m 15,15 c 0,2.208 -0.792,4 -3,4 -2.209,0 -3,-1.792 -3,-4 0,-2.208 0.791,-2 3,-2 2.208,0 3,-0.208 3,2 z"
     id="path4"
     inkscape:connector-curvature="0"
     style="fill:#292f33" />
  <path
     d="M 13,31 C 6.373,31 3,32.343 3,34 l 0,2 20,0 0,-2 c 0,-1.657 -3.373,-3 -10,-3 z"
     id="path6"
     inkscape:connector-curvature="0"
     style="fill:#66757f" />
  <path
     d="M 13,0 C 8.029,0 4,4.029 4,9 l 0,7 18,0 0,-7 C 22,4.029 17.971,0 13,0 Z"
     id="path8"
     inkscape:connector-curvature="0"
     style="fill:#99aab5" />
  <g
     id="g10"
     style="fill:#292f33"
     transform="translate(-5,0)">
    <circle
       cx="15.5"
       cy="2.5"
       r="1.5"
       id="circle12" />
    <circle
       cx="20.5"
       cy="2.5"
       r="1.5"
       id="circle14" />
    <circle
       cx="17.5"
       cy="6.5"
       r="1.5"
       id="circle16" />
    <circle
       cx="22.5"
       cy="6.5"
       r="1.5"
       id="circle18" />
    <circle
       cx="12.5"
       cy="6.5"
       r="1.5"
       id="circle20" />
    <circle
       cx="15.5"
       cy="10.5"
       r="1.5"
       id="circle22" />
    <circle
       cx="10.5"
       cy="10.5"
       r="1.5"
       id="circle24" />
    <circle
       cx="20.5"
       cy="10.5"
       r="1.5"
       id="circle26" />
    <circle
       cx="25.5"
       cy="10.5"
       r="1.5"
       id="circle28" />
    <circle
       cx="17.5"
       cy="14.5"
       r="1.5"
       id="circle30" />
    <circle
       cx="22.5"
       cy="14.5"
       r="1.5"
       id="circle32" />
    <circle
       cx="12.5"
       cy="14.5"
       r="1.5"
       id="circle34" />
  </g>
  <path
     d="M 4,15.062 4,17 c 0,4.971 4.029,9 9,9 4.971,0 9,-4.029 9,-9 l 0,-1.938 -18,0 z"
     id="path36"
     inkscape:connector-curvature="0"
     style="fill:#66757f" />
  <path
     d="m 25,14 c -0.553,0 -1,0.448 -1,1 l 0,2 C 24,23.074 19.075,28 13,28 6.925,28 2,23.074 2,17 L 2,15 C 2,14.448 1.552,14 1,14 0.448,14 0,14.448 0,15 l 0,2 c 0,7.18 5.82,13 13,13 7.18,0 13,-5.82 13,-13 l 0,-2 c 0,-0.552 -0.447,-1 -1,-1 z"
     id="path38"
     inkscape:connector-curvature="0"
     style="fill:#66757f" />
</svg>
