<?xml version="1.0" encoding="UTF-8" standalone="no"?>
<svg
   xmlns:dc="http://purl.org/dc/elements/1.1/"
   xmlns:cc="http://creativecommons.org/ns#"
   xmlns:rdf="http://www.w3.org/1999/02/22-rdf-syntax-ns#"
   xmlns:svg="http://www.w3.org/2000/svg"
   xmlns="http://www.w3.org/2000/svg"
   xmlns:sodipodi="http://sodipodi.sourceforge.net/DTD/sodipodi-0.dtd"
   xmlns:inkscape="http://www.inkscape.org/namespaces/inkscape"
   viewBox="0 0 36 36"
   id="svg2"
   version="1.1"
   inkscape:version="0.91 r13725"
   sodipodi:docname="1f391.svg"
   width="36"
   height="36">
  <metadata
     id="metadata20">
    <rdf:RDF>
      <cc:Work
         rdf:about="">
        <dc:format>image/svg+xml</dc:format>
        <dc:type
           rdf:resource="http://purl.org/dc/dcmitype/StillImage" />
      </cc:Work>
    </rdf:RDF>
  </metadata>
  <defs
     id="defs18" />
  <sodipodi:namedview
     pagecolor="#ffffff"
     bordercolor="#666666"
     borderopacity="1"
     objecttolerance="10"
     gridtolerance="10"
     guidetolerance="10"
     inkscape:pageopacity="0"
     inkscape:pageshadow="2"
     inkscape:window-width="640"
     inkscape:window-height="480"
     id="namedview16"
     showgrid="false"
     inkscape:zoom="6.5555556"
     inkscape:cx="18"
     inkscape:cy="18"
     inkscape:window-x="0"
     inkscape:window-y="0"
     inkscape:window-maximized="0"
     inkscape:current-layer="svg2" />
  <path
     d="m 36,32 c 0,2.209 -1.791,4 -4,4 L 4,36 C 1.791,36 0,34.209 0,32 L 0,4 C 0,1.791 1.791,0 4,0 l 28,0 c 2.209,0 4,1.791 4,4 l 0,28 z"
     id="path4"
     inkscape:connector-curvature="0"
     style="fill:#226699" />
  <path
     d="m 14.388,2.62 c -1.852,0 -4.235,1.849 -6.22,4.826 -2.322,3.483 -1.069,5.989 -0.062,8.002 0.023,0.045 0.054,0.083 0.083,0.123 C 11,13 15,8 16.591,4.023 16.097,3.027 15.227,2.62 14.388,2.62 Z m 4.574,12.2 c -0.109,-1.382 -0.535,-3.206 -2.195,-3.206 -1.21,0 -2.576,1.132 -4.566,3.785 -2.059,2.745 -2.424,5.164 -1.2,7.8 C 15,21 18,17 18.962,14.82 Z"
     id="path6"
     inkscape:connector-curvature="0"
     style="fill:#ffcc4d" />
  <path
     d="m 22.874,13.517 c -0.268,-0.482 -0.877,-0.654 -1.359,-0.385 -0.861,0.479 -1.714,1.051 -2.553,1.689 C 16.053,17.032 13.32,20.085 11,23.2 8.416,26.669 6.346,30.211 5.148,32.741 5.986,22.546 10.717,12.697 18.707,4.707 c 0.391,-0.391 0.391,-1.023 0,-1.414 -0.391,-0.391 -1.023,-0.391 -1.414,0 -0.24,0.24 -0.468,0.487 -0.702,0.73 -3.421,3.55 -6.238,7.438 -8.402,11.548 -2.607,4.95 -4.276,10.217 -4.9,15.603 C 2.615,25.477 2.311,17.264 4.915,11.407 5.14,10.902 4.912,10.311 4.408,10.087 3.9,9.86 3.311,10.089 3.086,10.594 1.76,13.577 1.141,17.095 0.924,20.603 0.638,19.991 0.331,19.405 0,18.881 l 0,4.343 c 0.035,0.073 0.073,0.158 0.105,0.223 0.148,0.296 0.425,0.478 0.728,0.53 0.023,4.55 0.59,8.758 1.043,11.401 C 2.493,35.767 3.218,36 4,36 l 2.003,0 c 0.08,-1.071 2.509,-6.019 6.14,-11.024 0.103,-0.015 0.206,-0.033 0.304,-0.082 0.244,-0.122 0.516,-0.272 0.807,-0.433 0.934,-0.517 2.498,-1.383 3.107,-1.02 C 16.511,23.53 17,23.977 17,26 c 0,0.553 0.448,1 1,1 0.552,0 1,-0.447 1,-1 0,-2.236 -0.531,-3.636 -1.623,-4.28 -0.781,-0.46 -1.666,-0.423 -2.54,-0.172 2.321,-2.715 4.939,-5.166 7.648,-6.672 0.484,-0.269 0.658,-0.876 0.389,-1.359 z"
     id="path8"
     inkscape:connector-curvature="0"
     style="fill:#77b255" />
  <circle
     cx="28.5"
     cy="7.5"
     r="5.5"
     id="circle10"
     style="fill:#ffd983" />
  <path
     d="m 29.5,28 -0.012,0.001 C 29.805,27.582 30,27.066 30,26.5 30,25.119 28.881,24 27.5,24 l -0.012,0.001 C 27.805,23.582 28,23.066 28,22.5 28,21.119 26.881,20 25.5,20 24.119,20 23,21.119 23,22.5 c 0,0.566 0.195,1.082 0.512,1.501 L 23.5,24 c -1.381,0 -2.5,1.119 -2.5,2.5 0,0.566 0.195,1.082 0.512,1.501 L 21.5,28 c -1.381,0 -2.5,1.119 -2.5,2.5 0,0.565 0.195,1.081 0.511,1.5 l 3.976,0 0.013,-0.013 0.013,0.013 3.975,0 0.013,-0.013 0.013,0.013 3.976,0 C 31.805,31.581 32,31.065 32,30.5 32,29.119 30.881,28 29.5,28 Z m -6,1.013 -0.012,-0.015 0.012,10e-4 0.012,-10e-4 -0.012,0.015 z M 25.5,28 25.488,28.001 25.5,27.986 25.512,28.001 25.5,28 Z m 0,-2.987 -0.012,-0.015 0.012,10e-4 0.012,-10e-4 -0.012,0.015 z m 2,4 -0.012,-0.015 0.012,10e-4 0.012,-10e-4 -0.012,0.015 z"
     id="path12"
     inkscape:connector-curvature="0"
     style="fill:#e1e8ed" />
  <path
     d="m 18,32 0,4 14,0 c 0.347,0 0.679,-0.058 1,-0.141 L 33,32 18,32 Z"
     id="path14"
     inkscape:connector-curvature="0"
     style="fill:#c1694f" />
</svg>
