<?xml version="1.0" encoding="UTF-8" standalone="no"?>
<svg
   xmlns:dc="http://purl.org/dc/elements/1.1/"
   xmlns:cc="http://creativecommons.org/ns#"
   xmlns:rdf="http://www.w3.org/1999/02/22-rdf-syntax-ns#"
   xmlns:svg="http://www.w3.org/2000/svg"
   xmlns="http://www.w3.org/2000/svg"
   xmlns:sodipodi="http://sodipodi.sourceforge.net/DTD/sodipodi-0.dtd"
   xmlns:inkscape="http://www.inkscape.org/namespaces/inkscape"
   viewBox="0 0 35.821793 35.688"
   id="svg2"
   version="1.1"
   inkscape:version="0.91 r13725"
   sodipodi:docname="1f3a0.svg"
   width="35.821793"
   height="35.688">
  <metadata
     id="metadata34">
    <rdf:RDF>
      <cc:Work
         rdf:about="">
        <dc:format>image/svg+xml</dc:format>
        <dc:type
           rdf:resource="http://purl.org/dc/dcmitype/StillImage" />
      </cc:Work>
    </rdf:RDF>
  </metadata>
  <defs
     id="defs32" />
  <sodipodi:namedview
     pagecolor="#ffffff"
     bordercolor="#666666"
     borderopacity="1"
     objecttolerance="10"
     gridtolerance="10"
     guidetolerance="10"
     inkscape:pageopacity="0"
     inkscape:pageshadow="2"
     inkscape:window-width="640"
     inkscape:window-height="480"
     id="namedview30"
     showgrid="false"
     inkscape:zoom="6.5555556"
     inkscape:cx="17.944043"
     inkscape:cy="17.938"
     inkscape:window-x="0"
     inkscape:window-y="0"
     inkscape:window-maximized="0"
     inkscape:current-layer="svg2" />
  <path
     d="m 24.301043,16.087 c 0,0 2.248,-3.959 4.805,-4.169 2.557,-0.21 3.929,0.934 4.144,3.432 0.287,3.334 -0.878,3.802 -0.033,7.53 0,0 -3.546,-2.414 -2.421,-6.07 1.172,-3.806 -4.81,-3.095 -3.835,0.316 l -2.66,-1.039 z"
     id="path4"
     inkscape:connector-curvature="0"
     style="fill:#dd2e44" />
  <path
     d="m 14.254043,20.125 c -0.553,0 -1,0.448 -1,1 l 0,13.563 c 0,0.552 0.447,1 1,1 0.553,0 1,-0.448 1,-1 l 0,-13.563 c 0,-0.552 -0.448,-1 -1,-1 z"
     id="path6"
     inkscape:connector-curvature="0"
     style="fill:#ffcc4d" />
  <path
     d="m 15.254043,25.52 -2,1.047 0,2.257 2,-1.047 z m -2,8.054 2,-1.047 0,-2.257 -2,1.047 z"
     id="path8"
     inkscape:connector-curvature="0"
     style="fill:#f4900c" />
  <path
     d="m 3.8560431,21.685 c -1.181,-0.117 -1.918,1.621 -1.918,1.621 0.114,0.814 0.447,2.255 0.597,2.778 0.327,1.141 2.121,3.095 3.262,2.768 1.141,-0.327 0.814,-1.468 0.487,-2.608 -0.327,-1.141 -2.428,0.622 -1.794,-1.955 0.149,-0.606 0.865,-0.756 1.483,-0.695 2.362,0.234 2.881,-0.223 3.788,-1.325 1.0639999,-1.296 -4.724,-0.467 -5.905,-0.584 z m 25.1419999,6.7 c 0,2.373 1.187,3.56 3.56,3.56 2.373,0 1.187,0 0,-2.373 -1.187,-2.373 -3.56,-3.56 -3.56,-3.56 l 0,2.373 z"
     id="path10"
     inkscape:connector-curvature="0"
     style="fill:#8899a6" />
  <path
     d="m 34.931043,30.758 c -1.187,-1.187 -2.373,0 -2.373,-2.373 0,-2.373 -1.187,-3.56 -2.373,-3.56 -1.186,0 -1.187,-4.746 -1.187,-5.933 0,-1.187 -2.373,-5.933 -5.933,-5.933 -3.56,0 -5.933,1.187 -8.306,1.187 -2.373,0 -3.56,0 -4.746,-4.746 C 9.1030431,5.76 5.2670431,4.654 1.7070431,5.84 c 0,0 -2.58200003,-0.995 -1.39500003,0.192 1.18700003,1.187 -0.18,0.995 -0.18,3.368 0,0.275 0.066,0.515 0.174,0.73 -0.008,1.109 -0.019,3.141 0.007,3.62 0.036,0.667 0.294,0.883 1.13100003,1.208 1.125,0.438 1.782,-0.319 1.854,-0.708 0.146,-0.792 0.021,-1.656 0.021,-1.656 0,0 1.167,-0.469 1.896,-1.135 0.098,0.081 0.625,1.146 0.052,2.688 -0.413,1.112 -1.187,2.373 1.187,5.933 0,0 -3.56,0 -4.746,1.187 -1.18700003,1.187 -1.47600003,3.56 -1.45200003,4.746 0.033,1.648 1.45200003,3.56 2.63900003,3.56 1.187,0 1.187,-1.187 1.187,-2.373 0,-1.187 -2.373,0 -1.187,-2.373 1.187,-2.373 1.187,-1.187 2.373,-1.187 1.187,0 3.56,-1.187 4.7459999,-1.187 1.186,0 3.56,1.187 5.933,1.187 2.373,0 4.746,-2.373 7.119,0 2.373,2.373 5.933,2.373 7.119,3.56 1.187,1.187 1.187,2.373 1.187,3.56 0,1.187 2.373,2.373 3.56,2.373 1.187,0 1.186,-1.188 -10e-4,-2.375 z"
     id="path12"
     inkscape:connector-curvature="0"
     style="fill:#ccd6dd" />
  <path
     d="m 10.656043,11.511 c 1.006,2.629 2.154,2.635 4.103,2.635 2,0 4.008,-0.835 6.718,-1.101 0.143,0.36 0.276,0.728 0.401,1.101 1.187,3.56 0,5.933 -5.933,5.933 -3.277,0 -5.933,-2.656 -5.933,-5.933 10e-4,-0.951 0.246,-1.838 0.644,-2.635 z"
     id="path14"
     inkscape:connector-curvature="0"
     style="fill:#3b94d9" />
  <path
     d="m 5.5730431,19.455 c 0.225,0.026 0.459,-0.013 0.674,-0.124 0.17,-0.087 4.1869999,-2.185 5.9189999,-5.914 0.276,-0.594 -1.171,-1.719 -1.446,-1.629 -0.301,0.099 -0.56,0.318 -0.704,0.628 -1.3849999,2.98 -4.8209999,4.786 -4.8539999,4.804 -0.581,0.301 -0.81,1.017 -0.509,1.598 0.187,0.367 0.539,0.594 0.92,0.637 z"
     id="path16"
     inkscape:connector-curvature="0"
     style="fill:#f4900c" />
  <ellipse
     cx="14.254044"
     cy="14.995"
     rx="1.455"
     ry="1.163"
     id="ellipse18"
     style="fill:#1c6399" />
  <path
     d="m 14.254043,0 c -0.553,0 -1,0.448 -1,1 l 0,13.573 0.005,-0.001 -0.003,0.001 c 0.006,0.547 0.449,0.989 0.998,0.989 0.553,0 1,-0.448 1,-1 l 0,-13.562 c 0,-0.552 -0.448,-1 -1,-1 z"
     id="path20"
     inkscape:connector-curvature="0"
     style="fill:#ffcc4d" />
  <path
     d="m 15.254043,1.77 -2,1.047 0,2.257 2,-1.047 z m 0,4.75 -2,1.047 0,2.257 2,-1.047 z m -2,8.043 0.01,0.006 1.99,-1.041 0,-2.258 -2,1.047 0,2.246 z"
     id="path22"
     inkscape:connector-curvature="0"
     style="fill:#f4900c" />
  <path
     d="m 3.2180431,13.005 c -0.091,0 -0.182,-0.025 -0.262,-0.074 -1.136,-0.698 -2.34100003,-0.72 -2.35300003,-0.72 -0.276,-0.003 -0.498,-0.229 -0.496,-0.504 0.002,-0.275 0.225,-0.496 0.5,-0.496 0.057,0.011 1.12900003,0.003 2.35000003,0.584 0.287,-0.838 0.765,-2.666 0.466,-4.922 -0.036,-0.274 0.156,-0.525 0.43,-0.562 0.276,-0.033 0.525,0.156 0.562,0.43 0.452,3.409 -0.695,5.875 -0.744,5.978 -0.061,0.128 -0.173,0.225 -0.31,0.265 -0.047,0.014 -0.095,0.021 -0.143,0.021 z"
     id="path24"
     inkscape:connector-curvature="0"
     style="fill:#1c6399" />
  <ellipse
     transform="matrix(0.55262084,-0.83343279,0.83343279,0.55262084,0,0)"
     cx="-6.1887555"
     cy="6.2518854"
     rx="0.55500001"
     ry="0.42399999"
     id="ellipse26"
     style="fill:#292f33" />
  <path
     d="m 12.386043,12.96 c -2.373,-2.373 -1.006,-5.256 -3.3789999,-7.629 -1.876,-1.876 -4.927,-1.863 -7.3,0.51 0,0 1.121,1.086 4.081,1.378 1.43,0.141 2.649,1.693 3.337,2.782 2.2099999,4.311 5.0559999,4.754 3.2609999,2.959 z"
     id="path28"
     inkscape:connector-curvature="0"
     style="fill:#dd2e44" />
</svg>
