<?xml version="1.0" encoding="UTF-8" standalone="no"?>
<svg
   xmlns:dc="http://purl.org/dc/elements/1.1/"
   xmlns:cc="http://creativecommons.org/ns#"
   xmlns:rdf="http://www.w3.org/1999/02/22-rdf-syntax-ns#"
   xmlns:svg="http://www.w3.org/2000/svg"
   xmlns="http://www.w3.org/2000/svg"
   xmlns:sodipodi="http://sodipodi.sourceforge.net/DTD/sodipodi-0.dtd"
   xmlns:inkscape="http://www.inkscape.org/namespaces/inkscape"
   viewBox="0 0 35.999001 35.103001"
   id="svg2"
   version="1.1"
   inkscape:version="0.91 r13725"
   sodipodi:docname="1f3a4.svg"
   width="35.999001"
   height="35.103001">
  <metadata
     id="metadata14">
    <rdf:RDF>
      <cc:Work
         rdf:about="">
        <dc:format>image/svg+xml</dc:format>
        <dc:type
           rdf:resource="http://purl.org/dc/dcmitype/StillImage" />
      </cc:Work>
    </rdf:RDF>
  </metadata>
  <defs
     id="defs12" />
  <sodipodi:namedview
     pagecolor="#ffffff"
     bordercolor="#666666"
     borderopacity="1"
     objecttolerance="10"
     gridtolerance="10"
     guidetolerance="10"
     inkscape:pageopacity="0"
     inkscape:pageshadow="2"
     inkscape:window-width="640"
     inkscape:window-height="480"
     id="namedview10"
     showgrid="false"
     inkscape:zoom="6.5555556"
     inkscape:cx="18"
     inkscape:cy="18.103"
     inkscape:window-x="0"
     inkscape:window-y="0"
     inkscape:window-maximized="0"
     inkscape:current-layer="svg2" />
  <path
     d="m 35.999,10.917 c 0,3.803 -3.082,6.885 -6.885,6.885 -3.802,0 -6.884,-3.082 -6.884,-6.885 0,-3.802 3.082,-6.884 6.884,-6.884 3.803,0 6.885,3.082 6.885,6.884 z"
     id="path4"
     inkscape:connector-curvature="0"
     style="fill:#8899a6" />
  <path
     d="m 32.81,17.568 c -0.336,0.336 -0.881,0.336 -1.217,0 L 22.466,8.44 c -0.336,-0.336 -0.336,-0.881 0,-1.217 l 1.217,-1.217 c 0.336,-0.336 0.881,-0.336 1.217,0 l 9.127,9.128 c 0.336,0.336 0.336,0.881 0,1.217 l -1.217,1.217 z m -6.071,0.136 -4.325,-4.327 c -0.778,-0.779 -1.995,-0.733 -2.719,0.101 l -9.158,10.574 c -1.219,1.408 -1.461,3.354 -0.711,4.73 l -4.911,4.912 1.409,1.409 4.877,-4.877 c 1.381,0.84 3.411,0.609 4.862,-0.648 l 10.575,-9.157 c 0.834,-0.723 0.881,-1.94 0.101,-2.717 z"
     id="path6"
     inkscape:connector-curvature="0"
     style="fill:#31373d" />
  <path
     d="m 4,5 0,8.122 C 3.686,13.047 3.352,13 3,13 c -1.657,0 -3,0.896 -3,2 0,1.104 1.343,2 3,2 1.657,0 3,-0.896 3,-2 l 0,-6.111 5,2.222 0,5.011 C 10.686,16.047 10.352,16 10,16 c -1.657,0 -3,0.896 -3,2 0,1.104 1.343,2 3,2 1.657,0 2.999,-0.896 3,-2 L 13,9 4,5 Z M 18,0 18,8.123 C 17.685,8.048 17.353,8 17,8 c -1.657,0 -3,0.895 -3,2 0,1.104 1.343,2 3,2 1.656,0 3,-0.896 3,-2 L 20,0 18,0 Z"
     id="path8"
     inkscape:connector-curvature="0"
     style="fill:#55acee" />
</svg>
