<?xml version="1.0" encoding="UTF-8" standalone="no"?>
<svg
   xmlns:dc="http://purl.org/dc/elements/1.1/"
   xmlns:cc="http://creativecommons.org/ns#"
   xmlns:rdf="http://www.w3.org/1999/02/22-rdf-syntax-ns#"
   xmlns:svg="http://www.w3.org/2000/svg"
   xmlns="http://www.w3.org/2000/svg"
   xmlns:sodipodi="http://sodipodi.sourceforge.net/DTD/sodipodi-0.dtd"
   xmlns:inkscape="http://www.inkscape.org/namespaces/inkscape"
   viewBox="0 0 36 30.857"
   id="svg2"
   version="1.1"
   inkscape:version="0.91 r13725"
   sodipodi:docname="1f3a8.svg"
   width="36"
   height="30.857">
  <metadata
     id="metadata18">
    <rdf:RDF>
      <cc:Work
         rdf:about="">
        <dc:format>image/svg+xml</dc:format>
        <dc:type
           rdf:resource="http://purl.org/dc/dcmitype/StillImage" />
      </cc:Work>
    </rdf:RDF>
  </metadata>
  <defs
     id="defs16" />
  <sodipodi:namedview
     pagecolor="#ffffff"
     bordercolor="#666666"
     borderopacity="1"
     objecttolerance="10"
     gridtolerance="10"
     guidetolerance="10"
     inkscape:pageopacity="0"
     inkscape:pageshadow="2"
     inkscape:window-width="640"
     inkscape:window-height="480"
     id="namedview14"
     showgrid="false"
     inkscape:zoom="6.5555556"
     inkscape:cx="18"
     inkscape:cy="16"
     inkscape:window-x="0"
     inkscape:window-y="0"
     inkscape:window-maximized="0"
     inkscape:current-layer="svg2" />
  <path
     d="M 18,0 C 8.059,0 0,6.908 0,15.428 c 0,1.066 0.126,2.107 0.367,3.112 1.779,3.061 3.01,1.129 8.633,-1.683 5.727,-2.864 0,4 -2,8 -0.615,1.23 -0.282,2.271 0.56,3.124 2.946,1.804 6.544,2.876 10.44,2.876 9.941,0 18,-6.907 18,-15.429 C 36,6.908 27.941,0 18,0 Z m 2.849,24.447 c -0.395,1.346 -2.46,1.924 -4.613,1.291 -2.153,-0.632 -3.578,-2.234 -3.183,-3.581 0.395,-1.346 2.46,-1.924 4.613,-1.29 2.153,0.631 3.578,2.233 3.183,3.58 z"
     id="path4"
     inkscape:connector-curvature="0"
     style="fill:#d99e82" />
  <circle
     cx="10"
     cy="7.8569999"
     r="3"
     id="circle6"
     style="fill:#5c913b" />
  <circle
     cx="20"
     cy="5.8569999"
     r="3"
     id="circle8"
     style="fill:#226699" />
  <circle
     cx="29"
     cy="11.857"
     r="3"
     id="circle10"
     style="fill:#dd2e44" />
  <circle
     cx="28"
     cy="20.857"
     r="3"
     id="circle12"
     style="fill:#ffcc4d" />
</svg>
