<?xml version="1.0" encoding="UTF-8" standalone="no"?>
<svg
   xmlns:dc="http://purl.org/dc/elements/1.1/"
   xmlns:cc="http://creativecommons.org/ns#"
   xmlns:rdf="http://www.w3.org/1999/02/22-rdf-syntax-ns#"
   xmlns:svg="http://www.w3.org/2000/svg"
   xmlns="http://www.w3.org/2000/svg"
   xmlns:sodipodi="http://sodipodi.sourceforge.net/DTD/sodipodi-0.dtd"
   xmlns:inkscape="http://www.inkscape.org/namespaces/inkscape"
   viewBox="0 0 33.966 35.903999"
   id="svg2"
   version="1.1"
   inkscape:version="0.91 r13725"
   sodipodi:docname="1f3a1.svg"
   width="33.966"
   height="35.903999">
  <metadata
     id="metadata52">
    <rdf:RDF>
      <cc:Work
         rdf:about="">
        <dc:format>image/svg+xml</dc:format>
        <dc:type
           rdf:resource="http://purl.org/dc/dcmitype/StillImage" />
      </cc:Work>
    </rdf:RDF>
  </metadata>
  <defs
     id="defs50" />
  <sodipodi:namedview
     pagecolor="#ffffff"
     bordercolor="#666666"
     borderopacity="1"
     objecttolerance="10"
     gridtolerance="10"
     guidetolerance="10"
     inkscape:pageopacity="0"
     inkscape:pageshadow="2"
     inkscape:window-width="640"
     inkscape:window-height="480"
     id="namedview48"
     showgrid="false"
     inkscape:zoom="6.5555556"
     inkscape:cx="16.989"
     inkscape:cy="18"
     inkscape:window-x="0"
     inkscape:window-y="0"
     inkscape:window-maximized="0"
     inkscape:current-layer="svg2" />
  <path
     d="m 29.795,15.251 -11.605,0 8.205,-8.205 -0.707,-0.707 -8.205,8.205 0,-11.604 -1,0 0,11.604 -8.206,-8.205 -0.707,0.707 8.206,8.205 -11.605,0 0,1 11.605,0 -8.206,8.206 0.707,0.707 8.206,-8.206 0,11.605 1,0 0,-11.604 8.205,8.205 0.707,-0.707 -8.205,-8.206 11.605,0 z"
     id="path4"
     inkscape:connector-curvature="0"
     style="fill:#ccd6dd" />
  <path
     d="M 16.983,1.298 C 9.001,1.298 2.53,7.769 2.53,15.751 c 0,7.982 6.471,14.453 14.453,14.453 7.983,0 14.454,-6.471 14.454,-14.453 C 31.436,7.769 24.965,1.298 16.983,1.298 Z m 0,26.683 c -6.755,0 -12.23,-5.475 -12.23,-12.23 0,-6.755 5.475,-12.23 12.23,-12.23 6.754,0 12.23,5.475 12.23,12.23 0,6.755 -5.475,12.23 -12.23,12.23 z"
     id="path6"
     inkscape:connector-curvature="0"
     style="fill:#aab8c2" />
  <path
     d="m 16.982,23.278 c -4.15,0 -7.526,-3.377 -7.526,-7.527 0,-4.15 3.376,-7.526 7.526,-7.526 4.151,0 7.528,3.376 7.528,7.526 0,4.15 -3.376,7.527 -7.528,7.527 z m 0,-13.553 c -3.323,0 -6.026,2.704 -6.026,6.026 0,3.322 2.704,6.027 6.026,6.027 3.324,0 6.028,-2.704 6.028,-6.027 0,-3.323 -2.704,-6.026 -6.028,-6.026 z"
     id="path8"
     inkscape:connector-curvature="0"
     style="fill:#aab8c2" />
  <path
     d="M 26.268,34.333 17.892,15.989 C 17.871,15.943 17.834,15.913 17.807,15.872 17.769,15.813 17.735,15.754 17.684,15.703 17.633,15.652 17.574,15.618 17.514,15.58 17.473,15.553 17.443,15.516 17.397,15.495 17.385,15.49 17.373,15.492 17.362,15.487 17.298,15.46 17.23,15.453 17.161,15.44 17.1,15.429 17.04,15.41 16.979,15.41 c -0.054,0 -0.106,0.018 -0.161,0.027 -0.075,0.013 -0.149,0.022 -0.219,0.051 -0.011,0.005 -0.023,0.003 -0.034,0.008 -0.044,0.02 -0.074,0.057 -0.114,0.082 -0.061,0.039 -0.121,0.074 -0.173,0.125 -0.051,0.051 -0.086,0.111 -0.124,0.171 -0.026,0.04 -0.063,0.07 -0.083,0.115 L 7.698,34.333 c -0.229,0.502 -0.008,1.096 0.494,1.325 0.135,0.061 0.276,0.09 0.415,0.09 0.379,0 0.742,-0.217 0.91,-0.585 l 7.465,-16.351 7.465,16.351 c 0.168,0.368 0.531,0.585 0.911,0.585 0.139,0 0.279,-0.029 0.414,-0.091 0.504,-0.229 0.725,-0.822 0.496,-1.324 z"
     id="path10"
     inkscape:connector-curvature="0"
     style="fill:#8899a6" />
  <path
     d="m 11.889,35.904 -5.821,0 c -0.552,0 -1,-0.447 -1,-1 0,-0.553 0.448,-1 1,-1 l 5.821,0 c 0.552,0 1,0.447 1,1 0,0.553 -0.448,1 -1,1 z m 15.999,0 -5.82,0 c -0.553,0 -1,-0.447 -1,-1 0,-0.553 0.447,-1 1,-1 l 5.82,0 c 0.553,0 1,0.447 1,1 0,0.553 -0.447,1 -1,1 z"
     id="path12"
     inkscape:connector-curvature="0"
     style="fill:#553788" />
  <path
     d="m 20.273,29.723 c 0,1.535 -1.244,2.779 -2.779,2.779 l -1.112,0 c -1.535,0 -2.779,-1.244 -2.779,-2.779 0,-1.535 1.244,-2.779 2.779,-2.779 l 1.112,0 c 1.534,0 2.779,1.244 2.779,2.779 z"
     id="path14"
     inkscape:connector-curvature="0"
     style="fill:#744eaa" />
  <path
     d="m 20.216,29.167 c -0.257,-1.269 -1.378,-2.224 -2.723,-2.224 l -1.112,0 c -1.345,0 -2.466,0.954 -2.724,2.224 l 6.559,0 z"
     id="path16"
     inkscape:connector-curvature="0"
     style="fill:#cbb7ea" />
  <path
     d="m 10.006,26.431 c 0,1.535 -1.244,2.779 -2.779,2.779 l -1.112,0 c -1.535,0 -2.779,-1.244 -2.779,-2.779 0,-1.535 1.244,-2.779 2.779,-2.779 l 1.112,0 c 1.535,0 2.779,1.244 2.779,2.779 z"
     id="path18"
     inkscape:connector-curvature="0"
     style="fill:#5c913b" />
  <path
     d="M 9.949,25.875 C 9.692,24.606 8.571,23.651 7.226,23.651 l -1.111,0 c -1.345,0 -2.466,0.954 -2.724,2.224 l 6.558,0 z"
     id="path20"
     inkscape:connector-curvature="0"
     style="fill:#c6e5b3" />
  <path
     d="m 33.966,17.537 c 0,1.535 -1.244,2.779 -2.779,2.779 l -1.112,0 c -1.535,0 -2.779,-1.244 -2.779,-2.779 0,-1.535 1.244,-2.779 2.779,-2.779 l 1.112,0 c 1.535,-10e-4 2.779,1.243 2.779,2.779 z"
     id="path22"
     inkscape:connector-curvature="0"
     style="fill:#3b94d9" />
  <path
     d="m 33.91,16.981 c -0.257,-1.269 -1.378,-2.224 -2.723,-2.224 l -1.112,0 c -1.344,0 -2.466,0.954 -2.723,2.224 l 6.558,0 z"
     id="path24"
     inkscape:connector-curvature="0"
     style="fill:#bbddf5" />
  <path
     d="m 30.633,7.791 c 0,1.535 -1.244,2.779 -2.779,2.779 l -1.112,0 c -1.535,0 -2.779,-1.244 -2.779,-2.779 0,-1.535 1.244,-2.779 2.779,-2.779 l 1.112,0 c 1.535,0 2.779,1.244 2.779,2.779 z"
     id="path26"
     inkscape:connector-curvature="0"
     style="fill:#5c913b" />
  <path
     d="M 30.577,7.235 C 30.32,5.966 29.199,5.011 27.854,5.011 l -1.112,0 c -1.344,0 -2.466,0.954 -2.723,2.224 l 6.558,0 z"
     id="path28"
     inkscape:connector-curvature="0"
     style="fill:#c6e5b3" />
  <path
     d="m 30.633,26.431 c 0,1.535 -1.244,2.779 -2.779,2.779 l -1.112,0 c -1.535,0 -2.779,-1.244 -2.779,-2.779 0,-1.535 1.244,-2.779 2.779,-2.779 l 1.112,0 c 1.535,0 2.779,1.244 2.779,2.779 z"
     id="path30"
     inkscape:connector-curvature="0"
     style="fill:#be1931" />
  <path
     d="M 30.577,25.875 C 30.32,24.606 29.199,23.651 27.854,23.651 l -1.112,0 c -1.344,0 -2.466,0.954 -2.723,2.224 l 6.558,0 z"
     id="path32"
     inkscape:connector-curvature="0"
     style="fill:#f4abba" />
  <path
     d="m 10.006,7.791 c 0,1.535 -1.244,2.779 -2.779,2.779 l -1.112,0 C 4.58,10.57 3.336,9.326 3.336,7.791 3.336,6.256 4.58,5.012 6.115,5.012 l 1.112,0 c 1.535,0 2.779,1.244 2.779,2.779 z"
     id="path34"
     inkscape:connector-curvature="0"
     style="fill:#be1931" />
  <path
     d="M 9.949,7.235 C 9.692,5.966 8.571,5.011 7.226,5.011 l -1.111,0 c -1.345,0 -2.466,0.954 -2.724,2.224 l 6.558,0 z"
     id="path36"
     inkscape:connector-curvature="0"
     style="fill:#f4abba" />
  <path
     d="m 20.273,2.78 c 0,1.535 -1.244,2.779 -2.779,2.779 l -1.112,0 c -1.535,0 -2.779,-1.244 -2.779,-2.779 0,-1.535 1.244,-2.779 2.779,-2.779 l 1.112,0 C 19.028,0 20.273,1.244 20.273,2.78 Z"
     id="path38"
     inkscape:connector-curvature="0"
     style="fill:#744eaa" />
  <path
     d="M 20.216,2.224 C 19.959,0.955 18.838,0 17.493,0 l -1.112,0 c -1.345,0 -2.466,0.954 -2.724,2.224 l 6.559,0 z"
     id="path40"
     inkscape:connector-curvature="0"
     style="fill:#cbb7ea" />
  <path
     d="m 6.671,17.537 c 0,1.535 -1.244,2.779 -2.779,2.779 l -1.113,0 C 1.244,20.316 0,19.072 0,17.537 0,16.002 1.244,14.758 2.779,14.758 l 1.112,0 c 1.535,-10e-4 2.78,1.243 2.78,2.779 z"
     id="path42"
     inkscape:connector-curvature="0"
     style="fill:#3b94d9" />
  <path
     d="M 6.614,16.981 C 6.357,15.712 5.236,14.757 3.891,14.757 l -1.112,0 c -1.345,0 -2.466,0.954 -2.724,2.224 l 6.559,0 z"
     id="path44"
     inkscape:connector-curvature="0"
     style="fill:#bbddf5" />
  <path
     d="m 13.941,15.751 c 0,-1.68 1.362,-3.041 3.041,-3.041 1.68,0 3.042,1.362 3.042,3.041 0,1.679 -1.362,3.041 -3.042,3.041 -1.679,10e-4 -3.041,-1.361 -3.041,-3.041 z"
     id="path46"
     inkscape:connector-curvature="0"
     style="fill:#553788" />
</svg>
