<?xml version="1.0" encoding="UTF-8" standalone="no"?>
<svg
   xmlns:dc="http://purl.org/dc/elements/1.1/"
   xmlns:cc="http://creativecommons.org/ns#"
   xmlns:rdf="http://www.w3.org/1999/02/22-rdf-syntax-ns#"
   xmlns:svg="http://www.w3.org/2000/svg"
   xmlns="http://www.w3.org/2000/svg"
   xmlns:sodipodi="http://sodipodi.sourceforge.net/DTD/sodipodi-0.dtd"
   xmlns:inkscape="http://www.inkscape.org/namespaces/inkscape"
   viewBox="0 0 34.37664 34.377048"
   id="svg2"
   version="1.1"
   inkscape:version="0.91 r13725"
   sodipodi:docname="1f3ba.svg"
   width="34.37664"
   height="34.377048">
  <metadata
     id="metadata18">
    <rdf:RDF>
      <cc:Work
         rdf:about="">
        <dc:format>image/svg+xml</dc:format>
        <dc:type
           rdf:resource="http://purl.org/dc/dcmitype/StillImage" />
      </cc:Work>
    </rdf:RDF>
  </metadata>
  <defs
     id="defs16" />
  <sodipodi:namedview
     pagecolor="#ffffff"
     bordercolor="#666666"
     borderopacity="1"
     objecttolerance="10"
     gridtolerance="10"
     guidetolerance="10"
     inkscape:pageopacity="0"
     inkscape:pageshadow="2"
     inkscape:window-width="640"
     inkscape:window-height="480"
     id="namedview14"
     showgrid="false"
     inkscape:zoom="6.5555556"
     inkscape:cx="17.37775"
     inkscape:cy="17.37675"
     inkscape:window-x="0"
     inkscape:window-y="0"
     inkscape:window-maximized="0"
     inkscape:current-layer="svg2" />
  <path
     d="m 4.99975,32.051297 -2.674,-2.673 20.389,-20.3909998 c 3.344,-3.343 1.337,-8.02100002 2.007,-8.68900002 0.666,-0.67 1.335,-0.002 1.335,-0.002 l 8.023,8.02300002 c 0.668,0.668 0,1.336 0,1.336 -0.669,0.6699998 -5.778,-0.908 -8.692,2.0059998 l -20.388,20.39 z"
     id="path4"
     inkscape:connector-curvature="0"
     style="fill:#fcab40" />
  <path
     d="m 4.83475,32.891297 c 0.925,-0.925 0.925,-2.424 0,-3.35 -0.924,-0.924 -2.424,-0.924 -3.349,0 l 0.087,0.087 c -0.371,-0.334 -0.938,-0.331 -1.296,0.027 -0.369,0.368 -0.369,0.968 0,1.336 l 3.109,3.109 c 0.37,0.369 0.968,0.369 1.337,0 0.355,-0.356 0.36,-0.919 0.032,-1.29 l 0.08,0.081 z"
     id="path6"
     inkscape:connector-curvature="0"
     style="fill:#ccd6dd" />
  <path
     d="m 12.68775,32.709297 c -1.516,0 -2.939,-0.59 -4.011,-1.661 -1.071,-1.07 -1.661,-2.495 -1.661,-4.011 0,-1.515 0.59,-2.939 1.661,-4.011 l 10.696,-10.696 c 1.071,-1.071 2.496,-1.661 4.012,-1.661 1.515,0 2.94,0.59 4.011,1.661 2.211,2.212 2.211,5.811 0,8.022 l -10.696,10.695 c -1.072,1.071 -2.496,1.662 -4.012,1.662 z m 10.697,-18.259 c -0.506,0 -0.98,0.197 -1.338,0.554 l -10.695,10.696 c -0.357,0.357 -0.554,0.832 -0.554,1.337 0,0.506 0.197,0.979 0.553,1.336 0.358,0.357 0.832,0.555 1.337,0.555 0.505,0 0.98,-0.197 1.337,-0.555 l 10.696,-10.695 c 0.737,-0.737 0.736,-1.937 -10e-4,-2.674 -0.356,-0.357 -0.83,-0.554 -1.335,-0.554 z"
     id="path8"
     inkscape:connector-curvature="0"
     style="fill:#fcab40" />
  <path
     d="m 24.72175,23.026297 c 0.736,0.738 1.936,0.738 2.674,0 0.738,-0.739 0.738,-1.937 0,-2.674 l -8.022,-8.023 c -0.739,-0.738 -1.935,-0.738 -2.673,0 -0.739,0.739 -0.739,1.937 0,2.675 l 8.021,8.022 z m -4.012,4.011 c 0.738,0.738 1.937,0.738 2.674,0 0.738,-0.739 0.738,-1.936 0.002,-2.674 l -8.023,-8.023 c -0.739,-0.738 -1.936,-0.738 -2.675,0 -0.738,0.738 -0.738,1.936 0,2.675 l 8.022,8.022 z m -4.01,4.011 c 0.738,0.738 1.934,0.738 2.673,0 0.738,-0.738 0.738,-1.937 0,-2.674 l -8.021,-8.022 c -0.739,-0.738 -1.936,-0.738 -2.675,0 -0.738,0.737 -0.738,1.935 0,2.674 l 8.023,8.022 z"
     id="path10"
     inkscape:connector-curvature="0"
     style="fill:#fcab40" />
  <path
     d="m 14.02575,12.329297 c 0.369,0.369 0.968,0.369 1.337,0 l 1.337,-1.336 c 0.369,-0.369 0.369,-0.968 0,-1.3379998 -0.37,-0.369 -0.968,-0.369 -1.337,0 l -1.337,1.3379998 c -0.37,0.369 -0.37,0.967 0,1.336 z m -4.011,4.012 c 0.37,0.371 0.967,0.37 1.337,0 l 1.336,-1.337 c 0.37,-0.37 0.371,-0.967 0,-1.337 -0.369,-0.37 -0.967,-0.37 -1.337,0 l -1.337,1.337 c -0.369,0.37 -0.369,0.968 10e-4,1.337 z m -4.012,4.012 c 0.37,0.37 0.967,0.37 1.337,0 l 1.337,-1.338 c 0.37,-0.369 0.37,-0.967 0,-1.337 -0.369,-0.369 -0.967,-0.369 -1.336,0 l -1.337,1.338 c -0.37,0.369 -0.37,0.967 -0.001,1.337 z"
     id="path12"
     inkscape:connector-curvature="0"
     style="fill:#ccd6dd" />
</svg>
