<?xml version="1.0" encoding="UTF-8" standalone="no"?>
<svg
   xmlns:dc="http://purl.org/dc/elements/1.1/"
   xmlns:cc="http://creativecommons.org/ns#"
   xmlns:rdf="http://www.w3.org/1999/02/22-rdf-syntax-ns#"
   xmlns:svg="http://www.w3.org/2000/svg"
   xmlns="http://www.w3.org/2000/svg"
   xmlns:sodipodi="http://sodipodi.sourceforge.net/DTD/sodipodi-0.dtd"
   xmlns:inkscape="http://www.inkscape.org/namespaces/inkscape"
   viewBox="0 0 36 35.369095"
   id="svg2"
   version="1.1"
   inkscape:version="0.91 r13725"
   sodipodi:docname="1f3bf.svg"
   width="36"
   height="35.369095">
  <metadata
     id="metadata22">
    <rdf:RDF>
      <cc:Work
         rdf:about="">
        <dc:format>image/svg+xml</dc:format>
        <dc:type
           rdf:resource="http://purl.org/dc/dcmitype/StillImage" />
      </cc:Work>
    </rdf:RDF>
  </metadata>
  <defs
     id="defs20" />
  <sodipodi:namedview
     pagecolor="#ffffff"
     bordercolor="#666666"
     borderopacity="1"
     objecttolerance="10"
     gridtolerance="10"
     guidetolerance="10"
     inkscape:pageopacity="0"
     inkscape:pageshadow="2"
     inkscape:window-width="640"
     inkscape:window-height="480"
     id="namedview18"
     showgrid="false"
     inkscape:zoom="6.5555556"
     inkscape:cx="18"
     inkscape:cy="18"
     inkscape:window-x="0"
     inkscape:window-y="0"
     inkscape:window-maximized="0"
     inkscape:current-layer="svg2" />
  <path
     d="m 36,14.419094 0,16.95 c 0,0 0,4 -4,4 l -28,0 c -4,0 -4,-4 -4,-4 l 0,-2 c 0,0 15.958,-6.875 36,-14.95 z"
     id="path4"
     inkscape:connector-curvature="0"
     style="fill:#e1e8ed" />
  <path
     d="m 12.708,25.571094 c -0.139,0 -0.277,-0.033 -0.402,-0.1 -0.229,-0.119 -0.392,-0.333 -0.446,-0.585 -0.212,-0.975 -0.354,-1.747 -0.354,-2.351 0,-0.223 0.085,-0.437 0.238,-0.598 1.627,-1.715 3.689,-3.483 5.058,-4.608 -1.308,-2.187 -4.363,-7.227 -5.038,-8.3190002 -0.24,-0.389 -0.138,-0.898 0.234,-1.164 1.012,-0.722 6.832,-4.626 7.079,-4.792 0.374,-0.252 0.877,-0.174 1.159,0.176 0.639,0.791 2.349,3.617 4.16,6.609 0.864,1.4280002 1.712,2.8280002 2.382,3.9030002 0.046,0.073 0.08,0.153 0.102,0.237 0.01,0.039 1.029,3.928 1.029,4.847 0,0.364 -0.228,0.689 -0.569,0.815 -1.343,0.494 -14.171,5.809 -14.301,5.862 -0.105,0.046 -0.218,0.068 -0.331,0.068 z"
     id="path6"
     inkscape:connector-curvature="0"
     style="fill:#55acee" />
  <path
     d="m 11.75,26.738094 c -0.339,0 -0.661,-0.199 -0.801,-0.531 -0.187,-0.442 0.02,-0.952 0.462,-1.139 l 7.208,-3.042 c 0.445,-0.184 0.952,0.021 1.138,0.463 0.186,0.442 -0.021,0.952 -0.463,1.139 l -7.208,3.042 c -0.109,0.046 -0.223,0.068 -0.336,0.068 z m 12.084,-5.083 c -0.335,0 -0.654,-0.195 -0.797,-0.522 -0.191,-0.441 0.011,-0.952 0.45,-1.144 l 4.791,-2.083 c 0.439,-0.19 0.951,0.009 1.144,0.45 0.191,0.441 -0.011,0.952 -0.45,1.144 l -4.791,2.084 c -0.114,0.048 -0.231,0.071 -0.347,0.071 z"
     id="path8"
     inkscape:connector-curvature="0"
     style="fill:#226699" />
  <path
     d="m 5.594,31.026094 c -0.208,0 -0.411,-0.014 -0.61,-0.042 -1.264,-0.181 -2.259,-0.931 -2.878,-2.168 -0.247,-0.494 -0.047,-1.095 0.447,-1.342 0.495,-0.246 1.095,-0.047 1.342,0.447 0.632,1.266 1.864,1.45 3.658,0.553 1.23,-0.615 7.657,-3.303 14.462,-6.148 4.396,-1.838 8.793,-3.677 11.592,-4.876 0.503,-0.219 1.095,0.017 1.312,0.525 0.218,0.507 -0.017,1.095 -0.525,1.313 -2.802,1.201 -7.205,3.042 -11.608,4.884 -6.474,2.707 -13.169,5.507 -14.339,6.092 -1.015,0.507 -1.972,0.762 -2.853,0.762 z"
     id="path10"
     inkscape:connector-curvature="0"
     style="fill:#be1931" />
  <path
     d="m 26.882,13.980094 c -0.022,-0.084 -0.057,-0.164 -0.102,-0.237 -0.67,-1.075 -1.518,-2.475 -2.382,-3.9030002 -1.8,-2.973 -3.498,-5.779 -4.146,-6.589 -0.007,0.102 -0.011,0.202 -0.015,0.297 -0.051,1.12 -0.119,2.654 -2.999,4.698 -0.866,0.577 -0.682,1.473 1.039,5.0430002 0.9,1.867 1.993,3.924 2.489,4.759 0.184,0.31 0.514,0.49 0.859,0.49 0.1,0 0.201,-0.016 0.3,-0.047 1.331,-0.418 3.16,-1.136 4.774,-1.77 l 0.78,-0.305 c -0.279,-1.221 -0.592,-2.414 -0.597,-2.436 z"
     id="path12"
     inkscape:connector-curvature="0"
     style="fill:#3b88c3" />
  <path
     d="m 16.69,13.898094 c -0.284,0 -0.562,-0.139 -0.728,-0.394 -0.262,-0.402 -0.149,-0.94 0.253,-1.202 l 2.498,-1.629 c 0.403,-0.263 0.939,-0.148 1.202,0.253 0.262,0.402 0.148,0.94 -0.253,1.202 l -2.497,1.629 c -0.148,0.095 -0.312,0.141 -0.475,0.141 z m 1.989,3.076 c -0.42,0 -0.789,-0.305 -0.857,-0.733 -0.075,-0.474 0.248,-0.919 0.722,-0.994 l 2.967,-0.47 c 0.477,-0.075 0.918,0.248 0.994,0.722 0.074,0.474 -0.249,0.918 -0.723,0.994 l -2.967,0.47 c -0.045,0.008 -0.091,0.011 -0.136,0.011 z m 0.862,4.472 c -0.138,0 -0.278,-0.033 -0.408,-0.103 l -1.731,-0.925 c -0.423,-0.227 -0.583,-0.753 -0.357,-1.176 0.226,-0.423 0.75,-0.583 1.175,-0.357 l 1.731,0.925 c 0.423,0.227 0.583,0.753 0.357,1.176 -0.157,0.293 -0.456,0.46 -0.767,0.46 z"
     id="path14"
     inkscape:connector-curvature="0"
     style="fill:#226699" />
  <path
     d="m 23.543,4.9040938 c -0.304,0 -0.599,-0.159 -0.758,-0.442 -0.235,-0.418 -0.087,-0.948 0.331,-1.183 l 5.625,-3.167 c 0.418,-0.236 0.948,-0.087 1.183,0.331 0.235,0.418 0.087,0.948 -0.331,1.183 l -5.625,3.166 c -0.135,0.077 -0.28,0.112 -0.425,0.112 z m 2.5,3.709 c -0.304,0 -0.599,-0.159 -0.758,-0.443 -0.235,-0.418 -0.087,-0.948 0.331,-1.183 l 3.333,-1.875 c 0.418,-0.235 0.947,-0.087 1.183,0.332 0.235,0.418 0.087,0.948 -0.331,1.183 l -3.333,1.875 c -0.135,0.075 -0.281,0.111 -0.425,0.111 z m 2,4.0000002 c -0.308,0 -0.605,-0.163 -0.763,-0.452 -0.23,-0.421 -0.076,-0.949 0.345,-1.179 l 2.208,-1.2080002 c 0.419,-0.231 0.949,-0.076 1.179,0.3450002 0.231,0.421 0.076,0.949 -0.345,1.179 l -2.208,1.208 c -0.132,0.073 -0.275,0.107 -0.416,0.107 z"
     id="path16"
     inkscape:connector-curvature="0"
     style="fill:#bbddf5" />
</svg>
