<?xml version="1.0" encoding="UTF-8" standalone="no"?>
<svg
   xmlns:dc="http://purl.org/dc/elements/1.1/"
   xmlns:cc="http://creativecommons.org/ns#"
   xmlns:rdf="http://www.w3.org/1999/02/22-rdf-syntax-ns#"
   xmlns:svg="http://www.w3.org/2000/svg"
   xmlns="http://www.w3.org/2000/svg"
   xmlns:sodipodi="http://sodipodi.sourceforge.net/DTD/sodipodi-0.dtd"
   xmlns:inkscape="http://www.inkscape.org/namespaces/inkscape"
   viewBox="0 0 36.000484 31.115702"
   id="svg2"
   version="1.1"
   inkscape:version="0.91 r13725"
   sodipodi:docname="1f3b7.svg"
   width="36.000484"
   height="31.115702">
  <metadata
     id="metadata22">
    <rdf:RDF>
      <cc:Work
         rdf:about="">
        <dc:format>image/svg+xml</dc:format>
        <dc:type
           rdf:resource="http://purl.org/dc/dcmitype/StillImage" />
      </cc:Work>
    </rdf:RDF>
  </metadata>
  <defs
     id="defs20" />
  <sodipodi:namedview
     pagecolor="#ffffff"
     bordercolor="#666666"
     borderopacity="1"
     objecttolerance="10"
     gridtolerance="10"
     guidetolerance="10"
     inkscape:pageopacity="0"
     inkscape:pageshadow="2"
     inkscape:window-width="640"
     inkscape:window-height="480"
     id="namedview18"
     showgrid="false"
     inkscape:zoom="6.5555556"
     inkscape:cx="18"
     inkscape:cy="18"
     inkscape:window-x="0"
     inkscape:window-y="0"
     inkscape:window-maximized="0"
     inkscape:current-layer="svg2" />
  <path
     d="m 14,11.115702 -5,10 c 0,0 -1,2 1,2 1,0 2,-2 2,-2 L 26,2.1157025 c 0,0 2,-4 8,-1 l 0,2 c -3,-1 -4,1 -4,1 L 15,28.115702 c 0,0 -2,3 -7,3 -6,0 -7,-5 -7,-8 0,-2 1,-4 2,-6 1,-2 -2,-6 -2,-6 l 13,0 z"
     id="path4"
     inkscape:connector-curvature="0"
     style="clip-rule:evenodd;fill:#fcab40;fill-rule:evenodd" />
  <path
     d="m 7.5,15.115702 c -3.46,0 -7.5,-1.048 -7.5,-4 0,-2.9529995 4.04,-3.9999995 7.5,-3.9999995 3.46,0 7.5,1.047 7.5,3.9999995 0,2.952 -4.04,4 -7.5,4 z"
     id="path6"
     inkscape:connector-curvature="0"
     style="fill:#fdcb58" />
  <circle
     cx="19"
     cy="12.115703"
     r="2"
     id="circle8"
     style="fill:#ccd6dd" />
  <circle
     cx="22"
     cy="8.1157026"
     r="2"
     id="circle10"
     style="fill:#ccd6dd" />
  <circle
     cx="25"
     cy="4.1157026"
     r="2"
     id="circle12"
     style="fill:#ccd6dd" />
  <path
     d="m 33.998,5.1157025 c -0.3,0 -0.605,-0.068 -0.893,-0.211 l -2,-1 c -0.988,-0.494 -1.389,-1.695 -0.895,-2.684 0.493,-0.98600002 1.693,-1.39000002 2.684,-0.89500002 l 2,1.00000002 c 0.988,0.494 1.389,1.695 0.895,2.684 -0.351,0.701 -1.057,1.106 -1.791,1.106 z"
     id="path14"
     inkscape:connector-curvature="0"
     style="fill:#9aaab4" />
  <path
     d="m 8.806,16.818702 1.267,-1.547 6.19,5.069 -1.267,1.547 z"
     id="path16"
     inkscape:connector-curvature="0"
     style="clip-rule:evenodd;fill:#fcab40;fill-rule:evenodd" />
</svg>
