<?xml version="1.0" encoding="UTF-8" standalone="no"?>
<svg
   xmlns:dc="http://purl.org/dc/elements/1.1/"
   xmlns:cc="http://creativecommons.org/ns#"
   xmlns:rdf="http://www.w3.org/1999/02/22-rdf-syntax-ns#"
   xmlns:svg="http://www.w3.org/2000/svg"
   xmlns="http://www.w3.org/2000/svg"
   xmlns:sodipodi="http://sodipodi.sourceforge.net/DTD/sodipodi-0.dtd"
   xmlns:inkscape="http://www.inkscape.org/namespaces/inkscape"
   viewBox="0 0 36 35.626873"
   id="svg2"
   version="1.1"
   inkscape:version="0.91 r13725"
   sodipodi:docname="1f3b6.svg"
   width="36"
   height="35.626873">
  <metadata
     id="metadata12">
    <rdf:RDF>
      <cc:Work
         rdf:about="">
        <dc:format>image/svg+xml</dc:format>
        <dc:type
           rdf:resource="http://purl.org/dc/dcmitype/StillImage" />
      </cc:Work>
    </rdf:RDF>
  </metadata>
  <defs
     id="defs10" />
  <sodipodi:namedview
     pagecolor="#ffffff"
     bordercolor="#666666"
     borderopacity="1"
     objecttolerance="10"
     gridtolerance="10"
     guidetolerance="10"
     inkscape:pageopacity="0"
     inkscape:pageshadow="2"
     inkscape:window-width="640"
     inkscape:window-height="480"
     id="namedview8"
     showgrid="false"
     inkscape:zoom="6.5555556"
     inkscape:cx="18"
     inkscape:cy="17.778"
     inkscape:window-x="0"
     inkscape:window-y="0"
     inkscape:window-maximized="0"
     inkscape:current-layer="svg2" />
  <path
     d="M 14.182,0.01687394 7.818,1.3178739 c -0.45,0.092 -0.818,0.543 -0.818,1.002 L 7,18.176874 c -0.613,-0.208 -1.288,-0.328 -2,-0.328 -2.762,0 -5,1.741 -5,3.889 0,2.147 2.238,3.889 5,3.889 2.713,0 4.908,-1.683 4.985,-3.777 l 0.015,0 0,-15.5240001 4.182,-0.855 c 0.45,-0.092 0.818,-0.543 0.818,-1.002 l 0,-3.78499996 c 0,-0.459 -0.368,-0.76 -0.818,-0.667 z m 21,3.99999996 -6.363,1.301 c -0.451,0.092 -0.819,0.543 -0.819,1.002 l 0,15.8570001 c -0.613,-0.209 -1.288,-0.328 -2,-0.328 -2.762,0 -5,1.741 -5,3.889 0,2.147 2.238,3.889 5,3.889 2.713,0 4.908,-1.683 4.985,-3.777 l 0.015,0 0,-15.524 4.182,-0.8550001 c 0.45,-0.092 0.818,-0.543 0.818,-1.002 l 0,-3.785 c 0,-0.459 -0.368,-0.76 -0.818,-0.667 z"
     id="path4"
     inkscape:connector-curvature="0"
     style="fill:#5dadec" />
  <path
     d="m 23.182,10.015874 -6.363,1.301 c -0.451,0.093 -0.819,0.544 -0.819,1.003 l 0,15.857 c -0.613,-0.209 -1.288,-0.328 -2,-0.328 -2.762,0 -5,1.741 -5,3.889 0,2.148 2.238,3.889 5,3.889 2.713,0 4.908,-1.683 4.985,-3.777 l 0.015,0 0,-15.524 4.182,-0.855 c 0.45,-0.092 0.818,-0.543 0.818,-1.002 l 0,-3.785 c 0,-0.459 -0.368,-0.7600001 -0.818,-0.668 z"
     id="path6"
     inkscape:connector-curvature="0"
     style="fill:#5dadec" />
</svg>
