<?xml version="1.0" encoding="UTF-8" standalone="no"?>
<svg
   xmlns:dc="http://purl.org/dc/elements/1.1/"
   xmlns:cc="http://creativecommons.org/ns#"
   xmlns:rdf="http://www.w3.org/1999/02/22-rdf-syntax-ns#"
   xmlns:svg="http://www.w3.org/2000/svg"
   xmlns="http://www.w3.org/2000/svg"
   xmlns:sodipodi="http://sodipodi.sourceforge.net/DTD/sodipodi-0.dtd"
   xmlns:inkscape="http://www.inkscape.org/namespaces/inkscape"
   viewBox="0 0 36 34.805706"
   id="svg2"
   version="1.1"
   inkscape:version="0.91 r13725"
   sodipodi:docname="1f3b5.svg"
   width="36"
   height="34.805706">
  <metadata
     id="metadata10">
    <rdf:RDF>
      <cc:Work
         rdf:about="">
        <dc:format>image/svg+xml</dc:format>
        <dc:type
           rdf:resource="http://purl.org/dc/dcmitype/StillImage" />
      </cc:Work>
    </rdf:RDF>
  </metadata>
  <defs
     id="defs8" />
  <sodipodi:namedview
     pagecolor="#ffffff"
     bordercolor="#666666"
     borderopacity="1"
     objecttolerance="10"
     gridtolerance="10"
     guidetolerance="10"
     inkscape:pageopacity="0"
     inkscape:pageshadow="2"
     inkscape:window-width="640"
     inkscape:window-height="480"
     id="namedview6"
     showgrid="false"
     inkscape:zoom="6.5555556"
     inkscape:cx="18"
     inkscape:cy="17"
     inkscape:window-x="0"
     inkscape:window-y="0"
     inkscape:window-maximized="0"
     inkscape:current-layer="svg2" />
  <path
     d="m 34.209,0.0117057 -22.418,2.587 c -0.985,0.114 -1.791,1.018 -1.791,2.01 l 0,18.7820003 c -0.91,-0.371 -1.925,-0.585 -3,-0.585 -3.865,0 -7,2.685 -7,6 0,3.314 3.135,6 7,6 3.865,0 7,-2.686 7,-6 l 0,-18.461 18,-2.0770003 0,13.1240003 c -0.91,-0.372 -1.925,-0.586 -3,-0.586 -3.865,0 -7,2.685 -7,6 0,3.314 3.135,6 7,6 3.865,0 7,-2.686 7,-6 L 36,1.6087057 c 0,-0.992 -0.806,-1.71 -1.791,-1.597 z"
     id="path4"
     inkscape:connector-curvature="0"
     style="fill:#5dadec" />
</svg>
