<?xml version="1.0" encoding="UTF-8" standalone="no"?>
<svg
   xmlns:dc="http://purl.org/dc/elements/1.1/"
   xmlns:cc="http://creativecommons.org/ns#"
   xmlns:rdf="http://www.w3.org/1999/02/22-rdf-syntax-ns#"
   xmlns:svg="http://www.w3.org/2000/svg"
   xmlns="http://www.w3.org/2000/svg"
   xmlns:sodipodi="http://sodipodi.sourceforge.net/DTD/sodipodi-0.dtd"
   xmlns:inkscape="http://www.inkscape.org/namespaces/inkscape"
   viewBox="0 0 36 36"
   id="svg2"
   version="1.1"
   inkscape:version="0.91 r13725"
   sodipodi:docname="1f3be.svg"
   width="36"
   height="36">
  <metadata
     id="metadata18">
    <rdf:RDF>
      <cc:Work
         rdf:about="">
        <dc:format>image/svg+xml</dc:format>
        <dc:type
           rdf:resource="http://purl.org/dc/dcmitype/StillImage" />
      </cc:Work>
    </rdf:RDF>
  </metadata>
  <defs
     id="defs16" />
  <sodipodi:namedview
     pagecolor="#ffffff"
     bordercolor="#666666"
     borderopacity="1"
     objecttolerance="10"
     gridtolerance="10"
     guidetolerance="10"
     inkscape:pageopacity="0"
     inkscape:pageshadow="2"
     inkscape:window-width="640"
     inkscape:window-height="480"
     id="namedview14"
     showgrid="false"
     inkscape:zoom="6.5555556"
     inkscape:cx="18"
     inkscape:cy="18"
     inkscape:window-x="0"
     inkscape:window-y="0"
     inkscape:window-maximized="0"
     inkscape:current-layer="svg2" />
  <circle
     cx="18"
     cy="18"
     r="18"
     id="circle4"
     style="fill:#77b255" />
  <path
     d="m 26,18 c 0,6.048 2.792,10.221 5.802,11.546 C 34.42,26.42 36,22.396 36,18 36,13.604 34.42,9.58 31.802,6.454 28.792,7.779 26,11.952 26,18 Z"
     id="path6"
     inkscape:connector-curvature="0"
     style="fill:#a6d388" />
  <path
     d="M 27,18 C 27,11.952 28.792,7.779 31.802,6.454 31.357,5.923 30.876,5.426 30.374,4.95 27.406,6.605 25,10.578 25,18 c 0,7.421 2.406,11.395 5.374,13.05 0.502,-0.476 0.984,-0.973 1.428,-1.504 C 28.792,28.221 27,24.048 27,18 Z"
     id="path8"
     inkscape:connector-curvature="0"
     style="fill:#ffffff" />
  <path
     d="M 10,18 C 10,11.952 7.208,7.78 4.198,6.454 1.58,9.58 0,13.604 0,18 0,22.396 1.58,26.42 4.198,29.546 7.208,28.22 10,24.048 10,18 Z"
     id="path10"
     inkscape:connector-curvature="0"
     style="fill:#a6d388" />
  <path
     d="M 4.198,6.454 C 7.208,7.78 9,11.952 9,18 9,24.048 7.208,28.22 4.198,29.546 4.643,30.077 5.124,30.573 5.626,31.05 8.593,29.395 11,25.421 11,18 11,10.579 8.594,6.605 5.626,4.951 5.124,5.427 4.642,5.923 4.198,6.454 Z"
     id="path12"
     inkscape:connector-curvature="0"
     style="fill:#ffffff" />
</svg>
