<?xml version="1.0" encoding="UTF-8" standalone="no"?>
<svg
   xmlns:dc="http://purl.org/dc/elements/1.1/"
   xmlns:cc="http://creativecommons.org/ns#"
   xmlns:rdf="http://www.w3.org/1999/02/22-rdf-syntax-ns#"
   xmlns:svg="http://www.w3.org/2000/svg"
   xmlns="http://www.w3.org/2000/svg"
   xmlns:sodipodi="http://sodipodi.sourceforge.net/DTD/sodipodi-0.dtd"
   xmlns:inkscape="http://www.inkscape.org/namespaces/inkscape"
   viewBox="0 0 36 36"
   id="svg2"
   version="1.1"
   inkscape:version="0.91 r13725"
   sodipodi:docname="1f3b1.svg"
   width="36"
   height="36">
  <metadata
     id="metadata14">
    <rdf:RDF>
      <cc:Work
         rdf:about="">
        <dc:format>image/svg+xml</dc:format>
        <dc:type
           rdf:resource="http://purl.org/dc/dcmitype/StillImage" />
      </cc:Work>
    </rdf:RDF>
  </metadata>
  <defs
     id="defs12" />
  <sodipodi:namedview
     pagecolor="#ffffff"
     bordercolor="#666666"
     borderopacity="1"
     objecttolerance="10"
     gridtolerance="10"
     guidetolerance="10"
     inkscape:pageopacity="0"
     inkscape:pageshadow="2"
     inkscape:window-width="640"
     inkscape:window-height="480"
     id="namedview10"
     showgrid="false"
     inkscape:zoom="6.5555556"
     inkscape:cx="18"
     inkscape:cy="18"
     inkscape:window-x="0"
     inkscape:window-y="0"
     inkscape:window-maximized="0"
     inkscape:current-layer="svg2" />
  <circle
     cx="18"
     cy="18"
     r="18"
     id="circle4"
     style="fill:#31373d" />
  <circle
     cx="18"
     cy="18"
     r="9"
     id="circle6"
     style="fill:#e1e8ed" />
  <path
     d="m 13.703,20.203 c 0,-1.406 0.773,-2.443 1.881,-3.041 -0.826,-0.598 -1.336,-1.406 -1.336,-2.514 0,-2.057 1.705,-3.375 3.797,-3.375 2.039,0 3.814,1.301 3.814,3.375 0,0.984 -0.492,1.969 -1.354,2.514 1.195,0.598 1.881,1.688 1.881,3.041 0,2.443 -1.986,4.008 -4.342,4.008 -2.425,0 -4.341,-1.652 -4.341,-4.008 z m 2.742,-0.176 c 0,0.896 0.527,1.758 1.6,1.758 1.002,0 1.6,-0.861 1.6,-1.758 0,-1.107 -0.633,-1.758 -1.6,-1.758 -1.02,0.001 -1.6,0.774 -1.6,1.758 z m 0.334,-5.097 c 0,0.791 0.457,1.336 1.266,1.336 0.809,0 1.283,-0.545 1.283,-1.336 0,-0.756 -0.457,-1.336 -1.283,-1.336 -0.826,0 -1.266,0.58 -1.266,1.336 z"
     id="path8"
     inkscape:connector-curvature="0"
     style="fill:#31373d" />
</svg>
