<?xml version="1.0" encoding="UTF-8" standalone="no"?>
<svg
   xmlns:dc="http://purl.org/dc/elements/1.1/"
   xmlns:cc="http://creativecommons.org/ns#"
   xmlns:rdf="http://www.w3.org/1999/02/22-rdf-syntax-ns#"
   xmlns:svg="http://www.w3.org/2000/svg"
   xmlns="http://www.w3.org/2000/svg"
   xmlns:sodipodi="http://sodipodi.sourceforge.net/DTD/sodipodi-0.dtd"
   xmlns:inkscape="http://www.inkscape.org/namespaces/inkscape"
   viewBox="0 0 35.85104 35.900356"
   id="svg2"
   version="1.1"
   inkscape:version="0.91 r13725"
   sodipodi:docname="1f3c7.svg"
   width="35.85104"
   height="35.900356">
  <metadata
     id="metadata54">
    <rdf:RDF>
      <cc:Work
         rdf:about="">
        <dc:format>image/svg+xml</dc:format>
        <dc:type
           rdf:resource="http://purl.org/dc/dcmitype/StillImage" />
      </cc:Work>
    </rdf:RDF>
  </metadata>
  <defs
     id="defs52" />
  <sodipodi:namedview
     pagecolor="#ffffff"
     bordercolor="#666666"
     borderopacity="1"
     objecttolerance="10"
     gridtolerance="10"
     guidetolerance="10"
     inkscape:pageopacity="0"
     inkscape:pageshadow="2"
     inkscape:window-width="640"
     inkscape:window-height="480"
     id="namedview50"
     showgrid="false"
     inkscape:zoom="6.5555556"
     inkscape:cx="17.932"
     inkscape:cy="17.943494"
     inkscape:window-x="0"
     inkscape:window-y="0"
     inkscape:window-maximized="0"
     inkscape:current-layer="svg2" />
  <path
     d="m 28.653,12.805863 c 0,0 3.809,1.643 5.532,0.449 1.723,-1.193 2.11,-2.773 1.159,-4.7359999 -0.951,-1.961 -3.623,-2.732 -3.712,-5.292 0,0 -0.298,4.141 1.513,5.505 2.562,1.9329999 -0.446,4.2099999 -3.522,3.8279999 -3.078,-0.382 -0.97,0.246 -0.97,0.246 z"
     id="path4"
     inkscape:connector-curvature="0"
     style="fill:#292f33" />
  <path
     d="m 23.807,19.331863 c 0,0 -0.628,2.542 0.187,5.03 0.145,0.341 0.049,0.556 -0.208,0.678 -0.256,0.122 -4.294,1.542 -4.729,1.771 -0.396,0.208 -1.142,1.78 -1.208,2.854 0.844,0.218 1.625,0.104 1.625,0.104 0,0 0.025,-1.915 0.208,-2.042 0.183,-0.127 5.686,-1.048 6.062,-1.771 0.376,-0.723 1.611,-3.888 0.812,-5.292 -0.225,-0.395 -0.637,-1.15 -0.637,-1.15 l -2.112,-0.182 z"
     id="path6"
     inkscape:connector-curvature="0"
     style="fill:#8a4b38" />
  <path
     d="m 17.849,29.664863 c 0,0 -0.616,1.993 0.008,2.138 0.605,0.141 1.694,-0.388 1.755,-0.646 0.081,-0.343 0.216,-1.179 0.098,-1.366 -0.118,-0.186 -1.861,-0.126 -1.861,-0.126 z"
     id="path8"
     inkscape:connector-curvature="0"
     style="fill:#292f33" />
  <path
     d="m 11.744,21.831863 -0.75,-2.562 c 0,0 -2.766,2.105 -3.938,3.594 -0.344,0.437 -1.847,3.198 -1.722,4.413 0.05,0.488 0.474,2.583 0.474,2.583 l 1.651,-0.465 c 0,0 -1.312,-1.896 -1.021,-2.562 1.428,-3.263 5.306,-5.001 5.306,-5.001 z"
     id="path10"
     inkscape:connector-curvature="0"
     style="fill:#8a4b38" />
  <path
     d="m 7.611,29.380863 c -0.172,-0.139 -1.803,0.479 -1.803,0.479 0,0 0.057,2.085 0.695,2.022 0.618,-0.061 1.48,-0.912 1.455,-1.175 -0.034,-0.351 -0.175,-1.187 -0.347,-1.326 z"
     id="path12"
     inkscape:connector-curvature="0"
     style="fill:#292f33" />
  <path
     d="m 27.12,11.144863 c -3.437,0.156 -7.207,0.438 -9.5,0.438 -3.655,0 -5.219,-1.428 -6.562,-2.6249999 -2.288,-2.037 -2.959,-4.222 -5.126,-3.5 0,0 -0.632,-0.411 -1.247,-0.778 l -0.261,-0.152 c -0.256,-0.148 -0.492,-0.276 -0.656,-0.347 -0.164,-0.072 -0.258,-0.087 -0.228,-0.01 0.019,0.051 0.093,0.143 0.236,0.286 0.472,0.472 0.675,0.95 0.728,1.395 -2.01,1.202 -2.093,2.276 -2.871,3.552 -0.492,0.8069999 -1.36000004,2.0539999 -1.56000004,2.5149999 -0.412,0.948 1.02400004,2.052 1.70600004,1.407 0.893,-0.845 0.961,-1.122 2.032,-1.744 0.983,-0.016 1.975,-0.416 2.308,-1.02 0,0 0.938,2.083 1.938,3.583 1,1.5 2.5,3.125 2.5,3.125 -0.131,1.227 0.12,2.176 0.549,2.922 -0.385,0.757 -0.924,1.807 -1.417,2.745 -0.656,1.245 -1.473,3.224 -1.208,3.618 0.534,0.798 2.719,2.926 4.137,3.311 1.03,0.28 2.14,0.437 2.14,0.437 l -0.193,-1.574 c 0,0 -1.343,0.213 -1.875,-0.083 -1.427,-0.795 -2.666,-2.248 -2.708,-2.542 -0.07,-0.487 3.841,-2.868 5.14,-3.645 2.266,0.097 6.022,-0.369 8.626,-1.702 0.958,1.86 2.978,2.513 2.978,2.513 0,0 0.667,2.208 1.375,4.125 -1.017,0.533 -4.468,3.254 -4.975,3.854 -0.456,0.54 -0.856,2.49 -0.856,2.49 0.82,0.375 1.57,0.187 1.57,0.187 0,0 0.039,-1.562 0.385,-2.073 0.346,-0.511 4.701,-2.559 5.958,-3.458 0.492,-0.352 0.404,-0.903 0.262,-1.552 -0.321,-1.471 -0.97,-4.781 -0.971,-4.782 5.146,-2.979 6.458,-11.316 -2.354,-10.916 z"
     id="path14"
     inkscape:connector-curvature="0"
     style="fill:#c1694f" />
  <path
     d="m 22.268,33.738863 c 0,0 -0.616,1.993 0.008,2.138 0.605,0.141 1.694,-0.388 1.755,-0.646 0.081,-0.343 0.216,-1.179 0.098,-1.366 -0.118,-0.187 -1.861,-0.126 -1.861,-0.126 z m -7.676,-5.296 c -0.167,0.146 0.164,1.859 0.164,1.859 0,0 2.064,0.299 2.111,-0.34 0.045,-0.62 -0.647,-1.614 -0.91,-1.634 -0.351,-0.027 -1.198,-0.031 -1.365,0.115 z"
     id="path16"
     inkscape:connector-curvature="0"
     style="fill:#292f33" />
  <path
     d="m 25.035,11.238863 c -3.295,0.135 -9.103,0.499 -10.4,-0.079 0.063,1.922 -0.676,3.605 0.3,6.865 0.46,0.101 8.122,0.244 10.935,-0.912 -0.672,-2.862 -0.389,-3.993 -0.835,-5.874 z"
     id="path18"
     inkscape:connector-curvature="0"
     style="fill:#ffac33" />
  <path
     d="m 15.823,11.394863 c 0,0 -0.759,3.543 2.408,3.63 3.167,0.087 2.792,-2.247 3.045,-2.505 0.253,-0.258 2.718,-0.391 2.718,-1.064 0,-0.233 -1.269,-0.127 -1.874,-0.099 -0.303,0.014 -3.589,0.204 -6.297,0.038 z"
     id="path20"
     inkscape:connector-curvature="0"
     style="fill:#623120" />
  <path
     d="m 6.026,5.6628631 c -0.682,0.47 -1.67,0.286 -1.67,0.286 -0.594,0.25 -1.524,1.156 -1.93,1.937 -0.406,0.781 -1.52500004,2.6639999 -1.52500004,2.6639999 0,0 1.09400004,0.865 1.71900004,1.906 0,0 0.531,-0.531 1.192,-0.875 1.942,-0.063 2.308,-1.02 2.308,-1.02 0,0 0.031,-2.9919999 -0.094,-4.8979999 z m -1.773,2.761 c -0.253,0 -0.46,-0.206 -0.46,-0.459 0,-0.253 0.207,-0.459 0.46,-0.459 0.253,0 0.459,0.206 0.459,0.459 0,0.253 -0.206,0.459 -0.459,0.459 z"
     id="path22"
     inkscape:connector-curvature="0"
     style="fill:#5c913b" />
  <circle
     cx="4.1820002"
     cy="8.0038633"
     r="0.34900001"
     id="circle24"
     style="fill:#292f33" />
  <path
     d="m 4.253,7.0558631 c -0.502,0 -0.909,0.408 -0.909,0.909 0,0.501 0.407,0.909 0.909,0.909 0.501,0 0.908,-0.408 0.908,-0.909 0,-0.501 -0.407,-0.909 -0.908,-0.909 z m 0,1.368 c -0.253,0 -0.46,-0.206 -0.46,-0.459 0,-0.253 0.207,-0.459 0.46,-0.459 0.253,0 0.459,0.206 0.459,0.459 0,0.253 -0.206,0.459 -0.459,0.459 z m -1.785,4.1849999 -1.77100004,-1.752 0.253,-0.388 1.84100004,1.817 z m 3.568,-6.9529999 0.449,-0.009 0.093,4.8979999 -0.449,0.009 z"
     id="path26"
     inkscape:connector-curvature="0"
     style="fill:#f5f8fa" />
  <path
     d="m 12.587,9.0268631 c 1.773,1.4459999 3.147,0.322 3.147,0.322 -1.295,-0.271 -2.056,-0.867 -2.708,-1.562 0.835,-0.131 1.287,-0.666 1.287,-0.666 -1.061,-0.013 -1.824,-0.3 -2.485,-0.699 -0.565,-0.614 -1.233,-1.202 -2.254,-1.631 -0.294,-0.125 -0.606,-0.21 -0.922,-0.276 -0.086,-0.025 -0.178,-0.063 -0.258,-0.073 -0.906,-0.114 -1.845,0.051 -2.737,0.603 -0.322,0.2 -0.214,0.639 0.117,0.623 1.741,-0.085 2.866,0.582 3.47,1.633 2.169,3.7719999 5.344,3.8749999 5.344,3.8749999 0,0 -1.29,-0.688 -2.001,-2.1489999 z m 5.11,13.3299999 -0.361,-7.566 1.029,0.228 0.45,7.208 c -0.377,0.071 -1.118,0.13 -1.118,0.13 z"
     id="path28"
     inkscape:connector-curvature="0"
     style="fill:#292f33" />
  <path
     d="m 2.286,12.706863 c -0.191,0 -0.374,-0.11 -0.457,-0.296 -0.112,-0.252 0.001,-0.548 0.254,-0.66 6.139,-2.7359999 11.218,-2.7349999 11.477,-2.7469999 0.275,10e-4 0.498,0.226 0.497,0.502 -0.001,0.275 -0.226,0.4979999 -0.5,0.4979999 l -0.004,0 c -0.104,0 -5.15,0.025 -11.063,2.66 -0.066,0.029 -0.135,0.043 -0.204,0.043 z"
     id="path30"
     inkscape:connector-curvature="0"
     style="fill:#623120" />
  <path
     d="m 18.807,5.4728631 c -0.438,-1.469 -3.256,-1.231 -3.077,-2.591 l -0.121,0.243 c -0.028,-0.207 -0.079,-0.416 -0.171,-0.62 -0.45,-0.997 -1.522,-1.486 -2.394,-1.092 -0.756,0.341 -1.738,0.349 -1.341,1.636 0.061,0.197 0.134,0.451 0.248,0.703 0.452,0.996 1.849,1.665 2.722,1.271 0.05,-0.022 0.091,-0.055 0.137,-0.082 0.207,0.123 0.84,0.506 1.864,1.205 1.207,0.823 2.568,0.797 2.133,-0.673 z"
     id="path32"
     inkscape:connector-curvature="0"
     style="fill:#ffdc5d" />
  <path
     d="m 11.821,1.3758631 c 0.256,-0.5 1.301,-1.065 2.192,-1.01 1.005,0.063 1.564,0.76 1.795,1.633 0.114,0.43 0.045,0.914 -0.043,1.27 0,0 -0.965,-0.087 -0.858,-0.15 0.198,-0.117 0.034,-0.815 -0.218,-0.907 -0.265,-0.097 -0.361,0.163 -0.324,0.364 0.036,0.201 0.032,0.324 -0.08,0.398 -0.112,0.074 -0.489,-0.502 -0.765,-0.614 -0.455,-0.185 -1.491,1.132 -1.816,0.69 -0.202,-0.276 -0.2,-1.055 0.117,-1.674 z"
     id="path34"
     inkscape:connector-curvature="0"
     style="fill:#ffac33" />
  <path
     d="m 13.095,2.8058631 c 0,0 1.582,-0.754 1.988,-0.869 0.406,-0.115 0.603,-0.166 0.671,-0.252 0.067,-0.086 -0.103,-0.225 -0.178,-0.316 -0.075,-0.091 -0.44,-0.974 -1.275,-1.243 -0.696,-0.224 -1.202,-0.111 -1.583,0.045 -0.381,0.156 -1.184,0.512 -1.366,1.842 -0.096,0.745 0.038,1.145 0.038,1.145 0,0 -0.476,0.136 -0.523,0.144 -0.047,0.008 -0.042,0.126 0.179,0.181 0.221,0.055 1.292,-0.068 1.64,-0.231 0.348,-0.163 0.318,-0.371 0.409,-0.446 z"
     id="path36"
     inkscape:connector-curvature="0"
     style="fill:#9266cc" />
  <path
     d="m 20.76,14.128863 c -0.186,-0.532 -0.248,-0.716 -0.554,-1.524 -0.1,-0.264 -0.219,-0.585 -0.369,-0.993 l -1.934,0.745 c 0.176,0.383 0.313,0.688 0.426,0.946 0.364,0.832 0.475,1.321 0.592,1.877 l -0.801,0.291 c -0.387,0.168 -0.811,0.333 -0.858,0.933 -0.036,0.462 0.341,0.424 0.635,0.388 0.433,-0.052 3.093,-0.506 3.223,-0.788 0.117,-0.257 -0.139,-1.243 -0.36,-1.875 z"
     id="path38"
     inkscape:connector-curvature="0" />
  <path
     d="m 17.903,12.356863 c 0,0 -0.2,-0.506 -0.395,-1.169 -0.376,-1.2819999 -0.565,-2.3139999 3.451,-3.3349999 -0.024,-0.042 -0.056,-0.092 -0.099,-0.152 -1.324,-1.858 -4.253,-3.696 -3.491,-3.815 3.832,-0.601 5.007,-0.007 6.684,2.349 0.827,1.162 0.936,1.593 0.784,2.191 -0.59,2.3279999 -5.15,1.272 -5,3.1859999 l -1.934,0.745 z"
     id="path40"
     inkscape:connector-curvature="0"
     style="fill:#ccd6dd" />
  <path
     d="m 17.371,7.0428631 c 1.535,1.055 2.339,-0.154 3.588,0.81 l 3.277,-1.322 c -1.281,-2.465 -4.879,-4.553 -7.86,-3.024 -0.693,0.355 -1.185,1.024 -1.041,1.804 0.289,1.56 1.405,1.299 2.036,1.732 z"
     id="path42"
     inkscape:connector-curvature="0"
     style="fill:#5c913b" />
  <path
     d="m 17.869,5.1098631 c -0.031,-0.08 -0.117,-0.287 -0.179,-0.356 -0.3,-0.419 -0.842,-0.609 -1.34,-0.406 -0.583,0.238 -0.864,0.903 -0.626,1.487 0.924,2.413 1.142,2.651 1.032,2.839 -0.03,0.03 -0.348,0.284 -2.323,0.09 l -0.501,0.193 0,1 0.305,0.7969999 c 1.924,0.189 3.359,0.114 4.107,-0.8649999 0.879,-1.152 0.428,-2.421 -0.475,-4.779 z"
     id="path44"
     inkscape:connector-curvature="0"
     style="fill:#a6d388" />
  <path
     d="m 14.434,8.7638631 c -1.893,-1.191 -2.035,0.25 -2.089,0.799 -0.054,0.5499999 -0.098,0.9949999 1.893,1.1909999 l 0.196,-1.9899999 z"
     id="path46"
     inkscape:connector-curvature="0"
     style="fill:#ffdc5d" />
  <path
     d="m 18.205,15.434863 0.447,-0.159 c -0.488,-1.218 -1.031,-1.021 -1.071,-1.006 -0.2,0.076 -0.925,1.053 -0.316,2.516 0.039,0.093 0.126,0.15 0.22,0.154 0.036,0.002 0.073,-0.005 0.107,-0.019 0.127,-0.054 0.188,-0.199 0.135,-0.327 -0.373,-0.896 -0.142,-1.651 0.031,-1.725 0.172,-0.073 0.411,0.302 0.447,0.566 z"
     id="path48"
     inkscape:connector-curvature="0"
     style="fill:#aab8c2" />
</svg>
