<?xml version="1.0" encoding="UTF-8" standalone="no"?>
<svg
   xmlns:dc="http://purl.org/dc/elements/1.1/"
   xmlns:cc="http://creativecommons.org/ns#"
   xmlns:rdf="http://www.w3.org/1999/02/22-rdf-syntax-ns#"
   xmlns:svg="http://www.w3.org/2000/svg"
   xmlns="http://www.w3.org/2000/svg"
   xmlns:sodipodi="http://sodipodi.sourceforge.net/DTD/sodipodi-0.dtd"
   xmlns:inkscape="http://www.inkscape.org/namespaces/inkscape"
   viewBox="0 0 36.057003 35.77"
   id="svg2"
   version="1.1"
   inkscape:version="0.91 r13725"
   sodipodi:docname="1f3c6.svg"
   width="36.057003"
   height="35.77">
  <metadata
     id="metadata16">
    <rdf:RDF>
      <cc:Work
         rdf:about="">
        <dc:format>image/svg+xml</dc:format>
        <dc:type
           rdf:resource="http://purl.org/dc/dcmitype/StillImage" />
      </cc:Work>
    </rdf:RDF>
  </metadata>
  <defs
     id="defs14" />
  <sodipodi:namedview
     pagecolor="#ffffff"
     bordercolor="#666666"
     borderopacity="1"
     objecttolerance="10"
     gridtolerance="10"
     guidetolerance="10"
     inkscape:pageopacity="0"
     inkscape:pageshadow="2"
     inkscape:window-width="640"
     inkscape:window-height="480"
     id="namedview12"
     showgrid="false"
     inkscape:zoom="6.5555556"
     inkscape:cx="17.999344"
     inkscape:cy="18"
     inkscape:window-x="0"
     inkscape:window-y="0"
     inkscape:window-maximized="0"
     inkscape:current-layer="svg2" />
  <path
     d="m 5.122344,4.7700011 6,0 c 1.104,0 1.877,-0.104 1.877,1 l 0,-2 c 0,-1.104 -0.773,-2 -1.877,-2 l -8,0 c -2,0 -3.58299997,2.125 -2.99999997,5 0,0 1.79099997,9.3749999 1.91699997,9.9579999 0.333,1.542 2.124,3.042 4.041,3.042 l 6.958,0 c 1.105,0 -0.039,-1.896 -0.039,-3 l 0,-2 c 0,1.104 -0.773,2 -1.877,2 l -4,0 c -1.104,0 -1.833,-1.042 -2,-2 -0.167,-0.958 -1.584,-7.3329999 -1.584,-7.3329999 -0.333,-1.917 0.479,-2.667 1.584,-2.667 z m 25.812,0 -6,0 c -1.104,0 -2.935,-0.104 -2.935,1 l 0,-2 c 0,-1.104 1.831,-2 2.935,-2 l 8,0 c 2,0 3.584,2.125 3,5 0,0 -1.633,9.4189999 -1.771,9.9999999 -0.354,1.5 -2.042,3 -4,3 l -7.146,0 c -1.104,0 -1.018,-1.896 -1.018,-3 l 0,-2 c 0,1.104 1.831,2 2.935,2 l 4,0 c 1.104,0 1.834,-1.042 2,-2 0.166,-0.958 1.584,-7.3329999 1.584,-7.3329999 0.332,-1.917 -0.479,-2.667 -1.584,-2.667 z m -10.103,16.9999999 c 0,-6.958 -2.709,0 -2.709,0 0,0 -3,-6.958 -3,0 0,6.958 -3.291,10 -3.291,10 l 12.292,0 c -0.001,0 -3.292,-3.042 -3.292,-10 z"
     id="path4"
     inkscape:connector-curvature="0"
     style="fill:#ffac33" />
  <path
     d="m 29.122344,6.3470011 c 0,6.7749999 -6.77,18.1919999 -11,18.1919999 -4.231,0 -11,-11.417 -11,-18.1919999 0,-5.195 1,-6.31900001 3,-6.31900001 1.374,0 6.025,-0.027 8,-0.027 l 7,-9.999983618e-4 c 2.917,-9.999999982e-4 4,0.6839999983618 4,6.3470000083618 z"
     id="path6"
     inkscape:connector-curvature="0"
     style="fill:#ffcc4d" />
  <path
     d="m 26.999344,32.770001 c 0,1.104 0.227,2 -0.877,2 l -16,0 c -1.105,0 -1.123,-0.896 -1.123,-2 l 0,-1 c 0,-1.104 1.164,-2 2.206,-2 l 13.917,0 c 1.042,0 1.877,0.896 1.877,2 l 0,1 z"
     id="path8"
     inkscape:connector-curvature="0"
     style="fill:#c1694f" />
  <path
     d="m 28.999344,34.395001 c 0,0.76 0.165,1.375 -1.252,1.375 l -19.25,0 c -1.292,0 -1.498,-0.615 -1.498,-1.375 l 0,-0.25 c 0,-0.76 0.738,-1.375 1.498,-1.375 l 19.25,0 c 0.759,0 1.252,0.615 1.252,1.375 l 0,0.25 z"
     id="path10"
     inkscape:connector-curvature="0"
     style="fill:#c1694f" />
</svg>
