<?xml version="1.0" encoding="UTF-8" standalone="no"?>
<svg
   xmlns:dc="http://purl.org/dc/elements/1.1/"
   xmlns:cc="http://creativecommons.org/ns#"
   xmlns:rdf="http://www.w3.org/1999/02/22-rdf-syntax-ns#"
   xmlns:svg="http://www.w3.org/2000/svg"
   xmlns="http://www.w3.org/2000/svg"
   xmlns:sodipodi="http://sodipodi.sourceforge.net/DTD/sodipodi-0.dtd"
   xmlns:inkscape="http://www.inkscape.org/namespaces/inkscape"
   viewBox="0 0 36.017345 20"
   id="svg2"
   version="1.1"
   inkscape:version="0.91 r13725"
   sodipodi:docname="1f3ce.svg"
   width="36.017345"
   height="20">
  <metadata
     id="metadata34">
    <rdf:RDF>
      <cc:Work
         rdf:about="">
        <dc:format>image/svg+xml</dc:format>
        <dc:type
           rdf:resource="http://purl.org/dc/dcmitype/StillImage" />
      </cc:Work>
    </rdf:RDF>
  </metadata>
  <defs
     id="defs32" />
  <sodipodi:namedview
     pagecolor="#ffffff"
     bordercolor="#666666"
     borderopacity="1"
     objecttolerance="10"
     gridtolerance="10"
     guidetolerance="10"
     inkscape:pageopacity="0"
     inkscape:pageshadow="2"
     inkscape:window-width="640"
     inkscape:window-height="480"
     id="namedview30"
     showgrid="false"
     inkscape:zoom="6.5555556"
     inkscape:cx="18.017345"
     inkscape:cy="17"
     inkscape:window-x="0"
     inkscape:window-y="0"
     inkscape:window-maximized="0"
     inkscape:current-layer="svg2" />
  <path
     d="m 30.017345,8 3,0 2,-6 -3,0 z"
     id="path4"
     inkscape:connector-curvature="0"
     style="fill:#414042" />
  <path
     d="m 29.017345,4 c 0,0 -3,-4 -4,-4 l -9,0 -6,5 -6.0810004,1.77 c -0.62,0.217 -1.45,0.636 -1.56,1.23 L 0.01734463,18 c -0.125,0.646 0.448,1 0.99999997,1 l 34.0000004,0 c 0.553,0 1,-0.447 1,-1 l 0,-12 c 0,-2 -7,-2 -7,-2 z"
     id="path6"
     inkscape:connector-curvature="0"
     style="fill:#f4900c" />
  <path
     d="m 16.111345,5 -5.094,14 12,0 5,-14 z"
     id="path8"
     inkscape:connector-curvature="0"
     style="fill:#3b88c3" />
  <circle
     cx="8.0173445"
     cy="16"
     r="4"
     id="circle10"
     style="fill:#292f33" />
  <circle
     cx="8.0173445"
     cy="16"
     r="2"
     id="circle12"
     style="fill:#58595b" />
  <circle
     cx="29.017345"
     cy="16"
     r="4"
     id="circle14"
     style="fill:#292f33" />
  <circle
     cx="29.017345"
     cy="16"
     r="2"
     id="circle16"
     style="fill:#58595b" />
  <circle
     cx="19.517345"
     cy="11.5"
     r="3.5"
     id="circle18"
     style="fill:#ffffff" />
  <path
     d="m 21.072345,10.242 c 0,0.441 -0.19,0.826 -0.574,1.072 0.504,0.23 0.854,0.699 0.854,1.254 0,0.84 -0.769,1.547 -1.764,1.547 -1.037,0 -1.682,-0.764 -1.682,-1.316 0,-0.273 0.287,-0.469 0.539,-0.469 0.477,0 0.364,0.818 1.156,0.818 0.363,0 0.658,-0.279 0.658,-0.65 0,-0.98 -1.191,-0.26 -1.191,-1.086 0,-0.734 0.995,-0.238 0.995,-1.016 0,-0.266 -0.188,-0.469 -0.505,-0.469 -0.665,0 -0.574,0.686 -1.05,0.686 -0.288,0 -0.456,-0.258 -0.456,-0.518 0,-0.547 0.75,-1.135 1.527,-1.135 1.009,10e-4 1.493,0.737 1.493,1.282 z"
     id="path20"
     inkscape:connector-curvature="0"
     style="fill:#231f20" />
  <path
     d="m 30.017345,3 1,-1 5,-1 0,2 z"
     id="path22"
     inkscape:connector-curvature="0"
     style="fill:#f4900c" />
  <path
     d="m 17.017345,1 8,0 0,4 -13,0 z"
     id="path24"
     inkscape:connector-curvature="0"
     style="fill:#88c9f9" />
  <path
     d="m 6.0173446,9 c 0,0.553 -0.448,1 -1,1 l -2,0 c -0.552,0 -1,-0.447 -1,-1 0,-0.553 0.448,-1 1,-1 l 2,0 c 0.552,0 1,0.447 1,1 z"
     id="path26"
     inkscape:connector-curvature="0"
     style="fill:#ffcc4d" />
  <path
     d="m 36.017345,7 -1,0 c -0.553,0 -1,0.447 -1,1 l 0,1 c 0,0.553 0.447,1 1,1 l 1,0 0,-3 z"
     id="path28"
     inkscape:connector-curvature="0"
     style="fill:#dd2e44" />
</svg>
