<?xml version="1.0" encoding="UTF-8" standalone="no"?>
<svg
   xmlns:dc="http://purl.org/dc/elements/1.1/"
   xmlns:cc="http://creativecommons.org/ns#"
   xmlns:rdf="http://www.w3.org/1999/02/22-rdf-syntax-ns#"
   xmlns:svg="http://www.w3.org/2000/svg"
   xmlns="http://www.w3.org/2000/svg"
   xmlns:sodipodi="http://sodipodi.sourceforge.net/DTD/sodipodi-0.dtd"
   xmlns:inkscape="http://www.inkscape.org/namespaces/inkscape"
   viewBox="0 0 30 35"
   id="svg2"
   version="1.1"
   inkscape:version="0.91 r13725"
   sodipodi:docname="1f3c1.svg"
   width="30"
   height="35">
  <metadata
     id="metadata20">
    <rdf:RDF>
      <cc:Work
         rdf:about="">
        <dc:format>image/svg+xml</dc:format>
        <dc:type
           rdf:resource="http://purl.org/dc/dcmitype/StillImage" />
      </cc:Work>
    </rdf:RDF>
  </metadata>
  <defs
     id="defs18" />
  <sodipodi:namedview
     pagecolor="#ffffff"
     bordercolor="#666666"
     borderopacity="1"
     objecttolerance="10"
     gridtolerance="10"
     guidetolerance="10"
     inkscape:pageopacity="0"
     inkscape:pageshadow="2"
     inkscape:window-width="640"
     inkscape:window-height="480"
     id="namedview16"
     showgrid="false"
     inkscape:zoom="6.5555556"
     inkscape:cx="15"
     inkscape:cy="18"
     inkscape:window-x="0"
     inkscape:window-y="0"
     inkscape:window-maximized="0"
     inkscape:current-layer="svg2" />
  <path
     d="M 2,35 C 0.896,35 0,34.104 0,33 L 0,2 C 0,0.896 0.896,0 2,0 3.104,0 4,0.896 4,2 l 0,31 c 0,1.104 -0.896,2 -2,2 z"
     id="path4"
     inkscape:connector-curvature="0"
     style="fill:#8899a6" />
  <path
     d="M 2,0 C 0.895,0 0,0.895 0,2 l 0,31 c 0,0.276 0.224,0.5 0.5,0.5 C 0.776,33.5 1,33.276 1,33 L 1,3.414 C 1,2.633 1.633,2 2.414,2 L 4,2 C 4,0.895 3.105,0 2,0 Z"
     id="path6"
     inkscape:connector-curvature="0"
     style="fill:#aab8c2" />
  <path
     d="M 2,35 C 0.896,35 0,34.104 0,33 L 0,2 C 0,0.896 0.896,0 2,0 3.104,0 4,0.896 4,2 l 0,31 c 0,1.104 -0.896,2 -2,2 z"
     id="path8"
     inkscape:connector-curvature="0"
     style="fill:#8899a6" />
  <path
     d="M 2,0 C 0.895,0 0,0.895 0,2 l 0,31 c 0,0.276 0.224,0.5 0.5,0.5 C 0.776,33.5 1,33.276 1,33 L 1,3.414 C 1,2.633 1.633,2 2.414,2 L 4,2 C 4,0.895 3.105,0 2,0 Z"
     id="path10"
     inkscape:connector-curvature="0"
     style="fill:#aab8c2" />
  <path
     d="M 29.396,2.082 C 27.732,1.363 25.959,1.006 24,0.974 L 22.625,1.354 18,2 17,1.872 C 16.763,1.923 16.524,1.971 16.289,2.022 14.12,2.491 12.059,2.916 10,3.004 L 9,4 3,3 l 0,19 6,0 1,2 0.077,0 c 2.244,-0.096 4.472,-0.556 6.633,-1.022 L 17,22.917 17.646,22.272 23.084,21.564 24,21.974 c 1.68,0.032 3.193,0.335 4.604,0.944 0.309,0.133 0.665,0.103 0.945,-0.082 C 29.831,22.65 30,22.337 30,22 L 30,3 C 30,2.601 29.763,2.24 29.396,2.082 Z"
     id="path12"
     inkscape:connector-curvature="0"
     style="fill:#31373d" />
  <path
     d="M 10,3.004 C 9.761,3.014 9.522,3.039 9.283,3.039 7.486,3.039 5.887,2.726 4.396,2.082 4.088,1.947 3.731,1.979 3.451,2.165 3.169,2.349 3,2.664 3,3 l 0,6 c 0,0 3.292,1 7,1 L 10,3.004 Z M 17,9 c 0,0 -3.75,1 -7,1 l 0,7 c 3,0 7,-1 7,-1 L 17,9 Z M 24,8 24,0.974 C 23.904,0.972 23.814,0.961 23.717,0.961 21.45,0.961 19.196,1.403 17,1.872 L 17,9 c 0,0 2.167,-1 7,-1 z M 3.604,22.918 c 1.5,0.648 3.09,0.993 4.82,1.082 L 10,24 10,17 C 5.833,17 3,16 3,16 l 0,6 c 0,0.399 0.237,0.76 0.604,0.918 z M 17,16 l 0,6.916 c 2.313,-0.499 4.511,-0.955 6.717,-0.955 0.097,0 0.187,0.011 0.283,0.013 L 24,15 c -4.5,0 -7,1 -7,1 z m 7,-1 c 2.676,0 4.82,0.56 6,0.954 L 30,8.908 C 28.853,8.527 26.769,8 24,8 l 0,7 z"
     id="path14"
     inkscape:connector-curvature="0"
     style="fill:#e1e8ed" />
</svg>
