<?xml version="1.0" encoding="UTF-8" standalone="no"?>
<svg
   xmlns:dc="http://purl.org/dc/elements/1.1/"
   xmlns:cc="http://creativecommons.org/ns#"
   xmlns:rdf="http://www.w3.org/1999/02/22-rdf-syntax-ns#"
   xmlns:svg="http://www.w3.org/2000/svg"
   xmlns="http://www.w3.org/2000/svg"
   xmlns:sodipodi="http://sodipodi.sourceforge.net/DTD/sodipodi-0.dtd"
   xmlns:inkscape="http://www.inkscape.org/namespaces/inkscape"
   viewBox="0 0 36 36"
   id="svg2"
   version="1.1"
   inkscape:version="0.91 r13725"
   sodipodi:docname="1f3c5.svg"
   width="36"
   height="36">
  <metadata
     id="metadata18">
    <rdf:RDF>
      <cc:Work
         rdf:about="">
        <dc:format>image/svg+xml</dc:format>
        <dc:type
           rdf:resource="http://purl.org/dc/dcmitype/StillImage" />
      </cc:Work>
    </rdf:RDF>
  </metadata>
  <defs
     id="defs16" />
  <sodipodi:namedview
     pagecolor="#ffffff"
     bordercolor="#666666"
     borderopacity="1"
     objecttolerance="10"
     gridtolerance="10"
     guidetolerance="10"
     inkscape:pageopacity="0"
     inkscape:pageshadow="2"
     inkscape:window-width="640"
     inkscape:window-height="480"
     id="namedview14"
     showgrid="false"
     inkscape:zoom="6.5555556"
     inkscape:cx="18"
     inkscape:cy="18"
     inkscape:window-x="0"
     inkscape:window-y="0"
     inkscape:window-maximized="0"
     inkscape:current-layer="svg2" />
  <path
     d="M 18,8 11,0 0,0 14,17 25.521,12.25 Z"
     id="path4"
     inkscape:connector-curvature="0"
     style="fill:#55acee" />
  <path
     d="m 25,0 -7,8 5.39,7.312 1.227,-1.489 L 36,0 Z"
     id="path6"
     inkscape:connector-curvature="0"
     style="fill:#3b88c3" />
  <path
     d="m 23.26,16.026 c 0.08,-0.217 0.131,-0.448 0.131,-0.693 0,-1.104 -0.896,-2 -2,-2 l -6.667,0 c -1.105,0 -2,0.896 -2,2 0,0.245 0.05,0.476 0.131,0.693 -3.258,1.826 -5.464,5.307 -5.464,9.307 0,5.891 4.775,10.667 10.667,10.667 5.891,0 10.667,-4.776 10.667,-10.667 -0.001,-4 -2.206,-7.481 -5.465,-9.307 z"
     id="path8"
     inkscape:connector-curvature="0"
     style="fill:#ffac33" />
  <circle
     cx="18.058001"
     cy="25.333"
     r="8"
     id="circle10"
     style="fill:#ffd983" />
  <path
     d="m 21.278,30.634 c -0.142,0 -0.284,-0.044 -0.406,-0.131 L 18,28.444 15.129,30.503 C 14.884,30.678 14.556,30.678 14.313,30.5 14.07,30.324 13.968,30.011 14.058,29.726 l 1.071,-3.456 -2.845,-2.005 c -0.242,-0.178 -0.342,-0.492 -0.25,-0.778 0.093,-0.285 0.358,-0.479 0.659,-0.481 l 3.524,-0.005 1.122,-3.37 c 0.095,-0.285 0.361,-0.477 0.662,-0.477 0.3,0 0.567,0.192 0.662,0.477 l 1.103,3.37 3.542,0.005 c 0.301,0.002 0.567,0.196 0.659,0.481 0.093,0.286 -0.008,0.599 -0.25,0.778 l -2.846,2.005 1.071,3.456 c 0.092,0.286 -0.012,0.598 -0.254,0.774 -0.123,0.09 -0.267,0.134 -0.41,0.134 z"
     id="path12"
     inkscape:connector-curvature="0"
     style="fill:#ffac33" />
</svg>
