<?xml version="1.0" encoding="UTF-8" standalone="no"?>
<svg
   xmlns:dc="http://purl.org/dc/elements/1.1/"
   xmlns:cc="http://creativecommons.org/ns#"
   xmlns:rdf="http://www.w3.org/1999/02/22-rdf-syntax-ns#"
   xmlns:svg="http://www.w3.org/2000/svg"
   xmlns="http://www.w3.org/2000/svg"
   xmlns:sodipodi="http://sodipodi.sourceforge.net/DTD/sodipodi-0.dtd"
   xmlns:inkscape="http://www.inkscape.org/namespaces/inkscape"
   viewBox="0 0 20.977406 35.863838"
   id="svg2"
   version="1.1"
   inkscape:version="0.91 r13725"
   sodipodi:docname="1f3cc-1f3fe-200d-2640-fe0f.svg"
   width="20.977406"
   height="35.863838">
  <metadata
     id="metadata42">
    <rdf:RDF>
      <cc:Work
         rdf:about="">
        <dc:format>image/svg+xml</dc:format>
        <dc:type
           rdf:resource="http://purl.org/dc/dcmitype/StillImage" />
      </cc:Work>
    </rdf:RDF>
  </metadata>
  <defs
     id="defs40" />
  <sodipodi:namedview
     pagecolor="#ffffff"
     bordercolor="#666666"
     borderopacity="1"
     objecttolerance="10"
     gridtolerance="10"
     guidetolerance="10"
     inkscape:pageopacity="0"
     inkscape:pageshadow="2"
     inkscape:window-width="640"
     inkscape:window-height="480"
     id="namedview38"
     showgrid="false"
     inkscape:zoom="6.5555556"
     inkscape:cx="8.6587521"
     inkscape:cy="18"
     inkscape:window-x="0"
     inkscape:window-y="0"
     inkscape:window-maximized="0"
     inkscape:current-layer="svg2" />
  <path
     d="m 13.989752,31.434839 c -0.397,-0.703 -2.062,-3.517 -2.271,-4.202 -0.208,-0.688 -0.65,-5.92 -0.425,-8.497 0,0 -4.1699999,-2.707 -3.8049999,0.281 0.371,3.032 1.247,8.775 1.412,9.329 0.166,0.552 2.5889999,3.442 3.3419999,4.393 0.417,0.527 2.093,-0.693 1.747,-1.304 z"
     id="path4"
     inkscape:connector-curvature="0"
     style="fill:#9b6a49" />
  <path
     d="m 11.409752,18.735839 -4.4799999,0.281 c 0.237,1.643 -0.646,4.644 1.51,6.081 0,0 2.8169999,-0.587 4.4379999,-0.047 0.812,0.271 -1.623,-4.811 -1.468,-6.315 z"
     id="path6"
     inkscape:connector-curvature="0"
     style="fill:#be1931" />
  <path
     d="m 10.408752,17.957839 c -0.5189999,-2.866 -5.2199999,0.469 -5.2199999,0.469 0,0 -1.768,8.649 -1.768,9.48 0,0.828 0.914,4.528 1.165,5.856 0.084,0.439 2.633,0.614 2.523,-0.354 -0.069,-0.599 -0.517,-4.492 -0.444,-4.948 0.073,-0.458 0.452,-2.888 1.109,-4.426 0.47,-1.1 3.3279999,-2.249 2.6349999,-6.077 z"
     id="path8"
     inkscape:connector-curvature="0"
     style="fill:#af7e57" />
  <path
     d="m 4.5957521,18.425839 -1.781,5.875 c 2.484,0.953 5.564,0.936 5.625,0.797 0.082,-0.187 -0.521,-0.597 -0.431,-0.767 0.586,-1.1 4.2389999,-2.546 3.3739999,-6.374 -0.647,-2.865 -6.7869999,0.469 -6.7869999,0.469 z"
     id="path10"
     inkscape:connector-curvature="0"
     style="fill:#dd2e44" />
  <path
     d="m 3.8867521,3.3438386 c -0.152,0.278 -0.643,0.3 -1.093,0.052 l -2.61299998,-1.419 c -0.45,-0.249 0.028,-1.30300004 0.478,-1.05400004 L 3.3507521,2.3888386 c 0.45,0.249 0.536,0.955 0.536,0.955 z"
     id="path12"
     inkscape:connector-curvature="0"
     style="fill:#66757f" />
  <path
     d="m 7.1697521,33.607839 c -0.658,-0.864 -4.719,0.256 -6.118,0.957 -0.93399998,0.469 -0.65699998,1.299 -0.65699998,1.299 l 7.03299998,0 c 0,0 0.4,-1.391 -0.258,-2.256 z"
     id="path14"
     inkscape:connector-curvature="0"
     style="fill:#ccd6dd" />
  <path
     d="m 11.015752,8.7958386 c -2.1479999,-1.12 -5.0229999,-2.745 -7.2729999,-5.713 -0.235,-0.31 -2.122,0.944 -1.969,1.156 2.125,2.938 4.438,5.5 11.0749999,7.3980004 0.069,0.02 -0.943,-2.3760004 -1.833,-2.8410004 z"
     id="path16"
     inkscape:connector-curvature="0"
     style="fill:#9b6a49" />
  <path
     d="m 16.053752,5.0798386 c 0,1.976 -1.601,3.579 -3.578,3.579 -1.977,0 -3.5799999,-1.603 -3.5799999,-3.579 0,-1.976 1.6029999,-3.579 3.5799999,-3.579 1.977,0 3.578,1.602 3.578,3.579"
     id="path18"
     inkscape:connector-curvature="0"
     style="fill:#af7e57" />
  <path
     d="m 10.606752,5.0788386 c -1.7099999,-1.278 -2.5869999,-3.85 -1.9499999,-4.52500004 1.196,-1.268 3.6879999,-0.109 4.3279999,0.98300004 0.641,1.094 -1.86,3.929 -2.378,3.542 z"
     id="path20"
     inkscape:connector-curvature="0"
     style="fill:#dd2e44" />
  <path
     d="m 4.5957521,18.425839 c 0,0 -0.685,-6.782 2.383,-9.1490004 2.289,-1.768 6.1429999,-0.446 7.1649999,1.5990004 1.024,2.045 -2.635,3.167 -2.635,8.28 0.001,1.023 -6.9129999,1.274 -6.9129999,-0.73 z"
     id="path22"
     inkscape:connector-curvature="0"
     style="fill:#9266cc" />
  <path
     d="m 10.856752,5.6768386 c -0.466,1.068 -0.788,1.977 -0.9879999,2.783 0.5739999,0.271 1.0609999,1.31 1.7009999,1.5420004 1.056,0.383 1.173,-0.2770004 1.197,-0.3980004 0.257,-1.297 0.908,-2.537 1.328,-3.203 0.512,-0.809 -2.645,-2.084 -3.238,-0.724 z"
     id="path24"
     inkscape:connector-curvature="0"
     style="fill:#af7e57" />
  <path
     d="m 9.6197521,2.9238386 c 0,1.151 1.6739999,4.486 4.9709999,4.473 1.727,-0.007 2.037,-1.91 2.028,-3.172 -0.006,-1.081 -1.176,-2.966 -2.808,-3.43300004 -1.631,-0.467 -4.1909999,0.67900004 -4.1909999,2.13200004 z"
     id="path26"
     inkscape:connector-curvature="0"
     style="fill:#ea596e" />
  <path
     d="m 13.564752,31.319839 c 1.5,-0.255 1.286,1.386 1.247,1.974 -0.093,1.4 -0.37,2.57 -1.362,2.57 l -3.321,0 c 0,0 -0.1839999,-1.522 1.603,-1.868 0.353,-0.069 -0.312,-2.312 1.833,-2.676 z"
     id="path28"
     inkscape:connector-curvature="0"
     style="fill:#ccd6dd" />
  <path
     d="m 8.5747521,9.5358386 c -1.993,0 -3.435,-0.498 -4.286,-1.481 -0.717,-0.828 -0.977,-1.983 -0.796,-3.425 0.592,-0.259 1.006,-0.833 1.006,-1.503 0,-0.913 -0.763,-1.652 -1.705,-1.652 -0.94,0 -1.704,0.739 -1.704,1.652 0,0.194 0.041,0.377 0.104,0.55 -0.004,0.017 -0.015,0.03 -0.017,0.048 -0.87099998,7.1230004 4.099,7.8240004 5.732,8.0550004 0.101,0.014 1.768,-2.2440004 1.666,-2.2440004 z"
     id="path30"
     inkscape:connector-curvature="0"
     style="fill:#af7e57" />
  <path
     d="m 14.164752,7.7678386 c 0,0 -0.199,-1.072 1.3,-1.197 1.236,-0.103 1.563,1.248 2.458,1.731 0.675,0.364 1.447,0.376 1.985,0.013 0,0 -0.74,0.896 -1.571,1.238 -1.08,0.444 -2.411,0.159 -3.046,-0.181 -0.992,-0.531 -1.126,-1.604 -1.126,-1.604 z"
     id="path32"
     inkscape:connector-curvature="0"
     style="fill:#60352a" />
  <path
     d="m 20.266752,11.780839 c -0.013,-0.006 -0.025,-0.007 -0.037,-0.012 -0.049,-0.036 -0.091,-0.076 -0.147,-0.107 L 4.4627521,3.0118386 c -0.449,-0.249 -0.706,0.926 -0.257,1.175 L 19.088752,12.426839 c -0.436,0.748 -0.717,1.871 -0.827,2.339 -0.189,0.805 1.137,1.61 2.004,1.61 0.867,0.001 1.027,-4.072 0.001,-4.595 z"
     id="path34"
     inkscape:connector-curvature="0"
     style="fill:#66757f" />
  <path
     d="m 5.1037521,8.2488386 c -0.384,1.283 -1.605,2.7230004 -1.605,2.7230004 1.765,1.579 3.844,1.719 3.844,1.719 0,0 1.818,-2.049 2.159,-3.2800004 -1.551,0.432 -4.398,-1.162 -4.398,-1.162 z"
     id="path36"
     inkscape:connector-curvature="0"
     style="fill:#9266cc" />
</svg>
