<?xml version="1.0" encoding="UTF-8" standalone="no"?>
<svg
   xmlns:dc="http://purl.org/dc/elements/1.1/"
   xmlns:cc="http://creativecommons.org/ns#"
   xmlns:rdf="http://www.w3.org/1999/02/22-rdf-syntax-ns#"
   xmlns:svg="http://www.w3.org/2000/svg"
   xmlns="http://www.w3.org/2000/svg"
   xmlns:sodipodi="http://sodipodi.sourceforge.net/DTD/sodipodi-0.dtd"
   xmlns:inkscape="http://www.inkscape.org/namespaces/inkscape"
   viewBox="0 0 36 35.988003"
   id="svg2"
   version="1.1"
   inkscape:version="0.91 r13725"
   sodipodi:docname="1f3cb-1f3fe-200d-2640-fe0f.svg"
   width="36"
   height="35.988003">
  <metadata
     id="metadata92">
    <rdf:RDF>
      <cc:Work
         rdf:about="">
        <dc:format>image/svg+xml</dc:format>
        <dc:type
           rdf:resource="http://purl.org/dc/dcmitype/StillImage" />
      </cc:Work>
    </rdf:RDF>
  </metadata>
  <defs
     id="defs90" />
  <sodipodi:namedview
     pagecolor="#ffffff"
     bordercolor="#666666"
     borderopacity="1"
     objecttolerance="10"
     gridtolerance="10"
     guidetolerance="10"
     inkscape:pageopacity="0"
     inkscape:pageshadow="2"
     inkscape:window-width="640"
     inkscape:window-height="480"
     id="namedview88"
     showgrid="false"
     inkscape:zoom="6.5555556"
     inkscape:cx="18"
     inkscape:cy="17.988002"
     inkscape:window-x="0"
     inkscape:window-y="0"
     inkscape:window-maximized="0"
     inkscape:current-layer="svg2" />
  <path
     d="m 18.528,3.81 c -0.731,0 -1.421,0.173 -2.037,0.472 -0.167,-0.029 -0.338,-0.047 -0.513,-0.047 -1.643,0 -2.975,1.332 -2.975,2.975 l 0,5.1 0.007,0 c 0.078,2.748 2.326,4.954 5.093,4.954 2.767,0 5.015,-2.206 5.093,-4.954 l 0.007,0 0,-3.825 C 23.203,5.903 21.11,3.81 18.528,3.81 Z"
     id="path4"
     inkscape:connector-curvature="0"
     style="fill:#60352a" />
  <path
     d="m 15.447,34.875 -1.02,0 c 0,0 -1.384,-3.348 -1.18,-5.736 l 2.531,0.549 c 0.56,1.564 -0.331,5.187 -0.331,5.187 z m 4.885,0 1.02,0 c 0,0 1.384,-3.348 1.18,-5.736 L 20,29.688 c -0.559,1.564 0.332,5.187 0.332,5.187 z"
     id="path6"
     inkscape:connector-curvature="0"
     style="fill:#af7e57" />
  <path
     d="m 13.452,35.149 c 0.102,-0.243 0.316,-0.694 0.339,-0.955 0.023,-0.261 0.034,-0.354 0.238,-0.426 0.345,-0.121 1.427,-0.087 1.613,-0.016 0.185,0.071 0.188,0.263 0.214,0.424 0.026,0.161 0.113,0.424 0.226,0.64 0.113,0.216 0.406,0.697 0.26,1.034 -0.061,0.14 -0.402,0.138 -1.497,0.138 -1.095,0 -1.408,-0.026 -1.483,-0.118 -0.075,-0.092 -0.011,-0.477 0.09,-0.721 z m 8.875,0 c -0.102,-0.243 -0.316,-0.694 -0.339,-0.955 -0.023,-0.261 -0.034,-0.354 -0.238,-0.426 -0.345,-0.121 -1.427,-0.087 -1.613,-0.016 -0.185,0.071 -0.188,0.263 -0.214,0.424 -0.026,0.161 -0.113,0.424 -0.226,0.64 -0.113,0.216 -0.406,0.697 -0.26,1.034 0.061,0.14 0.402,0.138 1.497,0.138 1.095,0 1.408,-0.026 1.483,-0.118 0.074,-0.092 0.011,-0.477 -0.09,-0.721 z"
     id="path8"
     inkscape:connector-curvature="0"
     style="fill:#dd2e44" />
  <path
     d="m 8.31,4.156 c 0.011,0.127 0.814,1.525 1.266,2.625 0.452,1.1 0.747,2.25 0.984,2.5 0.476,0.499 1.926,1.474 2.911,2.937 0.985,1.464 -1.977,2.58 -2.611,1.588 C 10.409,13.1 9.551,11.438 8.763,10.047 8.459,9.507 7.866,8.593 7.435,7.531 7.029,6.531 6.793,5.363 6.733,5.219 6.554,4.794 5.854,4.242 5.82,3.812 c 0,0 2.454,-0.084 2.49,0.344 z m 19.159,0 c -0.011,0.127 -0.814,1.525 -1.266,2.625 -0.452,1.1 -0.747,2.25 -0.984,2.5 -0.476,0.499 -1.926,1.474 -2.911,2.937 -0.985,1.464 1.977,2.58 2.611,1.588 0.451,-0.706 1.309,-2.368 2.097,-3.759 0.304,-0.54 0.897,-1.454 1.328,-2.516 0.406,-1 0.642,-2.168 0.702,-2.312 0.178,-0.425 0.878,-0.977 0.912,-1.406 0,-0.001 -2.453,-0.085 -2.489,0.343 z"
     id="path10"
     inkscape:connector-curvature="0"
     style="fill:#af7e57" />
  <path
     d="M 36,3.5 C 36,3.776 35.776,4 35.5,4 L 0.5,4 C 0.224,4 0,3.776 0,3.5 0,3.224 0.224,3 0.5,3 l 35,0 C 35.776,3 36,3.224 36,3.5 Z"
     id="path12"
     inkscape:connector-curvature="0"
     style="fill:#99aab5" />
  <path
     d="M 34,0 C 33.447,0 33,0.448 33,1 33,0.448 32.553,0 32,0 31.447,0 31,0.448 31,1 l 0,5 c 0,0.552 0.447,1 1,1 0.553,0 1,-0.448 1,-1 0,0.552 0.447,1 1,1 0.553,0 1,-0.448 1,-1 L 35,1 C 35,0.448 34.553,0 34,0 Z M 4,0 C 3.447,0 3,0.448 3,1 3,0.448 2.553,0 2,0 1.447,0 1,0.448 1,1 L 1,6 C 1,6.552 1.447,7 2,7 2.553,7 3,6.552 3,6 3,6.552 3.447,7 4,7 4.553,7 5,6.552 5,6 L 5,1 C 5,0.448 4.553,0 4,0 Z"
     id="path14"
     inkscape:connector-curvature="0"
     style="fill:#292f33" />
  <path
     d="m 24.918,13.806 c -0.625,-0.583 -2.611,-1.588 -2.611,-1.588 -0.709,0.401 -1.237,1.188 -1.465,1.571 l -1.398,0.394 -2.89,0 -1.627,-0.406 c -0.231,-0.387 -0.755,-1.162 -1.458,-1.559 0,0 -1.986,1.004 -2.611,1.588 0.406,1.039 1.543,2.428 1.543,2.428 l 0.008,-0.001 c 0.4,0.821 0.854,1.362 0.945,1.547 C 13.74,18.561 14,22.5 14,22.5 l 4,1.5 3.779,-1.5 c 0,0 0.26,-3.939 0.643,-4.719 0.091,-0.185 0.545,-0.727 0.945,-1.547 l 0.008,10e-4 c 0,-10e-4 1.138,-1.39 1.543,-2.429 z"
     id="path16"
     inkscape:connector-curvature="0"
     style="fill:#dd2e44" />
  <path
     d="m 16.471,11.412 0,3.059 c 0,0.844 0.684,1.529 1.529,1.529 0.845,0 1.529,-0.685 1.529,-1.529 l 0,-3.059 -3.058,0 z"
     id="path18"
     inkscape:connector-curvature="0"
     style="fill:#af7e57" />
  <path
     d="m 18.375,3.353 c -0.89,0 -1.712,0.284 -2.386,0.763 -1.385,0.072 -2.49,1.209 -2.49,2.612 0,1.156 0.005,2.613 1.529,3.156 0.749,1.04 1.967,1.719 3.347,1.719 2.278,0 4.125,-1.846 4.125,-4.125 0,-2.278 -1.847,-4.125 -4.125,-4.125 z"
     id="path20"
     inkscape:connector-curvature="0"
     style="fill:#60352a" />
  <path
     d="m 21.75,5.602 -7.5,0 0,4.5 c 0,2.072 1.679,3.75 3.75,3.75 2.072,0 3.75,-1.678 3.75,-3.75 l 0,-4.5 z"
     id="path22"
     inkscape:connector-curvature="0"
     style="fill:#af7e57" />
  <path
     d="m 18,4 -3.924,1.533 0,3.139 c 1.831,0 2.236,-1.893 2.327,-2.737 0.031,0.844 0.639,2.737 5.52,2.737 l 0,-3.139 L 18,4 Z"
     id="path24"
     inkscape:connector-curvature="0"
     style="fill:#60352a" />
  <path
     d="m 19.5,12.353 -3,0 c 0,0 0,0.75 1.5,0.75 1.5,0 1.5,-0.75 1.5,-0.75 z"
     id="path26"
     inkscape:connector-curvature="0"
     style="fill:#915a34" />
  <circle
     cx="16.125"
     cy="9.7279997"
     r="0.375"
     id="circle28"
     style="fill:#662113" />
  <path
     d="m 20.25,9.728 c 0,0.207 -0.168,0.375 -0.374,0.375 -0.208,0 -0.375,-0.168 -0.375,-0.375 0,-0.207 0.168,-0.375 0.375,-0.375 0.206,0 0.374,0.168 0.374,0.375 z"
     id="path30"
     inkscape:connector-curvature="0"
     style="fill:#662113" />
  <path
     d="m 17.25,10.853 1.5,0 c 0,0 0,0.75 -0.75,0.75 -0.75,0 -0.75,-0.75 -0.75,-0.75 z"
     id="path32"
     inkscape:connector-curvature="0"
     style="fill:#915a34" />
  <g
     id="g34"
     style="fill:#af7e57">
    <path
       d="M 27.096,4.363 C 26.766,4.206 26.62,3.935 26.719,3.644 l 0.003,-0.01 c 0.099,-0.291 0.291,-0.346 0.738,-0.339 0,0 1.521,0.076 2.437,0.712 0,0 -0.199,0.304 -0.447,0.56 l -0.003,0.01 c -0.101,0.29 -1.614,0.137 -2.351,-0.214 z"
       id="path36"
       inkscape:connector-curvature="0" />
    <path
       d="M 27.843,3.47 C 27.706,3.437 27.622,3.297 27.655,3.16 l 0.087,-0.357 c 0.033,-0.137 0.173,-0.221 0.31,-0.188 0.137,0.033 0.221,0.173 0.188,0.31 L 28.153,3.282 C 28.119,3.419 27.98,3.503 27.843,3.47 Z M 27.398,2.6 C 27.235,2.545 27.056,2.634 27.001,2.797 L 26.722,3.634 C 26.667,3.798 26.89,3.566 27.054,3.621 27.217,3.676 27.396,3.588 27.451,3.425 L 27.595,2.998 C 27.65,2.834 27.561,2.656 27.398,2.6 Z"
       id="path38"
       inkscape:connector-curvature="0" />
    <path
       d="M 28.384,3.399 C 28.247,3.366 28.163,3.226 28.196,3.089 l 0.082,-0.334 c 0.033,-0.137 0.173,-0.221 0.31,-0.188 0.137,0.033 0.221,0.173 0.188,0.31 l -0.082,0.334 c -0.034,0.137 -0.173,0.221 -0.31,0.188 z"
       id="path40"
       inkscape:connector-curvature="0" />
    <path
       d="M 28.9,3.424 C 28.763,3.391 28.679,3.251 28.712,3.114 L 28.78,2.837 c 0.033,-0.137 0.173,-0.221 0.31,-0.188 0.137,0.033 0.221,0.173 0.188,0.31 L 29.21,3.236 C 29.176,3.373 29.037,3.457 28.9,3.424 Z"
       id="path42"
       inkscape:connector-curvature="0" />
    <path
       d="M 29.419,3.447 C 29.282,3.414 29.198,3.274 29.231,3.137 l 0.04,-0.162 c 0.033,-0.137 0.173,-0.221 0.31,-0.188 0.137,0.033 0.221,0.173 0.188,0.31 l -0.04,0.162 c -0.034,0.137 -0.174,0.222 -0.31,0.188 z"
       id="path44"
       inkscape:connector-curvature="0" />
  </g>
  <g
     id="g46"
     style="fill:#af7e57">
    <path
       d="M 8.683,4.363 C 9.013,4.206 9.159,3.935 9.06,3.644 L 9.057,3.634 C 8.957,3.344 8.765,3.288 8.319,3.295 c 0,0 -1.521,0.076 -2.437,0.712 0,0 0.199,0.304 0.447,0.56 l 0.003,0.01 c 0.1,0.29 1.614,0.137 2.351,-0.214 z"
       id="path48"
       inkscape:connector-curvature="0" />
    <path
       d="M 7.936,3.47 C 8.073,3.437 8.157,3.297 8.124,3.16 L 8.036,2.803 C 8.003,2.666 7.863,2.582 7.726,2.615 7.59,2.649 7.505,2.788 7.539,2.925 L 7.626,3.282 C 7.66,3.419 7.799,3.503 7.936,3.47 Z M 8.381,2.6 C 8.544,2.545 8.723,2.634 8.778,2.797 L 9.057,3.634 C 9.112,3.798 8.889,3.566 8.725,3.621 8.562,3.676 8.383,3.588 8.328,3.425 L 8.184,2.998 C 8.129,2.834 8.217,2.656 8.381,2.6 Z"
       id="path50"
       inkscape:connector-curvature="0" />
    <path
       d="M 7.395,3.399 C 7.532,3.366 7.616,3.226 7.583,3.089 L 7.501,2.755 C 7.468,2.618 7.328,2.534 7.191,2.567 7.054,2.601 6.97,2.74 7.003,2.877 l 0.082,0.334 c 0.034,0.137 0.173,0.221 0.31,0.188 z"
       id="path52"
       inkscape:connector-curvature="0" />
    <path
       d="M 6.879,3.424 C 7.016,3.39 7.1,3.251 7.067,3.114 L 6.999,2.837 C 6.966,2.7 6.826,2.616 6.69,2.649 6.553,2.682 6.469,2.822 6.502,2.959 L 6.57,3.236 c 0.033,0.137 0.172,0.221 0.309,0.188 z"
       id="path54"
       inkscape:connector-curvature="0" />
    <path
       d="M 6.36,3.447 C 6.497,3.414 6.581,3.274 6.548,3.137 L 6.508,2.975 C 6.475,2.838 6.335,2.754 6.198,2.787 6.062,2.821 5.978,2.96 6.011,3.097 l 0.04,0.162 C 6.084,3.396 6.223,3.481 6.36,3.447 Z"
       id="path56"
       inkscape:connector-curvature="0" />
  </g>
  <path
     d="M 21.779,24.5 18,23 14,24.5 c 0,0 -0.94,1.766 -0.94,5.188 l 2.719,0 c 0.917,-0.979 1.25,-3.604 1.25,-3.604 l 1.721,0 c 0,0 0.333,2.625 1.25,3.604 l 2.719,0 c 0,-3.422 -0.94,-5.188 -0.94,-5.188 z"
     id="path58"
     inkscape:connector-curvature="0"
     style="fill:#dd2e44" />
  <path
     d="m 14,22.5 7.779,0 0,2 -7.779,0 z"
     id="path60"
     inkscape:connector-curvature="0"
     style="fill:#c1694f" />
  <path
     d="m 19,22.399 0.65,0 0,2.209 -0.65,0 z"
     id="path62"
     inkscape:connector-curvature="0"
     style="fill:#14171a" />
  <circle
     cx="18.5"
     cy="23.458"
     r="0.167"
     id="circle64"
     style="fill:#14171a" />
  <path
     d="m 18.021,23.458 c 0,0.092 -0.075,0.167 -0.167,0.167 -0.092,0 -0.167,-0.075 -0.167,-0.167 0,-0.092 0.075,-0.167 0.167,-0.167 0.092,0.001 0.167,0.075 0.167,0.167 z"
     id="path66"
     inkscape:connector-curvature="0"
     style="fill:#14171a" />
  <circle
     cx="17.208"
     cy="23.458"
     r="0.167"
     id="circle68"
     style="fill:#14171a" />
  <circle
     cx="16.562"
     cy="23.458"
     r="0.167"
     id="circle70"
     style="fill:#14171a" />
  <circle
     cx="15.917"
     cy="23.458"
     r="0.167"
     id="circle72"
     style="fill:#14171a" />
  <circle
     cx="15.271"
     cy="23.458"
     r="0.167"
     id="circle74"
     style="fill:#14171a" />
  <circle
     cx="14.625"
     cy="23.458"
     r="0.167"
     id="circle76"
     style="fill:#14171a" />
  <circle
     cx="17.208"
     cy="23.458"
     r="0.167"
     id="circle78"
     style="fill:#14171a" />
  <circle
     cx="16.318001"
     cy="23.458"
     r="0.148"
     id="circle80"
     style="fill:#657786" />
  <circle
     cx="16.552999"
     cy="23.458"
     r="0.148"
     id="circle82"
     style="fill:#657786" />
  <path
     d="m 16.318,23.31 0.235,0 0,0.297 -0.235,0 z"
     id="path84"
     inkscape:connector-curvature="0"
     style="fill:#657786" />
  <path
     d="m 16.729,24.846 -0.758,0 0,-2.698 0.758,0 0,0.35 -0.408,0 0,1.998 0.408,0 z"
     id="path86"
     inkscape:connector-curvature="0"
     style="fill:#657786" />
</svg>
