<?xml version="1.0" encoding="UTF-8" standalone="no"?>
<svg
   xmlns:dc="http://purl.org/dc/elements/1.1/"
   xmlns:cc="http://creativecommons.org/ns#"
   xmlns:rdf="http://www.w3.org/1999/02/22-rdf-syntax-ns#"
   xmlns:svg="http://www.w3.org/2000/svg"
   xmlns="http://www.w3.org/2000/svg"
   xmlns:sodipodi="http://sodipodi.sourceforge.net/DTD/sodipodi-0.dtd"
   xmlns:inkscape="http://www.inkscape.org/namespaces/inkscape"
   viewBox="0 0 35.347061 34.880848"
   id="svg2"
   version="1.1"
   inkscape:version="0.91 r13725"
   sodipodi:docname="1f3c9.svg"
   width="35.347061"
   height="34.880848">
  <metadata
     id="metadata14">
    <rdf:RDF>
      <cc:Work
         rdf:about="">
        <dc:format>image/svg+xml</dc:format>
        <dc:type
           rdf:resource="http://purl.org/dc/dcmitype/StillImage" />
      </cc:Work>
    </rdf:RDF>
  </metadata>
  <defs
     id="defs12" />
  <sodipodi:namedview
     pagecolor="#ffffff"
     bordercolor="#666666"
     borderopacity="1"
     objecttolerance="10"
     gridtolerance="10"
     guidetolerance="10"
     inkscape:pageopacity="0"
     inkscape:pageshadow="2"
     inkscape:window-width="640"
     inkscape:window-height="480"
     id="namedview10"
     showgrid="false"
     inkscape:zoom="6.5555556"
     inkscape:cx="17.440424"
     inkscape:cy="17.440424"
     inkscape:window-x="0"
     inkscape:window-y="0"
     inkscape:window-maximized="0"
     inkscape:current-layer="svg2" />
  <path
     d="m 27.186424,27.186424 c -7.164,7.164 -19.185,10.181 -24.816,5.324 -4.857,-5.63 -1.83999998,-17.652 5.324,-24.816 7.164,-7.16399998 19.186,-10.181 24.816,-5.324 5.906,7.728 1.84,17.652 -5.324,24.816 z"
     id="path4"
     inkscape:connector-curvature="0"
     style="fill:#3b88c3" />
  <path
     d="m 35.062424,7.891424 c -1.459,5.388 -10.211,18.453 -24.205,23.633 -1.167,0.5 -1.084,1.999 0.833,2.166 0.696,0.061 2.673,0.054 5.093,-0.086 3.767,-1.291 7.488,-3.503 10.403,-6.418 5.545,-5.545 9.229,-12.742 7.876,-19.295 z"
     id="path6"
     inkscape:connector-curvature="0"
     style="fill:#ccd6dd" />
  <path
     d="m 32.777424,2.741424 c -0.089,-0.124 -0.173,-0.249 -0.267,-0.371 -0.442,-0.381 -0.935,-0.697 -1.45,-0.983 -2.998,-1.35799998 -9.794,-2.04599998 -19.62,6.053 -7.583,6.25 -8.778,14.191 -8.25,18.917 0.203,1.814 2.415,1.387 4.333,0.917 7.824,-1.915 26.619,-10.397 25.254,-24.533 z"
     id="path8"
     inkscape:connector-curvature="0"
     style="fill:#e1e8ed" />
</svg>
