<?xml version="1.0" encoding="UTF-8" standalone="no"?>
<svg
   xmlns:dc="http://purl.org/dc/elements/1.1/"
   xmlns:cc="http://creativecommons.org/ns#"
   xmlns:rdf="http://www.w3.org/1999/02/22-rdf-syntax-ns#"
   xmlns:svg="http://www.w3.org/2000/svg"
   xmlns="http://www.w3.org/2000/svg"
   xmlns:sodipodi="http://sodipodi.sourceforge.net/DTD/sodipodi-0.dtd"
   xmlns:inkscape="http://www.inkscape.org/namespaces/inkscape"
   viewBox="0 0 36 36"
   id="svg2"
   version="1.1"
   inkscape:version="0.91 r13725"
   sodipodi:docname="1f3c2-1f3fd.svg"
   width="36"
   height="36">
  <metadata
     id="metadata38">
    <rdf:RDF>
      <cc:Work
         rdf:about="">
        <dc:format>image/svg+xml</dc:format>
        <dc:type
           rdf:resource="http://purl.org/dc/dcmitype/StillImage" />
      </cc:Work>
    </rdf:RDF>
  </metadata>
  <defs
     id="defs36" />
  <sodipodi:namedview
     pagecolor="#ffffff"
     bordercolor="#666666"
     borderopacity="1"
     objecttolerance="10"
     gridtolerance="10"
     guidetolerance="10"
     inkscape:pageopacity="0"
     inkscape:pageshadow="2"
     inkscape:window-width="640"
     inkscape:window-height="480"
     id="namedview34"
     showgrid="false"
     inkscape:zoom="6.5555556"
     inkscape:cx="18"
     inkscape:cy="18"
     inkscape:window-x="0"
     inkscape:window-y="0"
     inkscape:window-maximized="0"
     inkscape:current-layer="svg2" />
  <path
     d="m 24.434,12.633 c 0.525,-0.149 1.422,-0.237 2.121,-0.201 0.662,0.034 1.486,0.591 1.629,1.038 0.143,0.448 0.09,1.074 -0.269,1.182 -0.359,0.108 -0.901,-0.251 -1.588,-0.125 -0.686,0.125 -0.624,0.445 -0.615,0.734 0.031,0.962 -0.508,0.864 -0.6,0.734 -0.203,-0.286 -0.563,-0.676 -0.975,-1.054 -0.412,-0.378 -0.033,-2.214 0.297,-2.308 z"
     id="path4"
     inkscape:connector-curvature="0"
     style="fill:#1c6399" />
  <path
     d="m 36,16 0,16 c 0,0 0,4 -4,4 L 4,36 C 0,36 0,32 0,32 L 0,30 C 0,30 17,20 36,16 Z"
     id="path6"
     inkscape:connector-curvature="0"
     style="fill:#e1e8ed" />
  <path
     d="m 32.816,20.98 c 0.462,1.003 0.023,2.19 -0.98,2.653 L 8.221,34.511 C 7.218,34.973 6.031,34.534 5.569,33.532 L 4.732,31.715 C 4.27,30.712 4.709,29.524 5.711,29.062 L 29.326,18.185 c 1.004,-0.462 2.191,-0.022 2.654,0.979 l 0.836,1.816 z"
     id="path8"
     inkscape:connector-curvature="0"
     style="fill:#ea596e" />
  <path
     d="m 13.5,25.438 c -0.802,0.902 -0.594,1.625 -0.562,1.969 0.032,0.344 2.311,2.38 2.688,2.5 1.207,0.386 2.805,-0.531 2.805,-1.188 0,-0.474 -0.211,-0.938 -0.743,-1.625 C 17.156,26.407 16.813,25.375 16.594,25.032 16.375,24.689 14,24.875 13.5,25.438 Z m 8.286,-3.533 c -0.648,1 -0.349,1.688 -0.272,2.025 0.077,0.336 2.546,2.052 2.924,2.121 1.213,0.223 2.624,-0.897 2.535,-1.547 -0.065,-0.47 -10e-4,-0.663 -0.606,-1.274 -0.604,-0.611 -1.825,-1.424 -2.082,-1.736 -0.257,-0.312 -2.095,-0.213 -2.499,0.411 z"
     id="path10"
     inkscape:connector-curvature="0"
     style="fill:#1c6399" />
  <path
     d="m 24.729,21.688 c -0.23,-1.023 -1.108,-3.478 -1.464,-4.43 -0.145,-0.389 -0.606,-0.911 -1.114,-1.114 l -5.001,-2 c -0.807,-0.324 -6.026,1.939 -5.458,2.886 0,0 0.015,1.909 2.602,4.337 -0.524,1.467 -0.848,4.241 -0.848,4.241 -0.134,1.08 3.923,1 4.057,0.112 0.134,-0.888 0.315,-2.529 0.934,-4.032 0.113,-0.276 0.167,-0.958 0,-1.479 -0.167,-0.521 -1.208,-1.725 -1.208,-1.725 0,0 1.508,0.908 2.639,1.056 0.131,1.023 1.223,2.302 1.454,3.444 0.221,1.09 3.777,0.345 3.407,-1.296 z"
     id="path12"
     inkscape:connector-curvature="0"
     style="fill:#67757f" />
  <path
     d="M 24.408,12 C 23.979,11.927 22.5,11.412 22.104,11.083 21.708,10.755 20.509,9.462 20.006,8.797 19.64,8.311 19.016,8 18.408,8 18.408,8 13,8.011 12,8.011 9.594,8.011 6.875,10.5 6.415,11.305 5.853,12.29 5.062,15.521 5.906,18.5 6,18.833 9.436,17.996 9.305,17.368 9.021,16 8.979,14.288 9.18,13.832 9.381,13.377 9.844,13.031 10.5,12.734 l 0,5.266 c 0,0.164 0.081,0.317 0.215,0.411 C 10.8,18.47 10.899,18.5 11,18.5 c 0.059,0 0.119,-0.01 0.176,-0.032 l 8,-3 C 19.371,15.395 19.5,15.208 19.5,15 l 0,-1.048 c 0.594,0.476 1.594,1.096 1.83,1.21 0.236,0.114 1.679,0.812 2.707,0.812 0.55,0 1.46,-3.79 0.371,-3.974 z"
     id="path14"
     inkscape:connector-curvature="0"
     style="fill:#bbddf5" />
  <path
     d="m 31.475,3.842 -1,-3 C 30.406,0.638 30.215,0.5 30,0.5 29.871,0.5 26.786,0.535 22.7,3.6 18.833,6.5 17.945,6.5 16,6.5 l -3,0 C 12.867,6.5 12.74,6.553 12.646,6.647 12.119,7.174 11.98,7.915 12.275,8.629 12.651,9.533 13.826,10.5 16,10.5 17.438,10.5 19.532,9.344 21.957,8.006 24.935,6.363 28.312,4.5 31,4.5 c 0.161,0 0.312,-0.077 0.405,-0.207 0.095,-0.131 0.12,-0.299 0.07,-0.451 z"
     id="path16"
     inkscape:connector-curvature="0"
     style="fill:#1c6399" />
  <path
     d="m 18.408,4 c 0,2.209 -1.791,4 -4,4 -2.209,0 -4,-1.791 -4,-4 0,-2.209 1.791,-3 4,-3 2.209,0 4,0.791 4,3 z"
     id="path18"
     inkscape:connector-curvature="0"
     style="fill:#d4ab88" />
  <path
     d="m 12,4 c 2,0 4,-1 4,0 0,1 0,3 2,3 2,0 3,-7 -3,-7 -6,0 -6,4 -3,4 z"
     id="path20"
     inkscape:connector-curvature="0"
     style="fill:#9aaab4" />
  <circle
     cx="11.5"
     cy="4.5"
     r="2"
     id="circle22"
     style="fill:#67757f" />
  <circle
     cx="11.5"
     cy="4.5"
     r="1"
     id="circle24"
     style="fill:#bdddf4" />
  <circle
     cx="14.5"
     cy="4.5"
     r="2"
     id="circle26"
     style="fill:#67757f" />
  <circle
     cx="14.5"
     cy="4.5"
     r="1"
     id="circle28"
     style="fill:#bdddf4" />
  <path
     d="M 6.47,17.805 C 5.553,18.595 5.641,19.421 5.969,20 c 0.328,0.579 0.575,0.733 1.192,0.662 0.589,-0.068 1.311,-0.745 1.727,-1.204 0.569,-0.628 0.16,-1.533 0.16,-1.533 0,0 0.351,-0.091 0.639,-0.278 0.354,-0.229 0.402,-1.139 0.062,-0.992 -1.04,0.449 -2.249,0.262 -3.279,1.15 z"
     id="path30"
     inkscape:connector-curvature="0"
     style="fill:#1c6399" />
  <path
     d="m 15.018,27.982 c -0.276,-0.223 0.119,-0.841 1.078,-1.235 0.887,-0.365 1.267,0.059 1.258,0.17 -0.008,0.104 -0.425,-0.242 -1.113,0.183 -0.688,0.425 -0.917,1.129 -1.223,0.882 z m 0.553,0.716 c -0.276,-0.223 0.119,-0.841 1.078,-1.235 0.887,-0.365 1.267,0.059 1.258,0.17 -0.008,0.104 -0.425,-0.243 -1.113,0.183 -0.688,0.426 -0.918,1.129 -1.223,0.882 z m 7.982,-4.388 c -0.296,-0.195 0.037,-0.848 0.952,-1.335 0.848,-0.45 1.267,-0.065 1.269,0.046 0.002,0.104 -0.447,-0.2 -1.09,0.291 -0.642,0.491 -0.802,1.214 -1.131,0.998 z m 0.621,0.659 c -0.296,-0.195 0.037,-0.848 0.952,-1.335 0.848,-0.45 1.267,-0.065 1.269,0.046 0.002,0.104 -0.447,-0.2 -1.09,0.291 -0.643,0.491 -0.803,1.214 -1.131,0.998 z"
     id="path32"
     inkscape:connector-curvature="0"
     style="fill:#55acee" />
</svg>
