<?xml version="1.0" encoding="UTF-8" standalone="no"?>
<svg
   xmlns:dc="http://purl.org/dc/elements/1.1/"
   xmlns:cc="http://creativecommons.org/ns#"
   xmlns:rdf="http://www.w3.org/1999/02/22-rdf-syntax-ns#"
   xmlns:svg="http://www.w3.org/2000/svg"
   xmlns="http://www.w3.org/2000/svg"
   xmlns:sodipodi="http://sodipodi.sourceforge.net/DTD/sodipodi-0.dtd"
   xmlns:inkscape="http://www.inkscape.org/namespaces/inkscape"
   viewBox="0 0 36 35"
   id="svg2"
   version="1.1"
   inkscape:version="0.91 r13725"
   sodipodi:docname="1f3db.svg"
   width="36"
   height="35">
  <metadata
     id="metadata26">
    <rdf:RDF>
      <cc:Work
         rdf:about="">
        <dc:format>image/svg+xml</dc:format>
        <dc:type
           rdf:resource="http://purl.org/dc/dcmitype/StillImage" />
      </cc:Work>
    </rdf:RDF>
  </metadata>
  <defs
     id="defs24" />
  <sodipodi:namedview
     pagecolor="#ffffff"
     bordercolor="#666666"
     borderopacity="1"
     objecttolerance="10"
     gridtolerance="10"
     guidetolerance="10"
     inkscape:pageopacity="0"
     inkscape:pageshadow="2"
     inkscape:window-width="640"
     inkscape:window-height="480"
     id="namedview22"
     showgrid="false"
     inkscape:zoom="6.5555556"
     inkscape:cx="18"
     inkscape:cy="17"
     inkscape:window-x="0"
     inkscape:window-y="0"
     inkscape:window-maximized="0"
     inkscape:current-layer="svg2" />
  <path
     d="m 7,11 22,0 0,18 -22,0 z"
     id="path4"
     inkscape:connector-curvature="0"
     style="fill:#292f33" />
  <path
     d="m 8,29 c 0,1.104 -0.597,2 -1.333,2 L 5.333,31 C 4.597,31 4,30.104 4,29 L 4,11 C 4,9.896 4.597,9 5.333,9 L 6.666,9 C 7.403,9 8,9.896 8,11 l 0,18 z m 24,0 c 0,1.104 -0.597,2 -1.333,2 l -1.334,0 C 28.597,31 28,30.104 28,29 l 0,-18 c 0,-1.104 0.597,-2 1.333,-2 l 1.334,0 C 31.403,9 32,9.896 32,11 l 0,18 z m -16,0 c 0,1.104 -0.597,2 -1.333,2 l -1.333,0 C 12.597,31 12,30.104 12,29 l 0,-18 c 0,-1.104 0.597,-2 1.333,-2 l 1.333,0 C 15.403,9 16,9.896 16,11 l 0,18 z m 8,0 c 0,1.104 -0.598,2 -1.334,2 l -1.332,0 C 20.598,31 20,30.104 20,29 l 0,-18 c 0,-1.104 0.598,-2 1.334,-2 l 1.332,0 C 23.402,9 24,9.896 24,11 l 0,18 z"
     id="path6"
     inkscape:connector-curvature="0"
     style="fill:#ccd6dd" />
  <path
     d="m 33,30 c 0,1.104 -0.896,2 -2,2 L 5,32 C 3.896,32 3,31.104 3,30 3,28.896 3.896,28 5,28 l 26,0 c 1.104,0 2,0.896 2,2 z"
     id="path8"
     inkscape:connector-curvature="0"
     style="fill:#9aaab4" />
  <path
     d="m 35,32 c 0,1.104 -0.896,2 -2,2 L 3,34 C 1.896,34 1,33.104 1,32 1,30.896 1.896,30 3,30 l 30,0 c 1.104,0 2,0.896 2,2 z"
     id="path10"
     inkscape:connector-curvature="0"
     style="fill:#ccd6dd" />
  <path
     d="m 36,33.5 c 0,0.828 -0.672,1.5 -1.5,1.5 l -33,0 C 0.671,35 0,34.328 0,33.5 0,32.672 0.671,32 1.5,32 l 33,0 c 0.828,0 1.5,0.672 1.5,1.5 z"
     id="path12"
     inkscape:connector-curvature="0"
     style="fill:#e1e8ed" />
  <path
     d="M 33,10 C 33,8.896 32.044,8 30.867,8 L 5,8 c -1.179,0 -2,0.896 -2,2 0,0.751 0.386,1.398 1,1.74 l 0,1.26 4,0 0,-1 4,0 0,1 4,0 0,-1 4,0 0,1 4,0 0,-1 4,0 0,1 4,0 0,-1.312 C 32.599,11.334 33,10.713 33,10 Z"
     id="path14"
     inkscape:connector-curvature="0"
     style="fill:#9aaab4" />
  <path
     d="M 2,8.444 C 2,7.413 3.012,7 3.012,7 L 17.916,0 32.963,7 C 32.963,7 34,7.231 34,8.45 L 34,9 2,9 2,8.444 Z"
     id="path16"
     inkscape:connector-curvature="0"
     style="fill:#ccd6dd" />
  <path
     d="M 18,2.542 C 18,2.542 7.681,7.407 6.65,7.844 5.619,8.281 5.964,9 6.651,9 L 29.297,9 C 30.359,9 30.109,8.188 29.266,7.75 28.422,7.312 18,2.542 18,2.542 Z"
     id="path18"
     inkscape:connector-curvature="0"
     style="fill:#9aaab4" />
  <path
     d="m 34,9 c 0,0.552 -0.447,1 -1,1 L 3,10 C 2.448,10 2,9.552 2,9 2,8.448 2.448,8 3,8 l 30,0.006 c 0.553,0 1,0.442 1,0.994 z"
     id="path20"
     inkscape:connector-curvature="0"
     style="fill:#ccd6dd" />
</svg>
