<?xml version="1.0" encoding="UTF-8" standalone="no"?>
<svg
   xmlns:dc="http://purl.org/dc/elements/1.1/"
   xmlns:cc="http://creativecommons.org/ns#"
   xmlns:rdf="http://www.w3.org/1999/02/22-rdf-syntax-ns#"
   xmlns:svg="http://www.w3.org/2000/svg"
   xmlns="http://www.w3.org/2000/svg"
   xmlns:sodipodi="http://sodipodi.sourceforge.net/DTD/sodipodi-0.dtd"
   xmlns:inkscape="http://www.inkscape.org/namespaces/inkscape"
   viewBox="0 0 36 34"
   id="svg2"
   version="1.1"
   inkscape:version="0.91 r13725"
   sodipodi:docname="1f3dc.svg"
   width="36"
   height="34">
  <metadata
     id="metadata54">
    <rdf:RDF>
      <cc:Work
         rdf:about="">
        <dc:format>image/svg+xml</dc:format>
        <dc:type
           rdf:resource="http://purl.org/dc/dcmitype/StillImage" />
      </cc:Work>
    </rdf:RDF>
  </metadata>
  <defs
     id="defs52" />
  <sodipodi:namedview
     pagecolor="#ffffff"
     bordercolor="#666666"
     borderopacity="1"
     objecttolerance="10"
     gridtolerance="10"
     guidetolerance="10"
     inkscape:pageopacity="0"
     inkscape:pageshadow="2"
     inkscape:window-width="640"
     inkscape:window-height="480"
     id="namedview50"
     showgrid="false"
     inkscape:zoom="6.5555556"
     inkscape:cx="18"
     inkscape:cy="18"
     inkscape:window-x="0"
     inkscape:window-y="0"
     inkscape:window-maximized="0"
     inkscape:current-layer="svg2" />
  <path
     d="M 20.417,20.732 C 20.207,20.645 18.641,20 17.708,20 c -2,0 -4.68,-4 -6.333,-4 C 8.708,16 6.755,21.225 5,22.042 3.555,22.715 2.974,24.728 2.74,26.238 2.583,27.254 2.583,28.042 2.583,28.042 L 20.417,28 l 0,-7.268 z"
     id="path4"
     inkscape:connector-curvature="0"
     style="fill:#ffac33" />
  <circle
     cx="8.25"
     cy="5"
     r="5"
     id="circle6"
     style="fill:#ffcc4d" />
  <circle
     cx="8.25"
     cy="5"
     r="4"
     id="circle8"
     style="fill:#ffac33" />
  <path
     d="M 18,23.18 C 3.438,23.18 0,27.844 0,30 c 0,2.156 1.791,4 4,4 l 28,0 c 2.209,0 4,-1.851 4,-4 0,-2.149 -3.438,-6.82 -18,-6.82 z"
     id="path10"
     inkscape:connector-curvature="0"
     style="fill:#ffe8b6" />
  <path
     d="m 10.063,20.403 c -0.516,1.407 0.555,2.343 0.555,2.343 0,0 0.058,-0.696 0.113,-1.603 0.056,-0.931 0.879,-1.563 0.908,-1.896 0.095,-1.112 -0.854,-1.931 -0.805,-1.541 0.104,0.814 -0.357,1.568 -0.771,2.697 z m -3.681,2.568 c -0.375,0.737 -0.321,2.496 -0.321,2.496 0,0 0.9,-0.529 0.94,-1.074 0.04,-0.545 0.014,-0.834 0.138,-1.15 0.352,-0.9 1.124,-0.842 1.595,-2.088 0.167,-0.44 -0.194,-1.203 -0.3,-0.954 -0.41,0.959 -1.676,2.033 -2.052,2.77 z m 6.045,-0.337 c -0.116,-0.322 0.124,-2.378 0.328,-2.1 0.204,0.278 -0.006,1.161 0.664,1.886 0.837,0.905 0.721,1.981 0.491,1.498 -0.231,-0.484 -1.367,-0.962 -1.483,-1.284 z"
     id="path12"
     inkscape:connector-curvature="0"
     style="fill:#f4900c" />
  <path
     d="m 20.417,25.895 0,-2.592 C 18.154,22.92 8.893,21.705 2.741,26.239 2.568,26.367 2.557,26.642 2.557,26.73 c 0,1.112 3.763,-0.342 8.31,0.178 2.185,0.25 4.613,0.427 5.258,-0.052 0.218,-0.162 -0.328,-0.727 -1.352,-1.236 0.513,-0.132 1.045,-0.25 1.654,-0.243 1.983,0.018 3.3,0.312 3.99,0.518 z"
     id="path14"
     inkscape:connector-curvature="0"
     style="fill:#ffac33" />
  <path
     d="m 16.535,10.174 c 1.398,0 2.5,1.135 2.5,2.535 l 0,5.782 c 0,0.688 1,1.241 1,1.551 l 0,-10.601 c 0,-2.1 1.9,-3.802 4,-3.802 2.1,0 4,1.702 4,3.802 l 0,13.171 c 1,-0.301 1,-0.869 1,-1.587 l 0,-3.247 c 0,-1.4 1.101,-2.535 2.5,-2.535 1.399,0 2.5,1.135 2.5,2.535 l 0,4.435 c 0,1.399 -0.94,2.455 -1.971,3.049 -0.787,0.455 -3.029,1.014 -4.029,1.047 l 0,3.024 c 0,2 -8,2 -8,0 l 0,-5.567 c -1,-0.075 -3.185,-0.604 -3.937,-1.038 -1.03,-0.594 -2.064,-1.649 -2.064,-3.05 l 0,-6.97 c 10e-4,-1.399 1.1,-2.534 2.501,-2.534 z"
     id="path16"
     inkscape:connector-curvature="0"
     style="fill:#77b255" />
  <g
     id="g18"
     style="fill:#3e721d"
     transform="translate(0,-2)">
    <circle
       cx="32.5"
       cy="26.747999"
       r="0.634"
       id="circle20" />
    <circle
       cx="29.966"
       cy="22.312"
       r="0.634"
       id="circle22" />
    <circle
       cx="34.401001"
       cy="21.045"
       r="0.634"
       id="circle24" />
    <circle
       cx="17.292999"
       cy="24.847"
       r="0.634"
       id="circle26" />
    <circle
       cx="15.392"
       cy="19.778"
       r="0.634"
       id="circle28" />
    <circle
       cx="17.927"
       cy="16.610001"
       r="0.634"
       id="circle30" />
    <circle
       cx="14.125"
       cy="14.709"
       r="0.634"
       id="circle32" />
    <circle
       cx="21.728001"
       cy="29.649"
       r="0.634"
       id="circle34" />
    <circle
       cx="27.43"
       cy="26.114"
       r="0.634"
       id="circle36" />
    <circle
       cx="22.996"
       cy="22.312"
       r="0.634"
       id="circle38" />
    <circle
       cx="26.798"
       cy="19.778"
       r="0.634"
       id="circle40" />
    <circle
       cx="22.362"
       cy="15.343"
       r="0.634"
       id="circle42" />
    <circle
       cx="28.063999"
       cy="13.442"
       r="0.634"
       id="circle44" />
    <circle
       cx="21.094"
       cy="9.5410004"
       r="0.634"
       id="circle46" />
  </g>
  <path
     d="m 14.761,25.616 c 0,0 -1.128,-0.357 -1.784,-0.451 -0.656,-0.094 2.588,-0.271 4.106,0.224 -1.518,-0.024 -2.322,0.227 -2.322,0.227 z"
     id="path48"
     inkscape:connector-curvature="0"
     style="fill:#f4900c" />
</svg>
