<?xml version="1.0" encoding="UTF-8" standalone="no"?>
<svg
   xmlns:dc="http://purl.org/dc/elements/1.1/"
   xmlns:cc="http://creativecommons.org/ns#"
   xmlns:rdf="http://www.w3.org/1999/02/22-rdf-syntax-ns#"
   xmlns:svg="http://www.w3.org/2000/svg"
   xmlns="http://www.w3.org/2000/svg"
   xmlns:sodipodi="http://sodipodi.sourceforge.net/DTD/sodipodi-0.dtd"
   xmlns:inkscape="http://www.inkscape.org/namespaces/inkscape"
   viewBox="0 0 36 36"
   id="svg2"
   version="1.1"
   inkscape:version="0.91 r13725"
   sodipodi:docname="1f3d9.svg"
   width="36"
   height="36">
  <metadata
     id="metadata16">
    <rdf:RDF>
      <cc:Work
         rdf:about="">
        <dc:format>image/svg+xml</dc:format>
        <dc:type
           rdf:resource="http://purl.org/dc/dcmitype/StillImage" />
      </cc:Work>
    </rdf:RDF>
  </metadata>
  <defs
     id="defs14" />
  <sodipodi:namedview
     pagecolor="#ffffff"
     bordercolor="#666666"
     borderopacity="1"
     objecttolerance="10"
     gridtolerance="10"
     guidetolerance="10"
     inkscape:pageopacity="0"
     inkscape:pageshadow="2"
     inkscape:window-width="640"
     inkscape:window-height="480"
     id="namedview12"
     showgrid="false"
     inkscape:zoom="6.5555556"
     inkscape:cx="18"
     inkscape:cy="18"
     inkscape:window-x="0"
     inkscape:window-y="0"
     inkscape:window-maximized="0"
     inkscape:current-layer="svg2" />
  <path
     d="M 32,0 4,0 C 1.791,0 0,1.791 0,4 L 0,26 36,26 36,4 C 36,1.791 34.209,0 32,0 Z"
     id="path4"
     inkscape:connector-curvature="0"
     style="fill:#88c9f9" />
  <path
     d="m 10,36 0,-29 4,-4 2,0 4,4 0,29 z M 33,11 c 0,-1 -1,-1 -1,-1 l -7,0 c 0,0 -1,0 -1,1 l 0,25 9,0 0,-25 z"
     id="path6"
     inkscape:connector-curvature="0"
     style="fill:#66757f" />
  <path
     d="m 28,17 c 0,-1 -1,-1 -1,-1 l -8,0 c -1,0 -1,1 -1,1 l 0,19 10,0 0,-19 z m -17,2 -5,0 0,-5 c 0,0 0,-1 -1,-1 l -5,0 0,19 c 0,2.209 1.791,4 4,4 l 8,0 0,-16 c 0,0 0,-1 -1,-1 z m 21,6 c -1,0 -1,1 -1,1 l 0,10 1,0 c 2.209,0 4,-1.791 4,-4 l 0,-7 -4,0 z"
     id="path8"
     inkscape:connector-curvature="0"
     style="fill:#292f33" />
  <path
     d="m 8,29 2,0 0,2 -2,0 z m 0,-8 2,0 0,2 -2,0 z m -2,4 2,0 0,2 -2,0 z m 10,-16 2,0 0,2 -2,0 z m 0,4 2,0 0,2 -2,0 z m -2,4 2,0 0,2 -2,0 z m 10,1 2,0 0,2 -2,0 z m -2,4 2,0 0,2 -2,0 z m -2,6 2,0 0,2 -2,0 z m 9,-16 2,0 0,2 -2,0 z m 0,4 2,0 0,2 -2,0 z"
     id="path10"
     inkscape:connector-curvature="0"
     style="fill:#ffcc4d" />
</svg>
