<?xml version="1.0" encoding="UTF-8" standalone="no"?>
<svg
   xmlns:dc="http://purl.org/dc/elements/1.1/"
   xmlns:cc="http://creativecommons.org/ns#"
   xmlns:rdf="http://www.w3.org/1999/02/22-rdf-syntax-ns#"
   xmlns:svg="http://www.w3.org/2000/svg"
   xmlns="http://www.w3.org/2000/svg"
   xmlns:sodipodi="http://sodipodi.sourceforge.net/DTD/sodipodi-0.dtd"
   xmlns:inkscape="http://www.inkscape.org/namespaces/inkscape"
   viewBox="0 0 36 36"
   id="svg2"
   version="1.1"
   inkscape:version="0.91 r13725"
   sodipodi:docname="1f3e7.svg"
   width="36"
   height="36">
  <metadata
     id="metadata14">
    <rdf:RDF>
      <cc:Work
         rdf:about="">
        <dc:format>image/svg+xml</dc:format>
        <dc:type
           rdf:resource="http://purl.org/dc/dcmitype/StillImage" />
      </cc:Work>
    </rdf:RDF>
  </metadata>
  <defs
     id="defs12" />
  <sodipodi:namedview
     pagecolor="#ffffff"
     bordercolor="#666666"
     borderopacity="1"
     objecttolerance="10"
     gridtolerance="10"
     guidetolerance="10"
     inkscape:pageopacity="0"
     inkscape:pageshadow="2"
     inkscape:window-width="640"
     inkscape:window-height="480"
     id="namedview10"
     showgrid="false"
     inkscape:zoom="6.5555556"
     inkscape:cx="18"
     inkscape:cy="18"
     inkscape:window-x="0"
     inkscape:window-y="0"
     inkscape:window-maximized="0"
     inkscape:current-layer="svg2" />
  <path
     d="m 36,32 c 0,2.209 -1.791,4 -4,4 L 4,36 C 1.791,36 0,34.209 0,32 L 0,4 C 0,1.791 1.791,0 4,0 l 28,0 c 2.209,0 4,1.791 4,4 l 0,28 z"
     id="path4"
     inkscape:connector-curvature="0"
     style="fill:#3b88c3" />
  <path
     d="m 0,10 36,0 0,17 -36,0 z"
     id="path6"
     inkscape:connector-curvature="0"
     style="fill:#bbddf5" />
  <path
     d="m 5.297,13.74 c 0.272,-0.736 0.896,-1.329 1.713,-1.329 0.848,0 1.44,0.561 1.712,1.329 l 3.137,8.708 c 0.096,0.256 0.128,0.48 0.128,0.593 0,0.624 -0.512,1.056 -1.105,1.056 -0.672,0 -1.008,-0.352 -1.168,-0.832 l -0.48,-1.505 -4.45,0 -0.48,1.489 c -0.16,0.496 -0.497,0.848 -1.153,0.848 -0.64,0 -1.184,-0.479 -1.184,-1.12 0,-0.256 0.08,-0.448 0.112,-0.528 L 5.297,13.74 Z m 0.177,5.81 3.041,0 -1.489,-4.642 -0.032,0 -1.52,4.642 z m 8.991,-4.738 -1.745,0 c -0.768,0 -1.088,-0.561 -1.088,-1.104 0,-0.561 0.4,-1.104 1.088,-1.104 l 5.89,0 c 0.688,0 1.089,0.544 1.089,1.104 0,0.544 -0.32,1.104 -1.089,1.104 l -1.745,0 0,8.035 c 0,0.8 -0.512,1.248 -1.2,1.248 -0.688,0 -1.201,-0.448 -1.201,-1.248 l 0,-8.035 z m 7.568,-1.072 c 0.096,-0.576 0.72,-1.232 1.568,-1.232 0.801,0 1.424,0.576 1.601,1.152 l 1.89,6.338 0.031,0 1.889,-6.338 c 0.176,-0.576 0.801,-1.152 1.6,-1.152 0.85,0 1.473,0.656 1.57,1.232 l 1.488,8.932 c 0.016,0.096 0.016,0.191 0.016,0.271 0,0.704 -0.512,1.152 -1.152,1.152 -0.816,0 -1.137,-0.368 -1.248,-1.12 l -0.945,-6.515 -0.031,0 -1.922,6.707 c -0.111,0.384 -0.416,0.928 -1.279,0.928 -0.865,0 -1.169,-0.544 -1.281,-0.928 l -1.92,-6.707 -0.033,0 -0.943,6.515 c -0.113,0.752 -0.433,1.12 -1.249,1.12 -0.64,0 -1.152,-0.448 -1.152,-1.152 0,-0.08 0,-0.176 0.017,-0.271 l 1.485,-8.932 z"
     id="path8"
     inkscape:connector-curvature="0"
     style="fill:#226699" />
</svg>
