<?xml version="1.0" encoding="UTF-8" standalone="no"?>
<svg
   xmlns:dc="http://purl.org/dc/elements/1.1/"
   xmlns:cc="http://creativecommons.org/ns#"
   xmlns:rdf="http://www.w3.org/1999/02/22-rdf-syntax-ns#"
   xmlns:svg="http://www.w3.org/2000/svg"
   xmlns="http://www.w3.org/2000/svg"
   xmlns:sodipodi="http://sodipodi.sourceforge.net/DTD/sodipodi-0.dtd"
   xmlns:inkscape="http://www.inkscape.org/namespaces/inkscape"
   viewBox="0 0 36 33"
   id="svg2"
   version="1.1"
   inkscape:version="0.91 r13725"
   sodipodi:docname="1f3e2.svg"
   width="36"
   height="33">
  <metadata
     id="metadata26">
    <rdf:RDF>
      <cc:Work
         rdf:about="">
        <dc:format>image/svg+xml</dc:format>
        <dc:type
           rdf:resource="http://purl.org/dc/dcmitype/StillImage" />
      </cc:Work>
    </rdf:RDF>
  </metadata>
  <defs
     id="defs24" />
  <sodipodi:namedview
     pagecolor="#ffffff"
     bordercolor="#666666"
     borderopacity="1"
     objecttolerance="10"
     gridtolerance="10"
     guidetolerance="10"
     inkscape:pageopacity="0"
     inkscape:pageshadow="2"
     inkscape:window-width="640"
     inkscape:window-height="480"
     id="namedview22"
     showgrid="false"
     inkscape:zoom="6.5555556"
     inkscape:cx="18"
     inkscape:cy="18"
     inkscape:window-x="0"
     inkscape:window-y="0"
     inkscape:window-maximized="0"
     inkscape:current-layer="svg2" />
  <path
     d="m 34,10 c 0,1.104 -0.896,2 -2,2 l -6,0 c -1.104,0 -2,-0.896 -2,-2 l 0,-2 c 0,-1.104 0.896,-2 2,-2 l 6,0 c 1.104,0 2,0.896 2,2 l 0,2 z m -22,0 c 0,1.104 -0.896,2 -2,2 L 4,12 C 2.896,12 2,11.104 2,10 L 2,8 C 2,6.896 2.896,6 4,6 l 6,0 c 1.104,0 2,0.896 2,2 l 0,2 z"
     id="path4"
     inkscape:connector-curvature="0"
     style="fill:#dac8b1" />
  <path
     d="m 36,31 c 0,1.104 -0.896,2 -2,2 L 2,33 C 0.896,33 0,32.104 0,31 L 0,10 C 0,8.896 0.896,8 2,8 l 32,0 c 1.104,0 2,0.896 2,2 l 0,21 z"
     id="path6"
     inkscape:connector-curvature="0"
     style="fill:#f1dcc1" />
  <path
     d="M 22,6 22,4 C 22,3.262 21.596,2.624 21,2.277 L 21,2 C 21,0.896 20.104,0 19,0 l -2,0 c -1.104,0 -2,0.896 -2,2 l 0,0.277 C 14.405,2.624 14,3.262 14,4 l 0,2 -1,0 0,27 10,0 0,-27 -1,0 z"
     id="path8"
     inkscape:connector-curvature="0"
     style="fill:#dac8b1" />
  <path
     d="m 14,4 2,0 0,2 -2,0 z m 6,0 2,0 0,2 -2,0 z m -3,0 2,0 0,2 -2,0 z"
     id="path10"
     inkscape:connector-curvature="0"
     style="fill:#55acee" />
  <path
     d="m 15,12 2,0 0,14 -2,0 z m 4,0 2,0 0,14 -2,0 z"
     id="path12"
     inkscape:connector-curvature="0"
     style="fill:#3b88c3" />
  <path
     d="m 24,14 2,0 0,12 -2,0 z m 4,0 2,0 0,12 -2,0 z m 4,0 2,0 0,12 -2,0 z m -30,0 2,0 0,12 -2,0 z m 4,0 2,0 0,12 -2,0 z m 4,0 2,0 0,12 -2,0 z m -8,13 2,0 0,2 -2,0 z m 4,0 2,0 0,2 -2,0 z m 4,0 2,0 0,2 -2,0 z"
     id="path14"
     inkscape:connector-curvature="0"
     style="fill:#55acee" />
  <path
     d="m 15,27 2,0 0,2 -2,0 z m 4,0 2,0 0,2 -2,0 z"
     id="path16"
     inkscape:connector-curvature="0"
     style="fill:#3b88c3" />
  <path
     d="m 24,27 2,0 0,2 -2,0 z m 4,0 2,0 0,2 -2,0 z m 4,0 2,0 0,2 -2,0 z"
     id="path18"
     inkscape:connector-curvature="0"
     style="fill:#55acee" />
  <path
     d="m 2,30 2,0 0,3 -2,0 z m 4,0 2,0 0,3 -2,0 z m 4,0 2,0 0,3 -2,0 z m 5,0 2,0 0,3 -2,0 z m 4,0 2,0 0,3 -2,0 z m 5,0 2,0 0,3 -2,0 z m 4,0 2,0 0,3 -2,0 z m 4,0 2,0 0,3 -2,0 z"
     id="path20"
     inkscape:connector-curvature="0"
     style="fill:#66757f" />
</svg>
