<?xml version="1.0" encoding="UTF-8" standalone="no"?>
<svg
   xmlns:dc="http://purl.org/dc/elements/1.1/"
   xmlns:cc="http://creativecommons.org/ns#"
   xmlns:rdf="http://www.w3.org/1999/02/22-rdf-syntax-ns#"
   xmlns:svg="http://www.w3.org/2000/svg"
   xmlns="http://www.w3.org/2000/svg"
   xmlns:sodipodi="http://sodipodi.sourceforge.net/DTD/sodipodi-0.dtd"
   xmlns:inkscape="http://www.inkscape.org/namespaces/inkscape"
   viewBox="0 0 36 36"
   id="svg2"
   version="1.1"
   inkscape:version="0.91 r13725"
   sodipodi:docname="1f3ef.svg"
   width="36"
   height="36">
  <metadata
     id="metadata28">
    <rdf:RDF>
      <cc:Work
         rdf:about="">
        <dc:format>image/svg+xml</dc:format>
        <dc:type
           rdf:resource="http://purl.org/dc/dcmitype/StillImage" />
      </cc:Work>
    </rdf:RDF>
  </metadata>
  <defs
     id="defs26" />
  <sodipodi:namedview
     pagecolor="#ffffff"
     bordercolor="#666666"
     borderopacity="1"
     objecttolerance="10"
     gridtolerance="10"
     guidetolerance="10"
     inkscape:pageopacity="0"
     inkscape:pageshadow="2"
     inkscape:window-width="640"
     inkscape:window-height="480"
     id="namedview24"
     showgrid="false"
     inkscape:zoom="6.5555556"
     inkscape:cx="18"
     inkscape:cy="18"
     inkscape:window-x="0"
     inkscape:window-y="0"
     inkscape:window-maximized="0"
     inkscape:current-layer="svg2" />
  <path
     d="m 5,23 26,0 0,7 -26,0 z"
     id="path4"
     inkscape:connector-curvature="0"
     style="fill:#d1d3d4" />
  <path
     d="M 0,36 36,36 32,29 4,29 Z"
     id="path6"
     inkscape:connector-curvature="0"
     style="fill:#d99e82" />
  <path
     d="M 30,20 6,20 1,24 35,24 Z"
     id="path8"
     inkscape:connector-curvature="0"
     style="fill:#66757f" />
  <path
     d="M 18,9.882 9.764,14 26.236,14 Z"
     id="path10"
     inkscape:connector-curvature="0"
     style="fill:#d1d3d4" />
  <path
     d="M 30,14 29,9 7,9 6,14 2,17 34,17 30,14 Z M 18,9.882 26.236,14 9.764,14 18,9.882 Z"
     id="path12"
     inkscape:connector-curvature="0"
     style="fill:#66757f" />
  <path
     d="m 6,17 24,0 0,3 -24,0 z m 18,-8 0,-4 -12,0 0,4 -2,0 0,2 16,0 0,-2 z"
     id="path14"
     inkscape:connector-curvature="0"
     style="fill:#d1d3d4" />
  <path
     d="m 12,2 12,0 0,2 2,2 -16,0 2,-2 z"
     id="path16"
     inkscape:connector-curvature="0"
     style="fill:#66757f" />
  <path
     d="m 23,0 0,1 -10,0 0,-1 -1,0 0,2 12,0 0,-2 z"
     id="path18"
     inkscape:connector-curvature="0"
     style="fill:#99aab5" />
  <path
     d="m 30,14.764 -5.105,-2.553 -6,-3 L 18,8.764 l -0.895,0.447 -6,3 L 6,14.764 6,16 30,16 30,14.764 Z M 12,14 l 6,-3 6,3 -12,0 z"
     id="path20"
     inkscape:connector-curvature="0"
     style="fill:#66757f" />
  <path
     d="m 5,27 26,0 0,2 -26,0 z"
     id="path22"
     inkscape:connector-curvature="0"
     style="fill:#6d6e71" />
</svg>
