<?xml version="1.0" encoding="UTF-8" standalone="no"?>
<svg
   xmlns:dc="http://purl.org/dc/elements/1.1/"
   xmlns:cc="http://creativecommons.org/ns#"
   xmlns:rdf="http://www.w3.org/1999/02/22-rdf-syntax-ns#"
   xmlns:svg="http://www.w3.org/2000/svg"
   xmlns="http://www.w3.org/2000/svg"
   xmlns:sodipodi="http://sodipodi.sourceforge.net/DTD/sodipodi-0.dtd"
   xmlns:inkscape="http://www.inkscape.org/namespaces/inkscape"
   viewBox="0 0 34 36"
   id="svg2"
   version="1.1"
   inkscape:version="0.91 r13725"
   sodipodi:docname="1f3e4.svg"
   width="34"
   height="36">
  <metadata
     id="metadata28">
    <rdf:RDF>
      <cc:Work
         rdf:about="">
        <dc:format>image/svg+xml</dc:format>
        <dc:type
           rdf:resource="http://purl.org/dc/dcmitype/StillImage" />
      </cc:Work>
    </rdf:RDF>
  </metadata>
  <defs
     id="defs26" />
  <sodipodi:namedview
     pagecolor="#ffffff"
     bordercolor="#666666"
     borderopacity="1"
     objecttolerance="10"
     gridtolerance="10"
     guidetolerance="10"
     inkscape:pageopacity="0"
     inkscape:pageshadow="2"
     inkscape:window-width="640"
     inkscape:window-height="480"
     id="namedview24"
     showgrid="false"
     inkscape:zoom="6.5555556"
     inkscape:cx="17"
     inkscape:cy="18"
     inkscape:window-x="0"
     inkscape:window-y="0"
     inkscape:window-maximized="0"
     inkscape:current-layer="svg2" />
  <path
     d="m 10,10 14,0 0,15 -14,0 z"
     id="path4"
     inkscape:connector-curvature="0"
     style="fill:#edbb9f" />
  <path
     d="m 0,18 0,16 c 0,1.104 0.896,2 2,2 l 30,0 c 1.104,0 2,-0.896 2,-2 L 34,18 0,18 Z"
     id="path6"
     inkscape:connector-curvature="0"
     style="fill:#be1931" />
  <path
     d="m 0,14 34,0 0,3 -34,0 z"
     id="path8"
     inkscape:connector-curvature="0"
     style="fill:#ffe8b6" />
  <path
     d="m 0,16 34,0 0,2 -34,0 z"
     id="path10"
     inkscape:connector-curvature="0"
     style="fill:#c1694f" />
  <path
     d="m 17,27 c -1.657,0 -3,1.343 -3,3 l 0,6 6,0 0,-6 c 0,-1.657 -1.343,-3 -3,-3 z"
     id="path12"
     inkscape:connector-curvature="0"
     style="fill:#ccd6dd" />
  <path
     d="m 27,27 c -1.656,0 -3,1.343 -3,3 l 0,4 6,0 0,-4 c 0,-1.657 -1.343,-3 -3,-3 z M 7,27 c -1.657,0 -3,1.343 -3,3 l 0,4 6,0 0,-4 C 10,28.343 8.657,27 7,27 Z"
     id="path14"
     inkscape:connector-curvature="0"
     style="fill:#aab8c2" />
  <circle
     cx="17"
     cy="4"
     r="4"
     id="circle16"
     style="fill:#d99e82" />
  <path
     d="m 13,4 8,0 0,4 -8,0 z"
     id="path18"
     inkscape:connector-curvature="0"
     style="fill:#edbb9f" />
  <path
     d="M 32,12 2,12 c -1.104,0 -2,0.896 -2,2 l 34,0 c 0,-1.104 -0.896,-2 -2,-2 z M 22,8 12,8 c -1.104,0 -2,0.896 -2,2 l 14,0 C 24,8.896 23.104,8 22,8 Z"
     id="path20"
     inkscape:connector-curvature="0"
     style="fill:#d99e82" />
  <path
     d="m 20.667,21.244 c -0.204,0.201 -0.007,0.403 -0.007,0.403 l -0.887,0.888 -1.495,1.495 -0.004,-0.003 -0.078,0.085 c -0.865,0.863 -2.264,0.863 -3.128,0 -0.862,-0.864 -0.862,-2.264 0,-3.127 0.863,-0.864 2.262,-0.864 3.128,0 0.502,0.505 0.707,1.189 0.622,1.846 l 0.895,-0.894 c -0.116,-0.59 -0.402,-1.153 -0.859,-1.609 -1.226,-1.226 -3.216,-1.226 -4.442,0 -1.227,1.227 -1.227,3.214 0,4.442 1.226,1.226 3.216,1.226 4.442,0 0.028,-0.027 0.052,-0.06 0.078,-0.086 l 0.004,0.004 2.385,-2.386 c 0,0 0.184,0.188 0.392,-0.016 0.204,-0.199 -0.004,-0.404 -0.004,-0.404 l -0.626,-0.633 c -10e-4,0.001 -0.21,-0.208 -0.416,-0.005 z M 13.22,23.579 C 13.085,23.11 13.045,22.622 13.098,22.141 l -0.085,-0.085 c -0.824,-0.822 -0.33,-1.978 -0.495,-2.141 -0.164,-0.164 -0.329,0 -0.329,0 0,0 -1.77,1.771 -1.974,1.977 -0.164,0.164 0,0.328 0,0.328 0.164,0.164 1.372,-0.275 2.087,0.441 l 0.918,0.918 z"
     id="path22"
     inkscape:connector-curvature="0"
     style="fill:#ffac33" />
</svg>
