<?xml version="1.0" encoding="UTF-8" standalone="no"?>
<svg
   xmlns:dc="http://purl.org/dc/elements/1.1/"
   xmlns:cc="http://creativecommons.org/ns#"
   xmlns:rdf="http://www.w3.org/1999/02/22-rdf-syntax-ns#"
   xmlns:svg="http://www.w3.org/2000/svg"
   xmlns="http://www.w3.org/2000/svg"
   xmlns:sodipodi="http://sodipodi.sourceforge.net/DTD/sodipodi-0.dtd"
   xmlns:inkscape="http://www.inkscape.org/namespaces/inkscape"
   viewBox="0 0 36 36"
   id="svg2"
   version="1.1"
   inkscape:version="0.91 r13725"
   sodipodi:docname="1f3e5.svg"
   width="36"
   height="36">
  <metadata
     id="metadata26">
    <rdf:RDF>
      <cc:Work
         rdf:about="">
        <dc:format>image/svg+xml</dc:format>
        <dc:type
           rdf:resource="http://purl.org/dc/dcmitype/StillImage" />
      </cc:Work>
    </rdf:RDF>
  </metadata>
  <defs
     id="defs24" />
  <sodipodi:namedview
     pagecolor="#ffffff"
     bordercolor="#666666"
     borderopacity="1"
     objecttolerance="10"
     gridtolerance="10"
     guidetolerance="10"
     inkscape:pageopacity="0"
     inkscape:pageshadow="2"
     inkscape:window-width="640"
     inkscape:window-height="480"
     id="namedview22"
     showgrid="false"
     inkscape:zoom="6.5555556"
     inkscape:cx="18"
     inkscape:cy="18"
     inkscape:window-x="0"
     inkscape:window-y="0"
     inkscape:window-maximized="0"
     inkscape:current-layer="svg2" />
  <path
     d="m 24,10 c 0,1.104 -0.896,2 -2,2 l -8,0 c -1.104,0 -2,-0.896 -2,-2 l 0,-8 c 0,-1.104 0.896,-2 2,-2 l 8,0 c 1.104,0 2,0.896 2,2 l 0,8 z M 0,14 0,34 c 0,1.104 0.896,2 2,2 l 32,0 c 1.104,0 2,-0.896 2,-2 L 36,14 0,14 Z"
     id="path4"
     inkscape:connector-curvature="0"
     style="fill:#ccd6dd" />
  <path
     d="M 18,12 2,12 c -1.104,0 -2,0.896 -2,2 l 20,0 c 0,-1.104 -0.896,-2 -2,-2 z"
     id="path6"
     inkscape:connector-curvature="0"
     style="fill:#99aab5" />
  <path
     d="m 34,12 -16,0 c -1.104,0 -2,0.896 -2,2 l 20,0 c 0,-1.104 -0.896,-2 -2,-2 z"
     id="path8"
     inkscape:connector-curvature="0"
     style="fill:#99aab5" />
  <path
     d="m 2,22 32,0 0,4 -32,0 z m 0,-6 32,0 0,4 -32,0 z m 0,12 32,0 0,4 -32,0 z"
     id="path10"
     inkscape:connector-curvature="0"
     style="fill:#55acee" />
  <path
     d="m 8,12 20,0 0,24 -20,0 z"
     id="path12"
     inkscape:connector-curvature="0"
     style="fill:#e1e8ed" />
  <path
     d="m 10,20 16,0 0,4 -16,0 z m 0,-6 16,0 0,4 -16,0 z m 0,12 16,0 0,4 -16,0 z"
     id="path14"
     inkscape:connector-curvature="0"
     style="fill:#55acee" />
  <path
     d="m 13,32 10,0 0,4 -10,0 z"
     id="path16"
     inkscape:connector-curvature="0"
     style="fill:#3b88c3" />
  <path
     d="m 22,4 -3,0 0,-3 -2,0 0,3 -3,0 0,2 3,0 0,3 2,0 0,-3 3,0 z"
     id="path18"
     inkscape:connector-curvature="0"
     style="fill:#dd2e44" />
  <path
     d="m 26,10 -16,0 c -1.104,0 -2,0.896 -2,2 l 20,0 c 0,-1.104 -0.896,-2 -2,-2 z"
     id="path20"
     inkscape:connector-curvature="0"
     style="fill:#99aab5" />
</svg>
