<?xml version="1.0" encoding="UTF-8" standalone="no"?>
<svg
   xmlns:dc="http://purl.org/dc/elements/1.1/"
   xmlns:cc="http://creativecommons.org/ns#"
   xmlns:rdf="http://www.w3.org/1999/02/22-rdf-syntax-ns#"
   xmlns:svg="http://www.w3.org/2000/svg"
   xmlns="http://www.w3.org/2000/svg"
   xmlns:sodipodi="http://sodipodi.sourceforge.net/DTD/sodipodi-0.dtd"
   xmlns:inkscape="http://www.inkscape.org/namespaces/inkscape"
   viewBox="0 0 36 36"
   id="svg2"
   version="1.1"
   inkscape:version="0.91 r13725"
   sodipodi:docname="1f3ec.svg"
   width="36"
   height="36">
  <metadata
     id="metadata38">
    <rdf:RDF>
      <cc:Work
         rdf:about="">
        <dc:format>image/svg+xml</dc:format>
        <dc:type
           rdf:resource="http://purl.org/dc/dcmitype/StillImage" />
      </cc:Work>
    </rdf:RDF>
  </metadata>
  <defs
     id="defs36" />
  <sodipodi:namedview
     pagecolor="#ffffff"
     bordercolor="#666666"
     borderopacity="1"
     objecttolerance="10"
     gridtolerance="10"
     guidetolerance="10"
     inkscape:pageopacity="0"
     inkscape:pageshadow="2"
     inkscape:window-width="640"
     inkscape:window-height="480"
     id="namedview34"
     showgrid="false"
     inkscape:zoom="6.5555556"
     inkscape:cx="18"
     inkscape:cy="18"
     inkscape:window-x="0"
     inkscape:window-y="0"
     inkscape:window-maximized="0"
     inkscape:current-layer="svg2" />
  <path
     d="m 14,34 c 0,1.104 0.896,2 2,2 l 18,0 c 1.104,0 2,-0.896 2,-2 l 0,-20 c 0,-1.104 -0.896,-2 -2,-2 l -18,0 c -1.104,0 -2,0.896 -2,2 l 0,20 z"
     id="path4"
     inkscape:connector-curvature="0"
     style="fill:#ffcc4d" />
  <path
     d="m 34,12 -14,0 0,2 16,0 c 0,-1.104 -0.896,-2 -2,-2 z"
     id="path6"
     inkscape:connector-curvature="0"
     style="fill:#bcbec0" />
  <path
     d="m 20,16 14,0 0,20 -14,0 z"
     id="path8"
     inkscape:connector-curvature="0"
     style="fill:#55acee" />
  <path
     d="M 18,0 2,0 C 0.896,0 0,0.896 0,2 l 0,32 c 0,1.104 0.896,2 2,2 L 20,36 20,2 C 20,0.896 19.104,0 18,0 Z"
     id="path10"
     inkscape:connector-curvature="0"
     style="fill:#ffe8b6" />
  <path
     d="M 18,0 2,0 C 0.896,0 0,0.896 0,2 L 20,2 C 20,0.896 19.104,0 18,0 Z"
     id="path12"
     inkscape:connector-curvature="0"
     style="fill:#bcbec0" />
  <path
     d="m 2,22 16,0 0,4 -16,0 z m 0,-6 16,0 0,4 -16,0 z m 0,-6 16,0 0,4 -16,0 z M 2,4 18,4 18,8 2,8 Z m 0,24 16,0 0,8 -16,0 z"
     id="path14"
     inkscape:connector-curvature="0"
     style="fill:#55acee" />
  <path
     d="m 6,32 8,0 0,4 -8,0 z m 17,0 8,0 0,4 -8,0 z"
     id="path16"
     inkscape:connector-curvature="0"
     style="fill:#3b88c3" />
  <path
     d="m 20,26 15,0 0,2 -15,0 z m 0,-6 15,0 0,2 -15,0 z"
     id="path18"
     inkscape:connector-curvature="0"
     style="fill:#ffcc4d" />
  <path
     d="m 36,7 c 0,1.104 -0.896,2 -2,2 L 24,9 C 22.896,9 22,8.104 22,7 l 0,-2 c 0,-1.104 0.896,-2 2,-2 l 10,0 c 1.104,0 2,0.896 2,2 l 0,2 z"
     id="path20"
     inkscape:connector-curvature="0"
     style="fill:#dd2e44" />
  <path
     d="m 26,9 2,0 0,3 -2,0 z m 4,0 2,0 0,3 -2,0 z"
     id="path22"
     inkscape:connector-curvature="0"
     style="fill:#58595b" />
  <path
     d="m 24,5 2,0 0,2 -2,0 z"
     id="path24"
     inkscape:connector-curvature="0"
     style="fill:#f4abba" />
  <path
     d="m 26,5 2,0 0,2 -2,0 z"
     id="path26"
     inkscape:connector-curvature="0"
     style="fill:#ffffff" />
  <path
     d="m 28,5 2,0 0,2 -2,0 z"
     id="path28"
     inkscape:connector-curvature="0"
     style="fill:#f4abba" />
  <path
     d="m 30,5 2,0 0,2 -2,0 z"
     id="path30"
     inkscape:connector-curvature="0"
     style="fill:#ffffff" />
  <path
     d="m 32,5 2,0 0,2 -2,0 z"
     id="path32"
     inkscape:connector-curvature="0"
     style="fill:#f4abba" />
</svg>
