<?xml version="1.0" encoding="UTF-8" standalone="no"?>
<svg
   xmlns:dc="http://purl.org/dc/elements/1.1/"
   xmlns:cc="http://creativecommons.org/ns#"
   xmlns:rdf="http://www.w3.org/1999/02/22-rdf-syntax-ns#"
   xmlns:svg="http://www.w3.org/2000/svg"
   xmlns="http://www.w3.org/2000/svg"
   xmlns:sodipodi="http://sodipodi.sourceforge.net/DTD/sodipodi-0.dtd"
   xmlns:inkscape="http://www.inkscape.org/namespaces/inkscape"
   viewBox="0 0 34 36"
   id="svg2"
   version="1.1"
   inkscape:version="0.91 r13725"
   sodipodi:docname="1f3ed.svg"
   width="34"
   height="36">
  <metadata
     id="metadata20">
    <rdf:RDF>
      <cc:Work
         rdf:about="">
        <dc:format>image/svg+xml</dc:format>
        <dc:type
           rdf:resource="http://purl.org/dc/dcmitype/StillImage" />
      </cc:Work>
    </rdf:RDF>
  </metadata>
  <defs
     id="defs18" />
  <sodipodi:namedview
     pagecolor="#ffffff"
     bordercolor="#666666"
     borderopacity="1"
     objecttolerance="10"
     gridtolerance="10"
     guidetolerance="10"
     inkscape:pageopacity="0"
     inkscape:pageshadow="2"
     inkscape:window-width="640"
     inkscape:window-height="480"
     id="namedview16"
     showgrid="false"
     inkscape:zoom="6.5555556"
     inkscape:cx="17"
     inkscape:cy="18"
     inkscape:window-x="0"
     inkscape:window-y="0"
     inkscape:window-maximized="0"
     inkscape:current-layer="svg2" />
  <path
     d="M 9.308,9 4.692,9 4.538,11 9.462,11 Z M 9,5 5,5 4.846,7 9.154,7 Z m 0.615,8 -5.23,0 -0.154,2 5.538,0 z M 4,18 10,18 9.923,17 4.077,17 Z m 15.615,-5 -5.23,0 -0.154,2 5.538,0 z M 14,18 l 6,0 -0.077,-1 -5.846,0 z m 5.308,-9 -4.616,0 -0.154,2 4.924,0 z M 19,5 15,5 14.846,7 19.154,7 Z m 10.308,4 -4.616,0 -0.154,2 4.924,0 z m -5.231,8 -0.077,1 6,0 -0.077,-1 z m 5.538,-4 -5.23,0 -0.154,2 5.538,0 z M 29,5 25,5 24.846,7 29.154,7 Z"
     id="path4"
     inkscape:connector-curvature="0"
     style="fill:#be1931" />
  <path
     d="m 9.462,11 -4.924,0 -0.153,2 5.23,0 z M 9.154,7 4.846,7 4.692,9 9.308,9 Z m -4.923,8 -0.154,2 5.846,0 -0.154,-2 z m 15.231,-4 -4.924,0 -0.153,2 5.23,0 z m -0.308,-4 -4.308,0 -0.154,2 4.616,0 z m -4.923,8 -0.154,2 5.846,0 -0.154,-2 z m 15.231,-4 -4.924,0 -0.153,2 5.23,0 z m 0.307,4 -5.538,0 -0.154,2 5.846,0 z m -0.615,-8 -4.308,0 -0.154,2 4.616,0 z"
     id="path6"
     inkscape:connector-curvature="0"
     style="fill:#e6e7e8" />
  <path
     d="m 34,34 c 0,1.104 -0.896,2 -2,2 L 2,36 C 0.896,36 0,35.104 0,34 L 0,20 c 0,-1.104 0.896,-2 2,-2 l 30,0 c 1.104,0 2,0.896 2,2 l 0,14 z"
     id="path8"
     inkscape:connector-curvature="0"
     style="fill:#a0041e" />
  <path
     d="m 0,20 34,0 0,2 -34,0 z"
     id="path10"
     inkscape:connector-curvature="0"
     style="fill:#c1694f" />
  <path
     d="m 5,24 4,0 0,4 -4,0 z m 10,0 4,0 0,4 -4,0 z m 10,0 4,0 0,4 -4,0 z m -20,6 4,0 0,4 -4,0 z m 10,0 4,0 0,4 -4,0 z m 10,0 4,0 0,4 -4,0 z"
     id="path12"
     inkscape:connector-curvature="0"
     style="fill:#aab8c2" />
  <path
     d="M 8,0 C 6.896,0 6,0.896 6,2 6,2.457 6.159,2.873 6.417,3.209 6.17,3.392 6,3.67 6,4 6,4.552 6.448,5 7,5 7.552,5 8,4.552 8,4 9.104,4 10,3.104 10,2 10,0.896 9.104,0 8,0 Z m 10,0 c -1.104,0 -2,0.896 -2,2 0,0.457 0.159,0.873 0.417,1.209 C 16.17,3.392 16,3.67 16,4 c 0,0.552 0.448,1 1,1 0.552,0 1,-0.448 1,-1 1.104,0 2,-0.896 2,-2 0,-1.104 -0.896,-2 -2,-2 z m 10,0 c -1.104,0 -2,0.896 -2,2 0,0.457 0.159,0.873 0.417,1.209 C 26.17,3.392 26,3.67 26,4 c 0,0.552 0.447,1 1,1 0.553,0 1,-0.448 1,-1 1.104,0 2,-0.896 2,-2 0,-1.104 -0.896,-2 -2,-2 z"
     id="path14"
     inkscape:connector-curvature="0"
     style="fill:#d1d3d4" />
</svg>
