<?xml version="1.0" encoding="UTF-8" standalone="no"?>
<svg
   xmlns:dc="http://purl.org/dc/elements/1.1/"
   xmlns:cc="http://creativecommons.org/ns#"
   xmlns:rdf="http://www.w3.org/1999/02/22-rdf-syntax-ns#"
   xmlns:svg="http://www.w3.org/2000/svg"
   xmlns="http://www.w3.org/2000/svg"
   xmlns:sodipodi="http://sodipodi.sourceforge.net/DTD/sodipodi-0.dtd"
   xmlns:inkscape="http://www.inkscape.org/namespaces/inkscape"
   viewBox="0 0 24.684 35.708"
   id="svg2"
   version="1.1"
   inkscape:version="0.91 r13725"
   sodipodi:docname="1f3fa.svg"
   width="24.684"
   height="35.708">
  <metadata
     id="metadata14">
    <rdf:RDF>
      <cc:Work
         rdf:about="">
        <dc:format>image/svg+xml</dc:format>
        <dc:type
           rdf:resource="http://purl.org/dc/dcmitype/StillImage" />
      </cc:Work>
    </rdf:RDF>
  </metadata>
  <defs
     id="defs12" />
  <sodipodi:namedview
     pagecolor="#ffffff"
     bordercolor="#666666"
     borderopacity="1"
     objecttolerance="10"
     gridtolerance="10"
     guidetolerance="10"
     inkscape:pageopacity="0"
     inkscape:pageshadow="2"
     inkscape:window-width="640"
     inkscape:window-height="480"
     id="namedview10"
     showgrid="false"
     inkscape:zoom="6.5555556"
     inkscape:cx="12.684"
     inkscape:cy="17.917"
     inkscape:window-x="0"
     inkscape:window-y="0"
     inkscape:window-maximized="0"
     inkscape:current-layer="svg2" />
  <path
     d="m 22.527,11.691 c 0.205,-0.371 0.39,-0.766 0.548,-1.183 C 24.284,7.321 23.542,4.085 21.417,3.279 19.829,2.677 17.918,3.605 16.549,5.443 16.152,4.302 16.001,3.234 16.457,2.791 l -8.228,0 C 8.684,3.234 8.533,4.302 8.136,5.443 6.767,3.605 4.856,2.677 3.268,3.279 1.143,4.085 0.4,7.321 1.609,10.508 1.767,10.926 1.953,11.32 2.157,11.691 0.973,12.857 0,14.57 0,17.254 c 0,6.17 8.227,13.39 9.256,15.447 -0.126,0.045 6.297,0.045 6.171,0 1.03,-2.058 9.257,-9.277 9.257,-15.448 0,-2.683 -0.973,-4.396 -2.157,-5.562 z M 6.172,9.005 C 5.79,9.387 4.839,9.773 3.795,10.423 3.684,10.225 3.581,10.017 3.496,9.792 2.879,8.168 3.259,6.52 4.341,6.109 5.272,5.755 6.417,6.438 7.113,7.668 6.778,8.253 6.44,8.737 6.172,9.005 Z m 15.017,0.787 c -0.085,0.225 -0.188,0.433 -0.299,0.632 -1.044,-0.65 -1.995,-1.036 -2.377,-1.418 -0.268,-0.268 -0.606,-0.753 -0.94,-1.337 0.695,-1.23 1.841,-1.913 2.772,-1.559 1.081,0.41 1.461,2.058 0.844,3.682 z"
     id="path4"
     inkscape:connector-curvature="0"
     style="fill:#c1694f" />
  <path
     d="m 13.23,31.538 -1.916,0 c -2.057,0 -5.142,0.971 -5.142,3.027 0,1.029 3.942,1.143 6.085,1.143 l 0.032,0 c 2.143,0 6.084,-0.113 6.084,-1.143 -0.001,-2.056 -3.085,-3.027 -5.143,-3.027 z M 24.684,17.253 c 0,-2.611 -0.923,-4.299 -2.063,-5.462 l -20.557,0 c -1.14,1.163 -2.063,2.852 -2.063,5.462 0,1.481 0.481,3.022 1.216,4.538 l 22.251,0 c 0.735,-1.516 1.216,-3.057 1.216,-4.538 z M 18.372,1.164 C 18.372,0.153 14.564,0.005 12.4,0 L 12.284,0 C 10.12,0.005 6.312,0.152 6.312,1.164 c 0,2.013 3.796,2.942 5.887,2.982 l 0.285,0 c 2.093,-0.041 5.888,-0.97 5.888,-2.982 z"
     id="path6"
     inkscape:connector-curvature="0"
     style="fill:#272b2b" />
  <path
     d="m 7.715,19.791 -2.571,0 c -0.284,0 -0.514,-0.216 -0.514,-0.5 0,-0.284 0.23,-0.5 0.514,-0.5 l 2.54,0 0,-4 -4,0 0,1 2.488,0 c 0.284,0 0.514,0.216 0.514,0.5 0,0.284 -0.23,0.5 -0.514,0.5 l -2.426,0 c -0.541,0 -1.062,-0.146 -1.062,-0.771 l 0,-1.315 c 0,-0.726 0.604,-0.914 0.888,-0.914 l 4.143,0 c 0.698,0 0.969,0.479 0.969,0.915 l 0,4.114 c 0,0.617 -0.458,0.971 -0.969,0.971 z m 14,0 -2.572,0 c -0.283,0 -0.514,-0.216 -0.514,-0.5 0,-0.284 0.231,-0.5 0.514,-0.5 l 2.541,0 0,-4 -4,0 0,1 2.488,0 c 0.283,0 0.514,0.216 0.514,0.5 0,0.284 -0.231,0.5 -0.514,0.5 l -2.426,0 c -0.541,0 -1.062,-0.146 -1.062,-0.771 l 0,-1.315 c 0,-0.726 0.604,-0.914 0.889,-0.914 l 4.143,0 c 0.697,0 0.968,0.479 0.968,0.915 l 0,4.114 c 0,0.617 -0.458,0.971 -0.969,0.971 z m -7,0 -2.572,0 c -0.283,0 -0.514,-0.216 -0.514,-0.5 0,-0.284 0.231,-0.5 0.514,-0.5 l 2.541,0 0,-4 -4,0 0,1 2.488,0 c 0.283,0 0.514,0.216 0.514,0.5 0,0.284 -0.231,0.5 -0.514,0.5 l -2.426,0 c -0.541,0 -1.062,-0.146 -1.062,-0.771 l 0,-1.315 c 0,-0.726 0.604,-0.914 0.889,-0.914 l 4.143,0 c 0.697,0 0.968,0.479 0.968,0.915 l 0,4.114 c 0,0.617 -0.458,0.971 -0.969,0.971 z"
     id="path8"
     inkscape:connector-curvature="0"
     style="fill:#c1694f" />
</svg>
