<?xml version="1.0" encoding="UTF-8" standalone="no"?>
<svg
   xmlns:dc="http://purl.org/dc/elements/1.1/"
   xmlns:cc="http://creativecommons.org/ns#"
   xmlns:rdf="http://www.w3.org/1999/02/22-rdf-syntax-ns#"
   xmlns:svg="http://www.w3.org/2000/svg"
   xmlns="http://www.w3.org/2000/svg"
   xmlns:sodipodi="http://sodipodi.sourceforge.net/DTD/sodipodi-0.dtd"
   xmlns:inkscape="http://www.inkscape.org/namespaces/inkscape"
   viewBox="0 0 34.137001 23.715"
   id="svg2"
   version="1.1"
   inkscape:version="0.91 r13725"
   sodipodi:docname="1f401.svg"
   width="34.137001"
   height="23.715">
  <metadata
     id="metadata20">
    <rdf:RDF>
      <cc:Work
         rdf:about="">
        <dc:format>image/svg+xml</dc:format>
        <dc:type
           rdf:resource="http://purl.org/dc/dcmitype/StillImage" />
      </cc:Work>
    </rdf:RDF>
  </metadata>
  <defs
     id="defs18" />
  <sodipodi:namedview
     pagecolor="#ffffff"
     bordercolor="#666666"
     borderopacity="1"
     objecttolerance="10"
     gridtolerance="10"
     guidetolerance="10"
     inkscape:pageopacity="0"
     inkscape:pageshadow="2"
     inkscape:window-width="640"
     inkscape:window-height="480"
     id="namedview16"
     showgrid="false"
     inkscape:zoom="6.5555556"
     inkscape:cx="16.137"
     inkscape:cy="18"
     inkscape:window-x="0"
     inkscape:window-y="0"
     inkscape:window-maximized="0"
     inkscape:current-layer="svg2" />
  <path
     d="m 28.137,23.715 -13,0 c -0.552,0 -1,-0.447 -1,-1 0,-0.553 0.448,-1 1,-1 l 13,0 c 2.542,0 4,-1.367 4,-3.75 0,-1.537 -1.643,-3.25 -4,-3.25 l -7,0 c -0.553,0 -1,-0.447 -1,-1 0,-0.553 0.447,-1 1,-1 l 7,0 c 3.589,0 6,2.715 6,5.25 0,3.493 -2.355,5.75 -6,5.75 z"
     id="path4"
     inkscape:connector-curvature="0"
     style="fill:#ea596e" />
  <path
     d="m 10.137,14.432 c 0,-2.85 3,-7.035 0,-7.035 -4,0 -10.137,6.566 -10.137,8.442 0,1.876 6.441,1.876 9.29,1.876 2.849,0 0.847,-0.434 0.847,-3.283 z"
     id="path6"
     inkscape:connector-curvature="0"
     style="fill:#ccd6dd" />
  <path
     d="M 31.137,11.617 C 31.137,3.644 24.583,1.865 19.756,2.83 10.376,4.706 8.624,9.272 8.624,13.024 c 0,4.922 9.149,4.69 14.071,4.69 4.922,0 8.442,-1.174 8.442,-6.097 z"
     id="path8"
     inkscape:connector-curvature="0"
     style="fill:#ccd6dd" />
  <path
     d="m 23.137,10.211 -17.106,1.875 3.531,5.629 13.575,0 z M 15.055,4.858 C 15.055,2.175 13.058,0 10.597,0 8.134,0.001 6.137,2.175 6.137,4.858 c 0,2.683 1.997,4.857 4.46,4.857 2.461,0 4.458,-2.174 4.458,-4.857 z"
     id="path10"
     inkscape:connector-curvature="0"
     style="fill:#ccd6dd" />
  <path
     d="m 12.507,5.398 c 0,1.788 -1.141,3.239 -2.548,3.239 -1.408,0 -2.548,-1.451 -2.548,-3.239 0,-1.788 1.14,-3.238 2.548,-3.238 1.407,-0.001 2.548,1.449 2.548,3.238 z"
     id="path12"
     inkscape:connector-curvature="0"
     style="fill:#f4abba" />
  <circle
     cx="6.6370001"
     cy="12.215"
     r="1.5"
     id="circle14"
     style="fill:#dd2e44" />
</svg>
