<?xml version="1.0" encoding="UTF-8" standalone="no"?>
<svg
   xmlns:dc="http://purl.org/dc/elements/1.1/"
   xmlns:cc="http://creativecommons.org/ns#"
   xmlns:rdf="http://www.w3.org/1999/02/22-rdf-syntax-ns#"
   xmlns:svg="http://www.w3.org/2000/svg"
   xmlns="http://www.w3.org/2000/svg"
   xmlns:sodipodi="http://sodipodi.sourceforge.net/DTD/sodipodi-0.dtd"
   xmlns:inkscape="http://www.inkscape.org/namespaces/inkscape"
   viewBox="0 0 36 30.934999"
   id="svg2"
   version="1.1"
   inkscape:version="0.91 r13725"
   sodipodi:docname="1f40c.svg"
   width="36"
   height="30.934999">
  <metadata
     id="metadata16">
    <rdf:RDF>
      <cc:Work
         rdf:about="">
        <dc:format>image/svg+xml</dc:format>
        <dc:type
           rdf:resource="http://purl.org/dc/dcmitype/StillImage" />
      </cc:Work>
    </rdf:RDF>
  </metadata>
  <defs
     id="defs14" />
  <sodipodi:namedview
     pagecolor="#ffffff"
     bordercolor="#666666"
     borderopacity="1"
     objecttolerance="10"
     gridtolerance="10"
     guidetolerance="10"
     inkscape:pageopacity="0"
     inkscape:pageshadow="2"
     inkscape:window-width="640"
     inkscape:window-height="480"
     id="namedview12"
     showgrid="false"
     inkscape:zoom="6.5555556"
     inkscape:cx="18"
     inkscape:cy="17.936"
     inkscape:window-x="0"
     inkscape:window-y="0"
     inkscape:window-maximized="0"
     inkscape:current-layer="svg2" />
  <path
     d="m 9,10.56 c 0,-4 2,-8 0,-10 -2,-2 -3,2 -2,2 1.414,0 2,2 1,5 -1,3 1,3.999 1,3 z m -3.875,0 c 0,-4 2,-8 0,-10 -2,-2 -3,2 -2,2 1.414,0 2,2 1,5 -1,3 1,3.999 1,3 z"
     id="path4"
     inkscape:connector-curvature="0"
     style="fill:#9266cc" />
  <path
     d="m 36,29.935 c 0,1 -1,1 -2,1 l -23,0 c -5,0 -7.272,-3.09 -8,-6 -1,-4 2,-11 0,-12 -2,-1 -3,-1 -3,-3 0,-2 4.47,-5.265 7,-4 4,2 2.767,6.932 2,10 -0.88,3.522 1.115,3.594 5,5 4.94,1.787 12.32,4.44 14,5 3,1 8,3 8,4 z"
     id="path6"
     inkscape:connector-curvature="0"
     style="fill:#aa8dd8" />
  <path
     d="m 10.925,19.934 c 2.887,1 3.849,9 13.472,9 6.377,0 8.66,-5.479 8.66,-11 0,-5.523 -5.17,-10 -11.547,-10 -6.377,10e-4 -11.498,11.684 -10.585,12 z"
     id="path8"
     inkscape:connector-curvature="0"
     style="fill:#ffcc4d" />
  <path
     d="m 24.914,28.937 c 1.708,0 3.389,-0.48 4.892,-1.418 2.185,-1.361 3.729,-3.527 4.348,-6.098 C 35.684,15.058 31.948,8.587 25.825,6.996 18.432,5.073 10.906,9.764 9.057,17.451 c -0.258,1.072 0.369,2.158 1.399,2.426 1.027,0.271 2.076,-0.383 2.335,-1.455 1.334,-5.546 6.761,-8.93 12.1,-7.544 4.063,1.056 6.544,5.351 5.528,9.574 -0.369,1.533 -1.29,2.826 -2.594,3.639 -1.305,0.812 -2.836,1.051 -4.311,0.666 -1.08,-0.279 -1.991,-0.98 -2.564,-1.973 -0.572,-0.994 -0.74,-2.158 -0.469,-3.281 0.19,-0.795 0.668,-1.465 1.344,-1.887 0.676,-0.421 1.527,-0.707 2.234,-0.345 1.298,0.665 1.298,2.665 0.336,3.665 -0.752,0.781 1.604,1.065 2.887,0 1.15,-0.955 1.645,-2.492 1.068,-4.199 -0.581,-1.724 -1.805,-2.942 -3.358,-3.347 -1.762,-0.458 -3.59,-0.176 -5.148,0.797 -1.557,0.971 -2.657,2.515 -3.098,4.347 -0.519,2.158 -0.199,4.398 0.903,6.307 1.103,1.91 2.853,3.258 4.931,3.797 0.775,0.199 1.558,0.299 2.334,0.299 z"
     id="path10"
     inkscape:connector-curvature="0"
     style="fill:#ffac33" />
</svg>
