<?xml version="1.0" encoding="UTF-8" standalone="no"?>
<svg
   xmlns:dc="http://purl.org/dc/elements/1.1/"
   xmlns:cc="http://creativecommons.org/ns#"
   xmlns:rdf="http://www.w3.org/1999/02/22-rdf-syntax-ns#"
   xmlns:svg="http://www.w3.org/2000/svg"
   xmlns="http://www.w3.org/2000/svg"
   xmlns:sodipodi="http://sodipodi.sourceforge.net/DTD/sodipodi-0.dtd"
   xmlns:inkscape="http://www.inkscape.org/namespaces/inkscape"
   viewBox="0 0 35.85104 32.673496"
   id="svg2"
   version="1.1"
   inkscape:version="0.91 r13725"
   sodipodi:docname="1f40e.svg"
   width="35.85104"
   height="32.673496">
  <metadata
     id="metadata26">
    <rdf:RDF>
      <cc:Work
         rdf:about="">
        <dc:format>image/svg+xml</dc:format>
        <dc:type
           rdf:resource="http://purl.org/dc/dcmitype/StillImage" />
      </cc:Work>
    </rdf:RDF>
  </metadata>
  <defs
     id="defs24" />
  <sodipodi:namedview
     pagecolor="#ffffff"
     bordercolor="#666666"
     borderopacity="1"
     objecttolerance="10"
     gridtolerance="10"
     guidetolerance="10"
     inkscape:pageopacity="0"
     inkscape:pageshadow="2"
     inkscape:window-width="640"
     inkscape:window-height="480"
     id="namedview22"
     showgrid="false"
     inkscape:zoom="6.5555556"
     inkscape:cx="17.932"
     inkscape:cy="17.943494"
     inkscape:window-x="0"
     inkscape:window-y="0"
     inkscape:window-maximized="0"
     inkscape:current-layer="svg2" />
  <path
     d="m 28.653,9.579 c 0,0 3.809,1.643 5.532,0.449 1.723,-1.193 2.11,-2.773 1.159,-4.736 C 34.393,3.331 31.721,2.56 31.632,0 c 0,0 -0.298,4.141 1.513,5.505 2.562,1.933 -0.446,4.21 -3.522,3.828 -3.078,-0.382 -0.97,0.246 -0.97,0.246 z"
     id="path4"
     inkscape:connector-curvature="0"
     style="fill:#292f33" />
  <path
     d="m 23.807,16.105 c 0,0 -0.628,2.542 0.187,5.03 0.145,0.341 0.049,0.556 -0.208,0.678 -0.256,0.122 -4.294,1.542 -4.729,1.771 -0.396,0.208 -1.142,1.78 -1.208,2.854 0.844,0.218 1.625,0.104 1.625,0.104 0,0 0.025,-1.915 0.208,-2.042 0.183,-0.127 5.686,-1.048 6.062,-1.771 0.376,-0.723 1.611,-3.888 0.812,-5.292 -0.225,-0.395 -0.637,-1.15 -0.637,-1.15 l -2.112,-0.182 z"
     id="path6"
     inkscape:connector-curvature="0"
     style="fill:#8a4b38" />
  <path
     d="m 17.849,26.438 c 0,0 -0.616,1.993 0.008,2.138 0.605,0.141 1.694,-0.388 1.755,-0.646 0.081,-0.343 0.216,-1.179 0.098,-1.366 -0.118,-0.186 -1.861,-0.126 -1.861,-0.126 z"
     id="path8"
     inkscape:connector-curvature="0"
     style="fill:#292f33" />
  <path
     d="m 11.744,18.605 -0.75,-2.562 c 0,0 -2.766,2.105 -3.938,3.594 -0.344,0.437 -1.847,3.198 -1.722,4.413 0.05,0.488 0.474,2.583 0.474,2.583 l 1.651,-0.465 c 0,0 -1.312,-1.896 -1.021,-2.562 1.428,-3.263 5.306,-5.001 5.306,-5.001 z"
     id="path10"
     inkscape:connector-curvature="0"
     style="fill:#8a4b38" />
  <path
     d="m 7.611,26.154 c -0.172,-0.139 -1.803,0.479 -1.803,0.479 0,0 0.057,2.085 0.695,2.022 C 7.121,28.594 7.983,27.743 7.958,27.48 7.924,27.129 7.783,26.293 7.611,26.154 Z"
     id="path12"
     inkscape:connector-curvature="0"
     style="fill:#292f33" />
  <path
     d="m 27.12,7.918 c -3.437,0.156 -7.207,0.438 -9.5,0.438 -3.655,0 -5.219,-1.428 -6.562,-2.625 C 8.77,3.694 8.099,1.509 5.932,2.231 5.932,2.231 5.3,1.82 4.685,1.453 L 4.424,1.301 C 4.168,1.153 3.932,1.025 3.768,0.954 3.604,0.882 3.51,0.867 3.54,0.944 3.559,0.995 3.633,1.087 3.776,1.23 4.248,1.702 4.451,2.18 4.504,2.625 2.494,3.827 2.411,4.901 1.633,6.177 1.141,6.984 0.27299996,8.231 0.07299996,8.692 -0.33900004,9.64 1.097,10.744 1.779,10.099 2.672,9.254 2.74,8.977 3.811,8.355 4.794,8.339 5.786,7.939 6.119,7.335 c 0,0 0.938,2.083 1.938,3.583 1,1.5 2.5,3.125 2.5,3.125 -0.131,1.227 0.12,2.176 0.549,2.922 -0.385,0.757 -0.924,1.807 -1.417,2.745 -0.656,1.245 -1.473,3.224 -1.208,3.618 0.534,0.798 2.719,2.926 4.137,3.311 1.03,0.28 2.14,0.437 2.14,0.437 l -0.193,-1.574 c 0,0 -1.343,0.213 -1.875,-0.083 -1.427,-0.795 -2.666,-2.248 -2.708,-2.542 -0.07,-0.487 3.841,-2.868 5.14,-3.645 2.266,0.097 6.022,-0.369 8.626,-1.702 0.958,1.86 2.978,2.513 2.978,2.513 0,0 0.667,2.208 1.375,4.125 -1.017,0.533 -4.468,3.254 -4.975,3.854 -0.456,0.54 -0.856,2.49 -0.856,2.49 0.82,0.375 1.57,0.187 1.57,0.187 0,0 0.039,-1.562 0.385,-2.073 0.346,-0.511 4.701,-2.559 5.958,-3.458 0.492,-0.352 0.404,-0.903 0.262,-1.552 -0.321,-1.471 -0.97,-4.781 -0.971,-4.782 C 34.62,15.855 35.932,7.518 27.12,7.918 Z"
     id="path14"
     inkscape:connector-curvature="0"
     style="fill:#c1694f" />
  <path
     d="m 22.268,30.512 c 0,0 -0.616,1.993 0.008,2.138 0.605,0.141 1.694,-0.388 1.755,-0.646 0.081,-0.343 0.216,-1.179 0.098,-1.366 -0.118,-0.187 -1.861,-0.126 -1.861,-0.126 z m -7.676,-5.296 c -0.167,0.146 0.164,1.859 0.164,1.859 0,0 2.064,0.299 2.111,-0.34 0.045,-0.62 -0.647,-1.614 -0.91,-1.634 -0.351,-0.027 -1.198,-0.031 -1.365,0.115 z"
     id="path16"
     inkscape:connector-curvature="0"
     style="fill:#292f33" />
  <circle
     cx="4.1820002"
     cy="4.777"
     r="0.34900001"
     id="circle18"
     style="fill:#292f33" />
  <path
     d="M 12.587,5.8 C 14.36,7.246 15.734,6.122 15.734,6.122 14.439,5.851 13.678,5.255 13.026,4.56 13.861,4.429 14.313,3.894 14.313,3.894 13.252,3.881 12.489,3.594 11.828,3.195 11.263,2.581 10.595,1.993 9.574,1.564 9.28,1.439 8.968,1.354 8.652,1.288 8.566,1.263 8.474,1.225 8.394,1.215 7.488,1.101 6.549,1.266 5.657,1.818 5.335,2.018 5.443,2.457 5.774,2.441 7.515,2.356 8.64,3.023 9.244,4.074 c 2.169,3.772 5.344,3.875 5.344,3.875 0,0 -1.29,-0.688 -2.001,-2.149 z"
     id="path20"
     inkscape:connector-curvature="0"
     style="fill:#292f33" />
</svg>
