<?xml version="1.0" encoding="UTF-8" standalone="no"?>
<svg
   xmlns:dc="http://purl.org/dc/elements/1.1/"
   xmlns:cc="http://creativecommons.org/ns#"
   xmlns:rdf="http://www.w3.org/1999/02/22-rdf-syntax-ns#"
   xmlns:svg="http://www.w3.org/2000/svg"
   xmlns="http://www.w3.org/2000/svg"
   xmlns:sodipodi="http://sodipodi.sourceforge.net/DTD/sodipodi-0.dtd"
   xmlns:inkscape="http://www.inkscape.org/namespaces/inkscape"
   viewBox="0 0 36 26.938"
   id="svg2"
   version="1.1"
   inkscape:version="0.91 r13725"
   sodipodi:docname="1f402.svg"
   width="36"
   height="26.938">
  <metadata
     id="metadata14">
    <rdf:RDF>
      <cc:Work
         rdf:about="">
        <dc:format>image/svg+xml</dc:format>
        <dc:type
           rdf:resource="http://purl.org/dc/dcmitype/StillImage" />
      </cc:Work>
    </rdf:RDF>
  </metadata>
  <defs
     id="defs12" />
  <sodipodi:namedview
     pagecolor="#ffffff"
     bordercolor="#666666"
     borderopacity="1"
     objecttolerance="10"
     gridtolerance="10"
     guidetolerance="10"
     inkscape:pageopacity="0"
     inkscape:pageshadow="2"
     inkscape:window-width="640"
     inkscape:window-height="480"
     id="namedview10"
     showgrid="false"
     inkscape:zoom="6.5555556"
     inkscape:cx="18"
     inkscape:cy="18"
     inkscape:window-x="0"
     inkscape:window-y="0"
     inkscape:window-maximized="0"
     inkscape:current-layer="svg2" />
  <path
     d="M 33.912,5.308 C 33.588,3.54 31.976,1.938 30,1.938 l -21,0 c -1,0 -5.325,0.035 -6,2 l -2.309,6.305 c -0.675,1.965 0.309,4.782 2.336,4.782 1.15,0 2.596,-0.028 3.998,-0.052 2.991,4.011 5.873,11.965 6.975,11.965 0.849,0 1.572,-3.414 1.862,-6 l 11.25,0 c 0.234,2.528 0.843,6 1.888,6 0.954,0 2.977,-4.301 4.136,-10.917 C 33.567,14.12 33.862,11.603 33.96,8.374 33.984,8.546 34,8.73 34,8.938 l 0,9 c 0,0.553 0.447,1 1,1 0.553,0 1,-0.447 1,-1 l 0,-9 C 36,7.131 35.251,5.885 33.912,5.308 Z"
     id="path4"
     inkscape:connector-curvature="0"
     style="fill:#c1694f" />
  <path
     d="m 10,2.938 c -2,2 -4.791,-1 -7,-1 C 0.791,1.938 0,1.504 0,0.969 0,0.434 1.791,0 4,0 c 2.209,0 8,0.938 6,2.938 z"
     id="path6"
     inkscape:connector-curvature="0"
     style="fill:#ccd6dd" />
  <circle
     cx="6"
     cy="6.9380002"
     r="1"
     id="circle8"
     style="fill:#292f33" />
</svg>
