<?xml version="1.0" encoding="UTF-8" standalone="no"?>
<svg
   xmlns:dc="http://purl.org/dc/elements/1.1/"
   xmlns:cc="http://creativecommons.org/ns#"
   xmlns:rdf="http://www.w3.org/1999/02/22-rdf-syntax-ns#"
   xmlns:svg="http://www.w3.org/2000/svg"
   xmlns="http://www.w3.org/2000/svg"
   xmlns:sodipodi="http://sodipodi.sourceforge.net/DTD/sodipodi-0.dtd"
   xmlns:inkscape="http://www.inkscape.org/namespaces/inkscape"
   viewBox="0 0 35.483738 34.78661"
   id="svg2"
   version="1.1"
   inkscape:version="0.91 r13725"
   sodipodi:docname="1f410.svg"
   width="35.483738"
   height="34.78661">
  <metadata
     id="metadata18">
    <rdf:RDF>
      <cc:Work
         rdf:about="">
        <dc:format>image/svg+xml</dc:format>
        <dc:type
           rdf:resource="http://purl.org/dc/dcmitype/StillImage" />
      </cc:Work>
    </rdf:RDF>
  </metadata>
  <defs
     id="defs16" />
  <sodipodi:namedview
     pagecolor="#ffffff"
     bordercolor="#666666"
     borderopacity="1"
     objecttolerance="10"
     gridtolerance="10"
     guidetolerance="10"
     inkscape:pageopacity="0"
     inkscape:pageshadow="2"
     inkscape:window-width="640"
     inkscape:window-height="480"
     id="namedview14"
     showgrid="false"
     inkscape:zoom="6.5555556"
     inkscape:cx="17.999"
     inkscape:cy="17.787"
     inkscape:window-x="0"
     inkscape:window-y="0"
     inkscape:window-maximized="0"
     inkscape:current-layer="svg2" />
  <path
     d="m 7.439,6.5026097 c -1,-4 3.687,-6.00000001 8,-4 0.907,0.421 0.948,1.316 0,1 -3,-1 -6,1 -4,4 1.109,1.664 -3.233,2.068 -4,-1 z"
     id="path4"
     inkscape:connector-curvature="0"
     style="fill:#ffac33" />
  <path
     d="m 6.135,4.7846097 c -1,-4.00000001 3.687,-6 8,-4.00000001 0.907,0.42100001 0.949,1.31600001 0,1.00000001 -3,-1.00000001 -6,1 -4,4 1.11,1.664 -3.233,2.067 -4,-1 z"
     id="path6"
     inkscape:connector-curvature="0"
     style="fill:#ffcc4d" />
  <path
     d="m 4.999,13.78461 c 0,4 -2,4.827 -2,4 0,-2 -1,0 -1,-1 l 0,-3 c 0,-1.657 0.671,-3 1.5,-3 0.829,0 1.5,1.343 1.5,3 z"
     id="path8"
     inkscape:connector-curvature="0"
     style="fill:#e1e8ed" />
  <path
     d="m 35.158,9.4896097 c -0.68,-1.643 -2.313,-2.705 -4.159,-2.705 -0.553,0 -1,0.448 -1,1 0,0.552 0.447,1 1,1 1.034,0 1.941,0.577 2.312,1.4710003 0.341,0.824 0.168,1.758 -0.455,2.647 -0.984,-1.506 -2.602,-2.618 -4.856,-2.618 -2.391,0 -7.279,0.714 -10.828,1.289 -0.052,-0.094 -0.105,-0.188 -0.172,-0.289 -2,-3.0000003 -4,-8.1570003 -7,-8.1570003 -4,0 -10,4.986 -10,9.1570003 0,2.544 5.738,2.929 7.486,2.988 0.697,1.43 1.414,2.934 2.232,4.33 0.066,0.205 0.155,0.429 0.282,0.683 3,6 3.119,14.5 4.5,14.5 1.381,0 2.5,-4.857 2.5,-9 0,-0.151 -0.004,-0.299 -0.007,-0.447 3.126,0.649 6.607,0.322 9.677,-0.61 1.448,5.045 1.77,10.058 2.83,10.058 1.342,0 2.433,-8.818 2.494,-13.12 1.321,-1.441 2.005,-3.157 2.005,-4.882 0,-0.605 -0.086,-1.23 -0.248,-1.843 1.614,-1.644 2.143,-3.676 1.407,-5.4520003 z"
     id="path10"
     inkscape:connector-curvature="0"
     style="fill:#ccd6dd" />
  <circle
     cx="6.9990001"
     cy="8.2846098"
     r="1"
     id="circle12"
     style="fill:#292f33" />
</svg>
