<?xml version="1.0" encoding="UTF-8" standalone="no"?>
<svg
   xmlns:dc="http://purl.org/dc/elements/1.1/"
   xmlns:cc="http://creativecommons.org/ns#"
   xmlns:rdf="http://www.w3.org/1999/02/22-rdf-syntax-ns#"
   xmlns:svg="http://www.w3.org/2000/svg"
   xmlns="http://www.w3.org/2000/svg"
   xmlns:sodipodi="http://sodipodi.sourceforge.net/DTD/sodipodi-0.dtd"
   xmlns:inkscape="http://www.inkscape.org/namespaces/inkscape"
   viewBox="0 0 35.75 32.461987"
   id="svg2"
   version="1.1"
   inkscape:version="0.91 r13725"
   sodipodi:docname="1f411.svg"
   width="35.75"
   height="32.461987">
  <metadata
     id="metadata16">
    <rdf:RDF>
      <cc:Work
         rdf:about="">
        <dc:format>image/svg+xml</dc:format>
        <dc:type
           rdf:resource="http://purl.org/dc/dcmitype/StillImage" />
      </cc:Work>
    </rdf:RDF>
  </metadata>
  <defs
     id="defs14" />
  <sodipodi:namedview
     pagecolor="#ffffff"
     bordercolor="#666666"
     borderopacity="1"
     objecttolerance="10"
     gridtolerance="10"
     guidetolerance="10"
     inkscape:pageopacity="0"
     inkscape:pageshadow="2"
     inkscape:window-width="640"
     inkscape:window-height="480"
     id="namedview12"
     showgrid="false"
     inkscape:zoom="6.5555556"
     inkscape:cx="18"
     inkscape:cy="18"
     inkscape:window-x="0"
     inkscape:window-y="0"
     inkscape:window-maximized="0"
     inkscape:current-layer="svg2" />
  <path
     d="m 11.983,0.02398646 c 4.543,-0.262 7.824,1.59700004 8.089,6.82600004 0.215,4.1899995 -5.184,6.7899995 -8.046,6.8789995 -2.462,0.077 -1.353,-1.852 0.61,-2.334 1.576,-0.387 4.124,-2.4129995 3.602,-4.4399995 -0.597,-2.32 -4.315,-2.684 -6.351,0.292 -0.798,1.167 -3.554,0.873 -4.096,-0.434 -0.958,-2.309 1.211,-6.50200004 6.192,-6.78900004 z"
     id="path4"
     inkscape:connector-curvature="0"
     style="fill:#ffac33" />
  <path
     d="m 35.75,17.845986 c 0,-7.783 -4.495,-11.4069995 -14.519,-11.4069995 -1.087,0 -2.083,0.051 -3.018,0.137 -1.36,-2.423 -4.845,-2.828 -8.213,-2.828 -4.304,0 -10,6.145 -10,10.8389995 0,4.608 3.606,4.866 7.811,4.874 0.233,3.245 1.226,5.647 3.249,7.26 0.277,1.15 1.534,5.741 3.94,5.741 1.353,0 2.099,-1.695 2.51,-3.417 1.128,0.136 2.359,0.209 3.722,0.209 1.733,0 3.288,-0.116 4.695,-0.335 0.09,1.657 0.531,3.543 2.073,3.543 2.317,0 4.273,-4.956 4.834,-6.521 1.969,-1.87 2.916,-4.545 2.916,-8.095 z"
     id="path6"
     inkscape:connector-curvature="0"
     style="fill:#e1e8ed" />
  <circle
     cx="4.5"
     cy="12.247987"
     r="1.5"
     id="circle8"
     style="fill:#292f33" />
  <path
     d="m 17.562,0.80098646 c 4.312,1.45500004 5.74,4.14800004 4.034,9.09900004 -1.367,3.9669995 -7.345,4.3609995 -10.034,3.3749995 -2.312,-0.849 -0.562,-2.224 1.438,-1.938 1.606,0.23 4.727,-0.698 5,-2.7729995 0.312,-2.375 -3,-4.102 -6,-2.102 -1.177,0.785 -5.774,0.43 -5.5,-0.958 0.638,-3.226 6.335,-6.29800004 11.062,-4.70300004 z"
     id="path10"
     inkscape:connector-curvature="0"
     style="fill:#ffcc4d" />
</svg>
