<?xml version="1.0" encoding="UTF-8" standalone="no"?>
<svg
   xmlns:dc="http://purl.org/dc/elements/1.1/"
   xmlns:cc="http://creativecommons.org/ns#"
   xmlns:rdf="http://www.w3.org/1999/02/22-rdf-syntax-ns#"
   xmlns:svg="http://www.w3.org/2000/svg"
   xmlns="http://www.w3.org/2000/svg"
   xmlns:sodipodi="http://sodipodi.sourceforge.net/DTD/sodipodi-0.dtd"
   xmlns:inkscape="http://www.inkscape.org/namespaces/inkscape"
   viewBox="0 0 30.158834 35.670345"
   id="svg2"
   version="1.1"
   inkscape:version="0.91 r13725"
   sodipodi:docname="1f41a.svg"
   width="30.158834"
   height="35.670345">
  <metadata
     id="metadata14">
    <rdf:RDF>
      <cc:Work
         rdf:about="">
        <dc:format>image/svg+xml</dc:format>
        <dc:type
           rdf:resource="http://purl.org/dc/dcmitype/StillImage" />
      </cc:Work>
    </rdf:RDF>
  </metadata>
  <defs
     id="defs12" />
  <sodipodi:namedview
     pagecolor="#ffffff"
     bordercolor="#666666"
     borderopacity="1"
     objecttolerance="10"
     gridtolerance="10"
     guidetolerance="10"
     inkscape:pageopacity="0"
     inkscape:pageshadow="2"
     inkscape:window-width="640"
     inkscape:window-height="480"
     id="namedview10"
     showgrid="false"
     inkscape:zoom="6.5555556"
     inkscape:cx="15.079269"
     inkscape:cy="17.835954"
     inkscape:window-x="0"
     inkscape:window-y="0"
     inkscape:window-maximized="0"
     inkscape:current-layer="svg2" />
  <path
     d="m 26.128269,6.8673911 c -0.07,-0.07 -0.141,-0.126 -0.211,-0.188 -1.08,-1.087 -2.497,-1.564 -4.008,-1.373 l -3.812,0.483 c -0.382,-3.003 -2.25,-4.446 -4.351,-4.181 l -4.24,0.536 c -0.352,-1.54300001 -1.416,-2.27600001 -2.6,-2.12500001 l -4.794,0.605 c -1.32299996,0.168 -2.25999996,1.64800001 -2.09299996,3.30700001 l 0.606,6.007 c 0.152,1.5009999 1.42499996,2.5909999 2.40299996,2.6929999 l 0.514,5.093 c 0.258,2.553 2.509,4.365 4.117,4.38 l 0.498,4.926 c 0.164,1.622 0.928,3.027 1.917,4.063 0.23,0.339 0.471,0.656 0.737,0.922 4.423,4.423 12.183,5.064 16.607,0.64 4.42,-4.422 3.133,-21.365 -1.29,-25.7879999 z"
     id="path4"
     inkscape:connector-curvature="0"
     style="fill:#ccd6dd" />
  <path
     d="m 27.688269,14.230391 c 0.801,2.371 1.545,11.57 -1.532,15.543 -3.079,3.972 -8.043,-1.389 -5.312,-6.205 2.73,-4.814 6.036,-11.733 6.844,-9.338 z"
     id="path6"
     inkscape:connector-curvature="0"
     style="fill:#66757f" />
  <path
     d="m 18.097269,5.7883911 c 0.009,0.072 0.028,0.133 0.036,0.206 0.318,3.154 -7.686,15.7989999 -10.204,16.1189999 -0.085,0.011 -0.181,-0.008 -0.271,-0.008 l 0.401,3.971 c 3.694,-1.936 12.412,-15.71 13.087,-20.6729999 l -3.049,0.385 z m -8.59,-3.645 c 0.042,0.182 0.079,0.369 0.1,0.574 0.197,1.942 -4.732,9.7249999 -6.28,9.9229999 -0.094,0.012 -0.196,0.001 -0.299,-0.009 l 0.353,3.502 c 2.78,-2.096 8.093,-10.4889999 9.094,-14.3649999 l -2.968,0.375 z"
     id="path8"
     inkscape:connector-curvature="0"
     style="fill:#99aab5" />
</svg>
