<?xml version="1.0" encoding="UTF-8" standalone="no"?>
<svg
   xmlns:dc="http://purl.org/dc/elements/1.1/"
   xmlns:cc="http://creativecommons.org/ns#"
   xmlns:rdf="http://www.w3.org/1999/02/22-rdf-syntax-ns#"
   xmlns:svg="http://www.w3.org/2000/svg"
   xmlns="http://www.w3.org/2000/svg"
   xmlns:sodipodi="http://sodipodi.sourceforge.net/DTD/sodipodi-0.dtd"
   xmlns:inkscape="http://www.inkscape.org/namespaces/inkscape"
   viewBox="0 0 35.740025 32.668854"
   id="svg2"
   version="1.1"
   inkscape:version="0.91 r13725"
   sodipodi:docname="1f415.svg"
   width="35.740025"
   height="32.668854">
  <metadata
     id="metadata32">
    <rdf:RDF>
      <cc:Work
         rdf:about="">
        <dc:format>image/svg+xml</dc:format>
        <dc:type
           rdf:resource="http://purl.org/dc/dcmitype/StillImage" />
      </cc:Work>
    </rdf:RDF>
  </metadata>
  <defs
     id="defs30" />
  <sodipodi:namedview
     pagecolor="#ffffff"
     bordercolor="#666666"
     borderopacity="1"
     objecttolerance="10"
     gridtolerance="10"
     guidetolerance="10"
     inkscape:pageopacity="0"
     inkscape:pageshadow="2"
     inkscape:window-width="640"
     inkscape:window-height="480"
     id="namedview28"
     showgrid="false"
     inkscape:zoom="6.5555556"
     inkscape:cx="17.768"
     inkscape:cy="17.663"
     inkscape:window-x="0"
     inkscape:window-y="0"
     inkscape:window-maximized="0"
     inkscape:current-layer="svg2" />
  <path
     d="m 30.802,11.379855 c 3.508,-0.65 3.587,-6.2970005 -0.051,-6.2540005 -2.847,0.034 -2.56,2.795 -2.945,2.252 -0.748,-1.055 -0.989,-3.769 1.862,-4.894 2.461,-0.971 5.846,0.996 6.063,4.591 0.139,2.302 -1.297,6.5540005 -6.453,5.8460005 -7.222,-0.991 -1.983,-0.892 1.524,-1.541 z"
     id="path4"
     inkscape:connector-curvature="0"
     style="fill:#d99e82" />
  <path
     d="m 10.089,18.940855 c 0,0 1.016,2.352 0.676,8.242 -0.061,1.057 -0.209,2.136 -0.242,3.022 -1.812,0 -1.652,2.064 -1.268,2.064 l 2.902,0 c 0.683,0 1.893,-3.438 2.212,-8.209 0.319,-4.772 -4.28,-5.119 -4.28,-5.119 z m 11.89,-0.331 c 0,0 0.575,3.528 3.651,6.413 0.257,1.163 0.769,4.232 0.949,5.195 -1.889,0 -1.282,2.047 -0.731,2.047 l 2.646,0 c 0.951,0 1.092,-3.442 0.206,-7.694 -0.885,-4.251 -6.721,-5.961 -6.721,-5.961 z"
     id="path6"
     inkscape:connector-curvature="0"
     style="fill:#c1694f" />
  <path
     d="M 31.97,12.659855 C 30.717,8.9078545 24.756,9.0318545 17.973,9.8948545 c -3.055,0.3890005 -3.64,-4.453 -3.64,-5.286 0,-3.62599995 -3.244,-5.45499995 -6.496,-4.22899995 -0.779,0.293 -1.402,1.32999995 -1.754,1.87199995 -1.977,3.037 -4.658,0.015 -4.917,2.822 -0.313,3.395 1.721,4.534 5.051,4.821 1.892,0.1630005 3.459,1.0950005 3.871,5.0440005 0.154,1.472 -0.295,5.644 2.388,7.076 0.78,2.959 1.836,6.615 2.25,8.475 -2.252,0.476 -1.341,2.179 -1.341,2.179 0,0 3.151,-0.043 3.836,-0.043 0.814,0 0.191,-5.976 -0.935,-9.787 4.764,0.043 7.828,-1.337 8.799,-1.762 1.028,2.96 4.152,3.633 4.851,4.892 0.433,0.78 1.878,3.383 2.001,4.496 -1.602,0.52 -1.091,1.732 -0.909,2.122 1.083,-0.043 3.22,-0.043 3.498,-0.043 1.11,0 -1.137,-6.904 -2.083,-8.713 -1.082,-2.071 0.781,-7.419 -0.473,-11.171 z"
     id="path8"
     inkscape:connector-curvature="0"
     style="fill:#d99e82" />
  <path
     d="m 16.034,21.469855 c 0.044,0.371 0.141,0.891 0.253,1.369 4.764,0.043 7.828,-1.337 8.799,-1.762 -0.215,-0.78 -0.23,-1.27 -0.171,-1.538 -3.394,0.557 -4.548,2.205 -8.881,1.931 z M 6.217,9.8948545 c 1.892,0.1630005 2.425,1.0690005 2.838,5.0180005 0.154,1.472 0.739,5.67 3.421,7.102 -0.72,-2.788 -1.959,-12.3880005 -6.259,-12.1200005 z"
     id="path10"
     inkscape:connector-curvature="0"
     style="fill:#f4c7b5" />
  <path
     d="m 2.921,3.6708545 c -2.793,0 -1.909,0.526 -2.002,1.692 -0.093,1.166 -0.074,2.976 0.776,3.929 1.127,1.2620005 3.858,1.2660005 5.215,0.277 1.357,-0.989 -0.424,-5.898 -3.989,-5.898 z"
     id="path12"
     inkscape:connector-curvature="0"
     style="fill:#f4c7b5" />
  <path
     d="m 2.271,5.3318545 c -0.109,0.762 -0.494,1.192 -0.879,1.133 -0.76,-0.117 -1.392,-1.087 -1.392,-1.856 0,-0.769 0.624,-0.963 1.392,-0.928 1.043,0.048 1.002,0.788 0.879,1.651 z"
     id="path14"
     inkscape:connector-curvature="0"
     style="fill:#272b2b" />
  <path
     d="m 14.935,6.0318545 c 0.348,2.515 -1.157,2.898 -2.383,2.898 -1.226,0 -3.054,-1.25 -2.748,-3.77 0.134,-1.107 0.555,-2.193 0.809,-3.175 0.336,-1.30299995 1.199,-1.73199995 1.894,-1.36699995 1.665,0.87399995 2.203,3.79699995 2.428,5.41399995 z"
     id="path16"
     inkscape:connector-curvature="0"
     style="fill:#662113" />
  <circle
     cx="7.8370004"
     cy="3.6808548"
     r="0.92799997"
     id="circle18"
     style="fill:#292f33" />
  <path
     d="m 18.803,9.7948545 c 0.073,1.5320005 0.906,3.1780005 2.733,3.6630005 1.901,0.505 4.12,0.127 4.67,-2.475 0.091,-0.43 0.13,-1.2240005 0.073,-1.5140005 -2.151,-0.179 -4.73,0 -7.476,0.326 z"
     id="path20"
     inkscape:connector-curvature="0"
     style="fill:#c1694f" />
  <circle
     cx="2.8209999"
     cy="7.5088549"
     r="0.48800001"
     id="circle22"
     style="fill:#d99e82" />
  <circle
     cx="3.4629998"
     cy="6.8098545"
     r="0.26899999"
     id="circle24"
     style="fill:#d99e82" />
  <circle
     cx="3.8679998"
     cy="7.5088549"
     r="0.26899999"
     id="circle26"
     style="fill:#d99e82" />
</svg>
