<?xml version="1.0" encoding="UTF-8" standalone="no"?>
<svg
   xmlns:dc="http://purl.org/dc/elements/1.1/"
   xmlns:cc="http://creativecommons.org/ns#"
   xmlns:rdf="http://www.w3.org/1999/02/22-rdf-syntax-ns#"
   xmlns:svg="http://www.w3.org/2000/svg"
   xmlns="http://www.w3.org/2000/svg"
   xmlns:sodipodi="http://sodipodi.sourceforge.net/DTD/sodipodi-0.dtd"
   xmlns:inkscape="http://www.inkscape.org/namespaces/inkscape"
   viewBox="0 0 33.984207 33.983086"
   id="svg2"
   version="1.1"
   inkscape:version="0.91 r13725"
   sodipodi:docname="1f41c.svg"
   width="33.984207"
   height="33.983086">
  <metadata
     id="metadata14">
    <rdf:RDF>
      <cc:Work
         rdf:about="">
        <dc:format>image/svg+xml</dc:format>
        <dc:type
           rdf:resource="http://purl.org/dc/dcmitype/StillImage" />
      </cc:Work>
    </rdf:RDF>
  </metadata>
  <defs
     id="defs12" />
  <sodipodi:namedview
     pagecolor="#ffffff"
     bordercolor="#666666"
     borderopacity="1"
     objecttolerance="10"
     gridtolerance="10"
     guidetolerance="10"
     inkscape:pageopacity="0"
     inkscape:pageshadow="2"
     inkscape:window-width="640"
     inkscape:window-height="480"
     id="namedview10"
     showgrid="false"
     inkscape:zoom="6.5555556"
     inkscape:cx="17.781799"
     inkscape:cy="16.202237"
     inkscape:window-x="0"
     inkscape:window-y="0"
     inkscape:window-maximized="0"
     inkscape:current-layer="svg2" />
  <path
     d="m 7.2817991,24.296849 c -0.256,0 -0.512,-0.098 -0.707,-0.293 -0.391,-0.391 -0.391,-1.024 0,-1.414 L 22.591799,6.5738493 c 0.391,-0.391 1.023,-0.391 1.414,0 0.391,0.391 0.391,1.024 0,1.414 L 7.9887991,24.003849 c -0.196,0.195 -0.452,0.293 -0.707,0.293 z m 8.2819999,-11.738 c -0.219,0 -0.438,-0.071 -0.623,-0.218 -0.431,-0.344 -0.502,-0.971 -0.161,-1.403 0.113,-0.144 2.571,-3.3609997 0.971,-7.5719997 -0.196,-0.517 0.063,-1.094 0.579,-1.29 0.518,-0.196 1.094,0.064 1.29,0.579 2.017,5.307 -1.139,9.3569997 -1.274,9.5269997 -0.197,0.248 -0.488,0.377 -0.782,0.377 z m 3.89,3.888 c -0.221,0 -0.441,-0.072 -0.626,-0.221 -0.429,-0.345 -0.499,-0.97 -0.156,-1.4 0.138,-0.172 3.435,-4.197 9.323,-2.726 0.536,0.134 0.862,0.677 0.727,1.213 -0.134,0.535 -0.679,0.861 -1.212,0.728 -4.623,-1.157 -7.172,1.905 -7.278,2.036 -0.197,0.243 -0.487,0.37 -0.778,0.37 z m -13.2179999,1.845 c -1.096,0 -2.301,-0.186 -3.58,-0.671 -0.517,-0.196 -0.776,-0.773 -0.58,-1.29 0.195,-0.517 0.775,-0.775 1.29,-0.58 4.219,1.604 7.4389999,-0.866 7.5739999,-0.972 0.434,-0.338 1.062,-0.266 1.403,0.166 0.342,0.432 0.271,1.058 -0.159,1.4 -0.129,0.103 -2.4949999,1.947 -5.9479999,1.947 z m 1.564,-8.066 c -1.829,0 -4.968,-0.4819997 -7.54199999,-3.3319997 -0.37,-0.41 -0.338,-1.042 0.072,-1.412 0.411,-0.371 1.04299999,-0.337 1.41199999,0.072 3.024,3.349 7.016,2.619 7.186,2.587 0.538,-0.105 1.066,0.246 1.1729999,0.787 0.107,0.54 -0.2409999,1.064 -0.7809999,1.1739997 -0.069,0.014 -0.644,0.124 -1.52,0.124 z"
     id="path4"
     inkscape:connector-curvature="0"
     style="fill:#31373d" />
  <path
     d="m 9.1227991,10.121849 c -0.066,0 -0.132,-0.006 -0.199,-0.02 -0.541,-0.1089997 -0.89,-0.6349997 -0.783,-1.1749997 0.034,-0.173 0.76,-4.163 -2.587,-7.185 -0.41,-0.37 -0.442,-1.00199999 -0.072,-1.41199999 0.369,-0.409 1.002,-0.443 1.413,-0.072 4.2139999,3.80599999 3.2509999,8.84899999 3.2069999,9.06199999 -0.096,0.475 -0.5129999,0.8019997 -0.9789999,0.8019997 z m 3.9479999,18.63 c -0.448,0 -0.856,-0.303 -0.969,-0.758 -1.473,-5.895 2.554,-9.186 2.726,-9.323 0.431,-0.344 1.061,-0.273 1.405,0.159 0.343,0.431 0.273,1.058 -0.156,1.402 -0.14,0.114 -3.187,2.667 -2.035,7.277 0.134,0.535 -0.192,1.078 -0.728,1.212 -0.081,0.021 -0.163,0.031 -0.243,0.031 z"
     id="path6"
     inkscape:connector-curvature="0"
     style="fill:#31373d" />
  <path
     d="m 29.625799,18.947849 c -2.96,-2.959 -6.095,-3.569 -8.915,-2.069 -0.157,-1.874 -1.166,-4.007 -2.521,-5.363 -1.488,-1.488 -3.008,-1.6529997 -4.405,-1.044 1.058,-2.4649997 0.6,-5.4299997 -0.826,-6.8559997 -1.843,-1.843 -4.5939999,-0.411 -7.1739999,2.168 -2.58,2.58 -4.012,5.3309997 -2.168,7.1739997 1.425,1.426 4.391,1.883 6.8559999,0.826 -0.6099999,1.397 -0.444,2.918 1.044,4.405 1.354,1.354 3.489,2.363 5.363,2.521 -1.5,2.82 -0.891,5.954 2.069,8.915 3.75,3.749 12.204,5.527 14.204,3.527 2,-2 0.223,-10.455 -3.527,-14.204 z"
     id="path8"
     inkscape:connector-curvature="0"
     style="fill:#31373d" />
</svg>
