<?xml version="1.0" encoding="UTF-8" standalone="no"?>
<svg
   xmlns:dc="http://purl.org/dc/elements/1.1/"
   xmlns:cc="http://creativecommons.org/ns#"
   xmlns:rdf="http://www.w3.org/1999/02/22-rdf-syntax-ns#"
   xmlns:svg="http://www.w3.org/2000/svg"
   xmlns="http://www.w3.org/2000/svg"
   xmlns:sodipodi="http://sodipodi.sourceforge.net/DTD/sodipodi-0.dtd"
   xmlns:inkscape="http://www.inkscape.org/namespaces/inkscape"
   viewBox="0 0 36 35"
   id="svg2"
   version="1.1"
   inkscape:version="0.91 r13725"
   sodipodi:docname="1f412.svg"
   width="36"
   height="35">
  <metadata
     id="metadata16">
    <rdf:RDF>
      <cc:Work
         rdf:about="">
        <dc:format>image/svg+xml</dc:format>
        <dc:type
           rdf:resource="http://purl.org/dc/dcmitype/StillImage" />
      </cc:Work>
    </rdf:RDF>
  </metadata>
  <defs
     id="defs14" />
  <sodipodi:namedview
     pagecolor="#ffffff"
     bordercolor="#666666"
     borderopacity="1"
     objecttolerance="10"
     gridtolerance="10"
     guidetolerance="10"
     inkscape:pageopacity="0"
     inkscape:pageshadow="2"
     inkscape:window-width="640"
     inkscape:window-height="480"
     id="namedview12"
     showgrid="false"
     inkscape:zoom="6.5555556"
     inkscape:cx="18"
     inkscape:cy="18"
     inkscape:window-x="0"
     inkscape:window-y="0"
     inkscape:window-maximized="0"
     inkscape:current-layer="svg2" />
  <path
     d="m 29,0 c -4.139,0 -6,3.509 -6,6 0,2.57 2.43,5 5,5 1.92,0 3.468,-1.28 3.766,-3.113 C 31.998,6.461 31.329,4.722 29.317,4.051 28.789,3.875 28.227,4.16 28.052,4.683 27.877,5.207 28.16,5.773 28.684,5.948 29.858,6.339 29.85,7.21 29.791,7.566 29.68,8.257 29.071,9 28,9 26.542,9 25,7.458 25,6 c 0,-1.305 0.978,-4 4,-4 2.897,0 5,2.523 5,6 l 0,15 c 0,3.576 -1.352,5.685 -4.285,6.544 0.11,-1.017 0.193,-2.223 0.24,-3.655 C 30.559,22.726 30.058,18.758 28.179,15 26.315,11.273 22.253,9.061 18.156,9.305 17.924,4.188 15.121,0 9.407,0 3.436,0 3.178,7 0.178,11.399 c -1.352,1.982 5.428,7.058 9.228,7.058 l 0.043,-0.002 c 0.352,0.029 0.801,-0.009 1.362,-0.13 0.57,-0.102 1.149,-0.268 1.719,-0.489 2.731,-0.835 4.376,-0.891 5.318,-0.443 C 17.137,20.761 14.027,23.621 12,27 c -3,5 1,8 3,8 3,0 3,-3 2,-3 -2,0 -2.632,-3.103 -2,-5 0.658,-1.974 2.609,-3.521 3.871,-6.053 C 18.608,22.627 18,24.543 18,26 c 0,4.568 1.17,6 6,6 0.188,0 0.36,-0.034 0.541,-0.052 C 24.365,31.979 24.187,32 24,32 c -4.694,0 -5.5,0.896 -5.5,2 0,0.809 0.5,1 1.5,1 l 7,0 c 0.651,0 1.728,-0.003 2.398,-3.321 C 33.782,30.756 36,27.848 36,23 L 36,8 C 36,3.439 32.99,0 29,0 Z"
     id="path4"
     inkscape:connector-curvature="0"
     style="fill:#bf6952" />
  <path
     d="M 11.178,6.799 C 11.178,4.701 9.476,3 7.378,3 5.278,3 3.577,4.701 3.577,6.799 3.577,7.074 3.61,7.341 3.665,7.6 2.632,7.978 1.669,8.745 1.01,10 c -0.255,0.486 -0.53,0.956 -0.832,1.399 -0.711,1.044 0.83,2.944 3.004,4.51 1.956,1.409 5.996,0.52 5.996,-4.909 0,-0.29 -0.039,-0.561 -0.097,-0.821 1.239,-0.626 2.097,-1.896 2.097,-3.38 z M 13.822,5.5 C 13.822,7.433 13.567,9 15.5,9 17.434,9 19,7.433 19,5.5 19,3.567 17.434,2 15.5,2 13.567,2 13.822,3.567 13.822,5.5 Z"
     id="path6"
     inkscape:connector-curvature="0"
     style="fill:#d79e84" />
  <path
     d="M 7.435,7.371 C 7.435,8.271 6.95,9 6.35,9 5.75,9 5.264,8.271 5.264,7.371 c 0,-0.899 0.485,-1.628 1.086,-1.628 0.6,0 1.085,0.729 1.085,1.628 z"
     id="path8"
     inkscape:connector-curvature="0"
     style="fill:#292f33" />
  <path
     d="M 4,11 C 4,11.552 1.83,13 0.915,13 0,13 0,12.552 0,12 l 0.915,0 C 2.001,12 4,10.448 4,11 Z"
     id="path10"
     inkscape:connector-curvature="0"
     style="fill:#642116" />
</svg>
