<?xml version="1.0" encoding="UTF-8" standalone="no"?>
<svg
   xmlns:dc="http://purl.org/dc/elements/1.1/"
   xmlns:cc="http://creativecommons.org/ns#"
   xmlns:rdf="http://www.w3.org/1999/02/22-rdf-syntax-ns#"
   xmlns:svg="http://www.w3.org/2000/svg"
   xmlns="http://www.w3.org/2000/svg"
   xmlns:sodipodi="http://sodipodi.sourceforge.net/DTD/sodipodi-0.dtd"
   xmlns:inkscape="http://www.inkscape.org/namespaces/inkscape"
   viewBox="0 0 36 21"
   id="svg2"
   version="1.1"
   inkscape:version="0.91 r13725"
   sodipodi:docname="1f422.svg"
   width="36"
   height="21">
  <metadata
     id="metadata18">
    <rdf:RDF>
      <cc:Work
         rdf:about="">
        <dc:format>image/svg+xml</dc:format>
        <dc:type
           rdf:resource="http://purl.org/dc/dcmitype/StillImage" />
      </cc:Work>
    </rdf:RDF>
  </metadata>
  <defs
     id="defs16" />
  <sodipodi:namedview
     pagecolor="#ffffff"
     bordercolor="#666666"
     borderopacity="1"
     objecttolerance="10"
     gridtolerance="10"
     guidetolerance="10"
     inkscape:pageopacity="0"
     inkscape:pageshadow="2"
     inkscape:window-width="640"
     inkscape:window-height="480"
     id="namedview14"
     showgrid="false"
     inkscape:zoom="6.5555556"
     inkscape:cx="18"
     inkscape:cy="18"
     inkscape:window-x="0"
     inkscape:window-y="0"
     inkscape:window-maximized="0"
     inkscape:current-layer="svg2" />
  <path
     d="M 9.842,4.922 C 9.842,14.764 16.417,14.595 15,15 8,17 6.197,7.382 5.536,7.382 3.158,7.382 0,6.959 0,4.922 0,2.883 2.46,0 6.151,0 8.53,0 9.842,2.883 9.842,4.922 Z M 36,13.638 c 0,1.104 -3.518,-0.741 -5,0 -2,1 -2,-0.896 -2,-2 0,-1.104 1.343,-1 3,-1 1.657,0 4,1.895 4,3 z"
     id="path4"
     inkscape:connector-curvature="0"
     style="fill:#77b255" />
  <path
     d="M 16.715,18.143 C 16.715,20.904 15.436,21 13.858,21 12.28,21 11,20.903 11,18.143 c 0,-0.489 0.085,-1.029 0.234,-1.587 0.69,-2.59 2.754,-5.556 4.052,-5.556 1.578,0 1.429,4.382 1.429,7.143 z m 8.571,0 C 25.286,20.904 26.564,21 28.142,21 29.721,21 31,20.903 31,18.143 31,17.654 30.915,17.114 30.766,16.556 30.075,13.966 28.012,11 26.714,11 c -1.578,0 -1.428,4.382 -1.428,7.143 z"
     id="path6"
     inkscape:connector-curvature="0"
     style="fill:#77b255" />
  <path
     d="m 32,12 c 0,4 -5.149,4 -11.5,4 C 14.149,16 9,16 9,12 9,5.373 14.149,0 20.5,0 26.851,0 32,5.373 32,12 Z"
     id="path8"
     inkscape:connector-curvature="0"
     style="fill:#3e721d" />
  <circle
     cx="5"
     cy="3"
     r="1"
     id="circle10"
     style="fill:#292f33" />
  <path
     d="m 23.667,10.1 c 0,3.591 -1.418,3.9 -3.167,3.9 -1.749,0 -3.167,-0.31 -3.167,-3.9 0,-3.59 1.417,-8.1 3.167,-8.1 1.75,0 3.167,4.51 3.167,8.1 z M 30,9 c 0.871,3.482 -0.784,4 -2.533,4 -1.749,0 -2.533,0.69 -2.533,-2.9 0,-3.59 -1.116,-6.5 0.633,-6.5 C 27.315,3.6 29,5 30,9 Z m -13.933,1.1 c 0,3.591 -0.785,2.9 -2.534,2.9 -1.749,0 -3.404,-0.518 -2.533,-4 1,-4 3.251,-5.4 5,-5.4 1.75,0 0.067,2.91 0.067,6.5 z"
     id="path12"
     inkscape:connector-curvature="0"
     style="fill:#5c913b" />
</svg>
