<?xml version="1.0" encoding="UTF-8" standalone="no"?>
<svg
   xmlns:dc="http://purl.org/dc/elements/1.1/"
   xmlns:cc="http://creativecommons.org/ns#"
   xmlns:rdf="http://www.w3.org/1999/02/22-rdf-syntax-ns#"
   xmlns:svg="http://www.w3.org/2000/svg"
   xmlns="http://www.w3.org/2000/svg"
   xmlns:sodipodi="http://sodipodi.sourceforge.net/DTD/sodipodi-0.dtd"
   xmlns:inkscape="http://www.inkscape.org/namespaces/inkscape"
   viewBox="0 0 35.736443 25"
   id="svg2"
   version="1.1"
   inkscape:version="0.91 r13725"
   sodipodi:docname="1f421.svg"
   width="35.736443"
   height="25">
  <metadata
     id="metadata36">
    <rdf:RDF>
      <cc:Work
         rdf:about="">
        <dc:format>image/svg+xml</dc:format>
        <dc:type
           rdf:resource="http://purl.org/dc/dcmitype/StillImage" />
      </cc:Work>
    </rdf:RDF>
  </metadata>
  <defs
     id="defs34" />
  <sodipodi:namedview
     pagecolor="#ffffff"
     bordercolor="#666666"
     borderopacity="1"
     objecttolerance="10"
     gridtolerance="10"
     guidetolerance="10"
     inkscape:pageopacity="0"
     inkscape:pageshadow="2"
     inkscape:window-width="640"
     inkscape:window-height="480"
     id="namedview32"
     showgrid="false"
     inkscape:zoom="6.5555556"
     inkscape:cx="18"
     inkscape:cy="13"
     inkscape:window-x="0"
     inkscape:window-y="0"
     inkscape:window-maximized="0"
     inkscape:current-layer="svg2" />
  <path
     d="m 33,11 c 0.461,0.184 0.902,3 -1,3 C 26,14 21,25 12,25 3,25 1,12.5 1,10 1,7.5 5.82,0 13,0 20.18,0 28,9 33,11 Z"
     id="path4"
     inkscape:connector-curvature="0"
     style="fill:#d99e82" />
  <path
     d="M 3,13 C 3,13.553 2.329,14 1.5,14 0.671,14 0,13.553 0,13 0,12.447 0,11 1.5,12 2.189,12.46 3,12.447 3,13 Z"
     id="path6"
     inkscape:connector-curvature="0"
     style="fill:#d99e82" />
  <path
     d="m 33,11 c 0.461,0.184 0.876,0.688 -1,1 C 26,13 21.955,11.104 13,12 3,13 1,13 1,10 1,7.5 5.82,0 13,0 20.18,0 28,9 33,11 Z"
     id="path8"
     inkscape:connector-curvature="0"
     style="fill:#c1694f" />
  <path
     d="m 30,11.5 c 0,2.485 3.343,4.5 5,4.5 1.657,0 0,-2.015 0,-4.5 C 35,9.015 36.657,7 35,7 33.343,7 30,9.015 30,11.5 Z"
     id="path10"
     inkscape:connector-curvature="0"
     style="fill:#d99e82" />
  <circle
     cx="7"
     cy="7"
     r="1"
     id="circle12"
     style="fill:#292f33" />
  <path
     d="m 19.16,19 c 0,0 2.84,4 4.84,4 2,0 0,-5 0,-5 l -2.84,0 c -3,0 -2,1 -2,1 z"
     id="path14"
     inkscape:connector-curvature="0"
     style="fill:#d99e82" />
  <path
     d="m 21.351,2.923 c 0,0 2.86,-2.817 4.649,-1.923 4.074,2.036 -2,4 -2,4 L 22.407,4.894 C 19.414,4.693 21.351,2.923 21.351,2.923 Z"
     id="path16"
     inkscape:connector-curvature="0"
     style="fill:#c1694f" />
  <circle
     cx="16"
     cy="19"
     r="2"
     id="circle18"
     style="fill:#c1694f" />
  <circle
     cx="20"
     cy="15"
     r="1"
     id="circle20"
     style="fill:#c1694f" />
  <circle
     cx="24.5"
     cy="14.5"
     r="1.5"
     id="circle22"
     style="fill:#c1694f" />
  <circle
     cx="16.5"
     cy="8.5"
     r="1.5"
     id="circle24"
     style="fill:#662113" />
  <circle
     cx="23.5"
     cy="9.5"
     r="1.5"
     id="circle26"
     style="fill:#662113" />
  <circle
     cx="20"
     cy="5"
     r="1"
     id="circle28"
     style="fill:#662113" />
  <path
     d="M 3,11 C 3,11.552 4,13 1.5,12 0.73,11.692 0,11.552 0,11 0,10.448 0.671,10 1.5,10 2.329,10 3,10.448 3,11 Z"
     id="path30"
     inkscape:connector-curvature="0"
     style="fill:#c1694f" />
</svg>
