<?xml version="1.0" encoding="UTF-8" standalone="no"?>
<svg
   xmlns:dc="http://purl.org/dc/elements/1.1/"
   xmlns:cc="http://creativecommons.org/ns#"
   xmlns:rdf="http://www.w3.org/1999/02/22-rdf-syntax-ns#"
   xmlns:svg="http://www.w3.org/2000/svg"
   xmlns="http://www.w3.org/2000/svg"
   xmlns:sodipodi="http://sodipodi.sourceforge.net/DTD/sodipodi-0.dtd"
   xmlns:inkscape="http://www.inkscape.org/namespaces/inkscape"
   viewBox="0 0 34.619251 32.972076"
   id="svg2"
   version="1.1"
   inkscape:version="0.91 r13725"
   sodipodi:docname="1f42b.svg"
   width="34.619251"
   height="32.972076">
  <metadata
     id="metadata12">
    <rdf:RDF>
      <cc:Work
         rdf:about="">
        <dc:format>image/svg+xml</dc:format>
        <dc:type
           rdf:resource="http://purl.org/dc/dcmitype/StillImage" />
      </cc:Work>
    </rdf:RDF>
  </metadata>
  <defs
     id="defs10" />
  <sodipodi:namedview
     pagecolor="#ffffff"
     bordercolor="#666666"
     borderopacity="1"
     objecttolerance="10"
     gridtolerance="10"
     guidetolerance="10"
     inkscape:pageopacity="0"
     inkscape:pageshadow="2"
     inkscape:window-width="640"
     inkscape:window-height="480"
     id="namedview8"
     showgrid="false"
     inkscape:zoom="6.5555556"
     inkscape:cx="16.810092"
     inkscape:cy="17.972076"
     inkscape:window-x="0"
     inkscape:window-y="0"
     inkscape:window-maximized="0"
     inkscape:current-layer="svg2" />
  <path
     d="m 34.589092,18.787 c -0.04,-0.159 -0.943,-3.684 -3.443,-7.198 -0.104,-0.262 -0.224,-0.527 -0.362,-0.797 -1.907,-3.714 -2.443,-10.792 -5.372,-10.792 -2.929,0 -1.859,4.279 -4.722,4.279 -2.863,0 -2.076,-4.279 -5.235,-4.279 -3.16,0 -3.452,7.065 -5.295,10.184 -0.029,0.049 -0.054,0.102 -0.082,0.151 C 9.8180916,9.818 9.8030916,9.309 9.8180916,8.8 c 0.015,-0.516 -0.316,-2.081 -1.256,-3.361 0.685,-0.129 1.184,-0.563 1.156,-1.05 -0.032,-0.551 -0.729,-0.96 -1.556,-0.911 -0.535,0.031 -0.99,0.246 -1.238,0.542 -0.293,-0.146 -0.61,-0.263 -0.957,-0.335 -0.554,-0.116 -0.539,0.911 -3.029,0.911 -2.49000004,0 -4.133,3.998 -1.849,3.998 2.284,0 4.388,-0.113 4.701,1.088 0.29,1.119 -0.587,3.537 -0.147,4.997 0.379,1.261 1.088,2.283 1.927,3.11 1.934,2.086 3.7460004,10.069 3.6870004,12.062 -0.059,1.999 1.94,2.058 1.999,0.059 0.036,-1.212 -0.102,-4.05 0.144,-6.44 0.658,3.122 0.934,6.755 0.898,7.973 -0.059,1.999 1.94,2.058 1.999,0.059 0.048,-1.621 -0.19,-7.14 0.585,-9.989 0.509,0.024 1.04,0.037 1.593,0.042 1.564,0.079 3.262,-0.17 4.855,-0.564 1.273,2.243 2.649,4.45 2.633,4.985 -0.029,1 -1.117,3.969 -1.146,4.969 -0.029,0.999 0.94,2.028 1.999,0.059 0.554,-1.029 1.125,-3.066 1.414,-5.067 0.634,1.113 1.092,1.984 1.083,2.294 -0.029,1 -1.064,2.124 -1.093,3.124 -0.029,0.999 0.94,2.028 1.999,0.059 1.059,-1.97 2.092,-3.094 1.151,-5.122 -0.719,-1.551 -0.817,-6.551 -0.354,-9.706 0.126,-0.235 0.229,-0.482 0.319,-0.735 0.928,1.929 1.309,3.401 1.314,3.425 0.114,0.454 0.521,0.757 0.969,0.757 0.081,0 0.163,-0.01 0.244,-0.03 0.536,-0.139 0.861,-0.681 0.727,-1.216 z"
     id="path4"
     inkscape:connector-curvature="0"
     style="fill:#c1694f" />
  <path
     d="m 6.9070916,5.713 c -0.016,0.552 -0.477,0.987 -1.029,0.97 -0.552,-0.016 -0.986,-0.477 -0.97,-1.029 0.016,-0.552 0.477,-0.986 1.029,-0.97 0.552,0.017 0.987,0.477 0.97,1.029 z"
     id="path6"
     inkscape:connector-curvature="0"
     style="fill:#292f33" />
</svg>
