<?xml version="1.0" encoding="UTF-8" standalone="no"?>
<svg
   xmlns:dc="http://purl.org/dc/elements/1.1/"
   xmlns:cc="http://creativecommons.org/ns#"
   xmlns:rdf="http://www.w3.org/1999/02/22-rdf-syntax-ns#"
   xmlns:svg="http://www.w3.org/2000/svg"
   xmlns="http://www.w3.org/2000/svg"
   xmlns:sodipodi="http://sodipodi.sourceforge.net/DTD/sodipodi-0.dtd"
   xmlns:inkscape="http://www.inkscape.org/namespaces/inkscape"
   viewBox="0 0 34 36"
   id="svg2"
   version="1.1"
   inkscape:version="0.91 r13725"
   sodipodi:docname="1f42f.svg"
   width="34"
   height="36">
  <metadata
     id="metadata28">
    <rdf:RDF>
      <cc:Work
         rdf:about="">
        <dc:format>image/svg+xml</dc:format>
        <dc:type
           rdf:resource="http://purl.org/dc/dcmitype/StillImage" />
      </cc:Work>
    </rdf:RDF>
  </metadata>
  <defs
     id="defs26" />
  <sodipodi:namedview
     pagecolor="#ffffff"
     bordercolor="#666666"
     borderopacity="1"
     objecttolerance="10"
     gridtolerance="10"
     guidetolerance="10"
     inkscape:pageopacity="0"
     inkscape:pageshadow="2"
     inkscape:window-width="640"
     inkscape:window-height="480"
     id="namedview24"
     showgrid="false"
     inkscape:zoom="6.5555556"
     inkscape:cx="17"
     inkscape:cy="18"
     inkscape:window-x="0"
     inkscape:window-y="0"
     inkscape:window-maximized="0"
     inkscape:current-layer="svg2" />
  <circle
     cx="6"
     cy="6"
     r="6"
     id="circle4"
     style="fill:#ffcc4d" />
  <circle
     cx="17"
     cy="30"
     r="6"
     id="circle6"
     style="fill:#ffcc4d" />
  <circle
     cx="17"
     cy="30"
     r="4"
     id="circle8"
     style="fill:#dd2e44" />
  <circle
     cx="28"
     cy="6"
     r="6"
     id="circle10"
     style="fill:#ffcc4d" />
  <circle
     cx="6"
     cy="6"
     r="4"
     id="circle12"
     style="fill:#e6aaaa" />
  <circle
     cx="28"
     cy="6"
     r="4"
     id="circle14"
     style="fill:#e6aaaa" />
  <path
     d="m 33,22 c 0,7 -4.923,7 -4.923,7 L 5.923,29 C 5.923,29 1,29 1,22 1,22 2.231,0 17,0 31.77,0 33,22 33,22 Z"
     id="path16"
     inkscape:connector-curvature="0"
     style="fill:#ffcc4d" />
  <path
     d="m 10,17 c 0,0 0,-2 2,-2 2,0 2,2 2,2 l 0,2 c 0,0 0,2 -2,2 -2,0 -2,-2 -2,-2 l 0,-2 z m 10,0 c 0,0 0,-2 2,-2 2,0 2,2 2,2 l 0,2 c 0,0 0,2 -2,2 -2,0 -2,-2 -2,-2 l 0,-2 z"
     id="path18"
     inkscape:connector-curvature="0"
     style="fill:#272b2b" />
  <path
     d="M 22.678,23 C 20.276,23 18.177,23.953 17,25.378 15.823,23.953 13.723,23 11.321,23 1,23 1.043,23.421 1,26.182 0.913,31.792 7.63,33.082 11.321,33 13.722,32.947 15.823,32.011 17,30.603 18.177,32.011 20.276,32.948 22.678,33 26.369,33.082 33.087,31.792 32.999,26.182 32.956,23.421 32.999,23 22.678,23 Z"
     id="path20"
     inkscape:connector-curvature="0"
     style="fill:#ffffff" />
  <path
     d="m 32.66,25.242 c 0.204,0.279 0.333,0.588 0.339,0.939 0.03,1.905 -0.745,3.303 -1.915,4.327 L 25.999,31 32.66,25.242 Z M 14,25 c -1,1 2,4 3,4 1,0 4,-3 3,-4 -1,-1 -5,-1 -6,0 z M 9,3 c 2.667,2 8,4 8,4 0,0 5.333,-2 8,-4 L 17,4 9,3 Z M 17,2 C 17,2 18.652,1.38 20.576,0.486 19.48,0.178 18.295,0 17,0 15.705,0 14.519,0.178 13.424,0.486 15.348,1.38 17,2 17,2 Z m -7,7 c 3,2 7,4 7,4 0,0 4,-2 7,-4 L 17,10 10,9 Z M 30.645,11.285 26,15 32.006,15.75 C 31.672,14.349 31.229,12.822 30.645,11.285 Z M 32.556,18.444 27,24 32.835,24 C 32.937,23.405 33,22.749 33,22 c 0,0 -0.081,-1.43 -0.444,-3.556 z m -31.112,0 C 1.082,20.57 1,22 1,22 c 0,0.748 0.063,1.405 0.165,2 L 7,24 1.444,18.444 Z M 1.339,25.242 C 1.135,25.521 1.006,25.83 1,26.182 0.97,28.087 1.745,29.485 2.916,30.509 L 8,31 1.339,25.242 Z M 8,15 3.356,11.285 C 2.772,12.822 2.328,14.349 1.995,15.751 L 8,15 Z"
     id="path22"
     inkscape:connector-curvature="0"
     style="fill:#272b2b" />
</svg>
