<?xml version="1.0" encoding="UTF-8" standalone="no"?>
<svg
   xmlns:dc="http://purl.org/dc/elements/1.1/"
   xmlns:cc="http://creativecommons.org/ns#"
   xmlns:rdf="http://www.w3.org/1999/02/22-rdf-syntax-ns#"
   xmlns:svg="http://www.w3.org/2000/svg"
   xmlns="http://www.w3.org/2000/svg"
   xmlns:sodipodi="http://sodipodi.sourceforge.net/DTD/sodipodi-0.dtd"
   xmlns:inkscape="http://www.inkscape.org/namespaces/inkscape"
   viewBox="0 0 33.898067 35.999561"
   id="svg2"
   version="1.1"
   inkscape:version="0.91 r13725"
   sodipodi:docname="1f435.svg"
   width="33.898067"
   height="35.999561">
  <metadata
     id="metadata28">
    <rdf:RDF>
      <cc:Work
         rdf:about="">
        <dc:format>image/svg+xml</dc:format>
        <dc:type
           rdf:resource="http://purl.org/dc/dcmitype/StillImage" />
      </cc:Work>
    </rdf:RDF>
  </metadata>
  <defs
     id="defs26" />
  <sodipodi:namedview
     pagecolor="#ffffff"
     bordercolor="#666666"
     borderopacity="1"
     objecttolerance="10"
     gridtolerance="10"
     guidetolerance="10"
     inkscape:pageopacity="0"
     inkscape:pageshadow="2"
     inkscape:window-width="640"
     inkscape:window-height="480"
     id="namedview24"
     showgrid="false"
     inkscape:zoom="6.5555556"
     inkscape:cx="16.899164"
     inkscape:cy="18"
     inkscape:window-x="0"
     inkscape:window-y="0"
     inkscape:window-maximized="0"
     inkscape:current-layer="svg2" />
  <ellipse
     transform="matrix(0.96593034,-0.25880219,0.25880219,0.96593034,0,0)"
     cx="-0.70291972"
     cy="17.881907"
     rx="3.8180001"
     ry="5.4549999"
     id="ellipse4"
     style="fill:#d79e84" />
  <ellipse
     transform="matrix(0.25880219,-0.96593034,0.96593034,0.25880219,0,0)"
     cx="-9.1089811"
     cy="33.446083"
     rx="5.4549999"
     ry="3.8180001"
     id="ellipse6"
     style="fill:#d79e84" />
  <path
     d="m 17.917164,35.99956 -2.036,0 c -6.7180001,0 -13.2320001,-5.152 -13.2320001,-12.364 0,-4.121 1.527,-6.182 1.527,-6.182 0,0 -0.509,-2.061 -0.509,-4.121 0,-6.181 6.5140001,-11.333 13.2320001,-11.333 6.718,0 13.232,6.182 13.232,11.333 0,2.061 -0.509,4.121 -0.509,4.121 0,0 1.527,2.061 1.527,6.182 0,7.212 -6.514,12.364 -13.232,12.364 z"
     id="path8"
     inkscape:connector-curvature="0"
     style="fill:#bf6952" />
  <path
     d="m 28.899164,16.04156 c 0,-3.889 -3.175,-7.042 -7.091,-7.042 -1.907,0 -3.635,0.752 -4.909,1.968 -1.274,-1.216 -3.002,-1.968 -4.909,-1.968 -3.9160001,0 -7.0910001,3.153 -7.0910001,7.042 0,2.359 1.172,4.441 2.965,5.719 -0.503,1.238 -0.783,2.6 -0.783,4.031 0,5.684 4.3960001,9.208 9.8180001,9.208 5.422,0 9.818,-3.524 9.818,-9.208 0,-1.431 -0.28,-2.793 -0.783,-4.031 1.793,-1.278 2.965,-3.361 2.965,-5.719 z"
     id="path10"
     inkscape:connector-curvature="0"
     style="fill:#d79e84" />
  <ellipse
     cx="11.899164"
     cy="16.999559"
     rx="2.25"
     ry="3.25"
     id="ellipse12"
     style="fill:#292f33" />
  <ellipse
     cx="21.899164"
     cy="16.999559"
     rx="2.25"
     ry="3.25"
     id="ellipse14"
     style="fill:#292f33" />
  <path
     d="m 16.899164,32.72656 c 2.838,0 5.254,-1.505 6.162,-3.61 0.375,-0.871 -0.262,-1.844 -1.21,-1.844 l -9.904,0 c -0.948,0 -1.585,0.974 -1.21,1.844 0.908,2.105 3.324,3.61 6.162,3.61 z"
     id="path16"
     inkscape:connector-curvature="0"
     style="fill:#642116" />
  <circle
     cx="15.149164"
     cy="22.999559"
     r="1"
     id="circle18"
     style="fill:#642116" />
  <circle
     cx="18.649164"
     cy="22.999559"
     r="1"
     id="circle20"
     style="fill:#642116" />
  <path
     d="m 21.559164,0.17456 c 0,0 -5.455,-1.091 -7.636,2.182 -2.181,3.273 4.364,1.091 4.364,1.091 0,0 1.09,-3.273 3.272,-3.273 z"
     id="path22"
     inkscape:connector-curvature="0"
     style="fill:#bf6952" />
</svg>
