<?xml version="1.0" encoding="UTF-8" standalone="no"?>
<svg
   xmlns:dc="http://purl.org/dc/elements/1.1/"
   xmlns:cc="http://creativecommons.org/ns#"
   xmlns:rdf="http://www.w3.org/1999/02/22-rdf-syntax-ns#"
   xmlns:svg="http://www.w3.org/2000/svg"
   xmlns="http://www.w3.org/2000/svg"
   xmlns:sodipodi="http://sodipodi.sourceforge.net/DTD/sodipodi-0.dtd"
   xmlns:inkscape="http://www.inkscape.org/namespaces/inkscape"
   viewBox="0 0 36 32.820431"
   id="svg2"
   version="1.1"
   inkscape:version="0.91 r13725"
   sodipodi:docname="1f437.svg"
   width="36"
   height="32.820431">
  <metadata
     id="metadata18">
    <rdf:RDF>
      <cc:Work
         rdf:about="">
        <dc:format>image/svg+xml</dc:format>
        <dc:type
           rdf:resource="http://purl.org/dc/dcmitype/StillImage" />
      </cc:Work>
    </rdf:RDF>
  </metadata>
  <defs
     id="defs16" />
  <sodipodi:namedview
     pagecolor="#ffffff"
     bordercolor="#666666"
     borderopacity="1"
     objecttolerance="10"
     gridtolerance="10"
     guidetolerance="10"
     inkscape:pageopacity="0"
     inkscape:pageshadow="2"
     inkscape:window-width="640"
     inkscape:window-height="480"
     id="namedview14"
     showgrid="false"
     inkscape:zoom="6.5555556"
     inkscape:cx="18"
     inkscape:cy="16"
     inkscape:window-x="0"
     inkscape:window-y="0"
     inkscape:window-maximized="0"
     inkscape:current-layer="svg2" />
  <path
     d="m 34.193,12.14943 c 0.387,-0.371 0.733,-0.795 1.019,-1.28 C 36.898,8.01543 35.482,0.57742996 34.62,0.06942996 33.925,-0.34157004 29.091,1.11943 26.374,3.20143 23.876,1.70443 21.031,0.82042996 18,0.82042996 14.979,0.82042996 12.144,1.69943 9.651,3.18743 6.93,1.11343 2.119,-0.34057004 1.424,0.06942996 0.563,0.57742996 -0.852,8.01643 0.832,10.86943 c 0.278,0.471 0.615,0.884 0.989,1.249 -1.155,2.552 -1.821,5.342 -1.821,8.181 0,9.989 8.011,12.521 18,12.521 9.989,0 18,-2.532 18,-12.521 0,-2.828 -0.66,-5.606 -1.807,-8.15 z"
     id="path4"
     inkscape:connector-curvature="0"
     style="fill:#f4abba" />
  <path
     d="m 7.398,4.78543 c -2.166,-1.267 -4.402,-2.08 -4.8,-1.845 -0.57,0.337 -1.083,4.998 -0.352,8.265 1.273,-2.483 3.04,-4.682 5.152,-6.42 z m 26.355,6.419 c 0.733,-3.267 0.219,-7.928 -0.351,-8.265 -0.398,-0.235 -2.635,0.578 -4.801,1.845 2.114,1.739 3.88,3.938 5.152,6.42 z M 28,21.94543 c 0,4.487 -3.097,9.375 -10,9.375 -6.904,0 -10,-4.888 -10,-9.375 0,-4.487 3.096,-5.625 10,-5.625 6.903,0 10,1.138 10,5.625 z"
     id="path6"
     inkscape:connector-curvature="0"
     style="fill:#ea596e" />
  <path
     d="m 15,23.42043 c 0,1.857 -0.34,2.4 -1.5,2.4 -1.16,0 -1.5,-0.543 -1.5,-2.4 0,-1.856 0.34,-2.399 1.5,-2.399 1.16,0 1.5,0.542 1.5,2.399 z m 9,0 c 0,1.857 -0.34,2.4 -1.5,2.4 -1.16,0 -1.5,-0.543 -1.5,-2.4 0,-1.856 0.34,-2.399 1.5,-2.399 1.16,0 1.5,0.542 1.5,2.399 z"
     id="path8"
     inkscape:connector-curvature="0"
     style="fill:#662113" />
  <circle
     cx="7"
     cy="15.82043"
     r="2"
     id="circle10"
     style="fill:#292f33" />
  <circle
     cx="29"
     cy="15.82043"
     r="2"
     id="circle12"
     style="fill:#292f33" />
</svg>
