<?xml version="1.0" encoding="UTF-8" standalone="no"?>
<svg
   xmlns:dc="http://purl.org/dc/elements/1.1/"
   xmlns:cc="http://creativecommons.org/ns#"
   xmlns:rdf="http://www.w3.org/1999/02/22-rdf-syntax-ns#"
   xmlns:svg="http://www.w3.org/2000/svg"
   xmlns="http://www.w3.org/2000/svg"
   xmlns:sodipodi="http://sodipodi.sourceforge.net/DTD/sodipodi-0.dtd"
   xmlns:inkscape="http://www.inkscape.org/namespaces/inkscape"
   viewBox="0 0 36 32"
   id="svg2"
   version="1.1"
   inkscape:version="0.91 r13725"
   sodipodi:docname="1f438.svg"
   width="36"
   height="32">
  <metadata
     id="metadata24">
    <rdf:RDF>
      <cc:Work
         rdf:about="">
        <dc:format>image/svg+xml</dc:format>
        <dc:type
           rdf:resource="http://purl.org/dc/dcmitype/StillImage" />
      </cc:Work>
    </rdf:RDF>
  </metadata>
  <defs
     id="defs22" />
  <sodipodi:namedview
     pagecolor="#ffffff"
     bordercolor="#666666"
     borderopacity="1"
     objecttolerance="10"
     gridtolerance="10"
     guidetolerance="10"
     inkscape:pageopacity="0"
     inkscape:pageshadow="2"
     inkscape:window-width="640"
     inkscape:window-height="480"
     id="namedview20"
     showgrid="false"
     inkscape:zoom="6.5555556"
     inkscape:cx="18"
     inkscape:cy="16"
     inkscape:window-x="0"
     inkscape:window-y="0"
     inkscape:window-maximized="0"
     inkscape:current-layer="svg2" />
  <path
     d="M 36,20 C 36,27.456 27.941,32 18,32 8.059,32 0,27.456 0,20 0,12.544 8.059,5 18,5 c 9.941,0 18,7.544 18,15 z"
     id="path4"
     inkscape:connector-curvature="0"
     style="fill:#c6e5b3" />
  <path
     d="M 31.755,10.676 C 33.123,9.576 34,7.891 34,6 34,2.687 31.313,0 28,0 25.139,0 22.75,2.004 22.149,4.685 20.861,4.202 19.466,3.927 18,3.927 16.535,3.927 15.139,4.202 13.851,4.685 13.25,2.004 10.861,0 8,0 4.687,0 2,2.687 2,6 2,7.891 2.877,9.576 4.245,10.676 1.6,13.356 0,16.685 0,20 c 0,7.456 8.059,1 18,1 9.941,0 18,6.456 18,-1 0,-3.315 -1.6,-6.644 -4.245,-9.324 z"
     id="path6"
     inkscape:connector-curvature="0"
     style="fill:#77b255" />
  <circle
     cx="7.5"
     cy="5.5"
     r="3.5"
     id="circle8"
     style="fill:#ffffff" />
  <circle
     cx="7.5"
     cy="5.5"
     r="1.5"
     id="circle10"
     style="fill:#292f33" />
  <circle
     cx="28.5"
     cy="5.5"
     r="3.5"
     id="circle12"
     style="fill:#ffffff" />
  <circle
     cx="28.5"
     cy="5.5"
     r="1.5"
     id="circle14"
     style="fill:#292f33" />
  <circle
     cx="14"
     cy="18"
     r="1"
     id="circle16"
     style="fill:#5c913b" />
  <circle
     cx="22"
     cy="18"
     r="1"
     id="circle18"
     style="fill:#5c913b" />
</svg>
