<?xml version="1.0" encoding="UTF-8" standalone="no"?>
<svg
   xmlns:dc="http://purl.org/dc/elements/1.1/"
   xmlns:cc="http://creativecommons.org/ns#"
   xmlns:rdf="http://www.w3.org/1999/02/22-rdf-syntax-ns#"
   xmlns:svg="http://www.w3.org/2000/svg"
   xmlns="http://www.w3.org/2000/svg"
   xmlns:sodipodi="http://sodipodi.sourceforge.net/DTD/sodipodi-0.dtd"
   xmlns:inkscape="http://www.inkscape.org/namespaces/inkscape"
   viewBox="0 0 36.000458 35"
   id="svg2"
   version="1.1"
   inkscape:version="0.91 r13725"
   sodipodi:docname="1f439.svg"
   width="36.000458"
   height="35">
  <metadata
     id="metadata24">
    <rdf:RDF>
      <cc:Work
         rdf:about="">
        <dc:format>image/svg+xml</dc:format>
        <dc:type
           rdf:resource="http://purl.org/dc/dcmitype/StillImage" />
      </cc:Work>
    </rdf:RDF>
  </metadata>
  <defs
     id="defs22" />
  <sodipodi:namedview
     pagecolor="#ffffff"
     bordercolor="#666666"
     borderopacity="1"
     objecttolerance="10"
     gridtolerance="10"
     guidetolerance="10"
     inkscape:pageopacity="0"
     inkscape:pageshadow="2"
     inkscape:window-width="640"
     inkscape:window-height="480"
     id="namedview20"
     showgrid="false"
     inkscape:zoom="6.5555556"
     inkscape:cx="18"
     inkscape:cy="18"
     inkscape:window-x="0"
     inkscape:window-y="0"
     inkscape:window-maximized="0"
     inkscape:current-layer="svg2" />
  <circle
     cx="8.5"
     cy="8.5"
     r="8.5"
     id="circle4"
     style="fill:#ffcc4d" />
  <circle
     cx="27.5"
     cy="8.5"
     r="8.5"
     id="circle6"
     style="fill:#ffcc4d" />
  <path
     d="M 13.912,4.854 C 12.648,3.233 10.683,2.187 8.469,2.187 c -3.813,0 -6.906,3.093 -6.906,6.906 0,2.773 1.638,5.157 3.996,6.256 C 6.268,11.154 9.542,6.677 13.912,4.854 Z M 27.531,2.188 c -2.214,0 -4.18,1.046 -5.443,2.667 4.369,1.823 7.643,6.3 8.354,10.496 2.357,-1.099 3.996,-3.483 3.996,-6.256 0,-3.815 -3.093,-6.907 -6.907,-6.907 z"
     id="path8"
     inkscape:connector-curvature="0"
     style="fill:#ea596e" />
  <path
     d="m 34,21.593 c -2,-10.045 -11.333,-6.5 -16,-6.5 -4.667,0 -14,-3.546 -16,6.5 -1.295,6.504 3.794,9.879 9.032,11.387 C 12.682,34.212 15.19,35 18,35 20.81,35 23.318,34.212 24.969,32.979 30.206,31.471 35.295,28.097 34,21.593 Z"
     id="path10"
     inkscape:connector-curvature="0"
     style="fill:#ffe8b6" />
  <path
     d="M 30.6,17 C 30.6,28 24.959,23 18,23 11.041,23 5.4,28 5.4,17 5.4,11.201 11.041,4 18,4 c 6.959,0 12.6,7.201 12.6,13 z"
     id="path12"
     inkscape:connector-curvature="0"
     style="fill:#ffcc4d" />
  <path
     d="m 20.905,26.956 c 0,1.604 -2.012,3.352 -2.905,3.352 -0.894,0 -2.905,-1.748 -2.905,-3.352 C 15.095,25.351 16.882,25 18,25 c 1.117,0 2.905,0.351 2.905,1.956 z"
     id="path14"
     inkscape:connector-curvature="0"
     style="fill:#ea596e" />
  <path
     d="M 35.515,29.303 C 30.27,26.157 23.16,27.128 22.859,27.17 c -0.014,0.002 -0.023,0.011 -0.037,0.013 -0.081,0.015 -0.153,0.048 -0.228,0.081 -0.046,0.021 -0.093,0.035 -0.134,0.062 -0.061,0.039 -0.107,0.092 -0.158,0.144 -0.041,0.041 -0.084,0.076 -0.117,0.123 -0.036,0.052 -0.056,0.111 -0.082,0.17 -0.027,0.062 -0.058,0.121 -0.071,0.189 -0.004,0.016 -0.015,0.028 -0.018,0.045 -0.009,0.055 0.006,0.105 0.006,0.159 -0.001,0.049 -0.016,0.095 -0.009,0.146 0.002,0.016 0.012,0.027 0.015,0.042 0.013,0.069 0.041,0.13 0.067,0.193 0.024,0.06 0.044,0.12 0.079,0.173 0.028,0.044 0.067,0.076 0.101,0.115 0.053,0.058 0.104,0.114 0.168,0.158 0.038,0.026 0.083,0.041 0.125,0.062 0.074,0.036 0.146,0.07 0.229,0.087 0.015,0.003 0.026,0.013 0.041,0.016 0.056,0.01 5.636,0.977 8.364,4.613 0.196,0.263 0.496,0.4 0.801,0.4 0.209,0 0.419,-0.065 0.599,-0.2 0.442,-0.331 0.532,-0.958 0.2,-1.399 -1.108,-1.479 -2.573,-2.566 -4.025,-3.369 1.88,0.242 3.942,0.765 5.711,1.826 0.161,0.097 0.339,0.143 0.514,0.143 0.34,0 0.671,-0.173 0.858,-0.485 0.284,-0.476 0.13,-1.09 -0.343,-1.374 z M 13.829,28.707 c 0.034,-0.052 0.053,-0.111 0.077,-0.169 0.026,-0.064 0.055,-0.124 0.068,-0.193 0.003,-0.016 0.013,-0.028 0.016,-0.044 0.007,-0.053 -0.008,-0.103 -0.009,-0.154 0,-0.051 0.014,-0.1 0.005,-0.151 C 13.984,27.98 13.973,27.969 13.97,27.953 13.955,27.884 13.925,27.822 13.896,27.759 13.871,27.702 13.851,27.644 13.816,27.594 13.784,27.547 13.741,27.512 13.701,27.471 13.65,27.418 13.602,27.366 13.541,27.325 13.501,27.3 13.454,27.286 13.41,27.265 13.335,27.231 13.262,27.199 13.18,27.184 13.166,27.181 13.156,27.172 13.142,27.17 12.841,27.128 5.73,26.156 0.486,29.303 c -0.474,0.284 -0.627,0.898 -0.343,1.372 0.188,0.312 0.519,0.485 0.858,0.485 0.175,0 0.353,-0.046 0.514,-0.143 1.768,-1.061 3.83,-1.583 5.709,-1.825 -1.451,0.802 -2.915,1.89 -4.023,3.368 -0.332,0.441 -0.242,1.068 0.2,1.399 0.18,0.135 0.391,0.2 0.599,0.2 0.304,0 0.604,-0.138 0.801,-0.4 2.717,-3.622 8.31,-4.604 8.366,-4.613 0.015,-0.003 0.025,-0.012 0.04,-0.016 0.077,-0.016 0.144,-0.049 0.214,-0.082 0.048,-0.022 0.099,-0.039 0.142,-0.069 0.059,-0.04 0.104,-0.093 0.152,-0.144 0.039,-0.042 0.082,-0.079 0.114,-0.128 z"
     id="path16"
     inkscape:connector-curvature="0"
     style="fill:#c1694f" />
  <path
     d="m 10,19 c 0,0 0,-2 2,-2 2,0 2,2 2,2 l 0,2 c 0,0 0,2 -2,2 -2,0 -2,-2 -2,-2 l 0,-2 z m 12,0 c 0,0 0,-2 2,-2 2,0 2,2 2,2 l 0,2 c 0,0 0,2 -2,2 -2,0 -2,-2 -2,-2 l 0,-2 z"
     id="path18"
     inkscape:connector-curvature="0"
     style="fill:#272b2b" />
</svg>
