<?xml version="1.0" encoding="UTF-8" standalone="no"?>
<svg
   xmlns:dc="http://purl.org/dc/elements/1.1/"
   xmlns:cc="http://creativecommons.org/ns#"
   xmlns:rdf="http://www.w3.org/1999/02/22-rdf-syntax-ns#"
   xmlns:svg="http://www.w3.org/2000/svg"
   xmlns="http://www.w3.org/2000/svg"
   xmlns:sodipodi="http://sodipodi.sourceforge.net/DTD/sodipodi-0.dtd"
   xmlns:inkscape="http://www.inkscape.org/namespaces/inkscape"
   viewBox="0 0 36.000389 32.893391"
   id="svg2"
   version="1.1"
   inkscape:version="0.91 r13725"
   sodipodi:docname="1f433.svg"
   width="36.000389"
   height="32.893391">
  <metadata
     id="metadata20">
    <rdf:RDF>
      <cc:Work
         rdf:about="">
        <dc:format>image/svg+xml</dc:format>
        <dc:type
           rdf:resource="http://purl.org/dc/dcmitype/StillImage" />
      </cc:Work>
    </rdf:RDF>
  </metadata>
  <defs
     id="defs18" />
  <sodipodi:namedview
     pagecolor="#ffffff"
     bordercolor="#666666"
     borderopacity="1"
     objecttolerance="10"
     gridtolerance="10"
     guidetolerance="10"
     inkscape:pageopacity="0"
     inkscape:pageshadow="2"
     inkscape:window-width="640"
     inkscape:window-height="480"
     id="namedview16"
     showgrid="false"
     inkscape:zoom="6.5555556"
     inkscape:cx="18"
     inkscape:cy="18"
     inkscape:window-x="0"
     inkscape:window-y="0"
     inkscape:window-maximized="0"
     inkscape:current-layer="svg2" />
  <path
     d="m 32,8.8933909 c 2.122,-2.122 5,14.3120001 -3,21.0000001 -2.757,2.305 -6,2.969 -8,2.969 -2.371,0 -10.029,0.031 -13,0.031 -7.18,0 -8,-4.925 -8,-11 0,-6.075 0.82,-11 8,-11 6,0 10,2 13,3.996 4.977,3.312 5.992,3.861 8,2.004 3.213,-2.97 1,-6 3,-8.0000001 z"
     id="path4"
     inkscape:connector-curvature="0"
     style="fill:#3b88c3" />
  <path
     d="m 34.003,19.893391 c -0.465,3.727 -2.041,7.523 -5.003,10 -2.757,2.305 -6,2.969 -8,2.969 -2.371,0 -10.029,0.031 -13,0.031 -4.035,0 -6.062,-1.555 -7.062,-3.996 -0.781,-1.902 3.062,0.996 14.062,0.996 14,0 17,-5 19.003,-10 z"
     id="path6"
     inkscape:connector-curvature="0"
     style="fill:#55acee" />
  <path
     d="m 32,10.893391 c 4.123,0 4,-5.0000001 4,-7.0000001 0,-2 -2,1 -5,2 -3,1 -7,-2 -6,0 1,2 3,5.0000001 7,5.0000001 z"
     id="path8"
     inkscape:connector-curvature="0"
     style="fill:#3b88c3" />
  <path
     d="m 10,3.8933909 c 0,2.209 -0.896,6 -2,6 -1.104,0 -2,-3.791 -2,-6 0,-2.209 0.896,-2 2,-2 1.104,0 2,-0.209 2,2 z"
     id="path10"
     inkscape:connector-curvature="0"
     style="fill:#55acee" />
  <path
     d="m 8,1.8933909 c 0,-3 -6,-1.99999997 -6,0 0,2 3,1 4,3 1,2 2,-3 2,-3 z m 0,0 c 0,-3 6,-1.99999997 6,0 0,2 -3,1 -4,3 -1,2 -2,-3 -2,-3 z"
     id="path12"
     inkscape:connector-curvature="0"
     style="fill:#55acee" />
  <circle
     cx="6.5"
     cy="22.393391"
     r="1.5"
     id="circle14"
     style="fill:#292f33" />
</svg>
