<?xml version="1.0" encoding="UTF-8" standalone="no"?>
<svg
   xmlns:dc="http://purl.org/dc/elements/1.1/"
   xmlns:cc="http://creativecommons.org/ns#"
   xmlns:rdf="http://www.w3.org/1999/02/22-rdf-syntax-ns#"
   xmlns:svg="http://www.w3.org/2000/svg"
   xmlns="http://www.w3.org/2000/svg"
   xmlns:sodipodi="http://sodipodi.sourceforge.net/DTD/sodipodi-0.dtd"
   xmlns:inkscape="http://www.inkscape.org/namespaces/inkscape"
   viewBox="0 0 35.003845 33.879208"
   id="svg2"
   version="1.1"
   inkscape:version="0.91 r13725"
   sodipodi:docname="1f436.svg"
   width="35.003845"
   height="33.879208">
  <metadata
     id="metadata34">
    <rdf:RDF>
      <cc:Work
         rdf:about="">
        <dc:format>image/svg+xml</dc:format>
        <dc:type
           rdf:resource="http://purl.org/dc/dcmitype/StillImage" />
      </cc:Work>
    </rdf:RDF>
  </metadata>
  <defs
     id="defs32" />
  <sodipodi:namedview
     pagecolor="#ffffff"
     bordercolor="#666666"
     borderopacity="1"
     objecttolerance="10"
     gridtolerance="10"
     guidetolerance="10"
     inkscape:pageopacity="0"
     inkscape:pageshadow="2"
     inkscape:window-width="640"
     inkscape:window-height="480"
     id="namedview30"
     showgrid="false"
     inkscape:zoom="6.5555556"
     inkscape:cx="17.501923"
     inkscape:cy="18"
     inkscape:window-x="0"
     inkscape:window-y="0"
     inkscape:window-maximized="0"
     inkscape:current-layer="svg2" />
  <path
     d="m 14.501923,24.879207 0,6 c 0,0 0,3 3,3 3,0 3,-3 3,-3 l 0,-6 -6,0 z"
     id="path4"
     inkscape:connector-curvature="0"
     style="fill:#dd2e44" />
  <path
     d="m 14.501923,30.879207 10e-4,0.037 c 1.041,-0.035 2.016,-0.274 2.632,-1.286 0.171,-0.281 0.563,-0.281 0.735,0 0.616,1.011 1.591,1.251 2.632,1.286 l 0,-6.037 -6,0 0,6 z"
     id="path6"
     inkscape:connector-curvature="0"
     style="fill:#be1931" />
  <path
     d="m 31.455923,19.498207 c 0,6.276 -5,6.276 -5,6.276 l -18.0000001,0 c 0,0 -5,0 -5,-6.276 0,-6.724 5,-18.61899968 14.0000001,-18.61899968 9,0 14,12.89499968 14,18.61899968 z"
     id="path8"
     inkscape:connector-curvature="0"
     style="fill:#d99e82" />
  <path
     d="m 17.501923,17.879207 c -7,0 -10.0000001,3.527 -10.0000001,6.395 0,3.037 2.462,5.5 5.5000001,5.5 1.605,0 3.042,-0.664 4.049,-2.767 0.185,-0.386 0.716,-0.386 0.901,0 1.007,2.103 2.445,2.767 4.049,2.767 3.038,0 5.5,-2.463 5.5,-5.5 0.001,-2.868 -2.999,-6.395 -9.999,-6.395 z"
     id="path10"
     inkscape:connector-curvature="0"
     style="fill:#f4c7b5" />
  <path
     d="m 14.501923,20.774207 c -1,1 2,4 3,4 1,0 4,-3 3,-4 -1,-1 -5,-1 -6,0 z m -2,-3.895 c -1.1,0 -2,-0.9 -2,-2 l 0,-2 c 0,-1.1 0.9,-2 2,-2 1.1,0 2,0.9 2,2 l 0,2 c 0,1.1 -0.9,2 -2,2 z m 10,0 c -1.1,0 -2,-0.9 -2,-2 l 0,-2 c 0,-1.1 0.9,-2 2,-2 1.1,0 2,0.9 2,2 l 0,2 c 0,1.1 -0.9,2 -2,2 z"
     id="path12"
     inkscape:connector-curvature="0"
     style="fill:#292f33" />
  <path
     d="m 14.501923,1.4872073 c -1.059,-1.40899998 -3.319,-2.727 -12.1720001,0.592 -4.144,1.554 -2.12000003,13.6039997 1.107,14.3849997 1.106,0 4.426,0 4.426,-8.8519997 0,-0.22 -0.002,-0.423 -0.005,-0.625 1.994,-2.81 4.1440001,-4.251 6.6440001,-5.5 z m 18.172,0.592 c -8.853,-3.319 -11.113,-2.00099998 -12.172,-0.592 2.5,1.25 4.65,2.691 6.644,5.501 -0.003,0.201 -0.005,0.404 -0.005,0.625 0,8.8519997 3.319,8.8519997 4.426,8.8519997 3.227,-0.782 5.251,-12.8319997 1.107,-14.3859997 z"
     id="path14"
     inkscape:connector-curvature="0"
     style="fill:#662113" />
  <circle
     cx="23.001923"
     cy="23.379208"
     r="0.5"
     id="circle16"
     style="fill:#d99e82" />
  <circle
     cx="11.001923"
     cy="23.379208"
     r="0.5"
     id="circle18"
     style="fill:#d99e82" />
  <circle
     cx="25.001923"
     cy="25.379208"
     r="0.5"
     id="circle20"
     style="fill:#d99e82" />
  <circle
     cx="10.001923"
     cy="25.379208"
     r="0.5"
     id="circle22"
     style="fill:#d99e82" />
  <circle
     cx="22.501923"
     cy="25.879208"
     r="1"
     id="circle24"
     style="fill:#d99e82" />
  <circle
     cx="12.501923"
     cy="25.879208"
     r="1"
     id="circle26"
     style="fill:#d99e82" />
  <path
     d="m 9.3849229,5.1112073 c -0.259,-0.673 -0.634,-1.397 -1.176,-1.939 -0.391,-0.391 -1.023,-0.391 -1.414,0 -0.391,0.391 -0.391,1.023 0,1.414 0.57,0.57 1.066,1.934 1.068,2.346 0.145,-0.404 0.839,-1.15 1.522,-1.821 z m 16.2170001,0 c 0.259,-0.672 0.634,-1.397 1.176,-1.939 0.391,-0.391 1.023,-0.391 1.414,0 0.391,0.391 0.391,1.023 0,1.414 -0.57,0.57 -1.066,1.934 -1.068,2.346 -0.145,-0.404 -0.839,-1.15 -1.522,-1.821 z"
     id="path28"
     inkscape:connector-curvature="0"
     style="fill:#380f09" />
</svg>
