<?xml version="1.0" encoding="UTF-8" standalone="no"?>
<svg
   xmlns:dc="http://purl.org/dc/elements/1.1/"
   xmlns:cc="http://creativecommons.org/ns#"
   xmlns:rdf="http://www.w3.org/1999/02/22-rdf-syntax-ns#"
   xmlns:svg="http://www.w3.org/2000/svg"
   xmlns="http://www.w3.org/2000/svg"
   xmlns:sodipodi="http://sodipodi.sourceforge.net/DTD/sodipodi-0.dtd"
   xmlns:inkscape="http://www.inkscape.org/namespaces/inkscape"
   viewBox="0 0 33.462608 31.998837"
   id="svg2"
   version="1.1"
   inkscape:version="0.91 r13725"
   sodipodi:docname="1f43a.svg"
   width="33.462608"
   height="31.998837">
  <metadata
     id="metadata22">
    <rdf:RDF>
      <cc:Work
         rdf:about="">
        <dc:format>image/svg+xml</dc:format>
        <dc:type
           rdf:resource="http://purl.org/dc/dcmitype/StillImage" />
      </cc:Work>
    </rdf:RDF>
  </metadata>
  <defs
     id="defs20" />
  <sodipodi:namedview
     pagecolor="#ffffff"
     bordercolor="#666666"
     borderopacity="1"
     objecttolerance="10"
     gridtolerance="10"
     guidetolerance="10"
     inkscape:pageopacity="0"
     inkscape:pageshadow="2"
     inkscape:window-width="640"
     inkscape:window-height="480"
     id="namedview18"
     showgrid="false"
     inkscape:zoom="6.5555556"
     inkscape:cx="16.75261"
     inkscape:cy="16"
     inkscape:window-x="0"
     inkscape:window-y="0"
     inkscape:window-maximized="0"
     inkscape:current-layer="svg2" />
  <path
     d="m 13.61061,7.495836 c 0.475,2.326 -0.182,4.236 -2.921,4.638 -2.7409998,0.403 -6.6999998,3.898 -8.8479998,-1.798 -1.24500005,-3.299 -1.99700005,-10.10300005 -0.461,-10.32800005 1.537,-0.226 11.7559998,5.16200005 12.2299998,7.48800005 z"
     id="path4"
     inkscape:connector-curvature="0"
     style="fill:#66757f" />
  <path
     d="m 11.53661,7.849836 c 0.865,1.392 -2.2049998,3.833 -3.8439998,4.568 -1.639,0.736 -2.915,-0.66 -4.173,-4.1 -0.55,-1.503 -1.234,-5.532 -0.634,-5.802 0.599,-0.268 7.7849998,3.942 8.6509998,5.334 z"
     id="path6"
     inkscape:connector-curvature="0"
     style="fill:#ccd6dd" />
  <path
     d="m 20.12461,7.495836 c -0.458,2.326 0.176,4.236 2.818,4.638 2.644,0.403 6.464,3.898 8.536,-1.798 1.201,-3.3 1.927,-10.10300005 0.445,-10.32900005 -1.483,-0.225 -11.342,5.16300005 -11.799,7.48900005 z"
     id="path8"
     inkscape:connector-curvature="0"
     style="fill:#66757f" />
  <path
     d="m 22.12561,7.849836 c -0.835,1.392 2.127,3.833 3.708,4.568 1.581,0.736 2.812,-0.66 4.026,-4.1 0.531,-1.503 1.19,-5.532 0.611,-5.802 -0.577,-0.268 -7.509,3.942 -8.345,5.334 z"
     id="path10"
     inkscape:connector-curvature="0"
     style="fill:#ccd6dd" />
  <path
     d="m 31.09961,24.910836 c 0,-0.454 -0.188,-1.091 -0.407,-1.687 0.585,0.028 1.519,0.191 2.77,0.817 -0.008,-0.536 -0.118,-0.984 -0.273,-1.393 0.041,0.02 0.075,0.034 0.116,0.055 -1.104,-3.31 -3.309,-5.517 -3.309,-5.517 l 2.206,0 c -2.331,-4.663 -4.965,-8.015 -8.075,-9.559 -1.39,-0.873 -3.688,-1.338 -7.373,-1.339 l -0.003,0 c -3.696,0 -5.996,0.468 -7.3849998,1.346 -3.104,1.547 -5.734,4.896 -8.061,9.552 l 2.207,0 c 0,0 -2.207,2.206 -3.31100005,5.517 l 0.084,-0.039 c -0.201,0.392 -0.307,0.847 -0.282,1.377 1.26300005,-0.632 2.21700005,-0.792 2.81300005,-0.818 -0.189,0.513 -0.343,1.044 -0.386,1.475 -0.123,0.371 -0.191,0.812 -0.135,1.343 3.207,-1.458 4.707,-1.25 6.457,-0.375 1.213,3.623 4.2059998,6.333 8.0009998,6.333 3.793,0 6.746,-2.794 7.958,-6.416 1.458,-1.25 3.708,-0.875 6.416,0.416 0.066,-0.413 0.036,-0.773 -0.036,-1.093 l 0.008,0.005 z"
     id="path12"
     inkscape:connector-curvature="0"
     style="fill:#66757f" />
  <path
     d="m 33.30561,22.702836 c -0.437,-1.313 -3.665,-3.101 -6.973,-4.513 0.26,-0.664 0.42,-1.401 0.42,-2.191 0,-2.761 -1.791,-5 -4,-5 -2.209,0 -4,2.239 -4,5 0,3 4,10 -2.001,11.118 -5.125,-0.955 -2.954,-6.201 -2.212,-9.58 0.072,-0.276 0.125,-0.559 0.158,-0.853 0.034,-0.245 0.055,-0.476 0.055,-0.685 0,-2.761 -1.791,-5 -4,-5 -2.2089998,0 -3.9999998,2.239 -3.9999998,5 0,0.79 0.16,1.527 0.421,2.191 -3.308,1.412 -6.53500005,3.2 -6.97300005,4.513 2.20700005,-1.104 3.31100005,-1.104 3.31100005,-1.104 0,0 -1.104,2.208 -1.104,3.312 2.67,-1.78 5.339,-2.122 7.429,-0.452 1.2129998,3.623 2.9159998,6.54 6.9169998,3.664 3.999,2.876 5.7,-0.04 6.912,-3.662 2.092,-1.673 4.763,-1.33 7.434,0.45 0,-1.104 -1.103,-3.312 -1.103,-3.312 0,0 1.103,0.001 3.309,1.104 z"
     id="path14"
     inkscape:connector-curvature="0"
     style="fill:#ccd6dd" />
  <path
     d="m 9.7526102,14.998836 c 0,0 0,-1.5 1.4999998,-1.5 1.5,0 1.5,1.5 1.5,1.5 l 0,1.5 c 0,0 0,1.5 -1.5,1.5 -1.4999998,0 -1.4999998,-1.5 -1.4999998,-1.5 l 0,-1.5 z m 10.9999998,0 c 0,0 0,-1.5 1.5,-1.5 1.5,0 1.5,1.5 1.5,1.5 l 0,1.5 c 0,0 0,1.5 -1.5,1.5 -1.5,0 -1.5,-1.5 -1.5,-1.5 l 0,-1.5 z m -7.061,9.156 c -1.021,0.208 2.041,3.968 3.062,3.968 1.02,0 4.082,-3.76 3.062,-3.968 -1.02,-0.208 -5.103,-0.208 -6.124,0 z"
     id="path16"
     inkscape:connector-curvature="0"
     style="fill:#292f33" />
</svg>
