<?xml version="1.0" encoding="UTF-8" standalone="no"?>
<svg
   xmlns:dc="http://purl.org/dc/elements/1.1/"
   xmlns:cc="http://creativecommons.org/ns#"
   xmlns:rdf="http://www.w3.org/1999/02/22-rdf-syntax-ns#"
   xmlns:svg="http://www.w3.org/2000/svg"
   xmlns="http://www.w3.org/2000/svg"
   xmlns:sodipodi="http://sodipodi.sourceforge.net/DTD/sodipodi-0.dtd"
   xmlns:inkscape="http://www.inkscape.org/namespaces/inkscape"
   viewBox="0 0 34 36"
   id="svg2"
   version="1.1"
   inkscape:version="0.91 r13725"
   sodipodi:docname="1f43b.svg"
   width="34"
   height="36">
  <metadata
     id="metadata24">
    <rdf:RDF>
      <cc:Work
         rdf:about="">
        <dc:format>image/svg+xml</dc:format>
        <dc:type
           rdf:resource="http://purl.org/dc/dcmitype/StillImage" />
      </cc:Work>
    </rdf:RDF>
  </metadata>
  <defs
     id="defs22" />
  <sodipodi:namedview
     pagecolor="#ffffff"
     bordercolor="#666666"
     borderopacity="1"
     objecttolerance="10"
     gridtolerance="10"
     guidetolerance="10"
     inkscape:pageopacity="0"
     inkscape:pageshadow="2"
     inkscape:window-width="640"
     inkscape:window-height="480"
     id="namedview20"
     showgrid="false"
     inkscape:zoom="6.5555556"
     inkscape:cx="17"
     inkscape:cy="18"
     inkscape:window-x="0"
     inkscape:window-y="0"
     inkscape:window-maximized="0"
     inkscape:current-layer="svg2" />
  <circle
     cx="6"
     cy="6"
     r="6"
     id="circle4"
     style="fill:#c1694f" />
  <circle
     cx="28"
     cy="6"
     r="6"
     id="circle6"
     style="fill:#c1694f" />
  <circle
     cx="6"
     cy="6"
     r="4"
     id="circle8"
     style="fill:#e6aaaa" />
  <circle
     cx="28"
     cy="6"
     r="4"
     id="circle10"
     style="fill:#e6aaaa" />
  <path
     d="M 34,22 C 34,22 32.692,0 17,0 1.308,0 0,22 0,22 0,27.872 4.499,32.323 12.216,33.61 13.311,35.06 15.044,36 17,36 18.956,36 20.688,35.06 21.784,33.61 29.501,32.323 34,27.872 34,22 Z"
     id="path12"
     inkscape:connector-curvature="0"
     style="fill:#c1694f" />
  <circle
     cx="17"
     cy="30"
     r="4"
     id="circle14"
     style="fill:#dd2e44" />
  <path
     d="m 17,20 c 0,0 -11,3.687 -11,7 0,3.313 2.687,6 6,6 2.088,0 3.925,-1.067 5,-2.685 1.074,1.618 2.912,2.685 5,2.685 3.313,0 6,-2.687 6,-6 0,-3.313 -11,-7 -11,-7 z"
     id="path16"
     inkscape:connector-curvature="0"
     style="fill:#d99e82" />
  <path
     d="m 10,17 c 0,0 0,-2 2,-2 2,0 2,2 2,2 l 0,2 c 0,0 0,2 -2,2 -2,0 -2,-2 -2,-2 l 0,-2 z m 10,0 c 0,0 0,-2 2,-2 2,0 2,2 2,2 l 0,2 c 0,0 0,2 -2,2 -2,0 -2,-2 -2,-2 l 0,-2 z m -7.875,8 c -1.624,1 3.25,4 4.875,4 1.625,0 6.499,-3 4.874,-4 -1.625,-1 -8.124,-1 -9.749,0 z"
     id="path18"
     inkscape:connector-curvature="0"
     style="fill:#272b2b" />
</svg>
