<?xml version="1.0" encoding="UTF-8" standalone="no"?>
<svg
   xmlns:dc="http://purl.org/dc/elements/1.1/"
   xmlns:cc="http://creativecommons.org/ns#"
   xmlns:rdf="http://www.w3.org/1999/02/22-rdf-syntax-ns#"
   xmlns:svg="http://www.w3.org/2000/svg"
   xmlns="http://www.w3.org/2000/svg"
   xmlns:sodipodi="http://sodipodi.sourceforge.net/DTD/sodipodi-0.dtd"
   xmlns:inkscape="http://www.inkscape.org/namespaces/inkscape"
   viewBox="0 0 34 36"
   id="svg2"
   version="1.1"
   inkscape:version="0.91 r13725"
   sodipodi:docname="1f43c.svg"
   width="34"
   height="36">
  <metadata
     id="metadata32">
    <rdf:RDF>
      <cc:Work
         rdf:about="">
        <dc:format>image/svg+xml</dc:format>
        <dc:type
           rdf:resource="http://purl.org/dc/dcmitype/StillImage" />
      </cc:Work>
    </rdf:RDF>
  </metadata>
  <defs
     id="defs30" />
  <sodipodi:namedview
     pagecolor="#ffffff"
     bordercolor="#666666"
     borderopacity="1"
     objecttolerance="10"
     gridtolerance="10"
     guidetolerance="10"
     inkscape:pageopacity="0"
     inkscape:pageshadow="2"
     inkscape:window-width="640"
     inkscape:window-height="480"
     id="namedview28"
     showgrid="false"
     inkscape:zoom="6.5555556"
     inkscape:cx="17"
     inkscape:cy="18"
     inkscape:window-x="0"
     inkscape:window-y="0"
     inkscape:window-maximized="0"
     inkscape:current-layer="svg2" />
  <circle
     cx="6"
     cy="6"
     r="6"
     id="circle4"
     style="fill:#272b2b" />
  <circle
     cx="28"
     cy="6"
     r="6"
     id="circle6"
     style="fill:#272b2b" />
  <circle
     cx="6"
     cy="6"
     r="4"
     id="circle8"
     style="fill:#66757f" />
  <circle
     cx="28"
     cy="6"
     r="4"
     id="circle10"
     style="fill:#66757f" />
  <path
     d="M 34,22 C 34,29 27.625,34 17,34 6.375,34 0,29 0,22 0,22 1.308,0 17,0 32.692,0 34,22 34,22 Z"
     id="path12"
     inkscape:connector-curvature="0"
     style="fill:#eeeeee" />
  <circle
     cx="17"
     cy="30"
     r="6"
     id="circle14"
     style="fill:#ccd6dd" />
  <circle
     cx="17"
     cy="30"
     r="4"
     id="circle16"
     style="fill:#dd2e44" />
  <path
     d="M 19.709,12.654 C 24.163,9.878 31,17 25.952,22.67 22.463,26.591 19,25 19,25 19,25 16.364,14.74 19.709,12.654 Z m -5.442,0.011 C 9.813,9.888 2.976,17.01 8.023,22.681 c 3.49,3.92 6.953,2.329 6.953,2.329 0,0 2.636,-10.26 -0.709,-12.345 z"
     id="path18"
     inkscape:connector-curvature="0"
     style="fill:#272b2b" />
  <path
     d="m 10,17 c 0,0 0,-2 2,-2 2,0 2,2 2,2 l 0,2 c 0,0 0,2 -2,2 -2,0 -2,-2 -2,-2 l 0,-2 z"
     id="path20"
     inkscape:connector-curvature="0"
     style="fill:#66757f" />
  <path
     d="m 17,20 c 0,0 -11,3.687 -11,7 0,3.313 2.687,6 6,6 2.088,0 3.925,-1.067 5,-2.685 1.074,1.618 2.912,2.685 5,2.685 3.313,0 6,-2.687 6,-6 0,-3.313 -11,-7 -11,-7 z"
     id="path22"
     inkscape:connector-curvature="0"
     style="fill:#ffffff" />
  <path
     d="m 20,17 c 0,0 0,-2 2,-2 2,0 2,2 2,2 l 0,2 c 0,0 0,2 -2,2 -2,0 -2,-2 -2,-2 l 0,-2 z"
     id="path24"
     inkscape:connector-curvature="0"
     style="fill:#66757f" />
  <path
     d="m 12.125,25 c -1.624,1 3.25,4 4.875,4 1.625,0 6.499,-3 4.874,-4 -1.625,-1 -8.124,-1 -9.749,0 z"
     id="path26"
     inkscape:connector-curvature="0"
     style="fill:#272b2b" />
</svg>
