<?xml version="1.0" encoding="UTF-8" standalone="no"?>
<svg
   xmlns:dc="http://purl.org/dc/elements/1.1/"
   xmlns:cc="http://creativecommons.org/ns#"
   xmlns:rdf="http://www.w3.org/1999/02/22-rdf-syntax-ns#"
   xmlns:svg="http://www.w3.org/2000/svg"
   xmlns="http://www.w3.org/2000/svg"
   xmlns:sodipodi="http://sodipodi.sourceforge.net/DTD/sodipodi-0.dtd"
   xmlns:inkscape="http://www.inkscape.org/namespaces/inkscape"
   viewBox="0 0 32.018002 35.758999"
   id="svg2"
   version="1.1"
   inkscape:version="0.91 r13725"
   sodipodi:docname="1f44d-1f3fb.svg"
   width="32.018002"
   height="35.758999">
  <metadata
     id="metadata12">
    <rdf:RDF>
      <cc:Work
         rdf:about="">
        <dc:format>image/svg+xml</dc:format>
        <dc:type
           rdf:resource="http://purl.org/dc/dcmitype/StillImage" />
      </cc:Work>
    </rdf:RDF>
  </metadata>
  <defs
     id="defs10" />
  <sodipodi:namedview
     pagecolor="#ffffff"
     bordercolor="#666666"
     borderopacity="1"
     objecttolerance="10"
     gridtolerance="10"
     guidetolerance="10"
     inkscape:pageopacity="0"
     inkscape:pageshadow="2"
     inkscape:window-width="640"
     inkscape:window-height="480"
     id="namedview8"
     showgrid="false"
     inkscape:zoom="6.5555556"
     inkscape:cx="15.062"
     inkscape:cy="18"
     inkscape:window-x="0"
     inkscape:window-y="0"
     inkscape:window-maximized="0"
     inkscape:current-layer="svg2" />
  <path
     d="m 32.018,17.675 c 0,-0.503 -0.12,-0.975 -0.321,-1.404 C 30.356,11.945 24.078,12.261 15.148,12.05 13.655,12.015 14.509,10.252 15.033,6.382 15.374,3.865 13.751,0 11.023,0 6.525,0 10.852,3.548 6.875,12.322 4.75,17.01 0,14.384 0,19.093 l 0,10.719 c 0,1.833 0.18,3.595 2.758,3.885 2.499,0.281 1.937,2.062 5.542,2.062 l 18.044,0 c 1.838,0 3.333,-1.496 3.333,-3.334 0,-0.762 -0.267,-1.456 -0.698,-2.018 1.02,-0.571 1.72,-1.649 1.72,-2.899 0,-0.76 -0.266,-1.454 -0.696,-2.015 1.023,-0.57 1.725,-1.649 1.725,-2.901 0,-0.909 -0.368,-1.733 -0.961,-2.336 0.757,-0.611 1.251,-1.535 1.251,-2.581 z"
     id="path4"
     inkscape:connector-curvature="0"
     style="fill:#f6ddcd" />
  <path
     d="m 20.082,21.008 8.604,0 c 1.17,0 2.268,-0.626 2.866,-1.633 0.246,-0.415 0.109,-0.952 -0.307,-1.199 -0.415,-0.247 -0.952,-0.108 -1.199,0.307 -0.283,0.479 -0.806,0.775 -1.361,0.775 l -8.81,0 c -0.873,0 -1.583,-0.71 -1.583,-1.583 0,-0.873 0.71,-1.583 1.583,-1.583 l 5.887,0 c 0.483,0 0.875,-0.392 0.875,-0.875 0,-0.483 -0.392,-0.875 -0.875,-0.875 l -5.888,0 c -1.838,0 -3.333,1.495 -3.333,3.333 0,1.025 0.475,1.932 1.205,2.544 -0.615,0.605 -0.998,1.445 -0.998,2.373 0,1.028 0.478,1.938 1.212,2.549 -0.611,0.604 -0.99,1.441 -0.99,2.367 0,1.12 0.559,2.108 1.409,2.713 -0.524,0.589 -0.852,1.356 -0.852,2.204 0,1.838 1.495,3.333 3.333,3.333 l 5.484,0 c 1.17,0 2.269,-0.625 2.867,-1.632 0.247,-0.415 0.11,-0.952 -0.305,-1.199 -0.416,-0.245 -0.953,-0.11 -1.199,0.305 -0.285,0.479 -0.808,0.776 -1.363,0.776 l -5.484,0 c -0.873,0 -1.583,-0.71 -1.583,-1.583 0,-0.873 0.71,-1.583 1.583,-1.583 l 6.506,0 c 1.17,0 2.27,-0.626 2.867,-1.633 0.247,-0.416 0.11,-0.953 -0.305,-1.199 -0.419,-0.251 -0.954,-0.11 -1.199,0.305 -0.289,0.487 -0.799,0.777 -1.363,0.777 l -7.063,0 c -0.873,0 -1.583,-0.711 -1.583,-1.584 0,-0.873 0.71,-1.583 1.583,-1.583 l 8.091,0 c 1.17,0 2.269,-0.625 2.867,-1.632 0.247,-0.415 0.11,-0.952 -0.305,-1.199 -0.417,-0.246 -0.953,-0.11 -1.199,0.305 -0.289,0.486 -0.799,0.776 -1.363,0.776 l -8.312,0 c -0.873,0 -1.583,-0.71 -1.583,-1.583 0,-0.873 0.709,-1.584 1.583,-1.584 z"
     id="path6"
     inkscape:connector-curvature="0"
     style="fill:#dfa994" />
</svg>
