<?xml version="1.0" encoding="UTF-8" standalone="no"?>
<svg
   xmlns:dc="http://purl.org/dc/elements/1.1/"
   xmlns:cc="http://creativecommons.org/ns#"
   xmlns:rdf="http://www.w3.org/1999/02/22-rdf-syntax-ns#"
   xmlns:svg="http://www.w3.org/2000/svg"
   xmlns="http://www.w3.org/2000/svg"
   xmlns:sodipodi="http://sodipodi.sourceforge.net/DTD/sodipodi-0.dtd"
   xmlns:inkscape="http://www.inkscape.org/namespaces/inkscape"
   viewBox="0 0 35.958 35.958"
   id="svg2"
   version="1.1"
   inkscape:version="0.91 r13725"
   sodipodi:docname="1f44b-1f3fb.svg"
   width="35.958"
   height="35.958">
  <metadata
     id="metadata20">
    <rdf:RDF>
      <cc:Work
         rdf:about="">
        <dc:format>image/svg+xml</dc:format>
        <dc:type
           rdf:resource="http://purl.org/dc/dcmitype/StillImage" />
      </cc:Work>
    </rdf:RDF>
  </metadata>
  <defs
     id="defs18" />
  <sodipodi:namedview
     pagecolor="#ffffff"
     bordercolor="#666666"
     borderopacity="1"
     objecttolerance="10"
     gridtolerance="10"
     guidetolerance="10"
     inkscape:pageopacity="0"
     inkscape:pageshadow="2"
     inkscape:window-width="640"
     inkscape:window-height="480"
     id="namedview16"
     showgrid="false"
     inkscape:zoom="6.5555556"
     inkscape:cx="18"
     inkscape:cy="18"
     inkscape:window-x="0"
     inkscape:window-y="0"
     inkscape:window-maximized="0"
     inkscape:current-layer="svg2" />
  <path
     d="M 4.861,9.105 C 5.801,8.448 7.218,8.574 8.062,9.271 L 7.094,7.864 C 6.315,6.753 6.594,5.551 7.706,4.771 8.818,3.994 11.969,6.083 11.969,6.083 11.183,4.961 11.33,3.539 12.452,2.752 13.574,1.968 15.122,2.239 15.908,3.363 L 26.328,18.083 25,30.958 13.917,26.916 4.25,12.583 C 3.457,11.454 3.731,9.897 4.861,9.105 Z"
     id="path4"
     inkscape:connector-curvature="0"
     style="fill:#e0aa94" />
  <path
     d="m 2.695,17.294 c 0,0 -1.132,-1.65 0.519,-2.781 1.649,-1.131 2.78,0.518 2.78,0.518 l 5.251,7.658 c 0.181,-0.302 0.379,-0.6 0.6,-0.894 L 4.557,11.168 c 0,0 -1.131,-1.649 0.519,-2.78 1.649,-1.131 2.78,0.518 2.78,0.518 l 6.855,9.997 c 0.255,-0.208 0.516,-0.417 0.785,-0.622 L 7.549,6.69 c 0,0 -1.131,-1.649 0.519,-2.78 1.649,-1.131 2.78,0.518 2.78,0.518 l 7.947,11.589 c 0.292,-0.179 0.581,-0.334 0.871,-0.498 L 12.238,4.687 c 0,0 -1.131,-1.649 0.518,-2.78 1.649,-1.131 2.78,0.518 2.78,0.518 l 7.854,11.454 1.194,1.742 c -4.948,3.394 -5.419,9.779 -2.592,13.902 0.565,0.825 1.39,0.26 1.39,0.26 -3.393,-4.949 -2.357,-10.51 2.592,-13.903 L 24.515,8.578 c 0,0 -0.545,-1.924 1.378,-2.47 1.924,-0.545 2.47,1.379 2.47,1.379 l 1.685,5.004 c 0.668,1.984 1.379,3.961 2.32,5.831 2.657,5.28 1.07,11.842 -3.94,15.279 -5.465,3.747 -12.936,2.354 -16.684,-3.11 L 2.695,17.294 Z"
     id="path6"
     inkscape:connector-curvature="0"
     style="fill:#f7dece" />
  <g
     id="g8"
     style="fill:#5dadec"
     transform="translate(0,-0.042)">
    <path
       d="M 12,32.042 C 8,32.042 3.958,28 3.958,24 3.958,23.447 3.553,23 3,23 2.447,23 1.958,23.447 1.958,24 1.958,30 6,34.042 12,34.042 c 0.553,0 1,-0.489 1,-1.042 0,-0.553 -0.447,-0.958 -1,-0.958 z"
       id="path10"
       inkscape:connector-curvature="0" />
    <path
       d="M 7,34 C 4,34 2,32 2,29 2,28.447 1.553,28 1,28 0.447,28 0,28.447 0,29 0,33 3,36 7,36 7.553,36 8,35.553 8,35 8,34.447 7.553,34 7,34 Z M 24,2 c -0.552,0 -1,0.448 -1,1 0,0.552 0.448,1 1,1 4,0 8,3.589 8,8 0,0.552 0.448,1 1,1 0.552,0 1,-0.448 1,-1 C 34,6.486 30,2 24,2 Z"
       id="path12"
       inkscape:connector-curvature="0" />
    <path
       d="m 29,0.042 c -0.552,0 -1,0.406 -1,0.958 0,0.552 0.448,1.042 1,1.042 3,0 4.958,2.225 4.958,4.958 0,0.552 0.489,1 1.042,1 0.553,0 0.958,-0.448 0.958,-1 C 35.958,3.163 33,0.042 29,0.042 Z"
       id="path14"
       inkscape:connector-curvature="0" />
  </g>
</svg>
