<?xml version="1.0" encoding="UTF-8" standalone="no"?>
<svg
   xmlns:dc="http://purl.org/dc/elements/1.1/"
   xmlns:cc="http://creativecommons.org/ns#"
   xmlns:rdf="http://www.w3.org/1999/02/22-rdf-syntax-ns#"
   xmlns:svg="http://www.w3.org/2000/svg"
   xmlns="http://www.w3.org/2000/svg"
   xmlns:sodipodi="http://sodipodi.sourceforge.net/DTD/sodipodi-0.dtd"
   xmlns:inkscape="http://www.inkscape.org/namespaces/inkscape"
   viewBox="0 0 30 36"
   id="svg2"
   version="1.1"
   inkscape:version="0.91 r13725"
   sodipodi:docname="1f443-1f3ff.svg"
   width="30"
   height="36">
  <metadata
     id="metadata14">
    <rdf:RDF>
      <cc:Work
         rdf:about="">
        <dc:format>image/svg+xml</dc:format>
        <dc:type
           rdf:resource="http://purl.org/dc/dcmitype/StillImage" />
      </cc:Work>
    </rdf:RDF>
  </metadata>
  <defs
     id="defs12" />
  <sodipodi:namedview
     pagecolor="#ffffff"
     bordercolor="#666666"
     borderopacity="1"
     objecttolerance="10"
     gridtolerance="10"
     guidetolerance="10"
     inkscape:pageopacity="0"
     inkscape:pageshadow="2"
     inkscape:window-width="640"
     inkscape:window-height="480"
     id="namedview10"
     showgrid="false"
     inkscape:zoom="6.5555556"
     inkscape:cx="15"
     inkscape:cy="18"
     inkscape:window-x="0"
     inkscape:window-y="0"
     inkscape:window-maximized="0"
     inkscape:current-layer="svg2" />
  <path
     d="M 30,29.5 C 30,27.015 26.866,23 23,23 l -0.059,0.003 C 22.441,13.749 18.722,0 15,0 11.343,0 7.689,13.691 7.088,23.004 7.06,23.004 7.028,23 7,23 3.134,23 0,27.015 0,29.5 0,31.826 5.257,32.864 9.21,34.628 10.472,35.724 12.342,36 15,36 17.253,36 18.941,35.733 20.173,34.919 24.17,32.974 30,31.95 30,29.5 Z"
     id="path4"
     inkscape:connector-curvature="0"
     style="fill:#7c533e" />
  <path
     d="m 23,30 c 0.544,-0.099 2.104,-2.421 2.104,-4.077 0,-2.061 -0.55,-2.667 -1.224,-2.846 C 23.591,23.031 23.299,23 23,23 c 0,1 0.137,2 0.137,3.278 C 23.137,29 22.456,30.098 23,30 Z M 4.789,25.923 c 0,1.656 1.561,3.979 2.104,4.077 0.544,0.098 -0.137,-1 -0.137,-3.722 0,-1.275 0.136,-2.274 0.137,-3.271 -0.349,0.007 -0.691,0.05 -1.026,0.118 -0.606,0.229 -1.078,0.889 -1.078,2.798 z"
     id="path6"
     inkscape:connector-curvature="0"
     style="fill:#543226" />
  <path
     d="M 6.008,31.377 C 4.446,30.922 2.959,31.161 2.267,31.88 c 1.804,0.892 4.381,1.648 6.618,2.609 L 8.886,34.487 C 9.223,33.332 7.935,31.938 6.008,31.377 Z m 17.984,0 c -1.927,0.561 -3.215,1.955 -2.878,3.11 l 0.002,0.004 c 2.237,-0.961 4.814,-1.718 6.617,-2.611 -0.691,-0.719 -2.179,-0.958 -3.741,-0.503 z"
     id="path8"
     inkscape:connector-curvature="0" />
</svg>
