<?xml version="1.0" encoding="UTF-8" standalone="no"?>
<svg
   xmlns:dc="http://purl.org/dc/elements/1.1/"
   xmlns:cc="http://creativecommons.org/ns#"
   xmlns:rdf="http://www.w3.org/1999/02/22-rdf-syntax-ns#"
   xmlns:svg="http://www.w3.org/2000/svg"
   xmlns="http://www.w3.org/2000/svg"
   xmlns:sodipodi="http://sodipodi.sourceforge.net/DTD/sodipodi-0.dtd"
   xmlns:inkscape="http://www.inkscape.org/namespaces/inkscape"
   viewBox="0 0 34.133999 22"
   id="svg2"
   version="1.1"
   inkscape:version="0.91 r13725"
   sodipodi:docname="1f441.svg"
   width="34.133999"
   height="22">
  <metadata
     id="metadata18">
    <rdf:RDF>
      <cc:Work
         rdf:about="">
        <dc:format>image/svg+xml</dc:format>
        <dc:type
           rdf:resource="http://purl.org/dc/dcmitype/StillImage" />
      </cc:Work>
    </rdf:RDF>
  </metadata>
  <defs
     id="defs16" />
  <sodipodi:namedview
     pagecolor="#ffffff"
     bordercolor="#666666"
     borderopacity="1"
     objecttolerance="10"
     gridtolerance="10"
     guidetolerance="10"
     inkscape:pageopacity="0"
     inkscape:pageshadow="2"
     inkscape:window-width="640"
     inkscape:window-height="480"
     id="namedview14"
     showgrid="false"
     inkscape:zoom="6.5555556"
     inkscape:cx="17.075"
     inkscape:cy="11"
     inkscape:window-x="0"
     inkscape:window-y="0"
     inkscape:window-maximized="0"
     inkscape:current-layer="svg2" />
  <path
     d="m 34.134,11 c 0,3.304 -7.642,11 -17.067,11 C 7.641,22 0,15.249 0,11 0,7.687 7.642,0 17.067,0 26.492,0 34.134,7.686 34.134,11 Z"
     id="path4"
     inkscape:connector-curvature="0"
     style="fill:#99aab5" />
  <path
     d="m 32.892,11 c 0,2.904 -7.087,9.667 -15.826,9.667 C 8.326,20.667 1.241,14.732 1.241,11 1.241,8.088 8.326,1.334 17.066,1.334 25.805,1.333 32.892,8.088 32.892,11 Z"
     id="path6"
     inkscape:connector-curvature="0"
     style="fill:#f5f8fa" />
  <circle
     cx="17.075001"
     cy="11"
     r="8.4580002"
     id="circle8"
     style="fill:#55acee" />
  <circle
     cx="17.075001"
     cy="11"
     r="4.7080002"
     id="circle10"
     style="fill:#292f33" />
  <circle
     cx="20.075001"
     cy="8"
     r="2"
     id="circle12"
     style="fill:#f5f8fa" />
</svg>
