<?xml version="1.0" encoding="UTF-8" standalone="no"?>
<svg
   xmlns:dc="http://purl.org/dc/elements/1.1/"
   xmlns:cc="http://creativecommons.org/ns#"
   xmlns:rdf="http://www.w3.org/1999/02/22-rdf-syntax-ns#"
   xmlns:svg="http://www.w3.org/2000/svg"
   xmlns="http://www.w3.org/2000/svg"
   xmlns:sodipodi="http://sodipodi.sourceforge.net/DTD/sodipodi-0.dtd"
   xmlns:inkscape="http://www.inkscape.org/namespaces/inkscape"
   viewBox="0 0 36 33"
   id="svg2"
   version="1.1"
   inkscape:version="0.91 r13725"
   sodipodi:docname="1f441-200d-1f5e8.svg"
   width="36"
   height="33">
  <metadata
     id="metadata16">
    <rdf:RDF>
      <cc:Work
         rdf:about="">
        <dc:format>image/svg+xml</dc:format>
        <dc:type
           rdf:resource="http://purl.org/dc/dcmitype/StillImage" />
      </cc:Work>
    </rdf:RDF>
  </metadata>
  <defs
     id="defs14" />
  <sodipodi:namedview
     pagecolor="#ffffff"
     bordercolor="#666666"
     borderopacity="1"
     objecttolerance="10"
     gridtolerance="10"
     guidetolerance="10"
     inkscape:pageopacity="0"
     inkscape:pageshadow="2"
     inkscape:window-width="640"
     inkscape:window-height="480"
     id="namedview12"
     showgrid="false"
     inkscape:zoom="6.5555556"
     inkscape:cx="18"
     inkscape:cy="17"
     inkscape:window-x="0"
     inkscape:window-y="0"
     inkscape:window-maximized="0"
     inkscape:current-layer="svg2" />
  <path
     d="M 32.769,31.359 C 30.03,28.073 28.866,24.79 28.372,22.613 28.308,22.33 28.123,22.089 27.866,21.952 c -0.257,-0.137 -0.56,-0.154 -0.83,-0.05 l -7.112,2.749 c -0.303,0.117 -0.53,0.374 -0.609,0.688 -0.079,0.315 -0.019,0.665 0.211,0.896 C 25.492,32.216 31.945,33 32,33 c 0.354,0 0.688,-0.188 0.867,-0.503 0.208,-0.362 0.169,-0.816 -0.098,-1.138 z"
     id="path4"
     inkscape:connector-curvature="0"
     style="fill:#31373d" />
  <ellipse
     cx="18"
     cy="14"
     rx="18"
     ry="14"
     id="ellipse6"
     style="fill:#31373d" />
  <circle
     cx="18"
     cy="14"
     r="5"
     id="circle8"
     style="fill:#31373d" />
  <path
     d="m 18,5 c -4.963,0 -9,4.037 -9,9 0,4.963 4.037,9 9,9 4.963,0 9,-4.037 9,-9 0,-4.963 -4.037,-9 -9,-9 z m 0,14 c -2.761,0 -5,-2.239 -5,-5 0,-2.761 2.239,-5 5,-5 2.761,0 5,2.239 5,5 0,2.761 -2.239,5 -5,5 z"
     id="path10"
     inkscape:connector-curvature="0"
     style="fill:#ffffff" />
</svg>
