<?xml version="1.0" encoding="UTF-8" standalone="no"?>
<svg
   xmlns:dc="http://purl.org/dc/elements/1.1/"
   xmlns:cc="http://creativecommons.org/ns#"
   xmlns:rdf="http://www.w3.org/1999/02/22-rdf-syntax-ns#"
   xmlns:svg="http://www.w3.org/2000/svg"
   xmlns="http://www.w3.org/2000/svg"
   xmlns:sodipodi="http://sodipodi.sourceforge.net/DTD/sodipodi-0.dtd"
   xmlns:inkscape="http://www.inkscape.org/namespaces/inkscape"
   viewBox="0 0 27.532541 35.896011"
   id="svg2"
   version="1.1"
   inkscape:version="0.91 r13725"
   sodipodi:docname="1f44c-1f3fc.svg"
   width="27.532541"
   height="35.896011">
  <metadata
     id="metadata12">
    <rdf:RDF>
      <cc:Work
         rdf:about="">
        <dc:format>image/svg+xml</dc:format>
        <dc:type
           rdf:resource="http://purl.org/dc/dcmitype/StillImage" />
      </cc:Work>
    </rdf:RDF>
  </metadata>
  <defs
     id="defs10" />
  <sodipodi:namedview
     pagecolor="#ffffff"
     bordercolor="#666666"
     borderopacity="1"
     objecttolerance="10"
     gridtolerance="10"
     guidetolerance="10"
     inkscape:pageopacity="0"
     inkscape:pageshadow="2"
     inkscape:window-width="640"
     inkscape:window-height="480"
     id="namedview8"
     showgrid="false"
     inkscape:zoom="6.5555556"
     inkscape:cx="13.890797"
     inkscape:cy="17.94833"
     inkscape:window-x="0"
     inkscape:window-y="0"
     inkscape:window-maximized="0"
     inkscape:current-layer="svg2" />
  <path
     d="m 19.106797,20.884683 -1.721,-6.86 -3.947,-8.8159998 c -0.502,-1.297 0.143,-2.756 1.44,-3.257 1.296,-0.506 2.756,0.143 3.258,1.44 l 6.203,15.7689998 -5.233,1.724 z"
     id="path4"
     inkscape:connector-curvature="0"
     style="fill:#d2a077" />
  <path
     d="m 27.455797,18.396683 c -0.488,-2.581 -1.988,-6.523 -1.988,-6.523 l -5.787,-10.4889998 c -0.626,-1.24199999 -2.142,-1.73999999 -3.383,-1.11499999 -1.242,0.626 -1.742,2.14099999 -1.115,3.38299999 l 5.33,9.5469998 c 0.013,0.022 1.413,5.491 1.413,5.491 -1.078,-0.995 -2.607,-2.359 -4.015,-3.618 -3.098,-2.772 -4.936,-3.811 -4.936,-3.811 -0.71,-0.443 -1.179,-0.506 -2.132,-0.059 l -5.8720003,2.568 c -0.157,0.078 -0.29,0.188 -0.395,0.329 l -2.313,3.086 c -0.893,1.067 -0.752,2.655 0.315,3.547 1.066,0.893 2.653,0.75 3.548,-0.314 0.048,-0.058 1.78,-2.56 1.936,-2.64 1.037,-0.533 2.9650003,-1.447 3.8080003,-1.42 0.897,0.029 6.281,5.957 6.281,5.957 0.206,0.259 0.23,0.618 0.06,0.902 l -2.915,5.228 c -0.079,0.131 -0.193,0.236 -0.33,0.303 l -2.674,1.5 c -0.154,0.075 -0.328,0.099 -0.496,0.067 l -5.2700003,-2.272 c -0.262,-0.113 -0.48,-0.32 -0.592,-0.583 -0.787,-1.85 -0.898,-3.619 -0.899,-3.639 -0.065,-1.39 -1.244,-2.463 -2.634,-2.398 -1.387,0.056 -2.46300005,1.243 -2.39800005,2.633 0.013,0.263 0.351,5.64 4.72700005,9.292 2.528,2.108 5.6540003,2.924 9.6490003,2.387 4.612,-0.619 7.469,-1.233 11.506,-9.558 1.117,-2.305 1.903,-6.024 1.571,-7.781 z"
     id="path6"
     inkscape:connector-curvature="0"
     style="fill:#f3d2a2" />
</svg>
