<?xml version="1.0" encoding="UTF-8" standalone="no"?>
<svg
   xmlns:dc="http://purl.org/dc/elements/1.1/"
   xmlns:cc="http://creativecommons.org/ns#"
   xmlns:rdf="http://www.w3.org/1999/02/22-rdf-syntax-ns#"
   xmlns:svg="http://www.w3.org/2000/svg"
   xmlns="http://www.w3.org/2000/svg"
   xmlns:sodipodi="http://sodipodi.sourceforge.net/DTD/sodipodi-0.dtd"
   xmlns:inkscape="http://www.inkscape.org/namespaces/inkscape"
   viewBox="0 0 34 36"
   id="svg2"
   version="1.1"
   inkscape:version="0.91 r13725"
   sodipodi:docname="1f458.svg"
   width="34"
   height="36">
  <metadata
     id="metadata22">
    <rdf:RDF>
      <cc:Work
         rdf:about="">
        <dc:format>image/svg+xml</dc:format>
        <dc:type
           rdf:resource="http://purl.org/dc/dcmitype/StillImage" />
      </cc:Work>
    </rdf:RDF>
  </metadata>
  <defs
     id="defs20" />
  <sodipodi:namedview
     pagecolor="#ffffff"
     bordercolor="#666666"
     borderopacity="1"
     objecttolerance="10"
     gridtolerance="10"
     guidetolerance="10"
     inkscape:pageopacity="0"
     inkscape:pageshadow="2"
     inkscape:window-width="640"
     inkscape:window-height="480"
     id="namedview18"
     showgrid="false"
     inkscape:zoom="6.5555556"
     inkscape:cx="17"
     inkscape:cy="18"
     inkscape:window-x="0"
     inkscape:window-y="0"
     inkscape:window-maximized="0"
     inkscape:current-layer="svg2" />
  <path
     d="m 21,0 3,0 5,2.808 5,23.307 L 25,27 19,10.577 M 13,0 10,0 5,2.808 0,26.115 9,27 15,10.577"
     id="path4"
     inkscape:connector-curvature="0"
     style="fill:#3b88c3" />
  <path
     d="m 10,5 14,0 0,31 -14,0 z"
     id="path6"
     inkscape:connector-curvature="0"
     style="fill:#3b88c3" />
  <path
     d="M 16.985,8.761 10,14 l 2,0 5.094,-5.094 z"
     id="path8"
     inkscape:connector-curvature="0"
     style="fill:#226699" />
  <path
     d="m 24,20 c 0,0 -1.167,1 -7,1 -5.833,0 -7,-1 -7,-1 l 0,-6 14,0 0,6 z"
     id="path10"
     inkscape:connector-curvature="0"
     style="fill:#88c9f9" />
  <path
     d="m 24,18 c 0,0 -1.167,1 -7,1 -5.833,0 -7,-1 -7,-1 l 0,-2 14,0 0,2 z M 24,0 17,9 10,0 Z"
     id="path12"
     inkscape:connector-curvature="0"
     style="fill:#ffffff" />
  <path
     d="M 19.333,0 17,3 14.667,0 Z"
     id="path14"
     inkscape:connector-curvature="0"
     style="fill:#99aab5" />
  <path
     d="M 24,25 24,4 26,27 Z M 10,25 10,4 8,27 Z"
     id="path16"
     inkscape:connector-curvature="0"
     style="fill:#226699" />
</svg>
