<?xml version="1.0" encoding="UTF-8" standalone="no"?>
<svg
   xmlns:dc="http://purl.org/dc/elements/1.1/"
   xmlns:cc="http://creativecommons.org/ns#"
   xmlns:rdf="http://www.w3.org/1999/02/22-rdf-syntax-ns#"
   xmlns:svg="http://www.w3.org/2000/svg"
   xmlns="http://www.w3.org/2000/svg"
   xmlns:sodipodi="http://sodipodi.sourceforge.net/DTD/sodipodi-0.dtd"
   xmlns:inkscape="http://www.inkscape.org/namespaces/inkscape"
   viewBox="0 0 36.000137 21.548691"
   id="svg2"
   version="1.1"
   inkscape:version="0.91 r13725"
   sodipodi:docname="1f450-1f3ff.svg"
   width="36.000137"
   height="21.548691">
  <metadata
     id="metadata14">
    <rdf:RDF>
      <cc:Work
         rdf:about="">
        <dc:format>image/svg+xml</dc:format>
        <dc:type
           rdf:resource="http://purl.org/dc/dcmitype/StillImage" />
      </cc:Work>
    </rdf:RDF>
  </metadata>
  <defs
     id="defs12" />
  <sodipodi:namedview
     pagecolor="#ffffff"
     bordercolor="#666666"
     borderopacity="1"
     objecttolerance="10"
     gridtolerance="10"
     guidetolerance="10"
     inkscape:pageopacity="0"
     inkscape:pageshadow="2"
     inkscape:window-width="640"
     inkscape:window-height="480"
     id="namedview10"
     showgrid="false"
     inkscape:zoom="6.5555556"
     inkscape:cx="17.999849"
     inkscape:cy="10.774894"
     inkscape:window-x="0"
     inkscape:window-y="0"
     inkscape:window-maximized="0"
     inkscape:current-layer="svg2" />
  <path
     d="m 13.374849,9.3127974 0.009,0.061 -3.7820003,-8.114 c -0.286,-0.61100005 -1.148,-0.81400005 -1.925,-0.45100005 l -0.061,0.028 c -0.68,0.31700005 -1.071,0.96300005 -0.964,1.53000005 0,0 -1.275,-1.147 -2.024,-0.797 l -0.06,0.027 c -0.749,0.35 -1.123,1.136 -0.833,1.757 l 0.533,1.192 c -0.301,-0.644 -1.19,-0.866 -1.985,-0.494 l -0.062,0.029 c -0.795,0.371 -1.197,1.194 -0.896,1.838 l 5.131,13.1499996 6.7940003,0.212 2.031,-6.25 -1.906,-3.7179996 z m 20.478,-5.231 -0.062,-0.029 c -0.796,-0.372 -1.685,-0.15 -1.985,0.494 l 0.533,-1.192 c 0.29,-0.621 -0.084,-1.408 -0.832,-1.757 l -0.06,-0.027 c -0.749,-0.35 -1.591,-0.129 -1.882,0.492 l -0.143,0.306 c 0.107,-0.567 -0.283,-1.213 -0.964,-1.53000005 l -0.062,-0.028 c -0.777,-0.363 -1.639,-0.16 -1.924,0.45200005 l -3.771,8.088 -0.033,-0.114 -1.578,3.4999996 0.03,0.004 1.626,6.543 6.723,-1.601 5.28,-11.7599996 c 0.301,-0.647 -0.102,-1.47 -0.896,-1.841 z"
     id="path4"
     inkscape:connector-curvature="0"
     style="fill:#583529" />
  <path
     d="m 35.808849,8.4457974 c 0,0 0.653,-1.043 -0.454,-1.558 -1.106,-0.515 -1.482,0.657 -1.482,0.657 l -2.39,5.1419996 c -0.141,-0.164 -0.705,-0.516 -0.866,-0.671 l 3.315,-7.1359996 c 0,0 0.653,-1.043 -0.455,-1.558 -1.107,-0.514 -1.483,0.657 -1.483,0.657 l -3.118,6.7109996 c -0.175,-0.099 -0.63,-0.327 -0.812,-0.423 l 3.616,-7.7809996 c 0,0 0.652,-1.043 -0.455,-1.55800005 -1.106,-0.515 -1.482,0.65700005 -1.482,0.65700005 l -3.618,7.78 c -0.193,-0.078 -0.797,-0.335 -0.988,-0.404 l 3.38,-7.272 c 0,0 0.651,-1.04300005 -0.455,-1.55800005 -1.108,-0.515 -1.483,0.657 -1.483,0.657 l -3.574,7.68900005 -0.286,0.617 -0.128,0.276 c 3.323,1.5439996 4.486,5.6159996 3.2,8.3839996 -0.258,0.554 -1.177,0.3 -1.177,0.3 1.544,-3.321 0.358,-6.566 -2.964,-8.1089996 l 0.144,-4.545 c 0,0 0.134,-1.213 -1.079,-1.348 -1.215,-0.134 -1.349,1.08 -1.349,1.08 l -0.509,3.183 c -0.203,1.262 -0.431,2.5249996 -0.81,3.7459996 -1.066,3.447 0.551,7.238 3.915,8.803 3.669,1.705 8.027,0.112 9.732,-3.556 l 0.257,-0.556 3.858,-8.3059996 z"
     id="path6"
     inkscape:connector-curvature="0"
     style="fill:#7c533e" />
  <path
     d="m 0.19184875,8.4457974 c 0,0 -0.654,-1.043 0.453,-1.558 1.10699995,-0.515 1.48199995,0.657 1.48199995,0.657 l 2.39,5.1419996 c 0.141,-0.164 0.705,-0.516 0.866,-0.671 l -3.315,-7.1359996 c 0,0 -0.654,-1.043 0.455,-1.558 1.105,-0.514 1.482,0.657 1.482,0.657 l 3.119,6.7109996 c 0.175,-0.099 0.63,-0.327 0.812,-0.423 l -3.615,-7.7799996 c 0,0 -0.653,-1.043 0.455,-1.55800005 1.107,-0.515 1.483,0.65700005 1.483,0.65700005 l 3.618,7.78 c 0.1930003,-0.078 0.7970003,-0.335 0.9880003,-0.404 l -3.3800003,-7.272 c 0,0 -0.651,-1.04300005 0.455,-1.55800005 1.107,-0.515 1.483,0.657 1.483,0.657 l 3.5740003,7.68900005 0.286,0.617 0.128,0.276 c -3.323,1.5439996 -4.4860003,5.6159996 -3.2,8.3839996 0.258,0.554 1.177,0.3 1.177,0.3 -1.5440003,-3.321 -0.358,-6.566 2.963,-8.1089996 l -0.143,-4.545 c 0,0 -0.134,-1.213 1.078,-1.348 1.215,-0.134 1.35,1.08 1.35,1.08 l 0.508,3.183 c 0.203,1.262 0.432,2.5249996 0.811,3.7459996 1.067,3.447 -0.552,7.238 -3.916,8.803 -3.669,1.705 -8.0270003,0.112 -9.7320003,-3.556 l -0.256,-0.556 -3.85899995,-8.3069996 z"
     id="path8"
     inkscape:connector-curvature="0"
     style="fill:#7c533e" />
</svg>
