<?xml version="1.0" encoding="UTF-8" standalone="no"?>
<svg
   xmlns:dc="http://purl.org/dc/elements/1.1/"
   xmlns:cc="http://creativecommons.org/ns#"
   xmlns:rdf="http://www.w3.org/1999/02/22-rdf-syntax-ns#"
   xmlns:svg="http://www.w3.org/2000/svg"
   xmlns="http://www.w3.org/2000/svg"
   xmlns:sodipodi="http://sodipodi.sourceforge.net/DTD/sodipodi-0.dtd"
   xmlns:inkscape="http://www.inkscape.org/namespaces/inkscape"
   viewBox="0 0 35.75375 13.304533"
   id="svg2"
   version="1.1"
   inkscape:version="0.91 r13725"
   sodipodi:docname="1f453.svg"
   width="35.75375"
   height="13.304533">
  <metadata
     id="metadata12">
    <rdf:RDF>
      <cc:Work
         rdf:about="">
        <dc:format>image/svg+xml</dc:format>
        <dc:type
           rdf:resource="http://purl.org/dc/dcmitype/StillImage" />
      </cc:Work>
    </rdf:RDF>
  </metadata>
  <defs
     id="defs10" />
  <sodipodi:namedview
     pagecolor="#ffffff"
     bordercolor="#666666"
     borderopacity="1"
     objecttolerance="10"
     gridtolerance="10"
     guidetolerance="10"
     inkscape:pageopacity="0"
     inkscape:pageshadow="2"
     inkscape:window-width="640"
     inkscape:window-height="480"
     id="namedview8"
     showgrid="false"
     inkscape:zoom="6.5555556"
     inkscape:cx="17.879"
     inkscape:cy="6.5238888"
     inkscape:window-x="0"
     inkscape:window-y="0"
     inkscape:window-maximized="0"
     inkscape:current-layer="svg2" />
  <path
     d="m 35.565,0.71164428 c -0.507,-0.522 -6.83,-1.094 -13.263,-0.369 -1.283,0.144 -1.363,0.51 -4.425,0.63 -3.061,-0.119 -3.141,-0.485 -4.425,-0.63 -6.433,-0.725 -12.756,-0.152 -13.263,0.369 -0.252,0.261 -0.252,2.07700002 0,2.33800002 0.254,0.261 1.035,0.606 1.403,1.827 0.237,0.787 0.495,5.8639997 2.281,7.3769997 1.768,1.498 7.462,1.217 9.326,0.262 2.536,-1.298 2.892,-5.7849997 3.292,-7.6389997 0.203,-0.939 1.162,-1.016 1.385,-1.016 0.223,0 1.182,0.077 1.385,1.016 0.401,1.853 0.757,6.3399997 3.292,7.6389997 1.865,0.955 7.558,1.236 9.326,-0.262 1.786,-1.513 2.044,-6.5899997 2.281,-7.3769997 0.368,-1.22 1.149,-1.566 1.403,-1.827 0.254,-0.26 0.254,-2.07700002 0.002,-2.33800002 z"
     id="path4"
     inkscape:connector-curvature="0"
     style="fill:#31373d" />
  <path
     d="m 14.523,4.4796443 c -0.098,1.255 -0.521,4.966 -1.757,6.0829997 -1.376,1.243 -6.25,1.568 -7.79,0.044 C 4.168,9.8076443 3.409,6.5886443 3.473,3.7906443 c 0.038,-1.679 2.274,-2.02 5.462,-2.02 3.148,0 5.763,0.468 5.588,2.709 z m 6.707,0 c 0.098,1.255 0.521,4.966 1.757,6.0829997 1.376,1.243 6.25,1.568 7.79,0.044 0.808,-0.7989997 1.567,-4.0179997 1.503,-6.8159997 -0.038,-1.679 -2.274,-2.02 -5.462,-2.02 -3.147,0 -5.763,0.468 -5.588,2.709 z"
     id="path6"
     inkscape:connector-curvature="0"
     style="fill:#55acee" />
</svg>
