<?xml version="1.0" encoding="UTF-8" standalone="no"?>
<svg
   xmlns:dc="http://purl.org/dc/elements/1.1/"
   xmlns:cc="http://creativecommons.org/ns#"
   xmlns:rdf="http://www.w3.org/1999/02/22-rdf-syntax-ns#"
   xmlns:svg="http://www.w3.org/2000/svg"
   xmlns="http://www.w3.org/2000/svg"
   xmlns:sodipodi="http://sodipodi.sourceforge.net/DTD/sodipodi-0.dtd"
   xmlns:inkscape="http://www.inkscape.org/namespaces/inkscape"
   viewBox="0 0 36 32.042"
   id="svg2"
   version="1.1"
   inkscape:version="0.91 r13725"
   sodipodi:docname="1f468-200d-2764-fe0f-200d-1f48b-200d-1f468.svg"
   width="36"
   height="32.042">
  <metadata
     id="metadata22">
    <rdf:RDF>
      <cc:Work
         rdf:about="">
        <dc:format>image/svg+xml</dc:format>
        <dc:type
           rdf:resource="http://purl.org/dc/dcmitype/StillImage" />
      </cc:Work>
    </rdf:RDF>
  </metadata>
  <defs
     id="defs20" />
  <sodipodi:namedview
     pagecolor="#ffffff"
     bordercolor="#666666"
     borderopacity="1"
     objecttolerance="10"
     gridtolerance="10"
     guidetolerance="10"
     inkscape:pageopacity="0"
     inkscape:pageshadow="2"
     inkscape:window-width="640"
     inkscape:window-height="480"
     id="namedview18"
     showgrid="false"
     inkscape:zoom="6.5555556"
     inkscape:cx="18"
     inkscape:cy="14.042"
     inkscape:window-x="0"
     inkscape:window-y="0"
     inkscape:window-maximized="0"
     inkscape:current-layer="svg2" />
  <path
     d="m 31,8.042 c -6.626,0 -12,5.373 -12,12 0,6.626 5.374,12 12,12 1.787,0 3.476,-0.401 5,-1.102 L 36,9.143 C 34.476,8.443 32.787,8.042 31,8.042 Z"
     id="path4"
     inkscape:connector-curvature="0"
     style="fill:#ffdc5d" />
  <path
     d="m 20.667,15.042 c 0.055,0.06 0.128,0.115 0.197,0.171 0.72,0.716 1.753,1.477 3.219,2.036 3.691,1.407 9.121,0.297 9.121,0.297 0,0 -0.748,-1.198 -2.101,-2.492 1.809,0.549 3.463,1.358 4.897,2.371 l 0,-9.25 C 34.19,7.271 32.157,6.749 30,6.746 c -6.508,-0.008 -9.915,3.393 -10.059,6.135 -0.176,0.085 -0.352,0.168 -0.531,0.265 0,0 0.237,0.641 0.902,1.459 0.077,0.094 0.161,0.191 0.249,0.29 0.038,0.048 0.064,0.101 0.106,0.147 z"
     id="path6"
     inkscape:connector-curvature="0"
     style="fill:#ffac33" />
  <path
     d="m 26,21.542 c -1.411,0 -1.497,-1.251 -1.5,-1.503 -0.001,-0.274 -0.225,-0.497 -0.5,-0.497 -0.276,0 -0.5,0.224 -0.5,0.5 0,0.864 0.523,2.5 2.5,2.5 0.276,0 0.5,-0.224 0.5,-0.5 0,-0.277 -0.224,-0.5 -0.5,-0.5 z m 5,0 c -1.411,0 -1.497,-1.251 -1.5,-1.503 -0.001,-0.274 -0.225,-0.497 -0.5,-0.497 -0.276,0 -0.5,0.224 -0.5,0.5 0,0.864 0.523,2.5 2.5,2.5 0.276,0 0.5,-0.224 0.5,-0.5 0,-0.277 -0.224,-0.5 -0.5,-0.5 z m -4.995,4 c 0.273,-0.003 0.495,-0.226 0.495,-0.5 0,-0.276 -0.224,-0.5 -0.5,-0.5 -0.602,0 -1.5,0.399 -1.5,1.5 0,0.438 0.143,0.765 0.352,1 -0.209,0.235 -0.352,0.562 -0.352,1 0,1.101 0.898,1.5 1.5,1.5 0.273,0 0.493,-0.22 0.496,-0.494 0.004,-0.273 -0.217,-0.499 -0.49,-0.506 -0.231,-0.006 -0.506,-0.098 -0.506,-0.5 0,-0.402 0.275,-0.494 0.5,-0.5 l 0.011,0 c 0.272,-0.006 0.489,-0.228 0.489,-0.5 0,-0.274 -0.222,-0.497 -0.495,-0.5 -0.23,-0.006 -0.505,-0.098 -0.505,-0.5 0,-0.403 0.274,-0.494 0.505,-0.5 z"
     id="path8"
     inkscape:connector-curvature="0"
     style="fill:#642116" />
  <path
     d="m 5,8.042 c 6.626,0 12,5.373 12,12 0,6.626 -5.374,12 -12,12 -1.787,0 -3.476,-0.401 -5,-1.102 L 0,9.143 C 1.524,8.443 3.213,8.042 5,8.042 Z"
     id="path10"
     inkscape:connector-curvature="0"
     style="fill:#ffdc5d" />
  <path
     d="m 15.333,15.042 c -0.055,0.06 -0.128,0.115 -0.197,0.171 -0.72,0.716 -1.753,1.477 -3.219,2.036 -3.691,1.407 -9.121,0.297 -9.121,0.297 0,0 0.748,-1.198 2.101,-2.492 C 3.088,15.603 1.434,16.413 0,17.425 L 0,8.175 C 1.81,7.272 3.843,6.75 6,6.747 c 6.508,-0.008 9.915,3.393 10.059,6.135 0.176,0.085 0.352,0.168 0.531,0.265 0,0 -0.237,0.641 -0.902,1.459 -0.077,0.094 -0.161,0.191 -0.249,0.29 -0.038,0.047 -0.064,0.1 -0.106,0.146 z"
     id="path12"
     inkscape:connector-curvature="0"
     style="fill:#ffac33" />
  <path
     d="m 10,21.542 c 1.411,0 1.497,-1.251 1.5,-1.503 10e-4,-0.274 0.225,-0.497 0.5,-0.497 0.276,0 0.5,0.224 0.5,0.5 0,0.864 -0.523,2.5 -2.5,2.5 -0.276,0 -0.5,-0.224 -0.5,-0.5 0,-0.277 0.224,-0.5 0.5,-0.5 z m -5,0 c 1.411,0 1.497,-1.251 1.5,-1.503 0.001,-0.274 0.225,-0.497 0.5,-0.497 0.276,0 0.5,0.224 0.5,0.5 0,0.864 -0.523,2.5 -2.5,2.5 -0.276,0 -0.5,-0.224 -0.5,-0.5 0,-0.277 0.224,-0.5 0.5,-0.5 z m 4.995,4 C 9.722,25.539 9.5,25.316 9.5,25.042 c 0,-0.276 0.224,-0.5 0.5,-0.5 0.602,0 1.5,0.399 1.5,1.5 0,0.438 -0.143,0.765 -0.352,1 0.209,0.235 0.352,0.562 0.352,1 0,1.101 -0.898,1.5 -1.5,1.5 -0.273,0 -0.493,-0.22 -0.496,-0.494 -0.004,-0.273 0.217,-0.499 0.49,-0.506 0.231,-0.006 0.506,-0.098 0.506,-0.5 0,-0.402 -0.275,-0.494 -0.5,-0.5 l -0.011,0 C 9.717,27.536 9.5,27.314 9.5,27.042 c 0,-0.274 0.222,-0.497 0.495,-0.5 0.23,-0.006 0.505,-0.098 0.505,-0.5 0,-0.403 -0.274,-0.494 -0.505,-0.5 z"
     id="path14"
     inkscape:connector-curvature="0"
     style="fill:#642116" />
  <path
     d="M 26.539,4.711 C 26.539,2.109 24.429,0 21.828,0 20.249,0 18.855,0.78 18,1.972 17.144,0.78 15.751,0 14.172,0 11.571,0 9.461,2.109 9.461,4.711 c 0,0.369 0.047,0.727 0.127,1.07 0.654,4.065 5.173,8.353 8.411,9.529 3.238,-1.177 7.758,-5.465 8.412,-9.528 0.081,-0.344 0.128,-0.702 0.128,-1.071 z"
     id="path16"
     inkscape:connector-curvature="0"
     style="fill:#dd2e44" />
</svg>
