<?xml version="1.0" encoding="UTF-8" standalone="no"?>
<svg
   xmlns:dc="http://purl.org/dc/elements/1.1/"
   xmlns:cc="http://creativecommons.org/ns#"
   xmlns:rdf="http://www.w3.org/1999/02/22-rdf-syntax-ns#"
   xmlns:svg="http://www.w3.org/2000/svg"
   xmlns="http://www.w3.org/2000/svg"
   xmlns:sodipodi="http://sodipodi.sourceforge.net/DTD/sodipodi-0.dtd"
   xmlns:inkscape="http://www.inkscape.org/namespaces/inkscape"
   viewBox="0 0 35.709 35.661999"
   id="svg2"
   version="1.1"
   inkscape:version="0.91 r13725"
   sodipodi:docname="1f468-1f3fd-200d-1f680.svg"
   width="35.709"
   height="35.661999">
  <metadata
     id="metadata48">
    <rdf:RDF>
      <cc:Work
         rdf:about="">
        <dc:format>image/svg+xml</dc:format>
        <dc:type
           rdf:resource="http://purl.org/dc/dcmitype/StillImage" />
      </cc:Work>
    </rdf:RDF>
  </metadata>
  <defs
     id="defs46" />
  <sodipodi:namedview
     pagecolor="#ffffff"
     bordercolor="#666666"
     borderopacity="1"
     objecttolerance="10"
     gridtolerance="10"
     guidetolerance="10"
     inkscape:pageopacity="0"
     inkscape:pageshadow="2"
     inkscape:window-width="640"
     inkscape:window-height="480"
     id="namedview44"
     showgrid="false"
     inkscape:zoom="6.5555556"
     inkscape:cx="17.709"
     inkscape:cy="18"
     inkscape:window-x="0"
     inkscape:window-y="0"
     inkscape:window-maximized="0"
     inkscape:current-layer="svg2" />
  <path
     d="m 35.709,35.662 0,-2 c 0,-3.314 -2.686,-6 -6,-6 l -16,0 c -3.313,0 -6,2.686 -6,6 l 0,2 28,0 z"
     id="path4"
     inkscape:connector-curvature="0"
     style="fill:#e1e8ed" />
  <path
     d="m 29.508,27.789 c 0,1.36 -3.491,2.434 -7.799,2.434 -4.308,0 -7.798,-1.06 -7.798,-2.42 0,-0.062 0.015,-0.141 0.029,-0.141 l -0.734,0 -0.705,0.099 0.005,1.019 c 0.114,2.405 4.186,3.392 9.204,3.392 4.997,0 9.054,-1.009 9.199,-3.413 l 0.015,-0.974 c -0.001,-0.001 -1.416,-0.058 -1.416,0.004 z"
     id="path6"
     inkscape:connector-curvature="0"
     style="fill:#ea596e" />
  <path
     d="m 21.709,24.294 c -5.089,0 -9.214,1.539 -9.214,3.438 0,1.899 4.125,3.439 9.214,3.439 5.089,0 9.214,-1.54 9.214,-3.439 0,-1.899 -4.125,-3.438 -9.214,-3.438"
     id="path8"
     inkscape:connector-curvature="0"
     style="fill:#be1931" />
  <path
     d="m 21.709,30.195 c -4.307,0 -7.799,-1.104 -7.799,-2.464 0,-1.359 3.492,-2.463 7.799,-2.463 4.307,0 7.799,1.104 7.799,2.463 0,1.361 -3.492,2.464 -7.799,2.464"
     id="path10"
     inkscape:connector-curvature="0"
     style="fill:#292f33" />
  <path
     d="m 17.349,27.6 c 1.744,1.267 2.848,1.511 4.36,1.511 1.512,0 2.615,-0.245 4.359,-1.511 l 0,-3.812 -8.72,0 0,3.812 z"
     id="path12"
     inkscape:connector-curvature="0"
     style="fill:#d5ab88" />
  <path
     d="m 17.341,25.635 c 1.216,1.374 2.724,1.746 4.364,1.746 1.639,0 3.146,-0.373 4.363,-1.746 l 0,-3.491 -8.728,0 0,3.491 z"
     id="path14"
     inkscape:connector-curvature="0"
     style="fill:#cc9b7a" />
  <path
     d="m 15.153,15.598 c 0,1.448 -0.734,2.622 -1.639,2.622 -0.905,0 -1.639,-1.174 -1.639,-2.622 0,-1.448 0.734,-2.623 1.639,-2.623 0.905,-10e-4 1.639,1.174 1.639,2.623 m 16.389,0 c 0,1.448 -0.733,2.622 -1.639,2.622 -0.905,0 -1.639,-1.174 -1.639,-2.622 0,-1.448 0.733,-2.623 1.639,-2.623 0.906,-10e-4 1.639,1.174 1.639,2.623"
     id="path16"
     inkscape:connector-curvature="0"
     style="fill:#d5ab88" />
  <path
     d="m 13.186,16.621 c 0,-5.589 3.816,-10.121 8.523,-10.121 4.707,0 8.522,4.532 8.522,10.121 0,5.589 -3.815,10.121 -8.522,10.121 -4.706,0 -8.523,-4.531 -8.523,-10.121"
     id="path18"
     inkscape:connector-curvature="0"
     style="fill:#d5ab88" />
  <path
     d="m 21.709,23.464 c -2.754,0 -3.6,-0.705 -3.741,-0.848 -0.256,-0.256 -0.256,-0.671 0,-0.927 0.248,-0.248 0.646,-0.255 0.902,-0.023 0.052,0.037 0.721,0.487 2.839,0.487 2.2,0 2.836,-0.485 2.842,-0.49 0.256,-0.255 0.657,-0.243 0.913,0.015 0.256,0.256 0.242,0.683 -0.014,0.938 -0.141,0.143 -0.987,0.848 -3.741,0.848"
     id="path20"
     inkscape:connector-curvature="0"
     style="fill:#c1694f" />
  <path
     d="m 21.709,3.142 c 5.648,0 9.178,4.168 9.178,7.641 0,3.473 -0.706,4.863 -1.412,3.473 l -1.412,-2.778 c 0,0 -4.235,0 -5.647,-1.39 0,0 2.118,4.168 -2.118,0 0,0 0.706,2.779 -3.53,-0.694 0,0 -2.118,1.389 -2.824,4.862 -0.196,0.964 -1.412,0 -1.412,-3.473 -10e-4,-3.473 2.823,-7.641 9.177,-7.641"
     id="path22"
     inkscape:connector-curvature="0"
     style="fill:#963b22" />
  <path
     d="m 17.709,16.662 c -0.55,0 -1,-0.45 -1,-1 l 0,-1 c 0,-0.55 0.45,-1 1,-1 0.55,0 1,0.45 1,1 l 0,1 c 0,0.55 -0.45,1 -1,1 m 8,0 c -0.55,0 -1,-0.45 -1,-1 l 0,-1 c 0,-0.55 0.45,-1 1,-1 0.55,0 1,0.45 1,1 l 0,1 c 0,0.55 -0.45,1 -1,1"
     id="path24"
     inkscape:connector-curvature="0"
     style="fill:#662113" />
  <path
     d="m 22.459,19.412 -1.5,0 c -0.413,0 -0.75,-0.337 -0.75,-0.75 0,-0.413 0.337,-0.75 0.75,-0.75 l 1.5,0 c 0.413,0 0.75,0.337 0.75,0.75 0,0.413 -0.337,0.75 -0.75,0.75"
     id="path26"
     inkscape:connector-curvature="0"
     style="fill:#c1694f" />
  <path
     d="m 32.709,32.662 0,3 3,0 0,-2 c 0,-0.341 -0.035,-0.674 -0.09,-1 l -2.91,0 z"
     id="path28"
     inkscape:connector-curvature="0"
     style="fill:#55acee" />
  <path
     d="m 33.709,33.662 2,0 0,2 -2,0 z"
     id="path30"
     inkscape:connector-curvature="0"
     style="fill:#ffcc4d" />
  <path
     d="m 23.713,35.662 c -1.198,-5.146 -6.048,-9 -11.857,-9 -5.809,0 -10.658,3.854 -11.856,9 l 23.713,0 z"
     id="path32"
     inkscape:connector-curvature="0"
     style="fill:#e1e8ed" />
  <path
     d="m 22.378,35.662 c -1.173,-4.464 -5.432,-7.778 -10.522,-7.778 -5.089,0 -9.349,3.314 -10.522,7.778 l 21.044,0 z"
     id="path34"
     inkscape:connector-curvature="0"
     style="fill:#292f33" />
  <path
     d="m 21.347,35.662 c -1.148,-3.937 -4.956,-6.833 -9.49,-6.833 -4.534,0 -8.343,2.896 -9.491,6.833 l 18.981,0 z"
     id="path36"
     inkscape:connector-curvature="0"
     style="fill:#ffac33" />
  <path
     d="m 17.904,34.711 0.103,-0.063 c 0.767,-0.467 0.928,-1.538 0.3,-2.182 -0.467,-0.48 -0.993,-0.909 -1.566,-1.268 -0.56,-0.35 -1.158,-0.621 -1.784,-0.827 -0.828,-0.272 -1.711,0.232 -1.866,1.092 -0.119,0.66 0.225,1.346 0.855,1.577 0.865,0.318 1.627,0.827 2.232,1.474 0.442,0.472 1.173,0.533 1.726,0.197"
     id="path38"
     inkscape:connector-curvature="0"
     style="fill:#ffdc5d" />
  <path
     d="m 6.053,13.924 -1.542,-0.571 -0.6,-2.2 c -0.079,-0.29 -0.343,-0.491 -0.644,-0.491 -0.3,0 -0.564,0.201 -0.643,0.491 l -0.6,2.2 -1.542,0.571 C 0.22,14.02 0.047,14.27 0.047,14.549 c 0,0.279 0.173,0.529 0.435,0.625 l 1.534,0.568 0.605,2.414 c 0.074,0.297 0.341,0.506 0.646,0.506 0.306,0 0.573,-0.209 0.647,-0.505 l 0.605,-2.414 1.534,-0.568 c 0.262,-0.096 0.435,-0.346 0.435,-0.625 0,-0.28 -0.173,-0.53 -0.435,-0.626"
     id="path40"
     inkscape:connector-curvature="0"
     style="fill:#9266cc" />
  <path
     d="M 10.989,4.296 8.379,3.33 7.413,0.72 C 7.253,0.287 6.84,0 6.378,0 5.917,0 5.504,0.287 5.343,0.72 L 4.377,3.33 1.768,4.296 C 1.334,4.457 1.046,4.869 1.046,5.331 c 0,0.462 0.287,0.874 0.721,1.035 l 2.609,0.966 0.966,2.61 c 0.161,0.433 0.575,0.72 1.035,0.72 0.462,0 0.875,-0.287 1.035,-0.72 l 0.966,-2.61 2.61,-0.966 c 0.433,-0.161 0.721,-0.573 0.721,-1.035 0,-0.462 -0.288,-0.874 -0.72,-1.035"
     id="path42"
     inkscape:connector-curvature="0"
     style="fill:#5dadec" />
</svg>
