<?xml version="1.0" encoding="UTF-8" standalone="no"?>
<svg
   xmlns:dc="http://purl.org/dc/elements/1.1/"
   xmlns:cc="http://creativecommons.org/ns#"
   xmlns:rdf="http://www.w3.org/1999/02/22-rdf-syntax-ns#"
   xmlns:svg="http://www.w3.org/2000/svg"
   xmlns="http://www.w3.org/2000/svg"
   xmlns:sodipodi="http://sodipodi.sourceforge.net/DTD/sodipodi-0.dtd"
   xmlns:inkscape="http://www.inkscape.org/namespaces/inkscape"
   viewBox="0 0 28 36.000999"
   id="svg2"
   version="1.1"
   inkscape:version="0.91 r13725"
   sodipodi:docname="1f468-1f3fc-200d-2708-fe0f.svg"
   width="28"
   height="36.000999">
  <metadata
     id="metadata52">
    <rdf:RDF>
      <cc:Work
         rdf:about="">
        <dc:format>image/svg+xml</dc:format>
        <dc:type
           rdf:resource="http://purl.org/dc/dcmitype/StillImage" />
      </cc:Work>
    </rdf:RDF>
  </metadata>
  <defs
     id="defs50" />
  <sodipodi:namedview
     pagecolor="#ffffff"
     bordercolor="#666666"
     borderopacity="1"
     objecttolerance="10"
     gridtolerance="10"
     guidetolerance="10"
     inkscape:pageopacity="0"
     inkscape:pageshadow="2"
     inkscape:window-width="640"
     inkscape:window-height="480"
     id="namedview48"
     showgrid="false"
     inkscape:zoom="6.5555556"
     inkscape:cx="14"
     inkscape:cy="18.001"
     inkscape:window-x="0"
     inkscape:window-y="0"
     inkscape:window-maximized="0"
     inkscape:current-layer="svg2" />
  <path
     d="m 28,36 0,-2 c 0,-3.314 -2.685,-6 -6,-6 L 6,28 c -3.313,0 -6,2.686 -6,6 l 0,2 28,0 z"
     id="path4"
     inkscape:connector-curvature="0"
     style="fill:#e1e8ed" />
  <path
     d="M 26,7.5 C 26,11.642 20.628,15 14,15 7.373,15 2,11.642 2,7.5 2,3.358 7.373,0 14,0 20.628,0 26,3.358 26,7.5"
     id="path6"
     inkscape:connector-curvature="0"
     style="fill:#292f33" />
  <path
     d="m 9.64,28.101 c 1.744,1.268 2.848,1.963 4.36,1.963 1.512,0 2.616,-0.696 4.36,-1.963 l 0,-3.811 -8.72,0 0,3.811 z"
     id="path8"
     inkscape:connector-curvature="0"
     style="fill:#f3d2a2" />
  <path
     d="m 9.632,25.973 c 1.216,1.374 2.724,1.746 4.364,1.746 1.639,0 3.147,-0.373 4.364,-1.746 l 0,-3.491 -8.728,0 0,3.491 z"
     id="path10"
     inkscape:connector-curvature="0"
     style="fill:#e2c196" />
  <path
     d="m 7.444,15.936 c 0,1.448 -0.734,2.622 -1.639,2.622 -0.905,0 -1.639,-1.174 -1.639,-2.622 0,-1.448 0.734,-2.623 1.639,-2.623 0.905,-0.001 1.639,1.174 1.639,2.623 m 16.389,0 c 0,1.448 -0.733,2.622 -1.639,2.622 -0.905,0 -1.639,-1.174 -1.639,-2.622 0,-1.448 0.733,-2.623 1.639,-2.623 0.906,-0.001 1.639,1.174 1.639,2.623"
     id="path12"
     inkscape:connector-curvature="0"
     style="fill:#f3d2a2" />
  <path
     d="m 5.477,16.959 c 0,-5.589 3.816,-10.121 8.522,-10.121 4.708,0 8.523,4.532 8.523,10.121 0,5.589 -3.815,10.121 -8.523,10.121 -4.706,0 -8.522,-4.531 -8.522,-10.121"
     id="path14"
     inkscape:connector-curvature="0"
     style="fill:#f3d2a2" />
  <path
     d="m 14,23.802 c -2.754,0 -3.6,-0.705 -3.741,-0.848 -0.256,-0.256 -0.256,-0.671 0,-0.927 0.248,-0.248 0.645,-0.255 0.902,-0.023 0.052,0.037 0.721,0.487 2.839,0.487 2.2,0 2.836,-0.485 2.842,-0.49 0.256,-0.255 0.657,-0.243 0.913,0.015 0.256,0.256 0.242,0.683 -0.014,0.938 C 17.6,23.097 16.754,23.802 14,23.802"
     id="path16"
     inkscape:connector-curvature="0"
     style="fill:#c1694f" />
  <path
     d="m 14,3.48 c 5.648,0 9.178,4.168 9.178,7.641 0,3.473 -0.706,4.863 -1.412,3.473 l -1.412,-2.778 c 0,0 -4.235,0 -5.647,-1.39 0,0 2.118,4.168 -2.118,0 0,0 0.706,2.779 -3.53,-0.694 0,0 -2.118,1.389 -2.824,4.862 -0.196,0.964 -1.412,0 -1.412,-3.473 C 4.822,7.648 7.646,3.48 14,3.48"
     id="path18"
     inkscape:connector-curvature="0"
     style="fill:#ffe51e" />
  <path
     d="M 10,17 C 9.45,17 9,16.55 9,16 l 0,-1 c 0,-0.55 0.45,-1 1,-1 0.55,0 1,0.45 1,1 l 0,1 c 0,0.55 -0.45,1 -1,1 m 8,0 c -0.55,0 -1,-0.45 -1,-1 l 0,-1 c 0,-0.55 0.45,-1 1,-1 0.55,0 1,0.45 1,1 l 0,1 c 0,0.55 -0.45,1 -1,1"
     id="path20"
     inkscape:connector-curvature="0"
     style="fill:#662113" />
  <path
     d="m 14.75,19.75 -1.5,0 c -0.413,0 -0.75,-0.337 -0.75,-0.75 0,-0.413 0.337,-0.75 0.75,-0.75 l 1.5,0 c 0.413,0 0.75,0.337 0.75,0.75 0,0.413 -0.337,0.75 -0.75,0.75"
     id="path22"
     inkscape:connector-curvature="0"
     style="fill:#c1694f" />
  <path
     d="m 4.5,9 c 0,-1.105 4.253,-2 9.5,-2 5.247,0 9.5,0.895 9.5,2 0,1.105 -4.253,2 -9.5,2 C 8.753,11 4.5,10.105 4.5,9"
     id="path24"
     inkscape:connector-curvature="0"
     style="fill:#292f33" />
  <path
     d="m 23.5,8 -19,0 0,-3.446 C 4.5,4.554 8.458,1 14,1 c 5.542,0 9.5,3.554 9.5,3.554 L 23.5,8 Z"
     id="path26"
     inkscape:connector-curvature="0"
     style="fill:#66757f" />
  <path
     d="m 11,5 c 0,-2.792 1.343,-1 3,-1 1.657,0 3,-1.792 3,1 0,1.657 -1.343,2 -3,2 -1.657,0 -3,-0.343 -3,-2"
     id="path28"
     inkscape:connector-curvature="0"
     style="fill:#ffac33" />
  <path
     d="m 12,5 c 0,-1.105 0.895,-2 2,-2 1.105,0 2,0.895 2,2 0,1.105 -0.895,2 -2,2 C 12.895,7 12,6.105 12,5 M 23.5,9 4.5,9 C 4.225,9 4,8.775 4,8.5 4,8.225 4.225,8 4.5,8 l 19,0 C 23.775,8 24,8.225 24,8.5 24,8.775 23.775,9 23.5,9"
     id="path30"
     inkscape:connector-curvature="0"
     style="fill:#fdcb58" />
  <path
     d="M 7.578,29.056 1.652,29.994 C 1.38,30.037 1.123,29.85 1.08,29.578 L 0.923,28.59 C 0.88,28.319 1.067,28.062 1.339,28.019 l 5.926,-0.938 c 0.272,-0.043 0.529,0.145 0.572,0.415 l 0.157,0.988 c 0.043,0.271 -0.144,0.528 -0.416,0.572"
     id="path32"
     inkscape:connector-curvature="0"
     style="fill:#292f33" />
  <path
     d="m 1.834,27.94 0.989,-0.157 0.312,1.974 -0.989,0.157 z m 1.973,-0.313 0.987,-0.156 0.313,1.975 -0.988,0.157 z m 1.978,-0.313 0.988,-0.155 0.31,1.976 -0.988,0.155 z"
     id="path34"
     inkscape:connector-curvature="0"
     style="fill:#fdcb58" />
  <path
     d="m 26.348,29.994 -5.926,-0.939 c -0.272,-0.043 -0.459,-0.3 -0.416,-0.572 l 0.157,-0.986 c 0.043,-0.272 0.3,-0.459 0.572,-0.416 l 5.926,0.938 c 0.271,0.043 0.459,0.3 0.416,0.572 l -0.157,0.987 c -0.043,0.272 -0.3,0.459 -0.572,0.416"
     id="path36"
     inkscape:connector-curvature="0"
     style="fill:#292f33" />
  <path
     d="m 20.916,29.135 0.312,-1.975 0.988,0.156 -0.313,1.975 z m 1.976,0.312 0.31,-1.976 0.989,0.155 -0.31,1.976 z m 1.975,0.315 0.312,-1.976 0.99,0.156 -0.313,1.976 z"
     id="path38"
     inkscape:connector-curvature="0"
     style="fill:#fdcb58" />
  <path
     d="m 14.001,30.878 c 0,0 3.381,2.494 4.093,2.778 C 18.25,33.719 17.728,30 17.728,30 l -7.454,0 c 0,0 -0.524,3.781 -0.232,3.625 0.639,-0.343 3.959,-2.747 3.959,-2.747"
     id="path40"
     inkscape:connector-curvature="0"
     style="fill:#99aab5" />
  <path
     d="m 15.312,33.438 c 0,0 0.375,-0.625 0.531,-0.906 0.183,-0.329 0.453,-1.57 0.453,-1.57 L 14.108,30 c 0,-0.007 -0.16,0.006 -0.16,0.006 l -0.184,0.042 -0.172,0.062 c -0.218,0.07 0.094,0.008 0.094,0.015 l -1.974,0.837 c 0,0 0.287,1.241 0.47,1.57 0.156,0.281 0.528,0.906 0.528,0.906 0,0 -0.753,0.562 -1.035,2.563 l 4.668,0 c -0.281,-1.595 -1.031,-2.563 -1.031,-2.563"
     id="path42"
     inkscape:connector-curvature="0"
     style="fill:#292f33" />
  <path
     d="m 9.292,26.625 c 0.566,0.566 4.709,3.383 4.709,3.383 0,0 -2.126,1.242 -4.084,3.534 C 9.72,33.772 8.375,28.917 8.334,27.833 8.322,27.53 9.021,26.354 9.292,26.625 m 9.438,0 c -0.566,0.566 -4.709,3.383 -4.709,3.383 0,0 2.126,1.242 4.084,3.534 0.196,0.23 1.542,-4.625 1.583,-5.709 C 19.7,27.53 19.001,26.354 18.73,26.625"
     id="path44"
     inkscape:connector-curvature="0"
     style="fill:#f5f8fa" />
  <path
     d="m 14.016,30.688 c 0.39,-0.022 1.543,0.771 1.422,1.25 -0.461,1.827 -0.849,1.391 -1.391,1.391 -0.611,0 -0.964,0.473 -1.39,-1.312 -0.094,-0.388 0.797,-1.298 1.359,-1.329 M 16.047,36 12.023,36 c 0,0 0.542,-2.167 2.019,-2.167 1.477,0 2.005,2.167 2.005,2.167"
     id="path46"
     inkscape:connector-curvature="0"
     style="fill:#323a3f" />
</svg>
