<?xml version="1.0" encoding="UTF-8" standalone="no"?>
<svg
   xmlns:dc="http://purl.org/dc/elements/1.1/"
   xmlns:cc="http://creativecommons.org/ns#"
   xmlns:rdf="http://www.w3.org/1999/02/22-rdf-syntax-ns#"
   xmlns:svg="http://www.w3.org/2000/svg"
   xmlns="http://www.w3.org/2000/svg"
   xmlns:sodipodi="http://sodipodi.sourceforge.net/DTD/sodipodi-0.dtd"
   xmlns:inkscape="http://www.inkscape.org/namespaces/inkscape"
   viewBox="0 0 35.854698 32.521"
   id="svg2"
   version="1.1"
   inkscape:version="0.91 r13725"
   sodipodi:docname="1f468-1f3ff-200d-2696-fe0f.svg"
   width="35.854698"
   height="32.521">
  <metadata
     id="metadata44">
    <rdf:RDF>
      <cc:Work
         rdf:about="">
        <dc:format>image/svg+xml</dc:format>
        <dc:type
           rdf:resource="http://purl.org/dc/dcmitype/StillImage" />
      </cc:Work>
    </rdf:RDF>
  </metadata>
  <defs
     id="defs42" />
  <sodipodi:namedview
     pagecolor="#ffffff"
     bordercolor="#666666"
     borderopacity="1"
     objecttolerance="10"
     gridtolerance="10"
     guidetolerance="10"
     inkscape:pageopacity="0"
     inkscape:pageshadow="2"
     inkscape:window-width="640"
     inkscape:window-height="480"
     id="namedview40"
     showgrid="false"
     inkscape:zoom="6.5555556"
     inkscape:cx="17.854697"
     inkscape:cy="18.001"
     inkscape:window-x="0"
     inkscape:window-y="0"
     inkscape:window-maximized="0"
     inkscape:current-layer="svg2" />
  <path
     d="m 35.854697,32.52 0,-2 c 0,-3.314 -2.686,-6 -6,-6 l -16,0 c -3.313,0 -5.9999997,2.686 -5.9999997,6 l 0,2 27.9999997,0 z"
     id="path4"
     inkscape:connector-curvature="0"
     style="fill:#292f33" />
  <path
     d="m 16.854697,24.52 9.929,0 0,8 -9.929,0 z"
     id="path6"
     inkscape:connector-curvature="0"
     style="fill:#e1e8ed" />
  <path
     d="m 17.494697,24.621 c 1.744,1.268 2.848,1.963 4.36,1.963 1.512,0 2.615,-0.696 4.359,-1.963 l 0,-3.811 -8.72,0 0,3.811 z"
     id="path8"
     inkscape:connector-curvature="0"
     style="fill:#7c533e" />
  <path
     d="m 17.486697,22.493 c 1.216,1.374 2.724,1.746 4.364,1.746 1.639,0 3.146,-0.373 4.363,-1.746 l 0,-3.491 -8.728,0 0,3.491 z"
     id="path10"
     inkscape:connector-curvature="0"
     style="fill:#664131" />
  <path
     d="m 15.298697,12.456 c 0,1.448 -0.734,2.622 -1.639,2.622 -0.905,0 -1.639,-1.174 -1.639,-2.622 0,-1.448 0.734,-2.623 1.639,-2.623 0.905,-10e-4 1.639,1.174 1.639,2.623 m 16.389,0 c 0,1.448 -0.733,2.622 -1.639,2.622 -0.905,0 -1.639,-1.174 -1.639,-2.622 0,-1.448 0.733,-2.623 1.639,-2.623 0.906,-10e-4 1.639,1.174 1.639,2.623"
     id="path12"
     inkscape:connector-curvature="0"
     style="fill:#7c533e" />
  <path
     d="m 13.331697,13.479 c 0,-5.589 3.816,-10.121 8.523,-10.121 4.707,0 8.522,4.532 8.522,10.121 0,5.589 -3.815,10.121 -8.522,10.121 -4.706,0 -8.523,-4.531 -8.523,-10.121"
     id="path14"
     inkscape:connector-curvature="0"
     style="fill:#7c533e" />
  <path
     d="m 26.379697,17.866 -1.268,-0.274 c -0.405,-0.095 -1.173,-0.072 -1.535,-0.072 l -3.689,0 c -0.362,0 -1.131,-0.023 -1.536,0.071 l -1.266,0.274 c -0.348,0.101 -0.55,0.393 -0.45,0.74 0.082,0.288 0.345,0.441 0.63,0.441 0.059,0 0.12,-0.026 0.18,-0.042 l 1.267,-0.371 c -0.143,0.191 -0.181,0.446 -0.066,0.676 0.115,0.228 0.347,0.36 0.587,0.36 0.099,0 0.199,-0.024 0.293,-0.071 l 1.034,-0.518 c 0.022,0.215 0.139,0.414 0.346,0.518 0.094,0.046 0.195,0.069 0.293,0.069 0.241,0 0.473,-0.134 0.587,-0.363 l 0.068,-0.138 -0.053,0.138 c 0.114,0.229 0.224,0.363 0.465,0.363 0.098,0 0.198,-0.023 0.292,-0.069 0.207,-0.104 0.323,-0.303 0.347,-0.518 l 1.033,0.518 c 0.095,0.047 0.195,0.071 0.293,0.071 0.241,0 0.472,-0.132 0.587,-0.36 0.114,-0.23 0.076,-0.484 -0.066,-0.676 l 1.266,0.371 c 0.059,0.016 0.121,0.042 0.181,0.042 0.285,0 0.547,-0.152 0.63,-0.441 0.099,-0.347 -0.102,-0.639 -0.45,-0.739 z M 21.854697,0 c 5.648,0 9.178,4.168 9.178,7.641 0,3.473 -0.706,4.863 -1.412,3.473 l -1.412,-2.778 c 0,0 -4.235,0 -5.647,-1.39 0,0 2.118,4.168 -2.118,0 0,0 0.706,2.779 -3.53,-0.694 0,0 -2.118,1.389 -2.824,4.862 -0.196,0.964 -1.412,0 -1.412,-3.473 -10e-4,-3.473 2.823,-7.641 9.177,-7.641"
     id="path16"
     inkscape:connector-curvature="0"
     style="fill:#6d6e71" />
  <path
     d="m 17.854697,13.52 c -0.55,0 -1,-0.45 -1,-1 l 0,-1 c 0,-0.55 0.45,-1 1,-1 0.55,0 1,0.45 1,1 l 0,1 c 0,0.55 -0.45,1 -1,1 m 8,0 c -0.55,0 -1,-0.45 -1,-1 l 0,-1 c 0,-0.55 0.45,-1 1,-1 0.55,0 1,0.45 1,1 l 0,1 c 0,0.55 -0.45,1 -1,1"
     id="path18"
     inkscape:connector-curvature="0" />
  <path
     d="m 22.604697,16.27 -1.5,0 c -0.413,0 -0.75,-0.337 -0.75,-0.75 0,-0.413 0.337,-0.75 0.75,-0.75 l 1.5,0 c 0.413,0 0.75,0.337 0.75,0.75 0,0.413 -0.337,0.75 -0.75,0.75"
     id="path20"
     inkscape:connector-curvature="0"
     style="fill:#3d2e24" />
  <path
     d="m 21.855697,27.398 c 0,0 3.381,2.494 4.093,2.778 0.156,0.063 -0.366,-3.656 -0.366,-3.656 l -7.454,0 c 0,0 -0.523,3.781 -0.231,3.625 0.638,-0.343 3.958,-2.747 3.958,-2.747"
     id="path22"
     inkscape:connector-curvature="0"
     style="fill:#99aab5" />
  <path
     d="m 23.166697,29.958 c 0,0 0.375,-0.625 0.531,-0.906 0.183,-0.329 0.453,-1.57 0.453,-1.57 l 0,-0.963 -4.583,0.003 0,0.96 c 0,0 0.287,1.241 0.47,1.57 0.156,0.281 0.528,0.906 0.528,0.906 0,0 -0.753,0.562 -1.035,2.563 l 4.667,0 c -0.281,-1.595 -1.031,-2.563 -1.031,-2.563"
     id="path24"
     inkscape:connector-curvature="0"
     style="fill:#226699" />
  <path
     d="m 17.146697,23.145 c 0.566,0.566 4.709,3.383 4.709,3.383 0,0 -2.126,1.242 -4.084,3.534 -0.197,0.23 -1.542,-4.625 -1.583,-5.709 -0.012,-0.303 0.687,-1.479 0.958,-1.208 m 9.438,0 c -0.566,0.566 -4.709,3.383 -4.709,3.383 0,0 2.126,1.242 4.084,3.534 0.196,0.23 1.542,-4.625 1.583,-5.709 0.012,-0.303 -0.687,-1.479 -0.958,-1.208"
     id="path26"
     inkscape:connector-curvature="0"
     style="fill:#f5f8fa" />
  <path
     d="m 27.474697,24.52 c 0,0 -1.542,5.463 -5.62,7.411 -4.078,-1.948 -5.62,-7.411 -5.62,-7.411 l -1.38,0 0,8 14,0 0,-8 -1.38,0 z"
     id="path28"
     inkscape:connector-curvature="0"
     style="fill:#292f33" />
  <path
     d="m 11.937697,29.861 c 0.251,0 0.401,2.659 0.401,2.659 l -0.956,0 c 0,0 0.193,-2.659 0.555,-2.659 m 3,0 c 0.251,0 0.401,2.659 0.401,2.659 l -0.956,0 c 0,0 0.193,-2.659 0.555,-2.659 m 16.846,0 c -0.251,0 -0.401,2.659 -0.401,2.659 l 0.956,0 c -0.001,0 -0.194,-2.659 -0.555,-2.659 m -3,0 c -0.251,0 -0.401,2.659 -0.401,2.659 l 0.956,0 c -0.001,0 -0.194,-2.659 -0.555,-2.659"
     id="path30"
     inkscape:connector-curvature="0"
     style="fill:#66757f" />
  <path
     d="m 7.7086973,20.185 c 0.468,1.24 0.178,2.498 -0.649,2.812 -0.826,0.311 -1.876,-0.441 -2.345,-1.681 -0.468,-1.239 -0.178,-2.498 0.649,-2.811 0.826,-0.312 1.876,0.44 2.345,1.68"
     id="path32"
     inkscape:connector-curvature="0"
     style="fill:#c1694f" />
  <path
     d="m 8.9466973,32.52 -3.479,-9.208 0.25,-0.094 c 1.098,-0.415 1.656,-1.651 1.242,-2.75 -0.415,-1.097 -1.652,-1.656 -2.75,-1.241 l -1.995,0.754 c -1.098,0.413 -1.65700002,1.65 -1.24200002,2.749 0.41400002,1.098 1.65200002,1.656 2.74900002,1.241 l 0.25,-0.094 3.265,8.643 1.71,0 z"
     id="path34"
     inkscape:connector-curvature="0"
     style="fill:#662113" />
  <path
     d="m 3.2176973,21.881 c 0.468,1.24 0.178,2.498 -0.649,2.812 -0.826,0.312 -1.87600002,-0.44 -2.34500002,-1.681 -0.468,-1.239 -0.178,-2.498 0.649,-2.811 0.82700002,-0.312 1.87700002,0.44 2.34500002,1.68"
     id="path36"
     inkscape:connector-curvature="0"
     style="fill:#c1694f" />
  <path
     d="m 11.172697,32.52 -0.466,-1.588 c -0.363,-1.239 -1.6729997,-1.955 -2.9109997,-1.592 l -1.255,0.368 c -1.205,0.354 -1.907,1.604 -1.61,2.812 l 6.2419997,0 z"
     id="path38"
     inkscape:connector-curvature="0"
     style="fill:#7c533e" />
</svg>
