<?xml version="1.0" encoding="UTF-8" standalone="no"?>
<svg
   xmlns:dc="http://purl.org/dc/elements/1.1/"
   xmlns:cc="http://creativecommons.org/ns#"
   xmlns:rdf="http://www.w3.org/1999/02/22-rdf-syntax-ns#"
   xmlns:svg="http://www.w3.org/2000/svg"
   xmlns="http://www.w3.org/2000/svg"
   xmlns:sodipodi="http://sodipodi.sourceforge.net/DTD/sodipodi-0.dtd"
   xmlns:inkscape="http://www.inkscape.org/namespaces/inkscape"
   viewBox="0 0 34 34.362"
   id="svg2"
   version="1.1"
   inkscape:version="0.91 r13725"
   sodipodi:docname="1f465.svg"
   width="34"
   height="34.362">
  <metadata
     id="metadata12">
    <rdf:RDF>
      <cc:Work
         rdf:about="">
        <dc:format>image/svg+xml</dc:format>
        <dc:type
           rdf:resource="http://purl.org/dc/dcmitype/StillImage" />
      </cc:Work>
    </rdf:RDF>
  </metadata>
  <defs
     id="defs10" />
  <sodipodi:namedview
     pagecolor="#ffffff"
     bordercolor="#666666"
     borderopacity="1"
     objecttolerance="10"
     gridtolerance="10"
     guidetolerance="10"
     inkscape:pageopacity="0"
     inkscape:pageshadow="2"
     inkscape:window-width="640"
     inkscape:window-height="480"
     id="namedview8"
     showgrid="false"
     inkscape:zoom="6.5555556"
     inkscape:cx="17"
     inkscape:cy="17"
     inkscape:window-x="0"
     inkscape:window-y="0"
     inkscape:window-maximized="0"
     inkscape:current-layer="svg2" />
  <path
     d="m 28,20.091 0,-1.963 c 1,-1.03 2.914,-2.89 3.391,-5.273 0.142,0.079 0.055,0.13 0.213,0.13 0.758,0 1.256,-0.983 1.256,-2.197 0,-1.194 -0.656,-2.161 -1.399,-2.191 C 31.604,8.081 31.673,7.391 31.673,6.505 31.673,3.549 29.124,0 23.42,0 c -5.068,0 -8.244,3.549 -8.244,6.505 0,0.858 0.051,1.562 0.142,2.107 -0.697,0.105 -1.247,1.033 -1.247,2.175 0,1.214 0.614,2.197 1.373,2.197 0.157,0 -0.069,-0.051 0.072,-0.13 0.477,2.384 2.484,4.243 3.484,5.274 l 0,1.847 c -4,0.492 -7,2.628 -7,4.765 l 0,0.81 c 0,0.812 0.823,0.812 1.634,0.812 l 18.73,0 c 0.813,0 1.636,0 1.636,-0.812 l 0,-0.81 c 0,-2.001 -3,-3.997 -6,-4.649 z"
     id="path4"
     inkscape:connector-curvature="0"
     style="fill:#55acee" />
  <path
     d="m 16,28.091 0,-1.963 c 1,-1.03 2.914,-2.89 3.391,-5.273 0.142,0.079 0.055,0.13 0.213,0.13 0.758,0 1.256,-0.983 1.256,-2.197 0,-1.194 -0.656,-2.161 -1.399,-2.191 0.143,-0.516 0.212,-1.206 0.212,-2.092 C 19.673,11.549 17.124,8 11.42,8 6.351,8 3.176,11.549 3.176,14.505 c 0,0.858 0.051,1.562 0.142,2.107 -0.697,0.105 -1.247,1.033 -1.247,2.175 0,1.214 0.614,2.197 1.373,2.197 0.157,0 -0.069,-0.051 0.072,-0.13 C 3.993,23.238 6,25.097 7,26.128 l 0,1.847 C 3,28.467 0,30.603 0,32.74 l 0,0.811 c 0,0.811 0.823,0.811 1.634,0.811 l 18.73,0 c 0.813,0 1.636,0 1.636,-0.812 l 0,-0.811 c 0,-2 -3,-3.996 -6,-4.648 z"
     id="path6"
     inkscape:connector-curvature="0"
     style="fill:#226699" />
</svg>
