<?xml version="1.0" encoding="UTF-8" standalone="no"?>
<svg
   xmlns:dc="http://purl.org/dc/elements/1.1/"
   xmlns:cc="http://creativecommons.org/ns#"
   xmlns:rdf="http://www.w3.org/1999/02/22-rdf-syntax-ns#"
   xmlns:svg="http://www.w3.org/2000/svg"
   xmlns="http://www.w3.org/2000/svg"
   xmlns:sodipodi="http://sodipodi.sourceforge.net/DTD/sodipodi-0.dtd"
   xmlns:inkscape="http://www.inkscape.org/namespaces/inkscape"
   viewBox="0 0 35.600075 31.620001"
   id="svg2"
   version="1.1"
   inkscape:version="0.91 r13725"
   sodipodi:docname="1f460.svg"
   width="35.600075"
   height="31.620001">
  <metadata
     id="metadata12">
    <rdf:RDF>
      <cc:Work
         rdf:about="">
        <dc:format>image/svg+xml</dc:format>
        <dc:type
           rdf:resource="http://purl.org/dc/dcmitype/StillImage" />
      </cc:Work>
    </rdf:RDF>
  </metadata>
  <defs
     id="defs10" />
  <sodipodi:namedview
     pagecolor="#ffffff"
     bordercolor="#666666"
     borderopacity="1"
     objecttolerance="10"
     gridtolerance="10"
     guidetolerance="10"
     inkscape:pageopacity="0"
     inkscape:pageshadow="2"
     inkscape:window-width="640"
     inkscape:window-height="480"
     id="namedview8"
     showgrid="false"
     inkscape:zoom="6.5555556"
     inkscape:cx="18.131489"
     inkscape:cy="17"
     inkscape:window-x="0"
     inkscape:window-y="0"
     inkscape:window-maximized="0"
     inkscape:current-layer="svg2" />
  <path
     d="m 35.578489,28.74 c 0,0 -1.098,1.88 -2.874,1.88 l -13.23,0 c -3.635,0 -4.391,-4.179 -7.604,-10.605 C 8.6574892,13.588 4.9644892,16.967 4.9644892,16.967 l -1.215,14.653 -1.284,0 c 0,0 -0.614,-12.551 -1.25,-14.596 C -0.22951078,12.374 0.59048922,8.843 0.59048922,8.843 L 8.6084892,9.386 18.708489,24.91 l 16.87,3.83 z"
     id="path4"
     inkscape:connector-curvature="0"
     style="fill:#292f33" />
  <path
     d="m 30.580489,23.117 c -1.137,-0.31 -1.874,-0.625 -1.874,-0.625 -0.512,0.534 -1.231,0.625 -1.874,0.625 -3.825,0 -5.808,-1.556 -8.122,-6.873 C 13.711489,4.764 5.4854892,0 3.0904892,0 0.53948922,0 -0.87251078,11.871 0.59148922,11.871 c 4.60699998,0 8.41499998,0.928 11.11899978,3.749 4.043,4.217 5.513,13.12 8.117,13.12 l 15.752,0 c 0,0 0.624,-4.061 -4.999,-5.623 z"
     id="path6"
     inkscape:connector-curvature="0"
     style="fill:#dd2e44" />
</svg>
