<?xml version="1.0" encoding="UTF-8" standalone="no"?>
<svg
   xmlns:dc="http://purl.org/dc/elements/1.1/"
   xmlns:cc="http://creativecommons.org/ns#"
   xmlns:rdf="http://www.w3.org/1999/02/22-rdf-syntax-ns#"
   xmlns:svg="http://www.w3.org/2000/svg"
   xmlns="http://www.w3.org/2000/svg"
   xmlns:sodipodi="http://sodipodi.sourceforge.net/DTD/sodipodi-0.dtd"
   xmlns:inkscape="http://www.inkscape.org/namespaces/inkscape"
   viewBox="0 0 34.643806 35.275265"
   id="svg2"
   version="1.1"
   inkscape:version="0.91 r13725"
   sodipodi:docname="1f463.svg"
   width="34.643806"
   height="35.275265">
  <metadata
     id="metadata10">
    <rdf:RDF>
      <cc:Work
         rdf:about="">
        <dc:format>image/svg+xml</dc:format>
        <dc:type
           rdf:resource="http://purl.org/dc/dcmitype/StillImage" />
      </cc:Work>
    </rdf:RDF>
  </metadata>
  <defs
     id="defs8" />
  <sodipodi:namedview
     pagecolor="#ffffff"
     bordercolor="#666666"
     borderopacity="1"
     objecttolerance="10"
     gridtolerance="10"
     guidetolerance="10"
     inkscape:pageopacity="0"
     inkscape:pageshadow="2"
     inkscape:window-width="640"
     inkscape:window-height="480"
     id="namedview6"
     showgrid="false"
     inkscape:zoom="6.5555556"
     inkscape:cx="17.475403"
     inkscape:cy="17.442266"
     inkscape:window-x="0"
     inkscape:window-y="0"
     inkscape:window-maximized="0"
     inkscape:current-layer="svg2" />
  <path
     d="m 25.251403,4.541 c 1.333,0 6.833,1.333 6.833,7.75 0,6.417 -6.261,15.73 -8.625,15.959 -2.583,0.25 -4.208,-1.375 -4.208,-4 0,-2.625 4.083,-4.334 2.208,-8.292 -1.875,-3.958 -2.333,-11.417 3.792,-11.417 z m 7.081,2.232 c -0.432,0.733 -0.323,1.598 0.242,1.93 0.565,0.333 1.374,0.007 1.805,-0.727 0.432,-0.734 0.323,-1.599 -0.242,-1.931 -0.565,-0.332 -1.374,-0.006 -1.805,0.728 z m -2.902,-2.862 c -0.117,0.843 0.342,1.604 1.025,1.699 0.684,0.095 1.334,-0.511 1.451,-1.355 0.117,-0.843 -0.342,-1.604 -1.025,-1.699 -0.683,-0.095 -1.334,0.511 -1.451,1.355 z m -3.221,-1.37 c 0,0.921 0.598,1.667 1.334,1.667 0.736,0 1.333,-0.746 1.333,-1.667 0,-0.92 -0.597,-1.667 -1.333,-1.667 -0.736,0 -1.334,0.747 -1.334,1.667 z m -3.791,-0.687 c 0,1.024 0.635,1.854 1.416,1.854 0.783,0 1.417,-0.83 1.417,-1.854 0,-1.024 -0.634,-1.854 -1.417,-1.854 -0.781,0 -1.416,0.83 -1.416,1.854 z m -5.307,2.156 c 0.378,1.459 1.604,2.405 2.741,2.111 1.137,-0.294 1.751,-1.715 1.373,-3.174 -0.377,-1.459 -1.604,-2.404 -2.74,-2.11 -1.137,0.293 -1.751,1.715 -1.374,3.173 z m -7.7190005,7.531 c -1.333,0 -6.833,1.333 -6.833,7.75 0,6.417 6.261,15.73 8.6250005,15.959 2.583,0.25 4.208,-1.375 4.208,-4 0,-2.625 -4.083,-4.334 -2.208,-8.292 1.875,-3.958 2.333,-11.417 -3.7920005,-11.417 z m -7.081,2.232 c 0.432,0.733 0.323,1.598 -0.242,1.93 -0.566,0.333 -1.37499996,0.007 -1.80499996,-0.727 -0.432,-0.734 -0.323,-1.599 0.242,-1.931 0.56599996,-0.332 1.37399996,-0.006 1.80499996,0.728 z m 2.902,-2.862 c 0.117,0.843 -0.342,1.604 -1.025,1.699 -0.684,0.095 -1.334,-0.511 -1.451,-1.354 -0.117,-0.843 0.342,-1.604 1.025,-1.699 0.684,-0.096 1.334,0.51 1.451,1.354 z m 3.22,-1.37 c 0,0.921 -0.597,1.667 -1.333,1.667 -0.736,0 -1.333,-0.746 -1.333,-1.667 0,-0.92 0.597,-1.667 1.333,-1.667 0.737,0.001 1.333,0.747 1.333,1.667 z M 12.225403,8.854 c 0,1.024 -0.634,1.854 -1.417,1.854 -0.783,0 -1.4170005,-0.83 -1.4170005,-1.854 0,-1.024 0.6340005,-1.854 1.4170005,-1.854 0.783,0 1.417,0.83 1.417,1.854 z m 5.308,2.156 c -0.377,1.459 -1.604,2.405 -2.741,2.111 -1.137,-0.294 -1.752,-1.715 -1.374,-3.174 0.377,-1.459 1.604,-2.404 2.74,-2.11 1.137,0.293 1.752,1.715 1.375,3.173 z"
     id="path4"
     inkscape:connector-curvature="0"
     style="fill:#662113" />
</svg>
