<?xml version="1.0" encoding="UTF-8" standalone="no"?>
<svg
   xmlns:dc="http://purl.org/dc/elements/1.1/"
   xmlns:cc="http://creativecommons.org/ns#"
   xmlns:rdf="http://www.w3.org/1999/02/22-rdf-syntax-ns#"
   xmlns:svg="http://www.w3.org/2000/svg"
   xmlns="http://www.w3.org/2000/svg"
   xmlns:sodipodi="http://sodipodi.sourceforge.net/DTD/sodipodi-0.dtd"
   xmlns:inkscape="http://www.inkscape.org/namespaces/inkscape"
   viewBox="0 0 34 34.473"
   id="svg2"
   version="1.1"
   inkscape:version="0.91 r13725"
   sodipodi:docname="1f464.svg"
   width="34"
   height="34.473">
  <metadata
     id="metadata10">
    <rdf:RDF>
      <cc:Work
         rdf:about="">
        <dc:format>image/svg+xml</dc:format>
        <dc:type
           rdf:resource="http://purl.org/dc/dcmitype/StillImage" />
      </cc:Work>
    </rdf:RDF>
  </metadata>
  <defs
     id="defs8" />
  <sodipodi:namedview
     pagecolor="#ffffff"
     bordercolor="#666666"
     borderopacity="1"
     objecttolerance="10"
     gridtolerance="10"
     guidetolerance="10"
     inkscape:pageopacity="0"
     inkscape:pageshadow="2"
     inkscape:window-width="640"
     inkscape:window-height="480"
     id="namedview6"
     showgrid="false"
     inkscape:zoom="6.5555556"
     inkscape:cx="17"
     inkscape:cy="17"
     inkscape:window-x="0"
     inkscape:window-y="0"
     inkscape:window-maximized="0"
     inkscape:current-layer="svg2" />
  <path
     d="m 23,26.272 0,-2.566 c 2,-1.348 4.08,-3.779 4.703,-6.896 0.186,0.103 0.206,0.17 0.413,0.17 0.991,0 1.709,-1.287 1.709,-2.873 0,-1.562 -0.823,-2.827 -1.794,-2.865 0.187,-0.674 0.293,-1.577 0.293,-2.735 C 28.324,4.641 25,0 17.541,0 10.912,0 6.764,4.641 6.764,8.507 c 0,1.123 0.069,2.043 0.188,2.755 -0.911,0.137 -1.629,1.352 -1.629,2.845 0,1.587 0.804,2.873 1.796,2.873 0.206,0 0.025,-0.067 0.209,-0.17 C 7.952,19.926 10,22.358 12,23.705 l 0,2.414 C 7,26.764 0,29.556 0,32.349 l 0,1.061 c 0,1.063 1.076,1.063 2.137,1.063 l 29.725,0 c 1.062,0 2.138,0 2.138,-1.062 l 0,-1.061 c 0,-2.615 -6,-5.225 -11,-6.078 z"
     id="path4"
     inkscape:connector-curvature="0"
     style="fill:#226699" />
</svg>
