<?xml version="1.0" encoding="UTF-8" standalone="no"?>
<svg
   xmlns:dc="http://purl.org/dc/elements/1.1/"
   xmlns:cc="http://creativecommons.org/ns#"
   xmlns:rdf="http://www.w3.org/1999/02/22-rdf-syntax-ns#"
   xmlns:svg="http://www.w3.org/2000/svg"
   xmlns="http://www.w3.org/2000/svg"
   xmlns:sodipodi="http://sodipodi.sourceforge.net/DTD/sodipodi-0.dtd"
   xmlns:inkscape="http://www.inkscape.org/namespaces/inkscape"
   viewBox="0 0 35.991169 16.489233"
   id="svg2"
   version="1.1"
   inkscape:version="0.91 r13725"
   sodipodi:docname="1f461.svg"
   width="35.991169"
   height="16.489233">
  <metadata
     id="metadata14">
    <rdf:RDF>
      <cc:Work
         rdf:about="">
        <dc:format>image/svg+xml</dc:format>
        <dc:type
           rdf:resource="http://purl.org/dc/dcmitype/StillImage" />
      </cc:Work>
    </rdf:RDF>
  </metadata>
  <defs
     id="defs12" />
  <sodipodi:namedview
     pagecolor="#ffffff"
     bordercolor="#666666"
     borderopacity="1"
     objecttolerance="10"
     gridtolerance="10"
     guidetolerance="10"
     inkscape:pageopacity="0"
     inkscape:pageshadow="2"
     inkscape:window-width="640"
     inkscape:window-height="480"
     id="namedview10"
     showgrid="false"
     inkscape:zoom="6.5555556"
     inkscape:cx="18.000738"
     inkscape:cy="15"
     inkscape:window-x="0"
     inkscape:window-y="0"
     inkscape:window-maximized="0"
     inkscape:current-layer="svg2" />
  <path
     d="m 4.000738,3.4892332 c -3,0 -3.60100002,1.546 -4.00000001522,3 0,1 0,1 1.00000001522,1 0.72,0 9.828,1.42 9.828,1.42 l 12.74,5.0959998 5.432,0.484 c 0,0 3.844,1.062 5.844,-0.938 1,-1 3.189,-3.216 -3.594,-4.6029998 -2.25,-0.459 -3.471,-0.097 -6.087,-0.755 -2.618,-0.659 -2.08,0.461 -4.163,-0.704 -2.085,-1.165 -3.939,-2.322 -11.593,-3.599 -2.407,-0.401 -4.407,-0.401 -5.407,-0.401 z"
     id="path4"
     inkscape:connector-curvature="0"
     style="fill:#d99e82" />
  <path
     d="m 35.000738,16.489233 -8,0 c -5.632,0 -15.398,-6.031 -17,-6 -0.692,0.013 -1,0.098 -1,4 0,2 -1,2 -1,2 l -7,0 c -1.06400002,-0.26 -1.00000001522,-2 -1.00000001522,-2 0.0509999952,-0.999 0,-7.9999998 0,-7.9999998 0,0 4.08700001522,-0.993 9.94100001522,0.687 5.854,1.679 14.059,5.3129998 14.059,5.3129998 l 11.969,0 c 0,1 0.215,3.977 -0.969,4 z"
     id="path6"
     inkscape:connector-curvature="0"
     style="fill:#c1694f" />
  <path
     d="m 19.207738,12.156233 c 0.251,-1.334 2.29,-10.4279998 2.626,-11.66699981 0.334,-1.24 7.959,0.042 7.875,2.00000001 -0.291,1.625 -1.867,10.7319998 -1.87,11.0839998 0.037,1.499 -8.882,-0.083 -8.631,-1.417 z"
     id="path8"
     inkscape:connector-curvature="0"
     style="fill:#be1931" />
</svg>
