<?xml version="1.0" encoding="UTF-8" standalone="no"?>
<svg
   xmlns:dc="http://purl.org/dc/elements/1.1/"
   xmlns:cc="http://creativecommons.org/ns#"
   xmlns:rdf="http://www.w3.org/1999/02/22-rdf-syntax-ns#"
   xmlns:svg="http://www.w3.org/2000/svg"
   xmlns="http://www.w3.org/2000/svg"
   xmlns:sodipodi="http://sodipodi.sourceforge.net/DTD/sodipodi-0.dtd"
   xmlns:inkscape="http://www.inkscape.org/namespaces/inkscape"
   viewBox="0 0 36 36"
   id="svg2"
   version="1.1"
   inkscape:version="0.91 r13725"
   sodipodi:docname="1f468-1f3ff-200d-1f33e.svg"
   width="36"
   height="36">
  <metadata
     id="metadata44">
    <rdf:RDF>
      <cc:Work
         rdf:about="">
        <dc:format>image/svg+xml</dc:format>
        <dc:type
           rdf:resource="http://purl.org/dc/dcmitype/StillImage" />
      </cc:Work>
    </rdf:RDF>
  </metadata>
  <defs
     id="defs42" />
  <sodipodi:namedview
     pagecolor="#ffffff"
     bordercolor="#666666"
     borderopacity="1"
     objecttolerance="10"
     gridtolerance="10"
     guidetolerance="10"
     inkscape:pageopacity="0"
     inkscape:pageshadow="2"
     inkscape:window-width="640"
     inkscape:window-height="480"
     id="namedview40"
     showgrid="false"
     inkscape:zoom="6.5555556"
     inkscape:cx="18"
     inkscape:cy="18"
     inkscape:window-x="0"
     inkscape:window-y="0"
     inkscape:window-maximized="0"
     inkscape:current-layer="svg2" />
  <path
     d="m 36,36 0,-2 c 0,-3.314 -2.686,-6 -6,-6 l -16,0 c -3.313,0 -6,2.686 -6,6 l 0,2 28,0 z"
     id="path4"
     inkscape:connector-curvature="0"
     style="fill:#77b255" />
  <path
     d="m 22,34 c 0.767,0 5,-3 5,-6 l -10,0 c 0,3 4.233,6 5,6 z"
     id="path6"
     inkscape:connector-curvature="0"
     style="fill:#3e721d" />
  <path
     d="m 17.64,28.038 c 0,2.846 8.72,2.962 8.72,0 l 0,-3.749 -8.72,0 0,3.749 z"
     id="path8"
     inkscape:connector-curvature="0"
     style="fill:#7c533e" />
  <path
     d="m 17.632,25.973 c 1.216,1.374 2.724,1.746 4.364,1.746 1.639,0 3.146,-0.373 4.363,-1.746 l 0,-3.491 -8.728,0 0,3.491 z"
     id="path10"
     inkscape:connector-curvature="0"
     style="fill:#664131" />
  <path
     d="m 15.444,15.936 c 0,1.448 -0.734,2.622 -1.639,2.622 -0.905,0 -1.639,-1.174 -1.639,-2.622 0,-1.448 0.734,-2.623 1.639,-2.623 0.905,-0.001 1.639,1.174 1.639,2.623 m 16.389,0 c 0,1.448 -0.733,2.622 -1.639,2.622 -0.905,0 -1.639,-1.174 -1.639,-2.622 0,-1.448 0.733,-2.623 1.639,-2.623 0.906,-0.001 1.639,1.174 1.639,2.623"
     id="path12"
     inkscape:connector-curvature="0"
     style="fill:#7c533e" />
  <path
     d="m 13.477,16.959 c 0,-5.589 3.816,-10.121 8.523,-10.121 4.707,0 8.522,4.532 8.522,10.121 0,5.589 -3.815,10.121 -8.522,10.121 -4.706,0 -8.523,-4.531 -8.523,-10.121"
     id="path14"
     inkscape:connector-curvature="0"
     style="fill:#7c533e" />
  <path
     d="m 22,23.802 c -2.754,0 -3.6,-0.705 -3.741,-0.848 -0.256,-0.256 -0.256,-0.671 0,-0.927 0.248,-0.248 0.646,-0.255 0.902,-0.023 0.052,0.037 0.721,0.487 2.839,0.487 2.2,0 2.836,-0.485 2.842,-0.49 0.256,-0.255 0.657,-0.243 0.913,0.015 0.256,0.256 0.242,0.683 -0.014,0.938 C 25.6,23.097 24.754,23.802 22,23.802"
     id="path16"
     inkscape:connector-curvature="0"
     style="fill:#3d2e24" />
  <path
     d="m 22,3.48 c 5.648,0 9.178,4.168 9.178,7.641 0,3.473 -0.706,4.863 -1.412,3.473 l -1.412,-2.778 c 0,0 -4.235,0 -5.647,-1.39 0,0 2.118,4.168 -2.118,0 0,0 0.706,2.779 -3.53,-0.694 0,0 -2.118,1.389 -2.824,4.862 -0.196,0.964 -1.412,0 -1.412,-3.473 C 12.822,7.648 15.646,3.48 22,3.48"
     id="path18"
     inkscape:connector-curvature="0"
     style="fill:#0b0200" />
  <path
     d="m 18,17 c -0.55,0 -1,-0.45 -1,-1 l 0,-1 c 0,-0.55 0.45,-1 1,-1 0.55,0 1,0.45 1,1 l 0,1 c 0,0.55 -0.45,1 -1,1 m 8,0 c -0.55,0 -1,-0.45 -1,-1 l 0,-1 c 0,-0.55 0.45,-1 1,-1 0.55,0 1,0.45 1,1 l 0,1 c 0,0.55 -0.45,1 -1,1"
     id="path20"
     inkscape:connector-curvature="0" />
  <path
     d="m 22.75,19.75 -1.5,0 c -0.413,0 -0.75,-0.337 -0.75,-0.75 0,-0.413 0.337,-0.75 0.75,-0.75 l 1.5,0 c 0.413,0 0.75,0.337 0.75,0.75 0,0.413 -0.337,0.75 -0.75,0.75"
     id="path22"
     inkscape:connector-curvature="0"
     style="fill:#3d2e24" />
  <path
     d="m 13,28 3,0 0,8 -3,0 z m 15,0 3,0 0,8 -3,0 z"
     id="path24"
     inkscape:connector-curvature="0"
     style="fill:#3b88c3" />
  <path
     d="M 13.125,35 31,35 l 0,1 -17.875,0 z"
     id="path26"
     inkscape:connector-curvature="0"
     style="fill:#3b88c3" />
  <path
     d="M 30,8.8 C 30,10.12 26.908,11 22,11 17.091,11 14,10.12 14,8.8 14,5.253 18,0 19.333,0 20.667,0 21.556,1.76 22,1.76 22.444,1.76 23.333,0 24.667,0 26,0 30,5.253 30,8.8 Z"
     id="path28"
     inkscape:connector-curvature="0"
     style="fill:#c1694f" />
  <path
     d="m 35.941,8 c 0,1.657 -3.5,6 -14,6 -10.5,0 -14,-4.343 -14,-6 0,-1.657 6.82,-1 14,-1 7.18,0 14,-0.657 14,1 z"
     id="path30"
     inkscape:connector-curvature="0"
     style="fill:#c1694f" />
  <path
     d="M 30,8.8 C 30,10.12 26.908,11 22,11 17.091,11 14,10.12 14,8.8 14,8.234 14.102,7.625 14.279,7 16.667,9 27.333,9 29.722,7.004 29.897,7.627 30,8.235 30,8.8 Z"
     id="path32"
     inkscape:connector-curvature="0"
     style="fill:#292f33" />
  <path
     d="M 7,31.75 C 7,31.06 6.44,30.5 5.75,30.5 5.06,30.5 4.5,31.06 4.5,31.75 L 4.5,36 7,36 7,31.75 Z"
     id="path34"
     inkscape:connector-curvature="0"
     style="fill:#c1694f" />
  <path
     d="m 10.003,22.75 c 0,2.35 -1.904,4.253 -4.253,4.253 -2.349,0 -4.253,-1.903 -4.253,-4.253 0,-0.086 -1.497,-0.084 -1.497,0 0,3.176 2.575,5.75 5.75,5.75 3.175,0 5.75,-2.574 5.75,-5.75 0,-0.084 -1.497,-0.086 -1.497,0 z"
     id="path36"
     inkscape:connector-curvature="0"
     style="fill:#66757f" />
  <path
     d="M 1.5,22.75 C 1.5,23.164 1.164,23.5 0.75,23.5 0.336,23.5 0,23.164 0,22.75 l 0,-8.5 c 0,-0.414 0.336,-0.75 0.75,-0.75 0.414,0 0.75,0.336 0.75,0.75 l 0,8.5 z m 10,0 c 0,0.414 -0.336,0.75 -0.75,0.75 C 10.336,23.5 10,23.164 10,22.75 l 0,-8.5 c 0,-0.414 0.336,-0.75 0.75,-0.75 0.414,0 0.75,0.336 0.75,0.75 l 0,8.5 z M 6.5,31 c 0,0.414 -0.336,0.75 -0.75,0.75 C 5.336,31.75 5,31.414 5,31 L 5,14.25 c 0,-0.414 0.336,-0.75 0.75,-0.75 0.414,0 0.75,0.336 0.75,0.75 L 6.5,31 Z"
     id="path38"
     inkscape:connector-curvature="0"
     style="fill:#66757f" />
</svg>
