<?xml version="1.0" encoding="UTF-8" standalone="no"?>
<svg
   xmlns:dc="http://purl.org/dc/elements/1.1/"
   xmlns:cc="http://creativecommons.org/ns#"
   xmlns:rdf="http://www.w3.org/1999/02/22-rdf-syntax-ns#"
   xmlns:svg="http://www.w3.org/2000/svg"
   xmlns="http://www.w3.org/2000/svg"
   xmlns:sodipodi="http://sodipodi.sourceforge.net/DTD/sodipodi-0.dtd"
   xmlns:inkscape="http://www.inkscape.org/namespaces/inkscape"
   viewBox="0 0 36 36"
   id="svg2"
   version="1.1"
   inkscape:version="0.91 r13725"
   sodipodi:docname="1f469-200d-1f4bc.svg"
   width="36"
   height="36">
  <metadata
     id="metadata40">
    <rdf:RDF>
      <cc:Work
         rdf:about="">
        <dc:format>image/svg+xml</dc:format>
        <dc:type
           rdf:resource="http://purl.org/dc/dcmitype/StillImage" />
      </cc:Work>
    </rdf:RDF>
  </metadata>
  <defs
     id="defs38" />
  <sodipodi:namedview
     pagecolor="#ffffff"
     bordercolor="#666666"
     borderopacity="1"
     objecttolerance="10"
     gridtolerance="10"
     guidetolerance="10"
     inkscape:pageopacity="0"
     inkscape:pageshadow="2"
     inkscape:window-width="640"
     inkscape:window-height="480"
     id="namedview36"
     showgrid="false"
     inkscape:zoom="6.5555556"
     inkscape:cx="18"
     inkscape:cy="18"
     inkscape:window-x="0"
     inkscape:window-y="0"
     inkscape:window-maximized="0"
     inkscape:current-layer="svg2" />
  <path
     d="m 30,26 c 0,2.209 -1.791,4 -4,4 L 4,30 C 1.791,30 0,28.209 0,26 L 0,4 C 0,1.791 1.791,0 4,0 l 22,0 c 2.209,0 4,1.791 4,4 l 0,22 z"
     id="path4"
     inkscape:connector-curvature="0"
     style="fill:#ccd6dc" />
  <path
     d="m 28,26 c 0,1.104 -0.896,2 -2,2 L 4,28 C 2.896,28 2,27.104 2,26 L 2,4 C 2,2.896 2.896,2 4,2 l 22,0 c 1.104,0 2,0.896 2,2 l 0,22 z"
     id="path6"
     inkscape:connector-curvature="0"
     style="fill:#f5f8fa" />
  <path
     d="M 6,26 C 5.447,26 5,25.552 5,25 L 5,13 c 0,-0.552 0.447,-1 1,-1 0.553,0 1,0.448 1,1 l 0,12 c 0,0.552 -0.447,1 -1,1 z"
     id="path8"
     inkscape:connector-curvature="0"
     style="fill:#50a5e6" />
  <path
     d="M 10,26 C 9.447,26 9,25.552 9,25 L 9,8 c 0,-0.552 0.447,-1 1,-1 0.553,0 1,0.448 1,1 l 0,17 c 0,0.552 -0.447,1 -1,1 z"
     id="path10"
     inkscape:connector-curvature="0"
     style="fill:#77b255" />
  <path
     d="m 36,36 0,-4.5 C 36,28.186 32.439,26 29.125,26 l -12,0 C 13.812,26 10,28.186 10,31.5 l 0,4.5 26,0 z"
     id="path12"
     inkscape:connector-curvature="0"
     style="fill:#226798" />
  <path
     d="M 28.25,26 25.068,36 20.977,36 18.25,26"
     id="path14"
     inkscape:connector-curvature="0"
     style="fill:#f4f7f9" />
  <path
     d="m 19,26 -1.5,0 -1,5.5 3,1 -0.5,3.5 3.5,0 z m 8.5,0 1.5,0 0.5,5.5 -3,1 0.5,3.5 -3.5,0 z"
     id="path16"
     inkscape:connector-curvature="0"
     style="fill:#3a87c2" />
  <path
     d="m 23.2,3.979 c 4.104,0 10.947,2.053 10.947,10.947 0,8.895 0,10.948 -2.053,10.948 -2.053,0 -4.79,-2.053 -8.895,-2.053 -4.106,0 -6.785,2.053 -8.896,2.053 -2.287,0 -2.053,-8.211 -2.053,-10.948 C 12.252,6.031 19.095,3.979 23.2,3.979"
     id="path18"
     inkscape:connector-curvature="0"
     style="fill:#faaa35" />
  <path
     d="m 19.755,26 c 1,1.982 2.792,4.5 3.5,4.5 0.708,0 2.512,-2.549 3.5,-4.5 l 0,-3.591 -7,0 0,3.591 z"
     id="path20"
     inkscape:connector-curvature="0"
     style="fill:#ffdb5e" />
  <path
     d="m 19.755,24.054 c 0.975,1.102 2.185,1.4 3.499,1.4 1.315,0 2.526,-0.298 3.501,-1.4 l 0,-2.801 -7,0 0,2.801 z"
     id="path22"
     inkscape:connector-curvature="0"
     style="fill:#f8c954" />
  <path
     d="m 14.989,14.627 c 0,-5.834 3.676,-10.563 8.211,-10.563 4.533,0 8.209,4.729 8.209,10.563 0,5.833 -3.676,10.285 -8.209,10.285 -4.535,0 -8.211,-4.452 -8.211,-10.285"
     id="path24"
     inkscape:connector-curvature="0"
     style="fill:#ffdb5e" />
  <path
     d="m 23.2,22.452 c -1.606,0 -2.447,-0.794 -2.537,-0.885 -0.268,-0.267 -0.268,-0.7 0,-0.967 0.266,-0.265 0.692,-0.267 0.961,-0.007 0.035,0.032 0.551,0.491 1.576,0.491 1.038,0 1.555,-0.473 1.576,-0.492 0.273,-0.256 0.703,-0.248 0.963,0.019 0.26,0.269 0.26,0.691 -0.004,0.955 -0.089,0.092 -0.929,0.886 -2.535,0.886"
     id="path26"
     inkscape:connector-curvature="0"
     style="fill:#de2032" />
  <path
     d="m 24.091,19.409 -1.69,0 c -0.233,0 -0.423,-0.189 -0.423,-0.423 l 0,-0.153 c 0,-0.233 0.189,-0.424 0.423,-0.424 l 1.69,0 c 0.233,0 0.424,0.19 0.424,0.424 l 0,0.153 c 0,0.234 -0.191,0.423 -0.424,0.423"
     id="path28"
     inkscape:connector-curvature="0"
     style="fill:#c1694f" />
  <path
     d="m 26.628,16.796 c -0.465,0 -0.846,-0.381 -0.846,-0.847 l 0,-0.845 c 0,-0.465 0.381,-0.846 0.846,-0.846 0.465,0 0.846,0.381 0.846,0.846 l 0,0.845 c 0,0.466 -0.381,0.847 -0.846,0.847 m -6.765,0 c -0.465,0 -0.846,-0.381 -0.846,-0.847 l 0,-0.845 c 0,-0.465 0.381,-0.846 0.846,-0.846 0.466,0 0.847,0.381 0.847,0.846 l 0,0.845 c 0,0.466 -0.381,0.847 -0.847,0.847"
     id="path30"
     inkscape:connector-curvature="0"
     style="fill:#662213" />
  <path
     d="m 12.98,17.909 c -0.021,-1 -0.044,-0.224 -0.044,-0.465 0,-3.422 2.053,0.494 2.053,-1.943 0,-2.438 1.368,-2.683 2.736,-4.051 0.685,-0.685 2.053,-2.026 2.053,-2.026 0,0 3.421,2.067 6.158,2.067 2.736,0 5.474,1.375 5.474,4.112 0,2.736 2.053,-1.584 2.053,1.837 0,0.244 -0.022,-0.531 -0.04,0.469 l 0.719,0 c 0.006,-2 0.006,-1.924 0.006,-3.202 C 34.148,5.813 27.306,2.5 23.2,2.5 c -4.104,0 -10.947,3.257 -10.947,12.152 0,0.793 -0.02,1.257 0.008,3.257 l 0.719,0 z"
     id="path32"
     inkscape:connector-curvature="0"
     style="fill:#faaa35" />
  <path
     d="m 33.088,14.845 c 0,1.448 -0.733,2.622 -1.639,2.622 -0.905,0 -1.639,-1.174 -1.639,-2.622 0,-1.448 0.733,-2.623 1.639,-2.623 0.906,0 1.639,1.175 1.639,2.623 m -16.389,0 c 0,1.448 -0.734,2.622 -1.639,2.622 -0.905,0 -1.639,-1.174 -1.639,-2.622 0,-1.448 0.734,-2.623 1.639,-2.623 0.905,0 1.639,1.175 1.639,2.623"
     id="path34"
     inkscape:connector-curvature="0"
     style="fill:#ffdb5e" />
</svg>
