<?xml version="1.0" encoding="UTF-8" standalone="no"?>
<svg
   xmlns:dc="http://purl.org/dc/elements/1.1/"
   xmlns:cc="http://creativecommons.org/ns#"
   xmlns:rdf="http://www.w3.org/1999/02/22-rdf-syntax-ns#"
   xmlns:svg="http://www.w3.org/2000/svg"
   xmlns="http://www.w3.org/2000/svg"
   xmlns:sodipodi="http://sodipodi.sourceforge.net/DTD/sodipodi-0.dtd"
   xmlns:inkscape="http://www.inkscape.org/namespaces/inkscape"
   viewBox="0 0 34.467834 35.234383"
   id="svg2"
   version="1.1"
   inkscape:version="0.91 r13725"
   sodipodi:docname="1f46f.svg"
   width="34.467834"
   height="35.234383">
  <metadata
     id="metadata64">
    <rdf:RDF>
      <cc:Work
         rdf:about="">
        <dc:format>image/svg+xml</dc:format>
        <dc:type
           rdf:resource="http://purl.org/dc/dcmitype/StillImage" />
      </cc:Work>
    </rdf:RDF>
  </metadata>
  <defs
     id="defs62" />
  <sodipodi:namedview
     pagecolor="#ffffff"
     bordercolor="#666666"
     borderopacity="1"
     objecttolerance="10"
     gridtolerance="10"
     guidetolerance="10"
     inkscape:pageopacity="0"
     inkscape:pageshadow="2"
     inkscape:window-width="640"
     inkscape:window-height="480"
     id="namedview60"
     showgrid="false"
     inkscape:zoom="6.5555556"
     inkscape:cx="17.225806"
     inkscape:cy="18.348336"
     inkscape:window-x="0"
     inkscape:window-y="0"
     inkscape:window-maximized="0"
     inkscape:current-layer="svg2" />
  <path
     d="m 7.7898061,33.321046 c 0.131,0.787 -2.091,1.454 -2.376,1.326 -0.305,-0.137 0.988,-0.808 0.967,-1.226 -0.106,-2.12 -0.904,-1.961 -0.818,-4.18 -0.802,-2.376 -0.735,-4.653 -0.772,-5.287 -0.087,-1.472 3.528,0.615 3.509,1.518 -0.038,1.776 -0.663,2.321 -0.687,3.502 0.42,1.882 -0.131,2.499 0.177,4.347 z m 7.1889999,-0.872 c 0.353,0.715 0.726,1.971 0.416,1.931 -0.331,-0.043 -1.396,-0.505 -1.736,-1.427 -0.734,-1.991 -1.804,-1.447 -2.364,-3.596 -1.047,-1.579 -2.1859999,-3.886 -2.4059999,-4.482 -0.509,-1.384 3.4409999,-1.701 3.6829999,-0.832 0.477,1.711 0.287,3.328 0.607,4.465 0.948,1.68 0.97,2.262 1.8,3.941 z"
     id="path4"
     inkscape:connector-curvature="0"
     style="fill:#ffdc5d" />
  <path
     d="m 4.8468061,25.380046 c -0.164,0.146 -0.57,0.212 -0.669,0.182 -0.232,-0.07 -0.745,-0.46 -1.026,-0.831 -0.513,-0.675 -2.60099999,-1.446 -3.10299999,-2.856 -0.085,-0.238 -0.067,-0.524 0.118,-0.86 0.113,-0.205 1.50499999,-2.37 2.76999999,-3.655 0.336,-0.342 1.248,-0.428 1.676,-0.104 0.427,0.323 0.483,0.579 0.233,1.04 -0.811,1.497 -2.441,2.342 -3.119,3.194 0.974,0.847 0.851,1.353 2.193,2.22 0.156,-0.088 0.457,-0.158 0.538,-0.136 0.08,0.022 0.264,0.154 0.224,0.397 0.024,0.02 0.226,0.196 0.271,0.286 0.126,0.245 0.107,0.934 -0.106,1.123 z m 8.0229999,0.065 c 0.176,0.132 0.586,0.163 0.682,0.125 0.225,-0.089 0.703,-0.521 0.953,-0.914 0.454,-0.715 2.471,-1.659 2.853,-3.106 0.065,-0.244 0.023,-0.528 -0.19,-0.847 -0.13,-0.195 -1.698,-2.235 -3.066,-3.41 -0.364,-0.312 -1.279,-0.322 -1.679,0.037 -0.399,0.358 -0.433,0.617 -0.146,1.056 0.934,1.424 2.628,2.129 3.375,2.922 -0.9,0.925 -0.735,1.419 -2,2.396 -0.163,-0.075 -0.469,-0.119 -0.547,-0.09 -0.078,0.029 -0.25,0.176 -0.19,0.414 -0.022,0.021 -0.209,0.214 -0.246,0.307 -0.103,0.255 -0.027,0.94 0.201,1.11 z"
     id="path6"
     inkscape:connector-curvature="0"
     style="fill:#ffdc5d" />
  <path
     d="m 14.736806,17.598046 c -0.953,-1.447 -2.684,-1.712 -3.789,-1.712 l -2.3349999,0 0,0.002 0,-0.002 -2.334,0 c -1.104,0 -2.835,0.265 -3.788,1.712 l 2.123,1.288 c 0,0 -0.131,1.332 0.682,2.988 -0.713,1.04 -0.535,2.02 -0.535,2.02 0,0 1.277,1.248 3.297,2.376 0.153,0.086 1.427,0.024 1.555,-0.096 1.7059999,-1.6 2.9999999,-2 2.9999999,-2 0,0 -0.488,-1.153 -1.05,-2.181 0.812,-1.656 1.05,-3.107 1.05,-3.107 l 2.124,-1.288 z"
     id="path8"
     inkscape:connector-curvature="0"
     style="fill:#292f33" />
  <path
     d="m 11.611806,16.821046 c 0,-0.588 -0.445,-0.935 -1,-0.935 l 0,-3 -3.9979999,0 0,3 c -0.555,0 -1,0.347 -1,0.935 0,0.323 0,3.063 2.997,3.064 l 0.004,0 c 2.9969999,-10e-4 2.9969999,-2.74 2.9969999,-3.064 z"
     id="path10"
     inkscape:connector-curvature="0"
     style="fill:#ffdc5d" />
  <path
     d="m 10.613806,12.886046 -3.9999999,0.019 0,3.981 c 0,0 2,1 3.9999999,0 l 0,-4 z"
     id="path12"
     inkscape:connector-curvature="0"
     style="fill:#f9ca55" />
  <path
     d="m 15.613806,7.8870463 c 0,-3.314 -2.687,-6.001 -6.0009999,-6.001 -1.263,0 -2.434,0.393 -3.401,1.061 -0.197,-0.03 -0.394,-0.061 -0.598,-0.061 -2.209,0 -4,1.791 -4,4 l 0,5.9999997 13.9999999,0 0,-4.9989997 z"
     id="path14"
     inkscape:connector-curvature="0"
     style="fill:#ffac33" />
  <path
     d="m 13.613806,4.8860463 -9.9999999,0 0,5.9999997 c 0,2.762 2.238,5 5,5 2.7619999,0 4.9999999,-2.237 4.9999999,-5 l 0,-5.9999997 z"
     id="path16"
     inkscape:connector-curvature="0"
     style="fill:#ffdc5d" />
  <path
     d="m 13.674806,3.8860463 -9.9999999,0 -1,5 c 4,0 4,-4 4,-4 0,0 0,4 7.9999999,4 l -1,-5 z"
     id="path18"
     inkscape:connector-curvature="0"
     style="fill:#ffac33" />
  <path
     d="m 10.613806,13.886046 -3.9999999,0 c 0,0 0,1 2,1 1.9999999,0 1.9999999,-1 1.9999999,-1 z"
     id="path20"
     inkscape:connector-curvature="0"
     style="fill:#df1f32" />
  <circle
     cx="6.1138062"
     cy="10.386046"
     r="0.5"
     id="circle22"
     style="fill:#662113" />
  <circle
     cx="11.113806"
     cy="10.386046"
     r="0.5"
     id="circle24"
     style="fill:#662113" />
  <path
     d="m 7.6138061,11.886046 2,0 c 0,0 0,1 -1,1 -1,0 -1,-1 -1,-1 z"
     id="path26"
     inkscape:connector-curvature="0"
     style="fill:#c1694f" />
  <path
     d="m 3.3008061,0.01104635 c 2.625,-0.219 3.75,2.87499995 3,4.24999995 -1.968,0 -3.937,-1.813 -3,-4.24999995 z m 9.9879999,0.063 c -2.625,-0.219 -3.7499999,2.87499995 -3,4.24999995 1.969,0 3.937,-1.813 3,-4.24999995 z"
     id="path28"
     inkscape:connector-curvature="0"
     style="fill:#292f33" />
  <path
     d="m 5.9258061,3.1360463 c 1.812,-1.438 4.3439999,-1.062 5.1559999,0.156 0.031,0.312 -0.37,1.178 -0.688,1.031 -0.8109999,-0.375 -2.1859999,-0.937 -4.0609999,-0.062 -0.094,-0.063 -0.441,-1.098 -0.407,-1.125 z M 13.582806,32.924046 c -0.386,0.475 0.511,1.883 1.188,2.168 0.564,0.238 1.545,0.149 1.842,-0.446 0.186,-0.373 -1.04,-1.842 -1.426,-1.931 -0.386,-0.089 0.594,0.475 -0.356,0.564 -0.684,0.065 -1.248,-0.355 -1.248,-0.355 z m -5.7929999,0.397 c 0.505,0.435 0.654,1.474 -1.069,1.801 -1.268,0.241 -2.228,0.086 -2.347,-0.386 -0.148,-0.594 1.486,-1.277 1.902,-1.367 0.416,-0.089 -0.475,0.564 0.238,0.535 0.712,-0.03 1.276,-0.583 1.276,-0.583 z"
     id="path30"
     inkscape:connector-curvature="0"
     style="fill:#292f33" />
  <path
     d="m 24.872806,33.321046 c 0.131,0.787 -2.091,1.454 -2.376,1.326 -0.305,-0.137 0.988,-0.808 0.967,-1.226 -0.106,-2.12 -0.904,-1.961 -0.818,-4.18 -0.802,-2.376 -0.735,-4.653 -0.772,-5.287 -0.087,-1.472 3.528,0.615 3.509,1.518 -0.038,1.776 -0.663,2.321 -0.687,3.502 0.419,1.882 -0.132,2.499 0.177,4.347 z m 7.188,-0.872 c 0.353,0.715 0.726,1.971 0.416,1.931 -0.331,-0.043 -1.396,-0.505 -1.736,-1.427 -0.734,-1.991 -1.804,-1.447 -2.364,-3.596 -1.047,-1.579 -2.186,-3.886 -2.406,-4.482 -0.509,-1.384 3.441,-1.701 3.683,-0.832 0.477,1.711 0.287,3.328 0.607,4.465 0.948,1.68 0.97,2.262 1.8,3.941 z"
     id="path32"
     inkscape:connector-curvature="0"
     style="fill:#ffdc5d" />
  <path
     d="m 21.928806,25.380046 c -0.164,0.146 -0.57,0.212 -0.669,0.182 -0.232,-0.07 -0.745,-0.46 -1.026,-0.831 -0.513,-0.675 -2.601,-1.446 -3.103,-2.856 -0.085,-0.238 -0.067,-0.524 0.118,-0.86 0.113,-0.205 1.505,-2.37 2.77,-3.655 0.336,-0.342 1.248,-0.428 1.676,-0.104 0.427,0.323 0.483,0.579 0.233,1.04 -0.811,1.497 -2.441,2.342 -3.119,3.194 0.974,0.847 0.851,1.353 2.193,2.22 0.156,-0.088 0.457,-0.158 0.538,-0.136 0.08,0.022 0.264,0.154 0.224,0.397 0.024,0.02 0.226,0.196 0.271,0.286 0.126,0.245 0.107,0.934 -0.106,1.123 z m 8.023,0.065 c 0.176,0.132 0.586,0.163 0.682,0.125 0.225,-0.089 0.703,-0.521 0.953,-0.914 0.454,-0.715 2.471,-1.659 2.853,-3.106 0.065,-0.244 0.023,-0.528 -0.19,-0.847 -0.13,-0.195 -1.698,-2.235 -3.066,-3.41 -0.364,-0.312 -1.279,-0.322 -1.679,0.037 -0.399,0.358 -0.433,0.617 -0.146,1.056 0.934,1.424 2.628,2.129 3.375,2.922 -0.9,0.925 -0.735,1.419 -2,2.396 -0.163,-0.075 -0.469,-0.119 -0.547,-0.09 -0.078,0.029 -0.25,0.176 -0.19,0.414 -0.022,0.021 -0.209,0.214 -0.246,0.307 -0.103,0.255 -0.027,0.94 0.201,1.11 z"
     id="path34"
     inkscape:connector-curvature="0"
     style="fill:#ffdc5d" />
  <path
     d="m 31.818806,17.598046 c -0.953,-1.447 -2.684,-1.712 -3.788,-1.712 l -2.335,0 0,0.002 0,-0.002 -2.335,0 c -1.104,0 -2.835,0.265 -3.788,1.712 l 2.123,1.288 c 0,0 -0.131,1.332 0.682,2.988 -0.713,1.04 -0.535,2.02 -0.535,2.02 0,0 1.277,1.248 3.297,2.376 0.153,0.086 1.427,0.024 1.555,-0.096 1.706,-1.6 3,-2 3,-2 0,0 -0.488,-1.153 -1.05,-2.181 0.812,-1.656 1.05,-3.107 1.05,-3.107 l 2.124,-1.288 z"
     id="path36"
     inkscape:connector-curvature="0"
     style="fill:#292f33" />
  <path
     d="m 28.693806,16.821046 c 0,-0.588 -0.445,-0.935 -1,-0.935 l 0,-3 -3.998,0 0,3 c -0.555,0 -1,0.347 -1,0.935 0,0.323 0,3.063 2.997,3.064 l 0.004,0 c 2.997,-10e-4 2.997,-2.74 2.997,-3.064 z"
     id="path38"
     inkscape:connector-curvature="0"
     style="fill:#ffdc5d" />
  <path
     d="m 27.695806,12.886046 -4,0.019 0,3.981 c 0,0 2,1 4,0 l 0,-4 z"
     id="path40"
     inkscape:connector-curvature="0"
     style="fill:#f9ca55" />
  <path
     d="m 32.695806,7.8870463 c 0,-3.314 -2.686,-6.001 -6.001,-6.001 -1.264,0 -2.435,0.393 -3.402,1.061 -0.196,-0.03 -0.392,-0.061 -0.597,-0.061 -2.209,0 -4,1.791 -4,4 l 0,5.9999997 14,0 0,-4.9989997 z"
     id="path42"
     inkscape:connector-curvature="0"
     style="fill:#ffac33" />
  <path
     d="m 30.695806,4.8860463 -10,0 0,5.9999997 c 0,2.762 2.238,5 5,5 2.762,0 5,-2.237 5,-5 l 0,-5.9999997 z"
     id="path44"
     inkscape:connector-curvature="0"
     style="fill:#ffdc5d" />
  <path
     d="m 30.756806,3.8860463 -10,0 -1,5 c 4,0 4,-4 4,-4 0,0 0,4 8,4 l -1,-5 z"
     id="path46"
     inkscape:connector-curvature="0"
     style="fill:#ffac33" />
  <path
     d="m 27.695806,13.886046 -4,0 c 0,0 0,1 2,1 2,0 2,-1 2,-1 z"
     id="path48"
     inkscape:connector-curvature="0"
     style="fill:#df1f32" />
  <circle
     cx="23.195805"
     cy="10.386046"
     r="0.5"
     id="circle50"
     style="fill:#662113" />
  <circle
     cx="28.195805"
     cy="10.386046"
     r="0.5"
     id="circle52"
     style="fill:#662113" />
  <path
     d="m 24.695806,11.886046 2,0 c 0,0 0,1 -1,1 -1,0 -1,-1 -1,-1 z"
     id="path54"
     inkscape:connector-curvature="0"
     style="fill:#c1694f" />
  <path
     d="m 20.383806,0.01104635 c 2.625,-0.219 3.75,2.87499995 3,4.24999995 -1.969,0 -3.938,-1.813 -3,-4.24999995 z m 9.987,0.063 c -2.625,-0.219 -3.75,2.87499995 -3,4.24999995 1.969,0 3.937,-1.813 3,-4.24999995 z"
     id="path56"
     inkscape:connector-curvature="0"
     style="fill:#292f33" />
  <path
     d="m 23.008806,3.1360463 c 1.812,-1.438 4.344,-1.062 5.156,0.156 0.031,0.312 -0.37,1.178 -0.688,1.031 -0.812,-0.375 -2.188,-0.938 -4.063,-0.062 -0.093,-0.063 -0.44,-1.098 -0.405,-1.125 z m 7.656,29.7879997 c -0.386,0.475 0.511,1.883 1.188,2.168 0.564,0.238 1.545,0.149 1.842,-0.446 0.186,-0.373 -1.04,-1.842 -1.426,-1.931 -0.386,-0.089 0.594,0.475 -0.356,0.564 -0.684,0.065 -1.248,-0.355 -1.248,-0.355 z m -5.792,0.397 c 0.505,0.435 0.654,1.474 -1.069,1.801 -1.268,0.241 -2.228,0.086 -2.347,-0.386 -0.149,-0.594 1.485,-1.277 1.901,-1.366 0.416,-0.089 -0.475,0.564 0.238,0.535 0.712,-0.031 1.277,-0.584 1.277,-0.584 z"
     id="path58"
     inkscape:connector-curvature="0"
     style="fill:#292f33" />
</svg>
