<?xml version="1.0" encoding="UTF-8" standalone="no"?>
<svg
   xmlns:dc="http://purl.org/dc/elements/1.1/"
   xmlns:cc="http://creativecommons.org/ns#"
   xmlns:rdf="http://www.w3.org/1999/02/22-rdf-syntax-ns#"
   xmlns:svg="http://www.w3.org/2000/svg"
   xmlns="http://www.w3.org/2000/svg"
   xmlns:sodipodi="http://sodipodi.sourceforge.net/DTD/sodipodi-0.dtd"
   xmlns:inkscape="http://www.inkscape.org/namespaces/inkscape"
   viewBox="0 0 28.006002 36"
   id="svg2"
   version="1.1"
   inkscape:version="0.91 r13725"
   sodipodi:docname="1f468-1f3fe-200d-1f692.svg"
   width="28.006002"
   height="36">
  <metadata
     id="metadata42">
    <rdf:RDF>
      <cc:Work
         rdf:about="">
        <dc:format>image/svg+xml</dc:format>
        <dc:type
           rdf:resource="http://purl.org/dc/dcmitype/StillImage" />
      </cc:Work>
    </rdf:RDF>
  </metadata>
  <defs
     id="defs40" />
  <sodipodi:namedview
     pagecolor="#ffffff"
     bordercolor="#666666"
     borderopacity="1"
     objecttolerance="10"
     gridtolerance="10"
     guidetolerance="10"
     inkscape:pageopacity="0"
     inkscape:pageshadow="2"
     inkscape:window-width="640"
     inkscape:window-height="480"
     id="namedview38"
     showgrid="false"
     inkscape:zoom="6.5555556"
     inkscape:cx="14.005163"
     inkscape:cy="18"
     inkscape:window-x="0"
     inkscape:window-y="0"
     inkscape:window-maximized="0"
     inkscape:current-layer="svg2" />
  <path
     d="m 28.005163,36 0,-2 c 0,-3.313 -2.687,-6 -6,-6 L 6.0051626,28 c -3.313,0 -6.00000002,2.687 -6.00000002,6 l 0,2 28.00000042,0 z"
     id="path4"
     inkscape:connector-curvature="0"
     style="fill:#ce9e5d" />
  <path
     d="m 0.09516258,33 c -0.055,0.326 -0.09,0.659 -0.09,1 l 0,2 28.00000042,0 0,-2 c 0,-0.341 -0.035,-0.674 -0.09,-1 L 0.09516258,33 Z"
     id="path6"
     inkscape:connector-curvature="0"
     style="fill:#fff35f" />
  <path
     d="m 0.00516258,34 28.00000042,0 0,1 -28.00000042,0 z"
     id="path8"
     inkscape:connector-curvature="0"
     style="fill:#ccd6dd" />
  <path
     d="m 28.005163,13.656 c 0,3.59 -6.268,6.5 -14,6.5 -7.7320004,0 -14.00000042,-2.91 -14.00000042,-6.5 0,-3.59 6.26800002,-2.5 14.00000042,-2.5 7.732,0 14,-1.09 14,2.5 z"
     id="path10"
     inkscape:connector-curvature="0"
     style="fill:#a0041e" />
  <path
     d="m 10.005163,27 8,0 c 0,0 -1.018,7 -4,7 -2.982,0 -4,-7 -4,-7 z"
     id="path12"
     inkscape:connector-curvature="0"
     style="fill:#292f33" />
  <path
     d="m 9.6451626,28.101 c 1.7440004,1.267 2.8480004,1.962 4.3600004,1.962 1.511,0 2.616,-0.696 4.36,-1.962 l 0,-3.811 -8.7200004,0 0,3.811 z"
     id="path14"
     inkscape:connector-curvature="0"
     style="fill:#af7e57" />
  <path
     d="m 9.6371626,25.973 c 1.2160004,1.374 2.7240004,1.746 4.3640004,1.746 1.639,0 3.147,-0.372 4.364,-1.746 l 0,-3.491 -8.7280004,0 0,3.491 z"
     id="path16"
     inkscape:connector-curvature="0"
     style="fill:#9b6a49" />
  <path
     d="m 7.4491626,15.935 c 0,1.448 -0.734,2.622 -1.639,2.622 -0.905,0 -1.639,-1.174 -1.639,-2.622 0,-1.448 0.734,-2.623 1.639,-2.623 0.906,0.001 1.639,1.175 1.639,2.623 z m 16.3890004,0 c 0,1.448 -0.734,2.622 -1.639,2.622 -0.905,0 -1.639,-1.174 -1.639,-2.622 0,-1.448 0.734,-2.623 1.639,-2.623 0.906,0.001 1.639,1.175 1.639,2.623 z"
     id="path18"
     inkscape:connector-curvature="0"
     style="fill:#af7e57" />
  <path
     d="m 5.4831626,16.96 c 0,-5.589 3.816,-10.121 8.5220004,-10.121 4.706,0 8.522,4.531 8.522,10.121 0,5.589 -3.816,10.12 -8.522,10.12 -4.7060004,0 -8.5220004,-4.531 -8.5220004,-10.12 z"
     id="path20"
     inkscape:connector-curvature="0"
     style="fill:#af7e57" />
  <path
     d="m 14.005163,23.802 c -2.754,0 -3.6,-0.706 -3.741,-0.848 -0.256,-0.256 -0.256,-0.671 0,-0.927 0.248,-0.248 0.645,-0.255 0.902,-0.024 0.052,0.038 0.721,0.487 2.839,0.487 2.2,0 2.836,-0.485 2.842,-0.49 0.255,-0.255 0.656,-0.243 0.913,0.013 0.256,0.256 0.242,0.684 -0.014,0.94 -0.141,0.143 -0.987,0.849 -3.741,0.849 z"
     id="path22"
     inkscape:connector-curvature="0"
     style="fill:#915a34" />
  <path
     d="m 14.005163,3.479 c 5.648,0 9.178,4.168 9.178,7.641 0,3.473 -0.706,4.863 -1.412,3.473 l -1.412,-2.778 c 0,0 -4.236,0 -5.648,-1.39 0,0 2.118,4.168 -2.118,0 0,0 0.706,2.779 -3.5300004,-0.695 0,0 -2.118,1.39 -2.824,4.863 -0.196,0.963 -1.412,0 -1.412,-3.473 0,-3.473 2.824,-7.641 9.1780004,-7.641 z"
     id="path24"
     inkscape:connector-curvature="0"
     style="fill:#60352a" />
  <path
     d="M 10.005163,17 C 9.4551626,17 9.0051626,16.55 9.0051626,16 l 0,-1 c 0,-0.55 0.45,-1 1.0000004,-1 0.55,0 1,0.45 1,1 l 0,1 c 0,0.55 -0.45,1 -1,1 z m 8,0 c -0.55,0 -1,-0.45 -1,-1 l 0,-1 c 0,-0.55 0.45,-1 1,-1 0.55,0 1,0.45 1,1 l 0,1 c 0,0.55 -0.45,1 -1,1 z"
     id="path26"
     inkscape:connector-curvature="0"
     style="fill:#60352a" />
  <path
     d="m 14.755163,19.75 -1.5,0 c -0.413,0 -0.75,-0.337 -0.75,-0.75 0,-0.413 0.337,-0.75 0.75,-0.75 l 1.5,0 c 0.413,0 0.75,0.337 0.75,0.75 0,0.413 -0.337,0.75 -0.75,0.75 z"
     id="path28"
     inkscape:connector-curvature="0"
     style="fill:#915a34" />
  <path
     d="m 23.005163,36 0,-9 c 0,-0.55 -0.45,-1 -1,-1 l -1,0 c -0.55,0 -1,0.45 -1,1 l 0,9 3,0 z m -15.0000004,0 0,-9 c 0,-0.55 -0.45,-1 -1,-1 l -1,0 c -0.55,0 -1,0.45 -1,1 l 0,9 3,0 z"
     id="path30"
     inkscape:connector-curvature="0"
     style="fill:#292f33" />
  <path
     d="m 24.858163,10.857 c -0.86,-0.173 -1.093,-4.028 -3.084,-6.859 -1.875,-2.663 -5.465,-3.998 -7.772,-3.998 -2.307,0 -5.8970004,1.335 -7.7710004,3.998 -1.992,2.831 -2.224,6.686 -3.084,6.859 -3.31700002,0.665 -3.16100002,2.386 -3.14000002,2.782 0.123,-0.466 0.438,-1.578 3.90200002,-1.64 3.404,-0.06 6.5800004,0.806 10.0940004,0.806 3.514,0 6.69,-0.866 10.094,-0.806 3.464,0.061 3.778,1.173 3.902,1.64 0.02,-0.396 0.176,-2.117 -3.141,-2.782 z"
     id="path32"
     inkscape:connector-curvature="0"
     style="fill:#df1f32" />
  <path
     d="m 14.005163,0 c -2.094,0 -5.0000004,3.593 -5.0000004,5.054 l 0,3.946 c 0,0 0.109,1 0.92,1 l 8.1600004,0 c 0.811,0 0.92,-1 0.92,-1 l 0,-3.946 c 0,-1.461 -2.906,-5.054 -5,-5.054 z"
     id="path34"
     inkscape:connector-curvature="0"
     style="fill:#ea596e" />
  <path
     d="m 19.888163,25 c -0.406,-0.378 -2.474,0.364 -3.019,1 -0.545,0.636 -0.638,1.737 -1.01,3 -0.318,1.079 -1.572,3.958 -1.931,4.775 -0.358,-0.817 -1.605,-3.696 -1.923,-4.775 -0.372,-1.263 -0.455,-2.364 -1,-3 -0.545,-0.636 -2.5940004,-1.378 -3.0000004,-1 -0.406,0.378 0.015,1.463 0,2 -0.015,0.537 0,9 0,9 l 12.0000004,0 c 0,0 0.015,-8.463 0,-9 -0.015,-0.537 0.289,-1.622 -0.117,-2 z"
     id="path36"
     inkscape:connector-curvature="0"
     style="fill:#ce9e5d" />
</svg>
