<?xml version="1.0" encoding="UTF-8" standalone="no"?>
<svg
   xmlns:dc="http://purl.org/dc/elements/1.1/"
   xmlns:cc="http://creativecommons.org/ns#"
   xmlns:rdf="http://www.w3.org/1999/02/22-rdf-syntax-ns#"
   xmlns:svg="http://www.w3.org/2000/svg"
   xmlns="http://www.w3.org/2000/svg"
   xmlns:sodipodi="http://sodipodi.sourceforge.net/DTD/sodipodi-0.dtd"
   xmlns:inkscape="http://www.inkscape.org/namespaces/inkscape"
   viewBox="0 0 36 36"
   id="svg2"
   version="1.1"
   inkscape:version="0.91 r13725"
   sodipodi:docname="1f468-200d-1f469-200d-1f467-200d-1f466.svg"
   width="36"
   height="36">
  <metadata
     id="metadata62">
    <rdf:RDF>
      <cc:Work
         rdf:about="">
        <dc:format>image/svg+xml</dc:format>
        <dc:type
           rdf:resource="http://purl.org/dc/dcmitype/StillImage" />
      </cc:Work>
    </rdf:RDF>
  </metadata>
  <defs
     id="defs60" />
  <sodipodi:namedview
     pagecolor="#ffffff"
     bordercolor="#666666"
     borderopacity="1"
     objecttolerance="10"
     gridtolerance="10"
     guidetolerance="10"
     inkscape:pageopacity="0"
     inkscape:pageshadow="2"
     inkscape:window-width="640"
     inkscape:window-height="480"
     id="namedview58"
     showgrid="false"
     inkscape:zoom="6.5555556"
     inkscape:cx="18"
     inkscape:cy="18"
     inkscape:window-x="0"
     inkscape:window-y="0"
     inkscape:window-maximized="0"
     inkscape:current-layer="svg2" />
  <path
     d="m 21,14 c 0.253,3.89 3.521,6.969 7.5,6.969 3.979,0 7.247,-3.079 7.5,-6.969 L 36,4 21,4 21,14 Z"
     id="path4"
     inkscape:connector-curvature="0"
     style="fill:#ffdc5d" />
  <path
     d="M 36,21.752 36,14 c -0.253,3.89 -3.521,6.969 -7.5,6.969 C 24.521,20.969 21.253,17.89 21,14 L 21,9.663 C 26.328,9.508 29.51,7.32 31.237,5.482 31.652,6.957 32.801,9 36,9 L 36,1.9 C 35.069,1.211 33.885,0.807 32.538,0.807 c -0.333,0 -0.657,0.034 -0.974,0.09 C 30.393,0.328 29.39,0 28,0 23.093,0 19,4.093 19,9 l 0,7 c 0.064,2.258 0.868,4.35 2.182,6 l 2.818,2 9,0 2.818,-2 C 35.882,21.92 35.939,21.834 36,21.752 Z"
     id="path6"
     inkscape:connector-curvature="0"
     style="fill:#ffac33" />
  <path
     d="M 35.818,22 21,22 c -2,0 -3,1 -3,2.973 L 18,36 l 18,0 0,-14 -0.182,0 z"
     id="path8"
     inkscape:connector-curvature="0"
     style="fill:#9268ca" />
  <path
     d="m 20.986,26 1.028,0 0,10 -1.028,0 z"
     id="path10"
     inkscape:connector-curvature="0"
     style="fill:#7450a8" />
  <path
     d="m 26,19 0,3 c 0,1.381 1.119,2.5 2.5,2.5 1.381,0 2.5,-1.119 2.5,-2.5 l 0,-3 -5,0 z"
     id="path12"
     inkscape:connector-curvature="0"
     style="fill:#ffdc5d" />
  <path
     d="m 25.27,17.769 6.46,0 c 0,0 -0.808,1.616 -3.23,1.616 -2.422,0 -3.23,-1.616 -3.23,-1.616 z"
     id="path14"
     inkscape:connector-curvature="0"
     style="fill:#da2f47" />
  <path
     d="m 29,15.5 -1,0 c -0.276,0 -0.5,-0.224 -0.5,-0.5 0,-0.276 0.224,-0.5 0.5,-0.5 l 1,0 c 0.276,0 0.5,0.224 0.5,0.5 0,0.276 -0.224,0.5 -0.5,0.5 z"
     id="path16"
     inkscape:connector-curvature="0"
     style="fill:#bf6952" />
  <path
     d="m 25,13 c -0.553,0 -1,-0.448 -1,-1 l 0,-1 c 0,-0.552 0.447,-1 1,-1 0.553,0 1,0.448 1,1 l 0,1 c 0,0.552 -0.447,1 -1,1 z m 7,0 c -0.553,0 -1,-0.448 -1,-1 l 0,-1 c 0,-0.552 0.447,-1 1,-1 0.553,0 1,0.448 1,1 l 0,1 c 0,0.552 -0.447,1 -1,1 z"
     id="path18"
     inkscape:connector-curvature="0"
     style="fill:#662113" />
  <path
     d="m 5,22 0,-4 5,0 0,4 2,0 0,6 -9,0 0,-6 z"
     id="path20"
     inkscape:connector-curvature="0"
     style="fill:#ffdc5d" />
  <path
     d="M 15,22 10,22 7.528,25.778 5,22 0,22 0,36 18,36 18,24.973 C 18,23 17,22 15,22 Z"
     id="path22"
     inkscape:connector-curvature="0"
     style="fill:#3b94d9" />
  <path
     d="m 13.986,26 1.028,0 0,10 -1.028,0 z"
     id="path24"
     inkscape:connector-curvature="0"
     style="fill:#1b6399" />
  <path
     d="M 15,14 15,5 0,4 0,14 0.024,14 c 0.252,3.89 3.498,6.969 7.476,6.969 3.791,0 6.932,-2.799 7.438,-6.428 C 14.963,14.361 14.988,14.183 15,14 Z"
     id="path26"
     inkscape:connector-curvature="0"
     style="fill:#ffdc5d" />
  <path
     d="M 3.806,0.806 C 2.405,0.806 1.102,1.215 0,1.912 L 0,9.995 C 5.947,9.94 9.375,7.402 11.162,5.397 11.668,6.986 12.795,9.418 15,9.907 L 15,14 c -0.012,0.183 -0.037,0.361 -0.062,0.54 C 16.224,13.002 17,11.023 17,8.861 17,3.967 13.033,0 8.139,0 6.801,0 5.538,0.305 4.4,0.836 4.204,0.819 4.006,0.806 3.806,0.806 Z M 15,5 15,5.166 14.972,4.999 15,5 Z"
     id="path28"
     inkscape:connector-curvature="0"
     style="fill:#ffac33" />
  <path
     d="m 10.722,17.723 -6.444,0 c 0,0 0.805,1.61 3.222,1.61 2.417,0 3.222,-1.61 3.222,-1.61 z M 8,15.5 7,15.5 C 6.724,15.5 6.5,15.276 6.5,15 6.5,14.724 6.724,14.5 7,14.5 l 1,0 c 0.276,0 0.5,0.224 0.5,0.5 0,0.276 -0.224,0.5 -0.5,0.5 z"
     id="path30"
     inkscape:connector-curvature="0"
     style="fill:#bf6952" />
  <path
     d="M 4,13 C 3.448,13 3,12.552 3,12 l 0,-1 c 0,-0.552 0.448,-1 1,-1 0.552,0 1,0.448 1,1 l 0,1 c 0,0.552 -0.448,1 -1,1 z m 7,0 c -0.552,0 -1,-0.448 -1,-1 l 0,-1 c 0,-0.552 0.448,-1 1,-1 0.552,0 1,0.448 1,1 l 0,1 c 0,0.552 -0.448,1 -1,1 z"
     id="path32"
     inkscape:connector-curvature="0"
     style="fill:#662113" />
  <path
     d="m 28.998,34 0,-3 -4,0 0,3 -1,0 0,2 6,0 0,-2 z"
     id="path34"
     inkscape:connector-curvature="0"
     style="fill:#ffdc5d" />
  <path
     d="m 24.998,33 -2,0 c -2.493,0 -4.276,1.385 -4.814,3 l 17.632,0 c -0.517,-1.602 -2.159,-3 -3.818,-3 l -3,0 -0.466,0.466 -1.534,1.534 -2,-2 z"
     id="path36"
     inkscape:connector-curvature="0"
     style="fill:#88c9f9" />
  <path
     d="M 32.993,27.04 32.991,27 l 0.007,0 0,-4.286 -4.286,-0.857 -7.714,0.857 0,4.286 0.002,0 -0.002,0.04 c 0,0.644 0.106,1.263 0.296,1.844 0.782,2.388 3.038,4.116 5.702,4.116 2.659,0 4.911,-1.722 5.697,-4.103 0.192,-0.585 0.3,-1.208 0.3,-1.857 z"
     id="path38"
     inkscape:connector-curvature="0"
     style="fill:#ffdc5d" />
  <path
     d="M 33.998,25.125 C 33.998,21.742 31.256,19 27.873,19 27.575,19 27.285,19.029 26.998,19.07 26.712,19.029 26.421,19 26.123,19 c -3.383,0 -6.125,2.742 -6.125,6.125 0,1.418 0.487,2.721 1.296,3.759 -0.19,-0.581 -0.296,-1.2 -0.296,-1.844 L 21,27 l -0.002,0 0,-1.911 c 4.172,-0.181 6.588,-1.592 7.929,-2.91 0.91,1.074 2.351,2.414 4.071,2.816 l 0,2.005 -0.007,0 0.002,0.04 c 0,0.649 -0.108,1.272 -0.301,1.857 0.816,-1.04 1.306,-2.348 1.306,-3.772 z"
     id="path40"
     inkscape:connector-curvature="0"
     style="fill:#f4900c" />
  <path
     d="m 28.998,30 -4,0 c 0,0 0.389,1.333 2,1.333 1.611,0 2,-1.333 2,-1.333 z m -2,-0.5 c -0.13,0 -0.26,-0.05 -0.35,-0.15 -0.1,-0.09 -0.15,-0.22 -0.15,-0.35 0,-0.13 0.05,-0.26 0.15,-0.36 0.17,-0.17 0.52,-0.18 0.71,0.01 0.09,0.091 0.14,0.221 0.14,0.351 0,0.13 -0.05,0.26 -0.15,0.35 -0.09,0.099 -0.22,0.149 -0.35,0.149 z"
     id="path42"
     inkscape:connector-curvature="0"
     style="fill:#bf6952" />
  <path
     d="m 28.998,28 c -0.461,0 -0.833,-0.373 -0.833,-0.833 l 0,-0.833 c 0,-0.461 0.373,-0.833 0.833,-0.833 0.461,0 0.833,0.373 0.833,0.833 l 0,0.833 C 29.832,27.627 29.459,28 28.998,28 Z m -4,0 c -0.461,0 -0.833,-0.373 -0.833,-0.833 l 0,-0.833 c 0,-0.461 0.373,-0.833 0.833,-0.833 0.461,0 0.833,0.373 0.833,0.833 l 0,0.833 C 25.832,27.627 25.459,28 24.998,28 Z"
     id="path44"
     inkscape:connector-curvature="0"
     style="fill:#662113" />
  <path
     d="M 2.998,22.714 2.998,27 3,27 2.998,27.04 c 0,3.291 2.685,5.96 5.997,5.96 3.312,0 5.997,-2.669 5.997,-5.96 L 14.99,27 l 0.007,0 0,-4.286 -4.286,-0.857 -7.713,0.857 z"
     id="path46"
     inkscape:connector-curvature="0"
     style="fill:#ffdc5d" />
  <path
     d="m 15.995,25.192 c 0,-0.023 0.003,-0.044 0.003,-0.067 L 15.996,25.086 15.998,25 15.992,25.006 C 15.928,21.679 13.216,19 9.873,19 9.575,19 9.285,19.029 8.998,19.07 8.712,19.029 8.421,19 8.123,19 4.74,19 1.998,21.742 1.998,25.125 c 0,0 0.125,3.188 -1,6.875 0,0 3.344,2 8,2 4.656,0 8,-2 8,-2 -0.968,-3.172 -1.01,-6.061 -1.003,-6.808 z M 14.993,27.04 C 14.993,30.331 12.308,33 8.996,33 5.684,33 2.999,30.331 2.999,27.04 2.998,27.027 3,27.013 3,27 l -0.002,0 0,-1.911 c 4.172,-0.181 6.588,-1.592 7.929,-2.91 0.91,1.074 2.351,2.414 4.071,2.816 l 0,2.005 -0.007,0 0.002,0.04 z"
     id="path48"
     inkscape:connector-curvature="0"
     style="fill:#f4900c" />
  <path
     d="m 10.998,34 0,-3 -4,0 0,3 -1,0 0,2 6,0 0,-2 z"
     id="path50"
     inkscape:connector-curvature="0"
     style="fill:#ffdc5d" />
  <path
     d="m 13.998,33 -3,0 -2,2 -1.41,-1.41 -0.59,-0.59 -2,0 c -2.493,0 -4.276,1.385 -4.814,3 l 17.632,0 c -0.518,-1.602 -2.159,-3 -3.818,-3 z"
     id="path52"
     inkscape:connector-curvature="0"
     style="fill:#ea596e" />
  <path
     d="m 10.998,30 -4,0 c 0,0 0.389,1.333 2,1.333 1.611,0 2,-1.333 2,-1.333 z m -2,-0.5 c -0.13,0 -0.26,-0.05 -0.35,-0.15 -0.1,-0.09 -0.15,-0.22 -0.15,-0.35 0,-0.13 0.05,-0.26 0.15,-0.36 0.17,-0.17 0.52,-0.18 0.71,0.01 0.09,0.091 0.14,0.221 0.14,0.351 0,0.13 -0.05,0.26 -0.15,0.35 -0.09,0.099 -0.22,0.149 -0.35,0.149 z"
     id="path54"
     inkscape:connector-curvature="0"
     style="fill:#bf6952" />
  <path
     d="m 10.998,28 c -0.461,0 -0.833,-0.373 -0.833,-0.833 l 0,-0.833 c 0,-0.461 0.373,-0.833 0.833,-0.833 0.461,0 0.833,0.373 0.833,0.833 l 0,0.833 C 11.832,27.627 11.459,28 10.998,28 Z m -4,0 C 6.537,28 6.165,27.627 6.165,27.167 l 0,-0.833 c 0,-0.461 0.373,-0.833 0.833,-0.833 0.461,0 0.833,0.373 0.833,0.833 l 0,0.833 C 7.832,27.627 7.459,28 6.998,28 Z"
     id="path56"
     inkscape:connector-curvature="0"
     style="fill:#662113" />
</svg>
