<?xml version="1.0" encoding="UTF-8" standalone="no"?>
<svg
   xmlns:dc="http://purl.org/dc/elements/1.1/"
   xmlns:cc="http://creativecommons.org/ns#"
   xmlns:rdf="http://www.w3.org/1999/02/22-rdf-syntax-ns#"
   xmlns:svg="http://www.w3.org/2000/svg"
   xmlns="http://www.w3.org/2000/svg"
   xmlns:sodipodi="http://sodipodi.sourceforge.net/DTD/sodipodi-0.dtd"
   xmlns:inkscape="http://www.inkscape.org/namespaces/inkscape"
   viewBox="0 0 31.501158 36.000999"
   id="svg2"
   version="1.1"
   inkscape:version="0.91 r13725"
   sodipodi:docname="1f468-1f3ff-200d-1f91d-200d-1f468-1f3fc.svg"
   width="31.501158"
   height="36.000999">
  <metadata
     id="metadata62">
    <rdf:RDF>
      <cc:Work
         rdf:about="">
        <dc:format>image/svg+xml</dc:format>
        <dc:type
           rdf:resource="http://purl.org/dc/dcmitype/StillImage" />
      </cc:Work>
    </rdf:RDF>
  </metadata>
  <defs
     id="defs60" />
  <sodipodi:namedview
     pagecolor="#ffffff"
     bordercolor="#666666"
     borderopacity="1"
     objecttolerance="10"
     gridtolerance="10"
     guidetolerance="10"
     inkscape:pageopacity="0"
     inkscape:pageshadow="2"
     inkscape:window-width="640"
     inkscape:window-height="480"
     id="namedview58"
     showgrid="false"
     inkscape:zoom="6.5555556"
     inkscape:cx="15.744579"
     inkscape:cy="18.001"
     inkscape:window-x="0"
     inkscape:window-y="0"
     inkscape:window-maximized="0"
     inkscape:current-layer="svg2" />
  <path
     d="m 8.2425792,0 c -1.186,0 -2.282,0.379 -3.18,1.018 -1.847,0.096 -3.32,1.611 -3.32,3.482 0,1.542 0.007,3.484 2.038,4.208 0.999,1.386 2.623,2.292 4.462,2.292 3.0369998,0 5.4999998,-2.462 5.4999998,-5.499 0,-3.038 -2.462,-5.501 -5.4999998,-5.501 z"
     id="path4"
     inkscape:connector-curvature="0"
     style="fill:#0b0200" />
  <path
     d="m 15.640579,26.76 c 0.271,0.091 0.487,-0.159 0.586,-0.302 0.279,-0.405 0.422,-1.309 0.004,-2.227 -0.423,-0.927 -0.702,-2.072 -1.69,-3.821 -0.115,-0.204 -0.494,-2.746 -1.242,-4.354 -0.202,-0.435 -1.495,-0.684 -2.009,-0.529 -0.513,0.154 0.005,0.98 0.037,1.134 0.344,1.651 1.305,4.077 1.45,4.404 0.8,1.806 1.965,2.389 2.071,3.706 0.055,0.69 0.205,1.286 0.6,1.228 0.092,0.352 0.093,0.728 0.193,0.761 z M 1.0445792,26.964 C 0.78757918,27.09 0.54057918,26.87 0.42457918,26.742 c -0.33,-0.365 -0.591,-1.242 -0.296,-2.208 0.297,-0.975 0.424,-2.146 1.17400002,-4.01 0.087,-0.217 0.129,-2.787 0.66,-4.479 0.143,-0.457 1.392,-0.875 1.922,-0.789 0.529,0.086 0.124,0.972 0.112,1.129 -0.124,1.682 -0.758,4.213 -0.859,4.556 -0.556,1.895 -1.634,2.627 -1.566,3.946 0.036,0.692 -0.034,1.302 -0.433,1.296 -0.048,0.363 0,0.735 -0.094,0.781 z"
     id="path6"
     inkscape:connector-curvature="0"
     style="fill:#7c533e" />
  <path
     d="m 11.298579,29.5 c 0.5,-2.734 0.422,-6.5 0.422,-6.5 l -7.9629998,0 c 0,0 -0.078,3.766 0.422,6.5 0.063,0.344 0.188,3.344 -0.109,5.5 -0.066,0.479 2.886,0.937 2.844,-0.125 -0.078,-1.969 0.264,-3.513 0.328,-4.5 0.035,-0.547 0.25,-1.875 0.344,-3.208 0.011,-0.018 0.295,-0.018 0.306,0 0.094,1.333 0.308,2.661 0.344,3.208 0.064,0.987 0.406,2.531 0.328,4.5 -0.042,1.062 2.9099998,0.604 2.8439998,0.125 -0.298,-2.156 -0.173,-5.156 -0.11,-5.5 z"
     id="path8"
     inkscape:connector-curvature="0"
     style="fill:#aab8c2" />
  <path
     d="m 12.282579,36 c 0.499,-0.406 -0.041,-1.161 -1.42,-1.402 -1.1629998,-0.203 -2.1999998,-0.032 -2.3629998,0.35 -0.212,0.493 -0.05,1.052 -0.05,1.052 l 3.8329998,0 z m -9.1169998,0 c -0.499,-0.406 0.041,-1.161 1.42,-1.402 1.163,-0.203 2.2,-0.032 2.363,0.35 0.212,0.493 0.05,1.052 0.05,1.052 l -3.833,0 z"
     id="path10"
     inkscape:connector-curvature="0"
     style="fill:#292f33" />
  <path
     d="M 12.539579,14.766 C 11.321579,14 9.7425792,14 9.7425792,14 l -4,0 c 0,0 -1.578,0 -2.797,0.766 -1.201,0.754 -1.656,3 -1.656,3 l 2.203,0.688 0.11,5.546 8.2809998,0 0.109,-5.547 2.203,-0.688 c 10e-4,10e-4 -0.455,-2.245 -1.656,-2.999 z"
     id="path12"
     inkscape:connector-curvature="0"
     style="fill:#4289c1" />
  <path
     d="m 5.7425792,10.042 0,4 c 0,0.682 0.896,1.305 2,1.305 1.104,0 2,-0.668 2,-1.305 l 0,-4 -4,0 z"
     id="path14"
     inkscape:connector-curvature="0"
     style="fill:#7c533e" />
  <path
     d="m 5.7425792,14.042 c 0,0.682 0.896,1.305 2,1.305 1.104,0 2,-0.668 2,-1.305 l 0,-3.042 -4,0.019 0,3.023 z"
     id="path16"
     inkscape:connector-curvature="0"
     style="fill:#664131" />
  <path
     d="m 12.742579,3 -9.9999998,0 0,6 c 0,2.762 2.238,5 5,5 2.7619998,0 4.9999998,-2.237 4.9999998,-5 l 0,-6 z"
     id="path18"
     inkscape:connector-curvature="0"
     style="fill:#7c533e" />
  <path
     d="m 2.7425792,2.5 -0.5,2.5 0.5,2 c 2.333,0 2.85,-2.412 2.965,-3.488 0.039,1.076 0.815,3.488 7.0349998,3.488 l 0.5,-2 -0.5,-2.5 -9.9999998,0 z"
     id="path20"
     inkscape:connector-curvature="0"
     style="fill:#0b0200" />
  <path
     d="m 9.7425792,12 -4,0 c 0,0 0,1 2,1 2,0 2,-1 2,-1 z"
     id="path22"
     inkscape:connector-curvature="0"
     style="fill:#3d2e24" />
  <circle
     cx="5.2425795"
     cy="8.5"
     r="0.5"
     id="circle24" />
  <circle
     cx="10.242579"
     cy="8.5"
     r="0.5"
     id="circle26" />
  <path
     d="m 6.7425792,10 2,0 c 0,0 0,1 -1,1 -1,0 -1,-1 -1,-1 z"
     id="path28"
     inkscape:connector-curvature="0"
     style="fill:#3d2e24" />
  <path
     d="m 24.244579,0 c -1.187,0 -2.282,0.379 -3.181,1.018 -1.846,0.096 -3.319,1.611 -3.319,3.482 0,1.542 0.007,3.484 2.038,4.208 0.998,1.386 2.622,2.292 4.462,2.292 3.037,0 5.5,-2.462 5.5,-5.499 0,-3.038 -2.463,-5.501 -5.5,-5.501 z"
     id="path30"
     inkscape:connector-curvature="0"
     style="fill:#ffe51e" />
  <path
     d="m 15.861579,26.76 c -0.271,0.091 -0.487,-0.159 -0.586,-0.302 -0.279,-0.405 -0.422,-1.309 -0.004,-2.227 0.423,-0.927 0.702,-2.072 1.69,-3.821 0.115,-0.204 0.494,-2.746 1.242,-4.354 0.202,-0.435 1.495,-0.684 2.009,-0.529 0.513,0.154 -0.005,0.98 -0.037,1.134 -0.344,1.651 -1.305,4.077 -1.45,4.404 -0.8,1.806 -1.965,2.389 -2.071,3.706 -0.055,0.69 -0.205,1.286 -0.6,1.228 -0.092,0.352 -0.094,0.728 -0.193,0.761 z m 14.595,0.204 c 0.257,0.126 0.504,-0.094 0.62,-0.222 0.33,-0.365 0.591,-1.242 0.296,-2.208 -0.297,-0.975 -0.424,-2.146 -1.174,-4.01 -0.087,-0.217 -0.129,-2.787 -0.66,-4.479 -0.143,-0.457 -1.392,-0.875 -1.922,-0.789 -0.529,0.086 -0.124,0.972 -0.112,1.129 0.124,1.682 0.758,4.213 0.859,4.556 0.556,1.895 1.634,2.627 1.566,3.946 -0.036,0.692 0.034,1.302 0.433,1.296 0.048,0.363 0,0.735 0.094,0.781 z"
     id="path32"
     inkscape:connector-curvature="0"
     style="fill:#f3d2a2" />
  <path
     d="m 15.861579,26.76 c -0.271,0.091 -0.487,-0.159 -0.586,-0.302 -0.279,-0.405 -0.422,-1.309 -0.004,-2.227 0.423,-0.927 0.702,-2.072 1.69,-3.821 0.115,-0.204 0.494,-2.746 1.242,-4.354 0.202,-0.435 1.495,-0.684 2.009,-0.529 0.513,0.154 -0.005,0.98 -0.037,1.134 -0.344,1.651 -1.305,4.077 -1.45,4.404 -0.8,1.806 -1.965,2.389 -2.071,3.706 -0.055,0.69 -0.205,1.286 -0.6,1.228 -0.092,0.352 -0.094,0.728 -0.193,0.761 z m 14.595,0.204 c 0.257,0.126 0.504,-0.094 0.62,-0.222 0.33,-0.365 0.591,-1.242 0.296,-2.208 -0.297,-0.975 -0.424,-2.146 -1.174,-4.01 -0.087,-0.217 -0.129,-2.787 -0.66,-4.479 -0.143,-0.457 -1.392,-0.875 -1.922,-0.789 -0.529,0.086 -0.124,0.972 -0.112,1.129 0.124,1.682 0.758,4.213 0.859,4.556 0.556,1.895 1.634,2.627 1.566,3.946 -0.036,0.692 0.034,1.302 0.433,1.296 0.048,0.363 0,0.735 0.094,0.781 z"
     id="path34"
     inkscape:connector-curvature="0"
     style="fill:#f3d2a2" />
  <path
     d="m 27.299579,29.5 c 0.5,-2.734 0.422,-6.5 0.422,-6.5 l -7.963,0 c 0,0 -0.078,3.766 0.422,6.5 0.063,0.344 0.188,3.344 -0.109,5.5 -0.066,0.479 2.886,0.937 2.844,-0.125 -0.078,-1.969 0.264,-3.513 0.328,-4.5 0.035,-0.547 0.25,-1.875 0.344,-3.208 0.011,-0.018 0.295,-0.018 0.306,0 0.094,1.333 0.308,2.661 0.344,3.208 0.064,0.987 0.406,2.531 0.328,4.5 -0.042,1.062 2.91,0.604 2.844,0.125 -0.297,-2.156 -0.172,-5.156 -0.11,-5.5 z"
     id="path36"
     inkscape:connector-curvature="0"
     style="fill:#67757f" />
  <path
     d="m 28.284579,36 c 0.499,-0.406 -0.041,-1.161 -1.42,-1.402 -1.163,-0.203 -2.2,-0.032 -2.363,0.35 -0.212,0.493 -0.05,1.052 -0.05,1.052 l 3.833,0 z m -9.117,0 c -0.499,-0.406 0.041,-1.161 1.42,-1.402 1.163,-0.203 2.2,-0.032 2.363,0.35 0.212,0.494 0.05,1.053 0.05,1.053 L 19.167579,36 Z"
     id="path38"
     inkscape:connector-curvature="0"
     style="fill:#292f33" />
  <path
     d="M 28.541579,14.766 C 27.322579,14 25.744579,14 25.744579,14 l -4,0 c 0,0 -1.578,0 -2.797,0.766 -1.201,0.754 -1.656,3 -1.656,3 l 2.203,0.688 0.109,5.546 8.281,0 0.109,-5.547 2.203,-0.688 c 0.001,10e-4 -0.454,-2.245 -1.655,-2.999 z"
     id="path40"
     inkscape:connector-curvature="0"
     style="fill:#78b159" />
  <path
     d="m 21.744579,10.042 0,4 c 0,0.682 0.896,1.305 2,1.305 1.104,0 2,-0.668 2,-1.305 l 0,-4 -4,0 z"
     id="path42"
     inkscape:connector-curvature="0"
     style="fill:#f3d2a2" />
  <path
     d="m 21.744579,14.042 c 0,0.682 0.896,1.305 2,1.305 1.104,0 2,-0.668 2,-1.305 l 0,-3.042 -4,0.019 0,3.023 z"
     id="path44"
     inkscape:connector-curvature="0"
     style="fill:#e2c196" />
  <path
     d="m 28.744579,3 -10,0 0,6 c 0,2.762 2.238,5 5,5 2.762,0 5,-2.237 5,-5 l 0,-6 z"
     id="path46"
     inkscape:connector-curvature="0"
     style="fill:#f3d2a2" />
  <path
     d="m 18.744579,2.5 -0.5,2.5 0.5,2 c 2.333,0 2.85,-2.412 2.965,-3.488 0.039,1.076 0.814,3.488 7.035,3.488 l 0.5,-2 -0.5,-2.5 -10,0 z"
     id="path48"
     inkscape:connector-curvature="0"
     style="fill:#ffe51e" />
  <path
     d="m 25.744579,12 -4,0 c 0,0 0,1 2,1 2,0 2,-1 2,-1 z"
     id="path50"
     inkscape:connector-curvature="0"
     style="fill:#c1694f" />
  <circle
     cx="21.244579"
     cy="8.5"
     r="0.5"
     id="circle52"
     style="fill:#662113" />
  <circle
     cx="26.244579"
     cy="8.5"
     r="0.5"
     id="circle54"
     style="fill:#662113" />
  <path
     d="m 22.744579,10 2,0 c 0,0 0,1 -1,1 -1,0 -1,-1 -1,-1 z"
     id="path56"
     inkscape:connector-curvature="0"
     style="fill:#c1694f" />
</svg>
