<?xml version="1.0" encoding="UTF-8" standalone="no"?>
<svg
   xmlns:dc="http://purl.org/dc/elements/1.1/"
   xmlns:cc="http://creativecommons.org/ns#"
   xmlns:rdf="http://www.w3.org/1999/02/22-rdf-syntax-ns#"
   xmlns:svg="http://www.w3.org/2000/svg"
   xmlns="http://www.w3.org/2000/svg"
   xmlns:sodipodi="http://sodipodi.sourceforge.net/DTD/sodipodi-0.dtd"
   xmlns:inkscape="http://www.inkscape.org/namespaces/inkscape"
   viewBox="0 0 36 36"
   id="svg2"
   version="1.1"
   inkscape:version="0.91 r13725"
   sodipodi:docname="1f469-200d-1f469-200d-1f467.svg"
   width="36"
   height="36">
  <metadata
     id="metadata54">
    <rdf:RDF>
      <cc:Work
         rdf:about="">
        <dc:format>image/svg+xml</dc:format>
        <dc:type
           rdf:resource="http://purl.org/dc/dcmitype/StillImage" />
      </cc:Work>
    </rdf:RDF>
  </metadata>
  <defs
     id="defs52" />
  <sodipodi:namedview
     pagecolor="#ffffff"
     bordercolor="#666666"
     borderopacity="1"
     objecttolerance="10"
     gridtolerance="10"
     guidetolerance="10"
     inkscape:pageopacity="0"
     inkscape:pageshadow="2"
     inkscape:window-width="640"
     inkscape:window-height="480"
     id="namedview50"
     showgrid="false"
     inkscape:zoom="6.5555556"
     inkscape:cx="18"
     inkscape:cy="18"
     inkscape:window-x="0"
     inkscape:window-y="0"
     inkscape:window-maximized="0"
     inkscape:current-layer="svg2" />
  <path
     d="m 21,14 c 0.253,3.89 3.521,6.969 7.5,6.969 3.979,0 7.247,-3.079 7.5,-6.969 L 36,4 21,4 21,14 Z"
     id="path4"
     inkscape:connector-curvature="0"
     style="fill:#ffdc5d" />
  <path
     d="M 36,21.752 36,14 c -0.253,3.89 -3.521,6.969 -7.5,6.969 C 24.521,20.969 21.253,17.89 21,14 L 21,9.663 C 26.328,9.508 29.51,7.32 31.237,5.482 31.652,6.957 32.801,9 36,9 L 36,1.9 C 35.069,1.211 33.885,0.807 32.538,0.807 c -0.333,0 -0.657,0.034 -0.974,0.09 C 30.393,0.328 29.39,0 28,0 23.093,0 19,4.093 19,9 l 0,7 c 0.064,2.258 0.868,4.35 2.182,6 l 2.818,2 9,0 2.818,-2 C 35.882,21.92 35.939,21.834 36,21.752 Z"
     id="path6"
     inkscape:connector-curvature="0"
     style="fill:#ffac33" />
  <path
     d="M 35.818,22 21,22 c -2,0 -3,1 -3,2.973 L 18,36 l 18,0 0,-14 -0.182,0 z"
     id="path8"
     inkscape:connector-curvature="0"
     style="fill:#9268ca" />
  <path
     d="m 20.986,26 1.028,0 0,10 -1.028,0 z"
     id="path10"
     inkscape:connector-curvature="0"
     style="fill:#7450a8" />
  <path
     d="m 26,19 0,3 c 0,1.381 1.119,2.5 2.5,2.5 1.381,0 2.5,-1.119 2.5,-2.5 l 0,-3 -5,0 z"
     id="path12"
     inkscape:connector-curvature="0"
     style="fill:#ffdc5d" />
  <path
     d="m 25.27,17.769 6.46,0 c 0,0 -0.808,1.616 -3.23,1.616 -2.422,0 -3.23,-1.616 -3.23,-1.616 z"
     id="path14"
     inkscape:connector-curvature="0"
     style="fill:#da2f47" />
  <path
     d="m 29,15.5 -1,0 c -0.276,0 -0.5,-0.224 -0.5,-0.5 0,-0.276 0.224,-0.5 0.5,-0.5 l 1,0 c 0.276,0 0.5,0.224 0.5,0.5 0,0.276 -0.224,0.5 -0.5,0.5 z"
     id="path16"
     inkscape:connector-curvature="0"
     style="fill:#bf6952" />
  <path
     d="m 25,13 c -0.553,0 -1,-0.448 -1,-1 l 0,-1 c 0,-0.552 0.447,-1 1,-1 0.553,0 1,0.448 1,1 l 0,1 c 0,0.552 -0.447,1 -1,1 z m 7,0 c -0.553,0 -1,-0.448 -1,-1 l 0,-1 c 0,-0.552 0.447,-1 1,-1 0.553,0 1,0.448 1,1 l 0,1 c 0,0.552 -0.447,1 -1,1 z"
     id="path18"
     inkscape:connector-curvature="0"
     style="fill:#662113" />
  <path
     d="m 0,14 c 0.253,3.89 3.521,6.969 7.5,6.969 3.979,0 7.247,-3.079 7.5,-6.969 L 15,4 0,4 0,14 Z"
     id="path20"
     inkscape:connector-curvature="0"
     style="fill:#ffdc5d" />
  <path
     d="M 17,16 17,6 c 0,-3.122 -2.339,-5.192 -5.462,-5.192 -0.333,0 -0.657,0.034 -0.974,0.09 C 9.393,0.328 8.39,0 7,0 4.195,0 1.661,1.34 0,3.402 L 0,9.663 C 5.328,9.508 8.51,7.32 10.237,5.482 10.652,6.957 11.801,9 15,9 l 0,5 C 14.747,17.89 11.479,20.969 7.5,20.969 3.521,20.969 0.253,17.89 0,14 l 0,7.752 C 0.061,21.834 0.118,21.92 0.182,22 L 3,24 l 9,0 2.818,-2 C 16.132,20.35 16.936,18.258 17,16 Z"
     id="path22"
     inkscape:connector-curvature="0"
     style="fill:#ffac33" />
  <path
     d="M 15,22 0,22 0,36 18,36 18,24.973 C 18,23 17,22 15,22 Z"
     id="path24"
     inkscape:connector-curvature="0"
     style="fill:#9266cc" />
  <path
     d="m 13.986,26 1.028,0 0,10 -1.028,0 z"
     id="path26"
     inkscape:connector-curvature="0"
     style="fill:#7450a8" />
  <path
     d="m 5,19 0,3 c 0,1.381 1.119,2.5 2.5,2.5 1.381,0 2.5,-1.119 2.5,-2.5 l 0,-3 -5,0 z"
     id="path28"
     inkscape:connector-curvature="0"
     style="fill:#ffdc5d" />
  <path
     d="m 4.269,17.769 6.462,0 c 0,0 -0.808,1.616 -3.231,1.616 -2.423,0 -3.231,-1.616 -3.231,-1.616 z"
     id="path30"
     inkscape:connector-curvature="0"
     style="fill:#da2f47" />
  <path
     d="m 8,15.5 -1,0 C 6.724,15.5 6.5,15.276 6.5,15 6.5,14.724 6.724,14.5 7,14.5 l 1,0 c 0.276,0 0.5,0.224 0.5,0.5 0,0.276 -0.224,0.5 -0.5,0.5 z"
     id="path32"
     inkscape:connector-curvature="0"
     style="fill:#bf6952" />
  <path
     d="M 4,13 C 3.447,13 3,12.552 3,12 l 0,-1 c 0,-0.552 0.447,-1 1,-1 0.553,0 1,0.448 1,1 l 0,1 c 0,0.552 -0.447,1 -1,1 z m 7,0 c -0.553,0 -1,-0.448 -1,-1 l 0,-1 c 0,-0.552 0.447,-1 1,-1 0.553,0 1,0.448 1,1 l 0,1 c 0,0.552 -0.447,1 -1,1 z"
     id="path34"
     inkscape:connector-curvature="0"
     style="fill:#662113" />
  <path
     d="M 19.432,32.852 C 19.168,33.363 19,33.773 19,34 23.656,34 28,31 28,31 26.875,27.312 26.334,22.861 26.334,22.861 26.334,18.519 22.815,15 18.473,15 17.228,15 16.055,15.297 15.009,15.812 11.679,15.882 9,18.599 9,21.945 9,22.773 9.165,23.562 9.464,24.282 9.214,25.893 8.731,28.604 8,31 c 0,0 4.344,3 9,3 0,-0.227 -0.167,-0.636 -0.431,-1.146 C 13.39,32.198 11,29.4 11,26.047 L 11.002,26 11,26 l 0,-6 3.551,0 c 1.018,-0.574 2.192,-0.906 3.446,-0.906 1.254,0 2.429,0.332 3.446,0.906 l 3.557,0 0,6 -0.008,0 0.002,0.047 c 0,3.351 -2.386,6.147 -5.562,6.805 z"
     id="path36"
     inkscape:connector-curvature="0"
     style="fill:#f4900c" />
  <path
     d="m 20,35 0,-4 -4,0 0,4 -1,0 0,1 6,0 0,-1 z"
     id="path38"
     inkscape:connector-curvature="0"
     style="fill:#ffdc5d" />
  <path
     d="m 14,33 c -2.493,0 -4.276,1.385 -4.814,3 L 18,36 16,33 14,33 Z m 9,0 -3,0 -2,3 8.818,0 C 26.3,34.398 24.659,33 23,33 Z"
     id="path40"
     inkscape:connector-curvature="0"
     style="fill:#ea596e" />
  <path
     d="M 24.994,26.047 24.992,26 25,26 l 0,-6 -3.557,0 c -1.018,-0.574 -2.192,-0.906 -3.446,-0.906 -1.254,0 -2.428,0.332 -3.446,0.906 L 11,20 11,26 11.002,26 11,26.047 c 0,3.353 2.39,6.152 5.569,6.807 0.461,0.095 0.938,0.146 1.428,0.146 0.492,0 0.972,-0.052 1.435,-0.148 3.176,-0.658 5.562,-3.454 5.562,-6.805 z"
     id="path42"
     inkscape:connector-curvature="0"
     style="fill:#ffdc5d" />
  <path
     d="m 26,23 -1,-4 -3,-2 -11,1 -0.861,5 c 5.41,0 8.425,-1.755 10.065,-3.367 C 21.44,21.092 23.528,23 26,23 Z"
     id="path44"
     inkscape:connector-curvature="0"
     style="fill:#f4900c" />
  <path
     d="m 21,30 -6,0 c 0,0 0.583,2 3,2 2.417,0 3,-2 3,-2 z m -3,-0.5 c -0.13,0 -0.26,-0.05 -0.35,-0.15 -0.1,-0.09 -0.15,-0.22 -0.15,-0.35 0,-0.13 0.05,-0.26 0.15,-0.36 0.17,-0.17 0.52,-0.18 0.71,0.01 0.09,0.09 0.14,0.22 0.14,0.35 0,0.13 -0.05,0.26 -0.15,0.35 -0.09,0.1 -0.22,0.15 -0.35,0.15 z"
     id="path46"
     inkscape:connector-curvature="0"
     style="fill:#bf6952" />
  <path
     d="m 15,28 c -0.552,0 -1,-0.447 -1,-1 l 0,-1 c 0,-0.553 0.448,-1 1,-1 0.552,0 1,0.447 1,1 l 0,1 c 0,0.553 -0.448,1 -1,1 z m 6,0 c -0.553,0 -1,-0.447 -1,-1 l 0,-1 c 0,-0.553 0.447,-1 1,-1 0.553,0 1,0.447 1,1 l 0,1 c 0,0.553 -0.447,1 -1,1 z"
     id="path48"
     inkscape:connector-curvature="0"
     style="fill:#662113" />
</svg>
