<?xml version="1.0" encoding="UTF-8" standalone="no"?>
<svg
   xmlns:dc="http://purl.org/dc/elements/1.1/"
   xmlns:cc="http://creativecommons.org/ns#"
   xmlns:rdf="http://www.w3.org/1999/02/22-rdf-syntax-ns#"
   xmlns:svg="http://www.w3.org/2000/svg"
   xmlns="http://www.w3.org/2000/svg"
   xmlns:sodipodi="http://sodipodi.sourceforge.net/DTD/sodipodi-0.dtd"
   xmlns:inkscape="http://www.inkscape.org/namespaces/inkscape"
   viewBox="0 0 36.00016 36"
   id="svg2"
   version="1.1"
   inkscape:version="0.91 r13725"
   sodipodi:docname="1f468-1f3fe-200d-1f3ed.svg"
   width="36.00016"
   height="36">
  <metadata
     id="metadata54">
    <rdf:RDF>
      <cc:Work
         rdf:about="">
        <dc:format>image/svg+xml</dc:format>
        <dc:type
           rdf:resource="http://purl.org/dc/dcmitype/StillImage" />
      </cc:Work>
    </rdf:RDF>
  </metadata>
  <defs
     id="defs52" />
  <sodipodi:namedview
     pagecolor="#ffffff"
     bordercolor="#666666"
     borderopacity="1"
     objecttolerance="10"
     gridtolerance="10"
     guidetolerance="10"
     inkscape:pageopacity="0"
     inkscape:pageshadow="2"
     inkscape:window-width="640"
     inkscape:window-height="480"
     id="namedview50"
     showgrid="false"
     inkscape:zoom="6.5555556"
     inkscape:cx="18.000158"
     inkscape:cy="18"
     inkscape:window-x="0"
     inkscape:window-y="0"
     inkscape:window-maximized="0"
     inkscape:current-layer="svg2" />
  <path
     d="m 36.000158,36 0,-2 c 0,-3.314 -2.686,-6 -6,-6 l -16,0 c -3.313,0 -5.9999996,2.686 -5.9999996,6 l 0,2 27.9999996,0 z"
     id="path4"
     inkscape:connector-curvature="0"
     style="fill:#3b88c3" />
  <path
     d="m 22.000158,35.999 -5.6,-8.999 11.2,0 z"
     id="path6"
     inkscape:connector-curvature="0"
     style="fill:#292f33" />
  <path
     d="m 17.640158,30.038 c 1.744,1.268 2.848,1.963 4.36,1.963 1.512,0 2.615,-0.696 4.359,-1.963 l 0,-5.749 -8.72,0 0,5.749 z"
     id="path8"
     inkscape:connector-curvature="0"
     style="fill:#af7e57" />
  <path
     d="m 15.000158,28 c 0,1 1,3 3,5 1.581,1.581 4,3 4,3 0,-3.063 -1,-4 -2,-5 -1,-1 -3,-2 -3,-4 0,-1 -2,1 -2,1 m 14,0 c 0,1 -1,3 -3,5 -1.581,1.581 -4,3 -4,3 0,-3.063 1,-4 2,-5 1,-1 3,-2 3,-4 0,-1 2,1 2,1"
     id="path10"
     inkscape:connector-curvature="0"
     style="fill:#55acee" />
  <path
     d="m 17.632158,25.973 c 1.216,1.374 2.724,1.746 4.364,1.746 1.639,0 3.146,-0.373 4.363,-1.746 l 0,-3.491 -8.728,0 0,3.491 z"
     id="path12"
     inkscape:connector-curvature="0"
     style="fill:#9b6a49" />
  <path
     d="m 15.444158,15.936 c 0,1.448 -0.734,2.622 -1.639,2.622 -0.905,0 -1.639,-1.174 -1.639,-2.622 0,-1.448 0.734,-2.623 1.639,-2.623 0.905,-0.001 1.639,1.174 1.639,2.623 m 16.389,0 c 0,1.448 -0.733,2.622 -1.639,2.622 -0.905,0 -1.639,-1.174 -1.639,-2.622 0,-1.448 0.733,-2.623 1.639,-2.623 0.906,-0.001 1.639,1.174 1.639,2.623"
     id="path14"
     inkscape:connector-curvature="0"
     style="fill:#af7e57" />
  <path
     d="m 13.477158,16.959 c 0,-5.589 3.816,-10.121 8.523,-10.121 4.707,0 8.522,4.532 8.522,10.121 0,5.589 -3.815,10.121 -8.522,10.121 -4.706,0 -8.523,-4.531 -8.523,-10.121"
     id="path16"
     inkscape:connector-curvature="0"
     style="fill:#af7e57" />
  <path
     d="m 22.000158,23.802 c -2.754,0 -3.6,-0.705 -3.741,-0.848 -0.256,-0.256 -0.256,-0.671 0,-0.927 0.248,-0.248 0.646,-0.255 0.902,-0.023 0.052,0.037 0.721,0.487 2.839,0.487 2.2,0 2.836,-0.485 2.842,-0.49 0.256,-0.255 0.657,-0.243 0.913,0.015 0.256,0.256 0.242,0.683 -0.014,0.938 -0.141,0.143 -0.987,0.848 -3.741,0.848 m 0.75,-4.052 -1.5,0 c -0.413,0 -0.75,-0.337 -0.75,-0.75 0,-0.413 0.337,-0.75 0.75,-0.75 l 1.5,0 c 0.413,0 0.75,0.337 0.75,0.75 0,0.413 -0.337,0.75 -0.75,0.75"
     id="path18"
     inkscape:connector-curvature="0"
     style="fill:#915a34" />
  <path
     d="m 22.000158,3.48 c 5.648,0 9.178,4.168 9.178,7.641 0,3.473 -0.706,4.863 -1.412,3.473 l -1.412,-2.778 c 0,0 -4.235,0 -5.647,-1.39 0,0 2.118,4.168 -2.118,0 0,0 0.706,2.779 -3.53,-0.694 0,0 -2.118,1.389 -2.824,4.862 -0.196,0.964 -1.412,0 -1.412,-3.473 -10e-4,-3.473 2.823,-7.641 9.177,-7.641"
     id="path20"
     inkscape:connector-curvature="0"
     style="fill:#60352a" />
  <circle
     cx="17.250158"
     cy="16"
     r="3.75"
     id="circle22"
     style="fill:#9b6a49" />
  <circle
     cx="26.750158"
     cy="16"
     r="3.75"
     id="circle24"
     style="fill:#9b6a49" />
  <path
     d="m 19.500158,15 5,0 0,2.5 -5,0 z"
     id="path26"
     inkscape:connector-curvature="0"
     style="fill:#9b6a49" />
  <circle
     cx="17.500158"
     cy="15.5"
     r="3.5"
     id="circle28"
     style="fill:#e1e8ed" />
  <circle
     cx="26.500158"
     cy="15.5"
     r="3.5"
     id="circle30"
     style="fill:#e1e8ed" />
  <path
     d="m 19.500158,14 5,0 0,2.5 -5,0 z"
     id="path32"
     inkscape:connector-curvature="0"
     style="fill:#e1e8ed" />
  <circle
     cx="17.500158"
     cy="15.5"
     r="2.5"
     id="circle34"
     style="fill:#292f33" />
  <circle
     cx="26.500158"
     cy="15.5"
     r="2.5"
     id="circle36"
     style="fill:#292f33" />
  <path
     d="m 5.0001584,24 -1.5,1 c 0,0 1.5,2.5 1.5,6 l 0,5 2,0 0,-5 c 0,-4.5 -2,-7 -2,-7 z"
     id="path38"
     inkscape:connector-curvature="0"
     style="fill:#66757f" />
  <path
     d="m 6.0791584,23.807 c 0.208,0.379 0.071,0.854 -0.307,1.064 l -2.13,1.178 c -0.379,0.208 -0.855,0.07 -1.064,-0.309 l -0.451,-0.816 c -0.208,-0.379 -0.072,-0.855 0.307,-1.064 l 2.13,-1.178 c 0.378,-0.209 0.855,-0.071 1.064,0.309 l 0.451,0.816 z"
     id="path40"
     inkscape:connector-curvature="0"
     style="fill:#99aab5" />
  <path
     d="m 3.4901584,22.584 c 4.188,-2.209 -3.43799996,-6.271 -3.43799996,-6.271 0,0 -0.75,8.48 3.43799996,6.271 z"
     id="path42"
     inkscape:connector-curvature="0"
     style="fill:#f4900c" />
  <path
     d="m 2.9601584,21.365 c 2.202,-1.162 -1.808,-3.299 -1.808,-3.299 0,0 -0.39399996,4.459 1.808,3.299 z"
     id="path44"
     inkscape:connector-curvature="0"
     style="fill:#ffdc5d" />
  <path
     d="m 34.000158,11 c -3,-2 -1.008,-4.169 -3,-7 -1.874,-2.663 -5,-4 -9.003,-4 -4.997,0 -7.123,1.337 -8.997,4 -1.992,2.831 0,5 -3,7 -1.8609996,1.24 6,2.313 12,2.313 6,0 13.861,-1.073 12,-2.313"
     id="path46"
     inkscape:connector-curvature="0"
     style="fill:#3b88c3" />
  <path
     d="m 20.000158,11.5 0,-11.412 c -0.35,0.032 -0.683,0.074 -1,0.124 l 0,10.281 c -2.09,-0.05 -5.124,-0.396 -7.653,-0.853 -0.174,0.297 -0.41,0.59 -0.73,0.877 2.911,0.565 6.596,0.982 8.883,0.982 l 0.5,0 z m 4.5,0 c 2.421,0 6.037,-0.393 8.907,-0.959 -0.325,-0.288 -0.563,-0.58 -0.741,-0.877 -2.431,0.448 -5.371,0.787 -7.667,0.832 l 0,-10.204 c -0.323,-0.066 -0.66,-0.112 -1,-0.155 l 0,11.363 0.501,0 z"
     id="path48"
     inkscape:connector-curvature="0"
     style="fill:#226699" />
</svg>
