<?xml version="1.0" encoding="UTF-8" standalone="no"?>
<svg
   xmlns:dc="http://purl.org/dc/elements/1.1/"
   xmlns:cc="http://creativecommons.org/ns#"
   xmlns:rdf="http://www.w3.org/1999/02/22-rdf-syntax-ns#"
   xmlns:svg="http://www.w3.org/2000/svg"
   xmlns="http://www.w3.org/2000/svg"
   xmlns:sodipodi="http://sodipodi.sourceforge.net/DTD/sodipodi-0.dtd"
   xmlns:inkscape="http://www.inkscape.org/namespaces/inkscape"
   viewBox="0 0 35.01984 35.117001"
   id="svg2"
   version="1.1"
   inkscape:version="0.91 r13725"
   sodipodi:docname="1f468-200d-1f3a8.svg"
   width="35.01984"
   height="35.117001">
  <metadata
     id="metadata36">
    <rdf:RDF>
      <cc:Work
         rdf:about="">
        <dc:format>image/svg+xml</dc:format>
        <dc:type
           rdf:resource="http://purl.org/dc/dcmitype/StillImage" />
      </cc:Work>
    </rdf:RDF>
  </metadata>
  <defs
     id="defs34" />
  <sodipodi:namedview
     pagecolor="#ffffff"
     bordercolor="#666666"
     borderopacity="1"
     objecttolerance="10"
     gridtolerance="10"
     guidetolerance="10"
     inkscape:pageopacity="0"
     inkscape:pageshadow="2"
     inkscape:window-width="640"
     inkscape:window-height="480"
     id="namedview32"
     showgrid="false"
     inkscape:zoom="6.5555556"
     inkscape:cx="17.019842"
     inkscape:cy="18"
     inkscape:window-x="0"
     inkscape:window-y="0"
     inkscape:window-maximized="0"
     inkscape:current-layer="svg2" />
  <path
     d="m 29.019842,27.117 -3.641,0 0,-3.71 -8.72,0 0,3.71 -3.639,0 c -3.3129999,0 -5.9999999,2.686 -5.9999999,6 l 0,2 27.9999999,0 0,-2 c 0,-3.314 -2.685,-6 -6,-6 z"
     id="path4"
     inkscape:connector-curvature="0"
     style="fill:#77b255" />
  <path
     d="m 16.651842,25.09 c 1.216,1.374 2.724,1.746 4.364,1.746 1.639,0 3.147,-0.372 4.364,-1.746 l 0,-3.491 -8.728,0 0,3.491 z"
     id="path6"
     inkscape:connector-curvature="0"
     style="fill:#f9ca55" />
  <path
     d="m 14.463842,15.052 c 0,1.448 -0.734,2.622 -1.639,2.622 -0.905,0 -1.639,-1.174 -1.639,-2.622 0,-1.448 0.734,-2.623 1.639,-2.623 0.906,10e-4 1.639,1.175 1.639,2.623 z m 16.389,0 c 0,1.448 -0.734,2.622 -1.639,2.622 -0.905,0 -1.639,-1.174 -1.639,-2.622 0,-1.448 0.734,-2.623 1.639,-2.623 0.906,10e-4 1.639,1.175 1.639,2.623 z"
     id="path8"
     inkscape:connector-curvature="0"
     style="fill:#ffdc5d" />
  <path
     d="m 12.497842,16.077 c 0,-5.589 3.816,-10.121 8.522,-10.121 4.706,0 8.522,4.531 8.522,10.121 0,5.589 -3.816,10.12 -8.522,10.12 -4.706,0 -8.522,-4.531 -8.522,-10.12 z"
     id="path10"
     inkscape:connector-curvature="0"
     style="fill:#ffdc5d" />
  <path
     d="m 25.543842,20.463 -1.267,-0.275 c -0.404,-0.093 -1.173,-0.071 -1.535,-0.071 l -3.689,0 c -0.362,0 -1.131,-0.022 -1.536,0.071 l -1.267,0.275 c -0.348,0.1 -0.55,0.392 -0.45,0.74 0.082,0.288 0.345,0.44 0.63,0.44 0.06,0 0.12,-0.026 0.181,-0.043 l 1.266,-0.37 c -0.142,0.192 -0.18,0.447 -0.066,0.675 0.115,0.23 0.346,0.36 0.587,0.36 0.098,0 0.198,-0.024 0.293,-0.07 l 1.034,-0.517 c 0.024,0.214 0.14,0.413 0.347,0.516 0.094,0.047 0.194,0.069 0.293,0.069 0.241,0 0.472,-0.133 0.587,-0.362 l 0.068,-0.138 -0.053,0.138 c 0.115,0.23 0.224,0.362 0.465,0.362 0.098,0 0.198,-0.022 0.293,-0.069 0.207,-0.103 0.323,-0.303 0.347,-0.516 l 1.034,0.517 c 0.094,0.047 0.194,0.07 0.293,0.07 0.241,0 0.472,-0.13 0.587,-0.36 0.114,-0.229 0.076,-0.483 -0.066,-0.675 l 1.266,0.37 c 0.06,0.017 0.121,0.043 0.181,0.043 0.285,0 0.548,-0.152 0.63,-0.44 0.097,-0.348 -0.105,-0.64 -0.453,-0.74 z m -4.524,-17.867 c 5.648,0 9.178,4.168 9.178,7.641 0,3.473 -0.706,4.863 -1.412,3.473 l -1.412,-2.778 c 0,0 -4.236,0 -5.648,-1.39 0,0 2.118,4.168 -2.118,0 0,0 0.706,2.779 -3.53,-0.695 0,0 -2.118,1.39 -2.824,4.863 -0.196,0.963 -1.412,0 -1.412,-3.473 0,-3.473 2.824,-7.641 9.178,-7.641 z"
     id="path12"
     inkscape:connector-curvature="0"
     style="fill:#ffac33" />
  <path
     d="m 17.019842,16.117 c -0.55,0 -1,-0.45 -1,-1 l 0,-1 c 0,-0.55 0.45,-1 1,-1 0.55,0 1,0.45 1,1 l 0,1 c 0,0.55 -0.45,1 -1,1 z m 8,0 c -0.55,0 -1,-0.45 -1,-1 l 0,-1 c 0,-0.55 0.45,-1 1,-1 0.55,0 1,0.45 1,1 l 0,1 c 0,0.55 -0.45,1 -1,1 z"
     id="path14"
     inkscape:connector-curvature="0"
     style="fill:#662113" />
  <path
     d="m 21.769842,18.867 -1.5,0 c -0.413,0 -0.75,-0.337 -0.75,-0.75 0,-0.413 0.337,-0.75 0.75,-0.75 l 1.5,0 c 0.413,0 0.75,0.337 0.75,0.75 0,0.413 -0.337,0.75 -0.75,0.75 z"
     id="path16"
     inkscape:connector-curvature="0"
     style="fill:#c1694f" />
  <path
     d="m 32.034842,5.502 c -0.439,-2.026 -3.627,-3.888 -8.267,-4.105 0.346,-0.222 0.672,-0.402 0.924,-0.48 0.72,-0.224 -0.218,-0.917 -0.917,-0.917 0,0 -1.092,0.505 -1.93,1.41 -6.756,0.348 -11.9929999,4.051 -11.825,5.009 0.175,1.004 1.232,-0.01 1.273,0.845 0.04,0.855 0.938,0.938 0.938,0.938 0,0 2.44,-0.401 7.949,0.051 5.51,0.451 8.503,0.507 9.919,0.888 0.872,0.235 1.006,-1.106 1.006,-1.106 0,0 1.44,-0.168 0.93,-2.533 z"
     id="path18"
     inkscape:connector-curvature="0"
     style="fill:#66757f" />
  <path
     d="m 26.489842,35.117 c -0.279,-3.867 -4.091,-7.954 -9.64,-9.879 -6.703,-2.325 -13.3839999,-0.613 -14.9229999,3.823 -0.672,1.936 -0.252,4.071 0.989,6.056 l 23.5739999,0 z"
     id="path20"
     inkscape:connector-curvature="0"
     style="fill:#d99e82" />
  <ellipse
     transform="matrix(0.32777859,-0.94475457,0.94475457,0.32777859,0,0)"
     cx="-22.648788"
     cy="29.900785"
     rx="1.654"
     ry="2.141"
     id="ellipse22"
     style="fill:#5c913b" />
  <ellipse
     transform="matrix(0.32777859,-0.94475457,0.94475457,0.32777859,0,0)"
     cx="-28.892803"
     cy="16.846886"
     rx="1.654"
     ry="2.141"
     id="ellipse24"
     style="fill:#226699" />
  <ellipse
     transform="matrix(0.32777859,-0.94475457,0.94475457,0.32777859,0,0)"
     cx="-23.581244"
     cy="16.960129"
     rx="1.654"
     ry="2.141"
     id="ellipse26"
     style="fill:#dd2e44" />
  <ellipse
     transform="matrix(0.29769147,-0.95466213,0.95466213,0.29769147,0,0)"
     cx="-21.932972"
     cy="22.908686"
     rx="1.654"
     ry="2.141"
     id="ellipse28"
     style="fill:#ffcc4d" />
  <path
     d="m 0.01984207,29.117 c 0.078,-1.208 1.39400003,-3.184 3.00000003,-3 1.665,0.19 0.129,3.129 0,4 -0.129,0.871 0.144,2.938 -1,3 -1.54600003,0.084 -2.14000003,-1.814 -2.00000003,-4 z"
     id="path30"
     inkscape:connector-curvature="0"
     style="fill:#ffdc5d" />
</svg>
