<?xml version="1.0" encoding="UTF-8" standalone="no"?>
<svg
   xmlns:dc="http://purl.org/dc/elements/1.1/"
   xmlns:cc="http://creativecommons.org/ns#"
   xmlns:rdf="http://www.w3.org/1999/02/22-rdf-syntax-ns#"
   xmlns:svg="http://www.w3.org/2000/svg"
   xmlns="http://www.w3.org/2000/svg"
   xmlns:sodipodi="http://sodipodi.sourceforge.net/DTD/sodipodi-0.dtd"
   xmlns:inkscape="http://www.inkscape.org/namespaces/inkscape"
   viewBox="0 0 31.252272 35.785484"
   id="svg2"
   version="1.1"
   inkscape:version="0.91 r13725"
   sodipodi:docname="1f469-1f3ff-200d-1f9bd.svg"
   width="31.252272"
   height="35.785484">
  <metadata
     id="metadata70">
    <rdf:RDF>
      <cc:Work
         rdf:about="">
        <dc:format>image/svg+xml</dc:format>
        <dc:type
           rdf:resource="http://purl.org/dc/dcmitype/StillImage" />
      </cc:Work>
    </rdf:RDF>
  </metadata>
  <defs
     id="defs68" />
  <sodipodi:namedview
     pagecolor="#ffffff"
     bordercolor="#666666"
     borderopacity="1"
     objecttolerance="10"
     gridtolerance="10"
     guidetolerance="10"
     inkscape:pageopacity="0"
     inkscape:pageshadow="2"
     inkscape:window-width="640"
     inkscape:window-height="480"
     id="namedview66"
     showgrid="false"
     inkscape:zoom="6.5555556"
     inkscape:cx="16.252271"
     inkscape:cy="18"
     inkscape:window-x="0"
     inkscape:window-y="0"
     inkscape:window-maximized="0"
     inkscape:current-layer="svg2" />
  <path
     d="m 6.2332712,29.780485 c 0,0 0.097,-0.127 0.175,-0.426 0.078,-0.299 0.069,-0.897 0.047,-0.988 -0.022,-0.091 -0.053,-0.16 -0.163,-0.158 -0.083,0.001 -0.759,0.146 -1.144,0.061 -0.716,-0.158 -0.892,-0.883 -0.892,-0.883 0,0 -0.452,0.123 -0.812,0.223 -0.361,0.101 -0.796,0.279 -1.106,0.372 -0.265,0.079 -0.543,0.078 -0.823,0.041 -0.28,-0.037 -0.496,-0.105 -0.56300003,-0.116 -0.067,-0.011 -0.597,-0.219 -0.757,0.317 l -0.037,0.159 c 0,0 0.87100003,0.645 2.20900003,0.993 1.338,0.348 1.646,0.009 2.511,0.234 0.866,0.226 1.355,0.171 1.355,0.171 z"
     id="path4"
     inkscape:connector-curvature="0"
     style="fill:#292f33" />
  <path
     d="m 4.2842712,30.189485 c -0.044,-0.066 -0.065,-0.248 -0.109,-0.284 -0.043,-0.036 -0.585,-0.059 -0.839,-0.064 -0.254,-0.005 -0.691,-0.016 -1.175,-0.142 -0.484,-0.126 -1.074,-0.431 -1.43600003,-0.629 -0.362,-0.198 -0.632,-0.407 -0.689,-0.468 -0.057,-0.061 -0.033,-0.075 -0.02,-0.106 0.013,-0.031 0.103,-0.186 0.103,-0.186 0,0 0.214,0.195 0.607,0.407 0.39300003,0.212 0.79200003,0.399 1.51400003,0.587 0.722,0.188 1.204,0.199 1.606,0.195 0.501,-0.004 1.215,0.035 1.701,0.162 0.375,0.098 0.668,0.056 0.776,0.056 0.025,0 0.043,0.023 0.036,0.048 l -0.167,0.64 c -0.011,0.042 -0.07,0.128 -0.186,0.122 -0.114,-0.005 -1.678,-0.272 -1.722,-0.338 z"
     id="path6"
     inkscape:connector-curvature="0"
     style="fill:#292f33" />
  <path
     d="m 22.054271,16.980485 c 0.193,1.421 -0.135,2.945 -1.22,3.321 -1.039,0.36 -3.058,0.116 -3.058,0.116 0,0 -0.66,0.468 -0.426,1.231 0.133,0.434 0.314,0.645 0.262,0.692 -0.046,0.042 -0.486,0.02 -0.684,0.027 -0.528,0.02 -1.114,-0.114 -2.108,-0.301 -0.994,-0.187 -1.44,-0.16 -2.522,-0.359 -1.198,-0.22 -2.051,-0.659 -2.4909998,-1.745 -0.375,-0.927 0.091,-2.139 1.4189998,-2.764 1.08,-0.508 4.289,-0.179 5.495,-0.168 1.206,0.011 5.166,-1.285 5.333,-0.05 z"
     id="path8"
     inkscape:connector-curvature="0"
     style="fill:#4289c1" />
  <path
     d="m 5.0222712,28.474485 c -0.656,-0.086 -1.108,-0.395 -1.51,-0.897 1.506,-2.038 3.136,-7.609 3.136,-7.609 0.541,-1.798 1.36,-3.044 2.992,-3.124 2.3159998,-0.113 5.7719998,0.032 5.7719998,0.032 2.296,0.13 0.738,0.727 1.448,1.573 0.712,0.845 -1.115,2.095 -2.611,2.126 -2.607,0.054 -3.902,-0.113 -5.4279998,1.324 -0.596,2.367 -1.706,4.252 -2.275,6.63 -0.48,0.122 -0.868,0.031 -1.524,-0.055 z"
     id="path10"
     inkscape:connector-curvature="0"
     style="fill:#4289c1" />
  <path
     d="m 20.094271,0.66348503 c -1.405,-0.68 -3.719,-0.115 -4.11,1.55699997 -0.388,1.661 -0.109,4.333 1.379,4.285 1.56,-0.05 3.174,-0.266 3.921,-1.812 0.748,-1.545 0.215,-3.35 -1.19,-4.02999997 z"
     id="path12"
     inkscape:connector-curvature="0"
     style="fill:#7c533e" />
  <path
     d="m 20.842271,5.073485 c 2.295,-2.316 -2.801,-2.46 -2.801,-2.46 -0.964,-0.038 -0.424,1.613 -0.942,2.453 -0.356,0.582 0.925,1.001 0.925,1.001 0,0 0.6,0.036 0.577,0.766 l 0,0.007 c -0.007,0.186 -0.043,0.404 -0.151,0.691 -0.54,1.423 1.347,2.463 1.887,1.037 0.213,-0.564 0.186,-1.077 0.136,-1.552 l -0.006,-0.041 c -0.077,-0.707 -0.193,-1.329 0.375,-1.902 z"
     id="path14"
     inkscape:connector-curvature="0"
     style="fill:#7c533e" />
  <path
     d="m 21.705271,1.373485 c -0.879,-1.20199997 -2.17,-1.77099997 -4.509,-1.06499997 -2.044,0.617 -1.525,2.24299997 -1.042,2.00799997 1.331,-0.647 2.128,0.052 2.699,1.138 0.228,-0.495 1.083,-0.745 1.194,0.013 0.126,0.852 -0.68,1.158 -0.593,1.394 0.029,0.079 -0.034,-0.072 0,0 0.431,0.911 1.22,1.246 1.22,1.246 0,0 0.297,0.144 0.898,-0.847 0.601,-0.991 1.005,-2.693 0.133,-3.887 z"
     id="path16"
     inkscape:connector-curvature="0"
     style="fill:#0b0200" />
  <path
     d="m 21.186271,2.466485 c 1.968,0.317 1.157,2.559 1.358,3.601 0.247,1.283 1.436,1.361 1.436,1.361 0,0 -0.463,-0.666 -0.35,-1.611 0.156,-1.312 1.379,-2.377 0.405,-3.613 -1.244,-1.57999997 -4.072,0.065 -2.849,0.262 z"
     id="path18"
     inkscape:connector-curvature="0"
     style="fill:#0b0200" />
  <path
     d="m 22.605271,16.647485 c 0.015,1.321 -0.057,1.777 0.007,2.351 0.036,0.319 -1.252,-0.021 -1.954,-0.176 -1.883,-0.415 -3.583,-1.221 -3.583,-1.221 0.184,-1.244 0.869,-3.07 -0.624,-4.823 -0.455,-0.535 -0.375,-1.854 0.369,-3.041 0.828,-1.321 1.751,-2.535 2.926,-2.661 0.812,-0.088 1.597,0.328 2.15,1.2 2.206,1.83 0.762,1.78 0.777,3.121 0.024,2.035 -0.083,3.929 -0.068,5.25 z"
     id="path20"
     inkscape:connector-curvature="0"
     style="fill:#9268ca" />
  <g
     id="g22"
     style="fill:#dd2e44"
     transform="translate(-1.7477288,-0.21451497)">
    <path
       d="m 13.465,27.092 10.824,0.95 c 0.274,0.024 0.518,-0.181 0.542,-0.455 0.024,-0.274 -0.181,-0.518 -0.455,-0.542 l -10.824,-0.95 c -0.274,-0.024 -0.518,0.181 -0.542,0.455 -0.024,0.274 0.181,0.518 0.455,0.542 z"
       id="path24"
       inkscape:connector-curvature="0" />
    <path
       d="M 24.288,28.041 C 24.014,28.017 23.81,27.773 23.833,27.499 l 0.436,-4.981 c 0.024,-0.274 0.268,-0.478 0.542,-0.455 0.274,0.024 0.478,0.268 0.455,0.542 l -0.436,4.981 c -0.024,0.275 -0.268,0.479 -0.542,0.455 z M 13.55,20.461 c -0.274,-0.024 -0.518,0.181 -0.542,0.455 l -1.015,11.597 c -0.024,0.274 0.181,0.518 0.455,0.542 0.274,0.024 0.518,-0.181 0.542,-0.455 l 1.015,-11.597 c 0.023,-0.274 -0.181,-0.518 -0.455,-0.542 z"
       id="path26"
       inkscape:connector-curvature="0" />
  </g>
  <path
     d="m 21.776271,20.377485 c 1.431,-0.206 2.834,-0.148 2.345,0.544 -0.489,0.692 -1.575,1.905 -3.418,1.707 -1.844,-0.198 0.185,-2.123 1.073,-2.251 z"
     id="path28"
     inkscape:connector-curvature="0"
     style="fill:#292f33" />
  <path
     d="m 20.702271,22.628485 -9.962,-0.872 c -0.9959998,-0.087 -0.9959998,-0.087 -0.9089998,-1.083 0.048,-0.548 0.5349998,-0.957 1.0829998,-0.909 l 9.962,0.872 c 0.548,0.048 0.957,0.535 0.909,1.083 -0.087,0.996 -0.087,0.996 -1.083,0.909 z"
     id="path30"
     inkscape:connector-curvature="0"
     style="fill:#292f33" />
  <path
     d="m 21.216271,22.921485 -10.958,-0.959 c -0.2739998,-0.024 -0.4779998,-0.268 -0.4549998,-0.542 0.024,-0.274 0.2679998,-0.478 0.5419998,-0.455 l 10.958,0.959 c 0.274,0.024 0.478,0.268 0.455,0.542 -0.025,0.275 -0.268,0.479 -0.542,0.455 z"
     id="path32"
     inkscape:connector-curvature="0"
     style="fill:#dd2e44" />
  <path
     d="m 25.530271,9.239485 -0.872,9.962 c -0.087,0.996 -0.087,0.996 -1.083,0.909 -0.548,-0.048 -0.957,-0.535 -0.909,-1.083 l 0.872,-9.962 c 0.048,-0.548 0.535,-0.957 1.083,-0.909 0.996,0.087 0.996,0.087 0.909,1.083 z"
     id="path34"
     inkscape:connector-curvature="0"
     style="fill:#292f33" />
  <path
     d="m 25.966271,8.781485 -0.959,10.958 c -0.024,0.274 -0.268,0.478 -0.542,0.455 -0.274,-0.024 -0.478,-0.268 -0.455,-0.542 l 0.959,-10.958 c 0.024,-0.274 0.268,-0.478 0.542,-0.455 0.274,0.025 0.479,0.268 0.455,0.542 z"
     id="path36"
     inkscape:connector-curvature="0"
     style="fill:#dd2e44" />
  <path
     d="m 22.872271,18.304485 -7.552,-0.661 c -0.755,-0.066 -0.755,-0.066 -0.69,-0.812 0.036,-0.41 0.405,-0.716 0.82,-0.68 l 7.552,0.661 c 0.415,0.036 0.726,0.402 0.69,0.812 -0.064,0.746 -0.064,0.746 -0.82,0.68 z"
     id="path38"
     inkscape:connector-curvature="0"
     style="fill:#292f33" />
  <path
     d="m 20.805271,21.881485 c 1.004,0.088 2.989,0.261 3.25,-2.727 0.261,-2.988 1.258,-2.901 0.996,0.087 -0.262,2.988 -1.909,3.848 -4.333,3.636 -1.993,-0.174 -1.906,-1.17 0.087,-0.996 z m -10.449,-0.914 c 1.993,0.166 2.392,1.218 0.4,1.039 -0.8829998,-0.079 -0.9619998,0.297 -1.1629998,1.063 -0.189,0.721 -0.456,1.803 -0.858,3.318 -0.295,1.112 -1.221,0.712 -0.977,-0.257 0.411,-1.63 0.798,-3.05 1.052,-3.953 0.258,-0.922 0.502,-1.297 1.5459998,-1.21 z"
     id="path40"
     inkscape:connector-curvature="0"
     style="fill:#dd2e44" />
  <g
     id="g42"
     style="fill:#66757f"
     transform="translate(-1.7477288,-0.21451497)">
    <circle
       cx="24.5"
       cy="27.5"
       r="1.5"
       id="circle44" />
    <path
       d="m 31.245,30.817 -6.062,-3.5 3.5,-6.062 -0.866,-0.5 -3.5,6.062 -6.062,-3.5 -0.5,0.866 6.062,3.5 -3.5,6.062 0.866,0.5 3.5,-6.062 6.062,3.5 z"
       id="path46"
       inkscape:connector-curvature="0" />
    <path
       d="m 26.924,34.615 -1.812,-6.761 6.762,-1.812 -0.259,-0.966 -6.761,1.812 -1.812,-6.762 -0.966,0.259 1.812,6.761 -6.762,1.812 0.259,0.966 6.761,-1.812 1.812,6.762 z"
       id="path48"
       inkscape:connector-curvature="0" />
  </g>
  <path
     d="m 22.752271,18.785485 c -4.694,0 -8.5,3.806 -8.5,8.5 0,4.694 3.806,8.5 8.5,8.5 4.694,0 8.5,-3.806 8.5,-8.5 0,-4.694 -3.806,-8.5 -8.5,-8.5 z m 0,15 c -3.59,0 -6.5,-2.91 -6.5,-6.5 0,-3.59 2.91,-6.5 6.5,-6.5 3.59,0 6.5,2.91 6.5,6.5 0,3.59 -2.91,6.5 -6.5,6.5 z"
     id="path50"
     inkscape:connector-curvature="0"
     style="fill:#292f33" />
  <path
     d="m 22.752271,19.785485 c -4.142,0 -7.5,3.358 -7.5,7.5 0,4.142 3.358,7.5 7.5,7.5 4.142,0 7.5,-3.358 7.5,-7.5 0,-4.142 -3.358,-7.5 -7.5,-7.5 z m 0,14 c -3.59,0 -6.5,-2.91 -6.5,-6.5 0,-3.59 2.91,-6.5 6.5,-6.5 3.59,0 6.5,2.91 6.5,6.5 0,3.59 -2.91,6.5 -6.5,6.5 z m -9.152,-0.433 -2.165,-1.25 1.25,-2.165 -0.866,-0.5 -1.25,2.165 -2.1649998,-1.25 -0.5,0.866 2.1649998,1.25 -1.2499998,2.165 0.866,0.5 1.2499998,-2.165 2.165,1.25 z"
     id="path52"
     inkscape:connector-curvature="0"
     style="fill:#66757f" />
  <path
     d="m 10.752271,28.785485 c -1.9329998,0 -3.4999998,1.567 -3.4999998,3.5 0,1.933 1.567,3.5 3.4999998,3.5 1.933,0 3.5,-1.567 3.5,-3.5 0,-1.933 -1.567,-3.5 -3.5,-3.5 z m 0,6 c -1.3809998,0 -2.4999998,-1.119 -2.4999998,-2.5 0,-1.381 1.119,-2.5 2.4999998,-2.5 1.381,0 2.5,1.119 2.5,2.5 0,1.381 -1.119,2.5 -2.5,2.5 z"
     id="path54"
     inkscape:connector-curvature="0"
     style="fill:#292f33" />
  <path
     d="m 8.5402712,25.148485 c -0.266,-0.071 -0.541,0.088 -0.612,0.354 l -1.553,5.796 c -0.071,0.266 0.088,0.541 0.354,0.612 0.266,0.071 0.541,-0.088 0.612,-0.354 l 1.553,-5.796 c 0.07,-0.265 -0.089,-0.541 -0.354,-0.612 z"
     id="path56"
     inkscape:connector-curvature="0"
     style="fill:#dd2e44" />
  <path
     d="m 6.7282712,31.910485 -3.864,-1.035 c -0.266,-0.071 -0.425,-0.347 -0.354,-0.612 0.071,-0.266 0.347,-0.425 0.612,-0.354 l 3.864,1.035 c 0.266,0.071 0.426,0.346 0.354,0.612 -0.071,0.266 -0.346,0.425 -0.612,0.354 z"
     id="path58"
     inkscape:connector-curvature="0"
     style="fill:#66757f" />
  <path
     d="m 28.355271,9.754485 -2.954,-0.521 c -0.271,-0.048 -0.453,-0.308 -0.406,-0.579 0.048,-0.271 0.308,-0.453 0.579,-0.406 l 2.954,0.521 c 0.271,0.048 0.453,0.308 0.406,0.579 -0.048,0.272 -0.308,0.454 -0.579,0.406 z"
     id="path60"
     inkscape:connector-curvature="0"
     style="fill:#dd2e44" />
  <path
     d="m 29.340271,9.928485 -2.615,-0.467 c -0.271,-0.048 -0.26,-0.274 -0.213,-0.545 0.048,-0.271 0.116,-0.487 0.386,-0.44 l 2.615,0.467 c 0.271,0.048 0.453,0.308 0.406,0.579 -0.048,0.271 -0.308,0.454 -0.579,0.406 z"
     id="path62"
     inkscape:connector-curvature="0"
     style="fill:#292f33" />
  <path
     d="m 20.909271,10.685485 c 1.111,1.023 3.158,2.426 3.128,2.68 -0.174,1.464 0.402,3.203 0.2,4.11 -0.147,0.657 -0.805,1.117 -0.745,1.476 0.667,0.012 0.407,1.163 0.677,1.687 0.284,0.551 1.174,-0.056 1.311,-0.909 0.101,-0.627 -0.068,-1.112 -0.113,-1.757 -0.064,-0.918 1.207,-3.625 0.39,-5.457 -0.276,-0.618 -1.167,-1.842 -3.212,-3.751 -0.608,0.439 -1.636,1.921 -1.636,1.921 z"
     id="path64"
     inkscape:connector-curvature="0"
     style="fill:#7c533e" />
</svg>
