<?xml version="1.0" encoding="UTF-8" standalone="no"?>
<svg
   xmlns:dc="http://purl.org/dc/elements/1.1/"
   xmlns:cc="http://creativecommons.org/ns#"
   xmlns:rdf="http://www.w3.org/1999/02/22-rdf-syntax-ns#"
   xmlns:svg="http://www.w3.org/2000/svg"
   xmlns="http://www.w3.org/2000/svg"
   xmlns:sodipodi="http://sodipodi.sourceforge.net/DTD/sodipodi-0.dtd"
   xmlns:inkscape="http://www.inkscape.org/namespaces/inkscape"
   viewBox="0 0 26.166281 36.000999"
   id="svg2"
   version="1.1"
   inkscape:version="0.91 r13725"
   sodipodi:docname="1f469-1f3fb-200d-2708-fe0f.svg"
   width="26.166281"
   height="36.000999">
  <metadata
     id="metadata52">
    <rdf:RDF>
      <cc:Work
         rdf:about="">
        <dc:format>image/svg+xml</dc:format>
        <dc:type
           rdf:resource="http://purl.org/dc/dcmitype/StillImage" />
      </cc:Work>
    </rdf:RDF>
  </metadata>
  <defs
     id="defs50" />
  <sodipodi:namedview
     pagecolor="#ffffff"
     bordercolor="#666666"
     borderopacity="1"
     objecttolerance="10"
     gridtolerance="10"
     guidetolerance="10"
     inkscape:pageopacity="0"
     inkscape:pageshadow="2"
     inkscape:window-width="640"
     inkscape:window-height="480"
     id="namedview48"
     showgrid="false"
     inkscape:zoom="6.5555556"
     inkscape:cx="13.083153"
     inkscape:cy="18.001"
     inkscape:window-x="0"
     inkscape:window-y="0"
     inkscape:window-maximized="0"
     inkscape:current-layer="svg2" />
  <path
     d="m 26.083153,36 0,-3.5 c 0,-3.314 -3.685,-5.5 -7,-5.5 L 7.0831534,27 c -3.313,0 -7.00000005,2.186 -7.00000005,5.5 l 0,3.5 25.99999965,0 z"
     id="path4"
     inkscape:connector-curvature="0"
     style="fill:#e1e8ed" />
  <path
     d="m 25.083153,7.5 c 0,4.142 -5.372,7.5 -12,7.5 C 6.4561534,15 1.0831534,11.642 1.0831534,7.5 c 0,-4.142 5.373,-7.5 11.9999996,-7.5 6.628,0 12,3.358 12,7.5"
     id="path6"
     inkscape:connector-curvature="0"
     style="fill:#292f33" />
  <path
     d="m 13.027153,5.069 c 4.106,0 10.948,2.053 10.948,10.948 0,8.895 0,10.948 -2.053,10.948 -2.054,0 -4.79,-2.053 -8.896,-2.053 -4.1049996,0 -6.7839996,2.053 -8.8949996,2.053 -2.287,0 -2.053,-8.211 -2.053,-10.948 0.002,-8.895 6.844,-10.948 10.9489996,-10.948"
     id="path8"
     inkscape:connector-curvature="0"
     style="fill:#292f33" />
  <path
     d="M 9.4111534,27.02 C 10.877153,28.085 12.375153,29 13.083153,29 c 0.708,0 2.194,-0.915 3.66,-1.98 l 0,-3.205 -7.3319996,0 0,3.205 z"
     id="path10"
     inkscape:connector-curvature="0"
     style="fill:#f7dece" />
  <path
     d="m 9.4041534,25.179 c 1.0229996,1.155 2.2909996,1.468 3.6689996,1.468 1.379,0 2.647,-0.312 3.67,-1.468 l 0,-2.936 -7.3389996,0 0,2.936 z"
     id="path12"
     inkscape:connector-curvature="0"
     style="fill:#eec2ad" />
  <path
     d="m 4.8171534,15.717 c 0,-5.834 3.676,-10.563 8.2109996,-10.563 4.534,0 8.211,4.729 8.211,10.563 0,5.833 -3.677,10.286 -8.211,10.286 -4.5349996,0 -8.2109996,-4.452 -8.2109996,-10.286"
     id="path14"
     inkscape:connector-curvature="0"
     style="fill:#f7dece" />
  <path
     d="m 13.027153,23.543 c -1.606,0 -2.446,-0.794 -2.536,-0.885 -0.268,-0.267 -0.268,-0.7 0,-0.967 0.265,-0.265 0.692,-0.267 0.96,-0.007 0.035,0.032 0.552,0.491 1.576,0.491 1.039,0 1.557,-0.473 1.577,-0.492 0.273,-0.256 0.703,-0.248 0.963,0.02 0.26,0.269 0.26,0.691 -0.004,0.955 -0.089,0.091 -0.929,0.885 -2.536,0.885"
     id="path16"
     inkscape:connector-curvature="0"
     style="fill:#df1f32" />
  <path
     d="m 2.8081534,19 c -0.021,-1 -0.044,-0.224 -0.044,-0.465 0,-3.422 2.053,0.494 2.053,-1.943 0,-2.439 1.368,-2.683 2.736,-4.051 0.685,-0.685 2.053,-2.026 2.053,-2.026 0,0 3.4209996,2.067 6.1579996,2.067 2.736,0 5.474,1.375 5.474,4.112 0,2.737 2.053,-1.584 2.053,1.837 0,0.244 -0.023,-0.531 -0.04,0.469 l 0.718,0 c 0.007,-2 0.007,-1.924 0.007,-3.202 0,-8.895 -6.843,-12.207 -10.948,-12.207 -4.1049996,0 -10.9469996,3.257 -10.9469996,12.152 0,0.793 -0.02,1.257 0.008,3.257 l 0.719,0 z"
     id="path18"
     inkscape:connector-curvature="0"
     style="fill:#292f33" />
  <path
     d="m 9.6911534,17.886 c -0.465,0 -0.846,-0.381 -0.846,-0.846 l 0,-0.845 c 0,-0.465 0.381,-0.846 0.846,-0.846 0.4649996,0 0.8459996,0.381 0.8459996,0.846 l 0,0.845 c 10e-4,0.465 -0.38,0.846 -0.8459996,0.846 m 6.7649996,0 c -0.465,0 -0.846,-0.381 -0.846,-0.846 l 0,-0.845 c 0,-0.465 0.381,-0.846 0.846,-0.846 0.465,0 0.846,0.381 0.846,0.846 l 0,0.845 c 0,0.465 -0.381,0.846 -0.846,0.846"
     id="path20"
     inkscape:connector-curvature="0"
     style="fill:#662113" />
  <path
     d="m 13.920153,20.5 -1.691,0 c -0.233,0 -0.423,-0.19 -0.423,-0.423 l 0,-0.153 c 0,-0.233 0.19,-0.424 0.423,-0.424 l 1.691,0 c 0.232,0 0.423,0.19 0.423,0.424 l 0,0.153 c 0,0.233 -0.191,0.423 -0.423,0.423"
     id="path22"
     inkscape:connector-curvature="0"
     style="fill:#c1694f" />
  <path
     d="m 3.5831534,9 c 0,-1.105 4.253,-2 9.4999996,-2 5.247,0 9.5,0.895 9.5,2 0,1.105 -4.253,2 -9.5,2 C 7.8361534,11 3.5831534,10.105 3.5831534,9"
     id="path24"
     inkscape:connector-curvature="0"
     style="fill:#292f33" />
  <path
     d="m 22.583153,8 -18.9999996,0 0,-3.446 c 0,0 3.958,-3.554 9.4999996,-3.554 5.542,0 9.5,3.554 9.5,3.554 l 0,3.446 z"
     id="path26"
     inkscape:connector-curvature="0"
     style="fill:#66757f" />
  <path
     d="m 10.083153,5 c 0,-2.792 1.343,-1 3,-1 1.657,0 3,-1.792 3,1 0,1.657 -1.343,2 -3,2 -1.657,0 -3,-0.343 -3,-2"
     id="path28"
     inkscape:connector-curvature="0"
     style="fill:#ffac33" />
  <path
     d="m 11.083153,5 c 0,-1.105 0.895,-2 2,-2 1.105,0 2,0.895 2,2 0,1.105 -0.895,2 -2,2 -1.105,0 -2,-0.895 -2,-2 m 11.5,4 -18.9999996,0 c -0.275,0 -0.5,-0.225 -0.5,-0.5 0,-0.275 0.225,-0.5 0.5,-0.5 L 22.583153,8 c 0.275,0 0.5,0.225 0.5,0.5 0,0.275 -0.225,0.5 -0.5,0.5"
     id="path30"
     inkscape:connector-curvature="0"
     style="fill:#fdcb58" />
  <path
     d="m 6.6611534,29.056 -5.92600005,0.938 c -0.272,0.043 -0.529,-0.144 -0.572,-0.416 l -0.157,-0.988 c -0.043,-0.271 0.144,-0.528 0.416,-0.571 L 6.3481534,27.081 c 0.272,-0.043 0.529,0.145 0.572,0.415 l 0.157,0.988 c 0.043,0.271 -0.144,0.528 -0.416,0.572"
     id="path32"
     inkscape:connector-curvature="0"
     style="fill:#292f33" />
  <path
     d="m 0.91715335,27.94 0.98900005,-0.157 0.312,1.974 -0.989,0.157 z m 1.97300005,-0.313 0.987,-0.156 0.313,1.975 -0.988,0.157 z m 1.978,-0.313 0.988,-0.155 0.31,1.976 -0.988,0.155 z"
     id="path34"
     inkscape:connector-curvature="0"
     style="fill:#fdcb58" />
  <path
     d="m 25.431153,29.994 -5.926,-0.939 c -0.272,-0.043 -0.459,-0.3 -0.416,-0.572 l 0.157,-0.986 c 0.043,-0.272 0.3,-0.459 0.572,-0.416 l 5.926,0.938 c 0.271,0.043 0.459,0.3 0.416,0.572 l -0.157,0.987 c -0.043,0.272 -0.3,0.459 -0.572,0.416"
     id="path36"
     inkscape:connector-curvature="0"
     style="fill:#292f33" />
  <path
     d="m 19.999153,29.135 0.312,-1.975 0.988,0.156 -0.313,1.975 z m 1.976,0.312 0.31,-1.976 0.989,0.155 -0.31,1.976 z m 1.975,0.315 0.312,-1.976 0.99,0.156 -0.313,1.976 z"
     id="path38"
     inkscape:connector-curvature="0"
     style="fill:#fdcb58" />
  <path
     d="m 13.084153,30.878 c 0,0 3.381,2.494 4.093,2.778 0.156,0.063 -0.366,-3.656 -0.366,-3.656 l -7.4539996,0 c 0,0 -0.524,3.781 -0.232,3.625 0.639,-0.343 3.9589996,-2.747 3.9589996,-2.747"
     id="path40"
     inkscape:connector-curvature="0"
     style="fill:#99aab5" />
  <path
     d="m 14.395153,33.438 c 0,0 0.375,-0.625 0.531,-0.906 0.183,-0.329 0.453,-1.57 0.453,-1.57 L 13.191153,30 c 0,-0.007 -0.16,0.006 -0.16,0.006 l -0.184,0.042 -0.172,0.062 c -0.218,0.07 0.094,0.008 0.094,0.015 l -1.974,0.837 c 0,0 0.287,1.241 0.47,1.57 0.156,0.281 0.528,0.906 0.528,0.906 0,0 -0.753,0.562 -1.035,2.563 l 4.668,0 c -0.281,-1.595 -1.031,-2.563 -1.031,-2.563"
     id="path42"
     inkscape:connector-curvature="0"
     style="fill:#292f33" />
  <path
     d="m 8.3751534,26.625 c 0.566,0.566 4.7089996,3.383 4.7089996,3.383 0,0 -2.126,1.242 -4.0839996,3.534 -0.197,0.23 -1.542,-4.625 -1.583,-5.709 -0.012,-0.303 0.687,-1.479 0.958,-1.208 m 9.4379996,0 c -0.566,0.566 -4.709,3.383 -4.709,3.383 0,0 2.126,1.242 4.084,3.534 0.196,0.23 1.542,-4.625 1.583,-5.709 0.012,-0.303 -0.687,-1.479 -0.958,-1.208"
     id="path44"
     inkscape:connector-curvature="0"
     style="fill:#f5f8fa" />
  <path
     d="m 13.099153,30.688 c 0.39,-0.022 1.543,0.771 1.422,1.25 -0.461,1.827 -0.849,1.391 -1.391,1.391 -0.611,0 -0.964,0.473 -1.39,-1.312 -0.094,-0.388 0.797,-1.298 1.359,-1.329 m 2.031,5.312 -4.024,0 c 0,0 0.542,-2.167 2.019,-2.167 1.477,0 2.005,2.167 2.005,2.167"
     id="path46"
     inkscape:connector-curvature="0"
     style="fill:#323a3f" />
</svg>
