<?xml version="1.0" encoding="UTF-8" standalone="no"?>
<svg
   xmlns:dc="http://purl.org/dc/elements/1.1/"
   xmlns:cc="http://creativecommons.org/ns#"
   xmlns:rdf="http://www.w3.org/1999/02/22-rdf-syntax-ns#"
   xmlns:svg="http://www.w3.org/2000/svg"
   xmlns="http://www.w3.org/2000/svg"
   xmlns:sodipodi="http://sodipodi.sourceforge.net/DTD/sodipodi-0.dtd"
   xmlns:inkscape="http://www.inkscape.org/namespaces/inkscape"
   viewBox="0 0 34 34.646"
   id="svg2"
   version="1.1"
   inkscape:version="0.91 r13725"
   sodipodi:docname="1f466-1f3fd.svg"
   width="34"
   height="34.646">
  <metadata
     id="metadata18">
    <rdf:RDF>
      <cc:Work
         rdf:about="">
        <dc:format>image/svg+xml</dc:format>
        <dc:type
           rdf:resource="http://purl.org/dc/dcmitype/StillImage" />
      </cc:Work>
    </rdf:RDF>
  </metadata>
  <defs
     id="defs16" />
  <sodipodi:namedview
     pagecolor="#ffffff"
     bordercolor="#666666"
     borderopacity="1"
     objecttolerance="10"
     gridtolerance="10"
     guidetolerance="10"
     inkscape:pageopacity="0"
     inkscape:pageshadow="2"
     inkscape:window-width="640"
     inkscape:window-height="480"
     id="namedview14"
     showgrid="false"
     inkscape:zoom="6.5555556"
     inkscape:cx="17"
     inkscape:cy="17"
     inkscape:window-x="0"
     inkscape:window-y="0"
     inkscape:window-maximized="0"
     inkscape:current-layer="svg2" />
  <path
     d="m 5,19.646 c 0,2.209 -1.119,4 -2.5,4 -1.381,0 -2.5,-1.791 -2.5,-4 0,-2.209 1.119,-4 2.5,-4 1.381,0 2.5,1.791 2.5,4 z m 29,0 c 0,2.209 -1.119,4 -2.5,4 -1.381,0 -2.5,-1.791 -2.5,-4 0,-2.209 1.119,-4 2.5,-4 1.381,0 2.5,1.791 2.5,4 z"
     id="path4"
     inkscape:connector-curvature="0"
     style="fill:#d5ab88" />
  <path
     d="M 3,20.208 C 3,11.682 9.268,4.77 17,4.77 c 7.732,0 14,6.912 14,15.438 0,8.526 -6.268,14.438 -14,14.438 -7.732,0 -14,-5.912 -14,-14.438 z"
     id="path6"
     inkscape:connector-curvature="0"
     style="fill:#d5ab88" />
  <path
     d="m 11,21.646 c -0.552,0 -1,-0.447 -1,-1 l 0,-2 c 0,-0.552 0.448,-1 1,-1 0.552,0 1,0.448 1,1 l 0,2 c 0,0.553 -0.448,1 -1,1 z m 12,0 c -0.553,0 -1,-0.447 -1,-1 l 0,-2 c 0,-0.552 0.447,-1 1,-1 0.553,0 1,0.448 1,1 l 0,2 c 0,0.553 -0.447,1 -1,1 z"
     id="path8"
     inkscape:connector-curvature="0"
     style="fill:#662113" />
  <path
     d="m 17,29.646 c -4.188,0 -6.357,-1.06 -6.447,-1.105 -0.494,-0.247 -0.694,-0.848 -0.447,-1.342 0.247,-0.492 0.843,-0.692 1.337,-0.449 0.051,0.024 1.925,0.896 5.557,0.896 3.665,0 5.54,-0.888 5.559,-0.897 0.496,-0.241 1.094,-0.034 1.336,0.457 0.243,0.493 0.045,1.089 -0.447,1.335 -0.092,0.045 -2.26,1.105 -6.448,1.105 z m 1,-5 -2,0 c -0.552,0 -1,-0.447 -1,-1 0,-0.553 0.448,-1 1,-1 l 2,0 c 0.553,0 1,0.447 1,1 0,0.553 -0.447,1 -1,1 z"
     id="path10"
     inkscape:connector-curvature="0"
     style="fill:#c1694f" />
  <path
     d="M 17,0 C 7.77,0 2,6.462 2,11.846 c 0,5.385 1.154,7.539 2.308,5.385 l 2.308,-4.308 c 0,0 3.791,-0.124 6.099,-2.278 0,0 -1.071,4 6.594,0.124 0,0 -0.166,3.876 5.191,-0.124 0,0 4.039,1.201 5.191,6.586 0.32,1.494 2.309,0 2.309,-5.385 C 32,6.462 27.385,0 17,0 Z"
     id="path12"
     inkscape:connector-curvature="0"
     style="fill:#963b22" />
</svg>
