<?xml version="1.0" encoding="UTF-8" standalone="no"?>
<svg
   xmlns:dc="http://purl.org/dc/elements/1.1/"
   xmlns:cc="http://creativecommons.org/ns#"
   xmlns:rdf="http://www.w3.org/1999/02/22-rdf-syntax-ns#"
   xmlns:svg="http://www.w3.org/2000/svg"
   xmlns="http://www.w3.org/2000/svg"
   xmlns:sodipodi="http://sodipodi.sourceforge.net/DTD/sodipodi-0.dtd"
   xmlns:inkscape="http://www.inkscape.org/namespaces/inkscape"
   viewBox="0 0 32.255936 33.021"
   id="svg2"
   version="1.1"
   inkscape:version="0.91 r13725"
   sodipodi:docname="1f467-1f3fb.svg"
   width="32.255936"
   height="33.021">
  <metadata
     id="metadata26">
    <rdf:RDF>
      <cc:Work
         rdf:about="">
        <dc:format>image/svg+xml</dc:format>
        <dc:type
           rdf:resource="http://purl.org/dc/dcmitype/StillImage" />
      </cc:Work>
    </rdf:RDF>
  </metadata>
  <defs
     id="defs24" />
  <sodipodi:namedview
     pagecolor="#ffffff"
     bordercolor="#666666"
     borderopacity="1"
     objecttolerance="10"
     gridtolerance="10"
     guidetolerance="10"
     inkscape:pageopacity="0"
     inkscape:pageshadow="2"
     inkscape:window-width="640"
     inkscape:window-height="480"
     id="namedview22"
     showgrid="false"
     inkscape:zoom="6.5555556"
     inkscape:cx="16.128048"
     inkscape:cy="16.021"
     inkscape:window-x="0"
     inkscape:window-y="0"
     inkscape:window-maximized="0"
     inkscape:current-layer="svg2" />
  <path
     d="m 28.088048,22.087 c 4.04,3.913 4.083,10.934 3.061,10.934 -1.022,0 -4.115,-1.852 -6.068,-3.937 -1.953,-2.084 -1.75,-6.778 -1.75,-6.778 l 1.586,-4.319 c 0,-10e-4 -0.869,0.187 3.171,4.1 z"
     id="path4"
     inkscape:connector-curvature="0"
     style="fill:#292f33" />
  <path
     d="m 25.088048,22.087 c 4.04,3.913 4.083,10.934 3.061,10.934 -1.022,0 -4.115,-1.852 -6.068,-3.937 -1.953,-2.084 -1.75,-6.778 -1.75,-6.778 l 1.586,-4.319 c 0,-10e-4 -0.869,0.187 3.171,4.1 z M 1.1280482,33 c -1.00000002,0 -1.00000002,-7 3,-11 4,-4 3,-4 3,-4 l 2,4 c 0,0 0,5 -2,7 -2,2 -5,4 -6,4 z"
     id="path6"
     inkscape:connector-curvature="0"
     style="fill:#292f33" />
  <path
     d="m 4.1280482,33 c -1,0 -1,-7 3,-11 3.9999998,-4 2.9999998,-4 2.9999998,-4 l 2,4 c 0,0 0,5 -2,7 -1.9999998,2 -4.9999998,4 -5.9999998,4 z"
     id="path8"
     inkscape:connector-curvature="0"
     style="fill:#292f33" />
  <path
     d="m 5.0420482,17.353 c -0.571,-2.134 -2.116,-3.575 -3.45,-3.217 -1.33400002,0.358 -1.95000002,2.378 -1.37900002,4.511 0.571,2.135 2.11600002,3.574 3.45000002,3.217 1.334,-0.358 1.951,-2.378 1.379,-4.511 z m 27.0009998,1.294 c 0.571,-2.134 -0.046,-4.154 -1.38,-4.512 -1.333,-0.356 -2.878,1.083 -3.449,3.218 -0.572,2.134 0.045,4.153 1.379,4.511 1.334,0.358 2.879,-1.083 3.45,-3.217 z"
     id="path10"
     inkscape:connector-curvature="0"
     style="fill:#f7dece" />
  <path
     d="m 29.128048,18 c 0,-9.389 -5.82,-16 -13,-16 C 8.9480482,2 3.1280482,8.611 3.1280482,18 c 0,9.389 5.82,15 12.9999998,15 7.18,0 13,-5.611 13,-15 z"
     id="path12"
     inkscape:connector-curvature="0"
     style="fill:#f7dece" />
  <path
     d="m 16.128048,26.651 c -2.42,0 -4.274,-0.687 -4.352,-0.715 -0.517,-0.194 -0.779,-0.771 -0.584,-1.288 0.194,-0.517 0.769,-0.779 1.286,-0.585 0.016,0.006 1.61,0.588 3.65,0.588 2.041,0 3.635,-0.582 3.65,-0.588 0.516,-0.194 1.094,0.071 1.285,0.587 0.193,0.517 -0.067,1.092 -0.584,1.286 -0.077,0.029 -1.93,0.715 -4.351,0.715 z"
     id="path14"
     inkscape:connector-curvature="0"
     style="fill:#df1f32" />
  <path
     d="m 17.128048,22 -2,0 c -0.552,0 -1,-0.447 -1,-1 0,-0.553 0.448,-1 1,-1 l 2,0 c 0.553,0 1,0.447 1,1 0,0.553 -0.447,1 -1,1 z"
     id="path16"
     inkscape:connector-curvature="0"
     style="fill:#c1694f" />
  <path
     d="M 10.128048,19 C 9.5760482,19 9.1280482,18.553 9.1280482,18 l 0,-2 c 0,-0.552 0.448,-1 0.9999998,-1 0.552,0 1,0.448 1,1 l 0,2 c 0,0.553 -0.448,1 -1,1 z m 12,0 c -0.553,0 -1,-0.447 -1,-1 l 0,-2 c 0,-0.552 0.447,-1 1,-1 0.553,0 1,0.448 1,1 l 0,2 c 0,0.553 -0.447,1 -1,1 z"
     id="path18"
     inkscape:connector-curvature="0"
     style="fill:#662113" />
  <path
     d="m 30.128048,9 c -2,-7 -7,-9 -10,-9 -2,0 -4,2 -4,2 0,0 -2,-2 -4,-2 -2.9999998,0 -7.9999998,2 -9.9999998,9 -1.64800002,5.769 1,11 1,11 0,-3.001 2,-9 6.9999998,-9 5,0 6,-4 6,-4 0,0 0.786,4 5.786,4 5,0 7.214,6 7.214,9 0,0 2.648,-5.231 1,-11 z"
     id="path20"
     inkscape:connector-curvature="0"
     style="fill:#292f33" />
</svg>
