<?xml version="1.0" encoding="UTF-8" standalone="no"?>
<svg
   xmlns:dc="http://purl.org/dc/elements/1.1/"
   xmlns:cc="http://creativecommons.org/ns#"
   xmlns:rdf="http://www.w3.org/1999/02/22-rdf-syntax-ns#"
   xmlns:svg="http://www.w3.org/2000/svg"
   xmlns="http://www.w3.org/2000/svg"
   xmlns:sodipodi="http://sodipodi.sourceforge.net/DTD/sodipodi-0.dtd"
   xmlns:inkscape="http://www.inkscape.org/namespaces/inkscape"
   viewBox="0 0 34.854698 33.257"
   id="svg2"
   version="1.1"
   inkscape:version="0.91 r13725"
   sodipodi:docname="1f469-1f3fb-200d-2696-fe0f.svg"
   width="34.854698"
   height="33.257">
  <metadata
     id="metadata44">
    <rdf:RDF>
      <cc:Work
         rdf:about="">
        <dc:format>image/svg+xml</dc:format>
        <dc:type
           rdf:resource="http://purl.org/dc/dcmitype/StillImage" />
      </cc:Work>
    </rdf:RDF>
  </metadata>
  <defs
     id="defs42" />
  <sodipodi:namedview
     pagecolor="#ffffff"
     bordercolor="#666666"
     borderopacity="1"
     objecttolerance="10"
     gridtolerance="10"
     guidetolerance="10"
     inkscape:pageopacity="0"
     inkscape:pageshadow="2"
     inkscape:window-width="640"
     inkscape:window-height="480"
     id="namedview40"
     showgrid="false"
     inkscape:zoom="6.5555556"
     inkscape:cx="17.854697"
     inkscape:cy="18"
     inkscape:window-x="0"
     inkscape:window-y="0"
     inkscape:window-maximized="0"
     inkscape:current-layer="svg2" />
  <path
     d="m 34.854697,33.257 0,-3.5 c 0,-3.314 -3.685,-5.5 -7,-5.5 l -12,0 c -3.313,0 -6.9999997,2.186 -6.9999997,5.5 l 0,3.5 25.9999997,0 z"
     id="path4"
     inkscape:connector-curvature="0"
     style="fill:#292f33" />
  <path
     d="m 18.182697,24.277 c 1.466,1.065 2.964,1.98 3.672,1.98 0.708,0 2.194,-0.915 3.66,-1.98 l 0,-3.205 -7.332,0 0,3.205 z"
     id="path6"
     inkscape:connector-curvature="0"
     style="fill:#f7dece" />
  <path
     d="m 18.175697,22.436 c 1.023,1.155 2.291,1.468 3.669,1.468 1.379,0 2.647,-0.312 3.67,-1.468 l 0,-2.936 -7.339,0 0,2.936 z"
     id="path8"
     inkscape:connector-curvature="0"
     style="fill:#eec2ad" />
  <path
     d="m 18.723697,2.594 c 0,-1.433 1.434,-2.594 3.202,-2.594 1.768,0 3.202,1.161 3.202,2.594 0,1.433 -1.434,2.594 -3.202,2.594 -1.768,0 -3.202,-1.161 -3.202,-2.594"
     id="path10"
     inkscape:connector-curvature="0"
     style="fill:#6d6e71" />
  <path
     d="m 31.653697,13.619 c 0,-1.388 -0.683,-2.511 -1.539,-2.581 -0.89,-4.841 -4.213,-8.444 -8.188,-8.444 -3.975,0 -7.299,3.603 -8.188,8.444 -0.857,0.07 -1.539,1.193 -1.539,2.581 0,1.396 0.691,2.527 1.555,2.583 0.913,4.516 4.22,7.145 8.172,7.145 3.952,0 7.259,-2.629 8.173,-7.145 0.862,-0.056 1.554,-1.187 1.554,-2.583"
     id="path12"
     inkscape:connector-curvature="0"
     style="fill:#f7dece" />
  <path
     d="m 21.925697,20.527 c -1.634,0 -2.266,-0.488 -2.376,-0.586 -0.268,-0.238 -0.292,-0.648 -0.054,-0.916 0.229,-0.261 0.624,-0.291 0.892,-0.073 0.039,0.025 0.454,0.278 1.538,0.278 1.136,0 1.537,-0.277 1.541,-0.281 0.269,-0.238 0.665,-0.201 0.902,0.066 0.238,0.268 0.201,0.688 -0.067,0.926 -0.109,0.097 -0.743,0.586 -2.376,0.586"
     id="path14"
     inkscape:connector-curvature="0"
     style="fill:#df1f32" />
  <path
     d="m 22.574697,18.257 -1.297,0 c -0.358,0 -0.648,-0.142 -0.648,-0.5 0,-0.358 0.291,-0.5 0.648,-0.5 l 1.297,0 c 0.358,0 0.649,0.142 0.649,0.5 0,0.358 -0.291,0.5 -0.649,0.5"
     id="path16"
     inkscape:connector-curvature="0"
     style="fill:#c1694f" />
  <path
     d="m 31.653697,7.782 c -1.297,-4.54 -5.188,-5.837 -7.255,-5.837 -1.176,0 -2.473,0.649 -2.473,0.649 0,0 -1.297,-0.649 -2.594,-0.649 -1.945,0 -5.836,1.297 -7.133,5.837 -1.069,3.741 1.297,7.134 1.297,7.134 0,-1.946 1.297,-5.837 4.539,-5.837 3.243,0 3.892,-2.594 3.892,-2.594 0,0 0.51,2.594 3.753,2.594 3.242,0 4.678,3.891 4.678,5.837 -0.001,0 2.365,-3.393 1.296,-7.134"
     id="path18"
     inkscape:connector-curvature="0"
     style="fill:#808285" />
  <circle
     cx="31.004698"
     cy="15.563999"
     r="0.64899999"
     id="circle20"
     style="fill:#aa8dd8" />
  <circle
     cx="12.846697"
     cy="15.563999"
     r="0.64899999"
     id="circle22"
     style="fill:#aa8dd8" />
  <path
     d="m 19.354697,12.257 -2,0 c -0.275,0 -0.5,-0.225 -0.5,-0.5 0,-0.275 0.225,-0.5 0.5,-0.5 l 2,0 c 0.275,0 0.5,0.225 0.5,0.5 0,0.275 -0.225,0.5 -0.5,0.5 m 7,0 -2,0 c -0.275,0 -0.5,-0.225 -0.5,-0.5 0,-0.275 0.225,-0.5 0.5,-0.5 l 2,0 c 0.275,0 0.5,0.225 0.5,0.5 0,0.275 -0.225,0.5 -0.5,0.5"
     id="path24"
     inkscape:connector-curvature="0"
     style="fill:#808285" />
  <path
     d="m 18.354697,15.507 c -0.413,0 -0.75,-0.337 -0.75,-0.75 l 0,-1 c 0,-0.413 0.337,-0.75 0.75,-0.75 0.413,0 0.75,0.337 0.75,0.75 l 0,1 c 0,0.413 -0.337,0.75 -0.75,0.75 m 7,0 c -0.413,0 -0.75,-0.337 -0.75,-0.75 l 0,-1 c 0,-0.413 0.337,-0.75 0.75,-0.75 0.413,0 0.75,0.337 0.75,0.75 l 0,1 c 0,0.413 -0.337,0.75 -0.75,0.75"
     id="path26"
     inkscape:connector-curvature="0"
     style="fill:#662113" />
  <path
     d="m 26.843697,24.257 c -0.083,-0.667 -0.458,-1.375 -1,-1 -0.543,0.376 -3.936,2.952 -3.995,2.996 -0.058,-0.044 -3.451,-2.62 -3.994,-2.996 -0.542,-0.375 -0.917,0.333 -1,1 -0.083,0.667 0.333,4.667 1,5 0.661,0.33 3.937,-2.937 3.995,-2.995 0.058,0.058 3.334,3.325 3.995,2.995 0.666,-0.333 1.082,-4.333 0.999,-5 z"
     id="path28"
     inkscape:connector-curvature="0"
     style="fill:#f5f8fa" />
  <path
     d="m 11.937697,30.598 c 0.251,0 0.401,2.659 0.401,2.659 l -0.956,0 c 0,0 0.193,-2.659 0.555,-2.659 m 3,0 c 0.251,0 0.401,2.659 0.401,2.659 l -0.956,0 c 0,0 0.193,-2.659 0.555,-2.659 m 16.846,0 c -0.251,0 -0.401,2.659 -0.401,2.659 l 0.956,0 c -0.001,0 -0.194,-2.659 -0.555,-2.659 m -3,0 c -0.251,0 -0.401,2.659 -0.401,2.659 l 0.956,0 c -0.001,0 -0.194,-2.659 -0.555,-2.659"
     id="path30"
     inkscape:connector-curvature="0"
     style="fill:#66757f" />
  <path
     d="m 7.7086973,20.922 c 0.468,1.24 0.178,2.498 -0.649,2.812 -0.826,0.311 -1.876,-0.441 -2.345,-1.681 -0.468,-1.239 -0.178,-2.498 0.649,-2.811 0.826,-0.312 1.876,0.44 2.345,1.68"
     id="path32"
     inkscape:connector-curvature="0"
     style="fill:#c1694f" />
  <path
     d="m 8.9466973,33.257 -3.479,-9.208 0.25,-0.094 c 1.098,-0.415 1.656,-1.651 1.242,-2.75 -0.415,-1.097 -1.652,-1.656 -2.75,-1.241 l -1.995,0.754 c -1.098,0.413 -1.65700002,1.65 -1.24200002,2.749 0.41400002,1.098 1.65200002,1.656 2.74900002,1.241 l 0.25,-0.094 3.265,8.643 1.71,0 z"
     id="path34"
     inkscape:connector-curvature="0"
     style="fill:#662113" />
  <path
     d="m 3.2176973,22.618 c 0.468,1.24 0.178,2.498 -0.649,2.812 -0.826,0.312 -1.87600002,-0.44 -2.34500002,-1.681 -0.468,-1.239 -0.178,-2.498 0.649,-2.811 0.82700002,-0.312 1.87700002,0.44 2.34500002,1.68"
     id="path36"
     inkscape:connector-curvature="0"
     style="fill:#c1694f" />
  <path
     d="m 11.172697,33.257 -0.466,-1.588 c -0.363,-1.239 -1.6729997,-1.955 -2.9109997,-1.592 l -1.255,0.368 c -1.205,0.354 -1.907,1.604 -1.61,2.812 l 6.2419997,0 z"
     id="path38"
     inkscape:connector-curvature="0"
     style="fill:#f7dece" />
</svg>
