<?xml version="1.0" encoding="UTF-8" standalone="no"?>
<svg
   xmlns:dc="http://purl.org/dc/elements/1.1/"
   xmlns:cc="http://creativecommons.org/ns#"
   xmlns:rdf="http://www.w3.org/1999/02/22-rdf-syntax-ns#"
   xmlns:svg="http://www.w3.org/2000/svg"
   xmlns="http://www.w3.org/2000/svg"
   xmlns:sodipodi="http://sodipodi.sourceforge.net/DTD/sodipodi-0.dtd"
   xmlns:inkscape="http://www.inkscape.org/namespaces/inkscape"
   viewBox="0 0 31.533617 36"
   id="svg2"
   version="1.1"
   inkscape:version="0.91 r13725"
   sodipodi:docname="1f469-1f3fe-200d-1f91d-200d-1f469-1f3fc.svg"
   width="31.533617"
   height="36">
  <metadata
     id="metadata68">
    <rdf:RDF>
      <cc:Work
         rdf:about="">
        <dc:format>image/svg+xml</dc:format>
        <dc:type
           rdf:resource="http://purl.org/dc/dcmitype/StillImage" />
      </cc:Work>
    </rdf:RDF>
  </metadata>
  <defs
     id="defs66" />
  <sodipodi:namedview
     pagecolor="#ffffff"
     bordercolor="#666666"
     borderopacity="1"
     objecttolerance="10"
     gridtolerance="10"
     guidetolerance="10"
     inkscape:pageopacity="0"
     inkscape:pageshadow="2"
     inkscape:window-width="640"
     inkscape:window-height="480"
     id="namedview64"
     showgrid="false"
     inkscape:zoom="6.5555556"
     inkscape:cx="15.777038"
     inkscape:cy="18"
     inkscape:window-x="0"
     inkscape:window-y="0"
     inkscape:window-maximized="0"
     inkscape:current-layer="svg2" />
  <path
     d="m 8.7770377,0 c -1.264,0 -2.435,0.393 -3.402,1.061 -0.197,-0.03 -0.393,-0.061 -0.598,-0.061 -2.209,0 -4.00000001,1.791 -4.00000001,4 l 0,6 c 0,3.866 3.13400001,7 7.00000001,7 3.8660003,0 7.0000003,-3.134 7.0000003,-7 l 0,-4.999 C 14.777038,2.687 12.091038,0 8.7770377,0 Z"
     id="path4"
     inkscape:connector-curvature="0"
     style="fill:#60352a" />
  <path
     d="m 8.9900377,34.309 c -0.052,0.682 1.8490003,0.953 2.1290003,0.791 0.299,-0.173 -0.698,-0.623 -0.702,-0.977 -0.019,-1.797 0.53,-1.648 0.311,-3.492 0.443,-1.625 0.672,-2.592 0.672,-3.131 0,-1.25 -3.3120003,-0.766 -3.3120003,0 0,0.344 0.365,1.681 0.417,3.131 -0.313,1.659 0.641,1.615 0.485,3.678 z m -2.448,0 c 0.052,0.682 -1.849,0.953 -2.129,0.791 -0.299,-0.173 0.698,-0.623 0.702,-0.977 0.019,-1.797 -0.53,-1.648 -0.311,-3.492 -0.443,-1.625 -0.672,-2.592 -0.672,-3.131 0,-1.25 3.313,-0.766 3.313,0 0,0.344 -0.365,1.681 -0.417,3.131 0.311,1.659 -0.642,1.615 -0.486,3.678 z"
     id="path6"
     inkscape:connector-curvature="0"
     style="fill:#af7e57" />
  <path
     d="m 8.0880377,27.5 c 0,0.206 0.13,0.771 0.246,1.5 l 2.8170003,0 c 0.164,-0.689 0.249,-1.175 0.249,-1.5 0,-1.25 -3.3120003,-0.766 -3.3120003,0 z m -3.957,0 c 0,0.325 0.085,0.811 0.249,1.5 l 2.817,0 c 0.116,-0.729 0.247,-1.294 0.247,-1.5 0,-0.766 -3.313,-1.25 -3.313,0 z"
     id="path8"
     inkscape:connector-curvature="0"
     style="fill:#9b6a49" />
  <path
     d="m 1.0350377,26.96 c -0.25800001,0.124 -0.50300001,-0.097 -0.61900001,-0.227 -0.328,-0.367 -0.583,-1.246 -0.282,-2.209 0.303,-0.973 0.6,-2.384 1.19900001,-4.002 0.081,-0.22 0.499,-3.764 0.805,-4.445 0.197,-0.437 1.28,-0.896 1.81,-0.807 0.529,0.089 0.246,0.651 0.105,1.13 0,0 -0.916,3.953 -1.016,4.296 -0.316,1.079 -1.624,2.918 -1.565,4.237 0.031,0.692 0.06,1.255 -0.339,1.246 -0.049,0.362 -0.003,0.735 -0.098,0.781 z m 14.9840003,-0.2 c 0.271,0.091 0.487,-0.159 0.586,-0.302 0.279,-0.405 0.422,-1.309 0.004,-2.227 -0.423,-0.927 -0.894,-2.29 -1.69,-3.821 -0.108,-0.208 -0.966,-3.672 -1.355,-4.309 -0.25,-0.409 -1.382,-0.729 -1.897,-0.574 -0.513,0.154 -0.162,0.676 0.037,1.134 0,0 1.403,3.807 1.546,4.135 0.449,1.031 1.977,2.691 2.082,4.008 0.056,0.69 0.097,1.253 0.492,1.194 0.094,0.353 0.095,0.729 0.195,0.762 z"
     id="path10"
     inkscape:connector-curvature="0"
     style="fill:#af7e57" />
  <path
     d="m 11.722038,36 c 0.305,0 0.372,-0.418 0.089,-0.629 -0.379,-0.285 -0.88,-1.371 -1.561,-1.371 l -1.2450003,0 c -0.229,0 -0.49,1.209 -0.41,1.48 0.102,0.345 0.433,0.52 0.812,0.52 l 2.3150003,0 z m -7.9130003,0 c -0.305,0 -0.372,-0.418 -0.089,-0.629 0.379,-0.285 0.88,-1.371 1.561,-1.371 l 1.245,0 c 0.229,0 0.49,1.209 0.41,1.48 -0.102,0.345 -0.433,0.52 -0.811,0.52 l -2.316,0 z"
     id="path12"
     inkscape:connector-curvature="0"
     style="fill:#292f33" />
  <path
     d="m 12.131038,17.771 1.646,-1.771 c -1.438,-1.792 -4.0000003,-2 -4.0000003,-2 l -4,0 c 0,0 -2.562,0.208 -4,2 l 1.646,1.771 c 0,0 0.604,2.917 0.604,3.229 0,0.312 -1.25,4.75 -1.25,7 l 10.0000003,0 c 0,-2.25 -1.25,-6.688 -1.25,-7 0,-0.312 0.604,-3.229 0.604,-3.229 z"
     id="path14"
     inkscape:connector-curvature="0"
     style="fill:#e75a70" />
  <path
     d="m 11.527038,21 c 0,-0.106 0.07,-0.512 0.161,-1 l -7.8220003,0 c 0.092,0.488 0.161,0.894 0.161,1 0,0.083 -0.122,0.509 -0.223,1 l 7.9420003,0 c -0.108,-0.558 -0.219,-0.917 -0.219,-1 z"
     id="path16"
     inkscape:connector-curvature="0"
     style="fill:#da2f47" />
  <path
     d="m 5.7770377,11 0,4 c 0,1.104 0.896,2 2,2 1.104,0 2,-0.896 2,-2 l 0,-4 -4,0 z"
     id="path18"
     inkscape:connector-curvature="0"
     style="fill:#af7e57" />
  <path
     d="m 9.7770377,11 -4,0.019 0,3.981 c 0,0 2,1 4,0 l 0,-4 z"
     id="path20"
     inkscape:connector-curvature="0"
     style="fill:#9b6a49" />
  <path
     d="m 12.777038,3 -10.0000003,0 0,6 c 0,2.762 2.238,5 5,5 2.7620003,0 5.0000003,-2.237 5.0000003,-5 l 0,-6 z"
     id="path22"
     inkscape:connector-curvature="0"
     style="fill:#af7e57" />
  <path
     d="m 12.777038,2 -10.0000003,0 -1,5 c 4,0 4,-4 4,-4 0,0 0,4 8.0000003,4 l -1,-5 z"
     id="path24"
     inkscape:connector-curvature="0"
     style="fill:#60352a" />
  <path
     d="m 9.7770377,12 -4,0 c 0,0 0,1 2,1 2,0 2,-1 2,-1 z"
     id="path26"
     inkscape:connector-curvature="0"
     style="fill:#df1f32" />
  <circle
     cx="5.2770376"
     cy="8.5"
     r="0.5"
     id="circle28"
     style="fill:#662113" />
  <circle
     cx="10.277038"
     cy="8.5"
     r="0.5"
     id="circle30"
     style="fill:#662113" />
  <path
     d="m 6.7770377,10 2,0 c 0,0 0,1 -1,1 -1,0 -1,-1 -1,-1 z"
     id="path32"
     inkscape:connector-curvature="0"
     style="fill:#915a34" />
  <path
     d="m 30.777038,6.001 c 0,-3.314 -2.687,-6.001 -6,-6.001 -1.264,0 -2.435,0.393 -3.402,1.061 -0.197,-0.03 -0.393,-0.061 -0.598,-0.061 -2.209,0 -4,1.791 -4,4 l 0,6 14,0 0,-4.999 z"
     id="path34"
     inkscape:connector-curvature="0"
     style="fill:#ffe51e" />
  <path
     d="m 24.990038,34.309 c -0.052,0.682 1.849,0.953 2.129,0.791 0.299,-0.173 -0.698,-0.623 -0.702,-0.977 -0.019,-1.797 0.53,-1.648 0.311,-3.492 0.443,-1.625 0.672,-2.592 0.672,-3.131 0,-1.25 -3.312,-0.766 -3.312,0 0,0.344 0.365,1.681 0.417,3.131 -0.313,1.659 0.641,1.615 0.485,3.678 z m -2.448,0 c 0.052,0.682 -1.849,0.953 -2.129,0.791 -0.299,-0.173 0.698,-0.623 0.702,-0.977 0.019,-1.797 -0.53,-1.648 -0.311,-3.492 -0.443,-1.625 -0.672,-2.592 -0.672,-3.131 0,-1.25 3.312,-0.766 3.312,0 0,0.344 -0.365,1.681 -0.417,3.131 0.312,1.659 -0.642,1.615 -0.485,3.678 z"
     id="path36"
     inkscape:connector-curvature="0"
     style="fill:#f3d2a2" />
  <path
     d="m 24.088038,27.5 c 0,0.206 0.13,0.771 0.246,1.5 l 2.817,0 c 0.164,-0.689 0.249,-1.175 0.249,-1.5 0,-1.25 -3.312,-0.766 -3.312,0 z m -3.957,0 c 0,0.325 0.085,0.811 0.249,1.5 l 2.817,0 c 0.116,-0.729 0.247,-1.294 0.247,-1.5 0,-0.766 -3.313,-1.25 -3.313,0 z"
     id="path38"
     inkscape:connector-curvature="0"
     style="fill:#e2c196" />
  <path
     d="m 15.894038,26.76 c -0.271,0.091 -0.487,-0.159 -0.586,-0.302 -0.279,-0.405 -0.422,-1.309 -0.004,-2.227 0.423,-0.927 0.702,-2.072 1.69,-3.821 0.115,-0.204 0.494,-2.746 1.242,-4.354 0.202,-0.435 1.495,-0.685 2.009,-0.529 0.513,0.154 -0.005,0.98 -0.037,1.134 -0.344,1.651 -1.305,4.077 -1.45,4.404 -0.8,1.806 -1.965,2.389 -2.071,3.706 -0.056,0.69 -0.205,1.286 -0.6,1.228 -0.092,0.352 -0.094,0.728 -0.193,0.761 z m 14.595,0.204 c 0.257,0.126 0.504,-0.094 0.62,-0.222 0.33,-0.365 0.591,-1.242 0.296,-2.208 -0.297,-0.975 -0.424,-2.146 -1.174,-4.01 -0.088,-0.217 -0.129,-2.787 -0.66,-4.479 -0.143,-0.458 -1.392,-0.875 -1.922,-0.789 -0.529,0.086 -0.124,0.972 -0.112,1.129 0.124,1.682 0.758,4.213 0.859,4.556 0.556,1.895 1.634,2.626 1.566,3.946 -0.036,0.692 0.034,1.302 0.433,1.296 0.048,0.363 0,0.735 0.094,0.781 z"
     id="path40"
     inkscape:connector-curvature="0"
     style="fill:#f3d2a2" />
  <path
     d="m 27.722038,36 c 0.305,0 0.372,-0.418 0.089,-0.629 -0.379,-0.285 -0.88,-1.371 -1.561,-1.371 l -1.245,0 c -0.229,0 -0.49,1.209 -0.41,1.48 0.102,0.345 0.433,0.52 0.812,0.52 l 2.315,0 z m -7.913,0 c -0.305,0 -0.372,-0.418 -0.089,-0.629 0.379,-0.285 0.88,-1.371 1.561,-1.371 l 1.245,0 c 0.229,0 0.49,1.209 0.41,1.48 -0.102,0.345 -0.433,0.52 -0.811,0.52 l -2.316,0 z"
     id="path42"
     inkscape:connector-curvature="0"
     style="fill:#292f33" />
  <path
     d="m 28.131038,17.771 1.646,-1.771 c -1.438,-1.792 -4,-2 -4,-2 l -4,0 c 0,0 -2.562,0.208 -4,2 l 1.646,1.771 c 0,0 0.604,2.917 0.604,3.229 0,0.312 -1.25,4.75 -1.25,7 l 10,0 c 0,-2.25 -1.25,-6.688 -1.25,-7 0,-0.312 0.604,-3.229 0.604,-3.229 z"
     id="path44"
     inkscape:connector-curvature="0"
     style="fill:#9268ca" />
  <path
     d="m 27.527038,21 c 0,-0.106 0.07,-0.512 0.161,-1 l -7.822,0 c 0.092,0.488 0.161,0.894 0.161,1 0,0.083 -0.122,0.509 -0.223,1 l 7.942,0 c -0.108,-0.558 -0.219,-0.917 -0.219,-1 z"
     id="path46"
     inkscape:connector-curvature="0"
     style="fill:#aa8ed6" />
  <path
     d="m 21.777038,11 0,4 c 0,1.104 0.896,2 2,2 1.104,0 2,-0.896 2,-2 l 0,-4 -4,0 z"
     id="path48"
     inkscape:connector-curvature="0"
     style="fill:#f3d2a2" />
  <path
     d="m 25.777038,11 -4,0.019 0,3.981 c 0,0 2,1 4,0 l 0,-4 z"
     id="path50"
     inkscape:connector-curvature="0"
     style="fill:#e2c196" />
  <path
     d="m 28.777038,3 -10,0 0,6 c 0,2.762 2.238,5 5,5 2.762,0 5,-2.237 5,-5 l 0,-6 z"
     id="path52"
     inkscape:connector-curvature="0"
     style="fill:#f3d2a2" />
  <path
     d="m 28.777038,2 -10,0 -1,5 c 4,0 4,-4 4,-4 0,0 0,4 8,4 l -1,-5 z"
     id="path54"
     inkscape:connector-curvature="0"
     style="fill:#ffe51e" />
  <path
     d="m 25.777038,12 -4,0 c 0,0 0,1 2,1 2,0 2,-1 2,-1 z"
     id="path56"
     inkscape:connector-curvature="0"
     style="fill:#df1f32" />
  <circle
     cx="21.277039"
     cy="8.5"
     r="0.5"
     id="circle58"
     style="fill:#662113" />
  <circle
     cx="26.277039"
     cy="8.5"
     r="0.5"
     id="circle60"
     style="fill:#662113" />
  <path
     d="m 22.777038,10 2,0 c 0,0 0,1 -1,1 -1,0 -1,-1 -1,-1 z"
     id="path62"
     inkscape:connector-curvature="0"
     style="fill:#c1694f" />
</svg>
