<?xml version="1.0" encoding="UTF-8" standalone="no"?>
<svg
   xmlns:dc="http://purl.org/dc/elements/1.1/"
   xmlns:cc="http://creativecommons.org/ns#"
   xmlns:rdf="http://www.w3.org/1999/02/22-rdf-syntax-ns#"
   xmlns:svg="http://www.w3.org/2000/svg"
   xmlns="http://www.w3.org/2000/svg"
   xmlns:sodipodi="http://sodipodi.sourceforge.net/DTD/sodipodi-0.dtd"
   xmlns:inkscape="http://www.inkscape.org/namespaces/inkscape"
   viewBox="0 0 34.992294 36"
   id="svg2"
   version="1.1"
   inkscape:version="0.91 r13725"
   sodipodi:docname="1f468-1f3fc-200d-1f4bb.svg"
   width="34.992294"
   height="36">
  <metadata
     id="metadata34">
    <rdf:RDF>
      <cc:Work
         rdf:about="">
        <dc:format>image/svg+xml</dc:format>
        <dc:type
           rdf:resource="http://purl.org/dc/dcmitype/StillImage" />
      </cc:Work>
    </rdf:RDF>
  </metadata>
  <defs
     id="defs32" />
  <sodipodi:namedview
     pagecolor="#ffffff"
     bordercolor="#666666"
     borderopacity="1"
     objecttolerance="10"
     gridtolerance="10"
     guidetolerance="10"
     inkscape:pageopacity="0"
     inkscape:pageshadow="2"
     inkscape:window-width="640"
     inkscape:window-height="480"
     id="namedview30"
     showgrid="false"
     inkscape:zoom="6.5555556"
     inkscape:cx="17.992293"
     inkscape:cy="18"
     inkscape:window-x="0"
     inkscape:window-y="0"
     inkscape:window-maximized="0"
     inkscape:current-layer="svg2" />
  <path
     d="m 34.992293,36 0,-5 c 0,-3.314 -2.686,-6 -6,-6 l -16,0 c -3.3130003,0 -6.0000003,2.686 -6.0000003,6 l 0,5 28.0000003,0 z"
     id="path4"
     inkscape:connector-curvature="0"
     style="fill:#77b255" />
  <path
     d="m 16.632293,25.106 c 0,0.894 2.36,1.993 4.36,1.993 2,0 4.359,-1.099 4.359,-1.992 l 0,-3.817 -8.72,0 0,3.816 z"
     id="path6"
     inkscape:connector-curvature="0"
     style="fill:#f3d2a2" />
  <path
     d="m 16.624293,22.973 c 1.216,1.374 2.724,1.746 4.364,1.746 1.639,0 3.146,-0.373 4.363,-1.746 l 0,-3.491 -8.728,0 0,3.491 z"
     id="path8"
     inkscape:connector-curvature="0"
     style="fill:#e2c196" />
  <path
     d="m 14.436293,12.936 c 0,1.448 -0.734,2.622 -1.639,2.622 -0.905,0 -1.639,-1.174 -1.639,-2.622 0,-1.448 0.734,-2.623 1.639,-2.623 0.905,-0.001 1.639,1.174 1.639,2.623 m 16.389,0 c 0,1.448 -0.733,2.622 -1.639,2.622 -0.905,0 -1.639,-1.174 -1.639,-2.622 0,-1.448 0.733,-2.623 1.639,-2.623 0.906,-0.001 1.639,1.174 1.639,2.623"
     id="path10"
     inkscape:connector-curvature="0"
     style="fill:#f3d2a2" />
  <path
     d="m 12.469293,13.96 c 0,-5.589 3.816,-10.121 8.523,-10.121 4.707,0 8.522,4.532 8.522,10.121 0,5.589 -3.815,10.121 -8.522,10.121 -4.706,-0.001 -8.523,-4.532 -8.523,-10.121"
     id="path12"
     inkscape:connector-curvature="0"
     style="fill:#f3d2a2" />
  <path
     d="m 20.992293,20.802 c -2.754,0 -3.6,-0.705 -3.741,-0.848 -0.256,-0.256 -0.256,-0.671 0,-0.927 0.248,-0.248 0.646,-0.255 0.902,-0.023 0.052,0.037 0.721,0.487 2.839,0.487 2.2,0 2.836,-0.485 2.842,-0.49 0.256,-0.255 0.657,-0.243 0.913,0.015 0.256,0.256 0.242,0.683 -0.014,0.938 -0.141,0.143 -0.987,0.848 -3.741,0.848"
     id="path14"
     inkscape:connector-curvature="0"
     style="fill:#c1694f" />
  <path
     d="m 20.992293,0 c 5.648,0 9.178,4.648 9.178,8.121 0,3.473 -0.706,4.863 -1.412,3.473 l -1.412,-2.778 c 0,0 -4.235,0 -5.647,-1.39 0,0 2.118,4.168 -2.118,0 0,0 0.706,2.779 -3.53,-0.694 0,0 -2.118,1.389 -2.824,4.862 -0.196,0.964 -1.412,0 -1.412,-3.473 -0.001,-3.473 2.823,-8.121 9.177,-8.121"
     id="path16"
     inkscape:connector-curvature="0"
     style="fill:#ffe51e" />
  <path
     d="m 16.992293,14 c -0.55,0 -1,-0.45 -1,-1 l 0,-1 c 0,-0.55 0.45,-1 1,-1 0.55,0 1,0.45 1,1 l 0,1 c 0,0.55 -0.45,1 -1,1 m 8,0 c -0.55,0 -1,-0.45 -1,-1 l 0,-1 c 0,-0.55 0.45,-1 1,-1 0.55,0 1,0.45 1,1 l 0,1 c 0,0.55 -0.45,1 -1,1"
     id="path18"
     inkscape:connector-curvature="0"
     style="fill:#662113" />
  <path
     d="m 21.742293,16.75 -1.5,0 c -0.413,0 -0.75,-0.337 -0.75,-0.75 0,-0.413 0.337,-0.75 0.75,-0.75 l 1.5,0 c 0.413,0 0.75,0.337 0.75,0.75 0,0.413 -0.337,0.75 -0.75,0.75"
     id="path20"
     inkscape:connector-curvature="0"
     style="fill:#c1694f" />
  <path
     d="m 32.992293,35 c 0,0.553 -0.447,1 -1,1 l -10,0 c -0.553,0 -1,-0.447 -1,-1 0,-0.553 0.447,-1 1,-1 l 10,0 c 0.553,0 1,0.447 1,1 z"
     id="path22"
     inkscape:connector-curvature="0"
     style="fill:#e1e8ed" />
  <path
     d="M 20.232293,22 3.7512927,22 c -1.524,0 -3.478,0.771 -2.478,3.531 l 3.072,8.475 c 0.001,0 0.397,1.994 2.647,1.994 l 20.0000003,0 -4,-11.24 c -0.438,-1.322 -1.235,-2.76 -2.76,-2.76 z"
     id="path24"
     inkscape:connector-curvature="0"
     style="fill:#e1e8ed" />
  <path
     d="M 19.232293,22 2.7512927,22 c -1.524,0 -3.478,0.771 -2.478,3.531 l 3.072,8.475 c 10e-4,0 0.397,1.994 2.647,1.994 l 20.0000003,0 -4,-11.24 c -0.438,-1.322 -1.235,-2.76 -2.76,-2.76 z"
     id="path26"
     inkscape:connector-curvature="0"
     style="fill:#99aab5" />
  <path
     d="m 14.011293,29.283 c 0.524,1.572 0.099,3.13 -0.949,3.479 -1.048,0.35 -2.322,-0.641 -2.846,-2.213 -0.5240003,-1.572 -0.099,-3.13 0.949,-3.479 1.048,-0.349 2.323,0.641 2.846,2.213 z m 4.981,-4.533 -16.0000003,0 c -0.414,0 -0.75,-0.336 -0.75,-0.75 0,-0.414 0.336,-0.75 0.75,-0.75 l 16.0000003,0 c 0.414,0 0.75,0.336 0.75,0.75 0,0.414 -0.336,0.75 -0.75,0.75 z"
     id="path28"
     inkscape:connector-curvature="0"
     style="fill:#e1e8ed" />
</svg>
