<?xml version="1.0" encoding="UTF-8" standalone="no"?>
<svg
   xmlns:dc="http://purl.org/dc/elements/1.1/"
   xmlns:cc="http://creativecommons.org/ns#"
   xmlns:rdf="http://www.w3.org/1999/02/22-rdf-syntax-ns#"
   xmlns:svg="http://www.w3.org/2000/svg"
   xmlns="http://www.w3.org/2000/svg"
   xmlns:sodipodi="http://sodipodi.sourceforge.net/DTD/sodipodi-0.dtd"
   xmlns:inkscape="http://www.inkscape.org/namespaces/inkscape"
   viewBox="0 0 36 36"
   id="svg2"
   version="1.1"
   inkscape:version="0.91 r13725"
   sodipodi:docname="1f468-200d-1f4bc.svg"
   width="36"
   height="36">
  <metadata
     id="metadata44">
    <rdf:RDF>
      <cc:Work
         rdf:about="">
        <dc:format>image/svg+xml</dc:format>
        <dc:type
           rdf:resource="http://purl.org/dc/dcmitype/StillImage" />
      </cc:Work>
    </rdf:RDF>
  </metadata>
  <defs
     id="defs42" />
  <sodipodi:namedview
     pagecolor="#ffffff"
     bordercolor="#666666"
     borderopacity="1"
     objecttolerance="10"
     gridtolerance="10"
     guidetolerance="10"
     inkscape:pageopacity="0"
     inkscape:pageshadow="2"
     inkscape:window-width="640"
     inkscape:window-height="480"
     id="namedview40"
     showgrid="false"
     inkscape:zoom="6.5555556"
     inkscape:cx="18"
     inkscape:cy="18"
     inkscape:window-x="0"
     inkscape:window-y="0"
     inkscape:window-maximized="0"
     inkscape:current-layer="svg2" />
  <path
     d="m 30,26 c 0,2.209 -1.791,4 -4,4 L 4,30 C 1.791,30 0,28.209 0,26 L 0,4 C 0,1.791 1.791,0 4,0 l 22,0 c 2.209,0 4,1.791 4,4 l 0,22 z"
     id="path4"
     inkscape:connector-curvature="0"
     style="fill:#ccd6dc" />
  <path
     d="m 28,26 c 0,1.104 -0.896,2 -2,2 L 4,28 C 2.896,28 2,27.104 2,26 L 2,4 C 2,2.896 2.896,2 4,2 l 22,0 c 1.104,0 2,0.896 2,2 l 0,22 z"
     id="path6"
     inkscape:connector-curvature="0"
     style="fill:#f5f8fa" />
  <path
     d="M 6,26 C 5.447,26 5,25.552 5,25 L 5,13 c 0,-0.552 0.447,-1 1,-1 0.553,0 1,0.448 1,1 l 0,12 c 0,0.552 -0.447,1 -1,1 z"
     id="path8"
     inkscape:connector-curvature="0"
     style="fill:#50a5e6" />
  <path
     d="M 10,26 C 9.447,26 9,25.552 9,25 L 9,8 c 0,-0.552 0.447,-1 1,-1 0.553,0 1,0.448 1,1 l 0,17 c 0,0.552 -0.447,1 -1,1 z"
     id="path10"
     inkscape:connector-curvature="0"
     style="fill:#77b255" />
  <path
     d="m 14,26 c -0.553,0 -1,-0.448 -1,-1 l 0,-7 c 0,-0.552 0.447,-1 1,-1 0.553,0 1,0.448 1,1 l 0,7 c 0,0.552 -0.447,1 -1,1 z"
     id="path12"
     inkscape:connector-curvature="0"
     style="fill:#dd2f45" />
  <path
     d="m 36,36 0,-2 c 0,-3.314 -2.685,-6 -6,-6 l -16,0 c -3.313,0 -6,2.686 -6,6 l 0,2 28,0 z"
     id="path14"
     inkscape:connector-curvature="0"
     style="fill:#226798" />
  <path
     d="m 16.667,36 3.533,0 -3.2,-8 -2,0 -1,6 3,1 z m 10.666,0 -3.533,0 3.2,-8 2,0 1,6 -3,1 z"
     id="path16"
     inkscape:connector-curvature="0"
     style="fill:#3a87c2" />
  <path
     d="m 17.64,28.101 c 1.744,1.268 2.857,2.032 4.37,2.032 1.512,0 2.606,-0.766 4.35,-2.032 l 0,-3.811 -8.72,0 0,3.811 z"
     id="path18"
     inkscape:connector-curvature="0"
     style="fill:#ffdb5e" />
  <path
     d="m 17.632,25.973 c 1.216,1.374 2.724,1.746 4.364,1.746 1.639,0 3.147,-0.373 4.363,-1.746 l 0,-3.491 -8.728,0 0,3.491 z"
     id="path20"
     inkscape:connector-curvature="0"
     style="fill:#f8c954" />
  <path
     d="m 15.445,15.936 c 0,1.448 -0.734,2.622 -1.639,2.622 -0.905,0 -1.639,-1.174 -1.639,-2.622 0,-1.448 0.734,-2.623 1.639,-2.623 0.905,0 1.639,1.174 1.639,2.623 m 16.388,0 c 0,1.448 -0.733,2.622 -1.639,2.622 -0.905,0 -1.639,-1.174 -1.639,-2.622 0,-1.448 0.733,-2.623 1.639,-2.623 0.906,0 1.639,1.174 1.639,2.623"
     id="path22"
     inkscape:connector-curvature="0"
     style="fill:#ffdb5e" />
  <path
     d="m 13.478,16.96 c 0,-5.589 3.816,-10.121 8.523,-10.121 4.707,0 8.523,4.532 8.523,10.121 0,5.589 -3.816,10.121 -8.523,10.121 C 17.294,27.08 13.478,22.549 13.478,16.96"
     id="path24"
     inkscape:connector-curvature="0"
     style="fill:#ffdb5e" />
  <path
     d="m 22,3.48 c 5.648,0 9.178,4.168 9.178,7.641 0,3.473 -0.706,4.863 -1.412,3.473 l -1.412,-2.778 c 0,0 -4.235,0 -5.647,-1.39 0,0 2.118,4.168 -2.118,0 0,0 0.706,2.779 -3.53,-0.694 0,0 -2.118,1.389 -2.824,4.862 -0.196,0.964 -1.412,0 -1.412,-3.473 C 12.822,7.648 15.646,3.48 22,3.48"
     id="path26"
     inkscape:connector-curvature="0"
     style="fill:#faaa35" />
  <path
     d="m 22,23.802 c -2.754,0 -3.6,-0.705 -3.741,-0.848 -0.256,-0.256 -0.256,-0.671 0,-0.927 0.248,-0.248 0.646,-0.255 0.902,-0.023 0.052,0.037 0.721,0.487 2.839,0.487 2.2,0 2.836,-0.485 2.842,-0.49 0.256,-0.255 0.657,-0.243 0.913,0.015 0.256,0.256 0.242,0.683 -0.014,0.938 C 25.6,23.097 24.754,23.802 22,23.802 m 0.75,-4.052 -1.5,0 c -0.413,0 -0.75,-0.337 -0.75,-0.75 0,-0.413 0.337,-0.75 0.75,-0.75 l 1.5,0 c 0.413,0 0.75,0.337 0.75,0.75 0,0.413 -0.337,0.75 -0.75,0.75"
     id="path28"
     inkscape:connector-curvature="0"
     style="fill:#c1694f" />
  <path
     d="m 26,17 c -0.55,0 -1,-0.45 -1,-1 l 0,-1 c 0,-0.55 0.45,-1 1,-1 0.55,0 1,0.45 1,1 l 0,1 c 0,0.55 -0.45,1 -1,1 m -8,0 c -0.55,0 -1,-0.45 -1,-1 l 0,-1 c 0,-0.55 0.45,-1 1,-1 0.55,0 1,0.45 1,1 l 0,1 c 0,0.55 -0.45,1 -1,1"
     id="path30"
     inkscape:connector-curvature="0"
     style="fill:#662213" />
  <path
     d="M 20.461,36 24,36 26,32 22.01,30.133 18,32 l 2,4 z"
     id="path32"
     inkscape:connector-curvature="0"
     style="fill:#ccd6dc" />
  <path
     d="m 22.031,33.957 c 0.744,0 1.246,1.025 1.562,2.043 l 0.549,0 c -0.394,-1.262 -0.841,-2.438 -0.841,-2.438 0,0 0.375,-0.625 0.531,-0.906 0.184,-0.33 0.453,-1.57 0.453,-1.57 l -2.188,-0.963 c 0,-0.006 -0.16,0.006 -0.16,0.006 l -0.184,0.043 -0.172,0.062 c -0.217,0.07 0.094,0.008 0.094,0.014 l -1.973,0.838 c 0,0 0.287,1.24 0.469,1.57 0.156,0.281 0.529,0.906 0.529,0.906 0,0 -0.43,1.106 -0.797,2.438 l 0.559,0 c 0.319,-1.018 0.826,-2.043 1.569,-2.043 z"
     id="path34"
     inkscape:connector-curvature="0"
     style="fill:#9f1d22" />
  <path
     d="m 22.031,33.957 c -0.744,0 -1.25,1.025 -1.57,2.043 l 3.132,0 c -0.316,-1.018 -0.818,-2.043 -1.562,-2.043 z m -0.027,-3.144 c 0.391,-0.023 1.543,0.771 1.422,1.25 -0.461,1.826 -0.848,1.391 -1.391,1.391 -0.611,0 -0.963,0.473 -1.391,-1.312 -0.091,-0.388 0.797,-1.298 1.36,-1.329"
     id="path36"
     inkscape:connector-curvature="0"
     style="fill:#dd2f45" />
  <path
     d="m 26.719,26.75 c -0.567,0.566 -4.709,3.383 -4.709,3.383 0,0 2.127,1.242 4.084,3.533 0.197,0.23 1.543,-4.625 1.584,-5.709 0.011,-0.303 -0.688,-1.478 -0.959,-1.207 m -9.418,0 c 0.566,0.566 4.709,3.383 4.709,3.383 0,0 -2.127,1.242 -4.084,3.533 -0.197,0.23 -1.543,-4.625 -1.584,-5.709 -0.012,-0.303 0.687,-1.478 0.959,-1.207"
     id="path38"
     inkscape:connector-curvature="0"
     style="fill:#f4f7f9" />
</svg>
