<?xml version="1.0" encoding="UTF-8" standalone="no"?>
<svg
   xmlns:dc="http://purl.org/dc/elements/1.1/"
   xmlns:cc="http://creativecommons.org/ns#"
   xmlns:rdf="http://www.w3.org/1999/02/22-rdf-syntax-ns#"
   xmlns:svg="http://www.w3.org/2000/svg"
   xmlns="http://www.w3.org/2000/svg"
   xmlns:sodipodi="http://sodipodi.sourceforge.net/DTD/sodipodi-0.dtd"
   xmlns:inkscape="http://www.inkscape.org/namespaces/inkscape"
   viewBox="0 0 28.006002 36"
   id="svg2"
   version="1.1"
   inkscape:version="0.91 r13725"
   sodipodi:docname="1f469-1f3fe-200d-1f692.svg"
   width="28.006002"
   height="36">
  <metadata
     id="metadata42">
    <rdf:RDF>
      <cc:Work
         rdf:about="">
        <dc:format>image/svg+xml</dc:format>
        <dc:type
           rdf:resource="http://purl.org/dc/dcmitype/StillImage" />
      </cc:Work>
    </rdf:RDF>
  </metadata>
  <defs
     id="defs40" />
  <sodipodi:namedview
     pagecolor="#ffffff"
     bordercolor="#666666"
     borderopacity="1"
     objecttolerance="10"
     gridtolerance="10"
     guidetolerance="10"
     inkscape:pageopacity="0"
     inkscape:pageshadow="2"
     inkscape:window-width="640"
     inkscape:window-height="480"
     id="namedview38"
     showgrid="false"
     inkscape:zoom="6.5555556"
     inkscape:cx="14.005163"
     inkscape:cy="18"
     inkscape:window-x="0"
     inkscape:window-y="0"
     inkscape:window-maximized="0"
     inkscape:current-layer="svg2" />
  <path
     d="m 27.005163,36 0,-3.5 c 0,-3.313 -3.687,-5.5 -7,-5.5 L 8.0051626,27 c -3.313,0 -7,2.187 -7,5.5 l 0,3.5 26.0000004,0 z"
     id="path4"
     inkscape:connector-curvature="0"
     style="fill:#ce9e5d" />
  <path
     d="m 1.0051626,33 26.0000004,0 0,3 -26.0000004,0 z"
     id="path6"
     inkscape:connector-curvature="0"
     style="fill:#fff35f" />
  <path
     d="m 1.1271626,34 26.0000004,0 0,1 -26.0000004,0 z"
     id="path8"
     inkscape:connector-curvature="0"
     style="fill:#ccd6dd" />
  <path
     d="m 28.005163,13.656 c 0,3.59 -6.268,6.5 -14,6.5 -7.7320004,0 -14.00000042,-2.91 -14.00000042,-6.5 0,-3.59 6.26800002,-2.5 14.00000042,-2.5 7.732,0 14,-1.09 14,2.5 z"
     id="path10"
     inkscape:connector-curvature="0"
     style="fill:#a0041e" />
  <path
     d="m 13.950163,5.069 c 4.105,0 10.948,2.053 10.948,10.948 0,8.895 0,10.948 -2.053,10.948 -2.053,0 -4.79,-2.053 -8.895,-2.053 -4.1050004,0 -6.7840004,2.053 -8.8950004,2.053 -2.287,0 -2.053,-8.211 -2.053,-10.948 0,-8.895 6.842,-10.948 10.9480004,-10.948 z"
     id="path12"
     inkscape:connector-curvature="0"
     style="fill:#60352a" />
  <path
     d="m 10.005163,27 8,0 c 0,0 -1.018,5 -4,5 -2.982,0 -4,-5 -4,-5 z"
     id="path14"
     inkscape:connector-curvature="0"
     style="fill:#292f33" />
  <path
     d="m 10.333163,27.02 c 1.467,1.065 2.964,0.98 3.672,0.98 0.708,0 2.194,0.084 3.66,-0.98 l 0,-3.205 -7.332,0 0,3.205 z"
     id="path16"
     inkscape:connector-curvature="0"
     style="fill:#af7e57" />
  <path
     d="m 10.326163,25.179 c 1.023,1.155 2.291,1.468 3.669,1.468 1.378,0 2.646,-0.313 3.669,-1.468 l 0,-2.936 -7.339,0 0,2.936 z"
     id="path18"
     inkscape:connector-curvature="0"
     style="fill:#9b6a49" />
  <path
     d="m 5.7391626,15.717 c 0,-5.834 3.676,-10.563 8.2110004,-10.563 4.534,0 8.211,4.729 8.211,10.563 0,5.833 -3.676,10.285 -8.211,10.285 C 9.4151626,26.003 5.7391626,21.551 5.7391626,15.717 Z"
     id="path20"
     inkscape:connector-curvature="0"
     style="fill:#af7e57" />
  <path
     d="m 13.950163,23.543 c -1.606,0 -2.446,-0.794 -2.536,-0.885 -0.267,-0.267 -0.267,-0.7 0,-0.967 0.265,-0.265 0.693,-0.267 0.961,-0.007 0.035,0.032 0.551,0.49 1.576,0.49 1.039,0 1.556,-0.472 1.577,-0.492 0.273,-0.255 0.703,-0.248 0.964,0.02 0.259,0.269 0.26,0.692 -0.004,0.956 -0.092,0.092 -0.933,0.885 -2.538,0.885 z"
     id="path22"
     inkscape:connector-curvature="0"
     style="fill:#df1f32" />
  <path
     d="m 3.7301626,19 c -0.021,-1 -0.044,-0.224 -0.044,-0.465 0,-3.421 2.053,0.494 2.053,-1.943 0,-2.438 1.368,-2.683 2.737,-4.051 0.684,-0.684 2.0530004,-2.025 2.0530004,-2.025 0,0 3.421,2.066 6.158,2.066 2.737,0 5.474,1.376 5.474,4.113 0,2.737 2.053,-1.584 2.053,1.837 0,0.243 -0.023,-0.531 -0.039,0.469 l 0.718,0 c 0.006,-2 0.006,-1.924 0.006,-3.202 0,-8.895 -6.842,-12.207 -10.948,-12.207 -4.1060004,0 -10.9490004,3.256 -10.9490004,12.151 0,0.793 -0.02,1.257 0.008,3.257 l 0.72,0 z"
     id="path24"
     inkscape:connector-curvature="0"
     style="fill:#60352a" />
  <path
     d="m 10.614163,17.886 c -0.465,0 -0.8460004,-0.381 -0.8460004,-0.846 l 0,-0.846 c 0,-0.465 0.3810004,-0.846 0.8460004,-0.846 0.465,0 0.846,0.381 0.846,0.846 l 0,0.846 c -10e-4,0.466 -0.381,0.846 -0.846,0.846 z m 6.764,0 c -0.465,0 -0.846,-0.381 -0.846,-0.846 l 0,-0.846 c 0,-0.465 0.381,-0.846 0.846,-0.846 0.465,0 0.846,0.381 0.846,0.846 l 0,0.846 c 0,0.466 -0.381,0.846 -0.846,0.846 z"
     id="path26"
     inkscape:connector-curvature="0"
     style="fill:#60352a" />
  <path
     d="m 14.841163,20.5 -1.691,0 c -0.233,0 -0.423,-0.19 -0.423,-0.423 l 0,-0.154 c 0,-0.233 0.19,-0.423 0.423,-0.423 l 1.691,0 c 0.233,0 0.423,0.19 0.423,0.423 l 0,0.154 c 0,0.233 -0.19,0.423 -0.423,0.423 z"
     id="path28"
     inkscape:connector-curvature="0"
     style="fill:#915a34" />
  <path
     d="m 23.005163,36 0,-9 c 0,-0.55 -0.45,-1 -1,-1 l -1,0 c -0.55,0 -1,0.45 -1,1 l 0,9 3,0 z m -15.0000004,0 0,-9 c 0,-0.55 -0.45,-1 -1,-1 l -1,0 c -0.55,0 -1,0.45 -1,1 l 0,9 3,0 z"
     id="path30"
     inkscape:connector-curvature="0"
     style="fill:#292f33" />
  <path
     d="m 24.858163,10.857 c -0.86,-0.173 -1.093,-4.028 -3.084,-6.859 -1.875,-2.663 -5.465,-3.998 -7.772,-3.998 -2.307,0 -5.8970004,1.335 -7.7710004,3.998 -1.992,2.831 -2.224,6.686 -3.084,6.859 -3.31700002,0.665 -3.16100002,2.386 -3.14000002,2.782 0.123,-0.466 0.438,-1.578 3.90200002,-1.64 3.404,-0.06 6.5800004,0.806 10.0940004,0.806 3.514,0 6.69,-0.866 10.094,-0.806 3.464,0.061 3.778,1.173 3.902,1.64 0.02,-0.396 0.176,-2.117 -3.141,-2.782 z"
     id="path32"
     inkscape:connector-curvature="0"
     style="fill:#df1f32" />
  <path
     d="m 14.005163,0 c -2.094,0 -5.0000004,3.593 -5.0000004,5.054 l 0,3.946 c 0,0 0.109,1 0.92,1 l 8.1590004,0 c 0.812,0 0.921,-1 0.921,-1 l 0,-3.946 c 0,-1.461 -2.906,-5.054 -5,-5.054 z"
     id="path34"
     inkscape:connector-curvature="0"
     style="fill:#ea596e" />
  <path
     d="m 19.888163,25 c -0.406,-0.378 -2.474,0.364 -3.019,1 -0.545,0.636 -0.638,1.737 -1.01,3 -0.319,1.083 -1.577,2.506 -1.931,2.893 -0.353,-0.387 -1.604,-1.81 -1.923,-2.893 -0.372,-1.263 -0.455,-2.364 -1,-3 -0.545,-0.636 -2.5940004,-1.378 -3.0000004,-1 -0.406,0.378 0.015,1.463 0,2 -0.015,0.537 0,9 0,9 l 12.0000004,0 c 0,0 0.015,-8.463 0,-9 -0.015,-0.537 0.289,-1.622 -0.117,-2 z"
     id="path36"
     inkscape:connector-curvature="0"
     style="fill:#ce9e5d" />
</svg>
