<?xml version="1.0" encoding="UTF-8" standalone="no"?>
<svg
   xmlns:dc="http://purl.org/dc/elements/1.1/"
   xmlns:cc="http://creativecommons.org/ns#"
   xmlns:rdf="http://www.w3.org/1999/02/22-rdf-syntax-ns#"
   xmlns:svg="http://www.w3.org/2000/svg"
   xmlns="http://www.w3.org/2000/svg"
   xmlns:sodipodi="http://sodipodi.sourceforge.net/DTD/sodipodi-0.dtd"
   xmlns:inkscape="http://www.inkscape.org/namespaces/inkscape"
   viewBox="0 0 34.941002 33.396999"
   id="svg2"
   version="1.1"
   inkscape:version="0.91 r13725"
   sodipodi:docname="1f469-1f3fc-200d-1f52c.svg"
   width="34.941002"
   height="33.396999">
  <metadata
     id="metadata48">
    <rdf:RDF>
      <cc:Work
         rdf:about="">
        <dc:format>image/svg+xml</dc:format>
        <dc:type
           rdf:resource="http://purl.org/dc/dcmitype/StillImage" />
      </cc:Work>
    </rdf:RDF>
  </metadata>
  <defs
     id="defs46" />
  <sodipodi:namedview
     pagecolor="#ffffff"
     bordercolor="#666666"
     borderopacity="1"
     objecttolerance="10"
     gridtolerance="10"
     guidetolerance="10"
     inkscape:pageopacity="0"
     inkscape:pageshadow="2"
     inkscape:window-width="640"
     inkscape:window-height="480"
     id="namedview44"
     showgrid="false"
     inkscape:zoom="6.5555556"
     inkscape:cx="18"
     inkscape:cy="18"
     inkscape:window-x="0"
     inkscape:window-y="0"
     inkscape:window-maximized="0"
     inkscape:current-layer="svg2" />
  <path
     d="m 34.941,33.397 0,-4.488 c 0,-3.314 -3.685,-5.5 -7,-5.5 l -12,0 c -3.313,0 -7,2.186 -7,5.5 l 0,4.488 26,0 z"
     id="path4"
     inkscape:connector-curvature="0"
     style="fill:#ccd6dd" />
  <path
     d="m 21.887,1.478 c 4.104,0 10.947,2.053 10.947,10.947 0,8.895 0,10.948 -2.053,10.948 -2.053,0 -4.79,-2.053 -8.895,-2.053 -4.105,0 -6.785,2.053 -8.895,2.053 -2.287,0 -2.053,-8.211 -2.053,-10.948 0,-8.894 6.843,-10.947 10.949,-10.947"
     id="path6"
     inkscape:connector-curvature="0"
     style="fill:#ffe51e" />
  <path
     d="m 18.27,25.887 c 1.466,1.064 5.866,1.064 7.332,0 l 0,-5.664 -7.332,0 0,5.664 z"
     id="path8"
     inkscape:connector-curvature="0"
     style="fill:#f3d2a2" />
  <path
     d="m 18.264,21.587 c 1.022,1.156 2.29,1.469 3.668,1.469 1.379,0 2.647,-0.312 3.67,-1.469 l 0,-2.936 -7.338,0 0,2.936 z"
     id="path10"
     inkscape:connector-curvature="0"
     style="fill:#e2c196" />
  <path
     d="m 13.675,12.126 c 0,-5.834 3.676,-10.563 8.211,-10.563 4.533,0 8.209,4.73 8.209,10.563 0,5.833 -3.676,10.284 -8.209,10.284 -4.534,0.001 -8.211,-4.451 -8.211,-10.284"
     id="path12"
     inkscape:connector-curvature="0"
     style="fill:#f3d2a2" />
  <path
     d="m 21.887,19.952 c -1.606,0 -2.447,-0.795 -2.537,-0.885 -0.268,-0.268 -0.268,-0.701 0,-0.967 0.266,-0.266 0.692,-0.268 0.961,-0.008 0.035,0.033 0.551,0.492 1.576,0.492 1.038,0 1.555,-0.473 1.576,-0.492 0.273,-0.256 0.703,-0.248 0.963,0.02 0.26,0.268 0.26,0.691 -0.004,0.955 -0.09,0.09 -0.93,0.885 -2.535,0.885"
     id="path14"
     inkscape:connector-curvature="0"
     style="fill:#df1f32" />
  <path
     d="m 11.667,15.409 c -0.021,-1 -0.044,-0.224 -0.044,-0.465 0,-3.422 2.053,0.494 2.053,-1.943 0,-2.439 1.368,-2.683 2.736,-4.051 0.685,-0.684 2.053,-2.026 2.053,-2.026 0,0 3.421,2.067 6.158,2.067 2.736,0 5.474,1.375 5.474,4.112 0,2.736 2.053,-1.584 2.053,1.837 0,0.244 -0.022,-0.531 -0.04,0.469 l 0.719,0 c 0.006,-2 0.006,-1.924 0.006,-3.202 C 32.835,3.312 25.993,0 21.887,0 17.783,0 10.94,3.257 10.94,12.152 c 0,0.793 -0.02,1.257 0.008,3.257 l 0.719,0 z"
     id="path16"
     inkscape:connector-curvature="0"
     style="fill:#ffe51e" />
  <path
     d="m 15.386,12.344 c 0,1.448 -0.734,2.622 -1.639,2.622 -0.905,0 -1.639,-1.174 -1.639,-2.622 0,-1.448 0.734,-2.623 1.639,-2.623 0.905,0 1.639,1.175 1.639,2.623 m 16.388,0 c 0,1.448 -0.733,2.622 -1.639,2.622 -0.905,0 -1.639,-1.174 -1.639,-2.622 0,-1.448 0.733,-2.623 1.639,-2.623 0.906,0 1.639,1.175 1.639,2.623"
     id="path18"
     inkscape:connector-curvature="0"
     style="fill:#f3d2a2" />
  <path
     d="m 18.55,14.295 c -0.465,0 -0.846,-0.381 -0.846,-0.847 l 0,-0.845 c 0,-0.465 0.381,-0.846 0.846,-0.846 0.466,0 0.847,0.381 0.847,0.846 l 0,0.845 c -10e-4,0.467 -0.381,0.847 -0.847,0.847 m 6.765,0 c -0.465,0 -0.846,-0.381 -0.846,-0.847 l 0,-0.845 c 0,-0.465 0.381,-0.846 0.846,-0.846 0.465,0 0.846,0.381 0.846,0.846 l 0,0.845 c -0.001,0.467 -0.382,0.847 -0.846,0.847"
     id="path20"
     inkscape:connector-curvature="0"
     style="fill:#662113" />
  <path
     d="m 22.777,16.909 -1.69,0 c -0.233,0 -0.423,-0.189 -0.423,-0.424 l 0,-0.152 c 0,-0.234 0.189,-0.424 0.423,-0.424 l 1.69,0 c 0.233,0 0.424,0.19 0.424,0.424 l 0,0.152 c 0,0.234 -0.19,0.424 -0.424,0.424"
     id="path22"
     inkscape:connector-curvature="0"
     style="fill:#c1694f" />
  <path
     d="m 19,33.397 -1.059,-9.219 c 0,0 1.41,1.645 4,1.645 2.59,0 4.219,-1.645 4.219,-1.645 l -1.222,9.219 -5.938,0 z"
     id="path24"
     inkscape:connector-curvature="0"
     style="fill:#66757f" />
  <path
     d="m 17.941,22.647 c 0.567,0.566 2.919,10.75 2.919,10.75 l -3.156,0 L 16,30.835 17.704,28 15.687,27.366 15.941,23.409 c 0,0 1.729,-1.033 2,-0.762 m 7.994,0 c -0.567,0.566 -2.919,10.75 -2.919,10.75 l 3.156,0 1.704,-2.562 L 26.172,28 28.189,27.366 27.935,23.409 c 0,0 -1.73,-1.033 -2,-0.762"
     id="path26"
     inkscape:connector-curvature="0"
     style="fill:#f5f8fa" />
  <path
     d="m 14.753,10.147 14.5,0 0,5.25 -14.5,0 z"
     id="path28"
     inkscape:connector-curvature="0"
     style="opacity:0.4;fill:#ffffff" />
  <path
     d="m 29,9.397 -14,0 c -1,0 -1,1 -1,1 l 0,4 c 0,1.461 2.333,2 4,2 1.667,0 2.599,-1 4,-1 1.401,0 2.333,1 4,1 1.667,0 4,-0.539 4,-2 l 0,-4 c 0,-1.001 -1,-1 -1,-1 z m 0,4 c 0,1.325 -0.852,2 -3,2 -1.539,0 -2.804,-1 -4,-1 -1.196,0 -2.461,1 -4,1 -2.148,0 -3,-0.675 -3,-2 l 0,-3 14,0 0,3 z"
     id="path30"
     inkscape:connector-curvature="0"
     style="fill:#f5f8fa" />
  <circle
     cx="7"
     cy="8.3970003"
     r="1"
     id="circle32"
     style="fill:#9266cc" />
  <circle
     cx="9"
     cy="13.397"
     r="1"
     id="circle34"
     style="fill:#9266cc" />
  <circle
     cx="5.5"
     cy="11.897"
     r="1.5"
     id="circle36"
     style="fill:#9266cc" />
  <path
     d="m 10,15.397 -5,0 c 0,0 -2,0 -2,2 0,2 2,2 2,2 l 0,5 -4,5 c -0.883,1.104 -1,1.821 -1,2 0,2 2,2 2,2 l 11,0 c 0,0 2,0 2,-2 0,-0.134 0.153,-0.559 -1,-2 l -4,-5 0,-5 c 0,0 2,0 2,-2 0,-2 -2,-2 -2,-2 z"
     id="path38"
     inkscape:connector-curvature="0"
     style="fill:#a8bccc" />
  <path
     d="m 9,24.748 0,-6.351 1,0 c 0.449,-0.012 1,-0.194 1,-1 0,-0.803 -0.547,-0.987 -1.008,-1 l -4.992,0 c -0.45,0.012 -1,0.194 -1,1 0,0.806 0.55,0.988 1.012,1 L 5.987,18.421 6,24.748 4.106,27.116 7.5,30.616 10.894,27.116 9,24.748 Z"
     id="path40"
     inkscape:connector-curvature="0"
     style="fill:#e1e8ed" />
  <path
     d="M 0.999,31.431 C 1,32.203 1.55,32.385 2.012,32.397 l 10.988,0 c 0.449,-0.012 1,-0.194 1,-1 l 0,-0.041 0.006,-0.082 c 0,-0.003 -0.055,-0.337 -0.787,-1.252 l -2.325,-2.906 -6.788,0 -2.325,2.906 c -0.719,0.899 -0.782,1.404 -0.782,1.409 z"
     id="path42"
     inkscape:connector-curvature="0"
     style="fill:#9266cc" />
</svg>
