<?xml version="1.0" encoding="UTF-8" standalone="no"?>
<svg
   xmlns:dc="http://purl.org/dc/elements/1.1/"
   xmlns:cc="http://creativecommons.org/ns#"
   xmlns:rdf="http://www.w3.org/1999/02/22-rdf-syntax-ns#"
   xmlns:svg="http://www.w3.org/2000/svg"
   xmlns="http://www.w3.org/2000/svg"
   xmlns:sodipodi="http://sodipodi.sourceforge.net/DTD/sodipodi-0.dtd"
   xmlns:inkscape="http://www.inkscape.org/namespaces/inkscape"
   viewBox="0 0 28 34"
   id="svg2"
   version="1.1"
   inkscape:version="0.91 r13725"
   sodipodi:docname="1f468-200d-1f9b3.svg"
   width="28"
   height="34">
  <metadata
     id="metadata16">
    <rdf:RDF>
      <cc:Work
         rdf:about="">
        <dc:format>image/svg+xml</dc:format>
        <dc:type
           rdf:resource="http://purl.org/dc/dcmitype/StillImage" />
      </cc:Work>
    </rdf:RDF>
  </metadata>
  <defs
     id="defs14" />
  <sodipodi:namedview
     pagecolor="#ffffff"
     bordercolor="#666666"
     borderopacity="1"
     objecttolerance="10"
     gridtolerance="10"
     guidetolerance="10"
     inkscape:pageopacity="0"
     inkscape:pageshadow="2"
     inkscape:window-width="640"
     inkscape:window-height="480"
     id="namedview12"
     showgrid="false"
     inkscape:zoom="6.5555556"
     inkscape:cx="14"
     inkscape:cy="17"
     inkscape:window-x="0"
     inkscape:window-y="0"
     inkscape:window-maximized="0"
     inkscape:current-layer="svg2" />
  <path
     d="m 28,19 c 0,-2.209 -1.119,-4 -2.5,-4 -0.012,0 -0.021,0.005 -0.033,0.005 C 23.955,8.704 19.394,4.125 14,4.125 8.606,4.125 4.044,8.705 2.533,15.005 2.521,15.004 2.511,15 2.5,15 1.119,15 0,16.791 0,19 0,21.107 1.021,22.815 2.314,22.97 3.537,29.619 8.299,34 14,34 19.7,34 24.463,29.619 25.685,22.97 26.979,22.815 28,21.107 28,19 Z"
     id="path4"
     inkscape:connector-curvature="0"
     style="fill:#ffdc5d" />
  <path
     d="M 9,20 C 8.448,20 8,19.553 8,19 l 0,-2 c 0,-0.552 0.448,-1 1,-1 0.552,0 1,0.448 1,1 l 0,2 c 0,0.553 -0.448,1 -1,1 z m 10,0 c -0.553,0 -1,-0.447 -1,-1 l 0,-2 c 0,-0.552 0.447,-1 1,-1 0.553,0 1,0.448 1,1 l 0,2 c 0,0.553 -0.447,1 -1,1 z"
     id="path6"
     inkscape:connector-curvature="0"
     style="fill:#662113" />
  <path
     d="M 14,30 C 9.799,30 8.509,28.923 8.293,28.707 7.902,28.316 7.902,27.684 8.293,27.293 8.671,26.914 9.277,26.903 9.669,27.257 9.749,27.315 10.769,28 14,28 c 3.355,0 4.326,-0.739 4.336,-0.747 0.39,-0.389 1.001,-0.37 1.393,0.021 0.391,0.391 0.369,1.043 -0.021,1.434 C 19.491,28.923 18.201,30 14,30 Z m 1,-5 -2,0 c -0.552,0 -1,-0.447 -1,-1 0,-0.553 0.448,-1 1,-1 l 2,0 c 0.553,0 1,0.447 1,1 0,0.553 -0.447,1 -1,1 z"
     id="path8"
     inkscape:connector-curvature="0"
     style="fill:#c1694f" />
  <path
     d="m 14,0 c 8,0 13,6 13,11 0,5 -1,7 -2,5 l -2,-4 c 0,0 -6,0 -8,-2 0,0 3,6 -3,0 0,0 1,4 -5,-1 C 7,9 4,11 3,16 2.723,17.387 1,16 1,11 1,6 5,0 14,0 Z"
     id="path10"
     inkscape:connector-curvature="0"
     style="fill:#e1e8ed" />
</svg>
