<?xml version="1.0" encoding="UTF-8" standalone="no"?>
<svg
   xmlns:dc="http://purl.org/dc/elements/1.1/"
   xmlns:cc="http://creativecommons.org/ns#"
   xmlns:rdf="http://www.w3.org/1999/02/22-rdf-syntax-ns#"
   xmlns:svg="http://www.w3.org/2000/svg"
   xmlns="http://www.w3.org/2000/svg"
   xmlns:sodipodi="http://sodipodi.sourceforge.net/DTD/sodipodi-0.dtd"
   xmlns:inkscape="http://www.inkscape.org/namespaces/inkscape"
   viewBox="0 0 33 36"
   id="svg2"
   version="1.1"
   inkscape:version="0.91 r13725"
   sodipodi:docname="1f47a.svg"
   width="33"
   height="36">
  <metadata
     id="metadata26">
    <rdf:RDF>
      <cc:Work
         rdf:about="">
        <dc:format>image/svg+xml</dc:format>
        <dc:type
           rdf:resource="http://purl.org/dc/dcmitype/StillImage" />
      </cc:Work>
    </rdf:RDF>
  </metadata>
  <defs
     id="defs24" />
  <sodipodi:namedview
     pagecolor="#ffffff"
     bordercolor="#666666"
     borderopacity="1"
     objecttolerance="10"
     gridtolerance="10"
     guidetolerance="10"
     inkscape:pageopacity="0"
     inkscape:pageshadow="2"
     inkscape:window-width="640"
     inkscape:window-height="480"
     id="namedview22"
     showgrid="false"
     inkscape:zoom="6.5555556"
     inkscape:cx="16"
     inkscape:cy="18"
     inkscape:window-x="0"
     inkscape:window-y="0"
     inkscape:window-maximized="0"
     inkscape:current-layer="svg2" />
  <path
     d="m 26,21 c 0,2.209 -3,15 -9,15 L 9,36 C 3,36 0,23.209 0,21 L 0,4 C 0,1.791 1.791,0 4,0 l 18,0 c 2.209,0 4,1.791 4,4 l 0,17 z"
     id="path4"
     inkscape:connector-curvature="0"
     style="fill:#da2f47" />
  <path
     d="m 12.441,9.171 c 2.138,2.343 2.715,5.509 1.29,7.071 C 12.309,17.803 9.419,17.17 7.283,14.827 5.146,12.484 4.568,9.318 5.993,7.756 7.417,6.195 10.306,6.829 12.441,9.171 Z"
     id="path6"
     inkscape:connector-curvature="0"
     style="fill:#f5f8fa" />
  <path
     d="m 13.934,12.707 c 0.609,0.781 0.609,2.048 0,2.829 -0.607,0.781 -1.593,0.781 -2.201,0 -0.608,-0.781 -0.608,-2.047 0,-2.828 0.608,-0.782 1.594,-0.782 2.201,-10e-4 z"
     id="path8"
     inkscape:connector-curvature="0"
     style="fill:#292f33" />
  <path
     d="m 19.727,9.271 c -1.826,2.342 -2.318,5.509 -1.1,7.071 1.215,1.562 3.68,0.929 5.504,-1.414 1.824,-2.343 2.316,-5.509 1.1,-7.071 -1.215,-1.562 -3.68,-0.929 -5.504,1.414 z"
     id="path10"
     inkscape:connector-curvature="0"
     style="fill:#f5f8fa" />
  <ellipse
     cx="20.275999"
     cy="14.221"
     rx="1.557"
     ry="2"
     id="ellipse12"
     style="fill:#292f33" />
  <path
     d="M 18.892,11 C 18.462,11 18.03,10.862 17.665,10.578 16.794,9.9 16.637,8.643 17.315,7.771 l 4.67,-6 c 0.679,-0.872 1.934,-1.029 2.807,-0.35 0.871,0.678 1.028,1.935 0.35,2.807 l -4.67,6 C 20.076,10.735 19.487,11 18.892,11 Z m -4.671,0 c -0.596,0 -1.185,-0.265 -1.58,-0.771 l -4.672,-6 C 7.29,3.357 7.447,2.101 8.318,1.422 9.19,0.743 10.447,0.899 11.125,1.771 l 4.672,6 c 0.679,0.872 0.522,2.128 -0.349,2.807 C 15.083,10.862 14.65,11 14.221,11 Z"
     id="path14"
     inkscape:connector-curvature="0"
     style="fill:#292f33" />
  <path
     d="m 22,31.001 c -0.81,0 -1.571,-0.496 -1.873,-1.299 C 20.023,29.443 18.96,27 16,27 13.04,27 11.977,29.443 11.865,29.722 11.458,30.74 10.302,31.249 9.282,30.855 8.26,30.459 7.743,29.325 8.128,28.298 8.208,28.081 10.181,23 16,23 c 5.819,0 7.792,5.081 7.873,5.298 0.388,1.034 -0.137,2.187 -1.171,2.575 -0.231,0.086 -0.469,0.128 -0.702,0.128 z"
     id="path16"
     inkscape:connector-curvature="0"
     style="fill:#fdd888" />
  <path
     d="m 16.555,22 c 0,0 4.482,-0.553 7.05,4 2.819,5 2.819,-5 2.114,-6 -0.704,-1 -1.451,1.386 -2.82,0.9 -2.821,-1 -6.344,1.1 -6.344,1.1 z m 0,0 c 0,0 -5.888,-0.553 -9.263,4 -3.703,5 -3.703,-5 -2.778,-6 0.926,-1 1.907,1.725 3.706,1.239 3.704,-1 8.335,0.761 8.335,0.761 z"
     id="path18"
     inkscape:connector-curvature="0"
     style="fill:#292f33" />
  <path
     d="M 30.262,15 C 30.172,15 30.088,15.019 30,15.029 L 30,15 16.154,15 c -1.511,0 -2.734,1.343 -2.734,3 0,1.657 1.224,3 2.734,3 L 30,21 30,20.971 C 30.088,20.98 30.172,21 30.262,21 31.774,21 33,19.657 33,18 33,16.344 31.774,15 30.262,15 Z"
     id="path20"
     inkscape:connector-curvature="0"
     style="fill:#e75a70" />
</svg>
