<?xml version="1.0" encoding="UTF-8" standalone="no"?>
<svg
   xmlns:dc="http://purl.org/dc/elements/1.1/"
   xmlns:cc="http://creativecommons.org/ns#"
   xmlns:rdf="http://www.w3.org/1999/02/22-rdf-syntax-ns#"
   xmlns:svg="http://www.w3.org/2000/svg"
   xmlns="http://www.w3.org/2000/svg"
   xmlns:sodipodi="http://sodipodi.sourceforge.net/DTD/sodipodi-0.dtd"
   xmlns:inkscape="http://www.inkscape.org/namespaces/inkscape"
   viewBox="0 0 36 35.572056"
   id="svg2"
   version="1.1"
   inkscape:version="0.91 r13725"
   sodipodi:docname="1f470-1f3ff.svg"
   width="36"
   height="35.572056">
  <metadata
     id="metadata28">
    <rdf:RDF>
      <cc:Work
         rdf:about="">
        <dc:format>image/svg+xml</dc:format>
        <dc:type
           rdf:resource="http://purl.org/dc/dcmitype/StillImage" />
      </cc:Work>
    </rdf:RDF>
  </metadata>
  <defs
     id="defs26" />
  <sodipodi:namedview
     pagecolor="#ffffff"
     bordercolor="#666666"
     borderopacity="1"
     objecttolerance="10"
     gridtolerance="10"
     guidetolerance="10"
     inkscape:pageopacity="0"
     inkscape:pageshadow="2"
     inkscape:window-width="640"
     inkscape:window-height="480"
     id="namedview24"
     showgrid="false"
     inkscape:zoom="6.5555556"
     inkscape:cx="18"
     inkscape:cy="18"
     inkscape:window-x="0"
     inkscape:window-y="0"
     inkscape:window-maximized="0"
     inkscape:current-layer="svg2" />
  <path
     d="m 35,17.572057 c 0,-7.002 -2,-12.9999996 -7,-15.9999996 -5,-3 -10,-0.78399999 -10,-0.78399999 l 0,0.034 -0.001,-0.034 c 0,0 -4.999,-2.21600001 -9.999,0.78399999 -5,3 -7,8.9979996 -7,15.9999996 0,7.003 -1,18 -1,18 l 36,0 c 0,0 -1,-10.998 -1,-18 z"
     id="path4"
     inkscape:connector-curvature="0"
     style="fill:#e6e7e8" />
  <path
     d="m 17.999,2.3810574 c 4.876,0 13.001,2.438 13.001,13.0009996 0,10.564 0,13.001 -2.438,13.001 -2.438,0 -5.688,-2.438 -10.563,-2.438 -4.876,0 -8.056,2.438 -10.563,2.438 -2.716,0 -2.438,-9.751 -2.438,-13.001 0,-10.5629996 8.125,-13.0009996 13.001,-13.0009996 z"
     id="path6"
     inkscape:connector-curvature="0"
     style="fill:#0b0200" />
  <path
     d="m 32,35.572057 0,-1 c 0,-3.313 -2.687,-6 -6,-6 l -16,0 c -3.313,0 -6,2.687 -6,6 l 0,1 28,0 z"
     id="path8"
     inkscape:connector-curvature="0"
     style="fill:#ffffff" />
  <path
     d="m 27.75,15.027057 c 0,-6.9279996 -4.366,-12.5439996 -9.751,-12.5439996 -5.385,0 -9.75,5.616 -9.75,12.5439996 0,5.581 2.835,10.305 6.751,11.934 l 0,1.611 -3,0 0,5 12,0 0,-5 -3,0 0,-1.613 c 3.916,-1.629 6.75,-6.353 6.75,-11.932 z"
     id="path10"
     inkscape:connector-curvature="0"
     style="fill:#7c533e" />
  <path
     d="m 5.863,19.572057 c -0.025,0 -0.052,-0.59 -0.052,-0.876 0,-4.063 2.438,0.425 2.438,-2.47 0,-2.895 1.625,-3.266 3.25,-4.891 0.812,-0.812 2.438,-2.4459996 2.438,-2.4459996 0,0 4.063,2.4339996 7.314,2.4339996 3.25,0 6.5,1.624 6.5,4.874 0,3.25 2.438,-1.563 2.438,2.5 0,0.289 -0.027,0.875 -0.047,0.875 l 0.853,0 c 0.005,-1 0.005,-2.608 0.005,-4.126 C 31,4.8830574 22.875,0.78805741 17.999,0.78805741 c -4.876,0 -13.001,4.10999999 -13.001,14.67399959 0,0.942 -0.023,2.11 0.01,4.11 l 0.855,0 z"
     id="path12"
     inkscape:connector-curvature="0"
     style="fill:#0b0200" />
  <path
     d="m 14,17.572057 c -0.552,0 -1,-0.448 -1,-1 l 0,-1 c 0,-0.552 0.448,-1 1,-1 0.552,0 1,0.448 1,1 l 0,1 c 0,0.552 -0.448,1 -1,1 z m 8,0 c -0.553,0 -1,-0.448 -1,-1 l 0,-1 c 0,-0.552 0.447,-1 1,-1 0.553,0 1,0.448 1,1 l 0,1 c 0,0.552 -0.447,1 -1,1 z"
     id="path14"
     inkscape:connector-curvature="0" />
  <path
     d="m 27.647,5.5320574 c -0.477,-0.564 -0.981,-1.079 -1.516,-1.535 -1.441,0.34 -4.535,0.575 -8.131,0.575 -3.591,0 -6.682,-0.234 -8.126,-0.572 -0.534,0.456 -1.04,0.97 -1.516,1.534 1.871,0.618 5.486,1.038 9.642,1.038 4.159,0 7.777,-0.42 9.647,-1.04 z"
     id="path16"
     inkscape:connector-curvature="0"
     style="fill:#ffffff" />
  <path
     d="m 19,20.072057 c 0,0.276 -0.224,0.5 -0.5,0.5 l -1,0 c -0.276,0 -0.5,-0.224 -0.5,-0.5 0,-0.276 0.224,-0.5 0.5,-0.5 l 1,0 c 0.276,0 0.5,0.224 0.5,0.5 z"
     id="path18"
     inkscape:connector-curvature="0"
     style="fill:#3d2e24" />
  <path
     d="m 17.995,23.353057 c 1.13,0 1.817,-0.469 2.349,-0.812 0.531,-0.344 1.469,0.289 0.656,0.988 -0.812,0.699 -2.053,0.978 -3.001,0.978 l -0.004,-1.154 z"
     id="path20"
     inkscape:connector-curvature="0"
     style="fill:#df1f32" />
  <path
     d="m 17.995,23.353057 c -1.13,0 -1.817,-0.469 -2.349,-0.812 -0.531,-0.344 -1.469,0.289 -0.656,0.988 0.812,0.699 2.053,0.978 3.001,0.978 l 0.004,-1.154 z"
     id="path22"
     inkscape:connector-curvature="0"
     style="fill:#df1f32" />
</svg>
