<?xml version="1.0" encoding="UTF-8" standalone="no"?>
<svg
   xmlns:dc="http://purl.org/dc/elements/1.1/"
   xmlns:cc="http://creativecommons.org/ns#"
   xmlns:rdf="http://www.w3.org/1999/02/22-rdf-syntax-ns#"
   xmlns:svg="http://www.w3.org/2000/svg"
   xmlns="http://www.w3.org/2000/svg"
   xmlns:sodipodi="http://sodipodi.sourceforge.net/DTD/sodipodi-0.dtd"
   xmlns:inkscape="http://www.inkscape.org/namespaces/inkscape"
   viewBox="0 0 26 36"
   id="svg2"
   version="1.1"
   inkscape:version="0.91 r13725"
   sodipodi:docname="1f477-1f3fc-200d-2640-fe0f.svg"
   width="26"
   height="36">
  <metadata
     id="metadata42">
    <rdf:RDF>
      <cc:Work
         rdf:about="">
        <dc:format>image/svg+xml</dc:format>
        <dc:type
           rdf:resource="http://purl.org/dc/dcmitype/StillImage" />
      </cc:Work>
    </rdf:RDF>
  </metadata>
  <defs
     id="defs40" />
  <sodipodi:namedview
     pagecolor="#ffffff"
     bordercolor="#666666"
     borderopacity="1"
     objecttolerance="10"
     gridtolerance="10"
     guidetolerance="10"
     inkscape:pageopacity="0"
     inkscape:pageshadow="2"
     inkscape:window-width="640"
     inkscape:window-height="480"
     id="namedview38"
     showgrid="false"
     inkscape:zoom="6.5555556"
     inkscape:cx="13"
     inkscape:cy="18"
     inkscape:window-x="0"
     inkscape:window-y="0"
     inkscape:window-maximized="0"
     inkscape:current-layer="svg2" />
  <path
     d="m 26,36 0,-3.5 C 26,29.186 22.315,27 19,27 L 7,27 c -3.313,0 -7,2.186 -7,5.5 l 0,3.5 26,0 z"
     id="path4"
     inkscape:connector-curvature="0"
     style="fill:#f2760f" />
  <path
     d="m 12.945,5.069 c 4.105,0 10.947,2.053 10.947,10.947 0,8.896 0,10.948 -2.053,10.948 -2.053,0 -4.79,-2.053 -8.895,-2.053 -4.105,0 -6.785,2.053 -8.895,2.053 -2.287,0 -2.053,-8.211 -2.053,-10.948 C 1.997,7.122 8.84,5.069 12.945,5.069"
     id="path6"
     inkscape:connector-curvature="0"
     style="fill:#ffe51e" />
  <path
     d="m 9,27 8,0 c 0,0 -1.018,5 -4,5 -2.982,0 -4,-5 -4,-5"
     id="path8"
     inkscape:connector-curvature="0"
     style="fill:#292f33" />
  <path
     d="m 8,27 10,0 0,4 -10,0 z"
     id="path10"
     inkscape:connector-curvature="0"
     style="fill:#292f33" />
  <path
     d="m 9.328,27.018 c 1.466,1.065 2.964,0.98 3.672,0.98 0.708,0 2.194,0.085 3.66,-0.98 l 0,-3.203 -7.332,0 0,3.203 z"
     id="path12"
     inkscape:connector-curvature="0"
     style="fill:#f3d2a2" />
  <path
     d="m 9.322,25.179 c 1.022,1.155 2.29,1.468 3.668,1.468 1.379,0 2.647,-0.312 3.67,-1.468 l 0,-2.936 -7.338,0 0,2.936 z"
     id="path14"
     inkscape:connector-curvature="0"
     style="fill:#e2c196" />
  <path
     d="m 4.734,15.718 c 0,-5.834 3.676,-10.563 8.211,-10.563 4.533,0 8.209,4.729 8.209,10.563 0,5.833 -3.676,10.285 -8.209,10.285 -4.535,0 -8.211,-4.452 -8.211,-10.285"
     id="path16"
     inkscape:connector-curvature="0"
     style="fill:#f3d2a2" />
  <path
     d="m 12.945,23.543 c -1.606,0 -2.447,-0.794 -2.537,-0.885 -0.268,-0.267 -0.268,-0.7 0,-0.967 0.266,-0.265 0.692,-0.267 0.961,-0.007 0.035,0.032 0.551,0.491 1.576,0.491 1.038,0 1.555,-0.473 1.576,-0.492 0.273,-0.256 0.703,-0.248 0.963,0.02 0.26,0.269 0.26,0.691 -0.004,0.955 -0.089,0.091 -0.929,0.885 -2.535,0.885"
     id="path18"
     inkscape:connector-curvature="0"
     style="fill:#df1f32" />
  <path
     d="M 2.725,19 C 2.704,18 2.681,18.776 2.681,18.535 c 0,-3.422 2.053,0.494 2.053,-1.943 0,-2.439 1.368,-2.683 2.736,-4.051 0.685,-0.685 2.053,-2.026 2.053,-2.026 0,0 3.421,2.067 6.158,2.067 2.736,0 5.474,1.375 5.474,4.112 0,2.736 2.053,-1.584 2.053,1.837 0,0.244 -0.023,-0.531 -0.04,0.469 l 0.719,0 c 0.006,-2 0.006,-1.924 0.006,-3.202 C 23.893,6.903 17.051,3.591 12.945,3.591 8.841,3.591 1.998,6.848 1.998,15.743 1.998,16.536 1.978,17 2.006,19 l 0.719,0 z"
     id="path20"
     inkscape:connector-curvature="0"
     style="fill:#ffe51e" />
  <path
     d="m 9.608,17.887 c -0.465,0 -0.846,-0.381 -0.846,-0.847 l 0,-0.845 c 0,-0.465 0.381,-0.846 0.846,-0.846 0.466,0 0.847,0.381 0.847,0.846 l 0,0.845 c 0,0.466 -0.381,0.847 -0.847,0.847 m 6.765,0 c -0.465,0 -0.846,-0.381 -0.846,-0.847 l 0,-0.845 c 0,-0.465 0.381,-0.846 0.846,-0.846 0.465,0 0.846,0.381 0.846,0.846 l 0,0.845 c 0,0.466 -0.381,0.847 -0.846,0.847"
     id="path22"
     inkscape:connector-curvature="0"
     style="fill:#662113" />
  <path
     d="m 13.836,20.5 -1.69,0 c -0.233,0 -0.423,-0.19 -0.423,-0.423 l 0,-0.153 c 0,-0.233 0.189,-0.424 0.423,-0.424 l 1.69,0 c 0.233,0 0.424,0.19 0.424,0.424 l 0,0.153 c 0,0.233 -0.191,0.423 -0.424,0.423"
     id="path24"
     inkscape:connector-curvature="0"
     style="fill:#c1694f" />
  <path
     d="m 6.444,15.936 c 0,1.448 -0.734,2.622 -1.639,2.622 -0.905,0 -1.639,-1.174 -1.639,-2.622 0,-1.448 0.734,-2.623 1.639,-2.623 0.905,-0.001 1.639,1.174 1.639,2.623 m 16.389,0 c 0,1.448 -0.733,2.622 -1.639,2.622 -0.905,0 -1.639,-1.174 -1.639,-2.622 0,-1.448 0.733,-2.623 1.639,-2.623 0.906,-0.001 1.639,1.174 1.639,2.623"
     id="path26"
     inkscape:connector-curvature="0"
     style="fill:#f3d2a2" />
  <path
     d="m 14,34.938 -1,1.061 -1,-1 -1,-3.999 3.5,0 z"
     id="path28"
     inkscape:connector-curvature="0"
     style="fill:#292f33" />
  <path
     d="m 19,27 3,0 0,9 -3,0 z m -15,0 3,0 0,9 -3,0 z"
     id="path30"
     inkscape:connector-curvature="0"
     style="fill:#fff75f" />
  <path
     d="M 5.5,27 C 5.5,28.068 7,30.662 9,32.798 10.581,34.485 13,36 13,36 13,32.729 12,31.73 11,30.662 10,29.596 8,29.136 8,27 8,25.934 5.5,27 5.5,27 m 15,0 C 20.5,28.068 19,30.662 17,32.798 15.419,34.485 13,36 13,36 c 0,-3.271 1,-4.27 2,-5.338 1,-1.066 3,-1.526 3,-3.662 0,-1.066 2.5,0 2.5,0"
     id="path32"
     inkscape:connector-curvature="0"
     style="fill:#55acee" />
  <path
     d="M 25,11 C 22,9 23.992,6.831 22,4 20.127,1.337 17,0 12.998,0 8,0 5.874,1.337 4,4 2.008,6.831 4,9 1,11 c -1.861,1.24 6,2.313 12,2.313 6,0 13.861,-1.073 12,-2.313"
     id="path34"
     inkscape:connector-curvature="0"
     style="fill:#fff75f" />
  <path
     d="M 11,11.5 11,0.088 C 10.65,0.12 10.317,0.162 10,0.212 l 0,10.281 C 7.91,10.443 4.876,10.097 2.347,9.64 2.173,9.937 1.937,10.23 1.617,10.517 4.527,11.083 8.213,11.5 10.5,11.5 l 0.5,0 z M 23.855,9.947 C 21.002,10.251 18.016,10.464 16,10.496 L 16,0.292 C 15.677,0.226 15.34,0.18 15,0.137 l 0,11.363 0.5,0 c 2.018,0 5.796,-0.261 9.289,-0.657 -0.402,-0.295 -0.708,-0.593 -0.934,-0.896 z"
     id="path36"
     inkscape:connector-curvature="0"
     style="fill:#ffac33" />
</svg>
