<?xml version="1.0" encoding="UTF-8" standalone="no"?>
<svg
   xmlns:dc="http://purl.org/dc/elements/1.1/"
   xmlns:cc="http://creativecommons.org/ns#"
   xmlns:rdf="http://www.w3.org/1999/02/22-rdf-syntax-ns#"
   xmlns:svg="http://www.w3.org/2000/svg"
   xmlns="http://www.w3.org/2000/svg"
   xmlns:sodipodi="http://sodipodi.sourceforge.net/DTD/sodipodi-0.dtd"
   xmlns:inkscape="http://www.inkscape.org/namespaces/inkscape"
   viewBox="0 0 36 35"
   id="svg2"
   version="1.1"
   inkscape:version="0.91 r13725"
   sodipodi:docname="1f479.svg"
   width="36"
   height="35">
  <metadata
     id="metadata38">
    <rdf:RDF>
      <cc:Work
         rdf:about="">
        <dc:format>image/svg+xml</dc:format>
        <dc:type
           rdf:resource="http://purl.org/dc/dcmitype/StillImage" />
      </cc:Work>
    </rdf:RDF>
  </metadata>
  <defs
     id="defs36" />
  <sodipodi:namedview
     pagecolor="#ffffff"
     bordercolor="#666666"
     borderopacity="1"
     objecttolerance="10"
     gridtolerance="10"
     guidetolerance="10"
     inkscape:pageopacity="0"
     inkscape:pageshadow="2"
     inkscape:window-width="640"
     inkscape:window-height="480"
     id="namedview34"
     showgrid="false"
     inkscape:zoom="6.5555556"
     inkscape:cx="18"
     inkscape:cy="17"
     inkscape:window-x="0"
     inkscape:window-y="0"
     inkscape:window-maximized="0"
     inkscape:current-layer="svg2" />
  <path
     d="m 32,23 c 0,0 7,0 1,-8 0,0 6,-2 -2,-7 C 31,8 37,1.983 24,5 24,5 24,0 22,0 20,0 18,4 18,4 18,4 16,0 14,0 12,0 12,5 12,5 -1,1.928 5,8 5,8 c -8,5 -2,7 -2,7 -6,8 1,8 1,8 0,0 -4,2 -4,5 0,3 3,2 6,2 -7,9 12,1 12,1 0,0 19,8 12,-1 3,0 6,1 6,-2 0,-3 -4,-5 -4,-5 z"
     id="path4"
     inkscape:connector-curvature="0"
     style="fill:#292f33" />
  <path
     d="m 28.963,16 c 0,0 -0.26,-6.519 -3.982,-9 C 21.982,5 20,5 18,5 15.911,5 14,5 11,7 7.279,9.481 7,16 7,16 c -1,0 -2.271,2.291 -2,5 0.289,2.889 2,4 2,4 0,4 3,7 3,7 0,2 0,3 4,3 l 7.963,0 c 4.037,0 4,-1 4,-3 0,0 3,-3 3,-7 0,0 1.711,-1.111 2,-4 0.271,-2.709 -1,-5 -2,-5 z"
     id="path6"
     inkscape:connector-curvature="0"
     style="fill:#dd2e44" />
  <path
     d="M 25.178,25.622 C 24.333,26.067 20.8,27.089 18,27.089 c -3,0 -6.508,-1.022 -7.353,-1.467 -0.844,-0.444 -1.776,0.344 -1.51,1.867 0.363,2.074 1.253,4.684 3.387,4.195 C 13.224,31.524 15,30 18,30 c 3.022,0 4.645,1.524 5.345,1.684 2.133,0.489 2.893,-2.122 3.255,-4.195 0.267,-1.523 -0.578,-2.311 -1.422,-1.867 z"
     id="path8"
     inkscape:connector-curvature="0"
     style="fill:#292f33" />
  <g
     id="g10"
     style="fill:#ffffff">
    <path
       d="m 25.721,28.741 -0.805,-3 c -1.155,0.485 -4.343,1.348 -6.917,1.348 -2.835,0 -6.12,-0.912 -7.186,-1.388 l -0.815,3.04 c -0.142,0.531 0.176,1.082 0.707,1.225 0.531,0.142 1.082,-0.176 1.225,-0.707 l 0.748,-2.331 c 0.892,0.344 3.114,0.664 5.322,0.66 2.161,-0.004 4.308,-0.324 5.18,-0.66 l 0.616,2.331 c 0.142,0.531 0.689,0.849 1.22,0.707 0.532,-0.142 0.848,-0.694 0.705,-1.225 z"
       id="path12"
       inkscape:connector-curvature="0" />
    <path
       d="m 22.929,29.906 c 0.086,-0.403 -0.174,-0.804 -0.578,-0.889 -0.403,-0.086 -0.804,0.174 -0.889,0.578 l -0.119,0.643 C 20.992,30.048 19.504,29.592 18,29.589 c -1.553,-0.003 -3.125,0.454 -3.484,0.649 l -0.198,-0.643 c -0.086,-0.404 -0.517,-0.664 -0.92,-0.578 -0.403,0.086 -0.679,0.486 -0.593,0.889 l 0.318,1.514 C 14.038,30.941 15.632,30 18,30 c 2.255,0 3.729,0.847 4.624,1.345 l 0.305,-1.439 z"
       id="path14"
       inkscape:connector-curvature="0" />
  </g>
  <path
     d="m 13.496,14.984 -2.38,-0.506 C 9.48,14.13 7.857,15.184 7.509,16.82 c -0.348,1.636 0.706,3.259 2.342,3.607 l 2.38,0.506 c 1.636,0.348 3.259,-0.706 3.607,-2.342 0.348,-1.636 -0.706,-3.259 -2.342,-3.607 z m 9.008,-0.239 2.38,-0.506 c 1.636,-0.348 3.259,0.706 3.607,2.342 0.348,1.636 -0.706,3.259 -2.342,3.607 l -2.38,0.506 c -1.636,0.348 -3.259,-0.706 -3.607,-2.342 -0.348,-1.636 0.706,-3.259 2.342,-3.607 z"
     id="path16"
     inkscape:connector-curvature="0"
     style="fill:#55acee" />
  <path
     d="m 13.737,15.47 -1.956,-0.416 c -1.345,-0.286 -2.679,0.581 -2.965,1.926 -0.286,1.345 0.581,2.679 1.926,2.965 l 1.956,0.416 c 1.345,0.286 2.679,-0.581 2.965,-1.926 0.285,-1.344 -0.581,-2.679 -1.926,-2.965 z"
     id="path18"
     inkscape:connector-curvature="0"
     style="fill:#ffcc4d" />
  <circle
     cx="12.739"
     cy="17.708"
     r="1.5"
     id="circle20"
     style="fill:#292f33" />
  <path
     d="m 22.263,15.47 1.956,-0.416 c 1.345,-0.286 2.679,0.581 2.965,1.926 0.286,1.345 -0.581,2.679 -1.925,2.965 l -1.956,0.416 c -1.345,0.286 -2.679,-0.581 -2.965,-1.926 -0.286,-1.344 0.58,-2.679 1.925,-2.965 z"
     id="path22"
     inkscape:connector-curvature="0"
     style="fill:#ffcc4d" />
  <circle
     cx="23.261"
     cy="17.708"
     r="1.5"
     id="circle24"
     style="fill:#292f33" />
  <path
     d="m 18,26.5 c -1.86,0 -2.647,-1.005 -2.901,-1.855 -0.543,0.128 -1.345,0.209 -1.929,-0.187 C 12.865,24.251 12.5,23.83 12.5,23 c 0,-0.276 0.224,-0.5 0.5,-0.5 0.276,0 0.5,0.224 0.5,0.5 0,0.474 0.173,0.591 0.231,0.63 0.373,0.254 1.229,0.046 1.585,-0.095 0.153,-0.061 0.328,-0.042 0.465,0.052 C 15.917,23.68 16,23.834 16,24 c 0.003,0.149 0.083,1.5 2,1.5 1.978,0 2,-1.438 2,-1.5 0,-0.166 0.082,-0.32 0.22,-0.413 0.136,-0.094 0.309,-0.113 0.465,-0.052 0.356,0.142 1.211,0.35 1.585,0.095 0.057,-0.039 0.23,-0.156 0.23,-0.63 0,-0.276 0.224,-0.5 0.5,-0.5 0.276,0 0.5,0.224 0.5,0.5 0,0.83 -0.364,1.251 -0.671,1.458 -0.584,0.396 -1.386,0.314 -1.929,0.187 -0.253,0.85 -1.041,1.855 -2.9,1.855 z"
     id="path26"
     inkscape:connector-curvature="0"
     style="fill:#a0041e" />
  <path
     d="m 23.663,34.095 c -0.63,0 -1.292,-0.273 -1.975,-0.816 -0.96,-0.765 -1.864,-1.484 -3.688,-1.484 -1.824,0 -2.729,0.72 -3.687,1.483 -1.186,0.945 -2.439,0.944 -3.624,0.002 -0.216,-0.172 -0.252,-0.487 -0.08,-0.703 0.171,-0.216 0.486,-0.252 0.703,-0.08 0.821,0.654 1.556,0.654 2.377,0 1.003,-0.798 2.138,-1.701 4.311,-1.701 2.174,0 3.309,0.903 4.31,1.7 0.578,0.46 1.096,0.654 1.531,0.587 0.477,-0.075 0.729,-0.449 0.738,-0.465 0.151,-0.229 0.46,-0.296 0.69,-0.147 0.229,0.148 0.3,0.452 0.154,0.684 -0.049,0.077 -0.5,0.759 -1.403,0.912 -0.118,0.018 -0.237,0.028 -0.357,0.028 z"
     id="path28"
     inkscape:connector-curvature="0"
     style="fill:#be1931" />
  <path
     d="m 6.002,0.95 c 0.026,-0.497 0.435,-0.896 0.92,-0.936 0.632,-0.053 0.912,0.447 1.146,0.953 0.73,1.574 1.508,3.121 2.544,4.52 0.72,0.973 1.589,2.014 2.696,2.564 0.589,0.197 0.862,0.911 0.55,1.449 0.525,0.911 -0.513,1.79 -1.366,1.364 C 11.332,11.534 9.414,9.319 8.759,8.53 7.913,7.511 7.263,6.339 6.805,5.1 6.336,3.83 5.922,2.321 6.002,0.95 Z m 23.988,0 C 29.964,0.453 29.555,0.054 29.07,0.014 28.438,-0.039 28.158,0.461 27.924,0.967 27.194,2.541 26.416,4.088 25.38,5.487 24.66,6.46 23.791,7.501 22.684,8.051 22.095,8.248 21.822,8.962 22.134,9.5 c -0.525,0.911 0.513,1.79 1.366,1.364 1.16,0.67 3.078,-1.545 3.733,-2.334 C 28.079,7.512 28.729,6.34 29.187,5.101 29.656,3.83 30.07,2.321 29.99,0.95 Z"
     id="path30"
     inkscape:connector-curvature="0"
     style="fill:#f4900c" />
  <path
     d="M 15,16 C 10.746,16 7.578,13.92 7.445,13.832 6.986,13.526 6.862,12.905 7.168,12.445 7.474,11.987 8.094,11.862 8.553,12.166 8.581,12.185 11.372,14 15,14 c 0.552,0 1,0.448 1,1 0,0.552 -0.448,1 -1,1 z m 6,0 c -0.553,0 -1,-0.448 -1,-1 0,-0.552 0.447,-1 1,-1 3.655,0 6.418,-1.814 6.445,-1.832 0.46,-0.307 1.08,-0.183 1.387,0.277 0.307,0.46 0.183,1.081 -0.277,1.387 C 28.422,13.92 25.254,16 21,16 Z"
     id="path32"
     inkscape:connector-curvature="0"
     style="fill:#292f33" />
</svg>
