<?xml version="1.0" encoding="UTF-8" standalone="no"?>
<svg
   xmlns:dc="http://purl.org/dc/elements/1.1/"
   xmlns:cc="http://creativecommons.org/ns#"
   xmlns:rdf="http://www.w3.org/1999/02/22-rdf-syntax-ns#"
   xmlns:svg="http://www.w3.org/2000/svg"
   xmlns="http://www.w3.org/2000/svg"
   xmlns:sodipodi="http://sodipodi.sourceforge.net/DTD/sodipodi-0.dtd"
   xmlns:inkscape="http://www.inkscape.org/namespaces/inkscape"
   viewBox="0 0 26 32"
   id="svg2"
   version="1.1"
   inkscape:version="0.91 r13725"
   sodipodi:docname="1f473-1f3fe-200d-2640-fe0f.svg"
   width="26"
   height="32">
  <metadata
     id="metadata30">
    <rdf:RDF>
      <cc:Work
         rdf:about="">
        <dc:format>image/svg+xml</dc:format>
        <dc:type
           rdf:resource="http://purl.org/dc/dcmitype/StillImage" />
      </cc:Work>
    </rdf:RDF>
  </metadata>
  <defs
     id="defs28" />
  <sodipodi:namedview
     pagecolor="#ffffff"
     bordercolor="#666666"
     borderopacity="1"
     objecttolerance="10"
     gridtolerance="10"
     guidetolerance="10"
     inkscape:pageopacity="0"
     inkscape:pageshadow="2"
     inkscape:window-width="640"
     inkscape:window-height="480"
     id="namedview26"
     showgrid="false"
     inkscape:zoom="6.5555556"
     inkscape:cx="13"
     inkscape:cy="18"
     inkscape:window-x="0"
     inkscape:window-y="0"
     inkscape:window-maximized="0"
     inkscape:current-layer="svg2" />
  <path
     d="m 26,32 0,-3.5 C 26,25.186 22.315,23 19,23 L 7,23 c -3.313,0 -7,2.186 -7,5.5 l 0,3.5 26,0 z"
     id="path4"
     inkscape:connector-curvature="0"
     style="fill:#9266cc" />
  <path
     d="M 9.221,27.274 C 9.756,29.168 11.258,30.5 13,30.5 c 1.742,0 3.244,-1.332 3.779,-3.226 C 18.788,26.425 20,24.938 20,23.25 20,23.189 19.99,23.129 19.986,23.069 19.656,23.027 19.326,23 19,23 L 7,23 C 6.674,23 6.344,23.027 6.014,23.069 6.01,23.129 6,23.189 6,23.25 c 0,1.688 1.212,3.175 3.221,4.024 z"
     id="path6"
     inkscape:connector-curvature="0"
     style="fill:#744eaa" />
  <path
     d="m 18.479,23 -1.819,0 0,-3.185 -7.32,0 0,3.185 -1.818,0 c -0.011,0.083 -0.021,0.166 -0.021,0.25 0,1.27 1.235,2.366 3.031,2.901 C 10.685,27.755 11.726,29 13,29 c 1.274,0 2.315,-1.245 2.469,-2.849 1.796,-0.535 3.031,-1.632 3.031,-2.901 0,-0.084 -0.011,-0.167 -0.021,-0.25 z"
     id="path8"
     inkscape:connector-curvature="0"
     style="fill:#af7e57" />
  <path
     d="m 9.321,21.179 c 1.023,1.155 2.291,1.468 3.669,1.468 1.379,0 2.647,-0.312 3.67,-1.468 l 0,-2.936 -7.339,0 0,2.936 z"
     id="path10"
     inkscape:connector-curvature="0"
     style="fill:#9b6a49" />
  <path
     d="m 22.833,11.936 c 0,1.448 -0.733,2.622 -1.639,2.622 -0.905,0 -1.639,-1.174 -1.639,-2.622 0,-1.448 0.733,-2.623 1.639,-2.623 0.906,-0.001 1.639,1.174 1.639,2.623 m -16.389,0 c 0,1.448 -0.734,2.622 -1.639,2.622 -0.905,0 -1.639,-1.174 -1.639,-2.622 0,-1.448 0.734,-2.623 1.639,-2.623 0.905,-0.001 1.639,1.174 1.639,2.623"
     id="path12"
     inkscape:connector-curvature="0"
     style="fill:#af7e57" />
  <path
     d="m 4.734,11.717 c 0,-5.834 3.676,-10.563 8.21,-10.563 4.534,0 8.211,4.729 8.211,10.563 0,5.833 -3.677,10.286 -8.211,10.286 -4.534,0 -8.21,-4.452 -8.21,-10.286"
     id="path14"
     inkscape:connector-curvature="0"
     style="fill:#af7e57" />
  <path
     d="m 12.944,19.543 c -1.605,0 -2.446,-0.794 -2.536,-0.885 -0.268,-0.267 -0.268,-0.7 0,-0.967 0.266,-0.265 0.692,-0.267 0.96,-0.007 0.035,0.032 0.553,0.491 1.576,0.491 1.039,0 1.557,-0.473 1.577,-0.492 0.273,-0.256 0.703,-0.248 0.963,0.02 0.26,0.269 0.26,0.691 -0.004,0.955 -0.089,0.091 -0.929,0.885 -2.536,0.885"
     id="path16"
     inkscape:connector-curvature="0"
     style="fill:#df1f32" />
  <path
     d="m 9.608,13.886 c -0.465,0 -0.846,-0.381 -0.846,-0.846 l 0,-0.845 c 0,-0.465 0.381,-0.846 0.846,-0.846 0.465,0 0.847,0.381 0.847,0.846 l 0,0.845 c 0,0.465 -0.382,0.846 -0.847,0.846 m 6.765,0 c -0.465,0 -0.846,-0.381 -0.846,-0.846 l 0,-0.845 c 0,-0.465 0.381,-0.846 0.846,-0.846 0.465,0 0.846,0.381 0.846,0.846 l 0,0.845 c 0,0.465 -0.381,0.846 -0.846,0.846"
     id="path18"
     inkscape:connector-curvature="0"
     style="fill:#60352a" />
  <path
     d="m 13.837,16.5 -1.691,0 c -0.233,0 -0.423,-0.19 -0.423,-0.423 l 0,-0.153 c 0,-0.233 0.189,-0.424 0.423,-0.424 l 1.691,0 c 0.232,0 0.423,0.19 0.423,0.424 l 0,0.153 c 0,0.233 -0.191,0.423 -0.423,0.423"
     id="path20"
     inkscape:connector-curvature="0"
     style="fill:#915a34" />
  <path
     d="m 13,5.729 c 0,0 6.752,1.756 7.787,4.916 C 21.238,9.68 21.5,7.507 21.5,6.315 21.5,2.688 18.5,0 14.062,0 L 11.937,0 C 8.042,0 4.5,2.688 4.5,6.314 4.5,7.506 4.762,9.805 5.212,10.769 6.248,7.608 13,5.729 13,5.729 Z"
     id="path22"
     inkscape:connector-curvature="0"
     style="fill:#e6e7e8" />
  <path
     d="m 18.901,5.251 c 0.65,-0.086 1.299,-0.145 1.945,-0.145 0.192,0 0.36,-0.086 0.48,-0.217 C 21.229,4.515 21.094,4.157 20.925,3.814 20.898,3.81 20.874,3.798 20.846,3.798 c -2.677,0 -5.386,0.671 -8.054,1.991 L 13,5.729 c 0,0 0.771,0.201 1.829,0.587 0.615,-0.245 1.232,-0.44 1.848,-0.612 0.014,0.006 0.024,0.017 0.039,0.022 1.573,0.524 3.292,1.564 4.603,2.761 C 21.398,7.939 21.452,7.386 21.478,6.901 20.681,6.265 19.799,5.71 18.901,5.251 Z M 4.61,7.973 C 6.505,6.619 12.796,2.552 20.043,2.496 19.633,2.023 19.153,1.602 18.617,1.243 12.283,1.714 6.868,4.869 4.504,6.458 4.514,6.888 4.548,7.415 4.61,7.973 Z M 4.677,4.88 C 7.016,3.382 11.468,1.146 16.417,0.284 15.666,0.062 14.873,0 14.062,0 L 12.395,0 C 9.823,1 7.529,1.815 5.763,2.788 5.258,3.429 4.881,4.092 4.677,4.88 Z"
     id="path24"
     inkscape:connector-curvature="0"
     style="fill:#d1d3d4" />
</svg>
