<?xml version="1.0" encoding="UTF-8" standalone="no"?>
<svg
   xmlns:dc="http://purl.org/dc/elements/1.1/"
   xmlns:cc="http://creativecommons.org/ns#"
   xmlns:rdf="http://www.w3.org/1999/02/22-rdf-syntax-ns#"
   xmlns:svg="http://www.w3.org/2000/svg"
   xmlns="http://www.w3.org/2000/svg"
   xmlns:sodipodi="http://sodipodi.sourceforge.net/DTD/sodipodi-0.dtd"
   xmlns:inkscape="http://www.inkscape.org/namespaces/inkscape"
   viewBox="0 0 36 36.000042"
   id="svg2"
   version="1.1"
   inkscape:version="0.91 r13725"
   sodipodi:docname="1f47f.svg"
   width="36"
   height="36.000042">
  <metadata
     id="metadata14">
    <rdf:RDF>
      <cc:Work
         rdf:about="">
        <dc:format>image/svg+xml</dc:format>
        <dc:type
           rdf:resource="http://purl.org/dc/dcmitype/StillImage" />
      </cc:Work>
    </rdf:RDF>
  </metadata>
  <defs
     id="defs12" />
  <sodipodi:namedview
     pagecolor="#ffffff"
     bordercolor="#666666"
     borderopacity="1"
     objecttolerance="10"
     gridtolerance="10"
     guidetolerance="10"
     inkscape:pageopacity="0"
     inkscape:pageshadow="2"
     inkscape:window-width="640"
     inkscape:window-height="480"
     id="namedview10"
     showgrid="false"
     inkscape:zoom="6.5555556"
     inkscape:cx="18"
     inkscape:cy="18"
     inkscape:window-x="0"
     inkscape:window-y="0"
     inkscape:window-maximized="0"
     inkscape:current-layer="svg2" />
  <circle
     cx="18"
     cy="18.000042"
     r="18"
     id="circle4"
     style="fill:#aa8dd8" />
  <path
     d="m 10,4.0000429 c -2.58,0 -5.631,-2.466 -6.586,-3.41399999 -0.571,-0.572 -1.433,-0.743 -2.179,-0.433 C 0.487,0.46204291 0,1.1910429 0,2.0000429 c 0,3.459 1.672,10.0000001 8,10.0000001 0.757,0 1.45,-0.428 1.789,-1.106 l 2,-4.0000001 c 0.31,-0.62 0.277,-1.356 -0.088,-1.946 -0.364,-0.589 -1.008,-0.948 -1.701,-0.948 z M 34.766,0.15304291 c -0.75,-0.311 -1.607,-0.139 -2.18,0.434 C 31.7,1.4720429 28.589,4.0000429 26,4.0000429 c -0.693,0 -1.337,0.359 -1.701,0.949 -0.364,0.589 -0.397,1.326 -0.088,1.946 l 2,4.0000001 c 0.339,0.677 1.031,1.105 1.789,1.105 6.328,0 8,-6.5410001 8,-10.0000001 0,-0.809 -0.487,-1.53799999 -1.234,-1.84699999 z"
     id="path6"
     inkscape:connector-curvature="0"
     style="fill:#aa8dd8" />
  <path
     d="m 15.894,14.211043 -6,-3 c -0.988,-0.494 -2.189,-0.093 -2.684,0.895 -0.494,0.988 -0.093,2.189 0.895,2.684 l 4.212,2.106 c -0.306,0.533 -0.317,1.105 -0.317,1.105 l 0,2 c 0,0 0,2 2,2 2,0 2,-2 2,-2 l 0,-2 c 0,0 -0.003,-0.109 -0.025,-0.263 0.338,-0.189 0.628,-0.471 0.814,-0.843 0.494,-0.988 0.093,-2.189 -0.895,-2.684 z m 12.895,-2.105 c -0.493,-0.986 -1.694,-1.391 -2.684,-0.895 l -6,3 c -0.988,0.494 -1.389,1.695 -0.895,2.684 0.186,0.372 0.476,0.654 0.814,0.843 -0.021,0.154 -0.024,0.263 -0.024,0.263 l 0,2 c 0,0 0,2 2,2 2,0 2,-2 2,-2 l 0,-2 c 0,0 -0.011,-0.572 -0.318,-1.105 l 4.212,-2.106 c 0.989,-0.495 1.389,-1.696 0.895,-2.684 z m -4.507,17.489 c -0.039,-0.165 -0.985,-3.848 -6.282,-3.848 -5.291,0 -6.245,3.69 -6.282,3.848 -0.063,0.26 0.047,0.525 0.274,0.661 0.227,0.135 0.515,0.098 0.703,-0.092 0.015,-0.016 1.583,-1.522 5.306,-1.522 3.723,0 5.291,1.507 5.305,1.521 0.108,0.112 0.259,0.176 0.412,0.176 0.1,0 0.199,-0.026 0.289,-0.079 0.224,-0.134 0.338,-0.407 0.275,-0.665 z"
     id="path8"
     inkscape:connector-curvature="0"
     style="fill:#553986" />
</svg>
