<?xml version="1.0" encoding="UTF-8" standalone="no"?>
<svg
   xmlns:dc="http://purl.org/dc/elements/1.1/"
   xmlns:cc="http://creativecommons.org/ns#"
   xmlns:rdf="http://www.w3.org/1999/02/22-rdf-syntax-ns#"
   xmlns:svg="http://www.w3.org/2000/svg"
   xmlns="http://www.w3.org/2000/svg"
   xmlns:sodipodi="http://sodipodi.sourceforge.net/DTD/sodipodi-0.dtd"
   xmlns:inkscape="http://www.inkscape.org/namespaces/inkscape"
   viewBox="0 0 28 36"
   id="svg2"
   version="1.1"
   inkscape:version="0.91 r13725"
   sodipodi:docname="1f477-1f3ff-200d-2642-fe0f.svg"
   width="28"
   height="36">
  <metadata
     id="metadata38">
    <rdf:RDF>
      <cc:Work
         rdf:about="">
        <dc:format>image/svg+xml</dc:format>
        <dc:type
           rdf:resource="http://purl.org/dc/dcmitype/StillImage" />
      </cc:Work>
    </rdf:RDF>
  </metadata>
  <defs
     id="defs36" />
  <sodipodi:namedview
     pagecolor="#ffffff"
     bordercolor="#666666"
     borderopacity="1"
     objecttolerance="10"
     gridtolerance="10"
     guidetolerance="10"
     inkscape:pageopacity="0"
     inkscape:pageshadow="2"
     inkscape:window-width="640"
     inkscape:window-height="480"
     id="namedview34"
     showgrid="false"
     inkscape:zoom="6.5555556"
     inkscape:cx="14"
     inkscape:cy="18"
     inkscape:window-x="0"
     inkscape:window-y="0"
     inkscape:window-maximized="0"
     inkscape:current-layer="svg2" />
  <path
     d="m 28,36 0,-2 c 0,-3.314 -2.685,-6 -6,-6 L 6,28 c -3.313,0 -6,2.686 -6,6 l 0,2 28,0 z"
     id="path4"
     inkscape:connector-curvature="0"
     style="fill:#f2760f" />
  <path
     d="m 9,27 10,0 0,4 -10,0 z"
     id="path6"
     inkscape:connector-curvature="0"
     style="fill:#292f33" />
  <path
     d="m 10,27 8,0 c 0,0 -1.018,7 -4,7 -2.982,0 -4,-7 -4,-7"
     id="path8"
     inkscape:connector-curvature="0"
     style="fill:#292f33" />
  <path
     d="m 9.64,30.038 c 1.745,1.268 2.849,1.963 4.36,1.963 1.511,0 2.615,-0.696 4.359,-1.963 l 0,-5.749 -8.72,0 0,5.749 z"
     id="path10"
     inkscape:connector-curvature="0"
     style="fill:#7c533e" />
  <path
     d="m 9.632,25.973 c 1.216,1.374 2.724,1.746 4.364,1.746 1.639,0 3.146,-0.373 4.363,-1.746 l 0,-3.491 -8.728,0 0,3.491 z"
     id="path12"
     inkscape:connector-curvature="0"
     style="fill:#664131" />
  <path
     d="m 23.834,15.935 c 0,-1.448 -0.734,-2.623 -1.639,-2.623 -0.082,0 -0.161,0.02 -0.24,0.039 C 20.73,9.546 17.635,6.839 14,6.839 c -3.635,0 -6.729,2.707 -7.955,6.512 -0.079,-0.019 -0.158,-0.039 -0.24,-0.039 -0.905,0 -1.639,1.175 -1.639,2.623 0,1.33 0.621,2.417 1.423,2.587 0.634,4.845 4.153,8.557 8.411,8.557 4.258,0 7.777,-3.712 8.411,-8.557 0.802,-0.17 1.423,-1.257 1.423,-2.587 z"
     id="path14"
     inkscape:connector-curvature="0"
     style="fill:#7c533e" />
  <path
     d="m 14,23.802 c -2.754,0 -3.6,-0.705 -3.74,-0.848 -0.257,-0.256 -0.257,-0.671 0,-0.927 0.248,-0.248 0.644,-0.255 0.902,-0.023 0.051,0.037 0.721,0.487 2.838,0.487 2.201,0 2.836,-0.485 2.842,-0.49 0.256,-0.255 0.658,-0.243 0.914,0.015 0.256,0.256 0.242,0.683 -0.014,0.938 C 17.6,23.097 16.754,23.802 14,23.802"
     id="path16"
     inkscape:connector-curvature="0"
     style="fill:#3d2e24" />
  <path
     d="m 14,3.48 c 5.648,0 9.178,4.168 9.178,7.641 0,3.473 -0.705,4.863 -1.412,3.473 l -1.412,-2.778 c 0,0 -4.234,0 -5.646,-1.39 0,0 2.117,4.168 -2.119,0 0,0 0.707,2.779 -3.53,-0.694 0,0 -2.118,1.389 -2.824,4.862 -0.196,0.964 -1.412,0 -1.412,-3.473 C 4.822,7.648 7.646,3.48 14,3.48"
     id="path18"
     inkscape:connector-curvature="0"
     style="fill:#0b0200" />
  <path
     d="M 10,17 C 9.45,17 9,16.55 9,16 l 0,-1 c 0,-0.55 0.45,-1 1,-1 0.551,0 1,0.45 1,1 l 0,1 c 0,0.55 -0.449,1 -1,1 m 8,0 c -0.549,0 -1,-0.45 -1,-1 l 0,-1 c 0,-0.55 0.451,-1 1,-1 0.551,0 1,0.45 1,1 l 0,1 c 0,0.55 -0.449,1 -1,1"
     id="path20"
     inkscape:connector-curvature="0" />
  <path
     d="m 14.75,19.75 -1.5,0 c -0.412,0 -0.75,-0.337 -0.75,-0.75 0,-0.413 0.338,-0.75 0.75,-0.75 l 1.5,0 c 0.414,0 0.75,0.337 0.75,0.75 0,0.413 -0.336,0.75 -0.75,0.75"
     id="path22"
     inkscape:connector-curvature="0"
     style="fill:#3d2e24" />
  <path
     d="m 15,34.938 -1,1.061 -1,-1 0,-3 2,0 z"
     id="path24"
     inkscape:connector-curvature="0"
     style="fill:#292f33" />
  <path
     d="m 5,28 3,0 0,8 -3,0 z m 15,0 3,0 0,8 -3,0 z"
     id="path26"
     inkscape:connector-curvature="0"
     style="fill:#fff75f" />
  <path
     d="m 7,28 c 0,1 1,3 3,5 1.582,1.581 4,3 4,3 0,-3.063 -1,-4 -2,-5 -1,-1 -3,-2 -3,-4 0,-1 -2,1 -2,1 m 14,0 c 0,1 -1,3 -3,5 -1.58,1.581 -4,3 -4,3 0,-3.063 1,-4 2,-5 1,-1 3,-2 3,-4 0,-1 2,1 2,1"
     id="path28"
     inkscape:connector-curvature="0"
     style="fill:#55acee" />
  <path
     d="M 26,11 C 23,9 24.992,6.831 23,4 21.127,1.337 18,0 13.998,0 9,0 6.874,1.337 5,4 3.008,6.831 5,9 2,11 c -1.861,1.24 6,2.313 12,2.313 6,0 13.861,-1.073 12,-2.313"
     id="path30"
     inkscape:connector-curvature="0"
     style="fill:#fff75f" />
  <path
     d="M 12,11.5 12,0.088 C 11.65,0.12 11.317,0.162 11,0.212 l 0,10.281 C 8.91,10.443 5.876,10.097 3.347,9.64 3.173,9.937 2.937,10.23 2.617,10.517 5.527,11.083 9.213,11.5 11.5,11.5 l 0.5,0 z M 24.855,9.947 C 22.002,10.251 19.016,10.464 17,10.496 L 17,0.292 C 16.677,0.226 16.34,0.18 16,0.137 l 0,11.363 0.5,0 c 2.018,0 5.796,-0.261 9.289,-0.657 -0.402,-0.295 -0.708,-0.593 -0.934,-0.896 z"
     id="path32"
     inkscape:connector-curvature="0"
     style="fill:#ffac33" />
</svg>
