<?xml version="1.0" encoding="UTF-8" standalone="no"?>
<svg
   xmlns:dc="http://purl.org/dc/elements/1.1/"
   xmlns:cc="http://creativecommons.org/ns#"
   xmlns:rdf="http://www.w3.org/1999/02/22-rdf-syntax-ns#"
   xmlns:svg="http://www.w3.org/2000/svg"
   xmlns="http://www.w3.org/2000/svg"
   xmlns:sodipodi="http://sodipodi.sourceforge.net/DTD/sodipodi-0.dtd"
   xmlns:inkscape="http://www.inkscape.org/namespaces/inkscape"
   viewBox="0 0 36 33.644901"
   id="svg2"
   version="1.1"
   inkscape:version="0.91 r13725"
   sodipodi:docname="1f476-1f3fc.svg"
   width="36"
   height="33.644901">
  <metadata
     id="metadata20">
    <rdf:RDF>
      <cc:Work
         rdf:about="">
        <dc:format>image/svg+xml</dc:format>
        <dc:type
           rdf:resource="http://purl.org/dc/dcmitype/StillImage" />
      </cc:Work>
    </rdf:RDF>
  </metadata>
  <defs
     id="defs18" />
  <sodipodi:namedview
     pagecolor="#ffffff"
     bordercolor="#666666"
     borderopacity="1"
     objecttolerance="10"
     gridtolerance="10"
     guidetolerance="10"
     inkscape:pageopacity="0"
     inkscape:pageshadow="2"
     inkscape:window-width="640"
     inkscape:window-height="480"
     id="namedview16"
     showgrid="false"
     inkscape:zoom="6.5555556"
     inkscape:cx="18"
     inkscape:cy="16"
     inkscape:window-x="0"
     inkscape:window-y="0"
     inkscape:window-maximized="0"
     inkscape:current-layer="svg2" />
  <path
     d="m 36,18.144903 c 0,-1.639 -0.97,-3.004 -2.273,-3.385 C 32.367,7.3029025 25.85,1.6449025 18,1.6449025 c -7.85,0 -14.367,5.658 -15.727,13.1150005 -1.303,0.381 -2.273,1.746 -2.273,3.385 0,1.736 1.087,3.168 2.51,3.442 1.759,6.926 8.017,12.058 15.49,12.058 7.473,0 13.731,-5.132 15.49,-12.058 1.422,-0.274 2.51,-1.706 2.51,-3.442 z"
     id="path4"
     inkscape:connector-curvature="0"
     style="fill:#f3d2a2" />
  <path
     d="m 18,24.644903 c -3,0 -4,-1 -4,1 0,2 2,4 4,4 2,0 4,-2 4,-4 0,-2 -1,-1 -4,-1 z"
     id="path6"
     inkscape:connector-curvature="0"
     style="fill:#662214" />
  <circle
     cx="22.5"
     cy="18.144903"
     r="2.5"
     id="circle8"
     style="fill:#662214" />
  <circle
     cx="13.5"
     cy="18.144903"
     r="2.5"
     id="circle10"
     style="fill:#662214" />
  <path
     d="m 18,25.644903 2,0 0,1 c 0,0 0,1 -1,1 -1,0 -1,-1 -1,-1 l 0,-1 z"
     id="path12"
     inkscape:connector-curvature="0"
     style="fill:#ffffff" />
  <path
     d="m 17.982,10.644903 -0.031,0 c -1.188,0 -2.301,-0.458 -3.135,-1.3040005 -0.746,-0.756 -1.138,-1.787 -1.076,-2.847 0.032,-0.551 0.49,-0.96 1.057,-0.935 0.551,0.033 0.972,0.508 0.939,1.06 -0.029,0.495 0.155,0.983 0.503,1.336 0.459,0.466 1.071,0.725 1.725,0.729 0.653,-0.036 1.27,-0.247 1.735,-0.705 1.298,-1.28 1.312,-3.378 0.032,-4.677 -1.699,-1.721 -4.48,-1.74 -6.202,-0.042 -0.394,0.389 -1.027,0.383 -1.414,-0.01 -0.388,-0.393 -0.383,-1.026 0.01,-1.414 2.506,-2.47199996 6.557,-2.44399996 9.03,0.062 2.055,2.084 2.031,5.432 -0.052,7.486 -0.836,0.8260005 -1.945,1.2610005 -3.121,1.2610005 z"
     id="path14"
     inkscape:connector-curvature="0"
     style="fill:#c68f6a" />
</svg>
