<?xml version="1.0" encoding="UTF-8" standalone="no"?>
<svg
   xmlns:dc="http://purl.org/dc/elements/1.1/"
   xmlns:cc="http://creativecommons.org/ns#"
   xmlns:rdf="http://www.w3.org/1999/02/22-rdf-syntax-ns#"
   xmlns:svg="http://www.w3.org/2000/svg"
   xmlns="http://www.w3.org/2000/svg"
   xmlns:sodipodi="http://sodipodi.sourceforge.net/DTD/sodipodi-0.dtd"
   xmlns:inkscape="http://www.inkscape.org/namespaces/inkscape"
   viewBox="0 0 24 36"
   id="svg2"
   version="1.1"
   inkscape:version="0.91 r13725"
   sodipodi:docname="1f482-1f3fc.svg"
   width="24"
   height="36">
  <metadata
     id="metadata30">
    <rdf:RDF>
      <cc:Work
         rdf:about="">
        <dc:format>image/svg+xml</dc:format>
        <dc:type
           rdf:resource="http://purl.org/dc/dcmitype/StillImage" />
      </cc:Work>
    </rdf:RDF>
  </metadata>
  <defs
     id="defs28" />
  <sodipodi:namedview
     pagecolor="#ffffff"
     bordercolor="#666666"
     borderopacity="1"
     objecttolerance="10"
     gridtolerance="10"
     guidetolerance="10"
     inkscape:pageopacity="0"
     inkscape:pageshadow="2"
     inkscape:window-width="640"
     inkscape:window-height="480"
     id="namedview26"
     showgrid="false"
     inkscape:zoom="6.5555556"
     inkscape:cx="12"
     inkscape:cy="18"
     inkscape:window-x="0"
     inkscape:window-y="0"
     inkscape:window-maximized="0"
     inkscape:current-layer="svg2" />
  <path
     d="m 24,36 0,-1 c 0,-3.313 -1.687,-6 -5,-6 L 5,29 c -3.313,0 -5,2.687 -5,6 l 0,1 24,0 z"
     id="path4"
     inkscape:connector-curvature="0"
     style="fill:#dd2e44" />
  <path
     d="M 21,6 C 21,2.7 18.3,0 15,0 L 9,0 C 5.7,0 3,2.7 3,6 l 0,12 c 0,4.971 4.029,5 9,5 4.971,0 9,-0.029 9,-5 L 21,6 Z"
     id="path6"
     inkscape:connector-curvature="0"
     style="fill:#292f33" />
  <path
     d="m 8.626,29.456 c 1.344,0.976 2.195,1.194 3.36,1.194 1.165,0 2.016,-0.218 3.36,-1.194 l 0,-2.938 -6.721,0 0,2.938 z"
     id="path8"
     inkscape:connector-curvature="0"
     style="fill:#f3d2a2" />
  <path
     d="m 8.62,27.816 c 0.938,1.059 2.1,1.345 3.364,1.345 1.264,0 2.426,-0.287 3.364,-1.345 l 0,-2.691 -6.728,0 0,2.691 z"
     id="path10"
     inkscape:connector-curvature="0"
     style="fill:#e2c196" />
  <path
     d="m 19.565,20.08 c 0,-1.116 -0.565,-2.021 -1.263,-2.021 -0.064,0 -0.125,0.015 -0.186,0.03 C 18.107,18.059 18.1,18.029 18.09,18 L 5.883,18 c -0.01,0.029 -0.016,0.059 -0.026,0.089 -0.061,-0.015 -0.123,-0.03 -0.186,-0.03 -0.698,0 -1.263,0.905 -1.263,2.021 0,1.025 0.479,1.863 1.097,1.994 0.489,3.734 3.201,6.595 6.482,6.595 3.281,0 5.993,-2.861 6.482,-6.595 0.618,-0.132 1.096,-0.969 1.096,-1.994 z"
     id="path12"
     inkscape:connector-curvature="0"
     style="fill:#f3d2a2" />
  <path
     d="m 11.987,26.143 c -2.123,0 -2.774,-0.544 -2.884,-0.653 -0.197,-0.197 -0.197,-0.517 0,-0.714 0.191,-0.191 0.497,-0.197 0.695,-0.018 0.04,0.029 0.556,0.376 2.188,0.376 1.695,0 2.186,-0.374 2.191,-0.377 0.197,-0.196 0.506,-0.187 0.704,0.01 0.197,0.197 0.187,0.527 -0.011,0.724 -0.109,0.108 -0.761,0.652 -2.883,0.652 z m 0.578,-3.123 -1.156,0 c -0.318,0 -0.578,-0.26 -0.578,-0.578 0,-0.318 0.26,-0.578 0.578,-0.578 l 1.156,0 c 0.318,0 0.578,0.26 0.578,0.578 0,0.318 -0.261,0.578 -0.578,0.578 z"
     id="path14"
     inkscape:connector-curvature="0"
     style="fill:#c1694f" />
  <path
     d="M 8.904,20.9 C 8.48,20.9 8.133,20.553 8.133,20.129 l 0,-0.771 c 0,-0.424 0.347,-0.771 0.771,-0.771 0.424,0 0.771,0.347 0.771,0.771 l 0,0.771 C 9.674,20.553 9.327,20.9 8.904,20.9 Z m 6.165,0 c -0.424,0 -0.771,-0.347 -0.771,-0.771 l 0,-0.771 c 0,-0.424 0.347,-0.771 0.771,-0.771 0.424,0 0.771,0.347 0.771,0.771 l 0,0.771 c 0,0.424 -0.347,0.771 -0.771,0.771 z"
     id="path16"
     inkscape:connector-curvature="0"
     style="fill:#662113" />
  <path
     d="M 6.578,30.461 1.925,31.198 C 1.653,31.241 1.396,31.054 1.353,30.782 L 1.197,29.794 C 1.154,29.522 1.341,29.265 1.613,29.222 l 4.653,-0.737 c 0.272,-0.043 0.529,0.144 0.572,0.416 l 0.156,0.988 C 7.037,30.16 6.85,30.418 6.578,30.461 Z m 10.87,0 4.653,0.737 c 0.272,0.043 0.529,-0.144 0.572,-0.416 l 0.156,-0.988 c 0.043,-0.272 -0.144,-0.529 -0.416,-0.572 L 17.76,28.485 c -0.272,-0.043 -0.529,0.144 -0.572,0.416 l -0.156,0.988 c -0.043,0.271 0.144,0.529 0.416,0.572 z"
     id="path18"
     inkscape:connector-curvature="0"
     style="fill:#292f33" />
  <path
     d="m 5.875,18 c 0,0 -0.174,9 6.113,9 6.287,0 6.137,-9 6.137,-9 L 19,18 C 19,18 18.693,28 12,28 5.307,28 5,18 5,18 l 0.875,0 z"
     id="path20"
     inkscape:connector-curvature="0"
     style="fill:#99aab5" />
  <path
     d="m 11.5,31 1,0 0,5 -1,0 z"
     id="path22"
     inkscape:connector-curvature="0"
     style="fill:#f5f8fa" />
  <path
     d="M 15.38,27.816 C 15.38,29.391 13.144,30 12,30 10.856,30 8.62,29.391 8.62,27.816 8.62,27.816 8,27.689 8,29 c 0,1.311 1.888,3 4,3 2.112,0 4,-1.689 4,-3 0,-1.311 -0.62,-1.184 -0.62,-1.184 z"
     id="path24"
     inkscape:connector-curvature="0"
     style="fill:#292f33" />
</svg>
