<?xml version="1.0" encoding="UTF-8" standalone="no"?>
<svg
   xmlns:dc="http://purl.org/dc/elements/1.1/"
   xmlns:cc="http://creativecommons.org/ns#"
   xmlns:rdf="http://www.w3.org/1999/02/22-rdf-syntax-ns#"
   xmlns:svg="http://www.w3.org/2000/svg"
   xmlns="http://www.w3.org/2000/svg"
   xmlns:sodipodi="http://sodipodi.sourceforge.net/DTD/sodipodi-0.dtd"
   xmlns:inkscape="http://www.inkscape.org/namespaces/inkscape"
   viewBox="0 0 36 36"
   id="svg2"
   version="1.1"
   inkscape:version="0.91 r13725"
   sodipodi:docname="1f481-1f3fd-200d-2640-fe0f.svg"
   width="36"
   height="36">
  <metadata
     id="metadata30">
    <rdf:RDF>
      <cc:Work
         rdf:about="">
        <dc:format>image/svg+xml</dc:format>
        <dc:type
           rdf:resource="http://purl.org/dc/dcmitype/StillImage" />
      </cc:Work>
    </rdf:RDF>
  </metadata>
  <defs
     id="defs28" />
  <sodipodi:namedview
     pagecolor="#ffffff"
     bordercolor="#666666"
     borderopacity="1"
     objecttolerance="10"
     gridtolerance="10"
     guidetolerance="10"
     inkscape:pageopacity="0"
     inkscape:pageshadow="2"
     inkscape:window-width="640"
     inkscape:window-height="480"
     id="namedview26"
     showgrid="false"
     inkscape:zoom="6.5555556"
     inkscape:cx="18"
     inkscape:cy="18"
     inkscape:window-x="0"
     inkscape:window-y="0"
     inkscape:window-maximized="0"
     inkscape:current-layer="svg2" />
  <path
     d="M 14,0 C 12.279,0 10.657,0.406 9.207,1.111 8.814,1.043 8.412,1 8,1 4.134,1 1,4.134 1,8 l 0,12 0.018,0 C 1.201,26.467 6.489,31.656 13,31.656 19.511,31.656 24.799,26.467 24.982,20 L 25,20 25,11 C 25,4.925 20.075,0 14,0 Z"
     id="path4"
     inkscape:connector-curvature="0"
     style="fill:#963b22" />
  <path
     d="M 22,27 4,27 c -2.209,0 -4,1.791 -4,4 l 0,5 26,0 0,-5 c 0,-2.209 -1.791,-4 -4,-4 z"
     id="path6"
     inkscape:connector-curvature="0"
     style="fill:#9268ca" />
  <path
     d="m 21,32 1,0 0,4 -1,0 z m -17,0 1,0 0,4 -1,0 z"
     id="path8"
     inkscape:connector-curvature="0"
     style="fill:#7450a8" />
  <path
     d="m 10,22 0,6 c 0,1.657 1.343,3 3,3 1.657,0 3,-1.343 3,-3 l 0,-6 -6,0 z"
     id="path10"
     inkscape:connector-curvature="0"
     style="fill:#d5ab88" />
  <path
     d="M 9,5 C 9,5 8.997,10.308 4,10.936 L 4,17 c 0,4.971 4.029,9 9,9 4.971,0 9,-4.029 9,-9 l 0,-5.019 C 10.89,11.605 9,5 9,5 Z"
     id="path12"
     inkscape:connector-curvature="0"
     style="fill:#d5ab88" />
  <path
     d="m 17,22 -8,0 c 0,0 1,2 4,2 3,0 4,-2 4,-2 z"
     id="path14"
     inkscape:connector-curvature="0"
     style="fill:#df1f32" />
  <path
     d="m 29,36 -7,0 1,-17 6,0 z"
     id="path16"
     inkscape:connector-curvature="0"
     style="fill:#9268ca" />
  <path
     d="M 31.541,15.443 C 31.397,14.75 30.719,14.304 30.024,14.446 L 27.35,15 25,15 c -1.104,0 -2,0.896 -2,2 l 0,2 5,0 c 1.079,0 1.953,-0.857 1.992,-1.927 L 30.347,17 31,17 c 0,-0.074 -0.028,-0.144 -0.045,-0.216 0.444,-0.276 0.698,-0.799 0.586,-1.341 z"
     id="path18"
     inkscape:connector-curvature="0"
     style="fill:#cc9b7a" />
  <path
     d="m 36,16 c 0,-0.552 -0.447,-1 -1,-1 l -6,1 -5,0 c -0.553,0 -1,0.448 -1,1 l 0,2 6,0 6,-2 c 0,0 1,-0.447 1,-1 z"
     id="path20"
     inkscape:connector-curvature="0"
     style="fill:#d5ab88" />
  <path
     d="m 14,19.5 -2,0 c -0.276,0 -0.5,-0.224 -0.5,-0.5 0,-0.276 0.224,-0.5 0.5,-0.5 l 2,0 c 0.276,0 0.5,0.224 0.5,0.5 0,0.276 -0.224,0.5 -0.5,0.5 z"
     id="path22"
     inkscape:connector-curvature="0"
     style="fill:#c1694f" />
  <path
     d="M 9,16 C 8.448,16 8,15.552 8,15 l 0,-1 c 0,-0.552 0.448,-1 1,-1 0.552,0 1,0.448 1,1 l 0,1 c 0,0.552 -0.448,1 -1,1 z m 8,0 c -0.552,0 -1,-0.448 -1,-1 l 0,-1 c 0,-0.552 0.448,-1 1,-1 0.552,0 1,0.448 1,1 l 0,1 c 0,0.552 -0.448,1 -1,1 z"
     id="path24"
     inkscape:connector-curvature="0"
     style="fill:#662113" />
</svg>
