<?xml version="1.0" encoding="UTF-8" standalone="no"?>
<svg
   xmlns:dc="http://purl.org/dc/elements/1.1/"
   xmlns:cc="http://creativecommons.org/ns#"
   xmlns:rdf="http://www.w3.org/1999/02/22-rdf-syntax-ns#"
   xmlns:svg="http://www.w3.org/2000/svg"
   xmlns="http://www.w3.org/2000/svg"
   xmlns:sodipodi="http://sodipodi.sourceforge.net/DTD/sodipodi-0.dtd"
   xmlns:inkscape="http://www.inkscape.org/namespaces/inkscape"
   viewBox="0 0 34.824978 27.880606"
   id="svg2"
   version="1.1"
   inkscape:version="0.91 r13725"
   sodipodi:docname="1f48b.svg"
   width="34.824978"
   height="27.880606">
  <metadata
     id="metadata10">
    <rdf:RDF>
      <cc:Work
         rdf:about="">
        <dc:format>image/svg+xml</dc:format>
        <dc:type
           rdf:resource="http://purl.org/dc/dcmitype/StillImage" />
      </cc:Work>
    </rdf:RDF>
  </metadata>
  <defs
     id="defs8" />
  <sodipodi:namedview
     pagecolor="#ffffff"
     bordercolor="#666666"
     borderopacity="1"
     objecttolerance="10"
     gridtolerance="10"
     guidetolerance="10"
     inkscape:pageopacity="0"
     inkscape:pageshadow="2"
     inkscape:window-width="640"
     inkscape:window-height="480"
     id="namedview6"
     showgrid="false"
     inkscape:zoom="6.5555556"
     inkscape:cx="17.692261"
     inkscape:cy="14.665543"
     inkscape:window-x="0"
     inkscape:window-y="0"
     inkscape:window-maximized="0"
     inkscape:current-layer="svg2" />
  <path
     d="m 31.893261,3.0060635 c -2.223,-0.36 -7.568,-3.96299995 -11.411,-2.76199995 -3.843,1.20099995 -3.542,2.16199995 -5.464,2.76299995 -1.922,0.601 -2.222,-0.36 -6.065,0.841 -3.842,1.201 -6.184,7.2060005 -7.805,8.7680005 0,0 -1.60299999,1.621 -1.02099999,3.483 0.583,1.861 2.52299999,1.32 2.52299999,1.32 6.726,-2.102 9.007,-4.925 9.007,-4.925 0,0 3.482,1.021 6.364,0.12 2.882,-0.901 5.164,-3.7240005 5.164,-3.7240005 0,0 3.484,1.021 10.209,-1.081 0,0 1.902,-0.661 1.32,-2.522 -0.583,-1.862 -2.821,-2.281 -2.821,-2.281 z m -1.082,6.666 c -5.764,1.8010005 -4.562,5.6440005 -11.288,7.7470005 -6.726,2.102 -7.927,-1.74 -13.691,0.061 -1.921,0.601 -2.582,1.861 -2.281,2.824 0.9,2.881 8.407,10.025 18.976,6.723 10.568,-3.303 12.67,-13.452 11.769,-16.333 -0.301,-0.9630005 -1.564,-1.6230005 -3.485,-1.0220005 z"
     id="path4"
     inkscape:connector-curvature="0"
     style="fill:#dd2e44" />
</svg>
