<?xml version="1.0" encoding="UTF-8" standalone="no"?>
<svg
   xmlns:dc="http://purl.org/dc/elements/1.1/"
   xmlns:cc="http://creativecommons.org/ns#"
   xmlns:rdf="http://www.w3.org/1999/02/22-rdf-syntax-ns#"
   xmlns:svg="http://www.w3.org/2000/svg"
   xmlns="http://www.w3.org/2000/svg"
   xmlns:sodipodi="http://sodipodi.sourceforge.net/DTD/sodipodi-0.dtd"
   xmlns:inkscape="http://www.inkscape.org/namespaces/inkscape"
   viewBox="0 0 35.77 32.069"
   id="svg2"
   version="1.1"
   inkscape:version="0.91 r13725"
   sodipodi:docname="1f497.svg"
   width="35.77"
   height="32.069">
  <metadata
     id="metadata14">
    <rdf:RDF>
      <cc:Work
         rdf:about="">
        <dc:format>image/svg+xml</dc:format>
        <dc:type
           rdf:resource="http://purl.org/dc/dcmitype/StillImage" />
      </cc:Work>
    </rdf:RDF>
  </metadata>
  <defs
     id="defs12" />
  <sodipodi:namedview
     pagecolor="#ffffff"
     bordercolor="#666666"
     borderopacity="1"
     objecttolerance="10"
     gridtolerance="10"
     guidetolerance="10"
     inkscape:pageopacity="0"
     inkscape:pageshadow="2"
     inkscape:window-width="640"
     inkscape:window-height="480"
     id="namedview10"
     showgrid="false"
     inkscape:zoom="6.5555556"
     inkscape:cx="17.885"
     inkscape:cy="16.034"
     inkscape:window-x="0"
     inkscape:window-y="0"
     inkscape:window-maximized="0"
     inkscape:current-layer="svg2" />
  <path
     d="M 35.77,9.868 C 35.77,4.418 31.352,0 25.903,0 22.595,0 19.676,1.633 17.885,4.129 16.094,1.633 13.175,0 9.868,0 4.418,0 0,4.417 0,9.868 c 0,0.772 0.098,1.52 0.266,2.241 1.37,8.513 10.835,17.494 17.619,19.96 6.783,-2.466 16.249,-11.447 17.617,-19.959 0.17,-0.721 0.268,-1.469 0.268,-2.242 z"
     id="path4"
     inkscape:connector-curvature="0"
     style="fill:#f4abba" />
  <path
     d="m 31.308,11.407 c 0,-4.091 -3.315,-7.406 -7.405,-7.406 -2.482,0 -4.673,1.225 -6.018,3.099 -1.344,-1.874 -3.535,-3.099 -6.017,-3.099 -4.09,0 -7.406,3.315 -7.406,7.406 0,0.579 0.074,1.141 0.199,1.681 1.029,6.389 8.132,13.131 13.224,14.981 5.091,-1.851 12.195,-8.592 13.223,-14.98 0.127,-0.541 0.2,-1.103 0.2,-1.682 z"
     id="path6"
     inkscape:connector-curvature="0"
     style="fill:#ea596e" />
  <path
     d="m 27.076,12.866 c 0,-2.801 -2.27,-5.072 -5.07,-5.072 -1.7,0 -3.2,0.839 -4.121,2.123 -0.92,-1.284 -2.421,-2.123 -4.121,-2.123 -2.801,0 -5.072,2.271 -5.072,5.072 0,0.397 0.05,0.781 0.136,1.151 0.705,4.376 5.569,8.992 9.056,10.259 3.485,-1.268 8.352,-5.884 9.055,-10.259 0.088,-0.37 0.137,-0.755 0.137,-1.151 z"
     id="path8"
     inkscape:connector-curvature="0"
     style="fill:#dd2e44" />
</svg>
