<?xml version="1.0" encoding="UTF-8" standalone="no"?>
<svg
   xmlns:dc="http://purl.org/dc/elements/1.1/"
   xmlns:cc="http://creativecommons.org/ns#"
   xmlns:rdf="http://www.w3.org/1999/02/22-rdf-syntax-ns#"
   xmlns:svg="http://www.w3.org/2000/svg"
   xmlns="http://www.w3.org/2000/svg"
   xmlns:sodipodi="http://sodipodi.sourceforge.net/DTD/sodipodi-0.dtd"
   xmlns:inkscape="http://www.inkscape.org/namespaces/inkscape"
   viewBox="0 0 36 34.035"
   id="svg2"
   version="1.1"
   inkscape:version="0.91 r13725"
   sodipodi:docname="1f49d.svg"
   width="36"
   height="34.035">
  <metadata
     id="metadata18">
    <rdf:RDF>
      <cc:Work
         rdf:about="">
        <dc:format>image/svg+xml</dc:format>
        <dc:type
           rdf:resource="http://purl.org/dc/dcmitype/StillImage" />
      </cc:Work>
    </rdf:RDF>
  </metadata>
  <defs
     id="defs16" />
  <sodipodi:namedview
     pagecolor="#ffffff"
     bordercolor="#666666"
     borderopacity="1"
     objecttolerance="10"
     gridtolerance="10"
     guidetolerance="10"
     inkscape:pageopacity="0"
     inkscape:pageshadow="2"
     inkscape:window-width="640"
     inkscape:window-height="480"
     id="namedview14"
     showgrid="false"
     inkscape:zoom="6.5555556"
     inkscape:cx="18"
     inkscape:cy="18"
     inkscape:window-x="0"
     inkscape:window-y="0"
     inkscape:window-maximized="0"
     inkscape:current-layer="svg2" />
  <path
     d="M 35.885,9.868 C 35.885,4.418 31.467,0 26.018,0 22.71,0 19.791,1.633 18,4.129 16.209,1.633 13.29,0 9.983,0 4.533,0 0.115,4.417 0.115,9.868 c 0,0.772 0.098,1.52 0.266,2.241 1.37,8.513 10.835,17.494 17.619,19.96 6.783,-2.466 16.249,-11.447 17.617,-19.959 0.17,-0.721 0.268,-1.469 0.268,-2.242 z"
     id="path4"
     inkscape:connector-curvature="0"
     style="fill:#dd2e44" />
  <path
     d="m 36,13.035 c -1,5 -4,8 -4,8 l -28,0 c 0,0 -3,-3 -4,-8 l 36,0 z"
     id="path6"
     inkscape:connector-curvature="0"
     style="fill:#fdd888" />
  <path
     d="m 14,16.035 0,18 -5,-5 -5,5 0,-18 z"
     id="path8"
     inkscape:connector-curvature="0"
     style="fill:#fdd888" />
  <path
     d="M 16.802,7.229 8.923,12.744 1.045,7.229 C 0.47,6.827 0,7.071 0,7.773 l 0,14.658 c 0,0.703 0.48,0.965 1.069,0.582 l 7.854,-5.106 7.854,5.106 c 0.588,0.383 1.069,0.121 1.069,-0.582 l 0,-14.658 C 17.847,7.071 17.376,6.827 16.802,7.229 Z"
     id="path10"
     inkscape:connector-curvature="0"
     style="fill:#fdcb58" />
  <circle
     cx="9"
     cy="15.035"
     r="4"
     id="circle12"
     style="fill:#fdd888" />
</svg>
