<?xml version="1.0" encoding="UTF-8" standalone="no"?>
<svg
   xmlns:dc="http://purl.org/dc/elements/1.1/"
   xmlns:cc="http://creativecommons.org/ns#"
   xmlns:rdf="http://www.w3.org/1999/02/22-rdf-syntax-ns#"
   xmlns:svg="http://www.w3.org/2000/svg"
   xmlns="http://www.w3.org/2000/svg"
   xmlns:sodipodi="http://sodipodi.sourceforge.net/DTD/sodipodi-0.dtd"
   xmlns:inkscape="http://www.inkscape.org/namespaces/inkscape"
   viewBox="0 0 35.690002 35.648289"
   id="svg2"
   version="1.1"
   inkscape:version="0.91 r13725"
   sodipodi:docname="1f498.svg"
   width="35.690002"
   height="35.648289">
  <metadata
     id="metadata20">
    <rdf:RDF>
      <cc:Work
         rdf:about="">
        <dc:format>image/svg+xml</dc:format>
        <dc:type
           rdf:resource="http://purl.org/dc/dcmitype/StillImage" />
      </cc:Work>
    </rdf:RDF>
  </metadata>
  <defs
     id="defs18" />
  <sodipodi:namedview
     pagecolor="#ffffff"
     bordercolor="#666666"
     borderopacity="1"
     objecttolerance="10"
     gridtolerance="10"
     guidetolerance="10"
     inkscape:pageopacity="0"
     inkscape:pageshadow="2"
     inkscape:window-width="640"
     inkscape:window-height="480"
     id="namedview16"
     showgrid="false"
     inkscape:zoom="6.5555556"
     inkscape:cx="17.839"
     inkscape:cy="17.771"
     inkscape:window-x="0"
     inkscape:window-y="0"
     inkscape:window-maximized="0"
     inkscape:current-layer="svg2" />
  <path
     d="M 15.969,17.32129 1.968,3.3222903 c -0.391,-0.39 1.023,-1.804 1.414,-1.415 L 17.383,15.90729 c 0.391,0.391 -1.219,1.61 -1.414,1.414 z"
     id="path4"
     inkscape:connector-curvature="0"
     style="fill:#ffac33" />
  <path
     d="m 34.036,14.36529 c 0,-4.8409997 -3.924,-8.7639997 -8.764,-8.7639997 -2.938,0 -5.53,1.45 -7.121,3.667 -1.59,-2.217 -4.184,-3.667 -7.121,-3.667 -4.84,0 -8.764,3.923 -8.764,8.7639997 0,0.686 0.087,1.351 0.236,1.99 1.217,7.562 9.624,15.538 15.649,17.729 6.024,-2.19 14.432,-10.167 15.647,-17.728 0.151,-0.64 0.238,-1.305 0.238,-1.991 z"
     id="path6"
     inkscape:connector-curvature="0"
     style="fill:#dd2e44" />
  <path
     d="m 34.487,25.64129 c 0,0 -4.509,-4.45 -6.41,-4.45 l -5.657,-0.009 -1.195,1.195 0.009,5.657 c 0,1.901 4.45,6.41 4.45,6.41 0.858,0.787 1.925,1.204 2.695,1.204 0.634,0 1.14,-0.276 1.505,-0.775 0.31,-0.427 0.426,-0.992 0.426,-1.682 0,-1.254 -0.556,-2.864 -1.39,-4.313 1.449,0.833 3.059,1.39 4.313,1.39 0.689,0 1.255,-0.116 1.682,-0.426 0.499,-0.365 0.775,-0.871 0.775,-1.505 0.001,-0.771 -0.416,-1.837 -1.203,-2.696 z"
     id="path8"
     inkscape:connector-curvature="0"
     style="fill:#ffcc4d" />
  <path
     d="m 31.408,32.41929 c -0.256,0 -0.487,-0.122 -0.683,-0.317 l -13.389,-13.398 c -0.391,-0.391 1.023,-1.805 1.414,-1.415 l 13.39,13.399 c 0.391,0.391 0.378,1.036 -0.013,1.427 -0.194,0.194 -0.462,0.304 -0.719,0.304 z"
     id="path10"
     inkscape:connector-curvature="0"
     style="fill:#ffac33" />
  <path
     d="M 0,1.0002903 C 0,0.74129034 0.101,0.48929034 0.286,0.29929034 c 0.248,-0.252 0.611,-0.355 0.955,-0.27 L 7.782,1.6542903 c 0.452,0.113 0.73,0.521 0.759,0.989 -0.009,0.465 -0.337,0.864 -0.793,0.961 -0.144,0.031 -3.636,0.833 -4.005,4.051 -0.055,0.477 -0.44,0.848 -0.92,0.883 -0.478,0.036 -0.915,-0.274 -1.039,-0.738 l -1.75,-6.542 C 0.011,1.1732903 0,1.0872903 0,1.0002903 Z"
     id="path12"
     inkscape:connector-curvature="0"
     style="fill:#ffcc4d" />
  <path
     d="m 22.023,15.89229 c -0.031,0.487 -0.415,0.89 -0.916,0.931 -3.268,0.269 -3.75,2.12 -4.217,3.91 l -0.108,0.411 c -0.147,0.533 -0.697,0.846 -1.229,0.7 -0.532,-0.147 -0.843,-0.694 -0.7,-1.229 l 0.103,-0.386 c 0.489,-1.875 1.306,-5.013 5.988,-5.399 0.551,-0.045 1.034,0.364 1.079,0.914 0.003,0.051 0.003,0.1 0,0.148 z"
     id="path14"
     inkscape:connector-curvature="0"
     style="fill:#a0041e" />
</svg>
