<?xml version="1.0" encoding="UTF-8" standalone="no"?>
<svg
   xmlns:dc="http://purl.org/dc/elements/1.1/"
   xmlns:cc="http://creativecommons.org/ns#"
   xmlns:rdf="http://www.w3.org/1999/02/22-rdf-syntax-ns#"
   xmlns:svg="http://www.w3.org/2000/svg"
   xmlns="http://www.w3.org/2000/svg"
   xmlns:sodipodi="http://sodipodi.sourceforge.net/DTD/sodipodi-0.dtd"
   xmlns:inkscape="http://www.inkscape.org/namespaces/inkscape"
   viewBox="0 0 34.347 34.616001"
   id="svg2"
   version="1.1"
   inkscape:version="0.91 r13725"
   sodipodi:docname="1f4ae.svg"
   width="34.347"
   height="34.616001">
  <metadata
     id="metadata14">
    <rdf:RDF>
      <cc:Work
         rdf:about="">
        <dc:format>image/svg+xml</dc:format>
        <dc:type
           rdf:resource="http://purl.org/dc/dcmitype/StillImage" />
      </cc:Work>
    </rdf:RDF>
  </metadata>
  <defs
     id="defs12" />
  <sodipodi:namedview
     pagecolor="#ffffff"
     bordercolor="#666666"
     borderopacity="1"
     objecttolerance="10"
     gridtolerance="10"
     guidetolerance="10"
     inkscape:pageopacity="0"
     inkscape:pageshadow="2"
     inkscape:window-width="640"
     inkscape:window-height="480"
     id="namedview10"
     showgrid="false"
     inkscape:zoom="6.5555556"
     inkscape:cx="17.173"
     inkscape:cy="17.308"
     inkscape:window-x="0"
     inkscape:window-y="0"
     inkscape:window-maximized="0"
     inkscape:current-layer="svg2" />
  <path
     d="M 14.805,33.969 C 14.006,33.372 13.307,32.485 12.77,31.377 l -0.228,-0.47 -0.46,0.249 c -0.975,0.528 -1.913,0.858 -2.744,0.969 L 9.136,28.369 5.5,29.337 C 5.343,28.483 5.375,27.45 5.596,26.315 L 5.699,25.79 5.167,25.724 C 3.925,25.57 2.861,25.199 2.063,24.644 L 3.584,21.727 0.596,20.204 C 0.915,19.26 1.544,18.322 2.43,17.469 L 2.807,17.106 2.428,16.746 C 1.625,15.982 1.02,15.192 0.658,14.435 L 4.168,13.082 2.123,9.923 C 2.863,9.521 3.816,9.237 4.912,9.091 L 5.431,9.023 5.34,8.509 C 5.125,7.298 5.168,6.171 5.464,5.221 L 8.772,5.744 9.296,2.436 c 0.988,0.013 2.08,0.326 3.164,0.907 l 0.462,0.248 0.226,-0.473 c 0.479,-1.003 1.044,-1.824 1.653,-2.404 l 2.372,2.92 2.372,-2.92 c 0.609,0.58 1.175,1.401 1.653,2.404 l 0.226,0.473 0.462,-0.247 C 22.971,2.763 24.064,2.45 25.05,2.438 l 0.523,3.308 3.31,-0.525 c 0.296,0.951 0.34,2.078 0.124,3.288 l -0.092,0.515 0.518,0.069 c 1.095,0.145 2.048,0.43 2.788,0.832 l -2.046,3.156 3.511,1.355 c -0.361,0.757 -0.966,1.547 -1.77,2.311 l -0.379,0.36 0.377,0.363 c 0.888,0.854 1.516,1.793 1.835,2.736 l -2.984,1.52 1.521,2.984 c -0.812,0.574 -1.871,0.964 -3.094,1.134 l -0.518,0.072 0.096,0.514 c 0.201,1.089 0.226,2.083 0.073,2.909 l -3.634,-0.97 -0.204,3.757 c -0.83,-0.11 -1.768,-0.44 -2.742,-0.968 l -0.459,-0.249 -0.228,0.47 c -0.539,1.107 -1.237,1.994 -2.036,2.591 l -2.367,-2.369 -2.368,2.368 z"
     id="path4"
     inkscape:connector-curvature="0"
     style="fill:#ffffff" />
  <path
     d="M 6.265,9.986 C 5.735,8.497 5.567,7.016 5.833,5.786 L 8.201,6.161 9.188,6.317 9.345,5.329 9.72,2.961 c 1.261,0.127 2.613,0.743 3.862,1.706 C 13.7,4.33 13.826,4.004 13.964,3.7 12.413,2.565 10.741,1.937 9.234,1.937 9.111,1.937 8.989,1.941 8.868,1.95 L 8.357,5.173 5.133,4.662 C 4.533,6.149 4.568,8.077 5.218,10.055 5.553,10.018 5.902,9.994 6.265,9.986 Z M 20.766,4.667 c 1.248,-0.962 2.6,-1.578 3.86,-1.705 l 0.376,2.368 0.156,0.988 0.987,-0.157 2.369,-0.376 c 0.266,1.23 0.098,2.71 -0.432,4.2 0.361,0.009 0.711,0.032 1.046,0.07 0.651,-1.978 0.685,-3.906 0.085,-5.394 L 25.988,5.173 25.477,1.949 c -0.12,-0.008 -0.242,-0.012 -0.365,-0.012 -1.507,0 -3.179,0.628 -4.73,1.762 0.14,0.306 0.266,0.631 0.384,0.968 z m -14.225,21.641 0.035,0 c 0.067,0 0.157,-0.604 0.26,-0.947 -0.098,0.004 -0.197,0.046 -0.294,0.046 -1.496,0 -2.826,-0.303 -3.83,-0.89 L 3.801,22.389 4.255,21.502 3.364,21.05 1.228,19.962 C 1.736,18.811 2.743,17.712 4.046,16.819 3.759,16.6 3.485,16.378 3.236,16.15 1.549,17.367 0.39,18.905 0.001,20.46 l 2.908,1.483 -1.482,2.843 c 1.221,1.023 3.049,1.522 5.114,1.522 z m 27.806,-5.846 c -0.39,-1.555 -1.548,-3.093 -3.234,-4.311 -0.25,0.228 -0.523,0.451 -0.81,0.669 1.304,0.893 2.31,1.992 2.817,3.145 l -2.136,1.088 -0.891,0.453 0.454,0.892 1.089,2.137 c -1.004,0.587 -2.332,0.904 -3.828,0.904 -0.099,0 -0.199,-0.01 -0.299,-0.013 0.103,0.344 0.192,0.683 0.26,1.011 l 0.039,0.002 c 2.066,0 3.892,-0.563 5.112,-1.587 l -1.482,-2.908 2.909,-1.482 z m -12.653,9.182 c -0.447,1.517 -1.181,2.812 -2.119,3.651 l -1.695,-1.694 -0.707,-0.707 -0.707,0.707 -1.695,1.694 c -0.938,-0.839 -1.673,-2.136 -2.12,-3.652 -0.296,0.206 -0.593,0.397 -0.886,0.563 0.636,1.98 1.741,3.559 3.1,4.409 l 2.308,-2.307 2.308,2.308 c 1.358,-0.851 2.464,-2.428 3.101,-4.408 -0.295,-0.168 -0.591,-0.359 -0.888,-0.564 z"
     id="path6"
     inkscape:connector-curvature="0"
     style="fill:#ea596e" />
  <path
     d="m 19.291,4.991 c 0.426,1.146 0.748,2.596 0.841,4.284 l 0.2,3.683 3.564,-0.946 c 1.32,-0.351 2.655,-0.536 3.86,-0.536 0.16,0 0.318,0.003 0.474,0.01 l -1.827,2.819 3.139,1.211 c -0.958,0.759 -2.237,1.514 -3.814,2.123 l -3.441,1.328 2.001,3.099 c 0.918,1.42 1.509,2.782 1.838,3.96 L 22.882,25.161 22.7,28.518 c -1.019,-0.677 -2.132,-1.66 -3.198,-2.973 l -2.329,-2.863 -2.328,2.862 c -1.066,1.312 -2.179,2.295 -3.198,2.972 l -0.18,-3.354 -3.248,0.864 c 0.329,-1.178 0.921,-2.54 1.839,-3.961 L 12.062,18.966 8.62,17.638 C 7.043,17.029 5.764,16.275 4.806,15.516 L 7.941,14.308 6.114,11.485 c 0.155,-0.006 0.313,-0.01 0.473,-0.01 1.206,0 2.541,0.185 3.861,0.536 l 3.564,0.947 0.202,-3.683 c 0.092,-1.688 0.415,-3.138 0.84,-4.284 L 17.173,7.6 19.291,4.991 M 19.481,0 17.173,2.841 14.865,0 C 12.876,1.532 11.444,4.992 11.219,9.112 9.602,8.682 8.027,8.475 6.587,8.475 4.477,8.475 2.658,8.92 1.426,9.764 L 3.415,12.837 0,14.153 c 0.842,2.366 3.69,4.797 7.54,6.283 -2.241,3.465 -3.116,7.106 -2.407,9.516 l 3.537,-0.941 0.196,3.654 c 2.512,-0.07 5.703,-2.027 8.307,-5.228 2.603,3.201 5.796,5.158 8.306,5.228 l 0.198,-3.655 3.535,0.943 c 0.71,-2.411 -0.165,-6.05 -2.404,-9.517 3.849,-1.485 6.696,-3.918 7.538,-6.283 l -3.415,-1.318 1.99,-3.07 c -1.233,-0.844 -3.053,-1.29 -5.164,-1.29 -1.438,0 -3.013,0.207 -4.63,0.636 C 22.902,4.992 21.47,1.532 19.481,0 Z"
     id="path8"
     inkscape:connector-curvature="0"
     style="fill:#ea596e" />
</svg>
