<?xml version="1.0" encoding="UTF-8" standalone="no"?>
<svg
   xmlns:dc="http://purl.org/dc/elements/1.1/"
   xmlns:cc="http://creativecommons.org/ns#"
   xmlns:rdf="http://www.w3.org/1999/02/22-rdf-syntax-ns#"
   xmlns:svg="http://www.w3.org/2000/svg"
   xmlns="http://www.w3.org/2000/svg"
   xmlns:sodipodi="http://sodipodi.sourceforge.net/DTD/sodipodi-0.dtd"
   xmlns:inkscape="http://www.inkscape.org/namespaces/inkscape"
   viewBox="0 0 32.999691 34.000977"
   id="svg2"
   version="1.1"
   inkscape:version="0.91 r13725"
   sodipodi:docname="1f4ab.svg"
   width="32.999691"
   height="34.000977">
  <metadata
     id="metadata12">
    <rdf:RDF>
      <cc:Work
         rdf:about="">
        <dc:format>image/svg+xml</dc:format>
        <dc:type
           rdf:resource="http://purl.org/dc/dcmitype/StillImage" />
      </cc:Work>
    </rdf:RDF>
  </metadata>
  <defs
     id="defs10" />
  <sodipodi:namedview
     pagecolor="#ffffff"
     bordercolor="#666666"
     borderopacity="1"
     objecttolerance="10"
     gridtolerance="10"
     guidetolerance="10"
     inkscape:pageopacity="0"
     inkscape:pageshadow="2"
     inkscape:window-width="640"
     inkscape:window-height="480"
     id="namedview8"
     showgrid="false"
     inkscape:zoom="6.5555556"
     inkscape:cx="14.999896"
     inkscape:cy="16.000879"
     inkscape:window-x="0"
     inkscape:window-y="0"
     inkscape:window-maximized="0"
     inkscape:current-layer="svg2" />
  <path
     d="m 25.864896,7.1340967 c 7.361,7.3590003 9.35,17.3040003 4.443,22.2090003 -4.907,4.907 -14.85,2.918 -22.2100005,-4.441 -0.25,-0.25 -0.478,-0.51 -0.716,-0.766 l 4.4170005,-4.417 c 5.724,5.724 13.016,7.714 16.286,4.442 3.271,-3.271 1.282,-10.563 -4.441,-16.2870003 l 0.022,0.021 -0.021,-0.022 c -6.541,-6.542 -15.4910005,-8.199 -19.9880005,-3.702 -2.175,2.175 -2.897,5.393 -2.338,8.8730003 -0.858,-4.0830003 -0.15,-7.8660003 2.338,-10.3530003 4.906,-4.906 14.8490005,-2.917 22.2080005,4.443 z"
     id="path4"
     inkscape:connector-curvature="0"
     style="fill:#fdd888" />
  <path
     d="m 16.402896,34.000097 c -0.252,0 -0.503,-0.077 -0.719,-0.231 l -5.076,-3.641 -5.0760005,3.641 c -0.433,0.31 -1.013,0.31 -1.443,-0.005 -0.43,-0.312 -0.611,-0.864 -0.45,-1.369 l 1.894,-6.11 -5.031,-3.545 c -0.428,-0.315 -0.605,-0.869 -0.442,-1.375 0.165,-0.504 0.634,-0.847 1.165,-0.851 l 6.147,-0.012 2.067,-5.957 c 0.168,-0.504 0.6390005,-0.844 1.1700005,-0.844 0.531,0 1.002,0.34 1.17,0.844 l 1.866,5.957 6.347,0.012 c 0.532,0.004 1.002,0.347 1.165,0.851 0.164,0.506 -0.014,1.06 -0.442,1.375 l -5.031,3.545 1.893,6.11 c 0.162,0.505 -0.021,1.058 -0.449,1.369 -0.217,0.158 -0.471,0.236 -0.725,0.236 z"
     id="path6"
     inkscape:connector-curvature="0"
     style="fill:#ffac33" />
</svg>
