<?xml version="1.0" encoding="UTF-8" standalone="no"?>
<svg
   xmlns:dc="http://purl.org/dc/elements/1.1/"
   xmlns:cc="http://creativecommons.org/ns#"
   xmlns:rdf="http://www.w3.org/1999/02/22-rdf-syntax-ns#"
   xmlns:svg="http://www.w3.org/2000/svg"
   xmlns="http://www.w3.org/2000/svg"
   xmlns:sodipodi="http://sodipodi.sourceforge.net/DTD/sodipodi-0.dtd"
   xmlns:inkscape="http://www.inkscape.org/namespaces/inkscape"
   viewBox="0 0 36 36"
   id="svg2"
   version="1.1"
   inkscape:version="0.91 r13725"
   sodipodi:docname="1f4a8.svg"
   width="36"
   height="36">
  <metadata
     id="metadata10">
    <rdf:RDF>
      <cc:Work
         rdf:about="">
        <dc:format>image/svg+xml</dc:format>
        <dc:type
           rdf:resource="http://purl.org/dc/dcmitype/StillImage" />
      </cc:Work>
    </rdf:RDF>
  </metadata>
  <defs
     id="defs8" />
  <sodipodi:namedview
     pagecolor="#ffffff"
     bordercolor="#666666"
     borderopacity="1"
     objecttolerance="10"
     gridtolerance="10"
     guidetolerance="10"
     inkscape:pageopacity="0"
     inkscape:pageshadow="2"
     inkscape:window-width="640"
     inkscape:window-height="480"
     id="namedview6"
     showgrid="false"
     inkscape:zoom="6.5555556"
     inkscape:cx="18"
     inkscape:cy="18"
     inkscape:window-x="0"
     inkscape:window-y="0"
     inkscape:window-maximized="0"
     inkscape:current-layer="svg2" />
  <path
     d="M 36,15 C 36,10.845 32.831,7.432 28.779,7.04 27.884,3.013 24.297,0 20,0 c -4.971,0 -9,3.56 -9,8.531 0,1.156 0.25,2.906 1.121,3.785 C 8.859,12.5 4.094,12.6 0,12.015 c 0,0 4.816,3.831 15.357,3.985 -0.151,0.313 -0.254,1.43 -0.306,1.786 C 14.802,17.789 14.456,17.795 14,17.795 6,17.795 0,17 0,17 0,17 3,20.234 15.406,21.106 15,21.234 15,23 15,23 7,23 0,22 0,22 3.362,24.802 6.724,26.033 9.03,26.574 9.019,26.716 9,26.855 9,27 c 0,3.313 2.686,5 6,5 0.487,0 0.958,-0.064 1.412,-0.174 C 18.009,34.333 20.807,36 24,36 c 4.971,0 9,-4.029 9,-9 0,-1.788 -0.527,-3.449 -1.427,-4.851 C 34.195,20.837 36,18.132 36,15 Z"
     id="path4"
     inkscape:connector-curvature="0"
     style="fill:#bdddf4" />
</svg>
