<?xml version="1.0" encoding="UTF-8" standalone="no"?>
<svg
   xmlns:dc="http://purl.org/dc/elements/1.1/"
   xmlns:cc="http://creativecommons.org/ns#"
   xmlns:rdf="http://www.w3.org/1999/02/22-rdf-syntax-ns#"
   xmlns:svg="http://www.w3.org/2000/svg"
   xmlns="http://www.w3.org/2000/svg"
   xmlns:sodipodi="http://sodipodi.sourceforge.net/DTD/sodipodi-0.dtd"
   xmlns:inkscape="http://www.inkscape.org/namespaces/inkscape"
   viewBox="0 0 34.928249 34.92725"
   id="svg2"
   version="1.1"
   inkscape:version="0.91 r13725"
   sodipodi:docname="1f4a0.svg"
   width="34.928249"
   height="34.92725">
  <metadata
     id="metadata14">
    <rdf:RDF>
      <cc:Work
         rdf:about="">
        <dc:format>image/svg+xml</dc:format>
        <dc:type
           rdf:resource="http://purl.org/dc/dcmitype/StillImage" />
      </cc:Work>
    </rdf:RDF>
  </metadata>
  <defs
     id="defs12" />
  <sodipodi:namedview
     pagecolor="#ffffff"
     bordercolor="#666666"
     borderopacity="1"
     objecttolerance="10"
     gridtolerance="10"
     guidetolerance="10"
     inkscape:pageopacity="0"
     inkscape:pageshadow="2"
     inkscape:window-width="640"
     inkscape:window-height="480"
     id="namedview10"
     showgrid="false"
     inkscape:zoom="6.5555556"
     inkscape:cx="17.4635"
     inkscape:cy="17.46375"
     inkscape:window-x="0"
     inkscape:window-y="0"
     inkscape:window-maximized="0"
     inkscape:current-layer="svg2" />
  <path
     d="m 16.3305,15.1975 c 0.625,0.626 1.64,0.626 2.266,0 l 6.232,-6.231 c 0.625,-0.626 0.625,-1.64 0,-2.266 l -6.232,-6.231 c -0.625,-0.626 -1.64,-0.626 -2.266,0 l -6.232,6.231 c -0.626,0.626 -0.626,1.64 0,2.266 l 6.232,6.231 z m 9.631,9.63 c 0.625,0.626 1.64,0.626 2.266,0 l 6.232,-6.231 c 0.625,-0.626 0.625,-1.64 0,-2.266 l -6.232,-6.231 c -0.625,-0.626 -1.64,-0.626 -2.266,0 l -6.232,6.231 c -0.626,0.626 -0.626,1.64 0,2.266 l 6.232,6.231 z m -1.134,1.134 -6.231,-6.232 c -0.626,-0.626 -1.64,-0.626 -2.266,0 l -6.231,6.232 c -0.626,0.626 -0.626,1.639 0,2.265 l 6.231,6.232 c 0.626,0.625 1.64,0.625 2.266,0 l 6.231,-6.232 c 0.626,-0.626 0.626,-1.639 0,-2.265 z m -9.63,-9.63 -6.231,-6.232 c -0.626,-0.626 -1.64,-0.626 -2.266,0 l -6.231,6.232 c -0.626,0.626 -0.626,1.639 0,2.265 l 6.231,6.232 c 0.626,0.625 1.64,0.625 2.266,0 l 6.231,-6.232 c 0.626,-0.626 0.626,-1.639 0,-2.265 z"
     id="path4"
     inkscape:connector-curvature="0"
     style="fill:#55acee" />
  <path
     d="m 15.1975,16.3315 -3.214,-3.215 c -0.949,1.195 -1.52,2.703 -1.52,4.347 0,1.644 0.571,3.153 1.52,4.347 l 3.214,-3.214 c 0.626,-0.626 0.626,-1.639 0,-2.265 z m 6.614,6.612 -3.215,-3.215 c -0.625,-0.624 -1.64,-0.624 -2.266,0 l -3.215,3.215 c 1.195,0.949 2.704,1.52 4.348,1.52 1.644,0 3.153,-0.571 4.348,-1.52 z m -2.082,-4.347 3.215,3.215 c 0.948,-1.195 1.519,-2.704 1.519,-4.348 0,-1.644 -0.571,-3.153 -1.52,-4.347 l -3.215,3.215 c -0.624,0.626 -0.624,1.639 0.001,2.265 z m -1.133,-3.399 3.215,-3.214 c -1.195,-0.949 -2.704,-1.52 -4.348,-1.52 -1.644,0 -3.153,0.571 -4.347,1.52 l 3.215,3.214 c 0.625,0.626 1.639,0.626 2.265,0 z"
     id="path6"
     inkscape:connector-curvature="0"
     style="fill:#3b88c3" />
  <circle
     cx="17.463499"
     cy="17.463499"
     r="5"
     id="circle8"
     style="fill:#bbddf5" />
</svg>
