<?xml version="1.0" encoding="UTF-8" standalone="no"?>
<svg
   xmlns:dc="http://purl.org/dc/elements/1.1/"
   xmlns:cc="http://creativecommons.org/ns#"
   xmlns:rdf="http://www.w3.org/1999/02/22-rdf-syntax-ns#"
   xmlns:svg="http://www.w3.org/2000/svg"
   xmlns="http://www.w3.org/2000/svg"
   xmlns:sodipodi="http://sodipodi.sourceforge.net/DTD/sodipodi-0.dtd"
   xmlns:inkscape="http://www.inkscape.org/namespaces/inkscape"
   viewBox="0 0 36 24.062"
   id="svg2"
   version="1.1"
   inkscape:version="0.91 r13725"
   sodipodi:docname="1f4b6.svg"
   width="36"
   height="24.062">
  <metadata
     id="metadata14">
    <rdf:RDF>
      <cc:Work
         rdf:about="">
        <dc:format>image/svg+xml</dc:format>
        <dc:type
           rdf:resource="http://purl.org/dc/dcmitype/StillImage" />
      </cc:Work>
    </rdf:RDF>
  </metadata>
  <defs
     id="defs12" />
  <sodipodi:namedview
     pagecolor="#ffffff"
     bordercolor="#666666"
     borderopacity="1"
     objecttolerance="10"
     gridtolerance="10"
     guidetolerance="10"
     inkscape:pageopacity="0"
     inkscape:pageshadow="2"
     inkscape:window-width="640"
     inkscape:window-height="480"
     id="namedview10"
     showgrid="false"
     inkscape:zoom="6.5555556"
     inkscape:cx="18"
     inkscape:cy="12.062"
     inkscape:window-x="0"
     inkscape:window-y="0"
     inkscape:window-maximized="0"
     inkscape:current-layer="svg2" />
  <path
     d="M 2,0 C 0,0 0,2 0,2 l 0,20 c 0,0 0,2 2,2 l 32,0 c 2,0 2,-2 2,-2 L 36,2 C 36,2 36,0 34,0 L 2,0 Z"
     id="path4"
     inkscape:connector-curvature="0"
     style="fill:#c6e4b5" />
  <path
     d="m 13,0 10,0 0,24.062 -10,0 z"
     id="path6"
     inkscape:connector-curvature="0"
     style="fill:#9aaab4" />
  <path
     d="M 11.527,20.553 C 11.527,21.211 10.053,22 8.226,22 5.806,22 4.349,20.319 3.865,18.258 l -1.294,0 C 2.256,18.258 2,18.003 2,17.688 c 0,-0.316 0.256,-0.57 0.571,-0.57 l 1.129,0 c -0.008,-0.136 -0.029,-0.27 -0.029,-0.405 0,-0.3 0.026,-0.597 0.063,-0.89 l -1.163,0 C 2.256,15.823 2,15.567 2,15.252 2,14.937 2.256,14.683 2.571,14.683 l 1.416,0 c 0.593,-1.835 2.03,-3.257 4.313,-3.257 1.84,0 3.008,0.993 3.008,1.519 0,0.336 -0.205,0.612 -0.526,0.612 -0.584,0 -0.876,-1.022 -2.482,-1.022 -1.51,0 -2.428,0.942 -2.891,2.147 l 3.327,0 c 0.315,0 0.57,0.255 0.57,0.569 0,0.315 -0.255,0.571 -0.57,0.571 l -3.621,0 c -0.043,0.296 -0.072,0.595 -0.072,0.89 0,0.134 0.016,0.27 0.025,0.405 l 3.668,0 c 0.315,0 0.57,0.255 0.57,0.57 0,0.314 -0.255,0.569 -0.57,0.569 l -3.487,0 c 0.389,1.43 1.346,2.631 2.978,2.631 1.563,0 2.25,-0.934 2.79,-0.934 0.306,0.002 0.51,0.235 0.51,0.6 z"
     id="path8"
     inkscape:connector-curvature="0"
     style="fill:#67757f" />
</svg>
