<?xml version="1.0" encoding="UTF-8" standalone="no"?>
<svg
   xmlns:dc="http://purl.org/dc/elements/1.1/"
   xmlns:cc="http://creativecommons.org/ns#"
   xmlns:rdf="http://www.w3.org/1999/02/22-rdf-syntax-ns#"
   xmlns:svg="http://www.w3.org/2000/svg"
   xmlns="http://www.w3.org/2000/svg"
   xmlns:sodipodi="http://sodipodi.sourceforge.net/DTD/sodipodi-0.dtd"
   xmlns:inkscape="http://www.inkscape.org/namespaces/inkscape"
   viewBox="0 0 36 24.062"
   id="svg2"
   version="1.1"
   inkscape:version="0.91 r13725"
   sodipodi:docname="1f4b7.svg"
   width="36"
   height="24.062">
  <metadata
     id="metadata14">
    <rdf:RDF>
      <cc:Work
         rdf:about="">
        <dc:format>image/svg+xml</dc:format>
        <dc:type
           rdf:resource="http://purl.org/dc/dcmitype/StillImage" />
      </cc:Work>
    </rdf:RDF>
  </metadata>
  <defs
     id="defs12" />
  <sodipodi:namedview
     pagecolor="#ffffff"
     bordercolor="#666666"
     borderopacity="1"
     objecttolerance="10"
     gridtolerance="10"
     guidetolerance="10"
     inkscape:pageopacity="0"
     inkscape:pageshadow="2"
     inkscape:window-width="640"
     inkscape:window-height="480"
     id="namedview10"
     showgrid="false"
     inkscape:zoom="6.5555556"
     inkscape:cx="18"
     inkscape:cy="12.062"
     inkscape:window-x="0"
     inkscape:window-y="0"
     inkscape:window-maximized="0"
     inkscape:current-layer="svg2" />
  <path
     d="M 2,0 C 0,0 0,2 0,2 l 0,20 c 0,0 0,2 2,2 l 32,0 c 2,0 2,-2 2,-2 L 36,2 C 36,2 36,0 34,0 L 2,0 Z"
     id="path4"
     inkscape:connector-curvature="0"
     style="fill:#cbb8e9" />
  <path
     d="m 13,0 10,0 0,24.062 -10,0 z"
     id="path6"
     inkscape:connector-curvature="0"
     style="fill:#9aaab4" />
  <path
     d="m 8.02,7.009 c 0.439,0 0.755,0.228 0.755,0.72 0,0.492 -0.316,0.72 -0.755,0.72 l -1.915,0 c 0.053,0.299 0.123,0.632 0.123,1.159 0,0.826 -0.544,2.09 -1.51,2.951 l 5.919,0 c 0.44,0 0.756,0.227 0.756,0.72 0,0.492 -0.316,0.721 -0.756,0.721 L 3.611,14 C 3.12,14 2.68,13.877 2.68,13.262 c 0,-0.754 2.002,-1.58 2.002,-3.67 0,-0.316 -0.018,-0.755 -0.123,-1.142 l -1.773,0 C 2.347,8.45 2.031,8.222 2.031,7.73 2.031,7.238 2.347,7.01 2.786,7.01 l 1.353,0 C 3.718,6.255 3.279,5.429 3.279,4.499 3.279,2.654 5.088,1.39 7.072,1.39 c 2.09,0 4.022,1.722 4.022,3.109 0,0.474 -0.298,0.755 -0.737,0.755 -1.177,0 -0.562,-2.424 -3.268,-2.424 -1.142,0 -2.266,0.615 -2.266,1.774 0,0.931 0.527,1.633 0.931,2.406 l 2.266,0 z"
     id="path8"
     inkscape:connector-curvature="0"
     style="fill:#67757f" />
</svg>
