<?xml version="1.0" encoding="UTF-8" standalone="no"?>
<svg
   xmlns:dc="http://purl.org/dc/elements/1.1/"
   xmlns:cc="http://creativecommons.org/ns#"
   xmlns:rdf="http://www.w3.org/1999/02/22-rdf-syntax-ns#"
   xmlns:svg="http://www.w3.org/2000/svg"
   xmlns="http://www.w3.org/2000/svg"
   xmlns:sodipodi="http://sodipodi.sourceforge.net/DTD/sodipodi-0.dtd"
   xmlns:inkscape="http://www.inkscape.org/namespaces/inkscape"
   viewBox="0 0 36 36"
   id="svg2"
   version="1.1"
   inkscape:version="0.91 r13725"
   sodipodi:docname="1f4bc.svg"
   width="36"
   height="36">
  <metadata
     id="metadata16">
    <rdf:RDF>
      <cc:Work
         rdf:about="">
        <dc:format>image/svg+xml</dc:format>
        <dc:type
           rdf:resource="http://purl.org/dc/dcmitype/StillImage" />
      </cc:Work>
    </rdf:RDF>
  </metadata>
  <defs
     id="defs14" />
  <sodipodi:namedview
     pagecolor="#ffffff"
     bordercolor="#666666"
     borderopacity="1"
     objecttolerance="10"
     gridtolerance="10"
     guidetolerance="10"
     inkscape:pageopacity="0"
     inkscape:pageshadow="2"
     inkscape:window-width="640"
     inkscape:window-height="480"
     id="namedview12"
     showgrid="false"
     inkscape:zoom="6.5555556"
     inkscape:cx="18"
     inkscape:cy="18"
     inkscape:window-x="0"
     inkscape:window-y="0"
     inkscape:window-maximized="0"
     inkscape:current-layer="svg2" />
  <path
     d="M 32,8 26,8 26,4 C 26,1.791 24.209,0 22,0 L 14,0 C 11.791,0 10,1.791 10,4 L 10,8 4,8 C 1.791,8 0,9.791 0,12 l 0,20 c 0,2.209 1.791,4 4,4 l 28,0 c 2.209,0 4,-1.791 4,-4 L 36,12 C 36,9.791 34.209,8 32,8 Z M 12,6 c 0,-1.104 0.896,-2 2,-2 l 8,0 c 1.104,0 2,0.896 2,2 l 0,2 -12,0 0,-2 z"
     id="path4"
     inkscape:connector-curvature="0"
     style="fill:#9a4e1c" />
  <path
     d="m 36,20 c 0,2.209 -1.791,4 -4,4 L 4,24 C 1.791,24 0,22.209 0,20 L 0,12 C 0,9.791 1.791,8 4,8 l 28,0 c 2.209,0 4,1.791 4,4 l 0,8 z"
     id="path6"
     inkscape:connector-curvature="0"
     style="fill:#662113" />
  <path
     d="m 36,18 c 0,2.209 -1.791,4 -4,4 L 4,22 C 1.791,22 0,20.209 0,18 L 0,12 C 0,9.791 1.791,8 4,8 l 28,0 c 2.209,0 4,1.791 4,4 l 0,6 z"
     id="path8"
     inkscape:connector-curvature="0"
     style="fill:#9a4e1c" />
  <path
     d="m 22,18 c 0,1.104 -0.896,2 -2,2 l -4,0 c -1.104,0 -2,-0.896 -2,-2 0,-1.104 0.896,-2 2,-2 l 4,0 c 1.104,0 2,0.896 2,2"
     id="path10"
     inkscape:connector-curvature="0"
     style="fill:#ccd6dd" />
</svg>
