<?xml version="1.0" encoding="UTF-8" standalone="no"?>
<svg
   xmlns:dc="http://purl.org/dc/elements/1.1/"
   xmlns:cc="http://creativecommons.org/ns#"
   xmlns:rdf="http://www.w3.org/1999/02/22-rdf-syntax-ns#"
   xmlns:svg="http://www.w3.org/2000/svg"
   xmlns="http://www.w3.org/2000/svg"
   xmlns:sodipodi="http://sodipodi.sourceforge.net/DTD/sodipodi-0.dtd"
   xmlns:inkscape="http://www.inkscape.org/namespaces/inkscape"
   viewBox="0 0 30.000999 35.999001"
   id="svg2"
   version="1.1"
   inkscape:version="0.91 r13725"
   sodipodi:docname="1f4b1.svg"
   width="30.000999"
   height="35.999001">
  <metadata
     id="metadata12">
    <rdf:RDF>
      <cc:Work
         rdf:about="">
        <dc:format>image/svg+xml</dc:format>
        <dc:type
           rdf:resource="http://purl.org/dc/dcmitype/StillImage" />
      </cc:Work>
    </rdf:RDF>
  </metadata>
  <defs
     id="defs10" />
  <sodipodi:namedview
     pagecolor="#ffffff"
     bordercolor="#666666"
     borderopacity="1"
     objecttolerance="10"
     gridtolerance="10"
     guidetolerance="10"
     inkscape:pageopacity="0"
     inkscape:pageshadow="2"
     inkscape:window-width="640"
     inkscape:window-height="480"
     id="namedview8"
     showgrid="false"
     inkscape:zoom="6.5555556"
     inkscape:cx="15.001"
     inkscape:cy="17.999"
     inkscape:window-x="0"
     inkscape:window-y="0"
     inkscape:window-maximized="0"
     inkscape:current-layer="svg2" />
  <path
     d="m 12.069,14.278 c 0,-4.719 -8.7,-4.411 -8.7,-7.261 0,-1.379 1.32,-2.053 2.85,-2.053 2.574,0 3.032,1.654 4.198,1.654 0.824,0 1.223,-0.521 1.223,-1.103 0,-1.353 -2.053,-2.378 -4.021,-2.732 l 0,-1.307 C 7.618,0.661 6.959,0 6.144,0 5.327,0 4.667,0.661 4.667,1.476 l 0,1.353 C 2.52,3.318 0.675,4.807 0.675,7.233 c 0,4.532 8.698,4.349 8.698,7.532 0,1.103 -1.193,2.207 -3.155,2.207 C 3.277,16.972 2.297,14.98 1.103,14.98 0.521,14.98 0,15.47 0,16.21 c 0,1.17 1.965,2.581 4.667,2.976 l -10e-4,0.01 0,1.473 c 0,0.818 0.661,1.479 1.477,1.479 0.815,0 1.476,-0.661 1.476,-1.479 l 0,-1.473 c 0,-0.018 -0.008,-0.031 -0.009,-0.047 2.431,-0.453 4.459,-2.039 4.459,-4.871 z m 8.828,11.598 -4.104,0 c -0.688,0 -1.227,-0.327 -1.227,-0.985 0,-0.661 0.539,-0.99 1.227,-0.99 l 2.876,0 -4.792,-7.399 c -0.298,-0.449 -0.449,-0.775 -0.449,-1.195 0,-0.571 0.57,-0.99 1.049,-0.99 0.481,0 0.958,0.21 1.378,0.839 l 5.36,8.058 5.362,-8.058 c 0.419,-0.629 0.897,-0.839 1.378,-0.839 0.477,0 1.046,0.419 1.046,0.99 0,0.42 -0.148,0.746 -0.448,1.195 l -4.792,7.398 2.875,0 c 0.689,0 1.229,0.329 1.229,0.99 0,0.658 -0.539,0.985 -1.229,0.985 l -4.102,0 0,2.126 4.102,0 c 0.689,0 1.229,0.332 1.229,0.99 0,0.658 -0.539,0.987 -1.229,0.987 l -4.102,0 0,4.611 c 0,0.868 -0.539,1.41 -1.319,1.41 -0.778,0 -1.317,-0.542 -1.317,-1.41 l 0,-4.611 -4.104,0 c -0.688,0 -1.227,-0.329 -1.227,-0.987 0,-0.658 0.539,-0.99 1.227,-0.99 l 4.104,0 0,-2.125 z"
     id="path4"
     inkscape:connector-curvature="0"
     style="fill:#292f33" />
  <path
     d="M 20.876,6.125 14.001,2 18.126,8.875 14.001,13 l 11,0 0,-11 z M 6.126,29.875 13.001,34 8.876,27.125 13.001,23 l -11,0 0,11 z"
     id="path6"
     inkscape:connector-curvature="0"
     style="fill:#67757f" />
</svg>
