<?xml version="1.0" encoding="UTF-8" standalone="no"?>
<svg
   xmlns:dc="http://purl.org/dc/elements/1.1/"
   xmlns:cc="http://creativecommons.org/ns#"
   xmlns:rdf="http://www.w3.org/1999/02/22-rdf-syntax-ns#"
   xmlns:svg="http://www.w3.org/2000/svg"
   xmlns="http://www.w3.org/2000/svg"
   xmlns:sodipodi="http://sodipodi.sourceforge.net/DTD/sodipodi-0.dtd"
   xmlns:inkscape="http://www.inkscape.org/namespaces/inkscape"
   viewBox="0 0 36 24.062"
   id="svg2"
   version="1.1"
   inkscape:version="0.91 r13725"
   sodipodi:docname="1f4b4.svg"
   width="36"
   height="24.062">
  <metadata
     id="metadata14">
    <rdf:RDF>
      <cc:Work
         rdf:about="">
        <dc:format>image/svg+xml</dc:format>
        <dc:type
           rdf:resource="http://purl.org/dc/dcmitype/StillImage" />
      </cc:Work>
    </rdf:RDF>
  </metadata>
  <defs
     id="defs12" />
  <sodipodi:namedview
     pagecolor="#ffffff"
     bordercolor="#666666"
     borderopacity="1"
     objecttolerance="10"
     gridtolerance="10"
     guidetolerance="10"
     inkscape:pageopacity="0"
     inkscape:pageshadow="2"
     inkscape:window-width="640"
     inkscape:window-height="480"
     id="namedview10"
     showgrid="false"
     inkscape:zoom="6.5555556"
     inkscape:cx="18"
     inkscape:cy="12.062"
     inkscape:window-x="0"
     inkscape:window-y="0"
     inkscape:window-maximized="0"
     inkscape:current-layer="svg2" />
  <path
     d="M 2,0 C 0,0 0,2 0,2 l 0,20 c 0,0 0,2 2,2 l 32,0 c 2,0 2,-2 2,-2 L 36,2 C 36,2 36,0 34,0 L 2,0 Z"
     id="path4"
     inkscape:connector-curvature="0"
     style="fill:#fdd888" />
  <path
     d="m 13,0 10,0 0,24.062 -10,0 z"
     id="path6"
     inkscape:connector-curvature="0"
     style="fill:#9aaab4" />
  <path
     d="m 5.743,12.143 -2.374,0 C 2.971,12.143 2.66,11.954 2.66,11.573 2.66,11.19 2.972,11 3.369,11 L 5.033,11 2.261,6.72 C 2.087,6.46 2,6.27 2,6.027 2,5.697 2.33,5.454 2.607,5.454 c 0.278,0 0.554,0.122 0.797,0.485 l 3.102,4.662 3.102,-4.662 c 0.243,-0.364 0.52,-0.485 0.797,-0.485 0.276,0 0.605,0.243 0.605,0.573 0,0.243 -0.086,0.432 -0.259,0.691 l -2.772,4.28 1.664,0 c 0.399,0 0.711,0.191 0.711,0.573 0,0.381 -0.312,0.57 -0.711,0.57 l -2.374,0 0,1.23 2.373,0 c 0.399,0 0.711,0.192 0.711,0.573 0,0.381 -0.312,0.571 -0.711,0.571 l -2.373,0 0,2.668 C 7.269,17.687 6.957,18 6.505,18 6.054,18 5.743,17.687 5.743,17.185 l 0,-2.668 -2.374,0 c -0.398,0 -0.709,-0.19 -0.709,-0.571 0,-0.381 0.312,-0.573 0.709,-0.573 l 2.375,0 0,-1.23 z"
     id="path8"
     inkscape:connector-curvature="0"
     style="fill:#67757f" />
</svg>
