<?xml version="1.0" encoding="UTF-8" standalone="no"?>
<svg
   xmlns:dc="http://purl.org/dc/elements/1.1/"
   xmlns:cc="http://creativecommons.org/ns#"
   xmlns:rdf="http://www.w3.org/1999/02/22-rdf-syntax-ns#"
   xmlns:svg="http://www.w3.org/2000/svg"
   xmlns="http://www.w3.org/2000/svg"
   xmlns:sodipodi="http://sodipodi.sourceforge.net/DTD/sodipodi-0.dtd"
   xmlns:inkscape="http://www.inkscape.org/namespaces/inkscape"
   viewBox="0 0 30 36"
   id="svg2"
   version="1.1"
   inkscape:version="0.91 r13725"
   sodipodi:docname="1f4c4.svg"
   width="30"
   height="36">
  <metadata
     id="metadata14">
    <rdf:RDF>
      <cc:Work
         rdf:about="">
        <dc:format>image/svg+xml</dc:format>
        <dc:type
           rdf:resource="http://purl.org/dc/dcmitype/StillImage" />
      </cc:Work>
    </rdf:RDF>
  </metadata>
  <defs
     id="defs12" />
  <sodipodi:namedview
     pagecolor="#ffffff"
     bordercolor="#666666"
     borderopacity="1"
     objecttolerance="10"
     gridtolerance="10"
     guidetolerance="10"
     inkscape:pageopacity="0"
     inkscape:pageshadow="2"
     inkscape:window-width="640"
     inkscape:window-height="480"
     id="namedview10"
     showgrid="false"
     inkscape:zoom="6.5555556"
     inkscape:cx="15"
     inkscape:cy="18"
     inkscape:window-x="0"
     inkscape:window-y="0"
     inkscape:window-maximized="0"
     inkscape:current-layer="svg2" />
  <path
     d="m 29.415,9.586 -9,-9 C 20.054,0.225 19.553,0 19,0 c -1.104,0 -1.999,0.896 -2,2 0,0.552 0.224,1.053 0.586,1.415 l -3.859,3.859 9,9 3.859,-3.859 C 26.948,12.776 27.448,13 28,13 c 1.104,0 2.001,-0.896 2,-2 0,-0.552 -0.224,-1.052 -0.585,-1.414 z"
     id="path4"
     inkscape:connector-curvature="0"
     style="fill:#e1e8ed" />
  <path
     d="M 19,0 4,0 C 1.791,0 0,1.791 0,4 l 0,28 c 0,2.209 1.791,4 4,4 l 22,0 c 2.209,0 4,-1.791 4,-4 l 0,-21 -9,0 c -1,0 -2,-1 -2,-2 l 0,-9 z"
     id="path6"
     inkscape:connector-curvature="0"
     style="fill:#ccd6dd" />
  <path
     d="m 19,0 -2,0 0,9 c 0,2.209 1.791,4 4,4 l 9,0 0,-2 -9,0 c -1,0 -2,-1 -2,-2 l 0,-9 z m -5,8 c 0,0.552 -0.448,1 -1,1 L 5,9 C 4.448,9 4,8.552 4,8 4,7.448 4.448,7 5,7 l 8,0 c 0.552,0 1,0.448 1,1 z m 0,4 c 0,0.552 -0.448,1 -1,1 L 5,13 C 4.448,13 4,12.552 4,12 4,11.448 4.448,11 5,11 l 8,0 c 0.552,0 1,0.448 1,1 z m 12,4 c 0,0.552 -0.447,1 -1,1 L 5,17 C 4.448,17 4,16.552 4,16 4,15.448 4.448,15 5,15 l 20,0 c 0.553,0 1,0.448 1,1 z m 0,4 c 0,0.553 -0.447,1 -1,1 L 5,21 C 4.448,21 4,20.553 4,20 4,19.447 4.448,19 5,19 l 20,0 c 0.553,0 1,0.447 1,1 z m 0,4 c 0,0.553 -0.447,1 -1,1 L 5,25 C 4.448,25 4,24.553 4,24 4,23.447 4.448,23 5,23 l 20,0 c 0.553,0 1,0.447 1,1 z m 0,4 c 0,0.553 -0.447,1 -1,1 L 5,29 C 4.448,29 4,28.553 4,28 4,27.447 4.448,27 5,27 l 20,0 c 0.553,0 1,0.447 1,1 z"
     id="path8"
     inkscape:connector-curvature="0"
     style="fill:#99aab5" />
</svg>
