<?xml version="1.0" encoding="UTF-8" standalone="no"?>
<svg
   xmlns:dc="http://purl.org/dc/elements/1.1/"
   xmlns:cc="http://creativecommons.org/ns#"
   xmlns:rdf="http://www.w3.org/1999/02/22-rdf-syntax-ns#"
   xmlns:svg="http://www.w3.org/2000/svg"
   xmlns="http://www.w3.org/2000/svg"
   xmlns:sodipodi="http://sodipodi.sourceforge.net/DTD/sodipodi-0.dtd"
   xmlns:inkscape="http://www.inkscape.org/namespaces/inkscape"
   viewBox="0 0 36 36"
   id="svg2"
   version="1.1"
   inkscape:version="0.91 r13725"
   sodipodi:docname="1f4c5.svg"
   width="36"
   height="36">
  <metadata
     id="metadata32">
    <rdf:RDF>
      <cc:Work
         rdf:about="">
        <dc:format>image/svg+xml</dc:format>
        <dc:type
           rdf:resource="http://purl.org/dc/dcmitype/StillImage" />
      </cc:Work>
    </rdf:RDF>
  </metadata>
  <defs
     id="defs30" />
  <sodipodi:namedview
     pagecolor="#ffffff"
     bordercolor="#666666"
     borderopacity="1"
     objecttolerance="10"
     gridtolerance="10"
     guidetolerance="10"
     inkscape:pageopacity="0"
     inkscape:pageshadow="2"
     inkscape:window-width="640"
     inkscape:window-height="480"
     id="namedview28"
     showgrid="false"
     inkscape:zoom="6.5555556"
     inkscape:cx="18"
     inkscape:cy="18"
     inkscape:window-x="0"
     inkscape:window-y="0"
     inkscape:window-maximized="0"
     inkscape:current-layer="svg2" />
  <path
     d="m 36,32 c 0,2.209 -1.791,4 -4,4 L 4,36 C 1.791,36 0,34.209 0,32 L 0,9 C 0,6.791 1.791,5 4,5 l 28,0 c 2.209,0 4,1.791 4,4 l 0,23 z"
     id="path4"
     inkscape:connector-curvature="0"
     style="fill:#e0e7ec" />
  <path
     d="M 34,0 30.723,0 C 30.895,0.295 31,0.634 31,1 31,2.104 30.104,3 29,3 27.896,3 27,2.104 27,1 27,0.634 27.105,0.295 27.277,0 L 8.723,0 C 8.895,0.295 9,0.634 9,1 9,2.104 8.104,3 7,3 5.896,3 5,2.104 5,1 5,0.634 5.105,0.295 5.277,0 L 2,0 C 0.896,0 0,0.896 0,2 L 0,13 36,13 36,2 C 36,0.896 35.104,0 34,0 Z"
     id="path6"
     inkscape:connector-curvature="0"
     style="fill:#dd2f45" />
  <path
     d="m 23.688,19 -0.5,0 c -1.085,0 -1.538,-0.731 -1.538,-1.5 0,-0.792 0.565,-1.5 1.538,-1.5 l 2.015,0 c 0.972,0 1.515,0.701 1.515,1.605 l 0,12.865 c 0,1.13 -0.558,1.763 -1.53,1.763 -0.972,0 -1.5,-0.633 -1.5,-1.763 l 0,-11.47 z"
     id="path8"
     inkscape:connector-curvature="0"
     style="fill:#66757f" />
  <g
     id="g10"
     style="fill:#f3aab9">
    <circle
       cx="33"
       cy="10"
       r="1"
       id="circle12" />
    <circle
       cx="33"
       cy="7"
       r="1"
       id="circle14" />
    <circle
       cx="30"
       cy="10"
       r="1"
       id="circle16" />
    <circle
       cx="30"
       cy="7"
       r="1"
       id="circle18" />
    <circle
       cx="27"
       cy="10"
       r="1"
       id="circle20" />
    <circle
       cx="27"
       cy="7"
       r="1"
       id="circle22" />
  </g>
  <path
     d="m 2.468,4.94 c 0,-0.437 0.346,-0.783 0.783,-0.783 l 0.173,0 c 0.335,0 0.569,0.173 0.711,0.406 l 1.891,3.08 1.9,-3.089 C 8.088,4.29 8.312,4.158 8.627,4.158 l 0.172,0 c 0.437,0 0.783,0.346 0.783,0.783 l 0,5.65 c 0,0.437 -0.346,0.783 -0.783,0.783 -0.427,0 -0.772,-0.356 -0.772,-0.783 l 0,-3.547 -1.372,2.114 C 6.493,9.401 6.29,9.554 6.005,9.554 5.72,9.554 5.517,9.402 5.355,9.158 l -1.352,-2.084 0,3.537 c 0,0.427 -0.346,0.762 -0.772,0.762 -0.426,0 -0.762,-0.335 -0.762,-0.762 l 0,-5.671 z m 7.923,5.366 2.479,-5.6 c 0.173,-0.386 0.488,-0.62 0.915,-0.62 l 0.091,0 c 0.427,0 0.732,0.234 0.905,0.62 l 2.479,5.6 c 0.051,0.111 0.081,0.213 0.081,0.315 0,0.417 -0.325,0.752 -0.742,0.752 -0.366,0 -0.61,-0.213 -0.752,-0.539 l -0.477,-1.118 -3.13,0 -0.498,1.169 c -0.132,0.305 -0.396,0.488 -0.722,0.488 -0.407,0 -0.722,-0.325 -0.722,-0.732 10e-4,-0.112 0.042,-0.224 0.093,-0.335 z m 4.4,-1.972 -0.985,-2.348 -0.986,2.348 1.971,0 z m 3.277,-3.353 c 0,-0.437 0.346,-0.783 0.783,-0.783 l 2.47,0 c 0.904,0 1.605,0.254 2.072,0.722 0.396,0.396 0.61,0.955 0.61,1.626 l 0,0.021 c 0,1.118 -0.559,1.809 -1.423,2.165 l 1.087,1.321 c 0.153,0.193 0.255,0.356 0.255,0.6 0,0.437 -0.366,0.722 -0.742,0.722 -0.355,0 -0.59,-0.173 -0.772,-0.407 l -1.524,-1.931 -1.25,0 0,1.555 c 0,0.437 -0.346,0.783 -0.782,0.783 -0.437,0 -0.783,-0.346 -0.783,-0.783 l 0,-5.611 z m 3.151,2.673 c 0.762,0 1.199,-0.407 1.199,-1.006 l 0,-0.021 c 0,-0.67 -0.468,-1.016 -1.23,-1.016 l -1.555,0 0,2.043 1.586,0 z"
     id="path24"
     inkscape:connector-curvature="0"
     style="fill:#ffffff" />
  <path
     d="m 8.799,28.809 4.542,-3.721 c 1.986,-1.62 2.762,-2.511 2.762,-3.835 0,-1.346 -0.89,-2.077 -2.145,-2.077 -1.004,0 -1.712,0.434 -2.602,1.392 -0.228,0.251 -0.639,0.503 -1.187,0.503 -0.89,0 -1.598,-0.708 -1.598,-1.598 0,-0.388 0.16,-0.799 0.411,-1.096 1.278,-1.484 2.785,-2.351 5.204,-2.351 3.31,0 5.501,1.94 5.501,4.93 l 0,0.046 c 0,2.67 -1.369,3.994 -4.2,6.185 l -2.602,2.009 5.569,0 c 0.845,0 1.53,0.685 1.53,1.529 0,0.844 -0.685,1.507 -1.53,1.507 l -8.673,0 c -1.096,0 -1.895,-0.616 -1.895,-1.666 0,-0.685 0.32,-1.278 0.913,-1.757 z"
     id="path26"
     inkscape:connector-curvature="0"
     style="fill:#66757f" />
</svg>
