<?xml version="1.0" encoding="UTF-8" standalone="no"?>
<svg
   xmlns:dc="http://purl.org/dc/elements/1.1/"
   xmlns:cc="http://creativecommons.org/ns#"
   xmlns:rdf="http://www.w3.org/1999/02/22-rdf-syntax-ns#"
   xmlns:svg="http://www.w3.org/2000/svg"
   xmlns="http://www.w3.org/2000/svg"
   xmlns:sodipodi="http://sodipodi.sourceforge.net/DTD/sodipodi-0.dtd"
   xmlns:inkscape="http://www.inkscape.org/namespaces/inkscape"
   viewBox="0 0 34 34"
   id="svg2"
   version="1.1"
   inkscape:version="0.91 r13725"
   sodipodi:docname="1f4c8.svg"
   width="34"
   height="34">
  <metadata
     id="metadata14">
    <rdf:RDF>
      <cc:Work
         rdf:about="">
        <dc:format>image/svg+xml</dc:format>
        <dc:type
           rdf:resource="http://purl.org/dc/dcmitype/StillImage" />
      </cc:Work>
    </rdf:RDF>
  </metadata>
  <defs
     id="defs12" />
  <sodipodi:namedview
     pagecolor="#ffffff"
     bordercolor="#666666"
     borderopacity="1"
     objecttolerance="10"
     gridtolerance="10"
     guidetolerance="10"
     inkscape:pageopacity="0"
     inkscape:pageshadow="2"
     inkscape:window-width="640"
     inkscape:window-height="480"
     id="namedview10"
     showgrid="false"
     inkscape:zoom="6.5555556"
     inkscape:cx="17"
     inkscape:cy="17"
     inkscape:window-x="0"
     inkscape:window-y="0"
     inkscape:window-maximized="0"
     inkscape:current-layer="svg2" />
  <path
     d="M 30,1 4,1 C 2.343,1 1,2.343 1,4 l 0,26 c 0,1.657 1.343,3 3,3 l 26,0 c 1.657,0 3,-1.343 3,-3 L 33,4 C 33,2.343 31.657,1 30,1 Z"
     id="path4"
     inkscape:connector-curvature="0"
     style="fill:#ccd6dd" />
  <path
     d="M 30,0 4,0 C 1.791,0 0,1.791 0,4 l 0,26 c 0,2.209 1.791,4 4,4 l 26,0 c 2.209,0 4,-1.791 4,-4 L 34,4 C 34,1.791 32.209,0 30,0 Z m 0,2 c 1.103,0 2,0.897 2,2 l 0,4 -6,0 0,-6 4,0 z m -4,16 6,0 0,6 -6,0 0,-6 z m 0,-2 0,-6 6,0 0,6 -6,0 z m -2,-14 0,6 -6,0 0,-6 6,0 z m -6,8 6,0 0,6 -6,0 0,-6 z m 0,8 6,0 0,6 -6,0 0,-6 z m -2,-16 0,6 -6,0 0,-6 6,0 z m -6,8 6,0 0,6 -6,0 0,-6 z m 0,8 6,0 0,6 -6,0 0,-6 z M 2,4 C 2,2.897 2.897,2 4,2 L 8,2 8,8 2,8 2,4 Z m 0,6 6,0 0,6 -6,0 0,-6 z m 0,8 6,0 0,6 -6,0 0,-6 z M 4,32 C 2.897,32 2,31.103 2,30 l 0,-4 6,0 0,6 -4,0 z m 6,0 0,-6 6,0 0,6 -6,0 z m 8,0 0,-6 6,0 0,6 -6,0 z m 12,0 -4,0 0,-6 6,0 0,4 c 0,1.103 -0.897,2 -2,2 z"
     id="path6"
     inkscape:connector-curvature="0"
     style="fill:#e1e8ed" />
  <path
     d="M 3.998,32 C 3.678,32 3.353,31.924 3.052,31.761 2.079,31.238 1.716,30.025 2.239,29.052 l 7,-13 c 0.299,-0.557 0.845,-0.939 1.47,-1.031 0.626,-0.092 1.258,0.118 1.705,0.565 l 6.076,6.076 9.738,-18.59 c 0.512,-0.978 1.721,-1.357 2.699,-0.843 0.979,0.512 1.356,1.721 0.844,2.7 l -11,21 c -0.295,0.564 -0.841,0.953 -1.47,1.05 -0.627,0.091 -1.266,-0.113 -1.716,-0.563 l -6.1,-6.099 -5.724,10.631 C 5.4,31.619 4.71,32 3.998,32 Z"
     id="path8"
     inkscape:connector-curvature="0"
     style="fill:#dd2e44" />
</svg>
