<?xml version="1.0" encoding="UTF-8" standalone="no"?>
<svg
   xmlns:dc="http://purl.org/dc/elements/1.1/"
   xmlns:cc="http://creativecommons.org/ns#"
   xmlns:rdf="http://www.w3.org/1999/02/22-rdf-syntax-ns#"
   xmlns:svg="http://www.w3.org/2000/svg"
   xmlns="http://www.w3.org/2000/svg"
   xmlns:sodipodi="http://sodipodi.sourceforge.net/DTD/sodipodi-0.dtd"
   xmlns:inkscape="http://www.inkscape.org/namespaces/inkscape"
   viewBox="0 0 36 27"
   id="svg2"
   version="1.1"
   inkscape:version="0.91 r13725"
   sodipodi:docname="1f4d6.svg"
   width="36"
   height="27">
  <metadata
     id="metadata20">
    <rdf:RDF>
      <cc:Work
         rdf:about="">
        <dc:format>image/svg+xml</dc:format>
        <dc:type
           rdf:resource="http://purl.org/dc/dcmitype/StillImage" />
      </cc:Work>
    </rdf:RDF>
  </metadata>
  <defs
     id="defs18" />
  <sodipodi:namedview
     pagecolor="#ffffff"
     bordercolor="#666666"
     borderopacity="1"
     objecttolerance="10"
     gridtolerance="10"
     guidetolerance="10"
     inkscape:pageopacity="0"
     inkscape:pageshadow="2"
     inkscape:window-width="640"
     inkscape:window-height="480"
     id="namedview16"
     showgrid="false"
     inkscape:zoom="6.5555556"
     inkscape:cx="18"
     inkscape:cy="13"
     inkscape:window-x="0"
     inkscape:window-y="0"
     inkscape:window-maximized="0"
     inkscape:current-layer="svg2" />
  <path
     d="M 32,3 4,3 C 1.791,3 0,4.791 0,7 l 0,15 c 0,2.209 1.791,4 4,4 l 11.416,0 c 0.52,0.596 1.477,1 2.584,1 1.107,0 2.065,-0.404 2.584,-1 L 32,26 c 2.209,0 4,-1.791 4,-4 L 36,7 C 36,4.791 34.209,3 32,3 Z"
     id="path4"
     inkscape:connector-curvature="0"
     style="fill:#226699" />
  <path
     d="m 20,23 c 0,1.104 -0.896,2 -2,2 -1.104,0 -2,-0.896 -2,-2 L 16,5 c 0,-1.104 0.896,-2 2,-2 1.104,0 2,0.896 2,2 l 0,18 z"
     id="path6"
     inkscape:connector-curvature="0"
     style="fill:#292f33" />
  <path
     d="m 18,22 c 0,1.104 -0.896,2 -2,2 L 4,24 C 2.896,24 2,23.104 2,22 L 2,4 C 2,2.896 2.896,2 4,2 l 12,0 c 1.104,0 2,0.896 2,2 l 0,18 z"
     id="path8"
     inkscape:connector-curvature="0"
     style="fill:#99aab5" />
  <path
     d="M 18,22 C 17.001,20.002 14.343,20 14,20 12,20 9,22 6,22 5,22 4,21.104 4,20 L 4,4 C 4,2.896 5,2 6,2 c 3.255,0 6,-2 8,-2 3,0 4,1.896 4,3 l 0,19 z"
     id="path10"
     inkscape:connector-curvature="0"
     style="fill:#e1e8ed" />
  <path
     d="m 34,22 c 0,1.104 -0.896,2 -2,2 l -12,0 c -1.104,0 -2,-0.896 -2,-2 L 18,4 c 0,-1.104 0.896,-2 2,-2 l 12,0 c 1.104,0 2,0.896 2,2 l 0,18 z"
     id="path12"
     inkscape:connector-curvature="0"
     style="fill:#99aab5" />
  <path
     d="m 18,22 c 0.999,-1.998 3.657,-2 4,-2 2,0 5,2 8,2 1,0 2,-0.896 2,-2 L 32,4 C 32,2.896 31,2 30,2 26.744,2 24,0 22,0 19,0 18,1.896 18,3 l 0,19 z"
     id="path14"
     inkscape:connector-curvature="0"
     style="fill:#ccd6dd" />
</svg>
