<?xml version="1.0" encoding="UTF-8" standalone="no"?>
<svg
   xmlns:dc="http://purl.org/dc/elements/1.1/"
   xmlns:cc="http://creativecommons.org/ns#"
   xmlns:rdf="http://www.w3.org/1999/02/22-rdf-syntax-ns#"
   xmlns:svg="http://www.w3.org/2000/svg"
   xmlns="http://www.w3.org/2000/svg"
   xmlns:sodipodi="http://sodipodi.sourceforge.net/DTD/sodipodi-0.dtd"
   xmlns:inkscape="http://www.inkscape.org/namespaces/inkscape"
   viewBox="0 0 36 26"
   id="svg2"
   version="1.1"
   inkscape:version="0.91 r13725"
   sodipodi:docname="1f4df.svg"
   width="36"
   height="26">
  <metadata
     id="metadata18">
    <rdf:RDF>
      <cc:Work
         rdf:about="">
        <dc:format>image/svg+xml</dc:format>
        <dc:type
           rdf:resource="http://purl.org/dc/dcmitype/StillImage" />
      </cc:Work>
    </rdf:RDF>
  </metadata>
  <defs
     id="defs16" />
  <sodipodi:namedview
     pagecolor="#ffffff"
     bordercolor="#666666"
     borderopacity="1"
     objecttolerance="10"
     gridtolerance="10"
     guidetolerance="10"
     inkscape:pageopacity="0"
     inkscape:pageshadow="2"
     inkscape:window-width="640"
     inkscape:window-height="480"
     id="namedview14"
     showgrid="false"
     inkscape:zoom="6.5555556"
     inkscape:cx="18"
     inkscape:cy="13"
     inkscape:window-x="0"
     inkscape:window-y="0"
     inkscape:window-maximized="0"
     inkscape:current-layer="svg2" />
  <path
     d="m 36,22 c 0,2.209 -1.791,4 -4,4 L 4,26 C 1.791,26 0,24.209 0,22 L 0,4 C 0,1.791 1.791,0 4,0 l 28,0 c 2.209,0 4,1.791 4,4 l 0,18 z"
     id="path4"
     inkscape:connector-curvature="0"
     style="fill:#31373d" />
  <path
     d="m 34,16 c 0,1.104 -0.896,2 -2,2 L 4,18 C 2.896,18 2,17.104 2,16 L 2,4 C 2,2.896 2.896,2 4,2 l 28,0 c 1.104,0 2,0.896 2,2 l 0,12 z"
     id="path6"
     inkscape:connector-curvature="0"
     style="fill:#c6e5b3" />
  <path
     d="m 14,22 c 0,1.104 -0.896,2 -2,2 L 4,24 C 2.896,24 2,23.104 2,22 2,20.896 2.896,20 4,20 l 8,0 c 1.104,0 2,0.896 2,2 z m 14,0 c 0,1.104 -0.896,2 -2,2 l -8,0 c -1.104,0 -2,-0.896 -2,-2 0,-1.104 0.896,-2 2,-2 l 8,0 c 1.104,0 2,0.896 2,2 z"
     id="path8"
     inkscape:connector-curvature="0"
     style="fill:#66757f" />
  <circle
     cx="32"
     cy="22"
     r="2"
     id="circle10"
     style="fill:#dd2e44" />
  <path
     d="m 24.616,11.138 c -0.291,0 -0.416,-0.196 -0.416,-0.351 0,-0.131 0.048,-0.202 0.083,-0.262 l 1.332,-2.414 c 0.131,-0.238 0.297,-0.345 0.606,-0.345 0.345,0 0.684,0.22 0.684,0.761 l 0,1.826 0.101,0 c 0.232,0 0.416,0.155 0.416,0.393 0,0.238 -0.184,0.392 -0.416,0.392 l -0.101,0 0,0.506 c 0,0.315 -0.125,0.464 -0.428,0.464 -0.303,0 -0.428,-0.149 -0.428,-0.464 l 0,-0.506 -1.433,0 z m 1.433,-2.444 -0.012,0 -0.803,1.659 0.815,0 0,-1.659 z m -5.744,1.171 c 0,-0.961 0.372,-2.17 1.563,-2.17 1.192,0 1.563,1.209 1.563,2.17 0,0.961 -0.372,2.171 -1.563,2.171 -1.191,0 -1.563,-1.209 -1.563,-2.171 z m 2.206,0 c 0,-0.448 -0.041,-1.368 -0.643,-1.368 -0.602,0 -0.643,0.92 -0.643,1.368 0,0.419 0.041,1.368 0.643,1.368 0.602,10e-4 0.643,-0.949 0.643,-1.368 z m -5.781,1.201 c -0.291,0 -0.416,-0.196 -0.416,-0.351 0,-0.131 0.048,-0.202 0.083,-0.262 l 1.332,-2.414 c 0.131,-0.238 0.297,-0.345 0.606,-0.345 0.345,0 0.684,0.22 0.684,0.761 l 0,1.826 0.101,0 c 0.232,0 0.416,0.155 0.416,0.393 0,0.238 -0.184,0.392 -0.416,0.392 l -0.101,0 0,0.506 c 0,0.315 -0.125,0.464 -0.428,0.464 -0.303,0 -0.428,-0.149 -0.428,-0.464 l 0,-0.506 -1.433,0 z m 1.433,-2.444 -0.012,0 -0.803,1.659 0.815,0 0,-1.659 z m -5.744,1.315 c 0,-0.961 0.372,-2.17 1.563,-2.17 1.192,0 1.563,1.209 1.563,2.17 0,0.961 -0.372,2.171 -1.563,2.171 -1.191,-0.001 -1.563,-1.21 -1.563,-2.171 z m 2.206,0 c 0,-0.448 -0.041,-1.368 -0.643,-1.368 -0.602,0 -0.643,0.92 -0.643,1.368 0,0.419 0.041,1.368 0.643,1.368 0.602,0 0.643,-0.95 0.643,-1.368 z m -5.781,1.201 c -0.291,0 -0.416,-0.196 -0.416,-0.351 0,-0.131 0.048,-0.202 0.083,-0.262 L 9.843,8.111 c 0.131,-0.238 0.297,-0.345 0.606,-0.345 0.345,0 0.684,0.22 0.684,0.761 l 0,1.826 0.101,0 c 0.232,0 0.416,0.155 0.416,0.393 0,0.238 -0.184,0.392 -0.416,0.392 l -0.101,0 0,0.506 c 0,0.315 -0.125,0.464 -0.428,0.464 -0.303,0 -0.428,-0.149 -0.428,-0.464 l 0,-0.506 -1.433,0 z m 1.433,-2.444 -0.012,0 -0.803,1.659 0.815,0 0,-1.659 z"
     id="path12"
     inkscape:connector-curvature="0"
     style="fill:#77b255" />
</svg>
