<?xml version="1.0" encoding="UTF-8" standalone="no"?>
<svg
   xmlns:dc="http://purl.org/dc/elements/1.1/"
   xmlns:cc="http://creativecommons.org/ns#"
   xmlns:rdf="http://www.w3.org/1999/02/22-rdf-syntax-ns#"
   xmlns:svg="http://www.w3.org/2000/svg"
   xmlns="http://www.w3.org/2000/svg"
   xmlns:sodipodi="http://sodipodi.sourceforge.net/DTD/sodipodi-0.dtd"
   xmlns:inkscape="http://www.inkscape.org/namespaces/inkscape"
   viewBox="0 0 34 36"
   id="svg2"
   version="1.1"
   inkscape:version="0.91 r13725"
   sodipodi:docname="1f4d5.svg"
   width="34"
   height="36">
  <metadata
     id="metadata20">
    <rdf:RDF>
      <cc:Work
         rdf:about="">
        <dc:format>image/svg+xml</dc:format>
        <dc:type
           rdf:resource="http://purl.org/dc/dcmitype/StillImage" />
      </cc:Work>
    </rdf:RDF>
  </metadata>
  <defs
     id="defs18" />
  <sodipodi:namedview
     pagecolor="#ffffff"
     bordercolor="#666666"
     borderopacity="1"
     objecttolerance="10"
     gridtolerance="10"
     guidetolerance="10"
     inkscape:pageopacity="0"
     inkscape:pageshadow="2"
     inkscape:window-width="640"
     inkscape:window-height="480"
     id="namedview16"
     showgrid="false"
     inkscape:zoom="6.5555556"
     inkscape:cx="17"
     inkscape:cy="18"
     inkscape:window-x="0"
     inkscape:window-y="0"
     inkscape:window-maximized="0"
     inkscape:current-layer="svg2" />
  <path
     d="m 34,26 c 0,2.209 -1.791,4 -4,4 L 4,30 C 1.791,30 0,28.209 0,26 L 0,6.313 C 0,4.104 5.791,0 8,0 L 28.625,0 C 31.719,0 34,2.312 34,5.375 L 34,26 Z"
     id="path4"
     inkscape:connector-curvature="0"
     style="fill:#a0041e" />
  <path
     d="m 32,30 c 0,2.209 -1.791,4 -4,4 L 6,34 C 3.791,34 2,32.209 2,30 L 2,6 C 2,1.881 1.979,2 7,2 l 21,0 c 2.209,0 4,1.791 4,4 l 0,24 z"
     id="path6"
     inkscape:connector-curvature="0"
     style="fill:#ccd6dd" />
  <path
     d="m 30,31 c 0,1.657 -1.343,3 -3,3 L 3,34 C 1.343,34 0,32.657 0,31 L 0,7 C 0,5.343 1.343,4 3,4 l 24,0 c 1.657,0 3,1.343 3,3 l 0,24 z"
     id="path8"
     inkscape:connector-curvature="0"
     style="fill:#e1e8ed" />
  <path
     d="m 30,32 c 0,2.209 -1.791,4 -4,4 L 5,36 C 2.791,36 1,34.209 1,32 L 1,10 C 1,7.791 2.791,6 5,6 l 21,0 c 2.209,0 4,1.791 4,4 l 0,22 z"
     id="path10"
     inkscape:connector-curvature="0"
     style="fill:#be1931" />
  <path
     d="m 28,32 c 0,2.209 -1.791,4 -4,4 L 5,36 C 2.791,36 1,34.209 1,32 L 1,12 C 1,9.791 2.791,8 5,8 L 24.335,8 C 26.544,8 28,9.456 28,11.665 L 28,32 Z"
     id="path12"
     inkscape:connector-curvature="0"
     style="fill:#dd2e44" />
  <path
     d="M 5,6 C 3.312,6 3.269,4.078 4,3.25 4.832,2.309 6.125,2 8.438,2 L 10,2 10,0 7.281,0 C 3.312,0 0,2.5 0,5.375 L 0,32 c 0,2.209 1.791,4 4,4 L 6,36 6,6 5,6 Z"
     id="path14"
     inkscape:connector-curvature="0"
     style="fill:#a0041e" />
</svg>
