<?xml version="1.0" encoding="UTF-8" standalone="no"?>
<svg
   xmlns:dc="http://purl.org/dc/elements/1.1/"
   xmlns:cc="http://creativecommons.org/ns#"
   xmlns:rdf="http://www.w3.org/1999/02/22-rdf-syntax-ns#"
   xmlns:svg="http://www.w3.org/2000/svg"
   xmlns="http://www.w3.org/2000/svg"
   xmlns:sodipodi="http://sodipodi.sourceforge.net/DTD/sodipodi-0.dtd"
   xmlns:inkscape="http://www.inkscape.org/namespaces/inkscape"
   viewBox="0 0 35.917 36"
   id="svg2"
   version="1.1"
   inkscape:version="0.91 r13725"
   sodipodi:docname="1f4d2.svg"
   width="35.917"
   height="36">
  <metadata
     id="metadata36">
    <rdf:RDF>
      <cc:Work
         rdf:about="">
        <dc:format>image/svg+xml</dc:format>
        <dc:type
           rdf:resource="http://purl.org/dc/dcmitype/StillImage" />
      </cc:Work>
    </rdf:RDF>
  </metadata>
  <defs
     id="defs34" />
  <sodipodi:namedview
     pagecolor="#ffffff"
     bordercolor="#666666"
     borderopacity="1"
     objecttolerance="10"
     gridtolerance="10"
     guidetolerance="10"
     inkscape:pageopacity="0"
     inkscape:pageshadow="2"
     inkscape:window-width="640"
     inkscape:window-height="480"
     id="namedview32"
     showgrid="false"
     inkscape:zoom="6.5555556"
     inkscape:cx="17.917"
     inkscape:cy="18"
     inkscape:window-x="0"
     inkscape:window-y="0"
     inkscape:window-maximized="0"
     inkscape:current-layer="svg2" />
  <path
     d="m 35.917,26 c 0,2.209 -1.791,4 -4,4 l -24,0 c -2.209,0 -4,-1.791 -4,-4 l 0,-19.687 C 3.917,4.104 9.708,0 11.917,0 l 18.625,0 c 3.094,0 5.375,2.312 5.375,5.375 l 0,20.625 z"
     id="path4"
     inkscape:connector-curvature="0"
     style="fill:#f4900c" />
  <path
     d="m 33.917,30 c 0,2.209 -1.791,4 -4,4 l -20,0 c -2.209,0 -4,-1.791 -4,-4 l 0,-24 c 0,-4.119 -0.021,-4 5,-4 l 19,0 c 2.209,0 4,1.791 4,4 l 0,24 z"
     id="path6"
     inkscape:connector-curvature="0"
     style="fill:#ccd6dd" />
  <path
     d="m 31.917,31 c 0,1.657 -1.343,3 -3,3 l -22,0 c -1.657,0 -3,-1.343 -3,-3 l 0,-24 c 0,-1.657 1.343,-3 3,-3 l 22,0 c 1.657,0 3,1.343 3,3 l 0,24 z"
     id="path8"
     inkscape:connector-curvature="0"
     style="fill:#e1e8ed" />
  <path
     d="m 31.917,32 c 0,2.209 -1.791,4 -4,4 l -19,0 c -2.209,0 -4,-1.791 -4,-4 l 0,-22 c 0,-2.209 1.791,-4 4,-4 l 19,0 c 2.209,0 4,1.791 4,4 l 0,22 z"
     id="path10"
     inkscape:connector-curvature="0"
     style="fill:#ffac33" />
  <path
     d="m 29.917,32 c 0,2.209 -1.791,4 -4,4 l -17,0 c -2.209,0 -4,-1.791 -4,-4 l 0,-20 c 0,-2.209 1.791,-4 4,-4 l 17.335,0 c 2.209,0 3.665,1.456 3.665,3.665 l 0,20.335 z"
     id="path12"
     inkscape:connector-curvature="0"
     style="fill:#ffcc4d" />
  <path
     d="M 8.917,6 C 7.229,6 7.186,4.078 7.917,3.25 8.749,2.309 10.042,2 12.355,2 l 1.562,0 0,-2 -2.719,0 C 7.229,0 3.917,2.5 3.917,5.375 l 0,26.625 c 0,2.209 1.791,4 4,4 l 2,0 0,-30 -1,0 z"
     id="path14"
     inkscape:connector-curvature="0"
     style="fill:#f4900c" />
  <path
     d="m 8.459,32.979 c 0,0.702 -0.667,1.271 -1.49,1.271 -0.822,0 -1.489,-0.569 -1.489,-1.271 0,-0.701 0.667,-1.271 1.489,-1.271 0.823,0 1.49,0.569 1.49,1.271 z"
     id="path16"
     inkscape:connector-curvature="0"
     style="fill:#662113" />
  <path
     d="M 6.811,32.271 C 6.331,32.326 6.019,32.646 5.794,33 c -0.307,0.485 -1.007,1 -1.877,1 -1.104,0 -2,-0.671 -2,-1.5 0,-0.829 0.896,-1.5 2,-1.5 l 0,-1.996 C 1.75,29.025 0,30.579 0,32.5 0,34.434 1.772,36 3.958,36 5.812,36 7.305,34.955 7.859,33.431 8.136,32.672 7.39,32.207 6.811,32.271 Z"
     id="path18"
     inkscape:connector-curvature="0"
     style="fill:#66757f" />
  <path
     d="m 8.459,24.979 c 0,0.702 -0.667,1.271 -1.49,1.271 -0.822,0 -1.489,-0.569 -1.489,-1.271 0,-0.701 0.667,-1.271 1.489,-1.271 0.823,0 1.49,0.569 1.49,1.271 z"
     id="path20"
     inkscape:connector-curvature="0"
     style="fill:#662113" />
  <path
     d="M 6.811,24.271 C 6.331,24.326 6.019,24.646 5.794,25 c -0.307,0.485 -1.007,1 -1.877,1 -1.104,0 -2,-0.671 -2,-1.5 0,-0.829 0.896,-1.5 2,-1.5 l 0,-1.996 C 1.75,21.025 0,22.579 0,24.5 0,26.434 1.772,28 3.958,28 5.812,28 7.305,26.955 7.859,25.431 8.136,24.672 7.39,24.207 6.811,24.271 Z"
     id="path22"
     inkscape:connector-curvature="0"
     style="fill:#66757f" />
  <path
     d="m 8.459,16.979 c 0,0.702 -0.667,1.271 -1.49,1.271 -0.822,0 -1.489,-0.569 -1.489,-1.271 0,-0.701 0.667,-1.271 1.489,-1.271 0.823,0 1.49,0.569 1.49,1.271 z"
     id="path24"
     inkscape:connector-curvature="0"
     style="fill:#662113" />
  <path
     d="M 6.811,16.271 C 6.331,16.326 6.019,16.646 5.794,17 c -0.307,0.485 -1.007,1 -1.877,1 -1.104,0 -2,-0.671 -2,-1.5 0,-0.829 0.896,-1.5 2,-1.5 l 0,-1.996 C 1.75,13.025 0,14.579 0,16.5 0,18.434 1.772,20 3.958,20 5.812,20 7.305,18.955 7.859,17.431 8.136,16.672 7.39,16.207 6.811,16.271 Z"
     id="path26"
     inkscape:connector-curvature="0"
     style="fill:#66757f" />
  <path
     d="m 8.459,8.979 c 0,0.702 -0.667,1.271 -1.49,1.271 -0.822,0 -1.489,-0.569 -1.489,-1.271 0,-0.701 0.667,-1.271 1.489,-1.271 0.823,0 1.49,0.569 1.49,1.271 z"
     id="path28"
     inkscape:connector-curvature="0"
     style="fill:#662113" />
  <path
     d="M 6.811,8.271 C 6.331,8.326 6.019,8.646 5.794,9 5.487,9.485 4.787,10 3.917,10 c -1.104,0 -2,-0.671 -2,-1.5 0,-0.829 0.896,-1.5 2,-1.5 l 0,-1.996 C 1.751,5.024 0,6.579 0,8.5 0,10.434 1.772,12 3.958,12 5.812,12 7.305,10.955 7.859,9.431 8.136,8.672 7.39,8.207 6.811,8.271 Z"
     id="path30"
     inkscape:connector-curvature="0"
     style="fill:#66757f" />
</svg>
