<?xml version="1.0" encoding="UTF-8" standalone="no"?>
<svg
   xmlns:dc="http://purl.org/dc/elements/1.1/"
   xmlns:cc="http://creativecommons.org/ns#"
   xmlns:rdf="http://www.w3.org/1999/02/22-rdf-syntax-ns#"
   xmlns:svg="http://www.w3.org/2000/svg"
   xmlns="http://www.w3.org/2000/svg"
   xmlns:sodipodi="http://sodipodi.sourceforge.net/DTD/sodipodi-0.dtd"
   xmlns:inkscape="http://www.inkscape.org/namespaces/inkscape"
   viewBox="0 0 35 34"
   id="svg2"
   version="1.1"
   inkscape:version="0.91 r13725"
   sodipodi:docname="1f4da.svg"
   width="35"
   height="34">
  <metadata
     id="metadata32">
    <rdf:RDF>
      <cc:Work
         rdf:about="">
        <dc:format>image/svg+xml</dc:format>
        <dc:type
           rdf:resource="http://purl.org/dc/dcmitype/StillImage" />
      </cc:Work>
    </rdf:RDF>
  </metadata>
  <defs
     id="defs30" />
  <sodipodi:namedview
     pagecolor="#ffffff"
     bordercolor="#666666"
     borderopacity="1"
     objecttolerance="10"
     gridtolerance="10"
     guidetolerance="10"
     inkscape:pageopacity="0"
     inkscape:pageshadow="2"
     inkscape:window-width="640"
     inkscape:window-height="480"
     id="namedview28"
     showgrid="false"
     inkscape:zoom="6.5555556"
     inkscape:cx="17"
     inkscape:cy="17"
     inkscape:window-x="0"
     inkscape:window-y="0"
     inkscape:window-maximized="0"
     inkscape:current-layer="svg2" />
  <path
     d="m 14,30 c 0,2.209 -0.791,4 -3,4 L 4,34 C 0,34 0,20 4,20 l 7,0 c 2.209,0 3,1.791 3,4 l 0,6 z"
     id="path4"
     inkscape:connector-curvature="0"
     style="fill:#553788" />
  <path
     d="m 33,32 -1,0 0,-10 1,0 c 0.553,0 1,-0.447 1,-1 0,-0.553 -0.447,-1 -1,-1 L 9,20 C 5,20 5,34 9,34 l 24,0 c 0.553,0 1,-0.447 1,-1 0,-0.553 -0.447,-1 -1,-1 z"
     id="path6"
     inkscape:connector-curvature="0"
     style="fill:#9266cc" />
  <path
     d="M 33.172,32 10,32 C 8,32 8,22 10,22 l 23.172,0 c 1.104,0 1.104,10 0,10 z"
     id="path8"
     inkscape:connector-curvature="0"
     style="fill:#ccd6dd" />
  <path
     d="m 10.5,24 23.35,0 C 33.715,22.825 33.49,22 33.172,22 L 10,22 C 8.349,22 8.062,28.808 9.137,31.188 8.745,28.229 9.199,24 10.5,24 Z"
     id="path10"
     inkscape:connector-curvature="0"
     style="fill:#99aab5" />
  <path
     d="m 11,7 c 0,2.209 -1.791,4 -4,4 L 3,11 C -1,11 -1,0 3,0 l 4,0 c 2.209,0 4,1.791 4,4 l 0,3 z"
     id="path12"
     inkscape:connector-curvature="0"
     style="fill:#226699" />
  <path
     d="m 30,9 -1,0 0,-7 1,0 C 30.553,2 31,1.553 31,1 31,0.447 30.553,0 30,0 L 6,0 C 2,0 2,11 6,11 l 24,0 c 0.553,0 1,-0.447 1,-1 0,-0.553 -0.447,-1 -1,-1 z"
     id="path14"
     inkscape:connector-curvature="0"
     style="fill:#55acee" />
  <path
     d="M 30.172,9 7,9 C 5,9 5,2 7,2 l 23.172,0 c 1.104,0 1.104,7 0,7 z"
     id="path16"
     inkscape:connector-curvature="0"
     style="fill:#ccd6dd" />
  <path
     d="M 7,4 30.925,4 C 30.811,2.875 30.561,2 30.172,2 L 7,2 C 5.807,2 5.331,4.489 5.562,6.5 5.718,5.142 6.193,4 7,4 Z"
     id="path18"
     inkscape:connector-curvature="0"
     style="fill:#99aab5" />
  <path
     d="m 19,16 c 0,2.209 -1.791,4 -4,4 L 5,20 C 1,20 1,11 5,11 l 10,0 c 2.209,0 4,1.791 4,4 l 0,1 z"
     id="path20"
     inkscape:connector-curvature="0"
     style="fill:#f4900c" />
  <path
     d="m 34,18 -1,0 0,-5 1,0 c 0.553,0 1,-0.447 1,-1 0,-0.553 -0.447,-1 -1,-1 l -20,0 c -4,0 -4,9 0,9 l 20,0 c 0.553,0 1,-0.447 1,-1 0,-0.553 -0.447,-1 -1,-1 z"
     id="path22"
     inkscape:connector-curvature="0"
     style="fill:#ffac33" />
  <path
     d="M 34.172,18 15,18 c -2,0 -2,-5 0,-5 l 19.172,0 c 1.104,0 1.104,5 0,5 z"
     id="path24"
     inkscape:connector-curvature="0"
     style="fill:#ccd6dd" />
  <path
     d="m 15,15 19.984,0 C 34.919,13.938 34.65,13 34.172,13 L 15,13 c -1.274,0 -1.733,2.027 -1.383,3.5 C 13.815,15.661 14.274,15 15,15 Z"
     id="path26"
     inkscape:connector-curvature="0"
     style="fill:#99aab5" />
</svg>
