<?xml version="1.0" encoding="UTF-8" standalone="no"?>
<svg
   xmlns:dc="http://purl.org/dc/elements/1.1/"
   xmlns:cc="http://creativecommons.org/ns#"
   xmlns:rdf="http://www.w3.org/1999/02/22-rdf-syntax-ns#"
   xmlns:svg="http://www.w3.org/2000/svg"
   xmlns="http://www.w3.org/2000/svg"
   xmlns:sodipodi="http://sodipodi.sourceforge.net/DTD/sodipodi-0.dtd"
   xmlns:inkscape="http://www.inkscape.org/namespaces/inkscape"
   viewBox="0 0 36 35.48275"
   id="svg2"
   version="1.1"
   inkscape:version="0.91 r13725"
   sodipodi:docname="1f4db.svg"
   width="36"
   height="35.48275">
  <metadata
     id="metadata12">
    <rdf:RDF>
      <cc:Work
         rdf:about="">
        <dc:format>image/svg+xml</dc:format>
        <dc:type
           rdf:resource="http://purl.org/dc/dcmitype/StillImage" />
      </cc:Work>
    </rdf:RDF>
  </metadata>
  <defs
     id="defs10" />
  <sodipodi:namedview
     pagecolor="#ffffff"
     bordercolor="#666666"
     borderopacity="1"
     objecttolerance="10"
     gridtolerance="10"
     guidetolerance="10"
     inkscape:pageopacity="0"
     inkscape:pageshadow="2"
     inkscape:window-width="640"
     inkscape:window-height="480"
     id="namedview8"
     showgrid="false"
     inkscape:zoom="6.5555556"
     inkscape:cx="18"
     inkscape:cy="18"
     inkscape:window-x="0"
     inkscape:window-y="0"
     inkscape:window-maximized="0"
     inkscape:current-layer="svg2" />
  <path
     d="m 28.303,2.05875 c -0.449,-0.317 -1.017,-0.173 -1.263,0.319 l -2.595,5.21 c -0.245,0.492 -0.695,0.521 -1.001,0.064 l -4.888,-7.309 c -0.306,-0.457 -0.806,-0.457 -1.112,0 l -4.888,7.308 c -0.306,0.457 -0.757,0.428 -1.002,-0.064 L 8.96,2.37775 c -0.245,-0.492 -0.813,-0.636 -1.263,-0.319 0,0 -7.697,5.424 -7.697,17.424 0,7.732 8.059,16 18,16 9.941,0 18,-8.268 18,-16 0,-12 -7.697,-17.424 -7.697,-17.424 z"
     id="path4"
     inkscape:connector-curvature="0"
     style="fill:#dd2e44" />
  <path
     d="m 32,22.48275 c 0,1.104 -0.896,2 -2,2 l -24,0 c -1.104,0 -2,-0.896 -2,-2 l 0,-7 c 0,-1.104 0.896,-2 2,-2 l 24,0 c 1.104,0 2,0.896 2,2 l 0,7 z"
     id="path6"
     inkscape:connector-curvature="0"
     style="fill:#f5f8fa" />
</svg>
