<?xml version="1.0" encoding="UTF-8" standalone="no"?>
<svg
   xmlns:dc="http://purl.org/dc/elements/1.1/"
   xmlns:cc="http://creativecommons.org/ns#"
   xmlns:rdf="http://www.w3.org/1999/02/22-rdf-syntax-ns#"
   xmlns:svg="http://www.w3.org/2000/svg"
   xmlns="http://www.w3.org/2000/svg"
   xmlns:sodipodi="http://sodipodi.sourceforge.net/DTD/sodipodi-0.dtd"
   xmlns:inkscape="http://www.inkscape.org/namespaces/inkscape"
   viewBox="0 0 34.4715 36"
   id="svg2"
   version="1.1"
   inkscape:version="0.91 r13725"
   sodipodi:docname="1f4dd.svg"
   width="34.4715"
   height="36">
  <metadata
     id="metadata26">
    <rdf:RDF>
      <cc:Work
         rdf:about="">
        <dc:format>image/svg+xml</dc:format>
        <dc:type
           rdf:resource="http://purl.org/dc/dcmitype/StillImage" />
      </cc:Work>
    </rdf:RDF>
  </metadata>
  <defs
     id="defs24" />
  <sodipodi:namedview
     pagecolor="#ffffff"
     bordercolor="#666666"
     borderopacity="1"
     objecttolerance="10"
     gridtolerance="10"
     guidetolerance="10"
     inkscape:pageopacity="0"
     inkscape:pageshadow="2"
     inkscape:window-width="640"
     inkscape:window-height="480"
     id="namedview22"
     showgrid="false"
     inkscape:zoom="6.5555556"
     inkscape:cx="17"
     inkscape:cy="18"
     inkscape:window-x="0"
     inkscape:window-y="0"
     inkscape:window-maximized="0"
     inkscape:current-layer="svg2" />
  <path
     d="m 30,32 c 0,2.209 -1.791,4 -4,4 L 4,36 C 1.791,36 0,34.209 0,32 L 0,4 C 0,1.791 1.791,0 4,0 l 22,0 c 2.209,0 4,1.791 4,4 l 0,28 z"
     id="path4"
     inkscape:connector-curvature="0"
     style="fill:#ccd6dd" />
  <path
     d="m 26,24 c 0,0.553 -0.447,1 -1,1 L 5,25 C 4.448,25 4,24.553 4,24 4,23.447 4.448,23 5,23 l 20,0 c 0.553,0 1,0.447 1,1 z m -16,4 c 0,0.553 -0.448,1 -1,1 L 5,29 C 4.448,29 4,28.553 4,28 4,27.447 4.448,27 5,27 l 4,0 c 0.552,0 1,0.447 1,1 z M 26,8 c 0,0.552 -0.447,1 -1,1 L 5,9 C 4.448,9 4,8.552 4,8 4,7.448 4.448,7 5,7 l 20,0 c 0.553,0 1,0.448 1,1 z m 0,4 c 0,0.553 -0.447,1 -1,1 L 5,13 C 4.448,13 4,12.553 4,12 4,11.447 4.448,11 5,11 l 20,0 c 0.553,0 1,0.447 1,1 z m 0,4 c 0,0.553 -0.447,1 -1,1 L 5,17 C 4.448,17 4,16.553 4,16 4,15.447 4.448,15 5,15 l 20,0 c 0.553,0 1,0.447 1,1 z m 0,4 c 0,0.553 -0.447,1 -1,1 L 5,21 C 4.448,21 4,20.553 4,20 4,19.447 4.448,19 5,19 l 20,0 c 0.553,0 1,0.447 1,1 z"
     id="path6"
     inkscape:connector-curvature="0"
     style="fill:#99aab5" />
  <path
     d="M 30,6.272 C 29.173,5.737 28.163,5.693 27.479,6.249 l -0.792,0.646 -1.484,1.211 -0.1,0.08 -2.376,1.938 -11.878,9.686 c -0.437,0.357 -0.793,1.219 -1.173,2.074 -0.378,0.85 -0.969,2.852 -1.443,4.391 -0.148,0.25 -1.065,1.846 -0.551,2.453 0.52,0.615 2.326,0.01 2.568,-0.076 1.626,-0.174 3.731,-0.373 4.648,-0.58 0.924,-0.211 1.854,-0.395 2.291,-0.752 0.008,-0.006 0.01,-0.018 0.017,-0.023 L 29.064,17.631 29.856,16.985 30,16.867 30,6.272 Z"
     id="path8"
     inkscape:connector-curvature="0"
     style="fill:#66757f" />
  <path
     d="m 17.145,22.526 c 0,0 -1.274,-1.881 -2.117,-2.553 -0.672,-0.843 -2.549,-2.116 -2.549,-2.116 -0.448,-0.446 -1.191,-0.48 -1.629,-0.043 -0.437,0.438 -0.793,1.366 -1.173,2.291 -0.472,1.146 -1.276,4.154 -1.768,5.752 -0.083,0.272 0.517,-0.45 0.503,-0.21 -0.01,0.187 0.027,0.394 0.074,0.581 l -0.146,0.159 0.208,0.067 c 0.025,0.082 0.05,0.154 0.068,0.21 l 0.159,-0.146 c 0.187,0.047 0.394,0.084 0.58,0.074 0.24,-0.014 -0.483,0.587 -0.21,0.503 1.598,-0.493 4.607,-1.296 5.752,-1.768 0.924,-0.381 1.854,-0.736 2.291,-1.174 0.439,-0.435 0.406,-1.178 -0.043,-1.627 z"
     id="path10"
     inkscape:connector-curvature="0"
     style="fill:#d99e82" />
  <path
     d="m 24.312,4.351 c -0.876,0.875 -0.876,2.293 0,3.168 l 3.167,3.168 c 0.876,0.874 2.294,0.874 3.168,0 l 3.169,-3.168 c 0.874,-0.875 0.874,-2.293 0,-3.168 L 30.647,1.183 c -0.874,-0.875 -2.292,-0.875 -3.168,0 l -3.167,3.168 z"
     id="path12"
     inkscape:connector-curvature="0"
     style="fill:#ea596e" />
  <path
     d="m 10.849,17.815 3.17,3.17 3.165,3.166 L 29.065,12.272 22.728,5.936 10.849,17.815 Z"
     id="path14"
     inkscape:connector-curvature="0"
     style="fill:#ffcc4d" />
  <path
     d="m 10.298,26.742 c 0,0 -2.06,1.133 -2.616,0.576 -0.557,-0.558 0.581,-2.611 0.581,-2.611 0,0 1.951,0.036 2.035,2.035 z"
     id="path16"
     inkscape:connector-curvature="0"
     style="fill:#292f33" />
  <path
     d="m 22.728,5.935 3.96,-3.96 6.336,6.337 -3.96,3.96 z"
     id="path18"
     inkscape:connector-curvature="0"
     style="fill:#ccd6dd" />
  <path
     d="m 25.103,3.558 0.792,-0.792 6.336,6.335 -0.792,0.792 z m -1.583,1.584 0.791,-0.791 6.336,6.335 -0.792,0.792 z"
     id="path20"
     inkscape:connector-curvature="0"
     style="fill:#99aab5" />
</svg>
