<?xml version="1.0" encoding="UTF-8" standalone="no"?>
<svg
   xmlns:dc="http://purl.org/dc/elements/1.1/"
   xmlns:cc="http://creativecommons.org/ns#"
   xmlns:rdf="http://www.w3.org/1999/02/22-rdf-syntax-ns#"
   xmlns:svg="http://www.w3.org/2000/svg"
   xmlns="http://www.w3.org/2000/svg"
   xmlns:sodipodi="http://sodipodi.sourceforge.net/DTD/sodipodi-0.dtd"
   xmlns:inkscape="http://www.inkscape.org/namespaces/inkscape"
   viewBox="0 0 35.650002 31.5"
   id="svg2"
   version="1.1"
   inkscape:version="0.91 r13725"
   sodipodi:docname="1f4e2.svg"
   width="35.650002"
   height="31.5">
  <metadata
     id="metadata18">
    <rdf:RDF>
      <cc:Work
         rdf:about="">
        <dc:format>image/svg+xml</dc:format>
        <dc:type
           rdf:resource="http://purl.org/dc/dcmitype/StillImage" />
      </cc:Work>
    </rdf:RDF>
  </metadata>
  <defs
     id="defs16" />
  <sodipodi:namedview
     pagecolor="#ffffff"
     bordercolor="#666666"
     borderopacity="1"
     objecttolerance="10"
     gridtolerance="10"
     guidetolerance="10"
     inkscape:pageopacity="0"
     inkscape:pageshadow="2"
     inkscape:window-width="640"
     inkscape:window-height="480"
     id="namedview14"
     showgrid="false"
     inkscape:zoom="6.5555556"
     inkscape:cx="17.825"
     inkscape:cy="15.75"
     inkscape:window-x="0"
     inkscape:window-y="0"
     inkscape:window-maximized="0"
     inkscape:current-layer="svg2" />
  <path
     d="m 12.733,28.5 c -0.276,2.209 -2.291,3 -4.5,3 -2.209,0 -3.776,-1.791 -3.5,-4 l 1,-9 c 0.276,-2.209 2.291,-4 4.5,-4 2.209,0 6.468,0 3.5,4 -2.968,4 -1,10 -1,10 z"
     id="path4"
     inkscape:connector-curvature="0"
     style="fill:#be1931" />
  <path
     d="M 35.65,12.5 C 35.65,19.402 34.106,25 32.2,25 30.295,25 11.75,19.402 11.75,12.5 11.75,5.597 30.295,0 32.2,0 c 1.906,0 3.45,5.597 3.45,12.5 z"
     id="path6"
     inkscape:connector-curvature="0"
     style="fill:#ccd6dd" />
  <ellipse
     cx="32.200001"
     cy="12.5"
     rx="3.45"
     ry="12.5"
     id="ellipse8"
     style="fill:#66757f" />
  <path
     d="m 17.75,19.5 -14,-1 c -5,0 -5,-12 0,-12 l 14,-1 c -3,3 -3,11 0,14 z"
     id="path10"
     inkscape:connector-curvature="0"
     style="fill:#dd2e44" />
  <ellipse
     cx="31.150002"
     cy="12.5"
     rx="1.5"
     ry="4.348"
     id="ellipse12"
     style="fill:#99aab5" />
</svg>
