<?xml version="1.0" encoding="UTF-8" standalone="no"?>
<svg
   xmlns:dc="http://purl.org/dc/elements/1.1/"
   xmlns:cc="http://creativecommons.org/ns#"
   xmlns:rdf="http://www.w3.org/1999/02/22-rdf-syntax-ns#"
   xmlns:svg="http://www.w3.org/2000/svg"
   xmlns="http://www.w3.org/2000/svg"
   xmlns:sodipodi="http://sodipodi.sourceforge.net/DTD/sodipodi-0.dtd"
   xmlns:inkscape="http://www.inkscape.org/namespaces/inkscape"
   viewBox="0 0 36 36"
   id="svg2"
   version="1.1"
   inkscape:version="0.91 r13725"
   sodipodi:docname="1f4e9.svg"
   width="36"
   height="36">
  <metadata
     id="metadata18">
    <rdf:RDF>
      <cc:Work
         rdf:about="">
        <dc:format>image/svg+xml</dc:format>
        <dc:type
           rdf:resource="http://purl.org/dc/dcmitype/StillImage" />
      </cc:Work>
    </rdf:RDF>
  </metadata>
  <defs
     id="defs16" />
  <sodipodi:namedview
     pagecolor="#ffffff"
     bordercolor="#666666"
     borderopacity="1"
     objecttolerance="10"
     gridtolerance="10"
     guidetolerance="10"
     inkscape:pageopacity="0"
     inkscape:pageshadow="2"
     inkscape:window-width="640"
     inkscape:window-height="480"
     id="namedview14"
     showgrid="false"
     inkscape:zoom="6.5555556"
     inkscape:cx="18"
     inkscape:cy="18"
     inkscape:window-x="0"
     inkscape:window-y="0"
     inkscape:window-maximized="0"
     inkscape:current-layer="svg2" />
  <path
     d="m 36,32 c 0,2.209 -1.791,4 -4,4 L 4,36 C 1.791,36 0,34.209 0,32 L 0,14 c 0,-2.209 1.791,-4 4,-4 l 28,0 c 2.209,0 4,1.791 4,4 l 0,18 z"
     id="path4"
     inkscape:connector-curvature="0"
     style="fill:#ccd6dd" />
  <path
     d="M 11.95,22.636 0.637,33.949 C 0.61,33.977 0.6,34.012 0.577,34.04 c 0.34,0.57 0.814,1.043 1.384,1.384 0.029,-0.023 0.063,-0.033 0.09,-0.06 L 13.365,24.05 c 0.39,-0.391 0.39,-1.023 0,-1.414 -0.392,-0.391 -1.024,-0.391 -1.415,0 M 35.423,34.04 C 35.402,34.012 35.39,33.977 35.363,33.95 L 24.051,22.636 c -0.392,-0.391 -1.024,-0.391 -1.415,0 -0.391,0.392 -0.391,1.024 0,1.414 l 11.313,11.314 c 0.026,0.026 0.062,0.037 0.09,0.06 0.571,-0.34 1.044,-0.814 1.384,-1.384"
     id="path6"
     inkscape:connector-curvature="0"
     style="fill:#99aab5" />
  <path
     d="M 32,10 4,10 c -2.209,0 -4,1.791 -4,4 l 0,1.03 14.528,14.496 c 1.894,1.894 4.988,1.894 6.884,0 L 36,15.009 36,14 c 0,-2.209 -1.791,-4 -4,-4 z"
     id="path8"
     inkscape:connector-curvature="0"
     style="fill:#99aab5" />
  <path
     d="M 32,10 4,10 c -1.588,0 -2.949,0.934 -3.595,2.275 l 14.766,14.767 c 1.562,1.562 4.096,1.562 5.657,0 L 35.595,12.275 C 34.949,10.934 33.589,10 32,10 Z"
     id="path10"
     inkscape:connector-curvature="0"
     style="fill:#e1e8ed" />
  <path
     d="M 26.716,7 22,7 22,2 C 22,0.896 21.105,0 20,0 L 16,0 C 14.896,0 14,0.896 14,2 L 14,7 9.148,7 C 7.925,7 7.633,7.624 8.497,8.489 l 7.863,7.863 c 0.865,0.865 2.28,0.865 3.145,0 L 27.368,8.489 C 28.232,7.624 27.94,7 26.716,7 Z"
     id="path12"
     inkscape:connector-curvature="0"
     style="fill:#55acee" />
</svg>
