<?xml version="1.0" encoding="UTF-8" standalone="no"?>
<svg
   xmlns:dc="http://purl.org/dc/elements/1.1/"
   xmlns:cc="http://creativecommons.org/ns#"
   xmlns:rdf="http://www.w3.org/1999/02/22-rdf-syntax-ns#"
   xmlns:svg="http://www.w3.org/2000/svg"
   xmlns="http://www.w3.org/2000/svg"
   xmlns:sodipodi="http://sodipodi.sourceforge.net/DTD/sodipodi-0.dtd"
   xmlns:inkscape="http://www.inkscape.org/namespaces/inkscape"
   viewBox="0 0 30.063265 34.480671"
   id="svg2"
   version="1.1"
   inkscape:version="0.91 r13725"
   sodipodi:docname="1f4e1.svg"
   width="30.063265"
   height="34.480671">
  <metadata
     id="metadata24">
    <rdf:RDF>
      <cc:Work
         rdf:about="">
        <dc:format>image/svg+xml</dc:format>
        <dc:type
           rdf:resource="http://purl.org/dc/dcmitype/StillImage" />
      </cc:Work>
    </rdf:RDF>
  </metadata>
  <defs
     id="defs22" />
  <sodipodi:namedview
     pagecolor="#ffffff"
     bordercolor="#666666"
     borderopacity="1"
     objecttolerance="10"
     gridtolerance="10"
     guidetolerance="10"
     inkscape:pageopacity="0"
     inkscape:pageshadow="2"
     inkscape:window-width="640"
     inkscape:window-height="480"
     id="namedview20"
     showgrid="false"
     inkscape:zoom="6.5555556"
     inkscape:cx="15.030734"
     inkscape:cy="17.241375"
     inkscape:window-x="0"
     inkscape:window-y="0"
     inkscape:window-maximized="0"
     inkscape:current-layer="svg2" />
  <path
     d="m 7.7767343,20.760296 c 1.668,0 7.4299997,4.345 7.4269997,9.701 0.003,5.358 -14.85299971,5.358 -14.85399971,-0.001 0.001,-5.356 5.75900001,-9.7 7.42700001,-9.7 z"
     id="path4"
     inkscape:connector-curvature="0"
     style="fill:#99aab5" />
  <path
     d="m 5.5717343,24.421296 c 8.8389997,8.84 17.3369997,5.163 20.0329997,2.469 2.695,-2.696 -0.158,-9.916 -6.371,-16.129 -6.215,-6.2140002 -13.4359997,-9.0670002 -16.1309997,-6.3720002 -2.69500001,2.695 -6.371,11.1930002 2.469,20.0320002 z"
     id="path6"
     inkscape:connector-curvature="0"
     style="fill:#ccd6dd" />
  <path
     d="m 9.4737343,20.517296 c 6.2139997,6.214 13.4339997,9.066 16.1299997,6.372 2.695,-2.696 -0.158,-9.916 -6.371,-16.129 -6.214,-6.2130002 -13.4349997,-9.0660002 -16.1299997,-6.3710002 -2.69500001,2.695 0.158,9.9160002 6.371,16.1280002 z"
     id="path8"
     inkscape:connector-curvature="0"
     style="fill:#66757f" />
  <path
     d="m 19.232734,10.760296 c 0.443,0.444 0.443,1.163 0,1.607 l -7.233,7.231 c -0.444,0.444 -1.163,0.444 -1.607,0 -0.4439997,-0.443 -0.4439997,-1.163 0,-1.607 l 7.232,-7.231 c 0.445,-0.444 1.163,-0.444 1.608,0 z"
     id="path10"
     inkscape:connector-curvature="0"
     style="fill:#ccd6dd" />
  <path
     d="m 20.839734,9.1542958 c 0.887,0.8870002 0.887,2.3270002 0,3.2140002 -0.888,0.888 -2.327,0.888 -3.215,0 -0.887,-0.887 -0.887,-2.327 0,-3.2140002 0.887,-0.889 2.327,-0.889 3.215,0 z"
     id="path12"
     inkscape:connector-curvature="0"
     style="fill:#ccd6dd" />
  <path
     d="m 25.317734,12.317296 -0.051,-0.001 c -0.552,-0.027 -0.976,-0.497 -0.949,-1.048 10e-4,-0.016 0.063,-2.1570002 -1.58,-3.8000002 -1.638,-1.637 -3.772,-1.579 -3.801,-1.58 -0.55,0.033 -1.021,-0.398 -1.049,-0.948 -0.027,-0.552 0.397,-1.022 0.949,-1.049 0.122,-0.012 3.028,-0.123 5.314,2.163 2.287,2.288 2.17,5.1910002 2.164,5.3140002 -0.026,0.533 -0.468,0.949 -0.997,0.949 z"
     id="path14"
     inkscape:connector-curvature="0"
     style="fill:#ffac33" />
  <path
     d="m 28.876734,11.761296 c -0.109,0 -0.221,-0.019 -0.33,-0.057 -0.521,-0.183 -0.796,-0.753 -0.613,-1.274 0.034,-0.107 0.893,-2.8760002 -2.195,-5.9630002 -3.126,-3.127 -6.126,-2.414 -6.252,-2.382 -0.529,0.137 -1.077,-0.184 -1.216,-0.715 -0.14,-0.53100002 0.172,-1.07400002 0.701,-1.21700002 0.17,-0.046 4.205,-1.077 8.181,2.90100002 4.016,4.014 2.726,7.8760002 2.668,8.0390002 -0.144,0.41 -0.531,0.668 -0.944,0.668 z"
     id="path16"
     inkscape:connector-curvature="0"
     style="fill:#ffac33" />
  <path
     d="m 7.9447343,31.760296 c -2.9,0 -5.543,-0.658 -7.56600001,-1.737 -0.008,0.146 -0.029,0.29 -0.029,0.438 0.001,5.359 14.85699971,5.359 14.85399971,10e-4 0,-0.09 -0.015,-0.177 -0.018,-0.266 -1.977,0.976 -4.496,1.564 -7.2409997,1.564 z"
     id="path18"
     inkscape:connector-curvature="0"
     style="fill:#66757f" />
</svg>
