<?xml version="1.0" encoding="UTF-8" standalone="no"?>
<svg
   xmlns:dc="http://purl.org/dc/elements/1.1/"
   xmlns:cc="http://creativecommons.org/ns#"
   xmlns:rdf="http://www.w3.org/1999/02/22-rdf-syntax-ns#"
   xmlns:svg="http://www.w3.org/2000/svg"
   xmlns="http://www.w3.org/2000/svg"
   xmlns:sodipodi="http://sodipodi.sourceforge.net/DTD/sodipodi-0.dtd"
   xmlns:inkscape="http://www.inkscape.org/namespaces/inkscape"
   viewBox="0 0 36 35.353249"
   id="svg2"
   version="1.1"
   inkscape:version="0.91 r13725"
   sodipodi:docname="1f4fb.svg"
   width="36"
   height="35.353249">
  <metadata
     id="metadata48">
    <rdf:RDF>
      <cc:Work
         rdf:about="">
        <dc:format>image/svg+xml</dc:format>
        <dc:type
           rdf:resource="http://purl.org/dc/dcmitype/StillImage" />
      </cc:Work>
    </rdf:RDF>
  </metadata>
  <defs
     id="defs46" />
  <sodipodi:namedview
     pagecolor="#ffffff"
     bordercolor="#666666"
     borderopacity="1"
     objecttolerance="10"
     gridtolerance="10"
     guidetolerance="10"
     inkscape:pageopacity="0"
     inkscape:pageshadow="2"
     inkscape:window-width="640"
     inkscape:window-height="480"
     id="namedview44"
     showgrid="false"
     inkscape:zoom="6.5555556"
     inkscape:cx="18"
     inkscape:cy="18"
     inkscape:window-x="0"
     inkscape:window-y="0"
     inkscape:window-maximized="0"
     inkscape:current-layer="svg2" />
  <path
     d="m 2.697,11.74225 c -0.391,0.391 -0.391,1.023 0,1.414 0.391,0.391 1.023,0.391 1.414,0 l 9.192,-9.192 c 0.391,-0.391 0.391,-1.023 0,-1.414 -0.391,-0.391 -1.023,-0.391 -1.414,0 l -9.192,9.192 z"
     id="path4"
     inkscape:connector-curvature="0"
     style="fill:#292f33" />
  <path
     d="m 36,31.35325 c 0,4 -4,4 -4,4 l -28,0 c 0,0 -4,0 -4,-4 l 0,-18 c 0,0 0,-4 4,-4 l 28,0 c 4,0 4,4 4,4 l 0,18 z"
     id="path6"
     inkscape:connector-curvature="0"
     style="fill:#99aab5" />
  <path
     d="m 15.561,2.41425 c -0.391,0.391 -1.023,0.391 -1.414,0 l -0.707,-0.707 c -0.391,-0.391 -0.391,-1.023 0,-1.414 0.391,-0.391 1.023,-0.391 1.414,0 l 0.707,0.707 c 0.39,0.39 0.39,1.023 0,1.414 z"
     id="path8"
     inkscape:connector-curvature="0"
     style="fill:#292f33" />
  <circle
     cx="27.5"
     cy="17.853251"
     r="5.5"
     id="circle10"
     style="fill:#292f33" />
  <circle
     cx="27.5"
     cy="28.853251"
     r="3.5"
     id="circle12"
     style="fill:#292f33" />
  <circle
     cx="27.5"
     cy="17.853251"
     r="3.5"
     id="circle14"
     style="fill:#66757f" />
  <circle
     cx="27.5"
     cy="28.853251"
     r="1.5"
     id="circle16"
     style="fill:#66757f" />
  <g
     id="g18"
     style="fill:#292f33"
     transform="translate(0,-0.64675)">
    <circle
       cx="10.5"
       cy="25.5"
       r="1.5"
       id="circle20" />
    <circle
       cx="5.5"
       cy="25.5"
       r="1.5"
       id="circle22" />
    <circle
       cx="10.5"
       cy="20.5"
       r="1.5"
       id="circle24" />
    <circle
       cx="15.5"
       cy="20.5"
       r="1.5"
       id="circle26" />
    <circle
       cx="15.5"
       cy="25.5"
       r="1.5"
       id="circle28" />
    <circle
       cx="15.5"
       cy="30.5"
       r="1.5"
       id="circle30" />
    <circle
       cx="5.5"
       cy="30.5"
       r="1.5"
       id="circle32" />
    <circle
       cx="5.5"
       cy="20.5"
       r="1.5"
       id="circle34" />
    <circle
       cx="10.5"
       cy="15.5"
       r="1.5"
       id="circle36" />
    <circle
       cx="15.5"
       cy="15.5"
       r="1.5"
       id="circle38" />
    <circle
       cx="5.5"
       cy="15.5"
       r="1.5"
       id="circle40" />
    <circle
       cx="10.5"
       cy="30.5"
       r="1.5"
       id="circle42" />
  </g>
</svg>
