<?xml version="1.0" encoding="UTF-8" standalone="no"?>
<svg
   xmlns:dc="http://purl.org/dc/elements/1.1/"
   xmlns:cc="http://creativecommons.org/ns#"
   xmlns:rdf="http://www.w3.org/1999/02/22-rdf-syntax-ns#"
   xmlns:svg="http://www.w3.org/2000/svg"
   xmlns="http://www.w3.org/2000/svg"
   xmlns:sodipodi="http://sodipodi.sourceforge.net/DTD/sodipodi-0.dtd"
   xmlns:inkscape="http://www.inkscape.org/namespaces/inkscape"
   viewBox="0 0 28 34"
   id="svg2"
   version="1.1"
   inkscape:version="0.91 r13725"
   sodipodi:docname="1f509.svg"
   width="28"
   height="34">
  <metadata
     id="metadata14">
    <rdf:RDF>
      <cc:Work
         rdf:about="">
        <dc:format>image/svg+xml</dc:format>
        <dc:type
           rdf:resource="http://purl.org/dc/dcmitype/StillImage" />
      </cc:Work>
    </rdf:RDF>
  </metadata>
  <defs
     id="defs12" />
  <sodipodi:namedview
     pagecolor="#ffffff"
     bordercolor="#666666"
     borderopacity="1"
     objecttolerance="10"
     gridtolerance="10"
     guidetolerance="10"
     inkscape:pageopacity="0"
     inkscape:pageshadow="2"
     inkscape:window-width="640"
     inkscape:window-height="480"
     id="namedview10"
     showgrid="false"
     inkscape:zoom="6.5555556"
     inkscape:cx="13"
     inkscape:cy="17"
     inkscape:window-x="0"
     inkscape:window-y="0"
     inkscape:window-maximized="0"
     inkscape:current-layer="svg2" />
  <path
     d="M 2,9 C 2,9 0,9 0,11 l 0,12 c 0,2 2,2 2,2 l 6,0 8,8 c 0,0 1,1 2,1 l 1,0 c 0,0 1,0 1,-1 L 20,1 C 20,1 20,0 19,0 L 18,0 C 17,0 16,1 16,1 L 8,9 2,9 Z"
     id="path4"
     inkscape:connector-curvature="0"
     style="fill:#8899a6" />
  <path
     d="m 8,25 8,8 c 0,0 1,1 2,1 l 1,0 c 0,0 1,0 1,-1 L 20,1 C 20,1 20,0 19,0 L 18,0 C 17,0 16,1 16,1 L 8,9 8,25 Z"
     id="path6"
     inkscape:connector-curvature="0"
     style="fill:#ccd6dd" />
  <path
     d="m 23.709,24.959 c -0.289,0 -0.576,-0.124 -0.774,-0.365 -0.351,-0.427 -0.289,-1.057 0.138,-1.407 C 24.934,21.658 26,19.403 26,17 26,14.565 24.911,12.292 23.012,10.764 22.581,10.418 22.514,9.788 22.86,9.358 23.208,8.929 23.836,8.859 24.266,9.206 26.639,11.116 28,13.957 28,17 c 0,3.004 -1.333,5.822 -3.657,7.731 -0.186,0.154 -0.411,0.228 -0.634,0.228 z"
     id="path8"
     inkscape:connector-curvature="0"
     style="fill:#8899a6" />
</svg>
