<?xml version="1.0" encoding="UTF-8" standalone="no"?>
<svg
   xmlns:dc="http://purl.org/dc/elements/1.1/"
   xmlns:cc="http://creativecommons.org/ns#"
   xmlns:rdf="http://www.w3.org/1999/02/22-rdf-syntax-ns#"
   xmlns:svg="http://www.w3.org/2000/svg"
   xmlns="http://www.w3.org/2000/svg"
   xmlns:sodipodi="http://sodipodi.sourceforge.net/DTD/sodipodi-0.dtd"
   xmlns:inkscape="http://www.inkscape.org/namespaces/inkscape"
   viewBox="0 0 30 30"
   id="svg2"
   version="1.1"
   inkscape:version="0.91 r13725"
   sodipodi:docname="1f505.svg"
   width="30"
   height="30">
  <metadata
     id="metadata22">
    <rdf:RDF>
      <cc:Work
         rdf:about="">
        <dc:format>image/svg+xml</dc:format>
        <dc:type
           rdf:resource="http://purl.org/dc/dcmitype/StillImage" />
      </cc:Work>
    </rdf:RDF>
  </metadata>
  <defs
     id="defs20" />
  <sodipodi:namedview
     pagecolor="#ffffff"
     bordercolor="#666666"
     borderopacity="1"
     objecttolerance="10"
     gridtolerance="10"
     guidetolerance="10"
     inkscape:pageopacity="0"
     inkscape:pageshadow="2"
     inkscape:window-width="640"
     inkscape:window-height="480"
     id="namedview18"
     showgrid="false"
     inkscape:zoom="6.5555556"
     inkscape:cx="15"
     inkscape:cy="15"
     inkscape:window-x="0"
     inkscape:window-y="0"
     inkscape:window-maximized="0"
     inkscape:current-layer="svg2" />
  <path
     d="M 15,5 C 9.477,5 5,9.477 5,15 5,20.523 9.477,25 15,25 20.523,25 25,20.523 25,15 25,9.477 20.523,5 15,5 Z m 0,16 c -3.314,0 -6,-2.685 -6,-6 0,-3.313 2.686,-6 6,-6 3.314,0 6,2.687 6,6 0,3.315 -2.687,6 -6,6 z"
     id="path4"
     inkscape:connector-curvature="0"
     style="fill:#ffac33" />
  <circle
     cx="15"
     cy="2"
     r="2"
     id="circle6"
     style="fill:#ffac33" />
  <circle
     cx="15"
     cy="28"
     r="2"
     id="circle8"
     style="fill:#ffac33" />
  <path
     d="m 7.222,4.394 c -0.781,-0.781 -2.047,-0.781 -2.828,0 -0.781,0.781 -0.781,2.047 0,2.829 0.781,0.781 2.047,0.781 2.828,0 0.781,-0.782 0.781,-2.048 0,-2.829 z m 18.384,18.384 c 0.781,0.78 0.781,2.048 0,2.828 -0.781,0.781 -2.047,0.78 -2.828,0 -0.781,-0.781 -0.781,-2.047 0,-2.828 0.782,-0.78 2.047,-0.781 2.828,0 z"
     id="path10"
     inkscape:connector-curvature="0"
     style="fill:#ffac33" />
  <circle
     cx="2"
     cy="15"
     r="2"
     id="circle12"
     style="fill:#ffac33" />
  <circle
     cx="28"
     cy="15"
     r="2"
     id="circle14"
     style="fill:#ffac33" />
  <path
     d="m 25.605,7.222 c 0.781,-0.781 0.781,-2.047 0.001,-2.828 -0.781,-0.781 -2.048,-0.781 -2.829,0 -0.78,0.781 -0.781,2.047 0,2.828 0.782,0.781 2.048,0.781 2.828,0 z M 7.222,25.606 c -0.781,0.781 -2.047,0.781 -2.828,0 -0.781,-0.781 -0.781,-2.047 0,-2.828 0.781,-0.781 2.047,-0.781 2.828,0 0.78,0.782 0.781,2.047 0,2.828 z"
     id="path16"
     inkscape:connector-curvature="0"
     style="fill:#ffac33" />
</svg>
