<?xml version="1.0" encoding="UTF-8" standalone="no"?>
<svg
   xmlns:dc="http://purl.org/dc/elements/1.1/"
   xmlns:cc="http://creativecommons.org/ns#"
   xmlns:rdf="http://www.w3.org/1999/02/22-rdf-syntax-ns#"
   xmlns:svg="http://www.w3.org/2000/svg"
   xmlns="http://www.w3.org/2000/svg"
   xmlns:sodipodi="http://sodipodi.sourceforge.net/DTD/sodipodi-0.dtd"
   xmlns:inkscape="http://www.inkscape.org/namespaces/inkscape"
   viewBox="0 0 24 36"
   id="svg2"
   version="1.1"
   inkscape:version="0.91 r13725"
   sodipodi:docname="1f50b.svg"
   width="24"
   height="36">
  <metadata
     id="metadata16">
    <rdf:RDF>
      <cc:Work
         rdf:about="">
        <dc:format>image/svg+xml</dc:format>
        <dc:type
           rdf:resource="http://purl.org/dc/dcmitype/StillImage" />
      </cc:Work>
    </rdf:RDF>
  </metadata>
  <defs
     id="defs14" />
  <sodipodi:namedview
     pagecolor="#ffffff"
     bordercolor="#666666"
     borderopacity="1"
     objecttolerance="10"
     gridtolerance="10"
     guidetolerance="10"
     inkscape:pageopacity="0"
     inkscape:pageshadow="2"
     inkscape:window-width="640"
     inkscape:window-height="480"
     id="namedview12"
     showgrid="false"
     inkscape:zoom="6.5555556"
     inkscape:cx="12"
     inkscape:cy="18"
     inkscape:window-x="0"
     inkscape:window-y="0"
     inkscape:window-maximized="0"
     inkscape:current-layer="svg2" />
  <path
     d="m 18,4 c 0,2.209 -1.791,4 -4,4 L 10,8 C 7.791,8 6,6.209 6,4 6,1.791 7.791,0 10,0 l 4,0 c 2.209,0 4,1.791 4,4 z"
     id="path4"
     inkscape:connector-curvature="0"
     style="fill:#ccd6dd" />
  <path
     d="m 24,32 c 0,2.209 -1.791,4 -4,4 L 4,36 C 1.791,36 0,34.209 0,32 L 0,8 C 0,5.791 1.791,4 4,4 l 16,0 c 2.209,0 4,1.791 4,4 l 0,24 z"
     id="path6"
     inkscape:connector-curvature="0"
     style="fill:#e1e8ed" />
  <path
     d="M 0,8 24,8 24,32 0,32 Z"
     id="path8"
     inkscape:connector-curvature="0"
     style="fill:#77b255" />
  <path
     d="m 17,14 -3,0 0,-3 c 0,-0.552 -0.447,-1 -1,-1 l -2,0 c -0.552,0 -1,0.448 -1,1 l 0,3 -3,0 c -0.553,0 -1,0.448 -1,1 l 0,2 c 0,0.553 0.447,1 1,1 l 3,0 0,3 c 0,0.553 0.448,1 1,1 l 2,0 c 0.553,0 1,-0.447 1,-1 l 0,-3 3,0 c 0.553,0 1,-0.447 1,-1 l 0,-2 c 0,-0.552 -0.447,-1 -1,-1 z M 7,30 C 6.447,30 6,29.553 6,29 l 0,-2 c 0,-0.553 0.447,-1 1,-1 l 10,0 c 0.553,0 1,0.447 1,1 l 0,2 c 0,0.553 -0.447,1 -1,1 L 7,30 Z"
     id="path10"
     inkscape:connector-curvature="0"
     style="fill:#f5f8fa" />
</svg>
