<?xml version="1.0" encoding="UTF-8" standalone="no"?>
<svg
   xmlns:dc="http://purl.org/dc/elements/1.1/"
   xmlns:cc="http://creativecommons.org/ns#"
   xmlns:rdf="http://www.w3.org/1999/02/22-rdf-syntax-ns#"
   xmlns:svg="http://www.w3.org/2000/svg"
   xmlns="http://www.w3.org/2000/svg"
   xmlns:sodipodi="http://sodipodi.sourceforge.net/DTD/sodipodi-0.dtd"
   xmlns:inkscape="http://www.inkscape.org/namespaces/inkscape"
   viewBox="0 0 35.945999 34"
   id="svg2"
   version="1.1"
   inkscape:version="0.91 r13725"
   sodipodi:docname="1f50a.svg"
   width="35.945999"
   height="34">
  <metadata
     id="metadata18">
    <rdf:RDF>
      <cc:Work
         rdf:about="">
        <dc:format>image/svg+xml</dc:format>
        <dc:type
           rdf:resource="http://purl.org/dc/dcmitype/StillImage" />
      </cc:Work>
    </rdf:RDF>
  </metadata>
  <defs
     id="defs16" />
  <sodipodi:namedview
     pagecolor="#ffffff"
     bordercolor="#666666"
     borderopacity="1"
     objecttolerance="10"
     gridtolerance="10"
     guidetolerance="10"
     inkscape:pageopacity="0"
     inkscape:pageshadow="2"
     inkscape:window-width="640"
     inkscape:window-height="480"
     id="namedview14"
     showgrid="false"
     inkscape:zoom="6.5555556"
     inkscape:cx="18"
     inkscape:cy="17"
     inkscape:window-x="0"
     inkscape:window-y="0"
     inkscape:window-maximized="0"
     inkscape:current-layer="svg2" />
  <path
     d="M 2,9 C 2,9 0,9 0,11 l 0,12 c 0,2 2,2 2,2 l 6,0 8,8 c 0,0 1,1 2,1 l 1,0 c 0,0 1,0 1,-1 L 20,1 C 20,1 20,0 19,0 L 18,0 C 17,0 16,1 16,1 L 8,9 2,9 Z"
     id="path4"
     inkscape:connector-curvature="0"
     style="fill:#8899a6" />
  <path
     d="m 8,25 8,8 c 0,0 1,1 2,1 l 1,0 c 0,0 1,0 1,-1 L 20,1 C 20,1 20,0 19,0 L 18,0 C 17,0 16,1 16,1 L 8,9 8,25 Z"
     id="path6"
     inkscape:connector-curvature="0"
     style="fill:#ccd6dd" />
  <path
     d="m 29,31.019 c -0.267,0 -0.533,-0.113 -0.72,-0.332 -0.339,-0.398 -0.292,-0.995 0.105,-1.334 3.603,-3.071 5.668,-7.551 5.668,-12.29 0,-4.739 -2.066,-9.219 -5.669,-12.29 C 27.987,4.434 27.94,3.836 28.279,3.439 28.618,3.04 29.214,2.995 29.613,3.333 c 4.024,3.431 6.333,8.436 6.333,13.73 0,5.294 -2.309,10.299 -6.332,13.729 -0.179,0.152 -0.396,0.227 -0.614,0.227 z"
     id="path8"
     inkscape:connector-curvature="0"
     style="fill:#8899a6" />
  <path
     d="m 26.27,27.959 c -0.269,0 -0.533,-0.115 -0.717,-0.338 -0.327,-0.396 -0.271,-0.98 0.125,-1.307 2.792,-2.304 4.394,-5.699 4.394,-9.315 0,-3.573 -1.571,-6.943 -4.311,-9.245 -0.392,-0.33 -0.443,-0.916 -0.113,-1.308 0.33,-0.394 0.915,-0.443 1.309,-0.114 3.16,2.656 4.973,6.543 4.973,10.667 0,4.172 -1.848,8.089 -5.069,10.746 -0.174,0.145 -0.383,0.214 -0.591,0.214 z"
     id="path10"
     inkscape:connector-curvature="0"
     style="fill:#8899a6" />
  <path
     d="m 23.709,24.959 c -0.289,0 -0.576,-0.124 -0.774,-0.365 -0.351,-0.427 -0.289,-1.057 0.138,-1.407 C 24.934,21.658 26,19.403 26,17 26,14.565 24.911,12.292 23.012,10.764 22.581,10.418 22.514,9.788 22.86,9.358 23.208,8.929 23.836,8.859 24.266,9.206 26.639,11.116 28,13.957 28,17 c 0,3.004 -1.333,5.822 -3.657,7.731 -0.186,0.154 -0.411,0.228 -0.634,0.228 z"
     id="path12"
     inkscape:connector-curvature="0"
     style="fill:#8899a6" />
</svg>
