<?xml version="1.0" encoding="UTF-8" standalone="no"?>
<svg
   xmlns:dc="http://purl.org/dc/elements/1.1/"
   xmlns:cc="http://creativecommons.org/ns#"
   xmlns:rdf="http://www.w3.org/1999/02/22-rdf-syntax-ns#"
   xmlns:svg="http://www.w3.org/2000/svg"
   xmlns="http://www.w3.org/2000/svg"
   xmlns:sodipodi="http://sodipodi.sourceforge.net/DTD/sodipodi-0.dtd"
   xmlns:inkscape="http://www.inkscape.org/namespaces/inkscape"
   viewBox="0 0 36 36"
   id="svg2"
   version="1.1"
   inkscape:version="0.91 r13725"
   sodipodi:docname="1f51e.svg"
   width="36"
   height="36">
  <metadata
     id="metadata14">
    <rdf:RDF>
      <cc:Work
         rdf:about="">
        <dc:format>image/svg+xml</dc:format>
        <dc:type
           rdf:resource="http://purl.org/dc/dcmitype/StillImage" />
      </cc:Work>
    </rdf:RDF>
  </metadata>
  <defs
     id="defs12" />
  <sodipodi:namedview
     pagecolor="#ffffff"
     bordercolor="#666666"
     borderopacity="1"
     objecttolerance="10"
     gridtolerance="10"
     guidetolerance="10"
     inkscape:pageopacity="0"
     inkscape:pageshadow="2"
     inkscape:window-width="640"
     inkscape:window-height="480"
     id="namedview10"
     showgrid="false"
     inkscape:zoom="6.5555556"
     inkscape:cx="18"
     inkscape:cy="18"
     inkscape:window-x="0"
     inkscape:window-y="0"
     inkscape:window-maximized="0"
     inkscape:current-layer="svg2" />
  <path
     d="m 34.999,17.999 c 0,9.389 -7.611,17 -17,17 -9.389,0 -17,-7.611 -17,-17 0,-9.389 7.611,-17 17,-17 9.389,0 17,7.611 17,17"
     id="path4"
     inkscape:connector-curvature="0" />
  <path
     d="m 9.521,12.245 -1.671,0 c -1.358,0 -1.924,-0.991 -1.924,-1.953 0,-0.99 0.707,-1.952 1.924,-1.952 l 4.019,0 c 1.217,0 1.896,0.876 1.896,2.007 l 0,16.104 c 0,1.414 -0.906,2.207 -2.122,2.207 -1.216,0 -2.122,-0.793 -2.122,-2.207 l 0,-14.206 z m 7.307,10.13 c 0,-2.264 1.245,-3.934 3.027,-4.895 -1.33,-0.963 -2.15,-2.265 -2.15,-4.047 0,-3.312 2.745,-5.434 6.112,-5.434 3.283,0 6.14,2.093 6.14,5.434 0,1.583 -0.791,3.17 -2.178,4.047 1.924,0.96 3.027,2.715 3.027,4.895 0,3.934 -3.197,6.451 -6.989,6.451 -3.906,0 -6.989,-2.658 -6.989,-6.451 z m 4.413,-0.283 c 0,1.443 0.849,2.832 2.575,2.832 1.612,0 2.576,-1.389 2.576,-2.832 0,-1.783 -1.02,-2.83 -2.576,-2.83 -1.641,0 -2.575,1.246 -2.575,2.83 z m 0.538,-8.206 c 0,1.274 0.736,2.151 2.037,2.151 1.302,0 2.066,-0.877 2.066,-2.151 0,-1.217 -0.736,-2.151 -2.066,-2.151 -1.33,0 -2.037,0.934 -2.037,2.151 z"
     id="path6"
     inkscape:connector-curvature="0"
     style="fill:#f5f8fa" />
  <path
     d="M 18,0 C 8.059,0 0,8.06 0,18 0,27.941 8.059,36 18,36 27.941,36 36,27.941 36,18 36,8.06 27.941,0 18,0 Z m 16,18 c 0,3.969 -1.453,7.592 -3.845,10.389 L 7.612,5.845 C 10.409,3.453 14.032,2 18,2 26.837,2 34,9.164 34,18 Z M 2,18 C 2,14.032 3.453,10.409 5.844,7.613 L 28.387,30.156 C 25.591,32.548 21.968,34 18,34 9.164,34 2,26.837 2,18 Z"
     id="path8"
     inkscape:connector-curvature="0"
     style="fill:#dd2e44" />
</svg>
