<?xml version="1.0" encoding="UTF-8" standalone="no"?>
<svg
   xmlns:dc="http://purl.org/dc/elements/1.1/"
   xmlns:cc="http://creativecommons.org/ns#"
   xmlns:rdf="http://www.w3.org/1999/02/22-rdf-syntax-ns#"
   xmlns:svg="http://www.w3.org/2000/svg"
   xmlns="http://www.w3.org/2000/svg"
   xmlns:sodipodi="http://sodipodi.sourceforge.net/DTD/sodipodi-0.dtd"
   xmlns:inkscape="http://www.inkscape.org/namespaces/inkscape"
   viewBox="0 0 35.943001 35.471535"
   id="svg2"
   version="1.1"
   inkscape:version="0.91 r13725"
   sodipodi:docname="1f51d.svg"
   width="35.943001"
   height="35.471535">
  <metadata
     id="metadata10">
    <rdf:RDF>
      <cc:Work
         rdf:about="">
        <dc:format>image/svg+xml</dc:format>
        <dc:type
           rdf:resource="http://purl.org/dc/dcmitype/StillImage" />
      </cc:Work>
    </rdf:RDF>
  </metadata>
  <defs
     id="defs8" />
  <sodipodi:namedview
     pagecolor="#ffffff"
     bordercolor="#666666"
     borderopacity="1"
     objecttolerance="10"
     gridtolerance="10"
     guidetolerance="10"
     inkscape:pageopacity="0"
     inkscape:pageshadow="2"
     inkscape:window-width="640"
     inkscape:window-height="480"
     id="namedview6"
     showgrid="false"
     inkscape:zoom="6.5555556"
     inkscape:cx="17.943"
     inkscape:cy="17.471"
     inkscape:window-x="0"
     inkscape:window-y="0"
     inkscape:window-maximized="0"
     inkscape:current-layer="svg2" />
  <path
     d="M 25.654,10.867534 18.722,0.65253351 c -0.602,-0.885 -1.558,-0.867 -2.127,0.037 L 10.205,10.830534 c -0.569,0.904 -0.181,1.644 0.865,1.644 l 1.873,0 0,3.526 c 0,1.104 0.896,2 2,2 l 6,0 c 1.105,0 2,-0.896 2,-2 l 0,-3.525 1.898,0 c 1.047,0 1.414,-0.723 0.813,-1.608 z m -22.06,12.708 -2.213,0 c -0.975,0 -1.381,-0.712 -1.381,-1.401 0,-0.71 0.508,-1.399 1.381,-1.399 l 7.469,0 c 0.874,0 1.381,0.689 1.381,1.399 0,0.69 -0.406,1.401 -1.381,1.401 l -2.211,0 0,10.189 c 0,1.016 -0.649,1.584 -1.522,1.584 -0.873,0 -1.522,-0.568 -1.522,-1.584 l 0,-10.189 z m 6.745,4.425 c 0,-4.222 2.841,-7.471 6.982,-7.471 4.079,0 6.983,3.351 6.983,7.471 0,4.201 -2.821,7.471 -6.983,7.471 -4.121,0 -6.982,-3.27 -6.982,-7.471 z m 10.798,0 c 0,-2.456 -1.279,-4.67 -3.816,-4.67 -2.537,0 -3.816,2.214 -3.816,4.67 0,2.476 1.239,4.668 3.816,4.668 2.578,0 3.816,-2.192 3.816,-4.668 z m 4.433,-5.644 c 0,-0.954 0.569,-1.582 1.585,-1.582 l 3.591,0 c 2.985,0 5.197,1.947 5.197,4.851 0,2.963 -2.293,4.811 -5.074,4.811 l -2.253,0 0,3.329 c 0,1.016 -0.649,1.584 -1.521,1.584 -0.874,0 -1.524,-0.568 -1.524,-1.584 l 0,-11.409 z m 3.046,5.4 2.071,0 c 1.277,0 2.089,-0.934 2.089,-2.151 0,-1.219 -0.812,-2.152 -2.089,-2.152 l -2.071,0 0,4.303 z"
     id="path4"
     inkscape:connector-curvature="0"
     style="fill:#31373d" />
</svg>
