<?xml version="1.0" encoding="UTF-8" standalone="no"?>
<svg
   xmlns:dc="http://purl.org/dc/elements/1.1/"
   xmlns:cc="http://creativecommons.org/ns#"
   xmlns:rdf="http://www.w3.org/1999/02/22-rdf-syntax-ns#"
   xmlns:svg="http://www.w3.org/2000/svg"
   xmlns="http://www.w3.org/2000/svg"
   xmlns:sodipodi="http://sodipodi.sourceforge.net/DTD/sodipodi-0.dtd"
   xmlns:inkscape="http://www.inkscape.org/namespaces/inkscape"
   viewBox="0 0 34.860996 35.728249"
   id="svg2"
   version="1.1"
   inkscape:version="0.91 r13725"
   sodipodi:docname="1f511.svg"
   width="34.860996"
   height="35.728249">
  <metadata
     id="metadata10">
    <rdf:RDF>
      <cc:Work
         rdf:about="">
        <dc:format>image/svg+xml</dc:format>
        <dc:type
           rdf:resource="http://purl.org/dc/dcmitype/StillImage" />
      </cc:Work>
    </rdf:RDF>
  </metadata>
  <defs
     id="defs8" />
  <sodipodi:namedview
     pagecolor="#ffffff"
     bordercolor="#666666"
     borderopacity="1"
     objecttolerance="10"
     gridtolerance="10"
     guidetolerance="10"
     inkscape:pageopacity="0"
     inkscape:pageshadow="2"
     inkscape:window-width="640"
     inkscape:window-height="480"
     id="namedview6"
     showgrid="false"
     inkscape:zoom="6.5555556"
     inkscape:cx="17.019621"
     inkscape:cy="17.91425"
     inkscape:window-x="0"
     inkscape:window-y="0"
     inkscape:window-maximized="0"
     inkscape:current-layer="svg2" />
  <path
     d="m 31.633621,3.228 c -4.304,-4.304 -11.282,-4.304 -15.587,0 -3.391,3.392 -4.098,8.439 -2.144,12.535 l -3.9159996,3.915 c -0.64,0.641 -0.841,1.543 -0.625,2.359 l -1.973,1.972 c -0.479,-0.48 -1.252,-0.48 -1.731,0 l -1.731,1.732 c -0.479,0.479 -0.479,1.253 0,1.732 l -0.867,0.864 c -0.479,-0.478 -1.253,-0.478 -1.731,0 l -0.86599997,0.867 c -0.479,0.479 -0.479,1.253 0,1.732 0.015,0.016 0.036,0.02 0.051,0.033 -0.794,1.189 -0.668,2.812 0.382,3.863 1.19499997,1.195 3.13399997,1.195 4.32899997,0 L 19.099621,20.958 c 4.097,1.955 9.144,1.247 12.535,-2.146 4.302,-4.302 4.302,-11.28 -10e-4,-15.584 z m -1.731,5.195 c -0.957,0.956 -2.509,0.956 -3.464,0 -0.956,-0.956 -0.956,-2.507 0,-3.464 0.955,-0.956 2.507,-0.956 3.464,0 0.956,0.957 0.956,2.508 0,3.464 z"
     id="path4"
     inkscape:connector-curvature="0"
     style="fill:#c1694f" />
</svg>
