<?xml version="1.0" encoding="UTF-8" standalone="no"?>
<svg
   xmlns:dc="http://purl.org/dc/elements/1.1/"
   xmlns:cc="http://creativecommons.org/ns#"
   xmlns:rdf="http://www.w3.org/1999/02/22-rdf-syntax-ns#"
   xmlns:svg="http://www.w3.org/2000/svg"
   xmlns="http://www.w3.org/2000/svg"
   xmlns:sodipodi="http://sodipodi.sourceforge.net/DTD/sodipodi-0.dtd"
   xmlns:inkscape="http://www.inkscape.org/namespaces/inkscape"
   viewBox="0 0 35 36"
   id="svg2"
   version="1.1"
   inkscape:version="0.91 r13725"
   sodipodi:docname="1f510.svg"
   width="35"
   height="36">
  <metadata
     id="metadata14">
    <rdf:RDF>
      <cc:Work
         rdf:about="">
        <dc:format>image/svg+xml</dc:format>
        <dc:type
           rdf:resource="http://purl.org/dc/dcmitype/StillImage" />
      </cc:Work>
    </rdf:RDF>
  </metadata>
  <defs
     id="defs12" />
  <sodipodi:namedview
     pagecolor="#ffffff"
     bordercolor="#666666"
     borderopacity="1"
     objecttolerance="10"
     gridtolerance="10"
     guidetolerance="10"
     inkscape:pageopacity="0"
     inkscape:pageshadow="2"
     inkscape:window-width="640"
     inkscape:window-height="480"
     id="namedview10"
     showgrid="false"
     inkscape:zoom="6.5555556"
     inkscape:cx="18"
     inkscape:cy="18"
     inkscape:window-x="0"
     inkscape:window-y="0"
     inkscape:window-maximized="0"
     inkscape:current-layer="svg2" />
  <path
     d="M 13,3 C 7.477,3 3,7.477 3,13 l 0,10 4,0 0,-10 c 0,-3.313 2.687,-6 6,-6 3.313,0 6,2.687 6,6 l 0,10 4,0 0,-10 C 23,7.477 18.523,3 13,3 Z"
     id="path4"
     inkscape:connector-curvature="0"
     style="fill:#aab8c2" />
  <path
     d="m 26,32 c 0,2.209 -1.791,4 -4,4 L 4,36 C 1.791,36 0,34.209 0,32 L 0,20 c 0,-2.209 1.791,-4 4,-4 l 18,0 c 2.209,0 4,1.791 4,4 l 0,12 z"
     id="path6"
     inkscape:connector-curvature="0"
     style="fill:#ffac33" />
  <path
     d="m 35,9 c 0,-4.971 -4.029,-9 -9,-9 -4.971,0 -9,4.029 -9,9 0,3.917 2.507,7.24 6,8.477 L 23,33.5 c 0,1.381 1.119,2.5 2.5,2.5 1.213,0 2.223,-0.864 2.45,-2.01 0.018,10e-4 0.032,0.01 0.05,0.01 0.553,0 1,-0.447 1,-1 l 0,-1 c 0,-0.553 -0.447,-1 -1,-1 l 0,-1 c 0.553,0 1,-0.447 1,-1 l 0,-2 c 0,-0.553 -0.447,-1 -1,-1 l 0,-2.277 C 28.596,23.376 29,22.739 29,22 l 0,-4.523 C 32.493,16.241 35,12.918 35,9 Z M 26,2 c 1.104,0 2,0.896 2,2 0,1.104 -0.896,2 -2,2 -1.104,0 -2,-0.896 -2,-2 0,-1.104 0.896,-2 2,-2 z"
     id="path8"
     inkscape:connector-curvature="0"
     style="fill:#c1694f" />
</svg>
