<?xml version="1.0" encoding="UTF-8" standalone="no"?>
<svg
   xmlns:dc="http://purl.org/dc/elements/1.1/"
   xmlns:cc="http://creativecommons.org/ns#"
   xmlns:rdf="http://www.w3.org/1999/02/22-rdf-syntax-ns#"
   xmlns:svg="http://www.w3.org/2000/svg"
   xmlns="http://www.w3.org/2000/svg"
   xmlns:sodipodi="http://sodipodi.sourceforge.net/DTD/sodipodi-0.dtd"
   xmlns:inkscape="http://www.inkscape.org/namespaces/inkscape"
   viewBox="0 0 35.488335 35.333332"
   id="svg2"
   version="1.1"
   inkscape:version="0.91 r13725"
   sodipodi:docname="1f517.svg"
   width="35.488335"
   height="35.333332">
  <metadata
     id="metadata12">
    <rdf:RDF>
      <cc:Work
         rdf:about="">
        <dc:format>image/svg+xml</dc:format>
        <dc:type
           rdf:resource="http://purl.org/dc/dcmitype/StillImage" />
      </cc:Work>
    </rdf:RDF>
  </metadata>
  <defs
     id="defs10" />
  <sodipodi:namedview
     pagecolor="#ffffff"
     bordercolor="#666666"
     borderopacity="1"
     objecttolerance="10"
     gridtolerance="10"
     guidetolerance="10"
     inkscape:pageopacity="0"
     inkscape:pageshadow="2"
     inkscape:window-width="640"
     inkscape:window-height="480"
     id="namedview8"
     showgrid="false"
     inkscape:zoom="6.5555556"
     inkscape:cx="17.821667"
     inkscape:cy="17.666667"
     inkscape:window-x="0"
     inkscape:window-y="0"
     inkscape:window-maximized="0"
     inkscape:current-layer="svg2" />
  <path
     d="m 14.821667,8.6666667 6,-6 c 0,0 6,-6 12,0 6,6 0,12.0000003 0,12.0000003 l -8,8 c 0,0 -6,6 -12,0 -1.125,-1.125 -1.822,-2.62 -1.822,-2.62 l 3.353,-3.348 c 0,0 -0.135,1.364 1.469,2.968 0,0 3,3 6,0 l 8,-8 c 0,0 3,-3.0000003 0,-6.0000003 -3,-3 -6,0 -6,0 l -3.729,3.729 c 0,0 -1.854,-1.521 -5.646,-0.354 l 0.375,-0.375 z"
     id="path4"
     inkscape:connector-curvature="0"
     style="fill:#8899a6" />
  <path
     d="m 20.666667,26.666667 -6,6 c 0,0 -6.0000003,6 -12.0000003,0 -6,-6 0,-12 0,-12 l 8.0000003,-8 c 0,0 6,-6.0000003 12,0 1.125,1.125 1.822,2.62 1.822,2.62 l -3.354,3.349 c 0,0 0.135,-1.365 -1.469,-2.969 0,0 -3,-3 -6,0 l -8.0000003,8 c 0,0 -3,3 0,6 3,3 6.0000003,0 6.0000003,0 l 3.729,-3.729 c 0,0 1.854,1.521 5.646,0.354 l -0.374,0.375 z"
     id="path6"
     inkscape:connector-curvature="0"
     style="fill:#8899a6" />
</svg>
