<?xml version="1.0" encoding="UTF-8" standalone="no"?>
<svg
   xmlns:dc="http://purl.org/dc/elements/1.1/"
   xmlns:cc="http://creativecommons.org/ns#"
   xmlns:rdf="http://www.w3.org/1999/02/22-rdf-syntax-ns#"
   xmlns:svg="http://www.w3.org/2000/svg"
   xmlns="http://www.w3.org/2000/svg"
   xmlns:sodipodi="http://sodipodi.sourceforge.net/DTD/sodipodi-0.dtd"
   xmlns:inkscape="http://www.inkscape.org/namespaces/inkscape"
   viewBox="0 0 36 36"
   id="svg2"
   version="1.1"
   inkscape:version="0.91 r13725"
   sodipodi:docname="1f522.svg"
   width="36"
   height="36">
  <metadata
     id="metadata12">
    <rdf:RDF>
      <cc:Work
         rdf:about="">
        <dc:format>image/svg+xml</dc:format>
        <dc:type
           rdf:resource="http://purl.org/dc/dcmitype/StillImage" />
      </cc:Work>
    </rdf:RDF>
  </metadata>
  <defs
     id="defs10" />
  <sodipodi:namedview
     pagecolor="#ffffff"
     bordercolor="#666666"
     borderopacity="1"
     objecttolerance="10"
     gridtolerance="10"
     guidetolerance="10"
     inkscape:pageopacity="0"
     inkscape:pageshadow="2"
     inkscape:window-width="640"
     inkscape:window-height="480"
     id="namedview8"
     showgrid="false"
     inkscape:zoom="6.5555556"
     inkscape:cx="18"
     inkscape:cy="18"
     inkscape:window-x="0"
     inkscape:window-y="0"
     inkscape:window-maximized="0"
     inkscape:current-layer="svg2" />
  <path
     d="m 36,32 c 0,2.209 -1.791,4 -4,4 L 4,36 C 1.791,36 0,34.209 0,32 L 0,4 C 0,1.791 1.791,0 4,0 l 28,0 c 2.209,0 4,1.791 4,4 l 0,28 z"
     id="path4"
     inkscape:connector-curvature="0"
     style="fill:#3b88c3" />
  <path
     d="m 9.613,6.096 -1.121,0 C 7.58,6.096 7.2,5.431 7.2,4.785 7.2,4.12 7.675,3.474 8.492,3.474 l 2.698,0 c 0.817,0 1.273,0.589 1.273,1.349 l 0,10.81 c 0,0.95 -0.608,1.481 -1.425,1.481 -0.817,0 -1.425,-0.532 -1.425,-1.481 l 0,-9.537 z m 5.129,16.627 c 0,1.196 -0.513,2.241 -1.558,2.906 1.368,0.627 2.318,1.9 2.318,3.4 0,2.28 -2.09,4.198 -4.788,4.198 -2.812,0 -4.559,-2.07 -4.559,-3.571 0,-0.74 0.779,-1.272 1.463,-1.272 1.291,0 0.988,2.223 3.134,2.223 0.988,0 1.786,-0.76 1.786,-1.767 0,-2.66 -3.23,-0.703 -3.23,-2.944 0,-1.995 2.698,-0.646 2.698,-2.755 0,-0.722 -0.513,-1.273 -1.368,-1.273 -1.805,0 -1.558,1.862 -2.85,1.862 -0.779,0 -1.235,-0.703 -1.235,-1.406 0,-1.481 2.033,-3.077 4.142,-3.077 2.736,-0.001 4.047,1.993 4.047,3.476 z m 13.373,-8.231 c 0.836,0 1.48,0.38 1.48,1.254 0,0.874 -0.644,1.254 -1.367,1.254 l -6.346,0 c -0.835,0 -1.48,-0.38 -1.48,-1.254 0,-0.399 0.246,-0.741 0.437,-0.969 1.577,-1.881 3.286,-3.59 4.729,-5.68 0.343,-0.494 0.666,-1.083 0.666,-1.767 0,-0.779 -0.59,-1.463 -1.368,-1.463 -2.185,0 -1.14,3.078 -2.964,3.078 -0.912,0 -1.387,-0.646 -1.387,-1.387 0,-2.394 2.128,-4.312 4.465,-4.312 2.336,0 4.217,1.539 4.217,3.951 0,2.641 -2.944,5.262 -4.559,7.295 l 3.477,0 z m -6.934,15.526 c -0.931,0 -1.33,-0.627 -1.33,-1.121 0,-0.418 0.152,-0.646 0.267,-0.836 l 4.255,-7.713 c 0.418,-0.76 0.95,-1.102 1.938,-1.102 1.102,0 2.184,0.703 2.184,2.432 l 0,5.832 0.323,0 c 0.741,0 1.33,0.494 1.33,1.254 0,0.76 -0.589,1.254 -1.33,1.254 l -0.323,0 0,1.614 c 0,1.007 -0.398,1.483 -1.367,1.483 -0.969,0 -1.368,-0.476 -1.368,-1.483 l 0,-1.614 -4.579,0 z m 4.578,-7.808 -0.038,0 -2.564,5.3 2.603,0 0,-5.3 z"
     id="path6"
     inkscape:connector-curvature="0"
     style="fill:#ffffff" />
</svg>
