<?xml version="1.0" encoding="UTF-8" standalone="no"?>
<svg
   xmlns:dc="http://purl.org/dc/elements/1.1/"
   xmlns:cc="http://creativecommons.org/ns#"
   xmlns:rdf="http://www.w3.org/1999/02/22-rdf-syntax-ns#"
   xmlns:svg="http://www.w3.org/2000/svg"
   xmlns="http://www.w3.org/2000/svg"
   xmlns:sodipodi="http://sodipodi.sourceforge.net/DTD/sodipodi-0.dtd"
   xmlns:inkscape="http://www.inkscape.org/namespaces/inkscape"
   viewBox="0 0 32.271244 35.872501"
   id="svg2"
   version="1.1"
   inkscape:version="0.91 r13725"
   sodipodi:docname="1f52c.svg"
   width="32.271244"
   height="35.872501">
  <metadata
     id="metadata26">
    <rdf:RDF>
      <cc:Work
         rdf:about="">
        <dc:format>image/svg+xml</dc:format>
        <dc:type
           rdf:resource="http://purl.org/dc/dcmitype/StillImage" />
      </cc:Work>
    </rdf:RDF>
  </metadata>
  <defs
     id="defs24" />
  <sodipodi:namedview
     pagecolor="#ffffff"
     bordercolor="#666666"
     borderopacity="1"
     objecttolerance="10"
     gridtolerance="10"
     guidetolerance="10"
     inkscape:pageopacity="0"
     inkscape:pageshadow="2"
     inkscape:window-width="640"
     inkscape:window-height="480"
     id="namedview22"
     showgrid="false"
     inkscape:zoom="6.5555556"
     inkscape:cx="15.613869"
     inkscape:cy="18"
     inkscape:window-x="0"
     inkscape:window-y="0"
     inkscape:window-maximized="0"
     inkscape:current-layer="svg2" />
  <g
     id="g4"
     style="fill:#66757f"
     transform="translate(-2.3861312,-0.1275)">
    <path
       d="m 19.78,21.345 -6.341,-6.342 -0.389,4.38 2.35,2.351 z"
       id="path6"
       inkscape:connector-curvature="0" />
    <path
       d="m 15.4,22.233 c -0.132,0 -0.259,-0.053 -0.354,-0.146 l -2.351,-2.351 c -0.104,-0.104 -0.158,-0.25 -0.145,-0.397 l 0.389,-4.38 c 0.017,-0.193 0.145,-0.359 0.327,-0.425 0.182,-0.067 0.388,-0.021 0.524,0.116 l 6.341,6.342 c 0.138,0.138 0.183,0.342 0.116,0.524 -0.067,0.182 -0.232,0.31 -0.426,0.327 l -4.379,0.389 -0.042,0.001 z m -1.832,-3.039 2.021,2.021 3.081,-0.273 -4.828,-4.828 -0.274,3.08 z"
       id="path8"
       inkscape:connector-curvature="0" />
  </g>
  <path
     d="m 28.613869,31.8725 -3,0 c 0,-3.314 -2.63,-6 -5.875,-6 -3.244,0 -5.875,2.686 -5.875,6 l -7.5200002,0 c 0,-1.104 -0.895,-2 -2,-2 -1.104,0 -2,0.896 -2,2 -1.104,0 -2,0.896 -2,2 0,1.104 0.896,2 2,2 l 26.2700002,0 c 1.104,0 2,-0.896 2,-2 0,-1.104 -0.896,-2 -2,-2 z"
     id="path10"
     inkscape:connector-curvature="0"
     style="fill:#8899a6" />
  <path
     d="m 17.613869,9.8725 0,4 c 3.866,0 7,3.134 7,7 0,3.866 -3.134,7 -7,7 l -8.4850002,0 c 2.0180002,2.443 5.0690002,4 8.4850002,4 6.075,0 11,-4.925 11,-11 0,-6.075 -4.925,-11 -11,-11 z"
     id="path12"
     inkscape:connector-curvature="0"
     style="fill:#8899a6" />
  <path
     d="m 14.027869,30.2865 c -0.781,0.781 -2.047,0.781 -2.828,0 l -9.8990002,-9.9 c -0.781,-0.781 -0.781,-2.047 0,-2.828 0.781,-0.781 2.047,-0.781 2.829,0 l 9.8990002,9.9 c 0.78,0.781 0.78,2.047 -10e-4,2.828 z m -7.2250002,-1.786 c 0.547,-0.077 1.052,0.304 1.129,0.851 0.077,0.547 -0.305,1.053 -0.851,1.129 l -5.942,0.834 c -0.547,0.077 -1.052,-0.305 -1.129,-0.851 -0.077,-0.547 0.305,-1.053 0.852,-1.13 l 5.941,-0.833 z"
     id="path14"
     inkscape:connector-curvature="0"
     style="fill:#67757f" />
  <path
     d="m 24.954869,2.8525 4.461,4.461 -3.806,3.807 -4.461,-4.461 z"
     id="path16"
     inkscape:connector-curvature="0"
     style="fill:#66757f" />
  <path
     d="m 31.650869,6.9555 c -0.827,0.827 -2.17,0.827 -2.997,0 l -3.339,-3.34 c -0.827,-0.826 -0.827,-2.169 0,-2.996 0.827,-0.826 2.17,-0.826 2.995,0 l 3.342,3.34 c 0.826,0.827 0.826,2.168 -0.001,2.996 z m -14.56,15.026 -6.802,-6.803 c -0.3890002,-0.389 -0.3890002,-1.025 0,-1.414 l 9.858,-9.858 c 0.389,-0.389 1.025,-0.389 1.414,0 l 6.801,6.803 c 0.389,0.389 0.389,1.025 0,1.414 l -9.858,9.858 c -0.388,0.389 -1.024,0.389 -1.413,0 z"
     id="path18"
     inkscape:connector-curvature="0"
     style="fill:#aab8c2" />
  <path
     d="m 11.379869,12.6725 1.638,-1.637 8.216,8.216 -1.638,1.637 z"
     id="path20"
     inkscape:connector-curvature="0"
     style="fill:#e1e8ed" />
</svg>
