<?xml version="1.0" encoding="UTF-8" standalone="no"?>
<svg
   xmlns:dc="http://purl.org/dc/elements/1.1/"
   xmlns:cc="http://creativecommons.org/ns#"
   xmlns:rdf="http://www.w3.org/1999/02/22-rdf-syntax-ns#"
   xmlns:svg="http://www.w3.org/2000/svg"
   xmlns="http://www.w3.org/2000/svg"
   xmlns:sodipodi="http://sodipodi.sourceforge.net/DTD/sodipodi-0.dtd"
   xmlns:inkscape="http://www.inkscape.org/namespaces/inkscape"
   viewBox="0 0 34.706139 34.646168"
   id="svg2"
   version="1.1"
   inkscape:version="0.91 r13725"
   sodipodi:docname="1f52d.svg"
   width="34.706139"
   height="34.646168">
  <metadata
     id="metadata22">
    <rdf:RDF>
      <cc:Work
         rdf:about="">
        <dc:format>image/svg+xml</dc:format>
        <dc:type
           rdf:resource="http://purl.org/dc/dcmitype/StillImage" />
      </cc:Work>
    </rdf:RDF>
  </metadata>
  <defs
     id="defs20" />
  <sodipodi:namedview
     pagecolor="#ffffff"
     bordercolor="#666666"
     borderopacity="1"
     objecttolerance="10"
     gridtolerance="10"
     guidetolerance="10"
     inkscape:pageopacity="0"
     inkscape:pageshadow="2"
     inkscape:window-width="640"
     inkscape:window-height="480"
     id="namedview18"
     showgrid="false"
     inkscape:zoom="6.5555556"
     inkscape:cx="17.411137"
     inkscape:cy="18"
     inkscape:window-x="0"
     inkscape:window-y="0"
     inkscape:window-maximized="0"
     inkscape:current-layer="svg2" />
  <circle
     cx="16.411137"
     cy="18.646166"
     r="3"
     id="circle4"
     style="fill:#9aaab4" />
  <path
     d="m 18.646137,15.705166 c -0.259,0.485 -0.868,0.671 -1.353,0.412 l -12.353,-6.5880001 c -0.485,-0.259 -0.67,-0.868 -0.412,-1.353 l 2.823,-5.295 c 0.259,-0.485 0.868,-0.67 1.353,-0.412 l 12.353,6.588 c 0.485,0.259 0.671,0.868 0.412,1.3530001 l -2.823,5.295 z"
     id="path6"
     inkscape:connector-curvature="0"
     style="fill:#da2f47" />
  <path
     d="m 30.588137,20.939166 c -0.259,0.485 -0.868,0.671 -1.354,0.412 l -9.705,-5.176 c -0.485,-0.259 -0.671,-0.868 -0.412,-1.354 l 1.882,-3.529 c 0.259,-0.485 0.868,-0.67 1.354,-0.412 l 9.705,5.176 c 0.485,0.259 0.671,0.868 0.412,1.354 l -1.882,3.529 z"
     id="path8"
     inkscape:connector-curvature="0"
     style="fill:#da2f47" />
  <path
     d="m 18.646137,15.704166 2.824,-5.293 1.765,0.941 -2.825,5.294 z"
     id="path10"
     inkscape:connector-curvature="0"
     style="fill:#bb1a34" />
  <path
     d="m 28.353137,20.881166 2.823,-5.294 3.53,1.882 -2.824,5.294 z"
     id="path12"
     inkscape:connector-curvature="0"
     style="fill:#9d0522" />
  <path
     d="m 7.705137,6.4701659 1.882,-3.53 -0.881,-0.47 0,-10e-4 -4.413,-2.352 c -0.485,-0.259 -1.094,-0.074 -1.353,0.411 l -2.82300001,5.295 c -0.259,0.486 -0.074,1.094 0.412,1.353 l 3.52900001,1.882 1.766,0.941 0.47,-0.882 1.411,-2.647 z m 14.706,17.1760001 c 0,1.104 -0.896,2 -2,2 l -8,0 c -1.104,0 -2,-0.896 -2,-2 0,-1.104 0.896,-2 2,-2 l 8,0 c 1.104,0 2,0.896 2,2 z"
     id="path14"
     inkscape:connector-curvature="0"
     style="fill:#292f33" />
  <path
     d="m 8.878137,34.646166 3.344,-7.152 c 0.468,-1 0.036,-2.191 -0.965,-2.658 -1,-0.469 -2.191,-0.037 -2.658,0.965 l -4.136,8.845 4.415,0 z m 15.065,0 4.416,0 -4.137,-8.846 c -0.467,-1.002 -1.658,-1.434 -2.658,-0.965 -1.001,0.467 -1.433,1.658 -0.965,2.658 l 3.344,7.153 z m -5.532,0 0,-8 c 0,-1.104 -0.896,-2 -2,-2 -1.104,0 -2,0.896 -2,2 l 0,8 4,0 z"
     id="path16"
     inkscape:connector-curvature="0"
     style="fill:#9aaab4" />
</svg>
