<?xml version="1.0" encoding="UTF-8" standalone="no"?>
<svg
   xmlns:dc="http://purl.org/dc/elements/1.1/"
   xmlns:cc="http://creativecommons.org/ns#"
   xmlns:rdf="http://www.w3.org/1999/02/22-rdf-syntax-ns#"
   xmlns:svg="http://www.w3.org/2000/svg"
   xmlns="http://www.w3.org/2000/svg"
   xmlns:sodipodi="http://sodipodi.sourceforge.net/DTD/sodipodi-0.dtd"
   xmlns:inkscape="http://www.inkscape.org/namespaces/inkscape"
   viewBox="0 0 35.754139 35.754784"
   id="svg2"
   version="1.1"
   inkscape:version="0.91 r13725"
   sodipodi:docname="1f526.svg"
   width="35.754139"
   height="35.754784">
  <metadata
     id="metadata18">
    <rdf:RDF>
      <cc:Work
         rdf:about="">
        <dc:format>image/svg+xml</dc:format>
        <dc:type
           rdf:resource="http://purl.org/dc/dcmitype/StillImage" />
      </cc:Work>
    </rdf:RDF>
  </metadata>
  <defs
     id="defs16" />
  <sodipodi:namedview
     pagecolor="#ffffff"
     bordercolor="#666666"
     borderopacity="1"
     objecttolerance="10"
     gridtolerance="10"
     guidetolerance="10"
     inkscape:pageopacity="0"
     inkscape:pageshadow="2"
     inkscape:window-width="640"
     inkscape:window-height="480"
     id="namedview14"
     showgrid="false"
     inkscape:zoom="6.5555556"
     inkscape:cx="18.00064"
     inkscape:cy="17.7535"
     inkscape:window-x="0"
     inkscape:window-y="0"
     inkscape:window-maximized="0"
     inkscape:current-layer="svg2" />
  <path
     d="m 23.00064,17.001283 1,-1 c 0,0 1,-1 2,0 l 2,2 c 0,0 1,1 0,2 l -1,1 -4,-4 z"
     id="path4"
     inkscape:connector-curvature="0"
     style="fill:#66757f" />
  <path
     d="m 34.87964,27.880283 c 1.166,1.166 1.166,3.076 0,4.242 l -2.758,2.758 c -1.166,1.166 -3.076,1.166 -4.242,0 l -18.758,-18.758 c -1.167,-1.166 -1.167,-3.076 0,-4.242 l 2.758,-2.7580001 c 1.167,-1.167 3.076,-1.167 4.242,0 l 18.758,18.7580001 z"
     id="path6"
     inkscape:connector-curvature="0"
     style="fill:#8899a6" />
  <path
     d="m 20.87964,10.880283 c 1.166,1.167 1.166,3.076 0,4.242 l -5.758,5.758 c -1.167,1.166 -3.076,1.166 -4.242,0 l -4.879,-4.879 c 0,0 -1,-1 0,-2 l 8,-8.0000001 c 1,-1 2,0 2,0 l 4.879,4.8790001 z"
     id="path8"
     inkscape:connector-curvature="0"
     style="fill:#66757f" />
  <path
     d="m 7.00064,17.001283 10,-10.0000001 2,2 -10,10.0000001 z"
     id="path10"
     inkscape:connector-curvature="0"
     style="fill:#8899a6" />
  <path
     d="m 11.00164,6.0012829 c -0.367,0 -0.72,-0.202 -0.896,-0.553 l -2,-4 c -0.247,-0.49400001 -0.046,-1.09400001 0.448,-1.34200001 0.495,-0.248 1.095,-0.047 1.342,0.447 l 2,4.00000001 c 0.247,0.494 0.047,1.095 -0.447,1.342 -0.144,0.072 -0.297,0.106 -0.447,0.106 z m -6.002,6.0000001 c -0.15,0 -0.303,-0.034 -0.446,-0.106 L 0.55363997,9.8952829 c -0.494,-0.247 -0.695,-0.847 -0.448,-1.341 0.247,-0.494 0.847,-0.695 1.34200003,-0.447 l 4,2.0000001 c 0.494,0.247 0.694,0.848 0.447,1.342 -0.175,0.35 -0.528,0.552 -0.895,0.552 z m 3.001,-3.0000001 c -0.256,0 -0.512,-0.098 -0.707,-0.293 l -4,-4 c -0.391,-0.391 -0.391,-1.023 0,-1.414 0.391,-0.391 1.023,-0.391 1.414,0 l 4,4 c 0.391,0.391 0.391,1.023 0,1.414 -0.195,0.195 -0.451,0.293 -0.707,0.293 z"
     id="path12"
     inkscape:connector-curvature="0"
     style="fill:#ffcc4d" />
</svg>
