<?xml version="1.0" encoding="UTF-8" standalone="no"?>
<svg
   xmlns:dc="http://purl.org/dc/elements/1.1/"
   xmlns:cc="http://creativecommons.org/ns#"
   xmlns:rdf="http://www.w3.org/1999/02/22-rdf-syntax-ns#"
   xmlns:svg="http://www.w3.org/2000/svg"
   xmlns="http://www.w3.org/2000/svg"
   xmlns:sodipodi="http://sodipodi.sourceforge.net/DTD/sodipodi-0.dtd"
   xmlns:inkscape="http://www.inkscape.org/namespaces/inkscape"
   viewBox="0 0 36 36"
   id="svg2"
   version="1.1"
   inkscape:version="0.91 r13725"
   sodipodi:docname="1f524.svg"
   width="36"
   height="36">
  <metadata
     id="metadata12">
    <rdf:RDF>
      <cc:Work
         rdf:about="">
        <dc:format>image/svg+xml</dc:format>
        <dc:type
           rdf:resource="http://purl.org/dc/dcmitype/StillImage" />
      </cc:Work>
    </rdf:RDF>
  </metadata>
  <defs
     id="defs10" />
  <sodipodi:namedview
     pagecolor="#ffffff"
     bordercolor="#666666"
     borderopacity="1"
     objecttolerance="10"
     gridtolerance="10"
     guidetolerance="10"
     inkscape:pageopacity="0"
     inkscape:pageshadow="2"
     inkscape:window-width="640"
     inkscape:window-height="480"
     id="namedview8"
     showgrid="false"
     inkscape:zoom="6.5555556"
     inkscape:cx="18"
     inkscape:cy="18"
     inkscape:window-x="0"
     inkscape:window-y="0"
     inkscape:window-maximized="0"
     inkscape:current-layer="svg2" />
  <path
     d="m 36,32 c 0,2.209 -1.791,4 -4,4 L 4,36 C 1.791,36 0,34.209 0,32 L 0,4 C 0,1.791 1.791,0 4,0 l 28,0 c 2.209,0 4,1.791 4,4 l 0,28 z"
     id="path4"
     inkscape:connector-curvature="0"
     style="fill:#3b88c3" />
  <path
     d="m 12.821,22.328 c 0,0.703 0,1.785 -1.311,1.785 -0.798,0 -1.121,-0.436 -1.311,-1.158 -0.703,0.836 -1.558,1.273 -2.603,1.273 -2.565,0 -4.521,-2.186 -4.521,-5.263 0,-3.001 2.014,-5.3 4.521,-5.3 1.007,0 1.995,0.399 2.603,1.254 0.076,-0.665 0.646,-1.14 1.311,-1.14 1.311,0 1.311,1.083 1.311,1.786 l 0,6.763 z M 7.977,21.721 c 1.425,0 2.109,-1.444 2.109,-2.755 0,-1.311 -0.665,-2.792 -2.109,-2.792 -1.501,0 -2.166,1.482 -2.166,2.792 0.001,1.31 0.684,2.755 2.166,2.755 z M 14.38,10.892 c 0,-0.912 0.57,-1.52 1.368,-1.52 0.798,0 1.368,0.608 1.368,1.52 l 0,3.723 c 0.722,-0.627 1.652,-0.95 2.603,-0.95 2.944,0 4.407,2.754 4.407,5.415 0,2.584 -1.747,5.148 -4.503,5.148 -0.93,0 -1.994,-0.418 -2.507,-1.254 -0.171,0.722 -0.608,1.139 -1.368,1.139 -0.798,0 -1.368,-0.607 -1.368,-1.52 l 0,-11.701 z m 4.883,10.829 c 1.425,0 2.128,-1.482 2.128,-2.755 0,-1.292 -0.703,-2.792 -2.128,-2.792 -1.463,0 -2.146,1.368 -2.146,2.697 -0.001,1.33 0.645,2.85 2.146,2.85 z m 12.824,-5.016 c -0.684,0 -1.292,-0.532 -2.165,-0.532 -1.559,0 -2.299,1.387 -2.299,2.792 0,1.349 0.817,2.755 2.299,2.755 0.684,0 1.709,-0.57 2.032,-0.57 0.647,0 1.178,0.551 1.178,1.197 0,1.405 -2.355,1.881 -3.344,1.881 -2.944,0 -4.901,-2.413 -4.901,-5.263 0,-2.773 2.015,-5.3 4.901,-5.3 1.083,0 3.344,0.399 3.344,1.729 0,0.57 -0.399,1.311 -1.045,1.311 z"
     id="path6"
     inkscape:connector-curvature="0"
     style="fill:#ffffff" />
</svg>
