<?xml version="1.0" encoding="UTF-8" standalone="no"?>
<svg
   xmlns:dc="http://purl.org/dc/elements/1.1/"
   xmlns:cc="http://creativecommons.org/ns#"
   xmlns:rdf="http://www.w3.org/1999/02/22-rdf-syntax-ns#"
   xmlns:svg="http://www.w3.org/2000/svg"
   xmlns="http://www.w3.org/2000/svg"
   xmlns:sodipodi="http://sodipodi.sourceforge.net/DTD/sodipodi-0.dtd"
   xmlns:inkscape="http://www.inkscape.org/namespaces/inkscape"
   viewBox="0 0 30.576 35.799999"
   id="svg2"
   version="1.1"
   inkscape:version="0.91 r13725"
   sodipodi:docname="1f52e.svg"
   width="30.576"
   height="35.799999">
  <metadata
     id="metadata20">
    <rdf:RDF>
      <cc:Work
         rdf:about="">
        <dc:format>image/svg+xml</dc:format>
        <dc:type
           rdf:resource="http://purl.org/dc/dcmitype/StillImage" />
      </cc:Work>
    </rdf:RDF>
  </metadata>
  <defs
     id="defs18" />
  <sodipodi:namedview
     pagecolor="#ffffff"
     bordercolor="#666666"
     borderopacity="1"
     objecttolerance="10"
     gridtolerance="10"
     guidetolerance="10"
     inkscape:pageopacity="0"
     inkscape:pageshadow="2"
     inkscape:window-width="640"
     inkscape:window-height="480"
     id="namedview16"
     showgrid="false"
     inkscape:zoom="6.5555556"
     inkscape:cx="15.332001"
     inkscape:cy="18"
     inkscape:window-x="0"
     inkscape:window-y="0"
     inkscape:window-maximized="0"
     inkscape:current-layer="svg2" />
  <path
     d="m 26.068001,28.567 -21.4580003,0.076 -1.649,4.835 c -0.062,0.187 -0.101,0.387 -0.073,0.582 0.145,0.984 0.993,1.74 2.017,1.74 l 20.8940003,0 c 1.024,0 1.872,-0.756 2.017,-1.74 0.029,-0.195 -0.01,-0.395 -0.073,-0.582 l -1.675,-4.911 z"
     id="path4"
     inkscape:connector-curvature="0"
     style="fill:#bf6952" />
  <path
     d="m 26.068001,28.567 -0.19,-0.556 c -0.199,-0.598 -0.759,-1.001 -1.389,-1.001 l -18.2740003,0 c -0.63,0 -1.19,0.403 -1.389,1.001 l -0.216,0.632 c 2.928,2.344 6.6360003,3.754 10.6780003,3.754 4.088,0 7.837,-1.438 10.78,-3.83 z"
     id="path6"
     inkscape:connector-curvature="0"
     style="fill:#854836" />
  <circle
     cx="15.288"
     cy="15.288"
     r="15.288"
     id="circle8"
     style="fill:#aa8dd8" />
  <circle
     cx="20.598001"
     cy="12.17"
     r="4.1950002"
     id="circle10"
     style="fill:#744eaa" />
  <circle
     cx="12.207001"
     cy="18.462002"
     r="3.1459999"
     id="circle12"
     style="fill:#744eaa" />
  <circle
     cx="13.256001"
     cy="4.8280001"
     r="2.098"
     id="circle14"
     style="fill:#744eaa" />
</svg>
