<?xml version="1.0" encoding="UTF-8" standalone="no"?>
<svg
   xmlns:dc="http://purl.org/dc/elements/1.1/"
   xmlns:cc="http://creativecommons.org/ns#"
   xmlns:rdf="http://www.w3.org/1999/02/22-rdf-syntax-ns#"
   xmlns:svg="http://www.w3.org/2000/svg"
   xmlns="http://www.w3.org/2000/svg"
   xmlns:sodipodi="http://sodipodi.sourceforge.net/DTD/sodipodi-0.dtd"
   xmlns:inkscape="http://www.inkscape.org/namespaces/inkscape"
   viewBox="0 0 36 36"
   id="svg2"
   version="1.1"
   inkscape:version="0.91 r13725"
   sodipodi:docname="1f52f.svg"
   width="36"
   height="36">
  <metadata
     id="metadata16">
    <rdf:RDF>
      <cc:Work
         rdf:about="">
        <dc:format>image/svg+xml</dc:format>
        <dc:type
           rdf:resource="http://purl.org/dc/dcmitype/StillImage" />
      </cc:Work>
    </rdf:RDF>
  </metadata>
  <defs
     id="defs14" />
  <sodipodi:namedview
     pagecolor="#ffffff"
     bordercolor="#666666"
     borderopacity="1"
     objecttolerance="10"
     gridtolerance="10"
     guidetolerance="10"
     inkscape:pageopacity="0"
     inkscape:pageshadow="2"
     inkscape:window-width="640"
     inkscape:window-height="480"
     id="namedview12"
     showgrid="false"
     inkscape:zoom="6.5555556"
     inkscape:cx="18"
     inkscape:cy="18"
     inkscape:window-x="0"
     inkscape:window-y="0"
     inkscape:window-maximized="0"
     inkscape:current-layer="svg2" />
  <path
     d="m 36,32 c 0,2.209 -1.791,4 -4,4 L 4,36 C 1.791,36 0,34.209 0,32 L 0,4 C 0,1.791 1.791,0 4,0 l 28,0 c 2.209,0 4,1.791 4,4 l 0,28 z"
     id="path4"
     inkscape:connector-curvature="0"
     style="fill:#9266cc" />
  <path
     d="m 18,34.156 c -1.011,0 -1.928,-0.588 -2.516,-1.614 L 3.811,12.168 C 3.209,11.118 3.151,10.019 3.652,9.154 4.125,8.338 5.015,7.87 6.093,7.87 l 24.816,0 c 1.09,0 1.978,0.473 2.438,1.296 0.485,0.869 0.396,1.961 -0.242,2.997 L 20.475,32.631 C 19.878,33.6 18.976,34.156 18,34.156 Z M 6.524,10.87 18.009,30.914 30.374,10.876 6.524,10.87 Z"
     id="path6"
     inkscape:connector-curvature="0"
     style="fill:#f5f8fa" />
  <path
     d="m 30.909,27.5 -24.816,0 C 5.014,27.5 4.125,27.031 3.652,26.215 3.151,25.35 3.209,24.252 3.811,23.202 L 15.484,2.829 C 16.073,1.802 16.989,1.214 18,1.214 c 0.976,0 1.878,0.557 2.476,1.527 l 12.63,20.466 c 0.639,1.035 0.728,2.127 0.242,2.996 -0.46,0.824 -1.349,1.297 -2.439,1.297 z M 6.528,24.493 30.378,24.5 18.009,4.457 6.528,24.493 Z"
     id="path8"
     inkscape:connector-curvature="0"
     style="fill:#f5f8fa" />
  <circle
     cx="18"
     cy="18"
     r="4"
     id="circle10"
     style="fill:#f5f8fa" />
</svg>
