<?xml version="1.0" encoding="UTF-8" standalone="no"?>
<svg
   xmlns:dc="http://purl.org/dc/elements/1.1/"
   xmlns:cc="http://creativecommons.org/ns#"
   xmlns:rdf="http://www.w3.org/1999/02/22-rdf-syntax-ns#"
   xmlns:svg="http://www.w3.org/2000/svg"
   xmlns="http://www.w3.org/2000/svg"
   xmlns:sodipodi="http://sodipodi.sourceforge.net/DTD/sodipodi-0.dtd"
   xmlns:inkscape="http://www.inkscape.org/namespaces/inkscape"
   viewBox="0 0 36 36"
   id="svg2"
   version="1.1"
   inkscape:version="0.91 r13725"
   sodipodi:docname="1f520.svg"
   width="36"
   height="36">
  <metadata
     id="metadata12">
    <rdf:RDF>
      <cc:Work
         rdf:about="">
        <dc:format>image/svg+xml</dc:format>
        <dc:type
           rdf:resource="http://purl.org/dc/dcmitype/StillImage" />
      </cc:Work>
    </rdf:RDF>
  </metadata>
  <defs
     id="defs10" />
  <sodipodi:namedview
     pagecolor="#ffffff"
     bordercolor="#666666"
     borderopacity="1"
     objecttolerance="10"
     gridtolerance="10"
     guidetolerance="10"
     inkscape:pageopacity="0"
     inkscape:pageshadow="2"
     inkscape:window-width="640"
     inkscape:window-height="480"
     id="namedview8"
     showgrid="false"
     inkscape:zoom="6.5555556"
     inkscape:cx="18"
     inkscape:cy="18"
     inkscape:window-x="0"
     inkscape:window-y="0"
     inkscape:window-maximized="0"
     inkscape:current-layer="svg2" />
  <path
     d="m 36,32 c 0,2.209 -1.791,4 -4,4 L 4,36 C 1.791,36 0,34.209 0,32 L 0,4 C 0,1.791 1.791,0 4,0 l 28,0 c 2.209,0 4,1.791 4,4 l 0,28 z"
     id="path4"
     inkscape:connector-curvature="0"
     style="fill:#3b88c3" />
  <path
     d="m 8.004,4.823 c 0.323,-0.874 1.064,-1.577 2.033,-1.577 1.007,0 1.71,0.665 2.033,1.577 l 3.724,10.334 c 0.114,0.304 0.152,0.57 0.152,0.703 0,0.741 -0.608,1.253 -1.311,1.253 -0.798,0 -1.197,-0.417 -1.387,-0.988 l -0.57,-1.786 -5.282,0 -0.57,1.767 c -0.19,0.589 -0.589,1.007 -1.368,1.007 -0.76,0 -1.406,-0.57 -1.406,-1.33 0,-0.304 0.095,-0.532 0.133,-0.627 L 8.004,4.823 Z m 0.209,6.896 3.609,0 -1.767,-5.509 -0.038,0 -1.804,5.509 z m 2.841,7.527 c 1.387,0 4.084,0.456 4.084,2.127 0,0.685 -0.475,1.274 -1.178,1.274 -0.779,0 -1.311,-0.665 -2.907,-0.665 -2.355,0 -3.571,1.995 -3.571,4.312 0,2.261 1.235,4.198 3.571,4.198 1.596,0 2.242,-0.798 3.02,-0.798 0.855,0 1.254,0.856 1.254,1.292 0,1.823 -2.869,2.241 -4.274,2.241 -3.856,0 -6.535,-3.059 -6.535,-6.99 0.001,-3.952 2.66,-6.991 6.536,-6.991 z M 20.402,4.899 c 0,-0.912 0.627,-1.425 1.5,-1.425 l 3.648,0 c 1.976,0 3.571,1.33 3.571,3.343 0,1.33 -0.551,2.223 -1.767,2.792 l 0,0.038 c 1.615,0.228 2.888,1.577 2.888,3.229 0,2.679 -1.785,4.123 -4.407,4.123 l -3.913,0 c -0.874,0 -1.52,-0.551 -1.52,-1.444 l 0,-10.656 z m 2.85,3.932 1.48,0 c 0.932,0 1.539,-0.551 1.539,-1.5 0,-0.893 -0.703,-1.349 -1.539,-1.349 l -1.48,0 0,2.849 z m 0,5.661 2.241,0 c 1.026,0 1.786,-0.589 1.786,-1.652 0,-0.893 -0.685,-1.501 -2.014,-1.501 l -2.014,0 0,3.153 z m -3.354,6.446 c 0,-0.875 0.608,-1.463 1.463,-1.463 l 3.153,0 c 4.255,0 6.687,2.735 6.687,6.952 0,3.989 -2.583,6.573 -6.496,6.573 l -3.307,0 c -0.627,0 -1.5,-0.342 -1.5,-1.425 l 0,-10.637 z m 2.85,9.44 1.918,0 c 2.451,0 3.572,-1.805 3.572,-4.084 0,-2.432 -1.141,-4.198 -3.762,-4.198 l -1.729,0 0,8.282 z"
     id="path6"
     inkscape:connector-curvature="0"
     style="fill:#ffffff" />
</svg>
