<?xml version="1.0" encoding="UTF-8" standalone="no"?>
<svg
   xmlns:dc="http://purl.org/dc/elements/1.1/"
   xmlns:cc="http://creativecommons.org/ns#"
   xmlns:rdf="http://www.w3.org/1999/02/22-rdf-syntax-ns#"
   xmlns:svg="http://www.w3.org/2000/svg"
   xmlns="http://www.w3.org/2000/svg"
   xmlns:sodipodi="http://sodipodi.sourceforge.net/DTD/sodipodi-0.dtd"
   xmlns:inkscape="http://www.inkscape.org/namespaces/inkscape"
   viewBox="0 0 26 36.001041"
   id="svg2"
   version="1.1"
   inkscape:version="0.91 r13725"
   sodipodi:docname="1f530.svg"
   width="26"
   height="36.001041">
  <metadata
     id="metadata14">
    <rdf:RDF>
      <cc:Work
         rdf:about="">
        <dc:format>image/svg+xml</dc:format>
        <dc:type
           rdf:resource="http://purl.org/dc/dcmitype/StillImage" />
      </cc:Work>
    </rdf:RDF>
  </metadata>
  <defs
     id="defs12" />
  <sodipodi:namedview
     pagecolor="#ffffff"
     bordercolor="#666666"
     borderopacity="1"
     objecttolerance="10"
     gridtolerance="10"
     guidetolerance="10"
     inkscape:pageopacity="0"
     inkscape:pageshadow="2"
     inkscape:window-width="640"
     inkscape:window-height="480"
     id="namedview10"
     showgrid="false"
     inkscape:zoom="6.5555556"
     inkscape:cx="14"
     inkscape:cy="18"
     inkscape:window-x="0"
     inkscape:window-y="0"
     inkscape:window-maximized="0"
     inkscape:current-layer="svg2" />
  <path
     d="m 13,36.001043 c -0.512,0 -1.024,-0.195 -1.414,-0.586 l -11,-11 C 0.211,24.040043 0,23.531043 0,23.001043 L 0,2.0010429 c 0,-0.809 0.487,-1.53799999 1.235,-1.84799999 0.747,-0.311 1.608,-0.139 2.179,0.434 L 13,10.172043 22.586,0.58704291 c 0.572,-0.573 1.431,-0.744 2.18,-0.434 0.747,0.31 1.234,1.03899999 1.234,1.84799999 l 0,21.0000001 c 0,0.53 -0.211,1.039 -0.586,1.414 l -11,11 c -0.39,0.391 -0.902,0.586 -1.414,0.586 z"
     id="path4"
     inkscape:connector-curvature="0"
     style="fill:#66757f" />
  <path
     d="m 13,13.001043 11,-11.0000001 0,21.0000001 -11,11 z"
     id="path6"
     inkscape:connector-curvature="0"
     style="fill:#47ded4" />
  <path
     d="m 2,2.0010429 11,11.0000001 0,21 -11,-11 z"
     id="path8"
     inkscape:connector-curvature="0"
     style="fill:#ffff87" />
</svg>
