<?xml version="1.0" encoding="UTF-8" standalone="no"?>
<svg
   xmlns:dc="http://purl.org/dc/elements/1.1/"
   xmlns:cc="http://creativecommons.org/ns#"
   xmlns:rdf="http://www.w3.org/1999/02/22-rdf-syntax-ns#"
   xmlns:svg="http://www.w3.org/2000/svg"
   xmlns="http://www.w3.org/2000/svg"
   xmlns:sodipodi="http://sodipodi.sourceforge.net/DTD/sodipodi-0.dtd"
   xmlns:inkscape="http://www.inkscape.org/namespaces/inkscape"
   viewBox="0 0 36 36"
   id="svg2"
   version="1.1"
   inkscape:version="0.91 r13725"
   sodipodi:docname="1f549.svg"
   width="36"
   height="36">
  <metadata
     id="metadata16">
    <rdf:RDF>
      <cc:Work
         rdf:about="">
        <dc:format>image/svg+xml</dc:format>
        <dc:type
           rdf:resource="http://purl.org/dc/dcmitype/StillImage" />
      </cc:Work>
    </rdf:RDF>
  </metadata>
  <defs
     id="defs14" />
  <sodipodi:namedview
     pagecolor="#ffffff"
     bordercolor="#666666"
     borderopacity="1"
     objecttolerance="10"
     gridtolerance="10"
     guidetolerance="10"
     inkscape:pageopacity="0"
     inkscape:pageshadow="2"
     inkscape:window-width="640"
     inkscape:window-height="480"
     id="namedview12"
     showgrid="false"
     inkscape:zoom="6.5555556"
     inkscape:cx="18"
     inkscape:cy="18"
     inkscape:window-x="0"
     inkscape:window-y="0"
     inkscape:window-maximized="0"
     inkscape:current-layer="svg2" />
  <path
     d="m 36,32 c 0,2.209 -1.791,4 -4,4 L 4,36 C 1.791,36 0,34.209 0,32 L 0,4 C 0,1.791 1.791,0 4,0 l 28,0 c 2.209,0 4,1.791 4,4 l 0,28 z"
     id="path4"
     inkscape:connector-curvature="0"
     style="fill:#9266cc" />
  <g
     id="g6"
     style="fill:#ffffff">
    <path
       d="m 16.211,6.396 c -0.048,0.075 0.312,6.076 5.447,6.076 3.681,0 6.534,-2.018 6.708,-2.191 0.108,-0.107 -1.709,-2.832 -1.803,-2.841 -0.116,-0.01 -2.691,2.421 -4.9,2.421 -3.54,0 -5.328,-3.247 -5.452,-3.465 z M 23.69,6.594 21.093,4.189 c -0.026,0.024 -2.421,2.466 -2.421,2.466 l 2.553,2.383 c 0,10e-4 1.914,-1.846 2.465,-2.444 z"
       id="path8"
       inkscape:connector-curvature="0" />
    <path
       d="m 7.292,12.36 1.881,3.062 c 0,0 2.464,-1.79 4.841,-1.79 1.98,0 2.222,1.097 2.222,1.664 0,0.567 -0.519,2.767 -5.546,1.914 0.091,0.609 0.457,2.678 1.614,4.049 0.884,-0.091 4.448,-0.55 4.448,2.802 0,3.045 -3.108,3.351 -3.656,3.351 -0.549,0 -4.631,0.396 -7.952,-7.861 -0.153,0.609 -0.244,2.986 0.944,5.972 1.188,2.986 3.473,6.084 7.099,6.084 3.626,0 7.952,-2.607 5.21,-9.607 l 1.98,0 c 1.097,0 2.102,-0.356 3.108,-2.946 0.831,-2.141 1.95,-3.225 2.925,-3.225 0.67,0 2.559,0.078 2.559,4.405 0,3.88 -1.828,5.623 -3.737,5.651 -1.764,0.025 -3.597,-1.471 -4.124,-2.948 0,0 -0.305,5.909 4.042,6.161 5.82,0.337 5.891,-6.005 5.891,-7.165 0,-2.837 -0.792,-8.747 -5.149,-8.747 -3.778,0 -4.692,2.193 -5.606,3.807 -0.914,1.615 -1.737,3.808 -4.997,2.071 1.554,-0.853 2.986,-2.407 2.986,-4.357 0,-1.95 -0.701,-4.631 -4.479,-4.906 C 10.018,9.526 7.292,12.36 7.292,12.36 Z"
       id="path10"
       inkscape:connector-curvature="0" />
  </g>
</svg>
