<?xml version="1.0" encoding="UTF-8" standalone="no"?>
<svg
   xmlns:dc="http://purl.org/dc/elements/1.1/"
   xmlns:cc="http://creativecommons.org/ns#"
   xmlns:rdf="http://www.w3.org/1999/02/22-rdf-syntax-ns#"
   xmlns:svg="http://www.w3.org/2000/svg"
   xmlns="http://www.w3.org/2000/svg"
   xmlns:sodipodi="http://sodipodi.sourceforge.net/DTD/sodipodi-0.dtd"
   xmlns:inkscape="http://www.inkscape.org/namespaces/inkscape"
   viewBox="0 0 36 36"
   id="svg2"
   version="1.1"
   inkscape:version="0.91 r13725"
   sodipodi:docname="1f55f.svg"
   width="36"
   height="36">
  <metadata
     id="metadata16">
    <rdf:RDF>
      <cc:Work
         rdf:about="">
        <dc:format>image/svg+xml</dc:format>
        <dc:type
           rdf:resource="http://purl.org/dc/dcmitype/StillImage" />
      </cc:Work>
    </rdf:RDF>
  </metadata>
  <defs
     id="defs14" />
  <sodipodi:namedview
     pagecolor="#ffffff"
     bordercolor="#666666"
     borderopacity="1"
     objecttolerance="10"
     gridtolerance="10"
     guidetolerance="10"
     inkscape:pageopacity="0"
     inkscape:pageshadow="2"
     inkscape:window-width="640"
     inkscape:window-height="480"
     id="namedview12"
     showgrid="false"
     inkscape:zoom="6.5555556"
     inkscape:cx="18"
     inkscape:cy="18"
     inkscape:window-x="0"
     inkscape:window-y="0"
     inkscape:window-maximized="0"
     inkscape:current-layer="svg2" />
  <circle
     cx="18"
     cy="18"
     r="18"
     id="circle4"
     style="fill:#99aab5" />
  <circle
     cx="18"
     cy="18"
     r="14"
     id="circle6"
     style="fill:#e1e8ed" />
  <path
     d="m 18,31 c -0.552,0 -1,-0.447 -1,-1 l 0,-12 c 0,-0.552 0.448,-1 1,-1 0.553,0 1,0.448 1,1 l 0,12 c 0,0.553 -0.447,1 -1,1 z"
     id="path8"
     inkscape:connector-curvature="0"
     style="fill:#67757f" />
  <path
     d="m 24.999,24 c -0.201,0 -0.404,-0.06 -0.58,-0.187 l -7,-5 c -0.45,-0.321 -0.554,-0.945 -0.233,-1.395 0.321,-0.45 0.946,-0.554 1.395,-0.233 l 7,5 c 0.449,0.32 0.554,0.945 0.232,1.395 C 25.618,23.854 25.312,24 24.999,24 Z"
     id="path10"
     inkscape:connector-curvature="0"
     style="fill:#67757f" />
</svg>
