<?xml version="1.0" encoding="UTF-8" standalone="no"?>
<svg
   xmlns:dc="http://purl.org/dc/elements/1.1/"
   xmlns:cc="http://creativecommons.org/ns#"
   xmlns:rdf="http://www.w3.org/1999/02/22-rdf-syntax-ns#"
   xmlns:svg="http://www.w3.org/2000/svg"
   xmlns="http://www.w3.org/2000/svg"
   xmlns:sodipodi="http://sodipodi.sourceforge.net/DTD/sodipodi-0.dtd"
   xmlns:inkscape="http://www.inkscape.org/namespaces/inkscape"
   viewBox="0 0 12 34.984043"
   id="svg2"
   version="1.1"
   inkscape:version="0.91 r13725"
   sodipodi:docname="1f574-1f3fc-200d-2642-fe0f.svg"
   width="12"
   height="34.984043">
  <metadata
     id="metadata48">
    <rdf:RDF>
      <cc:Work
         rdf:about="">
        <dc:format>image/svg+xml</dc:format>
        <dc:type
           rdf:resource="http://purl.org/dc/dcmitype/StillImage" />
      </cc:Work>
    </rdf:RDF>
  </metadata>
  <defs
     id="defs46" />
  <sodipodi:namedview
     pagecolor="#ffffff"
     bordercolor="#666666"
     borderopacity="1"
     objecttolerance="10"
     gridtolerance="10"
     guidetolerance="10"
     inkscape:pageopacity="0"
     inkscape:pageshadow="2"
     inkscape:window-width="640"
     inkscape:window-height="480"
     id="namedview44"
     showgrid="false"
     inkscape:zoom="6.5555556"
     inkscape:cx="6"
     inkscape:cy="18"
     inkscape:window-x="0"
     inkscape:window-y="0"
     inkscape:window-maximized="0"
     inkscape:current-layer="svg2" />
  <path
     d="m 2,20.984044 c 0,0.553 -0.448,1 -1,1 -0.552,0 -1,-0.447 -1,-1 l 0,-8 c 0,-0.552 0.448,-1 1,-1 0.552,0 1,0.448 1,1 l 0,8 z m 10,0 c 0,0.553 -0.447,1 -1,1 -0.553,0 -1,-0.447 -1,-1 l 0,-8 c 0,-0.552 0.447,-1 1,-1 0.553,0 1,0.448 1,1 l 0,8 z"
     id="path4"
     inkscape:connector-curvature="0"
     style="fill:#f3d2a2" />
  <path
     d="m 7,17.984044 -5,0 1,11 3,0 0,-7 0,7 3,0 1,-11 z"
     id="path6"
     inkscape:connector-curvature="0"
     style="fill:#66757f" />
  <path
     d="m 6,21.984044 c -0.552,0 -1,7 -1,7 0,0.553 0.448,0 1,0 0.553,0 1,0.553 1,0 0,0 -0.447,-7 -1,-7 z"
     id="path8"
     inkscape:connector-curvature="0"
     style="fill:#546170" />
  <path
     d="m 10,9.9840439 -8,0 c -1.104,0 -2,0.8960001 -2,2.0000001 l 0,8 2,0 0,1 2,0 2,-1 2,1 2,0 0,-1 2,0 0,-8 c 0,-1.104 -0.896,-2.0000001 -2,-2.0000001 z M 4.64,28.463044 c 1.105,0 1.346,0.159 1.359,0.521 0.052,1.375 -1.786,3.479 -3.141,2.979 -0.86,-0.317 -0.422,-1.901 0.141,-2.979 0.23,-0.441 0.962,-0.521 1.641,-0.521 z"
     id="path10"
     inkscape:connector-curvature="0"
     style="fill:#292f33" />
  <path
     d="m 7.36,28.463044 c -1.105,0 -1.346,0.159 -1.359,0.521 -0.051,1.375 1.787,3.479 3.141,2.979 0.86,-0.317 0.422,-1.901 -0.141,-2.979 -0.23,-0.441 -0.961,-0.521 -1.641,-0.521 z"
     id="path12"
     inkscape:connector-curvature="0"
     style="fill:#292f33" />
  <path
     d="m 4.799,8.9840439 2.402,0 0,1.5920001 -2.402,0 z m -1.495,-3.181 c 0,0.592 -0.3,1.071 -0.67,1.071 -0.37,0 -0.67,-0.48 -0.67,-1.071 0,-0.592 0.3,-1.071 0.67,-1.071 0.37,-10e-4 0.67,0.479 0.67,1.071 z m 6.696,0 c 0,0.592 -0.3,1.071 -0.67,1.071 -0.37,0 -0.67,-0.48 -0.67,-1.071 0,-0.592 0.3,-1.071 0.67,-1.071 0.37,-10e-4 0.67,0.479 0.67,1.071 z"
     id="path14"
     inkscape:connector-curvature="0"
     style="fill:#f3d2a2" />
  <path
     d="m 6,9.8900439 c -1.923,0 -3.482,-1.851 -3.482,-4.135 0,-2.284 1.559,-4.135 3.482,-4.135 1.923,0 3.482,1.851 3.482,4.135 0,2.284 -1.559,4.135 -3.482,4.135"
     id="path16"
     inkscape:connector-curvature="0"
     style="fill:#f3d2a2" />
  <path
     d="m 7.305,8.0800439 c -0.015,-0.025 -0.043,-0.041 -0.073,-0.041 l -2.453,0 c -0.03,0 -0.058,0.015 -0.073,0.041 -0.015,0.025 -0.017,0.057 -0.003,0.084 0.015,0.029 0.372,0.704 1.303,0.704 0.931,0 1.288,-0.676 1.303,-0.704 0.013,-0.026 0.011,-0.058 -0.004,-0.084 z m -1.297,-1.16 c -0.269,0 -0.478,-0.048 -0.646,-0.122 0.055,0.198 0.21,0.474 0.646,0.474 0.436,0 0.59,-0.276 0.646,-0.474 -0.168,0.074 -0.377,0.122 -0.646,0.122 z"
     id="path18"
     inkscape:connector-curvature="0"
     style="fill:#c1694f" />
  <path
     d="m 2.827,5.3800439 c 0.06,-0.296 0.148,-0.546 0.246,-0.771 l -0.777,0 c 0.121,0.874 0.465,1.095 0.531,0.771 z m 6.346,-0.125 c 0.239,0.47 0.475,0.152 0.55,-0.771 l -0.942,0 0.392,0.771 z"
     id="path20"
     inkscape:connector-curvature="0"
     style="fill:#ffe51e" />
  <path
     d="m 7.8,12.184044 1.276,-1.2 -0.49,-1.0000001 -0.786,0 z"
     id="path22"
     inkscape:connector-curvature="0"
     style="fill:#546170" />
  <path
     d="m 5.997,16.984044 3.099,-5.045 -1.271,-1.361 z"
     id="path24"
     inkscape:connector-curvature="0"
     style="fill:#66757f" />
  <path
     d="m 4.2,12.184044 -1.276,-1.2 0.49,-1.0000001 0.786,0 z"
     id="path26"
     inkscape:connector-curvature="0"
     style="fill:#546170" />
  <path
     d="m 6,16.984044 -3.099,-5.045 1.271,-1.361 z"
     id="path28"
     inkscape:connector-curvature="0"
     style="fill:#66757f" />
  <path
     d="M 6,16.984044 4,9.9840439 6,10.984044 8,9.9840439 Z"
     id="path30"
     inkscape:connector-curvature="0"
     style="fill:#e1e8ed" />
  <path
     d="m 7,10.984044 -1,-0.417 -1,0.417 0.878,0.878 -0.793,1.918 0.915,3.204 0.915,-3.204 -0.793,-1.918 z"
     id="path32"
     inkscape:connector-curvature="0"
     style="fill:#55acee" />
  <path
     d="M 4.562,9.5460439 6,10.567044 5.062,11.562044 4,9.9840439 Z m 2.876,0 L 6,10.567044 6.938,11.562044 8,9.9840439 Z"
     id="path34"
     inkscape:connector-curvature="0"
     style="fill:#f5f8fa" />
  <ellipse
     cx="6"
     cy="33.984043"
     rx="6"
     ry="1"
     id="ellipse36"
     style="fill:#99aab5" />
  <path
     d="m 8.324,2.9610439 c 0.612,-0.166 1.091,-0.411 1.091,-0.411 0,0 -0.141,-0.578 -0.283,-0.95 C 8.69,0.44604395 7.957,-0.12895605 7.283,0.04204395 c -1.019,0.259 -1.496,0.11 -2.712,-0.034 -1.215,-0.144 -1.773,1.68199995 -1.968,2.54199995 0,0 0.322,0.274 0.902,0.403 0.022,0.005 0.05,0.008 0.073,0.013 -2.094,0.094 -2.787,0.351 -2.787,0.852 0,0.66 2.336,1.333 5.219,1.333 2.882,0 5.219,-0.673 5.219,-1.333 -0.002,-0.511 -0.723,-0.767 -2.905,-0.857 z"
     id="path38"
     inkscape:connector-curvature="0"
     style="fill:#292f33" />
  <path
     d="m 9.583,3.2090439 c -0.012,-0.069 -0.027,-0.145 -0.043,-0.22 -0.048,-0.225 -0.126,-0.439 -0.126,-0.439 0,0 -1.101,0.429 -3.406,0.429 -2.305,0 -3.406,-0.429 -3.406,-0.429 0,0 -0.078,0.214 -0.126,0.439 -0.016,0.076 -0.031,0.152 -0.043,0.22 -0.048,0.273 0.081,0.461 0.966,0.649 0.6,0.127 1.582,0.241 2.608,0.22 1.026,0.021 2.009,-0.093 2.608,-0.22 0.888,-0.188 1.017,-0.376 0.968,-0.649 z"
     id="path40"
     inkscape:connector-curvature="0"
     style="fill:#66757f" />
  <path
     d="m 9.492,4.8810439 -0.958,0.316 c -0.337,-0.047 -1.038,-0.066 -1.779,0.015 -0.197,0.022 -0.272,0.078 -0.739,0.078 -0.466,0 -0.542,-0.056 -0.739,-0.078 -0.741,-0.081 -1.442,-0.062 -1.779,-0.015 l -0.958,-0.316 c -0.093,-0.033 -0.191,0.019 -0.221,0.111 -0.03,0.092 0.02,0.19 0.111,0.221 l 0.894,0.295 c 0.066,0.051 0.208,0.148 0.242,0.248 0.039,0.116 0.117,0.861 0.35,1.055 0.241,0.2 1.148,0.125 1.322,0.039 0.389,-0.194 0.437,-0.82 0.505,-1.094 0.039,-0.155 0.272,-0.155 0.272,-0.155 0,0 0.233,0 0.272,0.155 0.069,0.274 0.117,0.902 0.505,1.096 0.174,0.087 1.081,0.161 1.322,-0.039 0.233,-0.194 0.311,-0.941 0.35,-1.057 0.033,-0.1 0.175,-0.196 0.241,-0.247 l 0.895,-0.295 c 0.092,-0.03 0.142,-0.129 0.111,-0.221 -0.029,-0.093 -0.132,-0.144 -0.219,-0.112 z"
     id="path42"
     inkscape:connector-curvature="0"
     style="fill:#292f33" />
</svg>
