<?xml version="1.0" encoding="UTF-8" standalone="no"?>
<svg
   xmlns:dc="http://purl.org/dc/elements/1.1/"
   xmlns:cc="http://creativecommons.org/ns#"
   xmlns:rdf="http://www.w3.org/1999/02/22-rdf-syntax-ns#"
   xmlns:svg="http://www.w3.org/2000/svg"
   xmlns="http://www.w3.org/2000/svg"
   xmlns:sodipodi="http://sodipodi.sourceforge.net/DTD/sodipodi-0.dtd"
   xmlns:inkscape="http://www.inkscape.org/namespaces/inkscape"
   viewBox="0 0 34.001999 34.001999"
   id="svg2"
   version="1.1"
   inkscape:version="0.91 r13725"
   sodipodi:docname="1f578.svg"
   width="34.001999"
   height="34.001999">
  <metadata
     id="metadata10">
    <rdf:RDF>
      <cc:Work
         rdf:about="">
        <dc:format>image/svg+xml</dc:format>
        <dc:type
           rdf:resource="http://purl.org/dc/dcmitype/StillImage" />
      </cc:Work>
    </rdf:RDF>
  </metadata>
  <defs
     id="defs8" />
  <sodipodi:namedview
     pagecolor="#ffffff"
     bordercolor="#666666"
     borderopacity="1"
     objecttolerance="10"
     gridtolerance="10"
     guidetolerance="10"
     inkscape:pageopacity="0"
     inkscape:pageshadow="2"
     inkscape:window-width="640"
     inkscape:window-height="480"
     id="namedview6"
     showgrid="false"
     inkscape:zoom="6.5555556"
     inkscape:cx="17"
     inkscape:cy="17"
     inkscape:window-x="0"
     inkscape:window-y="0"
     inkscape:window-maximized="0"
     inkscape:current-layer="svg2" />
  <path
     d="m 5.667,29.022 0.479,-0.479 c 3.97,-0.534 7.971,1.17 10.369,4.362 l 0,0.611 c 0,0.268 0.217,0.486 0.486,0.486 0.268,0 0.486,-0.217 0.486,-0.486 l 0,-0.637 c 2.397,-3.206 6.376,-4.886 10.355,-4.351 l 0.479,0.479 c 0.059,0.059 0.13,0.093 0.205,0.115 l 0.029,0.006 c 0.158,0.037 0.33,0.002 0.453,-0.121 0.123,-0.123 0.158,-0.295 0.121,-0.453 L 29.123,28.525 C 29.101,28.45 29.067,28.379 29.008,28.32 l -0.479,-0.479 c -0.535,-3.979 1.145,-7.958 4.351,-10.355 l 0.636,0 c 0.268,0 0.486,-0.217 0.486,-0.486 0,-0.268 -0.217,-0.486 -0.486,-0.486 l -0.61,0 C 29.713,14.115 28.01,10.115 28.544,6.145 l 0.479,-0.479 c 0.19,-0.19 0.19,-0.497 0,-0.687 C 28.957,4.913 28.876,4.879 28.792,4.859 28.633,4.821 28.46,4.855 28.336,4.979 L 27.857,5.458 C 23.887,5.992 19.886,4.288 17.488,1.096 l 0,-0.61 C 17.488,0.218 17.271,0 17.002,0 16.734,0 16.516,0.217 16.516,0.486 l 0,0.637 C 14.118,4.33 10.139,6.009 6.16,5.474 L 5.681,4.995 C 5.622,4.936 5.551,4.902 5.476,4.88 L 5.447,4.874 C 5.289,4.837 5.118,4.872 4.994,4.995 4.871,5.118 4.836,5.29 4.873,5.448 L 4.879,5.477 C 4.901,5.552 4.935,5.623 4.994,5.682 L 5.473,6.161 C 6.008,10.14 4.328,14.119 1.122,16.516 l -0.636,0 C 0.217,16.516 0,16.733 0,17.001 c 0,0.268 0.217,0.486 0.486,0.486 l 0.611,0 c 3.193,2.399 4.896,6.399 4.362,10.369 L 4.98,28.335 c -0.124,0.124 -0.159,0.297 -0.12,0.456 0.02,0.084 0.055,0.165 0.12,0.231 0.19,0.19 0.497,0.19 0.687,0 z M 6.527,7.215 8.733,9.421 c 0.103,1.365 -0.113,2.744 -0.66,4.041 -0.493,1.17 -1.252,2.217 -2.159,3.053 l -3.301,0 c 0.121,-0.11 0.271,-0.237 0.384,-0.35 2.352,-2.352 3.641,-5.606 3.53,-8.95 z m 12.098,8.171 c 0.055,0.589 0.259,1.15 0.597,1.636 -0.156,0.228 -0.294,0.469 -0.393,0.735 -0.107,0.288 -0.159,0.584 -0.187,0.882 -0.296,0.028 -0.59,0.08 -0.876,0.186 -0.263,0.098 -0.502,0.235 -0.728,0.389 -0.239,-0.168 -0.493,-0.316 -0.773,-0.42 -0.287,-0.107 -0.582,-0.159 -0.879,-0.187 -0.054,-0.58 -0.253,-1.137 -0.583,-1.617 0.156,-0.228 0.295,-0.469 0.393,-0.735 0.106,-0.286 0.159,-0.58 0.186,-0.876 0.298,-0.027 0.594,-0.08 0.882,-0.187 0.265,-0.098 0.506,-0.236 0.734,-0.392 0.484,0.332 1.042,0.532 1.627,0.586 z m -4.673,2.101 c 0.057,0.078 0.119,0.153 0.166,0.238 0.161,0.286 0.26,0.601 0.296,0.928 0.009,0.082 0,0.166 0,0.249 L 12.87,20.446 C 12.776,19.998 12.659,19.552 12.497,19.115 12.283,18.54 12.011,17.999 11.695,17.488 l 2.257,0 z m 1.164,2.086 c 0.073,0.001 0.146,-0.009 0.22,0 0.199,0.022 0.397,0.059 0.59,0.131 0.135,0.05 0.261,0.115 0.382,0.186 0.074,0.043 0.138,0.1 0.207,0.15 l 0,2.267 c -0.51,-0.315 -1.052,-0.588 -1.627,-0.802 -0.437,-0.162 -0.883,-0.279 -1.331,-0.373 l 1.559,-1.559 z m 2.37,2.77 0,-2.248 c 0.09,-0.068 0.178,-0.138 0.276,-0.192 0.285,-0.16 0.6,-0.259 0.926,-0.296 0.076,-0.009 0.154,0.001 0.231,0 l 1.539,1.539 c -0.448,0.094 -0.894,0.211 -1.331,0.373 -0.566,0.21 -1.136,0.514 -1.641,0.824 z m 2.123,-3.42 c 10e-4,-0.08 -0.009,-0.159 0,-0.239 0.022,-0.199 0.06,-0.397 0.131,-0.59 0.045,-0.12 0.105,-0.231 0.166,-0.341 0.053,-0.095 0.121,-0.18 0.185,-0.266 l 2.251,0 c -0.31,0.505 -0.614,1.075 -0.825,1.641 -0.162,0.437 -0.279,0.883 -0.373,1.331 l -1.535,-1.536 z m 0.447,-2.407 c -0.054,-0.074 -0.113,-0.144 -0.159,-0.223 -0.168,-0.292 -0.27,-0.615 -0.308,-0.95 -0.009,-0.08 0,-0.162 0,-0.243 l 1.541,-1.541 c 0.094,0.448 0.211,0.894 0.373,1.331 0.214,0.575 0.486,1.116 0.802,1.627 l -2.249,0 z m -1.161,-2.095 c -0.076,-10e-4 -0.152,0.008 -0.227,0 -0.331,-0.036 -0.649,-0.136 -0.938,-0.299 -0.086,-0.048 -0.163,-0.111 -0.243,-0.17 l 0,-2.255 c 0.51,0.315 1.052,0.588 1.627,0.802 0.437,0.162 0.883,0.279 1.331,0.373 l -1.55,1.549 z m -2.38,-2.762 0,2.282 c -0.083,0.061 -0.163,0.125 -0.253,0.175 -0.108,0.06 -0.217,0.119 -0.335,0.163 -0.193,0.072 -0.391,0.109 -0.59,0.131 -0.08,0.009 -0.159,-10e-4 -0.239,0 l -1.555,-1.555 c 0.448,-0.094 0.894,-0.211 1.331,-0.373 0.566,-0.209 1.136,-0.512 1.641,-0.823 z m -2.101,3.442 c -10e-4,0.077 0.008,0.154 0,0.231 -0.037,0.327 -0.136,0.643 -0.297,0.929 -0.051,0.09 -0.116,0.171 -0.178,0.255 l -2.28,0 c 0.31,-0.505 0.614,-1.075 0.825,-1.641 0.162,-0.437 0.279,-0.883 0.373,-1.331 l 1.557,1.557 z m -2.827,4.351 c 0.223,0.6 0.364,1.215 0.442,1.834 l -0.62,0.62 -1.674,1.674 C 9.694,22.415 9.45,21.255 8.984,20.149 8.567,19.159 7.994,18.269 7.303,17.487 l 3.224,0 c 0.434,0.597 0.795,1.254 1.06,1.965 z m 0.509,3.141 0.62,-0.62 c 0.619,0.078 1.235,0.219 1.834,0.442 0.711,0.264 1.368,0.625 1.965,1.06 l 0,3.224 c -0.782,-0.691 -1.673,-1.265 -2.662,-1.681 -1.106,-0.466 -2.266,-0.71 -3.431,-0.751 l 1.674,-1.674 z m 5.39,4.14 0,-3.219 c 0.591,-0.428 1.279,-0.825 1.979,-1.085 0.6,-0.223 1.215,-0.364 1.834,-0.442 l 2.294,2.294 c -1.165,0.041 -2.325,0.285 -3.431,0.751 -0.978,0.413 -1.899,1.02 -2.676,1.701 z m 5.121,-4.812 -0.62,-0.62 c 0.078,-0.619 0.219,-1.235 0.442,-1.834 0.26,-0.7 0.657,-1.388 1.085,-1.979 l 3.219,0 c -0.682,0.777 -1.289,1.698 -1.701,2.677 -0.466,1.106 -0.71,2.266 -0.751,3.431 l -1.674,-1.675 z m 0.868,-5.405 c -0.435,-0.597 -0.796,-1.254 -1.06,-1.965 -0.223,-0.6 -0.364,-1.215 -0.442,-1.834 l 0.62,-0.62 1.674,-1.674 c 0.041,1.165 0.285,2.325 0.751,3.431 0.417,0.99 0.99,1.88 1.681,2.662 l -3.224,0 z m -1.57,-5.106 -0.62,0.62 C 20.666,11.952 20.05,11.811 19.451,11.588 18.74,11.324 18.083,10.963 17.486,10.528 l 0,-3.225 c 0.782,0.691 1.673,1.265 2.662,1.681 1.106,0.466 2.266,0.71 3.431,0.751 l -1.674,1.675 z m -5.39,-4.141 0,3.219 c -0.591,0.428 -1.279,0.825 -1.979,1.085 -0.6,0.223 -1.215,0.364 -1.834,0.442 l -0.62,-0.62 -1.674,-1.674 C 11.573,9.68 12.733,9.436 13.839,8.97 14.817,8.558 15.738,7.951 16.515,7.269 Z m -4.5,5.433 c -0.078,0.619 -0.219,1.235 -0.442,1.834 -0.26,0.7 -0.657,1.388 -1.085,1.979 l -3.219,0 C 7.951,15.738 8.558,14.817 8.97,13.838 9.436,12.732 9.68,11.572 9.721,10.407 l 2.294,2.295 z M 3.011,17.823 C 2.893,17.705 2.762,17.6 2.64,17.487 l 3.304,0 c 0.913,0.839 1.649,1.863 2.145,3.039 0.546,1.297 0.762,2.676 0.66,4.041 L 7.77,25.545 6.541,26.774 C 6.652,23.429 5.364,20.175 3.011,17.823 Z M 16.179,30.991 C 13.827,28.639 10.572,27.35 7.228,27.461 l 1.229,-1.229 0.977,-0.977 c 1.365,-0.103 2.744,0.113 4.041,0.66 1.175,0.496 2.2,1.231 3.039,2.145 l 0,3.304 c -0.112,-0.125 -0.217,-0.256 -0.335,-0.373 z m 1.657,0.014 c -0.113,0.113 -0.24,0.264 -0.35,0.384 l 0,-3.301 c 0.837,-0.908 1.883,-1.666 3.053,-2.159 1.297,-0.546 2.676,-0.762 4.041,-0.66 l 2.206,2.206 c -3.343,-0.111 -6.597,1.178 -8.95,3.53 z m 9.638,-4.217 -1.229,-1.229 -0.977,-0.977 c -0.103,-1.365 0.113,-2.744 0.66,-4.041 0.493,-1.17 1.252,-2.217 2.159,-3.053 l 3.301,0 c -0.121,0.11 -0.271,0.237 -0.384,0.35 -2.352,2.352 -3.641,5.606 -3.53,8.95 z M 30.99,16.18 c 0.118,0.118 0.249,0.223 0.371,0.336 l -3.304,0 C 27.144,15.677 26.408,14.653 25.912,13.477 25.366,12.18 25.15,10.801 25.252,9.436 L 26.229,8.459 27.458,7.23 c -0.109,3.343 1.18,6.598 3.532,8.95 z M 17.822,3.012 c 2.352,2.352 5.607,3.641 8.951,3.53 L 25.544,7.771 24.567,8.748 C 23.202,8.851 21.823,8.635 20.526,8.088 19.351,7.592 18.326,6.857 17.487,5.943 l 0,-3.302 c 0.112,0.122 0.217,0.254 0.335,0.371 z M 16.165,2.998 c 0.113,-0.113 0.24,-0.264 0.35,-0.384 l 0,3.301 C 15.678,6.823 14.632,7.581 13.462,8.074 12.165,8.62 10.786,8.836 9.421,8.734 L 8.443,7.757 7.214,6.528 c 3.344,0.111 6.598,-1.178 8.951,-3.53 z"
     id="path4"
     inkscape:connector-curvature="0"
     style="fill:#66757f" />
</svg>
