<?xml version="1.0" encoding="UTF-8" standalone="no"?>
<svg
   xmlns:dc="http://purl.org/dc/elements/1.1/"
   xmlns:cc="http://creativecommons.org/ns#"
   xmlns:rdf="http://www.w3.org/1999/02/22-rdf-syntax-ns#"
   xmlns:svg="http://www.w3.org/2000/svg"
   xmlns="http://www.w3.org/2000/svg"
   xmlns:sodipodi="http://sodipodi.sourceforge.net/DTD/sodipodi-0.dtd"
   xmlns:inkscape="http://www.inkscape.org/namespaces/inkscape"
   viewBox="0 0 35.5965 35.598251"
   id="svg2"
   version="1.1"
   inkscape:version="0.91 r13725"
   sodipodi:docname="1f58b.svg"
   width="35.5965"
   height="35.598251">
  <metadata
     id="metadata16">
    <rdf:RDF>
      <cc:Work
         rdf:about="">
        <dc:format>image/svg+xml</dc:format>
        <dc:type
           rdf:resource="http://purl.org/dc/dcmitype/StillImage" />
      </cc:Work>
    </rdf:RDF>
  </metadata>
  <defs
     id="defs14" />
  <sodipodi:namedview
     pagecolor="#ffffff"
     bordercolor="#666666"
     borderopacity="1"
     objecttolerance="10"
     gridtolerance="10"
     guidetolerance="10"
     inkscape:pageopacity="0"
     inkscape:pageshadow="2"
     inkscape:window-width="448"
     inkscape:window-height="402"
     id="namedview12"
     showgrid="false"
     inkscape:zoom="6.5555556"
     inkscape:cx="17.722"
     inkscape:cy="17.876"
     inkscape:window-x="0"
     inkscape:window-y="0"
     inkscape:window-maximized="0"
     inkscape:current-layer="svg2" />
  <path
     d="m 3.889,32.45125 c 0.292,0.167 0.626,0.271 0.987,0.271 1.105,0 2,-0.896 2,-2 0,-1.104 -0.895,-2 -2,-2 -1.105,0 -2,0.896 -2,2 0,0.361 0.103,0.695 0.27,0.987 l -3.146,3.146 0.876,-7.133 9,-7 5,5 -7,9 -7.134,0.876 3.147,-3.147 z"
     id="path4"
     inkscape:connector-curvature="0"
     style="fill:#99aab5" />
  <path
     d="m 22.233,5.03025 c -1.151,1.151 -1.151,3.016 0,4.167 l 4.167,4.168 c 1.151,1.15 3.018,1.15 4.167,0 l 4.167,-4.168 c 1.15,-1.151 1.15,-3.016 0,-4.167 l -4.167,-4.167 c -1.15,-1.151 -3.016,-1.151 -4.167,0 l -4.167,4.167 z"
     id="path6"
     inkscape:connector-curvature="0"
     style="fill:#66757f" />
  <path
     d="m 9.233,18.03125 17.202,-17.204 8.333,8.335 -17.201,17.203 c -1.15,1.15 -3.016,1.15 -4.168,0 l -4.166,-4.168 c -1.151,-1.151 -1.151,-3.016 0,-4.166 z"
     id="path8"
     inkscape:connector-curvature="0"
     style="fill:#31373d" />
  <path
     d="m 17.191,10.07225 2.125,-2.125 8.334,8.334 -2.125,2.125 z"
     id="path10"
     inkscape:connector-curvature="0"
     style="fill:#66757f" />
</svg>
