<?xml version="1.0" encoding="UTF-8" standalone="no"?>
<svg
   xmlns:dc="http://purl.org/dc/elements/1.1/"
   xmlns:cc="http://creativecommons.org/ns#"
   xmlns:rdf="http://www.w3.org/1999/02/22-rdf-syntax-ns#"
   xmlns:svg="http://www.w3.org/2000/svg"
   xmlns="http://www.w3.org/2000/svg"
   xmlns:sodipodi="http://sodipodi.sourceforge.net/DTD/sodipodi-0.dtd"
   xmlns:inkscape="http://www.inkscape.org/namespaces/inkscape"
   viewBox="0 0 33.292496 35.354507"
   id="svg2"
   version="1.1"
   inkscape:version="0.91 r13725"
   sodipodi:docname="1f587.svg"
   width="33.292496"
   height="35.354507">
  <metadata
     id="metadata12">
    <rdf:RDF>
      <cc:Work
         rdf:about="">
        <dc:format>image/svg+xml</dc:format>
        <dc:type
           rdf:resource="http://purl.org/dc/dcmitype/StillImage" />
      </cc:Work>
    </rdf:RDF>
  </metadata>
  <defs
     id="defs10" />
  <sodipodi:namedview
     pagecolor="#ffffff"
     bordercolor="#666666"
     borderopacity="1"
     objecttolerance="10"
     gridtolerance="10"
     guidetolerance="10"
     inkscape:pageopacity="0"
     inkscape:pageshadow="2"
     inkscape:window-width="640"
     inkscape:window-height="480"
     id="namedview8"
     showgrid="false"
     inkscape:zoom="6.5555556"
     inkscape:cx="16.393314"
     inkscape:cy="17.669"
     inkscape:window-x="0"
     inkscape:window-y="0"
     inkscape:window-maximized="0"
     inkscape:current-layer="svg2" />
  <path
     d="m 33.156314,29.398508 -5.621,-23.1999997 c -0.873,-3.606 -4.515,-5.83200002 -8.124,-4.956 -0.34,0.082 -0.665,0.196 -0.982,0.326 -0.607,-0.66400002 -1.382,-1.15300002 -2.271,-1.39600002 -2.561,-0.704 -5.219,0.811 -5.921,3.37400002 L 5.1873142,21.964508 c -0.206,0.75 -0.107,1.534 0.278,2.209 0.385,0.676 1.01,1.161 1.759,1.365 0.256,0.07 0.516,0.105 0.774,0.105 0.499,0 0.991,-0.129 1.436,-0.383 0.6749998,-0.385 1.1599998,-1.009 1.3659998,-1.759 l 3.029,-11.051 c 0.146,-0.532 -0.167,-1.083 -0.7,-1.229 -0.533,-0.147 -1.083,0.167 -1.229,0.7 l -3.0289998,11.05 c -0.064,0.234 -0.216,0.431 -0.427,0.551 -0.21,0.12 -0.456,0.152 -0.691,0.086 -0.235,-0.062 -0.43,-0.213 -0.55,-0.424 -0.12,-0.211 -0.151,-0.456 -0.087,-0.69 L 12.164314,4.0755083 c 0.411,-1.499 1.967,-2.382 3.464,-1.974 0.385,0.106 0.733,0.292 1.033,0.537 -0.548,0.462 -1.028,1.01 -1.412,1.641 -0.936,1.534 -1.218,3.342 -0.795,5.088 l 0.988,4.0769997 -4.151,15.144 c -0.334,1.219 -1.123,2.234 -2.2199998,2.859 -1.098,0.626 -2.373,0.786 -3.592,0.451 -1.218,-0.333 -2.233,-1.121 -2.859,-2.219 -0.625,-1.098 -0.786,-2.373 -0.452,-3.591 l 4.291,-15.656 c 0.146,-0.5319997 -0.167,-1.0829997 -0.7,-1.2289997 -0.533,-0.146 -1.083,0.167 -1.229,0.7 L 0.24231421,25.559508 c -0.475,1.733 -0.247,3.548 0.643,5.109 0.88999999,1.562 2.33499999,2.684 4.06799999,3.159 0.592,0.162 1.193,0.242 1.791,0.242 1.152,0 2.291,-0.299 3.3199998,-0.886 1.562,-0.89 2.684,-2.334 3.159,-4.067 l 3.195,-11.656 1.862,7.683 c 0.11,0.458 0.52,0.765 0.971,0.765 0.078,0 0.157,-0.009 0.236,-0.028 0.537,-0.13 0.866,-0.671 0.736,-1.207 l -2.713,-11.196 2.023,-7.3819997 c 0.252,-0.922 0.225,-1.876 -0.066,-2.764 0.139,-0.048 0.271,-0.11 0.416,-0.145 2.539,-0.615 5.096,0.949 5.71,3.483 l 5.621,23.1999997 c 0.366,1.511 -0.565,3.038 -2.076,3.404 -0.732,0.177 -1.488,0.06 -2.133,-0.333 -0.643,-0.393 -1.094,-1.012 -1.271,-1.743 l -4.497,-18.56 0,-0.001 c -0.058,-0.236 -0.02,-0.479 0.107,-0.687 0.126,-0.208 0.326,-0.353 0.562,-0.41 0.485,-0.121 0.98,0.183 1.099,0.669 l 2.698,11.137 c 0.11,0.458 0.52,0.765 0.971,0.765 0.078,0 0.157,-0.009 0.236,-0.028 0.537,-0.13 0.866,-0.67 0.736,-1.207 l -2.698,-11.137 c -0.376,-1.558 -1.955,-2.5209997 -3.513,-2.1429997 -0.756,0.183 -1.395,0.6489997 -1.8,1.3119997 -0.404,0.664 -0.526,1.445 -0.343,2.201 l 0,10e-4 4.497,18.559 c 0.303,1.251 1.074,2.31 2.174,2.979 0.766,0.467 1.626,0.707 2.5,0.707 0.382,0 0.765,-0.046 1.145,-0.138 2.582,-0.626 4.174,-3.236 3.548,-5.818 z m -16.199,-24.0789997 c 0.201,-0.331 0.449,-0.619 0.717,-0.885 0.052,0.374 0.031,0.757 -0.072,1.132 l -1.067,3.893 -0.137,-0.563 c -0.297,-1.228 -0.099,-2.498 0.559,-3.577 z"
     id="path4"
     inkscape:connector-curvature="0"
     style="fill:#99aab5" />
  <path
     d="m 16.535314,9.4595083 0.973,4.0169997 0.324,-1.194 -0.946,-4.1009997 z m -1.445,5.2609997 0.968,4.031 0.358,-1.291 -0.973,-4.016 z m 4.376,-11.3899997 c 0,0 0.304,-0.126 0.538,-0.173 0,0 -0.25,-1.016 -1.023,-1.797 l -0.552,0.208 c -0.001,0.001 0.732,0.762 1.037,1.762 z m -2.189,1.538 c 0,0 0.266,-0.328 0.397,-0.434 0,0 -0.091,-1.086 -1.012,-1.797 l -0.416,0.388 c 0.844,0.554 1.031,1.843 1.031,1.843 z"
     id="path6"
     inkscape:connector-curvature="0"
     style="fill:#66757f" />
</svg>
