<?xml version="1.0" encoding="UTF-8" standalone="no"?>
<svg
   xmlns:dc="http://purl.org/dc/elements/1.1/"
   xmlns:cc="http://creativecommons.org/ns#"
   xmlns:rdf="http://www.w3.org/1999/02/22-rdf-syntax-ns#"
   xmlns:svg="http://www.w3.org/2000/svg"
   xmlns="http://www.w3.org/2000/svg"
   xmlns:sodipodi="http://sodipodi.sourceforge.net/DTD/sodipodi-0.dtd"
   xmlns:inkscape="http://www.inkscape.org/namespaces/inkscape"
   viewBox="0 0 29.980612 35.862991"
   id="svg2"
   version="1.1"
   inkscape:version="0.91 r13725"
   sodipodi:docname="1f590-1f3fd.svg"
   width="29.980612"
   height="35.862991">
  <metadata
     id="metadata12">
    <rdf:RDF>
      <cc:Work
         rdf:about="">
        <dc:format>image/svg+xml</dc:format>
        <dc:type
           rdf:resource="http://purl.org/dc/dcmitype/StillImage" />
      </cc:Work>
    </rdf:RDF>
  </metadata>
  <defs
     id="defs10" />
  <sodipodi:namedview
     pagecolor="#ffffff"
     bordercolor="#666666"
     borderopacity="1"
     objecttolerance="10"
     gridtolerance="10"
     guidetolerance="10"
     inkscape:pageopacity="0"
     inkscape:pageshadow="2"
     inkscape:window-width="640"
     inkscape:window-height="480"
     id="namedview8"
     showgrid="false"
     inkscape:zoom="6.5555556"
     inkscape:cx="14.440362"
     inkscape:cy="18"
     inkscape:window-x="0"
     inkscape:window-y="0"
     inkscape:window-maximized="0"
     inkscape:current-layer="svg2" />
  <path
     d="m 28.815362,16.081989 c -1.381,-0.611 -3.354,0.208 -4.75,2.188 -0.917,1.3 -1.187,3.151 -2.391,3.344 -0.46,0.074 -0.71,-0.206 -0.84,-0.609 -0.137,-0.68 -0.107,-1.731 0.147,-3.201 l 2.74,-12.3149995 c 0.218,-0.941 -0.293,-1.852 -1.523,-2.149 -1.23,-0.297 -2.155,0.306 -2.374,1.247 l -2.446,11.1659995 c -0.493,2.466 -1.407,2.018 -1.186,-0.775 l 0,-0.001 0.701,-13.0919995 c 0.057,-1.01200003 -0.721,-1.83900003 -1.871,-1.88300003 -1.15,-0.044 -1.979,0.646 -2.038,1.65700003 l -0.668,13.4089995 c -0.143,2.707 -1.112,1.687 -1.322,-0.274 L 9.4403625,3.9459895 c -0.159,-1.023 -1.118,-1.73 -2.268,-1.546 -1.15,0.185 -1.845,1.136 -1.686,2.159 l 1.495,9.9139995 c 0.593,3.785 -0.182,4.833 -1.458,0.723 l -1.594,-6.0249995 c -0.26,-0.967 -1.213,-1.567 -2.41,-1.231 -1.19700004,0.336 -1.71300004,1.299 -1.45400004,2.2659995 l 1.55800004,5.663 c 0.651,4.077 0.651,5.686 0.651,8.493 0,2.807 1.291,11.501 11.1659995,11.501 9.875,0 11.906,-10.031 12,-10.666 0,0 0.123,-1.48 1.156,-2.865 1.469,-1.969 2.5,-3.156 3.125,-3.866 0.317,-0.359 0.625,-1.707 -0.906,-2.384 z"
     id="path4"
     inkscape:connector-curvature="0"
     style="fill:#d5ab88" />
  <path
     d="m 21.351362,21.603989 c -0.3,-0.122 -0.554,-0.436 -0.584,-1.119 -1.892,0.259 -4.451,0.789 -6.42,2.715 -2.556,2.499 -2.992,5.2 -2.971,7.007 0.017,1.457 0.812,2.147 1.045,-0.012 0.293,-2.727 2.282,-8.143 8.93,-8.591 z"
     id="path6"
     inkscape:connector-curvature="0"
     style="fill:#b78b60" />
</svg>
