<?xml version="1.0" encoding="UTF-8" standalone="no"?>
<svg
   xmlns:dc="http://purl.org/dc/elements/1.1/"
   xmlns:cc="http://creativecommons.org/ns#"
   xmlns:rdf="http://www.w3.org/1999/02/22-rdf-syntax-ns#"
   xmlns:svg="http://www.w3.org/2000/svg"
   xmlns="http://www.w3.org/2000/svg"
   xmlns:sodipodi="http://sodipodi.sourceforge.net/DTD/sodipodi-0.dtd"
   xmlns:inkscape="http://www.inkscape.org/namespaces/inkscape"
   viewBox="0 0 23.869751 36.039001"
   id="svg2"
   version="1.1"
   inkscape:version="0.91 r13725"
   sodipodi:docname="1f595-1f3ff.svg"
   width="23.869751"
   height="36.039001">
  <metadata
     id="metadata14">
    <rdf:RDF>
      <cc:Work
         rdf:about="">
        <dc:format>image/svg+xml</dc:format>
        <dc:type
           rdf:resource="http://purl.org/dc/dcmitype/StillImage" />
      </cc:Work>
    </rdf:RDF>
  </metadata>
  <defs
     id="defs12" />
  <sodipodi:namedview
     pagecolor="#ffffff"
     bordercolor="#666666"
     borderopacity="1"
     objecttolerance="10"
     gridtolerance="10"
     guidetolerance="10"
     inkscape:pageopacity="0"
     inkscape:pageshadow="2"
     inkscape:window-width="640"
     inkscape:window-height="480"
     id="namedview10"
     showgrid="false"
     inkscape:zoom="6.5555556"
     inkscape:cx="11.858"
     inkscape:cy="18.039"
     inkscape:window-x="0"
     inkscape:window-y="0"
     inkscape:window-maximized="0"
     inkscape:current-layer="svg2" />
  <path
     d="m 23.869,20.183 c 0,0 0.093,-2.362 -1.792,-3.068 -1.667,-0.625 -2.309,0.622 -2.309,0.622 0,0 0.059,-1.914 -1.941,-2.622 -1.885,-0.668 -2.984,0.773 -2.984,0.773 0,0 -0.072,-1.687 -2.058,-2.232 -1.671,-0.459 -2.916,1.167 -2.916,1.167 l 0,-0.822 c 0,-0.959 -0.542,-2.575 -2.543,-2.576 -2,-0.002 -2.457,1.659 -2.457,2.576 l 0,1.614 c 0,1.323 -0.948,0.198 -1.636,0.823 -1.57,1.427 -2.269,6.431 -1.188,10.5 1.312,4.938 4.062,9.101 9.694,9.101 8.132,0 12.124,-5.298 12.129,-11.924 l 0.001,-3.932 z"
     id="path4"
     inkscape:connector-curvature="0"
     style="fill:#7c533e" />
  <path
     d="m 14.858,18.5 c 0,1.381 -1.119,2.5 -2.5,2.5 -1.381,0 -2.5,-1.119 -2.5,-2.5 l 0,-16 c 0,-1.381 1.119,-2.5 2.5,-2.5 1.381,0 2.5,1.119 2.5,2.5 l 0,16 z M 6.108,16 3.796,16.003 c -1.625,0 -2.141,0.465 -2.812,3.122 C 0.546,20.854 0,21.672 0,23.516 0,26.422 4.594,35.864 11.359,35.907 L 6.108,16 Z"
     id="path6"
     inkscape:connector-curvature="0"
     style="fill:#7c533e" />
  <path
     d="M 3.858,25.521 C 3.858,25.772 4.062,26 4.314,26 l 0.088,0 c 0.252,0 0.456,-0.204 0.456,-0.456 l 0,-9.544 -0.969,0 -0.031,9.521 z"
     id="path8"
     inkscape:connector-curvature="0"
     style="fill:#543226" />
</svg>
