<?xml version="1.0" encoding="UTF-8" standalone="no"?>
<svg
   xmlns:dc="http://purl.org/dc/elements/1.1/"
   xmlns:cc="http://creativecommons.org/ns#"
   xmlns:rdf="http://www.w3.org/1999/02/22-rdf-syntax-ns#"
   xmlns:svg="http://www.w3.org/2000/svg"
   xmlns="http://www.w3.org/2000/svg"
   xmlns:sodipodi="http://sodipodi.sourceforge.net/DTD/sodipodi-0.dtd"
   xmlns:inkscape="http://www.inkscape.org/namespaces/inkscape"
   viewBox="0 0 30 36"
   id="svg2"
   version="1.1"
   inkscape:version="0.91 r13725"
   sodipodi:docname="1f5b2.svg"
   width="30"
   height="36">
  <metadata
     id="metadata18">
    <rdf:RDF>
      <cc:Work
         rdf:about="">
        <dc:format>image/svg+xml</dc:format>
        <dc:type
           rdf:resource="http://purl.org/dc/dcmitype/StillImage" />
      </cc:Work>
    </rdf:RDF>
  </metadata>
  <defs
     id="defs16" />
  <sodipodi:namedview
     pagecolor="#ffffff"
     bordercolor="#666666"
     borderopacity="1"
     objecttolerance="10"
     gridtolerance="10"
     guidetolerance="10"
     inkscape:pageopacity="0"
     inkscape:pageshadow="2"
     inkscape:window-width="640"
     inkscape:window-height="480"
     id="namedview14"
     showgrid="false"
     inkscape:zoom="6.5555556"
     inkscape:cx="15"
     inkscape:cy="18"
     inkscape:window-x="0"
     inkscape:window-y="0"
     inkscape:window-maximized="0"
     inkscape:current-layer="svg2" />
  <path
     d="M 30,17 C 30,26.389 27.812,36 15,36 2.188,36 0,26.389 0,17 0,7.611 5.611,3 15,3 24.465,3 30,7.701 30,17 Z"
     id="path4"
     inkscape:connector-curvature="0"
     style="fill:#66757f" />
  <path
     d="M 29,13.969 C 29,21.891 27.062,30 15,30 2.938,30 1,21.891 1,13.969 1,6.047 6.237,3 15,3 23.763,3 29,6.047 29,13.969 Z"
     id="path6"
     inkscape:connector-curvature="0"
     style="fill:#99aab5" />
  <path
     d="M 26,12.5 C 26,17.746 21.075,21 15,21 8.925,21 4,17.746 4,12.5 4,7.253 8.925,3 15,3 c 6.075,0 11,4.253 11,9.5 z"
     id="path8"
     inkscape:connector-curvature="0"
     style="fill:#ccd6dd" />
  <path
     d="m 25,10 c 0,5.523 -4.478,8 -10,8 C 9.477,18 5,15.523 5,10 5,4.477 9.477,0 15,0 20.522,0 25,4.477 25,10 Z"
     id="path10"
     inkscape:connector-curvature="0"
     style="fill:#744eaa" />
  <path
     d="m 14,23 0,4.75 c 0,1 -9.672,-1 -9.672,-6 0,-1.375 0.301,-1.973 2.315,-0.984 C 11.134,22.969 14,22.452 14,23 Z m 2,0 0,4.75 c 0,1 9.672,-1 9.672,-6 0,-1.375 -0.301,-1.973 -2.316,-0.984 C 18.865,22.969 16,22.452 16,23 Z"
     id="path12"
     inkscape:connector-curvature="0"
     style="fill:#292f33" />
</svg>
