<?xml version="1.0" encoding="UTF-8" standalone="no"?>
<svg
   xmlns:dc="http://purl.org/dc/elements/1.1/"
   xmlns:cc="http://creativecommons.org/ns#"
   xmlns:rdf="http://www.w3.org/1999/02/22-rdf-syntax-ns#"
   xmlns:svg="http://www.w3.org/2000/svg"
   xmlns="http://www.w3.org/2000/svg"
   xmlns:sodipodi="http://sodipodi.sourceforge.net/DTD/sodipodi-0.dtd"
   xmlns:inkscape="http://www.inkscape.org/namespaces/inkscape"
   viewBox="0 0 24 36"
   id="svg2"
   version="1.1"
   inkscape:version="0.91 r13725"
   sodipodi:docname="1f5c4.svg"
   width="24"
   height="36">
  <metadata
     id="metadata16">
    <rdf:RDF>
      <cc:Work
         rdf:about="">
        <dc:format>image/svg+xml</dc:format>
        <dc:type
           rdf:resource="http://purl.org/dc/dcmitype/StillImage" />
      </cc:Work>
    </rdf:RDF>
  </metadata>
  <defs
     id="defs14" />
  <sodipodi:namedview
     pagecolor="#ffffff"
     bordercolor="#666666"
     borderopacity="1"
     objecttolerance="10"
     gridtolerance="10"
     guidetolerance="10"
     inkscape:pageopacity="0"
     inkscape:pageshadow="2"
     inkscape:window-width="640"
     inkscape:window-height="480"
     id="namedview12"
     showgrid="false"
     inkscape:zoom="6.5555556"
     inkscape:cx="12"
     inkscape:cy="18"
     inkscape:window-x="0"
     inkscape:window-y="0"
     inkscape:window-maximized="0"
     inkscape:current-layer="svg2" />
  <path
     d="m 24,34 c 0,1.104 -0.896,2 -2,2 L 2,36 C 0.896,36 0,35.104 0,34 L 0,2 C 0,0.896 0.896,0 2,0 l 20,0 c 1.104,0 2,0.896 2,2 l 0,32 z"
     id="path4"
     inkscape:connector-curvature="0"
     style="fill:#292f33" />
  <path
     d="m 22,16 c 0,0.552 -0.447,1 -1,1 L 3,17 C 2.448,17 2,16.552 2,16 L 2,3 C 2,2.448 2.448,2 3,2 l 18,0 c 0.553,0 1,0.448 1,1 l 0,13 z m 0,17 c 0,0.553 -0.447,1 -1,1 L 3,34 C 2.448,34 2,33.553 2,33 L 2,20 c 0,-0.553 0.448,-1 1,-1 l 18,0 c 0.553,0 1,0.447 1,1 l 0,13 z"
     id="path6"
     inkscape:connector-curvature="0"
     style="fill:#66757f" />
  <path
     d="m 16,8 c 0,0.552 -0.447,1 -1,1 L 9,9 C 8.448,9 8,8.552 8,8 L 8,5 C 8,4.448 8.448,4 9,4 l 6,0 c 0.553,0 1,0.448 1,1 l 0,3 z m 0,17 c 0,0.553 -0.447,1 -1,1 L 9,26 C 8.448,26 8,25.553 8,25 l 0,-3 c 0,-0.553 0.448,-1 1,-1 l 6,0 c 0.553,0 1,0.447 1,1 l 0,3 z"
     id="path8"
     inkscape:connector-curvature="0"
     style="fill:#292f33" />
  <path
     d="m 9,5 6,0 0,3 -6,0 z m 0,17 6,0 0,3 -6,0 z m 9,-8.97 C 18,13.566 17.565,14 17.03,14 L 6.97,14 C 6.434,14 6,13.565 6,13.03 L 6,12.97 C 6,12.434 6.434,12 6.97,12 l 10.06,0 c 0.535,0 0.97,0.435 0.97,0.97 l 0,0.06 z m 0,16.999 C 18,30.565 17.565,31 17.03,31 L 6.97,31 C 6.434,31 6,30.565 6,30.029 L 6,29.97 C 6,29.435 6.434,29 6.97,29 l 10.06,0 c 0.535,0 0.97,0.435 0.97,0.971 l 0,0.058 z"
     id="path10"
     inkscape:connector-curvature="0"
     style="fill:#e1e8ed" />
</svg>
