<?xml version="1.0" encoding="UTF-8" standalone="no"?>
<svg
   xmlns:dc="http://purl.org/dc/elements/1.1/"
   xmlns:cc="http://creativecommons.org/ns#"
   xmlns:rdf="http://www.w3.org/1999/02/22-rdf-syntax-ns#"
   xmlns:svg="http://www.w3.org/2000/svg"
   xmlns="http://www.w3.org/2000/svg"
   xmlns:sodipodi="http://sodipodi.sourceforge.net/DTD/sodipodi-0.dtd"
   xmlns:inkscape="http://www.inkscape.org/namespaces/inkscape"
   viewBox="0 0 34 32"
   id="svg2"
   version="1.1"
   inkscape:version="0.91 r13725"
   sodipodi:docname="1f5c2.svg"
   width="34"
   height="32">
  <metadata
     id="metadata22">
    <rdf:RDF>
      <cc:Work
         rdf:about="">
        <dc:format>image/svg+xml</dc:format>
        <dc:type
           rdf:resource="http://purl.org/dc/dcmitype/StillImage" />
      </cc:Work>
    </rdf:RDF>
  </metadata>
  <defs
     id="defs20" />
  <sodipodi:namedview
     pagecolor="#ffffff"
     bordercolor="#666666"
     borderopacity="1"
     objecttolerance="10"
     gridtolerance="10"
     guidetolerance="10"
     inkscape:pageopacity="0"
     inkscape:pageshadow="2"
     inkscape:window-width="640"
     inkscape:window-height="480"
     id="namedview18"
     showgrid="false"
     inkscape:zoom="6.5555556"
     inkscape:cx="17"
     inkscape:cy="17"
     inkscape:window-x="0"
     inkscape:window-y="0"
     inkscape:window-maximized="0"
     inkscape:current-layer="svg2" />
  <path
     d="m 30,12 c 0,1.104 -0.896,2 -2,2 L 6,14 C 4.896,14 4,13.104 4,12 L 4,4 C 4,2.896 4.896,2 6,2 l 22,0 c 1.104,0 2,0.896 2,2 l 0,8 z"
     id="path4"
     inkscape:connector-curvature="0"
     style="fill:#fdcb58" />
  <path
     d="m 32,16 c 0,1.104 -0.896,2 -2,2 L 4,18 C 2.896,18 2,17.104 2,16 L 2,8 C 2,6.896 2.896,6 4,6 l 26,0 c 1.104,0 2,0.896 2,2 l 0,8 z"
     id="path6"
     inkscape:connector-curvature="0"
     style="fill:#fdd888" />
  <path
     d="m 34,30 c 0,1.104 -0.896,2 -2,2 L 2,32 C 0.896,32 0,31.104 0,30 L 0,12 c 0,-1.104 0.896,-2 2,-2 l 30,0 c 1.104,0 2,0.896 2,2 l 0,18 z"
     id="path8"
     inkscape:connector-curvature="0"
     style="fill:#fee7b8" />
  <path
     d="m 10,11 z m 0,0 z"
     id="path10"
     inkscape:connector-curvature="0"
     style="fill:#67757f" />
  <path
     d="m 22,0 -5,0 c -1.104,0 -2,0.895 -2,2 l 0,1 2,0 c 1.104,0 2,0.896 2,2 l 3,0 c 1.104,0 2,-0.896 2,-2 L 24,2 C 24,0.895 23.104,0 22,0 Z"
     id="path12"
     inkscape:connector-curvature="0"
     style="fill:#78b159" />
  <path
     d="M 16,4 11,4 C 9.896,4 9,4.896 9,6 l 0,1 2,0 c 1.104,0 2,0.896 2,2 l 3,0 c 1.104,0 2,-0.896 2,-2 L 18,6 C 18,4.896 17.104,4 16,4 Z"
     id="path14"
     inkscape:connector-curvature="0"
     style="fill:#f18f26" />
  <path
     d="m 12,11 c 0,1.104 -0.896,2 -2,2 L 5,13 C 3.896,13 3,12.104 3,11 L 3,10 C 3,8.896 3.896,8 5,8 l 5,0 c 1.104,0 2,0.896 2,2 l 0,1 z"
     id="path16"
     inkscape:connector-curvature="0"
     style="fill:#9268ca" />
</svg>
