<?xml version="1.0" encoding="UTF-8" standalone="no"?>
<svg
   xmlns:dc="http://purl.org/dc/elements/1.1/"
   xmlns:cc="http://creativecommons.org/ns#"
   xmlns:rdf="http://www.w3.org/1999/02/22-rdf-syntax-ns#"
   xmlns:svg="http://www.w3.org/2000/svg"
   xmlns="http://www.w3.org/2000/svg"
   xmlns:sodipodi="http://sodipodi.sourceforge.net/DTD/sodipodi-0.dtd"
   xmlns:inkscape="http://www.inkscape.org/namespaces/inkscape"
   viewBox="0 0 35.054749 35.678375"
   id="svg2"
   version="1.1"
   inkscape:version="0.91 r13725"
   sodipodi:docname="1f5dd.svg"
   width="35.054749"
   height="35.678375">
  <metadata
     id="metadata22">
    <rdf:RDF>
      <cc:Work
         rdf:about="">
        <dc:format>image/svg+xml</dc:format>
        <dc:type
           rdf:resource="http://purl.org/dc/dcmitype/StillImage" />
      </cc:Work>
    </rdf:RDF>
  </metadata>
  <defs
     id="defs20" />
  <sodipodi:namedview
     pagecolor="#ffffff"
     bordercolor="#666666"
     borderopacity="1"
     objecttolerance="10"
     gridtolerance="10"
     guidetolerance="10"
     inkscape:pageopacity="0"
     inkscape:pageshadow="2"
     inkscape:window-width="640"
     inkscape:window-height="480"
     id="namedview18"
     showgrid="false"
     inkscape:zoom="6.5555556"
     inkscape:cx="17.55575"
     inkscape:cy="17.689377"
     inkscape:window-x="0"
     inkscape:window-y="0"
     inkscape:window-maximized="0"
     inkscape:current-layer="svg2" />
  <path
     d="m 7.47075,34.857 c 0.725,0.725 1.313,1.313 2.417,0.21 1.103,-1.103 -0.665,-2.871 0.439,-3.975 l 0.552,-0.552 c 1.104,-1.104 2.872,0.664 3.974,-0.438 1.104,-1.104 0.516,-1.692 -0.21,-2.417 l -2.677,-2.676 c -0.725,-0.725 -1.808,-0.819 -2.417,-0.209 l -4.964,4.964 c -0.61,0.609 -0.516,1.692 0.209,2.417 l 2.677,2.676 z"
     id="path4"
     inkscape:connector-curvature="0"
     style="fill:#31373d" />
  <path
     d="m 0.58575,33.761 c 0.781,0.781 2.047,0.781 2.829,0 l 19.07,-19.069 c -0.101,-2.727 4.95,-4.95 3.536,-6.364 -0.781,-0.781 -4.243,5.657 -6.971,4.142 l -18.464,18.463 c -0.781,0.782 -0.781,2.048 0,2.828 z"
     id="path6"
     inkscape:connector-curvature="0"
     style="fill:#67757f" />
  <path
     d="m 16.47475,3.732 c -2.148,2.147 -2.149,5.63 0,7.778 2.148,2.148 5.63,2.148 7.778,0 2.147,-2.148 2.147,-5.63 0,-7.778 -2.148,-2.148 -5.631,-2.148 -7.778,0 z m 6.363,6.364 c -1.366,1.367 -3.583,1.367 -4.95,0 -1.367,-1.367 -1.367,-3.583 0,-4.95 1.367,-1.367 3.583,-1.367 4.95,0 1.367,1.367 1.367,3.583 0,4.95 z"
     id="path8"
     inkscape:connector-curvature="0"
     style="fill:#31373d" />
  <path
     d="m 25.66675,1.611 c -2.148,2.147 -2.148,5.63 0,7.778 2.148,2.148 5.63,2.148 7.777,0 2.148,-2.148 2.148,-5.631 0,-7.778 -2.147,-2.148 -5.629,-2.148 -7.777,0 z m 6.364,6.364 c -1.366,1.366 -3.583,1.366 -4.949,0 -1.367,-1.368 -1.367,-3.583 0,-4.95 1.366,-1.367 3.582,-1.368 4.949,0 1.367,1.366 1.367,3.583 0,4.95 z"
     id="path10"
     inkscape:connector-curvature="0"
     style="fill:#31373d" />
  <path
     d="m 23.54475,10.803 c -2.147,2.147 -2.147,5.63 0,7.778 2.147,2.148 5.631,2.148 7.778,0 2.147,-2.148 2.147,-5.63 0,-7.778 -2.147,-2.147 -5.63,-2.147 -7.778,0 z m 6.365,6.364 c -1.366,1.367 -3.583,1.367 -4.95,0 -1.367,-1.367 -1.366,-3.583 0,-4.949 1.367,-1.367 3.583,-1.368 4.95,0 1.366,1.366 1.366,3.582 0,4.949 z"
     id="path12"
     inkscape:connector-curvature="0"
     style="fill:#31373d" />
  <path
     d="m 18.94975,18.227 c 0.781,0.781 0.781,2.048 0,2.829 -0.781,0.78 -2.048,0.78 -2.829,0 l -2.829,-2.829 c -0.781,-0.78 -0.781,-2.047 0,-2.828 0.781,-0.781 2.048,-0.781 2.829,0 l 2.829,2.828 z"
     id="path14"
     inkscape:connector-curvature="0"
     style="fill:#67757f" />
  <circle
     cx="25.55575"
     cy="8.9890003"
     r="1"
     id="circle16"
     style="fill:#31373d" />
</svg>
