<?xml version="1.0" encoding="UTF-8" standalone="no"?>
<svg
   xmlns:dc="http://purl.org/dc/elements/1.1/"
   xmlns:cc="http://creativecommons.org/ns#"
   xmlns:rdf="http://www.w3.org/1999/02/22-rdf-syntax-ns#"
   xmlns:svg="http://www.w3.org/2000/svg"
   xmlns="http://www.w3.org/2000/svg"
   xmlns:sodipodi="http://sodipodi.sourceforge.net/DTD/sodipodi-0.dtd"
   xmlns:inkscape="http://www.inkscape.org/namespaces/inkscape"
   viewBox="0 0 36 36"
   id="svg2"
   version="1.1"
   inkscape:version="0.91 r13725"
   sodipodi:docname="1f5d1.svg"
   width="36"
   height="36">
  <metadata
     id="metadata12">
    <rdf:RDF>
      <cc:Work
         rdf:about="">
        <dc:format>image/svg+xml</dc:format>
        <dc:type
           rdf:resource="http://purl.org/dc/dcmitype/StillImage" />
      </cc:Work>
    </rdf:RDF>
  </metadata>
  <defs
     id="defs10" />
  <sodipodi:namedview
     pagecolor="#ffffff"
     bordercolor="#666666"
     borderopacity="1"
     objecttolerance="10"
     gridtolerance="10"
     guidetolerance="10"
     inkscape:pageopacity="0"
     inkscape:pageshadow="2"
     inkscape:window-width="640"
     inkscape:window-height="480"
     id="namedview8"
     showgrid="false"
     inkscape:zoom="6.5555556"
     inkscape:cx="18"
     inkscape:cy="18"
     inkscape:window-x="0"
     inkscape:window-y="0"
     inkscape:window-maximized="0"
     inkscape:current-layer="svg2" />
  <path
     d="M 31.5,4 29.716,8.542 27.932,4 23.785,4 21.859,8.903 19.932,4 16.069,4 14.143,8.903 12.216,4 8.068,4 6.284,8.542 4.5,4 2.133,4 l 3.735,28.013 24.263,0 L 33.867,4 31.5,4 Z m -5.642,1.678 2.459,6.425 -2.601,6.621 -2.457,-6.254 2.599,-6.792 z M 18,6.049 20.457,12.469 18,18.723 15.543,12.469 18,6.049 Z M 10.142,5.678 12.741,12.47 10.284,18.724 7.683,12.103 10.142,5.678 Z M 5.958,16.611 6.284,15.758 8.833,22.418 7.26,26.422 5.958,16.611 Z M 8.068,32 10.284,26.21 12.5,32 8.068,32 Z m 3.668,-9.582 2.407,-6.288 2.406,6.288 -2.406,6.126 -2.407,-6.126 z M 15.784,32 18,26.21 20.216,32 15.784,32 Z m 3.667,-9.582 2.406,-6.288 2.406,6.288 -2.406,6.126 -2.406,-6.126 z M 23.5,32 25.716,26.21 27.932,32 23.5,32 Z m 5.392,-5.192 -1.725,-4.39 2.549,-6.659 0.411,1.074 -1.235,9.975 z"
     id="path4"
     inkscape:connector-curvature="0"
     style="fill:#9aaab4" />
  <path
     d="m 32,34 c 0,-1.104 -0.896,-2 -2,-2 L 6,32 c -1.104,0 -2,0.896 -2,2 0,1.104 0.896,2 2,2 l 24,0 c 1.104,0 2,-0.896 2,-2 z M 36,2 C 36,0.895 35.104,0 34,0 L 2,0 C 0.896,0 0,0.896 0,2 0,3.105 0.896,4 2,4 l 32,0 c 1.104,0 2,-0.895 2,-2 z"
     id="path6"
     inkscape:connector-curvature="0"
     style="fill:#67757f" />
</svg>
