<?xml version="1.0" encoding="UTF-8" standalone="no"?>
<svg
   xmlns:dc="http://purl.org/dc/elements/1.1/"
   xmlns:cc="http://creativecommons.org/ns#"
   xmlns:rdf="http://www.w3.org/1999/02/22-rdf-syntax-ns#"
   xmlns:svg="http://www.w3.org/2000/svg"
   xmlns="http://www.w3.org/2000/svg"
   xmlns:sodipodi="http://sodipodi.sourceforge.net/DTD/sodipodi-0.dtd"
   xmlns:inkscape="http://www.inkscape.org/namespaces/inkscape"
   viewBox="0 0 35.108002 35.104"
   id="svg2"
   version="1.1"
   inkscape:version="0.91 r13725"
   sodipodi:docname="1f5e1.svg"
   width="35.108002"
   height="35.104">
  <metadata
     id="metadata20">
    <rdf:RDF>
      <cc:Work
         rdf:about="">
        <dc:format>image/svg+xml</dc:format>
        <dc:type
           rdf:resource="http://purl.org/dc/dcmitype/StillImage" />
      </cc:Work>
    </rdf:RDF>
  </metadata>
  <defs
     id="defs18" />
  <sodipodi:namedview
     pagecolor="#ffffff"
     bordercolor="#666666"
     borderopacity="1"
     objecttolerance="10"
     gridtolerance="10"
     guidetolerance="10"
     inkscape:pageopacity="0"
     inkscape:pageshadow="2"
     inkscape:window-width="640"
     inkscape:window-height="480"
     id="namedview16"
     showgrid="false"
     inkscape:zoom="6.5555556"
     inkscape:cx="17.858"
     inkscape:cy="17.104"
     inkscape:window-x="0"
     inkscape:window-y="0"
     inkscape:window-maximized="0"
     inkscape:current-layer="svg2" />
  <path
     d="M 12.48,16.971 C 13.188,16.264 19.552,4.243 35.108,0 33.694,1.415 15.568,21.691 15.568,21.691 l -3.088,-4.72 z"
     id="path4"
     inkscape:connector-curvature="0"
     style="fill:#ccd6dd" />
  <path
     d="M 18.137,22.629 C 18.844,21.922 30.866,15.556 35.108,0 l -21.213,21.214 4.242,1.415 z"
     id="path6"
     inkscape:connector-curvature="0"
     style="fill:#9aaab4" />
  <path
     d="m 15.309,24.043 c 0.781,-0.781 0.655,-2.174 -0.283,-3.112 L 14.178,20.082 C 13.24,19.144 11.847,19.019 11.066,19.8 l -7.7780002,7.778 c -0.781,0.781 -0.654,2.174 0.283,3.111 l 0.848,0.848 c 0.938,0.938 2.331,1.064 3.111,0.283 L 15.309,24.043 Z"
     id="path8"
     inkscape:connector-curvature="0"
     style="fill:#31373d" />
  <path
     d="M 6.9659998,23.9 14.037,25.314 15.308,24.043 c 0.133,-0.133 0.23,-0.288 0.311,-0.452 L 8.6649998,22.2 l -1.699,1.7 z M 14.178,20.082 C 13.24,19.144 11.847,19.019 11.066,19.8 l -0.826,0.826 5.328,1.065 c -0.131,-0.27 -0.312,-0.529 -0.543,-0.76 l -0.847,-0.849 z m -8.9120002,5.518 -1.699,1.699 7.0710002,1.414 1.699,-1.699 z m -2.422,3.793 c 0.107,0.46 0.346,0.916 0.727,1.297 l 0.848,0.848 c 0.103,0.103 0.213,0.192 0.325,0.275 l 2.11,0.422 c 0.252,-0.084 0.483,-0.22 0.676,-0.414 l 1.242,-1.242 -5.928,-1.186 z"
     id="path10"
     inkscape:connector-curvature="0"
     style="fill:#67757f" />
  <circle
     cx="4"
     cy="31.104"
     r="4"
     id="circle12"
     style="fill:#31373d" />
  <path
     d="m 19.551,26.164 c -0.586,0.586 -1.536,0.586 -2.121,0 L 8.5909998,17.325 c -0.586,-0.586 -0.586,-1.536 0,-2.121 0.586,-0.586 1.5350002,-0.586 2.1210002,0 l 8.839,8.839 c 0.586,0.584 0.586,1.535 0,2.121 z"
     id="path14"
     inkscape:connector-curvature="0"
     style="fill:#31373d" />
</svg>
