<?xml version="1.0" encoding="UTF-8" standalone="no"?>
<svg
   xmlns:dc="http://purl.org/dc/elements/1.1/"
   xmlns:cc="http://creativecommons.org/ns#"
   xmlns:rdf="http://www.w3.org/1999/02/22-rdf-syntax-ns#"
   xmlns:svg="http://www.w3.org/2000/svg"
   xmlns="http://www.w3.org/2000/svg"
   xmlns:sodipodi="http://sodipodi.sourceforge.net/DTD/sodipodi-0.dtd"
   xmlns:inkscape="http://www.inkscape.org/namespaces/inkscape"
   viewBox="0 0 36 36"
   id="svg2"
   version="1.1"
   inkscape:version="0.91 r13725"
   sodipodi:docname="1f60d.svg"
   width="36"
   height="36">
  <metadata
     id="metadata14">
    <rdf:RDF>
      <cc:Work
         rdf:about="">
        <dc:format>image/svg+xml</dc:format>
        <dc:type
           rdf:resource="http://purl.org/dc/dcmitype/StillImage" />
      </cc:Work>
    </rdf:RDF>
  </metadata>
  <defs
     id="defs12" />
  <sodipodi:namedview
     pagecolor="#ffffff"
     bordercolor="#666666"
     borderopacity="1"
     objecttolerance="10"
     gridtolerance="10"
     guidetolerance="10"
     inkscape:pageopacity="0"
     inkscape:pageshadow="2"
     inkscape:window-width="640"
     inkscape:window-height="480"
     id="namedview10"
     showgrid="false"
     inkscape:zoom="6.5555556"
     inkscape:cx="18"
     inkscape:cy="18"
     inkscape:window-x="0"
     inkscape:window-y="0"
     inkscape:window-maximized="0"
     inkscape:current-layer="svg2" />
  <path
     d="M 36,18 C 36,27.941 27.941,36 18,36 8.059,36 0,27.941 0,18 0,8.059 8.059,0 18,0 27.941,0 36,8.059 36,18"
     id="path4"
     inkscape:connector-curvature="0"
     style="fill:#ffcc4d" />
  <path
     d="m 18,21.849 c -2.966,0 -4.935,-0.346 -7.369,-0.819 -0.557,-0.106 -1.638,0 -1.638,1.638 0,3.275 3.763,7.369 9.007,7.369 5.244,0 9.007,-4.094 9.007,-7.369 0,-1.638 -1.082,-1.745 -1.638,-1.638 -2.434,0.473 -4.402,0.819 -7.369,0.819"
     id="path6"
     inkscape:connector-curvature="0"
     style="fill:#664500" />
  <path
     d="M 16.65,3.281 C 15.791,0.85 13.126,-0.426 10.694,0.431 9.218,0.951 8.173,2.142 7.766,3.535 6.575,2.706 5.015,2.435 3.541,2.955 1.111,3.813 -0.167,6.48 0.692,8.911 0.814,9.255 0.976,9.574 1.164,9.869 3.115,13.451 8.752,15.969 12.165,16 14.802,13.833 17.611,8.335 16.883,4.323 16.845,3.975 16.77,3.625 16.65,3.281 Z m 2.7,0 c 0.859,-2.431 3.525,-3.707 5.956,-2.85 1.476,0.52 2.521,1.711 2.929,3.104 1.191,-0.829 2.751,-1.1 4.225,-0.58 2.43,0.858 3.707,3.525 2.85,5.956 C 35.187,9.255 35.026,9.574 34.837,9.869 32.886,13.451 27.249,15.969 23.835,16 21.198,13.833 18.39,8.335 19.118,4.323 19.155,3.975 19.23,3.625 19.35,3.281 Z"
     id="path8"
     inkscape:connector-curvature="0"
     style="fill:#dd2e44" />
</svg>
