<?xml version="1.0" encoding="UTF-8" standalone="no"?>
<svg
   xmlns:dc="http://purl.org/dc/elements/1.1/"
   xmlns:cc="http://creativecommons.org/ns#"
   xmlns:rdf="http://www.w3.org/1999/02/22-rdf-syntax-ns#"
   xmlns:svg="http://www.w3.org/2000/svg"
   xmlns="http://www.w3.org/2000/svg"
   xmlns:sodipodi="http://sodipodi.sourceforge.net/DTD/sodipodi-0.dtd"
   xmlns:inkscape="http://www.inkscape.org/namespaces/inkscape"
   viewBox="0 0 36 36"
   id="svg2"
   version="1.1"
   inkscape:version="0.91 r13725"
   sodipodi:docname="1f60e.svg"
   width="36"
   height="36">
  <metadata
     id="metadata14">
    <rdf:RDF>
      <cc:Work
         rdf:about="">
        <dc:format>image/svg+xml</dc:format>
        <dc:type
           rdf:resource="http://purl.org/dc/dcmitype/StillImage" />
      </cc:Work>
    </rdf:RDF>
  </metadata>
  <defs
     id="defs12" />
  <sodipodi:namedview
     pagecolor="#ffffff"
     bordercolor="#666666"
     borderopacity="1"
     objecttolerance="10"
     gridtolerance="10"
     guidetolerance="10"
     inkscape:pageopacity="0"
     inkscape:pageshadow="2"
     inkscape:window-width="640"
     inkscape:window-height="480"
     id="namedview10"
     showgrid="false"
     inkscape:zoom="6.5555556"
     inkscape:cx="18"
     inkscape:cy="18"
     inkscape:window-x="0"
     inkscape:window-y="0"
     inkscape:window-maximized="0"
     inkscape:current-layer="svg2" />
  <path
     d="M 36,18 C 36,27.941 27.941,36 18,36 8.059,36 0,27.941 0,18 0,8.059 8.059,0 18,0 27.941,0 36,8.059 36,18"
     id="path4"
     inkscape:connector-curvature="0"
     style="fill:#ffcc4d" />
  <path
     d="m 1.24,11.018 c 0.24,0.239 1.438,0.957 1.677,1.675 0.24,0.717 0.72,4.784 2.158,5.981 1.483,1.232 7.077,0.774 8.148,0.24 2.397,-1.195 2.691,-4.531 3.115,-6.221 0.239,-0.957 1.677,-0.957 1.677,-0.957 0,0 1.438,0 1.678,0.956 0.424,1.691 0.72,5.027 3.115,6.221 1.072,0.535 6.666,0.994 8.151,-0.238 1.436,-1.197 1.915,-5.264 2.155,-5.982 0.238,-0.717 1.438,-1.435 1.677,-1.674 0.241,-0.239 0.241,-1.196 0,-1.436 C 34.312,9.105 28.657,8.679 22.568,9.344 21.353,9.477 20.891,9.822 18.014,9.822 15.139,9.822 14.675,9.476 13.461,9.344 7.376,8.678 1.72,9.104 1.24,9.582 c -0.239,0.239 -0.239,1.197 0,1.436 z"
     id="path6"
     inkscape:connector-curvature="0"
     style="clip-rule:evenodd;fill:#292f33;fill-rule:evenodd" />
  <path
     d="M 27.335,23.629 C 27.157,23.468 26.891,23.458 26.7,23.6 26.661,23.629 22.778,26.5 18,26.5 13.234,26.5 9.338,23.629 9.3,23.6 9.109,23.458 8.843,23.47 8.665,23.629 8.488,23.789 8.448,24.053 8.571,24.257 8.7,24.472 11.788,29.5 18,29.5 c 6.212,0 9.301,-5.028 9.429,-5.243 0.123,-0.205 0.084,-0.468 -0.094,-0.628 z"
     id="path8"
     inkscape:connector-curvature="0"
     style="fill:#664500" />
</svg>
