<?xml version="1.0" encoding="UTF-8" standalone="no"?>
<svg
   xmlns:dc="http://purl.org/dc/elements/1.1/"
   xmlns:cc="http://creativecommons.org/ns#"
   xmlns:rdf="http://www.w3.org/1999/02/22-rdf-syntax-ns#"
   xmlns:svg="http://www.w3.org/2000/svg"
   xmlns="http://www.w3.org/2000/svg"
   xmlns:sodipodi="http://sodipodi.sourceforge.net/DTD/sodipodi-0.dtd"
   xmlns:inkscape="http://www.inkscape.org/namespaces/inkscape"
   viewBox="0 0 36 36"
   id="svg2"
   version="1.1"
   inkscape:version="0.91 r13725"
   sodipodi:docname="1f60a.svg"
   width="36"
   height="36">
  <metadata
     id="metadata16">
    <rdf:RDF>
      <cc:Work
         rdf:about="">
        <dc:format>image/svg+xml</dc:format>
        <dc:type
           rdf:resource="http://purl.org/dc/dcmitype/StillImage" />
      </cc:Work>
    </rdf:RDF>
  </metadata>
  <defs
     id="defs14" />
  <sodipodi:namedview
     pagecolor="#ffffff"
     bordercolor="#666666"
     borderopacity="1"
     objecttolerance="10"
     gridtolerance="10"
     guidetolerance="10"
     inkscape:pageopacity="0"
     inkscape:pageshadow="2"
     inkscape:window-width="640"
     inkscape:window-height="480"
     id="namedview12"
     showgrid="false"
     inkscape:zoom="6.5555556"
     inkscape:cx="18"
     inkscape:cy="18"
     inkscape:window-x="0"
     inkscape:window-y="0"
     inkscape:window-maximized="0"
     inkscape:current-layer="svg2" />
  <path
     d="M 36,18 C 36,27.941 27.941,36 18,36 8.059,36 0,27.941 0,18 0,8.059 8.059,0 18,0 27.941,0 36,8.059 36,18"
     id="path4"
     inkscape:connector-curvature="0"
     style="fill:#ffcc4d" />
  <circle
     cx="7"
     cy="18"
     r="5"
     id="circle6"
     style="fill:#ff7892" />
  <circle
     cx="29"
     cy="18"
     r="5"
     id="circle8"
     style="fill:#ff7892" />
  <path
     d="M 27.335,21.629 C 27.157,21.468 26.891,21.458 26.7,21.6 26.661,21.629 22.778,24.5 18,24.5 13.234,24.5 9.338,21.629 9.3,21.6 9.109,21.458 8.843,21.47 8.665,21.629 8.488,21.789 8.448,22.053 8.571,22.257 8.7,22.472 11.788,27.5 18,27.5 c 6.212,0 9.301,-5.028 9.429,-5.243 0.123,-0.205 0.084,-0.468 -0.094,-0.628 z M 7.999,15 C 7.849,15 7.696,14.966 7.553,14.894 7.059,14.647 6.859,14.046 7.106,13.552 7.158,13.448 8.424,11 12,11 c 3.577,0 4.842,2.449 4.894,2.553 0.247,0.494 0.047,1.095 -0.447,1.342 -0.492,0.245 -1.085,0.049 -1.336,-0.436 C 15.068,14.379 14.281,13 12,13 9.683,13 8.901,14.433 8.894,14.447 8.719,14.798 8.366,15 7.999,15 Z m 20.002,0 C 27.634,15 27.281,14.798 27.105,14.447 27.08,14.401 26.299,13 24,13 c -2.299,0 -3.08,1.401 -3.112,1.46 -0.26,0.481 -0.859,0.67 -1.345,0.42 C 19.058,14.628 18.861,14.041 19.105,13.552 19.157,13.449 20.423,11 24,11 c 3.577,0 4.843,2.449 4.895,2.553 0.247,0.494 0.047,1.095 -0.447,1.342 C 28.304,14.966 28.151,15 28.001,15 Z"
     id="path10"
     inkscape:connector-curvature="0"
     style="fill:#664500" />
</svg>
