<?xml version="1.0" encoding="UTF-8" standalone="no"?>
<svg
   xmlns:dc="http://purl.org/dc/elements/1.1/"
   xmlns:cc="http://creativecommons.org/ns#"
   xmlns:rdf="http://www.w3.org/1999/02/22-rdf-syntax-ns#"
   xmlns:svg="http://www.w3.org/2000/svg"
   xmlns="http://www.w3.org/2000/svg"
   xmlns:sodipodi="http://sodipodi.sourceforge.net/DTD/sodipodi-0.dtd"
   xmlns:inkscape="http://www.inkscape.org/namespaces/inkscape"
   viewBox="0 0 36 36"
   id="svg2"
   version="1.1"
   inkscape:version="0.91 r13725"
   sodipodi:docname="1f616.svg"
   width="36"
   height="36">
  <metadata
     id="metadata12">
    <rdf:RDF>
      <cc:Work
         rdf:about="">
        <dc:format>image/svg+xml</dc:format>
        <dc:type
           rdf:resource="http://purl.org/dc/dcmitype/StillImage" />
      </cc:Work>
    </rdf:RDF>
  </metadata>
  <defs
     id="defs10" />
  <sodipodi:namedview
     pagecolor="#ffffff"
     bordercolor="#666666"
     borderopacity="1"
     objecttolerance="10"
     gridtolerance="10"
     guidetolerance="10"
     inkscape:pageopacity="0"
     inkscape:pageshadow="2"
     inkscape:window-width="640"
     inkscape:window-height="480"
     id="namedview8"
     showgrid="false"
     inkscape:zoom="6.5555556"
     inkscape:cx="18"
     inkscape:cy="18"
     inkscape:window-x="0"
     inkscape:window-y="0"
     inkscape:window-maximized="0"
     inkscape:current-layer="svg2" />
  <path
     d="M 36,18 C 36,27.941 27.941,36 18,36 8.06,36 0,27.941 0,18 0,8.06 8.06,0 18,0 27.941,0 36,8.06 36,18"
     id="path4"
     inkscape:connector-curvature="0"
     style="fill:#ffcc4d" />
  <path
     d="m 6,13 c -0.552,0 -1,-0.448 -1,-1 0,-0.551 0.445,-0.998 0.996,-1 0.156,-0.002 3.569,-0.086 6.205,-3.6 0.331,-0.44 0.957,-0.532 1.4,-0.2 0.442,0.331 0.531,0.958 0.2,1.4 C 10.538,12.95 6.184,13 6,13 Z m 24,0 c -0.184,0 -4.537,-0.05 -7.8,-4.4 -0.332,-0.442 -0.242,-1.069 0.2,-1.4 0.441,-0.333 1.067,-0.242 1.399,0.2 2.641,3.521 6.061,3.599 6.206,3.6 0.55,0.006 0.994,0.456 0.991,1.005 C 30.994,12.556 30.55,13 30,13 Z m 0.6,7.2 C 30.486,20.114 28.669,18.774 25.954,17.856 25.98,17.741 26,17.623 26,17.5 26,17.131 25.861,16.797 25.641,16.536 27.443,16.016 28.975,16 29.002,16 29.553,15.998 30,15.55 29.999,14.998 29.998,14.447 29.552,14 29,14 c -0.221,0 -5.451,0.038 -8.707,3.293 -0.286,0.286 -0.372,0.716 -0.217,1.09 C 20.23,18.757 20.596,19 21,19 c 4.59,0 8.363,2.772 8.401,2.801 0.18,0.134 0.39,0.198 0.598,0.198 0.305,0 0.605,-0.139 0.802,-0.4 0.33,-0.443 0.24,-1.068 -0.201,-1.399 z M 15.707,17.293 C 12.452,14.038 7.221,14 7,14 6.448,14 6.001,14.447 6.001,14.998 6,15.55 6.447,15.998 6.999,16 7.025,16 8.557,16.016 10.36,16.536 10.139,16.797 10,17.131 10,17.5 c 0,0.123 0.019,0.241 0.047,0.356 C 7.331,18.774 5.514,20.114 5.4,20.2 4.958,20.531 4.869,21.158 5.2,21.599 5.396,21.862 5.697,22 6.001,22 6.209,22 6.42,21.935 6.6,21.8 6.637,21.772 10.387,19 15,19 c 0.404,0 0.769,-0.243 0.924,-0.617 0.155,-0.374 0.069,-0.804 -0.217,-1.09 z M 18,30 c -0.304,0 -0.591,-0.138 -0.781,-0.375 L 14.025,25.633 11.8,28.6 c -0.174,0.232 -0.44,0.377 -0.729,0.397 -0.29,0.021 -0.574,-0.085 -0.778,-0.29 l -1,-1 c -0.391,-0.391 -0.391,-1.023 0,-1.414 0.391,-0.391 1.023,-0.391 1.414,0 L 10.892,26.478 13.2,23.4 c 0.186,-0.248 0.475,-0.396 0.784,-0.4 0.295,-0.01 0.603,0.133 0.796,0.375 L 18,27.399 21.219,23.375 C 21.412,23.134 21.703,23 22.016,23 c 0.31,0.005 0.599,0.152 0.784,0.4 l 2.309,3.077 0.185,-0.185 c 0.391,-0.391 1.023,-0.391 1.414,0 0.391,0.391 0.391,1.023 0,1.414 l -1,1 c -0.205,0.205 -0.479,0.314 -0.778,0.29 -0.289,-0.021 -0.555,-0.165 -0.729,-0.397 l -2.226,-2.967 -3.193,3.992 C 18.591,29.862 18.304,30 18,30 Z"
     id="path6"
     inkscape:connector-curvature="0"
     style="fill:#664500" />
</svg>
