<?xml version="1.0" encoding="UTF-8" standalone="no"?>
<svg
   xmlns:dc="http://purl.org/dc/elements/1.1/"
   xmlns:cc="http://creativecommons.org/ns#"
   xmlns:rdf="http://www.w3.org/1999/02/22-rdf-syntax-ns#"
   xmlns:svg="http://www.w3.org/2000/svg"
   xmlns="http://www.w3.org/2000/svg"
   xmlns:sodipodi="http://sodipodi.sourceforge.net/DTD/sodipodi-0.dtd"
   xmlns:inkscape="http://www.inkscape.org/namespaces/inkscape"
   viewBox="0 0 36 36"
   id="svg2"
   version="1.1"
   inkscape:version="0.91 r13725"
   sodipodi:docname="1f612.svg"
   width="36"
   height="36">
  <metadata
     id="metadata12">
    <rdf:RDF>
      <cc:Work
         rdf:about="">
        <dc:format>image/svg+xml</dc:format>
        <dc:type
           rdf:resource="http://purl.org/dc/dcmitype/StillImage" />
      </cc:Work>
    </rdf:RDF>
  </metadata>
  <defs
     id="defs10" />
  <sodipodi:namedview
     pagecolor="#ffffff"
     bordercolor="#666666"
     borderopacity="1"
     objecttolerance="10"
     gridtolerance="10"
     guidetolerance="10"
     inkscape:pageopacity="0"
     inkscape:pageshadow="2"
     inkscape:window-width="640"
     inkscape:window-height="480"
     id="namedview8"
     showgrid="false"
     inkscape:zoom="6.5555556"
     inkscape:cx="18"
     inkscape:cy="18"
     inkscape:window-x="0"
     inkscape:window-y="0"
     inkscape:window-maximized="0"
     inkscape:current-layer="svg2" />
  <path
     d="M 36,18 C 36,27.941 27.941,36 18,36 8.06,36 0,27.941 0,18 0,8.06 8.06,0 18,0 27.941,0 36,8.06 36,18"
     id="path4"
     inkscape:connector-curvature="0"
     style="fill:#ffcc4d" />
  <path
     d="M 25.485,27.879 C 25.44,27.7 24.317,23.5 18,23.5 c -6.318,0 -7.44,4.2 -7.485,4.379 -0.055,0.217 0.043,0.442 0.237,0.554 0.195,0.111 0.439,0.078 0.6,-0.077 C 11.371,28.337 13.306,26.5 18,26.5 c 4.694,0 6.63,1.837 6.648,1.855 0.096,0.095 0.224,0.145 0.352,0.145 0.084,0 0.169,-0.021 0.246,-0.064 0.196,-0.112 0.294,-0.339 0.239,-0.557 z M 29.001,14 c -0.305,0 -0.604,-0.138 -0.801,-0.4 -2.432,-3.244 -6.514,-0.846 -6.686,-0.743 -0.475,0.285 -1.089,0.13 -1.372,-0.343 -0.284,-0.474 -0.131,-1.088 0.343,-1.372 1.998,-1.199 6.514,-2.477 9.314,1.257 0.332,0.442 0.242,1.069 -0.2,1.4 C 29.42,13.935 29.21,14 29.001,14 Z M 6.999,14 C 6.791,14 6.58,13.935 6.4,13.8 5.958,13.469 5.869,12.842 6.2,12.4 c 2.801,-3.734 7.317,-2.456 9.314,-1.257 0.474,0.284 0.627,0.898 0.343,1.372 -0.284,0.473 -0.896,0.628 -1.37,0.344 C 14.308,12.753 10.213,10.384 7.799,13.601 7.604,13.862 7.303,14 6.999,14 Z M 29,16 c 0,-0.552 -0.447,-1 -1,-1 l -7,0 c -0.553,0 -1,0.448 -1,1 0,0.552 0.447,1 1,1 l 5.092,0 c 0.207,0.581 0.756,1 1.408,1 0.828,0 1.5,-0.671 1.5,-1.5 0,-0.11 -0.014,-0.217 -0.036,-0.321 C 28.976,16.119 29,16.063 29,16 Z m -13,0 c 0,-0.552 -0.448,-1 -1,-1 l -7,0 c -0.552,0 -1,0.448 -1,1 0,0.552 0.448,1 1,1 l 5.092,0 c 0.207,0.581 0.756,1 1.408,1 0.828,0 1.5,-0.671 1.5,-1.5 0,-0.11 -0.014,-0.217 -0.036,-0.321 C 15.975,16.119 16,16.063 16,16 Z"
     id="path6"
     inkscape:connector-curvature="0"
     style="fill:#664500" />
</svg>
