<?xml version="1.0" encoding="UTF-8" standalone="no"?>
<svg
   xmlns:dc="http://purl.org/dc/elements/1.1/"
   xmlns:cc="http://creativecommons.org/ns#"
   xmlns:rdf="http://www.w3.org/1999/02/22-rdf-syntax-ns#"
   xmlns:svg="http://www.w3.org/2000/svg"
   xmlns="http://www.w3.org/2000/svg"
   xmlns:sodipodi="http://sodipodi.sourceforge.net/DTD/sodipodi-0.dtd"
   xmlns:inkscape="http://www.inkscape.org/namespaces/inkscape"
   viewBox="0 0 36 36"
   id="svg2"
   version="1.1"
   inkscape:version="0.91 r13725"
   sodipodi:docname="1f619.svg"
   width="36"
   height="36">
  <metadata
     id="metadata12">
    <rdf:RDF>
      <cc:Work
         rdf:about="">
        <dc:format>image/svg+xml</dc:format>
        <dc:type
           rdf:resource="http://purl.org/dc/dcmitype/StillImage" />
      </cc:Work>
    </rdf:RDF>
  </metadata>
  <defs
     id="defs10" />
  <sodipodi:namedview
     pagecolor="#ffffff"
     bordercolor="#666666"
     borderopacity="1"
     objecttolerance="10"
     gridtolerance="10"
     guidetolerance="10"
     inkscape:pageopacity="0"
     inkscape:pageshadow="2"
     inkscape:window-width="640"
     inkscape:window-height="480"
     id="namedview8"
     showgrid="false"
     inkscape:zoom="6.5555556"
     inkscape:cx="18"
     inkscape:cy="18"
     inkscape:window-x="0"
     inkscape:window-y="0"
     inkscape:window-maximized="0"
     inkscape:current-layer="svg2" />
  <path
     d="M 36,18 C 36,27.941 27.941,36 18,36 8.06,36 0,27.941 0,18 0,8.06 8.06,0 18,0 27.941,0 36,8.06 36,18"
     id="path4"
     inkscape:connector-curvature="0"
     style="fill:#ffcc4d" />
  <path
     d="m 20.871,28 c 1.335,-0.412 2.629,-1.156 2.629,-2.5 0,-2.619 -4.912,-2.968 -5.472,-2.999 -0.274,-0.027 -0.509,0.193 -0.527,0.468 -0.017,0.274 0.19,0.511 0.464,0.53 0.035,0.002 3.535,0.299 3.535,2.001 0,1.702 -3.5,1.999 -3.535,2.001 -0.013,10e-4 -0.023,0.008 -0.036,0.01 -0.053,0.006 -0.102,0.018 -0.149,0.041 l -0.015,0.009 c -0.048,0.027 -0.091,0.059 -0.127,0.1 -0.014,0.015 -0.023,0.031 -0.035,0.047 -0.023,0.032 -0.044,0.064 -0.06,0.103 -0.012,0.029 -0.018,0.061 -0.024,0.092 -0.004,0.023 -0.016,0.044 -0.018,0.067 0,0.011 0.004,0.021 0.004,0.031 0,0.01 -0.005,0.021 -0.004,0.031 10e-4,0.024 0.013,0.045 0.018,0.068 0.006,0.031 0.011,0.061 0.023,0.09 0.013,0.03 0.031,0.057 0.049,0.084 0.017,0.024 0.032,0.05 0.052,0.071 0.023,0.023 0.05,0.041 0.078,0.061 0.024,0.017 0.046,0.034 0.074,0.047 0.032,0.015 0.066,0.021 0.101,0.027 0.024,0.006 0.044,0.018 0.069,0.02 0.035,0.001 3.535,0.298 3.535,2 0,1.702 -3.5,1.999 -3.535,2.001 -0.274,0.02 -0.481,0.257 -0.464,0.53 0.017,0.265 0.237,0.469 0.499,0.469 l 0.028,-10e-4 C 18.588,33.468 23.5,33.119 23.5,30.5 23.5,29.156 22.206,28.412 20.871,28 Z M 16,19 C 15.581,19 15.191,18.735 15.051,18.316 14.848,17.717 14.034,16 13,16 c -1.062,0 -1.888,1.827 -2.051,2.316 -0.175,0.523 -0.738,0.808 -1.265,0.632 C 9.16,18.774 8.877,18.208 9.052,17.683 9.177,17.307 10.356,14 13,14 c 2.644,0 3.823,3.307 3.949,3.684 0.175,0.524 -0.108,1.091 -0.632,1.265 C 16.211,18.983 16.104,19 16,19 Z m 10,0 C 25.581,19 25.191,18.735 25.052,18.316 24.849,17.717 24.033,16 23,16 c -1.062,0 -1.889,1.827 -2.052,2.316 -0.175,0.523 -0.736,0.808 -1.265,0.632 C 19.16,18.774 18.876,18.208 19.051,17.683 19.177,17.307 20.355,14 23,14 c 2.645,0 3.823,3.307 3.948,3.684 0.175,0.524 -0.108,1.091 -0.632,1.265 C 26.211,18.983 26.104,19 26,19 Z"
     id="path6"
     inkscape:connector-curvature="0"
     style="fill:#664500" />
</svg>
