<?xml version="1.0" encoding="UTF-8" standalone="no"?>
<svg
   xmlns:dc="http://purl.org/dc/elements/1.1/"
   xmlns:cc="http://creativecommons.org/ns#"
   xmlns:rdf="http://www.w3.org/1999/02/22-rdf-syntax-ns#"
   xmlns:svg="http://www.w3.org/2000/svg"
   xmlns="http://www.w3.org/2000/svg"
   xmlns:sodipodi="http://sodipodi.sourceforge.net/DTD/sodipodi-0.dtd"
   xmlns:inkscape="http://www.inkscape.org/namespaces/inkscape"
   viewBox="0 0 36 36"
   id="svg2"
   version="1.1"
   inkscape:version="0.91 r13725"
   sodipodi:docname="1f61c.svg"
   width="36"
   height="36">
  <metadata
     id="metadata22">
    <rdf:RDF>
      <cc:Work
         rdf:about="">
        <dc:format>image/svg+xml</dc:format>
        <dc:type
           rdf:resource="http://purl.org/dc/dcmitype/StillImage" />
      </cc:Work>
    </rdf:RDF>
  </metadata>
  <defs
     id="defs20" />
  <sodipodi:namedview
     pagecolor="#ffffff"
     bordercolor="#666666"
     borderopacity="1"
     objecttolerance="10"
     gridtolerance="10"
     guidetolerance="10"
     inkscape:pageopacity="0"
     inkscape:pageshadow="2"
     inkscape:window-width="640"
     inkscape:window-height="480"
     id="namedview18"
     showgrid="false"
     inkscape:zoom="6.5555556"
     inkscape:cx="18"
     inkscape:cy="18"
     inkscape:window-x="0"
     inkscape:window-y="0"
     inkscape:window-maximized="0"
     inkscape:current-layer="svg2" />
  <path
     d="M 36,18 C 36,27.941 27.941,36 18,36 8.06,36 0,27.941 0,18 0,8.06 8.06,0 18,0 27.941,0 36,8.06 36,18"
     id="path4"
     inkscape:connector-curvature="0"
     style="fill:#ffcb4c" />
  <path
     d="M 15.457,15.815 C 15.397,15.68 13.958,12.518 11,12.518 c -2.957,0 -4.397,3.162 -4.457,3.297 -0.092,0.207 -0.032,0.449 0.144,0.591 0.177,0.143 0.427,0.147 0.61,0.014 0.013,-0.009 1.262,-0.902 3.703,-0.902 2.426,0 3.674,0.881 3.702,0.901 0.088,0.066 0.193,0.099 0.298,0.099 0.11,0 0.221,-0.037 0.311,-0.109 0.179,-0.142 0.238,-0.386 0.146,-0.594 z"
     id="path6"
     inkscape:connector-curvature="0"
     style="fill:#65471b" />
  <path
     d="M 31,13.5 C 31,17.09 28.09,20 24.5,20 20.91,20 18,17.09 18,13.5 18,9.91 20.91,7 24.5,7 28.09,7 31,9.91 31,13.5 Z"
     id="path8"
     inkscape:connector-curvature="0"
     style="fill:#f4f7f9" />
  <circle
     cx="24.5"
     cy="13.5"
     r="2.5"
     id="circle10"
     style="fill:#292f33" />
  <path
     d="m 7,21.262 c 0,3.964 4.596,9 11,9 6.404,0 11,-5 11,-9 0,0 -10.333,2.756 -22,0 z"
     id="path12"
     inkscape:connector-curvature="0"
     style="fill:#65471b" />
  <path
     d="M 18.545,23.604 17.454,23.599 C 14.238,23.525 12,23.003 12,23.003 l 0,6.961 c 0,3 2,6 6,6 4,0 6,-3 6,-6 l 0,-6.92 c -1.922,0.394 -3.787,0.542 -5.455,0.56 z"
     id="path14"
     inkscape:connector-curvature="0"
     style="fill:#e8596e" />
  <path
     d="m 18,31.843 c 0.301,0 0.545,-0.244 0.545,-0.545 l 0,-7.694 -1.091,-0.005 0,7.699 c 10e-4,0.301 0.245,0.545 0.546,0.545 z"
     id="path16"
     inkscape:connector-curvature="0"
     style="fill:#dd2f45" />
</svg>
