<?xml version="1.0" encoding="UTF-8" standalone="no"?>
<svg
   xmlns:dc="http://purl.org/dc/elements/1.1/"
   xmlns:cc="http://creativecommons.org/ns#"
   xmlns:rdf="http://www.w3.org/1999/02/22-rdf-syntax-ns#"
   xmlns:svg="http://www.w3.org/2000/svg"
   xmlns="http://www.w3.org/2000/svg"
   xmlns:sodipodi="http://sodipodi.sourceforge.net/DTD/sodipodi-0.dtd"
   xmlns:inkscape="http://www.inkscape.org/namespaces/inkscape"
   viewBox="0 0 36 36"
   id="svg2"
   version="1.1"
   inkscape:version="0.91 r13725"
   sodipodi:docname="1f61b.svg"
   width="36"
   height="36">
  <metadata
     id="metadata20">
    <rdf:RDF>
      <cc:Work
         rdf:about="">
        <dc:format>image/svg+xml</dc:format>
        <dc:type
           rdf:resource="http://purl.org/dc/dcmitype/StillImage" />
      </cc:Work>
    </rdf:RDF>
  </metadata>
  <defs
     id="defs18" />
  <sodipodi:namedview
     pagecolor="#ffffff"
     bordercolor="#666666"
     borderopacity="1"
     objecttolerance="10"
     gridtolerance="10"
     guidetolerance="10"
     inkscape:pageopacity="0"
     inkscape:pageshadow="2"
     inkscape:window-width="640"
     inkscape:window-height="480"
     id="namedview16"
     showgrid="false"
     inkscape:zoom="6.5555556"
     inkscape:cx="18"
     inkscape:cy="18"
     inkscape:window-x="0"
     inkscape:window-y="0"
     inkscape:window-maximized="0"
     inkscape:current-layer="svg2" />
  <path
     d="M 36,18 C 36,27.941 27.941,36 18,36 8.06,36 0,27.941 0,18 0,8.06 8.06,0 18,0 27.941,0 36,8.06 36,18"
     id="path4"
     inkscape:connector-curvature="0"
     style="fill:#ffcb4c" />
  <ellipse
     cx="11.5"
     cy="14.5"
     rx="2.5"
     ry="3.5"
     id="ellipse6"
     style="fill:#65471b" />
  <ellipse
     cx="24.5"
     cy="14.5"
     rx="2.5"
     ry="3.5"
     id="ellipse8"
     style="fill:#65471b" />
  <path
     d="m 7,21.262 c 0,3.964 4.596,9 11,9 6.404,0 11,-5 11,-9 0,0 -10.333,2.756 -22,0 z"
     id="path10"
     inkscape:connector-curvature="0"
     style="fill:#65471b" />
  <path
     d="M 18.545,23.604 17.454,23.599 C 14.238,23.525 12,23.003 12,23.003 l 0,6.961 c 0,3 2,6 6,6 4,0 6,-3 6,-6 l 0,-6.92 c -1.922,0.394 -3.787,0.542 -5.455,0.56 z"
     id="path12"
     inkscape:connector-curvature="0"
     style="fill:#e8596e" />
  <path
     d="m 18,31.843 c 0.301,0 0.545,-0.244 0.545,-0.545 l 0,-7.694 -1.091,-0.005 0,7.699 c 10e-4,0.301 0.245,0.545 0.546,0.545 z"
     id="path14"
     inkscape:connector-curvature="0"
     style="fill:#dd2f45" />
</svg>
