<?xml version="1.0" encoding="UTF-8" standalone="no"?>
<svg
   xmlns:dc="http://purl.org/dc/elements/1.1/"
   xmlns:cc="http://creativecommons.org/ns#"
   xmlns:rdf="http://www.w3.org/1999/02/22-rdf-syntax-ns#"
   xmlns:svg="http://www.w3.org/2000/svg"
   xmlns="http://www.w3.org/2000/svg"
   xmlns:sodipodi="http://sodipodi.sourceforge.net/DTD/sodipodi-0.dtd"
   xmlns:inkscape="http://www.inkscape.org/namespaces/inkscape"
   viewBox="0 0 36 36"
   id="svg2"
   version="1.1"
   inkscape:version="0.91 r13725"
   sodipodi:docname="1f618.svg"
   width="36"
   height="36">
  <metadata
     id="metadata18">
    <rdf:RDF>
      <cc:Work
         rdf:about="">
        <dc:format>image/svg+xml</dc:format>
        <dc:type
           rdf:resource="http://purl.org/dc/dcmitype/StillImage" />
      </cc:Work>
    </rdf:RDF>
  </metadata>
  <defs
     id="defs16" />
  <sodipodi:namedview
     pagecolor="#ffffff"
     bordercolor="#666666"
     borderopacity="1"
     objecttolerance="10"
     gridtolerance="10"
     guidetolerance="10"
     inkscape:pageopacity="0"
     inkscape:pageshadow="2"
     inkscape:window-width="640"
     inkscape:window-height="480"
     id="namedview14"
     showgrid="false"
     inkscape:zoom="6.5555556"
     inkscape:cx="18"
     inkscape:cy="18"
     inkscape:window-x="0"
     inkscape:window-y="0"
     inkscape:window-maximized="0"
     inkscape:current-layer="svg2" />
  <circle
     cx="18"
     cy="18"
     r="18"
     id="circle4"
     style="fill:#ffcc4d" />
  <ellipse
     cx="11.5"
     cy="15.5"
     rx="2.5"
     ry="3.5"
     id="ellipse6"
     style="fill:#664500" />
  <path
     d="M 28.457,17.797 C 28.397,17.662 26.958,14.5 24,14.5 c -2.957,0 -4.397,3.162 -4.457,3.297 -0.092,0.207 -0.032,0.449 0.145,0.591 0.175,0.142 0.426,0.147 0.61,0.014 C 20.31,18.393 21.56,17.5 24,17.5 c 2.426,0 3.674,0.881 3.702,0.901 0.088,0.066 0.194,0.099 0.298,0.099 0.11,0 0.221,-0.037 0.312,-0.109 0.177,-0.142 0.238,-0.386 0.145,-0.594 z M 5.999,11 C 5.791,11 5.58,10.935 5.4,10.8 4.958,10.469 4.869,9.842 5.2,9.4 8.462,5.05 12.816,5 13,5 13.552,5 14,5.448 14,6 14,6.551 13.555,6.998 13.004,7 12.849,7.002 9.436,7.086 6.8,10.6 6.604,10.862 6.303,11 5.999,11 Z m 23.002,3 c -0.305,0 -0.604,-0.138 -0.801,-0.4 -2.592,-3.456 -6.961,-2.628 -7.004,-2.62 -0.547,0.11 -1.068,-0.244 -1.177,-0.784 -0.108,-0.541 0.243,-1.068 0.784,-1.177 0.231,-0.047 5.657,-1.072 8.996,3.38 0.332,0.442 0.242,1.069 -0.2,1.4 C 29.42,13.935 29.21,14 29.001,14 Z m -8.922,13.042 c 1.335,-0.412 2.629,-1.156 2.629,-2.5 0,-2.619 -4.912,-2.968 -5.472,-2.999 -0.274,-0.026 -0.509,0.193 -0.527,0.468 -0.017,0.274 0.19,0.511 0.464,0.53 0.035,0.002 3.535,0.299 3.535,2.001 0,1.702 -3.5,1.999 -3.535,2.001 -0.014,0.001 -0.024,0.009 -0.037,0.011 -0.052,0.006 -0.101,0.018 -0.146,0.04 l -0.019,0.011 c -0.047,0.026 -0.088,0.057 -0.125,0.098 -0.014,0.015 -0.024,0.031 -0.036,0.048 -0.023,0.032 -0.044,0.063 -0.059,0.102 -0.012,0.029 -0.018,0.061 -0.024,0.092 -0.004,0.023 -0.016,0.044 -0.018,0.067 0,0.011 0.004,0.021 0.004,0.031 0,0.01 -0.005,0.021 -0.004,0.031 0.001,0.024 0.013,0.045 0.018,0.068 0.006,0.031 0.011,0.061 0.023,0.09 0.013,0.03 0.031,0.057 0.049,0.084 0.017,0.024 0.032,0.05 0.052,0.071 0.023,0.023 0.05,0.041 0.078,0.061 0.024,0.017 0.046,0.034 0.074,0.047 0.032,0.015 0.066,0.021 0.101,0.027 0.024,0.006 0.044,0.018 0.069,0.02 0.035,0.002 3.535,0.299 3.535,2.001 0,1.702 -3.5,1.999 -3.535,2.001 -0.274,0.02 -0.481,0.257 -0.464,0.53 0.017,0.265 0.237,0.469 0.499,0.469 l 0.028,-10e-4 c 0.56,-0.031 5.472,-0.38 5.472,-2.999 0,-1.345 -1.294,-2.089 -2.629,-2.501 z"
     id="path8"
     inkscape:connector-curvature="0"
     style="fill:#664500" />
  <path
     d="m 34.202,25.803 c -0.236,-0.79 -0.779,-1.486 -1.578,-1.875 -0.922,-0.449 -1.956,-0.391 -2.793,0.06 -0.16,-0.936 -0.75,-1.789 -1.67,-2.237 -1.517,-0.74 -3.348,-0.11 -4.087,1.406 -0.105,0.215 -0.18,0.437 -0.23,0.659 -0.775,2.556 0.64,6.341 2.192,7.948 1.23,0.13 2.953,-0.198 4.513,-0.873 1.5,-1.46 2.733,-3.183 3.653,-5.088 z"
     id="path10"
     inkscape:connector-curvature="0"
     style="fill:#ffac33" />
  <path
     d="m 35.654,27.222 c 0.739,-1.516 0.11,-3.347 -1.405,-4.086 -0.922,-0.449 -1.956,-0.391 -2.793,0.06 -0.16,-0.936 -0.75,-1.789 -1.67,-2.237 -1.517,-0.74 -3.348,-0.109 -4.087,1.406 -0.105,0.215 -0.18,0.437 -0.23,0.659 -0.774,2.556 0.64,6.341 2.192,7.948 2.223,0.234 6.077,-0.979 7.615,-3.161 0.145,-0.179 0.273,-0.374 0.378,-0.589 z"
     id="path12"
     inkscape:connector-curvature="0"
     style="fill:#dd2e44" />
</svg>
