<?xml version="1.0" encoding="UTF-8" standalone="no"?>
<svg
   xmlns:dc="http://purl.org/dc/elements/1.1/"
   xmlns:cc="http://creativecommons.org/ns#"
   xmlns:rdf="http://www.w3.org/1999/02/22-rdf-syntax-ns#"
   xmlns:svg="http://www.w3.org/2000/svg"
   xmlns="http://www.w3.org/2000/svg"
   xmlns:sodipodi="http://sodipodi.sourceforge.net/DTD/sodipodi-0.dtd"
   xmlns:inkscape="http://www.inkscape.org/namespaces/inkscape"
   viewBox="0 0 36 36"
   id="svg2"
   version="1.1"
   inkscape:version="0.91 r13725"
   sodipodi:docname="1f61f.svg"
   width="36"
   height="36">
  <metadata
     id="metadata16">
    <rdf:RDF>
      <cc:Work
         rdf:about="">
        <dc:format>image/svg+xml</dc:format>
        <dc:type
           rdf:resource="http://purl.org/dc/dcmitype/StillImage" />
      </cc:Work>
    </rdf:RDF>
  </metadata>
  <defs
     id="defs14" />
  <sodipodi:namedview
     pagecolor="#ffffff"
     bordercolor="#666666"
     borderopacity="1"
     objecttolerance="10"
     gridtolerance="10"
     guidetolerance="10"
     inkscape:pageopacity="0"
     inkscape:pageshadow="2"
     inkscape:window-width="640"
     inkscape:window-height="480"
     id="namedview12"
     showgrid="false"
     inkscape:zoom="6.5555556"
     inkscape:cx="18"
     inkscape:cy="18"
     inkscape:window-x="0"
     inkscape:window-y="0"
     inkscape:window-maximized="0"
     inkscape:current-layer="svg2" />
  <path
     d="M 36,18 C 36,27.941 27.941,36 18,36 8.059,36 0,27.941 0,18 0,8.059 8.059,0 18,0 27.941,0 36,8.059 36,18"
     id="path4"
     inkscape:connector-curvature="0"
     style="fill:#ffcc4d" />
  <path
     d="M 23.485,28.879 C 23.474,28.835 22.34,24.5 18,24.5 c -4.34,0 -5.474,4.335 -5.485,4.379 -0.053,0.213 0.044,0.431 0.232,0.544 0.188,0.112 0.433,0.086 0.596,-0.06 C 13.352,29.355 14.356,28.5 18,28.5 c 3.59,0 4.617,0.83 4.656,0.863 0.095,0.09 0.219,0.137 0.344,0.137 0.084,0 0.169,-0.021 0.246,-0.064 0.196,-0.112 0.294,-0.339 0.239,-0.557 z M 29,12 C 23.446,12 21.198,7.633 21.105,7.447 20.858,6.953 21.058,6.352 21.552,6.105 22.045,5.858 22.644,6.057 22.892,6.548 22.967,6.694 24.713,10 29,10 c 0.553,0 1,0.448 1,1 0,0.552 -0.447,1 -1,1 z M 7,12 c -0.552,0 -1,-0.448 -1,-1 0,-0.552 0.448,-1 1,-1 5.083,0 5.996,-3.12 6.033,-3.253 0.145,-0.528 0.692,-0.848 1.219,-0.709 0.53,0.139 0.851,0.673 0.718,1.205 C 14.921,7.437 13.704,12 7,12 Z"
     id="path6"
     inkscape:connector-curvature="0"
     style="fill:#664500" />
  <ellipse
     cx="12"
     cy="16.5"
     rx="2.5"
     ry="3.5"
     id="ellipse8"
     style="fill:#664500" />
  <ellipse
     cx="24"
     cy="16.5"
     rx="2.5"
     ry="3.5"
     id="ellipse10"
     style="fill:#664500" />
</svg>
