<?xml version="1.0" encoding="UTF-8" standalone="no"?>
<svg
   xmlns:dc="http://purl.org/dc/elements/1.1/"
   xmlns:cc="http://creativecommons.org/ns#"
   xmlns:rdf="http://www.w3.org/1999/02/22-rdf-syntax-ns#"
   xmlns:svg="http://www.w3.org/2000/svg"
   xmlns="http://www.w3.org/2000/svg"
   xmlns:sodipodi="http://sodipodi.sourceforge.net/DTD/sodipodi-0.dtd"
   xmlns:inkscape="http://www.inkscape.org/namespaces/inkscape"
   viewBox="0 0 36 36"
   id="svg2"
   version="1.1"
   inkscape:version="0.91 r13725"
   sodipodi:docname="1f625.svg"
   width="36"
   height="36">
  <metadata
     id="metadata20">
    <rdf:RDF>
      <cc:Work
         rdf:about="">
        <dc:format>image/svg+xml</dc:format>
        <dc:type
           rdf:resource="http://purl.org/dc/dcmitype/StillImage" />
      </cc:Work>
    </rdf:RDF>
  </metadata>
  <defs
     id="defs18" />
  <sodipodi:namedview
     pagecolor="#ffffff"
     bordercolor="#666666"
     borderopacity="1"
     objecttolerance="10"
     gridtolerance="10"
     guidetolerance="10"
     inkscape:pageopacity="0"
     inkscape:pageshadow="2"
     inkscape:window-width="640"
     inkscape:window-height="480"
     id="namedview16"
     showgrid="false"
     inkscape:zoom="6.5555556"
     inkscape:cx="18"
     inkscape:cy="18"
     inkscape:window-x="0"
     inkscape:window-y="0"
     inkscape:window-maximized="0"
     inkscape:current-layer="svg2" />
  <path
     d="M 36,18 C 36,27.941 27.941,36 18,36 8.06,36 0,27.941 0,18 0,8.06 8.06,0 18,0 27.941,0 36,8.06 36,18"
     id="path4"
     inkscape:connector-curvature="0"
     style="fill:#ffcc4d" />
  <ellipse
     cx="11.5"
     cy="16.5"
     rx="2.5"
     ry="3.5"
     id="ellipse6"
     style="fill:#664500" />
  <ellipse
     cx="24.5"
     cy="16.5"
     rx="2.5"
     ry="3.5"
     id="ellipse8"
     style="fill:#664500" />
  <path
     d="M 23.485,27.879 C 23.474,27.835 22.34,23.5 18,23.5 c -4.34,0 -5.474,4.335 -5.485,4.379 -0.053,0.213 0.044,0.431 0.232,0.544 0.188,0.112 0.433,0.086 0.596,-0.06 C 13.352,28.356 14.356,27.5 18,27.5 c 3.59,0 4.617,0.83 4.656,0.863 0.095,0.091 0.219,0.137 0.344,0.137 0.084,0 0.169,-0.021 0.246,-0.064 0.196,-0.111 0.294,-0.339 0.239,-0.557 z"
     id="path10"
     inkscape:connector-curvature="0"
     style="fill:#664500" />
  <path
     d="m 10,30 c 0,2.762 -2.238,5 -5,5 -2.762,0 -5,-2.238 -5,-5 0,-2.762 4,-10 5,-10 1,0 5,7.238 5,10 z"
     id="path12"
     inkscape:connector-curvature="0"
     style="fill:#5dadec" />
  <path
     d="M 30,13 C 24.446,13 22.198,8.633 22.105,8.447 21.858,7.953 22.058,7.352 22.552,7.105 23.044,6.858 23.644,7.057 23.892,7.548 23.967,7.694 25.713,11 30,11 c 0.553,0 1,0.448 1,1 0,0.553 -0.447,1 -1,1 z M 6,13 c -0.552,0 -1,-0.448 -1,-1 0,-0.552 0.448,-1 1,-1 5.083,0 5.996,-3.12 6.033,-3.253 0.145,-0.528 0.69,-0.848 1.219,-0.709 0.53,0.139 0.851,0.673 0.718,1.205 C 13.921,8.437 12.704,13 6,13 Z"
     id="path14"
     inkscape:connector-curvature="0"
     style="fill:#664500" />
</svg>
