<?xml version="1.0" encoding="UTF-8" standalone="no"?>
<svg
   xmlns:dc="http://purl.org/dc/elements/1.1/"
   xmlns:cc="http://creativecommons.org/ns#"
   xmlns:rdf="http://www.w3.org/1999/02/22-rdf-syntax-ns#"
   xmlns:svg="http://www.w3.org/2000/svg"
   xmlns="http://www.w3.org/2000/svg"
   xmlns:sodipodi="http://sodipodi.sourceforge.net/DTD/sodipodi-0.dtd"
   xmlns:inkscape="http://www.inkscape.org/namespaces/inkscape"
   viewBox="0 0 36 36"
   id="svg2"
   version="1.1"
   inkscape:version="0.91 r13725"
   sodipodi:docname="1f62f.svg"
   width="36"
   height="36">
  <metadata
     id="metadata18">
    <rdf:RDF>
      <cc:Work
         rdf:about="">
        <dc:format>image/svg+xml</dc:format>
        <dc:type
           rdf:resource="http://purl.org/dc/dcmitype/StillImage" />
      </cc:Work>
    </rdf:RDF>
  </metadata>
  <defs
     id="defs16" />
  <sodipodi:namedview
     pagecolor="#ffffff"
     bordercolor="#666666"
     borderopacity="1"
     objecttolerance="10"
     gridtolerance="10"
     guidetolerance="10"
     inkscape:pageopacity="0"
     inkscape:pageshadow="2"
     inkscape:window-width="448"
     inkscape:window-height="402"
     id="namedview14"
     showgrid="false"
     inkscape:zoom="6.5555556"
     inkscape:cx="18"
     inkscape:cy="18"
     inkscape:window-x="0"
     inkscape:window-y="0"
     inkscape:window-maximized="0"
     inkscape:current-layer="svg2" />
  <path
     d="M 36,18 C 36,27.941 27.941,36 18,36 8.059,36 0,27.941 0,18 0,8.059 8.059,0 18,0 27.941,0 36,8.059 36,18"
     id="path4"
     inkscape:connector-curvature="0"
     style="fill:#ffcc4d" />
  <ellipse
     cx="18"
     cy="25.5"
     rx="3"
     ry="3.5"
     id="ellipse6"
     style="fill:#664500" />
  <path
     d="M 31.001,11 C 30.696,11 30.397,10.862 30.2,10.6 27.56,7.079 24.139,7.002 23.994,7 23.444,6.994 23,6.544 23.003,5.995 23.006,5.444 23.45,5 24,5 c 0.184,0 4.537,0.05 7.8,4.4 0.332,0.442 0.242,1.069 -0.2,1.4 -0.18,0.135 -0.39,0.2 -0.599,0.2 z M 4.999,11 C 4.791,11 4.58,10.935 4.4,10.8 3.958,10.469 3.869,9.842 4.2,9.4 7.462,5.05 11.816,5 12,5 12.552,5 13,5.448 13,6 13,6.551 12.555,6.998 12.004,7 11.849,7.002 8.436,7.086 5.8,10.6 5.604,10.862 5.303,11 4.999,11 Z"
     id="path8"
     inkscape:connector-curvature="0"
     style="fill:#664500" />
  <ellipse
     cx="12"
     cy="14.5"
     rx="2.5"
     ry="3.5"
     id="ellipse10"
     style="fill:#664500" />
  <ellipse
     cx="24"
     cy="14.5"
     rx="2.5"
     ry="3.5"
     id="ellipse12"
     style="fill:#664500" />
</svg>
