<?xml version="1.0" encoding="UTF-8" standalone="no"?>
<svg
   xmlns:dc="http://purl.org/dc/elements/1.1/"
   xmlns:cc="http://creativecommons.org/ns#"
   xmlns:rdf="http://www.w3.org/1999/02/22-rdf-syntax-ns#"
   xmlns:svg="http://www.w3.org/2000/svg"
   xmlns="http://www.w3.org/2000/svg"
   xmlns:sodipodi="http://sodipodi.sourceforge.net/DTD/sodipodi-0.dtd"
   xmlns:inkscape="http://www.inkscape.org/namespaces/inkscape"
   viewBox="0 0 36 36"
   id="svg2"
   version="1.1"
   inkscape:version="0.91 r13725"
   sodipodi:docname="1f62c.svg"
   width="36"
   height="36">
  <metadata
     id="metadata18">
    <rdf:RDF>
      <cc:Work
         rdf:about="">
        <dc:format>image/svg+xml</dc:format>
        <dc:type
           rdf:resource="http://purl.org/dc/dcmitype/StillImage" />
      </cc:Work>
    </rdf:RDF>
  </metadata>
  <defs
     id="defs16" />
  <sodipodi:namedview
     pagecolor="#ffffff"
     bordercolor="#666666"
     borderopacity="1"
     objecttolerance="10"
     gridtolerance="10"
     guidetolerance="10"
     inkscape:pageopacity="0"
     inkscape:pageshadow="2"
     inkscape:window-width="640"
     inkscape:window-height="480"
     id="namedview14"
     showgrid="false"
     inkscape:zoom="6.5555556"
     inkscape:cx="18"
     inkscape:cy="18"
     inkscape:window-x="0"
     inkscape:window-y="0"
     inkscape:window-maximized="0"
     inkscape:current-layer="svg2" />
  <path
     d="M 36,18 C 36,27.941 27.941,36 18,36 8.06,36 0,27.941 0,18 0,8.06 8.06,0 18,0 27.941,0 36,8.06 36,18"
     id="path4"
     inkscape:connector-curvature="0"
     style="fill:#ffcc4d" />
  <ellipse
     cx="12"
     cy="13.5"
     rx="2.5"
     ry="3.5"
     id="ellipse6"
     style="fill:#664500" />
  <ellipse
     cx="24"
     cy="13.5"
     rx="2.5"
     ry="3.5"
     id="ellipse8"
     style="fill:#664500" />
  <path
     d="m 25,21 c 2.209,0 4,1.791 4,4 0,2.209 -1.791,4 -4,4 L 11,29 C 8.791,29 7,27.209 7,25 7,22.791 8.791,21 11,21 l 14,0 z"
     id="path10"
     inkscape:connector-curvature="0"
     style="fill:#ffffff" />
  <path
     d="m 25,20 -14,0 c -2.757,0 -5,2.243 -5,5 0,2.757 2.243,5 5,5 l 14,0 c 2.757,0 5,-2.243 5,-5 0,-2.757 -2.243,-5 -5,-5 z m 0,2 c 1.483,0 2.71,1.084 2.949,2.5 l -3.449,0 0,-2.5 0.5,0 z m -1.5,0 0,2.5 -3,0 0,-2.5 3,0 z m -4,0 0,2.5 -3,0 0,-2.5 3,0 z m -4,0 0,2.5 -3,0 0,-2.5 3,0 z m -4.5,0 0.5,0 0,2.5 -3.449,0 C 8.29,23.084 9.517,22 11,22 Z m 0,6 C 9.517,28 8.29,26.916 8.051,25.5 l 3.449,0 0,2.5 -0.5,0 z m 1.5,0 0,-2.5 3,0 0,2.5 -3,0 z m 4,0 0,-2.5 3,0 0,2.5 -3,0 z m 4,0 0,-2.5 3,0 0,2.5 -3,0 z m 4.5,0 -0.5,0 0,-2.5 3.449,0 C 27.71,26.916 26.483,28 25,28 Z"
     id="path12"
     inkscape:connector-curvature="0"
     style="fill:#664500" />
</svg>
