<?xml version="1.0" encoding="UTF-8" standalone="no"?>
<svg
   xmlns:dc="http://purl.org/dc/elements/1.1/"
   xmlns:cc="http://creativecommons.org/ns#"
   xmlns:rdf="http://www.w3.org/1999/02/22-rdf-syntax-ns#"
   xmlns:svg="http://www.w3.org/2000/svg"
   xmlns="http://www.w3.org/2000/svg"
   xmlns:sodipodi="http://sodipodi.sourceforge.net/DTD/sodipodi-0.dtd"
   xmlns:inkscape="http://www.inkscape.org/namespaces/inkscape"
   viewBox="0 0 36 36"
   id="svg2"
   version="1.1"
   inkscape:version="0.91 r13725"
   sodipodi:docname="1f622.svg"
   width="36"
   height="36">
  <metadata
     id="metadata18">
    <rdf:RDF>
      <cc:Work
         rdf:about="">
        <dc:format>image/svg+xml</dc:format>
        <dc:type
           rdf:resource="http://purl.org/dc/dcmitype/StillImage" />
      </cc:Work>
    </rdf:RDF>
  </metadata>
  <defs
     id="defs16" />
  <sodipodi:namedview
     pagecolor="#ffffff"
     bordercolor="#666666"
     borderopacity="1"
     objecttolerance="10"
     gridtolerance="10"
     guidetolerance="10"
     inkscape:pageopacity="0"
     inkscape:pageshadow="2"
     inkscape:window-width="640"
     inkscape:window-height="480"
     id="namedview14"
     showgrid="false"
     inkscape:zoom="6.5555556"
     inkscape:cx="18"
     inkscape:cy="18"
     inkscape:window-x="0"
     inkscape:window-y="0"
     inkscape:window-maximized="0"
     inkscape:current-layer="svg2" />
  <path
     d="M 36,18 C 36,27.941 27.941,36 18,36 8.06,36 0,27.941 0,18 0,8.06 8.06,0 18,0 27.941,0 36,8.06 36,18"
     id="path4"
     inkscape:connector-curvature="0"
     style="fill:#ffcc4d" />
  <ellipse
     cx="11.5"
     cy="17"
     rx="2.5"
     ry="3.5"
     id="ellipse6"
     style="fill:#664500" />
  <ellipse
     cx="24.5"
     cy="17"
     rx="2.5"
     ry="3.5"
     id="ellipse8"
     style="fill:#664500" />
  <path
     d="M 5.999,13.5 C 5.791,13.5 5.58,13.435 5.4,13.3 4.958,12.969 4.869,12.342 5.2,11.9 8.462,7.55 12.816,7.5 13,7.5 c 0.552,0 1,0.448 1,1 0,0.551 -0.445,0.998 -0.996,1 C 12.849,9.502 9.436,9.586 6.8,13.1 6.604,13.362 6.303,13.5 5.999,13.5 Z m 24.002,0 C 29.696,13.5 29.397,13.362 29.2,13.1 26.559,9.579 23.139,9.501 22.994,9.5 22.444,9.494 22,9.044 22.003,8.495 22.006,7.944 22.45,7.5 23,7.5 c 0.184,0 4.537,0.05 7.8,4.4 0.332,0.442 0.242,1.069 -0.2,1.4 -0.18,0.135 -0.39,0.2 -0.599,0.2 z M 23.485,28.379 C 23.474,28.335 22.34,24 18,24 c -4.34,0 -5.474,4.335 -5.485,4.379 -0.053,0.213 0.044,0.431 0.232,0.544 0.188,0.112 0.433,0.086 0.596,-0.06 C 13.352,28.855 14.356,28 18,28 c 3.59,0 4.617,0.83 4.656,0.863 C 22.751,28.953 22.875,29 23,29 c 0.084,0 0.169,-0.021 0.246,-0.064 0.196,-0.112 0.294,-0.339 0.239,-0.557 z"
     id="path10"
     inkscape:connector-curvature="0"
     style="fill:#664500" />
  <path
     d="m 16,31 c 0,2.762 -2.238,5 -5,5 -2.762,0 -5,-2.238 -5,-5 0,-2.762 4,-10 5,-10 1,0 5,7.238 5,10 z"
     id="path12"
     inkscape:connector-curvature="0"
     style="fill:#5dadec" />
</svg>
