<?xml version="1.0" encoding="UTF-8" standalone="no"?>
<svg
   xmlns:dc="http://purl.org/dc/elements/1.1/"
   xmlns:cc="http://creativecommons.org/ns#"
   xmlns:rdf="http://www.w3.org/1999/02/22-rdf-syntax-ns#"
   xmlns:svg="http://www.w3.org/2000/svg"
   xmlns="http://www.w3.org/2000/svg"
   xmlns:sodipodi="http://sodipodi.sourceforge.net/DTD/sodipodi-0.dtd"
   xmlns:inkscape="http://www.inkscape.org/namespaces/inkscape"
   viewBox="0 0 36 36"
   id="svg2"
   version="1.1"
   inkscape:version="0.91 r13725"
   sodipodi:docname="1f637.svg"
   width="36"
   height="36">
  <metadata
     id="metadata14">
    <rdf:RDF>
      <cc:Work
         rdf:about="">
        <dc:format>image/svg+xml</dc:format>
        <dc:type
           rdf:resource="http://purl.org/dc/dcmitype/StillImage" />
      </cc:Work>
    </rdf:RDF>
  </metadata>
  <defs
     id="defs12" />
  <sodipodi:namedview
     pagecolor="#ffffff"
     bordercolor="#666666"
     borderopacity="1"
     objecttolerance="10"
     gridtolerance="10"
     guidetolerance="10"
     inkscape:pageopacity="0"
     inkscape:pageshadow="2"
     inkscape:window-width="640"
     inkscape:window-height="480"
     id="namedview10"
     showgrid="false"
     inkscape:zoom="6.5555556"
     inkscape:cx="18"
     inkscape:cy="18"
     inkscape:window-x="0"
     inkscape:window-y="0"
     inkscape:window-maximized="0"
     inkscape:current-layer="svg2" />
  <path
     d="M 36,18 C 36,27.941 27.941,36 18,36 8.06,36 0,27.941 0,18 0,8.06 8.06,0 18,0 27.941,0 36,8.06 36,18"
     id="path4"
     inkscape:connector-curvature="0"
     style="fill:#ffcc4d" />
  <path
     d="M 7.001,15 C 6.678,15 6.361,14.844 6.168,14.555 5.862,14.095 5.986,13.474 6.445,13.168 6.578,13.08 9.746,11 14,11 c 0.552,0 1,0.448 1,1 0,0.552 -0.448,1 -1,1 -3.655,0 -6.418,1.814 -6.445,1.832 C 7.384,14.946 7.191,15 7.001,15 Z m 21.998,0 C 28.81,15 28.617,14.946 28.447,14.833 28.419,14.815 25.628,13 22,13 c -0.553,0 -1,-0.448 -1,-1 0,-0.552 0.447,-1 1,-1 4.254,0 7.422,2.08 7.555,2.168 0.46,0.306 0.584,0.927 0.277,1.387 C 29.64,14.844 29.322,15 28.999,15 Z"
     id="path6"
     inkscape:connector-curvature="0"
     style="fill:#664500" />
  <path
     d="M 27,22.091 36,18 c 0,-0.66 -0.041,-1.309 -0.109,-1.95 L 27,20.091 27,19 c 0,-1.104 -0.896,-2 -2,-2 L 11,17 C 9.896,17 9,17.896 9,19 L 9,20.091 0.11,16.05 C 0.041,16.691 0,17.34 0,18 l 9,4.091 0,4.546 -7.453,-1.355 c 0.341,0.77 0.741,1.507 1.183,2.215 L 9,28.637 9,30 c 0,1.104 0.896,2 2,2 l 14,0 c 1.104,0 2,-0.896 2,-2 l 0,-1.363 6.271,-1.141 c 0.441,-0.708 0.841,-1.445 1.182,-2.215 L 27,26.637 27,22.091 Z"
     id="path8"
     inkscape:connector-curvature="0"
     style="fill:#f5f8fa" />
</svg>
