<?xml version="1.0" encoding="UTF-8" standalone="no"?>
<svg
   xmlns:dc="http://purl.org/dc/elements/1.1/"
   xmlns:cc="http://creativecommons.org/ns#"
   xmlns:rdf="http://www.w3.org/1999/02/22-rdf-syntax-ns#"
   xmlns:svg="http://www.w3.org/2000/svg"
   xmlns="http://www.w3.org/2000/svg"
   xmlns:sodipodi="http://sodipodi.sourceforge.net/DTD/sodipodi-0.dtd"
   xmlns:inkscape="http://www.inkscape.org/namespaces/inkscape"
   viewBox="0 0 29 36"
   id="svg2"
   version="1.1"
   inkscape:version="0.91 r13725"
   sodipodi:docname="1f64b-1f3fc-200d-2642-fe0f.svg"
   width="29"
   height="36">
  <metadata
     id="metadata30">
    <rdf:RDF>
      <cc:Work
         rdf:about="">
        <dc:format>image/svg+xml</dc:format>
        <dc:type
           rdf:resource="http://purl.org/dc/dcmitype/StillImage" />
      </cc:Work>
    </rdf:RDF>
  </metadata>
  <defs
     id="defs28" />
  <sodipodi:namedview
     pagecolor="#ffffff"
     bordercolor="#666666"
     borderopacity="1"
     objecttolerance="10"
     gridtolerance="10"
     guidetolerance="10"
     inkscape:pageopacity="0"
     inkscape:pageshadow="2"
     inkscape:window-width="640"
     inkscape:window-height="480"
     id="namedview26"
     showgrid="false"
     inkscape:zoom="6.5555556"
     inkscape:cx="16"
     inkscape:cy="18"
     inkscape:window-x="0"
     inkscape:window-y="0"
     inkscape:window-maximized="0"
     inkscape:current-layer="svg2" />
  <path
     d="M 7,5.938 7,17 c 0,4.971 4.029,9 9,9 4.971,0 9,-4.029 9,-9 L 25,6.25 7,5.938 Z"
     id="path4"
     inkscape:connector-curvature="0"
     style="fill:#f3d2a2" />
  <path
     d="m 12,22 8,0 c 0,0 -1,2 -4,2 -3,0 -4,-2 -4,-2 z"
     id="path6"
     inkscape:connector-curvature="0"
     style="fill:#c1694f" />
  <path
     d="m 12,16 c -0.552,0 -1,-0.448 -1,-1 l 0,-1 c 0,-0.552 0.448,-1 1,-1 0.552,0 1,0.448 1,1 l 0,1 c 0,0.552 -0.448,1 -1,1 z m 8,0 c -0.552,0 -1,-0.448 -1,-1 l 0,-1 c 0,-0.552 0.448,-1 1,-1 0.552,0 1,0.448 1,1 l 0,1 c 0,0.552 -0.448,1 -1,1 z"
     id="path8"
     inkscape:connector-curvature="0"
     style="fill:#662113" />
  <path
     d="m 17,19.5 -2,0 c -0.276,0 -0.5,-0.224 -0.5,-0.5 0,-0.276 0.224,-0.5 0.5,-0.5 l 2,0 c 0.276,0 0.5,0.224 0.5,0.5 0,0.276 -0.224,0.5 -0.5,0.5 z"
     id="path10"
     inkscape:connector-curvature="0"
     style="fill:#c1694f" />
  <path
     d="m 8.847,13.715 c 0,1.58 -0.8,2.861 -1.788,2.861 -0.988,0 -1.788,-1.281 -1.788,-2.861 0,-1.58 0.801,-2.861 1.788,-2.861 0.987,0 1.788,1.281 1.788,2.861 z m 17.882,0 c 0,1.58 -0.8,2.861 -1.788,2.861 -0.988,0 -1.788,-1.281 -1.788,-2.861 0,-1.58 0.8,-2.861 1.788,-2.861 0.988,0 1.788,1.281 1.788,2.861 z"
     id="path12"
     inkscape:connector-curvature="0"
     style="fill:#f3d2a2" />
  <path
     d="m 16,0.823 c -7.019,0 -10.139,4.684 -10.139,8.588 0,3.903 1.343,4.986 1.56,3.903 0.78,-3.903 3.12,-5.101 3.12,-5.101 4.68,3.904 3.9,0.781 3.9,0.781 4.679,4.684 2.34,0 2.34,0 1.56,1.562 6.239,1.562 6.239,1.562 0,0 0.78,1.198 1.559,2.759 0.78,1.562 1.56,0 1.56,-3.903 0,-3.905 -3.9,-8.589 -10.139,-8.589 z"
     id="path14"
     inkscape:connector-curvature="0"
     style="fill:#ffe51e" />
  <path
     d="M 10.421,2.935 C 9.83,2.546 9.034,2.711 8.645,3.302 L 8,4.284 8,2 C 8,0.895 7.104,0 6,0 L 2,0 C 0.896,0 0,0.896 0,2 l 0,8 c 0,0 0,1 1,1 L 7,11 8,10 8,8.957 10.789,4.711 C 11.178,4.119 11.014,3.324 10.421,2.935 Z"
     id="path16"
     inkscape:connector-curvature="0"
     style="fill:#f3d2a2" />
  <path
     d="M 2,0 3,0 3,5 2,5 Z M 5,0 6,0 6,5 5,5 Z"
     id="path18"
     inkscape:connector-curvature="0"
     style="fill:#d2a077" />
  <path
     d="M 25,27 7,27 8,10 0,10 0,27 c 0,0 0,9 8,9 l 21,0 0,-5 c 0,-2.209 -1.791,-4 -4,-4 z"
     id="path20"
     inkscape:connector-curvature="0"
     style="fill:#4289c1" />
  <path
     d="m 24,32 1,0 0,4 -1,0 z"
     id="path22"
     inkscape:connector-curvature="0"
     style="fill:#2a6797" />
  <path
     d="m 13,24 0,4 c 0,1.657 1.343,3 3,3 1.657,0 3,-1.343 3,-3 l 0,-4 -6,0 z"
     id="path24"
     inkscape:connector-curvature="0"
     style="fill:#f3d2a2" />
</svg>
