<?xml version="1.0" encoding="UTF-8" standalone="no"?>
<svg
   xmlns:dc="http://purl.org/dc/elements/1.1/"
   xmlns:cc="http://creativecommons.org/ns#"
   xmlns:rdf="http://www.w3.org/1999/02/22-rdf-syntax-ns#"
   xmlns:svg="http://www.w3.org/2000/svg"
   xmlns="http://www.w3.org/2000/svg"
   xmlns:sodipodi="http://sodipodi.sourceforge.net/DTD/sodipodi-0.dtd"
   xmlns:inkscape="http://www.inkscape.org/namespaces/inkscape"
   viewBox="0 0 36 35.176998"
   id="svg2"
   version="1.1"
   inkscape:version="0.91 r13725"
   sodipodi:docname="1f646-1f3fd-200d-2642-fe0f.svg"
   width="36"
   height="35.176998">
  <metadata
     id="metadata20">
    <rdf:RDF>
      <cc:Work
         rdf:about="">
        <dc:format>image/svg+xml</dc:format>
        <dc:type
           rdf:resource="http://purl.org/dc/dcmitype/StillImage" />
      </cc:Work>
    </rdf:RDF>
  </metadata>
  <defs
     id="defs18" />
  <sodipodi:namedview
     pagecolor="#ffffff"
     bordercolor="#666666"
     borderopacity="1"
     objecttolerance="10"
     gridtolerance="10"
     guidetolerance="10"
     inkscape:pageopacity="0"
     inkscape:pageshadow="2"
     inkscape:window-width="640"
     inkscape:window-height="480"
     id="namedview16"
     showgrid="false"
     inkscape:zoom="6.5555556"
     inkscape:cx="18"
     inkscape:cy="18"
     inkscape:window-x="0"
     inkscape:window-y="0"
     inkscape:window-maximized="0"
     inkscape:current-layer="svg2" />
  <path
     d="m 21,24.654 c 3.493,-1.237 6,-4.56 6,-8.477 l 0,-0.433 c 0.96,-0.051 1.729,-1.304 1.729,-2.852 0,-1.548 -0.769,-2.801 -1.729,-2.852 l 0,-3.863 -18,0 0,3.863 c -0.96,0.051 -1.729,1.304 -1.729,2.852 0,1.548 0.77,2.801 1.729,2.852 l 0,0.433 c 0,3.917 2.507,7.24 6,8.477 l 0,1.523 6,0 0,-1.523 z"
     id="path4"
     inkscape:connector-curvature="0"
     style="fill:#d4ab88" />
  <path
     d="M 18,0 C 10.981,0 7.861,4.684 7.861,8.588 c 0,3.903 1.343,4.986 1.56,3.903 0.78,-3.903 3.12,-5.101 3.12,-5.101 4.68,3.904 3.9,0.781 3.9,0.781 4.679,4.684 2.34,0 2.34,0 1.56,1.562 6.239,1.562 6.239,1.562 0,0 0.78,1.198 1.559,2.759 0.78,1.562 1.56,0 1.56,-3.903 C 28.139,4.684 24.239,0 18,0 Z"
     id="path6"
     inkscape:connector-curvature="0"
     style="fill:#963b22" />
  <path
     d="M 32,5.802 29,4.177 27,5.802 c 0,0 3,7.25 3,11.125 0,3.875 -3.999,9.249 -4,9.25 l -16,0 C 9.999,26.176 6,20.802 6,16.927 6,13.052 9,5.802 9,5.802 L 7,4.177 4,5.802 c 0,0 -4,7.125 -4,11.125 0,4 5,18.25 5,18.25 l 26,0 c 0,0 5,-14.25 5,-18.25 0,-4 -4,-11.125 -4,-11.125 z"
     id="path8"
     inkscape:connector-curvature="0"
     style="fill:#4289c1" />
  <path
     d="m 18,30.177 c 1.657,0 3,-1.343 3,-3 l 0,-2 -6,0 0,2 c 0,1.657 1.343,3 3,3 z M 19.24,1.573 c 0.042,-0.521 0.593,-0.727 1.146,-0.708 0,0 5.456,0.311 7.521,1.271 C 30.522,3.351 32,5.802 32,5.802 l -5,0 c 0,0 -1.083,-1.521 -1.938,-2.125 C 24.181,3.054 20.84,2.462 20.343,2.365 19.846,2.268 19.198,2.094 19.24,1.573 Z m -2.48,0 C 16.718,1.052 16.167,0.846 15.614,0.865 c 0,0 -5.456,0.311 -7.521,1.271 C 5.478,3.351 4,5.802 4,5.802 l 5,0 c 0,0 1.083,-1.521 1.938,-2.125 0.881,-0.623 4.222,-1.215 4.719,-1.312 0.496,-0.098 1.145,-0.271 1.103,-0.792 z"
     id="path10"
     inkscape:connector-curvature="0"
     style="fill:#d4ab88" />
  <path
     d="m 14,21.177 8,0 c 0,0 -1,2 -4,2 -3,0 -4,-2 -4,-2 z m 5,-2.5 -2,0 c -0.276,0 -0.5,-0.224 -0.5,-0.5 0,-0.276 0.224,-0.5 0.5,-0.5 l 2,0 c 0.276,0 0.5,0.224 0.5,0.5 0,0.276 -0.224,0.5 -0.5,0.5 z"
     id="path12"
     inkscape:connector-curvature="0"
     style="fill:#c1694f" />
  <path
     d="m 14,15.177 c -0.552,0 -1,-0.448 -1,-1 l 0,-1 c 0,-0.552 0.448,-1 1,-1 0.552,0 1,0.448 1,1 l 0,1 c 0,0.552 -0.448,1 -1,1 z m 8,0 c -0.552,0 -1,-0.448 -1,-1 l 0,-1 c 0,-0.552 0.448,-1 1,-1 0.552,0 1,0.448 1,1 l 0,1 c 0,0.552 -0.448,1 -1,1 z"
     id="path14"
     inkscape:connector-curvature="0"
     style="fill:#662113" />
</svg>
