<?xml version="1.0" encoding="UTF-8" standalone="no"?>
<svg
   xmlns:dc="http://purl.org/dc/elements/1.1/"
   xmlns:cc="http://creativecommons.org/ns#"
   xmlns:rdf="http://www.w3.org/1999/02/22-rdf-syntax-ns#"
   xmlns:svg="http://www.w3.org/2000/svg"
   xmlns="http://www.w3.org/2000/svg"
   xmlns:sodipodi="http://sodipodi.sourceforge.net/DTD/sodipodi-0.dtd"
   xmlns:inkscape="http://www.inkscape.org/namespaces/inkscape"
   viewBox="0 0 26 36"
   id="svg2"
   version="1.1"
   inkscape:version="0.91 r13725"
   sodipodi:docname="1f64e-1f3fc.svg"
   width="26"
   height="36">
  <metadata
     id="metadata26">
    <rdf:RDF>
      <cc:Work
         rdf:about="">
        <dc:format>image/svg+xml</dc:format>
        <dc:type
           rdf:resource="http://purl.org/dc/dcmitype/StillImage" />
      </cc:Work>
    </rdf:RDF>
  </metadata>
  <defs
     id="defs24" />
  <sodipodi:namedview
     pagecolor="#ffffff"
     bordercolor="#666666"
     borderopacity="1"
     objecttolerance="10"
     gridtolerance="10"
     guidetolerance="10"
     inkscape:pageopacity="0"
     inkscape:pageshadow="2"
     inkscape:window-width="640"
     inkscape:window-height="480"
     id="namedview22"
     showgrid="false"
     inkscape:zoom="6.5555556"
     inkscape:cx="13"
     inkscape:cy="18"
     inkscape:window-x="0"
     inkscape:window-y="0"
     inkscape:window-maximized="0"
     inkscape:current-layer="svg2" />
  <path
     d="M 14,0 C 12.279,0 10.657,0.406 9.207,1.111 8.814,1.043 8.412,1 8,1 4.134,1 1,4.134 1,8 l 0,12 0.018,0 C 1.201,26.467 6.489,31.656 13,31.656 19.511,31.656 24.799,26.467 24.982,20 L 25,20 25,11 C 25,4.925 20.075,0 14,0 Z"
     id="path4"
     inkscape:connector-curvature="0"
     style="fill:#ffe51e" />
  <path
     d="M 22,27 4,27 c -2.209,0 -4,1.791 -4,4 l 0,5 26,0 0,-5 c 0,-2.209 -1.791,-4 -4,-4 z"
     id="path6"
     inkscape:connector-curvature="0"
     style="fill:#9268ca" />
  <path
     d="m 10,22 0,6 c 0,1.657 1.343,3 3,3 1.657,0 3,-1.343 3,-3 l 0,-6 -6,0 z"
     id="path8"
     inkscape:connector-curvature="0"
     style="fill:#f3d2a2" />
  <path
     d="m 4,5 0,12 c 0,4.971 4.029,9 9,9 4.971,0 9,-4.029 9,-9 L 22,5 4,5 Z"
     id="path10"
     inkscape:connector-curvature="0"
     style="fill:#f3d2a2" />
  <path
     d="M 22.999,5 21,4 3,4 3,11 c 6,0 6,-6 6,-6 0,0 2,7 14,7 L 22.999,5 Z"
     id="path12"
     inkscape:connector-curvature="0"
     style="fill:#ffe51e" />
  <path
     d="m 4,32 1,0 0,4 -1,0 z m 17,0 1,0 0,4 -1,0 z"
     id="path14"
     inkscape:connector-curvature="0"
     style="fill:#7450a8" />
  <circle
     cx="13"
     cy="23"
     r="1"
     id="circle16"
     style="fill:#df1f32" />
  <path
     d="M 9,16 C 8.448,16 8,15.552 8,15 l 0,-1 c 0,-0.552 0.448,-1 1,-1 0.552,0 1,0.448 1,1 l 0,1 c 0,0.552 -0.448,1 -1,1 z m 8,0 c -0.553,0 -1,-0.448 -1,-1 l 0,-1 c 0,-0.552 0.447,-1 1,-1 0.553,0 1,0.448 1,1 l 0,1 c 0,0.552 -0.447,1 -1,1 z"
     id="path18"
     inkscape:connector-curvature="0"
     style="fill:#662113" />
  <path
     d="m 14,19.5 -2,0 c -0.276,0 -0.5,-0.224 -0.5,-0.5 0,-0.276 0.224,-0.5 0.5,-0.5 l 2,0 c 0.276,0 0.5,0.224 0.5,0.5 0,0.276 -0.224,0.5 -0.5,0.5 z"
     id="path20"
     inkscape:connector-curvature="0"
     style="fill:#c1694f" />
</svg>
