<?xml version="1.0" encoding="UTF-8" standalone="no"?>
<svg
   xmlns:dc="http://purl.org/dc/elements/1.1/"
   xmlns:cc="http://creativecommons.org/ns#"
   xmlns:rdf="http://www.w3.org/1999/02/22-rdf-syntax-ns#"
   xmlns:svg="http://www.w3.org/2000/svg"
   xmlns="http://www.w3.org/2000/svg"
   xmlns:sodipodi="http://sodipodi.sourceforge.net/DTD/sodipodi-0.dtd"
   xmlns:inkscape="http://www.inkscape.org/namespaces/inkscape"
   viewBox="0 0 35.699074 35.176998"
   id="svg2"
   version="1.1"
   inkscape:version="0.91 r13725"
   sodipodi:docname="1f645-1f3fb-200d-2642-fe0f.svg"
   width="35.699074"
   height="35.176998">
  <metadata
     id="metadata34">
    <rdf:RDF>
      <cc:Work
         rdf:about="">
        <dc:format>image/svg+xml</dc:format>
        <dc:type
           rdf:resource="http://purl.org/dc/dcmitype/StillImage" />
      </cc:Work>
    </rdf:RDF>
  </metadata>
  <defs
     id="defs32" />
  <sodipodi:namedview
     pagecolor="#ffffff"
     bordercolor="#666666"
     borderopacity="1"
     objecttolerance="10"
     gridtolerance="10"
     guidetolerance="10"
     inkscape:pageopacity="0"
     inkscape:pageshadow="2"
     inkscape:window-width="640"
     inkscape:window-height="480"
     id="namedview30"
     showgrid="false"
     inkscape:zoom="6.5555556"
     inkscape:cx="17.876038"
     inkscape:cy="18"
     inkscape:window-x="0"
     inkscape:window-y="0"
     inkscape:window-maximized="0"
     inkscape:current-layer="svg2" />
  <path
     d="m 28.628038,12.892 c 0,-1.548 -0.769,-2.801 -1.729,-2.852 l 0,-4.613 -18.0000002,-0.312 0,4.926 c -0.96,0.051 -1.729,1.304 -1.729,2.852 0,1.548 0.77,2.801 1.729,2.852 l 0,0.432 c 0,4.971 4.0290002,9 9.0000002,9 4.971,0 9,-4.029 9,-9 l 0,-0.433 c 0.96,-0.051 1.729,-1.304 1.729,-2.852 z"
     id="path4"
     inkscape:connector-curvature="0"
     style="fill:#f7dece" />
  <path
     d="m 17.899038,0 c -7.019,0 -10.1390002,4.684 -10.1390002,8.588 0,3.903 1.343,4.986 1.56,3.903 C 10.100038,8.588 12.440038,7.39 12.440038,7.39 c 4.68,3.904 3.9,0.781 3.9,0.781 4.679,4.684 2.34,0 2.34,0 1.56,1.562 6.239,1.562 6.239,1.562 0,0 0.78,1.198 1.559,2.759 0.78,1.562 1.56,0 1.56,-3.903 0,-3.905 -3.9,-8.589 -10.139,-8.589 z"
     id="path6"
     inkscape:connector-curvature="0"
     style="fill:#292f33" />
  <path
     d="m 13.899038,21.177 8,0 c 0,0 -1,2 -4,2 -3,0 -4,-2 -4,-2 z"
     id="path8"
     inkscape:connector-curvature="0"
     style="fill:#c1694f" />
  <path
     d="m 5.8760378,27.177 24.0000002,0 0,8 -24.0000002,0 z"
     id="path10"
     inkscape:connector-curvature="0"
     style="fill:#2a6797" />
  <path
     d="m 18.899038,18.677 -2,0 c -0.276,0 -0.5,-0.224 -0.5,-0.5 0,-0.276 0.224,-0.5 0.5,-0.5 l 2,0 c 0.276,0 0.5,0.224 0.5,0.5 0,0.276 -0.224,0.5 -0.5,0.5 z"
     id="path12"
     inkscape:connector-curvature="0"
     style="fill:#c1694f" />
  <path
     d="m 13.899038,15.177 c -0.552,0 -1,-0.448 -1,-1 l 0,-1 c 0,-0.552 0.448,-1 1,-1 0.552,0 1,0.448 1,1 l 0,1 c 0,0.552 -0.448,1 -1,1 z m 8,0 c -0.552,0 -1,-0.448 -1,-1 l 0,-1 c 0,-0.552 0.448,-1 1,-1 0.552,0 1,0.448 1,1 l 0,1 c 0,0.552 -0.448,1 -1,1 z"
     id="path14"
     inkscape:connector-curvature="0"
     style="fill:#662113" />
  <path
     d="m 3.0710378,17.202 c 0.263,-0.484 0.776,-0.74 1.268,-0.694 0.034,-0.064 7.0840002,2.942 7.0840002,2.942 l -1.268,1.547 C 9.4550378,21.851 8.2480378,22.02 7.4590378,21.373 l -1.677,-1.375 -2.26,-1.137 c -0.586,-0.297 -0.788,-1.039 -0.451,-1.659 z"
     id="path16"
     inkscape:connector-curvature="0"
     style="fill:#eec2ad" />
  <path
     d="m 0.24103779,14.162 c -0.35,0.427 -0.315,1.035 0.08,1.359 l 4.91700001,2.738 3.569,2.926 c 0.395,0.323 0.998,0.239 1.3480002,-0.188 l 1.268,-1.547 -1.4280002,-1.17 -3.223,-1.893 -5.183,-2.413 c -0.001,0 -0.99800001,-0.239 -1.34800001,0.188 z"
     id="path18"
     inkscape:connector-curvature="0"
     style="fill:#f7dece" />
  <path
     d="m 9.3960378,17.615 c 0,0 19.5970002,8.657 20.1080002,8.884 1.19,0.529 3.154,1.7 3.154,3.678 l -0.351,4.75 c 0,0.138 -0.112,0.25 -0.25,0.25 l -3.323,0 c -0.05,0 -0.098,-0.015 -0.139,-0.043 L 9.1550378,22.075 c -0.069,-0.046 -0.111,-0.124 -0.111,-0.207 l 0,-4.025 c 10e-4,-0.181 0.186,-0.302 0.352,-0.228 z"
     id="path20"
     inkscape:connector-curvature="0"
     style="fill:#4289c1" />
  <path
     d="m 18.102038,21.443 -0.779,-0.324 -6.462,2.109 1.482,1.031 z m 5.203,2.316 1.007,0.445 -5.175,4.594 -3.821,-0.025 z"
     id="path22"
     inkscape:connector-curvature="0"
     style="fill:#2a6797" />
  <path
     d="m 32.628038,17.202 c -0.263,-0.484 -0.776,-0.74 -1.268,-0.694 -0.034,-0.064 -7.084,2.942 -7.084,2.942 l 1.268,1.547 c 0.7,0.854 1.907,1.023 2.696,0.376 l 1.677,-1.375 2.26,-1.137 c 0.586,-0.297 0.788,-1.039 0.451,-1.659 z"
     id="path24"
     inkscape:connector-curvature="0"
     style="fill:#eec2ad" />
  <path
     d="m 35.458038,14.162 c 0.35,0.427 0.315,1.035 -0.08,1.359 l -4.917,2.738 -3.569,2.926 c -0.395,0.323 -0.998,0.239 -1.348,-0.188 l -1.268,-1.547 1.428,-1.17 3.223,-1.892 5.183,-2.413 c 0,-10e-4 0.998,-0.24 1.348,0.187 z"
     id="path26"
     inkscape:connector-curvature="0"
     style="fill:#f7dece" />
  <path
     d="m 26.303038,17.615 c 0,0 -19.5970002,8.657 -20.1080002,8.884 -1.19,0.529 -3.154,1.7 -3.154,3.678 l 0.351,4.75 c 0,0.138 0.112,0.25 0.25,0.25 l 3.323,0 c 0.05,0 0.098,-0.015 0.139,-0.043 L 26.543038,22.075 c 0.069,-0.046 0.111,-0.124 0.111,-0.207 l 0,-4.025 c 0,-0.181 -0.186,-0.302 -0.351,-0.228 z"
     id="path28"
     inkscape:connector-curvature="0"
     style="fill:#4289c1" />
</svg>
