<?xml version="1.0" encoding="UTF-8" standalone="no"?>
<svg
   xmlns:dc="http://purl.org/dc/elements/1.1/"
   xmlns:cc="http://creativecommons.org/ns#"
   xmlns:rdf="http://www.w3.org/1999/02/22-rdf-syntax-ns#"
   xmlns:svg="http://www.w3.org/2000/svg"
   xmlns="http://www.w3.org/2000/svg"
   xmlns:sodipodi="http://sodipodi.sourceforge.net/DTD/sodipodi-0.dtd"
   xmlns:inkscape="http://www.inkscape.org/namespaces/inkscape"
   viewBox="0 0 35.699074 36"
   id="svg2"
   version="1.1"
   inkscape:version="0.91 r13725"
   sodipodi:docname="1f645-1f3fe.svg"
   width="35.699074"
   height="36">
  <metadata
     id="metadata34">
    <rdf:RDF>
      <cc:Work
         rdf:about="">
        <dc:format>image/svg+xml</dc:format>
        <dc:type
           rdf:resource="http://purl.org/dc/dcmitype/StillImage" />
      </cc:Work>
    </rdf:RDF>
  </metadata>
  <defs
     id="defs32" />
  <sodipodi:namedview
     pagecolor="#ffffff"
     bordercolor="#666666"
     borderopacity="1"
     objecttolerance="10"
     gridtolerance="10"
     guidetolerance="10"
     inkscape:pageopacity="0"
     inkscape:pageshadow="2"
     inkscape:window-width="640"
     inkscape:window-height="480"
     id="namedview30"
     showgrid="false"
     inkscape:zoom="6.5555556"
     inkscape:cx="17.876038"
     inkscape:cy="18"
     inkscape:window-x="0"
     inkscape:window-y="0"
     inkscape:window-maximized="0"
     inkscape:current-layer="svg2" />
  <path
     d="m 18.876038,0 c -1.721,0 -3.343,0.406 -4.793,1.111 C 13.690038,1.043 13.288038,1 12.876038,1 9.0100378,1 5.8760378,4.134 5.8760378,8 l 0,12 0.018,0 c 0.183,6.467 5.4710002,11.656 11.9820002,11.656 6.511,0 11.799,-5.189 11.982,-11.656 l 0.018,0 0,-9 c 0,-6.075 -4.925,-11 -11,-11 z"
     id="path4"
     inkscape:connector-curvature="0"
     style="fill:#60352a" />
  <path
     d="m 13.876038,5 c 0,0 -0.003,5.308 -5.0000002,5.936 l 0,6.064 c 0,4.971 4.0290002,9 9.0000002,9 4.971,0 9,-4.029 9,-9 l 0,-5.019 c -11.111,-0.376 -13,-6.981 -13,-6.981 z"
     id="path6"
     inkscape:connector-curvature="0"
     style="fill:#af7e57" />
  <circle
     cx="17.876038"
     cy="22"
     r="1"
     id="circle8"
     style="fill:#df1f32" />
  <path
     d="m 5.8760378,28 24.0000002,0 0,8 -24.0000002,0 z"
     id="path10"
     inkscape:connector-curvature="0"
     style="fill:#7450a8" />
  <path
     d="m 18.876038,19.5 -2,0 c -0.276,0 -0.5,-0.224 -0.5,-0.5 0,-0.276 0.224,-0.5 0.5,-0.5 l 2,0 c 0.276,0 0.5,0.224 0.5,0.5 0,0.276 -0.224,0.5 -0.5,0.5 z"
     id="path12"
     inkscape:connector-curvature="0"
     style="fill:#915a34" />
  <path
     d="m 13.876038,16 c -0.552,0 -1,-0.448 -1,-1 l 0,-1 c 0,-0.552 0.448,-1 1,-1 0.552,0 1,0.448 1,1 l 0,1 c 0,0.552 -0.448,1 -1,1 z m 8,0 c -0.553,0 -1,-0.448 -1,-1 l 0,-1 c 0,-0.552 0.447,-1 1,-1 0.553,0 1,0.448 1,1 l 0,1 c 0,0.552 -0.447,1 -1,1 z"
     id="path14"
     inkscape:connector-curvature="0"
     style="fill:#60352a" />
  <path
     d="m 3.0710378,18.025 c 0.263,-0.484 0.776,-0.74 1.268,-0.694 0.034,-0.064 7.0840002,2.942 7.0840002,2.942 l -1.268,1.547 c -0.7000002,0.854 -1.9070002,1.023 -2.6960002,0.376 l -1.677,-1.375 -2.26,-1.137 c -0.586,-0.297 -0.788,-1.039 -0.451,-1.659 z"
     id="path16"
     inkscape:connector-curvature="0"
     style="fill:#9b6a49" />
  <path
     d="m 0.24103779,14.985 c -0.35,0.427 -0.315,1.035 0.08,1.359 l 4.91700001,2.738 3.569,2.926 c 0.395,0.323 0.998,0.239 1.3480002,-0.188 l 1.268,-1.547 -1.4280002,-1.17 -3.223,-1.893 -5.183,-2.413 c -0.001,0 -0.99800001,-0.239 -1.34800001,0.188 z"
     id="path18"
     inkscape:connector-curvature="0"
     style="fill:#af7e57" />
  <path
     d="m 9.3960378,18.438 c 0,0 19.5970002,8.657 20.1080002,8.884 1.19,0.529 3.154,1.7 3.154,3.678 l -0.351,4.75 c 0,0.138 -0.112,0.25 -0.25,0.25 l -3.323,0 c -0.05,0 -0.098,-0.015 -0.139,-0.043 L 9.1550378,22.898 c -0.069,-0.046 -0.111,-0.124 -0.111,-0.207 l 0,-4.025 c 10e-4,-0.181 0.186,-0.302 0.352,-0.228 z"
     id="path20"
     inkscape:connector-curvature="0"
     style="fill:#9268ca" />
  <path
     d="m 18.102038,22.266 -0.779,-0.324 -6.462,2.109 1.482,1.031 z m 5.203,2.316 1.007,0.445 -5.175,4.594 -3.821,-0.025 z"
     id="path22"
     inkscape:connector-curvature="0"
     style="fill:#7450a8" />
  <path
     d="m 32.628038,18.025 c -0.263,-0.484 -0.776,-0.74 -1.268,-0.694 -0.034,-0.064 -7.084,2.942 -7.084,2.942 l 1.268,1.547 c 0.7,0.854 1.907,1.023 2.696,0.376 l 1.677,-1.375 2.26,-1.137 c 0.586,-0.297 0.788,-1.039 0.451,-1.659 z"
     id="path24"
     inkscape:connector-curvature="0"
     style="fill:#9b6a49" />
  <path
     d="m 35.458038,14.985 c 0.35,0.427 0.315,1.035 -0.08,1.359 l -4.917,2.738 -3.569,2.926 c -0.395,0.323 -0.998,0.239 -1.348,-0.188 l -1.268,-1.547 1.428,-1.17 3.223,-1.892 5.183,-2.413 c 0,-10e-4 0.998,-0.24 1.348,0.187 z"
     id="path26"
     inkscape:connector-curvature="0"
     style="fill:#af7e57" />
  <path
     d="m 26.303038,18.438 c 0,0 -19.5970002,8.657 -20.1080002,8.884 -1.19,0.529 -3.154,1.7 -3.154,3.678 l 0.351,4.75 c 0,0.138 0.112,0.25 0.25,0.25 l 3.323,0 c 0.05,0 0.098,-0.015 0.139,-0.043 L 26.543038,22.898 c 0.069,-0.046 0.111,-0.124 0.111,-0.207 l 0,-4.025 c 0,-0.181 -0.186,-0.302 -0.351,-0.228 z"
     id="path28"
     inkscape:connector-curvature="0"
     style="fill:#9268ca" />
</svg>
