<?xml version="1.0" encoding="UTF-8" standalone="no"?>
<svg
   xmlns:dc="http://purl.org/dc/elements/1.1/"
   xmlns:cc="http://creativecommons.org/ns#"
   xmlns:rdf="http://www.w3.org/1999/02/22-rdf-syntax-ns#"
   xmlns:svg="http://www.w3.org/2000/svg"
   xmlns="http://www.w3.org/2000/svg"
   xmlns:sodipodi="http://sodipodi.sourceforge.net/DTD/sodipodi-0.dtd"
   xmlns:inkscape="http://www.inkscape.org/namespaces/inkscape"
   viewBox="0 0 35.923264 35.998295"
   id="svg2"
   version="1.1"
   inkscape:version="0.91 r13725"
   sodipodi:docname="1f640.svg"
   width="35.923264"
   height="35.998295">
  <metadata
     id="metadata24">
    <rdf:RDF>
      <cc:Work
         rdf:about="">
        <dc:format>image/svg+xml</dc:format>
        <dc:type
           rdf:resource="http://purl.org/dc/dcmitype/StillImage" />
      </cc:Work>
    </rdf:RDF>
  </metadata>
  <defs
     id="defs22" />
  <sodipodi:namedview
     pagecolor="#ffffff"
     bordercolor="#666666"
     borderopacity="1"
     objecttolerance="10"
     gridtolerance="10"
     guidetolerance="10"
     inkscape:pageopacity="0"
     inkscape:pageshadow="2"
     inkscape:window-width="640"
     inkscape:window-height="480"
     id="namedview20"
     showgrid="false"
     inkscape:zoom="6.5555556"
     inkscape:cx="17.959618"
     inkscape:cy="18"
     inkscape:window-x="0"
     inkscape:window-y="0"
     inkscape:window-maximized="0"
     inkscape:current-layer="svg2" />
  <path
     d="m 34.959618,0.29829413 c -0.674,-1.246 -7.404,1.68799997 -10,3.69999997 0,0 -4,-0.998 -7,-0.998 -3,0 -7,0.998 -7,0.998 C 8.3636183,1.9862941 1.6336183,-0.94770587 0.95961831,0.29829413 -1.0403817,3.9982941 1.9596183,12.998294 1.9596183,12.998294 c -0.898,1.796 -1.29099999,3.328 -1.62299999,5.987 0.353,-0.097 0.75999999,-0.157 1.26499999,-0.157 5.002,0 7.857,8.145 7.352,14.925 3.5469997,1.646 7.4639997,2.245 9.0059997,2.245 1.549,0 5.497,-0.605 9.058,-2.27 -0.497,-6.775 2.357,-14.9 7.353,-14.9 0.48,0 0.868,0.058 1.21,0.145 -0.331,-2.652 -0.724,-4.182 -1.621,-5.975 0,0 3,-8.9999999 1,-12.69999987 z"
     id="path4"
     inkscape:connector-curvature="0"
     style="fill:#ffcc4d" />
  <path
     d="m 17.959618,14.998294 c 3,0 3,0.5 3,1.5 0,1 -1.5,3 -3,3 -1.5,0 -3,-2 -3,-3 0,-1 -0.001,-1.5 3,-1.5 z"
     id="path6"
     inkscape:connector-curvature="0"
     style="fill:#e75a70" />
  <path
     d="m 1.9596183,2.9982941 c 0.447,-1.342 5.64,1 6.64,2 0,0 -4.64,3 -5.64,5.9999999 0,0 -1.99999999,-4.9999999 -1,-7.9999999 z m 31.9999997,0 c -0.447,-1.342 -5.64,1 -6.64,2 0,0 4.64,3 5.64,5.9999999 0,0 2,-4.9999999 1,-7.9999999 z"
     id="path8"
     inkscape:connector-curvature="0"
     style="fill:#f18f26" />
  <path
     d="m 4.8936183,5.6012941 c 0,-1.414 6.0659997,1.397 5.066,2.397 -1,1 -2,1.603 -3,2.6029999 -1,1 -2.066,-3.9999999 -2.066,-4.9999999 z m 26.1319997,0 c 0,-1.414 -6.066,1.397 -5.066,2.397 1,1 2,1.603 3,2.6029999 1,1 2.066,-3.9999999 2.066,-4.9999999 z"
     id="path10"
     inkscape:connector-curvature="0"
     style="fill:#ffcc4d" />
  <path
     d="m 10.998618,21.500294 c -1.8009997,-0.14 -3.3889997,-0.016 -4.7619997,0.234 0.198,0.292 0.386,0.6 0.565,0.924 1.208,-0.193 2.586,-0.279 4.1199997,-0.162 0.28,0.041 0.516,-0.184 0.537,-0.46 0.02,-0.275 -0.185,-0.516 -0.46,-0.536 z m -1.3209997,-2.143 c -4.002,-1.25 -7.396,-0.772 -8.74199999,-0.488 0.20599999,-0.024 0.42099999,-0.042 0.66599999,-0.042 0.889,0 1.71,0.26 2.457,0.722 1.482,-0.021 3.326,0.14 5.321,0.764 0.049,0.016 0.1,0.022 0.149,0.022 0.213,0 0.41,-0.137 0.4769997,-0.351 0.083,-0.263 -0.064,-0.544 -0.3279997,-0.627 z m 20.0529997,2.386 c -1.384,-0.256 -2.988,-0.384 -4.809,-0.243 -0.275,0.02 -0.481,0.261 -0.46,0.536 0.021,0.275 0.257,0.501 0.537,0.46 1.554,-0.118 2.95,-0.03 4.17,0.169 0.177,-0.323 0.364,-0.631 0.562,-0.922 z m 2.183,-2.194 c 0.747,-0.462 1.568,-0.722 2.458,-0.722 0.216,0 0.403,0.018 0.589,0.037 -1.361,-0.284 -4.739,-0.75 -8.718,0.493 -0.264,0.083 -0.411,0.363 -0.328,0.627 0.067,0.214 0.264,0.351 0.477,0.351 0.049,0 0.1,-0.007 0.149,-0.022 2.018,-0.632 3.883,-0.79 5.373,-0.764 z"
     id="path12"
     inkscape:connector-curvature="0"
     style="fill:#fee7b8" />
  <path
     d="m 17.959618,20.998294 c -2.209,0 -4,1.791 -4,4 l 0,6 c 0,2.209 1.791,4 4,4 2.209,0 4,-1.791 4,-4 l 0,-6 c 0,-2.209 -1.791,-4 -4,-4 z"
     id="path14"
     inkscape:connector-curvature="0"
     style="fill:#292f33" />
  <path
     d="m 7.3066183,10.663294 c -0.946,3.176 0.107,6.293 2.352,6.962 2.2459997,0.67 4.8339997,-1.362 5.7789997,-4.538 0.947,-3.1749999 -0.106,-6.2929999 -2.35,-6.9619999 -2.245,-0.669 -4.8339997,1.364 -5.7809997,4.5379999 z m 21.3049997,0 c 0.946,3.176 -0.107,6.293 -2.352,6.962 -2.246,0.67 -4.834,-1.362 -5.779,-4.538 -0.946,-3.1749999 0.107,-6.2929999 2.351,-6.9619999 2.245,-0.669 4.833,1.364 5.78,4.5379999 z"
     id="path16"
     inkscape:connector-curvature="0"
     style="fill:#f5f8fa" />
  <path
     d="m 35.712618,19.181294 c -0.314,-0.117 -0.691,-0.183 -1.157,-0.183 -4.641,0 -7.065,10.002 -5.873,17 l 6.46,0 c -1.906,-7.045 1.656,-14.089 0.57,-16.817 z m -34.3489997,-0.183 c -0.46399999,0 -0.83999999,0.066 -1.15299999,0.183 l -0.001,0.014 c -1.082,2.743 2.47199999,9.809 0.568,16.803 l 6.45999999,0 c 1.19,-6.96 -1.235,-17 -5.874,-17 z"
     id="path18"
     inkscape:connector-curvature="0"
     style="fill:#fcab40" />
</svg>
