<?xml version="1.0" encoding="UTF-8" standalone="no"?>
<svg
   xmlns:dc="http://purl.org/dc/elements/1.1/"
   xmlns:cc="http://creativecommons.org/ns#"
   xmlns:rdf="http://www.w3.org/1999/02/22-rdf-syntax-ns#"
   xmlns:svg="http://www.w3.org/2000/svg"
   xmlns="http://www.w3.org/2000/svg"
   xmlns:sodipodi="http://sodipodi.sourceforge.net/DTD/sodipodi-0.dtd"
   xmlns:inkscape="http://www.inkscape.org/namespaces/inkscape"
   viewBox="0 0 36 22"
   id="svg2"
   version="1.1"
   inkscape:version="0.91 r13725"
   sodipodi:docname="1f683.svg"
   width="36"
   height="22">
  <metadata
     id="metadata36">
    <rdf:RDF>
      <cc:Work
         rdf:about="">
        <dc:format>image/svg+xml</dc:format>
        <dc:type
           rdf:resource="http://purl.org/dc/dcmitype/StillImage" />
      </cc:Work>
    </rdf:RDF>
  </metadata>
  <defs
     id="defs34" />
  <sodipodi:namedview
     pagecolor="#ffffff"
     bordercolor="#666666"
     borderopacity="1"
     objecttolerance="10"
     gridtolerance="10"
     guidetolerance="10"
     inkscape:pageopacity="0"
     inkscape:pageshadow="2"
     inkscape:window-width="640"
     inkscape:window-height="480"
     id="namedview32"
     showgrid="false"
     inkscape:zoom="6.5555556"
     inkscape:cx="18"
     inkscape:cy="18"
     inkscape:window-x="0"
     inkscape:window-y="0"
     inkscape:window-maximized="0"
     inkscape:current-layer="svg2" />
  <path
     d="m 0,20 36,0 0,2 -36,0 z"
     id="path4"
     inkscape:connector-curvature="0"
     style="fill:#939598" />
  <path
     d="m 8,18 c 0,-1.657 -1.344,-3 -3,-3 -1.656,0 -3,1.343 -3,3 0,1.657 1.343,3 3,3 1.657,0 3,-1.343 3,-3 z"
     id="path6"
     inkscape:connector-curvature="0"
     style="fill:#58595b" />
  <path
     d="m 7,18 c 0,-1.105 -0.896,-2 -2,-2 -1.104,0 -2,0.895 -2,2 0,1.105 0.896,2 2,2 1.104,0 2,-0.895 2,-2 z"
     id="path8"
     inkscape:connector-curvature="0"
     style="fill:#292f33" />
  <path
     d="m 16,18 c 0,-1.657 -1.344,-3 -3,-3 -1.656,0 -3,1.343 -3,3 0,1.657 1.343,3 3,3 1.657,0 3,-1.343 3,-3 z"
     id="path10"
     inkscape:connector-curvature="0"
     style="fill:#58595b" />
  <path
     d="m 15,18 c 0,-1.105 -0.896,-2 -2,-2 -1.104,0 -2,0.895 -2,2 0,1.105 0.896,2 2,2 1.104,0 2,-0.895 2,-2 z"
     id="path12"
     inkscape:connector-curvature="0"
     style="fill:#292f33" />
  <circle
     cx="32"
     cy="18"
     r="3"
     id="circle14"
     style="fill:#58595b" />
  <circle
     cx="32"
     cy="18"
     r="2"
     id="circle16"
     style="fill:#292f33" />
  <circle
     cx="24"
     cy="18"
     r="3"
     id="circle18"
     style="fill:#58595b" />
  <circle
     cx="24"
     cy="18"
     r="2"
     id="circle20"
     style="fill:#292f33" />
  <path
     d="m 0,14 36,0 0,4 -36,0 z"
     id="path22"
     inkscape:connector-curvature="0"
     style="fill:#5c913b" />
  <path
     d="M 0,2 36,2 36,14 0,14 Z"
     id="path24"
     inkscape:connector-curvature="0"
     style="fill:#ffe8b6" />
  <path
     d="m 0,12 36,0 0,2 -36,0 z"
     id="path26"
     inkscape:connector-curvature="0"
     style="fill:#ffac33" />
  <path
     d="M 32.555,0 3.445,0 C 1.969,0 0.693,0.81 0,2 L 36,2 C 35.307,0.81 34.031,0 32.555,0 Z"
     id="path28"
     inkscape:connector-curvature="0"
     style="fill:#77b255" />
  <path
     d="M 5,8 C 5,8.553 4.553,9 4,9 L 2,9 C 1.448,9 1,8.553 1,8 L 1,6 C 1,5.447 1.448,5 2,5 l 2,0 c 0.553,0 1,0.447 1,1 l 0,2 z m 6,0 c 0,0.553 -0.447,1 -1,1 L 8,9 C 7.448,9 7,8.553 7,8 L 7,6 C 7,5.447 7.448,5 8,5 l 2,0 c 0.553,0 1,0.447 1,1 l 0,2 z m 6,0 c 0,0.553 -0.447,1 -1,1 L 14,9 C 13.447,9 13,8.553 13,8 l 0,-2 c 0,-0.553 0.447,-1 1,-1 l 2,0 c 0.553,0 1,0.447 1,1 l 0,2 z m 6,0 c 0,0.553 -0.447,1 -1,1 L 20,9 C 19.447,9 19,8.553 19,8 l 0,-2 c 0,-0.553 0.447,-1 1,-1 l 2,0 c 0.553,0 1,0.447 1,1 l 0,2 z m 6,0 c 0,0.553 -0.447,1 -1,1 L 26,9 C 25.447,9 25,8.553 25,8 l 0,-2 c 0,-0.553 0.447,-1 1,-1 l 2,0 c 0.553,0 1,0.447 1,1 l 0,2 z m 6,0 c 0,0.553 -0.447,1 -1,1 L 32,9 C 31.447,9 31,8.553 31,8 l 0,-2 c 0,-0.553 0.447,-1 1,-1 l 2,0 c 0.553,0 1,0.447 1,1 l 0,2 z"
     id="path30"
     inkscape:connector-curvature="0"
     style="fill:#55acee" />
</svg>
