<?xml version="1.0" encoding="UTF-8" standalone="no"?>
<svg
   xmlns:dc="http://purl.org/dc/elements/1.1/"
   xmlns:cc="http://creativecommons.org/ns#"
   xmlns:rdf="http://www.w3.org/1999/02/22-rdf-syntax-ns#"
   xmlns:svg="http://www.w3.org/2000/svg"
   xmlns="http://www.w3.org/2000/svg"
   xmlns:sodipodi="http://sodipodi.sourceforge.net/DTD/sodipodi-0.dtd"
   xmlns:inkscape="http://www.inkscape.org/namespaces/inkscape"
   viewBox="0 0 36 32"
   id="svg2"
   version="1.1"
   inkscape:version="0.91 r13725"
   sodipodi:docname="1f68e.svg"
   width="36"
   height="32">
  <metadata
     id="metadata34">
    <rdf:RDF>
      <cc:Work
         rdf:about="">
        <dc:format>image/svg+xml</dc:format>
        <dc:type
           rdf:resource="http://purl.org/dc/dcmitype/StillImage" />
      </cc:Work>
    </rdf:RDF>
  </metadata>
  <defs
     id="defs32" />
  <sodipodi:namedview
     pagecolor="#ffffff"
     bordercolor="#666666"
     borderopacity="1"
     objecttolerance="10"
     gridtolerance="10"
     guidetolerance="10"
     inkscape:pageopacity="0"
     inkscape:pageshadow="2"
     inkscape:window-width="640"
     inkscape:window-height="480"
     id="namedview30"
     showgrid="false"
     inkscape:zoom="6.5555556"
     inkscape:cx="18"
     inkscape:cy="17"
     inkscape:window-x="0"
     inkscape:window-y="0"
     inkscape:window-maximized="0"
     inkscape:current-layer="svg2" />
  <path
     d="m 0,19 0,6 c 0,1.657 1.343,3 3,3 l 30,0 c 1.657,0 3,-1.343 3,-3 l 0,-6 -36,0 z"
     id="path4"
     inkscape:connector-curvature="0"
     style="fill:#77b255" />
  <path
     d="M 15,9 C 14.774,9 14.547,8.924 14.36,8.768 13.936,8.414 13.878,7.784 14.232,7.36 19.418,1.136 26.557,0.053 26.858,0.01 26.905,0.003 26.953,0 27,0 l 3,0 c 0.553,0 1,0.448 1,1 0,0.552 -0.447,1 -1,1 L 27.081,2 C 26.391,2.119 20.203,3.319 15.769,8.641 15.571,8.878 15.287,9 15,9 Z"
     id="path6"
     inkscape:connector-curvature="0"
     style="fill:#6d6e71" />
  <path
     d="m 11,6 14,0 0,4 -14,0 z"
     id="path8"
     inkscape:connector-curvature="0"
     style="fill:#a7a9ac" />
  <path
     d="m 36,19 0,-8 C 36,9.343 34.657,8 33,8 L 3,8 C 1.343,8 0,9.343 0,11 l 0,8 36,0 z"
     id="path10"
     inkscape:connector-curvature="0"
     style="fill:#e6e7e8" />
  <path
     d="m 0,19 36,0 0,2 -36,0 z m 7,3 C 3.937,22 1.414,24.298 1.05,27.263 1.576,27.716 2.252,28 3,28 l 10,0 c 0,-3.313 -2.686,-6 -6,-6 z m 27.95,5.263 C 34.586,24.298 32.063,22 29,22 c -3.313,0 -6,2.687 -6,6 l 10,0 c 0.749,0 1.425,-0.284 1.95,-0.737 z"
     id="path12"
     inkscape:connector-curvature="0"
     style="fill:#5c913b" />
  <circle
     cx="7"
     cy="28"
     r="4"
     id="circle14" />
  <circle
     cx="7"
     cy="28"
     r="2"
     id="circle16"
     style="fill:#99aab5" />
  <circle
     cx="29"
     cy="28"
     r="4"
     id="circle18" />
  <circle
     cx="29"
     cy="28"
     r="2"
     id="circle20"
     style="fill:#99aab5" />
  <path
     d="m 27,16 c 0,0.553 -0.447,1 -1,1 l -3,0 c -0.553,0 -1,-0.447 -1,-1 l 0,-3 c 0,-0.552 0.447,-1 1,-1 l 3,0 c 0.553,0 1,0.448 1,1 l 0,3 z m 7,0 c 0,0.553 -0.447,1 -1,1 l -3,0 c -0.553,0 -1,-0.447 -1,-1 l 0,-3 c 0,-0.552 0.447,-1 1,-1 l 3,0 c 0.553,0 1,0.448 1,1 l 0,3 z m -21,0 c 0,0.553 -0.448,1 -1,1 L 9,17 C 8.448,17 8,16.553 8,16 l 0,-3 c 0,-0.552 0.448,-1 1,-1 l 3,0 c 0.552,0 1,0.448 1,1 l 0,3 z m 7,0 c 0,0.553 -0.447,1 -1,1 l -3,0 c -0.552,0 -1,-0.447 -1,-1 l 0,-3 c 0,-0.552 0.448,-1 1,-1 l 3,0 c 0.553,0 1,0.448 1,1 l 0,3 z m -15,-4 -5,0 0,7 5,0 c 0.552,0 1,-0.447 1,-1 L 6,13 C 6,12.448 5.552,12 5,12 Z"
     id="path22"
     inkscape:connector-curvature="0"
     style="fill:#55acee" />
  <path
     d="m 0,22 1,0 0,2 -1,0 z"
     id="path24"
     inkscape:connector-curvature="0"
     style="fill:#ffe8b6" />
  <path
     d="m 35,22 1,0 0,2 -1,0 z"
     id="path26"
     inkscape:connector-curvature="0"
     style="fill:#ea596e" />
  <path
     d="m 35,19 1,0 0,2 -1,0 z"
     id="path28"
     inkscape:connector-curvature="0"
     style="fill:#f4abba" />
</svg>
