<?xml version="1.0" encoding="UTF-8" standalone="no"?>
<svg
   xmlns:dc="http://purl.org/dc/elements/1.1/"
   xmlns:cc="http://creativecommons.org/ns#"
   xmlns:rdf="http://www.w3.org/1999/02/22-rdf-syntax-ns#"
   xmlns:svg="http://www.w3.org/2000/svg"
   xmlns="http://www.w3.org/2000/svg"
   xmlns:sodipodi="http://sodipodi.sourceforge.net/DTD/sodipodi-0.dtd"
   xmlns:inkscape="http://www.inkscape.org/namespaces/inkscape"
   viewBox="0 0 36 30"
   id="svg2"
   version="1.1"
   inkscape:version="0.91 r13725"
   sodipodi:docname="1f688.svg"
   width="36"
   height="30">
  <metadata
     id="metadata26">
    <rdf:RDF>
      <cc:Work
         rdf:about="">
        <dc:format>image/svg+xml</dc:format>
        <dc:type
           rdf:resource="http://purl.org/dc/dcmitype/StillImage" />
      </cc:Work>
    </rdf:RDF>
  </metadata>
  <defs
     id="defs24" />
  <sodipodi:namedview
     pagecolor="#ffffff"
     bordercolor="#666666"
     borderopacity="1"
     objecttolerance="10"
     gridtolerance="10"
     guidetolerance="10"
     inkscape:pageopacity="0"
     inkscape:pageshadow="2"
     inkscape:window-width="640"
     inkscape:window-height="480"
     id="namedview22"
     showgrid="false"
     inkscape:zoom="6.5555556"
     inkscape:cx="18"
     inkscape:cy="18"
     inkscape:window-x="0"
     inkscape:window-y="0"
     inkscape:window-maximized="0"
     inkscape:current-layer="svg2" />
  <path
     d="m 0,28 36,0 0,2 -36,0 z"
     id="path4"
     inkscape:connector-curvature="0"
     style="fill:#939598" />
  <path
     d="M 5,26.064 36,25.999 36,0 17,0 C 11,0 10,3 10,3 10,3 5,15.999 5,17.999 l 0,8.065 z"
     id="path6"
     inkscape:connector-curvature="0"
     style="fill:#d1d3d4" />
  <path
     d="m 14,24 c 0,0.553 -0.448,1 -1,1 L 5,25 C 4.448,25 4,24.553 4,24 l 0,-2 c 0,-0.553 0.448,-1 1,-1 l 8,0 c 0.552,0 1,0.447 1,1 l 0,2 z"
     id="path8"
     inkscape:connector-curvature="0"
     style="fill:#d1d3d4" />
  <path
     d="M 36,29 4.527,29 C 3.996,29 3.391,28.329 3.174,27.5 l -0.783,-3 C 2.175,23.671 3,23 4,23 l 32,0 0,6 z"
     id="path10"
     inkscape:connector-curvature="0"
     style="fill:#f4900c" />
  <path
     d="M 36,4 22.007,4 C 20.02,4 18.1,5.791 17.721,8 l -1.033,6 c -0.38,2.209 1.103,4 3.312,4 l 16,0 0,-14 z"
     id="path12"
     inkscape:connector-curvature="0"
     style="fill:#414042" />
  <path
     d="M 36,6 23.095,6 C 21,6 20.304,7.279 20.033,8.857 l -0.737,4.286 C 19.024,14.721 19.422,16 21,16 l 15,0 0,-10 z"
     id="path14"
     inkscape:connector-curvature="0"
     style="fill:#3b88c3" />
  <path
     d="M 17,0 C 11,0 10,3 10,3 10,3 5.008,15.98 5,17.995 7.448,17.959 9.115,17.651 10,15 11,12 12,8 13,6 14,4 15,3 18,3 20.493,3 21.592,1.615 21.896,0 L 17,0 Z"
     id="path16"
     inkscape:connector-curvature="0"
     style="fill:#414042" />
  <path
     d="M 9,12 C 9.944,9.168 12.663,4.558 9.6,4.051 8.759,6.273 6.793,11.539 5.723,15 L 6,15 c 0,0 2,0 3,-3 z"
     id="path18"
     inkscape:connector-curvature="0"
     style="fill:#55acee" />
  <path
     d="m 9,20 c 0,0.553 -0.448,1 -1,1 L 6,21 C 5.448,21 5,20.553 5,20 5,19.447 5.448,19 6,19 l 2,0 c 0.552,0 1,0.447 1,1 z"
     id="path20"
     inkscape:connector-curvature="0"
     style="fill:#dd2e44" />
</svg>
