<?xml version="1.0" encoding="UTF-8" standalone="no"?>
<svg
   xmlns:dc="http://purl.org/dc/elements/1.1/"
   xmlns:cc="http://creativecommons.org/ns#"
   xmlns:rdf="http://www.w3.org/1999/02/22-rdf-syntax-ns#"
   xmlns:svg="http://www.w3.org/2000/svg"
   xmlns="http://www.w3.org/2000/svg"
   xmlns:sodipodi="http://sodipodi.sourceforge.net/DTD/sodipodi-0.dtd"
   xmlns:inkscape="http://www.inkscape.org/namespaces/inkscape"
   viewBox="0 0 34.999928 30"
   id="svg2"
   version="1.1"
   inkscape:version="0.91 r13725"
   sodipodi:docname="1f69c.svg"
   width="34.999928"
   height="30">
  <metadata
     id="metadata44">
    <rdf:RDF>
      <cc:Work
         rdf:about="">
        <dc:format>image/svg+xml</dc:format>
        <dc:type
           rdf:resource="http://purl.org/dc/dcmitype/StillImage" />
      </cc:Work>
    </rdf:RDF>
  </metadata>
  <defs
     id="defs42" />
  <sodipodi:namedview
     pagecolor="#ffffff"
     bordercolor="#666666"
     borderopacity="1"
     objecttolerance="10"
     gridtolerance="10"
     guidetolerance="10"
     inkscape:pageopacity="0"
     inkscape:pageshadow="2"
     inkscape:window-width="640"
     inkscape:window-height="480"
     id="namedview40"
     showgrid="false"
     inkscape:zoom="6.5555556"
     inkscape:cx="16.999929"
     inkscape:cy="17"
     inkscape:window-x="0"
     inkscape:window-y="0"
     inkscape:window-maximized="0"
     inkscape:current-layer="svg2" />
  <path
     d="m 9.9999292,6 2.9999998,0 0,9 -2.9999998,0 z"
     id="path4"
     inkscape:connector-curvature="0"
     style="fill:#ccd6dd" />
  <path
     d="m 22.999929,21.157 c 0,2.675 -1.646,4.843 -3.675,4.843 L 3.7089292,26 c -2.029,0 -3.48800004,-1.565 -3.25800004,-3.494 L 1.0759292,17.265 c 0.23,-1.93 1.992,-3.808 3.928,-4.199 L 19.631929,9.856 c 1.864,-0.443 3.368,1.363 3.368,4.037 l 0,7.264 z"
     id="path6"
     inkscape:connector-curvature="0"
     style="fill:#77b255" />
  <path
     d="m 15.534929,19.167 c -0.296,2.116 1.256,3.833 3.465,3.833 l 9,0 c 2.209,0 4,-1.717 4,-3.833 l 0,-15.334 c 0,-2.117 -1.453,-3.833 -3.245,-3.833 l -7.303,0 c -1.792,0 -3.484,1.716 -3.78,3.833 l -2.137,15.334 z"
     id="path8"
     inkscape:connector-curvature="0"
     style="fill:#292f33" />
  <path
     d="m 17.244929,20 c -0.135,1.104 0.65,2 1.755,2 l 9,0 c 1.104,0 2,-0.896 2,-2 l 0,-14 c 0,-1.104 -0.743,-2 -1.66,-2 l -7.473,0 c -0.917,0 -1.771,0.896 -1.906,2 l -1.716,14 z"
     id="path10"
     inkscape:connector-curvature="0"
     style="fill:#bbddf5" />
  <path
     d="m 13.999929,16 18,0 0,10 -18,0 z"
     id="path12"
     inkscape:connector-curvature="0"
     style="fill:#77b255" />
  <path
     d="M 31.999929,18 0.99992916,18 1.9999292,16 31.999929,16 Z"
     id="path14"
     inkscape:connector-curvature="0"
     style="fill:#ffcc4d" />
  <circle
     cx="6.999929"
     cy="26"
     r="4"
     id="circle16"
     style="fill:#292f33" />
  <circle
     cx="6.999929"
     cy="26"
     r="2"
     id="circle18"
     style="fill:#ffcc4d" />
  <path
     d="m 31.999929,11 0,4 -10,9 -7,-1 3,-10 3,-2 z"
     id="path20"
     inkscape:connector-curvature="0"
     style="fill:#77b255" />
  <path
     d="m 17.221929,21.111 c 0,-4.91 3.979,-8.889 8.889,-8.889 4.91,0 8.889,3.979 8.889,8.889 0,4.91 -3.979,8.889 -8.889,8.889 -4.91,0 -8.889,-3.979 -8.889,-8.889 z"
     id="path22"
     inkscape:connector-curvature="0"
     style="fill:#292f33" />
  <path
     d="m 31.666929,21.111 c 0,3.068 -2.487,5.556 -5.556,5.556 -3.068,0 -5.556,-2.487 -5.556,-5.556 0,-3.068 2.487,-5.556 5.556,-5.556 3.069,10e-4 5.556,2.488 5.556,5.556 z"
     id="path24"
     inkscape:connector-curvature="0"
     style="fill:#ffcc4d" />
  <path
     d="m 29.443929,21.111 c 0,1.841 -1.492,3.333 -3.333,3.333 -1.842,0 -3.334,-1.492 -3.334,-3.333 0,-1.842 1.492,-3.334 3.334,-3.334 1.841,0 3.333,1.493 3.333,3.334 z"
     id="path26"
     inkscape:connector-curvature="0"
     style="fill:#ffe8b6" />
  <path
     d="m 31.587929,2 c -0.552,-1.187 -1.606,-2 -2.833,-2 l -7.303,0 c -1.227,0 -2.395,0.813 -3.112,2 l 13.248,0 z"
     id="path28"
     inkscape:connector-curvature="0"
     style="fill:#77b255" />
  <path
     d="m 28.332929,21.111 c 0,1.227 -0.995,2.222 -2.222,2.222 -1.227,0 -2.223,-0.995 -2.223,-2.222 0,-1.227 0.995,-2.223 2.223,-2.223 1.227,10e-4 2.222,0.996 2.222,2.223 z"
     id="path30"
     inkscape:connector-curvature="0"
     style="fill:#f4900c" />
  <circle
     cx="6.999929"
     cy="26"
     r="1"
     id="circle32"
     style="fill:#f4900c" />
  <path
     d="m 9.9999292,8 2.9999998,0 0,2 -2.9999998,0 z"
     id="path34"
     inkscape:connector-curvature="0"
     style="fill:#66757f" />
  <path
     d="m 14.999929,23.75 c -0.094,0 -0.19,-0.013 -0.285,-0.041 -0.529,-0.157 -0.832,-0.714 -0.675,-1.243 l 2,-6.75 c 0.381,-1.92 2.148,-5.716 5.96,-5.716 l 10,0 c 0.553,0 1,0.448 1,1 0,0.552 -0.447,1 -1,1 l -10,0 c -3.144,0 -4.011,4.154 -4.02,4.196 l -2.021,6.838 c -0.129,0.435 -0.527,0.716 -0.959,0.716 z"
     id="path36"
     inkscape:connector-curvature="0"
     style="fill:#5c913b" />
  <path
     d="m 1.0009292,24 c -0.042,0 -0.083,-0.003 -0.12500004,-0.008 -0.548,-0.068 -0.937,-0.568 -0.868,-1.116 l 1.00000004,-8 c 0.068,-0.549 0.569,-0.936 1.116,-0.868 0.548,0.068 0.937,0.568 0.868,1.116 l -1,8 c -0.063,0.506 -0.494,0.876 -0.991,0.876 z"
     id="path38"
     inkscape:connector-curvature="0"
     style="fill:#3e721d" />
</svg>
