<?xml version="1.0" encoding="UTF-8" standalone="no"?>
<svg
   xmlns:dc="http://purl.org/dc/elements/1.1/"
   xmlns:cc="http://creativecommons.org/ns#"
   xmlns:rdf="http://www.w3.org/1999/02/22-rdf-syntax-ns#"
   xmlns:svg="http://www.w3.org/2000/svg"
   xmlns="http://www.w3.org/2000/svg"
   xmlns:sodipodi="http://sodipodi.sourceforge.net/DTD/sodipodi-0.dtd"
   xmlns:inkscape="http://www.inkscape.org/namespaces/inkscape"
   viewBox="0 0 36 23"
   id="svg2"
   version="1.1"
   inkscape:version="0.91 r13725"
   sodipodi:docname="1f693.svg"
   width="36"
   height="23">
  <metadata
     id="metadata26">
    <rdf:RDF>
      <cc:Work
         rdf:about="">
        <dc:format>image/svg+xml</dc:format>
        <dc:type
           rdf:resource="http://purl.org/dc/dcmitype/StillImage" />
      </cc:Work>
    </rdf:RDF>
  </metadata>
  <defs
     id="defs24" />
  <sodipodi:namedview
     pagecolor="#ffffff"
     bordercolor="#666666"
     borderopacity="1"
     objecttolerance="10"
     gridtolerance="10"
     guidetolerance="10"
     inkscape:pageopacity="0"
     inkscape:pageshadow="2"
     inkscape:window-width="640"
     inkscape:window-height="480"
     id="namedview22"
     showgrid="false"
     inkscape:zoom="6.5555556"
     inkscape:cx="18"
     inkscape:cy="17"
     inkscape:window-x="0"
     inkscape:window-y="0"
     inkscape:window-maximized="0"
     inkscape:current-layer="svg2" />
  <path
     d="M 32,10 C 32,10 30,2 27,2 L 16,2 C 13,2 9,9 9,9 9,9 1,10 1,14 l 0,2 c 0,0.09 0.021,0.175 0.026,0.263 C 0.417,16.605 0,17.251 0,18 c 0,1.104 0.896,2 2,2 l 30,0 c 2.209,0 4,-1.791 4,-4 l 0,-2 c 0,-2.209 -1.791,-4 -4,-4 z"
     id="path4"
     inkscape:connector-curvature="0"
     style="fill:#e1e8ed" />
  <path
     d="m 1,14 0,2 c 0,0.09 0.021,0.175 0.026,0.263 C 0.417,16.605 0,17.251 0,18 c 0,1.104 0.896,2 2,2 l 30,0 c 2.209,0 4,-1.791 4,-4 l 0,-2 c 0,-0.348 -0.059,-0.679 -0.142,-1 L 1.201,13 C 1.084,13.312 1,13.641 1,14 Z"
     id="path6"
     inkscape:connector-curvature="0"
     style="fill:#292f33" />
  <path
     d="M 15.91,20 C 15.965,19.674 16,19.342 16,19 c 0,-3.313 -2.686,-6 -6,-6 -3.313,0 -6,2.687 -6,6 0,0.342 0.035,0.674 0.09,1 l 11.82,0 z m 17,0 C 32.965,19.674 33,19.342 33,19 c 0,-3.313 -2.687,-6 -6,-6 -3.313,0 -6,2.687 -6,6 0,0.342 0.035,0.674 0.09,1 l 11.82,0 z"
     id="path8"
     inkscape:connector-curvature="0"
     style="fill:#66757f" />
  <circle
     cx="10"
     cy="19"
     r="4"
     id="circle10"
     style="fill:#292f33" />
  <circle
     cx="10"
     cy="19"
     r="2"
     id="circle12"
     style="fill:#e1e8ed" />
  <circle
     cx="27"
     cy="19"
     r="4"
     id="circle14"
     style="fill:#292f33" />
  <circle
     cx="27"
     cy="19"
     r="2"
     id="circle16"
     style="fill:#e1e8ed" />
  <path
     d="m 21,1 c 0,0.552 -0.447,1 -1,1 L 17,2 C 16.448,2 16,1.552 16,1 16,0.448 16.448,0 17,0 l 3,0 c 0.553,0 1,0.448 1,1 z"
     id="path18"
     inkscape:connector-curvature="0"
     style="fill:#dd2e44" />
  <path
     d="m 22,1 c 0,0.552 -0.447,1 -1,1 L 19,2 C 18.448,2 18,1.552 18,1 18,0.448 18.448,0 19,0 l 2,0 c 0.553,0 1,0.448 1,1 z m 1,8 7,0 C 30,9 28,4 27,4 l -4,0 0,5 z M 21,4 16,4 c -2,0 -5,5 -5,5 l 10,0 0,-5 z"
     id="path20"
     inkscape:connector-curvature="0"
     style="fill:#55acee" />
</svg>
