<?xml version="1.0" encoding="UTF-8" standalone="no"?>
<svg
   xmlns:dc="http://purl.org/dc/elements/1.1/"
   xmlns:cc="http://creativecommons.org/ns#"
   xmlns:rdf="http://www.w3.org/1999/02/22-rdf-syntax-ns#"
   xmlns:svg="http://www.w3.org/2000/svg"
   xmlns="http://www.w3.org/2000/svg"
   xmlns:sodipodi="http://sodipodi.sourceforge.net/DTD/sodipodi-0.dtd"
   xmlns:inkscape="http://www.inkscape.org/namespaces/inkscape"
   viewBox="0 0 36 29"
   id="svg2"
   version="1.1"
   inkscape:version="0.91 r13725"
   sodipodi:docname="1f690.svg"
   width="36"
   height="29">
  <metadata
     id="metadata28">
    <rdf:RDF>
      <cc:Work
         rdf:about="">
        <dc:format>image/svg+xml</dc:format>
        <dc:type
           rdf:resource="http://purl.org/dc/dcmitype/StillImage" />
      </cc:Work>
    </rdf:RDF>
  </metadata>
  <defs
     id="defs26" />
  <sodipodi:namedview
     pagecolor="#ffffff"
     bordercolor="#666666"
     borderopacity="1"
     objecttolerance="10"
     gridtolerance="10"
     guidetolerance="10"
     inkscape:pageopacity="0"
     inkscape:pageshadow="2"
     inkscape:window-width="640"
     inkscape:window-height="480"
     id="namedview24"
     showgrid="false"
     inkscape:zoom="6.5555556"
     inkscape:cx="18"
     inkscape:cy="17"
     inkscape:window-x="0"
     inkscape:window-y="0"
     inkscape:window-maximized="0"
     inkscape:current-layer="svg2" />
  <path
     d="M 35,4 C 35,3 34,0 31,0 L 9.401,0 C 6,0 0,12 0,15 l 0,6 c 0,2.209 1.791,4 4,4 l 28,0 c 2.209,0 4,-1.791 4,-4 L 36,11 C 36,9.973 35,4 35,4 Z"
     id="path4"
     inkscape:connector-curvature="0"
     style="fill:#ccd6dd" />
  <path
     d="m 0,17 36,0 0,3 -36,0 z"
     id="path6"
     inkscape:connector-curvature="0"
     style="fill:#66757f" />
  <path
     d="M 9,19 C 5.733,19 3.082,21.612 3.007,24.861 3.327,24.942 3.655,25 4,25 l 11,0 c 0,-3.313 -2.686,-6 -6,-6 z m 23.993,5.86 C 32.918,21.612 30.268,19 27,19 c -3.312,0 -6,2.687 -6,6 l 11,0 c 0.345,0 0.674,-0.058 0.993,-0.14 z"
     id="path8"
     inkscape:connector-curvature="0"
     style="fill:#e1e8ed" />
  <path
     d="m 5.686,20 6.629,0 c -0.95,-0.631 -2.088,-1 -3.314,-1 -1.227,0 -2.366,0.368 -3.315,1 z m 18.001,0 6.629,0 c -0.949,-0.632 -2.089,-1 -3.315,-1 -1.226,0 -2.364,0.369 -3.314,1 z"
     id="path10"
     inkscape:connector-curvature="0"
     style="fill:#99aab5" />
  <circle
     cx="9"
     cy="25"
     r="4"
     id="circle12"
     style="fill:#292f33" />
  <circle
     cx="9"
     cy="25"
     r="2"
     id="circle14"
     style="fill:#99aab5" />
  <circle
     cx="27"
     cy="25"
     r="4"
     id="circle16"
     style="fill:#292f33" />
  <circle
     cx="27"
     cy="25"
     r="2"
     id="circle18"
     style="fill:#99aab5" />
  <path
     d="m 5,7 6,0 0,7 -9,0 z m 8,0 8,0 0,7 -8,0 z m 10,0 0,7 13,0 0,-3 C 36,10.474 35.738,8.653 35.482,7 L 23,7 Z"
     id="path20"
     inkscape:connector-curvature="0"
     style="fill:#55acee" />
  <path
     d="M 33,5 7,5 C 6.448,5 6,4.552 6,4 6,3.448 6.448,3 7,3 l 26,0 c 0.553,0 1,0.448 1,1 0,0.552 -0.447,1 -1,1 z"
     id="path22"
     inkscape:connector-curvature="0"
     style="fill:#99aab5" />
</svg>
