<?xml version="1.0" encoding="UTF-8" standalone="no"?>
<svg
   xmlns:dc="http://purl.org/dc/elements/1.1/"
   xmlns:cc="http://creativecommons.org/ns#"
   xmlns:rdf="http://www.w3.org/1999/02/22-rdf-syntax-ns#"
   xmlns:svg="http://www.w3.org/2000/svg"
   xmlns="http://www.w3.org/2000/svg"
   xmlns:sodipodi="http://sodipodi.sourceforge.net/DTD/sodipodi-0.dtd"
   xmlns:inkscape="http://www.inkscape.org/namespaces/inkscape"
   viewBox="0 0 36 36"
   id="svg2"
   version="1.1"
   inkscape:version="0.91 r13725"
   sodipodi:docname="1f69f.svg"
   width="36"
   height="36">
  <metadata
     id="metadata28">
    <rdf:RDF>
      <cc:Work
         rdf:about="">
        <dc:format>image/svg+xml</dc:format>
        <dc:type
           rdf:resource="http://purl.org/dc/dcmitype/StillImage" />
      </cc:Work>
    </rdf:RDF>
  </metadata>
  <defs
     id="defs26" />
  <sodipodi:namedview
     pagecolor="#ffffff"
     bordercolor="#666666"
     borderopacity="1"
     objecttolerance="10"
     gridtolerance="10"
     guidetolerance="10"
     inkscape:pageopacity="0"
     inkscape:pageshadow="2"
     inkscape:window-width="640"
     inkscape:window-height="480"
     id="namedview24"
     showgrid="false"
     inkscape:zoom="6.5555556"
     inkscape:cx="18"
     inkscape:cy="18"
     inkscape:window-x="0"
     inkscape:window-y="0"
     inkscape:window-maximized="0"
     inkscape:current-layer="svg2" />
  <path
     d="m 30,16 c 0,1.104 -0.896,2 -2,2 l -10,0 c -1.104,0 -2,-0.896 -2,-2 l 0,-2 c 0,-1.104 0.896,-2 2,-2 l 10,0 c 1.104,0 2,0.896 2,2 l 0,2 z"
     id="path4"
     inkscape:connector-curvature="0"
     style="fill:#58595b" />
  <path
     d="m 4,14 c -2.209,0 -4,1.791 -4,4 l 0,10 c 0,4.418 3.582,8 8,8 l 28,0 0,-22 -32,0 z"
     id="path6"
     inkscape:connector-curvature="0"
     style="fill:#f4900c" />
  <path
     d="M 0.587,31 36,31 36,29 0.069,29 c 0.087,0.698 0.263,1.369 0.518,2 z"
     id="path8"
     inkscape:connector-curvature="0"
     style="fill:#ffd983" />
  <path
     d="M 0,2 36,2 36,8 0,8 Z"
     id="path10"
     inkscape:connector-curvature="0"
     style="fill:#808285" />
  <path
     d="M 0,4 36,4 36,6 0,6 Z"
     id="path12"
     inkscape:connector-curvature="0"
     style="fill:#414042" />
  <path
     d="M 28,0 18,0 c -1.657,0 -3,1.343 -3,3 0,1.657 1.343,3 3,3 l 3,0 0,4 -2,2 8,0 -2,-2 0,-4 3,0 C 29.657,6 31,4.657 31,3 31,1.343 29.657,0 28,0 Z"
     id="path14"
     inkscape:connector-curvature="0"
     style="fill:#a7a9ac" />
  <path
     d="m 14,14 22,0 0,15 -22,0 z"
     id="path16"
     inkscape:connector-curvature="0"
     style="fill:#3b88c3" />
  <path
     d="m 12,25 c 0,1.104 -0.896,2 -2,2 L 6,27 C 4.896,27 4,26.104 4,25 l 0,-6 c 0,-1.104 0.896,-2 2,-2 l 4,0 c 1.104,0 2,0.896 2,2 l 0,6 z"
     id="path18"
     inkscape:connector-curvature="0"
     style="fill:#58595b" />
  <path
     d="m 24,23 c 0,1.104 -0.896,2 -2,2 l -4,0 c -1.104,0 -2,-0.896 -2,-2 l 0,-4 c 0,-1.104 0.896,-2 2,-2 l 4,0 c 1.104,0 2,0.896 2,2 l 0,4 z m 10,0 c 0,1.104 -0.896,2 -2,2 l -4,0 c -1.104,0 -2,-0.896 -2,-2 l 0,-4 c 0,-1.104 0.896,-2 2,-2 l 4,0 c 1.104,0 2,0.896 2,2 l 0,4 z"
     id="path20"
     inkscape:connector-curvature="0"
     style="fill:#414042" />
  <path
     d="m 0,17 0,10 c 1.104,0 2,-0.896 2,-2 L 2,19 C 2,17.896 1.104,17 0,17 Z"
     id="path22"
     inkscape:connector-curvature="0"
     style="fill:#58595b" />
</svg>
