<?xml version="1.0" encoding="UTF-8" standalone="no"?>
<svg
   xmlns:dc="http://purl.org/dc/elements/1.1/"
   xmlns:cc="http://creativecommons.org/ns#"
   xmlns:rdf="http://www.w3.org/1999/02/22-rdf-syntax-ns#"
   xmlns:svg="http://www.w3.org/2000/svg"
   xmlns="http://www.w3.org/2000/svg"
   xmlns:sodipodi="http://sodipodi.sourceforge.net/DTD/sodipodi-0.dtd"
   xmlns:inkscape="http://www.inkscape.org/namespaces/inkscape"
   viewBox="0 0 36 33"
   id="svg2"
   version="1.1"
   inkscape:version="0.91 r13725"
   sodipodi:docname="1f696.svg"
   width="36"
   height="33">
  <metadata
     id="metadata30">
    <rdf:RDF>
      <cc:Work
         rdf:about="">
        <dc:format>image/svg+xml</dc:format>
        <dc:type
           rdf:resource="http://purl.org/dc/dcmitype/StillImage" />
      </cc:Work>
    </rdf:RDF>
  </metadata>
  <defs
     id="defs28" />
  <sodipodi:namedview
     pagecolor="#ffffff"
     bordercolor="#666666"
     borderopacity="1"
     objecttolerance="10"
     gridtolerance="10"
     guidetolerance="10"
     inkscape:pageopacity="0"
     inkscape:pageshadow="2"
     inkscape:window-width="640"
     inkscape:window-height="480"
     id="namedview26"
     showgrid="false"
     inkscape:zoom="6.5555556"
     inkscape:cx="18"
     inkscape:cy="17"
     inkscape:window-x="0"
     inkscape:window-y="0"
     inkscape:window-maximized="0"
     inkscape:current-layer="svg2" />
  <path
     d="m 34,31 c 0,1.104 -0.896,2 -2,2 l -3,0 c -1.104,0 -2,-0.896 -2,-2 l 0,-8 c 0,-1.104 0.896,-2 2,-2 l 3,0 c 1.104,0 2,0.896 2,2 l 0,8 z M 9,31 c 0,1.104 -0.896,2 -2,2 L 4,33 C 2.896,33 2,32.104 2,31 l 0,-8 c 0,-1.104 0.896,-2 2,-2 l 3,0 c 1.104,0 2,0.896 2,2 l 0,8 z"
     id="path4"
     inkscape:connector-curvature="0"
     style="fill:#292f33" />
  <path
     d="m 9,3 c 4,-1 14,-1 18,0 3.881,0.97 5,11 5,11 0,0 2,0 2,4 l 0,8 c 0,0 0.123,4 -4,4 L 6,30 C 1.877,30 2,26 2,26 L 2,18 C 2,18 2,14 4,14 4,14 5.12,3.97 9,3 Z"
     id="path6"
     inkscape:connector-curvature="0"
     style="fill:#ffcc4d" />
  <path
     d="m 18,13 c 3.905,0 8.623,0.2 12,0.561 L 29,8 C 28,5 22,5 18,5 14,5 8,5 7,8 L 6,13.561 C 9.377,13.2 14.095,13 18,13 Z"
     id="path8"
     inkscape:connector-curvature="0"
     style="fill:#55acee" />
  <path
     d="M 5,13.5 C 5,14.329 4.329,15 3.5,15 l -2,0 C 0.671,15 0,14.329 0,13.5 0,12.671 0.671,12 1.5,12 l 2,0 C 4.329,12 5,12.671 5,13.5 Z m 26,0 c 0,0.829 0.672,1.5 1.5,1.5 l 2,0 C 35.328,15 36,14.329 36,13.5 36,12.671 35.328,12 34.5,12 l -2,0 C 31.672,12 31,12.671 31,13.5 Z M 11,21 c 0,1.657 -1.343,3 -3,3 L 7,24 C 5.343,24 4,22.657 4,21 4,19.343 5.343,18 7,18 l 1,0 c 1.657,0 3,1.343 3,3 z m 21,0 c 0,1.657 -1.344,3 -3,3 l -1,0 c -1.656,0 -3,-1.343 -3,-3 0,-1.657 1.344,-3 3,-3 l 1,0 c 1.656,0 3,1.343 3,3 z"
     id="path10"
     inkscape:connector-curvature="0"
     style="fill:#ffcc4d" />
  <path
     d="M 25,20 11,20 C 8.544,20 6.514,16.664 6.132,15.996 5.858,15.517 6.025,14.907 6.504,14.633 6.982,14.358 7.593,14.525 7.868,15.003 8.562,16.211 10.037,18 11,18 l 14,0 c 0.983,0 2.46,-1.655 3.148,-2.773 0.289,-0.471 0.903,-0.618 1.376,-0.328 0.47,0.29 0.616,0.905 0.327,1.376 C 29.617,16.656 27.487,20 25,20 Z"
     id="path12"
     inkscape:connector-curvature="0"
     style="fill:#ffac33" />
  <path
     d="m 2,22 4,0 0,4 -4,0 z m 28,0 4,0 0,4 -4,0 z"
     id="path14"
     inkscape:connector-curvature="0"
     style="fill:#f4900c" />
  <path
     d="m 10,24 c 0,1.104 -0.896,2 -2,2 L 6,26 C 4.896,26 4,25.104 4,24 4,22.896 4.896,22 6,22 l 2,0 c 1.104,0 2,0.896 2,2 z m 22,0 c 0,-1.104 -0.896,-2 -2,-2 l -2,0 c -1.104,0 -2,0.896 -2,2 0,1.104 0.896,2 2,2 l 2,0 c 1.104,0 2,-0.896 2,-2 z"
     id="path16"
     inkscape:connector-curvature="0"
     style="fill:#ffffff" />
  <path
     d="m 25,24 c 0,1.104 -0.896,2 -2,2 l -10,0 c -1.104,0 -2,-0.896 -2,-2 0,-1.104 0.896,-2 2,-2 l 10,0 c 1.104,0 2,0.896 2,2 z"
     id="path18"
     inkscape:connector-curvature="0"
     style="fill:#66757f" />
  <path
     d="M 22,0 14,0 C 12.343,0 11,1.343 11,3 L 25,3 C 25,1.343 23.657,0 22,0 Z"
     id="path20"
     inkscape:connector-curvature="0"
     style="fill:#ffe8b6" />
  <path
     d="m 14,1 8,0 0,2 -8,0 z"
     id="path22"
     inkscape:connector-curvature="0"
     style="fill:#ccd6dd" />
  <path
     d="m 16,2 4,0 0,1 -4,0 z"
     id="path24"
     inkscape:connector-curvature="0"
     style="fill:#99aab5" />
</svg>
