<?xml version="1.0" encoding="UTF-8" standalone="no"?>
<svg
   xmlns:dc="http://purl.org/dc/elements/1.1/"
   xmlns:cc="http://creativecommons.org/ns#"
   xmlns:rdf="http://www.w3.org/1999/02/22-rdf-syntax-ns#"
   xmlns:svg="http://www.w3.org/2000/svg"
   xmlns="http://www.w3.org/2000/svg"
   xmlns:sodipodi="http://sodipodi.sourceforge.net/DTD/sodipodi-0.dtd"
   xmlns:inkscape="http://www.inkscape.org/namespaces/inkscape"
   viewBox="0 0 36 36"
   id="svg2"
   version="1.1"
   inkscape:version="0.91 r13725"
   sodipodi:docname="1f69e.svg"
   width="36"
   height="36">
  <metadata
     id="metadata32">
    <rdf:RDF>
      <cc:Work
         rdf:about="">
        <dc:format>image/svg+xml</dc:format>
        <dc:type
           rdf:resource="http://purl.org/dc/dcmitype/StillImage" />
      </cc:Work>
    </rdf:RDF>
  </metadata>
  <defs
     id="defs30" />
  <sodipodi:namedview
     pagecolor="#ffffff"
     bordercolor="#666666"
     borderopacity="1"
     objecttolerance="10"
     gridtolerance="10"
     guidetolerance="10"
     inkscape:pageopacity="0"
     inkscape:pageshadow="2"
     inkscape:window-width="640"
     inkscape:window-height="480"
     id="namedview28"
     showgrid="false"
     inkscape:zoom="6.5555556"
     inkscape:cx="18"
     inkscape:cy="18"
     inkscape:window-x="0"
     inkscape:window-y="0"
     inkscape:window-maximized="0"
     inkscape:current-layer="svg2" />
  <path
     d="m 0,35 36,0 0,-25 C 36,10 29.999,0 26.999,0 23.999,0 17,9 15,11 13,13 10.5,11.5 9,10 7.5,8.5 6,7 5,7 4,7 0,14 0,14 l 0,21 z"
     id="path4"
     inkscape:connector-curvature="0"
     style="fill:#d1d3d4" />
  <path
     d="m 0,34 36,0 0,2 -36,0 z"
     id="path6"
     inkscape:connector-curvature="0"
     style="fill:#939598" />
  <circle
     cx="11"
     cy="32"
     r="3"
     id="circle8"
     style="fill:#58595b" />
  <circle
     cx="11"
     cy="32"
     r="2"
     id="circle10"
     style="fill:#292f33" />
  <path
     d="m 22,32 c 0,-1.657 -1.344,-3 -3,-3 -1.657,0 -3,1.343 -3,3 0,1.657 1.343,3 3,3 1.656,0 3,-1.343 3,-3 z"
     id="path12"
     inkscape:connector-curvature="0"
     style="fill:#58595b" />
  <path
     d="m 21,32 c 0,-1.105 -0.896,-2 -2,-2 -1.104,0 -2,0.895 -2,2 0,1.105 0.896,2 2,2 1.104,0 2,-0.895 2,-2 z"
     id="path14"
     inkscape:connector-curvature="0"
     style="fill:#292f33" />
  <path
     d="M 36,14 7,14 c -2.209,0 -4,1.791 -4,4 l 0,10 c 0,2.209 1.791,4 4,4 l 29,0 0,-18 z"
     id="path16"
     inkscape:connector-curvature="0"
     style="fill:#ffe8b6" />
  <path
     d="M 36,14 7,14 C 5.523,14 4.248,14.81 3.555,16 L 36,16 36,14 Z"
     id="path18"
     inkscape:connector-curvature="0"
     style="fill:#77b255" />
  <path
     d="M 36,28 3,28 c 0,2.209 1.791,4 4,4 l 29,0 0,-4 z"
     id="path20"
     inkscape:connector-curvature="0"
     style="fill:#5c913b" />
  <path
     d="m 3,26 33,0 0,2 -33,0 z"
     id="path22"
     inkscape:connector-curvature="0"
     style="fill:#ffac33" />
  <path
     d="m 3,19 6,0 0,5 -6,0 z m 12,3 c 0,0.553 -0.447,1 -1,1 l -2,0 c -0.552,0 -1,-0.447 -1,-1 l 0,-2 c 0,-0.553 0.448,-1 1,-1 l 2,0 c 0.553,0 1,0.447 1,1 l 0,2 z m 5,0 c 0,0.553 -0.447,1 -1,1 l -2,0 c -0.552,0 -1,-0.447 -1,-1 l 0,-2 c 0,-0.553 0.448,-1 1,-1 l 2,0 c 0.553,0 1,0.447 1,1 l 0,2 z m 7,0 c 0,0.553 -0.447,1 -1,1 l -2,0 c -0.553,0 -1,-0.447 -1,-1 l 0,-2 c 0,-0.553 0.447,-1 1,-1 l 2,0 c 0.553,0 1,0.447 1,1 l 0,2 z m 7,0 c 0,0.553 -0.447,1 -1,1 l -2,0 c -0.553,0 -1,-0.447 -1,-1 l 0,-2 c 0,-0.553 0.447,-1 1,-1 l 2,0 c 0.553,0 1,0.447 1,1 l 0,2 z"
     id="path24"
     inkscape:connector-curvature="0"
     style="fill:#55acee" />
  <path
     d="m 27.5,30 -5,0 C 21.673,30 21,29.327 21,28.5 l 0,-10 C 21,17.673 21.673,17 22.5,17 l 5,0 c 0.827,0 1.5,0.673 1.5,1.5 l 0,10 c 0,0.827 -0.673,1.5 -1.5,1.5 z m -5,-12 C 22.225,18 22,18.224 22,18.5 l 0,10 c 0,0.275 0.225,0.5 0.5,0.5 l 5,0 c 0.275,0 0.5,-0.225 0.5,-0.5 l 0,-10 C 28,18.224 27.775,18 27.5,18 l -5,0 z"
     id="path26"
     inkscape:connector-curvature="0"
     style="fill:#66757f" />
</svg>
