<?xml version="1.0" encoding="UTF-8" standalone="no"?>
<svg
   xmlns:dc="http://purl.org/dc/elements/1.1/"
   xmlns:cc="http://creativecommons.org/ns#"
   xmlns:rdf="http://www.w3.org/1999/02/22-rdf-syntax-ns#"
   xmlns:svg="http://www.w3.org/2000/svg"
   xmlns="http://www.w3.org/2000/svg"
   xmlns:sodipodi="http://sodipodi.sourceforge.net/DTD/sodipodi-0.dtd"
   xmlns:inkscape="http://www.inkscape.org/namespaces/inkscape"
   viewBox="0 0 32.471729 35.013317"
   id="svg2"
   version="1.1"
   inkscape:version="0.91 r13725"
   sodipodi:docname="1f6a0.svg"
   width="32.471729"
   height="35.013317">
  <metadata
     id="metadata24">
    <rdf:RDF>
      <cc:Work
         rdf:about="">
        <dc:format>image/svg+xml</dc:format>
        <dc:type
           rdf:resource="http://purl.org/dc/dcmitype/StillImage" />
      </cc:Work>
    </rdf:RDF>
  </metadata>
  <defs
     id="defs22" />
  <sodipodi:namedview
     pagecolor="#ffffff"
     bordercolor="#666666"
     borderopacity="1"
     objecttolerance="10"
     gridtolerance="10"
     guidetolerance="10"
     inkscape:pageopacity="0"
     inkscape:pageshadow="2"
     inkscape:window-width="640"
     inkscape:window-height="480"
     id="namedview20"
     showgrid="false"
     inkscape:zoom="6.5555556"
     inkscape:cx="16"
     inkscape:cy="18"
     inkscape:window-x="0"
     inkscape:window-y="0"
     inkscape:window-maximized="0"
     inkscape:current-layer="svg2" />
  <path
     d="m 17,11.013319 0,-7.0000001 -2,0 0,7.0000001 -5,0 0,5 12,0 0,-5 z"
     id="path4"
     inkscape:connector-curvature="0"
     style="fill:#58595b" />
  <path
     d="m 32,27.013319 0,-10 c 0,-2.209 -1.791,-4 -4,-4 l -24,0 c -2.209,0 -4,1.791 -4,4 l 0,10 32,0 z"
     id="path6"
     inkscape:connector-curvature="0"
     style="fill:#ffd983" />
  <path
     d="m 0,21.013319 0,6 c 0,4.418 3.582,8 8,8 l 16,0 c 4.418,0 8,-3.582 8,-8 l 0,-6 -32,0 z"
     id="path8"
     inkscape:connector-curvature="0"
     style="fill:#226699" />
  <path
     d="m 0,17.013319 6,0 0,9 -6,0 z m 8,0 7,0 0,9 -7,0 z m 9,0 7,0 0,9 -7,0 z m 9,0 6,0 0,9 -6,0 z"
     id="path10"
     inkscape:connector-curvature="0"
     style="fill:#88c9f9" />
  <path
     d="m 31.213,9.9903189 -29.943,-8.023 c -0.533,-0.144 -0.85,-0.691 -0.707,-1.22600001 0.143,-0.533 0.691,-0.85 1.225,-0.707 L 31.73,8.0583189 c 0.534,0.144 0.851,0.691 0.707,1.225 -0.142,0.534 -0.69,0.8510001 -1.224,0.707 z"
     id="path12"
     inkscape:connector-curvature="0"
     style="fill:#6d6e71" />
  <path
     d="m 21.348,3.3743189 -1.933,-0.518 0.259,-0.965 L 13.879,0.33831889 13.62,1.3043189 11.688,0.78631889 c -1.067,-0.285 -2.164,0.34800001 -2.45,1.41500001 -0.286,1.066 0.348,2.163 1.414,2.449 l 9.66,2.588 c 1.066,0.286 2.163,-0.348 2.449,-1.414 0.286,-1.066 -0.347,-2.164 -1.413,-2.45 z"
     id="path14"
     inkscape:connector-curvature="0"
     style="fill:#a7a9ac" />
  <path
     d="m 11.877,3.9443189 c -0.286,1.066 -1.383,1.7 -2.45,1.414 -1.066,-0.286 -1.7,-1.383 -1.414,-2.449 0.286,-1.067 1.383,-1.7 2.449,-1.415 1.068,0.286 1.701,1.382 1.415,2.45 z m 11.592,3.105 c -0.286,1.067 -1.383,1.7 -2.449,1.414 -1.067,-0.286 -1.7,-1.382 -1.414,-2.449 0.285,-1.067 1.382,-1.7 2.449,-1.414 1.066,0.286 1.7,1.383 1.414,2.449 z"
     id="path16"
     inkscape:connector-curvature="0"
     style="fill:#808285" />
  <path
     d="m 0,17.013319 6,0 0,2 -6,0 z m 8,0 7,0 0,2 -7,0 z m 9,0 7,0 0,2 -7,0 z m 9,0 6,0 0,2 -6,0 z"
     id="path18"
     inkscape:connector-curvature="0"
     style="fill:#55acee" />
</svg>
