<?xml version="1.0" encoding="UTF-8" standalone="no"?>
<svg
   xmlns:dc="http://purl.org/dc/elements/1.1/"
   xmlns:cc="http://creativecommons.org/ns#"
   xmlns:rdf="http://www.w3.org/1999/02/22-rdf-syntax-ns#"
   xmlns:svg="http://www.w3.org/2000/svg"
   xmlns="http://www.w3.org/2000/svg"
   xmlns:sodipodi="http://sodipodi.sourceforge.net/DTD/sodipodi-0.dtd"
   xmlns:inkscape="http://www.inkscape.org/namespaces/inkscape"
   viewBox="0 0 22 36"
   id="svg2"
   version="1.1"
   inkscape:version="0.91 r13725"
   sodipodi:docname="1f6aa.svg"
   width="22"
   height="36">
  <metadata
     id="metadata20">
    <rdf:RDF>
      <cc:Work
         rdf:about="">
        <dc:format>image/svg+xml</dc:format>
        <dc:type
           rdf:resource="http://purl.org/dc/dcmitype/StillImage" />
      </cc:Work>
    </rdf:RDF>
  </metadata>
  <defs
     id="defs18" />
  <sodipodi:namedview
     pagecolor="#ffffff"
     bordercolor="#666666"
     borderopacity="1"
     objecttolerance="10"
     gridtolerance="10"
     guidetolerance="10"
     inkscape:pageopacity="0"
     inkscape:pageshadow="2"
     inkscape:window-width="640"
     inkscape:window-height="480"
     id="namedview16"
     showgrid="false"
     inkscape:zoom="6.5555556"
     inkscape:cx="11"
     inkscape:cy="18"
     inkscape:window-x="0"
     inkscape:window-y="0"
     inkscape:window-maximized="0"
     inkscape:current-layer="svg2" />
  <path
     d="m 22,34 c 0,1.105 -0.895,2 -2,2 L 2,36 C 0.895,36 0,35.105 0,34 L 0,2 C 0,0.895 0.895,0 2,0 l 18,0 c 1.105,0 2,0.895 2,2 l 0,32 z"
     id="path4"
     inkscape:connector-curvature="0"
     style="fill:#bf6952" />
  <circle
     cx="4"
     cy="18"
     r="1.5"
     id="circle6"
     style="fill:#ffac33" />
  <path
     d="m 18,3 c -0.552,0 -1,0.448 -1,1 l 0,9 -13,0 c -0.552,0 -1,0.448 -1,1 0,0.552 0.448,1 1,1 l 14,0 c 0.552,0 1,-0.448 1,-1 L 19,4 C 19,3.448 18.552,3 18,3 Z m 0,25 c 0.552,0 1,0.448 1,1 l 0,3 c 0,0.552 -0.448,1 -1,1 L 4,33 C 3.448,33 3,32.552 3,32 3,31.448 3.448,31 4,31 l 13,0 0,-2 c 0,-0.552 0.448,-1 1,-1 z"
     id="path8"
     inkscape:connector-curvature="0"
     style="fill:#ac5640" />
  <path
     d="M 4,33 C 3.448,33 3,32.552 3,32 l 0,-3 c 0,-0.552 0.448,-1 1,-1 l 14,0 c 0.552,0 1,0.448 1,1 0,0.552 -0.448,1 -1,1 l -13,0 0,2 c 0,0.552 -0.448,1 -1,1 z"
     id="path10"
     inkscape:connector-curvature="0"
     style="fill:#854836" />
  <path
     d="m 18,21 c 0.552,0 1,0.448 1,1 l 0,3 c 0,0.552 -0.448,1 -1,1 L 4,26 C 3.448,26 3,25.552 3,25 3,24.448 3.448,24 4,24 l 13,0 0,-2 c 0,-0.552 0.448,-1 1,-1 z"
     id="path12"
     inkscape:connector-curvature="0"
     style="fill:#ac5640" />
  <path
     d="M 4,26 C 3.448,26 3,25.552 3,25 l 0,-3 c 0,-0.552 0.448,-1 1,-1 l 14,0 c 0.552,0 1,0.448 1,1 0,0.552 -0.448,1 -1,1 l -13,0 0,2 c 0,0.552 -0.448,1 -1,1 z M 4,15 C 3.448,15 3,14.552 3,14 L 3,4 C 3,3.448 3.448,3 4,3 l 14,0 c 0.552,0 1,0.448 1,1 0,0.552 -0.448,1 -1,1 L 5,5 5,14 c 0,0.552 -0.448,1 -1,1 z"
     id="path14"
     inkscape:connector-curvature="0"
     style="fill:#854836" />
</svg>
