<?xml version="1.0" encoding="UTF-8" standalone="no"?>
<svg
   xmlns:dc="http://purl.org/dc/elements/1.1/"
   xmlns:cc="http://creativecommons.org/ns#"
   xmlns:rdf="http://www.w3.org/1999/02/22-rdf-syntax-ns#"
   xmlns:svg="http://www.w3.org/2000/svg"
   xmlns="http://www.w3.org/2000/svg"
   xmlns:sodipodi="http://sodipodi.sourceforge.net/DTD/sodipodi-0.dtd"
   xmlns:inkscape="http://www.inkscape.org/namespaces/inkscape"
   viewBox="0 0 36 36"
   id="svg2"
   version="1.1"
   inkscape:version="0.91 r13725"
   sodipodi:docname="1f6a2.svg"
   width="36"
   height="36">
  <metadata
     id="metadata36">
    <rdf:RDF>
      <cc:Work
         rdf:about="">
        <dc:format>image/svg+xml</dc:format>
        <dc:type
           rdf:resource="http://purl.org/dc/dcmitype/StillImage" />
      </cc:Work>
    </rdf:RDF>
  </metadata>
  <defs
     id="defs34" />
  <sodipodi:namedview
     pagecolor="#ffffff"
     bordercolor="#666666"
     borderopacity="1"
     objecttolerance="10"
     gridtolerance="10"
     guidetolerance="10"
     inkscape:pageopacity="0"
     inkscape:pageshadow="2"
     inkscape:window-width="640"
     inkscape:window-height="480"
     id="namedview32"
     showgrid="false"
     inkscape:zoom="6.5555556"
     inkscape:cx="18"
     inkscape:cy="18"
     inkscape:window-x="0"
     inkscape:window-y="0"
     inkscape:window-maximized="0"
     inkscape:current-layer="svg2" />
  <path
     d="m 16,0 4,0 0,5 -4,0 z"
     id="path4"
     inkscape:connector-curvature="0"
     style="fill:#292f33" />
  <path
     d="m 16,2 4,0 0,4 -4,0 z"
     id="path6"
     inkscape:connector-curvature="0"
     style="fill:#d1d3d4" />
  <path
     d="m 18,2 2,0 0,4 -2,0 z"
     id="path8"
     inkscape:connector-curvature="0"
     style="fill:#a7a9ac" />
  <path
     d="M 18,19 5,19 c 0,0 1.355,8 4.875,14 3.519,6 8.125,0 8.125,0 0,0 4.606,6 8.125,0 C 29.645,27 31,19 31,19 l -13,0 z"
     id="path10"
     inkscape:connector-curvature="0"
     style="fill:#66757f" />
  <path
     d="M 18,19 5,19 c 0,0 1.355,8 4.875,14 3.519,6 8.125,0 8.125,0 l 0,-14 z"
     id="path12"
     inkscape:connector-curvature="0"
     style="fill:#99aab5" />
  <path
     d="m 0,30 36,0 0,6 -36,0 z"
     id="path14"
     inkscape:connector-curvature="0"
     style="fill:#55acee" />
  <path
     d="M 30,9 27.55,9 27.308,5 8.692,5 8.451,9 6,9 6,15 8.088,15 7.846,19 28.154,19 27.912,15 30,15 Z"
     id="path16"
     inkscape:connector-curvature="0"
     style="fill:#e6e7e8" />
  <path
     d="m 10,15 16,0 0,4 -16,0 z"
     id="path18"
     inkscape:connector-curvature="0"
     style="fill:#d1d3d4" />
  <path
     d="m 8,11 20,0 0,2 -20,0 z"
     id="path20"
     inkscape:connector-curvature="0"
     style="fill:#6d6e71" />
  <path
     d="M 10,7 26,7 26,9 10,9 Z"
     id="path22"
     inkscape:connector-curvature="0"
     style="fill:#bcbec0" />
  <path
     d="m 5.913,23 24.174,0 c 0.201,-0.747 0.368,-1.427 0.5,-2 L 5.413,21 c 0.132,0.573 0.299,1.253 0.5,2 z"
     id="path24"
     inkscape:connector-curvature="0"
     style="fill:#be1931" />
  <path
     d="m 18,23 12.087,0 c 0.201,-0.747 0.368,-1.427 0.5,-2 L 18,21 l 0,2 z"
     id="path26"
     inkscape:connector-curvature="0"
     style="fill:#a0041e" />
  <path
     d="m 12,17 12,0 0,2 -12,0 z"
     id="path28"
     inkscape:connector-curvature="0"
     style="fill:#bcbec0" />
  <path
     d="m 16,0 2,0 0,2 -2,0 z"
     id="path30"
     inkscape:connector-curvature="0"
     style="fill:#58595b" />
</svg>
