<?xml version="1.0" encoding="UTF-8" standalone="no"?>
<svg
   xmlns:dc="http://purl.org/dc/elements/1.1/"
   xmlns:cc="http://creativecommons.org/ns#"
   xmlns:rdf="http://www.w3.org/1999/02/22-rdf-syntax-ns#"
   xmlns:svg="http://www.w3.org/2000/svg"
   xmlns="http://www.w3.org/2000/svg"
   xmlns:sodipodi="http://sodipodi.sourceforge.net/DTD/sodipodi-0.dtd"
   xmlns:inkscape="http://www.inkscape.org/namespaces/inkscape"
   viewBox="0 0 36 30.346004"
   id="svg2"
   version="1.1"
   inkscape:version="0.91 r13725"
   sodipodi:docname="1f6a3-1f3fd.svg"
   width="36"
   height="30.346004">
  <metadata
     id="metadata26">
    <rdf:RDF>
      <cc:Work
         rdf:about="">
        <dc:format>image/svg+xml</dc:format>
        <dc:type
           rdf:resource="http://purl.org/dc/dcmitype/StillImage" />
      </cc:Work>
    </rdf:RDF>
  </metadata>
  <defs
     id="defs24" />
  <sodipodi:namedview
     pagecolor="#ffffff"
     bordercolor="#666666"
     borderopacity="1"
     objecttolerance="10"
     gridtolerance="10"
     guidetolerance="10"
     inkscape:pageopacity="0"
     inkscape:pageshadow="2"
     inkscape:window-width="640"
     inkscape:window-height="480"
     id="namedview22"
     showgrid="false"
     inkscape:zoom="6.5555556"
     inkscape:cx="18"
     inkscape:cy="18"
     inkscape:window-x="0"
     inkscape:window-y="0"
     inkscape:window-maximized="0"
     inkscape:current-layer="svg2" />
  <path
     d="m 15.356,10.221005 3.083,1.158 -1.156,3.084 c 0,0 -4.55,-1.004 -5.259,-2.113 -0.709,-1.111 0.602,-2.7289999 0.602,-2.7289999 l 2.73,0.5999999 z"
     id="path4"
     inkscape:connector-curvature="0" />
  <path
     d="m 2,11.346005 32,0 c 0,0 0,2 -1,7 -0.86,4.302 -21,1 -24.601,0 -3.083,-0.856 -6.399,-7 -6.399,-7 z"
     id="path6"
     inkscape:connector-curvature="0"
     style="fill:#c1694f" />
  <path
     d="m 35,12.346005 c 0,0.553 -0.447,1 -1,1 l -32,0 c -0.552,0 -1,-0.447 -1,-1 0,-0.553 0.448,-1 1,-1 l 32,0 c 0.553,0 1,0.447 1,1 z"
     id="path8"
     inkscape:connector-curvature="0"
     style="fill:#f4900c" />
  <path
     d="m 0,18.279005 0,10.067 c 0,1.105 0.895,2 2,2 l 32,0 c 1.105,0 2,-0.895 2,-2 l 0,-9.637 c 0,-0.637 -0.585,-1.097 -1.21,-0.976 -11.333,2.19 -22.667,-2.809 -34,-0.439 -0.461,0.096 -0.79,0.514 -0.79,0.985 z"
     id="path10"
     inkscape:connector-curvature="0"
     style="fill:#55acee" />
  <path
     d="m 24.646,7.8790051 c -0.171,-0.171 -0.448,-0.171 -0.619,0 l -8.031,8.0309999 c -2.225,2.224 -2.691,0.599 -5.033,2.941 l -3.231,3.231 c -0.2,0.199 -0.199,0.523 0,0.723 l 0.994,0.994 0.994,0.994 c 0.2,0.2 0.523,0.2 0.722,0 l 3.231,-3.231 c 2.342,-2.342 0.717,-2.809 2.941,-5.033 l 8.031,-8.0309999 c 0.172,-0.171 0.172,-0.448 0.001,-0.619 z"
     id="path12"
     inkscape:connector-curvature="0"
     style="fill:#1c6399" />
  <path
     d="m 17.028,3.5750051 c -0.176,-0.21 -0.314,-0.46 -0.388,-0.773 -0.265,-1.118 0.345,-2.21999998 1.362,-2.46099998 1.017,-0.241 2.447,0.464 2.46,1.61299998 0.013,1.141 -0.556,2.847 -1.522,2.6 -0.255,-0.065 -0.51,-0.138 -0.754,-0.228 -0.098,0.125 -0.153,0.592 -0.096,0.987 0.147,1.008 -1.245,1.167 -1.391,0.157 -0.116,-0.798 0.365,-1.327 0.329,-1.895 z"
     id="path14"
     inkscape:connector-curvature="0"
     style="fill:#d4ab88" />
  <path
     d="m 19.947,0.52900512 c -1.426,-0.8 -2.352,-0.616 -3.1,0.042 -0.743,0.65299998 -0.726,1.82399998 -0.477,2.55899998 0.249,0.735 0.464,0.684 0.464,0.684 0,0 1.04,0.186 1.072,-0.772 0.01,-0.303 -0.333,-0.45 0.011,-0.91 0.222,-0.296 0.752,-0.178 0.773,0.233 0.022,0.411 0.228,0.324 0.228,0.324 l 0.567,-1.117 c 0,0 0.531,-0.055 0.85,0.42 0.202,0.298 0.857,-0.764 -0.388,-1.46299998 z"
     id="path16"
     inkscape:connector-curvature="0"
     style="fill:#963b22" />
  <path
     d="m 24.229,8.3540051 -0.118,-0.118 c -0.271,-0.28 -0.494,-0.141 -0.642,-0.049 -0.064,0.04 -0.126,0.078 -0.172,0.078 l -0.004,0 c -0.178,-0.025 -2.298,-0.865 -2.562,-1.116 -0.072,-0.069 -0.182,-0.192 -0.321,-0.348 -0.399,-0.449 -1.004,-1.126 -1.621,-1.538 -0.484,-0.323 -0.858,-0.319 -1.086,-0.26 -0.277,0.071 -0.515,0.266 -0.655,0.534 -0.315,0.605 -0.131,1.283 0.447,1.647 1.135,0.716 2.013,1.25 2.539,1.542 0.41,0.227 1.505,0.465 2.229,0.624 0.248,0.054 0.482,0.105 0.526,0.123 0.079,0.032 0.188,0.141 0.292,0.247 0.163,0.165 0.331,0.3329999 0.502,0.3329999 0.017,0 0.033,-0.001 0.051,-0.005 0.267,-0.055 0.513,-0.4189999 0.783,-0.8539999 0.252,-0.403 0.067,-0.586 -0.188,-0.84 z"
     id="path18"
     inkscape:connector-curvature="0"
     style="fill:#d4ab88" />
  <path
     d="m 19.556,5.8960051 c -0.482,-0.732 -0.833,-1.126 -1.568,-1.288 -1.287,-0.284 -2.912,0.308 -4.222,1.927 -0.829,1.024 -0.947,2.174 -2.259,3.7939999 0,0 4.199,0.447 4.754,0.092 0.556,-0.354 0.758,-1.2649999 0.959,-2.1739999 0.106,-0.482 0.288,-0.806 0.491,-0.922 0.426,0.358 1.277,0.837 1.277,0.837 l 1.306,-1.507 c 0,10e-4 -0.525,-0.587 -0.738,-0.759 z"
     id="path20"
     inkscape:connector-curvature="0"
     style="fill:#77b255" />
</svg>
