<?xml version="1.0" encoding="UTF-8" standalone="no"?>
<svg
   xmlns:dc="http://purl.org/dc/elements/1.1/"
   xmlns:cc="http://creativecommons.org/ns#"
   xmlns:rdf="http://www.w3.org/1999/02/22-rdf-syntax-ns#"
   xmlns:svg="http://www.w3.org/2000/svg"
   xmlns="http://www.w3.org/2000/svg"
   xmlns:sodipodi="http://sodipodi.sourceforge.net/DTD/sodipodi-0.dtd"
   xmlns:inkscape="http://www.inkscape.org/namespaces/inkscape"
   viewBox="0 0 36 36"
   id="svg2"
   version="1.1"
   inkscape:version="0.91 r13725"
   sodipodi:docname="1f6af.svg"
   width="36"
   height="36">
  <metadata
     id="metadata18">
    <rdf:RDF>
      <cc:Work
         rdf:about="">
        <dc:format>image/svg+xml</dc:format>
        <dc:type
           rdf:resource="http://purl.org/dc/dcmitype/StillImage" />
      </cc:Work>
    </rdf:RDF>
  </metadata>
  <defs
     id="defs16" />
  <sodipodi:namedview
     pagecolor="#ffffff"
     bordercolor="#666666"
     borderopacity="1"
     objecttolerance="10"
     gridtolerance="10"
     guidetolerance="10"
     inkscape:pageopacity="0"
     inkscape:pageshadow="2"
     inkscape:window-width="640"
     inkscape:window-height="480"
     id="namedview14"
     showgrid="false"
     inkscape:zoom="6.5555556"
     inkscape:cx="18"
     inkscape:cy="18"
     inkscape:window-x="0"
     inkscape:window-y="0"
     inkscape:window-maximized="0"
     inkscape:current-layer="svg2" />
  <path
     d="m 34.999,17.999 c 0,9.389 -7.611,17 -17,17 C 8.61,34.999 1,27.388 1,17.999 1,8.61 8.61,1 17.999,1 c 9.389,0 17,7.61 17,16.999 z"
     id="path4"
     inkscape:connector-curvature="0" />
  <ellipse
     cx="20"
     cy="7.5"
     rx="3"
     ry="3.5"
     id="ellipse6"
     style="fill:#ffffff" />
  <path
     d="m 26,13 c 0,0 0,-2 -2,-2 l -7,0 c -1,0 -2,1 -2,1 l -2,2 -4,0 c 0,0 -1,0 -1,1 0,1 1,1 1,1 l 5,0 2,-1.171 L 16,31 c 0,0 0,1 1,1 l 1,0 c 0,0 1,0 1,-1 l 0,-8 c 0,0 0,-1 1,-1 1,0 1,1 1,1 l 0,8 c 0,0 0,1 1,1 l 1,0 c 0,0 1,0 1,-1 l 0,-9 c 0,0 2,0 2,-2 l 0,-7 z M 9.242,19.467 C 9.242,20.313 8.516,21 7.621,21 6.726,21 6,20.313 6,19.467 6,18.62 6.726,17.934 7.621,17.934 c 0.895,0 1.621,0.686 1.621,1.533 z"
     id="path8"
     inkscape:connector-curvature="0"
     style="fill:#ffffff" />
  <path
     d="M 13.242,22.467 C 13.242,23.314 12.516,24 11.621,24 10.726,24 10,23.313 10,22.467 c 0,-0.847 0.726,-1.533 1.621,-1.533 0.895,0 1.621,0.686 1.621,1.533 z m -2,4 C 11.242,27.314 10.516,28 9.621,28 8.726,28 8,27.313 8,26.467 8,25.62 8.726,24.934 9.621,24.934 c 0.895,0 1.621,0.686 1.621,1.533 z"
     id="path10"
     inkscape:connector-curvature="0"
     style="fill:#ffffff" />
  <path
     d="M 18,0 C 8.059,0 0,8.06 0,18 0,27.941 8.059,36 18,36 27.941,36 36,27.941 36,18 36,8.06 27.941,0 18,0 Z m 16,18 c 0,3.968 -1.453,7.591 -3.845,10.388 L 7.612,5.845 C 10.409,3.453 14.032,2 18,2 26.837,2 34,9.164 34,18 Z M 2,18 C 2,14.032 3.453,10.408 5.845,7.612 L 28.388,30.156 C 25.592,32.548 21.968,34 18,34 9.164,34 2,26.837 2,18 Z"
     id="path12"
     inkscape:connector-curvature="0"
     style="fill:#dd2e44" />
</svg>
