<?xml version="1.0" encoding="UTF-8" standalone="no"?>
<svg
   xmlns:dc="http://purl.org/dc/elements/1.1/"
   xmlns:cc="http://creativecommons.org/ns#"
   xmlns:rdf="http://www.w3.org/1999/02/22-rdf-syntax-ns#"
   xmlns:svg="http://www.w3.org/2000/svg"
   xmlns="http://www.w3.org/2000/svg"
   xmlns:sodipodi="http://sodipodi.sourceforge.net/DTD/sodipodi-0.dtd"
   xmlns:inkscape="http://www.inkscape.org/namespaces/inkscape"
   viewBox="0 0 36 36"
   id="svg2"
   version="1.1"
   inkscape:version="0.91 r13725"
   sodipodi:docname="1f6ae.svg"
   width="36"
   height="36">
  <metadata
     id="metadata18">
    <rdf:RDF>
      <cc:Work
         rdf:about="">
        <dc:format>image/svg+xml</dc:format>
        <dc:type
           rdf:resource="http://purl.org/dc/dcmitype/StillImage" />
      </cc:Work>
    </rdf:RDF>
  </metadata>
  <defs
     id="defs16" />
  <sodipodi:namedview
     pagecolor="#ffffff"
     bordercolor="#666666"
     borderopacity="1"
     objecttolerance="10"
     gridtolerance="10"
     guidetolerance="10"
     inkscape:pageopacity="0"
     inkscape:pageshadow="2"
     inkscape:window-width="640"
     inkscape:window-height="480"
     id="namedview14"
     showgrid="false"
     inkscape:zoom="6.5555556"
     inkscape:cx="18"
     inkscape:cy="18"
     inkscape:window-x="0"
     inkscape:window-y="0"
     inkscape:window-maximized="0"
     inkscape:current-layer="svg2" />
  <path
     d="M 0,4 C 0,0 4,0 4,0 l 28,0 c 0,0 4,0 4,4 l 0,28 c 0,0 0,4 -4,4 L 4,36 C 4,36 0,36 0,32 L 0,4 Z"
     id="path4"
     inkscape:connector-curvature="0"
     style="fill:#3b88c3" />
  <ellipse
     cx="23"
     cy="7.5"
     rx="3"
     ry="3.5"
     id="ellipse6"
     style="fill:#ffffff" />
  <path
     d="m 29,13 c 0,0 0,-2 -2,-2 l -7,0 c -1,0 -2,1 -2,1 l -2,2 -4,0 c 0,0 -1,0 -1,1 0,1 1,1 1,1 l 5,0 2,-2 0,17 c 0,0 0,1 1,1 l 1,0 c 0,0 1,0 1,-1 l 0,-8 c 0,0 0,-1 1,-1 1,0 1,1 1,1 l 0,8 c 0,0 0,1 1,1 l 1,0 c 0,0 1,0 1,-1 l 0,-9 c 0,0 2,0 2,-2 l 0,-7 z"
     id="path8"
     inkscape:connector-curvature="0"
     style="fill:#ffffff" />
  <path
     d="m 6,22 c 0,0 -1,0 -1,-1 0,-1 1,-1 1,-1 0,0 2,0 2,2 l 0,8 6,0 0,-8 c 0,-2 2,-2 2,-2 0,0 1,0 1,1 0,1 -1,1 -1,1 l 0,8 c 0,0 0,2 -2,2 l -6,0 c 0,0 -2,0 -2,-2 l 0,-8 z"
     id="path10"
     inkscape:connector-curvature="0"
     style="fill:#ffffff" />
  <circle
     cx="11"
     cy="20"
     r="2"
     id="circle12"
     style="fill:#ffffff" />
</svg>
