<?xml version="1.0" encoding="UTF-8" standalone="no"?>
<svg
   xmlns:dc="http://purl.org/dc/elements/1.1/"
   xmlns:cc="http://creativecommons.org/ns#"
   xmlns:rdf="http://www.w3.org/1999/02/22-rdf-syntax-ns#"
   xmlns:svg="http://www.w3.org/2000/svg"
   xmlns="http://www.w3.org/2000/svg"
   xmlns:sodipodi="http://sodipodi.sourceforge.net/DTD/sodipodi-0.dtd"
   xmlns:inkscape="http://www.inkscape.org/namespaces/inkscape"
   viewBox="0 0 17.299683 35.255417"
   id="svg2"
   version="1.1"
   inkscape:version="0.91 r13725"
   sodipodi:docname="1f6b6-1f3ff-200d-2640-fe0f.svg"
   width="17.299683"
   height="35.255417">
  <metadata
     id="metadata28">
    <rdf:RDF>
      <cc:Work
         rdf:about="">
        <dc:format>image/svg+xml</dc:format>
        <dc:type
           rdf:resource="http://purl.org/dc/dcmitype/StillImage" />
      </cc:Work>
    </rdf:RDF>
  </metadata>
  <defs
     id="defs26" />
  <sodipodi:namedview
     pagecolor="#ffffff"
     bordercolor="#666666"
     borderopacity="1"
     objecttolerance="10"
     gridtolerance="10"
     guidetolerance="10"
     inkscape:pageopacity="0"
     inkscape:pageshadow="2"
     inkscape:window-width="640"
     inkscape:window-height="480"
     id="namedview24"
     showgrid="false"
     inkscape:zoom="6.5555556"
     inkscape:cx="6.2886967"
     inkscape:cy="17.987765"
     inkscape:window-x="0"
     inkscape:window-y="0"
     inkscape:window-maximized="0"
     inkscape:current-layer="svg2" />
  <path
     d="m 6.2996967,34.24265 -0.052,0.016 c 0.018,-0.068 0.042,-0.19 0.042,-0.383 0,-0.303 -0.156,-0.869 -0.199,-0.95 -0.043,-0.081 -0.09,-0.139 -0.194,-0.11 -0.079,0.022 -0.685,0.326 -1.072,0.341 -0.719,0.027 -1.066,-0.618 -1.066,-0.618 0,0 -0.399,0.228 -0.716,0.413 -0.318,0.185 -0.687,0.462 -0.959,0.627 -0.232,0.141 -0.497,0.208 -0.771,0.243 -0.274,0.035 -0.49699997,0.023 -0.56299997,0.029 -0.066,0.006 -0.621,-0.061 -0.641,0.488 l 0.003,0.127 -0.054,-0.026 c 0,0 -0.048,0.17 -0.052,0.202 -0.004,0.033 -0.024,0.052 0.046,0.096 0.07,0.044 0.378,0.176 0.77,0.274 0.39199997,0.098 1.02799997,0.243 1.51899997,0.243 0.491,0 0.909,-0.098 1.151,-0.156 0.243,-0.058 0.763,-0.169 0.813,-0.146 0.05,0.023 0.116,0.191 0.173,0.243 0.058,0.052 1.61,-0.081 1.721,-0.104 0.112,-0.023 0.146,-0.119 0.146,-0.162 l 0,-0.649 c 0.002,-0.027 -0.021,-0.045 -0.045,-0.038 z m 10.9470003,-3.752 -0.504,-0.429 c -0.019,-0.016 -0.048,-0.011 -0.059,0.012 l -0.022,0.051 c -0.041,-0.059 -0.12,-0.158 -0.269,-0.285 -0.235,-0.2 -0.777,-0.454 -0.868,-0.473 -0.091,-0.02 -0.167,-0.022 -0.213,0.077 -0.035,0.076 -0.199,0.746 -0.444,1.056 -0.454,0.575 -1.184,0.418 -1.184,0.418 l -0.153,0.828 c -0.067,0.368 -0.096,0.838 -0.148,1.158 -0.044,0.273 -0.167,0.523 -0.322,0.758 -0.154,0.236 -0.31,0.4 -0.35,0.456 -0.039,0.055 -0.457,0.441 -0.045,0.82 l 0.101,0.081 -0.055,0.025 c 0,0 0.1,0.149 0.122,0.174 0.022,0.025 0.025,0.053 0.104,0.028 0.079,-0.025 0.386,-0.177 0.721,-0.416 0.336,-0.24 0.868,-0.637 1.192,-1.018 0.325,-0.381 0.524,-0.77 0.64,-0.996 0.116,-0.226 0.373,-0.703 0.424,-0.727 0.051,-0.024 0.224,0.036 0.303,0.026 0.078,-0.01 1.001,-1.302 1.057,-1.403 0.056,-0.101 0.005,-0.193 -0.028,-0.221 z"
     id="path4"
     inkscape:connector-curvature="0"
     style="fill:#292f33" />
  <path
     d="m 7.5886967,11.51065 c 0.927,0.96 3.0620003,2.89 3.1090003,3.121 0.251,1.223 0.614,2.606 0.52,3.454 -0.068,0.615 0.376,1.298 0.551,1.583 0.218,0.354 0.781,0.898 1.141,0.86 0.224,-0.023 0.567,-0.43 0.384,-0.636 -0.357,-0.4 -0.298,-1.009 -0.522,-1.559 -0.449,-1.105 -0.045,-3.194 -0.661,-4.563 -0.256,-0.567 -0.733,-1.693 -2.8240003,-3.626 -0.511,0.462 -1.698,1.366 -1.698,1.366 z"
     id="path6"
     inkscape:connector-curvature="0"
     style="fill:#664131" />
  <path
     d="m 7.2936967,0.65165002 c -1.593,-0.627 -4.077,0.182 -4.365,2.04299998 -0.287,1.848 0.239,4.747 1.863,4.572 1.702,-0.184 3.448,-0.554 4.138,-2.307 0.69,-1.753 -0.043,-3.681 -1.636,-4.30799998 z"
     id="path8"
     inkscape:connector-curvature="0"
     style="fill:#7c533e" />
  <path
     d="m 8.4776967,5.41065 c 2.3180003,-2.723 -3.266,-2.458 -3.266,-2.458 -1.057,0.038 -0.329,1.799 -0.827,2.761 -0.341,0.665 1.095,1.018 1.095,1.018 0,0 0.659,-0.01 0.694,0.79 l 0,0.007 c 0.008,0.204 -0.013,0.445 -0.108,0.769 -0.473,1.601 1.677,2.582 2.149,0.978 0.187,-0.635 0.114,-1.193 0.02,-1.708 l -0.009,-0.046 c -0.144,-0.766 -0.322,-1.437 0.252,-2.111 z"
     id="path10"
     inkscape:connector-curvature="0"
     style="fill:#7c533e" />
  <path
     d="m 9.1136967,1.29365 c -1.061,-1.24199998 -2.52,-1.75699998 -5.019,-0.79099998 -2.183,0.84399998 -1.481,2.57899998 -0.972,2.28199998 1.402,-0.817 2.332,-0.119 3.046,1.021 0.208,-0.56 1.122,-0.904 1.307,-0.085 0.208,0.921 -0.647,1.322 -0.533,1.573 0.038,0.084 -0.043,-0.076 0,0 0.547,0.96 1.437,1.262 1.437,1.262 0,0 0.337,0.132 0.912,-1.001 0.575,-1.133 0.8760003,-3.028 -0.178,-4.261 z"
     id="path12"
     inkscape:connector-curvature="0"
     style="fill:#0b0200" />
  <path
     d="m 8.5396967,2.59965 c 2.1630003,0.467 1.275,3.839 1.4870003,5.08 0.261,1.528 1.761,1.582 1.761,1.582 0,0 -0.247,-1.064 -0.116,-2.177 0.183,-1.543 1.189,-2.789 0.127,-4.296 -1.355,-1.92399998 -4.6040003,-0.479 -3.2590003,-0.189 z"
     id="path14"
     inkscape:connector-curvature="0"
     style="fill:#0b0200" />
  <path
     d="m 4.3506967,33.47065 c -1.266,0.109 -1.853,-0.233 -1.721,-0.416 0.165,-0.228 0.128,-0.397 0.13,-0.536 0.028,-2.441 -0.471,-5.991 -0.471,-5.991 0,-0.348 0.003,-0.813 0.312,-1.562 0.778,-1.883 3.951,-7.69 3.951,-7.69 0.548,-0.958 1.771,-1.293 2.729,-0.744 0.9590003,0.548 1.1220003,1.405 0.7440003,2.729 -0.7150003,2.508 -2.9650003,5.602 -3.9030003,7.477 0.224,2.121 -0.174,3.853 0.035,5.857 0.03,0.288 -0.54,0.767 -1.806,0.876 z"
     id="path16"
     inkscape:connector-curvature="0"
     style="fill:#2a6797" />
  <path
     d="m 15.085697,31.19865 c -0.364,0.553 -0.97,0.942 -1.598,0.838 -1.269,-1.924 -4.9550003,-5.321 -4.9550003,-5.321 -0.241,-0.25 -0.562,-0.587 -0.86,-1.341 -0.748,-1.895 -2.498,-8.277 -2.498,-8.277 -0.272,-1.07 0.376,-2.16 1.446,-2.43 1.07,-0.272 1.783,0.232 2.43,1.446 1.2270003,2.301 1.7570003,6.09 2.3840003,8.09 1.87,1.568 2.383,3.603 4.275,5.151 -0.065,0.857 -0.26,1.291 -0.624,1.844 z"
     id="path18"
     inkscape:connector-curvature="0"
     style="fill:#4289c1" />
  <path
     d="m 11.288697,19.26765 c 0,0 0,1 -2.0000003,1 l -4.898,0 c -0.415,-2 0.554,-3.818 -0.102,-6.5 -0.848,-3.46 2.406,-6.874 3.818,-6.42 1.846,0.594 2.6930003,2.641 2.9320003,5.858 0.239,3.217 0.25,6.062 0.25,6.062 z"
     id="path20"
     inkscape:connector-curvature="0"
     style="fill:#9268ca" />
  <path
     d="m 6.0386967,11.05965 c -0.167,1.399 -0.322,4.433 -0.479,4.625 -0.833,1.021 -1.722,2.24 -2.479,2.729 -0.549,0.354 -0.811,1.174 -0.927,1.507 -0.144,0.414 -0.213,1.238 0.057,1.507 0.169,0.168 0.73,0.177 0.776,-0.11 0.09,-0.559 0.626,-0.917 0.927,-1.467 0.604,-1.104 2.583,-2.167 3.292,-3.584 0.294,-0.588 0.896,-1.729 1.083,-4.729 -0.72,-0.11 -2.25,-0.478 -2.25,-0.478 z"
     id="path22"
     inkscape:connector-curvature="0"
     style="fill:#7c533e" />
</svg>
