<?xml version="1.0" encoding="UTF-8" standalone="no"?>
<svg
   xmlns:dc="http://purl.org/dc/elements/1.1/"
   xmlns:cc="http://creativecommons.org/ns#"
   xmlns:rdf="http://www.w3.org/1999/02/22-rdf-syntax-ns#"
   xmlns:svg="http://www.w3.org/2000/svg"
   xmlns="http://www.w3.org/2000/svg"
   xmlns:sodipodi="http://sodipodi.sourceforge.net/DTD/sodipodi-0.dtd"
   xmlns:inkscape="http://www.inkscape.org/namespaces/inkscape"
   viewBox="0 0 35.512749 35.512749"
   id="svg2"
   version="1.1"
   inkscape:version="0.91 r13725"
   sodipodi:docname="1f6b8.svg"
   width="35.512749"
   height="35.512749">
  <metadata
     id="metadata16">
    <rdf:RDF>
      <cc:Work
         rdf:about="">
        <dc:format>image/svg+xml</dc:format>
        <dc:type
           rdf:resource="http://purl.org/dc/dcmitype/StillImage" />
      </cc:Work>
    </rdf:RDF>
  </metadata>
  <defs
     id="defs14" />
  <sodipodi:namedview
     pagecolor="#ffffff"
     bordercolor="#666666"
     borderopacity="1"
     objecttolerance="10"
     gridtolerance="10"
     guidetolerance="10"
     inkscape:pageopacity="0"
     inkscape:pageshadow="2"
     inkscape:window-width="640"
     inkscape:window-height="480"
     id="namedview12"
     showgrid="false"
     inkscape:zoom="6.5555556"
     inkscape:cx="17.75675"
     inkscape:cy="17.756"
     inkscape:window-x="0"
     inkscape:window-y="0"
     inkscape:window-maximized="0"
     inkscape:current-layer="svg2" />
  <path
     d="m 20.52475,34.36675 c -1.528,1.528 -4.007,1.528 -5.536,0 l -13.842,-13.842 c -1.529,-1.528 -1.529,-4.007 0,-5.536 l 13.841,-13.842 c 1.529,-1.529 4.008,-1.529 5.536,0 l 13.843,13.842 c 1.528,1.529 1.528,4.007 0,5.536 l -13.842,13.842 z"
     id="path4"
     inkscape:connector-curvature="0"
     style="fill:#ffcc4d" />
  <path
     d="m 19.24675,32.66375 c -0.823,0.822 -2.158,0.822 -2.98,0 l -13.416,-13.417 c -0.824,-0.823 -0.824,-2.158 0,-2.98 l 13.416,-13.416 c 0.823,-0.824 2.158,-0.824 2.98,0 l 13.417,13.416 c 0.822,0.823 0.822,2.158 0,2.98 l -13.417,13.417 z"
     id="path6"
     inkscape:connector-curvature="0" />
  <path
     d="m 18.50175,30.42675 c -0.412,0.413 -1.079,0.413 -1.49,0 l -11.926,-11.925 c -0.411,-0.412 -0.412,-1.079 0,-1.49 l 11.926,-11.926 c 0.412,-0.411 1.079,-0.411 1.49,0 l 11.925,11.926 c 0.413,0.412 0.412,1.079 0,1.49 l -11.925,11.925 z"
     id="path8"
     inkscape:connector-curvature="0"
     style="fill:#ffcc4d" />
  <path
     d="m 26.46375,17.04875 -3.618,-3.619 c 0.548,-0.356 0.911,-0.971 0.911,-1.673 0,-1.104 -0.896,-2 -2,-2 -1.104,0 -2,0.895 -2,2 0,0.703 0.363,1.318 0.911,1.674 l -3.218,3.219 -2.217,-0.555 c 0.323,-0.355 0.524,-0.821 0.524,-1.338 0,-1.104 -0.896,-2 -2,-2 -1.104,0 -2,0.896 -2,2 0,0.669 0.332,1.259 0.837,1.622 l -3.438,2.578 c -0.442,0.331 -0.531,0.958 -0.2,1.399 0.197,0.263 0.497,0.401 0.801,0.401 0.208,0 0.419,-0.065 0.599,-0.2 l 1.735,-1.302 -1.395,4.186 c -0.175,0.524 0.108,1.091 0.632,1.265 0.106,0.034 0.213,0.051 0.318,0.051 0.419,0 0.809,-0.265 0.949,-0.684 l 1.077,-3.231 1.142,3.246 c 0.183,0.521 0.753,0.798 1.275,0.611 0.521,-0.184 0.795,-0.754 0.611,-1.275 l -1.891,-5.374 2.705,0.677 c 0.341,0.086 0.701,-0.014 0.95,-0.263 l 1.858,-1.857 -1.541,6.934 c -0.12,0.539 0.221,1.073 0.76,1.193 0.541,0.116 1.074,-0.221 1.193,-0.76 l 1.023,-4.608 1.023,4.607 c 0.104,0.467 0.518,0.784 0.976,0.784 0.072,0 0.145,-0.008 0.218,-0.023 0.539,-0.12 0.879,-0.654 0.76,-1.193 l -1.541,-6.934 1.858,1.857 c 0.391,0.391 1.023,0.391 1.414,0 0.39,-0.391 0.39,-1.024 -10e-4,-1.415 z"
     id="path10"
     inkscape:connector-curvature="0" />
</svg>
