<?xml version="1.0" encoding="UTF-8" standalone="no"?>
<svg
   xmlns:dc="http://purl.org/dc/elements/1.1/"
   xmlns:cc="http://creativecommons.org/ns#"
   xmlns:rdf="http://www.w3.org/1999/02/22-rdf-syntax-ns#"
   xmlns:svg="http://www.w3.org/2000/svg"
   xmlns="http://www.w3.org/2000/svg"
   xmlns:sodipodi="http://sodipodi.sourceforge.net/DTD/sodipodi-0.dtd"
   xmlns:inkscape="http://www.inkscape.org/namespaces/inkscape"
   viewBox="0 0 36 36"
   id="svg2"
   version="1.1"
   inkscape:version="0.91 r13725"
   sodipodi:docname="1f6bc.svg"
   width="36"
   height="36">
  <metadata
     id="metadata12">
    <rdf:RDF>
      <cc:Work
         rdf:about="">
        <dc:format>image/svg+xml</dc:format>
        <dc:type
           rdf:resource="http://purl.org/dc/dcmitype/StillImage" />
      </cc:Work>
    </rdf:RDF>
  </metadata>
  <defs
     id="defs10" />
  <sodipodi:namedview
     pagecolor="#ffffff"
     bordercolor="#666666"
     borderopacity="1"
     objecttolerance="10"
     gridtolerance="10"
     guidetolerance="10"
     inkscape:pageopacity="0"
     inkscape:pageshadow="2"
     inkscape:window-width="640"
     inkscape:window-height="480"
     id="namedview8"
     showgrid="false"
     inkscape:zoom="6.5555556"
     inkscape:cx="18"
     inkscape:cy="18"
     inkscape:window-x="0"
     inkscape:window-y="0"
     inkscape:window-maximized="0"
     inkscape:current-layer="svg2" />
  <path
     d="m 36,32 c 0,2.209 -1.791,4 -4,4 L 4,36 C 1.791,36 0,34.209 0,32 L 0,4 C 0,1.791 1.791,0 4,0 l 28,0 c 2.209,0 4,1.791 4,4 l 0,28 z"
     id="path4"
     inkscape:connector-curvature="0"
     style="fill:#f4900c" />
  <path
     d="m 14.431,24.691 c -1.513,-0.06 -3.773,0.47 -5.538,2.686 -0.534,-0.294 -1.203,-0.316 -1.779,-0.004 -0.898,0.489 -1.229,1.613 -0.74,2.512 0.428,0.785 1.31,1.645 2.504,1.697 0.039,0.002 0.079,0.003 0.119,0.003 0.713,0 1.696,-0.287 2.543,-1.559 1.214,-1.821 2.748,-1.651 2.945,-1.622 0.516,0.1 1.022,-0.032 1.42,-0.318 -0.557,-0.954 -0.344,-2.44 -1.474,-3.395 z m 14.287,2.672 c -0.581,-0.315 -1.255,-0.293 -1.79,0.005 -1.698,-2.128 -3.849,-2.691 -5.357,-2.678 -1.155,0.975 -0.911,2.499 -1.514,3.451 0.373,0.229 0.822,0.336 1.281,0.265 0.173,-0.028 1.724,-0.218 2.949,1.621 0.848,1.271 1.831,1.559 2.544,1.559 0.041,0 0.08,-10e-4 0.119,-0.003 1.193,-0.053 2.076,-0.912 2.504,-1.697 0.489,-0.899 0.162,-2.033 -0.736,-2.523 z M 28.06,18.94 C 27.552,18.432 26.769,18.364 26.188,18.739 26.048,18.702 25.672,18.552 25.06,17.94 23.029,15.909 20.964,15.081 19.594,14.741 20.942,14.291 22.049,13.286 22.68,11.983 23.423,11.892 24,11.267 24,10.5 24,9.94 23.69,9.458 23.235,9.2 23.086,6.303 20.803,4 18,4 15.197,4 12.914,6.303 12.765,9.2 12.31,9.458 12,9.94 12,10.5 c 0,0.767 0.577,1.392 1.319,1.482 0.631,1.303 1.739,2.308 3.087,2.758 -1.371,0.34 -3.436,1.168 -5.466,3.199 -0.612,0.612 -0.988,0.762 -1.127,0.799 C 9.23,18.364 8.448,18.43 7.939,18.94 c -0.586,0.586 -0.586,1.535 0,2.121 0.047,0.048 0.712,0.691 1.83,0.691 0.856,0 1.978,-0.378 3.291,-1.691 0.408,-0.408 0.809,-0.731 1.202,-1.019 -0.12,0.494 -0.186,0.988 -0.186,1.453 C 14.077,22.917 15.833,23 18,23 c 2.166,0 3.923,-0.083 3.923,-2.506 0,-0.465 -0.065,-0.959 -0.186,-1.453 0.394,0.288 0.794,0.611 1.202,1.019 1.312,1.314 2.434,1.691 3.291,1.691 1.117,0 1.782,-0.643 1.83,-0.691 0.586,-0.585 0.586,-1.535 0,-2.12 z"
     id="path6"
     inkscape:connector-curvature="0"
     style="fill:#ffffff" />
</svg>
