<?xml version="1.0" encoding="UTF-8" standalone="no"?>
<svg
   xmlns:dc="http://purl.org/dc/elements/1.1/"
   xmlns:cc="http://creativecommons.org/ns#"
   xmlns:rdf="http://www.w3.org/1999/02/22-rdf-syntax-ns#"
   xmlns:svg="http://www.w3.org/2000/svg"
   xmlns="http://www.w3.org/2000/svg"
   xmlns:sodipodi="http://sodipodi.sourceforge.net/DTD/sodipodi-0.dtd"
   xmlns:inkscape="http://www.inkscape.org/namespaces/inkscape"
   viewBox="0 0 36 36"
   id="svg2"
   version="1.1"
   inkscape:version="0.91 r13725"
   sodipodi:docname="1f6be.svg"
   width="36"
   height="36">
  <metadata
     id="metadata12">
    <rdf:RDF>
      <cc:Work
         rdf:about="">
        <dc:format>image/svg+xml</dc:format>
        <dc:type
           rdf:resource="http://purl.org/dc/dcmitype/StillImage" />
      </cc:Work>
    </rdf:RDF>
  </metadata>
  <defs
     id="defs10" />
  <sodipodi:namedview
     pagecolor="#ffffff"
     bordercolor="#666666"
     borderopacity="1"
     objecttolerance="10"
     gridtolerance="10"
     guidetolerance="10"
     inkscape:pageopacity="0"
     inkscape:pageshadow="2"
     inkscape:window-width="640"
     inkscape:window-height="480"
     id="namedview8"
     showgrid="false"
     inkscape:zoom="6.5555556"
     inkscape:cx="18"
     inkscape:cy="18"
     inkscape:window-x="0"
     inkscape:window-y="0"
     inkscape:window-maximized="0"
     inkscape:current-layer="svg2" />
  <path
     d="m 36,32 c 0,2.209 -1.791,4 -4,4 L 4,36 C 1.791,36 0,34.209 0,32 L 0,4 C 0,1.791 1.791,0 4,0 l 28,0 c 2.209,0 4,1.791 4,4 l 0,28 z"
     id="path4"
     inkscape:connector-curvature="0"
     style="fill:#226699" />
  <path
     d="m 1.695,13.402 c -0.066,-0.286 -0.088,-0.44 -0.088,-0.748 0,-0.704 0.594,-1.452 1.562,-1.452 1.057,0 1.562,0.616 1.761,1.584 l 1.87,9.352 0.044,0 2.86,-9.638 c 0.242,-0.792 0.902,-1.298 1.716,-1.298 0.814,0 1.475,0.506 1.717,1.298 l 2.86,9.638 0.044,0 1.87,-9.352 c 0.198,-0.968 0.704,-1.584 1.76,-1.584 0.969,0 1.562,0.748 1.562,1.452 0,0.308 -0.021,0.462 -0.088,0.748 l -2.794,12.014 c -0.221,0.924 -0.946,1.716 -2.179,1.716 -1.078,0 -1.914,-0.704 -2.178,-1.606 l -2.553,-8.493 -0.044,0 -2.553,8.493 c -0.264,0.902 -1.1,1.606 -2.178,1.606 -1.232,0 -1.959,-0.792 -2.179,-1.716 L 1.695,13.402 Z M 29.349,11.07 c 1.608,0 4.731,0.528 4.731,2.464 0,0.792 -0.549,1.474 -1.363,1.474 -0.902,0 -1.518,-0.77 -3.367,-0.77 -2.729,0 -4.136,2.31 -4.136,4.994 0,2.619 1.431,4.863 4.136,4.863 1.85,0 2.598,-0.924 3.5,-0.924 0.99,0 1.451,0.989 1.451,1.496 0,2.112 -3.322,2.596 -4.951,2.596 -4.466,0 -7.568,-3.542 -7.568,-8.097 C 21.78,14.59 24.86,11.07 29.349,11.07 Z"
     id="path6"
     inkscape:connector-curvature="0"
     style="fill:#ffffff" />
</svg>
