<?xml version="1.0" encoding="UTF-8" standalone="no"?>
<svg
   xmlns:dc="http://purl.org/dc/elements/1.1/"
   xmlns:cc="http://creativecommons.org/ns#"
   xmlns:rdf="http://www.w3.org/1999/02/22-rdf-syntax-ns#"
   xmlns:svg="http://www.w3.org/2000/svg"
   xmlns="http://www.w3.org/2000/svg"
   xmlns:sodipodi="http://sodipodi.sourceforge.net/DTD/sodipodi-0.dtd"
   xmlns:inkscape="http://www.inkscape.org/namespaces/inkscape"
   viewBox="0 0 32 36"
   id="svg2"
   version="1.1"
   inkscape:version="0.91 r13725"
   sodipodi:docname="1f6bd.svg"
   width="32"
   height="36">
  <metadata
     id="metadata22">
    <rdf:RDF>
      <cc:Work
         rdf:about="">
        <dc:format>image/svg+xml</dc:format>
        <dc:type
           rdf:resource="http://purl.org/dc/dcmitype/StillImage" />
      </cc:Work>
    </rdf:RDF>
  </metadata>
  <defs
     id="defs20" />
  <sodipodi:namedview
     pagecolor="#ffffff"
     bordercolor="#666666"
     borderopacity="1"
     objecttolerance="10"
     gridtolerance="10"
     guidetolerance="10"
     inkscape:pageopacity="0"
     inkscape:pageshadow="2"
     inkscape:window-width="640"
     inkscape:window-height="480"
     id="namedview18"
     showgrid="false"
     inkscape:zoom="6.5555556"
     inkscape:cx="16"
     inkscape:cy="18"
     inkscape:window-x="0"
     inkscape:window-y="0"
     inkscape:window-maximized="0"
     inkscape:current-layer="svg2" />
  <path
     d="m 24,18 0,2 -12.707,0 c -0.867,0 -1.835,0.896 -2.161,2 L 5.59,34 C 5.264,35.104 5.896,36 7,36 l 18,0 c 1.104,0 2,-0.896 2,-2 l 0,-10 c 0,-1.861 1.278,-3.412 3,-3.858 L 30,18 24,18 Z"
     id="path4"
     inkscape:connector-curvature="0"
     style="fill:#aab8c2" />
  <path
     d="M 20,21.875 C 20,25.396 15.522,29 10,29 4.477,29 0,25.396 0,21.875 0,20 0.833,20 10,20 c 9.166,0 10,0 10,1.875 z M 23,19 c 0,0.553 -0.514,1 -1.15,1 L 1.15,20 C 0.515,20 0,19.553 0,19 0,18.447 0.515,18 1.15,18 l 20.7,0 c 0.636,0 1.15,0.447 1.15,1 z"
     id="path6"
     inkscape:connector-curvature="0"
     style="fill:#e1e8ed" />
  <path
     d="M 16,16 4,16 c -1.104,0 -2,0.896 -2,2 l 16,0 c 0,-1.104 -0.896,-2 -2,-2 z m 2,-16 0,18 c 1.104,0 2,-1.007 2,-2.25 L 20,2.25 C 20,1.007 19.104,0 18,0 Z"
     id="path8"
     inkscape:connector-curvature="0"
     style="fill:#99aab5" />
  <path
     d="M 32,4 C 32,2.896 31.104,2 30,2 l -8,0 c -1.104,0 -2,0.896 -2,2 l 0,14 c 0,1.104 0.896,2 2,2 l 8,0 c 1.104,0 2,-0.896 2,-2 L 32,4 Z"
     id="path10"
     inkscape:connector-curvature="0"
     style="fill:#e1e8ed" />
  <circle
     cx="18"
     cy="16"
     r="2"
     id="circle12"
     style="fill:#ccd6dd" />
  <path
     d="M 20,4 32,4 32,6 20,6 Z"
     id="path14"
     inkscape:connector-curvature="0"
     style="fill:#ccd6dd" />
  <path
     d="m 23,21 c 0,0.553 -0.447,1 -1,1 L 1,22 C 0.448,22 0,21.553 0,21 0,20.447 0.448,20 1,20 l 21,0 c 0.553,0 1,0.447 1,1 z"
     id="path16"
     inkscape:connector-curvature="0"
     style="fill:#aab8c2" />
</svg>
