<?xml version="1.0" encoding="UTF-8" standalone="no"?>
<svg
   xmlns:dc="http://purl.org/dc/elements/1.1/"
   xmlns:cc="http://creativecommons.org/ns#"
   xmlns:rdf="http://www.w3.org/1999/02/22-rdf-syntax-ns#"
   xmlns:svg="http://www.w3.org/2000/svg"
   xmlns="http://www.w3.org/2000/svg"
   xmlns:sodipodi="http://sodipodi.sourceforge.net/DTD/sodipodi-0.dtd"
   xmlns:inkscape="http://www.inkscape.org/namespaces/inkscape"
   viewBox="0 0 36 35"
   id="svg2"
   version="1.1"
   inkscape:version="0.91 r13725"
   sodipodi:docname="1f6b5-1f3fb-200d-2640-fe0f.svg"
   width="36"
   height="35">
  <metadata
     id="metadata42">
    <rdf:RDF>
      <cc:Work
         rdf:about="">
        <dc:format>image/svg+xml</dc:format>
        <dc:type
           rdf:resource="http://purl.org/dc/dcmitype/StillImage" />
      </cc:Work>
    </rdf:RDF>
  </metadata>
  <defs
     id="defs40" />
  <sodipodi:namedview
     pagecolor="#ffffff"
     bordercolor="#666666"
     borderopacity="1"
     objecttolerance="10"
     gridtolerance="10"
     guidetolerance="10"
     inkscape:pageopacity="0"
     inkscape:pageshadow="2"
     inkscape:window-width="640"
     inkscape:window-height="480"
     id="namedview38"
     showgrid="false"
     inkscape:zoom="6.5555556"
     inkscape:cx="18"
     inkscape:cy="18"
     inkscape:window-x="0"
     inkscape:window-y="0"
     inkscape:window-maximized="0"
     inkscape:current-layer="svg2" />
  <path
     d="m 0,35 36,0 0,-25 c 0,0 -6.001,-10 -9.001,-10 -3,0 -10,9 -12,11 -2,2 -4.5,0.5 -6,-1 C 7.5,8.5 6,7 5,7 4,7 0,14 0,14 l 0,21 z"
     id="path4"
     inkscape:connector-curvature="0"
     style="fill:#77b255" />
  <path
     d="M 12.375,5.333 C 11.375,6.333 13,6 14,8 c 1,2 4,1 3,-1 -0.211,-0.423 -1.044,-1.096 -1.731,-1.604 0,0 0.586,-0.687 0.273,-1.416 -0.313,-0.729 -3.167,1.353 -3.167,1.353 z"
     id="path6"
     inkscape:connector-curvature="0"
     style="fill:#f7dece" />
  <path
     d="m 11.978,1.296 c -1.54,0.04 -2.756,1.32 -2.717,2.86 0.04,1.54 1.32,2.756 2.86,2.717 1.54,-0.04 2.756,-1.32 2.717,-2.86 -0.039,-1.541 -1.32,-2.757 -2.86,-2.717 z"
     id="path8"
     inkscape:connector-curvature="0"
     style="fill:#f7dece" />
  <path
     d="M 19.953,2.854 C 19.098,3.091 18.062,3.416 16.492,2.271 15.371,1.453 14.325,1.181 12.123,1.663 9.785,2.175 8.142,3.897 9.803,4.372 10.528,4.579 11.05,4.302 12.144,4.188 13.749,4.021 14.401,5.377 15.958,5.376 19.004,5.372 21.229,2.5 19.953,2.854 Z"
     id="path10"
     inkscape:connector-curvature="0"
     style="fill:#292f33" />
  <path
     d="m 19,15 c 0,0 -3,2 -3,3 0,1 4,4 5,5 1,1 3,1 2,-1 -1,-2 -4,-7 -4,-7 z"
     id="path12"
     inkscape:connector-curvature="0"
     style="fill:#eec2ad" />
  <path
     d="m 20.634,22.021 c 0,0 1.173,0.789 1.962,-0.385 0.789,-1.174 1.365,1.771 1.365,1.771 0,0 -2.559,2.539 -4.521,2.924 -1.962,0.385 -1.173,-0.789 -0.385,-1.962 l 1.579,-2.348 z"
     id="path14"
     inkscape:connector-curvature="0"
     style="fill:#a0041e" />
  <path
     d="m 7,21 c -3.866,0 -7,3.134 -7,7 0,3.866 3.134,7 7,7 3.866,0 7,-3.134 7,-7 0,-3.866 -3.133,-7 -7,-7 z m 0,12 c -2.761,0 -5,-2.238 -5,-5 0,-2.762 2.239,-5 5,-5 2.761,0 5,2.238 5,5 0,2.762 -2.238,5 -5,5 z M 29,21 c -3.865,0 -7,3.134 -7,7 0,3.866 3.135,7 7,7 3.867,0 7,-3.134 7,-7 0,-3.866 -3.133,-7 -7,-7 z m 0,12 c -2.761,0 -5,-2.238 -5,-5 0,-2.762 2.239,-5 5,-5 2.762,0 5,2.238 5,5 0,2.762 -2.238,5 -5,5 z"
     id="path16"
     inkscape:connector-curvature="0"
     style="fill:#292f33" />
  <g
     id="g18"
     style="fill:#e1e8ed"
     transform="translate(0,-1)">
    <path
       d="m 22,20 c 0,-0.553 -0.484,-1 -1.083,-1 L 10.083,19 C 9.485,19 9,19.447 9,20 c 0,0.553 0.485,1 1.083,1 l 10.833,0 C 21.516,21 22,20.553 22,20 Z m 8,9 c 0,-0.553 -0.447,-1 -1,-1 l -11,0 c -0.552,0 -1,0.447 -1,1 0,0.553 0.448,1 1,1 l 11,0 c 0.553,0 1,-0.447 1,-1 z"
       id="path20"
       inkscape:connector-curvature="0" />
    <path
       d="m 21.224,17 -4.166,11.664 c -0.185,0.519 0.086,1.092 0.606,1.277 C 17.775,29.981 17.888,30 18,30 c 0.411,0 0.796,-0.255 0.942,-0.664 L 23.348,17 21.224,17 Z"
       id="path22"
       inkscape:connector-curvature="0" />
    <path
       d="m 29.001,30 c -0.33,0 -0.654,-0.164 -0.845,-0.463 l -7,-11 c -0.297,-0.466 -0.159,-1.084 0.307,-1.381 0.467,-0.297 1.084,-0.159 1.381,0.307 l 7,11 c 0.297,0.466 0.159,1.084 -0.307,1.381 C 29.37,29.949 29.185,30 29.001,30 Z M 19,25.734 10.613,19.21 C 10.178,18.87 9.55,18.95 9.21,19.386 8.871,19.823 8.95,20.45 9.386,20.789 l 9,7 C 18.568,27.932 18.784,28 18.999,28 L 19,28 19,25.734 Z"
       id="path24"
       inkscape:connector-curvature="0" />
    <path
       d="M 7,30 C 6.896,30 6.789,29.983 6.684,29.948 6.16,29.774 5.877,29.208 6.052,28.683 L 8.824,20.367 5.401,17.799 c -0.442,-0.331 -0.531,-0.958 -0.2,-1.4 0.331,-0.44 0.957,-0.531 1.4,-0.2 l 4.577,3.433 -3.228,9.684 C 7.809,29.735 7.418,30 7,30 Z"
       id="path26"
       inkscape:connector-curvature="0" />
  </g>
  <path
     d="m 26.383,18 c -0.03,0 -0.059,-0.002 -0.089,-0.006 l -5.672,-0.708 c -0.372,-0.046 -0.644,-0.374 -0.62,-0.748 0.023,-0.374 0.333,-0.665 0.707,-0.665 0.041,0 4.067,-0.018 5.989,-1.299 0.25,-0.167 0.582,-0.157 0.824,0.026 0.239,0.185 0.337,0.501 0.241,0.788 l -0.709,2.127 C 26.958,17.808 26.685,18 26.383,18 Z M 11,17 6,17 C 5.448,17 5,16.552 5,16 5,15.448 5.448,15 6,15 l 5,0 c 0.552,0 1,0.448 1,1 0,0.552 -0.448,1 -1,1 z"
     id="path28"
     inkscape:connector-curvature="0"
     style="fill:#292f33" />
  <path
     d="M 21.999,12 18,15 l 3,3 z"
     id="path30"
     inkscape:connector-curvature="0"
     style="fill:#a0041e" />
  <path
     d="m 19.999,16 c 0,0 -2,3 -2,4 0,1 1,4 1,7 0,3 2,3 2,2 0,-1 1.581,-5.419 0,-7 -1,-1 2,-4 2,-4 l -3,-2 z m -4.314,-3.703 -2.75,-0.784 C 12.488,13.469 9.912,15.999 9,15.999 c -1,0 -2,0 -2,1 0,1 0,1 2,1 2,0 4,-2 5,-3 0.65,-0.65 1.309,-1.757 1.685,-2.702 z"
     id="path32"
     inkscape:connector-curvature="0"
     style="fill:#f7dece" />
  <path
     d="m 21.999,12 -3,4 4,3 c 0,0 5,-5 5,-7 0,-2 -3,-3 -3,-3 l -3,3 z"
     id="path34"
     inkscape:connector-curvature="0"
     style="fill:#be1931" />
  <path
     d="m 20.999,5.999 c -3,-1 -5.585,-0.414 -7,1 -1,1 -1,2 -1,4 0,0.176 -0.03,0.362 -0.073,0.55 l 2.744,0.784 C 15.872,11.824 16,11.349 16,10.999 c 0,-1 1,-1 2,0 1,1 2,2 3,2 1,0 6,-4 6,-4 -3.001,-1 -4.103,-2.368 -6.001,-3 z M 19,28 c 0,0 1,1 2,0 1,-1 1,2 1,2 0,0 -3,2 -5,2 -2,0 -1,-1 0,-2 l 2,-2 z M 11,1 C 13,0 17,1 15,3 14,4 8,5 8,5 8,4 9,2 11,1 Z"
     id="path36"
     inkscape:connector-curvature="0"
     style="fill:#dd2e44" />
</svg>
