<?xml version="1.0" encoding="UTF-8" standalone="no"?>
<svg
   xmlns:dc="http://purl.org/dc/elements/1.1/"
   xmlns:cc="http://creativecommons.org/ns#"
   xmlns:rdf="http://www.w3.org/1999/02/22-rdf-syntax-ns#"
   xmlns:svg="http://www.w3.org/2000/svg"
   xmlns="http://www.w3.org/2000/svg"
   xmlns:sodipodi="http://sodipodi.sourceforge.net/DTD/sodipodi-0.dtd"
   xmlns:inkscape="http://www.inkscape.org/namespaces/inkscape"
   viewBox="0 0 35.999756 35.700001"
   id="svg2"
   version="1.1"
   inkscape:version="0.91 r13725"
   sodipodi:docname="1f6cb.svg"
   width="35.999756"
   height="35.700001">
  <metadata
     id="metadata28">
    <rdf:RDF>
      <cc:Work
         rdf:about="">
        <dc:format>image/svg+xml</dc:format>
        <dc:type
           rdf:resource="http://purl.org/dc/dcmitype/StillImage" />
      </cc:Work>
    </rdf:RDF>
  </metadata>
  <defs
     id="defs26" />
  <sodipodi:namedview
     pagecolor="#ffffff"
     bordercolor="#666666"
     borderopacity="1"
     objecttolerance="10"
     gridtolerance="10"
     guidetolerance="10"
     inkscape:pageopacity="0"
     inkscape:pageshadow="2"
     inkscape:window-width="640"
     inkscape:window-height="480"
     id="namedview24"
     showgrid="false"
     inkscape:zoom="6.5555556"
     inkscape:cx="18"
     inkscape:cy="17.7"
     inkscape:window-x="0"
     inkscape:window-y="0"
     inkscape:window-maximized="0"
     inkscape:current-layer="svg2" />
  <path
     d="M 31,29.5 C 31,30.328 30.328,31 29.5,31 28.672,31 28,30.328 28,29.5 l 0,-24 C 28,4.671 28.672,4 29.5,4 30.328,4 31,4.671 31,5.5 l 0,24 z"
     id="path4"
     inkscape:connector-curvature="0"
     style="fill:#ccd6dd" />
  <path
     d="m 34.882,32 c 0.037,-0.164 0.062,-0.33 0.062,-0.5 0,-1.933 -2.463,-3.5 -5.5,-3.5 -3.037,0 -5.5,1.567 -5.5,3.5 0,0.17 0.025,0.336 0.062,0.5 l 10.876,0 z"
     id="path6"
     inkscape:connector-curvature="0"
     style="fill:#ccd6dd" />
  <path
     d="m 35.944,9 c 0.334,1.125 -0.896,2 -2,2 l -9,0 c -1.104,0 -2.291,-1 -2,-2 l 2,-7 c 0.25,-1.084 0.896,-2 2,-2 l 5,0 c 1.105,0 1.75,1.125 2,2 l 2,7 z"
     id="path8"
     inkscape:connector-curvature="0"
     style="fill:#fcab40" />
  <path
     d="m 29.006,29.101 c 0,1.215 -1.017,2.199 -2.271,2.199 l -20.439,0 c -1.254,0 -2.271,-0.984 -2.271,-2.199 l 0,-9.9 c 0,-1.215 1.017,-2.2 2.271,-2.2 l 20.439,0 c 1.254,0 2.271,0.985 2.271,2.2 l 0,9.9 z"
     id="path10"
     inkscape:connector-curvature="0"
     style="fill:#5d9040" />
  <path
     d="m 27.5,31.3 c 0,1.215 -0.985,2.2 -2.2,2.2 l -18.7,0 c -1.215,0 -2.2,-0.985 -2.2,-2.2 l 0,-1.1 C 4.4,28.985 5.385,28 6.6,28 l 18.7,0 c 1.215,0 2.2,0.985 2.2,2.2 l 0,1.1 z"
     id="path12"
     inkscape:connector-curvature="0"
     style="fill:#3f7123" />
  <ellipse
     cx="16.516001"
     cy="19.125"
     rx="12.484"
     ry="6.125"
     id="ellipse14"
     style="fill:#5d9040" />
  <path
     d="m 6.6,23.601 c 0,1.822 -1.478,3.3 -3.3,3.3 -1.822,0 -3.3,-1.478 -3.3,-3.3 0,-1.824 1.478,-3.301 3.3,-3.301 1.823,0 3.3,1.477 3.3,3.301 z"
     id="path16"
     inkscape:connector-curvature="0"
     style="fill:#78b159" />
  <path
     d="m 6.6,33.5 c 0,1.215 -0.985,2.2 -2.2,2.2 -1.215,0 -2.2,-0.985 -2.2,-2.2 l 0,-9.899 c 0,-1.215 0.985,-2.2 2.2,-2.2 1.215,0 2.2,0.985 2.2,2.2 l 0,9.899 z m 19.8,-9.899 c 0,1.822 1.477,3.3 3.3,3.3 1.821,0 3.3,-1.478 3.3,-3.3 0,-1.823 -1.479,-3.301 -3.3,-3.301 -1.822,0 -3.3,1.477 -3.3,3.301 z"
     id="path18"
     inkscape:connector-curvature="0"
     style="fill:#78b159" />
  <path
     d="m 26.4,33.5 c 0,1.215 0.984,2.2 2.199,2.2 1.215,0 2.2,-0.985 2.2,-2.2 l 0,-9.899 c 0,-1.215 -0.985,-2.2 -2.2,-2.2 -1.215,0 -2.199,0.985 -2.199,2.2 l 0,9.899 z M 16.5,28 c 0,1.215 -0.985,2.2 -2.2,2.2 l -5.5,0 c -1.215,0 -2.2,-0.985 -2.2,-2.2 0,-1.215 0.985,-2.2 2.2,-2.2 l 5.5,0 c 1.215,0 2.2,0.985 2.2,2.2 z m 9.9,0 c 0,1.215 -0.985,2.2 -2.2,2.2 l -5.5,0 c -1.215,0 -2.2,-0.985 -2.2,-2.2 0,-1.215 0.985,-2.2 2.2,-2.2 l 5.5,0 c 1.215,0 2.2,0.985 2.2,2.2 z"
     id="path20"
     inkscape:connector-curvature="0"
     style="fill:#78b159" />
  <path
     d="m 6,28 21,0 0,3 -21,0 z"
     id="path22"
     inkscape:connector-curvature="0"
     style="fill:#78b159" />
</svg>
