<?xml version="1.0" encoding="UTF-8" standalone="no"?>
<svg
   xmlns:dc="http://purl.org/dc/elements/1.1/"
   xmlns:cc="http://creativecommons.org/ns#"
   xmlns:rdf="http://www.w3.org/1999/02/22-rdf-syntax-ns#"
   xmlns:svg="http://www.w3.org/2000/svg"
   xmlns="http://www.w3.org/2000/svg"
   xmlns:sodipodi="http://sodipodi.sourceforge.net/DTD/sodipodi-0.dtd"
   xmlns:inkscape="http://www.inkscape.org/namespaces/inkscape"
   viewBox="0 0 36 36"
   id="svg2"
   version="1.1"
   inkscape:version="0.91 r13725"
   sodipodi:docname="1f6c4.svg"
   width="36"
   height="36">
  <metadata
     id="metadata12">
    <rdf:RDF>
      <cc:Work
         rdf:about="">
        <dc:format>image/svg+xml</dc:format>
        <dc:type
           rdf:resource="http://purl.org/dc/dcmitype/StillImage" />
      </cc:Work>
    </rdf:RDF>
  </metadata>
  <defs
     id="defs10" />
  <sodipodi:namedview
     pagecolor="#ffffff"
     bordercolor="#666666"
     borderopacity="1"
     objecttolerance="10"
     gridtolerance="10"
     guidetolerance="10"
     inkscape:pageopacity="0"
     inkscape:pageshadow="2"
     inkscape:window-width="640"
     inkscape:window-height="480"
     id="namedview8"
     showgrid="false"
     inkscape:zoom="6.5555556"
     inkscape:cx="18"
     inkscape:cy="18"
     inkscape:window-x="0"
     inkscape:window-y="0"
     inkscape:window-maximized="0"
     inkscape:current-layer="svg2" />
  <path
     d="m 36,32 c 0,2.209 -1.791,4 -4,4 L 4,36 C 1.791,36 0,34.209 0,32 L 0,4 C 0,1.791 1.791,0 4,0 l 28,0 c 2.209,0 4,1.791 4,4 l 0,28 z"
     id="path4"
     inkscape:connector-curvature="0"
     style="fill:#226699" />
  <path
     d="m 29,8 -2,0 0,18 2,0 c 1.104,0 2,-0.896 2,-2 L 31,10 C 31,8.896 30.104,8 29,8 Z M 7,8 C 5.896,8 5,8.896 5,10 l 0,14 c 0,1.104 0.896,2 2,2 L 9,26 9,8 7,8 Z M 23,8 23,5 C 23,3.895 22.104,3 21,3 l -6,0 c -1.104,0 -2,0.895 -2,2 l 0,3 -2,0 0,18 14,0 0,-18 -2,0 z M 15,6 c 0,-0.552 0.448,-1 1,-1 l 4,0 c 0.553,0 1,0.448 1,1 l 0,2 -6,0 0,-2 z M 33,28 3,28 c -0.552,0 -1,0.447 -1,1 0,0.553 0.448,1 1,1 l 1,0 c 0,1.104 0.896,2 2,2 1.104,0 2,-0.896 2,-2 l 2,0 c 0,1.104 0.896,2 2,2 1.104,0 2,-0.896 2,-2 l 2,0 c 0,1.104 0.896,2 2,2 1.104,0 2,-0.896 2,-2 l 2,0 c 0,1.104 0.896,2 2,2 1.104,0 2,-0.896 2,-2 l 2,0 c 0,1.104 0.896,2 2,2 1.104,0 2,-0.896 2,-2 l 1,0 c 0.553,0 1,-0.447 1,-1 0,-0.553 -0.447,-1 -1,-1 z"
     id="path6"
     inkscape:connector-curvature="0"
     style="fill:#f5f8fa" />
</svg>
