<?xml version="1.0" encoding="UTF-8" standalone="no"?>
<svg
   xmlns:dc="http://purl.org/dc/elements/1.1/"
   xmlns:cc="http://creativecommons.org/ns#"
   xmlns:rdf="http://www.w3.org/1999/02/22-rdf-syntax-ns#"
   xmlns:svg="http://www.w3.org/2000/svg"
   xmlns="http://www.w3.org/2000/svg"
   xmlns:sodipodi="http://sodipodi.sourceforge.net/DTD/sodipodi-0.dtd"
   xmlns:inkscape="http://www.inkscape.org/namespaces/inkscape"
   viewBox="0 0 36 36"
   id="svg2"
   version="1.1"
   inkscape:version="0.91 r13725"
   sodipodi:docname="1f6d0.svg"
   width="36"
   height="36">
  <metadata
     id="metadata14">
    <rdf:RDF>
      <cc:Work
         rdf:about="">
        <dc:format>image/svg+xml</dc:format>
        <dc:type
           rdf:resource="http://purl.org/dc/dcmitype/StillImage" />
      </cc:Work>
    </rdf:RDF>
  </metadata>
  <defs
     id="defs12" />
  <sodipodi:namedview
     pagecolor="#ffffff"
     bordercolor="#666666"
     borderopacity="1"
     objecttolerance="10"
     gridtolerance="10"
     guidetolerance="10"
     inkscape:pageopacity="0"
     inkscape:pageshadow="2"
     inkscape:window-width="640"
     inkscape:window-height="480"
     id="namedview10"
     showgrid="false"
     inkscape:zoom="6.5555556"
     inkscape:cx="18"
     inkscape:cy="18"
     inkscape:window-x="0"
     inkscape:window-y="0"
     inkscape:window-maximized="0"
     inkscape:current-layer="svg2" />
  <path
     d="m 36,32 c 0,2.209 -1.791,4 -4,4 L 4,36 C 1.791,36 0,34.209 0,32 L 0,4 C 0,1.791 1.791,0 4,0 l 28,0 c 2.209,0 4,1.791 4,4 l 0,28 z"
     id="path4"
     inkscape:connector-curvature="0"
     style="fill:#9266cc" />
  <path
     d="m 21.52,10.704 c 0.521,1.843 -0.267,3.68 -1.764,4.103 -1.494,0.423 -3.128,-0.729 -3.649,-2.573 -0.522,-1.843 0.268,-3.68 1.762,-4.103 1.494,-0.423 3.129,0.729 3.651,2.573 z M 10.917,14.625 C 11.958,15.75 13,17 14,18 c 1,1 6.625,-2.667 7.625,-2.667 1,0 3.375,1.667 4.375,5.667 0.527,2.107 0.792,4.458 0.542,5 -0.852,1.528 -3.538,3.665 -4.542,4 l 5,0 c 1,0 2,1 2,2 0,1 -1,2 -2,2 l -11.292,0 c -2.5,0 -2.177,-2.665 -0.708,-4 2.292,-2.083 3.625,-3.25 4.625,-4.25 0,-1 -0.875,-5.042 -1.875,-5.042 0,0 -2.75,1.292 -3.75,1.292 -2,0 -3.924,-4.04 -5,-6 -0.708,-1.292 1.094,-2.264 1.917,-1.375 z"
     id="path6"
     inkscape:connector-curvature="0"
     style="fill:#ffffff" />
  <path
     d="M 30.559,8.626 18.869,1.977 C 18.296,1.727 17.951,1.643 17.72,1.661 L 17.699,1.66 17.678,1.661 C 17.441,1.643 17.129,1.727 16.677,1.977 L 4.986,8.626 C 4.341,8.994 4.115,9.814 4.482,10.46 c 0.368,0.646 1.189,0.871 1.834,0.504 l 11.456,-6.516 11.456,6.516 c 0.646,0.367 1.467,0.142 1.835,-0.504 0.367,-0.646 0.141,-1.466 -0.504,-1.834 z"
     id="path8"
     inkscape:connector-curvature="0"
     style="fill:#ffffff" />
</svg>
