<?xml version="1.0" encoding="UTF-8" standalone="no"?>
<svg
   xmlns:dc="http://purl.org/dc/elements/1.1/"
   xmlns:cc="http://creativecommons.org/ns#"
   xmlns:rdf="http://www.w3.org/1999/02/22-rdf-syntax-ns#"
   xmlns:svg="http://www.w3.org/2000/svg"
   xmlns="http://www.w3.org/2000/svg"
   xmlns:sodipodi="http://sodipodi.sourceforge.net/DTD/sodipodi-0.dtd"
   xmlns:inkscape="http://www.inkscape.org/namespaces/inkscape"
   viewBox="0 0 35.999447 34.190533"
   id="svg2"
   version="1.1"
   inkscape:version="0.91 r13725"
   sodipodi:docname="1f6e0.svg"
   width="35.999447"
   height="34.190533">
  <metadata
     id="metadata14">
    <rdf:RDF>
      <cc:Work
         rdf:about="">
        <dc:format>image/svg+xml</dc:format>
        <dc:type
           rdf:resource="http://purl.org/dc/dcmitype/StillImage" />
      </cc:Work>
    </rdf:RDF>
  </metadata>
  <defs
     id="defs12" />
  <sodipodi:namedview
     pagecolor="#ffffff"
     bordercolor="#666666"
     borderopacity="1"
     objecttolerance="10"
     gridtolerance="10"
     guidetolerance="10"
     inkscape:pageopacity="0"
     inkscape:pageshadow="2"
     inkscape:window-width="640"
     inkscape:window-height="480"
     id="namedview10"
     showgrid="false"
     inkscape:zoom="6.5555556"
     inkscape:cx="18.000444"
     inkscape:cy="16.190531"
     inkscape:window-x="0"
     inkscape:window-y="0"
     inkscape:window-maximized="0"
     inkscape:current-layer="svg2" />
  <path
     d="m 34.247444,6.324 -2.742,2.743 c 0,0 -1.829,0.914 -3.657,-0.915 -1.829,-1.828 -0.915,-3.657 -0.915,-3.657 l 2.743,-2.743 c 0.915,-0.914 -0.184,-1.752 -1.009,-1.752 -4.051,0 -7.334,3.283 -7.334,7.333 0,0.569 0.072,1.121 0.194,1.653 l -6.199,6.199 5.485,5.485 6.199,-6.198 c 0.533,0.122 1.084,0.194 1.654,0.194 4.05,0 7.333,-3.283 7.333,-7.333 0.001,-0.83 -0.838,-1.923 -1.752,-1.009 z m -19.027,9.04 -12.1889996,12.188 c -1.495,1.496 -1.495,3.921 0,5.417 1.497,1.495 3.921,1.495 5.417,0 l 12.1869996,-12.188 -5.415,-5.417 z M 5.7634444,31.838 c -0.819,0 -1.482,-0.664 -1.482,-1.482 0,-0.818 0.664,-1.483 1.482,-1.483 0.819,0 1.482,0.664 1.482,1.483 0,0.818 -0.663,1.482 -1.482,1.482 z"
     id="path4"
     inkscape:connector-curvature="0"
     style="fill:#8899a6" />
  <path
     d="m 30.830444,33.279 c 1.166,1.166 3.022,1.221 4.121,0.121 1.1,-1.1 1.045,-2.955 -0.121,-4.121 l -23.265,-23.265 c -1.167,-1.167 -3.0209996,-1.221 -4.1209996,-0.121 -1.1,1.1 -1.045,2.955 0.121,4.121 L 30.830444,33.279 Z"
     id="path6"
     inkscape:connector-curvature="0"
     style="fill:#f4900c" />
  <path
     d="m 21.444444,0.893 c 0,0 -6,-3 -11,2 l -6.9999996,7 c 0,0 -1,-1 -2,0 l -0.99999996,1 c 0,0 -1,1 0,2 l 3.99999996,4 c 0,0 1,1 2,0 l 1,-1 c 0,0 1,-1 0,-2 l -0.078,-0.078 c 0.77,-0.743 1.923,-1.5 3.0779996,-0.922 l 4,-4 c 0,0 -1,-3 1,-5 2,-2 3,-2 5,-2 2,0 1,-1 1,-1 z"
     id="path8"
     inkscape:connector-curvature="0"
     style="fill:#66757f" />
</svg>
