<?xml version="1.0" encoding="UTF-8" standalone="no"?>
<svg
   xmlns:dc="http://purl.org/dc/elements/1.1/"
   xmlns:cc="http://creativecommons.org/ns#"
   xmlns:rdf="http://www.w3.org/1999/02/22-rdf-syntax-ns#"
   xmlns:svg="http://www.w3.org/2000/svg"
   xmlns="http://www.w3.org/2000/svg"
   xmlns:sodipodi="http://sodipodi.sourceforge.net/DTD/sodipodi-0.dtd"
   xmlns:inkscape="http://www.inkscape.org/namespaces/inkscape"
   viewBox="0 0 35.836102 35.810528"
   id="svg2"
   version="1.1"
   inkscape:version="0.91 r13725"
   sodipodi:docname="1f6e9.svg"
   width="35.836102"
   height="35.810528">
  <metadata
     id="metadata36">
    <rdf:RDF>
      <cc:Work
         rdf:about="">
        <dc:format>image/svg+xml</dc:format>
        <dc:type
           rdf:resource="http://purl.org/dc/dcmitype/StillImage" />
      </cc:Work>
    </rdf:RDF>
  </metadata>
  <defs
     id="defs34" />
  <sodipodi:namedview
     pagecolor="#ffffff"
     bordercolor="#666666"
     borderopacity="1"
     objecttolerance="10"
     gridtolerance="10"
     guidetolerance="10"
     inkscape:pageopacity="0"
     inkscape:pageshadow="2"
     inkscape:window-width="640"
     inkscape:window-height="480"
     id="namedview32"
     showgrid="false"
     inkscape:zoom="6.5555556"
     inkscape:cx="17.9775"
     inkscape:cy="17.97225"
     inkscape:window-x="0"
     inkscape:window-y="0"
     inkscape:window-maximized="0"
     inkscape:current-layer="svg2" />
  <path
     d="m 25.7965,10.569277 c -0.22,0.132 -0.505,0.061 -0.637,-0.158 l -3.135,-5.201 c -0.133,-0.219 -0.062,-0.504 0.157,-0.636 l 0.062,-0.038 c 0.22,-0.132 0.505,-0.062 0.637,0.158 l 3.136,5.2 c 0.132,0.219 0.061,0.504 -0.158,0.637 l -0.062,0.038 z"
     id="path4"
     inkscape:connector-curvature="0"
     style="fill:#66757f" />
  <path
     d="m 25.2475,10.019277 c -0.132,0.219 -0.062,0.504 0.158,0.636 l 5.2,3.135 c 0.22,0.133 0.505,0.062 0.637,-0.157 l 0.037,-0.062 c 0.133,-0.219 0.062,-0.504 -0.158,-0.637 l -5.2,-3.135 c -0.219,-0.132 -0.504,-0.062 -0.637,0.158 l -0.037,0.062 z"
     id="path6"
     inkscape:connector-curvature="0"
     style="fill:#66757f" />
  <path
     d="m 13.0265,31.982277 -3.536,-4.95 -0.707,-0.707 -4.95,-3.535 c -0.391,-0.391 -1.023,-0.391 -1.414,0 l -2.122,2.121 c -0.391,0.391 -0.39,1.023 0,1.414 l 9.192,9.192 c 0.391,0.391 1.023,0.391 1.415,0 l 2.121,-2.121 c 0.391,-0.391 0.391,-1.024 0.001,-1.414 z"
     id="path8"
     inkscape:connector-curvature="0"
     style="fill:#be1931" />
  <path
     d="m 23.1815,17.585277 c -6.995,6.993 -19.669,15.557 -20.088,15.137 -0.42,-0.419 8.144,-13.093 15.138,-20.087 6.993,-6.993 8.821,-6.605 10.188,-5.238 1.367,1.366 1.755,3.194 -5.238,10.188 z"
     id="path10"
     inkscape:connector-curvature="0"
     style="fill:#ccd6dd" />
  <path
     d="m 32.0535,4.470277 c -0.977,0.976 -1.927,1.609 -2.122,1.414 -0.195,-0.195 0.438,-1.145 1.414,-2.122 0.976,-0.976 1.927,-1.609 2.122,-1.414 0.196,0.196 -0.438,1.145 -1.414,2.122 z"
     id="path12"
     inkscape:connector-curvature="0"
     style="fill:#be1931" />
  <path
     d="m 23.9215,16.843277 c -0.781,0.781 -2.048,0.781 -2.828,0 l -2.122,-2.121 c -0.781,-0.781 -0.781,-2.047 0,-2.829 l 7.778,-7.778 c 0.781,-0.781 3.222,-1.955 4.003,-1.174 l 2.121,2.121 c 0.781,0.781 -0.393,3.221 -1.174,4.002 l -7.778,7.779 z"
     id="path14"
     inkscape:connector-curvature="0"
     style="fill:#ccd6dd" />
  <path
     d="m 28.5035,3.041277 4.272,4.271 c 0.364,-0.883 0.529,-1.818 0.099,-2.249 l -2.121,-2.121 c -0.431,-0.431 -1.367,-0.266 -2.25,0.099 z"
     id="path16"
     inkscape:connector-curvature="0"
     style="fill:#226699" />
  <path
     d="m 32.5695,3.571277 c -0.196,0.196 -1.145,-0.438 -2.121,-1.414 -0.977,-0.977 -1.61,-1.92599996 -1.414,-2.12199996 0.195,-0.195 1.145,0.438 2.121,1.41499996 0.976,0.976 1.609,1.926 1.414,2.121 z"
     id="path18"
     inkscape:connector-curvature="0"
     style="fill:#be1931" />
  <path
     d="m 35.8005,6.803277 c -0.195,0.195 -1.145,-0.438 -2.121,-1.414 -0.976,-0.977 -1.61,-1.926 -1.414,-2.122 0.195,-0.195 1.144,0.438 2.121,1.415 0.977,0.976 1.61,1.926 1.414,2.121 z"
     id="path20"
     inkscape:connector-curvature="0"
     style="fill:#be1931" />
  <path
     d="m 24.4945,9.946277 1.375,1.375 c 0.578,0.578 1.114,1.088 1.285,1.746 l 0.061,-0.061 c 0.944,-0.945 0.944,-2.478 0,-3.422 l -0.982,-0.982 c -0.944,-0.945 -2.477,-0.945 -3.422,0 l -0.061,0.06 c 0.657,0.171 1.167,0.707 1.744,1.284 z"
     id="path22"
     inkscape:connector-curvature="0"
     style="fill:#66757f" />
  <path
     d="m 21.8085,6.228277 c -0.34,0.34 -0.893,0.34 -1.233,0 l -0.18,-0.18 c -0.341,-0.341 -0.341,-0.893 -10e-4,-1.233 l 1.596,-1.595 c 0.34,-0.34 0.893,-0.34 1.233,0 l 0.18,0.18 c 0.341,0.341 0.341,0.893 10e-4,1.233 l -1.596,1.595 z m 9.159,9.226 c -0.322,0.322 -0.844,0.322 -1.166,0 l -0.248,-0.248 c -0.322,-0.322 -0.322,-0.844 0,-1.167 l 1.662,-1.662 c 0.322,-0.322 0.844,-0.322 1.166,0 l 0.248,0.248 c 0.322,0.322 0.322,0.844 0,1.166 l -1.662,1.663 z"
     id="path24"
     inkscape:connector-curvature="0"
     style="fill:#292f33" />
  <path
     d="m 3.8425,27.040277 -0.716,-0.716 -1.423,-1.423 c -0.386,-0.386 -1.011,-0.386 -1.397,0 l -0.017,0.017 c -0.386,0.387 -0.386,1.012 0,1.397 l 1.423,1.423 0.715,0.716 0.699,0.698 0.699,-0.698 0.017,-0.016 0.698,-0.7 -0.698,-0.698 z m 7.063,7.063 -1.44,-1.44 -0.681,-0.681 -0.707,-0.707 -1.414,1.414 0.707,0.707 0.681,0.681 1.44,1.44 c 0.391,0.391 1.023,0.391 1.415,0 0.389,-0.391 0.389,-1.024 -10e-4,-1.414 z"
     id="path26"
     inkscape:connector-curvature="0"
     style="fill:#ea596e" />
  <path
     d="m 7.0965,29.313277 c -2.047,2.047 -3.84,3.573 -4.003,3.409 -0.164,-0.163 1.362,-1.956 3.41,-4.003 2.047,-2.048 3.84,-3.574 4.004,-3.41 0.163,0.164 -1.363,1.956 -3.411,4.004 z m 28.013,-6.302 -22.329,-22.32799996 c -0.781,-0.781 -2.047,-0.781 -2.829,0 l -2.536,2.94999996 8.227,10.641 5.9,5.899 10.617,8.204 2.95,-2.537 c 0.781,-0.78 0.781,-2.048 0,-2.829 z"
     id="path28"
     inkscape:connector-curvature="0"
     style="fill:#be1931" />
  <path
     d="m 16.5025,10.328277 -7.981,-7.982 -1.106,1.286 6.882,8.901 z m 16.943,16.943 -8.457,-8.458 -2.269,2.269 9.44,7.294 z"
     id="path30"
     inkscape:connector-curvature="0"
     style="fill:#ea596e" />
</svg>
