<?xml version="1.0" encoding="UTF-8" standalone="no"?>
<svg
   xmlns:dc="http://purl.org/dc/elements/1.1/"
   xmlns:cc="http://creativecommons.org/ns#"
   xmlns:rdf="http://www.w3.org/1999/02/22-rdf-syntax-ns#"
   xmlns:svg="http://www.w3.org/2000/svg"
   xmlns="http://www.w3.org/2000/svg"
   xmlns:sodipodi="http://sodipodi.sourceforge.net/DTD/sodipodi-0.dtd"
   xmlns:inkscape="http://www.inkscape.org/namespaces/inkscape"
   viewBox="0 0 35.072514 32.475395"
   id="svg2"
   version="1.1"
   inkscape:version="0.91 r13725"
   sodipodi:docname="1f6f9.svg"
   width="35.072514"
   height="32.475395">
  <metadata
     id="metadata46">
    <rdf:RDF>
      <cc:Work
         rdf:about="">
        <dc:format>image/svg+xml</dc:format>
        <dc:type
           rdf:resource="http://purl.org/dc/dcmitype/StillImage" />
      </cc:Work>
    </rdf:RDF>
  </metadata>
  <defs
     id="defs44" />
  <sodipodi:namedview
     pagecolor="#ffffff"
     bordercolor="#666666"
     borderopacity="1"
     objecttolerance="10"
     gridtolerance="10"
     guidetolerance="10"
     inkscape:pageopacity="0"
     inkscape:pageshadow="2"
     inkscape:window-width="640"
     inkscape:window-height="480"
     id="namedview42"
     showgrid="false"
     inkscape:zoom="6.5555556"
     inkscape:cx="17.785764"
     inkscape:cy="15.946397"
     inkscape:window-x="0"
     inkscape:window-y="0"
     inkscape:window-maximized="0"
     inkscape:current-layer="svg2" />
  <path
     d="m 32.221764,1.35 c 1.801,1.799 3.779,2.737 0,6.517 l -19.552,19.551 c -4.5940003,4.595 -5.4630003,7.571 -11.4050003,1.63 -3.258,-3.258 0.284,-3.543 4.888,-8.148 L 25.704764,1.35 c 1.8,-1.8 4.718,-1.8 6.517,0 z"
     id="path4"
     inkscape:connector-curvature="0"
     style="fill:#a0041e" />
  <path
     d="m 33.721764,2.85 c 1.801,1.799 1.801,4.717 0,6.517 l -19.551,19.551 c -4.073,4.073 -8.3420003,4.693 -11.4050003,1.63 -3.258,-3.258 0.284,-3.543 4.888,-8.148 L 27.205764,2.85 c 1.799,-1.8 4.717,-1.8 6.516,0 z"
     id="path6"
     inkscape:connector-curvature="0"
     style="fill:#dd2e44" />
  <path
     d="m 15.086764,31.709 c 0.927,0.929 2.687,0.673 3.932,-0.572 1.244,-1.244 1.501,-3.004 0.572,-3.932 -0.927,-0.928 -2.688,-0.672 -3.932,0.572 -1.245,1.245 -1.501,3.005 -0.572,3.932 z"
     id="path8"
     inkscape:connector-curvature="0"
     style="fill:#3b88c3" />
  <path
     d="m 18.853764,26.466 -4.506,4.506 0.739,0.737 4.504,-4.504 z"
     id="path10"
     inkscape:connector-curvature="0"
     style="fill:#3b88c3" />
  <path
     d="m 14.398764,31.022 c 0.928,0.928 2.688,0.672 3.932,-0.573 1.245,-1.244 1.501,-3.004 0.573,-3.932 -0.928,-0.928 -2.688,-0.672 -3.932,0.572 -1.245,1.246 -1.501,3.005 -0.573,3.933 z"
     id="path12"
     inkscape:connector-curvature="0"
     style="fill:#88c9f9" />
  <path
     d="m 17.436764,27.925 c 0.302,0.367 0.243,0.973 -0.207,1.423 -0.45,0.45 -1.032,0.477 -1.422,0.207 -3.468,-2.396 -3.067,-3.798 -2.617,-4.248 0.449,-0.45 1.148,-1.148 4.246,2.618 z"
     id="path14"
     inkscape:connector-curvature="0"
     style="fill:#808285" />
  <path
     d="m 16.028764,28.359 c -1.103,1.237 -2.763,0.609 -3.935,-0.562 -1.172,-1.171 -1.302,-2.466 -0.13,-3.638 1.171,-1.172 2.36,-0.703 3.531,0.469 1.172,1.171 1.756,2.359 0.534,3.731 z"
     id="path16"
     inkscape:connector-curvature="0"
     style="fill:#a7a9ac" />
  <path
     d="m 8.9247637,25.929 c 1.006,1.008 2.9160003,0.729 4.2650003,-0.621 1.351,-1.35 1.628,-3.259 0.622,-4.266 -1.006,-1.007 -2.916,-0.729 -4.2660003,0.621 -1.351,1.351 -1.629,3.261 -0.621,4.266 z"
     id="path18"
     inkscape:connector-curvature="0"
     style="fill:#3b88c3" />
  <path
     d="m 13.011764,20.241 -4.8880003,4.89 0.801,0.798 4.8860003,-4.886 z"
     id="path20"
     inkscape:connector-curvature="0"
     style="fill:#3b88c3" />
  <path
     d="m 8.1787637,25.184 c 1.007,1.007 2.9170003,0.729 4.2660003,-0.622 1.351,-1.35 1.628,-3.259 0.622,-4.266 -1.006,-1.007 -2.916,-0.728 -4.2660003,0.621 -1.351,1.351 -1.629,3.26 -0.622,4.267 z"
     id="path22"
     inkscape:connector-curvature="0"
     style="fill:#88c9f9" />
  <path
     d="m 11.436764,21.925 c 0.336,0.335 0.243,0.973 -0.207,1.423 -0.45,0.45 -1.086,0.542 -1.4220003,0.207 -0.335,-0.336 -0.243,-0.973 0.2080003,-1.423 0.449,-0.45 1.085,-0.541 1.421,-0.207 z m 17.651,-4.216 c 0.927,0.929 2.687,0.673 3.931,-0.572 1.244,-1.244 1.5,-3.004 0.572,-3.932 -0.928,-0.928 -2.687,-0.672 -3.931,0.572 -1.245,1.246 -1.502,3.005 -0.572,3.932 z"
     id="path24"
     inkscape:connector-curvature="0"
     style="fill:#3b88c3" />
  <path
     d="m 32.853764,12.466 -4.505,4.507 0.739,0.736 4.503,-4.504 z"
     id="path26"
     inkscape:connector-curvature="0"
     style="fill:#3b88c3" />
  <path
     d="m 28.399764,17.023 c 0.928,0.927 2.687,0.671 3.931,-0.573 1.244,-1.244 1.5,-3.004 0.572,-3.932 -0.928,-0.928 -2.686,-0.672 -3.931,0.572 -1.244,1.245 -1.501,3.005 -0.572,3.933 z"
     id="path28"
     inkscape:connector-curvature="0"
     style="fill:#88c9f9" />
  <path
     d="m 31.435764,13.926 c 0.303,0.367 0.244,0.973 -0.207,1.423 -0.449,0.45 -1.03,0.477 -1.421,0.207 -3.469,-2.396 -3.068,-3.798 -2.617,-4.248 0.449,-0.45 1.149,-1.149 4.245,2.618 z"
     id="path30"
     inkscape:connector-curvature="0"
     style="fill:#808285" />
  <path
     d="m 30.028764,14.36 c -1.103,1.237 -2.764,0.609 -3.935,-0.562 -1.172,-1.171 -1.302,-2.466 -0.13,-3.638 1.172,-1.172 2.359,-0.703 3.531,0.469 1.173,1.17 1.756,2.358 0.534,3.731 z"
     id="path32"
     inkscape:connector-curvature="0"
     style="fill:#a7a9ac" />
  <path
     d="m 22.925764,11.93 c 1.006,1.008 2.915,0.729 4.265,-0.621 1.351,-1.35 1.628,-3.259 0.622,-4.266 -1.007,-1.007 -2.916,-0.729 -4.266,0.621 -1.352,1.351 -1.629,3.26 -0.621,4.266 z"
     id="path34"
     inkscape:connector-curvature="0"
     style="fill:#3b88c3" />
  <path
     d="m 22.126764,11.13 4.887,-4.889 0.8,0.8 -4.886,4.89 z"
     id="path36"
     inkscape:connector-curvature="0"
     style="fill:#3b88c3" />
  <path
     d="m 22.179764,11.185 c 1.006,1.007 2.916,0.729 4.266,-0.622 1.35,-1.35 1.628,-3.259 0.621,-4.266 -1.006,-1.007 -2.916,-0.729 -4.266,0.621 -1.351,1.351 -1.629,3.26 -0.621,4.267 z"
     id="path38"
     inkscape:connector-curvature="0"
     style="fill:#88c9f9" />
  <path
     d="m 25.436764,7.926 c 0.336,0.335 0.243,0.973 -0.207,1.423 -0.45,0.45 -1.086,0.542 -1.422,0.207 -0.336,-0.336 -0.243,-0.973 0.207,-1.423 0.451,-0.45 1.086,-0.542 1.422,-0.207 z"
     id="path40"
     inkscape:connector-curvature="0"
     style="fill:#3b88c3" />
</svg>
