<?xml version="1.0" encoding="UTF-8" standalone="no"?>
<svg
   xmlns:dc="http://purl.org/dc/elements/1.1/"
   xmlns:cc="http://creativecommons.org/ns#"
   xmlns:rdf="http://www.w3.org/1999/02/22-rdf-syntax-ns#"
   xmlns:svg="http://www.w3.org/2000/svg"
   xmlns="http://www.w3.org/2000/svg"
   xmlns:sodipodi="http://sodipodi.sourceforge.net/DTD/sodipodi-0.dtd"
   xmlns:inkscape="http://www.inkscape.org/namespaces/inkscape"
   viewBox="0 0 35.751755 29"
   id="svg2"
   version="1.1"
   inkscape:version="0.91 r13725"
   sodipodi:docname="1f6fa.svg"
   width="35.751755"
   height="29">
  <metadata
     id="metadata32">
    <rdf:RDF>
      <cc:Work
         rdf:about="">
        <dc:format>image/svg+xml</dc:format>
        <dc:type
           rdf:resource="http://purl.org/dc/dcmitype/StillImage" />
      </cc:Work>
    </rdf:RDF>
  </metadata>
  <defs
     id="defs30" />
  <sodipodi:namedview
     pagecolor="#ffffff"
     bordercolor="#666666"
     borderopacity="1"
     objecttolerance="10"
     gridtolerance="10"
     guidetolerance="10"
     inkscape:pageopacity="0"
     inkscape:pageshadow="2"
     inkscape:window-width="640"
     inkscape:window-height="480"
     id="namedview28"
     showgrid="false"
     inkscape:zoom="6.5555556"
     inkscape:cx="17.751755"
     inkscape:cy="18"
     inkscape:window-x="0"
     inkscape:window-y="0"
     inkscape:window-maximized="0"
     inkscape:current-layer="svg2" />
  <path
     d="m 18.751755,2 2,0 0,11 -2,0 z"
     id="path4"
     inkscape:connector-curvature="0"
     style="fill:#99aab5" />
  <path
     d="m 9.7517553,2 c -2,2 -4,5 -4,7 0,4 4.9999997,1 4.9999997,1 l 0,-8 -0.9999997,0 z"
     id="path6"
     inkscape:connector-curvature="0"
     style="fill:#55acee" />
  <circle
     cx="4.7517552"
     cy="25"
     r="4"
     id="circle8"
     style="fill:#292f33" />
  <circle
     cx="4.7517552"
     cy="25"
     r="2"
     id="circle10"
     style="fill:#99aab5" />
  <path
     d="m 28.751755,16 -2,0 c -1.105,0 -2,0.895 -2,2 l 0,5 c 0,1.105 0.895,2 2,2 l 2,0 c 1.105,0 2,-0.895 2,-2 l 0,-5 c 0,-1.105 -0.895,-2 -2,-2 z m -10,0 -2,0 c -1.105,0 -2,0.895 -2,2 l 0,5 c 0,1.105 0.895,2 2,2 l 2,0 c 1.105,0 2,-0.895 2,-2 l 0,-5 c 0,-1.105 -0.895,-2 -2,-2 z"
     id="path12"
     inkscape:connector-curvature="0"
     style="fill:#1e5200" />
  <path
     d="M 1.7517553,21.377 C 0.36475527,21.602 -0.82924473,20.225 0.75175527,18.942 2.7517553,17.319 7.7517553,16.507 9.7517553,17.319 11.751755,18.131 11.751755,26 10.751755,26 9.7517553,26 6.7517553,20.565 1.7517553,21.377 Z"
     id="path14"
     inkscape:connector-curvature="0"
     style="fill:#5c913b" />
  <path
     d="m 10.751755,26 13,0 c 1,0 2,0 2,-2 0,-1 1,-4 3,-4 2,0 5,3 5,4 0,1 0,2 1,2 1,0 1,-1 1,-2 l 0,-12 -8,0 c 0,3 -1,8 -1,8 0,0 -1,-1 -1,1 0,0.606 -1,2 -2,2 l -1,0 c -1,0 -2,-0.666 -2,-1.672 l 0,-9.328 c 0,-1 -2,-1 -2,0 l 0,9.328 c 0,1.006 -0.738,1.672 -1.659,1.672 l -3.33,0 c -1.011,0 -2.011,-1 -2.011,-2 l 0,-9 -6.9999997,0 c 0,6 5,14 5.9999997,14 z"
     id="path16"
     inkscape:connector-curvature="0"
     style="fill:#3e721d" />
  <path
     d="m 33.751755,25 c 0,1 1,0 1,-2 0,-3 -0.833,-5 -5,-5 -4.167,0 -5,3 -5,5 0,1 1,3 1,2 0,-1 0.667,-2 4,-2 3.333,0 4,1 4,2 z"
     id="path18"
     inkscape:connector-curvature="0"
     style="fill:#5c913b" />
  <path
     d="m 11.751755,12 -6.9999997,0 c 0,-1 1,-3 1,-3 l 4,0 C 10.303755,9 10.751755,8.552 10.751755,8 l 0,-4 c 0,0 -1.9999997,0 -1.9999997,-2 0,-0.326 0.106,-0.652 0.25,-0.944 C 9.3247553,0.4 10.009755,0 10.741755,0 l 22.01,0 c 2,0 3,5 3,12 l -8,0 c 0,0 0,-8 -3,-8 l -13,0 0,8 z"
     id="path20"
     inkscape:connector-curvature="0"
     style="fill:#ffac33" />
  <circle
     cx="29.751755"
     cy="25"
     r="4"
     id="circle22"
     style="fill:#292f33" />
  <circle
     cx="29.751755"
     cy="25"
     r="2"
     id="circle24"
     style="fill:#99aab5" />
  <path
     d="m 8.7517553,11.5 0,-1 c 0,-0.276 -0.224,-0.5 -0.5,-0.5 l -2.948,0 c -0.266,0.648 -0.552,1.464 -0.552,2 l 3.5,0 c 0.276,0 0.5,-0.224 0.5,-0.5 z"
     id="path26"
     inkscape:connector-curvature="0"
     style="fill:#f4900c" />
</svg>
