<?xml version="1.0" encoding="UTF-8" standalone="no"?>
<svg
   xmlns:dc="http://purl.org/dc/elements/1.1/"
   xmlns:cc="http://creativecommons.org/ns#"
   xmlns:rdf="http://www.w3.org/1999/02/22-rdf-syntax-ns#"
   xmlns:svg="http://www.w3.org/2000/svg"
   xmlns="http://www.w3.org/2000/svg"
   xmlns:sodipodi="http://sodipodi.sourceforge.net/DTD/sodipodi-0.dtd"
   xmlns:inkscape="http://www.inkscape.org/namespaces/inkscape"
   viewBox="0 0 36 27.013462"
   id="svg2"
   version="1.1"
   inkscape:version="0.91 r13725"
   sodipodi:docname="1f6f7.svg"
   width="36"
   height="27.013462">
  <metadata
     id="metadata26">
    <rdf:RDF>
      <cc:Work
         rdf:about="">
        <dc:format>image/svg+xml</dc:format>
        <dc:type
           rdf:resource="http://purl.org/dc/dcmitype/StillImage" />
      </cc:Work>
    </rdf:RDF>
  </metadata>
  <defs
     id="defs24" />
  <sodipodi:namedview
     pagecolor="#ffffff"
     bordercolor="#666666"
     borderopacity="1"
     objecttolerance="10"
     gridtolerance="10"
     guidetolerance="10"
     inkscape:pageopacity="0"
     inkscape:pageshadow="2"
     inkscape:window-width="640"
     inkscape:window-height="480"
     id="namedview22"
     showgrid="false"
     inkscape:zoom="6.5555556"
     inkscape:cx="18"
     inkscape:cy="18"
     inkscape:window-x="0"
     inkscape:window-y="0"
     inkscape:window-maximized="0"
     inkscape:current-layer="svg2" />
  <path
     d="m 36,4.0754614 0,18.9379996 c 0,0 0,4 -4,4 l -28,0 c -4,0 -4,-4 -4,-4 l 0,-4.938 c 0,0 17,-9.9999996 36,-13.9999996 z"
     id="path4"
     inkscape:connector-curvature="0"
     style="fill:#e1e8ed" />
  <path
     d="m 26.004,6.5364614 c -1.341,0.693 -17.35,9.1679996 -19.132,10.0439996 -2.822,1.388 -5.22,0.05 -6.416,-1.769 -0.617,-0.938 -0.406,-1.219 0,-1.312 0.406,-0.093 1.424,-0.277 1.688,0.25 0.438,0.875 2.531,2.031 3.625,1.531 1.094,-0.5 17.938,-9.5309996 18.562,-9.8119996 0.624,-0.281 0.906,-0.281 1.375,0 0.469,0.281 1.315,0.542 0.298,1.068 z"
     id="path6"
     inkscape:connector-curvature="0"
     style="fill:#9d0522" />
  <path
     d="m 11.143,20.277461 c -0.081,0 -0.163,-0.02 -0.238,-0.061 l -9.301,-5.06 c -0.243,-0.132 -0.333,-0.436 -0.201,-0.679 0.132,-0.242 0.436,-0.332 0.678,-0.2 l 9.301,5.06 c 0.243,0.132 0.333,0.436 0.201,0.679 -0.091,0.166 -0.263,0.261 -0.44,0.261 z"
     id="path8"
     inkscape:connector-curvature="0"
     style="fill:#e75a70" />
  <path
     d="m 35.452,11.620461 c -1.341,0.693 -17.35,9.168 -19.132,10.044 -2.822,1.387 -5.22,0.05 -6.416,-1.769 -0.617,-0.938 -0.406,-1.219 0,-1.312 0.406,-0.093 1.424,-0.277 1.688,0.25 0.438,0.875 2.531,2.031 3.625,1.531 1.094,-0.5 17.938,-9.531 18.563,-9.812 0.625,-0.281 0.906,-0.281 1.375,0 0.469,0.281 1.314,0.542 0.297,1.068 z"
     id="path10"
     inkscape:connector-curvature="0"
     style="fill:#9d0522" />
  <path
     d="m 19.167,19.284461 c -0.058,0 -0.117,-0.01 -0.174,-0.031 -0.259,-0.097 -0.391,-0.384 -0.295,-0.643 l 2.479,-6.666 c 0.062,-0.166 0.206,-0.286 0.379,-0.318 0.18,-0.029 0.352,0.031 0.467,0.164 l 3.334,3.833 c 0.182,0.208 0.159,0.524 -0.049,0.705 -0.209,0.183 -0.523,0.158 -0.705,-0.049 l -2.782,-3.198 -2.185,5.877 c -0.075,0.201 -0.266,0.326 -0.469,0.326 z m -9.289,-4.909 c -0.058,0 -0.117,-0.01 -0.174,-0.031 -0.259,-0.097 -0.391,-0.384 -0.294,-0.643 l 2.479,-6.6669996 c 0.062,-0.166 0.206,-0.286 0.379,-0.317 0.173,-0.036 0.35,0.03 0.467,0.164 l 3.333,3.8329996 c 0.181,0.208 0.159,0.524 -0.049,0.705 -0.208,0.182 -0.523,0.159 -0.706,-0.049 L 12.532,8.1724614 10.346,14.048461 c -0.075,0.203 -0.265,0.327 -0.468,0.327 z m 18.605,0 c -0.058,0 -0.117,-0.01 -0.174,-0.031 -0.26,-0.097 -0.391,-0.384 -0.295,-0.643 l 2.479,-6.6669996 c 0.062,-0.166 0.206,-0.286 0.379,-0.317 0.179,-0.034 0.352,0.031 0.467,0.164 l 3.333,3.8329996 c 0.182,0.208 0.159,0.524 -0.049,0.705 -0.208,0.183 -0.523,0.158 -0.705,-0.049 L 31.137,8.1724614 28.951,14.048461 c -0.074,0.203 -0.264,0.327 -0.468,0.327 z"
     id="path12"
     inkscape:connector-curvature="0"
     style="fill:#9d0522" />
  <path
     d="m 23.921,1.7924614 c 1.076,-0.558 1.113,-0.628 2.249,-0.024 1.136,0.604 6.569,3.484 7.21,3.825 0.814,0.434 1.112,0.591 -0.449,1.421 -1.695,0.903 -12.305,6.5119996 -12.931,6.8239996 -0.765,0.381 -1.311,0.327 -2.206,-0.112 -0.718,-0.352 -6.549,-3.463 -7.276,-3.8749996 -0.82,-0.465 -0.482,-0.706 0.769,-1.37 1.251,-0.666 12.634,-6.689 12.634,-6.689 z"
     id="path14"
     inkscape:connector-curvature="0"
     style="fill:#c1694f" />
  <path
     d="m 10.085,8.0884614 1.416,0 0,1.329 -1.416,0 z m 22.838,-3.308 1.125,0 0,1.422 -1.125,0 z"
     id="path16"
     inkscape:connector-curvature="0"
     style="fill:#c1694f" />
  <path
     d="m 23.921,0.44846136 c 1.076,-0.558 1.113,-0.628 2.249,-0.024 1.136,0.60400004 6.569,3.48400004 7.21,3.82500004 0.814,0.434 1.112,0.591 -0.449,1.421 -1.695,0.902 -12.305,6.5109996 -12.931,6.8229996 -0.765,0.381 -1.311,0.327 -2.206,-0.112 -0.718,-0.352 -6.549,-3.4629996 -7.276,-3.8749996 -0.82,-0.465 -0.482,-0.706 0.769,-1.37 1.251,-0.665 12.634,-6.68800004 12.634,-6.68800004 z"
     id="path18"
     inkscape:connector-curvature="0"
     style="fill:#d99e82" />
  <path
     d="m 12.532,8.3884614 c -0.179,0 -0.352,-0.096 -0.442,-0.265 -0.13,-0.244 -0.037,-0.547 0.207,-0.676 L 24.609,0.90346136 c 0.242,-0.13 0.547,-0.038 0.676,0.20700004 0.13,0.244 0.037,0.547 -0.207,0.676 l -12.312,6.544 c -0.075,0.039 -0.155,0.058 -0.234,0.058 z m 6.714,3.4499996 c -0.179,0 -0.352,-0.097 -0.441,-0.266 -0.13,-0.243 -0.037,-0.546 0.207,-0.676 L 31.324,4.3524614 c 0.241,-0.131 0.546,-0.037 0.676,0.207 0.13,0.244 0.037,0.547 -0.207,0.676 L 19.48,11.780461 c -0.074,0.04 -0.154,0.058 -0.234,0.058 z m -2.171,-1.133 c -0.179,0 -0.352,-0.097 -0.442,-0.266 -0.13,-0.243 -0.037,-0.5459996 0.207,-0.6759996 l 12.313,-6.544 c 0.241,-0.131 0.546,-0.037 0.676,0.207 0.13,0.244 0.037,0.547 -0.207,0.676 L 17.31,10.647461 c -0.076,0.04 -0.156,0.058 -0.235,0.058 z M 14.84,9.5734614 c -0.179,0 -0.352,-0.096 -0.442,-0.265 -0.13,-0.244 -0.037,-0.547 0.207,-0.676 l 12.313,-6.544 c 0.242,-0.13 0.546,-0.038 0.676,0.207 0.13,0.245 0.037,0.547 -0.207,0.676 l -12.312,6.544 c -0.075,0.039 -0.156,0.058 -0.235,0.058 z"
     id="path20"
     inkscape:connector-curvature="0"
     style="fill:#bf6952" />
</svg>
