<?xml version="1.0" encoding="UTF-8" standalone="no"?>
<svg
   xmlns:dc="http://purl.org/dc/elements/1.1/"
   xmlns:cc="http://creativecommons.org/ns#"
   xmlns:rdf="http://www.w3.org/1999/02/22-rdf-syntax-ns#"
   xmlns:svg="http://www.w3.org/2000/svg"
   xmlns="http://www.w3.org/2000/svg"
   xmlns:sodipodi="http://sodipodi.sourceforge.net/DTD/sodipodi-0.dtd"
   xmlns:inkscape="http://www.inkscape.org/namespaces/inkscape"
   viewBox="0 0 35.849091 35.024281"
   id="svg2"
   version="1.1"
   inkscape:version="0.91 r13725"
   sodipodi:docname="1f6f0.svg"
   width="35.849091"
   height="35.024281">
  <metadata
     id="metadata30">
    <rdf:RDF>
      <cc:Work
         rdf:about="">
        <dc:format>image/svg+xml</dc:format>
        <dc:type
           rdf:resource="http://purl.org/dc/dcmitype/StillImage" />
      </cc:Work>
    </rdf:RDF>
  </metadata>
  <defs
     id="defs28" />
  <sodipodi:namedview
     pagecolor="#ffffff"
     bordercolor="#666666"
     borderopacity="1"
     objecttolerance="10"
     gridtolerance="10"
     guidetolerance="10"
     inkscape:pageopacity="0"
     inkscape:pageshadow="2"
     inkscape:window-width="640"
     inkscape:window-height="480"
     id="namedview26"
     showgrid="false"
     inkscape:zoom="6.5555556"
     inkscape:cx="17.84875"
     inkscape:cy="17.175531"
     inkscape:window-x="0"
     inkscape:window-y="0"
     inkscape:window-maximized="0"
     inkscape:current-layer="svg2" />
  <path
     d="m 8.36275,19.67675 10.608,-10.605 2.121,2.121 -10.608,10.606 z"
     id="path4"
     inkscape:connector-curvature="0"
     style="fill:#99aab5" />
  <path
     d="m 8.36375,29.57675 c -0.781,0.781 -2.047,0.781 -2.828,0 l -4.95,-4.949 c -0.781,-0.781 -0.781,-2.048 0,-2.828 l 4.95,-4.951 c 0.781,-0.781 2.047,-0.781 2.828,0 l 4.95,4.95 c 0.781,0.78 0.781,2.047 0,2.828 l -4.95,4.95 z m 16.262,-16.263 c -0.78,0.781 -2.047,0.781 -2.827,0 l -4.95,-4.95 c -0.781,-0.781 -0.781,-2.047 0,-2.828 l 4.951,-4.95 c 0.781,-0.781 2.047,-0.781 2.828,0 l 4.949,4.95 c 0.781,0.781 0.781,2.047 0.001,2.828 l -4.952,4.95 z"
     id="path6"
     inkscape:connector-curvature="0"
     style="fill:#55acee" />
  <path
     d="m 12.25275,10.13175 -1.414,-4.243 c -0.448,-1.342 -1.415,-1.415 -2.122,-0.708 l -2.828,2.829 c -0.708,0.707 -0.635,1.674 0.707,2.122 l 4.243,1.414 1.414,-1.414 z"
     id="path8"
     inkscape:connector-curvature="0"
     style="fill:#99aab5" />
  <path
     d="m 17.55675,21.79775 c -0.782,0.781 -2.048,0.781 -2.829,10e-4 l -7.071,-7.071 c -0.781,-0.781 -0.781,-2.048 0,-2.829 l 4.242,-4.242 c 0.781,-0.781 2.048,-0.781 2.829,0 l 7.071,7.071 c 0.78,0.781 0.78,2.047 -10e-4,2.829 l -4.241,4.241 z"
     id="path10"
     inkscape:connector-curvature="0"
     style="fill:#ccd6dd" />
  <path
     d="m 20.86475,20.90375 c -1.952,1.953 -4.802,2.269 -6.364,0.708 -1.562,-1.562 0.876,-2.29 2.829,-4.243 1.953,-1.953 2.681,-4.39 4.243,-2.829 1.561,1.562 1.245,4.411 -0.708,6.364 z"
     id="path12"
     inkscape:connector-curvature="0"
     style="fill:#ccd6dd" />
  <path
     d="m 27.80875,20.03075 c -2.12,-2.122 -5.118,-1.951 -7.071,0 -1.952,1.954 -2.121,4.95 0,7.071 l 7.071,-7.071 z m -2.828,2.829 2.121,3.535 -3.535,-2.121 z"
     id="path14"
     inkscape:connector-curvature="0"
     style="fill:#99aab5" />
  <path
     d="m 27.66175,26.95475 c -0.391,0.391 -1.023,0.391 -1.414,0 -0.391,-0.391 -0.391,-1.023 0,-1.414 0.391,-0.391 1.023,-0.391 1.414,0 0.391,0.391 0.391,1.024 0,1.414 z"
     id="path16"
     inkscape:connector-curvature="0"
     style="fill:#99aab5" />
  <path
     d="m 4.11875,18.26475 1.416,-1.416 7.779,7.777 -1.414,1.415 z m 12.73,-12.73 1.414,-1.414 7.778,7.778 -1.414,1.414 z m -16.265,16.266 1.414,-1.415 7.78,7.776 -1.414,1.414 z m 19.798,-19.8 1.413,-1.415 7.781,7.775 -1.413,1.414 z"
     id="path18"
     inkscape:connector-curvature="0"
     style="fill:#88c9f9" />
  <path
     d="m 8.15575,7.44975 c -0.39,0.39 -1.023,0.39 -1.414,0 -0.391,-0.391 -0.39,-1.024 0,-1.415 0.391,-0.39 1.023,-0.39 1.414,0 0.391,0.391 0.391,1.024 0,1.415 z"
     id="path20"
     inkscape:connector-curvature="0"
     style="fill:#99aab5" />
  <path
     d="m 23.53075,30.27975 0.002,-0.051 c 0.027,-0.552 0.497,-0.977 1.049,-0.949 0.016,0.001 2.156,0.063 3.8,-1.58 1.637,-1.638 1.578,-3.772 1.58,-3.801 -0.033,-0.55 0.397,-1.021 0.948,-1.049 0.552,-0.027 1.022,0.397 1.049,0.949 0.012,0.122 0.123,3.028 -2.163,5.314 -2.288,2.287 -5.191,2.17 -5.314,2.164 -0.535,-0.027 -0.951,-0.468 -0.951,-0.997 z"
     id="path22"
     inkscape:connector-curvature="0"
     style="fill:#ffac33" />
  <path
     d="m 24.08675,33.83775 c 0,-0.109 0.018,-0.221 0.057,-0.33 0.182,-0.521 0.752,-0.796 1.273,-0.613 0.107,0.034 2.877,0.893 5.964,-2.195 3.127,-3.126 2.414,-6.126 2.382,-6.252 -0.137,-0.529 0.184,-1.077 0.716,-1.216 0.53,-0.14 1.073,0.172 1.217,0.701 0.046,0.17 1.077,4.205 -2.9,8.181 -4.014,4.016 -7.876,2.726 -8.038,2.668 -0.413,-0.144 -0.671,-0.531 -0.671,-0.944 z"
     id="path24"
     inkscape:connector-curvature="0"
     style="fill:#ffac33" />
</svg>
