<?xml version="1.0" encoding="UTF-8" standalone="no"?>
<svg
   xmlns:dc="http://purl.org/dc/elements/1.1/"
   xmlns:cc="http://creativecommons.org/ns#"
   xmlns:rdf="http://www.w3.org/1999/02/22-rdf-syntax-ns#"
   xmlns:svg="http://www.w3.org/2000/svg"
   xmlns="http://www.w3.org/2000/svg"
   xmlns:sodipodi="http://sodipodi.sourceforge.net/DTD/sodipodi-0.dtd"
   xmlns:inkscape="http://www.inkscape.org/namespaces/inkscape"
   viewBox="0 0 36 35.059547"
   id="svg2"
   version="1.1"
   inkscape:version="0.91 r13725"
   sodipodi:docname="1f6f4.svg"
   width="36"
   height="35.059547">
  <metadata
     id="metadata34">
    <rdf:RDF>
      <cc:Work
         rdf:about="">
        <dc:format>image/svg+xml</dc:format>
        <dc:type
           rdf:resource="http://purl.org/dc/dcmitype/StillImage" />
      </cc:Work>
    </rdf:RDF>
  </metadata>
  <defs
     id="defs32" />
  <sodipodi:namedview
     pagecolor="#ffffff"
     bordercolor="#666666"
     borderopacity="1"
     objecttolerance="10"
     gridtolerance="10"
     guidetolerance="10"
     inkscape:pageopacity="0"
     inkscape:pageshadow="2"
     inkscape:window-width="640"
     inkscape:window-height="480"
     id="namedview30"
     showgrid="false"
     inkscape:zoom="6.5555556"
     inkscape:cx="18"
     inkscape:cy="18"
     inkscape:window-x="0"
     inkscape:window-y="0"
     inkscape:window-maximized="0"
     inkscape:current-layer="svg2" />
  <circle
     cx="4.5"
     cy="30.559547"
     r="4.5"
     id="circle4"
     style="fill:#292f33" />
  <circle
     cx="4.5"
     cy="30.559547"
     r="3"
     id="circle6"
     style="fill:#dd2e44" />
  <circle
     cx="31.5"
     cy="30.559547"
     r="4.5"
     id="circle8"
     style="fill:#292f33" />
  <circle
     cx="31.5"
     cy="30.559547"
     r="3"
     id="circle10"
     style="fill:#dd2e44" />
  <path
     d="m 31.5,32.059548 -20,0 c -0.825,0 -1.5,-0.675 -1.5,-1.5 0,-0.825 0.675,-1.5 1.5,-1.5 l 20,0 c 0.825,0 1.5,0.675 1.5,1.5 0,0.825 -0.675,1.5 -1.5,1.5 z"
     id="path12"
     inkscape:connector-curvature="0"
     style="fill:#55acee" />
  <path
     d="m 26.012,30.805548 c -0.003,-0.082 -0.012,-0.163 -0.012,-0.246 0,-3.038 2.462,-5.5 5.5,-5.5 1.21,0 2.326,0.396 3.234,1.058 l 0.89,-1.205 c -1.158,-0.847 -2.58,-1.353 -4.125,-1.353 -3.866,0 -7,3.134 -7,7 0,0.102 0.011,0.201 0.015,0.302 l 1.498,-0.056 z m -20.383,-5.629 c 2.495,0.52 4.369,2.73 4.371,5.378 l 3.5,0.003 c -10e-4,-4.34 -3.074,-7.962 -7.163,-8.81 -0.232,1.13 -0.476,2.31 -0.708,3.429 z"
     id="path14"
     inkscape:connector-curvature="0"
     style="fill:#55acee" />
  <path
     d="m 4.395,31.057548 c -0.269,-0.057 -0.442,-0.324 -0.385,-0.593 L 10.012,2.2265478 c 0.057,-0.269 0.324,-0.442 0.593,-0.385 0.269,0.057 0.442,0.324 0.385,0.593 L 4.988,30.672548 c -0.057,0.269 -0.324,0.442 -0.593,0.385 z"
     id="path16"
     inkscape:connector-curvature="0"
     style="fill:#99aab5" />
  <path
     d="m 6.123,25.320548 -0.978,-0.208 c -0.538,-0.114 -0.885,-0.648 -0.77,-1.186 l 1.247,-5.869 c 0.114,-0.538 0.648,-0.885 1.186,-0.77 l 0.978,0.208 c 0.538,0.114 0.885,0.648 0.77,1.186 l -1.246,5.868 c -0.115,0.538 -0.649,0.885 -1.187,0.771 z"
     id="path18"
     inkscape:connector-curvature="0"
     style="fill:#55acee" />
  <path
     d="m 9.3,3.3835478 -1.957,-0.416 c -0.807,-0.172 -1.327,-0.972 -1.155,-1.779 C 6.359,0.38154783 7.16,-0.13845217 7.967,0.03254783 l 1.956,0.416 c 0.807,0.172 1.327,0.97199997 1.155,1.77899997 -0.171,0.807 -0.972,1.327 -1.778,1.156 z"
     id="path20"
     inkscape:connector-curvature="0"
     style="fill:#dd2e44" />
  <path
     d="m 10.84,0.73454783 c -0.807,-0.172 -1.608,0.34799997 -1.779,1.15499997 l -1.351,6.358 c -0.114,0.538 0.232,1.072 0.77,1.186 l 0.978,0.208 c 0.538,0.114 1.072,-0.232 1.186,-0.77 l 1.351,-6.358 c 0.172,-0.807 -0.348,-1.60699997 -1.155,-1.77899997 z"
     id="path22"
     inkscape:connector-curvature="0"
     style="fill:#55acee" />
  <path
     d="m 14.105,4.4045478 -2.934,-0.624 c -0.807,-0.172 -1.327,-0.972 -1.155,-1.779 0.172,-0.807 0.972,-1.32699997 1.779,-1.15499997 l 2.934,0.62399997 c 0.807,0.172 1.327,0.972 1.155,1.779 -0.171,0.807 -0.972,1.327 -1.779,1.155 z"
     id="path24"
     inkscape:connector-curvature="0"
     style="fill:#dd2e44" />
  <path
     d="m 15.903,3.2535478 c -0.172,0.81 -0.969,1.328 -1.779,1.155 -0.81,-0.172 -1.328,-0.969 -1.155,-1.779 0.172,-0.81 0.969,-1.328 1.779,-1.155 0.81,0.173 1.328,0.968 1.155,1.779 z"
     id="path26"
     inkscape:connector-curvature="0"
     style="fill:#ea596e" />
  <circle
     cx="35.189999"
     cy="25.519547"
     r="0.74000001"
     id="circle28"
     style="fill:#55acee" />
</svg>
