<?xml version="1.0" encoding="UTF-8" standalone="no"?>
<svg
   xmlns:dc="http://purl.org/dc/elements/1.1/"
   xmlns:cc="http://creativecommons.org/ns#"
   xmlns:rdf="http://www.w3.org/1999/02/22-rdf-syntax-ns#"
   xmlns:svg="http://www.w3.org/2000/svg"
   xmlns="http://www.w3.org/2000/svg"
   xmlns:sodipodi="http://sodipodi.sourceforge.net/DTD/sodipodi-0.dtd"
   xmlns:inkscape="http://www.inkscape.org/namespaces/inkscape"
   viewBox="0 0 34.500633 28.177759"
   id="svg2"
   version="1.1"
   inkscape:version="0.91 r13725"
   sodipodi:docname="1f90f-1f3ff.svg"
   width="34.500633"
   height="28.177759">
  <metadata
     id="metadata12">
    <rdf:RDF>
      <cc:Work
         rdf:about="">
        <dc:format>image/svg+xml</dc:format>
        <dc:type
           rdf:resource="http://purl.org/dc/dcmitype/StillImage" />
      </cc:Work>
    </rdf:RDF>
  </metadata>
  <defs
     id="defs10" />
  <sodipodi:namedview
     pagecolor="#ffffff"
     bordercolor="#666666"
     borderopacity="1"
     objecttolerance="10"
     gridtolerance="10"
     guidetolerance="10"
     inkscape:pageopacity="0"
     inkscape:pageshadow="2"
     inkscape:window-width="640"
     inkscape:window-height="480"
     id="namedview8"
     showgrid="false"
     inkscape:zoom="6.5555556"
     inkscape:cx="17.501"
     inkscape:cy="14"
     inkscape:window-x="0"
     inkscape:window-y="0"
     inkscape:window-maximized="0"
     inkscape:current-layer="svg2" />
  <path
     d="m 32.791,4.8057597 c -0.025,-0.008 -8.791,-2.628 -11.791,-3.628 -1.2,-0.40000003 -21,-7 -21,16.0000003 0,0.637 2,11 4,11 l 11,0 c 8.375,0 5.642,-10.68 15.92,-12.106 1.739,-0.241 2.621,-1.112 2.466,-2.566 -0.165,-1.549 -1.975,-2.059 -3.534,-2.059 -1.146,0 -5.754,0.233 -9.026,1.951 C 20.54,11.58876 20,9.3847597 20,7.1767597 c 5,1 11.092,2.333 11.209,2.372 1.31,0.434 2.726,-0.271 3.162,-1.582 0.438,-1.309 -0.27,-2.724 -1.58,-3.161 z"
     id="path4"
     inkscape:connector-curvature="0"
     style="fill:#7c533e" />
  <path
     d="m 18.708,3.4707597 c -0.389,-0.391 -1.023,-0.392 -1.414,-10e-4 -0.391,0.39 -0.392,1.023 -0.001,1.415 0.017,0.017 1.704,1.737 1.704,4.293 l 0,7.1090003 c 0,0.852 -0.501,1.154 -0.97,1.154 -0.496,0 -1.025,-0.332 -1.025,-1.264 l 0,-2 c 0,-3.767 -0.303,-7.7700003 -2.553,-8.8950003 -0.495,-0.247 -1.095,-0.046 -1.342,0.447 -0.247,0.494 -0.047,1.095 0.447,1.342 0.66,0.33 1.447,1.831 1.447,7.1050003 l 0,0.996 c 0,0 -0.004,1.001 -0.004,3.114 0,0.852 -0.501,1.154 -0.97,1.154 -0.496,0 -1.025,-0.332 -1.025,-1.264 l 0,-2 c 0,-3.767 -0.303,-7.7700003 -2.553,-8.8950003 -0.495,-0.248 -1.095,-0.046 -1.342,0.447 -0.247,0.494 -0.047,1.095 0.447,1.342 0.66,0.33 1.447,1.8310003 1.447,7.1050003 l 0,2 c 0,0.021 0.005,0.039 0.005,0.06 -10e-4,0.017 -0.01,0.032 -0.01,0.049 0,0.852 -0.501,1.154 -0.97,1.154 -0.496,0.004 -1.025,-0.328 -1.025,-1.26 0,-3.394 0,-7.618 -2.553,-8.8950003 -0.495,-0.248 -1.095,-0.046 -1.342,0.447 C 4.859,10.22376 5.059,10.82476 5.553,11.07176 c 1.448,0.724 1.448,4.719 1.448,7.106 0,2.143 1.522,3.264 3.025,3.264 0.722,0 1.445,-0.263 1.999,-0.769 0.56,0.505 1.281,0.769 2.001,0.769 1.236,0 2.473,-0.769 2.846,-2.232 0.368,0.151 0.761,0.232 1.154,0.232 1.476,0 2.97,-1.083 2.97,-3.154 l 0,-7.1100003 c 0,-3.375 -2.194,-5.613 -2.288,-5.707 z"
     id="path6"
     inkscape:connector-curvature="0"
     style="fill:#583529" />
</svg>
