<?xml version="1.0" encoding="UTF-8" standalone="no"?>
<svg
   xmlns:dc="http://purl.org/dc/elements/1.1/"
   xmlns:cc="http://creativecommons.org/ns#"
   xmlns:rdf="http://www.w3.org/1999/02/22-rdf-syntax-ns#"
   xmlns:svg="http://www.w3.org/2000/svg"
   xmlns="http://www.w3.org/2000/svg"
   xmlns:sodipodi="http://sodipodi.sourceforge.net/DTD/sodipodi-0.dtd"
   xmlns:inkscape="http://www.inkscape.org/namespaces/inkscape"
   viewBox="0 0 34.242615 26.488111"
   id="svg2"
   version="1.1"
   inkscape:version="0.91 r13725"
   sodipodi:docname="1f91d.svg"
   width="34.242615"
   height="26.488111">
  <metadata
     id="metadata18">
    <rdf:RDF>
      <cc:Work
         rdf:about="">
        <dc:format>image/svg+xml</dc:format>
        <dc:type
           rdf:resource="http://purl.org/dc/dcmitype/StillImage" />
      </cc:Work>
    </rdf:RDF>
  </metadata>
  <defs
     id="defs16" />
  <sodipodi:namedview
     pagecolor="#ffffff"
     bordercolor="#666666"
     borderopacity="1"
     objecttolerance="10"
     gridtolerance="10"
     guidetolerance="10"
     inkscape:pageopacity="0"
     inkscape:pageshadow="2"
     inkscape:window-width="640"
     inkscape:window-height="480"
     id="namedview14"
     showgrid="false"
     inkscape:zoom="6.5555556"
     inkscape:cx="16.999613"
     inkscape:cy="13.488533"
     inkscape:window-x="0"
     inkscape:window-y="0"
     inkscape:window-maximized="0"
     inkscape:current-layer="svg2" />
  <path
     d="m 15.999613,12.999579 c 0,0 -6.031,5.274 -7.74,6.832 -1.323,1.203 0.88,3.498 2.135,2.452 3.333,-2.785 6.493,-4.85 6.493,-4.85 l 0.367,0.526 c -1.309,0.79 -4.693,2.858 -6.449,4.438 -1.324,1.19 0.767,3.553 2.093,2.365 1.822,-1.634 5.995,-4.565 5.995,-4.565 l 0.368,0.384 c -1.08,0.679 -2.772,1.94 -4.985,3.958 -1.332,1.215 0.619,2.485 1.764,1.534 3.116,-2.586 3.232,-4.383 6.661,-5.85 5.233,-2.238 -6.702,-7.224 -6.702,-7.224 z"
     id="path4"
     inkscape:connector-curvature="0"
     style="fill:#ef9645" />
  <path
     d="m 28.978613,3.8355786 c 0.881,-0.438 1.653,0.144 2.106,1.053 0.448,0.911 2.532,5.015 2.953,5.8690004 0.425,0.852 0.191,2.103 -0.719,2.553 -0.911,0.453 -2.234,1.054 -3.092,2.512 -0.465,0.794 -2.396,2.887 -7.629,5.129 -3.427,1.462 -6.165,3.938 -7.261,4.8 -0.886,0.698 -2.673,-0.637 -1.343,-1.85 2.214,-2.02 3.906,-3.281 4.985,-3.958 l -0.368,-0.386 c 0,0 -4.381,3.056 -6.238,4.65 -1.261,1.085 -2.938,-0.953 -1.613,-2.142 1.757,-1.58 4.902,-3.954 6.211,-4.744 l -0.366,-0.529 c 0,0 -3.43,2.231 -6.765,5.02 -1.113,0.93 -2.847,-1.159 -1.525,-2.364 1.71,-1.555 5.043,-4.343 7.093,-5.499 l -0.196,-0.609 c 0,0 -3.218,1.805 -5.996,4.494 -0.994,0.961 -2.974,-0.818 -1.525,-2.293 3.462,-3.522 7.958,-5.6090004 9.154,-6.4130004 1.606,-1.08 2.451,-1.754 1.606,-2.133 -1.274,-0.573 -3.396,-2.582 -4.21,-4.21 -1.053,-2.10599999 0.44,-3.76999999 2.105,-2.10599999 1.053,1.05299999 3.159,3.15799999 5.263,3.15799999 2.829,0 3.262,1.053 5.264,1.053 1.054,-0.002 2.106,-1.055 2.106,-1.055"
     id="path6"
     inkscape:connector-curvature="0"
     style="fill:#ffcc4d" />
  <path
     d="m 24.047613,10.166579 c -0.334,10e-4 -1.439,-0.15 -2.684,-0.7250004 -1.073,-0.494 -1.905,-1.39 -2.597,-2.142 0.039,0.161 -0.065,0.354 -0.283,0.58 0.681,0.792 1.723,1.696 2.654,2.1460004 1.082,0.525 2.315,0.79 2.871,0.767 0.572,-0.024 0.385,-0.622 0.039,-0.626 z m 2.167,8.58 c -2.264,-1.054 -4.062,-1.934 -0.974,-0.66 1.277,0.525 3.194,-2.06 1.315,-2.917 -3.782,-1.726 -15.556,-8.1700004 -15.556,-8.1700004 0,0 -6.368,7.4370004 -5.58,7.9140004 0.789,0.474 1.118,3.849 5.665,6.818 4.298,2.808 6.975,4.015 7.981,4.518 2.107,1.053 3.477,-1.678 1.833,-2.412 -2.833,-1.266 -2.734,-1.343 1.418,0.382 1.537,0.64 2.829,-2.25 1.205,-2.981 -2.422,-1.089 -2.64,-1.221 1.239,0.527 1.435,0.643 3.073,-2.264 1.454,-3.019 z"
     id="path8"
     inkscape:connector-curvature="0"
     style="fill:#ef9645" />
  <path
     d="m 6.089613,4.2775786 c -0.842,-0.509 -1.96,-0.256 -2.485,0.615 -0.525,0.871 -2.82799998,4.683 -3.31899998,5.5000004 -0.492,0.816 -0.364,2.079 0.506,2.604 0.86999998,0.526 2.44699998,1.477 3.23599998,1.952 0.789,0.477 4.011,4.477 8.662,7.279 4.648,2.808 6.366,3.286 7.412,3.697 1.05,0.41 2.437,-1.683 0.793,-2.416 -2.837,-1.268 -4.836,-2.438 -5.859,-3.205 l 0.318,-0.585 c 0,0 2.837,2.12 6.987,3.848 1.537,0.64 2.79,-1.754 1.167,-2.487 -2.423,-1.089 -5.412,-2.894 -6.651,-3.79 l 0.346,-0.571 c 0,0 3.946,2.494 7.825,4.242 1.431,0.645 2.632,-1.786 1.013,-2.542 -2.26,-1.054 -5.448,-2.955 -7.394,-4.277 l 0.338,-0.5 c 0,0 3.615,2.551 6.705,3.823 1.277,0.528 2.78,-1.861 0.899,-2.721 -3.779,-1.725 -8.064,-4.7440004 -9.188,-5.6440004 -0.918,-0.737 -1.181,-2.413 1.052,-3.158 3.158,-1.053 4.211,-3.158 4.211,-4.211 0,-1.48899999 -1.376,-2.14599999 -2.104,-1.05299999 -2.107,3.15799999 -3.166,2.08199999 -5.263,3.15799999 -2.514,1.291 -5.466,2.662 -7.179,1.628 -0.733,-0.441 -2.028,-1.186 -2.028,-1.186"
     id="path10"
     inkscape:connector-curvature="0"
     style="fill:#ffdc5d" />
  <path
     d="m 17.947613,6.7205786 5.426,-2.712 c -0.477,-0.102 -1.04,-0.172 -1.763,-0.172 -2.104,0 -4.21,-2.105 -5.263,-3.15799999 -1.665,-1.664 -3.158,0 -2.105,2.10599999 0.715,1.428 2.433,3.148 3.705,3.936 z"
     id="path12"
     inkscape:connector-curvature="0"
     style="fill:#ffcc4d" />
</svg>
