<?xml version="1.0" encoding="UTF-8" standalone="no"?>
<svg
   xmlns:dc="http://purl.org/dc/elements/1.1/"
   xmlns:cc="http://creativecommons.org/ns#"
   xmlns:rdf="http://www.w3.org/1999/02/22-rdf-syntax-ns#"
   xmlns:svg="http://www.w3.org/2000/svg"
   xmlns="http://www.w3.org/2000/svg"
   xmlns:sodipodi="http://sodipodi.sourceforge.net/DTD/sodipodi-0.dtd"
   xmlns:inkscape="http://www.inkscape.org/namespaces/inkscape"
   viewBox="0 0 36 36"
   id="svg2"
   version="1.1"
   inkscape:version="0.91 r13725"
   sodipodi:docname="1f913.svg"
   width="36"
   height="36">
  <metadata
     id="metadata20">
    <rdf:RDF>
      <cc:Work
         rdf:about="">
        <dc:format>image/svg+xml</dc:format>
        <dc:type
           rdf:resource="http://purl.org/dc/dcmitype/StillImage" />
      </cc:Work>
    </rdf:RDF>
  </metadata>
  <defs
     id="defs18" />
  <sodipodi:namedview
     pagecolor="#ffffff"
     bordercolor="#666666"
     borderopacity="1"
     objecttolerance="10"
     gridtolerance="10"
     guidetolerance="10"
     inkscape:pageopacity="0"
     inkscape:pageshadow="2"
     inkscape:window-width="640"
     inkscape:window-height="480"
     id="namedview16"
     showgrid="false"
     inkscape:zoom="6.5555556"
     inkscape:cx="18"
     inkscape:cy="18"
     inkscape:window-x="0"
     inkscape:window-y="0"
     inkscape:window-maximized="0"
     inkscape:current-layer="svg2" />
  <circle
     cx="18"
     cy="18"
     r="18"
     id="circle4"
     style="fill:#ffcc4d" />
  <path
     d="M 27.335,23.629 C 27.157,23.468 26.891,23.458 26.7,23.6 26.661,23.629 22.778,26.5 18,26.5 13.234,26.5 9.338,23.629 9.3,23.6 9.109,23.458 8.843,23.47 8.665,23.629 8.488,23.789 8.448,24.053 8.571,24.257 8.7,24.472 11.788,29.5 18,29.5 c 6.212,0 9.301,-5.028 9.429,-5.243 0.123,-0.205 0.084,-0.468 -0.094,-0.628 z"
     id="path6"
     inkscape:connector-curvature="0"
     style="fill:#664500" />
  <path
     d="m 18,26.591 c -0.148,0 -0.291,-0.011 -0.438,-0.016 l 0,4.516 0.875,0 0,-4.517 C 18.292,26.579 18.148,26.591 18,26.591 Z"
     id="path8"
     inkscape:connector-curvature="0"
     style="fill:#65471b" />
  <path
     d="m 22,26 c 0.016,-0.004 -1.45,0.378 -2.446,0.486 -0.366,0.042 -0.737,0.076 -1.117,0.089 l 0,4.517 1.563,0 c 1.1,0 2,-0.9 2,-2 L 22,26 Z m -8,0 c -0.016,-0.004 1.45,0.378 2.446,0.486 0.366,0.042 0.737,0.076 1.117,0.089 l 0,4.517 -1.563,0 c -1.1,0 -2,-0.9 -2,-2 L 14,26 Z"
     id="path10"
     inkscape:connector-curvature="0"
     style="fill:#ffffff" />
  <path
     d="M 27.335,23.629 C 27.157,23.468 26.891,23.458 26.7,23.6 c -0.03,0.022 -2.259,1.668 -5.411,2.47 -0.443,0.113 -1.864,0.43 -3.286,0.431 -1.424,0 -2.849,-0.318 -3.292,-0.431 C 11.559,25.268 9.33,23.622 9.3,23.6 9.11,23.458 8.843,23.468 8.665,23.629 c -0.178,0.16 -0.217,0.423 -0.094,0.628 0.097,0.162 1.885,3.067 5.429,4.481 l 0,-1.829 c -0.016,-0.004 1.45,0.378 2.446,0.486 0.366,0.042 0.737,0.076 1.117,0.089 0.146,0.005 0.289,0.016 0.437,0.016 0.148,0 0.291,-0.011 0.438,-0.016 0.38,-0.013 0.751,-0.046 1.117,-0.089 0.996,-0.108 2.462,-0.49 2.446,-0.486 l 0,1.829 c 3.544,-1.414 5.332,-4.319 5.429,-4.481 0.122,-0.205 0.083,-0.468 -0.095,-0.628 z m -0.711,-9.605 c 0,1.714 -0.938,3.104 -2.096,3.104 -1.157,0 -2.096,-1.39 -2.096,-3.104 0,-1.714 0.938,-3.104 2.096,-3.104 1.158,0 2.096,1.39 2.096,3.104 z m -17.167,0 c 0,1.714 0.938,3.104 2.096,3.104 1.157,0 2.096,-1.39 2.096,-3.104 0,-1.714 -0.938,-3.104 -2.096,-3.104 -1.158,0 -2.096,1.39 -2.096,3.104 z"
     id="path12"
     inkscape:connector-curvature="0"
     style="fill:#65471b" />
  <path
     d="M 34.808,9.627 C 34.637,9.461 33.541,9.901 32.432,9.336 30.144,8.17 24.362,7.045 20.598,9.712 20.195,9.997 18.511,10.045 18.04,10.025 17.569,10.046 15.885,9.998 15.482,9.712 11.719,7.045 5.937,8.17 3.649,9.336 2.54,9.901 1.444,9.461 1.273,9.627 c -0.247,0.239 -0.247,1.196 0.001,1.436 0.246,0.239 1.477,0.515 1.722,1.232 0.247,0.718 0.249,4.958 2.213,6.424 1.839,1.372 6.129,1.785 8.848,0.238 2.372,-1.349 2.289,-4.189 2.724,-5.881 0.155,-0.603 0.592,-0.907 1.26,-0.907 0.668,0 1.105,0.304 1.26,0.907 0.435,1.691 0.351,4.532 2.724,5.881 2.719,1.546 7.009,1.133 8.847,-0.238 1.965,-1.465 1.967,-5.706 2.213,-6.424 0.245,-0.717 1.476,-0.994 1.722,-1.232 0.248,-0.24 0.249,-1.197 10e-4,-1.436 z m -20.194,3.65 c -0.077,1.105 -0.274,3.227 -1.597,3.98 C 12.206,17.719 11.149,18 10.043,18 l -10e-4,0 C 8.817,18 7.119,17.653 6.455,17.158 5.625,16.539 5.309,13.991 5.19,13.038 5.114,12.431 4.91,10.948 5.578,10.72 c 1.06,-0.361 2.539,-0.643 4.052,-0.643 0.693,0 3.021,0.043 4.155,0.741 1.005,0.617 0.872,1.851 0.829,2.459 z m 16.278,-0.253 c -0.119,0.954 -0.435,3.515 -1.265,4.134 C 28.963,17.653 27.265,18 26.04,18 l -10e-4,0 c -1.107,0 -2.163,-0.281 -2.975,-0.743 -1.323,-0.752 -1.52,-2.861 -1.597,-3.966 -0.042,-0.608 -0.176,-1.851 0.829,-2.468 1.135,-0.698 3.462,-0.746 4.155,-0.746 1.513,0 2.991,0.277 4.052,0.638 0.668,0.228 0.465,1.702 0.389,2.309 z"
     id="path14"
     inkscape:connector-curvature="0"
     style="fill:#292f33" />
</svg>
