<?xml version="1.0" encoding="UTF-8" standalone="no"?>
<svg
   xmlns:dc="http://purl.org/dc/elements/1.1/"
   xmlns:cc="http://creativecommons.org/ns#"
   xmlns:rdf="http://www.w3.org/1999/02/22-rdf-syntax-ns#"
   xmlns:svg="http://www.w3.org/2000/svg"
   xmlns="http://www.w3.org/2000/svg"
   xmlns:sodipodi="http://sodipodi.sourceforge.net/DTD/sodipodi-0.dtd"
   xmlns:inkscape="http://www.inkscape.org/namespaces/inkscape"
   viewBox="0 0 36 36"
   id="svg2"
   version="1.1"
   inkscape:version="0.91 r13725"
   sodipodi:docname="1f910.svg"
   width="36"
   height="36">
  <metadata
     id="metadata14">
    <rdf:RDF>
      <cc:Work
         rdf:about="">
        <dc:format>image/svg+xml</dc:format>
        <dc:type
           rdf:resource="http://purl.org/dc/dcmitype/StillImage" />
      </cc:Work>
    </rdf:RDF>
  </metadata>
  <defs
     id="defs12" />
  <sodipodi:namedview
     pagecolor="#ffffff"
     bordercolor="#666666"
     borderopacity="1"
     objecttolerance="10"
     gridtolerance="10"
     guidetolerance="10"
     inkscape:pageopacity="0"
     inkscape:pageshadow="2"
     inkscape:window-width="640"
     inkscape:window-height="480"
     id="namedview10"
     showgrid="false"
     inkscape:zoom="6.5555556"
     inkscape:cx="18"
     inkscape:cy="18"
     inkscape:window-x="0"
     inkscape:window-y="0"
     inkscape:window-maximized="0"
     inkscape:current-layer="svg2" />
  <circle
     cx="18"
     cy="18"
     r="18"
     id="circle4"
     style="fill:#ffcc4d" />
  <path
     d="m 14.034,14.499 c 0,1.934 -1.119,3.5 -2.5,3.5 -1.381,0 -2.5,-1.566 -2.5,-3.5 0,-1.933 1.119,-3.5 2.5,-3.5 1.381,0 2.5,1.567 2.5,3.5 m 13,0 c 0,1.934 -1.119,3.5 -2.5,3.5 -1.381,0 -2.5,-1.566 -2.5,-3.5 0,-1.933 1.119,-3.5 2.5,-3.5 1.381,0 2.5,1.567 2.5,3.5 m -2.033,12.505 -15.001,0 c -1,0 -1,-1 -1,-1 l 0,-1 c 0,0 0,-1.003 1,-1.003 l 15.001,0.003 0,3 z"
     id="path6"
     inkscape:connector-curvature="0"
     style="fill:#664500" />
  <path
     d="m 35.255,26.084 -7.713,-2.121 c -0.72,-0.197 -1.049,0.287 -1.171,0.547 l -1.64,-0.784 -0.731,1.529 0,-2.254 -2,0 0,2 -2,0 0,-2 -2.001,0 0,2 -1.999,0 0,-2 -2,0 0,2 -2,0 0,-2 -2,0 0,3 2,0 0,2 2,0 0,-2 1.999,0 0,2 2,0 0,-2 2.001,0 0,2 2,0 0,-2 1.643,0 -0.58,1.212 1.648,0.788 -0.099,0.207 c 0,0 -0.248,0.737 0.373,1.275 0.621,0.537 5.285,4.735 5.285,4.735 0,0 0.899,0.866 1.769,0.079 0.738,-0.67 3.649,-6.02 3.914,-6.983 0.266,-0.964 -0.698,-1.23 -0.698,-1.23 z m -3.772,6.071 -2.644,-2.248 1.614,-3.069 3.338,1.132 -2.308,4.185 z"
     id="path8"
     inkscape:connector-curvature="0"
     style="fill:#99aab5" />
</svg>
