<?xml version="1.0" encoding="UTF-8" standalone="no"?>
<svg
   xmlns:dc="http://purl.org/dc/elements/1.1/"
   xmlns:cc="http://creativecommons.org/ns#"
   xmlns:rdf="http://www.w3.org/1999/02/22-rdf-syntax-ns#"
   xmlns:svg="http://www.w3.org/2000/svg"
   xmlns="http://www.w3.org/2000/svg"
   xmlns:sodipodi="http://sodipodi.sourceforge.net/DTD/sodipodi-0.dtd"
   xmlns:inkscape="http://www.inkscape.org/namespaces/inkscape"
   viewBox="0 0 36 35"
   id="svg2"
   version="1.1"
   inkscape:version="0.91 r13725"
   sodipodi:docname="1f916.svg"
   width="36"
   height="35">
  <metadata
     id="metadata36">
    <rdf:RDF>
      <cc:Work
         rdf:about="">
        <dc:format>image/svg+xml</dc:format>
        <dc:type
           rdf:resource="http://purl.org/dc/dcmitype/StillImage" />
      </cc:Work>
    </rdf:RDF>
  </metadata>
  <defs
     id="defs34" />
  <sodipodi:namedview
     pagecolor="#ffffff"
     bordercolor="#666666"
     borderopacity="1"
     objecttolerance="10"
     gridtolerance="10"
     guidetolerance="10"
     inkscape:pageopacity="0"
     inkscape:pageshadow="2"
     inkscape:window-width="640"
     inkscape:window-height="480"
     id="namedview32"
     showgrid="false"
     inkscape:zoom="6.5555556"
     inkscape:cx="18"
     inkscape:cy="17"
     inkscape:window-x="0"
     inkscape:window-y="0"
     inkscape:window-maximized="0"
     inkscape:current-layer="svg2" />
  <ellipse
     cx="33.5"
     cy="14.5"
     rx="2.5"
     ry="3.5"
     id="ellipse4"
     style="fill:#f4900c" />
  <ellipse
     cx="2.5"
     cy="14.5"
     rx="2.5"
     ry="3.5"
     id="ellipse6"
     style="fill:#f4900c" />
  <path
     d="m 34,19 c 0,0.553 -0.447,1 -1,1 l -3,0 c -0.553,0 -1,-0.447 -1,-1 l 0,-9 c 0,-0.552 0.447,-1 1,-1 l 3,0 c 0.553,0 1,0.448 1,1 l 0,9 z M 7,19 c 0,0.553 -0.448,1 -1,1 L 3,20 C 2.448,20 2,19.553 2,19 L 2,10 C 2,9.448 2.448,9 3,9 l 3,0 c 0.552,0 1,0.448 1,1 l 0,9 z"
     id="path8"
     inkscape:connector-curvature="0"
     style="fill:#ffac33" />
  <path
     d="M 28,5 C 28,7.761 23.522,9 18,9 12.477,9 8,7.761 8,5 8,2.239 12.477,0 18,0 23.522,0 28,2.239 28,5 Z"
     id="path10"
     inkscape:connector-curvature="0"
     style="fill:#ffcc4d" />
  <path
     d="M 25,4.083 C 25,5.694 21.865,7 18,7 14.134,7 11,5.694 11,4.083 c 0,-1.611 3.134,-2.917 7,-2.917 3.865,0 7,1.306 7,2.917 z"
     id="path12"
     inkscape:connector-curvature="0"
     style="fill:#f4900c" />
  <path
     d="M 30,5.5 C 30,6.881 28.881,7 27.5,7 L 8.5,7 C 7.119,7 6,6.881 6,5.5 6,4.119 7.119,3 8.5,3 l 19,0 C 28.881,3 30,4.119 30,5.5 Z"
     id="path14"
     inkscape:connector-curvature="0"
     style="fill:#226699" />
  <path
     d="M 30,6 6,6 C 4.896,6 4,6.896 4,8 L 4,34 32,34 32,8 C 32,6.896 31.104,6 30,6 Z"
     id="path16"
     inkscape:connector-curvature="0"
     style="fill:#55acee" />
  <path
     d="m 35,33 0,-1 c 0,-1.104 -0.896,-2 -2,-2 l -10.929,0 -3.364,3.364 c -0.391,0.391 -1.023,0.391 -1.414,0 L 13.929,30 3,30 c -1.104,0 -2,0.896 -2,2 l 0,1 c 0,1.104 -0.104,2 1,2 l 32,0 c 1.104,0 1,-0.896 1,-2 z"
     id="path18"
     inkscape:connector-curvature="0"
     style="fill:#3b88c3" />
  <circle
     cx="24.5"
     cy="14.5"
     r="4.5"
     id="circle20"
     style="fill:#ffffff" />
  <circle
     cx="24.5"
     cy="14.5"
     r="2.721"
     id="circle22"
     style="fill:#dd2e44" />
  <circle
     cx="11.5"
     cy="14.5"
     r="4.5"
     id="circle24"
     style="fill:#ffffff" />
  <path
     d="m 29,25.5 c 0,1.381 -1.119,2.5 -2.5,2.5 l -17,0 C 8.119,28 7,26.881 7,25.5 7,24.119 8.119,23 9.5,23 l 17,0 c 1.381,0 2.5,1.119 2.5,2.5 z"
     id="path26"
     inkscape:connector-curvature="0"
     style="fill:#f5f8fa" />
  <path
     d="m 17,23 2,0 0,5 -2,0 z m -5,0 2,0 0,5 -2,0 z m 10,0 2,0 0,5 -2,0 z M 7,25.5 c 0,1.21 0.859,2.218 2,2.45 l 0,-4.9 C 7.859,23.282 7,24.29 7,25.5 Z m 20,-2.45 0,4.899 c 1.141,-0.232 2,-1.24 2,-2.45 0,-1.21 -0.859,-2.217 -2,-2.449 z"
     id="path28"
     inkscape:connector-curvature="0"
     style="fill:#ccd6dd" />
  <circle
     cx="11.5"
     cy="14.5"
     r="2.721"
     id="circle30"
     style="fill:#dd2e44" />
</svg>
