<?xml version="1.0" encoding="UTF-8" standalone="no"?>
<svg
   xmlns:dc="http://purl.org/dc/elements/1.1/"
   xmlns:cc="http://creativecommons.org/ns#"
   xmlns:rdf="http://www.w3.org/1999/02/22-rdf-syntax-ns#"
   xmlns:svg="http://www.w3.org/2000/svg"
   xmlns="http://www.w3.org/2000/svg"
   xmlns:sodipodi="http://sodipodi.sourceforge.net/DTD/sodipodi-0.dtd"
   xmlns:inkscape="http://www.inkscape.org/namespaces/inkscape"
   viewBox="0 0 22.419167 33.411259"
   id="svg2"
   version="1.1"
   inkscape:version="0.91 r13725"
   sodipodi:docname="1f91e-1f3fe.svg"
   width="22.419167"
   height="33.411259">
  <metadata
     id="metadata16">
    <rdf:RDF>
      <cc:Work
         rdf:about="">
        <dc:format>image/svg+xml</dc:format>
        <dc:type
           rdf:resource="http://purl.org/dc/dcmitype/StillImage" />
      </cc:Work>
    </rdf:RDF>
  </metadata>
  <defs
     id="defs14" />
  <sodipodi:namedview
     pagecolor="#ffffff"
     bordercolor="#666666"
     borderopacity="1"
     objecttolerance="10"
     gridtolerance="10"
     guidetolerance="10"
     inkscape:pageopacity="0"
     inkscape:pageshadow="2"
     inkscape:window-width="640"
     inkscape:window-height="480"
     id="namedview12"
     showgrid="false"
     inkscape:zoom="6.5555556"
     inkscape:cx="11"
     inkscape:cy="18"
     inkscape:window-x="0"
     inkscape:window-y="0"
     inkscape:window-maximized="0"
     inkscape:current-layer="svg2" />
  <path
     d="m 19.362,15.924259 -0.372,-0.521 -4.656,-6.523 2.28,-0.006 0.514,-1.366 0,-5.897 -2.168,0 -0.628,1.165 -3.602,0.591 c -0.613,0.525 -0.879,1.383 -0.586,2.187 l 1.721,4.727 0,2.882 -1.93,2.449 c -0.083,0.031 -0.62,0.313 -0.773,0.44 l -0.162,0.137 -3.611,-3.954 c -0.817,0.364 -1.389,1.181 -1.389,2.133 l 0,0.96 -4,4.166 0.016,2.188 9.984,10.729 c 0,0 10.518,-15.288 10.543,-15.258 -0.286,-0.504 -0.689,-0.926 -1.181,-1.229 z"
     id="path4"
     inkscape:connector-curvature="0"
     style="fill:#90603e" />
  <g
     id="g6"
     style="fill:#af7e57"
     transform="translate(-7,-2.588741)">
    <path
       d="m 9.062,25 c 1.024,0 1.925,-0.526 2.45,-1.322 0.123,0.183 0.271,0.346 0.431,0.497 1.185,1.115 3.034,1.044 4.167,-0.086 0.152,-0.152 0.303,-0.305 0.419,-0.488 L 16.526,23.598 C 16.727,23.713 17,24 18,24 l 2.537,0 c -0.37,0.279 -0.708,0.623 -1.024,1 -1.228,1.467 -2.013,3.606 -2.013,6 0,0.276 0.224,0.5 0.5,0.5 0.276,0 0.5,-0.224 0.5,-0.5 0,-2.548 0.956,-4.775 2.377,-6 0.732,-0.631 1.584,-1 2.498,-1 0.713,0.079 0.847,-1 0.125,-1 L 18,23 c -1.104,0 -2,-0.896 -2,-2 0,-1.104 0.896,-2 2,-2 l 8,0 c 0.858,0 1.66,0.596 1.913,1.415 L 29,24 c 0.103,0.335 0.479,1.871 0.411,2.191 C 29.411,31 24.715,36 19,36 12.463,36 7.156,30.769 7.014,24.266 l 0.014,0.01 C 7.543,24.721 8.204,25 8.938,25 l 0.124,0 z M 18,18 c -0.703,0 -1.066,0.202 -1.066,0.202 L 18.865,12.871 20.731,18 18,18 Z"
       id="path8"
       inkscape:connector-curvature="0" />
    <path
       d="m 8.916,16 0.168,0 C 10.143,16 11,16.858 11,17.917 l 0,4.166 C 11,23.142 10.143,24 9.084,24 L 8.916,24 C 7.857,24 7,23.142 7,22.083 L 7,17.917 C 7,16.858 7.857,16 8.916,16 Z m 6.918,2.96 -0.056,0.062 C 15.304,19.551 15,20.233 15,21 c 0,0.063 0.013,0.123 0.018,0.185 0.044,0.678 0.308,1.292 0.728,1.774 -0.071,0.129 -0.163,0.243 -0.259,0.353 C 15.121,23.729 14.597,24 14,24 12.896,24 12,23.104 12,22 l 0,-6 c 0,-0.441 0.147,-0.845 0.389,-1.176 C 12.753,14.327 13.336,14 14,14 c 1.104,0 2,0.896 2,2 l 0,2.778 c -0.061,0.055 -0.109,0.123 -0.166,0.182 z M 22.226,3.707 c 0.445,-0.903 1.501,-1.35 2.468,-0.998 1.038,0.377 1.573,1.525 1.195,2.563 L 24.128,10.093 24.127,10.096 21.96,4.2 22.226,3.707 Z M 26.001,18 23.613,11.463 21.543,5.775 C 21.489,5.626 21.415,5.492 21.332,5.365 20.835,4.606 19.868,4.256 18.979,4.58 18.337,4.814 17.89,5.342 17.729,5.956 17.63,6.335 17.639,6.747 17.784,7.143 L 21.733,18 l 4.268,0 z"
       id="path10"
       inkscape:connector-curvature="0" />
  </g>
</svg>
