<?xml version="1.0" encoding="UTF-8" standalone="no"?>
<svg
   xmlns:dc="http://purl.org/dc/elements/1.1/"
   xmlns:cc="http://creativecommons.org/ns#"
   xmlns:rdf="http://www.w3.org/1999/02/22-rdf-syntax-ns#"
   xmlns:svg="http://www.w3.org/2000/svg"
   xmlns="http://www.w3.org/2000/svg"
   xmlns:sodipodi="http://sodipodi.sourceforge.net/DTD/sodipodi-0.dtd"
   xmlns:inkscape="http://www.inkscape.org/namespaces/inkscape"
   viewBox="0 0 36 36"
   id="svg2"
   version="1.1"
   inkscape:version="0.91 r13725"
   sodipodi:docname="1f929.svg"
   width="36"
   height="36">
  <metadata
     id="metadata16">
    <rdf:RDF>
      <cc:Work
         rdf:about="">
        <dc:format>image/svg+xml</dc:format>
        <dc:type
           rdf:resource="http://purl.org/dc/dcmitype/StillImage" />
      </cc:Work>
    </rdf:RDF>
  </metadata>
  <defs
     id="defs14" />
  <sodipodi:namedview
     pagecolor="#ffffff"
     bordercolor="#666666"
     borderopacity="1"
     objecttolerance="10"
     gridtolerance="10"
     guidetolerance="10"
     inkscape:pageopacity="0"
     inkscape:pageshadow="2"
     inkscape:window-width="640"
     inkscape:window-height="480"
     id="namedview12"
     showgrid="false"
     inkscape:zoom="6.5555556"
     inkscape:cx="18"
     inkscape:cy="18"
     inkscape:window-x="0"
     inkscape:window-y="0"
     inkscape:window-maximized="0"
     inkscape:current-layer="svg2" />
  <path
     d="M 36,18 C 36,27.941 27.941,36 18,36 8.059,36 0,27.941 0,18 0,8.059 8.059,0 18,0 27.941,0 36,8.059 36,18"
     id="path4"
     inkscape:connector-curvature="0"
     style="fill:#ffcc4d" />
  <path
     d="m 18,21 c -3.623,0 -6.027,-0.422 -9,-1 -0.679,-0.131 -2,0 -2,2 0,4 4.595,9 11,9 6.404,0 11,-5 11,-9 0,-2 -1.321,-2.132 -2,-2 -2.973,0.578 -5.377,1 -9,1 z"
     id="path6"
     inkscape:connector-curvature="0"
     style="fill:#664500" />
  <path
     d="m 9,22 c 0,0 3,1 9,1 6,0 9,-1 9,-1 0,0 -2,4 -9,4 -7,0 -9,-4 -9,-4 z"
     id="path8"
     inkscape:connector-curvature="0"
     style="fill:#ffffff" />
  <path
     d="M 15.682,4.413 11.14,5.214 8.8,0.961 C 8.542,0.492 8.012,0.241 7.488,0.333 6.961,0.426 6.551,0.844 6.469,1.372 L 5.724,6.169 1.182,6.97 C 0.647,7.064 0.234,7.495 0.161,8.034 0.088,8.573 0.372,9.097 0.864,9.331 l 4.07,1.932 -0.748,4.812 c -0.083,0.536 0.189,1.064 0.673,1.309 0.179,0.09 0.371,0.133 0.562,0.133 0.327,0 0.65,-0.128 0.891,-0.372 l 3.512,-3.561 4.518,2.145 c 0.49,0.232 1.074,0.123 1.446,-0.272 0.372,-0.395 0.446,-0.984 0.185,-1.459 L 13.625,9.73 16.79,6.522 C 17.172,6.135 17.259,5.545 17.007,5.063 16.753,4.581 16.214,4.32 15.682,4.413 Z m 4.636,0 4.542,0.801 2.34,-4.253 c 0.258,-0.469 0.788,-0.72 1.312,-0.628 0.526,0.093 0.936,0.511 1.018,1.039 l 0.745,4.797 4.542,0.801 c 0.536,0.094 0.949,0.524 1.021,1.063 0.072,0.539 -0.211,1.063 -0.703,1.297 l -4.07,1.932 0.748,4.812 c 0.083,0.536 -0.189,1.064 -0.673,1.309 -0.179,0.09 -0.371,0.133 -0.562,0.133 -0.327,0 -0.65,-0.128 -0.891,-0.372 l -3.512,-3.561 -4.518,2.145 c -0.49,0.232 -1.074,0.123 -1.446,-0.272 -0.372,-0.395 -0.446,-0.984 -0.185,-1.459 L 22.374,9.73 19.209,6.522 C 18.827,6.135 18.74,5.545 18.992,5.063 19.247,4.581 19.786,4.32 20.318,4.413 Z"
     id="path10"
     inkscape:connector-curvature="0"
     style="fill:#e95f28" />
</svg>
