<?xml version="1.0" encoding="UTF-8" standalone="no"?>
<svg
   xmlns:dc="http://purl.org/dc/elements/1.1/"
   xmlns:cc="http://creativecommons.org/ns#"
   xmlns:rdf="http://www.w3.org/1999/02/22-rdf-syntax-ns#"
   xmlns:svg="http://www.w3.org/2000/svg"
   xmlns="http://www.w3.org/2000/svg"
   xmlns:sodipodi="http://sodipodi.sourceforge.net/DTD/sodipodi-0.dtd"
   xmlns:inkscape="http://www.inkscape.org/namespaces/inkscape"
   viewBox="0 0 35 32"
   id="svg2"
   version="1.1"
   inkscape:version="0.91 r13725"
   sodipodi:docname="1f925.svg"
   width="35"
   height="32">
  <metadata
     id="metadata14">
    <rdf:RDF>
      <cc:Work
         rdf:about="">
        <dc:format>image/svg+xml</dc:format>
        <dc:type
           rdf:resource="http://purl.org/dc/dcmitype/StillImage" />
      </cc:Work>
    </rdf:RDF>
  </metadata>
  <defs
     id="defs12" />
  <sodipodi:namedview
     pagecolor="#ffffff"
     bordercolor="#666666"
     borderopacity="1"
     objecttolerance="10"
     gridtolerance="10"
     guidetolerance="10"
     inkscape:pageopacity="0"
     inkscape:pageshadow="2"
     inkscape:window-width="640"
     inkscape:window-height="480"
     id="namedview10"
     showgrid="false"
     inkscape:zoom="6.5555556"
     inkscape:cx="18"
     inkscape:cy="16"
     inkscape:window-x="0"
     inkscape:window-y="0"
     inkscape:window-maximized="0"
     inkscape:current-layer="svg2" />
  <circle
     cx="16"
     cy="16"
     r="16"
     id="circle4"
     style="fill:#ffcc4d" />
  <path
     d="m 11.471,11.529 c 0,1.706 -0.987,3.088 -2.206,3.088 -1.219,0 -2.206,-1.382 -2.206,-3.088 0,-1.705 0.987,-3.088 2.206,-3.088 1.218,0 2.206,1.383 2.206,3.088 z m 11.529,0 c 0,1.706 -0.987,3.088 -2.206,3.088 -1.218,0 -2.206,-1.382 -2.206,-3.088 0,-1.705 0.988,-3.088 2.206,-3.088 1.219,0 2.206,1.383 2.206,3.088 z M 10.118,27.382 c 1.765,-4.412 11.471,-4.412 11.471,-2.647 -10e-4,0.883 -7.06,-0.882 -11.471,2.647 z"
     id="path6"
     inkscape:connector-curvature="0"
     style="fill:#664500" />
  <path
     d="M 32.262,15.5 17,15.5 c -1.511,0 -2.734,1.344 -2.734,3 0,1.657 1.224,3 2.734,3 l 15.262,0 c 1.513,0 2.738,-1.343 2.738,-3 0,-1.656 -1.226,-3 -2.738,-3 z"
     id="path8"
     inkscape:connector-curvature="0"
     style="fill:#f4900c" />
</svg>
