<?xml version="1.0" encoding="UTF-8" standalone="no"?>
<svg
   xmlns:dc="http://purl.org/dc/elements/1.1/"
   xmlns:cc="http://creativecommons.org/ns#"
   xmlns:rdf="http://www.w3.org/1999/02/22-rdf-syntax-ns#"
   xmlns:svg="http://www.w3.org/2000/svg"
   xmlns="http://www.w3.org/2000/svg"
   xmlns:sodipodi="http://sodipodi.sourceforge.net/DTD/sodipodi-0.dtd"
   xmlns:inkscape="http://www.inkscape.org/namespaces/inkscape"
   viewBox="0 0 34 35.999428"
   id="svg2"
   version="1.1"
   inkscape:version="0.91 r13725"
   sodipodi:docname="1f92d.svg"
   width="34"
   height="35.999428">
  <metadata
     id="metadata14">
    <rdf:RDF>
      <cc:Work
         rdf:about="">
        <dc:format>image/svg+xml</dc:format>
        <dc:type
           rdf:resource="http://purl.org/dc/dcmitype/StillImage" />
      </cc:Work>
    </rdf:RDF>
  </metadata>
  <defs
     id="defs12" />
  <sodipodi:namedview
     pagecolor="#ffffff"
     bordercolor="#666666"
     borderopacity="1"
     objecttolerance="10"
     gridtolerance="10"
     guidetolerance="10"
     inkscape:pageopacity="0"
     inkscape:pageshadow="2"
     inkscape:window-width="640"
     inkscape:window-height="480"
     id="namedview10"
     showgrid="false"
     inkscape:zoom="6.5555556"
     inkscape:cx="17"
     inkscape:cy="17.999428"
     inkscape:window-x="0"
     inkscape:window-y="0"
     inkscape:window-maximized="0"
     inkscape:current-layer="svg2" />
  <path
     d="M 34,17 C 34,26.389 26.389,34 17,34 7.612,34 0,26.389 0,17 0,7.612 7.612,0 17,0 26.389,0 34,7.612 34,17"
     id="path4"
     inkscape:connector-curvature="0"
     style="fill:#ffcc4d" />
  <path
     d="M 27.457,14.297 C 27.397,14.162 25.958,11 23,11 c -2.957,0 -4.397,3.162 -4.457,3.297 -0.092,0.207 -0.032,0.449 0.145,0.591 0.175,0.142 0.426,0.147 0.61,0.014 C 19.31,14.893 20.56,14 23,14 c 2.426,0 3.674,0.881 3.702,0.901 C 26.79,14.967 26.896,15 27,15 c 0.11,0 0.221,-0.037 0.312,-0.109 0.177,-0.142 0.238,-0.386 0.145,-0.594 z m -12,0 C 15.397,14.162 13.958,11 11,11 8.043,11 6.603,14.162 6.543,14.297 6.451,14.504 6.511,14.746 6.687,14.888 6.863,15.03 7.114,15.035 7.297,14.902 7.31,14.893 8.559,14 11,14 c 2.426,0 3.674,0.881 3.702,0.901 C 14.79,14.967 14.896,15 15,15 c 0.11,0 0.221,-0.037 0.312,-0.109 0.178,-0.142 0.237,-0.386 0.145,-0.594 z"
     id="path6"
     inkscape:connector-curvature="0"
     style="fill:#664500" />
  <path
     d="m 25.503,27.371 c 0,0 0.997,-0.721 0.165,-1.614 -0.832,-0.893 -1.621,0.052 -1.621,0.052 L 19.9,29.675 C 19.831,29.47 19.441,28.932 19.35,28.728 l 5.755,-5.366 c 0,0 0.998,-0.721 0.164,-1.615 -0.832,-0.892 -1.622,0.051 -1.622,0.051 l -5.413,5.046 c -0.125,-0.158 -0.461,-0.54 -0.594,-0.698 l 6.276,-5.85 c 0,0 0.997,-0.722 0.164,-1.614 -0.832,-0.893 -1.621,0.051 -1.621,0.051 l -6.278,5.848 c -0.15,-0.145 -0.612,-0.609 -0.764,-0.746 l 5.866,-5.468 c 0,0 0.996,-0.722 0.164,-1.614 -0.833,-0.893 -1.621,0.051 -1.621,0.051 l -6.203,5.781 -0.497,0.464 -0.222,0.207 c 0,0 -0.538,0.744 -1.087,0.179 l 1.842,-4.158 c 0,0 0.58,-1.074 -0.493,-1.655 -1.075,-0.581 -1.655,0.493 -1.655,0.493 L 9.843,20.873 C 9.18,21.966 8.494,23.051 7.684,24.04 5.4,26.833 5.473,30.954 8.002,33.669 c 2.759,2.959 7.396,3.122 10.355,0.364 l 0.447,-0.418 6.699,-6.244 z"
     id="path8"
     inkscape:connector-curvature="0"
     style="fill:#f4900c" />
</svg>
