<?xml version="1.0" encoding="UTF-8" standalone="no"?>
<svg
   xmlns:dc="http://purl.org/dc/elements/1.1/"
   xmlns:cc="http://creativecommons.org/ns#"
   xmlns:rdf="http://www.w3.org/1999/02/22-rdf-syntax-ns#"
   xmlns:svg="http://www.w3.org/2000/svg"
   xmlns="http://www.w3.org/2000/svg"
   xmlns:sodipodi="http://sodipodi.sourceforge.net/DTD/sodipodi-0.dtd"
   xmlns:inkscape="http://www.inkscape.org/namespaces/inkscape"
   viewBox="0 0 36 36"
   id="svg2"
   version="1.1"
   inkscape:version="0.91 r13725"
   sodipodi:docname="1f92c.svg"
   width="36"
   height="36">
  <metadata
     id="metadata16">
    <rdf:RDF>
      <cc:Work
         rdf:about="">
        <dc:format>image/svg+xml</dc:format>
        <dc:type
           rdf:resource="http://purl.org/dc/dcmitype/StillImage" />
      </cc:Work>
    </rdf:RDF>
  </metadata>
  <defs
     id="defs14" />
  <sodipodi:namedview
     pagecolor="#ffffff"
     bordercolor="#666666"
     borderopacity="1"
     objecttolerance="10"
     gridtolerance="10"
     guidetolerance="10"
     inkscape:pageopacity="0"
     inkscape:pageshadow="2"
     inkscape:window-width="640"
     inkscape:window-height="480"
     id="namedview12"
     showgrid="false"
     inkscape:zoom="6.5555556"
     inkscape:cx="18"
     inkscape:cy="18"
     inkscape:window-x="0"
     inkscape:window-y="0"
     inkscape:window-maximized="0"
     inkscape:current-layer="svg2" />
  <path
     d="M 36,18 C 36,27.941 27.941,36 18,36 8.06,36 0,27.941 0,18 0,8.06 8.06,0 18,0 27.941,0 36,8.06 36,18"
     id="path4"
     inkscape:connector-curvature="0"
     style="fill:#da2f47" />
  <path
     d="M 25.485,29.879 C 25.44,29.7 24.317,25.5 18,25.5 c -6.318,0 -7.44,4.2 -7.485,4.379 -0.055,0.217 0.043,0.442 0.237,0.554 0.195,0.109 0.439,0.079 0.6,-0.077 C 11.371,30.337 13.306,28.5 18,28.5 c 4.694,0 6.63,1.837 6.648,1.855 0.096,0.095 0.224,0.145 0.352,0.145 0.084,0 0.169,-0.021 0.246,-0.064 0.196,-0.112 0.294,-0.339 0.239,-0.557 z M 15.707,15.293 C 12.452,12.038 7.221,12 7,12 6.448,12 6.001,12.447 6.001,12.998 6,13.55 6.447,13.998 6.999,14 7.028,14 8.924,14.023 10.982,14.737 10.389,15.377 10,16.371 10,17.5 c 0,1.934 1.119,3.5 2.5,3.5 1.381,0 2.5,-1.566 2.5,-3.5 0,-0.174 -0.019,-0.34 -0.037,-0.507 0.013,0 0.025,0.007 0.037,0.007 0.256,0 0.512,-0.098 0.707,-0.293 0.391,-0.391 0.391,-1.023 0,-1.414 z M 29,12 c -0.221,0 -5.451,0.038 -8.707,3.293 -0.391,0.391 -0.391,1.023 0,1.414 C 20.488,16.902 20.744,17 21,17 21.013,17 21.024,16.993 21.036,16.993 21.02,17.16 21,17.326 21,17.5 21,19.434 22.119,21 23.5,21 24.881,21 26,19.434 26,17.5 26,16.371 25.611,15.377 25.018,14.737 27.076,14.023 28.972,14 29.002,14 29.553,13.998 30,13.55 29.999,12.998 29.998,12.447 29.552,12 29,12 Z"
     id="path6"
     inkscape:connector-curvature="0"
     style="fill:#292f33" />
  <path
     d="M 29.739,33 6.261,33 C 5.017,33 4,31.983 4,30.739 L 4,25 c 0,-1.244 1.017,-2.261 2.261,-2.261 l 23.478,0 C 30.983,22.739 32,23.756 32,25 l 0,5.739 C 32,31.983 30.983,33 29.739,33 Z"
     id="path8"
     inkscape:connector-curvature="0"
     style="fill:#292f33" />
  <path
     d="m 7.841,27.229 -0.818,0 c -0.314,0 -0.457,-0.229 -0.457,-0.457 0,-0.228 0.143,-0.456 0.457,-0.456 l 0.95,0 0.209,-1.53 c 0.047,-0.342 0.19,-0.456 0.475,-0.456 0.228,0 0.438,0.151 0.438,0.38 0,0.143 0,0.076 -0.019,0.229 l -0.19,1.378 0.913,0 0.209,-1.53 c 0.047,-0.342 0.19,-0.456 0.475,-0.456 0.228,0 0.438,0.151 0.438,0.38 0,0.143 0,0.076 -0.019,0.229 l -0.191,1.378 0.818,0 c 0.314,0 0.456,0.229 0.456,0.456 0,0.228 -0.143,0.457 -0.456,0.457 l -0.951,0 -0.152,1.083 0.818,0 c 0.314,0 0.456,0.229 0.456,0.457 0,0.228 -0.143,0.456 -0.456,0.456 l -0.951,0 -0.209,1.53 c -0.048,0.343 -0.191,0.456 -0.476,0.456 -0.228,0 -0.438,-0.151 -0.438,-0.38 0,-0.143 0,-0.076 0.019,-0.229 l 0.191,-1.378 -0.912,0 -0.209,1.53 c -0.048,0.343 -0.19,0.456 -0.476,0.456 -0.228,0 -0.438,-0.151 -0.438,-0.38 0,-0.143 0,-0.076 0.019,-0.229 l 0.19,-1.378 -0.816,0 c -0.313,0 -0.456,-0.229 -0.456,-0.456 0,-0.229 0.143,-0.457 0.456,-0.457 l 0.951,0 0.152,-1.083 z m 0.77,1.083 0.903,0 0.152,-1.083 -0.903,0 -0.152,1.083 z m 4.616,-2.5 c 0,-0.827 0.618,-1.54 1.464,-1.54 0.846,0 1.464,0.713 1.464,1.54 0,0.827 -0.618,1.531 -1.464,1.531 -0.847,0.001 -1.464,-0.703 -1.464,-1.531 z m 1.958,0 c 0,-0.304 -0.181,-0.57 -0.494,-0.57 -0.314,0 -0.495,0.267 -0.495,0.57 0,0.305 0.181,0.562 0.495,0.562 0.313,0 0.494,-0.257 0.494,-0.562 z m 2.31,-1.292 c 0.124,-0.237 0.219,-0.304 0.438,-0.304 0.295,0 0.561,0.237 0.561,0.532 0,0.076 0,0.143 -0.076,0.285 l -3.194,5.979 c -0.143,0.199 -0.2,0.313 -0.428,0.313 -0.247,0 -0.542,-0.237 -0.542,-0.522 0,-0.143 0.057,-0.275 0.095,-0.352 l 3.146,-5.931 z m -0.922,5.219 c 0,-0.827 0.618,-1.54 1.464,-1.54 0.846,0 1.464,0.713 1.464,1.54 0,0.826 -0.618,1.53 -1.464,1.53 -0.847,0.001 -1.464,-0.704 -1.464,-1.53 z m 1.958,0 c 0,-0.305 -0.181,-0.57 -0.495,-0.57 -0.314,0 -0.495,0.266 -0.495,0.57 0,0.304 0.181,0.561 0.495,0.561 0.314,0 0.495,-0.257 0.495,-0.561 z m 2.486,0.789 c 0,-0.409 0.333,-0.742 0.741,-0.742 0.409,0 0.742,0.333 0.742,0.742 0,0.408 -0.333,0.741 -0.742,0.741 -0.408,0.001 -0.741,-0.332 -0.741,-0.741 z m 0.057,-5.609 c 0,-0.399 0.294,-0.646 0.684,-0.646 0.381,0 0.685,0.257 0.685,0.646 l 0,3.66 c 0,0.39 -0.304,0.646 -0.685,0.646 -0.39,0 -0.684,-0.247 -0.684,-0.646 l 0,-3.66 z m 8.078,6.407 c -0.187,0 -0.304,-0.053 -0.431,-0.196 l -0.724,-0.79 -0.072,0.066 c -0.702,0.645 -1.308,0.919 -2.024,0.919 -1.109,0 -2.229,-0.632 -2.229,-2.044 0,-1.107 0.867,-1.769 1.384,-2.065 l 0.117,-0.067 -0.095,-0.098 c -0.425,-0.445 -0.599,-0.813 -0.599,-1.269 0,-1.077 0.983,-1.567 1.896,-1.567 0.764,0 1.84,0.453 1.84,1.458 0,0.951 -0.883,1.501 -1.153,1.647 l -0.115,0.062 1.161,1.341 0.444,-0.536 c 0.247,-0.297 0.391,-0.422 0.646,-0.422 0.205,0 0.424,0.184 0.424,0.523 0,0.254 -0.252,0.585 -0.499,0.875 l -0.297,0.335 0.706,0.838 c 0.131,0.156 0.185,0.239 0.185,0.428 0.001,0.295 -0.269,0.562 -0.565,0.562 z m -3.447,-3.474 c -0.428,0.287 -0.864,0.665 -0.864,1.291 0,0.656 0.427,1.079 1.089,1.079 0.552,0 0.909,-0.242 1.275,-0.606 l 0.071,-0.069 -1.5,-1.743 -0.071,0.048 z m 0.671,-2.711 c -0.28,0 -0.67,0.229 -0.67,0.602 0,0.348 0.171,0.56 0.534,0.929 l 0.051,0.052 0.063,-0.033 c 0.497,-0.26 0.749,-0.553 0.749,-0.869 10e-4,-0.468 -0.376,-0.681 -0.727,-0.681 z"
     id="path10"
     inkscape:connector-curvature="0"
     style="fill:#ffffff" />
</svg>
