<?xml version="1.0" encoding="UTF-8" standalone="no"?>
<svg
   xmlns:dc="http://purl.org/dc/elements/1.1/"
   xmlns:cc="http://creativecommons.org/ns#"
   xmlns:rdf="http://www.w3.org/1999/02/22-rdf-syntax-ns#"
   xmlns:svg="http://www.w3.org/2000/svg"
   xmlns="http://www.w3.org/2000/svg"
   xmlns:sodipodi="http://sodipodi.sourceforge.net/DTD/sodipodi-0.dtd"
   xmlns:inkscape="http://www.inkscape.org/namespaces/inkscape"
   viewBox="0 0 34 36"
   id="svg2"
   version="1.1"
   inkscape:version="0.91 r13725"
   sodipodi:docname="1f92e.svg"
   width="34"
   height="36">
  <metadata
     id="metadata22">
    <rdf:RDF>
      <cc:Work
         rdf:about="">
        <dc:format>image/svg+xml</dc:format>
        <dc:type
           rdf:resource="http://purl.org/dc/dcmitype/StillImage" />
      </cc:Work>
    </rdf:RDF>
  </metadata>
  <defs
     id="defs20" />
  <sodipodi:namedview
     pagecolor="#ffffff"
     bordercolor="#666666"
     borderopacity="1"
     objecttolerance="10"
     gridtolerance="10"
     guidetolerance="10"
     inkscape:pageopacity="0"
     inkscape:pageshadow="2"
     inkscape:window-width="640"
     inkscape:window-height="480"
     id="namedview18"
     showgrid="false"
     inkscape:zoom="6.5555556"
     inkscape:cx="17"
     inkscape:cy="18"
     inkscape:window-x="0"
     inkscape:window-y="0"
     inkscape:window-maximized="0"
     inkscape:current-layer="svg2" />
  <path
     d="M 34,17 C 34,26.389 26.389,34 17,34 7.612,34 0,26.389 0,17 0,7.612 7.612,0 17,0 26.389,0 34,7.612 34,17"
     id="path4"
     inkscape:connector-curvature="0"
     style="fill:#ffcb4c" />
  <path
     d="m 17,27.136 c 3.335,0 5.547,0.388 8.284,0.92 0.625,0.12 1.841,0 1.841,-1.841 0,-3.682 -4.23,-8.284 -10.125,-8.284 -5.895,0 -10.125,4.602 -10.125,8.284 0,1.841 1.216,1.962 1.841,1.841 2.736,-0.532 4.949,-0.92 8.284,-0.92 z m 11.9,-9.947 c -0.108,-0.081 -1.823,-1.347 -4.388,-2.214 0.026,-0.108 0.044,-0.22 0.044,-0.336 0,-0.349 -0.131,-0.664 -0.339,-0.91 1.703,-0.492 3.149,-0.506 3.175,-0.506 0.52,-0.001 0.943,-0.425 0.942,-0.946 -0.001,-0.521 -0.422,-0.943 -0.944,-0.943 -0.208,0 -5.148,0.036 -8.223,3.11 -0.27,0.27 -0.351,0.676 -0.205,1.029 0.146,0.353 0.491,0.583 0.872,0.583 4.335,0 7.899,2.618 7.935,2.645 0.17,0.126 0.368,0.187 0.564,0.187 0.288,0 0.572,-0.131 0.757,-0.378 0.311,-0.418 0.226,-1.008 -0.19,-1.321 z M 14.834,14.443 c -3.074,-3.075 -8.014,-3.11 -8.223,-3.11 -0.521,0 -0.943,0.422 -0.944,0.943 -10e-4,0.521 0.421,0.944 0.942,0.946 0.025,0 1.472,0.015 3.174,0.506 -0.208,0.247 -0.339,0.562 -0.339,0.91 0,0.116 0.018,0.228 0.044,0.336 -2.565,0.867 -4.281,2.133 -4.389,2.214 -0.417,0.313 -0.502,0.905 -0.189,1.322 0.185,0.248 0.469,0.378 0.756,0.378 0.197,0 0.396,-0.062 0.566,-0.189 0.035,-0.026 3.576,-2.644 7.933,-2.644 0.382,0 0.726,-0.23 0.872,-0.583 0.148,-0.353 0.068,-0.758 -0.203,-1.029 z"
     id="path6"
     inkscape:connector-curvature="0"
     style="fill:#65471b" />
  <path
     d="m 24.712,32.287 0,-7.101 c 0,-2.593 -3.889,-5.185 -7.778,-5.185 -3.889,0 -7.778,2.593 -7.778,5.185 l 0,7.101 C 4.753,32.636 1.797,33.272 1.797,34 c 0,1.105 6.777,2 15.137,2 8.36,0 15.137,-0.895 15.137,-2 0,-0.728 -2.956,-1.364 -7.359,-1.713 z"
     id="path8"
     inkscape:connector-curvature="0"
     style="fill:#77af57" />
  <circle
     cx="14.875"
     cy="23.228001"
     r="1.235"
     id="circle10"
     style="fill:#5d8f3f" />
  <circle
     cx="19.698"
     cy="25.639999"
     r="1.235"
     id="circle12"
     style="fill:#5d8f3f" />
  <circle
     transform="matrix(0.16020853,-0.98708319,0.98708319,0.16020853,0,0)"
     cx="-26.878517"
     cy="24.86027"
     id="ellipse14"
     r="1.235"
     style="fill:#5d8f3f" />
  <circle
     transform="matrix(0.16020853,-0.98708319,0.98708319,0.16020853,0,0)"
     cx="-29.867521"
     cy="19.13925"
     id="ellipse16"
     r="1.765"
     style="fill:#5d8f3f" />
</svg>
