<?xml version="1.0" encoding="UTF-8" standalone="no"?>
<svg
   xmlns:dc="http://purl.org/dc/elements/1.1/"
   xmlns:cc="http://creativecommons.org/ns#"
   xmlns:rdf="http://www.w3.org/1999/02/22-rdf-syntax-ns#"
   xmlns:svg="http://www.w3.org/2000/svg"
   xmlns="http://www.w3.org/2000/svg"
   xmlns:sodipodi="http://sodipodi.sourceforge.net/DTD/sodipodi-0.dtd"
   xmlns:inkscape="http://www.inkscape.org/namespaces/inkscape"
   viewBox="0 0 35.899269 35"
   id="svg2"
   version="1.1"
   inkscape:version="0.91 r13725"
   sodipodi:docname="1f920.svg"
   width="35.899269"
   height="35">
  <metadata
     id="metadata16">
    <rdf:RDF>
      <cc:Work
         rdf:about="">
        <dc:format>image/svg+xml</dc:format>
        <dc:type
           rdf:resource="http://purl.org/dc/dcmitype/StillImage" />
      </cc:Work>
    </rdf:RDF>
  </metadata>
  <defs
     id="defs14" />
  <sodipodi:namedview
     pagecolor="#ffffff"
     bordercolor="#666666"
     borderopacity="1"
     objecttolerance="10"
     gridtolerance="10"
     guidetolerance="10"
     inkscape:pageopacity="0"
     inkscape:pageshadow="2"
     inkscape:window-width="640"
     inkscape:window-height="480"
     id="namedview12"
     showgrid="false"
     inkscape:zoom="6.5555556"
     inkscape:cx="17.949634"
     inkscape:cy="18"
     inkscape:window-x="0"
     inkscape:window-y="0"
     inkscape:window-maximized="0"
     inkscape:current-layer="svg2" />
  <path
     d="m 32.949634,20 c 0,8.284 -6.716,15 -15,15 C 9.6656338,35 2.9496338,28.284 2.9496338,20 c 0,-8.284 6.716,-15 15.0000002,-15 8.284,0 15,6.716 15,15"
     id="path4"
     inkscape:connector-curvature="0"
     style="fill:#ffcc4d" />
  <path
     d="m 25.637634,24.605 c -0.146,-0.133 -0.366,-0.141 -0.522,-0.023 -0.032,0.023 -3.23,2.389 -7.165,2.389 -3.925,0 -7.133,-2.365 -7.165,-2.389 -0.157,-0.117 -0.376,-0.107 -0.523,0.023 -0.146,0.132 -0.179,0.35 -0.077,0.517 0.105,0.178 2.648,4.318 7.764,4.318 5.115,0 7.659,-4.141 7.765,-4.317 0.101,-0.169 0.069,-0.386 -0.077,-0.518 z m -10.982,-5.84 c 0,1.593 -0.922,2.883 -2.059,2.883 -1.137,0 -2.059,-1.29 -2.059,-2.883 0,-1.591 0.921,-2.882 2.059,-2.882 1.138,0 2.059,1.29 2.059,2.882 z m 10.706,0 c 0,1.593 -0.922,2.883 -2.06,2.883 -1.137,0 -2.059,-1.29 -2.059,-2.883 0,-1.591 0.922,-2.882 2.059,-2.882 1.138,-10e-4 2.06,1.29 2.06,2.882 z m 6.588,-13.635 c -1.19,1.441 -3.182,1.951 -5.076,2.121 -0.318,-1.538 -1.683,-7.251 -4.424,-7.251 -2.403,0 -3.269,1.091 -4.5,1.091 -1.231,0 -2.097,-1.091 -4.5,-1.091 -2.741,0 -4.1060002,5.713 -4.4240002,7.251 -1.894,-0.17 -3.886,-0.681 -5.076,-2.121 -2.153,-2.606 -5,-0.686 -3.55799999,2.174 C 2.6696338,11.821 8.1796338,15 17.949634,15 c 9.769,0 15.279,-3.179 17.558,-7.696 1.442,-2.86 -1.405,-4.78 -3.558,-2.174 z"
     id="path6"
     inkscape:connector-curvature="0"
     style="fill:#664500" />
  <path
     d="m 21.449634,2 c -1.869,0 -2.543,0.964 -3.5,0.964 -0.957,0 -1.631,-0.964 -3.5,-0.964 -2.463,0 -3.5,6.75 -3.5,6.75 0,0 1.282,2.25 7,2.25 5.719,0 7,-2.25 7,-2.25 0,0 -1.037,-6.75 -3.5,-6.75 z"
     id="path8"
     inkscape:connector-curvature="0"
     style="fill:#825d0e" />
  <path
     d="m 10.949634,5 c 0,0 2.074,2 7,2 4.927,0 7,-2 7,-2 l 0,2 c 0,0 -2.222,2 -7,2 -4.778,0 -7,-2 -7,-2 l 0,-2 z"
     id="path10"
     inkscape:connector-curvature="0"
     style="fill:#664500" />
</svg>
