<?xml version="1.0" encoding="UTF-8" standalone="no"?>
<svg
   xmlns:dc="http://purl.org/dc/elements/1.1/"
   xmlns:cc="http://creativecommons.org/ns#"
   xmlns:rdf="http://www.w3.org/1999/02/22-rdf-syntax-ns#"
   xmlns:svg="http://www.w3.org/2000/svg"
   xmlns="http://www.w3.org/2000/svg"
   xmlns:sodipodi="http://sodipodi.sourceforge.net/DTD/sodipodi-0.dtd"
   xmlns:inkscape="http://www.inkscape.org/namespaces/inkscape"
   viewBox="0 0 36 36"
   id="svg2"
   version="1.1"
   inkscape:version="0.91 r13725"
   sodipodi:docname="1f921.svg"
   width="36"
   height="36">
  <metadata
     id="metadata44">
    <rdf:RDF>
      <cc:Work
         rdf:about="">
        <dc:format>image/svg+xml</dc:format>
        <dc:type
           rdf:resource="http://purl.org/dc/dcmitype/StillImage" />
      </cc:Work>
    </rdf:RDF>
  </metadata>
  <defs
     id="defs42" />
  <sodipodi:namedview
     pagecolor="#ffffff"
     bordercolor="#666666"
     borderopacity="1"
     objecttolerance="10"
     gridtolerance="10"
     guidetolerance="10"
     inkscape:pageopacity="0"
     inkscape:pageshadow="2"
     inkscape:window-width="640"
     inkscape:window-height="480"
     id="namedview40"
     showgrid="false"
     inkscape:zoom="6.5555556"
     inkscape:cx="18"
     inkscape:cy="18"
     inkscape:window-x="0"
     inkscape:window-y="0"
     inkscape:window-maximized="0"
     inkscape:current-layer="svg2" />
  <circle
     cx="29"
     cy="3"
     r="2"
     id="circle4"
     style="fill:#4289c1" />
  <circle
     cx="33"
     cy="8"
     r="3"
     id="circle6"
     style="fill:#4289c1" />
  <circle
     cx="33"
     cy="4"
     r="3"
     id="circle8"
     style="fill:#4289c1" />
  <circle
     cx="7"
     cy="3"
     r="2"
     id="circle10"
     style="fill:#4289c1" />
  <circle
     cx="3"
     cy="8"
     r="3"
     id="circle12"
     style="fill:#4289c1" />
  <circle
     cx="3"
     cy="4"
     r="3"
     id="circle14"
     style="fill:#4289c1" />
  <path
     d="M 36,18 C 36,27.941 27.941,36 18,36 8.059,36 0,27.941 0,18 0,8.059 8.059,0 18,0 27.941,0 36,8.059 36,18"
     id="path16"
     inkscape:connector-curvature="0"
     style="fill:#fee7b8" />
  <circle
     cx="30.5"
     cy="4.5"
     r="2.5"
     id="circle18"
     style="fill:#4289c1" />
  <circle
     cx="32"
     cy="7"
     r="2"
     id="circle20"
     style="fill:#4289c1" />
  <circle
     cx="5.5"
     cy="4.5"
     r="2.5"
     id="circle22"
     style="fill:#4289c1" />
  <circle
     cx="4"
     cy="7"
     r="2"
     id="circle24"
     style="fill:#4289c1" />
  <circle
     cx="6.9299998"
     cy="21"
     r="4"
     id="circle26"
     style="fill:#ff7892" />
  <circle
     cx="28.93"
     cy="21"
     r="4"
     id="circle28"
     style="fill:#ff7892" />
  <path
     d="M 27.335,23.629 C 27.157,23.468 26.891,23.458 26.7,23.6 26.661,23.629 22.778,26.5 18,26.5 13.234,26.5 9.338,23.629 9.3,23.6 9.109,23.458 8.843,23.47 8.665,23.629 8.488,23.789 8.448,24.053 8.571,24.257 8.7,24.472 11.788,31 18,31 c 6.212,0 9.301,-6.528 9.429,-6.743 0.123,-0.205 0.084,-0.468 -0.094,-0.628 z"
     id="path30"
     inkscape:connector-curvature="0"
     style="fill:#da2f47" />
  <path
     d="M 27.335,23.629 C 27.157,23.468 26.891,23.458 26.7,23.6 26.661,23.629 22.778,26.5 18,26.5 13.234,26.5 9.338,23.629 9.3,23.6 9.109,23.458 8.843,23.47 8.665,23.629 8.488,23.789 8.448,24.053 8.571,24.257 8.7,24.472 11.788,31 18,31 c 6.212,0 9.301,-6.528 9.429,-6.743 0.123,-0.205 0.084,-0.468 -0.094,-0.628 z"
     id="path32"
     inkscape:connector-curvature="0"
     style="fill:none" />
  <ellipse
     cx="11.5"
     cy="11.5"
     rx="2.5"
     ry="3.5"
     id="ellipse34"
     style="fill:#664500" />
  <ellipse
     cx="25.5"
     cy="11.5"
     rx="2.5"
     ry="3.5"
     id="ellipse36"
     style="fill:#664500" />
  <circle
     cx="18.5"
     cy="19.5"
     r="3.5"
     id="circle38"
     style="fill:#bb1a34" />
</svg>
