<?xml version="1.0" encoding="UTF-8" standalone="no"?>
<svg
   xmlns:dc="http://purl.org/dc/elements/1.1/"
   xmlns:cc="http://creativecommons.org/ns#"
   xmlns:rdf="http://www.w3.org/1999/02/22-rdf-syntax-ns#"
   xmlns:svg="http://www.w3.org/2000/svg"
   xmlns="http://www.w3.org/2000/svg"
   xmlns:sodipodi="http://sodipodi.sourceforge.net/DTD/sodipodi-0.dtd"
   xmlns:inkscape="http://www.inkscape.org/namespaces/inkscape"
   viewBox="0 0 35.109001 34.010284"
   id="svg2"
   version="1.1"
   inkscape:version="0.91 r13725"
   sodipodi:docname="1f93c.svg"
   width="35.109001"
   height="34.010284">
  <metadata
     id="metadata56">
    <rdf:RDF>
      <cc:Work
         rdf:about="">
        <dc:format>image/svg+xml</dc:format>
        <dc:type
           rdf:resource="http://purl.org/dc/dcmitype/StillImage" />
      </cc:Work>
    </rdf:RDF>
  </metadata>
  <defs
     id="defs54" />
  <sodipodi:namedview
     pagecolor="#ffffff"
     bordercolor="#666666"
     borderopacity="1"
     objecttolerance="10"
     gridtolerance="10"
     guidetolerance="10"
     inkscape:pageopacity="0"
     inkscape:pageshadow="2"
     inkscape:window-width="640"
     inkscape:window-height="480"
     id="namedview52"
     showgrid="false"
     inkscape:zoom="6.5555556"
     inkscape:cx="17.174"
     inkscape:cy="17.249357"
     inkscape:window-x="0"
     inkscape:window-y="0"
     inkscape:window-maximized="0"
     inkscape:current-layer="svg2" />
  <path
     d="m 31.598,26.572929 c 0,0 0.59,1.186 1.777,0.594 1.186,-0.591 0.293,2.075 0.293,2.075 0,0 -2.887,0.123 -4.931,0.019 -1.872,-0.095 -0.697,-0.915 0.488,-1.506 l 2.373,-1.182 z"
     id="path4"
     inkscape:connector-curvature="0"
     style="fill:#3e721d" />
  <path
     d="m 25.68,12.119929 c -0.655,1.039 -1.508,2.081 -2.078,2.228 -0.428,0.111 -1.28,0.317 -1.847,0.663 -0.567,0.345 -0.483,0.7 0.255,1.063 0.737,0.364 1.703,0.209 2.208,-0.352 0.505,-0.562 1.834,-1.453 2.656,-1.981 0.82,-0.527 -0.702,-2.401 -1.194,-1.621 z"
     id="path6"
     inkscape:connector-curvature="0"
     style="fill:#f9ca55" />
  <path
     d="m 25.433,12.623929 c 0.287,-0.48 0.958,-1.044 0.958,-1.044 l -0.387,-2.4730005 3.029,0.12 c 0,0 -0.421,2.5580005 -0.549,3.1370005 -0.127,0.579 -1.305,1.332 -2.087,1.666 -0.781,0.334 -1.285,-0.869 -0.964,-1.406 z m 5.241,9.949 c 0,0 -3.5,-1.299 -3.5,-0.375 0,0.923 3.25,2.563 4.438,4.563 0.479,0.808 2.23,1.372 1.875,-0.375 -0.687,-3.38 -2.813,-3.813 -2.813,-3.813 z"
     id="path8"
     inkscape:connector-curvature="0"
     style="fill:#f9ca55" />
  <path
     d="m 28.164,22.207929 c 0,0 1.303,1.517 2.135,1.115 0.832,-0.402 2.445,-3.768 2.875,-5 0.43,-1.232 -0.491,-3.736 -1.752,-2.104 -1.261,1.634 -3.258,5.989 -3.258,5.989 z"
     id="path10"
     inkscape:connector-curvature="0"
     style="fill:#f9ca55" />
  <path
     d="m 34.275,16.383929 -6.101,2.377 3.855,2.08 z"
     id="path12"
     inkscape:connector-curvature="0"
     style="fill:#3e721d" />
  <path
     d="m 27.173,18.760929 c 0,0 -2,3 -2,4 0,1 1,4 1,7 0,3 2,3 2,2 0,-1 1.581,-5.419 0,-7 -1,-1 2,-4 2,-4 l -3,-2 z"
     id="path14"
     inkscape:connector-curvature="0"
     style="fill:#ffdc5d" />
  <path
     d="m 29.173,14.760929 -2.624,5 3,1.938 c 0,0 5.56,-5.017 5.56,-7.017 0,-2.797 -2.497,-3.733 -2.497,-3.733 l -3.439,3.812 z"
     id="path16"
     inkscape:connector-curvature="0"
     style="fill:#77b255" />
  <path
     d="m 26.169,3.8149285 1.014,2.162 -2.562,1.035 -1.057,-1.77 z"
     id="path18"
     inkscape:connector-curvature="0"
     style="fill:#ffdc5d" />
  <path
     d="m 26.648,3.6169285 c -0.178,1.588 -1.526,2.277 -2.88,2.804 -1.291,0.502 -2.363,-1.756 -2.536,-3.333 -0.175,-1.588 1.681,-2.79999995 3.124,-2.63799995 1.443,0.162 2.47,1.57899995 2.292,3.16699995 z m -4.974,8.5820005 c -1.312,0.875 -2.812,2.5 -3.625,2.625 -0.988,0.152 -1.688,-0.938 -2.59,0.366 -0.569,0.822 0.34,1.696 2.215,1.696 1.079,0 4.091,-1.626 5.25,-2.438 1.25,-0.875 1.528,-1.867 1.982,-3.061 0.143,-0.377 0.518,0.561 1.393,0.998 1.45,0.725 2.438,1.438 3,2.312 2.688,-1.438 4.438,-3 4.438,-3 -1.563,-1.7480005 -2.468,-3.6670005 -4.063,-4.8740005 -2.521,-1.908 -3.59,-0.753 -5.382,0.134 -1.267,0.628 -1.868,2.366 -2.618,5.2420005 z"
     id="path20"
     inkscape:connector-curvature="0"
     style="fill:#ffdc5d" />
  <path
     d="m 29.236,14.948929 c 2.688,-1.438 4.5,-3.25 4.5,-3.25 -1.562,-1.7500005 -2.467,-3.6690005 -4.062,-4.8760005 -0.354,-0.267 -0.676,-0.469 -0.978,-0.625 0.125,0.229 0.106,0.47 -0.334,0.625 -0.952,0.336 -2.056,-0.277 -3.219,-0.318 -0.205,0.112 -0.416,0.228 -0.637,0.343 0.978,0.12 2.082,1.323 2.293,2.538 0.214,1.2290005 -0.213,2.3610005 -0.731,2.8610005 0.074,0.049 0.149,0.098 0.231,0.139 1.45,0.725 2.375,1.687 2.937,2.563 z m -3.134,15.585 c 0,0 0.705,1.226 1.931,0.52 1.226,-0.705 0.445,2.191 0.445,2.191 0,0 -3.417,1.151 -5.348,0.63 -1.931,-0.521 -0.705,-1.226 0.521,-1.931 l 2.451,-1.41 z"
     id="path22"
     inkscape:connector-curvature="0"
     style="fill:#77b255" />
  <path
     d="m 21.703,1.0339285 c 1.834,-1.34399995 3.143,-1.24399995 4.286,-0.46099995 1.135,0.77699995 1.308,2.39599995 1.087,3.45199995 -0.221,1.056 -0.526,1.022 -0.526,1.022 0,0 -1.404,0.431 -1.61,-0.886 -0.065,-0.417 0.385,-0.677 -0.168,-1.254 -0.356,-0.371 -1.067,-0.119 -1.028,0.451 0.039,0.57 -0.26,0.485 -0.26,0.485 l -0.97,-1.446 c 0,0 -0.743,0.013 -1.103,0.722 -0.226,0.445 -1.31,-0.912 0.292,-2.085 z"
     id="path24"
     inkscape:connector-curvature="0"
     style="fill:#ffac33" />
  <path
     d="m 9.263,26.888929 c 0,0 -0.736,1.102 -1.838,0.365 -1.102,-0.736 -0.553,2.021 -0.553,2.021 0,0 2.849,0.486 4.889,0.642 1.869,0.142 0.807,-0.819 -0.294,-1.555 l -2.204,-1.473 z"
     id="path26"
     inkscape:connector-curvature="0"
     style="fill:#2a6797" />
  <path
     d="m 3.026,30.060929 c 0,0 -0.924,1.07 -1.994,0.146 -1.07,-0.924 -0.852,2.068 -0.852,2.068 0,0 3.137,1.776 5.132,1.631 1.995,-0.146 0.925,-1.07 -0.146,-1.995 l -2.14,-1.85 z"
     id="path28"
     inkscape:connector-curvature="0"
     style="fill:#4289c1" />
  <path
     d="m 6.924,6.5729285 c 2.732,-0.311 3.272,0.58 3.692,1.405 0.978,1.92 -0.87,3.3330005 -1.341,4.0220005 -0.471,0.688 -2.862,2.717 -3.152,3.841 -0.29,1.123 0.145,1.123 0.906,1.667 0.761,0.543 3.413,1.863 3.812,2.733 0.398,0.869 0.268,1.457 -0.167,2.146 -0.435,0.689 -1.574,3.876 -1.502,4.709 0,0 -0.978,0.833 -1.884,0.073 0,0 0.072,-2.681 0.254,-3.696 0.181,-1.014 0.57,-1.805 0.57,-1.805 l -2.531,-0.844 c 0,0 0.507,1.394 0.471,2.046 -0.036,0.652 -0.874,1.908 -1.232,2.355 -0.58,0.725 -1.774,3.331 -1.793,4.836 0,0 -0.89,1.214 -1.994,0.146 0,0 -0.017,-2.481 0.127,-3.46 0.145,-0.978 1.268,-3.08 1.522,-3.551 0.254,-0.471 -0.374,-0.881 -0.664,-1.497 -0.29,-0.616 -2.018,-2.959 -2.018,-4.264 0,-1.304 0.652,-3.297 1.159,-4.022 0.507,-0.725 1.531,-3.5220005 1.775,-4.3120005 0.472,-1.521 2.069,-2.309 3.99,-2.528 z"
     id="path30"
     inkscape:connector-curvature="0"
     style="fill:#4289c1" />
  <path
     d="m 5.393,20.322929 c 0,0 -2.293,0.614 -3.344,1.43 0.266,0.627 0.649,1.389 0.396,1.86 -0.254,0.471 -1.14,2.155 -1.285,3.133 -0.145,0.978 -0.127,3.46 -0.127,3.46 1.104,1.069 1.993,-0.145 1.993,-0.145 0.019,-1.505 1.213,-4.111 1.793,-4.836 0.358,-0.447 1.196,-1.703 1.232,-2.355 0.036,-0.652 -0.399,-1.92 -0.399,-1.92 l -0.259,-0.627 z"
     id="path32"
     inkscape:connector-curvature="0"
     style="fill:#ffdc5d" />
  <path
     d="m 10.841,20.239929 c -0.245,-0.534 -1.337,-1.236 -2.321,-1.825 -0.864,0.629 -1.653,2.407 -1.814,2.783 l 1.343,0.563 c 0,0 -0.326,0.697 -0.507,1.711 -0.181,1.014 -0.254,3.696 -0.254,3.696 0.906,0.761 1.884,-0.073 1.884,-0.073 -0.072,-0.833 1.067,-4.021 1.502,-4.709 0.435,-0.688 0.565,-1.276 0.167,-2.146 z"
     id="path34"
     inkscape:connector-curvature="0"
     style="fill:#f9ca55" />
  <path
     d="m 2.58,10.041929 c -0.156,1.156 1,1.469 2,1.062 1,-0.406 1.812,-1.094 2,-2.1560005 0.121,-0.688 -0.219,-2.281 -1.25,-2.062 -1.388,0.294 -2.507,1.358 -2.75,3.1560005 z"
     id="path36"
     inkscape:connector-curvature="0"
     style="fill:#ffdc5d" />
  <path
     d="m 8.986,6.6049285 c 0.969,0.125 1.688,0.594 2,1.531 0.312,0.937 0.732,3.7090005 0.844,3.9690005 0.094,0.219 0.281,0.469 0.625,0.312 0.344,-0.156 1.5,-0.375 2.094,-0.438 0.594,-0.062 0.594,-0.875 1.375,-1.156 0.781,-0.281 1.656,0.25 1.688,1.031 0.031,0.781 -0.188,1.125 -1.188,1.312 -1,0.187 -1.625,0.469 -1.938,0.625 -0.312,0.156 -3.125,1 -3.531,0.906 -0.406,-0.094 -1.68,-2.698 -1.68,-2.698 l 0.774,-1.052 c 0,0 -0.497,-0.58 -0.219,-1.3440005 0.5,-1.373 -0.844,-2.998 -0.844,-2.998 z"
     id="path38"
     inkscape:connector-curvature="0"
     style="fill:#f9ca55" />
  <path
     d="m 2.705,9.8859285 c -0.036,0.8440005 0.344,4.0000005 0.375,4.5000005 0.031,0.5 3.969,2.25 4.344,2.406 0.375,0.156 1.094,1.094 1.656,1.125 0.563,0.031 2.156,-0.25 1.625,-1.125 -0.531,-0.875 -1.438,-1.406 -2.125,-1.344 -0.688,0.062 -2.531,-1.719 -2.938,-1.875 -0.406,-0.156 -0.562,-0.375 -0.406,-0.844 0.156,-0.469 0.75,-2.625 0.812,-3.3120005 0.064,-0.687 -3.28,-1 -3.343,0.469 z"
     id="path40"
     inkscape:connector-curvature="0"
     style="fill:#ffdc5d" />
  <path
     d="m 6.705,21.198929 c -0.094,0.031 -1.125,-0.375 -1.125,-0.375 l -0.844,-2.156 2.406,1.406 c 0,0 -0.125,0.312 -0.25,0.562 -0.125,0.25 -0.187,0.563 -0.187,0.563 z"
     id="path42"
     inkscape:connector-curvature="0"
     style="fill:#2a6797" />
  <path
     d="m 8.205,6.4799285 c 0.281,0.031 0.793,1.064 0.844,1.5 0.094,0.813 -0.906,1.156 -1.469,0.188 -0.563,-0.968 -0.812,-1.407 -1.281,-1.501 0,0 0.5,-0.125 0.969,-0.156 0.469,-0.031 0.937,-0.031 0.937,-0.031 z"
     id="path44"
     inkscape:connector-curvature="0"
     style="fill:#ffdc5d" />
  <path
     d="m 7.514,4.5649285 -0.965,2.102 2.094,1.313 1,-1.875 z"
     id="path46"
     inkscape:connector-curvature="0"
     style="fill:#ffdc5d" />
  <path
     d="m 7.034,4.3669285 c 0.178,1.588 1.719,2.737 3.015,2.863 1.446,0.141 2.213,-1.798 2.394,-3.429 0.176,-1.588 -1.674,-2.764 -3.117,-2.602 -1.444,0.162 -2.47,1.58 -2.292,3.168 z"
     id="path48"
     inkscape:connector-curvature="0"
     style="fill:#ffdc5d" />
  <path
     d="m 12.198,1.7839285 c -1.524,-1.27299995 -3.143,-1.24399995 -4.286,-0.461 -1.135,0.777 -1.308,2.396 -1.087,3.452 0.221,1.056 0.38,0.892 0.38,0.892 0,0 0.344,-0.125 0.438,-0.562 0.088,-0.413 -0.209,-0.768 0.343,-1.344 0.356,-0.371 0.57,0.273 0.531,0.844 -0.039,0.571 0.312,0.25 0.312,0.25 l 0.625,-1.219 c 0,0 0.622,0.584 1.812,0.188 0.844,-0.281 1.188,-0.281 1.125,0.5 0.658,-1.125 0.347,-2.089 -0.193,-2.54 z"
     id="path50"
     inkscape:connector-curvature="0"
     style="fill:#ffac33" />
</svg>
