<?xml version="1.0" encoding="UTF-8" standalone="no"?>
<svg
   xmlns:dc="http://purl.org/dc/elements/1.1/"
   xmlns:cc="http://creativecommons.org/ns#"
   xmlns:rdf="http://www.w3.org/1999/02/22-rdf-syntax-ns#"
   xmlns:svg="http://www.w3.org/2000/svg"
   xmlns="http://www.w3.org/2000/svg"
   xmlns:sodipodi="http://sodipodi.sourceforge.net/DTD/sodipodi-0.dtd"
   xmlns:inkscape="http://www.inkscape.org/namespaces/inkscape"
   viewBox="0 0 30.498621 33.985546"
   id="svg2"
   version="1.1"
   inkscape:version="0.91 r13725"
   sodipodi:docname="1f938-1f3ff.svg"
   width="30.498621"
   height="33.985546">
  <metadata
     id="metadata46">
    <rdf:RDF>
      <cc:Work
         rdf:about="">
        <dc:format>image/svg+xml</dc:format>
        <dc:type
           rdf:resource="http://purl.org/dc/dcmitype/StillImage" />
      </cc:Work>
    </rdf:RDF>
  </metadata>
  <defs
     id="defs44" />
  <sodipodi:namedview
     pagecolor="#ffffff"
     bordercolor="#666666"
     borderopacity="1"
     objecttolerance="10"
     gridtolerance="10"
     guidetolerance="10"
     inkscape:pageopacity="0"
     inkscape:pageshadow="2"
     inkscape:window-width="640"
     inkscape:window-height="480"
     id="namedview42"
     showgrid="false"
     inkscape:zoom="6.5555556"
     inkscape:cx="15.195198"
     inkscape:cy="17.205"
     inkscape:window-x="0"
     inkscape:window-y="0"
     inkscape:window-maximized="0"
     inkscape:current-layer="svg2" />
  <path
     d="m 17.728198,28.826546 c -0.945,-1.361 -0.746,-3.135 0.443,-3.963 1.189,-0.826 2.922,-0.395 3.867,0.967 0.946,1.359 0.747,3.134 -0.443,3.961 -1.189,0.827 -2.922,0.395 -3.867,-0.965 z"
     id="path4"
     inkscape:connector-curvature="0"
     style="fill:#7c533e" />
  <path
     d="m 18.445198,30.504546 c 0,0 0.75,0.742 -0.372,1.669 -0.925,0.764 -1.932,-0.128 -2.909,-0.018 -0.737,0.083 -1.357,0.5 -1.584,1.086 0,0 0.092,-1.121 0.564,-1.852 0.613,-0.949 1.827,-1.457 2.52,-1.538 1.081,-0.125 1.781,0.653 1.781,0.653 z"
     id="path6"
     inkscape:connector-curvature="0"
     style="fill:#0b0200" />
  <path
     d="m 18.446198,23.324546 1.871,3.49 c 0.264,0.486 0.082,1.127 -0.4,1.384 -0.484,0.264 -1.09,0.097 -1.354,-0.389 l -1.75,-3.22 -2.281,1.586 -0.436,-2.134 c -0.142,-0.22 5.374,-2.71 5.745,-3.124 0.001,10e-4 0.492,1.327 -1.395,2.407 z"
     id="path8"
     inkscape:connector-curvature="0"
     style="fill:#7c533e" />
  <path
     d="m 24.052198,20.211546 -4.341,0.033 c -0.516,0.004 -0.934,0.428 -0.931,0.943 0.004,0.515 0.43,0.935 0.945,0.93 l 4.342,-0.031 c 0.516,-0.004 0.934,-0.429 0.931,-0.944 -0.005,-0.515 -0.43,-0.934 -0.946,-0.931 z"
     id="path10"
     inkscape:connector-curvature="0"
     style="fill:#7c533e" />
  <path
     d="m 28.047198,21.754546 c -0.743,-0.149 -3.178,-1.455 -3.772,-1.485 -0.594,-0.03 -0.799,0.189 -0.965,0.679 -0.166,0.486 0.223,0.747 1.025,1.311 0.802,0.564 2.911,0.505 3.386,0.624 0.135,0.034 0.398,0.385 0.653,0.505 0.505,0.238 0.833,-0.071 1.129,-0.059 0.442,0.018 0.76,0.209 0.832,0 l 0.148,-0.267 c 0.119,-0.416 -0.471,-0.753 -1.069,-1.129 -0.303,-0.191 -1.117,-0.129 -1.367,-0.179 z"
     id="path12"
     inkscape:connector-curvature="0"
     style="fill:#7c533e" />
  <path
     d="m 22.038198,25.830546 c 0,0 0.619,0.395 1.155,0.82 0.612,0.487 0.614,1.832 0.235,2.857 -0.297,0.799 -1.645,1.946 -2.986,2.11 -1.516,0.185 -2.541,-0.699 -3.126,-1.936 -0.538,-1.137 -0.218,-2.679 -0.218,-2.679 0,0 0.947,0.638 0.805,0.762 -0.264,0.229 0.176,1.224 0.576,1.291 0.421,0.071 0.492,-0.343 0.383,-0.631 -0.11,-0.289 -0.43,-1.104 -0.43,-1.104 0,0 0.571,0.914 1.01,1.02 0.439,0.106 1.565,-0.768 2.893,0.09 0,0 0.283,-0.416 0.271,-1.092 -0.011,-0.557 -0.568,-1.508 -0.568,-1.508 z"
     id="path14"
     inkscape:connector-curvature="0"
     style="fill:#0b0200" />
  <path
     d="m 18.273198,7.6275457 c -0.168,0.504 -0.728,0.966 -0.91,1.143 -0.822,0.803 -2.415,2.3750003 -3.194,2.9380003 l 2.622,2.15 c 0.571,-0.547 1.504,-1.719 2.309,-2.726 0.48,-0.6 0.976,-0.907 1.274,-1.8160003 0,0 0.668,-3.441 1.67,-6.022 0.32,-0.825 -1.304,-1.405 -1.67,-0.718 -0.363,0.681 -0.824,1.654 -1.063,2.295 -0.162,0.439 -0.962,2.528 -1.038,2.756 z"
     id="path16"
     inkscape:connector-curvature="0"
     style="fill:#7c533e" />
  <path
     d="m 20.206198,1.2265457 c -0.055,0.164 -0.202,0.758 -0.202,0.984 l -0.24,1.347 c -0.014,0.067 0.032,0.132 0.099,0.142 0.197,0.031 0.834,-0.084 1.225,0.272 0.262,0.238 0.292,0.663 0.443,0.728 0.048,0.02 0.102,-0.005 0.119,-0.054 0,0 0.048,-0.246 0.11,-0.456 0.13,-0.166 0.283,-0.5 0.519,-0.634 0.14,-0.024 0.291,-0.151 0.66,-0.174 0.219,-0.014 1.224,-0.085 1.224,-0.085 0.255,-0.014 0.335,-0.093 0.472,-0.102 0.282,-0.02 1.02,0.002 1.26,-0.017 0.239,-0.018 0.374,-0.165 0.423,-0.292 0.048,-0.126 0.035,-0.208 0.035,-0.208 0,0 -0.233,-0.403 -1.596,-0.956 -0.8,-0.324 -4.189,-1.07399999 -4.189,-1.07399999 l -0.127,0.1 c -0.125,0.1 -0.177,0.30699999 -0.235,0.47899999 z"
     id="path18"
     inkscape:connector-curvature="0"
     style="fill:#be1931" />
  <path
     d="m 22.212198,3.7525457 c -0.007,0.028 -0.021,0.055 -0.041,0.078 -0.066,0.072 -0.177,0.078 -0.249,0.012 l -0.229,-0.208 c -0.073,-0.066 -0.076,-0.179 -0.012,-0.249 0.066,-0.072 0.177,-0.078 0.249,-0.012 l 0.229,0.208 c 0.049,0.044 0.067,0.11 0.053,0.171 z"
     id="path20"
     inkscape:connector-curvature="0"
     style="fill:#ccd6dd" />
  <path
     d="m 22.293198,1.3675457 c -0.133,0.188 -0.556,0.591 -0.925,0.646 -0.332,0.05 -1.174,-0.059 -1.334,-0.08 0.036,-0.26 0.144,-0.649 0.185,-0.772 0.055,-0.16199999 0.131,-0.37499999 0.255,-0.46699999 0.013,-0.009 1.365,0.51999999 1.819,0.67299999 z"
     id="path22"
     inkscape:connector-curvature="0"
     style="fill:#dd2e44" />
  <path
     d="m 20.455198,0.69354571 c 0,0 0.14,0.035 0.221,0.123 0.081,0.089 0.308,0.18999999 0.481,0.24799999 0.173,0.058 0.82,0.288 1.291,0.379 0.471,0.091 1.349,0.142 1.633,0.201 0.284,0.059 0.72,0.167 1.031,0.302 0.31,0.135 0.585,0.266 0.751,0.357 0.215,0.116 0.382,0.245 0.491,0.374 0,0 0.061,-0.375 -0.419,-0.784 -0.38,-0.323 -0.765,-0.544 -1.159,-0.684 -0.03,-0.011 -1.085,-0.35699999 -1.613,-0.52799999 -0.386,-0.124 -1.001,-0.327 -1.001,-0.327 -0.728,-0.245 -1.103,-0.35 -1.253,-0.351 -0.027,0 -0.133,-0.02 -0.261,0.035 -0.084,0.035 -0.286,0.624 -0.193,0.655 z m 2.321,2.78599999 c -0.015,0.064 -0.065,0.116 -0.134,0.132 -0.095,0.021 -0.189,-0.039 -0.21,-0.134 l -0.067,-0.302 c -0.02,-0.097 0.039,-0.189 0.134,-0.211 0.095,-0.021 0.189,0.039 0.21,0.134 l 0.067,0.302 c 0.007,0.027 0.006,0.054 0,0.079 z m 0.618,-0.098 c -0.017,0.073 -0.08,0.13 -0.159,0.136 -0.097,0.006 -0.182,-0.067 -0.188,-0.164 l -0.023,-0.326 c -0.007,-0.101 0.066,-0.182 0.164,-0.189 0.097,-0.006 0.181,0.067 0.188,0.164 l 0.023,0.326 c 0,0.019 -10e-4,0.036 -0.005,0.053 z m 0.628,-0.061 c -0.019,0.081 -0.094,0.14 -0.18,0.135 -0.097,-0.004 -0.172,-0.087 -0.167,-0.185 l 0.015,-0.299 c 0.007,-0.104 0.088,-0.172 0.185,-0.167 0.097,0.004 0.172,0.087 0.167,0.185 l -0.015,0.299 c -10e-4,0.012 -0.002,0.022 -0.005,0.032 z"
     id="path24"
     inkscape:connector-curvature="0"
     style="fill:#ccd6dd" />
  <path
     d="m 7.1541983,8.6935457 c 0.528,0.627 2.12,1.7460003 2.296,1.9290003 0.8579997,0.887 1.8139997,1.427 2.4619997,2.275 l -2.3609997,2.434 c -0.63,-0.478 -1.263,-1.253 -2.178,-2.161 -0.545,-0.541 -1.597,-2.568 -2.24,-3.2380003 0,0 -1.501,-1.862 -2.791,-4.312 -0.412,-0.783 0.992,-1.415 1.578,-0.903 0.627,0.548 1.394,1.44 1.978,2.103 0.308,0.35 1.101,1.689 1.256,1.873 z"
     id="path26"
     inkscape:connector-curvature="0"
     style="fill:#7c533e" />
  <path
     d="m 0.32119829,0.52254571 c 0.72000001,-0.945 2.32900001,-0.518 2.76200001,0.69499999 0.291,0.816 0.305,2.096 0.709,2.499 0.403,0.404 0.557,1.034 0.564,1.244 0.007,0.21 -0.226,0.356 -0.443,0.153 0,0 0.587,0.633 -0.079,0.709 -0.665,0.075 -0.213,0.506 -0.649,0.398 -0.436,-0.108 -0.371,-0.43 -0.371,-0.43 0,0 0.003,0.777 -0.318,0.443 -0.321,-0.335 -1.89900001,-2.64 -2.24700001,-3.716 -0.228,-0.706 -0.453,-1.306 0.072,-1.99499999 z"
     id="path28"
     inkscape:connector-curvature="0"
     style="fill:#ccd6dd" />
  <path
     d="m 0.56519829,0.75154571 c 0.68000001,-0.974 2.20600001,-0.218 2.44200001,0.61499999 0.236,0.833 0.295,1.916 0.699,2.319 0.403,0.403 0.945,1.181 0.951,1.391 0.007,0.21 -0.308,0.354 -0.525,0.151 0,0 0.702,0.676 0.036,0.751 -0.666,0.075 -0.492,0.662 -0.928,0.554 -0.436,-0.108 -0.512,-0.774 -0.512,-0.774 0,0 0.003,0.777 -0.318,0.443 -0.321,-0.335 -1.64000001,-2.454 -1.96800001,-3.536 -0.328,-1.082 -0.197,-1.456 0.123,-1.91399999 z"
     id="path30"
     inkscape:connector-curvature="0"
     style="fill:#be1931" />
  <path
     d="m 2.4551983,5.1085457 c -0.044,0.049 -0.058,0.12 -0.032,0.185 0.037,0.09 0.14,0.133 0.23,0.096 l 1.16,-0.595 c 0.091,-0.039 0.133,-0.14 0.096,-0.231 -0.037,-0.09 -0.14,-0.133 -0.23,-0.096 l -1.16,0.595 c -0.025,0.012 -0.046,0.027 -0.064,0.046 z m -0.395,-0.779 c -0.044,0.049 -0.058,0.12 -0.032,0.185 0.037,0.09 0.14,0.133 0.23,0.096 l 1.09,-0.48 c 0.091,-0.039 0.133,-0.14 0.096,-0.231 -0.037,-0.09 -0.14,-0.133 -0.23,-0.096 l -1.09,0.48 c -0.025,0.012 -0.047,0.027 -0.064,0.046 z m -0.318,-0.737 c -0.059,0.047 -0.083,0.128 -0.055,0.202 0.036,0.091 0.138,0.136 0.228,0.1 l 0.974,-0.415 c 0.094,-0.037 0.136,-0.137 0.101,-0.229 -0.035,-0.09 -0.137,-0.135 -0.228,-0.099 l -0.974,0.415 c -0.018,0.006 -0.033,0.015 -0.046,0.026 z m -0.244,-0.697 c -0.073,0.041 -0.107,0.13 -0.079,0.211 0.032,0.092 0.133,0.14 0.224,0.108 l 0.934,-0.349 c 0.098,-0.036 0.14,-0.133 0.108,-0.225 -0.032,-0.092 -0.133,-0.14 -0.224,-0.108 l -0.934,0.35 c -0.011,0.003 -0.02,0.008 -0.029,0.013 z"
     id="path32"
     inkscape:connector-curvature="0"
     style="fill:#ccd6dd" />
  <path
     d="m 11.744198,17.900546 c 0,0 -1.718,-1.063 -2.4189997,-1.602 -0.699,-0.539 -2.317,-2.941 -2.317,-2.941 0,0 1.985,-2.051 3.0739997,-2.762 l 2.584,1.916 2.391,-2.222 c 0,0 2.49,0.991 3.178,2.139 0,0 -1.129,1.842 -1.485,2.436 -0.017,0.458 0.008,1.039 0.238,1.069 l -5.244,1.967 z"
     id="path34"
     inkscape:connector-curvature="0"
     style="fill:#a0041e" />
  <path
     d="m 11.788198,28.019546 1.825,-3.939 c 0.215,-0.468 0.774,-0.673 1.242,-0.458 0.467,0.217 0.674,0.778 0.457,1.245 l -1.822,3.941 c -0.217,0.468 -0.776,0.674 -1.245,0.457 -0.467,-0.217 -0.672,-0.777 -0.457,-1.246 z"
     id="path36"
     inkscape:connector-curvature="0"
     style="fill:#7c533e" />
  <path
     d="m 11.265198,32.982546 c 0,0 0.297,-3.515 0.386,-4.188 0.089,-0.673 0.599,-1.197 1.114,-1.146 0.511,0.049 0.75,0.431 0.817,1.295 0.067,0.863 -0.959,3.206 -0.867,4.121 0.03,0.297 0.934,0.551 0.683,0.743 -0.111,0.085 -0.853,0.164 -1.01,0.148 l -0.564,0.03 c -0.252,-0.025 -0.888,0.031 -1.04,-0.149 -0.158,-0.188 0.454,-0.593 0.481,-0.854 z"
     id="path38"
     inkscape:connector-curvature="0"
     style="fill:#7c533e" />
  <path
     d="m 15.620198,25.616546 c 0,0 0.568,-0.446 0.979,-0.776 0,0 -0.409,-0.721 0.615,-1.479 1.025,-0.758 1.688,-0.396 1.688,-0.396 0,0 0.231,0.09 1.038,-0.153 0.383,-0.115 1.147,-0.307 1.147,-0.307 0,0 -0.041,-1.617 -0.267,-2.601 l -1.951,-0.077 c 0,0 -0.203,-0.944 -0.529,-1.22 -0.328,-0.274 -0.523,-0.51 -0.771,-0.794 -0.691,-0.791 -0.6,-2.399 -0.668,-2.762 0,0 -2.408,0.956 -4.149,1.446 -1.348,0.38 -3.2909997,0.024 -3.2909997,0.024 0.481,0.655 1.5479997,1.386 2.2719997,2.183 0.707,0.777 2.285,4.916 1.848,5.403 -0.438,0.487 -1.062,1.535 -1.062,1.535 0,0 0.615,0.449 1.032,0.802 0.584,0.493 1.072,0.613 1.072,0.613 0,0 0.645,-1.102 0.997,-1.441 z"
     id="path40"
     inkscape:connector-curvature="0"
     style="fill:#dd2e44" />
</svg>
