<?xml version="1.0" encoding="UTF-8" standalone="no"?>
<svg
   xmlns:dc="http://purl.org/dc/elements/1.1/"
   xmlns:cc="http://creativecommons.org/ns#"
   xmlns:rdf="http://www.w3.org/1999/02/22-rdf-syntax-ns#"
   xmlns:svg="http://www.w3.org/2000/svg"
   xmlns="http://www.w3.org/2000/svg"
   xmlns:sodipodi="http://sodipodi.sourceforge.net/DTD/sodipodi-0.dtd"
   xmlns:inkscape="http://www.inkscape.org/namespaces/inkscape"
   viewBox="0 0 36 35.778"
   id="svg2"
   version="1.1"
   inkscape:version="0.91 r13725"
   sodipodi:docname="1f93d-1f3fe-200d-2640-fe0f.svg"
   width="36"
   height="35.778">
  <metadata
     id="metadata18">
    <rdf:RDF>
      <cc:Work
         rdf:about="">
        <dc:format>image/svg+xml</dc:format>
        <dc:type
           rdf:resource="http://purl.org/dc/dcmitype/StillImage" />
      </cc:Work>
    </rdf:RDF>
  </metadata>
  <defs
     id="defs16" />
  <sodipodi:namedview
     pagecolor="#ffffff"
     bordercolor="#666666"
     borderopacity="1"
     objecttolerance="10"
     gridtolerance="10"
     guidetolerance="10"
     inkscape:pageopacity="0"
     inkscape:pageshadow="2"
     inkscape:window-width="640"
     inkscape:window-height="480"
     id="namedview14"
     showgrid="false"
     inkscape:zoom="6.5555556"
     inkscape:cx="18"
     inkscape:cy="18"
     inkscape:window-x="0"
     inkscape:window-y="0"
     inkscape:window-maximized="0"
     inkscape:current-layer="svg2" />
  <path
     d="m 34.081,1.1990001 c -1.522,-1.08399998 -3.531,2.522 -3.987,3.016 l 1.764,1.469 L 31.266,11.263 c 0,0 -2.617,-0.596 -4.297,-0.579 -1.68,0.017 -1.688,-0.438 -3.242,-0.438 -1.152,0 -2.226,0.513 -2.226,0.513 L 21.048,9.0460001 c 0.97,-0.747 1.608,-1.972 1.608,-3.363 0,-2.278 -1.699,-4.125 -3.793,-4.125 -2.094,0 -3.786,1.856 -3.582,4.125 0.167,1.861 1.017,3.351 2.405,3.893 L 17.519,11.017 c -0.486,-0.042 -2.154,-0.302 -3.21,0.009 -2.333,0.688 -5.404,2.711 -6.08,2.81 -0.474,0.07 -2.608,0.675 -4.14,0.901 -0.277,0.041 -0.891,-0.966 -1.416,-1.033 -0.15,-0.019 -0.686,0.691 -0.835,0.672 -0.56,-0.069 -1.079,-0.115 -1.307,-0.022 -0.926,0.381 -0.4,3.381 0.727,3.213 0,0 2.036,-0.483 2.793,-0.574 1.669,-0.2 4.343,-0.272 5.317,-0.536 1.416,-0.382 4.34,-1.451 4.34,-1.451 -0.139,0.467 2.479,4.3 2.979,10.632 0,0 3.692,0.012 5.469,0.012 0,0 0.036,-4.343 0.438,-6.469 0.255,-1.349 1.188,-1.438 1.188,-1.438 0.538,-1.309 0.395,-3.18 0.406,-3.531 0,0 7.942,0.453 8.938,-0.312 1.012,-0.777 0.522,-8.4599999 0.438,-8.2319999 0.561,-0.515 1.811,-3.546 0.517,-4.469 z"
     id="path4"
     inkscape:connector-curvature="0"
     style="fill:#af7e57" />
  <path
     d="m 21.797,10.622 c -0.206,0.63 -0.344,0.903 -0.478,1.251 -0.242,0.625 -0.975,2.202 -3.037,2.312 -1.806,0.096 -2.331,-0.675 -2.13,-1.877 0.101,-0.601 0.194,-0.792 0.489,-1.373 0,0 -0.438,-0.062 -1.094,-0.047 0,0 -1.511,2.156 -2.109,5.391 -0.34,1.84 1.344,3.188 1.875,6.531 0.35,2.203 8.156,0.719 8.156,0.719 0,0 -0.656,-3.812 0.312,-5.781 -1.06,-1.221 -1.525,-4.558 -0.949,-7.413 l -1.035,0.287 z M 17.791,2.6340001 c 1.875,-0.188 3.306,0.636 3.625,2.512 0.499,2.935 -0.802,4.155 -1.971,4.592 -1.06,0.3959999 -2.553,-0.555 -2.488,-0.547 0,0 0.991,1.3869999 2.74,0.8499999 1.387,-0.4259999 1.859,-1.7929999 2.218,-1.9599999 0.464,-0.216 0.87,-0.458 1.032,-0.728 0.312,-0.531 0.406,-1.281 0.25,-1.969 -0.062,-0.274 -0.323,-0.538 -0.331,-0.808 -0.062,-2.083 -1.662,-3.567 -4.024,-3.379 -1.662,0.132 -2.676,1.064 -3.21,2.398 0.178,-0.101 0.836,-0.829 2.159,-0.961 z"
     id="path6"
     inkscape:connector-curvature="0"
     style="fill:#dd2e44" />
  <path
     d="m 0,35.778 0,-12 8.686,0 c 2.716,0 4.023,-1.106 5.474,-1.235 1.45,-0.129 2.798,1.235 3.577,1.235 0.78,0 1.09,-0.509 1.66,-0.509 0.295,0 0.918,0.509 1.593,0.509 0.675,0 2.385,-1.235 3.074,-1.235 1.395,0 3.575,1.235 5.011,1.235 l 6.925,0 0,12 -36,0 z"
     id="path8"
     inkscape:connector-curvature="0"
     style="fill:#55acee" />
  <circle
     cx="31.415001"
     cy="2.75"
     r="2.75"
     id="circle10"
     style="fill:#ffd03f" />
  <path
     d="m 33.677,1.1910001 c -0.329,-0.014 -0.811,0.026 -1.254,0.299 l -0.004,10e-4 c -0.003,0.002 -0.005,0.005 -0.008,0.006 -0.328,0.206 -0.631,0.541 -0.827,1.078 -0.366,-0.007 -0.698,-0.044 -0.991,-0.109 0.632,-1.81999998 1.984,-1.87799998 2.592,-1.80299998 -0.14,-0.119 -0.291,-0.222 -0.453,-0.311 -0.774,0.042 -1.879,0.409 -2.435,2.03499998 -0.274,-0.088 -0.507,-0.206 -0.693,-0.353 0.008,-0.012 0.015,-0.024 0.02,-0.038 0.505,-1.53099998 1.843,-1.87599998 2.254,-1.94699998 -0.151,-0.026 -0.305,-0.047 -0.463,-0.047 -0.161,0 -0.317,0.021 -0.471,0.047 -0.569,0.281 -1.229,0.799 -1.575,1.75499998 -0.174,-0.215 -0.233,-0.416 -0.256,-0.549 -0.076,0.116 -0.141,0.239 -0.198,0.366 0.065,0.154 0.153,0.319 0.313,0.486 0.484,0.505 1.298,0.765 2.415,0.777 0.098,0.341 0.148,0.655 0.163,0.94 -1.782,0.064 -2.684,-0.668 -3.121,-1.257 -0.004,0.062 -0.019,0.122 -0.019,0.185 0,0.096 0.019,0.188 0.028,0.281 0.525,0.549 1.419,1.1 2.905,1.1 0.068,0 0.139,-0.003 0.209,-0.005 -0.011,0.295 -0.058,0.554 -0.125,0.778 -1.464,-0.039 -2.28,-0.518 -2.735,-0.962 0.134,0.276 0.305,0.532 0.519,0.747 0.507,0.27 1.178,0.482 2.114,0.502 -0.048,0.116 -0.101,0.217 -0.152,0.307 0.122,-0.001 0.239,-0.02 0.357,-0.036 0.28,-0.573 0.51,-1.479 0.132,-2.732 l -0.03,-0.094 c 0.139,-0.361 0.333,-0.613 0.549,-0.786 0.682,1.388 0.321,2.7 -0.016,3.452 0.145,-0.057 0.282,-0.129 0.414,-0.209 0.307,-0.84 0.521,-2.095 -0.141,-3.411 0.214,-0.111 0.435,-0.164 0.633,-0.185 0.001,0.002 0.001,0.005 0.003,0.007 0.655,1.021 0.369,2.297 -0.009,3.221 0.233,-0.225 0.421,-0.492 0.564,-0.787 0.221,-0.937 0.163,-1.777 -0.209,-2.45 0.073,0.004 0.129,0.012 0.18,0.019 -0.055,-0.109 -0.11,-0.218 -0.179,-0.318 z"
     id="path12"
     inkscape:connector-curvature="0"
     style="fill:#ffad1f" />
</svg>
