<?xml version="1.0" encoding="UTF-8" standalone="no"?>
<svg
   xmlns:dc="http://purl.org/dc/elements/1.1/"
   xmlns:cc="http://creativecommons.org/ns#"
   xmlns:rdf="http://www.w3.org/1999/02/22-rdf-syntax-ns#"
   xmlns:svg="http://www.w3.org/2000/svg"
   xmlns="http://www.w3.org/2000/svg"
   xmlns:sodipodi="http://sodipodi.sourceforge.net/DTD/sodipodi-0.dtd"
   xmlns:inkscape="http://www.inkscape.org/namespaces/inkscape"
   viewBox="0 0 28 35"
   id="svg2"
   version="1.1"
   inkscape:version="0.91 r13725"
   sodipodi:docname="1f934-1f3fe.svg"
   width="28"
   height="35">
  <metadata
     id="metadata20">
    <rdf:RDF>
      <cc:Work
         rdf:about="">
        <dc:format>image/svg+xml</dc:format>
        <dc:type
           rdf:resource="http://purl.org/dc/dcmitype/StillImage" />
      </cc:Work>
    </rdf:RDF>
  </metadata>
  <defs
     id="defs18" />
  <sodipodi:namedview
     pagecolor="#ffffff"
     bordercolor="#666666"
     borderopacity="1"
     objecttolerance="10"
     gridtolerance="10"
     guidetolerance="10"
     inkscape:pageopacity="0"
     inkscape:pageshadow="2"
     inkscape:window-width="640"
     inkscape:window-height="480"
     id="namedview16"
     showgrid="false"
     inkscape:zoom="6.5555556"
     inkscape:cx="14"
     inkscape:cy="17"
     inkscape:window-x="0"
     inkscape:window-y="0"
     inkscape:window-maximized="0"
     inkscape:current-layer="svg2" />
  <path
     d="m 28,20 c 0,-2.209 -1.119,-4 -2.5,-4 -0.012,0 -0.021,0.005 -0.033,0.005 C 23.955,9.704 19.394,5.125 14,5.125 8.606,5.125 4.044,9.705 2.533,16.005 2.521,16.004 2.511,16 2.5,16 1.119,16 0,17.791 0,20 0,22.107 1.021,23.815 2.314,23.97 3.537,30.619 8.299,35 14,35 19.7,35 24.463,30.619 25.685,23.97 26.979,23.815 28,22.107 28,20 Z"
     id="path4"
     inkscape:connector-curvature="0"
     style="fill:#af7e57" />
  <path
     d="M 9,21 C 8.448,21 8,20.553 8,20 l 0,-2 c 0,-0.552 0.448,-1 1,-1 0.552,0 1,0.448 1,1 l 0,2 c 0,0.553 -0.448,1 -1,1 z m 10,0 c -0.553,0 -1,-0.447 -1,-1 l 0,-2 c 0,-0.552 0.447,-1 1,-1 0.553,0 1,0.448 1,1 l 0,2 c 0,0.553 -0.447,1 -1,1 z"
     id="path6"
     inkscape:connector-curvature="0"
     style="fill:#60352a" />
  <path
     d="M 14,31 C 9.799,31 8.509,29.923 8.293,29.707 7.902,29.316 7.902,28.684 8.293,28.293 8.671,27.914 9.277,27.903 9.669,28.257 9.749,28.315 10.769,29 14,29 c 3.355,0 4.326,-0.739 4.336,-0.747 0.39,-0.389 1.001,-0.37 1.393,0.021 0.391,0.391 0.369,1.043 -0.021,1.434 C 19.491,29.923 18.201,31 14,31 Z m 1,-5 -2,0 c -0.552,0 -1,-0.447 -1,-1 0,-0.553 0.448,-1 1,-1 l 2,0 c 0.553,0 1,0.447 1,1 0,0.553 -0.447,1 -1,1 z"
     id="path8"
     inkscape:connector-curvature="0"
     style="fill:#915a34" />
  <path
     d="m 14,1 c 8,0 13,6 13,11 0,5 -1,7 -2,5 l -2,-4 c 0,0 -6,0 -8,-2 0,0 3,6 -3,0 0,0 1,4 -5,-1 0,0 -3,2 -4,7 C 2.723,18.387 1,17 1,12 1,7 5,1 14,1 Z"
     id="path10"
     inkscape:connector-curvature="0"
     style="fill:#60352a" />
  <path
     d="M 26.68,5.784 C 26.488,5.709 26.269,5.762 26.13,5.914 L 24.672,7.52 22.323,2.777 C 22.241,2.612 22.075,2.506 21.891,2.5 21.696,2.487 21.535,2.589 21.442,2.749 L 19.376,6.314 14.355,0.183 C 14.261,0.067 14.119,0 13.969,0 13.82,0 13.677,0.067 13.583,0.183 L 8.542,6.321 6.422,2.745 C 6.331,2.592 6.182,2.518 5.986,2.5 5.807,2.502 5.644,2.599 5.556,2.754 L 2.909,7.449 1.915,5.971 C 1.792,5.789 1.564,5.705 1.354,5.772 1.144,5.836 1,6.03 1,6.25 L 1,9.5 C 1,9.776 1.224,10 1.5,10 l 25,0 C 26.776,10 27,9.776 27,9.5 L 27,6.25 C 27,6.043 26.873,5.858 26.68,5.784 Z"
     id="path12"
     inkscape:connector-curvature="0"
     style="fill:#99aab5" />
  <path
     d="m 14,3 -2,2 0,2 2,2 2,-2 0,-2 z M 7,6 6,7.415 5,6 6,4.586 Z M 23,6 22,7.415 21,6 22,4.586 Z"
     id="path14"
     inkscape:connector-curvature="0"
     style="fill:#e1e8ed" />
</svg>
