<?xml version="1.0" encoding="UTF-8" standalone="no"?>
<svg
   xmlns:dc="http://purl.org/dc/elements/1.1/"
   xmlns:cc="http://creativecommons.org/ns#"
   xmlns:rdf="http://www.w3.org/1999/02/22-rdf-syntax-ns#"
   xmlns:svg="http://www.w3.org/2000/svg"
   xmlns="http://www.w3.org/2000/svg"
   xmlns:sodipodi="http://sodipodi.sourceforge.net/DTD/sodipodi-0.dtd"
   xmlns:inkscape="http://www.inkscape.org/namespaces/inkscape"
   viewBox="0 0 36 35.176998"
   id="svg2"
   version="1.1"
   inkscape:version="0.91 r13725"
   sodipodi:docname="1f937-1f3fb-200d-2642-fe0f.svg"
   width="36"
   height="35.176998">
  <metadata
     id="metadata36">
    <rdf:RDF>
      <cc:Work
         rdf:about="">
        <dc:format>image/svg+xml</dc:format>
        <dc:type
           rdf:resource="http://purl.org/dc/dcmitype/StillImage" />
      </cc:Work>
    </rdf:RDF>
  </metadata>
  <defs
     id="defs34" />
  <sodipodi:namedview
     pagecolor="#ffffff"
     bordercolor="#666666"
     borderopacity="1"
     objecttolerance="10"
     gridtolerance="10"
     guidetolerance="10"
     inkscape:pageopacity="0"
     inkscape:pageshadow="2"
     inkscape:window-width="640"
     inkscape:window-height="480"
     id="namedview32"
     showgrid="false"
     inkscape:zoom="6.5555556"
     inkscape:cx="18"
     inkscape:cy="18"
     inkscape:window-x="0"
     inkscape:window-y="0"
     inkscape:window-maximized="0"
     inkscape:current-layer="svg2" />
  <path
     d="m 27,20.177 -18,0 c -2.209,0 -4,1.791 -4,4 l 0,11 26,0 0,-11 c 0,-2.209 -1.791,-4 -4,-4 z"
     id="path4"
     inkscape:connector-curvature="0"
     style="fill:#4289c1" />
  <path
     d="m 10,26.177 1,0 0,9 -1,0 z"
     id="path6"
     inkscape:connector-curvature="0"
     style="fill:#2a6797" />
  <path
     d="m 4.702,25.672 -0.283,-0.059 -0.511,0 c 0,-0.058 0.023,-0.112 0.035,-0.169 -0.348,-0.215 -0.546,-0.625 -0.458,-1.048 0.112,-0.542 0.643,-0.89 1.186,-0.779 l 2.091,0.433 1.676,0 c 0.863,0 1.562,0.7 1.562,1.564 l 0,1.563 -3.747,0 c 0,0 -1.481,-0.669 -1.551,-1.505 z"
     id="path8"
     inkscape:connector-curvature="0"
     style="fill:#e0aa94" />
  <path
     d="M 0,24.832 C 0,24.4 0.35,24.05 0.781,24.05 l 4.69,0.782 3.747,0 c 0.432,0 0.781,0.351 0.781,0.781 l 0,1.564 -4.999,0 -4.219,-1.563 c 0,0 -0.781,-0.35 -0.781,-0.782 z"
     id="path10"
     inkscape:connector-curvature="0"
     style="fill:#f7dece" />
  <path
     d="m 4,35.177 6,0 0,-8 -5,0 z"
     id="path12"
     inkscape:connector-curvature="0"
     style="fill:#4289c1" />
  <path
     d="m 25,26.177 1,0 0,9 -1,0 z"
     id="path14"
     inkscape:connector-curvature="0"
     style="fill:#2a6797" />
  <path
     d="m 31.298,25.672 0.283,-0.059 0.511,0 c 0,-0.058 -0.023,-0.112 -0.035,-0.169 0.348,-0.215 0.546,-0.625 0.458,-1.048 -0.112,-0.542 -0.642,-0.89 -1.185,-0.779 l -2.091,0.433 -1.676,0 c -0.863,0 -1.562,0.7 -1.562,1.564 l 0,1.563 3.747,0 c -0.001,0 1.48,-0.669 1.55,-1.505 z"
     id="path16"
     inkscape:connector-curvature="0"
     style="fill:#e0aa94" />
  <path
     d="M 36,24.832 C 36,24.4 35.65,24.05 35.219,24.05 l -4.691,0.782 -3.747,0 C 26.349,24.832 26,25.183 26,25.613 l 0,1.564 5,0 4.219,-1.563 c 0,0 0.781,-0.35 0.781,-0.782 z"
     id="path18"
     inkscape:connector-curvature="0"
     style="fill:#f7dece" />
  <path
     d="m 32,35.177 -6,0 0,-8 5,0 z"
     id="path20"
     inkscape:connector-curvature="0"
     style="fill:#4289c1" />
  <path
     d="m 9,6.177 0,10 c 0,4.971 4.029,9 9,9 4.971,0 9,-4.029 9,-9 l 0,-10 -18,0 z"
     id="path22"
     inkscape:connector-curvature="0"
     style="fill:#f7dece" />
  <path
     d="m 10.847,12.892 c 0,1.58 -0.8,2.861 -1.788,2.861 -0.988,0 -1.788,-1.281 -1.788,-2.861 0,-1.58 0.801,-2.861 1.788,-2.861 0.987,0 1.788,1.281 1.788,2.861 z m 17.882,0 c 0,1.58 -0.8,2.861 -1.788,2.861 -0.988,0 -1.788,-1.281 -1.788,-2.861 0,-1.58 0.8,-2.861 1.788,-2.861 0.988,0 1.788,1.281 1.788,2.861 z"
     id="path24"
     inkscape:connector-curvature="0"
     style="fill:#f7dece" />
  <path
     d="M 18,0 C 10.981,0 7.861,4.684 7.861,8.588 c 0,3.903 1.343,4.986 1.56,3.903 0.78,-3.903 3.12,-5.101 3.12,-5.101 4.68,3.904 3.9,0.781 3.9,0.781 4.679,4.684 2.34,0 2.34,0 1.56,1.562 6.239,1.562 6.239,1.562 0,0 0.78,1.198 1.559,2.759 0.78,1.562 1.56,0 1.56,-3.903 C 28.139,4.684 24.239,0 18,0 Z"
     id="path26"
     inkscape:connector-curvature="0"
     style="fill:#292f33" />
  <path
     d="m 19,18.677 -2,0 c -0.276,0 -0.5,-0.224 -0.5,-0.5 0,-0.276 0.224,-0.5 0.5,-0.5 l 2,0 c 0.276,0 0.5,0.224 0.5,0.5 0,0.276 -0.224,0.5 -0.5,0.5 z m 1.5,3.5 -0.5,0 c -0.276,0 -0.5,-0.224 -0.5,-0.5 0,-0.276 0.224,-0.5 0.5,-0.5 l 0.5,0 c 0.276,0 0.5,0.224 0.5,0.5 0,0.276 -0.224,0.5 -0.5,0.5 z"
     id="path28"
     inkscape:connector-curvature="0"
     style="fill:#bf6952" />
  <path
     d="m 14,15.177 c -0.552,0 -1,-0.448 -1,-1 l 0,-1 c 0,-0.552 0.448,-1 1,-1 0.552,0 1,0.448 1,1 l 0,1 c 0,0.552 -0.448,1 -1,1 z m 8,0 c -0.553,0 -1,-0.448 -1,-1 l 0,-1 c 0,-0.552 0.447,-1 1,-1 0.553,0 1,0.448 1,1 l 0,1 c 0,0.552 -0.447,1 -1,1 z"
     id="path30"
     inkscape:connector-curvature="0"
     style="fill:#662113" />
</svg>
