<?xml version="1.0" encoding="UTF-8" standalone="no"?>
<svg
   xmlns:dc="http://purl.org/dc/elements/1.1/"
   xmlns:cc="http://creativecommons.org/ns#"
   xmlns:rdf="http://www.w3.org/1999/02/22-rdf-syntax-ns#"
   xmlns:svg="http://www.w3.org/2000/svg"
   xmlns="http://www.w3.org/2000/svg"
   xmlns:sodipodi="http://sodipodi.sourceforge.net/DTD/sodipodi-0.dtd"
   xmlns:inkscape="http://www.inkscape.org/namespaces/inkscape"
   viewBox="0 0 26.496363 35.853207"
   id="svg2"
   version="1.1"
   inkscape:version="0.91 r13725"
   sodipodi:docname="1f931-1f3fd.svg"
   width="26.496363"
   height="35.853207">
  <metadata
     id="metadata36">
    <rdf:RDF>
      <cc:Work
         rdf:about="">
        <dc:format>image/svg+xml</dc:format>
        <dc:type
           rdf:resource="http://purl.org/dc/dcmitype/StillImage" />
      </cc:Work>
    </rdf:RDF>
  </metadata>
  <defs
     id="defs34" />
  <sodipodi:namedview
     pagecolor="#ffffff"
     bordercolor="#666666"
     borderopacity="1"
     objecttolerance="10"
     gridtolerance="10"
     guidetolerance="10"
     inkscape:pageopacity="0"
     inkscape:pageshadow="2"
     inkscape:window-width="640"
     inkscape:window-height="480"
     id="namedview32"
     showgrid="false"
     inkscape:zoom="6.5555556"
     inkscape:cx="12.579363"
     inkscape:cy="18"
     inkscape:window-x="0"
     inkscape:window-y="0"
     inkscape:window-maximized="0"
     inkscape:current-layer="svg2" />
  <path
     d="m 18.632363,16.631207 -4.282,0 c -1.793,0 -4.4160005,1.504 -5.4700005,2.451 -0.953,0.856 -4.246,3.302 -4.246,5.802 0,4.716 5.221,10.969 5.221,10.969 l 10.1110005,0 c 0,0 2,-8.719 2,-15.889 0,-1.736 -1.541,-3.333 -3.334,-3.333 z"
     id="path4"
     inkscape:connector-curvature="0"
     style="fill:#9268ca" />
  <path
     d="m 17.117363,17.346207 c -0.178,1.084 -1.277,3.246 -4.038,6.007 -2.5,2.5 -5.5000005,3 -5.5000005,3 0,0 -3.457,0.765 -2.703,-2.25 0.44,-1.762 2.616,-1.833 4.156,-3.922 1.5450005,-2.096 4.8420005,-3.087 6.0470005,-3.328 2.5,-0.5 2.038,0.493 2.038,0.493 z"
     id="path6"
     inkscape:connector-curvature="0"
     style="fill:#d5ab88" />
  <path
     d="m 9.0143625,23.935207 c -0.712,0.558 -1.376,0.494 -1.859,0.094 -0.796,-0.66 -2.004,-0.693 -2.092,-0.426 0.023,1.026 1.116,1.483 1.316,2.556 0.007,0.037 0.018,0.074 0.027,0.112 0.566,0.192 1.173,0.082 1.173,0.082 0,0 0.572,-0.111 1.139,-0.309 0.719,-2.353 1.7090005,-2.342 2.0650005,-3.144 0.119,-0.27 -1.1630005,0.56 -1.7690005,1.035 z"
     id="path8"
     inkscape:connector-curvature="0"
     style="fill:#b78b60" />
  <path
     d="m 9.8243625,5.8572073 c 0.7240005,1.74 -0.09,3.73 -1.817,4.4459997 -1.728,0.718 -3.714,-0.109 -4.436,-1.8489997 -0.723,-1.739 0.091,-3.73 1.819,-4.447 1.728,-0.717 3.714,0.11 4.434,1.85 z"
     id="path10"
     inkscape:connector-curvature="0"
     style="fill:#963b22" />
  <path
     d="m 12.692363,15.114207 0.639,2.538 c 0.258,1.026 0.069,1.857 1.581,1.915 1.056,0.04 2.483,-1.846 2.225,-2.873 l -0.638,-2.538 -3.807,0.958 z"
     id="path12"
     inkscape:connector-curvature="0"
     style="fill:#d5ab88" />
  <path
     d="m 12.692363,15.114207 0.734,2.994 c 3.132,-1.339 3.236,-3.719 3.236,-3.719 l -3.97,0.725 z"
     id="path14"
     inkscape:connector-curvature="0"
     style="fill:#cc9b7a" />
  <path
     d="m 7.2013625,4.6112073 c 0,0 1.356,3.263 -1.556,4.926 l 1.549,3.7279997 c 1.27,3.052 3.0000005,5.239 6.0560005,3.968 3.057,-1.27 6.278,-5.513 5.008,-8.5649997 l -1.281,-3.086 c -6.926,2.608 -9.7760005,-0.971 -9.7760005,-0.971 z"
     id="path16"
     inkscape:connector-curvature="0"
     style="fill:#d5ab88" />
  <path
     d="m 8.2783625,14.616207 -0.387,0.161 c -0.17,0.07 -0.365,-0.008 -0.436,-0.18 -0.069,-0.17 0.01,-0.364 0.179,-0.434 l 0.388,-0.161 c 0.171,-0.072 0.366,0.01 0.436,0.179 0.071,0.171 -0.011,0.363 -0.18,0.435 z"
     id="path18"
     inkscape:connector-curvature="0"
     style="fill:#bf6952" />
  <path
     d="m 8.4683625,12.015207 c -0.339,0.141 -0.729,-0.021 -0.87,-0.359 l -0.257,-0.616 c -0.141,-0.337 0.021,-0.729 0.361,-0.869 0.34,-0.142 0.731,0.021 0.871,0.358 l 0.256,0.616 c 0.14,0.338 -0.02,0.729 -0.361,0.87 z"
     id="path20"
     inkscape:connector-curvature="0"
     style="fill:#662113" />
  <path
     d="m 8.8043625,16.125207 c 0.306,0.37 0.64,0.68 1,0.921 1.3260005,-0.765 1.4180005,-1.926 1.4180005,-1.926 l -2.3550005,0.979 -0.063,0.026 z"
     id="path22"
     inkscape:connector-curvature="0"
     style="fill:#df1f32" />
  <path
     d="m 12.691363,11.863207 -1.833,-2.9539997 c 0,0 -5.0640005,1.2429997 -6.5800005,-1.649 -1.516,-2.891 2.348,-5.581 4.946,-6.49499996 2.5980005,-0.915 6.7730005,-2.00900004 9.3320005,3.26099996 2.37,4.882 -0.68,9.0959997 -1.57,10.2279997 0,0 -1.297,-1.013 -1.671,-1.751 -0.374,-0.739 0.172,-2.6119997 -0.65,-3.1959997 -0.781,-0.554 -2.468,0.014 -1.974,2.5559997 z"
     id="path24"
     inkscape:connector-curvature="0"
     style="fill:#963b22" />
  <path
     d="m 17.885363,5.0952073 c -0.682,-1.427 1.115,-3.782 3.234,-3.566 2.12,0.215 4.612,2.319 3.576,5.085 -0.989,2.645 -0.247,4.6819997 1.801,4.6129997 0,0 -1.172,1.615 -3.168,0.44 -2.083,-1.225 -0.903,-5.0989997 -2.401,-5.8759997 -0.752,-0.391 -1.749,-0.505 -2.151,-0.034 -0.399,0.47 -0.891,-0.662 -0.891,-0.662 z"
     id="path26"
     inkscape:connector-curvature="0"
     style="fill:#963b22" />
  <path
     d="m 11.097363,32.220207 c 1.105,0.007 3.938,-0.359 5.817,-0.824 -1.457,-0.994 -4.946,-3.342 -6.46,-4.075 -1.9380005,-0.938 -5.5620005,-4.062 -6.2810005,-4.812 -0.719,-0.75 -2.438,-0.625 -3.33999999,0.687 -0.641,0.933 -1.499,4.346 -0.004,7.094 1.74699999,3.212 4.76899999,5.539 8.74399999,5.539 1.0500005,0 1.9780005,-0.134 2.8010005,-0.348 -2.253,-0.218 -2.6060005,-3.269 -1.277,-3.261 z"
     id="path28"
     inkscape:connector-curvature="0"
     style="fill:#77b255" />
  <path
     d="m 12.579363,35.853207 -2.565,0 c -2.0940005,0 -4.8100005,-1.656 -4.3680005,-3.156 0.44,-1.495 1.654,-0.486 3.434,-0.486 1.0000005,0 2.0180005,0.01 2.0180005,0.01 0,0 0.799,2.456 1.481,3.632 z"
     id="path30"
     inkscape:connector-curvature="0"
     style="fill:#d5ab88" />
</svg>
