<?xml version="1.0" encoding="UTF-8" standalone="no"?>
<svg
   xmlns:dc="http://purl.org/dc/elements/1.1/"
   xmlns:cc="http://creativecommons.org/ns#"
   xmlns:rdf="http://www.w3.org/1999/02/22-rdf-syntax-ns#"
   xmlns:svg="http://www.w3.org/2000/svg"
   xmlns="http://www.w3.org/2000/svg"
   xmlns:sodipodi="http://sodipodi.sourceforge.net/DTD/sodipodi-0.dtd"
   xmlns:inkscape="http://www.inkscape.org/namespaces/inkscape"
   viewBox="0 0 36.075001 36"
   id="svg2"
   version="1.1"
   inkscape:version="0.91 r13725"
   sodipodi:docname="1f939-1f3ff-200d-2640-fe0f.svg"
   width="36.075001"
   height="36">
  <metadata
     id="metadata44">
    <rdf:RDF>
      <cc:Work
         rdf:about="">
        <dc:format>image/svg+xml</dc:format>
        <dc:type
           rdf:resource="http://purl.org/dc/dcmitype/StillImage" />
      </cc:Work>
    </rdf:RDF>
  </metadata>
  <defs
     id="defs42" />
  <sodipodi:namedview
     pagecolor="#ffffff"
     bordercolor="#666666"
     borderopacity="1"
     objecttolerance="10"
     gridtolerance="10"
     guidetolerance="10"
     inkscape:pageopacity="0"
     inkscape:pageshadow="2"
     inkscape:window-width="640"
     inkscape:window-height="480"
     id="namedview40"
     showgrid="false"
     inkscape:zoom="6.5555556"
     inkscape:cx="18"
     inkscape:cy="18"
     inkscape:window-x="0"
     inkscape:window-y="0"
     inkscape:window-maximized="0"
     inkscape:current-layer="svg2" />
  <path
     d="m 17.455,6.546 c 3.741,0 9.974,1.871 9.974,9.974 0,8.106 0,9.975 -1.87,9.975 -1.87,0 -4.363,-1.869 -8.104,-1.869 -3.741,0 -6.182,1.869 -8.104,1.869 C 7.267,26.495 7.48,19.013 7.48,16.52 7.479,8.417 13.713,6.546 17.455,6.546"
     id="path4"
     inkscape:connector-curvature="0"
     style="fill:#0b0200" />
  <path
     d="M 26,26.163 26.017,26.999 6,26.999 6,36 30,36 30,26.165 Z"
     id="path6"
     inkscape:connector-curvature="0"
     style="fill:#9266cc" />
  <path
     d="m 14,27 c 0,0 0.85,2.063 3.55,2.063 C 20.25,29.063 21,27 21,27 L 20.976,23.1 14,23 l 0,4 z"
     id="path8"
     inkscape:connector-curvature="0"
     style="fill:#7c533e" />
  <path
     d="m 14.019,24.686 c 1.058,1.207 2.049,1.51 3.477,1.51 1.426,0 2.426,-0.304 3.485,-1.51 l 0,-2.5 -6.961,0 0,2.5 z"
     id="path10"
     inkscape:connector-curvature="0"
     style="fill:#664131" />
  <path
     d="m 9.972,16.249 c 0,-5.316 3.35,-9.625 7.482,-9.625 4.13,0 7.48,4.309 7.48,9.625 0,5.313 -3.35,9.37 -7.48,9.37 -4.132,-0.001 -7.482,-4.057 -7.482,-9.37"
     id="path12"
     inkscape:connector-curvature="0"
     style="fill:#7c533e" />
  <path
     d="m 17.455,23.378 c -1.464,0 -2.229,-0.723 -2.312,-0.807 -0.243,-0.244 -0.243,-0.639 0,-0.883 0.242,-0.238 0.631,-0.24 0.876,-0.004 0.032,0.029 0.502,0.447 1.436,0.447 0.946,0 1.417,-0.432 1.435,-0.449 0.25,-0.232 0.642,-0.226 0.877,0.018 0.237,0.246 0.237,0.631 -0.003,0.871 -0.08,0.084 -0.846,0.807 -2.309,0.807"
     id="path14"
     inkscape:connector-curvature="0"
     style="fill:#df1f32" />
  <path
     d="m 8.142,19.239 c -0.019,-0.912 -0.04,-0.205 -0.04,-0.424 0,-3.118 1.871,0.449 1.871,-1.771 0,-2.222 1.247,-2.444 2.494,-3.69 0.624,-0.625 1.87,-1.847 1.87,-1.847 0,0 3.117,1.883 5.612,1.883 2.491,0 4.987,1.253 4.987,3.747 0,2.492 1.87,-1.442 1.87,1.674 0,0.223 -0.021,-0.484 -0.037,0.428 l 0.655,0 c 0.005,-1.822 0.005,-1.753 0.005,-2.918 0,-8.104 -6.233,-11.122 -9.975,-11.122 -3.74,0 -9.974,2.967 -9.974,11.072 0,0.723 -0.019,1.146 0.007,2.968 l 0.655,0 z"
     id="path16"
     inkscape:connector-curvature="0"
     style="fill:#0b0200" />
  <path
     d="m 14.414,18.224 c -0.423,0 -0.77,-0.346 -0.77,-0.771 l 0,-0.769 c 0,-0.424 0.348,-0.771 0.77,-0.771 0.424,0 0.771,0.347 0.771,0.771 l 0,0.769 c 10e-4,0.425 -0.347,0.771 -0.771,0.771 m 6.163,0 c -0.424,0 -0.771,-0.346 -0.771,-0.771 l 0,-0.769 c 0,-0.424 0.347,-0.771 0.771,-0.771 0.424,0 0.771,0.347 0.771,0.771 l 0,0.769 c 0.001,0.425 -0.347,0.771 -0.771,0.771"
     id="path18"
     inkscape:connector-curvature="0" />
  <path
     d="m 18.267,20.606 -1.541,0 c -0.212,0 -0.385,-0.174 -0.385,-0.387 l 0,-0.139 c 0,-0.215 0.173,-0.389 0.385,-0.389 l 1.541,0 c 0.212,0 0.385,0.174 0.385,0.389 l 0,0.139 c -0.001,0.214 -0.173,0.387 -0.385,0.387"
     id="path20"
     inkscape:connector-curvature="0"
     style="fill:#3d2e24" />
  <path
     d="m 5.895,14.205 c 0,0 -3.834,1.39 -4.214,6.221 0,0 -2.4,-4.817 -0.522,-10.149 l 4.736,3.928 z M 20.051,5.977 c 0,0 -2.758,-3.005 -7.363,-1.497 0,0 3.522,-4.069 9.167,-4.387 l -1.804,5.884 z m 9.22,10.36 c 0,0 1.972,-3.571 -0.923,-7.457 0,0 4.978,2.046 7.075,7.296 l -6.152,0.161 z"
     id="path22"
     inkscape:connector-curvature="0"
     style="fill:#d1d3d4" />
  <circle
     cx="4.6030002"
     cy="10.986"
     r="3.5"
     id="circle24"
     style="fill:#5c913b" />
  <circle
     cx="22.516001"
     cy="3.5"
     r="3.5"
     id="circle26"
     style="fill:#be1931" />
  <circle
     cx="32.396"
     cy="17.854"
     r="3.5"
     id="circle28"
     style="fill:#3b88c3" />
  <path
     d="M 32.646,23.488 C 32.535,22.95 32.012,22.604 31.477,22.714 l -2.057,0.431 -1.809,0 c -0.85,0 -1.538,0.695 -1.538,1.555 l 0,1.552 3.847,0 c 0.83,0 1.503,-0.666 1.532,-1.496 l 0.273,-0.057 0.503,0 c 0,-0.059 -0.022,-0.113 -0.035,-0.169 0.342,-0.215 0.537,-0.621 0.453,-1.042 z"
     id="path30"
     inkscape:connector-curvature="0"
     style="fill:#664131" />
  <path
     d="m 36.075,23.921 c 0,-0.429 -0.344,-0.776 -0.77,-0.776 l -4.616,0.776 -3.847,0 c -0.426,0 -0.77,0.349 -0.77,0.778 L 26,26.25 l 1.611,0.002 3.078,0 4.616,-1.553 c 10e-4,0 0.77,-0.348 0.77,-0.778 z"
     id="path32"
     inkscape:connector-curvature="0"
     style="fill:#7c533e" />
  <path
     d="m 3.43,27.236 c 0.11,-0.538 0.633,-0.884 1.168,-0.774 l 2.058,0.431 1.808,0 c 0.85,0 1.539,0.695 1.539,1.555 l 0,1.552 -3.848,0 C 5.325,30 4.652,29.334 4.623,28.504 l -0.273,-0.057 -0.503,0 c 0,-0.059 0.022,-0.113 0.036,-0.169 C 3.54,28.063 3.345,27.657 3.43,27.236 Z"
     id="path34"
     inkscape:connector-curvature="0"
     style="fill:#664131" />
  <path
     d="M 0,27.669 C 0,27.24 0.344,26.893 0.769,26.893 l 4.617,0.776 3.847,0 c 0.425,0 0.769,0.349 0.769,0.778 l 0,1.553 -4.616,0 -4.617,-1.553 C 0.769,28.447 0,28.099 0,27.669 Z"
     id="path36"
     inkscape:connector-curvature="0"
     style="fill:#7c533e" />
  <path
     d="m 10,30 1,0 0,6 -1,0 z m 15,-3 1,0 0,9 -1,0 z"
     id="path38"
     inkscape:connector-curvature="0"
     style="fill:#744eaa" />
</svg>
