<?xml version="1.0" encoding="UTF-8" standalone="no"?>
<svg
   xmlns:dc="http://purl.org/dc/elements/1.1/"
   xmlns:cc="http://creativecommons.org/ns#"
   xmlns:rdf="http://www.w3.org/1999/02/22-rdf-syntax-ns#"
   xmlns:svg="http://www.w3.org/2000/svg"
   xmlns="http://www.w3.org/2000/svg"
   xmlns:sodipodi="http://sodipodi.sourceforge.net/DTD/sodipodi-0.dtd"
   xmlns:inkscape="http://www.inkscape.org/namespaces/inkscape"
   viewBox="0 0 36 35.999931"
   id="svg2"
   version="1.1"
   inkscape:version="0.91 r13725"
   sodipodi:docname="1f941.svg"
   width="36"
   height="35.999931">
  <metadata
     id="metadata32">
    <rdf:RDF>
      <cc:Work
         rdf:about="">
        <dc:format>image/svg+xml</dc:format>
        <dc:type
           rdf:resource="http://purl.org/dc/dcmitype/StillImage" />
      </cc:Work>
    </rdf:RDF>
  </metadata>
  <defs
     id="defs30" />
  <sodipodi:namedview
     pagecolor="#ffffff"
     bordercolor="#666666"
     borderopacity="1"
     objecttolerance="10"
     gridtolerance="10"
     guidetolerance="10"
     inkscape:pageopacity="0"
     inkscape:pageshadow="2"
     inkscape:window-width="640"
     inkscape:window-height="480"
     id="namedview28"
     showgrid="false"
     inkscape:zoom="6.5555556"
     inkscape:cx="18"
     inkscape:cy="18"
     inkscape:window-x="0"
     inkscape:window-y="0"
     inkscape:window-maximized="0"
     inkscape:current-layer="svg2" />
  <path
     d="m 0,17.999932 36,0 0,9 -36,0 z"
     id="path4"
     inkscape:connector-curvature="0"
     style="fill:#f18f26" />
  <ellipse
     cx="18"
     cy="25.999931"
     rx="18"
     ry="9"
     id="ellipse6"
     style="fill:#f18f26" />
  <ellipse
     cx="18"
     cy="26.999931"
     rx="18"
     ry="9"
     id="ellipse8"
     style="fill:#f18f26" />
  <path
     d="m 0,9.9999318 0,16.0000002 0.117,0 c 0.996,4.499 8.619,8 17.883,8 9.264,0 16.887,-3.501 17.883,-8 l 0.117,0 0,-16.0000002 -36,0 z"
     id="path10"
     inkscape:connector-curvature="0"
     style="fill:#9d0522" />
  <ellipse
     cx="18"
     cy="10.999931"
     rx="18"
     ry="9"
     id="ellipse12"
     style="fill:#f18f26" />
  <ellipse
     cx="18"
     cy="11.999931"
     rx="18"
     ry="9"
     id="ellipse14"
     style="fill:#f18f26" />
  <path
     d="m 0,9.9999318 1,0 0,2.0000002 -1,0 z m 35,0 1,0 0,2.0000002 -1,0 z"
     id="path16"
     inkscape:connector-curvature="0"
     style="fill:#f18f26" />
  <ellipse
     cx="18"
     cy="9.9999313"
     rx="18"
     ry="9"
     id="ellipse18"
     style="fill:#fcab40" />
  <ellipse
     cx="18"
     cy="9.9999313"
     rx="17"
     ry="8"
     id="ellipse20"
     style="fill:#f5f8fa" />
  <path
     d="m 18,2.9999318 c 9.03,0 16.395,3.316 16.946,7.5000002 0.022,-0.166 0.054,-0.331 0.054,-0.5000002 0,-4.418 -7.611,-8 -17,-8 -9.389,0 -17,3.582 -17,8 C 1,10.168932 1.032,10.333932 1.054,10.499932 1.605,6.3159318 8.97,2.9999318 18,2.9999318 Z"
     id="path22"
     inkscape:connector-curvature="0"
     style="fill:#fdd888" />
  <path
     d="m 28.601,2.5989318 c 0.44,-0.33 0.53,-0.96 0.2,-1.4 l -0.6,-0.80000004 c -0.33,-0.44 -0.96,-0.53 -1.4,-0.2 L 14.157,10.242932 c -0.774,-0.167 -1.785,0.083 -2.673,0.749 -1.326,0.994 -1.863,2.516 -1.2,3.4 0.663,0.884 2.275,0.794 3.6,-0.2 0.835,-0.626 1.355,-1.461 1.462,-2.215 L 28.601,2.5989318 Z m 5.868,2.919 -0.509,-0.861 c -0.28,-0.474 -0.896,-0.632 -1.37,-0.352 L 18.677,13.055932 c -0.719,-0.141 -1.626,0.023 -2.472,0.524 -1.426,0.843 -2.127,2.297 -1.565,3.248 0.562,0.951 2.174,1.039 3.6,0.196 1.005,-0.594 1.638,-1.49 1.735,-2.301 L 34.117,6.8879318 c 0.474,-0.281 0.632,-0.897 0.352,-1.37 z"
     id="path24"
     inkscape:connector-curvature="0"
     style="fill:#aa695b" />
  <path
     d="m 2,27.999932 c -0.55,0 -1,-0.45 -1,-1 l 0,-9 c 0,-0.55 0.45,-1 1,-1 0.55,0 1,0.45 1,1 l 0,9 c 0,0.55 -0.45,1 -1,1 z m 9,4 c -0.55,0 -1,-0.45 -1,-1 l 0,-9 c 0,-0.55 0.45,-1 1,-1 0.55,0 1,0.45 1,1 l 0,9 c 0,0.55 -0.45,1 -1,1 z m 12,0 c -0.55,0 -1,-0.45 -1,-1 l 0,-9 c 0,-0.55 0.45,-1 1,-1 0.55,0 1,0.45 1,1 l 0,9 c 0,0.55 -0.45,1 -1,1 z m 11,-4 c -0.55,0 -1,-0.45 -1,-1 l 0,-9 c 0,-0.55 0.45,-1 1,-1 0.55,0 1,0.45 1,1 l 0,9 c 0,0.55 -0.45,1 -1,1 z"
     id="path26"
     inkscape:connector-curvature="0"
     style="fill:#da2f47" />
</svg>
