<?xml version="1.0" encoding="UTF-8" standalone="no"?>
<svg
   xmlns:dc="http://purl.org/dc/elements/1.1/"
   xmlns:cc="http://creativecommons.org/ns#"
   xmlns:rdf="http://www.w3.org/1999/02/22-rdf-syntax-ns#"
   xmlns:svg="http://www.w3.org/2000/svg"
   xmlns="http://www.w3.org/2000/svg"
   xmlns:sodipodi="http://sodipodi.sourceforge.net/DTD/sodipodi-0.dtd"
   xmlns:inkscape="http://www.inkscape.org/namespaces/inkscape"
   viewBox="0 0 35.796345 35.794601"
   id="svg2"
   version="1.1"
   inkscape:version="0.91 r13725"
   sodipodi:docname="1f94d.svg"
   width="35.796345"
   height="35.794601">
  <metadata
     id="metadata32">
    <rdf:RDF>
      <cc:Work
         rdf:about="">
        <dc:format>image/svg+xml</dc:format>
        <dc:type
           rdf:resource="http://purl.org/dc/dcmitype/StillImage" />
      </cc:Work>
    </rdf:RDF>
  </metadata>
  <defs
     id="defs30" />
  <sodipodi:namedview
     pagecolor="#ffffff"
     bordercolor="#666666"
     borderopacity="1"
     objecttolerance="10"
     gridtolerance="10"
     guidetolerance="10"
     inkscape:pageopacity="0"
     inkscape:pageshadow="2"
     inkscape:window-width="640"
     inkscape:window-height="480"
     id="namedview28"
     showgrid="false"
     inkscape:zoom="6.5555556"
     inkscape:cx="17.88825"
     inkscape:cy="17.899"
     inkscape:window-x="0"
     inkscape:window-y="0"
     inkscape:window-maximized="0"
     inkscape:current-layer="svg2" />
  <path
     d="m 32.52425,6.4555997 -4.652,1.498 1.475,-4.651 -4.642,1.485 0.453,-1.395 -0.389,-0.126 -0.544,1.676 -1.857,0.598 0.697,-2.148 -0.388,-0.126 -0.788,2.428 -2.923,0.941 0.125,0.388 2.643,-0.851 -0.605,1.863 -2.627,0.848 0.125,0.388 2.347,-0.757 -0.604,1.8610003 -3.137,1.013 0.125,0.388 0.519,-0.167 -0.608,1.872 -2.284,0.739 0.125,0.388 2.003,-0.648 -0.61,1.879 -2.36,0.766 0.126,0.388 2.078,-0.675 -0.604,1.86 -1.6,0.52 0.126,0.388 1.319,-0.428 -0.759,2.34 2.34,-0.759 -0.428,1.319 0.388,0.126 0.519,-1.601 1.86,-0.604 -0.674,2.078 0.389,0.126 0.766,-2.36 1.878,-0.61 -0.648,2.003 0.389,0.125 0.739,-2.284 2.349,-0.762 0.755,-2.338 1.861,-0.604 -0.757,2.347 0.389,0.125 0.848,-2.627 1.862,-0.604 -0.851,2.644 0.389,0.125 0.941,-2.924 2.427,-0.788 -0.125,-0.388 -2.148,0.697 0.598,-1.859 1.675,-0.544 -0.125,-0.388 -1.396,0.453 1.485,-4.6670003 z m -0.614,0.623 -0.598,1.859 -1.857,0.601 0.6,-1.861 1.855,-0.599 z m -2.334,0.753 -0.601,1.861 -1.859,0.6020003 0.601,-1.8630003 1.859,-0.6 z m -4.678,1.51 -0.603,1.8660003 -1.868,0.604 0.606,-1.8680003 1.865,-0.602 z m -1.711,0.124 0.604,-1.861 1.862,-0.601 -0.602,1.86 -1.864,0.602 z m 2.19,-0.278 1.862,-0.601 -0.602,1.8630003 -1.864,0.603 0.604,-1.8650003 z m -1.237,2.4980003 -0.605,1.87 -1.872,0.608 0.608,-1.873 1.869,-0.605 z m -2.194,0.282 -1.859,0.602 0.607,-1.87 1.859,-0.6 -0.607,1.868 z m -0.155,0.478 -0.608,1.874 -1.86,0.604 0.609,-1.876 1.859,-0.602 z m -0.764,2.353 -0.604,1.86 -1.86,0.604 0.604,-1.86 1.86,-0.604 z m 0.48,-0.156 1.872,-0.608 -0.601,1.86 -1.875,0.608 0.604,-1.86 z m 2.352,-0.764 1.867,-0.606 -0.6,1.859 -1.868,0.606 0.601,-1.859 z m 0.155,-0.478 0.605,-1.87 1.865,-0.603 -0.603,1.867 -1.867,0.606 z m 2.948,-2.628 1.859,-0.602 -0.602,1.864 -1.86,0.604 0.603,-1.866 z m 0.431,-2.6640003 -1.862,0.601 0.602,-1.86 1.861,-0.6 -0.601,1.859 z m 1.354,-4.194 -0.599,1.856 -1.86,0.6 0.601,-1.858 1.858,-0.598 z m -2.337,0.752 -0.601,1.859 -1.862,0.601 0.604,-1.861 1.859,-0.599 z m -4.198,1.352 1.858,-0.598 -0.604,1.861 -1.859,0.6 0.605,-1.863 z m -0.759,2.341 1.859,-0.6 -0.604,1.861 -1.859,0.6000003 0.604,-1.8610003 z m -3.097,3.0940003 1.859,-0.6 -0.607,1.87 -1.859,0.602 0.607,-1.872 z m -0.763,2.35 1.859,-0.601 -0.609,1.876 -1.86,0.604 0.61,-1.879 z m -0.765,2.358 1.86,-0.604 -0.604,1.86 -1.86,0.604 0.604,-1.86 z m -1.364,4.2 0.604,-1.861 1.86,-0.604 -0.604,1.861 -1.86,0.604 z m 2.34,-0.76 0.604,-1.861 1.86,-0.604 -0.604,1.861 -1.86,0.604 z m 2.34,-0.759 0.604,-1.861 1.875,-0.609 -0.602,1.86 -1.877,0.61 z m 4.227,-1.372 -1.87,0.607 0.602,-1.86 1.869,-0.606 -0.601,1.859 z m 1.234,-2.494 0.6,-1.859 1.86,-0.604 -0.6,1.859 -1.86,0.604 z m 4.202,-1.364 -1.862,0.604 0.6,-1.859 1.86,-0.604 -0.598,1.859 z m 0.752,-2.337 -1.86,0.604 0.601,-1.864 1.858,-0.6000003 -0.599,1.8600003 z"
     id="path4"
     inkscape:connector-curvature="0"
     style="fill:#292f33" />
  <path
     d="m 1.16525,35.7946 c -0.298,0 -0.596,-0.114 -0.824,-0.341 -0.455,-0.455 -0.455,-1.192 0,-1.647 l 11.678,-11.678 c 0.455,-0.454 1.192,-0.454 1.647,0 0.455,0.455 0.455,1.192 0,1.647 l -11.677,11.679 c -0.228,0.227 -0.526,0.34 -0.824,0.34 z"
     id="path6"
     inkscape:connector-curvature="0"
     style="fill:#ccd6dd" />
  <path
     d="m 27.67125,17.1756 -1.473,-0.229 c 0.331,-2.125 -0.304,-4.169 -1.741,-5.608 -1.438,-1.4370003 -3.478,-2.0760003 -5.608,-1.7420003 l -0.229,-1.472 c 2.598,-0.405 5.112,0.382 6.89,2.1600003 1.778,1.779 2.565,4.291 2.161,6.891 z"
     id="path8"
     inkscape:connector-curvature="0"
     style="fill:#292f33" />
  <path
     d="m 30.44625,16.4996 -1.477,-0.194 c 0.351,-2.659 -0.515,-5.249 -2.372,-7.1060003 -1.857,-1.858 -4.452,-2.722 -7.105,-2.373 l -0.195,-1.477 c 3.126,-0.412 6.167,0.607 8.354,2.796 2.187,2.1880003 3.207,5.2320003 2.795,8.3540003 z"
     id="path10"
     inkscape:connector-curvature="0"
     style="fill:#292f33" />
  <path
     d="m 33.27425,15.1146 -1.484,-0.134 c 0.265,-2.932 -0.819,-5.8480003 -2.973,-8.0010003 -2.154,-2.154 -5.07,-3.232 -8.002,-2.974 l -0.135,-1.483 c 3.375,-0.304 6.789,0.901 9.256,3.369 2.467,2.466 3.641,5.8500003 3.338,9.2230003 z"
     id="path12"
     inkscape:connector-curvature="0"
     style="fill:#292f33" />
  <path
     d="m 32.41825,3.3765997 c -3.026,-3.025 -7.951,-5.17 -11.871,-1.25 -1.468,1.467 -1.742,2.914 -2.033,4.445 -0.396,2.083 -0.845,4.4450003 -4.431,8.0310003 -1.691,1.691 -1.774,3.066 -1.848,4.279 -0.059,0.964 -0.109,1.797 -0.899,2.918 -0.209,0.296 -0.174,0.7 0.082,0.956 l 1.624,1.624 c 0.145,0.144 0.335,0.218 0.527,0.218 0.149,0 0.3,-0.044 0.429,-0.136 1.12,-0.79 1.953,-0.84 2.917,-0.899 1.213,-0.074 2.587,-0.157 4.278,-1.848 3.587,-3.586 5.948,-4.035 8.032,-4.431 1.531,-0.291 2.978,-0.565 4.444,-2.033 3.92,-3.922 1.777,-8.8470003 -1.251,-11.8740003 z M 28.94725,15.8176 c -2.182,0.415 -4.896,0.93 -8.807,4.841 -0.185,0.185 -0.36,0.339 -0.531,0.477 -1.086,0.258 -2.598,0.261 -3.904,-1.045 -1.306,-1.306 -1.304,-2.818 -1.045,-3.904 0.138,-0.17 0.292,-0.345 0.476,-0.53 3.911,-3.911 4.426,-6.6250003 4.841,-8.8070003 0.278,-1.467 0.479,-2.526 1.622,-3.669 0.261,-0.261 0.524,-0.486 0.79,-0.68 2.958,0.286 5.35,1.361 7.48,3.427 2.132,2.068 3.18,4.7870003 3.424,7.4780003 -0.194,0.266 -0.416,0.53 -0.677,0.791 -1.143,1.141 -2.203,1.343 -3.669,1.621 z"
     id="path14"
     inkscape:connector-curvature="0"
     style="fill:#aab8c2" />
  <circle
     cx="24.825251"
     cy="28.770599"
     r="3.4000001"
     id="circle16"
     style="fill:#ccd6dd" />
  <circle
     cx="25.49225"
     cy="1.6925998"
     r="1.104"
     id="circle18"
     style="fill:#ffffff" />
  <circle
     cx="29.148251"
     cy="3.4575996"
     r="1.104"
     id="circle20"
     style="fill:#ffffff" />
  <circle
     cx="32.289249"
     cy="6.6455998"
     r="1.104"
     id="circle22"
     style="fill:#ffffff" />
  <circle
     cx="34.102249"
     cy="10.270599"
     r="1.104"
     id="circle24"
     style="fill:#ffffff" />
  <path
     d="m 24.97325,4.2015997 c -0.055,0 -0.11,-0.007 -0.165,-0.022 -0.331,-0.091 -0.524,-0.433 -0.434,-0.764 l 0.395,-1.426 c 0.092,-0.33 0.438,-0.522 0.764,-0.433 0.331,0.091 0.524,0.433 0.434,0.764 l -0.395,1.426 c -0.077,0.275 -0.327,0.455 -0.599,0.455 z m 3.021,1.487 c -0.123,0 -0.248,-0.037 -0.357,-0.114 -0.279,-0.198 -0.347,-0.585 -0.148,-0.865 l 0.845,-1.196 c 0.197,-0.279 0.583,-0.348 0.865,-0.149 0.279,0.198 0.347,0.585 0.148,0.865 l -0.845,1.196 c -0.121,0.172 -0.312,0.263 -0.508,0.263 z m 4.219,5.7530003 c -0.272,0 -0.521,-0.18 -0.598,-0.455 -0.092,-0.33 0.102,-0.672 0.432,-0.764 l 1.426,-0.3950003 c 0.333,-0.089 0.673,0.103 0.764,0.4330003 0.092,0.33 -0.102,0.672 -0.432,0.764 l -1.426,0.395 c -0.055,0.015 -0.111,0.022 -0.166,0.022 z m -1.512,-3.0480003 c -0.195,0 -0.387,-0.091 -0.508,-0.262 -0.198,-0.28 -0.131,-0.667 0.148,-0.865 l 1.195,-0.845 c 0.282,-0.2 0.668,-0.13 0.865,0.148 0.198,0.28 0.131,0.667 -0.148,0.865 l -1.195,0.845 c -0.109,0.077 -0.234,0.114 -0.357,0.114 z"
     id="path26"
     inkscape:connector-curvature="0"
     style="fill:#292f33" />
</svg>
