<?xml version="1.0" encoding="UTF-8" standalone="no"?>
<svg
   xmlns:dc="http://purl.org/dc/elements/1.1/"
   xmlns:cc="http://creativecommons.org/ns#"
   xmlns:rdf="http://www.w3.org/1999/02/22-rdf-syntax-ns#"
   xmlns:svg="http://www.w3.org/2000/svg"
   xmlns="http://www.w3.org/2000/svg"
   xmlns:sodipodi="http://sodipodi.sourceforge.net/DTD/sodipodi-0.dtd"
   xmlns:inkscape="http://www.inkscape.org/namespaces/inkscape"
   viewBox="0 0 35.152294 35.57196"
   id="svg2"
   version="1.1"
   inkscape:version="0.91 r13725"
   sodipodi:docname="1f942.svg"
   width="35.152294"
   height="35.57196">
  <metadata
     id="metadata42">
    <rdf:RDF>
      <cc:Work
         rdf:about="">
        <dc:format>image/svg+xml</dc:format>
        <dc:type
           rdf:resource="http://purl.org/dc/dcmitype/StillImage" />
      </cc:Work>
    </rdf:RDF>
  </metadata>
  <defs
     id="defs40" />
  <sodipodi:namedview
     pagecolor="#ffffff"
     bordercolor="#666666"
     borderopacity="1"
     objecttolerance="10"
     gridtolerance="10"
     guidetolerance="10"
     inkscape:pageopacity="0"
     inkscape:pageshadow="2"
     inkscape:window-width="640"
     inkscape:window-height="480"
     id="namedview38"
     showgrid="false"
     inkscape:zoom="6.5555556"
     inkscape:cx="17.250079"
     inkscape:cy="17.690756"
     inkscape:window-x="0"
     inkscape:window-y="0"
     inkscape:window-maximized="0"
     inkscape:current-layer="svg2" />
  <path
     d="m 28.406079,4.0402031 c -0.492,-0.245 -0.694,-0.849 -0.449,-1.341 l 1.07,-2.14600004 c 0.245,-0.492 0.849,-0.694 1.341,-0.449 0.492,0.245 0.694,0.849 0.449,1.34100004 l -1.07,2.146 c -0.245,0.492 -0.849,0.694 -1.341,0.449 m 0.98,2.199 -0.027,-0.083 c -0.167,-0.499 0.104,-1.043 0.603,-1.21 l 3.904,-1.296 c 0.498,-0.167 1.044,0.104 1.21,0.603 l 0.027,0.083 c 0.167,0.499 -0.105,1.044 -0.604,1.211 l -3.903,1.295 c -0.498,0.167 -1.043,-0.104 -1.21,-0.603 m 0.514,2.264 c -0.245,0.492 -0.043,1.096 0.449,1.341 l 2.146,1.0699999 c 0.492,0.245 1.096,0.043 1.341,-0.449 0.245,-0.4919999 0.043,-1.0959999 -0.449,-1.3409999 l -2.146,-1.07 c -0.492,-0.245 -1.096,-0.043 -1.341,0.449"
     id="path4"
     inkscape:connector-curvature="0"
     style="fill:#fa743e" />
  <path
     d="m 10.380079,31.907203 c -1.0420001,-0.349 -3.1180001,-0.951 -2.6780001,-4.476 l 0.646,-5.174 c 0.121,-0.97 1.177,-1.265 2.3290001,-1.811 1.001,-0.475 3.415,-2.103 4.009,-6.857 0.518,-4.1559999 -0.265,-10.7219999 -0.47,-12.3069999 l -4.5780001,-0.52900004 -4.58,-0.53 c -0.562,1.49700004 -2.823,7.71000004 -3.267,11.87499994 -0.507,4.764 1.472,6.9 2.338,7.591 0.997,0.794 1.958,1.322 1.854,2.294 -0.103,0.972 -0.177,1.652 -0.552,5.185 -0.376,3.532 -2.535,3.644 -3.629,3.746 -2.07699998,0.193 -2.19199998,1.882 -1.18799998,1.988 1.00599998,0.108 5.23499998,0.603 5.23499998,0.603 0,0 4.2310001,0.484 5.2340001,0.608 1.002,0.127 1.275,-1.544 -0.703,-2.206 z"
     id="path6"
     inkscape:connector-curvature="0"
     style="fill:#e1e8ed" />
  <path
     d="m 13.033079,3.3972031 c -0.383,0.243 -2.359,1.308 -4.7430001,1.508 -1.653,0.14 -3.701,-0.07 -4.037,1.041 -0.678,2.241 -1.217,4.2209999 -1.434,6.2619999 -0.412,3.865 0.928,5.729 1.73,6.48 l 0.022,0.019 c 0.098,0.079 1.052,0.808 2.85,1.016 1.786,0.207 2.9170001,-0.273 3.0470001,-0.332 0.014,-0.006 0.018,-0.009 0.031,-0.016 0.953,-0.549 2.68,-2.058 3.161,-5.913 0.354,-2.842 0.069,-6.9339999 -0.194,-9.5969999 -0.02,-0.204 -0.05,-0.711 -0.433,-0.468 z"
     id="path8"
     inkscape:connector-curvature="0"
     style="fill:#ffcc4d" />
  <circle
     cx="11.602079"
     cy="6.4142032"
     r="0.64499998"
     id="circle10"
     style="fill:#ffd983" />
  <circle
     cx="9.4910793"
     cy="8.5632029"
     r="0.64499998"
     id="circle12"
     style="fill:#ffd983" />
  <circle
     cx="11.911079"
     cy="11.040203"
     r="0.64499998"
     id="circle14"
     style="fill:#ffd983" />
  <circle
     cx="8.4230795"
     cy="12.650203"
     r="0.64499998"
     id="circle16"
     style="fill:#ffd983" />
  <circle
     cx="6.3620791"
     cy="9.976203"
     r="0.64499998"
     id="circle18"
     style="fill:#ffd983" />
  <circle
     cx="6.0180793"
     cy="6.9252033"
     r="0.64499998"
     id="circle20"
     style="fill:#ffd983" />
  <path
     d="m 20.043079,33.358203 c 1.042,-0.349 3.118,-0.951 2.678,-4.476 l -0.646,-5.174 c -0.121,-0.97 -1.177,-1.265 -2.329,-1.811 -1.001,-0.475 -3.415,-2.103 -4.009,-6.857 -0.518,-4.156 0.265,-10.7219999 0.47,-12.3069999 l 4.578,-0.529 4.578,-0.529 c 0.562,1.497 2.823,7.71 3.267,11.8749999 0.507,4.764 -1.472,6.9 -2.338,7.591 -0.997,0.794 -1.958,1.322 -1.854,2.294 0.103,0.972 0.177,1.652 0.552,5.185 0.376,3.532 2.535,3.644 3.629,3.746 2.077,0.193 2.192,1.882 1.188,1.988 -1.006,0.108 -5.235,0.603 -5.235,0.603 0,0 -4.231,0.484 -5.234,0.608 -1,0.126 -1.273,-1.544 0.705,-2.207 z"
     id="path22"
     inkscape:connector-curvature="0"
     style="fill:#e1e8ed" />
  <path
     d="m 17.390079,4.8482031 c 0.383,0.243 2.36,1.308 4.743,1.508 1.653,0.139 3.702,-0.071 4.038,1.041 0.678,2.241 1.217,4.2209999 1.434,6.2619999 0.412,3.865 -0.928,5.729 -1.73,6.48 l -0.022,0.019 c -0.098,0.079 -1.052,0.808 -2.85,1.016 -1.786,0.207 -2.917,-0.273 -3.047,-0.332 -0.014,-0.006 -0.018,-0.009 -0.031,-0.016 -0.953,-0.549 -2.68,-2.058 -3.161,-5.913 -0.354,-2.842 -0.069,-6.9339999 0.194,-9.5969999 0.019,-0.204 0.049,-0.711 0.432,-0.468 z"
     id="path24"
     inkscape:connector-curvature="0"
     style="fill:#ffcc4d" />
  <circle
     cx="18.821077"
     cy="7.8662033"
     r="0.64499998"
     id="circle26"
     style="fill:#ffd983" />
  <circle
     cx="20.932077"
     cy="10.014203"
     r="0.64499998"
     id="circle28"
     style="fill:#ffd983" />
  <circle
     cx="18.512077"
     cy="12.491202"
     r="0.64499998"
     id="circle30"
     style="fill:#ffd983" />
  <circle
     cx="22.000078"
     cy="14.102202"
     r="0.64499998"
     id="circle32"
     style="fill:#ffd983" />
  <circle
     cx="24.061079"
     cy="11.427202"
     r="0.64499998"
     id="circle34"
     style="fill:#ffd983" />
  <circle
     cx="24.405079"
     cy="8.377203"
     r="0.64499998"
     id="circle36"
     style="fill:#ffd983" />
</svg>
