<?xml version="1.0" encoding="UTF-8" standalone="no"?>
<svg
   xmlns:dc="http://purl.org/dc/elements/1.1/"
   xmlns:cc="http://creativecommons.org/ns#"
   xmlns:rdf="http://www.w3.org/1999/02/22-rdf-syntax-ns#"
   xmlns:svg="http://www.w3.org/2000/svg"
   xmlns="http://www.w3.org/2000/svg"
   xmlns:sodipodi="http://sodipodi.sourceforge.net/DTD/sodipodi-0.dtd"
   xmlns:inkscape="http://www.inkscape.org/namespaces/inkscape"
   viewBox="0 0 35.0625 34.062641"
   id="svg2"
   version="1.1"
   inkscape:version="0.91 r13725"
   sodipodi:docname="1f953.svg"
   width="35.0625"
   height="34.062641">
  <metadata
     id="metadata20">
    <rdf:RDF>
      <cc:Work
         rdf:about="">
        <dc:format>image/svg+xml</dc:format>
        <dc:type
           rdf:resource="http://purl.org/dc/dcmitype/StillImage" />
      </cc:Work>
    </rdf:RDF>
  </metadata>
  <defs
     id="defs18" />
  <sodipodi:namedview
     pagecolor="#ffffff"
     bordercolor="#666666"
     borderopacity="1"
     objecttolerance="10"
     gridtolerance="10"
     guidetolerance="10"
     inkscape:pageopacity="0"
     inkscape:pageshadow="2"
     inkscape:window-width="640"
     inkscape:window-height="480"
     id="namedview16"
     showgrid="false"
     inkscape:zoom="6.5555556"
     inkscape:cx="17.531"
     inkscape:cy="17.030001"
     inkscape:window-x="0"
     inkscape:window-y="0"
     inkscape:window-maximized="0"
     inkscape:current-layer="svg2" />
  <path
     d="m 20,31.063641 c -0.847,-0.703 -0.443,-2.444 -2,-4 -1.557,-1.557 -5.102,-1.785 -6.658,-3.342 -1.557,-1.557 -2.785,-6.102 -4.342,-7.659 -1.556,-1.557 -3.016,-1.508 -4,-2 -2,-1 -2.882,-2.942 -3,-4 0,0 3.143,-3.0010003 3,-5.0000003 -0.143,-1.999 2,-5 2,-5 0,0 1,-1.001 5,5 0.784,1.177 4,1 6,3 2,2.0000003 2,4.9990003 4,7.0000003 2,2 5,2 7,4 2,2 1.822,5.216 3,6 6,4 5,5 5,5 0,0 -4.17,3 -6.999,3 -1.001,0 -4.001,1 -4.001,1 -1,10e-4 -2.123,-1.439 -4,-2.999 z"
     id="path4"
     inkscape:connector-curvature="0"
     style="fill:#dd2e44" />
  <path
     d="m 33.983,30.499641 c -0.257,-0.657 -1.298,-1.979 -4.984,-4.436 -1.178,-0.784 -1,-4 -3,-6 -2,-2 -5,-2 -7,-4 -2,-2 -2,-5 -4,-7.0000003 -2,-2 -5.216,-1.823 -6,-3 -2.456,-3.686 -3.778,-4.726 -4.435,-4.983 -0.066,-0.026 -0.125,-0.045 -0.178,-0.057 -0.196,0.331 -0.413,0.723 -0.619,1.15 0.079,0.043 0.166,0.095 0.26,0.159 0.753,0.511 1.995,1.763 3.973,4.73 0.784,1.177 4,1 6,3.0000003 2,2 2,5 4,7 2,2 5,2 7,4 2,2 1.822,5.216 3,6 2.967,1.978 4.219,3.22 4.73,3.973 0.083,0.122 0.145,0.23 0.193,0.327 0.425,-0.238 0.805,-0.467 1.122,-0.667 -0.012,-0.056 -0.033,-0.123 -0.062,-0.196 z"
     id="path6"
     inkscape:connector-curvature="0"
     style="fill:#f4abba" />
  <path
     d="m 32.73,31.036641 c -0.511,-0.753 -1.763,-1.995 -4.73,-3.973 -1.178,-0.784 -1,-4 -3,-6 -2,-2 -5,-2 -7,-4 -2,-2 -2,-5 -4,-7 C 12,8.0636407 8.784,8.2406407 8,7.0636407 c -1.978,-2.967 -3.22,-4.219 -3.973,-4.73 -0.094,-0.064 -0.181,-0.117 -0.26,-0.159 -0.202,0.418 -0.389,0.866 -0.529,1.314 0.068,0.053 0.142,0.115 0.217,0.179 0.769,0.656 1.9,1.929 3.545,4.396 2,3.0000003 4,2.0000003 6,4.0000003 2,2 2,4 4,6 2,2 4,2 6,4 2,2 1,4 4,6 2.466,1.644 3.739,2.775 4.396,3.545 0.12,0.141 0.224,0.272 0.306,0.389 0.431,-0.206 0.842,-0.422 1.221,-0.634 -0.048,-0.097 -0.11,-0.205 -0.193,-0.327 z"
     id="path8"
     inkscape:connector-curvature="0"
     style="fill:#ffe8b6" />
  <path
     d="m 31.396,31.608641 c -0.656,-0.769 -1.929,-1.9 -4.396,-3.545 -3,-2 -2,-4 -4,-6 -2,-2 -4,-2 -6,-4 -2,-2.001 -2,-4 -4,-6 -2,-2 -4,-1 -6,-4.0000003 -1.644,-2.467 -2.775,-3.739 -3.545,-4.396 -0.075,-0.064 -0.149,-0.126 -0.217,-0.179 -0.134,0.425 -0.222,0.848 -0.239,1.244 -0.005,0.112 -0.007,0.224 10e-4,0.331 0.025,0.353 -0.056,0.738 -0.2,1.131 0.607,0.651 1.329,1.562 2.2,2.869 0.784,1.1770003 4,1.0000003 6,3.0000003 2,2 2,6 4,8 2,2 5,2 7,4 2,2 2.822,5.216 4,6 1.521,1.014 2.524,1.833 3.18,2.494 0.102,0.102 0.185,0.196 0.27,0.291 0.751,-0.195 1.524,-0.504 2.251,-0.852 -0.081,-0.116 -0.185,-0.247 -0.305,-0.388 z"
     id="path10"
     inkscape:connector-curvature="0"
     style="fill:#ea596e" />
  <path
     d="m 26,30.063641 c -1.178,-0.784 -2,-4 -4,-6 -2,-2 -5,-2 -7,-4 -2,-2.001 -2,-6 -4,-8 -2,-2 -5.216,-1.823 -6,-3.0000003 -0.871,-1.307 -1.593,-2.218 -2.2,-2.869 -0.227,0.618 -0.616,1.256 -1.036,1.834 0.614,0.73 1.347,1.702 2.236,3.0350003 0.784,1.177 4,1 6,3 2,2 2,5 4,7 2,2 5,2 7,4 2,2 1.822,5.216 3,6 1.277,0.852 2.223,1.56 2.943,2.159 0.426,-0.095 0.806,-0.159 1.058,-0.159 0.456,0 0.947,-0.084 1.45,-0.214 -0.085,-0.095 -0.169,-0.189 -0.27,-0.291 -0.657,-0.661 -1.66,-1.481 -3.181,-2.495 z"
     id="path12"
     inkscape:connector-curvature="0"
     style="fill:#ffe8b6" />
  <path
     d="m 21,25.063641 c -2,-2 -5,-2 -7,-4 -2,-2.001 -2,-5 -4,-7 -2,-2 -5.216,-1.823 -6,-3 C 3.111,9.7306407 2.378,8.7586407 1.764,8.0286407 c -0.134,0.184 -0.269,0.36 -0.405,0.529 -0.171,0.214 -0.338,0.411 -0.495,0.59 0.054,0.066 0.104,0.122 0.161,0.192 0.559,0.6910003 1.212,1.5780003 1.975,2.7240003 0.784,1.177 4,1 6,3 2,2 2,5 4,7 2,2 5,2 7,4 2,2 1.822,5.216 3,6 0.908,0.605 1.638,1.134 2.253,1.608 0.53,-0.157 1.147,-0.329 1.689,-0.45 -0.72,-0.599 -1.665,-1.307 -2.943,-2.159 -1.177,-0.783 -0.999,-3.999 -2.999,-5.999 z"
     id="path14"
     inkscape:connector-curvature="0"
     style="fill:#ea596e" />
</svg>
