<?xml version="1.0" encoding="UTF-8" standalone="no"?>
<svg
   xmlns:dc="http://purl.org/dc/elements/1.1/"
   xmlns:cc="http://creativecommons.org/ns#"
   xmlns:rdf="http://www.w3.org/1999/02/22-rdf-syntax-ns#"
   xmlns:svg="http://www.w3.org/2000/svg"
   xmlns="http://www.w3.org/2000/svg"
   xmlns:sodipodi="http://sodipodi.sourceforge.net/DTD/sodipodi-0.dtd"
   xmlns:inkscape="http://www.inkscape.org/namespaces/inkscape"
   viewBox="0 0 35.822426 26.5"
   id="svg2"
   version="1.1"
   inkscape:version="0.91 r13725"
   sodipodi:docname="1f95f.svg"
   width="35.822426"
   height="26.5">
  <metadata
     id="metadata34">
    <rdf:RDF>
      <cc:Work
         rdf:about="">
        <dc:format>image/svg+xml</dc:format>
        <dc:type
           rdf:resource="http://purl.org/dc/dcmitype/StillImage" />
      </cc:Work>
    </rdf:RDF>
  </metadata>
  <defs
     id="defs32" />
  <sodipodi:namedview
     pagecolor="#ffffff"
     bordercolor="#666666"
     borderopacity="1"
     objecttolerance="10"
     gridtolerance="10"
     guidetolerance="10"
     inkscape:pageopacity="0"
     inkscape:pageshadow="2"
     inkscape:window-width="640"
     inkscape:window-height="480"
     id="namedview30"
     showgrid="false"
     inkscape:zoom="6.5555556"
     inkscape:cx="17.911398"
     inkscape:cy="13.25"
     inkscape:window-x="0"
     inkscape:window-y="0"
     inkscape:window-maximized="0"
     inkscape:current-layer="svg2" />
  <path
     d="m 1.3543976,8.908 c 1.03,-0.715 2.03,-1.58 2.285,-2.54 0.255,-0.96 3.186,-2.313 3.679,-1.971 0.493,0.344 1.075,0.014 1.371,-0.743 0.296,-0.757 3.4760004,-2.541 4.2440004,-2.093 0.768,0.448 2.095,0.028 2.558,-0.458 0.463,-0.486 3.891,-0.542 4.29,0.19 0.399,0.732 1.061,0.596 1.857,0.268 0.797,-0.329 3.266,-0.289 3.587,0.391 0.321,0.681 1.161,1.12 1.772,0.941 0.611,-0.179 2.967,0.435 2.721,1.324 -0.245,0.889 0.317,1.531 1.146,1.486 0.828,-0.044 2.3,1.661 2.156,2.085 -0.144,0.424 0.418,0.945 0.987,1.197 0.569,0.252 0.71,2.529 -0.863,3.112 -1.573,0.583 -26.9760004,2.845 -28.9540004,0.634 -1.978,-2.212 -2.836,-3.823 -2.836,-3.823 z"
     id="path4"
     inkscape:connector-curvature="0"
     style="fill:#ffd983" />
  <path
     d="m 20.801398,8.086 c -0.48,4.459 -3.09,7.96 -4.838,7.752 -1.749,-0.208 -2.777,-3.991 -2.297,-8.45 0.48,-4.457 1.589,-7.388 3.909,-7.388 2.552,0 3.705,3.629 3.226,8.086 z"
     id="path6"
     inkscape:connector-curvature="0"
     style="fill:#ffd983" />
  <path
     d="m 25.881398,8.443 c -0.48,4.459 -3.09,7.96 -4.838,7.752 -1.749,-0.208 -2.777,-3.991 -2.297,-8.45 0.48,-4.457 1.824,-5.906 4.036,-6.642 2.872,-0.954 3.579,2.883 3.099,7.34 z"
     id="path8"
     inkscape:connector-curvature="0"
     style="fill:#ffd983" />
  <path
     d="m 28.123398,11.077 c -1.624,4.15 -4.101,7.009 -5.535,6.388 -1.433,-0.621 -0.905,-4.346 0.343,-8.636 1.67,-5.745 4.58,-6.606 6.014,-5.985 1.432,0.62 0.802,4.084 -0.822,8.233 z"
     id="path10"
     inkscape:connector-curvature="0"
     style="fill:#ffd983" />
  <path
     d="m 29.246398,13.556 c -2.794,3.391 -6.008,5.272 -7.179,4.203 -1.171,-1.068 0.143,-4.683 2.936,-8.073 2.793,-3.39 6.043,-4.557 7.434,-3.837 1.924,0.995 -0.398,4.317 -3.191,7.707 z"
     id="path12"
     inkscape:connector-curvature="0"
     style="fill:#ffd983" />
  <path
     d="m 29.143398,16.1 c -4.118,1.167 -7.832,0.649 -8.294,-1.159 -0.462,-1.806 2.499,-4.219 6.617,-5.386 4.117,-1.168 7.544,-1.327 8.294,1.159 0.539,1.783 -2.499,4.219 -6.617,5.386 z m -12.31,-8.807 c -1.384,-4.245 -3.912,-6.918 -6.156,-6.013 -2.4360004,0.982 -2.9030004,4.693 -1.5190004,8.937 1.3820004,4.244 5.0620004,6.961 6.5290004,6.431 1.466,-0.53 2.53,-5.112 1.146,-9.355 z"
     id="path14"
     inkscape:connector-curvature="0"
     style="fill:#ffd983" />
  <path
     d="M 11.608398,8.896 C 8.8933976,5.435 6.4323976,2.639 4.5273976,4.511 c -1.889,1.857 -1.068,5.908 1.647,9.368 2.713,3.461 6.9880004,4.2 8.1840004,3.161 1.195,-1.037 -0.035,-4.684 -2.75,-8.144 z"
     id="path16"
     inkscape:connector-curvature="0"
     style="fill:#ffd983" />
  <path
     d="m 8.3253976,10.078 c -6.326,-2.947 -7.70599999,-1.047 -8.25699999,0.478 -0.552,1.524 2.29999999,5.035 6.28499999,6.633 3.9840004,1.6 7.6630004,1.658 8.2150004,0.134 0.552,-1.523 -2.344,-5.428 -6.2430004,-7.245 z"
     id="path18"
     inkscape:connector-curvature="0"
     style="fill:#ffd983" />
  <path
     d="m 35.561398,19.286 c 0,5.312 -7.752,7.214 -17.315,7.214 -9.5630004,0 -18.03600039,-3.105 -18.03600039,-8.417 0,-5.312 8.47299999,-14.429 18.03600039,-14.429 9.562,0 17.315,10.319 17.315,15.632 z"
     id="path20"
     inkscape:connector-curvature="0"
     style="fill:#ffd983" />
  <path
     d="m 19.448398,11.881 c 0,2.989 -0.538,5.411 -1.202,5.411 -0.664,0 -1.202,-2.422 -1.202,-5.411 0,-2.988 0.538,-5.41 1.202,-5.41 0.663,0 1.202,2.422 1.202,5.41 z m 4.684,-0.23 c 0.513,2.533 0.446,4.683 -0.148,4.804 -0.595,0.12 -1.492,-1.834 -2.006,-4.368 -0.513,-2.532 -0.447,-4.683 0.148,-4.803 0.595,-0.121 1.492,1.834 2.006,4.367 z m 3.853,0.223 c 0.945,1.944 1.269,3.734 0.724,4 -0.546,0.265 -1.754,-1.095 -2.7,-3.04 -0.945,-1.944 -1.269,-3.734 -0.724,-4 0.546,-0.265 1.754,1.097 2.7,3.04 z m -13.493,-0.113 c -0.646,2.701 -1.63,4.78 -2.201,4.644 -0.571,-0.137 -0.51,-2.436 0.134,-5.137 0.645,-2.701 1.738,-4.304 2.309,-4.167 0.572,0.136 0.403,1.96 -0.242,4.66 z m -4.323,0.374 c -0.8680004,1.94 -2.0180004,3.312 -2.5730004,3.064 -0.554,-0.248 -0.3,-2.02 0.567,-3.961 0.867,-1.94 2.0860004,-2.915 2.6400004,-2.667 0.554,0.249 0.233,1.625 -0.634,3.564 z"
     id="path22"
     inkscape:connector-curvature="0"
     style="fill:#ffac33" />
  <path
     d="m 12.776398,2.569 c 0.514,0.603 0.618,1.387 0.233,1.751 -0.386,0.364 -1.115,0.169 -1.629,-0.434 -0.514,-0.603 -0.618,-1.387 -0.233,-1.751 0.385,-0.363 1.115,-0.169 1.629,0.434 z M 6.3843976,6.031 c 0.263,0.762 0.082,1.53 -0.405,1.716 -0.487,0.186 -1.095,-0.28 -1.358,-1.042 -0.263,-0.762 -0.082,-1.53 0.405,-1.716 0.487,-0.185 1.095,0.281 1.358,1.042 z m -3.492,4.904 c 0.663,0.572 0.935,1.378 0.607,1.799 -0.328,0.421 -1.132,0.299 -1.796,-0.273 -0.663,-0.572 -0.93499999,-1.378 -0.607,-1.799 0.329,-0.422 1.133,-0.299 1.796,0.273 z M 18.583398,1.721 c 0.514,0.603 0.618,1.387 0.233,1.751 -0.386,0.364 -1.115,0.169 -1.629,-0.434 -0.514,-0.603 -0.618,-1.387 -0.233,-1.751 0.385,-0.364 1.115,-0.17 1.629,0.434 z"
     id="path24"
     inkscape:connector-curvature="0"
     style="fill:#ffcc4d" />
  <ellipse
     transform="matrix(0.99839958,-0.05655339,0.05655339,0.99839958,0,0)"
     cx="23.603868"
     cy="4.5707545"
     rx="1.118"
     ry="1.668"
     id="ellipse26"
     style="fill:#ffcc4d" />
  <path
     d="m 29.003398,5.176 c 0.147,0.795 -0.147,1.524 -0.655,1.628 -0.508,0.104 -1.039,-0.457 -1.186,-1.252 -0.147,-0.795 0.147,-1.524 0.655,-1.628 0.508,-0.104 1.039,0.457 1.186,1.252 z m 3.167,3.436 c -0.333,0.684 -0.976,1.038 -1.437,0.79 -0.461,-0.248 -0.565,-1.004 -0.233,-1.688 0.333,-0.684 0.976,-1.038 1.437,-0.79 0.462,0.248 0.566,1.003 0.233,1.688 z m 2.285,3.81 c -0.414,0.532 -1.118,0.646 -1.572,0.255 -0.454,-0.391 -0.485,-1.14 -0.071,-1.671 0.415,-0.532 1.118,-0.646 1.572,-0.255 0.453,0.391 0.485,1.139 0.071,1.671 z"
     id="path28"
     inkscape:connector-curvature="0"
     style="fill:#ffcc4d" />
</svg>
