<?xml version="1.0" encoding="UTF-8" standalone="no"?>
<svg
   xmlns:dc="http://purl.org/dc/elements/1.1/"
   xmlns:cc="http://creativecommons.org/ns#"
   xmlns:rdf="http://www.w3.org/1999/02/22-rdf-syntax-ns#"
   xmlns:svg="http://www.w3.org/2000/svg"
   xmlns="http://www.w3.org/2000/svg"
   xmlns:sodipodi="http://sodipodi.sourceforge.net/DTD/sodipodi-0.dtd"
   xmlns:inkscape="http://www.inkscape.org/namespaces/inkscape"
   viewBox="0 0 24 34"
   id="svg2"
   version="1.1"
   inkscape:version="0.91 r13725"
   sodipodi:docname="1f95a.svg"
   width="24"
   height="34">
  <metadata
     id="metadata12">
    <rdf:RDF>
      <cc:Work
         rdf:about="">
        <dc:format>image/svg+xml</dc:format>
        <dc:type
           rdf:resource="http://purl.org/dc/dcmitype/StillImage" />
      </cc:Work>
    </rdf:RDF>
  </metadata>
  <defs
     id="defs10" />
  <sodipodi:namedview
     pagecolor="#ffffff"
     bordercolor="#666666"
     borderopacity="1"
     objecttolerance="10"
     gridtolerance="10"
     guidetolerance="10"
     inkscape:pageopacity="0"
     inkscape:pageshadow="2"
     inkscape:window-width="640"
     inkscape:window-height="480"
     id="namedview8"
     showgrid="false"
     inkscape:zoom="6.5555556"
     inkscape:cx="12"
     inkscape:cy="17"
     inkscape:window-x="0"
     inkscape:window-y="0"
     inkscape:window-maximized="0"
     inkscape:current-layer="svg2" />
  <path
     d="M 17.142,2.403 C 15.492,0.899 13.712,0 12,0 6.375,0 0,9.611 0,19 0,19.975 0.079,20.899 0.202,21.791 1.261,29.484 6.623,34 12,34 18,34 24,28.389 24,19 24,12.469 20.914,5.839 17.142,2.403 Z"
     id="path4"
     inkscape:connector-curvature="0"
     style="fill:#f7dece" />
  <path
     d="m 17.142,2.403 c 2.908,3.519 5.108,9.018 5.108,14.453 0,9.009 -5.672,14.393 -11.344,14.393 C 6.365,31.249 1.831,27.79 0.201,21.79 1.261,29.484 6.623,34 12,34 18,34 24,28.389 24,19 24,12.469 20.914,5.839 17.142,2.403 Z"
     id="path6"
     inkscape:connector-curvature="0"
     style="fill:#e0aa94" />
</svg>
