<?xml version="1.0" encoding="UTF-8" standalone="no"?>
<svg
   xmlns:dc="http://purl.org/dc/elements/1.1/"
   xmlns:cc="http://creativecommons.org/ns#"
   xmlns:rdf="http://www.w3.org/1999/02/22-rdf-syntax-ns#"
   xmlns:svg="http://www.w3.org/2000/svg"
   xmlns="http://www.w3.org/2000/svg"
   xmlns:sodipodi="http://sodipodi.sourceforge.net/DTD/sodipodi-0.dtd"
   xmlns:inkscape="http://www.inkscape.org/namespaces/inkscape"
   viewBox="0 0 34.091068 34.824726"
   id="svg2"
   version="1.1"
   inkscape:version="0.91 r13725"
   sodipodi:docname="1f952.svg"
   width="34.091068"
   height="34.824726">
  <metadata
     id="metadata70">
    <rdf:RDF>
      <cc:Work
         rdf:about="">
        <dc:format>image/svg+xml</dc:format>
        <dc:type
           rdf:resource="http://purl.org/dc/dcmitype/StillImage" />
      </cc:Work>
    </rdf:RDF>
  </metadata>
  <defs
     id="defs68" />
  <sodipodi:namedview
     pagecolor="#ffffff"
     bordercolor="#666666"
     borderopacity="1"
     objecttolerance="10"
     gridtolerance="10"
     guidetolerance="10"
     inkscape:pageopacity="0"
     inkscape:pageshadow="2"
     inkscape:window-width="640"
     inkscape:window-height="480"
     id="namedview66"
     showgrid="false"
     inkscape:zoom="6.5555556"
     inkscape:cx="17.025069"
     inkscape:cy="17.479727"
     inkscape:window-x="0"
     inkscape:window-y="0"
     inkscape:window-maximized="0"
     inkscape:current-layer="svg2" />
  <path
     d="m 19.983069,7.887 c -2.811,4.371 -6.701,7.706 -8.542,9.125 -4.4779997,3.455 -11.92799967,7.512 -11.41599967,12.483 0.375,3.642 2.71399997,5.669 8.14299997,5.283 5.1839997,-0.368 11.0579997,-4.834 15.7629997,-10.48 5.197,-6.236 8.195,-10.559 9.355,-14.551 0.974,-3.355 1.468,-7.515 -1.219,-9.02700003 -2.332,-1.312 -7.212,-0.41 -12.084,7.16700003 z"
     id="path4"
     inkscape:connector-curvature="0"
     style="fill:#5c913b" />
  <circle
     cx="17.242069"
     cy="30.341999"
     r="0.639"
     id="circle6"
     style="fill:#5c913b" />
  <circle
     cx="20.44207"
     cy="27.32"
     r="0.639"
     id="circle8"
     style="fill:#5c913b" />
  <circle
     cx="20.01207"
     cy="28.012999"
     r="0.639"
     id="circle10"
     style="fill:#5c913b" />
  <circle
     cx="22.98307"
     cy="24.748999"
     r="0.639"
     id="circle12"
     style="fill:#5c913b" />
  <circle
     cx="29.04607"
     cy="17.279999"
     r="0.639"
     id="circle14"
     style="fill:#5c913b" />
  <circle
     cx="32.73307"
     cy="10.155001"
     r="0.639"
     id="circle16"
     style="fill:#5c913b" />
  <circle
     cx="33.452068"
     cy="3.405"
     r="0.639"
     id="circle18"
     style="fill:#5c913b" />
  <path
     d="M 5.9490693,33.537 C 11.261069,33.16 17.280069,28.584 22.101069,22.798 c 5.325,-6.39 8.397,-10.819 9.585,-14.911 0.687,-2.365 1.141,-5.12 0.46,-7.11400003 -0.028,-0.017 -0.051,-0.038 -0.08,-0.054 -2.332,-1.312 -7.211,-0.41 -12.083,7.16700003 -2.811,4.372 -6.701,7.706 -8.542,9.125 -4.4779997,3.456 -11.92799967,7.513 -11.41599967,12.484 0.161,1.561 0.686,2.822 1.65599997,3.727 1.146,0.323 2.556,0.437 4.268,0.315 z"
     id="path20"
     inkscape:connector-curvature="0"
     style="fill:#77b255" />
  <path
     d="m 15.522069,25.097 c -0.441,0.097 -0.862,-0.029 -1.258,-0.378 -0.396,-0.348 -0.575,-0.752 -0.535,-1.2 0.004,-0.042 0.012,-0.13 -0.073,-0.168 -0.05,-0.021 -0.112,-0.007 -0.147,0.034 -0.469,0.533 -0.363,1.395 0.235,1.922 0.298,0.263 0.663,0.393 1.012,0.393 0.354,0 0.69,-0.134 0.927,-0.402 0.036,-0.041 0.043,-0.104 0.016,-0.149 -0.049,-0.079 -0.135,-0.061 -0.177,-0.052 z m 8.904,-8.142 c -0.449,-0.019 -0.826,-0.251 -1.119,-0.69 -0.293,-0.44 -0.361,-0.877 -0.205,-1.298 0.015,-0.04 0.046,-0.122 -0.028,-0.181 -0.043,-0.032 -0.104,-0.034 -0.15,-0.004 -0.289,0.192 -0.475,0.499 -0.524,0.865 -0.048,0.359 0.043,0.733 0.255,1.053 0.294,0.441 0.764,0.687 1.219,0.687 0.23,0 0.458,-0.062 0.657,-0.195 0.044,-0.03 0.067,-0.089 0.053,-0.141 -0.028,-0.09 -0.116,-0.094 -0.158,-0.096 z m -5.552,0.98 0.002,0 c 0.23,0 0.438,-0.091 0.581,-0.253 0.036,-0.041 0.044,-0.102 0.017,-0.149 -0.027,-0.047 -0.104,-0.066 -0.159,-0.056 -0.237,0.054 -0.474,-0.017 -0.693,-0.21 -0.221,-0.193 -0.32,-0.417 -0.297,-0.662 0.005,-0.054 -0.024,-0.129 -0.074,-0.15 -0.051,-0.021 -0.109,-0.008 -0.146,0.034 -0.294,0.334 -0.23,0.874 0.143,1.202 0.177,0.156 0.4,0.243 0.626,0.244 z m 8.934,-7.262 c -0.221,-0.193 -0.32,-0.417 -0.297,-0.662 0.005,-0.054 -0.024,-0.129 -0.074,-0.15 -0.051,-0.022 -0.11,-0.007 -0.146,0.034 -0.294,0.334 -0.23,0.874 0.143,1.202 0.179,0.157 0.401,0.244 0.627,0.245 l 0.002,0 c 0.23,0 0.438,-0.091 0.581,-0.253 0.036,-0.041 0.044,-0.102 0.017,-0.149 -0.027,-0.046 -0.104,-0.067 -0.159,-0.056 -0.238,0.053 -0.474,-0.017 -0.694,-0.211 z m -4.302,0.229 0.002,0 c 0.23,0 0.438,-0.09 0.582,-0.254 0.036,-0.041 0.042,-0.102 0.015,-0.148 -0.028,-0.048 -0.108,-0.066 -0.158,-0.055 -0.245,0.054 -0.475,-0.018 -0.693,-0.21 -0.221,-0.194 -0.32,-0.417 -0.297,-0.662 0.005,-0.054 -0.024,-0.129 -0.074,-0.15 -0.05,-0.022 -0.11,-0.008 -0.146,0.033 -0.294,0.334 -0.23,0.874 0.143,1.202 0.178,0.157 0.401,0.244 0.626,0.244 z m 6.191,-6.676 c -0.246,0.055 -0.475,-0.018 -0.693,-0.21 -0.221,-0.194 -0.32,-0.417 -0.297,-0.662 0.005,-0.054 -0.024,-0.129 -0.074,-0.15 -0.051,-0.022 -0.11,-0.008 -0.146,0.033 -0.294,0.334 -0.23,0.874 0.143,1.202 0.179,0.157 0.401,0.244 0.627,0.244 l 0.002,0 c 0.23,0 0.438,-0.09 0.582,-0.254 0.036,-0.041 0.042,-0.102 0.015,-0.148 -0.028,-0.048 -0.108,-0.066 -0.159,-0.055 z M 4.8450693,27.553 c -0.337,-0.42 -0.375,-1.015 -0.093,-1.479 0.029,-0.049 0.021,-0.111 -0.018,-0.152 -0.04,-0.041 -0.103,-0.05 -0.152,-0.021 -0.065,0.038 -0.13,0.076 -0.189,0.124 -0.308,0.247 -0.501,0.598 -0.544,0.99 -0.043,0.392 0.069,0.777 0.315,1.084 0.291,0.363 0.72,0.552 1.152,0.552 0.324,0 0.65,-0.105 0.922,-0.323 0.058,-0.047 0.106,-0.099 0.162,-0.159 0.039,-0.042 0.044,-0.104 0.013,-0.152 -0.031,-0.049 -0.094,-0.068 -0.145,-0.051 -0.514,0.172 -1.085,0.007 -1.423,-0.413 z m 9.7219997,-7.372 c 0.324,0 0.65,-0.105 0.922,-0.323 0.058,-0.047 0.106,-0.099 0.162,-0.159 0.039,-0.042 0.044,-0.104 0.013,-0.152 -0.031,-0.049 -0.094,-0.068 -0.145,-0.051 -0.514,0.174 -1.086,0.009 -1.424,-0.411 -0.337,-0.42 -0.375,-1.015 -0.093,-1.479 0.029,-0.049 0.021,-0.111 -0.018,-0.152 -0.04,-0.041 -0.104,-0.049 -0.152,-0.021 -0.065,0.038 -0.13,0.076 -0.189,0.124 -0.308,0.247 -0.501,0.598 -0.544,0.99 -0.043,0.392 0.069,0.777 0.315,1.084 0.292,0.361 0.72,0.55 1.153,0.55 z m 9.622,-14.159 c -0.337,-0.42 -0.375,-1.015 -0.093,-1.479 0.029,-0.049 0.021,-0.111 -0.018,-0.152 -0.04,-0.041 -0.104,-0.05 -0.152,-0.021 -0.065,0.038 -0.13,0.076 -0.189,0.124 -0.308,0.247 -0.501,0.598 -0.544,0.99 -0.043,0.392 0.069,0.777 0.315,1.084 0.291,0.363 0.72,0.552 1.152,0.552 0.324,0 0.65,-0.105 0.922,-0.323 0.058,-0.047 0.106,-0.099 0.162,-0.159 0.039,-0.042 0.044,-0.104 0.013,-0.152 -0.031,-0.049 -0.094,-0.068 -0.145,-0.051 -0.514,0.172 -1.085,0.007 -1.423,-0.413 z m -12.605,22.379 c -0.3,0.252 -0.727,0.292 -1.064,0.098 -0.337,-0.193 -0.519,-0.583 -0.451,-0.97 0.008,-0.045 -0.016,-0.09 -0.058,-0.108 -0.04,-0.019 -0.091,-0.007 -0.1189997,0.029 -0.034,0.043 -0.068,0.087 -0.097,0.135 -0.145,0.251 -0.183,0.543 -0.107,0.823 0.075,0.28 0.256,0.513 0.5069997,0.657 0.166,0.096 0.352,0.145 0.538,0.145 0.095,0 0.19,-0.013 0.284,-0.038 0.279,-0.075 0.513,-0.255 0.657,-0.507 0.028,-0.049 0.049,-0.101 0.068,-0.152 0.016,-0.042 10e-4,-0.09 -0.036,-0.116 -0.038,-0.028 -0.087,-0.026 -0.122,0.004 z M 8.7480693,22.583 c -0.092,-0.378 0.065,-0.777 0.393,-0.995 0.038,-0.025 0.054,-0.073 0.039,-0.116 -0.016,-0.043 -0.059,-0.071 -0.104,-0.066 -0.054,0.004 -0.108,0.01 -0.165,0.023 -0.281,0.068 -0.52,0.242 -0.67,0.489 -0.151,0.247 -0.196,0.538 -0.129,0.819 0.068,0.281 0.241,0.519 0.488,0.67 0.173,0.105 0.366,0.159 0.563,0.159 0.085,0 0.171,-0.01 0.255,-0.03 0.055,-0.013 0.104,-0.032 0.159,-0.055 0.042,-0.018 0.067,-0.061 0.061,-0.106 -0.006,-0.045 -0.042,-0.081 -0.087,-0.086 -0.39,-0.045 -0.713,-0.328 -0.803,-0.706 z M 20.950069,12.962 c -0.26,0.294 -0.677,0.396 -1.038,0.256 -0.362,-0.142 -0.6,-0.5 -0.592,-0.892 0.001,-0.045 -0.028,-0.086 -0.072,-0.098 -0.045,-0.014 -0.092,0.006 -0.113,0.045 -0.028,0.048 -0.056,0.097 -0.075,0.149 -0.218,0.557 0.059,1.187 0.615,1.403 0.129,0.05 0.261,0.074 0.392,0.074 0.434,0 0.845,-0.263 1.013,-0.691 0.02,-0.053 0.032,-0.106 0.044,-0.16 0.01,-0.044 -0.012,-0.09 -0.053,-0.111 -0.039,-0.019 -0.091,-0.009 -0.121,0.025 z m -1.15,8.999 c -0.267,0.286 -0.688,0.377 -1.045,0.226 -0.358,-0.152 -0.585,-0.517 -0.565,-0.908 0.003,-0.046 -0.027,-0.086 -0.07,-0.1 -0.044,-0.014 -0.092,0.005 -0.115,0.044 -0.029,0.046 -0.057,0.092 -0.079,0.144 -0.233,0.55 0.024,1.188 0.574,1.42 0.138,0.059 0.281,0.086 0.422,0.086 0.422,0 0.824,-0.248 0.999,-0.66 0.021,-0.047 0.033,-0.096 0.05,-0.159 0.012,-0.045 -0.009,-0.091 -0.049,-0.113 -0.039,-0.021 -0.09,-0.013 -0.122,0.02 z"
     id="path22"
     inkscape:connector-curvature="0"
     style="fill:#5c913b" />
  <circle
     cx="23.86907"
     cy="20.063999"
     r="0.5"
     id="circle24"
     style="fill:#77b255" />
  <circle
     cx="29.90007"
     cy="11.564"
     r="0.5"
     id="circle26"
     style="fill:#77b255" />
  <circle
     cx="31.681068"
     cy="6.5639997"
     r="0.5"
     id="circle28"
     style="fill:#77b255" />
  <circle
     cx="27.02507"
     cy="16.094999"
     r="0.5"
     id="circle30"
     style="fill:#77b255" />
  <circle
     cx="16.96307"
     cy="27.688999"
     r="0.5"
     id="circle32"
     style="fill:#77b255" />
  <circle
     cx="19.68107"
     cy="24.844999"
     r="0.78899997"
     id="circle34"
     style="fill:#77b255" />
  <circle
     cx="10.08707"
     cy="32.283001"
     r="0.5"
     id="circle36"
     style="fill:#77b255" />
  <circle
     cx="24.80607"
     cy="19.313999"
     r="0.5"
     id="circle38"
     style="fill:#77b255" />
  <circle
     cx="10.322069"
     cy="19.172998"
     r="1.4220001"
     id="circle40"
     style="fill:#77b255" />
  <circle
     cx="4.7230692"
     cy="22.699999"
     r="0.98000002"
     id="circle42"
     style="fill:#77b255" />
  <circle
     cx="25.47307"
     cy="2.6689999"
     r="0.98000002"
     id="circle44"
     style="fill:#77b255" />
  <circle
     cx="0.97306931"
     cy="26.574999"
     r="0.69400001"
     id="circle46"
     style="fill:#77b255" />
  <circle
     cx="1.5050694"
     cy="25.856998"
     r="0.69400001"
     id="circle48"
     style="fill:#77b255" />
  <circle
     cx="0.88006938"
     cy="30.668999"
     r="0.85900003"
     id="circle50"
     style="fill:#77b255" />
  <circle
     cx="12.534069"
     cy="16.483"
     r="0.639"
     id="circle52"
     style="fill:#77b255" />
  <circle
     cx="26.503071"
     cy="1.5139999"
     r="0.639"
     id="circle54"
     style="fill:#77b255" />
  <circle
     cx="30.472071"
     cy="0.639"
     r="0.639"
     id="circle56"
     style="fill:#77b255" />
  <circle
     cx="15.75307"
     cy="13.546"
     r="0.639"
     id="circle58"
     style="fill:#77b255" />
  <circle
     cx="18.722071"
     cy="10.296"
     r="0.639"
     id="circle60"
     style="fill:#77b255" />
  <circle
     cx="18.15007"
     cy="10.939"
     r="0.639"
     id="circle62"
     style="fill:#77b255" />
  <circle
     cx="21.034071"
     cy="7.1079998"
     r="0.639"
     id="circle64"
     style="fill:#77b255" />
</svg>
