<?xml version="1.0" encoding="UTF-8" standalone="no"?>
<svg
   xmlns:dc="http://purl.org/dc/elements/1.1/"
   xmlns:cc="http://creativecommons.org/ns#"
   xmlns:rdf="http://www.w3.org/1999/02/22-rdf-syntax-ns#"
   xmlns:svg="http://www.w3.org/2000/svg"
   xmlns="http://www.w3.org/2000/svg"
   xmlns:sodipodi="http://sodipodi.sourceforge.net/DTD/sodipodi-0.dtd"
   xmlns:inkscape="http://www.inkscape.org/namespaces/inkscape"
   viewBox="0 0 35.456001 31.05743"
   id="svg2"
   version="1.1"
   inkscape:version="0.91 r13725"
   sodipodi:docname="1f96f.svg"
   width="35.456001"
   height="31.05743">
  <metadata
     id="metadata28">
    <rdf:RDF>
      <cc:Work
         rdf:about="">
        <dc:format>image/svg+xml</dc:format>
        <dc:type
           rdf:resource="http://purl.org/dc/dcmitype/StillImage" />
      </cc:Work>
    </rdf:RDF>
  </metadata>
  <defs
     id="defs26" />
  <sodipodi:namedview
     pagecolor="#ffffff"
     bordercolor="#666666"
     borderopacity="1"
     objecttolerance="10"
     gridtolerance="10"
     guidetolerance="10"
     inkscape:pageopacity="0"
     inkscape:pageshadow="2"
     inkscape:window-width="640"
     inkscape:window-height="480"
     id="namedview24"
     showgrid="false"
     inkscape:zoom="6.5555556"
     inkscape:cx="17.693"
     inkscape:cy="15.623"
     inkscape:window-x="0"
     inkscape:window-y="0"
     inkscape:window-maximized="0"
     inkscape:current-layer="svg2" />
  <path
     d="m 17.783,6.7294304 c -10.243,0 -17.517,3.8929996 -17.517,8.7579996 0,7.569 5.839,15.57 17.517,15.57 11.678,0 17.517,-8.001 17.517,-15.57 0,-4.865 -7.274,-8.7579996 -17.517,-8.7579996 z"
     id="path4"
     inkscape:connector-curvature="0"
     style="fill:#c1694f" />
  <path
     d="m 17.783,5.7564304 c -10.243,0 -17.517,3.639 -17.517,9.6049996 0,5.966 7.273,9.858 17.517,9.858 10.243,0 17.517,-4.146 17.517,-9.858 0,-5.7119996 -7.274,-9.6049996 -17.517,-9.6049996 z"
     id="path6"
     inkscape:connector-curvature="0"
     style="fill:#d99e82" />
  <path
     d="m 2.212,18.40743 c -0.973,0.973 4.866,6.812 7.785,3.893 2.919,-2.919 5.942,1.511 6.812,1.946 1.946,0.973 6.754,-4.408 11.678,-1.946 1.947,0.973 4.866,-1.946 4.866,-4.866 0,-2.919 -30.167,0 -31.141,0.973 z"
     id="path8"
     inkscape:connector-curvature="0"
     style="fill:#ccd6dd" />
  <path
     d="m 2.115,16.89643 c 0,0 -0.181,0.378 -0.169,0.496 0.217,2.144 5.132,6.854 8.052,3.935 2.919,-2.919 5.942,1.511 6.812,1.946 1.946,0.973 6.754,-4.408 11.678,-1.946 1.608,0.804 4.848,-2.228 5.258,-4.811 -2.136,0 -31.631,0.38 -31.631,0.38 z"
     id="path10"
     inkscape:connector-curvature="0"
     style="fill:#ffffff" />
  <path
     d="M 18.426,0.01743045 C 14.261,-0.22556955 0.498,1.9544304 0,14.02943 c 0.01,0.608 0.592,1.741 2.114,2.867 2.556,1.891 7.765,3.764 17.378,3.103 8.374,-0.576 12.357,-2.1 14.253,-3.483 1.577,-1.15 1.711,-2.203 1.711,-2.532 10e-4,-3.89 -3.541,-13.16399955 -17.03,-13.96699955 z"
     id="path12"
     inkscape:connector-curvature="0"
     style="fill:#c1694f" />
  <path
     d="m 14.161,7.6624304 c 1.188,0.461 2.637,0.578 3.799,0.622 1.54,0.058 3.13,-0.13 4.572,-0.699 0,-0.963 0,-2.838 -4.186,-2.838 -4.186,0 -4.185,1.771 -4.185,2.915 z"
     id="path14"
     inkscape:connector-curvature="0"
     style="fill:#ffffff" />
  <path
     d="m 18.504,3.7364304 c -3.959,-0.262 -7.406,2.073 -5.272,3.453 0.279,0.191 0.596,0.344 0.93,0.473 0.897,-0.78 2.572,-1.596 4.285,-1.521 2.026,0.089 3.393,0.727 4.086,1.444 0.312,-0.123 0.62,-0.258 0.917,-0.419 1.489,-1.108 -0.056,-3.106 -4.946,-3.43 z"
     id="path16"
     inkscape:connector-curvature="0"
     style="fill:#8a4b38" />
  <g
     id="g18"
     style="fill:#d99e82"
     transform="translate(-0.307,-2.5655696)">
    <path
       d="M 9.226,9.736 C 8.691,9.962 6.874,10.219 6.648,9.684 6.422,9.149 7.873,8.025 8.408,7.799 8.943,7.573 9.56,7.823 9.786,8.358 10.011,8.893 9.761,9.51 9.226,9.736 Z M 31.425,9.23 c 0.311,0.349 0.977,1.667 0.628,1.978 -0.349,0.311 -1.581,-0.503 -1.892,-0.852 C 29.85,10.007 29.881,9.472 30.23,9.162 30.579,8.85 31.114,8.881 31.425,9.23 Z m -6.578,8.119 c -0.442,0.152 -1.915,0.258 -2.067,-0.184 -0.152,-0.442 1.075,-1.264 1.517,-1.416 0.442,-0.152 0.923,0.083 1.075,0.525 0.152,0.442 -0.083,0.923 -0.525,1.075 z M 7.987,14.336 C 7.594,14.764 6.148,15.644 5.72,15.251 5.292,14.858 6.045,13.342 6.438,12.914 6.831,12.486 7.496,12.458 7.923,12.85 c 0.429,0.393 0.457,1.058 0.064,1.486 z"
       id="path20"
       inkscape:connector-curvature="0" />
    <ellipse
       transform="matrix(1,-0.0076,0.0076,1,-0.031,0.133)"
       cx="17.539"
       cy="4.1589999"
       rx="1.216"
       ry="0.56599998"
       id="ellipse22" />
  </g>
</svg>
