<?xml version="1.0" encoding="UTF-8" standalone="no"?>
<svg
   xmlns:dc="http://purl.org/dc/elements/1.1/"
   xmlns:cc="http://creativecommons.org/ns#"
   xmlns:rdf="http://www.w3.org/1999/02/22-rdf-syntax-ns#"
   xmlns:svg="http://www.w3.org/2000/svg"
   xmlns="http://www.w3.org/2000/svg"
   xmlns:sodipodi="http://sodipodi.sourceforge.net/DTD/sodipodi-0.dtd"
   xmlns:inkscape="http://www.inkscape.org/namespaces/inkscape"
   viewBox="0 0 34 25"
   id="svg2"
   version="1.1"
   inkscape:version="0.91 r13725"
   sodipodi:docname="1f968.svg"
   width="34"
   height="25">
  <metadata
     id="metadata36">
    <rdf:RDF>
      <cc:Work
         rdf:about="">
        <dc:format>image/svg+xml</dc:format>
        <dc:type
           rdf:resource="http://purl.org/dc/dcmitype/StillImage" />
      </cc:Work>
    </rdf:RDF>
  </metadata>
  <defs
     id="defs34" />
  <sodipodi:namedview
     pagecolor="#ffffff"
     bordercolor="#666666"
     borderopacity="1"
     objecttolerance="10"
     gridtolerance="10"
     guidetolerance="10"
     inkscape:pageopacity="0"
     inkscape:pageshadow="2"
     inkscape:window-width="640"
     inkscape:window-height="480"
     id="namedview32"
     showgrid="false"
     inkscape:zoom="6.5555556"
     inkscape:cx="17"
     inkscape:cy="12"
     inkscape:window-x="0"
     inkscape:window-y="0"
     inkscape:window-maximized="0"
     inkscape:current-layer="svg2" />
  <path
     d="M 34,11 C 34,3 28,0 22,0 20.262,0 18.528,0.371 17,1.097 15.472,0.371 13.738,0 12,0 6,0 0,3 0,11 c 0,3 1.314,5.662 3,8 0.434,0.602 0.903,1.146 1.4,1.647 C 4.043,21.25 3.784,21.738 3.621,22 3,23 4,24 5,24 5.69,24 6.205,23.383 6.745,22.518 9.552,24.273 13.023,25 17,25 20.977,25 24.448,24.273 27.255,22.518 27.795,23.383 28.31,24 29,24 30,24 31,23 30.379,22 30.216,21.738 29.957,21.25 29.6,20.647 30.097,20.146 30.567,19.601 31,19 c 1.686,-2.338 3,-5 3,-8 z M 17,12.207 C 15.578,10.736 16,9 16,9 c 0,-0.708 0.381,-1.414 1,-2.034 0.619,0.62 1,1.326 1,2.034 0,0 0.422,1.736 -1,3.207 z M 7.215,14.94 C 5.59,12.687 5.204,10.388 6,8 7.053,4.842 10.85,5 12,5 12.288,5 12.576,5.024 12.861,5.059 12.314,6.185 12,7.498 12,9 c 0,1.476 0.578,3.273 1.951,4.799 C 13.653,13.874 13.341,13.943 13,14 11.093,14.318 9.529,15.122 8.255,16.107 7.88,15.752 7.525,15.371 7.215,14.94 Z M 17,19 C 14.704,19 12.524,18.606 10.676,17.734 11.333,17.362 12.091,17.092 13,17 c 1.565,-0.157 2.885,-0.524 4,-1.024 1.115,0.5 2.435,0.867 4,1.024 0.909,0.092 1.667,0.362 2.324,0.734 C 21.476,18.606 19.296,19 17,19 Z m 9.785,-4.06 c -0.311,0.431 -0.665,0.812 -1.04,1.167 C 24.471,15.122 22.906,14.318 21,14 20.659,13.943 20.347,13.874 20.05,13.799 21.422,12.273 22,10.476 22,9 22,7.498 21.687,6.185 21.139,5.059 21.424,5.024 21.712,5 22,5 c 1.15,0 4.947,-0.158 6,3 0.796,2.388 0.41,4.687 -1.215,6.94 z"
     id="path4"
     inkscape:connector-curvature="0"
     style="fill:#f4900c" />
  <path
     d="M 10.751,17.764 C 9.957,18.212 8.971,18.936 8.375,20 c -0.688,1.229 -1.218,2.033 -1.584,2.544 0.335,0.207 0.679,0.402 1.032,0.581 0.353,-0.692 0.878,-1.653 1.552,-2.688 0.768,-1.179 1.902,-1.912 2.489,-2.238 -0.381,-0.131 -0.756,-0.269 -1.113,-0.435 z m 11.692,-0.434 -0.005,0.002 c 0.314,0.114 0.611,0.247 0.886,0.402 -0.19,0.09 -0.399,0.153 -0.597,0.233 0.564,0.415 1.348,1.092 1.96,2.032 0.74,1.136 1.377,2.218 1.797,2.952 0.26,-0.14 0.521,-0.278 0.771,-0.435 0.188,0.3 0.372,0.567 0.562,0.792 0,0 -0.562,-0.792 -2.004,-3.31 -1.442,-2.518 -3.37,-2.668 -3.37,-2.668 z M 20.05,13.799 c 0.05,-0.055 0.09,-0.112 0.138,-0.168 -0.568,0.444 -1.34,1.055 -2.023,1.622 -0.358,0.297 -0.763,0.531 -1.161,0.724 0.401,0.18 0.839,0.335 1.296,0.477 0.524,-0.293 1.157,-0.698 1.701,-1.204 0.56,-0.521 0.892,-0.92 1.081,-1.23 C 21.053,14.015 21.028,14.005 21,14 20.659,13.943 20.347,13.874 20.05,13.799 Z M 17.583,7.711 C 18.315,7.099 19.71,6.187 21.534,6.042 21.425,5.718 21.301,5.405 21.158,5.107 20.575,5.198 19.773,5.356 19,5.625 18.123,5.93 17.42,6.539 17.002,6.969 c 0.235,0.236 0.423,0.486 0.581,0.742 z"
     id="path6"
     inkscape:connector-curvature="0"
     style="fill:#ad5810" />
  <g
     id="g8"
     style="fill:#ffe8b6"
     transform="translate(-1,-5)">
    <circle
       cx="7"
       cy="22"
       r="1"
       id="circle10" />
    <circle
       cx="3"
       cy="14"
       r="1"
       id="circle12" />
    <circle
       cx="6"
       cy="11"
       r="1"
       id="circle14" />
    <circle
       cx="12"
       cy="7"
       r="1"
       id="circle16" />
    <circle
       cx="14"
       cy="27"
       r="1"
       id="circle18" />
    <circle
       cx="21"
       cy="26"
       r="1"
       id="circle20" />
    <circle
       cx="25"
       cy="27"
       r="1"
       id="circle22" />
    <circle
       cx="31"
       cy="17"
       r="1"
       id="circle24" />
    <circle
       cx="31"
       cy="9"
       r="1"
       id="circle26" />
    <circle
       cx="22"
       cy="8"
       r="1"
       id="circle28" />
    <circle
       cx="19"
       cy="9"
       r="1"
       id="circle30" />
  </g>
</svg>
