<?xml version="1.0" encoding="UTF-8" standalone="no"?>
<svg
   xmlns:dc="http://purl.org/dc/elements/1.1/"
   xmlns:cc="http://creativecommons.org/ns#"
   xmlns:rdf="http://www.w3.org/1999/02/22-rdf-syntax-ns#"
   xmlns:svg="http://www.w3.org/2000/svg"
   xmlns="http://www.w3.org/2000/svg"
   xmlns:sodipodi="http://sodipodi.sourceforge.net/DTD/sodipodi-0.dtd"
   xmlns:inkscape="http://www.inkscape.org/namespaces/inkscape"
   viewBox="0 0 35.285774 33.248768"
   id="svg2"
   version="1.1"
   inkscape:version="0.91 r13725"
   sodipodi:docname="1f96d.svg"
   width="35.285774"
   height="33.248768">
  <metadata
     id="metadata16">
    <rdf:RDF>
      <cc:Work
         rdf:about="">
        <dc:format>image/svg+xml</dc:format>
        <dc:type
           rdf:resource="http://purl.org/dc/dcmitype/StillImage" />
      </cc:Work>
    </rdf:RDF>
  </metadata>
  <defs
     id="defs14" />
  <sodipodi:namedview
     pagecolor="#ffffff"
     bordercolor="#666666"
     borderopacity="1"
     objecttolerance="10"
     gridtolerance="10"
     guidetolerance="10"
     inkscape:pageopacity="0"
     inkscape:pageshadow="2"
     inkscape:window-width="640"
     inkscape:window-height="480"
     id="namedview12"
     showgrid="false"
     inkscape:zoom="6.5555556"
     inkscape:cx="17.876142"
     inkscape:cy="16.332993"
     inkscape:window-x="0"
     inkscape:window-y="0"
     inkscape:window-maximized="0"
     inkscape:current-layer="svg2" />
  <path
     d="m 26.256142,2.4547766 c 0.483,-0.039 1.259,-0.655 1.664,-0.595 0.405,0.06 1.573,1.078 1.67,1.283 0.097,0.205 -0.637,1.178 -0.746,1.48 -0.109,0.302 -0.64,0.239 -1.51,-0.543 -0.869,-0.782 -1.078,-1.625 -1.078,-1.625 z"
     id="path4"
     inkscape:connector-curvature="0"
     style="fill:#77b255" />
  <path
     d="m 12.176142,2.0547766 c 4.545,-2.66 11.267,-2.611 13.685,-0.58 1.617,1.358 2.942,2.401 4.474,3.011 2.022,0.804 3.692,3.154 4.415,5.384 0.981,3.0230004 1.68,12.5790004 -8.029,18.5160004 -6.233,3.812 -17.6559997,5.363 -18.9609997,4.723 -0.984,-0.483 -4.621,-2.09 -6.675,-6.453 -2.054,-4.363 -2.533,-16.629 11.0909997,-24.6010004 z"
     id="path6"
     inkscape:connector-curvature="0"
     style="fill:#ea564b" />
  <path
     d="m 17.205142,1.5227766 c 5.249,-1.482 9.171,2.136 6.749,2.393 -4.359,0.463 -9.015,4.969 -12.625,8.3750004 -6.6249997,6.25 -8.1249997,13.75 -8.9999997,12.5 -1.424,-2.034 -1.468,-9.148 3.561,-15.3860004 5.0289997,-6.238 9.1039997,-7.257 11.3149997,-7.882 z"
     id="path8"
     inkscape:connector-curvature="0"
     style="fill:#f97253" />
  <path
     d="m 28.147142,3.1937766 c 2.174,0.697 4.987,4.564 4.944,7.8110004 -0.114,8.655 -4.132,11.992 -4.132,11.992 0,0 -2.551,-9.325 -2.171,-12.719 0.278,-2.4780004 1.646,-3.1660004 1.891,-4.5690004 0.229,-1.305 -0.532,-2.515 -0.532,-2.515 z"
     id="path10"
     inkscape:connector-curvature="0"
     style="fill:#77b255" />
</svg>
