<?xml version="1.0" encoding="UTF-8" standalone="no"?>
<svg
   xmlns:dc="http://purl.org/dc/elements/1.1/"
   xmlns:cc="http://creativecommons.org/ns#"
   xmlns:rdf="http://www.w3.org/1999/02/22-rdf-syntax-ns#"
   xmlns:svg="http://www.w3.org/2000/svg"
   xmlns="http://www.w3.org/2000/svg"
   xmlns:sodipodi="http://sodipodi.sourceforge.net/DTD/sodipodi-0.dtd"
   xmlns:inkscape="http://www.inkscape.org/namespaces/inkscape"
   viewBox="0 0 34.525749 35.00975"
   id="svg2"
   version="1.1"
   inkscape:version="0.91 r13725"
   sodipodi:docname="1f966.svg"
   width="34.525749"
   height="35.00975">
  <metadata
     id="metadata54">
    <rdf:RDF>
      <cc:Work
         rdf:about="">
        <dc:format>image/svg+xml</dc:format>
        <dc:type
           rdf:resource="http://purl.org/dc/dcmitype/StillImage" />
      </cc:Work>
    </rdf:RDF>
  </metadata>
  <defs
     id="defs52" />
  <sodipodi:namedview
     pagecolor="#ffffff"
     bordercolor="#666666"
     borderopacity="1"
     objecttolerance="10"
     gridtolerance="10"
     guidetolerance="10"
     inkscape:pageopacity="0"
     inkscape:pageshadow="2"
     inkscape:window-width="640"
     inkscape:window-height="480"
     id="namedview50"
     showgrid="false"
     inkscape:zoom="6.5555556"
     inkscape:cx="17.263"
     inkscape:cy="17.506"
     inkscape:window-x="0"
     inkscape:window-y="0"
     inkscape:window-maximized="0"
     inkscape:current-layer="svg2" />
  <path
     d="m 22.276,23.82575 -5.546,-5.546 -5.547,-5.546 c 0,0 0.455,11.183 -11.183,14.093 0,0 1.032,2.487 3.364,4.819 2.332,2.332 4.819,3.364 4.819,3.364 2.91,-11.639 14.093,-11.184 14.093,-11.184 z"
     id="path4"
     inkscape:connector-curvature="0"
     style="fill:#77b255" />
  <path
     d="m 13.093,16.09775 c -0.727,3.637 -5.092,9.456 -5.092,9.456 l 8.728,-8.728 c 2.909,-2.909 -3.636,-0.728 -3.636,-0.728 z m 12.365,6.546 c 0,0 -10.91,0.727 -17.457,5.819 8.001,-8.001 11.638,-8.728 11.638,-8.728 l 5.819,2.909 z"
     id="path6"
     inkscape:connector-curvature="0"
     style="fill:#5c913b" />
  <path
     d="m 29.419,27.69575 c 0.667,0.045 1.348,-0.178 1.858,-0.688 0.937,-0.937 0.937,-2.457 0,-3.394 -0.085,-0.085 -0.18,-0.154 -0.274,-0.224 0.411,-0.101 0.802,-0.304 1.123,-0.625 0.311,-0.311 0.509,-0.688 0.613,-1.084 0.396,-0.105 0.773,-0.302 1.084,-0.613 0.937,-0.937 0.937,-2.457 0,-3.394 0.937,-0.937 0.937,-2.457 0,-3.394 -0.352,-0.352 -0.786,-0.572 -1.241,-0.659 0.43,-0.893 0.284,-1.994 -0.456,-2.735 -0.321,-0.321 -0.712,-0.524 -1.123,-0.625 0.094,-0.07 0.189,-0.139 0.274,-0.224 0.937,-0.937 0.937,-2.457 0,-3.394 -0.741,-0.741 -1.842,-0.887 -2.735,-0.456 -0.088,-0.455 -0.307,-0.889 -0.659,-1.241 -0.51,-0.51 -1.191,-0.732 -1.858,-0.688 0.045,-0.667 -0.178,-1.348 -0.688,-1.858 -0.937,-0.937 -2.457,-0.937 -3.394,0 -0.741,-0.741 -1.842,-0.887 -2.735,-0.456 -0.088,-0.455 -0.307,-0.889 -0.659,-1.241 -0.937,-0.937 -2.457,-0.937 -3.394,0 -0.352,0.352 -0.572,0.786 -0.659,1.241 -0.893,-0.43 -1.994,-0.284 -2.735,0.456 -0.321,0.321 -0.524,0.712 -0.625,1.123 -0.07,-0.094 -0.139,-0.189 -0.224,-0.274 -0.937,-0.937 -2.457,-0.937 -3.394,0 -0.742,0.739 -0.888,1.84 -0.458,2.734 -0.455,0.087 -0.889,0.307 -1.241,0.659 -0.937,0.937 -0.937,2.457 0,3.394 0.321,0.321 0.712,0.524 1.123,0.625 -0.094,0.07 -0.189,0.139 -0.274,0.224 -0.937,0.937 -0.937,2.457 0,3.394 0.352,0.352 0.786,0.572 1.241,0.659 -0.43,0.893 -0.284,1.994 0.456,2.735 0.741,0.741 1.842,0.887 2.735,0.456 0.088,0.455 0.307,0.889 0.659,1.241 0.321,0.321 0.712,0.524 1.123,0.625 -0.094,0.07 -0.189,0.139 -0.274,0.224 -0.937,0.937 -0.937,2.457 0,3.394 0.741,0.741 1.842,0.887 2.735,0.456 0.088,0.455 0.307,0.889 0.659,1.241 0.636,0.636 1.537,0.83 2.345,0.603 0.064,0.084 0.124,0.169 0.201,0.246 0.51,0.51 1.191,0.732 1.858,0.688 -0.045,0.667 0.178,1.348 0.688,1.858 0.937,0.937 2.457,0.937 3.394,0 0.085,-0.085 0.154,-0.18 0.224,-0.274 0.101,0.411 0.304,0.802 0.625,1.123 0.937,0.937 2.457,0.937 3.394,0 0.51,-0.51 0.732,-1.191 0.688,-1.858 z"
     id="path8"
     inkscape:connector-curvature="0"
     style="fill:#3e721d" />
  <circle
     cx="10.183"
     cy="5.1867499"
     r="1.543"
     id="circle10"
     style="fill:#5c913b" />
  <circle
     cx="14.547999"
     cy="5.1867499"
     r="1.543"
     id="circle12"
     style="fill:#5c913b" />
  <circle
     cx="17.457001"
     cy="2.27775"
     r="1.543"
     id="circle14"
     style="fill:#5c913b" />
  <circle
     cx="21.094"
     cy="4.4597497"
     r="1.543"
     id="circle16"
     style="fill:#5c913b" />
  <circle
     cx="24.003"
     cy="4.4597497"
     r="1.543"
     id="circle18"
     style="fill:#5c913b" />
  <circle
     cx="24.731001"
     cy="6.6417499"
     r="1.543"
     id="circle20"
     style="fill:#5c913b" />
  <circle
     cx="26.913"
     cy="7.3687496"
     r="1.543"
     id="circle22"
     style="fill:#5c913b" />
  <circle
     cx="29.822001"
     cy="8.8237495"
     r="1.543"
     id="circle24"
     style="fill:#5c913b" />
  <circle
     cx="29.095001"
     cy="11.00575"
     r="1.543"
     id="circle26"
     style="fill:#5c913b" />
  <circle
     cx="31.277"
     cy="14.64275"
     r="1.543"
     id="circle28"
     style="fill:#5c913b" />
  <circle
     cx="32.004002"
     cy="18.279749"
     r="1.543"
     id="circle30"
     style="fill:#5c913b" />
  <circle
     cx="26.185001"
     cy="11.00575"
     r="1.543"
     id="circle32"
     style="fill:#5c913b" />
  <circle
     cx="23.276001"
     cy="8.0967503"
     r="1.543"
     id="circle34"
     style="fill:#5c913b" />
  <circle
     cx="19.639"
     cy="5.9147496"
     r="1.543"
     id="circle36"
     style="fill:#5c913b" />
  <circle
     cx="15.274999"
     cy="7.3687496"
     r="1.543"
     id="circle38"
     style="fill:#5c913b" />
  <circle
     cx="16.73"
     cy="5.9147496"
     r="1.543"
     id="circle40"
     style="fill:#5c913b" />
  <circle
     cx="12.365"
     cy="8.8237495"
     r="1.543"
     id="circle42"
     style="fill:#5c913b" />
  <circle
     cx="19.639"
     cy="10.278749"
     r="1.543"
     id="circle44"
     style="fill:#5c913b" />
  <circle
     cx="24.731001"
     cy="15.36975"
     r="1.543"
     id="circle46"
     style="fill:#5c913b" />
  <circle
     cx="26.185001"
     cy="19.734751"
     r="1.543"
     id="circle48"
     style="fill:#5c913b" />
</svg>
