<?xml version="1.0" encoding="UTF-8" standalone="no"?>
<svg
   xmlns:dc="http://purl.org/dc/elements/1.1/"
   xmlns:cc="http://creativecommons.org/ns#"
   xmlns:rdf="http://www.w3.org/1999/02/22-rdf-syntax-ns#"
   xmlns:svg="http://www.w3.org/2000/svg"
   xmlns="http://www.w3.org/2000/svg"
   xmlns:sodipodi="http://sodipodi.sourceforge.net/DTD/sodipodi-0.dtd"
   xmlns:inkscape="http://www.inkscape.org/namespaces/inkscape"
   viewBox="0 0 36 36"
   id="svg2"
   version="1.1"
   inkscape:version="0.91 r13725"
   sodipodi:docname="1f97a.svg"
   width="36"
   height="36">
  <metadata
     id="metadata28">
    <rdf:RDF>
      <cc:Work
         rdf:about="">
        <dc:format>image/svg+xml</dc:format>
        <dc:type
           rdf:resource="http://purl.org/dc/dcmitype/StillImage" />
      </cc:Work>
    </rdf:RDF>
  </metadata>
  <defs
     id="defs26" />
  <sodipodi:namedview
     pagecolor="#ffffff"
     bordercolor="#666666"
     borderopacity="1"
     objecttolerance="10"
     gridtolerance="10"
     guidetolerance="10"
     inkscape:pageopacity="0"
     inkscape:pageshadow="2"
     inkscape:window-width="640"
     inkscape:window-height="480"
     id="namedview24"
     showgrid="false"
     inkscape:zoom="6.5555556"
     inkscape:cx="18"
     inkscape:cy="18"
     inkscape:window-x="0"
     inkscape:window-y="0"
     inkscape:window-maximized="0"
     inkscape:current-layer="svg2" />
  <circle
     cx="18"
     cy="18"
     r="18"
     id="circle4"
     style="fill:#ffcc4d" />
  <path
     d="m 20.996,27 c -0.103,0 -0.206,-0.016 -0.309,-0.049 -1.76,-0.571 -3.615,-0.571 -5.375,0 -0.524,0.169 -1.089,-0.117 -1.26,-0.642 -0.171,-0.525 0.117,-1.089 0.643,-1.26 2.162,-0.702 4.447,-0.702 6.609,0 0.525,0.171 0.813,0.735 0.643,1.26 C 21.81,26.73 21.418,27 20.996,27 Z"
     id="path6"
     inkscape:connector-curvature="0"
     style="fill:#65471b" />
  <path
     d="m 30.335,12.068 c -0.903,2.745 -3.485,4.715 -6.494,4.715 -0.144,0 -0.289,-0.005 -0.435,-0.014 -1.477,-0.093 -2.842,-0.655 -3.95,-1.584 0.036,0.495 0.076,0.997 0.136,1.54 0.152,1.388 0.884,2.482 2.116,3.163 0.82,0.454 1.8,0.688 2.813,0.752 1.734,0.109 3.57,-0.28 4.873,-0.909 1.377,-0.665 2.272,-1.862 2.456,-3.285 0.183,-1.415 -0.354,-2.924 -1.515,-4.378 z"
     id="path8"
     inkscape:connector-curvature="0"
     style="fill:#ffffff" />
  <path
     d="m 21.351,7.583 c -1.297,0.55 -1.947,2.301 -1.977,5.289 l 0.039,0.068 c 0.897,1.319 2.373,2.224 4.088,2.332 0.114,0.007 0.228,0.011 0.341,0.011 2.634,0 4.849,-1.937 5.253,-4.524 -0.115,-0.105 -0.221,-0.212 -0.343,-0.316 -3.715,-3.17 -6.467,-3.257 -7.401,-2.86 z"
     id="path10"
     inkscape:connector-curvature="0"
     style="fill:#65471b" />
  <path
     d="m 23.841,16.783 c 3.009,0 5.591,-1.97 6.494,-4.715 -0.354,-0.443 -0.771,-0.88 -1.241,-1.309 -0.404,2.587 -2.619,4.524 -5.253,4.524 -0.113,0 -0.227,-0.004 -0.341,-0.011 -1.715,-0.108 -3.191,-1.013 -4.088,-2.332 l -0.039,-0.068 c -0.007,0.701 0.021,1.473 0.083,2.313 1.108,0.929 2.473,1.491 3.95,1.584 0.146,0.01 0.291,0.014 0.435,0.014 z"
     id="path12"
     inkscape:connector-curvature="0"
     style="fill:#f4900c" />
  <circle
     cx="21.413"
     cy="10.705"
     r="1.107"
     id="circle14"
     style="fill:#ffffff" />
  <path
     d="m 12.159,16.783 c -3.009,0 -5.591,-1.97 -6.494,-4.715 -1.161,1.454 -1.697,2.963 -1.515,4.377 0.185,1.423 1.079,2.621 2.456,3.285 1.303,0.629 3.138,1.018 4.873,0.909 1.013,-0.064 1.993,-0.297 2.813,-0.752 1.231,-0.681 1.963,-1.775 2.116,-3.163 0.06,-0.542 0.1,-1.042 0.136,-1.536 -1.103,0.923 -2.47,1.487 -3.95,1.58 -0.146,0.011 -0.291,0.015 -0.435,0.015 z"
     id="path16"
     inkscape:connector-curvature="0"
     style="fill:#ffffff" />
  <path
     d="m 12.159,15.283 c 0.113,0 0.227,-0.004 0.341,-0.011 1.715,-0.108 3.191,-1.013 4.088,-2.332 l 0.039,-0.068 C 16.596,9.884 15.947,8.133 14.65,7.583 13.716,7.186 10.963,7.273 7.249,10.442 c -0.122,0.104 -0.227,0.211 -0.343,0.316 0.404,2.588 2.619,4.525 5.253,4.525 z"
     id="path18"
     inkscape:connector-curvature="0"
     style="fill:#65471b" />
  <path
     d="m 16.626,12.872 -0.039,0.068 c -0.897,1.319 -2.373,2.224 -4.088,2.332 -0.114,0.007 -0.228,0.011 -0.341,0.011 -2.634,0 -4.849,-1.937 -5.253,-4.524 -0.47,0.429 -0.887,0.866 -1.241,1.309 0.903,2.745 3.485,4.715 6.494,4.715 0.144,0 0.289,-0.005 0.435,-0.014 1.48,-0.093 2.847,-0.657 3.95,-1.58 0.062,-0.841 0.091,-1.614 0.083,-2.317 z"
     id="path20"
     inkscape:connector-curvature="0"
     style="fill:#f4900c" />
  <path
     d="m 9.781,11.81 c 0.61,-0.038 1.074,-0.564 1.035,-1.174 -0.038,-0.61 -0.564,-1.074 -1.174,-1.036 -0.61,0.038 -1.074,0.564 -1.036,1.174 0.039,0.61 0.565,1.074 1.175,1.036 z"
     id="path22"
     inkscape:connector-curvature="0"
     style="fill:#ffffff" />
</svg>
