<?xml version="1.0" encoding="UTF-8" standalone="no"?>
<svg
   xmlns:dc="http://purl.org/dc/elements/1.1/"
   xmlns:cc="http://creativecommons.org/ns#"
   xmlns:rdf="http://www.w3.org/1999/02/22-rdf-syntax-ns#"
   xmlns:svg="http://www.w3.org/2000/svg"
   xmlns="http://www.w3.org/2000/svg"
   xmlns:sodipodi="http://sodipodi.sourceforge.net/DTD/sodipodi-0.dtd"
   xmlns:inkscape="http://www.inkscape.org/namespaces/inkscape"
   viewBox="0 0 35.262432 24.373867"
   id="svg2"
   version="1.1"
   inkscape:version="0.91 r13725"
   sodipodi:docname="1f97e.svg"
   width="35.262432"
   height="24.373867">
  <metadata
     id="metadata30">
    <rdf:RDF>
      <cc:Work
         rdf:about="">
        <dc:format>image/svg+xml</dc:format>
        <dc:type
           rdf:resource="http://purl.org/dc/dcmitype/StillImage" />
      </cc:Work>
    </rdf:RDF>
  </metadata>
  <defs
     id="defs28" />
  <sodipodi:namedview
     pagecolor="#ffffff"
     bordercolor="#666666"
     borderopacity="1"
     objecttolerance="10"
     gridtolerance="10"
     guidetolerance="10"
     inkscape:pageopacity="0"
     inkscape:pageshadow="2"
     inkscape:window-width="640"
     inkscape:window-height="480"
     id="namedview26"
     showgrid="false"
     inkscape:zoom="6.5555556"
     inkscape:cx="17.393432"
     inkscape:cy="18"
     inkscape:window-x="0"
     inkscape:window-y="0"
     inkscape:window-maximized="0"
     inkscape:current-layer="svg2" />
  <path
     d="m 33.862432,16.529866 c -0.59,-0.885 -2.458,-2.365 -4.5,-2.656 -2.112,-0.302 -3.877,0.18 -6.571,-1.394 -0.086,-0.066 -0.171,-0.131 -0.273,-0.19 -2.153,-1.247 -5.917,-5.4169998 -6,-9.5419998 -0.047,-2.33599997 -3,-2.62499997 -5.375,-2.33299997 -2.3749997,0.292 -10.0829997,2.08299997 -9.7919997,3.24999997 0.248,0.991 0.224,5.316 -0.018,8.2049998 -0.36599996,2.27 -0.63599996,5.435 -0.63599996,7.44 -0.001,0.663 1.02899996,1.064 1.02899996,1.064 l 14.1979997,0.5 17.688,-0.477 c 0,0 0.933,-0.084 0.906,-0.711 -0.042,-0.958 -0.156,-2.406 -0.656,-3.156 z"
     id="path4"
     inkscape:connector-curvature="0"
     style="fill:#c1694f" />
  <path
     d="m 22.601432,20.831866 c 0.75,-1.333 2.375,-2.417 4.75,-2.583 2.375,-0.166 5.792,-2.531 5.792,-2.531 0,0 0.969,0 1.531,2.031 0.463,1.67 -0.406,2.094 -0.406,2.094 0,0 -3.542,1.99 -5.875,1.615 -2.333,-0.375 -5.792,-0.626 -5.792,-0.626 z m -21.3019997,-8.302 c 0,0 -1.12499996,3.656 -0.85999996,5.661 0.181,1.369 0.57299996,2.351 1.37599996,2.58 0.803,0.229 9.4999997,0.066 9.3279997,0.009 -0.172,-0.057 -1.097,-4.124 -4.5939997,-5.156 -3.497,-1.032 -5.25,-3.094 -5.25,-3.094 z"
     id="path6"
     inkscape:connector-curvature="0"
     style="fill:#662113" />
  <path
     d="m 1.2994323,23.935866 c -0.54999996,0 -1.03099996,-0.438 -1.15599996,-1.938 l -0.031,-0.562 c 0.156,-2 0.638,0.625 1.18799996,0.625 0.55,0 1,0.45 1,1 -0.001,0.55 -0.451,0.875 -1.001,0.875 z m 3.032,0.25 c -0.55,0 -1,-0.45 -1,-1 0,-0.55 0.45,-1 1,-1 0.55,0 1,0.45 1,1 0,0.55 -0.45,1 -1,1 z m 3.062,0.188 c -0.55,0 -1,-0.45 -1,-1 0,-0.55 0.45,-1 1,-1 0.55,0 1,0.45 1,1 0,0.55 -0.45,1 -1,1 z m 3.0619997,-0.156 c -0.5499997,0 -0.9999997,-0.45 -0.9999997,-1 0,-0.55 0.45,-1 0.9999997,-1 0.55,0 1,0.45 1,1 0,0.55 -0.449,1 -1,1 z m 8.938,0.156 c -0.55,0 -1,-0.45 -1,-1 0,-0.55 0.45,-1 1,-1 0.55,0 1,0.45 1,1 0,0.55 -0.45,1 -1,1 z m 3,0 c -0.55,0 -1,-0.45 -1,-1 0,-0.55 0.45,-1 1,-1 0.55,0 1,0.45 1,1 0,0.55 -0.45,1 -1,1 z m 2.938,-0.125 c -0.55,0 -1,-0.45 -1,-1 0,-0.55 0.45,-1 1,-1 0.55,0 1,0.45 1,1 0,0.55 -0.451,1 -1,1 z m 3.031,-0.187 c -0.55,0 -1,-0.45 -1,-1 0,-0.55 0.45,-1 1,-1 0.55,0 1,0.45 1,1 0,0.549 -0.45,1 -1,1 z m 3,-0.188 c -0.55,0 -1,-0.45 -1,-1 0,-0.55 0.45,-1 1,-1 0.55,0 1,0.45 1,1 0,0.55 -0.45,1 -1,1 z m 2.962,-0.481 -0.281,0 c -0.55,0 -1,-0.606 -1,-1.156 0,-0.55 0.45,-1 1,-1 0.55,0 1.219,-0.675 1.219,-0.125 l -0.063,1.062 c 0,0.55 -0.325,1.219 -0.875,1.219 z"
     id="path8"
     inkscape:connector-curvature="0"
     style="fill:#292f33" />
  <path
     d="m 1.5604323,4.4158662 c -0.71299996,0.366 -0.74999996,-1.25 -0.083,-2 0.667,-0.75 6.25,-1.74999997 7.625,-1.99999997 1.3749997,-0.25 4.0419997,-0.75 4.8749997,-0.083 0.833,0.667 1,2.83299997 0.958,3.62499997 -0.042,0.791 -3.084,-0.417 -5.5419997,-0.667 -2.323,-0.237 -6.208,0.291 -7.833,1.125 z"
     id="path10"
     inkscape:connector-curvature="0"
     style="fill:#662113" />
  <circle
     cx="13.997433"
     cy="6.9568663"
     r="1.5"
     id="circle12"
     style="fill:#292f33" />
  <circle
     cx="15.341433"
     cy="10.154866"
     r="1.5"
     id="circle14"
     style="fill:#292f33" />
  <circle
     cx="17.685432"
     cy="12.831866"
     r="1.5"
     id="circle16"
     style="fill:#292f33" />
  <circle
     cx="20.955433"
     cy="14.311866"
     r="1.5"
     id="circle18"
     style="fill:#292f33" />
  <circle
     cx="24.393433"
     cy="15.196866"
     r="1.5"
     id="circle20"
     style="fill:#292f33" />
  <path
     d="m 13.893432,7.7988662 c -0.362,0 -0.69,-0.247 -0.777,-0.614 -0.103,-0.43 0.162,-0.861 0.592,-0.964 l 3.833,-0.917 c 0.428,-0.105 0.861,0.162 0.964,0.592 0.103,0.43 -0.162,0.861 -0.592,0.964 l -3.833,0.917 c -0.063,0.015 -0.126,0.022 -0.187,0.022 z m 1.5,3.1869998 c -0.288,0 -0.566,-0.155 -0.709,-0.429 -0.205,-0.392 -0.054,-0.8749998 0.337,-1.0799998 l 3.542,-1.854 c 0.392,-0.203 0.874,-0.054 1.08,0.338 0.205,0.392 0.054,0.875 -0.338,1.08 l -3.542,1.8539998 c -0.118,0.062 -0.245,0.091 -0.37,0.091 z m 2.25,2.688 c -0.225,0 -0.449,-0.095 -0.607,-0.278 -0.288,-0.335 -0.25,-0.84 0.085,-1.128 l 2.958,-2.5419998 c 0.336,-0.288 0.84,-0.249 1.128,0.085 0.288,0.3349998 0.25,0.8399998 -0.085,1.1279998 l -2.958,2.542 c -0.15,0.129 -0.336,0.193 -0.521,0.193 z m 3.332,1.5 c -0.125,0 -0.252,-0.029 -0.37,-0.091 -0.392,-0.205 -0.543,-0.688 -0.338,-1.08 l 1.417,-2.708 c 0.205,-0.391 0.69,-0.541 1.08,-0.338 0.392,0.205 0.543,0.688 0.338,1.08 l -1.417,2.708 c -0.143,0.273 -0.422,0.429 -0.71,0.429 z m 3.45,0.906 c -0.037,0 -0.074,-0.002 -0.112,-0.008 -0.438,-0.062 -0.742,-0.466 -0.681,-0.903 l 0.386,-2.739 c 0.061,-0.438 0.462,-0.75 0.903,-0.681 0.438,0.062 0.742,0.466 0.681,0.903 l -0.386,2.739 c -0.055,0.401 -0.398,0.689 -0.791,0.689 z"
     id="path22"
     inkscape:connector-curvature="0"
     style="fill:#be1931" />
  <path
     d="m 0.72743234,19.589866 c 0.78699996,0.175 2.20099996,0.662 4.59099996,0.7 2.755,0.044 5.1869997,-0.525 8.3079997,-0.525 2.991,0 6.9,0.848 10.319,0.7 3.487,-0.152 7.35,-0.652 8.192,-0.799 1.667,-0.292 2.438,-0.479 2.438,-0.479 0,0 0.365,-0.021 0.531,0.688 0.167,0.708 0.304,2.083 -0.841,2.427 -2.186,0.656 -7.554,1.113 -12.724,1.049 -2.626,-0.032 -5.549,-0.81 -6.966,-0.976 -1.417,-0.167 -2.667,-0.287 -3.062,0 -0.396,0.287 0.089,0.792 -0.946,0.933 -2.5799997,0.35 -8.6139997,0.044 -9.92799966,-0.516 -0.672,-0.286 -1.051,-3.455 0.088,-3.202 z M 12.829432,8.9768662 c -0.219,0 -0.421,-0.146 -0.482,-0.368 l -0.61,-2.224 c -0.073,-0.266 0.084,-0.542 0.35,-0.615 0.264,-0.073 0.541,0.083 0.615,0.35 l 0.61,2.225 c 0.073,0.266 -0.084,0.541 -0.35,0.614 -0.045,0.012 -0.09,0.018 -0.133,0.018 z m 1.505,3.2799998 c -0.201,0 -0.39,-0.122 -0.467,-0.32 l -0.827,-2.1529998 c -0.099,-0.258 0.03,-0.548 0.288,-0.646 0.257,-0.1 0.547,0.03 0.646,0.287 l 0.827,2.1529998 c 0.099,0.258 -0.03,0.548 -0.288,0.646 -0.059,0.022 -0.12,0.033 -0.179,0.033 z m 2.992,2.861 c -0.127,0 -0.254,-0.048 -0.352,-0.145 l -1.639,-1.622 c -0.196,-0.194 -0.198,-0.511 -0.004,-0.707 0.194,-0.196 0.511,-0.198 0.707,-0.004 l 1.639,1.622 c 0.196,0.194 0.198,0.511 0.004,0.707 -0.098,0.099 -0.226,0.149 -0.355,0.149 z m 3.998,1.563 c -0.077,0 -0.155,-0.018 -0.228,-0.055 l -2.053,-1.051 c -0.246,-0.126 -0.344,-0.428 -0.218,-0.673 0.127,-0.246 0.431,-0.343 0.673,-0.218 l 2.053,1.051 c 0.246,0.126 0.344,0.428 0.218,0.673 -0.089,0.173 -0.264,0.273 -0.445,0.273 z m 3.993,0.755 c -0.032,0 -0.065,-0.003 -0.098,-0.01 l -2.263,-0.448 c -0.271,-0.054 -0.447,-0.316 -0.394,-0.587 0.054,-0.271 0.32,-0.45 0.587,-0.394 l 2.263,0.448 c 0.271,0.054 0.447,0.316 0.394,0.587 -0.047,0.239 -0.256,0.404 -0.489,0.404 z"
     id="path24"
     inkscape:connector-curvature="0"
     style="fill:#292f33" />
</svg>
