<?xml version="1.0" encoding="UTF-8" standalone="no"?>
<svg
   xmlns:dc="http://purl.org/dc/elements/1.1/"
   xmlns:cc="http://creativecommons.org/ns#"
   xmlns:rdf="http://www.w3.org/1999/02/22-rdf-syntax-ns#"
   xmlns:svg="http://www.w3.org/2000/svg"
   xmlns="http://www.w3.org/2000/svg"
   xmlns:sodipodi="http://sodipodi.sourceforge.net/DTD/sodipodi-0.dtd"
   xmlns:inkscape="http://www.inkscape.org/namespaces/inkscape"
   viewBox="0 0 36 36"
   id="svg2"
   version="1.1"
   inkscape:version="0.91 r13725"
   sodipodi:docname="1f974.svg"
   width="36"
   height="36">
  <metadata
     id="metadata16">
    <rdf:RDF>
      <cc:Work
         rdf:about="">
        <dc:format>image/svg+xml</dc:format>
        <dc:type
           rdf:resource="http://purl.org/dc/dcmitype/StillImage" />
      </cc:Work>
    </rdf:RDF>
  </metadata>
  <defs
     id="defs14" />
  <sodipodi:namedview
     pagecolor="#ffffff"
     bordercolor="#666666"
     borderopacity="1"
     objecttolerance="10"
     gridtolerance="10"
     guidetolerance="10"
     inkscape:pageopacity="0"
     inkscape:pageshadow="2"
     inkscape:window-width="640"
     inkscape:window-height="480"
     id="namedview12"
     showgrid="false"
     inkscape:zoom="6.5555556"
     inkscape:cx="18"
     inkscape:cy="18"
     inkscape:window-x="0"
     inkscape:window-y="0"
     inkscape:window-maximized="0"
     inkscape:current-layer="svg2" />
  <circle
     cx="18"
     cy="18"
     r="18"
     id="circle4"
     style="fill:#ffcc4d" />
  <path
     d="m 6.001,11 c -0.552,0 -1,-0.448 -1,-1 0,-0.551 0.445,-0.998 0.996,-1 0.156,-0.002 3.569,-0.086 6.205,-3.6 0.331,-0.44 0.957,-0.532 1.4,-0.2 0.442,0.331 0.531,0.958 0.2,1.4 C 10.539,10.95 6.185,11 6.001,11 Z m 24.986,2.393 C 31.115,13.93 30.783,14.47 30.246,14.598 29.71,14.726 29.172,14.396 29.042,13.861 29.004,13.71 28.131,10.409 24.101,8.66 23.596,8.44 23.362,7.852 23.582,7.345 c 0.22,-0.507 0.809,-0.739 1.315,-0.519 4.989,2.165 6.047,6.388 6.09,6.567 z"
     id="path6"
     inkscape:connector-curvature="0"
     style="fill:#65471b" />
  <path
     d="m 23.186,29.526 c -0.993,0 -1.952,-0.455 -2.788,-1.339 -2.816,-2.985 -3.569,-2.333 -4.817,-1.251 -0.781,0.679 -1.754,1.523 -3.205,1.523 -2.351,0 -3.969,-2.302 -4.036,-2.4 -0.314,-0.454 -0.2,-1.077 0.254,-1.391 0.451,-0.312 1.074,-0.2 1.39,0.251 0.301,0.429 1.317,1.54 2.393,1.54 0.704,0 1.256,-0.479 1.895,-1.033 1.816,-1.578 3.764,-2.655 7.583,1.388 0.823,0.873 1.452,0.774 1.908,0.592 1.659,-0.665 3.205,-3.698 3.197,-5.15 -0.003,-0.552 0.442,-1.002 0.994,-1.005 l 0.006,0 c 0.55,0 0.997,0.444 1,0.995 0.012,2.103 -1.854,5.976 -4.454,7.017 -0.443,0.175 -0.885,0.262 -1.32,0.263 z"
     id="path8"
     inkscape:connector-curvature="0"
     style="fill:#664500" />
  <path
     d="m 14.815,15.375 c -0.584,2.114 -1.642,3.083 -3.152,2.666 -1.509,-0.417 -2.343,-1.909 -1.76,-4.023 0.583,-2.112 2.175,-3.363 3.684,-2.946 1.511,0.417 1.812,2.19 1.228,4.303 z M 26.231,14.62 c 0.473,2.141 -0.675,4.838 -2.204,5.176 -1.529,0.338 -3.28,-1.719 -3.753,-3.86 -0.473,-2.14 0.419,-3.971 1.948,-4.309 1.529,-0.338 3.536,0.853 4.009,2.993 z"
     id="path10"
     inkscape:connector-curvature="0"
     style="fill:#65471b" />
</svg>
