<?xml version="1.0" encoding="UTF-8" standalone="no"?>
<svg
   xmlns:dc="http://purl.org/dc/elements/1.1/"
   xmlns:cc="http://creativecommons.org/ns#"
   xmlns:rdf="http://www.w3.org/1999/02/22-rdf-syntax-ns#"
   xmlns:svg="http://www.w3.org/2000/svg"
   xmlns="http://www.w3.org/2000/svg"
   xmlns:sodipodi="http://sodipodi.sourceforge.net/DTD/sodipodi-0.dtd"
   xmlns:inkscape="http://www.inkscape.org/namespaces/inkscape"
   viewBox="0 0 36 36"
   id="svg2"
   version="1.1"
   inkscape:version="0.91 r13725"
   sodipodi:docname="1f970.svg"
   width="36"
   height="36">
  <metadata
     id="metadata16">
    <rdf:RDF>
      <cc:Work
         rdf:about="">
        <dc:format>image/svg+xml</dc:format>
        <dc:type
           rdf:resource="http://purl.org/dc/dcmitype/StillImage" />
      </cc:Work>
    </rdf:RDF>
  </metadata>
  <defs
     id="defs14" />
  <sodipodi:namedview
     pagecolor="#ffffff"
     bordercolor="#666666"
     borderopacity="1"
     objecttolerance="10"
     gridtolerance="10"
     guidetolerance="10"
     inkscape:pageopacity="0"
     inkscape:pageshadow="2"
     inkscape:window-width="640"
     inkscape:window-height="480"
     id="namedview12"
     showgrid="false"
     inkscape:zoom="6.5555556"
     inkscape:cx="18"
     inkscape:cy="18"
     inkscape:window-x="0"
     inkscape:window-y="0"
     inkscape:window-maximized="0"
     inkscape:current-layer="svg2" />
  <circle
     cx="18"
     cy="18"
     r="18"
     id="circle4"
     style="fill:#ffcc4d" />
  <path
     d="m 16,16.958 c -0.419,0 -0.809,-0.265 -0.949,-0.684 -0.203,-0.599 -1.018,-2.316 -2.051,-2.316 -1.062,0 -1.888,1.827 -2.051,2.316 -0.175,0.523 -0.738,0.808 -1.265,0.632 -0.524,-0.174 -0.807,-0.741 -0.632,-1.265 0.125,-0.377 1.304,-3.684 3.949,-3.684 2.645,0 3.823,3.307 3.949,3.684 0.175,0.524 -0.108,1.091 -0.632,1.265 -0.106,0.036 -0.213,0.052 -0.318,0.052 z m 10,0 c -0.419,0 -0.809,-0.265 -0.948,-0.684 -0.203,-0.599 -1.019,-2.316 -2.052,-2.316 -1.062,0 -1.889,1.827 -2.052,2.316 -0.175,0.523 -0.736,0.808 -1.265,0.632 -0.523,-0.174 -0.807,-0.741 -0.632,-1.265 0.125,-0.377 1.304,-3.684 3.948,-3.684 2.644,0 3.823,3.307 3.948,3.684 0.175,0.524 -0.108,1.091 -0.632,1.265 -0.104,0.036 -0.21,0.052 -0.315,0.052 z m 1.335,3.733 C 27.157,20.53 26.891,20.52 26.7,20.662 c -0.039,0.029 -3.922,2.9 -8.7,2.9 -4.766,0 -8.662,-2.871 -8.7,-2.9 -0.191,-0.142 -0.457,-0.13 -0.635,0.029 -0.177,0.16 -0.217,0.424 -0.094,0.628 0.129,0.215 3.217,5.243 9.429,5.243 6.212,0 9.301,-5.028 9.429,-5.243 0.123,-0.205 0.084,-0.467 -0.094,-0.628 z"
     id="path6"
     inkscape:connector-curvature="0"
     style="fill:#664500" />
  <path
     d="m 21.229,3.947 c 0,0.24 0.03,0.472 0.082,0.696 0.425,2.643 3.364,5.431 5.47,6.197 1.665,-0.605 3.846,-2.476 4.898,-4.539 C 29.59,3.861 26.86,1.987 23.75,0.939 22.318,1.196 21.229,2.441 21.229,3.947 Z m -7.486,25.131 c 0.057,-0.242 0.09,-0.494 0.09,-0.754 0,-1.833 -1.486,-3.319 -3.319,-3.319 -1.113,0 -2.094,0.549 -2.697,1.389 -0.602,-0.839 -1.584,-1.389 -2.697,-1.389 -1.241,0 -2.311,0.689 -2.88,1.698 1.824,3.295 4.65,5.957 8.068,7.574 1.637,-1.351 3.131,-3.307 3.435,-5.199 z m 20.558,-3.436 c -0.282,-0.95 -1.152,-1.647 -2.194,-1.647 -0.771,0 -1.451,0.38 -1.868,0.962 -0.417,-0.582 -1.097,-0.962 -1.868,-0.962 -1.27,0 -2.299,1.029 -2.299,2.299 0,0.18 0.023,0.354 0.062,0.522 0.307,1.905 2.348,3.896 3.909,4.561 1.776,-1.6 3.231,-3.547 4.258,-5.735 z"
     id="path8"
     inkscape:connector-curvature="0"
     style="fill:#ffac33" />
  <path
     d="m 33.625,3.269 c 0,-1.692 -1.372,-3.063 -3.063,-3.063 -1.027,0 -1.933,0.507 -2.489,1.282 -0.556,-0.775 -1.462,-1.282 -2.489,-1.282 -1.692,0 -3.063,1.371 -3.063,3.063 0,0.24 0.03,0.472 0.082,0.696 0.426,2.643 3.364,5.431 5.47,6.197 2.106,-0.766 5.044,-3.554 5.469,-6.196 0.053,-0.225 0.083,-0.457 0.083,-0.697 z M 12.208,28.408 c 0,-1.833 -1.486,-3.319 -3.319,-3.319 -1.113,0 -2.094,0.549 -2.697,1.389 -0.602,-0.84 -1.584,-1.389 -2.697,-1.389 -1.833,0 -3.319,1.486 -3.319,3.319 0,0.26 0.033,0.511 0.089,0.754 0.461,2.863 3.644,5.884 5.926,6.714 2.282,-0.829 5.465,-3.85 5.926,-6.713 0.058,-0.244 0.091,-0.496 0.091,-0.755 z m 23.74,-2.281 c 0,-1.27 -1.029,-2.299 -2.299,-2.299 -0.771,0 -1.451,0.38 -1.868,0.962 -0.417,-0.582 -1.097,-0.962 -1.868,-0.962 -1.27,0 -2.299,1.029 -2.299,2.299 0,0.18 0.023,0.354 0.062,0.522 0.319,1.983 2.524,4.076 4.105,4.65 1.58,-0.574 3.786,-2.667 4.104,-4.65 0.04,-0.168 0.063,-0.342 0.063,-0.522 z"
     id="path10"
     inkscape:connector-curvature="0"
     style="fill:#dd2e44" />
</svg>
