<?xml version="1.0" encoding="UTF-8" standalone="no"?>
<svg
   xmlns:dc="http://purl.org/dc/elements/1.1/"
   xmlns:cc="http://creativecommons.org/ns#"
   xmlns:rdf="http://www.w3.org/1999/02/22-rdf-syntax-ns#"
   xmlns:svg="http://www.w3.org/2000/svg"
   xmlns="http://www.w3.org/2000/svg"
   xmlns:sodipodi="http://sodipodi.sourceforge.net/DTD/sodipodi-0.dtd"
   xmlns:inkscape="http://www.inkscape.org/namespaces/inkscape"
   viewBox="0 0 35.999641 35.782173"
   id="svg2"
   version="1.1"
   inkscape:version="0.91 r13725"
   sodipodi:docname="1f98c.svg"
   width="35.999641"
   height="35.782173">
  <metadata
     id="metadata20">
    <rdf:RDF>
      <cc:Work
         rdf:about="">
        <dc:format>image/svg+xml</dc:format>
        <dc:type
           rdf:resource="http://purl.org/dc/dcmitype/StillImage" />
      </cc:Work>
    </rdf:RDF>
  </metadata>
  <defs
     id="defs18" />
  <sodipodi:namedview
     pagecolor="#ffffff"
     bordercolor="#666666"
     borderopacity="1"
     objecttolerance="10"
     gridtolerance="10"
     guidetolerance="10"
     inkscape:pageopacity="0"
     inkscape:pageshadow="2"
     inkscape:window-width="640"
     inkscape:window-height="480"
     id="namedview16"
     showgrid="false"
     inkscape:zoom="6.5555556"
     inkscape:cx="18.000387"
     inkscape:cy="17.922"
     inkscape:window-x="0"
     inkscape:window-y="0"
     inkscape:window-maximized="0"
     inkscape:current-layer="svg2" />
  <path
     d="m 15.971387,14.943174 c -1.458,-2.333 -0.667,-7.708 0,-8.958 0.667,-1.25 -0.542,-2.458 -1.5,-0.458 -0.958,2 -0.996,3 -3.162,2.458 -2.1659998,-0.542 -1.088,-3.292 -0.379,-5.625 0.729,-2.39999996 -0.917,-1.95899996 -1.6669998,-0.458 -0.75,1.5 -1.254,5.693 -2.901,5.984 -1.647,0.291 -6.09899997,0.599 -2.851,-5.651 1.307,-2.51399996 -0.738,-3.03099996 -1.831,-0.916 -1.31899997,2.548 -2.08399997,5.791 -1.45899997,7.166 1.11299997,2.448 3.48299997,2.95 6.98299997,2.284 3.4999998,-0.666 6.1009998,-0.634 6.1009998,1.133 0,1.872 0.208,3.458 1.042,3.625 0.834,0.167 1.624,-0.584 1.624,-0.584 z m 4.057,0 c 1.458,-2.333 0.667,-7.708 0,-8.958 -0.667,-1.25 0.542,-2.458 1.5,-0.458 0.958,2 0.996,3 3.162,2.458 2.166,-0.542 1.088,-3.292 0.379,-5.625 -0.729,-2.39999996 0.917,-1.95899996 1.667,-0.458 0.75,1.501 1.254,5.693 2.901,5.984 1.647,0.292 6.099,0.599 2.851,-5.651 -1.307,-2.51399996 0.737,-3.03099996 1.831,-0.916 1.318,2.549 2.084,5.792 1.459,7.167 -1.113,2.448 -3.482,2.95 -6.982,2.284 -3.5,-0.666 -6.102,-0.634 -6.102,1.133 0,1.872 -0.208,3.458 -1.041,3.625 -0.833,0.167 -1.625,-0.585 -1.625,-0.585 z"
     id="path4"
     inkscape:connector-curvature="0"
     style="fill:#662113" />
  <path
     d="m 13.859387,15.355174 c 0.596,2.392 0.16,4.422 -2.231,5.017 -2.3919998,0.596 -6.3439998,0.559 -7.9579998,-1.303 -2.294,-2.646 -2.531,-6.391 -1.189,-6.725 1.34,-0.334 10.7829998,0.62 11.3779998,3.011 z m 8.283,0 c -0.596,2.392 -0.16,4.422 2.231,5.017 2.392,0.596 6.345,0.559 7.958,-1.303 2.295,-2.646 2.531,-6.391 1.189,-6.725 -1.34,-0.334 -10.783,0.62 -11.378,3.011 z"
     id="path6"
     inkscape:connector-curvature="0"
     style="fill:#c1694f" />
  <path
     d="m 2.4803872,12.344174 c -0.943,0.235 -1.102,2.157 -0.317,4.198 l 3.374,-4.134 c -1.457,-0.146 -2.643,-0.167 -3.057,-0.064 z m 31.0409998,0 c -0.419,-0.104 -1.632,-0.083 -3.118,0.069 l 3.445,4.106 c 0.774,-2.032 0.613,-3.941 -0.327,-4.175 z"
     id="path8"
     inkscape:connector-curvature="0"
     style="fill:#272b2b" />
  <path
     d="m 12.052387,15.857174 c 0.871,1.393 -0.553,2.229 -1.946,3.099 -1.3939998,0.871 -4.6079998,-0.203 -5.4789998,-1.596 -0.871,-1.394 -1.186,-3.131 -0.676,-3.45 0.51,-0.318 7.2299998,0.553 8.1009998,1.947 z m 11.896,0 c -0.871,1.393 0.553,2.229 1.945,3.099 1.394,0.871 4.608,-0.203 5.479,-1.596 0.871,-1.394 1.185,-3.131 0.676,-3.45 -0.51,-0.318 -7.229,0.553 -8.1,1.947 z"
     id="path10"
     inkscape:connector-curvature="0"
     style="fill:#e6aaaa" />
  <path
     d="m 18.000387,13.985174 -0.002,0 c -10.2709998,10e-4 -8.7029998,3.959 -7.603,10.541 1.1,6.584 2.401,11.256 7.605,11.256 5.203,0 6.502,-4.672 7.604,-11.256 1.099,-6.582 2.666,-10.54 -7.604,-10.541 z"
     id="path12"
     inkscape:connector-curvature="0"
     style="fill:#c1694f" />
  <path
     d="m 11.826387,22.711174 c 0,0 -0.75,-1.299 0.549,-2.049 1.299,-0.75 2.049,0.549 2.049,0.549 l 0.75,1.299 c 0,0 0.75,1.299 -0.549,2.049 -1.299,0.75 -2.049,-0.549 -2.049,-0.549 l -0.75,-1.299 z m 9.75,-1.5 c 0,0 0.75,-1.299 2.049,-0.549 1.299,0.75 0.549,2.049 0.549,2.049 l -0.75,1.299 c 0,0 -0.75,1.299 -2.049,0.549 -1.299,-0.75 -0.549,-2.049 -0.549,-2.049 l 0.75,-1.299 z m -6.35,12.915 c -0.925,-0.188 1.85,-3.596 2.774,-3.596 0.924,0 3.699,3.407 2.774,3.596 -0.924,0.188 -4.624,0.188 -5.548,0 z"
     id="path14"
     inkscape:connector-curvature="0"
     style="fill:#272b2b" />
</svg>
