<?xml version="1.0" encoding="UTF-8" standalone="no"?>
<svg
   xmlns:dc="http://purl.org/dc/elements/1.1/"
   xmlns:cc="http://creativecommons.org/ns#"
   xmlns:rdf="http://www.w3.org/1999/02/22-rdf-syntax-ns#"
   xmlns:svg="http://www.w3.org/2000/svg"
   xmlns="http://www.w3.org/2000/svg"
   xmlns:sodipodi="http://sodipodi.sourceforge.net/DTD/sodipodi-0.dtd"
   xmlns:inkscape="http://www.inkscape.org/namespaces/inkscape"
   viewBox="0 0 35.232159 27"
   id="svg2"
   version="1.1"
   inkscape:version="0.91 r13725"
   sodipodi:docname="1f987.svg"
   width="35.232159"
   height="27">
  <metadata
     id="metadata30">
    <rdf:RDF>
      <cc:Work
         rdf:about="">
        <dc:format>image/svg+xml</dc:format>
        <dc:type
           rdf:resource="http://purl.org/dc/dcmitype/StillImage" />
      </cc:Work>
    </rdf:RDF>
  </metadata>
  <defs
     id="defs28" />
  <sodipodi:namedview
     pagecolor="#ffffff"
     bordercolor="#666666"
     borderopacity="1"
     objecttolerance="10"
     gridtolerance="10"
     guidetolerance="10"
     inkscape:pageopacity="0"
     inkscape:pageshadow="2"
     inkscape:window-width="640"
     inkscape:window-height="480"
     id="namedview26"
     showgrid="false"
     inkscape:zoom="6.5555556"
     inkscape:cx="17.63158"
     inkscape:cy="13"
     inkscape:window-x="0"
     inkscape:window-y="0"
     inkscape:window-maximized="0"
     inkscape:current-layer="svg2" />
  <path
     d="m 22.63158,17 c 0,6.352 -3,10 -5,10 -2,0 -5,-3.648 -5,-10 0,-6.352 2.239,-7 5,-7 2.762,0 5,0.648 5,7 z"
     id="path4"
     inkscape:connector-curvature="0"
     style="fill:#66757f" />
  <circle
     cx="17.63158"
     cy="7"
     r="4"
     id="circle6"
     style="fill:#66757f" />
  <path
     d="m 13.63158,7 c -2,-5 1,-7 1,-7 0,0 2,1 2,4 0,3 -3,3 -3,3 z"
     id="path8"
     inkscape:connector-curvature="0"
     style="fill:#66757f" />
  <path
     d="m 14.29958,5.904 c -0.776,-2.457 -0.119,-3.896 0.403,-4.58 0.415,0.449 0.929,1.284 0.929,2.676 0,1.268 -0.739,1.734 -1.332,1.904 z"
     id="path10"
     inkscape:connector-curvature="0"
     style="fill:#546066" />
  <path
     d="m 21.63158,7 c 2,-5 -1,-7 -1,-7 0,0 -2,1 -2,4 0,3 3,3 3,3 z m -5.984,3 c -1.62,1.157 -10,2 -9,-5 0.142,-0.99 -1,-1 -2,0 -3,3 -6,7.834 -3.99999998,20 C 3.64758,20 6.64758,21 7.64758,26 c 3,-4 6,-2 8,0 3,-3 0,-16 0,-16 z m 3.937,0 c 1.62,1.157 10,2 9,-5 -0.142,-0.99 1,-1 2,0 3,3 6,7.834 4,20 -3,-5 -6,-4 -7,1 -3,-4 -6,-2 -8,0 -3,-3 0,-16 0,-16 z"
     id="path12"
     inkscape:connector-curvature="0"
     style="fill:#66757f" />
  <circle
     cx="15.63158"
     cy="7"
     r="1"
     id="circle14"
     style="fill:#292f33" />
  <circle
     cx="19.63158"
     cy="7"
     r="1"
     id="circle16"
     style="fill:#292f33" />
  <path
     d="m 20.96358,5.904 c 0.775,-2.457 0.118,-3.896 -0.403,-4.58 -0.415,0.449 -0.929,1.284 -0.929,2.676 0,1.268 0.739,1.734 1.332,1.904 z"
     id="path18"
     inkscape:connector-curvature="0"
     style="fill:#546066" />
  <path
     d="m 7.62758,22.91 c 0.892,-2.691 0.573,-5.988 -0.996,-9.91 -1.487,-3.719 -1.315,-6.329 -1.129,-7.423 -0.049,0.041 -0.096,0.078 -0.148,0.13 -2.706,2.707 -5.24599998,6.824 -4.063,16.729 1.276,-1.379 2.412,-1.723 3.228,-1.723 1.265,0 2.333,0.783 3.108,2.197 z"
     id="path20"
     inkscape:connector-curvature="0"
     style="fill:#99aab5" />
  <path
     d="m 6.46358,9.25 c -0.019,-0.03 -0.041,-0.058 -0.06,-0.087 0.228,2.837 1.628,3.838 2.228,6.837 0.588,2.94 0.476,5.519 0.088,7.564 0.839,-0.571 1.726,-0.874 2.656,-0.874 1.264,0 2.548,0.538 3.895,1.627 C 13.63158,15 8.63158,13 6.46358,9.25 Z m 21.172,13.66 c -0.893,-2.691 -0.572,-5.988 0.996,-9.91 1.487,-3.719 1.315,-6.329 1.129,-7.423 0.049,0.041 0.097,0.078 0.148,0.13 2.706,2.707 5.246,6.824 4.063,16.729 -1.275,-1.379 -2.412,-1.723 -3.227,-1.723 -1.266,0 -2.334,0.783 -3.109,2.197 z"
     id="path22"
     inkscape:connector-curvature="0"
     style="fill:#99aab5" />
  <path
     d="m 28.79958,9.25 0.061,-0.087 c -0.229,2.837 -1.629,3.838 -2.229,6.837 -0.588,2.94 -0.477,5.519 -0.088,7.564 -0.84,-0.571 -1.726,-0.874 -2.656,-0.874 -1.264,0 -2.548,0.538 -3.895,1.627 C 21.63158,15 26.63158,13 28.79958,9.25 Z m -10.48,-0.144 c -0.378,0.378 -0.998,0.378 -1.375,0 l -0.57,-0.571 c -0.378,-0.378 -0.25,-0.688 0.285,-0.688 l 1.945,0 c 0.535,0 0.664,0.309 0.285,0.688 l -0.57,0.571 z"
     id="path24"
     inkscape:connector-curvature="0"
     style="fill:#99aab5" />
</svg>
