<?xml version="1.0" encoding="UTF-8" standalone="no"?>
<svg
   xmlns:dc="http://purl.org/dc/elements/1.1/"
   xmlns:cc="http://creativecommons.org/ns#"
   xmlns:rdf="http://www.w3.org/1999/02/22-rdf-syntax-ns#"
   xmlns:svg="http://www.w3.org/2000/svg"
   xmlns="http://www.w3.org/2000/svg"
   xmlns:sodipodi="http://sodipodi.sourceforge.net/DTD/sodipodi-0.dtd"
   xmlns:inkscape="http://www.inkscape.org/namespaces/inkscape"
   viewBox="0 0 35.550236 35.443989"
   id="svg2"
   version="1.1"
   inkscape:version="0.91 r13725"
   sodipodi:docname="1f98e.svg"
   width="35.550236"
   height="35.443989">
  <metadata
     id="metadata20">
    <rdf:RDF>
      <cc:Work
         rdf:about="">
        <dc:format>image/svg+xml</dc:format>
        <dc:type
           rdf:resource="http://purl.org/dc/dcmitype/StillImage" />
      </cc:Work>
    </rdf:RDF>
  </metadata>
  <defs
     id="defs18" />
  <sodipodi:namedview
     pagecolor="#ffffff"
     bordercolor="#666666"
     borderopacity="1"
     objecttolerance="10"
     gridtolerance="10"
     guidetolerance="10"
     inkscape:pageopacity="0"
     inkscape:pageshadow="2"
     inkscape:window-width="640"
     inkscape:window-height="480"
     id="namedview16"
     showgrid="false"
     inkscape:zoom="6.5555556"
     inkscape:cx="17.800235"
     inkscape:cy="17.868989"
     inkscape:window-x="0"
     inkscape:window-y="0"
     inkscape:window-maximized="0"
     inkscape:current-layer="svg2" />
  <path
     d="m 15.460235,6.419 c 0.485,-2.03 0.384,-3.139 -0.553,-3.677 -0.936,-0.537 0.337,-2.666 1.977,-0.793 1.641,1.873 1.428,3.618 0.662,4.853 -0.767,1.234 -2.336,0.66 -2.086,-0.383 z m -0.48,2.951 c -0.916,1.877 -1.699,2.668 -2.764,2.487 -1.064,-0.18 -1.435,2.272 1.023,1.869 2.457,-0.403 3.401,-1.886 3.595,-3.326 0.193,-1.44 -1.383,-1.994 -1.854,-1.03 z m 11.336,6.261 c -2.072,-1.377 -5.382,1.43 -5.699,2.28 -0.317,0.85 1.721,3.461 1.146,4.94 -0.577,1.477 1.142,1.768 1.92,0.491 0.778,-1.278 0.304,-3.612 0.156,-4.169 -0.148,-0.557 2.189,-1.219 3.671,-0.037 1.481,1.18 -0.323,-2.925 -1.194,-3.505 z m 1.068,-0.818 c -1.546,-1.949 0.975,-5.482 1.794,-5.87 0.821,-0.387 2.572,0.402 3.997,-0.295 1.424,-0.697 1.745,0.854 0.65,1.874 -1.227,1.142 -2.241,1.335 -3.119,1.526 -0.563,0.122 -0.032,2.033 -0.009,3.97 0.023,1.799 -2.663,-0.385 -3.313,-1.205 z"
     id="path4"
     inkscape:connector-curvature="0"
     style="fill:#3e721d" />
  <path
     d="m 15.119235,2.742 c 0,0.4 -0.324,0.724 -0.724,0.724 -0.399,0 -0.724,-0.324 -0.724,-0.724 0,-0.399 0.324,-0.724 0.724,-0.724 0.4,0 0.724,0.325 0.724,0.724 z m -2.999,8.897 c 0,0.399 -0.324,0.724 -0.724,0.724 -0.399,0 -0.724,-0.324 -0.724,-0.724 0,-0.399 0.324,-0.724 0.724,-0.724 0.4,0 0.724,0.324 0.724,0.724 z m -0.298,1.677 c 0,0.4 -0.324,0.724 -0.724,0.724 -0.399,0 -0.724,-0.324 -0.724,-0.724 0,-0.399 0.324,-0.724 0.724,-0.724 0.4,0 0.724,0.324 0.724,0.724 z m 1.447,0.724 c 0,0.399 -0.324,0.724 -0.724,0.724 -0.399,0 -0.724,-0.324 -0.724,-0.724 0,-0.4 0.324,-0.724 0.724,-0.724 0.4,0 0.724,0.324 0.724,0.724 z m 8.575,8.848 c 0.128,0.378 -0.073,0.791 -0.452,0.92 -0.377,0.129 -0.789,-0.075 -0.918,-0.453 -0.129,-0.378 0.072,-0.79 0.45,-0.919 0.379,-0.129 0.791,0.074 0.92,0.452 z m 0.772,1.268 c 0.128,0.378 -0.073,0.79 -0.452,0.919 -0.377,0.128 -0.789,-0.074 -0.918,-0.452 -0.129,-0.377 0.073,-0.79 0.451,-0.918 0.379,-0.13 0.791,0.073 0.919,0.451 z m 1.627,-0.24 c 0.13,0.377 -0.073,0.79 -0.452,0.919 -0.376,0.129 -0.788,-0.074 -0.917,-0.451 -0.129,-0.378 0.073,-0.791 0.45,-0.919 0.379,-0.13 0.791,0.073 0.919,0.451 z m 9.803,-15.752 c 0,0.399 -0.325,0.724 -0.725,0.724 -0.4,0 -0.724,-0.325 -0.724,-0.724 0,-0.399 0.324,-0.725 0.724,-0.725 0.4,0 0.725,0.326 0.725,0.725 z m 1.504,0.725 c 0,0.399 -0.324,0.724 -0.725,0.724 -0.398,0 -0.723,-0.325 -0.723,-0.724 0,-0.399 0.324,-0.724 0.723,-0.724 0.401,-10e-4 0.725,0.325 0.725,0.724 z m -0.346,1.716 c 0,0.399 -0.324,0.724 -0.725,0.724 -0.399,0 -0.724,-0.325 -0.724,-0.724 0,-0.399 0.324,-0.724 0.724,-0.724 0.401,0 0.725,0.325 0.725,0.724 z m -19.892,-9.412 c 0,0.399 -0.324,0.724 -0.724,0.724 -0.399,0 -0.724,-0.324 -0.724,-0.724 0,-0.4 0.324,-0.724 0.724,-0.724 0.4,0 0.724,0.324 0.724,0.724 z m 1.571,-0.469 c 0,0.4 -0.324,0.724 -0.724,0.724 -0.399,0 -0.724,-0.324 -0.724,-0.724 0,-0.399 0.324,-0.724 0.724,-0.724 0.4,0.001 0.724,0.325 0.724,0.724 z"
     id="path6"
     inkscape:connector-curvature="0"
     style="fill:#3e721d" />
  <path
     d="m 0.00823501,5.227 c 0.264,-1.053 4.65699999,-4.723 8.64199999,-4.034 2.024,0.351 2.942,3.354 5.102,3.428 11.289,0.389 22.272,11.138 18.847,21.391 -1.506,4.507 -5.618,8.798 -15.461,5.001 -1.956,-0.754 -3.97,-1.985 -7.824,-1.227 -2.852,0.563 -3.149,3.159 -2.803,4.497 0.272,1.048 -0.161,1.582 -0.701,0.759 -1.226,-1.867 -1.317,-4.347 0.643,-5.955 3.912,-3.211 9.248,-1.284 13.137,-0.059 6.481,2.044 9.917,-3.651 6.346,-10.315 -3.503,-6.54 -9.812,-8.324 -14.005,-8.816 -1.168,-0.137 -3.639,2.048 -5.367,1.742 -3.621,-0.643 -6.74599999,-5.648 -6.55599999,-6.412 z"
     id="path8"
     inkscape:connector-curvature="0"
     style="fill:#3e721d" />
  <path
     d="m 0.00823501,5.227 c 0.264,-1.053 4.65699999,-4.723 8.64199999,-4.034 2.024,0.351 2.942,3.354 5.102,3.428 11.289,0.389 22.272,11.138 18.847,21.391 -1.506,4.507 -5.618,8.798 -15.461,5.001 -1.956,-0.754 -3.97,-1.985 -7.824,-1.227 -2.852,0.563 -3.149,3.159 -2.803,4.497 0.134,0.516 0.097,0.906 -0.039,1.073 -0.922,-1.281 -1.362,-4.339 0.661,-5.864 3.539,-2.667 8.568,-0.131 13.301,1.042 10.251,2.541 12.183,-7.995 7.907,-14.875 C 23.155235,7.311 6.800235,5.325 0.00823501,5.227 Z"
     id="path10"
     inkscape:connector-curvature="0"
     style="fill:#77b255" />
  <circle
     cx="6.8002348"
     cy="2.575"
     r="1"
     id="circle12"
     style="fill:#292f33" />
  <circle
     cx="5.8002348"
     cy="9.5749998"
     r="1"
     id="circle14"
     style="fill:#292f33" />
</svg>
