<?xml version="1.0" encoding="UTF-8" standalone="no"?>
<svg
   xmlns:dc="http://purl.org/dc/elements/1.1/"
   xmlns:cc="http://creativecommons.org/ns#"
   xmlns:rdf="http://www.w3.org/1999/02/22-rdf-syntax-ns#"
   xmlns:svg="http://www.w3.org/2000/svg"
   xmlns="http://www.w3.org/2000/svg"
   xmlns:sodipodi="http://sodipodi.sourceforge.net/DTD/sodipodi-0.dtd"
   xmlns:inkscape="http://www.inkscape.org/namespaces/inkscape"
   viewBox="0 0 36 35.999729"
   id="svg2"
   version="1.1"
   inkscape:version="0.91 r13725"
   sodipodi:docname="1f983.svg"
   width="36"
   height="35.999729">
  <metadata
     id="metadata22">
    <rdf:RDF>
      <cc:Work
         rdf:about="">
        <dc:format>image/svg+xml</dc:format>
        <dc:type
           rdf:resource="http://purl.org/dc/dcmitype/StillImage" />
      </cc:Work>
    </rdf:RDF>
  </metadata>
  <defs
     id="defs20" />
  <sodipodi:namedview
     pagecolor="#ffffff"
     bordercolor="#666666"
     borderopacity="1"
     objecttolerance="10"
     gridtolerance="10"
     guidetolerance="10"
     inkscape:pageopacity="0"
     inkscape:pageshadow="2"
     inkscape:window-width="640"
     inkscape:window-height="480"
     id="namedview18"
     showgrid="false"
     inkscape:zoom="6.5555556"
     inkscape:cx="18"
     inkscape:cy="17.999728"
     inkscape:window-x="0"
     inkscape:window-y="0"
     inkscape:window-maximized="0"
     inkscape:current-layer="svg2" />
  <path
     d="M 22.88,33.097 C 22.782,32.917 22.63,32.795 22.462,32.706 20.865,31 22,28.999 22,28.999 c 0,-0.553 1,-2 0,-2 l -1,1 c -1,1 -1,4 -1,4 l -2,0 c -0.553,0 -1,0.447 -1,1 0,0.553 0.447,1 1,1 l 1.107,0 -0.222,0.12 c -0.486,0.263 -0.667,0.869 -0.404,1.356 0.263,0.486 0.869,0.667 1.356,0.404 l 2.639,-1.427 c 0.486,-0.263 0.667,-0.869 0.404,-1.355 z m -7,0 C 15.783,32.917 15.63,32.795 15.463,32.706 13.866,31 15,28.999 15,28.999 c 0,-0.553 1,-2 0,-2 l -1,1 c -1,1 -1,4 -1,4 l -2,0 c -0.553,0 -1,0.447 -1,1 0,0.553 0.447,1 1,1 l 1.108,0 -0.222,0.12 c -0.486,0.263 -0.667,0.869 -0.404,1.356 0.263,0.486 0.869,0.667 1.356,0.404 l 2.639,-1.427 c 0.485,-0.263 0.666,-0.869 0.403,-1.355 z"
     id="path4"
     inkscape:connector-curvature="0"
     style="fill:#ffac33" />
  <path
     d="m 5.134,7 c 2,5 -3,5 -2,7 1,2 5,-2 3,-7 -2,-5 -1,0 -1,0 z"
     id="path6"
     inkscape:connector-curvature="0"
     style="fill:#be1931" />
  <path
     d="M 7,6 C 7,7.104 8.933,8 7,8 5.067,8 0,7 0,6 0,5 1.067,3 3,3 4.933,3 7,4.896 7,6 Z"
     id="path8"
     inkscape:connector-curvature="0"
     style="fill:#ffac33" />
  <path
     d="M 6,21 C 6,15 9.209,8 7,8 3,8 3,6.209 3,4 3,1.791 4.791,0 7,0 c 7,0 6,9 4,13 -1.674,3.348 -2.022,8 -5,8 z"
     id="path10"
     inkscape:connector-curvature="0"
     style="fill:#c1694f" />
  <path
     d="M 36,17 C 36,24.959 31,28.3 26,28.249 23.966,30.045 21.073,31 18,31 11.373,31 6,26.164 6,20.2 6,14.235 11.373,9.4 18,9.4 21,6.7 25,2.9 28,2 c 6,3.6 8,7.8 8,15 z"
     id="path12"
     inkscape:connector-curvature="0"
     style="fill:#31373d" />
  <circle
     cx="6"
     cy="3"
     r="1"
     id="circle14"
     style="fill:#292f33" />
  <path
     d="M 17.984,9.4 C 16.358,9.402 14.81,9.697 13.399,10.229 17.313,10 19.75,10.187 23.001,11.781 22.078,10.266 19.609,9.4 17.984,9.4 Z m 17.942,5.435 c -0.086,-1.278 -0.254,-2.456 -0.52,-3.545 -6.25,1.272 -3.404,3.545 0.52,3.545 z M 33.941,7.612 C 33.265,6.458 32.4,5.407 31.318,4.426 24.156,8 28.312,9.156 33.941,7.612 Z m 1.212,14.473 C 31.751,21 30.906,22.906 32.938,25.5 c -2.5,-2.344 -4.031,-1.062 -3.344,2 -1.469,-2.188 -2.969,-0.208 -3.594,0.749 3.761,0.038 7.52,-1.844 9.153,-6.164 z M 31.315,4.424 C 30.378,3.574 29.286,2.771 28,2 21,5.688 26,6.406 31.315,4.424 Z m 3.838,17.66 C 35.691,20.66 36,18.973 36,17 c 0,-0.755 -0.027,-1.471 -0.074,-2.163 -4.61,0.382 -3.801,2.882 0.006,3.351 -3.557,0.062 -4.181,2.25 -0.779,3.896 z M 33.943,7.615 C 27.516,10 30.25,11.906 35.405,11.288 35.077,9.944 34.597,8.731 33.943,7.615 Z"
     id="path16"
     inkscape:connector-curvature="0"
     style="fill:#66757f" />
</svg>
