<?xml version="1.0" encoding="UTF-8" standalone="no"?>
<svg
   xmlns:dc="http://purl.org/dc/elements/1.1/"
   xmlns:cc="http://creativecommons.org/ns#"
   xmlns:rdf="http://www.w3.org/1999/02/22-rdf-syntax-ns#"
   xmlns:svg="http://www.w3.org/2000/svg"
   xmlns="http://www.w3.org/2000/svg"
   xmlns:sodipodi="http://sodipodi.sourceforge.net/DTD/sodipodi-0.dtd"
   xmlns:inkscape="http://www.inkscape.org/namespaces/inkscape"
   viewBox="0 0 35.799904 35.568123"
   id="svg2"
   version="1.1"
   inkscape:version="0.91 r13725"
   sodipodi:docname="1f980.svg"
   width="35.799904"
   height="35.568123">
  <metadata
     id="metadata44">
    <rdf:RDF>
      <cc:Work
         rdf:about="">
        <dc:format>image/svg+xml</dc:format>
        <dc:type
           rdf:resource="http://purl.org/dc/dcmitype/StillImage" />
      </cc:Work>
    </rdf:RDF>
  </metadata>
  <defs
     id="defs42" />
  <sodipodi:namedview
     pagecolor="#ffffff"
     bordercolor="#666666"
     borderopacity="1"
     objecttolerance="10"
     gridtolerance="10"
     guidetolerance="10"
     inkscape:pageopacity="0"
     inkscape:pageshadow="2"
     inkscape:window-width="640"
     inkscape:window-height="480"
     id="namedview40"
     showgrid="false"
     inkscape:zoom="6.5555556"
     inkscape:cx="17.899949"
     inkscape:cy="17.869545"
     inkscape:window-x="0"
     inkscape:window-y="0"
     inkscape:window-maximized="0"
     inkscape:current-layer="svg2" />
  <path
     d="m 6.8599487,20.335577 c 0.068,0.639 -0.543,1.228 -1.368,1.315 -0.824,0.089 -1.547,-0.357 -1.615,-0.995 -0.068,-0.639 0.544,-1.227 1.368,-1.314 0.824,-0.089 1.547,0.356 1.615,0.994 z m 2.087,2.717 c 0.125,0.818 -1.756,2.544 -2.576,2.669 -0.819,0.125 -1.584,-0.438 -1.708,-1.257 -0.125,-0.818 0.58,-1.14 1.398,-1.265 0.819,-0.124 2.761,-0.965 2.886,-0.147 z m 1.7830003,2.104 c 0.173,0.81 -1.6280003,3.927 -2.4380003,4.1 -0.811,0.173 -1.645,0.146 -1.817,-0.665 -0.173,-0.81 0.306,-1.688 1.116,-1.861 0.81,-0.174 2.9660003,-2.384 3.1390003,-1.574 z m 3.853,0.858 c 0.165,0.811 -1.338,4.354 -2.15,4.519 -0.812,0.165 -1.439,0.451 -1.604,-0.36 -0.165,-0.812 0.261,-1.975 1.006,-2.58 0.644,-0.523 2.584,-2.39 2.748,-1.579 z"
     id="path4"
     inkscape:connector-curvature="0"
     style="fill:#a0041e" />
  <path
     d="m 3.8249487,18.567577 c 0.607,0.715 1.18,1.23 0.464,1.835 -0.716,0.606 -1.747,0.162 -2.354,-0.554 -0.605,-0.715 -2.23900004,-3.42 -1.52400004,-4.025 0.71700004,-0.606 2.80900004,2.029 3.41400004,2.744 z m 0.33,4.88 c 0.892,0.295 1.857,0.801 1.563,1.691 -0.294,0.891 -1.328,0.991 -2.219,0.698 -0.889,-0.295 -3.77200004,-1.691 -3.47800004,-2.581 0.295,-0.89 3.24400004,-0.102 4.13400004,0.192 z m 1.214,4.532 c 0.905,-0.253 1.907,-0.283 2.159,0.619 0.252,0.903 -0.282,1.535 -1.186,1.787 -0.902,0.251 -4.342,0.727 -4.594,-0.176 -0.251,-0.905 2.718,-1.98 3.621,-2.23 z m 4.348,3.188 c 0.084,-0.937 0.6440003,-1.669 1.5770003,-1.585 0.934,0.085 1.258,1.025 1.173,1.96 -0.085,0.934 0.147,3.562 -1.715,4.016 -0.9120003,0.221 -1.1210003,-3.46 -1.0350003,-4.391 z m 19.2230003,-10.832 c -0.068,0.639 0.543,1.228 1.367,1.315 0.824,0.089 1.547,-0.357 1.615,-0.995 0.068,-0.639 -0.544,-1.227 -1.367,-1.314 -0.824,-0.089 -1.547,0.356 -1.615,0.994 z m -2.087,2.717 c -0.125,0.818 1.757,2.544 2.575,2.669 0.819,0.125 1.584,-0.438 1.709,-1.257 0.125,-0.819 -0.58,-1.14 -1.398,-1.265 -0.819,-0.124 -2.761,-0.965 -2.886,-0.147 z m -1.783,2.104 c -0.173,0.81 1.628,3.927 2.438,4.1 0.81,0.173 1.644,0.146 1.816,-0.665 0.174,-0.81 -0.305,-1.688 -1.115,-1.861 -0.81,-0.174 -2.966,-2.384 -3.139,-1.574 z m -3.853,0.858 c -0.166,0.811 1.338,4.354 2.149,4.519 0.812,0.165 1.438,0.451 1.604,-0.36 0.164,-0.812 -0.262,-1.975 -1.007,-2.58 -0.642,-0.523 -2.582,-2.39 -2.746,-1.579 z"
     id="path6"
     inkscape:connector-curvature="0"
     style="fill:#a0041e" />
  <path
     d="m 31.974949,18.567577 c -0.607,0.715 -1.18,1.23 -0.465,1.835 0.716,0.606 1.747,0.162 2.354,-0.554 0.605,-0.715 2.239,-3.42 1.523,-4.025 -0.715,-0.606 -2.807,2.029 -3.412,2.744 z m -0.33,4.88 c -0.892,0.295 -1.857,0.801 -1.562,1.691 0.293,0.891 1.328,0.991 2.219,0.698 0.889,-0.295 3.771,-1.691 3.477,-2.581 -0.294,-0.89 -3.244,-0.102 -4.134,0.192 z m -1.215,4.532 c -0.904,-0.253 -1.906,-0.283 -2.158,0.619 -0.252,0.903 0.282,1.535 1.185,1.787 0.902,0.251 4.343,0.727 4.594,-0.177 0.252,-0.904 -2.717,-1.979 -3.621,-2.229 z m -4.347,3.188 c -0.084,-0.937 -0.645,-1.669 -1.577,-1.585 -0.935,0.085 -1.258,1.025 -1.173,1.96 0.084,0.934 -0.147,3.562 1.715,4.016 0.912,0.221 1.121,-3.46 1.035,-4.391 z m -23.0350003,-17.591 c -0.383,-0.856 10e-4,-1.86 0.857,-2.242 0.856,-0.383 1.86,0.002 2.243,0.858 0.381,0.855 2.651,5.612 1.795,5.994 -0.855,0.382 -4.513,-3.755 -4.895,-4.61 z"
     id="path8"
     inkscape:connector-curvature="0"
     style="fill:#a0041e" />
  <path
     d="m 3.8939487,11.732577 c 1.221,2.956 8.3410003,-3.3409997 8.8030003,-6.2809997 0.462,-2.939 -0.308,-4.201 -0.694,-4.50000002 -0.386,-0.299 0.144,1.43500002 -1.187,3.30600002 -1.0530003,1.482 -7.7660003,5.434 -6.9220003,7.4749997 z m 28.8580003,1.844 c 0.384,-0.856 -0.001,-1.86 -0.857,-2.242 -0.857,-0.383 -1.861,0.002 -2.244,0.858 -0.381,0.855 -2.65,5.612 -1.794,5.994 0.855,0.382 4.513,-3.755 4.895,-4.61 z"
     id="path10"
     inkscape:connector-curvature="0"
     style="fill:#a0041e" />
  <path
     d="m 31.906949,11.732577 c -1.222,2.956 -8.341,-3.3409997 -8.804,-6.2809997 -0.461,-2.939 0.309,-4.201 0.694,-4.50000002 0.386,-0.299 -0.144,1.43500002 1.187,3.30600002 1.054,1.482 7.766,5.434 6.923,7.4749997 z"
     id="path12"
     inkscape:connector-curvature="0"
     style="fill:#a0041e" />
  <path
     d="m 5.8999487,21.698577 c 0,-2 2,-10 12.0000003,-10 10,0 12,8 12,10 -5,3 -5.373,7 -12,7 -6.627,0 -6,-4 -12.0000003,-7 z m -1.677,-9.777 c -3.153,0.543 -0.358,-8.1409997 1.883,-10.0989997 2.24,-1.95800002 4.6570003,-1.91700002 5.1150003,-1.75000002 0.458,0.167 -1.174,2.59500002 -1.7500003,4.17800002 -0.293,0.803 -3.072,7.2959997 -5.248,7.6709997 z m 27.3540003,0 c 3.152,0.543 0.358,-8.1409997 -1.882,-10.0989997 -2.24,-1.95800002 -4.656,-1.91700002 -5.115,-1.75000002 -0.459,0.167 1.174,2.59500002 1.75,4.17800002 0.293,0.803 3.071,7.2959997 5.247,7.6709997 z"
     id="path14"
     inkscape:connector-curvature="0"
     style="fill:#be1931" />
  <path
     d="m 16.931949,11.834577 c 0.335,1.339 -0.045,1.588 -0.849,1.789 -0.804,0.201 -1.727,0.278 -2.061,-1.061 -0.335,-1.339 0.045,-2.5879997 0.849,-2.7889997 0.803,-0.201 1.726,0.7209997 2.061,2.0609997 z m 4.846,0.728 c -0.335,1.34 -1.258,1.262 -2.061,1.061 -0.804,-0.201 -1.184,-0.45 -0.849,-1.789 0.335,-1.34 1.258,-2.2619997 2.062,-2.0609997 0.803,0.2 1.183,1.4489997 0.848,2.7889997 z"
     id="path16"
     inkscape:connector-curvature="0"
     style="fill:#a0041e" />
  <circle
     cx="14.399949"
     cy="9.1985769"
     r="1.5"
     id="circle18"
     style="fill:#292f33" />
  <circle
     cx="21.399948"
     cy="9.1985769"
     r="1.5"
     id="circle20"
     style="fill:#292f33" />
  <path
     d="m 8.9529487,21.227577 c -0.14,0.236 -3.053,0.732 -2.303,-0.731 0.75,-1.463 2.443,0.497 2.303,0.731 z"
     id="path22"
     inkscape:connector-curvature="0"
     style="fill:#dd2e44" />
  <path
     d="m 9.7909487,19.822577 c -0.218,0.225 -3.188,0.391 -1.922,-1.404 1.265,-1.793 2.2340003,1.082 1.922,1.404 z"
     id="path24"
     inkscape:connector-curvature="0"
     style="fill:#dd2e44" />
  <path
     d="m 11.556949,18.358577 c -0.378,0.231 -3.4710003,-0.501 -1.407,-1.932 1.872,-1.296 1.906,1.626 1.407,1.932 z"
     id="path26"
     inkscape:connector-curvature="0"
     style="fill:#dd2e44" />
  <path
     d="m 14.001949,17.125577 c -1.008,0.299 -3.378,-1.302 -0.881,-2.141 2.498,-0.839 1.889,1.842 0.881,2.141 z m 12.754,4.102 c 0.141,0.235 3.053,0.731 2.303,-0.731 -0.75,-1.463 -2.443,0.497 -2.303,0.731 z"
     id="path28"
     inkscape:connector-curvature="0"
     style="fill:#dd2e44" />
  <path
     d="m 25.918949,19.822577 c 0.218,0.225 3.188,0.391 1.922,-1.404 -1.266,-1.793 -2.235,1.082 -1.922,1.404 z"
     id="path30"
     inkscape:connector-curvature="0"
     style="fill:#dd2e44" />
  <path
     d="m 24.152949,18.358577 c 0.378,0.231 3.471,-0.501 1.406,-1.932 -1.872,-1.296 -1.906,1.626 -1.406,1.932 z"
     id="path32"
     inkscape:connector-curvature="0"
     style="fill:#dd2e44" />
  <path
     d="m 21.707949,17.125577 c 1.008,0.299 3.378,-1.302 0.881,-2.141 -2.499,-0.839 -1.89,1.842 -0.881,2.141 z"
     id="path34"
     inkscape:connector-curvature="0"
     style="fill:#dd2e44" />
  <path
     d="m 26.748949,15.948577 c 0,0.414 -2.189,-2.25 -8.849,-2.25 -6.661,0 -8.8480003,2.664 -8.8480003,2.25 0,-0.414 2.7540003,-3.75 8.8480003,-3.75 6.094,0 8.849,3.336 8.849,3.75 z"
     id="path36"
     inkscape:connector-curvature="0"
     style="fill:#a0041e" />
  <path
     d="m 10.692949,24.131577 c 0,-0.414 1.782,2.25 7.207,2.25 5.425,0 7.208,-2.664 7.208,-2.25 0,0.414 -2.244,3.75 -7.208,3.75 -4.964,0 -7.207,-3.336 -7.207,-3.75 z"
     id="path38"
     inkscape:connector-curvature="0"
     style="fill:#dd2e44" />
</svg>
