<?xml version="1.0" encoding="UTF-8" standalone="no"?>
<svg
   xmlns:dc="http://purl.org/dc/elements/1.1/"
   xmlns:cc="http://creativecommons.org/ns#"
   xmlns:rdf="http://www.w3.org/1999/02/22-rdf-syntax-ns#"
   xmlns:svg="http://www.w3.org/2000/svg"
   xmlns="http://www.w3.org/2000/svg"
   xmlns:sodipodi="http://sodipodi.sourceforge.net/DTD/sodipodi-0.dtd"
   xmlns:inkscape="http://www.inkscape.org/namespaces/inkscape"
   viewBox="0 0 35.773144 22.586622"
   id="svg2"
   version="1.1"
   inkscape:version="0.91 r13725"
   sodipodi:docname="1f99b.svg"
   width="35.773144"
   height="22.586622">
  <metadata
     id="metadata22">
    <rdf:RDF>
      <cc:Work
         rdf:about="">
        <dc:format>image/svg+xml</dc:format>
        <dc:type
           rdf:resource="http://purl.org/dc/dcmitype/StillImage" />
      </cc:Work>
    </rdf:RDF>
  </metadata>
  <defs
     id="defs20" />
  <sodipodi:namedview
     pagecolor="#ffffff"
     bordercolor="#666666"
     borderopacity="1"
     objecttolerance="10"
     gridtolerance="10"
     guidetolerance="10"
     inkscape:pageopacity="0"
     inkscape:pageshadow="2"
     inkscape:window-width="640"
     inkscape:window-height="480"
     id="namedview18"
     showgrid="false"
     inkscape:zoom="6.5555556"
     inkscape:cx="17.773142"
     inkscape:cy="18"
     inkscape:window-x="0"
     inkscape:window-y="0"
     inkscape:window-maximized="0"
     inkscape:current-layer="svg2" />
  <path
     d="m 12.773142,2.2756231 c 1.945,-0.886 7.032,-0.006 8.304,-0.048 3.861,-0.127 6.58,-1.30500002 10.332,0 3.752,1.305 4.364,4.686 4.364,8.3589999 0,0.816 -0.465,-0.8999999 -1.008,-1.6619999 0,0 0.451,3.6429999 -0.854,6.2529999 -0.664,1.328 -1.631,2.557 -1.631,3.753 -10e-4,1.197 0.493,1.78 0.493,2.656 0,0.892 -1,0.98 -2,0.98 -0.926,0 -3,0.02 -3,-0.98 0,-1.423 0.385,-2.394 -0.312,-2.083 -1.729,0.771 -6.146,0.5 -7.771,-0.167 -0.766,-0.314 -0.43,1.598 -0.428,1.932 0.01,1.113 -0.489,1.318 -2.489,1.318 -1.741,0 -3,-0.012 -3,-1 0,-0.988 0.919,-2.179 0.281,-3.781 -1.281,-3.219 -3.281,-0.219 -6.2819996,-0.219 -2.968,0 5.0009996,-15.3109999 5.0009996,-15.3109999 z"
     id="path4"
     inkscape:connector-curvature="0"
     style="fill:#99aab5" />
  <path
     d="m 3.0631424,6.5866231 c 0,0 3.045,-0.326 3.915,-1.305 0.87,-0.979 2.556,-3.535 5.2749996,-3.535 2.719,0 3.045,1.577 4.024,2.066 0.978,0.49 2.91,3.653 1.496,5.774 -1.414,2.1209999 -6,7.9999999 -9.9999996,7.9999999 -4.84,0 -5.485,-0.764 -6.281,-1.375 -0.79199997,-0.607 -1.05099997,-2.042 -0.344,-2.531 0,0 -1.31199997,-1 -1.13099997,-3.287 0.185,-2.3309999 0.707,-2.6099999 0.707,-2.6099999 0,0 0.109,-0.924 0.65299997,-1.359 0.544,-0.436 1.686,0.162 1.686,0.162 z"
     id="path6"
     inkscape:connector-curvature="0"
     style="fill:#9aaab4" />
  <path
     d="m 2.4641424,16.236623 c 0.629,0.132 0.992,-0.253 0.777,-1.4 -0.657,0.047 -1.663,-0.816 -1.663,-0.816 -0.327,1.268 0.012,2.032 0.886,2.216 z"
     id="path8"
     inkscape:connector-curvature="0"
     style="fill:#f5f8fa" />
  <path
     d="m 4.3741424,15.504623 c -1.148,0 -2.333,-0.432 -3.327,-1.279 -0.15699997,-0.135 -0.17599997,-0.371 -0.042,-0.528 0.135,-0.157 0.372,-0.177 0.529,-0.042 1.306,1.115 3.371,1.657 5.039,0.354 0.497,-0.388 0.958,-1.104 1.446,-1.861 0.912,-1.416 1.945,-3.0329999 3.6019996,-2.8619999 0.207,0.02 0.357,0.203 0.337,0.409 -0.02,0.205 -0.205,0.3529999 -0.409,0.3369999 -1.212,-0.1269999 -2.0659996,1.226 -2.8999996,2.522 -0.523,0.812 -1.017,1.58 -1.614,2.047 -0.774,0.604 -1.705,0.903 -2.661,0.903 z"
     id="path10"
     inkscape:connector-curvature="0"
     style="fill:#67757f" />
  <path
     d="m 1.5861424,7.3266231 c 0.611,-0.543 1.694,0.891 1.318,1.374 -0.535,0.687 -2.30799997,-0.494 -1.318,-1.374 z"
     id="path12"
     inkscape:connector-curvature="0"
     style="fill:#66757f" />
  <circle
     cx="9.7731428"
     cy="5.0866232"
     r="1"
     id="circle14"
     style="fill:#292f33" />
  <path
     d="m 8.0111424,1.4756231 c 0.095,-1.09000002 1.794,-0.65300002 2.1749996,0.979 0.381,1.632 -0.4199996,1.168 -0.6529996,0.598 -0.489,-1.197 -1.631,-0.327 -1.522,-1.577 z m 4.0619996,0.598 c 0.258,-0.84 1.142,-1.95800002 2.338,-2.06600002 1.196,-0.109 1.523,0.979 1.088,1.46800002 -0.435,0.489 -0.979,0.163 -1.305,0.109 -0.326,-0.054 -1.088,0.489 -1.414,0.979 -0.326,0.489 -0.924,0.217 -0.707,-0.49 z"
     id="path16"
     inkscape:connector-curvature="0"
     style="fill:#9aaab4" />
</svg>
