<?xml version="1.0" encoding="UTF-8" standalone="no"?>
<svg
   xmlns:dc="http://purl.org/dc/elements/1.1/"
   xmlns:cc="http://creativecommons.org/ns#"
   xmlns:rdf="http://www.w3.org/1999/02/22-rdf-syntax-ns#"
   xmlns:svg="http://www.w3.org/2000/svg"
   xmlns="http://www.w3.org/2000/svg"
   xmlns:sodipodi="http://sodipodi.sourceforge.net/DTD/sodipodi-0.dtd"
   xmlns:inkscape="http://www.inkscape.org/namespaces/inkscape"
   viewBox="0 0 34.90366 36"
   id="svg2"
   version="1.1"
   inkscape:version="0.91 r13725"
   sodipodi:docname="1f99f.svg"
   width="34.90366"
   height="36">
  <metadata
     id="metadata32">
    <rdf:RDF>
      <cc:Work
         rdf:about="">
        <dc:format>image/svg+xml</dc:format>
        <dc:type
           rdf:resource="http://purl.org/dc/dcmitype/StillImage" />
      </cc:Work>
    </rdf:RDF>
  </metadata>
  <defs
     id="defs30" />
  <sodipodi:namedview
     pagecolor="#ffffff"
     bordercolor="#666666"
     borderopacity="1"
     objecttolerance="10"
     gridtolerance="10"
     guidetolerance="10"
     inkscape:pageopacity="0"
     inkscape:pageshadow="2"
     inkscape:window-width="640"
     inkscape:window-height="480"
     id="namedview28"
     showgrid="false"
     inkscape:zoom="6.5555556"
     inkscape:cx="17.44833"
     inkscape:cy="18"
     inkscape:window-x="0"
     inkscape:window-y="0"
     inkscape:window-maximized="0"
     inkscape:current-layer="svg2" />
  <path
     d="m 14.69333,11 c -2.036,0 -4.296,-0.088 -5.3539998,-1.146 -0.585,-0.586 -0.361,-1.687 -0.124,-2.852 0.152,-0.75 0.383,-1.883 0.12,-2.153 -0.205,-0.209 -1.078,-0.664 -1.849,-1.065 -1.187,-0.617 -2.533,-1.317 -3.147,-1.93 -0.195,-0.195 -0.195,-0.512 0,-0.707 0.195,-0.195 0.512,-0.195 0.707,0 0.505,0.505 1.833,1.195 2.901,1.75 1.108,0.576 1.802,0.945 2.1039998,1.254 0.633,0.649 0.396,1.815 0.145,3.05 -0.133,0.651 -0.3539998,1.74 -0.149,1.945 0.853,0.854 3.415,0.854 4.646,0.854 0.276,0 0.5,0.224 0.5,0.5 0,0.276 -0.224,0.5 -0.5,0.5 z M 0.69233023,26 c -0.075,0 -0.151,-0.017 -0.223,-0.053 -0.247,-0.124 -0.347,-0.424 -0.224,-0.671 0.89599997,-1.791 3.21799997,-3.082 4.46499997,-3.775 0.315,-0.176 0.559,-0.308 0.679,-0.398 0.079,-0.15 0.215,-1.123 0.325,-1.904 0.284,-2.025 0.605,-4.32 1.685,-5.103 C 10.31633,11.979 15.10933,12.004 15.58733,12.597 l 0.298,0.371 -0.36,0.351 c -0.191,0.17 -0.479,0.166 -0.666,-0.001 -0.759,-0.146 -4.4,-0.206 -6.8729998,1.588 -0.735,0.533 -1.064,2.88 -1.281,4.432 -0.226,1.608 -0.332,2.273 -0.709,2.561 -0.159,0.121 -0.428,0.271 -0.799,0.478 -1.153,0.641 -3.299,1.834 -4.057,3.349 C 1.0523302,25.898 0.87633023,26 0.69233023,26 Z"
     id="path4"
     inkscape:connector-curvature="0"
     style="fill:#31373d" />
  <path
     d="m 4.6933302,36 c -0.184,0 -0.36,-0.102 -0.448,-0.276 -0.124,-0.247 -0.023,-0.547 0.224,-0.671 0.582,-0.365 4.724,-5.776 4.724,-7.553 0,-1.126 -0.343,-2.984 -0.619,-4.478 -0.213,-1.152 -0.381,-2.062 -0.381,-2.522 0,-1.315 4.2869998,-5.524 6.2899998,-6.454 0.25,-0.116 0.548,-0.007 0.664,0.243 0.116,0.25 0.007,0.548 -0.243,0.664 -1.926,0.894 -5.6289998,4.774 -5.7109998,5.553 0,0.361 0.177,1.319 0.365,2.334 0.283,1.533 0.6359998,3.441 0.6359998,4.659 0,2.146 -4.3549998,7.986 -5.2759998,8.447 -0.074,0.037 -0.15,0.054 -0.225,0.054 z M 20.20333,11 c -0.276,0 -0.5,-0.224 -0.5,-0.5 0,-0.276 0.224,-0.5 0.5,-0.5 1.231,0 3.793,0 4.646,-0.854 0.206,-0.206 -0.016,-1.295 -0.148,-1.946 -0.251,-1.235 -0.488,-2.401 0.144,-3.05 0.302,-0.309 0.996,-0.678 2.104,-1.254 1.067,-0.555 2.396,-1.246 2.9,-1.75 0.195,-0.195 0.512,-0.195 0.707,0 0.195,0.195 0.195,0.512 0,0.707 -0.613,0.614 -1.959,1.313 -3.146,1.931 -0.771,0.401 -1.645,0.855 -1.85,1.065 -0.263,0.27 -0.032,1.402 0.12,2.152 0.237,1.166 0.462,2.267 -0.124,2.853 -1.057,1.058 -3.318,1.146 -5.353,1.146 z m 14,15 c -0.183,0 -0.359,-0.102 -0.447,-0.276 -0.757,-1.515 -2.903,-2.708 -4.058,-3.35 -0.371,-0.206 -0.64,-0.355 -0.798,-0.477 -0.377,-0.288 -0.483,-0.951 -0.709,-2.559 -0.218,-1.553 -0.546,-3.9 -1.282,-4.434 -2.471,-1.793 -6.112,-1.734 -6.873,-1.587 -0.187,0.167 -0.474,0.171 -0.666,0 -0.198,-0.177 -0.228,-0.514 -0.061,-0.721 0.476,-0.595 5.272,-0.617 8.188,1.499 1.079,0.783 1.401,3.079 1.685,5.105 0.109,0.78 0.246,1.752 0.374,1.951 0.07,0.042 0.313,0.174 0.629,0.349 1.248,0.694 3.57,1.985 4.466,3.776 0.123,0.247 0.023,0.548 -0.224,0.671 -0.073,0.036 -0.149,0.053 -0.224,0.053 z"
     id="path6"
     inkscape:connector-curvature="0"
     style="fill:#31373d" />
  <path
     d="m 30.19233,35.998 c -0.071,0 -0.144,-0.017 -0.213,-0.051 -0.922,-0.462 -5.276,-6.301 -5.276,-8.447 0,-1.218 0.353,-3.126 0.636,-4.659 0.188,-1.015 0.364,-1.973 0.364,-2.341 -0.081,-0.772 -3.784,-4.652 -5.711,-5.546 -0.25,-0.116 -0.358,-0.414 -0.242,-0.664 0.115,-0.251 0.413,-0.359 0.664,-0.243 2.002,0.929 6.289,5.138 6.289,6.454 0,0.46 -0.168,1.37 -0.381,2.522 -0.275,1.493 -0.619,3.352 -0.619,4.478 0,1.775 4.143,7.188 4.734,7.559 0.227,0.142 0.316,0.445 0.186,0.678 -0.092,0.163 -0.258,0.26 -0.431,0.26 z"
     id="path8"
     inkscape:connector-curvature="0"
     style="fill:#31373d" />
  <circle
     cx="14.44833"
     cy="7"
     r="1"
     id="circle10" />
  <circle
     cx="20.44833"
     cy="7"
     r="1"
     id="circle12" />
  <path
     d="m 16.44833,6 c 0,0 0.438,-6 1,-6 0.562,0 1,6 1,6 l -2,0 z"
     id="path14"
     inkscape:connector-curvature="0"
     style="fill:#66757f" />
  <path
     d="m 20.44833,8 c 0,1.657 -1.757,2 -3,2 -1.243,0 -3,-0.343 -3,-2 0,-1.657 1.757,-3 3,-3 1.243,0 3,1.343 3,3 z m 2,14 c 0,2.761 -2.239,10 -5,10 -2.761,0 -5,-7.239 -5,-10 0,-2.761 2.239,-8 5,-8 2.761,0 5,5.239 5,8 z"
     id="path16"
     inkscape:connector-curvature="0"
     style="fill:#66757f" />
  <ellipse
     cx="17.44833"
     cy="12.5"
     rx="4"
     ry="3.5"
     id="ellipse18"
     style="fill:#66757f" />
  <path
     d="m 19.44833,11 c 0,0 13,2 15,3 2,1 -3,4 -7,3 -4.947,-1.237 -10,-6 -8,-6 z"
     id="path20"
     inkscape:connector-curvature="0"
     style="fill:#ccd6dd" />
  <path
     d="m 19.44833,11 c 0,0 13,2 15,3 2,1 -3,1 -7,0 -4.947,-1.237 -10,-3 -8,-3 z"
     id="path22"
     inkscape:connector-curvature="0"
     style="fill:#e1e8ed" />
  <path
     d="m 15.45533,11 c 0,0 -12.9999998,2 -14.99999977,3 C -1.5446698,15 3.4553302,18 7.4553302,17 12.40233,15.763 17.45533,11 15.45533,11 Z"
     id="path24"
     inkscape:connector-curvature="0"
     style="fill:#ccd6dd" />
  <path
     d="m 15.45533,11 c 0,0 -12.9999998,2 -14.99999977,3 C -1.5446698,15 3.4553302,15 7.4553302,14 12.40233,12.763 17.45533,11 15.45533,11 Z"
     id="path26"
     inkscape:connector-curvature="0"
     style="fill:#e1e8ed" />
</svg>
