<?xml version="1.0" encoding="UTF-8" standalone="no"?>
<svg
   xmlns:dc="http://purl.org/dc/elements/1.1/"
   xmlns:cc="http://creativecommons.org/ns#"
   xmlns:rdf="http://www.w3.org/1999/02/22-rdf-syntax-ns#"
   xmlns:svg="http://www.w3.org/2000/svg"
   xmlns="http://www.w3.org/2000/svg"
   xmlns:sodipodi="http://sodipodi.sourceforge.net/DTD/sodipodi-0.dtd"
   xmlns:inkscape="http://www.inkscape.org/namespaces/inkscape"
   viewBox="0 0 35.363209 35.865501"
   id="svg2"
   version="1.1"
   inkscape:version="0.91 r13725"
   sodipodi:docname="1f993.svg"
   width="35.363209"
   height="35.865501">
  <metadata
     id="metadata30">
    <rdf:RDF>
      <cc:Work
         rdf:about="">
        <dc:format>image/svg+xml</dc:format>
        <dc:type
           rdf:resource="http://purl.org/dc/dcmitype/StillImage" />
      </cc:Work>
    </rdf:RDF>
  </metadata>
  <defs
     id="defs28" />
  <sodipodi:namedview
     pagecolor="#ffffff"
     bordercolor="#666666"
     borderopacity="1"
     objecttolerance="10"
     gridtolerance="10"
     guidetolerance="10"
     inkscape:pageopacity="0"
     inkscape:pageshadow="2"
     inkscape:window-width="640"
     inkscape:window-height="480"
     id="namedview26"
     showgrid="false"
     inkscape:zoom="6.5555556"
     inkscape:cx="17.363208"
     inkscape:cy="18"
     inkscape:window-x="0"
     inkscape:window-y="0"
     inkscape:window-maximized="0"
     inkscape:current-layer="svg2" />
  <path
     d="m 22.646208,23.140502 c 0,0 1.374,1.635 2.733,10.047 0.143,0.883 0.201,1.775 0.217,2.678 l 9.767,0 0,-28.5520003 c -4.387,-3.473 -10.399,-4.189 -17.678,-1.758 0,0 -5.408,-3 -6.147,-3.739 -0.719,-0.72 -1.8569998,-1.55600003 -1.235,0.35 0.364,1.112 0.764,2.373 2.358,4.862 -3.4359998,2.036 -4.5129998,4.6800003 -8.5579998,13.3410003 -3.088,6.616 -4.65999995,8.765 -3.80299995,11.293 1.12999995,3.337 5.31599995,5.595 8.84399995,3.021 1.9189998,-1.4 2.2459998,-3.913 6.2249998,-6.223 3.653,-0.065 7.277,-1.604 7.277,-5.32 z"
     id="path4"
     inkscape:connector-curvature="0"
     style="fill:#e1e8ed" />
  <path
     d="m 35.363208,5.8775017 c -8.335,-5.71100003 -21.646,-4.539 -20.091,0.178 9.601,-1.862 15.861,1.541 20.091,7.1680003 l 0,-7.3460003 z"
     id="path6"
     inkscape:connector-curvature="0"
     style="fill:#292f33" />
  <path
     d="m 19.026208,5.6285017 c -2.878,0.233 -7.28,1.765 -9.4199998,4.137 0,0 -0.005,-5.317 3.6889998,-5.784 6.172,-0.779 5.809,0.363 5.809,0.363 l -0.078,1.284 z"
     id="path8"
     inkscape:connector-curvature="0"
     style="fill:#292f33" />
  <path
     d="m 15.720208,0.92150167 c 0.558,1.15500003 4.006,1.79000003 5.056,6.02900003 1.051,4.2400003 -3.134,2.951 -4.356,0.855 -1.361,-2.334 -1.828,-4.162 -1.867,-5.679 -0.021,-0.801 0.039,-3.538 1.167,-1.20500003 z"
     id="path10"
     inkscape:connector-curvature="0"
     style="fill:#e1e8ed" />
  <path
     d="m 15.959208,2.7035017 c 1.103,0.968 2.448,2.472 2.65,3.955 0.202,1.483 -1.125,0.988 -1.736,-0.372 -0.612,-1.359 -0.753,-2.779 -1.134,-3.233 -0.38,-0.454 0.22,-0.35 0.22,-0.35 z"
     id="path12"
     inkscape:connector-curvature="0"
     style="fill:#66757f" />
  <path
     d="m 16.303208,15.390502 c 0,0.687 -0.557,1.244 -1.245,1.244 -0.687,0 -1.244,-0.557 -1.244,-1.244 0,-0.688 0.557,-1.245 1.244,-1.245 0.688,10e-4 1.245,0.558 1.245,1.245 z"
     id="path14"
     inkscape:connector-curvature="0"
     style="fill:#292f33" />
  <path
     d="m 9.7172082,9.7895017 c -0.033,-0.017 -0.075,-0.014 -0.111,-0.024 -1.543,2.0330003 -2.92,5.1020003 -5.49,10.6040003 -1.356,2.903 -2.42,4.946 -3.116,6.538 1.628,0.226 3.285,-1.442 3.945,-3.271 0.673,-1.866 3.215,-5.652 4.927,-7.778 1.7119998,-2.127 1.5609998,-5.144 -0.155,-6.0690003 z"
     id="path16"
     inkscape:connector-curvature="0"
     style="fill:#e1e8ed" />
  <path
     d="m 27.551208,6.1775017 c 0,0 -2.296,6.9470003 -2.302,8.9470003 -0.011,3.803 -2.687,7.801 -2.687,7.801 l 1.342,3.422 c 0,0 3.25,-3.04 3.938,-10.228 0.571,-5.973 2.566,-7.6670003 2.566,-7.6670003 l -2.857,-2.275 z m 5.874,3.126 c 0,0 -3.006,3.6350003 -4.062,9.5620003 -1.438,8.062 -4.857,9.746 -4.857,9.746 l 0.482,2.441 c 0,0 5.281,-3.056 6.632,-9.115 1.618,-7.26 3.743,-8.714 3.743,-8.714 l -1.938,-3.9200003 z M 2.6132082,23.303502 c 0.688,-0.714 3.017,3.808 4.53,4.884 1.589,1.13 5.4689998,0.935 5.7009998,2.162 -1.668,1.704 -2.763,4.273 -4.8399998,4.988 -2.078,0.716 -5.71,0.677 -7.23799995,-2.647 -1.528,-3.325 -0.403,-4.7 0.222,-6.137 0.62499995,-1.437 1.45799995,-2.938 1.62499995,-3.25 z"
     id="path18"
     inkscape:connector-curvature="0"
     style="fill:#292f33" />
  <path
     d="m 3.5852082,29.782502 c 0,0.881 -0.532,1.594 -1.187,1.594 -0.655,0 -1.187,-0.713 -1.187,-1.594 0,-0.882 0.532,-1.596 1.187,-1.596 0.655,0 1.187,0.714 1.187,1.596 z"
     id="path20"
     inkscape:connector-curvature="0"
     style="fill:#66757f" />
  <path
     d="m 25.317208,32.810502 c 0,0 4.608,-1.57 6.108,-3.383 1.5,-1.813 3.938,-5.562 3.938,-5.562 l 0,6.375 c 0,0 -1.188,1.625 -3.688,2.938 -1.586,0.832 -6.092,2.251 -6.092,2.251 l -0.266,-2.619 z m -0.944,-26.8650003 c 0,0 -0.947,2.92 -1.197,5.9200003 -0.25,3 -1.125,4.875 -1.938,6.188 0.312,-4.25 -0.688,-5.875 -0.125,-8.1250003 0.563,-2.25 0.87,-4.32 0.87,-4.32 0,0 0.63,-0.368 1.255,-0.305 0.625,0.063 1.135,0.642 1.135,0.642 z M 4.1162082,20.369502 c 0,0 3.934,-0.379 5.747,0.871 1.8129998,1.25 5.3319998,7.323 5.3319998,7.323 l -1.134,0.753 c 0,0 -1.697,-4.639 -4.7599998,-6.076 -3.063,-1.437 -6,-1.188 -6,-1.188 l 0.815,-1.683 z"
     id="path22"
     inkscape:connector-curvature="0"
     style="fill:#292f33" />
  <path
     d="m 4.9682082,18.543502 c 0,0 5.5159998,-0.358 6.9579998,1.509 2.75,3.562 3.831,5.01 4.447,8.349 l 1.785,-0.307 c -0.794,-2.917 -2.607,-8.104 -5.919,-10.292 -3.3119998,-2.188 -6.2499998,-1.688 -6.2499998,-1.688 l -1.021,2.429 z m 12.2699998,-5.99 c -0.625,0.688 2,3.312 1.125,5.5 -0.875,2.188 -0.375,5.25 0.125,6.625 0.5,1.375 1.26,2.839 1.26,2.839 l 1.622,-1.146 c 0,0 -0.257,-1.506 -1.007,-3.693 -0.75,-2.187 -0.688,-2.25 -0.375,-4.438 0.313,-2.188 -2.125,-6.375 -2.75,-5.687 z m -2.83,-5.8590003 c 0,0 1.142,2.046 1.08,3.046 -0.062,1.0000003 -0.062,2.6880003 -0.625,3.0620003 -0.563,0.374 -0.812,-2 -1.188,-3.0620003 -0.376,-1.062 -1.064,-2.258 -1.064,-2.258 0,0 1.469,-1.428 1.797,-0.788 z m -3.544,1.79 c 0,0 1.793,1.398 1.73,2.3980003 -0.063,1 1.144,2.607 0.581,2.982 -0.563,0.375 -1.938,-1.25 -2.312,-2.312 -0.374,-1.062 -1.2569998,-1.7870003 -1.2569998,-1.7870003 0,0 0.9289998,-1.921 1.2579998,-1.281 z M 8.3012082,11.677502 c 0,0 1.522,0.981 1.9379998,1.75 0.415,0.768 2.11,1.387 1.938,1.875 -0.173,0.488 -1.977,-0.098 -2.6879998,-0.75 -0.711,-0.652 -2.345,-0.579 -2.345,-0.579 l 1.157,-2.296 z"
     id="path24"
     inkscape:connector-curvature="0"
     style="fill:#292f33" />
</svg>
