<?xml version="1.0" encoding="UTF-8" standalone="no"?>
<svg
   xmlns:dc="http://purl.org/dc/elements/1.1/"
   xmlns:cc="http://creativecommons.org/ns#"
   xmlns:rdf="http://www.w3.org/1999/02/22-rdf-syntax-ns#"
   xmlns:svg="http://www.w3.org/2000/svg"
   xmlns="http://www.w3.org/2000/svg"
   xmlns:sodipodi="http://sodipodi.sourceforge.net/DTD/sodipodi-0.dtd"
   xmlns:inkscape="http://www.inkscape.org/namespaces/inkscape"
   viewBox="0 0 33.610905 35.823029"
   id="svg2"
   version="1.1"
   inkscape:version="0.91 r13725"
   sodipodi:docname="1f995.svg"
   width="33.610905"
   height="35.823029">
  <metadata
     id="metadata16">
    <rdf:RDF>
      <cc:Work
         rdf:about="">
        <dc:format>image/svg+xml</dc:format>
        <dc:type
           rdf:resource="http://purl.org/dc/dcmitype/StillImage" />
      </cc:Work>
    </rdf:RDF>
  </metadata>
  <defs
     id="defs14" />
  <sodipodi:namedview
     pagecolor="#ffffff"
     bordercolor="#666666"
     borderopacity="1"
     objecttolerance="10"
     gridtolerance="10"
     guidetolerance="10"
     inkscape:pageopacity="0"
     inkscape:pageshadow="2"
     inkscape:window-width="640"
     inkscape:window-height="480"
     id="namedview12"
     showgrid="false"
     inkscape:zoom="6.5555556"
     inkscape:cx="16.191519"
     inkscape:cy="18.000271"
     inkscape:window-x="0"
     inkscape:window-y="0"
     inkscape:window-maximized="0"
     inkscape:current-layer="svg2" />
  <path
     d="m 15.871519,21.822757 c 0,0 1.937,7.873 1.187,9.373 -2.373,4.746 -1.187,4.627 0,4.627 l 2.373,0 c 2.373,0 -1.187,-14 -1.187,-14 l -2.373,0 z m -12.4250003,-2.613 c 0,0 -0.436,7.993 -1.187,9.493 -2.37299996,4.746 -2.37299996,7.12 -1.186,7.12 l 2.373,0 c 1.186,0 1.187,-4.154 1.187,-5.34 0,-1.187 1.187,-8.603 1.187,-8.603 l -2.374,-2.67 z"
     id="path4"
     inkscape:connector-curvature="0"
     style="fill:#3e721d" />
  <path
     d="m 10.565519,5.0737567 c -2.0680003,0.017 -4.2090003,-0.435 -5.5230003,2.099 -1.404,2.709 -2.065,8.5790003 0.776,9.6640003 2.479,0.947 7.9330003,-1.187 13.8660003,1.187 5.933,2.373 8.306,16.612 13.015,16.63 1.224,0.005 1.206,1.123 10e-4,1.132 -5.914,0.045 -8.509,-5.897 -9.509,-5.897 0,0 1,5.934 0,5.934 l -4,0 c -1,0 0,-3.081 0,-4.268 l 0,-1.667 c 0,0 -1.593,1.218 -5.936,1.218 -3.2830003,0.001 -6.0640003,-1.217 -6.0640003,-1.217 0,0 1,5.934 0,5.934 l -3.745,0 c -1.678,0 0.166,-4.013 0,-5.934 -0.102,-1.182 -0.51,-4.757 -1.224,-5.933 -1.72599996,-2.847 -2.76299996,-11.521 -1.92899996,-15.2850003 0.78099996,-3.526 3.12199996,-6.633 4.67499996,-7.51 1.519,-0.85900005 2.863,-1.50000005 6.1910003,-0.96500005 1.775,0.285 3.591,2.92200005 2.89,4.27400005 -0.421,0.81 -1.94,0.591 -3.484,0.604 z"
     id="path6"
     inkscape:connector-curvature="0"
     style="fill:#77b255" />
  <path
     d="m 11.158519,2.0037567 c 0,0.328 -0.265,0.593 -0.593,0.593 -0.328,0 -0.5930003,-0.265 -0.5930003,-0.593 0,-0.328 0.2650003,-0.593 0.5930003,-0.593 0.328,0 0.593,0.266 0.593,0.593 z"
     id="path8"
     inkscape:connector-curvature="0" />
  <path
     d="m 8.4095187,18.307757 c 0.094,0.304 -0.076,0.626 -0.38,0.72 -0.304,0.094 -0.626,-0.076 -0.72,-0.38 -0.094,-0.304 0.076,-0.626 0.38,-0.72 0.304,-0.094 0.626,0.076 0.72,0.38 z m 3.8740003,1.248 c 0.134,0.433 -0.108,0.892 -0.54,1.025 -0.432,0.134 -0.892,-0.108 -1.026,-0.541 -0.134,-0.432 0.108,-0.892 0.541,-1.025 0.432,-0.133 0.891,0.109 1.025,0.541 z m -1.625,-1.426 c 0.071,0.23 -0.057,0.474 -0.288,0.545 -0.23,0.071 -0.4740003,-0.058 -0.5450003,-0.288 -0.071,-0.23 0.058,-0.474 0.2880003,-0.545 0.23,-0.071 0.474,0.058 0.545,0.288 z m 2.458,-0.331 c 0.067,0.218 -0.054,0.448 -0.272,0.516 -0.217,0.067 -0.448,-0.054 -0.516,-0.272 -0.067,-0.218 0.054,-0.448 0.272,-0.516 0.218,-0.067 0.449,0.055 0.516,0.272 z m 2.843,0.35 c 0.125,0.402 -0.101,0.829 -0.503,0.954 -0.402,0.125 -0.829,-0.1 -0.954,-0.503 -0.125,-0.402 0.101,-0.829 0.503,-0.954 0.403,-0.125 0.83,0.101 0.954,0.503 z m 4.753,1.979 c 0.08,0.258 -0.064,0.531 -0.322,0.61 -0.257,0.08 -0.531,-0.064 -0.61,-0.322 -0.08,-0.257 0.064,-0.531 0.322,-0.61 0.258,-0.08 0.531,0.065 0.61,0.322 z m -5.854,0 c 0.08,0.258 -0.064,0.531 -0.322,0.61 -0.257,0.08 -0.531,-0.064 -0.61,-0.322 -0.08,-0.257 0.064,-0.531 0.322,-0.61 0.257,-0.08 0.531,0.065 0.61,0.322 z m 4.218,-1.306 c 0.08,0.257 -0.064,0.531 -0.322,0.61 -0.257,0.08 -0.531,-0.064 -0.61,-0.322 -0.079,-0.258 0.064,-0.531 0.322,-0.61 0.257,-0.08 0.531,0.065 0.61,0.322 z m -1.501,0.199 c 0.118,0.381 -0.095,0.785 -0.476,0.903 -0.381,0.118 -0.785,-0.095 -0.903,-0.476 -0.118,-0.381 0.095,-0.785 0.476,-0.903 0.381,-0.118 0.785,0.095 0.903,0.476 z"
     id="path10"
     inkscape:connector-curvature="0"
     style="fill:#5c913b" />
</svg>
