<?xml version="1.0" encoding="UTF-8" standalone="no"?>
<svg
   xmlns:dc="http://purl.org/dc/elements/1.1/"
   xmlns:cc="http://creativecommons.org/ns#"
   xmlns:rdf="http://www.w3.org/1999/02/22-rdf-syntax-ns#"
   xmlns:svg="http://www.w3.org/2000/svg"
   xmlns="http://www.w3.org/2000/svg"
   xmlns:sodipodi="http://sodipodi.sourceforge.net/DTD/sodipodi-0.dtd"
   xmlns:inkscape="http://www.inkscape.org/namespaces/inkscape"
   viewBox="0 0 35.6185 26.488789"
   id="svg2"
   version="1.1"
   inkscape:version="0.91 r13725"
   sodipodi:docname="1f997.svg"
   width="35.6185"
   height="26.488789">
  <metadata
     id="metadata30">
    <rdf:RDF>
      <cc:Work
         rdf:about="">
        <dc:format>image/svg+xml</dc:format>
        <dc:type
           rdf:resource="http://purl.org/dc/dcmitype/StillImage" />
      </cc:Work>
    </rdf:RDF>
  </metadata>
  <defs
     id="defs28" />
  <sodipodi:namedview
     pagecolor="#ffffff"
     bordercolor="#666666"
     borderopacity="1"
     objecttolerance="10"
     gridtolerance="10"
     guidetolerance="10"
     inkscape:pageopacity="0"
     inkscape:pageshadow="2"
     inkscape:window-width="640"
     inkscape:window-height="480"
     id="namedview26"
     showgrid="false"
     inkscape:zoom="6.5555556"
     inkscape:cx="17.703498"
     inkscape:cy="13"
     inkscape:window-x="0"
     inkscape:window-y="0"
     inkscape:window-maximized="0"
     inkscape:current-layer="svg2" />
  <path
     d="m 6.9174984,18.292788 c 1.2,3.598 8.3959996,7.196 14.3929996,7.196 5.997,0 11.969,-2.523 11.969,-6.121 0,-1.199 -9.57,0.124 -15.567,-2.275 -3.341,-1.336 -9.5949996,-4.798 -10.7949996,-3.598 -1.2,1.2 0,4.798 0,4.798 z"
     id="path4"
     inkscape:connector-curvature="0"
     style="fill:#662113" />
  <path
     d="m 27.753498,21.488788 c 0.41,0.943 0.278,2.134 0.128,2.958 0.29,-0.098 0.575,-0.202 0.849,-0.312 -0.078,-1.975 -0.977,-2.646 -0.977,-2.646 z m -16.242,1.321 c 0.646,-0.809 0.882,-1.615 1.195,-2.604 0,0 -0.798,1.38 -2.036,2.101 0.272,0.172 0.551,0.34 0.841,0.503 z m 6.032,-1.253 c -0.262,1.185 -1.563,2.163 -2.595,2.78 0.51,0.176 1.028,0.338 1.553,0.478 1.49,-1.215 1.042,-3.258 1.042,-3.258 z m 4.592,2.358 c 0,0 -0.465,0.794 -1.086,1.564 0.086,0.002 0.175,0.01 0.261,0.01 0.241,0 0.482,-0.011 0.723,-0.019 0.166,-0.783 0.102,-1.555 0.102,-1.555 z"
     id="path6"
     inkscape:connector-curvature="0"
     style="fill:#292f33" />
  <path
     d="m 35.618498,18.446788 c 0,0 -3.224,1.087 -4.397,0.921 -1.172,-0.166 -0.879,2.656 0.147,2.121 1.026,-0.535 3.136,-0.6 4.25,-3.042 z"
     id="path8"
     inkscape:connector-curvature="0"
     style="fill:#662113" />
  <path
     d="m 6.9174984,13.494788 c 0,0 2.399,-3.5980003 8.7709996,-2.154 4.823,1.093 9.22,4.553 15.217,3.353 0,0 -0.825,5.042 -10.42,5.042 -9.595,0 -15.4729996,-3.628 -13.5679996,-6.241 z"
     id="path10"
     inkscape:connector-curvature="0"
     style="fill:#292f33" />
  <path
     d="m 1.4924984,17.092788 c 3.06,0 8.233,-4.018 8.211,-6.843 -0.023,-3.0600003 -4.106,-4.1060003 -6.843,-2.7370003 -2.73700001,1.369 -4.106,9.5800003 -1.368,9.5800003 z"
     id="path12"
     inkscape:connector-curvature="0"
     style="fill:#bf6952" />
  <path
     d="m 1.7034984,9.9887877 c -0.158,0 -0.313,-0.074 -0.41,-0.213 -0.263,-0.376 -1.20600001,-2.56 6.089,-8.658 0.214,-0.17700002 0.528,-0.14700002 0.705,0.063 0.177,0.212 0.149,0.527 -0.063,0.705 -6.442,5.385 -5.922,7.302 -5.911,7.317 0.158,0.226 0.104,0.538 -0.123,0.696 -0.087,0.061 -0.187,0.09 -0.287,0.09 z"
     id="path14"
     inkscape:connector-curvature="0"
     style="fill:#642116" />
  <path
     d="m 4.9324984,26.488788 -2.338,0 c -0.552,0 -1,-0.447 -1,-1 0,-0.553 0.448,-1 1,-1 l 1.51,0 4.505,-4.505 c 0.391,-0.391 1.023,-0.391 1.4139996,0 0.391,0.391 0.391,1.023 0,1.414 l -5.0909996,5.091 z"
     id="path16"
     inkscape:connector-curvature="0"
     style="fill:#d79e84" />
  <path
     d="m 20.110498,23.389788 c -0.214,0 -0.432,-0.046 -0.638,-0.143 -0.75,-0.353 -1.071,-1.246 -0.719,-1.996 l 9.595,-20.38900032 c 0.353,-0.75 1.248,-1.071 1.996,-0.719 0.75,0.353 1.071,1.24700002 0.719,1.99600002 l -9.594,20.3900003 c -0.256,0.543 -0.796,0.861 -1.359,0.861 z"
     id="path18"
     inkscape:connector-curvature="0"
     style="fill:#bf6952" />
  <path
     d="m 19.547498,23.300788 c 2.625,0.75 6.156,-1.812 7.156,-5.812 1,-4 0.969,-8.3750003 1.969,-10.3750003 1,-2 -0.969,-1.625 -2.969,1.375 -2,3.0000003 -6.156,14.8120003 -6.156,14.8120003 z"
     id="path20"
     inkscape:connector-curvature="0"
     style="fill:#bf6952" />
  <path
     d="m 3.4654984,10.977788 c 2.651,0.641 0.977,3.672 -0.684,3.672 -2.41900001,0 -2.19900001,-4.369 0.684,-3.672 z"
     id="path22"
     inkscape:connector-curvature="0"
     style="fill:#292f33" />
  <path
     d="m 34.593498,26.488788 -2.932,0 c -0.521,0 -0.954,-0.399 -0.997,-0.919 l -1.955,-23.9880003 c -0.045,-0.55 0.365,-1.03300002 0.916,-1.07800002 0.545,-0.048 1.033,0.366 1.078,0.91600002 l 1.88,23.0690003 2.01,0 c 0.553,0 1,0.447 1,1 0,0.553 -0.448,1 -1,1 z m -6.84,0 -2.05,0 c -0.288,0 -0.562,-0.124 -0.753,-0.342 l -6.311,-7.212 -3.833,3.677 c -0.399,0.381 -1.032,0.368 -1.414,-0.029 -0.382,-0.398 -0.369,-1.032 0.029,-1.414 l 4.589,-4.401 c 0.197,-0.188 0.467,-0.297 0.736,-0.277 0.272,0.012 0.528,0.135 0.709,0.341 l 6.702,7.657 1.596,0 c 0.553,0 1,0.447 1,1 0,0.553 -0.447,1 -1,1 z"
     id="path24"
     inkscape:connector-curvature="0"
     style="fill:#d79e84" />
</svg>
