<?xml version="1.0" encoding="UTF-8" standalone="no"?>
<svg
   xmlns:dc="http://purl.org/dc/elements/1.1/"
   xmlns:cc="http://creativecommons.org/ns#"
   xmlns:rdf="http://www.w3.org/1999/02/22-rdf-syntax-ns#"
   xmlns:svg="http://www.w3.org/2000/svg"
   xmlns="http://www.w3.org/2000/svg"
   xmlns:sodipodi="http://sodipodi.sourceforge.net/DTD/sodipodi-0.dtd"
   xmlns:inkscape="http://www.inkscape.org/namespaces/inkscape"
   viewBox="0 0 32.494289 34.126881"
   id="svg2"
   version="1.1"
   inkscape:version="0.91 r13725"
   sodipodi:docname="1f99c.svg"
   width="32.494289"
   height="34.126881">
  <metadata
     id="metadata30">
    <rdf:RDF>
      <cc:Work
         rdf:about="">
        <dc:format>image/svg+xml</dc:format>
        <dc:type
           rdf:resource="http://purl.org/dc/dcmitype/StillImage" />
      </cc:Work>
    </rdf:RDF>
  </metadata>
  <defs
     id="defs28" />
  <sodipodi:namedview
     pagecolor="#ffffff"
     bordercolor="#666666"
     borderopacity="1"
     objecttolerance="10"
     gridtolerance="10"
     guidetolerance="10"
     inkscape:pageopacity="0"
     inkscape:pageshadow="2"
     inkscape:window-width="640"
     inkscape:window-height="480"
     id="namedview26"
     showgrid="false"
     inkscape:zoom="6.5555556"
     inkscape:cx="15.969154"
     inkscape:cy="17"
     inkscape:window-x="0"
     inkscape:window-y="0"
     inkscape:window-maximized="0"
     inkscape:current-layer="svg2" />
  <path
     d="m 15.469154,34.126879 c -0.128,0 -0.256,-0.049 -0.354,-0.146 -0.195,-0.195 -0.195,-0.512 0,-0.707 l 1.854,-1.854 0,-2.793 c 0,-0.276 0.224,-0.5 0.5,-0.5 0.276,0 0.5,0.224 0.5,0.5 l 0,3.207 -2.146,2.146 c -0.098,0.098 -0.226,0.147 -0.354,0.147 z"
     id="path4"
     inkscape:connector-curvature="0"
     style="fill:#66757f" />
  <path
     d="m 17.469154,32.126879 -3,0 c -0.276,0 -0.5,-0.224 -0.5,-0.5 0,-0.276 0.224,-0.5 0.5,-0.5 l 3,0 c 0.276,0 0.5,0.224 0.5,0.5 0,0.276 -0.224,0.5 -0.5,0.5 z m 3,2 c -0.128,0 -0.256,-0.049 -0.354,-0.146 -0.195,-0.195 -0.195,-0.512 0,-0.707 l 1.854,-1.854 0,-2.793 c 0,-0.276 0.224,-0.5 0.5,-0.5 0.276,0 0.5,0.224 0.5,0.5 l 0,3.207 -2.146,2.146 c -0.098,0.098 -0.226,0.147 -0.354,0.147 z"
     id="path6"
     inkscape:connector-curvature="0"
     style="fill:#66757f" />
  <path
     d="m 22.469154,32.126879 -3,0 c -0.276,0 -0.5,-0.224 -0.5,-0.5 0,-0.276 0.224,-0.5 0.5,-0.5 l 3,0 c 0.276,0 0.5,0.224 0.5,0.5 0,0.276 -0.224,0.5 -0.5,0.5 z"
     id="path8"
     inkscape:connector-curvature="0"
     style="fill:#66757f" />
  <path
     d="m 1.4991538,12.924879 c 0.845,0.452 3.813,-1.411 4.36,-3.3079999 0.547,-1.897 -1.021,-2.116 -2.882,-1.24 -1.861,0.876 -2.20800003,4.1569999 -1.478,4.5479999 z"
     id="path10"
     inkscape:connector-curvature="0"
     style="fill:#f4900c" />
  <path
     d="m 4.2941538,3.1268791 c -2.555,1 -4.27800003,3.378 -4.29400003099,6.088 C -0.01584623,11.913879 1.2191538,13.637879 2.5941538,13.261879 c 0.376,-0.103 -0.303,-1.922 0.85,-4.3709999 0.57,-1.207 1.303,-1.35 1.675,-1.313 0.373,0.036 0.443,-4.947 -0.825,-4.451 z"
     id="path12"
     inkscape:connector-curvature="0"
     style="fill:#ffac33" />
  <path
     d="m 32.494154,30.510879 c -0.014,0.499 -1.916,0.822 -5.592,-3.599 -2.927,3.09 -7.374,3.182 -11.821,1.422 -4.999,-1.979 -8.3830002,-6.924 -7.7010002,-13.976 0.382,-3.954 -5.228,-3.587 -5.081,-8.8989999 0.111,-3.995 3.513,-5.53499999 6.374,-5.45599999 4.7400002,0.131 6.8200002,5.29299999 8.0520002,6.56099999 6.494,6.6879999 15.81,22.4699999 15.769,23.9469999 z"
     id="path14"
     inkscape:connector-curvature="0"
     style="fill:#77b255" />
  <path
     d="m 26.901154,26.911879 c -2.927,3.09 -7.374,3.182 -11.821,1.422 -4.999,-1.979 -8.3830002,-6.924 -7.7010002,-13.976 0.036,4.343 1.559,7.582 2.9400002,8.416 -0.5800002,-2.79 0.117,-7.062 0.784,-7.779 1.591,9.402 10.022,14.78 15.798,11.917 z"
     id="path16"
     inkscape:connector-curvature="0"
     style="fill:#ea596e" />
  <path
     d="m 11.104154,14.993879 c 0,0 1.737,5.788 7.33,9.387 5.593,3.599 8.468,2.53 8.468,2.53 0,0 -2.939,3.363 -7.647,2.084 -4.708,-1.279 -9.3210002,-5.997 -8.151,-14.001 z"
     id="path18"
     inkscape:connector-curvature="0"
     style="fill:#3b88c3" />
  <path
     d="m 14.907154,8.5438791 c -2.504,-0.588 -6.6660002,7.1229999 -1.009,13.3919999 7.436,8.241 13.004,4.976 13.004,4.976 0,0 -4.148,-16.526 -11.995,-18.3679999 z"
     id="path20"
     inkscape:connector-curvature="0"
     style="fill:#5c913b" />
  <circle
     cx="5.9691539"
     cy="5.1268792"
     r="1"
     id="circle22"
     style="fill:#292f33" />
  <path
     d="m 8.6931538,12.385879 c -0.79,0 -1.509,-0.189 -1.976,-0.45 -0.248,-0.139 -0.336,-0.453 -0.198,-0.701 0.14,-0.248 0.454,-0.336 0.701,-0.198 0.665,0.373 2.406,0.63 3.6140002,-0.423 0.213,-0.187 0.539,-0.165 0.726,0.05 0.187,0.214 0.164,0.54 -0.05,0.726 -0.836,0.729 -1.8770002,0.996 -2.8170002,0.996 z"
     id="path24"
     inkscape:connector-curvature="0"
     style="fill:#5c913b" />
</svg>
