<?xml version="1.0" encoding="UTF-8" standalone="no"?>
<svg
   xmlns:dc="http://purl.org/dc/elements/1.1/"
   xmlns:cc="http://creativecommons.org/ns#"
   xmlns:rdf="http://www.w3.org/1999/02/22-rdf-syntax-ns#"
   xmlns:svg="http://www.w3.org/2000/svg"
   xmlns="http://www.w3.org/2000/svg"
   xmlns:sodipodi="http://sodipodi.sourceforge.net/DTD/sodipodi-0.dtd"
   xmlns:inkscape="http://www.inkscape.org/namespaces/inkscape"
   viewBox="0 0 35.000614 35.000614"
   id="svg2"
   version="1.1"
   inkscape:version="0.91 r13725"
   sodipodi:docname="1f9a6.svg"
   width="35.000614"
   height="35.000614">
  <metadata
     id="metadata40">
    <rdf:RDF>
      <cc:Work
         rdf:about="">
        <dc:format>image/svg+xml</dc:format>
        <dc:type
           rdf:resource="http://purl.org/dc/dcmitype/StillImage" />
      </cc:Work>
    </rdf:RDF>
  </metadata>
  <defs
     id="defs38" />
  <sodipodi:namedview
     pagecolor="#ffffff"
     bordercolor="#666666"
     borderopacity="1"
     objecttolerance="10"
     gridtolerance="10"
     guidetolerance="10"
     inkscape:pageopacity="0"
     inkscape:pageshadow="2"
     inkscape:window-width="640"
     inkscape:window-height="480"
     id="namedview36"
     showgrid="false"
     inkscape:zoom="6.5555556"
     inkscape:cx="17.500332"
     inkscape:cy="17.500282"
     inkscape:window-x="0"
     inkscape:window-y="0"
     inkscape:window-maximized="0"
     inkscape:current-layer="svg2" />
  <path
     d="m 1.8813324,8.1713324 c -1.57300003,0 -2.35900003,0.786 -1.57300003,1.573 C 1.8813324,11.317332 3.4533324,11.317332 4.2393324,10.530332 l -2.358,-2.3589996 z m 6.29,-6.29 c 0,-1.57300003 0.786,-2.35900003 1.573,-1.57300003 C 11.317332,1.8813324 11.317332,3.4533324 10.530332,4.2393324 l -2.3589996,-2.358 z m -4.717,9.4349996 c 0,0 8.5469996,14.433 14.9389996,16.512 3.344,1.087 5.692,0.599 7.863,-1.573 2.171,-2.172 2.406,-4.447 1.573,-7.863 -1.392,-5.704 -16.513,-14.9379996 -16.513,-14.9379996 L 3.4543324,11.316332 Z"
     id="path4"
     inkscape:connector-curvature="0"
     style="fill:#a78e81" />
  <path
     d="m 15.629332,26.352332 c 4.231,5.36 8.793,7.807 10.465,6.519 1.624,-1.25 -0.324,-2.578 -2.174,-6.954 -1.936,-4.58 -10.526,-2.397 -8.291,0.435 z m 10.721,-10.782 c 5.36,4.231 7.803,8.858 6.516,10.53 -1.25,1.624 -2.578,-0.324 -6.954,-2.174 -4.581,-1.936 -2.394,-10.591 0.438,-8.356 z"
     id="path6"
     inkscape:connector-curvature="0"
     style="fill:#a78e81" />
  <path
     d="m 16.508332,21.064332 c 0.699,-1.287 -0.914,-3.363 -2.504,-3.314 -1.172,0.036 -3.617,1.934 -5.8829996,-0.746 -0.209,0.209 -0.304,0.496 -0.311,0.829 1.158,1.577 2.4719996,3.242 3.8479996,4.765 1.656,0.479 3.913,0.192 4.85,-1.534 z m 1.242,-7.06 c -0.049,1.589 2.028,3.203 3.314,2.504 1.712,-0.93 2.007,-3.159 1.544,-4.81 -1.545,-1.372 -3.246,-2.7029996 -4.851,-3.8819996 -0.3,0.02 -0.56,0.113 -0.753,0.306 2.679,2.2649996 0.782,4.7099996 0.746,5.8819996 z"
     id="path8"
     inkscape:connector-curvature="0"
     style="fill:#846659" />
  <path
     d="m 12.841332,16.395332 c 1.589,-0.049 3.203,2.028 2.504,3.314 -1.12,2.061 -4.135,2.086 -5.7399996,1.183 -1.79,-1.007 -3.732,-4.157 -2.646,-5.243 2.265,2.68 4.7089996,0.783 5.8819996,0.746 z m 3.553,-3.553 c -0.049,1.589 2.028,3.203 3.314,2.504 2.061,-1.12 2.086,-4.135 1.183,-5.7399996 -1.007,-1.79 -4.157,-3.732 -5.243,-2.646 2.679,2.265 0.782,4.7099996 0.746,5.8819996 z"
     id="path10"
     inkscape:connector-curvature="0"
     style="fill:#cab8ac" />
  <path
     d="m 27.042332,23.897332 c 3.474,3.474 8.731,10.139 7.863,11.008 -0.868,0.868 -7.534,-4.389 -11.008,-7.863 -3.474,-3.474 -4.014,-5.422 -3.145,-6.29 0.868,-0.869 2.816,-0.329 6.29,3.145 z m -14.939,-21.2299996 c 2.171,2.171 1.554,4.736 -1.573,7.8629996 -3.1269996,3.127 -5.6919996,3.744 -7.8629996,1.573 -2.17100003,-2.1709996 -2.34000003,-5.5229996 0.787,-8.6489996 3.127,-3.12600003 6.477,-2.95800003 8.6489996,-0.787 z"
     id="path12"
     inkscape:connector-curvature="0"
     style="fill:#a78e81" />
  <path
     d="m 13.238332,3.8033324 c 1.223,1.223 1.991,5.173 -1.136,8.2999996 -3.1269996,3.127 -7.0759996,2.359 -8.2999996,1.136 -1.93,-1.93 1.223,-5.0669996 2.796,-6.6399996 1.573,-1.573 4.7099996,-4.726 6.6399996,-2.796 z"
     id="path14"
     inkscape:connector-curvature="0"
     style="fill:#cab8ac" />
  <path
     d="m 8.9573324,5.8123324 c 0.868,0.868 0.868,2.277 0,3.145 -0.868,0.868 -2.277,0.868 -3.145,0 -0.868,-0.868 -0.082,-1.49 0.787,-2.358 0.869,-0.868 1.49,-1.655 2.358,-0.787 z"
     id="path16"
     inkscape:connector-curvature="0"
     style="fill:#292f33" />
  <circle
     cx="4.2403321"
     cy="8.9573326"
     r="1.112"
     id="circle18"
     style="fill:#292f33" />
  <circle
     cx="8.9573326"
     cy="4.2403321"
     r="1.112"
     id="circle20"
     style="fill:#292f33" />
  <path
     d="m 10.155332,9.9013324 c -0.4259996,0 -0.8199996,-0.101 -1.1319996,-0.308 -0.189,-0.125 -0.241,-0.38 -0.116,-0.57 0.125,-0.19 0.38,-0.242 0.57,-0.116 0.452,0.299 1.3389996,0.188 2.0189996,-0.253 0.276,-0.179 0.906,-0.674 0.785,-1.399 -0.037,-0.224 0.114,-0.436 0.338,-0.473 0.225,-0.036 0.436,0.114 0.473,0.338 0.139,0.836 -0.291,1.668 -1.15,2.224 -0.565,0.368 -1.205,0.557 -1.787,0.557 z"
     id="path22"
     inkscape:connector-curvature="0"
     style="fill:#a78e81" />
  <path
     d="m 7.4313324,13.119332 c -0.103,0 -0.207,-0.009 -0.31,-0.026 -0.224,-0.038 -0.376,-0.249 -0.338,-0.473 0.038,-0.224 0.251,-0.375 0.473,-0.338 0.722,0.121 1.22,-0.509 1.399,-0.786 0.441,-0.681 0.553,-1.5679996 0.253,-2.0189996 -0.125,-0.189 -0.074,-0.444 0.116,-0.57 0.189,-0.126 0.445,-0.074 0.57,0.116 0.4889996,0.739 0.387,1.9389996 -0.249,2.9199996 -0.488,0.753 -1.187,1.176 -1.914,1.176 z"
     id="path24"
     inkscape:connector-curvature="0"
     style="fill:#a78e81" />
  <path
     d="m 25.135332,28.404332 c -1.021,-1.634 -1.501,-3.563 -0.898,-4.166 0.613,-0.613 2.073,-0.745 4.186,0.878 -1.348,-1.286 -3.757,-2.695 -4.186,-5.044 0.123,2.164 -0.419,4.625 -4.125,4.043 2.082,0.614 5.023,4.289 5.023,4.289 z"
     id="path26"
     inkscape:connector-curvature="0"
     style="fill:#846659" />
  <g
     id="g28"
     style="fill:#67757f"
     transform="translate(-0.49966763,-0.49966763)">
    <path
       d="M 2.928,15.73 C 2.9,15.73 2.871,15.728 2.842,15.722 2.578,15.675 2.402,15.422 2.449,15.158 2.856,12.889 4.242,11.267 6.156,10.82 6.417,10.76 6.679,10.922 6.74,11.183 6.801,11.445 6.639,11.706 6.377,11.767 4.853,12.123 3.743,13.456 3.406,15.331 3.364,15.564 3.16,15.73 2.928,15.73 Z"
       id="path30"
       inkscape:connector-curvature="0" />
    <path
       d="m 5.072,15.974 c -0.253,0 -0.466,-0.195 -0.484,-0.451 -0.079,-1.078 0.493,-2.498 1.586,-3.008 0.244,-0.113 0.533,-0.009 0.646,0.235 0.113,0.243 0.009,0.533 -0.235,0.646 -0.671,0.313 -1.08,1.335 -1.028,2.056 0.02,0.268 -0.181,0.501 -0.449,0.52 -0.013,0.002 -0.024,0.002 -0.036,0.002 z M 11.28,6.765 c -0.037,0 -0.074,-0.004 -0.111,-0.013 -0.262,-0.061 -0.424,-0.323 -0.363,-0.584 0.448,-1.914 2.07,-3.299 4.338,-3.707 0.264,-0.047 0.517,0.129 0.564,0.393 0.047,0.264 -0.128,0.517 -0.393,0.564 -1.875,0.337 -3.207,1.447 -3.564,2.971 -0.05,0.225 -0.25,0.376 -0.471,0.376 z"
       id="path32"
       inkscape:connector-curvature="0" />
    <path
       d="m 12.944,6.877 c -0.069,0 -0.139,-0.015 -0.205,-0.046 -0.244,-0.113 -0.348,-0.403 -0.235,-0.646 0.51,-1.093 1.919,-1.664 3.008,-1.586 0.268,0.019 0.469,0.253 0.449,0.52 -0.019,0.267 -0.248,0.468 -0.52,0.449 -0.712,-0.048 -1.742,0.357 -2.056,1.028 -0.083,0.177 -0.258,0.281 -0.441,0.281 z"
       id="path34"
       inkscape:connector-curvature="0" />
  </g>
</svg>
