<?xml version="1.0" encoding="UTF-8" standalone="no"?>
<svg
   xmlns:dc="http://purl.org/dc/elements/1.1/"
   xmlns:cc="http://creativecommons.org/ns#"
   xmlns:rdf="http://www.w3.org/1999/02/22-rdf-syntax-ns#"
   xmlns:svg="http://www.w3.org/2000/svg"
   xmlns="http://www.w3.org/2000/svg"
   xmlns:sodipodi="http://sodipodi.sourceforge.net/DTD/sodipodi-0.dtd"
   xmlns:inkscape="http://www.inkscape.org/namespaces/inkscape"
   viewBox="0 0 35.25629 35.883797"
   id="svg2"
   version="1.1"
   inkscape:version="0.91 r13725"
   sodipodi:docname="1f9a0.svg"
   width="35.25629"
   height="35.883797">
  <metadata
     id="metadata36">
    <rdf:RDF>
      <cc:Work
         rdf:about="">
        <dc:format>image/svg+xml</dc:format>
        <dc:type
           rdf:resource="http://purl.org/dc/dcmitype/StillImage" />
      </cc:Work>
    </rdf:RDF>
  </metadata>
  <defs
     id="defs34" />
  <sodipodi:namedview
     pagecolor="#ffffff"
     bordercolor="#666666"
     borderopacity="1"
     objecttolerance="10"
     gridtolerance="10"
     guidetolerance="10"
     inkscape:pageopacity="0"
     inkscape:pageshadow="2"
     inkscape:window-width="640"
     inkscape:window-height="480"
     id="namedview32"
     showgrid="false"
     inkscape:zoom="6.5555556"
     inkscape:cx="17.698557"
     inkscape:cy="17.956"
     inkscape:window-x="0"
     inkscape:window-y="0"
     inkscape:window-maximized="0"
     inkscape:current-layer="svg2" />
  <path
     d="m 5.7305572,6.2727975 c -0.409,0 -0.792,-0.253 -0.94,-0.659 -0.016,-0.042 -0.875,-2.253 -2.414,-2.436 -0.548,-0.065 -0.94,-0.563 -0.875,-1.111 0.065,-0.548 0.567,-0.933 1.111,-0.875 2.802,0.333 4.009,3.603 4.059,3.742 0.187,0.519 -0.083,1.092 -0.603,1.279 -0.112,0.04 -0.226,0.06 -0.338,0.06 z"
     id="path4"
     inkscape:connector-curvature="0"
     style="fill:#5c913b" />
  <path
     d="m 7.6005572,6.4287975 c -0.087,0 -0.176,-0.012 -0.264,-0.036 -0.532,-0.144 -0.846,-0.693 -0.702,-1.224 0.01,-0.04 0.578,-2.346 -0.578,-3.38 -0.412,-0.368 -0.447,-1.00000001 -0.079,-1.41200001 0.368,-0.411 1.001,-0.447 1.412,-0.078 2.103,1.88100001 1.214,5.25100001 1.175,5.39400001 -0.121,0.444 -0.524,0.736 -0.964,0.736 z"
     id="path6"
     inkscape:connector-curvature="0"
     style="fill:#5c913b" />
  <path
     d="m 10.046557,6.4717975 c -0.1499998,0 -0.3029998,-0.034 -0.4469998,-0.106 -0.493,-0.247 -0.693,-0.846 -0.447,-1.339 0.011,-0.021 1.0329998,-2.182 0.1,-3.428 -0.331,-0.442 -0.241,-1.06900001 0.202,-1.40000001 0.442,-0.33 1.0679998,-0.24 1.3999998,0.202 1.69,2.25900001 0.154,5.38700001 0.088,5.52000001 -0.176,0.349 -0.529,0.551 -0.896,0.551 z"
     id="path8"
     inkscape:connector-curvature="0"
     style="fill:#5c913b" />
  <path
     d="m 12.322557,6.4137975 c -0.225,0 -0.451,-0.075 -0.637,-0.229 -0.425,-0.352 -0.484,-0.98 -0.135,-1.406 0.025,-0.031 1.494,-1.898 0.867,-3.317 -0.223,-0.50500001 0.005,-1.09500001 0.511,-1.31800001 0.504,-0.224 1.095,0.005 1.318,0.511 1.14,2.58100001 -1.059,5.28400001 -1.153,5.39800001 -0.198,0.238 -0.483,0.361 -0.771,0.361 z"
     id="path10"
     inkscape:connector-curvature="0"
     style="fill:#5c913b" />
  <path
     d="m 14.978557,6.3557975 c -0.281,0 -0.561,-0.118 -0.759,-0.348 -0.359,-0.418 -0.312,-1.048 0.104,-1.409 0.03,-0.027 1.792,-1.62 1.412,-3.124 -0.135,-0.53600001 0.189,-1.07900001 0.725,-1.21400001 0.536,-0.133 1.08,0.189 1.214,0.725 0.69,2.73600001 -1.933,5.03100001 -2.045,5.12800001 -0.188,0.163 -0.42,0.242 -0.651,0.242 z m 2.971,0.408 c -0.354,0 -0.697,-0.188 -0.878,-0.521 -0.264,-0.484 -0.087,-1.09 0.395,-1.355 0.021,-0.012 2.09,-1.205 2.035,-2.761 -0.021,-0.552 0.411,-1.016 0.963,-1.036 0.556,-0.008 1.015,0.411 1.035,0.963 0.103,2.819 -2.941,4.516 -3.071,4.586 -0.152,0.085 -0.316,0.124 -0.479,0.124 z m 3.162,1.074 c -0.441,0 -0.847,-0.296 -0.966,-0.743 -0.142,-0.533 0.175,-1.08 0.707,-1.223 0.048,-0.013 2.319,-0.682 2.632,-2.198 0.111,-0.542 0.64,-0.89 1.182,-0.777 0.541,0.112 0.889,0.641 0.777,1.182 -0.57,2.763 -3.931,3.688 -4.074,3.726 -0.086,0.021 -0.172,0.033 -0.258,0.033 z m 3.13,1.755 c -0.51,0 -0.945,-0.388 -0.994,-0.906 -0.053,-0.549 0.35,-1.036 0.897,-1.089 0.032,-0.003 2.397,-0.284 2.959,-1.734 0.199,-0.515 0.777,-0.769 1.294,-0.571 0.515,0.2 0.771,0.779 0.571,1.294 -1.02,2.631 -4.485,2.988 -4.632,3.002 -0.032,0.003 -0.064,0.004 -0.095,0.004 z m 3.083,3.6699995 c -0.265,0 -0.436,-0.014 -0.466,-0.017 -0.55,-0.05 -0.956,-0.536 -0.906,-1.086 0.05,-0.549 0.548,-0.958 1.083,-0.906 0.049,0.003 2.412,0.154 3.226,-1.162 0.291,-0.4699995 0.909,-0.6139995 1.376,-0.3249995 0.471,0.2909995 0.615,0.9069995 0.325,1.3759995 -1.179,1.908 -3.614,2.12 -4.638,2.12 z m 3.551,4.541 c -1.004,0 -1.783,-0.21 -1.85,-0.229 -0.532,-0.148 -0.844,-0.699 -0.696,-1.231 0.149,-0.531 0.703,-0.841 1.229,-0.696 0.023,0.006 2.34,0.594 3.383,-0.561 0.371,-0.411 1.004,-0.442 1.413,-0.071 0.409,0.37 0.441,1.002 0.071,1.412 -1.003,1.109 -2.419,1.376 -3.55,1.376 z m 1.515,5.104 c -1.597,0 -2.987,-0.719 -3.074,-0.765 -0.488,-0.258 -0.676,-0.862 -0.418,-1.352 0.258,-0.487 0.859,-0.676 1.349,-0.419 0.021,0.011 2.16,1.078 3.426,0.17 0.448,-0.321 1.074,-0.217 1.396,0.231 0.321,0.449 0.218,1.073 -0.231,1.396 -0.774,0.554 -1.637,0.739 -2.448,0.739 z m 0.162,4.475 c -2.046,0 -3.795,-1.495 -3.886,-1.573 -0.417,-0.362 -0.461,-0.994 -0.099,-1.411 0.363,-0.417 0.992,-0.46 1.409,-0.101 0.043,0.037 1.867,1.535 3.295,0.947 0.51,-0.21 1.095,0.03 1.306,0.542 0.211,0.511 -0.031,1.096 -0.542,1.306 -0.499,0.206 -1,0.29 -1.483,0.29 z m -1.083,4.305 c -2.807,0 -4.401,-3.076 -4.468,-3.207 -0.25,-0.493 -0.054,-1.095 0.438,-1.345 0.493,-0.25 1.091,-0.055 1.344,0.437 0.015,0.028 1.138,2.115 2.687,2.115 l 0.018,0 c 0.55,0 0.996,0.443 1,0.993 0.004,0.553 -0.441,1.003 -0.993,1.007 l -0.026,0 z m -6.809,4.129 c -0.206,0 -0.413,-0.063 -0.592,-0.194 -2.272,-1.673 -1.709,-5.111 -1.684,-5.257 0.095,-0.544 0.61,-0.905 1.155,-0.815 0.543,0.094 0.908,0.609 0.816,1.152 -0.006,0.034 -0.354,2.389 0.897,3.309 0.444,0.327 0.54,0.953 0.213,1.398 -0.195,0.266 -0.497,0.407 -0.805,0.407 z m 3.585,-1.108 c -0.132,0 -0.265,-0.025 -0.393,-0.08 -2.595,-1.108 -2.834,-4.584 -2.843,-4.731 -0.033,-0.552 0.387,-1.025 0.938,-1.059 0.545,-0.032 1.023,0.384 1.059,0.935 0.002,0.03 0.202,2.405 1.632,3.016 0.508,0.217 0.744,0.805 0.527,1.312 -0.162,0.38 -0.532,0.607 -0.92,0.607 z m -11.075,0.031 c -0.487,0 -0.914,-0.357 -0.988,-0.854 -0.413,-2.791 2.425,-4.813 2.546,-4.898 0.45,-0.316 1.076,-0.207 1.393,0.246 0.316,0.451 0.207,1.074 -0.244,1.391 -0.045,0.033 -1.942,1.439 -1.716,2.969 0.081,0.547 -0.296,1.055 -0.843,1.136 -0.05,0.006 -0.099,0.01 -0.148,0.01 z"
     id="path12"
     inkscape:connector-curvature="0"
     style="fill:#5c913b" />
  <path
     d="m 20.581557,35.883797 c -0.359,0 -0.707,-0.194 -0.886,-0.534 -1.315,-2.496 0.693,-5.345 0.779,-5.465 0.322,-0.45 0.945,-0.553 1.396,-0.229 0.448,0.321 0.551,0.944 0.231,1.394 -0.023,0.032 -1.359,1.996 -0.637,3.369 0.258,0.488 0.07,1.094 -0.419,1.351 -0.148,0.077 -0.307,0.114 -0.464,0.114 z m -6.834,-3.946 c -0.072,0 -0.145,-0.008 -0.218,-0.023 -0.539,-0.12 -0.879,-0.654 -0.759,-1.193 0.612,-2.755 3.986,-3.628 4.129,-3.663 0.535,-0.134 1.079,0.19 1.213,0.728 0.134,0.534 -0.19,1.076 -0.725,1.212 -0.023,0.006 -2.327,0.638 -2.665,2.157 -0.104,0.464 -0.517,0.782 -0.975,0.782 z m -1.665,-3.622 c -0.129,0 -0.26,-0.024 -0.386,-0.078 -0.509,-0.213 -0.749,-0.8 -0.536,-1.309 1.091,-2.602 4.566,-2.862 4.714,-2.872 0.537,-0.03 1.027,0.381 1.064,0.932 0.037,0.55 -0.378,1.025 -0.928,1.064 -0.033,0.002 -2.404,0.217 -3.005,1.649 -0.161,0.383 -0.532,0.614 -0.923,0.614 z m -1.363,-4.306 c -0.209,0 -0.421,-0.065 -0.601,-0.202 -0.4409998,-0.332 -0.5289998,-0.959 -0.1959998,-1.4 1.6989998,-2.252 5.1309998,-1.649 5.2759998,-1.622 0.543,0.101 0.902,0.622 0.802,1.165 -0.1,0.542 -0.619,0.9 -1.162,0.803 -0.022,-0.005 -2.383,-0.383 -3.32,0.859 -0.196,0.26 -0.496,0.397 -0.799,0.397 z m -1.7599998,-3.399 c -0.185,0 -0.372,-0.051 -0.539,-0.158 -0.465,-0.298 -0.601,-0.916 -0.302,-1.381 1.522,-2.377 4.9909998,-2.036 5.1379998,-2.02 0.549,0.059 0.947,0.551 0.888,1.1 -0.058,0.549 -0.545,0.938 -1.098,0.889 -0.05,-0.01 -2.409,-0.195 -3.2449998,1.108 -0.19,0.3 -0.512,0.462 -0.842,0.462 z m -2.908,-2.409 c -0.121,0 -0.244,-0.022 -0.364,-0.069 -0.514,-0.201 -0.768,-0.781 -0.567,-1.295 1.027,-2.628 4.495,-2.973 4.642,-2.987 0.5529998,-0.039 1.0369998,0.355 1.0869998,0.905 0.05,0.549 -0.354,1.035 -0.9019998,1.086 -0.037,0.004 -2.399,0.278 -2.964,1.724 -0.155,0.395 -0.532,0.636 -0.932,0.636 z m -3.463,-2.583 c -0.121,0 -0.244,-0.022 -0.364,-0.069 -0.514,-0.201 -0.768,-0.781 -0.567,-1.295 1.027,-2.628 4.495,-2.973 4.642,-2.987 0.556,-0.039 1.037,0.355 1.087,0.905 0.05,0.549 -0.354,1.035 -0.902,1.086 -0.037,0.004 -2.399,0.278 -2.964,1.724 -0.155,0.394 -0.532,0.636 -0.932,0.636 z"
     id="path14"
     inkscape:connector-curvature="0"
     style="fill:#5c913b" />
  <path
     d="m 5.5265572,11.384797 c -0.167,0 -0.336,-0.042 -0.491,-0.129 -0.021,-0.012 -2.123,-1.147 -3.418,-0.281 -0.459,0.305 -1.07999997,0.183 -1.38699997,-0.276 -0.307,-0.459 -0.184,-1.0799995 0.276,-1.3869995 2.34499997,-1.568 5.38799997,0.132 5.51699997,0.205 0.479,0.273 0.647,0.8839995 0.374,1.3639995 -0.185,0.322 -0.523,0.504 -0.871,0.504 z m -0.421,-2.6179995 c -0.284,0 -0.566,-0.121 -0.764,-0.354 -0.03,-0.033 -1.599,-1.812 -3.108,-1.448 -0.53999997,0.126 -1.07699997,-0.203 -1.20599997,-0.739 -0.128,-0.537 0.202,-1.077 0.739,-1.206 2.74899997,-0.655 5.00799997,1.991 5.10399997,2.104 0.355,0.423 0.301,1.054 -0.122,1.409 -0.188,0.157 -0.416,0.234 -0.643,0.234 z"
     id="path16"
     inkscape:connector-curvature="0"
     style="fill:#5c913b" />
  <path
     d="m 12.500557,2.8497975 c -3.9879998,0 -8.4319998,1.417 -9.2099998,4.124 -1.087,3.7829995 1.763,5.6809995 4.053,7.2069995 1.751,1.167 3.5629998,2.373 4.5659998,4.456 l 0.051,0.105 0.063,0.099 c 0.978,1.541 1.544,3.54 2.092,5.473 1.086,3.834 2.438,8.606 7.835,8.606 2.948,-0.004 5.945,-2.281 7.648,-5.802 2.62,-5.417 1.649,-11.861 -2.597,-17.2369995 -5.039,-6.122 -11.247,-7.031 -14.501,-7.031 z"
     id="path18"
     inkscape:connector-curvature="0"
     style="fill:#3e721d" />
  <path
     d="m 12.500557,4.8497975 c 4.04,0 9.016,1.514 12.931,6.2709995 7.573,9.587 1.618,19.792 -3.472,19.799 l -0.009,0 c -6.002,0 -5.022,-8.082 -8.239,-13.151 -2.697,-5.601 -9.7629998,-5.841 -8.4979998,-10.2429995 0.364,-1.267 3.39,-2.676 7.2869998,-2.676"
     id="path20"
     inkscape:connector-curvature="0"
     style="fill:#77b255" />
  <circle
     cx="22.698557"
     cy="23.927797"
     r="3"
     id="circle22"
     style="fill:#3e721d" />
  <circle
     cx="23.698557"
     cy="16.927797"
     r="2"
     id="circle24"
     style="fill:#c6e5b3" />
  <circle
     cx="16.698557"
     cy="14.927797"
     r="2"
     id="circle26"
     style="fill:#c6e5b3" />
  <circle
     cx="19.698557"
     cy="9.9277973"
     r="1"
     id="circle28"
     style="fill:#c6e5b3" />
  <circle
     cx="10.698557"
     cy="7.9277973"
     r="1"
     id="circle30"
     style="fill:#c6e5b3" />
</svg>
