<?xml version="1.0" encoding="UTF-8" standalone="no"?>
<svg
   xmlns:dc="http://purl.org/dc/elements/1.1/"
   xmlns:cc="http://creativecommons.org/ns#"
   xmlns:rdf="http://www.w3.org/1999/02/22-rdf-syntax-ns#"
   xmlns:svg="http://www.w3.org/2000/svg"
   xmlns="http://www.w3.org/2000/svg"
   xmlns:sodipodi="http://sodipodi.sourceforge.net/DTD/sodipodi-0.dtd"
   xmlns:inkscape="http://www.inkscape.org/namespaces/inkscape"
   viewBox="0 0 26.735826 35.45784"
   id="svg2"
   version="1.1"
   inkscape:version="0.91 r13725"
   sodipodi:docname="1f9bf.svg"
   width="26.735826"
   height="35.45784">
  <metadata
     id="metadata30">
    <rdf:RDF>
      <cc:Work
         rdf:about="">
        <dc:format>image/svg+xml</dc:format>
        <dc:type
           rdf:resource="http://purl.org/dc/dcmitype/StillImage" />
      </cc:Work>
    </rdf:RDF>
  </metadata>
  <defs
     id="defs28" />
  <sodipodi:namedview
     pagecolor="#ffffff"
     bordercolor="#666666"
     borderopacity="1"
     objecttolerance="10"
     gridtolerance="10"
     guidetolerance="10"
     inkscape:pageopacity="0"
     inkscape:pageshadow="2"
     inkscape:window-width="640"
     inkscape:window-height="480"
     id="namedview26"
     showgrid="false"
     inkscape:zoom="6.5555556"
     inkscape:cx="12.765869"
     inkscape:cy="17.948389"
     inkscape:window-x="0"
     inkscape:window-y="0"
     inkscape:window-maximized="0"
     inkscape:current-layer="svg2" />
  <circle
     cx="11.98687"
     cy="29.293449"
     r="2.5"
     id="circle4"
     style="fill:#66757f" />
  <circle
     cx="5.2828689"
     cy="9.3804502"
     r="4.592"
     id="circle6"
     style="fill:#66757f" />
  <path
     d="m 4.6798688,4.2554499 c 3.03,-2.02 12.5940002,-4.04 14.7330002,-4.218 2.139,-0.178 4.517,0.295 5.347,1.069 0.891,0.832 2.131,2.311 1.96,4.693 -0.178,2.495 -1.485,4.6340001 -4.218,5.0490001 -2.733,0.416 -8.554,-0.832 -11.168,0.238 -1.5830002,0.648 -1.9010002,0.178 -2.3170002,-0.95 -0.416,-1.1290001 -1.423,-2.6770001 -2.203,-3.6200001 -1.183,-1.429 -3.4,-1.417 -2.134,-2.261 z"
     id="path8"
     inkscape:connector-curvature="0"
     style="fill:#ccd6dd" />
  <path
     d="m 22.501869,10.84945 c 2.733,-0.416 4.04,-2.5540001 4.218,-5.0490001 0.03,-0.415 0.004,-0.793 -0.042,-1.155 -5.661,-0.212 -14.809,1.095 -18.7410002,3.45 0.446,0.697 0.854,1.427 1.081,2.0420001 0.416,1.129 0.734,1.598 2.3170002,0.951 2.613,-1.071 8.434,0.177 11.167,-0.239 z m -20.9550002,0.698 c -1.1,2.201 -0.505,6.034 3.301,11.003 2.287,2.986 3.658,4.841 4.758,5.941 1.1000002,1.1 5.5010002,0 4.4010002,-2.201 -3.301,-6.602 0.744,-10.343 -6.5520002,-15.049 -3.161,-2.0390001 -5.156,-1.198 -5.908,0.306 z"
     id="path10"
     inkscape:connector-curvature="0"
     style="fill:#99aab5" />
  <path
     d="m 12.054869,28.80245 c 1.358,-0.315 2.595,-1.225 1.952,-2.511 -3.301,-6.602 0.744,-10.343 -6.5520002,-15.049 -1.373,-0.886 -2.526,-1.228 -3.453,-1.209 6.3470002,5.916 3.403,9.656 8.0530002,18.769 z"
     id="path12"
     inkscape:connector-curvature="0"
     style="fill:#ccd6dd" />
  <path
     d="m 8.4918688,29.22245 c 0.278,0.253 1.134,0.43 1.6770002,0.6 -0.162,-0.236 -0.5740002,-0.917 -0.7350002,-1.257 -0.051,-0.108 -0.187,-0.15 -0.298,-0.094 l -0.677,0.426 c -0.131,0.064 -0.073,0.229 0.033,0.325 z m -6.869,5.581 c 1.108,0.427 2.151,0.629 3.153,0.652 0.076,0.002 2.741,0 4.072,-0.007 0.974,-0.005 1.8090002,-0.01 2.0910002,-0.008 l 0.174,0.001 0.263,0.002 c 1.844,0.011 3.116,0.105 3.668,-0.382 0.081,-0.072 0.112,-0.18 0.116,-0.3 0.006,-0.166 -0.008,-0.341 -0.008,-0.341 -0.035,0.125 -5.5700002,0.481 -7.4170002,0.58 -6.101,0.326 -7.589,-1.435 -7.656,-1.586 0,-0.001 0.142,0.848 1.544,1.389 z"
     id="path14"
     inkscape:connector-curvature="0"
     style="fill:#8899a6" />
  <path
     d="m 4.4328688,34.33945 c 2.065,0.131 10.3520002,-0.655 10.3520002,-0.655 l 0.214,-0.305 c 0.215,-0.305 0.178,-0.785 0.181,-1.198 0.003,-0.413 -0.119,-1.959 -0.302,-2.359 -0.183,-0.4 -0.555,-0.856 -0.899,-0.711 -0.432,0.181 -1.221,1.125 -1.89,1.12 -0.968,-0.006 -3.2150002,-1.482 -3.5330002,-1.485 -0.477,-0.003 -0.592,0.519 -1.64,0.914 -0.49,0.185 -2.727,1.049 -2.727,1.049 -0.572,0.21 -0.608,0.322 -0.914,0.44 -0.628,0.242 -1.996,0.653 -2.528,0.863 -0.532,0.21 -0.729,0.622 -0.745,0.928 -0.016,0.306 0.076,0.473 0.076,0.473 0,0 0.833,0.702 4.355,0.926 z"
     id="path16"
     inkscape:connector-curvature="0"
     style="fill:#be1931" />
  <path
     d="m 12.083869,30.61145 c 0.81,0.005 1.764,-1.19 2.297,-1.433 -0.13,-0.088 -0.268,-0.124 -0.402,-0.068 -0.431,0.181 -1.221,1.125 -1.89,1.12 -0.969,-0.006 -3.2150002,-1.482 -3.5330002,-1.485 -0.132,-0.001 -0.237,0.041 -0.341,0.107 0.789,0.491 2.8930002,1.753 3.8690002,1.759 z"
     id="path18"
     inkscape:connector-curvature="0"
     style="fill:#a0041e" />
  <path
     d="m 14.844869,33.57745 c 0,0 0.067,-0.022 0.145,-0.125 0.217,-0.285 0.204,-0.733 0.207,-1.121 0.002,-0.294 -0.043,-1.205 -0.156,-1.791 -0.38,0.068 -2.38,0.431 -3.1,0.773 -0.768,0.365 -1.411,1.457 -1.603,1.984 -0.008,0.021 4.507,0.28 4.507,0.28 z"
     id="path20"
     inkscape:connector-curvature="0"
     style="fill:#dd2e44" />
  <path
     d="m 7.7398688,30.20045 -0.379,-0.604 c -0.089,-0.143 -0.039,-0.327 0.112,-0.412 0.151,-0.085 0.347,-0.037 0.436,0.105 l 0.379,0.604 c 0.089,0.143 0.039,0.327 -0.112,0.412 -0.116,0.065 -0.258,0.053 -0.358,-0.021 -0.03,-0.023 -0.057,-0.051 -0.078,-0.084 z m -1.139,0.529 -0.296,-0.687 c -0.066,-0.154 0.012,-0.329 0.175,-0.392 0.163,-0.063 0.349,0.011 0.415,0.165 l 0.296,0.687 c 0.066,0.154 -0.012,0.329 -0.175,0.392 -0.109,0.042 -0.229,0.023 -0.316,-0.041 -0.043,-0.031 -0.077,-0.073 -0.099,-0.124 z m -1.2,0.343 -0.19,-0.652 c -0.046,-0.16 0.053,-0.325 0.223,-0.369 0.17,-0.044 0.345,0.05 0.391,0.21 l 0.19,0.653 c 0.046,0.16 -0.053,0.325 -0.223,0.369 -0.101,0.026 -0.204,0.004 -0.28,-0.053 -0.052,-0.039 -0.092,-0.093 -0.111,-0.158 z m -1.187,0.284 -0.125,-0.522 c -0.038,-0.162 0.069,-0.323 0.241,-0.359 0.172,-0.036 0.342,0.066 0.381,0.227 l 0.125,0.522 c 0.038,0.162 -0.069,0.323 -0.241,0.359 -0.097,0.021 -0.193,-0.003 -0.266,-0.056 -0.056,-0.041 -0.097,-0.1 -0.115,-0.171 z m 10.9520002,3.161 c -0.001,0.119 -0.139,0.316 -0.802,0.511 -0.466,0.138 -2.68,0.115 -3.423,0.111 -0.743,-0.005 -5.3330002,0.033 -6.1560002,0.015 -0.822,-0.018 -1.731,-0.145 -2.955,-0.545 -1.28,-0.419 -1.692,-1.054 -1.752,-1.196 0.344,0.2 0.822,0.357 1.399,0.456 0.447,0.077 1.171,0.165 1.979,0.236 0.809,0.071 1.886,-0.005 2.576,-0.08 0.691,-0.075 2.731,-0.586 3.873,-0.724 1.1420002,-0.138 2.7900002,-0.101 3.2280002,-0.099 0.438,0.003 1.031,0.059 1.282,0.192 0.251,0.133 0.596,0.109 0.596,0.109 0.253,0.003 0.158,0.724 0.155,1.014 z"
     id="path22"
     inkscape:connector-curvature="0"
     style="fill:#ccd6dd" />
  <path
     d="m 0.2018688,32.41545 c 0.378,0.267 1.401,0.317 2.282,0.054 1.099,-0.328 1.244,-0.825 1.083,-1.303 -0.011,-0.033 -0.043,-0.093 -0.062,-0.123 -0.251,0.102 -0.665,0.239 -0.749,0.28 -0.628,0.242 -1.476,0.48 -2.008,0.69 -0.253,0.098 -0.428,0.244 -0.546,0.402 z"
     id="path24"
     inkscape:connector-curvature="0"
     style="fill:#dd2e44" />
</svg>
