<?xml version="1.0" encoding="UTF-8" standalone="no"?>
<svg
   xmlns:dc="http://purl.org/dc/elements/1.1/"
   xmlns:cc="http://creativecommons.org/ns#"
   xmlns:rdf="http://www.w3.org/1999/02/22-rdf-syntax-ns#"
   xmlns:svg="http://www.w3.org/2000/svg"
   xmlns="http://www.w3.org/2000/svg"
   xmlns:sodipodi="http://sodipodi.sourceforge.net/DTD/sodipodi-0.dtd"
   xmlns:inkscape="http://www.inkscape.org/namespaces/inkscape"
   viewBox="0 0 23.435333 35.667065"
   id="svg2"
   version="1.1"
   inkscape:version="0.91 r13725"
   sodipodi:docname="1f9b5-1f3fc.svg"
   width="23.435333"
   height="35.667065">
  <metadata
     id="metadata12">
    <rdf:RDF>
      <cc:Work
         rdf:about="">
        <dc:format>image/svg+xml</dc:format>
        <dc:type
           rdf:resource="http://purl.org/dc/dcmitype/StillImage" />
      </cc:Work>
    </rdf:RDF>
  </metadata>
  <defs
     id="defs10" />
  <sodipodi:namedview
     pagecolor="#ffffff"
     bordercolor="#666666"
     borderopacity="1"
     objecttolerance="10"
     gridtolerance="10"
     guidetolerance="10"
     inkscape:pageopacity="0"
     inkscape:pageshadow="2"
     inkscape:window-width="640"
     inkscape:window-height="480"
     id="namedview8"
     showgrid="false"
     inkscape:zoom="6.5555556"
     inkscape:cx="13.180613"
     inkscape:cy="17.908456"
     inkscape:window-x="0"
     inkscape:window-y="0"
     inkscape:window-maximized="0"
     inkscape:current-layer="svg2" />
  <path
     d="m 20.034613,0.4896088 c 3.633,1.239 4.935,8.505 0.991,10.2970002 -1.586,0.72 -4.049,1.511 -6.185,1.032 -2.737,-0.613 -4.721,-0.238 -4.721,-0.238 0,0 4.797,2.19 6.339,6.323 1.542,4.133 1.072,7.171 3.235,9.163 1.708,1.573 2.79,3.7 1.639,4.994 -1.545,1.738 -3.929,-0.028 -6.1,2.48 -1.522,1.758 -4.81,1.182 -7.0880005,0.142 -2.879,-1.314 0.807,-2.191 1.842,-2.297 1.1500005,-0.117 5.2900005,-2.348 3.3300005,-5.544 -4.1960005,-6.841 -8.5010005,-10.544 -11.3130005,-12.61 -2.51399999,-1.846 -2.77199999,-5.3130002 -0.147,-8.4650002 1.662,-1.996 5.229,-3.554 9.2530005,-4.733 2.8,-0.821 5.973,-1.551 8.925,-0.544 z"
     id="path4"
     inkscape:connector-curvature="0"
     style="fill:#f3d2a2" />
  <path
     d="m 3.4476125,12.805609 -0.042,-0.02 c -0.381,-0.202 -0.526,-0.674 -0.324,-1.054 1.154,-2.1790002 0.472,-3.9990002 0.443,-4.0760002 -0.155,-0.4 0.041,-0.852 0.44,-1.01 0.398,-0.157 0.849,0.033 1.009,0.432 0.041,0.102 0.993,2.541 -0.513,5.3830002 -0.194,0.367 -0.64,0.515 -1.013,0.345 z"
     id="path6"
     inkscape:connector-curvature="0"
     style="fill:#d2a077" />
</svg>
