<?xml version="1.0" encoding="UTF-8" standalone="no"?>
<svg
   xmlns:dc="http://purl.org/dc/elements/1.1/"
   xmlns:cc="http://creativecommons.org/ns#"
   xmlns:rdf="http://www.w3.org/1999/02/22-rdf-syntax-ns#"
   xmlns:svg="http://www.w3.org/2000/svg"
   xmlns="http://www.w3.org/2000/svg"
   xmlns:sodipodi="http://sodipodi.sourceforge.net/DTD/sodipodi-0.dtd"
   xmlns:inkscape="http://www.inkscape.org/namespaces/inkscape"
   viewBox="0 0 31.679907 36"
   id="svg2"
   version="1.1"
   inkscape:version="0.91 r13725"
   sodipodi:docname="1f9bb-1f3fd.svg"
   width="31.679907"
   height="36">
  <metadata
     id="metadata22">
    <rdf:RDF>
      <cc:Work
         rdf:about="">
        <dc:format>image/svg+xml</dc:format>
        <dc:type
           rdf:resource="http://purl.org/dc/dcmitype/StillImage" />
      </cc:Work>
    </rdf:RDF>
  </metadata>
  <defs
     id="defs20" />
  <sodipodi:namedview
     pagecolor="#ffffff"
     bordercolor="#666666"
     borderopacity="1"
     objecttolerance="10"
     gridtolerance="10"
     guidetolerance="10"
     inkscape:pageopacity="0"
     inkscape:pageshadow="2"
     inkscape:window-width="640"
     inkscape:window-height="480"
     id="namedview18"
     showgrid="false"
     inkscape:zoom="6.5555556"
     inkscape:cx="14.679907"
     inkscape:cy="18"
     inkscape:window-x="0"
     inkscape:window-y="0"
     inkscape:window-maximized="0"
     inkscape:current-layer="svg2" />
  <path
     d="m 27.084907,23.361 c -0.449,-0.318 -0.555,-0.946 -0.237,-1.394 l 1.736,-2.447 c 0.318,-0.449 0.946,-0.555 1.394,-0.237 0.449,0.318 0.555,0.946 0.237,1.394 l -1.736,2.447 c -0.318,0.448 -0.945,0.555 -1.394,0.237 z"
     id="path4"
     inkscape:connector-curvature="0"
     style="fill:#66757f" />
  <path
     d="m 14.679907,0 c 7,0 17,2 17,12 0,7 -8,17 -14,17 -6,0 -3,-29 -3,-29 z"
     id="path6"
     inkscape:connector-curvature="0"
     style="fill:#99aab5" />
  <path
     d="m 25.679907,15 c -1,6 -4.599,8.097 -6,13 -2,7 -7,8 -10.9999997,8 -7,0 -3.856,-6.568 -7,-16 -3,-9 -2.716,-15.899 7,-18 C 17.929907,0 27.313907,5.194 25.679907,15 Z"
     id="path8"
     inkscape:connector-curvature="0"
     style="fill:#d4ab88" />
  <path
     d="m 20.627907,6.211 c -2.643,-2.178 -6.912,-3.018 -11.1399997,-2.192 -2.396,0.467 -4.207,1.644 -5.381,3.497 -2.517,3.973 -1.124,9.618 -1.063,9.856 0.136,0.535 0.678,0.862 1.215,0.723 0.535,-0.136 0.859,-0.68 0.723,-1.215 -0.004,-0.016 -0.134,-0.545 -0.24,-1.358 0.059,-0.004 0.117,0.007 0.177,-0.008 3.049,-0.751 5.1289997,-0.051 5.7009997,1.922 0.533,1.841 -0.446,4.513 -2.4419997,5.181 -1.008,0.264 -2.379,0.997 -2.924,2.199 -0.251,0.554 -0.435,1.446 0.116,2.549 0.175,0.351 0.528,0.553 0.895,0.553 0.15,0 0.303,-0.034 0.446,-0.106 0.494,-0.247 0.694,-0.848 0.447,-1.342 -0.216,-0.432 -0.151,-0.679 -0.084,-0.828 0.238,-0.524 1.084,-0.953 1.672,-1.109 3.2299997,-1.076 4.5919997,-4.898 3.7939997,-7.653 -0.685,-2.366 -3.1329997,-4.466 -7.9319997,-3.343 -0.008,-1.584 0.238,-3.45 1.189,-4.95 0.88,-1.389 2.213,-2.241 4.074,-2.604 3.6589997,-0.713 7.2919997,-0.033 9.4849997,1.773 1.542,1.269 2.324,3.034 2.324,5.244 0,3.48 -1.008,4.756 -2.403,6.522 -0.461,0.583 -0.938,1.186 -1.429,1.923 -0.307,0.46 -0.183,1.08 0.277,1.387 0.171,0.113 0.364,0.168 0.554,0.168 0.323,0 0.641,-0.156 0.833,-0.445 0.446,-0.67 0.898,-1.24 1.333,-1.792 1.458,-1.846 2.835,-3.588 2.835,-7.763 0,-2.797 -1.056,-5.145 -3.052,-6.789 z"
     id="path10"
     inkscape:connector-curvature="0"
     style="fill:#b78b60" />
  <circle
     cx="7.6799073"
     cy="18"
     r="5"
     id="circle12"
     style="fill:#66757f" />
  <circle
     cx="7.6799073"
     cy="18"
     r="3"
     id="circle14"
     style="fill:#99aab5" />
  <path
     d="m 7.6809073,19 c -0.072,0 -0.145,-0.008 -0.218,-0.024 -4.18,-0.929 -6.66500005,-4.504 -6.183,-8.897 C 1.8139073,5.225 6.2339073,0 14.679907,0 c 0.552,0 1,0.448 1,1 0,0.552 -0.448,1 -1,1 -7.2529997,0 -10.9579997,4.167 -11.4109997,8.297 -0.282,2.566 0.761,5.868 4.628,6.727 0.539,0.12 0.879,0.654 0.759,1.193 -0.103,0.466 -0.517,0.783 -0.975,0.783 z"
     id="path16"
     inkscape:connector-curvature="0"
     style="fill:#ccd6dd" />
</svg>
