<?xml version="1.0" encoding="UTF-8" standalone="no"?>
<svg
   xmlns:dc="http://purl.org/dc/elements/1.1/"
   xmlns:cc="http://creativecommons.org/ns#"
   xmlns:rdf="http://www.w3.org/1999/02/22-rdf-syntax-ns#"
   xmlns:svg="http://www.w3.org/2000/svg"
   xmlns="http://www.w3.org/2000/svg"
   xmlns:sodipodi="http://sodipodi.sourceforge.net/DTD/sodipodi-0.dtd"
   xmlns:inkscape="http://www.inkscape.org/namespaces/inkscape"
   viewBox="0 0 25.421707 35.933735"
   id="svg2"
   version="1.1"
   inkscape:version="0.91 r13725"
   sodipodi:docname="1f9b7.svg"
   width="25.421707"
   height="35.933735">
  <metadata
     id="metadata12">
    <rdf:RDF>
      <cc:Work
         rdf:about="">
        <dc:format>image/svg+xml</dc:format>
        <dc:type
           rdf:resource="http://purl.org/dc/dcmitype/StillImage" />
      </cc:Work>
    </rdf:RDF>
  </metadata>
  <defs
     id="defs10" />
  <sodipodi:namedview
     pagecolor="#ffffff"
     bordercolor="#666666"
     borderopacity="1"
     objecttolerance="10"
     gridtolerance="10"
     guidetolerance="10"
     inkscape:pageopacity="0"
     inkscape:pageshadow="2"
     inkscape:window-width="640"
     inkscape:window-height="480"
     id="namedview8"
     showgrid="false"
     inkscape:zoom="6.5555556"
     inkscape:cx="12.710854"
     inkscape:cy="18"
     inkscape:window-x="0"
     inkscape:window-y="0"
     inkscape:window-maximized="0"
     inkscape:current-layer="svg2" />
  <path
     d="m 12.710854,1.9337365 c -5.0000004,0 -6.8900004,-3.276 -10.9980004,-1.30000003 -4.002,1.92500003 -0.002,16.30199953 1.998,19.29999953 -0.444,2.537 -0.59,8.787 -0.171,10.91 0.576,2.921 1.561,5.09 2.748,5.09 2,0 2.423,-13.002 6.4230004,-13 l 0,-20.9999995 z m 0,0 c 5,0 6.89,-3.276 10.998,-1.30000003 4.002,1.92500003 0.002,16.30199953 -1.998,19.29999953 0.444,2.537 0.59,8.787 0.171,10.91 -0.575,2.921 -1.561,5.09 -2.748,5.09 -2,0 -2.423,-13.002 -6.423,-13 l 0,-20.9999995 z"
     id="path4"
     inkscape:connector-curvature="0"
     style="fill:#e1e8ed" />
  <path
     d="m 12.710854,7.1927365 c -2.278,0 -4.4190004,-0.81 -5.4440004,-1.563 -0.334,-0.245 -0.406,-0.715 -0.161,-1.048 0.246,-0.335 0.714,-0.405 1.048,-0.161 0.84,0.617 2.7220004,1.273 4.5560004,1.273 1.97,0 3.942,-0.709 4.489,-1.217 0.305,-0.282 0.777,-0.264 1.06,0.039 0.281,0.304 0.265,0.778 -0.039,1.06 -0.958,0.891 -3.431,1.617 -5.509,1.617 z"
     id="path6"
     inkscape:connector-curvature="0"
     style="fill:#9aaab4" />
</svg>
