<?xml version="1.0" encoding="UTF-8" standalone="no"?>
<svg
   xmlns:dc="http://purl.org/dc/elements/1.1/"
   xmlns:cc="http://creativecommons.org/ns#"
   xmlns:rdf="http://www.w3.org/1999/02/22-rdf-syntax-ns#"
   xmlns:svg="http://www.w3.org/2000/svg"
   xmlns="http://www.w3.org/2000/svg"
   xmlns:sodipodi="http://sodipodi.sourceforge.net/DTD/sodipodi-0.dtd"
   xmlns:inkscape="http://www.inkscape.org/namespaces/inkscape"
   viewBox="0 0 30.066 35.938999"
   id="svg2"
   version="1.1"
   inkscape:version="0.91 r13725"
   sodipodi:docname="1f9c1.svg"
   width="30.066"
   height="35.938999">
  <metadata
     id="metadata32">
    <rdf:RDF>
      <cc:Work
         rdf:about="">
        <dc:format>image/svg+xml</dc:format>
        <dc:type
           rdf:resource="http://purl.org/dc/dcmitype/StillImage" />
      </cc:Work>
    </rdf:RDF>
  </metadata>
  <defs
     id="defs30" />
  <sodipodi:namedview
     pagecolor="#ffffff"
     bordercolor="#666666"
     borderopacity="1"
     objecttolerance="10"
     gridtolerance="10"
     guidetolerance="10"
     inkscape:pageopacity="0"
     inkscape:pageshadow="2"
     inkscape:window-width="640"
     inkscape:window-height="480"
     id="namedview28"
     showgrid="false"
     inkscape:zoom="6.5555556"
     inkscape:cx="15.066"
     inkscape:cy="17.928"
     inkscape:window-x="0"
     inkscape:window-y="0"
     inkscape:window-maximized="0"
     inkscape:current-layer="svg2" />
  <path
     d="m 2.066,21.886 c 0,0 1.589,5.727 2,8.482 0.464,3.111 3.571,5.571 11,5.571 7.429,0 10.536,-2.461 11,-5.571 0.411,-2.755 2,-8.482 2,-8.482 l -26,0 z"
     id="path4"
     inkscape:connector-curvature="0"
     style="fill:#bbddf5" />
  <path
     d="m 2.16,21.98 c 0.25,1.219 0.694,1.994 1.344,1.594 0.65,-0.4 1.65,-0.193 1.344,0.625 -0.281,0.75 0.969,1.094 1.5,0.656 0.509,-0.419 1.555,-0.881 1.656,0.062 0.094,0.875 1.168,1.11 1.656,0.469 0.5,-0.656 1.875,-0.394 2.125,0.406 0.25,0.8 1.594,0.688 1.969,0.125 0.355,-0.533 0.713,-0.885 1.312,-0.885 l 0,-0.021 c 0.6,0 0.957,0.373 1.312,0.906 0.375,0.562 1.719,0.675 1.969,-0.125 0.25,-0.8 1.625,-1.062 2.125,-0.406 0.489,0.641 1.562,0.406 1.656,-0.469 0.101,-0.943 1.147,-0.482 1.656,-0.062 0.531,0.438 1.781,0.094 1.5,-0.656 -0.307,-0.818 0.694,-1.025 1.344,-0.625 0.65,0.4 1.094,-0.375 1.344,-1.594 l -25.812,0 z"
     id="path6"
     inkscape:connector-curvature="0"
     style="fill:#662113" />
  <path
     d="m 30.066,18.98 c 0,-4.919 -6.731,-8.906 -15.033,-8.906 C 6.73,10.074 0,14.061 0,18.98 c 0,3.969 9,6.031 15.033,6.031 6.033,0 15.033,-2 15.033,-6.031 z"
     id="path8"
     inkscape:connector-curvature="0"
     style="fill:#c1694f" />
  <path
     d="m 15.066,35.511 c -0.276,0 -0.5,-0.224 -0.5,-0.5 l 0,-8.646 c 0,-0.276 0.224,-0.5 0.5,-0.5 0.276,0 0.5,0.224 0.5,0.5 l 0,8.646 c 0,0.276 -0.224,0.5 -0.5,0.5 z M 8.367,34.243 c -0.248,0 -0.463,-0.184 -0.496,-0.436 L 6.84,25.825 C 6.805,25.551 6.998,25.3 7.272,25.264 c 0.272,-0.041 0.524,0.158 0.56,0.432 l 1.031,7.982 c 0.035,0.274 -0.158,0.525 -0.432,0.561 -0.021,0.003 -0.043,0.004 -0.064,0.004 z m 3.179,0.976 c -0.257,0 -0.476,-0.197 -0.498,-0.459 L 10.34,26.239 c -0.023,-0.274 0.182,-0.517 0.457,-0.539 0.283,-0.022 0.517,0.182 0.54,0.457 l 0.708,8.521 c 0.023,0.274 -0.182,0.517 -0.457,0.539 l -0.042,0.002 z M 5.587,32.178 c -0.175,0 -0.331,-0.123 -0.367,-0.301 l -1.5,-7.438 c -0.041,-0.203 0.09,-0.4 0.293,-0.441 0.198,-0.048 0.4,0.09 0.442,0.293 l 1.5,7.438 c 0.041,0.203 -0.09,0.4 -0.293,0.441 -0.026,0.006 -0.051,0.008 -0.075,0.008 z m 16.1,1.952 c -0.024,0 -0.048,-0.002 -0.072,-0.005 -0.273,-0.039 -0.463,-0.293 -0.424,-0.566 l 1.13,-7.869 c 0.039,-0.274 0.296,-0.456 0.566,-0.424 0.273,0.039 0.463,0.293 0.424,0.566 l -1.13,7.869 c -0.036,0.249 -0.25,0.429 -0.494,0.429 z m -3.042,1.089 -0.042,-0.002 c -0.275,-0.022 -0.48,-0.265 -0.457,-0.539 l 0.708,-8.521 c 0.022,-0.276 0.292,-0.474 0.539,-0.457 0.275,0.022 0.48,0.265 0.457,0.539 l -0.708,8.521 c -0.021,0.262 -0.24,0.459 -0.497,0.459 z m 5.983,-3 c -0.023,0 -0.047,-0.002 -0.07,-0.007 -0.204,-0.039 -0.337,-0.235 -0.298,-0.438 l 1.438,-7.479 c 0.039,-0.203 0.241,-0.337 0.438,-0.298 0.204,0.039 0.337,0.235 0.298,0.438 l -1.438,7.479 c -0.034,0.18 -0.191,0.305 -0.368,0.305 z"
     id="path10"
     inkscape:connector-curvature="0"
     style="fill:#88c9f9" />
  <path
     d="m 13.978,0 c 0,0 1.087,1.144 2.175,1.167 2.268,0.049 4.355,1.315 4.355,3.506 0,0 5.261,0 5.443,4.674 0,0 2.655,0.045 3.263,4.672 0.454,3.456 -3.038,8.227 -14.148,8.178 C 5.271,22.154 0.26,18.673 0.918,14.021 1.552,9.541 5.272,9.348 5.272,9.348 c 0,0 -0.636,-5.843 6.529,-5.842 0,0 0.726,-2.337 2.177,-3.506 z"
     id="path12"
     inkscape:connector-curvature="0"
     style="fill:#ffe8b6" />
  <path
     d="m 14.976,10.515 c 2.936,-1.108 5.623,-3.115 5.533,-5.841 0,-0.858 -0.327,-1.568 -0.852,-2.125 0.643,2.808 -3.651,6 -8.399,6.506 C 5.317,9.688 5.997,6.183 5.997,6.183 L 5.99,6.19 C 5.107,7.726 5.273,9.349 5.273,9.349 c 0.905,2.383 5.576,2.724 9.703,1.166 z"
     id="path14"
     inkscape:connector-curvature="0"
     style="fill:#ffcc4d" />
  <path
     d="M 25.951,9.348 C 25.945,9.205 25.921,9.08 25.906,8.946 25.79,8.269 25.453,7.44 25.132,6.808 24.942,6.543 24.732,6.309 24.502,6.106 25.611,10.532 18.939,15.855 12.572,17.088 4.273,18.694 0.918,14.023 0.918,14.023 0.576,16.438 1.776,18.532 4.367,19.999 14.594,24.168 26.04,13.904 25.951,9.348 Z"
     id="path16"
     inkscape:connector-curvature="0"
     style="fill:#ffcc4d" />
  <path
     d="M 5.755,14.212 4.574,15.826 C 4.249,16.27 3.62,16.367 3.176,16.042 2.732,15.717 2.635,15.088 2.96,14.644 L 4.141,13.03 c 0.325,-0.444 0.954,-0.541 1.398,-0.216 0.444,0.325 0.541,0.954 0.216,1.398 z"
     id="path18"
     inkscape:connector-curvature="0"
     style="fill:#dd2e44" />
  <path
     d="M 12.001,8.198 10.045,7.779 C 9.507,7.664 9.161,7.129 9.277,6.592 9.392,6.054 9.927,5.708 10.464,5.824 l 1.956,0.419 c 0.538,0.115 0.884,0.65 0.768,1.187 -0.115,0.538 -0.649,0.884 -1.187,0.768 z"
     id="path20"
     inkscape:connector-curvature="0"
     style="fill:#55acee" />
  <path
     d="m 13.497,14.184 1.313,1.509 c 0.361,0.415 0.317,1.05 -0.098,1.411 -0.415,0.361 -1.05,0.317 -1.411,-0.098 l -1.313,-1.509 c -0.361,-0.415 -0.317,-1.05 0.098,-1.411 0.415,-0.361 1.05,-0.317 1.411,0.098 z"
     id="path22"
     inkscape:connector-curvature="0"
     style="fill:#77b255" />
  <path
     d="m 21.438,11.51 -1.871,0.707 c -0.515,0.194 -1.095,-0.068 -1.289,-0.582 -0.194,-0.515 0.068,-1.095 0.582,-1.289 l 1.871,-0.707 c 0.515,-0.194 1.095,0.068 1.289,0.582 0.195,0.514 -0.067,1.094 -0.582,1.289 z"
     id="path24"
     inkscape:connector-curvature="0"
     style="fill:#f4900c" />
  <path
     d="m 27.432,14.062 -1,1.732 C 26.157,16.27 25.542,16.435 25.066,16.16 24.59,15.885 24.425,15.27 24.7,14.794 l 1,-1.732 c 0.275,-0.476 0.89,-0.641 1.366,-0.366 0.476,0.275 0.641,0.889 0.366,1.366 z"
     id="path26"
     inkscape:connector-curvature="0"
     style="fill:#aa8dd8" />
</svg>
