<?xml version="1.0" encoding="UTF-8" standalone="no"?>
<svg
   xmlns:dc="http://purl.org/dc/elements/1.1/"
   xmlns:cc="http://creativecommons.org/ns#"
   xmlns:rdf="http://www.w3.org/1999/02/22-rdf-syntax-ns#"
   xmlns:svg="http://www.w3.org/2000/svg"
   xmlns="http://www.w3.org/2000/svg"
   xmlns:sodipodi="http://sodipodi.sourceforge.net/DTD/sodipodi-0.dtd"
   xmlns:inkscape="http://www.inkscape.org/namespaces/inkscape"
   viewBox="0 0 11.68413 35.112"
   id="svg2"
   version="1.1"
   inkscape:version="0.91 r13725"
   sodipodi:docname="1f9cd-200d-2640-fe0f.svg"
   width="11.68413"
   height="35.112">
  <metadata
     id="metadata38">
    <rdf:RDF>
      <cc:Work
         rdf:about="">
        <dc:format>image/svg+xml</dc:format>
        <dc:type
           rdf:resource="http://purl.org/dc/dcmitype/StillImage" />
      </cc:Work>
    </rdf:RDF>
  </metadata>
  <defs
     id="defs36" />
  <sodipodi:namedview
     pagecolor="#ffffff"
     bordercolor="#666666"
     borderopacity="1"
     objecttolerance="10"
     gridtolerance="10"
     guidetolerance="10"
     inkscape:pageopacity="0"
     inkscape:pageshadow="2"
     inkscape:window-width="640"
     inkscape:window-height="480"
     id="namedview34"
     showgrid="false"
     inkscape:zoom="6.5555556"
     inkscape:cx="5.8420647"
     inkscape:cy="17.898"
     inkscape:window-x="0"
     inkscape:window-y="0"
     inkscape:window-maximized="0"
     inkscape:current-layer="svg2" />
  <path
     d="m 1.2910647,21.783 c -0.236,0.161 -0.51200004,-0.02 -0.64600004,-0.131 -0.379,-0.313 -0.763,-1.144 -0.611,-2.142 0.154,-1.008 0.404,-2.185 0.878,-4.137 0.055,-0.228 -0.274,-2.776 0.007,-4.528 0.076,-0.473 0.95800004,-1.066 1.49500004,-1.057 0.536,0.008 0.263,0.944 0.274,1.101 0.12,1.682 -0.143,4.279 -0.193,4.632 -0.277,1.956 -1.239,2.835 -0.981,4.13 0.135,0.679 0.154,1.293 -0.242,1.345 0.004,0.366 0.105,0.728 0.019,0.787 z m 9.1020003,0 c 0.236,0.161 0.512,-0.02 0.646,-0.131 0.379,-0.313 0.763,-1.144 0.611,-2.142 -0.154,-1.008 -0.404,-2.185 -0.878,-4.137 -0.055,-0.228 0.274,-2.776 -0.007,-4.528 -0.076,-0.473 -0.9580003,-1.066 -1.4950003,-1.057 -0.536,0.008 -0.263,0.944 -0.274,1.101 -0.12,1.682 0.143,4.279 0.193,4.632 0.277,1.956 1.2390003,2.835 0.9810003,4.13 -0.135,0.679 -0.154,1.293 0.242,1.345 -0.004,0.366 -0.105,0.728 -0.019,0.787 z"
     id="path4"
     inkscape:connector-curvature="0"
     style="fill:#ffdc5d" />
  <path
     d="m 9.5590647,24.384 c 0,-1.012 0.084,-3.628 -0.241,-5.198 -0.325,-1.57 -6.687,-1.605 -7.012,0 -0.325,1.605 -0.075,4.081 -0.075,5.158 0,2.141 1.159,7.747 0.862,9.903 -0.066,0.479 2.492,0.937 2.449,-0.125 -0.078,-1.969 -0.104,-5.193 -0.04,-6.18 0.035,-0.547 0.171,-4.771 0.265,-6.105 0.011,-0.018 0.295,-0.018 0.306,0 0.094,1.333 0.387,5.558 0.423,6.105 0.064,0.987 0.137,4.212 0.059,6.18 -0.042,1.062 2.525,0.604 2.459,0.125 -0.296,-2.156 0.545,-9.514 0.545,-9.863 z"
     id="path6"
     inkscape:connector-curvature="0"
     style="fill:#4289c1" />
  <path
     d="m 7.5860647,4.767 c 0.814,0.198 1.151,0.895 1.116,1.616 -0.024,0.488 0.384,0.93 0.384,0.93 0,0 -2.07,0.419 -2.481,-1.409 -0.371,-1.641 0.981,-1.137 0.981,-1.137 z"
     id="path8"
     inkscape:connector-curvature="0"
     style="fill:#ffac33" />
  <path
     d="m 9.9730647,8.585 c -0.665,-0.794 -3.019,-1.356 -3.019,-1.356 l -2.225,0 c 0,0 -2.355,0.561 -3.019,1.356 -0.80700004,0.964 -0.98200004,2.71 -0.98200004,2.71 l 1.60800004,0.298 c 0,0 0.461,1.862 0.461,3.3 0,1.147 -0.422,3.328 -0.593,4.163 -0.043,0.211 -0.035,0.227 0,0.279 0.035,0.052 0.233,0.057 0.233,0.057 l 6.814,0 c 0,0 0.128,0.022 0.198,-0.036 0.07,-0.058 0.051,-0.084 0.002,-0.286 -0.203,-0.833 -0.722,-3.073 -0.722,-4.176 0,-1.371 0.65,-3.301 0.65,-3.301 l 1.5800003,-0.298 c -0.004,-10e-4 -0.179,-1.746 -0.9860003,-2.71 z"
     id="path10"
     inkscape:connector-curvature="0"
     style="fill:#9268ca" />
  <path
     d="m 7.2020647,3.575 -2.688,0.019 0,3.981 c 0,0.963 2.688,0.998 2.688,0 l 0,-4 z"
     id="path12"
     inkscape:connector-curvature="0"
     style="fill:#ffdc5d" />
  <path
     d="m 7.2020647,3.065 -2.688,0.019 0,3.901 c 0,0 1.17,1.151 2.688,0.035 l 0,-3.955 z"
     id="path14"
     inkscape:connector-curvature="0"
     style="fill:#f9ca55" />
  <path
     d="m 2.9520647,2.651 c 0,-1.753 1.335,-2.651 2.983,-2.651 1.647,0 2.983,0.898 2.983,2.651 0,1.753 -1.335,3.174 -2.983,3.174 -1.648,0 -2.983,-1.421 -2.983,-3.174 z"
     id="path16"
     inkscape:connector-curvature="0"
     style="fill:#ffac33" />
  <path
     d="m 8.5440647,1.497 -5.21,0 0,2.738 c 0,1.337 1.447,2.993 2.605,2.993 1.158,0 2.605,-1.516 2.605,-2.912 l 0,-2.819 z"
     id="path18"
     inkscape:connector-curvature="0"
     style="fill:#ffdc5d" />
  <path
     d="m 6.0410647,1.447 c 0,0 -0.967,1.739 -2.707,1.739 l 0,-1.739 2.707,0 z"
     id="path20"
     inkscape:connector-curvature="0"
     style="fill:#ffac33" />
  <path
     d="m 5.7790647,1.447 c 0,0 1.033,1.739 2.772,1.739 l 0,-1.739 -2.772,0 z"
     id="path22"
     inkscape:connector-curvature="0"
     style="fill:#ffac33" />
  <circle
     cx="4.8910646"
     cy="3.9909999"
     r="0.33899999"
     id="circle24"
     style="fill:#662113" />
  <circle
     cx="7.0070658"
     cy="3.9909999"
     r="0.33899999"
     id="circle26"
     style="fill:#662113" />
  <path
     d="m 5.9540647,6.244 c -0.404,0 -0.616,-0.2 -0.639,-0.223 -0.067,-0.067 -0.067,-0.176 0,-0.243 0.067,-0.067 0.174,-0.067 0.242,-0.002 0.009,0.008 0.139,0.124 0.397,0.124 0.261,0 0.391,-0.119 0.397,-0.124 0.069,-0.064 0.177,-0.062 0.242,0.005 0.065,0.068 0.065,0.174 -0.001,0.24 -0.022,0.023 -0.233,0.223 -0.638,0.223"
     id="path28"
     inkscape:connector-curvature="0"
     style="fill:#df1f32" />
  <path
     d="m 6.1520647,5.352 -0.395,0 c -0.109,0 -0.198,-0.089 -0.198,-0.198 0,-0.109 0.089,-0.198 0.198,-0.198 l 0.395,0 c 0.109,0 0.198,0.089 0.198,0.198 -0.001,0.109 -0.09,0.198 -0.198,0.198 z"
     id="path30"
     inkscape:connector-curvature="0"
     style="fill:#c1694f" />
  <path
     d="m 2.0150647,35.112 c -0.558,-0.051 -0.192,-0.684 0.062,-0.897 0.282,-0.238 0.734,-0.441 0.961,-0.852 0.251,-0.455 1.465,-0.395 1.721,-0.023 0.457,0.664 0.66,0.179 0.792,0.488 0.212,0.494 0.05,1.284 0.05,1.284 l -3.586,0 z m 8.0290003,0 c 0.558,-0.051 0.192,-0.684 -0.062,-0.897 -0.282,-0.238 -0.734,-0.441 -0.961,-0.852 -0.251,-0.455 -1.465,-0.395 -1.721,-0.023 -0.457,0.664 -0.66,0.179 -0.792,0.488 -0.212,0.494 -0.05,1.284 -0.05,1.284 l 3.5860003,0 z"
     id="path32"
     inkscape:connector-curvature="0"
     style="fill:#292f33" />
</svg>
