<?xml version="1.0" encoding="UTF-8" standalone="no"?>
<svg
   xmlns:dc="http://purl.org/dc/elements/1.1/"
   xmlns:cc="http://creativecommons.org/ns#"
   xmlns:rdf="http://www.w3.org/1999/02/22-rdf-syntax-ns#"
   xmlns:svg="http://www.w3.org/2000/svg"
   xmlns="http://www.w3.org/2000/svg"
   xmlns:sodipodi="http://sodipodi.sourceforge.net/DTD/sodipodi-0.dtd"
   xmlns:inkscape="http://www.inkscape.org/namespaces/inkscape"
   viewBox="0 0 35.64225 28.88275"
   id="svg2"
   version="1.1"
   inkscape:version="0.91 r13725"
   sodipodi:docname="1f9c8.svg"
   width="35.64225"
   height="28.88275">
  <metadata
     id="metadata24">
    <rdf:RDF>
      <cc:Work
         rdf:about="">
        <dc:format>image/svg+xml</dc:format>
        <dc:type
           rdf:resource="http://purl.org/dc/dcmitype/StillImage" />
      </cc:Work>
    </rdf:RDF>
  </metadata>
  <defs
     id="defs22" />
  <sodipodi:namedview
     pagecolor="#ffffff"
     bordercolor="#666666"
     borderopacity="1"
     objecttolerance="10"
     gridtolerance="10"
     guidetolerance="10"
     inkscape:pageopacity="0"
     inkscape:pageshadow="2"
     inkscape:window-width="640"
     inkscape:window-height="480"
     id="namedview20"
     showgrid="false"
     inkscape:zoom="6.5555556"
     inkscape:cx="17.8215"
     inkscape:cy="17.76975"
     inkscape:window-x="0"
     inkscape:window-y="0"
     inkscape:window-maximized="0"
     inkscape:current-layer="svg2" />
  <path
     d="m 34.9665,15.273 -22.86,13.219 c -0.902,0.521 -2.364,0.521 -3.266,0 L 0.6765,23.771 C 0.2255,23.51 5e-4,23.169 5e-4,22.827 l 0,-1.843 23.535,-12.32 c 0.902,-0.521 2.364,-0.521 3.266,0 l 8.84,3.819 c 0,0.558 -0.005,1.497 0,1.834 0.006,0.345 -0.219,0.692 -0.675,0.956 z"
     id="path4"
     inkscape:connector-curvature="0"
     style="fill:#99aab5" />
  <path
     d="m 34.9665,13.457 -22.86,13.219 c -0.902,0.521 -2.364,0.521 -3.266,0 l -8.164,-4.721 c -0.902,-0.521 -0.902,-1.367 0,-1.888 l 22.86,-13.219 c 0.902,-0.521 2.364,-0.521 3.266,0 l 8.164,4.721 c 0.901,0.521 0.901,1.367 0,1.888 z"
     id="path6"
     inkscape:connector-curvature="0"
     style="fill:#ccd6dd" />
  <path
     d="m 32.8215,12.124 0,-8.083 -7,-4.041 -13.042,7.502 0,8.083 7,4.042 z"
     id="path8"
     inkscape:connector-curvature="0"
     style="fill:#ffe8b6" />
  <path
     d="m 32.8215,12.124 0,-8.083 -13.042,7.503 -7,-4.042 0,8.083 7,4.042 z"
     id="path10"
     inkscape:connector-curvature="0"
     style="fill:#ffd983" />
  <path
     d="m 32.8215,12.124 0,-8.083 -13.042,7.503 0,8.083 z"
     id="path12"
     inkscape:connector-curvature="0"
     style="fill:#ffcc4d" />
  <path
     d="m 17.0035,21.415 0,-2.012 -7,-4.041 -7.182,4.076 0,2.012 7,4.041 z"
     id="path14"
     inkscape:connector-curvature="0"
     style="fill:#ffe8b6" />
  <path
     d="m 17.0035,21.415 0,-2.012 -7,4.059 -7.182,-4.024 0,2.012 7,4.041 z"
     id="path16"
     inkscape:connector-curvature="0"
     style="fill:#ffd983" />
  <path
     d="m 17.0035,21.415 0,-2.012 -7,4.059 -0.182,2.029 z"
     id="path18"
     inkscape:connector-curvature="0"
     style="fill:#ffcc4d" />
</svg>
