<?xml version="1.0" encoding="UTF-8" standalone="no"?>
<svg
   xmlns:dc="http://purl.org/dc/elements/1.1/"
   xmlns:cc="http://creativecommons.org/ns#"
   xmlns:rdf="http://www.w3.org/1999/02/22-rdf-syntax-ns#"
   xmlns:svg="http://www.w3.org/2000/svg"
   xmlns="http://www.w3.org/2000/svg"
   xmlns:sodipodi="http://sodipodi.sourceforge.net/DTD/sodipodi-0.dtd"
   xmlns:inkscape="http://www.inkscape.org/namespaces/inkscape"
   viewBox="0 0 12.44813 35.208988"
   id="svg2"
   version="1.1"
   inkscape:version="0.91 r13725"
   sodipodi:docname="1f9cd-1f3fb-200d-2642-fe0f.svg"
   width="12.44813"
   height="35.208988">
  <metadata
     id="metadata32">
    <rdf:RDF>
      <cc:Work
         rdf:about="">
        <dc:format>image/svg+xml</dc:format>
        <dc:type
           rdf:resource="http://purl.org/dc/dcmitype/StillImage" />
      </cc:Work>
    </rdf:RDF>
  </metadata>
  <defs
     id="defs30" />
  <sodipodi:namedview
     pagecolor="#ffffff"
     bordercolor="#666666"
     borderopacity="1"
     objecttolerance="10"
     gridtolerance="10"
     guidetolerance="10"
     inkscape:pageopacity="0"
     inkscape:pageshadow="2"
     inkscape:window-width="640"
     inkscape:window-height="480"
     id="namedview28"
     showgrid="false"
     inkscape:zoom="6.5555556"
     inkscape:cx="6.2240647"
     inkscape:cy="17.907"
     inkscape:window-x="0"
     inkscape:window-y="0"
     inkscape:window-maximized="0"
     inkscape:current-layer="svg2" />
  <path
     d="m 11.157065,21.669986 c 0.236,0.161 0.512,-0.02 0.646,-0.131 0.379,-0.313 0.763,-1.144 0.611,-2.142 -0.154,-1.008 -0.11,-2.185 -0.584,-4.137 -0.055,-0.228 0.274,-2.776 -0.007,-4.528 -0.076,-0.473 -1.251,-1.0659997 -1.789,-1.0569997 -0.5360003,0.008 -0.2630003,0.9439997 -0.2740003,1.1009997 -0.12,1.682 0.143,4.279 0.193,4.632 0.2770003,1.956 1.2390003,2.835 0.9810003,4.13 -0.135,0.679 -0.154,1.293 0.242,1.345 -0.004,0.366 -0.105,0.728 -0.019,0.787 z m -9.8660003,-0.192 c -0.236,0.161 -0.51200004,-0.02 -0.64600004,-0.131 -0.379,-0.313 -0.763,-1.144 -0.611,-2.142 0.154,-1.008 0.11,-2.185 0.584,-4.137 0.055,-0.228 -0.274,-2.776 0.007,-4.528 0.076,-0.473 1.25100004,-1.0659997 1.78900004,-1.0569997 0.536,0.008 0.263,0.9439997 0.274,1.1009997 0.12,1.682 -0.143,4.279 -0.193,4.632 -0.277,1.956 -1.239,2.835 -0.981,4.13 0.135,0.679 0.154,1.293 -0.242,1.345 0.004,0.366 0.105,0.728 0.019,0.787 z"
     id="path4"
     inkscape:connector-curvature="0"
     style="fill:#f7dece" />
  <path
     d="m 9.9260647,26.034986 c 0.021,-3.063 0.014,-6.5 0.014,-6.5 l -7.465,0 c 0,0 0.035,3.747 0.123,6.46 0.07,2.14 0.396,6.193 0.1,8.349 -0.066,0.479 2.886,0.937 2.844,-0.125 -0.078,-1.969 0.264,-6.322 0.328,-7.309 0.035,-0.547 0.25,-2.326 0.344,-3.659 0.011,-0.018 0.295,-0.018 0.306,0 0.094,1.333 0.308,3.112 0.344,3.659 0.064,0.987 0.406,5.34 0.328,7.309 -0.042,1.062 2.9100003,0.604 2.8440003,0.125 -0.2980003,-2.157 -0.1130003,-7.96 -0.1100003,-8.309 z"
     id="path6"
     inkscape:connector-curvature="0"
     style="fill:#4289c1" />
  <path
     d="m 11.046065,8.7739863 c -0.778,-0.849 -3.5360003,-1.449 -3.5360003,-1.449 l -2.605,0 c 0,0 -2.757,0.6 -3.536,1.449 -0.94500004,1.031 -1.15000004,2.8949997 -1.15000004,2.8949997 l 1.88200004,0.318 c 0,0 0.283,0.9 0.283,2.436 0,1.536 -0.177,5.896 -0.177,5.896 l 8.0320003,0 c 0,0 -0.209,-4.43 -0.209,-5.895 0,-1.465 0.315,-2.437 0.315,-2.437 l 1.85,-0.318 c 0.001,0 -0.205,-1.8649997 -1.149,-2.8949997 z"
     id="path8"
     inkscape:connector-curvature="0"
     style="fill:#77b255" />
  <path
     d="m 7.5680647,3.6709863 -2.688,0.019 0,3.981 c 0,0.963 2.688,0.998 2.688,0 l 0,-4 z"
     id="path10"
     inkscape:connector-curvature="0"
     style="fill:#f7dece" />
  <path
     d="m 7.5680647,3.1619863 -2.688,0.019 0,3.901 c 0,0 1.17,1.151 2.688,0.035 l 0,-3.955 z"
     id="path12"
     inkscape:connector-curvature="0"
     style="fill:#eec2ad" />
  <path
     d="m 6.6260647,0.01798632 c -0.613,-0.078 -1.567,0.093 -2.032,0.605 -0.651,-0.233 -1.415,0.47899998 -1.415,1.45299998 0,1.116 0.164,2.206 0.857,2.64 0.52,0.723 1.571,1.046 2.53,1.046 1.582,0 2.703,-0.756 2.703,-3.093 0,-1.88299998 -0.992,-2.44199998 -2.643,-2.65099998 z"
     id="path14"
     inkscape:connector-curvature="0"
     style="fill:#292f33" />
  <path
     d="m 8.9110647,1.5939863 -5.21,0 0,2.738 c 0,1.337 1.166,2.993 2.605,2.993 1.439,0 2.605,-1.516 2.605,-2.912 l 0,-2.819 z"
     id="path16"
     inkscape:connector-curvature="0"
     style="fill:#f7dece" />
  <path
     d="m 5.3700647,0.88998632 -1.67,0.70399998 0,2.084 c 0,-0.799 0.545,-0.846 0.871,-1.358 0.012,0.322 0.658,0.628 1.636,0.628 0.744,0 2.703,-1.291 2.703,0.73 l 0,-2.369 -3.54,-0.41899998 z"
     id="path18"
     inkscape:connector-curvature="0"
     style="fill:#292f33" />
  <circle
     cx="5.2570658"
     cy="4.087986"
     r="0.33899999"
     id="circle20"
     style="fill:#662113" />
  <circle
     cx="7.3740644"
     cy="4.087986"
     r="0.33899999"
     id="circle22"
     style="fill:#662113" />
  <path
     d="m 6.7970647,6.2859863 -0.953,0 c -0.102,0 -0.186,-0.084 -0.186,-0.186 0,-0.102 0.084,-0.186 0.186,-0.186 l 0.953,0 c 0.102,0 0.186,0.084 0.186,0.186 0,0.102 -0.084,0.186 -0.186,0.186 z m -0.279,-0.838 -0.395,0 c -0.109,0 -0.198,-0.089 -0.198,-0.198 0,-0.109 0.089,-0.198 0.198,-0.198 l 0.395,0 c 0.109,0 0.198,0.089 0.198,0.198 0,0.109 -0.089,0.198 -0.198,0.198 z"
     id="path24"
     inkscape:connector-curvature="0"
     style="fill:#c1694f" />
  <path
     d="m 2.0130647,35.208986 c -0.558,-0.051 -0.192,-0.684 0.062,-0.897 0.282,-0.238 0.734,-0.441 0.961,-0.852 0.251,-0.455 1.465,-0.395 1.721,-0.023 0.457,0.664 0.66,0.179 0.792,0.488 0.212,0.494 0.05,1.284 0.05,1.284 l -3.586,0 z m 8.6660003,0 c 0.558,-0.051 0.192,-0.684 -0.062,-0.897 -0.282,-0.238 -0.7340003,-0.441 -0.9610003,-0.852 -0.251,-0.455 -1.465,-0.395 -1.721,-0.023 -0.457,0.664 -0.66,0.179 -0.792,0.488 -0.212,0.494 -0.05,1.284 -0.05,1.284 l 3.5860003,0 z"
     id="path26"
     inkscape:connector-curvature="0"
     style="fill:#292f33" />
</svg>
