<?xml version="1.0" encoding="UTF-8" standalone="no"?>
<svg
   xmlns:dc="http://purl.org/dc/elements/1.1/"
   xmlns:cc="http://creativecommons.org/ns#"
   xmlns:rdf="http://www.w3.org/1999/02/22-rdf-syntax-ns#"
   xmlns:svg="http://www.w3.org/2000/svg"
   xmlns="http://www.w3.org/2000/svg"
   xmlns:sodipodi="http://sodipodi.sourceforge.net/DTD/sodipodi-0.dtd"
   xmlns:inkscape="http://www.inkscape.org/namespaces/inkscape"
   viewBox="0 0 34.099998 32.411999"
   id="svg2"
   version="1.1"
   inkscape:version="0.91 r13725"
   sodipodi:docname="1f9c0.svg"
   width="34.099998"
   height="32.411999">
  <metadata
     id="metadata16">
    <rdf:RDF>
      <cc:Work
         rdf:about="">
        <dc:format>image/svg+xml</dc:format>
        <dc:type
           rdf:resource="http://purl.org/dc/dcmitype/StillImage" />
      </cc:Work>
    </rdf:RDF>
  </metadata>
  <defs
     id="defs14" />
  <sodipodi:namedview
     pagecolor="#ffffff"
     bordercolor="#666666"
     borderopacity="1"
     objecttolerance="10"
     gridtolerance="10"
     guidetolerance="10"
     inkscape:pageopacity="0"
     inkscape:pageshadow="2"
     inkscape:window-width="640"
     inkscape:window-height="480"
     id="namedview12"
     showgrid="false"
     inkscape:zoom="6.5555556"
     inkscape:cx="17"
     inkscape:cy="16.654"
     inkscape:window-x="0"
     inkscape:window-y="0"
     inkscape:window-maximized="0"
     inkscape:current-layer="svg2" />
  <path
     d="m 10.792,3.82 -0.011,3.324 5.348,-1.386 -2.936,-2 z M 32.25,21.24 c 0,-1.138 0.761,-2.071 1.75,-2.238 L 34,7.343 C 30,6.381 0,14.534 0,14.534 l 0,3.536 c 1.564,0.294 2.75,1.662 2.75,3.312 0,1.65 -1.186,3.02 -2.75,3.314 l 0,7.716 34,-6.482 0,-2.451 C 33.011,23.311 32.25,22.377 32.25,21.24 Z"
     id="path4"
     inkscape:connector-curvature="0"
     style="fill:#ffac33" />
  <path
     d="M 14.585,0 10.742,3.843 C 11.479,4.015 12,4.434 12,4.925 12,5.57 11.104,6.092 10,6.092 9.526,6.092 9.097,5.992 8.755,5.832 L 0,14.586 C 13.167,11.675 22.042,9.3 34.1,7.36 29.238,0.878 17.827,0 14.585,0 Z"
     id="path6"
     inkscape:connector-curvature="0"
     style="fill:#ffd983" />
  <path
     d="m 19,2.925 c 0,0.645 -0.896,1.167 -2,1.167 -1.104,0 -2,-0.522 -2,-1.167 0,-0.645 0.896,-1.167 2,-1.167 1.104,0 2,0.522 2,1.167 z M 14.072,9.32 c 0,0.978 -1.359,1.771 -3.036,1.771 C 9.359,11.091 8,10.298 8,9.32 8,8.343 9.359,7.549 11.036,7.549 12.712,7.55 14.072,8.343 14.072,9.32 Z M 28,6.11 c 0,1.094 -1.521,1.981 -3.396,1.981 -1.875,0 -3.396,-0.887 -3.396,-1.981 0,-1.094 1.521,-1.981 3.396,-1.981 1.875,0 3.396,0.887 3.396,1.981 z"
     id="path8"
     inkscape:connector-curvature="0"
     style="fill:#ffac33" />
  <path
     d="m 32.625,13.378 c 0,1.332 -0.979,2.411 -2.188,2.411 -1.209,0 -2.188,-1.079 -2.188,-2.411 0,-1.332 0.979,-2.411 2.188,-2.411 1.209,0 2.188,1.079 2.188,2.411 z m -22.25,4.862 c 0,1.255 -0.923,2.272 -2.062,2.272 -1.139,0 -2.062,-1.018 -2.062,-2.272 0,-1.256 0.923,-2.273 2.062,-2.273 1.139,0 2.062,1.018 2.062,2.273 z m 17.156,4.98 c -0.503,0.602 -1.355,0.72 -1.903,0.262 -0.547,-0.457 -0.582,-1.317 -0.077,-1.919 0.505,-0.605 1.356,-0.722 1.903,-0.265 0.548,0.458 0.582,1.317 0.077,1.922 z m -9.684,-7.378 c -0.677,0.811 -1.825,0.97 -2.562,0.353 -0.736,-0.615 -0.783,-1.773 -0.104,-2.583 0.68,-0.814 1.826,-0.971 2.562,-0.356 0.737,0.616 0.784,1.773 0.104,2.586 z m 0.873,10.015 c -1.2,1.604 -3.354,2.021 -4.808,0.933 -1.455,-1.088 -1.663,-3.272 -0.463,-4.875 1.2,-1.605 3.354,-2.022 4.808,-0.935 1.455,1.088 1.663,3.272 0.463,4.877 z"
     id="path10"
     inkscape:connector-curvature="0"
     style="fill:#f4900c" />
</svg>
