<?xml version="1.0" encoding="UTF-8" standalone="no"?>
<svg
   xmlns:dc="http://purl.org/dc/elements/1.1/"
   xmlns:cc="http://creativecommons.org/ns#"
   xmlns:rdf="http://www.w3.org/1999/02/22-rdf-syntax-ns#"
   xmlns:svg="http://www.w3.org/2000/svg"
   xmlns="http://www.w3.org/2000/svg"
   xmlns:sodipodi="http://sodipodi.sourceforge.net/DTD/sodipodi-0.dtd"
   xmlns:inkscape="http://www.inkscape.org/namespaces/inkscape"
   viewBox="0 0 34.007366 31.526691"
   id="svg2"
   version="1.1"
   inkscape:version="0.91 r13725"
   sodipodi:docname="1f9ca.svg"
   width="34.007366"
   height="31.526691">
  <metadata
     id="metadata24">
    <rdf:RDF>
      <cc:Work
         rdf:about="">
        <dc:format>image/svg+xml</dc:format>
        <dc:type
           rdf:resource="http://purl.org/dc/dcmitype/StillImage" />
      </cc:Work>
    </rdf:RDF>
  </metadata>
  <defs
     id="defs22" />
  <sodipodi:namedview
     pagecolor="#ffffff"
     bordercolor="#666666"
     borderopacity="1"
     objecttolerance="10"
     gridtolerance="10"
     guidetolerance="10"
     inkscape:pageopacity="0"
     inkscape:pageshadow="2"
     inkscape:window-width="640"
     inkscape:window-height="480"
     id="namedview20"
     showgrid="false"
     inkscape:zoom="6.5555556"
     inkscape:cx="17.003448"
     inkscape:cy="15.75944"
     inkscape:window-x="0"
     inkscape:window-y="0"
     inkscape:window-maximized="0"
     inkscape:current-layer="svg2" />
  <path
     d="m 3.6634482,5.2462513 c 1.928,0.786 5.193,1.693 8.2499998,2.556 2.76,0.78 4.727,1.8 4.727,4.2789997 0,1.126 -0.136,4.519 -0.185,8.533 0.41,-0.104 0.791,-0.153 1.196,-0.117 l -10e-4,-0.134 c -0.038,-4.321 -0.179,-8.044 -0.178,-9.239 0.003,-2.5289997 1.817,-2.2079997 4.667,-2.9959997 1.297,-0.359 7.232,-1.686 9.209,-2.103 1.658,-0.35 1.012,-1.059 0.494,-1.617 -0.034,0.107 -0.147,0.202 -0.383,0.273 -1.51,0.453 -10.716,2.236 -12.941,2.859 -1.569,0.439 -3.591,-0.367 -6.007,-1.349 -2.416,-0.981 -8.5299998,-2.416 -9.7379998,-2.869 -0.25,-0.094 -0.432,-0.222 -0.57,-0.362 -0.094,0.052 -0.19,0.103 -0.278,0.161 0.066,-0.003 0.12,-0.011 0.19,-0.012 0.477,-0.008 -0.195,1.427 1.548,2.137 z"
     id="path4"
     inkscape:connector-curvature="0"
     style="fill:#f5f8fa" />
  <path
     d="m 0.01244817,8.6392513 c 0.096,2.5529997 0.356,9.0299997 0.119,11.9409997 -0.157,1.923 0.24,3.361 0.99600003,4.403 0.204,-0.333 0.64,-0.608 1.36,-0.736 3.752,-0.669 9.8779998,-2.385 12.3439998,-3.136 0.654,-0.199 1.16,-0.378 1.625,-0.496 0.049,-4.014 0.185,-7.407 0.185,-8.533 0,-2.4789997 -1.967,-3.4989997 -4.727,-4.2789997 -3.0579998,-0.864 -6.3229998,-1.771 -8.2509998,-2.557 -1.743,-0.71 -1.071,-2.145 -1.548,-2.138 -0.069,10e-4 -0.123,0.01 -0.19,0.012 -1.62900003,1.079 -2.00300003,3.155 -1.91300003,5.519 z"
     id="path6"
     inkscape:connector-curvature="0"
     style="fill:#add3e0" />
  <path
     d="m 32.211448,25.567251 c 0.425,0.097 0.866,0.309 1.268,0.583 0.438,-0.907 0.341,-2.082 0.275,-3.431 -0.119,-2.436 0.059,-10.099 0.238,-13.6039997 0.148,-2.909 -0.822,-4.267 -2.167,-4.907 0.037,0.071 0.038,0.137 0.019,0.2 0.517,0.558 1.163,1.267 -0.494,1.617 -1.978,0.417 -7.912,1.745 -9.209,2.103 -2.85,0.788 -4.664,0.467 -4.667,2.9959997 -10e-4,1.195 0.14,4.919 0.178,9.239 l 0.001,0.134 c 0.47,0.042 0.98,0.194 1.638,0.526 1.367,0.691 10.883,4.079 12.92,4.544 z"
     id="path8"
     inkscape:connector-curvature="0"
     style="fill:#c1e1ea" />
  <path
     d="m 12.512448,6.1912513 c 2.416,0.981 4.437,1.788 6.007,1.349 2.225,-0.622 11.431,-2.406 12.941,-2.859 0.237,-0.071 0.35,-0.166 0.383,-0.273 -0.109,-0.117 -0.211,-0.228 -0.286,-0.327 -0.193,-0.076 -0.391,-0.142 -0.595,-0.194 -2.554,-0.654 -8.436,-2.495 -10.931,-3.38600003 -1.977,-0.706 -4.487,-0.591 -6.594,-0.119 -2.34,0.524 -7.0809998,1.70600003 -9.4459998,2.02000003 -0.71,0.094 -1.296,0.289 -1.788,0.559 0.138,0.139 0.32,0.268 0.57,0.362 1.209,0.452 7.3229998,1.886 9.7389998,2.868 z"
     id="path10"
     inkscape:connector-curvature="0"
     style="fill:#d2ecf3" />
  <path
     d="m 17.651448,20.497251 c -0.405,-0.036 -0.786,0.014 -1.196,0.117 l -0.006,0.493 c -0.048,4.716 0.194,8.644 0.127,9.281 -0.046,0.438 -0.315,0.814 -0.717,1.072 0.821,0.1 1.641,0.088 2.424,-0.042 -0.451,-0.385 -0.71,-0.998 -0.771,-1.608 -0.064,-0.655 0.176,-4.556 0.139,-9.313 z"
     id="path12"
     inkscape:connector-curvature="0"
     style="opacity:0.5;fill:#cfe1ea" />
  <path
     d="m 16.576448,30.388251 c 0.067,-0.637 -0.176,-4.564 -0.127,-9.281 l 0.006,-0.493 c -0.465,0.117 -0.971,0.297 -1.625,0.496 -2.466,0.751 -8.5919998,2.467 -12.3439998,3.136 -0.719,0.128 -1.156,0.404 -1.36,0.736 0.548,0.754 1.279,1.308 2.152,1.657 2.079,0.832 6.7719998,2.495 9.7429998,3.98 0.9,0.45 1.868,0.721 2.838,0.84 0.403,-0.257 0.671,-0.633 0.717,-1.071 z m 14.505,-2.62 c 1.347,-0.331 2.046,-0.888 2.398,-1.618 -0.402,-0.274 -0.843,-0.486 -1.268,-0.583 -2.037,-0.465 -11.554,-3.853 -12.922,-4.544 -0.658,-0.332 -1.168,-0.485 -1.638,-0.526 0.037,4.758 -0.203,8.658 -0.138,9.313 0.061,0.611 0.32,1.223 0.771,1.608 0.503,-0.083 0.991,-0.207 1.451,-0.382 2.019,-0.773 8.197,-2.496 11.346,-3.268 z"
     id="path14"
     inkscape:connector-curvature="0"
     style="fill:#9bc2d4" />
  <path
     d="m 6.5744482,16.457251 c -3.911,3.322 -5.322,9.72 -5.206,6.824 0.096,-2.391 -0.017,-9.487 -0.006,-12.439 0.009,-2.4909997 0.416,-4.6339997 3.725,-3.0949997 2.538,1.18 7.1999998,2.114 9.3839998,3.5899997 1.411,0.954 -2.464,0.505 -7.8969998,5.12 z"
     id="path16"
     inkscape:connector-curvature="0"
     style="fill:#c1e1ea" />
  <path
     d="m 29.172448,13.206251 c 2.65,1.793 3.569,5.587 3.497,3.781 -0.06,-1.491 0.006,-4.939 0,-6.779 -0.006,-1.5529997 0.19,-2.8739997 -1.997,-2.2449997 -1.88,0.54 -5.124,0.847 -6.486,1.767 -0.88,0.5939997 1.408,1.0559997 4.986,3.4759997 z"
     id="path18"
     inkscape:connector-curvature="0"
     style="fill:#d2ecf3" />
</svg>
