<?xml version="1.0" encoding="UTF-8" standalone="no"?>
<svg
   xmlns:dc="http://purl.org/dc/elements/1.1/"
   xmlns:cc="http://creativecommons.org/ns#"
   xmlns:rdf="http://www.w3.org/1999/02/22-rdf-syntax-ns#"
   xmlns:svg="http://www.w3.org/2000/svg"
   xmlns="http://www.w3.org/2000/svg"
   xmlns:sodipodi="http://sodipodi.sourceforge.net/DTD/sodipodi-0.dtd"
   xmlns:inkscape="http://www.inkscape.org/namespaces/inkscape"
   viewBox="0 0 33.629871 31.874001"
   id="svg2"
   version="1.1"
   inkscape:version="0.91 r13725"
   sodipodi:docname="1f9cf-1f3ff-200d-2640-fe0f.svg"
   width="33.629871"
   height="31.874001">
  <metadata
     id="metadata34">
    <rdf:RDF>
      <cc:Work
         rdf:about="">
        <dc:format>image/svg+xml</dc:format>
        <dc:type
           rdf:resource="http://purl.org/dc/dcmitype/StillImage" />
      </cc:Work>
    </rdf:RDF>
  </metadata>
  <defs
     id="defs32" />
  <sodipodi:namedview
     pagecolor="#ffffff"
     bordercolor="#666666"
     borderopacity="1"
     objecttolerance="10"
     gridtolerance="10"
     guidetolerance="10"
     inkscape:pageopacity="0"
     inkscape:pageshadow="2"
     inkscape:window-width="640"
     inkscape:window-height="480"
     id="namedview30"
     showgrid="false"
     inkscape:zoom="6.5555556"
     inkscape:cx="17.68587"
     inkscape:cy="18"
     inkscape:window-x="0"
     inkscape:window-y="0"
     inkscape:window-maximized="0"
     inkscape:current-layer="svg2" />
  <path
     d="m 33.62987,31.874 0,-3.5 c 0,-3.314 -3.686,-5.5 -7,-5.5 l -12,0 c -3.313,0 -7,2.186 -7,5.5 l 0,3.5 26,0 z"
     id="path4"
     inkscape:connector-curvature="0"
     style="fill:#9268ca" />
  <path
     d="m 20.57487,0.943 c 4.105,0 10.947,2.053 10.947,10.947 0,8.896 0,10.948 -2.053,10.948 -2.053,0 -4.79,-2.053 -8.895,-2.053 -4.105,0 -6.785,2.053 -8.895,2.053 -2.287,0 -2.053,-8.211 -2.053,-10.948 0,-8.894 6.844,-10.947 10.949,-10.947"
     id="path6"
     inkscape:connector-curvature="0"
     style="fill:#0b0200" />
  <path
     d="m 20.72687,25.288 c 2.008,0 3.563,-1.484 3.563,-2.491 l 0,-3.108 -7.332,0 0,2.998 c 0,1.326 1.761,2.601 3.769,2.601 z"
     id="path8"
     inkscape:connector-curvature="0"
     style="fill:#7c533e" />
  <path
     d="m 16.95187,21.053 c 1.022,1.155 2.29,1.468 3.668,1.468 1.379,0 2.647,-0.312 3.67,-1.468 l 0,-2.936 -7.338,0 0,2.936 z"
     id="path10"
     inkscape:connector-curvature="0"
     style="fill:#664131" />
  <path
     d="m 12.36387,11.592 c 0,-5.834 3.676,-10.563 8.211,-10.563 4.533,0 8.209,4.729 8.209,10.563 0,5.833 -3.676,10.285 -8.209,10.285 -4.535,0 -8.211,-4.452 -8.211,-10.285"
     id="path12"
     inkscape:connector-curvature="0"
     style="fill:#7c533e" />
  <path
     d="m 20.57487,19.417 c -1.606,0 -2.447,-0.794 -2.537,-0.885 -0.268,-0.267 -0.268,-0.7 0,-0.967 0.266,-0.265 0.692,-0.267 0.961,-0.007 0.035,0.032 0.551,0.491 1.576,0.491 1.038,0 1.555,-0.473 1.576,-0.492 0.273,-0.256 0.703,-0.248 0.963,0.02 0.26,0.269 0.26,0.691 -0.004,0.955 -0.09,0.091 -0.929,0.885 -2.535,0.885"
     id="path14"
     inkscape:connector-curvature="0"
     style="fill:#df1f32" />
  <path
     d="m 10.35487,14.874 c -0.021,-1 -0.044,-0.224 -0.044,-0.465 0,-3.422 2.053,0.494 2.053,-1.943 0,-2.439 1.368,-2.683 2.736,-4.051 0.685,-0.685 2.053,-2.026 2.053,-2.026 0,0 3.421,2.067 6.158,2.067 2.736,0 5.474,1.375 5.474,4.112 0,2.736 2.053,-1.584 2.053,1.837 0,0.244 -0.022,-0.531 -0.04,0.469 l 0.719,0 c 0.006,-2 0.006,-1.924 0.006,-3.202 0,-8.895 -6.842,-11.672 -10.948,-11.672 -4.104,0 -10.947,2.722 -10.947,11.617 0,0.793 -0.02,1.257 0.008,3.257 l 0.719,0 z"
     id="path16"
     inkscape:connector-curvature="0"
     style="fill:#0b0200" />
  <path
     d="m 17.23787,13.761 c -0.465,0 -0.846,-0.381 -0.846,-0.847 l 0,-0.845 c 0,-0.465 0.381,-0.846 0.846,-0.846 0.466,0 0.847,0.381 0.847,0.846 l 0,0.845 c 0,0.466 -0.381,0.847 -0.847,0.847 m 6.765,0 c -0.465,0 -0.846,-0.381 -0.846,-0.847 l 0,-0.845 c 0,-0.465 0.381,-0.846 0.846,-0.846 0.465,0 0.846,0.381 0.846,0.846 l 0,0.845 c 0,0.466 -0.381,0.847 -0.846,0.847"
     id="path18"
     inkscape:connector-curvature="0" />
  <path
     d="m 21.46587,16.374 -1.69,0 c -0.233,0 -0.423,-0.19 -0.423,-0.423 l 0,-0.153 c 0,-0.233 0.189,-0.424 0.423,-0.424 l 1.69,0 c 0.233,0 0.424,0.19 0.424,0.424 l 0,0.153 c 0,0.233 -0.191,0.423 -0.424,0.423"
     id="path20"
     inkscape:connector-curvature="0"
     style="fill:#3d2e24" />
  <path
     d="m 7.68787,24.432 0,7.442 1,0 0.303,-7.442 z"
     id="path22"
     inkscape:connector-curvature="0"
     style="fill:#7450a8" />
  <path
     d="m 4.02087,23.927 -1.333,7.947 5,0 0.721,-7.588 z"
     id="path24"
     inkscape:connector-curvature="0"
     style="fill:#9268ca" />
  <path
     d="m 6.47487,18.132 c 0.923,-0.923 3.558,-2.964 4.215,-3.637 0.658,-0.672 1.53,0.097 1.068,0.918 -0.462,0.821 -3.129,3.847 -3.129,3.847 0,0 1.59,0.462 1.949,0.872 0.359,0.41 1.026,3.078 0.41,3.488 -0.616,0.41 -1.539,0.103 -1.539,0.103 0,0 -0.973,2.411 -3.487,2.257 -1.044,-0.064 -2.103,-0.975 -2.001,-2.514 0.103,-1.539 0.904,-2.969 1.18,-3.796 0.308,-0.923 1.334,-1.538 1.334,-1.538 z"
     id="path26"
     inkscape:connector-curvature="0"
     style="fill:#7c533e" />
  <path
     d="m 5.78887,16.579 c -0.048,0 -0.097,-0.007 -0.146,-0.021 -2.429,-0.74 -2.859,-3.564 -2.876,-3.684 -0.039,-0.273 0.15,-0.525 0.423,-0.565 0.272,-0.038 0.526,0.149 0.566,0.422 0.003,0.023 0.362,2.316 2.178,2.869 0.264,0.081 0.413,0.36 0.333,0.624 -0.066,0.216 -0.264,0.355 -0.478,0.355 z m -1.077,2.012 c -0.049,0 -0.099,-0.007 -0.148,-0.022 -3.557,-1.102 -4.51199997,-5.109 -4.55099997,-5.279 -0.062,-0.269 0.106,-0.537 0.375,-0.599 0.271,-0.062 0.537,0.106 0.6,0.375 0.008,0.036 0.87199997,3.618 3.87299997,4.548 0.264,0.082 0.411,0.361 0.33,0.625 -0.067,0.214 -0.265,0.352 -0.479,0.352 z"
     id="path28"
     inkscape:connector-curvature="0"
     style="fill:#5dadec" />
</svg>
