<?xml version="1.0" encoding="UTF-8" standalone="no"?>
<svg
   xmlns:dc="http://purl.org/dc/elements/1.1/"
   xmlns:cc="http://creativecommons.org/ns#"
   xmlns:rdf="http://www.w3.org/1999/02/22-rdf-syntax-ns#"
   xmlns:svg="http://www.w3.org/2000/svg"
   xmlns="http://www.w3.org/2000/svg"
   xmlns:sodipodi="http://sodipodi.sourceforge.net/DTD/sodipodi-0.dtd"
   xmlns:inkscape="http://www.inkscape.org/namespaces/inkscape"
   viewBox="0 0 22.027216 35.89896"
   id="svg2"
   version="1.1"
   inkscape:version="0.91 r13725"
   sodipodi:docname="1f9c3.svg"
   width="22.027216"
   height="35.89896">
  <metadata
     id="metadata30">
    <rdf:RDF>
      <cc:Work
         rdf:about="">
        <dc:format>image/svg+xml</dc:format>
        <dc:type
           rdf:resource="http://purl.org/dc/dcmitype/StillImage" />
      </cc:Work>
    </rdf:RDF>
  </metadata>
  <defs
     id="defs28" />
  <sodipodi:namedview
     pagecolor="#ffffff"
     bordercolor="#666666"
     borderopacity="1"
     objecttolerance="10"
     gridtolerance="10"
     guidetolerance="10"
     inkscape:pageopacity="0"
     inkscape:pageshadow="2"
     inkscape:window-width="640"
     inkscape:window-height="480"
     id="namedview26"
     showgrid="false"
     inkscape:zoom="6.5555556"
     inkscape:cx="9"
     inkscape:cy="18"
     inkscape:window-x="0"
     inkscape:window-y="0"
     inkscape:window-maximized="0"
     inkscape:current-layer="svg2" />
  <path
     d="m 19.337,32.46196 -2.579,3.082 c -0.552,0.553 -1.758,0.007 -1.758,-0.545 l 0,-23.099 c 0,-0.552 2.372,-4.5009998 5,-4.5009998 L 19.972,30.40596 c 0,1.134 -0.093,1.308 -0.635,2.056 z"
     id="path4"
     inkscape:connector-curvature="0"
     style="fill:#e3a919" />
  <path
     d="m 17,10.35296 -17,0 0.194,-0.348 3.546,-2.6059998 c 0.486,-0.379 0.831,-0.5 1.383,-0.5 l 14.363,0 c 0.188,0 0.514,0.277 0.344,0.47 L 17,10.35296 Z"
     id="path6"
     inkscape:connector-curvature="0"
     style="fill:#ffd983" />
  <path
     d="m 16,35.89896 -15,0 c -0.552,0 -1,-0.448 -1,-1 l 0,-24.546 c 0,0 0.448,-0.4539998 1,-0.4539998 l 15,0 c 0.552,0 1,0.4539998 1,0.4539998 l 0,24.546 c 0,0.552 -0.448,1 -1,1 z"
     id="path8"
     inkscape:connector-curvature="0"
     style="fill:#ffcc4d" />
  <circle
     cx="6"
     cy="26.89896"
     r="3"
     id="circle10"
     style="fill:#f4900c" />
  <circle
     cx="6"
     cy="20.89896"
     r="4"
     id="circle12"
     style="fill:#ea596e" />
  <circle
     cx="10.5"
     cy="23.39896"
     r="4.5"
     id="circle14"
     style="fill:#ffe8b6" />
  <circle
     cx="10.5"
     cy="23.39896"
     r="2.5"
     id="circle16"
     style="fill:#ffcc4d" />
  <path
     d="m 13.999,8.3629602 c 0,0 -0.21,0.431 -0.967,0.431 -0.757,0 -1.033,-0.431 -1.033,-0.431 l 0,-4.122 c 0,-1.993 0.532,-3.30899999 1.582,-3.91099999 1.005,-0.576 2.326,-0.398 3.922,0.535 1.274,0.74299999 4.421,2.97199999 4.496,3.03399999 0,0 0.165,0.565 -0.303,1.1 -0.468,0.535 -0.965,0.447 -0.965,0.447 -0.018,-0.014 -3.101,-2.191 -4.236,-2.855 -0.881,-0.515 -1.584,-0.623 -1.904,-0.436 -0.279,0.16 -0.592,0.726 -0.592,2.086 l 0,4.122 z"
     id="path18"
     inkscape:connector-curvature="0"
     style="fill:#ccd6dd" />
  <path
     d="m 16.434,0.33896021 c -1.124,-0.446 -2.082,-0.451 -2.853,-0.01 -0.791,0.454 -1.287,1.31399999 -1.484,2.56199999 l 1.975,0.367 c 0.108,-0.664 0.322,-0.989 0.52,-1.103 0.22,-0.129 0.63,-0.105 1.146,0.082 l 0.696,-1.89799999 z"
     id="path20"
     inkscape:connector-curvature="0"
     style="fill:#99aab5" />
  <path
     d="m 16.931,10.89896 -16.431,0 c -0.275,0 -0.5,-0.225 -0.5,-0.5 0,-0.275 0.225,-0.4999998 0.5,-0.4999998 l 16.431,0 c 0.275,0 0.5,0.2249998 0.5,0.4999998 0,0.275 -0.225,0.5 -0.5,0.5 z"
     id="path22"
     inkscape:connector-curvature="0"
     style="fill:#ffe8b6" />
  <path
     d="M 19.908,7.6949602 17.372,10.73096 c -0.163,0.201 -0.471,0.223 -0.684,0.05 -0.214,-0.173 -0.255,-0.479 -0.093,-0.68 l 2.536,-3.0359998 c 0.163,-0.201 0.471,-0.223 0.684,-0.05 0.214,0.174 0.255,0.479 0.093,0.68 z"
     id="path24"
     inkscape:connector-curvature="0"
     style="fill:#ffe8b6" />
</svg>
