<?xml version="1.0" encoding="UTF-8" standalone="no"?>
<svg
   xmlns:dc="http://purl.org/dc/elements/1.1/"
   xmlns:cc="http://creativecommons.org/ns#"
   xmlns:rdf="http://www.w3.org/1999/02/22-rdf-syntax-ns#"
   xmlns:svg="http://www.w3.org/2000/svg"
   xmlns="http://www.w3.org/2000/svg"
   xmlns:sodipodi="http://sodipodi.sourceforge.net/DTD/sodipodi-0.dtd"
   xmlns:inkscape="http://www.inkscape.org/namespaces/inkscape"
   viewBox="0 0 28 34.354816"
   id="svg2"
   version="1.1"
   inkscape:version="0.91 r13725"
   sodipodi:docname="1f9df-200d-2642-fe0f.svg"
   width="28"
   height="34.354816">
  <metadata
     id="metadata42">
    <rdf:RDF>
      <cc:Work
         rdf:about="">
        <dc:format>image/svg+xml</dc:format>
        <dc:type
           rdf:resource="http://purl.org/dc/dcmitype/StillImage" />
      </cc:Work>
    </rdf:RDF>
  </metadata>
  <defs
     id="defs40" />
  <sodipodi:namedview
     pagecolor="#ffffff"
     bordercolor="#666666"
     borderopacity="1"
     objecttolerance="10"
     gridtolerance="10"
     guidetolerance="10"
     inkscape:pageopacity="0"
     inkscape:pageshadow="2"
     inkscape:window-width="640"
     inkscape:window-height="480"
     id="namedview38"
     showgrid="false"
     inkscape:zoom="6.5555556"
     inkscape:cx="14"
     inkscape:cy="18"
     inkscape:window-x="0"
     inkscape:window-y="0"
     inkscape:window-maximized="0"
     inkscape:current-layer="svg2" />
  <path
     d="m 26.08,29.423816 c 0,0 -0.77,0.477 -1.539,0 -0.77,-0.477 -0.311,-1.246 -0.311,-1.246 -0.867,-0.075 -0.958,-0.878 -0.643,-1.604 -0.506,-0.139 -1.036,-0.219 -1.587,-0.219 l -16,0 c -3.313,0 -6,2.687 -6,6 l 0,2 28,0 0,-2 c 0,-0.62 -0.094,-1.219 -0.269,-1.782 -1.684,0.642 -1.651,-1.149 -1.651,-1.149 z"
     id="path4"
     inkscape:connector-curvature="0"
     style="fill:#d99e82" />
  <path
     d="m 9.64,26.455816 c 1.744,1.267 2.849,3.728 4.36,3.728 1.511,0 2.616,-2.462 4.36,-3.728 l 0,-3.811 -8.72,0 0,3.811 z"
     id="path6"
     inkscape:connector-curvature="0"
     style="fill:#ccd6dd" />
  <path
     d="m 9.632,24.327816 c 1.216,1.374 2.724,2.027 4.364,2.027 1.639,0 3.147,-0.654 4.364,-2.027 l 0,-3.491 -8.728,0 0,3.491 z"
     id="path8"
     inkscape:connector-curvature="0"
     style="fill:#99aab5" />
  <path
     d="m 7.444,14.289816 c 0,1.448 -0.734,2.622 -1.639,2.622 -0.905,0 -1.639,-1.174 -1.639,-2.622 0,-1.448 0.734,-2.623 1.639,-2.623 0.906,10e-4 1.639,1.175 1.639,2.623 z m 16.389,0 c 0,1.448 -0.734,2.622 -1.639,2.622 -0.905,0 -1.639,-1.174 -1.639,-2.622 0,-1.448 0.734,-2.623 1.639,-2.623 0.906,10e-4 1.639,1.175 1.639,2.623 z"
     id="path10"
     inkscape:connector-curvature="0"
     style="fill:#ccd6dd" />
  <path
     d="M 5.478,15.314816 C 5.478,9.7258158 9.294,5.1938158 14,5.1938158 c 4.706,0 8.522,4.531 8.522,10.1210002 0,5.04 -5.116,10.12 -8.522,10.12 -3.406,0 -8.522,-5.08 -8.522,-10.12 z"
     id="path12"
     inkscape:connector-curvature="0"
     style="fill:#ccd6dd" />
  <path
     d="m 8.232,16.122816 c -0.778,-0.778 -0.778,-2.051 0,-2.828 l 0.707,-0.707 c 0.778,-0.778 2.051,-0.778 2.828,0 0.778,0.778 0.778,2.051 0,2.828 l -0.707,0.707 c -0.777,0.778 -2.05,0.778 -2.828,0 z m 8,-3.536 c 0.778,-0.778 2.051,-0.778 2.828,0 l 0.707,0.707 c 0.778,0.778 0.778,2.051 0,2.828 -0.778,0.778 -2.051,0.778 -2.828,0 l -0.707,-0.707 c -0.778,-0.777 -0.778,-2.05 0,-2.828 z"
     id="path14"
     inkscape:connector-curvature="0"
     style="fill:#99aab5" />
  <path
     d="m 14,20.170816 c -2.754,0 -3.6,0.706 -3.741,0.848 -0.256,0.256 -0.256,0.671 0,0.927 0.248,0.248 0.645,0.255 0.902,0.024 0.052,-0.038 0.721,-0.487 2.839,-0.487 2.2,0 2.836,0.485 2.842,0.49 0.255,0.255 0.656,0.243 0.913,-0.013 0.256,-0.256 0.242,-0.684 -0.014,-0.94 -0.141,-0.143 -0.987,-0.849 -3.741,-0.849 z"
     id="path16"
     inkscape:connector-curvature="0"
     style="fill:#66757f" />
  <path
     d="m 24.646,8.3128158 c -0.833,-0.188 -2.305,-1.908 -2.843,-2.727 -0.006,-0.009 -0.012,-0.013 -0.017,-0.021 -1.354,-1.85 -3.644,-3.349 -6.622,-3.664 0.158,-0.261 0.272,-0.531 0.337,-0.775 0.122,-0.46000005 0.271,-1.65300005 -0.417,-0.86100005 -0.575,0.662 -2.406,1.42800005 -2.99,1.66100005 -1.426,-0.707 -3.451,-0.603 -3.906,-0.384 -0.562,0.271 -0.039,0.231 0.312,0.292 0.436,0.075 0.907,0.386 1.359,0.717 -1.711,0.663 -2.961,1.73 -3.789,2.953 l -0.004,0.005 c -0.61,0.886 -1.695,2.138 -2.274,2.346 -1.125,0.403 0.243,0.563 0.812,0.309 0.129,-0.057 0.261,-0.116 0.394,-0.183 -0.114,0.503 -0.176,1.006 -0.176,1.495 0,3.4730002 1.216,4.4370002 1.412,3.4730002 0.706,-3.4730002 2.824,-4.8630002 2.824,-4.8630002 3.213,3.8310002 2.9,0.581 2.9,0.581 5.646,6.5420002 2.748,0.113 2.748,0.113 1.412,1.3900002 5.648,1.3900002 5.648,1.3900002 l 1.412,2.778 c 0.706,1.39 1.412,0 1.412,-3.4730002 0,-0.285 -0.032,-0.575 -0.079,-0.867 0.425,0.157 0.812,0.215 1.13,0.225 0.667,0.022 1.25,-0.332 0.417,-0.52 z"
     id="path18"
     inkscape:connector-curvature="0"
     style="fill:#292f33" />
  <path
     d="m 11.5,13.854816 c 0,0.55 -0.45,1 -1,1 l -1,0 c -0.55,0 -1,-0.45 -1,-1 0,-0.55 0.45,-1 1,-1 l 1,0 c 0.55,0 1,0.45 1,1 z m 8,0 c 0,0.55 -0.45,1 -1,1 l -1,0 c -0.55,0 -1,-0.45 -1,-1 0,-0.55 0.45,-1 1,-1 l 1,0 c 0.55,0 1,0.45 1,1 z"
     id="path20"
     inkscape:connector-curvature="0"
     style="fill:#662113" />
  <path
     d="m 14.038,29.588816 c 0,0 3.344,2.137 4.056,2.422 0.156,0.063 -0.366,-3.656 -0.366,-3.656 l -2.415,0.547 -1.317,1.531 -0.995,-2.078 -2.727,0 c 0,0 -0.524,3.781 -0.232,3.625 0.638,-0.342 3.996,-2.391 3.996,-2.391 z"
     id="path22"
     inkscape:connector-curvature="0"
     style="fill:#c1694f" />
  <path
     d="m 15.312,28.901816 c -0.027,0.054 -0.362,0.277 -0.606,0.765 -0.24,-0.125 -0.512,-0.237 -0.816,-0.312 -1.335,-0.329 -2.177,-0.039 -2.177,-0.039 0,0 0.213,1.491 0.396,1.82 0.156,0.281 0.513,0.876 0.513,0.876 0,0 -0.664,0.343 -0.945,2.343 l 3.886,0 c -0.281,-1.594 -1.078,-2.062 -1.078,-2.062 0,0 0.829,-0.629 1.016,-0.891 0.312,-0.438 0.392,-0.808 0.392,-0.808 0,0 -0.051,-0.062 -0.145,-0.159 0.21,-0.09 0.432,-0.221 0.658,-0.424 1.047,-0.937 -1.094,-1.109 -1.094,-1.109 z"
     id="path24"
     inkscape:connector-curvature="0"
     style="fill:#226699" />
  <path
     d="m 9.292,24.979816 c 0.566,0.566 3.709,3.383 3.709,3.383 0,0 -1.126,1.242 -3.084,3.534 -0.197,0.23 -1.542,-4.625 -1.583,-5.708 -0.012,-0.304 0.687,-1.48 0.958,-1.209 z m 9.438,0 c -0.566,0.566 -3.418,3.922 -3.418,3.922 0,0 0.834,0.703 2.793,2.995 0.197,0.23 1.542,-4.625 1.583,-5.708 0.012,-0.304 -0.687,-1.48 -0.958,-1.209 z"
     id="path26"
     inkscape:connector-curvature="0"
     style="fill:#ffd983" />
  <path
     d="m 22.929,31.695816 c -0.127,1.929 -0.83,2.659 -0.83,2.659 l 1.385,0 c 0,0 0.189,-2.975 -0.555,-2.659 z"
     id="path28"
     inkscape:connector-curvature="0"
     style="fill:#662113" />
  <path
     d="m 13,18.354816 c -0.275,0 -0.5,-0.225 -0.5,-0.5 l 0,-1 c 0,-0.275 0.225,-0.5 0.5,-0.5 0.275,0 0.5,0.225 0.5,0.5 l 0,1 c 0,0.275 -0.225,0.5 -0.5,0.5 z m 2,0 c -0.275,0 -0.5,-0.225 -0.5,-0.5 l 0,-1 c 0,-0.275 0.225,-0.5 0.5,-0.5 0.275,0 0.5,0.225 0.5,0.5 l 0,1 c 0,0.275 -0.225,0.5 -0.5,0.5 z"
     id="path30"
     inkscape:connector-curvature="0"
     style="fill:#99aab5" />
  <path
     d="m 9.811,19.138816 c -1.71,0 -3.092,-1.357 -3.165,-1.431 -0.195,-0.195 -0.195,-0.511 0,-0.706 0.195,-0.195 0.512,-0.195 0.707,-0.002 0.018,0.018 1.773,1.734 3.423,0.907 0.247,-0.125 0.547,-0.022 0.671,0.224 0.124,0.247 0.023,0.547 -0.224,0.671 -0.481,0.241 -0.958,0.337 -1.412,0.337 z m 8.378,0 c -0.454,0 -0.932,-0.096 -1.413,-0.337 -0.247,-0.124 -0.347,-0.424 -0.224,-0.671 0.125,-0.246 0.424,-0.347 0.671,-0.224 1.657,0.829 3.406,-0.89 3.423,-0.906 0.195,-0.195 0.512,-0.195 0.707,0 0.195,0.195 0.195,0.512 0,0.707 -0.072,0.074 -1.455,1.431 -3.164,1.431 z"
     id="path32"
     inkscape:connector-curvature="0"
     style="fill:#9aaab4" />
  <path
     d="m 1.617,32.316816 c 0.319,-0.251 0.872,-1.996 1.869,-2.411 0.997,-0.415 3.206,-0.957 3.173,0.09 -0.033,1.047 -1.34,2.485 -1.068,3.018 -0.98,0.476 -4.987,0.099 -3.974,-0.697 z"
     id="path34"
     inkscape:connector-curvature="0"
     style="fill:#662113" />
  <path
     d="m 2.238,32.156816 c 0.319,-0.251 0.651,-1.746 1.648,-2.16 0.997,-0.414 2.806,-1.047 2.772,0 -0.034,1.047 -1.23,1.685 -2.21,2.16 -0.979,0.475 -3.222,0.795 -2.21,0 z"
     id="path36"
     inkscape:connector-curvature="0"
     style="fill:#ccd6dd" />
</svg>
