<?xml version="1.0" encoding="UTF-8" standalone="no"?>
<svg
   xmlns:dc="http://purl.org/dc/elements/1.1/"
   xmlns:cc="http://creativecommons.org/ns#"
   xmlns:rdf="http://www.w3.org/1999/02/22-rdf-syntax-ns#"
   xmlns:svg="http://www.w3.org/2000/svg"
   xmlns="http://www.w3.org/2000/svg"
   xmlns:sodipodi="http://sodipodi.sourceforge.net/DTD/sodipodi-0.dtd"
   xmlns:inkscape="http://www.inkscape.org/namespaces/inkscape"
   viewBox="0 0 32 33.499001"
   id="svg2"
   version="1.1"
   inkscape:version="0.91 r13725"
   sodipodi:docname="1f9db-1f3fc-200d-2640-fe0f.svg"
   width="32"
   height="33.499001">
  <metadata
     id="metadata44">
    <rdf:RDF>
      <cc:Work
         rdf:about="">
        <dc:format>image/svg+xml</dc:format>
        <dc:type
           rdf:resource="http://purl.org/dc/dcmitype/StillImage" />
      </cc:Work>
    </rdf:RDF>
  </metadata>
  <defs
     id="defs42" />
  <sodipodi:namedview
     pagecolor="#ffffff"
     bordercolor="#666666"
     borderopacity="1"
     objecttolerance="10"
     gridtolerance="10"
     guidetolerance="10"
     inkscape:pageopacity="0"
     inkscape:pageshadow="2"
     inkscape:window-width="640"
     inkscape:window-height="480"
     id="namedview40"
     showgrid="false"
     inkscape:zoom="6.5555556"
     inkscape:cx="16"
     inkscape:cy="18"
     inkscape:window-x="0"
     inkscape:window-y="0"
     inkscape:window-maximized="0"
     inkscape:current-layer="svg2" />
  <path
     d="m 30,33.499 0,-2 c 0,-3.313 -2.687,-6 -6,-6 l -16,0 c -3.313,0 -6,2.687 -6,6 l 0,2 28,0 z"
     id="path4"
     inkscape:connector-curvature="0"
     style="fill:#292f33" />
  <path
     d="m 25,26.116 c 2.239,-2.224 7,-9.617 7,-11.617 0,0 -4.667,-5 -16,-5 l 0,23 c 0,0 7.103,-4.498 9,-6.383 z m -18,0 C 4.761,23.892 0,16.499 0,14.499 c 0,0 4.667,-5 16,-5 l 0,23 c 0,0 -7.103,-4.498 -9,-6.383 z"
     id="path6"
     inkscape:connector-curvature="0"
     style="fill:#be1931" />
  <path
     d="m 16.75,17.249 -1.5,0 c -0.413,0 -0.75,-0.337 -0.75,-0.75 0,-0.413 0.337,-0.75 0.75,-0.75 l 1.5,0 c 0.413,0 0.75,0.337 0.75,0.75 0,0.413 -0.337,0.75 -0.75,0.75 z"
     id="path8"
     inkscape:connector-curvature="0"
     style="fill:#c1694f" />
  <path
     d="m 16.004,1.566 c 4.35,0 11.601,2.175 11.601,11.601 0,9.427 0,11.602 -2.175,11.602 -2.175,0 -5.076,-2.175 -9.426,-2.175 -4.351,0 -7.19,2.175 -9.427,2.175 -2.424,0 -2.176,-8.701 -2.176,-11.602 C 4.402,3.741 11.654,1.566 16.004,1.566"
     id="path10"
     inkscape:connector-curvature="0"
     style="fill:#292f33" />
  <path
     d="m 15.996,1.566 c -4.35,0 -11.601,2.175 -11.601,11.601 0,9.427 0,11.602 2.175,11.602 2.175,0 5.076,-2.175 9.426,-2.175 4.351,0 7.19,2.175 9.427,2.175 2.424,0 2.176,-8.701 2.176,-11.602 C 27.598,3.741 20.346,1.566 15.996,1.566"
     id="path12"
     inkscape:connector-curvature="0"
     style="fill:#292f33" />
  <path
     d="m 20.239,25.499 c 0,1.92 -4.239,7 -4.239,7 0,0 -4.239,-5.019 -4.239,-7 l 8.478,0 z"
     id="path14"
     inkscape:connector-curvature="0"
     style="fill:#f3d2a2" />
  <path
     d="m 12.291,25.745 c 1.553,1.129 2.959,1.039 3.709,1.039 0.75,0 2.325,0.09 3.697,-1.006 l 0.012,-4.387 -7.418,0 0,4.354 z"
     id="path16"
     inkscape:connector-curvature="0"
     style="fill:#f3d2a2" />
  <path
     d="m 12.291,23.523 c 1.031,1.224 3.022,1.336 3.699,1.336 0.677,0 2.67,-0.111 3.701,-1.336 l 0,-3.112 -7.4,0 0,3.112 z"
     id="path18"
     inkscape:connector-curvature="0"
     style="fill:#e2c196" />
  <path
     d="m 7.24,12.85 c 0,-6.182 3.896,-11.194 8.702,-11.194 4.804,0 8.699,5.012 8.699,11.194 0,6.181 -3.895,11.238 -8.699,11.238 -4.806,0 -8.702,-5.057 -8.702,-11.238"
     id="path20"
     inkscape:connector-curvature="0"
     style="fill:#f3d2a2" />
  <path
     d="M 5.112,16.328 C 5.09,15.268 5.065,16.091 5.065,15.835 c 0,-3.626 2.176,0.524 2.176,-2.059 0,-2.584 1.449,-2.843 2.9,-4.293 0.725,-0.725 2.175,-2.147 2.175,-2.147 0,0 3.625,2.191 6.526,2.191 2.9,0 5.8,1.457 5.8,4.358 0,2.9 2.175,-1.679 2.175,1.947 0,0.259 -0.024,-0.563 -0.042,0.497 l 0.762,0 C 27.543,14.21 27.543,14.29 27.543,12.936 27.543,3.51 20.293,0 15.941,0 11.591,0 4.411,3.451 4.411,12.878 c 0,0.84 -0.021,1.332 0.009,3.451 l 0.692,0 z"
     id="path22"
     inkscape:connector-curvature="0"
     style="fill:#292f33" />
  <path
     d="m 12.406,15.148 c -0.493,0 -0.896,-0.404 -0.896,-0.897 l 0,-0.895 c 0,-0.493 0.404,-0.896 0.896,-0.896 0.494,0 0.897,0.404 0.897,0.896 l 0,0.895 c 0,0.494 -0.403,0.897 -0.897,0.897 m 7.168,0 c -0.493,0 -0.896,-0.404 -0.896,-0.897 l 0,-0.895 c 0,-0.493 0.404,-0.896 0.896,-0.896 0.493,0 0.896,0.404 0.896,0.896 l 0,0.895 c 0.001,0.494 -0.403,0.897 -0.896,0.897"
     id="path24"
     inkscape:connector-curvature="0"
     style="fill:#dd2e44" />
  <path
     d="m 16.886,17.918 -1.791,0 c -0.247,0 -0.448,-0.201 -0.448,-0.448 l 0,-0.162 c 0,-0.247 0.201,-0.449 0.448,-0.449 l 1.791,0 c 0.247,0 0.449,0.202 0.449,0.449 l 0,0.162 c 0,0.247 -0.202,0.448 -0.449,0.448"
     id="path26"
     inkscape:connector-curvature="0"
     style="fill:#c1694f" />
  <path
     d="m 24,11.779 -0.47,0.129 c 0,0 -1.192,3.401 0,3.997 2.664,1.331 3.47,-3.794 3.47,-5.126 0,-1 -3,1 -3,1 z m -16,0 0.47,0.129 c 0,0 1.192,3.401 0,3.997 C 5.806,17.236 5,12.111 5,10.779 c 0,-1 3,1 3,1 z"
     id="path28"
     inkscape:connector-curvature="0"
     style="fill:#f3d2a2" />
  <path
     d="m 16.059,22.003 c -2.754,0 -3.6,-1.904 -3.741,-2.045 -0.256,-0.256 -0.256,-0.671 0,-0.927 0.248,-0.248 0.645,-0.255 0.902,-0.024 0.052,0.038 0.721,0.487 2.839,0.487 2.2,0 2.836,-0.485 2.842,-0.49 0.255,-0.255 0.656,-0.243 0.913,0.013 0.256,0.256 0.242,0.684 -0.014,0.94 -0.141,0.142 -0.986,2.046 -3.741,2.046 z"
     id="path30"
     inkscape:connector-curvature="0"
     style="fill:#c1694f" />
  <path
     d="m 13.626,19.503 c -0.331,0 -0.637,0.149 -0.84,0.41 -0.203,0.261 -0.274,0.594 -0.194,0.915 0.008,0.034 0.02,0.067 0.036,0.098 l 1.012,2.072 c 0.084,0.172 0.258,0.281 0.449,0.281 l 0.009,0 c 0.194,-0.003 0.369,-0.119 0.448,-0.296 l 0.88,-1.973 c 0.012,-0.027 0.021,-0.054 0.028,-0.082 0.064,-0.257 0.018,-0.521 -0.13,-0.741 -0.173,-0.258 -0.479,-0.441 -0.817,-0.489 l -0.767,-0.18 c -0.038,-0.011 -0.076,-0.015 -0.114,-0.015 z"
     id="path32"
     inkscape:connector-curvature="0"
     style="fill:#c1694f" />
  <path
     d="m 14.434,20.191 -0.809,-0.188 c -0.368,0 -0.639,0.346 -0.549,0.703 l 1.012,2.072 0.88,-1.973 c 0.08,-0.32 -0.212,-0.568 -0.534,-0.614 z"
     id="path34"
     inkscape:connector-curvature="0"
     style="fill:#f5f8fa" />
  <path
     d="m 18.454,19.503 c -0.038,0 -0.076,0.004 -0.113,0.013 l -0.809,0.188 c -0.297,0.041 -0.602,0.224 -0.775,0.482 -0.148,0.221 -0.195,0.484 -0.13,0.741 0.007,0.028 0.017,0.056 0.028,0.082 l 0.88,1.973 c 0.079,0.177 0.254,0.293 0.448,0.296 l 0.009,0 c 0.191,0 0.365,-0.109 0.449,-0.281 l 1.012,-2.072 c 0.015,-0.031 0.027,-0.064 0.036,-0.098 0.08,-0.321 0.009,-0.654 -0.194,-0.915 -0.204,-0.259 -0.51,-0.409 -0.841,-0.409 z"
     id="path36"
     inkscape:connector-curvature="0"
     style="fill:#c1694f" />
  <path
     d="m 17.645,20.191 0.809,-0.188 c 0.368,0 0.639,0.346 0.549,0.703 l -1.012,2.072 -0.88,-1.973 c -0.079,-0.32 0.213,-0.568 0.534,-0.614 z"
     id="path38"
     inkscape:connector-curvature="0"
     style="fill:#f5f8fa" />
</svg>
