<?xml version="1.0" encoding="UTF-8" standalone="no"?>
<svg
   xmlns:dc="http://purl.org/dc/elements/1.1/"
   xmlns:cc="http://creativecommons.org/ns#"
   xmlns:rdf="http://www.w3.org/1999/02/22-rdf-syntax-ns#"
   xmlns:svg="http://www.w3.org/2000/svg"
   xmlns="http://www.w3.org/2000/svg"
   xmlns:sodipodi="http://sodipodi.sourceforge.net/DTD/sodipodi-0.dtd"
   xmlns:inkscape="http://www.inkscape.org/namespaces/inkscape"
   viewBox="0 0 34.697594 34"
   id="svg2"
   version="1.1"
   inkscape:version="0.91 r13725"
   sodipodi:docname="1f9da-1f3fc-200d-2642-fe0f.svg"
   width="34.697594"
   height="34">
  <metadata
     id="metadata32">
    <rdf:RDF>
      <cc:Work
         rdf:about="">
        <dc:format>image/svg+xml</dc:format>
        <dc:type
           rdf:resource="http://purl.org/dc/dcmitype/StillImage" />
      </cc:Work>
    </rdf:RDF>
  </metadata>
  <defs
     id="defs30" />
  <sodipodi:namedview
     pagecolor="#ffffff"
     bordercolor="#666666"
     borderopacity="1"
     objecttolerance="10"
     gridtolerance="10"
     guidetolerance="10"
     inkscape:pageopacity="0"
     inkscape:pageshadow="2"
     inkscape:window-width="640"
     inkscape:window-height="480"
     id="namedview28"
     showgrid="false"
     inkscape:zoom="6.5555556"
     inkscape:cx="17.354514"
     inkscape:cy="18"
     inkscape:window-x="0"
     inkscape:window-y="0"
     inkscape:window-maximized="0"
     inkscape:current-layer="svg2" />
  <path
     d="m 20.123514,18.273 c -4.558,6.089 -5.676,12.675 -2.497,14.71 3.179,2.035 9.451,-1.252 14.008,-7.341 4.558,-6.089 2.752,-17.029 2.497,-16.631 -1.777,2.774 -9.45,3.173 -14.008,9.262 z"
     id="path4"
     inkscape:connector-curvature="0"
     style="fill:#abdfff" />
  <path
     d="m 14.609514,18.273 c 4.558,6.089 5.676,12.675 2.498,14.71 -3.179,2.035 -9.4509997,-1.252 -14.0089997,-7.341 C -1.4594857,19.553 0.25851434,8.673 0.60151434,9.011 4.3545143,12.71 10.052514,12.184 14.609514,18.273 Z"
     id="path6"
     inkscape:connector-curvature="0"
     style="fill:#abdfff" />
  <path
     d="m 30.756514,15.829 c -0.96,1.604 -1.586,3.147 -4.251,5.659 -1.03,0.971 -0.941,2.245 0.179,1.398 2.664,-2.015 4.306,-5.221 4.848,-7.268 0.382,-1.441 -0.292,-0.597 -0.776,0.211 z m -26.8039997,0 c -0.484,-0.808 -1.158,-1.652 -0.776,-0.211 0.542,2.047 2.184,5.253 4.848,7.268 1.12,0.847 1.209,-0.427 0.179,-1.398 -2.665,-2.512 -3.291,-4.055 -4.251,-5.659 z"
     id="path8"
     inkscape:connector-curvature="0"
     style="fill:#55acee" />
  <path
     d="m 30.354514,34 0,-3.5 c 0,-3.314 -3.685,-5.5 -7,-5.5 l -12,0 c -3.3129997,0 -6.9999997,2.186 -6.9999997,5.5 l 0,3.5 25.9999997,0 z"
     id="path10"
     inkscape:connector-curvature="0"
     style="fill:#f3d2a2" />
  <path
     d="m 18.207514,0 c -2.024,0 -3.893,0.647 -5.426,1.737 -3.1499997,0.164 -5.6619997,2.749 -5.6619997,5.94 0,2.63 0.012,5.943 3.4769997,7.177 1.703,2.365 4.474,3.911 7.611,3.911 5.181,0 9.382,-4.2 9.382,-9.381 0,-5.183 -4.201,-9.384 -9.382,-9.384 z"
     id="path12"
     inkscape:connector-curvature="0"
     style="fill:#ffe51e" />
  <path
     d="m 13.337514,18.008 0,8.034 c 0,2.218 1.799,4.017 4.017,4.017 2.218,0 4.017,-1.799 4.017,-4.017 l 0,-8.034 -8.034,0 z"
     id="path14"
     inkscape:connector-curvature="0"
     style="fill:#f3d2a2" />
  <path
     d="m 21.371514,16 -8.034,0.037 0,7.996 c 0,0 4.017,2.008 8.034,0 l 0,-8.033 z"
     id="path16"
     inkscape:connector-curvature="0"
     style="fill:#e2c196" />
  <path
     d="m 25.883514,6 -17.0579997,0 0,9.354 c 0,4.712 3.8179997,8.529 8.5289997,8.529 4.711,0 8.529,-3.817 8.529,-8.529 l 0,-9.354 z"
     id="path18"
     inkscape:connector-curvature="0"
     style="fill:#f3d2a2" />
  <path
     d="m 7.9795143,5.118 0.846,6.824 c 3.9799997,0 4.8609997,-4.115 5.0579997,-5.95 0.067,1.835 1.389,5.95 12.001,5.95 l 0.346,-6.824 -18.2509997,0 z"
     id="path20"
     inkscape:connector-curvature="0"
     style="fill:#ffe51e" />
  <path
     d="m 20.766514,20.471 -6.824,0 c 0,0 0,1.706 3.412,1.706 3.412,0 3.412,-1.706 3.412,-1.706 z m -5.118,-3.412 3.412,0 c 0,0 0,1.706 -1.706,1.706 -1.706,0 -1.706,-1.706 -1.706,-1.706 z"
     id="path22"
     inkscape:connector-curvature="0"
     style="fill:#c1694f" />
  <path
     d="m 17.354514,31 0,3 -8.9999997,0 0,-3 -2,-5 c 0,0 1,-1 3.9999997,-1 l 3,0 4,6 z m 0,0 0,3 9,0 0,-3 2,-5 c 0,0 -1,-1 -4,-1 l -3,0 -4,6 z"
     id="path24"
     inkscape:connector-curvature="0"
     style="fill:#5c913b" />
  <path
     d="m 21.354514,16 c -0.55,0 -1,-0.45 -1,-1 l 0,-1 c 0,-0.55 0.45,-1 1,-1 0.55,0 1,0.45 1,1 l 0,1 c 0,0.55 -0.45,1 -1,1 z m -7,-1 0,-1 c 0,-0.55 -0.45,-1 -1,-1 -0.55,0 -1,0.45 -1,1 l 0,1 c 0,0.55 0.45,1 1,1 0.55,0 1,-0.45 1,-1 z"
     id="path26"
     inkscape:connector-curvature="0"
     style="fill:#662113" />
</svg>
