<?xml version="1.0" encoding="UTF-8" standalone="no"?>
<svg
   xmlns:dc="http://purl.org/dc/elements/1.1/"
   xmlns:cc="http://creativecommons.org/ns#"
   xmlns:rdf="http://www.w3.org/1999/02/22-rdf-syntax-ns#"
   xmlns:svg="http://www.w3.org/2000/svg"
   xmlns="http://www.w3.org/2000/svg"
   xmlns:sodipodi="http://sodipodi.sourceforge.net/DTD/sodipodi-0.dtd"
   xmlns:inkscape="http://www.inkscape.org/namespaces/inkscape"
   viewBox="0 0 36 33.5"
   id="svg2"
   version="1.1"
   inkscape:version="0.91 r13725"
   sodipodi:docname="1f9d6-1f3fb.svg"
   width="36"
   height="33.5">
  <metadata
     id="metadata54">
    <rdf:RDF>
      <cc:Work
         rdf:about="">
        <dc:format>image/svg+xml</dc:format>
        <dc:type
           rdf:resource="http://purl.org/dc/dcmitype/StillImage" />
      </cc:Work>
    </rdf:RDF>
  </metadata>
  <defs
     id="defs52" />
  <sodipodi:namedview
     pagecolor="#ffffff"
     bordercolor="#666666"
     borderopacity="1"
     objecttolerance="10"
     gridtolerance="10"
     guidetolerance="10"
     inkscape:pageopacity="0"
     inkscape:pageshadow="2"
     inkscape:window-width="640"
     inkscape:window-height="480"
     id="namedview50"
     showgrid="false"
     inkscape:zoom="6.5555556"
     inkscape:cx="18"
     inkscape:cy="18"
     inkscape:window-x="0"
     inkscape:window-y="0"
     inkscape:window-maximized="0"
     inkscape:current-layer="svg2" />
  <g
     id="g4"
     style="fill:#e1e8ed"
     transform="translate(0,-2.5)">
    <circle
       cx="4.5"
       cy="25.5"
       r="4.5"
       id="circle6" />
    <circle
       cx="25.5"
       cy="20.5"
       r="5.5"
       id="circle8" />
    <circle
       cx="31"
       cy="26.5"
       r="5"
       id="circle10" />
    <circle
       cx="12"
       cy="24"
       r="5"
       id="circle12" />
    <path
       d="m 33,30 c -1.657,0 -3,1.343 -3,3 L 6,33 c 0,-1.657 -1.343,-3 -3,-3 -1.657,0 -3,1.343 -3,3 0,1.657 1.343,3 3,3 l 29,0 0,-0.184 c 0.314,0.112 0.647,0.184 1,0.184 1.657,0 3,-1.343 3,-3 0,-1.657 -1.343,-3 -3,-3 z"
       id="path14"
       inkscape:connector-curvature="0" />
    <path
       d="m 0,25.5 9,0 0,7.5 -9,0 z m 20,-2.5 9,0 0,4 -9,0 z m 11,3.5 5,0 0,6.5 -5,0 z"
       id="path16"
       inkscape:connector-curvature="0" />
  </g>
  <path
     d="M 31,33.5 31,29 c 0,-3.314 -3.56,-5.5 -6.875,-5.5 l -12,0 C 8.812,23.5 5,25.686 5,29 l 0,4.5 26,0 z"
     id="path18"
     inkscape:connector-curvature="0"
     style="fill:#f7dece" />
  <path
     d="m 17.945,1.478 c 4.105,0 10.947,2.053 10.947,10.947 0,8.896 0,10.948 -2.053,10.948 -2.053,0 -4.79,-2.053 -8.895,-2.053 -4.105,0 -6.785,2.053 -8.895,2.053 -2.287,0 -2.053,-8.211 -2.053,-10.948 C 6.997,3.531 13.84,1.478 17.945,1.478"
     id="path20"
     inkscape:connector-curvature="0"
     style="fill:#292f33" />
  <path
     d="m 14.5,23.5 c 1,1.982 2.792,4.5 3.5,4.5 0.708,0 2.512,-2.549 3.5,-4.5 l 0,-3.591 -7,0 0,3.591 z"
     id="path22"
     inkscape:connector-curvature="0"
     style="fill:#f7dece" />
  <path
     d="m 14.322,21.588 c 1.022,1.155 2.29,1.468 3.668,1.468 1.379,0 2.647,-0.312 3.67,-1.468 l 0,-2.937 -7.338,0 0,2.937 z"
     id="path24"
     inkscape:connector-curvature="0"
     style="fill:#eec2ad" />
  <path
     d="m 9.734,12.127 c 0,-5.834 3.676,-10.563 8.211,-10.563 4.533,0 8.209,4.73 8.209,10.563 0,5.833 -3.676,10.285 -8.209,10.285 -4.535,0 -8.211,-4.452 -8.211,-10.285"
     id="path26"
     inkscape:connector-curvature="0"
     style="fill:#f7dece" />
  <path
     d="m 17.945,19.952 c -1.606,0 -2.447,-0.794 -2.537,-0.885 -0.268,-0.267 -0.268,-0.7 0,-0.967 0.266,-0.265 0.692,-0.267 0.961,-0.007 0.035,0.032 0.551,0.491 1.576,0.491 1.038,0 1.555,-0.473 1.576,-0.492 0.273,-0.256 0.703,-0.248 0.963,0.02 0.26,0.269 0.26,0.691 -0.004,0.955 -0.089,0.091 -0.929,0.885 -2.535,0.885"
     id="path28"
     inkscape:connector-curvature="0"
     style="fill:#df1f32" />
  <path
     d="m 7.735,15.409 c -0.021,-1 -0.044,-0.224 -0.044,-0.465 0,-3.422 2.053,0.494 2.053,-1.943 0,-2.439 1.368,-2.683 2.736,-4.051 0.684,-0.685 2.053,-2.026 2.053,-2.026 0,0 3.421,2.067 6.158,2.067 2.736,0 5.474,1.375 5.474,4.112 0,2.736 2.053,-1.584 2.053,1.837 0,0.244 -0.023,-0.531 -0.04,0.469 l 0.719,0 c 0.006,-2 0.006,-1.924 0.006,-3.202 C 28.902,3.312 22.06,0 17.954,0 13.85,0 7.007,3.257 7.007,12.152 c 0,0.793 -0.02,1.257 0.008,3.257 l 0.72,0 z"
     id="path30"
     inkscape:connector-curvature="0"
     style="fill:#292f33" />
  <path
     d="m 14.608,14.296 c -0.465,0 -0.846,-0.381 -0.846,-0.847 l 0,-0.845 c 0,-0.465 0.381,-0.846 0.846,-0.846 0.466,0 0.847,0.381 0.847,0.846 l 0,0.845 c 0,0.466 -0.381,0.847 -0.847,0.847 m 6.765,0 c -0.465,0 -0.846,-0.381 -0.846,-0.847 l 0,-0.845 c 0,-0.465 0.381,-0.846 0.846,-0.846 0.465,0 0.846,0.381 0.846,0.846 l 0,0.845 c 0,0.466 -0.381,0.847 -0.846,0.847"
     id="path32"
     inkscape:connector-curvature="0"
     style="fill:#662113" />
  <path
     d="m 18.836,16.909 -1.69,0 c -0.233,0 -0.423,-0.19 -0.423,-0.423 l 0,-0.153 c 0,-0.233 0.189,-0.424 0.423,-0.424 l 1.69,0 c 0.233,0 0.424,0.19 0.424,0.424 l 0,0.153 c 0,0.234 -0.191,0.423 -0.424,0.423"
     id="path34"
     inkscape:connector-curvature="0"
     style="fill:#c1694f" />
  <path
     d="m 9.75,29 0,4.5 11.5,0 0,-0.5 5,0 0,-4 z"
     id="path36"
     inkscape:connector-curvature="0"
     style="fill:#9266cc" />
  <path
     d="m 19.25,29 c 2,1 2,4 2,4 l 0,0.5 1,0 0,-0.5 3,0 0,-4 -6,0 z"
     id="path38"
     inkscape:connector-curvature="0"
     style="fill:#a47de2" />
  <path
     d="m 20.25,29 c 2,1 2,4 2,4 l 0,0.5 4,0 0,-4.5 -6,0 z"
     id="path40"
     inkscape:connector-curvature="0"
     style="fill:#744eaa" />
  <path
     d="m 20.25,29 -10.5,0 0,1 11.621,0 c -0.277,-0.402 -0.64,-0.76 -1.121,-1 z"
     id="path42"
     inkscape:connector-curvature="0"
     style="fill:#744eaa" />
  <path
     d="m 20.371,30 1,0 c -0.277,-0.402 -0.64,-0.76 -1.121,-1 l -1,0 c 0.481,0.24 0.844,0.598 1.121,1 z"
     id="path44"
     inkscape:connector-curvature="0"
     style="fill:#9266cc" />
  <path
     d="m 20.25,29 c 0.481,0.24 0.844,0.598 1.121,1 l 4.879,0 0,-1 -6,0 z"
     id="path46"
     inkscape:connector-curvature="0"
     style="fill:#553788" />
  <path
     d="m 32,25.5 c -2.975,0 -5.438,2.168 -5.911,5.009 C 26.058,30.508 26.03,30.5 26,30.5 c -2.049,0 -3.806,1.236 -4.578,3 L 33,33.5 c 1.65,0 3,-1.35 3,-3 l 0,-3.463 C 34.938,26.084 33.539,25.5 32,25.5 Z m -18.422,8 C 12.806,31.736 11.049,30.5 9,30.5 8.22,30.5 7.491,30.694 6.834,31.012 6.932,30.69 7,30.355 7,30 7,28.067 5.433,26.5 3.5,26.5 c -1.762,0 -3.205,1.306 -3.45,3 l -0.05,0 0,1 c 0,1.65 1.35,3 3,3 l 10.578,0 z"
     id="path48"
     inkscape:connector-curvature="0"
     style="opacity:0.7;fill:#ffffff" />
</svg>
