<?xml version="1.0" encoding="UTF-8" standalone="no"?>
<svg
   xmlns:dc="http://purl.org/dc/elements/1.1/"
   xmlns:cc="http://creativecommons.org/ns#"
   xmlns:rdf="http://www.w3.org/1999/02/22-rdf-syntax-ns#"
   xmlns:svg="http://www.w3.org/2000/svg"
   xmlns="http://www.w3.org/2000/svg"
   xmlns:sodipodi="http://sodipodi.sourceforge.net/DTD/sodipodi-0.dtd"
   xmlns:inkscape="http://www.inkscape.org/namespaces/inkscape"
   viewBox="0 0 24.892794 34.886135"
   id="svg2"
   version="1.1"
   inkscape:version="0.91 r13725"
   sodipodi:docname="1f9d8-1f3ff-200d-2642-fe0f.svg"
   width="24.892794"
   height="34.886135">
  <metadata
     id="metadata32">
    <rdf:RDF>
      <cc:Work
         rdf:about="">
        <dc:format>image/svg+xml</dc:format>
        <dc:type
           rdf:resource="http://purl.org/dc/dcmitype/StillImage" />
      </cc:Work>
    </rdf:RDF>
  </metadata>
  <defs
     id="defs30" />
  <sodipodi:namedview
     pagecolor="#ffffff"
     bordercolor="#666666"
     borderopacity="1"
     objecttolerance="10"
     gridtolerance="10"
     guidetolerance="10"
     inkscape:pageopacity="0"
     inkscape:pageshadow="2"
     inkscape:window-width="640"
     inkscape:window-height="480"
     id="namedview28"
     showgrid="false"
     inkscape:zoom="6.5555556"
     inkscape:cx="12.445853"
     inkscape:cy="17.839136"
     inkscape:window-x="0"
     inkscape:window-y="0"
     inkscape:window-maximized="0"
     inkscape:current-layer="svg2" />
  <path
     d="m 23.077853,29.61 c -0.178,-1.426 -1.568,-1.931 -2.257,-1.931 -0.884,0 -2.992,1.106 -3.375,-0.585 l -0.037,-0.183 -9.9100005,-0.012 -0.053,0.184 c -0.375,1.708 -2.492,0.596 -3.378,0.596 -0.689,0 -2.079,0.505 -2.257,1.931 0,0 6.765,2.437 10.6350005,2.437 3.873,0 10.632,-2.437 10.632,-2.437 z"
     id="path4"
     inkscape:connector-curvature="0"
     style="fill:#4289c1" />
  <path
     d="m 6.9428525,15.071 c -0.674,-0.134 -1.336,1.309 -1.47,1.983 l -1.181,5.013 c -1.619,1.166 -1.57,3.454 -2.808,4.512 -0.171,0.146 -0.94899997,0.766 -1.20299997,1.325 -0.336,0.738 0.22,0.444 0.045,0.695 -0.406,0.584 -0.414,1.478 -0.127,1.686 l 0.373,0.1 c 0.55699997,0.403 2.08099997,-1.336 2.28099997,-2.302 0.3,-1.443 3.075,-3.25 3.589,-4.653 0.006,-0.017 0.007,-0.029 0.013,-0.046 0.097,-0.138 0.169,-0.294 0.204,-0.469 l 1.266,-6.375 c 0.135,-0.674 -0.308,-1.335 -0.982,-1.469 z M 24.532853,28.659 c -0.175,-0.251 0.437,-0.016 0.101,-0.754 -0.255,-0.56 -1.089,-1.179 -1.259,-1.325 -1.246,-1.064 -1.133,-3.377 -2.781,-4.535 l -1.176,-4.99 c -0.134,-0.674 -0.795,-2.117 -1.47,-1.983 -0.674,0.134 -1.116,0.795 -0.983,1.47 l 1.266,6.375 c 0.038,0.191 0.125,0.355 0.236,0.501 l 0.004,0.014 c 0.513,1.402 3.289,3.209 3.589,4.653 0.201,0.967 1.725,2.706 2.281,2.302 l 0.373,-0.1 c 0.29,-0.21 0.226,-1.044 -0.181,-1.628 z"
     id="path6"
     inkscape:connector-curvature="0"
     style="fill:#7c533e" />
  <path
     d="m 17.202853,34.867 c -1.04,0.089 -2.02,-0.208 -3,0 -0.475,0.03 -0.802,0 -1.277,-0.416 -0.475,-0.416 -8.2870005,-1.515 -9.7130005,-2.465 -0.658,-0.439 -1.662,-1.54 -1.396,-2.465 0.263,-0.913 1.139,-1.429 2.198,-1.455 2.065,-0.051 6.0000005,2.941 8.8510005,4.04 0.518,0.2 0.948,-0.052 1.604,0.119 0.683,0.178 2.317,-0.555 3.149,-0.446 1.129,0.149 1.574,0.683 1.485,1.604 -0.094,0.974 -0.861,1.395 -1.901,1.484 z"
     id="path8"
     inkscape:connector-curvature="0"
     style="fill:#7c533e" />
  <path
     d="m 17.202853,34.867 c -1.04,0.089 -2.02,-0.208 -3,0 -0.475,0.03 -0.802,0 -1.277,-0.416 -0.475,-0.416 0.889,-2.399 1.545,-2.228 0.683,0.178 2.317,-0.555 3.149,-0.446 1.129,0.149 1.574,0.683 1.485,1.604 -0.095,0.976 -0.862,1.397 -1.902,1.486 z M 5.6418525,32.253 c 0.238,-0.624 1.188,-0.891 1.634,-0.95 0.446,-0.059 1.188,0.208 1.693,0.416 0.505,0.208 1.1180005,0.234 1.5040005,0.085 0.386,-0.149 0.668,-0.124 0.958,0 0.078,0.033 0.423,0 0.546,-0.067 0,0 1.79,0.616 1.136,0.824 -0.653,0.208 -5.4210005,0.524 -6.0740005,0.524 -0.653,0 -1.397,-0.832 -1.397,-0.832 z"
     id="path10"
     inkscape:connector-curvature="0"
     style="fill:#664131" />
  <path
     d="m 1.8168525,29.521 c 0.006,-0.02 0.016,-0.037 0.022,-0.056 0.201,0.762 0.76,1.66 1.401,1.898 0.802,0.297 7.2470005,2.198 8.0490005,2.287 0.802,0.089 1.99,0.208 2.228,0.386 0.238,0.178 0.861,0.238 1.366,0.119 0.505,-0.119 1.782,0.356 2.436,0.208 0.653,-0.148 1.604,-0.445 1.782,-1.247 0.003,-0.015 0.007,-0.022 0.011,-0.034 0.004,0.096 0.003,0.195 -0.007,0.302 -0.094,0.975 -0.861,1.396 -1.901,1.485 -1.04,0.089 -2.02,-0.208 -3,0 -0.475,0.03 -0.802,0 -1.277,-0.416 -0.475,-0.416 -8.2870005,-1.515 -9.7130005,-2.465 -0.659,-0.441 -1.663,-1.543 -1.397,-2.467 z"
     id="path12"
     inkscape:connector-curvature="0"
     style="fill:#664131" />
  <path
     d="m 7.6888525,34.867 c 1.04,0.089 2.02,-0.208 3.0000005,0 0.475,0.03 0.802,0 1.277,-0.416 0.475,-0.416 8.287,-1.515 9.713,-2.465 0.658,-0.439 1.662,-1.54 1.396,-2.465 -0.263,-0.913 -1.139,-1.429 -2.198,-1.455 -2.065,-0.051 -6,2.941 -8.851,4.04 -0.518,0.2 -0.948,-0.052 -1.604,0.119 -0.6830005,0.178 -2.3170005,-0.555 -3.1490005,-0.446 -1.129,0.149 -1.574,0.683 -1.485,1.604 0.094,0.974 0.861,1.395 1.901,1.484 z"
     id="path14"
     inkscape:connector-curvature="0"
     style="fill:#7c533e" />
  <path
     d="m 16.988853,14.047 -9.0600005,0 c -2.562,0 -2.943,4.394 -2.943,4.394 l 2.458,0.535 c 0,0 0.31,3.589 0.271,5.27 -0.038,1.682 -0.27,2.801 -0.27,2.801 0,0 1.912,0.394 5.0000005,0.394 3.088,0 5,-0.394 5,-0.394 0,0 -0.349,-1.606 -0.349,-2.978 0,-1.372 0.349,-5.093 0.349,-5.093 l 2.458,-0.535 c 0,0 -0.352,-4.394 -2.914,-4.394 z"
     id="path16"
     inkscape:connector-curvature="0"
     style="fill:#77b255" />
  <path
     d="m 10.112853,9.436 0,4.666 c 0,0.312 0.553,1.488 2.333,1.488 1.781,0 2.333,-1.214 2.333,-1.488 l 0,-4.666 -4.666,0 z"
     id="path18"
     inkscape:connector-curvature="0"
     style="fill:#7c533e" />
  <path
     d="m 14.778853,8.821 -4.666,0.022 0,4.644 c 0,0 2.333,1.167 4.666,0 l 0,-4.666 z"
     id="path20"
     inkscape:connector-curvature="0"
     style="fill:#664131" />
  <path
     d="m 17.399853,3.013 -9.9080005,0 0,5.433 c 0,2.737 2.218,4.954 4.9540005,4.954 2.736,0 4.954,-2.217 4.954,-4.954 l 0,-5.433 z"
     id="path22"
     inkscape:connector-curvature="0"
     style="fill:#7c533e" />
  <path
     d="m 14.427853,11.104 -3.964,0 c 0,0 0,0.991 1.982,0.991 1.982,0 1.982,-0.991 1.982,-0.991 z m -3.732,-3.307 -1.5000005,0 c -0.137,0 -0.25,-0.113 -0.25,-0.25 0,-0.137 0.113,-0.25 0.25,-0.25 l 1.5000005,0 c 0.138,0 0.25,0.113 0.25,0.25 0,0.137 -0.112,0.25 -0.25,0.25 z m 5,0 -1.5,0 c -0.138,0 -0.25,-0.113 -0.25,-0.25 0,-0.137 0.112,-0.25 0.25,-0.25 l 1.5,0 c 0.138,0 0.25,0.113 0.25,0.25 0,0.137 -0.112,0.25 -0.25,0.25 z m -4.241,1.326 1.982,0 c 0,0 0,0.991 -0.991,0.991 -0.991,0 -0.991,-0.991 -0.991,-0.991 z"
     id="path24"
     inkscape:connector-curvature="0"
     style="fill:#3d2e24" />
  <path
     d="m 12.445853,0 c 3.385,0 5.5,2.579 5.5,4.728 0,2.149 -0.423,3.009 -0.846,2.149 l -0.846,-1.719 c 0,0 -2.538,0 -3.384,-0.86 0,0 1.269,2.579 -1.269,0 0,0 0.423,1.72 -2.1150005,-0.429 0,0 -1.269,0.86 -1.692,3.008 -0.117,0.597 -0.846,0 -0.846,-2.149 C 6.9458525,2.579 8.6378525,0 12.445853,0"
     id="path26"
     inkscape:connector-curvature="0"
     style="fill:#0b0200" />
</svg>
