<?xml version="1.0" encoding="UTF-8" standalone="no"?>
<svg
   xmlns:dc="http://purl.org/dc/elements/1.1/"
   xmlns:cc="http://creativecommons.org/ns#"
   xmlns:rdf="http://www.w3.org/1999/02/22-rdf-syntax-ns#"
   xmlns:svg="http://www.w3.org/2000/svg"
   xmlns="http://www.w3.org/2000/svg"
   xmlns:sodipodi="http://sodipodi.sourceforge.net/DTD/sodipodi-0.dtd"
   xmlns:inkscape="http://www.inkscape.org/namespaces/inkscape"
   viewBox="0 0 26.662001 31.917"
   id="svg2"
   version="1.1"
   inkscape:version="0.91 r13725"
   sodipodi:docname="1f9d1-1f3fb.svg"
   width="26.662001"
   height="31.917">
  <metadata
     id="metadata16">
    <rdf:RDF>
      <cc:Work
         rdf:about="">
        <dc:format>image/svg+xml</dc:format>
        <dc:type
           rdf:resource="http://purl.org/dc/dcmitype/StillImage" />
      </cc:Work>
    </rdf:RDF>
  </metadata>
  <defs
     id="defs14" />
  <sodipodi:namedview
     pagecolor="#ffffff"
     bordercolor="#666666"
     borderopacity="1"
     objecttolerance="10"
     gridtolerance="10"
     guidetolerance="10"
     inkscape:pageopacity="0"
     inkscape:pageshadow="2"
     inkscape:window-width="640"
     inkscape:window-height="480"
     id="namedview12"
     showgrid="false"
     inkscape:zoom="6.5555556"
     inkscape:cx="13.333"
     inkscape:cy="17"
     inkscape:window-x="0"
     inkscape:window-y="0"
     inkscape:window-maximized="0"
     inkscape:current-layer="svg2" />
  <path
     d="m 18.692,8.205 c -4,0 -12.6519998,-1.04 -12.6519998,-1.04 0,0 -1.73,1.903 -2.73,2.903 -1.863,1.863 -1.701,4.221 -1.948,7.162 0.307,8.174 5.54,14.687 11.9709998,14.687 6.394,0 11.606,-6.44 11.965,-14.551 -0.352,-3.63 -2.796,-9.161 -6.606,-9.161 z"
     id="path4"
     inkscape:connector-curvature="0"
     style="fill:#f7dece" />
  <path
     d="m 13.333,27.917 c -2.347,0 -3.5749998,-1.16 -3.7069998,-1.293 -0.391,-0.391 -0.391,-1.023 0,-1.414 C 10.013,24.823 10.639,24.82 11.03,25.2 c 0.051,0.047 0.806,0.717 2.303,0.717 1.519,0 2.273,-0.69 2.305,-0.719 0.398,-0.373 1.027,-0.362 1.408,0.029 0.379,0.393 0.38,1.011 -0.006,1.397 -0.132,0.133 -1.36,1.293 -3.707,1.293 z m 1,-5 -2,0 c -0.552,0 -1,-0.447 -1,-1 0,-0.553 0.448,-1 1,-1 l 2,0 c 0.553,0 1,0.447 1,1 0,0.553 -0.447,1 -1,1 z"
     id="path6"
     inkscape:connector-curvature="0"
     style="fill:#c1694f" />
  <path
     d="m 8.3330002,18.917 c -0.552,0 -1,-0.447 -1,-1 l 0,-2 c 0,-0.552 0.448,-1 1,-1 0.552,0 1,0.448 1,1 l 0,2 c 0,0.553 -0.448,1 -1,1 z m 9.9999998,0 c -0.553,0 -1,-0.447 -1,-1 l 0,-2 c 0,-0.552 0.447,-1 1,-1 0.553,0 1,0.448 1,1 l 0,2 c 0,0.553 -0.447,1 -1,1 z"
     id="path8"
     inkscape:connector-curvature="0"
     style="fill:#662113" />
  <path
     d="m 13.331,0 c 8.205,0 13.331,6.054 13.331,11.099 0,5.044 -1.026,7.064 -2.051,5.044 -1.026,-2.017 -2.051,-5.035 -2.051,-5.035 0,0 -3.478,2.253 -6.203,-1.019 0,0 1.077,6.054 -5.077,0 0,0 1.026,4.037 -5.1269998,-1.008 0,0 -3.077,2.018 -4.102,7.062 C 1.7670002,17.544 1.8279122e-7,16.143 1.8279122e-7,11.099 -9.9981721e-4,6.054 4.1010002,0 13.331,0"
     id="path10"
     inkscape:connector-curvature="0"
     style="fill:#292f33" />
</svg>
