<?xml version="1.0" encoding="UTF-8" standalone="no"?>
<svg
   xmlns:dc="http://purl.org/dc/elements/1.1/"
   xmlns:cc="http://creativecommons.org/ns#"
   xmlns:rdf="http://www.w3.org/1999/02/22-rdf-syntax-ns#"
   xmlns:svg="http://www.w3.org/2000/svg"
   xmlns="http://www.w3.org/2000/svg"
   xmlns:sodipodi="http://sodipodi.sourceforge.net/DTD/sodipodi-0.dtd"
   xmlns:inkscape="http://www.inkscape.org/namespaces/inkscape"
   viewBox="0 0 28 35"
   id="svg2"
   version="1.1"
   inkscape:version="0.91 r13725"
   sodipodi:docname="1f9dd-1f3fc-200d-2640-fe0f.svg"
   width="28"
   height="35">
  <metadata
     id="metadata38">
    <rdf:RDF>
      <cc:Work
         rdf:about="">
        <dc:format>image/svg+xml</dc:format>
        <dc:type
           rdf:resource="http://purl.org/dc/dcmitype/StillImage" />
      </cc:Work>
    </rdf:RDF>
  </metadata>
  <defs
     id="defs36" />
  <sodipodi:namedview
     pagecolor="#ffffff"
     bordercolor="#666666"
     borderopacity="1"
     objecttolerance="10"
     gridtolerance="10"
     guidetolerance="10"
     inkscape:pageopacity="0"
     inkscape:pageshadow="2"
     inkscape:window-width="640"
     inkscape:window-height="480"
     id="namedview34"
     showgrid="false"
     inkscape:zoom="6.5555556"
     inkscape:cx="14"
     inkscape:cy="18"
     inkscape:window-x="0"
     inkscape:window-y="0"
     inkscape:window-maximized="0"
     inkscape:current-layer="svg2" />
  <ellipse
     cx="14"
     cy="3.5"
     rx="4"
     ry="3.5"
     id="ellipse4"
     style="fill:#662113" />
  <ellipse
     cx="14"
     cy="5"
     rx="4"
     ry="3"
     id="ellipse6"
     style="fill:#ea596e" />
  <path
     d="M 4,13 C 4,13 3,27 3,32 l 11,0 0,-20 -10,1 z m 20,0 c 0,0 1,14 1,19 l -11,0 0,-20 10,1 z"
     id="path8"
     inkscape:connector-curvature="0"
     style="fill:#662113" />
  <path
     d="M 14,11 14,3 C 9,3 4,6 4,12 c 0,6 2.553,0.894 3,0 2,-4 5,-1 7,-1 z m 0,0 0,-8 c 5,0 10,3 10,9 0,6 -2.553,0.894 -3,0 -2,-4 -5,-1 -7,-1 z"
     id="path10"
     inkscape:connector-curvature="0"
     style="fill:#662113" />
  <path
     d="m 28,35 0,-1 c 0,-3.313 -3.687,-7 -7,-7 L 7,27 c -3.313,0 -7,3.687 -7,7 l 0,1 28,0 z"
     id="path12"
     inkscape:connector-curvature="0"
     style="fill:#5c913b" />
  <path
     d="M 9.64,27.101 C 11.384,28.368 14,34 14,34 c 0,0 2.616,-5.633 4.36,-6.899 l 0,-3.811 -8.72,0 0,3.811 z"
     id="path14"
     inkscape:connector-curvature="0"
     style="fill:#f3d2a2" />
  <path
     d="m 9.632,24.973 c 1.216,1.374 2.724,2.027 4.364,2.027 1.639,0 3.147,-0.654 4.364,-2.027 l 0,-3.491 -8.728,0 0,3.491 z"
     id="path16"
     inkscape:connector-curvature="0"
     style="fill:#e2c196" />
  <path
     d="m 6,14 c 0,-5.589 3.293,-8.879 8,-8.879 4.707,0 8,3.29 8,8.879 0,8 -5,12 -8,12 -3,0 -8,-4 -8,-12 z"
     id="path18"
     inkscape:connector-curvature="0"
     style="fill:#f3d2a2" />
  <path
     d="m 10.5,16.75 c -0.468,0 -0.85,-0.382 -0.85,-0.85 l 0,-0.8 c 0,-0.467 0.382,-0.85 0.85,-0.85 0.467,0 0.85,0.382 0.85,0.85 l 0,0.8 c 0,0.468 -0.382,0.85 -0.85,0.85 z m 7,0 c -0.468,0 -0.85,-0.382 -0.85,-0.85 l 0,-0.8 c 0,-0.467 0.382,-0.85 0.85,-0.85 0.468,0 0.85,0.382 0.85,0.85 l 0,0.8 c 0,0.468 -0.382,0.85 -0.85,0.85 z"
     id="path20"
     inkscape:connector-curvature="0"
     style="fill:#662113" />
  <path
     d="m 14.65,20.2 -1.3,0 c -0.33,0 -0.6,-0.27 -0.6,-0.6 0,-0.33 0.27,-0.6 0.6,-0.6 l 1.3,0 c 0.33,0 0.6,0.27 0.6,0.6 0,0.33 -0.27,0.6 -0.6,0.6 z"
     id="path22"
     inkscape:connector-curvature="0"
     style="fill:#c1694f" />
  <path
     d="m 14,23.339 c -1.256,0 -2.353,-0.361 -2.933,-0.968 -0.229,-0.239 -0.221,-0.619 0.018,-0.849 0.239,-0.229 0.619,-0.221 0.848,0.019 0.348,0.363 1.159,0.598 2.067,0.598 0.907,0 1.719,-0.234 2.066,-0.598 0.229,-0.24 0.608,-0.249 0.849,-0.019 0.239,0.229 0.247,0.609 0.019,0.849 -0.581,0.607 -1.678,0.968 -2.934,0.968 z"
     id="path24"
     inkscape:connector-curvature="0"
     style="fill:#df1f32" />
  <path
     d="m 4.11,13.073 1.936,1.849 c 0,0 0.973,3.051 0,3.997 C 5.147,19.793 1,13.405 1,12.073 c 0,-1 3.11,1 3.11,1 z m 19.458,0 -1.779,1.849 c 0,0 -0.602,2.823 0,3.997 0.448,0.874 5.211,-5.514 5.211,-6.846 0,-1 -3.432,1 -3.432,1 z"
     id="path26"
     inkscape:connector-curvature="0"
     style="fill:#f3d2a2" />
  <path
     d="m 14,3 c -5,0 -9,3 -9,9 0,6 1.445,0.832 2,0 2,-3 5,-1 7,-1 2,0 5,-2 7,1 0.555,0.832 2,6 2,0 0,-6 -4,-9 -9,-9 z"
     id="path28"
     inkscape:connector-curvature="0"
     style="fill:#662113" />
  <path
     d="M 5,12 4,35 8,35 C 8,35 5.373,14.516 7,12 7.698,10.92 5,12 5,12 Z m 17.985,0 0.986,23 -4,0 c 0,0 2.646,-20.484 1.043,-23 -0.688,-1.08 1.971,0 1.971,0 z"
     id="path30"
     inkscape:connector-curvature="0"
     style="fill:#662113" />
  <path
     d="m 14,6 c 4,0 8,2 8,4 0,0 -2,-3 -8,-3 -6,0 -8,3 -8,3 0,0 1,-4 8,-4 z"
     id="path32"
     inkscape:connector-curvature="0"
     style="fill:#ea596e" />
</svg>
