<?xml version="1.0" encoding="UTF-8" standalone="no"?>
<svg
   xmlns:dc="http://purl.org/dc/elements/1.1/"
   xmlns:cc="http://creativecommons.org/ns#"
   xmlns:rdf="http://www.w3.org/1999/02/22-rdf-syntax-ns#"
   xmlns:svg="http://www.w3.org/2000/svg"
   xmlns="http://www.w3.org/2000/svg"
   xmlns:sodipodi="http://sodipodi.sourceforge.net/DTD/sodipodi-0.dtd"
   xmlns:inkscape="http://www.inkscape.org/namespaces/inkscape"
   viewBox="0 0 32 36"
   id="svg2"
   version="1.1"
   inkscape:version="0.91 r13725"
   sodipodi:docname="1f9d9-1f3fe-200d-2642-fe0f.svg"
   width="32"
   height="36">
  <metadata
     id="metadata32">
    <rdf:RDF>
      <cc:Work
         rdf:about="">
        <dc:format>image/svg+xml</dc:format>
        <dc:type
           rdf:resource="http://purl.org/dc/dcmitype/StillImage" />
      </cc:Work>
    </rdf:RDF>
  </metadata>
  <defs
     id="defs30" />
  <sodipodi:namedview
     pagecolor="#ffffff"
     bordercolor="#666666"
     borderopacity="1"
     objecttolerance="10"
     gridtolerance="10"
     guidetolerance="10"
     inkscape:pageopacity="0"
     inkscape:pageshadow="2"
     inkscape:window-width="640"
     inkscape:window-height="480"
     id="namedview28"
     showgrid="false"
     inkscape:zoom="6.5555556"
     inkscape:cx="17"
     inkscape:cy="18"
     inkscape:window-x="0"
     inkscape:window-y="0"
     inkscape:window-maximized="0"
     inkscape:current-layer="svg2" />
  <path
     d="M 25,28 9,28 C 6.516,28 4.385,29.51 3.473,31.661 3.107,31.258 2.584,31 2,31 0.9,31 0,31.9 0,33 l 0,3 31,0 0,-2 c 0,-3.313 -2.687,-6 -6,-6 z"
     id="path4"
     inkscape:connector-curvature="0"
     style="fill:#4289c1" />
  <path
     d="m 13,27 8,0 c 0,0 1,9 -4,9 -5,0 -4,-9 -4,-9 z"
     id="path6"
     inkscape:connector-curvature="0"
     style="fill:#2a6797" />
  <ellipse
     cx="17"
     cy="19.024"
     rx="15"
     ry="3.529"
     id="ellipse8"
     style="fill:#292f33" />
  <path
     d="M 25.339,17.563 C 24.53,13.963 21.104,8.913 17,8.913 c -4.104,0 -7.53,5.05 -8.339,8.65 -0.836,0.048 -1.494,0.52 -1.494,1.889 0,1.448 0.734,2.622 1.639,2.622 0.015,0 0.028,-0.006 0.043,-0.007 1.064,4.376 4.31,8.013 8.152,8.013 3.842,0 7.088,-3.637 8.152,-8.013 0.015,0.001 0.028,0.007 0.043,0.007 0.905,0 1.639,-1.174 1.639,-2.622 -0.002,-1.369 -0.659,-1.84 -1.496,-1.889 z"
     id="path10"
     inkscape:connector-curvature="0"
     style="fill:#af7e57" />
  <path
     d="m 13,20.709 c -0.55,0 -1,-0.45 -1,-1 l 0,-1 c 0,-0.55 0.45,-1 1,-1 0.55,0 1,0.45 1,1 l 0,1 c 0,0.55 -0.45,1 -1,1 z m 8,0 c -0.55,0 -1,-0.45 -1,-1 l 0,-1 c 0,-0.55 0.45,-1 1,-1 0.55,0 1,0.45 1,1 l 0,1 c 0,0.55 -0.45,1 -1,1 z"
     id="path12"
     inkscape:connector-curvature="0"
     style="fill:#662113" />
  <path
     d="m 17.75,21.824 -1.5,0 c -0.413,0 -0.75,-0.337 -0.75,-0.75 0,-0.413 0.337,-0.75 0.75,-0.75 l 1.5,0 c 0.413,0 0.75,0.337 0.75,0.75 0,0.413 -0.337,0.75 -0.75,0.75 z m 1.417,3.209 -4.333,0 c -0.412,0 -0.75,-0.337 -0.75,-0.75 l 0,-0.331 c 0,-0.412 0.337,-0.75 0.75,-0.75 l 4.333,0 c 0.413,0 0.75,0.337 0.75,0.75 l 0,0.331 c 0,0.412 -0.338,0.75 -0.75,0.75 z"
     id="path14"
     inkscape:connector-curvature="0"
     style="fill:#915a34" />
  <path
     d="m 25.424,17.846 c 0.193,-0.092 0.348,-0.224 0.449,-0.399 0.414,-0.717 -0.219,-1.859 -1.415,-2.549 -1.196,-0.69 -2.501,-0.668 -2.915,0.049 -0.414,0.717 0.219,1.859 1.415,2.549 0.519,0.299 1.054,0.457 1.532,0.489 -0.292,0.524 -0.49,1.473 -0.49,2.569 0,1.063 0.185,1.991 0.463,2.524 -0.409,-0.016 -0.953,0.396 -1.291,0.764 C 22.463,23.103 21.331,22.293 20.052,22.04 18,21.634 17.151,22.426 16.964,22.973 16.782,22.426 15.935,21.625 13.874,22.033 12.615,22.282 11.5,23.071 10.789,23.8 10.45,23.443 9.929,23.063 9.536,23.078 9.815,22.545 10,21.616 10,20.554 10,19.453 9.8,18.5 9.505,17.979 c 0.566,0.064 1.274,-0.09 1.953,-0.482 1.196,-0.69 1.829,-1.832 1.415,-2.549 -0.414,-0.717 -1.719,-0.739 -2.915,-0.049 -1.196,0.69 -1.829,1.832 -1.415,2.549 0.05,0.087 0.115,0.163 0.189,0.229 C 8.311,18.029 8,19.177 8,20.554 c 0,1.657 0.448,3 1,3 0.02,0 0.039,-0.014 0.059,-0.018 C 9.022,23.672 9,23.838 9,24.047 c 0,1.823 0.667,1.823 0.667,1.823 -0.667,1.823 0.667,3.66 0.667,3.66 0,2.735 2,2.735 2,2.735 C 12.333,35 15,34.089 15,34.089 15.667,35 17,35 17,35 c 0,0 1.333,0 2,-0.911 0,0 2.667,0.911 2.667,-1.823 0,0 2,0 2,-2.735 0,0 1.333,-1.837 0.667,-3.66 0,0 0.667,0 0.667,-1.823 0,-0.21 -0.022,-0.376 -0.059,-0.512 0.02,0.004 0.039,0.018 0.059,0.018 0.552,0 1,-1.343 1,-3 C 26,19.354 25.764,18.326 25.424,17.846 Z M 19.667,25.87 C 17.781,24.582 17,24.959 17,24.959 c 0,0 -0.781,-0.377 -2.667,0.911 -1.013,0.692 -2.024,-0.192 -2.745,-1.057 0.748,-0.275 1.684,-0.622 2.675,-0.818 1.831,0.03 2.534,-0.225 2.701,-0.599 0.167,0.364 0.875,0.598 2.7,0.606 1.013,0.2 1.97,0.56 2.726,0.837 -0.719,0.856 -1.721,1.717 -2.723,1.031 z"
     id="path16"
     inkscape:connector-curvature="0"
     style="fill:#e6e7e8" />
  <path
     d="M 24.765,15.157 C 23.537,12.47 17.793,0 17,0 16.207,0 10.463,12.47 9.235,15.157 4.415,16.001 2,17.595 2,19 c 6,-2 11,-2.443 15,-2.443 4,0 9,0.443 15,2.443 0,-1.405 -2.415,-2.999 -7.235,-3.843 z"
     id="path18"
     inkscape:connector-curvature="0"
     style="fill:#4289c1" />
  <path
     d="M 4,36 2,36 2,11.862 1,8 5,8 4,11.862 Z"
     id="path20"
     inkscape:connector-curvature="0"
     style="fill:#d99e82" />
  <circle
     cx="3"
     cy="6"
     r="3"
     id="circle22"
     style="fill:#55acee" />
  <circle
     cx="2.5"
     cy="5.5"
     r="1.5"
     id="circle24"
     style="fill:#b0f0ff" />
  <path
     d="M 6,30.5 C 6,32.433 4.657,34 3,34 1.343,34 0,32.433 0,30.5 0,28.567 1.343,28 3,28 c 1.657,0 3,0.567 3,2.5 z"
     id="path26"
     inkscape:connector-curvature="0"
     style="fill:#af7e57" />
</svg>
