<?xml version="1.0" encoding="UTF-8" standalone="no"?>
<svg
   xmlns:dc="http://purl.org/dc/elements/1.1/"
   xmlns:cc="http://creativecommons.org/ns#"
   xmlns:rdf="http://www.w3.org/1999/02/22-rdf-syntax-ns#"
   xmlns:svg="http://www.w3.org/2000/svg"
   xmlns="http://www.w3.org/2000/svg"
   xmlns:sodipodi="http://sodipodi.sourceforge.net/DTD/sodipodi-0.dtd"
   xmlns:inkscape="http://www.inkscape.org/namespaces/inkscape"
   viewBox="0 0 26 32.553425"
   id="svg2"
   version="1.1"
   inkscape:version="0.91 r13725"
   sodipodi:docname="1f9df-200d-2640-fe0f.svg"
   width="26"
   height="32.553425">
  <metadata
     id="metadata36">
    <rdf:RDF>
      <cc:Work
         rdf:about="">
        <dc:format>image/svg+xml</dc:format>
        <dc:type
           rdf:resource="http://purl.org/dc/dcmitype/StillImage" />
      </cc:Work>
    </rdf:RDF>
  </metadata>
  <defs
     id="defs34" />
  <sodipodi:namedview
     pagecolor="#ffffff"
     bordercolor="#666666"
     borderopacity="1"
     objecttolerance="10"
     gridtolerance="10"
     guidetolerance="10"
     inkscape:pageopacity="0"
     inkscape:pageshadow="2"
     inkscape:window-width="640"
     inkscape:window-height="480"
     id="namedview32"
     showgrid="false"
     inkscape:zoom="6.5555556"
     inkscape:cx="13"
     inkscape:cy="18"
     inkscape:window-x="0"
     inkscape:window-y="0"
     inkscape:window-maximized="0"
     inkscape:current-layer="svg2" />
  <path
     d="m 24.08,27.622426 c 0,0 -0.77,0.477 -1.539,0 -0.77,-0.477 -0.311,-1.246 -0.311,-1.246 -0.867,-0.075 -0.958,-0.878 -0.643,-1.604 -0.506,-0.139 -1.036,-0.219 -1.587,-0.219 l -14,0 c -3.313,0 -6,2.687 -6,6 l 0,2 26,0 0,-2 c 0,-0.62 -0.094,-1.219 -0.269,-1.782 -1.684,0.642 -1.651,-1.149 -1.651,-1.149 z"
     id="path4"
     inkscape:connector-curvature="0"
     style="fill:#3b88c3" />
  <path
     d="m 20.929,29.894426 c -0.127,1.929 -0.83,2.659 -0.83,2.659 l 1.385,0 c 0,0 0.189,-2.975 -0.555,-2.659 z m -19.312,0.621 c 0.319,-0.251 0.872,-1.996 1.869,-2.411 0.997,-0.415 3.206,-0.957 3.173,0.09 -0.033,1.047 -1.34,2.485 -1.068,3.018 -0.98,0.476 -4.987,0.099 -3.974,-0.697 z"
     id="path6"
     inkscape:connector-curvature="0"
     style="fill:#662113" />
  <path
     d="m 2.238,30.355426 c 0.319,-0.251 0.651,-1.746 1.648,-2.16 0.997,-0.414 2.806,-1.047 2.772,0 -0.034,1.047 -1.23,1.685 -2.21,2.16 -0.979,0.475 -3.222,0.795 -2.21,0 z"
     id="path8"
     inkscape:connector-curvature="0"
     style="fill:#ccd6dd" />
  <path
     d="m 24.656,18.369426 c -0.469,-0.527 -0.771,-2.129 -0.764,-2.66 0.002,-0.118 -0.005,-0.202 -0.014,-0.271 0.008,-0.613 0.014,-1.254 0.014,-1.959 0,-8.8949997 -6.843,-10.9469997 -10.947,-10.9469997 -4.106,0 -10.949,2.053 -10.949,10.9469997 0,0.276 -0.002,0.62 -0.004,0.994 -0.007,0.05 -0.012,0.122 -0.011,0.236 0.013,1.156 -0.825,2.16 -0.919,3.125 -0.094,0.965 0.444,0.409 0.594,0.128 0.078,-0.147 0.204,-0.471 0.359,-0.647 0.089,3.296 0.476,7.111 2.035,7.111 2.111,0 4.79,-2.053 8.896,-2.053 4.104,0 6.196,1.259 8.249,1.259 0.749,0 1.309,-0.173 1.721,-0.819 0.141,0.204 0.284,0.378 0.398,0.457 0.312,0.219 0.688,0.219 0.58,-0.134 -0.107,-0.353 -0.424,-0.741 -0.331,-2.419 l 0,-0.011 c 0.096,-0.626 0.168,-1.39 0.22,-2.299 0.108,0.104 0.215,0.196 0.312,0.27 0.405,0.314 1.03,0.22 0.561,-0.308 z"
     id="path10"
     inkscape:connector-curvature="0"
     style="fill:#292f33" />
  <path
     d="m 9,24.553426 8,0 -4,5 -4,-5"
     id="path12"
     inkscape:connector-curvature="0"
     style="fill:#ccd6dd" />
  <path
     d="m 9.5,25.071426 c 1.466,1.065 2.792,0.98 3.5,0.98 0.708,0 2.194,0.085 3.488,-0.949 l 0.012,-4.14 -7,0 0,4.109 z"
     id="path14"
     inkscape:connector-curvature="0"
     style="fill:#ccd6dd" />
  <path
     d="m 9.483,22.641426 c 0.978,1.155 2.19,1.468 3.508,1.468 1.319,0 2.532,-0.312 3.51,-1.468 l 0,-2.937 -7.017,0 0,2.937 z"
     id="path16"
     inkscape:connector-curvature="0"
     style="fill:#99aab5" />
  <path
     d="m 4.758,13.138426 c 0,-5.8339997 3.676,-10.5629997 8.211,-10.5629997 4.533,0 8.209,4.729 8.209,10.5629997 0,5.833 -3.676,10.285 -8.209,10.285 -4.535,0 -8.211,-4.452 -8.211,-10.285"
     id="path18"
     inkscape:connector-curvature="0"
     style="fill:#ccd6dd" />
  <path
     d="m 12.941,18.953426 c 1.606,0 2.447,0.794 2.537,0.885 0.268,0.267 0.268,0.7 0,0.967 -0.266,0.265 -0.692,0.267 -0.961,0.007 -0.035,-0.032 -0.551,-0.491 -1.576,-0.491 -1.038,0 -1.555,0.473 -1.576,0.492 -0.273,0.256 -0.703,0.248 -0.963,-0.02 -0.26,-0.269 -0.26,-0.691 0.004,-0.955 0.09,-0.091 0.929,-0.885 2.535,-0.885"
     id="path20"
     inkscape:connector-curvature="0"
     style="fill:#66757f" />
  <path
     d="m 23.719,6.6474263 c 0.5,-0.031 0.5,-0.5 0,-0.5 -0.5,0 -2.049,-0.724 -2.917,-1.506 l -0.005,-0.003 c -1.879,-2.029 -4.306,-3.105 -6.392,-3.452 0.266,-0.25100004 0.49,-0.49900004 0.634,-0.68700004 0.195,-0.256 0.272,-0.674 -0.195,-0.421 -0.5,0.271 -1.763,0.92700004 -3.28,1.02600004 -0.131,0.009 -0.227,0.028 -0.307,0.053 C 10.265,0.76242626 8.83,0.55942626 8.367,0.62042626 c -0.303,0.04 -0.56,0.44000004 -0.128,0.51600004 0.306,0.053 0.596,0.26 0.93,0.703 -1.827,0.731 -3.662,2.01 -5.022,3.959 -0.032,0.023 -0.058,0.025 -0.09,0.058 -0.682,0.697 -2.119,2.603 -2.745,2.697 -0.459,0.069 -0.531,0.469 -0.031,0.438 0.268,-0.017 0.771,0.068 1.327,-0.033 -0.385,1.2459997 -0.612,2.6529997 -0.612,4.2469997 0,0.793 -0.02,1.257 0.008,3.257 l 0.72,0 c -0.021,-1 -0.044,-0.224 -0.044,-0.465 0,-3.422 2.053,0.494 2.053,-1.943 0,-1.931 0.86,-2.491 1.897,-3.317 0.012,0.154 0.028,0.305 0.028,0.473 0.002,0.491 0.466,0.5 0.528,0.094 0.062,-0.406 0.315,-1.269 1.041,-2.0519997 0.633,-0.626 1.295,-1.275 1.295,-1.275 0,0 0.347,0.209 0.905,0.493 l 0.003,0.002 c 1.069,0.541 1.046,2.0189997 1.292,2.3939997 0.246,0.375 0.446,-0.116 0.595,-0.594 0.086,-0.2759997 0.12,-0.6059997 0.073,-0.9349997 1.037,0.387 2.216,0.7069997 3.291,0.7069997 2.736,0 5.474,1.375 5.474,4.112 0,2.736 2.053,-1.584 2.053,1.837 0,0.244 -0.023,-0.531 -0.04,0.469 l 0.719,0 c 0.006,-2 0.006,-1.924 0.006,-3.202 0,-2.701 -0.637,-4.8809997 -1.631,-6.6159997 0.598,0.064 1.173,0.02 1.457,0.003 z"
     id="path22"
     inkscape:connector-curvature="0"
     style="fill:#292f33" />
  <path
     d="m 11.326,15.290426 -0.655,0.655 c -0.765,0.765 -2.016,0.765 -2.781,0 -0.765,-0.765 -0.765,-2.016 0,-2.781 l 0.655,-0.655 c 0.765,-0.765 2.016,-0.765 2.781,0 0.765,0.765 0.765,2.016 0,2.781 z m 3.984,0.654 -0.655,-0.655 c -0.765,-0.765 -0.765,-2.016 0,-2.781 0.765,-0.765 2.016,-0.765 2.781,0 l 0.655,0.655 c 0.765,0.765 0.765,2.016 0,2.781 -0.765,0.765 -2.016,0.765 -2.781,0 z"
     id="path24"
     inkscape:connector-curvature="0"
     style="fill:#99aab5" />
  <path
     d="m 10.877,14.081426 c 0,0.465 -0.381,0.846 -0.847,0.846 l -0.845,0 c -0.465,0 -0.846,-0.381 -0.846,-0.846 0,-0.466 0.381,-0.847 0.846,-0.847 l 0.845,0 c 0.467,0 0.847,0.381 0.847,0.847 m 6.765,-0.001 c 0,0.465 -0.381,0.846 -0.847,0.846 l -0.845,0 c -0.465,0 -0.846,-0.381 -0.846,-0.846 0,-0.465 0.381,-0.846 0.846,-0.846 l 0.845,0 c 0.466,0.001 0.847,0.381 0.847,0.846"
     id="path26"
     inkscape:connector-curvature="0"
     style="fill:#662113" />
  <path
     d="m 13.802,17.962426 c 0.252,0 0.458,-0.206 0.458,-0.458 l 0,-0.584 c 0,-0.252 -0.206,-0.458 -0.458,-0.458 -0.252,0 -0.458,0.206 -0.458,0.458 l 0,0.584 c 0,0.252 0.206,0.458 0.458,0.458 z m -1.621,0 c 0.252,0 0.458,-0.206 0.458,-0.458 l 0,-0.584 c 0,-0.252 -0.206,-0.458 -0.458,-0.458 -0.252,0 -0.458,0.206 -0.458,0.458 l 0,0.584 c 0,0.252 0.206,0.458 0.458,0.458 z"
     id="path28"
     inkscape:connector-curvature="0"
     style="fill:#99aab5" />
  <path
     d="m 6.444,14.398426 c 0,1.448 -0.734,2.622 -1.639,2.622 -0.905,0 -1.639,-1.174 -1.639,-2.622 0,-1.448 0.734,-2.623 1.639,-2.623 0.905,0 1.639,1.174 1.639,2.623 m 16.389,0 c 0,1.448 -0.733,2.622 -1.639,2.622 -0.905,0 -1.639,-1.174 -1.639,-2.622 0,-1.448 0.733,-2.623 1.639,-2.623 0.906,0 1.639,1.174 1.639,2.623"
     id="path30"
     inkscape:connector-curvature="0"
     style="fill:#ccd6dd" />
</svg>
