<?xml version="1.0" encoding="UTF-8" standalone="no"?>
<svg
   xmlns:dc="http://purl.org/dc/elements/1.1/"
   xmlns:cc="http://creativecommons.org/ns#"
   xmlns:rdf="http://www.w3.org/1999/02/22-rdf-syntax-ns#"
   xmlns:svg="http://www.w3.org/2000/svg"
   xmlns="http://www.w3.org/2000/svg"
   xmlns:sodipodi="http://sodipodi.sourceforge.net/DTD/sodipodi-0.dtd"
   xmlns:inkscape="http://www.inkscape.org/namespaces/inkscape"
   viewBox="0 0 34.618027 35.810413"
   id="svg2"
   version="1.1"
   inkscape:version="0.91 r13725"
   sodipodi:docname="1f9dc-1f3fc.svg"
   width="34.618027"
   height="35.810413">
  <metadata
     id="metadata36">
    <rdf:RDF>
      <cc:Work
         rdf:about="">
        <dc:format>image/svg+xml</dc:format>
        <dc:type
           rdf:resource="http://purl.org/dc/dcmitype/StillImage" />
      </cc:Work>
    </rdf:RDF>
  </metadata>
  <defs
     id="defs34" />
  <sodipodi:namedview
     pagecolor="#ffffff"
     bordercolor="#666666"
     borderopacity="1"
     objecttolerance="10"
     gridtolerance="10"
     guidetolerance="10"
     inkscape:pageopacity="0"
     inkscape:pageshadow="2"
     inkscape:window-width="640"
     inkscape:window-height="480"
     id="namedview32"
     showgrid="false"
     inkscape:zoom="6.5555556"
     inkscape:cx="16.699027"
     inkscape:cy="17.911412"
     inkscape:window-x="0"
     inkscape:window-y="0"
     inkscape:window-maximized="0"
     inkscape:current-layer="svg2" />
  <path
     d="m 19.415027,11.081 c -0.994,-1.383 -1.654,-5.509 -1.654,-5.509 -0.155,-2.715 -2.494,-5.572 -5.571,-5.572 -1.173,0 -2.2599995,0.365 -3.1589995,0.985 -0.182,-0.027 -0.365,-0.056 -0.555,-0.056 -2.051,0 -3.714,1.663 -3.714,3.714 0,0 -0.73,2.881 -1.521,3.797 0.377,-0.223 0.706,-0.465 0.997,-0.724 -0.259,1.306 -0.788,3.586 -1.478,4.547 0.765,-0.55 1.41,-1.136 1.859,-1.795 -0.021,0.647 -0.399,1.267 -0.837,3.348 -0.458,2.177 0.364,2.197 1.385,2.646 1.795,0.789 12.8469995,1.296 13.2809995,-0.969 0.513,-2.675 0.068,-4.112 -0.425,-5.624 0.391,0.429 0.86,0.83 1.392,1.212 z"
     id="path4"
     inkscape:connector-curvature="0"
     style="fill:#2cb4cd" />
  <path
     d="m 14.824027,13.283 c 0,0 -2.26,-0.137 -3.764,-0.137 -1.5039995,0 -2.9589995,0.1 -3.3919995,0.137 l -1.963,3.619 0.526,0.283 c 0,0 1.209,4.354 1.209,5.202 0,0.848 -1.209,5.202 -1.209,5.202 l 9.6739995,0 c 0,0 -1.209,-4.075 -1.209,-5.202 0,-1.127 1.209,-5.202 1.209,-5.202 l 0.495,-0.266 -1.576,-3.636 z"
     id="path6"
     inkscape:connector-curvature="0"
     style="fill:#f3d2a2" />
  <path
     d="m 11.068027,17.185 c 0,0 -1.2089995,-1.301 -2.4179995,-1.301 -1.209,0 -2.418,1.301 -2.418,1.301 l 0.983,3.902 7.6809995,0 1.009,-3.902 c 0,0 -1.209,-1.301 -2.418,-1.301 -1.209,0 -2.419,1.301 -2.419,1.301 z"
     id="path8"
     inkscape:connector-curvature="0"
     style="fill:#dd415d" />
  <path
     d="m 27.443027,25.444 c 1.738,-2.783 -0.967,-7.196 -0.967,-7.196 -0.067,0.534 -0.348,1.714 -0.348,1.714 -0.163,0.998 -0.678,2.566 -2.219,4.469 -1.049,1.294 4.467,5.504 5.708,4.687 1.937,-1.276 1.587,-3.432 3.655,-5.726 0.367,-0.407 0.8,-0.817 1.346,-1.228 -3.575,-0.319 -7.175,3.28 -7.175,3.28 z m -3.123,3.078 c -4.478,3.618 -9.355,2.292 -10.385,1.38 L 6.2910275,23.924 c -5.51600001,0 -4.48,7.846 1.132,10.349 9.5759995,4.271 17.1029995,-1.423 18.3989995,-4.18 l -1.502,-1.571 z"
     id="path10"
     inkscape:connector-curvature="0"
     style="fill:#316116" />
  <path
     d="m 26.513027,26.777 c 1.408,-2.155 0.357,-5.346 -0.385,-6.815 -0.163,0.998 -0.843,2.383 -2.384,4.286 -1.049,1.294 -0.483,3.302 -0.021,4.199 l 0.001,0.001 c -3.596,2.842 -7.065,2.264 -8.825,1.464 1.17,-0.542 1.986,-1.7 1.986,-3.053 0,-1.87 -1.547,-3.385 -3.454,-3.385 l -7.1399995,0 c -5.51600001,0 -4.48,7.39 1.132,9.843 9.1649995,4.007 16.9999995,-0.67 18.7929995,-3.448 0.863,0.096 2.363,0.056 3.573,-0.741 1.937,-1.276 1.414,-3.441 3.482,-5.734 -3.483,0.249 -6.758,3.383 -6.758,3.383 z"
     id="path12"
     inkscape:connector-curvature="0"
     style="fill:#66a644" />
  <path
     d="m 14.911027,29.913 c -2.309,-0.46 -6.9939995,-2.625 -7.1929995,-2.717 -0.194,-0.09 -0.278,-0.319 -0.188,-0.512 0.09,-0.195 0.321,-0.28 0.513,-0.188 0.048,0.022 5.4879995,2.428 7.7069995,2.869 0,0 -0.158,0.133 -0.336,0.267 -0.179,0.132 -0.503,0.281 -0.503,0.281 z"
     id="path14"
     inkscape:connector-curvature="0"
     style="fill:#316116" />
  <path
     d="m 6.0980275,17.177 c -1.878,1.035 -3.24,2.455 -3.336,2.617 -0.239,0.404 -0.437,1.592 -0.276,2.415 0.145,0.741 0.177,2.238 0.66,2.915 0.198,0.277 0.107,0.759 -0.032,1.208 -0.419,1.353 0.306,3.199 -0.145,2.882 -0.918,-0.644 -1.074,-1.83 -1.047,-2.528 0.015,-0.393 -0.166,-0.884 -0.257,-1.138 -0.059,-0.16 -1.24500001,-3.203 -1.51800001,-4.54 -0.14799999671,-0.722 -0.333,-1.302 0.275,-2.155 0.90300001,-1.266 2.09400001,-2.996 3.31100001,-3.885 2.012,-1.471 3.936,-1.687 3.936,-1.687 0,0 -0.911,3.532 -1.571,3.896 z M 29.098027,10.551 c -0.084,0.009 -0.143,0.102 -0.203,0.238 -0.023,-0.164 -0.074,-0.276 -0.184,-0.264 -0.129,0.013 -0.201,0.22 -0.304,0.492 -0.027,-0.047 -0.062,-0.079 -0.117,-0.078 -0.261,0.009 -0.349,0.811 -0.909,1.334 -0.081,0.036 -0.154,0.078 -0.248,0.104 -0.059,0.016 -0.098,0.041 -0.146,0.061 0.005,-0.255 0.171,-0.405 0.271,-0.474 0.239,-0.166 0.089,-0.586 -0.314,-0.331 -0.289,0.183 -0.41,0.365 -0.501,0.55 -0.255,0.519 -0.354,1.058 -0.333,1.487 l -0.119,0.215 c -0.139,0.242 -1.626,1.17 -2.696,1.967 -1.066,0.793 -1.846,1.694 -2.415,1.132 -0.396,-0.391 -1.591,-1.706 -3.322,-2.833 -1.093,-0.712 -2.733,-0.866 -2.733,-0.866 -0.807,0.662 0.166,3.109 0.894,3.566 0.938,0.589 4.26,2.925 5.306,3.391 1.046,0.466 1.704,-0.161 2.196,-0.609 0.403,-0.366 3.434,-4.072 3.703,-4.326 0.365,-0.344 1.063,-0.797 1.457,-1.491 0.338,-0.596 0.543,-1.079 0.667,-1.855 0.071,-0.456 0.402,-1.447 0.05,-1.41 z M 9.4050275,9.286 l 0,3.714 c 0,1.026 0.8309995,1.857 1.8569995,1.857 1.026,0 1.857,-0.831 1.857,-1.857 l 0,-3.714 -3.7139995,0 z"
     id="path16"
     inkscape:connector-curvature="0"
     style="fill:#f3d2a2" />
  <path
     d="m 13.118027,9.286 -3.7139995,0.017 0,3.697 c 0,0 1.8569995,0.928 3.7139995,0 l 0,-3.714 z"
     id="path18"
     inkscape:connector-curvature="0"
     style="fill:#e2c196" />
  <path
     d="m 15.904027,2.833 -9.2849995,0 0,5.546 c 0,2.553 2.078,4.621 4.6419995,4.621 2.564,0 4.643,-2.068 4.643,-4.621 l 0,-5.546 z"
     id="path20"
     inkscape:connector-curvature="0"
     style="fill:#f3d2a2" />
  <path
     d="m 13.118027,11.143 -3.7139995,0 c 0,0 0,0.928 1.8569995,0.928 1.857,0 1.857,-0.928 1.857,-0.928 z"
     id="path22"
     inkscape:connector-curvature="0"
     style="fill:#df1f32" />
  <circle
     cx="8.9400272"
     cy="7.8930001"
     r="0.46399999"
     id="circle24"
     style="fill:#662113" />
  <circle
     cx="13.583027"
     cy="7.8930001"
     r="0.46399999"
     id="circle26"
     style="fill:#662113" />
  <path
     d="m 10.333027,9.286 1.857,0 c 0,0 0,0.928 -0.929,0.928 -0.928,0 -0.928,-0.928 -0.928,-0.928 z"
     id="path28"
     inkscape:connector-curvature="0"
     style="fill:#c1694f" />
  <path
     d="m 16.832027,6.5 -0.613,-4.114 -10.5279995,0 0,4.114 c 3.674,0 3.713,-3.628 3.714,-3.707 0.001,0.08 0.08,3.707 7.4269995,3.707 z"
     id="path30"
     inkscape:connector-curvature="0"
     style="fill:#2cb4cd" />
</svg>
