<?xml version="1.0" encoding="UTF-8" standalone="no"?>
<svg
   xmlns:dc="http://purl.org/dc/elements/1.1/"
   xmlns:cc="http://creativecommons.org/ns#"
   xmlns:rdf="http://www.w3.org/1999/02/22-rdf-syntax-ns#"
   xmlns:svg="http://www.w3.org/2000/svg"
   xmlns="http://www.w3.org/2000/svg"
   xmlns:sodipodi="http://sodipodi.sourceforge.net/DTD/sodipodi-0.dtd"
   xmlns:inkscape="http://www.inkscape.org/namespaces/inkscape"
   viewBox="0 0 28 32"
   id="svg2"
   version="1.1"
   inkscape:version="0.91 r13725"
   sodipodi:docname="1f9dd-1f3fe-200d-2642-fe0f.svg"
   width="28"
   height="32">
  <metadata
     id="metadata32">
    <rdf:RDF>
      <cc:Work
         rdf:about="">
        <dc:format>image/svg+xml</dc:format>
        <dc:type
           rdf:resource="http://purl.org/dc/dcmitype/StillImage" />
      </cc:Work>
    </rdf:RDF>
  </metadata>
  <defs
     id="defs30" />
  <sodipodi:namedview
     pagecolor="#ffffff"
     bordercolor="#666666"
     borderopacity="1"
     objecttolerance="10"
     gridtolerance="10"
     guidetolerance="10"
     inkscape:pageopacity="0"
     inkscape:pageshadow="2"
     inkscape:window-width="640"
     inkscape:window-height="480"
     id="namedview28"
     showgrid="false"
     inkscape:zoom="6.5555556"
     inkscape:cx="14"
     inkscape:cy="18"
     inkscape:window-x="0"
     inkscape:window-y="0"
     inkscape:window-maximized="0"
     inkscape:current-layer="svg2" />
  <path
     d="M 4,10 C 4,10 3,24 3,29 L 14,29 14,9 4,10 Z m 20,0 c 0,0 1,14 1,19 l -11,0 0,-20 10,1 z"
     id="path4"
     inkscape:connector-curvature="0"
     style="fill:#60352a" />
  <path
     d="M 14,8 14,0 C 9,0 4,3 4,9 4,15 6.553,9.894 7,9 9,5 12,8 14,8 Z m 0,0 0,-8 c 5,0 10,3 10,9 0,6 -2.553,0.894 -3,0 C 19,5 16,8 14,8 Z"
     id="path6"
     inkscape:connector-curvature="0"
     style="fill:#60352a" />
  <path
     d="m 28,32 0,-2 c 0,-3.313 -2.687,-6 -6,-6 L 6,24 c -3.313,0 -6,2.687 -6,6 l 0,2 28,0 z"
     id="path8"
     inkscape:connector-curvature="0"
     style="fill:#3b88c3" />
  <path
     d="m 9.64,24.101 c 1.744,1.267 2.848,1.962 4.36,1.962 1.511,0 2.616,-0.696 4.36,-1.962 l 0,-3.811 -8.72,0 0,3.811 z"
     id="path10"
     inkscape:connector-curvature="0"
     style="fill:#af7e57" />
  <path
     d="m 9.632,21.973 c 1.216,1.374 2.724,1.746 4.364,1.746 1.639,0 3.147,-0.372 4.364,-1.746 l 0,-3.491 -8.728,0 0,3.491 z"
     id="path12"
     inkscape:connector-curvature="0"
     style="fill:#9b6a49" />
  <path
     d="M 5.478,12.96 C 5.478,7.371 9.294,2.839 14,2.839 c 4.706,0 8.522,4.531 8.522,10.121 0,5.589 -3.816,10.12 -8.522,10.12 -4.706,0 -8.522,-4.531 -8.522,-10.12 z"
     id="path14"
     inkscape:connector-curvature="0"
     style="fill:#af7e57" />
  <path
     d="m 14,19.802 c -2.754,0 -3.6,-0.706 -3.741,-0.848 -0.256,-0.256 -0.256,-0.671 0,-0.927 0.248,-0.248 0.645,-0.255 0.902,-0.024 0.052,0.038 0.721,0.487 2.839,0.487 2.2,0 2.836,-0.485 2.842,-0.49 0.255,-0.255 0.656,-0.243 0.913,0.013 0.256,0.256 0.242,0.684 -0.014,0.94 C 17.6,19.096 16.754,19.802 14,19.802 Z"
     id="path16"
     inkscape:connector-curvature="0"
     style="fill:#915a34" />
  <path
     d="M 10,13 C 9.45,13 9,12.55 9,12 l 0,-1 c 0,-0.55 0.45,-1 1,-1 0.55,0 1,0.45 1,1 l 0,1 c 0,0.55 -0.45,1 -1,1 z m 8,0 c -0.55,0 -1,-0.45 -1,-1 l 0,-1 c 0,-0.55 0.45,-1 1,-1 0.55,0 1,0.45 1,1 l 0,1 c 0,0.55 -0.45,1 -1,1 z"
     id="path18"
     inkscape:connector-curvature="0"
     style="fill:#662113" />
  <path
     d="m 14.75,15.75 -1.5,0 c -0.413,0 -0.75,-0.337 -0.75,-0.75 0,-0.413 0.337,-0.75 0.75,-0.75 l 1.5,0 c 0.413,0 0.75,0.337 0.75,0.75 0,0.413 -0.337,0.75 -0.75,0.75 z"
     id="path20"
     inkscape:connector-curvature="0"
     style="fill:#915a34" />
  <path
     d="m 4,10.28 1.868,1.849 c 0,0 1.192,3.401 0,3.997 C 3.204,17.457 1,10.612 1,9.28 c 0,-1 3,1 3,1 z m 19.397,0 -1.868,1.849 c 0,0 -1.192,3.401 0,3.997 C 24.194,17.457 27,10.612 27,9.28 c 0,-1 -3.603,1 -3.603,1 z"
     id="path22"
     inkscape:connector-curvature="0"
     style="fill:#af7e57" />
  <path
     d="M 14,0 C 9,0 5,3 5,9 c 0,6 1.553,0.894 2,0 2,-4 5,-3 7,-3 2,0 5,-1 7,3 0.447,0.894 2,6 2,0 0,-6 -4,-9 -9,-9 z"
     id="path24"
     inkscape:connector-curvature="0"
     style="fill:#60352a" />
  <path
     d="M 5,9 4,32 8,32 C 8,32 5.373,11.516 7,9 7.698,7.92 5,9 5,9 Z m 18.058,0 1,23 L 20,32 c 0,0 2.685,-20.484 1.058,-23 -0.698,-1.08 2,0 2,0 z"
     id="path26"
     inkscape:connector-curvature="0"
     style="fill:#60352a" />
</svg>
