<?xml version="1.0" encoding="UTF-8" standalone="no"?>
<svg
   xmlns:dc="http://purl.org/dc/elements/1.1/"
   xmlns:cc="http://creativecommons.org/ns#"
   xmlns:rdf="http://www.w3.org/1999/02/22-rdf-syntax-ns#"
   xmlns:svg="http://www.w3.org/2000/svg"
   xmlns="http://www.w3.org/2000/svg"
   xmlns:sodipodi="http://sodipodi.sourceforge.net/DTD/sodipodi-0.dtd"
   xmlns:inkscape="http://www.inkscape.org/namespaces/inkscape"
   viewBox="0 0 26.663 29"
   id="svg2"
   version="1.1"
   inkscape:version="0.91 r13725"
   sodipodi:docname="1f9d2-1f3fe.svg"
   width="26.663"
   height="29">
  <metadata
     id="metadata16">
    <rdf:RDF>
      <cc:Work
         rdf:about="">
        <dc:format>image/svg+xml</dc:format>
        <dc:type
           rdf:resource="http://purl.org/dc/dcmitype/StillImage" />
      </cc:Work>
    </rdf:RDF>
  </metadata>
  <defs
     id="defs14" />
  <sodipodi:namedview
     pagecolor="#ffffff"
     bordercolor="#666666"
     borderopacity="1"
     objecttolerance="10"
     gridtolerance="10"
     guidetolerance="10"
     inkscape:pageopacity="0"
     inkscape:pageshadow="2"
     inkscape:window-width="640"
     inkscape:window-height="480"
     id="namedview12"
     showgrid="false"
     inkscape:zoom="6.5555556"
     inkscape:cx="13.334"
     inkscape:cy="16"
     inkscape:window-x="0"
     inkscape:window-y="0"
     inkscape:window-maximized="0"
     inkscape:current-layer="svg2" />
  <path
     d="m 17.334,10 c -4,0 -9,-3 -9,-3 l -3,3 C 3.471,11.863 1.61,12.372 1.363,15.313 1.363,24 6.126,29 13.334,29 20.542,29 25.299,25 25.299,15.449 24.947,11.819 21.144,10 17.334,10 Z"
     id="path4"
     inkscape:connector-curvature="0"
     style="fill:#af7e57" />
  <path
     d="M 18.041,21.293 C 17.654,20.906 17.111,21.101 16.637,21.283 16.163,21.466 15.084,22 13.334,22 11.584,22 10.505,21.466 10.031,21.283 9.557,21.1 9.014,20.906 8.627,21.293 c -0.391,0.391 -0.391,1.023 0,1.414 0.132,0.133 1.936,1.293 4.707,1.293 2.771,0 4.575,-1.16 4.707,-1.293 0.391,-0.391 0.391,-1.023 0,-1.414 z M 14.334,20 l -2,0 c -0.552,0 -1,-0.447 -1,-1 0,-0.553 0.448,-1 1,-1 l 2,0 c 0.553,0 1,0.447 1,1 0,0.553 -0.447,1 -1,1 z"
     id="path6"
     inkscape:connector-curvature="0"
     style="fill:#915a34" />
  <path
     d="m 9.334,18 c -0.552,0 -1,-0.447 -1,-1 l 0,-1 c 0,-0.552 0.448,-1 1,-1 0.552,0 1,0.448 1,1 l 0,1 c 0,0.553 -0.448,1 -1,1 z m 8,0 c -0.553,0 -1,-0.447 -1,-1 l 0,-1 c 0,-0.552 0.447,-1 1,-1 0.553,0 1,0.448 1,1 l 0,1 c 0,0.553 -0.447,1 -1,1 z"
     id="path8"
     inkscape:connector-curvature="0"
     style="fill:#662113" />
  <path
     d="m 13.332,0 c 8.205,0 13.331,5.955 13.331,11 0,5.044 -1.026,8.245 -2.051,6.226 l -2.051,-4.035 c 0,0 -6.152,0 -8.203,-2.019 0,0 3.077,6.054 -3.077,0 0,0 1.026,4.037 -5.127,-1.008 0,0 -3.077,2.018 -4.102,7.062 C 1.766,18.627 0,16.044 0,11 0,5.955 4.102,0 13.332,0"
     id="path10"
     inkscape:connector-curvature="0"
     style="fill:#292f33" />
</svg>
