<?xml version="1.0" encoding="UTF-8" standalone="no"?>
<svg
   xmlns:dc="http://purl.org/dc/elements/1.1/"
   xmlns:cc="http://creativecommons.org/ns#"
   xmlns:rdf="http://www.w3.org/1999/02/22-rdf-syntax-ns#"
   xmlns:svg="http://www.w3.org/2000/svg"
   xmlns="http://www.w3.org/2000/svg"
   xmlns:sodipodi="http://sodipodi.sourceforge.net/DTD/sodipodi-0.dtd"
   xmlns:inkscape="http://www.inkscape.org/namespaces/inkscape"
   viewBox="0 0 33.0005 35.999748"
   id="svg2"
   version="1.1"
   inkscape:version="0.91 r13725"
   sodipodi:docname="1f9e8.svg"
   width="33.0005"
   height="35.999748">
  <metadata
     id="metadata28">
    <rdf:RDF>
      <cc:Work
         rdf:about="">
        <dc:format>image/svg+xml</dc:format>
        <dc:type
           rdf:resource="http://purl.org/dc/dcmitype/StillImage" />
      </cc:Work>
    </rdf:RDF>
  </metadata>
  <defs
     id="defs26" />
  <sodipodi:namedview
     pagecolor="#ffffff"
     bordercolor="#666666"
     borderopacity="1"
     objecttolerance="10"
     gridtolerance="10"
     guidetolerance="10"
     inkscape:pageopacity="0"
     inkscape:pageshadow="2"
     inkscape:window-width="640"
     inkscape:window-height="480"
     id="namedview24"
     showgrid="false"
     inkscape:zoom="6.5555556"
     inkscape:cx="18.0005"
     inkscape:cy="17.99975"
     inkscape:window-x="0"
     inkscape:window-y="0"
     inkscape:window-maximized="0"
     inkscape:current-layer="svg2" />
  <circle
     cx="29.0005"
     cy="4"
     r="4"
     id="circle4"
     style="fill:#ffe8b6" />
  <circle
     cx="29.0005"
     cy="4"
     r="3"
     id="circle6"
     style="fill:#ffd983" />
  <path
     d="m 32.5005,0.5 -4.207,2.793 1.414,1.414 z m -7,7 2.793,-4.207 1.414,1.414 z"
     id="path8"
     inkscape:connector-curvature="0"
     style="fill:#ffcc4d" />
  <path
     d="m 32.5005,7.5 -2.793,-4.207 -1.414,1.414 z"
     id="path10"
     inkscape:connector-curvature="0"
     style="fill:#ffcc4d" />
  <path
     d="m 25.5005,0.5 4.207,2.793 -1.414,1.414 z"
     id="path12"
     inkscape:connector-curvature="0"
     style="fill:#ffcc4d" />
  <path
     d="m 23.0005,13.5 c -0.143,0 -0.285,-0.061 -0.384,-0.18 -0.177,-0.212 -0.148,-0.528 0.063,-0.705 5.709,-4.757 5.82,-8.581 5.82,-8.619 0.003,-0.275 0.209,-0.534 0.503,-0.496 0.276,0.003 0.498,0.225 0.498,0.5 0,0.173 -0.07,4.293 -6.18,9.384 -0.093,0.078 -0.207,0.116 -0.32,0.116 z"
     id="path14"
     inkscape:connector-curvature="0"
     style="fill:#c1694f" />
  <path
     d="m 4.8265,35.417 -4.243,-4.243 c -0.778,-0.778 -0.778,-2.051 0,-2.828 L 19.6755,9.254 c 0.778,-0.778 2.051,-0.778 2.828,0 l 4.243,4.243 c 0.778,0.778 0.778,2.051 0,2.828 L 7.6545,35.417 c -0.777,0.777 -2.05,0.777 -2.828,0 z"
     id="path16"
     inkscape:connector-curvature="0"
     style="fill:#dd2e44" />
  <path
     d="m 18.2615,10.668 7.071,7.07 -2.121,2.122 -7.071,-7.071 z m -14.141,14.142 7.07,7.07 -2.12,2.122 -7.072,-7.07 z"
     id="path18"
     inkscape:connector-curvature="0"
     style="fill:#ffcc4d" />
  <path
     d="m 22.5045,9.254 1.414,1.414 -2.828,2.828 -1.415,-1.414 z m -19.092,19.092 1.414,1.414 -2.828,2.828 -1.414,-1.414 z m 14.142,-14.142 1.414,1.414 -12.02,12.02 -1.415,-1.414 z"
     id="path20"
     inkscape:connector-curvature="0"
     style="fill:#ea596e" />
  <path
     d="m 19.6755,12.082 1.415,1.414 -2.122,2.122 -1.414,-1.415 z m -14.141,14.142 1.414,1.415 -2.122,2.12 -1.414,-1.413 z"
     id="path22"
     inkscape:connector-curvature="0"
     style="fill:#ffd983" />
</svg>
