<?xml version="1.0" encoding="UTF-8" standalone="no"?>
<svg
   xmlns:dc="http://purl.org/dc/elements/1.1/"
   xmlns:cc="http://creativecommons.org/ns#"
   xmlns:rdf="http://www.w3.org/1999/02/22-rdf-syntax-ns#"
   xmlns:svg="http://www.w3.org/2000/svg"
   xmlns="http://www.w3.org/2000/svg"
   xmlns:sodipodi="http://sodipodi.sourceforge.net/DTD/sodipodi-0.dtd"
   xmlns:inkscape="http://www.inkscape.org/namespaces/inkscape"
   viewBox="0 0 35.233276 35.819263"
   id="svg2"
   version="1.1"
   inkscape:version="0.91 r13725"
   sodipodi:docname="1f9e9.svg"
   width="35.233276"
   height="35.819263">
  <metadata
     id="metadata10">
    <rdf:RDF>
      <cc:Work
         rdf:about="">
        <dc:format>image/svg+xml</dc:format>
        <dc:type
           rdf:resource="http://purl.org/dc/dcmitype/StillImage" />
      </cc:Work>
    </rdf:RDF>
  </metadata>
  <defs
     id="defs8" />
  <sodipodi:namedview
     pagecolor="#ffffff"
     bordercolor="#666666"
     borderopacity="1"
     objecttolerance="10"
     gridtolerance="10"
     guidetolerance="10"
     inkscape:pageopacity="0"
     inkscape:pageshadow="2"
     inkscape:window-width="640"
     inkscape:window-height="480"
     id="namedview6"
     showgrid="false"
     inkscape:zoom="6.5555556"
     inkscape:cx="17.616377"
     inkscape:cy="17.910265"
     inkscape:window-x="0"
     inkscape:window-y="0"
     inkscape:window-maximized="0"
     inkscape:current-layer="svg2" />
  <path
     d="m 34.597377,26.546 c -0.425,-0.479 -1.038,-0.732 -1.773,-0.732 -0.789,0 -1.313,0.347 -1.82,0.682 -0.562,0.371 -1.643,1.255 -2.743,1.255 -1.952,0 -3.562,-2.167 -3.562,-4.75 0,-2.583 1.031,-4.688 3,-4.688 1.209,0 2.157,1.121 2.773,1.448 0.473,0.252 0.919,0.489 1.477,0.489 1.232,0 2.217,-1.03 2.372,-2.507 0.201,-1.909 -0.371,-7.584 -0.451,-8.153 -0.105,-0.751 -0.792,-1.181 -1.576,-1.127 -1.2,0.082 -8.114,0.236 -8.337,0.236 -2.263,0 -2.592,-1.03 -2.075,-2.675 0.078,-0.247 0.257,-0.649 0.257,-1.5 0,-2.499 -2.025,-4.524 -4.524,-4.524 -2.499,0 -4.524,2.025 -4.524,4.524 0,0.852 0.18,1.254 0.257,1.5 0.518,1.645 0.188,2.675 -2.075,2.675 -0.223,0 -7.1369996,-0.153 -8.3369996,-0.236 -0.782,-0.054 -1.469,0.376 -1.575,1.129 -0.08,0.569 -0.65099996,6.243 -0.45099996,8.153 0.15499996,1.477 1.13999996,2.507 2.37199996,2.507 0.558,0 1.004,-0.237 1.477,-0.489 0.616,-0.327 1.564,-1.448 2.773,-1.448 1.969,0 2.9999996,2.104 2.9999996,4.688 0,2.584 -1.6099996,4.75 -3.5619996,4.75 -1.1,0 -2.181,-0.884 -2.743,-1.255 -0.507,-0.335 -1.031,-0.682 -1.82,-0.682 -0.735,0 -1.348,0.253 -1.77299996,0.732 -0.518,0.583 -0.725,1.453 -0.598,2.514 0.188,1.563 0.702,5.495 0.702,5.495 0.153,1.059 0.76499996,1.294 1.51799996,1.259 0.011,-0.001 11.7319996,-0.814 15.3599996,-0.814 3.628,0 15.349,0.813 15.361,0.814 0.753,0.035 1.365,-0.2 1.518,-1.259 0,0 0.514,-3.932 0.702,-5.495 0.126,-1.061 -0.081,-1.931 -0.6,-2.516 z"
     id="path4"
     inkscape:connector-curvature="0"
     style="fill:#50a5e6" />
</svg>
