<?xml version="1.0" encoding="UTF-8" standalone="no"?>
<svg
   xmlns:dc="http://purl.org/dc/elements/1.1/"
   xmlns:cc="http://creativecommons.org/ns#"
   xmlns:rdf="http://www.w3.org/1999/02/22-rdf-syntax-ns#"
   xmlns:svg="http://www.w3.org/2000/svg"
   xmlns="http://www.w3.org/2000/svg"
   xmlns:sodipodi="http://sodipodi.sourceforge.net/DTD/sodipodi-0.dtd"
   xmlns:inkscape="http://www.inkscape.org/namespaces/inkscape"
   viewBox="0 0 34.694736 28.064121"
   id="svg2"
   version="1.1"
   inkscape:version="0.91 r13725"
   sodipodi:docname="1f9e0.svg"
   width="34.694736"
   height="28.064121">
  <metadata
     id="metadata20">
    <rdf:RDF>
      <cc:Work
         rdf:about="">
        <dc:format>image/svg+xml</dc:format>
        <dc:type
           rdf:resource="http://purl.org/dc/dcmitype/StillImage" />
      </cc:Work>
    </rdf:RDF>
  </metadata>
  <defs
     id="defs18" />
  <sodipodi:namedview
     pagecolor="#ffffff"
     bordercolor="#666666"
     borderopacity="1"
     objecttolerance="10"
     gridtolerance="10"
     guidetolerance="10"
     inkscape:pageopacity="0"
     inkscape:pageshadow="2"
     inkscape:window-width="640"
     inkscape:window-height="480"
     id="namedview16"
     showgrid="false"
     inkscape:zoom="6.5555556"
     inkscape:cx="17.42481"
     inkscape:cy="13.971915"
     inkscape:window-x="0"
     inkscape:window-y="0"
     inkscape:window-maximized="0"
     inkscape:current-layer="svg2" />
  <path
     d="m 29.32081,22.759207 c 0.003,0.283 -0.07,0.653 -0.146,0.958 -0.531,2.145 -2.889,4.552 -6.208,4.333 -3.008,-0.198 -5.458,-1.642 -5.458,-3.667 0,-2.025 2.444,-3.667 5.458,-3.667 3.014,0 6.335,0.018 6.354,2.043 z"
     id="path4"
     inkscape:connector-curvature="0"
     style="fill:#ea596e" />
  <path
     d="m 22.96681,21.056207 c -1.619,0 -5.314,0.448 -6.162,0.448 -1.498,0 -2.713,0.94 -2.713,2.1 0,0.558 0.286,1.062 0.744,1.438 0,0 1.006,1.009 2.818,0.525 0.793,-0.212 2.083,-1.786 4.354,-2.036 1.131,-0.125 3.25,0.75 6.974,0.771 0.16,-0.344 0.193,-0.583 0.193,-0.583 0,-2.027 -3.194,-2.663 -6.208,-2.663 z"
     id="path6"
     inkscape:connector-curvature="0"
     style="fill:#dd2e44" />
  <path
     d="m 29.17481,23.717207 c 0,0 2.184,-0.443 3.542,-2.229 1.583,-2.083 1.375,-4.312 1.375,-4.312 1.604,-3 -0.5,-5.813 -0.5,-5.813 -0.209,-3.167 -2.167,-4.479 -2.167,-4.479 -1.271,-3.021 -4.083,-3.833 -4.083,-3.833 -2.208,-2.58299997 -6.125,-2.49999997 -6.125,-2.49999997 0,0 -3.67,-1.345 -8.708,0.167 -0.833,0.25 -3.6250003,0.83299997 -5.6670003,2.08299997 -6.43599997,3.94 -6.92299997,10.084 -6.83299997,11.083 0.499,5.583 4.41599997,6.583 6.91599997,7.166 0.583,1.583 2.729,4.5 6.5830003,3.417 4.75,-0.833 6.75,-2.25 7.917,-2.25 1.167,0 4.417,1.25 7.75,1.5 z"
     id="path8"
     inkscape:connector-curvature="0"
     style="fill:#f4abba" />
  <g
     id="g10"
     style="fill:#ea596e"
     transform="translate(-0.57519027,-3.907793)">
    <path
       d="m 17.737,18.648 c 2.328,-1.255 3.59,-1.138 4.704,-1.037 0.354,0.032 0.689,0.057 1.028,0.055 1.984,-0.045 3.591,-0.881 4.302,-1.69 0.182,-0.208 0.161,-0.523 -0.046,-0.706 -0.206,-0.182 -0.521,-0.163 -0.706,0.045 -0.548,0.624 -1.899,1.313 -3.573,1.351 -0.3,0.009 -0.601,-0.021 -0.913,-0.05 -1.195,-0.111 -2.679,-0.247 -5.271,1.152 -0.665,0.359 -1.577,0.492 -2.565,0.592 -2.197,-3.171 -0.875,-5.933 -0.497,-6.591 0.037,0.002 0.073,0.014 0.111,0.014 0.4,0 0.802,-0.098 1.166,-0.304 0.24,-0.136 0.325,-0.441 0.189,-0.681 -0.136,-0.24 -0.441,-0.325 -0.681,-0.189 -0.64,0.362 -1.482,0.153 -1.88,-0.467 -0.149,-0.233 -0.458,-0.301 -0.69,-0.151 -0.232,0.149 -0.3,0.458 -0.151,0.69 0.237,0.371 0.571,0.65 0.948,0.837 -0.521,1.058 -1.51,3.84 0.372,6.951 -1.324,0.13 -2.65,0.317 -3.688,0.986 -0.67,0.432 -1.355,1.064 -1.878,1.791 C 7.389,21.138 5.086,20.571 4.684,18.015 4.934,17.821 5.136,17.565 5.261,17.249 5.363,16.992 5.237,16.702 4.98,16.6 4.723,16.498 4.433,16.624 4.331,16.881 4.242,17.106 4.081,17.27 3.877,17.342 3.675,17.414 3.446,17.39 3.234,17.272 2.991,17.137 2.688,17.226 2.554,17.466 c -0.134,0.241 -0.047,0.546 0.194,0.68 0.284,0.158 0.588,0.238 0.89,0.238 0.037,0 0.072,-0.017 0.109,-0.019 0.476,2.413 2.383,3.473 3.732,3.794 -0.176,0.388 -0.295,0.788 -0.331,1.192 -0.024,0.274 0.179,0.518 0.454,0.542 l 0.045,0.002 c 0.256,0 0.475,-0.195 0.498,-0.456 0.108,-1.213 1.265,-2.48 2.293,-3.145 0.964,-0.621 2.375,-0.752 3.741,-0.879 1.325,-0.121 2.577,-0.237 3.558,-0.767 z m 12.866,-1.504 c -0.131,0.242 -0.041,0.546 0.2,0.677 0.076,0.042 0.159,0.062 0.24,0.062 0.176,0 0.347,-0.093 0.438,-0.259 0.019,-0.034 1.842,-3.449 -1.571,-5.744 -0.228,-0.152 -0.539,-0.093 -0.694,0.136 -0.154,0.229 -0.093,0.54 0.136,0.694 2.644,1.778 1.309,4.326 1.251,4.434 z M 9.876,9.07 c 0.156,0 0.309,-0.072 0.406,-0.208 1.45,-2.017 3.458,-1.327 3.543,-1.295 0.259,0.094 0.544,-0.038 0.64,-0.296 C 14.561,7.012 14.429,6.725 14.17,6.629 13.21,6.273 10.993,6.161 9.47,8.279 9.309,8.502 9.36,8.815 9.584,8.976 9.673,9.04 9.775,9.07 9.876,9.07 Z M 22.948,7.182 c 2.225,-0.181 3.237,1.432 3.283,1.508 0.094,0.158 0.26,0.246 0.431,0.246 0.086,0 0.174,-0.022 0.253,-0.069 0.238,-0.14 0.318,-0.446 0.179,-0.684 -0.054,-0.091 -1.34,-2.218 -4.224,-1.998 -0.275,0.021 -0.48,0.262 -0.459,0.538 0.022,0.275 0.271,0.484 0.537,0.459 z m 9.15,14.611 c -0.246,-0.014 -0.517,0.181 -0.539,0.457 -0.002,0.018 -0.161,1.719 -1.91,2.294 -0.262,0.086 -0.405,0.368 -0.318,0.631 0.068,0.21 0.265,0.344 0.475,0.344 0.052,0 0.104,-0.008 0.156,-0.025 2.372,-0.778 2.586,-3.064 2.594,-3.161 0.021,-0.276 -0.183,-0.518 -0.458,-0.54 z"
       id="path12"
       inkscape:connector-curvature="0" />
    <path
       d="m 7.347,16.934 c -0.072,0.267 0.086,0.541 0.353,0.613 0.043,0.012 0.087,0.017 0.13,0.017 0.221,0 0.422,-0.147 0.482,-0.37 0.19,-0.711 0.927,-1.167 1.652,-1.014 0.271,0.055 0.535,-0.116 0.592,-0.387 0.057,-0.27 -0.116,-0.535 -0.387,-0.592 C 9.743,15.111 9.315,15.153 8.921,15.287 7.755,13.293 7.982,11.327 7.985,11.306 8.021,11.033 7.829,10.782 7.556,10.744 7.284,10.711 7.032,10.898 6.994,11.171 c -0.013,0.097 -0.28,2.316 1.063,4.614 -0.334,0.301 -0.588,0.694 -0.71,1.149 z m 11.179,-2.47 c 0.407,-0.377 1.06,-0.37 1.455,0.015 0.098,0.094 0.223,0.141 0.349,0.141 0.131,0 0.261,-0.051 0.358,-0.152 0.192,-0.198 0.188,-0.515 -0.01,-0.707 -0.23,-0.223 -0.505,-0.372 -0.797,-0.465 0.296,-1.016 0.179,-1.467 -0.096,-2.312 -0.048,-0.147 -0.101,-0.311 -0.157,-0.498 l -0.03,-0.1 C 19.234,9.178 18.993,8.381 19.685,7.256 19.83,7.021 19.756,6.713 19.521,6.568 19.29,6.424 18.979,6.495 18.833,6.732 17.905,8.24 18.246,9.369 18.641,10.676 l 0.03,0.1 c 0.059,0.194 0.113,0.364 0.163,0.517 0.247,0.761 0.322,1.016 0.02,1.936 -0.369,0.069 -0.722,0.236 -1.01,0.504 -0.202,0.188 -0.213,0.505 -0.025,0.707 0.189,0.202 0.506,0.212 0.707,0.024 z m 6.365,-2.985 c 0.291,0 0.585,-0.061 0.859,-0.191 0.25,-0.118 0.357,-0.416 0.239,-0.666 -0.117,-0.25 -0.419,-0.354 -0.665,-0.239 -0.502,0.236 -1.121,0.031 -1.384,-0.457 -0.131,-0.244 -0.436,-0.333 -0.677,-0.205 -0.243,0.13 -0.335,0.434 -0.204,0.677 0.18,0.336 0.448,0.601 0.76,0.785 -0.537,1.305 -0.232,2.691 0.017,3.426 0.07,0.209 0.265,0.34 0.474,0.34 0.053,0 0.106,-0.008 0.16,-0.026 0.262,-0.088 0.402,-0.372 0.313,-0.633 -0.168,-0.498 -0.494,-1.756 -0.002,-2.826 0.038,0.002 0.073,0.015 0.11,0.015 z m 4.797,9.429 c -0.019,-0.275 -0.257,-0.492 -0.531,-0.467 -1.014,0.072 -1.878,-0.697 -1.947,-1.703 -0.02,-0.275 -0.265,-0.48 -0.533,-0.465 -0.275,0.019 -0.483,0.258 -0.465,0.533 0.041,0.59 0.266,1.122 0.608,1.555 -0.804,0.946 -1.857,1.215 -2.444,1.284 -0.519,0.062 -0.973,0.009 -1.498,-0.053 -0.481,-0.055 -1.025,-0.118 -1.698,-0.098 l -0.005,0.001 c -0.02,-0.286 -0.088,-0.703 -0.305,-1.05 -0.146,-0.233 -0.455,-0.304 -0.689,-0.158 -0.233,0.146 -0.305,0.455 -0.158,0.689 0.134,0.215 0.159,0.558 0.159,0.725 -0.504,0.181 -0.94,0.447 -1.334,0.704 -0.704,0.458 -1.259,0.82 -2.094,0.632 -0.756,-0.173 -1.513,-0.208 -2.155,-0.118 -0.1,-0.251 -0.258,-0.551 -0.502,-0.782 -0.201,-0.19 -0.517,-0.182 -0.707,0.02 -0.189,0.2 -0.181,0.517 0.02,0.707 0.086,0.081 0.154,0.199 0.209,0.317 -1.103,0.454 -1.656,1.213 -1.682,1.25 -0.16,0.224 -0.107,0.533 0.115,0.694 0.088,0.063 0.19,0.094 0.292,0.094 0.155,0 0.308,-0.071 0.406,-0.205 0.005,-0.008 0.554,-0.743 1.637,-1.04 0.56,-0.154 1.363,-0.141 2.146,0.037 0.219,0.05 0.422,0.067 0.619,0.07 0.093,0.218 0.129,0.477 0.134,0.573 0.016,0.266 0.236,0.472 0.499,0.472 l 0.027,-0.001 c 0.275,-0.015 0.486,-0.248 0.473,-0.523 -0.003,-0.05 -0.023,-0.346 -0.13,-0.686 0.461,-0.167 0.862,-0.428 1.239,-0.673 0.572,-0.373 1.113,-0.726 1.82,-0.749 0.592,-0.021 1.08,0.036 1.551,0.091 0.474,0.055 0.94,0.091 1.454,0.061 0.091,0.253 0.084,0.591 0.07,0.704 -0.033,0.273 0.16,0.523 0.434,0.559 0.021,0.003 0.042,0.004 0.063,0.004 0.247,0 0.462,-0.183 0.495,-0.435 0.008,-0.062 0.059,-0.512 -0.059,-0.981 0.718,-0.193 1.608,-0.612 2.345,-1.471 0.431,0.264 0.934,0.419 1.469,0.419 0.062,0 0.125,-0.002 0.187,-0.006 0.275,-0.018 0.483,-0.255 0.465,-0.531 z"
       id="path14"
       inkscape:connector-curvature="0" />
  </g>
</svg>
