<?xml version="1.0" encoding="UTF-8" standalone="no"?>
<svg
   xmlns:dc="http://purl.org/dc/elements/1.1/"
   xmlns:cc="http://creativecommons.org/ns#"
   xmlns:rdf="http://www.w3.org/1999/02/22-rdf-syntax-ns#"
   xmlns:svg="http://www.w3.org/2000/svg"
   xmlns="http://www.w3.org/2000/svg"
   xmlns:sodipodi="http://sodipodi.sourceforge.net/DTD/sodipodi-0.dtd"
   xmlns:inkscape="http://www.inkscape.org/namespaces/inkscape"
   viewBox="0 0 35.726624 35.727501"
   id="svg2"
   version="1.1"
   inkscape:version="0.91 r13725"
   sodipodi:docname="1f9e7.svg"
   width="35.726624"
   height="35.727501">
  <metadata
     id="metadata22">
    <rdf:RDF>
      <cc:Work
         rdf:about="">
        <dc:format>image/svg+xml</dc:format>
        <dc:type
           rdf:resource="http://purl.org/dc/dcmitype/StillImage" />
      </cc:Work>
    </rdf:RDF>
  </metadata>
  <defs
     id="defs20" />
  <sodipodi:namedview
     pagecolor="#ffffff"
     bordercolor="#666666"
     borderopacity="1"
     objecttolerance="10"
     gridtolerance="10"
     guidetolerance="10"
     inkscape:pageopacity="0"
     inkscape:pageshadow="2"
     inkscape:window-width="640"
     inkscape:window-height="480"
     id="namedview18"
     showgrid="false"
     inkscape:zoom="6.5555556"
     inkscape:cx="17.87525"
     inkscape:cy="17.84425"
     inkscape:window-x="0"
     inkscape:window-y="0"
     inkscape:window-maximized="0"
     inkscape:current-layer="svg2" />
  <path
     d="m 21.37825,0.29025 -21.088,21.088 c -0.387,0.387 -0.387,1.019 0,1.406 l 12.653,12.653 c 0.387,0.387 1.019,0.387 1.406,0 l 21.088,-21.088 -14.059,-14.059 z"
     id="path4"
     inkscape:connector-curvature="0"
     style="fill:#fa3c32" />
  <path
     d="m 35.43625,12.94325 -12.652,-12.653 c -0.387,-0.387 -1.019,-0.387 -1.406,0 l -1.089,1.089 c -0.349,2.648 1.709,6.88 4.443,9.614 2.783,2.783 6.905,4.905 9.572,4.488 l 1.133,-1.133 c 0.386,-0.386 0.386,-1.018 -10e-4,-1.405 z"
     id="path6"
     inkscape:connector-curvature="0"
     style="fill:#dc282c" />
  <path
     d="m 24.73225,10.99425 c -2.734,-2.734 -4.793,-6.966 -4.443,-9.614 l -1.301,1.301 c 0.158,2.739 2.308,6.666 4.85,9.207 2.578,2.578 6.371,4.797 9.139,4.921 l 1.327,-1.327 c -2.667,0.417 -6.789,-1.705 -9.572,-4.488 z"
     id="path8"
     inkscape:connector-curvature="0"
     style="fill:#b3282c" />
  <g
     id="g10"
     style="fill:#ffe933"
     transform="translate(-0.12475,-0.11675)">
    <path
       d="m 19.104,16.866 c -0.899,-0.899 -2.206,-1.41 -2.982,-0.665 -0.03,0.15 0.084,0.971 1.38,2.267 1.296,1.296 2.117,1.41 2.267,1.38 0.744,-0.777 0.233,-2.084 -0.665,-2.982 z M 19.093,15.323 C 19,15.23 18.967,15.087 19.02,14.956 l 0.666,-1.632 c 0.071,-0.175 0.27,-0.261 0.444,-0.192 0.174,0.069 0.257,0.267 0.186,0.441 l -0.666,1.632 c -0.071,0.175 -0.27,0.261 -0.444,0.192 -0.043,-0.017 -0.081,-0.042 -0.113,-0.074 z m -2.025,-0.747 c -0.057,-0.057 -0.093,-0.134 -0.097,-0.222 l -0.085,-1.887 c -0.008,-0.187 0.137,-0.348 0.325,-0.36 0.187,-0.011 0.346,0.131 0.355,0.319 l 0.085,1.887 c 0.008,0.187 -0.137,0.348 -0.325,0.36 -0.101,0.006 -0.193,-0.032 -0.258,-0.097 z m 3.577,2.299 c -0.031,-0.031 -0.057,-0.069 -0.074,-0.113 -0.069,-0.174 0.017,-0.372 0.192,-0.444 l 1.632,-0.666 c 0.175,-0.071 0.372,0.011 0.441,0.186 0.069,0.174 -0.017,0.372 -0.192,0.444 l -1.632,0.666 c -0.13,0.053 -0.274,0.02 -0.367,-0.073 z m 0.748,2.026 c -0.065,-0.065 -0.103,-0.157 -0.097,-0.258 0.011,-0.188 0.172,-0.333 0.36,-0.325 l 1.887,0.085 c 0.188,0.008 0.331,0.168 0.319,0.355 -0.011,0.188 -0.172,0.333 -0.36,0.325 l -1.887,-0.085 c -0.087,-0.004 -0.165,-0.04 -0.222,-0.097 z"
       id="path12"
       inkscape:connector-curvature="0" />
    <path
       d="m 15.656,15.716 c -0.755,-0.976 -1.184,-1.686 -1.332,-1.945 -0.4,0.861 -0.392,1.839 0.044,2.925 0.545,1.356 1.583,2.481 2.003,2.901 0.421,0.421 1.546,1.458 2.902,2.004 1.086,0.437 2.064,0.445 2.925,0.044 -0.258,-0.148 -0.969,-0.576 -1.944,-1.332 l -0.028,0.031 c -0.451,0.451 -1.698,0.118 -3.209,-1.393 -1.511,-1.511 -1.844,-2.758 -1.393,-3.209 l 0.032,-0.026 z"
       id="path14"
       inkscape:connector-curvature="0" />
    <path
       d="m 15.887,20.082 c -1.775,-1.775 -3.09,-4.201 -2.292,-6.333 -0.296,0.121 -0.678,0.341 -1.095,0.758 -2.408,2.408 -0.113,5.976 1.436,7.526 1.55,1.55 5.117,3.845 7.526,1.436 0.417,-0.417 0.638,-0.8 0.758,-1.095 -2.132,0.798 -4.558,-0.517 -6.333,-2.292 z"
       id="path16"
       inkscape:connector-curvature="0" />
  </g>
</svg>
