<?xml version="1.0" encoding="UTF-8" standalone="no"?>
<svg
   xmlns:dc="http://purl.org/dc/elements/1.1/"
   xmlns:cc="http://creativecommons.org/ns#"
   xmlns:rdf="http://www.w3.org/1999/02/22-rdf-syntax-ns#"
   xmlns:svg="http://www.w3.org/2000/svg"
   xmlns="http://www.w3.org/2000/svg"
   xmlns:sodipodi="http://sodipodi.sourceforge.net/DTD/sodipodi-0.dtd"
   xmlns:inkscape="http://www.inkscape.org/namespaces/inkscape"
   viewBox="0 0 28.005751 35.999748"
   id="svg2"
   version="1.1"
   inkscape:version="0.91 r13725"
   sodipodi:docname="1f9e6.svg"
   width="28.005751"
   height="35.999748">
  <metadata
     id="metadata26">
    <rdf:RDF>
      <cc:Work
         rdf:about="">
        <dc:format>image/svg+xml</dc:format>
        <dc:type
           rdf:resource="http://purl.org/dc/dcmitype/StillImage" />
      </cc:Work>
    </rdf:RDF>
  </metadata>
  <defs
     id="defs24" />
  <sodipodi:namedview
     pagecolor="#ffffff"
     bordercolor="#666666"
     borderopacity="1"
     objecttolerance="10"
     gridtolerance="10"
     guidetolerance="10"
     inkscape:pageopacity="0"
     inkscape:pageshadow="2"
     inkscape:window-width="640"
     inkscape:window-height="480"
     id="namedview22"
     showgrid="false"
     inkscape:zoom="6.5555556"
     inkscape:cx="14.00575"
     inkscape:cy="17.99975"
     inkscape:window-x="0"
     inkscape:window-y="0"
     inkscape:window-maximized="0"
     inkscape:current-layer="svg2" />
  <path
     d="m 23.00575,19.276 c -0.983,0 -1.893,0.294 -2.667,0.784 l 0,4.549 -2.3,0 c 0.175,2.603 2.319,4.667 4.966,4.667 2.761,0 5,-2.239 5,-5 l 0,-5 -4.999,0 z"
     id="path4"
     inkscape:connector-curvature="0"
     style="fill:#55acee" />
  <path
     d="m 19.00075,22.999 0.005,-16 9,0.003 -0.005,16 z"
     id="path6"
     inkscape:connector-curvature="0"
     style="fill:#1c6399" />
  <path
     d="m 20.20775,21.451 6.354,6.354 -6.878,6.878 -6.354,-6.354 z"
     id="path8"
     inkscape:connector-curvature="0"
     style="fill:#1c6399" />
  <path
     d="m 26.00575,4 -5,0 c -1.1,0 -2,0.9 -2,2 l 0,2 9,0 0,-2 c 0,-1.1 -0.9,-2 -2,-2 z m -15,11.276 c -0.983,0 -1.893,0.294 -2.667,0.784 l 0,4.549 -2.3,0 c 0.175,2.603 2.319,4.667 4.966,4.667 2.761,0 5,-2.239 5,-5 l 0,-5 -4.999,0 z"
     id="path10"
     inkscape:connector-curvature="0"
     style="fill:#55acee" />
  <path
     d="m 6.99975,18.999 0.006,-16 9,0.003 -0.006,16 z"
     id="path12"
     inkscape:connector-curvature="0"
     style="fill:#1c6399" />
  <path
     d="m 19.68175,34.682 c -1.757,1.757 -4.607,1.757 -6.364,0 -1.757,-1.757 -1.757,-4.607 0,-6.364 0,0 1.149,0.133 3.69,2.674 2.541,2.541 2.674,3.69 2.674,3.69 z M 14.00575,0 l -5,0 c -1.1,0 -2,0.9 -2,2 l 0,2 9,0 0,-2 c 0,-1.1 -0.9,-2 -2,-2 z"
     id="path14"
     inkscape:connector-curvature="0"
     style="fill:#55acee" />
  <path
     d="m 8.20775,17.451 6.354,6.354 -6.878,6.878 -6.354,-6.354 z"
     id="path16"
     inkscape:connector-curvature="0"
     style="fill:#1c6399" />
  <path
     d="m 7.68175,30.682 c -1.757,1.757 -4.607,1.757 -6.364,0 -1.757,-1.757 -1.757,-4.607 0,-6.364 0,0 1.149,0.133 3.69,2.674 2.541,2.541 2.674,3.69 2.674,3.69 z"
     id="path18"
     inkscape:connector-curvature="0"
     style="fill:#55acee" />
  <path
     d="m 18.99975,10.067 9,0 0,2 -9,0 z m 0,4 9,0 0,2 -9,0 z m -12,-8 9,0 0,2 -9,0 z m 0,4 9,0 0,2 -9,0 z"
     id="path20"
     inkscape:connector-curvature="0"
     style="fill:#ffcc4d" />
</svg>
