<?xml version="1.0" encoding="UTF-8" standalone="no"?>
<svg
   xmlns:dc="http://purl.org/dc/elements/1.1/"
   xmlns:cc="http://creativecommons.org/ns#"
   xmlns:rdf="http://www.w3.org/1999/02/22-rdf-syntax-ns#"
   xmlns:svg="http://www.w3.org/2000/svg"
   xmlns="http://www.w3.org/2000/svg"
   xmlns:sodipodi="http://sodipodi.sourceforge.net/DTD/sodipodi-0.dtd"
   xmlns:inkscape="http://www.inkscape.org/namespaces/inkscape"
   viewBox="0 0 34.990143 30.724476"
   id="svg2"
   version="1.1"
   inkscape:version="0.91 r13725"
   sodipodi:docname="1f9e2.svg"
   width="34.990143"
   height="30.724476">
  <metadata
     id="metadata18">
    <rdf:RDF>
      <cc:Work
         rdf:about="">
        <dc:format>image/svg+xml</dc:format>
        <dc:type
           rdf:resource="http://purl.org/dc/dcmitype/StillImage" />
      </cc:Work>
    </rdf:RDF>
  </metadata>
  <defs
     id="defs16" />
  <sodipodi:namedview
     pagecolor="#ffffff"
     bordercolor="#666666"
     borderopacity="1"
     objecttolerance="10"
     gridtolerance="10"
     guidetolerance="10"
     inkscape:pageopacity="0"
     inkscape:pageshadow="2"
     inkscape:window-width="640"
     inkscape:window-height="480"
     id="namedview14"
     showgrid="false"
     inkscape:zoom="6.5555556"
     inkscape:cx="17.385335"
     inkscape:cy="16.797898"
     inkscape:window-x="0"
     inkscape:window-y="0"
     inkscape:window-maximized="0"
     inkscape:current-layer="svg2" />
  <ellipse
     transform="matrix(0.04370657,-0.99904441,0.99904441,0.04370657,0,0)"
     cx="-0.042773604"
     cy="20.6569"
     rx="0.94400001"
     ry="1.5650001"
     id="ellipse4"
     style="fill:#2b7bb9" />
  <path
     d="m 29.216335,23.666577 c 0,0 3.523,1.385 5.185,0.088 0.125,-1.17 -3.311,-2.035 -3.311,-2.035 l -1.874,1.947 z m -22.3040001,-2.191 c 0,0 -5.256,7.826 -6.757,6.482 0,0 -0.425,-1.397 1.23,-4.218 1.656,-2.822 5.527,-2.264 5.527,-2.264 z"
     id="path6"
     inkscape:connector-curvature="0"
     style="fill:#292f33" />
  <path
     d="m 19.151335,0.74657665 c 0,0 -8.537,0.43000005 -13.7350001,16.34800035 7.4940001,0 16.7850001,0.555 16.7850001,0.555 0,0 7.799,3.982 8.889,4.469 1.089,0.487 3.311,1.637 3.311,1.637 0,0 1.089,-5.531 0.305,-9.69 -0.784,-4.1590003 -4.531,-13.14200035 -15.555,-13.31900035 z"
     id="path8"
     inkscape:connector-curvature="0"
     style="fill:#1c6399" />
  <path
     d="m 2.7393349,21.093577 c -1.833,3.042 -3.216,5.821 -2.584,6.864 0,0 -0.203,-0.761 0.775,-1.633 0.892,-0.795 2.805,-1.522 6.461,-1.522 5.5340001,0 13.0060001,4.498 16.1190001,5.562 2.375,0.812 2.875,0.188 4.188,-1.25 1.4,-1.534 3.716,-6.904 3.716,-6.904 0,0 -7.47,-4.107 -11.871,-5.726 -4.401,-1.619 -5.358,-1.427 -6.752,-1.401 -3.0560001,0.057 -5.3140001,0.671 -7.3750001,2.011 0,0 -1.494,2.036 -2.677,3.999 z"
     id="path10"
     inkscape:connector-curvature="0"
     style="fill:#1c6399" />
  <path
     d="m 29.973335,7.2655767 c -0.61,-3.443 -4.011,-5.076 -4.011,-5.076 -1.895,-0.883 -4.158,-1.44800005 -6.864,-1.49100005 0,0 -12.1920001,-0.105 -13.6810001,16.39500035 0,0 2.541,-1.115 7.9200001,-0.793 7.299,0.438 14.414,4.117 15.986,4.812 0.83,-2.779 1.367,-9.798 0.65,-13.8470003 z"
     id="path12"
     inkscape:connector-curvature="0"
     style="fill:#50a5e6" />
</svg>
