<?xml version="1.0" encoding="UTF-8" standalone="no"?>
<svg
   xmlns:dc="http://purl.org/dc/elements/1.1/"
   xmlns:cc="http://creativecommons.org/ns#"
   xmlns:rdf="http://www.w3.org/1999/02/22-rdf-syntax-ns#"
   xmlns:svg="http://www.w3.org/2000/svg"
   xmlns="http://www.w3.org/2000/svg"
   xmlns:sodipodi="http://sodipodi.sourceforge.net/DTD/sodipodi-0.dtd"
   xmlns:inkscape="http://www.inkscape.org/namespaces/inkscape"
   viewBox="0 0 23.545374 35.256584"
   id="svg2"
   version="1.1"
   inkscape:version="0.91 r13725"
   sodipodi:docname="1f9f8.svg"
   width="23.545374"
   height="35.256584">
  <metadata
     id="metadata52">
    <rdf:RDF>
      <cc:Work
         rdf:about="">
        <dc:format>image/svg+xml</dc:format>
        <dc:type
           rdf:resource="http://purl.org/dc/dcmitype/StillImage" />
      </cc:Work>
    </rdf:RDF>
  </metadata>
  <defs
     id="defs50" />
  <sodipodi:namedview
     pagecolor="#ffffff"
     bordercolor="#666666"
     borderopacity="1"
     objecttolerance="10"
     gridtolerance="10"
     guidetolerance="10"
     inkscape:pageopacity="0"
     inkscape:pageshadow="2"
     inkscape:window-width="640"
     inkscape:window-height="480"
     id="namedview48"
     showgrid="false"
     inkscape:zoom="6.5555556"
     inkscape:cx="11.772687"
     inkscape:cy="17.256583"
     inkscape:window-x="0"
     inkscape:window-y="0"
     inkscape:window-maximized="0"
     inkscape:current-layer="svg2" />
  <path
     d="m 18.772687,22 -0.253,0 c 0.16,-0.798 0.253,-1.633 0.253,-2.5 0,-5.247 -3.134,-9.5 -7,-9.5 -3.8659998,0 -6.9999998,4.253 -6.9999998,9.5 0,0.867 0.093,1.702 0.253,2.5 l -0.253,0 c -2,3 -1.502,8.056 0.122,9 6.8779998,4 2.878,-2 6.8779998,-2 4,0 0,6 6.878,2 1.624,-0.944 2.122,-6 0.122,-9 z"
     id="path4"
     inkscape:connector-curvature="0"
     style="fill:#c1694f" />
  <path
     d="m 17.439687,20.458 c -0.177,-1.544 0.317,-3.562 0.255,-5.25 -1.387,1.084 -3.975,1.792 -5.922,1.792 -1.9469998,0 -4.5099998,-0.708 -5.8969998,-1.792 -0.062,1.688 0.407,3.706 0.23,5.25 -0.458,4 2.353,7.184 5.6669998,7.184 3.314,0 6.125,-3.184 5.667,-7.184 z"
     id="path6"
     inkscape:connector-curvature="0"
     style="fill:#c1694f" />
  <path
     d="m 6.1456872,14 c 0,0 -5,1 -5.99999995,7 -1,6 3.41899995,6.581 4.99999995,5 2,-2 0,-4 0,-4 0,0 1,-5 1,-8 z m 11.2539998,0 c 0,0 5,1 6,7 1,6 -3.419,6.581 -5,5 -2,-2 0,-4 0,-4 0,0 -1,-5 -1,-8 z"
     id="path8"
     inkscape:connector-curvature="0"
     style="fill:#c1694f" />
  <path
     d="m 6.7726872,13 c -2,0 -1,1 -1,2 0,1 1,3 3,2 0,0 -1,2 -1,5 0,0 2,0 2.9999998,2 0,0 1,-7 1,-9 0,-2 -3.9999998,-2 -4.9999998,-2 z m 9.9999998,0 c 2,0 1,1 1,2 0,1 -1,3 -3,2 0,0 1,2 1,5 0,0 -2,0 -3,2 0,0 -1,-7 -1,-9 0,-2 4,-2 5,-2 z"
     id="path10"
     inkscape:connector-curvature="0"
     style="fill:#a0041e" />
  <circle
     cx="4.7726874"
     cy="4"
     r="4"
     id="circle12"
     style="fill:#c1694f" />
  <circle
     cx="4.7726874"
     cy="4"
     r="2"
     id="circle14"
     style="fill:#662113" />
  <circle
     cx="18.772688"
     cy="4"
     r="4"
     id="circle16"
     style="fill:#c1694f" />
  <circle
     cx="18.772688"
     cy="4"
     r="2"
     id="circle18"
     style="fill:#662113" />
  <ellipse
     cx="11.772687"
     cy="8.5"
     rx="8"
     ry="7.5"
     id="ellipse20"
     style="fill:#c1694f" />
  <circle
     cx="8.772687"
     cy="8"
     r="1"
     id="circle22"
     style="fill:#292f33" />
  <circle
     cx="14.772687"
     cy="8"
     r="1"
     id="circle24"
     style="fill:#292f33" />
  <path
     d="m 11.830687,9.563 c -6.8079998,0 -4.6119998,5.562 -0.147,5.562 4.464,0 6.955,-5.562 0.147,-5.562 z"
     id="path26"
     inkscape:connector-curvature="0"
     style="fill:#d99e82" />
  <path
     d="m 10.509687,11.065 0.526,0.911 c 0.328,0.567 1.147,0.567 1.474,0 l 0.526,-0.911 c 0.328,-0.567 -0.082,-1.277 -0.737,-1.277 l -1.052,0 c -0.655,0 -1.064,0.709 -0.737,1.277 z"
     id="path28"
     inkscape:connector-curvature="0"
     style="fill:#292f33" />
  <path
     d="m 5.0376872,27.002 c -0.166,0 -0.327,-0.082 -0.422,-0.231 -0.148,-0.233 -0.08,-0.542 0.153,-0.69 0.04,-0.025 1.027,-0.688 0.997,-2.022 -0.023,-0.991 -0.933,-1.641 -0.942,-1.646 -0.121,-0.085 -0.2,-0.221 -0.213,-0.368 -0.205,-2.36 0.65,-4.709 0.687,-4.809 0.096,-0.258 0.381,-0.391 0.642,-0.296 0.259,0.096 0.392,0.383 0.296,0.642 -0.008,0.021 -0.761,2.099 -0.644,4.165 0.375,0.322 1.146,1.124 1.174,2.289 0.044,1.91 -1.398,2.851 -1.459,2.89 -0.085,0.051 -0.178,0.076 -0.269,0.076 z m 13.4709998,0 c -0.092,0 -0.186,-0.025 -0.269,-0.078 -0.062,-0.039 -1.504,-0.979 -1.46,-2.89 0.027,-1.165 0.799,-1.967 1.174,-2.289 0.118,-2.072 -0.636,-4.143 -0.644,-4.164 -0.096,-0.259 0.036,-0.547 0.296,-0.643 0.257,-0.095 0.546,0.037 0.642,0.296 0.037,0.099 0.893,2.448 0.688,4.809 -0.013,0.149 -0.092,0.284 -0.215,0.369 -0.008,0.005 -0.918,0.654 -0.94,1.646 -0.031,1.353 0.986,2.016 0.997,2.022 0.232,0.148 0.302,0.457 0.153,0.69 -0.096,0.15 -0.257,0.232 -0.422,0.232 z m -0.071,-5.002 0.01,0 -0.01,0 z"
     id="path30"
     inkscape:connector-curvature="0"
     style="fill:#934035" />
  <ellipse
     transform="matrix(0.70709444,-0.70711912,0.70711912,0.70709444,0,0)"
     cx="-18.105833"
     cy="25.0268"
     rx="4.5"
     ry="5"
     id="ellipse32"
     style="fill:#c1694f" />
  <path
     d="m 7.1216872,33.227 c -1.054,1.054 -2.906,0.912 -4.137,-0.318 -1.23,-1.23 -1.373,-3.082 -0.318,-4.137 1.054,-1.054 2.906,-0.912 4.137,0.318 1.23,1.231 1.372,3.083 0.318,4.137 z"
     id="path34"
     inkscape:connector-curvature="0"
     style="fill:#d99e82" />
  <path
     d="m 6.6616872,32.768 c -0.781,0.781 -2.206,0.623 -3.182,-0.354 -0.976,-0.976 -1.135,-2.401 -0.354,-3.182 0.781,-0.781 2.206,-0.623 3.182,0.354 0.976,0.977 1.135,2.401 0.354,3.182 z"
     id="path36"
     inkscape:connector-curvature="0"
     style="fill:#d99e82" />
  <ellipse
     transform="matrix(0.70709444,-0.70711912,0.70711912,0.70709444,0,0)"
     cx="-8.3793364"
     cy="34.754639"
     rx="5"
     ry="4.5"
     id="ellipse38"
     style="fill:#c1694f" />
  <path
     d="m 16.423687,33.227 c 1.054,1.054 2.906,0.912 4.137,-0.318 1.23,-1.23 1.373,-3.082 0.318,-4.137 -1.054,-1.054 -2.906,-0.912 -4.137,0.318 -1.23,1.231 -1.372,3.083 -0.318,4.137 z"
     id="path40"
     inkscape:connector-curvature="0"
     style="fill:#d99e82" />
  <ellipse
     transform="matrix(0.70709444,-0.70711912,0.70711912,0.70709444,0,0)"
     cx="-8.7328949"
     cy="35.108185"
     rx="2.5"
     ry="2"
     id="ellipse42"
     style="fill:#d99e82" />
  <path
     d="m 11.859687,14.138 c -1.28,0 -2.2489998,-0.947 -2.2639998,-0.961 -0.098,-0.098 -0.098,-0.255 0,-0.353 0.098,-0.098 0.255,-0.098 0.353,-10e-4 0.075,0.074 1.8489998,1.797 3.6469998,0 0.098,-0.098 0.256,-0.098 0.354,0 0.098,0.098 0.098,0.256 0,0.354 -0.721,0.721 -1.445,0.961 -2.09,0.961 z"
     id="path44"
     inkscape:connector-curvature="0"
     style="fill:#292f33" />
  <path
     d="m 9.7226872,29.727 c -0.185,0 -0.362,-0.103 -0.449,-0.28 -2.274,-4.635 -6.795,-3.15 -6.986,-3.086 -0.262,0.091 -0.545,-0.049 -0.635,-0.311 -0.09,-0.261 0.048,-0.544 0.309,-0.635 0.055,-0.02 5.543,-1.845 8.2099998,3.592 0.122,0.247 0.02,0.547 -0.2289998,0.669 -0.071,0.034 -0.147,0.051 -0.22,0.051 z m 4.1009998,0 c -0.065,0 -0.132,-0.013 -0.195,-0.04 -0.255,-0.108 -0.373,-0.401 -0.265,-0.655 2.255,-5.301 8.141,-3.641 8.198,-3.623 0.265,0.077 0.416,0.354 0.339,0.619 -0.077,0.267 -0.362,0.414 -0.619,0.341 -0.207,-0.061 -5.096,-1.42 -6.998,3.054 -0.081,0.189 -0.266,0.304 -0.46,0.304 z"
     id="path46"
     inkscape:connector-curvature="0"
     style="fill:#934035" />
</svg>
