<?xml version="1.0" encoding="UTF-8" standalone="no"?>
<svg
   xmlns:dc="http://purl.org/dc/elements/1.1/"
   xmlns:cc="http://creativecommons.org/ns#"
   xmlns:rdf="http://www.w3.org/1999/02/22-rdf-syntax-ns#"
   xmlns:svg="http://www.w3.org/2000/svg"
   xmlns="http://www.w3.org/2000/svg"
   xmlns:sodipodi="http://sodipodi.sourceforge.net/DTD/sodipodi-0.dtd"
   xmlns:inkscape="http://www.inkscape.org/namespaces/inkscape"
   viewBox="0 0 36.00016 35.899803"
   id="svg2"
   version="1.1"
   inkscape:version="0.91 r13725"
   sodipodi:docname="1f9f6.svg"
   width="36.00016"
   height="35.899803">
  <metadata
     id="metadata22">
    <rdf:RDF>
      <cc:Work
         rdf:about="">
        <dc:format>image/svg+xml</dc:format>
        <dc:type
           rdf:resource="http://purl.org/dc/dcmitype/StillImage" />
      </cc:Work>
    </rdf:RDF>
  </metadata>
  <defs
     id="defs20" />
  <sodipodi:namedview
     pagecolor="#ffffff"
     bordercolor="#666666"
     borderopacity="1"
     objecttolerance="10"
     gridtolerance="10"
     guidetolerance="10"
     inkscape:pageopacity="0"
     inkscape:pageshadow="2"
     inkscape:window-width="640"
     inkscape:window-height="480"
     id="namedview18"
     showgrid="false"
     inkscape:zoom="6.5555556"
     inkscape:cx="18"
     inkscape:cy="18"
     inkscape:window-x="0"
     inkscape:window-y="0"
     inkscape:window-maximized="0"
     inkscape:current-layer="svg2" />
  <path
     d="m 15.477,20.938802 c -0.682,-0.464 -0.034,-0.839 0.429,-1.522 L 27.439,0.65580197 c 0.464,-0.682 1.401,-0.862 2.084,-0.398 0.682,0.464 0.862,1.40100003 0.398,2.08400003 l -13.187,17.637 c -0.464,0.683 -0.574,1.424 -1.257,0.96 z m 1.622,-0.041 c -0.554,-0.611 0.164,-0.824 0.775,-1.378 l 15.62,-15.524 c 0.611,-0.554 1.564,-0.508 2.119,0.103 0.554,0.611 0.508,1.564 -0.103,2.119 l -16.965,14.042 c -0.611,0.555 -0.892,1.249 -1.446,0.638 z"
     id="path4"
     inkscape:connector-curvature="0"
     style="fill:#662113" />
  <path
     d="m 16,31.899802 18,0 c 1.1,0 2,0.9 2,2 0,1.1 -0.9,2 -2,2 l -18,0 c -1.1,0 -2,-0.9 -2,-2 0,-1.1 0.9,-2 2,-2 z"
     id="path6"
     inkscape:connector-curvature="0"
     style="fill:#226699" />
  <circle
     cx="16"
     cy="19.899801"
     r="16"
     id="circle8"
     style="fill:#226699" />
  <path
     d="m 9.837,29.588802 c -2.814,0 -4.662,-0.339 -4.799,-0.365 -0.542,-0.103 -0.898,-0.625 -0.796,-1.167 0.102,-0.543 0.625,-0.9 1.167,-0.798 0.058,0.012 5.858,1.062 12.58,-0.7 6.713,-1.76 10.652,-5.476 10.691,-5.513 0.397,-0.382 1.031,-0.369 1.414,0.031 0.382,0.399 0.368,1.032 -0.031,1.414 -0.175,0.167 -4.357,4.111 -11.566,6.003 -3.272,0.857 -6.305,1.095 -8.66,1.095 z"
     id="path10"
     inkscape:connector-curvature="0"
     style="fill:#55acee" />
  <path
     d="m 8.135,26.108802 c -3.432,0 -5.944,-0.38 -6.127,-0.408 -0.546,-0.085 -0.919,-0.596 -0.834,-1.142 0.084,-0.545 0.593,-0.916 1.141,-0.835 0.076,0.012 7.693,1.158 14.444,-0.613 6.723,-1.762 12.347,-6.895 12.403,-6.946 0.407,-0.374 1.039,-0.348 1.413,0.058 0.374,0.406 0.349,1.039 -0.058,1.413 -0.243,0.225 -6.051,5.523 -13.251,7.411 -3.155,0.827 -6.428,1.062 -9.131,1.062 z"
     id="path12"
     inkscape:connector-curvature="0"
     style="fill:#55acee" />
  <path
     d="m 7.196,22.120802 c -3.104,0 -5.268,-0.348 -5.429,-0.374 -0.544,-0.09 -0.913,-0.604 -0.823,-1.148 0.089,-0.545 0.599,-0.923 1.149,-0.824 0.067,0.011 6.863,1.093 13.603,-0.675 6.713,-1.76 11.664,-6.443 11.712,-6.49 0.397,-0.381 1.032,-0.369 1.414,0.031 0.382,0.399 0.368,1.032 -0.031,1.414 -0.216,0.207 -5.379,5.091 -12.588,6.981 -3.241,0.847 -6.444,1.085 -9.007,1.085 z"
     id="path14"
     inkscape:connector-curvature="0"
     style="fill:#55acee" />
  <path
     d="m 7.443,18.465802 c -0.479,0 -0.903,-0.346 -0.985,-0.834 -1.182,-7.031 1.452,-10.386 1.564,-10.525 0.348,-0.429 0.978,-0.496 1.407,-0.149 0.427,0.346 0.495,0.971 0.154,1.4 -0.043,0.056 -2.167,2.906 -1.153,8.942 0.091,0.544 -0.276,1.06 -0.821,1.152 -0.055,0.01 -0.111,0.014 -0.166,0.014 z m 4.229,-0.242 c -0.501,0 -0.934,-0.377 -0.992,-0.887 -0.93,-8.204 1.53,-11.674 1.636,-11.818 0.327,-0.446 0.951,-0.543 1.397,-0.216 0.443,0.324 0.541,0.945 0.222,1.39 -0.04,0.057 -2.095,3.121 -1.268,10.417 0.062,0.549 -0.332,1.044 -0.881,1.106 -0.038,0.006 -0.077,0.008 -0.114,0.008 z m 4.388,-1.114 c -0.497,0 -0.928,-0.371 -0.991,-0.876 -0.841,-6.771 1.093,-10.446 1.176,-10.599 0.264,-0.485 0.87,-0.666 1.355,-0.404 0.484,0.262 0.666,0.867 0.406,1.352 -0.035,0.068 -1.704,3.358 -0.953,9.405 0.068,0.548 -0.321,1.048 -0.869,1.116 -0.041,0.004 -0.082,0.006 -0.124,0.006 z m 4.647,-2.194 c -0.486,0 -0.912,-0.354 -0.987,-0.849 -0.762,-4.989 0.236,-7.384 0.279,-7.483 0.217,-0.508 0.809,-0.742 1.313,-0.523 0.505,0.217 0.739,0.8 0.526,1.306 -0.021,0.054 -0.8,2.091 -0.143,6.398 0.084,0.546 -0.291,1.056 -0.837,1.14 -0.05,0.008 -0.101,0.011 -0.151,0.011 z m -7.585,19.484 c -0.125,0 -0.252,-0.023 -0.375,-0.073 -1.233,-0.5 -2.367,-1.622 -2.492,-1.748 -0.389,-0.392 -0.386,-1.023 0.005,-1.413 0.391,-0.389 1.024,-0.387 1.414,0.004 0.263,0.264 1.102,1.011 1.825,1.304 0.512,0.208 0.758,0.791 0.551,1.303 -0.158,0.388 -0.533,0.623 -0.928,0.623 z m 5.703,0.156 c -0.175,0 -0.353,-0.046 -0.514,-0.143 -1.365,-0.82 -3.07,-2.493 -3.142,-2.563 -0.394,-0.388 -0.398,-1.021 -0.011,-1.414 0.388,-0.395 1.021,-0.398 1.415,-0.012 0.016,0.016 1.608,1.577 2.768,2.274 0.474,0.285 0.627,0.899 0.343,1.372 -0.188,0.313 -0.519,0.486 -0.859,0.486 z m 4.33,-1.681 c -0.16,0 -0.322,-0.038 -0.474,-0.12 -1.143,-0.615 -2.365,-1.93 -2.501,-2.078 -0.374,-0.406 -0.347,-1.038 0.06,-1.412 0.407,-0.371 1.038,-0.346 1.413,0.06 0.307,0.334 1.26,1.284 1.978,1.671 0.486,0.262 0.668,0.868 0.405,1.354 -0.181,0.334 -0.524,0.525 -0.881,0.525 z m 3.445,-2.792 c -0.153,0 -0.309,-0.035 -0.454,-0.109 -0.604,-0.309 -1.288,-0.842 -1.364,-0.901 -0.434,-0.341 -0.509,-0.97 -0.168,-1.403 0.341,-0.433 0.97,-0.51 1.403,-0.169 0.165,0.129 0.674,0.506 1.039,0.692 0.492,0.251 0.687,0.854 0.436,1.346 -0.178,0.344 -0.528,0.544 -0.892,0.544 z m -23.393,-11.447 c -0.492,0 -0.921,-0.364 -0.989,-0.866 -0.357,-2.632 0.344,-5.129 0.902,-6.166 0.262,-0.486 0.869,-0.667 1.355,-0.406 0.486,0.262 0.667,0.869 0.406,1.355 -0.353,0.654 -0.983,2.724 -0.681,4.948 0.074,0.547 -0.309,1.051 -0.856,1.125 -0.047,0.007 -0.092,0.01 -0.137,0.01 z m 21.632,-5.557 c -0.471,0 -0.891,-0.334 -0.981,-0.813 -0.279,-1.47 -0.112,-3.148 0.197,-4.047 0.179,-0.522 0.746,-0.802 1.271,-0.621 0.522,0.18 0.8,0.749 0.62,1.271 -0.187,0.542 -0.348,1.839 -0.123,3.023 0.103,0.542 -0.253,1.066 -0.796,1.169 -0.064,0.013 -0.127,0.018 -0.188,0.018 z"
     id="path16"
     inkscape:connector-curvature="0"
     style="fill:#55acee" />
</svg>
