<?xml version="1.0" encoding="UTF-8" standalone="no"?>
<svg
   xmlns:dc="http://purl.org/dc/elements/1.1/"
   xmlns:cc="http://creativecommons.org/ns#"
   xmlns:rdf="http://www.w3.org/1999/02/22-rdf-syntax-ns#"
   xmlns:svg="http://www.w3.org/2000/svg"
   xmlns="http://www.w3.org/2000/svg"
   xmlns:sodipodi="http://sodipodi.sourceforge.net/DTD/sodipodi-0.dtd"
   xmlns:inkscape="http://www.inkscape.org/namespaces/inkscape"
   viewBox="0 0 23 36"
   id="svg2"
   version="1.1"
   inkscape:version="0.91 r13725"
   sodipodi:docname="1f9f3.svg"
   width="23"
   height="36">
  <metadata
     id="metadata28">
    <rdf:RDF>
      <cc:Work
         rdf:about="">
        <dc:format>image/svg+xml</dc:format>
        <dc:type
           rdf:resource="http://purl.org/dc/dcmitype/StillImage" />
      </cc:Work>
    </rdf:RDF>
  </metadata>
  <defs
     id="defs26" />
  <sodipodi:namedview
     pagecolor="#ffffff"
     bordercolor="#666666"
     borderopacity="1"
     objecttolerance="10"
     gridtolerance="10"
     guidetolerance="10"
     inkscape:pageopacity="0"
     inkscape:pageshadow="2"
     inkscape:window-width="640"
     inkscape:window-height="480"
     id="namedview24"
     showgrid="false"
     inkscape:zoom="6.5555556"
     inkscape:cx="12"
     inkscape:cy="18"
     inkscape:window-x="0"
     inkscape:window-y="0"
     inkscape:window-maximized="0"
     inkscape:current-layer="svg2" />
  <path
     d="M 16,2 8,2 C 7.45,2 7,1.55 7,1 7,0.45 7.45,0 8,0 l 8,0 c 0.55,0 1,0.45 1,1 0,0.55 -0.45,1 -1,1 z"
     id="path4"
     inkscape:connector-curvature="0"
     style="fill:#292f33" />
  <path
     d="M 7,1 9,1 9,3 7,3 Z m 8,0 2,0 0,2 -2,0 z"
     id="path6"
     inkscape:connector-curvature="0"
     style="fill:#292f33" />
  <path
     d="M 7,3 9,3 9,9 7,9 Z m 8,0 2,0 0,6 -2,0 z"
     id="path8"
     inkscape:connector-curvature="0"
     style="fill:#ccd6dd" />
  <path
     d="M 1,25 C 0.45,25 0,24.55 0,24 l 0,-6 c 0,-0.55 0.45,-1 1,-1 0.55,0 1,0.45 1,1 l 0,6 c 0,0.55 -0.45,1 -1,1 z m 3,9.2 -1,0 c -0.55,0 -1,-0.45 -1,-1 l 0,-1 c 0,-0.55 0.45,-1 1,-1 l 1,0 c 0.55,0 1,0.45 1,1 l 0,1 c 0,0.55 -0.45,1 -1,1 z m 17,0 -1,0 c -0.55,0 -1,-0.45 -1,-1 l 0,-1 c 0,-0.55 0.45,-1 1,-1 l 1,0 c 0.55,0 1,0.45 1,1 l 0,1 c 0,0.55 -0.45,1 -1,1 z"
     id="path10"
     inkscape:connector-curvature="0"
     style="fill:#292f33" />
  <path
     d="M 21,33 3,33 C 1.9,33 1,32.1 1,31 L 1,10 C 1,8.9 1.9,8 3,8 l 18,0 c 1.1,0 2,0.9 2,2 l 0,21 c 0,1.1 -0.9,2 -2,2 z"
     id="path12"
     inkscape:connector-curvature="0"
     style="fill:#4289c1" />
  <path
     d="M 20,18 4,18 C 3.45,18 3,17.55 3,17 l 0,-6 c 0,-0.55 0.45,-1 1,-1 l 16,0 c 0.55,0 1,0.45 1,1 l 0,6 c 0,0.55 -0.45,1 -1,1 z M 20,31 4,31 C 3.45,31 3,30.55 3,30 L 3,20 c 0,-0.55 0.45,-1 1,-1 l 16,0 c 0.55,0 1,0.45 1,1 l 0,10 c 0,0.55 -0.45,1 -1,1 z"
     id="path14"
     inkscape:connector-curvature="0"
     style="fill:#5dadec" />
  <circle
     cx="3"
     cy="35"
     r="1"
     id="circle16"
     style="fill:#292f33" />
  <circle
     cx="21"
     cy="35"
     r="1"
     id="circle18"
     style="fill:#292f33" />
  <path
     d="m 19.5,12 -15,0 C 4.225,12 4,11.775 4,11.5 4,11.225 4.225,11 4.5,11 l 15,0 c 0.275,0 0.5,0.225 0.5,0.5 0,0.275 -0.225,0.5 -0.5,0.5 z m 0,9 -15,0 C 4.225,21 4,20.775 4,20.5 4,20.225 4.225,20 4.5,20 l 15,0 c 0.275,0 0.5,0.225 0.5,0.5 0,0.275 -0.225,0.5 -0.5,0.5 z"
     id="path20"
     inkscape:connector-curvature="0"
     style="fill:#2a6797" />
  <path
     d="m 5.5,12 -1,0 C 4.225,12 4,11.775 4,11.5 4,11.225 4.225,11 4.5,11 l 1,0 C 5.775,11 6,11.225 6,11.5 6,11.775 5.775,12 5.5,12 Z m 0,9 -1,0 C 4.225,21 4,20.775 4,20.5 4,20.225 4.225,20 4.5,20 l 1,0 C 5.775,20 6,20.225 6,20.5 6,20.775 5.775,21 5.5,21 Z"
     id="path22"
     inkscape:connector-curvature="0"
     style="fill:#f5f8fa" />
</svg>
