<?xml version="1.0" encoding="UTF-8" standalone="no"?>
<svg
   xmlns:dc="http://purl.org/dc/elements/1.1/"
   xmlns:cc="http://creativecommons.org/ns#"
   xmlns:rdf="http://www.w3.org/1999/02/22-rdf-syntax-ns#"
   xmlns:svg="http://www.w3.org/2000/svg"
   xmlns="http://www.w3.org/2000/svg"
   xmlns:sodipodi="http://sodipodi.sourceforge.net/DTD/sodipodi-0.dtd"
   xmlns:inkscape="http://www.inkscape.org/namespaces/inkscape"
   viewBox="0 0 28 36"
   id="svg2"
   version="1.1"
   inkscape:version="0.91 r13725"
   sodipodi:docname="1f9fe.svg"
   width="28"
   height="36">
  <metadata
     id="metadata14">
    <rdf:RDF>
      <cc:Work
         rdf:about="">
        <dc:format>image/svg+xml</dc:format>
        <dc:type
           rdf:resource="http://purl.org/dc/dcmitype/StillImage" />
      </cc:Work>
    </rdf:RDF>
  </metadata>
  <defs
     id="defs12" />
  <sodipodi:namedview
     pagecolor="#ffffff"
     bordercolor="#666666"
     borderopacity="1"
     objecttolerance="10"
     gridtolerance="10"
     guidetolerance="10"
     inkscape:pageopacity="0"
     inkscape:pageshadow="2"
     inkscape:window-width="640"
     inkscape:window-height="480"
     id="namedview10"
     showgrid="false"
     inkscape:zoom="6.5555556"
     inkscape:cx="14"
     inkscape:cy="18"
     inkscape:window-x="0"
     inkscape:window-y="0"
     inkscape:window-maximized="0"
     inkscape:current-layer="svg2" />
  <path
     d="m 28,36 -2,-2 -2,2 -2,-2 -2,2 -2,-2 -2,2 -2,-2 -2,2 L 10,34 8,36 6,34 4,36 2,34 0,36 0,0 2,2 3.958,0 6,2 8.042,0 10,2 12.042,0 14,2 16.083,0 18,2 20.125,0 22,2 23.958,0 26,2 28,0 Z"
     id="path4"
     inkscape:connector-curvature="0"
     style="fill:#ccd6dd" />
  <path
     d="M 15,17 5,17 C 4.45,17 4,16.55 4,16 4,15.45 4.45,15 5,15 l 10,0 c 0.55,0 1,0.45 1,1 0,0.55 -0.45,1 -1,1 z m 8,0 -4,0 c -0.55,0 -1,-0.45 -1,-1 0,-0.55 0.45,-1 1,-1 l 4,0 c 0.55,0 1,0.45 1,1 0,0.55 -0.45,1 -1,1 z M 15,21 5,21 C 4.45,21 4,20.55 4,20 4,19.45 4.45,19 5,19 l 10,0 c 0.55,0 1,0.45 1,1 0,0.55 -0.45,1 -1,1 z m 8,0 -4,0 c -0.55,0 -1,-0.45 -1,-1 0,-0.55 0.45,-1 1,-1 l 4,0 c 0.55,0 1,0.45 1,1 0,0.55 -0.45,1 -1,1 z m 0,6 -18,0 C 4.45,27 4,26.55 4,26 4,25.45 4.45,25 5,25 l 18,0 c 0.55,0 1,0.45 1,1 0,0.55 -0.45,1 -1,1 z m 0,4 -4,0 c -0.55,0 -1,-0.45 -1,-1 0,-0.55 0.45,-1 1,-1 l 4,0 c 0.55,0 1,0.45 1,1 0,0.55 -0.45,1 -1,1 z"
     id="path6"
     inkscape:connector-curvature="0"
     style="fill:#99aab5" />
  <circle
     cx="14"
     cy="8"
     r="4"
     id="circle8"
     style="fill:#99aab5" />
</svg>
