<?xml version="1.0" encoding="UTF-8" standalone="no"?>
<svg
   xmlns:dc="http://purl.org/dc/elements/1.1/"
   xmlns:cc="http://creativecommons.org/ns#"
   xmlns:rdf="http://www.w3.org/1999/02/22-rdf-syntax-ns#"
   xmlns:svg="http://www.w3.org/2000/svg"
   xmlns="http://www.w3.org/2000/svg"
   xmlns:sodipodi="http://sodipodi.sourceforge.net/DTD/sodipodi-0.dtd"
   xmlns:inkscape="http://www.inkscape.org/namespaces/inkscape"
   viewBox="0 0 36 35.5"
   id="svg2"
   version="1.1"
   inkscape:version="0.91 r13725"
   sodipodi:docname="1f9f0.svg"
   width="36"
   height="35.5">
  <metadata
     id="metadata24">
    <rdf:RDF>
      <cc:Work
         rdf:about="">
        <dc:format>image/svg+xml</dc:format>
        <dc:type
           rdf:resource="http://purl.org/dc/dcmitype/StillImage" />
      </cc:Work>
    </rdf:RDF>
  </metadata>
  <defs
     id="defs22" />
  <sodipodi:namedview
     pagecolor="#ffffff"
     bordercolor="#666666"
     borderopacity="1"
     objecttolerance="10"
     gridtolerance="10"
     guidetolerance="10"
     inkscape:pageopacity="0"
     inkscape:pageshadow="2"
     inkscape:window-width="640"
     inkscape:window-height="480"
     id="namedview20"
     showgrid="false"
     inkscape:zoom="6.5555556"
     inkscape:cx="18"
     inkscape:cy="18"
     inkscape:window-x="0"
     inkscape:window-y="0"
     inkscape:window-maximized="0"
     inkscape:current-layer="svg2" />
  <path
     d="M 26,0 10,0 C 8.07,0 6.5,1.57 6.5,3.5 l 0,4 3,0 0,-4 C 9.5,3.229 9.729,3 10,3 l 16,0 c 0.271,0 0.5,0.229 0.5,0.5 l 0,4 3,0 0,-4 C 29.5,1.57 27.93,0 26,0 Z"
     id="path4"
     inkscape:connector-curvature="0"
     style="fill:#292f33" />
  <path
     d="m 36,31.265 c 0,0 0,4.235 -4.235,4.235 l -27.53,0 C 0,35.5 0,31.265 0,31.265 L 0,11.147 C 0,6.912 4.235,6.912 4.235,6.912 l 27.529,0 c 0,0 4.235,0 4.235,4.235 l 0,20.118 z"
     id="path6"
     inkscape:connector-curvature="0"
     style="fill:#dd2e44" />
  <path
     d="m 4,21.5 28,0 0,2 -28,0 z"
     id="path8"
     inkscape:connector-curvature="0"
     style="fill:#ccd6dd" />
  <path
     d="m 0,14.5 36,0 0,2 -36,0 z m 4,9 28,0 0,2 -28,0 z m 0,6 28,0 0,2 -28,0 z"
     id="path10"
     inkscape:connector-curvature="0"
     style="fill:#be1931" />
  <path
     d="m 4,27.5 28,0 0,2 -28,0 z"
     id="path12"
     inkscape:connector-curvature="0"
     style="fill:#ccd6dd" />
  <path
     d="m 10,18.5 -2,0 c -0.552,0 -1,-0.448 -1,-1 l 0,-4 c 0,-0.552 0.448,-1 1,-1 l 2,0 c 0.552,0 1,0.448 1,1 l 0,4 c 0,0.552 -0.448,1 -1,1 z m 18,0 -2,0 c -0.552,0 -1,-0.448 -1,-1 l 0,-4 c 0,-0.552 0.448,-1 1,-1 l 2,0 c 0.552,0 1,0.448 1,1 l 0,4 c 0,0.552 -0.448,1 -1,1 z"
     id="path14"
     inkscape:connector-curvature="0"
     style="fill:#aab8c2" />
  <path
     d="m 25,16.5 0,1 c 0,0.552 0.448,1 1,1 l 2,0 c 0.552,0 1,-0.448 1,-1 l 0,-1 -4,0 z m -18,0 0,1 c 0,0.552 0.448,1 1,1 l 2,0 c 0.552,0 1,-0.448 1,-1 l 0,-1 -4,0 z"
     id="path16"
     inkscape:connector-curvature="0"
     style="fill:#292f33" />
  <path
     d="m 26,14.5 2,0 0,3 -2,0 z m -18,0 2,0 0,3 -2,0 z"
     id="path18"
     inkscape:connector-curvature="0"
     style="fill:#292f33" />
</svg>
