<?xml version="1.0" encoding="UTF-8" standalone="no"?>
<svg
   xmlns:dc="http://purl.org/dc/elements/1.1/"
   xmlns:cc="http://creativecommons.org/ns#"
   xmlns:rdf="http://www.w3.org/1999/02/22-rdf-syntax-ns#"
   xmlns:svg="http://www.w3.org/2000/svg"
   xmlns="http://www.w3.org/2000/svg"
   xmlns:sodipodi="http://sodipodi.sourceforge.net/DTD/sodipodi-0.dtd"
   xmlns:inkscape="http://www.inkscape.org/namespaces/inkscape"
   viewBox="0 0 36 35.916"
   id="svg2"
   version="1.1"
   inkscape:version="0.91 r13725"
   sodipodi:docname="1f9ff.svg"
   width="36"
   height="35.916">
  <metadata
     id="metadata16">
    <rdf:RDF>
      <cc:Work
         rdf:about="">
        <dc:format>image/svg+xml</dc:format>
        <dc:type
           rdf:resource="http://purl.org/dc/dcmitype/StillImage" />
      </cc:Work>
    </rdf:RDF>
  </metadata>
  <defs
     id="defs14" />
  <sodipodi:namedview
     pagecolor="#ffffff"
     bordercolor="#666666"
     borderopacity="1"
     objecttolerance="10"
     gridtolerance="10"
     guidetolerance="10"
     inkscape:pageopacity="0"
     inkscape:pageshadow="2"
     inkscape:window-width="640"
     inkscape:window-height="480"
     id="namedview12"
     showgrid="false"
     inkscape:zoom="6.5555556"
     inkscape:cx="18"
     inkscape:cy="17.916"
     inkscape:window-x="0"
     inkscape:window-y="0"
     inkscape:window-maximized="0"
     inkscape:current-layer="svg2" />
  <path
     d="M 36,18.302 C 36,23.283 33.54,27.5 30.345,30.764 27.15,34.028 23.022,35.916 18.146,35.916 13.27,35.916 8.382,34.804 5.187,31.54 1.992,28.276 0,23.283 0,18.302 0,13.321 2.574,8.922 5.769,5.658 8.964,2.394 13.271,0 18.146,0 23.021,0 27.54,2.178 30.735,5.442 33.931,8.706 36,13.322 36,18.302 Z"
     id="path4"
     inkscape:connector-curvature="0"
     style="fill:#1213bd" />
  <path
     d="m 29.994,18 c 0,3.314 -1.092,6.559 -3.264,8.73 -2.172,2.171 -5.417,2.798 -8.73,2.798 -3.313,0 -6.089,-1.096 -8.261,-3.267 C 7.567,24.09 6.312,21.314 6.312,18 c 0,-3.314 0.9,-6.445 3.071,-8.617 2.171,-2.172 5.303,-3.775 8.617,-3.775 3.314,0 6.203,1.846 8.375,4.017 2.172,2.171 3.619,5.061 3.619,8.375 z"
     id="path6"
     inkscape:connector-curvature="0"
     style="fill:#ffffff" />
  <path
     d="m 25.871,18 c 0,4.418 -3.453,8.112 -7.871,8.112 -4.418,0 -7.739,-3.694 -7.739,-8.112 0,-4.418 3.321,-7.785 7.739,-7.785 4.418,0 7.871,3.367 7.871,7.785 z"
     id="path8"
     inkscape:connector-curvature="0"
     style="fill:#88c9f9" />
  <path
     d="m 23.075,17.825 c 0,2.665 -2.235,4.908 -4.9,4.908 -2.665,0 -4.732,-2.243 -4.732,-4.908 0,-2.665 2.067,-4.835 4.732,-4.835 2.665,0 4.9,2.17 4.9,4.835 z"
     id="path10"
     inkscape:connector-curvature="0"
     style="fill:#292f33" />
</svg>
