<?xml version="1.0" encoding="UTF-8" standalone="no"?>
<svg
   xmlns:dc="http://purl.org/dc/elements/1.1/"
   xmlns:cc="http://creativecommons.org/ns#"
   xmlns:rdf="http://www.w3.org/1999/02/22-rdf-syntax-ns#"
   xmlns:svg="http://www.w3.org/2000/svg"
   xmlns="http://www.w3.org/2000/svg"
   xmlns:sodipodi="http://sodipodi.sourceforge.net/DTD/sodipodi-0.dtd"
   xmlns:inkscape="http://www.inkscape.org/namespaces/inkscape"
   viewBox="0 0 36 36"
   id="svg2"
   version="1.1"
   inkscape:version="0.91 r13725"
   sodipodi:docname="1f9fb.svg"
   width="36"
   height="36">
  <metadata
     id="metadata26">
    <rdf:RDF>
      <cc:Work
         rdf:about="">
        <dc:format>image/svg+xml</dc:format>
        <dc:type
           rdf:resource="http://purl.org/dc/dcmitype/StillImage" />
      </cc:Work>
    </rdf:RDF>
  </metadata>
  <defs
     id="defs24" />
  <sodipodi:namedview
     pagecolor="#ffffff"
     bordercolor="#666666"
     borderopacity="1"
     objecttolerance="10"
     gridtolerance="10"
     guidetolerance="10"
     inkscape:pageopacity="0"
     inkscape:pageshadow="2"
     inkscape:window-width="640"
     inkscape:window-height="480"
     id="namedview22"
     showgrid="false"
     inkscape:zoom="6.5555556"
     inkscape:cx="18"
     inkscape:cy="18"
     inkscape:window-x="0"
     inkscape:window-y="0"
     inkscape:window-maximized="0"
     inkscape:current-layer="svg2" />
  <path
     d="M 7,0 24,0 24,24 7,24 Z"
     id="path4"
     inkscape:connector-curvature="0"
     style="fill:#e1e8ed" />
  <path
     d="m 7,12 17,0 0,12 -17,0 z"
     id="path6"
     inkscape:connector-curvature="0"
     style="fill:#99aab5" />
  <ellipse
     cx="7"
     cy="12"
     rx="7"
     ry="12"
     id="ellipse8"
     style="fill:#ccd6dd" />
  <ellipse
     cx="24"
     cy="12"
     rx="8"
     ry="12"
     id="ellipse10"
     style="fill:#e1e8ed" />
  <path
     d="m 32,12 0,12 c 0,9 4,12 4,12 l -18,0 c 0,0 -4,-3 -4,-12 l 0,-13 18,1 z"
     id="path12"
     inkscape:connector-curvature="0"
     style="fill:#e1e8ed" />
  <path
     d="M 32,12 C 32,7.076 30.021,2.85 27.193,1 L 11.322,1 C 13.549,3.284 15,7.316 15,12 l 0,14 c 0.429,5.683 2.683,8.3 3.383,9 L 35.05,35 C 33.867,33.496 32,30.151 32,24 l 0,-12 z"
     id="path14"
     inkscape:connector-curvature="0"
     style="fill:#f5f8fa" />
  <ellipse
     cx="6"
     cy="12"
     rx="3"
     ry="5"
     id="ellipse16"
     style="fill:#99aab5" />
  <path
     d="M 3.25,10.01 C 3.712,8.24 4.768,7 6,7 7.657,7 9,9.239 9,12 9,12.616 8.924,13.2 8.802,13.745 8.153,11.657 5.931,10.103 3.25,10.01 Z"
     id="path18"
     inkscape:connector-curvature="0"
     style="fill:#66757f" />
  <path
     d="m 16.5,13 -1.5,0 0,-1 1.5,0 c 0.275,0 0.5,0.225 0.5,0.5 0,0.275 -0.225,0.5 -0.5,0.5 z m 4,0 -2,0 C 18.225,13 18,12.775 18,12.5 18,12.225 18.225,12 18.5,12 l 2,0 c 0.275,0 0.5,0.225 0.5,0.5 0,0.275 -0.225,0.5 -0.5,0.5 z m 4,0 -2,0 C 22.225,13 22,12.775 22,12.5 22,12.225 22.225,12 22.5,12 l 2,0 c 0.275,0 0.5,0.225 0.5,0.5 0,0.275 -0.225,0.5 -0.5,0.5 z m 4,0 -2,0 C 26.225,13 26,12.775 26,12.5 26,12.225 26.225,12 26.5,12 l 2,0 c 0.275,0 0.5,0.225 0.5,0.5 0,0.275 -0.225,0.5 -0.5,0.5 z m 3.5,0 -1.5,0 C 30.225,13 30,12.775 30,12.5 30,12.225 30.225,12 30.5,12 l 1.5,0 0,1 z m -15.5,12 -1.5,0 0,-1 1.5,0 c 0.275,0 0.5,0.225 0.5,0.5 0,0.275 -0.225,0.5 -0.5,0.5 z m 4,0 -2,0 C 18.225,25 18,24.775 18,24.5 18,24.225 18.225,24 18.5,24 l 2,0 c 0.275,0 0.5,0.225 0.5,0.5 0,0.275 -0.225,0.5 -0.5,0.5 z m 4,0 -2,0 C 22.225,25 22,24.775 22,24.5 22,24.225 22.225,24 22.5,24 l 2,0 c 0.275,0 0.5,0.225 0.5,0.5 0,0.275 -0.225,0.5 -0.5,0.5 z m 4,0 -2,0 C 26.225,25 26,24.775 26,24.5 26,24.225 26.225,24 26.5,24 l 2,0 c 0.275,0 0.5,0.225 0.5,0.5 0,0.275 -0.225,0.5 -0.5,0.5 z m 3.5,0 -1.5,0 C 30.225,25 30,24.775 30,24.5 30,24.225 30.225,24 30.5,24 l 1.5,0 0,1 z"
     id="path20"
     inkscape:connector-curvature="0"
     style="fill:#ccd6dd" />
</svg>
