<?xml version="1.0" encoding="UTF-8" standalone="no"?>
<svg
   xmlns:dc="http://purl.org/dc/elements/1.1/"
   xmlns:cc="http://creativecommons.org/ns#"
   xmlns:rdf="http://www.w3.org/1999/02/22-rdf-syntax-ns#"
   xmlns:svg="http://www.w3.org/2000/svg"
   xmlns="http://www.w3.org/2000/svg"
   xmlns:sodipodi="http://sodipodi.sourceforge.net/DTD/sodipodi-0.dtd"
   xmlns:inkscape="http://www.inkscape.org/namespaces/inkscape"
   viewBox="0 0 35.809357 35.51899"
   id="svg2"
   version="1.1"
   inkscape:version="0.91 r13725"
   sodipodi:docname="1f9f2.svg"
   width="35.809357"
   height="35.51899">
  <metadata
     id="metadata16">
    <rdf:RDF>
      <cc:Work
         rdf:about="">
        <dc:format>image/svg+xml</dc:format>
        <dc:type
           rdf:resource="http://purl.org/dc/dcmitype/StillImage" />
      </cc:Work>
    </rdf:RDF>
  </metadata>
  <defs
     id="defs14" />
  <sodipodi:namedview
     pagecolor="#ffffff"
     bordercolor="#666666"
     borderopacity="1"
     objecttolerance="10"
     gridtolerance="10"
     guidetolerance="10"
     inkscape:pageopacity="0"
     inkscape:pageshadow="2"
     inkscape:window-width="640"
     inkscape:window-height="480"
     id="namedview12"
     showgrid="false"
     inkscape:zoom="6.5555556"
     inkscape:cx="17.902003"
     inkscape:cy="17.741628"
     inkscape:window-x="0"
     inkscape:window-y="0"
     inkscape:window-maximized="0"
     inkscape:current-layer="svg2" />
  <path
     d="m 19.371003,8.0963614 -3.854,-4.671 c -0.355,-0.43 -0.991,-0.491 -1.421,-0.136 l -3.376,2.785 5.138,6.2279996 3.376,-2.7849996 c 0.431,-0.355 0.492,-0.991 0.137,-1.421 z"
     id="path4"
     inkscape:connector-curvature="0"
     style="fill:#ccd6dd" />
  <path
     d="m 29.445003,24.798361 -6.228,-5.138 c 0,0 -2.395,3.132 -5.006,6.152 -1.986,2.298 -6.093,2.215 -8.4060002,-0.098 -2.313,-2.313 -2.395,-6.42 -0.098,-8.406 3.0200002,-2.611 6.1520002,-5.006 6.1520002,-5.006 l -5.138,-6.2279996 c 0,0 -5.1220002,3.9279996 -6.6130002,5.4299996 -5.468,5.508 -5.487,14.418 10e-4,19.906 5.488,5.488 14.3980002,5.468 19.9060002,10e-4 1.502,-1.491 5.43,-6.613 5.43,-6.613 z"
     id="path6"
     inkscape:connector-curvature="0"
     style="fill:#be1931" />
  <path
     d="m 27.423003,16.148361 4.671,3.854 c 0.43,0.355 0.491,0.991 0.136,1.421 l -2.785,3.376 -6.228,-5.138 2.785,-3.376 c 0.355,-0.431 0.992,-0.492 1.421,-0.137 z"
     id="path8"
     inkscape:connector-curvature="0"
     style="fill:#ccd6dd" />
  <path
     d="m 23.619003,4.0003614 -1.757,-1.793 1.936,-1.89500005 c 0.006,-0.006 0.004,-0.015 0.009,-0.021 0.016,-0.019 0.021,-0.039 0.027,-0.063 0.007,-0.024 0.013,-0.044 0.01,-0.068 -0.001,-0.008 0.005,-0.015 0.004,-0.023 -0.004,-0.017 -0.02,-0.024 -0.028,-0.038 -0.008,-0.016 -0.005,-0.035 -0.018,-0.048 -0.006,-0.006 -0.015,-0.004 -0.022,-0.009 -0.02,-0.016 -0.042,-0.021 -0.067,-0.028 -0.022,-0.006 -0.041,-0.012 -0.063,-0.01 -0.008,0.001 -0.016,-0.006 -0.024,-0.003999995 L 18.490003,1.2573614 c -0.064,0.016 -0.115,0.065 -0.134,0.129 -0.018,0.064 0,0.133 0.046,0.18 l 1.757,1.794 -1.935,1.896 c -0.006,0.006 -0.004,0.015 -0.009,0.021 -0.016,0.019 -0.021,0.04 -0.028,0.064 -0.007,0.024 -0.013,0.043 -0.01,0.067 0.001,0.008 -0.006,0.015 -0.004,0.024 0.006,0.025 0.023,0.043 0.038,0.062 0.005,0.007 0.003,0.016 0.009,0.023 l 0.011,0.011 c 0.042,0.036 0.095,0.044 0.147,0.036 0.007,-0.001 0.011,0.006 0.018,0.004 l 5.134,-1.257 c 0.064,-0.016 0.115,-0.065 0.134,-0.129 0.018,-0.066 0,-0.135 -0.045,-0.182 z m -2.155,-1.661 0.005,-0.005 -0.005,0.005 z m 14.266,12.5429996 -2.055,-1.443 1.557,-2.217 c 0.005,-0.007 10e-4,-0.015 0.005,-0.022 0.012,-0.022 0.013,-0.042 0.015,-0.067 0.002,-0.025 0.005,-0.045 -0.002,-0.069 -0.002,-0.008 0.003,-0.015 -10e-4,-0.023 -0.007,-0.016 -0.024,-0.02 -0.034,-0.033 -0.011,-0.014 -0.012,-0.032 -0.027,-0.043 -0.007,-0.005 -0.016,-10e-4 -0.023,-0.005 -0.023,-0.012 -0.045,-0.013 -0.071,-0.015 -0.023,-0.002 -0.043,-0.004 -0.064,0.002 -0.008,0.002 -0.016,-0.003 -0.024,10e-4 l -4.819,2.173 c -0.06,0.027 -0.101,0.085 -0.108,0.151 -0.006,0.066 0.025,0.131 0.078,0.169 l 2.055,1.443 -1.556,2.217 c -0.005,0.007 -10e-4,0.015 -0.005,0.022 -0.012,0.022 -0.013,0.043 -0.015,0.068 -0.002,0.024 -0.005,0.045 0.002,0.068 0.002,0.008 -0.003,0.016 10e-4,0.024 0.011,0.023 0.031,0.038 0.049,0.054 0.006,0.006 0.006,0.015 0.013,0.02 l 0.013,0.008 c 0.048,0.028 0.102,0.026 0.151,0.008 0.006,-0.002 0.012,0.004 0.018,0.001 l 4.818,-2.174 c 0.06,-0.027 0.101,-0.085 0.108,-0.151 0.004,-0.064 -0.026,-0.129 -0.079,-0.167 z m -2.422,-1.24 0.004,-0.006 -0.004,0.006 z"
     id="path10"
     inkscape:connector-curvature="0"
     style="fill:#ffac33" />
</svg>
