<?xml version="1.0" encoding="UTF-8" standalone="no"?>
<svg
   xmlns:dc="http://purl.org/dc/elements/1.1/"
   xmlns:cc="http://creativecommons.org/ns#"
   xmlns:rdf="http://www.w3.org/1999/02/22-rdf-syntax-ns#"
   xmlns:svg="http://www.w3.org/2000/svg"
   xmlns="http://www.w3.org/2000/svg"
   xmlns:sodipodi="http://sodipodi.sourceforge.net/DTD/sodipodi-0.dtd"
   xmlns:inkscape="http://www.inkscape.org/namespaces/inkscape"
   viewBox="0 0 35.0005 35.0005"
   id="svg2"
   version="1.1"
   inkscape:version="0.91 r13725"
   sodipodi:docname="1fa79.svg"
   width="35.0005"
   height="35.0005">
  <metadata
     id="metadata40">
    <rdf:RDF>
      <cc:Work
         rdf:about="">
        <dc:format>image/svg+xml</dc:format>
        <dc:type
           rdf:resource="http://purl.org/dc/dcmitype/StillImage" />
      </cc:Work>
    </rdf:RDF>
  </metadata>
  <defs
     id="defs38" />
  <sodipodi:namedview
     pagecolor="#ffffff"
     bordercolor="#666666"
     borderopacity="1"
     objecttolerance="10"
     gridtolerance="10"
     guidetolerance="10"
     inkscape:pageopacity="0"
     inkscape:pageshadow="2"
     inkscape:window-width="640"
     inkscape:window-height="480"
     id="namedview36"
     showgrid="false"
     inkscape:zoom="6.5555556"
     inkscape:cx="17.50025"
     inkscape:cy="17.50025"
     inkscape:window-x="0"
     inkscape:window-y="0"
     inkscape:window-maximized="0"
     inkscape:current-layer="svg2" />
  <path
     d="m 2.42025,20.89325 18.473,-18.473 c 3.227,-3.227 8.46,-3.227 11.687,0 3.227,3.227 3.227,8.46 0,11.687 l -18.473,18.473 c -3.227,3.227 -8.46,3.227 -11.687,0 -3.227,-3.228 -3.227,-8.46 0,-11.687 z"
     id="path4"
     inkscape:connector-curvature="0"
     style="fill:#d99e82" />
  <g
     id="g6"
     style="fill:#c1694f"
     transform="translate(-0.49975,-0.49975)">
    <circle
       cx="4.3889999"
       cy="25.778"
       r="0.972"
       id="circle8" />
    <circle
       cx="7.3060002"
       cy="28.694"
       r="0.972"
       id="circle10" />
    <circle
       cx="10.222"
       cy="31.611"
       r="0.972"
       id="circle12" />
    <circle
       cx="7.3060002"
       cy="22.861"
       r="0.972"
       id="circle14" />
    <circle
       cx="10.222"
       cy="25.778"
       r="0.972"
       id="circle16" />
    <circle
       cx="13.139"
       cy="28.694"
       r="0.972"
       id="circle18" />
    <path
       d="M 21.896,7.189 C 21.96,6.656 22.444,6.276 22.977,6.34 23.51,6.404 23.89,6.888 23.826,7.421 23.762,7.954 23.278,8.334 22.745,8.27 22.212,8.207 21.832,7.723 21.896,7.189 Z"
       id="path20"
       inkscape:connector-curvature="0" />
    <circle
       cx="25.778"
       cy="10.222"
       r="0.972"
       id="circle22" />
    <circle
       cx="28.694"
       cy="13.139"
       r="0.972"
       id="circle24" />
    <circle
       cx="25.778"
       cy="4.3889999"
       r="0.972"
       id="circle26" />
    <circle
       cx="28.694"
       cy="7.3060002"
       r="0.972"
       id="circle28" />
    <circle
       cx="31.611"
       cy="10.222"
       r="0.972"
       id="circle30" />
  </g>
  <path
     d="m 6.32025,17.01425 10.692,-10.695 11.668,11.667 -10.694,10.694 z"
     id="path32"
     inkscape:connector-curvature="0"
     style="fill:#eabaa7" />
  <path
     d="m 9.29925,17.92325 c -0.249,0 -0.498,-0.095 -0.687,-0.285 -0.38,-0.38 -0.38,-0.995 0,-1.375 l 7.715,-7.715 c 0.38,-0.38 0.995,-0.38 1.375,0 0.38,0.38 0.38,0.995 0,1.375 l -7.715,7.715 c -0.191,0.191 -0.439,0.285 -0.688,0.285 z"
     id="path34"
     inkscape:connector-curvature="0"
     style="fill:#f7ded5" />
</svg>
