<?xml version="1.0" encoding="UTF-8" standalone="no"?>
<svg
   xmlns:dc="http://purl.org/dc/elements/1.1/"
   xmlns:cc="http://creativecommons.org/ns#"
   xmlns:rdf="http://www.w3.org/1999/02/22-rdf-syntax-ns#"
   xmlns:svg="http://www.w3.org/2000/svg"
   xmlns="http://www.w3.org/2000/svg"
   xmlns:sodipodi="http://sodipodi.sourceforge.net/DTD/sodipodi-0.dtd"
   xmlns:inkscape="http://www.inkscape.org/namespaces/inkscape"
   viewBox="0 0 35.948002 25.132"
   id="svg2"
   version="1.1"
   inkscape:version="0.91 r13725"
   sodipodi:docname="1fa72.svg"
   width="35.948002"
   height="25.132">
  <metadata
     id="metadata18">
    <rdf:RDF>
      <cc:Work
         rdf:about="">
        <dc:format>image/svg+xml</dc:format>
        <dc:type
           rdf:resource="http://purl.org/dc/dcmitype/StillImage" />
      </cc:Work>
    </rdf:RDF>
  </metadata>
  <defs
     id="defs16" />
  <sodipodi:namedview
     pagecolor="#ffffff"
     bordercolor="#666666"
     borderopacity="1"
     objecttolerance="10"
     gridtolerance="10"
     guidetolerance="10"
     inkscape:pageopacity="0"
     inkscape:pageshadow="2"
     inkscape:window-width="640"
     inkscape:window-height="480"
     id="namedview14"
     showgrid="false"
     inkscape:zoom="6.5555556"
     inkscape:cx="17.948"
     inkscape:cy="14"
     inkscape:window-x="0"
     inkscape:window-y="0"
     inkscape:window-maximized="0"
     inkscape:current-layer="svg2" />
  <path
     d="m 35.948,11.092 0,-7.96 -8.296,-2 -19.356,0 -8.296,2 0,7.96 c 0,3.466 12.324,14.04 14.783,14.04 l 6.382,0 c 2.183,0 14.783,-10.285 14.783,-14.04 z"
     id="path4"
     inkscape:connector-curvature="0"
     style="fill:#2976aa" />
  <g
     id="g6"
     style="fill:#5dadec"
     transform="translate(-0.052,-6.868)">
    <path
       d="M 4.617,18.577 2.725,17.93 C 4,14.201 4,10.904 4,9.32 l 2,0 c 0,1.692 0,5.213 -1.383,9.257 z m 26.818,0.152 C 30,14.622 30,11.041 30,9.32 l 2,0 c 0,1.611 0,4.963 1.323,8.75 l -1.888,0.659 z"
       id="path8"
       inkscape:connector-curvature="0" />
    <path
       d="m 36,10 -35.948,0 0,-1.801 c 0,-0.735 0.596,-1.331 1.331,-1.331 l 33.286,0 C 35.404,6.868 36,7.464 36,8.199 L 36,10 Z"
       id="path10"
       inkscape:connector-curvature="0" />
  </g>
  <path
     d="M 3.65,11.286 3.62,11.385 C 3.631,11.352 3.638,11.32 3.65,11.286 2.186,10.739 0.9,10.421 0.001,10.267 l 0,0.825 C 0,14.558 12.357,25.132 14.802,25.132 l 0.934,0 C 14.581,16.989 8.263,13.01 3.65,11.286 Z m 32.298,-0.194 0,-0.747 c -0.897,0.147 -2.196,0.459 -3.677,1.005 0.021,0.061 0.035,0.12 0.057,0.181 -0.021,-0.061 -0.036,-0.12 -0.057,-0.181 -4.6,1.696 -10.905,5.635 -12.059,13.782 l 0.934,0 c 2.171,0 14.802,-10.285 14.802,-14.04 z"
     id="path12"
     inkscape:connector-curvature="0"
     style="fill:#1d567c" />
</svg>
