<?xml version="1.0" encoding="UTF-8" standalone="no"?>
<svg
   xmlns:dc="http://purl.org/dc/elements/1.1/"
   xmlns:cc="http://creativecommons.org/ns#"
   xmlns:rdf="http://www.w3.org/1999/02/22-rdf-syntax-ns#"
   xmlns:svg="http://www.w3.org/2000/svg"
   xmlns="http://www.w3.org/2000/svg"
   xmlns:sodipodi="http://sodipodi.sourceforge.net/DTD/sodipodi-0.dtd"
   xmlns:inkscape="http://www.inkscape.org/namespaces/inkscape"
   viewBox="0 0 34.9995 35.0005"
   id="svg2"
   version="1.1"
   inkscape:version="0.91 r13725"
   sodipodi:docname="1fa92.svg"
   width="34.9995"
   height="35.0005">
  <metadata
     id="metadata22">
    <rdf:RDF>
      <cc:Work
         rdf:about="">
        <dc:format>image/svg+xml</dc:format>
        <dc:type
           rdf:resource="http://purl.org/dc/dcmitype/StillImage" />
      </cc:Work>
    </rdf:RDF>
  </metadata>
  <defs
     id="defs20" />
  <sodipodi:namedview
     pagecolor="#ffffff"
     bordercolor="#666666"
     borderopacity="1"
     objecttolerance="10"
     gridtolerance="10"
     guidetolerance="10"
     inkscape:pageopacity="0"
     inkscape:pageshadow="2"
     inkscape:window-width="640"
     inkscape:window-height="480"
     id="namedview18"
     showgrid="false"
     inkscape:zoom="6.5555556"
     inkscape:cx="17.50025"
     inkscape:cy="17.50025"
     inkscape:window-x="0"
     inkscape:window-y="0"
     inkscape:window-maximized="0"
     inkscape:current-layer="svg2" />
  <path
     d="m 8.03025,20.80425 12.774,-12.774 c 1.451,-1.451 1.451,-3.825 0,-5.276 l -1.666,-1.666 c -1.451,-1.451 -3.825,-1.451 -5.276,0 l -12.774,12.774 c -1.451,1.451 -1.451,3.825 0,5.276 l 1.666,1.666 c 1.451,1.45 3.825,1.45 5.276,0 z"
     id="path4"
     inkscape:connector-curvature="0"
     style="fill:#77b255" />
  <path
     d="m 33.85525,33.85525 c 1.145,-1.145 1.145,-3.02 0,-4.165 l -19.438,-19.438 c -1.145,-1.145 -3.02,-1.145 -4.165,0 -1.145,1.145 -1.145,3.02 0,4.165 l 19.438,19.438 c 1.145,1.145 3.019,1.145 4.165,0 z"
     id="path6"
     inkscape:connector-curvature="0"
     style="fill:#77b255" />
  <path
     d="m 24.05125,18.49825 9.803,9.803 c 1.527,1.527 1.527,4.026 0,5.554 -1.527,1.527 -4.026,1.527 -5.554,0 l -9.803,-9.803 c -1.534,-1.534 -1.534,-4.02 0,-5.554 1.534,-1.534 4.021,-1.534 5.554,0 z"
     id="path8"
     inkscape:connector-curvature="0"
     style="fill:#5c913b" />
  <path
     d="m 4.69825,17.19425 12.496,-12.496 c 0.382,-0.382 0.382,-1.007 0,-1.388 -0.382,-0.382 -1.007,-0.382 -1.388,0 l -12.496,12.495 c -0.382,0.382 -0.382,1.007 0,1.388 0.381,0.382 1.006,0.382 1.388,0.001 z m 2.083,2.082 12.495,-12.495 c 0.382,-0.382 0.382,-1.007 0,-1.388 -0.382,-0.382 -1.007,-0.382 -1.388,0 l -12.496,12.495 c -0.382,0.382 -0.382,1.007 0,1.388 0.382,0.382 1.007,0.382 1.389,0 z"
     id="path10"
     inkscape:connector-curvature="0"
     style="fill:#e1e8ed" />
  <path
     d="m 17.88825,13.72325 -4.165,4.166 -1.39,-1.39 4.167,-4.164 z"
     id="path12"
     inkscape:connector-curvature="0"
     style="fill:#5c913b" />
  <path
     d="m 23.09425,25.17725 2.083,-2.083 c 0.573,-0.573 0.573,-1.51 0,-2.083 -0.573,-0.573 -1.51,-0.573 -2.083,0 l -2.083,2.083 c -0.573,0.573 -0.573,1.51 0,2.083 0.574,0.573 1.511,0.573 2.083,0 z m 3.471,3.471 2.083,-2.083 c 0.573,-0.573 0.573,-1.51 0,-2.083 -0.573,-0.573 -1.51,-0.573 -2.083,0 l -2.083,2.083 c -0.573,0.573 -0.573,1.51 0,2.083 0.574,0.573 1.511,0.573 2.083,0 z m 3.471,3.471 2.083,-2.083 c 0.573,-0.573 0.573,-1.51 0,-2.083 -0.573,-0.573 -1.51,-0.573 -2.083,0 l -2.083,2.083 c -0.573,0.573 -0.573,1.51 0,2.083 0.574,0.573 1.511,0.573 2.083,0 z"
     id="path14"
     inkscape:connector-curvature="0"
     style="fill:#3e721d" />
  <path
     d="m 2.97225,14.75525 11.783,-11.783 c 0.58,-0.58 0.58,-1.521 0,-2.101 l -0.338,-0.338 -13.884,13.884 0.338,0.338 c 0.58,0.58 1.521,0.58 2.101,0 z"
     id="path16"
     inkscape:connector-curvature="0"
     style="fill:#a6d388" />
</svg>
