<?xml version="1.0" encoding="UTF-8" standalone="no"?>
<svg
   xmlns:dc="http://purl.org/dc/elements/1.1/"
   xmlns:cc="http://creativecommons.org/ns#"
   xmlns:rdf="http://www.w3.org/1999/02/22-rdf-syntax-ns#"
   xmlns:svg="http://www.w3.org/2000/svg"
   xmlns="http://www.w3.org/2000/svg"
   xmlns:sodipodi="http://sodipodi.sourceforge.net/DTD/sodipodi-0.dtd"
   xmlns:inkscape="http://www.inkscape.org/namespaces/inkscape"
   viewBox="0 0 30 33"
   id="svg2"
   version="1.1"
   inkscape:version="0.91 r13725"
   sodipodi:docname="2049.svg"
   width="30"
   height="33">
  <metadata
     id="metadata16">
    <rdf:RDF>
      <cc:Work
         rdf:about="">
        <dc:format>image/svg+xml</dc:format>
        <dc:type
           rdf:resource="http://purl.org/dc/dcmitype/StillImage" />
      </cc:Work>
    </rdf:RDF>
  </metadata>
  <defs
     id="defs14" />
  <sodipodi:namedview
     pagecolor="#ffffff"
     bordercolor="#666666"
     borderopacity="1"
     objecttolerance="10"
     gridtolerance="10"
     guidetolerance="10"
     inkscape:pageopacity="0"
     inkscape:pageshadow="2"
     inkscape:window-width="640"
     inkscape:window-height="480"
     id="namedview12"
     showgrid="false"
     inkscape:zoom="6.5555556"
     inkscape:cx="15"
     inkscape:cy="17"
     inkscape:window-x="0"
     inkscape:window-y="0"
     inkscape:window-maximized="0"
     inkscape:current-layer="svg2" />
  <path
     d="m 18,25 c -1.657,0 -3,-1.343 -3,-3 l 0,-4 c 0,-1.657 1.343,-3 3,-3 0.603,-0.006 6,-1 6,-5 0,-2 -2,-4 -5,-4 -2.441,0 -4,2 -4,3 0,1.657 -1.343,3 -3,3 -1.657,0 -3,-1.343 -3,-3 0,-4.878 4.58,-9 10,-9 8,0 11,5.982 11,11 0,4.145 -2.277,7.313 -6.413,8.92 -0.9,0.351 -1.79,0.587 -2.587,0.747 L 21,22 c 0,1.657 -1.343,3 -3,3 z"
     id="path4"
     inkscape:connector-curvature="0"
     style="fill:#be1931" />
  <circle
     cx="18"
     cy="30"
     r="3"
     id="circle6"
     style="fill:#be1931" />
  <circle
     cx="3"
     cy="30"
     r="3"
     id="circle8"
     style="fill:#be1931" />
  <path
     d="M 6,22 C 6,23.657 4.657,25 3,25 1.343,25 0,23.657 0,22 L 0,3 C 0,1.343 1.343,0 3,0 4.657,0 6,1.343 6,3 l 0,19 z"
     id="path10"
     inkscape:connector-curvature="0"
     style="fill:#be1931" />
</svg>
