<?xml version="1.0" encoding="UTF-8" standalone="no"?>
<svg
   xmlns:dc="http://purl.org/dc/elements/1.1/"
   xmlns:cc="http://creativecommons.org/ns#"
   xmlns:rdf="http://www.w3.org/1999/02/22-rdf-syntax-ns#"
   xmlns:svg="http://www.w3.org/2000/svg"
   xmlns="http://www.w3.org/2000/svg"
   xmlns:sodipodi="http://sodipodi.sourceforge.net/DTD/sodipodi-0.dtd"
   xmlns:inkscape="http://www.inkscape.org/namespaces/inkscape"
   viewBox="0 0 36 36"
   id="svg2"
   version="1.1"
   inkscape:version="0.91 r13725"
   sodipodi:docname="23-20e3.svg"
   width="36"
   height="36">
  <metadata
     id="metadata12">
    <rdf:RDF>
      <cc:Work
         rdf:about="">
        <dc:format>image/svg+xml</dc:format>
        <dc:type
           rdf:resource="http://purl.org/dc/dcmitype/StillImage" />
      </cc:Work>
    </rdf:RDF>
  </metadata>
  <defs
     id="defs10" />
  <sodipodi:namedview
     pagecolor="#ffffff"
     bordercolor="#666666"
     borderopacity="1"
     objecttolerance="10"
     gridtolerance="10"
     guidetolerance="10"
     inkscape:pageopacity="0"
     inkscape:pageshadow="2"
     inkscape:window-width="640"
     inkscape:window-height="480"
     id="namedview8"
     showgrid="false"
     inkscape:zoom="6.5555556"
     inkscape:cx="18"
     inkscape:cy="18"
     inkscape:window-x="0"
     inkscape:window-y="0"
     inkscape:window-maximized="0"
     inkscape:current-layer="svg2" />
  <path
     d="m 36,32 c 0,2.209 -1.791,4 -4,4 L 4,36 C 1.791,36 0,34.209 0,32 L 0,4 C 0,1.791 1.791,0 4,0 l 28,0 c 2.209,0 4,1.791 4,4 l 0,28 z"
     id="path4"
     inkscape:connector-curvature="0"
     style="fill:#3b88c3" />
  <path
     d="m 13.785,16.194 -2.667,0 c -1.024,0 -1.488,-0.744 -1.488,-1.488 0,-0.744 0.465,-1.488 1.488,-1.488 l 3.101,0 0.682,-4.992 c 0.155,-1.116 0.62,-1.488 1.55,-1.488 0.744,0 1.426,0.496 1.426,1.24 0,0.465 0,0.248 -0.062,0.744 l -0.62,4.496 2.976,0 0.683,-4.992 c 0.155,-1.116 0.62,-1.488 1.55,-1.488 0.744,0 1.427,0.496 1.427,1.24 0,0.465 0,0.248 -0.062,0.744 l -0.621,4.496 2.667,0 c 1.023,0 1.487,0.744 1.487,1.488 0,0.744 -0.465,1.488 -1.487,1.488 l -3.101,0 -0.496,3.535 2.666,0 c 1.023,0 1.488,0.744 1.488,1.488 0,0.744 -0.465,1.488 -1.488,1.488 l -3.1,0 -0.683,4.991 c -0.155,1.117 -0.62,1.488 -1.55,1.488 -0.745,0 -1.427,-0.496 -1.427,-1.24 0,-0.465 0,-0.248 0.062,-0.744 l 0.62,-4.495 -2.977,0 -0.682,4.991 c -0.155,1.117 -0.62,1.488 -1.55,1.488 -0.744,0 -1.426,-0.496 -1.426,-1.24 0,-0.465 0,-0.248 0.062,-0.744 l 0.62,-4.495 -2.666,0 c -1.023,0 -1.488,-0.744 -1.488,-1.488 0,-0.744 0.465,-1.488 1.488,-1.488 l 3.101,0 0.497,-3.535 z m 2.511,3.535 2.946,0 0.496,-3.535 -2.946,0 -0.496,3.535 z"
     id="path6"
     inkscape:connector-curvature="0"
     style="fill:#ffffff" />
</svg>
