<?xml version="1.0" encoding="UTF-8" standalone="no"?>
<svg
   xmlns:dc="http://purl.org/dc/elements/1.1/"
   xmlns:cc="http://creativecommons.org/ns#"
   xmlns:rdf="http://www.w3.org/1999/02/22-rdf-syntax-ns#"
   xmlns:svg="http://www.w3.org/2000/svg"
   xmlns="http://www.w3.org/2000/svg"
   xmlns:sodipodi="http://sodipodi.sourceforge.net/DTD/sodipodi-0.dtd"
   xmlns:inkscape="http://www.inkscape.org/namespaces/inkscape"
   viewBox="0 0 36 20"
   id="svg2"
   version="1.1"
   inkscape:version="0.91 r13725"
   sodipodi:docname="2328.svg"
   width="36"
   height="20">
  <metadata
     id="metadata12">
    <rdf:RDF>
      <cc:Work
         rdf:about="">
        <dc:format>image/svg+xml</dc:format>
        <dc:type
           rdf:resource="http://purl.org/dc/dcmitype/StillImage" />
      </cc:Work>
    </rdf:RDF>
  </metadata>
  <defs
     id="defs10" />
  <sodipodi:namedview
     pagecolor="#ffffff"
     bordercolor="#666666"
     borderopacity="1"
     objecttolerance="10"
     gridtolerance="10"
     guidetolerance="10"
     inkscape:pageopacity="0"
     inkscape:pageshadow="2"
     inkscape:window-width="640"
     inkscape:window-height="480"
     id="namedview8"
     showgrid="false"
     inkscape:zoom="6.5555556"
     inkscape:cx="18"
     inkscape:cy="12"
     inkscape:window-x="0"
     inkscape:window-y="0"
     inkscape:window-maximized="0"
     inkscape:current-layer="svg2" />
  <path
     d="m 36,18 c 0,1.104 -0.896,2 -2,2 L 2,20 C 0.896,20 0,19.104 0,18 L 0,2 C 0,0.896 0.896,0 2,0 l 32,0 c 1.104,0 2,0.896 2,2 l 0,16 z"
     id="path4"
     inkscape:connector-curvature="0"
     style="fill:#99aab5" />
  <path
     d="m 5.5,9 c 0,0.553 -0.448,1 -1,1 l -1,0 c -0.552,0 -1,-0.447 -1,-1 l 0,-1 c 0,-0.553 0.448,-1 1,-1 l 1,0 c 0.552,0 1,0.447 1,1 l 0,1 z m 4,0 c 0,0.553 -0.448,1 -1,1 l -1,0 c -0.552,0 -1,-0.447 -1,-1 l 0,-1 c 0,-0.553 0.448,-1 1,-1 l 1,0 c 0.552,0 1,0.447 1,1 l 0,1 z m 4,0 c 0,0.553 -0.448,1 -1,1 l -1,0 c -0.552,0 -1,-0.447 -1,-1 l 0,-1 c 0,-0.553 0.448,-1 1,-1 l 1,0 c 0.552,0 1,0.447 1,1 l 0,1 z m 4,0 c 0,0.553 -0.448,1 -1,1 l -1,0 c -0.552,0 -1,-0.447 -1,-1 l 0,-1 c 0,-0.553 0.448,-1 1,-1 l 1,0 c 0.552,0 1,0.447 1,1 l 0,1 z m 4,0 c 0,0.553 -0.447,1 -1,1 l -1,0 c -0.553,0 -1,-0.447 -1,-1 l 0,-1 c 0,-0.553 0.447,-1 1,-1 l 1,0 c 0.553,0 1,0.447 1,1 l 0,1 z m 4,0 c 0,0.553 -0.447,1 -1,1 l -1,0 c -0.553,0 -1,-0.447 -1,-1 l 0,-1 c 0,-0.553 0.447,-1 1,-1 l 1,0 c 0.553,0 1,0.447 1,1 l 0,1 z m 4,0 c 0,0.553 -0.447,1 -1,1 l -1,0 c -0.553,0 -1,-0.447 -1,-1 l 0,-1 c 0,-0.553 0.447,-1 1,-1 l 1,0 c 0.553,0 1,0.447 1,1 l 0,1 z m 4,0 c 0,0.553 -0.447,1 -1,1 l -1,0 c -0.553,0 -1,-0.447 -1,-1 l 0,-1 c 0,-0.553 0.447,-1 1,-1 l 1,0 c 0.553,0 1,0.447 1,1 l 0,1 z m -26,4 c 0,0.553 -0.448,1 -1,1 l -1,0 c -0.552,0 -1,-0.447 -1,-1 l 0,-1 c 0,-0.553 0.448,-1 1,-1 l 1,0 c 0.552,0 1,0.447 1,1 l 0,1 z m 4,0 c 0,0.553 -0.448,1 -1,1 l -1,0 c -0.552,0 -1,-0.447 -1,-1 l 0,-1 c 0,-0.553 0.448,-1 1,-1 l 1,0 c 0.552,0 1,0.447 1,1 l 0,1 z m 4,0 c 0,0.553 -0.448,1 -1,1 l -1,0 c -0.552,0 -1,-0.447 -1,-1 l 0,-1 c 0,-0.553 0.448,-1 1,-1 l 1,0 c 0.552,0 1,0.447 1,1 l 0,1 z m 4,0 c 0,0.553 -0.447,1 -1,1 l -1,0 c -0.552,0 -1,-0.447 -1,-1 l 0,-1 c 0,-0.553 0.448,-1 1,-1 l 1,0 c 0.553,0 1,0.447 1,1 l 0,1 z m 4,0 c 0,0.553 -0.447,1 -1,1 l -1,0 c -0.553,0 -1,-0.447 -1,-1 l 0,-1 c 0,-0.553 0.447,-1 1,-1 l 1,0 c 0.553,0 1,0.447 1,1 l 0,1 z m 4,0 c 0,0.553 -0.447,1 -1,1 l -1,0 c -0.553,0 -1,-0.447 -1,-1 l 0,-1 c 0,-0.553 0.447,-1 1,-1 l 1,0 c 0.553,0 1,0.447 1,1 l 0,1 z m 4,0 c 0,0.553 -0.447,1 -1,1 l -1,0 c -0.553,0 -1,-0.447 -1,-1 l 0,-1 c 0,-0.553 0.447,-1 1,-1 l 1,0 c 0.553,0 1,0.447 1,1 l 0,1 z M 10,17 c 0,0.553 -0.448,1 -1,1 L 7,18 C 6.448,18 6,17.553 6,17 l 0,-1 c 0,-0.553 0.448,-1 1,-1 l 2,0 c 0.552,0 1,0.447 1,1 l 0,1 z m 20,0 c 0,0.553 -0.447,1 -1,1 l -2,0 c -0.553,0 -1,-0.447 -1,-1 l 0,-1 c 0,-0.553 0.447,-1 1,-1 l 2,0 c 0.553,0 1,0.447 1,1 l 0,1 z m -5,0 c 0,0.553 -0.447,1 -1,1 l -12,0 c -0.552,0 -1,-0.447 -1,-1 l 0,-1 c 0,-0.553 0.448,-1 1,-1 l 12,0 c 0.553,0 1,0.447 1,1 l 0,1 z M 5.5,3.083 c 0,0.552 -0.448,1 -1,1 l -1,0 c -0.552,0 -1,-0.448 -1,-1 0,-0.552 0.448,-1 1,-1 l 1,0 c 0.552,0 1,0.448 1,1 z m 4,0 c 0,0.552 -0.448,1 -1,1 l -1,0 c -0.552,0 -1,-0.448 -1,-1 0,-0.552 0.448,-1 1,-1 l 1,0 c 0.552,0 1,0.448 1,1 z m 4,0 c 0,0.552 -0.448,1 -1,1 l -1,0 c -0.552,0 -1,-0.448 -1,-1 0,-0.552 0.448,-1 1,-1 l 1,0 c 0.552,0 1,0.448 1,1 z m 4,0 c 0,0.552 -0.448,1 -1,1 l -1,0 c -0.552,0 -1,-0.448 -1,-1 0,-0.552 0.448,-1 1,-1 l 1,0 c 0.552,0 1,0.448 1,1 z m 4,0 c 0,0.552 -0.447,1 -1,1 l -1,0 c -0.553,0 -1,-0.448 -1,-1 0,-0.552 0.447,-1 1,-1 l 1,0 c 0.553,0 1,0.448 1,1 z m 4,0 c 0,0.552 -0.447,1 -1,1 l -1,0 c -0.553,0 -1,-0.448 -1,-1 0,-0.552 0.447,-1 1,-1 l 1,0 c 0.553,0 1,0.448 1,1 z m 4,0 c 0,0.552 -0.447,1 -1,1 l -1,0 c -0.553,0 -1,-0.448 -1,-1 0,-0.552 0.447,-1 1,-1 l 1,0 c 0.553,0 1,0.448 1,1 z m 4,0 c 0,0.552 -0.447,1 -1,1 l -1,0 c -0.553,0 -1,-0.448 -1,-1 0,-0.552 0.447,-1 1,-1 l 1,0 c 0.553,0 1,0.448 1,1 z"
     id="path6"
     inkscape:connector-curvature="0"
     style="fill:#292f33" />
</svg>
