<?xml version="1.0" encoding="UTF-8" standalone="no"?>
<svg
   xmlns:dc="http://purl.org/dc/elements/1.1/"
   xmlns:cc="http://creativecommons.org/ns#"
   xmlns:rdf="http://www.w3.org/1999/02/22-rdf-syntax-ns#"
   xmlns:svg="http://www.w3.org/2000/svg"
   xmlns="http://www.w3.org/2000/svg"
   xmlns:sodipodi="http://sodipodi.sourceforge.net/DTD/sodipodi-0.dtd"
   xmlns:inkscape="http://www.inkscape.org/namespaces/inkscape"
   viewBox="0 0 36 36"
   id="svg2"
   version="1.1"
   inkscape:version="0.91 r13725"
   sodipodi:docname="24c2.svg"
   width="36"
   height="36">
  <metadata
     id="metadata12">
    <rdf:RDF>
      <cc:Work
         rdf:about="">
        <dc:format>image/svg+xml</dc:format>
        <dc:type
           rdf:resource="http://purl.org/dc/dcmitype/StillImage" />
      </cc:Work>
    </rdf:RDF>
  </metadata>
  <defs
     id="defs10" />
  <sodipodi:namedview
     pagecolor="#ffffff"
     bordercolor="#666666"
     borderopacity="1"
     objecttolerance="10"
     gridtolerance="10"
     guidetolerance="10"
     inkscape:pageopacity="0"
     inkscape:pageshadow="2"
     inkscape:window-width="640"
     inkscape:window-height="480"
     id="namedview8"
     showgrid="false"
     inkscape:zoom="6.5555556"
     inkscape:cx="18"
     inkscape:cy="18"
     inkscape:window-x="0"
     inkscape:window-y="0"
     inkscape:window-maximized="0"
     inkscape:current-layer="svg2" />
  <path
     d="M 36,18 C 36,27.941 27.941,36 18,36 8.059,36 0,27.941 0,18 0,8.059 8.059,0 18,0 27.941,0 36,8.059 36,18 Z"
     id="path4"
     inkscape:connector-curvature="0"
     style="fill:#3b88c3" />
  <path
     d="M 8.174,9.125 C 8.36,8.009 9.569,6.738 11.213,6.738 c 1.55,0 2.76,1.116 3.101,2.232 l 3.659,12.278 0.062,0 3.657,-12.278 c 0.341,-1.116 1.55,-2.232 3.101,-2.232 1.642,0 2.852,1.271 3.039,2.387 l 2.883,17.302 c 0.031,0.186 0.031,0.372 0.031,0.526 0,1.365 -0.992,2.232 -2.232,2.232 -1.582,0 -2.201,-0.713 -2.418,-2.17 l -1.83,-12.619 -0.062,0 -3.721,12.991 c -0.217,0.744 -0.805,1.798 -2.48,1.798 -1.674,0 -2.263,-1.054 -2.48,-1.798 l -3.721,-12.991 -0.062,0 -1.83,12.62 c -0.217,1.457 -0.837,2.17 -2.418,2.17 -1.24,0 -2.232,-0.867 -2.232,-2.232 0,-0.154 0,-0.341 0.031,-0.526 L 8.174,9.125 Z"
     id="path6"
     inkscape:connector-curvature="0"
     style="fill:#ffffff" />
</svg>
