<?xml version="1.0" encoding="UTF-8" standalone="no"?>
<svg
   xmlns:dc="http://purl.org/dc/elements/1.1/"
   xmlns:cc="http://creativecommons.org/ns#"
   xmlns:rdf="http://www.w3.org/1999/02/22-rdf-syntax-ns#"
   xmlns:svg="http://www.w3.org/2000/svg"
   xmlns="http://www.w3.org/2000/svg"
   xmlns:sodipodi="http://sodipodi.sourceforge.net/DTD/sodipodi-0.dtd"
   xmlns:inkscape="http://www.inkscape.org/namespaces/inkscape"
   viewBox="0 0 36 36"
   id="svg2"
   version="1.1"
   inkscape:version="0.91 r13725"
   sodipodi:docname="2600.svg"
   width="36"
   height="36">
  <metadata
     id="metadata12">
    <rdf:RDF>
      <cc:Work
         rdf:about="">
        <dc:format>image/svg+xml</dc:format>
        <dc:type
           rdf:resource="http://purl.org/dc/dcmitype/StillImage" />
      </cc:Work>
    </rdf:RDF>
  </metadata>
  <defs
     id="defs10" />
  <sodipodi:namedview
     pagecolor="#ffffff"
     bordercolor="#666666"
     borderopacity="1"
     objecttolerance="10"
     gridtolerance="10"
     guidetolerance="10"
     inkscape:pageopacity="0"
     inkscape:pageshadow="2"
     inkscape:window-width="640"
     inkscape:window-height="480"
     id="namedview8"
     showgrid="false"
     inkscape:zoom="6.5555556"
     inkscape:cx="18"
     inkscape:cy="18"
     inkscape:window-x="0"
     inkscape:window-y="0"
     inkscape:window-maximized="0"
     inkscape:current-layer="svg2" />
  <path
     d="m 16,2 c 0,0 0,-2 2,-2 2,0 2,2 2,2 l 0,2 c 0,0 0,2 -2,2 -2,0 -2,-2 -2,-2 l 0,-2 z m 18,14 c 0,0 2,0 2,2 0,2 -2,2 -2,2 l -2,0 c 0,0 -2,0 -2,-2 0,-2 2,-2 2,-2 l 2,0 z M 4,16 c 0,0 2,0 2,2 0,2 -2,2 -2,2 l -2,0 c 0,0 -2,0 -2,-2 0,-2 2,-2 2,-2 l 2,0 z M 9.121,7.293 c 0,0 1.414,1.414 0,2.828 -1.414,1.414 -2.828,0 -2.828,0 L 4.878,8.708 c 0,0 -1.414,-1.414 0,-2.829 1.415,-1.414 2.829,0 2.829,0 l 1.414,1.414 z m 21,21 c 0,0 1.414,1.414 0,2.828 -1.414,1.414 -2.828,0 -2.828,0 l -1.414,-1.414 c 0,0 -1.414,-1.414 0,-2.828 1.414,-1.414 2.828,0 2.828,0 l 1.414,1.414 z M 29.708,10.121 c 0,0 -1.414,1.414 -2.828,0 -1.414,-1.414 0,-2.828 0,-2.828 l 1.414,-1.414 c 0,0 1.414,-1.414 2.828,0 1.414,1.414 0,2.828 0,2.828 l -1.414,1.414 z m -21,21 c 0,0 -1.414,1.414 -2.828,0 -1.414,-1.414 0,-2.828 0,-2.828 l 1.414,-1.414 c 0,0 1.414,-1.414 2.828,0 1.414,1.414 0,2.828 0,2.828 L 8.708,31.121 Z M 16,32 c 0,0 0,-2 2,-2 2,0 2,2 2,2 l 0,2 c 0,0 0,2 -2,2 -2,0 -2,-2 -2,-2 l 0,-2 z"
     id="path4"
     inkscape:connector-curvature="0"
     style="fill:#ffac33" />
  <circle
     cx="18"
     cy="18"
     r="10"
     id="circle6"
     style="fill:#ffac33" />
</svg>
