<?xml version="1.0" encoding="UTF-8" standalone="no"?>
<svg
   xmlns:dc="http://purl.org/dc/elements/1.1/"
   xmlns:cc="http://creativecommons.org/ns#"
   xmlns:rdf="http://www.w3.org/1999/02/22-rdf-syntax-ns#"
   xmlns:svg="http://www.w3.org/2000/svg"
   xmlns="http://www.w3.org/2000/svg"
   xmlns:sodipodi="http://sodipodi.sourceforge.net/DTD/sodipodi-0.dtd"
   xmlns:inkscape="http://www.inkscape.org/namespaces/inkscape"
   viewBox="0 0 36 30"
   id="svg2"
   version="1.1"
   inkscape:version="0.91 r13725"
   sodipodi:docname="2601.svg"
   width="36"
   height="30">
  <metadata
     id="metadata12">
    <rdf:RDF>
      <cc:Work
         rdf:about="">
        <dc:format>image/svg+xml</dc:format>
        <dc:type
           rdf:resource="http://purl.org/dc/dcmitype/StillImage" />
      </cc:Work>
    </rdf:RDF>
  </metadata>
  <defs
     id="defs10" />
  <sodipodi:namedview
     pagecolor="#ffffff"
     bordercolor="#666666"
     borderopacity="1"
     objecttolerance="10"
     gridtolerance="10"
     guidetolerance="10"
     inkscape:pageopacity="0"
     inkscape:pageshadow="2"
     inkscape:window-width="640"
     inkscape:window-height="480"
     id="namedview8"
     showgrid="false"
     inkscape:zoom="6.5555556"
     inkscape:cx="18"
     inkscape:cy="14"
     inkscape:window-x="0"
     inkscape:window-y="0"
     inkscape:window-maximized="0"
     inkscape:current-layer="svg2" />
  <path
     d="M 27,6 C 26.299,6 25.623,6.106 24.985,6.298 24.99,6.198 25,6.101 25,6 25,2.687 22.313,0 19,0 16.231,0 13.907,1.878 13.215,4.427 12.529,4.154 11.783,4 11,4 7.686,4 5,6.686 5,10 c 0,3.312 2.686,6 6,6 2.769,0 5.093,-1.878 5.785,-4.428 C 17.471,11.845 18.217,12 19,12 19.375,12 19.74,11.961 20.096,11.896 20.038,12.256 20,12.623 20,13 c 0,3.865 3.135,7 7,7 3.865,0 7,-3.135 7,-7 0,-3.866 -3.135,-7 -7,-7 z"
     id="path4"
     inkscape:connector-curvature="0"
     style="fill:#ccd6dd" />
  <path
     d="m 31,20 c -0.467,0 -0.91,0.085 -1.339,0.204 C 29.877,19.678 30,19.104 30,18.5 30,16.015 27.985,14 25.5,14 24.481,14 23.553,14.351 22.799,14.921 22.093,12.096 19.544,10 16.5,10 13.662,10 11.255,11.822 10.369,14.357 9.621,14.125 8.825,14 8,14 c -4.418,0 -8,3.582 -8,8 0,4.419 3.582,8 8,8 l 23,0 c 2.762,0 5,-2.238 5,-5 0,-2.762 -2.238,-5 -5,-5 z"
     id="path6"
     inkscape:connector-curvature="0"
     style="fill:#e1e8ed" />
</svg>
