<?xml version="1.0" encoding="UTF-8" standalone="no"?>
<svg
   xmlns:dc="http://purl.org/dc/elements/1.1/"
   xmlns:cc="http://creativecommons.org/ns#"
   xmlns:rdf="http://www.w3.org/1999/02/22-rdf-syntax-ns#"
   xmlns:svg="http://www.w3.org/2000/svg"
   xmlns="http://www.w3.org/2000/svg"
   xmlns:sodipodi="http://sodipodi.sourceforge.net/DTD/sodipodi-0.dtd"
   xmlns:inkscape="http://www.inkscape.org/namespaces/inkscape"
   viewBox="0 0 35.900002 36"
   id="svg2"
   version="1.1"
   inkscape:version="0.91 r13725"
   sodipodi:docname="2620.svg"
   width="35.900002"
   height="36">
  <metadata
     id="metadata16">
    <rdf:RDF>
      <cc:Work
         rdf:about="">
        <dc:format>image/svg+xml</dc:format>
        <dc:type
           rdf:resource="http://purl.org/dc/dcmitype/StillImage" />
      </cc:Work>
    </rdf:RDF>
  </metadata>
  <defs
     id="defs14" />
  <sodipodi:namedview
     pagecolor="#ffffff"
     bordercolor="#666666"
     borderopacity="1"
     objecttolerance="10"
     gridtolerance="10"
     guidetolerance="10"
     inkscape:pageopacity="0"
     inkscape:pageshadow="2"
     inkscape:window-width="640"
     inkscape:window-height="480"
     id="namedview12"
     showgrid="false"
     inkscape:zoom="6.5555556"
     inkscape:cx="18"
     inkscape:cy="18"
     inkscape:window-x="0"
     inkscape:window-y="0"
     inkscape:window-maximized="0"
     inkscape:current-layer="svg2" />
  <path
     d="m 27.865,16.751 c 0,-6.242 -4.411,-9.988 -9.927,-9.988 -5.516,0 -9.835,3.746 -9.835,9.988 0,3.48 -0.103,6.485 3.897,7.89 l 0,2.722 c 0,1.034 0.966,1.872 2,1.872 1.035,0 2,-0.838 2,-1.872 l 0,-1.97 0,1.97 c 0,1.034 0.965,1.872 2,1.872 1.036,0 2,-0.838 2,-1.872 l 0,-1.97 0,1.97 c 0,1.034 0.966,1.872 2,1.872 1.034,0 2,-0.838 2,-1.872 l 0,-2.722 c 4,-1.405 3.865,-4.41 3.865,-7.89 z"
     id="path4"
     inkscape:connector-curvature="0"
     style="fill:#ccd6dd" />
  <circle
     cx="13.629"
     cy="15.503"
     r="3.1210001"
     id="circle6"
     style="fill:#292f33" />
  <path
     d="m 25.488,15.503 c 0,1.724 0,3.121 -3.121,3.121 -3.12,0 -3.12,-1.397 -3.12,-3.121 0,-1.724 1.396,-3.121 3.12,-3.121 1.725,0 3.121,1.397 3.121,3.121 z m -6.301,5.656 c -0.157,-0.382 -0.626,-0.662 -1.189,-0.662 -0.561,0 -1.031,0.28 -1.188,0.662 -0.394,0.11 -0.685,0.469 -0.685,0.898 0,0.517 0.419,0.936 0.937,0.936 0.409,0 0.753,-0.263 0.88,-0.628 0.019,0 0.037,0.004 0.056,0.004 0.019,0 0.037,-0.004 0.057,-0.004 0.128,0.365 0.472,0.628 0.88,0.628 0.517,0 0.936,-0.419 0.936,-0.936 0,-0.429 -0.291,-0.786 -0.684,-0.898 z"
     id="path8"
     inkscape:connector-curvature="0"
     style="fill:#292f33" />
  <path
     d="m 11,27 c 0,-0.367 0.075,-0.713 0.195,-1.038 C 10.211,25.515 9.364,24.88 8.692,23.992 7.585,24.961 6.529,25.868 5.565,26.687 4.985,26.26 4.275,26 3.5,26 1.567,26 0,27.566 0,29.5 0,31.278 1.33,32.729 3.046,32.954 3.271,34.671 4.722,36 6.5,36 8.433,36 10,34.434 10,32.5 10,31.725 9.74,31.015 9.314,30.435 c 0.6,-0.706 1.246,-1.46 1.931,-2.25 C 11.088,27.821 11,27.421 11,27 Z M 27.872,11.518 C 28.756,10.749 29.601,10.023 30.387,9.355 30.956,9.758 31.649,10 32.4,10 34.334,10 35.9,8.433 35.9,6.5 35.9,4.757 34.623,3.323 32.955,3.056 32.735,1.335 31.281,0 29.5,0 27.566,0 26,1.567 26,3.5 c 0,0.775 0.26,1.485 0.687,2.065 -0.594,0.7 -1.233,1.445 -1.911,2.227 1.3,0.871 2.361,2.095 3.096,3.726 z M 3.5,10 C 4.275,10 4.985,9.74 5.565,9.313 6.364,9.992 7.226,10.732 8.129,11.517 8.864,9.886 9.924,8.662 11.225,7.791 10.546,7.01 9.908,6.264 9.313,5.565 9.74,4.985 10,4.275 10,3.5 10,1.567 8.433,0 6.5,0 4.722,0 3.271,1.33 3.046,3.046 1.33,3.271 0,4.722 0,6.5 0,8.433 1.567,10 3.5,10 Z m 28.9,16 c -0.752,0 -1.444,0.242 -2.014,0.645 -0.952,-0.809 -1.99,-1.701 -3.079,-2.653 -0.672,0.889 -1.519,1.523 -2.503,1.971 C 24.925,26.287 25,26.633 25,27 c 0,0.421 -0.088,0.821 -0.245,1.185 0.685,0.79 1.331,1.544 1.931,2.25 C 26.26,31.015 26,31.725 26,32.5 c 0,1.934 1.566,3.5 3.5,3.5 1.781,0 3.235,-1.334 3.455,-3.056 C 34.623,32.677 35.9,31.243 35.9,29.5 35.9,27.566 34.334,26 32.4,26 Z"
     id="path10"
     inkscape:connector-curvature="0"
     style="fill:#aab8c2" />
</svg>
