<?xml version="1.0" encoding="UTF-8" standalone="no"?>
<svg
   xmlns:dc="http://purl.org/dc/elements/1.1/"
   xmlns:cc="http://creativecommons.org/ns#"
   xmlns:rdf="http://www.w3.org/1999/02/22-rdf-syntax-ns#"
   xmlns:svg="http://www.w3.org/2000/svg"
   xmlns="http://www.w3.org/2000/svg"
   xmlns:sodipodi="http://sodipodi.sourceforge.net/DTD/sodipodi-0.dtd"
   xmlns:inkscape="http://www.inkscape.org/namespaces/inkscape"
   viewBox="0 0 34 34"
   id="svg2"
   version="1.1"
   inkscape:version="0.91 r13725"
   sodipodi:docname="2622.svg"
   width="34"
   height="34">
  <metadata
     id="metadata14">
    <rdf:RDF>
      <cc:Work
         rdf:about="">
        <dc:format>image/svg+xml</dc:format>
        <dc:type
           rdf:resource="http://purl.org/dc/dcmitype/StillImage" />
      </cc:Work>
    </rdf:RDF>
  </metadata>
  <defs
     id="defs12" />
  <sodipodi:namedview
     pagecolor="#ffffff"
     bordercolor="#666666"
     borderopacity="1"
     objecttolerance="10"
     gridtolerance="10"
     guidetolerance="10"
     inkscape:pageopacity="0"
     inkscape:pageshadow="2"
     inkscape:window-width="640"
     inkscape:window-height="480"
     id="namedview10"
     showgrid="false"
     inkscape:zoom="6.5555556"
     inkscape:cx="17"
     inkscape:cy="17"
     inkscape:window-x="0"
     inkscape:window-y="0"
     inkscape:window-maximized="0"
     inkscape:current-layer="svg2" />
  <circle
     cx="17"
     cy="17"
     r="17"
     id="circle4"
     style="fill:#f4900c" />
  <path
     d="m 14.272,20.598 -3.85,6.427 c 0.278,0.183 0.561,0.36 0.854,0.519 C 12.978,28.472 14.929,29 17,29 c 2.078,0 4.033,-0.532 5.739,-1.464 0.293,-0.16 0.576,-0.336 0.854,-0.519 L 19.738,20.59 c -0.763,0.583 -1.704,0.942 -2.738,0.942 -1.029,0 -1.967,-0.356 -2.728,-0.934 z m 0.847,-7.71 -3.854,-6.425 C 10.972,6.623 10.688,6.799 10.411,6.983 7.287,9.045 5.191,12.526 5.026,16.501 5.018,16.667 5,16.831 5,17 c 0,0.169 0.018,0.333 0.025,0.5 l 7.493,0 c -0.018,-0.166 -0.05,-0.329 -0.05,-0.5 0,-1.829 1.09,-3.396 2.651,-4.112 z M 21.532,17 c 0,0.171 -0.032,0.334 -0.05,0.5 l 7.493,0 C 28.982,17.333 29,17.169 29,17 29,16.831 28.982,16.667 28.975,16.5 28.81,12.526 26.715,9.046 23.593,6.984 23.315,6.801 23.032,6.625 22.739,6.464 l -3.85,6.427 c 1.556,0.718 2.643,2.282 2.643,4.109 z"
     id="path6"
     inkscape:connector-curvature="0"
     style="fill:#ffffff" />
  <circle
     cx="17"
     cy="17"
     r="2"
     id="circle8"
     style="fill:#ffffff" />
</svg>
