<?xml version="1.0" encoding="UTF-8" standalone="no"?>
<svg
   xmlns:dc="http://purl.org/dc/elements/1.1/"
   xmlns:cc="http://creativecommons.org/ns#"
   xmlns:rdf="http://www.w3.org/1999/02/22-rdf-syntax-ns#"
   xmlns:svg="http://www.w3.org/2000/svg"
   xmlns="http://www.w3.org/2000/svg"
   xmlns:sodipodi="http://sodipodi.sourceforge.net/DTD/sodipodi-0.dtd"
   xmlns:inkscape="http://www.inkscape.org/namespaces/inkscape"
   viewBox="0 0 36 36"
   id="svg2"
   version="1.1"
   inkscape:version="0.91 r13725"
   sodipodi:docname="262f.svg"
   width="36"
   height="36">
  <metadata
     id="metadata16">
    <rdf:RDF>
      <cc:Work
         rdf:about="">
        <dc:format>image/svg+xml</dc:format>
        <dc:type
           rdf:resource="http://purl.org/dc/dcmitype/StillImage" />
      </cc:Work>
    </rdf:RDF>
  </metadata>
  <defs
     id="defs14" />
  <sodipodi:namedview
     pagecolor="#ffffff"
     bordercolor="#666666"
     borderopacity="1"
     objecttolerance="10"
     gridtolerance="10"
     guidetolerance="10"
     inkscape:pageopacity="0"
     inkscape:pageshadow="2"
     inkscape:window-width="640"
     inkscape:window-height="480"
     id="namedview12"
     showgrid="false"
     inkscape:zoom="6.5555556"
     inkscape:cx="18"
     inkscape:cy="18"
     inkscape:window-x="0"
     inkscape:window-y="0"
     inkscape:window-maximized="0"
     inkscape:current-layer="svg2" />
  <path
     d="m 36,32 c 0,2.209 -1.791,4 -4,4 L 4,36 C 1.791,36 0,34.209 0,32 L 0,4 C 0,1.791 1.791,0 4,0 l 28,0 c 2.209,0 4,1.791 4,4 l 0,28 z"
     id="path4"
     inkscape:connector-curvature="0"
     style="fill:#9266cc" />
  <path
     d="M 18.964,4.033 C 11.251,3.501 4.566,9.322 4.033,17.036 3.5,24.75 9.322,31.435 17.035,31.967 24.749,32.5 31.434,26.678 31.966,18.965 32.499,11.251 26.678,4.566 18.964,4.033 Z M 17.781,30.016 C 14.464,29.956 11.823,27.217 11.884,23.898 11.943,20.583 14.683,17.94 18,18 21.317,18.06 24.056,15.419 24.118,12.103 24.164,9.545 22.594,7.355 20.36,6.446 l 0.151,-0.171 c 5.517,1.174 9.612,6.096 9.506,11.943 -0.122,6.639 -5.597,11.919 -12.236,11.798 z"
     id="path6"
     inkscape:connector-curvature="0"
     style="fill:#ffffff" />
  <circle
     cx="18"
     cy="24"
     r="2.5"
     id="circle8"
     style="fill:#ffffff" />
  <circle
     cx="18"
     cy="12"
     r="2.5"
     id="circle10"
     style="fill:#9266cc" />
</svg>
