<?xml version="1.0" encoding="UTF-8" standalone="no"?>
<svg
   xmlns:dc="http://purl.org/dc/elements/1.1/"
   xmlns:cc="http://creativecommons.org/ns#"
   xmlns:rdf="http://www.w3.org/1999/02/22-rdf-syntax-ns#"
   xmlns:svg="http://www.w3.org/2000/svg"
   xmlns="http://www.w3.org/2000/svg"
   xmlns:sodipodi="http://sodipodi.sourceforge.net/DTD/sodipodi-0.dtd"
   xmlns:inkscape="http://www.inkscape.org/namespaces/inkscape"
   viewBox="0 0 36 36"
   id="svg2"
   version="1.1"
   inkscape:version="0.91 r13725"
   sodipodi:docname="2648.svg"
   width="36"
   height="36">
  <metadata
     id="metadata12">
    <rdf:RDF>
      <cc:Work
         rdf:about="">
        <dc:format>image/svg+xml</dc:format>
        <dc:type
           rdf:resource="http://purl.org/dc/dcmitype/StillImage" />
      </cc:Work>
    </rdf:RDF>
  </metadata>
  <defs
     id="defs10" />
  <sodipodi:namedview
     pagecolor="#ffffff"
     bordercolor="#666666"
     borderopacity="1"
     objecttolerance="10"
     gridtolerance="10"
     guidetolerance="10"
     inkscape:pageopacity="0"
     inkscape:pageshadow="2"
     inkscape:window-width="640"
     inkscape:window-height="480"
     id="namedview8"
     showgrid="false"
     inkscape:zoom="6.5555556"
     inkscape:cx="18"
     inkscape:cy="18"
     inkscape:window-x="0"
     inkscape:window-y="0"
     inkscape:window-maximized="0"
     inkscape:current-layer="svg2" />
  <path
     d="m 36,32 c 0,2.209 -1.791,4 -4,4 L 4,36 C 1.791,36 0,34.209 0,32 L 0,4 C 0,1.791 1.791,0 4,0 l 28,0 c 2.209,0 4,1.791 4,4 l 0,28 z"
     id="path4"
     inkscape:connector-curvature="0"
     style="fill:#9266cc" />
  <path
     d="M 30.069,7.711 C 29.206,6.314 27.747,5.523 26.036,5.523 22.441,5.523 20.354,8.927 19.58,15.881 19.438,17.166 18.542,24.447 18,28 18,28 16.404,17.166 16.261,15.881 15.488,8.927 13.401,5.523 9.806,5.523 c -1.711,0 -3.17,0.79 -4.033,2.188 -0.918,1.485 -1.026,3.478 -0.282,4.966 0.37,0.741 1.274,1.038 2.017,0.668 0.741,-0.371 1.043,-1.273 0.673,-2.014 -0.24,-0.481 -0.527,-2.956 1.66,-2.956 2.196,0 3.197,5.019 3.688,7.791 0.492,2.772 2.47,13.828 2.471,13.834 0.229,0.938 0.857,2 2,2 1.143,0 1.833,-1.021 1.984,-2 0.006,-0.041 1.652,-10.023 2.328,-13.834 0.492,-2.772 1.492,-7.791 3.688,-7.791 2.187,0 1.9,2.475 1.66,2.956 -0.37,0.741 -0.068,1.644 0.673,2.014 0.743,0.371 1.647,0.073 2.017,-0.668 0.745,-1.488 0.637,-3.481 -0.281,-4.966 z"
     id="path6"
     inkscape:connector-curvature="0"
     style="fill:#ffffff" />
</svg>
