<?xml version="1.0" encoding="UTF-8" standalone="no"?>
<svg
   xmlns:dc="http://purl.org/dc/elements/1.1/"
   xmlns:cc="http://creativecommons.org/ns#"
   xmlns:rdf="http://www.w3.org/1999/02/22-rdf-syntax-ns#"
   xmlns:svg="http://www.w3.org/2000/svg"
   xmlns="http://www.w3.org/2000/svg"
   xmlns:sodipodi="http://sodipodi.sourceforge.net/DTD/sodipodi-0.dtd"
   xmlns:inkscape="http://www.inkscape.org/namespaces/inkscape"
   viewBox="0 0 36 36"
   id="svg2"
   version="1.1"
   inkscape:version="0.91 r13725"
   sodipodi:docname="2649.svg"
   width="36"
   height="36">
  <metadata
     id="metadata16">
    <rdf:RDF>
      <cc:Work
         rdf:about="">
        <dc:format>image/svg+xml</dc:format>
        <dc:type
           rdf:resource="http://purl.org/dc/dcmitype/StillImage" />
      </cc:Work>
    </rdf:RDF>
  </metadata>
  <defs
     id="defs14" />
  <sodipodi:namedview
     pagecolor="#ffffff"
     bordercolor="#666666"
     borderopacity="1"
     objecttolerance="10"
     gridtolerance="10"
     guidetolerance="10"
     inkscape:pageopacity="0"
     inkscape:pageshadow="2"
     inkscape:window-width="640"
     inkscape:window-height="480"
     id="namedview12"
     showgrid="false"
     inkscape:zoom="6.5555556"
     inkscape:cx="18"
     inkscape:cy="18"
     inkscape:window-x="0"
     inkscape:window-y="0"
     inkscape:window-maximized="0"
     inkscape:current-layer="svg2" />
  <path
     d="m 36,32 c 0,2.209 -1.791,4 -4,4 L 4,36 C 1.791,36 0,34.209 0,32 L 0,4 C 0,1.791 1.791,0 4,0 l 28,0 c 2.209,0 4,1.791 4,4 l 0,28 z"
     id="path4"
     inkscape:connector-curvature="0"
     style="fill:#9266cc" />
  <g
     id="g6"
     style="fill:#ffffff">
    <path
       d="m 18,29.5 c -4.687,0 -8.5,-3.813 -8.5,-8.5 0,-4.687 3.813,-8.5 8.5,-8.5 4.687,0 8.5,3.813 8.5,8.5 0,4.687 -3.813,8.5 -8.5,8.5 z m 0,-14 c -3.033,0 -5.5,2.467 -5.5,5.5 0,3.032 2.467,5.5 5.5,5.5 3.032,0 5.5,-2.468 5.5,-5.5 0,-3.033 -2.468,-5.5 -5.5,-5.5 z"
       id="path8"
       inkscape:connector-curvature="0" />
    <path
       d="M 18,15.5 C 12.891,15.5 10.42,12.71 9.869,11.993 9.388,11.543 8.053,10.5 7,10.5 5.703,10.5 5.06,11.063 5.033,11.087 4.429,11.63 3.486,11.606 2.927,11.017 2.368,10.427 2.365,9.514 2.94,8.94 3.086,8.792 4.452,7.5 7,7.5 c 2.548,0 4.811,2.189 5.061,2.439 0.07,0.07 0.133,0.146 0.188,0.229 0.057,0.08 1.69,2.332 5.752,2.332 4.083,0 5.736,-2.309 5.752,-2.332 0.055,-0.082 0.117,-0.159 0.188,-0.229 C 24.19,9.689 26.452,7.5 29,7.5 c 2.548,0 3.913,1.292 4.061,1.439 0.586,0.585 0.586,1.536 0,2.121 -0.586,0.586 -1.535,0.586 -2.121,0 -0.002,0 -0.645,-0.561 -1.94,-0.561 -1.052,0 -2.384,1.04 -2.869,1.494 C 25.579,12.711 23.107,15.5 18,15.5 Z"
       id="path10"
       inkscape:connector-curvature="0" />
  </g>
</svg>
