<?xml version="1.0" encoding="UTF-8" standalone="no"?>
<svg
   xmlns:dc="http://purl.org/dc/elements/1.1/"
   xmlns:cc="http://creativecommons.org/ns#"
   xmlns:rdf="http://www.w3.org/1999/02/22-rdf-syntax-ns#"
   xmlns:svg="http://www.w3.org/2000/svg"
   xmlns="http://www.w3.org/2000/svg"
   xmlns:sodipodi="http://sodipodi.sourceforge.net/DTD/sodipodi-0.dtd"
   xmlns:inkscape="http://www.inkscape.org/namespaces/inkscape"
   viewBox="0 0 36 36"
   id="svg2"
   version="1.1"
   inkscape:version="0.91 r13725"
   sodipodi:docname="264b.svg"
   width="36"
   height="36">
  <metadata
     id="metadata14">
    <rdf:RDF>
      <cc:Work
         rdf:about="">
        <dc:format>image/svg+xml</dc:format>
        <dc:type
           rdf:resource="http://purl.org/dc/dcmitype/StillImage" />
      </cc:Work>
    </rdf:RDF>
  </metadata>
  <defs
     id="defs12" />
  <sodipodi:namedview
     pagecolor="#ffffff"
     bordercolor="#666666"
     borderopacity="1"
     objecttolerance="10"
     gridtolerance="10"
     guidetolerance="10"
     inkscape:pageopacity="0"
     inkscape:pageshadow="2"
     inkscape:window-width="640"
     inkscape:window-height="480"
     id="namedview10"
     showgrid="false"
     inkscape:zoom="6.5555556"
     inkscape:cx="18"
     inkscape:cy="18"
     inkscape:window-x="0"
     inkscape:window-y="0"
     inkscape:window-maximized="0"
     inkscape:current-layer="svg2" />
  <path
     d="m 36,32 c 0,2.209 -1.791,4 -4,4 L 4,36 C 1.791,36 0,34.209 0,32 L 0,4 C 0,1.791 1.791,0 4,0 l 28,0 c 2.209,0 4,1.791 4,4 l 0,28 z"
     id="path4"
     inkscape:connector-curvature="0"
     style="fill:#9266cc" />
  <path
     d="M 11,17.279 C 8.187,17.279 5.72,14.812 5.72,12 5.72,8.122 9.499,5.721 13,5.721 c 13.634,0 17.007,6.433 17.145,6.707 0.315,0.632 0.06,1.4 -0.572,1.716 -0.626,0.315 -1.39,0.064 -1.71,-0.559 -0.06,-0.108 -2.674,-4.676 -12.747,-5.247 0.773,0.914 1.164,2.142 1.164,3.663 -0.001,2.538 -2.019,5.278 -5.28,5.278 z M 9.834,9.269 C 8.912,9.922 8.278,10.866 8.278,12 c 0,1.232 1.214,2.721 2.722,2.721 1.627,0 2.721,-1.407 2.721,-2.72 0,-1.056 -0.269,-1.812 -0.799,-2.247 C 11.953,8.96 10.329,9.154 10.313,9.157 10.17,9.185 10,9.203 9.834,9.269 Z m 13.165,21.01 c -13.634,0 -17.007,-6.434 -17.144,-6.707 -0.316,-0.632 -0.06,-1.4 0.572,-1.717 0.627,-0.312 1.391,-0.062 1.71,0.56 0.06,0.108 2.674,4.677 12.746,5.247 C 20.11,26.749 19.72,25.521 19.72,24 c 0,-2.539 2.019,-5.279 5.279,-5.279 2.812,0 5.28,2.467 5.28,5.279 0,3.879 -3.779,6.279 -7.28,6.279 z m 2,-9 c -1.628,0 -2.721,1.407 -2.721,2.721 0,1.056 0.269,1.812 0.799,2.247 0.97,0.794 2.673,0.6 2.688,0.597 0.142,-0.029 0.234,-0.062 0.399,-0.112 0.923,-0.653 1.556,-1.598 1.556,-2.731 0.001,-1.233 -1.213,-2.722 -2.721,-2.722 z"
     id="path6"
     inkscape:connector-curvature="0"
     style="fill:#ffffff" />
  <path
     d="m 14.002,11.99 c 0,-1.68 -1.361,-3.041 -3.041,-3.041 -1.68,0 -3.041,1.361 -3.041,3.041 0,1.68 1.361,3.041 3.041,3.041 1.68,0 3.041,-1.362 3.041,-3.041 z m 14,12 c 0,-1.68 -1.361,-3.041 -3.041,-3.041 -1.68,0 -3.041,1.361 -3.041,3.041 0,1.68 1.361,3.041 3.041,3.041 1.68,0 3.041,-1.361 3.041,-3.041 z"
     id="path8"
     inkscape:connector-curvature="0"
     style="fill:#9266cc" />
</svg>
