<?xml version="1.0" encoding="UTF-8" standalone="no"?>
<svg
   xmlns:dc="http://purl.org/dc/elements/1.1/"
   xmlns:cc="http://creativecommons.org/ns#"
   xmlns:rdf="http://www.w3.org/1999/02/22-rdf-syntax-ns#"
   xmlns:svg="http://www.w3.org/2000/svg"
   xmlns="http://www.w3.org/2000/svg"
   xmlns:sodipodi="http://sodipodi.sourceforge.net/DTD/sodipodi-0.dtd"
   xmlns:inkscape="http://www.inkscape.org/namespaces/inkscape"
   viewBox="0 0 36 36"
   id="svg2"
   version="1.1"
   inkscape:version="0.91 r13725"
   sodipodi:docname="2652.svg"
   width="36"
   height="36">
  <metadata
     id="metadata12">
    <rdf:RDF>
      <cc:Work
         rdf:about="">
        <dc:format>image/svg+xml</dc:format>
        <dc:type
           rdf:resource="http://purl.org/dc/dcmitype/StillImage" />
      </cc:Work>
    </rdf:RDF>
  </metadata>
  <defs
     id="defs10" />
  <sodipodi:namedview
     pagecolor="#ffffff"
     bordercolor="#666666"
     borderopacity="1"
     objecttolerance="10"
     gridtolerance="10"
     guidetolerance="10"
     inkscape:pageopacity="0"
     inkscape:pageshadow="2"
     inkscape:window-width="640"
     inkscape:window-height="480"
     id="namedview8"
     showgrid="false"
     inkscape:zoom="6.5555556"
     inkscape:cx="18"
     inkscape:cy="18"
     inkscape:window-x="0"
     inkscape:window-y="0"
     inkscape:window-maximized="0"
     inkscape:current-layer="svg2" />
  <path
     d="m 36,32 c 0,2.209 -1.791,4 -4,4 L 4,36 C 1.791,36 0,34.209 0,32 L 0,4 C 0,1.791 1.791,0 4,0 l 28,0 c 2.209,0 4,1.791 4,4 l 0,28 z"
     id="path4"
     inkscape:connector-curvature="0"
     style="fill:#9266cc" />
  <path
     d="m 21.5,16.5 c -0.21,0 -0.421,-0.044 -0.62,-0.134 C 20.344,16.123 20,15.588 20,15 l 0,-3.694 -5.512,4.823 c -0.443,0.387 -1.072,0.48 -1.607,0.237 C 12.344,16.123 12,15.588 12,15 l 0,-3.548 -4.977,4.645 C 6.418,16.662 5.468,16.629 4.903,16.024 4.338,15.419 4.371,14.469 4.976,13.904 l 7.5,-7 C 12.913,6.498 13.549,6.387 14.097,6.625 14.646,6.862 15,7.403 15,8 l 0,3.694 5.513,-4.823 C 20.955,6.484 21.584,6.391 22.12,6.634 22.656,6.877 23,7.412 23,8 l 0,3.694 5.513,-4.823 C 28.955,6.484 29.583,6.391 30.12,6.634 30.656,6.877 31,7.412 31,8 l 0,7 c 0,0.829 -0.672,1.5 -1.5,1.5 C 28.672,16.5 28,15.829 28,15 l 0,-3.694 -5.513,4.823 C 22.209,16.373 21.856,16.5 21.5,16.5 Z m 0,13 c -0.21,0 -0.421,-0.044 -0.62,-0.134 C 20.344,29.123 20,28.588 20,28 l 0,-3.694 -5.512,4.823 c -0.443,0.387 -1.072,0.48 -1.607,0.237 C 12.344,29.123 12,28.588 12,28 l 0,-3.548 -4.977,4.645 C 6.418,29.662 5.468,29.629 4.903,29.024 4.338,28.419 4.371,27.469 4.976,26.904 l 7.5,-7 c 0.437,-0.406 1.073,-0.517 1.621,-0.279 C 14.646,19.862 15,20.403 15,21 l 0,3.694 5.513,-4.823 c 0.442,-0.387 1.071,-0.48 1.607,-0.237 C 22.656,19.877 23,20.412 23,21 l 0,3.694 5.513,-4.823 c 0.442,-0.387 1.07,-0.48 1.607,-0.237 C 30.656,19.877 31,20.412 31,21 l 0,7 c 0,0.829 -0.672,1.5 -1.5,1.5 C 28.672,29.5 28,28.829 28,28 l 0,-3.694 -5.513,4.823 C 22.209,29.373 21.856,29.5 21.5,29.5 Z"
     id="path6"
     inkscape:connector-curvature="0"
     style="fill:#ffffff" />
</svg>
