<?xml version="1.0" encoding="UTF-8" standalone="no"?>
<svg
   xmlns:dc="http://purl.org/dc/elements/1.1/"
   xmlns:cc="http://creativecommons.org/ns#"
   xmlns:rdf="http://www.w3.org/1999/02/22-rdf-syntax-ns#"
   xmlns:svg="http://www.w3.org/2000/svg"
   xmlns="http://www.w3.org/2000/svg"
   xmlns:sodipodi="http://sodipodi.sourceforge.net/DTD/sodipodi-0.dtd"
   xmlns:inkscape="http://www.inkscape.org/namespaces/inkscape"
   viewBox="0 0 22 36"
   id="svg2"
   version="1.1"
   inkscape:version="0.91 r13725"
   sodipodi:docname="265f.svg"
   width="22"
   height="36">
  <metadata
     id="metadata12">
    <rdf:RDF>
      <cc:Work
         rdf:about="">
        <dc:format>image/svg+xml</dc:format>
        <dc:type
           rdf:resource="http://purl.org/dc/dcmitype/StillImage" />
      </cc:Work>
    </rdf:RDF>
  </metadata>
  <defs
     id="defs10" />
  <sodipodi:namedview
     pagecolor="#ffffff"
     bordercolor="#666666"
     borderopacity="1"
     objecttolerance="10"
     gridtolerance="10"
     guidetolerance="10"
     inkscape:pageopacity="0"
     inkscape:pageshadow="2"
     inkscape:window-width="640"
     inkscape:window-height="480"
     id="namedview8"
     showgrid="false"
     inkscape:zoom="6.5555556"
     inkscape:cx="11"
     inkscape:cy="18"
     inkscape:window-x="0"
     inkscape:window-y="0"
     inkscape:window-maximized="0"
     inkscape:current-layer="svg2" />
  <path
     d="M 20.819,33.653 C 21.46,32.997 22,32.072 22,30.801 22,27.652 18.355,24.048 17,21 15.667,18 14.896,15.125 16.917,14.312 l 0.17,-0.073 C 17.665,14.021 18,13.769 18,13.5 18,13.04 17.03,12.628 15.506,12.353 17.03,11.069 18,9.149 18,7 18,3.134 14.866,0 11,0 7.134,0 4,3.134 4,7 4,9.149 4.97,11.069 6.494,12.353 4.97,12.628 4,13.04 4,13.5 4,13.769 4.335,14.021 4.914,14.239 4.97,14.263 5.02,14.287 5.083,14.312 7.104,15.125 6.333,18 5,21 3.645,24.048 0,27.652 0,30.801 0,32.072 0.54,32.997 1.181,33.653 0.432,34.058 0,34.515 0,35 c 0,0.351 0.233,0.687 0.639,1 L 21.36,36 C 21.767,35.687 22,35.351 22,35 22,34.515 21.568,34.058 20.819,33.653 Z"
     id="path4"
     inkscape:connector-curvature="0"
     style="fill:#31373d" />
  <path
     d="M 15.001,4.75 C 14.726,4.75 14.461,4.598 14.329,4.335 14.299,4.277 13.463,2.75 11,2.75 8.537,2.75 7.702,4.277 7.667,4.343 7.475,4.707 7.023,4.852 6.659,4.663 6.293,4.475 6.145,4.032 6.329,3.664 6.378,3.566 7.576,1.25 11,1.25 c 3.424,0 4.621,2.316 4.671,2.415 0.186,0.371 0.035,0.821 -0.336,1.006 C 15.228,4.725 15.113,4.75 15.001,4.75 Z M 15,14 C 14.925,14 14.849,13.983 14.776,13.947 14.772,13.946 13.788,13.5 11,13.5 8.211,13.5 7.228,13.946 7.218,13.95 6.971,14.067 6.672,13.963 6.553,13.716 6.434,13.47 6.532,13.175 6.777,13.052 6.89,12.996 7.969,12.5 11,12.5 c 3.03,0 4.11,0.496 4.224,0.553 0.247,0.124 0.347,0.424 0.224,0.671 C 15.359,13.899 15.183,14 15,14 Z M 3,34.5 C 2.746,34.5 2.529,34.308 2.503,34.05 2.476,33.776 2.676,33.53 2.951,33.503 3,33.497 8.01,33 11,33 c 2.99,0 7.999,0.497 8.05,0.503 0.274,0.027 0.476,0.272 0.447,0.547 -0.027,0.274 -0.275,0.479 -0.547,0.447 C 18.9,34.492 13.94,34 11,34 8.059,34 3.1,34.492 3.05,34.497 L 3,34.5 Z"
     id="path6"
     inkscape:connector-curvature="0"
     style="fill:#66757f" />
</svg>
