<?xml version="1.0" encoding="UTF-8" standalone="no"?>
<svg
   xmlns:dc="http://purl.org/dc/elements/1.1/"
   xmlns:cc="http://creativecommons.org/ns#"
   xmlns:rdf="http://www.w3.org/1999/02/22-rdf-syntax-ns#"
   xmlns:svg="http://www.w3.org/2000/svg"
   xmlns="http://www.w3.org/2000/svg"
   xmlns:sodipodi="http://sodipodi.sourceforge.net/DTD/sodipodi-0.dtd"
   xmlns:inkscape="http://www.inkscape.org/namespaces/inkscape"
   viewBox="0 0 35.999626 35.0005"
   id="svg2"
   version="1.1"
   inkscape:version="0.91 r13725"
   sodipodi:docname="2694.svg"
   width="35.999626"
   height="35.0005">
  <metadata
     id="metadata28">
    <rdf:RDF>
      <cc:Work
         rdf:about="">
        <dc:format>image/svg+xml</dc:format>
        <dc:type
           rdf:resource="http://purl.org/dc/dcmitype/StillImage" />
      </cc:Work>
    </rdf:RDF>
  </metadata>
  <defs
     id="defs26" />
  <sodipodi:namedview
     pagecolor="#ffffff"
     bordercolor="#666666"
     borderopacity="1"
     objecttolerance="10"
     gridtolerance="10"
     guidetolerance="10"
     inkscape:pageopacity="0"
     inkscape:pageshadow="2"
     inkscape:window-width="640"
     inkscape:window-height="480"
     id="namedview24"
     showgrid="false"
     inkscape:zoom="6.5555556"
     inkscape:cx="18.000125"
     inkscape:cy="18.0005"
     inkscape:window-x="0"
     inkscape:window-y="0"
     inkscape:window-maximized="0"
     inkscape:current-layer="svg2" />
  <path
     d="m 24.000125,28 5,-5 -22.9999999,-23 -5,0 0,5 z"
     id="path4"
     inkscape:connector-curvature="0"
     style="fill:#ccd6dd" />
  <path
     d="m 1.0001251,0 0,5 22.9999999,23 2.5,-2.5 z"
     id="path6"
     inkscape:connector-curvature="0"
     style="fill:#9aaab4" />
  <path
     d="m 32.143125,33.028 c 0.781,0.781 2.667,-1.104 1.886,-1.886 l -5.186,-6.128 c -0.78,-0.781 -1.837,-0.992 -2.357,-0.472 l -0.943,0.942 c -0.521,0.521 -0.31,1.576 0.472,2.357 l 6.128,5.187 z"
     id="path8"
     inkscape:connector-curvature="0"
     style="fill:#642116" />
  <path
     d="m 22.479125,29.257 c 0.586,0.586 1.536,0.586 2.121,0 l 5.658,-5.656 c 0.586,-0.586 0.585,-1.536 0,-2.122 -0.586,-0.585 -1.536,-0.586 -2.122,0 l -5.657,5.657 c -0.585,0.586 -0.585,1.536 0,2.121 z"
     id="path10"
     inkscape:connector-curvature="0"
     style="fill:#bf6952" />
  <path
     d="m 31.318125,34.561 c 0.585,0.586 1.535,0.586 2.121,0 l 2.121,-2.121 c 0.586,-0.586 0.586,-1.536 0,-2.122 -0.586,-0.585 -1.535,-0.586 -2.121,0 l -2.121,2.122 c -0.586,0.584 -0.586,1.535 0,2.121 z"
     id="path12"
     inkscape:connector-curvature="0"
     style="fill:#fcab40" />
  <path
     d="M 12.000125,28 7.0001251,23 30.000125,0 l 5,0 0,5 z"
     id="path14"
     inkscape:connector-curvature="0"
     style="fill:#ccd6dd" />
  <path
     d="m 12.000125,28 23,-23 0,-5 -25.4999999,25.5 z"
     id="path16"
     inkscape:connector-curvature="0"
     style="fill:#9aaab4" />
  <path
     d="m 3.8571251,33.028 c -0.781,0.781 -2.667,-1.104 -1.886,-1.886 l 5.186,-6.128 c 0.781,-0.781 1.836,-0.992 2.357,-0.472 l 0.9419999,0.942 c 0.521,0.521 0.31,1.576 -0.4709999,2.357 l -6.128,5.187 z"
     id="path18"
     inkscape:connector-curvature="0"
     style="fill:#642116" />
  <path
     d="m 13.521125,29.257 c -0.585,0.586 -1.536,0.586 -2.121,0 L 5.7431251,23.601 c -0.586,-0.586 -0.585,-1.536 0,-2.122 0.586,-0.585 1.536,-0.586 2.122,0 l 5.6569999,5.657 c 0.584,0.586 0.584,1.536 -0.001,2.121 z"
     id="path20"
     inkscape:connector-curvature="0"
     style="fill:#bf6952" />
  <path
     d="m 4.6821251,34.561 c -0.585,0.586 -1.536,0.586 -2.121,0 L 0.43912508,32.44 c -0.586,-0.586 -0.585,-1.536 0,-2.122 0.58500002,-0.585 1.53600002,-0.586 2.12200002,0 l 2.121,2.122 c 0.586,0.584 0.586,1.535 0,2.121 z"
     id="path22"
     inkscape:connector-curvature="0"
     style="fill:#fcab40" />
</svg>
