<?xml version="1.0" encoding="UTF-8" standalone="no"?>
<svg
   xmlns:dc="http://purl.org/dc/elements/1.1/"
   xmlns:cc="http://creativecommons.org/ns#"
   xmlns:rdf="http://www.w3.org/1999/02/22-rdf-syntax-ns#"
   xmlns:svg="http://www.w3.org/2000/svg"
   xmlns="http://www.w3.org/2000/svg"
   xmlns:sodipodi="http://sodipodi.sourceforge.net/DTD/sodipodi-0.dtd"
   xmlns:inkscape="http://www.inkscape.org/namespaces/inkscape"
   viewBox="0 0 36 36"
   id="svg2"
   version="1.1"
   inkscape:version="0.91 r13725"
   sodipodi:docname="2695.svg"
   width="36"
   height="36">
  <metadata
     id="metadata20">
    <rdf:RDF>
      <cc:Work
         rdf:about="">
        <dc:format>image/svg+xml</dc:format>
        <dc:type
           rdf:resource="http://purl.org/dc/dcmitype/StillImage" />
      </cc:Work>
    </rdf:RDF>
  </metadata>
  <defs
     id="defs18" />
  <sodipodi:namedview
     pagecolor="#ffffff"
     bordercolor="#666666"
     borderopacity="1"
     objecttolerance="10"
     gridtolerance="10"
     guidetolerance="10"
     inkscape:pageopacity="0"
     inkscape:pageshadow="2"
     inkscape:window-width="640"
     inkscape:window-height="480"
     id="namedview16"
     showgrid="false"
     inkscape:zoom="6.5555556"
     inkscape:cx="18"
     inkscape:cy="18"
     inkscape:window-x="0"
     inkscape:window-y="0"
     inkscape:window-maximized="0"
     inkscape:current-layer="svg2" />
  <path
     d="m 36,32 c 0,2.209 -1.791,4 -4,4 L 4,36 C 1.791,36 0,34.209 0,32 L 0,4 C 0,1.791 1.791,0 4,0 l 28,0 c 2.209,0 4,1.791 4,4 l 0,28 z"
     id="path4"
     inkscape:connector-curvature="0"
     style="fill:#9266cc" />
  <circle
     cx="18"
     cy="4.5"
     r="2.5"
     id="circle6"
     style="fill:#ffffff" />
  <path
     d="m 17.472,18.27 c 3.113,-0.217 9.593,-0.668 9.593,-3.598 0,-2.993 -6.341,-3.215 -9.049,-3.31 L 17.711,11.351 C 7.397,10.916 9.168,8.448 10.142,8.448 c 0.274,0.246 1.189,0.95 2.71,0.95 0.522,0 1.067,-0.084 1.62,-0.251 C 14.569,9.118 14.637,9.036 14.641,8.942 14.645,8.848 14.586,8.761 14.492,8.723 L 13.031,8.146 15.303,7.697 C 15.383,7.681 15.449,7.63 15.479,7.56 15.509,7.489 15.499,7.409 15.454,7.348 15.402,7.28 14.185,5.545 12.099,5.545 c -2.849,0 -5.141,1.483 -5.141,4.039 0,3.09 7.322,3.957 10.597,3.957 6.272,0 6.59,0.839 6.59,1.007 0,0.885 -2.227,1.418 -6.62,1.585 -4.692,0.178 -7.724,1.501 -7.724,3.371 0,1.762 2.272,2.811 7.598,3.508 2.424,0.317 5.314,0.85 5.314,1.587 -0.001,0.009 -0.255,0.983 -5.231,1.605 -4.649,0.583 -5.246,1.677 -5.246,2.564 0,1.201 1.697,2.022 5.341,2.582 2.779,0.427 3.558,1.417 3.932,1.893 0.158,0.2 0.283,0.359 0.499,0.359 0.02,0 0.07,-0.006 0.089,-0.01 0.207,-0.048 0.321,-0.268 0.306,-0.59 -0.01,-0.239 -0.229,-2.357 -4.521,-3.005 -2.677,-0.404 -2.884,-1.048 -2.884,-1.236 0,-0.094 0.12,-0.58 2.455,-0.907 0.324,-0.024 7.96,-0.626 7.96,-3.32 0,-2.216 -4.462,-3.023 -8.398,-3.733 -1.984,-0.359 -4.453,-0.805 -4.453,-1.273 0.001,-0.418 0.852,-0.976 4.91,-1.258 z"
     id="path8"
     inkscape:connector-curvature="0"
     style="fill:#ffffff" />
  <ellipse
     cx="12.307"
     cy="6.9000001"
     rx="0.75999999"
     ry="0.442"
     id="ellipse10"
     style="fill:#9266cc" />
  <path
     d="m 16,24.606 1,0 0,3.872 -1,0 z m 3,0 1,0 0,3.872 -1,0 z m -3,-9.531 1,0 0,3.872 -1,0 z m 3,0 1,0 0,3.872 -1,0 z"
     id="path12"
     inkscape:connector-curvature="0"
     style="fill:#9266cc" />
  <path
     d="m 17,19.81 2,0.379 0,-8.541 -2,-0.084 0,8.246 z m 2,1.979 -2,-0.369 0,7.457 c 0.538,0.065 1.438,0.277 2,0.418 l 0,-7.506 z M 17,30.335 17,33 c 0,0.553 0.447,1 1,1 0.553,0 1,-0.447 1,-1 l 0,-2.257 C 18.132,30.544 17.578,30.465 17,30.335 Z M 19,10.438 19,5.33 c 0,-0.553 -0.447,-1 -1,-1 -0.553,0 -1,0.447 -1,1 l 0,5.016 2,0.092 z"
     id="path14"
     inkscape:connector-curvature="0"
     style="fill:#ffffff" />
</svg>
