<?xml version="1.0" encoding="UTF-8" standalone="no"?>
<svg
   xmlns:dc="http://purl.org/dc/elements/1.1/"
   xmlns:cc="http://creativecommons.org/ns#"
   xmlns:rdf="http://www.w3.org/1999/02/22-rdf-syntax-ns#"
   xmlns:svg="http://www.w3.org/2000/svg"
   xmlns="http://www.w3.org/2000/svg"
   xmlns:sodipodi="http://sodipodi.sourceforge.net/DTD/sodipodi-0.dtd"
   xmlns:inkscape="http://www.inkscape.org/namespaces/inkscape"
   viewBox="0 0 35.318905 34.118771"
   id="svg2"
   version="1.1"
   inkscape:version="0.91 r13725"
   sodipodi:docname="2697.svg"
   width="35.318905"
   height="34.118771">
  <metadata
     id="metadata26">
    <rdf:RDF>
      <cc:Work
         rdf:about="">
        <dc:format>image/svg+xml</dc:format>
        <dc:type
           rdf:resource="http://purl.org/dc/dcmitype/StillImage" />
      </cc:Work>
    </rdf:RDF>
  </metadata>
  <defs
     id="defs24" />
  <sodipodi:namedview
     pagecolor="#ffffff"
     bordercolor="#666666"
     borderopacity="1"
     objecttolerance="10"
     gridtolerance="10"
     guidetolerance="10"
     inkscape:pageopacity="0"
     inkscape:pageshadow="2"
     inkscape:window-width="640"
     inkscape:window-height="480"
     id="namedview22"
     showgrid="false"
     inkscape:zoom="6.5555556"
     inkscape:cx="17.319664"
     inkscape:cy="17.870772"
     inkscape:window-x="0"
     inkscape:window-y="0"
     inkscape:window-maximized="0"
     inkscape:current-layer="svg2" />
  <path
     d="m 15.319664,32.623 c 0,0.553 -0.448,1 -1,1 -0.552,0 -1,-0.447 -1,-1 l 0,-8.375 c 0,-0.553 0.448,-1 1,-1 0.552,0 1,0.447 1,1 l 0,8.375 z"
     id="path4"
     inkscape:connector-curvature="0"
     style="fill:#67757f" />
  <circle
     cx="14.729664"
     cy="13.873"
     r="13.873"
     id="circle6"
     style="fill:#e1e8ed" />
  <path
     d="m 2.9116642,14.387 c 0.232,6.334 5.427,11.402 11.8179998,11.402 6.391,0 11.586,-5.068 11.818,-11.402 l -23.6359998,0 z"
     id="path8"
     inkscape:connector-curvature="0"
     style="fill:#50a5e6" />
  <path
     d="m 29.319664,22.248 c 0,1.104 -0.896,2 -2,2 l -24.9999998,0 c -1.104,0 -2.00000004,-0.896 -2.00000004,-2 0,-1.104 0.89600004,-2 2.00000004,-2 l 24.9999998,0 c 1.104,0 2,0.896 2,2 z"
     id="path10"
     inkscape:connector-curvature="0"
     style="fill:#67757f" />
  <path
     d="m 1.9416642,33.455 c -0.186,0.521 -0.758,0.791 -1.27800004,0.605 -0.52,-0.186 -0.791,-0.758 -0.605,-1.278 L 3.3756642,23.52 c 0.186,-0.52 0.758,-0.791 1.278,-0.605 0.52,0.186 0.792,0.758 0.605,1.278 l -3.317,9.262 z m 25.7569998,0 c 0.185,0.521 0.758,0.791 1.277,0.605 0.52,-0.186 0.791,-0.758 0.605,-1.278 l -3.359,-9.345 c -0.185,-0.521 -0.758,-0.791 -1.277,-0.606 -0.52,0.186 -0.791,0.758 -0.605,1.278 l 3.359,9.346 z"
     id="path12"
     inkscape:connector-curvature="0"
     style="fill:#67757f" />
  <path
     d="m 18.325664,0.51400014 c 0,0 13.354,4.68199996 14.772,5.13799996 3.725,1.199 2.184,5.2239999 -0.385,4.5819999 -5.083,-1.2709999 -14.387,-4.0679999 -15.415,-4.0679999 -1.028,0 1.028,-5.65199996 1.028,-5.65199996 z"
     id="path14"
     inkscape:connector-curvature="0"
     style="fill:#e1e8ed" />
  <path
     d="m 28.319664,21.248 c 0,0.553 -0.447,1 -1,1 l -24.9999998,0 c -0.552,0 -1,-0.447 -1,-1 0,-0.553 0.448,-1 1,-1 l 24.9999998,0 c 0.553,0 1,0.447 1,1 z"
     id="path16"
     inkscape:connector-curvature="0"
     style="fill:#9aaab4" />
  <ellipse
     cx="14.729664"
     cy="14.387"
     rx="11.818"
     ry="1.6289999"
     id="ellipse18"
     style="fill:#3b94d9" />
  <ellipse
     transform="matrix(0.26950813,-0.96299811,0.96299811,0.26950813,0,0)"
     cx="1.0680764"
     cy="34.350819"
     rx="1.341"
     ry="0.97399998"
     id="ellipse20"
     style="fill:#aab8c2" />
</svg>
