<?xml version="1.0" encoding="UTF-8" standalone="no"?>
<svg
   xmlns:dc="http://purl.org/dc/elements/1.1/"
   xmlns:cc="http://creativecommons.org/ns#"
   xmlns:rdf="http://www.w3.org/1999/02/22-rdf-syntax-ns#"
   xmlns:svg="http://www.w3.org/2000/svg"
   xmlns="http://www.w3.org/2000/svg"
   xmlns:sodipodi="http://sodipodi.sourceforge.net/DTD/sodipodi-0.dtd"
   xmlns:inkscape="http://www.inkscape.org/namespaces/inkscape"
   viewBox="0 0 35.961956 36"
   id="svg2"
   version="1.1"
   inkscape:version="0.91 r13725"
   sodipodi:docname="269c.svg"
   width="35.961956"
   height="36">
  <metadata
     id="metadata16">
    <rdf:RDF>
      <cc:Work
         rdf:about="">
        <dc:format>image/svg+xml</dc:format>
        <dc:type
           rdf:resource="http://purl.org/dc/dcmitype/StillImage" />
      </cc:Work>
    </rdf:RDF>
  </metadata>
  <defs
     id="defs14" />
  <sodipodi:namedview
     pagecolor="#ffffff"
     bordercolor="#666666"
     borderopacity="1"
     objecttolerance="10"
     gridtolerance="10"
     guidetolerance="10"
     inkscape:pageopacity="0"
     inkscape:pageshadow="2"
     inkscape:window-width="640"
     inkscape:window-height="480"
     id="namedview12"
     showgrid="false"
     inkscape:zoom="6.5555556"
     inkscape:cx="17.961979"
     inkscape:cy="18"
     inkscape:window-x="0"
     inkscape:window-y="0"
     inkscape:window-maximized="0"
     inkscape:current-layer="svg2" />
  <path
     d="m 10.543979,18 c 2.075,1.244 2.74,3.559 2.416,6 l 4.837,0 c 0.103,-0.649 0.165,-1.316 0.165,-2 0,-6.075 -5.001,-11.731 -10.2700005,-11.731 -8.47899997,0 -9.866,9.043 -4.567,11.731 -1.059,-5 4.122,-5.975 7.4190005,-4 z m 14.875,0 c -2.075,1.244 -2.74,3.559 -2.416,6 l -4.837,0 c -0.104,-0.649 -0.165,-1.316 -0.165,-2 0,-6.075 5.001,-11.731 10.269,-11.731 8.479,0 9.866,9.043 4.567,11.731 1.061,-5 -4.121,-5.975 -7.418,-4 z m 4.334,8.647 c -0.476,1.367 -1.763,2.353 -3.291,2.353 -1.762,0 -3.205,-1.307 -3.449,-3 l -2.615,0 c -0.271,0.614 -0.436,1.285 -0.436,2 0,2.762 2.238,5 5,5 2.762,0 5,-2.238 5,-5 0,-0.472 -0.086,-0.92 -0.209,-1.353 z M 12.910979,26 c -0.244,1.693 -1.688,3 -3.4490005,3 -1.528,0 -2.814,-0.986 -3.291,-2.353 -0.123,0.433 -0.209,0.881 -0.209,1.353 0,2.762 2.238,5 5.0000005,5 2.762,0 5,-2.238 5,-5 0,-0.715 -0.165,-1.386 -0.436,-2 l -2.615,0 z"
     id="path4"
     inkscape:connector-curvature="0"
     style="fill:#744eaa" />
  <path
     d="m 12.961979,10.227 c 0,-6.276 5,-10.227 5,-10.227 0,0 5,3.951 5,10.227 0,6.276 -2.238,14.773 -5,14.773 -2.762,0 -5,-8.497 -5,-14.773 z"
     id="path6"
     inkscape:connector-curvature="0"
     style="fill:#aa8dd8" />
  <path
     d="m 13.961979,30 c 0,-3.313 2.344,-6 4,-6 1.656,0 4,2.687 4,6 0,3.313 -4,6 -4,6 0,0 -4,-2.687 -4,-6 z"
     id="path8"
     inkscape:connector-curvature="0"
     style="fill:#aa8dd8" />
  <path
     d="m 24.961979,24.5 c 0,1.933 -1.567,3.5 -3.5,3.5 l -7,0 c -1.934,0 -3.5,-1.567 -3.5,-3.5 0,-1.933 1.566,-3.5 3.5,-3.5 l 7,0 c 1.933,0 3.5,1.567 3.5,3.5 z"
     id="path10"
     inkscape:connector-curvature="0"
     style="fill:#9266cc" />
</svg>
