<?xml version="1.0" encoding="UTF-8" standalone="no"?>
<svg
   xmlns:dc="http://purl.org/dc/elements/1.1/"
   xmlns:cc="http://creativecommons.org/ns#"
   xmlns:rdf="http://www.w3.org/1999/02/22-rdf-syntax-ns#"
   xmlns:svg="http://www.w3.org/2000/svg"
   xmlns="http://www.w3.org/2000/svg"
   xmlns:sodipodi="http://sodipodi.sourceforge.net/DTD/sodipodi-0.dtd"
   xmlns:inkscape="http://www.inkscape.org/namespaces/inkscape"
   viewBox="0 0 33 36"
   id="svg2"
   version="1.1"
   inkscape:version="0.91 r13725"
   sodipodi:docname="26b0.svg"
   width="33"
   height="36">
  <metadata
     id="metadata20">
    <rdf:RDF>
      <cc:Work
         rdf:about="">
        <dc:format>image/svg+xml</dc:format>
        <dc:type
           rdf:resource="http://purl.org/dc/dcmitype/StillImage" />
      </cc:Work>
    </rdf:RDF>
  </metadata>
  <defs
     id="defs18" />
  <sodipodi:namedview
     pagecolor="#ffffff"
     bordercolor="#666666"
     borderopacity="1"
     objecttolerance="10"
     gridtolerance="10"
     guidetolerance="10"
     inkscape:pageopacity="0"
     inkscape:pageshadow="2"
     inkscape:window-width="640"
     inkscape:window-height="480"
     id="namedview16"
     showgrid="false"
     inkscape:zoom="6.5555556"
     inkscape:cx="17"
     inkscape:cy="18"
     inkscape:window-x="0"
     inkscape:window-y="0"
     inkscape:window-maximized="0"
     inkscape:current-layer="svg2" />
  <path
     d="M 30,12 28.588,22.235 6.353,36 4,28 Z"
     id="path4"
     inkscape:connector-curvature="0"
     style="fill:#c1694f" />
  <path
     d="m 0,22 0,7.647 6.353,6.353 0,-8 z"
     id="path6"
     inkscape:connector-curvature="0"
     style="fill:#662113" />
  <path
     d="m 33,5 0,7.706 -4.412,9.529 0,-7.235 L 30,9 Z"
     id="path8"
     inkscape:connector-curvature="0"
     style="fill:#a04e3c" />
  <path
     d="M 33,5 28.588,14.824 6.353,28.588 0,22 16.941,2.118 27.529,0 Z"
     id="path10"
     inkscape:connector-curvature="0"
     style="fill:#d99e82" />
  <path
     d="m 11.001,30 c -0.323,0 -0.64,-0.156 -0.833,-0.445 -0.306,-0.46 -0.182,-1.08 0.277,-1.387 l 3,-2 c 0.459,-0.307 1.08,-0.183 1.387,0.277 0.306,0.46 0.182,1.08 -0.277,1.387 l -3,2 C 11.384,29.945 11.191,30 11.001,30 Z m 11,-7 c -0.323,0 -0.641,-0.156 -0.833,-0.445 -0.307,-0.46 -0.183,-1.08 0.277,-1.387 l 3,-2 c 0.461,-0.306 1.08,-0.182 1.387,0.277 0.307,0.46 0.183,1.08 -0.277,1.387 l -3,2 C 22.384,22.945 22.191,23 22.001,23 Z"
     id="path12"
     inkscape:connector-curvature="0"
     style="fill:#ffac33" />
  <path
     d="M 8,25 C 7.742,25 7.486,24.9 7.292,24.707 l -3,-3 C 3.91,21.325 3.9,20.71 4.27,20.316 l 15,-16 c 0.15,-0.16 0.349,-0.266 0.565,-0.302 l 6,-1 c 0.315,-0.054 0.642,0.05 0.871,0.279 l 2,2 C 28.99,5.576 29.077,6 28.929,6.372 l -2,5 c -0.07,0.176 -0.189,0.328 -0.343,0.439 l -18,13 C 8.41,24.938 8.205,25 8,25 Z M 6.392,20.978 8.105,22.691 25.18,10.359 26.826,6.24 25.657,5.07 20.498,5.93 6.392,20.978 Z"
     id="path14"
     inkscape:connector-curvature="0"
     style="fill:#c1694f" />
</svg>
