<?xml version="1.0" encoding="UTF-8" standalone="no"?>
<svg
   xmlns:dc="http://purl.org/dc/elements/1.1/"
   xmlns:cc="http://creativecommons.org/ns#"
   xmlns:rdf="http://www.w3.org/1999/02/22-rdf-syntax-ns#"
   xmlns:svg="http://www.w3.org/2000/svg"
   xmlns="http://www.w3.org/2000/svg"
   xmlns:sodipodi="http://sodipodi.sourceforge.net/DTD/sodipodi-0.dtd"
   xmlns:inkscape="http://www.inkscape.org/namespaces/inkscape"
   viewBox="0 0 36 36"
   id="svg2"
   version="1.1"
   inkscape:version="0.91 r13725"
   sodipodi:docname="26bd.svg"
   width="36"
   height="36">
  <metadata
     id="metadata14">
    <rdf:RDF>
      <cc:Work
         rdf:about="">
        <dc:format>image/svg+xml</dc:format>
        <dc:type
           rdf:resource="http://purl.org/dc/dcmitype/StillImage" />
      </cc:Work>
    </rdf:RDF>
  </metadata>
  <defs
     id="defs12" />
  <sodipodi:namedview
     pagecolor="#ffffff"
     bordercolor="#666666"
     borderopacity="1"
     objecttolerance="10"
     gridtolerance="10"
     guidetolerance="10"
     inkscape:pageopacity="0"
     inkscape:pageshadow="2"
     inkscape:window-width="640"
     inkscape:window-height="480"
     id="namedview10"
     showgrid="false"
     inkscape:zoom="6.5555556"
     inkscape:cx="18"
     inkscape:cy="18"
     inkscape:window-x="0"
     inkscape:window-y="0"
     inkscape:window-maximized="0"
     inkscape:current-layer="svg2" />
  <circle
     cx="18"
     cy="18"
     r="18"
     id="circle4"
     style="fill:#f5f8fa" />
  <path
     d="m 18,11 c -0.552,0 -1,-0.448 -1,-1 l 0,-7 c 0,-0.552 0.448,-1 1,-1 0.552,0 1,0.448 1,1 l 0,7 c 0,0.552 -0.448,1 -1,1 z m -6.583,4.5 c -0.1,0 -0.202,-0.015 -0.302,-0.047 L 3.074,12.911 C 2.547,12.744 2.255,12.183 2.422,11.656 2.588,11.129 3.152,10.838 3.677,11.004 l 8.042,2.542 c 0.527,0.167 0.819,0.729 0.652,1.255 -0.136,0.426 -0.53,0.699 -0.954,0.699 z m 13.625,-0.291 c -0.434,0 -0.833,-0.285 -0.96,-0.722 -0.154,-0.531 0.151,-1.085 0.682,-1.239 l 6.75,-1.958 c 0.531,-0.153 1.085,0.153 1.238,0.682 0.154,0.531 -0.151,1.085 -0.682,1.239 l -6.75,1.958 c -0.092,0.027 -0.186,0.04 -0.278,0.04 z m 2.001,14.958 c -0.306,0 -0.606,-0.14 -0.803,-0.403 l -5.459,-7.333 c -0.33,-0.442 -0.238,-1.069 0.205,-1.399 0.442,-0.331 1.069,-0.238 1.399,0.205 l 5.459,7.333 c 0.33,0.442 0.238,1.069 -0.205,1.399 -0.179,0.134 -0.389,0.198 -0.596,0.198 z M 8.749,30.084 c -0.197,0 -0.395,-0.058 -0.57,-0.179 -0.454,-0.316 -0.565,-0.938 -0.25,-1.392 l 5.125,-7.375 c 0.315,-0.454 0.938,-0.566 1.392,-0.251 0.454,0.315 0.565,0.939 0.25,1.392 l -5.125,7.375 c -0.194,0.281 -0.506,0.43 -0.822,0.43 z M 3.5,27.062 c -0.44,0 -0.844,-0.293 -0.965,-0.738 L 0.347,18.262 c -0.145,-0.533 0.17,-1.082 0.704,-1.227 0.535,-0.141 1.083,0.171 1.227,0.704 l 2.188,8.062 C 4.611,26.334 4.296,26.883 3.762,27.027 3.674,27.052 3.586,27.062 3.5,27.062 Z M 22,34 13,34 c -0.552,0 -1,-0.447 -1,-1 0,-0.553 0.448,-1 1,-1 l 9,0 c 0.553,0 1,0.447 1,1 0,0.553 -0.447,1 -1,1 z m 10.126,-6.875 c -0.079,0 -0.16,-0.009 -0.24,-0.029 -0.536,-0.132 -0.864,-0.674 -0.731,-1.21 l 2.125,-8.625 c 0.133,-0.536 0.679,-0.862 1.21,-0.732 0.536,0.132 0.864,0.674 0.731,1.211 l -2.125,8.625 c -0.113,0.455 -0.521,0.76 -0.97,0.76 z M 30.312,7.688 c -0.17,0 -0.342,-0.043 -0.5,-0.134 L 22.25,3.179 C 21.772,2.902 21.608,2.291 21.886,1.812 22.161,1.334 22.772,1.169 23.252,1.447 l 7.562,4.375 c 0.478,0.277 0.642,0.888 0.364,1.367 -0.185,0.32 -0.521,0.499 -0.866,0.499 z m -24.811,0 C 5.189,7.688 4.883,7.543 4.688,7.271 4.366,6.821 4.468,6.197 4.917,5.875 l 6.188,-4.438 c 0.449,-0.322 1.074,-0.219 1.396,0.229 0.322,0.449 0.219,1.074 -0.229,1.396 L 6.083,7.5 C 5.906,7.626 5.703,7.688 5.501,7.688 Z"
     id="path6"
     inkscape:connector-curvature="0"
     style="fill:#ccd6dd" />
  <path
     d="M 25.493,13.516 18.285,8.433 C 17.937,8.188 17.471,8.19 17.124,8.439 L 9.957,13.606 C 9.614,13.854 9.463,14.29 9.582,14.697 l 2.5,8.583 c 0.124,0.426 0.515,0.72 0.96,0.72 L 22,24 c 0.43,0 0.81,-0.274 0.948,-0.681 l 2.917,-8.667 c 0.141,-0.419 -0.011,-0.881 -0.372,-1.136 z M 1.292,19.542 c 0.058,0 0.117,-0.005 0.175,-0.016 0.294,-0.052 0.55,-0.233 0.697,-0.494 l 3.375,-6 C 5.59,12.941 5.626,12.844 5.647,12.741 L 6.98,6.2 C 7.04,5.906 6.964,5.6 6.774,5.368 6.584,5.135 6.3,5 6,5 L 5.572,5 C 2.145,8.277 0,12.884 0,18 c 0,0.266 0.028,0.525 0.04,0.788 l 0.602,0.514 c 0.182,0.156 0.413,0.24 0.65,0.24 z M 10.617,2.995 c 0.106,0.219 0.313,0.373 0.553,0.412 l 6.375,1.042 c 0.04,0.006 0.081,0.01 0.121,0.01 0.04,0 0.081,-0.003 0.122,-0.01 l 6.084,-1 c 0.2,-0.033 0.38,-0.146 0.495,-0.314 C 24.483,2.967 24.525,2.76 24.485,2.56 L 24.193,1.117 C 22.26,0.407 20.18,0 18,0 15.575,0 13.266,0.486 11.155,1.356 l -0.521,0.95 c -0.117,0.213 -0.123,0.47 -0.017,0.689 z M 31.134,5.719 29.63,5.624 C 29.402,5.611 29.175,5.7 29.021,5.873 28.869,6.046 28.803,6.275 28.846,6.503 l 1.167,6.198 c 0.017,0.086 0.048,0.148 0.093,0.224 1.492,2.504 3.152,5.301 3.381,5.782 0.024,0.084 0.062,0.079 0.114,0.151 0.14,0.195 0.372,0.142 0.612,0.142 l 0.007,0 c 0.198,0 0.323,0.094 1.768,-0.753 C 35.989,18.164 36,18.083 36,18 36,13.247 34.144,8.936 31.134,5.719 Z M 14.541,33.376 c 0.011,-0.199 -0.058,-0.395 -0.191,-0.544 l -4.5,-5 C 9.79,27.766 9.719,27.71 9.639,27.669 3.754,24.6 3.645,24.564 3.573,24.539 3.495,24.514 3.412,24.5 3.331,24.5 c -0.537,0 -0.695,0.065 -1.185,2.024 2.236,4.149 6.053,7.316 10.644,8.703 l 1.5,-1.333 c 0.149,-0.132 0.239,-0.319 0.251,-0.518 z m 17.833,-8.567 c -0.189,-0.08 -0.405,-0.078 -0.592,0.005 l -6.083,2.667 c -0.106,0.046 -0.2,0.116 -0.274,0.205 l -4.25,5.083 c -0.129,0.154 -0.19,0.352 -0.172,0.552 0.02,0.2 0.117,0.384 0.272,0.51 0.683,0.559 1.261,1.03 1.767,1.44 4.437,-1.294 8.154,-4.248 10.454,-8.146 l -0.712,-1.889 c -0.072,-0.193 -0.221,-0.347 -0.41,-0.427 z"
     id="path8"
     inkscape:connector-curvature="0"
     style="fill:#31373d" />
</svg>
