<?xml version="1.0" encoding="UTF-8" standalone="no"?>
<svg
   xmlns:dc="http://purl.org/dc/elements/1.1/"
   xmlns:cc="http://creativecommons.org/ns#"
   xmlns:rdf="http://www.w3.org/1999/02/22-rdf-syntax-ns#"
   xmlns:svg="http://www.w3.org/2000/svg"
   xmlns="http://www.w3.org/2000/svg"
   xmlns:sodipodi="http://sodipodi.sourceforge.net/DTD/sodipodi-0.dtd"
   xmlns:inkscape="http://www.inkscape.org/namespaces/inkscape"
   viewBox="0 0 32.000027 36"
   id="svg2"
   version="1.1"
   inkscape:version="0.91 r13725"
   sodipodi:docname="26c4.svg"
   width="32.000027"
   height="36">
  <metadata
     id="metadata26">
    <rdf:RDF>
      <cc:Work
         rdf:about="">
        <dc:format>image/svg+xml</dc:format>
        <dc:type
           rdf:resource="http://purl.org/dc/dcmitype/StillImage" />
      </cc:Work>
    </rdf:RDF>
  </metadata>
  <defs
     id="defs24" />
  <sodipodi:namedview
     pagecolor="#ffffff"
     bordercolor="#666666"
     borderopacity="1"
     objecttolerance="10"
     gridtolerance="10"
     guidetolerance="10"
     inkscape:pageopacity="0"
     inkscape:pageshadow="2"
     inkscape:window-width="640"
     inkscape:window-height="480"
     id="namedview22"
     showgrid="false"
     inkscape:zoom="6.5555556"
     inkscape:cx="16.00025"
     inkscape:cy="18"
     inkscape:window-x="0"
     inkscape:window-y="0"
     inkscape:window-maximized="0"
     inkscape:current-layer="svg2" />
  <circle
     cx="16.00025"
     cy="26"
     r="10"
     id="circle4"
     style="fill:#e1e8ed" />
  <path
     d="m 10.00025,11 c 0,-3.314 2.686,-6 6,-6 3.313,0 6,2.686 6,6 0,3.314 -2.687,6 -6,6 -3.314,0 -6,-2.686 -6,-6 z"
     id="path6"
     inkscape:connector-curvature="0"
     style="fill:#e1e8ed" />
  <path
     d="m 21.00025,6 c 0,1.104 -0.896,2 -2,2 l -6,0 c -1.104,0 -2,-0.896 -2,-2 l 0,-4 c 0,-1.104 0.896,-2 2,-2 l 6,0 c 1.104,0 2,0.896 2,2 l 0,4 z"
     id="path8"
     inkscape:connector-curvature="0"
     style="fill:#414042" />
  <path
     d="m 23.00025,7 c 0,0.552 -0.447,1 -1,1 l -12,0 c -0.552,0 -1,-0.448 -1,-1 0,-0.552 0.448,-1 1,-1 l 12,0 c 0.553,0 1,0.448 1,1 z"
     id="path10"
     inkscape:connector-curvature="0"
     style="fill:#231f20" />
  <path
     d="m 20.50025,15 -9,0 c -0.829,0 -1.5,0.671 -1.5,1.5 0,0.652 0.419,1.202 1,1.408 l 0,7.092 c 0,0.553 0.448,1 1,1 l 1,0 c 0.552,0 1,-0.447 1,-1 l 0,-7 6.5,0 c 0.828,0 1.5,-0.671 1.5,-1.5 0,-0.829 -0.672,-1.5 -1.5,-1.5 z"
     id="path12"
     inkscape:connector-curvature="0"
     style="fill:#dd2e44" />
  <path
     d="m 17.00025,24 c 0,0.553 -0.447,1 -1,1 -0.552,0 -1,-0.447 -1,-1 0,-0.553 0.448,-1 1,-1 0.553,0 1,0.447 1,1 z m 0,5 c 0,0.553 -0.447,1 -1,1 -0.552,0 -1,-0.447 -1,-1 0,-0.553 0.448,-1 1,-1 0.553,0 1,0.447 1,1 z"
     id="path14"
     inkscape:connector-curvature="0"
     style="fill:#414042" />
  <path
     d="m 17.00025,12 c 0,0.553 -0.447,1 -1,1 -0.552,0 -1,-0.447 -1,-1 0,-0.553 0.448,-1 1,-1 0.553,0 1,0.447 1,1 z"
     id="path16"
     inkscape:connector-curvature="0"
     style="fill:#f4900c" />
  <path
     d="m 14.00025,10 c 0,0.553 -0.448,1 -1,1 -0.552,0 -1,-0.447 -1,-1 0,-0.553 0.448,-1 1,-1 0.552,0 1,0.447 1,1 z m 6,0 c 0,0.553 -0.447,1 -1,1 -0.553,0 -1,-0.447 -1,-1 0,-0.553 0.447,-1 1,-1 0.553,0 1,0.447 1,1 z"
     id="path18"
     inkscape:connector-curvature="0"
     style="fill:#414042" />
  <path
     d="m 8.39425,20.081 -3.452,-1.479 -0.547,-2.866 c -0.104,-0.542 -0.624,-0.897 -1.17,-0.795 -0.542,0.104 -0.898,0.627 -0.795,1.17 l 0.294,1.54 -1.33,-0.57 c -0.508,-0.219 -1.096,0.018 -1.313,0.525 -0.218,0.508 0.018,1.096 0.525,1.313 l 0.743,0.318 -1.056,1.056 c -0.391,0.391 -0.391,1.023 0,1.414 0.195,0.195 0.451,0.293 0.707,0.293 0.256,0 0.512,-0.098 0.707,-0.293 l 1.621,-1.621 4.278,1.833 c 0.128,0.056 0.262,0.081 0.394,0.081 0.388,0 0.757,-0.227 0.919,-0.606 0.218,-0.508 -0.018,-1.095 -0.525,-1.313 z m 22.922,-3.03 -1.465,-0.488 0.855,-0.855 c 0.391,-0.391 0.391,-1.023 0,-1.414 -0.391,-0.391 -1.023,-0.391 -1.414,0 l -0.751,0.751 -0.572,-2.287 c -0.134,-0.535 -0.678,-0.865 -1.212,-0.727 -0.536,0.134 -0.862,0.677 -0.727,1.213 l 0.862,3.45 -3.6,3.6 c -0.391,0.391 -0.391,1.023 0,1.414 0.196,0.194 0.452,0.292 0.708,0.292 0.256,0 0.512,-0.098 0.707,-0.293 l 3.563,-3.563 2.413,0.805 c 0.106,0.035 0.213,0.051 0.317,0.051 0.419,0 0.809,-0.265 0.948,-0.684 0.175,-0.524 -0.108,-1.09 -0.632,-1.265 z"
     id="path20"
     inkscape:connector-curvature="0"
     style="fill:#ffac33" />
</svg>
