<?xml version="1.0" encoding="UTF-8" standalone="no"?>
<svg
   xmlns:dc="http://purl.org/dc/elements/1.1/"
   xmlns:cc="http://creativecommons.org/ns#"
   xmlns:rdf="http://www.w3.org/1999/02/22-rdf-syntax-ns#"
   xmlns:svg="http://www.w3.org/2000/svg"
   xmlns="http://www.w3.org/2000/svg"
   xmlns:sodipodi="http://sodipodi.sourceforge.net/DTD/sodipodi-0.dtd"
   xmlns:inkscape="http://www.inkscape.org/namespaces/inkscape"
   viewBox="0 0 36 36"
   id="svg2"
   version="1.1"
   inkscape:version="0.91 r13725"
   sodipodi:docname="26c5.svg"
   width="36"
   height="36">
  <metadata
     id="metadata14">
    <rdf:RDF>
      <cc:Work
         rdf:about="">
        <dc:format>image/svg+xml</dc:format>
        <dc:type
           rdf:resource="http://purl.org/dc/dcmitype/StillImage" />
      </cc:Work>
    </rdf:RDF>
  </metadata>
  <defs
     id="defs12" />
  <sodipodi:namedview
     pagecolor="#ffffff"
     bordercolor="#666666"
     borderopacity="1"
     objecttolerance="10"
     gridtolerance="10"
     guidetolerance="10"
     inkscape:pageopacity="0"
     inkscape:pageshadow="2"
     inkscape:window-width="640"
     inkscape:window-height="480"
     id="namedview10"
     showgrid="false"
     inkscape:zoom="6.5555556"
     inkscape:cx="18"
     inkscape:cy="18"
     inkscape:window-x="0"
     inkscape:window-y="0"
     inkscape:window-maximized="0"
     inkscape:current-layer="svg2" />
  <path
     d="m 14,2 c 0,0 0,-2 2,-2 2,0 2,2 2,2 l 0,2 c 0,0 0,2 -2,2 -2,0 -2,-2 -2,-2 l 0,-2 z m 16,12 c 0,0 2,0 2,2 0,2 -2,2 -2,2 l -2,0 c 0,0 -2,0 -2,-2 0,-2 2,-2 2,-2 l 2,0 z M 4,14 c 0,0 2,0 2,2 0,2 -2,2 -2,2 l -2,0 c 0,0 -2,0 -2,-2 0,-2 2,-2 2,-2 l 2,0 z M 7.872,6.043 c 0,0 1.414,1.414 0,2.828 -1.414,1.414 -2.828,0 -2.828,0 L 3.629,7.458 c 0,0 -1.414,-1.414 0,-2.829 1.415,-1.414 2.829,0 2.829,0 l 1.414,1.414 z m 19.085,2.828 c 0,0 -1.414,1.414 -2.828,0 -1.414,-1.414 0,-2.828 0,-2.828 l 1.414,-1.414 c 0,0 1.414,-1.414 2.828,0 1.414,1.414 0,2.828 0,2.828 l -1.414,1.414 z"
     id="path4"
     inkscape:connector-curvature="0"
     style="fill:#ffac33" />
  <circle
     cx="16"
     cy="16"
     r="9"
     id="circle6"
     style="fill:#ffac33" />
  <path
     d="m 28,20 c -0.825,0 -1.62,0.125 -2.369,0.357 C 24.744,17.822 22.338,16 19.5,16 16.456,16 13.908,18.096 13.201,20.921 12.447,20.351 11.519,20 10.5,20 8.015,20 6,22.015 6,24.5 6,25.104 6.123,25.678 6.339,26.204 5.91,26.085 5.467,26 5,26 c -2.762,0 -5,2.238 -5,5 0,2.762 2.238,5 5,5 l 23,0 c 4.418,0 8,-3.581 8,-8 0,-4.418 -3.582,-8 -8,-8 z"
     id="path8"
     inkscape:connector-curvature="0"
     style="fill:#e1e8ed" />
</svg>
