<?xml version="1.0" encoding="UTF-8" standalone="no"?>
<svg
   xmlns:dc="http://purl.org/dc/elements/1.1/"
   xmlns:cc="http://creativecommons.org/ns#"
   xmlns:rdf="http://www.w3.org/1999/02/22-rdf-syntax-ns#"
   xmlns:svg="http://www.w3.org/2000/svg"
   xmlns="http://www.w3.org/2000/svg"
   xmlns:sodipodi="http://sodipodi.sourceforge.net/DTD/sodipodi-0.dtd"
   xmlns:inkscape="http://www.inkscape.org/namespaces/inkscape"
   viewBox="0 0 36.000134 36.000443"
   id="svg2"
   version="1.1"
   inkscape:version="0.91 r13725"
   sodipodi:docname="26c8.svg"
   width="36.000134"
   height="36.000443">
  <metadata
     id="metadata14">
    <rdf:RDF>
      <cc:Work
         rdf:about="">
        <dc:format>image/svg+xml</dc:format>
        <dc:type
           rdf:resource="http://purl.org/dc/dcmitype/StillImage" />
      </cc:Work>
    </rdf:RDF>
  </metadata>
  <defs
     id="defs12" />
  <sodipodi:namedview
     pagecolor="#ffffff"
     bordercolor="#666666"
     borderopacity="1"
     objecttolerance="10"
     gridtolerance="10"
     guidetolerance="10"
     inkscape:pageopacity="0"
     inkscape:pageshadow="2"
     inkscape:window-width="640"
     inkscape:window-height="480"
     id="namedview10"
     showgrid="false"
     inkscape:zoom="6.5555556"
     inkscape:cx="18.000132"
     inkscape:cy="18.000444"
     inkscape:window-x="0"
     inkscape:window-y="0"
     inkscape:window-maximized="0"
     inkscape:current-layer="svg2" />
  <path
     d="m 13.917132,36 c -0.091,0 -0.182,-0.029 -0.258,-0.089 -0.157,-0.124 -0.204,-0.341 -0.113,-0.518 l 3.454,-6.393 -5.078,0 c -0.174,0 -0.438,-0.031 -0.562,-0.297 -0.114,-0.243 -0.057,-0.474 0.047,-0.703 l 3.593,-9 c 0.078,-0.067 6.902,0.393 7,0.393 0.09,0 0.182,0.029 0.257,0.089 0.157,0.124 0.204,0.341 0.112,0.519 l -3.817,6 5.032,0 c 0.174,0 0.329,0.108 0.391,0.271 0.06,0.163 0.013,0.347 -0.119,0.461 l -9.666,9.166 c -0.079,0.067 -0.176,0.101 -0.273,0.101 z"
     id="path4"
     inkscape:connector-curvature="0"
     style="fill:#f4900c" />
  <path
     d="m 28.000132,4 c -0.825,0 -1.62,0.125 -2.369,0.357 -0.887,-2.535 -3.293,-4.357 -6.131,-4.357 -3.044,0 -5.592,2.096 -6.299,4.921 -0.754,-0.57 -1.682,-0.921 -2.701,-0.921 -2.4849996,0 -4.4999996,2.015 -4.4999996,4.5 0,0.604 0.123,1.178 0.339,1.704 -0.429,-0.119 -0.872,-0.204 -1.339,-0.204 -2.762,0 -4.99999997778,2.238 -4.99999997778,5 0,2.762 2.23799997778,5 4.99999997778,5 l 22.9999996,0 c 4.418,0 8,-3.581 8,-8 0,-4.418 -3.582,-8 -8,-8 z"
     id="path6"
     inkscape:connector-curvature="0"
     style="fill:#e1e8ed" />
  <path
     d="m 10.999132,24.961 -0.113,-3.421 -2.8699996,1.708 c -0.638,0.345 -1.062,1.024 -1.036,1.799 0.037,1.102 0.966,1.975 2.076,1.953 1.1089996,-0.023 1.9799996,-0.937 1.9429996,-2.039 z m -1.9999996,8 -0.113,-3.421 -2.87,1.708 c -0.638,0.345 -1.062,1.024 -1.036,1.799 0.037,1.102 0.966,1.975 2.076,1.953 1.11,-0.023 1.98,-0.937 1.943,-2.039 z m -4.979,-5.54 -0.113,-3.421 -2.87,1.708 c -0.63799998,0.345 -1.06199998,1.024 -1.03599998,1.799 0.037,1.103 0.966,1.976 2.07599998,1.953 1.11,-0.023 1.98,-0.937 1.943,-2.039 z m 24.9999996,-2.46 -0.113,-3.421 -2.869,1.708 c -0.639,0.345 -1.062,1.024 -1.036,1.799 0.037,1.103 0.966,1.976 2.076,1.953 1.109,-0.023 1.979,-0.937 1.942,-2.039 z m -2,9 -0.113,-3.421 -2.869,1.708 c -0.639,0.345 -1.062,1.024 -1.036,1.799 0.037,1.102 0.966,1.976 2.076,1.953 1.109,-0.023 1.979,-0.937 1.942,-2.039 z m 6,-4 -0.113,-3.421 -2.869,1.708 c -0.639,0.345 -1.062,1.024 -1.036,1.799 0.037,1.103 0.966,1.976 2.076,1.953 1.109,-0.023 1.979,-0.937 1.942,-2.039 z"
     id="path8"
     inkscape:connector-curvature="0"
     style="fill:#5dadec" />
</svg>
