<?xml version="1.0" encoding="UTF-8" standalone="no"?>
<svg
   xmlns:dc="http://purl.org/dc/elements/1.1/"
   xmlns:cc="http://creativecommons.org/ns#"
   xmlns:rdf="http://www.w3.org/1999/02/22-rdf-syntax-ns#"
   xmlns:svg="http://www.w3.org/2000/svg"
   xmlns="http://www.w3.org/2000/svg"
   xmlns:sodipodi="http://sodipodi.sourceforge.net/DTD/sodipodi-0.dtd"
   xmlns:inkscape="http://www.inkscape.org/namespaces/inkscape"
   viewBox="0 0 30 36"
   id="svg2"
   version="1.1"
   inkscape:version="0.91 r13725"
   sodipodi:docname="26d3.svg"
   width="30"
   height="36">
  <metadata
     id="metadata52">
    <rdf:RDF>
      <cc:Work
         rdf:about="">
        <dc:format>image/svg+xml</dc:format>
        <dc:type
           rdf:resource="http://purl.org/dc/dcmitype/StillImage" />
      </cc:Work>
    </rdf:RDF>
  </metadata>
  <defs
     id="defs50" />
  <sodipodi:namedview
     pagecolor="#ffffff"
     bordercolor="#666666"
     borderopacity="1"
     objecttolerance="10"
     gridtolerance="10"
     guidetolerance="10"
     inkscape:pageopacity="0"
     inkscape:pageshadow="2"
     inkscape:window-width="640"
     inkscape:window-height="480"
     id="namedview48"
     showgrid="false"
     inkscape:zoom="6.5555556"
     inkscape:cx="15"
     inkscape:cy="18"
     inkscape:window-x="0"
     inkscape:window-y="0"
     inkscape:window-maximized="0"
     inkscape:current-layer="svg2" />
  <path
     d="m 30,34 0,2 -3.021,0 0,-2 c 0,-1.657 -1.353,-3 -3.021,-3 l 0,-3 C 27.295,28 30,30.687 30,34 Z"
     id="path4"
     inkscape:connector-curvature="0"
     style="fill:#c6d5db" />
  <path
     d="m 24.545,30 c -0.172,0 -0.337,0.026 -0.503,0.051 l 0,0.957 c 1.628,0.045 2.937,1.363 2.937,2.992 l 0,2 1.091,0 0,-2.5 C 28.07,31.567 26.492,30 24.545,30 Z M 18,34 l 0,2 3.021,0 0,-2 c 0,-1.657 1.353,-3 3.021,-3 l 0,-3 C 20.705,28 18,30.687 18,34 Z"
     id="path6"
     inkscape:connector-curvature="0"
     style="fill:#e1e8ed" />
  <path
     d="m 23.538,30 c 0.172,0 0.337,0.026 0.503,0.051 l 0,0.957 C 22.413,31.053 21.104,32.371 21.104,34 l 0,2 -1.091,0 0,-2.5 C 20.014,31.567 21.592,30 23.538,30 Z M 30,2 l 0,-2 -3.021,0 0,2 c 0,1.657 -1.353,3 -3.021,3 l 0,3 C 27.294,8 30,5.313 30,2 Z"
     id="path8"
     inkscape:connector-curvature="0"
     style="fill:#c6d5db" />
  <path
     d="M 24.545,6 C 24.373,6 24.208,5.974 24.042,5.949 l 0,-0.957 C 25.67,4.946 26.979,3.629 26.979,2 l 0,-2 1.091,0 0,2.5 C 28.07,4.433 26.491,6 24.545,6 Z M 18,2 l 0,-2 3.021,0 0,2 c 0,1.657 1.353,3 3.021,3 l 0,3 C 20.705,8 18,5.313 18,2 Z"
     id="path10"
     inkscape:connector-curvature="0"
     style="fill:#e1e8ed" />
  <path
     d="m 23.538,6 c 0.172,0 0.337,-0.026 0.503,-0.051 l 0,-0.957 C 22.414,4.946 21.105,3.629 21.105,2 l 0,-2 -1.091,0 0,2.5 c 0,1.933 1.578,3.5 3.524,3.5 z m 0.42,4 0,3 c 1.668,0 3.021,1.343 3.021,3 l 0,4 c 0,1.657 -1.353,3 -3.021,3 l 0,3 C 27.295,26 30,23.313 30,20 l 0,-4 c 0,-3.313 -2.705,-6 -6.042,-6 z"
     id="path12"
     inkscape:connector-curvature="0"
     style="fill:#c6d5db" />
  <path
     d="m 24.545,12 c -0.172,0 -0.337,0.026 -0.504,0.051 l 0,0.957 c 1.628,0.045 2.937,1.363 2.937,2.992 l 0,4 c 0,1.629 -1.309,2.946 -2.937,2.992 l 0,0.957 c 0.167,0.025 0.332,0.051 0.504,0.051 1.946,0 3.524,-1.567 3.524,-3.5 l 0,-5 C 28.07,13.567 26.492,12 24.545,12 Z"
     id="path14"
     inkscape:connector-curvature="0"
     style="fill:#e1e8ed" />
  <path
     d="m 21.021,16 c 0,-1.657 1.353,-3 3.021,-3 l 0,-3 C 20.705,10 18,12.687 18,16 l 0,4 c 0,3.313 2.705,6 6.042,6 l 0,-3 c -1.668,0 -3.021,-1.343 -3.021,-3 l 0,-4 z"
     id="path16"
     inkscape:connector-curvature="0"
     style="fill:#e1e8ed" />
  <path
     d="m 23.538,12 c -1.946,0 -3.524,1.567 -3.524,3.5 l 0,5 c 0,1.933 1.578,3.5 3.524,3.5 0.172,0 0.337,-0.026 0.503,-0.051 l 0,-0.957 C 22.413,22.947 21.104,21.629 21.104,20 l 0,-4 c 0,-1.629 1.309,-2.946 2.937,-2.992 l 0,-0.957 C 23.876,12.026 23.711,12 23.538,12 Z m -17.58,7 0,3 c 1.668,0 3.021,1.343 3.021,3 l 0,4 c 0,1.657 -1.353,3 -3.021,3 l 0,3 C 9.295,35 12,32.313 12,29 l 0,-4 C 12,21.687 9.295,19 5.958,19 Z"
     id="path18"
     inkscape:connector-curvature="0"
     style="fill:#c6d5db" />
  <path
     d="m 6.545,21 c -0.172,0 -0.337,0.026 -0.504,0.051 l 0,0.957 C 7.669,22.053 8.978,23.371 8.978,25 l 0,4 c 0,1.629 -1.309,2.946 -2.937,2.992 l 0,0.957 C 6.208,32.974 6.373,33 6.545,33 c 1.946,0 3.524,-1.567 3.524,-3.5 l 0,-5 C 10.07,22.567 8.492,21 6.545,21 Z"
     id="path20"
     inkscape:connector-curvature="0"
     style="fill:#e1e8ed" />
  <path
     d="m 3.021,25 c 0,-1.657 1.353,-3 3.021,-3 l 0,-3 C 2.705,19 0,21.687 0,25 l 0,4 c 0,3.313 2.705,6 6.042,6 l 0,-3 C 4.374,32 3.021,30.657 3.021,29 l 0,-4 z"
     id="path22"
     inkscape:connector-curvature="0"
     style="fill:#e1e8ed" />
  <path
     d="m 5.538,21 c -1.946,0 -3.524,1.567 -3.524,3.5 l 0,5 c 0,1.933 1.578,3.5 3.524,3.5 0.172,0 0.337,-0.026 0.503,-0.051 l 0,-0.957 C 4.414,31.946 3.105,30.629 3.105,29 l 0,-4 c 0,-1.629 1.309,-2.946 2.937,-2.992 l 0,-0.957 C 5.876,21.026 5.711,21 5.538,21 Z m 0.42,-20 0,3 c 1.668,0 3.021,1.343 3.021,3 l 0,4 c 0,1.657 -1.353,3 -3.021,3 l 0,3 C 9.295,17 12,14.313 12,11 L 12,7 C 12,3.687 9.295,1 5.958,1 Z"
     id="path24"
     inkscape:connector-curvature="0"
     style="fill:#c6d5db" />
  <path
     d="M 6.545,3 C 6.373,3 6.208,3.026 6.042,3.051 l 0,0.957 C 7.67,4.054 8.979,5.371 8.979,7 l 0,4 c 0,1.629 -1.309,2.946 -2.937,2.992 l 0,0.957 C 6.208,14.974 6.373,15 6.545,15 c 1.946,0 3.524,-1.567 3.524,-3.5 l 0,-5 C 10.07,4.567 8.492,3 6.545,3 Z M 3.021,7 c 0,-1.657 1.353,-3 3.021,-3 l 0,-3 C 2.705,1 0,3.687 0,7 l 0,4 c 0,3.313 2.705,6 6.042,6 l 0,-3 C 4.374,14 3.021,12.657 3.021,11 l 0,-4 z"
     id="path26"
     inkscape:connector-curvature="0"
     style="fill:#e1e8ed" />
  <path
     d="M 5.538,3 C 3.592,3 2.014,4.567 2.014,6.5 l 0,5 c 0,1.933 1.578,3.5 3.524,3.5 0.172,0 0.337,-0.026 0.503,-0.051 l 0,-0.957 C 4.414,13.946 3.105,12.629 3.105,11 l 0,-4 c 0,-1.629 1.309,-2.946 2.937,-2.992 l 0,-0.957 C 5.876,3.026 5.711,3 5.538,3 Z M 26,33 c 0,1.104 -0.896,2 -2,2 -1.104,0 -2,-0.896 -2,-2 l 0,-12 c 0,-1.104 0.896,-2 2,-2 1.104,0 2,0.896 2,2 l 0,12 z"
     id="path28"
     inkscape:connector-curvature="0"
     style="fill:#c6d5db" />
  <path
     d="m 22,21 0,12 c 0,1.104 0.896,2 2,2 l 0,-16 c -1.104,0 -2,0.896 -2,2 z"
     id="path30"
     inkscape:connector-curvature="0"
     style="fill:#edf1f4" />
  <path
     d="m 26,15 c 0,1.104 -0.896,2 -2,2 -1.104,0 -2,-0.896 -2,-2 L 22,3 c 0,-1.105 0.896,-2 2,-2 1.104,0 2,0.895 2,2 l 0,12 z"
     id="path32"
     inkscape:connector-curvature="0"
     style="fill:#c6d5db" />
  <path
     d="m 22,3 0,12 c 0,1.104 0.896,2 2,2 L 24,1 c -1.104,0 -2,0.896 -2,2 z"
     id="path34"
     inkscape:connector-curvature="0"
     style="fill:#edf1f4" />
  <path
     d="m 8,36 -4,0 0,-6 c 0,-1.104 0.896,-2 2,-2 1.104,0 2,0.896 2,2 l 0,6 z"
     id="path36"
     inkscape:connector-curvature="0"
     style="fill:#c6d5db" />
  <path
     d="m 6,28 c -1.104,0 -2,0.896 -2,2 l 0,6 2,0 0,-8 z"
     id="path38"
     inkscape:connector-curvature="0"
     style="fill:#edf1f4" />
  <path
     d="M 8,24 C 8,25.104 7.104,26 6,26 4.896,26 4,25.104 4,24 L 4,12 c 0,-1.104 0.896,-2 2,-2 1.104,0 2,0.896 2,2 l 0,12 z"
     id="path40"
     inkscape:connector-curvature="0"
     style="fill:#c6d5db" />
  <path
     d="m 4,12 0,12 c 0,1.104 0.896,2 2,2 L 6,10 c -1.104,0 -2,0.896 -2,2 z"
     id="path42"
     inkscape:connector-curvature="0"
     style="fill:#edf1f4" />
  <path
     d="M 8,0 4,0 4,6 C 4,7.104 4.896,8 6,8 7.104,8 8,7.104 8,6 L 8,0 Z"
     id="path44"
     inkscape:connector-curvature="0"
     style="fill:#c6d5db" />
  <path
     d="M 6,8 C 4.896,8 4,7.104 4,6 L 4,0 6,0 6,8 Z"
     id="path46"
     inkscape:connector-curvature="0"
     style="fill:#edf1f4" />
</svg>
