<?xml version="1.0" encoding="UTF-8" standalone="no"?>
<svg
   xmlns:dc="http://purl.org/dc/elements/1.1/"
   xmlns:cc="http://creativecommons.org/ns#"
   xmlns:rdf="http://www.w3.org/1999/02/22-rdf-syntax-ns#"
   xmlns:svg="http://www.w3.org/2000/svg"
   xmlns="http://www.w3.org/2000/svg"
   xmlns:sodipodi="http://sodipodi.sourceforge.net/DTD/sodipodi-0.dtd"
   xmlns:inkscape="http://www.inkscape.org/namespaces/inkscape"
   viewBox="0 0 36 35"
   id="svg2"
   version="1.1"
   inkscape:version="0.91 r13725"
   sodipodi:docname="26e9.svg"
   width="36"
   height="35">
  <metadata
     id="metadata18">
    <rdf:RDF>
      <cc:Work
         rdf:about="">
        <dc:format>image/svg+xml</dc:format>
        <dc:type
           rdf:resource="http://purl.org/dc/dcmitype/StillImage" />
      </cc:Work>
    </rdf:RDF>
  </metadata>
  <defs
     id="defs16" />
  <sodipodi:namedview
     pagecolor="#ffffff"
     bordercolor="#666666"
     borderopacity="1"
     objecttolerance="10"
     gridtolerance="10"
     guidetolerance="10"
     inkscape:pageopacity="0"
     inkscape:pageshadow="2"
     inkscape:window-width="640"
     inkscape:window-height="480"
     id="namedview14"
     showgrid="false"
     inkscape:zoom="6.5555556"
     inkscape:cx="18"
     inkscape:cy="18"
     inkscape:window-x="0"
     inkscape:window-y="0"
     inkscape:window-maximized="0"
     inkscape:current-layer="svg2" />
  <path
     d="M 9,8 C 9,6.896 8.104,6 7,6 5.896,6 5,6.896 5,8 l 0,24 c 0,1.104 0.896,2 2,2 1.104,0 2,-0.896 2,-2 L 9,8 Z M 31,8 C 31,6.896 30.104,6 29,6 27.896,6 27,6.896 27,8 l 0,24 c 0,1.104 0.896,2 2,2 1.104,0 2,-0.896 2,-2 L 31,8 Z"
     id="path4"
     inkscape:connector-curvature="0"
     style="fill:#dd2e44" />
  <path
     d="m 36,15 c 0,1.104 -0.896,2 -2,2 L 2,17 C 0.896,17 0,16.104 0,15 0,13.896 0.896,13 2,13 l 32,0 c 1.104,0 2,0.896 2,2 z M 35,6 C 35,7.104 34.219,7.719 33,8 33,8 30,9 18,9 6,9 3,8 3,8 1.734,7.734 1,7.104 1,6 1,4.896 1.896,4 3,4 l 30,0 c 1.104,0 2,0.896 2,2 z"
     id="path6"
     inkscape:connector-curvature="0"
     style="fill:#dd2e44" />
  <path
     d="m 35.906,3 c 0,1.104 -0.659,1.797 -1.908,2 0,0 -4,1 -15.999,1 C 6.001,6 2.002,5 2.002,5 0.831,4.812 0.109,4.114 0.109,3.01 0.109,1.905 -0.102,0 1.002,0 c 0,0 3.999,2 16.997,2 12.998,0 16.998,-2 16.998,-2 1.105,0 0.909,1.895 0.909,3 z"
     id="path8"
     inkscape:connector-curvature="0"
     style="fill:#292f33" />
  <path
     d="m 20,14 c 0,1.104 -0.896,2 -2,2 -1.104,0 -2,-0.896 -2,-2 l 0,-6 c 0,-1.104 0.896,-2 2,-2 1.104,0 2,0.896 2,2 l 0,6 z"
     id="path10"
     inkscape:connector-curvature="0"
     style="fill:#dd2e44" />
  <path
     d="m 11,33 c 0,1.104 -0.896,2 -2,2 L 5,35 C 3.896,35 3,34.104 3,33 3,31.896 3.896,31 5,31 l 4,0 c 1.104,0 2,0.896 2,2 z m 22,0 c 0,1.104 -0.896,2 -2,2 l -4,0 c -1.104,0 -2,-0.896 -2,-2 0,-1.104 0.896,-2 2,-2 l 4,0 c 1.104,0 2,0.896 2,2 z"
     id="path12"
     inkscape:connector-curvature="0"
     style="fill:#292f33" />
</svg>
