<?xml version="1.0" encoding="UTF-8" standalone="no"?>
<svg
   xmlns:dc="http://purl.org/dc/elements/1.1/"
   xmlns:cc="http://creativecommons.org/ns#"
   xmlns:rdf="http://www.w3.org/1999/02/22-rdf-syntax-ns#"
   xmlns:svg="http://www.w3.org/2000/svg"
   xmlns="http://www.w3.org/2000/svg"
   xmlns:sodipodi="http://sodipodi.sourceforge.net/DTD/sodipodi-0.dtd"
   xmlns:inkscape="http://www.inkscape.org/namespaces/inkscape"
   viewBox="0 0 30.000336 36"
   id="svg2"
   version="1.1"
   inkscape:version="0.91 r13725"
   sodipodi:docname="26ea.svg"
   width="30.000336"
   height="36">
  <metadata
     id="metadata20">
    <rdf:RDF>
      <cc:Work
         rdf:about="">
        <dc:format>image/svg+xml</dc:format>
        <dc:type
           rdf:resource="http://purl.org/dc/dcmitype/StillImage" />
      </cc:Work>
    </rdf:RDF>
  </metadata>
  <defs
     id="defs18" />
  <sodipodi:namedview
     pagecolor="#ffffff"
     bordercolor="#666666"
     borderopacity="1"
     objecttolerance="10"
     gridtolerance="10"
     guidetolerance="10"
     inkscape:pageopacity="0"
     inkscape:pageshadow="2"
     inkscape:window-width="640"
     inkscape:window-height="480"
     id="namedview16"
     showgrid="false"
     inkscape:zoom="6.5555556"
     inkscape:cx="15.000838"
     inkscape:cy="18"
     inkscape:window-x="0"
     inkscape:window-y="0"
     inkscape:window-maximized="0"
     inkscape:current-layer="svg2" />
  <path
     d="m 17.000838,2 -1,0 0,-1 c 0,-0.552 -0.447,-1 -1,-1 -0.553,0 -1,0.448 -1,1 l 0,1 -1,0 c -0.553,0 -1,0.448 -1,1 0,0.552 0.447,1 1,1 l 1,0 0,6 c 0,0.552 0.447,1 1,1 0.553,0 1,-0.448 1,-1 l 0,-6 1,0 c 0.553,0 1,-0.448 1,-1 0,-0.552 -0.447,-1 -1,-1 z"
     id="path4"
     inkscape:connector-curvature="0"
     style="fill:#bcbec0" />
  <path
     d="m 15.000838,9 -5.1429998,4 0.1429998,0 0,9 10,0 0,-9 0.143,0 z"
     id="path6"
     inkscape:connector-curvature="0"
     style="fill:#ffd983" />
  <path
     d="m 16.999838,15 c 0,-1.104 -0.896,-2 -1.999,-2 -1.105,0 -2,0.896 -2,2 l 0,7 4,0 -0.001,-7 z"
     id="path8"
     inkscape:connector-curvature="0"
     style="fill:#662113" />
  <path
     d="m 14.999838,18 -13.9989998,8 0,9 c 0,0.553 0.448,1 1,1 l 25.9999998,0 c 0.553,0 1,-0.447 1,-1 l 0,-9 -14.001,-8 z"
     id="path10"
     inkscape:connector-curvature="0"
     style="fill:#ffd983" />
  <path
     d="m 28.998838,27 c -0.168,0 -0.339,-0.042 -0.495,-0.132 l -13.504,-7.717 -13.5039998,7.717 c -0.478,0.276 -1.08999996,0.107 -1.36399996,-0.372 -0.274,-0.479 -0.107,-1.09 0.372,-1.364 l 13.99999976,-8 c 0.308,-0.176 0.685,-0.176 0.992,0 l 14,8 c 0.48,0.274 0.647,0.885 0.372,1.364 -0.184,0.323 -0.521,0.504 -0.869,0.504 z m -8.999,-13 c -0.219,0 -0.439,-0.072 -0.624,-0.219 l -4.376,-3.5 -4.374,3.5 c -0.432,0.343 -1.0609998,0.275 -1.4059998,-0.156 -0.345,-0.432 -0.275,-1.061 0.156,-1.406 l 4.9989998,-4 c 0.365,-0.292 0.884,-0.292 1.25,0 l 5.001,4 c 0.431,0.345 0.501,0.974 0.156,1.405 -0.198,0.247 -0.488,0.376 -0.782,0.376 z"
     id="path12"
     inkscape:connector-curvature="0"
     style="fill:#dd2e44" />
  <path
     d="m 9.9998382,31 c 0,-1.104 -0.895,-2 -1.999,-2 -1.105,0 -2,0.896 -2,2 l 0,5 3.9999998,0 0,-5 -9.998e-4,0 z m 6.9999998,-2 c 0,-1.104 -0.896,-2 -1.999,-2 -1.105,0 -2,0.896 -2,2 l 0,7 4,0 -0.001,-7 z m 7,2 c 0,-1.104 -0.896,-2 -1.999,-2 -1.105,0 -2,0.896 -2,2 l 0,5 4,0 -0.001,-5 z"
     id="path14"
     inkscape:connector-curvature="0"
     style="fill:#662113" />
</svg>
