<?xml version="1.0" encoding="UTF-8" standalone="no"?>
<svg
   xmlns:dc="http://purl.org/dc/elements/1.1/"
   xmlns:cc="http://creativecommons.org/ns#"
   xmlns:rdf="http://www.w3.org/1999/02/22-rdf-syntax-ns#"
   xmlns:svg="http://www.w3.org/2000/svg"
   xmlns="http://www.w3.org/2000/svg"
   xmlns:sodipodi="http://sodipodi.sourceforge.net/DTD/sodipodi-0.dtd"
   xmlns:inkscape="http://www.inkscape.org/namespaces/inkscape"
   viewBox="0 0 34 36"
   id="svg2"
   version="1.1"
   inkscape:version="0.91 r13725"
   sodipodi:docname="26f2.svg"
   width="34"
   height="36">
  <metadata
     id="metadata48">
    <rdf:RDF>
      <cc:Work
         rdf:about="">
        <dc:format>image/svg+xml</dc:format>
        <dc:type
           rdf:resource="http://purl.org/dc/dcmitype/StillImage" />
      </cc:Work>
    </rdf:RDF>
  </metadata>
  <defs
     id="defs46" />
  <sodipodi:namedview
     pagecolor="#ffffff"
     bordercolor="#666666"
     borderopacity="1"
     objecttolerance="10"
     gridtolerance="10"
     guidetolerance="10"
     inkscape:pageopacity="0"
     inkscape:pageshadow="2"
     inkscape:window-width="640"
     inkscape:window-height="480"
     id="namedview44"
     showgrid="false"
     inkscape:zoom="6.5555556"
     inkscape:cx="17"
     inkscape:cy="18"
     inkscape:window-x="0"
     inkscape:window-y="0"
     inkscape:window-maximized="0"
     inkscape:current-layer="svg2" />
  <path
     d="m 0,22.923 0,6.538 C 0,33.073 7.611,36 17,36 c 9.389,0 17,-2.927 17,-6.538 l 0,-6.538 -34,0 z"
     id="path4"
     inkscape:connector-curvature="0"
     style="fill:#99aab5" />
  <ellipse
     cx="17"
     cy="22.923"
     rx="17"
     ry="6.5380001"
     id="ellipse6"
     style="fill:#e1e8ed" />
  <path
     d="m 17,20.308 c 6.7,0 12.314,1.668 13.913,3.923 0.297,-0.419 0.472,-0.855 0.472,-1.308 0,-2.889 -6.44,-5.231 -14.385,-5.231 -7.945,0 -14.385,2.342 -14.385,5.231 0,0.452 0.175,0.889 0.472,1.308 C 4.686,21.976 10.3,20.308 17,20.308 Z"
     id="path8"
     inkscape:connector-curvature="0"
     style="fill:#aab8c2" />
  <ellipse
     cx="17"
     cy="24.231001"
     rx="13.913"
     ry="3.9230001"
     id="ellipse10"
     style="fill:#3b88c3" />
  <path
     d="m 17,22.128 c -4.497,0 -9.625,1.285 -9.625,2.103 0,0.818 5.129,2.102 9.625,2.102 4.496,0 9.625,-1.284 9.625,-2.102 0,-0.818 -5.128,-2.103 -9.625,-2.103 z"
     id="path12"
     inkscape:connector-curvature="0"
     style="fill:#50a5e6" />
  <path
     d="M 14,22.615 14,24 c 0,0.553 1.343,1 3,1 1.657,0 3,-0.447 3,-1 l 0,-1.385 -6,0 z"
     id="path14"
     inkscape:connector-curvature="0"
     style="fill:#e1e8ed" />
  <ellipse
     cx="17"
     cy="22.615"
     rx="3"
     ry="1"
     id="ellipse16"
     style="fill:#aab8c2" />
  <path
     d="m 8,15.786 c -0.552,0 -1,-0.448 -1,-1 L 7,13.5 C 7,10.467 9.467,8 12.5,8 c 3.033,0 5.5,2.467 5.5,5.5 0,0.552 -0.447,1 -1,1 -0.552,0 -1,-0.448 -1,-1 C 16,11.57 14.43,10 12.5,10 10.57,10 9,11.57 9,13.5 l 0,1.286 c 0,0.552 -0.448,1 -1,1 z"
     id="path18"
     inkscape:connector-curvature="0"
     style="fill:#1c6399" />
  <path
     d="m 25,18 c -0.553,0 -1,-0.448 -1,-1 l 0,-1.143 c 0,-1.654 -1.346,-3 -3,-3 -1.654,0 -3,1.346 -3,3 0,0.552 -0.447,1 -1,1 -0.552,0 -1,-0.448 -1,-1 0,-2.757 2.243,-5 5,-5 2.757,0 5,2.243 5,5 L 26,17 c 0,0.552 -0.447,1 -1,1 z"
     id="path20"
     inkscape:connector-curvature="0"
     style="fill:#88c9f9" />
  <path
     d="m 31,11.125 c -0.553,0 -1,-0.448 -1,-1 0,-3.309 -2.691,-6 -6,-6 -3.309,0 -6,2.691 -6,6 0,0.552 -0.447,1 -1,1 -0.552,0 -1,-0.448 -1,-1 0,-4.411 3.589,-8 8,-8 4.411,0 8,3.589 8,8 0,0.552 -0.447,1 -1,1 z"
     id="path22"
     inkscape:connector-curvature="0"
     style="fill:#1c6399" />
  <path
     d="m 16,22.659 2,0 L 18,8 C 18,3.589 14.411,0 10,0 5.589,0 2,3.589 2,8 2,8.552 2.448,9 3,9 3.552,9 4,8.552 4,8 4,4.691 6.691,2 10,2 c 3.309,0 6,2.691 6,6 l 0,14.659 z"
     id="path24"
     inkscape:connector-curvature="0"
     style="fill:#3b94d9" />
  <circle
     cx="31"
     cy="14"
     r="1"
     id="circle26"
     style="fill:#1c6399" />
  <circle
     cx="25"
     cy="21"
     r="1"
     id="circle28"
     style="fill:#bbddf5" />
  <circle
     cx="32"
     cy="2"
     r="1"
     id="circle30"
     style="fill:#bbddf5" />
  <circle
     cx="13"
     cy="20"
     r="1"
     id="circle32"
     style="fill:#f2f9ff" />
  <circle
     cx="25"
     cy="9"
     r="1"
     id="circle34"
     style="fill:#50a5e6" />
  <circle
     cx="19"
     cy="1"
     r="1"
     id="circle36"
     style="fill:#1c6399" />
  <circle
     cx="8"
     cy="18"
     r="1"
     id="circle38"
     style="fill:#1c6399" />
  <circle
     cx="3"
     cy="13"
     r="1"
     id="circle40"
     style="fill:#3b94d9" />
  <circle
     cx="10"
     cy="5"
     r="1"
     id="circle42"
     style="fill:#88c9f9" />
</svg>
