<?xml version="1.0" encoding="UTF-8" standalone="no"?>
<svg
   xmlns:dc="http://purl.org/dc/elements/1.1/"
   xmlns:cc="http://creativecommons.org/ns#"
   xmlns:rdf="http://www.w3.org/1999/02/22-rdf-syntax-ns#"
   xmlns:svg="http://www.w3.org/2000/svg"
   xmlns="http://www.w3.org/2000/svg"
   xmlns:sodipodi="http://sodipodi.sourceforge.net/DTD/sodipodi-0.dtd"
   xmlns:inkscape="http://www.inkscape.org/namespaces/inkscape"
   viewBox="0 0 35.537998 35.874245"
   id="svg2"
   version="1.1"
   inkscape:version="0.91 r13725"
   sodipodi:docname="26f3.svg"
   width="35.537998"
   height="35.874245">
  <metadata
     id="metadata18">
    <rdf:RDF>
      <cc:Work
         rdf:about="">
        <dc:format>image/svg+xml</dc:format>
        <dc:type
           rdf:resource="http://purl.org/dc/dcmitype/StillImage" />
      </cc:Work>
    </rdf:RDF>
  </metadata>
  <defs
     id="defs16" />
  <sodipodi:namedview
     pagecolor="#ffffff"
     bordercolor="#666666"
     borderopacity="1"
     objecttolerance="10"
     gridtolerance="10"
     guidetolerance="10"
     inkscape:pageopacity="0"
     inkscape:pageshadow="2"
     inkscape:window-width="640"
     inkscape:window-height="480"
     id="namedview14"
     showgrid="false"
     inkscape:zoom="6.5555556"
     inkscape:cx="17.807"
     inkscape:cy="18"
     inkscape:window-x="0"
     inkscape:window-y="0"
     inkscape:window-maximized="0"
     inkscape:current-layer="svg2" />
  <path
     d="m 3.807,35.874244 28,0 c 2,0 3.731,-2 3.731,-4 0,-4.355 -4.634,-11 -17.731,-11 -13.492,0 -17.807,6.459 -17.807,11 0,2 1.807,4 3.807,4 z"
     id="path4"
     inkscape:connector-curvature="0"
     style="fill:#77b255" />
  <path
     d="m 11.099,29.374244 c 0,0 0.958,0.667 1.958,0.667 2.208,-4.875 13,-7.5 14,-7.5 0.15,0 0.33,-0.018 0.512,-0.047 -0.716,-0.28 -1.502,-0.521 -2.33,-0.737 -4.626,0.063 -13.031,3.917 -14.14,7.617 z"
     id="path6"
     inkscape:connector-curvature="0"
     style="fill:#5c913b" />
  <ellipse
     cx="12.307"
     cy="30.374245"
     rx="6.5"
     ry="2.5"
     id="ellipse8"
     style="fill:#292f33" />
  <path
     d="m 9.807,3.8742444 0,25.9999996 c 0,0.553 0.448,0.844 1,0.844 0.552,0 1,-0.291 1,-0.844 l 0,-25.9999996 -2,0 z"
     id="path10"
     inkscape:connector-curvature="0"
     style="fill:#ffac33" />
  <path
     d="m 9.807,2.8742444 c 0,-2.20000001 1.695,-3.39500001 3.767,-2.65500001 L 23.04,3.6002444 c 2.071,0.74 2.071,1.951 0,2.69 l -9.466,3.381 c -2.072,0.7409996 -3.767,-0.454 -3.767,-2.654 l 0,-4.143 z"
     id="path12"
     inkscape:connector-curvature="0"
     style="fill:#dd2e44" />
</svg>
