<?xml version="1.0" encoding="UTF-8" standalone="no"?>
<svg
   xmlns:dc="http://purl.org/dc/elements/1.1/"
   xmlns:cc="http://creativecommons.org/ns#"
   xmlns:rdf="http://www.w3.org/1999/02/22-rdf-syntax-ns#"
   xmlns:svg="http://www.w3.org/2000/svg"
   xmlns="http://www.w3.org/2000/svg"
   xmlns:sodipodi="http://sodipodi.sourceforge.net/DTD/sodipodi-0.dtd"
   xmlns:inkscape="http://www.inkscape.org/namespaces/inkscape"
   viewBox="0 0 36 36"
   id="svg2"
   version="1.1"
   inkscape:version="0.91 r13725"
   sodipodi:docname="26f5.svg"
   width="36"
   height="36">
  <metadata
     id="metadata20">
    <rdf:RDF>
      <cc:Work
         rdf:about="">
        <dc:format>image/svg+xml</dc:format>
        <dc:type
           rdf:resource="http://purl.org/dc/dcmitype/StillImage" />
      </cc:Work>
    </rdf:RDF>
  </metadata>
  <defs
     id="defs18" />
  <sodipodi:namedview
     pagecolor="#ffffff"
     bordercolor="#666666"
     borderopacity="1"
     objecttolerance="10"
     gridtolerance="10"
     guidetolerance="10"
     inkscape:pageopacity="0"
     inkscape:pageshadow="2"
     inkscape:window-width="640"
     inkscape:window-height="480"
     id="namedview16"
     showgrid="false"
     inkscape:zoom="6.5555556"
     inkscape:cx="18"
     inkscape:cy="18"
     inkscape:window-x="0"
     inkscape:window-y="0"
     inkscape:window-maximized="0"
     inkscape:current-layer="svg2" />
  <path
     d="m 20,26 c 0,0.553 -0.447,1 -1,1 -0.552,0 -1,-0.447 -1,-1 L 18,1 c 0,-0.552 0.448,-1 1,-1 0.553,0 1,0.448 1,1 l 0,25 z"
     id="path4"
     inkscape:connector-curvature="0"
     style="fill:#a7a9ac" />
  <path
     d="m 3,24 31,0 0,8 -22,0 C 6,32 3,24 3,24 Z"
     id="path6"
     inkscape:connector-curvature="0"
     style="fill:#d1d3d4" />
  <path
     d="m 0,30 36,0 0,6 -36,0 z"
     id="path8"
     inkscape:connector-curvature="0"
     style="fill:#55acee" />
  <path
     d="m 5,22 c 0,0 2,-5 5,-9 3,-4 8,-8 8,-8 0,0 -1,11 -1,16 l 0,1 c 0,0 -3,-1 -6,-1 -3,0 -6,1 -6,1 z"
     id="path10"
     inkscape:connector-curvature="0"
     style="fill:#ffac33" />
  <path
     d="m 20,2 c 0,0 6,6 9,11 2.771,4.618 4,9 4,9 0,0 -3,-1 -6,-1 -3,0 -6,1 -6,1 l 0,-1 C 21,12 20,2 20,2 Z"
     id="path12"
     inkscape:connector-curvature="0"
     style="fill:#f4900c" />
  <path
     d="m 2,24 c -0.552,0 -1,0.447 -1,1 0,0.553 0.448,1 1,1 l 33,0 0,-2 -33,0 z"
     id="path14"
     inkscape:connector-curvature="0"
     style="fill:#e6e7e8" />
</svg>
