<?xml version="1.0" encoding="UTF-8" standalone="no"?>
<svg
   xmlns:dc="http://purl.org/dc/elements/1.1/"
   xmlns:cc="http://creativecommons.org/ns#"
   xmlns:rdf="http://www.w3.org/1999/02/22-rdf-syntax-ns#"
   xmlns:svg="http://www.w3.org/2000/svg"
   xmlns="http://www.w3.org/2000/svg"
   xmlns:sodipodi="http://sodipodi.sourceforge.net/DTD/sodipodi-0.dtd"
   xmlns:inkscape="http://www.inkscape.org/namespaces/inkscape"
   viewBox="0 0 32.251518 35.763172"
   id="svg2"
   version="1.1"
   inkscape:version="0.91 r13725"
   sodipodi:docname="26f9-1f3fd-200d-2642-fe0f.svg"
   width="32.251518"
   height="35.763172">
  <metadata
     id="metadata44">
    <rdf:RDF>
      <cc:Work
         rdf:about="">
        <dc:format>image/svg+xml</dc:format>
        <dc:type
           rdf:resource="http://purl.org/dc/dcmitype/StillImage" />
      </cc:Work>
    </rdf:RDF>
  </metadata>
  <defs
     id="defs42" />
  <sodipodi:namedview
     pagecolor="#ffffff"
     bordercolor="#666666"
     borderopacity="1"
     objecttolerance="10"
     gridtolerance="10"
     guidetolerance="10"
     inkscape:pageopacity="0"
     inkscape:pageshadow="2"
     inkscape:window-width="640"
     inkscape:window-height="480"
     id="namedview40"
     showgrid="false"
     inkscape:zoom="6.5555556"
     inkscape:cx="15.206"
     inkscape:cy="17.974728"
     inkscape:window-x="0"
     inkscape:window-y="0"
     inkscape:window-maximized="0"
     inkscape:current-layer="svg2" />
  <path
     d="m 23.506,26.409446 c -0.339,-0.021 -0.504,-0.165 -0.57,-0.496 -0.187,-0.94 -0.313,-1.721 -0.356,-1.993 l -3.912,0.767 c 0.118,0.473 0.644,2.5 1.322,3.806 0.393,0.757 0.831,0.782 1.79,0.838 0,0 3.726,-0.134 6.305,-0.231 1.142,-0.043 1.225,-1.795 0.253,-2.014 -0.692,-0.156 -1.438,-0.3 -2.053,-0.36 -0.465,-0.046 -2.539,-0.303 -2.779,-0.317 z m -7.462,-1.676 -1.729,-3.593 c -0.428,0.233 -2.257,1.253 -3.35,2.237 -0.635,0.572 -0.549,1.002 -0.36,1.944 0,0 1.087,3.639 1.831,6.111 0.32,1.062 2.024,0.713 1.995,-0.251 -0.022,-0.732 -0.07,-1.523 -0.171,-2.156 -0.073,-0.463 -0.348,-2.534 -0.394,-2.77 -0.064,-0.334 0.033,-0.53 0.337,-0.677 0.863,-0.416 1.588,-0.735 1.841,-0.845 z"
     id="path4"
     inkscape:connector-curvature="0"
     style="fill:#d4ab88" />
  <path
     d="m 29.876,26.766446 c -0.133,0.007 -0.238,0.02 -0.315,0.037 l -1.55,0.085 c -0.078,0.002 -0.137,0.069 -0.131,0.147 0.017,0.225 0.309,0.899 0.018,1.424 -0.195,0.351 -0.656,0.495 -0.688,0.679 -0.01,0.058 0.032,0.112 0.091,0.118 0,0 0.284,-0.012 0.532,0.003 0.217,0.1 0.626,0.182 0.836,0.408 0.063,0.148 0.242,0.283 0.364,0.684 0.072,0.239 0.412,1.33 0.412,1.33 0.081,0.278 0.189,0.345 0.236,0.494 0.095,0.306 0.263,1.127 0.346,1.387 0.083,0.26 0.28,0.37 0.433,0.391 0.152,0.02 0.239,-0.016 0.239,-0.016 0,0 0.385,-0.362 0.64,-2.01 0.15,-0.967 0.095,-4.904 0.095,-4.904 l -1.558,-0.257 z"
     id="path6"
     inkscape:connector-curvature="0"
     style="fill:#1c6399" />
  <path
     d="m 28.433,29.643446 c -0.033,0 -0.066,-0.008 -0.097,-0.025 -0.097,-0.053 -0.132,-0.175 -0.078,-0.272 l 0.17,-0.307 c 0.054,-0.097 0.178,-0.131 0.271,-0.078 0.097,0.053 0.132,0.175 0.078,0.272 l -0.17,0.307 c -0.035,0.066 -0.103,0.103 -0.174,0.103 z"
     id="path8"
     inkscape:connector-curvature="0"
     style="fill:#ccd6dd" />
  <path
     d="m 31.088,29.113446 c -0.243,-0.098 -0.797,-0.461 -0.953,-0.853 -0.141,-0.354 -0.241,-1.312 -0.259,-1.493 0.297,-0.028 0.753,-0.01 0.9,0.004 0.194,0.018 0.447,0.044 0.585,0.166 -0.001,-0.001 -0.214,1.543 -0.273,2.176 z"
     id="path10"
     inkscape:connector-curvature="0"
     style="fill:#3b94d9" />
  <path
     d="m 31.354,26.908446 c 0,0 -0.002,0.164 -0.079,0.276 -0.077,0.113 -0.129,0.39 -0.149,0.596 -0.019,0.206 -0.105,0.981 -0.083,1.524 0.022,0.544 0.194,1.527 0.203,1.855 0.009,0.328 0.003,0.839 -0.065,1.217 -0.069,0.378 -0.142,0.715 -0.199,0.922 -0.073,0.267 -0.171,0.486 -0.285,0.639 0,0 0.43,-0.03 0.757,-0.667 0.258,-0.503 0.402,-0.986 0.454,-1.457 l 0.263,-3.109 c 0.081,-0.868 0.1,-1.309 0.061,-1.475 -0.007,-0.029 -0.013,-0.152 -0.106,-0.279 -0.06,-0.083 -0.762,-0.153 -0.772,-0.042 z m -2.472,3.287 c -0.074,0 -0.146,-0.042 -0.181,-0.113 -0.048,-0.1 -0.006,-0.219 0.094,-0.267 l 0.317,-0.152 c 0.101,-0.046 0.219,-0.006 0.268,0.094 0.048,0.1 0.006,0.219 -0.094,0.267 l -0.317,0.152 c -0.029,0.013 -0.058,0.019 -0.087,0.019 z m 0.268,0.657 c -0.086,0 -0.164,-0.055 -0.191,-0.141 -0.032,-0.105 0.026,-0.218 0.132,-0.25 l 0.354,-0.11 c 0.112,-0.033 0.217,0.027 0.251,0.132 0.032,0.105 -0.026,0.218 -0.132,0.25 l -0.354,0.11 c -0.021,0.006 -0.04,0.009 -0.06,0.009 z m 0.232,0.678 c -0.095,0 -0.179,-0.067 -0.196,-0.164 -0.021,-0.109 0.052,-0.213 0.16,-0.233 l 0.333,-0.061 c 0.108,-0.02 0.213,0.052 0.232,0.161 0.021,0.109 -0.052,0.213 -0.16,0.233 l -0.333,0.061 -0.036,0.003 z"
     id="path12"
     inkscape:connector-curvature="0"
     style="fill:#ccd6dd" />
  <path
     d="m 15.117,32.504446 c -0.04,-0.128 -0.078,-0.226 -0.114,-0.296 l -0.467,-1.48 c -0.021,-0.075 -0.101,-0.116 -0.175,-0.09 -0.214,0.073 -0.794,0.523 -1.375,0.371 -0.388,-0.102 -0.642,-0.513 -0.828,-0.498 -0.059,0.005 -0.101,0.059 -0.092,0.117 0,0 0.082,0.272 0.129,0.516 -0.043,0.235 -0.021,0.651 -0.188,0.911 -0.128,0.098 -0.214,0.305 -0.572,0.522 -0.213,0.129 -1.186,0.729 -1.186,0.729 -0.2499999,0.148 -0.2869999,0.269 -0.4199999,0.351 -0.273,0.168 -1.026,0.535 -1.257,0.68 -0.231,0.145 -0.289,0.363 -0.271,0.516 0.018,0.152 0.074,0.228 0.074,0.228 0,0 0.446,0.283 2.1059999,0.121 0.974,-0.095 4.775,-1.117 4.775,-1.117 0,0 -0.049,-1.295 -0.139,-1.581 z"
     id="path14"
     inkscape:connector-curvature="0"
     style="fill:#1c6399" />
  <path
     d="m 12.506,32.059446 c -0.017,0 -0.033,-0.002 -0.051,-0.006 l -0.34,-0.089 c -0.106,-0.028 -0.171,-0.137 -0.143,-0.244 0.027,-0.107 0.131,-0.171 0.244,-0.143 l 0.34,0.089 c 0.106,0.028 0.171,0.137 0.143,0.244 -0.023,0.09 -0.105,0.149 -0.193,0.149 z"
     id="path16"
     inkscape:connector-curvature="0"
     style="fill:#ccd6dd" />
  <path
     d="m 13.145,34.260446 c 0.035,-0.26 0.248,-0.886 0.59,-1.135 0.308,-0.224 1.211,-0.559 1.382,-0.622 0.101,0.281 0.197,0.727 0.22,0.873 0.031,0.192 0.072,0.411 -0.022,0.609 0,10e-4 -1.543,0.176 -2.17,0.275 z"
     id="path18"
     inkscape:connector-curvature="0"
     style="fill:#3b94d9" />
  <path
     d="m 15.347,33.971446 c 0,0 -0.159,0.039 -0.287,-0.008 -0.128,-0.047 -0.409,-0.028 -0.614,0.004 -0.204,0.033 -0.976,0.142 -1.497,0.298 -0.521,0.157 -1.431,0.567 -1.747,0.657 -0.316,0.09 -0.812,0.211 -1.195,0.239 -0.3829999,0.027 -0.7279999,0.04 -0.9419999,0.036 -0.277,-0.004 -0.513,-0.045 -0.69,-0.117 0,0 0.136,0.409 0.834,0.567 0.552,0.125 1.0549999,0.145 1.5239999,0.078 0.036,-0.005 3.077,-0.517 3.077,-0.517 0.861,-0.137 1.293,-0.229 1.444,-0.307 0.027,-0.014 0.144,-0.05 0.244,-0.172 0.065,-0.078 -0.042,-0.776 -0.151,-0.758 z m -3.379,-1.16 c -0.057,0 -0.113,-0.024 -0.153,-0.071 l -0.227,-0.269 c -0.071,-0.084 -0.06,-0.211 0.024,-0.282 0.084,-0.07 0.21,-0.061 0.282,0.024 l 0.227,0.269 c 0.071,0.084 0.06,0.211 -0.024,0.282 -0.037,0.032 -0.083,0.047 -0.129,0.047 z m -0.6,0.47 c -0.067,0 -0.133,-0.034 -0.17,-0.095 l -0.194,-0.316 c -0.059,-0.094 -0.029,-0.217 0.065,-0.275 0.093,-0.057 0.217,-0.029 0.274,0.066 l 0.194,0.316 c 0.059,0.094 0.029,0.217 -0.065,0.275 -0.032,0.02 -0.068,0.029 -0.104,0.029 z m -0.652,0.384 c -0.075,0 -0.147,-0.043 -0.182,-0.116 l -0.143,-0.308 c -0.046,-0.1 -0.003,-0.219 0.098,-0.265 0.1,-0.047 0.219,-0.003 0.266,0.097 l 0.143,0.308 c 0.046,0.1 0.003,0.219 -0.098,0.265 -0.028,0.013 -0.056,0.019 -0.084,0.019 z"
     id="path20"
     inkscape:connector-curvature="0"
     style="fill:#ccd6dd" />
  <path
     d="m 13.61,21.120446 c 0.751,-0.398 3.235,-1.653 4.947,-1.804 0.156,-0.014 0.298,0.088 0.352,0.235 l 1.328,3.635 c 0.068,0.186 -0.027,0.391 -0.216,0.451 -0.781,0.25 -2.74,0.915 -4.22,1.719 -0.157,0.085 -0.347,0.041 -0.448,-0.106 -0.456,-0.664 -1.642,-2.477 -1.923,-3.76 -0.032,-0.15 0.045,-0.298 0.18,-0.37 z"
     id="path22"
     inkscape:connector-curvature="0"
     style="fill:#1c6399" />
  <path
     d="m 18.47,25.364446 c -0.196,-0.827 -0.785,-3.547 -0.501,-5.242 0.026,-0.155 0.16,-0.266 0.316,-0.281 l 3.853,-0.37 c 0.198,-0.019 0.371,0.124 0.382,0.323 0.046,0.818 0.196,2.882 0.601,4.517 0.043,0.173 -0.048,0.346 -0.216,0.407 -0.758,0.274 -2.811,0.965 -4.123,0.914 -0.153,-0.006 -0.276,-0.118 -0.312,-0.268 z"
     id="path24"
     inkscape:connector-curvature="0"
     style="fill:#357baa" />
  <path
     d="m 15.238,10.464446 c -0.037,0.617 0.172,1.537 1.603,1.665 1.43,0.128 2.808,-0.164 3.392,-0.377 0.584,-0.214 0.637,0.836 0.892,1.807 0.256,0.974 0.44,1.739 0.407,1.947 -0.054,0.352 -0.726,1.071 -0.388,1.647 0.338,0.576 0.848,1.115 1.404,0.854 0.556,-0.261 1.009,-0.557 1.136,-0.889 0.127,-0.333 -0.626,-1.25 -0.674,-1.525 -0.048,-0.275 -0.081,-3.894 -0.146,-4.3 -0.08,-0.496 -0.172,-1.177 -1.01,-1.3950005 -0.838,-0.218 -4.153,-0.593 -4.985,-0.688 -0.953,-0.109 -1.582,0.436 -1.631,1.2540005 z"
     id="path26"
     inkscape:connector-curvature="0"
     style="fill:#d4ab88" />
  <path
     d="m 16.091,6.0054455 c 0.253,-0.418 0.429,-0.895 0.475,-1.466 0.165,-2.041 -1.205,-3.81699998 -3.06,-3.96699998 -1.855,-0.15 -4.1839999,1.47499998 -3.8969999,3.50199998 0.285,2.013 1.7459999,4.863 3.3799999,4.169 0.431,-0.183 0.861,-0.38 1.267,-0.604 0.205,0.194 0.429,1.001 0.435,1.713 0.012,1.8140005 2.507,1.7200005 2.492,-0.097 -0.013,-1.437 -1.002,-2.239 -1.092,-3.25 z"
     id="path28"
     inkscape:connector-curvature="0"
     style="fill:#d4ab88" />
  <path
     d="m 10.131,1.4274455 c 2.296,-1.79299998 3.976,-1.71699998 5.471,-0.75999998 1.485,0.95099998 1.77,3.01699998 1.528,4.37799998 -0.241,1.361 -0.633,1.329 -0.633,1.329 0,0 -1.781,0.607 -2.096,-1.071 -0.1,-0.531 0.466,-0.883 -0.265,-1.599 -0.47,-0.461 -1.372,-0.111 -1.299,0.618 0.073,0.729 -0.314,0.632 -0.314,0.632 l -1.3,-1.814 c 0,0 -0.951,0.046 -1.3839999,0.968 -0.272,0.579 -1.713,-1.115 0.2919999,-2.681 z"
     id="path30"
     inkscape:connector-curvature="0"
     style="fill:#963b22" />
  <path
     d="m 19.624,9.5534455 c -0.897,-1.578 -2.174,-2.314 -3.528,-1.683 -4.238,1.976 -1.905,5.8490005 0.189,12.2760005 0,0 3.134,0.202 6.325,-0.14 0.001,0 -0.826,-6.654 -2.986,-10.4530005 z"
     id="path32"
     inkscape:connector-curvature="0"
     style="fill:#4289c1" />
  <path
     d="m 17.13,9.9634455 c -0.603,-0.298 -1.614,-0.479 -2.349,0.9010005 -0.735,1.38 -1.027,2.884 -1.06,3.561 -0.033,0.677 -1.108,0.284 -2.191,0.128 -1.086,-0.156 -2.8529999,-0.332 -3.0479999,-0.453 -0.191,-0.118 -1.565,-0.234 -2.03,-0.242 -0.34,-0.005 -2.104,0.282 -2.496,0.612 -0.461,0.388 2.73,0.461 3.01,0.729 0.28,0.269 0.876,0.481 1.274,0.587 0.294,0.078 4.3909999,1.364 4.8259999,1.471 0.531,0.131 1.253,0.327 1.827,-0.421 0.574,-0.748 2.356,-3.913 2.804,-4.707 0.512,-0.909 0.232,-1.771 -0.567,-2.1660005 z"
     id="path34"
     inkscape:connector-curvature="0"
     style="fill:#d4ab88" />
  <circle
     cx="3.6029999"
     cy="21.619446"
     r="3.6029999"
     id="circle36"
     style="fill:#ffac33" />
  <path
     d="m 4.5710001,21.445446 c 0.764,0.708 1.573,1.273 2.329,1.615 0.122,-0.277 0.201,-0.573 0.25,-0.881 -0.628,-0.303 -1.297,-0.777 -1.942,-1.37 l 1.304,-1.304 c -0.178,-0.245 -0.389,-0.459 -0.621,-0.652 l -1.32,1.32 c -0.646,-0.702 -1.158,-1.437 -1.455,-2.11 -0.306,0.042 -0.603,0.109 -0.879,0.223 0.013,0.031 0.016,0.059 0.03,0.09 0.336,0.785 0.927,1.635 1.667,2.434 l -1.298,1.297 c -0.796,-0.737 -1.64200001,-1.325 -2.42300001,-1.662 -0.1,0.29 -0.162,0.595 -0.185,0.914 0.636,0.302 1.31700001,0.782 1.97200001,1.385 l -1.15800001,1.158 c 0.19300001,0.232 0.40800001,0.444 0.65200001,0.621 l 1.142,-1.142 c 0.592,0.643 1.023,1.262 1.304,1.803 0.315,-0.03 0.617,-0.093 0.903,-0.199 -0.356,-0.751 -0.914,-1.542 -1.564,-2.247 l 1.292,-1.293 z"
     id="path38"
     inkscape:connector-curvature="0"
     style="fill:#c1694f" />
</svg>
