<?xml version="1.0" encoding="UTF-8" standalone="no"?>
<svg
   xmlns:dc="http://purl.org/dc/elements/1.1/"
   xmlns:cc="http://creativecommons.org/ns#"
   xmlns:rdf="http://www.w3.org/1999/02/22-rdf-syntax-ns#"
   xmlns:svg="http://www.w3.org/2000/svg"
   xmlns="http://www.w3.org/2000/svg"
   xmlns:sodipodi="http://sodipodi.sourceforge.net/DTD/sodipodi-0.dtd"
   xmlns:inkscape="http://www.inkscape.org/namespaces/inkscape"
   viewBox="0 0 35.781887 22.261999"
   id="svg2"
   version="1.1"
   inkscape:version="0.91 r13725"
   sodipodi:docname="26fa.svg"
   width="35.781887"
   height="22.261999">
  <metadata
     id="metadata18">
    <rdf:RDF>
      <cc:Work
         rdf:about="">
        <dc:format>image/svg+xml</dc:format>
        <dc:type
           rdf:resource="http://purl.org/dc/dcmitype/StillImage" />
      </cc:Work>
    </rdf:RDF>
  </metadata>
  <defs
     id="defs16" />
  <sodipodi:namedview
     pagecolor="#ffffff"
     bordercolor="#666666"
     borderopacity="1"
     objecttolerance="10"
     gridtolerance="10"
     guidetolerance="10"
     inkscape:pageopacity="0"
     inkscape:pageshadow="2"
     inkscape:window-width="640"
     inkscape:window-height="480"
     id="namedview14"
     showgrid="false"
     inkscape:zoom="6.5555556"
     inkscape:cx="17.875443"
     inkscape:cy="15"
     inkscape:window-x="0"
     inkscape:window-y="0"
     inkscape:window-maximized="0"
     inkscape:current-layer="svg2" />
  <path
     d="m 16.687443,22.262 c -0.588,0 -1.112,-0.37 -1.31,-0.924 L 8.4244426,1.87 c -0.152,-0.426 -0.087,-0.872 0.173,-1.242 0.261,-0.369 0.685,-0.563 1.137,-0.563 l 16.3130004,0 c 0.557,0 1.059,0.305 1.279,0.817 l 8.343,19.455 c 0.184,0.43 0.14,0.917 -0.116,1.307 -0.259,0.39 -0.696,0.618 -1.163,0.618 l -17.703,0 z"
     id="path4"
     inkscape:connector-curvature="0"
     style="fill:#f4900c" />
  <path
     d="m 1.3904426,22.262 c -0.46700002,0 -0.90400002,-0.236 -1.16200002,-0.625 -0.256,-0.391 -0.3,-0.885 -0.116,-1.315 L 8.4604426,0.843 c 0.218,-0.51 0.722,-0.843 1.278,-0.843 0.5570004,0 1.0610004,0.333 1.2790004,0.843 l 8.348,19.479 c 0.184,0.431 0.139,0.924 -0.117,1.315 -0.256,0.389 -0.693,0.625 -1.161,0.625 l -16.6970004,0 z"
     id="path6"
     inkscape:connector-curvature="0"
     style="fill:#ffcc4d" />
  <path
     d="m 9.7344426,3.444 -2.782,18.818 5.5630004,0 z"
     id="path8"
     inkscape:connector-curvature="0"
     style="fill:#292f33" />
  <path
     d="m 15.335443,20.718 0.621,1.544 -3.441,0 z m -11.2030004,0 -0.621,1.544 3.441,0 z"
     id="path10"
     inkscape:connector-curvature="0"
     style="fill:#ffac33" />
  <path
     d="m 12.515443,22.262 c 0,0 2.529,-0.645 3.766,-1.786 L 9.7344426,3.444 12.515443,22.262 Z m -5.5630004,0 c 0,0 -2.529,-0.645 -3.766,-1.786 l 6.546,-17.031 -2.78,18.817 z"
     id="path12"
     inkscape:connector-curvature="0"
     style="fill:#ffe8b6" />
</svg>
