<?xml version="1.0" encoding="UTF-8" standalone="no"?>
<svg
   xmlns:dc="http://purl.org/dc/elements/1.1/"
   xmlns:cc="http://creativecommons.org/ns#"
   xmlns:rdf="http://www.w3.org/1999/02/22-rdf-syntax-ns#"
   xmlns:svg="http://www.w3.org/2000/svg"
   xmlns="http://www.w3.org/2000/svg"
   xmlns:sodipodi="http://sodipodi.sourceforge.net/DTD/sodipodi-0.dtd"
   xmlns:inkscape="http://www.inkscape.org/namespaces/inkscape"
   viewBox="0 0 33.661797 35.266586"
   id="svg2"
   version="1.1"
   inkscape:version="0.91 r13725"
   sodipodi:docname="270d-1f3fe.svg"
   width="33.661797"
   height="35.266586">
  <metadata
     id="metadata32">
    <rdf:RDF>
      <cc:Work
         rdf:about="">
        <dc:format>image/svg+xml</dc:format>
        <dc:type
           rdf:resource="http://purl.org/dc/dcmitype/StillImage" />
      </cc:Work>
    </rdf:RDF>
  </metadata>
  <defs
     id="defs30" />
  <sodipodi:namedview
     pagecolor="#ffffff"
     bordercolor="#666666"
     borderopacity="1"
     objecttolerance="10"
     gridtolerance="10"
     guidetolerance="10"
     inkscape:pageopacity="0"
     inkscape:pageshadow="2"
     inkscape:window-width="640"
     inkscape:window-height="480"
     id="namedview28"
     showgrid="false"
     inkscape:zoom="6.5555556"
     inkscape:cx="16.661797"
     inkscape:cy="17.293834"
     inkscape:window-x="0"
     inkscape:window-y="0"
     inkscape:window-maximized="0"
     inkscape:current-layer="svg2" />
  <path
     d="m 4.8647974,21.613753 c -0.078,0.922 0.321,1.198 0.946,1.636 0.618,0.433 4.3829996,-2.867 5.6139996,-3.369 1.231,-0.502 12.787,-2.949 12.286,-5.183 -0.501,-2.234 -3.993,-2.564 -6.683,-2.108 -2.69,0.456 -7.8379996,2.822 -9.3419996,4.099 -1.504,1.276 -2.821,4.925 -2.821,4.925 z m 8.6219996,1.497 c 0,0 -3.5569996,1.155 -3.5569996,4.155 0,3 0.8659996,4.692 1.2759996,5.513 0.411,0.82 1.688,1.616 3.455,0.851 2.052,-0.889 -0.491,-6.004 6,-3.656 2.974,1.075 6.059,2.528 9.059,1.528 2.846,-0.949 3.942,-4.529 3.942,-6.529 0,-4.094 -3,-3 -4,-2 -1,1 -9,3 -10,3 -1,0 -6.175,-2.862 -6.175,-2.862 z"
     id="path4"
     inkscape:connector-curvature="0"
     style="fill:#90603e" />
  <path
     d="m 17.973797,28.160753 c 0,0 -0.12,-1.316 -1.375,-1.469 -1.031,-0.125 -2.656,0.219 -3.5,1.906 -0.844,1.688 -2.344,1.406 -2.281,2.812 0.062,1.406 0.5,2.5 1.406,2.781 0.907,0.282 2.188,-0.218 2.344,-1.718 0.156,-1.5 0.344,-2.875 1.312,-3.469 0.97,-0.593 2.094,-0.843 2.094,-0.843 z"
     id="path6"
     inkscape:connector-curvature="0"
     style="fill:#9b6a49" />
  <path
     d="m 16.661797,25.972753 c 0,0 -1,-1 -3,-1 -2,0 -6.6639996,2.133 -5.2499996,6.375 1,3 3.8439996,1.594 4.2499996,-1.375 0.407,-2.973 4,-4 4,-4 z"
     id="path8"
     inkscape:connector-curvature="0"
     style="fill:#90603e" />
  <path
     d="m 15.661797,25.972753 c 0,0 -1,-1 -3,-1 -2,0 -4.8849996,1.53 -4.9999996,6 -0.094,3.656 4.0309996,2 3.9999996,-1 -0.031,-3 4,-4 4,-4 z"
     id="path10"
     inkscape:connector-curvature="0"
     style="fill:#9b6a49" />
  <path
     d="m 3.6617974,26.972753 c 0,3.297 0.457,5.286 2.428,4.947 3.269,-0.562 2.028,-4.614 4.8889996,-5.754 2.077,-0.827 5.101,-0.63 8.02,1.103 1.923,1.142 0.663,-3.296 -1.337,-4.296 -2,-1 -7.9999996,0 -8.9999996,0 -1,0 -5,4 -5,4 z"
     id="path12"
     inkscape:connector-curvature="0"
     style="fill:#90603e" />
  <path
     d="m 3.5037974,27.146753 c -1.591,2.665 -0.623,5.42 2.158,4.826 2.691,-0.574 1.343,-4.07 4,-6 1.4889996,-1.082 4.6979996,-1.445 6.6979996,-0.445 2,1 2.302,-1.555 0.302,-2.555 -2,-1 -8.5399996,-0.025 -9.5379996,0.037 -1.909,0.119 -3.62,4.137 -3.62,4.137 z"
     id="path14"
     inkscape:connector-curvature="0"
     style="fill:#9b6a49" />
  <path
     d="m 8.0797974,29.086753 c -0.679,0.778 -1.86,0.859 -2.639,0.18 l -0.196,-0.171 c -0.779,-0.679 -0.859,-1.859 -0.18,-2.638 L 27.587797,0.64075257 c 0.679,-0.778 1.86,-0.859 2.639,-0.18 l 0.195,0.171 c 0.779,0.67900003 0.859,1.86000003 0.181,2.63800003 L 8.0797974,29.086753 Z"
     id="path16"
     inkscape:connector-curvature="0"
     style="fill:#3b88c3" />
  <path
     d="m 9.1517974,27.858753 c -2.36,2.705 -8.31299996,8.009 -9.06699996,7.352 -0.753,-0.657 3.69299996,-7.275 6.05299996,-9.981 2.36,-2.706 1.661,-0.542 2.493,0.185 0.832,0.726 2.8809996,-0.26 0.521,2.444 z"
     id="path18"
     inkscape:connector-curvature="0"
     style="fill:#3b88c3" />
  <path
     d="m 5.3337974,24.998753 c 0,1 2.421,1.915 3.421,0.915 1,-1 3.3409996,-2.228 6.4189996,-0.941 7.204,3.01 4.488,-1 1.488,-2 -3,-1 -7.9999996,0 -8.9999996,0 -1,0 -2.328,2.026 -2.328,2.026 z"
     id="path20"
     inkscape:connector-curvature="0"
     style="fill:#90603e" />
  <path
     d="m 4.8567974,22.015753 c -0.358,-1.113 2.188,-7.279 3.341,-8.234 1.452,-1.202 7.0689996,-3.063 9.0689996,-3.063 2,0 16.395,7.254 16.395,12.254 0,5 -2,5.625 -4.875,6.406 -2.299,0.625 -7.115,0.242 -9.219,-1.719 -1.844,-1.718 -3.125,-2.906 -4.906,-3.687 -3.302,-1.448 -5.5029996,0.424 -6.5029996,1.424 -2,2 -5.768,-0.159 -2.625,-3.58 2.249,-2.449 4.23,-3.212 6.1279996,-3.844 6,-2 10,-2 8,-4 -0.707,-0.707 -1.092,0.346 -2.076,0.525 -1.98,0.36 -3.556,0.602 -6.165,1.472 -0.902,0.3 -5.1719996,3.023 -6.5639996,6.046 z"
     id="path22"
     inkscape:connector-curvature="0"
     style="fill:#af7e57" />
  <path
     d="m 11.857797,16.247753 c 1.064,-0.388 5.702,-1.232 8.115,-2.068 1.949,-0.676 3.659,0.636 -0.04,2.028 -3.57,1.343 -7.279,1.233 -9.9839996,2.307 -1.023,0.406 -1.91,-0.875 1.9089996,-2.267 z"
     id="path24"
     inkscape:connector-curvature="0"
     style="fill:#90603e" />
  <path
     d="m 21.148797,7.9957526 c 0,0 -5.928,6.7950004 -8.446,9.6610004 2.254,-0.926 4.271,-0.75 6.198,-1.884 1.927,-1.133 2.806,-2.342 5.73,-5.695 1.086,-1.2440004 -3.482,-2.0820004 -3.482,-2.0820004 z"
     id="path26"
     inkscape:connector-curvature="0"
     style="fill:#3b88c3" />
</svg>
