<?xml version="1.0" encoding="UTF-8" standalone="no"?>
<svg
   xmlns:dc="http://purl.org/dc/elements/1.1/"
   xmlns:cc="http://creativecommons.org/ns#"
   xmlns:rdf="http://www.w3.org/1999/02/22-rdf-syntax-ns#"
   xmlns:svg="http://www.w3.org/2000/svg"
   xmlns="http://www.w3.org/2000/svg"
   xmlns:sodipodi="http://sodipodi.sourceforge.net/DTD/sodipodi-0.dtd"
   xmlns:inkscape="http://www.inkscape.org/namespaces/inkscape"
   viewBox="0 0 35.442085 35.444641"
   id="svg2"
   version="1.1"
   inkscape:version="0.91 r13725"
   sodipodi:docname="270f.svg"
   width="35.442085"
   height="35.444641">
  <metadata
     id="metadata20">
    <rdf:RDF>
      <cc:Work
         rdf:about="">
        <dc:format>image/svg+xml</dc:format>
        <dc:type
           rdf:resource="http://purl.org/dc/dcmitype/StillImage" />
      </cc:Work>
    </rdf:RDF>
  </metadata>
  <defs
     id="defs18" />
  <sodipodi:namedview
     pagecolor="#ffffff"
     bordercolor="#666666"
     borderopacity="1"
     objecttolerance="10"
     gridtolerance="10"
     guidetolerance="10"
     inkscape:pageopacity="0"
     inkscape:pageshadow="2"
     inkscape:window-width="640"
     inkscape:window-height="480"
     id="namedview16"
     showgrid="false"
     inkscape:zoom="6.5555556"
     inkscape:cx="17.7215"
     inkscape:cy="17.722392"
     inkscape:window-x="0"
     inkscape:window-y="0"
     inkscape:window-maximized="0"
     inkscape:current-layer="svg2" />
  <path
     d="m 34.9435,33.32025 c -0.647,-2.101 -1.705,-6.059 -2.325,-7.566 -0.501,-1.216 -0.969,-2.438 -1.544,-3.014 -0.575,-0.575 -1.553,-0.53 -2.143,0.058 0,0 -2.469,1.675 -3.354,2.783 -1.108,0.882 -2.785,3.357 -2.785,3.357 -0.59,0.59 -0.635,1.567 -0.06,2.143 0.576,0.575 1.798,1.043 3.015,1.544 1.506,0.62 5.465,1.676 7.566,2.325 0.359,0.11 1.74,-1.271 1.63,-1.63 z"
     id="path4"
     inkscape:connector-curvature="0"
     style="fill:#d99e82" />
  <path
     d="m 13.3645,5.03025 c 1.151,1.151 1.151,3.016 0,4.167 l -4.167,4.168 c -1.151,1.15 -3.018,1.15 -4.167,0 l -4.168,-4.168 c -1.15,-1.151 -1.15,-3.016 0,-4.167 l 4.167,-4.167 c 1.15,-1.151 3.016,-1.151 4.167,0 l 4.168,4.167 z"
     id="path6"
     inkscape:connector-curvature="0"
     style="fill:#ea596e" />
  <path
     d="m 31.0745,22.74025 -4.17,4.17 -4.163,4.165 -15.628,-15.627 8.335,-8.334 15.626,15.626 z"
     id="path8"
     inkscape:connector-curvature="0"
     style="fill:#ffcc4d" />
  <path
     d="m 31.7995,34.48525 c 0,0 2.709,1.489 3.441,0.757 0.732,-0.732 -0.765,-3.435 -0.765,-3.435 0,0 -2.566,0.048 -2.676,2.678 z"
     id="path10"
     inkscape:connector-curvature="0"
     style="fill:#292f33" />
  <path
     d="m 1.9045,10.23925 8.335,-8.335 5.208,5.209 -8.334,8.335 z"
     id="path12"
     inkscape:connector-curvature="0"
     style="fill:#ccd6dd" />
  <path
     d="m 2.9465,11.28025 8.334,-8.334 1.042,1.042 -8.334,8.334 z m 2.083,2.086 8.335,-8.335 1.042,1.042 -8.335,8.334 z"
     id="path14"
     inkscape:connector-curvature="0"
     style="fill:#99aab5" />
</svg>
