<?xml version="1.0" encoding="UTF-8" standalone="no"?>
<svg
   xmlns:dc="http://purl.org/dc/elements/1.1/"
   xmlns:cc="http://creativecommons.org/ns#"
   xmlns:rdf="http://www.w3.org/1999/02/22-rdf-syntax-ns#"
   xmlns:svg="http://www.w3.org/2000/svg"
   xmlns="http://www.w3.org/2000/svg"
   xmlns:sodipodi="http://sodipodi.sourceforge.net/DTD/sodipodi-0.dtd"
   xmlns:inkscape="http://www.inkscape.org/namespaces/inkscape"
   viewBox="0 0 36 36"
   id="svg2"
   version="1.1"
   inkscape:version="0.91 r13725"
   sodipodi:docname="2721.svg"
   width="36"
   height="36">
  <metadata
     id="metadata12">
    <rdf:RDF>
      <cc:Work
         rdf:about="">
        <dc:format>image/svg+xml</dc:format>
        <dc:type
           rdf:resource="http://purl.org/dc/dcmitype/StillImage" />
      </cc:Work>
    </rdf:RDF>
  </metadata>
  <defs
     id="defs10" />
  <sodipodi:namedview
     pagecolor="#ffffff"
     bordercolor="#666666"
     borderopacity="1"
     objecttolerance="10"
     gridtolerance="10"
     guidetolerance="10"
     inkscape:pageopacity="0"
     inkscape:pageshadow="2"
     inkscape:window-width="640"
     inkscape:window-height="480"
     id="namedview8"
     showgrid="false"
     inkscape:zoom="6.5555556"
     inkscape:cx="18"
     inkscape:cy="18"
     inkscape:window-x="0"
     inkscape:window-y="0"
     inkscape:window-maximized="0"
     inkscape:current-layer="svg2" />
  <path
     d="m 36,32 c 0,2.209 -1.791,4 -4,4 L 4,36 C 1.791,36 0,34.209 0,32 L 0,4 C 0,1.791 1.791,0 4,0 l 28,0 c 2.209,0 4,1.791 4,4 l 0,28 z"
     id="path4"
     inkscape:connector-curvature="0"
     style="fill:#9266cc" />
  <path
     d="m 27.152,18 3.716,-6.504 c 0.177,-0.31 0.176,-0.69 -0.003,-0.998 C 30.686,10.19 30.356,10 30,10 l -7.42,0 -3.712,-6.496 c -0.355,-0.623 -1.381,-0.623 -1.736,0 L 13.42,10 6,10 c -0.356,0 -0.686,0.19 -0.865,0.498 -0.179,0.308 -0.18,0.688 -0.003,0.998 L 8.848,18 5.132,24.504 C 4.955,24.814 4.956,25.193 5.135,25.502 5.314,25.811 5.644,26 6,26 l 7.42,0 3.712,6.496 C 17.31,32.808 17.641,33 18,33 c 0.359,0 0.69,-0.192 0.868,-0.504 L 22.58,26 30,26 c 0.356,0 0.686,-0.189 0.865,-0.498 0.179,-0.309 0.18,-0.688 0.003,-0.998 L 27.152,18 Z M 28.276,12 26,15.984 23.723,12 l 4.553,0 z m -3.428,6 -3.428,6 -6.84,0 -3.429,-6 3.429,-6 6.839,0 3.429,6 z M 18,6.016 20.277,10 15.724,10 18,6.016 Z M 7.723,12 12.277,12 10,15.985 7.723,12 Z m 0,12 L 10,20.015 12.277,24 7.723,24 Z M 18,29.984 15.723,26 20.276,26 18,29.984 Z M 23.723,24 26,20.016 28.276,24 23.723,24 Z"
     id="path6"
     inkscape:connector-curvature="0"
     style="fill:#ffffff" />
</svg>
