<?xml version="1.0" encoding="UTF-8" standalone="no"?>
<svg
   xmlns:dc="http://purl.org/dc/elements/1.1/"
   xmlns:cc="http://creativecommons.org/ns#"
   xmlns:rdf="http://www.w3.org/1999/02/22-rdf-syntax-ns#"
   xmlns:svg="http://www.w3.org/2000/svg"
   xmlns="http://www.w3.org/2000/svg"
   xmlns:sodipodi="http://sodipodi.sourceforge.net/DTD/sodipodi-0.dtd"
   xmlns:inkscape="http://www.inkscape.org/namespaces/inkscape"
   viewBox="0 0 34 33"
   id="svg2"
   version="1.1"
   inkscape:version="0.91 r13725"
   sodipodi:docname="2728.svg"
   width="34"
   height="33">
  <metadata
     id="metadata12">
    <rdf:RDF>
      <cc:Work
         rdf:about="">
        <dc:format>image/svg+xml</dc:format>
        <dc:type
           rdf:resource="http://purl.org/dc/dcmitype/StillImage" />
      </cc:Work>
    </rdf:RDF>
  </metadata>
  <defs
     id="defs10" />
  <sodipodi:namedview
     pagecolor="#ffffff"
     bordercolor="#666666"
     borderopacity="1"
     objecttolerance="10"
     gridtolerance="10"
     guidetolerance="10"
     inkscape:pageopacity="0"
     inkscape:pageshadow="2"
     inkscape:window-width="640"
     inkscape:window-height="480"
     id="namedview8"
     showgrid="false"
     inkscape:zoom="6.5555556"
     inkscape:cx="17"
     inkscape:cy="17"
     inkscape:window-x="0"
     inkscape:window-y="0"
     inkscape:window-maximized="0"
     inkscape:current-layer="svg2" />
  <path
     d="M 33.347,14.893 24.448,11.599 21.125,0.708 C 20.997,0.288 20.608,0 20.169,0 19.73,0 19.341,0.288 19.213,0.708 l -3.322,10.891 -8.9,3.294 c -0.393,0.146 -0.653,0.519 -0.653,0.938 0,0.418 0.26,0.793 0.653,0.938 l 8.895,3.293 3.324,11.223 c 0.126,0.424 0.516,0.715 0.959,0.715 0.442,0 0.833,-0.291 0.959,-0.716 l 3.324,-11.223 8.896,-3.293 C 33.739,16.624 34,16.25 34,15.831 34,15.413 33.739,15.039 33.347,14.893 Z"
     id="path4"
     inkscape:connector-curvature="0"
     style="fill:#ffac33" />
  <path
     d="m 13.347,25.894 -2.314,-0.856 -0.9,-3.3 C 10.015,21.302 9.62,21 9.169,21 8.718,21 8.323,21.302 8.204,21.737 l -0.9,3.3 -2.313,0.856 c -0.393,0.145 -0.653,0.52 -0.653,0.938 0,0.418 0.26,0.793 0.653,0.938 l 2.301,0.853 0.907,3.622 C 8.311,32.688 8.71,33 9.169,33 c 0.459,0 0.858,-0.312 0.97,-0.757 l 0.907,-3.622 2.301,-0.853 C 13.74,27.624 14,27.249 14,26.831 14,26.413 13.74,26.038 13.347,25.894 Z M 9.009,4.231 6.645,3.356 5.769,0.991 C 5.624,0.598 5.25,0.338 4.831,0.338 4.413,0.338 4.039,0.598 3.893,0.991 L 3.018,3.356 0.653,4.231 C 0.26,4.377 0,4.751 0,5.169 0,5.587 0.26,5.962 0.653,6.107 L 3.018,6.982 3.893,9.347 C 4.039,9.74 4.413,10 4.831,10 5.249,10 5.623,9.74 5.769,9.347 L 6.644,6.982 9.009,6.107 C 9.402,5.961 9.662,5.587 9.662,5.169 9.662,4.751 9.402,4.377 9.009,4.231 Z"
     id="path6"
     inkscape:connector-curvature="0"
     style="fill:#ffcc4d" />
</svg>
