<?xml version="1.0" encoding="UTF-8" standalone="no"?>
<svg
   xmlns:dc="http://purl.org/dc/elements/1.1/"
   xmlns:cc="http://creativecommons.org/ns#"
   xmlns:rdf="http://www.w3.org/1999/02/22-rdf-syntax-ns#"
   xmlns:svg="http://www.w3.org/2000/svg"
   xmlns="http://www.w3.org/2000/svg"
   xmlns:sodipodi="http://sodipodi.sourceforge.net/DTD/sodipodi-0.dtd"
   xmlns:inkscape="http://www.inkscape.org/namespaces/inkscape"
   viewBox="0 0 36 36"
   id="svg2"
   version="1.1"
   inkscape:version="0.91 r13725"
   sodipodi:docname="2747.svg"
   width="36"
   height="36">
  <metadata
     id="metadata14">
    <rdf:RDF>
      <cc:Work
         rdf:about="">
        <dc:format>image/svg+xml</dc:format>
        <dc:type
           rdf:resource="http://purl.org/dc/dcmitype/StillImage" />
      </cc:Work>
    </rdf:RDF>
  </metadata>
  <defs
     id="defs12" />
  <sodipodi:namedview
     pagecolor="#ffffff"
     bordercolor="#666666"
     borderopacity="1"
     objecttolerance="10"
     gridtolerance="10"
     guidetolerance="10"
     inkscape:pageopacity="0"
     inkscape:pageshadow="2"
     inkscape:window-width="640"
     inkscape:window-height="480"
     id="namedview10"
     showgrid="false"
     inkscape:zoom="6.5555556"
     inkscape:cx="18"
     inkscape:cy="18"
     inkscape:window-x="0"
     inkscape:window-y="0"
     inkscape:window-maximized="0"
     inkscape:current-layer="svg2" />
  <path
     d="m 36,32 c 0,2.209 -1.791,4 -4,4 L 4,36 C 1.791,36 0,34.209 0,32 L 0,4 C 0,1.791 1.791,0 4,0 l 28,0 c 2.209,0 4,1.791 4,4 l 0,28 z"
     id="path4"
     inkscape:connector-curvature="0"
     style="fill:#77b255" />
  <circle
     cx="18"
     cy="18"
     r="3"
     id="circle6"
     style="fill:#ffffff" />
  <path
     d="M 20,4 C 20,2.896 19.104,2 18,2 16.896,2 16,2.896 16,4 l 0,8 c 0,1.104 0.896,2 2,2 1.104,0 2,-0.896 2,-2 l 0,-8 z m 0,20 c 0,-1.104 -0.896,-2 -2,-2 -1.104,0 -2,0.896 -2,2 l 0,8 c 0,1.104 0.896,2 2,2 1.104,0 2,-0.896 2,-2 l 0,-8 z M 4,16 c -1.104,0 -2,0.896 -2,2 0,1.104 0.896,2 2,2 l 8,0 c 1.104,0 2,-0.896 2,-2 0,-1.104 -0.896,-2 -2,-2 l -8,0 z m 20,0 c -1.104,0 -2,0.896 -2,2 0,1.104 0.896,2 2,2 l 8,0 c 1.104,0 2,-0.896 2,-2 0,-1.104 -0.896,-2 -2,-2 l -8,0 z m -8.829,-2.243 c 0.391,0.391 0.391,1.024 0,1.414 -0.39,0.391 -1.024,0.391 -1.414,0 L 6.272,7.687 c -0.391,-0.391 -0.391,-1.024 0,-1.415 0.391,-0.391 1.024,-0.391 1.415,0 l 7.484,7.485 z m 14.557,14.556 c 0.392,0.391 0.391,1.024 0,1.414 -0.39,0.391 -1.023,0.392 -1.414,0 l -7.485,-7.485 c -0.391,-0.391 -0.391,-1.023 0,-1.414 0.391,-0.391 1.024,-0.391 1.414,0 l 7.485,7.485 z M 13.757,20.828 c 0.391,-0.391 1.024,-0.391 1.414,0 0.391,0.391 0.391,1.024 0,1.414 l -7.485,7.486 c -0.391,0.391 -1.024,0.391 -1.415,0 -0.391,-0.391 -0.391,-1.024 0,-1.415 l 7.486,-7.485 z M 28.313,6.272 c 0.391,-0.392 1.024,-0.391 1.414,0 0.391,0.39 0.392,1.023 0,1.414 l -7.485,7.485 c -0.391,0.391 -1.023,0.391 -1.414,0 -0.391,-0.391 -0.391,-1.023 0,-1.414 l 7.485,-7.485 z"
     id="path8"
     inkscape:connector-curvature="0"
     style="fill:#ffffff" />
</svg>
