<?xml version="1.0" encoding="UTF-8" standalone="no"?>
<svg
   xmlns:dc="http://purl.org/dc/elements/1.1/"
   xmlns:cc="http://creativecommons.org/ns#"
   xmlns:rdf="http://www.w3.org/1999/02/22-rdf-syntax-ns#"
   xmlns:svg="http://www.w3.org/2000/svg"
   xmlns="http://www.w3.org/2000/svg"
   xmlns:sodipodi="http://sodipodi.sourceforge.net/DTD/sodipodi-0.dtd"
   xmlns:inkscape="http://www.inkscape.org/namespaces/inkscape"
   viewBox="0 0 33.032749 33.03175"
   id="svg2"
   version="1.1"
   inkscape:version="0.91 r13725"
   sodipodi:docname="274c.svg"
   width="33.032749"
   height="33.03175">
  <metadata
     id="metadata10">
    <rdf:RDF>
      <cc:Work
         rdf:about="">
        <dc:format>image/svg+xml</dc:format>
        <dc:type
           rdf:resource="http://purl.org/dc/dcmitype/StillImage" />
      </cc:Work>
    </rdf:RDF>
  </metadata>
  <defs
     id="defs8" />
  <sodipodi:namedview
     pagecolor="#ffffff"
     bordercolor="#666666"
     borderopacity="1"
     objecttolerance="10"
     gridtolerance="10"
     guidetolerance="10"
     inkscape:pageopacity="0"
     inkscape:pageshadow="2"
     inkscape:window-width="640"
     inkscape:window-height="480"
     id="namedview6"
     showgrid="false"
     inkscape:zoom="6.5555556"
     inkscape:cx="16.53175"
     inkscape:cy="16.532"
     inkscape:window-x="0"
     inkscape:window-y="0"
     inkscape:window-maximized="0"
     inkscape:current-layer="svg2" />
  <path
     d="m 20.06475,16.50175 12.235,-12.234 c 0.976,-0.976 0.976,-2.559 0,-3.535 -0.977,-0.977 -2.559,-0.977 -3.535,0 l -12.235,12.234 -12.234,-12.234 c -0.976,-0.977 -2.56,-0.977 -3.535,0 -0.977,0.976 -0.977,2.559 0,3.535 l 12.234,12.234 -12.262,12.263 c -0.977,0.977 -0.977,2.559 0,3.535 0.488,0.488 1.128,0.732 1.768,0.732 0.64,0 1.28,-0.244 1.768,-0.732 l 12.262,-12.263 12.234,12.234 c 0.488,0.488 1.128,0.732 1.768,0.732 0.64,0 1.279,-0.244 1.768,-0.732 0.976,-0.977 0.976,-2.559 0,-3.535 l -12.236,-12.234 z"
     id="path4"
     inkscape:connector-curvature="0"
     style="fill:#dd2e44" />
</svg>
