<?xml version="1.0" encoding="UTF-8" standalone="no"?>
<svg
   xmlns:dc="http://purl.org/dc/elements/1.1/"
   xmlns:cc="http://creativecommons.org/ns#"
   xmlns:rdf="http://www.w3.org/1999/02/22-rdf-syntax-ns#"
   xmlns:svg="http://www.w3.org/2000/svg"
   xmlns="http://www.w3.org/2000/svg"
   xmlns:sodipodi="http://sodipodi.sourceforge.net/DTD/sodipodi-0.dtd"
   xmlns:inkscape="http://www.inkscape.org/namespaces/inkscape"
   viewBox="0 0 35.006618 28.625"
   id="svg2"
   version="1.1"
   inkscape:version="0.91 r13725"
   sodipodi:docname="27b0.svg"
   width="35.006618"
   height="28.625">
  <metadata
     id="metadata10">
    <rdf:RDF>
      <cc:Work
         rdf:about="">
        <dc:format>image/svg+xml</dc:format>
        <dc:type
           rdf:resource="http://purl.org/dc/dcmitype/StillImage" />
      </cc:Work>
    </rdf:RDF>
  </metadata>
  <defs
     id="defs8" />
  <sodipodi:namedview
     pagecolor="#ffffff"
     bordercolor="#666666"
     borderopacity="1"
     objecttolerance="10"
     gridtolerance="10"
     guidetolerance="10"
     inkscape:pageopacity="0"
     inkscape:pageshadow="2"
     inkscape:window-width="640"
     inkscape:window-height="480"
     id="namedview6"
     showgrid="false"
     inkscape:zoom="6.5555556"
     inkscape:cx="17.499984"
     inkscape:cy="14.625"
     inkscape:window-x="0"
     inkscape:window-y="0"
     inkscape:window-maximized="0"
     inkscape:current-layer="svg2" />
  <path
     d="m 17.499984,28.625 c -5.09,0 -10.5,-3.965 -10.5,-11.312 0,-4.877 3.365,-9.178 7.591,-12.272 -2.698,-1.302 -5.335,-2.041 -7.091,-2.041 -2.708,0 -5.499,0.914 -5.527,0.923 -0.79,0.258 -1.63499999,-0.165 -1.89599999,-0.951 -0.261,-0.785 0.163,-1.633 0.94899999,-1.895 0.132,-0.044 3.267,-1.077 6.474,-1.077 2.695,0 6.449,1.158 10.01,3.162 3.555,-2.004 7.3,-3.162 9.99,-3.162 3.207,0 6.222,1.559 6.344,1.625 0.781,0.422 1.312,0.699 1.125,1.266 -0.182,0.551 -0.891,0.328 -1.75,0.234 -0.029,-0.003 -2.156,-0.391 -5.688,-0.391 -1.752,0 -4.41,1.003 -7.1,2.304 4.215,3.083 7.568,7.36 7.568,12.212 0.001,7.389 -5.409,11.375 -10.499,11.375 z m 0.013,-21.954 c -4.03,2.585 -7.513,6.345 -7.513,10.642 0,6.056 4.6,8.312 7.5,8.312 2.899,0 7.5,-2.273 7.5,-8.375 0,-4.27 -3.468,-8.005 -7.487,-10.579 z"
     id="path4"
     inkscape:connector-curvature="0"
     style="fill:#31373d" />
</svg>
