<?xml version="1.0" encoding="UTF-8" standalone="no"?>
<svg
   xmlns:dc="http://purl.org/dc/elements/1.1/"
   xmlns:cc="http://creativecommons.org/ns#"
   xmlns:rdf="http://www.w3.org/1999/02/22-rdf-syntax-ns#"
   xmlns:svg="http://www.w3.org/2000/svg"
   xmlns="http://www.w3.org/2000/svg"
   xmlns:sodipodi="http://sodipodi.sourceforge.net/DTD/sodipodi-0.dtd"
   xmlns:inkscape="http://www.inkscape.org/namespaces/inkscape"
   viewBox="0 0 36 11"
   id="svg2"
   version="1.1"
   inkscape:version="0.91 r13725"
   sodipodi:docname="3030.svg"
   width="36"
   height="11">
  <metadata
     id="metadata10">
    <rdf:RDF>
      <cc:Work
         rdf:about="">
        <dc:format>image/svg+xml</dc:format>
        <dc:type
           rdf:resource="http://purl.org/dc/dcmitype/StillImage" />
      </cc:Work>
    </rdf:RDF>
  </metadata>
  <defs
     id="defs8" />
  <sodipodi:namedview
     pagecolor="#ffffff"
     bordercolor="#666666"
     borderopacity="1"
     objecttolerance="10"
     gridtolerance="10"
     guidetolerance="10"
     inkscape:pageopacity="0"
     inkscape:pageshadow="2"
     inkscape:window-width="640"
     inkscape:window-height="480"
     id="namedview6"
     showgrid="false"
     inkscape:zoom="6.5555556"
     inkscape:cx="18"
     inkscape:cy="5"
     inkscape:window-x="0"
     inkscape:window-y="0"
     inkscape:window-maximized="0"
     inkscape:current-layer="svg2" />
  <path
     d="M 27,11 C 24.411,11 22.995,8.451 21.626,5.986 20.537,4.026 19.411,2 18,2 16.588,2 15.463,4.026 14.374,5.986 13.004,8.451 11.588,11 9,11 6.35,11 5.147,8.294 4.086,5.906 3.038,3.546 2.256,2 1,2 0.448,2 0,1.552 0,1 0,0.448 0.448,0 1,0 3.65,0 4.853,2.706 5.914,5.094 6.962,7.453 7.744,9 9,9 10.412,9 11.537,6.974 12.626,5.014 13.996,2.549 15.412,0 18,0 20.589,0 22.005,2.549 23.374,5.014 24.463,6.974 25.589,9 27,9 28.256,9 29.037,7.453 30.086,5.094 31.147,2.706 32.351,0 35,0 35.553,0 36,0.448 36,1 36,1.552 35.553,2 35,2 33.744,2 32.963,3.546 31.914,5.906 30.853,8.294 29.649,11 27,11 Z"
     id="path4"
     inkscape:connector-curvature="0"
     style="fill:#292f33" />
</svg>
