<?xml version="1.0" encoding="UTF-8" standalone="no"?>
<svg
   xmlns:dc="http://purl.org/dc/elements/1.1/"
   xmlns:cc="http://creativecommons.org/ns#"
   xmlns:rdf="http://www.w3.org/1999/02/22-rdf-syntax-ns#"
   xmlns:svg="http://www.w3.org/2000/svg"
   xmlns="http://www.w3.org/2000/svg"
   xmlns:sodipodi="http://sodipodi.sourceforge.net/DTD/sodipodi-0.dtd"
   xmlns:inkscape="http://www.inkscape.org/namespaces/inkscape"
   viewBox="0 0 36 36"
   id="svg2"
   version="1.1"
   inkscape:version="0.91 r13725"
   sodipodi:docname="a9.svg"
   width="36"
   height="36">
  <metadata
     id="metadata12">
    <rdf:RDF>
      <cc:Work
         rdf:about="">
        <dc:format>image/svg+xml</dc:format>
        <dc:type
           rdf:resource="http://purl.org/dc/dcmitype/StillImage" />
      </cc:Work>
    </rdf:RDF>
  </metadata>
  <defs
     id="defs10" />
  <sodipodi:namedview
     pagecolor="#ffffff"
     bordercolor="#666666"
     borderopacity="1"
     objecttolerance="10"
     gridtolerance="10"
     guidetolerance="10"
     inkscape:pageopacity="0"
     inkscape:pageshadow="2"
     inkscape:window-width="640"
     inkscape:window-height="480"
     id="namedview8"
     showgrid="false"
     inkscape:zoom="6.5555556"
     inkscape:cx="18"
     inkscape:cy="18"
     inkscape:window-x="0"
     inkscape:window-y="0"
     inkscape:window-maximized="0"
     inkscape:current-layer="svg2" />
  <path
     d="M 18,0 C 8.059,0 0,8.06 0,18 0,27.941 8.059,36 18,36 27.941,36 36,27.941 36,18 36,8.06 27.941,0 18,0 Z m 0,34 C 9.164,34 2,26.837 2,18 2,9.164 9.164,2 18,2 c 8.837,0 16,7.164 16,16 0,8.837 -7.163,16 -16,16 z"
     id="path4"
     inkscape:connector-curvature="0"
     style="fill:#31373d" />
  <path
     d="m 18.723,6.552 c 2.263,0 6.666,0.744 6.666,3.473 0,1.116 -0.775,2.077 -1.922,2.077 -1.272,0 -2.139,-1.085 -4.744,-1.085 -3.845,0 -5.829,3.256 -5.829,7.038 0,3.689 2.015,6.852 5.829,6.852 2.605,0 3.658,-1.302 4.929,-1.302 1.396,0 2.047,1.395 2.047,2.107 0,2.977 -4.682,3.659 -6.976,3.659 -6.294,0 -10.666,-4.992 -10.666,-11.41 0,-6.448 4.341,-11.409 10.666,-11.409 z"
     id="path6"
     inkscape:connector-curvature="0"
     style="fill:#31373d" />
</svg>
