<?xml version="1.0" encoding="UTF-8" standalone="no"?>
<svg
   xmlns:dc="http://purl.org/dc/elements/1.1/"
   xmlns:cc="http://creativecommons.org/ns#"
   xmlns:rdf="http://www.w3.org/1999/02/22-rdf-syntax-ns#"
   xmlns:svg="http://www.w3.org/2000/svg"
   xmlns="http://www.w3.org/2000/svg"
   xmlns:sodipodi="http://sodipodi.sourceforge.net/DTD/sodipodi-0.dtd"
   xmlns:inkscape="http://www.inkscape.org/namespaces/inkscape"
   viewBox="0 0 36 36"
   id="svg2"
   version="1.1"
   inkscape:version="0.91 r13725"
   sodipodi:docname="e50a.svg"
   width="36"
   height="36">
  <metadata
     id="metadata22">
    <rdf:RDF>
      <cc:Work
         rdf:about="">
        <dc:format>image/svg+xml</dc:format>
        <dc:type
           rdf:resource="http://purl.org/dc/dcmitype/StillImage" />
      </cc:Work>
    </rdf:RDF>
  </metadata>
  <defs
     id="defs20" />
  <sodipodi:namedview
     pagecolor="#ffffff"
     bordercolor="#666666"
     borderopacity="1"
     objecttolerance="10"
     gridtolerance="10"
     guidetolerance="10"
     inkscape:pageopacity="0"
     inkscape:pageshadow="2"
     inkscape:window-width="640"
     inkscape:window-height="480"
     id="namedview18"
     showgrid="false"
     inkscape:zoom="6.5555556"
     inkscape:cx="18"
     inkscape:cy="18"
     inkscape:window-x="0"
     inkscape:window-y="0"
     inkscape:window-maximized="0"
     inkscape:current-layer="svg2" />
  <path
     d="M 18.04,13.95 0,26 0,34 c 0,1.104 0.896,2 2,2 l 32,0 c 1.104,0 2,-0.896 2,-2 L 36,26.011 18.04,13.95 Z"
     id="path4"
     inkscape:connector-curvature="0"
     style="fill:#99aab5" />
  <path
     d="m 0,33 36,0 0,1 -36,0 z m 0,-3 36,0 0,1 -36,0 z m 0,-3 36,0 0,1 -36,0 z m 1.497,-2 32.998,0 -1.489,-1 -30.012,0 z"
     id="path6"
     inkscape:connector-curvature="0"
     style="fill:#66757f" />
  <path
     d="M 18,0 C 10.82,0 5,1.343 5,3 L 5,36 31,36 31,3 C 31,1.343 25.18,0 18,0 Z"
     id="path8"
     inkscape:connector-curvature="0"
     style="fill:#e1e8ed" />
  <path
     d="m 18,13 c 7.18,0 13,1.344 13,3 l 0,-2 C 31,12.343 25.18,11 18,11 10.82,11 5,12.343 5,14 l 0,2 c 0,-1.656 5.82,-3 13,-3 z m 0,12 c 7.18,0 13,1.344 13,3 l 0,-2 C 31,24.344 25.18,23 18,23 10.82,23 5,24.344 5,26 l 0,2 c 0,-1.656 5.82,-3 13,-3 z m 0,6 c 7.18,0 13,1.344 13,3 l 0,-2 C 31,30.344 25.18,29 18,29 10.82,29 5,30.344 5,32 l 0,2 c 0,-1.656 5.82,-3 13,-3 z M 18,7 c 7.18,0 13,1.344 13,3 L 31,8 C 31,6.343 25.18,5 18,5 10.82,5 5,6.343 5,8 l 0,2 C 5,8.344 10.82,7 18,7 Z"
     id="path10"
     inkscape:connector-curvature="0"
     style="fill:#ccd6dd" />
  <path
     d="M 14,0.146 14,36 16,36 16,0.039 C 15.315,0.063 14.646,0.098 14,0.146 Z M 8,1.084 8,36 10,36 10,0.639 C 9.268,0.771 8.594,0.919 8,1.084 Z M 20,0.039 20,36 22,36 22,0.146 C 21.354,0.098 20.685,0.063 20,0.039 Z m 6,0.6 L 26,36 28,36 28,1.084 C 27.406,0.919 26.731,0.771 26,0.639 Z"
     id="path12"
     inkscape:connector-curvature="0"
     style="fill:#ccd6dd" />
  <path
     d="m 18,19 c 7.18,0 13,1.344 13,3 l 0,-2 C 31,18.343 25.18,17 18,17 10.82,17 5,18.343 5,20 l 0,2 c 0,-1.656 5.82,-3 13,-3 z"
     id="path14"
     inkscape:connector-curvature="0"
     style="fill:#292f33" />
  <path
     d="m 11.13,5.583 -0.708,0 c -0.576,0 -0.815,-0.42 -0.815,-0.828 0,-0.419 0.3,-0.827 0.815,-0.827 l 1.703,0 c 0.516,0 0.804,0.372 0.804,0.851 l 0,6.825 c 0,0.6 -0.384,0.935 -0.899,0.935 -0.515,0 -0.899,-0.335 -0.899,-0.935 l 0,-6.021 z m 2.88,2.147 c 0,-1.955 0.756,-4.414 3.179,-4.414 2.423,0 3.178,2.459 3.178,4.414 0,1.955 -0.755,4.414 -3.178,4.414 -2.423,0 -3.179,-2.459 -3.179,-4.414 z m 4.485,0 c 0,-0.912 -0.084,-2.783 -1.307,-2.783 -1.224,0 -1.308,1.871 -1.308,2.783 0,0.852 0.084,2.782 1.308,2.782 1.223,10e-4 1.307,-1.93 1.307,-2.782 z m 8.592,-0.972 c 0,1.811 -1.835,4.353 -3.046,5.481 -0.096,0.096 -0.24,0.192 -0.384,0.288 -0.132,0.084 -0.264,0.084 -0.36,0.084 -0.335,0 -0.852,-0.444 -0.852,-0.875 0,-0.168 0.108,-0.312 0.252,-0.492 0.48,-0.588 1.26,-1.356 1.655,-1.919 L 24.329,9.301 c -0.216,0.096 -0.492,0.144 -0.756,0.144 -1.439,0 -2.507,-1.271 -2.507,-2.687 0,-1.559 1.235,-2.974 3.011,-2.974 1.847,0 3.01,1.379 3.01,2.974 z m -1.871,0 c 0,-0.671 -0.419,-1.247 -1.139,-1.247 -0.684,0 -1.14,0.552 -1.14,1.247 0,0.636 0.384,1.248 1.14,1.248 0.684,-10e-4 1.139,-0.541 1.139,-1.248 z"
     id="path16"
     inkscape:connector-curvature="0"
     style="fill:#be1931" />
</svg>
